<svg xmlns="http://www.w3.org/2000/svg" viewBox="0 0 1200 800" preserveAspectRatio="none" width="1200" height="800">
 <path d="M0,0H1200V800H0Z" style="fill: white;"></path>
 <g>
  <g transform="translate(120,80)">
   <path d="M0,0H960V640H0Z" style="fill: white; stroke: black; stroke-width: 1;"></path>
   <svg x="0" y="0" overflow="hidden" width="960" height="640" viewBox="0 0 960 640">
    <g>
     <path d="M9,604h4M11,600v8M13,572h6M16,566v12M18,567h4M20,560v14M22,532h6M25,524v16M27,532h4M29,524v17M31,522h6M34,514v17M36,514h4M38,505v18M40,497h6M43,487v20M45,487h4M47,477v19M49,492h6M52,481v21M54,480h4M56,469v21M58,464h6M61,453v22M63,459h4M65,448v22M67,472h4M69,462v21M71,465h6M74,454v22M76,433h4M78,421v23M80,442h6M83,431v23M85,451h4M87,439v23M89,448h6M92,436v24M94,437h4M96,425v24M98,432h6M101,420v25M103,411h4M105,399v24M107,391h6M110,379v25M112,406h4M114,394v25M116,371h6M119,358v26M121,369h4M123,356v26M125,355h4M127,342v26M129,333h6M132,320v26M134,296h4M136,283v27M138,232h6M141,218v28M143,149h4M145,134v30M147,79h6M150,63v31M152,46h4M154,30v32M156,78h6M159,63v31M161,163h4M163,148v30M165,238h6M168,224v29M170,252h4M172,237v29M174,297h6M177,283v29M179,328h4M181,315v27M183,343h6M186,329v28M188,343h4M190,329v28M192,343h4M194,329v28M196,346h6M199,332v28M201,341h4M203,327v28M205,350h6M208,336v28M210,361h4M212,347v28M214,335h6M217,321v29M219,357h4M221,343v29M223,359h6M226,344v29M228,348h4M230,333v29M232,366h6M235,351v29M237,368h4M239,354v28M241,342h6M244,328v29M246,351h4M248,336v29M250,367h6M253,353v29M255,358h4M257,344v29M259,358h4M261,343v29M263,347h6M266,333v29M268,374h4M270,360v29M272,385h6M275,370v29M277,383h4M279,368v29M281,363h6M284,349v29M286,337h4M288,323v29M290,358h6M293,343v29M295,339h4M297,324v30M299,352h6M302,337v30M304,332h4M306,317v30M308,362h6M311,347v30M313,354h4M315,339v30M317,347h4M319,332v30M321,358h6M324,343v30M326,327h4M328,312v30M330,338h6M333,322v31M335,344h4M337,329v31M339,353h6M342,337v31M344,336h4M346,321v30M348,350h6M351,334v31M353,362h4M355,347v30M357,363h6M360,348v30M362,325h4M364,309v31M366,338h6M369,323v31M371,327h4M373,312v31M375,331h6M378,316v31M380,321h4M382,305v31M384,286h4M386,270v32M388,310h6M391,294v32M393,320h4M395,305v31M397,354h6M400,339v31M402,330h4M404,315v31M406,334h6M409,319v31M411,323h4M413,307v32M415,310h6M418,294v32M420,293h4M422,277v32M424,299h6M427,283v32M429,303h4M431,287v32M433,301h6M436,285v32M438,308h4M440,292v32M442,291h6M445,275v32M447,298h4M449,282v32M451,309h4M453,293v32M455,314h6M458,298v32M460,303h4M462,287v32M464,326h6M467,310v32M469,288h4M471,271v33M473,311h6M476,295v32M478,331h4M480,315v32M482,313h6M485,297v32M487,302h4M489,286v32M491,279h6M494,263v32M496,279h4M498,263v33M500,274h6M503,258v33M505,297h4M507,281v33M509,303h4M511,286v33M513,271h6M516,254v33M518,287h4M520,271v33M522,321h6M525,304v33M527,291h4M529,274v33M531,296h6M534,280v33M536,301h4M538,285v33M540,277h6M543,261v33M545,296h4M547,280v33M549,326h6M552,310v33M554,317h4M556,300v33M558,296h6M561,279v33M563,292h4M565,275v33M567,319h6M570,302v33M572,313h4M574,297v33M576,293h4M578,277v33M580,320h6M583,303v33M585,311h4M587,294v33M589,307h6M592,290v34M594,308h4M596,291v34M598,294h6M601,277v34M603,335h4M605,318v34M607,321h6M610,305v33M612,316h4M614,299v34M616,336h6M619,319v34M621,350h4M623,333v33M625,344h6M628,327v33M630,336h4M632,319v33M634,336h6M637,319v34M639,321h4M641,304v34M643,354h4M645,337v33M647,316h6M650,300v33M652,335h4M654,318v34M656,334h6M659,317v34M661,338h4M663,321v34M665,361h6M668,344v33M670,340h4M672,323v34M674,315h6M677,298v34M679,351h4M681,335v33M683,369h6M686,352v33M688,346h4M690,329v34M692,369h6M695,353v33M697,334h4M699,317v34M701,373h4M703,357v33M705,340h6M708,323v34M710,351h4M712,335v33M714,364h6M717,347v33M719,379h4M721,362v33M723,367h6M726,350v34M728,373h4M730,357v33M732,361h6M735,345v33M737,350h4M739,334v33M741,382h6M744,365v34M746,348h4M748,331v34M750,362h6M753,345v34M755,332h4M757,315v34M759,390h6M762,373v34M764,354h4M766,338v33M768,377h4M770,360v34M772,367h6M775,351v33M777,364h4M779,347v34M781,352h6M784,335v34M786,372h4M788,355v34M790,371h6M793,354v33M795,362h4M797,345v34M799,375h6M802,358v34M804,389h4M806,372v34M808,354h6M811,337v34M813,417h4M815,400v33M817,384h6M820,367v34M822,388h4M824,371v34M826,371h6M829,354v33M831,383h4M833,366v34M835,388h4M837,372v33M839,379h6M842,362v34M844,417h4M846,400v34M848,383h6M851,366v34M853,399h4M855,382v34M857,419h6M860,403v33M862,389h4M864,372v34M866,371h6M869,354v34M871,373h4M873,356v34M875,392h6M878,375v34M880,387h4M882,370v34M884,379h6M887,362v34M889,399h4M891,382v34M893,375h4M895,358v34M897,398h6M900,381v34M902,378h4M904,361v34M906,365h6M909,348v34M911,388h4M913,371v34M915,404h6M918,387v34M920,379h4M922,362v34M924,372h6M927,355v34M929,411h4M931,394v34M933,377h6M936,360v34M938,382h4M940,365v34M942,394h6M945,377v34M947,386h4M949,369v34M951,409h6M954,392v34M956,355h4M958,337v35" style="stroke: #00009a; stroke-width: 1;"></path>
    </g>
    <g>
     <path d="M53.5,483.84C54.03,483.22,55.1,481.9,56,480.61S57.1,478.68,58,477.4S59.5,475.48,60.5,474.21S62,472.3,63,471.04S64.5,469.14,65.5,467.88S67.1,465.99,68,464.73S69.1,462.85,70,461.59S71.5,459.71,72.5,458.46S74.1,456.59,75,455.33S76.1,453.46,77,452.21S78.5,450.33,79.5,449.07S81,447.19,82,445.93S83.5,444.04,84.5,442.77S86.1,440.87,87,439.59S88.1,437.66,89,436.37S90.5,434.42,91.5,433.1S93.1,431.13,94,429.78S95.1,427.77,96,426.39S97.5,424.33,98.5,422.91S100.1,420.78,101,419.32S102.1,417.11,103,415.58S104.5,413.28,105.5,411.68S107,409.26,108,407.55S109.5,404.98,110.5,403.16S112.1,400.4,113,398.42S114.1,395.43,115,393.26S116.5,389.97,117.5,387.55S119.1,383.89,120,381.15S121.1,377.01,122,373.85S123.5,369.08,124.5,365.39S126.1,359.79,127,355.39S128.1,348.71,129,343.35S130.5,335.23,131.5,328.63S133,318.58,134,310.35S135.5,297.75,136.5,287.48S138.1,271.64,139,258.99S140.1,239.29,141,224.23S142.5,200.55,143.5,183.68S145.1,157.02,146,139.87S147.1,112.92,148,97.93S149.5,74.96,150.5,64.93S152,50.7,153,47.78S154.5,45.58,155.5,50.34S157.1,60.42,158,71.57S159.1,91.09,160,106.09S161.5,130.48,162.5,146.57S164.1,171.47,165,186.54S166.1,209.02,167,221.95S168.5,240.7,169.5,251.18S171.1,266.1,172,274.3S173.1,285.88,174,292.21S175.5,301.1,176.5,305.96S178,312.78,179,316.53S180.5,321.79,181.5,324.69S183.1,328.77,184,331.04S185.1,334.23,186,336.01S187.5,338.53,188.5,339.94S190.1,341.94,191,343.06S192.1,344.65,193,345.55S194.5,346.83,195.5,347.55S197.1,348.58,198,349.16S199.1,349.99,200,350.47S201.5,351.14,202.5,351.52S204,352.07,205,352.38S206.5,352.83,207.5,353.08S209.1,353.45,210,353.66S211.1,353.96,212,354.13S213.5,354.38,214.5,354.52S216.1,354.73,217,354.85S218.1,355.02,219,355.13S220.5,355.28,221.5,355.37S223,355.5,224,355.58S225.5,355.7,226.5,355.77S228.1,355.88,229,355.95S230.1,356.06,231,356.13S232.5,356.23,233.5,356.3S235.1,356.4,236,356.47S237.1,356.58,238,356.66S239.5,356.77,240.5,356.85S242.1,356.97,243,357.05S244.1,357.18,245,357.27S246.5,357.41,247.5,357.51S249,357.66,250,357.77S251.5,357.94,252.5,358.05S254.1,358.23,255,358.36S256.1,358.55,257,358.68S258.5,358.89,259.5,359.04S261.1,359.26,262,359.42S263.1,359.66,264,359.83S265.5,360.09,266.5,360.27S268.1,360.54,269,360.74S270.1,361.03,271,361.23S272.5,361.55,273.5,361.76S275,362.09,276,362.32S277.5,362.67,278.5,362.92S280.1,363.29,281,363.54S282.1,363.93,283,364.2S284.5,364.61,285.5,364.9S287.1,365.32,288,365.62S289.61,366.21,290,366.38" style="fill: none; stroke: red; stroke-width: 2;"></path>
    </g>
    <g>
     <path d="M53.5,488.15C54.03,487.57,55.1,486.33,56,485.13S57.1,483.33,58,482.14S59.5,480.36,60.5,479.19S62,477.44,63,476.28S64.5,474.55,65.5,473.4S67.1,471.69,68,470.56S69.1,468.87,70,467.76S71.5,466.09,72.5,464.99S74.1,463.35,75,462.26S76.1,460.64,77,459.56S78.5,457.96,79.5,456.9S81,455.32,82,454.28S83.5,452.72,84.5,451.69S86.1,450.16,87,449.14S88.1,447.63,89,446.63S90.5,445.13,91.5,444.15S93.1,442.68,94,441.71S95.1,440.26,96,439.3S97.5,437.87,98.5,436.93S100.1,435.53,101,434.6S102.1,433.22,103,432.31S104.5,430.94,105.5,430.05S107,428.71,108,427.82S109.5,426.5,110.5,425.64S112.1,424.34,113,423.49S114.1,422.21,115,421.37S116.5,420.12,117.5,419.3S119.1,418.07,120,417.26S121.1,416.05,122,415.25S123.5,414.07,124.5,413.29S126.1,412.12,127,411.36S128.1,410.21,129,409.46S130.5,408.34,131.5,407.61S133,406.51,134,405.79S135.5,404.71,136.5,404.01S138.1,402.95,139,402.26S140.1,401.23,141,400.55S142.5,399.54,143.5,398.88S145.1,397.89,146,397.25S147.1,396.28,148,395.65S149.5,394.71,150.5,394.09S152,393.17,153,392.57S154.5,391.67,155.5,391.08S157.1,390.2,158,389.63S159.1,388.78,160,388.22S161.5,387.39,162.5,386.85S164.1,386.04,165,385.51S166.1,384.72,167,384.21S168.5,383.44,169.5,382.95S171.1,382.2,172,381.72S173.1,381,174,380.53S175.5,379.83,176.5,379.38S178,378.71,179,378.27S180.5,377.62,181.5,377.19S183.1,376.56,184,376.15S185.1,375.55,186,375.15S187.5,374.57,188.5,374.19S190.1,373.63,191,373.26S192.1,372.72,193,372.38S194.5,371.86,195.5,371.53S197.1,371.03,198,370.71S199.1,370.24,200,369.94S201.5,369.49,202.5,369.2S204,368.77,205,368.5S206.5,368.1,207.5,367.84S209.1,367.46,210,367.22S211.1,366.86,212,366.63S213.5,366.29,214.5,366.08S216.1,365.77,217,365.57S218.1,365.28,219,365.1S220.5,364.83,221.5,364.66S223,364.42,224,364.27S225.5,364.04,226.5,363.91S228.1,363.71,229,363.59S230.1,363.41,231,363.31S232.5,363.15,233.5,363.06S235.1,362.93,236,362.85S237.1,362.75,238,362.69S239.5,362.6,240.5,362.56S242.1,362.49,243,362.46S244.1,362.43,245,362.41S246.5,362.39,247.5,362.4S249,362.4,250,362.42S251.5,362.45,252.5,362.48S254.1,362.53,255,362.58S256.1,362.66,257,362.72S258.5,362.82,259.5,362.9S261.1,363.02,262,363.11S263.1,363.26,264,363.36S265.5,363.53,266.5,363.66S268.1,363.85,269,363.99S270.1,364.2,271,364.36S272.5,364.59,273.5,364.76S275,365.02,276,365.21S277.5,365.49,278.5,365.7S280.1,366,281,366.22S282.1,366.55,283,366.78S284.5,367.14,285.5,367.38S287.1,367.76,288,368.02S289.61,368.55,290,368.7" style="fill: none; stroke: #ff0000; stroke-width: 2;"></path>
    </g>
   </svg>
   <g>
    <g transform="translate(0,640)">
     <path d="M0,0h960M0,-12V0M22,-12V0M45,-12V0M67,-24V0M89,-12V0M112,-12V0M134,-12V0M156,-24V0M179,-12V0M201,-12V0M223,-12V0M246,-24V0M268,-12V0M290,-12V0M313,-12V0M335,-24V0M357,-12V0M380,-12V0M402,-12V0M424,-24V0M447,-12V0M469,-12V0M491,-12V0M513,-24V0M536,-12V0M558,-12V0M580,-12V0M603,-24V0M625,-12V0M647,-12V0M670,-12V0M692,-24V0M714,-12V0M737,-12V0M759,-12V0M781,-24V0M804,-12V0M826,-12V0M848,-12V0M871,-24V0M893,-12V0M915,-12V0M938,-12V0" style="stroke: black; stroke-width: 1;"></path>
     <g font-family="Arial" font-size="28" space="preserve" fill="black" text-anchor="middle">
      <text dy=".8em" transform="translate(67,5)">
       1
      </text>
      <text dy=".8em" transform="translate(156,5)">
       1.02
      </text>
      <text dy=".8em" transform="translate(246,5)">
       1.04
      </text>
      <text dy=".8em" transform="translate(335,5)">
       1.06
      </text>
      <text dy=".8em" transform="translate(424,5)">
       1.08
      </text>
      <text dy=".8em" transform="translate(513,5)">
       1.10
      </text>
      <text dy=".8em" transform="translate(603,5)">
       1.12
      </text>
      <text dy=".8em" transform="translate(692,5)">
       1.14
      </text>
      <text dy=".8em" transform="translate(781,5)">
       1.16
      </text>
      <text dy=".8em" transform="translate(871,5)">
       1.18
      </text>
     </g>
    </g>
    <g>
     <path d="M0,0v640M36,640H0M18,620H0M18,600H0M18,580H0M18,560H0M36,540H0M18,519H0M18,499H0M18,479H0M18,459H0M36,439H0M18,419H0M18,399H0M18,379H0M18,359H0M36,339H0M18,319H0M18,298H0M18,278H0M18,258H0M36,238H0M18,218H0M18,198H0M18,178H0M18,158H0M36,138H0M18,118H0M18,97H0M18,77H0M18,57H0M36,37H0M18,17H0" style="stroke: black; stroke-width: 1;"></path>
     <g font-family="Arial" font-size="28" space="preserve" fill="black" text-anchor="end">
      <text dy=".4em" transform="translate(-6,640)">
       0
      </text>
      <text dy=".4em" transform="translate(-6,540)">
       500
      </text>
      <text dy=".4em" transform="translate(-6,439)">
       1000
      </text>
      <text dy=".4em" transform="translate(-6,339)">
       1500
      </text>
      <text dy=".4em" transform="translate(-6,238)">
       2000
      </text>
      <text dy=".4em" transform="translate(-6,138)">
       2500
      </text>
      <text dy=".4em" transform="translate(-6,37)">
       3000
      </text>
     </g>
    </g>
   </g>
  </g>
  <g transform="translate(120,4)" font-family="Arial" font-size="40" space="preserve">
   <text fill="black" text-anchor="middle" dy=".8em" transform="translate(480)">
    projection
   </text>
  </g>
  <g transform="translate(936,52)" font-family="Arial" font-size="20" space="preserve" fill="black">
   <path d="M0,0H240V128H0Z" style="fill: white; stroke: black; stroke-width: 1;"></path>
   <text text-anchor="middle" dy=".4em" transform="translate(120,16)">
    hSignalBadFit
   </text>
   <text text-anchor="start" dy=".4em" transform="translate(12,48)">
    Entries
   </text>
   <text text-anchor="end" dy=".4em" transform="translate(228,48)">
    73245.49
   </text>
   <text text-anchor="start" dy=".4em" transform="translate(12,80)">
    Mean
   </text>
   <text text-anchor="end" dy=".4em" transform="translate(228,80)">
    1.095
   </text>
   <text text-anchor="start" dy=".4em" transform="translate(12,112)">
    Std Dev
   </text>
   <text text-anchor="end" dy=".4em" transform="translate(228,112)">
    0.05745
   </text>
   <path d="M0,32h240" style="stroke: black; stroke-width: 1;"></path>
  </g>
 </g>
</svg>