<svg xmlns="http://www.w3.org/2000/svg" viewBox="0 0 1200 800" preserveAspectRatio="none" width="1200" height="800">
 <path d="M0,0H1200V800H0Z" style="fill: white;"></path>
 <g>
  <g transform="translate(120,80)">
   <path d="M0,0H960V640H0Z" style="fill: white; stroke: black; stroke-width: 1;"></path>
   <svg x="0" y="0" overflow="hidden" width="960" height="640" viewBox="0 0 960 640">
    <g>
     <path d="M9,604h4M11,600v8M13,572h6M16,566v12M18,567h4M20,560v14M22,532h6M25,524v16M27,532h4M29,524v17M31,522h6M34,514v17M36,514h4M38,505v18M40,497h6M43,487v20M45,487h4M47,477v19M49,492h6M52,481v21M54,480h4M56,469v21M58,464h6M61,453v22M63,459h4M65,448v22M67,472h4M69,462v21M71,465h6M74,454v22M76,433h4M78,421v23M80,442h6M83,431v23M85,451h4M87,439v23M89,448h6M92,436v24M94,437h4M96,425v24M98,432h6M101,420v25M103,411h4M105,399v24M107,391h6M110,379v25M112,406h4M114,394v25M116,371h6M119,358v26M121,369h4M123,356v26M125,355h4M127,342v26M129,333h6M132,320v26M134,296h4M136,283v27M138,232h6M141,218v28M143,149h4M145,134v30M147,79h6M150,63v31M152,46h4M154,30v32M156,78h6M159,63v31M161,163h4M163,148v30M165,238h6M168,224v29M170,252h4M172,237v29M174,297h6M177,283v29M179,328h4M181,315v27M183,343h6M186,329v28M188,343h4M190,329v28M192,343h4M194,329v28M196,346h6M199,332v28M201,341h4M203,327v28M205,350h6M208,336v28M210,361h4M212,347v28M214,335h6M217,321v29M219,357h4M221,343v29M223,359h6M226,344v29M228,348h4M230,333v29M232,366h6M235,351v29M237,368h4M239,354v28M241,342h6M244,328v29M246,351h4M248,336v29M250,367h6M253,353v29M255,358h4M257,344v29M259,358h4M261,343v29M263,347h6M266,333v29M268,374h4M270,360v29M272,385h6M275,370v29M277,383h4M279,368v29M281,363h6M284,349v29M286,337h4M288,323v29M290,358h6M293,343v29M295,339h4M297,324v30M299,352h6M302,337v30M304,332h4M306,317v30M308,362h6M311,347v30M313,354h4M315,339v30M317,347h4M319,332v30M321,358h6M324,343v30M326,327h4M328,312v30M330,338h6M333,322v31M335,344h4M337,329v31M339,353h6M342,337v31M344,336h4M346,321v30M348,350h6M351,334v31M353,362h4M355,347v30M357,363h6M360,348v30M362,325h4M364,309v31M366,338h6M369,323v31M371,327h4M373,312v31M375,331h6M378,316v31M380,321h4M382,305v31M384,286h4M386,270v32M388,310h6M391,294v32M393,320h4M395,305v31M397,354h6M400,339v31M402,330h4M404,315v31M406,334h6M409,319v31M411,323h4M413,307v32M415,310h6M418,294v32M420,293h4M422,277v32M424,299h6M427,283v32M429,303h4M431,287v32M433,301h6M436,285v32M438,308h4M440,292v32M442,291h6M445,275v32M447,298h4M449,282v32M451,309h4M453,293v32M455,314h6M458,298v32M460,303h4M462,287v32M464,326h6M467,310v32M469,288h4M471,271v33M473,311h6M476,295v32M478,331h4M480,315v32M482,313h6M485,297v32M487,302h4M489,286v32M491,279h6M494,263v32M496,279h4M498,263v33M500,274h6M503,258v33M505,297h4M507,281v33M509,303h4M511,286v33M513,271h6M516,254v33M518,287h4M520,271v33M522,321h6M525,304v33M527,291h4M529,274v33M531,296h6M534,280v33M536,301h4M538,285v33M540,277h6M543,261v33M545,296h4M547,280v33M549,326h6M552,310v33M554,317h4M556,300v33M558,296h6M561,279v33M563,292h4M565,275v33M567,319h6M570,302v33M572,313h4M574,297v33M576,293h4M578,277v33M580,320h6M583,303v33M585,311h4M587,294v33M589,307h6M592,290v34M594,308h4M596,291v34M598,294h6M601,277v34M603,335h4M605,318v34M607,321h6M610,305v33M612,316h4M614,299v34M616,336h6M619,319v34M621,350h4M623,333v33M625,344h6M628,327v33M630,336h4M632,319v33M634,336h6M637,319v34M639,321h4M641,304v34M643,354h4M645,337v33M647,316h6M650,300v33M652,335h4M654,318v34M656,334h6M659,317v34M661,338h4M663,321v34M665,361h6M668,344v33M670,340h4M672,323v34M674,315h6M677,298v34M679,351h4M681,335v33M683,369h6M686,352v33M688,346h4M690,329v34M692,369h6M695,353v33M697,334h4M699,317v34M701,373h4M703,357v33M705,340h6M708,323v34M710,351h4M712,335v33M714,364h6M717,347v33M719,379h4M721,362v33M723,367h6M726,350v34M728,373h4M730,357v33M732,361h6M735,345v33M737,350h4M739,334v33M741,382h6M744,365v34M746,348h4M748,331v34M750,362h6M753,345v34M755,332h4M757,315v34M759,390h6M762,373v34M764,354h4M766,338v33M768,377h4M770,360v34M772,367h6M775,351v33M777,364h4M779,347v34M781,352h6M784,335v34M786,372h4M788,355v34M790,371h6M793,354v33M795,362h4M797,345v34M799,375h6M802,358v34M804,389h4M806,372v34M808,354h6M811,337v34M813,417h4M815,400v33M817,384h6M820,367v34M822,388h4M824,371v34M826,371h6M829,354v33M831,383h4M833,366v34M835,388h4M837,372v33M839,379h6M842,362v34M844,417h4M846,400v34M848,383h6M851,366v34M853,399h4M855,382v34M857,419h6M860,403v33M862,389h4M864,372v34M866,371h6M869,354v34M871,373h4M873,356v34M875,392h6M878,375v34M880,387h4M882,370v34M884,379h6M887,362v34M889,399h4M891,382v34M893,375h4M895,358v34M897,398h6M900,381v34M902,378h4M904,361v34M906,365h6M909,348v34M911,388h4M913,371v34M915,404h6M918,387v34M920,379h4M922,362v34M924,372h6M927,355v34M929,411h4M931,394v34M933,377h6M936,360v34M938,382h4M940,365v34M942,394h6M945,377v34M947,386h4M949,369v34M951,409h6M954,392v34M956,355h4M958,337v35" style="stroke: #00009a; stroke-width: 1;"></path>
    </g>
    <g>
     <path d="M53.58,483.84C53.82,483.52,55.47,481.25,55.95,480.61S57.84,478.04,58.31,477.4S60.21,474.85,60.68,474.21S62.57,471.67,63.05,471.04S64.94,468.51,65.41,467.88S67.31,465.36,67.78,464.73S69.67,462.22,70.15,461.59S72.04,459.09,72.51,458.46S74.41,455.96,74.88,455.33S76.77,452.83,77.25,452.21S79.14,449.7,79.61,449.07S81.51,446.56,81.98,445.93S83.87,443.41,84.35,442.77S86.24,440.23,86.71,439.59S88.61,437.02,89.08,436.37S90.97,433.76,91.45,433.1S93.34,430.46,93.81,429.78S95.71,427.08,96.18,426.39S98.07,423.62,98.55,422.91S100.44,420.05,100.91,419.32S102.8,416.35,103.28,415.58S105.17,412.48,105.64,411.68S107.54,408.4,108.01,407.55S109.9,404.07,110.38,403.16S112.27,399.41,112.74,398.42S114.64,394.35,115.11,393.26S117,388.76,117.48,387.55S119.37,382.52,119.84,381.15S121.74,375.43,122.21,373.85S124.1,367.23,124.58,365.39S126.47,357.59,126.94,355.39S128.84,346.03,129.31,343.35S131.2,331.93,131.68,328.63S133.57,314.46,134.04,310.35S135.94,292.62,136.41,287.48S138.3,265.32,138.78,258.99S140.67,231.76,141.14,224.23S143.04,192.11,143.51,183.68S145.4,148.45,145.88,139.87S147.77,105.42,148.24,97.93S150.14,69.94,150.61,64.93S152.5,49.24,152.97,47.78S154.87,47.96,155.34,50.34S157.23,66,157.71,71.57S159.6,98.59,160.07,106.09S161.97,138.52,162.44,146.57S164.33,179.01,164.81,186.54S166.7,215.49,167.17,221.95S169.07,245.94,169.54,251.18S171.43,270.2,171.91,274.3S173.8,289.04,174.27,292.21S176.17,303.53,176.64,305.96S178.53,314.65,179.01,316.53S180.9,323.24,181.37,324.69S183.27,329.9,183.74,331.04S185.63,335.12,186.11,336.01S188,339.23,188.47,339.94S190.37,342.5,190.84,343.06S192.73,345.1,193.21,345.55S195.1,347.19,195.57,347.55S197.47,348.87,197.94,349.16S199.83,350.23,200.31,350.47S202.2,351.33,202.67,351.52S204.56,352.23,205.04,352.38S206.93,352.96,207.4,353.08S209.3,353.55,209.77,353.66S211.66,354.04,212.14,354.13S214.03,354.45,214.5,354.52S216.4,354.79,216.87,354.85S218.76,355.08,219.24,355.13S221.13,355.32,221.6,355.37S223.5,355.54,223.97,355.58S225.86,355.74,226.34,355.77S228.23,355.92,228.7,355.95S230.6,356.09,231.07,356.13S232.96,356.26,233.44,356.3S235.33,356.44,235.8,356.47S237.7,356.62,238.17,356.66S240.06,356.81,240.54,356.85S242.43,357.01,242.9,357.05S244.8,357.23,245.27,357.27S247.16,357.46,247.64,357.51S249.53,357.72,250,357.77S251.9,357.99,252.37,358.05S254.26,358.29,254.73,358.36S256.63,358.62,257.1,358.68S258.99,358.97,259.47,359.04S261.36,359.34,261.83,359.42S263.73,359.74,264.2,359.83S266.09,360.18,266.57,360.27S268.46,360.64,268.93,360.74S270.83,361.13,271.3,361.23S273.19,361.65,273.67,361.76S275.56,362.21,276.03,362.32S277.93,362.8,278.4,362.92S280.29,363.41,280.77,363.54S282.66,364.07,283.13,364.2S285.03,364.75,285.5,364.9S287.39,365.47,287.87,365.62S290,366.31,290.23,366.38" style="fill: none; stroke: red; stroke-width: 2;"></path>
    </g>
    <g>
     <path d="M53.58,488.15C53.82,487.84,55.47,485.73,55.95,485.13S57.84,482.73,58.31,482.14S60.21,479.78,60.68,479.19S62.57,476.86,63.05,476.28S64.94,473.98,65.41,473.4S67.31,471.13,67.78,470.56S69.67,468.32,70.15,467.76S72.04,465.54,72.51,464.99S74.41,462.8,74.88,462.26S76.77,460.1,77.25,459.56S79.14,457.43,79.61,456.9S81.51,454.8,81.98,454.28S83.87,452.21,84.35,451.69S86.24,449.65,86.71,449.14S88.61,447.13,89.08,446.63S90.97,444.64,91.45,444.15S93.34,442.19,93.81,441.71S95.71,439.78,96.18,439.3S98.07,437.4,98.55,436.93S100.44,435.06,100.91,434.6S102.8,432.76,103.28,432.31S105.17,430.49,105.64,430.05S107.54,428.26,108.01,427.82S109.9,426.07,110.38,425.64S112.27,423.91,112.74,423.49S114.64,421.79,115.11,421.37S117,419.71,117.48,419.3S119.37,417.66,119.84,417.26S121.74,415.65,122.21,415.25S124.1,413.68,124.58,413.29S126.47,411.74,126.94,411.36S128.84,409.84,129.31,409.46S131.2,407.98,131.68,407.61S133.57,406.15,134.04,405.79S135.94,404.36,136.41,404.01S138.3,402.61,138.78,402.26S140.67,400.89,141.14,400.55S143.04,399.21,143.51,398.88S145.4,397.57,145.88,397.25S147.77,395.97,148.24,395.65S150.14,394.4,150.61,394.09S152.5,392.87,152.97,392.57S154.87,391.37,155.34,391.08S157.23,389.92,157.71,389.63S159.6,388.5,160.07,388.22S161.97,387.12,162.44,386.85S164.33,385.77,164.81,385.51S166.7,384.46,167.17,384.21S169.07,383.19,169.54,382.95S171.43,381.96,171.91,381.72S173.8,380.77,174.27,380.53S176.17,379.61,176.64,379.38S178.53,378.49,179.01,378.27S180.9,377.4,181.37,377.19S183.27,376.36,183.74,376.15S185.63,375.35,186.11,375.15S188,374.38,188.47,374.19S190.37,373.45,190.84,373.26S192.73,372.55,193.21,372.38S195.1,371.69,195.57,371.53S197.47,370.87,197.94,370.71S199.83,370.09,200.31,369.94S202.2,369.34,202.67,369.2S204.56,368.64,205.04,368.5S206.93,367.97,207.4,367.84S209.3,367.34,209.77,367.22S211.66,366.74,212.14,366.63S214.03,366.19,214.5,366.08S216.4,365.67,216.87,365.57S218.76,365.19,219.24,365.1S221.13,364.75,221.6,364.66S223.5,364.34,223.97,364.27S225.86,363.98,226.34,363.91S228.23,363.65,228.7,363.59S230.6,363.36,231.07,363.31S232.96,363.11,233.44,363.06S235.33,362.89,235.8,362.85S237.7,362.72,238.17,362.69S240.06,362.58,240.54,362.56S242.43,362.48,242.9,362.46S244.8,362.42,245.27,362.41S247.16,362.4,247.64,362.4S249.53,362.41,250,362.42S251.9,362.46,252.37,362.48S254.26,362.56,254.73,362.58S256.63,362.69,257.1,362.72S258.99,362.86,259.47,362.9S261.36,363.06,261.83,363.11S263.73,363.31,264.2,363.36S266.09,363.59,266.57,363.66S268.46,363.92,268.93,363.99S270.83,364.28,271.3,364.36S273.19,364.68,273.67,364.76S275.56,365.12,276.03,365.21S277.93,365.59,278.4,365.7S280.29,366.11,280.77,366.22S282.66,366.67,283.13,366.78S285.03,367.26,285.5,367.38S287.39,367.89,287.87,368.02S290,368.63,290.23,368.7" style="fill: none; stroke: #ff0000; stroke-width: 2;"></path>
    </g>
   </svg>
   <g>
    <g transform="translate(0,640)">
     <path d="M0,0h960M0,-12V0M22,-12V0M45,-12V0M67,-24V0M89,-12V0M112,-12V0M134,-12V0M156,-24V0M179,-12V0M201,-12V0M223,-12V0M246,-24V0M268,-12V0M290,-12V0M313,-12V0M335,-24V0M357,-12V0M380,-12V0M402,-12V0M424,-24V0M447,-12V0M469,-12V0M491,-12V0M513,-24V0M536,-12V0M558,-12V0M580,-12V0M603,-24V0M625,-12V0M647,-12V0M670,-12V0M692,-24V0M714,-12V0M737,-12V0M759,-12V0M781,-24V0M804,-12V0M826,-12V0M848,-12V0M871,-24V0M893,-12V0M915,-12V0M938,-12V0" style="stroke: black; stroke-width: 1;"></path>
     <g font-family="Arial" font-size="28" space="preserve" fill="black" text-anchor="middle">
      <text dy=".8em" transform="translate(67,6)">
       1
      </text>
      <text dy=".8em" transform="translate(156,6)">
       1.02
      </text>
      <text dy=".8em" transform="translate(246,6)">
       1.04
      </text>
      <text dy=".8em" transform="translate(335,6)">
       1.06
      </text>
      <text dy=".8em" transform="translate(424,6)">
       1.08
      </text>
      <text dy=".8em" transform="translate(513,6)">
       1.10
      </text>
      <text dy=".8em" transform="translate(603,6)">
       1.12
      </text>
      <text dy=".8em" transform="translate(692,6)">
       1.14
      </text>
      <text dy=".8em" transform="translate(781,6)">
       1.16
      </text>
      <text dy=".8em" transform="translate(871,6)">
       1.18
      </text>
     </g>
    </g>
    <g>
     <path d="M0,0v640M36,640H0M18,620H0M18,600H0M18,580H0M18,560H0M36,540H0M18,519H0M18,499H0M18,479H0M18,459H0M36,439H0M18,419H0M18,399H0M18,379H0M18,359H0M36,339H0M18,319H0M18,298H0M18,278H0M18,258H0M36,238H0M18,218H0M18,198H0M18,178H0M18,158H0M36,138H0M18,118H0M18,97H0M18,77H0M18,57H0M36,37H0M18,17H0" style="stroke: black; stroke-width: 1;"></path>
     <g font-family="Arial" font-size="28" space="preserve" fill="black" text-anchor="end">
      <text dy=".4em" transform="translate(-4,640)">
       0
      </text>
      <text dy=".4em" transform="translate(-4,540)">
       500
      </text>
      <text dy=".4em" transform="translate(-4,439)">
       1000
      </text>
      <text dy=".4em" transform="translate(-4,339)">
       1500
      </text>
      <text dy=".4em" transform="translate(-4,238)">
       2000
      </text>
      <text dy=".4em" transform="translate(-4,138)">
       2500
      </text>
      <text dy=".4em" transform="translate(-4,37)">
       3000
      </text>
     </g>
    </g>
   </g>
  </g>
  <g transform="translate(120,4)" font-family="Arial" font-size="40" space="preserve">
   <text fill="black" text-anchor="middle" dy=".8em" transform="translate(480)">
    projection
   </text>
  </g>
  <g transform="translate(936,52)" font-family="Arial" font-size="20" space="preserve" fill="black">
   <path d="M0,0H240V128H0Z" style="fill: white; stroke: black; stroke-width: 1;"></path>
   <text text-anchor="middle" dy=".4em" transform="translate(120,16)">
    hSignalBadFit
   </text>
   <text text-anchor="start" dy=".4em" transform="translate(12,48)">
    Entries
   </text>
   <text text-anchor="end" dy=".4em" transform="translate(228,48)">
    73245.49
   </text>
   <text text-anchor="start" dy=".4em" transform="translate(12,80)">
    Mean
   </text>
   <text text-anchor="end" dy=".4em" transform="translate(228,80)">
    1.095
   </text>
   <text text-anchor="start" dy=".4em" transform="translate(12,112)">
    Std Dev
   </text>
   <text text-anchor="end" dy=".4em" transform="translate(228,112)">
    0.05745
   </text>
   <path d="M0,32h240" style="stroke: black; stroke-width: 1;"></path>
  </g>
 </g>
</svg>