<svg xmlns="http://www.w3.org/2000/svg" viewBox="0 0 1200 800" preserveAspectRatio="none" width="1200" height="800">
 <title>
  RsnMgr;1/input/1/3/8/fOutput/hSignalBadFit
 </title>
 <rect x="0" y="0" width="1200" height="800" style="fill: none;"></rect>
 <g>
  <g transform="translate(120,80)">
   <title></title>
   <rect x="0" y="0" width="960" height="640" style="fill: white; stroke: black; stroke-width: 1;"></rect>
   <svg x="0" y="0" overflow="hidden" width="960" height="640" viewBox="0 0 960 640">
    <g>
     <path d="M9,604h4M11,600v8M14,572h5M16,566v12M18,567h4M20,560v14M23,532h5M25,524v16M27,532h4M29,524v17M32,522h5M34,514v17M36,514h4M38,505v18M41,497h5M43,487v20M45,487h4M47,477v19M50,492h5M52,481v21M54,480h4M56,469v21M59,464h5M61,453v22M63,459h4M65,448v22M67,472h4M69,462v21M72,465h5M74,454v22M76,433h4M78,421v23M81,442h5M83,431v23M85,451h4M87,439v23M90,448h5M92,436v24M94,437h4M96,425v24M99,432h5M101,420v25M103,411h4M105,399v24M108,391h5M110,379v25M112,406h4M114,394v25M117,371h5M119,358v26M121,369h4M123,356v26M125,355h4M127,342v26M130,333h5M132,320v26M134,296h4M136,283v27M139,232h5M141,218v28M143,149h4M145,134v30M148,79h5M150,63v31M152,46h4M154,30v32M157,78h5M159,63v31M161,163h4M163,148v30M166,238h5M168,224v29M170,252h4M172,237v29M175,297h5M177,283v29M179,328h4M181,315v27M184,343h5M186,329v28M188,343h4M190,329v28M192,343h4M194,329v28M197,346h5M199,332v28M201,341h4M203,327v28M206,350h5M208,336v28M210,361h4M212,347v28M215,335h5M217,321v29M219,357h4M221,343v29M224,359h5M226,344v29M228,348h4M230,333v29M233,366h5M235,351v29M237,368h4M239,354v28M242,342h5M244,328v29M246,351h4M248,336v29M251,367h5M253,353v29M255,358h4M257,344v29M259,358h4M261,343v29M264,347h5M266,333v29M268,374h4M270,360v29M273,385h5M275,370v29M277,383h4M279,368v29M282,363h5M284,349v29M286,337h4M288,323v29M291,358h5M293,343v29M295,339h4M297,324v30M300,352h5M302,337v30M304,332h4M306,317v30M309,362h5M311,347v30M313,354h4M315,339v30M317,347h4M319,332v30M322,358h5M324,343v30M326,327h4M328,312v30M331,338h5M333,322v31M335,344h4M337,329v31M340,353h5M342,337v31M344,336h4M346,321v30M349,350h5M351,334v31M353,362h4M355,347v30M358,363h5M360,348v30M362,325h4M364,309v31M367,338h5M369,323v31M371,327h4M373,312v31M376,331h5M378,316v31M380,321h4M382,305v31M384,286h4M386,270v32M389,310h5M391,294v32M393,320h4M395,305v31M398,354h5M400,339v31M402,330h4M404,315v31M407,334h5M409,319v31M411,323h4M413,307v32M416,310h5M418,294v32M420,293h4M422,277v32M425,299h5M427,283v32M429,303h4M431,287v32M434,301h5M436,285v32M438,308h4M440,292v32M443,291h5M445,275v32M447,298h4M449,282v32M451,309h4M453,293v32M456,314h5M458,298v32M460,303h4M462,287v32M465,326h5M467,310v32M469,288h4M471,271v33M474,311h5M476,295v32M478,331h4M480,315v32M483,313h5M485,297v32M487,302h4M489,286v32M492,279h5M494,263v32M496,279h4M498,263v33M501,274h5M503,258v33M505,297h4M507,281v33M509,303h4M511,286v33M514,271h5M516,254v33M518,287h4M520,271v33M523,321h5M525,304v33M527,291h4M529,274v33M532,296h5M534,280v33M536,301h4M538,285v33M541,277h5M543,261v33M545,296h4M547,280v33M550,326h5M552,310v33M554,317h4M556,300v33M559,296h5M561,279v33M563,292h4M565,275v33M568,319h5M570,302v33M572,313h4M574,297v33M576,293h4M578,277v33M581,320h5M583,303v33M585,311h4M587,294v33M590,307h5M592,290v34M594,308h4M596,291v34M599,294h5M601,277v34M603,335h4M605,318v34M608,321h5M610,305v33M612,316h4M614,299v34M617,336h5M619,319v34M621,350h4M623,333v33M626,344h5M628,327v33M630,336h4M632,319v33M635,336h5M637,319v34M639,321h4M641,304v34M643,354h4M645,337v33M648,316h5M650,300v33M652,335h4M654,318v34M657,334h5M659,317v34M661,338h4M663,321v34M666,361h5M668,344v33M670,340h4M672,323v34M675,315h5M677,298v34M679,351h4M681,335v33M684,369h5M686,352v33M688,346h4M690,329v34M693,369h5M695,353v33M697,334h4M699,317v34M701,373h4M703,357v33M706,340h5M708,323v34M710,351h4M712,335v33M715,364h5M717,347v33M719,379h4M721,362v33M724,367h5M726,350v34M728,373h4M730,357v33M733,361h5M735,345v33M737,350h4M739,334v33M742,382h5M744,365v34M746,348h4M748,331v34M751,362h5M753,345v34M755,332h4M757,315v34M760,390h5M762,373v34M764,354h4M766,338v33M768,377h4M770,360v34M773,367h5M775,351v33M777,364h4M779,347v34M782,352h5M784,335v34M786,372h4M788,355v34M791,371h5M793,354v33M795,362h4M797,345v34M800,375h5M802,358v34M804,389h4M806,372v34M809,354h5M811,337v34M813,417h4M815,400v33M818,384h5M820,367v34M822,388h4M824,371v34M827,371h5M829,354v33M831,383h4M833,366v34M835,388h4M837,372v33M840,379h5M842,362v34M844,417h4M846,400v34M849,383h5M851,366v34M853,399h4M855,382v34M858,419h5M860,403v33M862,389h4M864,372v34M867,371h5M869,354v34M871,373h4M873,356v34M876,392h5M878,375v34M880,387h4M882,370v34M885,379h5M887,362v34M889,399h4M891,382v34M893,375h4M895,358v34M898,398h5M900,381v34M902,378h4M904,361v34M907,365h5M909,348v34M911,388h4M913,371v34M916,404h5M918,387v34M920,379h4M922,362v34M925,372h5M927,355v34M929,411h4M931,394v34M934,377h5M936,360v34M938,382h4M940,365v34M943,394h5M945,377v34M947,386h4M949,369v34M952,409h5M954,392v34M956,355h4M958,337v35" style="stroke: rgb(0,0,154); stroke-width: 1;"></path>
    </g>
    <g>
     <path d="M53.58,483.84c0.14,-0.19,2.09,-2.85,2.37,-3.23s2.09,-2.83,2.37,-3.21s2.09,-2.81,2.37,-3.19s2.08,-2.8,2.37,-3.17s2.08,-2.78,2.37,-3.16s2.08,-2.77,2.37,-3.15s2.08,-2.76,2.37,-3.14s2.08,-2.75,2.37,-3.13s2.08,-2.75,2.37,-3.13s2.08,-2.75,2.37,-3.13s2.08,-2.75,2.37,-3.13s2.08,-2.76,2.37,-3.14s2.08,-2.78,2.37,-3.16s2.09,-2.81,2.37,-3.19s2.09,-2.84,2.37,-3.22s2.1,-2.89,2.37,-3.26s2.1,-2.95,2.37,-3.32s2.11,-3.02,2.37,-3.39s2.12,-3.12,2.37,-3.48s2.13,-3.23,2.37,-3.59s2.15,-3.38,2.37,-3.73s2.16,-3.56,2.37,-3.91s2.18,-3.79,2.37,-4.12s2.2,-4.07,2.37,-4.4s2.22,-4.43,2.37,-4.74s2.24,-4.87,2.37,-5.16s2.26,-5.44,2.37,-5.71s2.28,-6.16,2.37,-6.4s2.3,-7.08,2.37,-7.3s2.32,-8.28,2.37,-8.47s2.33,-9.84,2.37,-10s2.34,-11.9,2.37,-12.03s2.35,-14.62,2.37,-14.73s2.36,-18.19,2.37,-18.28s2.36,-22.79,2.37,-22.86s2.36,-28.43,2.37,-28.49s2.36,-34.71,2.37,-34.76s2.36,-40.51,2.37,-40.55s2.36,-43.76,2.37,-43.81s2.36,-41.89,2.37,-41.94s2.36,-32.92,2.37,-33s2.16,-16.8,2.37,-17.15s2.28,2.3,2.37,2.56s2.36,21.17,2.37,21.24s2.36,34.47,2.37,34.52s2.36,40.43,2.37,40.48s2.36,39.93,2.37,39.98s2.36,35.35,2.37,35.4s2.36,29.16,2.37,29.23s2.36,23.04,2.37,23.13s2.35,17.79,2.37,17.9s2.34,13.6,2.37,13.75s2.32,10.38,2.37,10.57s2.29,7.93,2.37,8.16s2.25,6.07,2.37,6.35s2.19,4.65,2.37,4.98s2.12,3.56,2.37,3.93s2.04,2.73,2.37,3.12s1.95,2.1,2.37,2.49s1.87,1.62,2.37,2s1.79,1.26,2.37,1.61s1.73,0.99,2.37,1.3s1.69,0.78,2.37,1.06s1.66,0.62,2.37,0.86s1.63,0.5,2.37,0.7s1.61,0.41,2.37,0.57s1.6,0.33,2.37,0.47s1.6,0.27,2.37,0.39s1.59,0.23,2.37,0.33s1.59,0.19,2.37,0.28s1.58,0.17,2.37,0.24s1.58,0.15,2.37,0.21s1.58,0.13,2.37,0.19s1.58,0.12,2.37,0.18s1.58,0.12,2.37,0.17s1.58,0.11,2.37,0.17s1.58,0.12,2.37,0.17s1.58,0.12,2.37,0.18s1.58,0.13,2.37,0.19s1.58,0.13,2.37,0.21s1.59,0.15,2.37,0.22s1.59,0.16,2.37,0.24s1.59,0.17,2.37,0.26s1.59,0.18,2.37,0.28s1.59,0.2,2.37,0.3s1.59,0.22,2.37,0.33s1.6,0.23,2.37,0.35s1.6,0.25,2.37,0.38s1.6,0.27,2.37,0.41s1.61,0.29,2.37,0.44s1.61,0.31,2.37,0.47s1.61,0.33,2.37,0.5s1.62,0.36,2.37,0.53s1.62,0.38,2.37,0.56s1.63,0.4,2.37,0.59s1.63,0.43,2.37,0.63s1.64,0.45,2.37,0.66s1.64,0.48,2.37,0.69s1.65,0.5,2.37,0.73s2.01,0.65,2.37,0.76" style="fill: none; stroke: red; stroke-width: 2;"></path>
    </g>
    <g>
     <path d="M53.58,488.15c0.15,-0.19,2.06,-2.64,2.37,-3.02s2.06,-2.6,2.37,-2.98s2.06,-2.56,2.37,-2.95s2.05,-2.53,2.37,-2.91s2.05,-2.49,2.37,-2.88s2.04,-2.45,2.37,-2.84s2.04,-2.41,2.37,-2.8s2.03,-2.38,2.37,-2.77s2.03,-2.34,2.37,-2.73s2.02,-2.3,2.37,-2.7s2.02,-2.27,2.37,-2.66s2.01,-2.23,2.37,-2.62s2,-2.19,2.37,-2.59s2,-2.16,2.37,-2.55s1.99,-2.12,2.37,-2.51s1.99,-2.08,2.37,-2.48s1.98,-2.05,2.37,-2.44s1.98,-2.01,2.37,-2.41s1.97,-1.97,2.37,-2.37s1.96,-1.94,2.37,-2.33s1.96,-1.9,2.37,-2.3s1.95,-1.87,2.37,-2.26s1.94,-1.83,2.37,-2.22s1.94,-1.79,2.37,-2.19s1.93,-1.76,2.37,-2.15s1.92,-1.72,2.37,-2.11s1.92,-1.69,2.37,-2.08s1.91,-1.65,2.37,-2.04s1.9,-1.61,2.37,-2s1.9,-1.58,2.37,-1.97s1.89,-1.54,2.37,-1.93s1.88,-1.51,2.37,-1.89s1.87,-1.47,2.37,-1.86s1.87,-1.44,2.37,-1.82s1.86,-1.4,2.37,-1.78s1.85,-1.37,2.37,-1.75s1.84,-1.34,2.37,-1.71s1.84,-1.3,2.37,-1.67s1.83,-1.27,2.37,-1.63s1.82,-1.23,2.37,-1.6s1.81,-1.2,2.37,-1.56s1.8,-1.17,2.37,-1.52s1.8,-1.13,2.37,-1.49s1.79,-1.1,2.37,-1.45s1.78,-1.07,2.37,-1.41s1.77,-1.03,2.37,-1.37s1.76,-1,2.37,-1.34s1.76,-0.97,2.37,-1.3s1.75,-0.94,2.37,-1.26s1.74,-0.91,2.37,-1.23s1.73,-0.87,2.37,-1.19s1.72,-0.84,2.37,-1.15s1.72,-0.81,2.37,-1.11s1.71,-0.78,2.37,-1.08s1.7,-0.75,2.37,-1.04s1.69,-0.72,2.37,-1s1.69,-0.69,2.37,-0.96s1.68,-0.66,2.37,-0.93s1.67,-0.63,2.37,-0.89s1.66,-0.6,2.37,-0.85s1.66,-0.57,2.37,-0.81s1.65,-0.55,2.37,-0.78s1.64,-0.52,2.37,-0.74s1.64,-0.49,2.37,-0.7s1.63,-0.46,2.37,-0.66s1.63,-0.43,2.37,-0.62s1.62,-0.41,2.37,-0.59s1.62,-0.38,2.37,-0.55s1.61,-0.35,2.37,-0.51s1.61,-0.33,2.37,-0.47s1.6,-0.3,2.37,-0.43s1.6,-0.27,2.37,-0.4s1.59,-0.25,2.37,-0.36s1.59,-0.22,2.37,-0.32s1.59,-0.2,2.37,-0.28s1.58,-0.17,2.37,-0.24s1.58,-0.14,2.37,-0.21s1.58,-0.12,2.37,-0.17s1.58,-0.09,2.37,-0.13s1.58,-0.07,2.37,-0.09s1.58,-0.04,2.37,-0.05s1.58,-0.02,2.37,-0.02s1.58,0.01,2.37,0.02s1.58,0.03,2.37,0.06s1.58,0.06,2.37,0.1s1.58,0.09,2.37,0.14s1.58,0.11,2.37,0.18s1.59,0.14,2.37,0.22s1.59,0.16,2.37,0.25s1.59,0.19,2.37,0.29s1.59,0.22,2.37,0.33s1.6,0.24,2.37,0.37s1.6,0.27,2.37,0.41s1.61,0.3,2.37,0.45s1.61,0.32,2.37,0.49s1.62,0.35,2.37,0.52s1.62,0.38,2.37,0.56s1.63,0.41,2.37,0.6s1.63,0.44,2.37,0.64s2,0.57,2.37,0.68" style="fill: none; stroke: rgb(255,0,0); stroke-width: 2;"></path>
    </g>
   </svg>
   <g>
    <g transform="translate(0,640)">
     <line x1="0" y1="0" x2="960" y2="0" style="stroke: black; stroke-width: 1;"></line>
     <path d="M0,-12v12m22,-12v12m23,-12v12m22,-24v24m22,-12v12m23,-12v12m22,-12v12m22,-24v24m23,-12v12m22,-12v12m22,-12v12m23,-24v24m22,-12v12m22,-12v12m23,-12v12m22,-24v24m22,-12v12m23,-12v12m22,-12v12m22,-24v24m23,-12v12m22,-12v12m22,-12v12m22,-24v24m23,-12v12m22,-12v12m22,-12v12m23,-24v24m22,-12v12m22,-12v12m23,-12v12m22,-24v24m22,-12v12m23,-12v12m22,-12v12m22,-24v24m23,-12v12m22,-12v12m22,-12v12m23,-24v24m22,-12v12m22,-12v12m23,-12v12" style="stroke: black; stroke-width: 1;"></path>
     <g font-family="Arial" font-size="28" space="preserve">
      <text fill="black" text-anchor="middle" dy=".8em" transform="translate(67,6)">
       1
      </text>
      <text fill="black" text-anchor="middle" dy=".8em" transform="translate(156,6)">
       1.02
      </text>
      <text fill="black" text-anchor="middle" dy=".8em" transform="translate(246,6)">
       1.04
      </text>
      <text fill="black" text-anchor="middle" dy=".8em" transform="translate(335,6)">
       1.06
      </text>
      <text fill="black" text-anchor="middle" dy=".8em" transform="translate(424,6)">
       1.08
      </text>
      <text fill="black" text-anchor="middle" dy=".8em" transform="translate(513,6)">
       1.10
      </text>
      <text fill="black" text-anchor="middle" dy=".8em" transform="translate(603,6)">
       1.12
      </text>
      <text fill="black" text-anchor="middle" dy=".8em" transform="translate(692,6)">
       1.14
      </text>
      <text fill="black" text-anchor="middle" dy=".8em" transform="translate(781,6)">
       1.16
      </text>
      <text fill="black" text-anchor="middle" dy=".8em" transform="translate(871,6)">
       1.18
      </text>
     </g>
    </g>
    <g>
     <line x1="0" y1="0" x2="0" y2="640" style="stroke: black; stroke-width: 1;"></line>
     <path d="M36,640h-36m18,-20h-18m18,-20h-18m18,-20h-18m18,-20h-18m36,-20h-36m18,-21h-18m18,-20h-18m18,-20h-18m18,-20h-18m36,-20h-36m18,-20h-18m18,-20h-18m18,-20h-18m18,-20h-18m36,-20h-36m18,-20h-18m18,-21h-18m18,-20h-18m18,-20h-18m36,-20h-36m18,-20h-18m18,-20h-18m18,-20h-18m18,-20h-18m36,-20h-36m18,-20h-18m18,-21h-18m18,-20h-18m18,-20h-18m36,-20h-36m18,-20h-18" style="stroke: black; stroke-width: 1;"></path>
     <g font-family="Arial" font-size="28" space="preserve">
      <text fill="black" text-anchor="end" dy=".4em" transform="translate(-4,640)">
       0
      </text>
      <text fill="black" text-anchor="end" dy=".4em" transform="translate(-4,540)">
       500
      </text>
      <text fill="black" text-anchor="end" dy=".4em" transform="translate(-4,439)">
       1000
      </text>
      <text fill="black" text-anchor="end" dy=".4em" transform="translate(-4,339)">
       1500
      </text>
      <text fill="black" text-anchor="end" dy=".4em" transform="translate(-4,238)">
       2000
      </text>
      <text fill="black" text-anchor="end" dy=".4em" transform="translate(-4,138)">
       2500
      </text>
      <text fill="black" text-anchor="end" dy=".4em" transform="translate(-4,37)">
       3000
      </text>
     </g>
    </g>
   </g>
  </g>
  <g transform="translate(120,4)" font-family="Arial" font-size="40" space="preserve">
   <path d="M0,0h960v53h-960z" style="fill: none;"></path>
   <text fill="black" text-anchor="middle" dy=".8em" transform="translate(480,0)">
    projection
   </text>
  </g>
  <g transform="translate(936,52)" font-family="Arial" font-size="22" space="preserve">
   <path d="M0,0h240v128h-240z" style="fill: white; stroke: black; stroke-width: 1;"></path>
   <text fill="black" text-anchor="middle" dy=".4em" transform="translate(120,16)">
    hSignalBadFit
   </text>
   <text fill="black" text-anchor="start" dy=".4em" transform="translate(12,48)">
    Entries
   </text>
   <text fill="black" text-anchor="end" dy=".4em" transform="translate(228,48)">
    73245.49
   </text>
   <text fill="black" text-anchor="start" dy=".4em" transform="translate(12,80)">
    Mean
   </text>
   <text fill="black" text-anchor="end" dy=".4em" transform="translate(228,80)">
    1.095
   </text>
   <text fill="black" text-anchor="start" dy=".4em" transform="translate(12,112)">
    Std Dev
   </text>
   <text fill="black" text-anchor="end" dy=".4em" transform="translate(228,112)">
    0.05745
   </text>
   <path d="M0,32h240" style="stroke: black; stroke-width: 1;"></path>
  </g>
 </g>
</svg>