<svg xmlns="http://www.w3.org/2000/svg" viewBox="0 0 1200 800" preserveAspectRatio="none" width="1200" height="800">
 <defs>
  <pattern id="pat_3008_2" patternUnits="userSpaceOnUse" width="10" height="10">
   <path d="M0,3v-3h3ZM7,0h3v3ZM0,7v3h3ZM7,10h3v-3ZM5,2l3,3l-3,3l-3,-3Z" style="fill: red;"></path>
   <path d="M0,3l5,5M3,10l5,-5M10,7l-5,-5M7,0l-5,5" style="stroke: red; stroke-width: 1;"></path>
  </pattern>
 </defs>
 <title>
  ROOT canvas
 </title>
 <rect x="0" y="0" width="1200" height="800" style="fill: white;"></rect>
 <g>
  <g transform="translate(120,40)" font-family="Arial" font-size="49" space="preserve" font-weight="bold">
   <path d="M3,3v120h960v-120z" style="fill: black; stroke: black; stroke-width: 1px;"></path>
   <path d="M0,0h960v120h-960z" style="fill: rgb(222,186,135); stroke: black; stroke-width: 1;"></path>
   <text fill="black" text-anchor="middle" dy=".4em" transform="translate(480,60)">
    Examples of various arrow formats
   </text>
  </g>
  <g>
   <path d="M120,720L120,240M144,282l-24,-42l-24,42" style="stroke: black; stroke-width: 1; fill: none;"></path>
  </g>
  <g>
   <path d="M240,720L240,285M256,285l-16,-45l-16,45z" style="stroke: black; stroke-width: 2; fill: black;"></path>
  </g>
  <g>
   <path d="M360,675L360,285M344,675l16,45l16,-45zM376,285l-16,-45l-16,45z" style="stroke: black; stroke-width: 2; fill: black;"></path>
  </g>
  <g>
   <path d="M552,240L932,437M917,467l67,-3l-36,-56z" style="stroke: black; stroke-width: 2; fill: red;"></path>
  </g>
  <g>
   <path d="M605,600L1015,600M605,528l-125,72l125,72zM1015,672l125,-72l-125,-72z" style="stroke: blue; stroke-width: 4; fill: url(#pat_3008_2);"></path>
  </g>
 </g>
</svg>