<svg viewBox="0 0 1200 800" preserveAspectRatio="none" xmlns="http://www.w3.org/2000/svg" width="1200" height="800"><title>ROOT canvas</title><rect x="0" y="0" width="1200" height="800" style="fill: white;"></rect><g><g objname="axis1" objtype="TGaxis" transform="translate(330,480)"><line x1="600" y1="0" style="stroke: black; stroke-width: 1;"></line><path d="M0,-18v18m9,-9v9m8,-9v9m9,-9v9m8,-9v9m9,-18v18m8,-9v9m9,-9v9m9,-9v9m8,-9v9m9,-18v18m8,-9v9m9,-9v9m8,-9v9m9,-9v9m9,-18v18m8,-9v9m9,-9v9m8,-9v9m9,-9v9m8,-18v18m9,-9v9m9,-9v9m8,-9v9m9,-9v9m8,-18v18m9,-9v9m8,-9v9m9,-9v9m9,-9v9m8,-18v18m9,-9v9m8,-9v9m9,-9v9m8,-9v9m9,-18v18m9,-9v9m8,-9v9m9,-9v9m8,-9v9m9,-18v18m8,-9v9m9,-9v9m9,-9v9m8,-9v9m9,-18v18m8,-9v9m9,-9v9m8,-9v9m9,-9v9m9,-18v18m8,-9v9m9,-9v9m8,-9v9m9,-9v9m8,-18v18m9,-9v9m9,-9v9m8,-9v9m9,-9v9m8,-18v18m9,-9v9m8,-9v9m9,-9v9m9,-9v9m8,-18v18m9,-9v9m8,-9v9m9,-9v9m8,-9v9m9,-18v18" style="stroke: black; stroke-width: 1;"></path><g font-family="Arial" font-size="32" space="preserve" font-weight="bold"><text fill="black" x="0" y="8" dy=".7em" style="text-anchor: middle;">-6</text><text fill="black" x="43" y="8" dy=".7em" style="text-anchor: middle;">-5</text><text fill="black" x="86" y="8" dy=".7em" style="text-anchor: middle;">-4</text><text fill="black" x="129" y="8" dy=".7em" style="text-anchor: middle;">-3</text><text fill="black" x="171" y="8" dy=".7em" style="text-anchor: middle;">-2</text><text fill="black" x="214" y="8" dy=".7em" style="text-anchor: middle;">-1</text><text fill="black" x="257" y="8" dy=".7em" style="text-anchor: middle;">0</text><text fill="black" x="300" y="8" dy=".7em" style="text-anchor: middle;">1</text><text fill="black" x="343" y="8" dy=".7em" style="text-anchor: middle;">2</text><text fill="black" x="386" y="8" dy=".7em" style="text-anchor: middle;">3</text><text fill="black" x="429" y="8" dy=".7em" style="text-anchor: middle;">4</text><text fill="black" x="471" y="8" dy=".7em" style="text-anchor: middle;">5</text><text fill="black" x="514" y="8" dy=".7em" style="text-anchor: middle;">6</text><text fill="black" x="557" y="8" dy=".7em" style="text-anchor: middle;">7</text><text fill="black" x="600" y="8" dy=".7em" style="text-anchor: middle;">8</text></g><g font-family="" font-size="24" space="preserve" transform="translate(600,38)"><text text-anchor="end" x="0" y="0" transform="translate(0,0)" dominant-baseline="middle">axis1</text></g></g><g objname="axis2" objtype="TGaxis" transform="translate(330,320)"><line x1="600" y1="0" style="stroke: black; stroke-width: 1;"></line><path d="M0,-18v18m26,-9v9m15,-9v9m11,-9v9m8,-9v9m7,-9v9m5,-9v9m5,-9v9m5,-9v9m4,-18v18m26,-9v9m15,-9v9m10,-9v9m9,-9v9m6,-9v9m6,-9v9m5,-9v9m5,-9v9m3,-18v18m26,-9v9m15,-9v9m11,-9v9m8,-9v9m7,-9v9m6,-9v9m5,-9v9m4,-9v9m4,-18v18m26,-9v9m15,-9v9m11,-9v9m8,-9v9m7,-9v9m6,-9v9m5,-9v9m4,-9v9m4,-18v18m26,-9v9m15,-9v9m10,-9v9m9,-9v9m7,-9v9m5,-9v9m5,-9v9m5,-9v9m4,-18v18m25,-9v9m15,-9v9m11,-9v9m8,-9v9m7,-9v9m6,-9v9m5,-9v9m4,-9v9m4,-18v18m26,-9v9m15,-9v9m11,-9v9m8,-9v9m7,-9v9m6,-9v9m5,-9v9m4,-9v9m4,-18v18" style="stroke: black; stroke-width: 1;"></path><g font-family="Arial" font-size="32" space="preserve" font-weight="bold"><text fill="black" x="0" y="8" dy=".7em" style="text-anchor: middle;">10⁻³</text><text fill="black" x="86" y="8" dy=".7em" style="text-anchor: middle;">10⁻²</text><text fill="black" x="171" y="8" dy=".7em" style="text-anchor: middle;">10⁻¹</text><text fill="black" x="257" y="8" dy=".7em" style="text-anchor: middle;">10⁰</text><text fill="black" x="343" y="8" dy=".7em" style="text-anchor: middle;">10¹</text><text fill="black" x="429" y="8" dy=".7em" style="text-anchor: middle;">10²</text><text fill="black" x="514" y="8" dy=".7em" style="text-anchor: middle;">10³</text><text fill="black" x="600" y="8" dy=".7em" style="text-anchor: middle;">10⁴</text></g><g font-family="" font-size="24" space="preserve" transform="translate(600,58)"><text text-anchor="end" x="0" y="0" transform="translate(0,0)" dominant-baseline="middle">axis2</text></g></g><g objname="axis3" objtype="TGaxis" transform="translate(60,80)"><line x1="0" y1="640" style="stroke: black; stroke-width: 1;"></line><path d="M19,640h-19m5,-4h-5m5,-4h-5m5,-4h-5m5,-4h-5m10,-4h-10m5,-4h-5m5,-4h-5m5,-4h-5m5,-4h-5m10,-4h-10m5,-4h-5m5,-4h-5m5,-4h-5m5,-4h-5m10,-4h-10m5,-4h-5m5,-4h-5m5,-4h-5m5,-4h-5m19,-4h-19m5,-4h-5m5,-4h-5m5,-4h-5m5,-4h-5m10,-4h-10m5,-4h-5m5,-4h-5m5,-4h-5m5,-4h-5m10,-4h-10m5,-4h-5m5,-4h-5m5,-4h-5m5,-4h-5m10,-4h-10m5,-4h-5m5,-4h-5m5,-4h-5m5,-4h-5m19,-4h-19m5,-4h-5m5,-4h-5m5,-4h-5m5,-4h-5m10,-4h-10m5,-4h-5m5,-4h-5m5,-4h-5m5,-4h-5m10,-4h-10m5,-4h-5m5,-4h-5m5,-4h-5m5,-4h-5m10,-4h-10m5,-4h-5m5,-4h-5m5,-4h-5m5,-4h-5m19,-4h-19m5,-4h-5m5,-4h-5m5,-4h-5m5,-4h-5m10,-4h-10m5,-4h-5m5,-4h-5m5,-4h-5m5,-4h-5m10,-4h-10m5,-4h-5m5,-4h-5m5,-4h-5m5,-4h-5m10,-4h-10m5,-4h-5m5,-4h-5m5,-4h-5m5,-4h-5m19,-4h-19m5,-4h-5m5,-4h-5m5,-4h-5m5,-4h-5m10,-4h-10m5,-4h-5m5,-4h-5m5,-4h-5m5,-4h-5m10,-4h-10m5,-4h-5m5,-4h-5m5,-4h-5m5,-4h-5m10,-4h-10m5,-4h-5m5,-4h-5m5,-4h-5m5,-4h-5m19,-4h-19m5,-4h-5m5,-4h-5m5,-4h-5m5,-4h-5m10,-4h-10m5,-4h-5m5,-4h-5m5,-4h-5m5,-4h-5m10,-4h-10m5,-4h-5m5,-4h-5m5,-4h-5m5,-4h-5m10,-4h-10m5,-4h-5m5,-4h-5m5,-4h-5m5,-4h-5m19,-4h-19m5,-4h-5m5,-4h-5m5,-4h-5m5,-4h-5m10,-4h-10m5,-4h-5m5,-4h-5m5,-4h-5m5,-4h-5m10,-4h-10m5,-4h-5m5,-4h-5m5,-4h-5m5,-4h-5m10,-4h-10m5,-4h-5m5,-4h-5m5,-4h-5m5,-4h-5m19,-4h-19m5,-4h-5m5,-4h-5m5,-4h-5m5,-4h-5m10,-4h-10m5,-4h-5m5,-4h-5m5,-4h-5m5,-4h-5m10,-4h-10m5,-4h-5m5,-4h-5m5,-4h-5m5,-4h-5m10,-4h-10m5,-4h-5m5,-4h-5m5,-4h-5m5,-4h-5m19,-4h-19" style="stroke: black; stroke-width: 1;"></path><g font-family="Arial" font-size="32" space="preserve" font-weight="bold"><text fill="black" x="-6" y="640" style="text-anchor: end; dominant-baseline: middle;">-8</text><text fill="black" x="-6" y="560" style="text-anchor: end; dominant-baseline: middle;">-6</text><text fill="black" x="-6" y="480" style="text-anchor: end; dominant-baseline: middle;">-4</text><text fill="black" x="-6" y="400" style="text-anchor: end; dominant-baseline: middle;">-2</text><text fill="black" x="-6" y="320" style="text-anchor: end; dominant-baseline: middle;">0</text><text fill="black" x="-6" y="240" style="text-anchor: end; dominant-baseline: middle;">2</text><text fill="black" x="-6" y="160" style="text-anchor: end; dominant-baseline: middle;">4</text><text fill="black" x="-6" y="80" style="text-anchor: end; dominant-baseline: middle;">6</text><text fill="black" x="-6" y="0" style="text-anchor: end; dominant-baseline: middle;">8</text></g><g font-family="" font-size="24" space="preserve" transform="translate(-40,0)"><text text-anchor="end" x="0" y="0" transform="translate(0,0) rotate(270,0,0)" dominant-baseline="middle">axis3</text></g></g><g objname="axis4" objtype="TGaxis" transform="translate(180,80)"><line x1="0" y1="640" style="stroke: black; stroke-width: 1;"></line><path d="M19,640h-19m10,-48h-10m10,-28h-10m10,-20h-10m10,-16h-10m10,-13h-10m10,-10h-10m10,-9h-10m10,-9h-10m19,-7h-19m10,-48h-10m10,-28h-10m10,-20h-10m10,-16h-10m10,-13h-10m10,-10h-10m10,-9h-10m10,-9h-10m19,-7h-19m10,-48h-10m10,-28h-10m10,-20h-10m10,-16h-10m10,-13h-10m10,-10h-10m10,-9h-10m10,-9h-10m19,-7h-19m10,-48h-10m10,-28h-10m10,-20h-10m10,-16h-10m10,-13h-10m10,-10h-10m10,-9h-10m10,-9h-10m19,-7h-19" style="stroke: black; stroke-width: 1;"></path><g font-family="Arial" font-size="32" space="preserve" font-weight="bold"><text fill="black" x="-6" y="640" style="text-anchor: end; dominant-baseline: middle;">10⁰</text><text fill="black" x="-6" y="480" style="text-anchor: end; dominant-baseline: middle;">10¹</text><text fill="black" x="-6" y="320" style="text-anchor: end; dominant-baseline: middle;">10²</text><text fill="black" x="-6" y="160" style="text-anchor: end; dominant-baseline: middle;">10³</text><text fill="black" x="-6" y="0" style="text-anchor: end; dominant-baseline: middle;">10⁴</text></g><g font-family="" font-size="24" space="preserve" transform="translate(-69,0)"><text text-anchor="end" x="0" y="0" transform="translate(0,0) rotate(270,0,0)" dominant-baseline="middle">axis4</text></g></g><g objname="axis5" objtype="TGaxis" transform="translate(330,640)"><line x1="600" y1="0" style="stroke: black; stroke-width: 1;"></line><path d="M0,-18v36m2,-23v10m3,-10v10m3,-10v10m2,-10v10m2,-10v10m3,-10v10m3,-10v10m2,-10v10m2,-10v10m3,-14v18m3,-14v10m2,-10v10m2,-10v10m3,-10v10m3,-10v10m2,-10v10m2,-10v10m3,-10v10m3,-10v10m2,-14v18m2,-14v10m3,-10v10m3,-10v10m2,-10v10m2,-10v10m3,-10v10m3,-10v10m2,-10v10m2,-10v10m3,-14v18m3,-14v10m2,-10v10m2,-10v10m3,-10v10m3,-10v10m2,-10v10m2,-10v10m3,-10v10m3,-10v10m2,-23v36m2,-23v10m3,-10v10m3,-10v10m2,-10v10m2,-10v10m3,-10v10m3,-10v10m2,-10v10m2,-10v10m3,-14v18m3,-14v10m2,-10v10m2,-10v10m3,-10v10m3,-10v10m2,-10v10m2,-10v10m3,-10v10m3,-10v10m2,-14v18m2,-14v10m3,-10v10m3,-10v10m2,-10v10m2,-10v10m3,-10v10m3,-10v10m2,-10v10m2,-10v10m3,-14v18m3,-14v10m2,-10v10m2,-10v10m3,-10v10m3,-10v10m2,-10v10m2,-10v10m3,-10v10m3,-10v10m2,-23v36m2,-23v10m3,-10v10m3,-10v10m2,-10v10m2,-10v10m3,-10v10m3,-10v10m2,-10v10m2,-10v10m3,-14v18m3,-14v10m2,-10v10m2,-10v10m3,-10v10m3,-10v10m2,-10v10m2,-10v10m3,-10v10m3,-10v10m2,-14v18m2,-14v10m3,-10v10m3,-10v10m2,-10v10m2,-10v10m3,-10v10m3,-10v10m2,-10v10m2,-10v10m3,-14v18m3,-14v10m2,-10v10m2,-10v10m3,-10v10m3,-10v10m2,-10v10m2,-10v10m3,-10v10m3,-10v10m2,-23v36m2,-23v10m3,-10v10m2,-10v10m3,-10v10m2,-10v10m3,-10v10m3,-10v10m2,-10v10m2,-10v10m3,-14v18m2,-14v10m3,-10v10m2,-10v10m3,-10v10m3,-10v10m2,-10v10m2,-10v10m3,-10v10m2,-10v10m3,-14v18m2,-14v10m3,-10v10m3,-10v10m2,-10v10m2,-10v10m3,-10v10m2,-10v10m3,-10v10m2,-10v10m3,-14v18m2,-14v10m3,-10v10m2,-10v10m3,-10v10m2,-10v10m3,-10v10m2,-10v10m3,-10v10m2,-10v10m3,-23v36m2,-23v10m3,-10v10m2,-10v10m3,-10v10m2,-10v10m3,-10v10m2,-10v10m3,-10v10m2,-10v10m3,-14v18m2,-14v10m3,-10v10m2,-10v10m3,-10v10m2,-10v10m3,-10v10m2,-10v10m3,-10v10m2,-10v10m3,-14v18m2,-14v10m3,-10v10m2,-10v10m3,-10v10m2,-10v10m3,-10v10m2,-10v10m3,-10v10m2,-10v10m3,-14v18m2,-14v10m3,-10v10m2,-10v10m3,-10v10m2,-10v10m3,-10v10m2,-10v10m3,-10v10m2,-10v10m3,-23v36m2,-23v10m3,-10v10m2,-10v10m3,-10v10m2,-10v10m3,-10v10m2,-10v10m3,-10v10m2,-10v10m3,-14v18m2,-14v10m3,-10v10m2,-10v10m3,-10v10m2,-10v10m3,-10v10m2,-10v10m3,-10v10m2,-10v10m3,-14v18m2,-14v10m3,-10v10m2,-10v10m3,-10v10m2,-10v10m3,-10v10m2,-10v10m3,-10v10m2,-10v10m3,-14v18m2,-14v10m3,-10v10m2,-10v10m3,-10v10m2,-10v10m3,-10v10m2,-10v10m3,-10v10m2,-10v10m3,-23v36" style="stroke: black; stroke-width: 1;"></path><g font-family="Arial" font-size="24" space="preserve" font-weight="bold"><text fill="black" x="0" y="38" dy=".7em" style="text-anchor: middle;">1.20</text><text fill="black" x="100" y="38" dy=".7em" style="text-anchor: middle;">1.22</text><text fill="black" x="200" y="38" dy=".7em" style="text-anchor: middle;">1.24</text><text fill="black" x="300" y="38" dy=".7em" style="text-anchor: middle;">1.26</text><text fill="black" x="400" y="38" dy=".7em" style="text-anchor: middle;">1.28</text><text fill="black" x="500" y="38" dy=".7em" style="text-anchor: middle;">1.30</text><text fill="black" x="600" y="38" dy=".7em" style="text-anchor: middle;">1.32</text></g><g font-family="" font-size="24" space="preserve" transform="translate(600,65)"><text text-anchor="end" x="0" y="0" transform="translate(0,0)" dominant-baseline="middle">axis5</text></g></g><g objname="axis6" objtype="TGaxis" transform="translate(330,160)"><line x1="600" y1="0" style="stroke: black; stroke-width: 1;"></line><path d="M0,0v18m4,-18v5m4,-5v5m3,-5v5m4,-5v9m4,-9v5m4,-5v5m3,-5v5m4,-5v9m4,-9v5m4,-5v5m3,-5v5m4,-5v9m4,-9v5m4,-5v5m3,-5v5m4,-5v9m4,-9v5m4,-5v5m3,-5v5m4,-5v18m4,-18v5m4,-5v5m3,-5v5m4,-5v9m4,-9v5m4,-5v5m3,-5v5m4,-5v9m4,-9v5m4,-5v5m3,-5v5m4,-5v9m4,-9v5m4,-5v5m3,-5v5m4,-5v9m4,-9v5m4,-5v5m3,-5v5m4,-5v18m4,-18v5m4,-5v5m3,-5v5m4,-5v9m4,-9v5m4,-5v5m3,-5v5m4,-5v9m4,-9v5m4,-5v5m3,-5v5m4,-5v9m4,-9v5m4,-5v5m3,-5v5m4,-5v9m4,-9v5m4,-5v5m3,-5v5m4,-5v18m4,-18v5m4,-5v5m3,-5v5m4,-5v9m4,-9v5m4,-5v5m3,-5v5m4,-5v9m4,-9v5m4,-5v5m3,-5v5m4,-5v9m4,-9v5m4,-5v5m3,-5v5m4,-5v9m4,-9v5m4,-5v5m3,-5v5m4,-5v18m4,-18v5m4,-5v5m3,-5v5m4,-5v9m4,-9v5m4,-5v5m3,-5v5m4,-5v9m4,-9v5m4,-5v5m3,-5v5m4,-5v9m4,-9v5m4,-5v5m3,-5v5m4,-5v9m4,-9v5m4,-5v5m3,-5v5m4,-5v18m4,-18v5m4,-5v5m3,-5v5m4,-5v9m4,-9v5m4,-5v5m3,-5v5m4,-5v9m4,-9v5m4,-5v5m3,-5v5m4,-5v9m4,-9v5m4,-5v5m3,-5v5m4,-5v9m4,-9v5m4,-5v5m3,-5v5m4,-5v18m4,-18v5m4,-5v5m3,-5v5m4,-5v9m4,-9v5m4,-5v5m3,-5v5m4,-5v9m4,-9v5m4,-5v5m3,-5v5m4,-5v9m4,-9v5m4,-5v5m3,-5v5m4,-5v9m4,-9v5m4,-5v5m3,-5v5m4,-5v18m4,-18v5m4,-5v5m3,-5v5m4,-5v9m4,-9v5m4,-5v5m3,-5v5m4,-5v9m4,-9v5m4,-5v5m3,-5v5m4,-5v9m4,-9v5m4,-5v5m3,-5v5m4,-5v9m4,-9v5m4,-5v5m3,-5v5m4,-5v18" style="stroke: black; stroke-width: 1;"></path><g font-family="Arial" font-size="32" space="preserve" font-weight="bold"><text fill="black" x="0" y="-4" dy="-.3em" style="text-anchor: middle;">100</text><text fill="black" x="75" y="-4" dy="-.3em" style="text-anchor: middle;">200</text><text fill="black" x="150" y="-4" dy="-.3em" style="text-anchor: middle;">300</text><text fill="black" x="225" y="-4" dy="-.3em" style="text-anchor: middle;">400</text><text fill="black" x="300" y="-4" dy="-.3em" style="text-anchor: middle;">500</text><text fill="black" x="375" y="-4" dy="-.3em" style="text-anchor: middle;">600</text><text fill="black" x="450" y="-4" dy="-.3em" style="text-anchor: middle;">700</text><text fill="black" x="525" y="-4" dy="-.3em" style="text-anchor: middle;">800</text><text fill="black" x="600" y="-4" dy="-.3em" style="text-anchor: middle;">900</text></g><g font-family="" font-size="24" space="preserve" transform="translate(600,-46)"><text text-anchor="end" x="0" y="0" transform="translate(0,0)" dominant-baseline="middle">axis6</text></g></g><g objname="axis7" objtype="TGaxis" transform="translate(1080,80)"><line x1="0" y1="640" style="stroke: black; stroke-width: 1;"></line><path d="M0,640h-19m19,-4h-5m5,-3h-5m5,-4h-5m5,-3h-10m10,-4h-5m5,-3h-5m5,-4h-5m5,-3h-10m10,-4h-5m5,-4h-5m5,-3h-5m5,-4h-10m10,-3h-5m5,-4h-5m5,-3h-5m5,-4h-10m10,-3h-5m5,-4h-5m5,-4h-5m5,-3h-19m19,-4h-5m5,-3h-5m5,-4h-5m5,-3h-10m10,-4h-5m5,-3h-5m5,-4h-5m5,-4h-10m10,-3h-5m5,-4h-5m5,-3h-5m5,-4h-10m10,-3h-5m5,-4h-5m5,-3h-5m5,-4h-10m10,-4h-5m5,-3h-5m5,-4h-5m5,-3h-19m19,-4h-5m5,-3h-5m5,-4h-5m5,-3h-10m10,-4h-5m5,-4h-5m5,-3h-5m5,-4h-10m10,-3h-5m5,-4h-5m5,-3h-5m5,-4h-10m10,-3h-5m5,-4h-5m5,-4h-5m5,-3h-10m10,-4h-5m5,-3h-5m5,-4h-5m5,-3h-19m19,-4h-5m5,-3h-5m5,-4h-5m5,-4h-10m10,-3h-5m5,-4h-5m5,-3h-5m5,-4h-10m10,-3h-5m5,-4h-5m5,-3h-5m5,-4h-10m10,-4h-5m5,-3h-5m5,-4h-5m5,-3h-10m10,-4h-5m5,-3h-5m5,-4h-5m5,-3h-19m19,-4h-5m5,-4h-5m5,-3h-5m5,-4h-10m10,-3h-5m5,-4h-5m5,-3h-5m5,-4h-10m10,-3h-5m5,-4h-5m5,-4h-5m5,-3h-10m10,-4h-5m5,-3h-5m5,-4h-5m5,-3h-10m10,-4h-5m5,-3h-5m5,-4h-5m5,-4h-19m19,-3h-5m5,-4h-5m5,-3h-5m5,-4h-10m10,-3h-5m5,-4h-5m5,-3h-5m5,-4h-10m10,-4h-5m5,-3h-5m5,-4h-5m5,-3h-10m10,-4h-5m5,-3h-5m5,-4h-5m5,-3h-10m10,-4h-5m5,-4h-5m5,-3h-5m5,-4h-19m19,-3h-5m5,-4h-5m5,-3h-5m5,-4h-10m10,-3h-5m5,-4h-5m5,-4h-5m5,-3h-10m10,-4h-5m5,-3h-5m5,-4h-5m5,-3h-10m10,-4h-5m5,-3h-5m5,-4h-5m5,-4h-10m10,-3h-5m5,-4h-5m5,-3h-5m5,-4h-19m19,-3h-5m5,-4h-5m5,-3h-5m5,-4h-10m10,-4h-5m5,-3h-5m5,-4h-5m5,-3h-10m10,-4h-5m5,-3h-5m5,-4h-5m5,-3h-10m10,-4h-5m5,-4h-5m5,-3h-5m5,-4h-10m10,-3h-5m5,-4h-5m5,-3h-5m5,-4h-19m19,-3h-5m5,-4h-5m5,-4h-5m5,-3h-10m10,-4h-5m5,-3h-5m5,-4h-5m5,-3h-10m10,-4h-5m5,-3h-5m5,-4h-5m5,-4h-10m10,-3h-5m5,-4h-5m5,-3h-5m5,-4h-10m10,-3h-5m5,-4h-5m5,-3h-5m5,-4h-19" style="stroke: black; stroke-width: 1;"></path><g font-family="Arial" font-size="32" space="preserve" font-weight="bold"><text fill="black" x="9" y="640" style="text-anchor: start; dominant-baseline: middle;">0</text><text fill="black" x="9" y="569" style="text-anchor: start; dominant-baseline: middle;">1000</text><text fill="black" x="9" y="498" style="text-anchor: start; dominant-baseline: middle;">2000</text><text fill="black" x="9" y="427" style="text-anchor: start; dominant-baseline: middle;">3000</text><text fill="black" x="9" y="356" style="text-anchor: start; dominant-baseline: middle;">4000</text><text fill="black" x="9" y="284" style="text-anchor: start; dominant-baseline: middle;">5000</text><text fill="black" x="9" y="213" style="text-anchor: start; dominant-baseline: middle;">6000</text><text fill="black" x="9" y="142" style="text-anchor: start; dominant-baseline: middle;">7000</text><text fill="black" x="9" y="71" style="text-anchor: start; dominant-baseline: middle;">8000</text><text fill="black" x="9" y="0" style="text-anchor: start; dominant-baseline: middle;">9000</text></g><g font-family="" font-size="24" space="preserve" transform="translate(104,0)"><text text-anchor="end" x="0" y="0" transform="translate(0,0) rotate(270,0,0)" dominant-baseline="middle">axis7</text></g></g><g objname="axis8" objtype="TGaxis" transform="translate(990,80)"><line x1="0" y1="640" style="stroke: black; stroke-width: 1;"></line><path d="M0,0h-19m19,4h-5m5,3h-5m5,4h-5m5,3h-10m10,4h-5m5,3h-5m5,4h-5m5,3h-10m10,4h-5m5,4h-5m5,3h-5m5,4h-10m10,3h-5m5,4h-5m5,3h-5m5,4h-10m10,3h-5m5,4h-5m5,4h-5m5,3h-19m19,4h-5m5,3h-5m5,4h-5m5,3h-10m10,4h-5m5,3h-5m5,4h-5m5,4h-10m10,3h-5m5,4h-5m5,3h-5m5,4h-10m10,3h-5m5,4h-5m5,3h-5m5,4h-10m10,4h-5m5,3h-5m5,4h-5m5,3h-19m19,4h-5m5,3h-5m5,4h-5m5,3h-10m10,4h-5m5,4h-5m5,3h-5m5,4h-10m10,3h-5m5,4h-5m5,3h-5m5,4h-10m10,3h-5m5,4h-5m5,4h-5m5,3h-10m10,4h-5m5,3h-5m5,4h-5m5,3h-19m19,4h-5m5,3h-5m5,4h-5m5,4h-10m10,3h-5m5,4h-5m5,3h-5m5,4h-10m10,3h-5m5,4h-5m5,3h-5m5,4h-10m10,4h-5m5,3h-5m5,4h-5m5,3h-10m10,4h-5m5,3h-5m5,4h-5m5,3h-19m19,4h-5m5,4h-5m5,3h-5m5,4h-10m10,3h-5m5,4h-5m5,3h-5m5,4h-10m10,3h-5m5,4h-5m5,4h-5m5,3h-10m10,4h-5m5,3h-5m5,4h-5m5,3h-10m10,4h-5m5,3h-5m5,4h-5m5,4h-19m19,3h-5m5,4h-5m5,3h-5m5,4h-10m10,3h-5m5,4h-5m5,3h-5m5,4h-10m10,4h-5m5,3h-5m5,4h-5m5,3h-10m10,4h-5m5,3h-5m5,4h-5m5,3h-10m10,4h-5m5,4h-5m5,3h-5m5,4h-19m19,3h-5m5,4h-5m5,3h-5m5,4h-10m10,3h-5m5,4h-5m5,4h-5m5,3h-10m10,4h-5m5,3h-5m5,4h-5m5,3h-10m10,4h-5m5,3h-5m5,4h-5m5,4h-10m10,3h-5m5,4h-5m5,3h-5m5,4h-19m19,3h-5m5,4h-5m5,3h-5m5,4h-10m10,4h-5m5,3h-5m5,4h-5m5,3h-10m10,4h-5m5,3h-5m5,4h-5m5,3h-10m10,4h-5m5,4h-5m5,3h-5m5,4h-10m10,3h-5m5,4h-5m5,3h-5m5,4h-19m19,3h-5m5,4h-5m5,4h-5m5,3h-10m10,4h-5m5,3h-5m5,4h-5m5,3h-10m10,4h-5m5,3h-5m5,4h-5m5,4h-10m10,3h-5m5,4h-5m5,3h-5m5,4h-10m10,3h-5m5,4h-5m5,3h-5m5,4h-19" style="stroke: black; stroke-width: 1;"></path><g font-family="Arial" font-size="32" space="preserve" font-weight="bold"><text fill="black" x="6" y="0" style="text-anchor: start; dominant-baseline: middle;">0</text><text fill="black" x="6" y="71" style="text-anchor: start; dominant-baseline: middle;">10</text><text fill="black" x="6" y="142" style="text-anchor: start; dominant-baseline: middle;">20</text><text fill="black" x="6" y="213" style="text-anchor: start; dominant-baseline: middle;">30</text><text fill="black" x="6" y="284" style="text-anchor: start; dominant-baseline: middle;">40</text><text fill="black" x="6" y="356" style="text-anchor: start; dominant-baseline: middle;">50</text><text fill="black" x="6" y="427" style="text-anchor: start; dominant-baseline: middle;">60</text><text fill="black" x="6" y="498" style="text-anchor: start; dominant-baseline: middle;">70</text><text fill="black" x="6" y="569" style="text-anchor: start; dominant-baseline: middle;">80</text><text fill="black" x="6" y="640" style="text-anchor: start; dominant-baseline: middle;">90</text></g><g font-family="" font-size="24" space="preserve" transform="translate(58,640)"><text text-anchor="begin" x="0" y="0" transform="translate(0,0) rotate(270,0,0)" dominant-baseline="middle">axis8</text></g></g></g></svg>