<svg xmlns="http://www.w3.org/2000/svg" viewBox="0 0 1200 800" preserveAspectRatio="none" width="1200" height="800"><defs><pattern id="pat_3008_6" patternUnits="userSpaceOnUse" width="10" height="10"><path d="M0,3v-3h3ZM7,0h3v3ZM0,7v3h3ZM7,10h3v-3ZM5,2l3,3l-3,3l-3,-3Z" style="fill: magenta;"></path><path d="M0,3l5,5M3,10l5,-5M10,7l-5,-5M7,0l-5,5" style="stroke: magenta; stroke-width: 1;"></path></pattern></defs><title>ROOT canvas</title><rect x="0" y="0" width="1200" height="800" style="fill: white;"></rect><g><g objname="TPave" objtype="TPaveLabel" transform="translate(120,40)" font-family="Arial" font-size="82" space="preserve" font-weight="bold"><path d="M3,3v120h960v-120z" style="fill: black; stroke: black; stroke-width: 1px;"></path><path d="M0,0h960v120h-960z" style="fill: rgb(222,186,135); stroke: black; stroke-width: 1;"></path><text fill="black" text-anchor="middle" dy=".4em" transform="translate(480,60)">Examples of Ellipses</text></g><g objname="name" objtype="TEllipse"><ellipse cx="300" cy="600" rx="120" ry="160" style="stroke: black; stroke-width: 1; fill: white;"></ellipse></g><g objname="name" objtype="TEllipse"><ellipse cx="300" cy="320" rx="240" ry="80" style="stroke: black; stroke-width: 1; fill: url(#pat_3008_6);"></ellipse></g><g objname="name" objtype="TEllipse" transform="translate(900,320)"><path d="M0,0L170,-57A240,80,0,1,0,170,57Z" style="stroke: blue; stroke-width: 1; fill: red;"></path></g><g objname="name" objtype="TEllipse" transform="translate(900,600)"><path d="M0,0L5,-190A240,120,-62,1,0,155,-110Z" style="stroke: blue; stroke-width: 6; fill: yellow;"></path></g></g></svg>