<svg xmlns="http://www.w3.org/2000/svg" viewBox="0 0 698 474" preserveAspectRatio="none" width="698" height="474">
 <path d="M0,0H698V474H0Z" style="fill: #deba87;"></path>
 <g>
  <g transform="translate(70,47)">
   <path d="M0,0H558V379H0Z" style="fill: #deba87; stroke: black; stroke-width: 1;"></path>
   <g>
    <path d="M25,0v379M86,0v379M147,0v379M208,0v379M270,0v379M331,0v379M392,0v379M453,0v379M515,0v379" style="stroke: black; stroke-width: 1; stroke-dasharray: 1,2;"></path>
    <path d="M0,359h558M0,320h558M0,280h558M0,241h558M0,201h558M0,162h558M0,123h558M0,83h558M0,44h558M0,4h558" style="stroke: black; stroke-width: 1; stroke-dasharray: 1,2;"></path>
   </g>
   <svg x="0" y="0" overflow="hidden" width="558" height="379" viewBox="0 0 558 379">
    <g>
     <g transform="translate(100,313)">
      <path style="stroke: black; stroke-width: 1; fill: none;" d="M0,0V2m3,0h-6M0,0V-2m3,0h-6"></path>
     </g>
     <g transform="translate(145,321)">
      <path style="stroke: black; stroke-width: 1; fill: none;" d="M0,0V2m3,0h-6M0,0V-2m3,0h-6"></path>
     </g>
     <g transform="translate(405,263)">
      <path style="stroke: black; stroke-width: 1; fill: none;" d="M0,0V2m3,0h-6M0,0V-2m3,0h-6"></path>
     </g>
     <g transform="translate(318,338)">
      <path style="stroke: black; stroke-width: 1; fill: none;" d="M0,0V2m3,0h-6M0,0V-2m3,0h-6"></path>
     </g>
     <g transform="translate(512,34)">
      <path style="stroke: black; stroke-width: 1; fill: none;" d="M0,0V2m3,0h-6M0,0V-2m3,0h-6"></path>
     </g>
     <g transform="translate(47,327)">
      <path style="stroke: black; stroke-width: 1; fill: none;" d="M0,0V2m3,0h-6M0,0V-2m3,0h-6"></path>
     </g>
     <g transform="translate(216,336)">
      <path style="stroke: black; stroke-width: 1; fill: none;" d="M0,0V2m3,0h-6M0,0V-2m3,0h-6"></path>
     </g>
     <g transform="translate(51,325)">
      <path style="stroke: black; stroke-width: 1; fill: none;" d="M0,0V2m3,0h-6M0,0V-2m3,0h-6"></path>
     </g>
     <g transform="translate(279,340)">
      <path style="stroke: black; stroke-width: 1; fill: none;" d="M0,0V2m3,0h-6M0,0V-2m3,0h-6"></path>
     </g>
     <g transform="translate(189,326)">
      <path style="stroke: black; stroke-width: 1; fill: none;" d="M0,0V2m3,0h-6M0,0V-2m3,0h-6"></path>
     </g>
     <g transform="translate(142,321)">
      <path style="stroke: black; stroke-width: 1; fill: none;" d="M0,0V2m3,0h-6M0,0V-2m3,0h-6"></path>
     </g>
     <g transform="translate(85,316)">
      <path style="stroke: black; stroke-width: 1; fill: none;" d="M0,0V2m3,0h-6M0,0V-2m3,0h-6"></path>
     </g>
     <g transform="translate(406,263)">
      <path style="stroke: black; stroke-width: 1; fill: none;" d="M0,0V2m3,0h-6M0,0V-2m3,0h-6"></path>
     </g>
     <g transform="translate(442,207)">
      <path style="stroke: black; stroke-width: 1; fill: none;" d="M0,0V2m3,0h-6M0,0V-2m3,0h-6"></path>
     </g>
     <g transform="translate(256,338)">
      <path style="stroke: black; stroke-width: 1; fill: none;" d="M0,0V2m3,0h-6M0,0V-2m3,0h-6"></path>
     </g>
     <g transform="translate(360,312)">
      <path style="stroke: black; stroke-width: 1; fill: none;" d="M0,0V2m3,0h-6M0,0V-2m3,0h-6"></path>
     </g>
     <g transform="translate(250,340)">
      <path style="stroke: black; stroke-width: 1; fill: none;" d="M0,0V2m3,0h-6M0,0V-2m3,0h-6"></path>
     </g>
     <g transform="translate(482,115)">
      <path style="stroke: black; stroke-width: 1; fill: none;" d="M0,0V2m3,0h-6M0,0V-2m3,0h-6"></path>
     </g>
     <g transform="translate(270,345)">
      <path style="stroke: black; stroke-width: 1; fill: none;" d="M0,0V2m3,0h-6M0,0V-2m3,0h-6"></path>
     </g>
     <g transform="translate(52,324)">
      <path style="stroke: black; stroke-width: 1; fill: none;" d="M0,0V2m3,0h-6M0,0V-2m3,0h-6"></path>
     </g>
     <g transform="translate(381,290)">
      <path style="stroke: black; stroke-width: 1; fill: none;" d="M0,0V2m3,0h-6M0,0V-2m3,0h-6"></path>
     </g>
     <g transform="translate(209,329)">
      <path style="stroke: black; stroke-width: 1; fill: none;" d="M0,0V2m3,0h-6M0,0V-2m3,0h-6"></path>
     </g>
     <g transform="translate(67,322)">
      <path style="stroke: black; stroke-width: 1; fill: none;" d="M0,0V2m3,0h-6M0,0V-2m3,0h-6"></path>
     </g>
     <g transform="translate(129,316)">
      <path style="stroke: black; stroke-width: 1; fill: none;" d="M0,0V2m3,0h-6M0,0V-2m3,0h-6"></path>
     </g>
     <g transform="translate(140,318)">
      <path style="stroke: black; stroke-width: 1; fill: none;" d="M0,0V2m3,0h-6M0,0V-2m3,0h-6"></path>
     </g>
     <g transform="translate(485,109)">
      <path style="stroke: black; stroke-width: 1; fill: none;" d="M0,0V2m3,0h-6M0,0V-2m3,0h-6"></path>
     </g>
     <g transform="translate(250,337)">
      <path style="stroke: black; stroke-width: 1; fill: none;" d="M0,0V2m3,0h-6M0,0V-2m3,0h-6"></path>
     </g>
     <g transform="translate(433,221)">
      <path style="stroke: black; stroke-width: 1; fill: none;" d="M0,0V2m3,0h-6M0,0V-2m3,0h-6"></path>
     </g>
     <g transform="translate(191,330)">
      <path style="stroke: black; stroke-width: 1; fill: none;" d="M0,0V2m3,0h-6M0,0V-2m3,0h-6"></path>
     </g>
     <g transform="translate(209,333)">
      <path style="stroke: black; stroke-width: 1; fill: none;" d="M0,0V2m3,0h-6M0,0V-2m3,0h-6"></path>
     </g>
     <g transform="translate(330,330)">
      <path style="stroke: black; stroke-width: 1; fill: none;" d="M0,0V2m3,0h-6M0,0V-2m3,0h-6"></path>
     </g>
     <g transform="translate(435,222)">
      <path style="stroke: black; stroke-width: 1; fill: none;" d="M0,0V2m3,0h-6M0,0V-2m3,0h-6"></path>
     </g>
     <g transform="translate(476,133)">
      <path style="stroke: black; stroke-width: 1; fill: none;" d="M0,0V2m3,0h-6M0,0V-2m3,0h-6"></path>
     </g>
     <g transform="translate(369,302)">
      <path style="stroke: black; stroke-width: 1; fill: none;" d="M0,0V2m3,0h-6M0,0V-2m3,0h-6"></path>
     </g>
     <g transform="translate(218,336)">
      <path style="stroke: black; stroke-width: 1; fill: none;" d="M0,0V2m3,0h-6M0,0V-2m3,0h-6"></path>
     </g>
     <g transform="translate(467,154)">
      <path style="stroke: black; stroke-width: 1; fill: none;" d="M0,0V2m3,0h-6M0,0V-2m3,0h-6"></path>
     </g>
     <g transform="translate(391,281)">
      <path style="stroke: black; stroke-width: 1; fill: none;" d="M0,0V2m3,0h-6M0,0V-2m3,0h-6"></path>
     </g>
     <g transform="translate(175,326)">
      <path style="stroke: black; stroke-width: 1; fill: none;" d="M0,0V2m3,0h-6M0,0V-2m3,0h-6"></path>
     </g>
     <g transform="translate(302,340)">
      <path style="stroke: black; stroke-width: 1; fill: none;" d="M0,0V2m3,0h-6M0,0V-2m3,0h-6"></path>
     </g>
     <g transform="translate(305,338)">
      <path style="stroke: black; stroke-width: 1; fill: none;" d="M0,0V2m3,0h-6M0,0V-2m3,0h-6"></path>
     </g>
     <path d="M96,309l8,8m0,-8l-8,8m0,-4h8m-4,-4v8M141,317l8,8m0,-8l-8,8m0,-4h8m-4,-4v8M401,259l8,8m0,-8l-8,8m0,-4h8m-4,-4v8M314,334l8,8m0,-8l-8,8m0,-4h8m-4,-4v8M508,30l8,8m0,-8l-8,8m0,-4h8m-4,-4v8M43,323l8,8m0,-8l-8,8m0,-4h8m-4,-4v8M212,332l8,8m0,-8l-8,8m0,-4h8m-4,-4v8M47,321l8,8m0,-8l-8,8m0,-4h8m-4,-4v8M275,336l8,8m0,-8l-8,8m0,-4h8m-4,-4v8M185,322l8,8m0,-8l-8,8m0,-4h8m-4,-4v8M138,317l8,8m0,-8l-8,8m0,-4h8m-4,-4v8M81,312l8,8m0,-8l-8,8m0,-4h8m-4,-4v8M402,259l8,8m0,-8l-8,8m0,-4h8m-4,-4v8M438,203l8,8m0,-8l-8,8m0,-4h8m-4,-4v8M252,334l8,8m0,-8l-8,8m0,-4h8m-4,-4v8M356,308l8,8m0,-8l-8,8m0,-4h8m-4,-4v8M246,336l8,8m0,-8l-8,8m0,-4h8m-4,-4v8M478,111l8,8m0,-8l-8,8m0,-4h8m-4,-4v8M266,341l8,8m0,-8l-8,8m0,-4h8m-4,-4v8M48,320l8,8m0,-8l-8,8m0,-4h8m-4,-4v8M377,286l8,8m0,-8l-8,8m0,-4h8m-4,-4v8M205,325l8,8m0,-8l-8,8m0,-4h8m-4,-4v8M63,318l8,8m0,-8l-8,8m0,-4h8m-4,-4v8M125,312l8,8m0,-8l-8,8m0,-4h8m-4,-4v8M136,314l8,8m0,-8l-8,8m0,-4h8m-4,-4v8M481,105l8,8m0,-8l-8,8m0,-4h8m-4,-4v8M246,333l8,8m0,-8l-8,8m0,-4h8m-4,-4v8M429,217l8,8m0,-8l-8,8m0,-4h8m-4,-4v8M187,326l8,8m0,-8l-8,8m0,-4h8m-4,-4v8M205,329l8,8m0,-8l-8,8m0,-4h8m-4,-4v8M326,326l8,8m0,-8l-8,8m0,-4h8m-4,-4v8M431,218l8,8m0,-8l-8,8m0,-4h8m-4,-4v8M472,129l8,8m0,-8l-8,8m0,-4h8m-4,-4v8M365,298l8,8m0,-8l-8,8m0,-4h8m-4,-4v8M214,332l8,8m0,-8l-8,8m0,-4h8m-4,-4v8M463,150l8,8m0,-8l-8,8m0,-4h8m-4,-4v8M387,277l8,8m0,-8l-8,8m0,-4h8m-4,-4v8M171,322l8,8m0,-8l-8,8m0,-4h8m-4,-4v8M298,336l8,8m0,-8l-8,8m0,-4h8m-4,-4v8M301,334l8,8m0,-8l-8,8m0,-4h8m-4,-4v8" style="stroke: black; fill: none;"></path>
    </g>
    <g>
     <path d="M3,354L9,350L14,345L20,341L25,338L31,334L36,331L42,329L48,326L53,324L59,322L64,321L70,319L76,318L81,317L87,317L92,316L98,316L103,316L109,316L115,316L120,316L126,317L131,318L137,318L143,319L148,320L154,321L159,322L165,323L170,325L176,326L182,327L187,328L193,330L198,331L204,332L209,333L215,334L221,335L226,336L232,337L237,338L243,339L249,340L254,340L260,341L265,341L271,341L276,341L282,340L288,340L293,339L299,338L304,337L310,336L315,334L321,332L327,330L332,328L338,325L343,322L349,319L355,315L360,311L366,307L371,302L377,297L382,292L388,286L394,280L399,273L405,266L410,258L416,250L422,242L427,233L433,224L438,214L444,203L449,192L455,181L461,169L466,156L472,143L477,130L483,115L488,101L494,85L500,69L505,52L511,35L516,17L522,-2L528,-21L533,-41L539,-62L544,-83L550,-106L555,-128" style="fill: none; stroke: red; stroke-width: 1;"></path>
    </g>
    <g>
     <g transform="translate(100,225)">
      <path style="stroke: blue; stroke-width: 1; fill: none;" d="M0,0V2m3,0h-6M0,0V-2m3,0h-6"></path>
     </g>
     <g transform="translate(145,237)">
      <path style="stroke: blue; stroke-width: 1; fill: none;" d="M0,0V2m3,0h-6M0,0V-2m3,0h-6"></path>
     </g>
     <g transform="translate(405,166)">
      <path style="stroke: blue; stroke-width: 1; fill: none;" d="M0,0V2m3,0h-6M0,0V-2m3,0h-6"></path>
     </g>
     <g transform="translate(318,186)">
      <path style="stroke: blue; stroke-width: 1; fill: none;" d="M0,0V2m3,0h-6M0,0V-2m3,0h-6"></path>
     </g>
     <g transform="translate(512,197)">
      <path style="stroke: blue; stroke-width: 1; fill: none;" d="M0,0V2m3,0h-6M0,0V-2m3,0h-6"></path>
     </g>
     <g transform="translate(47,210)">
      <path style="stroke: blue; stroke-width: 1; fill: none;" d="M0,0V2m3,0h-6M0,0V-2m3,0h-6"></path>
     </g>
     <g transform="translate(216,228)">
      <path style="stroke: blue; stroke-width: 1; fill: none;" d="M0,0V2m3,0h-6M0,0V-2m3,0h-6"></path>
     </g>
     <g transform="translate(51,212)">
      <path style="stroke: blue; stroke-width: 1; fill: none;" d="M0,0V2m3,0h-6M0,0V-2m3,0h-6"></path>
     </g>
     <g transform="translate(279,197)">
      <path style="stroke: blue; stroke-width: 1; fill: none;" d="M0,0V2m3,0h-6M0,0V-2m3,0h-6"></path>
     </g>
     <g transform="translate(189,231)">
      <path style="stroke: blue; stroke-width: 1; fill: none;" d="M0,0V2m3,0h-6M0,0V-2m3,0h-6"></path>
     </g>
     <g transform="translate(142,238)">
      <path style="stroke: blue; stroke-width: 1; fill: none;" d="M0,0V2m3,0h-6M0,0V-2m3,0h-6"></path>
     </g>
     <g transform="translate(85,222)">
      <path style="stroke: blue; stroke-width: 1; fill: none;" d="M0,0V2m3,0h-6M0,0V-2m3,0h-6"></path>
     </g>
     <g transform="translate(406,168)">
      <path style="stroke: blue; stroke-width: 1; fill: none;" d="M0,0V2m3,0h-6M0,0V-2m3,0h-6"></path>
     </g>
     <g transform="translate(442,176)">
      <path style="stroke: blue; stroke-width: 1; fill: none;" d="M0,0V2m3,0h-6M0,0V-2m3,0h-6"></path>
     </g>
     <g transform="translate(256,207)">
      <path style="stroke: blue; stroke-width: 1; fill: none;" d="M0,0V2m3,0h-6M0,0V-2m3,0h-6"></path>
     </g>
     <g transform="translate(360,170)">
      <path style="stroke: blue; stroke-width: 1; fill: none;" d="M0,0V2m3,0h-6M0,0V-2m3,0h-6"></path>
     </g>
     <g transform="translate(250,212)">
      <path style="stroke: blue; stroke-width: 1; fill: none;" d="M0,0V2m3,0h-6M0,0V-2m3,0h-6"></path>
     </g>
     <g transform="translate(482,187)">
      <path style="stroke: blue; stroke-width: 1; fill: none;" d="M0,0V2m3,0h-6M0,0V-2m3,0h-6"></path>
     </g>
     <g transform="translate(270,207)">
      <path style="stroke: blue; stroke-width: 1; fill: none;" d="M0,0V2m3,0h-6M0,0V-2m3,0h-6"></path>
     </g>
     <g transform="translate(52,211)">
      <path style="stroke: blue; stroke-width: 1; fill: none;" d="M0,0V2m3,0h-6M0,0V-2m3,0h-6"></path>
     </g>
     <g transform="translate(381,165)">
      <path style="stroke: blue; stroke-width: 1; fill: none;" d="M0,0V2m3,0h-6M0,0V-2m3,0h-6"></path>
     </g>
     <g transform="translate(209,224)">
      <path style="stroke: blue; stroke-width: 1; fill: none;" d="M0,0V2m3,0h-6M0,0V-2m3,0h-6"></path>
     </g>
     <g transform="translate(67,219)">
      <path style="stroke: blue; stroke-width: 1; fill: none;" d="M0,0V2m3,0h-6M0,0V-2m3,0h-6"></path>
     </g>
     <g transform="translate(129,233)">
      <path style="stroke: blue; stroke-width: 1; fill: none;" d="M0,0V2m3,0h-6M0,0V-2m3,0h-6"></path>
     </g>
     <g transform="translate(140,235)">
      <path style="stroke: blue; stroke-width: 1; fill: none;" d="M0,0V2m3,0h-6M0,0V-2m3,0h-6"></path>
     </g>
     <g transform="translate(485,187)">
      <path style="stroke: blue; stroke-width: 1; fill: none;" d="M0,0V2m3,0h-6M0,0V-2m3,0h-6"></path>
     </g>
     <g transform="translate(250,209)">
      <path style="stroke: blue; stroke-width: 1; fill: none;" d="M0,0V2m3,0h-6M0,0V-2m3,0h-6"></path>
     </g>
     <g transform="translate(433,172)">
      <path style="stroke: blue; stroke-width: 1; fill: none;" d="M0,0V2m3,0h-6M0,0V-2m3,0h-6"></path>
     </g>
     <g transform="translate(191,233)">
      <path style="stroke: blue; stroke-width: 1; fill: none;" d="M0,0V2m3,0h-6M0,0V-2m3,0h-6"></path>
     </g>
     <g transform="translate(209,228)">
      <path style="stroke: blue; stroke-width: 1; fill: none;" d="M0,0V2m3,0h-6M0,0V-2m3,0h-6"></path>
     </g>
     <g transform="translate(330,178)">
      <path style="stroke: blue; stroke-width: 1; fill: none;" d="M0,0V2m3,0h-6M0,0V-2m3,0h-6"></path>
     </g>
     <g transform="translate(435,176)">
      <path style="stroke: blue; stroke-width: 1; fill: none;" d="M0,0V2m3,0h-6M0,0V-2m3,0h-6"></path>
     </g>
     <g transform="translate(476,187)">
      <path style="stroke: blue; stroke-width: 1; fill: none;" d="M0,0V2m3,0h-6M0,0V-2m3,0h-6"></path>
     </g>
     <g transform="translate(369,167)">
      <path style="stroke: blue; stroke-width: 1; fill: none;" d="M0,0V2m3,0h-6M0,0V-2m3,0h-6"></path>
     </g>
     <g transform="translate(218,226)">
      <path style="stroke: blue; stroke-width: 1; fill: none;" d="M0,0V2m3,0h-6M0,0V-2m3,0h-6"></path>
     </g>
     <g transform="translate(467,182)">
      <path style="stroke: blue; stroke-width: 1; fill: none;" d="M0,0V2m3,0h-6M0,0V-2m3,0h-6"></path>
     </g>
     <g transform="translate(391,167)">
      <path style="stroke: blue; stroke-width: 1; fill: none;" d="M0,0V2m3,0h-6M0,0V-2m3,0h-6"></path>
     </g>
     <g transform="translate(175,236)">
      <path style="stroke: blue; stroke-width: 1; fill: none;" d="M0,0V2m3,0h-6M0,0V-2m3,0h-6"></path>
     </g>
     <g transform="translate(302,190)">
      <path style="stroke: blue; stroke-width: 1; fill: none;" d="M0,0V2m3,0h-6M0,0V-2m3,0h-6"></path>
     </g>
     <g transform="translate(305,187)">
      <path style="stroke: blue; stroke-width: 1; fill: none;" d="M0,0V2m3,0h-6M0,0V-2m3,0h-6"></path>
     </g>
     <path d="M96,221l8,8m0,-8l-8,8m0,-4h8m-4,-4v8M141,233l8,8m0,-8l-8,8m0,-4h8m-4,-4v8M401,162l8,8m0,-8l-8,8m0,-4h8m-4,-4v8M314,182l8,8m0,-8l-8,8m0,-4h8m-4,-4v8M508,193l8,8m0,-8l-8,8m0,-4h8m-4,-4v8M43,206l8,8m0,-8l-8,8m0,-4h8m-4,-4v8M212,224l8,8m0,-8l-8,8m0,-4h8m-4,-4v8M47,208l8,8m0,-8l-8,8m0,-4h8m-4,-4v8M275,193l8,8m0,-8l-8,8m0,-4h8m-4,-4v8M185,227l8,8m0,-8l-8,8m0,-4h8m-4,-4v8M138,234l8,8m0,-8l-8,8m0,-4h8m-4,-4v8M81,218l8,8m0,-8l-8,8m0,-4h8m-4,-4v8M402,164l8,8m0,-8l-8,8m0,-4h8m-4,-4v8M438,172l8,8m0,-8l-8,8m0,-4h8m-4,-4v8M252,203l8,8m0,-8l-8,8m0,-4h8m-4,-4v8M356,166l8,8m0,-8l-8,8m0,-4h8m-4,-4v8M246,208l8,8m0,-8l-8,8m0,-4h8m-4,-4v8M478,183l8,8m0,-8l-8,8m0,-4h8m-4,-4v8M266,203l8,8m0,-8l-8,8m0,-4h8m-4,-4v8M48,207l8,8m0,-8l-8,8m0,-4h8m-4,-4v8M377,161l8,8m0,-8l-8,8m0,-4h8m-4,-4v8M205,220l8,8m0,-8l-8,8m0,-4h8m-4,-4v8M63,215l8,8m0,-8l-8,8m0,-4h8m-4,-4v8M125,229l8,8m0,-8l-8,8m0,-4h8m-4,-4v8M136,231l8,8m0,-8l-8,8m0,-4h8m-4,-4v8M481,183l8,8m0,-8l-8,8m0,-4h8m-4,-4v8M246,205l8,8m0,-8l-8,8m0,-4h8m-4,-4v8M429,168l8,8m0,-8l-8,8m0,-4h8m-4,-4v8M187,229l8,8m0,-8l-8,8m0,-4h8m-4,-4v8M205,224l8,8m0,-8l-8,8m0,-4h8m-4,-4v8M326,174l8,8m0,-8l-8,8m0,-4h8m-4,-4v8M431,172l8,8m0,-8l-8,8m0,-4h8m-4,-4v8M472,183l8,8m0,-8l-8,8m0,-4h8m-4,-4v8M365,163l8,8m0,-8l-8,8m0,-4h8m-4,-4v8M214,222l8,8m0,-8l-8,8m0,-4h8m-4,-4v8M463,178l8,8m0,-8l-8,8m0,-4h8m-4,-4v8M387,163l8,8m0,-8l-8,8m0,-4h8m-4,-4v8M171,232l8,8m0,-8l-8,8m0,-4h8m-4,-4v8M298,186l8,8m0,-8l-8,8m0,-4h8m-4,-4v8M301,183l8,8m0,-8l-8,8m0,-4h8m-4,-4v8" style="stroke: blue; fill: none;"></path>
    </g>
    <g>
     <path d="M3,199L9,201L14,202L20,203L25,205L31,206L36,208L42,210L48,211L53,213L59,215L64,217L70,219L76,220L81,222L87,224L92,226L98,227L103,229L109,230L115,231L120,232L126,233L131,234L137,235L143,235L148,236L154,236L159,236L165,236L170,235L176,234L182,234L187,233L193,232L198,230L204,229L209,227L215,225L221,223L226,221L232,219L237,216L243,214L249,211L254,209L260,206L265,204L271,201L276,198L282,196L288,193L293,190L299,188L304,186L310,183L315,181L321,179L327,177L332,175L338,174L343,172L349,171L355,170L360,169L366,168L371,167L377,167L382,167L388,167L394,167L399,168L405,168L410,169L416,170L422,171L427,172L433,173L438,175L444,176L449,178L455,179L461,181L466,183L472,185L477,187L483,188L488,190L494,192L500,194L505,195L511,197L516,199L522,200L528,201L533,203L539,204L544,205L550,206L555,207" style="fill: none; stroke: blue; stroke-width: 1;"></path>
    </g>
    <g>
     <g transform="translate(100,159)">
      <path style="stroke: red; stroke-width: 1; fill: none;" d="M0,0V2m3,0h-6M0,0V-2m3,0h-6"></path>
     </g>
     <g transform="translate(145,188)">
      <path style="stroke: red; stroke-width: 1; fill: none;" d="M0,0V2m3,0h-6M0,0V-2m3,0h-6"></path>
     </g>
     <g transform="translate(405,233)">
      <path style="stroke: red; stroke-width: 1; fill: none;" d="M0,0V2m3,0h-6M0,0V-2m3,0h-6"></path>
     </g>
     <g transform="translate(318,234)">
      <path style="stroke: red; stroke-width: 1; fill: none;" d="M0,0V2m3,0h-6M0,0V-2m3,0h-6"></path>
     </g>
     <g transform="translate(512,238)">
      <path style="stroke: red; stroke-width: 1; fill: none;" d="M0,0V2m3,0h-6M0,0V-2m3,0h-6"></path>
     </g>
     <g transform="translate(47,118)">
      <path style="stroke: red; stroke-width: 1; fill: none;" d="M0,0V2m3,0h-6M0,0V-2m3,0h-6"></path>
     </g>
     <g transform="translate(216,213)">
      <path style="stroke: red; stroke-width: 1; fill: none;" d="M0,0V2m3,0h-6M0,0V-2m3,0h-6"></path>
     </g>
     <g transform="translate(51,123)">
      <path style="stroke: red; stroke-width: 1; fill: none;" d="M0,0V2m3,0h-6M0,0V-2m3,0h-6"></path>
     </g>
     <g transform="translate(279,223)">
      <path style="stroke: red; stroke-width: 1; fill: none;" d="M0,0V2m3,0h-6M0,0V-2m3,0h-6"></path>
     </g>
     <g transform="translate(189,201)">
      <path style="stroke: red; stroke-width: 1; fill: none;" d="M0,0V2m3,0h-6M0,0V-2m3,0h-6"></path>
     </g>
     <g transform="translate(142,187)">
      <path style="stroke: red; stroke-width: 1; fill: none;" d="M0,0V2m3,0h-6M0,0V-2m3,0h-6"></path>
     </g>
     <g transform="translate(85,150)">
      <path style="stroke: red; stroke-width: 1; fill: none;" d="M0,0V2m3,0h-6M0,0V-2m3,0h-6"></path>
     </g>
     <g transform="translate(406,234)">
      <path style="stroke: red; stroke-width: 1; fill: none;" d="M0,0V2m3,0h-6M0,0V-2m3,0h-6"></path>
     </g>
     <g transform="translate(442,237)">
      <path style="stroke: red; stroke-width: 1; fill: none;" d="M0,0V2m3,0h-6M0,0V-2m3,0h-6"></path>
     </g>
     <g transform="translate(256,218)">
      <path style="stroke: red; stroke-width: 1; fill: none;" d="M0,0V2m3,0h-6M0,0V-2m3,0h-6"></path>
     </g>
     <g transform="translate(360,233)">
      <path style="stroke: red; stroke-width: 1; fill: none;" d="M0,0V2m3,0h-6M0,0V-2m3,0h-6"></path>
     </g>
     <g transform="translate(250,219)">
      <path style="stroke: red; stroke-width: 1; fill: none;" d="M0,0V2m3,0h-6M0,0V-2m3,0h-6"></path>
     </g>
     <g transform="translate(482,236)">
      <path style="stroke: red; stroke-width: 1; fill: none;" d="M0,0V2m3,0h-6M0,0V-2m3,0h-6"></path>
     </g>
     <g transform="translate(270,227)">
      <path style="stroke: red; stroke-width: 1; fill: none;" d="M0,0V2m3,0h-6M0,0V-2m3,0h-6"></path>
     </g>
     <g transform="translate(52,122)">
      <path style="stroke: red; stroke-width: 1; fill: none;" d="M0,0V2m3,0h-6M0,0V-2m3,0h-6"></path>
     </g>
     <g transform="translate(381,231)">
      <path style="stroke: red; stroke-width: 1; fill: none;" d="M0,0V2m3,0h-6M0,0V-2m3,0h-6"></path>
     </g>
     <g transform="translate(209,205)">
      <path style="stroke: red; stroke-width: 1; fill: none;" d="M0,0V2m3,0h-6M0,0V-2m3,0h-6"></path>
     </g>
     <g transform="translate(67,139)">
      <path style="stroke: red; stroke-width: 1; fill: none;" d="M0,0V2m3,0h-6M0,0V-2m3,0h-6"></path>
     </g>
     <g transform="translate(129,178)">
      <path style="stroke: red; stroke-width: 1; fill: none;" d="M0,0V2m3,0h-6M0,0V-2m3,0h-6"></path>
     </g>
     <g transform="translate(140,184)">
      <path style="stroke: red; stroke-width: 1; fill: none;" d="M0,0V2m3,0h-6M0,0V-2m3,0h-6"></path>
     </g>
     <g transform="translate(485,235)">
      <path style="stroke: red; stroke-width: 1; fill: none;" d="M0,0V2m3,0h-6M0,0V-2m3,0h-6"></path>
     </g>
     <g transform="translate(250,217)">
      <path style="stroke: red; stroke-width: 1; fill: none;" d="M0,0V2m3,0h-6M0,0V-2m3,0h-6"></path>
     </g>
     <g transform="translate(433,235)">
      <path style="stroke: red; stroke-width: 1; fill: none;" d="M0,0V2m3,0h-6M0,0V-2m3,0h-6"></path>
     </g>
     <g transform="translate(191,205)">
      <path style="stroke: red; stroke-width: 1; fill: none;" d="M0,0V2m3,0h-6M0,0V-2m3,0h-6"></path>
     </g>
     <g transform="translate(209,210)">
      <path style="stroke: red; stroke-width: 1; fill: none;" d="M0,0V2m3,0h-6M0,0V-2m3,0h-6"></path>
     </g>
     <g transform="translate(330,231)">
      <path style="stroke: red; stroke-width: 1; fill: none;" d="M0,0V2m3,0h-6M0,0V-2m3,0h-6"></path>
     </g>
     <g transform="translate(435,238)">
      <path style="stroke: red; stroke-width: 1; fill: none;" d="M0,0V2m3,0h-6M0,0V-2m3,0h-6"></path>
     </g>
     <g transform="translate(476,238)">
      <path style="stroke: red; stroke-width: 1; fill: none;" d="M0,0V2m3,0h-6M0,0V-2m3,0h-6"></path>
     </g>
     <g transform="translate(369,231)">
      <path style="stroke: red; stroke-width: 1; fill: none;" d="M0,0V2m3,0h-6M0,0V-2m3,0h-6"></path>
     </g>
     <g transform="translate(218,213)">
      <path style="stroke: red; stroke-width: 1; fill: none;" d="M0,0V2m3,0h-6M0,0V-2m3,0h-6"></path>
     </g>
     <g transform="translate(467,236)">
      <path style="stroke: red; stroke-width: 1; fill: none;" d="M0,0V2m3,0h-6M0,0V-2m3,0h-6"></path>
     </g>
     <g transform="translate(391,233)">
      <path style="stroke: red; stroke-width: 1; fill: none;" d="M0,0V2m3,0h-6M0,0V-2m3,0h-6"></path>
     </g>
     <g transform="translate(175,200)">
      <path style="stroke: red; stroke-width: 1; fill: none;" d="M0,0V2m3,0h-6M0,0V-2m3,0h-6"></path>
     </g>
     <g transform="translate(302,230)">
      <path style="stroke: red; stroke-width: 1; fill: none;" d="M0,0V2m3,0h-6M0,0V-2m3,0h-6"></path>
     </g>
     <g transform="translate(305,228)">
      <path style="stroke: red; stroke-width: 1; fill: none;" d="M0,0V2m3,0h-6M0,0V-2m3,0h-6"></path>
     </g>
     <path d="M96,155l8,8m0,-8l-8,8m0,-4h8m-4,-4v8M141,184l8,8m0,-8l-8,8m0,-4h8m-4,-4v8M401,229l8,8m0,-8l-8,8m0,-4h8m-4,-4v8M314,230l8,8m0,-8l-8,8m0,-4h8m-4,-4v8M508,234l8,8m0,-8l-8,8m0,-4h8m-4,-4v8M43,114l8,8m0,-8l-8,8m0,-4h8m-4,-4v8M212,209l8,8m0,-8l-8,8m0,-4h8m-4,-4v8M47,119l8,8m0,-8l-8,8m0,-4h8m-4,-4v8M275,219l8,8m0,-8l-8,8m0,-4h8m-4,-4v8M185,197l8,8m0,-8l-8,8m0,-4h8m-4,-4v8M138,183l8,8m0,-8l-8,8m0,-4h8m-4,-4v8M81,146l8,8m0,-8l-8,8m0,-4h8m-4,-4v8M402,230l8,8m0,-8l-8,8m0,-4h8m-4,-4v8M438,233l8,8m0,-8l-8,8m0,-4h8m-4,-4v8M252,214l8,8m0,-8l-8,8m0,-4h8m-4,-4v8M356,229l8,8m0,-8l-8,8m0,-4h8m-4,-4v8M246,215l8,8m0,-8l-8,8m0,-4h8m-4,-4v8M478,232l8,8m0,-8l-8,8m0,-4h8m-4,-4v8M266,223l8,8m0,-8l-8,8m0,-4h8m-4,-4v8M48,118l8,8m0,-8l-8,8m0,-4h8m-4,-4v8M377,227l8,8m0,-8l-8,8m0,-4h8m-4,-4v8M205,201l8,8m0,-8l-8,8m0,-4h8m-4,-4v8M63,135l8,8m0,-8l-8,8m0,-4h8m-4,-4v8M125,174l8,8m0,-8l-8,8m0,-4h8m-4,-4v8M136,180l8,8m0,-8l-8,8m0,-4h8m-4,-4v8M481,231l8,8m0,-8l-8,8m0,-4h8m-4,-4v8M246,213l8,8m0,-8l-8,8m0,-4h8m-4,-4v8M429,231l8,8m0,-8l-8,8m0,-4h8m-4,-4v8M187,201l8,8m0,-8l-8,8m0,-4h8m-4,-4v8M205,206l8,8m0,-8l-8,8m0,-4h8m-4,-4v8M326,227l8,8m0,-8l-8,8m0,-4h8m-4,-4v8M431,234l8,8m0,-8l-8,8m0,-4h8m-4,-4v8M472,234l8,8m0,-8l-8,8m0,-4h8m-4,-4v8M365,227l8,8m0,-8l-8,8m0,-4h8m-4,-4v8M214,209l8,8m0,-8l-8,8m0,-4h8m-4,-4v8M463,232l8,8m0,-8l-8,8m0,-4h8m-4,-4v8M387,229l8,8m0,-8l-8,8m0,-4h8m-4,-4v8M171,196l8,8m0,-8l-8,8m0,-4h8m-4,-4v8M298,226l8,8m0,-8l-8,8m0,-4h8m-4,-4v8M301,224l8,8m0,-8l-8,8m0,-4h8m-4,-4v8" style="stroke: red; fill: none;"></path>
    </g>
    <g>
     <path d="M3,65L9,73L14,81L20,88L25,95L31,101L36,108L42,113L48,119L53,125L59,130L64,135L70,140L76,144L81,148L87,153L92,157L98,160L103,164L109,167L115,171L120,174L126,177L131,180L137,183L143,185L148,188L154,190L159,192L165,195L170,197L176,199L182,201L187,202L193,204L198,206L204,207L209,209L215,210L221,212L226,213L232,214L237,216L243,217L249,218L254,219L260,220L265,221L271,222L276,223L282,224L288,224L293,225L299,226L304,227L310,227L315,228L321,228L327,229L332,230L338,230L343,231L349,231L355,232L360,232L366,233L371,233L377,233L382,234L388,234L394,234L399,235L405,235L410,235L416,236L422,236L427,236L433,236L438,237L444,237L449,237L455,237L461,237L466,238L472,238L477,238L483,238L488,238L494,238L500,239L505,239L511,239L516,239L522,239L528,239L533,239L539,239L544,240L550,240L555,240" style="fill: none; stroke: red; stroke-width: 1;"></path>
    </g>
   </svg>
   <g>
    <g transform="translate(0,379)">
     <path d="M0,0h558M0,-7V0M12,-7V0M25,-14V0M37,-7V0M49,-7V0M61,-7V0M74,-7V0M86,-14V0M98,-7V0M110,-7V0M123,-7V0M135,-7V0M147,-14V0M159,-7V0M172,-7V0M184,-7V0M196,-7V0M208,-14V0M221,-7V0M233,-7V0M245,-7V0M257,-7V0M270,-14V0M282,-7V0M294,-7V0M306,-7V0M319,-7V0M331,-14V0M343,-7V0M355,-7V0M368,-7V0M380,-7V0M392,-14V0M404,-7V0M417,-7V0M429,-7V0M441,-7V0M453,-14V0M466,-7V0M478,-7V0M490,-7V0M502,-7V0M515,-14V0M527,-7V0M539,-7V0M551,-7V0" style="stroke: black; stroke-width: 1;"></path>
     <g font-family="Arial" font-size="17" space="preserve" fill="black" text-anchor="middle">
      <text dy=".8em" transform="translate(25)">
       -2
      </text>
      <text dy=".8em" transform="translate(86)">
       -1.5
      </text>
      <text dy=".8em" transform="translate(147)">
       -1
      </text>
      <text dy=".8em" transform="translate(208)">
       -0.5
      </text>
      <text dy=".8em" transform="translate(270)">
       0
      </text>
      <text dy=".8em" transform="translate(331)">
       0.5
      </text>
      <text dy=".8em" transform="translate(392)">
       1
      </text>
      <text dy=".8em" transform="translate(453)">
       1.5
      </text>
      <text dy=".8em" transform="translate(515)">
       2
      </text>
     </g>
    </g>
    <g>
     <path d="M0,0v379M11,379H0M11,369H0M21,359H0M11,349H0M11,339H0M11,330H0M21,320H0M11,310H0M11,300H0M11,290H0M21,280H0M11,270H0M11,261H0M11,251H0M21,241H0M11,231H0M11,221H0M11,211H0M21,201H0M11,192H0M11,182H0M11,172H0M21,162H0M11,152H0M11,142H0M11,132H0M21,123H0M11,113H0M11,103H0M11,93H0M21,83H0M11,73H0M11,63H0M11,53H0M21,44H0M11,34H0M11,24H0M11,14H0M21,4H0" style="stroke: black; stroke-width: 1;"></path>
     <g font-family="Arial" font-size="17" space="preserve" fill="black" text-anchor="end">
      <text dy=".4em" transform="translate(-2,359)">
       -8
      </text>
      <text dy=".4em" transform="translate(-2,320)">
       -6
      </text>
      <text dy=".4em" transform="translate(-2,280)">
       -4
      </text>
      <text dy=".4em" transform="translate(-2,241)">
       -2
      </text>
      <text dy=".4em" transform="translate(-2,201)">
       0
      </text>
      <text dy=".4em" transform="translate(-2,162)">
       2
      </text>
      <text dy=".4em" transform="translate(-2,123)">
       4
      </text>
      <text dy=".4em" transform="translate(-2,83)">
       6
      </text>
      <text dy=".4em" transform="translate(-2,44)">
       8
      </text>
      <text dy=".4em" transform="translate(-2,4)">
       10
      </text>
     </g>
    </g>
   </g>
  </g>
  <g transform="translate(70,2)" font-family="Arial" font-size="24" space="preserve">
   <text fill="black" text-anchor="middle" dy=".8em" transform="translate(279)">
    Graph
   </text>
  </g>
  <g transform="translate(209,47)" font-family="Arial" font-size="15" space="preserve">
   <path d="M0,0H244V95H0Z" style="fill: #deba87; stroke: black; stroke-width: 1;"></path>
   <path d="M27,14l8,8m0,-8l-8,8m0,-4h8m-4,-4v8" style="stroke: black; fill: none;"></path>
   <text fill="black" text-anchor="start" dy=".4em" transform="translate(61,18)">
    -7 + 2*x*x + x*x*x
   </text>
   <path d="M27,44l8,8m0,-8l-8,8m0,-4h8m-4,-4v8" style="stroke: blue; fill: none;"></path>
   <text fill="black" text-anchor="start" dy=".4em" transform="translate(61,48)">
    sin(x) + sin(2*x)
   </text>
   <path d="M27,73l8,8m0,-8l-8,8m0,-4h8m-4,-4v8" style="stroke: red; fill: none;"></path>
   <text fill="black" text-anchor="start" dy=".4em" transform="translate(61,77)">
    -2 + exp(-x)
   </text>
  </g>
 </g>
</svg>