<svg xmlns="http://www.w3.org/2000/svg" width="798" height="475" viewBox="0 0 798 475" preserveAspectRatio="none">
 <path d="M0,0H798V475H0Z" style="fill: white;"></path>
 <g>
  <g>
   <path d="M80,356H160" style="stroke: black; stroke-width: 4;"></path>
  </g>
  <g>
   <path d="M80,95H160" style="stroke: black; stroke-width: 4;"></path>
  </g>
  <g>
   <path d="M239,47H319" style="stroke: black; stroke-width: 4;"></path>
  </g>
  <g>
   <path d="M239,309H319" style="stroke: black; stroke-width: 4;"></path>
  </g>
  <g>
   <path d="M359,190H439" style="stroke: black; stroke-width: 4;"></path>
  </g>
  <g>
   <path d="M463,152H543" style="stroke: black; stroke-width: 4;"></path>
  </g>
  <g>
   <path d="M583,143H662" style="stroke: black; stroke-width: 4;"></path>
  </g>
  <g>
   <path d="M710,119H790" style="stroke: black; stroke-width: 4;"></path>
  </g>
  <g>
   <path d="M255,47L255,293M253,293l3,16l3,-16z" style="stroke: black; stroke-width: 1; fill: black;"></path>
  </g>
  <g>
   <path d="M271,47L271,293M269,293l3,16l3,-16z" style="stroke: black; stroke-width: 1; fill: black;"></path>
  </g>
  <g>
   <path d="M287,47L287,174M285,174l3,16l3,-16z" style="stroke: black; stroke-width: 1; fill: black;"></path>
  </g>
  <g>
   <path d="M303,47L303,127M301,127l3,16l3,-16z" style="stroke: black; stroke-width: 1; fill: black;"></path>
  </g>
  <g>
   <path d="M239,47L148,341M146,340l-2,16l7,-14z" style="stroke: black; stroke-width: 1; fill: black;"></path>
  </g>
  <g>
   <path d="M239,309L165,349M164,346l-13,10l15,-5z" style="stroke: black; stroke-width: 1; fill: black;"></path>
  </g>
  <g>
   <path d="M319,47L369,171M367,172l8,14l-3,-16z" style="stroke: black; stroke-width: 1; fill: black;"></path>
  </g>
  <g>
   <path d="M120,356L120,369M117,369l3,16l3,-16z" style="stroke: black; stroke-width: 1; fill: black;"></path>
  </g>
  <g>
   <path d="M120,95L120,108M117,108l3,16l3,-16z" style="stroke: black; stroke-width: 1; fill: black;"></path>
  </g>
  <g>
   <path d="M399,190L399,203M396,203l3,16l3,-16z" style="stroke: black; stroke-width: 1; fill: black;"></path>
  </g>
  <g>
   <path d="M479,152L479,165M476,165l3,16l3,-16z" style="stroke: black; stroke-width: 1; fill: black;"></path>
  </g>
  <g>
   <path d="M750,119L750,131M747,131l3,16l3,-16z" style="stroke: black; stroke-width: 1; fill: black;"></path>
  </g>
  <g>
   <path d="M255,309L255,369M253,369l3,16l3,-16z" style="stroke: black; stroke-width: 1; fill: black;"></path>
  </g>
  <g>
   <path d="M287,309L287,369M285,369l3,16l3,-16z" style="stroke: black; stroke-width: 1; fill: black;"></path>
  </g>
  <g>
   <path d="M303,309L303,369M301,369l3,16l3,-16z" style="stroke: black; stroke-width: 1; fill: black;"></path>
  </g>
  <g>
   <path d="M319,47L466,143M464,146l15,6l-12,-11z" style="stroke: black; stroke-width: 1; fill: black;"></path>
  </g>
  <g>
   <path d="M319,47L703,116M702,119l16,0l-15,-5z" style="stroke: black; stroke-width: 1; fill: black;"></path>
  </g>
  <g>
   <path d="M359,190L288,296M286,294l-7,15l11,-12z" style="stroke: black; stroke-width: 1; fill: black;"></path>
  </g>
  <g>
   <path d="M239,47L158,88M157,86l-13,9l15,-5z" style="stroke: black; stroke-width: 1; stroke-dasharray: 3, 3; fill: black;"></path>
  </g>
  <g>
   <path d="M535,152L301,300M299,298l-12,11l15,-6z" style="stroke: black; stroke-width: 1; fill: black;"></path>
  </g>
  <g>
   <path d="M622,143L309,302M308,299l-13,10l15,-5z" style="stroke: black; stroke-width: 1; stroke-dasharray: 3, 3; fill: black;"></path>
  </g>
  <g>
   <path d="M726,119L326,302M324,300l-13,9l15,-4z" style="stroke: black; stroke-width: 1; fill: black;"></path>
  </g>
  <g font-family="Times New Roman" font-size="17" xml:space="preserve"><text fill="black" text-anchor="middle" dominant-baseline="middle" transform="translate(120,128)">hadrons</text></g>
  <g font-family="Times New Roman" font-size="17" xml:space="preserve"><text fill="black" text-anchor="middle" dominant-baseline="middle" transform="translate(120,390)">hadrons</text></g>
  <g font-family="Times New Roman" font-size="17" xml:space="preserve"><text fill="black" text-anchor="middle" dominant-baseline="middle" transform="translate(255,390)">hadrons</text></g>
  <g font-family="Times New Roman" font-size="17" xml:space="preserve"><text fill="black" text-anchor="middle" dominant-baseline="middle" transform="translate(303,195)">hadrons</text></g>
  <g font-family="Times New Roman" font-size="17" xml:space="preserve"><text fill="black" text-anchor="middle" dominant-baseline="middle" transform="translate(399,223)">hadrons</text></g>
  <g font-family="Times New Roman" font-size="17" xml:space="preserve"><text fill="black" text-anchor="middle" dominant-baseline="middle" transform="translate(750,152)">hadrons</text></g>
  <g font-family="Times New Roman" font-size="17" xml:space="preserve"><text fill="black" text-anchor="middle" dominant-baseline="middle" transform="translate(463,181)">hadrons</text></g>
  <g font-family="Times New Roman" font-size="17" xml:space="preserve"><text fill="black" text-anchor="middle" dominant-baseline="middle" transform="translate(327,390)">radiative</text></g>
  <g font-family="Times New Roman" font-size="18" xml:space="preserve"><g transform="translate(36,445)"><g font-family="Times New Roman" font-size="18" xml:space="preserve" font-weight="normal" font-style="italic"><text fill="black" font-size="18">J</text><text fill="black" font-size="11" transform="translate(10,-9)">PC</text></g><text fill="black" font-size="18" x="30">=</text></g></g>
  <g font-family="Times New Roman" font-size="18" xml:space="preserve"><g transform="translate(110,445)"><text fill="black" font-size="18">0</text><text fill="black" font-size="11" transform="translate(10,-9)">-+</text></g></g>
  <g font-family="Times New Roman" font-size="18" xml:space="preserve"><g transform="translate(271,445)"><text fill="black" font-size="18">1</text><text fill="black" font-size="11" transform="translate(10,-9)">--</text></g></g>
  <g font-family="Times New Roman" font-size="18" xml:space="preserve"><g transform="translate(388,445)"><text fill="black" font-size="18">0</text><text fill="black" font-size="11" transform="translate(10,-9)">++</text></g></g>
  <g font-family="Times New Roman" font-size="18" xml:space="preserve"><g transform="translate(484,445)"><text fill="black" font-size="18">1</text><text fill="black" font-size="11" transform="translate(10,-9)">++</text></g></g>
  <g font-family="Times New Roman" font-size="18" xml:space="preserve"><g transform="translate(604,445)"><text fill="black" font-size="18">1</text><text fill="black" font-size="11" transform="translate(10,-9)">+-</text></g></g>
  <g font-family="Times New Roman" font-size="18" xml:space="preserve"><g transform="translate(731,445)"><text fill="black" font-size="18">2</text><text fill="black" font-size="11" transform="translate(10,-9)">++</text></g></g>
  <g font-family="Times New Roman" font-size="18" xml:space="preserve"><g transform="translate(96,86)"><text fill="black" font-size="18">η</text><text fill="black" font-size="11" transform="translate(11,4)">c</text><text fill="black" font-size="18" x="16">(2S)</text></g></g>
  <g font-family="Times New Roman" font-size="18" xml:space="preserve"><g transform="translate(96,347)"><text fill="black" font-size="18">η</text><text fill="black" font-size="11" transform="translate(11,4)">c</text><text fill="black" font-size="18" x="16">(1S)</text></g></g>
  <g font-family="Times New Roman" font-size="18" xml:space="preserve"><g transform="translate(257,39)"><text fill="black" font-size="18">ψ(2S)</text></g></g>
  <g font-family="Times New Roman" font-size="18" xml:space="preserve"><g transform="translate(330,315)"><text font-family="Times New Roman" font-size="18" xml:space="preserve" font-weight="normal" font-style="italic" fill="black">J</text><text fill="black" font-size="18" x="9">/ψ(1S)</text></g></g>
  <g font-family="Times New Roman" font-size="18" xml:space="preserve"><g transform="translate(381,181)"><text fill="black" font-size="18">χ</text><text fill="black" font-size="11" transform="translate(10,4)">c0</text><text fill="black" font-size="18" x="20">(1P)</text></g></g>
  <g font-family="Times New Roman" font-size="18" xml:space="preserve"><g transform="translate(477,143)"><text fill="black" font-size="18">χ</text><text fill="black" font-size="11" transform="translate(10,4)">c1</text><text fill="black" font-size="18" x="20">(1P)</text></g></g>
  <g font-family="Times New Roman" font-size="18" xml:space="preserve"><g transform="translate(596,133)"><text fill="black" font-size="18">h</text><text fill="black" font-size="11" transform="translate(11,4)">c1</text><text fill="black" font-size="18" x="21">(1P)</text></g></g>
  <g font-family="Times New Roman" font-size="18" xml:space="preserve"><g transform="translate(724,109)"><text fill="black" font-size="18">χ</text><text fill="black" font-size="11" transform="translate(10,4)">c2</text><text fill="black" font-size="18" x="20">(1P)</text></g></g>
  <g font-family="Times New Roman" font-size="18" xml:space="preserve"><g transform="translate(184,67)"><text font-family="Times New Roman" font-size="18" xml:space="preserve" font-weight="normal" font-style="oblique" fill="black">γ</text></g></g>
  <g font-family="Times New Roman" font-size="18" xml:space="preserve"><g transform="translate(184,204)"><text font-family="Times New Roman" font-size="18" xml:space="preserve" font-weight="normal" font-style="oblique" fill="black">γ</text></g></g>
  <g font-family="Times New Roman" font-size="18" xml:space="preserve"><g transform="translate(351,109)"><text font-family="Times New Roman" font-size="18" xml:space="preserve" font-weight="normal" font-style="oblique" fill="black">γ</text></g></g>
  <g font-family="Times New Roman" font-size="18" xml:space="preserve"><g transform="translate(319,238)"><text font-family="Times New Roman" font-size="18" xml:space="preserve" font-weight="normal" font-style="oblique" fill="black">γ</text></g></g>
  <g font-family="Times New Roman" font-size="18" xml:space="preserve"><g transform="translate(359,257)"><text font-family="Times New Roman" font-size="18" xml:space="preserve" font-weight="normal" font-style="oblique" fill="black">γ</text></g></g>
  <g font-family="Times New Roman" font-size="18" xml:space="preserve"><g transform="translate(567,185)"><text font-family="Times New Roman" font-size="18" xml:space="preserve" font-weight="normal" font-style="oblique" fill="black">γ</text></g></g>
  <g font-family="Times New Roman" font-size="18" xml:space="preserve"><g transform="translate(192,328)"><text font-family="Times New Roman" font-size="18" xml:space="preserve" font-weight="normal" font-style="oblique" fill="black">γ</text></g></g>
  <g font-family="Times New Roman" font-size="18" xml:space="preserve"><g transform="translate(303,90)"><g font-family="Times New Roman" font-size="18" xml:space="preserve" font-weight="normal" font-style="oblique"><text fill="black" font-size="18">γ</text><text fill="black" font-size="11" transform="translate(10,-9)">∗</text></g></g></g>
  <g font-family="Times New Roman" font-size="18" xml:space="preserve"><g transform="translate(283,399)"><g font-family="Times New Roman" font-size="18" xml:space="preserve" font-weight="normal" font-style="oblique"><text fill="black" font-size="18">γ</text><text fill="black" font-size="11" transform="translate(10,-9)">∗</text></g></g></g>
  <g font-family="Times New Roman" font-size="18" xml:space="preserve"><g transform="translate(235,238)"><text fill="black" font-size="18">ππ</text></g></g>
  <g font-family="Times New Roman" font-size="18" xml:space="preserve"><g transform="translate(275,223)"><text fill="black" font-size="18">η,π</text><text fill="black" font-size="11" transform="translate(23,-9)">0</text></g></g>
  <g font-family="Times New Roman" font-size="18" xml:space="preserve"><g transform="translate(559,166)"><text fill="black" font-size="18">π</text><text fill="black" font-size="11" transform="translate(12,-9)">0</text></g></g>
 </g>
</svg>