<svg xmlns="http://www.w3.org/2000/svg" width="1198" height="775" viewBox="0 0 1198 775" preserveAspectRatio="none">
 <path d="M0,0H1198V775H0Z" style="fill: white;"></path>
 <g>
  <g transform="translate(120,620)" font-family="Arial" font-size="40" xml:space="preserve" font-weight="bold"><path d="M0,78v-74h-2v76h357v-2z" style="fill: black; stroke: black; stroke-width: 9px;"></path><path d="M0,0H359V78H0Z" style="fill: blue; stroke: red; stroke-width: 10;"></path><text fill="rgb(204, 204, 204)" text-anchor="middle" dominant-baseline="middle" transform="translate(180,39)">option blNDC only</text></g>
  <g transform="translate(120,504)" font-family="Arial" font-size="39" xml:space="preserve" font-weight="bold"><rect width="359" height="77" rx="8" x="-3" y="3" style="fill: black; stroke: black; stroke-width: 9px;"></rect><rect width="359" height="77" rx="8" style="fill: blue; stroke: red; stroke-width: 10;"></rect><text fill="rgb(204, 204, 204)" text-anchor="middle" dominant-baseline="middle" transform="translate(180,39)">option blNDC ARC</text></g>
  <g transform="translate(120,233)" font-family="Arial" font-size="39" xml:space="preserve" font-weight="bold"><path d="M359,7h5v75h-357v-5h351z" style="fill: black; stroke: black; stroke-width: 6px;"></path><path d="M0,0H359V77H0Z" style="fill: blue; stroke: red; stroke-width: 7;"></path><text fill="rgb(204, 204, 204)" text-anchor="middle" dominant-baseline="middle" transform="translate(180,39)">option brNDC only</text></g>
  <g transform="translate(120,116)" font-family="Arial" font-size="38" xml:space="preserve" font-weight="bold"><rect width="359" height="77" rx="8" x="6" y="6" style="fill: black; stroke: black; stroke-width: 6px;"></rect><rect width="359" height="77" rx="8" style="fill: blue; stroke: red; stroke-width: 7;"></rect><text fill="rgb(204, 204, 204)" text-anchor="middle" dominant-baseline="middle" transform="translate(180,39)">option brNDC ARC</text></g>
  <g transform="translate(719,620)" font-family="Arial" font-size="41" xml:space="preserve" font-weight="bold"><path d="M0,0v68h-8v-76h357v8z" style="fill: black; stroke: black; stroke-width: 3px;"></path><path d="M0,0H359V78H0Z" style="fill: blue; stroke: red; stroke-width: 4;"></path><text fill="rgb(204, 204, 204)" text-anchor="middle" dominant-baseline="middle" transform="translate(180,39)">option tlNDC only</text></g>
  <g transform="translate(719,504)" font-family="Arial" font-size="40" xml:space="preserve" font-weight="bold"><rect width="359" height="77" rx="8" x="-9" y="-9" style="fill: black; stroke: black; stroke-width: 3px;"></rect><rect width="359" height="77" rx="8" style="fill: blue; stroke: red; stroke-width: 4;"></rect><text fill="rgb(204, 204, 204)" text-anchor="middle" dominant-baseline="middle" transform="translate(180,39)">option tlNDC ARC</text></g>
  <g transform="translate(719,233)" font-family="Arial" font-size="40" xml:space="preserve" font-weight="bold"><path d="M13,0v-11h357v75h-11v-64z" style="fill: black; stroke: black; stroke-width: 1px;"></path><path d="M0,0H359V77H0Z" style="fill: blue; stroke: red; stroke-width: 1;"></path><text fill="rgb(204, 204, 204)" text-anchor="middle" dominant-baseline="middle" transform="translate(180,39)">option trNDC only</text></g>
  <g transform="translate(719,116)" font-family="Arial" font-size="39" xml:space="preserve" font-weight="bold"><rect width="359" height="77" rx="8" x="12" y="-12" style="fill: black; stroke: black; stroke-width: 1px;"></rect><rect width="359" height="77" rx="8" style="fill: blue; stroke: red; stroke-width: 1;"></rect><text fill="rgb(204, 204, 204)" text-anchor="middle" dominant-baseline="middle" transform="translate(180,39)">option trNDC ARC</text></g>
 </g>
</svg>