<svg xmlns="http://www.w3.org/2000/svg" width="698" height="674" viewBox="0 0 698 674" preserveAspectRatio="none">
 <defs>
  <pattern id="pat_3030_3" patternUnits="userSpaceOnUse" width="4" height="2">
   <path d="M1,0h1v1h-1zM3,1h1v1h-1z" style="fill: green;"></path>
  </pattern>
  <pattern id="pat_3031_3" patternUnits="userSpaceOnUse" width="4" height="2">
   <path d="M1,0h1v1h-1zM3,1h1v1h-1z" style="fill: green;"></path>
  </pattern>
 </defs>
 <path d="M0,0H698V674H0Z" style="fill: white;"></path>
 <g>
  <svg viewBox="0 0 335 324" preserveAspectRatio="none" x="7" y="6" width="335" height="324">
   <path d="M0,0H335V324H0Z" style="fill: white;"></path>
   <g>
    <g transform="translate(168,162)">
     <g font-family="Arial" font-size="16" xml:space="preserve" font-weight="bold"><path d="M0,26l-62,-48a117,57,0,0,1,146,8z" style="stroke: black; stroke-width: 1; fill: rgb(52, 44, 138);"></path><path d="M0,0v26l-62,-48v-26z" style="stroke: black; stroke-width: 1; fill: rgb(52, 44, 138);"></path><path d="M0,0v26l84,-40v-26z" style="stroke: black; stroke-width: 1; fill: rgb(52, 44, 138);"></path><path d="M0,0l-62,-48a117,57,0,0,1,146,8z" style="stroke: black; stroke-width: 1; fill: rgb(52, 44, 138);"></path><text text-anchor="start" transform="translate(14,-57)">Slice1</text></g>
     <g font-family="Arial" font-size="16" xml:space="preserve" font-weight="bold"><path d="M0,26l84,-40a117,57,0,0,1,17,12z" style="stroke: black; stroke-width: 1; fill: rgb(53, 42, 135);"></path><path d="M0,0v26l84,-40v-26z" style="stroke: black; stroke-width: 1; fill: rgb(53, 42, 135);"></path><path d="M0,0v26l101,-28v-26z" style="stroke: black; stroke-width: 1; fill: rgb(53, 42, 135);"></path><path d="M0,0l84,-40a117,57,0,0,1,17,12z" style="stroke: black; stroke-width: 1; fill: rgb(53, 42, 135);"></path><text text-anchor="start" transform="translate(94,-35)">Slice0</text></g>
     <g font-family="Arial" font-size="16" xml:space="preserve" font-weight="bold"><path d="M0,26l-113,-16a117,57,0,0,1,51,-32z" style="stroke: black; stroke-width: 1; fill: rgb(51, 46, 141);"></path><path d="M0,0v26l-62,-48v-26z" style="stroke: black; stroke-width: 1; fill: rgb(51, 46, 141);"></path><path d="M0,0v26l-113,-16v-26z" style="stroke: black; stroke-width: 1; fill: rgb(51, 46, 141);"></path><path d="M0,0l-113,-16a117,57,0,0,1,51,-32z" style="stroke: black; stroke-width: 1; fill: rgb(51, 46, 141);"></path><text text-anchor="end" transform="translate(-94,-35)">Slice2</text></g>
     <g font-family="Arial" font-size="16" xml:space="preserve" font-weight="bold"><path d="M0,26l-79,42a117,57,0,0,1,-38,-42a117,57,0,0,1,4,-16z" style="stroke: black; stroke-width: 1; fill: rgb(49, 47, 143);"></path><path d="M0,0v26l-113,-16v-26z" style="stroke: black; stroke-width: 1; fill: rgb(49, 47, 143);"></path><path d="M0,0v26l-79,42v-26z" style="stroke: black; stroke-width: 1; fill: rgb(49, 47, 143);"></path><path d="M-79,42a117,57,0,0,1,-38,-42v26a117,57,0,0,0,38,42z" style="stroke: black; stroke-width: 1; fill: rgb(49, 47, 143);"></path><path d="M0,0l-79,42a117,57,0,0,1,-38,-42a117,57,0,0,1,4,-16z" style="stroke: black; stroke-width: 1; fill: rgb(49, 47, 143);"></path><text text-anchor="end" dy=".8em" transform="translate(-113,42)">Slice3</text></g>
     <g transform="translate(21,13)" font-family="Arial" font-size="16" xml:space="preserve" font-weight="bold"><path d="M0,26l101,-28a117,57,0,0,1,16,28a117,57,0,0,1,-196,42z" style="stroke: black; stroke-width: 1; fill: rgb(48, 49, 146);"></path><path d="M0,0v26l101,-28v-26z" style="stroke: black; stroke-width: 1; fill: rgb(48, 49, 146);"></path><path d="M0,0v26l-79,42v-26z" style="stroke: black; stroke-width: 1; fill: rgb(48, 49, 146);"></path><path d="M117,0a117,57,0,0,1,-196,42v26a117,57,0,0,0,196,-42z" style="stroke: black; stroke-width: 1; fill: rgb(48, 49, 146);"></path><path d="M0,0l101,-28a117,57,0,0,1,16,28a117,57,0,0,1,-196,42z" style="stroke: black; stroke-width: 1; fill: rgb(48, 49, 146);"></path><text text-anchor="start" dy=".8em" transform="translate(74,71)">Slice4</text></g>
    </g>
    <g transform="translate(63,2)" font-family="Arial" font-size="15" xml:space="preserve"><text fill="black" text-anchor="middle" dominant-baseline="middle" transform="translate(105,10)">Pie with offset and no colors</text></g>
   </g>
  </svg>
  <svg viewBox="0 0 335 324" preserveAspectRatio="none" x="356" y="6" width="335" height="324">
   <path d="M0,0H335V324H0Z" style="fill: white;"></path>
   <g>
    <g transform="translate(168,178)">
     <g transform="translate(-6,-15)" font-family="Arial" font-size="16" xml:space="preserve" font-weight="bold"><path d="M0,0l-70,-70a100,97,0,0,1,67,-27z" style="stroke: red; stroke-width: 5; stroke-dasharray: 3, 3; fill: blue;"></path><text fill="blue" text-anchor="end" dominant-baseline="middle" transform="translate(-39,-90) rotate(66)">Slice2</text></g>
     <g font-family="Arial" font-size="16" xml:space="preserve" font-weight="bold"><path d="M0,0l-3,-97a100,97,0,0,1,100,73z" style="stroke: black; stroke-width: 1; fill: url(#pat_3030_3);"></path><text fill="green" text-anchor="start" dominant-baseline="middle" transform="translate(61,-78) rotate(-52)">Slice1</text></g>
     <g font-family="Arial" font-size="16" xml:space="preserve" font-weight="bold"><path d="M0,0l-95,29a100,97,0,0,1,25,-99z" style="stroke: black; stroke-width: 1; fill: yellow;"></path><text fill="yellow" text-anchor="end" dominant-baseline="middle" transform="translate(-97,-24) rotate(14)">Slice3</text></g>
     <g font-family="Arial" font-size="16" xml:space="preserve" font-weight="bold"><path d="M0,0l97,-24a100,97,0,0,1,3,24z" style="stroke: black; stroke-width: 1; fill: red;"></path><text fill="red" text-anchor="start" dominant-baseline="middle" transform="translate(100,-12) rotate(-7)">Slice0</text></g>
     <g font-family="Arial" font-size="16" xml:space="preserve" font-weight="bold"><path d="M0,0l100,0a100,97,0,0,1,-195,29z" style="stroke: black; stroke-width: 1; fill: magenta;"></path><text fill="magenta" text-anchor="start" dominant-baseline="middle" transform="translate(15,96) rotate(81)">Slice4</text></g>
    </g>
    <g transform="translate(90,2)" font-family="Arial" font-size="15" xml:space="preserve"><text fill="black" text-anchor="middle" dominant-baseline="middle" transform="translate(78,10)">Pie with radial labels</text></g>
   </g>
  </svg>
  <svg viewBox="0 0 335 324" preserveAspectRatio="none" x="7" y="343" width="335" height="324">
   <path d="M0,0H335V324H0Z" style="fill: white;"></path>
   <g>
    <g transform="translate(168,220)">
     <g font-family="Arial" font-size="16" xml:space="preserve" font-weight="bold"><path d="M0,26l-67,-56a134,65,0,0,1,152,6z" style="stroke: black; stroke-width: 1; fill: url(#pat_3031_3);"></path><path d="M0,0v26l-67,-56v-26z" style="stroke: black; stroke-width: 1; fill: url(#pat_3031_3);"></path><path d="M0,0v26l85,-50v-26z" style="stroke: black; stroke-width: 1; fill: url(#pat_3031_3);"></path><path d="M0,0l-67,-56a134,65,0,0,1,152,6z" style="stroke: black; stroke-width: 1; fill: url(#pat_3031_3);"></path><text text-anchor="middle" dy=".8em" transform="translate(10,-58) rotate(2)">Slice1</text></g>
     <g font-family="Arial" font-size="16" xml:space="preserve" font-weight="bold"><path d="M0,26l-124,-24a134,65,0,0,1,57,-32z" style="stroke: black; stroke-width: 1; fill: blue;"></path><path d="M0,0v26l-67,-56v-26z" style="stroke: black; stroke-width: 1; fill: blue;"></path><path d="M0,0v26l-124,-24v-26z" style="stroke: black; stroke-width: 1; fill: blue;"></path><path d="M0,0l-124,-24a134,65,0,0,1,57,-32z" style="stroke: black; stroke-width: 1; fill: blue;"></path><text text-anchor="middle" dy=".8em" transform="translate(-91,-38) rotate(-29)">Slice2</text></g>
     <g font-family="Arial" font-size="16" xml:space="preserve" font-weight="bold"><path d="M0,26l85,-50a134,65,0,0,1,49,50z" style="stroke: black; stroke-width: 1; fill: red;"></path><path d="M0,0v26l85,-50v-26z" style="stroke: black; stroke-width: 1; fill: red;"></path><path d="M0,0v26l134,0v-26z" style="stroke: black; stroke-width: 1; fill: red;"></path><path d="M0,0l85,-50a134,65,0,0,1,49,50z" style="stroke: black; stroke-width: 1; fill: red;"></path><text text-anchor="middle" dy=".8em" transform="translate(109,-25) rotate(46)">Slice0</text></g>
     <g font-family="Arial" font-size="16" xml:space="preserve" font-weight="bold"><path d="M0,26l-110,37a134,65,0,0,1,-24,-37a134,65,0,0,1,10,-24z" style="stroke: black; stroke-width: 1; fill: yellow;"></path><path d="M0,0v26l-124,-24v-26z" style="stroke: black; stroke-width: 1; fill: yellow;"></path><path d="M0,0v26l-110,37v-26z" style="stroke: black; stroke-width: 1; fill: yellow;"></path><path d="M-110,37a134,65,0,0,1,-24,-37v26a134,65,0,0,0,24,37z" style="stroke: black; stroke-width: 1; fill: yellow;"></path><path d="M0,0l-110,37a134,65,0,0,1,-24,-37a134,65,0,0,1,10,-24z" style="stroke: black; stroke-width: 1; fill: yellow;"></path><text text-anchor="middle" transform="translate(-120,6) rotate(77)">Slice3</text></g>
     <g font-family="Arial" font-size="16" xml:space="preserve" font-weight="bold"><path d="M0,26l134,0a134,65,0,0,1,0,0a134,65,0,0,1,-244,37z" style="stroke: black; stroke-width: 1; fill: magenta;"></path><path d="M0,0v26l134,0v-26z" style="stroke: black; stroke-width: 1; fill: magenta;"></path><path d="M0,0v26l-110,37v-26z" style="stroke: black; stroke-width: 1; fill: magenta;"></path><path d="M134,0a134,65,0,0,1,0,0v26a134,65,0,0,0,0,0z" style="stroke: black; stroke-width: 1; fill: magenta;"></path><path d="M134,0a134,65,0,0,1,-244,37v26a134,65,0,0,0,244,-37z" style="stroke: black; stroke-width: 1; fill: magenta;"></path><path d="M0,0l134,0a134,65,0,0,1,0,0a134,65,0,0,1,-244,37z" style="stroke: black; stroke-width: 1; fill: magenta;"></path><text text-anchor="middle" transform="translate(36,56) rotate(351)">Slice4</text></g>
    </g>
    <g transform="translate(75,2)" font-family="Arial" font-size="15" xml:space="preserve"><text fill="black" text-anchor="middle" dominant-baseline="middle" transform="translate(93,10)">Pie with tangential labels</text></g>
    <g transform="translate(218,45)" font-family="Arial" font-size="14" xml:space="preserve"><path d="M0,0H100V97H0Z" style="fill: white; stroke: black; stroke-width: 1;"></path><path d="M3,5v13h21v-13z" style="fill: red; stroke: black; stroke-width: 1;"></path><text fill="black" text-anchor="start" dominant-baseline="middle" transform="translate(27,12)">Slice0</text><path d="M3,24v13h21v-13z" style="fill: url(#pat_3031_3); stroke: black; stroke-width: 1;"></path><text fill="black" text-anchor="start" dominant-baseline="middle" transform="translate(27,31)">Slice1</text><path d="M3,42v13h21v-13z" style="fill: blue; stroke: black; stroke-width: 1;"></path><text fill="black" text-anchor="start" dominant-baseline="middle" transform="translate(27,49)">Slice2</text><path d="M3,61v13h21v-13z" style="fill: yellow; stroke: black; stroke-width: 1;"></path><text fill="black" text-anchor="start" dominant-baseline="middle" transform="translate(27,68)">Slice3</text><path d="M3,79v13h21v-13z" style="fill: magenta; stroke: black; stroke-width: 1;"></path><text fill="black" text-anchor="start" dominant-baseline="middle" transform="translate(27,86)">Slice4</text></g>
   </g>
  </svg>
  <svg viewBox="0 0 335 324" preserveAspectRatio="none" x="356" y="343" width="335" height="324">
   <path d="M0,0H335V324H0Z" style="fill: white;"></path>
   <g>
    <g transform="translate(168,162)">
     <g font-family="Arial" font-size="16" xml:space="preserve" font-weight="bold"><path d="M0,0l-63,-20a66,65,0,0,1,129,20z" style="stroke: black; stroke-width: 1; fill: magenta;"></path><g transform="translate(10,-65)"><text font-size="16" transform="translate(0,-9)">2.30 (45.1%)</text><text font-size="16" transform="translate(0,10)">Slice4</text></g></g>
     <g font-family="Arial" font-size="16" xml:space="preserve" font-weight="bold"><path d="M0,0l66,0a66,65,0,0,1,-2,16z" style="stroke: black; stroke-width: 1; fill: red;"></path><g transform="translate(66,32)"><text font-size="16" transform="translate(0,-9)">0.20 (3.9%)</text><text font-size="16" transform="translate(0,10)">Slice0</text></g></g>
     <g font-family="Arial" font-size="16" xml:space="preserve" font-weight="bold"><path d="M0,0l-33,56a66,65,0,0,1,-30,-76z" style="stroke: black; stroke-width: 1; fill: green;"></path><g transform="translate(-149,48)"><text font-size="16" transform="translate(0,-9)">1.10 (21.6%)</text><text font-size="16" transform="translate(0,10)">Slice1</text></g></g>
     <g font-family="Arial" font-size="16" xml:space="preserve" font-weight="bold"><path d="M0,0l64,16a66,65,0,0,1,-28,38z" style="stroke: black; stroke-width: 1; fill: blue;"></path><g transform="translate(54,62)"><text font-size="16" transform="translate(0,-9)">0.60 (11.8%)</text><text font-size="16" transform="translate(0,10)">Slice2</text></g></g>
     <g font-family="Arial" font-size="16" xml:space="preserve" font-weight="bold"><path d="M0,0l36,54a66,65,0,0,1,-69,2z" style="stroke: black; stroke-width: 1; fill: yellow;"></path><g transform="translate(2,90)"><text font-size="16" transform="translate(0,-9)">0.90 (17.6%)</text><text font-size="16" transform="translate(0,10)">Slice3</text></g></g>
    </g>
    <g transform="translate(82,2)" font-family="Arial" font-size="15" xml:space="preserve"><text fill="black" text-anchor="middle" dominant-baseline="middle" transform="translate(86,10)">Pie with verbose labels</text></g>
   </g>
  </svg>
 </g>
</svg>