<svg xmlns="http://www.w3.org/2000/svg" viewBox="0 0 628 734" preserveAspectRatio="none" width="628" height="734">
 <path d="M0,0H628V734H0Z" style="fill: black;"></path>
 <g>
  <g font-family="Arial" font-size="40" space="preserve" font-weight="bold">
   <text fill="#7d9ad2" text-anchor="middle" dy=".4em" transform="translate(565,400) rotate(-90)">
    Force Carriers
   </text>
  </g>
  <g font-family="Arial" font-size="40" space="preserve" font-weight="bold">
   <text fill="#b3b3b3" text-anchor="middle" dy=".4em" transform="translate(69,523) rotate(-90)">
    Leptons
   </text>
  </g>
  <g font-family="Arial" font-size="40" space="preserve" font-weight="bold">
   <text fill="#d45a54" text-anchor="middle" dy=".4em" transform="translate(69,276) rotate(-90)">
    Quarks
   </text>
  </g>
  <g font-family="Times New Roman" font-size="79" space="preserve" font-weight="bold" font-style="italic">
   <text fill="#ffff00" text-anchor="middle" dy=".4em" transform="translate(314,51)">
    Elementary
   </text>
  </g>
  <g font-family="Times New Roman" font-size="68" space="preserve" font-weight="bold" font-style="italic">
   <text fill="#ffff00" text-anchor="middle" dy=".4em" transform="translate(314,117)">
    Particles
   </text>
  </g>
  <g font-family="Times New Roman" font-size="28" space="preserve" font-weight="bold" font-style="italic">
   <text fill="#ffff00" text-anchor="middle" dy=".4em" transform="translate(314,685)">
    Three Generations of Matter
   </text>
  </g>
  <svg viewBox="0 0 440 499" preserveAspectRatio="none" x="94" y="154" width="440" height="499">
   <path d="M0,0H440V499H0Z" style="fill: white;"></path>
  </svg>
  <svg viewBox="0 0 110 124" preserveAspectRatio="none" x="94" y="155" width="110" height="124">
   <path d="M0,0H110V124H0Z" style="fill: #d45a54;"></path>
   <g>
    <g font-family="Times New Roman" font-size="79" space="preserve" font-weight="bold" font-style="italic">
     <text fill="black" text-anchor="middle" dy=".4em" transform="translate(55,62)">
      u
     </text>
    </g>
   </g>
  </svg>
  <svg viewBox="0 0 110 124" preserveAspectRatio="none" x="204" y="155" width="110" height="124">
   <path d="M0,0H110V124H0Z" style="fill: #d45a54;"></path>
   <g>
    <g font-family="Times New Roman" font-size="79" space="preserve" font-weight="bold" font-style="italic">
     <text fill="black" text-anchor="middle" dy=".4em" transform="translate(55,62)">
      c
     </text>
    </g>
   </g>
  </svg>
  <svg viewBox="0 0 110 124" preserveAspectRatio="none" x="314" y="155" width="110" height="124">
   <path d="M0,0H110V124H0Z" style="fill: #d45a54;"></path>
   <g>
    <g font-family="Times New Roman" font-size="79" space="preserve" font-weight="bold" font-style="italic">
     <text fill="black" text-anchor="middle" dy=".4em" transform="translate(55,62)">
      t
     </text>
    </g>
   </g>
  </svg>
  <svg viewBox="0 0 110 124" preserveAspectRatio="none" x="424" y="155" width="110" height="124">
   <path d="M0,0H110V124H0Z" style="fill: #7d9ad2;"></path>
   <g>
    <g font-family="Times New Roman" font-size="79" space="preserve" font-weight="bold" font-style="italic">
     <g transform="translate(36,84)">
      <text fill="black" font-size="79">
       γ
      </text>
     </g>
    </g>
   </g>
  </svg>
  <svg viewBox="0 0 110 124" preserveAspectRatio="none" x="94" y="280" width="110" height="124">
   <path d="M0,0H110V124H0Z" style="fill: #d45a54;"></path>
   <g>
    <g font-family="Times New Roman" font-size="79" space="preserve" font-weight="bold" font-style="italic">
     <text fill="black" text-anchor="middle" dy=".4em" transform="translate(55,62)">
      d
     </text>
    </g>
   </g>
  </svg>
  <svg viewBox="0 0 110 124" preserveAspectRatio="none" x="204" y="280" width="110" height="124">
   <path d="M0,0H110V124H0Z" style="fill: #d45a54;"></path>
   <g>
    <g font-family="Times New Roman" font-size="79" space="preserve" font-weight="bold" font-style="italic">
     <text fill="black" text-anchor="middle" dy=".4em" transform="translate(55,62)">
      s
     </text>
    </g>
   </g>
  </svg>
  <svg viewBox="0 0 110 124" preserveAspectRatio="none" x="314" y="280" width="110" height="124">
   <path d="M0,0H110V124H0Z" style="fill: #d45a54;"></path>
   <g>
    <g font-family="Times New Roman" font-size="79" space="preserve" font-weight="bold" font-style="italic">
     <text fill="black" text-anchor="middle" dy=".4em" transform="translate(55,62)">
      b
     </text>
    </g>
   </g>
  </svg>
  <svg viewBox="0 0 110 124" preserveAspectRatio="none" x="424" y="280" width="110" height="124">
   <path d="M0,0H110V124H0Z" style="fill: #7d9ad2;"></path>
   <g>
    <g font-family="Times New Roman" font-size="79" space="preserve" font-weight="bold" font-style="italic">
     <text fill="black" text-anchor="middle" dy=".4em" transform="translate(55,56)">
      g
     </text>
    </g>
   </g>
  </svg>
  <svg viewBox="0 0 110 124" preserveAspectRatio="none" x="94" y="404" width="110" height="124">
   <path d="M0,0H110V124H0Z" style="fill: #b3b3b3;"></path>
   <g>
    <g font-family="Times New Roman" font-size="79" space="preserve" font-weight="bold" font-style="italic">
     <g transform="translate(23,86)">
      <text fill="black" font-size="79">
       ν
      </text>
      <text fill="black" font-size="47" transform="translate(40,16)">
       e
      </text>
     </g>
    </g>
   </g>
  </svg>
  <svg viewBox="0 0 110 124" preserveAspectRatio="none" x="204" y="404" width="110" height="124">
   <path d="M0,0H110V124H0Z" style="fill: #b3b3b3;"></path>
   <g>
    <g font-family="Times New Roman" font-size="79" space="preserve" font-weight="bold" font-style="italic">
     <g transform="translate(22,86)">
      <text fill="black" font-size="79">
       ν
      </text>
      <text fill="black" font-size="47" transform="translate(40,16)">
       μ
      </text>
     </g>
    </g>
   </g>
  </svg>
  <svg viewBox="0 0 110 124" preserveAspectRatio="none" x="314" y="404" width="110" height="124">
   <path d="M0,0H110V124H0Z" style="fill: #b3b3b3;"></path>
   <g>
    <g font-family="Times New Roman" font-size="79" space="preserve" font-weight="bold" font-style="italic">
     <g transform="translate(25,86)">
      <text fill="black" font-size="79">
       ν
      </text>
      <text fill="black" font-size="47" transform="translate(40,16)">
       τ
      </text>
     </g>
    </g>
   </g>
  </svg>
  <svg viewBox="0 0 110 124" preserveAspectRatio="none" x="424" y="404" width="110" height="124">
   <path d="M0,0H110V124H0Z" style="fill: #7d9ad2;"></path>
   <g>
    <g font-family="Times New Roman" font-size="79" space="preserve" font-weight="bold" font-style="italic">
     <text fill="black" text-anchor="middle" dy=".4em" transform="translate(55,62)">
      Z
     </text>
    </g>
   </g>
  </svg>
  <svg viewBox="0 0 110 124" preserveAspectRatio="none" x="94" y="529" width="110" height="124">
   <path d="M0,0H110V124H0Z" style="fill: #b3b3b3;"></path>
   <g>
    <g font-family="Times New Roman" font-size="79" space="preserve" font-weight="bold" font-style="italic">
     <text fill="black" text-anchor="middle" dy=".4em" transform="translate(55,62)">
      e
     </text>
    </g>
   </g>
  </svg>
  <svg viewBox="0 0 110 124" preserveAspectRatio="none" x="204" y="529" width="110" height="124">
   <path d="M0,0H110V124H0Z" style="fill: #b3b3b3;"></path>
   <g>
    <g font-family="Times New Roman" font-size="79" space="preserve" font-weight="bold" font-style="italic">
     <g transform="translate(33,83)">
      <text fill="black" font-size="79">
       μ
      </text>
     </g>
    </g>
   </g>
  </svg>
  <svg viewBox="0 0 110 124" preserveAspectRatio="none" x="314" y="529" width="110" height="124">
   <path d="M0,0H110V124H0Z" style="fill: #b3b3b3;"></path>
   <g>
    <g font-family="Times New Roman" font-size="79" space="preserve" font-weight="bold" font-style="italic">
     <g transform="translate(38,90)">
      <text fill="black" font-size="79">
       τ
      </text>
     </g>
    </g>
   </g>
  </svg>
  <svg viewBox="0 0 110 124" preserveAspectRatio="none" x="424" y="529" width="110" height="124">
   <path d="M0,0H110V124H0Z" style="fill: #7d9ad2;"></path>
   <g>
    <g font-family="Times New Roman" font-size="79" space="preserve" font-weight="bold" font-style="italic">
     <text fill="black" text-anchor="middle" dy=".4em" transform="translate(55,62)">
      W
     </text>
    </g>
   </g>
  </svg>
 </g>
</svg>