<svg xmlns="http://www.w3.org/2000/svg" viewBox="0 0 1200 800" preserveAspectRatio="none" width="1200" height="800">
 <title>
  ROOT canvas
 </title>
 <path d="M0,0H1200V800H0Z" style="fill: none;"></path>
 <g>
  <g transform="translate(120,80)">
   <title></title>
   <path d="M0,0H960V640H0Z" style="fill: white; stroke: black; stroke-width: 1;"></path>
   <g clip-path="path('M0,0H960V640H0Z')">
    <g>
     <path d="M0,0h10v640h950" style="stroke-linejoin: miter; stroke: rgb(0,0,154); stroke-width: 1; fill: none;"></path>
    </g>
    <g objname="h_bmixData_Cut%5BmixState==mixState::mixed%5D" objtype="RooHist">
     <g transform="translate(5,640)">
      <path style="stroke: black; stroke-width: 1; fill: none;" d="M0,0H-5m0,3v-6M0,0H5m0,3v-6M0,0V-4m3,0h-6"></path>
     </g>
     <g transform="translate(14,640)">
      <path style="stroke: black; stroke-width: 1; fill: none;" d="M0,0H-5m0,3v-6M0,0H5m0,3v-6M0,0V-4m3,0h-6"></path>
     </g>
     <g transform="translate(24,640)">
      <path style="stroke: black; stroke-width: 1; fill: none;" d="M0,0H-5m0,3v-6M0,0H5m0,3v-6M0,0V-4m3,0h-6"></path>
     </g>
     <g transform="translate(34,640)">
      <path style="stroke: black; stroke-width: 1; fill: none;" d="M0,0H-5m0,3v-6M0,0H5m0,3v-6M0,0V-4m3,0h-6"></path>
     </g>
     <g transform="translate(43,640)">
      <path style="stroke: black; stroke-width: 1; fill: none;" d="M0,0H-5m0,3v-6M0,0H5m0,3v-6M0,0V-4m3,0h-6"></path>
     </g>
     <g transform="translate(53,640)">
      <path style="stroke: black; stroke-width: 1; fill: none;" d="M0,0H-5m0,3v-6M0,0H5m0,3v-6M0,0V-4m3,0h-6"></path>
     </g>
     <g transform="translate(62,640)">
      <path style="stroke: black; stroke-width: 1; fill: none;" d="M0,0H-5m0,3v-6M0,0H5m0,3v-6M0,0V-4m3,0h-6"></path>
     </g>
     <g transform="translate(72,640)">
      <path style="stroke: black; stroke-width: 1; fill: none;" d="M0,0H-5m0,3v-6M0,0H5m0,3v-6M0,0V-4m3,0h-6"></path>
     </g>
     <g transform="translate(82,640)">
      <path style="stroke: black; stroke-width: 1; fill: none;" d="M0,0H-5m0,3v-6M0,0H5m0,3v-6M0,0V-4m3,0h-6"></path>
     </g>
     <g transform="translate(91,640)">
      <path style="stroke: black; stroke-width: 1; fill: none;" d="M0,0H-5m0,3v-6M0,0H5m0,3v-6M0,0V-4m3,0h-6"></path>
     </g>
     <g transform="translate(101,640)">
      <path style="stroke: black; stroke-width: 1; fill: none;" d="M0,0H-5m0,3v-6M0,0H5m0,3v-6M0,0V-4m3,0h-6"></path>
     </g>
     <g transform="translate(110,640)">
      <path style="stroke: black; stroke-width: 1; fill: none;" d="M0,0H-5m0,3v-6M0,0H5m0,3v-6M0,0V-4m3,0h-6"></path>
     </g>
     <g transform="translate(120,640)">
      <path style="stroke: black; stroke-width: 1; fill: none;" d="M0,0H-5m0,3v-6M0,0H5m0,3v-6M0,0V-4m3,0h-6"></path>
     </g>
     <g transform="translate(130,637)">
      <path style="stroke: black; stroke-width: 1; fill: none;" d="M0,0H-5m0,3v-6M0,0H5m0,3v-6M0,0V3m3,0h-6M0,0V-7m3,0h-6"></path>
     </g>
     <g transform="translate(139,640)">
      <path style="stroke: black; stroke-width: 1; fill: none;" d="M0,0H-5m0,3v-6M0,0H5m0,3v-6M0,0V-4m3,0h-6"></path>
     </g>
     <g transform="translate(149,640)">
      <path style="stroke: black; stroke-width: 1; fill: none;" d="M0,0H-5m0,3v-6M0,0H5m0,3v-6M0,0V-4m3,0h-6"></path>
     </g>
     <g transform="translate(158,640)">
      <path style="stroke: black; stroke-width: 1; fill: none;" d="M0,0H-5m0,3v-6M0,0H5m0,3v-6M0,0V-4m3,0h-6"></path>
     </g>
     <g transform="translate(168,640)">
      <path style="stroke: black; stroke-width: 1; fill: none;" d="M0,0H-5m0,3v-6M0,0H5m0,3v-6M0,0V-4m3,0h-6"></path>
     </g>
     <g transform="translate(178,637)">
      <path style="stroke: black; stroke-width: 1; fill: none;" d="M0,0H-5m0,3v-6M0,0H5m0,3v-6M0,0V3m3,0h-6M0,0V-7m3,0h-6"></path>
     </g>
     <g transform="translate(187,640)">
      <path style="stroke: black; stroke-width: 1; fill: none;" d="M0,0H-5m0,3v-6M0,0H5m0,3v-6M0,0V-4m3,0h-6"></path>
     </g>
     <g transform="translate(197,640)">
      <path style="stroke: black; stroke-width: 1; fill: none;" d="M0,0H-5m0,3v-6M0,0H5m0,3v-6M0,0V-4m3,0h-6"></path>
     </g>
     <g transform="translate(206,640)">
      <path style="stroke: black; stroke-width: 1; fill: none;" d="M0,0H-5m0,3v-6M0,0H5m0,3v-6M0,0V-4m3,0h-6"></path>
     </g>
     <g transform="translate(216,637)">
      <path style="stroke: black; stroke-width: 1; fill: none;" d="M0,0H-5m0,3v-6M0,0H5m0,3v-6M0,0V3m3,0h-6M0,0V-7m3,0h-6"></path>
     </g>
     <g transform="translate(226,640)">
      <path style="stroke: black; stroke-width: 1; fill: none;" d="M0,0H-5m0,3v-6M0,0H5m0,3v-6M0,0V-4m3,0h-6"></path>
     </g>
     <g transform="translate(235,640)">
      <path style="stroke: black; stroke-width: 1; fill: none;" d="M0,0H-5m0,3v-6M0,0H5m0,3v-6M0,0V-4m3,0h-6"></path>
     </g>
     <g transform="translate(245,634)">
      <path style="stroke: black; stroke-width: 1; fill: none;" d="M0,0H-5m0,3v-6M0,0H5m0,3v-6M0,0V4m3,0h-6M0,0V-8m3,0h-6"></path>
     </g>
     <g transform="translate(254,621)">
      <path style="stroke: black; stroke-width: 1; fill: none;" d="M0,0H-5m0,3v-6M0,0H5m0,3v-6M0,0V8m3,0h-6M0,0V-11m3,0h-6"></path>
     </g>
     <g transform="translate(264,618)">
      <path style="stroke: black; stroke-width: 1; fill: none;" d="M0,0H-5m0,3v-6M0,0H5m0,3v-6M0,0V8m3,0h-6M0,0V-12m3,0h-6"></path>
     </g>
     <g transform="translate(274,627)">
      <path style="stroke: black; stroke-width: 1; fill: none;" d="M0,0H-5m0,3v-6M0,0H5m0,3v-6M0,0V6m3,0h-6M0,0V-10m3,0h-6"></path>
     </g>
     <g transform="translate(283,602)">
      <path style="stroke: black; stroke-width: 1; fill: none;" d="M0,0H-5m0,3v-6M0,0H5m0,3v-6M0,0V11m3,0h-6M0,0V-15m3,0h-6"></path>
     </g>
     <g transform="translate(293,586)">
      <path style="stroke: black; stroke-width: 1; fill: none;" d="M0,0H-5m0,3v-6M0,0H5m0,3v-6M0,0V13m3,0h-6M0,0V-17m3,0h-6"></path>
     </g>
     <g transform="translate(302,554)">
      <path style="stroke: black; stroke-width: 1; fill: none;" d="M0,0H-5m0,3v-6M0,0H5m0,3v-6M0,0V16m3,0h-6M0,0V-20m3,0h-6"></path>
     </g>
     <g transform="translate(312,557)">
      <path style="stroke: black; stroke-width: 1; fill: none;" d="M0,0H-5m0,3v-6M0,0H5m0,3v-6M0,0V16m3,0h-6M0,0V-20m3,0h-6"></path>
     </g>
     <g transform="translate(322,535)">
      <path style="stroke: black; stroke-width: 1; fill: none;" d="M0,0H-5m0,3v-6M0,0H5m0,3v-6M0,0V18m3,0h-6M0,0V-22m3,0h-6"></path>
     </g>
     <g transform="translate(331,464)">
      <path style="stroke: black; stroke-width: 1; fill: none;" d="M0,0H-5m0,3v-6M0,0H5m0,3v-6M0,0V24m3,0h-6M0,0V-27m3,0h-6"></path>
     </g>
     <g transform="translate(341,429)">
      <path style="stroke: black; stroke-width: 1; fill: none;" d="M0,0H-5m0,3v-6M0,0H5m0,3v-6M0,0V26m3,0h-6M0,0V-29m3,0h-6"></path>
     </g>
     <g transform="translate(350,458)">
      <path style="stroke: black; stroke-width: 1; fill: none;" d="M0,0H-5m0,3v-6M0,0H5m0,3v-6M0,0V24m3,0h-6M0,0V-27m3,0h-6"></path>
     </g>
     <g transform="translate(360,311)">
      <path style="stroke: black; stroke-width: 1; fill: none;" d="M0,0H-5m0,3v-6M0,0H5m0,3v-6M0,0V31m3,0h-6M0,0V-34m3,0h-6"></path>
     </g>
     <g transform="translate(370,321)">
      <path style="stroke: black; stroke-width: 1; fill: none;" d="M0,0H-5m0,3v-6M0,0H5m0,3v-6M0,0V32m3,0h-6M0,0V-35m3,0h-6"></path>
     </g>
     <g transform="translate(379,234)">
      <path style="stroke: black; stroke-width: 1; fill: none;" d="M0,0H-5m0,3v-6M0,0H5m0,3v-6M0,0V34m3,0h-6M0,0V-38m3,0h-6"></path>
     </g>
     <g transform="translate(389,289)">
      <path style="stroke: black; stroke-width: 1; fill: none;" d="M0,0H-5m0,3v-6M0,0H5m0,3v-6M0,0V32m3,0h-6M0,0V-35m3,0h-6"></path>
     </g>
     <g transform="translate(398,75)">
      <path style="stroke: black; stroke-width: 1; fill: none;" d="M0,0H-5m0,3v-6M0,0H5m0,3v-6M0,0V41m3,0h-6M0,0V-44m3,0h-6"></path>
     </g>
     <g transform="translate(408,161)">
      <path style="stroke: black; stroke-width: 1; fill: none;" d="M0,0H-5m0,3v-6M0,0H5m0,3v-6M0,0V38m3,0h-6M0,0V-41m3,0h-6"></path>
     </g>
     <g transform="translate(418,119)">
      <path style="stroke: black; stroke-width: 1; fill: none;" d="M0,0H-5m0,3v-6M0,0H5m0,3v-6M0,0V39m3,0h-6M0,0V-42m3,0h-6"></path>
     </g>
     <g transform="translate(427,78)">
      <path style="stroke: black; stroke-width: 1; fill: none;" d="M0,0H-5m0,3v-6M0,0H5m0,3v-6M0,0V41m3,0h-6M0,0V-44m3,0h-6"></path>
     </g>
     <g transform="translate(437,183)">
      <path style="stroke: black; stroke-width: 1; fill: none;" d="M0,0H-5m0,3v-6M0,0H5m0,3v-6M0,0V37m3,0h-6M0,0V-40m3,0h-6"></path>
     </g>
     <g transform="translate(446,183)">
      <path style="stroke: black; stroke-width: 1; fill: none;" d="M0,0H-5m0,3v-6M0,0H5m0,3v-6M0,0V37m3,0h-6M0,0V-40m3,0h-6"></path>
     </g>
     <g transform="translate(456,301)">
      <path style="stroke: black; stroke-width: 1; fill: none;" d="M0,0H-5m0,3v-6M0,0H5m0,3v-6M0,0V31m3,0h-6M0,0V-35m3,0h-6"></path>
     </g>
     <g transform="translate(466,400)">
      <path style="stroke: black; stroke-width: 1; fill: none;" d="M0,0H-5m0,3v-6M0,0H5m0,3v-6M0,0V28m3,0h-6M0,0V-31m3,0h-6"></path>
     </g>
     <g transform="translate(475,381)">
      <path style="stroke: black; stroke-width: 1; fill: none;" d="M0,0H-5m0,3v-6M0,0H5m0,3v-6M0,0V29m3,0h-6M0,0V-32m3,0h-6"></path>
     </g>
     <g transform="translate(485,413)">
      <path style="stroke: black; stroke-width: 1; fill: none;" d="M0,0H-5m0,3v-6M0,0H5m0,3v-6M0,0V27m3,0h-6M0,0V-30m3,0h-6"></path>
     </g>
     <g transform="translate(494,359)">
      <path style="stroke: black; stroke-width: 1; fill: none;" d="M0,0H-5m0,3v-6M0,0H5m0,3v-6M0,0V30m3,0h-6M0,0V-33m3,0h-6"></path>
     </g>
     <g transform="translate(504,269)">
      <path style="stroke: black; stroke-width: 1; fill: none;" d="M0,0H-5m0,3v-6M0,0H5m0,3v-6M0,0V33m3,0h-6M0,0V-36m3,0h-6"></path>
     </g>
     <g transform="translate(514,241)">
      <path style="stroke: black; stroke-width: 1; fill: none;" d="M0,0H-5m0,3v-6M0,0H5m0,3v-6M0,0V34m3,0h-6M0,0V-37m3,0h-6"></path>
     </g>
     <g transform="translate(523,132)">
      <path style="stroke: black; stroke-width: 1; fill: none;" d="M0,0H-5m0,3v-6M0,0H5m0,3v-6M0,0V39m3,0h-6M0,0V-42m3,0h-6"></path>
     </g>
     <g transform="translate(533,148)">
      <path style="stroke: black; stroke-width: 1; fill: none;" d="M0,0H-5m0,3v-6M0,0H5m0,3v-6M0,0V38m3,0h-6M0,0V-41m3,0h-6"></path>
     </g>
     <g transform="translate(542,116)">
      <path style="stroke: black; stroke-width: 1; fill: none;" d="M0,0H-5m0,3v-6M0,0H5m0,3v-6M0,0V39m3,0h-6M0,0V-43m3,0h-6"></path>
     </g>
     <g transform="translate(552,107)">
      <path style="stroke: black; stroke-width: 1; fill: none;" d="M0,0H-5m0,3v-6M0,0H5m0,3v-6M0,0V40m3,0h-6M0,0V-43m3,0h-6"></path>
     </g>
     <g transform="translate(562,170)">
      <path style="stroke: black; stroke-width: 1; fill: none;" d="M0,0H-5m0,3v-6M0,0H5m0,3v-6M0,0V37m3,0h-6M0,0V-40m3,0h-6"></path>
     </g>
     <g transform="translate(571,222)">
      <path style="stroke: black; stroke-width: 1; fill: none;" d="M0,0H-5m0,3v-6M0,0H5m0,3v-6M0,0V35m3,0h-6M0,0V-38m3,0h-6"></path>
     </g>
     <g transform="translate(581,311)">
      <path style="stroke: black; stroke-width: 1; fill: none;" d="M0,0H-5m0,3v-6M0,0H5m0,3v-6M0,0V31m3,0h-6M0,0V-34m3,0h-6"></path>
     </g>
     <g transform="translate(590,305)">
      <path style="stroke: black; stroke-width: 1; fill: none;" d="M0,0H-5m0,3v-6M0,0H5m0,3v-6M0,0V31m3,0h-6M0,0V-34m3,0h-6"></path>
     </g>
     <g transform="translate(600,384)">
      <path style="stroke: black; stroke-width: 1; fill: none;" d="M0,0H-5m0,3v-6M0,0H5m0,3v-6M0,0V29m3,0h-6M0,0V-32m3,0h-6"></path>
     </g>
     <g transform="translate(610,410)">
      <path style="stroke: black; stroke-width: 1; fill: none;" d="M0,0H-5m0,3v-6M0,0H5m0,3v-6M0,0V27m3,0h-6M0,0V-30m3,0h-6"></path>
     </g>
     <g transform="translate(619,448)">
      <path style="stroke: black; stroke-width: 1; fill: none;" d="M0,0H-5m0,3v-6M0,0H5m0,3v-6M0,0V25m3,0h-6M0,0V-28m3,0h-6"></path>
     </g>
     <g transform="translate(629,512)">
      <path style="stroke: black; stroke-width: 1; fill: none;" d="M0,0H-5m0,3v-6M0,0H5m0,3v-6M0,0V20m3,0h-6M0,0V-24m3,0h-6"></path>
     </g>
     <g transform="translate(638,509)">
      <path style="stroke: black; stroke-width: 1; fill: none;" d="M0,0H-5m0,3v-6M0,0H5m0,3v-6M0,0V20m3,0h-6M0,0V-24m3,0h-6"></path>
     </g>
     <g transform="translate(648,567)">
      <path style="stroke: black; stroke-width: 1; fill: none;" d="M0,0H-5m0,3v-6M0,0H5m0,3v-6M0,0V15m3,0h-6M0,0V-19m3,0h-6"></path>
     </g>
     <g transform="translate(658,583)">
      <path style="stroke: black; stroke-width: 1; fill: none;" d="M0,0H-5m0,3v-6M0,0H5m0,3v-6M0,0V13m3,0h-6M0,0V-17m3,0h-6"></path>
     </g>
     <g transform="translate(667,583)">
      <path style="stroke: black; stroke-width: 1; fill: none;" d="M0,0H-5m0,3v-6M0,0H5m0,3v-6M0,0V13m3,0h-6M0,0V-17m3,0h-6"></path>
     </g>
     <g transform="translate(677,614)">
      <path style="stroke: black; stroke-width: 1; fill: none;" d="M0,0H-5m0,3v-6M0,0H5m0,3v-6M0,0V9m3,0h-6M0,0V-13m3,0h-6"></path>
     </g>
     <g transform="translate(686,627)">
      <path style="stroke: black; stroke-width: 1; fill: none;" d="M0,0H-5m0,3v-6M0,0H5m0,3v-6M0,0V6m3,0h-6M0,0V-10m3,0h-6"></path>
     </g>
     <g transform="translate(696,634)">
      <path style="stroke: black; stroke-width: 1; fill: none;" d="M0,0H-5m0,3v-6M0,0H5m0,3v-6M0,0V4m3,0h-6M0,0V-8m3,0h-6"></path>
     </g>
     <g transform="translate(706,634)">
      <path style="stroke: black; stroke-width: 1; fill: none;" d="M0,0H-5m0,3v-6M0,0H5m0,3v-6M0,0V4m3,0h-6M0,0V-8m3,0h-6"></path>
     </g>
     <g transform="translate(715,637)">
      <path style="stroke: black; stroke-width: 1; fill: none;" d="M0,0H-5m0,3v-6M0,0H5m0,3v-6M0,0V3m3,0h-6M0,0V-7m3,0h-6"></path>
     </g>
     <g transform="translate(725,630)">
      <path style="stroke: black; stroke-width: 1; fill: none;" d="M0,0H-5m0,3v-6M0,0H5m0,3v-6M0,0V5m3,0h-6M0,0V-9m3,0h-6"></path>
     </g>
     <g transform="translate(734,637)">
      <path style="stroke: black; stroke-width: 1; fill: none;" d="M0,0H-5m0,3v-6M0,0H5m0,3v-6M0,0V3m3,0h-6M0,0V-7m3,0h-6"></path>
     </g>
     <g transform="translate(744,637)">
      <path style="stroke: black; stroke-width: 1; fill: none;" d="M0,0H-5m0,3v-6M0,0H5m0,3v-6M0,0V3m3,0h-6M0,0V-7m3,0h-6"></path>
     </g>
     <g transform="translate(754,637)">
      <path style="stroke: black; stroke-width: 1; fill: none;" d="M0,0H-5m0,3v-6M0,0H5m0,3v-6M0,0V3m3,0h-6M0,0V-7m3,0h-6"></path>
     </g>
     <g transform="translate(763,640)">
      <path style="stroke: black; stroke-width: 1; fill: none;" d="M0,0H-5m0,3v-6M0,0H5m0,3v-6M0,0V-4m3,0h-6"></path>
     </g>
     <g transform="translate(773,640)">
      <path style="stroke: black; stroke-width: 1; fill: none;" d="M0,0H-5m0,3v-6M0,0H5m0,3v-6M0,0V-4m3,0h-6"></path>
     </g>
     <g transform="translate(782,640)">
      <path style="stroke: black; stroke-width: 1; fill: none;" d="M0,0H-5m0,3v-6M0,0H5m0,3v-6M0,0V-4m3,0h-6"></path>
     </g>
     <g transform="translate(792,640)">
      <path style="stroke: black; stroke-width: 1; fill: none;" d="M0,0H-5m0,3v-6M0,0H5m0,3v-6M0,0V-4m3,0h-6"></path>
     </g>
     <g transform="translate(802,640)">
      <path style="stroke: black; stroke-width: 1; fill: none;" d="M0,0H-5m0,3v-6M0,0H5m0,3v-6M0,0V-4m3,0h-6"></path>
     </g>
     <g transform="translate(811,640)">
      <path style="stroke: black; stroke-width: 1; fill: none;" d="M0,0H-5m0,3v-6M0,0H5m0,3v-6M0,0V-4m3,0h-6"></path>
     </g>
     <g transform="translate(821,640)">
      <path style="stroke: black; stroke-width: 1; fill: none;" d="M0,0H-5m0,3v-6M0,0H5m0,3v-6M0,0V-4m3,0h-6"></path>
     </g>
     <g transform="translate(830,640)">
      <path style="stroke: black; stroke-width: 1; fill: none;" d="M0,0H-5m0,3v-6M0,0H5m0,3v-6M0,0V-4m3,0h-6"></path>
     </g>
     <g transform="translate(840,640)">
      <path style="stroke: black; stroke-width: 1; fill: none;" d="M0,0H-5m0,3v-6M0,0H5m0,3v-6M0,0V-4m3,0h-6"></path>
     </g>
     <g transform="translate(850,640)">
      <path style="stroke: black; stroke-width: 1; fill: none;" d="M0,0H-5m0,3v-6M0,0H5m0,3v-6M0,0V-4m3,0h-6"></path>
     </g>
     <g transform="translate(859,640)">
      <path style="stroke: black; stroke-width: 1; fill: none;" d="M0,0H-5m0,3v-6M0,0H5m0,3v-6M0,0V-4m3,0h-6"></path>
     </g>
     <g transform="translate(869,640)">
      <path style="stroke: black; stroke-width: 1; fill: none;" d="M0,0H-5m0,3v-6M0,0H5m0,3v-6M0,0V-4m3,0h-6"></path>
     </g>
     <g transform="translate(878,640)">
      <path style="stroke: black; stroke-width: 1; fill: none;" d="M0,0H-5m0,3v-6M0,0H5m0,3v-6M0,0V-4m3,0h-6"></path>
     </g>
     <g transform="translate(888,640)">
      <path style="stroke: black; stroke-width: 1; fill: none;" d="M0,0H-5m0,3v-6M0,0H5m0,3v-6M0,0V-4m3,0h-6"></path>
     </g>
     <g transform="translate(898,640)">
      <path style="stroke: black; stroke-width: 1; fill: none;" d="M0,0H-5m0,3v-6M0,0H5m0,3v-6M0,0V-4m3,0h-6"></path>
     </g>
     <g transform="translate(907,640)">
      <path style="stroke: black; stroke-width: 1; fill: none;" d="M0,0H-5m0,3v-6M0,0H5m0,3v-6M0,0V-4m3,0h-6"></path>
     </g>
     <g transform="translate(917,640)">
      <path style="stroke: black; stroke-width: 1; fill: none;" d="M0,0H-5m0,3v-6M0,0H5m0,3v-6M0,0V-4m3,0h-6"></path>
     </g>
     <g transform="translate(926,640)">
      <path style="stroke: black; stroke-width: 1; fill: none;" d="M0,0H-5m0,3v-6M0,0H5m0,3v-6M0,0V-4m3,0h-6"></path>
     </g>
     <g transform="translate(936,640)">
      <path style="stroke: black; stroke-width: 1; fill: none;" d="M0,0H-5m0,3v-6M0,0H5m0,3v-6M0,0V-4m3,0h-6"></path>
     </g>
     <g transform="translate(946,640)">
      <path style="stroke: black; stroke-width: 1; fill: none;" d="M0,0H-5m0,3v-6M0,0H5m0,3v-6M0,0V-4m3,0h-6"></path>
     </g>
     <g transform="translate(955,640)">
      <path style="stroke: black; stroke-width: 1; fill: none;" d="M0,0H-5m0,3v-6M0,0H5m0,3v-6M0,0V-4m3,0h-6"></path>
     </g>
     <path d="M1,640a4,4,0,1,0,8,0a4,4,0,1,0,-8,0zM10,640a4,4,0,1,0,8,0a4,4,0,1,0,-8,0zM20,640a4,4,0,1,0,8,0a4,4,0,1,0,-8,0zM30,640a4,4,0,1,0,8,0a4,4,0,1,0,-8,0zM39,640a4,4,0,1,0,8,0a4,4,0,1,0,-8,0zM49,640a4,4,0,1,0,8,0a4,4,0,1,0,-8,0zM58,640a4,4,0,1,0,8,0a4,4,0,1,0,-8,0zM68,640a4,4,0,1,0,8,0a4,4,0,1,0,-8,0zM78,640a4,4,0,1,0,8,0a4,4,0,1,0,-8,0zM87,640a4,4,0,1,0,8,0a4,4,0,1,0,-8,0zM97,640a4,4,0,1,0,8,0a4,4,0,1,0,-8,0zM106,640a4,4,0,1,0,8,0a4,4,0,1,0,-8,0zM116,640a4,4,0,1,0,8,0a4,4,0,1,0,-8,0zM126,637a4,4,0,1,0,8,0a4,4,0,1,0,-8,0zM135,640a4,4,0,1,0,8,0a4,4,0,1,0,-8,0zM145,640a4,4,0,1,0,8,0a4,4,0,1,0,-8,0zM154,640a4,4,0,1,0,8,0a4,4,0,1,0,-8,0zM164,640a4,4,0,1,0,8,0a4,4,0,1,0,-8,0zM174,637a4,4,0,1,0,8,0a4,4,0,1,0,-8,0zM183,640a4,4,0,1,0,8,0a4,4,0,1,0,-8,0zM193,640a4,4,0,1,0,8,0a4,4,0,1,0,-8,0zM202,640a4,4,0,1,0,8,0a4,4,0,1,0,-8,0zM212,637a4,4,0,1,0,8,0a4,4,0,1,0,-8,0zM222,640a4,4,0,1,0,8,0a4,4,0,1,0,-8,0zM231,640a4,4,0,1,0,8,0a4,4,0,1,0,-8,0zM241,634a4,4,0,1,0,8,0a4,4,0,1,0,-8,0zM250,621a4,4,0,1,0,8,0a4,4,0,1,0,-8,0zM260,618a4,4,0,1,0,8,0a4,4,0,1,0,-8,0zM270,627a4,4,0,1,0,8,0a4,4,0,1,0,-8,0zM279,602a4,4,0,1,0,8,0a4,4,0,1,0,-8,0zM289,586a4,4,0,1,0,8,0a4,4,0,1,0,-8,0zM298,554a4,4,0,1,0,8,0a4,4,0,1,0,-8,0zM308,557a4,4,0,1,0,8,0a4,4,0,1,0,-8,0zM318,535a4,4,0,1,0,8,0a4,4,0,1,0,-8,0zM327,464a4,4,0,1,0,8,0a4,4,0,1,0,-8,0zM337,429a4,4,0,1,0,8,0a4,4,0,1,0,-8,0zM346,458a4,4,0,1,0,8,0a4,4,0,1,0,-8,0zM356,311a4,4,0,1,0,8,0a4,4,0,1,0,-8,0zM366,321a4,4,0,1,0,8,0a4,4,0,1,0,-8,0zM375,234a4,4,0,1,0,8,0a4,4,0,1,0,-8,0zM385,289a4,4,0,1,0,8,0a4,4,0,1,0,-8,0zM394,75a4,4,0,1,0,8,0a4,4,0,1,0,-8,0zM404,161a4,4,0,1,0,8,0a4,4,0,1,0,-8,0zM414,119a4,4,0,1,0,8,0a4,4,0,1,0,-8,0zM423,78a4,4,0,1,0,8,0a4,4,0,1,0,-8,0zM433,183a4,4,0,1,0,8,0a4,4,0,1,0,-8,0zM442,183a4,4,0,1,0,8,0a4,4,0,1,0,-8,0zM452,301a4,4,0,1,0,8,0a4,4,0,1,0,-8,0zM462,400a4,4,0,1,0,8,0a4,4,0,1,0,-8,0zM471,381a4,4,0,1,0,8,0a4,4,0,1,0,-8,0zM481,413a4,4,0,1,0,8,0a4,4,0,1,0,-8,0zM490,359a4,4,0,1,0,8,0a4,4,0,1,0,-8,0zM500,269a4,4,0,1,0,8,0a4,4,0,1,0,-8,0zM510,241a4,4,0,1,0,8,0a4,4,0,1,0,-8,0zM519,132a4,4,0,1,0,8,0a4,4,0,1,0,-8,0zM529,148a4,4,0,1,0,8,0a4,4,0,1,0,-8,0zM538,116a4,4,0,1,0,8,0a4,4,0,1,0,-8,0zM548,107a4,4,0,1,0,8,0a4,4,0,1,0,-8,0zM558,170a4,4,0,1,0,8,0a4,4,0,1,0,-8,0zM567,222a4,4,0,1,0,8,0a4,4,0,1,0,-8,0zM577,311a4,4,0,1,0,8,0a4,4,0,1,0,-8,0zM586,305a4,4,0,1,0,8,0a4,4,0,1,0,-8,0zM596,384a4,4,0,1,0,8,0a4,4,0,1,0,-8,0zM606,410a4,4,0,1,0,8,0a4,4,0,1,0,-8,0zM615,448a4,4,0,1,0,8,0a4,4,0,1,0,-8,0zM625,512a4,4,0,1,0,8,0a4,4,0,1,0,-8,0zM634,509a4,4,0,1,0,8,0a4,4,0,1,0,-8,0zM644,567a4,4,0,1,0,8,0a4,4,0,1,0,-8,0zM654,583a4,4,0,1,0,8,0a4,4,0,1,0,-8,0zM663,583a4,4,0,1,0,8,0a4,4,0,1,0,-8,0zM673,614a4,4,0,1,0,8,0a4,4,0,1,0,-8,0zM682,627a4,4,0,1,0,8,0a4,4,0,1,0,-8,0zM692,634a4,4,0,1,0,8,0a4,4,0,1,0,-8,0zM702,634a4,4,0,1,0,8,0a4,4,0,1,0,-8,0zM711,637a4,4,0,1,0,8,0a4,4,0,1,0,-8,0zM721,630a4,4,0,1,0,8,0a4,4,0,1,0,-8,0zM730,637a4,4,0,1,0,8,0a4,4,0,1,0,-8,0zM740,637a4,4,0,1,0,8,0a4,4,0,1,0,-8,0zM750,637a4,4,0,1,0,8,0a4,4,0,1,0,-8,0zM759,640a4,4,0,1,0,8,0a4,4,0,1,0,-8,0zM769,640a4,4,0,1,0,8,0a4,4,0,1,0,-8,0zM778,640a4,4,0,1,0,8,0a4,4,0,1,0,-8,0zM788,640a4,4,0,1,0,8,0a4,4,0,1,0,-8,0zM798,640a4,4,0,1,0,8,0a4,4,0,1,0,-8,0zM807,640a4,4,0,1,0,8,0a4,4,0,1,0,-8,0zM817,640a4,4,0,1,0,8,0a4,4,0,1,0,-8,0zM826,640a4,4,0,1,0,8,0a4,4,0,1,0,-8,0zM836,640a4,4,0,1,0,8,0a4,4,0,1,0,-8,0zM846,640a4,4,0,1,0,8,0a4,4,0,1,0,-8,0zM855,640a4,4,0,1,0,8,0a4,4,0,1,0,-8,0zM865,640a4,4,0,1,0,8,0a4,4,0,1,0,-8,0zM874,640a4,4,0,1,0,8,0a4,4,0,1,0,-8,0zM884,640a4,4,0,1,0,8,0a4,4,0,1,0,-8,0zM894,640a4,4,0,1,0,8,0a4,4,0,1,0,-8,0zM903,640a4,4,0,1,0,8,0a4,4,0,1,0,-8,0zM913,640a4,4,0,1,0,8,0a4,4,0,1,0,-8,0zM922,640a4,4,0,1,0,8,0a4,4,0,1,0,-8,0zM932,640a4,4,0,1,0,8,0a4,4,0,1,0,-8,0zM942,640a4,4,0,1,0,8,0a4,4,0,1,0,-8,0zM951,640a4,4,0,1,0,8,0a4,4,0,1,0,-8,0z" style="stroke: black; fill: black;"></path>
    </g>
    <g objname="bmix_Int%5BtagFlav%5D_Norm%5Bdt,mixState,tagFlav%5D_Slice%5BmixState%5D" objtype="RooCurve">
     <path d="M-10,640h202l10,-1h9l10,-1l9,-2l10,-2l10,-4l9,-4l10,-7l9,-9l10,-11l10,-15l4,-9l5,-10l5,-11l5,-13l5,-13l4,-15l5,-17l5,-18l5,-19l5,-21l4,-22l5,-23l10,-50l9,-53l10,-52l5,-26l5,-23l4,-22l5,-19l5,-16l2,-6l3,-5l2,-4l3,-3l2,-1l2,1l3,2l2,3l3,5l2,7l2,9l3,11l2,12l3,14l2,15l2,17l3,18l2,20l10,82l2,20l3,18l2,16l2,12l2,5l1,4l1,2l1,1l1,-1l2,-2l2,-11l2,11l2,2l1,1l1,-1l1,-2l1,-4l2,-5l2,-12l2,-16l3,-18l2,-20l10,-82l2,-20l3,-18l2,-17l2,-15l3,-14l2,-12l3,-11l2,-9l2,-7l3,-5l2,-3l3,-2l2,-1l2,1l3,3l2,4l3,5l2,6l5,16l5,19l4,22l5,23l5,26l10,52l9,53l10,50l5,23l4,22l5,21l5,19l5,18l5,17l4,15l5,13l5,13l5,11l5,10l4,9l10,15l10,11l9,9l10,7l9,4l10,4l10,2l9,2l10,1h9l10,1h202" style="stroke: rgb(0,0,255); stroke-width: 3; fill: none;"></path>
    </g>
   </g>
   <g>
    <g transform="translate(0,640)">
     <path d="M0,0h960" style="stroke: black; stroke-width: 1;"></path>
     <path d="M0,-24v24m24,-12v12m24,-12v12m24,-12v12m24,-12v12m24,-24v24m24,-12v12m24,-12v12m24,-12v12m24,-12v12m24,-24v24m24,-12v12m24,-12v12m24,-12v12m24,-12v12m24,-24v24m24,-12v12m24,-12v12m24,-12v12m24,-12v12m24,-24v24m24,-12v12m24,-12v12m24,-12v12m24,-12v12m24,-24v24m24,-12v12m24,-12v12m24,-12v12m24,-12v12m24,-24v24m24,-12v12m24,-12v12m24,-12v12m24,-12v12m24,-24v24m24,-12v12m24,-12v12m24,-12v12m24,-12v12m24,-24v24" style="stroke: black; stroke-width: 1;"></path>
     <g font-family="Arial" font-size="28" space="preserve">
      <text fill="black" text-anchor="middle" dy=".8em" transform="translate(0,6)">
       -20
      </text>
      <text fill="black" text-anchor="middle" dy=".8em" transform="translate(120,6)">
       -15
      </text>
      <text fill="black" text-anchor="middle" dy=".8em" transform="translate(240,6)">
       -10
      </text>
      <text fill="black" text-anchor="middle" dy=".8em" transform="translate(360,6)">
       -5
      </text>
      <text fill="black" text-anchor="middle" dy=".8em" transform="translate(480,6)">
       0
      </text>
      <text fill="black" text-anchor="middle" dy=".8em" transform="translate(600,6)">
       5
      </text>
      <text fill="black" text-anchor="middle" dy=".8em" transform="translate(720,6)">
       10
      </text>
      <text fill="black" text-anchor="middle" dy=".8em" transform="translate(840,6)">
       15
      </text>
      <text fill="black" text-anchor="middle" dy=".8em" transform="translate(960,6)">
       20
      </text>
     </g>
     <g font-family="Arial" font-size="28" space="preserve" transform="translate(960,45)">
      <text fill="black" text-anchor="end" dy=".4em">
       dt
      </text>
     </g>
    </g>
    <g>
     <path d="M0,0v640" style="stroke: black; stroke-width: 1;"></path>
     <path d="M36,640h-36m18,-16h-18m18,-16h-18m18,-16h-18m36,-16h-36m18,-16h-18m18,-16h-18m18,-16h-18m36,-16h-36m18,-16h-18m18,-16h-18m18,-16h-18m36,-16h-36m18,-16h-18m18,-16h-18m18,-16h-18m36,-16h-36m18,-16h-18m18,-15h-18m18,-16h-18m36,-16h-36m18,-16h-18m18,-16h-18m18,-16h-18m36,-16h-36m18,-16h-18m18,-16h-18m18,-16h-18m36,-16h-36m18,-16h-18m18,-16h-18m18,-16h-18m36,-16h-36m18,-16h-18m18,-16h-18m18,-16h-18m36,-16h-36m18,-16h-18m18,-16h-18m18,-16h-18m36,-16h-36" style="stroke: black; stroke-width: 1;"></path>
     <g font-family="Arial" font-size="28" space="preserve">
      <text fill="black" text-anchor="end" dy=".4em" transform="translate(-4,640)">
       0
      </text>
      <text fill="black" text-anchor="end" dy=".4em" transform="translate(-4,576)">
       20
      </text>
      <text fill="black" text-anchor="end" dy=".4em" transform="translate(-4,512)">
       40
      </text>
      <text fill="black" text-anchor="end" dy=".4em" transform="translate(-4,448)">
       60
      </text>
      <text fill="black" text-anchor="end" dy=".4em" transform="translate(-4,384)">
       80
      </text>
      <text fill="black" text-anchor="end" dy=".4em" transform="translate(-4,321)">
       100
      </text>
      <text fill="black" text-anchor="end" dy=".4em" transform="translate(-4,257)">
       120
      </text>
      <text fill="black" text-anchor="end" dy=".4em" transform="translate(-4,193)">
       140
      </text>
      <text fill="black" text-anchor="end" dy=".4em" transform="translate(-4,129)">
       160
      </text>
      <text fill="black" text-anchor="end" dy=".4em" transform="translate(-4,65)">
       180
      </text>
      <text fill="black" text-anchor="end" dy=".4em" transform="translate(-4,1)">
       200
      </text>
     </g>
     <g font-family="Arial" font-size="28" space="preserve" transform="translate(-67,0)">
      <text fill="black" text-anchor="end" dy=".4em" transform=" rotate(270)">
       Events / ( 0.4 )
      </text>
     </g>
    </g>
   </g>
  </g>
  <g transform="translate(120,4)" font-family="Arial" font-size="40" space="preserve">
   <path d="M0,0H960V53H0Z" style="fill: none;"></path>
   <text fill="black" text-anchor="middle" dy=".8em" transform="translate(480)">
    Decay distribution of mixed events
   </text>
  </g>
 </g>
</svg>