<svg xmlns="http://www.w3.org/2000/svg" viewBox="0 0 1200 800" preserveAspectRatio="none" width="1200" height="800"><title>ROOT canvas</title><rect x="0" y="0" width="1200" height="800" style="fill: none;"></rect><g><g transform="translate(120,80)"><title></title><rect x="0" y="0" width="960" height="640" style="fill: white; stroke: black; stroke-width: 1;"></rect><svg x="0" y="0" overflow="hidden" width="960" height="640" viewBox="0 0 960 640"><g objname="frame_135a9060" objtype="TH1D"><path d="M0,30h10v610h950" style="stroke-linejoin: miter; stroke: rgb(0,0,154); stroke-width: 1; fill: none;"></path></g><g objname="h_gaussData" objtype="RooHist"><g transform="translate(5,640)"><path style="stroke: black; stroke-width: 1; fill: none;" d="M0,0L-5,0m0,3v-6M0,0L5,0m0,3v-6M0,0L0,-2m3,0h-6"></path></g><g transform="translate(14,640)"><path style="stroke: black; stroke-width: 1; fill: none;" d="M0,0L-5,0m0,3v-6M0,0L5,0m0,3v-6M0,0L0,-2m3,0h-6"></path></g><g transform="translate(24,640)"><path style="stroke: black; stroke-width: 1; fill: none;" d="M0,0L-5,0m0,3v-6M0,0L5,0m0,3v-6M0,0L0,-2m3,0h-6"></path></g><g transform="translate(34,638)"><path style="stroke: black; stroke-width: 1; fill: none;" d="M0,0L-5,0m0,3v-6M0,0L5,0m0,3v-6M0,0L0,2m3,0h-6M0,0L0,-4m3,0h-6"></path></g><g transform="translate(43,640)"><path style="stroke: black; stroke-width: 1; fill: none;" d="M0,0L-5,0m0,3v-6M0,0L5,0m0,3v-6M0,0L0,-2m3,0h-6"></path></g><g transform="translate(53,638)"><path style="stroke: black; stroke-width: 1; fill: none;" d="M0,0L-5,0m0,3v-6M0,0L5,0m0,3v-6M0,0L0,2m3,0h-6M0,0L0,-4m3,0h-6"></path></g><g transform="translate(62,638)"><path style="stroke: black; stroke-width: 1; fill: none;" d="M0,0L-5,0m0,3v-6M0,0L5,0m0,3v-6M0,0L0,2m3,0h-6M0,0L0,-4m3,0h-6"></path></g><g transform="translate(72,640)"><path style="stroke: black; stroke-width: 1; fill: none;" d="M0,0L-5,0m0,3v-6M0,0L5,0m0,3v-6M0,0L0,-2m3,0h-6"></path></g><g transform="translate(82,638)"><path style="stroke: black; stroke-width: 1; fill: none;" d="M0,0L-5,0m0,3v-6M0,0L5,0m0,3v-6M0,0L0,2m3,0h-6M0,0L0,-4m3,0h-6"></path></g><g transform="translate(91,636)"><path style="stroke: black; stroke-width: 1; fill: none;" d="M0,0L-5,0m0,3v-6M0,0L5,0m0,3v-6M0,0L0,2m3,0h-6M0,0L0,-5m3,0h-6"></path></g><g transform="translate(101,631)"><path style="stroke: black; stroke-width: 1; fill: none;" d="M0,0L-5,0m0,3v-6M0,0L5,0m0,3v-6M0,0L0,4m3,0h-6M0,0L0,-6m3,0h-6"></path></g><g transform="translate(110,636)"><path style="stroke: black; stroke-width: 1; fill: none;" d="M0,0L-5,0m0,3v-6M0,0L5,0m0,3v-6M0,0L0,2m3,0h-6M0,0L0,-5m3,0h-6"></path></g><g transform="translate(120,638)"><path style="stroke: black; stroke-width: 1; fill: none;" d="M0,0L-5,0m0,3v-6M0,0L5,0m0,3v-6M0,0L0,2m3,0h-6M0,0L0,-4m3,0h-6"></path></g><g transform="translate(130,627)"><path style="stroke: black; stroke-width: 1; fill: none;" d="M0,0L-5,0m0,3v-6M0,0L5,0m0,3v-6M0,0L0,5m3,0h-6M0,0L0,-7m3,0h-6"></path></g><g transform="translate(139,627)"><path style="stroke: black; stroke-width: 1; fill: none;" d="M0,0L-5,0m0,3v-6M0,0L5,0m0,3v-6M0,0L0,5m3,0h-6M0,0L0,-7m3,0h-6"></path></g><g transform="translate(149,614)"><path style="stroke: black; stroke-width: 1; fill: none;" d="M0,0L-5,0m0,3v-6M0,0L5,0m0,3v-6M0,0L0,7m3,0h-6M0,0L0,-9m3,0h-6"></path></g><g transform="translate(158,636)"><path style="stroke: black; stroke-width: 1; fill: none;" d="M0,0L-5,0m0,3v-6M0,0L5,0m0,3v-6M0,0L0,2m3,0h-6M0,0L0,-5m3,0h-6"></path></g><g transform="translate(168,619)"><path style="stroke: black; stroke-width: 1; fill: none;" d="M0,0L-5,0m0,3v-6M0,0L5,0m0,3v-6M0,0L0,6m3,0h-6M0,0L0,-8m3,0h-6"></path></g><g transform="translate(178,619)"><path style="stroke: black; stroke-width: 1; fill: none;" d="M0,0L-5,0m0,3v-6M0,0L5,0m0,3v-6M0,0L0,6m3,0h-6M0,0L0,-8m3,0h-6"></path></g><g transform="translate(187,612)"><path style="stroke: black; stroke-width: 1; fill: none;" d="M0,0L-5,0m0,3v-6M0,0L5,0m0,3v-6M0,0L0,7m3,0h-6M0,0L0,-9m3,0h-6"></path></g><g transform="translate(197,599)"><path style="stroke: black; stroke-width: 1; fill: none;" d="M0,0L-5,0m0,3v-6M0,0L5,0m0,3v-6M0,0L0,9m3,0h-6M0,0L0,-11m3,0h-6"></path></g><g transform="translate(206,614)"><path style="stroke: black; stroke-width: 1; fill: none;" d="M0,0L-5,0m0,3v-6M0,0L5,0m0,3v-6M0,0L0,7m3,0h-6M0,0L0,-9m3,0h-6"></path></g><g transform="translate(216,576)"><path style="stroke: black; stroke-width: 1; fill: none;" d="M0,0L-5,0m0,3v-6M0,0L5,0m0,3v-6M0,0L0,11m3,0h-6M0,0L0,-13m3,0h-6"></path></g><g transform="translate(226,597)"><path style="stroke: black; stroke-width: 1; fill: none;" d="M0,0L-5,0m0,3v-6M0,0L5,0m0,3v-6M0,0L0,9m3,0h-6M0,0L0,-11m3,0h-6"></path></g><g transform="translate(235,573)"><path style="stroke: black; stroke-width: 1; fill: none;" d="M0,0L-5,0m0,3v-6M0,0L5,0m0,3v-6M0,0L0,11m3,0h-6M0,0L0,-13m3,0h-6"></path></g><g transform="translate(245,576)"><path style="stroke: black; stroke-width: 1; fill: none;" d="M0,0L-5,0m0,3v-6M0,0L5,0m0,3v-6M0,0L0,11m3,0h-6M0,0L0,-13m3,0h-6"></path></g><g transform="translate(254,567)"><path style="stroke: black; stroke-width: 1; fill: none;" d="M0,0L-5,0m0,3v-6M0,0L5,0m0,3v-6M0,0L0,12m3,0h-6M0,0L0,-14m3,0h-6"></path></g><g transform="translate(264,554)"><path style="stroke: black; stroke-width: 1; fill: none;" d="M0,0L-5,0m0,3v-6M0,0L5,0m0,3v-6M0,0L0,13m3,0h-6M0,0L0,-15m3,0h-6"></path></g><g transform="translate(274,539)"><path style="stroke: black; stroke-width: 1; fill: none;" d="M0,0L-5,0m0,3v-6M0,0L5,0m0,3v-6M0,0L0,14m3,0h-6M0,0L0,-16m3,0h-6"></path></g><g transform="translate(283,548)"><path style="stroke: black; stroke-width: 1; fill: none;" d="M0,0L-5,0m0,3v-6M0,0L5,0m0,3v-6M0,0L0,13m3,0h-6M0,0L0,-15m3,0h-6"></path></g><g transform="translate(293,515)"><path style="stroke: black; stroke-width: 1; fill: none;" d="M0,0L-5,0m0,3v-6M0,0L5,0m0,3v-6M0,0L0,15m3,0h-6M0,0L0,-17m3,0h-6"></path></g><g transform="translate(302,468)"><path style="stroke: black; stroke-width: 1; fill: none;" d="M0,0L-5,0m0,3v-6M0,0L5,0m0,3v-6M0,0L0,18m3,0h-6M0,0L0,-20m3,0h-6"></path></g><g transform="translate(312,461)"><path style="stroke: black; stroke-width: 1; fill: none;" d="M0,0L-5,0m0,3v-6M0,0L5,0m0,3v-6M0,0L0,18m3,0h-6M0,0L0,-20m3,0h-6"></path></g><g transform="translate(322,448)"><path style="stroke: black; stroke-width: 1; fill: none;" d="M0,0L-5,0m0,3v-6M0,0L5,0m0,3v-6M0,0L0,18m3,0h-6M0,0L0,-20m3,0h-6"></path></g><g transform="translate(331,440)"><path style="stroke: black; stroke-width: 1; fill: none;" d="M0,0L-5,0m0,3v-6M0,0L5,0m0,3v-6M0,0L0,18m3,0h-6M0,0L0,-20m3,0h-6"></path></g><g transform="translate(341,425)"><path style="stroke: black; stroke-width: 1; fill: none;" d="M0,0L-5,0m0,3v-6M0,0L5,0m0,3v-6M0,0L0,19m3,0h-6M0,0L0,-21m3,0h-6"></path></g><g transform="translate(350,382)"><path style="stroke: black; stroke-width: 1; fill: none;" d="M0,0L-5,0m0,3v-6M0,0L5,0m0,3v-6M0,0L0,21m3,0h-6M0,0L0,-23m3,0h-6"></path></g><g transform="translate(360,403)"><path style="stroke: black; stroke-width: 1; fill: none;" d="M0,0L-5,0m0,3v-6M0,0L5,0m0,3v-6M0,0L0,20m3,0h-6M0,0L0,-22m3,0h-6"></path></g><g transform="translate(370,401)"><path style="stroke: black; stroke-width: 1; fill: none;" d="M0,0L-5,0m0,3v-6M0,0L5,0m0,3v-6M0,0L0,20m3,0h-6M0,0L0,-22m3,0h-6"></path></g><g transform="translate(379,356)"><path style="stroke: black; stroke-width: 1; fill: none;" d="M0,0L-5,0m0,3v-6M0,0L5,0m0,3v-6M0,0L0,22m3,0h-6M0,0L0,-24m3,0h-6"></path></g><g transform="translate(389,347)"><path style="stroke: black; stroke-width: 1; fill: none;" d="M0,0L-5,0m0,3v-6M0,0L5,0m0,3v-6M0,0L0,23m3,0h-6M0,0L0,-24m3,0h-6"></path></g><g transform="translate(398,326)"><path style="stroke: black; stroke-width: 1; fill: none;" d="M0,0L-5,0m0,3v-6M0,0L5,0m0,3v-6M0,0L0,23m3,0h-6M0,0L0,-25m3,0h-6"></path></g><g transform="translate(408,330)"><path style="stroke: black; stroke-width: 1; fill: none;" d="M0,0L-5,0m0,3v-6M0,0L5,0m0,3v-6M0,0L0,23m3,0h-6M0,0L0,-25m3,0h-6"></path></g><g transform="translate(418,270)"><path style="stroke: black; stroke-width: 1; fill: none;" d="M0,0L-5,0m0,3v-6M0,0L5,0m0,3v-6M0,0L0,25m3,0h-6M0,0L0,-27m3,0h-6"></path></g><g transform="translate(427,240)"><path style="stroke: black; stroke-width: 1; fill: none;" d="M0,0L-5,0m0,3v-6M0,0L5,0m0,3v-6M0,0L0,26m3,0h-6M0,0L0,-28m3,0h-6"></path></g><g transform="translate(437,251)"><path style="stroke: black; stroke-width: 1; fill: none;" d="M0,0L-5,0m0,3v-6M0,0L5,0m0,3v-6M0,0L0,26m3,0h-6M0,0L0,-28m3,0h-6"></path></g><g transform="translate(446,214)"><path style="stroke: black; stroke-width: 1; fill: none;" d="M0,0L-5,0m0,3v-6M0,0L5,0m0,3v-6M0,0L0,27m3,0h-6M0,0L0,-29m3,0h-6"></path></g><g transform="translate(456,195)"><path style="stroke: black; stroke-width: 1; fill: none;" d="M0,0L-5,0m0,3v-6M0,0L5,0m0,3v-6M0,0L0,28m3,0h-6M0,0L0,-30m3,0h-6"></path></g><g transform="translate(466,147)"><path style="stroke: black; stroke-width: 1; fill: none;" d="M0,0L-5,0m0,3v-6M0,0L5,0m0,3v-6M0,0L0,29m3,0h-6M0,0L0,-31m3,0h-6"></path></g><g transform="translate(475,206)"><path style="stroke: black; stroke-width: 1; fill: none;" d="M0,0L-5,0m0,3v-6M0,0L5,0m0,3v-6M0,0L0,28m3,0h-6M0,0L0,-29m3,0h-6"></path></g><g transform="translate(485,141)"><path style="stroke: black; stroke-width: 1; fill: none;" d="M0,0L-5,0m0,3v-6M0,0L5,0m0,3v-6M0,0L0,30m3,0h-6M0,0L0,-31m3,0h-6"></path></g><g transform="translate(494,124)"><path style="stroke: black; stroke-width: 1; fill: none;" d="M0,0L-5,0m0,3v-6M0,0L5,0m0,3v-6M0,0L0,30m3,0h-6M0,0L0,-32m3,0h-6"></path></g><g transform="translate(504,184)"><path style="stroke: black; stroke-width: 1; fill: none;" d="M0,0L-5,0m0,3v-6M0,0L5,0m0,3v-6M0,0L0,28m3,0h-6M0,0L0,-30m3,0h-6"></path></g><g transform="translate(514,119)"><path style="stroke: black; stroke-width: 1; fill: none;" d="M0,0L-5,0m0,3v-6M0,0L5,0m0,3v-6M0,0L0,30m3,0h-6M0,0L0,-32m3,0h-6"></path></g><g transform="translate(523,111)"><path style="stroke: black; stroke-width: 1; fill: none;" d="M0,0L-5,0m0,3v-6M0,0L5,0m0,3v-6M0,0L0,31m3,0h-6M0,0L0,-32m3,0h-6"></path></g><g transform="translate(533,169)"><path style="stroke: black; stroke-width: 1; fill: none;" d="M0,0L-5,0m0,3v-6M0,0L5,0m0,3v-6M0,0L0,29m3,0h-6M0,0L0,-31m3,0h-6"></path></g><g transform="translate(542,115)"><path style="stroke: black; stroke-width: 1; fill: none;" d="M0,0L-5,0m0,3v-6M0,0L5,0m0,3v-6M0,0L0,30m3,0h-6M0,0L0,-32m3,0h-6"></path></g><g transform="translate(552,92)"><path style="stroke: black; stroke-width: 1; fill: none;" d="M0,0L-5,0m0,3v-6M0,0L5,0m0,3v-6M0,0L0,31m3,0h-6M0,0L0,-33m3,0h-6"></path></g><g transform="translate(562,165)"><path style="stroke: black; stroke-width: 1; fill: none;" d="M0,0L-5,0m0,3v-6M0,0L5,0m0,3v-6M0,0L0,29m3,0h-6M0,0L0,-31m3,0h-6"></path></g><g transform="translate(571,173)"><path style="stroke: black; stroke-width: 1; fill: none;" d="M0,0L-5,0m0,3v-6M0,0L5,0m0,3v-6M0,0L0,29m3,0h-6M0,0L0,-30m3,0h-6"></path></g><g transform="translate(581,171)"><path style="stroke: black; stroke-width: 1; fill: none;" d="M0,0L-5,0m0,3v-6M0,0L5,0m0,3v-6M0,0L0,29m3,0h-6M0,0L0,-31m3,0h-6"></path></g><g transform="translate(590,229)"><path style="stroke: black; stroke-width: 1; fill: none;" d="M0,0L-5,0m0,3v-6M0,0L5,0m0,3v-6M0,0L0,27m3,0h-6M0,0L0,-29m3,0h-6"></path></g><g transform="translate(600,171)"><path style="stroke: black; stroke-width: 1; fill: none;" d="M0,0L-5,0m0,3v-6M0,0L5,0m0,3v-6M0,0L0,29m3,0h-6M0,0L0,-31m3,0h-6"></path></g><g transform="translate(610,223)"><path style="stroke: black; stroke-width: 1; fill: none;" d="M0,0L-5,0m0,3v-6M0,0L5,0m0,3v-6M0,0L0,27m3,0h-6M0,0L0,-29m3,0h-6"></path></g><g transform="translate(619,227)"><path style="stroke: black; stroke-width: 1; fill: none;" d="M0,0L-5,0m0,3v-6M0,0L5,0m0,3v-6M0,0L0,27m3,0h-6M0,0L0,-29m3,0h-6"></path></g><g transform="translate(629,214)"><path style="stroke: black; stroke-width: 1; fill: none;" d="M0,0L-5,0m0,3v-6M0,0L5,0m0,3v-6M0,0L0,27m3,0h-6M0,0L0,-29m3,0h-6"></path></g><g transform="translate(638,277)"><path style="stroke: black; stroke-width: 1; fill: none;" d="M0,0L-5,0m0,3v-6M0,0L5,0m0,3v-6M0,0L0,25m3,0h-6M0,0L0,-27m3,0h-6"></path></g><g transform="translate(648,283)"><path style="stroke: black; stroke-width: 1; fill: none;" d="M0,0L-5,0m0,3v-6M0,0L5,0m0,3v-6M0,0L0,25m3,0h-6M0,0L0,-27m3,0h-6"></path></g><g transform="translate(658,341)"><path style="stroke: black; stroke-width: 1; fill: none;" d="M0,0L-5,0m0,3v-6M0,0L5,0m0,3v-6M0,0L0,23m3,0h-6M0,0L0,-25m3,0h-6"></path></g><g transform="translate(667,317)"><path style="stroke: black; stroke-width: 1; fill: none;" d="M0,0L-5,0m0,3v-6M0,0L5,0m0,3v-6M0,0L0,24m3,0h-6M0,0L0,-26m3,0h-6"></path></g><g transform="translate(677,313)"><path style="stroke: black; stroke-width: 1; fill: none;" d="M0,0L-5,0m0,3v-6M0,0L5,0m0,3v-6M0,0L0,24m3,0h-6M0,0L0,-26m3,0h-6"></path></g><g transform="translate(686,395)"><path style="stroke: black; stroke-width: 1; fill: none;" d="M0,0L-5,0m0,3v-6M0,0L5,0m0,3v-6M0,0L0,20m3,0h-6M0,0L0,-22m3,0h-6"></path></g><g transform="translate(696,354)"><path style="stroke: black; stroke-width: 1; fill: none;" d="M0,0L-5,0m0,3v-6M0,0L5,0m0,3v-6M0,0L0,22m3,0h-6M0,0L0,-24m3,0h-6"></path></g><g transform="translate(706,440)"><path style="stroke: black; stroke-width: 1; fill: none;" d="M0,0L-5,0m0,3v-6M0,0L5,0m0,3v-6M0,0L0,18m3,0h-6M0,0L0,-20m3,0h-6"></path></g><g transform="translate(715,427)"><path style="stroke: black; stroke-width: 1; fill: none;" d="M0,0L-5,0m0,3v-6M0,0L5,0m0,3v-6M0,0L0,19m3,0h-6M0,0L0,-21m3,0h-6"></path></g><g transform="translate(725,423)"><path style="stroke: black; stroke-width: 1; fill: none;" d="M0,0L-5,0m0,3v-6M0,0L5,0m0,3v-6M0,0L0,19m3,0h-6M0,0L0,-21m3,0h-6"></path></g><g transform="translate(734,451)"><path style="stroke: black; stroke-width: 1; fill: none;" d="M0,0L-5,0m0,3v-6M0,0L5,0m0,3v-6M0,0L0,18m3,0h-6M0,0L0,-20m3,0h-6"></path></g><g transform="translate(744,457)"><path style="stroke: black; stroke-width: 1; fill: none;" d="M0,0L-5,0m0,3v-6M0,0L5,0m0,3v-6M0,0L0,18m3,0h-6M0,0L0,-20m3,0h-6"></path></g><g transform="translate(754,532)"><path style="stroke: black; stroke-width: 1; fill: none;" d="M0,0L-5,0m0,3v-6M0,0L5,0m0,3v-6M0,0L0,14m3,0h-6M0,0L0,-16m3,0h-6"></path></g><g transform="translate(763,530)"><path style="stroke: black; stroke-width: 1; fill: none;" d="M0,0L-5,0m0,3v-6M0,0L5,0m0,3v-6M0,0L0,14m3,0h-6M0,0L0,-16m3,0h-6"></path></g><g transform="translate(773,520)"><path style="stroke: black; stroke-width: 1; fill: none;" d="M0,0L-5,0m0,3v-6M0,0L5,0m0,3v-6M0,0L0,15m3,0h-6M0,0L0,-17m3,0h-6"></path></g><g transform="translate(782,513)"><path style="stroke: black; stroke-width: 1; fill: none;" d="M0,0L-5,0m0,3v-6M0,0L5,0m0,3v-6M0,0L0,15m3,0h-6M0,0L0,-17m3,0h-6"></path></g><g transform="translate(792,552)"><path style="stroke: black; stroke-width: 1; fill: none;" d="M0,0L-5,0m0,3v-6M0,0L5,0m0,3v-6M0,0L0,13m3,0h-6M0,0L0,-15m3,0h-6"></path></g><g transform="translate(802,547)"><path style="stroke: black; stroke-width: 1; fill: none;" d="M0,0L-5,0m0,3v-6M0,0L5,0m0,3v-6M0,0L0,13m3,0h-6M0,0L0,-15m3,0h-6"></path></g><g transform="translate(811,573)"><path style="stroke: black; stroke-width: 1; fill: none;" d="M0,0L-5,0m0,3v-6M0,0L5,0m0,3v-6M0,0L0,11m3,0h-6M0,0L0,-13m3,0h-6"></path></g><g transform="translate(821,576)"><path style="stroke: black; stroke-width: 1; fill: none;" d="M0,0L-5,0m0,3v-6M0,0L5,0m0,3v-6M0,0L0,11m3,0h-6M0,0L0,-13m3,0h-6"></path></g><g transform="translate(830,590)"><path style="stroke: black; stroke-width: 1; fill: none;" d="M0,0L-5,0m0,3v-6M0,0L5,0m0,3v-6M0,0L0,10m3,0h-6M0,0L0,-12m3,0h-6"></path></g><g transform="translate(840,606)"><path style="stroke: black; stroke-width: 1; fill: none;" d="M0,0L-5,0m0,3v-6M0,0L5,0m0,3v-6M0,0L0,8m3,0h-6M0,0L0,-10m3,0h-6"></path></g><g transform="translate(850,597)"><path style="stroke: black; stroke-width: 1; fill: none;" d="M0,0L-5,0m0,3v-6M0,0L5,0m0,3v-6M0,0L0,9m3,0h-6M0,0L0,-11m3,0h-6"></path></g><g transform="translate(859,595)"><path style="stroke: black; stroke-width: 1; fill: none;" d="M0,0L-5,0m0,3v-6M0,0L5,0m0,3v-6M0,0L0,9m3,0h-6M0,0L0,-11m3,0h-6"></path></g><g transform="translate(869,616)"><path style="stroke: black; stroke-width: 1; fill: none;" d="M0,0L-5,0m0,3v-6M0,0L5,0m0,3v-6M0,0L0,7m3,0h-6M0,0L0,-9m3,0h-6"></path></g><g transform="translate(878,614)"><path style="stroke: black; stroke-width: 1; fill: none;" d="M0,0L-5,0m0,3v-6M0,0L5,0m0,3v-6M0,0L0,7m3,0h-6M0,0L0,-9m3,0h-6"></path></g><g transform="translate(888,621)"><path style="stroke: black; stroke-width: 1; fill: none;" d="M0,0L-5,0m0,3v-6M0,0L5,0m0,3v-6M0,0L0,6m3,0h-6M0,0L0,-8m3,0h-6"></path></g><g transform="translate(898,625)"><path style="stroke: black; stroke-width: 1; fill: none;" d="M0,0L-5,0m0,3v-6M0,0L5,0m0,3v-6M0,0L0,5m3,0h-6M0,0L0,-7m3,0h-6"></path></g><g transform="translate(907,625)"><path style="stroke: black; stroke-width: 1; fill: none;" d="M0,0L-5,0m0,3v-6M0,0L5,0m0,3v-6M0,0L0,5m3,0h-6M0,0L0,-7m3,0h-6"></path></g><g transform="translate(917,633)"><path style="stroke: black; stroke-width: 1; fill: none;" d="M0,0L-5,0m0,3v-6M0,0L5,0m0,3v-6M0,0L0,4m3,0h-6M0,0L0,-6m3,0h-6"></path></g><g transform="translate(926,629)"><path style="stroke: black; stroke-width: 1; fill: none;" d="M0,0L-5,0m0,3v-6M0,0L5,0m0,3v-6M0,0L0,4m3,0h-6M0,0L0,-7m3,0h-6"></path></g><g transform="translate(936,634)"><path style="stroke: black; stroke-width: 1; fill: none;" d="M0,0L-5,0m0,3v-6M0,0L5,0m0,3v-6M0,0L0,3m3,0h-6M0,0L0,-5m3,0h-6"></path></g><g transform="translate(946,629)"><path style="stroke: black; stroke-width: 1; fill: none;" d="M0,0L-5,0m0,3v-6M0,0L5,0m0,3v-6M0,0L0,4m3,0h-6M0,0L0,-7m3,0h-6"></path></g><g transform="translate(955,633)"><path style="stroke: black; stroke-width: 1; fill: none;" d="M0,0L-5,0m0,3v-6M0,0L5,0m0,3v-6M0,0L0,4m3,0h-6M0,0L0,-6m3,0h-6"></path></g><path d="M1,640a4,4,0,1,0,8,0a4,4,0,1,0,-8,0zM10,640a4,4,0,1,0,8,0a4,4,0,1,0,-8,0zM20,640a4,4,0,1,0,8,0a4,4,0,1,0,-8,0zM30,638a4,4,0,1,0,8,0a4,4,0,1,0,-8,0zM39,640a4,4,0,1,0,8,0a4,4,0,1,0,-8,0zM49,638a4,4,0,1,0,8,0a4,4,0,1,0,-8,0zM58,638a4,4,0,1,0,8,0a4,4,0,1,0,-8,0zM68,640a4,4,0,1,0,8,0a4,4,0,1,0,-8,0zM78,638a4,4,0,1,0,8,0a4,4,0,1,0,-8,0zM87,636a4,4,0,1,0,8,0a4,4,0,1,0,-8,0zM97,631a4,4,0,1,0,8,0a4,4,0,1,0,-8,0zM106,636a4,4,0,1,0,8,0a4,4,0,1,0,-8,0zM116,638a4,4,0,1,0,8,0a4,4,0,1,0,-8,0zM126,627a4,4,0,1,0,8,0a4,4,0,1,0,-8,0zM135,627a4,4,0,1,0,8,0a4,4,0,1,0,-8,0zM145,614a4,4,0,1,0,8,0a4,4,0,1,0,-8,0zM154,636a4,4,0,1,0,8,0a4,4,0,1,0,-8,0zM164,619a4,4,0,1,0,8,0a4,4,0,1,0,-8,0zM174,619a4,4,0,1,0,8,0a4,4,0,1,0,-8,0zM183,612a4,4,0,1,0,8,0a4,4,0,1,0,-8,0zM193,599a4,4,0,1,0,8,0a4,4,0,1,0,-8,0zM202,614a4,4,0,1,0,8,0a4,4,0,1,0,-8,0zM212,576a4,4,0,1,0,8,0a4,4,0,1,0,-8,0zM222,597a4,4,0,1,0,8,0a4,4,0,1,0,-8,0zM231,573a4,4,0,1,0,8,0a4,4,0,1,0,-8,0zM241,576a4,4,0,1,0,8,0a4,4,0,1,0,-8,0zM250,567a4,4,0,1,0,8,0a4,4,0,1,0,-8,0zM260,554a4,4,0,1,0,8,0a4,4,0,1,0,-8,0zM270,539a4,4,0,1,0,8,0a4,4,0,1,0,-8,0zM279,548a4,4,0,1,0,8,0a4,4,0,1,0,-8,0zM289,515a4,4,0,1,0,8,0a4,4,0,1,0,-8,0zM298,468a4,4,0,1,0,8,0a4,4,0,1,0,-8,0zM308,461a4,4,0,1,0,8,0a4,4,0,1,0,-8,0zM318,448a4,4,0,1,0,8,0a4,4,0,1,0,-8,0zM327,440a4,4,0,1,0,8,0a4,4,0,1,0,-8,0zM337,425a4,4,0,1,0,8,0a4,4,0,1,0,-8,0zM346,382a4,4,0,1,0,8,0a4,4,0,1,0,-8,0zM356,403a4,4,0,1,0,8,0a4,4,0,1,0,-8,0zM366,401a4,4,0,1,0,8,0a4,4,0,1,0,-8,0zM375,356a4,4,0,1,0,8,0a4,4,0,1,0,-8,0zM385,347a4,4,0,1,0,8,0a4,4,0,1,0,-8,0zM394,326a4,4,0,1,0,8,0a4,4,0,1,0,-8,0zM404,330a4,4,0,1,0,8,0a4,4,0,1,0,-8,0zM414,270a4,4,0,1,0,8,0a4,4,0,1,0,-8,0zM423,240a4,4,0,1,0,8,0a4,4,0,1,0,-8,0zM433,251a4,4,0,1,0,8,0a4,4,0,1,0,-8,0zM442,214a4,4,0,1,0,8,0a4,4,0,1,0,-8,0zM452,195a4,4,0,1,0,8,0a4,4,0,1,0,-8,0zM462,147a4,4,0,1,0,8,0a4,4,0,1,0,-8,0zM471,206a4,4,0,1,0,8,0a4,4,0,1,0,-8,0zM481,141a4,4,0,1,0,8,0a4,4,0,1,0,-8,0zM490,124a4,4,0,1,0,8,0a4,4,0,1,0,-8,0zM500,184a4,4,0,1,0,8,0a4,4,0,1,0,-8,0zM510,119a4,4,0,1,0,8,0a4,4,0,1,0,-8,0zM519,111a4,4,0,1,0,8,0a4,4,0,1,0,-8,0zM529,169a4,4,0,1,0,8,0a4,4,0,1,0,-8,0zM538,115a4,4,0,1,0,8,0a4,4,0,1,0,-8,0zM548,92a4,4,0,1,0,8,0a4,4,0,1,0,-8,0zM558,165a4,4,0,1,0,8,0a4,4,0,1,0,-8,0zM567,173a4,4,0,1,0,8,0a4,4,0,1,0,-8,0zM577,171a4,4,0,1,0,8,0a4,4,0,1,0,-8,0zM586,229a4,4,0,1,0,8,0a4,4,0,1,0,-8,0zM596,171a4,4,0,1,0,8,0a4,4,0,1,0,-8,0zM606,223a4,4,0,1,0,8,0a4,4,0,1,0,-8,0zM615,227a4,4,0,1,0,8,0a4,4,0,1,0,-8,0zM625,214a4,4,0,1,0,8,0a4,4,0,1,0,-8,0zM634,277a4,4,0,1,0,8,0a4,4,0,1,0,-8,0zM644,283a4,4,0,1,0,8,0a4,4,0,1,0,-8,0zM654,341a4,4,0,1,0,8,0a4,4,0,1,0,-8,0zM663,317a4,4,0,1,0,8,0a4,4,0,1,0,-8,0zM673,313a4,4,0,1,0,8,0a4,4,0,1,0,-8,0zM682,395a4,4,0,1,0,8,0a4,4,0,1,0,-8,0zM692,354a4,4,0,1,0,8,0a4,4,0,1,0,-8,0zM702,440a4,4,0,1,0,8,0a4,4,0,1,0,-8,0zM711,427a4,4,0,1,0,8,0a4,4,0,1,0,-8,0zM721,423a4,4,0,1,0,8,0a4,4,0,1,0,-8,0zM730,451a4,4,0,1,0,8,0a4,4,0,1,0,-8,0zM740,457a4,4,0,1,0,8,0a4,4,0,1,0,-8,0zM750,532a4,4,0,1,0,8,0a4,4,0,1,0,-8,0zM759,530a4,4,0,1,0,8,0a4,4,0,1,0,-8,0zM769,520a4,4,0,1,0,8,0a4,4,0,1,0,-8,0zM778,513a4,4,0,1,0,8,0a4,4,0,1,0,-8,0zM788,552a4,4,0,1,0,8,0a4,4,0,1,0,-8,0zM798,547a4,4,0,1,0,8,0a4,4,0,1,0,-8,0zM807,573a4,4,0,1,0,8,0a4,4,0,1,0,-8,0zM817,576a4,4,0,1,0,8,0a4,4,0,1,0,-8,0zM826,590a4,4,0,1,0,8,0a4,4,0,1,0,-8,0zM836,606a4,4,0,1,0,8,0a4,4,0,1,0,-8,0zM846,597a4,4,0,1,0,8,0a4,4,0,1,0,-8,0zM855,595a4,4,0,1,0,8,0a4,4,0,1,0,-8,0zM865,616a4,4,0,1,0,8,0a4,4,0,1,0,-8,0zM874,614a4,4,0,1,0,8,0a4,4,0,1,0,-8,0zM884,621a4,4,0,1,0,8,0a4,4,0,1,0,-8,0zM894,625a4,4,0,1,0,8,0a4,4,0,1,0,-8,0zM903,625a4,4,0,1,0,8,0a4,4,0,1,0,-8,0zM913,633a4,4,0,1,0,8,0a4,4,0,1,0,-8,0zM922,629a4,4,0,1,0,8,0a4,4,0,1,0,-8,0zM932,634a4,4,0,1,0,8,0a4,4,0,1,0,-8,0zM942,629a4,4,0,1,0,8,0a4,4,0,1,0,-8,0zM951,633a4,4,0,1,0,8,0a4,4,0,1,0,-8,0z" style="stroke: black; fill: black;"></path></g><g objname="gauss_Norm%5Bx%5D" objtype="RooCurve"><path d="M-10,640v-1h10h10h9h10l9,-1h10h10l9,-1l10,-1l9,-1l10,-1l10,-1l9,-1l10,-2l9,-2l10,-2l10,-3l9,-3l10,-4l9,-4l10,-5l10,-5l9,-6l10,-7l9,-8l10,-8l10,-10l9,-10l10,-12l9,-12l10,-13l10,-14l9,-16l10,-16l9,-17l10,-18l10,-18l9,-19l10,-20l9,-20l10,-20l10,-20l9,-20l10,-19l9,-19l10,-19l10,-17l9,-16l10,-14l9,-13l10,-12l10,-9l9,-8l10,-5l9,-4l10,-1l10,1l9,4l10,5l9,8l10,9l10,12l9,13l10,14l9,16l10,17l10,19l9,19l10,19l9,20l10,20l10,20l9,20l10,20l9,19l10,18l10,18l9,17l10,16l9,16l10,14l10,13l9,12l10,12l9,10l10,10l10,8l9,8l10,7l9,6l10,5l10,5l9,4l10,4l9,3l10,3l10,2l9,2l10,2l9,1l10,1h10v6" style="stroke: rgb(0,0,255); stroke-width: 3; fill: none;"></path></g></svg><g><g transform="translate(0,640)"><line x1="0" y1="0" x2="960" y2="0" style="stroke: black; stroke-width: 1;"></line><path d="M0,-24v24m24,-12v12m24,-12v12m24,-12v12m24,-24v24m24,-12v12m24,-12v12m24,-12v12m24,-24v24m24,-12v12m24,-12v12m24,-12v12m24,-24v24m24,-12v12m24,-12v12m24,-12v12m24,-24v24m24,-12v12m24,-12v12m24,-12v12m24,-24v24m24,-12v12m24,-12v12m24,-12v12m24,-24v24m24,-12v12m24,-12v12m24,-12v12m24,-24v24m24,-12v12m24,-12v12m24,-12v12m24,-24v24m24,-12v12m24,-12v12m24,-12v12m24,-24v24m24,-12v12m24,-12v12m24,-12v12m24,-24v24" style="stroke: black; stroke-width: 1;"></path><g font-family="Arial" font-size="28" space="preserve"><text fill="black" text-anchor="middle" dy=".8em" transform="translate(0,6)">-10</text><text fill="black" text-anchor="middle" dy=".8em" transform="translate(96,6)">-8</text><text fill="black" text-anchor="middle" dy=".8em" transform="translate(192,6)">-6</text><text fill="black" text-anchor="middle" dy=".8em" transform="translate(288,6)">-4</text><text fill="black" text-anchor="middle" dy=".8em" transform="translate(384,6)">-2</text><text fill="black" text-anchor="middle" dy=".8em" transform="translate(480,6)">0</text><text fill="black" text-anchor="middle" dy=".8em" transform="translate(576,6)">2</text><text fill="black" text-anchor="middle" dy=".8em" transform="translate(672,6)">4</text><text fill="black" text-anchor="middle" dy=".8em" transform="translate(768,6)">6</text><text fill="black" text-anchor="middle" dy=".8em" transform="translate(864,6)">8</text><text fill="black" text-anchor="middle" dy=".8em" transform="translate(960,6)">10</text></g><g font-family="Arial" font-size="28" space="preserve" transform="translate(960,45)"><text fill="black" text-anchor="end" dy=".4em">x</text></g></g><g><line x1="0" y1="0" x2="0" y2="640" style="stroke: black; stroke-width: 1;"></line><path d="M36,640h-36m18,-19h-18m18,-18h-18m18,-19h-18m18,-19h-18m36,-18h-36m18,-19h-18m18,-19h-18m18,-19h-18m18,-18h-18m36,-19h-36m18,-19h-18m18,-18h-18m18,-19h-18m18,-19h-18m36,-18h-36m18,-19h-18m18,-19h-18m18,-18h-18m18,-19h-18m36,-19h-36m18,-18h-18m18,-19h-18m18,-19h-18m18,-19h-18m36,-18h-36m18,-19h-18m18,-19h-18m18,-18h-18m18,-19h-18m36,-19h-36m18,-18h-18m18,-19h-18m18,-19h-18m18,-18h-18" style="stroke: black; stroke-width: 1;"></path><g font-family="Arial" font-size="28" space="preserve"><text fill="black" text-anchor="end" dy=".4em" transform="translate(-4,640)">0</text><text fill="black" text-anchor="end" dy=".4em" transform="translate(-4,547)">50</text><text fill="black" text-anchor="end" dy=".4em" transform="translate(-4,453)">100</text><text fill="black" text-anchor="end" dy=".4em" transform="translate(-4,360)">150</text><text fill="black" text-anchor="end" dy=".4em" transform="translate(-4,266)">200</text><text fill="black" text-anchor="end" dy=".4em" transform="translate(-4,173)">250</text><text fill="black" text-anchor="end" dy=".4em" transform="translate(-4,79)">300</text></g><g font-family="Arial" font-size="28" space="preserve" transform="translate(-67,0)"><text fill="black" text-anchor="end" dy=".4em" transform=" rotate(270)">Events / ( 0.2 )</text></g></g></g></g><g objname="title" objtype="TPaveText" transform="translate(336,8)" font-family="Arial" font-size="33" space="preserve"><path d="M0,0h528v40h-528z" style="fill: none;"></path><text fill="black" text-anchor="middle" dy=".4em" transform="translate(264,20)">Gaussian p.d.f. with data</text></g></g></svg>