<svg xmlns="http://www.w3.org/2000/svg" viewBox="0 0 1200 800" preserveAspectRatio="none" width="1200" height="800">
 <path d="M0,0H1200V800H0Z" style="fill: none;"></path>
 <g>
  <g transform="translate(120,80)">
   <path d="M0,0H960V640H0Z" style="fill: white; stroke: black; stroke-width: 1;"></path>
   <svg x="0" y="0" overflow="hidden" width="960" height="640" viewBox="0 0 960 640">
    <g>
     <path d="M0,0h10v640h950" style="stroke-linejoin: miter; stroke: #00009a; stroke-width: 1; fill: none;"></path>
    </g>
    <g>
     <g transform="translate(5,640)">
      <path style="stroke: black; stroke-width: 1; fill: none;" d="M0,0H-5m0,3v-6M0,0H5m0,3v-6M0,0V-2m3,0h-6"></path>
     </g>
     <g transform="translate(14,640)">
      <path style="stroke: black; stroke-width: 1; fill: none;" d="M0,0H-5m0,3v-6M0,0H5m0,3v-6M0,0V-2m3,0h-6"></path>
     </g>
     <g transform="translate(24,640)">
      <path style="stroke: black; stroke-width: 1; fill: none;" d="M0,0H-5m0,3v-6M0,0H5m0,3v-6M0,0V-2m3,0h-6"></path>
     </g>
     <g transform="translate(34,638)">
      <path style="stroke: black; stroke-width: 1; fill: none;" d="M0,0H-5m0,3v-6M0,0H5m0,3v-6M0,0V2m3,0h-6M0,0V-5m3,0h-6"></path>
     </g>
     <g transform="translate(43,640)">
      <path style="stroke: black; stroke-width: 1; fill: none;" d="M0,0H-5m0,3v-6M0,0H5m0,3v-6M0,0V-2m3,0h-6"></path>
     </g>
     <g transform="translate(53,638)">
      <path style="stroke: black; stroke-width: 1; fill: none;" d="M0,0H-5m0,3v-6M0,0H5m0,3v-6M0,0V2m3,0h-6M0,0V-5m3,0h-6"></path>
     </g>
     <g transform="translate(62,638)">
      <path style="stroke: black; stroke-width: 1; fill: none;" d="M0,0H-5m0,3v-6M0,0H5m0,3v-6M0,0V2m3,0h-6M0,0V-5m3,0h-6"></path>
     </g>
     <g transform="translate(72,640)">
      <path style="stroke: black; stroke-width: 1; fill: none;" d="M0,0H-5m0,3v-6M0,0H5m0,3v-6M0,0V-2m3,0h-6"></path>
     </g>
     <g transform="translate(82,638)">
      <path style="stroke: black; stroke-width: 1; fill: none;" d="M0,0H-5m0,3v-6M0,0H5m0,3v-6M0,0V2m3,0h-6M0,0V-5m3,0h-6"></path>
     </g>
     <g transform="translate(91,636)">
      <path style="stroke: black; stroke-width: 1; fill: none;" d="M0,0H-5m0,3v-6M0,0H5m0,3v-6M0,0V3m3,0h-6M0,0V-5m3,0h-6"></path>
     </g>
     <g transform="translate(101,630)">
      <path style="stroke: black; stroke-width: 1; fill: none;" d="M0,0H-5m0,3v-6M0,0H5m0,3v-6M0,0V4m3,0h-6M0,0V-7m3,0h-6"></path>
     </g>
     <g transform="translate(110,636)">
      <path style="stroke: black; stroke-width: 1; fill: none;" d="M0,0H-5m0,3v-6M0,0H5m0,3v-6M0,0V3m3,0h-6M0,0V-5m3,0h-6"></path>
     </g>
     <g transform="translate(120,638)">
      <path style="stroke: black; stroke-width: 1; fill: none;" d="M0,0H-5m0,3v-6M0,0H5m0,3v-6M0,0V2m3,0h-6M0,0V-5m3,0h-6"></path>
     </g>
     <g transform="translate(130,626)">
      <path style="stroke: black; stroke-width: 1; fill: none;" d="M0,0H-5m0,3v-6M0,0H5m0,3v-6M0,0V5m3,0h-6M0,0V-7m3,0h-6"></path>
     </g>
     <g transform="translate(139,626)">
      <path style="stroke: black; stroke-width: 1; fill: none;" d="M0,0H-5m0,3v-6M0,0H5m0,3v-6M0,0V5m3,0h-6M0,0V-7m3,0h-6"></path>
     </g>
     <g transform="translate(149,613)">
      <path style="stroke: black; stroke-width: 1; fill: none;" d="M0,0H-5m0,3v-6M0,0H5m0,3v-6M0,0V7m3,0h-6M0,0V-9m3,0h-6"></path>
     </g>
     <g transform="translate(158,636)">
      <path style="stroke: black; stroke-width: 1; fill: none;" d="M0,0H-5m0,3v-6M0,0H5m0,3v-6M0,0V3m3,0h-6M0,0V-5m3,0h-6"></path>
     </g>
     <g transform="translate(168,618)">
      <path style="stroke: black; stroke-width: 1; fill: none;" d="M0,0H-5m0,3v-6M0,0H5m0,3v-6M0,0V6m3,0h-6M0,0V-9m3,0h-6"></path>
     </g>
     <g transform="translate(178,618)">
      <path style="stroke: black; stroke-width: 1; fill: none;" d="M0,0H-5m0,3v-6M0,0H5m0,3v-6M0,0V6m3,0h-6M0,0V-9m3,0h-6"></path>
     </g>
     <g transform="translate(187,611)">
      <path style="stroke: black; stroke-width: 1; fill: none;" d="M0,0H-5m0,3v-6M0,0H5m0,3v-6M0,0V8m3,0h-6M0,0V-10m3,0h-6"></path>
     </g>
     <g transform="translate(197,597)">
      <path style="stroke: black; stroke-width: 1; fill: none;" d="M0,0H-5m0,3v-6M0,0H5m0,3v-6M0,0V9m3,0h-6M0,0V-11m3,0h-6"></path>
     </g>
     <g transform="translate(206,613)">
      <path style="stroke: black; stroke-width: 1; fill: none;" d="M0,0H-5m0,3v-6M0,0H5m0,3v-6M0,0V7m3,0h-6M0,0V-9m3,0h-6"></path>
     </g>
     <g transform="translate(216,573)">
      <path style="stroke: black; stroke-width: 1; fill: none;" d="M0,0H-5m0,3v-6M0,0H5m0,3v-6M0,0V11m3,0h-6M0,0V-14m3,0h-6"></path>
     </g>
     <g transform="translate(226,595)">
      <path style="stroke: black; stroke-width: 1; fill: none;" d="M0,0H-5m0,3v-6M0,0H5m0,3v-6M0,0V9m3,0h-6M0,0V-12m3,0h-6"></path>
     </g>
     <g transform="translate(235,569)">
      <path style="stroke: black; stroke-width: 1; fill: none;" d="M0,0H-5m0,3v-6M0,0H5m0,3v-6M0,0V12m3,0h-6M0,0V-14m3,0h-6"></path>
     </g>
     <g transform="translate(245,573)">
      <path style="stroke: black; stroke-width: 1; fill: none;" d="M0,0H-5m0,3v-6M0,0H5m0,3v-6M0,0V11m3,0h-6M0,0V-14m3,0h-6"></path>
     </g>
     <g transform="translate(254,563)">
      <path style="stroke: black; stroke-width: 1; fill: none;" d="M0,0H-5m0,3v-6M0,0H5m0,3v-6M0,0V12m3,0h-6M0,0V-14m3,0h-6"></path>
     </g>
     <g transform="translate(264,550)">
      <path style="stroke: black; stroke-width: 1; fill: none;" d="M0,0H-5m0,3v-6M0,0H5m0,3v-6M0,0V13m3,0h-6M0,0V-15m3,0h-6"></path>
     </g>
     <g transform="translate(274,534)">
      <path style="stroke: black; stroke-width: 1; fill: none;" d="M0,0H-5m0,3v-6M0,0H5m0,3v-6M0,0V14m3,0h-6M0,0V-16m3,0h-6"></path>
     </g>
     <g transform="translate(283,544)">
      <path style="stroke: black; stroke-width: 1; fill: none;" d="M0,0H-5m0,3v-6M0,0H5m0,3v-6M0,0V14m3,0h-6M0,0V-16m3,0h-6"></path>
     </g>
     <g transform="translate(293,509)">
      <path style="stroke: black; stroke-width: 1; fill: none;" d="M0,0H-5m0,3v-6M0,0H5m0,3v-6M0,0V16m3,0h-6M0,0V-18m3,0h-6"></path>
     </g>
     <g transform="translate(302,459)">
      <path style="stroke: black; stroke-width: 1; fill: none;" d="M0,0H-5m0,3v-6M0,0H5m0,3v-6M0,0V19m3,0h-6M0,0V-21m3,0h-6"></path>
     </g>
     <g transform="translate(312,452)">
      <path style="stroke: black; stroke-width: 1; fill: none;" d="M0,0H-5m0,3v-6M0,0H5m0,3v-6M0,0V19m3,0h-6M0,0V-21m3,0h-6"></path>
     </g>
     <g transform="translate(322,438)">
      <path style="stroke: black; stroke-width: 1; fill: none;" d="M0,0H-5m0,3v-6M0,0H5m0,3v-6M0,0V19m3,0h-6M0,0V-21m3,0h-6"></path>
     </g>
     <g transform="translate(331,430)">
      <path style="stroke: black; stroke-width: 1; fill: none;" d="M0,0H-5m0,3v-6M0,0H5m0,3v-6M0,0V19m3,0h-6M0,0V-21m3,0h-6"></path>
     </g>
     <g transform="translate(341,414)">
      <path style="stroke: black; stroke-width: 1; fill: none;" d="M0,0H-5m0,3v-6M0,0H5m0,3v-6M0,0V20m3,0h-6M0,0V-22m3,0h-6"></path>
     </g>
     <g transform="translate(350,369)">
      <path style="stroke: black; stroke-width: 1; fill: none;" d="M0,0H-5m0,3v-6M0,0H5m0,3v-6M0,0V22m3,0h-6M0,0V-24m3,0h-6"></path>
     </g>
     <g transform="translate(360,391)">
      <path style="stroke: black; stroke-width: 1; fill: none;" d="M0,0H-5m0,3v-6M0,0H5m0,3v-6M0,0V21m3,0h-6M0,0V-23m3,0h-6"></path>
     </g>
     <g transform="translate(370,389)">
      <path style="stroke: black; stroke-width: 1; fill: none;" d="M0,0H-5m0,3v-6M0,0H5m0,3v-6M0,0V21m3,0h-6M0,0V-23m3,0h-6"></path>
     </g>
     <g transform="translate(379,342)">
      <path style="stroke: black; stroke-width: 1; fill: none;" d="M0,0H-5m0,3v-6M0,0H5m0,3v-6M0,0V23m3,0h-6M0,0V-25m3,0h-6"></path>
     </g>
     <g transform="translate(389,332)">
      <path style="stroke: black; stroke-width: 1; fill: none;" d="M0,0H-5m0,3v-6M0,0H5m0,3v-6M0,0V24m3,0h-6M0,0V-26m3,0h-6"></path>
     </g>
     <g transform="translate(398,310)">
      <path style="stroke: black; stroke-width: 1; fill: none;" d="M0,0H-5m0,3v-6M0,0H5m0,3v-6M0,0V24m3,0h-6M0,0V-26m3,0h-6"></path>
     </g>
     <g transform="translate(408,314)">
      <path style="stroke: black; stroke-width: 1; fill: none;" d="M0,0H-5m0,3v-6M0,0H5m0,3v-6M0,0V24m3,0h-6M0,0V-26m3,0h-6"></path>
     </g>
     <g transform="translate(418,251)">
      <path style="stroke: black; stroke-width: 1; fill: none;" d="M0,0H-5m0,3v-6M0,0H5m0,3v-6M0,0V27m3,0h-6M0,0V-29m3,0h-6"></path>
     </g>
     <g transform="translate(427,220)">
      <path style="stroke: black; stroke-width: 1; fill: none;" d="M0,0H-5m0,3v-6M0,0H5m0,3v-6M0,0V28m3,0h-6M0,0V-30m3,0h-6"></path>
     </g>
     <g transform="translate(437,232)">
      <path style="stroke: black; stroke-width: 1; fill: none;" d="M0,0H-5m0,3v-6M0,0H5m0,3v-6M0,0V27m3,0h-6M0,0V-29m3,0h-6"></path>
     </g>
     <g transform="translate(446,193)">
      <path style="stroke: black; stroke-width: 1; fill: none;" d="M0,0H-5m0,3v-6M0,0H5m0,3v-6M0,0V29m3,0h-6M0,0V-31m3,0h-6"></path>
     </g>
     <g transform="translate(456,173)">
      <path style="stroke: black; stroke-width: 1; fill: none;" d="M0,0H-5m0,3v-6M0,0H5m0,3v-6M0,0V29m3,0h-6M0,0V-31m3,0h-6"></path>
     </g>
     <g transform="translate(466,122)">
      <path style="stroke: black; stroke-width: 1; fill: none;" d="M0,0H-5m0,3v-6M0,0H5m0,3v-6M0,0V31m3,0h-6M0,0V-33m3,0h-6"></path>
     </g>
     <g transform="translate(475,185)">
      <path style="stroke: black; stroke-width: 1; fill: none;" d="M0,0H-5m0,3v-6M0,0H5m0,3v-6M0,0V29m3,0h-6M0,0V-31m3,0h-6"></path>
     </g>
     <g transform="translate(485,116)">
      <path style="stroke: black; stroke-width: 1; fill: none;" d="M0,0H-5m0,3v-6M0,0H5m0,3v-6M0,0V31m3,0h-6M0,0V-33m3,0h-6"></path>
     </g>
     <g transform="translate(494,98)">
      <path style="stroke: black; stroke-width: 1; fill: none;" d="M0,0H-5m0,3v-6M0,0H5m0,3v-6M0,0V32m3,0h-6M0,0V-34m3,0h-6"></path>
     </g>
     <g transform="translate(504,161)">
      <path style="stroke: black; stroke-width: 1; fill: none;" d="M0,0H-5m0,3v-6M0,0H5m0,3v-6M0,0V30m3,0h-6M0,0V-32m3,0h-6"></path>
     </g>
     <g transform="translate(514,93)">
      <path style="stroke: black; stroke-width: 1; fill: none;" d="M0,0H-5m0,3v-6M0,0H5m0,3v-6M0,0V32m3,0h-6M0,0V-34m3,0h-6"></path>
     </g>
     <g transform="translate(523,85)">
      <path style="stroke: black; stroke-width: 1; fill: none;" d="M0,0H-5m0,3v-6M0,0H5m0,3v-6M0,0V32m3,0h-6M0,0V-34m3,0h-6"></path>
     </g>
     <g transform="translate(533,146)">
      <path style="stroke: black; stroke-width: 1; fill: none;" d="M0,0H-5m0,3v-6M0,0H5m0,3v-6M0,0V30m3,0h-6M0,0V-32m3,0h-6"></path>
     </g>
     <g transform="translate(542,89)">
      <path style="stroke: black; stroke-width: 1; fill: none;" d="M0,0H-5m0,3v-6M0,0H5m0,3v-6M0,0V32m3,0h-6M0,0V-34m3,0h-6"></path>
     </g>
     <g transform="translate(552,65)">
      <path style="stroke: black; stroke-width: 1; fill: none;" d="M0,0H-5m0,3v-6M0,0H5m0,3v-6M0,0V33m3,0h-6M0,0V-35m3,0h-6"></path>
     </g>
     <g transform="translate(562,142)">
      <path style="stroke: black; stroke-width: 1; fill: none;" d="M0,0H-5m0,3v-6M0,0H5m0,3v-6M0,0V30m3,0h-6M0,0V-32m3,0h-6"></path>
     </g>
     <g transform="translate(571,149)">
      <path style="stroke: black; stroke-width: 1; fill: none;" d="M0,0H-5m0,3v-6M0,0H5m0,3v-6M0,0V30m3,0h-6M0,0V-32m3,0h-6"></path>
     </g>
     <g transform="translate(581,147)">
      <path style="stroke: black; stroke-width: 1; fill: none;" d="M0,0H-5m0,3v-6M0,0H5m0,3v-6M0,0V30m3,0h-6M0,0V-32m3,0h-6"></path>
     </g>
     <g transform="translate(590,208)">
      <path style="stroke: black; stroke-width: 1; fill: none;" d="M0,0H-5m0,3v-6M0,0H5m0,3v-6M0,0V28m3,0h-6M0,0V-30m3,0h-6"></path>
     </g>
     <g transform="translate(600,147)">
      <path style="stroke: black; stroke-width: 1; fill: none;" d="M0,0H-5m0,3v-6M0,0H5m0,3v-6M0,0V30m3,0h-6M0,0V-32m3,0h-6"></path>
     </g>
     <g transform="translate(610,202)">
      <path style="stroke: black; stroke-width: 1; fill: none;" d="M0,0H-5m0,3v-6M0,0H5m0,3v-6M0,0V28m3,0h-6M0,0V-30m3,0h-6"></path>
     </g>
     <g transform="translate(619,206)">
      <path style="stroke: black; stroke-width: 1; fill: none;" d="M0,0H-5m0,3v-6M0,0H5m0,3v-6M0,0V28m3,0h-6M0,0V-30m3,0h-6"></path>
     </g>
     <g transform="translate(629,193)">
      <path style="stroke: black; stroke-width: 1; fill: none;" d="M0,0H-5m0,3v-6M0,0H5m0,3v-6M0,0V29m3,0h-6M0,0V-31m3,0h-6"></path>
     </g>
     <g transform="translate(638,259)">
      <path style="stroke: black; stroke-width: 1; fill: none;" d="M0,0H-5m0,3v-6M0,0H5m0,3v-6M0,0V26m3,0h-6M0,0V-28m3,0h-6"></path>
     </g>
     <g transform="translate(648,265)">
      <path style="stroke: black; stroke-width: 1; fill: none;" d="M0,0H-5m0,3v-6M0,0H5m0,3v-6M0,0V26m3,0h-6M0,0V-28m3,0h-6"></path>
     </g>
     <g transform="translate(658,326)">
      <path style="stroke: black; stroke-width: 1; fill: none;" d="M0,0H-5m0,3v-6M0,0H5m0,3v-6M0,0V24m3,0h-6M0,0V-26m3,0h-6"></path>
     </g>
     <g transform="translate(667,301)">
      <path style="stroke: black; stroke-width: 1; fill: none;" d="M0,0H-5m0,3v-6M0,0H5m0,3v-6M0,0V25m3,0h-6M0,0V-27m3,0h-6"></path>
     </g>
     <g transform="translate(677,297)">
      <path style="stroke: black; stroke-width: 1; fill: none;" d="M0,0H-5m0,3v-6M0,0H5m0,3v-6M0,0V25m3,0h-6M0,0V-27m3,0h-6"></path>
     </g>
     <g transform="translate(686,383)">
      <path style="stroke: black; stroke-width: 1; fill: none;" d="M0,0H-5m0,3v-6M0,0H5m0,3v-6M0,0V21m3,0h-6M0,0V-23m3,0h-6"></path>
     </g>
     <g transform="translate(696,340)">
      <path style="stroke: black; stroke-width: 1; fill: none;" d="M0,0H-5m0,3v-6M0,0H5m0,3v-6M0,0V23m3,0h-6M0,0V-25m3,0h-6"></path>
     </g>
     <g transform="translate(706,430)">
      <path style="stroke: black; stroke-width: 1; fill: none;" d="M0,0H-5m0,3v-6M0,0H5m0,3v-6M0,0V19m3,0h-6M0,0V-21m3,0h-6"></path>
     </g>
     <g transform="translate(715,416)">
      <path style="stroke: black; stroke-width: 1; fill: none;" d="M0,0H-5m0,3v-6M0,0H5m0,3v-6M0,0V20m3,0h-6M0,0V-22m3,0h-6"></path>
     </g>
     <g transform="translate(725,412)">
      <path style="stroke: black; stroke-width: 1; fill: none;" d="M0,0H-5m0,3v-6M0,0H5m0,3v-6M0,0V20m3,0h-6M0,0V-22m3,0h-6"></path>
     </g>
     <g transform="translate(734,442)">
      <path style="stroke: black; stroke-width: 1; fill: none;" d="M0,0H-5m0,3v-6M0,0H5m0,3v-6M0,0V19m3,0h-6M0,0V-21m3,0h-6"></path>
     </g>
     <g transform="translate(744,448)">
      <path style="stroke: black; stroke-width: 1; fill: none;" d="M0,0H-5m0,3v-6M0,0H5m0,3v-6M0,0V19m3,0h-6M0,0V-21m3,0h-6"></path>
     </g>
     <g transform="translate(754,526)">
      <path style="stroke: black; stroke-width: 1; fill: none;" d="M0,0H-5m0,3v-6M0,0H5m0,3v-6M0,0V15m3,0h-6M0,0V-17m3,0h-6"></path>
     </g>
     <g transform="translate(763,524)">
      <path style="stroke: black; stroke-width: 1; fill: none;" d="M0,0H-5m0,3v-6M0,0H5m0,3v-6M0,0V15m3,0h-6M0,0V-17m3,0h-6"></path>
     </g>
     <g transform="translate(773,514)">
      <path style="stroke: black; stroke-width: 1; fill: none;" d="M0,0H-5m0,3v-6M0,0H5m0,3v-6M0,0V16m3,0h-6M0,0V-18m3,0h-6"></path>
     </g>
     <g transform="translate(782,507)">
      <path style="stroke: black; stroke-width: 1; fill: none;" d="M0,0H-5m0,3v-6M0,0H5m0,3v-6M0,0V16m3,0h-6M0,0V-18m3,0h-6"></path>
     </g>
     <g transform="translate(792,548)">
      <path style="stroke: black; stroke-width: 1; fill: none;" d="M0,0H-5m0,3v-6M0,0H5m0,3v-6M0,0V13m3,0h-6M0,0V-16m3,0h-6"></path>
     </g>
     <g transform="translate(802,542)">
      <path style="stroke: black; stroke-width: 1; fill: none;" d="M0,0H-5m0,3v-6M0,0H5m0,3v-6M0,0V14m3,0h-6M0,0V-16m3,0h-6"></path>
     </g>
     <g transform="translate(811,569)">
      <path style="stroke: black; stroke-width: 1; fill: none;" d="M0,0H-5m0,3v-6M0,0H5m0,3v-6M0,0V12m3,0h-6M0,0V-14m3,0h-6"></path>
     </g>
     <g transform="translate(821,573)">
      <path style="stroke: black; stroke-width: 1; fill: none;" d="M0,0H-5m0,3v-6M0,0H5m0,3v-6M0,0V11m3,0h-6M0,0V-14m3,0h-6"></path>
     </g>
     <g transform="translate(830,587)">
      <path style="stroke: black; stroke-width: 1; fill: none;" d="M0,0H-5m0,3v-6M0,0H5m0,3v-6M0,0V10m3,0h-6M0,0V-12m3,0h-6"></path>
     </g>
     <g transform="translate(840,605)">
      <path style="stroke: black; stroke-width: 1; fill: none;" d="M0,0H-5m0,3v-6M0,0H5m0,3v-6M0,0V8m3,0h-6M0,0V-10m3,0h-6"></path>
     </g>
     <g transform="translate(850,595)">
      <path style="stroke: black; stroke-width: 1; fill: none;" d="M0,0H-5m0,3v-6M0,0H5m0,3v-6M0,0V9m3,0h-6M0,0V-12m3,0h-6"></path>
     </g>
     <g transform="translate(859,593)">
      <path style="stroke: black; stroke-width: 1; fill: none;" d="M0,0H-5m0,3v-6M0,0H5m0,3v-6M0,0V10m3,0h-6M0,0V-12m3,0h-6"></path>
     </g>
     <g transform="translate(869,614)">
      <path style="stroke: black; stroke-width: 1; fill: none;" d="M0,0H-5m0,3v-6M0,0H5m0,3v-6M0,0V7m3,0h-6M0,0V-9m3,0h-6"></path>
     </g>
     <g transform="translate(878,613)">
      <path style="stroke: black; stroke-width: 1; fill: none;" d="M0,0H-5m0,3v-6M0,0H5m0,3v-6M0,0V7m3,0h-6M0,0V-9m3,0h-6"></path>
     </g>
     <g transform="translate(888,620)">
      <path style="stroke: black; stroke-width: 1; fill: none;" d="M0,0H-5m0,3v-6M0,0H5m0,3v-6M0,0V6m3,0h-6M0,0V-8m3,0h-6"></path>
     </g>
     <g transform="translate(898,624)">
      <path style="stroke: black; stroke-width: 1; fill: none;" d="M0,0H-5m0,3v-6M0,0H5m0,3v-6M0,0V5m3,0h-6M0,0V-8m3,0h-6"></path>
     </g>
     <g transform="translate(907,624)">
      <path style="stroke: black; stroke-width: 1; fill: none;" d="M0,0H-5m0,3v-6M0,0H5m0,3v-6M0,0V5m3,0h-6M0,0V-8m3,0h-6"></path>
     </g>
     <g transform="translate(917,632)">
      <path style="stroke: black; stroke-width: 1; fill: none;" d="M0,0H-5m0,3v-6M0,0H5m0,3v-6M0,0V4m3,0h-6M0,0V-6m3,0h-6"></path>
     </g>
     <g transform="translate(926,628)">
      <path style="stroke: black; stroke-width: 1; fill: none;" d="M0,0H-5m0,3v-6M0,0H5m0,3v-6M0,0V5m3,0h-6M0,0V-7m3,0h-6"></path>
     </g>
     <g transform="translate(936,634)">
      <path style="stroke: black; stroke-width: 1; fill: none;" d="M0,0H-5m0,3v-6M0,0H5m0,3v-6M0,0V3m3,0h-6M0,0V-6m3,0h-6"></path>
     </g>
     <g transform="translate(946,628)">
      <path style="stroke: black; stroke-width: 1; fill: none;" d="M0,0H-5m0,3v-6M0,0H5m0,3v-6M0,0V5m3,0h-6M0,0V-7m3,0h-6"></path>
     </g>
     <g transform="translate(955,632)">
      <path style="stroke: black; stroke-width: 1; fill: none;" d="M0,0H-5m0,3v-6M0,0H5m0,3v-6M0,0V4m3,0h-6M0,0V-6m3,0h-6"></path>
     </g>
     <path d="M1,640a4,4,0,1,0,8,0a4,4,0,1,0,-8,0zM10,640a4,4,0,1,0,8,0a4,4,0,1,0,-8,0zM20,640a4,4,0,1,0,8,0a4,4,0,1,0,-8,0zM30,638a4,4,0,1,0,8,0a4,4,0,1,0,-8,0zM39,640a4,4,0,1,0,8,0a4,4,0,1,0,-8,0zM49,638a4,4,0,1,0,8,0a4,4,0,1,0,-8,0zM58,638a4,4,0,1,0,8,0a4,4,0,1,0,-8,0zM68,640a4,4,0,1,0,8,0a4,4,0,1,0,-8,0zM78,638a4,4,0,1,0,8,0a4,4,0,1,0,-8,0zM87,636a4,4,0,1,0,8,0a4,4,0,1,0,-8,0zM97,630a4,4,0,1,0,8,0a4,4,0,1,0,-8,0zM106,636a4,4,0,1,0,8,0a4,4,0,1,0,-8,0zM116,638a4,4,0,1,0,8,0a4,4,0,1,0,-8,0zM126,626a4,4,0,1,0,8,0a4,4,0,1,0,-8,0zM135,626a4,4,0,1,0,8,0a4,4,0,1,0,-8,0zM145,613a4,4,0,1,0,8,0a4,4,0,1,0,-8,0zM154,636a4,4,0,1,0,8,0a4,4,0,1,0,-8,0zM164,618a4,4,0,1,0,8,0a4,4,0,1,0,-8,0zM174,618a4,4,0,1,0,8,0a4,4,0,1,0,-8,0zM183,611a4,4,0,1,0,8,0a4,4,0,1,0,-8,0zM193,597a4,4,0,1,0,8,0a4,4,0,1,0,-8,0zM202,613a4,4,0,1,0,8,0a4,4,0,1,0,-8,0zM212,573a4,4,0,1,0,8,0a4,4,0,1,0,-8,0zM222,595a4,4,0,1,0,8,0a4,4,0,1,0,-8,0zM231,569a4,4,0,1,0,8,0a4,4,0,1,0,-8,0zM241,573a4,4,0,1,0,8,0a4,4,0,1,0,-8,0zM250,563a4,4,0,1,0,8,0a4,4,0,1,0,-8,0zM260,550a4,4,0,1,0,8,0a4,4,0,1,0,-8,0zM270,534a4,4,0,1,0,8,0a4,4,0,1,0,-8,0zM279,544a4,4,0,1,0,8,0a4,4,0,1,0,-8,0zM289,509a4,4,0,1,0,8,0a4,4,0,1,0,-8,0zM298,459a4,4,0,1,0,8,0a4,4,0,1,0,-8,0zM308,452a4,4,0,1,0,8,0a4,4,0,1,0,-8,0zM318,438a4,4,0,1,0,8,0a4,4,0,1,0,-8,0zM327,430a4,4,0,1,0,8,0a4,4,0,1,0,-8,0zM337,414a4,4,0,1,0,8,0a4,4,0,1,0,-8,0zM346,369a4,4,0,1,0,8,0a4,4,0,1,0,-8,0zM356,391a4,4,0,1,0,8,0a4,4,0,1,0,-8,0zM366,389a4,4,0,1,0,8,0a4,4,0,1,0,-8,0zM375,342a4,4,0,1,0,8,0a4,4,0,1,0,-8,0zM385,332a4,4,0,1,0,8,0a4,4,0,1,0,-8,0zM394,310a4,4,0,1,0,8,0a4,4,0,1,0,-8,0zM404,314a4,4,0,1,0,8,0a4,4,0,1,0,-8,0zM414,251a4,4,0,1,0,8,0a4,4,0,1,0,-8,0zM423,220a4,4,0,1,0,8,0a4,4,0,1,0,-8,0zM433,232a4,4,0,1,0,8,0a4,4,0,1,0,-8,0zM442,193a4,4,0,1,0,8,0a4,4,0,1,0,-8,0zM452,173a4,4,0,1,0,8,0a4,4,0,1,0,-8,0zM462,122a4,4,0,1,0,8,0a4,4,0,1,0,-8,0zM471,185a4,4,0,1,0,8,0a4,4,0,1,0,-8,0zM481,116a4,4,0,1,0,8,0a4,4,0,1,0,-8,0zM490,98a4,4,0,1,0,8,0a4,4,0,1,0,-8,0zM500,161a4,4,0,1,0,8,0a4,4,0,1,0,-8,0zM510,93a4,4,0,1,0,8,0a4,4,0,1,0,-8,0zM519,85a4,4,0,1,0,8,0a4,4,0,1,0,-8,0zM529,146a4,4,0,1,0,8,0a4,4,0,1,0,-8,0zM538,89a4,4,0,1,0,8,0a4,4,0,1,0,-8,0zM548,65a4,4,0,1,0,8,0a4,4,0,1,0,-8,0zM558,142a4,4,0,1,0,8,0a4,4,0,1,0,-8,0zM567,149a4,4,0,1,0,8,0a4,4,0,1,0,-8,0zM577,147a4,4,0,1,0,8,0a4,4,0,1,0,-8,0zM586,208a4,4,0,1,0,8,0a4,4,0,1,0,-8,0zM596,147a4,4,0,1,0,8,0a4,4,0,1,0,-8,0zM606,202a4,4,0,1,0,8,0a4,4,0,1,0,-8,0zM615,206a4,4,0,1,0,8,0a4,4,0,1,0,-8,0zM625,193a4,4,0,1,0,8,0a4,4,0,1,0,-8,0zM634,259a4,4,0,1,0,8,0a4,4,0,1,0,-8,0zM644,265a4,4,0,1,0,8,0a4,4,0,1,0,-8,0zM654,326a4,4,0,1,0,8,0a4,4,0,1,0,-8,0zM663,301a4,4,0,1,0,8,0a4,4,0,1,0,-8,0zM673,297a4,4,0,1,0,8,0a4,4,0,1,0,-8,0zM682,383a4,4,0,1,0,8,0a4,4,0,1,0,-8,0zM692,340a4,4,0,1,0,8,0a4,4,0,1,0,-8,0zM702,430a4,4,0,1,0,8,0a4,4,0,1,0,-8,0zM711,416a4,4,0,1,0,8,0a4,4,0,1,0,-8,0zM721,412a4,4,0,1,0,8,0a4,4,0,1,0,-8,0zM730,442a4,4,0,1,0,8,0a4,4,0,1,0,-8,0zM740,448a4,4,0,1,0,8,0a4,4,0,1,0,-8,0zM750,526a4,4,0,1,0,8,0a4,4,0,1,0,-8,0zM759,524a4,4,0,1,0,8,0a4,4,0,1,0,-8,0zM769,514a4,4,0,1,0,8,0a4,4,0,1,0,-8,0zM778,507a4,4,0,1,0,8,0a4,4,0,1,0,-8,0zM788,548a4,4,0,1,0,8,0a4,4,0,1,0,-8,0zM798,542a4,4,0,1,0,8,0a4,4,0,1,0,-8,0zM807,569a4,4,0,1,0,8,0a4,4,0,1,0,-8,0zM817,573a4,4,0,1,0,8,0a4,4,0,1,0,-8,0zM826,587a4,4,0,1,0,8,0a4,4,0,1,0,-8,0zM836,605a4,4,0,1,0,8,0a4,4,0,1,0,-8,0zM846,595a4,4,0,1,0,8,0a4,4,0,1,0,-8,0zM855,593a4,4,0,1,0,8,0a4,4,0,1,0,-8,0zM865,614a4,4,0,1,0,8,0a4,4,0,1,0,-8,0zM874,613a4,4,0,1,0,8,0a4,4,0,1,0,-8,0zM884,620a4,4,0,1,0,8,0a4,4,0,1,0,-8,0zM894,624a4,4,0,1,0,8,0a4,4,0,1,0,-8,0zM903,624a4,4,0,1,0,8,0a4,4,0,1,0,-8,0zM913,632a4,4,0,1,0,8,0a4,4,0,1,0,-8,0zM922,628a4,4,0,1,0,8,0a4,4,0,1,0,-8,0zM932,634a4,4,0,1,0,8,0a4,4,0,1,0,-8,0zM942,628a4,4,0,1,0,8,0a4,4,0,1,0,-8,0zM951,632a4,4,0,1,0,8,0a4,4,0,1,0,-8,0z" style="stroke: black; fill: black;"></path>
    </g>
    <g>
     <path d="M-10,640v-1h39l9,-1h10l10,-1h9l10,-1l9,-1l10,-1l10,-1l9,-2l10,-1l9,-2l10,-3l10,-3l9,-3l10,-4l9,-4l10,-5l10,-6l9,-6l10,-8l9,-8l10,-9l10,-10l9,-11l10,-11l9,-13l10,-14l10,-15l9,-16l10,-17l9,-18l10,-19l10,-19l9,-20l10,-21l9,-21l10,-21l10,-21l9,-21l10,-21l9,-19l10,-20l10,-18l9,-16l10,-16l9,-13l10,-12l10,-10l9,-8l10,-6l9,-3l10,-2l10,2l9,3l10,6l9,8l10,10l10,12l9,13l10,16l9,16l10,18l10,20l9,19l10,21l9,21l10,21l10,21l9,21l10,21l9,20l10,19l10,19l9,18l10,17l9,16l10,15l10,14l9,13l10,11l9,11l10,10l10,9l9,8l10,8l9,6l10,6l10,5l9,4l10,4l9,3l10,3l10,3l9,2l10,1l9,2l10,1h10v6" style="stroke: #0000ff; stroke-width: 3; fill: none;"></path>
    </g>
   </svg>
   <g>
    <g transform="translate(0,640)">
     <path d="M0,0h960" style="stroke: black; stroke-width: 1;"></path>
     <path d="M0,-24v24m24,-12v12m24,-12v12m24,-12v12m24,-24v24m24,-12v12m24,-12v12m24,-12v12m24,-24v24m24,-12v12m24,-12v12m24,-12v12m24,-24v24m24,-12v12m24,-12v12m24,-12v12m24,-24v24m24,-12v12m24,-12v12m24,-12v12m24,-24v24m24,-12v12m24,-12v12m24,-12v12m24,-24v24m24,-12v12m24,-12v12m24,-12v12m24,-24v24m24,-12v12m24,-12v12m24,-12v12m24,-24v24m24,-12v12m24,-12v12m24,-12v12m24,-24v24m24,-12v12m24,-12v12m24,-12v12m24,-24v24" style="stroke: black; stroke-width: 1;"></path>
     <g font-family="Arial" font-size="28" space="preserve" fill="black" text-anchor="middle">
      <text dy=".8em" transform="translate(0,6)">
       -10
      </text>
      <text dy=".8em" transform="translate(96,6)">
       -8
      </text>
      <text dy=".8em" transform="translate(192,6)">
       -6
      </text>
      <text dy=".8em" transform="translate(288,6)">
       -4
      </text>
      <text dy=".8em" transform="translate(384,6)">
       -2
      </text>
      <text dy=".8em" transform="translate(480,6)">
       0
      </text>
      <text dy=".8em" transform="translate(576,6)">
       2
      </text>
      <text dy=".8em" transform="translate(672,6)">
       4
      </text>
      <text dy=".8em" transform="translate(768,6)">
       6
      </text>
      <text dy=".8em" transform="translate(864,6)">
       8
      </text>
      <text dy=".8em" transform="translate(960,6)">
       10
      </text>
     </g>
     <g font-family="Arial" font-size="28" space="preserve" transform="translate(960,45)">
      <text fill="black" text-anchor="end" dy=".4em">
       x
      </text>
     </g>
    </g>
    <g>
     <path d="M0,0v640" style="stroke: black; stroke-width: 1;"></path>
     <path d="M36,640h-36m18,-20h-18m18,-19h-18m18,-20h-18m18,-19h-18m36,-20h-36m18,-20h-18m18,-19h-18m18,-20h-18m18,-20h-18m36,-19h-36m18,-20h-18m18,-19h-18m18,-20h-18m18,-20h-18m36,-19h-36m18,-20h-18m18,-20h-18m18,-19h-18m18,-20h-18m36,-19h-36m18,-20h-18m18,-20h-18m18,-19h-18m18,-20h-18m36,-20h-36m18,-19h-18m18,-20h-18m18,-19h-18m18,-20h-18m36,-20h-36m18,-19h-18m18,-20h-18" style="stroke: black; stroke-width: 1;"></path>
     <g font-family="Arial" font-size="28" space="preserve" fill="black" text-anchor="end">
      <text dy=".4em" transform="translate(-4,640)">
       0
      </text>
      <text dy=".4em" transform="translate(-4,542)">
       50
      </text>
      <text dy=".4em" transform="translate(-4,444)">
       100
      </text>
      <text dy=".4em" transform="translate(-4,346)">
       150
      </text>
      <text dy=".4em" transform="translate(-4,248)">
       200
      </text>
      <text dy=".4em" transform="translate(-4,149)">
       250
      </text>
      <text dy=".4em" transform="translate(-4,51)">
       300
      </text>
     </g>
     <g font-family="Arial" font-size="28" space="preserve" transform="translate(-67,0)">
      <text fill="black" text-anchor="end" dy=".4em" transform=" rotate(270)">
       Events / ( 0.2 )
      </text>
     </g>
    </g>
   </g>
  </g>
  <g transform="translate(120,4)" font-family="Arial" font-size="40" space="preserve">
   <text fill="black" text-anchor="middle" dy=".8em" transform="translate(480)">
    Gaussian p.d.f. with data
   </text>
  </g>
 </g>
</svg>