<svg xmlns="http://www.w3.org/2000/svg" viewBox="0 0 696 472" preserveAspectRatio="none" width="696" height="472">
 <path d="M0,0H696V472H0Z" style="fill: white;"></path>
 <g>
  <g transform="translate(70,47)">
   <path d="M0,0H557V378H0Z" style="fill: white; stroke: black; stroke-width: 1;"></path>
   <svg x="0" y="0" overflow="hidden" width="557" height="378" viewBox="0 0 557 378">
    <g>
     <path d="MNaN,213.53aNaN,NaN,0,1,0,NaN,0aNaN,NaN,0,1,0,-NaN,0z" style="stroke: #e2c04b; fill: #e2c04b;"></path>
     <path d="MNaN,294.09aNaN,NaN,0,1,0,NaN,0aNaN,NaN,0,1,0,-NaN,0z" style="stroke: #e2c04b; fill: #e2c04b;"></path>
     <path d="MNaN,157.64aNaN,NaN,0,1,0,NaN,0aNaN,NaN,0,1,0,-NaN,0z" style="stroke: #2eb7a4; fill: #2eb7a4;"></path>
     <path d="MNaN,32.52aNaN,NaN,0,1,0,NaN,0aNaN,NaN,0,1,0,-NaN,0z" style="stroke: #e2c04b; fill: #e2c04b;"></path>
     <path d="MNaN,223.98aNaN,NaN,0,1,0,NaN,0aNaN,NaN,0,1,0,-NaN,0z" style="stroke: #2b379d; fill: #2b379d;"></path>
     <path d="MNaN,182.81aNaN,NaN,0,1,0,NaN,0aNaN,NaN,0,1,0,-NaN,0z" style="stroke: #c5bc5e; fill: #c5bc5e;"></path>
     <path d="MNaN,271.57aNaN,NaN,0,1,0,NaN,0aNaN,NaN,0,1,0,-NaN,0z" style="stroke: #1168db; fill: #1168db;"></path>
     <path d="MNaN,51.07aNaN,NaN,0,1,0,NaN,0aNaN,NaN,0,1,0,-NaN,0z" style="stroke: #e2c04b; fill: #e2c04b;"></path>
     <path d="MNaN,77.67aNaN,NaN,0,1,0,NaN,0aNaN,NaN,0,1,0,-NaN,0z" style="stroke: #1285d4; fill: #1285d4;"></path>
     <path d="MNaN,81.87aNaN,NaN,0,1,0,NaN,0aNaN,NaN,0,1,0,-NaN,0z" style="stroke: #b3bd65; fill: #b3bd65;"></path>
     <path d="MNaN,201.66aNaN,NaN,0,1,0,NaN,0aNaN,NaN,0,1,0,-NaN,0z" style="stroke: #8cbf75; fill: #8cbf75;"></path>
     <path d="MNaN,44.92aNaN,NaN,0,1,0,NaN,0aNaN,NaN,0,1,0,-NaN,0z" style="stroke: #44b999; fill: #44b999;"></path>
     <path d="MNaN,32.95aNaN,NaN,0,1,0,NaN,0aNaN,NaN,0,1,0,-NaN,0z" style="stroke: #f9f90f; fill: #f9f90f;"></path>
     <path d="MNaN,117.14aNaN,NaN,0,1,0,NaN,0aNaN,NaN,0,1,0,-NaN,0z" style="stroke: #f9f90f; fill: #f9f90f;"></path>
     <path d="MNaN,320.62aNaN,NaN,0,1,0,NaN,0aNaN,NaN,0,1,0,-NaN,0z" style="stroke: #74bd81; fill: #74bd81;"></path>
     <path d="MNaN,100.58aNaN,NaN,0,1,0,NaN,0aNaN,NaN,0,1,0,-NaN,0z" style="stroke: #1285d4; fill: #1285d4;"></path>
     <path d="MNaN,31.50aNaN,NaN,0,1,0,NaN,0aNaN,NaN,0,1,0,-NaN,0z" style="stroke: #23b2af; fill: #23b2af;"></path>
     <path d="MNaN,266.42aNaN,NaN,0,1,0,NaN,0aNaN,NaN,0,1,0,-NaN,0z" style="stroke: #d6bd54; fill: #d6bd54;"></path>
     <path d="MNaN,228.34aNaN,NaN,0,1,0,NaN,0aNaN,NaN,0,1,0,-NaN,0z" style="stroke: #1285d4; fill: #1285d4;"></path>
     <path d="MNaN,334.97aNaN,NaN,0,1,0,NaN,0aNaN,NaN,0,1,0,-NaN,0z" style="stroke: #fac736; fill: #fac736;"></path>
     <path d="MNaN,55.28aNaN,NaN,0,1,0,NaN,0aNaN,NaN,0,1,0,-NaN,0z" style="stroke: #137cd7; fill: #137cd7;"></path>
     <path d="MNaN,81.72aNaN,NaN,0,1,0,NaN,0aNaN,NaN,0,1,0,-NaN,0z" style="stroke: #0da7c3; fill: #0da7c3;"></path>
     <path d="MNaN,60.79aNaN,NaN,0,1,0,NaN,0aNaN,NaN,0,1,0,-NaN,0z" style="stroke: #d6bd54; fill: #d6bd54;"></path>
     <path d="MNaN,300.42aNaN,NaN,0,1,0,NaN,0aNaN,NaN,0,1,0,-NaN,0z" style="stroke: #0f5edd; fill: #0f5edd;"></path>
     <path d="MNaN,166.20aNaN,NaN,0,1,0,NaN,0aNaN,NaN,0,1,0,-NaN,0z" style="stroke: #1285d4; fill: #1285d4;"></path>
     <path d="MNaN,315.48aNaN,NaN,0,1,0,NaN,0aNaN,NaN,0,1,0,-NaN,0z" style="stroke: #faed18; fill: #faed18;"></path>
     <path d="MNaN,212.35aNaN,NaN,0,1,0,NaN,0aNaN,NaN,0,1,0,-NaN,0z" style="stroke: #0b98ce; fill: #0b98ce;"></path>
     <path d="MNaN,293.57aNaN,NaN,0,1,0,NaN,0aNaN,NaN,0,1,0,-NaN,0z" style="stroke: #1168db; fill: #1168db;"></path>
     <path d="MNaN,228.47aNaN,NaN,0,1,0,NaN,0aNaN,NaN,0,1,0,-NaN,0z" style="stroke: #19adb8; fill: #19adb8;"></path>
     <path d="MNaN,104.52aNaN,NaN,0,1,0,NaN,0aNaN,NaN,0,1,0,-NaN,0z" style="stroke: #23b2af; fill: #23b2af;"></path>
     <path d="MNaN,106.30aNaN,NaN,0,1,0,NaN,0aNaN,NaN,0,1,0,-NaN,0z" style="stroke: #fac736; fill: #fac736;"></path>
     <path d="MNaN,125.78aNaN,NaN,0,1,0,NaN,0aNaN,NaN,0,1,0,-NaN,0z" style="stroke: #eec440; fill: #eec440;"></path>
     <path d="MNaN,265.58aNaN,NaN,0,1,0,NaN,0aNaN,NaN,0,1,0,-NaN,0z" style="stroke: #f9f90f; fill: #f9f90f;"></path>
     <path d="MNaN,182.66aNaN,NaN,0,1,0,NaN,0aNaN,NaN,0,1,0,-NaN,0z" style="stroke: #07a1cb; fill: #07a1cb;"></path>
     <path d="MNaN,138.27aNaN,NaN,0,1,0,NaN,0aNaN,NaN,0,1,0,-NaN,0z" style="stroke: #1272d9; fill: #1272d9;"></path>
     <path d="MNaN,114.76aNaN,NaN,0,1,0,NaN,0aNaN,NaN,0,1,0,-NaN,0z" style="stroke: #fcde22; fill: #fcde22;"></path>
     <path d="MNaN,182.62aNaN,NaN,0,1,0,NaN,0aNaN,NaN,0,1,0,-NaN,0z" style="stroke: #d6bd54; fill: #d6bd54;"></path>
     <path d="MNaN,64.77aNaN,NaN,0,1,0,NaN,0aNaN,NaN,0,1,0,-NaN,0z" style="stroke: #e2c04b; fill: #e2c04b;"></path>
     <path d="MNaN,129.39aNaN,NaN,0,1,0,NaN,0aNaN,NaN,0,1,0,-NaN,0z" style="stroke: #5dbb8c; fill: #5dbb8c;"></path>
     <path d="MNaN,172.29aNaN,NaN,0,1,0,NaN,0aNaN,NaN,0,1,0,-NaN,0z" style="stroke: #fac736; fill: #fac736;"></path>
     <path d="MNaN,123.33aNaN,NaN,0,1,0,NaN,0aNaN,NaN,0,1,0,-NaN,0z" style="stroke: #9ebe6e; fill: #9ebe6e;"></path>
     <path d="MNaN,307.42aNaN,NaN,0,1,0,NaN,0aNaN,NaN,0,1,0,-NaN,0z" style="stroke: #1652cd; fill: #1652cd;"></path>
     <path d="MNaN,317.89aNaN,NaN,0,1,0,NaN,0aNaN,NaN,0,1,0,-NaN,0z" style="stroke: #fac736; fill: #fac736;"></path>
     <path d="MNaN,161.17aNaN,NaN,0,1,0,NaN,0aNaN,NaN,0,1,0,-NaN,0z" style="stroke: #b3bd65; fill: #b3bd65;"></path>
     <path d="MNaN,192.35aNaN,NaN,0,1,0,NaN,0aNaN,NaN,0,1,0,-NaN,0z" style="stroke: #2b379d; fill: #2b379d;"></path>
     <path d="MNaN,327.55aNaN,NaN,0,1,0,NaN,0aNaN,NaN,0,1,0,-NaN,0z" style="stroke: #1652cd; fill: #1652cd;"></path>
     <path d="MNaN,129.53aNaN,NaN,0,1,0,NaN,0aNaN,NaN,0,1,0,-NaN,0z" style="stroke: #1168db; fill: #1168db;"></path>
     <path d="MNaN,252.24aNaN,NaN,0,1,0,NaN,0aNaN,NaN,0,1,0,-NaN,0z" style="stroke: #eec440; fill: #eec440;"></path>
     <path d="MNaN,177.67aNaN,NaN,0,1,0,NaN,0aNaN,NaN,0,1,0,-NaN,0z" style="stroke: #fdd22b; fill: #fdd22b;"></path>
     <path d="MNaN,345.87aNaN,NaN,0,1,0,NaN,0aNaN,NaN,0,1,0,-NaN,0z" style="stroke: #23b2af; fill: #23b2af;"></path>
     <path d="MNaN,121.05aNaN,NaN,0,1,0,NaN,0aNaN,NaN,0,1,0,-NaN,0z" style="stroke: #f9f90f; fill: #f9f90f;"></path>
     <path d="MNaN,329.37aNaN,NaN,0,1,0,NaN,0aNaN,NaN,0,1,0,-NaN,0z" style="stroke: #1652cd; fill: #1652cd;"></path>
     <path d="MNaN,224.87aNaN,NaN,0,1,0,NaN,0aNaN,NaN,0,1,0,-NaN,0z" style="stroke: #5dbb8c; fill: #5dbb8c;"></path>
     <path d="MNaN,157.34aNaN,NaN,0,1,0,NaN,0aNaN,NaN,0,1,0,-NaN,0z" style="stroke: #1168db; fill: #1168db;"></path>
     <path d="MNaN,116.08aNaN,NaN,0,1,0,NaN,0aNaN,NaN,0,1,0,-NaN,0z" style="stroke: #8cbf75; fill: #8cbf75;"></path>
     <path d="MNaN,346.50aNaN,NaN,0,1,0,NaN,0aNaN,NaN,0,1,0,-NaN,0z" style="stroke: #19adb8; fill: #19adb8;"></path>
     <path d="MNaN,242.16aNaN,NaN,0,1,0,NaN,0aNaN,NaN,0,1,0,-NaN,0z" style="stroke: #eec440; fill: #eec440;"></path>
     <path d="MNaN,122.73aNaN,NaN,0,1,0,NaN,0aNaN,NaN,0,1,0,-NaN,0z" style="stroke: #d6bd54; fill: #d6bd54;"></path>
     <path d="MNaN,196.66aNaN,NaN,0,1,0,NaN,0aNaN,NaN,0,1,0,-NaN,0z" style="stroke: #c5bc5e; fill: #c5bc5e;"></path>
     <path d="MNaN,49.93aNaN,NaN,0,1,0,NaN,0aNaN,NaN,0,1,0,-NaN,0z" style="stroke: #fcde22; fill: #fcde22;"></path>
     <path d="MNaN,257.35aNaN,NaN,0,1,0,NaN,0aNaN,NaN,0,1,0,-NaN,0z" style="stroke: #0da7c3; fill: #0da7c3;"></path>
     <path d="MNaN,256.37aNaN,NaN,0,1,0,NaN,0aNaN,NaN,0,1,0,-NaN,0z" style="stroke: #fdd22b; fill: #fdd22b;"></path>
     <path d="MNaN,108.33aNaN,NaN,0,1,0,NaN,0aNaN,NaN,0,1,0,-NaN,0z" style="stroke: #19adb8; fill: #19adb8;"></path>
     <path d="MNaN,287.21aNaN,NaN,0,1,0,NaN,0aNaN,NaN,0,1,0,-NaN,0z" style="stroke: #23b2af; fill: #23b2af;"></path>
     <path d="MNaN,140.24aNaN,NaN,0,1,0,NaN,0aNaN,NaN,0,1,0,-NaN,0z" style="stroke: #1285d4; fill: #1285d4;"></path>
     <path d="MNaN,265.84aNaN,NaN,0,1,0,NaN,0aNaN,NaN,0,1,0,-NaN,0z" style="stroke: #23b2af; fill: #23b2af;"></path>
     <path d="MNaN,251.68aNaN,NaN,0,1,0,NaN,0aNaN,NaN,0,1,0,-NaN,0z" style="stroke: #fdd22b; fill: #fdd22b;"></path>
     <path d="MNaN,191.14aNaN,NaN,0,1,0,NaN,0aNaN,NaN,0,1,0,-NaN,0z" style="stroke: #f9f90f; fill: #f9f90f;"></path>
     <path d="MNaN,276.84aNaN,NaN,0,1,0,NaN,0aNaN,NaN,0,1,0,-NaN,0z" style="stroke: #2144b4; fill: #2144b4;"></path>
     <path d="MNaN,226.22aNaN,NaN,0,1,0,NaN,0aNaN,NaN,0,1,0,-NaN,0z" style="stroke: #1285d4; fill: #1285d4;"></path>
     <path d="MNaN,135.50aNaN,NaN,0,1,0,NaN,0aNaN,NaN,0,1,0,-NaN,0z" style="stroke: #8cbf75; fill: #8cbf75;"></path>
     <path d="MNaN,75.06aNaN,NaN,0,1,0,NaN,0aNaN,NaN,0,1,0,-NaN,0z" style="stroke: #eec440; fill: #eec440;"></path>
     <path d="MNaN,339.88aNaN,NaN,0,1,0,NaN,0aNaN,NaN,0,1,0,-NaN,0z" style="stroke: #44b999; fill: #44b999;"></path>
     <path d="MNaN,302.44aNaN,NaN,0,1,0,NaN,0aNaN,NaN,0,1,0,-NaN,0z" style="stroke: #1652cd; fill: #1652cd;"></path>
     <path d="MNaN,320.26aNaN,NaN,0,1,0,NaN,0aNaN,NaN,0,1,0,-NaN,0z" style="stroke: #fdd22b; fill: #fdd22b;"></path>
     <path d="MNaN,203.38aNaN,NaN,0,1,0,NaN,0aNaN,NaN,0,1,0,-NaN,0z" style="stroke: #1272d9; fill: #1272d9;"></path>
     <path d="MNaN,280.33aNaN,NaN,0,1,0,NaN,0aNaN,NaN,0,1,0,-NaN,0z" style="stroke: #c5bc5e; fill: #c5bc5e;"></path>
     <path d="MNaN,154.36aNaN,NaN,0,1,0,NaN,0aNaN,NaN,0,1,0,-NaN,0z" style="stroke: #07a1cb; fill: #07a1cb;"></path>
     <path d="MNaN,236.69aNaN,NaN,0,1,0,NaN,0aNaN,NaN,0,1,0,-NaN,0z" style="stroke: #faed18; fill: #faed18;"></path>
     <path d="MNaN,196.61aNaN,NaN,0,1,0,NaN,0aNaN,NaN,0,1,0,-NaN,0z" style="stroke: #23b2af; fill: #23b2af;"></path>
     <path d="MNaN,49.78aNaN,NaN,0,1,0,NaN,0aNaN,NaN,0,1,0,-NaN,0z" style="stroke: #74bd81; fill: #74bd81;"></path>
     <path d="MNaN,245.62aNaN,NaN,0,1,0,NaN,0aNaN,NaN,0,1,0,-NaN,0z" style="stroke: #1285d4; fill: #1285d4;"></path>
     <path d="MNaN,129.19aNaN,NaN,0,1,0,NaN,0aNaN,NaN,0,1,0,-NaN,0z" style="stroke: #9ebe6e; fill: #9ebe6e;"></path>
     <path d="MNaN,340.21aNaN,NaN,0,1,0,NaN,0aNaN,NaN,0,1,0,-NaN,0z" style="stroke: #8cbf75; fill: #8cbf75;"></path>
     <path d="MNaN,274.71aNaN,NaN,0,1,0,NaN,0aNaN,NaN,0,1,0,-NaN,0z" style="stroke: #1168db; fill: #1168db;"></path>
     <path d="MNaN,296.81aNaN,NaN,0,1,0,NaN,0aNaN,NaN,0,1,0,-NaN,0z" style="stroke: #07a1cb; fill: #07a1cb;"></path>
     <path d="MNaN,143.64aNaN,NaN,0,1,0,NaN,0aNaN,NaN,0,1,0,-NaN,0z" style="stroke: #9ebe6e; fill: #9ebe6e;"></path>
     <path d="MNaN,37.80aNaN,NaN,0,1,0,NaN,0aNaN,NaN,0,1,0,-NaN,0z" style="stroke: #2eb7a4; fill: #2eb7a4;"></path>
     <path d="MNaN,75.04aNaN,NaN,0,1,0,NaN,0aNaN,NaN,0,1,0,-NaN,0z" style="stroke: #2b379d; fill: #2b379d;"></path>
     <path d="MNaN,277.03aNaN,NaN,0,1,0,NaN,0aNaN,NaN,0,1,0,-NaN,0z" style="stroke: #c5bc5e; fill: #c5bc5e;"></path>
     <path d="MNaN,49.76aNaN,NaN,0,1,0,NaN,0aNaN,NaN,0,1,0,-NaN,0z" style="stroke: #eec440; fill: #eec440;"></path>
     <path d="MNaN,71.85aNaN,NaN,0,1,0,NaN,0aNaN,NaN,0,1,0,-NaN,0z" style="stroke: #0b98ce; fill: #0b98ce;"></path>
     <path d="MNaN,276.78aNaN,NaN,0,1,0,NaN,0aNaN,NaN,0,1,0,-NaN,0z" style="stroke: #c5bc5e; fill: #c5bc5e;"></path>
     <path d="MNaN,126.26aNaN,NaN,0,1,0,NaN,0aNaN,NaN,0,1,0,-NaN,0z" style="stroke: #44b999; fill: #44b999;"></path>
     <path d="MNaN,232.62aNaN,NaN,0,1,0,NaN,0aNaN,NaN,0,1,0,-NaN,0z" style="stroke: #8cbf75; fill: #8cbf75;"></path>
     <path d="MNaN,105.01aNaN,NaN,0,1,0,NaN,0aNaN,NaN,0,1,0,-NaN,0z" style="stroke: #2144b4; fill: #2144b4;"></path>
     <path d="MNaN,278.76aNaN,NaN,0,1,0,NaN,0aNaN,NaN,0,1,0,-NaN,0z" style="stroke: #f9f90f; fill: #f9f90f;"></path>
     <path d="MNaN,112.30aNaN,NaN,0,1,0,NaN,0aNaN,NaN,0,1,0,-NaN,0z" style="stroke: #0e8fd1; fill: #0e8fd1;"></path>
     <path d="MNaN,145.87aNaN,NaN,0,1,0,NaN,0aNaN,NaN,0,1,0,-NaN,0z" style="stroke: #44b999; fill: #44b999;"></path>
     <path d="MNaN,306.25aNaN,NaN,0,1,0,NaN,0aNaN,NaN,0,1,0,-NaN,0z" style="stroke: #74bd81; fill: #74bd81;"></path>
    </g>
   </svg>
   <g>
    <g transform="translate(0,378)">
     <path d="M0,0h557M22,-7V0M46,-14V0M71,-7V0M95,-7V0M120,-7V0M144,-14V0M169,-7V0M193,-7V0M218,-7V0M242,-14V0M267,-7V0M291,-7V0M316,-7V0M340,-14V0M365,-7V0M389,-7V0M414,-7V0M438,-14V0M463,-7V0M487,-7V0M512,-7V0M536,-14V0" style="stroke: black; stroke-width: 1;"></path>
     <g font-family="Arial" font-size="17" space="preserve" fill="black" text-anchor="middle">
      <text dy=".8em" transform="translate(46)">
       0
      </text>
      <text dy=".8em" transform="translate(144)">
       20
      </text>
      <text dy=".8em" transform="translate(242)">
       40
      </text>
      <text dy=".8em" transform="translate(340)">
       60
      </text>
      <text dy=".8em" transform="translate(438)">
       80
      </text>
      <text dy=".8em" transform="translate(536)">
       100
      </text>
     </g>
     <g font-family="Arial" font-size="17" space="preserve" transform="translate(557,27)">
      <text fill="black" text-anchor="end" dy=".4em">
       X
      </text>
     </g>
    </g>
    <g>
     <path d="M0,0v378M11,364H0M21,348H0M11,332H0M11,316H0M11,300H0M11,284H0M21,268H0M11,253H0M11,237H0M11,221H0M11,205H0M21,189H0M11,173H0M11,157H0M11,142H0M11,126H0M21,110H0M11,94H0M11,78H0M11,62H0M11,46H0M21,31H0M11,15H0" style="stroke: black; stroke-width: 1;"></path>
     <g font-family="Arial" font-size="17" space="preserve" fill="black" text-anchor="end">
      <text dy=".4em" transform="translate(-2,348)">
       0
      </text>
      <text dy=".4em" transform="translate(-2,268)">
       50
      </text>
      <text dy=".4em" transform="translate(-2,189)">
       100
      </text>
      <text dy=".4em" transform="translate(-2,110)">
       150
      </text>
      <text dy=".4em" transform="translate(-2,31)">
       200
      </text>
     </g>
     <g font-family="Arial" font-size="17" space="preserve" transform="translate(-40)">
      <text fill="black" text-anchor="end" dy=".4em" transform="rotate(270)">
       Y
      </text>
     </g>
    </g>
   </g>
  </g>
  <g transform="translate(70,2)" font-family="Arial" font-size="24" space="preserve">
   <text fill="black" text-anchor="middle" dy=".8em" transform="translate(279)">
    Scatter plot
   </text>
  </g>
  <g transform="translate(630,47)">
   <path d="M0,0H31V378H0Z" style="fill: none; stroke: black; stroke-width: 1;"></path>
   <path d="M0,365H31V378H0Z" style="fill: #2144b4;"></path>
   <path d="M0,353H31V366H0Z" style="fill: #2144b4;"></path>
   <path d="M0,340H31V354H0Z" style="fill: #1652cd;"></path>
   <path d="M0,328H31V341H0Z" style="fill: #0f5edd;"></path>
   <path d="M0,315H31V329H0Z" style="fill: #1168db;"></path>
   <path d="M0,302H31V316H0Z" style="fill: #1272d9;"></path>
   <path d="M0,290H31V303H0Z" style="fill: #137cd7;"></path>
   <path d="M0,277H31V291H0Z" style="fill: #1285d4;"></path>
   <path d="M0,265H31V278H0Z" style="fill: #0e8fd1;"></path>
   <path d="M0,252H31V266H0Z" style="fill: #0b98ce;"></path>
   <path d="M0,239H31V253H0Z" style="fill: #07a1cb;"></path>
   <path d="M0,227H31V240H0Z" style="fill: #0da7c3;"></path>
   <path d="M0,214H31V228H0Z" style="fill: #19adb8;"></path>
   <path d="M0,202H31V215H0Z" style="fill: #23b2af;"></path>
   <path d="M0,189H31V203H0Z" style="fill: #2eb7a4;"></path>
   <path d="M0,176H31V190H0Z" style="fill: #44b999;"></path>
   <path d="M0,164H31V177H0Z" style="fill: #5dbb8c;"></path>
   <path d="M0,151H31V165H0Z" style="fill: #74bd81;"></path>
   <path d="M0,139H31V152H0Z" style="fill: #8cbf75;"></path>
   <path d="M0,126H31V140H0Z" style="fill: #9ebe6e;"></path>
   <path d="M0,113H31V127H0Z" style="fill: #b3bd65;"></path>
   <path d="M0,101H31V114H0Z" style="fill: #c5bc5e;"></path>
   <path d="M0,88H31V102H0Z" style="fill: #d6bd54;"></path>
   <path d="M0,76H31V89H0Z" style="fill: #e2c04b;"></path>
   <path d="M0,63H31V77H0Z" style="fill: #eec440;"></path>
   <path d="M0,50H31V64H0Z" style="fill: #fac736;"></path>
   <path d="M0,38H31V51H0Z" style="fill: #fdd22b;"></path>
   <path d="M0,25H31V39H0Z" style="fill: #fcde22;"></path>
   <path d="M0,13H31V26H0Z" style="fill: #faed18;"></path>
   <path d="M0,0H31V14H0Z" style="fill: #f9f90f;"></path>
   <g transform="translate(31)">
    <path d="M0,0v378M0,366H-10M0,353H-10M0,340H-10M0,327H-10M0,315H-19M0,302H-10M0,289H-10M0,276H-10M0,264H-10M0,251H-19M0,238H-10M0,225H-10M0,213H-10M0,200H-10M0,187H-19M0,174H-10M0,162H-10M0,149H-10M0,136H-10M0,123H-19M0,111H-10M0,98H-10M0,85H-10M0,72H-10M0,60H-19M0,47H-10M0,34H-10M0,21H-10M0,9H-10" style="stroke: black; stroke-width: 1;"></path>
    <g font-family="Arial" font-size="17" space="preserve" fill="black" text-anchor="start">
     <text dy=".4em" transform="translate(2,315)">
      50
     </text>
     <text dy=".4em" transform="translate(2,251)">
      100
     </text>
     <text dy=".4em" transform="translate(2,187)">
      150
     </text>
     <text dy=".4em" transform="translate(2,123)">
      200
     </text>
     <text dy=".4em" transform="translate(2,60)">
      250
     </text>
    </g>
   </g>
  </g>
 </g>
</svg>