<svg xmlns="http://www.w3.org/2000/svg" viewBox="0 0 696 472" preserveAspectRatio="none" width="696" height="472">
 <path d="M0,0H696V472H0Z" style="fill: white;"></path>
 <g>
  <g transform="translate(70,47)">
   <path d="M0,0H557V378H0Z" style="fill: white; stroke: black; stroke-width: 1;"></path>
   <svg x="0" y="0" overflow="hidden" width="557" height="378" viewBox="0 0 557 378">
    <g>
     <path d="M114,233a8,8,0,1,0,16,0a8,8,0,1,0,-16,0z" style="stroke: #e2c04b; fill: #e2c04b;"></path>
     <path d="M134,321a7,7,0,1,0,14,0a7,7,0,1,0,-14,0z" style="stroke: #e2c04b; fill: #e2c04b;"></path>
     <path d="M451,172a18,18,0,1,0,36,0a18,18,0,1,0,-36,0z" style="stroke: #2eb7a4; fill: #2eb7a4;"></path>
     <path d="M230,35a4,4,0,1,0,8,0a4,4,0,1,0,-8,0z" style="stroke: #e2c04b; fill: #e2c04b;"></path>
     <path d="M459,244a4,4,0,1,0,8,0a4,4,0,1,0,-8,0z" style="stroke: #2b379d; fill: #2b379d;"></path>
     <path d="M456,199a9,9,0,1,0,18,0a9,9,0,1,0,-18,0z" style="stroke: #c5bc5e; fill: #c5bc5e;"></path>
     <path d="M497,296a4,4,0,1,0,8,0a4,4,0,1,0,-8,0z" style="stroke: #1168db; fill: #1168db;"></path>
     <path d="M99,56a7,7,0,1,0,14,0a7,7,0,1,0,-14,0z" style="stroke: #e2c04b; fill: #e2c04b;"></path>
     <path d="M325,85a9,9,0,1,0,18,0a9,9,0,1,0,-18,0z" style="stroke: #1285d4; fill: #1285d4;"></path>
     <path d="M270,89a7,7,0,1,0,14,0a7,7,0,1,0,-14,0z" style="stroke: #b3bd65; fill: #b3bd65;"></path>
     <path d="M34,220a19,19,0,1,0,38,0a19,19,0,1,0,-38,0z" style="stroke: #8cbf75; fill: #8cbf75;"></path>
     <path d="M109,49a11,11,0,1,0,22,0a11,11,0,1,0,-22,0z" style="stroke: #44b999; fill: #44b999;"></path>
     <path d="M275,36a5,5,0,1,0,10,0a5,5,0,1,0,-10,0z" style="stroke: #f9f90f; fill: #f9f90f;"></path>
     <path d="M501,128a10,10,0,1,0,20,0a10,10,0,1,0,-20,0z" style="stroke: #f9f90f; fill: #f9f90f;"></path>
     <path d="M83,350a7,7,0,1,0,14,0a7,7,0,1,0,-14,0z" style="stroke: #74bd81; fill: #74bd81;"></path>
     <path d="M100,110a17,17,0,1,0,34,0a17,17,0,1,0,-34,0z" style="stroke: #1285d4; fill: #1285d4;"></path>
     <path d="M487,34a19,19,0,1,0,38,0a19,19,0,1,0,-38,0z" style="stroke: #23b2af; fill: #23b2af;"></path>
     <path d="M446,291a9,9,0,1,0,18,0a9,9,0,1,0,-18,0z" style="stroke: #d6bd54; fill: #d6bd54;"></path>
     <path d="M339,249a7,7,0,1,0,14,0a7,7,0,1,0,-14,0z" style="stroke: #1285d4; fill: #1285d4;"></path>
     <path d="M344,365a7,7,0,1,0,14,0a7,7,0,1,0,-14,0z" style="stroke: #fac736; fill: #fac736;"></path>
     <path d="M70,60a8,8,0,1,0,16,0a8,8,0,1,0,-16,0z" style="stroke: #137cd7; fill: #137cd7;"></path>
     <path d="M379,89a12,12,0,1,0,24,0a12,12,0,1,0,-24,0z" style="stroke: #0da7c3; fill: #0da7c3;"></path>
     <path d="M472,66a17,17,0,1,0,34,0a17,17,0,1,0,-34,0z" style="stroke: #d6bd54; fill: #d6bd54;"></path>
     <path d="M183,328a13,13,0,1,0,26,0a13,13,0,1,0,-26,0z" style="stroke: #0f5edd; fill: #0f5edd;"></path>
     <path d="M42,181a5,5,0,1,0,10,0a5,5,0,1,0,-10,0z" style="stroke: #1285d4; fill: #1285d4;"></path>
     <path d="M297,344a5,5,0,1,0,10,0a5,5,0,1,0,-10,0z" style="stroke: #faed18; fill: #faed18;"></path>
     <path d="M295,232a10,10,0,1,0,20,0a10,10,0,1,0,-20,0z" style="stroke: #0b98ce; fill: #0b98ce;"></path>
     <path d="M284,320a9,9,0,1,0,18,0a9,9,0,1,0,-18,0z" style="stroke: #1168db; fill: #1168db;"></path>
     <path d="M189,249a16,16,0,1,0,32,0a16,16,0,1,0,-32,0z" style="stroke: #19adb8; fill: #19adb8;"></path>
     <path d="M44,114a18,18,0,1,0,36,0a18,18,0,1,0,-36,0z" style="stroke: #23b2af; fill: #23b2af;"></path>
     <path d="M355,116a17,17,0,1,0,34,0a17,17,0,1,0,-34,0z" style="stroke: #fac736; fill: #fac736;"></path>
     <path d="M267,137a14,14,0,1,0,28,0a14,14,0,1,0,-28,0z" style="stroke: #eec440; fill: #eec440;"></path>
     <path d="M228,290a18,18,0,1,0,36,0a18,18,0,1,0,-36,0z" style="stroke: #f9f90f; fill: #f9f90f;"></path>
     <path d="M97,199a7,7,0,1,0,14,0a7,7,0,1,0,-14,0z" style="stroke: #07a1cb; fill: #07a1cb;"></path>
     <path d="M279,151a5,5,0,1,0,10,0a5,5,0,1,0,-10,0z" style="stroke: #1272d9; fill: #1272d9;"></path>
     <path d="M436,125a19,19,0,1,0,38,0a19,19,0,1,0,-38,0z" style="stroke: #fcde22; fill: #fcde22;"></path>
     <path d="M434,199a8,8,0,1,0,16,0a8,8,0,1,0,-16,0z" style="stroke: #d6bd54; fill: #d6bd54;"></path>
     <path d="M122,71a17,17,0,1,0,34,0a17,17,0,1,0,-34,0z" style="stroke: #e2c04b; fill: #e2c04b;"></path>
     <path d="M294,141a7,7,0,1,0,14,0a7,7,0,1,0,-14,0z" style="stroke: #5dbb8c; fill: #5dbb8c;"></path>
     <path d="M470,188a6,6,0,1,0,12,0a6,6,0,1,0,-12,0z" style="stroke: #fac736; fill: #fac736;"></path>
     <path d="M338,134a18,18,0,1,0,36,0a18,18,0,1,0,-36,0z" style="stroke: #9ebe6e; fill: #9ebe6e;"></path>
     <path d="M300,335a15,15,0,1,0,30,0a15,15,0,1,0,-30,0z" style="stroke: #1652cd; fill: #1652cd;"></path>
     <path d="M58,347a10,10,0,1,0,20,0a10,10,0,1,0,-20,0z" style="stroke: #fac736; fill: #fac736;"></path>
     <path d="M37,176a10,10,0,1,0,20,0a10,10,0,1,0,-20,0z" style="stroke: #b3bd65; fill: #b3bd65;"></path>
     <path d="M487,210a9,9,0,1,0,18,0a9,9,0,1,0,-18,0z" style="stroke: #2b379d; fill: #2b379d;"></path>
     <path d="M406,357a18,18,0,1,0,36,0a18,18,0,1,0,-36,0z" style="stroke: #1652cd; fill: #1652cd;"></path>
     <path d="M254,141a12,12,0,1,0,24,0a12,12,0,1,0,-24,0z" style="stroke: #1168db; fill: #1168db;"></path>
     <path d="M60,275a16,16,0,1,0,32,0a16,16,0,1,0,-32,0z" style="stroke: #eec440; fill: #eec440;"></path>
     <path d="M36,194a10,10,0,1,0,20,0a10,10,0,1,0,-20,0z" style="stroke: #fdd22b; fill: #fdd22b;"></path>
     <path d="M73,377a13,13,0,1,0,26,0a13,13,0,1,0,-26,0z" style="stroke: #23b2af; fill: #23b2af;"></path>
     <path d="M340,132a7,7,0,1,0,14,0a7,7,0,1,0,-14,0z" style="stroke: #f9f90f; fill: #f9f90f;"></path>
     <path d="M400,359a9,9,0,1,0,18,0a9,9,0,1,0,-18,0z" style="stroke: #1652cd; fill: #1652cd;"></path>
     <path d="M478,245a7,7,0,1,0,14,0a7,7,0,1,0,-14,0z" style="stroke: #5dbb8c; fill: #5dbb8c;"></path>
     <path d="M383,172a17,17,0,1,0,34,0a17,17,0,1,0,-34,0z" style="stroke: #1168db; fill: #1168db;"></path>
     <path d="M166,127a19,19,0,1,0,38,0a19,19,0,1,0,-38,0z" style="stroke: #8cbf75; fill: #8cbf75;"></path>
     <path d="M500,378a4,4,0,1,0,8,0a4,4,0,1,0,-8,0z" style="stroke: #19adb8; fill: #19adb8;"></path>
     <path d="M364,264a13,13,0,1,0,26,0a13,13,0,1,0,-26,0z" style="stroke: #eec440; fill: #eec440;"></path>
     <path d="M200,134a10,10,0,1,0,20,0a10,10,0,1,0,-20,0z" style="stroke: #d6bd54; fill: #d6bd54;"></path>
     <path d="M256,214a8,8,0,1,0,16,0a8,8,0,1,0,-16,0z" style="stroke: #c5bc5e; fill: #c5bc5e;"></path>
     <path d="M94,54a12,12,0,1,0,24,0a12,12,0,1,0,-24,0z" style="stroke: #fcde22; fill: #fcde22;"></path>
     <path d="M437,281a16,16,0,1,0,32,0a16,16,0,1,0,-32,0z" style="stroke: #0da7c3; fill: #0da7c3;"></path>
     <path d="M193,280a14,14,0,1,0,28,0a14,14,0,1,0,-28,0z" style="stroke: #fdd22b; fill: #fdd22b;"></path>
     <path d="M376,118a11,11,0,1,0,22,0a11,11,0,1,0,-22,0z" style="stroke: #19adb8; fill: #19adb8;"></path>
     <path d="M390,313a20,20,0,1,0,40,0a20,20,0,1,0,-40,0z" style="stroke: #23b2af; fill: #23b2af;"></path>
     <path d="M364,153a7,7,0,1,0,14,0a7,7,0,1,0,-14,0z" style="stroke: #1285d4; fill: #1285d4;"></path>
     <path d="M161,290a14,14,0,1,0,28,0a14,14,0,1,0,-28,0z" style="stroke: #23b2af; fill: #23b2af;"></path>
     <path d="M336,274a18,18,0,1,0,36,0a18,18,0,1,0,-36,0z" style="stroke: #fdd22b; fill: #fdd22b;"></path>
     <path d="M320,208a5,5,0,1,0,10,0a5,5,0,1,0,-10,0z" style="stroke: #f9f90f; fill: #f9f90f;"></path>
     <path d="M349,302a15,15,0,1,0,30,0a15,15,0,1,0,-30,0z" style="stroke: #2144b4; fill: #2144b4;"></path>
     <path d="M138,247a14,14,0,1,0,28,0a14,14,0,1,0,-28,0z" style="stroke: #1285d4; fill: #1285d4;"></path>
     <path d="M127,148a18,18,0,1,0,36,0a18,18,0,1,0,-36,0z" style="stroke: #8cbf75; fill: #8cbf75;"></path>
     <path d="M69,82a16,16,0,1,0,32,0a16,16,0,1,0,-32,0z" style="stroke: #eec440; fill: #eec440;"></path>
     <path d="M430,371a17,17,0,1,0,34,0a17,17,0,1,0,-34,0z" style="stroke: #44b999; fill: #44b999;"></path>
     <path d="M121,330a7,7,0,1,0,14,0a7,7,0,1,0,-14,0z" style="stroke: #1652cd; fill: #1652cd;"></path>
     <path d="M95,349a4,4,0,1,0,8,0a4,4,0,1,0,-8,0z" style="stroke: #fdd22b; fill: #fdd22b;"></path>
     <path d="M451,222a6,6,0,1,0,12,0a6,6,0,1,0,-12,0z" style="stroke: #1272d9; fill: #1272d9;"></path>
     <path d="M100,306a9,9,0,1,0,18,0a9,9,0,1,0,-18,0z" style="stroke: #c5bc5e; fill: #c5bc5e;"></path>
     <path d="M219,168a5,5,0,1,0,10,0a5,5,0,1,0,-10,0z" style="stroke: #07a1cb; fill: #07a1cb;"></path>
     <path d="M112,258a13,13,0,1,0,26,0a13,13,0,1,0,-26,0z" style="stroke: #faed18; fill: #faed18;"></path>
     <path d="M460,214a14,14,0,1,0,28,0a14,14,0,1,0,-28,0z" style="stroke: #23b2af; fill: #23b2af;"></path>
     <path d="M443,54a14,14,0,1,0,28,0a14,14,0,1,0,-28,0z" style="stroke: #74bd81; fill: #74bd81;"></path>
     <path d="M382,268a5,5,0,1,0,10,0a5,5,0,1,0,-10,0z" style="stroke: #1285d4; fill: #1285d4;"></path>
     <path d="M356,141a14,14,0,1,0,28,0a14,14,0,1,0,-28,0z" style="stroke: #9ebe6e; fill: #9ebe6e;"></path>
     <path d="M59,371a8,8,0,1,0,16,0a8,8,0,1,0,-16,0z" style="stroke: #8cbf75; fill: #8cbf75;"></path>
     <path d="M463,300a17,17,0,1,0,34,0a17,17,0,1,0,-34,0z" style="stroke: #1168db; fill: #1168db;"></path>
     <path d="M71,324a16,16,0,1,0,32,0a16,16,0,1,0,-32,0z" style="stroke: #07a1cb; fill: #07a1cb;"></path>
     <path d="M411,157a16,16,0,1,0,32,0a16,16,0,1,0,-32,0z" style="stroke: #9ebe6e; fill: #9ebe6e;"></path>
     <path d="M239,41a7,7,0,1,0,14,0a7,7,0,1,0,-14,0z" style="stroke: #2eb7a4; fill: #2eb7a4;"></path>
     <path d="M161,82a13,13,0,1,0,26,0a13,13,0,1,0,-26,0z" style="stroke: #2b379d; fill: #2b379d;"></path>
     <path d="M443,302a13,13,0,1,0,26,0a13,13,0,1,0,-26,0z" style="stroke: #c5bc5e; fill: #c5bc5e;"></path>
     <path d="M490,54a5,5,0,1,0,10,0a5,5,0,1,0,-10,0z" style="stroke: #eec440; fill: #eec440;"></path>
     <path d="M347,78a6,6,0,1,0,12,0a6,6,0,1,0,-12,0z" style="stroke: #0b98ce; fill: #0b98ce;"></path>
     <path d="M214,302a19,19,0,1,0,38,0a19,19,0,1,0,-38,0z" style="stroke: #c5bc5e; fill: #c5bc5e;"></path>
     <path d="M54,138a12,12,0,1,0,24,0a12,12,0,1,0,-24,0z" style="stroke: #44b999; fill: #44b999;"></path>
     <path d="M88,254a7,7,0,1,0,14,0a7,7,0,1,0,-14,0z" style="stroke: #8cbf75; fill: #8cbf75;"></path>
     <path d="M185,115a10,10,0,1,0,20,0a10,10,0,1,0,-20,0z" style="stroke: #2144b4; fill: #2144b4;"></path>
     <path d="M267,304a9,9,0,1,0,18,0a9,9,0,1,0,-18,0z" style="stroke: #f9f90f; fill: #f9f90f;"></path>
     <path d="M492,122a6,6,0,1,0,12,0a6,6,0,1,0,-12,0z" style="stroke: #0e8fd1; fill: #0e8fd1;"></path>
     <path d="M199,159a15,15,0,1,0,30,0a15,15,0,1,0,-30,0z" style="stroke: #44b999; fill: #44b999;"></path>
     <path d="M220,334a15,15,0,1,0,30,0a15,15,0,1,0,-30,0z" style="stroke: #74bd81; fill: #74bd81;"></path>
    </g>
   </svg>
   <g>
    <g transform="translate(0,378)">
     <path d="M0,0h557M22,-6V0M46,-11V0M71,-6V0M95,-6V0M120,-6V0M144,-11V0M169,-6V0M193,-6V0M218,-6V0M242,-11V0M267,-6V0M291,-6V0M316,-6V0M340,-11V0M365,-6V0M389,-6V0M414,-6V0M438,-11V0M463,-6V0M487,-6V0M512,-6V0M536,-11V0" style="stroke: black; stroke-width: 1;"></path>
     <g font-family="Arial" font-size="17" space="preserve" fill="black" text-anchor="middle">
      <text dy=".8em" transform="translate(46,3)">
       0
      </text>
      <text dy=".8em" transform="translate(144,3)">
       20
      </text>
      <text dy=".8em" transform="translate(242,3)">
       40
      </text>
      <text dy=".8em" transform="translate(340,3)">
       60
      </text>
      <text dy=".8em" transform="translate(438,3)">
       80
      </text>
      <text dy=".8em" transform="translate(536,3)">
       100
      </text>
     </g>
     <g font-family="Arial" font-size="17" space="preserve" transform="translate(557,27)">
      <text fill="black" text-anchor="end" dy=".4em">
       X
      </text>
     </g>
    </g>
    <g>
     <path d="M0,0v378M9,371H0M9,362H0M9,353H0M17,345H0M9,336H0M9,327H0M9,319H0M17,310H0M9,301H0M9,293H0M9,284H0M17,275H0M9,267H0M9,258H0M9,250H0M17,241H0M9,232H0M9,224H0M9,215H0M17,206H0M9,198H0M9,189H0M9,180H0M17,172H0M9,163H0M9,154H0M9,146H0M17,137H0M9,128H0M9,120H0M9,111H0M17,102H0M9,94H0M9,85H0M9,77H0M17,68H0M9,59H0M9,51H0M9,42H0M17,33H0M9,25H0M9,16H0M9,7H0" style="stroke: black; stroke-width: 1;"></path>
     <g font-family="Arial" font-size="17" space="preserve" fill="black" text-anchor="end">
      <text dy=".4em" transform="translate(-3,345)">
       20
      </text>
      <text dy=".4em" transform="translate(-3,310)">
       40
      </text>
      <text dy=".4em" transform="translate(-3,275)">
       60
      </text>
      <text dy=".4em" transform="translate(-3,241)">
       80
      </text>
      <text dy=".4em" transform="translate(-3,206)">
       100
      </text>
      <text dy=".4em" transform="translate(-3,172)">
       120
      </text>
      <text dy=".4em" transform="translate(-3,137)">
       140
      </text>
      <text dy=".4em" transform="translate(-3,102)">
       160
      </text>
      <text dy=".4em" transform="translate(-3,68)">
       180
      </text>
      <text dy=".4em" transform="translate(-3,33)">
       200
      </text>
     </g>
     <g font-family="Arial" font-size="17" space="preserve" transform="translate(-40)">
      <text fill="black" text-anchor="end" dy=".4em" transform="rotate(270)">
       Y
      </text>
     </g>
    </g>
   </g>
  </g>
  <g transform="translate(70,2)" font-family="Arial" font-size="24" space="preserve">
   <text fill="black" text-anchor="middle" dy=".8em" transform="translate(279)">
    Scatter plot
   </text>
  </g>
  <g transform="translate(630,47)">
   <path d="M0,0H31V378H0Z" style="fill: none; stroke: black; stroke-width: 1;"></path>
   <path d="M0,365H31V378H0Z" style="fill: #2144b4;"></path>
   <path d="M0,353H31V366H0Z" style="fill: #2144b4;"></path>
   <path d="M0,340H31V354H0Z" style="fill: #1652cd;"></path>
   <path d="M0,328H31V341H0Z" style="fill: #0f5edd;"></path>
   <path d="M0,315H31V329H0Z" style="fill: #1168db;"></path>
   <path d="M0,302H31V316H0Z" style="fill: #1272d9;"></path>
   <path d="M0,290H31V303H0Z" style="fill: #137cd7;"></path>
   <path d="M0,277H31V291H0Z" style="fill: #1285d4;"></path>
   <path d="M0,265H31V278H0Z" style="fill: #0e8fd1;"></path>
   <path d="M0,252H31V266H0Z" style="fill: #0b98ce;"></path>
   <path d="M0,239H31V253H0Z" style="fill: #07a1cb;"></path>
   <path d="M0,227H31V240H0Z" style="fill: #0da7c3;"></path>
   <path d="M0,214H31V228H0Z" style="fill: #19adb8;"></path>
   <path d="M0,202H31V215H0Z" style="fill: #23b2af;"></path>
   <path d="M0,189H31V203H0Z" style="fill: #2eb7a4;"></path>
   <path d="M0,176H31V190H0Z" style="fill: #44b999;"></path>
   <path d="M0,164H31V177H0Z" style="fill: #5dbb8c;"></path>
   <path d="M0,151H31V165H0Z" style="fill: #74bd81;"></path>
   <path d="M0,139H31V152H0Z" style="fill: #8cbf75;"></path>
   <path d="M0,126H31V140H0Z" style="fill: #9ebe6e;"></path>
   <path d="M0,113H31V127H0Z" style="fill: #b3bd65;"></path>
   <path d="M0,101H31V114H0Z" style="fill: #c5bc5e;"></path>
   <path d="M0,88H31V102H0Z" style="fill: #d6bd54;"></path>
   <path d="M0,76H31V89H0Z" style="fill: #e2c04b;"></path>
   <path d="M0,63H31V77H0Z" style="fill: #eec440;"></path>
   <path d="M0,50H31V64H0Z" style="fill: #fac736;"></path>
   <path d="M0,38H31V51H0Z" style="fill: #fdd22b;"></path>
   <path d="M0,25H31V39H0Z" style="fill: #fcde22;"></path>
   <path d="M0,13H31V26H0Z" style="fill: #faed18;"></path>
   <path d="M0,0H31V14H0Z" style="fill: #f9f90f;"></path>
   <g transform="translate(31)">
    <path d="M0,0v378M0,366H-9M0,353H-9M0,340H-9M0,327H-9M0,315H-17M0,302H-9M0,289H-9M0,276H-9M0,264H-9M0,251H-17M0,238H-9M0,225H-9M0,213H-9M0,200H-9M0,187H-17M0,174H-9M0,162H-9M0,149H-9M0,136H-9M0,123H-17M0,111H-9M0,98H-9M0,85H-9M0,72H-9M0,60H-17M0,47H-9M0,34H-9M0,21H-9M0,9H-9" style="stroke: black; stroke-width: 1;"></path>
    <g font-family="Arial" font-size="17" space="preserve" fill="black" text-anchor="start">
     <text dy=".4em" transform="translate(3,315)">
      50
     </text>
     <text dy=".4em" transform="translate(3,251)">
      100
     </text>
     <text dy=".4em" transform="translate(3,187)">
      150
     </text>
     <text dy=".4em" transform="translate(3,123)">
      200
     </text>
     <text dy=".4em" transform="translate(3,60)">
      250
     </text>
    </g>
   </g>
  </g>
 </g>
</svg>