<svg xmlns="http://www.w3.org/2000/svg" viewBox="0 0 698 475" preserveAspectRatio="none" width="698" height="475">
 <path d="M0,0H698V475H0Z" style="fill: white;"></path>
 <g>
  <g transform="translate(70,48)">
   <path d="M0,0H558V380H0Z" style="fill: white; stroke: black; stroke-width: 1;"></path>
   <svg x="0" y="0" overflow="hidden" width="558" height="380" viewBox="0 0 558 380">
    <g>
     <path d="MNaN,214.66aNaN,NaN,0,1,0,NaN,0aNaN,NaN,0,1,0,-NaN,0z" style="stroke: #e2c04b; fill: #e2c04b;"></path>
     <path d="MNaN,295.64aNaN,NaN,0,1,0,NaN,0aNaN,NaN,0,1,0,-NaN,0z" style="stroke: #e2c04b; fill: #e2c04b;"></path>
     <path d="MNaN,158.47aNaN,NaN,0,1,0,NaN,0aNaN,NaN,0,1,0,-NaN,0z" style="stroke: #2eb7a4; fill: #2eb7a4;"></path>
     <path d="MNaN,32.69aNaN,NaN,0,1,0,NaN,0aNaN,NaN,0,1,0,-NaN,0z" style="stroke: #e2c04b; fill: #e2c04b;"></path>
     <path d="MNaN,225.16aNaN,NaN,0,1,0,NaN,0aNaN,NaN,0,1,0,-NaN,0z" style="stroke: #2b379d; fill: #2b379d;"></path>
     <path d="MNaN,183.78aNaN,NaN,0,1,0,NaN,0aNaN,NaN,0,1,0,-NaN,0z" style="stroke: #c5bc5e; fill: #c5bc5e;"></path>
     <path d="MNaN,273.00aNaN,NaN,0,1,0,NaN,0aNaN,NaN,0,1,0,-NaN,0z" style="stroke: #1168db; fill: #1168db;"></path>
     <path d="MNaN,51.34aNaN,NaN,0,1,0,NaN,0aNaN,NaN,0,1,0,-NaN,0z" style="stroke: #e2c04b; fill: #e2c04b;"></path>
     <path d="MNaN,78.08aNaN,NaN,0,1,0,NaN,0aNaN,NaN,0,1,0,-NaN,0z" style="stroke: #1285d4; fill: #1285d4;"></path>
     <path d="MNaN,82.30aNaN,NaN,0,1,0,NaN,0aNaN,NaN,0,1,0,-NaN,0z" style="stroke: #b3bd65; fill: #b3bd65;"></path>
     <path d="MNaN,202.73aNaN,NaN,0,1,0,NaN,0aNaN,NaN,0,1,0,-NaN,0z" style="stroke: #8cbf75; fill: #8cbf75;"></path>
     <path d="MNaN,45.15aNaN,NaN,0,1,0,NaN,0aNaN,NaN,0,1,0,-NaN,0z" style="stroke: #44b999; fill: #44b999;"></path>
     <path d="MNaN,33.12aNaN,NaN,0,1,0,NaN,0aNaN,NaN,0,1,0,-NaN,0z" style="stroke: #f9f90f; fill: #f9f90f;"></path>
     <path d="MNaN,117.76aNaN,NaN,0,1,0,NaN,0aNaN,NaN,0,1,0,-NaN,0z" style="stroke: #f9f90f; fill: #f9f90f;"></path>
     <path d="MNaN,322.31aNaN,NaN,0,1,0,NaN,0aNaN,NaN,0,1,0,-NaN,0z" style="stroke: #74bd81; fill: #74bd81;"></path>
     <path d="MNaN,101.11aNaN,NaN,0,1,0,NaN,0aNaN,NaN,0,1,0,-NaN,0z" style="stroke: #1285d4; fill: #1285d4;"></path>
     <path d="MNaN,31.67aNaN,NaN,0,1,0,NaN,0aNaN,NaN,0,1,0,-NaN,0z" style="stroke: #23b2af; fill: #23b2af;"></path>
     <path d="MNaN,267.83aNaN,NaN,0,1,0,NaN,0aNaN,NaN,0,1,0,-NaN,0z" style="stroke: #d6bd54; fill: #d6bd54;"></path>
     <path d="MNaN,229.55aNaN,NaN,0,1,0,NaN,0aNaN,NaN,0,1,0,-NaN,0z" style="stroke: #1285d4; fill: #1285d4;"></path>
     <path d="MNaN,336.74aNaN,NaN,0,1,0,NaN,0aNaN,NaN,0,1,0,-NaN,0z" style="stroke: #fac736; fill: #fac736;"></path>
     <path d="MNaN,55.58aNaN,NaN,0,1,0,NaN,0aNaN,NaN,0,1,0,-NaN,0z" style="stroke: #137cd7; fill: #137cd7;"></path>
     <path d="MNaN,82.16aNaN,NaN,0,1,0,NaN,0aNaN,NaN,0,1,0,-NaN,0z" style="stroke: #0da7c3; fill: #0da7c3;"></path>
     <path d="MNaN,61.11aNaN,NaN,0,1,0,NaN,0aNaN,NaN,0,1,0,-NaN,0z" style="stroke: #d6bd54; fill: #d6bd54;"></path>
     <path d="MNaN,302.01aNaN,NaN,0,1,0,NaN,0aNaN,NaN,0,1,0,-NaN,0z" style="stroke: #0f5edd; fill: #0f5edd;"></path>
     <path d="MNaN,167.08aNaN,NaN,0,1,0,NaN,0aNaN,NaN,0,1,0,-NaN,0z" style="stroke: #1285d4; fill: #1285d4;"></path>
     <path d="MNaN,317.15aNaN,NaN,0,1,0,NaN,0aNaN,NaN,0,1,0,-NaN,0z" style="stroke: #faed18; fill: #faed18;"></path>
     <path d="MNaN,213.47aNaN,NaN,0,1,0,NaN,0aNaN,NaN,0,1,0,-NaN,0z" style="stroke: #0b98ce; fill: #0b98ce;"></path>
     <path d="MNaN,295.12aNaN,NaN,0,1,0,NaN,0aNaN,NaN,0,1,0,-NaN,0z" style="stroke: #1168db; fill: #1168db;"></path>
     <path d="MNaN,229.68aNaN,NaN,0,1,0,NaN,0aNaN,NaN,0,1,0,-NaN,0z" style="stroke: #19adb8; fill: #19adb8;"></path>
     <path d="MNaN,105.07aNaN,NaN,0,1,0,NaN,0aNaN,NaN,0,1,0,-NaN,0z" style="stroke: #23b2af; fill: #23b2af;"></path>
     <path d="MNaN,106.86aNaN,NaN,0,1,0,NaN,0aNaN,NaN,0,1,0,-NaN,0z" style="stroke: #fac736; fill: #fac736;"></path>
     <path d="MNaN,126.45aNaN,NaN,0,1,0,NaN,0aNaN,NaN,0,1,0,-NaN,0z" style="stroke: #eec440; fill: #eec440;"></path>
     <path d="MNaN,266.98aNaN,NaN,0,1,0,NaN,0aNaN,NaN,0,1,0,-NaN,0z" style="stroke: #f9f90f; fill: #f9f90f;"></path>
     <path d="MNaN,183.63aNaN,NaN,0,1,0,NaN,0aNaN,NaN,0,1,0,-NaN,0z" style="stroke: #07a1cb; fill: #07a1cb;"></path>
     <path d="MNaN,139.00aNaN,NaN,0,1,0,NaN,0aNaN,NaN,0,1,0,-NaN,0z" style="stroke: #1272d9; fill: #1272d9;"></path>
     <path d="MNaN,115.37aNaN,NaN,0,1,0,NaN,0aNaN,NaN,0,1,0,-NaN,0z" style="stroke: #fcde22; fill: #fcde22;"></path>
     <path d="MNaN,183.59aNaN,NaN,0,1,0,NaN,0aNaN,NaN,0,1,0,-NaN,0z" style="stroke: #d6bd54; fill: #d6bd54;"></path>
     <path d="MNaN,65.11aNaN,NaN,0,1,0,NaN,0aNaN,NaN,0,1,0,-NaN,0z" style="stroke: #e2c04b; fill: #e2c04b;"></path>
     <path d="MNaN,130.08aNaN,NaN,0,1,0,NaN,0aNaN,NaN,0,1,0,-NaN,0z" style="stroke: #5dbb8c; fill: #5dbb8c;"></path>
     <path d="MNaN,173.20aNaN,NaN,0,1,0,NaN,0aNaN,NaN,0,1,0,-NaN,0z" style="stroke: #fac736; fill: #fac736;"></path>
     <path d="MNaN,123.98aNaN,NaN,0,1,0,NaN,0aNaN,NaN,0,1,0,-NaN,0z" style="stroke: #9ebe6e; fill: #9ebe6e;"></path>
     <path d="MNaN,309.04aNaN,NaN,0,1,0,NaN,0aNaN,NaN,0,1,0,-NaN,0z" style="stroke: #1652cd; fill: #1652cd;"></path>
     <path d="MNaN,319.57aNaN,NaN,0,1,0,NaN,0aNaN,NaN,0,1,0,-NaN,0z" style="stroke: #fac736; fill: #fac736;"></path>
     <path d="MNaN,162.03aNaN,NaN,0,1,0,NaN,0aNaN,NaN,0,1,0,-NaN,0z" style="stroke: #b3bd65; fill: #b3bd65;"></path>
     <path d="MNaN,193.36aNaN,NaN,0,1,0,NaN,0aNaN,NaN,0,1,0,-NaN,0z" style="stroke: #2b379d; fill: #2b379d;"></path>
     <path d="MNaN,329.28aNaN,NaN,0,1,0,NaN,0aNaN,NaN,0,1,0,-NaN,0z" style="stroke: #1652cd; fill: #1652cd;"></path>
     <path d="MNaN,130.21aNaN,NaN,0,1,0,NaN,0aNaN,NaN,0,1,0,-NaN,0z" style="stroke: #1168db; fill: #1168db;"></path>
     <path d="MNaN,253.57aNaN,NaN,0,1,0,NaN,0aNaN,NaN,0,1,0,-NaN,0z" style="stroke: #eec440; fill: #eec440;"></path>
     <path d="MNaN,178.61aNaN,NaN,0,1,0,NaN,0aNaN,NaN,0,1,0,-NaN,0z" style="stroke: #fdd22b; fill: #fdd22b;"></path>
     <path d="MNaN,347.70aNaN,NaN,0,1,0,NaN,0aNaN,NaN,0,1,0,-NaN,0z" style="stroke: #23b2af; fill: #23b2af;"></path>
     <path d="MNaN,121.69aNaN,NaN,0,1,0,NaN,0aNaN,NaN,0,1,0,-NaN,0z" style="stroke: #f9f90f; fill: #f9f90f;"></path>
     <path d="MNaN,331.12aNaN,NaN,0,1,0,NaN,0aNaN,NaN,0,1,0,-NaN,0z" style="stroke: #1652cd; fill: #1652cd;"></path>
     <path d="MNaN,226.06aNaN,NaN,0,1,0,NaN,0aNaN,NaN,0,1,0,-NaN,0z" style="stroke: #5dbb8c; fill: #5dbb8c;"></path>
     <path d="MNaN,158.18aNaN,NaN,0,1,0,NaN,0aNaN,NaN,0,1,0,-NaN,0z" style="stroke: #1168db; fill: #1168db;"></path>
     <path d="MNaN,116.69aNaN,NaN,0,1,0,NaN,0aNaN,NaN,0,1,0,-NaN,0z" style="stroke: #8cbf75; fill: #8cbf75;"></path>
     <path d="MNaN,348.33aNaN,NaN,0,1,0,NaN,0aNaN,NaN,0,1,0,-NaN,0z" style="stroke: #19adb8; fill: #19adb8;"></path>
     <path d="MNaN,243.44aNaN,NaN,0,1,0,NaN,0aNaN,NaN,0,1,0,-NaN,0z" style="stroke: #eec440; fill: #eec440;"></path>
     <path d="MNaN,123.38aNaN,NaN,0,1,0,NaN,0aNaN,NaN,0,1,0,-NaN,0z" style="stroke: #d6bd54; fill: #d6bd54;"></path>
     <path d="MNaN,197.70aNaN,NaN,0,1,0,NaN,0aNaN,NaN,0,1,0,-NaN,0z" style="stroke: #c5bc5e; fill: #c5bc5e;"></path>
     <path d="MNaN,50.19aNaN,NaN,0,1,0,NaN,0aNaN,NaN,0,1,0,-NaN,0z" style="stroke: #fcde22; fill: #fcde22;"></path>
     <path d="MNaN,258.71aNaN,NaN,0,1,0,NaN,0aNaN,NaN,0,1,0,-NaN,0z" style="stroke: #0da7c3; fill: #0da7c3;"></path>
     <path d="MNaN,257.73aNaN,NaN,0,1,0,NaN,0aNaN,NaN,0,1,0,-NaN,0z" style="stroke: #fdd22b; fill: #fdd22b;"></path>
     <path d="MNaN,108.91aNaN,NaN,0,1,0,NaN,0aNaN,NaN,0,1,0,-NaN,0z" style="stroke: #19adb8; fill: #19adb8;"></path>
     <path d="MNaN,288.73aNaN,NaN,0,1,0,NaN,0aNaN,NaN,0,1,0,-NaN,0z" style="stroke: #23b2af; fill: #23b2af;"></path>
     <path d="MNaN,140.98aNaN,NaN,0,1,0,NaN,0aNaN,NaN,0,1,0,-NaN,0z" style="stroke: #1285d4; fill: #1285d4;"></path>
     <path d="MNaN,267.25aNaN,NaN,0,1,0,NaN,0aNaN,NaN,0,1,0,-NaN,0z" style="stroke: #23b2af; fill: #23b2af;"></path>
     <path d="MNaN,253.01aNaN,NaN,0,1,0,NaN,0aNaN,NaN,0,1,0,-NaN,0z" style="stroke: #fdd22b; fill: #fdd22b;"></path>
     <path d="MNaN,192.15aNaN,NaN,0,1,0,NaN,0aNaN,NaN,0,1,0,-NaN,0z" style="stroke: #f9f90f; fill: #f9f90f;"></path>
     <path d="MNaN,278.31aNaN,NaN,0,1,0,NaN,0aNaN,NaN,0,1,0,-NaN,0z" style="stroke: #2144b4; fill: #2144b4;"></path>
     <path d="MNaN,227.42aNaN,NaN,0,1,0,NaN,0aNaN,NaN,0,1,0,-NaN,0z" style="stroke: #1285d4; fill: #1285d4;"></path>
     <path d="MNaN,136.21aNaN,NaN,0,1,0,NaN,0aNaN,NaN,0,1,0,-NaN,0z" style="stroke: #8cbf75; fill: #8cbf75;"></path>
     <path d="MNaN,75.46aNaN,NaN,0,1,0,NaN,0aNaN,NaN,0,1,0,-NaN,0z" style="stroke: #eec440; fill: #eec440;"></path>
     <path d="MNaN,341.68aNaN,NaN,0,1,0,NaN,0aNaN,NaN,0,1,0,-NaN,0z" style="stroke: #44b999; fill: #44b999;"></path>
     <path d="MNaN,304.04aNaN,NaN,0,1,0,NaN,0aNaN,NaN,0,1,0,-NaN,0z" style="stroke: #1652cd; fill: #1652cd;"></path>
     <path d="MNaN,321.95aNaN,NaN,0,1,0,NaN,0aNaN,NaN,0,1,0,-NaN,0z" style="stroke: #fdd22b; fill: #fdd22b;"></path>
     <path d="MNaN,204.46aNaN,NaN,0,1,0,NaN,0aNaN,NaN,0,1,0,-NaN,0z" style="stroke: #1272d9; fill: #1272d9;"></path>
     <path d="MNaN,281.81aNaN,NaN,0,1,0,NaN,0aNaN,NaN,0,1,0,-NaN,0z" style="stroke: #c5bc5e; fill: #c5bc5e;"></path>
     <path d="MNaN,155.18aNaN,NaN,0,1,0,NaN,0aNaN,NaN,0,1,0,-NaN,0z" style="stroke: #07a1cb; fill: #07a1cb;"></path>
     <path d="MNaN,237.94aNaN,NaN,0,1,0,NaN,0aNaN,NaN,0,1,0,-NaN,0z" style="stroke: #faed18; fill: #faed18;"></path>
     <path d="MNaN,197.65aNaN,NaN,0,1,0,NaN,0aNaN,NaN,0,1,0,-NaN,0z" style="stroke: #23b2af; fill: #23b2af;"></path>
     <path d="MNaN,50.05aNaN,NaN,0,1,0,NaN,0aNaN,NaN,0,1,0,-NaN,0z" style="stroke: #74bd81; fill: #74bd81;"></path>
     <path d="MNaN,246.92aNaN,NaN,0,1,0,NaN,0aNaN,NaN,0,1,0,-NaN,0z" style="stroke: #1285d4; fill: #1285d4;"></path>
     <path d="MNaN,129.87aNaN,NaN,0,1,0,NaN,0aNaN,NaN,0,1,0,-NaN,0z" style="stroke: #9ebe6e; fill: #9ebe6e;"></path>
     <path d="MNaN,342.01aNaN,NaN,0,1,0,NaN,0aNaN,NaN,0,1,0,-NaN,0z" style="stroke: #8cbf75; fill: #8cbf75;"></path>
     <path d="MNaN,276.16aNaN,NaN,0,1,0,NaN,0aNaN,NaN,0,1,0,-NaN,0z" style="stroke: #1168db; fill: #1168db;"></path>
     <path d="MNaN,298.38aNaN,NaN,0,1,0,NaN,0aNaN,NaN,0,1,0,-NaN,0z" style="stroke: #07a1cb; fill: #07a1cb;"></path>
     <path d="MNaN,144.40aNaN,NaN,0,1,0,NaN,0aNaN,NaN,0,1,0,-NaN,0z" style="stroke: #9ebe6e; fill: #9ebe6e;"></path>
     <path d="MNaN,38.00aNaN,NaN,0,1,0,NaN,0aNaN,NaN,0,1,0,-NaN,0z" style="stroke: #2eb7a4; fill: #2eb7a4;"></path>
     <path d="MNaN,75.43aNaN,NaN,0,1,0,NaN,0aNaN,NaN,0,1,0,-NaN,0z" style="stroke: #2b379d; fill: #2b379d;"></path>
     <path d="MNaN,278.49aNaN,NaN,0,1,0,NaN,0aNaN,NaN,0,1,0,-NaN,0z" style="stroke: #c5bc5e; fill: #c5bc5e;"></path>
     <path d="MNaN,50.02aNaN,NaN,0,1,0,NaN,0aNaN,NaN,0,1,0,-NaN,0z" style="stroke: #eec440; fill: #eec440;"></path>
     <path d="MNaN,72.23aNaN,NaN,0,1,0,NaN,0aNaN,NaN,0,1,0,-NaN,0z" style="stroke: #0b98ce; fill: #0b98ce;"></path>
     <path d="MNaN,278.25aNaN,NaN,0,1,0,NaN,0aNaN,NaN,0,1,0,-NaN,0z" style="stroke: #c5bc5e; fill: #c5bc5e;"></path>
     <path d="MNaN,126.92aNaN,NaN,0,1,0,NaN,0aNaN,NaN,0,1,0,-NaN,0z" style="stroke: #44b999; fill: #44b999;"></path>
     <path d="MNaN,233.85aNaN,NaN,0,1,0,NaN,0aNaN,NaN,0,1,0,-NaN,0z" style="stroke: #8cbf75; fill: #8cbf75;"></path>
     <path d="MNaN,105.57aNaN,NaN,0,1,0,NaN,0aNaN,NaN,0,1,0,-NaN,0z" style="stroke: #2144b4; fill: #2144b4;"></path>
     <path d="MNaN,280.23aNaN,NaN,0,1,0,NaN,0aNaN,NaN,0,1,0,-NaN,0z" style="stroke: #f9f90f; fill: #f9f90f;"></path>
     <path d="MNaN,112.89aNaN,NaN,0,1,0,NaN,0aNaN,NaN,0,1,0,-NaN,0z" style="stroke: #0e8fd1; fill: #0e8fd1;"></path>
     <path d="MNaN,146.64aNaN,NaN,0,1,0,NaN,0aNaN,NaN,0,1,0,-NaN,0z" style="stroke: #44b999; fill: #44b999;"></path>
     <path d="MNaN,307.87aNaN,NaN,0,1,0,NaN,0aNaN,NaN,0,1,0,-NaN,0z" style="stroke: #74bd81; fill: #74bd81;"></path>
    </g>
   </svg>
   <g>
    <g transform="translate(0,380)">
     <path d="M0,0h558M22,-7V0M46,-14V0M71,-7V0M95,-7V0M120,-7V0M145,-14V0M169,-7V0M194,-7V0M218,-7V0M243,-14V0M267,-7V0M292,-7V0M316,-7V0M341,-14V0M365,-7V0M390,-7V0M414,-7V0M439,-14V0M464,-7V0M488,-7V0M513,-7V0M537,-14V0" style="stroke: black; stroke-width: 1;"></path>
     <g font-family="Arial" font-size="17" space="preserve" fill="black" text-anchor="middle">
      <text dy=".8em" transform="translate(46)">
       0
      </text>
      <text dy=".8em" transform="translate(145)">
       20
      </text>
      <text dy=".8em" transform="translate(243)">
       40
      </text>
      <text dy=".8em" transform="translate(341)">
       60
      </text>
      <text dy=".8em" transform="translate(439)">
       80
      </text>
      <text dy=".8em" transform="translate(537)">
       100
      </text>
     </g>
     <g font-family="Arial" font-size="17" space="preserve" transform="translate(558,27)">
      <text fill="black" text-anchor="end" dy=".4em">
       X
      </text>
     </g>
    </g>
    <g>
     <path d="M0,0v380M11,366H0M21,350H0M11,334H0M11,318H0M11,302H0M11,286H0M21,270H0M11,254H0M11,238H0M11,222H0M11,206H0M21,190H0M11,174H0M11,158H0M11,142H0M11,126H0M21,110H0M11,94H0M11,79H0M11,63H0M11,47H0M21,31H0M11,15H0" style="stroke: black; stroke-width: 1;"></path>
     <g font-family="Arial" font-size="17" space="preserve" fill="black" text-anchor="end">
      <text dy=".4em" transform="translate(-2,350)">
       0
      </text>
      <text dy=".4em" transform="translate(-2,270)">
       50
      </text>
      <text dy=".4em" transform="translate(-2,190)">
       100
      </text>
      <text dy=".4em" transform="translate(-2,110)">
       150
      </text>
      <text dy=".4em" transform="translate(-2,31)">
       200
      </text>
     </g>
     <g font-family="Arial" font-size="17" space="preserve" transform="translate(-47)">
      <text fill="black" text-anchor="end" dy=".4em" transform="rotate(270)">
       Y
      </text>
     </g>
    </g>
   </g>
  </g>
  <g transform="translate(632,48)">
   <path d="M0,0H31V380H0Z" style="fill: none; stroke: black; stroke-width: 1;"></path>
   <path d="M0,367H31V380H0Z" style="fill: #2144b4;"></path>
   <path d="M0,355H31V368H0Z" style="fill: #2144b4;"></path>
   <path d="M0,342H31V356H0Z" style="fill: #1652cd;"></path>
   <path d="M0,329H31V343H0Z" style="fill: #0f5edd;"></path>
   <path d="M0,317H31V330H0Z" style="fill: #1168db;"></path>
   <path d="M0,304H31V318H0Z" style="fill: #1272d9;"></path>
   <path d="M0,291H31V305H0Z" style="fill: #137cd7;"></path>
   <path d="M0,279H31V292H0Z" style="fill: #1285d4;"></path>
   <path d="M0,266H31V280H0Z" style="fill: #0e8fd1;"></path>
   <path d="M0,253H31V267H0Z" style="fill: #0b98ce;"></path>
   <path d="M0,241H31V254H0Z" style="fill: #07a1cb;"></path>
   <path d="M0,228H31V242H0Z" style="fill: #0da7c3;"></path>
   <path d="M0,215H31V229H0Z" style="fill: #19adb8;"></path>
   <path d="M0,203H31V216H0Z" style="fill: #23b2af;"></path>
   <path d="M0,190H31V204H0Z" style="fill: #2eb7a4;"></path>
   <path d="M0,177H31V191H0Z" style="fill: #44b999;"></path>
   <path d="M0,165H31V178H0Z" style="fill: #5dbb8c;"></path>
   <path d="M0,152H31V166H0Z" style="fill: #74bd81;"></path>
   <path d="M0,139H31V153H0Z" style="fill: #8cbf75;"></path>
   <path d="M0,127H31V140H0Z" style="fill: #9ebe6e;"></path>
   <path d="M0,114H31V128H0Z" style="fill: #b3bd65;"></path>
   <path d="M0,101H31V115H0Z" style="fill: #c5bc5e;"></path>
   <path d="M0,89H31V102H0Z" style="fill: #d6bd54;"></path>
   <path d="M0,76H31V90H0Z" style="fill: #e2c04b;"></path>
   <path d="M0,63H31V77H0Z" style="fill: #eec440;"></path>
   <path d="M0,51H31V64H0Z" style="fill: #fac736;"></path>
   <path d="M0,38H31V52H0Z" style="fill: #fdd22b;"></path>
   <path d="M0,25H31V39H0Z" style="fill: #fcde22;"></path>
   <path d="M0,13H31V26H0Z" style="fill: #faed18;"></path>
   <path d="M0,0H31V14H0Z" style="fill: #f9f90f;"></path>
   <g transform="translate(31)">
    <path d="M0,0v380M0,367H-10M0,355H-10M0,342H-10M0,329H-10M0,316H-19M0,303H-10M0,291H-10M0,278H-10M0,265H-10M0,252H-19M0,239H-10M0,226H-10M0,214H-10M0,201H-10M0,188H-19M0,175H-10M0,162H-10M0,150H-10M0,137H-10M0,124H-19M0,111H-10M0,98H-10M0,85H-10M0,73H-10M0,60H-19M0,47H-10M0,34H-10M0,21H-10M0,9H-10" style="stroke: black; stroke-width: 1;"></path>
    <g font-family="Arial" font-size="17" space="preserve" fill="black" text-anchor="start">
     <text dy=".4em" transform="translate(2,316)">
      50
     </text>
     <text dy=".4em" transform="translate(2,252)">
      100
     </text>
     <text dy=".4em" transform="translate(2,188)">
      150
     </text>
     <text dy=".4em" transform="translate(2,124)">
      200
     </text>
     <text dy=".4em" transform="translate(2,60)">
      250
     </text>
    </g>
   </g>
  </g>
  <g transform="translate(276,2)" font-family="Arial" font-size="20" space="preserve">
   <text fill="black" text-anchor="middle" dy=".4em" transform="translate(73,15)">
    Scatter plot
   </text>
  </g>
 </g>
</svg>