<svg viewBox="0 0 1200 800" preserveAspectRatio="none" xmlns="http://www.w3.org/2000/svg" width="1200" height="800"><title>ROOT canvas</title><rect x="0" y="0" width="1200" height="800" style="fill: white;"></rect><g><g transform="translate(120,80)"><title></title><rect x="0" y="0" width="960" height="640" style="fill: white; stroke: black; stroke-width: 1;"></rect><svg x="0" y="0" overflow="hidden" width="960" height="640" viewBox="0 0 960 640"><g objname="f" objtype="TF1"><path d="M0,267.26c1.45,0.47,7.44,1.61,9.6,3.11s8.35,8.65,9.6,10.21s8.53,12.21,9.6,13.72s8.28,11.77,9.6,13.35s7.4,8.06,9.6,9.54s6.4,3.43,9.6,3.4s7.43,-2.06,9.6,-3.56s8.29,-8.09,9.6,-9.66s8.53,-11.89,9.6,-13.4s8.34,-12.12,9.6,-13.68s7.41,-8.6,9.6,-10.09s6.53,-3.54,9.6,-2.91s8.37,5.26,9.6,6.82s9.1,16.35,9.6,17.51s9.31,26.32,9.6,27.24s9.38,33.25,9.6,34.06s9.37,35.56,9.6,36.38s9.28,32.22,9.6,33.18s8.85,22.93,9.6,24.28s6.51,9.84,9.6,10.41s8.76,-5.44,9.6,-6.85s9.36,-24.41,9.6,-25.26s9.48,-41.57,9.6,-42.18s9.52,-54.49,9.6,-55.01s9.52,-61.03,9.6,-61.52s9.51,-59.73,9.6,-60.26s9.44,-50.09,9.6,-50.78s9.1,-32.61,9.6,-33.77s6.52,-11.62,9.6,-11.01s9.25,13.78,9.6,14.77s9.49,39.73,9.6,40.31s9.54,61.74,9.6,62.18s9.55,76.89,9.6,77.27s9.56,82.88,9.6,83.25s9.54,78.48,9.6,78.9s9.5,63.76,9.6,64.32s9.22,39.96,9.6,40.99s6.95,12.79,9.6,11.58s9.38,-19.53,9.6,-20.34s9.53,-50.28,9.6,-50.75s9.56,-75.37,9.6,-75.73s9.57,-91.62,9.6,-91.94s9.57,-96.79,9.6,-97.11s9.56,-89.97,9.6,-90.34s9.52,-71.74,9.6,-72.25s9.27,-43.96,9.6,-44.94s7.26,-13.12,9.6,-11.7s9.42,22.64,9.6,23.37s9.54,55.44,9.6,55.88s9.56,81.41,9.6,81.75s9.57,97.4,9.6,97.7s9.57,101.42,9.6,101.73s9.56,92.95,9.6,93.31s9.52,73.01,9.6,73.51s9.26,43.86,9.6,44.85s7.41,12.42,9.6,10.93s9.42,-23.25,9.6,-23.98s9.54,-55.11,9.6,-55.55s9.56,-79.55,9.6,-79.9s9.57,-93.8,9.6,-94.12s9.57,-96.29,9.6,-96.62s9.55,-86.95,9.6,-87.34s9.5,-67.12,9.6,-67.67s9.18,-39.25,9.6,-40.33s7.47,-10.43,9.6,-8.92s9.39,21.77,9.6,22.56s9.52,49.67,9.6,50.17s9.55,70.23,9.6,70.63s9.56,81.29,9.6,81.66s9.55,81.88,9.6,82.27s9.53,72.36,9.6,72.83s9.45,54.33,9.6,55.01s8.69,30.0,9.6,31.45s7.27,6.85,9.6,5.43s9.3,-18.71,9.6,-19.63s9.48,-39.99,9.6,-40.61s9.52,-54.57,9.6,-55.09s9.52,-61.16,9.6,-61.66s9.51,-59.5,9.6,-60.03s9.45,-50.38,9.6,-51.05s9.25,-35.49,9.6,-36.48s6.44,-18.39,9.6,-18.72s6.42,-0.71,9.6,-0.44s9.09,14.67,9.6,15.85s9.33,27.19,9.6,28.08s9.38,34.18,9.6,34.98s9.37,35.32,9.6,36.15s9.26,31.09,9.6,32.07s8.94,22.71,9.6,24.0s7.79,12.12,9.6,13.71s6.46,3.59,9.6,3.15s7.87,-4.24,9.6,-5.83s8.46,-10.28,9.6,-11.81s8.49,-12.5,9.6,-14.02s8.07,-10.82,9.6,-12.42s6.66,-6.8,9.6,-7.68s6.48,-1.59,9.6,-1.09s7.81,4.18,9.6,5.77s8.42,9.69,9.6,11.23s9.08,13.16,9.6,13.91" style="fill: none; stroke: red; stroke-width: 2;"></path></g><g objname="Spline5" objtype="TSpline5"><path d="M34.91,304.96c0.74,0.73,7.01,7.12,8.73,8.55s5.82,5.89,8.73,5.95s5.82,-0.03,8.73,-0.09s7.23,-4.69,8.73,-6.15s7.72,-9.46,8.73,-10.84s7.82,-11.87,8.73,-13.21s7.6,-11.3,8.73,-12.71s6.77,-7.84,8.73,-9.2s5.87,-3.34,8.73,-2.94s7.47,3.93,8.73,5.37s8.22,13.56,8.73,14.67s8.45,22.59,8.73,23.44s8.52,29.35,8.73,30.1s8.54,32.66,8.73,33.38s8.5,31.8,8.73,32.58s8.36,26.52,8.73,27.49s7.76,17.06,8.73,18.43s5.84,6.5,8.73,6.25s7.98,-6.44,8.73,-7.71s8.48,-21.11,8.73,-21.92s8.6,-34.33,8.73,-34.93s8.64,-44.93,8.73,-45.44s8.65,-51.81,8.73,-52.27s8.65,-53.95,8.73,-54.42s8.63,-50.53,8.73,-51.06s8.55,-41.14,8.73,-41.83s8.15,-25.92,8.73,-27.08s6.12,-8.8,8.73,-7.92s8.4,12.89,8.73,13.81s8.62,34.99,8.73,35.54s8.67,54.0,8.73,54.41s8.68,67.74,8.73,68.09s8.69,74.65,8.73,74.98s8.68,73.92,8.73,74.28s8.66,65.48,8.73,65.91s8.59,49.92,8.73,50.53s7.65,27.98,8.73,29.38s6.77,5.67,8.73,4.31s8.56,-21.6,8.73,-22.29s8.66,-47.03,8.73,-47.46s8.69,-67.88,8.73,-68.21s8.7,-81.93,8.73,-82.23s8.7,-87.74,8.73,-88.03s8.69,-84.7,8.73,-85.02s8.67,-73.04,8.73,-73.43s8.61,-53.67,8.73,-54.26s5.89,-28.75,8.73,-29.19s5.88,-1.03,8.73,-0.62s8.6,27.83,8.73,28.42s8.68,54.24,8.73,54.62s8.69,74.94,8.73,75.25s8.7,88.02,8.73,88.3s8.7,92.27,8.73,92.55s8.69,87.24,8.73,87.56s8.67,73.33,8.73,73.72s8.59,51.75,8.73,52.37s6.61,24.4,8.73,25.7s7.2,-1.85,8.73,-3.3s8.62,-30.94,8.73,-31.5s8.68,-55.77,8.73,-56.15s8.69,-74.61,8.73,-74.93s8.7,-85.67,8.73,-85.96s8.7,-87.81,8.73,-88.11s8.69,-80.92,8.73,-81.26s8.66,-65.85,8.73,-66.29s8.53,-44.35,8.73,-45.08s6.85,-18.63,8.73,-20.03s8.17,5.18,8.73,6.33s8.61,30.78,8.73,31.36s8.67,52.02,8.73,52.44s8.68,67.04,8.73,67.39s8.69,74.58,8.73,74.91s8.68,74.22,8.73,74.57s8.67,66.38,8.73,66.8s8.61,52.11,8.73,52.67s8.37,32.88,8.73,33.84s5.94,11.91,8.73,12.49s8.2,-7.77,8.73,-8.89s8.56,-27.34,8.73,-28.02s8.63,-42.58,8.73,-43.1s8.65,-52.36,8.73,-52.81s8.66,-55.98,8.73,-56.43s8.64,-53.41,8.73,-53.9s8.59,-45.31,8.73,-45.92s8.44,-32.97,8.73,-33.83s7.69,-17.93,8.73,-19.33s6.12,-5.01,8.73,-4.13s8.05,8.8,8.73,10.03s8.42,20.68,8.73,21.57s8.52,28.6,8.73,29.36s8.53,32.14,8.73,32.87s8.5,31.38,8.73,32.16s8.39,26.87,8.73,27.79s8.08,19.46,8.73,20.67s7.08,10.57,8.73,12.01s5.83,3.43,8.73,3.25s6.97,-2.91,8.73,-4.33s7.62,-8.38,8.73,-9.79s8.25,-11.83,8.73,-12.51" style="fill: none; stroke: rgb(255,0,0); stroke-width: 3;"></path></g><g objname="Spline3" objtype="TSpline3"><path d="M34.91,299.98c0.43,0.66,7.3,12.08,8.73,13.53s5.84,4.04,8.73,4.26s6.64,-1.61,8.73,-2.92s7.39,-6.55,8.73,-8.0s7.66,-9.58,8.73,-10.99s7.64,-10.47,8.73,-11.88s7.32,-9.22,8.73,-10.68s6.47,-6.17,8.73,-7.38s5.93,-2.55,8.73,-1.99s7.51,4.06,8.73,5.5s8.27,14.02,8.73,15.08s8.48,24.34,8.73,25.16s8.54,31.02,8.73,31.73s8.54,33.46,8.73,34.18s8.49,31.7,8.73,32.49s8.32,25.66,8.73,26.66s7.02,15.28,8.73,16.71s6.24,3.75,8.73,2.72s8.21,-11.22,8.73,-12.33s8.5,-24.22,8.73,-25.0s8.59,-34.47,8.73,-35.09s8.62,-42.07,8.73,-42.61s8.64,-47.04,8.73,-47.55s8.64,-49.33,8.73,-49.84s8.62,-47.5,8.73,-48.05s8.56,-40.31,8.73,-40.99s8.25,-27.54,8.73,-28.62s5.83,-11.12,8.73,-10.93s8.4,11.16,8.73,12.07s8.63,36.68,8.73,37.2s8.67,56.04,8.73,56.44s8.68,68.19,8.73,68.54s8.69,73.16,8.73,73.5s8.68,70.95,8.73,71.33s8.66,62.09,8.73,62.53s8.59,48.14,8.73,48.75s8.21,29.19,8.73,30.3s6.9,8.59,8.73,7.18s8.55,-19.88,8.73,-20.57s8.67,-48.37,8.73,-48.79s8.69,-69.27,8.73,-69.6s8.7,-81.83,8.73,-82.13s8.7,-86.08,8.73,-86.38s8.69,-82.11,8.73,-82.44s8.67,-71.12,8.73,-71.51s8.61,-53.88,8.73,-54.45s6.43,-30.07,8.73,-31.26s6.28,-3.02,8.73,-1.96s8.61,29.36,8.73,29.93s8.68,55.52,8.73,55.9s8.69,74.4,8.73,74.71s8.7,86.06,8.73,86.35s8.7,90.4,8.73,90.68s8.69,86.55,8.73,86.86s8.67,74.14,8.73,74.53s8.59,53.09,8.73,53.71s7.0,23.49,8.73,24.92s7.85,-3.71,8.73,-5.05s8.61,-30.94,8.73,-31.51s8.67,-53.99,8.73,-54.38s8.69,-73.19,8.73,-73.5s8.7,-85.53,8.73,-85.82s8.7,-88.28,8.73,-88.58s8.69,-81.34,8.73,-81.69s8.65,-64.88,8.73,-65.34s8.52,-42.85,8.73,-43.59s6.68,-18.86,8.73,-20.19s7.83,3.39,8.73,4.73s8.61,30.25,8.73,30.83s8.67,52.66,8.73,53.07s8.68,67.26,8.73,67.61s8.69,74.02,8.73,74.36s8.68,73.09,8.73,73.45s8.67,65.79,8.73,66.21s8.62,52.73,8.73,53.28s8.37,33.73,8.73,34.69s5.87,11.41,8.73,11.78s8.2,-8.36,8.73,-9.49s8.56,-26.78,8.73,-27.47s8.63,-41.64,8.73,-42.16s8.65,-52.09,8.73,-52.54s8.66,-56.19,8.73,-56.63s8.64,-53.71,8.73,-54.21s8.59,-44.82,8.73,-45.44s8.44,-32.28,8.73,-33.15s7.75,-18.25,8.73,-19.62s6.05,-5.72,8.73,-4.93s8.06,8.88,8.73,10.11s8.42,20.94,8.73,21.83s8.51,28.49,8.73,29.25s8.53,31.66,8.73,32.39s8.5,30.98,8.73,31.76s8.4,27.06,8.73,27.98s8.09,19.9,8.73,21.1s7.02,10.28,8.73,11.71s5.83,3.15,8.73,2.97s6.89,-2.64,8.73,-4.04s7.58,-7.89,8.73,-9.32s8.24,-11.64,8.73,-12.33" style="fill: none; stroke: rgb(0,255,0); stroke-width: 3;"></path><path d="M38,314a6,6,0,1,0,12,0a6,6,0,1,0,-12,0zM124,281a6,6,0,1,0,12,0a6,6,0,1,0,-12,0zM182,455a6,6,0,1,0,12,0a6,6,0,1,0,-12,0zM233,270a6,6,0,1,0,12,0a6,6,0,1,0,-12,0zM281,122a6,6,0,1,0,12,0a6,6,0,1,0,-12,0zM325,427a6,6,0,1,0,12,0a6,6,0,1,0,-12,0zM367,569a6,6,0,1,0,12,0a6,6,0,1,0,-12,0zM407,243a6,6,0,1,0,12,0a6,6,0,1,0,-12,0zM446,30a6,6,0,1,0,12,0a6,6,0,1,0,-12,0zM484,293a6,6,0,1,0,12,0a6,6,0,1,0,-12,0zM521,597a6,6,0,1,0,12,0a6,6,0,1,0,-12,0zM557,487a6,6,0,1,0,12,0a6,6,0,1,0,-12,0zM592,156a6,6,0,1,0,12,0a6,6,0,1,0,-12,0zM626,74a6,6,0,1,0,12,0a6,6,0,1,0,-12,0zM659,309a6,6,0,1,0,12,0a6,6,0,1,0,-12,0zM692,519a6,6,0,1,0,12,0a6,6,0,1,0,-12,0zM725,462a6,6,0,1,0,12,0a6,6,0,1,0,-12,0zM757,267a6,6,0,1,0,12,0a6,6,0,1,0,-12,0zM788,184a6,6,0,1,0,12,0a6,6,0,1,0,-12,0zM819,264a6,6,0,1,0,12,0a6,6,0,1,0,-12,0zM850,360a6,6,0,1,0,12,0a6,6,0,1,0,-12,0zM880,365a6,6,0,1,0,12,0a6,6,0,1,0,-12,0zM910,326a6,6,0,1,0,12,0a6,6,0,1,0,-12,0z" style="stroke: rgb(0,0,255); fill: rgb(0,0,255);"></path></g></svg><g><g transform="translate(0,640)"><line x1="0" y1="0" x2="960" y2="0" style="stroke: black; stroke-width: 1;"></line><path d="M2,-12v12m28,-12v12m27,-24v24m28,-12v12m28,-12v12m28,-12v12m27,-12v12m28,-24v24m28,-12v12m27,-12v12m28,-12v12m28,-12v12m28,-24v24m27,-12v12m28,-12v12m28,-12v12m27,-12v12m28,-24v24m28,-12v12m27,-12v12m28,-12v12m28,-12v12m28,-24v24m27,-12v12m28,-12v12m28,-12v12m27,-12v12m28,-24v24m28,-12v12m28,-12v12m27,-12v12m28,-12v12m28,-24v24m27,-12v12m28,-12v12" style="stroke: black; stroke-width: 1;"></path><g font-family="Arial" font-size="28" space="preserve"><text fill="black" text-anchor="middle" dy=".8em" transform="translate(57,6)">0</text><text fill="black" text-anchor="middle" dy=".8em" transform="translate(196,6)">5</text><text fill="black" text-anchor="middle" dy=".8em" transform="translate(335,6)">10</text><text fill="black" text-anchor="middle" dy=".8em" transform="translate(473,6)">15</text><text fill="black" text-anchor="middle" dy=".8em" transform="translate(612,6)">20</text><text fill="black" text-anchor="middle" dy=".8em" transform="translate(750,6)">25</text><text fill="black" text-anchor="middle" dy=".8em" transform="translate(889,6)">30</text></g></g><g><line x1="0" y1="0" x2="0" y2="640" style="stroke: black; stroke-width: 1;"></line><path d="M18,631h-18m36,-15h-36m18,-15h-18m18,-14h-18m18,-15h-18m36,-15h-36m18,-15h-18m18,-14h-18m18,-15h-18m36,-15h-36m18,-15h-18m18,-15h-18m18,-14h-18m36,-15h-36m18,-15h-18m18,-15h-18m18,-14h-18m36,-15h-36m18,-15h-18m18,-15h-18m18,-15h-18m36,-14h-36m18,-15h-18m18,-15h-18m18,-15h-18m36,-15h-36m18,-14h-18m18,-15h-18m18,-15h-18m36,-15h-36m18,-14h-18m18,-15h-18m18,-15h-18m36,-15h-36m18,-15h-18m18,-14h-18m18,-15h-18m36,-15h-36m18,-15h-18m18,-15h-18m18,-14h-18m36,-15h-36m18,-15h-18" style="stroke: black; stroke-width: 1;"></path><g font-family="Arial" font-size="28" space="preserve"><text fill="black" text-anchor="end" dy=".4em" transform="translate(-4,616)">-1</text><text fill="black" text-anchor="end" dy=".4em" transform="translate(-4,557)">-0.8</text><text fill="black" text-anchor="end" dy=".4em" transform="translate(-4,498)">-0.6</text><text fill="black" text-anchor="end" dy=".4em" transform="translate(-4,439)">-0.4</text><text fill="black" text-anchor="end" dy=".4em" transform="translate(-4,380)">-0.2</text><text fill="black" text-anchor="end" dy=".4em" transform="translate(-4,321)">0</text><text fill="black" text-anchor="end" dy=".4em" transform="translate(-4,261)">0.2</text><text fill="black" text-anchor="end" dy=".4em" transform="translate(-4,202)">0.4</text><text fill="black" text-anchor="end" dy=".4em" transform="translate(-4,143)">0.6</text><text fill="black" text-anchor="end" dy=".4em" transform="translate(-4,84)">0.8</text><text fill="black" text-anchor="end" dy=".4em" transform="translate(-4,25)">1</text></g></g></g><g><g objname="name" objtype="TText" font-family="Arial" font-size="26" space="preserve" font-weight="bold"><text fill="black" text-anchor="start" dy=".4em" transform="translate(768,58)"> 23 knots</text></g><g objname="name" objtype="TText" font-family="Arial" font-size="26" space="preserve" font-weight="bold"><text fill="black" text-anchor="start" dy=".4em" transform="translate(384,-19)">quintic spline</text></g><g objname="name" objtype="TText" font-family="Arial" font-size="26" space="preserve" font-weight="bold"><text fill="black" text-anchor="start" dy=".4em" transform="translate(739,-19)">third spline</text></g></g></g><g objname="title" objtype="TPaveText" transform="translate(442,4)" font-family="Arial" font-size="35" space="preserve"><path d="M0,0h316v47h-316z" style="fill: none;"></path><text fill="black" text-anchor="middle" dy=".4em" transform="translate(158,24)">sin(x)*sin(x/10)</text></g><g objname="name" objtype="TLine"><line x1="408" y1="67" x2="485" y2="67" style="stroke: rgb(255,0,0); stroke-width: 2;"></line></g><g objname="name" objtype="TLine"><line x1="763" y1="67" x2="840" y2="67" style="stroke: rgb(0,255,0); stroke-width: 2;"></line></g></g></svg>