<svg xmlns="http://www.w3.org/2000/svg" viewBox="0 0 698 474" preserveAspectRatio="none" width="698" height="474">
 <path d="M0,0H698V474H0Z" style="fill: white;"></path>
 <g>
  <g transform="translate(70,47)">
   <path d="M0,0H558V379H0Z" style="fill: white; stroke: black; stroke-width: 1;"></path>
   <svg x="0" y="0" overflow="hidden" width="558" height="379" viewBox="0 0 558 379">
    <g>
     <path d="M0,158.27C0.59,158.28,4.46,159.32,5.58,160.11S10.04,164.74,11.16,166.16S15.62,172.68,16.74,174.28S21.2,180.83,22.32,182.19S26.78,187.07,27.9,187.84S32.36,189.86,33.48,189.85S37.94,188.53,39.06,187.74S43.52,183.39,44.64,182.02S49.1,175.69,50.22,174.09S54.68,167.39,55.8,165.99S60.26,160.78,61.38,160.01S65.84,158.06,66.96,158.29S71.42,160.89,72.54,162.33S77,170.05,78.12,172.7S82.58,185.19,83.7,188.82S88.16,204.82,89.28,209S93.74,226.42,94.86,230.54S99.32,246.79,100.44,250.19S104.9,262.51,106.02,264.57S110.48,270.52,111.6,270.73S116.06,268.58,117.18,266.67S121.64,255.71,122.76,251.72S127.22,232.5,128.34,226.74S132.8,201.07,133.92,194.17S138.38,164.95,139.5,157.73S143.96,128.62,145.08,122.05S149.54,96.98,150.66,91.98S155.12,74.63,156.24,71.98S160.7,65.23,161.82,65.46S166.28,70.94,167.4,74.2S171.86,92.01,172.98,98.08S177.44,126.64,178.56,134.9S183.02,171.15,184.14,180.65S188.6,220.35,189.72,229.95S194.18,268.19,195.3,276.68S199.76,308.53,200.88,314.77S205.34,335.93,206.46,339.04S210.92,346.42,212.04,345.9S216.5,338.06,217.62,333.85S222.08,311.29,223.2,303.8S227.66,268.88,228.78,258.95S233.24,215.7,234.36,204.51S238.82,158.1,239.94,147S244.4,103.13,245.52,93.5S249.98,57.65,251.1,50.71S255.56,27.45,256.68,24.1S261.14,16.48,262.26,17.17S266.72,26.32,267.84,31.01S272.3,55.95,273.42,64.1S277.88,101.89,279,112.52S283.46,158.56,284.58,170.37S289.04,219.07,290.16,230.62S294.62,275.99,295.74,285.87S300.2,322.4,301.32,329.41S305.78,352.66,306.9,355.97S311.36,363.21,312.48,362.44S316.94,352.95,318.06,348.24S322.52,323.36,323.64,315.34S328.1,278.33,329.22,268.02S333.68,223.58,334.8,212.29S339.26,165.96,340.38,155.07S344.84,112.53,345.96,103.35S350.42,69.67,351.54,63.27S356,42.3,357.12,39.39S361.58,33.3,362.7,34.11S367.16,43.16,368.28,47.46S372.74,70.02,373.86,77.17S378.32,109.98,379.44,119S383.9,157.65,385.02,167.36S389.48,206.89,390.6,216.08S395.06,251.63,396.18,259.2S400.64,286.66,401.76,291.78S406.22,308.22,407.34,310.4S411.8,314.46,412.92,313.62S417.38,305.56,418.5,301.99S422.96,283.61,424.08,277.94S428.54,252.23,429.66,245.32S434.12,216.02,435.24,208.81S439.7,179.84,440.82,173.26S445.28,148.21,446.4,143.02S450.86,124.69,451.98,121.42S456.44,111.47,457.56,110.33S462.02,109.16,463.14,110.07S467.6,116.86,468.72,119.46S473.18,132.35,474.3,136.09S478.76,152.59,479.88,156.81S484.34,174.17,485.46,178.21S489.92,193.88,491.04,197.21S495.5,209.19,496.62,211.42S501.08,218.54,502.2,219.54S506.66,221.56,507.78,221.4S512.24,218.99,513.36,217.95S517.82,212.48,518.94,210.95S523.4,204.21,524.52,202.65S528.98,196.49,530.1,195.29S534.56,191.26,535.68,190.74S540.14,189.82,541.26,190.1S545.72,192.51,546.84,193.52S551.3,198.68,552.42,200.17S557.48,207.56,558,208.41" style="fill: none; stroke: red; stroke-width: 2;"></path>
    </g>
    <g>
     <path d="M20.29,180.59C21.22,181.69,23.33,183.94,25.36,185.65S28.41,188.49,30.44,189.18S33.48,189.86,35.51,189.12S38.55,187.5,40.58,185.48S43.63,181.91,45.65,179.06S48.7,174.31,50.73,171.24S53.77,166.31,55.8,163.71S58.84,159.7,60.87,158.26S63.92,156.23,65.95,156.52S68.99,157.33,71.02,159.7S74.06,163.87,76.09,168.39S79.13,175.93,81.16,182.27S84.21,192.57,86.24,200.09S89.28,212.05,91.31,219.86S94.35,232.04,96.38,239.16S99.43,250,101.45,255.43S104.5,263.43,106.53,266.35S109.57,270.23,111.6,270.05S114.64,269,116.67,265.49S119.72,259.24,121.75,252.5S124.79,241.33,126.82,231.82S129.86,216.48,131.89,204.91S134.93,186.59,136.96,173.95S140.01,154.22,142.04,141.72S145.08,122.49,147.11,111.49S150.15,94.88,152.18,86.71S155.23,74.82,157.25,70.68S160.3,65.29,162.33,65.98S165.37,68.32,167.4,74.16S170.44,84.55,172.47,95.21S175.52,112.92,177.55,127.43S180.59,150.8,182.62,167.75S185.66,194.47,187.69,212.15S190.73,239.53,192.76,256.14S195.81,281.38,197.84,295.17S200.88,315.63,202.91,325.09S205.95,338.5,207.98,342.49S211.03,347.17,213.05,345.04S216.1,340.1,218.13,331.84S221.17,317.44,223.2,303.73S226.24,281.16,228.27,263.34S231.32,234.81,233.35,214.65S236.39,183.01,238.42,162.51S241.46,130.93,243.49,112.17S246.53,83.8,248.56,68.68S251.61,46.43,253.64,36.55S256.68,22.8,258.71,19.27S261.75,15.61,263.78,18.9S266.83,25.89,268.85,35.73S271.9,52.69,273.93,68.07S276.97,93.26,279,112.63S282.04,143.5,284.07,164.92S287.12,198.4,289.15,219.73S292.19,252.48,294.22,271.58S297.26,300.31,299.29,315.24S302.33,337,304.36,346.25S307.41,358.81,309.44,361.47S312.48,363.63,314.51,359.51S317.55,351.24,319.58,340.86S322.63,323.13,324.65,307.61S327.7,282.29,329.73,263.24S332.77,232.95,334.8,212.34S337.84,180.22,339.87,160.16S342.92,129.51,344.95,112.04S347.99,85.97,350.02,72.78S353.06,53.8,355.09,46.08S358.13,35.85,360.16,34.23S363.21,33.51,365.24,37.98S368.28,46.62,370.31,56.55S373.35,73.41,375.38,87.6S378.43,110.66,380.45,127.51S383.5,154.17,385.53,171.88S388.57,199.29,390.6,216.04S393.64,241.44,395.67,255.59S398.72,276.54,400.75,286.79S403.79,301.34,405.82,306.83S408.86,313.8,410.89,314.22S413.93,313.33,415.96,308.96S419.01,300.79,421.04,292.37S424.08,278.21,426.11,266.85S429.15,248.51,431.18,235.57S434.23,215.22,436.25,202.15S439.3,182.05,441.33,170.23S444.37,152.48,446.4,143.04S449.44,129.3,451.47,123.01S454.52,114.34,456.55,111.56S459.59,108.41,461.62,109.11S464.66,111.31,466.69,115.05S469.73,121.8,471.76,127.83S474.81,137.84,476.84,145.21S479.88,156.97,481.91,164.67S484.95,176.62,486.98,183.72S490.03,194.44,492.05,200.18S495.1,208.55,497.13,212.42S500.17,217.72,502.2,219.53S505.24,221.58,507.27,221.45S510.32,220.56,512.35,218.89S515.39,215.73,517.42,213.09S521.56,207.22,522.49,205.68" style="fill: none; stroke: #ff0000; stroke-width: 3;"></path>
    </g>
    <g>
     <path d="M20.29,177.64C20.96,179.42,23.33,183.55,25.36,185.65S28.41,188.02,30.44,188.18S33.48,187.74,35.51,186.45S38.55,183.96,40.58,181.71S43.63,177.91,45.65,175.2S48.7,170.84,50.73,168.17S53.77,163.98,55.8,161.85S58.84,158.59,60.87,157.48S63.92,155.88,65.95,156.3S68.99,157.12,71.02,159.56S74.06,163.72,76.09,168.49S79.13,176.65,81.16,183.38S84.21,194.37,86.24,202.18S89.28,214.52,91.31,222.42S94.35,234.65,96.38,241.66S99.43,252.31,101.45,257.44S104.5,265.04,106.53,267.34S109.57,270.09,111.6,268.95S114.64,266.07,116.67,261.65S119.72,253.96,121.75,246.84S124.79,235.26,126.82,226.06S129.86,211.51,131.89,200.83S134.93,184.2,136.96,172.67S140.01,154.75,142.04,143.16S145.08,125.25,147.11,114.7S150.15,98.67,152.18,90.42S155.23,78.16,157.25,73.48S160.3,66.87,162.33,67.01S165.37,68.32,167.4,74.15S170.44,85.09,172.47,96.19S175.52,114.81,177.55,129.61S180.59,153.38,182.62,170.2S185.66,196.57,187.69,213.73S190.73,240.11,192.76,255.97S195.81,279.82,197.84,293S200.88,312.51,202.91,321.87S205.95,335.38,207.98,339.82S211.03,345.65,213.05,344.07S216.1,340.1,218.13,331.89S221.17,317.01,223.2,302.99S226.24,279.75,228.27,261.78S231.32,233.1,233.35,213.14S236.39,181.98,238.42,161.99S241.46,131.4,243.49,113.17S246.53,85.74,248.56,70.82S251.61,48.73,253.64,38.58S256.68,24,258.71,20.07S261.75,15.6,263.78,18.91S266.83,26.47,268.85,36.63S271.9,54.27,273.93,69.74S276.97,94.91,279,113.98S282.04,144.15,284.07,165.12S287.12,197.79,289.15,218.82S292.19,251.14,294.22,270.25S297.26,299.2,299.29,314.39S302.33,336.88,304.36,346.2S307.41,358.6,309.44,360.96S312.48,362.3,314.51,357.97S317.55,349.48,319.58,339.31S322.63,322.25,324.65,307.1S327.7,282.44,329.73,263.57S332.77,233.41,334.8,212.75S337.84,180.46,339.87,160.3S342.92,129.34,344.95,111.93S347.99,86.13,350.02,73.23S353.06,54.97,355.09,47.42S358.13,37.29,360.16,35.46S363.21,34.06,365.24,38.27S368.28,46.59,370.31,56.53S373.35,73.66,375.38,87.95S378.43,111.18,380.45,127.99S383.5,154.52,385.53,172.02S388.57,198.98,390.6,215.52S393.64,240.58,395.67,254.73S398.72,275.86,400.75,286.28S403.79,301.32,405.82,306.83S408.86,313.53,410.89,313.8S413.93,312.56,415.96,308.18S419.01,300.16,421.04,291.92S424.08,278.17,426.11,266.95S429.15,248.77,431.18,235.84S434.23,215.43,436.25,202.3S439.3,182,441.33,170.2S444.37,152.6,446.4,143.29S449.44,129.91,451.47,123.66S454.52,114.95,456.55,112.04S459.59,108.51,461.62,109.12S464.66,111.32,466.69,115.1S469.73,121.98,471.76,128.03S474.81,138.05,476.84,145.36S479.88,156.94,481.91,164.54S484.95,176.27,486.98,183.35S490.03,194.1,492.05,199.92S495.1,208.53,497.13,212.41S500.17,217.61,502.2,219.35S505.24,221.23,507.27,221.11S510.32,220.3,512.35,218.71S515.39,215.76,517.42,213.2S521.57,207.42,522.49,205.9" style="fill: none; stroke: #00ff00; stroke-width: 3;"></path>
     <path d="M19,186a6,6,0,1,0,12,0a6,6,0,1,0,-12,0zM69,167a6,6,0,1,0,12,0a6,6,0,1,0,-12,0zM103,269a6,6,0,1,0,12,0a6,6,0,1,0,-12,0zM133,160a6,6,0,1,0,12,0a6,6,0,1,0,-12,0zM161,72a6,6,0,1,0,12,0a6,6,0,1,0,-12,0zM186,253a6,6,0,1,0,12,0a6,6,0,1,0,-12,0zM211,337a6,6,0,1,0,12,0a6,6,0,1,0,-12,0zM234,144a6,6,0,1,0,12,0a6,6,0,1,0,-12,0zM257,18a6,6,0,1,0,12,0a6,6,0,1,0,-12,0zM279,173a6,6,0,1,0,12,0a6,6,0,1,0,-12,0zM300,354a6,6,0,1,0,12,0a6,6,0,1,0,-12,0zM321,288a6,6,0,1,0,12,0a6,6,0,1,0,-12,0zM341,92a6,6,0,1,0,12,0a6,6,0,1,0,-12,0zM361,44a6,6,0,1,0,12,0a6,6,0,1,0,-12,0zM381,183a6,6,0,1,0,12,0a6,6,0,1,0,-12,0zM400,307a6,6,0,1,0,12,0a6,6,0,1,0,-12,0zM419,274a6,6,0,1,0,12,0a6,6,0,1,0,-12,0zM437,158a6,6,0,1,0,12,0a6,6,0,1,0,-12,0zM456,109a6,6,0,1,0,12,0a6,6,0,1,0,-12,0zM474,157a6,6,0,1,0,12,0a6,6,0,1,0,-12,0zM492,213a6,6,0,1,0,12,0a6,6,0,1,0,-12,0zM509,216a6,6,0,1,0,12,0a6,6,0,1,0,-12,0zM527,193a6,6,0,1,0,12,0a6,6,0,1,0,-12,0z" style="stroke: #0000ff; fill: #0000ff;"></path>
    </g>
   </svg>
   <g>
    <g transform="translate(0,379)">
     <path d="M0,0h558M1,-7V0M17,-7V0M33,-14V0M50,-7V0M66,-7V0M82,-7V0M98,-7V0M114,-14V0M130,-7V0M146,-7V0M162,-7V0M178,-7V0M194,-14V0M211,-7V0M227,-7V0M243,-7V0M259,-7V0M275,-14V0M291,-7V0M307,-7V0M323,-7V0M339,-7V0M355,-14V0M372,-7V0M388,-7V0M404,-7V0M420,-7V0M436,-14V0M452,-7V0M468,-7V0M484,-7V0M500,-7V0M517,-14V0M533,-7V0M549,-7V0" style="stroke: black; stroke-width: 1;"></path>
     <g font-family="Arial" font-size="17" space="preserve" fill="black" text-anchor="middle">
      <text dy=".8em" transform="translate(33,4)">
       0
      </text>
      <text dy=".8em" transform="translate(114,4)">
       5
      </text>
      <text dy=".8em" transform="translate(194,4)">
       10
      </text>
      <text dy=".8em" transform="translate(275,4)">
       15
      </text>
      <text dy=".8em" transform="translate(355,4)">
       20
      </text>
      <text dy=".8em" transform="translate(436,4)">
       25
      </text>
      <text dy=".8em" transform="translate(517,4)">
       30
      </text>
     </g>
    </g>
    <g>
     <path d="M0,0v379M11,374H0M21,365H0M11,356H0M11,347H0M11,339H0M21,330H0M11,321H0M11,312H0M11,304H0M21,295H0M11,286H0M11,277H0M11,269H0M21,260H0M11,251H0M11,242H0M11,234H0M21,225H0M11,216H0M11,207H0M11,199H0M21,190H0M11,181H0M11,172H0M11,164H0M21,155H0M11,146H0M11,137H0M11,129H0M21,120H0M11,111H0M11,102H0M11,94H0M21,85H0M11,76H0M11,67H0M11,59H0M21,50H0M11,41H0M11,32H0M11,24H0M21,15H0M11,6H0" style="stroke: black; stroke-width: 1;"></path>
     <g font-family="Arial" font-size="17" space="preserve" fill="black" text-anchor="end">
      <text dy=".4em" transform="translate(-2,365)">
       -1
      </text>
      <text dy=".4em" transform="translate(-2,330)">
       -0.8
      </text>
      <text dy=".4em" transform="translate(-2,295)">
       -0.6
      </text>
      <text dy=".4em" transform="translate(-2,260)">
       -0.4
      </text>
      <text dy=".4em" transform="translate(-2,225)">
       -0.2
      </text>
      <text dy=".4em" transform="translate(-2,190)">
       0
      </text>
      <text dy=".4em" transform="translate(-2,155)">
       0.2
      </text>
      <text dy=".4em" transform="translate(-2,120)">
       0.4
      </text>
      <text dy=".4em" transform="translate(-2,85)">
       0.6
      </text>
      <text dy=".4em" transform="translate(-2,50)">
       0.8
      </text>
      <text dy=".4em" transform="translate(-2,15)">
       1
      </text>
     </g>
    </g>
   </g>
   <g>
    <g font-family="Arial" font-size="15" space="preserve" font-weight="bold">
     <text fill="black" text-anchor="start" dy=".4em" transform="translate(446,34)">
      23 knots
     </text>
    </g>
    <g font-family="Arial" font-size="15" space="preserve" font-weight="bold">
     <text fill="black" text-anchor="start" dy=".4em" transform="translate(223,-11)">
      quintic spline
     </text>
    </g>
    <g font-family="Arial" font-size="15" space="preserve" font-weight="bold">
     <text fill="black" text-anchor="start" dy=".4em" transform="translate(430,-11)">
      third spline
     </text>
    </g>
   </g>
  </g>
  <g transform="translate(257,2)" font-family="Arial" font-size="18" space="preserve">
   <text fill="black" text-anchor="middle" dy=".4em" transform="translate(92,14)">
    sin(x)*sin(x/10)
   </text>
  </g>
  <g>
   <path d="M237,40H282" style="stroke: #ff0000; stroke-width: 2;"></path>
  </g>
  <g>
   <path d="M444,40H489" style="stroke: #00ff00; stroke-width: 2;"></path>
  </g>
 </g>
</svg>