<svg xmlns="http://www.w3.org/2000/svg" viewBox="0 0 1200 800" preserveAspectRatio="none" width="1200" height="800">
 <path d="M0,0H1200V800H0Z" style="fill: white;"></path>
 <g>
  <g transform="translate(120,80)">
   <path d="M0,0H960V640H0Z" style="fill: white; stroke: black; stroke-width: 1;"></path>
   <svg x="0" y="0" overflow="hidden" width="960" height="640" viewBox="0 0 960 640">
    <g>
     <path d="M0,480h48v32h-48zM48,96h48v32h-48zm0,160h48v32h-48zm0,64h48v64h-48zm0,128h48v32h-48zM96,576h48v32h-48zM144,160h48v32h-48zm0,192h48v64h-48zm0,96h48v32h-48zM192,128h48v64h-48zm0,96h48v32h-48zm0,96h48v32h-48zm0,64h48v32h-48zm0,224h48v32h-48zM240,192h48v32h-48zm0,224h48v32h-48zM288,0h48v32h-48zm0,64h48v32h-48zm0,320h48v32h-48zm0,64h48v32h-48zm0,96h48v64h-48zM336,128h48v64h-48zm0,256h48v96h-48zM384,32h48v128h-48zm0,448h48v32h-48zM432,128h48v32h-48zm0,96h48v64h-48zm0,96h48v32h-48zm0,96h48v128h-48zM480,128h48v32h-48zm0,288h48v32h-48zm0,64h48v32h-48zM528,64h48v32h-48zm0,192h48v32h-48zm0,128h48v32h-48zm0,96h48v32h-48zm0,96h48v32h-48zM576,96h48v32h-48zm0,64h48v32h-48zm0,224h48v96h-48zm0,128h48v32h-48zM624,128h48v32h-48zm0,64h48v32h-48zm0,64h48v64h-48zm0,128h48v64h-48zM672,128h48v32h-48zm0,64h48v64h-48zm0,160h48v32h-48zm48,0h48v64h-48zm0,96h48v32h-48zM768,32h48v32h-48zm0,64h48v32h-48zm0,64h48v32h-48zm0,192h48v32h-48zm48,-32h48v32h-48zm48,-32h48v32h-48zm48,-32h48v32h-48z" fill="rgb(16, 100, 220)"></path>
     <path d="M0,288h48v32h-48zM96,192h48v32h-48zm96,96h48v32h-48zm0,64h48v32h-48zM240,64h48v32h-48zm0,64h48v64h-48zm0,160h48v64h-48zm0,96h48v32h-48zM288,128h48v64h-48zm0,160h48v96h-48zm48,-32h48v32h-48zm0,96h48v32h-48zm0,128h48v32h-48zM384,192h48v32h-48zm0,64h48v32h-48zm0,192h48v32h-48zM432,160h48v32h-48zm48,0h48v32h-48zm0,160h48v96h-48zM528,160h48v64h-48zm0,160h48v32h-48zm0,96h48v32h-48zM576,224h48v64h-48zm0,256h48v32h-48z" fill="rgb(14, 143, 209)"></path>
     <path d="M192,256h48v32h-48zm48,0h48v32h-48zM288,96h48v32h-48zm0,128h48v64h-48zm48,0h48v32h-48zm48,0h48v32h-48zm0,64h48v32h-48zm0,96h48v32h-48zM432,192h48v32h-48zM480,64h48v64h-48zm48,32h48v32h-48zm48,96h48v32h-48zm0,160h48v32h-48zm48,-32h48v32h-48zm96,-32h48v32h-48z" fill="rgb(13, 167, 195)"></path>
     <path d="M192,416h48v32h-48zM240,224h48v32h-48zm48,-32h48v32h-48zm48,0h48v32h-48zm0,96h48v32h-48zM384,160h48v32h-48zm0,192h48v32h-48zm48,-64h48v32h-48zm48,0h48v32h-48zm48,0h48v32h-48zm96,64h48v32h-48zm48,-64h48v32h-48zm48,-64h48v32h-48z" fill="rgb(82, 186, 146)"></path>
     <path d="M288,416h48v32h-48zM432,352h48v32h-48zM480,192h48v32h-48zm48,160h48v32h-48zm48,-64h48v64h-48z" fill="rgb(149, 190, 113)"></path>
     <path d="M336,320h48v32h-48zm48,0h48v32h-48zm96,-64h48v32h-48z" fill="rgb(226, 192, 75)"></path>
     <path d="M480,224h48v32h-48z" fill="rgb(249, 249, 15)"></path>
    </g>
   </svg>
   <g>
    <g transform="translate(0,640)">
     <path d="M0,0h960M32,-10V0M65,-10V0M97,-10V0M130,-19V0M163,-10V0M196,-10V0M229,-10V0M262,-10V0M295,-19V0M328,-10V0M361,-10V0M394,-10V0M427,-10V0M460,-19V0M493,-10V0M526,-10V0M559,-10V0M592,-10V0M625,-19V0M658,-10V0M691,-10V0M724,-10V0M756,-10V0M789,-19V0M822,-10V0M855,-10V0M888,-10V0M921,-10V0M954,-19V0" style="stroke: black; stroke-width: 1;"></path>
     <g font-family="Arial" font-size="28" xml:space="preserve" fill="black" text-anchor="middle"><text dy=".8em" transform="translate(130,5)">-2</text><text dy=".8em" transform="translate(295,5)">-1</text><text dy=".8em" transform="translate(460,5)">0</text><text dy=".8em" transform="translate(625,5)">1</text><text dy=".8em" transform="translate(789,5)">2</text><text dy=".8em" transform="translate(954,5)">3</text></g>
     <g font-family="Arial" font-size="28" xml:space="preserve" transform="translate(960,45)"><text fill="black" text-anchor="end" dominant-baseline="middle">px</text></g>
    </g>
    <g>
     <path d="M0,0v640M15,634H0M15,610H0M15,586H0M15,563H0M29,539H0M15,515H0M15,491H0M15,467H0M15,443H0M29,419H0M15,395H0M15,371H0M15,348H0M15,324H0M29,300H0M15,276H0M15,252H0M15,228H0M15,204H0M29,180H0M15,156H0M15,133H0M15,109H0M15,85H0M29,61H0M15,37H0M15,13H0" style="stroke: black; stroke-width: 1;"></path>
     <g font-family="Arial" font-size="28" xml:space="preserve" fill="black" text-anchor="end"><text dominant-baseline="middle" transform="translate(-6,539)">-2</text><text dominant-baseline="middle" transform="translate(-6,419)">-1</text><text dominant-baseline="middle" transform="translate(-6,300)">0</text><text dominant-baseline="middle" transform="translate(-6,180)">1</text><text dominant-baseline="middle" transform="translate(-6,61)">2</text></g>
     <g font-family="Arial" font-size="28" xml:space="preserve" transform="translate(-67)"><text fill="black" text-anchor="end" dominant-baseline="middle" transform="rotate(270)">py</text></g>
    </g>
   </g>
  </g>
  <g transform="translate(936,52)" font-family="Arial" font-size="27" xml:space="preserve" fill="black"><path d="M0,0H240V256H0Z" style="fill: white; stroke: black; stroke-width: 1;"></path><text text-anchor="start" dominant-baseline="middle" transform="translate(12,16)">Entries</text><text text-anchor="end" dominant-baseline="middle" transform="translate(228,16)">302</text><text text-anchor="start" dominant-baseline="middle" transform="translate(12,48)">Mean x</text><text text-anchor="end" dominant-baseline="middle" transform="translate(228,48)">-0.1107</text><text text-anchor="start" dominant-baseline="middle" transform="translate(12,80)">Mean y</text><text text-anchor="end" dominant-baseline="middle" transform="translate(228,80)">0.0489</text><text text-anchor="start" dominant-baseline="middle" transform="translate(12,112)">Std Dev x</text><text text-anchor="end" dominant-baseline="middle" transform="translate(228,112)">1</text><text text-anchor="start" dominant-baseline="middle" transform="translate(12,144)">Std Dev y</text><text text-anchor="end" dominant-baseline="middle" transform="translate(228,144)">0.9321</text><text text-anchor="middle" dominant-baseline="middle" transform="translate(40,176)">0 </text><text text-anchor="middle" dominant-baseline="middle" transform="translate(120,176)"> 0 </text><text text-anchor="middle" dominant-baseline="middle" transform="translate(200,176)"> 0</text><text text-anchor="middle" dominant-baseline="middle" transform="translate(40,208)">0 </text><text text-anchor="middle" dominant-baseline="middle" transform="translate(120,208)"> 302 </text><text text-anchor="middle" dominant-baseline="middle" transform="translate(200,208)"> 0</text><text text-anchor="middle" dominant-baseline="middle" transform="translate(40,240)">0 </text><text text-anchor="middle" dominant-baseline="middle" transform="translate(120,240)"> 0 </text><text text-anchor="middle" dominant-baseline="middle" transform="translate(200,240)"> 0</text><path d="M0,160h240M0,192h240M0,224h240M80,160V256M160,160V256" style="stroke: black; stroke-width: 1;"></path></g>
  <g transform="translate(346,4)" font-family="Arial" font-size="39" xml:space="preserve"><text fill="black" text-anchor="middle" dominant-baseline="middle" transform="translate(254,26)">drawing 'px:py' from ntuple</text></g>
 </g>
</svg>