<svg viewBox="0 0 1200 800" preserveAspectRatio="none" xmlns="http://www.w3.org/2000/svg" width="1200" height="800"><title>ROOT canvas</title><rect class="canvas_fillrect" x="0" y="0" width="1200" height="800" style="fill: white;"></rect><g class="root_frame" style="display: none;"></g><g class="subpads_layer"></g><g class="special_layer"><g class="draw3d_canvas" transform="translate(36,72)" title=""><svg viewBox="-564 -344 1128 688" width="1128" height="688" style="background-color: rgb(255, 255, 255);"><path style="fill:none;stroke:rgb(0,0,0)" d="M96,61l3,-240M-318,101l414,-40M444,183l-348,-122M-333,-198l432,19M473,-237l-374,58"/><path style="fill:rgb(0,0,0)" d="M-327,102v0v1ZM-327,103v0h1ZM-327,102v1h1ZM-327,100v1v1ZM-326,103v1v0ZM-327,99v1v2ZM-327,102l1,1l1,1ZM-327,102h1v0ZM-327,102h1v0ZM-327,99v1v0ZM-327,102l1,1v-1ZM-327,102h1v-1ZM-327,102l1,1v0ZM-327,102l1,-1h-1ZM-326,103v1h1ZM-327,102v-1v0ZM-327,102l2,2l-1,-1ZM-326,104v0h1ZM-327,98v1v3ZM-327,98v1v0ZM-327,98v4v-1ZM-325,104l-1,-1v0ZM-325,104v-1h-1ZM-325,104v-1v0ZM-327,98v0v1ZM-327,98v3v-1ZM-325,103v0v1ZM-327,98v2v0ZM-325,104v0v0ZM-325,103v0v1ZM-327,98v0v0ZM-327,98v2l1,-1ZM-325,103v0v1ZM-327,98l1,1v0ZM-327,98l1,1v0ZM-324,103h-1v1ZM-325,104v0h1ZM-327,98l1,1v-1ZM-327,98h1v0ZM-325,104h1v0ZM-326,97v0l-1,1ZM-327,98h1v0ZM-324,103l-1,1l2,-2ZM-327,98h1v0ZM-325,104h1l1,-2ZM-327,98h1h1ZM-326,97v0l-1,1ZM-324,103v0l1,-1ZM-324,104v-1v0ZM-326,97v0v0ZM-324,102v1l1,-1ZM-324,98h-3h2ZM-324,102v0h1ZM-324,104v-1l1,-1ZM-324,98l-2,-1l-1,1ZM-324,102v0h1ZM-324,101v1h1ZM-324,103v-1h1ZM-324,101v0l1,1ZM-325,98v0h1ZM-324,100v1l1,1ZM-325,97v0h-1ZM-324,100v0l1,2ZM-325,98v0h1ZM-324,100v0l1,2ZM-324,99v1l1,2ZM-325,98v0h1ZM-325,98v1l1,-1ZM-324,98l-1,-1h-1ZM-325,99v0l1,-1ZM-324,99l1,3l-1,-4ZM-325,99h1v-1ZM-323,102v-1v0ZM-323,102v-1l-1,-1ZM-324,98h-1v-1ZM-323,102l-1,-2v-2ZM-323,101l-1,-1v0ZM-324,100v-1v-1ZM-324,99v-1v0ZM-324,100v-1v0ZM-335,65v1v0ZM-335,66v1h1ZM-335,65v1l1,1ZM-335,64v1v0ZM-334,67v0v1ZM-335,63v1v1ZM-335,65l1,2l1,1ZM-335,65l1,1v0ZM-335,65l1,1v-1ZM-335,63v1v0ZM-335,65l1,1v0ZM-335,65h1v0ZM-335,65l1,2v-1ZM-335,65h1v0ZM-334,67v1h1ZM-335,65h1l-1,-1ZM-335,65l2,3l-1,-1ZM-334,68h1v0ZM-335,61v2v2ZM-335,62v1v0ZM-335,61v4v-1ZM-333,68l-1,-1v0ZM-333,68v-1h-1ZM-333,68v-1v0ZM-335,61v1v1ZM-335,61v3v0ZM-333,67v0v1ZM-335,61v3v-1ZM-333,68v0h1ZM-333,67v0v1ZM-335,61v1v0ZM-335,61v2h1ZM-333,67v0v1ZM-335,61l1,2v0ZM-335,61l1,2v-1ZM-332,67h-1v1ZM-333,68h1v-1ZM-335,61l1,1v0ZM-335,61l1,1v0ZM-332,68v0v-1Z"/><path style="fill:none;stroke:rgb(0,0,0)" d="M-318,101h-3"/><path style="fill:rgb(0,0,0)" d="M-334,61v0h-1ZM-335,61l1,1v0ZM-332,67l-1,1l2,-2ZM-335,61l1,1v0ZM-333,68l1,-1l1,-1ZM-335,61l1,1h1ZM-334,61v0h-1ZM-332,66v1l1,-1ZM-332,67v0v0ZM-334,61v0v0ZM-332,66v0h1ZM-332,62l-3,-1l2,1ZM-332,66v0h1ZM-332,67v0l1,-1ZM-332,62l-2,-1h-1ZM-332,65v1h1ZM-332,65v0l1,1ZM-332,67v-1h1ZM-332,64v1l1,1ZM-333,62v0h1ZM-332,64v0l1,2ZM-333,61v0h-1ZM-332,64v0l1,2ZM-333,62v0h1ZM-332,63v1l1,2ZM-332,63v0l1,3ZM-333,62v0h1ZM-333,62v0h1ZM-332,62l-1,-1h-1ZM-333,62v0h1ZM-332,63l1,3l-1,-4ZM-333,62l1,1v-1ZM-331,66v-1v-1ZM-331,67v1h1ZM-331,66v-2l-1,-1ZM-332,62l-1,-1v0ZM-331,66l-1,-3v-1ZM-331,64v0l-1,-1ZM-330,68v-1h-1ZM-332,63v-1v0ZM-332,62v0v0ZM-332,63v0v-1Z"/><path style="fill:none;stroke:rgb(0,0,0)" d="M-318,101l-15,-299M-318,101l-3,3M-248,326l-70,-225M-318,94h-2"/><path style="fill:rgb(0,0,0)" d="M-329,66v1v0ZM-329,67v0v1ZM-329,66v1v1ZM-329,68v0h1ZM-329,66v2h1ZM-329,68h1v0ZM-328,67v-1h-1ZM-328,67v0l-1,-1ZM-328,67v0l-1,-1ZM-328,68v0v0ZM-328,67v0l-1,-1ZM-328,67v0l-1,-1ZM-328,67l-1,-1l1,2ZM-328,67v0l-1,-1ZM-327,110l3,-3v-1ZM-328,67v0v1ZM-328,68h1v0ZM-328,68v-1v1ZM-327,68h-1v0ZM-327,68v0h-1ZM-329,61v4h1ZM-328,68h1v0ZM-327,68v0h-1ZM-328,64v1v0ZM-327,68v0h-1ZM-329,61l1,4v0ZM-328,64v1v0ZM-327,68v0h-1ZM-327,68v0v0ZM-328,64v1v0ZM-328,64l-1,-3l1,4ZM-328,64v0v0ZM-326,67l-1,1h-1Z"/><path style="fill:none;stroke:rgb(0,0,0)" d="M-319,87h-2"/><path style="fill:rgb(0,0,0)" d="M-328,64v0v0ZM-328,68h1h1ZM-328,64v0v0ZM-328,64v-2l-1,-1ZM-326,67l-2,1h2ZM-328,112v0v0ZM-328,64v0v0ZM-327,64h-1v1ZM-327,68h1v0ZM-327,110l3,-4l-4,5ZM-327,64l-1,1v0ZM-328,64v0v0ZM-327,64h-1v0ZM-327,64l-1,1v0ZM-328,112v0h-1ZM-328,112v0v0ZM-328,64v0v0ZM-328,112h-1v0ZM-327,64l-1,1v0ZM-328,112v0v0ZM-327,64l-1,1v0ZM-327,68h1v0ZM-328,112v0h-1ZM-327,64l-1,1l1,-1ZM-328,112v0v0ZM-326,67v0v1ZM-327,64h-1v0ZM-327,64v0h-1ZM-327,64v0v1ZM-326,67v0v1ZM-328,112v0h-1ZM-327,64v1v0ZM-326,68v0v0ZM-328,112v0h-1ZM-327,64v0h-1ZM-326,67v0v1ZM-327,64v1v0ZM-328,112v0h-1ZM-329,112v0v0ZM-328,112v0h-1ZM-326,67v0v1ZM-327,64v1v0ZM-327,64v0v0ZM-326,66v1v1ZM-328,112v0h-1ZM-327,64v1v0ZM-328,62h2l-3,-1ZM-326,66v0v2ZM-329,112v0v0ZM-326,66v0v2ZM-326,66v0v2ZM-328,112v0h-1ZM-328,112v0h-1ZM-326,68l1,-1v0ZM-325,66l-2,-1h1ZM-329,112v0v0ZM-325,66l-2,-2v1ZM-325,66l-1,-1v0ZM-326,68l1,-2h-1ZM-329,112h1v0ZM-325,66l-1,-1v0ZM-325,66l-1,-1v1ZM-326,64v0h-1ZM-326,68l1,-1v-1ZM-326,65v-1h-1ZM-325,66l-1,-1l-1,-1ZM-325,67v0v-1Z"/><path style="fill:none;stroke:rgb(0,0,0)" d="M-319,80h-2"/><path style="fill:rgb(0,0,0)" d="M-329,112v0v0ZM-326,65v-1v0ZM-329,112v0h1ZM-328,62h2v0ZM-325,66v-1h-1ZM-325,66v0v-1ZM-325,65v0h-1ZM-329,112v0v0ZM-327,110l-1,1v0ZM-329,112h1v0ZM-327,110l-1,1v0ZM-329,112v0v0ZM-329,112h1v0ZM-329,112h1v0ZM-329,112l1,-1v1ZM-329,112l2,-2l-1,1ZM-329,112v0v0ZM-329,112h1l1,-2ZM-329,112v0h1ZM-329,112h1v0ZM-328,112v0l1,-2ZM-328,112v0v0Z"/><path style="fill:none;stroke:rgb(0,0,0)" d="M-319,73l-2,-1"/><path style="fill:rgb(0,0,0)" d="M-328,112v0v0ZM-323,108v-1l-4,3ZM-328,112l5,-4l-4,2Z"/><path style="fill:none;stroke:rgb(0,0,0)" d="M-320,65h-3M-320,58h-2M-321,51h-1"/><path style="fill:rgb(0,0,0)" d="M-328,26v0v1Z"/><path style="fill:none;stroke:rgb(0,0,0)" d="M-321,44l-2,-1"/><path style="fill:rgb(0,0,0)" d="M-328,26v0v1ZM-328,26v0v1ZM-327,27v5h1ZM-328,26v0v1ZM-327,26h-1v1ZM-327,26l-1,1h1ZM-327,27l1,5l-1,-7ZM-327,27v-1v0ZM-327,27v-1v0ZM-326,32l-1,-7v0ZM-327,27v-1v0ZM-327,27v-2v1ZM-326,32v-7h-1Z"/><path style="fill:none;stroke:rgb(0,0,0)" d="M-321,36h-2M-322,29h-3"/><path style="fill:rgb(0,0,0)" d="M-337,-11v0v1ZM-337,-11v0v1ZM-337,-11v0v1ZM-336,-10v5h1ZM-337,-11v0v1ZM-336,-11h-1v1ZM-336,-11l-1,1h1ZM-336,-10l1,5l-1,-7ZM-336,-10v-1v0ZM-336,-10v-1v0ZM-335,-5l-1,-7v0ZM-336,-10v-1v0ZM-336,-10v-2v1ZM-335,-5v-7h-1ZM-334,-6v1h1ZM-333,-5v-1h-1Z"/><path style="fill:none;stroke:rgb(0,0,0)" d="M-322,22h-2"/><path style="fill:rgb(0,0,0)" d="M-332,-6v0v0ZM-332,-6v1v0ZM-332,-6v0v1ZM-332,-5h1v0ZM-332,-6v1l1,1ZM-332,-5h1v1ZM-331,-6v0h-1ZM-331,-6v0h-1ZM-331,-6v0h-1ZM-331,-5v1v0ZM-331,-6v0h-1ZM-331,-5v-1h-1ZM-331,-5l-1,-1l1,2ZM-331,-5v0l-1,-1ZM-331,-5v0v1Z"/><path style="fill:none;stroke:rgb(0,0,0)" d="M-322,14h-2"/><path style="fill:rgb(0,0,0)" d="M-331,-4h1v0ZM-330,-5h-1v1ZM-330,-5v0l-1,1ZM-330,-5v0l-1,1ZM-332,-12v4h1ZM-331,-4h1h1ZM-330,-5v0l-1,1ZM-331,-9v1v0ZM-330,-5v0l-1,1ZM-332,-12l1,4v0ZM-331,-9v1v0ZM-329,-5h-1l-1,1ZM-330,-4v0h1ZM-331,-9v1v0ZM-331,-9l-1,-3l1,4ZM-331,-9v0v0ZM-329,-5v0l-2,1ZM-331,-9v0v0ZM-331,-4h2l1,-1ZM-331,-9v0v0ZM-331,-9v-2l-1,-1ZM-329,-5l-2,1l3,-1Z"/><path style="fill:none;stroke:rgb(0,0,0)" d="M-317,104l-2,2"/><path style="fill:rgb(0,0,0)" d="M-331,-9v0v0ZM-330,-9h-1v1ZM-329,-4v0v-1ZM-330,-9l-1,1v0ZM-330,-9h-1v0ZM-330,-9h-1v0ZM-330,-9l-1,1v0ZM-330,-9v0h-1ZM-330,-9l-1,1v0ZM-330,-9l-1,1h1ZM-329,-4v-1h1ZM-330,-9v1v0ZM-329,-5v0h1ZM-330,-9v0h-1ZM-330,-9v0v0ZM-330,-9v1v0ZM-329,-6v1h1ZM-330,-9v1v0ZM-329,-5v0h1ZM-330,-9v0v0ZM-329,-6v0l1,1ZM-330,-9v1v0ZM-329,-6v0l1,1Z"/><path style="fill:none;stroke:rgb(0,0,0)" d="M-323,7h-1"/><path style="fill:rgb(0,0,0)" d="M-330,-9v1v0ZM-330,-9v0v0ZM-329,-6v0l1,1ZM-330,-9v1h1ZM-331,-11h2l-3,-1ZM-329,-7v1l1,1ZM-329,-7v0l1,2ZM-329,-7v0l1,2ZM-328,-5v0v-1ZM-328,-7l-1,-1v0ZM-328,-7l-2,-2l1,1ZM-328,-7l-1,-1v0ZM-328,-5v-2h-1ZM-328,-7l-1,-1v1ZM-328,-7h-1v0ZM-329,-9v0h-1ZM-328,-5v-1v-1ZM-328,-8l-1,-1h-1ZM-328,-7v-1l-2,-1ZM-328,-6v0v-1ZM-328,-8h-1v-1ZM-331,-11l2,1v-1ZM-328,-7v0v-1ZM-328,-7v0v0ZM-328,-7v-1v0Z"/><path style="fill:none;stroke:rgb(0,0,0)" d="M-323,0h-2M-323,-8h-3"/><path style="fill:rgb(0,0,0)" d="M-335,-43v1v0Z"/><path style="fill:none;stroke:rgb(0,0,0)" d="M-324,-15h-2"/><path style="fill:rgb(0,0,0)" d="M-334,-43h-1v1ZM-334,-43v0h-1ZM-334,-43l-1,1l1,-1ZM-335,-42h1v-1ZM-334,-43v0v0ZM-334,-44v0v1ZM-334,-44v0v1ZM-334,-43v0h1ZM-335,-47v0v1ZM-333,-44h-1v1ZM-335,-42l4,1l-3,-1ZM-334,-48l-1,1v1ZM-333,-45v1l-1,1ZM-335,-46h1v-1ZM-334,-48h-1v1ZM-335,-46l1,-1v0ZM-333,-45l-1,2h1ZM-335,-46l1,-1v0Z"/><path style="fill:none;stroke:rgb(0,0,0)" d="M-324,-23h-2"/><path style="fill:rgb(0,0,0)" d="M-333,-45v0l-1,2ZM-334,-49v1l-1,2ZM-334,-49l-1,3l1,-1ZM-334,-48v0v0ZM-332,-46l-1,3v-1ZM-332,-46l-1,2v0ZM-334,-49v1v0ZM-334,-49v2v0ZM-332,-45h-1v2ZM-331,-41v-1h-3ZM-334,-49v2v-1ZM-332,-46v1l-1,2ZM-334,-49v1v0ZM-334,-49v0v1ZM-333,-44v0l2,-1ZM-334,-49v1h1ZM-334,-49l1,1v0ZM-333,-44h1l1,-1ZM-334,-49l1,1v0ZM-332,-46v0l-1,2ZM-334,-49l1,1v0ZM-332,-44v0l1,-1ZM-332,-46l-1,2l2,-1ZM-333,-49v0h-1ZM-332,-44v-1h1ZM-332,-49h-1h-1ZM-332,-45v0h1ZM-331,-48l-3,-1l1,1ZM-332,-49h-1v0ZM-332,-46v0l1,1ZM-331,-48h-2v0Z"/><path style="fill:none;stroke:rgb(0,0,0)" d="M-325,-30h-1"/><path style="fill:rgb(0,0,0)" d="M-331,-48l-1,-1h-2ZM-332,-47v1l1,1ZM-331,-48h-2v0ZM-332,-47v0l1,2ZM-332,-47v0l1,2ZM-331,-48h-2h1ZM-343,-80v1v0ZM-331,-48h-1v0ZM-331,-45v0v-1ZM-331,-48h-1v0ZM-331,-48h-1v1ZM-332,-47l1,2v-3ZM-332,-48v-1v0ZM-331,-48l-1,1v0ZM-332,-47v0l1,-1ZM-331,-45v-1v-1ZM-342,-81l-1,1v1ZM-331,-48h-1v-1ZM-331,-45v-2v-1ZM-331,-46v0v-1ZM-331,-48h-1v0ZM-342,-81l-1,1v0ZM-342,-81l-1,2l1,-1ZM-343,-79l1,-1v0ZM-331,-47v0v-1ZM-331,-47v0v0ZM-331,-47v-1v0ZM-342,-81v1v0ZM-342,-81v0v0ZM-342,-81v0v0ZM-342,-81v1v-1ZM-343,-85v1v0ZM-342,-82v1v0ZM-343,-79h4l-3,-1ZM-343,-85v0v1ZM-341,-82h-1v1ZM-343,-84h1v0ZM-343,-85v0v0Z"/><path style="fill:none;stroke:rgb(0,0,0)" d="M-325,-37l-2,-1"/><path style="fill:rgb(0,0,0)" d="M-343,-84h1v0ZM-341,-83l-1,2v0ZM-343,-84h1v-1ZM-341,-83v1l-1,1ZM-342,-86l-1,1v1ZM-342,-86l-1,2l1,-1ZM-342,-86v0l-1,1ZM-340,-83l-2,2h1ZM-340,-83l-1,2v0ZM-342,-86v0l-1,1ZM-342,-86v1v0ZM-340,-83h-1l-1,2Z"/><path style="fill:none;stroke:rgb(0,0,0)" d="M-325,-45h-3"/><path style="fill:rgb(0,0,0)" d="M-339,-79v-1h-3ZM-342,-86v1v0ZM-340,-83v0l-2,2ZM-342,-86v1v0ZM-342,-86v0v0ZM-341,-81v0l2,-2ZM-342,-86v1v0ZM-342,-86v1h1ZM-341,-81l1,-1l1,-1ZM-342,-86l1,1v0ZM-340,-83v0l-1,2ZM-342,-86l1,1v0ZM-340,-82v0l1,-1ZM-340,-83l-1,2l2,-2ZM-341,-86v0h-1ZM-340,-82v0l1,-1ZM-340,-86h-1h-1ZM-340,-82v0l1,-1ZM-339,-85l-3,-1l1,1ZM-340,-86h-1v0ZM-340,-84v1h1ZM-339,-85h-2v0ZM-339,-85l-1,-1h-2ZM-340,-84v0l1,1ZM-339,-85h-2v0ZM-340,-84v0l1,1ZM-340,-85v1l1,1ZM-339,-85h-2h1ZM-338,-80v1v0ZM-339,-85h-1v0ZM-339,-83v0v0ZM-339,-85h-1v0ZM-339,-85h-1v0ZM-340,-85l1,2v-2ZM-340,-86v0v0ZM-339,-85h-1v0ZM-340,-85v0h1ZM-339,-83v0v-1ZM-338,-79v-1v0ZM-339,-85l-1,-1v0ZM-339,-83v-1v-1ZM-339,-83v-1v0ZM-339,-85l-1,-1v0ZM-339,-84v-1v0ZM-339,-84v0v-1ZM-339,-85v0v0Z"/><path style="fill:none;stroke:rgb(0,0,0)" d="M-326,-52h-1"/><path style="fill:rgb(0,0,0)" d="M-337,-81v1v0ZM-337,-80h1v1ZM-337,-81v1l1,1ZM-336,-79v0v0ZM-337,-81l1,2h1ZM-336,-79v0h1ZM-336,-81v0h-1ZM-336,-80v-1h-1ZM-336,-80v0l-1,-1ZM-336,-79v0h1ZM-336,-80v0l-1,-1ZM-335,-80h-1l-1,-1ZM-335,-80l-2,-1l2,2ZM-335,-80v0l-2,-1ZM-335,-80v0v1ZM-335,-79v0v0ZM-335,-80v0v1ZM-335,-80v0v1ZM-335,-79v-1v1ZM-336,-86l-1,4h1ZM-335,-79v0h1ZM-335,-80v1v0ZM-336,-83v1v0ZM-334,-80h-1v1ZM-336,-86v4v0ZM-336,-83v1v0ZM-334,-80v0l-1,1ZM-335,-79h1v0ZM-336,-83v1v-1ZM-336,-83v-3v4ZM-336,-83v0v0ZM-334,-80v0l-1,1ZM-335,-83h-1v0Z"/><path style="fill:none;stroke:rgb(0,0,0)" d="M-326,-60h-2"/><path style="fill:rgb(0,0,0)" d="M-335,-79h1l1,-1ZM-335,-83h-1v0ZM-336,-83v-2v-1ZM-334,-80l-1,1l2,-1ZM-335,-84v0v1ZM-334,-84l-2,1v0ZM-334,-79v0h1ZM-334,-84l-2,1h1ZM-335,-84v0v1ZM-334,-84l-1,1h-1ZM-334,-84l-1,1v0ZM-335,-84v0v0ZM-334,-84l-1,1v0ZM-334,-84l-1,1v0ZM-334,-79h1v-1ZM-334,-84l-1,1v0ZM-334,-80v0h1ZM-334,-84h-1v1ZM-335,-84v0v0ZM-334,-84l-1,1v0ZM-334,-80v0h1ZM-334,-84l-1,1v0ZM-333,-79v0v-1ZM-334,-84h-1v0ZM-334,-80v0h1ZM-334,-84l-1,1h1ZM-334,-81v1h1ZM-334,-84v1v0ZM-334,-84v0h-1ZM-333,-81h-1l1,1ZM-334,-84v1v1ZM-336,-85l3,-1h-3ZM-333,-81v0v1ZM-334,-81h1v1ZM-334,-82v1l1,1ZM-333,-80v0v0ZM-333,-81l-1,-1v0ZM-333,-81l-1,-3v2ZM-333,-81l-1,-1v0ZM-333,-80v-1l-1,-1ZM-333,-81l-1,-1v0ZM-333,-81l-1,-1v0ZM-334,-83v0v-1ZM-333,-80v0v-1ZM-333,-83h-1v-1ZM-333,-81v-2l-1,-1ZM-333,-80v-1v0ZM-333,-83v0h-1Z"/><path style="fill:none;stroke:rgb(0,0,0)" d="M-326,-67h-2"/><path style="fill:rgb(0,0,0)" d="M-336,-85h3v-1ZM-333,-81v-1v-1ZM-333,-81v-1v0ZM-333,-82v0v-1Z"/><path style="fill:none;stroke:rgb(0,0,0)" d="M-327,-75h-2M-316,107l-2,1M-327,-83h-3M-327,-90h-2"/><path style="fill:rgb(0,0,0)" d="M-339,-118h1v1ZM-339,-119v1v0ZM-339,-119v1l1,1ZM-338,-117v0v0ZM-339,-119l1,2l1,1ZM-338,-117v0l1,1ZM-338,-118v0l-1,-1ZM-338,-117h1v1ZM-338,-118v-1h-1ZM-338,-118v0l-1,-1ZM-338,-119v0h-1ZM-338,-118l-1,-1l2,3ZM-338,-118v0l-1,-1ZM-337,-118h-1l1,2ZM-337,-117v-1v2ZM-337,-117v0v1ZM-337,-116v0v0ZM-339,-123v1v0ZM-337,-117v0v1ZM-337,-117v0v1ZM-339,-123v1h1ZM-337,-116v0l1,-1ZM-336,-117h-1v1ZM-339,-122h1v0ZM-338,-123h-1v0ZM-336,-117v0l-1,1ZM-336,-117v0l-1,1ZM-337,-116h1v-1ZM-338,-124v1h-1ZM-336,-118v1l-1,1ZM-338,-124l-1,1l1,1Z"/><path style="fill:none;stroke:rgb(0,0,0)" d="M-328,-98h-2"/><path style="fill:rgb(0,0,0)" d="M-338,-124v2v0ZM-337,-116l1,-1h1ZM-338,-124v0v1ZM-338,-124v2v0ZM-336,-118l-1,2l2,-1ZM-338,-124v2v-1ZM-337,-121v0v1ZM-338,-124v1v0ZM-336,-117v0h1ZM-337,-121v0v1ZM-338,-124v1v0ZM-338,-124v1h1ZM-337,-121v0v1ZM-336,-121l-1,1v0ZM-338,-124v0v0ZM-338,-124l1,1v0ZM-336,-117h1v0ZM-336,-121h-1v1ZM-336,-118v0l1,1ZM-336,-121v0l-1,1ZM-336,-121l-1,1v0ZM-336,-118v0l1,1ZM-336,-121v0l-1,1ZM-337,-124h-1v0ZM-336,-121l-1,1h1ZM-335,-117v0v0ZM-336,-118v0l1,1ZM-335,-118h-1l1,1ZM-336,-121v0l-1,1ZM-336,-122v2v0ZM-335,-118v0v1ZM-337,-124v0h-1ZM-336,-122v2v0ZM-335,-119v1v1ZM-336,-124h-2l1,1ZM-335,-119v0v2ZM-336,-119h1v2ZM-336,-122v1v1ZM-336,-122v2v0ZM-336,-119l1,2l-1,-4ZM-336,-124h-1h-1ZM-336,-122v2v0ZM-336,-124l-1,1v0ZM-335,-117v-1v0ZM-336,-122v2v1ZM-336,-122v0v2ZM-335,-117v-3l-1,-1ZM-336,-124l-1,1v0ZM-336,-121v-1v3ZM-336,-122v0v2ZM-335,-117v-1v-1ZM-335,-117v-2v-1ZM-336,-124l-1,1v0ZM-335,-120v-1h-1ZM-336,-124h-1v0ZM-336,-121v0h1ZM-336,-124l-1,1v0ZM-335,-118v0v-1ZM-336,-121h1v0ZM-336,-124l-1,1h1ZM-335,-120v0v0ZM-336,-124v0h-1ZM-336,-124v1v0ZM-336,-121v-3v2ZM-335,-119v-1v0ZM-335,-120v0v0Z"/><path style="fill:none;stroke:rgb(0,0,0)" d="M-328,-105h-2"/><path style="fill:rgb(0,0,0)" d="M-336,-124v1v0ZM-335,-121v0v0ZM-335,-119v0v0ZM-335,-119v0v-1ZM-335,-120v0v0ZM-336,-124v1v0ZM-336,-124v2v0ZM-336,-124v1v0ZM-335,-119v0v-1ZM-336,-121h1v-1ZM-336,-124v2v0ZM-336,-124v1v1ZM-336,-121l1,-1l-1,-2ZM-336,-124v0v0ZM-335,-121v0v0ZM-335,-121v0v-1ZM-335,-121v-1v0ZM-347,-156v0l1,1ZM-347,-157v0v1ZM-347,-157v1l1,1ZM-335,-123l-1,-1v0ZM-335,-122v-1l-1,-1ZM-335,-123v0l-1,-1ZM-335,-122v0v0ZM-346,-155v0v0ZM-335,-122v0v-1ZM-335,-123v0v0ZM-335,-122v0v-1ZM-347,-157l1,2h1ZM-346,-155v0h1ZM-346,-156v0l-1,-1ZM-346,-155v0h1ZM-346,-156v-1h-1ZM-346,-156v0l-1,-1ZM-346,-157v0h-1ZM-346,-156l-1,-1l2,2ZM-346,-156v0l-1,-1ZM-345,-156h-1l1,1ZM-345,-156v0v1ZM-345,-155v-1v1ZM-345,-155v0v1ZM-347,-161v1v0ZM-345,-155v0v0ZM-345,-155v0v0ZM-347,-161v1h1ZM-345,-155v1l1,-1ZM-345,-155v0v0ZM-347,-160h1v0ZM-347,-161v0v0ZM-344,-155h-1v0Z"/><path style="fill:none;stroke:rgb(0,0,0)" d="M-329,-113h-1"/><path style="fill:rgb(0,0,0)" d="M-344,-156v1h-1ZM-345,-154l1,-1v0ZM-346,-162l-1,1v0ZM-344,-156v0l-1,1ZM-346,-162l-1,1l1,1ZM-346,-162v2v0ZM-345,-155h1h1ZM-346,-162v0l-1,1ZM-346,-162v2v-1ZM-344,-156l-1,1h2ZM-346,-162v1v0ZM-345,-159v0v1ZM-346,-162v1v0ZM-344,-155v0h1ZM-345,-159v0v1ZM-346,-162v1v0ZM-346,-162v1v0ZM-345,-159v0v1Z"/><path style="fill:none;stroke:rgb(0,0,0)" d="M-329,-121h-3"/><path style="fill:rgb(0,0,0)" d="M-344,-159l-1,1v0ZM-346,-162v0v0ZM-346,-162v1h1ZM-344,-155h1v0ZM-344,-159h-1v1ZM-344,-156v0l1,1ZM-344,-159v0l-1,1ZM-344,-159l-1,1v0ZM-344,-156v0l1,1ZM-344,-159v0l-1,1ZM-345,-162h-1v0ZM-344,-159l-1,1v0ZM-343,-155v0v0ZM-344,-156v0l1,1ZM-344,-156v0l1,1ZM-344,-159v0l-1,1ZM-344,-160l-1,2h1ZM-344,-157v1l1,1ZM-345,-162v0h-1ZM-344,-160v2v0ZM-344,-157v0l1,2ZM-344,-162h-2l1,1ZM-344,-157v0l1,2ZM-344,-157v0l1,2ZM-344,-160v1l-1,1ZM-344,-160v2v0ZM-344,-157l1,2l-1,-4ZM-344,-162h-1h-1ZM-344,-160v2v0ZM-344,-162l-1,1v0ZM-343,-155v-1v0ZM-344,-160v2v1ZM-344,-160v0v2ZM-343,-155v-4h-1ZM-344,-162l-1,1v0ZM-344,-159v-1v3ZM-344,-160v0v2ZM-343,-155v-1v-1ZM-343,-155v-2v-2ZM-344,-162l-1,1v0ZM-343,-159h-1v0ZM-345,-162v0v0ZM-344,-159v0v0ZM-344,-162l-1,1v0ZM-343,-156v0v-1ZM-344,-159v0h1ZM-344,-162l-1,1v0ZM-343,-158v0v-1ZM-344,-162h-1v0ZM-344,-162l-1,1h1ZM-344,-159v-3v2ZM-343,-157v-1v-1ZM-343,-158v0v-1ZM-344,-162v1v0ZM-344,-159h1v0ZM-343,-157v0v0ZM-343,-157v0v-1ZM-343,-158v0v0ZM-344,-162v1v0ZM-344,-162v2v0ZM-342,-156v1h1ZM-344,-162v1v0ZM-343,-157v-1v0ZM-344,-159h1v-1ZM-344,-162v1v1ZM-344,-162v1v0ZM-344,-159l1,-1l-1,-2ZM-344,-162v0h-1ZM-343,-159v0v-1ZM-343,-159v-1v0ZM-341,-155l-1,-1v0ZM-343,-160v0v0ZM-344,-162v0v0ZM-343,-160v-1l-1,-1ZM-343,-161l-1,-1v0ZM-343,-160v0v0ZM-343,-160v0v-1ZM-343,-161v0l-1,-1ZM-343,-160v-1v0Z"/><path style="fill:none;stroke:rgb(0,0,0)" d="M-329,-128h-2"/><path style="fill:rgb(0,0,0)" d="M-341,-157v1v0ZM-341,-156h1v1ZM-341,-157v1l1,1ZM-340,-155v0v0ZM-341,-157l1,2h1ZM-340,-155v0h1ZM-340,-157v0h-1ZM-340,-156v-1h-1ZM-340,-156v0l-1,-1ZM-340,-155h1v0ZM-339,-156h-1l-1,-1ZM-339,-156v0l-2,-1ZM-339,-156l-2,-1l2,2ZM-339,-156v0l-2,-1ZM-339,-156v0v1ZM-339,-155v0v0ZM-339,-156v0v1ZM-339,-156v0v1ZM-339,-156v0v1ZM-340,-162l-1,4h1ZM-339,-155v0h1ZM-338,-156h-1v1ZM-340,-159v1v0ZM-338,-156v0l-1,1ZM-340,-162v4v0ZM-340,-159v1v-1ZM-338,-156v0l-1,1ZM-339,-155h1v0ZM-340,-159v0h1ZM-340,-159v-3v4ZM-340,-159v0v0ZM-338,-156v0l-1,1ZM-339,-160l-1,1v0Z"/><path style="fill:none;stroke:rgb(0,0,0)" d="M-330,-136h-2"/><path style="fill:rgb(0,0,0)" d="M-339,-155h1l1,-1ZM-339,-160v0l-1,1ZM-340,-159v-2v-1ZM-338,-156l-1,1l2,-1ZM-339,-160v0v0ZM-338,-160l-2,1h1ZM-338,-155v0h1ZM-338,-160l-1,1v0ZM-339,-160v0v0ZM-338,-160h-1l-1,1ZM-338,-160l-1,1v0ZM-339,-160v0v0ZM-338,-160l-1,1v0ZM-338,-160l-1,1v0ZM-338,-155h1v-1ZM-338,-160l-1,1v0ZM-338,-156v0h1ZM-338,-160h-1v0ZM-339,-160v0v0ZM-338,-160l-1,1v0ZM-338,-156v0h1ZM-338,-160l-1,1v0ZM-337,-155v0v-1ZM-338,-160h-1v0ZM-337,-156h-1h1ZM-338,-160l-1,1h1ZM-337,-157v1v0ZM-338,-160v1v0ZM-338,-160v0h-1ZM-337,-157v0v1ZM-338,-160v1v0ZM-340,-161l3,-1h-3ZM-337,-157v0v1ZM-337,-158v1v1ZM-337,-158v0v2ZM-337,-156v0v0ZM-337,-157l-1,-2v1ZM-337,-157l-1,-3v1ZM-337,-157l-1,-1v0ZM-337,-156v-1v-1ZM-337,-157l-1,-1v0ZM-337,-157l-1,-1h1ZM-337,-159l-1,-1v0ZM-337,-156v0v-1ZM-337,-159v0l-1,-1ZM-337,-157v-2l-1,-1ZM-337,-156v-1v0ZM-337,-159v0v0Z"/><path style="fill:none;stroke:rgb(0,0,0)" d="M-330,-144h-2"/><path style="fill:rgb(0,0,0)" d="M-340,-161h3v-1ZM-337,-157v-1v-1ZM-337,-157v-1v0ZM-337,-158v-1v0Z"/><path style="fill:none;stroke:rgb(0,0,0)" d="M-330,-151h-2M-331,-159h-3M-331,-167h-2M-315,110l-2,1"/><path style="fill:rgb(0,0,0)" d="M-343,-196h3h-2ZM-340,-201l-3,4v1ZM-340,-201l-3,5h1Z"/><path style="fill:none;stroke:rgb(0,0,0)" d="M-332,-174h-1"/><path style="fill:rgb(0,0,0)" d="M-340,-196h1h-3ZM-340,-196v2h1ZM-340,-197l-2,1h4ZM-339,-196h1h-4ZM-340,-196l1,2v-2ZM-342,-196l2,-4v-1ZM-340,-200v3h1ZM-340,-197l2,1l-1,-1ZM-340,-200l1,3l-1,-4ZM-338,-196l-1,-1v0ZM-339,-197l-1,-4v0Z"/><path style="fill:none;stroke:rgb(0,0,0)" d="M-332,-182h-2M-332,-190h-2M-333,-198h-3M-273,-309l-60,111M-314,113l-2,1"/><path style="fill:rgb(0,0,0)" d="M-319,120v0l-1,1ZM-319,121v-1l-1,1ZM-319,121v0h-1ZM-319,121v0h-1ZM-319,121v0h-1ZM-319,121h-1v0ZM-320,121l1,-1v1ZM-320,121l1,-1v0ZM-320,121l1,-1v0ZM-320,121l2,-1h-1ZM-324,126l6,-6v0ZM-320,121l-4,5l6,-6Z"/><path style="fill:none;stroke:rgb(0,0,0)" d="M-314,116l-2,3"/><path style="fill:rgb(0,0,0)" d="M-324,126l6,-6v0ZM-320,121l-4,5v0ZM-323,125l-1,1l1,1ZM-323,127v-1v-1ZM-318,121l-3,3v1ZM-322,125v1v0ZM-320,124l2,-2v-1ZM-322,125v1l-1,1ZM-320,124l2,-3l-3,3ZM-318,121l-3,4v-1ZM-322,126h-1v1ZM-322,126v0v-1ZM-320,124v0v0ZM-322,126v0v-1ZM-320,124h-1v0ZM-322,126v0v-1ZM-320,124v0v0ZM-320,124h-1v0ZM-320,124h-1h1ZM-322,125l-1,2v0ZM-322,126v0v-1ZM-320,124v0v0ZM-323,127l1,-1v-1ZM-323,127v0v0ZM-318,122v0v-1ZM-323,127v0l1,-2ZM-320,124v0v0ZM-323,127l1,-2l-1,2ZM-320,124v0v0ZM-323,127v0v0ZM-320,124v0v0ZM-320,124v0v0ZM-320,124v0v0ZM-320,124v0v0ZM-323,127v0v0ZM-320,124v0v0ZM-320,124v0v0ZM-320,124v0v0ZM-320,124v0v0ZM-320,124v0v0ZM-323,127v0v0ZM-320,124v0v0ZM-320,124v0v0ZM-323,127v0v0ZM-320,124v0v0ZM-323,127v0v0ZM-320,124v0v0ZM-320,124v0v0ZM-323,127v0v0ZM-320,124v0v1ZM-323,127v1v0ZM-318,122v1v-1ZM-323,127v0v0ZM-320,124v1v0ZM-323,127v0v0ZM-320,124v1v0ZM-323,127v1v0ZM-323,127v0v0ZM-322,127h-1v0ZM-320,124v0v0ZM-323,128v0v0ZM-320,125v-1v0ZM-322,127h-1l1,1ZM-323,127v1h1ZM-321,126l1,-2v1ZM-321,126l1,-1v0ZM-320,125v0v-1ZM-321,126l1,-1h-1ZM-321,126l1,-1v-1ZM-323,128v0v0ZM-321,126v-1v0ZM-322,127v0v1ZM-321,126v-1v1ZM-322,127v0v1ZM-321,126v0l-1,2ZM-322,127v0v1ZM-321,126v0l-1,2ZM-322,127v0v1ZM-321,126h-1v2ZM-323,128v0h1ZM-322,126v1v1ZM-321,126l1,-1v0ZM-322,128l1,-2v0ZM-323,128v0h1ZM-321,126v0l1,-1ZM-321,126v0v0ZM-322,128v-1v0ZM-322,128v-1l1,-1ZM-322,127v0l1,-1Z"/><path style="fill:none;stroke:rgb(0,0,0)" d="M-313,119l-1,2M-312,122l-1,2M-311,125l-1,2M-309,129l-2,2M-308,132l-3,3"/><path style="fill:rgb(0,0,0)" d="M-314,139v0h-1ZM-314,139v0h-1ZM-314,139v0h-1ZM-314,139v0h-1ZM-314,139v0h-1ZM-314,139h-1v1ZM-315,140l1,-1v0ZM-315,140l1,-1v0ZM-315,140l2,-2l-1,1ZM-315,140l2,-2v0ZM-319,145l6,-7v0ZM-315,140l-4,5l6,-7ZM-319,145l6,-7v0ZM-315,140l-4,4v1Z"/><path style="fill:none;stroke:rgb(0,0,0)" d="M-307,136l-2,2M-306,140l-2,2M-305,143l-2,2M-304,147l-2,2"/><path style="fill:rgb(0,0,0)" d="M-309,157h-1v0ZM-310,157l-1,1v1ZM-309,156v1h-1ZM-309,156v0v1ZM-310,157l-1,2l-1,1ZM-309,156l-1,1l-2,3ZM-311,159h-1v1ZM-308,156v0h-1ZM-309,156l-3,4l1,-1ZM-309,156l-1,2v0ZM-309,156l-1,2v-1ZM-309,156l-2,2h1ZM-309,156l-1,1h1ZM-312,160h-1v1ZM-309,156l-2,3v-1ZM-309,156v1v0ZM-309,156v1v0ZM-312,160v-1h1ZM-308,156v0h-1ZM-312,160v0v-1ZM-309,156v1v0ZM-312,160v0v0ZM-312,160l-1,1l-1,1ZM-309,156v1v0ZM-312,160h-1h1ZM-308,156v0v0ZM-309,156v1v0ZM-312,160l-1,1v-1ZM-313,161h-1v1ZM-312,160l-1,1v0ZM-312,160l-1,2v-1ZM-308,157v-1h-1ZM-308,157l-1,-1v1ZM-312,160l-2,2v1ZM-312,160l-2,3l1,-1ZM-314,162v0v0ZM-308,156v0v0ZM-309,157v0h1ZM-308,157v-1v0ZM-314,162v0v1ZM-309,157v0h1ZM-314,163v-1h1ZM-309,157v0h1ZM-314,162v1v0ZM-308,157v0v-1ZM-314,163v-1v0ZM-309,157v0h1ZM-314,163v-1v0ZM-309,157v1l1,-1ZM-314,162v0v1ZM-309,158v0l1,-1ZM-313,162h-1v1ZM-313,162v0l-1,1ZM-309,158v0l1,-1ZM-313,162v0l-1,1Z"/><path style="fill:none;stroke:rgb(0,0,0)" d="M-302,151l-4,4"/><path style="fill:rgb(0,0,0)" d="M-314,163v0v0ZM-309,158l-3,3l4,-4ZM-310,159l1,-1l1,-1ZM-309,158l-1,1l-2,2ZM-314,163v0v0ZM-313,162l-1,1l2,-2ZM-310,159v0l-2,2ZM-310,159h-1l-1,2ZM-310,159h1v-1ZM-312,161l2,-2l2,-2ZM-311,159v1l-1,1ZM-314,163v0l2,-2ZM-313,162v0l1,-1ZM-311,160v0l-1,1ZM-314,163v0v0ZM-312,161l-1,1l1,-1ZM-311,160l-1,1v0ZM-312,161v0v0ZM-312,161v0v0ZM-311,160h1v-1ZM-312,161l1,-1l1,-1ZM-314,163l1,-1v0ZM-314,163l1,-1l1,-1ZM-312,161h1v-1ZM-313,162h1v-1ZM-313,163l-1,1v0ZM-314,164l1,-1v0ZM-307,158l-4,4v0ZM-312,163v0h-1ZM-310,161l2,-2l1,-1ZM-312,163h-1v1ZM-310,161l3,-3l-4,4ZM-307,158l-4,4v0ZM-313,163v1v0ZM-312,163v0v0ZM-310,161v0v0ZM-312,164v-1v0ZM-310,161l-1,1v0ZM-312,164v0v-1ZM-309,161h-1v0ZM-310,161l-1,1h1ZM-310,161v1v0ZM-312,163l-1,1l-1,1ZM-313,164h1v-1ZM-309,161h-1v0ZM-313,164v0l1,-1ZM-313,164v1h-1ZM-308,159h1v-1ZM-313,164v0l1,-1ZM-309,161v0v0ZM-313,164l1,-1l-2,2ZM-309,161v0v0ZM-313,164l-1,1v0ZM-309,161v0h-1ZM-309,161h-1v1ZM-309,161v0v0ZM-309,161l-1,1v0ZM-314,165v0v0ZM-309,161l-1,1v0ZM-309,161v0v0ZM-309,161v0v0ZM-309,161l-1,1v0ZM-309,161l-1,1v0ZM-313,165v-1l-1,1ZM-309,161l-1,1v0ZM-309,161v0v0ZM-313,165v0h-1ZM-309,161l-1,1v0ZM-313,165v0h-1ZM-309,161l-1,1v0ZM-309,161v0v0ZM-313,165v0h-1ZM-309,161l-1,1v0ZM-314,165v0v1ZM-308,159v1l1,-1ZM-313,165v0h-1ZM-309,161l-1,1v0ZM-313,165v0h-1ZM-309,161l-1,1v0ZM-314,165v1v0ZM-313,165v0h-1ZM-313,165v0h-1ZM-309,162v0v-1ZM-314,166v0v0ZM-310,163l1,-1v-1ZM-313,165h-1l1,1ZM-314,165v1h1ZM-311,164l2,-3l-1,1ZM-311,164l1,-2v1ZM-310,163v-1h1ZM-311,164l1,-1v0ZM-311,164l1,-1l1,-2ZM-314,166h1v0ZM-311,164l1,-1h-1ZM-312,165h-1v1ZM-311,164v-1v0ZM-312,165v0l-1,1ZM-311,163v1l-2,2ZM-312,165v0l-1,1ZM-311,164v0l-2,2ZM-312,164v1l-1,1ZM-311,164h-1l-1,2ZM-314,166h1v0ZM-312,164v0l-1,2ZM-310,163v0v0ZM-313,166l2,-2v-1ZM-313,166v0v0ZM-311,164l1,-1v0ZM-311,164v0l1,-1ZM-313,166l1,-1v0ZM-313,166l1,-1l1,-1ZM-312,165v0l1,-1Z"/><path style="fill:none;stroke:rgb(0,0,0)" d="M-301,156l-2,2M-300,160l-2,2M-298,165l-2,2M-297,169l-2,3M-295,174l-4,4"/><path style="fill:rgb(0,0,0)" d="M-302,181l-1,1v0ZM-303,182l-1,1h-1ZM-302,180v1l-1,1ZM-302,180v1v0ZM-303,182l-2,1l-1,2ZM-302,180l-1,2l-3,3ZM-305,183v1l-1,1ZM-301,180v0h-1ZM-302,180l-4,5l1,-1ZM-302,180l-2,3l1,-1ZM-302,180l-1,2v0ZM-302,180l-2,3v0ZM-302,180l-1,2v0ZM-306,185v0l-1,1ZM-302,180l-3,4l1,-1ZM-302,180l-1,2l1,-1ZM-302,180v1v0ZM-306,185l1,-1v0ZM-301,180v0h-1ZM-306,185h1v-1ZM-302,180v1v0ZM-306,185v0h1ZM-306,185l-1,1v1ZM-302,180v1v0ZM-306,185v0v0ZM-301,180v0v0ZM-302,180v1v0ZM-306,185v1v-1ZM-307,186v0v1ZM-306,185l-1,1h1ZM-306,185l-1,2v-1ZM-301,182v-2h-1ZM-301,182l-1,-2v1ZM-306,185l-1,2l-1,1ZM-306,185l-2,3l1,-1ZM-307,187h-1v1ZM-301,181v0v-1ZM-302,181v0l1,1ZM-301,182v-1v-1ZM-307,187l-1,1v0ZM-302,181v1h1ZM-308,188l1,-1v0ZM-302,182v0h1ZM-308,188v0v0ZM-301,182v-1v0ZM-308,188l1,-1v0ZM-302,182v0h1ZM-308,188l1,-1v0ZM-302,182v1l1,-1ZM-307,187v0l-1,1ZM-302,183h-1l2,-1ZM-307,187v0l-1,1ZM-307,187v0l-1,1ZM-302,183v-1h1ZM-306,187h-1l-1,1ZM-308,188v0v0ZM-303,183l-2,3l4,-4ZM-303,184l1,-1l1,-1ZM-303,183v1l-2,2ZM-308,188v0h1ZM-306,187l-2,1l3,-2ZM-303,184v0l-2,2ZM-303,184h-1l-1,2ZM-303,184l1,-1v0ZM-305,186l2,-2l2,-2ZM-304,184v1l-1,1ZM-308,188h1l2,-2ZM-306,187v0l1,-1ZM-304,185h-1v1ZM-308,188h1v0ZM-306,187v0l1,-1ZM-305,185v1v0ZM-305,186l-1,1l1,-1ZM-305,186v0v0ZM-304,185h1v-1ZM-305,186l1,-1l1,-1ZM-307,188v0l1,-1ZM-307,188l1,-1l1,-1ZM-305,186v0l1,-1ZM-306,187v0l1,-1Z"/><path style="fill:none;stroke:rgb(0,0,0)" d="M-294,179l-2,2M444,183l29,-420M444,183l3,4M-248,326l692,-143M-292,184l-2,3"/><path style="fill:rgb(0,0,0)" d="M453,196l-1,-4h-1ZM453,196l-2,-4v3Z"/><path style="fill:none;stroke:rgb(0,0,0)" d="M432,185l2,3"/><path style="fill:rgb(0,0,0)" d="M451,195l-2,-2h-1ZM451,195l-3,-2l3,3ZM453,196l-2,-1v1ZM451,196l2,1v-1ZM453,197l4,2l-4,-3ZM453,197l3,2h1ZM451,196l2,4v-3ZM451,196l1,4h1Z"/><path style="fill:none;stroke:rgb(0,0,0)" d="M420,188l2,2M-290,190l-3,2M408,190l2,3M396,193l2,3M-289,195l-2,3M383,195l3,5"/><path style="fill:rgb(0,0,0)" d="M393,204l3,-1l-1,-1ZM393,204l2,-2l-4,1ZM398,206h-1v-1ZM397,205h-1v0ZM398,206l-1,-1h-1ZM399,207l-1,-1v0ZM396,205v0h-1ZM400,208l-2,-2l-2,-1ZM396,205h-1v0ZM400,208l-1,-1l-1,-1ZM394,206l-1,-2l-2,-1ZM395,205v0v0ZM396,205h-1l-1,1ZM396,205l1,1v1ZM400,208l-4,-3l1,2ZM400,208l-1,-1v0ZM396,205v1h1ZM396,205v1v0ZM395,205v0v0ZM396,205v1v0ZM396,205l-1,1h1ZM395,205v0l-1,1ZM400,208l-3,-1v0ZM400,208l-3,-1v0ZM396,205l-1,1v0ZM400,208l-3,-1h1ZM396,205l-2,1v0ZM395,205l-1,1v0ZM396,205l-1,2v-1ZM400,208l-2,-1v0ZM396,205l-1,2v0ZM396,205l-1,2v0ZM396,205l-2,1l1,1ZM394,206v0v0ZM394,206l-3,-3l4,4ZM396,205l-1,2v0ZM400,209v-1v0ZM394,206v0v0ZM400,210v-2l-2,-1ZM394,206v0v0ZM391,203l4,5v-1ZM398,207v1l2,2ZM400,210v-1v-1ZM398,208h1l1,2ZM391,203l3,5h1ZM394,206l1,1v0ZM399,208v0l1,2ZM394,206l1,1v0ZM399,208v1l1,1ZM400,210v0v-1ZM394,206l1,1v0ZM399,209v0l1,1ZM399,209v1h1ZM399,210v0h1ZM399,210v0h1ZM400,211v0v-1ZM400,211v0v-1ZM399,210l-1,2l2,-2ZM387,206l-1,-2v0ZM400,211v0v0ZM399,210v0l-1,2ZM398,212l2,-1v-1ZM387,206l-1,-2v1ZM399,210v0l-1,2ZM387,206l-1,-1v0ZM396,210v-1l-1,1ZM399,210l-1,1v1Z"/><path style="fill:none;stroke:rgb(0,0,0)" d="M371,198l2,3"/><path style="fill:rgb(0,0,0)" d="M396,210v0h-1ZM387,206l-1,-1v0ZM396,210v0h-1ZM398,211v0v1ZM397,210h-1h-1ZM397,210v0h-2ZM397,211v-1h-2ZM398,211v0v1ZM399,212v0l1,-1ZM398,211v0v1ZM398,211v0v1ZM392,213l-6,-10v0ZM398,211h-1l1,1ZM397,211l-2,-1l3,2ZM398,212h1l1,-1ZM395,210v0v1ZM386,205v0l-1,2ZM392,213l-6,-10v1ZM398,212v0h1ZM386,205l-1,2l2,-1ZM386,205v0l-1,2ZM395,210v1h1ZM395,210l1,1l2,1ZM386,205l-1,1v1ZM395,211h1v0ZM385,206v0v1ZM397,212h1v0ZM396,211l1,1h1ZM396,211h1v1ZM385,206v0v1ZM387,206l5,7l-6,-9ZM-298,208l-1,1v2ZM395,212l-1,-1h-1ZM393,211l1,2l1,-1ZM-299,211l1,-1v-2ZM387,206l4,7h1ZM-295,208h-1v1ZM-296,209h-1v1ZM-294,207l-1,1l-1,1ZM-294,207h-1v1ZM-296,209l-1,1l-2,1ZM-294,207l-2,2l-3,2ZM-297,210l-1,1h-1ZM-293,207h-1v0ZM-294,207l-5,4l2,-1ZM-294,207l-2,2v0ZM-294,207l-2,2h1ZM-294,207l-3,3l1,-1ZM-294,207l-1,2v-1ZM-299,211v1l-1,1ZM-294,207l-3,3v0ZM-294,207l-1,1v0ZM-294,207l-1,1h1ZM-299,211h1l1,-1ZM-293,207v0h-1ZM-299,211l1,1v-1ZM-294,207v1v0ZM-299,211v1h1ZM-299,211l-1,2v1ZM-294,207v1v0Z"/><path style="fill:none;stroke:rgb(0,0,0)" d="M358,201l2,3"/><path style="fill:rgb(0,0,0)" d="M-299,211v1v0ZM-293,207v0v0ZM-294,207v1v0ZM-299,211v2v-1ZM-300,213v0v1ZM-299,211l-1,2h1ZM-299,211l-1,3v-1ZM-294,208l1,-1h-1ZM-294,208v-1v1ZM-299,211l-1,3l-1,2ZM-299,211l-2,5l1,-2ZM-300,214h-1v1ZM-293,207v0v0Z"/><path style="fill:none;stroke:rgb(0,0,0)" d="M-287,201l-4,4"/><path style="fill:rgb(0,0,0)" d="M-294,208v0v0ZM-294,208l1,-1v0ZM-300,214l-1,1v1ZM-294,208v0v0ZM-301,216l1,-2v0ZM-294,208v1v-1ZM-301,215v0v1ZM-294,208h1v-1ZM-301,216l1,-2v0ZM-294,209v0v-1ZM-301,216l1,-1v-1ZM-294,209h-1l1,-1ZM-300,215v0l-1,1ZM-295,209v1l1,-2ZM-300,215v0l-1,1Z"/><path style="fill:none;stroke:rgb(0,0,0)" d="M-273,-309l746,72"/><path style="fill:rgb(0,0,0)" d="M-300,215v0l-1,1ZM-295,210l1,-1v-1ZM-299,214l-1,1l-1,1ZM-301,216v0v0ZM-295,210l-3,4l4,-6ZM-296,211l1,-1l1,-2ZM-295,210h-1l-2,4ZM-301,216v0l1,-1ZM-299,214l-2,2l3,-2ZM-296,210v1l-2,3ZM-296,211v0l-2,3ZM-296,211l1,-1v0ZM-298,214l2,-3l2,-3ZM-296,211l-1,1l-1,2ZM-301,216l1,-1l2,-1ZM-299,214v0h1ZM-297,212v0l-1,2ZM-301,216h1v-1ZM-299,214v0h1ZM-297,212l-1,1v1ZM-298,213l-1,1h1ZM-298,213v0v1ZM-297,212h1v-1ZM-298,214l1,-2l1,-1ZM-300,215v0h1ZM-300,215h1l1,-1ZM-298,214l1,-1v-1ZM-299,215v-1h1ZM-299,216l-1,1v0Z"/><path style="fill:none;stroke:rgb(0,0,0)" d="M345,203l1,3"/><path style="fill:rgb(0,0,0)" d="M-300,217l1,-1v0ZM-292,210l-5,4v1ZM-298,216v0l-1,1ZM-295,214l2,-3l1,-1ZM-298,216l-1,1v1ZM-295,214l3,-4l-4,5ZM-292,210l-5,5h1ZM-299,217v0v1ZM-298,217v-1v0ZM-295,213v1v0ZM-298,217v0v-1ZM-295,214l-1,1v0ZM-299,217h1v-1ZM-295,213v0v1ZM-295,214l-1,1v0ZM-295,214l-1,1v-1ZM-298,216l-1,2l-1,1ZM-299,217v0l1,-1ZM-295,213v0v0ZM-299,218v-1l1,-1ZM-299,218h-1v0ZM-293,211l1,1v-2ZM-299,218v0l1,-2ZM-295,214v-1v0ZM-299,218l1,-2l-2,3ZM-295,214v0v-1ZM-299,218h-1v1ZM-295,214v-1v1ZM-295,214v0h-1ZM-295,214v0v0ZM-295,214h-1v0ZM-300,218v1v0ZM-295,214h-1v0ZM-295,214v0v0ZM-295,214v0v-1ZM-295,214h-1v0ZM-295,214h-1v1ZM-299,218v0l-1,1ZM-295,214l-1,1v0ZM-295,214v0v0ZM-299,218v0l-1,1ZM-295,214l-1,1v0ZM-299,218v0l-1,1ZM-295,214l-1,1v0ZM-295,214v0v0ZM-299,218v0l-1,1ZM-295,214l-1,1v0ZM-300,219v0v0ZM-293,211v2l1,-1ZM-299,219v-1l-1,1ZM-295,214l-1,1v0ZM-299,219v0h-1ZM-295,214l-1,1v0ZM-300,219v0v1ZM-299,219v0h-1ZM-299,219v0h-1ZM-295,215v0v-1ZM-300,219v1v0ZM-295,216v-1v-1ZM-299,219h-1h1ZM-300,219v1l1,-1ZM-297,218l2,-4l-1,1ZM-297,218l1,-3v1ZM-295,216v-1v0ZM-297,218l1,-2v0ZM-297,218l2,-2v-2ZM-300,220v0h1ZM-297,218l1,-2v0ZM-298,219h-1v0ZM-297,218l1,-2l-1,1ZM-298,218v1h-1ZM-297,217v0l-2,2ZM-298,218v0l-1,1ZM-297,217v0l-2,2ZM-298,218v0l-1,1ZM-297,217v1l-2,1ZM-300,220h1v-1Z"/><path style="fill:none;stroke:rgb(0,0,0)" d="M331,206l2,3"/><path style="fill:rgb(0,0,0)" d="M-297,218h-1l-1,1ZM-296,217v-1h1ZM-299,219l2,-1v-1ZM-299,220v0v-1ZM-297,218l1,-1l1,-1ZM-297,218v-1h1ZM-299,219h1v0ZM-299,219h1l1,-1ZM-298,219l1,-1v0Z"/><path style="fill:none;stroke:rgb(0,0,0)" d="M-285,207l-2,3M318,209l3,5"/><path style="fill:rgb(0,0,0)" d="M326,219l-1,-2v0ZM326,219l-1,-2v1ZM326,219l-1,-1v0ZM326,219l-1,-1v0ZM331,227l-5,-11h-1ZM325,218v0l-1,2ZM331,227l-6,-11v1ZM325,218l-1,2l2,-1ZM325,218v1l-1,1ZM325,219h-1v1ZM324,219v0v1ZM324,219v0v1ZM326,219l5,8l-6,-10Z"/><path style="fill:none;stroke:rgb(0,0,0)" d="M304,212l2,3"/><path style="fill:rgb(0,0,0)" d="M326,219l4,8h1Z"/><path style="fill:none;stroke:rgb(0,0,0)" d="M-283,213l-2,3M290,215l2,3M276,218l1,3M-281,220l-2,3M261,221l1,3M246,224l3,5"/><path style="fill:rgb(0,0,0)" d="M255,233l4,-1l-1,-1ZM255,233l3,-2l-5,1ZM261,236l-1,-1h-1ZM259,235v0h-1ZM261,236l-2,-1h-1ZM262,237l-1,-1v0ZM258,235v0h-1ZM262,238l-1,-2l-3,-1ZM258,235h-1v0ZM262,238v-1l-1,-1ZM256,236l-1,-3l-2,-1ZM257,235v0v0ZM258,235h-1h-1ZM258,235l1,1v0ZM262,238l-4,-3l1,1ZM262,238v-1v0ZM258,235l1,1v0ZM258,235v1h1ZM257,235v0v0ZM258,235v1v0ZM258,235v1v0ZM257,235v0h-1ZM262,238l-3,-2l1,1ZM262,238l-2,-1v0ZM258,235l-1,1h1ZM262,238l-2,-1v0ZM258,235h-2v1ZM257,235v0h-1ZM258,235l-1,1v0ZM262,238l-2,-1h1ZM258,235l-1,2v-1ZM258,235l-1,2v0ZM258,235l-2,1l1,1ZM256,235v1v0ZM256,236l-3,-4l4,5ZM258,235l-1,2v0ZM263,239v0l-1,-1ZM256,235v1v0ZM263,240l-1,-2l-1,-1ZM256,236v0v0ZM253,232l4,6v-1ZM261,237v1l2,2ZM263,240v-1l-1,-1ZM261,238v0l2,2ZM253,232l3,6h1ZM256,236l1,1v0ZM261,238v1l2,1ZM256,236l1,1v0ZM261,239v0l2,1ZM263,240v0v-1ZM256,236l1,1v0ZM261,239v0l2,1ZM261,239v1h2ZM261,240v0h2ZM248,234v0l-1,-1ZM261,240v0h2ZM248,234l-1,-1h-1ZM247,233v0h-1ZM262,241h1v-1ZM250,235l-1,-1h-1ZM251,237l-1,-2l-2,-1ZM262,242v-1l1,-1Z"/><path style="fill:none;stroke:rgb(0,0,0)" d="M-279,227l-2,3"/><path style="fill:rgb(0,0,0)" d="M247,235h1v-1ZM247,234v1l1,-1ZM248,235v0v-1ZM246,233h-1v1ZM247,235v-1h1ZM248,235l1,1l-1,-2ZM248,234l-2,-1l-1,2ZM251,237l-1,-1v-1ZM261,240l-1,2l3,-2ZM249,236v0l-1,-2ZM262,242v0v-1ZM248,234l-3,1h2Z"/><path style="fill:none;stroke:rgb(0,0,0)" d="M231,227l1,3"/><path style="fill:rgb(0,0,0)" d="M261,240v1l-1,1ZM246,233l-1,1v1ZM260,242h2l1,-2ZM261,241v0l-1,1ZM258,240h-1h-1ZM261,241v0l-1,1ZM252,240l-1,-3l-3,-3ZM258,240v0h-2ZM245,235h1h1ZM249,236l3,4l-4,-6ZM245,234v0v1ZM258,241v-1h-2ZM261,241h-1v1ZM259,241h-1l-2,-1ZM259,241v0l-3,-1ZM259,241v0l-3,-1ZM252,238l-1,-1v0ZM260,241v0v1ZM245,235h1v0ZM261,242v0h1ZM260,241v0v1ZM260,241h-1l1,1ZM259,241v0l1,1ZM245,235h1v0ZM259,241l-3,-1l4,2ZM260,242h1h1ZM256,240h1v1ZM245,235l1,1v-1ZM249,236v1l3,3ZM252,240v-2l-1,-1ZM260,242v0h1ZM256,240l1,1l1,1ZM256,240l2,2h2ZM249,237h1l2,3ZM245,235l1,1v0ZM257,241v0l1,1ZM250,237v1l2,2ZM259,242v0h1ZM258,242h1h1ZM245,235v0v1ZM245,235l1,2v-1ZM258,242v0h1ZM252,240v-1v-1ZM250,238h1l1,2ZM245,235l1,2v0ZM251,238v1l1,1ZM245,235v1v2ZM245,235l1,3v-1ZM251,239v1h1ZM245,235l1,4v-1ZM251,240v0h1ZM245,236v1v1ZM245,235l2,4h-1ZM253,242v-1l-1,-1ZM256,243l-1,-2l-1,1ZM251,240v1l1,-1ZM251,241l1,1v-2ZM245,235v3l2,3ZM253,243v-1l-1,-2ZM254,242l1,1h1ZM245,235l2,6v-2ZM252,242v0v-2ZM245,238v1h1ZM253,243v-1v0ZM252,242l-1,3l1,-5ZM251,245l2,-2l-1,-3ZM245,238l1,1l1,2ZM247,241v-1v-1ZM247,241h1l-1,-1ZM246,239v1l1,1ZM247,241h1v0ZM252,244h1v-1ZM252,242h-1v3ZM247,241l1,1v-1ZM251,242v1v2ZM247,241l2,1h-1ZM251,245l1,-1l1,-1ZM247,241l2,2v-1ZM251,243v0v2ZM247,241l3,2h-1ZM251,243v0v2ZM251,245v-2h-1ZM247,241l4,4l-1,-2ZM247,241v1l1,1ZM251,245l-1,-2v0ZM251,245l-1,-2v0ZM251,245l1,-1v0ZM247,241l1,2l1,1ZM247,241l2,3l2,1ZM248,243v0l1,1ZM250,244l1,1v0ZM249,244h1l1,1ZM249,244h1v0Z"/><path style="fill:none;stroke:rgb(0,0,0)" d="M215,230l2,4M199,233l2,4"/><path style="fill:rgb(0,0,0)" d="M-289,244l-1,1l1,2Z"/><path style="fill:none;stroke:rgb(0,0,0)" d="M-277,234l-4,5"/><path style="fill:rgb(0,0,0)" d="M-289,247l1,-1l-1,-2ZM-285,244v0v1ZM-284,244h-1v1ZM-284,244v0l-1,1ZM-284,244v0l-1,1ZM-284,244v0l-1,1ZM-284,244l-1,1v1ZM-285,246l1,-2v0ZM-285,246l1,-2v0ZM-285,246l2,-2h-1ZM-285,246l2,-2v0Z"/><path style="fill:none;stroke:rgb(0,0,0)" d="M183,237l2,3"/><path style="fill:rgb(0,0,0)" d="M-291,253l8,-10v1ZM-285,246l-6,7l8,-9ZM-291,253l8,-9v-1ZM-285,246l-6,7v0Z"/><path style="fill:none;stroke:rgb(0,0,0)" d="M167,240l2,6M-274,241l-3,3"/><path style="fill:rgb(0,0,0)" d="M174,250l-1,-1v0ZM174,250l-1,-1h-1ZM173,249h-1v0ZM175,251v-1h-1ZM176,253l-1,-2l-1,-1ZM173,251v0l1,-1ZM173,250v1l1,-1ZM173,251h1v-1ZM172,249h-1v1ZM172,250h1h1ZM174,251v1v-2ZM174,250l-2,-1l-2,2ZM176,253v-1l-1,-1ZM174,252h1l-1,-2ZM174,250l-4,1l2,-1ZM172,249l-1,1l-1,1ZM178,256l-2,-3l-2,-3ZM170,251h2v-1ZM175,252l3,4l-4,-6ZM171,250h-1v1ZM177,254v-1h-1ZM170,251h2v0ZM170,251h1h1ZM170,251l1,1v-1ZM175,252v1l3,3ZM178,256l-1,-2l-1,-1ZM175,253h1l2,3ZM170,251l1,1v0ZM176,253v1l2,2ZM170,251v0v1ZM170,251l1,2v-1ZM178,256v-1l-1,-1ZM176,254v1l2,1ZM170,251l1,2v0ZM176,255v0l2,1ZM170,251v1v2ZM170,251l2,3l-1,-1ZM176,255l1,1h1ZM170,251l2,4v-1ZM177,256v1l1,-1ZM170,252v1v1ZM170,251l2,5v-1Z"/><path style="fill:none;stroke:rgb(0,0,0)" d="M150,244l2,3"/><path style="fill:rgb(0,0,0)" d="M178,258v-1v-1ZM177,257v0l1,-1ZM177,257v1l1,-2ZM170,251v3l2,4ZM178,259v-1v-2ZM170,251l2,7v-2ZM177,258v0l1,-2ZM170,254v1l1,1ZM178,259v0v-1ZM177,258v3l1,-5ZM177,261l1,-2v-3ZM170,254l1,2l1,2ZM172,258v-2v0ZM172,258l1,-1l-1,-1ZM171,256v1l1,1ZM172,258h1v-1ZM178,261v-1v-1ZM177,258v1v2ZM172,258h1v0ZM177,259v0v2ZM172,258l2,1l-1,-1ZM177,261h1v-2ZM172,258l2,1v0ZM177,259l-1,1l1,1ZM172,258l3,1h-1ZM176,260v0l1,1ZM177,261l-1,-1v0ZM172,258l5,3l-2,-2ZM172,258v0l1,1ZM177,261l-1,-1h-1ZM177,261l-2,-1v-1ZM177,261v0h1ZM172,258l1,1l1,1ZM172,258l2,2l3,1ZM173,259v1h1ZM175,261h1h1ZM174,260l1,1h2ZM174,260l1,1v0Z"/><path style="fill:none;stroke:rgb(0,0,0)" d="M133,247l2,4M-272,249l-2,3M116,251l1,3M98,255l1,3M-269,257l-3,3M80,258l2,7"/><path style="fill:rgb(0,0,0)" d="M91,268l5,-1l-1,-1ZM91,268l4,-2l-6,1ZM97,271v0h-1ZM96,271l-1,-1v0ZM97,271h-1l-1,-1ZM98,272v0l-1,-1ZM95,270h-1v0ZM99,274l-2,-3l-2,-1ZM95,270h-1h-1ZM99,274l-1,-2l-1,-1ZM92,272l-1,-4l-2,-1ZM94,270h-1v0ZM95,270h-2l-1,1ZM95,270v2v0ZM99,274l-4,-4v2ZM99,274v-1l-1,-1ZM95,270v2v0ZM95,270l-1,2h1ZM93,270v1v0ZM95,270l-1,2v0ZM95,270l-1,2v0ZM93,270v1h-1ZM99,274l-4,-2h1ZM99,274l-3,-2v0ZM95,270l-2,2h1ZM99,274l-3,-2l1,1ZM95,270l-3,1v1ZM93,271v0h-1ZM95,270l-2,2v0ZM99,274l-2,-1v0ZM95,270l-2,2v0ZM95,270l-2,2v0ZM95,270l-3,2l1,1ZM92,271v0v0ZM92,272l-3,-5l3,6ZM95,270l-2,3v-1ZM99,275v-1v0ZM92,271v0v1ZM99,277v-3l-2,-1ZM92,271v0v1ZM89,267l3,6v0ZM97,273v1l2,3ZM99,277v-2v-1ZM97,274v0l2,3ZM89,267l2,7l1,-1ZM92,272l1,1v0ZM97,274v0l2,3ZM92,272v1h1ZM97,274l1,1l1,2ZM99,277v-1v-1ZM92,272v1v0ZM98,275v0l1,2ZM98,275l-1,1l2,1ZM97,276v0l2,1ZM83,269h-1v0ZM97,276v1h2ZM83,269h-1h-2ZM82,269h-1h-1ZM98,278l1,-1v0ZM84,271v-1l-1,-1ZM85,272l-1,-1l-1,-2ZM98,278v0l1,-1ZM82,270v0l1,-1ZM81,270h1l1,-1ZM82,270l1,1v-2ZM80,269v0h-1ZM81,270v0l2,-1ZM83,271v0v-2ZM83,269h-3l-2,1ZM85,272v-1h-1ZM97,277l-2,2l4,-2ZM83,271l1,1l-1,-3ZM98,278v0v0ZM83,269l-5,1h3ZM97,277v0l-2,2ZM80,269h-1l-1,1ZM95,279l3,-1l1,-1ZM97,277v0l-2,2ZM93,276v0h-2ZM97,277h-1l-1,2ZM87,276l-2,-4l-2,-3ZM93,276v0h-2ZM78,270h2h1ZM84,272l3,4l-4,-7ZM79,269v1h-1ZM94,277l-1,-1h-2ZM96,277v0l-1,2ZM94,277v0l-3,-1ZM94,277v0l-3,-1ZM95,277h-1l-3,-1ZM86,274v-1l-1,-1ZM96,277v0l-1,2ZM78,270h2v0ZM96,279h1l1,-1ZM96,277h-1v2ZM95,277v0v2ZM95,277v0v2ZM78,270l2,1v-1ZM95,277l-4,-1l4,3ZM95,279h1l2,-1ZM91,276l1,1v0ZM78,270l2,1v0ZM84,272v0l3,4Z"/><path style="fill:none;stroke:rgb(0,0,0)" d="M61,262l1,4"/><path style="fill:rgb(0,0,0)" d="M87,276l-1,-2l-1,-2ZM95,279h1v0ZM91,276l1,1l1,1ZM91,276l2,2l2,1ZM84,272v1l3,3ZM78,270l2,2v-1ZM92,277v1h1ZM84,273l1,1l2,2ZM94,279h1v0ZM93,278l1,1h1ZM78,270v1v1ZM78,270l2,3v-1ZM93,278h1v1ZM87,276v-1l-1,-1ZM85,274v0l2,2ZM78,270l2,3v0ZM85,274v1l2,1ZM78,270v2v2ZM78,270l2,4v-1ZM85,275v1h2ZM78,270l2,5v-1ZM85,276l1,1l1,-1ZM78,272v1v1ZM78,270l2,5v0ZM87,278v-1v-1ZM91,280l-1,-2h-1ZM86,277v0l1,-1ZM86,277v1l1,-2ZM78,270v4l2,4ZM87,280v-2v-2ZM89,278v2h2ZM78,270l2,8v-3ZM86,278l-1,1l2,-3ZM78,274l1,1v1ZM87,280v-1v-1ZM85,279v2l2,-5ZM85,281l2,-1v-4ZM78,274l1,2l1,2ZM80,278l1,-2l-1,-1ZM80,278l1,-1v-1ZM79,276v1l1,1ZM80,278h1v-1ZM86,281l1,-1v0ZM85,279v0v2ZM80,278h2h-1ZM85,279v0v2ZM80,278l2,1v-1ZM85,281h1l1,-1ZM80,278l3,1h-1ZM85,279v1v1ZM80,278l3,2v-1ZM85,280h-1l1,1ZM85,281l-1,-1v0ZM80,278l5,3l-2,-1ZM80,278v1h1ZM85,281l-1,-1v0ZM85,281l-1,-1h-1ZM85,281h1v0ZM80,278l1,1l1,2ZM80,278l2,3h3ZM81,279v1l1,1ZM84,281v0h1ZM82,281h2h1ZM82,281h1h1ZM77,278v-1l-4,1ZM73,278l1,1l3,-1Z"/><path style="fill:none;stroke:rgb(0,0,0)" d="M-267,266l-2,3M42,266l1,4M23,270l1,4"/><path style="fill:rgb(0,0,0)" d="M-278,283l-1,1v2ZM-279,286l1,-1v-2ZM-274,283v0l-1,1ZM-274,283v0l-1,1ZM-273,283h-1l-1,1ZM-273,283v0l-2,1ZM-273,283v0l-2,1ZM-273,283l-2,1l1,1Z"/><path style="fill:none;stroke:rgb(0,0,0)" d="M3,274l1,4"/><path style="fill:rgb(0,0,0)" d="M-274,285l1,-2v0Z"/><path style="fill:none;stroke:rgb(0,0,0)" d="M-264,275l-5,5"/><path style="fill:rgb(0,0,0)" d="M-274,285l1,-2v0ZM-274,285l2,-2h-1ZM-274,285l2,-3v1ZM-281,293l9,-11v0ZM-274,285l-7,8l9,-11ZM-281,293l10,-10l-1,-1ZM-274,285l-7,8v0ZM-279,293l-1,2v1ZM-280,296l1,-2v-1Z"/><path style="fill:none;stroke:rgb(0,0,0)" d="M-17,278l2,7"/><path style="fill:rgb(0,0,0)" d="M-271,286l-5,6v0ZM-278,294v0v1ZM-274,291l2,-3l1,-2ZM-278,294v1l-1,1ZM-274,291l3,-5l-4,6ZM-271,286l-5,6h1ZM-278,295h-1v1ZM-278,295l1,-1h-1ZM-274,291v0v0ZM-278,295v0v-1ZM-274,291l-1,1v0ZM-278,296v-1v-1ZM-274,291v0v0ZM-274,291l-1,1v0ZM-274,291l-1,1v0ZM-278,294l-1,2l-1,2ZM-278,296v0v-2ZM-274,291v0v0ZM-278,296v0v-2ZM-279,296v1h-1ZM-272,288l2,2l-1,-4ZM-279,296h1v-2ZM-273,291h-1v0ZM-279,296l1,-2l-2,4ZM-273,291v0h-1ZM-279,296l-1,1v1ZM-273,292l-1,-1v0ZM-273,292l-1,-1l-1,1ZM-273,291v0v0ZM-273,292h-2v0ZM-280,297v0v1ZM-273,292h-2v0ZM-273,291v0v0ZM-273,292v-1h-1ZM-273,292h-2v0ZM-273,292h-2v0ZM-279,297v-1l-1,2ZM-273,292h-2h1ZM-273,292v-1v0ZM-8,292l-1,-4v1ZM-279,297v0l-1,1ZM-273,292h-1v1ZM-8,292l-1,-3v0ZM-279,297v0l-1,1ZM-273,292l-1,1v0ZM-273,292v0v-1ZM-8,292l-1,-3v1ZM-279,297v0l-1,1ZM-273,292l-1,1v0ZM-280,298v0v1ZM-8,292l-1,-2v0ZM-272,288l1,3l1,-1ZM-279,298v-1l-1,1ZM-273,292l-1,1v0ZM-4,301l-4,-14l-1,1ZM-278,298h-1h-1ZM-273,292l-1,1l-1,1ZM-280,298v1h1ZM-278,298v0h-2ZM-9,290h-1l-1,2ZM-4,301l-5,-13v0ZM-9,290l-2,2h3ZM-10,290v0l-1,2ZM-278,298v0h-2ZM-10,290v1l-1,1ZM-274,293h1v-1ZM-10,291h-1v1ZM-280,299v0h1ZM-11,291v0v1ZM-8,292l4,9l-5,-13ZM-274,294v-1l1,-1ZM-278,298h-2l2,1ZM-280,298l1,1h1ZM-276,297l3,-5l-2,2ZM-276,297l1,-3v0ZM-274,294v0v-1ZM-276,297l1,-3v1ZM-276,297l2,-3l1,-2ZM-279,299v0v0ZM-276,297l1,-2v0ZM-278,298v0v1ZM-276,297l1,-2v0ZM-278,297v1v1ZM-275,295l-1,1l-2,3ZM-277,297h-1v2ZM-276,296v0l-2,3ZM-277,297v0l-1,2ZM-276,296l-1,1l-1,2ZM-279,299v0h1ZM-277,297v0l-1,2ZM-275,296l1,-1v-1ZM-278,299l2,-2l1,-2ZM-279,299v0h1ZM-276,297l1,-1l1,-2ZM-276,297l1,-1v0ZM-8,292l3,9h1ZM-278,299v0l1,-1ZM-278,299l1,-1l1,-1Z"/><path style="fill:none;stroke:rgb(0,0,0)" d="M-38,283l1,4"/><path style="fill:rgb(0,0,0)" d="M-277,298v0l1,-1Z"/><path style="fill:none;stroke:rgb(0,0,0)" d="M-261,284l-3,3"/><path style="fill:rgb(0,0,0)" d="M-14,298v-1l-5,1ZM-19,298l1,1l4,-1Z"/><path style="fill:none;stroke:rgb(0,0,0)" d="M-59,287l1,4M-81,292l1,4M-258,294l-3,3M-103,296l1,4M-126,301l2,7"/><path style="fill:rgb(0,0,0)" d="M-114,312l6,-1v-2ZM-114,312l6,-3l-8,2ZM-107,316l-1,-1v0ZM-108,315h-1h-1ZM-107,316l-1,-1h-2ZM-106,317v-1h-1ZM-110,315v0h-1ZM-105,318l-2,-2l-3,-1ZM-110,315h-1h-1ZM-105,318l-1,-1l-1,-1ZM-114,316v-4l-2,-1ZM-111,315v0h-1ZM-110,315h-2h-1ZM-110,315v1h1ZM-105,318l-5,-3l1,1ZM-105,318h-1v-1ZM-110,315v1v0ZM-110,315l-1,1h1ZM-112,315v0v0ZM-110,315l-1,1v0ZM-110,315l-1,1v0ZM-112,315v0h-1ZM-105,318l-4,-2v1ZM-105,318l-4,-1h1ZM-110,315l-2,2l1,-1ZM-105,318l-3,-1v0ZM-110,315h-3l-1,1ZM-112,315v0h-1ZM-110,315l-2,2v0ZM-105,318l-3,-1v1ZM-110,315l-2,2v0ZM-110,315l-2,2v0ZM-110,315l-4,1l1,1ZM-113,315v0v1ZM-114,316l-2,-5l3,7ZM-110,315l-3,2h1ZM-105,320v-1v-1ZM-113,315v1h-1ZM-106,322l1,-4h-3ZM-113,316v0h-1ZM-116,311l3,7v0ZM-108,318h1l1,4ZM-106,322l1,-2v-2ZM-107,318v1l1,3ZM-116,311l1,8l2,-1Z"/><path style="fill:none;stroke:rgb(0,0,0)" d="M-255,304l-3,4"/><path style="fill:rgb(0,0,0)" d="M-114,316l1,1v0ZM-107,319v0l1,3ZM-114,316l1,2v-1ZM-107,319v1l1,2ZM-106,322l1,-1v-1ZM-114,316l1,2v0ZM-107,320v0l1,2ZM-107,320l-1,1l2,1ZM-108,321v0l2,1ZM-108,321v1h2ZM-107,323l1,-1v0ZM-108,324l1,-1l1,-1ZM-108,322l-3,2l5,-2ZM-125,317l-1,-4v1ZM-108,324l1,-1v0ZM-108,322v0l-3,2ZM-111,324h3l2,-2ZM-125,317l-1,-3v0ZM-108,322h-1l-2,2ZM-125,317l-1,-3v1ZM-113,321v0h-2ZM-109,322v1l-2,1ZM-113,322v-1h-2ZM-125,317l-1,-2v0ZM-112,322h-1l-2,-1ZM-109,323h-1l-1,1ZM-112,322v0l-3,-1ZM-112,322v0l-3,-1ZM-111,323l-1,-1l-3,-1ZM-110,323v0l-1,1ZM-109,324v0h1ZM-110,323v0l-1,1ZM-110,323h-1v1ZM-111,323v0v1ZM-121,327l-3,-15l-2,1ZM-111,323l-4,-2l4,3ZM-111,324h2h1ZM-115,321v1l1,1ZM-126,315h-1l-1,3ZM-121,327l-5,-14v0Z"/><path style="fill:none;stroke:rgb(0,0,0)" d="M-149,306l1,4"/><path style="fill:rgb(0,0,0)" d="M-111,324h1h1ZM-126,315l-2,3l3,-1ZM-127,315v1l-1,2ZM-115,321l1,2l1,1ZM-115,321l2,3h2ZM-127,316h-1v2ZM-114,323v0l1,1ZM-128,316v0v2ZM-112,324h1v0ZM-113,324h1h1ZM-113,324v0h1ZM-128,316h-1l1,2ZM-125,317l4,10l-5,-14ZM-116,325l-1,-2l-2,1ZM-119,324l1,2l2,-1ZM-125,317l2,10h2ZM-132,324l-1,-1l-4,1ZM-137,324v1l5,-1Z"/><path style="fill:none;stroke:rgb(0,0,0)" d="M-173,311l1,4M-251,315l-3,3M-197,316l1,4M-222,321l1,4"/><path style="fill:rgb(0,0,0)" d="M-263,339l-1,1v3ZM-264,343l1,-2v-2Z"/><path style="fill:none;stroke:rgb(0,0,0)" d="M-248,326l1,8M-248,326l-5,7M-248,326l-25,-635"/><path style="fill:rgb(0,0,0)" d="M-259,339v0l-1,1ZM-257,338h-1l-1,1ZM-257,338l-2,1l-1,1ZM-256,337l-1,1v0ZM-256,338h-1l-3,2ZM-256,338v-1l-1,1ZM-237,338h-1l-1,-1ZM-260,340l1,1v-1ZM-260,340h1h1ZM-260,340v1h1ZM-237,338l-2,-1h-1ZM-239,337v0h-1ZM-256,338l-4,2h2ZM-236,339h-1v-1ZM-256,338v-1v0ZM-240,337h-1v0ZM-236,341v-2l-1,-1ZM-237,338l-3,-1l-3,1ZM-236,341v-1v-1ZM-256,338l-2,2v0ZM-240,337h-1l-2,1ZM-237,338l-2,1v0ZM-237,338l-3,1h1ZM-237,338l-2,1v1ZM-256,338l-2,2v-1ZM-237,338l-3,1v0ZM-237,338l-2,2h1ZM-237,338l-4,1h1ZM-238,340v0l1,-2ZM-256,338l-2,1h1ZM-237,338h-6l2,1ZM-237,338l-4,1v0ZM-241,337l-1,1h-1ZM-256,338l-1,1v0ZM-256,338l-1,1v0ZM-237,344l1,-3l-1,-3ZM-255,338h-1v0ZM-238,340l1,4v-6ZM-236,343v-1v-1ZM-243,338l1,1h1ZM-256,338l-1,1v1ZM-243,338l1,2v-1ZM-243,338h-1v1ZM-256,338l-1,2v0ZM-243,338v2h1ZM-243,338v2v0ZM-238,340v1l1,3ZM-237,344l1,-1v-2ZM-255,339v-1h-1ZM-238,341v0l1,3ZM-243,338v3v-1ZM-243,338l-1,1l-1,1ZM-238,341v1l1,2ZM-243,338l-1,3h1ZM-237,344l1,-1v0ZM-238,342v1l1,1ZM-244,339h-1v1ZM-243,338l-1,4v-1ZM-255,339v0v-1ZM-256,342v-4l-1,2ZM-243,338l-2,2l-1,4ZM-256,342l1,-3l-1,-1ZM-243,338l-3,6l2,-2ZM-245,340l-1,1v1ZM-256,342l-1,-2v0ZM-238,343l-3,5l4,-4ZM-238,343v0l-3,5ZM-256,342l-1,-2v0ZM-256,340h1v-1ZM-256,342l-1,-2v1ZM-246,344l2,-2v0ZM-245,340l-1,2v2ZM-256,342l-1,-1v0ZM-246,344l2,-1v-1ZM-256,342v-2l1,-1ZM-238,343l-1,1l-3,5ZM-256,342l-1,-1v0ZM-246,344h2v-1ZM-246,342v1v1ZM-256,342l-1,-1v1ZM-256,342h-1v0ZM-256,342v-1v-1ZM-238,343l-3,6v-1ZM-257,342l-1,1l2,-1ZM-238,343l-4,6h1ZM-258,343v0l-2,3ZM-258,343v0l-2,3ZM-259,344v0l-1,2ZM-258,343l-1,1l-1,2ZM-258,343l-2,3l4,-4ZM-257,343l1,-1v0ZM-258,344l1,-1l1,-1ZM-260,346l2,-2l2,-2ZM-258,344h1v-1Z"/></svg></g></g><g class="text_layer"><g objname="title" objtype="TPaveText" x="336" y="8" width="528" height="40" transform="translate(336,8)" font-family="Arial" font-size="33" space="preserve"><rect x="0" y="0" width="528" height="40" style="fill: none;"></rect><text text-anchor="middle" x="0" y="0" fill="black" transform="translate(264.0,21.0)" dominant-baseline="middle" class="" opacity="1">Option SCAT (default) </text></g></g><g class="stat_layer"></g><g class="btns_layer" transform="translate(2,780)"></g></svg>