<svg xmlns="http://www.w3.org/2000/svg" viewBox="0 0 1198 574" preserveAspectRatio="none" width="1198" height="574">
 <defs>
  <pattern id="pat_3012_2" patternUnits="userSpaceOnUse" width="10" height="20">
   <path d="M5,1A4,4,0,0,0,5,9A4,4,0,0,0,5,1M0,11A4,4,0,0,1,0,19M10,11A4,4,0,0,0,10,19" style="stroke: red; stroke-width: 1; fill: none;"></path>
  </pattern>
 </defs>
 <path d="M0,0H1198V574H0Z" style="fill: white;"></path>
 <g>
  <svg viewBox="0 0 575 563" preserveAspectRatio="none" x="12" y="5" width="575" height="563">
   <path d="M0,0H575V563H0Z" style="fill: white;"></path>
   <g>
    <g transform="translate(288,282)" font-family="Arial" font-size="18" space="preserve" font-weight="bold">
     <ellipse cx="0" cy="0" rx="19" ry="19" style="fill: none; stroke: black; stroke-width: 1;"></ellipse>
     <text fill="black" text-anchor="middle" dy=".8em" transform="translate(19,4)">
      -1
     </text>
     <ellipse cx="0" cy="0" rx="29" ry="28" style="fill: none; stroke: black; stroke-width: 1; stroke-dasharray: 3,3;"></ellipse>
     <ellipse cx="0" cy="0" rx="38" ry="37" style="fill: none; stroke: black; stroke-width: 1; stroke-dasharray: 3,3;"></ellipse>
     <ellipse cx="0" cy="0" rx="48" ry="47" style="fill: none; stroke: black; stroke-width: 1; stroke-dasharray: 3,3;"></ellipse>
     <ellipse cx="0" cy="0" rx="58" ry="56" style="fill: none; stroke: black; stroke-width: 1; stroke-dasharray: 3,3;"></ellipse>
     <ellipse cx="0" cy="0" rx="67" ry="66" style="fill: none; stroke: black; stroke-width: 1;"></ellipse>
     <text fill="black" text-anchor="middle" dy=".8em" transform="translate(67,4)">
      -0.5
     </text>
     <ellipse cx="0" cy="0" rx="77" ry="75" style="fill: none; stroke: black; stroke-width: 1; stroke-dasharray: 3,3;"></ellipse>
     <ellipse cx="0" cy="0" rx="86" ry="84" style="fill: none; stroke: black; stroke-width: 1; stroke-dasharray: 3,3;"></ellipse>
     <ellipse cx="0" cy="0" rx="96" ry="94" style="fill: none; stroke: black; stroke-width: 1; stroke-dasharray: 3,3;"></ellipse>
     <ellipse cx="0" cy="0" rx="105" ry="103" style="fill: none; stroke: black; stroke-width: 1; stroke-dasharray: 3,3;"></ellipse>
     <ellipse cx="0" cy="0" rx="115" ry="113" style="fill: none; stroke: black; stroke-width: 1;"></ellipse>
     <text fill="black" text-anchor="middle" dy=".8em" transform="translate(115,4)">
      0
     </text>
     <ellipse cx="0" cy="0" rx="125" ry="122" style="fill: none; stroke: black; stroke-width: 1; stroke-dasharray: 3,3;"></ellipse>
     <ellipse cx="0" cy="0" rx="134" ry="131" style="fill: none; stroke: black; stroke-width: 1; stroke-dasharray: 3,3;"></ellipse>
     <ellipse cx="0" cy="0" rx="144" ry="141" style="fill: none; stroke: black; stroke-width: 1; stroke-dasharray: 3,3;"></ellipse>
     <ellipse cx="0" cy="0" rx="153" ry="150" style="fill: none; stroke: black; stroke-width: 1; stroke-dasharray: 3,3;"></ellipse>
     <ellipse cx="0" cy="0" rx="163" ry="159" style="fill: none; stroke: black; stroke-width: 1;"></ellipse>
     <text fill="black" text-anchor="middle" dy=".8em" transform="translate(163,4)">
      0.5
     </text>
     <ellipse cx="0" cy="0" rx="173" ry="169" style="fill: none; stroke: black; stroke-width: 1; stroke-dasharray: 3,3;"></ellipse>
     <ellipse cx="0" cy="0" rx="182" ry="178" style="fill: none; stroke: black; stroke-width: 1; stroke-dasharray: 3,3;"></ellipse>
     <ellipse cx="0" cy="0" rx="192" ry="188" style="fill: none; stroke: black; stroke-width: 1; stroke-dasharray: 3,3;"></ellipse>
     <ellipse cx="0" cy="0" rx="201" ry="197" style="fill: none; stroke: black; stroke-width: 1; stroke-dasharray: 3,3;"></ellipse>
     <ellipse cx="0" cy="0" rx="211" ry="206" style="fill: none; stroke: black; stroke-width: 1;"></ellipse>
     <text fill="black" text-anchor="middle" dy=".8em" transform="translate(211,4)">
      1
     </text>
     <ellipse cx="0" cy="0" rx="220" ry="216" style="fill: none; stroke: black; stroke-width: 1; stroke-dasharray: 3,3;"></ellipse>
     <ellipse cx="0" cy="0" rx="230" ry="225" style="fill: none; stroke: black; stroke-width: 1; stroke-dasharray: 3,3;"></ellipse>
     <ellipse cx="0" cy="0" rx="230" ry="225" style="fill: none; stroke: black; stroke-width: 1;"></ellipse>
     <path d="M0,0L230,0" style="stroke: black; stroke-width: 1;"></path>
     <text fill="black" text-anchor="start" dy=".4em" transform="translate(248)">
      0
     </text>
     <path d="M0,0L-115,-195" style="stroke: black; stroke-width: 1;"></path>
     <g transform="translate(-146,-210)">
      <text fill="black" font-size="18" transform="translate(0,-11)">
       2π
      </text>
      <path style="stroke: black; stroke-width: 2; fill: none;" d="M0,-6h20"></path>
      <text fill="black" font-size="18" transform="translate(6,11)">
       3
      </text>
     </g>
     <path d="M0,0L-115,195" style="stroke: black; stroke-width: 1;"></path>
     <g transform="translate(-146,238)">
      <text fill="black" font-size="18" transform="translate(0,-11)">
       4π
      </text>
      <path style="stroke: black; stroke-width: 2; fill: none;" d="M0,-6h20"></path>
      <text fill="black" font-size="18" transform="translate(6,11)">
       3
      </text>
     </g>
     <path d="M0,0L220,-66" style="stroke: black; stroke-width: 1; stroke-dasharray: 3,3;"></path>
     <path d="M0,0L190,-127" style="stroke: black; stroke-width: 1; stroke-dasharray: 3,3;"></path>
     <path d="M0,0L143,-176" style="stroke: black; stroke-width: 1; stroke-dasharray: 3,3;"></path>
     <path d="M0,0L84,-209" style="stroke: black; stroke-width: 1; stroke-dasharray: 3,3;"></path>
     <path d="M0,0L17,-224" style="stroke: black; stroke-width: 1; stroke-dasharray: 3,3;"></path>
     <path d="M0,0L-51,-219" style="stroke: black; stroke-width: 1; stroke-dasharray: 3,3;"></path>
     <path d="M0,0L-169,-153" style="stroke: black; stroke-width: 1; stroke-dasharray: 3,3;"></path>
     <path d="M0,0L-207,-98" style="stroke: black; stroke-width: 1; stroke-dasharray: 3,3;"></path>
     <path d="M0,0L-227,-34" style="stroke: black; stroke-width: 1; stroke-dasharray: 3,3;"></path>
     <path d="M0,0L-227,34" style="stroke: black; stroke-width: 1; stroke-dasharray: 3,3;"></path>
     <path d="M0,0L-207,98" style="stroke: black; stroke-width: 1; stroke-dasharray: 3,3;"></path>
     <path d="M0,0L-169,153" style="stroke: black; stroke-width: 1; stroke-dasharray: 3,3;"></path>
     <path d="M0,0L-51,219" style="stroke: black; stroke-width: 1; stroke-dasharray: 3,3;"></path>
     <path d="M0,0L17,224" style="stroke: black; stroke-width: 1; stroke-dasharray: 3,3;"></path>
     <path d="M0,0L84,209" style="stroke: black; stroke-width: 1; stroke-dasharray: 3,3;"></path>
     <path d="M0,0L143,176" style="stroke: black; stroke-width: 1; stroke-dasharray: 3,3;"></path>
     <path d="M0,0L190,127" style="stroke: black; stroke-width: 1; stroke-dasharray: 3,3;"></path>
     <path d="M0,0L220,66" style="stroke: black; stroke-width: 1; stroke-dasharray: 3,3;"></path>
    </g>
    <g transform="translate(288,282)">
     <path d="M211,0L210,-1L208,-3L204,-4L199,-5L192,-6L185,-7L176,-8L166,-8L155,-9L144,-9L132,-9L121,-9L109,-9L97,-8L86,-8L75,-7L64,-7L55,-6L47,-5L40,-5L34,-4L29,-4L26,-4L24,-4L24,-4L25,-4L27,-5L31,-5L36,-6L42,-8L49,-10L58,-11L67,-14L76,-16L86,-19L96,-22L107,-25L117,-28L127,-31L137,-34L146,-38L154,-41L161,-44L168,-47L173,-49L178,-52L181,-54L183,-56L184,-57L183,-58L181,-59L179,-59L175,-59L170,-59L164,-58L158,-57L151,-55L143,-53L135,-51L127,-49L119,-47L110,-44L102,-42L94,-39L87,-37L80,-34L74,-32L68,-30L63,-29L59,-27L56,-26L54,-26L53,-25L52,-26L52,-26L53,-27L55,-28L58,-30L61,-32L64,-35L68,-37L73,-40L77,-43L82,-47L87,-50L91,-54L96,-57L100,-60L104,-64L108,-67L111,-70L114,-73L116,-75L118,-77L119,-79L119,-80L119,-82L119,-82L118,-83L117,-83L115,-83L113,-83L111,-82L109,-81L106,-81L103,-79L101,-78L98,-77L95,-76L93,-75L91,-74L88,-73L87,-73L85,-72L83,-72L82,-72L81,-72L81,-72L80,-73L80,-74L80,-75L80,-76L81,-77L81,-78L81,-80L82,-81L82,-82L82,-83L82,-85L82,-85L82,-86L81,-87L81,-87L80,-87L79,-87L77,-87L76,-86L74,-85L72,-84L70,-83L68,-81L65,-79L63,-78L61,-76L59,-74L57,-72L55,-71L53,-69L51,-68L50,-68L49,-67L49,-67L48,-68L48,-69L49,-70L49,-72L50,-74L52,-77L53,-81L55,-85L57,-89L59,-93L61,-98L64,-104L66,-109L68,-114L70,-119L72,-125L74,-130L75,-134L77,-138L77,-142L78,-145L78,-148L78,-149L77,-150L76,-150L74,-150L72,-148L70,-146L67,-142L64,-138L61,-133L57,-128L54,-121L50,-115L46,-108L42,-100L38,-93L34,-85L31,-77L27,-70L24,-63L21,-57L19,-51L17,-46L15,-42L13,-38L12,-36L12,-35L11,-35L11,-36L12,-38L13,-42L14,-47L15,-52L17,-59L18,-67L20,-75L22,-84L24,-94L26,-104L28,-115L29,-125L31,-135L32,-145L33,-155L34,-164L35,-172L35,-180L35,-186L35,-191L34,-195L33,-198L32,-199L31,-199L29,-197L28,-194L26,-190L24,-184L22,-178L20,-170L18,-161L16,-151L14,-140L12,-129L10,-118L8,-106L7,-95L5,-84L4,-73L3,-62L2,-53L2,-44L1,-37L1,-30L0,-25L0,-22L0,-19L0,-19L0,-19L0,-22L0,-25L-1,-30L-1,-37L-2,-44L-2,-53L-3,-62L-4,-73L-5,-84L-7,-95L-8,-106L-10,-118L-12,-129L-14,-140L-16,-151L-18,-161L-20,-170L-22,-178L-24,-184L-26,-190L-28,-194L-29,-197L-31,-199L-32,-199L-33,-198L-34,-195L-35,-191L-35,-186L-35,-180L-35,-172L-34,-164L-33,-155L-32,-145L-31,-135L-29,-125L-28,-115L-26,-104L-24,-94L-22,-84L-20,-75L-18,-67L-17,-59L-15,-52L-14,-47L-13,-42L-12,-38L-11,-36L-11,-35L-12,-35L-12,-36L-13,-38L-15,-42L-17,-46L-19,-51L-21,-57L-24,-63L-27,-70L-31,-77L-34,-85L-38,-93L-42,-100L-46,-108L-50,-115L-54,-121L-57,-128L-61,-133L-64,-138L-67,-142L-70,-146L-72,-148L-74,-150L-76,-150L-77,-150L-78,-149L-78,-148L-78,-145L-77,-142L-77,-138L-75,-134L-74,-130L-72,-125L-70,-119L-68,-114L-66,-109L-64,-104L-61,-98L-59,-93L-57,-89L-55,-85L-53,-81L-52,-77L-50,-74L-49,-72L-49,-70L-48,-69L-48,-68L-49,-67L-49,-67L-50,-68L-51,-68L-53,-69L-55,-71L-57,-72L-59,-74L-61,-76L-63,-78L-65,-79L-68,-81L-70,-83L-72,-84L-74,-85L-76,-86L-77,-87L-79,-87L-80,-87L-81,-87L-81,-87L-82,-86L-82,-85L-82,-85L-82,-83L-82,-82L-82,-81L-81,-80L-81,-78L-81,-77L-80,-76L-80,-75L-80,-74L-80,-73L-81,-72L-81,-72L-82,-72L-83,-72L-85,-72L-87,-73L-88,-73L-91,-74L-93,-75L-95,-76L-98,-77L-101,-78L-103,-79L-106,-81L-109,-81L-111,-82L-113,-83L-115,-83L-117,-83L-118,-83L-119,-82L-119,-82L-119,-80L-119,-79L-118,-77L-116,-75L-114,-73L-111,-70L-108,-67L-104,-64L-100,-60L-96,-57L-91,-54L-87,-50L-82,-47L-77,-43L-73,-40L-68,-37L-64,-35L-61,-32L-58,-30L-55,-28L-53,-27L-52,-26L-52,-26L-53,-25L-54,-26L-56,-26L-59,-27L-63,-29L-68,-30L-74,-32L-80,-34L-87,-37L-94,-39L-102,-42L-110,-44L-119,-47L-127,-49L-135,-51L-143,-53L-151,-55L-158,-57L-164,-58L-170,-59L-175,-59L-179,-59L-181,-59L-183,-58L-184,-57L-183,-56L-181,-54L-178,-52L-173,-49L-168,-47L-161,-44L-154,-41L-146,-38L-137,-34L-127,-31L-117,-28L-107,-25L-96,-22L-86,-19L-76,-16L-67,-14L-58,-11L-49,-10L-42,-8L-36,-6L-31,-5L-27,-5L-25,-4L-24,-4L-24,-4L-26,-4L-29,-4L-34,-4L-40,-5L-47,-5L-55,-6L-64,-7L-75,-7L-86,-8L-97,-8L-109,-9L-121,-9L-132,-9L-144,-9L-155,-9L-166,-8L-176,-8L-185,-7L-192,-6L-199,-5L-204,-4L-208,-3L-210,-1L-211,0L-210,1L-208,3L-204,4L-199,5L-192,6L-185,7L-176,8L-166,8L-155,9L-144,9L-132,9L-121,9L-109,9L-97,8L-86,8L-75,7L-64,7L-55,6L-47,5L-40,5L-34,4L-29,4L-26,4L-24,4L-24,4L-25,4L-27,5L-31,5L-36,6L-42,8L-49,10L-58,11L-67,14L-76,16L-86,19L-96,22L-107,25L-117,28L-127,31L-137,34L-146,38L-154,41L-161,44L-168,47L-173,49L-178,52L-181,54L-183,56L-184,57L-183,58L-181,59L-179,59L-175,59L-170,59L-164,58L-158,57L-151,55L-143,53L-135,51L-127,49L-119,47L-110,44L-102,42L-94,39L-87,37L-80,34L-74,32L-68,30L-63,29L-59,27L-56,26L-54,26L-53,25L-52,26L-52,26L-53,27L-55,28L-58,30L-61,32L-64,35L-68,37L-73,40L-77,43L-82,47L-87,50L-91,54L-96,57L-100,60L-104,64L-108,67L-111,70L-114,73L-116,75L-118,77L-119,79L-119,80L-119,82L-119,82L-118,83L-117,83L-115,83L-113,83L-111,82L-109,81L-106,81L-103,79L-101,78L-98,77L-95,76L-93,75L-91,74L-88,73L-87,73L-85,72L-83,72L-82,72L-81,72L-81,72L-80,73L-80,74L-80,75L-80,76L-81,77L-81,78L-81,80L-82,81L-82,82L-82,83L-82,85L-82,85L-82,86L-81,87L-81,87L-80,87L-79,87L-77,87L-76,86L-74,85L-72,84L-70,83L-68,81L-65,79L-63,78L-61,76L-59,74L-57,72L-55,71L-53,69L-51,68L-50,68L-49,67L-49,67L-48,68L-48,69L-49,70L-49,72L-50,74L-52,77L-53,81L-55,85L-57,89L-59,93L-61,98L-64,104L-66,109L-68,114L-70,119L-72,125L-74,130L-75,134L-77,138L-77,142L-78,145L-78,148L-78,149L-77,150L-76,150L-74,150L-72,148L-70,146L-67,142L-64,138L-61,133L-57,128L-54,121L-50,115L-46,108L-42,100L-38,93L-34,85L-31,77L-27,70L-24,63L-21,57L-19,51L-17,46L-15,42L-13,38L-12,36L-12,35L-11,35L-11,36L-12,38L-13,42L-14,47L-15,52L-17,59L-18,67L-20,75L-22,84L-24,94L-26,104L-28,115L-29,125L-31,135L-32,145L-33,155L-34,164L-35,172L-35,180L-35,186L-35,191L-34,195L-33,198L-32,199L-31,199L-29,197L-28,194L-26,190L-24,184L-22,178L-20,170L-18,161L-16,151L-14,140L-12,129L-10,118L-8,106L-7,95L-5,84L-4,73L-3,62L-2,53L-2,44L-1,37L-1,30L0,25L0,22L0,19L0,19L0,19L0,22L0,25L1,30L1,37L2,44L2,53L3,62L4,73L5,84L7,95L8,106L10,118L12,129L14,140L16,151L18,161L20,170L22,178L24,184L26,190L28,194L29,197L31,199L32,199L33,198L34,195L35,191L35,186L35,180L35,172L34,164L33,155L32,145L31,135L29,125L28,115L26,104L24,94L22,84L20,75L18,67L17,59L15,52L14,47L13,42L12,38L11,36L11,35L12,35L12,36L13,38L15,42L17,46L19,51L21,57L24,63L27,70L31,77L34,85L38,93L42,100L46,108L50,115L54,121L57,128L61,133L64,138L67,142L70,146L72,148L74,150L76,150L77,150L78,149L78,148L78,145L77,142L77,138L75,134L74,130L72,125L70,119L68,114L66,109L64,104L61,98L59,93L57,89L55,85L53,81L52,77L50,74L49,72L49,70L48,69L48,68L49,67L49,67L50,68L51,68L53,69L55,71L57,72L59,74L61,76L63,78L65,79L68,81L70,83L72,84L74,85L76,86L77,87L79,87L80,87L81,87L81,87L82,86L82,85L82,85L82,83L82,82L82,81L81,80L81,78L81,77L80,76L80,75L80,74L80,73L81,72L81,72L82,72L83,72L85,72L87,73L88,73L91,74L93,75L95,76L98,77L101,78L103,79L106,81L109,81L111,82L113,83L115,83L117,83L118,83L119,82L119,82L119,80L119,79L118,77L116,75L114,73L111,70L108,67L104,64L100,60L96,57L91,54L87,50L82,47L77,43L73,40L68,37L64,35L61,32L58,30L55,28L53,27L52,26L52,26L53,25L54,26L56,26L59,27L63,29L68,30L74,32L80,34L87,37L94,39L102,42L110,44L119,47L127,49L135,51L143,53L151,55L158,57L164,58L170,59L175,59L179,59L181,59L183,58L184,57L183,56L181,54L178,52L173,49L168,47L161,44L154,41L146,38L137,34L127,31L117,28L107,25L96,22L86,19L76,16L67,14L58,11L49,10L42,8L36,6L31,5L27,5L25,4L24,4L24,4L26,4L29,4L34,4L40,5L47,5L55,6L64,7L75,7L86,8L97,8L109,9L121,9L132,9L144,9L155,9L166,8L176,8L185,7L192,6L199,5L204,4L208,3L210,1Z" style="fill: url(#pat_3012_2);"></path>
     <path d="M211,0L210,-1L208,-3L204,-4L199,-5L192,-6L185,-7L176,-8L166,-8L155,-9L144,-9L132,-9L121,-9L109,-9L97,-8L86,-8L75,-7L64,-7L55,-6L47,-5L40,-5L34,-4L29,-4L26,-4L24,-4L24,-4L25,-4L27,-5L31,-5L36,-6L42,-8L49,-10L58,-11L67,-14L76,-16L86,-19L96,-22L107,-25L117,-28L127,-31L137,-34L146,-38L154,-41L161,-44L168,-47L173,-49L178,-52L181,-54L183,-56L184,-57L183,-58L181,-59L179,-59L175,-59L170,-59L164,-58L158,-57L151,-55L143,-53L135,-51L127,-49L119,-47L110,-44L102,-42L94,-39L87,-37L80,-34L74,-32L68,-30L63,-29L59,-27L56,-26L54,-26L53,-25L52,-26L52,-26L53,-27L55,-28L58,-30L61,-32L64,-35L68,-37L73,-40L77,-43L82,-47L87,-50L91,-54L96,-57L100,-60L104,-64L108,-67L111,-70L114,-73L116,-75L118,-77L119,-79L119,-80L119,-82L119,-82L118,-83L117,-83L115,-83L113,-83L111,-82L109,-81L106,-81L103,-79L101,-78L98,-77L95,-76L93,-75L91,-74L88,-73L87,-73L85,-72L83,-72L82,-72L81,-72L81,-72L80,-73L80,-74L80,-75L80,-76L81,-77L81,-78L81,-80L82,-81L82,-82L82,-83L82,-85L82,-85L82,-86L81,-87L81,-87L80,-87L79,-87L77,-87L76,-86L74,-85L72,-84L70,-83L68,-81L65,-79L63,-78L61,-76L59,-74L57,-72L55,-71L53,-69L51,-68L50,-68L49,-67L49,-67L48,-68L48,-69L49,-70L49,-72L50,-74L52,-77L53,-81L55,-85L57,-89L59,-93L61,-98L64,-104L66,-109L68,-114L70,-119L72,-125L74,-130L75,-134L77,-138L77,-142L78,-145L78,-148L78,-149L77,-150L76,-150L74,-150L72,-148L70,-146L67,-142L64,-138L61,-133L57,-128L54,-121L50,-115L46,-108L42,-100L38,-93L34,-85L31,-77L27,-70L24,-63L21,-57L19,-51L17,-46L15,-42L13,-38L12,-36L12,-35L11,-35L11,-36L12,-38L13,-42L14,-47L15,-52L17,-59L18,-67L20,-75L22,-84L24,-94L26,-104L28,-115L29,-125L31,-135L32,-145L33,-155L34,-164L35,-172L35,-180L35,-186L35,-191L34,-195L33,-198L32,-199L31,-199L29,-197L28,-194L26,-190L24,-184L22,-178L20,-170L18,-161L16,-151L14,-140L12,-129L10,-118L8,-106L7,-95L5,-84L4,-73L3,-62L2,-53L2,-44L1,-37L1,-30L0,-25L0,-22L0,-19L0,-19L0,-19L0,-22L0,-25L-1,-30L-1,-37L-2,-44L-2,-53L-3,-62L-4,-73L-5,-84L-7,-95L-8,-106L-10,-118L-12,-129L-14,-140L-16,-151L-18,-161L-20,-170L-22,-178L-24,-184L-26,-190L-28,-194L-29,-197L-31,-199L-32,-199L-33,-198L-34,-195L-35,-191L-35,-186L-35,-180L-35,-172L-34,-164L-33,-155L-32,-145L-31,-135L-29,-125L-28,-115L-26,-104L-24,-94L-22,-84L-20,-75L-18,-67L-17,-59L-15,-52L-14,-47L-13,-42L-12,-38L-11,-36L-11,-35L-12,-35L-12,-36L-13,-38L-15,-42L-17,-46L-19,-51L-21,-57L-24,-63L-27,-70L-31,-77L-34,-85L-38,-93L-42,-100L-46,-108L-50,-115L-54,-121L-57,-128L-61,-133L-64,-138L-67,-142L-70,-146L-72,-148L-74,-150L-76,-150L-77,-150L-78,-149L-78,-148L-78,-145L-77,-142L-77,-138L-75,-134L-74,-130L-72,-125L-70,-119L-68,-114L-66,-109L-64,-104L-61,-98L-59,-93L-57,-89L-55,-85L-53,-81L-52,-77L-50,-74L-49,-72L-49,-70L-48,-69L-48,-68L-49,-67L-49,-67L-50,-68L-51,-68L-53,-69L-55,-71L-57,-72L-59,-74L-61,-76L-63,-78L-65,-79L-68,-81L-70,-83L-72,-84L-74,-85L-76,-86L-77,-87L-79,-87L-80,-87L-81,-87L-81,-87L-82,-86L-82,-85L-82,-85L-82,-83L-82,-82L-82,-81L-81,-80L-81,-78L-81,-77L-80,-76L-80,-75L-80,-74L-80,-73L-81,-72L-81,-72L-82,-72L-83,-72L-85,-72L-87,-73L-88,-73L-91,-74L-93,-75L-95,-76L-98,-77L-101,-78L-103,-79L-106,-81L-109,-81L-111,-82L-113,-83L-115,-83L-117,-83L-118,-83L-119,-82L-119,-82L-119,-80L-119,-79L-118,-77L-116,-75L-114,-73L-111,-70L-108,-67L-104,-64L-100,-60L-96,-57L-91,-54L-87,-50L-82,-47L-77,-43L-73,-40L-68,-37L-64,-35L-61,-32L-58,-30L-55,-28L-53,-27L-52,-26L-52,-26L-53,-25L-54,-26L-56,-26L-59,-27L-63,-29L-68,-30L-74,-32L-80,-34L-87,-37L-94,-39L-102,-42L-110,-44L-119,-47L-127,-49L-135,-51L-143,-53L-151,-55L-158,-57L-164,-58L-170,-59L-175,-59L-179,-59L-181,-59L-183,-58L-184,-57L-183,-56L-181,-54L-178,-52L-173,-49L-168,-47L-161,-44L-154,-41L-146,-38L-137,-34L-127,-31L-117,-28L-107,-25L-96,-22L-86,-19L-76,-16L-67,-14L-58,-11L-49,-10L-42,-8L-36,-6L-31,-5L-27,-5L-25,-4L-24,-4L-24,-4L-26,-4L-29,-4L-34,-4L-40,-5L-47,-5L-55,-6L-64,-7L-75,-7L-86,-8L-97,-8L-109,-9L-121,-9L-132,-9L-144,-9L-155,-9L-166,-8L-176,-8L-185,-7L-192,-6L-199,-5L-204,-4L-208,-3L-210,-1L-211,0L-210,1L-208,3L-204,4L-199,5L-192,6L-185,7L-176,8L-166,8L-155,9L-144,9L-132,9L-121,9L-109,9L-97,8L-86,8L-75,7L-64,7L-55,6L-47,5L-40,5L-34,4L-29,4L-26,4L-24,4L-24,4L-25,4L-27,5L-31,5L-36,6L-42,8L-49,10L-58,11L-67,14L-76,16L-86,19L-96,22L-107,25L-117,28L-127,31L-137,34L-146,38L-154,41L-161,44L-168,47L-173,49L-178,52L-181,54L-183,56L-184,57L-183,58L-181,59L-179,59L-175,59L-170,59L-164,58L-158,57L-151,55L-143,53L-135,51L-127,49L-119,47L-110,44L-102,42L-94,39L-87,37L-80,34L-74,32L-68,30L-63,29L-59,27L-56,26L-54,26L-53,25L-52,26L-52,26L-53,27L-55,28L-58,30L-61,32L-64,35L-68,37L-73,40L-77,43L-82,47L-87,50L-91,54L-96,57L-100,60L-104,64L-108,67L-111,70L-114,73L-116,75L-118,77L-119,79L-119,80L-119,82L-119,82L-118,83L-117,83L-115,83L-113,83L-111,82L-109,81L-106,81L-103,79L-101,78L-98,77L-95,76L-93,75L-91,74L-88,73L-87,73L-85,72L-83,72L-82,72L-81,72L-81,72L-80,73L-80,74L-80,75L-80,76L-81,77L-81,78L-81,80L-82,81L-82,82L-82,83L-82,85L-82,85L-82,86L-81,87L-81,87L-80,87L-79,87L-77,87L-76,86L-74,85L-72,84L-70,83L-68,81L-65,79L-63,78L-61,76L-59,74L-57,72L-55,71L-53,69L-51,68L-50,68L-49,67L-49,67L-48,68L-48,69L-49,70L-49,72L-50,74L-52,77L-53,81L-55,85L-57,89L-59,93L-61,98L-64,104L-66,109L-68,114L-70,119L-72,125L-74,130L-75,134L-77,138L-77,142L-78,145L-78,148L-78,149L-77,150L-76,150L-74,150L-72,148L-70,146L-67,142L-64,138L-61,133L-57,128L-54,121L-50,115L-46,108L-42,100L-38,93L-34,85L-31,77L-27,70L-24,63L-21,57L-19,51L-17,46L-15,42L-13,38L-12,36L-12,35L-11,35L-11,36L-12,38L-13,42L-14,47L-15,52L-17,59L-18,67L-20,75L-22,84L-24,94L-26,104L-28,115L-29,125L-31,135L-32,145L-33,155L-34,164L-35,172L-35,180L-35,186L-35,191L-34,195L-33,198L-32,199L-31,199L-29,197L-28,194L-26,190L-24,184L-22,178L-20,170L-18,161L-16,151L-14,140L-12,129L-10,118L-8,106L-7,95L-5,84L-4,73L-3,62L-2,53L-2,44L-1,37L-1,30L0,25L0,22L0,19L0,19L0,19L0,22L0,25L1,30L1,37L2,44L2,53L3,62L4,73L5,84L7,95L8,106L10,118L12,129L14,140L16,151L18,161L20,170L22,178L24,184L26,190L28,194L29,197L31,199L32,199L33,198L34,195L35,191L35,186L35,180L35,172L34,164L33,155L32,145L31,135L29,125L28,115L26,104L24,94L22,84L20,75L18,67L17,59L15,52L14,47L13,42L12,38L11,36L11,35L12,35L12,36L13,38L15,42L17,46L19,51L21,57L24,63L27,70L31,77L34,85L38,93L42,100L46,108L50,115L54,121L57,128L61,133L64,138L67,142L70,146L72,148L74,150L76,150L77,150L78,149L78,148L78,145L77,142L77,138L75,134L74,130L72,125L70,119L68,114L66,109L64,104L61,98L59,93L57,89L55,85L53,81L52,77L50,74L49,72L49,70L48,69L48,68L49,67L49,67L50,68L51,68L53,69L55,71L57,72L59,74L61,76L63,78L65,79L68,81L70,83L72,84L74,85L76,86L77,87L79,87L80,87L81,87L81,87L82,86L82,85L82,85L82,83L82,82L82,81L81,80L81,78L81,77L80,76L80,75L80,74L80,73L81,72L81,72L82,72L83,72L85,72L87,73L88,73L91,74L93,75L95,76L98,77L101,78L103,79L106,81L109,81L111,82L113,83L115,83L117,83L118,83L119,82L119,82L119,80L119,79L118,77L116,75L114,73L111,70L108,67L104,64L100,60L96,57L91,54L87,50L82,47L77,43L73,40L68,37L64,35L61,32L58,30L55,28L53,27L52,26L52,26L53,25L54,26L56,26L59,27L63,29L68,30L74,32L80,34L87,37L94,39L102,42L110,44L119,47L127,49L135,51L143,53L151,55L158,57L164,58L170,59L175,59L179,59L181,59L183,58L184,57L183,56L181,54L178,52L173,49L168,47L161,44L154,41L146,38L137,34L127,31L117,28L107,25L96,22L86,19L76,16L67,14L58,11L49,10L42,8L36,6L31,5L27,5L25,4L24,4L24,4L26,4L29,4L34,4L40,5L47,5L55,6L64,7L75,7L86,8L97,8L109,9L121,9L132,9L144,9L155,9L166,8L176,8L185,7L192,6L199,5L204,4L208,3L210,1" style="fill: none; stroke: red; stroke-width: 2;"></path>
    </g>
    <g transform="translate(288,282)">
     <path d="M211,0C210.3,-12.9,201.8,-41.4,183,-58S143.6,-81,117,-83S71,-77.6,50,-68S22,-44.8,12,-35S4.8,-19,0,-19S-2,-25.2,-12,-35S-29,-58.4,-50,-68S-90.4,-85,-117,-83S-164.2,-74.6,-183,-58S-211,-23.2,-211,0S-201.8,41.4,-183,58S-143.6,81,-117,83S-71,77.6,-50,68S-22,44.8,-12,35S-4.8,19,0,19S2,25.2,12,35S29,58.4,50,68S90.4,85,117,83S171.8,66.5,183,58" style="fill: none; stroke: blue; stroke-width: 1;"></path>
     <path d="M211.0,-8.0l5.3,16.0l-13.3,-10.0h16.0l-13.3,10.0zM183.0,-66.0l5.3,16.0l-13.3,-10.0h16.0l-13.3,10.0zM117.0,-91.0l5.3,16.0l-13.3,-10.0h16.0l-13.3,10.0zM50.0,-76.0l5.3,16.0l-13.3,-10.0h16.0l-13.3,10.0zM12.0,-43.0l5.3,16.0l-13.3,-10.0h16.0l-13.3,10.0zM0.0,-27.0l5.3,16.0l-13.3,-10.0h16.0l-13.3,10.0zM-12.0,-43.0l5.3,16.0l-13.3,-10.0h16.0l-13.3,10.0zM-50.0,-76.0l5.3,16.0l-13.3,-10.0h16.0l-13.3,10.0zM-117.0,-91.0l5.3,16.0l-13.3,-10.0h16.0l-13.3,10.0zM-183.0,-66.0l5.3,16.0l-13.3,-10.0h16.0l-13.3,10.0zM-211.0,-8.0l5.3,16.0l-13.3,-10.0h16.0l-13.3,10.0zM-183.0,50.0l5.3,16.0l-13.3,-10.0h16.0l-13.3,10.0zM-117.0,75.0l5.3,16.0l-13.3,-10.0h16.0l-13.3,10.0zM-50.0,60.0l5.3,16.0l-13.3,-10.0h16.0l-13.3,10.0zM-12.0,27.0l5.3,16.0l-13.3,-10.0h16.0l-13.3,10.0zM0.0,11.0l5.3,16.0l-13.3,-10.0h16.0l-13.3,10.0zM12.0,27.0l5.3,16.0l-13.3,-10.0h16.0l-13.3,10.0zM50.0,60.0l5.3,16.0l-13.3,-10.0h16.0l-13.3,10.0zM117.0,75.0l5.3,16.0l-13.3,-10.0h16.0l-13.3,10.0zM183.0,50.0l5.3,16.0l-13.3,-10.0h16.0l-13.3,10.0z" style="stroke: blue; fill: blue;"></path>
    </g>
    <g transform="translate(240,3)" font-family="Arial" font-size="29" space="preserve">
     <text fill="black" text-anchor="middle" dy=".4em" transform="translate(48,18)">
      Graph
     </text>
    </g>
   </g>
  </svg>
  <svg viewBox="0 0 575 563" preserveAspectRatio="none" x="611" y="5" width="575" height="563">
   <path d="M0,0H575V563H0Z" style="fill: white;"></path>
   <g>
    <g transform="translate(288,282)" font-family="Arial" font-size="18" space="preserve" font-weight="bold">
     <ellipse cx="0" cy="0" rx="19" ry="18" style="fill: none; stroke: black; stroke-width: 1;"></ellipse>
     <text fill="black" text-anchor="middle" dy=".8em" transform="translate(19,4)">
      0.6
     </text>
     <ellipse cx="0" cy="0" rx="25" ry="25" style="fill: none; stroke: black; stroke-width: 1; stroke-dasharray: 3,3;"></ellipse>
     <ellipse cx="0" cy="0" rx="32" ry="31" style="fill: none; stroke: black; stroke-width: 1; stroke-dasharray: 3,3;"></ellipse>
     <ellipse cx="0" cy="0" rx="38" ry="37" style="fill: none; stroke: black; stroke-width: 1; stroke-dasharray: 3,3;"></ellipse>
     <ellipse cx="0" cy="0" rx="44" ry="43" style="fill: none; stroke: black; stroke-width: 1; stroke-dasharray: 3,3;"></ellipse>
     <ellipse cx="0" cy="0" rx="51" ry="50" style="fill: none; stroke: black; stroke-width: 1;"></ellipse>
     <text fill="black" text-anchor="middle" dy=".8em" transform="translate(51,4)">
      0.8
     </text>
     <ellipse cx="0" cy="0" rx="57" ry="56" style="fill: none; stroke: black; stroke-width: 1; stroke-dasharray: 3,3;"></ellipse>
     <ellipse cx="0" cy="0" rx="64" ry="62" style="fill: none; stroke: black; stroke-width: 1; stroke-dasharray: 3,3;"></ellipse>
     <ellipse cx="0" cy="0" rx="70" ry="69" style="fill: none; stroke: black; stroke-width: 1; stroke-dasharray: 3,3;"></ellipse>
     <ellipse cx="0" cy="0" rx="77" ry="75" style="fill: none; stroke: black; stroke-width: 1; stroke-dasharray: 3,3;"></ellipse>
     <ellipse cx="0" cy="0" rx="83" ry="81" style="fill: none; stroke: black; stroke-width: 1;"></ellipse>
     <text fill="black" text-anchor="middle" dy=".8em" transform="translate(83,4)">
      1
     </text>
     <ellipse cx="0" cy="0" rx="89" ry="87" style="fill: none; stroke: black; stroke-width: 1; stroke-dasharray: 3,3;"></ellipse>
     <ellipse cx="0" cy="0" rx="96" ry="94" style="fill: none; stroke: black; stroke-width: 1; stroke-dasharray: 3,3;"></ellipse>
     <ellipse cx="0" cy="0" rx="102" ry="100" style="fill: none; stroke: black; stroke-width: 1; stroke-dasharray: 3,3;"></ellipse>
     <ellipse cx="0" cy="0" rx="109" ry="106" style="fill: none; stroke: black; stroke-width: 1; stroke-dasharray: 3,3;"></ellipse>
     <ellipse cx="0" cy="0" rx="115" ry="113" style="fill: none; stroke: black; stroke-width: 1;"></ellipse>
     <text fill="black" text-anchor="middle" dy=".8em" transform="translate(115,4)">
      1.2
     </text>
     <ellipse cx="0" cy="0" rx="121" ry="119" style="fill: none; stroke: black; stroke-width: 1; stroke-dasharray: 3,3;"></ellipse>
     <ellipse cx="0" cy="0" rx="128" ry="125" style="fill: none; stroke: black; stroke-width: 1; stroke-dasharray: 3,3;"></ellipse>
     <ellipse cx="0" cy="0" rx="134" ry="131" style="fill: none; stroke: black; stroke-width: 1; stroke-dasharray: 3,3;"></ellipse>
     <ellipse cx="0" cy="0" rx="141" ry="138" style="fill: none; stroke: black; stroke-width: 1; stroke-dasharray: 3,3;"></ellipse>
     <ellipse cx="0" cy="0" rx="147" ry="144" style="fill: none; stroke: black; stroke-width: 1;"></ellipse>
     <text fill="black" text-anchor="middle" dy=".8em" transform="translate(147,4)">
      1.4
     </text>
     <ellipse cx="0" cy="0" rx="153" ry="150" style="fill: none; stroke: black; stroke-width: 1; stroke-dasharray: 3,3;"></ellipse>
     <ellipse cx="0" cy="0" rx="160" ry="156" style="fill: none; stroke: black; stroke-width: 1; stroke-dasharray: 3,3;"></ellipse>
     <ellipse cx="0" cy="0" rx="166" ry="163" style="fill: none; stroke: black; stroke-width: 1; stroke-dasharray: 3,3;"></ellipse>
     <ellipse cx="0" cy="0" rx="173" ry="169" style="fill: none; stroke: black; stroke-width: 1; stroke-dasharray: 3,3;"></ellipse>
     <ellipse cx="0" cy="0" rx="179" ry="175" style="fill: none; stroke: black; stroke-width: 1;"></ellipse>
     <text fill="black" text-anchor="middle" dy=".8em" transform="translate(179,4)">
      1.6
     </text>
     <ellipse cx="0" cy="0" rx="186" ry="182" style="fill: none; stroke: black; stroke-width: 1; stroke-dasharray: 3,3;"></ellipse>
     <ellipse cx="0" cy="0" rx="192" ry="188" style="fill: none; stroke: black; stroke-width: 1; stroke-dasharray: 3,3;"></ellipse>
     <ellipse cx="0" cy="0" rx="198" ry="194" style="fill: none; stroke: black; stroke-width: 1; stroke-dasharray: 3,3;"></ellipse>
     <ellipse cx="0" cy="0" rx="205" ry="200" style="fill: none; stroke: black; stroke-width: 1; stroke-dasharray: 3,3;"></ellipse>
     <ellipse cx="0" cy="0" rx="211" ry="207" style="fill: none; stroke: black; stroke-width: 1;"></ellipse>
     <text fill="black" text-anchor="middle" dy=".8em" transform="translate(211,4)">
      1.8
     </text>
     <ellipse cx="0" cy="0" rx="218" ry="213" style="fill: none; stroke: black; stroke-width: 1; stroke-dasharray: 3,3;"></ellipse>
     <ellipse cx="0" cy="0" rx="224" ry="219" style="fill: none; stroke: black; stroke-width: 1; stroke-dasharray: 3,3;"></ellipse>
     <ellipse cx="0" cy="0" rx="230" ry="225" style="fill: none; stroke: black; stroke-width: 1;"></ellipse>
     <path d="M0,0L230,0" style="stroke: black; stroke-width: 1;"></path>
     <text fill="black" text-anchor="start" dy=".4em" transform="translate(248)">
      0
     </text>
     <path d="M0,0L163,-159" style="stroke: black; stroke-width: 1;"></path>
     <g transform="translate(175,-172)">
      <text fill="black" font-size="18" transform="translate(0,-11)">
       π
      </text>
      <path style="stroke: black; stroke-width: 2; fill: none;" d="M0,-6h10"></path>
      <text fill="black" font-size="18" transform="translate(1,11)">
       4
      </text>
     </g>
     <path d="M0,0L0,-225" style="stroke: black; stroke-width: 1;"></path>
     <g transform="translate(-6,-243)">
      <text fill="black" font-size="18" transform="translate(0,-11)">
       π
      </text>
      <path style="stroke: black; stroke-width: 2; fill: none;" d="M0,-6h10"></path>
      <text fill="black" font-size="18" transform="translate(1,11)">
       2
      </text>
     </g>
     <path d="M0,0L-163,-159" style="stroke: black; stroke-width: 1;"></path>
     <g transform="translate(-197,-172)">
      <text fill="black" font-size="18" transform="translate(0,-11)">
       3π
      </text>
      <path style="stroke: black; stroke-width: 2; fill: none;" d="M0,-6h20"></path>
      <text fill="black" font-size="18" transform="translate(6,11)">
       4
      </text>
     </g>
     <path d="M0,0L-230,0" style="stroke: black; stroke-width: 1;"></path>
     <g transform="translate(-260,6)">
      <text fill="black" font-size="18">
       π
      </text>
     </g>
     <path d="M0,0L-163,159" style="stroke: black; stroke-width: 1;"></path>
     <g transform="translate(-197,200)">
      <text fill="black" font-size="18" transform="translate(0,-11)">
       5π
      </text>
      <path style="stroke: black; stroke-width: 2; fill: none;" d="M0,-6h20"></path>
      <text fill="black" font-size="18" transform="translate(6,11)">
       4
      </text>
     </g>
     <path d="M0,0L0,225" style="stroke: black; stroke-width: 1;"></path>
     <g transform="translate(-11,271)">
      <text fill="black" font-size="18" transform="translate(0,-11)">
       3π
      </text>
      <path style="stroke: black; stroke-width: 2; fill: none;" d="M0,-6h20"></path>
      <text fill="black" font-size="18" transform="translate(6,11)">
       2
      </text>
     </g>
     <path d="M0,0L163,159" style="stroke: black; stroke-width: 1;"></path>
     <g transform="translate(175,200)">
      <text fill="black" font-size="18" transform="translate(0,-11)">
       7π
      </text>
      <path style="stroke: black; stroke-width: 2; fill: none;" d="M0,-6h20"></path>
      <text fill="black" font-size="18" transform="translate(6,11)">
       4
      </text>
     </g>
     <path d="M0,0L227,-35" style="stroke: black; stroke-width: 1; stroke-dasharray: 3,3;"></path>
     <path d="M0,0L219,-70" style="stroke: black; stroke-width: 1; stroke-dasharray: 3,3;"></path>
     <path d="M0,0L205,-102" style="stroke: black; stroke-width: 1; stroke-dasharray: 3,3;"></path>
     <path d="M0,0L186,-132" style="stroke: black; stroke-width: 1; stroke-dasharray: 3,3;"></path>
     <path d="M0,0L135,-182" style="stroke: black; stroke-width: 1; stroke-dasharray: 3,3;"></path>
     <path d="M0,0L104,-200" style="stroke: black; stroke-width: 1; stroke-dasharray: 3,3;"></path>
     <path d="M0,0L71,-214" style="stroke: black; stroke-width: 1; stroke-dasharray: 3,3;"></path>
     <path d="M0,0L36,-222" style="stroke: black; stroke-width: 1; stroke-dasharray: 3,3;"></path>
     <path d="M0,0L-36,-222" style="stroke: black; stroke-width: 1; stroke-dasharray: 3,3;"></path>
     <path d="M0,0L-71,-214" style="stroke: black; stroke-width: 1; stroke-dasharray: 3,3;"></path>
     <path d="M0,0L-104,-200" style="stroke: black; stroke-width: 1; stroke-dasharray: 3,3;"></path>
     <path d="M0,0L-135,-182" style="stroke: black; stroke-width: 1; stroke-dasharray: 3,3;"></path>
     <path d="M0,0L-186,-132" style="stroke: black; stroke-width: 1; stroke-dasharray: 3,3;"></path>
     <path d="M0,0L-205,-102" style="stroke: black; stroke-width: 1; stroke-dasharray: 3,3;"></path>
     <path d="M0,0L-219,-70" style="stroke: black; stroke-width: 1; stroke-dasharray: 3,3;"></path>
     <path d="M0,0L-227,-35" style="stroke: black; stroke-width: 1; stroke-dasharray: 3,3;"></path>
     <path d="M0,0L-227,35" style="stroke: black; stroke-width: 1; stroke-dasharray: 3,3;"></path>
     <path d="M0,0L-219,70" style="stroke: black; stroke-width: 1; stroke-dasharray: 3,3;"></path>
     <path d="M0,0L-205,102" style="stroke: black; stroke-width: 1; stroke-dasharray: 3,3;"></path>
     <path d="M0,0L-186,132" style="stroke: black; stroke-width: 1; stroke-dasharray: 3,3;"></path>
     <path d="M0,0L-135,182" style="stroke: black; stroke-width: 1; stroke-dasharray: 3,3;"></path>
     <path d="M0,0L-104,200" style="stroke: black; stroke-width: 1; stroke-dasharray: 3,3;"></path>
     <path d="M0,0L-71,214" style="stroke: black; stroke-width: 1; stroke-dasharray: 3,3;"></path>
     <path d="M0,0L-36,222" style="stroke: black; stroke-width: 1; stroke-dasharray: 3,3;"></path>
     <path d="M0,0L36,222" style="stroke: black; stroke-width: 1; stroke-dasharray: 3,3;"></path>
     <path d="M0,0L71,214" style="stroke: black; stroke-width: 1; stroke-dasharray: 3,3;"></path>
     <path d="M0,0L104,200" style="stroke: black; stroke-width: 1; stroke-dasharray: 3,3;"></path>
     <path d="M0,0L135,182" style="stroke: black; stroke-width: 1; stroke-dasharray: 3,3;"></path>
     <path d="M0,0L186,132" style="stroke: black; stroke-width: 1; stroke-dasharray: 3,3;"></path>
     <path d="M0,0L205,102" style="stroke: black; stroke-width: 1; stroke-dasharray: 3,3;"></path>
     <path d="M0,0L219,70" style="stroke: black; stroke-width: 1; stroke-dasharray: 3,3;"></path>
     <path d="M0,0L227,35" style="stroke: black; stroke-width: 1; stroke-dasharray: 3,3;"></path>
    </g>
    <g transform="translate(288,282)">
     <path d="M83,0L147,0M110,-33A115,113,0,0,1,110,33M94,-19L157,-32M112,-61A128,126,0,0,1,128,11M100,-43L158,-68M107,-90A141,138,0,0,1,140,-17M98,-69L150,-105M95,-117A153,149,0,0,1,144,-50M88,-94L131,-140M74,-142A163,159,0,0,1,138,-85M70,-117L103,-171M48,-160A171,167,0,0,1,120,-118M46,-133L67,-193M17,-171A176,172,0,0,1,93,-146M17,-142L25,-205M-16,-174A179,175,0,0,1,58,-165M-13,-143L-19,-205M-49,-168A179,175,0,0,1,18,-174M-42,-135L-61,-195M-79,-154A176,172,0,0,1,-22,-171M-67,-119L-98,-174M-104,-133A171,167,0,0,1,-59,-157M-85,-97L-127,-144M-121,-106A163,159,0,0,1,-89,-133M-96,-72L-147,-110M-131,-76A153,149,0,0,1,-109,-104M-98,-46L-156,-73M-133,-46A141,138,0,0,1,-120,-73M-94,-22L-156,-37M-127,-17A128,126,0,0,1,-121,-42M-83,-3L-147,-5M-115,8A115,113,0,0,1,-114,-15M-69,12L-132,23M-98,27A102,99,0,0,1,-101,7M-53,21L-112,44M-78,41A89,87,0,0,1,-86,24M-38,25L-91,60M-59,49A77,76,0,0,1,-69,34M-25,25L-69,70M-40,53A67,66,0,0,1,-53,41M-15,23L-49,76M-24,53A59,58,0,0,1,-39,44M-8,20L-30,79M-10,52A54,53,0,0,1,-27,46M-3,19L-13,81M2,50A51,50,0,0,1,-17,47M1,19L5,81M14,48A51,50,0,0,1,-8,50M6,21L22,81M26,47A54,53,0,0,1,2,53M12,24L42,80M39,44A59,58,0,0,1,13,57M22,27L62,76M55,39A67,66,0,0,1,27,60M35,28L85,68M71,30A77,76,0,0,1,44,62M50,26L107,54M87,16A89,87,0,0,1,64,60M67,18L129,35M102,-3A102,99,0,0,1,86,54" style="fill: none; stroke: magenta; stroke-width: 2;"></path>
     <path d="M115,-6l-6,12h12zM126,-32l-6,12h12zM129,-62l-6,12h12zM124,-93l-6,12h12zM110,-123l-6,12h12zM87,-150l-6,12h12zM56,-169l-6,12h12zM21,-180l-6,12h12zM-16,-180l-6,12h12zM-51,-171l-6,12h12zM-82,-152l-6,12h12zM-106,-127l-6,12h12zM-121,-97l-6,12h12zM-127,-66l-6,12h12zM-125,-36l-6,12h12zM-115,-10l-6,12h12zM-100,11l-6,12h12zM-82,27l-6,12h12zM-64,36l-6,12h12zM-47,41l-6,12h12zM-32,43l-6,12h12zM-19,43l-6,12h12zM-8,44l-6,12h12zM3,44l-6,12h12zM14,45l-6,12h12zM27,46l-6,12h12zM42,45l-6,12h12zM60,42l-6,12h12zM79,34l-6,12h12zM98,21l-6,12h12z" style="stroke: yellow; fill: yellow;"></path>
    </g>
    <g transform="translate(240,3)" font-family="Arial" font-size="29" space="preserve">
     <text fill="black" text-anchor="middle" dy=".4em" transform="translate(48,18)">
      Graph
     </text>
    </g>
   </g>
  </svg>
 </g>
</svg>