<svg viewBox="0 0 1200 800" preserveAspectRatio="none" xmlns="http://www.w3.org/2000/svg" width="1200" height="800"><defs><pattern id="pat_3001_2" patternUnits="userSpaceOnUse" width="2" height="2"><rect x="0" y="0" width="1" height="1" style="fill: red;"></rect><rect x="1" y="1" width="1" height="1" style="fill: red;"></rect></pattern></defs><title>ROOT canvas</title><rect x="0" y="0" width="1200" height="800" style="fill: none;"></rect><g><g transform="translate(120,80)"><title></title><rect x="0" y="0" width="960" height="640" style="fill: white; stroke: black; stroke-width: 1;"></rect><svg x="0" y="0" overflow="hidden" width="960" height="640" viewBox="0 0 960 640"><g objname="Graph" objtype="TGraphAsymmErrors"><g transform="translate(99,490)"><rect x="-19" y="-48" width="114" height="145" style="fill: url(#pat_3001_2);"></rect></g><g transform="translate(290,296)"><rect x="-38" y="-97" width="114" height="145" style="fill: url(#pat_3001_2);"></rect></g><g transform="translate(480,102)"><rect x="-57" y="-48" width="114" height="145" style="fill: url(#pat_3001_2);"></rect></g><g transform="translate(670,393)"><rect x="-76" y="-97" width="114" height="145" style="fill: url(#pat_3001_2);"></rect></g><g transform="translate(861,199)"><rect x="-95" y="-48" width="114" height="145" style="fill: url(#pat_3001_2);"></rect></g></g></svg><g><g transform="translate(0,640)"><path d="M23,-12v12m38,-12v12m38,-24v24m38,-12v12m38,-12v12m38,-12v12m38,-12v12m39,-24v24m38,-12v12m38,-12v12m38,-12v12m38,-12v12m38,-24v24m38,-12v12m38,-12v12m38,-12v12m38,-12v12m38,-24v24m39,-12v12m38,-12v12m38,-12v12m38,-12v12m38,-24v24m38,-12v12m38,-12v12" style="stroke: black; stroke-width: 1;"></path><g font-family="Arial" font-size="28" space="preserve"><text fill="black" x="99" y="9" dy=".7em" style="text-anchor: middle;">0</text><text fill="black" x="290" y="9" dy=".7em" style="text-anchor: middle;">1</text><text fill="black" x="480" y="9" dy=".7em" style="text-anchor: middle;">2</text><text fill="black" x="670" y="9" dy=".7em" style="text-anchor: middle;">3</text><text fill="black" x="861" y="9" dy=".7em" style="text-anchor: middle;">4</text></g></g><g><path d="M18,625h-18m18,-19h-18m36,-19h-36m18,-20h-18m18,-19h-18m18,-20h-18m18,-19h-18m36,-19h-36m18,-20h-18m18,-19h-18m18,-19h-18m18,-20h-18m36,-19h-36m18,-20h-18m18,-19h-18m18,-19h-18m18,-20h-18m36,-19h-36m18,-20h-18m18,-19h-18m18,-19h-18m18,-20h-18m36,-19h-36m18,-20h-18m18,-19h-18m18,-19h-18m18,-20h-18m36,-19h-36m18,-20h-18m18,-19h-18m18,-19h-18m18,-20h-18m36,-19h-36" style="stroke: black; stroke-width: 1;"></path><g font-family="Arial" font-size="28" space="preserve"><text fill="black" x="-9" y="587" style="text-anchor: end; dominant-baseline: middle;">-1</text><text fill="black" x="-9" y="490" style="text-anchor: end; dominant-baseline: middle;">0</text><text fill="black" x="-9" y="393" style="text-anchor: end; dominant-baseline: middle;">1</text><text fill="black" x="-9" y="296" style="text-anchor: end; dominant-baseline: middle;">2</text><text fill="black" x="-9" y="199" style="text-anchor: end; dominant-baseline: middle;">3</text><text fill="black" x="-9" y="102" style="text-anchor: end; dominant-baseline: middle;">4</text><text fill="black" x="-9" y="5" style="text-anchor: end; dominant-baseline: middle;">5</text></g></g></g></g><g objname="title" objtype="TPaveText" transform="translate(336,8)" font-family="Arial" font-size="33" space="preserve"><path d="M0,0h528v40h-528z" style="fill: none;"></path><text text-anchor="middle" x="0" y="0" fill="black" transform="translate(264,21)" dominant-baseline="middle" opacity="1">Graph</text></g></g></svg>