<svg viewBox="0 0 1200 800" preserveAspectRatio="none" xmlns="http://www.w3.org/2000/svg" width="1200" height="800"><defs class="canvas_defs"><pattern id="pat_3001_2" class="pat_3001_2" patternUnits="userSpaceOnUse" width="2" height="2"><rect x="0" y="0" width="1" height="1" style="fill: red;"></rect><rect x="1" y="1" width="1" height="1" style="fill: red;"></rect></pattern></defs><title>ROOT canvas</title><rect class="canvas_fillrect" x="0" y="0" width="1200" height="800" style="fill: none;"></rect><g class="root_frame" x="120" y="80" width="960" height="640" transform="translate(120,80)"><title></title><rect x="0" y="0" width="960" height="640" style="fill: white; stroke: black; stroke-width: 1;"></rect><g class="grid_layer"></g><svg class="main_layer" x="0" y="0" overflow="hidden" width="960" height="640" viewBox="0 0 960 640"><g objname="Graph" objtype="TGraphAsymmErrors"><g class="grpoint" transform="translate(99,490)"><path style="stroke: black; stroke-width: 1; fill: none;" d="M0,0L-19,0m0,3v-6M0,0L95,0m0,3v-6M0,0L0,97m3,0h-6M0,0L0,-48m3,0h-6"></path></g><g class="grpoint" transform="translate(290,296)"><path style="stroke: black; stroke-width: 1; fill: none;" d="M0,0L-38,0m0,3v-6M0,0L76,0m0,3v-6M0,0L0,48m3,0h-6M0,0L0,-97m3,0h-6"></path></g><g class="grpoint" transform="translate(480,102)"><path style="stroke: black; stroke-width: 1; fill: none;" d="M0,0L-57,0m0,3v-6M0,0L57,0m0,3v-6M0,0L0,97m3,0h-6M0,0L0,-48m3,0h-6"></path></g><g class="grpoint" transform="translate(670,393)"><path style="stroke: black; stroke-width: 1; fill: none;" d="M0,0L-76,0m0,3v-6M0,0L38,0m0,3v-6M0,0L0,48m3,0h-6M0,0L0,-97m3,0h-6"></path></g><g class="grpoint" transform="translate(861,199)"><path style="stroke: black; stroke-width: 1; fill: none;" d="M0,0L-95,0m0,3v-6M0,0L19,0m0,3v-6M0,0L0,97m3,0h-6M0,0L0,-48m3,0h-6"></path></g></g></svg><g class="axis_layer"><g class="xaxis_container" transform="translate(0,640)"><path d="M23,-10v10m38,-10v10m38,-19v19m38,-10v10m38,-10v10m38,-10v10m38,-10v10m39,-19v19m38,-10v10m38,-10v10m38,-10v10m38,-10v10m38,-19v19m38,-10v10m38,-10v10m38,-10v10m38,-10v10m38,-19v19m39,-10v10m38,-10v10m38,-10v10m38,-10v10m38,-19v19m38,-10v10m38,-10v10" style="stroke: black; stroke-width: 1;"></path><g class="axis_labels" font-family="Arial" font-size="22" space="preserve"><text fill="black" x="99" y="8" dy=".7em" style="text-anchor: middle;">0</text><text fill="black" x="290" y="8" dy=".7em" style="text-anchor: middle;">1</text><text fill="black" x="480" y="8" dy=".7em" style="text-anchor: middle;">2</text><text fill="black" x="670" y="8" dy=".7em" style="text-anchor: middle;">3</text><text fill="black" x="861" y="8" dy=".7em" style="text-anchor: middle;">4</text></g></g><g class="yaxis_container"><path d="M15,625h-15m15,-19h-15m29,-19h-29m15,-20h-15m15,-19h-15m15,-20h-15m15,-19h-15m29,-19h-29m15,-20h-15m15,-19h-15m15,-19h-15m15,-20h-15m29,-19h-29m15,-20h-15m15,-19h-15m15,-19h-15m15,-20h-15m29,-19h-29m15,-20h-15m15,-19h-15m15,-19h-15m15,-20h-15m29,-19h-29m15,-20h-15m15,-19h-15m15,-19h-15m15,-20h-15m29,-19h-29m15,-20h-15m15,-19h-15m15,-19h-15m15,-20h-15m29,-19h-29" style="stroke: black; stroke-width: 1;"></path><g class="axis_labels" font-family="Arial" font-size="22" space="preserve"><text fill="black" x="-8" y="587" style="text-anchor: end; dominant-baseline: middle;">-1</text><text fill="black" x="-8" y="490" style="text-anchor: end; dominant-baseline: middle;">0</text><text fill="black" x="-8" y="393" style="text-anchor: end; dominant-baseline: middle;">1</text><text fill="black" x="-8" y="296" style="text-anchor: end; dominant-baseline: middle;">2</text><text fill="black" x="-8" y="199" style="text-anchor: end; dominant-baseline: middle;">3</text><text fill="black" x="-8" y="102" style="text-anchor: end; dominant-baseline: middle;">4</text><text fill="black" x="-8" y="5" style="text-anchor: end; dominant-baseline: middle;">5</text></g></g></g><g class="upper_layer"></g></g><g class="subpads_layer"></g><g class="special_layer"></g><g class="text_layer"><g objname="title" objtype="TPaveText" x="336" y="8" width="528" height="40" transform="translate(336,8)" font-family="Arial" font-size="33" space="preserve"><rect x="0" y="0" width="528" height="40" style="fill: none;"></rect><text text-anchor="middle" x="0" y="0" fill="black" transform="translate(264.0,21.0)" dominant-baseline="middle" class="" opacity="1">Graph</text></g></g><g class="stat_layer"></g><g class="btns_layer" transform="translate(2,780)"></g></svg>