<svg xmlns="http://www.w3.org/2000/svg" viewBox="0 0 1200 800" preserveAspectRatio="none" width="1200" height="800">
 <path d="M0,0H1200V800H0Z" style="fill: white;"></path>
 <g>
  <g transform="translate(120,80)">
   <path d="M0,0H960V640H0Z" style="fill: white; stroke: black; stroke-width: 1;"></path>
   <g>
    <path d="M0,0v640M120,0v640M240,0v640M360,0v640M480,0v640M600,0v640M720,0v640M840,0v640M960,0v640" style="stroke: black; stroke-width: 1; stroke-dasharray: 1, 2;"></path>
    <path d="M0,640h960M0,569h960M0,499h960M0,428h960M0,357h960M0,287h960M0,216h960M0,146h960M0,75h960M0,4h960" style="stroke: black; stroke-width: 1; stroke-dasharray: 1, 2;"></path>
   </g>
  </g>
  <g transform="translate(936,52)" font-family="Arial" font-size="27" xml:space="preserve" fill="black"><path d="M0,0H240V128H0Z" style="fill: white; stroke: black; stroke-width: 1;"></path><text text-anchor="middle" dominant-baseline="middle" transform="translate(120,16)">hpx</text><text text-anchor="start" dominant-baseline="middle" transform="translate(12,48)">Entries</text><text text-anchor="end" dominant-baseline="middle" transform="translate(228,48)">25000</text><text text-anchor="start" dominant-baseline="middle" transform="translate(12,80)">Mean</text><text text-anchor="end" dominant-baseline="middle" transform="translate(228,80)">0.003163</text><text text-anchor="start" dominant-baseline="middle" transform="translate(12,112)">Std Dev</text><text text-anchor="end" dominant-baseline="middle" transform="translate(228,112)">1.004</text><path d="M0,32h240" style="stroke: black; stroke-width: 1;"></path></g>
 </g>
</svg>