<svg xmlns="http://www.w3.org/2000/svg" viewBox="0 0 596 372" preserveAspectRatio="none" width="596" height="372">
 <path d="M0,0H596V372H0Z" style="fill: white;"></path>
 <g>
  <g transform="translate(60,37)">
   <path d="M0,0H477V298H0Z" style="fill: white; stroke: black; stroke-width: 1;"></path>
   <svg x="0" y="0" overflow="hidden" width="477" height="298" viewBox="0 0 477 298">
    <g>
     <path d="M6,127h24v171h-24zM66,247h24v51h-24zM125,176h24v122h-24zM185,146h24v152h-24zM245,147h24v151h-24zM304,199h24v99h-24zM364,187h24v111h-24zM423,220h24v78h-24z" style="fill: blue;"></path>
    </g>
    <g>
     <path d="M30,119h24v179h-24zM90,239h24v59h-24zM149,168h24v130h-24zM209,138h24v160h-24zM269,139h24v159h-24zM328,191h24v107h-24zM388,179h24v119h-24zM447,212h24v86h-24z" style="fill: #7d99d1;"></path>
    </g>
   </svg>
   <g>
    <g transform="translate(0,298)">
     <path d="M0,0h477M0,-9V0M60,-9V0M119,-9V0M179,-9V0M239,-9V0M298,-9V0M358,-9V0M417,-9V0M477,-5V0" style="stroke: black; stroke-width: 1;"></path>
     <g font-family="Arial" font-size="9" space="preserve" fill="black" text-anchor="middle">
      <text dy=".8em" transform="translate(30,3)">
       8
      </text>
      <text dy=".8em" transform="translate(90,3)">
       32
      </text>
      <text dy=".8em" transform="translate(149,3)">
       128
      </text>
      <text dy=".8em" transform="translate(209,3)">
       512
      </text>
      <text dy=".8em" transform="translate(269,3)">
       2048
      </text>
      <text dy=".8em" transform="translate(328,3)">
       8192
      </text>
      <text dy=".8em" transform="translate(388,3)">
       32768
      </text>
      <text dy=".8em" transform="translate(447,3)">
       131072
      </text>
     </g>
    </g>
    <g>
     <path d="M0,0v298M14,298H0M7,292H0M7,286H0M7,280H0M7,274H0M14,268H0M7,262H0M7,256H0M7,250H0M7,244H0M14,238H0M7,232H0M7,226H0M7,221H0M7,215H0M14,209H0M7,203H0M7,197H0M7,191H0M7,185H0M14,179H0M7,173H0M7,167H0M7,161H0M7,155H0M14,149H0M7,143H0M7,137H0M7,131H0M7,125H0M14,119H0M7,113H0M7,107H0M7,101H0M7,95H0M14,89H0M7,83H0M7,77H0M7,72H0M7,66H0M14,60H0M7,54H0M7,48H0M7,42H0M7,36H0M14,30H0M7,24H0M7,18H0M7,12H0M7,6H0M14,0H0" style="stroke: black; stroke-width: 1;"></path>
     <g font-family="Arial" font-size="13" space="preserve" fill="black" text-anchor="end">
      <text dy=".4em" transform="translate(-3,298)">
       -5
      </text>
      <text dy=".4em" transform="translate(-3,268)">
       -4
      </text>
      <text dy=".4em" transform="translate(-3,238)">
       -3
      </text>
      <text dy=".4em" transform="translate(-3,209)">
       -2
      </text>
      <text dy=".4em" transform="translate(-3,179)">
       -1
      </text>
      <text dy=".4em" transform="translate(-3,149)">
       0
      </text>
      <text dy=".4em" transform="translate(-3,119)">
       1
      </text>
      <text dy=".4em" transform="translate(-3,89)">
       2
      </text>
      <text dy=".4em" transform="translate(-3,60)">
       3
      </text>
      <text dy=".4em" transform="translate(-3,30)">
       4
      </text>
      <text dy=".4em" transform="translate(-3)">
       5
      </text>
     </g>
    </g>
    <path d="M0,0v298M60,0v298M119,0v298M179,0v298M239,0v298M298,0v298M358,0v298M417,0v298M477,0v298" style="stroke: black; stroke-width: 1; stroke-dasharray: 1,2;"></path>
    <path d="M0,298h477M0,268h477M0,238h477M0,209h477M0,179h477M0,149h477M0,119h477M0,89h477M0,60h477M0,30h477M0,0h477" style="stroke: black; stroke-width: 1; stroke-dasharray: 1,2;"></path>
   </g>
  </g>
  <g transform="translate(211,2)" font-family="Arial" font-size="16" space="preserve">
   <text fill="black" text-anchor="middle" dy=".4em" transform="translate(87,12)">
    Option B example
   </text>
  </g>
 </g>
</svg>