<svg viewBox="0 0 1200 800" preserveAspectRatio="none" xmlns="http://www.w3.org/2000/svg" width="1200" height="800"><title>ROOT canvas</title><rect x="0" y="0" width="1200" height="800" style="fill: white;"></rect><g><g pad="ce4_1" transform="translate(12,8)"><rect x="0" y="0" width="576" height="784" style="fill: white;"></rect><g transform="translate(58,78)"><title></title><rect x="0" y="0" width="461" height="627" style="fill: white; stroke: black; stroke-width: 1;"></rect><svg x="0" y="0" overflow="hidden" width="461" height="627" viewBox="0 0 461 627"><g objname="he4" objtype="TH1F"><path d="M26.00,402.00c8.43,-0.77,36.99,-1.53,51.00,-8.00s48.56,-67.04,51.00,-73.00s48.37,-169.82,51.00,-176.00s44.50,-56.48,52.00,-65.00s48.67,-57.85,51.00,-52.00s41.99,299.52,51.00,308.00s46.46,-204.48,51.00,-212.00s46.03,38.81,51.00,43.00L435.00,380.00c-5.16,-4.15,-45.95,-48.77,-51.00,-41.00s-41.35,206.42,-51.00,198.00s-48.38,-280.86,-51.00,-287.00s-42.89,39.43,-51.00,48.00s-49.05,54.52,-52.00,61.00s-48.27,157.75,-51.00,164.00s-36.40,63.09,-51.00,69.00s-42.55,6.37,-51.00,7.00Z" style="stroke: none; fill: red;"></path></g></svg><g><g transform="translate(0,627)"><path d="M0,-10v10m17,-10v10m17,-10v10m17,-19v19m17,-10v10m17,-10v10m17,-10v10m18,-10v10m17,-19v19m17,-10v10m17,-10v10m17,-10v10m17,-10v10m17,-19v19m17,-10v10m17,-10v10m17,-10v10m17,-10v10m17,-19v19m17,-10v10m17,-10v10m18,-10v10m17,-10v10m17,-19v19m17,-10v10m17,-10v10m17,-10v10" style="stroke: black; stroke-width: 1;"></path><g font-family="Arial" font-size="22" space="preserve"><text fill="black" x="51" y="8" dy=".7em" style="text-anchor: middle;">-0.60</text><text fill="black" x="137" y="8" dy=".7em" style="text-anchor: middle;">-0.50</text><text fill="black" x="222" y="8" dy=".7em" style="text-anchor: middle;">-0.40</text><text fill="black" x="307" y="8" dy=".7em" style="text-anchor: middle;">-0.30</text><text fill="black" x="393" y="8" dy=".7em" style="text-anchor: middle;">-0.20</text></g></g><g><path d="M7,621h-7m7,-15h-7m14,-14h-14m7,-14h-7m7,-14h-7m7,-14h-7m7,-14h-7m14,-15h-14m7,-14h-7m7,-14h-7m7,-14h-7m7,-14h-7m14,-14h-14m7,-15h-7m7,-14h-7m7,-14h-7m7,-14h-7m14,-14h-14m7,-14h-7m7,-15h-7m7,-14h-7m7,-14h-7m14,-14h-14m7,-14h-7m7,-14h-7m7,-14h-7m7,-15h-7m14,-14h-14m7,-14h-7m7,-14h-7m7,-14h-7m7,-14h-7m14,-15h-14m7,-14h-7m7,-14h-7m7,-14h-7m7,-14h-7m14,-14h-14m7,-15h-7m7,-14h-7m7,-14h-7m7,-14h-7m14,-14h-14m7,-14h-7" style="stroke: black; stroke-width: 1;"></path><g font-family="Arial" font-size="22" space="preserve"><text fill="black" x="-5" y="592" style="text-anchor: end; dominant-baseline: middle;">180</text><text fill="black" x="-5" y="521" style="text-anchor: end; dominant-baseline: middle;">190</text><text fill="black" x="-5" y="451" style="text-anchor: end; dominant-baseline: middle;">200</text><text fill="black" x="-5" y="380" style="text-anchor: end; dominant-baseline: middle;">210</text><text fill="black" x="-5" y="309" style="text-anchor: end; dominant-baseline: middle;">220</text><text fill="black" x="-5" y="238" style="text-anchor: end; dominant-baseline: middle;">230</text><text fill="black" x="-5" y="167" style="text-anchor: end; dominant-baseline: middle;">240</text><text fill="black" x="-5" y="97" style="text-anchor: end; dominant-baseline: middle;">250</text><text fill="black" x="-5" y="26" style="text-anchor: end; dominant-baseline: middle;">260</text></g></g></g></g><g><g objname="title" objtype="TPaveText" transform="translate(86,4)" font-family="Arial" font-size="29" space="preserve"><path d="M0,0h403v43h-403z" style="fill: none;"></path><text text-anchor="middle" x="0" y="0" fill="black" transform="translate(202,23)" dominant-baseline="middle" opacity="1">Distribution drawn with option E4</text></g></g><g><g objname="stats" objtype="TPaveStats" transform="translate(449,51)" font-family="Arial" font-size="16" space="preserve"><path d="M0,0h115v125h-115z" style="fill: white; stroke: black; stroke-width: 1;"></path><text text-anchor="middle" x="0" y="0" fill="black" transform="translate(58,17)" dominant-baseline="middle" opacity="1">he4</text><text text-anchor="start" x="0" y="0" fill="black" transform="translate(6,48)" dominant-baseline="middle" opacity="1">Entries </text><text text-anchor="end" x="0" y="0" fill="black" transform="translate(109,48)" dominant-baseline="middle" opacity="1"> 10000</text><text text-anchor="start" x="0" y="0" fill="black" transform="translate(6,79)" dominant-baseline="middle" opacity="1">Mean </text><text text-anchor="end" x="0" y="0" fill="black" transform="translate(109,79)" dominant-baseline="middle" opacity="1"> -0.3823</text><text text-anchor="start" x="0" y="0" fill="black" transform="translate(6,110)" dominant-baseline="middle" opacity="1">Std Dev </text><text text-anchor="end" x="0" y="0" fill="black" transform="translate(109,110)" dominant-baseline="middle" opacity="1"> 0.1521</text><path d="M0,31h115" style="stroke: black; stroke-width: 1;"></path></g></g></g><g pad="ce4_2" transform="translate(612,8)"><rect x="0" y="0" width="576" height="784" style="fill: white;"></rect><g transform="translate(58,78)"><title></title><rect x="0" y="0" width="461" height="627" style="fill: white; stroke: black; stroke-width: 1;"></rect><svg x="0" y="0" overflow="hidden" width="461" height="627" viewBox="0 0 461 627"><g objname="he4" objtype="TH1F"><path d="M26,402l51,-8l51,-73l51,-176l52,-65l51,-52l51,308l51,-212l51,43L435,380l-51,-41l-51,198l-51,-287l-51,48l-52,61l-51,164l-51,69l-51,7Z" style="stroke: none; fill: red;"></path></g></svg><g><g transform="translate(0,627)"><path d="M0,-10v10m17,-10v10m17,-10v10m17,-19v19m17,-10v10m17,-10v10m17,-10v10m18,-10v10m17,-19v19m17,-10v10m17,-10v10m17,-10v10m17,-10v10m17,-19v19m17,-10v10m17,-10v10m17,-10v10m17,-10v10m17,-19v19m17,-10v10m17,-10v10m18,-10v10m17,-10v10m17,-19v19m17,-10v10m17,-10v10m17,-10v10" style="stroke: black; stroke-width: 1;"></path><g font-family="Arial" font-size="22" space="preserve"><text fill="black" x="51" y="8" dy=".7em" style="text-anchor: middle;">-0.60</text><text fill="black" x="137" y="8" dy=".7em" style="text-anchor: middle;">-0.50</text><text fill="black" x="222" y="8" dy=".7em" style="text-anchor: middle;">-0.40</text><text fill="black" x="307" y="8" dy=".7em" style="text-anchor: middle;">-0.30</text><text fill="black" x="393" y="8" dy=".7em" style="text-anchor: middle;">-0.20</text></g></g><g><path d="M7,621h-7m7,-15h-7m14,-14h-14m7,-14h-7m7,-14h-7m7,-14h-7m7,-14h-7m14,-15h-14m7,-14h-7m7,-14h-7m7,-14h-7m7,-14h-7m14,-14h-14m7,-15h-7m7,-14h-7m7,-14h-7m7,-14h-7m14,-14h-14m7,-14h-7m7,-15h-7m7,-14h-7m7,-14h-7m14,-14h-14m7,-14h-7m7,-14h-7m7,-14h-7m7,-15h-7m14,-14h-14m7,-14h-7m7,-14h-7m7,-14h-7m7,-14h-7m14,-15h-14m7,-14h-7m7,-14h-7m7,-14h-7m7,-14h-7m14,-14h-14m7,-15h-7m7,-14h-7m7,-14h-7m7,-14h-7m14,-14h-14m7,-14h-7" style="stroke: black; stroke-width: 1;"></path><g font-family="Arial" font-size="22" space="preserve"><text fill="black" x="-5" y="592" style="text-anchor: end; dominant-baseline: middle;">180</text><text fill="black" x="-5" y="521" style="text-anchor: end; dominant-baseline: middle;">190</text><text fill="black" x="-5" y="451" style="text-anchor: end; dominant-baseline: middle;">200</text><text fill="black" x="-5" y="380" style="text-anchor: end; dominant-baseline: middle;">210</text><text fill="black" x="-5" y="309" style="text-anchor: end; dominant-baseline: middle;">220</text><text fill="black" x="-5" y="238" style="text-anchor: end; dominant-baseline: middle;">230</text><text fill="black" x="-5" y="167" style="text-anchor: end; dominant-baseline: middle;">240</text><text fill="black" x="-5" y="97" style="text-anchor: end; dominant-baseline: middle;">250</text><text fill="black" x="-5" y="26" style="text-anchor: end; dominant-baseline: middle;">260</text></g></g></g></g><g><g objname="title" objtype="TPaveText" transform="translate(86,4)" font-family="Arial" font-size="34" space="preserve"><path d="M0,0h403v43h-403z" style="fill: none;"></path><text text-anchor="middle" x="0" y="0" fill="black" transform="translate(202,23)" dominant-baseline="middle" opacity="1">Distribution drawn option E3</text></g></g><g><g objname="stats" objtype="TPaveStats" transform="translate(449,51)" font-family="Arial" font-size="16" space="preserve"><path d="M0,0h115v125h-115z" style="fill: white; stroke: black; stroke-width: 1;"></path><text text-anchor="middle" x="0" y="0" fill="black" transform="translate(58,17)" dominant-baseline="middle" opacity="1">he4</text><text text-anchor="start" x="0" y="0" fill="black" transform="translate(6,48)" dominant-baseline="middle" opacity="1">Entries </text><text text-anchor="end" x="0" y="0" fill="black" transform="translate(109,48)" dominant-baseline="middle" opacity="1"> 10000</text><text text-anchor="start" x="0" y="0" fill="black" transform="translate(6,79)" dominant-baseline="middle" opacity="1">Mean </text><text text-anchor="end" x="0" y="0" fill="black" transform="translate(109,79)" dominant-baseline="middle" opacity="1"> -0.3823</text><text text-anchor="start" x="0" y="0" fill="black" transform="translate(6,110)" dominant-baseline="middle" opacity="1">Std Dev </text><text text-anchor="end" x="0" y="0" fill="black" transform="translate(109,110)" dominant-baseline="middle" opacity="1"> 0.1521</text><path d="M0,31h115" style="stroke: black; stroke-width: 1;"></path></g></g></g></g></svg>