<svg xmlns="http://www.w3.org/2000/svg" width="696" height="372" viewBox="0 0 696 372" preserveAspectRatio="none">
 <path d="M0,0H696V372H0Z" style="fill: white;"></path>
 <g>
  <svg viewBox="0 0 334 365" preserveAspectRatio="none" x="7" y="3" width="334" height="365">
   <path d="M0,0H334V365H0Z" style="fill: white;"></path>
   <g>
    <g transform="translate(33,37)">
     <path d="M0,0H267V292H0Z" style="fill: white; stroke: black; stroke-width: 1;"></path>
     <svg x="0" y="0" overflow="hidden" width="267" height="292" viewBox="0 0 267 292">
      <g>
       <g font-family="Arial" font-size="11" xml:space="preserve" fill="black" text-anchor="middle"><text dominant-baseline="middle" transform="translate(13,219) rotate(-45)">0.1000</text><text dominant-baseline="middle" transform="translate(13,190) rotate(-45)">0.4000</text><text dominant-baseline="middle" transform="translate(13,161) rotate(-45)">0.6000</text><text dominant-baseline="middle" transform="translate(13,131) rotate(-45)">0.5000</text><text dominant-baseline="middle" transform="translate(13,102) rotate(-45)">0.2000</text><text dominant-baseline="middle" transform="translate(13,73) rotate(-45)">0.1000</text><text dominant-baseline="middle" transform="translate(40,277) rotate(-45)">0.1000</text><text dominant-baseline="middle" transform="translate(40,219) rotate(-45)">0.9000</text><text dominant-baseline="middle" transform="translate(40,190) rotate(-45)">3.3000</text><text dominant-baseline="middle" transform="translate(40,161) rotate(-45)">5.0000</text><text dominant-baseline="middle" transform="translate(40,131) rotate(-45)">4.4000</text><text dominant-baseline="middle" transform="translate(40,102) rotate(-45)">3.1000</text><text dominant-baseline="middle" transform="translate(40,73) rotate(-45)">0.9000</text><text dominant-baseline="middle" transform="translate(40,44) rotate(-45)">0.2000</text><text dominant-baseline="middle" transform="translate(67,248) rotate(-45)">1.0000</text><text dominant-baseline="middle" transform="translate(67,219) rotate(-45)">5.6000</text><text dominant-baseline="middle" transform="translate(67,190) rotate(-45)">19.7000</text><text dominant-baseline="middle" transform="translate(67,161) rotate(-45)">31.7001</text><text dominant-baseline="middle" transform="translate(67,131) rotate(-45)">32.7001</text><text dominant-baseline="middle" transform="translate(67,102) rotate(-45)">19.2000</text><text dominant-baseline="middle" transform="translate(67,73) rotate(-45)">3.4000</text><text dominant-baseline="middle" transform="translate(67,44) rotate(-45)">0.5000</text><text dominant-baseline="middle" transform="translate(93,277) rotate(-45)">0.2000</text><text dominant-baseline="middle" transform="translate(93,248) rotate(-45)">3.1000</text><text dominant-baseline="middle" transform="translate(93,219) rotate(-45)">20.2000</text><text dominant-baseline="middle" transform="translate(93,190) rotate(-45)">62.4996</text><text dominant-baseline="middle" transform="translate(93,161) rotate(-45)">116.9988</text><text dominant-baseline="middle" transform="translate(93,131) rotate(-45)">110.9989</text><text dominant-baseline="middle" transform="translate(93,102) rotate(-45)">64.7996</text><text dominant-baseline="middle" transform="translate(93,73) rotate(-45)">17.6000</text><text dominant-baseline="middle" transform="translate(93,44) rotate(-45)">3.5000</text><text dominant-baseline="middle" transform="translate(93,15) rotate(-45)">0.4000</text><text dominant-baseline="middle" transform="translate(120,277) rotate(-45)">0.3000</text><text dominant-baseline="middle" transform="translate(120,248) rotate(-45)">4.8000</text><text dominant-baseline="middle" transform="translate(120,219) rotate(-45)">36.8000</text><text dominant-baseline="middle" transform="translate(120,190) rotate(-45)">115.7988</text><text dominant-baseline="middle" transform="translate(120,161) rotate(-45)">205.4033</text><text dominant-baseline="middle" transform="translate(120,131) rotate(-45)">203.4032</text><text dominant-baseline="middle" transform="translate(120,102) rotate(-45)">112.9988</text><text dominant-baseline="middle" transform="translate(120,73) rotate(-45)">31.2001</text><text dominant-baseline="middle" transform="translate(120,44) rotate(-45)">5.4000</text><text dominant-baseline="middle" transform="translate(120,15) rotate(-45)">0.6000</text><text dominant-baseline="middle" transform="translate(147,248) rotate(-45)">5.6000</text><text dominant-baseline="middle" transform="translate(147,219) rotate(-45)">36.3000</text><text dominant-baseline="middle" transform="translate(147,190) rotate(-45)">112.1989</text><text dominant-baseline="middle" transform="translate(147,161) rotate(-45)">207.4035</text><text dominant-baseline="middle" transform="translate(147,131) rotate(-45)">211.6037</text><text dominant-baseline="middle" transform="translate(147,102) rotate(-45)">115.4988</text><text dominant-baseline="middle" transform="translate(147,73) rotate(-45)">33.2001</text><text dominant-baseline="middle" transform="translate(147,44) rotate(-45)">4.2000</text><text dominant-baseline="middle" transform="translate(147,15) rotate(-45)">0.6000</text><text dominant-baseline="middle" transform="translate(174,277) rotate(-45)">0.3000</text><text dominant-baseline="middle" transform="translate(174,248) rotate(-45)">3.0000</text><text dominant-baseline="middle" transform="translate(174,219) rotate(-45)">18.0000</text><text dominant-baseline="middle" transform="translate(174,190) rotate(-45)">61.2996</text><text dominant-baseline="middle" transform="translate(174,161) rotate(-45)">113.7988</text><text dominant-baseline="middle" transform="translate(174,131) rotate(-45)">108.6989</text><text dominant-baseline="middle" transform="translate(174,102) rotate(-45)">60.1997</text><text dominant-baseline="middle" transform="translate(174,73) rotate(-45)">16.4000</text><text dominant-baseline="middle" transform="translate(174,44) rotate(-45)">3.6000</text><text dominant-baseline="middle" transform="translate(174,15) rotate(-45)">0.3000</text><text dominant-baseline="middle" transform="translate(200,277) rotate(-45)">0.1000</text><text dominant-baseline="middle" transform="translate(200,248) rotate(-45)">1.0000</text><text dominant-baseline="middle" transform="translate(200,219) rotate(-45)">4.8000</text><text dominant-baseline="middle" transform="translate(200,190) rotate(-45)">17.6000</text><text dominant-baseline="middle" transform="translate(200,161) rotate(-45)">34.9000</text><text dominant-baseline="middle" transform="translate(200,131) rotate(-45)">32.2001</text><text dominant-baseline="middle" transform="translate(200,102) rotate(-45)">19.0000</text><text dominant-baseline="middle" transform="translate(200,73) rotate(-45)">6.3000</text><text dominant-baseline="middle" transform="translate(200,44) rotate(-45)">0.8000</text><text dominant-baseline="middle" transform="translate(200,15) rotate(-45)">0.1000</text><text dominant-baseline="middle" transform="translate(227,219) rotate(-45)">0.5000</text><text dominant-baseline="middle" transform="translate(227,190) rotate(-45)">2.5000</text><text dominant-baseline="middle" transform="translate(227,161) rotate(-45)">4.5000</text><text dominant-baseline="middle" transform="translate(227,131) rotate(-45)">5.2000</text><text dominant-baseline="middle" transform="translate(227,102) rotate(-45)">3.8000</text><text dominant-baseline="middle" transform="translate(227,73) rotate(-45)">1.1000</text><text dominant-baseline="middle" transform="translate(227,44) rotate(-45)">0.1000</text><text dominant-baseline="middle" transform="translate(254,219) rotate(-45)">0.1000</text><text dominant-baseline="middle" transform="translate(254,190) rotate(-45)">0.3000</text><text dominant-baseline="middle" transform="translate(254,161) rotate(-45)">0.8000</text><text dominant-baseline="middle" transform="translate(254,131) rotate(-45)">1.2000</text><text dominant-baseline="middle" transform="translate(254,102) rotate(-45)">0.1000</text></g>
      </g>
     </svg>
     <g>
      <g transform="translate(0,292)">
       <path d="M0,0h267M0,-9V0M7,-5V0M13,-5V0M20,-5V0M27,-5V0M33,-9V0M40,-5V0M47,-5V0M53,-5V0M60,-5V0M67,-9V0M73,-5V0M80,-5V0M87,-5V0M93,-5V0M100,-9V0M107,-5V0M113,-5V0M120,-5V0M127,-5V0M134,-9V0M140,-5V0M147,-5V0M154,-5V0M160,-5V0M167,-9V0M174,-5V0M180,-5V0M187,-5V0M194,-5V0M200,-9V0M207,-5V0M214,-5V0M220,-5V0M227,-5V0M234,-9V0M240,-5V0M247,-5V0M254,-5V0M260,-5V0M267,-9V0" style="stroke: black; stroke-width: 1;"></path>
       <g font-family="Arial" font-size="12" xml:space="preserve" fill="black" text-anchor="middle"><text dy=".8em" transform="translate(0,2)">-4</text><text dy=".8em" transform="translate(33,2)">-3</text><text dy=".8em" transform="translate(67,2)">-2</text><text dy=".8em" transform="translate(100,2)">-1</text><text dy=".8em" transform="translate(134,2)">0</text><text dy=".8em" transform="translate(167,2)">1</text><text dy=".8em" transform="translate(200,2)">2</text><text dy=".8em" transform="translate(234,2)">3</text><text dy=".8em" transform="translate(267,2)">4</text></g>
      </g>
      <g>
       <path d="M0,0v292M8,292H0M4,285H0M4,277H0M4,270H0M4,263H0M8,256H0M4,248H0M4,241H0M4,234H0M4,226H0M8,219H0M4,212H0M4,204H0M4,197H0M4,190H0M8,183H0M4,175H0M4,168H0M4,161H0M4,153H0M8,146H0M4,139H0M4,131H0M4,124H0M4,117H0M8,110H0M4,102H0M4,95H0M4,88H0M4,80H0M8,73H0M4,66H0M4,58H0M4,51H0M4,44H0M8,37H0M4,29H0M4,22H0M4,15H0M4,7H0M8,0H0" style="stroke: black; stroke-width: 1;"></path>
       <g font-family="Arial" font-size="12" xml:space="preserve" fill="black" text-anchor="end"><text dominant-baseline="middle" transform="translate(-2,292)">-20</text><text dominant-baseline="middle" transform="translate(-2,256)">-15</text><text dominant-baseline="middle" transform="translate(-2,219)">-10</text><text dominant-baseline="middle" transform="translate(-2,183)">-5</text><text dominant-baseline="middle" transform="translate(-2,146)">0</text><text dominant-baseline="middle" transform="translate(-2,110)">5</text><text dominant-baseline="middle" transform="translate(-2,73)">10</text><text dominant-baseline="middle" transform="translate(-2,37)">15</text><text dominant-baseline="middle" transform="translate(-2)">20</text></g>
      </g>
     </g>
    </g>
    <g transform="translate(261,24)" font-family="Arial" font-size="7" xml:space="preserve" fill="black"><path d="M0,0H67V88H0Z" style="fill: white; stroke: black; stroke-width: 1;"></path><text text-anchor="middle" dominant-baseline="middle" transform="translate(34,7)">htext2</text><text text-anchor="start" dominant-baseline="middle" transform="translate(3,22)">Entries</text><text text-anchor="end" dominant-baseline="middle" transform="translate(64,22)">25000</text><text text-anchor="start" dominant-baseline="middle" transform="translate(3,37)">Mean x</text><text text-anchor="end" dominant-baseline="middle" transform="translate(64,37)">-0.002430</text><text text-anchor="start" dominant-baseline="middle" transform="translate(3,51)">Mean y</text><text text-anchor="end" dominant-baseline="middle" transform="translate(64,51)">-0.04709</text><text text-anchor="start" dominant-baseline="middle" transform="translate(3,66)">Std Dev x</text><text text-anchor="end" dominant-baseline="middle" transform="translate(64,66)">0.9973</text><text text-anchor="start" dominant-baseline="middle" transform="translate(3,81)">Std Dev y</text><text text-anchor="end" dominant-baseline="middle" transform="translate(64,81)">4.999</text><path d="M0,15h67" style="stroke: black; stroke-width: 1;"></path></g>
    <g transform="translate(50,2)" font-family="Arial" font-size="14" xml:space="preserve"><text fill="black" text-anchor="middle" dominant-baseline="middle" transform="translate(117,10)">Option TEXT on 2D histograms </text></g>
   </g>
  </svg>
  <svg viewBox="0 0 334 365" preserveAspectRatio="none" x="355" y="3" width="334" height="365">
   <path d="M0,0H334V365H0Z" style="fill: white;"></path>
   <g>
    <g transform="translate(33,37)">
     <path d="M0,0H267V292H0Z" style="fill: white; stroke: black; stroke-width: 1;"></path>
     <svg x="0" y="0" overflow="hidden" width="267" height="292" viewBox="0 0 267 292">
      <g>
       <path d="M0,291h28M14,291v0M27,285h26M40,285v1M53,249h28M67,248v2M80,141h28M94,138v5M107,21h28M121,18v6M134,17h26M147,14v6M160,146h28M174,144v4M187,248h28M201,247v2M214,285h26M227,285v1M240,291h28M254,291v0" style="stroke: rgb(0, 0, 153); stroke-width: 1;"></path>
      </g>
      <g font-family="Arial" font-size="17" xml:space="preserve"><text fill="black" text-anchor="start" dominant-baseline="middle" transform="translate(14,286) rotate(270)">1.9000</text><text fill="black" text-anchor="start" dominant-baseline="middle" transform="translate(40,280) rotate(270)">17.9000</text><text fill="black" text-anchor="start" dominant-baseline="middle" transform="translate(67,244) rotate(270)">113.7988</text><text fill="black" text-anchor="start" dominant-baseline="middle" transform="translate(94,136) rotate(270)">400.4152</text><text fill="black" text-anchor="start" dominant-baseline="middle" transform="translate(121,16) rotate(270)">716.6721</text><text fill="black" text-anchor="start" dominant-baseline="middle" transform="translate(147,12) rotate(270)">726.5696</text><text fill="black" text-anchor="start" dominant-baseline="middle" transform="translate(174,141) rotate(270)">385.6143</text><text fill="black" text-anchor="start" dominant-baseline="middle" transform="translate(201,243) rotate(270)">116.7988</text><text fill="black" text-anchor="start" dominant-baseline="middle" transform="translate(227,280) rotate(270)">17.7000</text><text fill="black" text-anchor="start" dominant-baseline="middle" transform="translate(254,286) rotate(270)">2.5000</text><path d="M0,291h27v-6h26v-36h27v-108h27v-120h27v-4h26v129h27v102h27v37h26v6h27" style="stroke-linejoin: miter; stroke: rgb(0, 0, 153); stroke-width: 1; fill: none;"></path></g>
     </svg>
     <g>
      <g transform="translate(0,292)">
       <path d="M0,0h267M0,-9V0M7,-5V0M13,-5V0M20,-5V0M27,-5V0M33,-9V0M40,-5V0M47,-5V0M53,-5V0M60,-5V0M67,-9V0M73,-5V0M80,-5V0M87,-5V0M93,-5V0M100,-9V0M107,-5V0M113,-5V0M120,-5V0M127,-5V0M134,-9V0M140,-5V0M147,-5V0M154,-5V0M160,-5V0M167,-9V0M174,-5V0M180,-5V0M187,-5V0M194,-5V0M200,-9V0M207,-5V0M214,-5V0M220,-5V0M227,-5V0M234,-9V0M240,-5V0M247,-5V0M254,-5V0M260,-5V0M267,-9V0" style="stroke: black; stroke-width: 1;"></path>
       <g font-family="Arial" font-size="12" xml:space="preserve" fill="black" text-anchor="middle"><text dy=".8em" transform="translate(0,2)">-4</text><text dy=".8em" transform="translate(33,2)">-3</text><text dy=".8em" transform="translate(67,2)">-2</text><text dy=".8em" transform="translate(100,2)">-1</text><text dy=".8em" transform="translate(134,2)">0</text><text dy=".8em" transform="translate(167,2)">1</text><text dy=".8em" transform="translate(200,2)">2</text><text dy=".8em" transform="translate(234,2)">3</text><text dy=".8em" transform="translate(267,2)">4</text></g>
      </g>
      <g>
       <path d="M0,0v292M8,292H0M4,284H0M4,277H0M4,269H0M4,262H0M8,254H0M4,247H0M4,239H0M4,231H0M4,224H0M8,216H0M4,209H0M4,201H0M4,194H0M4,186H0M8,179H0M4,171H0M4,163H0M4,156H0M4,148H0M8,141H0M4,133H0M4,126H0M4,118H0M4,110H0M8,103H0M4,95H0M4,88H0M4,80H0M4,73H0M8,65H0M4,57H0M4,50H0M4,42H0M4,35H0M8,27H0M4,20H0M4,12H0M4,4H0" style="stroke: black; stroke-width: 1;"></path>
       <g font-family="Arial" font-size="12" xml:space="preserve" fill="black" text-anchor="end"><text dominant-baseline="middle" transform="translate(-2,292)">0</text><text dominant-baseline="middle" transform="translate(-2,254)">100</text><text dominant-baseline="middle" transform="translate(-2,216)">200</text><text dominant-baseline="middle" transform="translate(-2,179)">300</text><text dominant-baseline="middle" transform="translate(-2,141)">400</text><text dominant-baseline="middle" transform="translate(-2,103)">500</text><text dominant-baseline="middle" transform="translate(-2,65)">600</text><text dominant-baseline="middle" transform="translate(-2,27)">700</text></g>
      </g>
     </g>
    </g>
    <g transform="translate(261,24)" font-family="Arial" font-size="8" xml:space="preserve" fill="black"><path d="M0,0H67V58H0Z" style="fill: white; stroke: black; stroke-width: 1;"></path><text text-anchor="middle" dominant-baseline="middle" transform="translate(34,7)">htext1</text><text text-anchor="start" dominant-baseline="middle" transform="translate(3,22)">Entries</text><text text-anchor="end" dominant-baseline="middle" transform="translate(64,22)">25000</text><text text-anchor="start" dominant-baseline="middle" transform="translate(3,36)">Mean</text><text text-anchor="end" dominant-baseline="middle" transform="translate(64,36)">-0.002480</text><text text-anchor="start" dominant-baseline="middle" transform="translate(3,51)">Std Dev</text><text text-anchor="end" dominant-baseline="middle" transform="translate(64,51)">0.9973</text><path d="M0,15h67" style="stroke: black; stroke-width: 1;"></path></g>
    <g transform="translate(50,2)" font-family="Arial" font-size="14" xml:space="preserve"><text fill="black" text-anchor="middle" dominant-baseline="middle" transform="translate(117,10)">Option TEXT on 1D histograms </text></g>
   </g>
  </svg>
 </g>
</svg>