<svg viewBox="0 0 1200 800" preserveAspectRatio="none" xmlns="http://www.w3.org/2000/svg" width="1200" height="800"><title>ROOT canvas</title><rect x="0" y="0" width="1200" height="800" style="fill: white;"></rect><g><g pad="c01_1" transform="translate(12,8)"><rect x="0" y="0" width="576" height="784" style="fill: white;"></rect><g><g transform="translate(58,78)"><title></title><rect x="0" y="0" width="461" height="627" style="fill: white; stroke: black; stroke-width: 1;"></rect><svg x="0" y="0" overflow="hidden" width="461" height="627" viewBox="0 0 461 627"><g objname="htext2" objtype="TH2F"><g font-family="Arial" font-size="23" space="preserve"><text fill="black" text-anchor="middle" dy=".4em" transform="translate(23,470) rotate(-45)">0.1000</text><text fill="black" text-anchor="middle" dy=".4em" transform="translate(23,408) rotate(-45)">0.4000</text><text fill="black" text-anchor="middle" dy=".4em" transform="translate(23,345) rotate(-45)">0.6000</text><text fill="black" text-anchor="middle" dy=".4em" transform="translate(23,282) rotate(-45)">0.5000</text><text fill="black" text-anchor="middle" dy=".4em" transform="translate(23,219) rotate(-45)">0.2000</text><text fill="black" text-anchor="middle" dy=".4em" transform="translate(23,157) rotate(-45)">0.1000</text><text fill="black" text-anchor="middle" dy=".4em" transform="translate(69,596) rotate(-45)">0.1000</text><text fill="black" text-anchor="middle" dy=".4em" transform="translate(69,470) rotate(-45)">0.9000</text><text fill="black" text-anchor="middle" dy=".4em" transform="translate(69,408) rotate(-45)">3.3000</text><text fill="black" text-anchor="middle" dy=".4em" transform="translate(69,345) rotate(-45)">5.0000</text><text fill="black" text-anchor="middle" dy=".4em" transform="translate(69,282) rotate(-45)">4.4000</text><text fill="black" text-anchor="middle" dy=".4em" transform="translate(69,219) rotate(-45)">3.1000</text><text fill="black" text-anchor="middle" dy=".4em" transform="translate(69,157) rotate(-45)">0.9000</text><text fill="black" text-anchor="middle" dy=".4em" transform="translate(69,94) rotate(-45)">0.2000</text><text fill="black" text-anchor="middle" dy=".4em" transform="translate(115,533) rotate(-45)">1.0000</text><text fill="black" text-anchor="middle" dy=".4em" transform="translate(115,470) rotate(-45)">5.6000</text><text fill="black" text-anchor="middle" dy=".4em" transform="translate(115,408) rotate(-45)">19.7000</text><text fill="black" text-anchor="middle" dy=".4em" transform="translate(115,345) rotate(-45)">31.7001</text><text fill="black" text-anchor="middle" dy=".4em" transform="translate(115,282) rotate(-45)">32.7001</text><text fill="black" text-anchor="middle" dy=".4em" transform="translate(115,219) rotate(-45)">19.2000</text><text fill="black" text-anchor="middle" dy=".4em" transform="translate(115,157) rotate(-45)">3.4000</text><text fill="black" text-anchor="middle" dy=".4em" transform="translate(115,94) rotate(-45)">0.5000</text><text fill="black" text-anchor="middle" dy=".4em" transform="translate(161,596) rotate(-45)">0.2000</text><text fill="black" text-anchor="middle" dy=".4em" transform="translate(161,533) rotate(-45)">3.1000</text><text fill="black" text-anchor="middle" dy=".4em" transform="translate(161,470) rotate(-45)">20.2000</text><text fill="black" text-anchor="middle" dy=".4em" transform="translate(161,408) rotate(-45)">62.4996</text><text fill="black" text-anchor="middle" dy=".4em" transform="translate(161,345) rotate(-45)">116.9988</text><text fill="black" text-anchor="middle" dy=".4em" transform="translate(161,282) rotate(-45)">110.9989</text><text fill="black" text-anchor="middle" dy=".4em" transform="translate(161,219) rotate(-45)">64.7996</text><text fill="black" text-anchor="middle" dy=".4em" transform="translate(161,157) rotate(-45)">17.6000</text><text fill="black" text-anchor="middle" dy=".4em" transform="translate(161,94) rotate(-45)">3.5000</text><text fill="black" text-anchor="middle" dy=".4em" transform="translate(161,31) rotate(-45)">0.4000</text><text fill="black" text-anchor="middle" dy=".4em" transform="translate(207,596) rotate(-45)">0.3000</text><text fill="black" text-anchor="middle" dy=".4em" transform="translate(207,533) rotate(-45)">4.8000</text><text fill="black" text-anchor="middle" dy=".4em" transform="translate(207,470) rotate(-45)">36.8000</text><text fill="black" text-anchor="middle" dy=".4em" transform="translate(207,408) rotate(-45)">115.7988</text><text fill="black" text-anchor="middle" dy=".4em" transform="translate(207,345) rotate(-45)">205.4033</text><text fill="black" text-anchor="middle" dy=".4em" transform="translate(207,282) rotate(-45)">203.4032</text><text fill="black" text-anchor="middle" dy=".4em" transform="translate(207,219) rotate(-45)">112.9988</text><text fill="black" text-anchor="middle" dy=".4em" transform="translate(207,157) rotate(-45)">31.2001</text><text fill="black" text-anchor="middle" dy=".4em" transform="translate(207,94) rotate(-45)">5.4000</text><text fill="black" text-anchor="middle" dy=".4em" transform="translate(207,31) rotate(-45)">0.6000</text><text fill="black" text-anchor="middle" dy=".4em" transform="translate(254,533) rotate(-45)">5.6000</text><text fill="black" text-anchor="middle" dy=".4em" transform="translate(254,470) rotate(-45)">36.3000</text><text fill="black" text-anchor="middle" dy=".4em" transform="translate(254,408) rotate(-45)">112.1989</text><text fill="black" text-anchor="middle" dy=".4em" transform="translate(254,345) rotate(-45)">207.4035</text><text fill="black" text-anchor="middle" dy=".4em" transform="translate(254,282) rotate(-45)">211.6037</text><text fill="black" text-anchor="middle" dy=".4em" transform="translate(254,219) rotate(-45)">115.4988</text><text fill="black" text-anchor="middle" dy=".4em" transform="translate(254,157) rotate(-45)">33.2001</text><text fill="black" text-anchor="middle" dy=".4em" transform="translate(254,94) rotate(-45)">4.2000</text><text fill="black" text-anchor="middle" dy=".4em" transform="translate(254,31) rotate(-45)">0.6000</text><text fill="black" text-anchor="middle" dy=".4em" transform="translate(300,596) rotate(-45)">0.3000</text><text fill="black" text-anchor="middle" dy=".4em" transform="translate(300,533) rotate(-45)">3.0000</text><text fill="black" text-anchor="middle" dy=".4em" transform="translate(300,470) rotate(-45)">18.0000</text><text fill="black" text-anchor="middle" dy=".4em" transform="translate(300,408) rotate(-45)">61.2996</text><text fill="black" text-anchor="middle" dy=".4em" transform="translate(300,345) rotate(-45)">113.7988</text><text fill="black" text-anchor="middle" dy=".4em" transform="translate(300,282) rotate(-45)">108.6989</text><text fill="black" text-anchor="middle" dy=".4em" transform="translate(300,219) rotate(-45)">60.1997</text><text fill="black" text-anchor="middle" dy=".4em" transform="translate(300,157) rotate(-45)">16.4000</text><text fill="black" text-anchor="middle" dy=".4em" transform="translate(300,94) rotate(-45)">3.6000</text><text fill="black" text-anchor="middle" dy=".4em" transform="translate(300,31) rotate(-45)">0.3000</text><text fill="black" text-anchor="middle" dy=".4em" transform="translate(346,596) rotate(-45)">0.1000</text><text fill="black" text-anchor="middle" dy=".4em" transform="translate(346,533) rotate(-45)">1.0000</text><text fill="black" text-anchor="middle" dy=".4em" transform="translate(346,470) rotate(-45)">4.8000</text><text fill="black" text-anchor="middle" dy=".4em" transform="translate(346,408) rotate(-45)">17.6000</text><text fill="black" text-anchor="middle" dy=".4em" transform="translate(346,345) rotate(-45)">34.9000</text><text fill="black" text-anchor="middle" dy=".4em" transform="translate(346,282) rotate(-45)">32.2001</text><text fill="black" text-anchor="middle" dy=".4em" transform="translate(346,219) rotate(-45)">19.0000</text><text fill="black" text-anchor="middle" dy=".4em" transform="translate(346,157) rotate(-45)">6.3000</text><text fill="black" text-anchor="middle" dy=".4em" transform="translate(346,94) rotate(-45)">0.8000</text><text fill="black" text-anchor="middle" dy=".4em" transform="translate(346,31) rotate(-45)">0.1000</text><text fill="black" text-anchor="middle" dy=".4em" transform="translate(392,470) rotate(-45)">0.5000</text><text fill="black" text-anchor="middle" dy=".4em" transform="translate(392,408) rotate(-45)">2.5000</text><text fill="black" text-anchor="middle" dy=".4em" transform="translate(392,345) rotate(-45)">4.5000</text><text fill="black" text-anchor="middle" dy=".4em" transform="translate(392,282) rotate(-45)">5.2000</text><text fill="black" text-anchor="middle" dy=".4em" transform="translate(392,219) rotate(-45)">3.8000</text><text fill="black" text-anchor="middle" dy=".4em" transform="translate(392,157) rotate(-45)">1.1000</text><text fill="black" text-anchor="middle" dy=".4em" transform="translate(392,94) rotate(-45)">0.1000</text><text fill="black" text-anchor="middle" dy=".4em" transform="translate(438,470) rotate(-45)">0.1000</text><text fill="black" text-anchor="middle" dy=".4em" transform="translate(438,408) rotate(-45)">0.3000</text><text fill="black" text-anchor="middle" dy=".4em" transform="translate(438,345) rotate(-45)">0.8000</text><text fill="black" text-anchor="middle" dy=".4em" transform="translate(438,282) rotate(-45)">1.2000</text><text fill="black" text-anchor="middle" dy=".4em" transform="translate(438,219) rotate(-45)">0.1000</text></g></g></svg><g><g transform="translate(0,627)"><path d="M0,-24v24m12,-12v12m11,-12v12m12,-12v12m11,-12v12m12,-24v24m11,-12v12m12,-12v12m11,-12v12m12,-12v12m11,-24v24m12,-12v12m11,-12v12m12,-12v12m11,-12v12m12,-24v24m11,-12v12m12,-12v12m11,-12v12m12,-12v12m12,-24v24m11,-12v12m12,-12v12m11,-12v12m12,-12v12m11,-24v24m12,-12v12m11,-12v12m12,-12v12m11,-12v12m12,-24v24m11,-12v12m12,-12v12m11,-12v12m12,-12v12m11,-24v24m12,-12v12m11,-12v12m12,-12v12m11,-12v12m12,-24v24" style="stroke: black; stroke-width: 1;"></path><g font-family="Arial" font-size="20" space="preserve"><text fill="black" text-anchor="middle" dy=".8em" transform="translate(0,5)">-4</text><text fill="black" text-anchor="middle" dy=".8em" transform="translate(58,5)">-3</text><text fill="black" text-anchor="middle" dy=".8em" transform="translate(115,5)">-2</text><text fill="black" text-anchor="middle" dy=".8em" transform="translate(173,5)">-1</text><text fill="black" text-anchor="middle" dy=".8em" transform="translate(231,5)">0</text><text fill="black" text-anchor="middle" dy=".8em" transform="translate(288,5)">1</text><text fill="black" text-anchor="middle" dy=".8em" transform="translate(346,5)">2</text><text fill="black" text-anchor="middle" dy=".8em" transform="translate(403,5)">3</text><text fill="black" text-anchor="middle" dy=".8em" transform="translate(461,5)">4</text></g></g><g><path d="M17,627h-17m9,-16h-9m9,-15h-9m9,-16h-9m9,-16h-9m17,-15h-17m9,-16h-9m9,-16h-9m9,-15h-9m9,-16h-9m17,-16h-17m9,-15h-9m9,-16h-9m9,-16h-9m9,-15h-9m17,-16h-17m9,-16h-9m9,-15h-9m9,-16h-9m9,-16h-9m17,-15h-17m9,-16h-9m9,-16h-9m9,-16h-9m9,-15h-9m17,-16h-17m9,-16h-9m9,-15h-9m9,-16h-9m9,-16h-9m17,-15h-17m9,-16h-9m9,-16h-9m9,-15h-9m9,-16h-9m17,-16h-17m9,-15h-9m9,-16h-9m9,-16h-9m9,-15h-9m17,-16h-17" style="stroke: black; stroke-width: 1;"></path><g font-family="Arial" font-size="20" space="preserve"><text fill="black" text-anchor="end" dy=".4em" transform="translate(-3,627)">-20</text><text fill="black" text-anchor="end" dy=".4em" transform="translate(-3,549)">-15</text><text fill="black" text-anchor="end" dy=".4em" transform="translate(-3,470)">-10</text><text fill="black" text-anchor="end" dy=".4em" transform="translate(-3,392)">-5</text><text fill="black" text-anchor="end" dy=".4em" transform="translate(-3,314)">0</text><text fill="black" text-anchor="end" dy=".4em" transform="translate(-3,235)">5</text><text fill="black" text-anchor="end" dy=".4em" transform="translate(-3,157)">10</text><text fill="black" text-anchor="end" dy=".4em" transform="translate(-3,78)">15</text><text fill="black" text-anchor="end" dy=".4em" transform="translate(-3,0)">20</text></g></g></g></g><g objname="title" objtype="TPaveText" transform="translate(86,4)" font-family="Arial" font-size="24" space="preserve"><path d="M0,0h403v44h-403z" style="fill: none;"></path><text fill="black" text-anchor="middle" dy=".4em" transform="translate(202,22)" opacity="1">Option TEXT on 2D histograms </text></g><g objname="stats" objtype="TPaveStats" transform="translate(449,51)" font-family="Arial" font-size="10" space="preserve"><path d="M0,0h115v188h-115z" style="fill: white; stroke: black; stroke-width: 1;"></path><text fill="black" text-anchor="middle" dy=".4em" transform="translate(58,16)" opacity="1">htext2</text><text fill="black" text-anchor="start" dy=".4em" transform="translate(6,47)" opacity="1">Entries </text><text fill="black" text-anchor="end" dy=".4em" transform="translate(109,47)" opacity="1"> 25000</text><text fill="black" text-anchor="start" dy=".4em" transform="translate(6,78)" opacity="1">Mean x </text><text fill="black" text-anchor="end" dy=".4em" transform="translate(109,78)" opacity="1"> -0.002430</text><text fill="black" text-anchor="start" dy=".4em" transform="translate(6,110)" opacity="1">Mean y </text><text fill="black" text-anchor="end" dy=".4em" transform="translate(109,110)" opacity="1"> -0.04709</text><text fill="black" text-anchor="start" dy=".4em" transform="translate(6,141)" opacity="1">Std Dev x </text><text fill="black" text-anchor="end" dy=".4em" transform="translate(109,141)" opacity="1"> 0.9973</text><text fill="black" text-anchor="start" dy=".4em" transform="translate(6,172)" opacity="1">Std Dev y </text><text fill="black" text-anchor="end" dy=".4em" transform="translate(109,172)" opacity="1"> 4.999</text><path d="M0,31h115" style="stroke: black; stroke-width: 1;"></path></g></g></g><g pad="c01_2" transform="translate(612,8)"><rect x="0" y="0" width="576" height="784" style="fill: white;"></rect><g><g transform="translate(58,78)"><title></title><rect x="0" y="0" width="461" height="627" style="fill: white; stroke: black; stroke-width: 1;"></rect><svg x="0" y="0" overflow="hidden" width="461" height="627" viewBox="0 0 461 627"><g objname="htext1" objtype="TH1F"><path d="M0,625h46M23,625v1M46,612h46M69,611v3M92,535h46M115,532v5M138,302h46M161,297v10M185,45h47M208,38v14M231,37h46M254,30v14M277,314h46M300,309v10M323,532h46M346,529v6M369,613h46M392,612v2M415,625h46M438,625v0" style="stroke: rgb(0,0,153); stroke-width: 1;"></path></g><g objname="htext1" objtype="TH1F" font-family="Arial" font-size="29" space="preserve"><text fill="black" text-anchor="start" dy=".4em" transform="translate(23,617) rotate(270)">1.9000</text><text fill="black" text-anchor="start" dy=".4em" transform="translate(69,604) rotate(270)">17.9000</text><text fill="black" text-anchor="start" dy=".4em" transform="translate(115,527) rotate(270)">113.7988</text><text fill="black" text-anchor="start" dy=".4em" transform="translate(161,294) rotate(270)">400.4152</text><text fill="black" text-anchor="start" dy=".4em" transform="translate(208,37) rotate(270)">716.6721</text><text fill="black" text-anchor="start" dy=".4em" transform="translate(254,29) rotate(270)">726.5696</text><text fill="black" text-anchor="start" dy=".4em" transform="translate(300,306) rotate(270)">385.6143</text><text fill="black" text-anchor="start" dy=".4em" transform="translate(346,524) rotate(270)">116.7988</text><text fill="black" text-anchor="start" dy=".4em" transform="translate(392,605) rotate(270)">17.7000</text><text fill="black" text-anchor="start" dy=".4em" transform="translate(438,617) rotate(270)">2.5000</text><path d="M0,625h46v-13h46v-77h46v-233h46v-257h47v-8h46v277h46v218h46v81h46v12h46" style="stroke-linejoin: miter; stroke: rgb(0,0,153); stroke-width: 1; fill: none;"></path></g></svg><g><g transform="translate(0,627)"><path d="M0,-24v24m12,-12v12m11,-12v12m12,-12v12m11,-12v12m12,-24v24m11,-12v12m12,-12v12m11,-12v12m12,-12v12m11,-24v24m12,-12v12m11,-12v12m12,-12v12m11,-12v12m12,-24v24m11,-12v12m12,-12v12m11,-12v12m12,-12v12m12,-24v24m11,-12v12m12,-12v12m11,-12v12m12,-12v12m11,-24v24m12,-12v12m11,-12v12m12,-12v12m11,-12v12m12,-24v24m11,-12v12m12,-12v12m11,-12v12m12,-12v12m11,-24v24m12,-12v12m11,-12v12m12,-12v12m11,-12v12m12,-24v24" style="stroke: black; stroke-width: 1;"></path><g font-family="Arial" font-size="20" space="preserve"><text fill="black" text-anchor="middle" dy=".8em" transform="translate(0,5)">-4</text><text fill="black" text-anchor="middle" dy=".8em" transform="translate(58,5)">-3</text><text fill="black" text-anchor="middle" dy=".8em" transform="translate(115,5)">-2</text><text fill="black" text-anchor="middle" dy=".8em" transform="translate(173,5)">-1</text><text fill="black" text-anchor="middle" dy=".8em" transform="translate(231,5)">0</text><text fill="black" text-anchor="middle" dy=".8em" transform="translate(288,5)">1</text><text fill="black" text-anchor="middle" dy=".8em" transform="translate(346,5)">2</text><text fill="black" text-anchor="middle" dy=".8em" transform="translate(403,5)">3</text><text fill="black" text-anchor="middle" dy=".8em" transform="translate(461,5)">4</text></g></g><g><path d="M17,627h-17m9,-16h-9m9,-16h-9m9,-17h-9m9,-16h-9m17,-16h-17m9,-16h-9m9,-17h-9m9,-16h-9m9,-16h-9m17,-16h-17m9,-17h-9m9,-16h-9m9,-16h-9m9,-16h-9m17,-17h-17m9,-16h-9m9,-16h-9m9,-16h-9m9,-17h-9m17,-16h-17m9,-16h-9m9,-16h-9m9,-17h-9m9,-16h-9m17,-16h-17m9,-16h-9m9,-17h-9m9,-16h-9m9,-16h-9m17,-16h-17m9,-17h-9m9,-16h-9m9,-16h-9m9,-16h-9m17,-17h-17m9,-16h-9m9,-16h-9m9,-16h-9" style="stroke: black; stroke-width: 1;"></path><g font-family="Arial" font-size="20" space="preserve"><text fill="black" text-anchor="end" dy=".4em" transform="translate(-3,627)">0</text><text fill="black" text-anchor="end" dy=".4em" transform="translate(-3,546)">100</text><text fill="black" text-anchor="end" dy=".4em" transform="translate(-3,465)">200</text><text fill="black" text-anchor="end" dy=".4em" transform="translate(-3,383)">300</text><text fill="black" text-anchor="end" dy=".4em" transform="translate(-3,302)">400</text><text fill="black" text-anchor="end" dy=".4em" transform="translate(-3,221)">500</text><text fill="black" text-anchor="end" dy=".4em" transform="translate(-3,140)">600</text><text fill="black" text-anchor="end" dy=".4em" transform="translate(-3,58)">700</text></g></g></g></g><g objname="title" objtype="TPaveText" transform="translate(86,4)" font-family="Arial" font-size="24" space="preserve"><path d="M0,0h403v44h-403z" style="fill: none;"></path><text fill="black" text-anchor="middle" dy=".4em" transform="translate(202,22)" opacity="1">Option TEXT on 1D histograms </text></g><g objname="stats" objtype="TPaveStats" transform="translate(449,51)" font-family="Arial" font-size="12" space="preserve"><path d="M0,0h115v125h-115z" style="fill: white; stroke: black; stroke-width: 1;"></path><text fill="black" text-anchor="middle" dy=".4em" transform="translate(58,16)" opacity="1">htext1</text><text fill="black" text-anchor="start" dy=".4em" transform="translate(6,47)" opacity="1">Entries </text><text fill="black" text-anchor="end" dy=".4em" transform="translate(109,47)" opacity="1"> 25000</text><text fill="black" text-anchor="start" dy=".4em" transform="translate(6,78)" opacity="1">Mean </text><text fill="black" text-anchor="end" dy=".4em" transform="translate(109,78)" opacity="1"> -0.002480</text><text fill="black" text-anchor="start" dy=".4em" transform="translate(6,109)" opacity="1">Std Dev </text><text fill="black" text-anchor="end" dy=".4em" transform="translate(109,109)" opacity="1"> 0.9973</text><path d="M0,31h115" style="stroke: black; stroke-width: 1;"></path></g></g></g></g></svg>