<svg xmlns="http://www.w3.org/2000/svg" viewBox="0 0 596 372" preserveAspectRatio="none" width="596" height="372">
 <path d="M0,0H596V372H0Z" style="fill: white;"></path>
 <g>
  <g transform="translate(60,37)">
   <path d="M0,0H477V298H0Z" style="fill: white; stroke: black; stroke-width: 1;"></path>
   <svg x="0" y="0" overflow="hidden" width="477" height="298" viewBox="0 0 477 298">
    <g>
     <path d="M6,127h24v22h-24zM66,247h24v-98h-24zM125,176h24v-27h-24zM185,146h24v3h-24zM245,147h24v2h-24zM304,199h24v-50h-24zM364,187h24v-38h-24zM423,220h24v-71h-24z" style="fill: blue;"></path>
    </g>
    <g>
     <path d="M30,119h24v30h-24zM90,239h24v-90h-24zM149,168h24v-19h-24zM209,138h24v11h-24zM269,139h24v10h-24zM328,191h24v-42h-24zM388,179h24v-30h-24zM447,212h24v-63h-24z" style="fill: #7d99d1;"></path>
    </g>
   </svg>
   <g>
    <g transform="translate(0,298)">
     <path d="M0,0h477M0,-11V0M60,-11V0M119,-11V0M179,-11V0M239,-11V0M298,-11V0M358,-11V0M417,-11V0M477,-6V0" style="stroke: black; stroke-width: 1;"></path>
     <g font-family="Arial" font-size="9" space="preserve" fill="black" text-anchor="middle">
      <text dy=".8em" transform="translate(30,3)">
       8
      </text>
      <text dy=".8em" transform="translate(90,3)">
       32
      </text>
      <text dy=".8em" transform="translate(149,3)">
       128
      </text>
      <text dy=".8em" transform="translate(209,3)">
       512
      </text>
      <text dy=".8em" transform="translate(269,3)">
       2048
      </text>
      <text dy=".8em" transform="translate(328,3)">
       8192
      </text>
      <text dy=".8em" transform="translate(388,3)">
       32768
      </text>
      <text dy=".8em" transform="translate(447,3)">
       131072
      </text>
     </g>
    </g>
    <g>
     <path d="M0,0v298M18,298H0M9,292H0M9,286H0M9,280H0M9,274H0M18,268H0M9,262H0M9,256H0M9,250H0M9,244H0M18,238H0M9,232H0M9,226H0M9,221H0M9,215H0M18,209H0M9,203H0M9,197H0M9,191H0M9,185H0M18,179H0M9,173H0M9,167H0M9,161H0M9,155H0M18,149H0M9,143H0M9,137H0M9,131H0M9,125H0M18,119H0M9,113H0M9,107H0M9,101H0M9,95H0M18,89H0M9,83H0M9,77H0M9,72H0M9,66H0M18,60H0M9,54H0M9,48H0M9,42H0M9,36H0M18,30H0M9,24H0M9,18H0M9,12H0M9,6H0M18,0H0" style="stroke: black; stroke-width: 1;"></path>
     <g font-family="Arial" font-size="13" space="preserve" fill="black" text-anchor="end">
      <text dy=".4em" transform="translate(-3,298)">
       -5
      </text>
      <text dy=".4em" transform="translate(-3,268)">
       -4
      </text>
      <text dy=".4em" transform="translate(-3,238)">
       -3
      </text>
      <text dy=".4em" transform="translate(-3,209)">
       -2
      </text>
      <text dy=".4em" transform="translate(-3,179)">
       -1
      </text>
      <text dy=".4em" transform="translate(-3,149)">
       0
      </text>
      <text dy=".4em" transform="translate(-3,119)">
       1
      </text>
      <text dy=".4em" transform="translate(-3,89)">
       2
      </text>
      <text dy=".4em" transform="translate(-3,60)">
       3
      </text>
      <text dy=".4em" transform="translate(-3,30)">
       4
      </text>
      <text dy=".4em" transform="translate(-3)">
       5
      </text>
     </g>
    </g>
    <path d="M0,0v298M60,0v298M119,0v298M179,0v298M239,0v298M298,0v298M358,0v298M417,0v298M477,0v298" style="stroke: black; stroke-width: 1; stroke-dasharray: 1,2;"></path>
    <path d="M0,298h477M0,268h477M0,238h477M0,209h477M0,179h477M0,149h477M0,119h477M0,89h477M0,60h477M0,30h477M0,0h477" style="stroke: black; stroke-width: 1; stroke-dasharray: 1,2;"></path>
   </g>
  </g>
  <g transform="translate(211,2)" font-family="Arial" font-size="17" space="preserve">
   <text fill="black" text-anchor="middle" dy=".4em" transform="translate(87,12)">
    Option B example
   </text>
  </g>
 </g>
</svg>