<svg viewBox="0 0 1200 800" preserveAspectRatio="none" xmlns="http://www.w3.org/2000/svg" width="1200" height="800"><title>ROOT canvas</title><rect x="0" y="0" width="1200" height="800" style="fill: white;"></rect><g><g transform="translate(120,80)"><title></title><rect x="0" y="0" width="960" height="640" style="fill: white; stroke: black; stroke-width: 1;"></rect><svg x="0" y="0" overflow="hidden" width="960" height="640" viewBox="0 0 960 640"><g objname="he" objtype="TH1F"><path d="M0,636m0,3v-6m0,3h10m0,3v-6m0,3M5,633m3,0h-6m3,0v6m3,0h-6m3,0M11,633m0,3v-6m0,3h9m0,3v-6m0,3M15,630m3,0h-6m3,0v7m3,0h-6m3,0M19,638m0,3v-6m0,3h10m0,3v-6m0,3M24,636m3,0h-6m3,0v4m3,0h-6m3,0M30,629m0,3v-6m0,3h9m0,3v-6m0,3M34,624m3,0h-6m3,0v10m3,0h-6m3,0M38,629m0,3v-6m0,3h10m0,3v-6m0,3M43,624m3,0h-6m3,0v10m3,0h-6m3,0M48,625m0,3v-6m0,3h10m0,3v-6m0,3M53,619m3,0h-6m3,0v11m3,0h-6m3,0M59,614m0,3v-6m0,3h9m0,3v-6m0,3M63,606m3,0h-6m3,0v15m3,0h-6m3,0M67,631m0,3v-6m0,3h10m0,3v-6m0,3M72,627m3,0h-6m3,0v9m3,0h-6m3,0M78,618m0,3v-6m0,3h9m0,3v-6m0,3M82,611m3,0h-6m3,0v14m3,0h-6m3,0M86,607m0,3v-6m0,3h10m0,3v-6m0,3M91,599m3,0h-6m3,0v17m3,0h-6m3,0M96,616m0,3v-6m0,3h10m0,3v-6m0,3M101,609m3,0h-6m3,0v14m3,0h-6m3,0M107,620m0,3v-6m0,3h9m0,3v-6m0,3M111,614m3,0h-6m3,0v13m3,0h-6m3,0M115,607m0,3v-6m0,3h10m0,3v-6m0,3M120,599m3,0h-6m3,0v17m3,0h-6m3,0M126,575m0,3v-6m0,3h9m0,3v-6m0,3M130,563m3,0h-6m3,0v23m3,0h-6m3,0M134,583m0,3v-6m0,3h10m0,3v-6m0,3M139,572m3,0h-6m3,0v22m3,0h-6m3,0M144,570m0,3v-6m0,3h10m0,3v-6m0,3M149,558m3,0h-6m3,0v24m3,0h-6m3,0M155,566m0,3v-6m0,3h9m0,3v-6m0,3M159,553m3,0h-6m3,0v26m3,0h-6m3,0M163,550m0,3v-6m0,3h10m0,3v-6m0,3M168,537m3,0h-6m3,0v27m3,0h-6m3,0M174,583m0,3v-6m0,3h9m0,3v-6m0,3M178,572m3,0h-6m3,0v22m3,0h-6m3,0M182,553m0,3v-6m0,3h10m0,3v-6m0,3M187,539m3,0h-6m3,0v27m3,0h-6m3,0M192,529m0,3v-6m0,3h10m0,3v-6m0,3M197,513m3,0h-6m3,0v31m3,0h-6m3,0M203,518m0,3v-6m0,3h9m0,3v-6m0,3M207,501m3,0h-6m3,0v33m3,0h-6m3,0M211,507m0,3v-6m0,3h10m0,3v-6m0,3M216,490m3,0h-6m3,0v34m3,0h-6m3,0M222,483m0,3v-6m0,3h9m0,3v-6m0,3M226,464m3,0h-6m3,0v37m3,0h-6m3,0M230,459m0,3v-6m0,3h10m0,3v-6m0,3M235,439m3,0h-6m3,0v40m3,0h-6m3,0M240,481m0,3v-6m0,3h10m0,3v-6m0,3M245,462m3,0h-6m3,0v37m3,0h-6m3,0M251,424m0,3v-6m0,3h9m0,3v-6m0,3M255,402m3,0h-6m3,0v44m3,0h-6m3,0M259,459m0,3v-6m0,3h10m0,3v-6m0,3M264,439m3,0h-6m3,0v40m3,0h-6m3,0M270,389m0,3v-6m0,3h9m0,3v-6m0,3M274,366m3,0h-6m3,0v46m3,0h-6m3,0M278,422m0,3v-6m0,3h10m0,3v-6m0,3M283,400m3,0h-6m3,0v44m3,0h-6m3,0M288,396m0,3v-6m0,3h10m0,3v-6m0,3M293,372m3,0h-6m3,0v47m3,0h-6m3,0M299,361m0,3v-6m0,3h9m0,3v-6m0,3M303,336m3,0h-6m3,0v49m3,0h-6m3,0M307,347m0,3v-6m0,3h10m0,3v-6m0,3M312,322m3,0h-6m3,0v51m3,0h-6m3,0M318,337m0,3v-6m0,3h9m0,3v-6m0,3M322,311m3,0h-6m3,0v51m3,0h-6m3,0M326,302m0,3v-6m0,3h10m0,3v-6m0,3M331,274m3,0h-6m3,0v55m3,0h-6m3,0M336,291m0,3v-6m0,3h10m0,3v-6m0,3M341,263m3,0h-6m3,0v55m3,0h-6m3,0M347,223m0,3v-6m0,3h9m0,3v-6m0,3M351,193m3,0h-6m3,0v60m3,0h-6m3,0M355,230m0,3v-6m0,3h10m0,3v-6m0,3M360,200m3,0h-6m3,0v60m3,0h-6m3,0M366,249m0,3v-6m0,3h9m0,3v-6m0,3M370,220m3,0h-6m3,0v58m3,0h-6m3,0M374,219m0,3v-6m0,3h10m0,3v-6m0,3M379,188m3,0h-6m3,0v61m3,0h-6m3,0M384,217m0,3v-6m0,3h10m0,3v-6m0,3M389,186m3,0h-6m3,0v61m3,0h-6m3,0M395,195m0,3v-6m0,3h9m0,3v-6m0,3M399,163m3,0h-6m3,0v63m3,0h-6m3,0M403,142m0,3v-6m0,3h10m0,3v-6m0,3M408,109m3,0h-6m3,0v66m3,0h-6m3,0M414,123m0,3v-6m0,3h9m0,3v-6m0,3M418,89m3,0h-6m3,0v67m3,0h-6m3,0M422,107m0,3v-6m0,3h10m0,3v-6m0,3M427,73m3,0h-6m3,0v68m3,0h-6m3,0M432,199m0,3v-6m0,3h10m0,3v-6m0,3M437,168m3,0h-6m3,0v62m3,0h-6m3,0M443,136m0,3v-6m0,3h9m0,3v-6m0,3M447,103m3,0h-6m3,0v66m3,0h-6m3,0M451,149m0,3v-6m0,3h10m0,3v-6m0,3M456,116m3,0h-6m3,0v66m3,0h-6m3,0M462,103m0,3v-6m0,3h9m0,3v-6m0,3M466,69m3,0h-6m3,0v68m3,0h-6m3,0M470,107m0,3v-6m0,3h10m0,3v-6m0,3M475,73m3,0h-6m3,0v68m3,0h-6m3,0M480,88m0,3v-6m0,3h10m0,3v-6m0,3M485,53m3,0h-6m3,0v69m3,0h-6m3,0M491,66m0,3v-6m0,3h9m0,3v-6m0,3M495,30m3,0h-6m3,0v71m3,0h-6m3,0M499,175m0,3v-6m0,3h10m0,3v-6m0,3M504,143m3,0h-6m3,0v64m3,0h-6m3,0M510,134m0,3v-6m0,3h9m0,3v-6m0,3M514,100m3,0h-6m3,0v67m3,0h-6m3,0M518,120m0,3v-6m0,3h10m0,3v-6m0,3M523,87m3,0h-6m3,0v67m3,0h-6m3,0M528,138m0,3v-6m0,3h10m0,3v-6m0,3M533,105m3,0h-6m3,0v66m3,0h-6m3,0M539,186m0,3v-6m0,3h9m0,3v-6m0,3M543,154m3,0h-6m3,0v63m3,0h-6m3,0M547,166m0,3v-6m0,3h10m0,3v-6m0,3M552,134m3,0h-6m3,0v64m3,0h-6m3,0M558,175m0,3v-6m0,3h9m0,3v-6m0,3M562,143m3,0h-6m3,0v64m3,0h-6m3,0M566,206m0,3v-6m0,3h10m0,3v-6m0,3M571,175m3,0h-6m3,0v61m3,0h-6m3,0M576,223m0,3v-6m0,3h10m0,3v-6m0,3M581,193m3,0h-6m3,0v60m3,0h-6m3,0M587,223m0,3v-6m0,3h9m0,3v-6m0,3M591,193m3,0h-6m3,0v60m3,0h-6m3,0M595,247m0,3v-6m0,3h10m0,3v-6m0,3M600,218m3,0h-6m3,0v58m3,0h-6m3,0M606,247m0,3v-6m0,3h9m0,3v-6m0,3M610,218m3,0h-6m3,0v58m3,0h-6m3,0M614,234m0,3v-6m0,3h10m0,3v-6m0,3M619,204m3,0h-6m3,0v60m3,0h-6m3,0M624,271m0,3v-6m0,3h10m0,3v-6m0,3M629,243m3,0h-6m3,0v56m3,0h-6m3,0M635,330m0,3v-6m0,3h9m0,3v-6m0,3M639,304m3,0h-6m3,0v52m3,0h-6m3,0M643,332m0,3v-6m0,3h10m0,3v-6m0,3M648,306m3,0h-6m3,0v52m3,0h-6m3,0M654,350m0,3v-6m0,3h9m0,3v-6m0,3M658,324m3,0h-6m3,0v51m3,0h-6m3,0M662,409m0,3v-6m0,3h10m0,3v-6m0,3M667,386m3,0h-6m3,0v45m3,0h-6m3,0M672,321m0,3v-6m0,3h10m0,3v-6m0,3M677,295m3,0h-6m3,0v53m3,0h-6m3,0M683,409m0,3v-6m0,3h9m0,3v-6m0,3M687,386m3,0h-6m3,0v45m3,0h-6m3,0M691,441m0,3v-6m0,3h10m0,3v-6m0,3M696,421m3,0h-6m3,0v41m3,0h-6m3,0M702,457m0,3v-6m0,3h9m0,3v-6m0,3M706,437m3,0h-6m3,0v40m3,0h-6m3,0M710,468m0,3v-6m0,3h10m0,3v-6m0,3M715,448m3,0h-6m3,0v39m3,0h-6m3,0M720,507m0,3v-6m0,3h10m0,3v-6m0,3M725,490m3,0h-6m3,0v34m3,0h-6m3,0M731,500m0,3v-6m0,3h9m0,3v-6m0,3M735,483m3,0h-6m3,0v35m3,0h-6m3,0M739,526m0,3v-6m0,3h10m0,3v-6m0,3M744,511m3,0h-6m3,0v31m3,0h-6m3,0M750,531m0,3v-6m0,3h9m0,3v-6m0,3M754,515m3,0h-6m3,0v31m3,0h-6m3,0M758,570m0,3v-6m0,3h10m0,3v-6m0,3M763,558m3,0h-6m3,0v24m3,0h-6m3,0M768,522m0,3v-6m0,3h10m0,3v-6m0,3M773,506m3,0h-6m3,0v32m3,0h-6m3,0M779,559m0,3v-6m0,3h9m0,3v-6m0,3M783,546m3,0h-6m3,0v27m3,0h-6m3,0M787,575m0,3v-6m0,3h10m0,3v-6m0,3M792,563m3,0h-6m3,0v23m3,0h-6m3,0M798,553m0,3v-6m0,3h9m0,3v-6m0,3M802,539m3,0h-6m3,0v27m3,0h-6m3,0M806,581m0,3v-6m0,3h10m0,3v-6m0,3M811,570m3,0h-6m3,0v22m3,0h-6m3,0M816,577m0,3v-6m0,3h10m0,3v-6m0,3M821,565m3,0h-6m3,0v23m3,0h-6m3,0M827,603m0,3v-6m0,3h9m0,3v-6m0,3M831,594m3,0h-6m3,0v18m3,0h-6m3,0M835,588m0,3v-6m0,3h10m0,3v-6m0,3M840,577m3,0h-6m3,0v21m3,0h-6m3,0M846,588m0,3v-6m0,3h9m0,3v-6m0,3M850,577m3,0h-6m3,0v21m3,0h-6m3,0M854,603m0,3v-6m0,3h10m0,3v-6m0,3M859,594m3,0h-6m3,0v18m3,0h-6m3,0M864,620m0,3v-6m0,3h10m0,3v-6m0,3M869,614m3,0h-6m3,0v13m3,0h-6m3,0M875,618m0,3v-6m0,3h9m0,3v-6m0,3M879,611m3,0h-6m3,0v14m3,0h-6m3,0M883,614m0,3v-6m0,3h10m0,3v-6m0,3M888,606m3,0h-6m3,0v15m3,0h-6m3,0M894,612m0,3v-6m0,3h9m0,3v-6m0,3M898,604m3,0h-6m3,0v15m3,0h-6m3,0M902,631m0,3v-6m0,3h10m0,3v-6m0,3M907,627m3,0h-6m3,0v9m3,0h-6m3,0M912,636m0,3v-6m0,3h10m0,3v-6m0,3M917,633m3,0h-6m3,0v6m3,0h-6m3,0M923,629m0,3v-6m0,3h9m0,3v-6m0,3M927,624m3,0h-6m3,0v10m3,0h-6m3,0M931,631m0,3v-6m0,3h10m0,3v-6m0,3M936,627m3,0h-6m3,0v9m3,0h-6m3,0M942,633m0,3v-6m0,3h9m0,3v-6m0,3M946,630m3,0h-6m3,0v7m3,0h-6m3,0M950,631m0,3v-6m0,3h10m0,3v-6m0,3M955,627m3,0h-6m3,0v9m3,0h-6m3,0" style="stroke: rgb(0,0,153); stroke-width: 1;"></path><path d="M1,636a4,4 0 1,0 8,0a4,4 0 1,0 -8,0zM11,633a4,4 0 1,0 8,0a4,4 0 1,0 -8,0zM20,638a4,4 0 1,0 8,0a4,4 0 1,0 -8,0zM30,629a4,4 0 1,0 8,0a4,4 0 1,0 -8,0zM39,629a4,4 0 1,0 8,0a4,4 0 1,0 -8,0zM49,625a4,4 0 1,0 8,0a4,4 0 1,0 -8,0zM59,614a4,4 0 1,0 8,0a4,4 0 1,0 -8,0zM68,631a4,4 0 1,0 8,0a4,4 0 1,0 -8,0zM78,618a4,4 0 1,0 8,0a4,4 0 1,0 -8,0zM87,607a4,4 0 1,0 8,0a4,4 0 1,0 -8,0zM97,616a4,4 0 1,0 8,0a4,4 0 1,0 -8,0zM107,620a4,4 0 1,0 8,0a4,4 0 1,0 -8,0zM116,607a4,4 0 1,0 8,0a4,4 0 1,0 -8,0zM126,575a4,4 0 1,0 8,0a4,4 0 1,0 -8,0zM135,583a4,4 0 1,0 8,0a4,4 0 1,0 -8,0zM145,570a4,4 0 1,0 8,0a4,4 0 1,0 -8,0zM155,566a4,4 0 1,0 8,0a4,4 0 1,0 -8,0zM164,550a4,4 0 1,0 8,0a4,4 0 1,0 -8,0zM174,583a4,4 0 1,0 8,0a4,4 0 1,0 -8,0zM183,553a4,4 0 1,0 8,0a4,4 0 1,0 -8,0zM193,529a4,4 0 1,0 8,0a4,4 0 1,0 -8,0zM203,518a4,4 0 1,0 8,0a4,4 0 1,0 -8,0zM212,507a4,4 0 1,0 8,0a4,4 0 1,0 -8,0zM222,483a4,4 0 1,0 8,0a4,4 0 1,0 -8,0zM231,459a4,4 0 1,0 8,0a4,4 0 1,0 -8,0zM241,481a4,4 0 1,0 8,0a4,4 0 1,0 -8,0zM251,424a4,4 0 1,0 8,0a4,4 0 1,0 -8,0zM260,459a4,4 0 1,0 8,0a4,4 0 1,0 -8,0zM270,389a4,4 0 1,0 8,0a4,4 0 1,0 -8,0zM279,422a4,4 0 1,0 8,0a4,4 0 1,0 -8,0zM289,396a4,4 0 1,0 8,0a4,4 0 1,0 -8,0zM299,361a4,4 0 1,0 8,0a4,4 0 1,0 -8,0zM308,347a4,4 0 1,0 8,0a4,4 0 1,0 -8,0zM318,337a4,4 0 1,0 8,0a4,4 0 1,0 -8,0zM327,302a4,4 0 1,0 8,0a4,4 0 1,0 -8,0zM337,291a4,4 0 1,0 8,0a4,4 0 1,0 -8,0zM347,223a4,4 0 1,0 8,0a4,4 0 1,0 -8,0zM356,230a4,4 0 1,0 8,0a4,4 0 1,0 -8,0zM366,249a4,4 0 1,0 8,0a4,4 0 1,0 -8,0zM375,219a4,4 0 1,0 8,0a4,4 0 1,0 -8,0zM385,217a4,4 0 1,0 8,0a4,4 0 1,0 -8,0zM395,195a4,4 0 1,0 8,0a4,4 0 1,0 -8,0zM404,142a4,4 0 1,0 8,0a4,4 0 1,0 -8,0zM414,123a4,4 0 1,0 8,0a4,4 0 1,0 -8,0zM423,107a4,4 0 1,0 8,0a4,4 0 1,0 -8,0zM433,199a4,4 0 1,0 8,0a4,4 0 1,0 -8,0zM443,136a4,4 0 1,0 8,0a4,4 0 1,0 -8,0zM452,149a4,4 0 1,0 8,0a4,4 0 1,0 -8,0zM462,103a4,4 0 1,0 8,0a4,4 0 1,0 -8,0zM471,107a4,4 0 1,0 8,0a4,4 0 1,0 -8,0zM481,88a4,4 0 1,0 8,0a4,4 0 1,0 -8,0zM491,66a4,4 0 1,0 8,0a4,4 0 1,0 -8,0zM500,175a4,4 0 1,0 8,0a4,4 0 1,0 -8,0zM510,134a4,4 0 1,0 8,0a4,4 0 1,0 -8,0zM519,120a4,4 0 1,0 8,0a4,4 0 1,0 -8,0zM529,138a4,4 0 1,0 8,0a4,4 0 1,0 -8,0zM539,186a4,4 0 1,0 8,0a4,4 0 1,0 -8,0zM548,166a4,4 0 1,0 8,0a4,4 0 1,0 -8,0zM558,175a4,4 0 1,0 8,0a4,4 0 1,0 -8,0zM567,206a4,4 0 1,0 8,0a4,4 0 1,0 -8,0zM577,223a4,4 0 1,0 8,0a4,4 0 1,0 -8,0zM587,223a4,4 0 1,0 8,0a4,4 0 1,0 -8,0zM596,247a4,4 0 1,0 8,0a4,4 0 1,0 -8,0zM606,247a4,4 0 1,0 8,0a4,4 0 1,0 -8,0zM615,234a4,4 0 1,0 8,0a4,4 0 1,0 -8,0zM625,271a4,4 0 1,0 8,0a4,4 0 1,0 -8,0zM635,330a4,4 0 1,0 8,0a4,4 0 1,0 -8,0zM644,332a4,4 0 1,0 8,0a4,4 0 1,0 -8,0zM654,350a4,4 0 1,0 8,0a4,4 0 1,0 -8,0zM663,409a4,4 0 1,0 8,0a4,4 0 1,0 -8,0zM673,321a4,4 0 1,0 8,0a4,4 0 1,0 -8,0zM683,409a4,4 0 1,0 8,0a4,4 0 1,0 -8,0zM692,441a4,4 0 1,0 8,0a4,4 0 1,0 -8,0zM702,457a4,4 0 1,0 8,0a4,4 0 1,0 -8,0zM711,468a4,4 0 1,0 8,0a4,4 0 1,0 -8,0zM721,507a4,4 0 1,0 8,0a4,4 0 1,0 -8,0zM731,500a4,4 0 1,0 8,0a4,4 0 1,0 -8,0zM740,526a4,4 0 1,0 8,0a4,4 0 1,0 -8,0zM750,531a4,4 0 1,0 8,0a4,4 0 1,0 -8,0zM759,570a4,4 0 1,0 8,0a4,4 0 1,0 -8,0zM769,522a4,4 0 1,0 8,0a4,4 0 1,0 -8,0zM779,559a4,4 0 1,0 8,0a4,4 0 1,0 -8,0zM788,575a4,4 0 1,0 8,0a4,4 0 1,0 -8,0zM798,553a4,4 0 1,0 8,0a4,4 0 1,0 -8,0zM807,581a4,4 0 1,0 8,0a4,4 0 1,0 -8,0zM817,577a4,4 0 1,0 8,0a4,4 0 1,0 -8,0zM827,603a4,4 0 1,0 8,0a4,4 0 1,0 -8,0zM836,588a4,4 0 1,0 8,0a4,4 0 1,0 -8,0zM846,588a4,4 0 1,0 8,0a4,4 0 1,0 -8,0zM855,603a4,4 0 1,0 8,0a4,4 0 1,0 -8,0zM865,620a4,4 0 1,0 8,0a4,4 0 1,0 -8,0zM875,618a4,4 0 1,0 8,0a4,4 0 1,0 -8,0zM884,614a4,4 0 1,0 8,0a4,4 0 1,0 -8,0zM894,612a4,4 0 1,0 8,0a4,4 0 1,0 -8,0zM903,631a4,4 0 1,0 8,0a4,4 0 1,0 -8,0zM913,636a4,4 0 1,0 8,0a4,4 0 1,0 -8,0zM923,629a4,4 0 1,0 8,0a4,4 0 1,0 -8,0zM932,631a4,4 0 1,0 8,0a4,4 0 1,0 -8,0zM942,633a4,4 0 1,0 8,0a4,4 0 1,0 -8,0zM951,631a4,4 0 1,0 8,0a4,4 0 1,0 -8,0z" style="stroke: black; fill: black;"></path></g></svg><g><g transform="translate(0,640)"><path d="M0,-24v24m32,-12v12m32,-12v12m32,-12v12m32,-12v12m32,-24v24m32,-12v12m32,-12v12m32,-12v12m32,-12v12m32,-24v24m32,-12v12m32,-12v12m32,-12v12m32,-12v12m32,-24v24m32,-12v12m32,-12v12m32,-12v12m32,-12v12m32,-24v24m32,-12v12m32,-12v12m32,-12v12m32,-12v12m32,-24v24m32,-12v12m32,-12v12m32,-12v12m32,-12v12" style="stroke: black; stroke-width: 1;"></path><g font-family="Arial" font-size="28" space="preserve"><text fill="black" x="0" y="9" dy=".7em" style="text-anchor: middle;">-3</text><text fill="black" x="160" y="9" dy=".7em" style="text-anchor: middle;">-2</text><text fill="black" x="320" y="9" dy=".7em" style="text-anchor: middle;">-1</text><text fill="black" x="480" y="9" dy=".7em" style="text-anchor: middle;">0</text><text fill="black" x="640" y="9" dy=".7em" style="text-anchor: middle;">1</text><text fill="black" x="800" y="9" dy=".7em" style="text-anchor: middle;">2</text></g></g><g><path d="M36,640h-36m18,-22h-18m18,-22h-18m18,-21h-18m18,-22h-18m36,-22h-36m18,-22h-18m18,-22h-18m18,-22h-18m18,-21h-18m36,-22h-36m18,-22h-18m18,-22h-18m18,-22h-18m18,-22h-18m36,-21h-36m18,-22h-18m18,-22h-18m18,-22h-18m18,-22h-18m36,-22h-36m18,-21h-18m18,-22h-18m18,-22h-18m18,-22h-18m36,-22h-36m18,-22h-18m18,-21h-18m18,-22h-18m18,-22h-18" style="stroke: black; stroke-width: 1;"></path><g font-family="Arial" font-size="28" space="preserve"><text fill="black" x="-9" y="640" style="text-anchor: end; dominant-baseline: middle;">0</text><text fill="black" x="-9" y="531" style="text-anchor: end; dominant-baseline: middle;">50</text><text fill="black" x="-9" y="422" style="text-anchor: end; dominant-baseline: middle;">100</text><text fill="black" x="-9" y="313" style="text-anchor: end; dominant-baseline: middle;">150</text><text fill="black" x="-9" y="203" style="text-anchor: end; dominant-baseline: middle;">200</text><text fill="black" x="-9" y="94" style="text-anchor: end; dominant-baseline: middle;">250</text></g></g></g></g><g objname="stats" objtype="TPaveStats" transform="translate(936,52)" font-family="Arial" font-size="25" space="preserve"><path d="M0,0h240v128h-240z" style="fill: white; stroke: black; stroke-width: 1;"></path><text text-anchor="middle" x="0" y="0" fill="black" transform="translate(120,17)" dominant-baseline="middle" opacity="1">he</text><text text-anchor="start" x="0" y="0" fill="black" transform="translate(12,49)" dominant-baseline="middle" opacity="1">Entries </text><text text-anchor="end" x="0" y="0" fill="black" transform="translate(228,49)" dominant-baseline="middle" opacity="1"> 10000</text><text text-anchor="start" x="0" y="0" fill="black" transform="translate(12,81)" dominant-baseline="middle" opacity="1">Mean </text><text text-anchor="end" x="0" y="0" fill="black" transform="translate(228,81)" dominant-baseline="middle" opacity="1"> 0.005200</text><text text-anchor="start" x="0" y="0" fill="black" transform="translate(12,113)" dominant-baseline="middle" opacity="1">Std Dev </text><text text-anchor="end" x="0" y="0" fill="black" transform="translate(228,113)" dominant-baseline="middle" opacity="1"> 0.9813</text><path d="M0,32h240" style="stroke: black; stroke-width: 1;"></path></g><g objname="title" objtype="TPaveText" transform="translate(180,4)" font-family="Arial" font-size="31" space="preserve"><path d="M0,0h840v49h-840z" style="fill: none;"></path><text text-anchor="middle" x="0" y="0" fill="black" transform="translate(420,26)" dominant-baseline="middle" opacity="1">Distribution drawn with error bars (option E1)  </text></g></g></svg>