<svg xmlns="http://www.w3.org/2000/svg" viewBox="0 0 1200 800" preserveAspectRatio="none" width="1200" height="800">
 <title>
  ROOT canvas
 </title>
 <rect x="0" y="0" width="1200" height="800" style="fill: none;"></rect>
 <g>
  <g transform="translate(120,80)">
   <title></title>
   <rect x="0" y="0" width="960" height="640" style="fill: white; stroke: black; stroke-width: 1;"></rect>
   <svg x="0" y="0" overflow="hidden" width="960" height="640" viewBox="0 0 960 640">
    <g>
     <path d="M19,639h10M24,638v2M67,638h10M72,637v2M78,637h9M82,636v3M86,637h10M91,636v3M96,635h10M101,633v4M107,637h9M111,635v3M115,632h10M120,630v5M126,630h9M130,628v5M134,630h10M139,627v5M144,624h10M149,621v7M155,625h9M159,622v6M163,617h10M168,614v7M174,613h9M178,609v9M182,602h10M187,597v10M192,607h10M197,602v10M203,593h9M207,587v12M211,599h10M216,594v10M222,582h9M226,576v12M230,561h10M235,554v15M240,561h10M245,553v15M251,557h9M255,550v15M259,523h10M264,514v17M270,517h9M274,508v18M278,506h10M283,497v19M288,490h10M293,480v21M299,445h9M303,433v23M307,442h10M312,430v24M318,417h9M322,405v25M326,406h10M331,393v25M336,370h10M341,357v27M347,357h9M351,343v27M355,307h10M360,292v30M366,274h9M370,258v32M374,273h10M379,257v32M384,236h10M389,219v33M395,210h9M399,193v34M403,143h10M408,124v37M414,173h9M418,156v35M422,122h10M427,103v37M432,165h10M437,147v36M443,114h9M447,95v38M451,87h10M456,68v39M462,104h9M466,85v38M470,128h10M475,109v37M480,93h10M485,74v38M491,51h9M495,30v41M499,120h10M504,101v38M510,123h9M514,104v38M518,135h10M523,116v37M528,138h10M533,119v37M539,186h9M543,168v35M547,202h10M552,185v34M558,214h9M562,197v34M566,238h10M571,221v33M576,253h10M581,236v33M587,262h9M591,246v32M595,297h10M600,282v30M606,339h9M610,325v29M614,352h10M619,338v28M624,372h10M629,359v27M635,433h9M639,421v24M643,427h10M648,415v24M654,455h9M658,444v22M662,479h10M667,468v21M672,493h10M677,483v20M683,514h9M687,505v19M691,532h10M696,523v18M702,554h9M706,546v16M710,553h10M715,545v15M720,574h10M725,567v13M731,579h9M735,573v13M739,594h10M744,589v11M750,597h9M754,592v10M758,609h10M763,604v9M768,616h10M773,612v8M779,608h9M783,603v10M787,620h10M792,616v7M798,624h9M802,621v7M806,628h10M811,626v5M816,628h10M821,626v5M827,632h9M831,629v5M835,631h10M840,629v5M846,638h9M850,637v2M854,635h10M859,633v3M864,636h10M869,634v4M875,639h9M879,638v2M883,639h10M888,638v2M894,639h9M898,638v2M950,639h10M955,639v1" style="stroke: rgb(0,0,154); stroke-width: 1;"></path>
    </g>
   </svg>
   <g>
    <g transform="translate(0,640)">
     <line x1="0" y1="0" x2="960" y2="0" style="stroke: black; stroke-width: 1;"></line>
     <path d="M0,-24v24m24,-12v12m24,-12v12m24,-12v12m24,-12v12m24,-24v24m24,-12v12m24,-12v12m24,-12v12m24,-12v12m24,-24v24m24,-12v12m24,-12v12m24,-12v12m24,-12v12m24,-24v24m24,-12v12m24,-12v12m24,-12v12m24,-12v12m24,-24v24m24,-12v12m24,-12v12m24,-12v12m24,-12v12m24,-24v24m24,-12v12m24,-12v12m24,-12v12m24,-12v12m24,-24v24m24,-12v12m24,-12v12m24,-12v12m24,-12v12m24,-24v24m24,-12v12m24,-12v12m24,-12v12m24,-12v12m24,-24v24" style="stroke: black; stroke-width: 1;"></path>
     <g font-family="Arial" font-size="28" space="preserve">
      <text fill="black" text-anchor="middle" dy=".8em" transform="translate(0,6)">
       -4
      </text>
      <text fill="black" text-anchor="middle" dy=".8em" transform="translate(120,6)">
       -3
      </text>
      <text fill="black" text-anchor="middle" dy=".8em" transform="translate(240,6)">
       -2
      </text>
      <text fill="black" text-anchor="middle" dy=".8em" transform="translate(360,6)">
       -1
      </text>
      <text fill="black" text-anchor="middle" dy=".8em" transform="translate(480,6)">
       0
      </text>
      <text fill="black" text-anchor="middle" dy=".8em" transform="translate(600,6)">
       1
      </text>
      <text fill="black" text-anchor="middle" dy=".8em" transform="translate(720,6)">
       2
      </text>
      <text fill="black" text-anchor="middle" dy=".8em" transform="translate(840,6)">
       3
      </text>
      <text fill="black" text-anchor="middle" dy=".8em" transform="translate(960,6)">
       4
      </text>
     </g>
    </g>
    <g>
     <line x1="0" y1="0" x2="0" y2="640" style="stroke: black; stroke-width: 1;"></line>
     <path d="M36,640h-36m18,-14h-18m18,-13h-18m18,-14h-18m18,-14h-18m36,-13h-36m18,-14h-18m18,-14h-18m18,-13h-18m18,-14h-18m36,-14h-36m18,-13h-18m18,-14h-18m18,-14h-18m18,-13h-18m36,-14h-36m18,-14h-18m18,-13h-18m18,-14h-18m18,-14h-18m36,-13h-36m18,-14h-18m18,-14h-18m18,-13h-18m18,-14h-18m36,-14h-36m18,-13h-18m18,-14h-18m18,-13h-18m18,-14h-18m36,-14h-36m18,-13h-18m18,-14h-18m18,-14h-18m18,-13h-18m36,-14h-36m18,-14h-18m18,-13h-18m18,-14h-18m18,-14h-18m36,-13h-36m18,-14h-18m18,-14h-18m18,-13h-18m18,-14h-18m36,-14h-36m18,-13h-18" style="stroke: black; stroke-width: 1;"></path>
     <g font-family="Arial" font-size="28" space="preserve">
      <text fill="black" text-anchor="end" dy=".4em" transform="translate(-4,640)">
       0
      </text>
      <text fill="black" text-anchor="end" dy=".4em" transform="translate(-4,572)">
       100
      </text>
      <text fill="black" text-anchor="end" dy=".4em" transform="translate(-4,503)">
       200
      </text>
      <text fill="black" text-anchor="end" dy=".4em" transform="translate(-4,435)">
       300
      </text>
      <text fill="black" text-anchor="end" dy=".4em" transform="translate(-4,367)">
       400
      </text>
      <text fill="black" text-anchor="end" dy=".4em" transform="translate(-4,298)">
       500
      </text>
      <text fill="black" text-anchor="end" dy=".4em" transform="translate(-4,230)">
       600
      </text>
      <text fill="black" text-anchor="end" dy=".4em" transform="translate(-4,162)">
       700
      </text>
      <text fill="black" text-anchor="end" dy=".4em" transform="translate(-4,94)">
       800
      </text>
      <text fill="black" text-anchor="end" dy=".4em" transform="translate(-4,25)">
       900
      </text>
     </g>
    </g>
   </g>
  </g>
  <g transform="translate(120,4)" font-family="Arial" font-size="40" space="preserve">
   <path d="M0,0h960v53h-960z" style="fill: none;"></path>
   <text fill="black" text-anchor="middle" dy=".8em" transform="translate(480,0)">
    This is the px distribution
   </text>
  </g>
  <g transform="translate(936,52)" font-family="Arial" font-size="26" space="preserve">
   <path d="M0,0h240v128h-240z" style="fill: white; stroke: black; stroke-width: 1;"></path>
   <text fill="black" text-anchor="middle" dy=".4em" transform="translate(120,16)">
    hpx
   </text>
   <text fill="black" text-anchor="start" dy=".4em" transform="translate(12,48)">
    Entries
   </text>
   <text fill="black" text-anchor="end" dy=".4em" transform="translate(228,48)">
    25000
   </text>
   <text fill="black" text-anchor="start" dy=".4em" transform="translate(12,80)">
    Mean
   </text>
   <text fill="black" text-anchor="end" dy=".4em" transform="translate(228,80)">
    0.003163
   </text>
   <text fill="black" text-anchor="start" dy=".4em" transform="translate(12,112)">
    Std Dev
   </text>
   <text fill="black" text-anchor="end" dy=".4em" transform="translate(228,112)">
    1.004
   </text>
   <path d="M0,32h240" style="stroke: black; stroke-width: 1;"></path>
  </g>
 </g>
</svg>