<svg xmlns="http://www.w3.org/2000/svg" viewBox="0 0 1200 800" preserveAspectRatio="none" width="1200" height="800">
 <path d="M0,0H1200V800H0Z" style="fill: white;"></path>
 <g>
  <g transform="translate(120,80)">
   <path d="M0,0H960V640H0Z" style="fill: white; stroke: black; stroke-width: 1;"></path>
   <svg x="0" y="0" overflow="hidden" width="960" height="640" viewBox="0 0 960 640">
    <g>
     <path d="M19,639h10M24,638v2M67,638h10M72,637v2M77,637h10M82,636v3M86,637h10M91,636v3M96,635h10M101,633v4M106,637h10M111,635v3M115,632h10M120,630v5M125,630h10M130,628v5M134,630h10M139,627v5M144,624h10M149,621v7M154,625h10M159,622v6M163,617h10M168,614v7M173,613h10M178,609v9M182,602h10M187,597v10M192,607h10M197,602v10M202,593h10M207,587v12M211,599h10M216,594v10M221,582h10M226,576v12M230,561h10M235,554v15M240,561h10M245,553v15M250,557h10M255,550v15M259,523h10M264,514v17M269,517h10M274,508v18M278,506h10M283,497v19M288,490h10M293,480v21M298,445h10M303,433v23M307,442h10M312,430v24M317,417h10M322,405v25M326,406h10M331,393v25M336,370h10M341,357v27M346,357h10M351,343v27M355,307h10M360,292v30M365,274h10M370,258v32M374,273h10M379,257v32M384,236h10M389,219v33M394,210h10M399,193v34M403,143h10M408,124v37M413,173h10M418,156v35M422,122h10M427,103v37M432,165h10M437,147v36M442,114h10M447,95v38M451,87h10M456,68v39M461,104h10M466,85v38M470,128h10M475,109v37M480,93h10M485,74v38M490,51h10M495,30v41M499,120h10M504,101v38M509,123h10M514,104v38M518,135h10M523,116v37M528,138h10M533,119v37M538,186h10M543,168v35M547,202h10M552,185v34M557,214h10M562,197v34M566,238h10M571,221v33M576,253h10M581,236v33M586,262h10M591,246v32M595,297h10M600,282v30M605,339h10M610,325v29M614,352h10M619,338v28M624,372h10M629,359v27M634,433h10M639,421v24M643,427h10M648,415v24M653,455h10M658,444v22M662,479h10M667,468v21M672,493h10M677,483v20M682,514h10M687,505v19M691,532h10M696,523v18M701,554h10M706,546v16M710,553h10M715,545v15M720,574h10M725,567v13M730,579h10M735,573v13M739,594h10M744,589v11M749,597h10M754,592v10M758,609h10M763,604v9M768,616h10M773,612v8M778,608h10M783,603v10M787,620h10M792,616v7M797,624h10M802,621v7M806,628h10M811,626v5M816,628h10M821,626v5M826,632h10M831,629v5M835,631h10M840,629v5M845,638h10M850,637v2M854,635h10M859,633v3M864,636h10M869,634v4M874,639h10M879,638v2M883,639h10M888,638v2M893,639h10M898,638v2M950,639h10M955,639v1" style="stroke: #00009a; stroke-width: 1;"></path>
    </g>
   </svg>
   <g>
    <g transform="translate(0,640)">
     <path d="M0,0h960M0,-24V0M24,-12V0M48,-12V0M72,-12V0M96,-12V0M120,-24V0M144,-12V0M168,-12V0M192,-12V0M216,-12V0M240,-24V0M264,-12V0M288,-12V0M312,-12V0M336,-12V0M360,-24V0M384,-12V0M408,-12V0M432,-12V0M456,-12V0M480,-24V0M504,-12V0M528,-12V0M552,-12V0M576,-12V0M600,-24V0M624,-12V0M648,-12V0M672,-12V0M696,-12V0M720,-24V0M744,-12V0M768,-12V0M792,-12V0M816,-12V0M840,-24V0M864,-12V0M888,-12V0M912,-12V0M936,-12V0M960,-24V0" style="stroke: black; stroke-width: 1;"></path>
     <g font-family="Arial" font-size="28" space="preserve" fill="black" text-anchor="middle">
      <text dy=".8em" transform="translate(0,5)">
       -4
      </text>
      <text dy=".8em" transform="translate(120,5)">
       -3
      </text>
      <text dy=".8em" transform="translate(240,5)">
       -2
      </text>
      <text dy=".8em" transform="translate(360,5)">
       -1
      </text>
      <text dy=".8em" transform="translate(480,5)">
       0
      </text>
      <text dy=".8em" transform="translate(600,5)">
       1
      </text>
      <text dy=".8em" transform="translate(720,5)">
       2
      </text>
      <text dy=".8em" transform="translate(840,5)">
       3
      </text>
      <text dy=".8em" transform="translate(960,5)">
       4
      </text>
     </g>
    </g>
    <g>
     <path d="M0,0v640M36,640H0M18,626H0M18,613H0M18,599H0M18,585H0M36,572H0M18,558H0M18,544H0M18,531H0M18,517H0M36,503H0M18,490H0M18,476H0M18,462H0M18,449H0M36,435H0M18,421H0M18,408H0M18,394H0M18,380H0M36,367H0M18,353H0M18,339H0M18,326H0M18,312H0M36,298H0M18,285H0M18,271H0M18,258H0M18,244H0M36,230H0M18,217H0M18,203H0M18,189H0M18,176H0M36,162H0M18,148H0M18,135H0M18,121H0M18,107H0M36,94H0M18,80H0M18,66H0M18,53H0M18,39H0M36,25H0M18,12H0" style="stroke: black; stroke-width: 1;"></path>
     <g font-family="Arial" font-size="28" space="preserve" fill="black" text-anchor="end">
      <text dy=".4em" transform="translate(-6,640)">
       0
      </text>
      <text dy=".4em" transform="translate(-6,572)">
       100
      </text>
      <text dy=".4em" transform="translate(-6,503)">
       200
      </text>
      <text dy=".4em" transform="translate(-6,435)">
       300
      </text>
      <text dy=".4em" transform="translate(-6,367)">
       400
      </text>
      <text dy=".4em" transform="translate(-6,298)">
       500
      </text>
      <text dy=".4em" transform="translate(-6,230)">
       600
      </text>
      <text dy=".4em" transform="translate(-6,162)">
       700
      </text>
      <text dy=".4em" transform="translate(-6,94)">
       800
      </text>
      <text dy=".4em" transform="translate(-6,25)">
       900
      </text>
     </g>
    </g>
   </g>
  </g>
  <g transform="translate(120,4)" font-family="Arial" font-size="40" space="preserve">
   <text fill="black" text-anchor="middle" dy=".8em" transform="translate(480)">
    This is the px distribution
   </text>
  </g>
  <g transform="translate(936,52)" font-family="Arial" font-size="25" space="preserve" fill="black">
   <path d="M0,0H240V128H0Z" style="fill: white; stroke: black; stroke-width: 1;"></path>
   <text text-anchor="middle" dy=".4em" transform="translate(120,16)">
    hpx
   </text>
   <text text-anchor="start" dy=".4em" transform="translate(12,48)">
    Entries
   </text>
   <text text-anchor="end" dy=".4em" transform="translate(228,48)">
    25000
   </text>
   <text text-anchor="start" dy=".4em" transform="translate(12,80)">
    Mean
   </text>
   <text text-anchor="end" dy=".4em" transform="translate(228,80)">
    0.003163
   </text>
   <text text-anchor="start" dy=".4em" transform="translate(12,112)">
    Std Dev
   </text>
   <text text-anchor="end" dy=".4em" transform="translate(228,112)">
    1.004
   </text>
   <path d="M0,32h240" style="stroke: black; stroke-width: 1;"></path>
  </g>
 </g>
</svg>