<svg viewBox="0 0 1200 800" preserveAspectRatio="none" xmlns="http://www.w3.org/2000/svg" width="1200" height="800"><title>ROOT canvas</title><rect x="0" y="0" width="1200" height="800" style="fill: none;"></rect><g transform="translate(120,80)"><title></title><rect x="0" y="0" width="960" height="640" style="fill: white; stroke: black; stroke-width: 1;"></rect><svg x="0" y="0" overflow="hidden" width="960" height="640" viewBox="0 0 960 640"><g objname="hpx" objtype="TH1F"><path d="M19,639m0,3v-6m0,3h10m0,3v-6m0,3M24,638m3,0h-6m3,0v2m3,0h-6m3,0M67,638m0,3v-6m0,3h10m0,3v-6m0,3M72,637m3,0h-6m3,0v2m3,0h-6m3,0M78,637m0,3v-6m0,3h9m0,3v-6m0,3M82,636m3,0h-6m3,0v3m3,0h-6m3,0M86,637m0,3v-6m0,3h10m0,3v-6m0,3M91,636m3,0h-6m3,0v3m3,0h-6m3,0M96,635m0,3v-6m0,3h10m0,3v-6m0,3M101,633m3,0h-6m3,0v4m3,0h-6m3,0M107,637m0,3v-6m0,3h9m0,3v-6m0,3M111,635m3,0h-6m3,0v3m3,0h-6m3,0M115,632m0,3v-6m0,3h10m0,3v-6m0,3M120,630m3,0h-6m3,0v5m3,0h-6m3,0M126,630m0,3v-6m0,3h9m0,3v-6m0,3M130,628m3,0h-6m3,0v5m3,0h-6m3,0M134,630m0,3v-6m0,3h10m0,3v-6m0,3M139,627m3,0h-6m3,0v5m3,0h-6m3,0M144,624m0,3v-6m0,3h10m0,3v-6m0,3M149,621m3,0h-6m3,0v7m3,0h-6m3,0M155,625m0,3v-6m0,3h9m0,3v-6m0,3M159,622m3,0h-6m3,0v6m3,0h-6m3,0M163,617m0,3v-6m0,3h10m0,3v-6m0,3M168,614m3,0h-6m3,0v7m3,0h-6m3,0M174,613m0,3v-6m0,3h9m0,3v-6m0,3M178,609m3,0h-6m3,0v9m3,0h-6m3,0M182,602m0,3v-6m0,3h10m0,3v-6m0,3M187,597m3,0h-6m3,0v10m3,0h-6m3,0M192,607m0,3v-6m0,3h10m0,3v-6m0,3M197,602m3,0h-6m3,0v10m3,0h-6m3,0M203,593m0,3v-6m0,3h9m0,3v-6m0,3M207,587m3,0h-6m3,0v12m3,0h-6m3,0M211,599m0,3v-6m0,3h10m0,3v-6m0,3M216,594m3,0h-6m3,0v10m3,0h-6m3,0M222,582m0,3v-6m0,3h9m0,3v-6m0,3M226,576m3,0h-6m3,0v12m3,0h-6m3,0M230,561m0,3v-6m0,3h10m0,3v-6m0,3M235,554m3,0h-6m3,0v15m3,0h-6m3,0M240,561m0,3v-6m0,3h10m0,3v-6m0,3M245,553m3,0h-6m3,0v15m3,0h-6m3,0M251,557m0,3v-6m0,3h9m0,3v-6m0,3M255,550m3,0h-6m3,0v15m3,0h-6m3,0M259,523m0,3v-6m0,3h10m0,3v-6m0,3M264,514m3,0h-6m3,0v17m3,0h-6m3,0M270,517m0,3v-6m0,3h9m0,3v-6m0,3M274,508m3,0h-6m3,0v18m3,0h-6m3,0M278,506m0,3v-6m0,3h10m0,3v-6m0,3M283,497m3,0h-6m3,0v19m3,0h-6m3,0M288,490m0,3v-6m0,3h10m0,3v-6m0,3M293,480m3,0h-6m3,0v21m3,0h-6m3,0M299,445m0,3v-6m0,3h9m0,3v-6m0,3M303,433m3,0h-6m3,0v23m3,0h-6m3,0M307,442m0,3v-6m0,3h10m0,3v-6m0,3M312,430m3,0h-6m3,0v24m3,0h-6m3,0M318,417m0,3v-6m0,3h9m0,3v-6m0,3M322,405m3,0h-6m3,0v25m3,0h-6m3,0M326,406m0,3v-6m0,3h10m0,3v-6m0,3M331,393m3,0h-6m3,0v25m3,0h-6m3,0M336,370m0,3v-6m0,3h10m0,3v-6m0,3M341,357m3,0h-6m3,0v27m3,0h-6m3,0M347,357m0,3v-6m0,3h9m0,3v-6m0,3M351,343m3,0h-6m3,0v27m3,0h-6m3,0M355,307m0,3v-6m0,3h10m0,3v-6m0,3M360,292m3,0h-6m3,0v30m3,0h-6m3,0M366,274m0,3v-6m0,3h9m0,3v-6m0,3M370,258m3,0h-6m3,0v32m3,0h-6m3,0M374,273m0,3v-6m0,3h10m0,3v-6m0,3M379,257m3,0h-6m3,0v32m3,0h-6m3,0M384,236m0,3v-6m0,3h10m0,3v-6m0,3M389,219m3,0h-6m3,0v33m3,0h-6m3,0M395,210m0,3v-6m0,3h9m0,3v-6m0,3M399,193m3,0h-6m3,0v34m3,0h-6m3,0M403,143m0,3v-6m0,3h10m0,3v-6m0,3M408,124m3,0h-6m3,0v37m3,0h-6m3,0M414,173m0,3v-6m0,3h9m0,3v-6m0,3M418,156m3,0h-6m3,0v35m3,0h-6m3,0M422,122m0,3v-6m0,3h10m0,3v-6m0,3M427,103m3,0h-6m3,0v37m3,0h-6m3,0M432,165m0,3v-6m0,3h10m0,3v-6m0,3M437,147m3,0h-6m3,0v36m3,0h-6m3,0M443,114m0,3v-6m0,3h9m0,3v-6m0,3M447,95m3,0h-6m3,0v38m3,0h-6m3,0M451,87m0,3v-6m0,3h10m0,3v-6m0,3M456,68m3,0h-6m3,0v39m3,0h-6m3,0M462,104m0,3v-6m0,3h9m0,3v-6m0,3M466,85m3,0h-6m3,0v38m3,0h-6m3,0M470,128m0,3v-6m0,3h10m0,3v-6m0,3M475,109m3,0h-6m3,0v37m3,0h-6m3,0M480,93m0,3v-6m0,3h10m0,3v-6m0,3M485,74m3,0h-6m3,0v38m3,0h-6m3,0M491,51m0,3v-6m0,3h9m0,3v-6m0,3M495,30m3,0h-6m3,0v41m3,0h-6m3,0M499,120m0,3v-6m0,3h10m0,3v-6m0,3M504,101m3,0h-6m3,0v38m3,0h-6m3,0M510,123m0,3v-6m0,3h9m0,3v-6m0,3M514,104m3,0h-6m3,0v38m3,0h-6m3,0M518,135m0,3v-6m0,3h10m0,3v-6m0,3M523,116m3,0h-6m3,0v37m3,0h-6m3,0M528,138m0,3v-6m0,3h10m0,3v-6m0,3M533,119m3,0h-6m3,0v37m3,0h-6m3,0M539,186m0,3v-6m0,3h9m0,3v-6m0,3M543,168m3,0h-6m3,0v35m3,0h-6m3,0M547,202m0,3v-6m0,3h10m0,3v-6m0,3M552,185m3,0h-6m3,0v34m3,0h-6m3,0M558,214m0,3v-6m0,3h9m0,3v-6m0,3M562,197m3,0h-6m3,0v34m3,0h-6m3,0M566,238m0,3v-6m0,3h10m0,3v-6m0,3M571,221m3,0h-6m3,0v33m3,0h-6m3,0M576,253m0,3v-6m0,3h10m0,3v-6m0,3M581,236m3,0h-6m3,0v33m3,0h-6m3,0M587,262m0,3v-6m0,3h9m0,3v-6m0,3M591,246m3,0h-6m3,0v32m3,0h-6m3,0M595,297m0,3v-6m0,3h10m0,3v-6m0,3M600,282m3,0h-6m3,0v30m3,0h-6m3,0M606,339m0,3v-6m0,3h9m0,3v-6m0,3M610,325m3,0h-6m3,0v29m3,0h-6m3,0M614,352m0,3v-6m0,3h10m0,3v-6m0,3M619,338m3,0h-6m3,0v28m3,0h-6m3,0M624,372m0,3v-6m0,3h10m0,3v-6m0,3M629,359m3,0h-6m3,0v27m3,0h-6m3,0M635,433m0,3v-6m0,3h9m0,3v-6m0,3M639,421m3,0h-6m3,0v24m3,0h-6m3,0M643,427m0,3v-6m0,3h10m0,3v-6m0,3M648,415m3,0h-6m3,0v24m3,0h-6m3,0M654,455m0,3v-6m0,3h9m0,3v-6m0,3M658,444m3,0h-6m3,0v22m3,0h-6m3,0M662,479m0,3v-6m0,3h10m0,3v-6m0,3M667,468m3,0h-6m3,0v21m3,0h-6m3,0M672,493m0,3v-6m0,3h10m0,3v-6m0,3M677,483m3,0h-6m3,0v20m3,0h-6m3,0M683,514m0,3v-6m0,3h9m0,3v-6m0,3M687,505m3,0h-6m3,0v19m3,0h-6m3,0M691,532m0,3v-6m0,3h10m0,3v-6m0,3M696,523m3,0h-6m3,0v18m3,0h-6m3,0M702,554m0,3v-6m0,3h9m0,3v-6m0,3M706,546m3,0h-6m3,0v16m3,0h-6m3,0M710,553m0,3v-6m0,3h10m0,3v-6m0,3M715,545m3,0h-6m3,0v15m3,0h-6m3,0M720,574m0,3v-6m0,3h10m0,3v-6m0,3M725,567m3,0h-6m3,0v13m3,0h-6m3,0M731,579m0,3v-6m0,3h9m0,3v-6m0,3M735,573m3,0h-6m3,0v13m3,0h-6m3,0M739,594m0,3v-6m0,3h10m0,3v-6m0,3M744,589m3,0h-6m3,0v11m3,0h-6m3,0M750,597m0,3v-6m0,3h9m0,3v-6m0,3M754,592m3,0h-6m3,0v10m3,0h-6m3,0M758,609m0,3v-6m0,3h10m0,3v-6m0,3M763,604m3,0h-6m3,0v9m3,0h-6m3,0M768,616m0,3v-6m0,3h10m0,3v-6m0,3M773,612m3,0h-6m3,0v8m3,0h-6m3,0M779,608m0,3v-6m0,3h9m0,3v-6m0,3M783,603m3,0h-6m3,0v10m3,0h-6m3,0M787,620m0,3v-6m0,3h10m0,3v-6m0,3M792,616m3,0h-6m3,0v7m3,0h-6m3,0M798,624m0,3v-6m0,3h9m0,3v-6m0,3M802,621m3,0h-6m3,0v7m3,0h-6m3,0M806,628m0,3v-6m0,3h10m0,3v-6m0,3M811,626m3,0h-6m3,0v5m3,0h-6m3,0M816,628m0,3v-6m0,3h10m0,3v-6m0,3M821,626m3,0h-6m3,0v5m3,0h-6m3,0M827,632m0,3v-6m0,3h9m0,3v-6m0,3M831,629m3,0h-6m3,0v5m3,0h-6m3,0M835,631m0,3v-6m0,3h10m0,3v-6m0,3M840,629m3,0h-6m3,0v5m3,0h-6m3,0M846,638m0,3v-6m0,3h9m0,3v-6m0,3M850,637m3,0h-6m3,0v2m3,0h-6m3,0M854,635m0,3v-6m0,3h10m0,3v-6m0,3M859,633m3,0h-6m3,0v3m3,0h-6m3,0M864,636m0,3v-6m0,3h10m0,3v-6m0,3M869,634m3,0h-6m3,0v4m3,0h-6m3,0M875,639m0,3v-6m0,3h9m0,3v-6m0,3M879,638m3,0h-6m3,0v2m3,0h-6m3,0M883,639m0,3v-6m0,3h10m0,3v-6m0,3M888,638m3,0h-6m3,0v2m3,0h-6m3,0M894,639m0,3v-6m0,3h9m0,3v-6m0,3M898,638m3,0h-6m3,0v2m3,0h-6m3,0M950,639m0,3v-6m0,3h10m0,3v-6m0,3M955,639m3,0h-6m3,0v1m3,0h-6m3,0" style="stroke: rgb(0,0,154); stroke-width: 1;"></path></g></svg><g><g transform="translate(0,640)"><path d="M0,-19v19m24,-10v10m24,-10v10m24,-10v10m24,-10v10m24,-19v19m24,-10v10m24,-10v10m24,-10v10m24,-10v10m24,-19v19m24,-10v10m24,-10v10m24,-10v10m24,-10v10m24,-19v19m24,-10v10m24,-10v10m24,-10v10m24,-10v10m24,-19v19m24,-10v10m24,-10v10m24,-10v10m24,-10v10m24,-19v19m24,-10v10m24,-10v10m24,-10v10m24,-10v10m24,-19v19m24,-10v10m24,-10v10m24,-10v10m24,-10v10m24,-19v19m24,-10v10m24,-10v10m24,-10v10m24,-10v10m24,-19v19" style="stroke: black; stroke-width: 1;"></path><g font-family="Arial" font-size="22" space="preserve"><text fill="black" x="0" y="8" dy=".7em" style="text-anchor: middle;">-4</text><text fill="black" x="120" y="8" dy=".7em" style="text-anchor: middle;">-3</text><text fill="black" x="240" y="8" dy=".7em" style="text-anchor: middle;">-2</text><text fill="black" x="360" y="8" dy=".7em" style="text-anchor: middle;">-1</text><text fill="black" x="480" y="8" dy=".7em" style="text-anchor: middle;">0</text><text fill="black" x="600" y="8" dy=".7em" style="text-anchor: middle;">1</text><text fill="black" x="720" y="8" dy=".7em" style="text-anchor: middle;">2</text><text fill="black" x="840" y="8" dy=".7em" style="text-anchor: middle;">3</text><text fill="black" x="960" y="8" dy=".7em" style="text-anchor: middle;">4</text></g></g><g><path d="M29,640h-29m15,-14h-15m15,-13h-15m15,-14h-15m15,-14h-15m29,-13h-29m15,-14h-15m15,-14h-15m15,-13h-15m15,-14h-15m29,-14h-29m15,-13h-15m15,-14h-15m15,-14h-15m15,-13h-15m29,-14h-29m15,-14h-15m15,-13h-15m15,-14h-15m15,-14h-15m29,-13h-29m15,-14h-15m15,-14h-15m15,-13h-15m15,-14h-15m29,-14h-29m15,-13h-15m15,-14h-15m15,-13h-15m15,-14h-15m29,-14h-29m15,-13h-15m15,-14h-15m15,-14h-15m15,-13h-15m29,-14h-29m15,-14h-15m15,-13h-15m15,-14h-15m15,-14h-15m29,-13h-29m15,-14h-15m15,-14h-15m15,-13h-15m15,-14h-15m29,-14h-29m15,-13h-15" style="stroke: black; stroke-width: 1;"></path><g font-family="Arial" font-size="22" space="preserve"><text fill="black" x="-8" y="640" style="text-anchor: end; dominant-baseline: middle;">0</text><text fill="black" x="-8" y="572" style="text-anchor: end; dominant-baseline: middle;">100</text><text fill="black" x="-8" y="503" style="text-anchor: end; dominant-baseline: middle;">200</text><text fill="black" x="-8" y="435" style="text-anchor: end; dominant-baseline: middle;">300</text><text fill="black" x="-8" y="367" style="text-anchor: end; dominant-baseline: middle;">400</text><text fill="black" x="-8" y="298" style="text-anchor: end; dominant-baseline: middle;">500</text><text fill="black" x="-8" y="230" style="text-anchor: end; dominant-baseline: middle;">600</text><text fill="black" x="-8" y="162" style="text-anchor: end; dominant-baseline: middle;">700</text><text fill="black" x="-8" y="94" style="text-anchor: end; dominant-baseline: middle;">800</text><text fill="black" x="-8" y="25" style="text-anchor: end; dominant-baseline: middle;">900</text></g></g></g></g><g><g objname="title" objtype="TPaveText" transform="translate(336,8)" font-family="Arial" font-size="33" space="preserve"><path d="M0,0h528v40h-528z" style="fill: none;"></path><text text-anchor="middle" x="0" y="0" fill="black" transform="translate(264,21)" dominant-baseline="middle" opacity="1">This is the px distribution</text></g></g><g><g objname="stats" objtype="TPaveStats" transform="translate(936,52)" font-family="Arial" font-size="27" space="preserve"><path d="M0,0h240v128h-240z" style="fill: white; stroke: black; stroke-width: 1;"></path><text text-anchor="middle" x="0" y="0" fill="black" transform="translate(120,17)" dominant-baseline="middle" opacity="1">hpx</text><text text-anchor="start" x="0" y="0" fill="black" transform="translate(12,49)" dominant-baseline="middle" opacity="1">Entries </text><text text-anchor="end" x="0" y="0" fill="black" transform="translate(228,49)" dominant-baseline="middle" opacity="1"> 25000</text><text text-anchor="start" x="0" y="0" fill="black" transform="translate(12,81)" dominant-baseline="middle" opacity="1">Mean </text><text text-anchor="end" x="0" y="0" fill="black" transform="translate(228,81)" dominant-baseline="middle" opacity="1"> 0.003163</text><text text-anchor="start" x="0" y="0" fill="black" transform="translate(12,113)" dominant-baseline="middle" opacity="1">Std Dev </text><text text-anchor="end" x="0" y="0" fill="black" transform="translate(228,113)" dominant-baseline="middle" opacity="1"> 1.004</text><path d="M0,32h240" style="stroke: black; stroke-width: 1;"></path></g></g></svg>