<svg xmlns="http://www.w3.org/2000/svg" viewBox="0 0 1200 800" preserveAspectRatio="none" width="1200" height="800">
 <path d="M0,0H1200V800H0Z" style="fill: white;"></path>
 <g>
  <g transform="translate(120,80)">
   <path d="M0,0H960V640H0Z" style="fill: white; stroke: black; stroke-width: 1;"></path>
   <svg x="0" y="0" overflow="hidden" width="960" height="640" viewBox="0 0 960 640">
    <g>
     <path d="M5,640h9l10,-2l10,2h28l10,-3l10,-1h9l10,-3l9,2l10,-5l10,-2l9,-1l10,-6l9,1l10,-8l10,-5l9,-12l10,5l9,-15l10,7l10,-18l9,-22l10,-1l9,-3l10,-36l10,-6l9,-11l10,-17l9,-47l10,-3l10,-25l9,-12l10,-36l9,-14l10,-51l10,-34l9,-1l10,-38l9,-26l10,-69l10,32l9,-53l10,44l9,-52l10,-27l10,17l9,24l10,-35l9,-44l10,71l10,3l9,12l10,3l9,49l10,17l10,12l9,24l10,15l9,10l10,36l10,43l9,13l10,21l9,62l10,-6l10,29l9,24l10,15l9,22l10,18l10,23l9,-1l10,22l9,6l10,16l10,3l9,12l10,8l9,-9l10,13l10,5l9,5h10l9,3h10l10,8l9,-4l10,1l9,4h20l9,2h39l9,-1L955,640h-77l-9,-2l-10,-2l-9,3l-10,-5h-10l-9,-3h-10l-9,-3l-10,-5l-10,-10l-9,7l-10,-7l-9,-11l-10,-2l-10,-14l-9,-6l-10,-20l-9,2l-10,-21l-10,-17l-9,-21l-10,-14l-9,-23l-10,-27l-10,6l-9,-59l-10,-20l-9,-12l-10,-42l-10,-34l-9,-9l-10,-15l-9,-23l-10,-12l-10,-16l-9,-47l-10,-3l-9,-11l-10,-3l-10,-68l-9,41l-10,34l-9,-23l-10,-16l-10,26l-9,50l-10,-43l-9,51l-10,-30l-10,66l-9,25l-10,37l-9,1l-10,32l-10,48l-9,14l-10,34l-9,12l-10,24l-10,2l-9,45l-10,15l-9,10l-10,5l-10,34l-9,3l-10,1l-9,19l-10,16l-10,-5l-9,13l-10,-5l-9,11l-10,3l-10,7h-9l-10,4l-9,1l-10,2l-10,3l-9,-1l-10,2h-19l-10,1h-57Z" style="fill: red;"></path>
    </g>
   </svg>
   <g>
    <g transform="translate(0,640)">
     <path d="M0,0h960M0,-24V0M24,-12V0M48,-12V0M72,-12V0M96,-12V0M120,-24V0M144,-12V0M168,-12V0M192,-12V0M216,-12V0M240,-24V0M264,-12V0M288,-12V0M312,-12V0M336,-12V0M360,-24V0M384,-12V0M408,-12V0M432,-12V0M456,-12V0M480,-24V0M504,-12V0M528,-12V0M552,-12V0M576,-12V0M600,-24V0M624,-12V0M648,-12V0M672,-12V0M696,-12V0M720,-24V0M744,-12V0M768,-12V0M792,-12V0M816,-12V0M840,-24V0M864,-12V0M888,-12V0M912,-12V0M936,-12V0M960,-24V0" style="stroke: black; stroke-width: 1;"></path>
     <g font-family="Arial" font-size="28" space="preserve" fill="black" text-anchor="middle">
      <text dy=".8em" transform="translate(0,6)">
       -4
      </text>
      <text dy=".8em" transform="translate(120,6)">
       -3
      </text>
      <text dy=".8em" transform="translate(240,6)">
       -2
      </text>
      <text dy=".8em" transform="translate(360,6)">
       -1
      </text>
      <text dy=".8em" transform="translate(480,6)">
       0
      </text>
      <text dy=".8em" transform="translate(600,6)">
       1
      </text>
      <text dy=".8em" transform="translate(720,6)">
       2
      </text>
      <text dy=".8em" transform="translate(840,6)">
       3
      </text>
      <text dy=".8em" transform="translate(960,6)">
       4
      </text>
     </g>
    </g>
    <g>
     <path d="M0,0v640M36,640H0M18,626H0M18,613H0M18,599H0M18,585H0M36,572H0M18,558H0M18,544H0M18,531H0M18,517H0M36,503H0M18,490H0M18,476H0M18,462H0M18,449H0M36,435H0M18,421H0M18,408H0M18,394H0M18,380H0M36,367H0M18,353H0M18,339H0M18,326H0M18,312H0M36,298H0M18,285H0M18,271H0M18,258H0M18,244H0M36,230H0M18,217H0M18,203H0M18,189H0M18,176H0M36,162H0M18,148H0M18,135H0M18,121H0M18,107H0M36,94H0M18,80H0M18,66H0M18,53H0M18,39H0M36,25H0M18,12H0" style="stroke: black; stroke-width: 1;"></path>
     <g font-family="Arial" font-size="28" space="preserve" fill="black" text-anchor="end">
      <text dy=".4em" transform="translate(-4,640)">
       0
      </text>
      <text dy=".4em" transform="translate(-4,572)">
       100
      </text>
      <text dy=".4em" transform="translate(-4,503)">
       200
      </text>
      <text dy=".4em" transform="translate(-4,435)">
       300
      </text>
      <text dy=".4em" transform="translate(-4,367)">
       400
      </text>
      <text dy=".4em" transform="translate(-4,298)">
       500
      </text>
      <text dy=".4em" transform="translate(-4,230)">
       600
      </text>
      <text dy=".4em" transform="translate(-4,162)">
       700
      </text>
      <text dy=".4em" transform="translate(-4,94)">
       800
      </text>
      <text dy=".4em" transform="translate(-4,25)">
       900
      </text>
     </g>
    </g>
   </g>
  </g>
  <g transform="translate(120,4)" font-family="Arial" font-size="39" space="preserve">
   <text fill="black" text-anchor="middle" dy=".8em" transform="translate(480,3)">
    This is the px distribution
   </text>
  </g>
  <g transform="translate(936,52)" font-family="Arial" font-size="25" space="preserve" fill="black">
   <path d="M0,0H240V128H0Z" style="fill: white; stroke: black; stroke-width: 1;"></path>
   <text text-anchor="middle" dy=".4em" transform="translate(120,16)">
    hpx
   </text>
   <text text-anchor="start" dy=".4em" transform="translate(12,48)">
    Entries
   </text>
   <text text-anchor="end" dy=".4em" transform="translate(228,48)">
    25000
   </text>
   <text text-anchor="start" dy=".4em" transform="translate(12,80)">
    Mean
   </text>
   <text text-anchor="end" dy=".4em" transform="translate(228,80)">
    0.003163
   </text>
   <text text-anchor="start" dy=".4em" transform="translate(12,112)">
    Std Dev
   </text>
   <text text-anchor="end" dy=".4em" transform="translate(228,112)">
    1.004
   </text>
   <path d="M0,32h240" style="stroke: black; stroke-width: 1;"></path>
  </g>
 </g>
</svg>