<svg xmlns="http://www.w3.org/2000/svg" viewBox="0 0 1200 800" preserveAspectRatio="none" width="1200" height="800">
 <title>
  ROOT canvas
 </title>
 <rect x="0" y="0" width="1200" height="800" style="fill: none;"></rect>
 <g>
  <g transform="translate(120,80)">
   <title></title>
   <rect x="0" y="0" width="960" height="640" style="fill: white; stroke: black; stroke-width: 1;"></rect>
   <svg x="0" y="0" overflow="hidden" width="960" height="640" viewBox="0 0 960 640">
    <g>
     <path d="M5,640h9l10,-2l10,2h28l10,-3l10,-1h9l10,-3l9,2l10,-5l10,-2l9,-1l10,-6l9,1l10,-8l10,-5l9,-12l10,5l9,-15l10,7l10,-18l9,-22l10,-1l9,-3l10,-36l10,-6l9,-11l10,-17l9,-47l10,-3l10,-25l9,-12l10,-36l9,-14l10,-51l10,-34l9,-1l10,-38l9,-26l10,-69l10,32l9,-53l10,44l9,-52l10,-27l10,17l9,24l10,-35l9,-44l10,71l10,3l9,12l10,3l9,49l10,17l10,12l9,24l10,15l9,10l10,36l10,43l9,13l10,21l9,62l10,-6l10,29l9,24l10,15l9,22l10,18l10,23l9,-1l10,22l9,6l10,16l10,3l9,12l10,8l9,-9l10,13l10,5l9,5h10l9,3h10l10,8l9,-4l10,1l9,4h20l9,2h39l9,-1L955,640h-77l-9,-2l-10,-2l-9,3l-10,-5h-10l-9,-3h-10l-9,-3l-10,-5l-10,-10l-9,7l-10,-7l-9,-11l-10,-2l-10,-14l-9,-6l-10,-20l-9,2l-10,-21l-10,-17l-9,-21l-10,-14l-9,-23l-10,-27l-10,6l-9,-59l-10,-20l-9,-12l-10,-42l-10,-34l-9,-9l-10,-15l-9,-23l-10,-12l-10,-16l-9,-47l-10,-3l-9,-11l-10,-3l-10,-68l-9,41l-10,34l-9,-23l-10,-16l-10,26l-9,50l-10,-43l-9,51l-10,-30l-10,66l-9,25l-10,37l-9,1l-10,32l-10,48l-9,14l-10,34l-9,12l-10,24l-10,2l-9,45l-10,15l-9,10l-10,5l-10,34l-9,3l-10,1l-9,19l-10,16l-10,-5l-9,13l-10,-5l-9,11l-10,3l-10,7h-9l-10,4l-9,1l-10,2l-10,3l-9,-1l-10,2h-19l-10,1h-57Z" style="stroke: none; fill: red;"></path>
    </g>
   </svg>
   <g>
    <g transform="translate(0,640)">
     <line x1="0" y1="0" x2="960" y2="0" style="stroke: black; stroke-width: 1;"></line>
     <path d="M0,-24v24m24,-12v12m24,-12v12m24,-12v12m24,-12v12m24,-24v24m24,-12v12m24,-12v12m24,-12v12m24,-12v12m24,-24v24m24,-12v12m24,-12v12m24,-12v12m24,-12v12m24,-24v24m24,-12v12m24,-12v12m24,-12v12m24,-12v12m24,-24v24m24,-12v12m24,-12v12m24,-12v12m24,-12v12m24,-24v24m24,-12v12m24,-12v12m24,-12v12m24,-12v12m24,-24v24m24,-12v12m24,-12v12m24,-12v12m24,-12v12m24,-24v24m24,-12v12m24,-12v12m24,-12v12m24,-12v12m24,-24v24" style="stroke: black; stroke-width: 1;"></path>
     <g font-family="Arial" font-size="28" space="preserve">
      <text fill="black" text-anchor="middle" dy=".8em" transform="translate(0,6)">
       -4
      </text>
      <text fill="black" text-anchor="middle" dy=".8em" transform="translate(120,6)">
       -3
      </text>
      <text fill="black" text-anchor="middle" dy=".8em" transform="translate(240,6)">
       -2
      </text>
      <text fill="black" text-anchor="middle" dy=".8em" transform="translate(360,6)">
       -1
      </text>
      <text fill="black" text-anchor="middle" dy=".8em" transform="translate(480,6)">
       0
      </text>
      <text fill="black" text-anchor="middle" dy=".8em" transform="translate(600,6)">
       1
      </text>
      <text fill="black" text-anchor="middle" dy=".8em" transform="translate(720,6)">
       2
      </text>
      <text fill="black" text-anchor="middle" dy=".8em" transform="translate(840,6)">
       3
      </text>
      <text fill="black" text-anchor="middle" dy=".8em" transform="translate(960,6)">
       4
      </text>
     </g>
    </g>
    <g>
     <line x1="0" y1="0" x2="0" y2="640" style="stroke: black; stroke-width: 1;"></line>
     <path d="M36,640h-36m18,-14h-18m18,-13h-18m18,-14h-18m18,-14h-18m36,-13h-36m18,-14h-18m18,-14h-18m18,-13h-18m18,-14h-18m36,-14h-36m18,-13h-18m18,-14h-18m18,-14h-18m18,-13h-18m36,-14h-36m18,-14h-18m18,-13h-18m18,-14h-18m18,-14h-18m36,-13h-36m18,-14h-18m18,-14h-18m18,-13h-18m18,-14h-18m36,-14h-36m18,-13h-18m18,-14h-18m18,-13h-18m18,-14h-18m36,-14h-36m18,-13h-18m18,-14h-18m18,-14h-18m18,-13h-18m36,-14h-36m18,-14h-18m18,-13h-18m18,-14h-18m18,-14h-18m36,-13h-36m18,-14h-18m18,-14h-18m18,-13h-18m18,-14h-18m36,-14h-36m18,-13h-18" style="stroke: black; stroke-width: 1;"></path>
     <g font-family="Arial" font-size="28" space="preserve">
      <text fill="black" text-anchor="end" dy=".4em" transform="translate(-4,640)">
       0
      </text>
      <text fill="black" text-anchor="end" dy=".4em" transform="translate(-4,572)">
       100
      </text>
      <text fill="black" text-anchor="end" dy=".4em" transform="translate(-4,503)">
       200
      </text>
      <text fill="black" text-anchor="end" dy=".4em" transform="translate(-4,435)">
       300
      </text>
      <text fill="black" text-anchor="end" dy=".4em" transform="translate(-4,367)">
       400
      </text>
      <text fill="black" text-anchor="end" dy=".4em" transform="translate(-4,298)">
       500
      </text>
      <text fill="black" text-anchor="end" dy=".4em" transform="translate(-4,230)">
       600
      </text>
      <text fill="black" text-anchor="end" dy=".4em" transform="translate(-4,162)">
       700
      </text>
      <text fill="black" text-anchor="end" dy=".4em" transform="translate(-4,94)">
       800
      </text>
      <text fill="black" text-anchor="end" dy=".4em" transform="translate(-4,25)">
       900
      </text>
     </g>
    </g>
   </g>
  </g>
  <g transform="translate(120,4)" font-family="Arial" font-size="40" space="preserve">
   <path d="M0,0h960v53h-960z" style="fill: none;"></path>
   <text fill="black" text-anchor="middle" dy=".8em" transform="translate(480,0)">
    This is the px distribution
   </text>
  </g>
  <g transform="translate(936,52)" font-family="Arial" font-size="26" space="preserve">
   <path d="M0,0h240v128h-240z" style="fill: white; stroke: black; stroke-width: 1;"></path>
   <text fill="black" text-anchor="middle" dy=".4em" transform="translate(120,16)">
    hpx
   </text>
   <text fill="black" text-anchor="start" dy=".4em" transform="translate(12,48)">
    Entries
   </text>
   <text fill="black" text-anchor="end" dy=".4em" transform="translate(228,48)">
    25000
   </text>
   <text fill="black" text-anchor="start" dy=".4em" transform="translate(12,80)">
    Mean
   </text>
   <text fill="black" text-anchor="end" dy=".4em" transform="translate(228,80)">
    0.003163
   </text>
   <text fill="black" text-anchor="start" dy=".4em" transform="translate(12,112)">
    Std Dev
   </text>
   <text fill="black" text-anchor="end" dy=".4em" transform="translate(228,112)">
    1.004
   </text>
   <path d="M0,32h240" style="stroke: black; stroke-width: 1;"></path>
  </g>
 </g>
</svg>