<svg viewBox="0 0 1200 800" preserveAspectRatio="none" xmlns="http://www.w3.org/2000/svg" width="1200" height="800"><title>ROOT canvas</title><rect x="0" y="0" width="1200" height="800" style="fill: rgb(222,186,135);"></rect><g><g pad="c1_1" transform="translate(12,8)"><rect x="0" y="0" width="1176" height="384" style="fill: rgb(222,186,135);"></rect><g><g transform="translate(118,38)"><title></title><rect x="0" y="0" width="941" height="307" style="fill: rgb(173,189,199); stroke: black; stroke-width: 1;"></rect><g><path d="M0,307h941M0,287h941M0,266h941M0,246h941M0,225h941M0,205h941M0,184h941M0,164h941M0,143h941M0,123h941M0,102h941M0,82h941M0,61h941M0,41h941M0,20h941M0,0h941" style="stroke: black; stroke-width: 1; stroke-dasharray: 1,2;"></path><path d="M0,0v307M12,0v307M92,0v307M139,0v307M172,0v307M198,0v307M219,0v307M236,0v307M252,0v307M265,0v307M277,0v307M357,0v307M404,0v307M437,0v307M463,0v307M484,0v307M501,0v307M517,0v307M530,0v307M543,0v307M622,0v307M669,0v307M702,0v307M728,0v307M749,0v307M767,0v307M782,0v307M796,0v307M808,0v307M888,0v307M934,0v307" style="stroke: black; stroke-width: 1; stroke-dasharray: 1,2;"></path></g><svg x="0" y="0" overflow="hidden" width="941" height="307" viewBox="0 0 941 307"><g objname="htemp" objtype="TH1F"><path d="M0,307h648v-20h-648zM0,287h720v-21h-720zM0,266h868v-20h-868zM0,246h640v-21h-640zM0,225h520v-20h-520zM0,205h677v-21h-677zM0,184h458v-20h-458zM0,164h554v-21h-554zM0,143h357v-20h-357zM0,123h437v-21h-437zM0,102h408v-20h-408zM0,82h440v-21h-440zM0,61h308v-20h-308zM0,41h338v-21h-338zM0,20h139v-20h-139z" style="fill: rgb(191,130,120);"></path><path d="M0,307h648v-4h-648zM0,287h720v-4h-720zM0,266h868v-4h-868zM0,246h640v-4h-640zM0,225h520v-4h-520zM0,205h677v-4h-677zM0,184h458v-4h-458zM0,164h554v-4h-554zM0,143h357v-4h-357zM0,123h437v-4h-437zM0,102h408v-4h-408zM0,82h440v-4h-440zM0,61h308v-4h-308zM0,41h338v-4h-338zM0,20h139v-4h-139z" style="fill: rgb(228, 155, 143);"></path><path d="M0,287h648v4h-648zM0,266h720v4h-720zM0,246h868v4h-868zM0,225h640v4h-640zM0,205h520v4h-520zM0,184h677v4h-677zM0,164h458v4h-458zM0,143h554v4h-554zM0,123h357v4h-357zM0,102h437v4h-437zM0,82h408v4h-408zM0,61h440v4h-440zM0,41h308v4h-308zM0,20h338v4h-338zM0,0h139v4h-139z" style="fill: rgb(160, 109, 100);"></path></g></svg><g><g transform="translate(0,307)"><path d="M0,-5v5m12,-9v9m80,-5v5m47,-5v5m33,-5v5m26,-5v5m21,-5v5m17,-5v5m16,-5v5m13,-5v5m12,-9v9m80,-5v5m47,-5v5m33,-5v5m26,-5v5m21,-5v5m17,-5v5m16,-5v5m13,-5v5m13,-9v9m79,-5v5m47,-5v5m33,-5v5m26,-5v5m21,-5v5m18,-5v5m15,-5v5m14,-5v5m12,-9v9m80,-5v5m46,-5v5" style="stroke: black; stroke-width: 1;"></path><g font-family="Arial" font-size="11" space="preserve"><text fill="black" x="12" y="7" dy=".7em" style="text-anchor: middle;">10⁰</text><text fill="black" x="277" y="7" dy=".7em" style="text-anchor: middle;">10¹</text><text fill="black" x="543" y="7" dy=".7em" style="text-anchor: middle;">10²</text><text fill="black" x="808" y="7" dy=".7em" style="text-anchor: middle;">10³</text></g></g><g><path d="M28,307h-28m28,-20h-28m28,-21h-28m28,-20h-28m28,-21h-28m28,-20h-28m28,-21h-28m28,-20h-28m28,-21h-28m28,-20h-28m28,-21h-28m28,-20h-28m28,-21h-28m28,-20h-28m28,-21h-28m14,-20h-14" style="stroke: black; stroke-width: 1;"></path><g font-family="Arial" font-size="11" space="preserve"><text fill="black" x="-8" y="297" style="text-anchor: end; dominant-baseline: middle;">DE</text><text fill="black" x="-8" y="277" style="text-anchor: end; dominant-baseline: middle;">CH</text><text fill="black" x="-8" y="256" style="text-anchor: end; dominant-baseline: middle;">FR</text><text fill="black" x="-8" y="236" style="text-anchor: end; dominant-baseline: middle;">IT</text><text fill="black" x="-8" y="215" style="text-anchor: end; dominant-baseline: middle;">NL</text><text fill="black" x="-8" y="195" style="text-anchor: end; dominant-baseline: middle;">GB</text><text fill="black" x="-8" y="174" style="text-anchor: end; dominant-baseline: middle;">AT</text><text fill="black" x="-8" y="154" style="text-anchor: end; dominant-baseline: middle;">BE</text><text fill="black" x="-8" y="133" style="text-anchor: end; dominant-baseline: middle;">NO</text><text fill="black" x="-8" y="113" style="text-anchor: end; dominant-baseline: middle;">ES</text><text fill="black" x="-8" y="92" style="text-anchor: end; dominant-baseline: middle;">DK</text><text fill="black" x="-8" y="72" style="text-anchor: end; dominant-baseline: middle;">SE</text><text fill="black" x="-8" y="51" style="text-anchor: end; dominant-baseline: middle;">GR</text><text fill="black" x="-8" y="31" style="text-anchor: end; dominant-baseline: middle;">ZZ</text><text fill="black" x="-8" y="10" style="text-anchor: end; dominant-baseline: middle;">PT</text></g><g font-family="Arial" font-size="13" space="preserve" transform="translate(-66,0)"><text text-anchor="end" x="0" y="0" fill="black" transform="translate(0,0) rotate(270,0,0)" dominant-baseline="middle">Nation</text></g></g></g></g><g objname="stats" objtype="TPaveStats" transform="translate(917,25)" font-family="Arial" font-size="12" space="preserve"><path d="M0,0h235v61h-235z" style="fill: white; stroke: black; stroke-width: 1;"></path><text text-anchor="middle" x="0" y="0" fill="black" transform="translate(118,9)" dominant-baseline="middle" opacity="1">htemp</text><text text-anchor="start" x="0" y="0" fill="black" transform="translate(12,24)" dominant-baseline="middle" opacity="1">Entries </text><text text-anchor="end" x="0" y="0" fill="black" transform="translate(223,24)" dominant-baseline="middle" opacity="1"> 3354</text><text text-anchor="start" x="0" y="0" fill="black" transform="translate(12,39)" dominant-baseline="middle" opacity="1">Mean </text><text text-anchor="end" x="0" y="0" fill="black" transform="translate(223,39)" dominant-baseline="middle" opacity="1"> 3.247</text><text text-anchor="start" x="0" y="0" fill="black" transform="translate(12,54)" dominant-baseline="middle" opacity="1">Std Dev </text><text text-anchor="end" x="0" y="0" fill="black" transform="translate(223,54)" dominant-baseline="middle" opacity="1"> 2.337</text><path d="M0,15h235" style="stroke: black; stroke-width: 1;"></path></g><g objname="title" objtype="TPaveText" transform="translate(526,2)" font-family="Arial" font-size="17" space="preserve"><path d="M0,0h123v21h-123z" style="fill: none;"></path><text text-anchor="middle" x="0" y="0" fill="black" transform="translate(62,12)" dominant-baseline="middle" opacity="1">Nation</text></g></g></g><g pad="c1_2" transform="translate(12,408)"><rect x="0" y="0" width="1176" height="384" style="fill: rgb(222,186,135);"></rect><g><g transform="translate(118,38)"><title></title><rect x="0" y="0" width="941" height="307" style="fill: rgb(173,189,199); stroke: black; stroke-width: 1;"></rect><g><path d="M0,0v307M72,0v307M145,0v307M217,0v307M290,0v307M362,0v307M434,0v307M507,0v307M579,0v307M651,0v307M724,0v307M796,0v307M869,0v307M941,0v307" style="stroke: black; stroke-width: 1; stroke-dasharray: 1,2;"></path><path d="M0,307h941M0,252h941M0,197h941M0,142h941M0,86h941M0,31h941" style="stroke: black; stroke-width: 1; stroke-dasharray: 1,2;"></path></g><svg x="0" y="0" overflow="hidden" width="941" height="307" viewBox="0 0 941 307"><g objname="hDiv_copy" objtype="TH1F"><path d="M7,62h32v245h-32zM79,86h33v221h-33zM152,84h32v223h-32zM224,84h33v223h-33zM297,14h32v293h-32zM369,80h32v227h-32zM441,255h33v52h-33zM514,269h32v38h-32zM586,297h32v10h-32zM658,166h33v141h-33zM731,214h32v93h-32zM803,249h33v58h-33zM876,281h32v26h-32z" style="fill: rgb(148,105,112);"></path><path d="M7,62h6v245h-6zM79,86h7v221h-7zM152,84h6v223h-6zM224,84h7v223h-7zM297,14h6v293h-6zM369,80h6v227h-6zM441,255h7v52h-7zM514,269h6v38h-6zM586,297h6v10h-6zM658,166h7v141h-7zM731,214h6v93h-6zM803,249h7v58h-7zM876,281h6v26h-6z" style="fill: rgb(177, 125, 134);"></path><path d="M39,62h-6v245h6zM112,86h-7v221h7zM184,84h-6v223h6zM257,84h-7v223h7zM329,14h-6v293h6zM401,80h-6v227h6zM474,255h-7v52h7zM546,269h-6v38h6zM618,297h-6v10h6zM691,166h-7v141h7zM763,214h-6v93h6zM836,249h-7v58h7zM908,281h-6v26h6z" style="fill: rgb(124, 88, 94);"></path></g><g objname="hDivFR_copy" objtype="TH1F"><path d="M40,198h29v109h-29zM112,220h29v87h-29zM185,141h29v166h-29zM257,212h29v95h-29zM330,135h29v172h-29zM402,196h29v111h-29zM474,272h29v35h-29zM547,292h29v15h-29zM619,304h29v3h-29zM691,268h29v39h-29zM764,244h29v63h-29zM836,282h29v25h-29zM909,300h29v7h-29z" style="fill: rgb(212,89,84);"></path><path d="M40,198h6v109h-6zM112,220h6v87h-6zM185,141h6v166h-6zM257,212h6v95h-6zM330,135h6v172h-6zM402,196h6v111h-6zM474,272h6v35h-6zM547,292h6v15h-6zM619,304h6v3h-6zM691,268h6v39h-6zM764,244h6v63h-6zM836,282h6v25h-6zM909,300h6v7h-6z" style="fill: rgb(253, 106, 100);"></path><path d="M69,198h-6v109h6zM141,220h-6v87h6zM214,141h-6v166h6zM286,212h-6v95h6zM359,135h-6v172h6zM431,196h-6v111h6zM503,272h-6v35h6zM576,292h-6v15h6zM648,304h-6v3h6zM720,268h-6v39h6zM793,244h-6v63h6zM865,282h-6v25h6zM938,300h-6v7h6z" style="fill: rgb(177, 74, 70);"></path></g></svg><g><g transform="translate(0,307)"><path d="M0,-9v9m72,-9v9m73,-9v9m72,-9v9m73,-9v9m72,-9v9m72,-9v9m73,-9v9m72,-9v9m72,-9v9m73,-9v9m72,-9v9m73,-9v9m72,-5v5" style="stroke: black; stroke-width: 1;"></path><g font-family="Arial" font-size="11" space="preserve"><text fill="black" x="36" y="7" dy=".7em" style="text-anchor: middle;">PS</text><text fill="black" x="109" y="7" dy=".7em" style="text-anchor: middle;">EP</text><text fill="black" x="181" y="7" dy=".7em" style="text-anchor: middle;">ST</text><text fill="black" x="254" y="7" dy=".7em" style="text-anchor: middle;">SPS</text><text fill="black" x="326" y="7" dy=".7em" style="text-anchor: middle;">LEP</text><text fill="black" x="398" y="7" dy=".7em" style="text-anchor: middle;">EF</text><text fill="black" x="471" y="7" dy=".7em" style="text-anchor: middle;">FI</text><text fill="black" x="543" y="7" dy=".7em" style="text-anchor: middle;">PE</text><text fill="black" x="615" y="7" dy=".7em" style="text-anchor: middle;">DG</text><text fill="black" x="688" y="7" dy=".7em" style="text-anchor: middle;">DD</text><text fill="black" x="760" y="7" dy=".7em" style="text-anchor: middle;">TIS</text><text fill="black" x="833" y="7" dy=".7em" style="text-anchor: middle;">AG</text><text fill="black" x="905" y="7" dy=".7em" style="text-anchor: middle;">TH</text></g></g><g><path d="M28,307h-28m14,-11h-14m14,-11h-14m14,-11h-14m14,-11h-14m28,-11h-28m14,-11h-14m14,-11h-14m14,-11h-14m14,-11h-14m28,-11h-28m14,-11h-14m14,-11h-14m14,-11h-14m14,-11h-14m28,-11h-28m14,-12h-14m14,-11h-14m14,-11h-14m14,-11h-14m28,-11h-28m14,-11h-14m14,-11h-14m14,-11h-14m14,-11h-14m28,-11h-28m14,-11h-14m14,-11h-14" style="stroke: black; stroke-width: 1;"></path><g font-family="Arial" font-size="11" space="preserve"><text fill="black" x="-8" y="307" style="text-anchor: end; dominant-baseline: middle;">0</text><text fill="black" x="-8" y="252" style="text-anchor: end; dominant-baseline: middle;">100</text><text fill="black" x="-8" y="197" style="text-anchor: end; dominant-baseline: middle;">200</text><text fill="black" x="-8" y="142" style="text-anchor: end; dominant-baseline: middle;">300</text><text fill="black" x="-8" y="86" style="text-anchor: end; dominant-baseline: middle;">400</text><text fill="black" x="-8" y="31" style="text-anchor: end; dominant-baseline: middle;">500</text></g></g></g></g><g objname="TPave" objtype="TLegend" transform="translate(647,69)" font-family="Arial" font-size="25" space="preserve"><path d="M0,0h247v65h-247z" style="fill: white; stroke: black; stroke-width: 1;"></path><rect x="7" y="5" width="48" height="24" style="fill: rgb(148,105,112);"></rect><text text-anchor="start" x="0" y="0" fill="black" transform="translate(62,18)" dominant-baseline="middle" opacity="1">All nations</text><rect x="7" y="36" width="48" height="24" style="fill: rgb(212,89,84);"></rect><text text-anchor="start" x="0" y="0" fill="black" transform="translate(62,49)" dominant-baseline="middle" opacity="1">French only</text></g><g objname="title" objtype="TPaveText" transform="translate(513,2)" font-family="Arial" font-size="17" space="preserve"><path d="M0,0h149v21h-149z" style="fill: none;"></path><text text-anchor="middle" x="0" y="0" fill="black" transform="translate(75,12)" dominant-baseline="middle" opacity="1">Division</text></g></g></g></g></svg>