<svg xmlns="http://www.w3.org/2000/svg" viewBox="0 0 1200 800" preserveAspectRatio="none" width="1200" height="800">
 <path d="M0,0H1200V800H0Z" style="fill: white;"></path>
 <g>
  <g transform="translate(120,80)">
   <path d="M0,0H960V640H0Z" style="fill: white; stroke: black; stroke-width: 1;"></path>
   <svg x="0" y="0" overflow="hidden" width="960" height="640" viewBox="0 0 960 640">
    <g>
     <path d="M1,640a4,4,0,1,0,8,0a4,4,0,1,0,-8,0zM11,640a4,4,0,1,0,8,0a4,4,0,1,0,-8,0zM20,639a4,4,0,1,0,8,0a4,4,0,1,0,-8,0zM30,640a4,4,0,1,0,8,0a4,4,0,1,0,-8,0zM39,640a4,4,0,1,0,8,0a4,4,0,1,0,-8,0zM49,640a4,4,0,1,0,8,0a4,4,0,1,0,-8,0zM59,640a4,4,0,1,0,8,0a4,4,0,1,0,-8,0zM68,638a4,4,0,1,0,8,0a4,4,0,1,0,-8,0zM78,637a4,4,0,1,0,8,0a4,4,0,1,0,-8,0zM87,637a4,4,0,1,0,8,0a4,4,0,1,0,-8,0zM97,635a4,4,0,1,0,8,0a4,4,0,1,0,-8,0zM107,636a4,4,0,1,0,8,0a4,4,0,1,0,-8,0zM116,632a4,4,0,1,0,8,0a4,4,0,1,0,-8,0zM126,630a4,4,0,1,0,8,0a4,4,0,1,0,-8,0zM135,629a4,4,0,1,0,8,0a4,4,0,1,0,-8,0zM145,624a4,4,0,1,0,8,0a4,4,0,1,0,-8,0zM155,624a4,4,0,1,0,8,0a4,4,0,1,0,-8,0zM164,617a4,4,0,1,0,8,0a4,4,0,1,0,-8,0zM174,612a4,4,0,1,0,8,0a4,4,0,1,0,-8,0zM183,601a4,4,0,1,0,8,0a4,4,0,1,0,-8,0zM193,606a4,4,0,1,0,8,0a4,4,0,1,0,-8,0zM203,591a4,4,0,1,0,8,0a4,4,0,1,0,-8,0zM212,598a4,4,0,1,0,8,0a4,4,0,1,0,-8,0zM222,580a4,4,0,1,0,8,0a4,4,0,1,0,-8,0zM231,559a4,4,0,1,0,8,0a4,4,0,1,0,-8,0zM241,558a4,4,0,1,0,8,0a4,4,0,1,0,-8,0zM251,555a4,4,0,1,0,8,0a4,4,0,1,0,-8,0zM260,519a4,4,0,1,0,8,0a4,4,0,1,0,-8,0zM270,513a4,4,0,1,0,8,0a4,4,0,1,0,-8,0zM279,502a4,4,0,1,0,8,0a4,4,0,1,0,-8,0zM289,485a4,4,0,1,0,8,0a4,4,0,1,0,-8,0zM299,438a4,4,0,1,0,8,0a4,4,0,1,0,-8,0zM308,435a4,4,0,1,0,8,0a4,4,0,1,0,-8,0zM318,410a4,4,0,1,0,8,0a4,4,0,1,0,-8,0zM327,398a4,4,0,1,0,8,0a4,4,0,1,0,-8,0zM337,361a4,4,0,1,0,8,0a4,4,0,1,0,-8,0zM347,347a4,4,0,1,0,8,0a4,4,0,1,0,-8,0zM356,296a4,4,0,1,0,8,0a4,4,0,1,0,-8,0zM366,261a4,4,0,1,0,8,0a4,4,0,1,0,-8,0zM375,261a4,4,0,1,0,8,0a4,4,0,1,0,-8,0zM385,222a4,4,0,1,0,8,0a4,4,0,1,0,-8,0zM395,195a4,4,0,1,0,8,0a4,4,0,1,0,-8,0zM404,126a4,4,0,1,0,8,0a4,4,0,1,0,-8,0zM414,158a4,4,0,1,0,8,0a4,4,0,1,0,-8,0zM423,104a4,4,0,1,0,8,0a4,4,0,1,0,-8,0zM433,149a4,4,0,1,0,8,0a4,4,0,1,0,-8,0zM443,96a4,4,0,1,0,8,0a4,4,0,1,0,-8,0zM452,69a4,4,0,1,0,8,0a4,4,0,1,0,-8,0zM462,86a4,4,0,1,0,8,0a4,4,0,1,0,-8,0zM471,110a4,4,0,1,0,8,0a4,4,0,1,0,-8,0zM481,74a4,4,0,1,0,8,0a4,4,0,1,0,-8,0zM491,30a4,4,0,1,0,8,0a4,4,0,1,0,-8,0zM500,103a4,4,0,1,0,8,0a4,4,0,1,0,-8,0zM510,105a4,4,0,1,0,8,0a4,4,0,1,0,-8,0zM519,117a4,4,0,1,0,8,0a4,4,0,1,0,-8,0zM529,121a4,4,0,1,0,8,0a4,4,0,1,0,-8,0zM539,170a4,4,0,1,0,8,0a4,4,0,1,0,-8,0zM548,187a4,4,0,1,0,8,0a4,4,0,1,0,-8,0zM558,199a4,4,0,1,0,8,0a4,4,0,1,0,-8,0zM567,224a4,4,0,1,0,8,0a4,4,0,1,0,-8,0zM577,240a4,4,0,1,0,8,0a4,4,0,1,0,-8,0zM587,249a4,4,0,1,0,8,0a4,4,0,1,0,-8,0zM596,285a4,4,0,1,0,8,0a4,4,0,1,0,-8,0zM606,329a4,4,0,1,0,8,0a4,4,0,1,0,-8,0zM615,342a4,4,0,1,0,8,0a4,4,0,1,0,-8,0zM625,363a4,4,0,1,0,8,0a4,4,0,1,0,-8,0zM635,426a4,4,0,1,0,8,0a4,4,0,1,0,-8,0zM644,420a4,4,0,1,0,8,0a4,4,0,1,0,-8,0zM654,449a4,4,0,1,0,8,0a4,4,0,1,0,-8,0zM663,473a4,4,0,1,0,8,0a4,4,0,1,0,-8,0zM673,488a4,4,0,1,0,8,0a4,4,0,1,0,-8,0zM683,510a4,4,0,1,0,8,0a4,4,0,1,0,-8,0zM692,528a4,4,0,1,0,8,0a4,4,0,1,0,-8,0zM702,551a4,4,0,1,0,8,0a4,4,0,1,0,-8,0zM711,550a4,4,0,1,0,8,0a4,4,0,1,0,-8,0zM721,571a4,4,0,1,0,8,0a4,4,0,1,0,-8,0zM731,577a4,4,0,1,0,8,0a4,4,0,1,0,-8,0zM740,593a4,4,0,1,0,8,0a4,4,0,1,0,-8,0zM750,596a4,4,0,1,0,8,0a4,4,0,1,0,-8,0zM759,608a4,4,0,1,0,8,0a4,4,0,1,0,-8,0zM769,615a4,4,0,1,0,8,0a4,4,0,1,0,-8,0zM779,607a4,4,0,1,0,8,0a4,4,0,1,0,-8,0zM788,619a4,4,0,1,0,8,0a4,4,0,1,0,-8,0zM798,624a4,4,0,1,0,8,0a4,4,0,1,0,-8,0zM807,628a4,4,0,1,0,8,0a4,4,0,1,0,-8,0zM817,628a4,4,0,1,0,8,0a4,4,0,1,0,-8,0zM827,632a4,4,0,1,0,8,0a4,4,0,1,0,-8,0zM836,631a4,4,0,1,0,8,0a4,4,0,1,0,-8,0zM846,638a4,4,0,1,0,8,0a4,4,0,1,0,-8,0zM855,634a4,4,0,1,0,8,0a4,4,0,1,0,-8,0zM865,636a4,4,0,1,0,8,0a4,4,0,1,0,-8,0zM875,639a4,4,0,1,0,8,0a4,4,0,1,0,-8,0zM884,639a4,4,0,1,0,8,0a4,4,0,1,0,-8,0zM894,639a4,4,0,1,0,8,0a4,4,0,1,0,-8,0zM903,640a4,4,0,1,0,8,0a4,4,0,1,0,-8,0zM913,640a4,4,0,1,0,8,0a4,4,0,1,0,-8,0zM923,640a4,4,0,1,0,8,0a4,4,0,1,0,-8,0zM932,640a4,4,0,1,0,8,0a4,4,0,1,0,-8,0zM942,640a4,4,0,1,0,8,0a4,4,0,1,0,-8,0zM951,639a4,4,0,1,0,8,0a4,4,0,1,0,-8,0z" style="stroke: black; fill: black;"></path>
    </g>
   </svg>
   <g>
    <g transform="translate(0,640)">
     <path d="M0,0h960M0,-24V0M24,-12V0M48,-12V0M72,-12V0M96,-12V0M120,-24V0M144,-12V0M168,-12V0M192,-12V0M216,-12V0M240,-24V0M264,-12V0M288,-12V0M312,-12V0M336,-12V0M360,-24V0M384,-12V0M408,-12V0M432,-12V0M456,-12V0M480,-24V0M504,-12V0M528,-12V0M552,-12V0M576,-12V0M600,-24V0M624,-12V0M648,-12V0M672,-12V0M696,-12V0M720,-24V0M744,-12V0M768,-12V0M792,-12V0M816,-12V0M840,-24V0M864,-12V0M888,-12V0M912,-12V0M936,-12V0M960,-24V0" style="stroke: black; stroke-width: 1;"></path>
     <g font-family="Arial" font-size="28" space="preserve" fill="black" text-anchor="middle">
      <text dy=".8em" transform="translate(0,5)">
       -4
      </text>
      <text dy=".8em" transform="translate(120,5)">
       -3
      </text>
      <text dy=".8em" transform="translate(240,5)">
       -2
      </text>
      <text dy=".8em" transform="translate(360,5)">
       -1
      </text>
      <text dy=".8em" transform="translate(480,5)">
       0
      </text>
      <text dy=".8em" transform="translate(600,5)">
       1
      </text>
      <text dy=".8em" transform="translate(720,5)">
       2
      </text>
      <text dy=".8em" transform="translate(840,5)">
       3
      </text>
      <text dy=".8em" transform="translate(960,5)">
       4
      </text>
     </g>
    </g>
    <g>
     <path d="M0,0v640M36,640H0M18,626H0M18,612H0M18,598H0M18,583H0M36,569H0M18,555H0M18,541H0M18,527H0M18,513H0M36,499H0M18,485H0M18,470H0M18,456H0M18,442H0M36,428H0M18,414H0M18,400H0M18,386H0M18,372H0M36,357H0M18,343H0M18,329H0M18,315H0M18,301H0M36,287H0M18,273H0M18,259H0M18,244H0M18,230H0M36,216H0M18,202H0M18,188H0M18,174H0M18,160H0M36,146H0M18,131H0M18,117H0M18,103H0M18,89H0M36,75H0M18,61H0M18,47H0M18,33H0M18,18H0M36,4H0" style="stroke: black; stroke-width: 1;"></path>
     <g font-family="Arial" font-size="28" space="preserve" fill="black" text-anchor="end">
      <text dy=".4em" transform="translate(-6,640)">
       0
      </text>
      <text dy=".4em" transform="translate(-6,569)">
       100
      </text>
      <text dy=".4em" transform="translate(-6,499)">
       200
      </text>
      <text dy=".4em" transform="translate(-6,428)">
       300
      </text>
      <text dy=".4em" transform="translate(-6,357)">
       400
      </text>
      <text dy=".4em" transform="translate(-6,287)">
       500
      </text>
      <text dy=".4em" transform="translate(-6,216)">
       600
      </text>
      <text dy=".4em" transform="translate(-6,146)">
       700
      </text>
      <text dy=".4em" transform="translate(-6,75)">
       800
      </text>
      <text dy=".4em" transform="translate(-6,4)">
       900
      </text>
     </g>
    </g>
   </g>
  </g>
  <g transform="translate(120,4)" font-family="Arial" font-size="40" space="preserve">
   <text fill="black" text-anchor="middle" dy=".8em" transform="translate(480)">
    This is the px distribution
   </text>
  </g>
  <g transform="translate(936,52)" font-family="Arial" font-size="25" space="preserve" fill="black">
   <path d="M0,0H240V128H0Z" style="fill: white; stroke: black; stroke-width: 1;"></path>
   <text text-anchor="middle" dy=".4em" transform="translate(120,16)">
    hpx
   </text>
   <text text-anchor="start" dy=".4em" transform="translate(12,48)">
    Entries
   </text>
   <text text-anchor="end" dy=".4em" transform="translate(228,48)">
    25000
   </text>
   <text text-anchor="start" dy=".4em" transform="translate(12,80)">
    Mean
   </text>
   <text text-anchor="end" dy=".4em" transform="translate(228,80)">
    0.003163
   </text>
   <text text-anchor="start" dy=".4em" transform="translate(12,112)">
    Std Dev
   </text>
   <text text-anchor="end" dy=".4em" transform="translate(228,112)">
    1.004
   </text>
   <path d="M0,32h240" style="stroke: black; stroke-width: 1;"></path>
  </g>
 </g>
</svg>