<svg xmlns="http://www.w3.org/2000/svg" viewBox="0 0 1200 800" preserveAspectRatio="none" width="1200" height="800">
 <path d="M0,0H1200V800H0Z" style="fill: white;"></path>
 <g>
  <g transform="translate(120,80)">
   <path d="M0,0H960V640H0Z" style="fill: white; stroke: black; stroke-width: 1;"></path>
   <svg x="0" y="0" overflow="hidden" width="960" height="640" viewBox="0 0 960 640">
    <g>
     <path d="M19,639h10M24,637v3M67,638h10M72,636v3M77,637h10M82,635v4M86,637h10M91,635v4M96,635h10M101,633v4M106,637h10M111,634v4M115,632h10M120,629v6M125,630h10M130,627v6M134,630h10M139,626v6M144,624h10M149,620v8M154,625h10M159,621v7M163,617h10M168,613v8M173,613h10M178,608v10M182,602h10M187,597v11M192,607h10M197,602v10M202,593h10M207,587v12M211,599h10M216,593v11M221,582h10M226,575v13M230,562h10M235,554v15M240,561h10M245,553v15M250,557h10M255,549v16M259,523h10M264,513v19M269,517h10M274,507v19M278,506h10M283,496v20M288,491h10M293,480v21M298,445h10M303,433v23M307,442h10M312,430v24M317,418h10M322,405v25M326,406h10M331,393v26M336,371h10M341,356v28M346,357h10M351,342v29M355,308h10M360,292v31M365,274h10M370,258v32M374,274h10M379,257v32M384,236h10M389,219v34M394,210h10M399,192v35M403,143h10M408,124v38M413,174h10M418,155v37M422,122h10M427,103v38M432,166h10M437,147v37M442,115h10M447,95v39M451,88h10M456,68v39M461,104h10M466,85v39M470,128h10M475,109v38M480,94h10M485,74v39M490,51h10M495,30v41M499,121h10M504,101v39M509,124h10M514,104v38M518,135h10M523,116v38M528,139h10M533,119v38M538,186h10M543,168v36M547,203h10M552,185v35M557,214h10M562,197v34M566,238h10M571,221v34M576,253h10M581,236v33M586,263h10M591,246v33M595,298h10M600,282v31M605,340h10M610,325v29M614,352h10M619,337v29M624,373h10M629,358v28M634,433h10M639,421v24M643,427h10M648,414v25M653,455h10M658,443v23M662,479h10M667,468v21M672,493h10M677,483v20M682,514h10M687,505v19M691,532h10M696,523v18M701,554h10M706,546v16M710,553h10M715,544v16M720,574h10M725,566v15M730,579h10M735,572v14M739,594h10M744,588v12M749,597h10M754,591v11M758,609h10M763,603v10M768,616h10M773,611v9M778,608h10M783,603v10M787,620h10M792,615v8M797,624h10M802,620v8M806,628h10M811,625v6M816,628h10M821,625v6M826,632h10M831,629v5M835,631h10M840,628v6M845,638h10M850,636v3M854,635h10M859,632v4M864,636h10M869,633v5M874,639h10M879,637v3M883,639h10M888,637v3M893,639h10M898,637v3M950,639h10M955,638v2" style="stroke: rgb(0, 0, 154); stroke-width: 1;"></path>
    </g>
   </svg>
   <g>
    <g transform="translate(0,640)">
     <path d="M0,0h960M0,-19V0M24,-10V0M48,-10V0M72,-10V0M96,-10V0M120,-19V0M144,-10V0M168,-10V0M192,-10V0M216,-10V0M240,-19V0M264,-10V0M288,-10V0M312,-10V0M336,-10V0M360,-19V0M384,-10V0M408,-10V0M432,-10V0M456,-10V0M480,-19V0M504,-10V0M528,-10V0M552,-10V0M576,-10V0M600,-19V0M624,-10V0M648,-10V0M672,-10V0M696,-10V0M720,-19V0M744,-10V0M768,-10V0M792,-10V0M816,-10V0M840,-19V0M864,-10V0M888,-10V0M912,-10V0M936,-10V0M960,-19V0" style="stroke: black; stroke-width: 1;"></path>
     <g font-family="Arial" font-size="28" xml:space="preserve" fill="black" text-anchor="middle"><text dy=".8em" transform="translate(0,5)">-4</text><text dy=".8em" transform="translate(120,5)">-3</text><text dy=".8em" transform="translate(240,5)">-2</text><text dy=".8em" transform="translate(360,5)">-1</text><text dy=".8em" transform="translate(480,5)">0</text><text dy=".8em" transform="translate(600,5)">1</text><text dy=".8em" transform="translate(720,5)">2</text><text dy=".8em" transform="translate(840,5)">3</text><text dy=".8em" transform="translate(960,5)">4</text></g>
    </g>
    <g>
     <path d="M0,0v640M29,640H0M15,626H0M15,613H0M15,599H0M15,585H0M29,572H0M15,558H0M15,544H0M15,531H0M15,517H0M29,504H0M15,490H0M15,476H0M15,463H0M15,449H0M29,435H0M15,422H0M15,408H0M15,394H0M15,381H0M29,367H0M15,353H0M15,340H0M15,326H0M15,313H0M29,299H0M15,285H0M15,272H0M15,258H0M15,244H0M29,231H0M15,217H0M15,203H0M15,190H0M15,176H0M29,162H0M15,149H0M15,135H0M15,121H0M15,108H0M29,94H0M15,81H0M15,67H0M15,53H0M15,40H0M29,26H0M15,12H0" style="stroke: black; stroke-width: 1;"></path>
     <g font-family="Arial" font-size="28" xml:space="preserve" fill="black" text-anchor="end"><text dominant-baseline="middle" transform="translate(-6,640)">0</text><text dominant-baseline="middle" transform="translate(-6,572)">100</text><text dominant-baseline="middle" transform="translate(-6,504)">200</text><text dominant-baseline="middle" transform="translate(-6,435)">300</text><text dominant-baseline="middle" transform="translate(-6,367)">400</text><text dominant-baseline="middle" transform="translate(-6,299)">500</text><text dominant-baseline="middle" transform="translate(-6,231)">600</text><text dominant-baseline="middle" transform="translate(-6,162)">700</text><text dominant-baseline="middle" transform="translate(-6,94)">800</text><text dominant-baseline="middle" transform="translate(-6,26)">900</text></g>
    </g>
   </g>
  </g>
  <g transform="translate(936,52)" font-family="Arial" font-size="27" xml:space="preserve" fill="black"><path d="M0,0H240V128H0Z" style="fill: white; stroke: black; stroke-width: 1;"></path><text text-anchor="middle" dominant-baseline="middle" transform="translate(120,16)">hpx</text><text text-anchor="start" dominant-baseline="middle" transform="translate(12,48)">Entries</text><text text-anchor="end" dominant-baseline="middle" transform="translate(228,48)">25000</text><text text-anchor="start" dominant-baseline="middle" transform="translate(12,80)">Mean</text><text text-anchor="end" dominant-baseline="middle" transform="translate(228,80)">0.003163</text><text text-anchor="start" dominant-baseline="middle" transform="translate(12,112)">Std Dev</text><text text-anchor="end" dominant-baseline="middle" transform="translate(228,112)">1.004</text><path d="M0,32h240" style="stroke: black; stroke-width: 1;"></path></g>
  <g transform="translate(362,4)" font-family="Arial" font-size="40" xml:space="preserve"><text fill="black" text-anchor="middle" dominant-baseline="middle" transform="translate(238,26)">This is the px distribution</text></g>
 </g>
</svg>