<svg viewBox="0 0 1200 800" preserveAspectRatio="none" xmlns="http://www.w3.org/2000/svg" width="1200" height="800"><title>ROOT canvas</title><rect class="canvas_fillrect" x="0" y="0" style="pointer-events: visibleFill; fill: none;" width="1200" height="800"></rect><g class="root_frame" x="120" y="80" width="960" height="640" transform="translate(120,80)"><title></title><rect x="0" y="0" width="960" height="640" style="fill: white; stroke: black; stroke-width: 1;"></rect><g class="grid_layer"></g><svg class="main_layer" x="0" y="0" overflow="hidden" width="960" height="640" viewBox="0 0 960 640"><g objname="hpx" objtype="TH1F" font-family="Arial" font-size="7" space="preserve"><text text-anchor="start" x="0" y="0" fill="black" transform="translate(24.0,636.0) rotate(270,0,0)" dominant-baseline="middle">2</text><text text-anchor="start" x="0" y="0" fill="black" transform="translate(72.0,635.0) rotate(270,0,0)" dominant-baseline="middle">3</text><text text-anchor="start" x="0" y="0" fill="black" transform="translate(82.0,634.0) rotate(270,0,0)" dominant-baseline="middle">4</text><text text-anchor="start" x="0" y="0" fill="black" transform="translate(91.0,634.0) rotate(270,0,0)" dominant-baseline="middle">4</text><text text-anchor="start" x="0" y="0" fill="black" transform="translate(101.0,632.0) rotate(270,0,0)" dominant-baseline="middle">7</text><text text-anchor="start" x="0" y="0" fill="black" transform="translate(111.0,633.0) rotate(270,0,0)" dominant-baseline="middle">5</text><text text-anchor="start" x="0" y="0" fill="black" transform="translate(120.0,629.0) rotate(270,0,0)" dominant-baseline="middle">11</text><text text-anchor="start" x="0" y="0" fill="black" transform="translate(130.0,627.0) rotate(270,0,0)" dominant-baseline="middle">14</text><text text-anchor="start" x="0" y="0" fill="black" transform="translate(139.0,626.0) rotate(270,0,0)" dominant-baseline="middle">15</text><text text-anchor="start" x="0" y="0" fill="black" transform="translate(149.0,621.0) rotate(270,0,0)" dominant-baseline="middle">23</text><text text-anchor="start" x="0" y="0" fill="black" transform="translate(159.0,621.0) rotate(270,0,0)" dominant-baseline="middle">22</text><text text-anchor="start" x="0" y="0" fill="black" transform="translate(168.0,614.0) rotate(270,0,0)" dominant-baseline="middle">33</text><text text-anchor="start" x="0" y="0" fill="black" transform="translate(178.0,609.0) rotate(270,0,0)" dominant-baseline="middle">39</text><text text-anchor="start" x="0" y="0" fill="black" transform="translate(187.0,598.0) rotate(270,0,0)" dominant-baseline="middle">55</text><text text-anchor="start" x="0" y="0" fill="black" transform="translate(197.0,603.0) rotate(270,0,0)" dominant-baseline="middle">48</text><text text-anchor="start" x="0" y="0" fill="black" transform="translate(207.0,588.0) rotate(270,0,0)" dominant-baseline="middle">69</text><text text-anchor="start" x="0" y="0" fill="black" transform="translate(216.0,595.0) rotate(270,0,0)" dominant-baseline="middle">60</text><text text-anchor="start" x="0" y="0" fill="black" transform="translate(226.0,577.0) rotate(270,0,0)" dominant-baseline="middle">85</text><text text-anchor="start" x="0" y="0" fill="black" transform="translate(235.0,556.0) rotate(270,0,0)" dominant-baseline="middle">115</text><text text-anchor="start" x="0" y="0" fill="black" transform="translate(245.0,555.0) rotate(270,0,0)" dominant-baseline="middle">116</text><text text-anchor="start" x="0" y="0" fill="black" transform="translate(255.0,552.0) rotate(270,0,0)" dominant-baseline="middle">121</text><text text-anchor="start" x="0" y="0" fill="black" transform="translate(264.0,516.0) rotate(270,0,0)" dominant-baseline="middle">172</text><text text-anchor="start" x="0" y="0" fill="black" transform="translate(274.0,510.0) rotate(270,0,0)" dominant-baseline="middle">180</text><text text-anchor="start" x="0" y="0" fill="black" transform="translate(283.0,499.0) rotate(270,0,0)" dominant-baseline="middle">196</text><text text-anchor="start" x="0" y="0" fill="black" transform="translate(293.0,482.0) rotate(270,0,0)" dominant-baseline="middle">219</text><text text-anchor="start" x="0" y="0" fill="black" transform="translate(303.0,435.0) rotate(270,0,0)" dominant-baseline="middle">286</text><text text-anchor="start" x="0" y="0" fill="black" transform="translate(312.0,432.0) rotate(270,0,0)" dominant-baseline="middle">290</text><text text-anchor="start" x="0" y="0" fill="black" transform="translate(322.0,407.0) rotate(270,0,0)" dominant-baseline="middle">326</text><text text-anchor="start" x="0" y="0" fill="black" transform="translate(331.0,395.0) rotate(270,0,0)" dominant-baseline="middle">343</text><text text-anchor="start" x="0" y="0" fill="black" transform="translate(341.0,358.0) rotate(270,0,0)" dominant-baseline="middle">395</text><text text-anchor="start" x="0" y="0" fill="black" transform="translate(351.0,344.0) rotate(270,0,0)" dominant-baseline="middle">415</text><text text-anchor="start" x="0" y="0" fill="black" transform="translate(360.0,293.0) rotate(270,0,0)" dominant-baseline="middle">487</text><text text-anchor="start" x="0" y="0" fill="black" transform="translate(370.0,258.0) rotate(270,0,0)" dominant-baseline="middle">536</text><text text-anchor="start" x="0" y="0" fill="black" transform="translate(379.0,258.0) rotate(270,0,0)" dominant-baseline="middle">537</text><text text-anchor="start" x="0" y="0" fill="black" transform="translate(389.0,219.0) rotate(270,0,0)" dominant-baseline="middle">592</text><text text-anchor="start" x="0" y="0" fill="black" transform="translate(399.0,192.0) rotate(270,0,0)" dominant-baseline="middle">630</text><text text-anchor="start" x="0" y="0" fill="black" transform="translate(408.0,123.0) rotate(270,0,0)" dominant-baseline="middle">728</text><text text-anchor="start" x="0" y="0" fill="black" transform="translate(418.0,155.0) rotate(270,0,0)" dominant-baseline="middle">683</text><text text-anchor="start" x="0" y="0" fill="black" transform="translate(427.0,101.0) rotate(270,0,0)" dominant-baseline="middle">759</text><text text-anchor="start" x="0" y="0" fill="black" transform="translate(437.0,146.0) rotate(270,0,0)" dominant-baseline="middle">695</text><text text-anchor="start" x="0" y="0" fill="black" transform="translate(447.0,93.0) rotate(270,0,0)" dominant-baseline="middle">770</text><text text-anchor="start" x="0" y="0" fill="black" transform="translate(456.0,66.0) rotate(270,0,0)" dominant-baseline="middle">809</text><text text-anchor="start" x="0" y="0" fill="black" transform="translate(466.0,83.0) rotate(270,0,0)" dominant-baseline="middle">785</text><text text-anchor="start" x="0" y="0" fill="black" transform="translate(475.0,107.0) rotate(270,0,0)" dominant-baseline="middle">750</text><text text-anchor="start" x="0" y="0" fill="black" transform="translate(485.0,71.0) rotate(270,0,0)" dominant-baseline="middle">801</text><text text-anchor="start" x="0" y="0" fill="black" transform="translate(495.0,27.0) rotate(270,0,0)" dominant-baseline="middle">863</text><text text-anchor="start" x="0" y="0" fill="black" transform="translate(504.0,100.0) rotate(270,0,0)" dominant-baseline="middle">761</text><text text-anchor="start" x="0" y="0" fill="black" transform="translate(514.0,102.0) rotate(270,0,0)" dominant-baseline="middle">757</text><text text-anchor="start" x="0" y="0" fill="black" transform="translate(523.0,114.0) rotate(270,0,0)" dominant-baseline="middle">740</text><text text-anchor="start" x="0" y="0" fill="black" transform="translate(533.0,118.0) rotate(270,0,0)" dominant-baseline="middle">735</text><text text-anchor="start" x="0" y="0" fill="black" transform="translate(543.0,167.0) rotate(270,0,0)" dominant-baseline="middle">665</text><text text-anchor="start" x="0" y="0" fill="black" transform="translate(552.0,184.0) rotate(270,0,0)" dominant-baseline="middle">641</text><text text-anchor="start" x="0" y="0" fill="black" transform="translate(562.0,196.0) rotate(270,0,0)" dominant-baseline="middle">624</text><text text-anchor="start" x="0" y="0" fill="black" transform="translate(571.0,221.0) rotate(270,0,0)" dominant-baseline="middle">589</text><text text-anchor="start" x="0" y="0" fill="black" transform="translate(581.0,237.0) rotate(270,0,0)" dominant-baseline="middle">567</text><text text-anchor="start" x="0" y="0" fill="black" transform="translate(591.0,246.0) rotate(270,0,0)" dominant-baseline="middle">553</text><text text-anchor="start" x="0" y="0" fill="black" transform="translate(600.0,282.0) rotate(270,0,0)" dominant-baseline="middle">502</text><text text-anchor="start" x="0" y="0" fill="black" transform="translate(610.0,326.0) rotate(270,0,0)" dominant-baseline="middle">440</text><text text-anchor="start" x="0" y="0" fill="black" transform="translate(619.0,339.0) rotate(270,0,0)" dominant-baseline="middle">422</text><text text-anchor="start" x="0" y="0" fill="black" transform="translate(629.0,360.0) rotate(270,0,0)" dominant-baseline="middle">392</text><text text-anchor="start" x="0" y="0" fill="black" transform="translate(639.0,423.0) rotate(270,0,0)" dominant-baseline="middle">303</text><text text-anchor="start" x="0" y="0" fill="black" transform="translate(648.0,417.0) rotate(270,0,0)" dominant-baseline="middle">312</text><text text-anchor="start" x="0" y="0" fill="black" transform="translate(658.0,446.0) rotate(270,0,0)" dominant-baseline="middle">271</text><text text-anchor="start" x="0" y="0" fill="black" transform="translate(667.0,470.0) rotate(270,0,0)" dominant-baseline="middle">236</text><text text-anchor="start" x="0" y="0" fill="black" transform="translate(677.0,485.0) rotate(270,0,0)" dominant-baseline="middle">215</text><text text-anchor="start" x="0" y="0" fill="black" transform="translate(687.0,507.0) rotate(270,0,0)" dominant-baseline="middle">184</text><text text-anchor="start" x="0" y="0" fill="black" transform="translate(696.0,525.0) rotate(270,0,0)" dominant-baseline="middle">158</text><text text-anchor="start" x="0" y="0" fill="black" transform="translate(706.0,548.0) rotate(270,0,0)" dominant-baseline="middle">126</text><text text-anchor="start" x="0" y="0" fill="black" transform="translate(715.0,547.0) rotate(270,0,0)" dominant-baseline="middle">128</text><text text-anchor="start" x="0" y="0" fill="black" transform="translate(725.0,568.0) rotate(270,0,0)" dominant-baseline="middle">97</text><text text-anchor="start" x="0" y="0" fill="black" transform="translate(735.0,574.0) rotate(270,0,0)" dominant-baseline="middle">89</text><text text-anchor="start" x="0" y="0" fill="black" transform="translate(744.0,590.0) rotate(270,0,0)" dominant-baseline="middle">67</text><text text-anchor="start" x="0" y="0" fill="black" transform="translate(754.0,593.0) rotate(270,0,0)" dominant-baseline="middle">63</text><text text-anchor="start" x="0" y="0" fill="black" transform="translate(763.0,605.0) rotate(270,0,0)" dominant-baseline="middle">46</text><text text-anchor="start" x="0" y="0" fill="black" transform="translate(773.0,612.0) rotate(270,0,0)" dominant-baseline="middle">35</text><text text-anchor="start" x="0" y="0" fill="black" transform="translate(783.0,604.0) rotate(270,0,0)" dominant-baseline="middle">47</text><text text-anchor="start" x="0" y="0" fill="black" transform="translate(792.0,616.0) rotate(270,0,0)" dominant-baseline="middle">30</text><text text-anchor="start" x="0" y="0" fill="black" transform="translate(802.0,621.0) rotate(270,0,0)" dominant-baseline="middle">23</text><text text-anchor="start" x="0" y="0" fill="black" transform="translate(811.0,625.0) rotate(270,0,0)" dominant-baseline="middle">17</text><text text-anchor="start" x="0" y="0" fill="black" transform="translate(821.0,625.0) rotate(270,0,0)" dominant-baseline="middle">17</text><text text-anchor="start" x="0" y="0" fill="black" transform="translate(831.0,629.0) rotate(270,0,0)" dominant-baseline="middle">12</text><text text-anchor="start" x="0" y="0" fill="black" transform="translate(840.0,628.0) rotate(270,0,0)" dominant-baseline="middle">13</text><text text-anchor="start" x="0" y="0" fill="black" transform="translate(850.0,635.0) rotate(270,0,0)" dominant-baseline="middle">3</text><text text-anchor="start" x="0" y="0" fill="black" transform="translate(859.0,631.0) rotate(270,0,0)" dominant-baseline="middle">8</text><text text-anchor="start" x="0" y="0" fill="black" transform="translate(869.0,633.0) rotate(270,0,0)" dominant-baseline="middle">6</text><text text-anchor="start" x="0" y="0" fill="black" transform="translate(879.0,636.0) rotate(270,0,0)" dominant-baseline="middle">2</text><text text-anchor="start" x="0" y="0" fill="black" transform="translate(888.0,636.0) rotate(270,0,0)" dominant-baseline="middle">2</text><text text-anchor="start" x="0" y="0" fill="black" transform="translate(898.0,636.0) rotate(270,0,0)" dominant-baseline="middle">2</text><text text-anchor="start" x="0" y="0" fill="black" transform="translate(955.0,636.0) rotate(270,0,0)" dominant-baseline="middle">1</text><path d="M0,640h19v-1h10v1h38v-2h10v-1h19v-2h10v1h9v-4h10v-2h9v-1h10v-5h19v-7h10v-5h9v-11h10v5h10v-15h9v7h10v-18h9v-21h10v-1h10v-3h9v-36h10v-6h9v-11h10v-17h10v-47h9v-3h10v-25h9v-12h10v-37h10v-14h9v-51h10v-35h19v-39h10v-27h9v-69h10v32h9v-54h10v45h10v-53h9v-27h10v17h9v24h10v-36h10v-44h9v73h10v2h9v12h10v4h10v49h9v17h10v12h9v25h10v16h10v9h9v36h10v44h9v13h10v21h10v63h9v-6h10v29h9v24h10v15h10v22h9v18h10v23h9v-1h10v21h10v6h9v16h10v3h9v12h10v7h10v-8h9v12h10v5h9v4h20v4h9v-1h10v7h9v-4h10v2h10v3h28v1h48v-1h10L960,643L0,643Z" style="stroke-linejoin: miter; stroke: rgb(0,0,154); stroke-width: 1; fill: blue;"></path></g></svg><g class="axis_layer"><g class="xaxis_container" transform="translate(0,640)"><path d="M0,-19v19m24,-10v10m24,-10v10m24,-10v10m24,-10v10m24,-19v19m24,-10v10m24,-10v10m24,-10v10m24,-10v10m24,-19v19m24,-10v10m24,-10v10m24,-10v10m24,-10v10m24,-19v19m24,-10v10m24,-10v10m24,-10v10m24,-10v10m24,-19v19m24,-10v10m24,-10v10m24,-10v10m24,-10v10m24,-19v19m24,-10v10m24,-10v10m24,-10v10m24,-10v10m24,-19v19m24,-10v10m24,-10v10m24,-10v10m24,-10v10m24,-19v19m24,-10v10m24,-10v10m24,-10v10m24,-10v10m24,-19v19" style="stroke: black; stroke-width: 1;"></path><g class="axis_labels" font-family="Arial" font-size="22" space="preserve"><text fill="black" x="0" y="8" dy=".7em" style="text-anchor: middle;">-4</text><text fill="black" x="120" y="8" dy=".7em" style="text-anchor: middle;">-3</text><text fill="black" x="240" y="8" dy=".7em" style="text-anchor: middle;">-2</text><text fill="black" x="360" y="8" dy=".7em" style="text-anchor: middle;">-1</text><text fill="black" x="480" y="8" dy=".7em" style="text-anchor: middle;">0</text><text fill="black" x="600" y="8" dy=".7em" style="text-anchor: middle;">1</text><text fill="black" x="720" y="8" dy=".7em" style="text-anchor: middle;">2</text><text fill="black" x="840" y="8" dy=".7em" style="text-anchor: middle;">3</text><text fill="black" x="960" y="8" dy=".7em" style="text-anchor: middle;">4</text></g></g><g class="yaxis_container"><path d="M29,640h-29m15,-14h-15m15,-14h-15m15,-14h-15m15,-15h-15m29,-14h-29m15,-14h-15m15,-14h-15m15,-14h-15m15,-14h-15m29,-14h-29m15,-14h-15m15,-15h-15m15,-14h-15m15,-14h-15m29,-14h-29m15,-14h-15m15,-14h-15m15,-14h-15m15,-14h-15m29,-15h-29m15,-14h-15m15,-14h-15m15,-14h-15m15,-14h-15m29,-14h-29m15,-14h-15m15,-14h-15m15,-15h-15m15,-14h-15m29,-14h-29m15,-14h-15m15,-14h-15m15,-14h-15m15,-14h-15m29,-14h-29m15,-15h-15m15,-14h-15m15,-14h-15m15,-14h-15m29,-14h-29m15,-14h-15m15,-14h-15m15,-14h-15m15,-15h-15m29,-14h-29" style="stroke: black; stroke-width: 1;"></path><g class="axis_labels" font-family="Arial" font-size="22" space="preserve"><text fill="black" x="-8" y="640" style="text-anchor: end; dominant-baseline: middle;">0</text><text fill="black" x="-8" y="569" style="text-anchor: end; dominant-baseline: middle;">100</text><text fill="black" x="-8" y="499" style="text-anchor: end; dominant-baseline: middle;">200</text><text fill="black" x="-8" y="428" style="text-anchor: end; dominant-baseline: middle;">300</text><text fill="black" x="-8" y="357" style="text-anchor: end; dominant-baseline: middle;">400</text><text fill="black" x="-8" y="287" style="text-anchor: end; dominant-baseline: middle;">500</text><text fill="black" x="-8" y="216" style="text-anchor: end; dominant-baseline: middle;">600</text><text fill="black" x="-8" y="146" style="text-anchor: end; dominant-baseline: middle;">700</text><text fill="black" x="-8" y="75" style="text-anchor: end; dominant-baseline: middle;">800</text><text fill="black" x="-8" y="4" style="text-anchor: end; dominant-baseline: middle;">900</text></g></g></g><g class="upper_layer"></g></g><g class="subpads_layer"></g><g class="special_layer"></g><g class="text_layer"><g objname="title" objtype="TPaveText" x="336" y="8" width="528" height="40" transform="translate(336,8)" font-family="Arial" font-size="33" space="preserve"><rect x="0" y="0" width="528" height="40" style="pointer-events: visibleFill; fill: none;"></rect><text text-anchor="middle" x="0" y="0" fill="black" transform="translate(264.0,21.0)" dominant-baseline="middle" class="" opacity="1">This is the px distribution</text></g></g><g class="stat_layer"></g><g class="btns_layer" transform="translate(2,780)"></g></svg>