<svg xmlns="http://www.w3.org/2000/svg" viewBox="0 0 1200 800" preserveAspectRatio="none" width="1200" height="800"><title>ROOT canvas</title><rect x="0" y="0" width="1200" height="800" style="fill: none;"></rect><g><g transform="translate(120,80)"><title></title><rect x="0" y="0" width="960" height="640" style="fill: white; stroke: black; stroke-width: 1;"></rect><svg x="0" y="0" overflow="hidden" width="960" height="640" viewBox="0 0 960 640"><g font-family="Arial" font-size="7" space="preserve"><text fill="black" text-anchor="start" dy=".4em" transform="translate(24,636) rotate(270)">2</text><text fill="black" text-anchor="start" dy=".4em" transform="translate(72,635) rotate(270)">3</text><text fill="black" text-anchor="start" dy=".4em" transform="translate(82,634) rotate(270)">4</text><text fill="black" text-anchor="start" dy=".4em" transform="translate(91,634) rotate(270)">4</text><text fill="black" text-anchor="start" dy=".4em" transform="translate(101,632) rotate(270)">7</text><text fill="black" text-anchor="start" dy=".4em" transform="translate(111,633) rotate(270)">5</text><text fill="black" text-anchor="start" dy=".4em" transform="translate(120,629) rotate(270)">11</text><text fill="black" text-anchor="start" dy=".4em" transform="translate(130,627) rotate(270)">14</text><text fill="black" text-anchor="start" dy=".4em" transform="translate(139,626) rotate(270)">15</text><text fill="black" text-anchor="start" dy=".4em" transform="translate(149,621) rotate(270)">23</text><text fill="black" text-anchor="start" dy=".4em" transform="translate(159,621) rotate(270)">22</text><text fill="black" text-anchor="start" dy=".4em" transform="translate(168,614) rotate(270)">33</text><text fill="black" text-anchor="start" dy=".4em" transform="translate(178,609) rotate(270)">39</text><text fill="black" text-anchor="start" dy=".4em" transform="translate(187,598) rotate(270)">55</text><text fill="black" text-anchor="start" dy=".4em" transform="translate(197,603) rotate(270)">48</text><text fill="black" text-anchor="start" dy=".4em" transform="translate(207,588) rotate(270)">69</text><text fill="black" text-anchor="start" dy=".4em" transform="translate(216,595) rotate(270)">60</text><text fill="black" text-anchor="start" dy=".4em" transform="translate(226,577) rotate(270)">85</text><text fill="black" text-anchor="start" dy=".4em" transform="translate(235,556) rotate(270)">115</text><text fill="black" text-anchor="start" dy=".4em" transform="translate(245,555) rotate(270)">116</text><text fill="black" text-anchor="start" dy=".4em" transform="translate(255,552) rotate(270)">121</text><text fill="black" text-anchor="start" dy=".4em" transform="translate(264,516) rotate(270)">172</text><text fill="black" text-anchor="start" dy=".4em" transform="translate(274,510) rotate(270)">180</text><text fill="black" text-anchor="start" dy=".4em" transform="translate(283,499) rotate(270)">196</text><text fill="black" text-anchor="start" dy=".4em" transform="translate(293,482) rotate(270)">219</text><text fill="black" text-anchor="start" dy=".4em" transform="translate(303,435) rotate(270)">286</text><text fill="black" text-anchor="start" dy=".4em" transform="translate(312,432) rotate(270)">290</text><text fill="black" text-anchor="start" dy=".4em" transform="translate(322,407) rotate(270)">326</text><text fill="black" text-anchor="start" dy=".4em" transform="translate(331,395) rotate(270)">343</text><text fill="black" text-anchor="start" dy=".4em" transform="translate(341,358) rotate(270)">395</text><text fill="black" text-anchor="start" dy=".4em" transform="translate(351,344) rotate(270)">415</text><text fill="black" text-anchor="start" dy=".4em" transform="translate(360,293) rotate(270)">487</text><text fill="black" text-anchor="start" dy=".4em" transform="translate(370,258) rotate(270)">536</text><text fill="black" text-anchor="start" dy=".4em" transform="translate(379,258) rotate(270)">537</text><text fill="black" text-anchor="start" dy=".4em" transform="translate(389,219) rotate(270)">592</text><text fill="black" text-anchor="start" dy=".4em" transform="translate(399,192) rotate(270)">630</text><text fill="black" text-anchor="start" dy=".4em" transform="translate(408,123) rotate(270)">728</text><text fill="black" text-anchor="start" dy=".4em" transform="translate(418,155) rotate(270)">683</text><text fill="black" text-anchor="start" dy=".4em" transform="translate(427,101) rotate(270)">759</text><text fill="black" text-anchor="start" dy=".4em" transform="translate(437,146) rotate(270)">695</text><text fill="black" text-anchor="start" dy=".4em" transform="translate(447,93) rotate(270)">770</text><text fill="black" text-anchor="start" dy=".4em" transform="translate(456,66) rotate(270)">809</text><text fill="black" text-anchor="start" dy=".4em" transform="translate(466,83) rotate(270)">785</text><text fill="black" text-anchor="start" dy=".4em" transform="translate(475,107) rotate(270)">750</text><text fill="black" text-anchor="start" dy=".4em" transform="translate(485,71) rotate(270)">801</text><text fill="black" text-anchor="start" dy=".4em" transform="translate(495,27) rotate(270)">863</text><text fill="black" text-anchor="start" dy=".4em" transform="translate(504,100) rotate(270)">761</text><text fill="black" text-anchor="start" dy=".4em" transform="translate(514,102) rotate(270)">757</text><text fill="black" text-anchor="start" dy=".4em" transform="translate(523,114) rotate(270)">740</text><text fill="black" text-anchor="start" dy=".4em" transform="translate(533,118) rotate(270)">735</text><text fill="black" text-anchor="start" dy=".4em" transform="translate(543,167) rotate(270)">665</text><text fill="black" text-anchor="start" dy=".4em" transform="translate(552,184) rotate(270)">641</text><text fill="black" text-anchor="start" dy=".4em" transform="translate(562,196) rotate(270)">624</text><text fill="black" text-anchor="start" dy=".4em" transform="translate(571,221) rotate(270)">589</text><text fill="black" text-anchor="start" dy=".4em" transform="translate(581,237) rotate(270)">567</text><text fill="black" text-anchor="start" dy=".4em" transform="translate(591,246) rotate(270)">553</text><text fill="black" text-anchor="start" dy=".4em" transform="translate(600,282) rotate(270)">502</text><text fill="black" text-anchor="start" dy=".4em" transform="translate(610,326) rotate(270)">440</text><text fill="black" text-anchor="start" dy=".4em" transform="translate(619,339) rotate(270)">422</text><text fill="black" text-anchor="start" dy=".4em" transform="translate(629,360) rotate(270)">392</text><text fill="black" text-anchor="start" dy=".4em" transform="translate(639,423) rotate(270)">303</text><text fill="black" text-anchor="start" dy=".4em" transform="translate(648,417) rotate(270)">312</text><text fill="black" text-anchor="start" dy=".4em" transform="translate(658,446) rotate(270)">271</text><text fill="black" text-anchor="start" dy=".4em" transform="translate(667,470) rotate(270)">236</text><text fill="black" text-anchor="start" dy=".4em" transform="translate(677,485) rotate(270)">215</text><text fill="black" text-anchor="start" dy=".4em" transform="translate(687,507) rotate(270)">184</text><text fill="black" text-anchor="start" dy=".4em" transform="translate(696,525) rotate(270)">158</text><text fill="black" text-anchor="start" dy=".4em" transform="translate(706,548) rotate(270)">126</text><text fill="black" text-anchor="start" dy=".4em" transform="translate(715,547) rotate(270)">128</text><text fill="black" text-anchor="start" dy=".4em" transform="translate(725,568) rotate(270)">97</text><text fill="black" text-anchor="start" dy=".4em" transform="translate(735,574) rotate(270)">89</text><text fill="black" text-anchor="start" dy=".4em" transform="translate(744,590) rotate(270)">67</text><text fill="black" text-anchor="start" dy=".4em" transform="translate(754,593) rotate(270)">63</text><text fill="black" text-anchor="start" dy=".4em" transform="translate(763,605) rotate(270)">46</text><text fill="black" text-anchor="start" dy=".4em" transform="translate(773,612) rotate(270)">35</text><text fill="black" text-anchor="start" dy=".4em" transform="translate(783,604) rotate(270)">47</text><text fill="black" text-anchor="start" dy=".4em" transform="translate(792,616) rotate(270)">30</text><text fill="black" text-anchor="start" dy=".4em" transform="translate(802,621) rotate(270)">23</text><text fill="black" text-anchor="start" dy=".4em" transform="translate(811,625) rotate(270)">17</text><text fill="black" text-anchor="start" dy=".4em" transform="translate(821,625) rotate(270)">17</text><text fill="black" text-anchor="start" dy=".4em" transform="translate(831,629) rotate(270)">12</text><text fill="black" text-anchor="start" dy=".4em" transform="translate(840,628) rotate(270)">13</text><text fill="black" text-anchor="start" dy=".4em" transform="translate(850,635) rotate(270)">3</text><text fill="black" text-anchor="start" dy=".4em" transform="translate(859,631) rotate(270)">8</text><text fill="black" text-anchor="start" dy=".4em" transform="translate(869,633) rotate(270)">6</text><text fill="black" text-anchor="start" dy=".4em" transform="translate(879,636) rotate(270)">2</text><text fill="black" text-anchor="start" dy=".4em" transform="translate(888,636) rotate(270)">2</text><text fill="black" text-anchor="start" dy=".4em" transform="translate(898,636) rotate(270)">2</text><text fill="black" text-anchor="start" dy=".4em" transform="translate(955,636) rotate(270)">1</text><path d="M0,640h19v-1h10v1h38v-2h10v-1h19v-2h10v1h9v-4h10v-2h9v-1h10v-5h19v-7h10v-5h9v-11h10v5h10v-15h9v7h10v-18h9v-21h10v-1h10v-3h9v-36h10v-6h9v-11h10v-17h10v-47h9v-3h10v-25h9v-12h10v-37h10v-14h9v-51h10v-35h19v-39h10v-27h9v-69h10v32h9v-54h10v45h10v-53h9v-27h10v17h9v24h10v-36h10v-44h9v73h10v2h9v12h10v4h10v49h9v17h10v12h9v25h10v16h10v9h9v36h10v44h9v13h10v21h10v63h9v-6h10v29h9v24h10v15h10v22h9v18h10v23h9v-1h10v21h10v6h9v16h10v3h9v12h10v7h10v-8h9v12h10v5h9v4h20v4h9v-1h10v7h9v-4h10v2h10v3h28v1h48v-1h10" style="stroke-linejoin: miter; stroke: rgb(0,0,154); stroke-width: 1; fill: none;"></path></g></svg><g><g transform="translate(0,640)"><line x1="0" y1="0" x2="960" y2="0" style="stroke: black; stroke-width: 1;"></line><path d="M0,-24v24m24,-12v12m24,-12v12m24,-12v12m24,-12v12m24,-24v24m24,-12v12m24,-12v12m24,-12v12m24,-12v12m24,-24v24m24,-12v12m24,-12v12m24,-12v12m24,-12v12m24,-24v24m24,-12v12m24,-12v12m24,-12v12m24,-12v12m24,-24v24m24,-12v12m24,-12v12m24,-12v12m24,-12v12m24,-24v24m24,-12v12m24,-12v12m24,-12v12m24,-12v12m24,-24v24m24,-12v12m24,-12v12m24,-12v12m24,-12v12m24,-24v24m24,-12v12m24,-12v12m24,-12v12m24,-12v12m24,-24v24" style="stroke: black; stroke-width: 1;"></path><g font-family="Arial" font-size="28" space="preserve"><text fill="black" text-anchor="middle" dy=".8em" transform="translate(0,6)">-4</text><text fill="black" text-anchor="middle" dy=".8em" transform="translate(120,6)">-3</text><text fill="black" text-anchor="middle" dy=".8em" transform="translate(240,6)">-2</text><text fill="black" text-anchor="middle" dy=".8em" transform="translate(360,6)">-1</text><text fill="black" text-anchor="middle" dy=".8em" transform="translate(480,6)">0</text><text fill="black" text-anchor="middle" dy=".8em" transform="translate(600,6)">1</text><text fill="black" text-anchor="middle" dy=".8em" transform="translate(720,6)">2</text><text fill="black" text-anchor="middle" dy=".8em" transform="translate(840,6)">3</text><text fill="black" text-anchor="middle" dy=".8em" transform="translate(960,6)">4</text></g></g><g><line x1="0" y1="0" x2="0" y2="640" style="stroke: black; stroke-width: 1;"></line><path d="M36,640h-36m18,-14h-18m18,-14h-18m18,-14h-18m18,-15h-18m36,-14h-36m18,-14h-18m18,-14h-18m18,-14h-18m18,-14h-18m36,-14h-36m18,-14h-18m18,-15h-18m18,-14h-18m18,-14h-18m36,-14h-36m18,-14h-18m18,-14h-18m18,-14h-18m18,-14h-18m36,-15h-36m18,-14h-18m18,-14h-18m18,-14h-18m18,-14h-18m36,-14h-36m18,-14h-18m18,-14h-18m18,-15h-18m18,-14h-18m36,-14h-36m18,-14h-18m18,-14h-18m18,-14h-18m18,-14h-18m36,-14h-36m18,-15h-18m18,-14h-18m18,-14h-18m18,-14h-18m36,-14h-36m18,-14h-18m18,-14h-18m18,-14h-18m18,-15h-18m36,-14h-36" style="stroke: black; stroke-width: 1;"></path><g font-family="Arial" font-size="28" space="preserve"><text fill="black" text-anchor="end" dy=".4em" transform="translate(-4,640)">0</text><text fill="black" text-anchor="end" dy=".4em" transform="translate(-4,569)">100</text><text fill="black" text-anchor="end" dy=".4em" transform="translate(-4,499)">200</text><text fill="black" text-anchor="end" dy=".4em" transform="translate(-4,428)">300</text><text fill="black" text-anchor="end" dy=".4em" transform="translate(-4,357)">400</text><text fill="black" text-anchor="end" dy=".4em" transform="translate(-4,287)">500</text><text fill="black" text-anchor="end" dy=".4em" transform="translate(-4,216)">600</text><text fill="black" text-anchor="end" dy=".4em" transform="translate(-4,146)">700</text><text fill="black" text-anchor="end" dy=".4em" transform="translate(-4,75)">800</text><text fill="black" text-anchor="end" dy=".4em" transform="translate(-4,4)">900</text></g></g></g></g><g transform="translate(120,4)" font-family="Arial" font-size="40" space="preserve"><path d="M0,0h960v53h-960z" style="fill: none;"></path><text fill="black" text-anchor="middle" dy=".8em" transform="translate(480,0)">This is the px distribution</text></g><g transform="translate(936,52)" font-family="Arial" font-size="26" space="preserve"><path d="M0,0h240v128h-240z" style="fill: white; stroke: black; stroke-width: 1;"></path><text fill="black" text-anchor="middle" dy=".4em" transform="translate(120,16)">hpx</text><text fill="black" text-anchor="start" dy=".4em" transform="translate(12,48)">Entries </text><text fill="black" text-anchor="end" dy=".4em" transform="translate(228,48)"> 25000</text><text fill="black" text-anchor="start" dy=".4em" transform="translate(12,80)">Mean </text><text fill="black" text-anchor="end" dy=".4em" transform="translate(228,80)"> 0.003163</text><text fill="black" text-anchor="start" dy=".4em" transform="translate(12,112)">Std Dev </text><text fill="black" text-anchor="end" dy=".4em" transform="translate(228,112)"> 1.004</text><path d="M0,32h240" style="stroke: black; stroke-width: 1;"></path></g></g></svg>