<svg xmlns="http://www.w3.org/2000/svg" viewBox="0 0 698 874" preserveAspectRatio="none" width="698" height="874">
 <path d="M0,0H698V874H0Z" style="fill: #85c3a4;"></path>
 <g>
  <svg viewBox="0 0 328 262" preserveAspectRatio="none" x="21" y="70" width="328" height="262">
   <path d="M0,0H328V262H0Z" style="fill: #839f8d;"></path>
   <g>
    <g transform="translate(33,26)">
     <path d="M0,0H262V210H0Z" style="fill: #839f8d; stroke: black; stroke-width: 1;"></path>
     <g>
      <path d="M0,183h262M0,157h262M0,138h262M0,124h262M0,112h262M0,102h262M0,94h262M0,86h262M0,79h262M0,35h262M0,8h262" style="stroke: black; stroke-width: 1; stroke-dasharray: 1,2;"></path>
     </g>
     <svg x="0" y="0" overflow="hidden" width="262" height="210" viewBox="0 0 262 210">
      <g>
       <path d="M2,161L4,93L7,62L9,42L12,28L15,18L17,11L20,6L23,4L25,3L28,3L30,5L33,9L36,13L38,19L41,26L44,34L46,42L49,52L51,63L54,73L57,83L59,91L62,98L65,101L67,101L70,98L72,93L75,86L78,80L80,73L83,67L85,61L88,56L91,52L93,49L96,47L99,45L101,44L104,44L106,44L109,45L112,46L114,47L117,49L120,50L122,51L125,52L127,53L130,53L133,53L135,53L138,52L140,51L143,50L146,49L148,49L151,48L154,47L156,47L159,47L161,47L164,48L167,49L169,51L172,53L175,55L177,57L180,59L182,61L185,63L188,65L190,66L193,67L196,67L198,67L201,65L203,64L206,61L209,59L211,56L214,53L216,50L219,47L222,45L224,43L227,41L230,40L232,39L235,39L237,40L240,40L243,42L245,43L248,46L251,48L253,51L256,54L258,58L261,61" style="fill: none; stroke: red; stroke-width: 1;"></path>
      </g>
      <g>
       <path d="M2,53L4,54L7,56L9,61L12,69L15,78L17,83L20,82L23,74L25,66L28,59L30,55L33,53L36,53L38,53L41,53L44,53L46,52L49,49L51,44L54,39L57,34L59,32L62,34L65,39L67,44L70,49L72,52L75,53L78,53L80,53L83,53L85,53L88,55L91,59L93,65L96,74L99,82L101,83L104,78L106,69L109,61L112,56L114,54L117,53L120,53L122,53L125,53L127,53L130,51L133,47L135,41L138,36L140,33L143,33L146,36L148,42L151,47L154,51L156,53L159,53L161,53L164,53L167,53L169,54L172,57L175,62L177,70L180,79L182,84L185,81L188,73L190,64L193,58L196,54L198,53L201,53L203,53L206,53L209,53L211,52L214,49L216,43L219,38L222,34L224,32L227,35L230,40L232,45L235,50L237,52L240,53L243,53L245,53L248,53L251,54L253,55L256,59L258,67L261,76" style="fill: none; stroke: green; stroke-width: 1;"></path>
      </g>
      <g>
       <path d="M2,111L4,116L7,118L9,115L12,108L15,99L17,89L20,79L23,70L25,62L28,54L30,48L33,42L36,38L38,35L41,32L44,31L46,30L49,30L51,31L54,33L57,36L59,39L62,42L65,46L67,50L70,54L72,58L75,62L78,65L80,68L83,69L85,70L88,69L91,68L93,66L96,64L99,61L101,58L104,56L106,54L109,52L112,50L114,49L117,48L120,47L122,47L125,47L127,48L130,49L133,49L135,50L138,51L140,51L143,52L146,52L148,51L151,51L154,50L156,48L159,47L161,46L164,44L167,43L169,42L172,41L175,41L177,41L180,41L182,43L185,44L188,47L190,50L193,54L196,58L198,63L201,68L203,73L206,78L209,83L211,86L214,88L216,88L219,87L222,83L224,78L227,71L230,65L232,58L235,51L237,45L240,39L243,34L245,30L248,26L251,24L253,22L256,22L258,22L261,23" style="fill: none; stroke: blue; stroke-width: 1;"></path>
      </g>
     </svg>
     <g>
      <g transform="translate(0,210)">
       <path d="M0,0h262M0,-8V0M7,-4V0M13,-4V0M20,-4V0M26,-8V0M33,-4V0M39,-4V0M46,-4V0M52,-8V0M59,-4V0M66,-4V0M72,-4V0M79,-8V0M85,-4V0M92,-4V0M98,-4V0M105,-8V0M111,-4V0M118,-4V0M124,-4V0M131,-8V0M138,-4V0M144,-4V0M151,-4V0M157,-8V0M164,-4V0M170,-4V0M177,-4V0M183,-8V0M190,-4V0M197,-4V0M203,-4V0M210,-8V0M216,-4V0M223,-4V0M229,-4V0M236,-8V0M242,-4V0M249,-4V0M255,-4V0M262,-8V0" style="stroke: black; stroke-width: 1;"></path>
       <g font-family="Arial" font-size="9" space="preserve" fill="black" text-anchor="middle">
        <text dy=".8em">
         -10
        </text>
        <text dy=".8em" transform="translate(26)">
         -8
        </text>
        <text dy=".8em" transform="translate(52)">
         -6
        </text>
        <text dy=".8em" transform="translate(79)">
         -4
        </text>
        <text dy=".8em" transform="translate(105)">
         -2
        </text>
        <text dy=".8em" transform="translate(131)">
         0
        </text>
        <text dy=".8em" transform="translate(157)">
         2
        </text>
        <text dy=".8em" transform="translate(183)">
         4
        </text>
        <text dy=".8em" transform="translate(210)">
         6
        </text>
        <text dy=".8em" transform="translate(236)">
         8
        </text>
        <text dy=".8em" transform="translate(262)">
         10
        </text>
       </g>
      </g>
      <g>
       <path d="M0,0v210M5,183H0M5,157H0M5,138H0M5,124H0M5,112H0M5,102H0M5,94H0M5,86H0M10,79H0M5,35H0M5,8H0" style="stroke: black; stroke-width: 1;"></path>
       <g font-family="Arial" font-size="9" space="preserve">
        <text fill="black" text-anchor="end" dy=".4em" transform="translate(-1,79)">
         10
        </text>
       </g>
      </g>
     </g>
    </g>
    <g transform="translate(33,1)" font-family="Arial" font-size="13" space="preserve">
     <text fill="black" text-anchor="middle" dy=".8em" transform="translate(131)">
      x*sin(x)*exp(-0.1*x)+15
     </text>
    </g>
    <g transform="translate(85,138)" font-family="Arial" font-size="9" space="preserve" fill="black" text-anchor="start">
     <path d="M4,4v71h157v-71z" style="fill: black; stroke: black; stroke-width: 1px;"></path>
     <path d="M0,0H157V71H0Z" style="fill: #dfbb88; stroke: black; stroke-width: 1;"></path>
     <text dy=".4em" transform="translate(8,18)">
      Log scale along Y axis.
     </text>
     <text dy=".4em" transform="translate(8,53)">
      More Log labels requested.
     </text>
    </g>
   </g>
  </svg>
  <svg viewBox="0 0 328 262" preserveAspectRatio="none" x="356" y="70" width="328" height="262">
   <path d="M0,0H328V262H0Z" style="fill: #aebdc8;"></path>
   <g>
    <g transform="translate(33,26)">
     <path d="M0,0H262V210H0Z" style="fill: #aebdc8; stroke: black; stroke-width: 1;"></path>
     <g>
      <path d="M61,0v210M109,0v210M144,0v210M170,0v210M192,0v210M210,0v210M226,0v210M240,0v210M253,0v210" style="stroke: black; stroke-width: 1; stroke-dasharray: 1,2;"></path>
     </g>
     <svg x="0" y="0" overflow="hidden" width="262" height="210" viewBox="0 0 262 210">
      <g>
       <path d="M61,126l48,-120l35,8l26,60l22,-16l9,52l9,-87l2,125l28,-22l13,-7" style="stroke: black; stroke-width: 1; fill: none;"></path>
       <path d="M57,122l8,8m0,-8l-8,8m0,-4h8m-4,-4v8M105,2l8,8m0,-8l-8,8m0,-4h8m-4,-4v8M140,10l8,8m0,-8l-8,8m0,-4h8m-4,-4v8M166,70l8,8m0,-8l-8,8m0,-4h8m-4,-4v8M188,54l8,8m0,-8l-8,8m0,-4h8m-4,-4v8M197,106l8,8m0,-8l-8,8m0,-4h8m-4,-4v8M206,19l8,8m0,-8l-8,8m0,-4h8m-4,-4v8M208,144l8,8m0,-8l-8,8m0,-4h8m-4,-4v8M236,122l8,8m0,-8l-8,8m0,-4h8m-4,-4v8M249,115l8,8m0,-8l-8,8m0,-4h8m-4,-4v8" style="stroke: red; fill: none;"></path>
      </g>
     </svg>
     <g>
      <g transform="translate(0,210)">
       <path d="M0,0h262M61,-8V0M109,-8V0M144,-8V0M170,-8V0M192,-8V0M210,-8V0M226,-8V0M240,-8V0M253,-8V0" style="stroke: black; stroke-width: 1;"></path>
       <g font-family="Arial" font-size="9" space="preserve">
        <g transform="translate(50,10)">
         <text fill="black" font-size="9">
          2×10
         </text>
         <text fill="black" font-size="5" transform="translate(20,-5)">
          2
         </text>
        </g>
        <g transform="translate(98,10)">
         <text fill="black" font-size="9">
          3×10
         </text>
         <text fill="black" font-size="5" transform="translate(20,-5)">
          2
         </text>
        </g>
        <g transform="translate(133,10)">
         <text fill="black" font-size="9">
          4×10
         </text>
         <text fill="black" font-size="5" transform="translate(20,-5)">
          2
         </text>
        </g>
        <g transform="translate(159,10)">
         <text fill="black" font-size="9">
          5×10
         </text>
         <text fill="black" font-size="5" transform="translate(20,-5)">
          2
         </text>
        </g>
        <g transform="translate(181,10)">
         <text fill="black" font-size="9">
          6×10
         </text>
         <text fill="black" font-size="5" transform="translate(20,-5)">
          2
         </text>
        </g>
        <g transform="translate(199,10)">
         <text fill="black" font-size="9">
          7×10
         </text>
         <text fill="black" font-size="5" transform="translate(20,-5)">
          2
         </text>
        </g>
        <g transform="translate(215,10)">
         <text fill="black" font-size="9">
          8×10
         </text>
         <text fill="black" font-size="5" transform="translate(20,-5)">
          2
         </text>
        </g>
        <g transform="translate(229,10)">
         <text fill="black" font-size="9">
          9×10
         </text>
         <text fill="black" font-size="5" transform="translate(20,-5)">
          2
         </text>
        </g>
        <g transform="translate(247,10)">
         <text fill="black" font-size="9">
          10
         </text>
         <text fill="black" font-size="5" transform="translate(10,-5)">
          3
         </text>
        </g>
       </g>
      </g>
      <g>
       <path d="M0,0v210M10,204H0M10,195H0M10,186H0M10,178H0M10,126H0M10,96H0M10,74H0M10,58H0M10,44H0M10,33H0M10,23H0M10,14H0M10,6H0" style="stroke: black; stroke-width: 1;"></path>
       <g font-family="Arial" font-size="7" space="preserve" fill="black" text-anchor="end">
        <text dy=".4em" transform="translate(-1,204)">
         70
        </text>
        <text dy=".4em" transform="translate(-1,195)">
         80
        </text>
        <text dy=".4em" transform="translate(-1,186)">
         90
        </text>
        <text dy=".4em" transform="translate(-1,178)">
         100
        </text>
        <text dy=".4em" transform="translate(-1,126)">
         200
        </text>
        <text dy=".4em" transform="translate(-1,96)">
         300
        </text>
        <text dy=".4em" transform="translate(-1,74)">
         400
        </text>
        <text dy=".4em" transform="translate(-1,58)">
         500
        </text>
        <text dy=".4em" transform="translate(-1,44)">
         600
        </text>
        <text dy=".4em" transform="translate(-1,33)">
         700
        </text>
        <text dy=".4em" transform="translate(-1,23)">
         800
        </text>
        <text dy=".4em" transform="translate(-1,14)">
         900
        </text>
        <text dy=".4em" transform="translate(-1,6)">
         1000
        </text>
       </g>
      </g>
     </g>
    </g>
    <g transform="translate(33,1)" font-family="Arial" font-size="13" space="preserve">
     <text fill="black" text-anchor="middle" dy=".8em" transform="translate(131)">
      Graph
     </text>
    </g>
    <g transform="translate(59,160)" font-family="Arial" font-size="8" space="preserve" fill="black" text-anchor="start">
     <path d="M4,4v60h144v-60z" style="fill: black; stroke: black; stroke-width: 1px;"></path>
     <path d="M0,0H144V60H0Z" style="fill: #dfbb88; stroke: black; stroke-width: 1;"></path>
     <text dy=".4em" transform="translate(7,10)">
      Log scale along X and Y axis.
     </text>
     <text dy=".4em" transform="translate(7,30)">
      More Log labels on both.
     </text>
     <text dy=".4em" transform="translate(7,50)">
      No exponent along Y axis.
     </text>
    </g>
   </g>
  </svg>
  <svg viewBox="0 0 656 450" preserveAspectRatio="none" x="21" y="407" width="656" height="450">
   <path d="M0,0H656V450H0Z" style="fill: #7d9ad2;"></path>
   <g>
    <g transform="translate(66,45)">
     <path d="M0,0H525V360H0Z" style="fill: #7d9ad2; stroke: black; stroke-width: 1;"></path>
     <g>
      <path d="M0,0v360M120,0v360M189,0v360M239,0v360M278,0v360M309,0v360M336,0v360M359,0v360M379,0v360M397,0v360M517,0v360" style="stroke: black; stroke-width: 1; stroke-dasharray: 1,2;"></path>
      <path d="M0,333h525M0,302h525M0,277h525M0,255h525M0,237h525M0,220h525M0,205h525M0,109h525M0,52h525M0,12h525" style="stroke: black; stroke-width: 1; stroke-dasharray: 1,2;"></path>
     </g>
     <svg x="0" y="0" overflow="hidden" width="525" height="360" viewBox="0 0 525 360">
      <g>
       <path d="M2,83L4,83L7,83L10,83L12,83L15,84L17,84L20,84L23,84L25,84L28,84L30,84L33,84L36,84L38,84L41,84L44,84L46,85L49,85L52,85L54,85L57,85L59,85L62,85L65,85L67,85L70,85L72,85L75,85L78,85L80,85L83,85L86,85L88,85L91,85L94,85L96,85L99,85L101,85L104,84L107,84L109,84L112,84L115,84L117,84L120,84L122,83L125,83L128,83L130,83L133,82L136,82L138,82L141,81L143,81L146,80L149,80L151,80L154,79L156,79L159,78L162,78L164,77L167,76L170,76L172,75L175,75L178,74L180,73L183,73L185,72L188,71L191,70L193,69L196,69L198,68L201,67L204,66L206,66L209,65L212,64L214,63L217,62L220,62L222,61L225,60L227,59L230,59L233,58L235,58L238,57L240,57L243,56L246,56L248,56L251,56L254,55L256,55L259,56L262,56L264,56L267,57L269,57L272,58L275,59L277,60L280,61L283,63L285,64L288,66L290,68L293,70L296,72L298,75L301,78L304,80L306,84L309,87L311,90L314,94L317,97L319,101L322,104L325,108L327,111L330,115L332,118L335,120L338,123L340,124L343,126L345,126L348,126L351,125L353,123L356,120L359,116L361,112L364,107L366,101L369,95L372,89L374,82L377,76L380,69L382,63L385,56L388,51L390,45L393,41L395,37L398,33L401,31L403,29L406,29L409,29L411,31L414,34L416,38L419,43L422,50L424,59L427,69L430,81L432,95L435,110L437,126L440,142L443,158L445,173L448,183L451,187L453,184L456,174L458,159L461,140L464,118L466,97L469,77L472,58L474,42L477,29L479,18L482,11L485,7L487,6L490,9L493,16L495,28L498,45L500,67L503,97L506,134L508,179L511,231L514,278L516,299L519,273L521,219L524,143" style="fill: none; stroke: red; stroke-width: 1;"></path>
      </g>
      <g>
       <path d="M2,77L4,78L7,78L10,78L12,78L15,78L17,78L20,78L23,78L25,78L28,79L30,79L33,79L36,79L38,79L41,79L44,79L46,80L49,80L52,80L54,80L57,80L59,80L62,80L65,81L67,81L70,81L72,81L75,81L78,81L80,82L83,82L86,82L88,82L91,82L94,82L96,82L99,82L101,82L104,83L107,83L109,83L112,83L115,83L117,83L120,83L122,82L125,82L128,82L130,82L133,82L136,82L138,81L141,81L143,81L146,80L149,80L151,80L154,79L156,79L159,78L162,78L164,77L167,76L170,76L172,75L175,75L178,74L180,73L183,73L185,72L188,72L191,71L193,70L196,70L198,69L201,69L204,69L206,68L209,68L212,68L214,68L217,68L220,69L222,69L225,69L227,70L230,71L233,72L235,73L238,74L240,75L243,76L246,78L248,79L251,81L254,82L256,84L259,86L262,87L264,88L267,90L269,91L272,91L275,92L277,92L280,92L283,91L285,90L288,89L290,87L293,85L296,82L298,80L301,77L304,74L306,72L309,69L311,67L314,64L317,63L319,61L322,60L325,60L327,61L330,62L332,64L335,66L338,70L340,74L343,78L345,83L348,87L351,92L353,96L356,99L359,101L361,102L364,101L366,98L369,94L372,89L374,82L377,76L380,69L382,63L385,58L388,55L390,53L393,53L395,55L398,59L401,65L403,73L406,82L409,92L411,101L414,109L416,113L419,112L422,107L424,97L427,86L430,74L432,62L435,53L437,48L440,46L443,48L445,55L448,66L451,81L453,98L456,113L458,123L461,124L464,114L466,97L469,77L472,59L474,46L477,39L479,40L482,50L485,67L487,91L490,116L493,135L495,135L498,117L500,88L503,61L506,41L508,32L511,37L514,55L516,85L519,122L521,149L524,135" style="fill: none; stroke: red; stroke-width: 1;"></path>
      </g>
      <g>
       <path d="M2,83L4,83L7,83L10,83L12,83L15,84L17,84L20,84L23,84L25,84L28,84L30,84L33,84L36,84L38,84L41,84L44,84L46,85L49,85L52,85L54,85L57,85L59,85L62,85L65,85L67,85L70,85L72,85L75,85L78,85L80,85L83,85L86,85L88,85L91,85L94,85L96,85L99,85L101,85L104,84L107,84L109,84L112,84L115,84L117,84L120,84L122,83L125,83L128,83L130,83L133,82L136,82L138,82L141,81L143,81L146,80L149,80L151,80L154,79L156,79L159,78L162,78L164,77L167,76L170,76L172,75L175,75L178,74L180,73L183,73L185,72L188,71L191,70L193,69L196,69L198,68L201,67L204,66L206,66L209,65L212,64L214,63L217,62L220,62L222,61L225,60L227,59L230,59L233,58L235,58L238,57L240,57L243,56L246,56L248,56L251,56L254,55L256,55L259,56L262,56L264,56L267,57L269,57L272,58L275,59L277,60L280,61L283,63L285,64L288,66L290,68L293,70L296,72L298,75L301,78L304,80L306,84L309,87L311,90L314,94L317,97L319,101L322,104L325,108L327,111L330,115L332,118L335,120L338,123L340,124L343,126L345,126L348,126L351,125L353,123L356,120L359,116L361,112L364,107L366,101L369,95L372,89L374,82L377,76L380,69L382,63L385,56L388,51L390,45L393,41L395,37L398,33L401,31L403,29L406,29L409,29L411,31L414,34L416,38L419,43L422,50L424,59L427,69L430,81L432,95L435,110L437,126L440,142L443,158L445,173L448,183L451,187L453,184L456,174L458,159L461,140L464,118L466,97L469,77L472,58L474,42L477,29L479,18L482,11L485,7L487,6L490,9L493,16L495,28L498,45L500,67L503,97L506,134L508,179L511,231L514,278L516,299L519,273L521,219L524,143" style="fill: none; stroke: #85c3a4; stroke-width: 1;"></path>
      </g>
      <g>
       <path d="M2,77L5,78L7,78L10,78L13,78L16,78L18,78L21,78L24,78L27,78L30,79L32,79L35,79L38,79L41,79L43,79L46,80L49,80L52,80L55,80L57,80L60,80L63,81L66,81L68,81L71,81L74,81L77,81L79,82L82,82L85,82L88,82L91,82L93,82L96,82L99,82L102,83L104,83L107,83L110,83L113,83L116,83L118,83L121,83L124,82L127,82L129,82L132,82L135,82L138,81L141,81L143,81L146,80L149,80L152,80L154,79L157,79L160,78L163,77L166,77L168,76L171,76L174,75L177,74L179,74L182,73L185,72L188,72L190,71L193,70L196,70L199,69L202,69L204,69L207,68L210,68L213,68L215,68L218,68L221,69L224,69L227,70L229,71L232,71L235,72L238,74L240,75L243,76L246,78L249,79L252,81L254,83L257,84L260,86L263,88L265,89L268,90L271,91L274,92L277,92L279,92L282,91L285,90L288,89L290,87L293,85L296,82L299,79L302,77L304,74L307,71L310,68L313,66L315,63L318,62L321,61L324,60L326,61L329,62L332,63L335,66L338,70L340,74L343,78L346,83L349,88L351,93L354,97L357,100L360,102L363,102L365,100L368,96L371,91L374,84L376,77L379,70L382,64L385,59L388,55L390,53L393,53L396,56L399,60L401,67L404,76L407,86L410,97L413,105L415,111L418,113L421,109L424,100L426,88L429,75L432,63L435,54L438,47L440,46L443,49L446,57L449,70L451,86L454,104L457,118L460,125L462,119L465,104L468,84L471,64L474,48L476,40L479,40L482,49L485,67L487,92L490,119L493,136L496,133L499,109L501,78L504,52L507,36L510,33L512,45L515,72L518,110L521,144L524,148L526,116L529,73L532,40L535,26L537,34L540,65L543,115L546,162L549,155L551,100L554,36" style="fill: none; stroke: #d45a54; stroke-width: 1;"></path>
      </g>
      <g>
       <path d="M2,83L4,83L7,83L10,83L12,83L15,83L17,83L20,83L23,83L25,84L28,84L30,84L33,84L36,84L38,84L41,84L44,84L46,84L49,84L52,84L54,84L57,84L59,84L62,84L65,84L67,85L70,85L72,85L75,85L78,85L80,85L83,85L86,85L88,84L91,84L94,84L96,84L99,84L101,84L104,84L107,84L109,84L112,84L115,84L117,83L120,83L122,83L125,83L128,83L130,82L133,82L136,82L138,81L141,81L143,81L146,80L149,80L151,80L154,79L156,79L159,78L162,78L164,77L167,77L170,76L172,75L175,75L178,74L180,73L183,73L185,72L188,71L191,71L193,70L196,69L198,68L201,68L204,67L206,66L209,65L212,65L214,64L217,63L220,62L222,62L225,61L227,60L230,60L233,59L235,59L238,58L240,58L243,57L246,57L248,57L251,57L254,56L256,56L259,57L262,57L264,57L267,58L269,58L272,59L275,60L277,61L280,62L283,63L285,65L288,67L290,68L293,70L296,73L298,75L301,78L304,80L306,83L309,86L311,89L314,93L317,96L319,99L322,103L325,106L327,109L330,113L332,115L335,118L338,120L340,122L343,123L345,123L348,123L351,122L353,120L356,117L359,114L361,110L364,105L366,100L369,94L372,88L374,82L377,76L380,69L382,63L385,57L388,52L390,47L393,42L395,38L398,35L401,33L403,31L406,31L409,31L411,33L414,35L416,39L419,45L422,52L424,60L427,70L430,81L432,94L435,108L437,123L440,138L443,153L445,166L448,175L451,179L453,176L456,168L458,153L461,136L464,116L466,96L469,77L472,59L474,44L477,31L479,21L482,14L485,9L487,9L490,12L493,19L495,30L498,46L500,68L503,96L506,131L508,172L511,217L514,258L516,274L519,253L521,207L524,139" style="fill: none; stroke: #b1cfc8; stroke-width: 1;"></path>
      </g>
      <g>
       <path d="M2,77L5,78L7,78L10,78L13,78L16,78L18,78L21,78L24,78L27,78L30,79L32,79L35,79L38,79L41,79L43,79L46,79L49,80L52,80L55,80L57,80L60,80L63,80L66,81L68,81L71,81L74,81L77,81L79,81L82,81L85,82L88,82L91,82L93,82L96,82L99,82L102,82L104,82L107,82L110,82L113,82L116,82L118,82L121,82L124,82L127,82L129,82L132,82L135,81L138,81L141,81L143,81L146,80L149,80L152,79L154,79L157,78L160,78L163,77L166,77L168,76L171,76L174,75L177,74L179,74L182,73L185,72L188,72L190,71L193,71L196,70L199,70L202,69L204,69L207,69L210,69L213,69L215,69L218,69L221,69L224,70L227,70L229,71L232,72L235,73L238,74L240,75L243,76L246,78L249,79L252,81L254,82L257,84L260,86L263,87L265,88L268,89L271,90L274,91L277,91L279,91L282,91L285,90L288,88L290,86L293,84L296,82L299,79L302,77L304,74L307,71L310,68L313,66L315,64L318,63L321,61L324,61L326,61L329,62L332,64L335,67L338,70L340,74L343,78L346,83L349,88L351,92L354,96L357,99L360,101L363,100L365,98L368,95L371,90L374,84L376,77L379,71L382,65L385,60L388,56L390,54L393,54L396,57L399,61L401,68L404,76L407,86L410,96L413,104L415,109L418,111L421,107L424,99L426,88L429,76L432,64L435,55L438,49L440,47L443,50L446,58L449,70L451,86L454,102L457,116L460,122L462,117L465,103L468,83L471,64L474,50L476,42L479,42L482,50L485,67L487,91L490,116L493,133L496,129L499,107L501,78L504,53L507,37L510,35L512,47L515,72L518,108L521,140L524,144L526,114L529,73L532,42L535,28L537,36L540,65L543,113L546,156L549,150L551,98L554,38" style="fill: none; stroke: #946971; stroke-width: 1;"></path>
      </g>
      <g>
       <path d="M2,83L4,83L7,83L10,83L12,83L15,83L17,83L20,83L23,83L25,83L28,83L30,83L33,83L36,84L38,84L41,84L44,84L46,84L49,84L52,84L54,84L57,84L59,84L62,84L65,84L67,84L70,84L72,84L75,84L78,84L80,84L83,84L86,84L88,84L91,84L94,84L96,84L99,84L101,84L104,84L107,84L109,84L112,83L115,83L117,83L120,83L122,83L125,82L128,82L130,82L133,82L136,81L138,81L141,81L143,81L146,80L149,80L151,79L154,79L156,79L159,78L162,78L164,77L167,77L170,76L172,75L175,75L178,74L180,74L183,73L185,72L188,72L191,71L193,70L196,70L198,69L201,68L204,67L206,67L209,66L212,65L214,64L217,64L220,63L222,62L225,62L227,61L230,61L233,60L235,59L238,59L240,59L243,58L246,58L248,58L251,58L254,57L256,58L259,58L262,58L264,58L267,59L269,59L272,60L275,61L277,62L280,63L283,64L285,66L288,67L290,69L293,71L296,73L298,75L301,78L304,80L306,83L309,86L311,89L314,92L317,95L319,98L322,101L325,105L327,108L330,110L332,113L335,115L338,117L340,119L343,120L345,120L348,120L351,119L353,117L356,115L359,112L361,108L364,104L366,99L369,93L372,88L374,82L377,76L380,70L382,64L385,58L388,53L390,48L393,44L395,40L398,37L401,35L403,33L406,33L409,33L411,35L414,37L416,41L419,46L422,53L424,61L427,70L430,81L432,93L435,106L437,120L440,134L443,148L445,160L448,168L451,171L453,169L456,161L458,148L461,132L464,114L466,95L469,77L472,60L474,45L477,33L479,23L482,16L485,12L487,12L490,15L493,21L495,32L498,48L500,68L503,95L506,127L508,165L511,205L514,239L516,253L519,236L521,197L524,135" style="fill: none; stroke: #886657; stroke-width: 1;"></path>
      </g>
      <g>
       <path d="M2,77L5,78L7,78L10,78L13,78L16,78L18,78L21,78L24,78L27,78L30,78L32,79L35,79L38,79L41,79L43,79L46,79L49,79L52,80L55,80L57,80L60,80L63,80L66,80L68,81L71,81L74,81L77,81L79,81L82,81L85,81L88,82L91,82L93,82L96,82L99,82L102,82L104,82L107,82L110,82L113,82L116,82L118,82L121,82L124,82L127,82L129,82L132,81L135,81L138,81L141,81L143,80L146,80L149,80L152,79L154,79L157,78L160,78L163,77L166,77L168,76L171,76L174,75L177,75L179,74L182,73L185,73L188,72L190,72L193,71L196,71L199,70L202,70L204,70L207,69L210,69L213,69L215,69L218,69L221,70L224,70L227,71L229,71L232,72L235,73L238,74L240,75L243,76L246,78L249,79L252,81L254,82L257,84L260,85L263,87L265,88L268,89L271,90L274,90L277,90L279,90L282,90L285,89L288,88L290,86L293,84L296,82L299,79L302,77L304,74L307,71L310,69L313,67L315,65L318,63L321,62L324,62L326,62L329,63L332,65L335,67L338,70L340,74L343,78L346,83L349,87L351,91L354,95L357,98L360,99L363,99L365,97L368,94L371,89L374,83L376,77L379,71L382,65L385,60L388,57L390,55L393,55L396,58L399,62L401,68L404,76L407,85L410,94L413,102L415,108L418,109L421,105L424,98L426,87L429,76L432,65L435,56L438,50L440,48L443,51L446,59L449,70L451,85L454,101L457,114L460,119L462,115L465,101L468,83L471,65L474,51L476,43L479,43L482,51L485,68L487,91L490,114L493,129L496,126L499,106L501,78L504,54L507,39L510,37L512,48L515,73L518,107L521,136L524,139L526,111L529,73L532,43L535,31L537,38L540,66L543,111L546,151L549,145L551,97L554,40" style="fill: none; stroke: #a6787b; stroke-width: 1;"></path>
      </g>
      <g>
       <path d="M2,82L4,82L7,82L10,82L12,83L15,83L17,83L20,83L23,83L25,83L28,83L30,83L33,83L36,83L38,83L41,83L44,83L46,83L49,83L52,84L54,84L57,84L59,84L62,84L65,84L67,84L70,84L72,84L75,84L78,84L80,84L83,84L86,84L88,84L91,84L94,84L96,84L99,84L101,83L104,83L107,83L109,83L112,83L115,83L117,83L120,83L122,82L125,82L128,82L130,82L133,82L136,81L138,81L141,81L143,80L146,80L149,80L151,79L154,79L156,78L159,78L162,78L164,77L167,77L170,76L172,76L175,75L178,74L180,74L183,73L185,73L188,72L191,71L193,71L196,70L198,69L201,69L204,68L206,67L209,67L212,66L214,65L217,64L220,64L222,63L225,63L227,62L230,61L233,61L235,60L238,60L240,60L243,59L246,59L248,59L251,59L254,59L256,59L259,59L262,59L264,59L267,60L269,60L272,61L275,62L277,63L280,64L283,65L285,66L288,68L290,69L293,71L296,73L298,75L301,78L304,80L306,83L309,85L311,88L314,91L317,94L319,97L322,100L325,103L327,106L330,108L332,111L335,113L338,115L340,116L343,117L345,118L348,117L351,116L353,115L356,113L359,110L361,106L364,102L366,97L369,92L372,87L374,82L377,76L380,70L382,65L385,59L388,54L390,50L393,46L395,42L398,39L401,37L403,35L406,35L409,35L411,37L414,39L416,43L419,48L422,54L424,62L427,71L430,81L432,92L435,104L437,117L440,131L443,143L445,153L448,161L451,164L453,162L456,155L458,143L461,128L464,111L466,94L469,77L472,61L474,47L477,35L479,26L482,19L485,15L487,15L490,17L493,24L495,34L498,49L500,69L503,94L506,124L508,158L511,194L514,223L516,235L519,220L521,186L524,131" style="fill: none; stroke: #9c8f83; stroke-width: 1;"></path>
      </g>
      <g>
       <path d="M2,77L5,78L7,78L10,78L13,78L16,78L18,78L21,78L24,78L27,78L30,78L32,79L35,79L38,79L41,79L43,79L46,79L49,79L52,79L55,80L57,80L60,80L63,80L66,80L68,80L71,80L74,81L77,81L79,81L82,81L85,81L88,81L91,81L93,81L96,82L99,82L102,82L104,82L107,82L110,82L113,82L116,82L118,82L121,82L124,82L127,82L129,81L132,81L135,81L138,81L141,81L143,80L146,80L149,80L152,79L154,79L157,78L160,78L163,77L166,77L168,76L171,76L174,75L177,75L179,74L182,74L185,73L188,72L190,72L193,71L196,71L199,71L202,70L204,70L207,70L210,70L213,70L215,70L218,70L221,70L224,70L227,71L229,72L232,72L235,73L238,74L240,75L243,76L246,78L249,79L252,81L254,82L257,83L260,85L263,86L265,87L268,88L271,89L274,89L277,90L279,90L282,89L285,88L288,87L290,85L293,84L296,82L299,79L302,77L304,74L307,72L310,69L313,67L315,65L318,64L321,63L324,63L326,63L329,64L332,65L335,68L338,71L340,74L343,78L346,82L349,87L351,91L354,94L357,97L360,98L363,98L365,96L368,93L371,89L374,83L376,77L379,71L382,66L385,61L388,58L390,56L393,57L396,59L399,63L401,69L404,76L407,85L410,93L413,101L415,106L418,107L421,104L424,97L426,87L429,76L432,65L435,57L438,52L440,50L443,53L446,60L449,71L451,85L454,99L457,111L460,116L462,112L465,100L468,83L471,66L474,52L476,45L479,45L482,53L485,68L487,90L490,112L493,126L496,123L499,104L501,78L504,55L507,41L510,39L512,50L515,73L518,105L521,132L524,135L526,109L529,73L532,45L535,33L537,40L540,67L543,109L546,145L549,140L551,96L554,41" style="fill: none; stroke: #ac8f94; stroke-width: 1;"></path>
      </g>
      <g>
       <path d="M2,82L4,82L7,82L10,82L12,82L15,82L17,82L20,82L23,83L25,83L28,83L30,83L33,83L36,83L38,83L41,83L44,83L46,83L49,83L52,83L54,83L57,83L59,83L62,83L65,83L67,83L70,83L72,83L75,83L78,83L80,83L83,83L86,83L88,83L91,83L94,83L96,83L99,83L101,83L104,83L107,83L109,83L112,83L115,83L117,82L120,82L122,82L125,82L128,82L130,82L133,81L136,81L138,81L141,80L143,80L146,80L149,80L151,79L154,79L156,78L159,78L162,78L164,77L167,77L170,76L172,76L175,75L178,75L180,74L183,73L185,73L188,72L191,72L193,71L196,70L198,70L201,69L204,68L206,68L209,67L212,66L214,66L217,65L220,65L222,64L225,63L227,63L230,62L233,62L235,61L238,61L240,61L243,60L246,60L248,60L251,60L254,60L256,60L259,60L262,60L264,60L267,61L269,61L272,62L275,62L277,63L280,64L283,65L285,67L288,68L290,70L293,72L296,73L298,75L301,78L304,80L306,82L309,85L311,87L314,90L317,93L319,96L322,98L325,101L327,104L330,106L332,109L335,111L338,112L340,114L343,114L345,115L348,115L351,114L353,112L356,110L359,108L361,104L364,100L366,96L369,91L372,86L374,81L377,76L380,71L382,65L385,60L388,56L390,51L393,47L395,44L398,41L401,39L403,38L406,37L409,37L411,39L414,41L416,45L419,50L422,55L424,63L427,71L430,80L432,91L435,103L437,115L440,127L443,138L445,148L448,154L451,157L453,155L456,149L458,138L461,125L464,109L466,93L469,77L472,62L474,49L477,37L479,28L482,22L485,18L487,18L490,20L493,27L495,37L498,51L500,69L503,93L506,121L508,152L511,184L514,209L516,218L519,206L521,177L524,127" style="fill: none; stroke: #ae9a8d; stroke-width: 1;"></path>
      </g>
      <g>
       <path d="M2,77L5,78L7,78L10,78L13,78L16,78L18,78L21,78L24,78L27,78L30,78L32,78L35,79L38,79L41,79L43,79L46,79L49,79L52,79L55,79L57,80L60,80L63,80L66,80L68,80L71,80L74,80L77,81L79,81L82,81L85,81L88,81L91,81L93,81L96,81L99,81L102,81L104,82L107,82L110,82L113,82L116,82L118,82L121,81L124,81L127,81L129,81L132,81L135,81L138,81L141,80L143,80L146,80L149,79L152,79L154,79L157,78L160,78L163,77L166,77L168,76L171,76L174,75L177,75L179,74L182,74L185,73L188,73L190,72L193,72L196,71L199,71L202,71L204,70L207,70L210,70L213,70L215,70L218,70L221,70L224,71L227,71L229,72L232,73L235,73L238,74L240,75L243,77L246,78L249,79L252,80L254,82L257,83L260,84L263,85L265,87L268,88L271,88L274,89L277,89L279,89L282,88L285,88L288,86L290,85L293,83L296,81L299,79L302,77L304,74L307,72L310,70L313,68L315,66L318,65L321,64L324,64L326,64L329,65L332,66L335,68L338,71L340,74L343,78L346,82L349,86L351,90L354,93L357,95L360,97L363,96L365,95L368,92L371,88L374,83L376,77L379,72L382,67L385,62L388,59L390,57L393,58L396,60L399,64L401,69L404,76L407,84L410,92L413,99L415,104L418,105L421,102L424,95L426,86L429,76L432,66L435,58L438,53L440,51L443,54L446,61L449,71L451,84L454,98L457,109L460,114L462,110L465,98L468,82L471,66L474,54L476,47L479,47L482,54L485,69L487,89L490,110L493,122L496,120L499,102L501,78L504,56L507,43L510,41L512,51L515,73L518,103L521,128L524,131L526,107L529,74L532,47L535,35L537,42L540,67L543,107L546,140L549,135L551,95L554,43" style="fill: none; stroke: #cf5f61; stroke-width: 1;"></path>
      </g>
      <g>
       <path d="M2,82L4,82L7,82L10,82L12,82L15,82L17,82L20,82L23,82L25,82L28,82L30,82L33,82L36,82L38,83L41,83L44,83L46,83L49,83L52,83L54,83L57,83L59,83L62,83L65,83L67,83L70,83L72,83L75,83L78,83L80,83L83,83L86,83L88,83L91,83L94,83L96,83L99,83L101,83L104,83L107,83L109,82L112,82L115,82L117,82L120,82L122,82L125,82L128,81L130,81L133,81L136,81L138,81L141,80L143,80L146,80L149,79L151,79L154,79L156,78L159,78L162,78L164,77L167,77L170,76L172,76L175,75L178,75L180,74L183,74L185,73L188,73L191,72L193,71L196,71L198,70L201,70L204,69L206,68L209,68L212,67L214,67L217,66L220,65L222,65L225,64L227,64L230,63L233,63L235,62L238,62L240,62L243,61L246,61L248,61L251,61L254,61L256,61L259,61L262,61L264,61L267,62L269,62L272,63L275,63L277,64L280,65L283,66L285,67L288,69L290,70L293,72L296,74L298,76L301,78L304,80L306,82L309,84L311,87L314,89L317,92L319,94L322,97L325,100L327,102L330,104L332,106L335,108L338,110L340,111L343,112L345,112L348,112L351,111L353,110L356,108L359,105L361,102L364,99L366,95L369,91L372,86L374,81L377,76L380,71L382,66L385,61L388,57L390,53L393,49L395,46L398,43L401,41L403,40L406,39L409,40L411,41L414,43L416,47L419,51L422,57L424,63L427,71L430,80L432,90L435,101L437,112L440,123L443,133L445,142L448,148L451,151L453,149L456,143L458,134L461,121L464,107L466,92L469,77L472,63L474,50L477,40L479,31L482,25L485,21L487,21L490,23L493,29L495,39L498,52L500,70L503,92L506,118L508,146L511,174L514,196L516,204L519,194L521,168L524,124" style="fill: none; stroke: #b8a49c; stroke-width: 1;"></path>
      </g>
      <g>
       <path d="M2,77L5,78L7,78L10,78L13,78L16,78L18,78L21,78L24,78L27,78L30,78L32,78L35,79L38,79L41,79L43,79L46,79L49,79L52,79L55,79L57,79L60,80L63,80L66,80L68,80L71,80L74,80L77,80L79,80L82,81L85,81L88,81L91,81L93,81L96,81L99,81L102,81L104,81L107,81L110,81L113,81L116,81L118,81L121,81L124,81L127,81L129,81L132,81L135,81L138,80L141,80L143,80L146,80L149,79L152,79L154,79L157,78L160,78L163,77L166,77L168,76L171,76L174,76L177,75L179,75L182,74L185,74L188,73L190,73L193,72L196,72L199,71L202,71L204,71L207,71L210,71L213,70L215,71L218,71L221,71L224,71L227,72L229,72L232,73L235,74L238,75L240,76L243,77L246,78L249,79L252,80L254,81L257,83L260,84L263,85L265,86L268,87L271,88L274,88L277,88L279,88L282,88L285,87L288,86L290,85L293,83L296,81L299,79L302,77L304,75L307,72L310,70L313,68L315,67L318,66L321,65L324,64L326,65L329,65L332,67L335,69L338,71L340,75L343,78L346,82L349,85L351,89L354,92L357,94L360,95L363,95L365,94L368,91L371,87L374,82L376,77L379,72L382,67L385,63L388,60L390,59L393,59L396,61L399,64L401,70L404,76L407,84L410,91L413,98L415,102L418,103L421,100L424,94L426,86L429,76L432,67L435,59L438,54L440,53L443,55L446,62L449,71L451,84L454,97L457,107L460,111L462,108L465,97L468,82L471,67L474,55L476,48L479,48L482,55L485,69L487,88L490,107L493,119L496,117L499,100L501,78L504,58L507,45L510,43L512,53L515,73L518,101L521,124L524,127L526,105L529,74L532,49L535,37L537,44L540,68L543,105L546,136L549,131L551,94L554,45" style="fill: none; stroke: #c08378; stroke-width: 1;"></path>
      </g>
      <g>
       <path d="M2,81L4,81L7,82L10,82L12,82L15,82L17,82L20,82L23,82L25,82L28,82L30,82L33,82L36,82L38,82L41,82L44,82L46,82L49,82L52,82L54,82L57,82L59,83L62,83L65,83L67,83L70,83L72,83L75,83L78,83L80,83L83,83L86,83L88,83L91,83L94,83L96,82L99,82L101,82L104,82L107,82L109,82L112,82L115,82L117,82L120,82L122,82L125,81L128,81L130,81L133,81L136,81L138,80L141,80L143,80L146,80L149,79L151,79L154,79L156,78L159,78L162,78L164,77L167,77L170,76L172,76L175,75L178,75L180,74L183,74L185,73L188,73L191,72L193,72L196,71L198,71L201,70L204,70L206,69L209,68L212,68L214,67L217,67L220,66L222,66L225,65L227,65L230,64L233,64L235,63L238,63L240,63L243,62L246,62L248,62L251,62L254,62L256,62L259,62L262,62L264,62L267,63L269,63L272,64L275,64L277,65L280,66L283,67L285,68L288,69L290,71L293,72L296,74L298,76L301,78L304,80L306,82L309,84L311,86L314,88L317,91L319,93L322,96L325,98L327,100L330,102L332,104L335,106L338,107L340,109L343,109L345,110L348,109L351,109L353,107L356,106L359,103L361,101L364,97L366,94L369,90L372,85L374,81L377,76L380,71L382,67L385,62L388,58L390,54L393,51L395,48L398,45L401,43L403,42L406,41L409,42L411,43L414,45L416,48L419,53L422,58L424,64L427,72L430,80L432,89L435,99L437,109L440,120L443,129L445,137L448,142L451,144L453,143L456,138L458,129L461,118L464,105L466,91L469,77L472,64L474,52L477,42L479,34L482,28L485,24L487,24L490,26L493,32L495,41L498,54L500,70L503,91L506,114L508,140L511,165L514,184L516,191L519,182L521,160L524,120" style="fill: none; stroke: #b3a697; stroke-width: 1;"></path>
      </g>
      <g>
       <path d="M2,77L5,78L7,78L10,78L13,78L16,78L18,78L21,78L24,78L27,78L30,78L32,78L35,78L38,79L41,79L43,79L46,79L49,79L52,79L55,79L57,79L60,79L63,80L66,80L68,80L71,80L74,80L77,80L79,80L82,80L85,80L88,81L91,81L93,81L96,81L99,81L102,81L104,81L107,81L110,81L113,81L116,81L118,81L121,81L124,81L127,81L129,81L132,81L135,80L138,80L141,80L143,80L146,79L149,79L152,79L154,79L157,78L160,78L163,77L166,77L168,77L171,76L174,76L177,75L179,75L182,74L185,74L188,73L190,73L193,72L196,72L199,72L202,71L204,71L207,71L210,71L213,71L215,71L218,71L221,71L224,72L227,72L229,73L232,73L235,74L238,75L240,76L243,77L246,78L249,79L252,80L254,81L257,82L260,83L263,84L265,85L268,86L271,87L274,87L277,87L279,87L282,87L285,86L288,85L290,84L293,83L296,81L299,79L302,77L304,75L307,73L310,71L313,69L315,67L318,66L321,66L324,65L326,65L329,66L332,68L335,69L338,72L340,75L343,78L346,81L349,85L351,88L354,91L357,93L360,94L363,94L365,93L368,90L371,86L374,82L376,77L379,72L382,68L385,64L388,61L390,60L393,60L396,62L399,65L401,70L404,77L407,84L410,91L413,96L415,100L418,101L421,99L424,93L426,85L429,76L432,67L435,60L438,56L440,54L443,57L446,63L449,72L451,83L454,95L457,105L460,109L462,105L465,96L468,82L471,68L474,56L476,50L479,50L482,57L485,70L487,88L490,105L493,116L496,114L499,99L501,78L504,59L507,47L510,45L512,54L515,74L518,99L521,121L524,123L526,103L529,74L532,50L535,40L537,46L540,68L543,103L546,131L549,127L551,93L554,47" style="fill: none; stroke: #c89a7d; stroke-width: 1;"></path>
      </g>
      <g>
       <path d="M2,81L4,81L7,81L10,81L12,81L15,81L17,81L20,81L23,82L25,82L28,82L30,82L33,82L36,82L38,82L41,82L44,82L46,82L49,82L52,82L54,82L57,82L59,82L62,82L65,82L67,82L70,82L72,82L75,82L78,82L80,82L83,82L86,82L88,82L91,82L94,82L96,82L99,82L101,82L104,82L107,82L109,82L112,82L115,82L117,81L120,81L122,81L125,81L128,81L130,81L133,81L136,80L138,80L141,80L143,80L146,79L149,79L151,79L154,79L156,78L159,78L162,78L164,77L167,77L170,76L172,76L175,76L178,75L180,75L183,74L185,74L188,73L191,73L193,72L196,72L198,71L201,71L204,70L206,70L209,69L212,68L214,68L217,67L220,67L222,66L225,66L227,65L230,65L233,65L235,64L238,64L240,64L243,63L246,63L248,63L251,63L254,63L256,63L259,63L262,63L264,63L267,64L269,64L272,65L275,65L277,66L280,67L283,68L285,69L288,70L290,71L293,73L296,74L298,76L301,78L304,79L306,81L309,83L311,85L314,88L317,90L319,92L322,94L325,96L327,99L330,100L332,102L335,104L338,105L340,106L343,107L345,107L348,107L351,106L353,105L356,103L359,101L361,99L364,96L366,92L369,89L372,85L374,81L377,76L380,72L382,68L385,63L388,59L390,56L393,52L395,49L398,47L401,45L403,44L406,44L409,44L411,45L414,47L416,50L419,54L422,59L424,65L427,72L430,80L432,88L435,98L437,107L440,116L443,124L445,131L448,136L451,138L453,137L456,132L458,125L461,115L464,103L466,90L469,77L472,65L474,54L477,44L479,36L482,31L485,28L487,27L490,29L493,35L495,43L498,55L500,71L503,90L506,111L508,135L511,157L514,173L516,179L519,171L521,152L524,117" style="fill: none; stroke: #bbb6a4; stroke-width: 1;"></path>
      </g>
      <g>
       <path d="M2,77L5,77L7,78L10,78L13,78L16,78L18,78L21,78L24,78L27,78L30,78L32,78L35,78L38,78L41,79L43,79L46,79L49,79L52,79L55,79L57,79L60,79L63,79L66,80L68,80L71,80L74,80L77,80L79,80L82,80L85,80L88,80L91,80L93,81L96,81L99,81L102,81L104,81L107,81L110,81L113,81L116,81L118,81L121,81L124,81L127,81L129,80L132,80L135,80L138,80L141,80L143,80L146,79L149,79L152,79L154,78L157,78L160,78L163,77L166,77L168,77L171,76L174,76L177,75L179,75L182,74L185,74L188,74L190,73L193,73L196,72L199,72L202,72L204,72L207,72L210,71L213,71L215,71L218,72L221,72L224,72L227,72L229,73L232,73L235,74L238,75L240,76L243,77L246,78L249,79L252,80L254,81L257,82L260,83L263,84L265,85L268,86L271,86L274,87L277,87L279,87L282,86L285,86L288,85L290,84L293,82L296,81L299,79L302,77L304,75L307,73L310,71L313,70L315,68L318,67L321,66L324,66L326,66L329,67L332,68L335,70L338,72L340,75L343,78L346,81L349,84L351,87L354,90L357,92L360,93L363,93L365,91L368,89L371,86L374,82L376,77L379,73L382,68L385,65L388,62L390,61L393,61L396,63L399,66L401,71L404,77L407,83L410,90L413,95L415,99L418,99L421,97L424,92L426,84L429,76L432,68L435,61L438,57L440,56L443,58L446,64L449,72L451,83L454,94L457,103L460,106L462,103L465,94L468,81L471,68L474,58L476,52L479,52L482,58L485,70L487,87L490,103L493,113L496,111L499,97L501,78L504,60L507,49L510,47L512,56L515,74L518,98L521,117L524,119L526,101L529,74L532,52L535,42L537,48L540,69L543,101L546,126L549,123L551,91L554,49" style="fill: none; stroke: #bd9f83; stroke-width: 1;"></path>
      </g>
      <g>
       <path d="M2,81L4,81L7,81L10,81L12,81L15,81L17,81L20,81L23,81L25,81L28,81L30,81L33,81L36,81L38,81L41,82L44,82L46,82L49,82L52,82L54,82L57,82L59,82L62,82L65,82L67,82L70,82L72,82L75,82L78,82L80,82L83,82L86,82L88,82L91,82L94,82L96,82L99,82L101,82L104,82L107,82L109,81L112,81L115,81L117,81L120,81L122,81L125,81L128,81L130,80L133,80L136,80L138,80L141,80L143,79L146,79L149,79L151,79L154,78L156,78L159,78L162,78L164,77L167,77L170,76L172,76L175,76L178,75L180,75L183,74L185,74L188,74L191,73L193,73L196,72L198,72L201,71L204,71L206,70L209,70L212,69L214,69L217,68L220,68L222,67L225,67L227,66L230,66L233,66L235,65L238,65L240,65L243,64L246,64L248,64L251,64L254,64L256,64L259,64L262,64L264,64L267,65L269,65L272,65L275,66L277,67L280,68L283,68L285,69L288,70L290,72L293,73L296,74L298,76L301,78L304,79L306,81L309,83L311,85L314,87L317,89L319,91L322,93L325,95L327,97L330,99L332,100L335,102L338,103L340,104L343,104L345,104L348,104L351,104L353,103L356,101L359,99L361,97L364,94L366,91L369,88L372,84L374,80L377,76L380,72L382,68L385,64L388,61L390,57L393,54L395,51L398,49L401,48L403,46L406,46L409,46L411,48L414,49L416,52L419,56L422,61L424,66L427,73L430,80L432,88L435,96L437,104L440,113L443,120L445,126L448,131L451,133L453,131L456,127L458,120L461,111L464,101L466,89L469,77L472,66L474,55L477,46L479,39L482,34L485,31L487,30L490,33L493,38L495,46L498,57L500,71L503,89L506,109L508,129L511,149L514,163L516,168L519,161L521,145L524,113" style="fill: none; stroke: #c3c0a9; stroke-width: 1;"></path>
      </g>
      <g>
       <path d="M2,77L5,77L7,78L10,78L13,78L16,78L18,78L21,78L24,78L27,78L30,78L32,78L35,78L38,78L41,78L43,79L46,79L49,79L52,79L55,79L57,79L60,79L63,79L66,79L68,79L71,80L74,80L77,80L79,80L82,80L85,80L88,80L91,80L93,80L96,80L99,80L102,80L104,80L107,80L110,81L113,81L116,81L118,80L121,80L124,80L127,80L129,80L132,80L135,80L138,80L141,80L143,79L146,79L149,79L152,79L154,78L157,78L160,78L163,77L166,77L168,77L171,76L174,76L177,75L179,75L182,75L185,74L188,74L190,74L193,73L196,73L199,73L202,72L204,72L207,72L210,72L213,72L215,72L218,72L221,72L224,72L227,73L229,73L232,74L235,74L238,75L240,76L243,77L246,78L249,79L252,80L254,81L257,82L260,83L263,83L265,84L268,85L271,85L274,86L277,86L279,86L282,86L285,85L288,84L290,83L293,82L296,80L299,79L302,77L304,75L307,73L310,72L313,70L315,69L318,68L321,67L324,67L326,67L329,68L332,69L335,71L338,73L340,75L343,78L346,81L349,84L351,87L354,89L357,91L360,92L363,91L365,90L368,88L371,85L374,81L376,77L379,73L382,69L385,66L388,63L390,62L393,62L396,64L399,67L401,71L404,77L407,83L410,89L413,94L415,97L418,97L421,95L424,91L426,84L429,76L432,69L435,63L438,59L440,57L443,59L446,65L449,73L451,82L454,93L457,100L460,104L462,101L465,93L468,81L471,69L474,59L476,54L479,54L482,60L485,71L487,86L490,101L493,110L496,108L499,95L501,78L504,61L507,51L510,49L512,57L515,74L518,96L521,114L524,115L526,99L529,75L532,54L535,45L537,50L540,70L543,99L546,122L549,118L551,90L554,51" style="fill: none; stroke: #dfbb88; stroke-width: 1;"></path>
      </g>
      <g>
       <path d="M2,81L4,81L7,81L10,81L12,81L15,81L17,81L20,81L23,81L25,81L28,81L30,81L33,81L36,81L38,81L41,81L44,81L46,81L49,81L52,81L54,81L57,81L59,81L62,81L65,81L67,81L70,81L72,81L75,81L78,81L80,81L83,81L86,81L88,81L91,81L94,81L96,81L99,81L101,81L104,81L107,81L109,81L112,81L115,81L117,81L120,81L122,81L125,80L128,80L130,80L133,80L136,80L138,80L141,80L143,79L146,79L149,79L151,79L154,78L156,78L159,78L162,78L164,77L167,77L170,77L172,76L175,76L178,75L180,75L183,75L185,74L188,74L191,73L193,73L196,73L198,72L201,72L204,71L206,71L209,70L212,70L214,69L217,69L220,68L222,68L225,68L227,67L230,67L233,66L235,66L238,66L240,66L243,65L246,65L248,65L251,65L254,65L256,65L259,65L262,65L264,65L267,66L269,66L272,66L275,67L277,68L280,68L283,69L285,70L288,71L290,72L293,73L296,75L298,76L301,78L304,79L306,81L309,82L311,84L314,86L317,88L319,90L322,92L325,93L327,95L330,97L332,98L335,99L338,100L340,101L343,102L345,102L348,102L351,101L353,100L356,99L359,97L361,95L364,93L366,90L369,87L372,84L374,80L377,76L380,73L382,69L385,65L388,62L390,59L393,56L395,53L398,51L401,50L403,49L406,48L409,49L411,50L414,52L416,54L419,58L422,62L424,67L427,73L430,80L432,87L435,94L437,102L440,109L443,116L445,122L448,125L451,127L453,126L456,122L458,116L461,108L464,98L466,88L469,77L472,67L474,57L477,49L479,42L482,37L485,34L487,34L490,36L493,41L495,48L498,59L500,72L503,88L506,106L508,124L511,141L514,153L516,158L519,152L521,138L524,110" style="fill: none; stroke: #cdc8ac; stroke-width: 1;"></path>
      </g>
      <g>
       <path d="M2,77L5,77L7,78L10,78L13,78L16,78L18,78L21,78L24,78L27,78L30,78L32,78L35,78L38,78L41,78L43,78L46,79L49,79L52,79L55,79L57,79L60,79L63,79L66,79L68,79L71,79L74,79L77,80L79,80L82,80L85,80L88,80L91,80L93,80L96,80L99,80L102,80L104,80L107,80L110,80L113,80L116,80L118,80L121,80L124,80L127,80L129,80L132,80L135,80L138,80L141,79L143,79L146,79L149,79L152,79L154,78L157,78L160,78L163,77L166,77L168,77L171,76L174,76L177,76L179,75L182,75L185,75L188,74L190,74L193,74L196,73L199,73L202,73L204,73L207,72L210,72L213,72L215,72L218,72L221,73L224,73L227,73L229,74L232,74L235,75L238,75L240,76L243,77L246,78L249,78L252,79L254,80L257,81L260,82L263,83L265,84L268,84L271,85L274,85L277,85L279,85L282,85L285,84L288,84L290,83L293,81L296,80L299,79L302,77L304,75L307,74L310,72L313,71L315,70L318,69L321,68L324,68L326,68L329,69L332,70L335,71L338,73L340,75L343,78L346,81L349,83L351,86L354,88L357,89L360,90L363,90L365,89L368,87L371,84L374,81L376,77L379,73L382,70L385,67L388,65L390,63L393,64L396,65L399,68L401,72L404,77L407,82L410,88L413,92L415,95L418,96L421,94L424,89L426,83L429,76L432,69L435,64L438,60L440,59L443,61L446,66L449,73L451,82L454,91L457,98L460,101L462,99L465,91L468,81L471,70L474,61L476,56L479,56L482,61L485,72L487,85L490,99L493,107L496,105L499,94L501,78L504,63L507,53L510,51L512,59L515,75L518,94L521,110L524,112L526,97L529,75L532,56L535,47L537,52L540,70L543,97L546,118L549,115L551,89L554,53" style="fill: none; stroke: #d4cf88; stroke-width: 1;"></path>
      </g>
      <g>
       <path d="M2,80L4,80L7,80L10,80L12,80L15,80L17,80L20,81L23,81L25,81L28,81L30,81L33,81L36,81L38,81L41,81L44,81L46,81L49,81L52,81L54,81L57,81L59,81L62,81L65,81L67,81L70,81L72,81L75,81L78,81L80,81L83,81L86,81L88,81L91,81L94,81L96,81L99,81L101,81L104,81L107,81L109,81L112,81L115,81L117,81L120,80L122,80L125,80L128,80L130,80L133,80L136,80L138,79L141,79L143,79L146,79L149,79L151,79L154,78L156,78L159,78L162,78L164,77L167,77L170,77L172,76L175,76L178,76L180,75L183,75L185,75L188,74L191,74L193,73L196,73L198,73L201,72L204,72L206,71L209,71L212,70L214,70L217,70L220,69L222,69L225,68L227,68L230,68L233,67L235,67L238,67L240,67L243,66L246,66L248,66L251,66L254,66L256,66L259,66L262,66L264,66L267,67L269,67L272,67L275,68L277,68L280,69L283,70L285,71L288,72L290,73L293,74L296,75L298,76L301,77L304,79L306,80L309,82L311,84L314,85L317,87L319,89L322,90L325,92L327,93L330,95L332,96L335,97L338,98L340,99L343,99L345,100L348,99L351,99L353,98L356,97L359,95L361,94L364,91L366,89L369,86L372,83L374,80L377,76L380,73L382,70L385,66L388,63L390,60L393,58L395,55L398,54L401,52L403,51L406,51L409,51L411,52L414,54L416,56L419,59L422,63L424,68L427,73L430,79L432,86L435,93L437,100L440,106L443,112L445,117L448,120L451,122L453,121L456,118L458,112L461,105L464,96L466,87L469,77L472,68L474,59L477,51L479,45L482,40L485,38L487,37L490,39L493,43L495,50L498,60L500,72L503,87L506,103L508,119L511,134L514,144L516,148L519,143L521,131L524,107" style="fill: none; stroke: #cdc8ac; stroke-width: 1;"></path>
      </g>
      <g>
       <path d="M2,77L5,77L7,78L10,78L13,78L16,78L18,78L21,78L24,78L27,78L30,78L32,78L35,78L38,78L41,78L43,78L46,78L49,79L52,79L55,79L57,79L60,79L63,79L66,79L68,79L71,79L74,79L77,79L79,79L82,80L85,80L88,80L91,80L93,80L96,80L99,80L102,80L104,80L107,80L110,80L113,80L116,80L118,80L121,80L124,80L127,80L129,80L132,80L135,80L138,79L141,79L143,79L146,79L149,79L152,78L154,78L157,78L160,78L163,77L166,77L168,77L171,76L174,76L177,76L179,75L182,75L185,75L188,74L190,74L193,74L196,74L199,73L202,73L204,73L207,73L210,73L213,73L215,73L218,73L221,73L224,73L227,74L229,74L232,74L235,75L238,75L240,76L243,77L246,78L249,78L252,79L254,80L257,81L260,82L263,82L265,83L268,84L271,84L274,84L277,84L279,84L282,84L285,84L288,83L290,82L293,81L296,80L299,78L302,77L304,75L307,74L310,73L313,71L315,70L318,69L321,69L324,69L326,69L329,69L332,70L335,72L338,73L340,75L343,78L346,80L349,83L351,85L354,87L357,88L360,89L363,89L365,88L368,86L371,84L374,81L376,77L379,74L382,70L385,68L388,66L390,65L393,65L396,66L399,69L401,72L404,77L407,82L410,87L413,91L415,93L418,94L421,92L424,88L426,83L429,76L432,70L435,65L438,62L440,61L443,62L446,67L449,73L451,82L454,90L457,96L460,99L462,97L465,90L468,81L471,70L474,62L476,57L479,57L482,62L485,72L487,85L490,97L493,104L496,102L499,92L501,78L504,64L507,55L510,53L512,60L515,75L518,93L521,107L524,108L526,95L529,75L532,58L535,50L537,54L540,71L543,95L546,113L549,111L551,88L554,55" style="fill: none; stroke: #aca6c0; stroke-width: 1;"></path>
      </g>
      <g>
       <path d="M2,80L4,80L7,80L10,80L12,80L15,80L17,80L20,80L23,80L25,80L28,80L30,80L33,80L36,80L38,80L41,80L44,81L46,81L49,81L52,81L54,81L57,81L59,81L62,81L65,81L67,81L70,81L72,81L75,81L78,81L80,81L83,81L86,81L88,81L91,81L94,81L96,81L99,81L101,81L104,81L107,80L109,80L112,80L115,80L117,80L120,80L122,80L125,80L128,80L130,80L133,80L136,79L138,79L141,79L143,79L146,79L149,79L151,78L154,78L156,78L159,78L162,77L164,77L167,77L170,77L172,76L175,76L178,76L180,75L183,75L185,75L188,74L191,74L193,74L196,73L198,73L201,73L204,72L206,72L209,72L212,71L214,71L217,70L220,70L222,70L225,69L227,69L230,69L233,68L235,68L238,68L240,68L243,67L246,67L248,67L251,67L254,67L256,67L259,67L262,67L264,67L267,68L269,68L272,68L275,69L277,69L280,70L283,71L285,71L288,72L290,73L293,74L296,75L298,76L301,77L304,79L306,80L309,82L311,83L314,84L317,86L319,87L322,89L325,90L327,92L330,93L332,94L335,95L338,96L340,97L343,97L345,97L348,97L351,97L353,96L356,95L359,94L361,92L364,90L366,88L369,85L372,82L374,80L377,77L380,74L382,71L385,68L388,65L390,62L393,60L395,57L398,56L401,54L403,54L406,53L409,54L411,54L414,56L416,58L419,61L422,65L424,69L427,74L430,79L432,85L435,91L437,97L440,103L443,108L445,112L448,115L451,117L453,116L456,113L458,108L461,102L464,94L466,86L469,77L472,69L474,61L477,53L479,48L482,44L485,41L487,41L490,42L493,47L495,53L498,62L500,73L503,86L506,100L508,114L511,127L514,136L516,139L519,135L521,125L524,103" style="fill: none; stroke: #f3f3f3; stroke-width: 1;"></path>
      </g>
      <g>
       <path d="M2,77L5,77L7,78L10,78L13,78L16,78L18,78L21,78L24,78L27,78L30,78L32,78L35,78L38,78L41,78L43,78L46,78L49,78L52,78L55,79L57,79L60,79L63,79L66,79L68,79L71,79L74,79L77,79L79,79L82,79L85,79L88,79L91,79L93,80L96,80L99,80L102,80L104,80L107,80L110,80L113,80L116,80L118,80L121,80L124,80L127,80L129,79L132,79L135,79L138,79L141,79L143,79L146,79L149,79L152,78L154,78L157,78L160,78L163,77L166,77L168,77L171,77L174,76L177,76L179,76L182,75L185,75L188,75L190,74L193,74L196,74L199,74L202,74L204,73L207,73L210,73L213,73L215,73L218,73L221,73L224,74L227,74L229,74L232,75L235,75L238,76L240,76L243,77L246,78L249,78L252,79L254,80L257,81L260,81L263,82L265,82L268,83L271,83L274,84L277,84L279,84L282,83L285,83L288,82L290,82L293,81L296,80L299,78L302,77L304,76L307,74L310,73L313,72L315,71L318,70L321,70L324,69L326,70L329,70L332,71L335,72L338,74L340,76L343,78L346,80L349,82L351,84L354,86L357,87L360,88L363,88L365,87L368,85L371,83L374,80L376,77L379,74L382,71L385,69L388,67L390,66L393,66L396,67L399,69L401,73L404,77L407,81L410,86L413,89L415,92L418,92L421,91L424,87L426,82L429,77L432,71L435,66L438,63L440,62L443,64L446,68L449,74L451,81L454,89L457,94L460,97L462,95L465,89L468,80L471,71L474,64L476,59L479,59L482,64L485,73L487,84L490,95L493,101L496,100L499,91L501,78L504,65L507,57L510,56L512,62L515,75L518,91L521,104L524,105L526,93L529,75L532,59L535,52L537,56L540,72L543,93L546,109L549,107L551,87L554,57" style="fill: none; stroke: #80809c; stroke-width: 1;"></path>
      </g>
      <g>
       <path d="M2,80L4,80L7,80L10,80L12,80L15,80L17,80L20,80L23,80L25,80L28,80L30,80L33,80L36,80L38,80L41,80L44,80L46,80L49,80L52,80L54,80L57,80L59,80L62,80L65,80L67,80L70,80L72,80L75,80L78,80L80,80L83,80L86,80L88,80L91,80L94,80L96,80L99,80L101,80L104,80L107,80L109,80L112,80L115,80L117,80L120,80L122,80L125,80L128,80L130,79L133,79L136,79L138,79L141,79L143,79L146,79L149,78L151,78L154,78L156,78L159,78L162,77L164,77L167,77L170,77L172,77L175,76L178,76L180,76L183,75L185,75L188,75L191,74L193,74L196,74L198,74L201,73L204,73L206,73L209,72L212,72L214,72L217,71L220,71L222,71L225,70L227,70L230,70L233,69L235,69L238,69L240,69L243,69L246,68L248,68L251,68L254,68L256,68L259,68L262,68L264,69L267,69L269,69L272,69L275,70L277,70L280,71L283,71L285,72L288,73L290,74L293,74L296,75L298,76L301,77L304,79L306,80L309,81L311,82L314,84L317,85L319,86L322,88L325,89L327,90L330,91L332,92L335,93L338,94L340,94L343,95L345,95L348,95L351,94L353,94L356,93L359,92L361,90L364,88L366,86L369,84L372,82L374,79L377,77L380,74L382,71L385,69L388,66L390,64L393,61L395,60L398,58L401,57L403,56L406,56L409,56L411,57L414,58L416,60L419,63L422,66L424,70L427,74L430,79L432,84L435,89L437,95L440,100L443,104L445,108L448,111L451,112L453,111L456,109L458,105L461,99L464,92L466,85L469,77L472,70L474,62L477,56L479,51L482,47L485,45L487,44L490,46L493,50L495,55L498,63L500,73L503,85L506,97L508,110L511,121L514,128L516,131L519,127L521,119L524,100" style="fill: none; stroke: #e6e6e6; stroke-width: 1;"></path>
      </g>
      <g>
       <path d="M2,77L5,77L7,77L10,78L13,78L16,78L18,78L21,78L24,78L27,78L30,78L32,78L35,78L38,78L41,78L43,78L46,78L49,78L52,78L55,78L57,78L60,79L63,79L66,79L68,79L71,79L74,79L77,79L79,79L82,79L85,79L88,79L91,79L93,79L96,79L99,79L102,79L104,79L107,79L110,79L113,79L116,79L118,79L121,79L124,79L127,79L129,79L132,79L135,79L138,79L141,79L143,79L146,79L149,78L152,78L154,78L157,78L160,78L163,77L166,77L168,77L171,77L174,76L177,76L179,76L182,76L185,75L188,75L190,75L193,75L196,74L199,74L202,74L204,74L207,74L210,74L213,74L215,74L218,74L221,74L224,74L227,74L229,75L232,75L235,75L238,76L240,76L243,77L246,78L249,78L252,79L254,80L257,80L260,81L263,81L265,82L268,82L271,83L274,83L277,83L279,83L282,83L285,82L288,82L290,81L293,80L296,79L299,78L302,77L304,76L307,75L310,74L313,73L315,72L318,71L321,70L324,70L326,70L329,71L332,72L335,73L338,74L340,76L343,78L346,80L349,82L351,83L354,85L357,86L360,87L363,87L365,86L368,84L371,83L374,80L376,77L379,74L382,72L385,70L388,68L390,67L393,67L396,68L399,70L401,73L404,77L407,81L410,85L413,88L415,90L418,90L421,89L424,86L426,82L429,77L432,72L435,67L438,65L440,64L443,65L446,69L449,74L451,81L454,87L457,92L460,94L462,93L465,87L468,80L471,72L474,65L476,61L479,61L482,65L485,73L487,83L490,93L493,98L496,97L499,89L501,78L504,67L507,59L510,58L512,64L515,75L518,90L521,100L524,102L526,91L529,75L532,61L535,55L537,58L540,72L543,91L546,105L549,103L551,86L554,59" style="fill: none; stroke: #7d9ad2; stroke-width: 1;"></path>
      </g>
      <g>
       <path d="M2,79L4,79L7,79L10,79L12,79L15,80L17,80L20,80L23,80L25,80L28,80L30,80L33,80L36,80L38,80L41,80L44,80L46,80L49,80L52,80L54,80L57,80L59,80L62,80L65,80L67,80L70,80L72,80L75,80L78,80L80,80L83,80L86,80L88,80L91,80L94,80L96,80L99,80L101,80L104,80L107,80L109,80L112,80L115,80L117,80L120,80L122,79L125,79L128,79L130,79L133,79L136,79L138,79L141,79L143,79L146,78L149,78L151,78L154,78L156,78L159,78L162,77L164,77L167,77L170,77L172,77L175,76L178,76L180,76L183,76L185,75L188,75L191,75L193,75L196,74L198,74L201,74L204,73L206,73L209,73L212,73L214,72L217,72L220,72L222,71L225,71L227,71L230,71L233,70L235,70L238,70L240,70L243,70L246,69L248,69L251,69L254,69L256,69L259,69L262,69L264,70L267,70L269,70L272,70L275,71L277,71L280,72L283,72L285,73L288,73L290,74L293,75L296,76L298,77L301,77L304,78L306,80L309,81L311,82L314,83L317,84L319,85L322,86L325,87L327,88L330,89L332,90L335,91L338,92L340,92L343,92L345,93L348,92L351,92L353,92L356,91L359,90L361,89L364,87L366,85L369,83L372,81L374,79L377,77L380,74L382,72L385,70L388,67L390,65L393,63L395,62L398,60L401,59L403,59L406,58L409,58L411,59L414,60L416,62L419,65L422,67L424,71L427,75L430,79L432,83L435,88L437,93L440,97L443,101L445,104L448,106L451,107L453,106L456,104L458,101L461,96L464,90L466,84L469,77L472,70L474,64L477,58L479,54L482,50L485,48L487,48L490,50L493,53L495,58L498,65L500,74L503,84L506,95L508,105L511,114L514,121L516,123L519,120L521,113L524,97" style="fill: none; stroke: #cdcdcd; stroke-width: 1;"></path>
      </g>
      <g>
       <path d="M2,77L5,77L7,77L10,78L13,78L16,78L18,78L21,78L24,78L27,78L30,78L32,78L35,78L38,78L41,78L43,78L46,78L49,78L52,78L55,78L57,78L60,78L63,78L66,79L68,79L71,79L74,79L77,79L79,79L82,79L85,79L88,79L91,79L93,79L96,79L99,79L102,79L104,79L107,79L110,79L113,79L116,79L118,79L121,79L124,79L127,79L129,79L132,79L135,79L138,79L141,79L143,79L146,78L149,78L152,78L154,78L157,78L160,78L163,77L166,77L168,77L171,77L174,77L177,76L179,76L182,76L185,76L188,75L190,75L193,75L196,75L199,75L202,74L204,74L207,74L210,74L213,74L215,74L218,74L221,74L224,74L227,75L229,75L232,75L235,76L238,76L240,77L243,77L246,78L249,78L252,79L254,79L257,80L260,80L263,81L265,81L268,82L271,82L274,82L277,82L279,82L282,82L285,82L288,81L290,81L293,80L296,79L299,78L302,77L304,76L307,75L310,74L313,73L315,72L318,72L321,71L324,71L326,71L329,72L332,72L335,73L338,75L340,76L343,78L346,79L349,81L351,83L354,84L357,85L360,85L363,85L365,85L368,84L371,82L374,80L376,77L379,75L382,73L385,71L388,69L390,68L393,68L396,69L399,71L401,74L404,77L407,80L410,84L413,87L415,88L418,89L421,88L424,85L426,81L429,77L432,72L435,69L438,66L440,65L443,67L446,70L449,75L451,80L454,86L457,90L460,92L462,91L465,86L468,80L471,72L474,67L476,63L479,63L482,67L485,74L487,82L490,91L493,95L496,94L499,88L501,78L504,68L507,61L510,60L512,65L515,76L518,88L521,97L524,98L526,90L529,76L532,63L535,57L537,61L540,73L543,89L546,102L549,100L551,85L554,61" style="fill: none; stroke: #6e7b85; stroke-width: 1;"></path>
      </g>
      <g>
       <path d="M2,79L4,79L7,79L10,79L12,79L15,79L17,79L20,79L23,79L25,79L28,79L30,79L33,79L36,79L38,79L41,79L44,79L46,79L49,80L52,80L54,80L57,80L59,80L62,80L65,80L67,80L70,80L72,80L75,80L78,80L80,80L83,80L86,80L88,80L91,80L94,80L96,80L99,80L101,79L104,79L107,79L109,79L112,79L115,79L117,79L120,79L122,79L125,79L128,79L130,79L133,79L136,79L138,79L141,79L143,78L146,78L149,78L151,78L154,78L156,78L159,78L162,77L164,77L167,77L170,77L172,77L175,77L178,76L180,76L183,76L185,76L188,75L191,75L193,75L196,75L198,74L201,74L204,74L206,74L209,73L212,73L214,73L217,73L220,72L222,72L225,72L227,72L230,72L233,71L235,71L238,71L240,71L243,71L246,71L248,71L251,70L254,70L256,70L259,70L262,71L264,71L267,71L269,71L272,71L275,72L277,72L280,72L283,73L285,73L288,74L290,74L293,75L296,76L298,77L301,77L304,78L306,79L309,80L311,81L314,82L317,83L319,84L322,85L325,86L327,87L330,88L332,88L335,89L338,89L340,90L343,90L345,90L348,90L351,90L353,89L356,89L359,88L361,87L364,86L366,84L369,82L372,81L374,79L377,77L380,75L382,73L385,71L388,69L390,67L393,65L395,64L398,63L401,62L403,61L406,61L409,61L411,62L414,63L416,64L419,66L422,69L424,72L427,75L430,79L432,82L435,86L437,90L440,94L443,97L445,100L448,102L451,102L453,102L456,100L458,97L461,93L464,88L466,83L469,77L472,71L474,66L477,61L479,57L482,54L485,52L487,52L490,53L493,56L495,61L498,67L500,74L503,83L506,92L508,101L511,109L514,114L516,115L519,113L521,107L524,94" style="fill: none; stroke: #b3b3b3; stroke-width: 1;"></path>
      </g>
      <g>
       <path d="M2,77L5,77L7,77L10,77L13,78L16,78L18,78L21,78L24,78L27,78L30,78L32,78L35,78L38,78L41,78L43,78L46,78L49,78L52,78L55,78L57,78L60,78L63,78L66,78L68,78L71,78L74,79L77,79L79,79L82,79L85,79L88,79L91,79L93,79L96,79L99,79L102,79L104,79L107,79L110,79L113,79L116,79L118,79L121,79L124,79L127,79L129,79L132,79L135,79L138,79L141,78L143,78L146,78L149,78L152,78L154,78L157,78L160,78L163,77L166,77L168,77L171,77L174,77L177,76L179,76L182,76L185,76L188,76L190,75L193,75L196,75L199,75L202,75L204,75L207,75L210,75L213,75L215,75L218,75L221,75L224,75L227,75L229,75L232,76L235,76L238,76L240,77L243,77L246,78L249,78L252,78L254,79L257,79L260,80L263,80L265,81L268,81L271,81L274,82L277,82L279,82L282,81L285,81L288,81L290,80L293,80L296,79L299,78L302,77L304,76L307,75L310,74L313,74L315,73L318,73L321,72L324,72L326,72L329,72L332,73L335,74L338,75L340,76L343,78L346,79L349,81L351,82L354,83L357,84L360,84L363,84L365,84L368,83L371,81L374,79L376,77L379,75L382,73L385,71L388,70L390,70L393,70L396,70L399,72L401,74L404,77L407,80L410,83L413,85L415,87L418,87L421,86L424,84L426,81L429,77L432,73L435,70L438,68L440,67L443,68L446,71L449,75L451,80L454,85L457,88L460,90L462,89L465,85L468,79L471,73L474,68L476,65L479,65L482,68L485,74L487,82L490,89L493,93L496,92L499,86L501,78L504,69L507,63L510,63L512,67L515,76L518,86L521,94L524,95L526,88L529,76L532,65L535,60L537,63L540,73L543,88L546,98L549,96L551,84L554,64" style="fill: none; stroke: #698397; stroke-width: 1;"></path>
      </g>
      <g>
       <path d="M2,79L4,79L7,79L10,79L12,79L15,79L17,79L20,79L23,79L25,79L28,79L30,79L33,79L36,79L38,79L41,79L44,79L46,79L49,79L52,79L54,79L57,79L59,79L62,79L65,79L67,79L70,79L72,79L75,79L78,79L80,79L83,79L86,79L88,79L91,79L94,79L96,79L99,79L101,79L104,79L107,79L109,79L112,79L115,79L117,79L120,79L122,79L125,79L128,79L130,79L133,79L136,79L138,78L141,78L143,78L146,78L149,78L151,78L154,78L156,78L159,78L162,77L164,77L167,77L170,77L172,77L175,77L178,77L180,76L183,76L185,76L188,76L191,76L193,75L196,75L198,75L201,75L204,75L206,74L209,74L212,74L214,74L217,73L220,73L222,73L225,73L227,73L230,73L233,72L235,72L238,72L240,72L243,72L246,72L248,72L251,72L254,72L256,72L259,72L262,72L264,72L267,72L269,72L272,72L275,73L277,73L280,73L283,74L285,74L288,74L290,75L293,76L296,76L298,77L301,77L304,78L306,79L309,80L311,80L314,81L317,82L319,83L322,84L325,84L327,85L330,86L332,86L335,87L338,87L340,88L343,88L345,88L348,88L351,88L353,87L356,87L359,86L361,85L364,84L366,83L369,82L372,80L374,79L377,77L380,75L382,74L385,72L388,70L390,69L393,67L395,66L398,65L401,64L403,64L406,63L409,64L411,64L414,65L416,66L419,68L422,70L424,73L427,75L430,78L432,82L435,85L437,88L440,91L443,94L445,96L448,97L451,98L453,97L456,96L458,94L461,91L464,87L466,82L469,77L472,72L474,68L477,64L479,60L482,58L485,56L487,56L490,57L493,59L495,63L498,68L500,75L503,82L506,90L508,97L511,103L514,107L516,108L519,107L521,102L524,91" style="fill: none; stroke: #9a9a9a; stroke-width: 1;"></path>
      </g>
      <g>
       <path d="M2,77L5,77L7,77L10,77L13,78L16,78L18,78L21,78L24,78L27,78L30,78L32,78L35,78L38,78L41,78L43,78L46,78L49,78L52,78L55,78L57,78L60,78L63,78L66,78L68,78L71,78L74,78L77,78L79,78L82,78L85,78L88,79L91,79L93,79L96,79L99,79L102,79L104,79L107,79L110,79L113,79L116,79L118,79L121,79L124,79L127,79L129,79L132,79L135,78L138,78L141,78L143,78L146,78L149,78L152,78L154,78L157,78L160,78L163,77L166,77L168,77L171,77L174,77L177,77L179,76L182,76L185,76L188,76L190,76L193,76L196,75L199,75L202,75L204,75L207,75L210,75L213,75L215,75L218,75L221,75L224,75L227,75L229,76L232,76L235,76L238,76L240,77L243,77L246,77L249,78L252,78L254,79L257,79L260,80L263,80L265,80L268,80L271,81L274,81L277,81L279,81L282,81L285,80L288,80L290,80L293,79L296,79L299,78L302,77L304,76L307,76L310,75L313,74L315,74L318,73L321,73L324,73L326,73L329,73L332,74L335,74L338,75L340,76L343,78L346,79L349,80L351,81L354,82L357,83L360,83L363,83L365,83L368,82L371,81L374,79L376,77L379,76L382,74L385,72L388,71L390,71L393,71L396,72L399,73L401,75L404,77L407,80L410,82L413,84L415,85L418,85L421,85L424,83L426,80L429,77L432,74L435,71L438,69L440,69L443,70L446,72L449,75L451,79L454,84L457,87L460,88L462,87L465,84L468,79L471,74L474,70L476,67L479,67L482,70L485,75L487,81L490,87L493,90L496,89L499,85L501,78L504,70L507,66L510,65L512,69L515,76L518,85L521,91L524,92L526,86L529,76L532,67L535,63L537,65L540,74L543,86L546,94L549,93L551,83L554,66" style="fill: none; stroke: #768a92; stroke-width: 1;"></path>
      </g>
      <g>
       <path d="M2,79L4,79L7,79L10,79L12,79L15,79L17,79L20,79L23,79L25,79L28,79L30,79L33,79L36,79L38,79L41,79L44,79L46,79L49,79L52,79L54,79L57,79L59,79L62,79L65,79L67,79L70,79L72,79L75,79L78,79L80,79L83,79L86,79L88,79L91,79L94,79L96,79L99,79L101,79L104,79L107,79L109,79L112,79L115,79L117,79L120,79L122,79L125,79L128,78L130,78L133,78L136,78L138,78L141,78L143,78L146,78L149,78L151,78L154,78L156,78L159,78L162,77L164,77L167,77L170,77L172,77L175,77L178,77L180,77L183,76L185,76L188,76L191,76L193,76L196,76L198,75L201,75L204,75L206,75L209,75L212,75L214,74L217,74L220,74L222,74L225,74L227,74L230,73L233,73L235,73L238,73L240,73L243,73L246,73L248,73L251,73L254,73L256,73L259,73L262,73L264,73L267,73L269,73L272,73L275,74L277,74L280,74L283,74L285,75L288,75L290,75L293,76L296,76L298,77L301,77L304,78L306,79L309,79L311,80L314,80L317,81L319,82L322,82L325,83L327,84L330,84L332,85L335,85L338,85L340,86L343,86L345,86L348,86L351,86L353,85L356,85L359,84L361,84L364,83L366,82L369,81L372,80L374,78L377,77L380,76L382,74L385,73L388,72L390,70L393,69L395,68L398,67L401,67L403,66L406,66L409,66L411,67L414,67L416,69L419,70L422,72L424,74L427,76L430,78L432,81L435,83L437,86L440,88L443,90L445,92L448,93L451,93L453,93L456,92L458,90L461,88L464,85L466,81L469,77L472,73L474,70L477,66L479,63L482,61L485,60L487,60L490,61L493,63L495,66L498,70L500,75L503,81L506,87L508,93L511,97L514,101L516,102L519,100L521,96L524,88" style="fill: none; stroke: #808080; stroke-width: 1;"></path>
      </g>
      <g>
       <path d="M2,77L5,77L7,77L10,77L13,77L16,78L18,78L21,78L24,78L27,78L30,78L32,78L35,78L38,78L41,78L43,78L46,78L49,78L52,78L55,78L57,78L60,78L63,78L66,78L68,78L71,78L74,78L77,78L79,78L82,78L85,78L88,78L91,78L93,78L96,78L99,78L102,78L104,78L107,78L110,78L113,78L116,78L118,78L121,78L124,78L127,78L129,78L132,78L135,78L138,78L141,78L143,78L146,78L149,78L152,78L154,78L157,78L160,78L163,77L166,77L168,77L171,77L174,77L177,77L179,77L182,76L185,76L188,76L190,76L193,76L196,76L199,76L202,76L204,76L207,76L210,76L213,76L215,76L218,76L221,76L224,76L227,76L229,76L232,76L235,76L238,77L240,77L243,77L246,77L249,78L252,78L254,78L257,79L260,79L263,79L265,80L268,80L271,80L274,80L277,80L279,80L282,80L285,80L288,80L290,79L293,79L296,78L299,78L302,77L304,77L307,76L310,75L313,75L315,74L318,74L321,74L324,74L326,74L329,74L332,74L335,75L338,76L340,77L343,78L346,79L349,79L351,80L354,81L357,82L360,82L363,82L365,82L368,81L371,80L374,79L376,77L379,76L382,75L385,73L388,73L390,72L393,72L396,73L399,74L401,75L404,77L407,79L410,81L413,83L415,84L418,84L421,83L424,82L426,80L429,77L432,74L435,72L438,71L440,70L443,71L446,73L449,76L451,79L454,82L457,85L460,86L462,85L465,82L468,79L471,75L474,71L476,69L479,69L482,71L485,75L487,80L490,85L493,87L496,87L499,83L501,78L504,72L507,68L510,67L512,70L515,76L518,83L521,88L524,89L526,84L529,76L532,69L535,66L537,68L540,75L543,84L546,91L549,90L551,82L554,68" style="fill: none; stroke: #7b8f9a; stroke-width: 1;"></path>
      </g>
      <g>
       <path d="M2,78L4,78L7,78L10,78L12,78L15,78L17,78L20,78L23,78L25,78L28,78L30,78L33,78L36,78L38,78L41,78L44,78L46,78L49,78L52,78L54,78L57,78L59,78L62,78L65,78L67,78L70,78L72,78L75,78L78,78L80,78L83,78L86,78L88,78L91,78L94,78L96,78L99,78L101,78L104,78L107,78L109,78L112,78L115,78L117,78L120,78L122,78L125,78L128,78L130,78L133,78L136,78L138,78L141,78L143,78L146,78L149,78L151,78L154,78L156,78L159,78L162,77L164,77L167,77L170,77L172,77L175,77L178,77L180,77L183,77L185,77L188,76L191,76L193,76L196,76L198,76L201,76L204,76L206,76L209,75L212,75L214,75L217,75L220,75L222,75L225,75L227,75L230,74L233,74L235,74L238,74L240,74L243,74L246,74L248,74L251,74L254,74L256,74L259,74L262,74L264,74L267,74L269,74L272,74L275,74L277,75L280,75L283,75L285,75L288,76L290,76L293,76L296,77L298,77L301,77L304,78L306,78L309,79L311,79L314,80L317,80L319,81L322,81L325,82L327,82L330,82L332,83L335,83L338,83L340,84L343,84L345,84L348,84L351,84L353,83L356,83L359,83L361,82L364,81L366,81L369,80L372,79L374,78L377,77L380,76L382,75L385,74L388,73L390,72L393,71L395,70L398,70L401,69L403,69L406,69L409,69L411,69L414,70L416,71L419,72L422,73L424,74L427,76L430,78L432,80L435,82L437,84L440,85L443,87L445,88L448,89L451,89L453,89L456,88L458,87L461,85L464,83L466,80L469,77L472,74L474,72L477,69L479,67L482,65L485,64L487,64L490,65L493,66L495,69L498,72L500,76L503,80L506,85L508,89L511,92L514,94L516,95L519,94L521,91L524,86" style="fill: none; stroke: #666666; stroke-width: 1;"></path>
      </g>
      <g>
       <path d="M2,77L5,77L7,77L10,77L13,77L16,77L18,77L21,78L24,78L27,78L30,78L32,78L35,78L38,78L41,78L43,78L46,78L49,78L52,78L55,78L57,78L60,78L63,78L66,78L68,78L71,78L74,78L77,78L79,78L82,78L85,78L88,78L91,78L93,78L96,78L99,78L102,78L104,78L107,78L110,78L113,78L116,78L118,78L121,78L124,78L127,78L129,78L132,78L135,78L138,78L141,78L143,78L146,78L149,78L152,78L154,78L157,78L160,77L163,77L166,77L168,77L171,77L174,77L177,77L179,77L182,77L185,77L188,77L190,76L193,76L196,76L199,76L202,76L204,76L207,76L210,76L213,76L215,76L218,76L221,76L224,76L227,76L229,76L232,76L235,77L238,77L240,77L243,77L246,77L249,78L252,78L254,78L257,78L260,79L263,79L265,79L268,79L271,79L274,79L277,79L279,79L282,79L285,79L288,79L290,79L293,78L296,78L299,78L302,77L304,77L307,76L310,76L313,76L315,75L318,75L321,75L324,75L326,75L329,75L332,75L335,76L338,76L340,77L343,78L346,78L349,79L351,80L354,80L357,81L360,81L363,81L365,81L368,80L371,79L374,78L376,77L379,76L382,75L385,74L388,74L390,73L393,73L396,74L399,75L401,76L404,77L407,79L410,80L413,81L415,82L418,82L421,82L424,81L426,79L429,77L432,75L435,74L438,72L440,72L443,73L446,74L449,76L451,79L454,81L457,83L460,84L462,83L465,81L468,78L471,75L474,73L476,71L479,71L482,73L485,76L487,79L490,83L493,85L496,84L499,82L501,78L504,73L507,70L510,70L512,72L515,77L518,82L521,86L524,86L526,83L529,77L532,71L535,68L537,70L540,75L543,82L546,87L549,87L551,81L554,70" style="fill: none; stroke: #aebdc8; stroke-width: 1;"></path>
      </g>
      <g>
       <path d="M2,78L4,78L7,78L10,78L12,78L15,78L17,78L20,78L23,78L25,78L28,78L30,78L33,78L36,78L38,78L41,78L44,78L46,78L49,78L52,78L54,78L57,78L59,78L62,78L65,78L67,78L70,78L72,78L75,78L78,78L80,78L83,78L86,78L88,78L91,78L94,78L96,78L99,78L101,78L104,78L107,78L109,78L112,78L115,78L117,78L120,78L122,78L125,78L128,78L130,78L133,78L136,78L138,78L141,78L143,78L146,78L149,78L151,78L154,78L156,78L159,77L162,77L164,77L167,77L170,77L172,77L175,77L178,77L180,77L183,77L185,77L188,77L191,77L193,77L196,76L198,76L201,76L204,76L206,76L209,76L212,76L214,76L217,76L220,76L222,76L225,76L227,75L230,75L233,75L235,75L238,75L240,75L243,75L246,75L248,75L251,75L254,75L256,75L259,75L262,75L264,75L267,75L269,75L272,75L275,75L277,76L280,76L283,76L285,76L288,76L290,76L293,77L296,77L298,77L301,77L304,78L306,78L309,78L311,79L314,79L317,79L319,80L322,80L325,80L327,80L330,81L332,81L335,81L338,81L340,81L343,82L345,82L348,82L351,81L353,81L356,81L359,81L361,80L364,80L366,80L369,79L372,78L374,78L377,77L380,77L382,76L385,75L388,74L390,74L393,73L395,73L398,72L401,72L403,72L406,72L409,72L411,72L414,72L416,73L419,74L422,74L424,75L427,77L430,78L432,79L435,80L437,82L440,83L443,84L445,84L448,85L451,85L453,85L456,85L458,84L461,82L464,81L466,79L469,77L472,75L474,73L477,72L479,70L482,69L485,68L487,68L490,69L493,70L495,72L498,74L500,76L503,79L506,82L508,85L511,87L514,88L516,89L519,88L521,87L524,83" style="fill: none; stroke: #4d4d4d; stroke-width: 1;"></path>
      </g>
      <g>
       <path d="M2,77L5,77L7,77L10,77L13,77L16,77L18,77L21,77L24,77L27,77L30,78L32,78L35,78L38,78L41,78L43,78L46,78L49,78L52,78L55,78L57,78L60,78L63,78L66,78L68,78L71,78L74,78L77,78L79,78L82,78L85,78L88,78L91,78L93,78L96,78L99,78L102,78L104,78L107,78L110,78L113,78L116,78L118,78L121,78L124,78L127,78L129,78L132,78L135,78L138,78L141,78L143,78L146,78L149,78L152,78L154,78L157,78L160,77L163,77L166,77L168,77L171,77L174,77L177,77L179,77L182,77L185,77L188,77L190,77L193,77L196,77L199,77L202,77L204,76L207,76L210,76L213,76L215,76L218,76L221,77L224,77L227,77L229,77L232,77L235,77L238,77L240,77L243,77L246,77L249,78L252,78L254,78L257,78L260,78L263,78L265,79L268,79L271,79L274,79L277,79L279,79L282,79L285,79L288,78L290,78L293,78L296,78L299,78L302,77L304,77L307,77L310,76L313,76L315,76L318,76L321,76L324,76L326,76L329,76L332,76L335,76L338,77L340,77L343,77L346,78L349,78L351,79L354,79L357,80L360,80L363,80L365,79L368,79L371,79L374,78L376,77L379,77L382,76L385,75L388,75L390,75L393,75L396,75L399,76L401,76L404,77L407,78L410,79L413,80L415,80L418,81L421,80L424,80L426,78L429,77L432,76L435,75L438,74L440,74L443,74L446,75L449,77L451,78L454,80L457,81L460,81L462,81L465,80L468,78L471,76L474,74L476,73L479,73L482,74L485,76L487,79L490,81L493,82L496,82L499,80L501,77L504,75L507,73L510,72L512,74L515,77L518,80L521,83L524,83L526,81L529,77L532,73L535,71L537,72L540,76L543,81L546,84L549,83L551,79L554,73" style="fill: none; stroke: #839f8d; stroke-width: 1;"></path>
      </g>
      <g>
       <path d="M2,78L4,78L7,78L10,78L12,78L15,78L17,78L20,78L23,78L25,78L28,78L30,78L33,78L36,78L38,78L41,78L44,78L46,78L49,78L52,78L54,78L57,78L59,78L62,78L65,78L67,78L70,78L72,78L75,78L78,78L80,78L83,78L86,78L88,78L91,78L94,78L96,78L99,78L101,78L104,78L107,78L109,78L112,78L115,78L117,78L120,78L122,78L125,78L128,78L130,78L133,78L136,78L138,78L141,78L143,78L146,78L149,78L151,77L154,77L156,77L159,77L162,77L164,77L167,77L170,77L172,77L175,77L178,77L180,77L183,77L185,77L188,77L191,77L193,77L196,77L198,77L201,77L204,77L206,77L209,77L212,77L214,77L217,77L220,77L222,77L225,76L227,76L230,76L233,76L235,76L238,76L240,76L243,76L246,76L248,76L251,76L254,76L256,76L259,76L262,76L264,76L267,76L269,76L272,76L275,76L277,76L280,77L283,77L285,77L288,77L290,77L293,77L296,77L298,77L301,77L304,78L306,78L309,78L311,78L314,78L317,78L319,78L322,79L325,79L327,79L330,79L332,79L335,79L338,79L340,79L343,79L345,79L348,79L351,79L353,79L356,79L359,79L361,79L364,79L366,78L369,78L372,78L374,78L377,77L380,77L382,77L385,76L388,76L390,76L393,75L395,75L398,75L401,75L403,75L406,74L409,75L411,75L414,75L416,75L419,75L422,76L424,76L427,77L430,78L432,78L435,79L437,79L440,80L443,80L445,81L448,81L451,81L453,81L456,81L458,81L461,80L464,79L466,78L469,77L472,76L474,75L477,75L479,74L482,73L485,73L487,73L490,73L493,74L495,74L498,76L500,77L503,78L506,80L508,81L511,82L514,83L516,83L519,83L521,82L524,80" style="fill: none; stroke: #c1b7ad; stroke-width: 1;"></path>
      </g>
      <g>
       <path d="M2,77L5,77L7,77L10,77L13,77L16,77L18,77L21,77L24,77L27,77L30,77L32,77L35,77L38,77L41,77L43,77L46,77L49,78L52,78L55,78L57,78L60,78L63,78L66,78L68,78L71,78L74,78L77,78L79,78L82,78L85,78L88,78L91,78L93,78L96,78L99,78L102,78L104,78L107,78L110,78L113,78L116,78L118,78L121,78L124,78L127,78L129,78L132,78L135,78L138,78L141,78L143,78L146,78L149,78L152,77L154,77L157,77L160,77L163,77L166,77L168,77L171,77L174,77L177,77L179,77L182,77L185,77L188,77L190,77L193,77L196,77L199,77L202,77L204,77L207,77L210,77L213,77L215,77L218,77L221,77L224,77L227,77L229,77L232,77L235,77L238,77L240,77L243,77L246,77L249,77L252,78L254,78L257,78L260,78L263,78L265,78L268,78L271,78L274,78L277,78L279,78L282,78L285,78L288,78L290,78L293,78L296,78L299,77L302,77L304,77L307,77L310,77L313,77L315,77L318,77L321,77L324,76L326,76L329,77L332,77L335,77L338,77L340,77L343,77L346,78L349,78L351,78L354,78L357,78L360,79L363,79L365,78L368,78L371,78L374,78L376,77L379,77L382,77L385,76L388,76L390,76L393,76L396,76L399,76L401,77L404,77L407,78L410,78L413,79L415,79L418,79L421,79L424,78L426,78L429,77L432,77L435,76L438,76L440,76L443,76L446,76L449,77L451,78L454,79L457,79L460,79L462,79L465,79L468,78L471,77L474,76L476,75L479,75L482,76L485,77L487,78L490,79L493,80L496,80L499,79L501,77L504,76L507,75L510,75L512,76L515,77L518,79L521,80L524,80L526,79L529,77L532,75L535,74L537,75L540,77L543,79L546,81L549,80L551,78L554,75" style="fill: none; stroke: #8aa9a1; stroke-width: 1;"></path>
      </g>
     </svg>
     <g>
      <g transform="translate(0,360)">
       <path d="M0,0h525M0,-14V0M120,-7V0M189,-7V0M239,-7V0M278,-7V0M309,-7V0M336,-7V0M359,-7V0M379,-7V0M397,-14V0M517,-7V0" style="stroke: black; stroke-width: 1;"></path>
       <g font-family="Arial" font-size="16" space="preserve" fill="black" text-anchor="middle">
        <text dy=".8em">
         1
        </text>
        <text dy=".8em" transform="translate(397)">
         10
        </text>
       </g>
      </g>
      <g>
       <path d="M0,0v360M10,333H0M10,302H0M10,277H0M10,255H0M10,237H0M10,220H0M20,205H0M10,109H0M10,52H0M10,12H0" style="stroke: black; stroke-width: 1;"></path>
       <g font-family="Arial" font-size="16" space="preserve">
        <text fill="black" text-anchor="end" dy=".4em" transform="translate(-2,205)">
         10
        </text>
       </g>
      </g>
     </g>
    </g>
    <g transform="translate(66,2)" font-family="Arial" font-size="23" space="preserve">
     <text fill="black" text-anchor="middle" dy=".8em" transform="translate(263)">
      x*sin(x+10)+25
     </text>
    </g>
    <g transform="translate(97,194)" font-family="Arial" font-size="11" space="preserve" fill="black" text-anchor="start">
     <path d="M4,4v88h347v-88z" style="fill: black; stroke: black; stroke-width: 1px;"></path>
     <path d="M0,0H347V88H0Z" style="fill: #dfbb88; stroke: black; stroke-width: 1;"></path>
     <text dy=".4em" transform="translate(17,15)">
      Log scale along X and Y axis.
     </text>
     <text dy=".4em" transform="translate(17,44)">
      More Log labels on both.
     </text>
     <text dy=".4em" transform="translate(17,73)">
      The labels have no exponents (they would be 0 or 1)
     </text>
    </g>
   </g>
  </svg>
  <g transform="translate(70,17)" font-family="Arial" font-size="26" space="preserve">
   <path d="M3,3v35h558v-35z" style="fill: black; stroke: black; stroke-width: 1px;"></path>
   <path d="M0,0H558V35H0Z" style="fill: #b3b3b3; stroke: black; stroke-width: 1;"></path>
   <text fill="black" text-anchor="middle" dy=".4em" transform="translate(279,18)">
    Various options on LOG scales plots
   </text>
  </g>
  <g transform="translate(70,341)" font-family="Arial" font-size="13" space="preserve">
   <path d="M4,4v52h558v-52z" style="fill: black; stroke: black; stroke-width: 1px;"></path>
   <path d="M0,0H558V52H0Z" style="fill: #dfbb88; stroke: black; stroke-width: 1;"></path>
   <text fill="black" text-anchor="start" dy=".4em" transform="translate(28,26)">
    When more Log labels are requested, the overlapping labels are removed
   </text>
  </g>
 </g>
</svg>