<svg viewBox="0 0 1200 800" preserveAspectRatio="none" xmlns="http://www.w3.org/2000/svg" width="1200" height="800"><title>ROOT canvas</title><rect x="0" y="0" width="1200" height="800" style="fill: white;"></rect><g><g transform="translate(120,120)"><title></title><rect x="0" y="0" width="960" height="600" style="fill: white; stroke: black; stroke-width: 1;"></rect><g><path d="M0,0v600M48,0v600M96,0v600M144,0v600M192,0v600M240,0v600M288,0v600M336,0v600M384,0v600M432,0v600M480,0v600M528,0v600M576,0v600M624,0v600M672,0v600M720,0v600M768,0v600M816,0v600M864,0v600M912,0v600M960,0v600" style="stroke: black; stroke-width: 1; stroke-dasharray: 1,2;"></path><path d="M0,512h960M0,391h960M0,270h960M0,148h960M0,27h960" style="stroke: black; stroke-width: 1; stroke-dasharray: 1,2;"></path></g><svg x="0" y="0" overflow="hidden" width="960" height="600" viewBox="0 0 960 600"><g objname="h" objtype="TH1F"><path d="M0,100h48v73h48v291h48v-316h48v291h48v-218h48v352h48v-37h48v-206h48v-72h48v121h48v-243h48v-60h48v145h48v-194h48v194h48v-97h48v158h48v36h48v49h48L960,603L0,603Z" style="stroke-linejoin: miter; stroke: rgb(0,0,154); stroke-width: 1; fill: rgb(125,154,210);"></path></g></svg><g><g transform="translate(0,600)"><path d="M0,-24v24m48,-24v24m48,-24v24m48,-24v24m48,-24v24m48,-24v24m48,-24v24m48,-24v24m48,-24v24m48,-24v24m48,-24v24m48,-24v24m48,-24v24m48,-24v24m48,-24v24m48,-24v24m48,-24v24m48,-24v24m48,-24v24m48,-24v24m48,-12v12" style="stroke: black; stroke-width: 1;"></path><g font-family="Arial" font-size="28" space="preserve"><text fill="black" text-anchor="middle" dy=".8em" transform="translate(24,6) rotate(25)" style="text-anchor: start;">Valery</text><text fill="black" text-anchor="middle" dy=".8em" transform="translate(72,6) rotate(25)" style="text-anchor: start;">Odile</text><text fill="black" text-anchor="middle" dy=".8em" transform="translate(120,6) rotate(25)" style="text-anchor: start;">Fons</text><text fill="black" text-anchor="middle" dy=".8em" transform="translate(168,6) rotate(25)" style="text-anchor: start;">Jeff</text><text fill="black" text-anchor="middle" dy=".8em" transform="translate(216,6) rotate(25)" style="text-anchor: start;">Sebastien</text><text fill="black" text-anchor="middle" dy=".8em" transform="translate(264,6) rotate(25)" style="text-anchor: start;">Greg</text><text fill="black" text-anchor="middle" dy=".8em" transform="translate(312,6) rotate(25)" style="text-anchor: start;">Peter</text><text fill="black" text-anchor="middle" dy=".8em" transform="translate(360,6) rotate(25)" style="text-anchor: start;">Bjarne</text><text fill="black" text-anchor="middle" dy=".8em" transform="translate(408,6) rotate(25)" style="text-anchor: start;">Pasha</text><text fill="black" text-anchor="middle" dy=".8em" transform="translate(456,6) rotate(25)" style="text-anchor: start;">Eddy</text><text fill="black" text-anchor="middle" dy=".8em" transform="translate(504,6) rotate(25)" style="text-anchor: start;">Rene</text><text fill="black" text-anchor="middle" dy=".8em" transform="translate(552,6) rotate(25)" style="text-anchor: start;">Philippe</text><text fill="black" text-anchor="middle" dy=".8em" transform="translate(600,6) rotate(25)" style="text-anchor: start;">Nicolas</text><text fill="black" text-anchor="middle" dy=".8em" transform="translate(648,6) rotate(25)" style="text-anchor: start;">Jean</text><text fill="black" text-anchor="middle" dy=".8em" transform="translate(696,6) rotate(25)" style="text-anchor: start;">Anton</text><text fill="black" text-anchor="middle" dy=".8em" transform="translate(744,6) rotate(25)" style="text-anchor: start;">Suzanne</text><text fill="black" text-anchor="middle" dy=".8em" transform="translate(792,6) rotate(25)" style="text-anchor: start;">Marie</text><text fill="black" text-anchor="middle" dy=".8em" transform="translate(840,6) rotate(25)" style="text-anchor: start;">Pierre</text><text fill="black" text-anchor="middle" dy=".8em" transform="translate(888,6) rotate(25)" style="text-anchor: start;">Otto</text><text fill="black" text-anchor="middle" dy=".8em" transform="translate(936,6) rotate(25)" style="text-anchor: start;">Xavier</text></g></g><g><path d="M18,585h-18m18,-24h-18m18,-25h-18m36,-24h-36m18,-24h-18m18,-24h-18m18,-25h-18m18,-24h-18m36,-24h-36m18,-24h-18m18,-25h-18m18,-24h-18m18,-24h-18m36,-24h-36m18,-25h-18m18,-24h-18m18,-24h-18m18,-24h-18m36,-25h-36m18,-24h-18m18,-24h-18m18,-24h-18m18,-24h-18m36,-25h-36m18,-24h-18" style="stroke: black; stroke-width: 1;"></path><g font-family="Arial" font-size="28" space="preserve"><text fill="black" text-anchor="end" dy=".4em" transform="translate(-4,512)">230</text><text fill="black" text-anchor="end" dy=".4em" transform="translate(-4,391)">240</text><text fill="black" text-anchor="end" dy=".4em" transform="translate(-4,270)">250</text><text fill="black" text-anchor="end" dy=".4em" transform="translate(-4,148)">260</text><text fill="black" text-anchor="end" dy=".4em" transform="translate(-4,27)">270</text></g></g></g></g><g objname="title" objtype="TPaveText" transform="translate(336,8)" font-family="Arial" font-size="33" space="preserve"><path d="M0,0h528v40h-528z" style="fill: none;"></path><text fill="black" text-anchor="middle" dy=".4em" transform="translate(264,20)" opacity="1">test</text></g><g objname="TPave" objtype="TPaveText" transform="translate(840,16)" font-family="Arial" font-size="13" space="preserve" font-weight="bold"><path d="M336,104v-100h4v104h-336v-4Z" style="fill: black; stroke: black; stroke-width: 1px;"></path><path d="M0,0h336v104h-336z" style="fill: rgb(230,230,230); stroke: black; stroke-width: 1;"></path><text fill="black" text-anchor="start" dy=".4em" transform="translate(17,13)" opacity="1">Use the axis Context Menu LabelsOption</text><text fill="black" text-anchor="start" dy=".4em" transform="translate(17,39)" opacity="1"> "a"   to sort by alphabetic order</text><text fill="black" text-anchor="start" dy=".4em" transform="translate(17,65)" opacity="1"> "&gt;"   to sort by decreasing values</text><text fill="black" text-anchor="start" dy=".4em" transform="translate(17,91)" opacity="1"> "&lt;"   to sort by increasing values</text></g></g></svg>