<svg viewBox="0 0 1200 800" preserveAspectRatio="none" xmlns="http://www.w3.org/2000/svg" width="1200" height="800"><title>ROOT canvas</title><rect x="0" y="0" width="1200" height="800" style="fill: none;"></rect><g><g transform="translate(120,80)"><title></title><rect x="0" y="0" width="960" height="640" style="fill: white; stroke: black; stroke-width: 1;"></rect><svg x="0" y="0" overflow="hidden" width="960" height="640" viewBox="0 0 960 640"><g objname="SpectraPions" objtype="TH1F"><path d="M120,344h12M126,343v3M132,388h12M138,386v3M144,422h12M150,421v2M156,451h12M162,450v2M168,478h12M174,477v1M180,498h12M186,498v1M192,516h12M198,516v0M204,531h12M210,531v0M216,544h12M222,544v0M228,556h12M234,556v0M240,570h24M252,570v0M264,586h24M276,586v0M288,597h24M300,597v0M312,605h24M324,605v1M336,612h24M348,612v1M360,618h24M372,618v0M384,622h24M396,622v0M408,625h24M420,625v0M432,628h24M444,628v0M456,630h24M468,630v0M480,632h24M492,632v0M504,633h24M516,633v0M528,634h24M540,634v0M552,635h24M564,635v0M576,636h24M588,636v0" style="stroke: rgb(255,0,0); stroke-width: 1;"></path><path d="M121,344a5,5,0,1,0,10,0a5,5,0,1,0,-10,0zM133,388a5,5,0,1,0,10,0a5,5,0,1,0,-10,0zM145,422a5,5,0,1,0,10,0a5,5,0,1,0,-10,0zM157,451a5,5,0,1,0,10,0a5,5,0,1,0,-10,0zM169,478a5,5,0,1,0,10,0a5,5,0,1,0,-10,0zM181,498a5,5,0,1,0,10,0a5,5,0,1,0,-10,0zM193,516a5,5,0,1,0,10,0a5,5,0,1,0,-10,0zM205,531a5,5,0,1,0,10,0a5,5,0,1,0,-10,0zM217,544a5,5,0,1,0,10,0a5,5,0,1,0,-10,0zM229,556a5,5,0,1,0,10,0a5,5,0,1,0,-10,0zM247,570a5,5,0,1,0,10,0a5,5,0,1,0,-10,0zM271,586a5,5,0,1,0,10,0a5,5,0,1,0,-10,0zM295,597a5,5,0,1,0,10,0a5,5,0,1,0,-10,0zM319,605a5,5,0,1,0,10,0a5,5,0,1,0,-10,0zM343,612a5,5,0,1,0,10,0a5,5,0,1,0,-10,0zM367,618a5,5,0,1,0,10,0a5,5,0,1,0,-10,0zM391,622a5,5,0,1,0,10,0a5,5,0,1,0,-10,0zM415,625a5,5,0,1,0,10,0a5,5,0,1,0,-10,0zM439,628a5,5,0,1,0,10,0a5,5,0,1,0,-10,0zM463,630a5,5,0,1,0,10,0a5,5,0,1,0,-10,0zM487,632a5,5,0,1,0,10,0a5,5,0,1,0,-10,0zM511,633a5,5,0,1,0,10,0a5,5,0,1,0,-10,0zM535,634a5,5,0,1,0,10,0a5,5,0,1,0,-10,0zM559,635a5,5,0,1,0,10,0a5,5,0,1,0,-10,0zM583,636a5,5,0,1,0,10,0a5,5,0,1,0,-10,0z" style="stroke: rgb(255,0,0); fill: rgb(255,0,0);"></path></g></svg><g><g transform="translate(0,640)"><path d="M24,-12v12m24,-12v12m24,-12v12m24,-12v12m24,-24v24m24,-12v12m24,-12v12m24,-12v12m24,-12v12m24,-24v24m24,-12v12m24,-12v12m24,-12v12m24,-12v12m24,-24v24m24,-12v12m24,-12v12m24,-12v12m24,-12v12m24,-24v24m24,-12v12m24,-12v12m24,-12v12m24,-12v12m24,-24v24m24,-12v12m24,-12v12m24,-12v12m24,-12v12m24,-24v24m24,-12v12m24,-12v12m24,-12v12m24,-12v12m24,-24v24m24,-12v12m24,-12v12m24,-12v12m24,-12v12m24,-24v24" style="stroke: black; stroke-width: 1;"></path><g font-family="Arial" font-size="28" space="preserve"><text fill="black" text-anchor="middle" dy=".8em" transform="translate(120,6)">0.5</text><text fill="black" text-anchor="middle" dy=".8em" transform="translate(240,6)">1</text><text fill="black" text-anchor="middle" dy=".8em" transform="translate(360,6)">1.5</text><text fill="black" text-anchor="middle" dy=".8em" transform="translate(480,6)">2</text><text fill="black" text-anchor="middle" dy=".8em" transform="translate(600,6)">2.5</text><text fill="black" text-anchor="middle" dy=".8em" transform="translate(720,6)">3</text><text fill="black" text-anchor="middle" dy=".8em" transform="translate(840,6)">3.5</text><text fill="black" text-anchor="middle" dy=".8em" transform="translate(960,6)">4</text></g><g font-family="Arial" font-size="28" space="preserve" transform="translate(960,45)"><text fill="black" text-anchor="start" transform="translate(-144,11)"><tspan dy="-.10em">p</tspan><tspan font-size="60%" dy=".40em">T</tspan><tspan dy="-.24em"> (GeV/</tspan><tspan font-style="italic">c</tspan><tspan>)</tspan></text></g></g><g><path d="M18,614h-18m18,-25h-18m18,-26h-18m18,-25h-18m36,-26h-36m18,-26h-18m18,-25h-18m18,-26h-18m18,-25h-18m36,-26h-36m18,-26h-18m18,-25h-18m18,-26h-18m18,-25h-18m36,-26h-36m18,-26h-18m18,-25h-18m18,-26h-18m18,-25h-18m36,-26h-36m18,-26h-18m18,-25h-18m18,-26h-18m18,-25h-18m36,-26h-36" style="stroke: black; stroke-width: 1;"></path><g font-family="Arial" font-size="28" space="preserve"><text fill="black" text-anchor="end" dy=".4em" transform="translate(-4,512)">1</text><text fill="black" text-anchor="end" dy=".4em" transform="translate(-4,384)">2</text><text fill="black" text-anchor="end" dy=".4em" transform="translate(-4,256)">3</text><text fill="black" text-anchor="end" dy=".4em" transform="translate(-4,128)">4</text><text fill="black" text-anchor="end" dy=".4em" transform="translate(-4,0)">5</text></g><g font-family="Arial" font-size="28" space="preserve" transform="translate(-67,0)"><text fill="black" text-anchor="start" transform=" rotate(270) translate(-295,8)"><tspan dy="-.60em" dx=".32em">1</tspan><tspan dy="1.20em" dx="-.86em"><tspan>N</tspan><tspan font-size="60%" dy=".40em">ev</tspan></tspan><tspan text-decoration="line-through" dy="-.94em" dx="-1.18em">&nbsp;&nbsp;&nbsp;&nbsp;</tspan><tspan dx=".20em">d</tspan><tspan font-size="60%" dy="-.60em">2</tspan><tspan dy=".36em">N/dp</tspan><tspan font-size="60%" dy=".40em">t</tspan><tspan dy="-.24em">dy (Gev/c)</tspan><tspan font-size="60%" dy="-.60em">-1</tspan></text></g></g></g></g><g objname="title" objtype="TPaveText" transform="translate(336,8)" font-family="Arial" font-size="31" space="preserve"><path d="M0,0h528v40h-528z" style="fill: none;"></path><text fill="black" text-anchor="middle" dy=".4em" transform="translate(264,20)">Entries vs momentum for pions </text></g><g objname="stats" objtype="TPaveStats" transform="translate(936,52)" font-family="Arial" font-size="22" space="preserve"><path d="M0,0h240v128h-240z" style="fill: white; stroke: black; stroke-width: 1;"></path><text fill="black" text-anchor="middle" dy=".4em" transform="translate(120,16)">SpectraPions</text><text fill="black" text-anchor="start" dy=".4em" transform="translate(12,48)">Entries </text><text fill="black" text-anchor="end" dy=".4em" transform="translate(228,48)"> 28717326</text><text fill="black" text-anchor="start" dy=".4em" transform="translate(12,80)">Mean </text><text fill="black" text-anchor="end" dy=".4em" transform="translate(228,80)"> 0.8144</text><text fill="black" text-anchor="start" dy=".4em" transform="translate(12,112)">Std Dev </text><text fill="black" text-anchor="end" dy=".4em" transform="translate(228,112)"> 0.3307</text><path d="M0,32h240" style="stroke: black; stroke-width: 1;"></path></g></g></svg>