<svg xmlns="http://www.w3.org/2000/svg" viewBox="0 0 1200 800" preserveAspectRatio="none" width="1200" height="800">
 <path d="M0,0H1200V800H0Z" style="fill: white;"></path>
 <g>
  <g transform="translate(120,80)">
   <path d="M0,0H960V640H0Z" style="fill: white; stroke: black; stroke-width: 1;"></path>
   <svg x="0" y="0" overflow="hidden" width="960" height="640" viewBox="0 0 960 640">
    <g>
     <path d="M0,204h48v354h48v-294h48v15h48v174h48v-317h48v-106h48v317h96v60h48v-83h48v-135h48v181h48v128h48v113h48v-196h48v-204h48v98h48v-67h48v-98h48" style="stroke-linejoin: miter; stroke: rgb(0, 0, 154); stroke-width: 1; fill: none;"></path>
    </g>
   </svg>
   <g>
    <g transform="translate(0,640)">
     <path d="M0,0h960M0,-19V0M19,-10V0M38,-10V0M58,-10V0M77,-10V0M96,-19V0M115,-10V0M134,-10V0M154,-10V0M173,-10V0M192,-19V0M211,-10V0M230,-10V0M250,-10V0M269,-10V0M288,-19V0M307,-10V0M326,-10V0M346,-10V0M365,-10V0M384,-19V0M403,-10V0M422,-10V0M442,-10V0M461,-10V0M480,-19V0M499,-10V0M518,-10V0M538,-10V0M557,-10V0M576,-19V0M595,-10V0M614,-10V0M634,-10V0M653,-10V0M672,-19V0M691,-10V0M710,-10V0M730,-10V0M749,-10V0M768,-19V0M787,-10V0M806,-10V0M826,-10V0M845,-10V0M864,-19V0M883,-10V0M902,-10V0M922,-10V0M941,-10V0M960,-19V0" style="stroke: black; stroke-width: 1;"></path>
     <g font-family="Arial" font-size="28" xml:space="preserve" fill="black" text-anchor="middle"><text dy=".8em" transform="translate(0,5)">0</text><text dy=".8em" transform="translate(96,5)">1</text><text dy=".8em" transform="translate(192,5)">2</text><text dy=".8em" transform="translate(288,5)">3</text><text dy=".8em" transform="translate(384,5)">4</text><text dy=".8em" transform="translate(480,5)">5</text><text dy=".8em" transform="translate(576,5)">6</text><text dy=".8em" transform="translate(672,5)">7</text><text dy=".8em" transform="translate(768,5)">8</text><text dy=".8em" transform="translate(864,5)">9</text><text dy=".8em" transform="translate(960,5)">10</text></g>
     <g font-family="Arial" font-size="28" xml:space="preserve" transform="translate(960,45)"><text fill="black" text-anchor="end" dominant-baseline="middle">x</text></g>
    </g>
    <g>
     <path d="M0,0v640M15,634H0M29,619H0M15,603H0M15,588H0M15,573H0M15,558H0M29,543H0M15,528H0M15,513H0M15,498H0M15,483H0M29,468H0M15,453H0M15,438H0M15,423H0M15,407H0M29,392H0M15,377H0M15,362H0M15,347H0M15,332H0M29,317H0M15,302H0M15,287H0M15,272H0M15,257H0M29,242H0M15,226H0M15,211H0M15,196H0M15,181H0M29,166H0M15,151H0M15,136H0M15,121H0M15,106H0M29,91H0M15,76H0M15,61H0M15,46H0M15,30H0M29,15H0M15,0H0" style="stroke: black; stroke-width: 1;"></path>
     <g font-family="Arial" font-size="28" xml:space="preserve" fill="black" text-anchor="end"><text dominant-baseline="middle" transform="translate(-6,619)">460</text><text dominant-baseline="middle" transform="translate(-6,543)">470</text><text dominant-baseline="middle" transform="translate(-6,468)">480</text><text dominant-baseline="middle" transform="translate(-6,392)">490</text><text dominant-baseline="middle" transform="translate(-6,317)">500</text><text dominant-baseline="middle" transform="translate(-6,242)">510</text><text dominant-baseline="middle" transform="translate(-6,166)">520</text><text dominant-baseline="middle" transform="translate(-6,91)">530</text><text dominant-baseline="middle" transform="translate(-6,15)">540</text></g>
     <g font-family="Arial" font-size="28" xml:space="preserve" transform="translate(-75)"><g transform="rotate(270) translate(-13,10)"><text fill="black" font-size="28">ε</text></g></g>
    </g>
   </g>
  </g>
  <g transform="translate(936,52)" font-family="Arial" font-size="27" xml:space="preserve" fill="black"><path d="M0,0H240V128H0Z" style="fill: white; stroke: black; stroke-width: 1;"></path><text text-anchor="middle" dominant-baseline="middle" transform="translate(120,16)">eff_total</text><text text-anchor="start" dominant-baseline="middle" transform="translate(12,48)">Entries</text><text text-anchor="end" dominant-baseline="middle" transform="translate(228,48)">10000</text><text text-anchor="start" dominant-baseline="middle" transform="translate(12,80)">Mean</text><text text-anchor="end" dominant-baseline="middle" transform="translate(228,80)">5.000</text><text text-anchor="start" dominant-baseline="middle" transform="translate(12,112)">Std Dev</text><text text-anchor="end" dominant-baseline="middle" transform="translate(228,112)">2.894</text><path d="M0,32h240" style="stroke: black; stroke-width: 1;"></path></g>
  <g transform="translate(120,4)" font-family="Arial" font-size="40" xml:space="preserve"><text fill="black" text-anchor="middle" dy=".8em" transform="translate(480)">my efficiency (total)</text></g>
 </g>
</svg>