<svg xmlns="http://www.w3.org/2000/svg" viewBox="0 0 1200 800" preserveAspectRatio="none" width="1200" height="800">
 <path d="M0,0H1200V800H0Z" style="fill: white;"></path>
 <g>
  <g transform="translate(120,80)">
   <path d="M0,0H960V640H0Z" style="fill: white; stroke: black; stroke-width: 1;"></path>
   <svg x="0" y="0" overflow="hidden" width="960" height="640" viewBox="0 0 960 640">
    <g>
     <path d="M16,533v87h65v-87zM27,420v55h42v-55zM48,320v1h1v-1zM6,137v111h83v-111zM22,29v69h52v-69zM96,512v128h96v-128zM115,410v76h57v-76zM98,258v124h93v-124zM104,139v106h80v-106zM111,20v89h66v-89zM197,518v115h87v-115zM200,395v106h80v-106zM203,271v98h73v-98zM216,160v64h48v-64zM203,14v99h75v-99zM291,516v120h90v-120zM305,407v83h62v-83zM292,262v117h88v-117zM313,161v61h46v-61zM293,6v115h87v-115zM391,521v109h82v-109zM406,413v69h52v-69zM395,270v99h75v-99zM405,156v72h54v-72zM397,17v94h71v-94zM508,550v52h39v-52zM499,410v76h57v-76zM489,268v105h78v-105zM502,157v69h52v-69zM498,24v81h60v-81zM592,533v87h65v-87zM577,385v127h95v-127zM588,272v96h72v-96zM594,152v81h60v-81zM577,1v125h94v-125zM677,518v115h87v-115zM686,403v91h68v-91zM695,287v67h50v-67zM690,152v81h60v-81zM695,31v67h50v-67zM783,532v89h66v-89zM772,390v117h88v-117zM784,277v87h65v-87zM787,154v76h57v-76zM798,40v49h37v-49zM872,523v106h80v-106zM870,392v112h84v-112zM877,274v92h69v-92zM892,166v52h39v-52zM881,23v83h62v-83z" style="fill: none; stroke: #00009a; stroke-width: 1;"></path>
    </g>
   </svg>
   <g>
    <g transform="translate(0,640)">
     <path d="M0,0h960M0,-19V0M19,-10V0M38,-10V0M58,-10V0M77,-10V0M96,-19V0M115,-10V0M134,-10V0M154,-10V0M173,-10V0M192,-19V0M211,-10V0M230,-10V0M250,-10V0M269,-10V0M288,-19V0M307,-10V0M326,-10V0M346,-10V0M365,-10V0M384,-19V0M403,-10V0M422,-10V0M442,-10V0M461,-10V0M480,-19V0M499,-10V0M518,-10V0M538,-10V0M557,-10V0M576,-19V0M595,-10V0M614,-10V0M634,-10V0M653,-10V0M672,-19V0M691,-10V0M710,-10V0M730,-10V0M749,-10V0M768,-19V0M787,-10V0M806,-10V0M826,-10V0M845,-10V0M864,-19V0M883,-10V0M902,-10V0M922,-10V0M941,-10V0M960,-19V0" style="stroke: black; stroke-width: 1;"></path>
     <g font-family="Arial" font-size="28" space="preserve" fill="black" text-anchor="middle">
      <text dy=".8em" transform="translate(0,5)">
       0
      </text>
      <text dy=".8em" transform="translate(96,5)">
       1
      </text>
      <text dy=".8em" transform="translate(192,5)">
       2
      </text>
      <text dy=".8em" transform="translate(288,5)">
       3
      </text>
      <text dy=".8em" transform="translate(384,5)">
       4
      </text>
      <text dy=".8em" transform="translate(480,5)">
       5
      </text>
      <text dy=".8em" transform="translate(576,5)">
       6
      </text>
      <text dy=".8em" transform="translate(672,5)">
       7
      </text>
      <text dy=".8em" transform="translate(768,5)">
       8
      </text>
      <text dy=".8em" transform="translate(864,5)">
       9
      </text>
      <text dy=".8em" transform="translate(960,5)">
       10
      </text>
     </g>
     <g font-family="Arial" font-size="28" space="preserve" transform="translate(960,45)">
      <text fill="black" text-anchor="end" dy=".4em">
       x
      </text>
     </g>
    </g>
    <g>
     <path d="M0,0v640M29,640H0M15,627H0M15,614H0M15,602H0M15,589H0M29,576H0M15,563H0M15,550H0M15,538H0M15,525H0M29,512H0M15,499H0M15,486H0M15,474H0M15,461H0M29,448H0M15,435H0M15,422H0M15,410H0M15,397H0M29,384H0M15,371H0M15,358H0M15,346H0M15,333H0M29,320H0M15,307H0M15,294H0M15,282H0M15,269H0M29,256H0M15,243H0M15,230H0M15,218H0M15,205H0M29,192H0M15,179H0M15,166H0M15,154H0M15,141H0M29,128H0M15,115H0M15,102H0M15,90H0M15,77H0M29,64H0M15,51H0M15,38H0M15,26H0M15,13H0M29,0H0" style="stroke: black; stroke-width: 1;"></path>
     <g font-family="Arial" font-size="28" space="preserve" fill="black" text-anchor="end">
      <text dy=".4em" transform="translate(-6,640)">
       0
      </text>
      <text dy=".4em" transform="translate(-6,576)">
       0.5
      </text>
      <text dy=".4em" transform="translate(-6,512)">
       1
      </text>
      <text dy=".4em" transform="translate(-6,448)">
       1.5
      </text>
      <text dy=".4em" transform="translate(-6,384)">
       2
      </text>
      <text dy=".4em" transform="translate(-6,320)">
       2.5
      </text>
      <text dy=".4em" transform="translate(-6,256)">
       3
      </text>
      <text dy=".4em" transform="translate(-6,192)">
       3.5
      </text>
      <text dy=".4em" transform="translate(-6,128)">
       4
      </text>
      <text dy=".4em" transform="translate(-6,64)">
       4.5
      </text>
      <text dy=".4em" transform="translate(-6)">
       5
      </text>
     </g>
     <g font-family="Arial" font-size="28" space="preserve" transform="translate(-78)">
      <text fill="black" text-anchor="end" dy=".4em" transform="rotate(270)">
       y
      </text>
     </g>
    </g>
   </g>
  </g>
  <g transform="translate(936,52)" font-family="Arial" font-size="22" space="preserve" fill="black">
   <path d="M0,0H240V192H0Z" style="fill: white; stroke: black; stroke-width: 1;"></path>
   <text text-anchor="middle" dy=".4em" transform="translate(120,16)">
    eff2D_total
   </text>
   <text text-anchor="start" dy=".4em" transform="translate(12,48)">
    Entries
   </text>
   <text text-anchor="end" dy=".4em" transform="translate(228,48)">
    10000
   </text>
   <text text-anchor="start" dy=".4em" transform="translate(12,80)">
    Mean x
   </text>
   <text text-anchor="end" dy=".4em" transform="translate(228,80)">
    4.991
   </text>
   <text text-anchor="start" dy=".4em" transform="translate(12,112)">
    Mean y
   </text>
   <text text-anchor="end" dy=".4em" transform="translate(228,112)">
    2.479
   </text>
   <text text-anchor="start" dy=".4em" transform="translate(12,144)">
    Std Dev x
   </text>
   <text text-anchor="end" dy=".4em" transform="translate(228,144)">
    2.880
   </text>
   <text text-anchor="start" dy=".4em" transform="translate(12,176)">
    Std Dev y
   </text>
   <text text-anchor="end" dy=".4em" transform="translate(228,176)">
    1.446
   </text>
   <path d="M0,32h240" style="stroke: black; stroke-width: 1;"></path>
  </g>
  <g transform="translate(120,4)" font-family="Arial" font-size="40" space="preserve">
   <text fill="black" text-anchor="middle" dy=".8em" transform="translate(480)">
    my 2D efficiency (total)
   </text>
  </g>
 </g>
</svg>