<svg xmlns="http://www.w3.org/2000/svg" viewBox="0 0 598 375" preserveAspectRatio="none" width="598" height="375">
 <path d="M0,0H598V375H0Z" style="fill: white;"></path>
 <g>
  <g transform="translate(60,38)">
   <path d="M0,0H478V300H0Z" style="fill: white; stroke: black; stroke-width: 1;"></path>
   <svg x="0" y="0" overflow="hidden" width="478" height="300" viewBox="0 0 478 300">
    <g>
     <g transform="translate(11,263)">
      <path style="stroke: black; stroke-width: 1; fill: none;" d="M0,0H-11m0,3v-6M0,0H11m0,3v-6M0,0V11m3,0h-6M0,0V-11m3,0h-6"></path>
     </g>
     <g transform="translate(33,213)">
      <path style="stroke: black; stroke-width: 1; fill: none;" d="M0,0H-11m0,3v-6M0,0H11m0,3v-6M0,0V11m3,0h-6M0,0V-11m3,0h-6"></path>
     </g>
     <g transform="translate(54,166)">
      <path style="stroke: black; stroke-width: 1; fill: none;" d="M0,0H-11m0,3v-6M0,0H11m0,3v-6M0,0V10m3,0h-6M0,0V-10m3,0h-6"></path>
     </g>
     <g transform="translate(76,149)">
      <path style="stroke: black; stroke-width: 1; fill: none;" d="M0,0H-11m0,3v-6M0,0H11m0,3v-6M0,0V10m3,0h-6M0,0V-10m3,0h-6"></path>
     </g>
     <g transform="translate(98,117)">
      <path style="stroke: black; stroke-width: 1; fill: none;" d="M0,0H-11m0,3v-6M0,0H11m0,3v-6M0,0V9m3,0h-6M0,0V-9m3,0h-6"></path>
     </g>
     <g transform="translate(120,100)">
      <path style="stroke: black; stroke-width: 1; fill: none;" d="M0,0H-11m0,3v-6M0,0H11m0,3v-6M0,0V8m3,0h-6M0,0V-8m3,0h-6"></path>
     </g>
     <g transform="translate(141,66)">
      <path style="stroke: black; stroke-width: 1; fill: none;" d="M0,0H-11m0,3v-6M0,0H11m0,3v-6M0,0V7m3,0h-6M0,0V-6m3,0h-6"></path>
     </g>
     <g transform="translate(163,51)">
      <path style="stroke: black; stroke-width: 1; fill: none;" d="M0,0H-11m0,3v-6M0,0H11m0,3v-6M0,0V6m3,0h-6M0,0V-5m3,0h-6"></path>
     </g>
     <g transform="translate(185,33)">
      <path style="stroke: black; stroke-width: 1; fill: none;" d="M0,0H-11m0,3v-6M0,0H11m0,3v-6M0,0V4m3,0h-6M0,0V-3m3,0h-6"></path>
     </g>
     <g transform="translate(206,27)">
      <path style="stroke: black; stroke-width: 1; fill: none;" d="M0,0H-11m0,3v-6M0,0H11m0,3v-6M0,0V3m3,0h-6M0,0V-1m3,0h-6"></path>
     </g>
     <g transform="translate(228,26)">
      <path style="stroke: black; stroke-width: 1; fill: none;" d="M0,0H-11m0,3v-6M0,0H11m0,3v-6M0,0V2m3,0h-6M0,0V-1m3,0h-6"></path>
     </g>
     <g transform="translate(250,29)">
      <path style="stroke: black; stroke-width: 1; fill: none;" d="M0,0H-11m0,3v-6M0,0H11m0,3v-6M0,0V3m3,0h-6M0,0V-2m3,0h-6"></path>
     </g>
     <g transform="translate(272,50)">
      <path style="stroke: black; stroke-width: 1; fill: none;" d="M0,0H-11m0,3v-6M0,0H11m0,3v-6M0,0V6m3,0h-6M0,0V-5m3,0h-6"></path>
     </g>
     <g transform="translate(293,65)">
      <path style="stroke: black; stroke-width: 1; fill: none;" d="M0,0H-11m0,3v-6M0,0H11m0,3v-6M0,0V7m3,0h-6M0,0V-6m3,0h-6"></path>
     </g>
     <g transform="translate(315,86)">
      <path style="stroke: black; stroke-width: 1; fill: none;" d="M0,0H-11m0,3v-6M0,0H11m0,3v-6M0,0V8m3,0h-6M0,0V-8m3,0h-6"></path>
     </g>
     <g transform="translate(337,134)">
      <path style="stroke: black; stroke-width: 1; fill: none;" d="M0,0H-11m0,3v-6M0,0H11m0,3v-6M0,0V10m3,0h-6M0,0V-9m3,0h-6"></path>
     </g>
     <g transform="translate(359,148)">
      <path style="stroke: black; stroke-width: 1; fill: none;" d="M0,0H-11m0,3v-6M0,0H11m0,3v-6M0,0V10m3,0h-6M0,0V-9m3,0h-6"></path>
     </g>
     <g transform="translate(380,186)">
      <path style="stroke: black; stroke-width: 1; fill: none;" d="M0,0H-11m0,3v-6M0,0H11m0,3v-6M0,0V11m3,0h-6M0,0V-10m3,0h-6"></path>
     </g>
     <g transform="translate(402,236)">
      <path style="stroke: black; stroke-width: 1; fill: none;" d="M0,0H-11m0,3v-6M0,0H11m0,3v-6M0,0V11m3,0h-6M0,0V-11m3,0h-6"></path>
     </g>
     <g transform="translate(424,264)">
      <path style="stroke: black; stroke-width: 1; fill: none;" d="M0,0H-11m0,3v-6M0,0H11m0,3v-6M0,0V11m3,0h-6M0,0V-11m3,0h-6"></path>
     </g>
     <path d="M11,263h1M33,213h1M54,166h1M76,149h1M98,117h1m21,-17h1M141,66h1M163,51h1M185,33h1m20,-6h1m21,-1h1m21,3h1m21,21h1m20,15h1m21,21h1m21,48h1m21,14h1m20,38h1m21,50h1m21,28h1" style="stroke: black; fill: none;"></path>
    </g>
    <g>
     <path d="M2,120.36C2.9,120.36,4.7,120.36,6.5,120.36S9.3,120.36,11,120.36S13.3,120.36,15,120.36S17.7,120.36,19.5,120.36S22.3,120.36,24,120.36S26.3,120.36,28,120.36S30.7,120.36,32.5,120.36S35.3,120.36,37,120.36S39.3,120.36,41,120.36S43.7,120.36,45.5,120.36S48.3,120.36,50,120.36S52.3,120.36,54,120.36S56.7,120.36,58.5,120.36S61.2,120.36,63,120.36S65.7,120.36,67.5,120.36S70.3,120.36,72,120.36S74.3,120.36,76,120.36S78.7,120.36,80.5,120.36S83.3,120.36,85,120.36S87.3,120.36,89,120.36S91.7,120.36,93.5,120.36S96.3,120.36,98,120.36S100.3,120.36,102,120.36S104.7,120.36,106.5,120.36S109.3,120.36,111,120.36S113.3,120.36,115,120.36S117.7,120.36,119.5,120.36S122.3,120.36,124,120.36S126.3,120.36,128,120.36S130.7,120.36,132.5,120.36S135.3,120.36,137,120.36S139.3,120.36,141,120.36S143.7,120.36,145.5,120.36S148.3,120.36,150,120.36S152.3,120.36,154,120.36S156.7,120.36,158.5,120.36S161.3,120.36,163,120.36S165.3,120.36,167,120.36S169.7,120.36,171.5,120.36S174.2,120.36,176,120.36S178.7,120.36,180.5,120.36S183.3,120.36,185,120.36S187.3,120.36,189,120.36S191.7,120.36,193.5,120.36S196.3,120.36,198,120.36S200.3,120.36,202,120.36S204.7,120.36,206.5,120.36S209.3,120.36,211,120.36S213.3,120.36,215,120.36S217.7,120.36,219.5,120.36S222.3,120.36,224,120.36S226.3,120.36,228,120.36S230.7,120.36,232.5,120.36S235.3,120.36,237,120.36S239.3,120.36,241,120.36S243.7,120.36,245.5,120.36S248.3,120.36,250,120.36S252.3,120.36,254,120.36S256.7,120.36,258.5,120.36S261.3,120.36,263,120.36S265.3,120.36,267,120.36S269.7,120.36,271.5,120.36S274.3,120.36,276,120.36S278.3,120.36,280,120.36S282.7,120.36,284.5,120.36S287.3,120.36,289,120.36S291.3,120.36,293,120.36S295.7,120.36,297.5,120.36S300.2,120.36,302,120.36S304.7,120.36,306.5,120.36S309.3,120.36,311,120.36S313.3,120.36,315,120.36S317.7,120.36,319.5,120.36S322.3,120.36,324,120.36S326.3,120.36,328,120.36S330.7,120.36,332.5,120.36S335.3,120.36,337,120.36S339.3,120.36,341,120.36S343.7,120.36,345.5,120.36S348.3,120.36,350,120.36S352.3,120.36,354,120.36S356.7,120.36,358.5,120.36S361.3,120.36,363,120.36S365.3,120.36,367,120.36S369.7,120.36,371.5,120.36S374.3,120.36,376,120.36S378.3,120.36,380,120.36S382.7,120.36,384.5,120.36S387.3,120.36,389,120.36S391.3,120.36,393,120.36S395.7,120.36,397.5,120.36S400.3,120.36,402,120.36S404.3,120.36,406,120.36S408.7,120.36,410.5,120.36S413.2,120.36,415,120.36S417.7,120.36,419.5,120.36S422.3,120.36,424,120.36S426.3,120.36,428,120.36S431.6,120.36,432.5,120.36" style="fill: none; stroke: #ff0000; stroke-width: 2;"></path>
    </g>
    <g>
     <path d="M2,270.15C2.9,268.79,4.7,266.08,6.5,263.35S9.3,259.25,11,256.49S13.3,252.36,15,249.59S17.7,245.43,19.5,242.65S22.3,238.47,24,235.67S26.3,231.48,28,228.67S30.7,224.46,32.5,221.65S35.3,217.43,37,214.62S39.3,210.4,41,207.59S43.7,203.37,45.5,200.57S48.3,196.36,50,193.56S52.3,189.36,54,186.57S56.7,182.39,58.5,179.62S61.2,175.46,63,172.71S65.7,168.58,67.5,165.85S70.3,161.75,72,159.04S74.3,154.99,76,152.31S78.7,148.3,80.5,145.66S83.3,141.7,85,139.1S87.3,135.2,89,132.63S91.7,128.79,93.5,126.27S96.3,122.5,98,120.03S100.3,116.33,102,113.91S104.7,110.29,106.5,107.93S109.3,104.39,111,102.09S113.3,98.65,115,96.4S117.7,93.06,119.5,90.88S122.3,87.64,124,85.53S126.3,82.39,128,80.36S130.7,77.33,132.5,75.38S135.3,72.46,137,70.59S139.3,67.8,141,66.01S143.7,63.34,145.5,61.63S148.3,59.1,150,57.48S152.3,55.08,154,53.55S156.7,51.29,158.5,49.86S161.3,47.74,163,46.4S165.3,44.43,167,43.19S169.7,41.37,171.5,40.23S174.2,38.56,176,37.53S178.7,36.01,180.5,35.09S183.3,33.72,185,32.91S187.3,31.7,189,30.99S191.7,29.95,193.5,29.35S196.3,28.48,198,27.99S200.3,27.28,202,26.9S204.7,26.36,206.5,26.09S209.3,25.71,211,25.56S213.3,25.35,215,25.31S217.7,25.27,219.5,25.34S222.3,25.47,224,25.66S226.3,25.96,228,26.25S230.7,26.72,232.5,27.13S235.3,27.76,237,28.28S239.3,29.08,241,29.71S243.7,30.68,245.5,31.41S248.3,32.55,250,33.39S252.3,34.68,254,35.63S256.7,37.08,258.5,38.14S261.3,39.75,263,40.9S265.3,42.66,267,43.92S269.7,45.83,271.5,47.19S274.3,49.25,276,50.7S278.3,52.9,280,54.45S282.7,56.79,284.5,58.43S287.3,60.91,289,62.63S291.3,65.24,293,67.06S295.7,69.79,297.5,71.69S300.2,74.55,302,76.52S304.7,79.5,306.5,81.55S309.3,84.64,311,86.76S313.3,89.96,315,92.15S317.7,95.46,319.5,97.72S322.3,101.12,324,103.44S326.3,106.93,328,109.31S330.7,112.89,332.5,115.32S335.3,118.99,337,121.47S339.3,125.21,341,127.74S343.7,131.55,345.5,134.13S348.3,138,350,140.62S352.3,144.55,354,147.2S356.7,151.19,358.5,153.88S361.3,157.91,363,160.62S365.3,164.7,367,167.44S369.7,171.55,371.5,174.31S374.3,178.46,376,181.24S378.3,185.41,380,188.2S382.7,192.39,384.5,195.19S387.3,199.39,389,202.2S391.3,206.42,393,209.23S395.7,213.45,397.5,216.26S400.3,220.48,402,223.29S404.3,227.5,406,230.31S408.7,234.51,410.5,237.3S413.2,241.49,415,244.27S417.7,248.44,419.5,251.2S422.3,255.35,424,258.1S426.3,262.21,428,264.94S431.56,270.4,432.5,271.73" style="fill: none; stroke: red; stroke-width: 2;"></path>
    </g>
   </svg>
   <g>
    <g transform="translate(0,300)">
     <path d="M0,0h478M0,-11V0M22,-6V0M43,-6V0M65,-6V0M87,-11V0M109,-6V0M130,-6V0M152,-6V0M174,-11V0M196,-6V0M217,-6V0M239,-6V0M261,-11V0M282,-6V0M304,-6V0M326,-6V0M348,-11V0M369,-6V0M391,-6V0M413,-6V0M435,-11V0M456,-6V0M478,-6V0" style="stroke: black; stroke-width: 1;"></path>
     <g font-family="Arial" font-size="13" space="preserve" fill="black" text-anchor="middle">
      <text dy=".8em" transform="translate(0,3)">
       0
      </text>
      <text dy=".8em" transform="translate(87,3)">
       2
      </text>
      <text dy=".8em" transform="translate(174,3)">
       4
      </text>
      <text dy=".8em" transform="translate(261,3)">
       6
      </text>
      <text dy=".8em" transform="translate(348,3)">
       8
      </text>
      <text dy=".8em" transform="translate(435,3)">
       10
      </text>
     </g>
    </g>
    <g>
     <path d="M0,0v300M9,292H0M9,283H0M9,273H0M18,264H0M9,254H0M9,245H0M9,235H0M9,225H0M18,216H0M9,206H0M9,197H0M9,187H0M9,178H0M18,168H0M9,159H0M9,149H0M9,139H0M9,130H0M18,120H0M9,111H0M9,101H0M9,92H0M9,82H0M18,73H0M9,63H0M9,53H0M9,44H0M9,34H0M18,25H0M9,15H0M9,6H0" style="stroke: black; stroke-width: 1;"></path>
     <g font-family="Arial" font-size="13" space="preserve" fill="black" text-anchor="end">
      <text dy=".4em" transform="translate(-3,264)">
       0.5
      </text>
      <text dy=".4em" transform="translate(-3,216)">
       0.6
      </text>
      <text dy=".4em" transform="translate(-3,168)">
       0.7
      </text>
      <text dy=".4em" transform="translate(-3,120)">
       0.8
      </text>
      <text dy=".4em" transform="translate(-3,73)">
       0.9
      </text>
      <text dy=".4em" transform="translate(-3,25)">
       1
      </text>
     </g>
    </g>
   </g>
  </g>
  <g transform="translate(60,2)" font-family="Arial" font-size="19" space="preserve">
   <text fill="black" text-anchor="middle" dy=".8em" transform="translate(239)">
    my efficiency
   </text>
  </g>
 </g>
</svg>