<svg xmlns="http://www.w3.org/2000/svg" viewBox="0 0 1200 800" preserveAspectRatio="none" width="1200" height="800">
 <defs>
  <pattern id="pat_3004_632" patternUnits="userSpaceOnUse" width="8" height="8">
   <path d="M8,0L0,8" style="stroke: #ff0000; stroke-width: 1;"></path>
  </pattern>
  <pattern id="pat_3005_600" patternUnits="userSpaceOnUse" width="8" height="8">
   <path d="M0,0L8,8" style="stroke: #0000ff; stroke-width: 1;"></path>
  </pattern>
 </defs>
 <path d="M0,0H1200V800H0Z" style="fill: white;"></path>
 <g>
  <svg viewBox="0 0 576 784" preserveAspectRatio="none" x="12" y="8" width="576" height="784">
   <path d="M0,0H576V784H0Z" style="fill: white;"></path>
   <g>
    <g transform="translate(58,78)">
     <path d="M0,0H461V627H0Z" style="fill: white; stroke: black; stroke-width: 1;"></path>
     <svg x="0" y="0" overflow="hidden" width="461" height="627" viewBox="0 0 461 627">
      <g>
       <path d="M10.48,545.3C13.89,545.81,28.61,557.27,31.43,553.84S52.18,409.25,52.39,408.08S73.14,313.15,73.34,312S93,164.24,94.3,161.52S111.13,220.9,115.25,224.34S133.1,218.06,136.2,214.59S150.42,151.91,157.16,153.2S176.44,225.61,178.11,222.63S195.82,81.93,199.07,78.45S213.04,85.91,220.02,85.94S234.5,82.19,240.98,84S260.28,195.09,261.93,198.06S276.16,160.64,282.89,159.32S303.38,188.05,303.84,189.79S323.74,314.34,324.8,316.84S342.63,331.67,345.75,335.14S366.5,383.77,366.7,384.96S386.99,572.69,387.66,574.75S408.25,514.27,408.61,513.2L408.61,385.81C407.84,387.26,388.3,427.16,387.66,425.14S366.98,255.83,366.7,254.47S347.81,221.5,345.75,218.31S325.51,191.86,324.8,189.74S304.95,96.74,303.84,94.19S289.21,75.89,282.89,77.93S267.01,112.95,261.93,109.83S247.96,52.25,240.98,52.25S227.01,52.25,220.02,52.25S206.05,52.25,199.07,52.25S183.36,101.79,178.11,104.81S163.62,74.57,157.16,76.41S142.04,114.12,136.2,116.71S121.34,123.13,115.25,120.8S96.55,75.21,94.3,78.48S73.64,180.05,73.34,181.46S52.61,276.44,52.39,277.68S33.76,407.74,31.43,411.04S13.8,401.79,10.48,401.03Z" style="fill: url(#pat_3004_632);"></path>
       <path d="M10,473h1m20,9h1M52,339h1M73,240h1M94,109h1m20,55h1m20,-6h1m20,-53h1m20,47h1M199,52h1m20,0h1m20,0h1m20,95h1m20,-39h1m20,24h1m20,115h1m20,25h1m20,44h1m20,184h1m20,-51h1" style="stroke: black; fill: none;"></path>
      </g>
      <g>
       <path d="M10.48,585.61C13.91,586.06,28.38,597.05,31.43,593.59S52.18,448.69,52.39,447.51S73.16,354.96,73.34,353.84S93.14,195.24,94.3,192.64S111.61,256.38,115.25,259.87S133.7,251.74,136.2,248.39S151.02,179.86,157.16,182.15S176.81,266.71,178.11,263.99S197.28,97.53,199.07,94.48S213.04,106.32,220.02,106.42S235.14,100.74,240.98,103.33S260.6,226.1,261.93,228.84S275.99,190.63,282.89,189.86S303.43,222.5,303.84,224.14S323.27,354.51,324.8,357.39S341.75,368.47,345.75,371.93S366.5,423.72,366.7,424.89S386.95,613.54,387.66,615.64S408.29,550.86,408.61,549.85L408.61,351.16C407.61,352.74,388.34,386.31,387.66,384.24S367.05,224.65,366.7,223.13S348.16,194.38,345.75,191.06S325.67,164.65,324.8,162.35S305.58,82.97,303.84,79.95S289.43,65.99,282.89,67.7S268.08,96.46,261.93,94.19S247.96,52.25,240.98,52.25S227.01,52.25,220.02,52.25S206.05,52.25,199.07,52.25S184.35,84.88,178.11,87.04S163.6,64.9,157.16,66.78S142.52,97.2,136.2,99.25S121.71,104.11,115.25,102.27S97.06,64.61,94.3,68.03S73.71,152.56,73.34,154.12S52.64,244.14,52.39,245.44S33.74,368.85,31.43,372.13S13.77,362.85,10.48,362.04Z" style="fill: url(#pat_3005_600);"></path>
       <path d="M10,473h1m20,9h1M52,339h1M73,240h1M94,109h1m20,55h1m20,-6h1m20,-53h1m20,47h1M199,52h1m20,0h1m20,0h1m20,95h1m20,-39h1m20,24h1m20,115h1m20,25h1m20,44h1m20,184h1m20,-51h1" style="stroke: black; fill: none;"></path>
      </g>
     </svg>
     <g>
      <g transform="translate(0,627)">
       <path d="M0,0h461M0,-24V0M21,-12V0M42,-12V0M63,-12V0M84,-24V0M105,-12V0M126,-12V0M147,-12V0M168,-24V0M189,-12V0M210,-12V0M231,-12V0M251,-24V0M272,-12V0M293,-12V0M314,-12V0M335,-24V0M356,-12V0M377,-12V0M398,-12V0M419,-24V0M440,-12V0M461,-12V0" style="stroke: black; stroke-width: 1;"></path>
       <g font-family="Arial" font-size="20" space="preserve" fill="black" text-anchor="middle">
        <text dy=".8em" transform="translate(0,5)">
         0
        </text>
        <text dy=".8em" transform="translate(84,5)">
         2
        </text>
        <text dy=".8em" transform="translate(168,5)">
         4
        </text>
        <text dy=".8em" transform="translate(251,5)">
         6
        </text>
        <text dy=".8em" transform="translate(335,5)">
         8
        </text>
        <text dy=".8em" transform="translate(419,5)">
         10
        </text>
       </g>
      </g>
      <g>
       <path d="M0,0v627M9,625H0M9,607H0M17,589H0M9,572H0M9,554H0M9,536H0M9,518H0M17,500H0M9,482H0M9,464H0M9,446H0M9,428H0M17,410H0M9,392H0M9,375H0M9,357H0M9,339H0M17,321H0M9,303H0M9,285H0M9,267H0M9,249H0M17,231H0M9,213H0M9,196H0M9,178H0M9,160H0M17,142H0M9,124H0M9,106H0M9,88H0M9,70H0M17,52H0M9,34H0M9,16H0" style="stroke: black; stroke-width: 1;"></path>
       <g font-family="Arial" font-size="20" space="preserve" fill="black" text-anchor="end">
        <text dy=".4em" transform="translate(-3,589)">
         0.4
        </text>
        <text dy=".4em" transform="translate(-3,500)">
         0.5
        </text>
        <text dy=".4em" transform="translate(-3,410)">
         0.6
        </text>
        <text dy=".4em" transform="translate(-3,321)">
         0.7
        </text>
        <text dy=".4em" transform="translate(-3,231)">
         0.8
        </text>
        <text dy=".4em" transform="translate(-3,142)">
         0.9
        </text>
        <text dy=".4em" transform="translate(-3,52)">
         1
        </text>
       </g>
      </g>
     </g>
    </g>
    <g transform="translate(58,4)" font-family="Arial" font-size="25" space="preserve">
     <text fill="black" text-anchor="middle" dy=".8em" transform="translate(231,3)">
      different confidence levels
     </text>
    </g>
    <g transform="translate(173,392)" font-family="Arial" font-size="54" space="preserve">
     <path d="M0,0H230V314H0Z" style="fill: white; stroke: black; stroke-width: 1;"></path>
     <path d="M7,24v118h44v-118z" style="fill: url(#pat_3004_632); stroke: black; stroke-width: 1;"></path>
     <text fill="black" text-anchor="start" dy=".4em" transform="translate(58,83)">
      95%
     </text>
     <path d="M7,172v118h44v-118z" style="fill: url(#pat_3005_600); stroke: black; stroke-width: 1;"></path>
     <text fill="black" text-anchor="start" dy=".4em" transform="translate(58,231)">
      68.3%
     </text>
    </g>
   </g>
  </svg>
  <svg viewBox="0 0 576 784" preserveAspectRatio="none" x="612" y="8" width="576" height="784">
   <path d="M0,0H576V784H0Z" style="fill: white;"></path>
   <g>
    <g transform="translate(58,78)">
     <path d="M0,0H461V627H0Z" style="fill: white; stroke: black; stroke-width: 1;"></path>
     <svg x="0" y="0" overflow="hidden" width="461" height="627" viewBox="0 0 461 627">
      <g>
       <path d="M10.48,544.66C13.88,545.22,28.81,557.12,31.43,553.74S52.2,403.88,52.39,402.76S73.16,300.46,73.34,299.37S93.05,145.53,94.3,142.85S110.99,206.16,115.25,209.56S132.8,203.97,136.2,200.48S150.18,135.72,157.16,135.83S176.71,203.94,178.11,201.14S192.08,52.25,199.07,52.25S213.04,52.25,220.02,52.25S233.99,52.25,240.98,52.25S260.66,182.44,261.93,185.14S276.54,143,282.89,140.99S303.42,170.17,303.84,171.84S324.05,303.46,324.8,305.62S343.26,324.51,345.75,327.86S366.51,377.06,366.7,378.22S387.05,572.77,387.66,574.75S408.25,514.34,408.61,513.27L408.61,397.44C407.94,398.81,388.27,442.44,387.66,440.47S366.96,263.31,366.7,262S347.71,227.15,345.75,224.01S325.46,196.89,324.8,194.85S304.84,97.02,303.84,94.57S289.13,75.21,282.89,77.35S267.07,114.17,261.93,111.1S247.96,52.25,240.98,52.25S227.01,52.25,220.02,52.25S206.05,52.25,199.07,52.25S183.42,102.76,178.11,105.74S163.57,73.89,157.16,75.82S141.94,115.63,136.2,118.31S121.26,125.04,115.25,122.62S96.4,74.7,94.3,77.91S73.61,185.01,73.34,186.37S52.6,284.79,52.39,285.98S33.69,421.78,31.43,425.05S13.79,415.57,10.48,414.8Z" style="fill: url(#pat_3004_632);"></path>
       <path d="M10,480h1m20,9h1M52,344h1M73,243h1M94,110h1m20,56h1m20,-7h1m20,-53h1m20,47h1M199,52h1m20,0h1m20,0h1m20,96h1m20,-39h1m20,24h1m20,117h1m20,26h1m20,44h1m20,188h1m20,-53h1" style="stroke: black; fill: none;"></path>
      </g>
      <g>
       <path d="M10.48,544.57C13.88,545.12,28.74,556.87,31.43,553.47S52.19,406.54,52.39,405.4S73.15,306.5,73.34,305.37S93.01,155.54,94.3,152.83S111.04,213.77,115.25,217.19S132.92,211.34,136.2,207.86S150.24,144.52,157.16,145.19S176.47,214.91,178.11,211.95S194.42,72.96,199.07,69.66S213.04,74.61,220.02,74.62S234.22,72.09,240.98,73.33S260.35,189.11,261.93,192.04S276.34,152.5,282.89,150.81S303.39,179.52,303.84,181.23S323.94,308.75,324.8,311.04S343.04,328.31,345.75,331.71S366.5,380.31,366.7,381.48S387.02,572.02,387.66,574.03S408.24,514.74,408.61,513.66L408.61,398.74C407.93,400.12,388.29,443.19,387.66,441.19S366.96,267.27,366.7,265.95S347.78,231.32,345.75,228.15S325.48,202.46,324.8,200.38S304.8,103.85,303.84,101.45S289.2,81.74,282.89,83.79S266.39,119.95,261.93,116.59S247.96,52.25,240.98,52.25S227.01,52.25,220.02,52.25S206.05,52.25,199.07,52.25S182.77,110.78,178.11,114.08S163.75,80.29,157.16,81.9S141.78,121.52,136.2,124.32S121.16,131.45,115.25,128.93S96.42,81.27,94.3,84.48S73.62,191.02,73.34,192.39S52.6,288.17,52.39,289.39S33.75,422.75,31.43,426.04S13.8,416.75,10.48,416.01Z" style="fill: url(#pat_3005_600);"></path>
       <path d="M10,480h1m20,9h1M52,344h1M73,243h1M94,110h1m20,56h1m20,-7h1m20,-53h1m20,47h1M199,52h1m20,0h1m20,0h1m20,96h1m20,-39h1m20,24h1m20,117h1m20,26h1m20,44h1m20,188h1m20,-53h1" style="stroke: black; fill: none;"></path>
      </g>
     </svg>
     <g>
      <g transform="translate(0,627)">
       <path d="M0,0h461M0,-24V0M21,-12V0M42,-12V0M63,-12V0M84,-24V0M105,-12V0M126,-12V0M147,-12V0M168,-24V0M189,-12V0M210,-12V0M231,-12V0M251,-24V0M272,-12V0M293,-12V0M314,-12V0M335,-24V0M356,-12V0M377,-12V0M398,-12V0M419,-24V0M440,-12V0M461,-12V0" style="stroke: black; stroke-width: 1;"></path>
       <g font-family="Arial" font-size="20" space="preserve" fill="black" text-anchor="middle">
        <text dy=".8em" transform="translate(0,5)">
         0
        </text>
        <text dy=".8em" transform="translate(84,5)">
         2
        </text>
        <text dy=".8em" transform="translate(168,5)">
         4
        </text>
        <text dy=".8em" transform="translate(251,5)">
         6
        </text>
        <text dy=".8em" transform="translate(335,5)">
         8
        </text>
        <text dy=".8em" transform="translate(419,5)">
         10
        </text>
       </g>
      </g>
      <g>
       <path d="M0,0v627M9,617H0M17,599H0M9,580H0M9,562H0M9,544H0M9,526H0M17,508H0M9,489H0M9,471H0M9,453H0M9,435H0M17,417H0M9,398H0M9,380H0M9,362H0M9,344H0M17,325H0M9,307H0M9,289H0M9,271H0M9,253H0M17,234H0M9,216H0M9,198H0M9,180H0M9,162H0M17,143H0M9,125H0M9,107H0M9,89H0M9,70H0M17,52H0M9,34H0M9,16H0" style="stroke: black; stroke-width: 1;"></path>
       <g font-family="Arial" font-size="20" space="preserve" fill="black" text-anchor="end">
        <text dy=".4em" transform="translate(-3,599)">
         0.4
        </text>
        <text dy=".4em" transform="translate(-3,508)">
         0.5
        </text>
        <text dy=".4em" transform="translate(-3,417)">
         0.6
        </text>
        <text dy=".4em" transform="translate(-3,325)">
         0.7
        </text>
        <text dy=".4em" transform="translate(-3,234)">
         0.8
        </text>
        <text dy=".4em" transform="translate(-3,143)">
         0.9
        </text>
        <text dy=".4em" transform="translate(-3,52)">
         1
        </text>
       </g>
      </g>
     </g>
    </g>
    <g transform="translate(58,4)" font-family="Arial" font-size="25" space="preserve">
     <text fill="black" text-anchor="middle" dy=".8em" transform="translate(231,3)">
      different statistic options
     </text>
    </g>
    <g transform="translate(173,392)" font-family="Arial" font-size="33" space="preserve">
     <path d="M0,0H230V314H0Z" style="fill: white; stroke: black; stroke-width: 1;"></path>
     <path d="M7,24v118h44v-118z" style="fill: url(#pat_3004_632); stroke: black; stroke-width: 1;"></path>
     <text fill="black" text-anchor="start" dy=".4em" transform="translate(58,83)">
      kFNormal
     </text>
     <path d="M7,172v118h44v-118z" style="fill: url(#pat_3005_600); stroke: black; stroke-width: 1;"></path>
     <text fill="black" text-anchor="start" dy=".4em" transform="translate(58,231)">
      kFAC
     </text>
    </g>
   </g>
  </svg>
 </g>
</svg>