<svg viewBox="0 0 1200 800" preserveAspectRatio="none" xmlns="http://www.w3.org/2000/svg" width="1200" height="800"><title>ROOT canvas</title><rect x="0" y="0" width="1200" height="800" style="fill: none;"></rect><g transform="translate(120,80)"><title></title><rect x="0" y="0" width="960" height="640" style="fill: white; stroke: black; stroke-width: 1;"></rect><svg x="0" y="0" overflow="hidden" width="960" height="640" viewBox="0 0 960 640"><g objname="Graph" objtype="TGraphErrors"><path d="M97,498l174,-178l174,-178l174,267l174,-178" style="stroke: black; stroke-width: 1; fill: none;"></path><g transform="translate(97,498)"><path style="stroke: black; stroke-width: 1; fill: none;" d="M0,0L-17,0m0,3v-6M0,0L17,0m0,3v-6M0,0L0,89m3,0h-6M0,0L0,-89m3,0h-6"></path></g><g transform="translate(271,320)"><path style="stroke: black; stroke-width: 1; fill: none;" d="M0,0L-35,0m0,3v-6M0,0L35,0m0,3v-6M0,0L0,44m3,0h-6M0,0L0,-44m3,0h-6"></path></g><g transform="translate(445,142)"><path style="stroke: black; stroke-width: 1; fill: none;" d="M0,0L-52,0m0,3v-6M0,0L52,0m0,3v-6M0,0L0,89m3,0h-6M0,0L0,-89m3,0h-6"></path></g><g transform="translate(619,409)"><path style="stroke: black; stroke-width: 1; fill: none;" d="M0,0L-70,0m0,3v-6M0,0L70,0m0,3v-6M0,0L0,44m3,0h-6M0,0L0,-44m3,0h-6"></path></g><g transform="translate(793,231)"><path style="stroke: black; stroke-width: 1; fill: none;" d="M0,0L-87,0m0,3v-6M0,0L87,0m0,3v-6M0,0L0,89m3,0h-6M0,0L0,-89m3,0h-6"></path></g></g></svg><g><g transform="translate(0,640)"><path d="M28,-10v10m35,-10v10m34,-19v19m35,-10v10m35,-10v10m35,-10v10m35,-10v10m34,-19v19m35,-10v10m35,-10v10m35,-10v10m34,-10v10m35,-19v19m35,-10v10m35,-10v10m35,-10v10m34,-10v10m35,-19v19m35,-10v10m35,-10v10m34,-10v10m35,-10v10m35,-19v19m35,-10v10m35,-10v10m34,-10v10m35,-10v10" style="stroke: black; stroke-width: 1;"></path><g font-family="Arial" font-size="22" space="preserve"><text fill="black" x="97" y="8" dy=".7em" style="text-anchor: middle;">0</text><text fill="black" x="271" y="8" dy=".7em" style="text-anchor: middle;">1</text><text fill="black" x="445" y="8" dy=".7em" style="text-anchor: middle;">2</text><text fill="black" x="619" y="8" dy=".7em" style="text-anchor: middle;">3</text><text fill="black" x="793" y="8" dy=".7em" style="text-anchor: middle;">4</text></g></g><g><path d="M15,640h-15m15,-18h-15m15,-18h-15m29,-17h-29m15,-18h-15m15,-18h-15m15,-18h-15m15,-17h-15m29,-18h-29m15,-18h-15m15,-18h-15m15,-18h-15m15,-17h-15m29,-18h-29m15,-18h-15m15,-18h-15m15,-17h-15m15,-18h-15m29,-18h-29m15,-18h-15m15,-18h-15m15,-17h-15m15,-18h-15m29,-18h-29m15,-18h-15m15,-17h-15m15,-18h-15m15,-18h-15m29,-18h-29m15,-18h-15m15,-17h-15m15,-18h-15m15,-18h-15m29,-18h-29m15,-17h-15m15,-18h-15" style="stroke: black; stroke-width: 1;"></path><g font-family="Arial" font-size="22" space="preserve"><text fill="black" x="-8" y="587" style="text-anchor: end; dominant-baseline: middle;">-1</text><text fill="black" x="-8" y="498" style="text-anchor: end; dominant-baseline: middle;">0</text><text fill="black" x="-8" y="409" style="text-anchor: end; dominant-baseline: middle;">1</text><text fill="black" x="-8" y="320" style="text-anchor: end; dominant-baseline: middle;">2</text><text fill="black" x="-8" y="231" style="text-anchor: end; dominant-baseline: middle;">3</text><text fill="black" x="-8" y="142" style="text-anchor: end; dominant-baseline: middle;">4</text><text fill="black" x="-8" y="53" style="text-anchor: end; dominant-baseline: middle;">5</text></g></g></g></g><g><g objname="title" objtype="TPaveText" transform="translate(336,8)" font-family="Arial" font-size="33" space="preserve"><path d="M0,0h528v40h-528z" style="fill: none;"></path><text text-anchor="middle" x="0" y="0" fill="black" transform="translate(264,21)" dominant-baseline="middle" opacity="1">Graph</text></g></g></svg>