<svg viewBox="0 0 1200 800" preserveAspectRatio="none" xmlns="http://www.w3.org/2000/svg" width="1200" height="800"><title>ROOT canvas</title><rect class="canvas_fillrect" x="0" y="0" width="1200" height="800" style="fill: none;"></rect><g class="root_frame" x="120" y="80" width="960" height="640" transform="translate(120,80)"><title></title><rect x="0" y="0" width="960" height="640" style="fill: white; stroke: black; stroke-width: 1;"></rect><g class="grid_layer"></g><svg class="main_layer" x="0" y="0" overflow="hidden" width="960" height="640" viewBox="0 0 960 640"><g objname="Graph" objtype="TGraphErrors"><g class="grpoint" transform="translate(97,498)"><path style="stroke: black; stroke-width: 1; fill: none;" d="M0,0L-17,0l3,5m0,-10l-3,5M0,0L17,0l-3,5m0,-10l3,5M0,0L0,89l-5,-3m10,0l-5,3M0,0L0,-89l-5,3m10,0l-5,-3"></path></g><g class="grpoint" transform="translate(271,320)"><path style="stroke: black; stroke-width: 1; fill: none;" d="M0,0L-35,0l3,5m0,-10l-3,5M0,0L35,0l-3,5m0,-10l3,5M0,0L0,44l-5,-3m10,0l-5,3M0,0L0,-44l-5,3m10,0l-5,-3"></path></g><g class="grpoint" transform="translate(445,142)"><path style="stroke: black; stroke-width: 1; fill: none;" d="M0,0L-52,0l3,5m0,-10l-3,5M0,0L52,0l-3,5m0,-10l3,5M0,0L0,89l-5,-3m10,0l-5,3M0,0L0,-89l-5,3m10,0l-5,-3"></path></g><g class="grpoint" transform="translate(619,409)"><path style="stroke: black; stroke-width: 1; fill: none;" d="M0,0L-70,0l3,5m0,-10l-3,5M0,0L70,0l-3,5m0,-10l3,5M0,0L0,44l-5,-3m10,0l-5,3M0,0L0,-44l-5,3m10,0l-5,-3"></path></g><g class="grpoint" transform="translate(793,231)"><path style="stroke: black; stroke-width: 1; fill: none;" d="M0,0L-87,0l3,5m0,-10l-3,5M0,0L87,0l-3,5m0,-10l3,5M0,0L0,89l-5,-3m10,0l-5,3M0,0L0,-89l-5,3m10,0l-5,-3"></path></g></g></svg><g class="axis_layer"><g class="xaxis_container" transform="translate(0,640)"><path d="M28,-10v10m35,-10v10m34,-19v19m35,-10v10m35,-10v10m35,-10v10m35,-10v10m34,-19v19m35,-10v10m35,-10v10m35,-10v10m34,-10v10m35,-19v19m35,-10v10m35,-10v10m35,-10v10m34,-10v10m35,-19v19m35,-10v10m35,-10v10m34,-10v10m35,-10v10m35,-19v19m35,-10v10m35,-10v10m34,-10v10m35,-10v10" style="stroke: black; stroke-width: 1;"></path><g class="axis_labels" font-family="Arial" font-size="22" space="preserve"><text fill="black" x="97" y="8" dy=".7em" style="text-anchor: middle;">0</text><text fill="black" x="271" y="8" dy=".7em" style="text-anchor: middle;">1</text><text fill="black" x="445" y="8" dy=".7em" style="text-anchor: middle;">2</text><text fill="black" x="619" y="8" dy=".7em" style="text-anchor: middle;">3</text><text fill="black" x="793" y="8" dy=".7em" style="text-anchor: middle;">4</text></g></g><g class="yaxis_container"><path d="M15,640h-15m15,-18h-15m15,-18h-15m29,-17h-29m15,-18h-15m15,-18h-15m15,-18h-15m15,-17h-15m29,-18h-29m15,-18h-15m15,-18h-15m15,-18h-15m15,-17h-15m29,-18h-29m15,-18h-15m15,-18h-15m15,-17h-15m15,-18h-15m29,-18h-29m15,-18h-15m15,-18h-15m15,-17h-15m15,-18h-15m29,-18h-29m15,-18h-15m15,-17h-15m15,-18h-15m15,-18h-15m29,-18h-29m15,-18h-15m15,-17h-15m15,-18h-15m15,-18h-15m29,-18h-29m15,-17h-15m15,-18h-15" style="stroke: black; stroke-width: 1;"></path><g class="axis_labels" font-family="Arial" font-size="22" space="preserve"><text fill="black" x="-8" y="587" style="text-anchor: end; dominant-baseline: middle;">-1</text><text fill="black" x="-8" y="498" style="text-anchor: end; dominant-baseline: middle;">0</text><text fill="black" x="-8" y="409" style="text-anchor: end; dominant-baseline: middle;">1</text><text fill="black" x="-8" y="320" style="text-anchor: end; dominant-baseline: middle;">2</text><text fill="black" x="-8" y="231" style="text-anchor: end; dominant-baseline: middle;">3</text><text fill="black" x="-8" y="142" style="text-anchor: end; dominant-baseline: middle;">4</text><text fill="black" x="-8" y="53" style="text-anchor: end; dominant-baseline: middle;">5</text></g></g></g><g class="upper_layer"></g></g><g class="subpads_layer"></g><g class="special_layer"></g><g class="text_layer"><g objname="title" objtype="TPaveText" x="336" y="8" width="528" height="40" transform="translate(336,8)" font-family="Arial" font-size="33" space="preserve"><rect x="0" y="0" width="528" height="40" style="fill: none;"></rect><text text-anchor="middle" x="0" y="0" fill="black" transform="translate(264.0,21.0)" dominant-baseline="middle" class="" opacity="1">Graph</text></g></g><g class="stat_layer"></g><g class="btns_layer" transform="translate(2,780)"></g></svg>