<svg xmlns="http://www.w3.org/2000/svg" viewBox="0 0 1200 800" preserveAspectRatio="none" width="1200" height="800">
 <path d="M0,0H1200V800H0Z" style="fill: white;"></path>
 <g>
  <g transform="translate(120,80)">
   <path d="M0,0H960V640H0Z" style="fill: white; stroke: black; stroke-width: 1;"></path>
   <svg x="0" y="0" overflow="hidden" width="960" height="640" viewBox="0 0 960 640">
    <g>
     <g transform="translate(97,498)">
      <path d="M0,0H-17M0,0H17M0,0V89M0,0V-89" style="fill: none; stroke: black; stroke-width: 1;"></path>
     </g>
     <g transform="translate(271,320)">
      <path d="M0,0H-35M0,0H35M0,0V44M0,0V-44" style="fill: none; stroke: black; stroke-width: 1;"></path>
     </g>
     <g transform="translate(445,142)">
      <path d="M0,0H-52M0,0H52M0,0V89M0,0V-89" style="fill: none; stroke: black; stroke-width: 1;"></path>
     </g>
     <g transform="translate(619,409)">
      <path d="M0,0H-70M0,0H70M0,0V44M0,0V-44" style="fill: none; stroke: black; stroke-width: 1;"></path>
     </g>
     <g transform="translate(793,231)">
      <path d="M0,0H-87M0,0H87M0,0V89M0,0V-89" style="fill: none; stroke: black; stroke-width: 1;"></path>
     </g>
    </g>
   </svg>
   <g>
    <g transform="translate(0,640)">
     <path d="M0,0h960M28,-10V0M63,-10V0M97,-19V0M132,-10V0M167,-10V0M202,-10V0M237,-10V0M271,-19V0M306,-10V0M341,-10V0M376,-10V0M410,-10V0M445,-19V0M480,-10V0M515,-10V0M550,-10V0M584,-10V0M619,-19V0M654,-10V0M689,-10V0M723,-10V0M758,-10V0M793,-19V0M828,-10V0M863,-10V0M897,-10V0M932,-10V0" style="stroke: black; stroke-width: 1;"></path>
     <g font-family="Arial" font-size="28" xml:space="preserve" fill="black" text-anchor="middle"><text dy=".8em" transform="translate(97,5)">0</text><text dy=".8em" transform="translate(271,5)">1</text><text dy=".8em" transform="translate(445,5)">2</text><text dy=".8em" transform="translate(619,5)">3</text><text dy=".8em" transform="translate(793,5)">4</text></g>
    </g>
    <g>
     <path d="M0,0v640M15,640H0M15,622H0M15,604H0M29,587H0M15,569H0M15,551H0M15,533H0M15,516H0M29,498H0M15,480H0M15,462H0M15,444H0M15,427H0M29,409H0M15,391H0M15,373H0M15,356H0M15,338H0M29,320H0M15,302H0M15,284H0M15,267H0M15,249H0M29,231H0M15,213H0M15,196H0M15,178H0M15,160H0M29,142H0M15,124H0M15,107H0M15,89H0M15,71H0M29,53H0M15,36H0M15,18H0M15,0H0" style="stroke: black; stroke-width: 1;"></path>
     <g font-family="Arial" font-size="28" xml:space="preserve" fill="black" text-anchor="end"><text dominant-baseline="middle" transform="translate(-6,587)">-1</text><text dominant-baseline="middle" transform="translate(-6,498)">0</text><text dominant-baseline="middle" transform="translate(-6,409)">1</text><text dominant-baseline="middle" transform="translate(-6,320)">2</text><text dominant-baseline="middle" transform="translate(-6,231)">3</text><text dominant-baseline="middle" transform="translate(-6,142)">4</text><text dominant-baseline="middle" transform="translate(-6,53)">5</text></g>
    </g>
   </g>
  </g>
  <g transform="translate(533,4)" font-family="Arial" font-size="40" xml:space="preserve"><text fill="black" text-anchor="middle" dominant-baseline="middle" transform="translate(68,26)">Graph</text></g>
 </g>
</svg>