<svg xmlns="http://www.w3.org/2000/svg" viewBox="0 0 1200 800" preserveAspectRatio="none" width="1200" height="800">
 <path d="M0,0H1200V800H0Z" style="fill: white;"></path>
 <g>
  <svg viewBox="0 0 1176 384" preserveAspectRatio="none" x="12" y="8" width="1176" height="384">
   <path d="M0,0H1176V384H0Z" style="fill: white;"></path>
   <g>
    <g transform="translate(118,38)">
     <path d="M0,0H941V307H0Z" style="fill: white; stroke: black; stroke-width: 1;"></path>
     <g>
      <path d="M86,0v307M182,0v307M278,0v307M374,0v307M471,0v307M567,0v307M663,0v307M759,0v307M855,0v307" style="stroke: black; stroke-width: 1; stroke-dasharray: 1,2;"></path>
      <path d="M0,266h941M0,210h941M0,153h941M0,97h941M0,40h941" style="stroke: black; stroke-width: 1; stroke-dasharray: 1,2;"></path>
     </g>
     <svg x="0" y="0" overflow="hidden" width="941" height="307" viewBox="0 0 941 307">
      <g>
       <path d="M0,18.04C0.58,28.37,7.53,106.24,9.41,121.14S16.94,159.68,18.82,167.00S26.35,189.70,28.23,194.28S35.76,209.61,37.64,212.83S45.17,224.04,47.05,226.45S54.58,235.08,56.46,236.98S63.99,243.87,65.87,245.41S73.40,251.07,75.28,252.34S82.81,257.09,84.69,258.17S92.22,262.22,94.10,263.14S101.63,266.64,103.51,267.44S111.04,270.50,112.92,271.21S120.45,273.90,122.33,274.53S129.86,276.92,131.74,277.48S139.27,279.62,141.15,280.12S148.68,282.05,150.56,282.50S158.09,284.25,159.97,284.66S167.50,286.24,169.38,286.62S176.91,288.06,178.79,288.40S186.32,289.72,188.20,290.04S195.73,291.25,197.61,291.53S205.14,292.65,207.02,292.91S214.55,293.94,216.43,294.18S223.96,295.13,225.84,295.35S233.37,296.23,235.25,296.44S242.78,297.24,244.66,297.44S252.19,298.19,254.07,298.36S261.60,299.06,263.48,299.22S271.01,299.86,272.89,300.02S280.42,300.61,282.30,300.75S289.83,301.31,291.71,301.44S299.24,301.95,301.12,302.07S308.65,302.54,310.53,302.65S318.06,303.08,319.94,303.19S327.47,303.59,329.35,303.68S336.88,304.05,338.76,304.13S346.29,304.47,348.17,304.55S355.70,304.86,357.58,304.93S365.11,305.21,366.99,305.27S374.52,305.52,376.40,305.58S383.93,305.80,385.81,305.86S393.34,306.06,395.22,306.10S402.75,306.27,404.63,306.31S412.16,306.46,414.04,306.50S421.57,306.62,423.45,306.65S430.98,306.76,432.86,306.78S440.39,306.86,442.27,306.88S449.80,306.93,451.68,306.94S459.21,306.98,461.09,306.99S468.62,307,470.50,307S478.03,306.99,479.91,306.99S487.44,306.96,489.32,306.94S496.85,306.89,498.73,306.88S506.26,306.80,508.14,306.78S515.67,306.68,517.55,306.65S525.08,306.53,526.96,306.50S534.49,306.35,536.37,306.31S543.90,306.15,545.78,306.10S553.31,305.91,555.19,305.86S562.72,305.64,564.60,305.58S572.13,305.34,574.01,305.27S581.54,305.00,583.42,304.93S590.95,304.63,592.83,304.55S600.36,304.22,602.24,304.13S609.77,303.78,611.65,303.68S619.18,303.29,621.06,303.19S628.59,302.76,630.47,302.65S638.00,302.19,639.88,302.07S647.41,301.57,649.29,301.44S656.82,300.90,658.70,300.75S666.23,300.17,668.11,300.02S675.64,299.39,677.52,299.22S685.05,298.54,686.93,298.36S694.46,297.63,696.34,297.44S703.87,296.64,705.75,296.44S713.28,295.58,715.16,295.35S722.69,294.43,724.57,294.18S732.10,293.18,733.98,292.91S741.51,291.82,743.39,291.53S750.92,290.35,752.80,290.04S760.33,288.74,762.21,288.40S769.74,286.99,771.62,286.62S779.15,285.07,781.03,284.66S788.56,282.96,790.44,282.50S797.97,280.63,799.85,280.12S807.38,278.04,809.26,277.48S816.79,275.15,818.67,274.53S826.20,271.91,828.08,271.21S835.61,268.25,837.49,267.44S845.02,264.07,846.90,263.14S854.43,259.25,856.31,258.17S863.84,253.62,865.72,252.34S873.25,246.95,875.13,245.41S882.66,238.87,884.54,236.98S892.07,228.87,893.95,226.45S901.48,216.05,903.36,212.83S910.89,198.87,912.77,194.28S920.30,174.31,922.18,167.00S929.71,136.03,931.59,121.14S940.42,28.37,941,18.04" style="fill: none; stroke: #ff0000; stroke-width: 1;"></path>
      </g>
      <g>
       <path d="M0,-458.49C0.59,-433.67,7.53,-246.38,9.41,-210.35S16.94,-116.22,18.82,-98.24S26.35,-41.95,28.23,-30.50S35.76,8.09,37.64,16.26S45.17,44.92,47.05,51.15S54.58,73.57,56.46,78.54S63.99,96.74,65.87,100.83S73.40,116.02,75.28,119.48S82.81,132.43,84.69,135.41S92.22,146.63,94.10,149.23S101.63,159.10,103.51,161.40S111.04,170.18,112.92,172.24S120.45,180.12,122.33,181.98S129.86,189.11,131.74,190.80S139.27,197.31,141.15,198.85S148.68,204.83,150.56,206.25S158.09,211.76,159.97,213.08S167.50,218.19,169.38,219.41S176.91,224.17,178.79,225.31S186.32,229.77,188.20,230.84S195.73,235.01,197.61,236.02S205.14,239.95,207.02,240.90S214.55,244.61,216.43,245.51S223.96,249.02,225.84,249.87S233.37,253.21,235.25,254.02S242.78,257.19,244.66,257.96S252.19,260.98,254.07,261.71S261.60,264.60,263.48,265.30S271.01,268.06,272.89,268.74S280.42,271.38,282.30,272.03S289.83,274.57,291.71,275.19S299.24,277.63,301.12,278.23S308.65,280.58,310.53,281.15S318.06,283.42,319.94,283.97S327.47,286.16,329.35,286.69S336.88,288.80,338.76,289.32S346.29,291.36,348.17,291.86S355.70,293.84,357.58,294.32S365.11,296.24,366.99,296.71S374.52,298.57,376.40,299.02S383.93,300.82,385.81,301.27S393.34,303.02,395.22,303.45S402.75,305.15,404.63,305.57S412.16,307.23,414.04,307.64S421.57,309.25,423.45,309.65S430.98,311.22,432.86,311.61S440.39,313.14,442.27,313.52S449.80,315.02,451.68,315.39S459.21,316.85,461.09,317.21S468.62,318.63,470.50,318.99S478.03,320.38,479.91,320.72S487.44,322.09,489.32,322.42S496.85,323.76,498.73,324.09S506.26,325.39,508.14,325.72S515.67,326.99,517.55,327.31S525.08,328.56,526.96,328.87S534.49,330.10,536.37,330.40S543.90,331.61,545.78,331.90S553.31,333.09,555.19,333.38S562.72,334.54,564.60,334.82S572.13,335.96,574.01,336.24S581.54,337.36,583.42,337.64S590.95,338.73,592.83,339.00S600.36,340.08,602.24,340.35S609.77,341.41,611.65,341.67S619.18,342.72,621.06,342.97S628.59,344.00,630.47,344.25S638.00,345.26,639.88,345.51S647.41,346.50,649.29,346.75S656.82,347.73,658.70,347.97S666.23,348.93,668.11,349.17S675.64,350.12,677.52,350.36S685.05,351.29,686.93,351.52S694.46,352.44,696.34,352.67S703.87,353.58,705.75,353.80S713.28,354.70,715.16,354.92S722.69,355.80,724.57,356.02S732.10,356.89,733.98,357.11S741.51,357.97,743.39,358.18S750.92,359.03,752.80,359.24S760.33,360.07,762.21,360.28S769.74,361.11,771.62,361.31S779.15,362.13,781.03,362.33S788.56,363.13,790.44,363.33S797.97,364.13,799.85,364.33S807.38,365.11,809.26,365.31S816.79,366.08,818.67,366.28S826.20,367.04,828.08,367.23S835.61,367.99,837.49,368.18S845.02,368.93,846.90,369.12S854.43,369.86,856.31,370.04S863.84,370.78,865.72,370.96S873.25,371.68,875.13,371.86S882.66,372.58,884.54,372.76S892.07,373.47,893.95,373.64S901.48,374.35,903.36,374.52S910.89,375.22,912.77,375.39S920.30,376.08,922.18,376.25S929.71,376.93,931.59,377.10S940.06,377.85,941,377.94" style="fill: none; stroke: #00ff00; stroke-width: 1;"></path>
      </g>
      <g>
       <path d="M0,377.94C0.94,377.85,7.53,377.27,9.41,377.10S16.94,376.42,18.82,376.25S26.35,375.56,28.23,375.39S35.76,374.70,37.64,374.52S45.17,373.82,47.05,373.64S54.58,372.94,56.46,372.76S63.99,372.04,65.87,371.86S73.40,371.14,75.28,370.96S82.81,370.23,84.69,370.04S92.22,369.30,94.10,369.12S101.63,368.37,103.51,368.18S111.04,367.43,112.92,367.23S120.45,366.47,122.33,366.28S129.86,365.50,131.74,365.31S139.27,364.52,141.15,364.33S148.68,363.53,150.56,363.33S158.09,362.53,159.97,362.33S167.50,361.52,169.38,361.31S176.91,360.49,178.79,360.28S186.32,359.45,188.20,359.24S195.73,358.39,197.61,358.18S205.14,357.32,207.02,357.11S214.55,356.24,216.43,356.02S223.96,355.14,225.84,354.92S233.37,354.03,235.25,353.80S242.78,352.90,244.66,352.67S252.19,351.75,254.07,351.52S261.60,350.59,263.48,350.36S271.01,349.41,272.89,349.17S280.42,348.21,282.30,347.97S289.83,347.00,291.71,346.75S299.24,345.76,301.12,345.51S308.65,344.51,310.53,344.25S318.06,343.23,319.94,342.97S327.47,341.94,329.35,341.67S336.88,340.62,338.76,340.35S346.29,339.28,348.17,339.00S355.70,337.91,357.58,337.64S365.11,336.52,366.99,336.24S374.52,335.11,376.40,334.82S383.93,333.67,385.81,333.38S393.34,332.20,395.22,331.90S402.75,330.71,404.63,330.40S412.16,329.18,414.04,328.87S421.57,327.63,423.45,327.31S430.98,326.04,432.86,325.72S440.39,324.42,442.27,324.09S449.80,322.76,451.68,322.42S459.21,321.07,461.09,320.72S468.62,319.34,470.50,318.99S478.03,317.57,479.91,317.21S487.44,315.75,489.32,315.39S496.85,313.90,498.73,313.52S506.26,312.00,508.14,311.61S515.67,310.05,517.55,309.65S525.08,308.05,526.96,307.64S534.49,305.99,536.37,305.57S543.90,303.88,545.78,303.45S553.31,301.71,555.19,301.27S562.72,299.48,564.60,299.02S572.13,297.18,574.01,296.71S581.54,294.81,583.42,294.32S590.95,292.36,592.83,291.86S600.36,289.84,602.24,289.32S609.77,287.22,611.65,286.69S619.18,284.52,621.06,283.97S628.59,281.72,630.47,281.15S638.00,278.82,639.88,278.23S647.41,275.81,649.29,275.19S656.82,272.67,658.70,272.03S666.23,269.41,668.11,268.74S675.64,266.00,677.52,265.30S685.05,262.45,686.93,261.71S694.46,258.73,696.34,257.96S703.87,254.82,705.75,254.02S713.28,250.72,715.16,249.87S722.69,246.41,724.57,245.51S732.10,241.85,733.98,240.90S741.51,237.02,743.39,236.02S750.92,231.91,752.80,230.84S760.33,226.46,762.21,225.31S769.74,220.64,771.62,219.41S779.15,214.39,781.03,213.08S788.56,207.67,790.44,206.25S797.97,200.40,799.85,198.85S807.38,192.49,809.26,190.80S816.79,183.83,818.67,181.98S826.20,174.30,828.08,172.24S835.61,163.70,837.49,161.40S845.02,151.83,846.90,149.23S854.43,138.38,856.31,135.41S863.84,122.94,865.72,119.48S873.25,104.93,875.13,100.83S882.66,83.51,884.54,78.54S892.07,57.37,893.95,51.15S901.48,24.42,903.36,16.26S910.89,-19.05,912.77,-30.50S920.30,-80.25,922.18,-98.24S929.71,-174.33,931.59,-210.35S940.41,-433.67,941,-458.49" style="fill: none; stroke: #0000ff; stroke-width: 1;"></path>
      </g>
      <g>
       <path d="M0,372.09C0.94,371.44,7.53,366.93,9.41,365.66S16.94,360.60,18.82,359.35S26.35,354.40,28.23,353.18S35.76,348.33,37.64,347.14S45.17,342.39,47.05,341.22S54.58,336.59,56.46,335.44S63.99,330.91,65.87,329.79S73.40,325.36,75.28,324.27S82.81,319.94,84.69,318.87S92.22,314.65,94.10,313.61S101.63,309.49,103.51,308.48S111.04,304.46,112.92,303.47S120.45,299.56,122.33,298.60S129.86,294.79,131.74,293.85S139.27,290.15,141.15,289.24S148.68,285.64,150.56,284.76S158.09,281.26,159.97,280.40S167.50,277.01,169.38,276.18S176.91,272.89,178.79,272.09S186.32,268.90,188.20,268.12S195.73,265.04,197.61,264.29S205.14,261.31,207.02,260.58S214.55,257.71,216.43,257.01S223.96,254.24,225.84,253.57S233.37,250.90,235.25,250.25S242.78,247.69,244.66,247.07S252.19,244.61,254.07,244.02S261.60,241.66,263.48,241.09S271.01,238.84,272.89,238.30S280.42,236.15,282.30,235.63S289.83,233.59,291.71,233.10S299.24,231.16,301.12,230.69S308.65,228.86,310.53,228.42S318.06,226.69,319.94,226.28S327.47,224.65,329.35,224.26S336.88,222.74,338.76,222.38S346.29,220.96,348.17,220.62S355.70,219.31,357.58,219.00S365.11,217.79,366.99,217.50S374.52,216.40,376.40,216.14S383.93,215.14,385.81,214.90S393.34,214.01,395.22,213.80S402.75,213.01,404.63,212.82S412.16,212.14,414.04,211.98S421.57,211.40,423.45,211.27S430.98,210.78,432.86,210.68S440.39,210.30,442.27,210.23S449.80,209.95,451.68,209.90S459.21,209.73,461.09,209.71S468.62,209.64,470.50,209.64S478.03,209.68,479.91,209.71S487.44,209.85,489.32,209.90S496.85,210.15,498.73,210.23S506.26,210.58,508.14,210.68S515.67,211.14,517.55,211.27S525.08,211.82,526.96,211.98S534.49,212.64,536.37,212.82S543.90,213.59,545.78,213.80S553.31,214.67,555.19,214.90S562.72,215.88,564.60,216.14S572.13,217.22,574.01,217.50S581.54,218.69,583.42,219.00S590.95,220.28,592.83,220.62S600.36,222.01,602.24,222.38S609.77,223.87,611.65,224.26S619.18,225.86,621.06,226.28S628.59,227.98,630.47,228.42S638.00,230.23,639.88,230.69S647.41,232.60,649.29,233.10S656.82,235.11,658.70,235.63S666.23,237.75,668.11,238.30S675.64,240.52,677.52,241.09S685.05,243.42,686.93,244.02S694.46,246.45,696.34,247.07S703.87,249.60,705.75,250.25S713.28,252.89,715.16,253.57S722.69,256.31,724.57,257.01S732.10,259.86,733.98,260.58S741.51,263.54,743.39,264.29S750.92,267.34,752.80,268.12S760.33,271.28,762.21,272.09S769.74,275.35,771.62,276.18S779.15,279.55,781.03,280.40S788.56,283.87,790.44,284.76S797.97,288.33,799.85,289.24S807.38,292.92,809.26,293.85S816.79,297.64,818.67,298.60S826.20,302.48,828.08,303.47S835.61,307.46,837.49,308.48S845.02,312.57,846.90,313.61S854.43,317.81,856.31,318.87S863.84,323.17,865.72,324.27S873.25,328.67,875.13,329.79S882.66,334.30,884.54,335.44S892.07,340.06,893.95,341.22S901.48,345.94,903.36,347.14S910.89,351.96,912.77,353.18S920.30,358.11,922.18,359.35S929.71,364.38,931.59,365.66S940.06,371.44,941,372.09" style="fill: none; stroke: #ff00ff; stroke-width: 1;"></path>
      </g>
     </svg>
     <g>
      <g transform="translate(0,307)">
       <path d="M0,0h941M10,-6V0M29,-6V0M48,-6V0M67,-6V0M86,-12V0M106,-6V0M125,-6V0M144,-6V0M163,-6V0M182,-12V0M202,-6V0M221,-6V0M240,-6V0M259,-6V0M278,-12V0M298,-6V0M317,-6V0M336,-6V0M355,-6V0M374,-12V0M394,-6V0M413,-6V0M432,-6V0M451,-6V0M471,-12V0M490,-6V0M509,-6V0M528,-6V0M547,-6V0M567,-12V0M586,-6V0M605,-6V0M624,-6V0M643,-6V0M663,-12V0M682,-6V0M701,-6V0M720,-6V0M739,-6V0M759,-12V0M778,-6V0M797,-6V0M816,-6V0M835,-6V0M855,-12V0M874,-6V0M893,-6V0M912,-6V0M931,-6V0" style="stroke: black; stroke-width: 1;"></path>
       <g font-family="Arial" font-size="13" space="preserve" fill="black" text-anchor="middle">
        <text dy=".8em" transform="translate(86,4)">
         0.1
        </text>
        <text dy=".8em" transform="translate(182,4)">
         0.2
        </text>
        <text dy=".8em" transform="translate(278,4)">
         0.3
        </text>
        <text dy=".8em" transform="translate(374,4)">
         0.4
        </text>
        <text dy=".8em" transform="translate(471,4)">
         0.5
        </text>
        <text dy=".8em" transform="translate(567,4)">
         0.6
        </text>
        <text dy=".8em" transform="translate(663,4)">
         0.7
        </text>
        <text dy=".8em" transform="translate(759,4)">
         0.8
        </text>
        <text dy=".8em" transform="translate(855,4)">
         0.9
        </text>
       </g>
      </g>
      <g>
       <path d="M0,0v307M18,300H0M18,289H0M18,277H0M35,266H0M18,255H0M18,243H0M18,232H0M18,221H0M35,210H0M18,198H0M18,187H0M18,176H0M18,165H0M35,153H0M18,142H0M18,131H0M18,119H0M18,108H0M35,97H0M18,86H0M18,74H0M18,63H0M18,52H0M35,40H0M18,29H0M18,18H0M18,7H0" style="stroke: black; stroke-width: 1;"></path>
       <g font-family="Arial" font-size="13" space="preserve" fill="black" text-anchor="end">
        <text dy=".4em" transform="translate(-2,266)">
         1
        </text>
        <text dy=".4em" transform="translate(-2,210)">
         1.5
        </text>
        <text dy=".4em" transform="translate(-2,153)">
         2
        </text>
        <text dy=".4em" transform="translate(-2,97)">
         2.5
        </text>
        <text dy=".4em" transform="translate(-2,40)">
         3
        </text>
       </g>
      </g>
     </g>
    </g>
    <g transform="translate(118,2)" font-family="Arial" font-size="19" space="preserve">
     <text fill="black" text-anchor="middle" dy=".8em" transform="translate(471)">
      TMath::BetaDist(x, [0], [1])
     </text>
    </g>
    <g transform="translate(588,38)" font-family="Arial" font-size="15" space="preserve">
     <path d="M0,0H353V77H0Z" style="fill: white; stroke: black; stroke-width: 1;"></path>
     <path d="M11,11H77" style="stroke: #ff0000; stroke-width: 1;"></path>
     <text fill="black" text-anchor="start" dy=".4em" transform="translate(88,11)">
      p=0.5  q=0.5
     </text>
     <path d="M11,29H77" style="stroke: #00ff00; stroke-width: 1;"></path>
     <text fill="black" text-anchor="start" dy=".4em" transform="translate(88,29)">
      p=0.5  q=2
     </text>
     <path d="M11,48H77" style="stroke: #0000ff; stroke-width: 1;"></path>
     <text fill="black" text-anchor="start" dy=".4em" transform="translate(88,48)">
      p=2    q=0.5
     </text>
     <path d="M11,66H77" style="stroke: #ff00ff; stroke-width: 1;"></path>
     <text fill="black" text-anchor="start" dy=".4em" transform="translate(88,66)">
      p=2    q=2
     </text>
    </g>
   </g>
  </svg>
  <svg viewBox="0 0 1176 384" preserveAspectRatio="none" x="12" y="408" width="1176" height="384">
   <path d="M0,0H1176V384H0Z" style="fill: white;"></path>
   <g>
    <g transform="translate(118,38)">
     <path d="M0,0H941V307H0Z" style="fill: white; stroke: black; stroke-width: 1;"></path>
     <g>
      <path d="M0,0v307M94,0v307M188,0v307M282,0v307M376,0v307M471,0v307M565,0v307M659,0v307M753,0v307M847,0v307M941,0v307" style="stroke: black; stroke-width: 1; stroke-dasharray: 1,2;"></path>
      <path d="M0,307h941M0,278h941M0,249h941M0,219h941M0,190h941M0,161h941M0,132h941M0,102h941M0,73h941M0,44h941M0,15h941" style="stroke: black; stroke-width: 1; stroke-dasharray: 1,2;"></path>
     </g>
     <svg x="0" y="0" overflow="hidden" width="941" height="307" viewBox="0 0 941 307">
      <g>
       <path d="M0,307C0.65,305.01,7.53,291.00,9.41,288.36S16.94,281.96,18.82,280.59S26.35,275.70,28.23,274.60S35.76,270.48,37.64,269.52S45.17,265.88,47.05,265.02S54.58,261.72,56.46,260.94S63.99,257.89,65.87,257.16S73.40,254.31,75.28,253.62S82.81,250.94,84.69,250.29S92.22,247.73,94.10,247.11S101.63,244.67,103.51,244.07S111.04,241.73,112.92,241.16S120.45,238.90,122.33,238.34S129.86,236.15,131.74,235.62S139.27,233.50,141.15,232.97S148.68,230.91,150.56,230.40S158.09,228.39,159.97,227.89S167.50,225.93,169.38,225.44S176.91,223.52,178.79,223.05S186.32,221.16,188.20,220.70S195.73,218.85,197.61,218.39S205.14,216.58,207.02,216.13S214.55,214.34,216.43,213.90S223.96,212.14,225.84,211.70S233.37,209.97,235.25,209.54S242.78,207.83,244.66,207.40S252.19,205.71,254.07,205.30S261.60,203.63,263.48,203.21S271.01,201.56,272.89,201.15S280.42,199.51,282.30,199.11S289.83,197.49,291.71,197.09S299.24,195.48,301.12,195.08S308.65,193.49,310.53,193.10S318.06,191.52,319.94,191.12S327.47,189.56,329.35,189.17S336.88,187.61,338.76,187.22S346.29,185.67,348.17,185.29S355.70,183.75,357.58,183.37S365.11,181.83,366.99,181.45S374.52,179.93,376.40,179.55S383.93,178.03,385.81,177.65S393.34,176.14,395.22,175.76S402.75,174.26,404.63,173.88S412.16,172.38,414.04,172.00S421.57,170.51,423.45,170.13S430.98,168.64,432.86,168.26S440.39,166.77,442.27,166.40S449.80,164.91,451.68,164.53S459.21,163.04,461.09,162.67S468.62,161.18,470.50,160.81S478.03,159.32,479.91,158.95S487.44,157.46,489.32,157.09S496.85,155.60,498.73,155.22S506.26,153.73,508.14,153.36S515.67,151.86,517.55,151.49S525.08,149.99,526.96,149.61S534.49,148.11,536.37,147.74S543.90,146.23,545.78,145.85S553.31,144.34,555.19,143.97S562.72,142.45,564.60,142.07S572.13,140.55,574.01,140.17S581.54,138.64,583.42,138.25S590.95,136.72,592.83,136.33S600.36,134.79,602.24,134.40S609.77,132.84,611.65,132.45S619.18,130.89,621.06,130.49S628.59,128.92,630.47,128.52S638.00,126.93,639.88,126.54S647.41,124.93,649.29,124.53S656.82,122.92,658.70,122.51S666.23,120.88,668.11,120.47S675.64,118.82,677.52,118.41S685.05,116.74,686.93,116.32S694.46,114.64,696.34,114.21S703.87,112.51,705.75,112.08S713.28,110.35,715.16,109.92S722.69,108.16,724.57,107.72S732.10,105.94,733.98,105.49S741.51,103.68,743.39,103.23S750.92,101.39,752.80,100.92S760.33,99.05,762.21,98.57S769.74,96.66,771.62,96.17S779.15,94.22,781.03,93.72S788.56,91.72,790.44,91.22S797.97,89.17,799.85,88.65S807.38,86.54,809.26,86.00S816.79,83.83,818.67,83.28S826.20,81.04,828.08,80.46S835.61,78.14,837.49,77.54S845.02,75.13,846.90,74.51S854.43,71.98,856.31,71.33S863.84,68.68,865.72,67.99S873.25,65.19,875.13,64.46S882.66,61.47,884.54,60.68S892.07,57.45,893.95,56.60S901.48,53.06,903.36,52.10S910.89,48.13,912.77,47.02S920.30,42.41,922.18,41.03S929.71,35.90,931.59,33.26S940.35,16.60,941,14.62" style="fill: none; stroke: #ff0000; stroke-width: 1;"></path>
      </g>
      <g>
       <path d="M0,307C0.57,302.57,7.53,269.45,9.41,263.29S16.94,248.54,18.82,245.39S26.35,234.29,28.23,231.80S35.76,222.58,37.64,220.46S45.17,212.44,47.05,210.57S54.58,203.41,56.46,201.72S63.99,195.22,65.87,193.67S73.40,187.69,75.28,186.26S82.81,180.71,84.69,179.38S92.22,174.18,94.10,172.93S101.63,168.05,103.51,166.88S111.04,162.27,112.92,161.15S120.45,156.78,122.33,155.72S129.86,151.57,131.74,150.56S139.27,146.60,141.15,145.63S148.68,141.85,150.56,140.93S158.09,137.30,159.97,136.42S167.50,132.94,169.38,132.09S176.91,128.75,178.79,127.94S186.32,124.73,188.20,123.94S195.73,120.85,197.61,120.09S205.14,117.11,207.02,116.38S214.55,113.50,216.43,112.79S223.96,110.01,225.84,109.33S233.37,106.65,235.25,105.99S242.78,103.39,244.66,102.75S252.19,100.24,254.07,99.62S261.60,97.19,263.48,96.59S271.01,94.23,272.89,93.65S280.42,91.37,282.30,90.81S289.83,88.59,291.71,88.05S299.24,85.90,301.12,85.37S308.65,83.28,310.53,82.77S318.06,80.75,319.94,80.25S327.47,78.29,329.35,77.81S336.88,75.90,338.76,75.43S346.29,73.58,348.17,73.13S355.70,71.33,357.58,70.89S365.11,69.15,366.99,68.72S374.52,67.02,376.40,66.61S383.93,64.96,385.81,64.56S393.34,62.96,395.22,62.56S402.75,61.01,404.63,60.63S412.16,59.12,414.04,58.75S421.57,57.29,423.45,56.93S430.98,55.51,432.86,55.16S440.39,53.77,442.27,53.44S449.80,52.09,451.68,51.76S459.21,50.46,461.09,50.14S468.62,48.88,470.50,48.57S478.03,47.34,479.91,47.04S487.44,45.85,489.32,45.56S496.85,44.41,498.73,44.12S506.26,43.00,508.14,42.73S515.67,41.64,517.55,41.38S525.08,40.32,526.96,40.07S534.49,39.05,536.37,38.80S543.90,37.81,545.78,37.57S553.31,36.61,555.19,36.38S562.72,35.45,564.60,35.23S572.13,34.33,574.01,34.11S581.54,33.25,583.42,33.04S590.95,32.20,592.83,32.00S600.36,31.19,602.24,30.99S609.77,30.21,611.65,30.02S619.18,29.27,621.06,29.09S628.59,28.36,630.47,28.19S638.00,27.49,639.88,27.32S647.41,26.65,649.29,26.49S656.82,25.84,658.70,25.68S666.23,25.06,668.11,24.91S675.64,24.32,677.52,24.17S685.05,23.60,686.93,23.47S694.46,22.92,696.34,22.79S703.87,22.27,705.75,22.14S713.28,21.64,715.16,21.52S722.69,21.05,724.57,20.93S732.10,20.48,733.98,20.37S741.51,19.94,743.39,19.84S750.92,19.43,752.80,19.34S760.33,18.95,762.21,18.86S769.74,18.50,771.62,18.41S779.15,18.07,781.03,17.99S788.56,17.67,790.44,17.59S797.97,17.29,799.85,17.22S807.38,16.94,809.26,16.88S816.79,16.62,818.67,16.56S826.20,16.32,828.08,16.27S835.61,16.05,837.49,16.00S845.02,15.80,846.90,15.75S854.43,15.58,856.31,15.54S863.84,15.38,865.72,15.34S873.25,15.20,875.13,15.17S882.66,15.05,884.54,15.02S892.07,14.92,893.95,14.90S901.48,14.81,903.36,14.80S910.89,14.73,912.77,14.72S920.30,14.67,922.18,14.66S929.71,14.63,931.59,14.63S940.06,14.62,941,14.62" style="fill: none; stroke: #00ff00; stroke-width: 1;"></path>
      </g>
      <g>
       <path d="M0,307C0.94,307.00,7.53,306.99,9.41,306.99S16.94,306.96,18.82,306.96S26.35,306.91,28.23,306.90S35.76,306.84,37.64,306.82S45.17,306.74,47.05,306.72S54.58,306.62,56.46,306.60S63.99,306.48,65.87,306.45S73.40,306.32,75.28,306.28S82.81,306.13,84.69,306.08S92.22,305.91,94.10,305.86S101.63,305.67,103.51,305.62S111.04,305.41,112.92,305.35S120.45,305.12,122.33,305.06S129.86,304.81,131.74,304.74S139.27,304.47,141.15,304.40S148.68,304.10,150.56,304.03S158.09,303.71,159.97,303.63S167.50,303.30,169.38,303.21S176.91,302.85,178.79,302.76S186.32,302.38,188.20,302.28S195.73,301.88,197.61,301.78S205.14,301.36,207.02,301.25S214.55,300.80,216.43,300.69S223.96,300.22,225.84,300.10S233.37,299.61,235.25,299.48S242.78,298.96,244.66,298.83S252.19,298.29,254.07,298.15S261.60,297.59,263.48,297.45S271.01,296.86,272.89,296.71S280.42,296.09,282.30,295.94S289.83,295.30,291.71,295.13S299.24,294.47,301.12,294.30S308.65,293.61,310.53,293.43S318.06,292.71,319.94,292.53S327.47,291.79,329.35,291.60S336.88,290.82,338.76,290.63S346.29,289.83,348.17,289.62S355.70,288.79,357.58,288.58S365.11,287.72,366.99,287.51S374.52,286.62,376.40,286.39S383.93,285.47,385.81,285.24S393.34,284.29,395.22,284.05S402.75,283.07,404.63,282.82S412.16,281.81,414.04,281.55S421.57,280.51,423.45,280.24S430.98,279.17,432.86,278.89S440.39,277.78,442.27,277.50S449.80,276.35,451.68,276.06S459.21,274.88,461.09,274.58S468.62,273.36,470.50,273.05S478.03,271.80,479.91,271.48S487.44,270.18,489.32,269.85S496.85,268.52,498.73,268.18S506.26,266.81,508.14,266.46S515.67,265.05,517.55,264.69S525.08,263.24,526.96,262.87S534.49,261.37,536.37,260.99S543.90,259.45,545.78,259.05S553.31,257.47,555.19,257.06S562.72,255.43,564.60,255.01S572.13,253.33,574.01,252.90S581.54,251.17,583.42,250.73S590.95,248.94,592.83,248.49S600.36,246.65,602.24,246.18S609.77,244.29,611.65,243.81S619.18,241.86,621.06,241.37S628.59,239.36,630.47,238.85S638.00,236.78,639.88,236.25S647.41,234.12,649.29,233.57S656.82,231.37,658.70,230.81S666.23,228.54,668.11,227.97S675.64,225.63,677.52,225.03S685.05,222.61,686.93,222.00S694.46,219.50,696.34,218.87S703.87,216.29,705.75,215.63S713.28,212.97,715.16,212.29S722.69,209.53,724.57,208.83S732.10,205.97,733.98,205.24S741.51,202.29,743.39,201.53S750.92,198.46,752.80,197.68S760.33,194.50,762.21,193.68S769.74,190.37,771.62,189.52S779.15,186.08,781.03,185.20S788.56,181.61,790.44,180.69S797.97,176.95,799.85,175.98S807.38,172.07,809.26,171.06S816.79,166.96,818.67,165.90S826.20,161.58,828.08,160.47S835.61,155.92,837.49,154.74S845.02,149.93,846.90,148.68S854.43,143.58,856.31,142.24S863.84,136.79,865.72,135.36S873.25,129.49,875.13,127.95S882.66,121.59,884.54,119.90S892.07,112.93,893.95,111.05S901.48,103.29,903.36,101.16S910.89,92.32,912.77,89.82S920.30,79.38,922.18,76.23S929.71,64.49,931.59,58.33S940.43,19.05,941,14.62" style="fill: none; stroke: #0000ff; stroke-width: 1;"></path>
      </g>
      <g>
       <path d="M0,307C0.94,307.00,7.53,306.95,9.41,306.91S16.94,306.72,18.82,306.65S26.35,306.33,28.23,306.23S35.76,305.77,37.64,305.63S45.17,305.05,47.05,304.88S54.58,304.17,56.46,303.97S63.99,303.13,65.87,302.90S73.40,301.94,75.28,301.69S82.81,300.61,84.69,300.32S92.22,299.13,94.10,298.81S101.63,297.51,103.51,297.16S111.04,295.75,112.92,295.38S120.45,293.86,122.33,293.46S129.86,291.83,131.74,291.41S139.27,289.69,141.15,289.24S148.68,287.41,150.56,286.94S158.09,285.02,159.97,284.52S167.50,282.51,169.38,281.99S176.91,279.89,178.79,279.35S186.32,277.15,188.20,276.59S195.73,274.32,197.61,273.73S205.14,271.37,207.02,270.77S214.55,268.34,216.43,267.71S223.96,265.20,225.84,264.56S233.37,261.97,235.25,261.32S242.78,258.66,244.66,257.98S252.19,255.26,254.07,254.57S261.60,251.78,263.48,251.07S271.01,248.22,272.89,247.49S280.42,244.58,282.30,243.85S289.83,240.88,291.71,240.13S299.24,237.11,301.12,236.34S308.65,233.27,310.53,232.49S318.06,229.37,319.94,228.59S327.47,225.42,329.35,224.62S336.88,221.41,338.76,220.60S346.29,217.36,348.17,216.54S355.70,213.25,357.58,212.43S365.11,209.11,366.99,208.27S374.52,204.92,376.40,204.08S383.93,200.70,385.81,199.85S393.34,196.45,395.22,195.60S402.75,192.17,404.63,191.31S412.16,187.86,414.04,187.00S421.57,183.53,423.45,182.66S430.98,179.19,432.86,178.31S440.39,174.82,442.27,173.95S449.80,170.45,451.68,169.58S459.21,166.07,461.09,165.19S468.62,161.69,470.50,160.81S478.03,157.30,479.91,156.42S487.44,152.92,489.32,152.04S496.85,148.54,498.73,147.67S506.26,144.18,508.14,143.30S515.67,139.82,517.55,138.95S525.08,135.49,526.96,134.62S534.49,131.17,536.37,130.31S543.90,126.88,545.78,126.02S553.31,122.61,555.19,121.76S562.72,118.38,564.60,117.54S572.13,114.18,574.01,113.34S581.54,110.02,583.42,109.19S590.95,105.90,592.83,105.08S600.36,101.82,602.24,101.01S609.77,97.80,611.65,97.00S619.18,93.82,621.06,93.03S628.59,89.90,630.47,89.13S638.00,86.04,639.88,85.28S647.41,82.24,649.29,81.49S656.82,78.51,658.70,77.77S666.23,74.85,668.11,74.13S675.64,71.26,677.52,70.55S685.05,67.74,686.93,67.05S694.46,64.31,696.34,63.64S703.87,60.96,705.75,60.30S713.28,57.70,715.16,57.06S722.69,54.53,724.57,53.91S732.10,51.45,733.98,50.85S741.51,48.47,743.39,47.89S750.92,45.59,752.80,45.03S760.33,42.81,762.21,42.27S769.74,40.15,771.62,39.63S779.15,37.59,781.03,37.10S788.56,35.15,790.44,34.68S797.97,32.83,799.85,32.38S807.38,30.63,809.26,30.21S816.79,28.55,818.67,28.16S826.20,26.61,828.08,26.24S835.61,24.80,837.49,24.45S845.02,23.12,846.90,22.81S854.43,21.58,856.31,21.30S863.84,20.19,865.72,19.93S873.25,18.94,875.13,18.72S882.66,17.85,884.54,17.65S892.07,16.91,893.95,16.74S901.48,16.12,903.36,15.99S910.89,15.49,912.77,15.39S920.30,15.03,922.18,14.97S929.71,14.74,931.59,14.71S940.06,14.62,941,14.62" style="fill: none; stroke: #ff00ff; stroke-width: 1;"></path>
      </g>
     </svg>
     <g>
      <g transform="translate(0,307)">
       <path d="M0,0h941M0,-12V0M19,-6V0M38,-6V0M56,-6V0M75,-6V0M94,-12V0M113,-6V0M132,-6V0M151,-6V0M169,-6V0M188,-12V0M207,-6V0M226,-6V0M245,-6V0M263,-6V0M282,-12V0M301,-6V0M320,-6V0M339,-6V0M358,-6V0M376,-12V0M395,-6V0M414,-6V0M433,-6V0M452,-6V0M471,-12V0M489,-6V0M508,-6V0M527,-6V0M546,-6V0M565,-12V0M583,-6V0M602,-6V0M621,-6V0M640,-6V0M659,-12V0M678,-6V0M696,-6V0M715,-6V0M734,-6V0M753,-12V0M772,-6V0M790,-6V0M809,-6V0M828,-6V0M847,-12V0M866,-6V0M885,-6V0M903,-6V0M922,-6V0M941,-12V0" style="stroke: black; stroke-width: 1;"></path>
       <g font-family="Arial" font-size="13" space="preserve" fill="black" text-anchor="middle">
        <text dy=".8em" transform="translate(0,4)">
         0
        </text>
        <text dy=".8em" transform="translate(94,4)">
         0.1
        </text>
        <text dy=".8em" transform="translate(188,4)">
         0.2
        </text>
        <text dy=".8em" transform="translate(282,4)">
         0.3
        </text>
        <text dy=".8em" transform="translate(376,4)">
         0.4
        </text>
        <text dy=".8em" transform="translate(471,4)">
         0.5
        </text>
        <text dy=".8em" transform="translate(565,4)">
         0.6
        </text>
        <text dy=".8em" transform="translate(659,4)">
         0.7
        </text>
        <text dy=".8em" transform="translate(753,4)">
         0.8
        </text>
        <text dy=".8em" transform="translate(847,4)">
         0.9
        </text>
        <text dy=".8em" transform="translate(941,4)">
         1
        </text>
       </g>
      </g>
      <g>
       <path d="M0,0v307M35,307H0M18,301H0M18,295H0M18,289H0M18,284H0M35,278H0M18,272H0M18,266H0M18,260H0M18,254H0M35,249H0M18,243H0M18,237H0M18,231H0M18,225H0M35,219H0M18,213H0M18,208H0M18,202H0M18,196H0M35,190H0M18,184H0M18,178H0M18,173H0M18,167H0M35,161H0M18,155H0M18,149H0M18,143H0M18,137H0M35,132H0M18,126H0M18,120H0M18,114H0M18,108H0M35,102H0M18,96H0M18,91H0M18,85H0M18,79H0M35,73H0M18,67H0M18,61H0M18,56H0M18,50H0M35,44H0M18,38H0M18,32H0M18,26H0M18,20H0M35,15H0M18,9H0M18,3H0" style="stroke: black; stroke-width: 1;"></path>
       <g font-family="Arial" font-size="13" space="preserve" fill="black" text-anchor="end">
        <text dy=".4em" transform="translate(-2,307)">
         0
        </text>
        <text dy=".4em" transform="translate(-2,278)">
         0.1
        </text>
        <text dy=".4em" transform="translate(-2,249)">
         0.2
        </text>
        <text dy=".4em" transform="translate(-2,219)">
         0.3
        </text>
        <text dy=".4em" transform="translate(-2,190)">
         0.4
        </text>
        <text dy=".4em" transform="translate(-2,161)">
         0.5
        </text>
        <text dy=".4em" transform="translate(-2,132)">
         0.6
        </text>
        <text dy=".4em" transform="translate(-2,102)">
         0.7
        </text>
        <text dy=".4em" transform="translate(-2,73)">
         0.8
        </text>
        <text dy=".4em" transform="translate(-2,44)">
         0.9
        </text>
        <text dy=".4em" transform="translate(-2,15)">
         1
        </text>
       </g>
      </g>
     </g>
    </g>
    <g transform="translate(118,2)" font-family="Arial" font-size="19" space="preserve">
     <text fill="black" text-anchor="middle" dy=".8em" transform="translate(471)">
      TMath::BetaDistI(x, [0], [1])
     </text>
    </g>
    <g transform="translate(823,250)" font-family="Arial" font-size="15" space="preserve">
     <path d="M0,0H235V77H0Z" style="fill: white; stroke: black; stroke-width: 1;"></path>
     <path d="M7,11H52" style="stroke: #ff0000; stroke-width: 1;"></path>
     <text fill="black" text-anchor="start" dy=".4em" transform="translate(59,11)">
      p=0.5  q=0.5
     </text>
     <path d="M7,29H52" style="stroke: #00ff00; stroke-width: 1;"></path>
     <text fill="black" text-anchor="start" dy=".4em" transform="translate(59,29)">
      p=0.5  q=2
     </text>
     <path d="M7,48H52" style="stroke: #0000ff; stroke-width: 1;"></path>
     <text fill="black" text-anchor="start" dy=".4em" transform="translate(59,48)">
      p=2    q=0.5
     </text>
     <path d="M7,66H52" style="stroke: #ff00ff; stroke-width: 1;"></path>
     <text fill="black" text-anchor="start" dy=".4em" transform="translate(59,66)">
      p=2    q=2
     </text>
    </g>
   </g>
  </svg>
 </g>
</svg>