<svg xmlns="http://www.w3.org/2000/svg" viewBox="0 0 598 775" preserveAspectRatio="none" width="598" height="775">
 <path d="M0,0H598V775H0Z" style="fill: white;"></path>
 <g>
  <svg viewBox="0 0 586 372" preserveAspectRatio="none" x="6" y="8" width="586" height="372">
   <path d="M0,0H586V372H0Z" style="fill: white;"></path>
   <g>
    <g transform="translate(59,37)">
     <path d="M0,0H469V298H0Z" style="fill: white; stroke: black; stroke-width: 1;"></path>
     <svg x="0" y="0" overflow="hidden" width="469" height="298" viewBox="0 0 469 298">
      <g>
       <path d="M3,14l4,132l5,41l5,21l4,14l5,10l5,7l5,6l4,4l5,4l5,3l4,3l5,3l5,2l4,2l5,2l5,1l4,1l5,2l5,1l4,1l5,1l5,1l5,1h4l5,1l5,1h4l5,1h5l4,1h5h5l4,1h5h5l5,1h4h5h5l4,1h5h5h4h5h5h4h5h5h5h4h5h5h4h5h5h4h5h5h4l5,-1h5h4h5l5,-1h5h4l5,-1h5h4l5,-1h5l4,-1h5l5,-1l4,-1h5l5,-1l5,-1l4,-1l5,-1l5,-1l4,-2l5,-1l5,-1l4,-2l5,-2l5,-2l4,-3l5,-3l5,-3l4,-4l5,-4l5,-6l5,-7l4,-10l5,-14l5,-21l4,-41l5,-132" style="fill: none; stroke: #ff0000; stroke-width: 1;"></path>
      </g>
      <g>
       <path d="M3,-407l4,315l5,98l5,53l4,34l5,25l5,19l5,15l4,13l5,10l5,9l4,8l5,7l5,7l4,5l5,6l5,4l4,5l5,4l5,4l4,3l5,3l5,3l5,3l4,3l5,3l5,2l4,3l5,2l5,2l4,2l5,2l5,2l4,2l5,2l5,1l5,2l4,2l5,1l5,2l4,1l5,1l5,2l4,1l5,1l5,2l4,1l5,1l5,1l5,1l4,1l5,2l5,1l4,1l5,1l5,1l4,1l5,1l5,1h4l5,1l5,1l4,1l5,1l5,1l5,1h4l5,1l5,1l4,1l5,1h5l4,1l5,1h5l4,1l5,1l5,1h5l4,1l5,1h5l4,1h5l5,1l4,1h5l5,1h4l5,1l5,1h4l5,1h5l5,1h4l5,1l5,1h4l5,1" style="fill: none; stroke: #00ff00; stroke-width: 1;"></path>
      </g>
      <g>
       <path d="M3,329l4,-1h5l5,-1l4,-1h5l5,-1h5l4,-1h5l5,-1l4,-1h5l5,-1h4l5,-1l5,-1h4l5,-1h5l4,-1l5,-1h5l5,-1l4,-1l5,-1h5l4,-1l5,-1h5l4,-1l5,-1l5,-1l4,-1h5l5,-1l5,-1l4,-1l5,-1l5,-1l4,-1h5l5,-1l4,-1l5,-1l5,-1l4,-1l5,-1l5,-1l5,-2l4,-1l5,-1l5,-1l4,-1l5,-1l5,-2l4,-1l5,-1l5,-2l4,-1l5,-1l5,-2l4,-1l5,-2l5,-2l5,-1l4,-2l5,-2l5,-2l4,-2l5,-2l5,-2l4,-2l5,-3l5,-2l4,-3l5,-3l5,-3l5,-3l4,-3l5,-3l5,-4l4,-4l5,-5l5,-4l4,-6l5,-5l5,-7l4,-7l5,-8l5,-9l4,-10l5,-13l5,-15l5,-19l4,-25l5,-34l5,-53l4,-98l5,-315" style="fill: none; stroke: #0000ff; stroke-width: 1;"></path>
      </g>
      <g>
       <path d="M3,327l4,-4l5,-4l5,-4l4,-4l5,-4l5,-4l5,-3l4,-4l5,-3l5,-3l4,-4l5,-3l5,-3l4,-3l5,-3l5,-3l4,-3l5,-2l5,-3l4,-2l5,-3l5,-2l5,-2l4,-3l5,-2l5,-2l4,-2l5,-1l5,-2l4,-2l5,-1l5,-2l4,-1l5,-2l5,-1l5,-1l4,-1l5,-1l5,-1l4,-1l5,-1h5l4,-1h5l5,-1h4h5l5,-1h5h4h5l5,1h4h5l5,1h4l5,1h5l4,1l5,1l5,1l4,1l5,1l5,1l5,1l4,2l5,1l5,2l4,1l5,2l5,2l4,1l5,2l5,2l4,2l5,3l5,2l5,2l4,3l5,2l5,3l4,2l5,3l5,3l4,3l5,3l5,3l4,3l5,4l5,3l4,3l5,4l5,3l5,4l4,4l5,4l5,4l4,4l5,4" style="fill: none; stroke: #ff00ff; stroke-width: 1;"></path>
      </g>
     </svg>
     <g>
      <g transform="translate(0,298)">
       <path d="M0,0h469M0,-9V0M9,-5V0M19,-5V0M28,-5V0M38,-5V0M47,-9V0M56,-5V0M66,-5V0M75,-5V0M84,-5V0M94,-9V0M103,-5V0M113,-5V0M122,-5V0M131,-5V0M141,-9V0M150,-5V0M159,-5V0M169,-5V0M178,-5V0M188,-9V0M197,-5V0M206,-5V0M216,-5V0M225,-5V0M235,-9V0M244,-5V0M253,-5V0M263,-5V0M272,-5V0M281,-9V0M291,-5V0M300,-5V0M310,-5V0M319,-5V0M328,-9V0M338,-5V0M347,-5V0M356,-5V0M366,-5V0M375,-9V0M385,-5V0M394,-5V0M403,-5V0M413,-5V0M422,-9V0M431,-5V0M441,-5V0M450,-5V0M460,-5V0M469,-9V0" style="stroke: black; stroke-width: 1;"></path>
       <g font-family="Arial" font-size="13" space="preserve" fill="black" text-anchor="middle">
        <text dy=".8em" transform="translate(0,3)">
         0
        </text>
        <text dy=".8em" transform="translate(47,3)">
         0.1
        </text>
        <text dy=".8em" transform="translate(94,3)">
         0.2
        </text>
        <text dy=".8em" transform="translate(141,3)">
         0.3
        </text>
        <text dy=".8em" transform="translate(188,3)">
         0.4
        </text>
        <text dy=".8em" transform="translate(235,3)">
         0.5
        </text>
        <text dy=".8em" transform="translate(281,3)">
         0.6
        </text>
        <text dy=".8em" transform="translate(328,3)">
         0.7
        </text>
        <text dy=".8em" transform="translate(375,3)">
         0.8
        </text>
        <text dy=".8em" transform="translate(422,3)">
         0.9
        </text>
        <text dy=".8em" transform="translate(469,3)">
         1
        </text>
       </g>
      </g>
      <g>
       <path d="M0,0v298M14,294H0M7,287H0M7,280H0M7,273H0M7,266H0M14,259H0M7,252H0M7,245H0M7,238H0M7,231H0M14,224H0M7,217H0M7,210H0M7,203H0M7,196H0M14,189H0M7,182H0M7,175H0M7,168H0M7,162H0M14,155H0M7,148H0M7,141H0M7,134H0M7,127H0M14,120H0M7,113H0M7,106H0M7,99H0M7,92H0M14,85H0M7,78H0M7,71H0M7,64H0M7,57H0M14,50H0M7,43H0M7,36H0M7,29H0M7,22H0M14,15H0M7,8H0M7,1H0" style="stroke: black; stroke-width: 1;"></path>
       <g font-family="Arial" font-size="13" space="preserve" fill="black" text-anchor="end">
        <text dy=".4em" transform="translate(-3,294)">
         0.5
        </text>
        <text dy=".4em" transform="translate(-3,259)">
         1
        </text>
        <text dy=".4em" transform="translate(-3,224)">
         1.5
        </text>
        <text dy=".4em" transform="translate(-3,189)">
         2
        </text>
        <text dy=".4em" transform="translate(-3,155)">
         2.5
        </text>
        <text dy=".4em" transform="translate(-3,120)">
         3
        </text>
        <text dy=".4em" transform="translate(-3,85)">
         3.5
        </text>
        <text dy=".4em" transform="translate(-3,50)">
         4
        </text>
        <text dy=".4em" transform="translate(-3,15)">
         4.5
        </text>
       </g>
      </g>
      <path d="M0,0v298M47,0v298M94,0v298M141,0v298M188,0v298M235,0v298M281,0v298M328,0v298M375,0v298M422,0v298M469,0v298" style="stroke: black; stroke-width: 1; stroke-dasharray: 1,2;"></path>
      <path d="M0,294h469M0,259h469M0,224h469M0,189h469M0,155h469M0,120h469M0,85h469M0,50h469M0,15h469" style="stroke: black; stroke-width: 1; stroke-dasharray: 1,2;"></path>
     </g>
    </g>
    <g transform="translate(59,2)" font-family="Arial" font-size="19" space="preserve">
     <text fill="black" text-anchor="middle" dy=".8em" transform="translate(235)">
      TMath::BetaDist(x, [0], [1])
     </text>
    </g>
    <g transform="translate(293,37)" font-family="Arial" font-size="14" space="preserve">
     <path d="M0,0H176V74H0Z" style="fill: white; stroke: black; stroke-width: 1;"></path>
     <path d="M5,11H39" style="stroke: #ff0000; stroke-width: 1;"></path>
     <text fill="black" text-anchor="start" dy=".4em" transform="translate(44,11)">
      p=0.5  q=0.5
     </text>
     <path d="M5,28H39" style="stroke: #00ff00; stroke-width: 1;"></path>
     <text fill="black" text-anchor="start" dy=".4em" transform="translate(44,29)">
      p=0.5  q=2
     </text>
     <path d="M5,46H39" style="stroke: #0000ff; stroke-width: 1;"></path>
     <text fill="black" text-anchor="start" dy=".4em" transform="translate(44,46)">
      p=2    q=0.5
     </text>
     <path d="M5,63H39" style="stroke: #ff00ff; stroke-width: 1;"></path>
     <text fill="black" text-anchor="start" dy=".4em" transform="translate(44,64)">
      p=2    q=2
     </text>
    </g>
   </g>
  </svg>
  <svg viewBox="0 0 586 372" preserveAspectRatio="none" x="6" y="395" width="586" height="372">
   <path d="M0,0H586V372H0Z" style="fill: white;"></path>
   <g>
    <g transform="translate(59,37)">
     <path d="M0,0H469V298H0Z" style="fill: white; stroke: black; stroke-width: 1;"></path>
     <svg x="0" y="0" overflow="hidden" width="469" height="298" viewBox="0 0 469 298">
      <g>
       <path d="M3,285l4,-10l5,-7l5,-6l4,-4l5,-5l5,-4l5,-3l4,-4l5,-3l5,-3l4,-3l5,-3l5,-3l4,-3l5,-3l5,-2l4,-3l5,-2l5,-3l4,-2l5,-2l5,-3l5,-2l4,-2l5,-2l5,-2l4,-2l5,-3l5,-2l4,-2l5,-2l5,-2l4,-2l5,-2l5,-2l5,-2l4,-2l5,-2l5,-2l4,-2l5,-1l5,-2l4,-2l5,-2l5,-2l4,-2l5,-2l5,-2l5,-2l4,-2l5,-1l5,-2l4,-2l5,-2l5,-2l4,-2l5,-2l5,-2l4,-2l5,-2l5,-2l4,-2l5,-1l5,-2l5,-2l4,-2l5,-2l5,-2l4,-3l5,-2l5,-2l4,-2l5,-2l5,-2l4,-2l5,-2l5,-3l5,-2l4,-2l5,-3l5,-2l4,-3l5,-2l5,-3l4,-2l5,-3l5,-3l4,-3l5,-3l5,-3l4,-3l5,-4l5,-3l5,-4l4,-5l5,-5l5,-5l4,-7l5,-10" style="fill: none; stroke: #ff0000; stroke-width: 1;"></path>
      </g>
      <g>
       <path d="M3,267l4,-23l5,-16l5,-12l4,-11l5,-10l5,-8l5,-8l4,-7l5,-7l5,-6l4,-6l5,-6l5,-5l4,-6l5,-4l5,-5l4,-5l5,-4l5,-4l4,-4l5,-4l5,-4l5,-3l4,-4l5,-3l5,-3l4,-3l5,-3l5,-3l4,-3l5,-3l5,-3l4,-2l5,-3l5,-2l5,-3l4,-2l5,-2l5,-2l4,-2l5,-2l5,-2l4,-2l5,-2l5,-2l4,-2l5,-2l5,-1l5,-2l4,-1l5,-2l5,-1l4,-2l5,-1l5,-2l4,-1l5,-1l5,-1l4,-2l5,-1l5,-1l4,-1l5,-1l5,-1l5,-1l4,-1l5,-1l5,-1l4,-1h5l5,-1l4,-1l5,-1h5l4,-1h5l5,-1l5,-1h4l5,-1h5l4,-1h5h5l4,-1h5h5l4,-1h5h5h4l5,-1h5h5h4h5h5h4h5" style="fill: none; stroke: #00ff00; stroke-width: 1;"></path>
      </g>
      <g>
       <path d="M3,298h4h5h5h4h5h5l5,-1h4h5h5l4,-1h5h5h4l5,-1h5l4,-1h5l5,-1h4l5,-1h5l5,-1h4l5,-1l5,-1h4l5,-1l5,-1l4,-1h5l5,-1l4,-1l5,-1l5,-1l5,-1l4,-1l5,-1l5,-1l4,-2l5,-1l5,-1l4,-1l5,-2l5,-1l4,-1l5,-2l5,-1l5,-2l4,-1l5,-2l5,-2l4,-1l5,-2l5,-2l4,-2l5,-2l5,-2l4,-2l5,-2l5,-2l4,-2l5,-3l5,-2l5,-2l4,-3l5,-3l5,-2l4,-3l5,-3l5,-3l4,-3l5,-3l5,-3l4,-4l5,-3l5,-4l5,-3l4,-4l5,-4l5,-4l4,-5l5,-4l5,-5l4,-5l5,-5l5,-5l4,-6l5,-6l5,-6l4,-7l5,-7l5,-8l5,-9l4,-9l5,-11l5,-12l4,-16l5,-23" style="fill: none; stroke: #0000ff; stroke-width: 1;"></path>
      </g>
      <g>
       <path d="M3,298h4l5,-1h5l4,-1l5,-1l5,-1l5,-1l4,-1l5,-2l5,-1l4,-2l5,-2l5,-2l4,-2l5,-2l5,-3l4,-2l5,-3l5,-2l4,-3l5,-3l5,-3l5,-4l4,-3l5,-3l5,-4l4,-3l5,-4l5,-3l4,-4l5,-4l5,-4l4,-4l5,-4l5,-4l5,-4l4,-4l5,-4l5,-4l4,-5l5,-4l5,-4l4,-5l5,-4l5,-5l4,-4l5,-4l5,-5l5,-4l4,-5l5,-4l5,-5l4,-4l5,-5l5,-4l4,-4l5,-5l5,-4l4,-4l5,-5l5,-4l4,-4l5,-4l5,-4l5,-4l4,-4l5,-4l5,-4l4,-4l5,-4l5,-4l4,-3l5,-4l5,-3l4,-3l5,-4l5,-3l5,-3l4,-3l5,-3l5,-2l4,-3l5,-3l5,-2l4,-2l5,-2l5,-2l4,-2l5,-2l5,-2l4,-1l5,-1l5,-2l5,-1h4l5,-1l5,-1h4h5" style="fill: none; stroke: #ff00ff; stroke-width: 1;"></path>
      </g>
     </svg>
     <g>
      <g transform="translate(0,298)">
       <path d="M0,0h469M0,-9V0M9,-5V0M19,-5V0M28,-5V0M38,-5V0M47,-9V0M56,-5V0M66,-5V0M75,-5V0M84,-5V0M94,-9V0M103,-5V0M113,-5V0M122,-5V0M131,-5V0M141,-9V0M150,-5V0M159,-5V0M169,-5V0M178,-5V0M188,-9V0M197,-5V0M206,-5V0M216,-5V0M225,-5V0M235,-9V0M244,-5V0M253,-5V0M263,-5V0M272,-5V0M281,-9V0M291,-5V0M300,-5V0M310,-5V0M319,-5V0M328,-9V0M338,-5V0M347,-5V0M356,-5V0M366,-5V0M375,-9V0M385,-5V0M394,-5V0M403,-5V0M413,-5V0M422,-9V0M431,-5V0M441,-5V0M450,-5V0M460,-5V0M469,-9V0" style="stroke: black; stroke-width: 1;"></path>
       <g font-family="Arial" font-size="13" space="preserve" fill="black" text-anchor="middle">
        <text dy=".8em" transform="translate(0,3)">
         0
        </text>
        <text dy=".8em" transform="translate(47,3)">
         0.1
        </text>
        <text dy=".8em" transform="translate(94,3)">
         0.2
        </text>
        <text dy=".8em" transform="translate(141,3)">
         0.3
        </text>
        <text dy=".8em" transform="translate(188,3)">
         0.4
        </text>
        <text dy=".8em" transform="translate(235,3)">
         0.5
        </text>
        <text dy=".8em" transform="translate(281,3)">
         0.6
        </text>
        <text dy=".8em" transform="translate(328,3)">
         0.7
        </text>
        <text dy=".8em" transform="translate(375,3)">
         0.8
        </text>
        <text dy=".8em" transform="translate(422,3)">
         0.9
        </text>
        <text dy=".8em" transform="translate(469,3)">
         1
        </text>
       </g>
      </g>
      <g>
       <path d="M0,0v298M14,298H0M7,292H0M7,286H0M7,280H0M7,274H0M14,268H0M7,262H0M7,256H0M7,250H0M7,245H0M14,239H0M7,233H0M7,227H0M7,221H0M7,215H0M14,209H0M7,203H0M7,197H0M7,191H0M7,185H0M14,179H0M7,173H0M7,167H0M7,161H0M7,155H0M14,149H0M7,143H0M7,138H0M7,132H0M7,126H0M14,120H0M7,114H0M7,108H0M7,102H0M7,96H0M14,90H0M7,84H0M7,78H0M7,72H0M7,66H0M14,60H0M7,54H0M7,48H0M7,42H0M7,36H0M14,31H0M7,25H0M7,19H0M7,13H0M7,7H0M14,1H0" style="stroke: black; stroke-width: 1;"></path>
       <g font-family="Arial" font-size="13" space="preserve" fill="black" text-anchor="end">
        <text dy=".4em" transform="translate(-3,298)">
         0
        </text>
        <text dy=".4em" transform="translate(-3,268)">
         0.1
        </text>
        <text dy=".4em" transform="translate(-3,239)">
         0.2
        </text>
        <text dy=".4em" transform="translate(-3,209)">
         0.3
        </text>
        <text dy=".4em" transform="translate(-3,179)">
         0.4
        </text>
        <text dy=".4em" transform="translate(-3,149)">
         0.5
        </text>
        <text dy=".4em" transform="translate(-3,120)">
         0.6
        </text>
        <text dy=".4em" transform="translate(-3,90)">
         0.7
        </text>
        <text dy=".4em" transform="translate(-3,60)">
         0.8
        </text>
        <text dy=".4em" transform="translate(-3,31)">
         0.9
        </text>
        <text dy=".4em" transform="translate(-3,1)">
         1
        </text>
       </g>
      </g>
      <path d="M0,0v298M47,0v298M94,0v298M141,0v298M188,0v298M235,0v298M281,0v298M328,0v298M375,0v298M422,0v298M469,0v298" style="stroke: black; stroke-width: 1; stroke-dasharray: 1,2;"></path>
      <path d="M0,298h469M0,268h469M0,239h469M0,209h469M0,179h469M0,149h469M0,120h469M0,90h469M0,60h469M0,31h469M0,1h469" style="stroke: black; stroke-width: 1; stroke-dasharray: 1,2;"></path>
     </g>
    </g>
    <g transform="translate(59,2)" font-family="Arial" font-size="19" space="preserve">
     <text fill="black" text-anchor="middle" dy=".8em" transform="translate(235)">
      TMath::BetaDistI(x, [0], [1])
     </text>
    </g>
    <g transform="translate(410,242)" font-family="Arial" font-size="11" space="preserve">
     <path d="M0,0H117V74H0Z" style="fill: white; stroke: black; stroke-width: 1;"></path>
     <path d="M4,11H25" style="stroke: #ff0000; stroke-width: 1;"></path>
     <text fill="black" text-anchor="start" dy=".4em" transform="translate(29,11)">
      p=0.5  q=0.5
     </text>
     <path d="M4,28H25" style="stroke: #00ff00; stroke-width: 1;"></path>
     <text fill="black" text-anchor="start" dy=".4em" transform="translate(29,29)">
      p=0.5  q=2
     </text>
     <path d="M4,46H25" style="stroke: #0000ff; stroke-width: 1;"></path>
     <text fill="black" text-anchor="start" dy=".4em" transform="translate(29,46)">
      p=2    q=0.5
     </text>
     <path d="M4,63H25" style="stroke: #ff00ff; stroke-width: 1;"></path>
     <text fill="black" text-anchor="start" dy=".4em" transform="translate(29,64)">
      p=2    q=2
     </text>
    </g>
   </g>
  </svg>
 </g>
</svg>