<svg xmlns="http://www.w3.org/2000/svg" viewBox="0 0 598 775" preserveAspectRatio="none" width="598" height="775">
 <path d="M0,0H598V775H0Z" style="fill: white;"></path>
 <g>
  <svg viewBox="0 0 586 372" preserveAspectRatio="none" x="6" y="8" width="586" height="372">
   <path d="M0,0H586V372H0Z" style="fill: white;"></path>
   <g>
    <g transform="translate(59,37)">
     <path d="M0,0H469V298H0Z" style="fill: white; stroke: black; stroke-width: 1;"></path>
     <svg x="0" y="0" overflow="hidden" width="469" height="298" viewBox="0 0 469 298">
      <g>
       <path d="M3,14l4,132l5,41l5,21l4,14l5,10l5,7l5,6l4,4l5,4l5,3l4,3l5,3l5,2l4,2l5,2l5,1l4,1l5,2l5,1l4,1l5,1l5,1l5,1h4l5,1l5,1h4l5,1h5l4,1h5h5l4,1h5h5l5,1h4h5h5l4,1h5h5h4h5h5h4h5h5h5h4h5h5h4h5h5h4h5h5h4l5,-1h5h4h5l5,-1h5h4l5,-1h5h4l5,-1h5l4,-1h5l5,-1l4,-1h5l5,-1l5,-1l4,-1l5,-1l5,-1l4,-2l5,-1l5,-1l4,-2l5,-2l5,-2l4,-3l5,-3l5,-3l4,-4l5,-4l5,-6l5,-7l4,-10l5,-14l5,-21l4,-41l5,-132" style="fill: none; stroke: #ff0000; stroke-width: 1;"></path>
      </g>
      <g>
       <path d="M3,-407l4,315l5,98l5,53l4,34l5,25l5,19l5,15l4,13l5,10l5,9l4,8l5,7l5,7l4,5l5,6l5,4l4,5l5,4l5,4l4,3l5,3l5,3l5,3l4,3l5,3l5,2l4,3l5,2l5,2l4,2l5,2l5,2l4,2l5,2l5,1l5,2l4,2l5,1l5,2l4,1l5,1l5,2l4,1l5,1l5,2l4,1l5,1l5,1l5,1l4,1l5,2l5,1l4,1l5,1l5,1l4,1l5,1l5,1h4l5,1l5,1l4,1l5,1l5,1l5,1h4l5,1l5,1l4,1l5,1h5l4,1l5,1h5l4,1l5,1l5,1h5l4,1l5,1h5l4,1h5l5,1l4,1h5l5,1h4l5,1l5,1h4l5,1h5l5,1h4l5,1l5,1h4l5,1" style="fill: none; stroke: #00ff00; stroke-width: 1;"></path>
      </g>
      <g>
       <path d="M3,329l4,-1h5l5,-1l4,-1h5l5,-1h5l4,-1h5l5,-1l4,-1h5l5,-1h4l5,-1l5,-1h4l5,-1h5l4,-1l5,-1h5l5,-1l4,-1l5,-1h5l4,-1l5,-1h5l4,-1l5,-1l5,-1l4,-1h5l5,-1l5,-1l4,-1l5,-1l5,-1l4,-1h5l5,-1l4,-1l5,-1l5,-1l4,-1l5,-1l5,-1l5,-2l4,-1l5,-1l5,-1l4,-1l5,-1l5,-2l4,-1l5,-1l5,-2l4,-1l5,-1l5,-2l4,-1l5,-2l5,-2l5,-1l4,-2l5,-2l5,-2l4,-2l5,-2l5,-2l4,-2l5,-3l5,-2l4,-3l5,-3l5,-3l5,-3l4,-3l5,-3l5,-4l4,-4l5,-5l5,-4l4,-6l5,-5l5,-7l4,-7l5,-8l5,-9l4,-10l5,-13l5,-15l5,-19l4,-25l5,-34l5,-53l4,-98l5,-315" style="fill: none; stroke: #0000ff; stroke-width: 1;"></path>
      </g>
      <g>
       <path d="M3,327l4,-4l5,-4l5,-4l4,-4l5,-4l5,-4l5,-3l4,-4l5,-3l5,-3l4,-4l5,-3l5,-3l4,-3l5,-3l5,-3l4,-3l5,-2l5,-3l4,-2l5,-3l5,-2l5,-2l4,-3l5,-2l5,-2l4,-2l5,-1l5,-2l4,-2l5,-1l5,-2l4,-1l5,-2l5,-1l5,-1l4,-1l5,-1l5,-1l4,-1l5,-1h5l4,-1h5l5,-1h4h5l5,-1h5h4h5l5,1h4h5l5,1h4l5,1h5l4,1l5,1l5,1l4,1l5,1l5,1l5,1l4,2l5,1l5,2l4,1l5,2l5,2l4,1l5,2l5,2l4,2l5,3l5,2l5,2l4,3l5,2l5,3l4,2l5,3l5,3l4,3l5,3l5,3l4,3l5,4l5,3l4,3l5,4l5,3l5,4l4,4l5,4l5,4l4,4l5,4" style="fill: none; stroke: #ff00ff; stroke-width: 1;"></path>
      </g>
     </svg>
     <g>
      <g transform="translate(0,298)">
       <path d="M0,0h469M0,-11V0M9,-6V0M19,-6V0M28,-6V0M38,-6V0M47,-11V0M56,-6V0M66,-6V0M75,-6V0M84,-6V0M94,-11V0M103,-6V0M113,-6V0M122,-6V0M131,-6V0M141,-11V0M150,-6V0M159,-6V0M169,-6V0M178,-6V0M188,-11V0M197,-6V0M206,-6V0M216,-6V0M225,-6V0M235,-11V0M244,-6V0M253,-6V0M263,-6V0M272,-6V0M281,-11V0M291,-6V0M300,-6V0M310,-6V0M319,-6V0M328,-11V0M338,-6V0M347,-6V0M356,-6V0M366,-6V0M375,-11V0M385,-6V0M394,-6V0M403,-6V0M413,-6V0M422,-11V0M431,-6V0M441,-6V0M450,-6V0M460,-6V0M469,-11V0" style="stroke: black; stroke-width: 1;"></path>
       <g font-family="Arial" font-size="13" space="preserve" fill="black" text-anchor="middle">
        <text dy=".8em" transform="translate(0,3)">
         0
        </text>
        <text dy=".8em" transform="translate(47,3)">
         0.1
        </text>
        <text dy=".8em" transform="translate(94,3)">
         0.2
        </text>
        <text dy=".8em" transform="translate(141,3)">
         0.3
        </text>
        <text dy=".8em" transform="translate(188,3)">
         0.4
        </text>
        <text dy=".8em" transform="translate(235,3)">
         0.5
        </text>
        <text dy=".8em" transform="translate(281,3)">
         0.6
        </text>
        <text dy=".8em" transform="translate(328,3)">
         0.7
        </text>
        <text dy=".8em" transform="translate(375,3)">
         0.8
        </text>
        <text dy=".8em" transform="translate(422,3)">
         0.9
        </text>
        <text dy=".8em" transform="translate(469,3)">
         1
        </text>
       </g>
      </g>
      <g>
       <path d="M0,0v298M18,294H0M9,287H0M9,280H0M9,273H0M9,266H0M18,259H0M9,252H0M9,245H0M9,238H0M9,231H0M18,224H0M9,217H0M9,210H0M9,203H0M9,196H0M18,189H0M9,182H0M9,175H0M9,168H0M9,162H0M18,155H0M9,148H0M9,141H0M9,134H0M9,127H0M18,120H0M9,113H0M9,106H0M9,99H0M9,92H0M18,85H0M9,78H0M9,71H0M9,64H0M9,57H0M18,50H0M9,43H0M9,36H0M9,29H0M9,22H0M18,15H0M9,8H0M9,1H0" style="stroke: black; stroke-width: 1;"></path>
       <g font-family="Arial" font-size="13" space="preserve" fill="black" text-anchor="end">
        <text dy=".4em" transform="translate(-3,294)">
         0.5
        </text>
        <text dy=".4em" transform="translate(-3,259)">
         1
        </text>
        <text dy=".4em" transform="translate(-3,224)">
         1.5
        </text>
        <text dy=".4em" transform="translate(-3,189)">
         2
        </text>
        <text dy=".4em" transform="translate(-3,155)">
         2.5
        </text>
        <text dy=".4em" transform="translate(-3,120)">
         3
        </text>
        <text dy=".4em" transform="translate(-3,85)">
         3.5
        </text>
        <text dy=".4em" transform="translate(-3,50)">
         4
        </text>
        <text dy=".4em" transform="translate(-3,15)">
         4.5
        </text>
       </g>
      </g>
      <path d="M0,0v298M47,0v298M94,0v298M141,0v298M188,0v298M235,0v298M281,0v298M328,0v298M375,0v298M422,0v298M469,0v298" style="stroke: black; stroke-width: 1; stroke-dasharray: 1,2;"></path>
      <path d="M0,294h469M0,259h469M0,224h469M0,189h469M0,155h469M0,120h469M0,85h469M0,50h469M0,15h469" style="stroke: black; stroke-width: 1; stroke-dasharray: 1,2;"></path>
     </g>
    </g>
    <g transform="translate(59,2)" font-family="Arial" font-size="19" space="preserve">
     <text fill="black" text-anchor="middle" dy=".8em" transform="translate(235)">
      TMath::BetaDist(x, [0], [1])
     </text>
    </g>
    <g transform="translate(293,37)" font-family="Arial" font-size="14" space="preserve">
     <path d="M0,0H176V74H0Z" style="fill: white; stroke: black; stroke-width: 1;"></path>
     <path d="M5,11H39" style="stroke: #ff0000; stroke-width: 1;"></path>
     <text fill="black" text-anchor="start" dy=".4em" transform="translate(44,11)">
      p=0.5  q=0.5
     </text>
     <path d="M5,28H39" style="stroke: #00ff00; stroke-width: 1;"></path>
     <text fill="black" text-anchor="start" dy=".4em" transform="translate(44,29)">
      p=0.5  q=2
     </text>
     <path d="M5,46H39" style="stroke: #0000ff; stroke-width: 1;"></path>
     <text fill="black" text-anchor="start" dy=".4em" transform="translate(44,46)">
      p=2    q=0.5
     </text>
     <path d="M5,63H39" style="stroke: #ff00ff; stroke-width: 1;"></path>
     <text fill="black" text-anchor="start" dy=".4em" transform="translate(44,64)">
      p=2    q=2
     </text>
    </g>
   </g>
  </svg>
  <svg viewBox="0 0 586 372" preserveAspectRatio="none" x="6" y="395" width="586" height="372">
   <path d="M0,0H586V372H0Z" style="fill: white;"></path>
   <g>
    <g transform="translate(59,37)">
     <path d="M0,0H469V298H0Z" style="fill: white; stroke: black; stroke-width: 1;"></path>
     <svg x="0" y="0" overflow="hidden" width="469" height="298" viewBox="0 0 469 298">
      <g>
       <path d="M3,285l4,-10l5,-7l5,-6l4,-4l5,-5l5,-4l5,-3l4,-4l5,-3l5,-3l4,-3l5,-3l5,-3l4,-3l5,-3l5,-2l4,-3l5,-2l5,-3l4,-2l5,-2l5,-3l5,-2l4,-2l5,-2l5,-2l4,-2l5,-3l5,-2l4,-2l5,-2l5,-2l4,-2l5,-2l5,-2l5,-2l4,-2l5,-2l5,-2l4,-2l5,-1l5,-2l4,-2l5,-2l5,-2l4,-2l5,-2l5,-2l5,-2l4,-2l5,-1l5,-2l4,-2l5,-2l5,-2l4,-2l5,-2l5,-2l4,-2l5,-2l5,-2l4,-2l5,-1l5,-2l5,-2l4,-2l5,-2l5,-2l4,-3l5,-2l5,-2l4,-2l5,-2l5,-2l4,-2l5,-2l5,-3l5,-2l4,-2l5,-3l5,-2l4,-3l5,-2l5,-3l4,-2l5,-3l5,-3l4,-3l5,-3l5,-3l4,-3l5,-4l5,-3l5,-4l4,-5l5,-5l5,-5l4,-7l5,-10" style="fill: none; stroke: #ff0000; stroke-width: 1;"></path>
      </g>
      <g>
       <path d="M3,267l4,-23l5,-16l5,-12l4,-11l5,-10l5,-8l5,-8l4,-7l5,-7l5,-6l4,-6l5,-6l5,-5l4,-6l5,-4l5,-5l4,-5l5,-4l5,-4l4,-4l5,-4l5,-4l5,-3l4,-4l5,-3l5,-3l4,-3l5,-3l5,-3l4,-3l5,-3l5,-3l4,-2l5,-3l5,-2l5,-3l4,-2l5,-2l5,-2l4,-2l5,-2l5,-2l4,-2l5,-2l5,-2l4,-2l5,-2l5,-1l5,-2l4,-1l5,-2l5,-1l4,-2l5,-1l5,-2l4,-1l5,-1l5,-1l4,-2l5,-1l5,-1l4,-1l5,-1l5,-1l5,-1l4,-1l5,-1l5,-1l4,-1h5l5,-1l4,-1l5,-1h5l4,-1h5l5,-1l5,-1h4l5,-1h5l4,-1h5h5l4,-1h5h5l4,-1h5h5h4l5,-1h5h5h4h5h5h4h5" style="fill: none; stroke: #00ff00; stroke-width: 1;"></path>
      </g>
      <g>
       <path d="M3,298h4h5h5h4h5h5l5,-1h4h5h5l4,-1h5h5h4l5,-1h5l4,-1h5l5,-1h4l5,-1h5l5,-1h4l5,-1l5,-1h4l5,-1l5,-1l4,-1h5l5,-1l4,-1l5,-1l5,-1l5,-1l4,-1l5,-1l5,-1l4,-2l5,-1l5,-1l4,-1l5,-2l5,-1l4,-1l5,-2l5,-1l5,-2l4,-1l5,-2l5,-2l4,-1l5,-2l5,-2l4,-2l5,-2l5,-2l4,-2l5,-2l5,-2l4,-2l5,-3l5,-2l5,-2l4,-3l5,-3l5,-2l4,-3l5,-3l5,-3l4,-3l5,-3l5,-3l4,-4l5,-3l5,-4l5,-3l4,-4l5,-4l5,-4l4,-5l5,-4l5,-5l4,-5l5,-5l5,-5l4,-6l5,-6l5,-6l4,-7l5,-7l5,-8l5,-9l4,-9l5,-11l5,-12l4,-16l5,-23" style="fill: none; stroke: #0000ff; stroke-width: 1;"></path>
      </g>
      <g>
       <path d="M3,298h4l5,-1h5l4,-1l5,-1l5,-1l5,-1l4,-1l5,-2l5,-1l4,-2l5,-2l5,-2l4,-2l5,-2l5,-3l4,-2l5,-3l5,-2l4,-3l5,-3l5,-3l5,-4l4,-3l5,-3l5,-4l4,-3l5,-4l5,-3l4,-4l5,-4l5,-4l4,-4l5,-4l5,-4l5,-4l4,-4l5,-4l5,-4l4,-5l5,-4l5,-4l4,-5l5,-4l5,-5l4,-4l5,-4l5,-5l5,-4l4,-5l5,-4l5,-5l4,-4l5,-5l5,-4l4,-4l5,-5l5,-4l4,-4l5,-5l5,-4l4,-4l5,-4l5,-4l5,-4l4,-4l5,-4l5,-4l4,-4l5,-4l5,-4l4,-3l5,-4l5,-3l4,-3l5,-4l5,-3l5,-3l4,-3l5,-3l5,-2l4,-3l5,-3l5,-2l4,-2l5,-2l5,-2l4,-2l5,-2l5,-2l4,-1l5,-1l5,-2l5,-1h4l5,-1l5,-1h4h5" style="fill: none; stroke: #ff00ff; stroke-width: 1;"></path>
      </g>
     </svg>
     <g>
      <g transform="translate(0,298)">
       <path d="M0,0h469M0,-11V0M9,-6V0M19,-6V0M28,-6V0M38,-6V0M47,-11V0M56,-6V0M66,-6V0M75,-6V0M84,-6V0M94,-11V0M103,-6V0M113,-6V0M122,-6V0M131,-6V0M141,-11V0M150,-6V0M159,-6V0M169,-6V0M178,-6V0M188,-11V0M197,-6V0M206,-6V0M216,-6V0M225,-6V0M235,-11V0M244,-6V0M253,-6V0M263,-6V0M272,-6V0M281,-11V0M291,-6V0M300,-6V0M310,-6V0M319,-6V0M328,-11V0M338,-6V0M347,-6V0M356,-6V0M366,-6V0M375,-11V0M385,-6V0M394,-6V0M403,-6V0M413,-6V0M422,-11V0M431,-6V0M441,-6V0M450,-6V0M460,-6V0M469,-11V0" style="stroke: black; stroke-width: 1;"></path>
       <g font-family="Arial" font-size="13" space="preserve" fill="black" text-anchor="middle">
        <text dy=".8em" transform="translate(0,3)">
         0
        </text>
        <text dy=".8em" transform="translate(47,3)">
         0.1
        </text>
        <text dy=".8em" transform="translate(94,3)">
         0.2
        </text>
        <text dy=".8em" transform="translate(141,3)">
         0.3
        </text>
        <text dy=".8em" transform="translate(188,3)">
         0.4
        </text>
        <text dy=".8em" transform="translate(235,3)">
         0.5
        </text>
        <text dy=".8em" transform="translate(281,3)">
         0.6
        </text>
        <text dy=".8em" transform="translate(328,3)">
         0.7
        </text>
        <text dy=".8em" transform="translate(375,3)">
         0.8
        </text>
        <text dy=".8em" transform="translate(422,3)">
         0.9
        </text>
        <text dy=".8em" transform="translate(469,3)">
         1
        </text>
       </g>
      </g>
      <g>
       <path d="M0,0v298M18,298H0M9,292H0M9,286H0M9,280H0M9,274H0M18,268H0M9,262H0M9,256H0M9,250H0M9,245H0M18,239H0M9,233H0M9,227H0M9,221H0M9,215H0M18,209H0M9,203H0M9,197H0M9,191H0M9,185H0M18,179H0M9,173H0M9,167H0M9,161H0M9,155H0M18,149H0M9,143H0M9,138H0M9,132H0M9,126H0M18,120H0M9,114H0M9,108H0M9,102H0M9,96H0M18,90H0M9,84H0M9,78H0M9,72H0M9,66H0M18,60H0M9,54H0M9,48H0M9,42H0M9,36H0M18,31H0M9,25H0M9,19H0M9,13H0M9,7H0M18,1H0" style="stroke: black; stroke-width: 1;"></path>
       <g font-family="Arial" font-size="13" space="preserve" fill="black" text-anchor="end">
        <text dy=".4em" transform="translate(-3,298)">
         0
        </text>
        <text dy=".4em" transform="translate(-3,268)">
         0.1
        </text>
        <text dy=".4em" transform="translate(-3,239)">
         0.2
        </text>
        <text dy=".4em" transform="translate(-3,209)">
         0.3
        </text>
        <text dy=".4em" transform="translate(-3,179)">
         0.4
        </text>
        <text dy=".4em" transform="translate(-3,149)">
         0.5
        </text>
        <text dy=".4em" transform="translate(-3,120)">
         0.6
        </text>
        <text dy=".4em" transform="translate(-3,90)">
         0.7
        </text>
        <text dy=".4em" transform="translate(-3,60)">
         0.8
        </text>
        <text dy=".4em" transform="translate(-3,31)">
         0.9
        </text>
        <text dy=".4em" transform="translate(-3,1)">
         1
        </text>
       </g>
      </g>
      <path d="M0,0v298M47,0v298M94,0v298M141,0v298M188,0v298M235,0v298M281,0v298M328,0v298M375,0v298M422,0v298M469,0v298" style="stroke: black; stroke-width: 1; stroke-dasharray: 1,2;"></path>
      <path d="M0,298h469M0,268h469M0,239h469M0,209h469M0,179h469M0,149h469M0,120h469M0,90h469M0,60h469M0,31h469M0,1h469" style="stroke: black; stroke-width: 1; stroke-dasharray: 1,2;"></path>
     </g>
    </g>
    <g transform="translate(59,2)" font-family="Arial" font-size="19" space="preserve">
     <text fill="black" text-anchor="middle" dy=".8em" transform="translate(235)">
      TMath::BetaDistI(x, [0], [1])
     </text>
    </g>
    <g transform="translate(410,242)" font-family="Arial" font-size="11" space="preserve">
     <path d="M0,0H117V74H0Z" style="fill: white; stroke: black; stroke-width: 1;"></path>
     <path d="M4,11H25" style="stroke: #ff0000; stroke-width: 1;"></path>
     <text fill="black" text-anchor="start" dy=".4em" transform="translate(29,11)">
      p=0.5  q=0.5
     </text>
     <path d="M4,28H25" style="stroke: #00ff00; stroke-width: 1;"></path>
     <text fill="black" text-anchor="start" dy=".4em" transform="translate(29,29)">
      p=0.5  q=2
     </text>
     <path d="M4,46H25" style="stroke: #0000ff; stroke-width: 1;"></path>
     <text fill="black" text-anchor="start" dy=".4em" transform="translate(29,46)">
      p=2    q=0.5
     </text>
     <path d="M4,63H25" style="stroke: #ff00ff; stroke-width: 1;"></path>
     <text fill="black" text-anchor="start" dy=".4em" transform="translate(29,64)">
      p=2    q=2
     </text>
    </g>
   </g>
  </svg>
 </g>
</svg>