<svg xmlns="http://www.w3.org/2000/svg" viewBox="0 0 1200 800" preserveAspectRatio="none" width="1200" height="800">
 <path d="M0,0H1200V800H0Z" style="fill: white;"></path>
 <g>
  <svg viewBox="0 0 1176 251" preserveAspectRatio="none" x="12" y="8" width="1176" height="251">
   <path d="M0,0H1176V251H0Z" style="fill: white;"></path>
   <g>
    <g transform="translate(118,25)">
     <path d="M0,0H941V201H0Z" style="fill: white; stroke: black; stroke-width: 1;"></path>
     <svg x="0" y="0" overflow="hidden" width="941" height="201" viewBox="0 0 941 201">
      <g>
       <path d="M0,193.82C1.57,193.8,6.27,193.74,9.41,193.7S15.68,193.62,18.82,193.58S25.09,193.5,28.23,193.46S34.5,193.37,37.64,193.33S43.91,193.24,47.05,193.19S53.32,193.09,56.46,193.04S62.73,192.94,65.87,192.89S72.14,192.78,75.28,192.72S81.55,192.61,84.69,192.55S90.96,192.43,94.1,192.37S100.37,192.23,103.51,192.17S109.79,192.03,112.92,191.95S119.2,191.8,122.33,191.72S128.61,191.56,131.74,191.48S138.02,191.3,141.15,191.21S147.43,191.02,150.56,190.92S156.84,190.71,159.97,190.6S166.25,190.37,169.38,190.24S175.66,189.99,178.79,189.85S185.07,189.57,188.2,189.41S194.48,189.1,197.61,188.92S203.9,188.56,207.02,188.36S213.31,187.94,216.43,187.71S222.73,187.23,225.84,186.95S232.15,186.38,235.25,186.04S241.58,185.34,244.66,184.93S251.02,184.06,254.07,183.53S260.51,182.39,263.48,181.69S270.1,180.08,272.89,179.11S279.81,176.36,282.3,175.09S289.48,170.94,291.71,169.52S299.06,164.61,301.12,163.12S308.65,157.41,310.53,155.87S318.21,149.34,319.94,147.78S327.76,140.42,329.35,138.85S337.29,130.72,338.76,129.16S346.8,120.33,348.17,118.77S356.28,109.37,357.58,107.82S365.73,98,366.99,96.47S375.15,86.43,376.4,84.89S384.55,74.86,385.81,73.32S393.91,63.54,395.22,61.99S403.22,52.73,404.63,51.17S412.5,42.67,414.04,41.11S421.71,33.62,423.45,32.06S430.85,25.79,432.86,24.29S439.92,19.36,442.27,17.99S448.97,14.44,451.68,13.36S458.08,11.13,461.09,10.53S467.36,9.57,470.5,9.57S476.9,9.92,479.91,10.53S486.61,12.29,489.32,13.36S496.38,16.63,498.73,17.99S506.13,22.78,508.14,24.29S515.81,30.51,517.55,32.06S525.42,39.54,526.96,41.11S534.96,49.61,536.37,51.17S544.47,60.45,545.78,61.99S553.93,71.78,555.19,73.32S563.35,83.36,564.6,84.89S572.75,94.93,574.01,96.47S582.12,106.28,583.42,107.82S591.46,117.21,592.83,118.77S600.77,127.59,602.24,129.16S610.06,137.28,611.65,138.85S619.33,146.22,621.06,147.78S628.59,154.34,630.47,155.87S637.82,161.63,639.88,163.12S647.06,168.09,649.29,169.52S656.29,173.77,658.7,175.09S665.55,178.68,668.11,179.9S674.81,182.9,677.52,183.98S684.11,186.47,686.93,187.41S693.42,189.45,696.34,190.25S702.76,191.92,705.75,192.59S712.12,193.93,715.16,194.48S721.5,195.56,724.57,196S730.88,196.85,733.98,197.2S740.28,197.87,743.39,198.14S749.68,198.66,752.8,198.87S759.08,199.27,762.21,199.43S768.49,199.73,771.62,199.86S777.9,200.08,781.03,200.17S787.3,200.34,790.44,200.41S796.71,200.53,799.85,200.58S806.12,200.67,809.26,200.71S815.53,200.77,818.67,200.8S824.94,200.84,828.08,200.86S834.35,200.89,837.49,200.91S843.76,200.93,846.9,200.94S853.17,200.95,856.31,200.96S862.58,200.97,865.72,200.97S871.99,200.98,875.13,200.98S881.4,200.99,884.54,200.99S890.81,200.99,893.95,200.99S900.22,201,903.36,201S909.63,201,912.77,201S919.04,201,922.18,201S928.45,201,931.59,201S939.43,201,941,201" style="fill: none; stroke: #ff0000; stroke-width: 2;"></path>
      </g>
      <g>
       <path d="M0,197.3C1.57,197.28,6.27,197.23,9.41,197.19S15.68,197.12,18.82,197.08S25.09,196.99,28.23,196.95S34.5,196.87,37.64,196.82S43.91,196.73,47.05,196.68S53.32,196.59,56.46,196.53S62.73,196.43,65.87,196.37S72.14,196.26,75.28,196.2S81.55,196.08,84.69,196.02S90.96,195.89,94.1,195.82S100.38,195.68,103.51,195.6S109.79,195.45,112.92,195.37S119.2,195.2,122.33,195.11S128.61,194.93,131.74,194.83S138.02,194.63,141.15,194.52S147.43,194.3,150.56,194.18S156.84,193.94,159.97,193.8S166.25,193.53,169.38,193.38S175.66,193.07,178.79,192.9S185.08,192.56,188.2,192.37S194.49,191.97,197.61,191.75S203.9,191.29,207.02,191.04S213.32,190.51,216.43,190.21S222.74,189.58,225.84,189.22S232.17,188.48,235.25,188.05S241.61,187.13,244.66,186.61S251.08,185.46,254.07,184.81S260.58,183.33,263.48,182.5S270.17,180.48,272.89,179.41S279.84,176.39,282.3,175.09S289.48,170.94,291.71,169.52S299.06,164.61,301.12,163.12S308.65,157.41,310.53,155.87S318.21,149.34,319.94,147.78S327.76,140.42,329.35,138.85S337.29,130.72,338.76,129.16S346.8,120.33,348.17,118.77S356.28,109.37,357.58,107.82S365.73,98,366.99,96.47S375.15,86.43,376.4,84.89S384.55,74.86,385.81,73.32S393.91,63.54,395.22,61.99S403.22,52.73,404.63,51.17S412.5,42.67,414.04,41.11S421.71,33.62,423.45,32.06S430.85,25.79,432.86,24.29S439.92,19.36,442.27,17.99S448.97,14.44,451.68,13.36S458.08,11.13,461.09,10.53S467.36,9.57,470.5,9.57S476.9,9.92,479.91,10.53S486.61,12.29,489.32,13.36S496.38,16.63,498.73,17.99S506.13,22.78,508.14,24.29S515.81,30.51,517.55,32.06S525.42,39.54,526.96,41.11S534.96,49.61,536.37,51.17S544.47,60.45,545.78,61.99S553.93,71.78,555.19,73.32S563.35,83.36,564.6,84.89S572.75,94.93,574.01,96.47S582.12,106.28,583.42,107.82S591.46,117.21,592.83,118.77S600.77,127.59,602.24,129.16S610.06,137.28,611.65,138.85S619.33,146.22,621.06,147.78S628.59,154.34,630.47,155.87S637.82,161.63,639.88,163.12S647.06,168.09,649.29,169.52S656.29,173.77,658.7,175.09S665.55,178.68,668.11,179.9S674.81,182.9,677.52,183.98S684.11,186.47,686.93,187.41S693.42,189.45,696.34,190.25S702.76,191.92,705.75,192.59S712.12,193.93,715.16,194.48S721.5,195.56,724.57,196S730.88,196.85,733.98,197.2S740.28,197.87,743.39,198.14S749.68,198.66,752.8,198.87S759.08,199.27,762.21,199.43S768.49,199.73,771.62,199.86S777.9,200.08,781.03,200.17S787.3,200.34,790.44,200.41S796.71,200.53,799.85,200.58S806.12,200.67,809.26,200.71S815.53,200.77,818.67,200.8S824.94,200.84,828.08,200.86S834.35,200.89,837.49,200.91S843.76,200.93,846.9,200.94S853.17,200.95,856.31,200.96S862.58,200.97,865.72,200.97S871.99,200.98,875.13,200.98S881.4,200.99,884.54,200.99S890.81,200.99,893.95,200.99S900.22,201,903.36,201S909.63,201,912.77,201S919.04,201,922.18,201S928.45,201,931.59,201S939.43,201,941,201" style="fill: none; stroke: #00ff00; stroke-width: 2;"></path>
      </g>
      <g>
       <path d="M0,199.38C1.57,199.37,6.27,199.33,9.41,199.3S15.68,199.24,18.82,199.21S25.09,199.14,28.23,199.11S34.5,199.04,37.64,199S43.91,198.93,47.05,198.89S53.32,198.8,56.46,198.76S62.73,198.67,65.87,198.62S72.14,198.52,75.28,198.47S81.55,198.36,84.69,198.3S90.96,198.19,94.1,198.12S100.37,197.99,103.51,197.92S109.79,197.78,112.92,197.7S119.2,197.53,122.33,197.45S128.61,197.27,131.74,197.17S138.02,196.97,141.15,196.86S147.43,196.63,150.56,196.5S156.84,196.25,159.97,196.1S166.25,195.81,169.38,195.65S175.66,195.31,178.79,195.13S185.08,194.74,188.2,194.52S194.49,194.08,197.61,193.82S203.91,193.3,207.02,193S213.33,192.39,216.43,192.04S222.76,191.3,225.84,190.88S232.2,189.99,235.25,189.49S241.65,188.39,244.66,187.78S251.12,186.42,254.07,185.67S260.64,183.93,263.48,183.01S270.22,180.71,272.89,179.59S279.86,176.4,282.3,175.09S289.48,170.94,291.71,169.52S299.06,164.61,301.12,163.12S308.65,157.41,310.53,155.87S318.21,149.34,319.94,147.78S327.76,140.42,329.35,138.85S337.29,130.72,338.76,129.16S346.8,120.33,348.17,118.77S356.28,109.37,357.58,107.82S365.73,98,366.99,96.47S375.15,86.43,376.4,84.89S384.55,74.86,385.81,73.32S393.91,63.54,395.22,61.99S403.22,52.73,404.63,51.17S412.5,42.67,414.04,41.11S421.71,33.62,423.45,32.06S430.85,25.79,432.86,24.29S439.92,19.36,442.27,17.99S448.97,14.44,451.68,13.36S458.08,11.13,461.09,10.53S467.36,9.57,470.5,9.57S476.9,9.92,479.91,10.53S486.61,12.29,489.32,13.36S496.38,16.63,498.73,17.99S506.13,22.78,508.14,24.29S515.81,30.51,517.55,32.06S525.42,39.54,526.96,41.11S534.96,49.61,536.37,51.17S544.47,60.45,545.78,61.99S553.93,71.78,555.19,73.32S563.35,83.36,564.6,84.89S572.75,94.93,574.01,96.47S582.12,106.28,583.42,107.82S591.46,117.21,592.83,118.77S600.77,127.59,602.24,129.16S610.06,137.28,611.65,138.85S619.33,146.22,621.06,147.78S628.59,154.34,630.47,155.87S637.82,161.63,639.88,163.12S647.06,168.09,649.29,169.52S656.29,173.77,658.7,175.09S665.55,178.68,668.11,179.9S674.81,182.9,677.52,183.98S684.11,186.47,686.93,187.41S693.42,189.45,696.34,190.25S702.76,191.92,705.75,192.59S712.12,193.93,715.16,194.48S721.5,195.56,724.57,196S730.88,196.85,733.98,197.2S740.28,197.87,743.39,198.14S749.68,198.66,752.8,198.87S759.08,199.27,762.21,199.43S768.49,199.73,771.62,199.86S777.9,200.08,781.03,200.17S787.3,200.34,790.44,200.41S796.71,200.53,799.85,200.58S806.12,200.67,809.26,200.71S815.53,200.77,818.67,200.8S824.94,200.84,828.08,200.86S834.35,200.89,837.49,200.91S843.76,200.93,846.9,200.94S853.17,200.95,856.31,200.96S862.58,200.97,865.72,200.97S871.99,200.98,875.13,200.98S881.4,200.99,884.54,200.99S890.81,200.99,893.95,200.99S900.22,201,903.36,201S909.63,201,912.77,201S919.04,201,922.18,201S928.45,201,931.59,201S939.43,201,941,201" style="fill: none; stroke: #0000ff; stroke-width: 2;"></path>
      </g>
     </svg>
     <g>
      <g transform="translate(0,201)">
       <path d="M0,0h941M0,-8v8m19,-4v4m19,-4v4m18,-4v4m19,-4v4m19,-8v8m19,-4v4m19,-4v4m19,-4v4m18,-4v4m19,-8v8m19,-4v4m19,-4v4m19,-4v4m18,-4v4m19,-8v8m19,-4v4m19,-4v4m19,-4v4m19,-4v4m18,-8v8m19,-4v4m19,-4v4m19,-4v4m19,-4v4m19,-8v8m18,-4v4m19,-4v4m19,-4v4m19,-4v4m19,-8v8m18,-4v4m19,-4v4m19,-4v4m19,-4v4m19,-8v8m19,-4v4m18,-4v4m19,-4v4m19,-4v4m19,-8v8m19,-4v4m18,-4v4m19,-4v4m19,-4v4m19,-8v8m19,-4v4m19,-4v4m18,-4v4m19,-4v4m19,-8v8" style="stroke: black; stroke-width: 1;"></path>
       <g font-family="Arial" font-size="9" space="preserve" fill="black" text-anchor="middle">
        <text dy=".8em" transform="translate(0,3)">
         -5
        </text>
        <text dy=".8em" transform="translate(94,3)">
         -4
        </text>
        <text dy=".8em" transform="translate(188,3)">
         -3
        </text>
        <text dy=".8em" transform="translate(282,3)">
         -2
        </text>
        <text dy=".8em" transform="translate(376,3)">
         -1
        </text>
        <text dy=".8em" transform="translate(471,3)">
         0
        </text>
        <text dy=".8em" transform="translate(565,3)">
         1
        </text>
        <text dy=".8em" transform="translate(659,3)">
         2
        </text>
        <text dy=".8em" transform="translate(753,3)">
         3
        </text>
        <text dy=".8em" transform="translate(847,3)">
         4
        </text>
        <text dy=".8em" transform="translate(941,3)">
         5
        </text>
       </g>
      </g>
      <g>
       <path d="M0,0v201M18,197h-18m18,-4h-18m18,-3h-18m18,-4h-18m35,-4h-35m18,-4h-18m18,-4h-18m18,-4h-18m18,-3h-18m35,-4h-35m18,-4h-18m18,-4h-18m18,-4h-18m18,-4h-18m35,-3h-35m18,-4h-18m18,-4h-18m18,-4h-18m18,-4h-18m35,-4h-35m18,-3h-18m18,-4h-18m18,-4h-18m18,-4h-18m35,-4h-35m18,-4h-18m18,-3h-18m18,-4h-18m18,-4h-18m35,-4h-35m18,-4h-18m18,-4h-18m18,-3h-18m18,-4h-18m35,-4h-35m18,-4h-18m18,-4h-18m18,-3h-18m18,-4h-18m35,-4h-35m18,-4h-18m18,-4h-18m18,-4h-18m18,-3h-18m35,-4h-35m18,-4h-18m18,-4h-18m18,-4h-18m18,-4h-18m35,-3h-35m18,-4h-18m18,-4h-18" style="stroke: black; stroke-width: 1;"></path>
       <g font-family="Arial" font-size="9" space="preserve" fill="black" text-anchor="end">
        <text dy=".4em" transform="translate(-1,182)">
         0.1
        </text>
        <text dy=".4em" transform="translate(-1,163)">
         0.2
        </text>
        <text dy=".4em" transform="translate(-1,144)">
         0.3
        </text>
        <text dy=".4em" transform="translate(-1,124)">
         0.4
        </text>
        <text dy=".4em" transform="translate(-1,105)">
         0.5
        </text>
        <text dy=".4em" transform="translate(-1,86)">
         0.6
        </text>
        <text dy=".4em" transform="translate(-1,67)">
         0.7
        </text>
        <text dy=".4em" transform="translate(-1,48)">
         0.8
        </text>
        <text dy=".4em" transform="translate(-1,29)">
         0.9
        </text>
        <text dy=".4em" transform="translate(-1,10)">
         1
        </text>
       </g>
      </g>
     </g>
    </g>
    <g transform="translate(118,1)" font-family="Arial" font-size="13" space="preserve">
     <text fill="black" text-anchor="middle" dy=".8em" transform="translate(471)">
      crystalball
     </text>
    </g>
    <g transform="translate(823,0)" font-family="Arial" font-size="21" space="preserve">
     <path d="M0,0H235V100H0Z" style="fill: white; stroke: black; stroke-width: 1;"></path>
     <path d="M7,19H52" style="stroke: #ff0000; stroke-width: 2;"></path>
     <text fill="black" text-anchor="start" dy=".4em" transform="translate(59,19)">
      N=0.5 alpha=2
     </text>
     <path d="M7,50H52" style="stroke: #00ff00; stroke-width: 2;"></path>
     <text fill="black" text-anchor="start" dy=".4em" transform="translate(59,50)">
      N=1   alpha=2
     </text>
     <path d="M7,81H52" style="stroke: #0000ff; stroke-width: 2;"></path>
     <text fill="black" text-anchor="start" dy=".4em" transform="translate(59,82)">
      N=2   alpha=2
     </text>
    </g>
   </g>
  </svg>
  <svg viewBox="0 0 1176 251" preserveAspectRatio="none" x="12" y="274" width="1176" height="251">
   <path d="M0,0H1176V251H0Z" style="fill: white;"></path>
   <g>
    <g transform="translate(118,25)">
     <path d="M0,0H941V201H0Z" style="fill: white; stroke: black; stroke-width: 1;"></path>
     <svg x="0" y="0" overflow="hidden" width="941" height="201" viewBox="0 0 941 201">
      <g>
       <path d="M0,200.04C1.57,200.03,6.27,200,9.41,199.97S15.68,199.93,18.82,199.9S25.09,199.85,28.23,199.82S34.5,199.76,37.64,199.73S43.91,199.67,47.05,199.63S53.32,199.56,56.46,199.53S62.73,199.45,65.87,199.41S72.14,199.32,75.28,199.27S81.55,199.18,84.69,199.13S90.96,199.02,94.1,198.96S100.37,198.84,103.51,198.78S109.79,198.64,112.92,198.57S119.2,198.42,122.33,198.33S128.61,198.16,131.74,198.07S138.02,197.87,141.15,197.76S147.43,197.54,150.56,197.42S156.84,197.16,159.97,197.02S166.25,196.72,169.38,196.56S175.67,196.22,178.79,196.03S185.08,195.63,188.2,195.4S194.5,194.94,197.61,194.68S203.91,194.13,207.02,193.81S213.34,193.16,216.43,192.79S222.77,192,225.84,191.56S232.21,190.61,235.25,190.07S241.66,188.9,244.66,188.25S251.14,186.79,254.07,186.01S260.66,184.15,263.48,183.2S270.24,180.79,272.89,179.65S279.87,176.4,282.3,175.09S289.48,170.94,291.71,169.52S299.06,164.61,301.12,163.12S308.65,157.41,310.53,155.87S318.21,149.34,319.94,147.78S327.76,140.42,329.35,138.85S337.29,130.72,338.76,129.16S346.8,120.33,348.17,118.77S356.28,109.37,357.58,107.82S365.73,98,366.99,96.47S375.15,86.43,376.4,84.89S384.55,74.86,385.81,73.32S393.91,63.54,395.22,61.99S403.22,52.73,404.63,51.17S412.5,42.67,414.04,41.11S421.71,33.62,423.45,32.06S430.85,25.79,432.86,24.29S439.92,19.36,442.27,17.99S448.97,14.44,451.68,13.36S458.08,11.13,461.09,10.53S467.36,9.57,470.5,9.57S476.9,9.92,479.91,10.53S486.61,12.29,489.32,13.36S496.38,16.63,498.73,17.99S506.13,22.78,508.14,24.29S515.81,30.51,517.55,32.06S525.42,39.54,526.96,41.11S534.96,49.61,536.37,51.17S544.47,60.45,545.78,61.99S553.93,71.78,555.19,73.32S563.35,83.36,564.6,84.89S572.75,94.93,574.01,96.47S582.12,106.28,583.42,107.82S591.46,117.21,592.83,118.77S600.77,127.59,602.24,129.16S610.06,137.28,611.65,138.85S619.33,146.22,621.06,147.78S628.59,154.34,630.47,155.87S637.82,161.63,639.88,163.12S647.06,168.09,649.29,169.52S656.29,173.77,658.7,175.09S665.55,178.68,668.11,179.9S674.81,182.9,677.52,183.98S684.11,186.47,686.93,187.41S693.42,189.45,696.34,190.25S702.76,191.92,705.75,192.59S712.12,193.93,715.16,194.48S721.5,195.56,724.57,196S730.88,196.85,733.98,197.2S740.28,197.87,743.39,198.14S749.68,198.66,752.8,198.87S759.08,199.27,762.21,199.43S768.49,199.73,771.62,199.86S777.9,200.08,781.03,200.17S787.3,200.34,790.44,200.41S796.71,200.53,799.85,200.58S806.12,200.67,809.26,200.71S815.53,200.77,818.67,200.8S824.94,200.84,828.08,200.86S834.35,200.89,837.49,200.91S843.76,200.93,846.9,200.94S853.17,200.95,856.31,200.96S862.58,200.97,865.72,200.97S871.99,200.98,875.13,200.98S881.4,200.99,884.54,200.99S890.81,200.99,893.95,200.99S900.22,201,903.36,201S909.63,201,912.77,201S919.04,201,922.18,201S928.45,201,931.59,201S939.43,201,941,201" style="fill: none; stroke: red; stroke-width: 2;"></path>
      </g>
      <g>
       <path d="M0,200.87C1.57,200.87,6.27,200.86,9.41,200.86S15.68,200.86,18.82,200.85S25.09,200.85,28.23,200.85S34.5,200.84,37.64,200.84S43.91,200.83,47.05,200.83S53.32,200.82,56.46,200.82S62.73,200.81,65.87,200.81S72.14,200.8,75.28,200.8S81.55,200.79,84.69,200.78S90.96,200.77,94.1,200.77S100.37,200.75,103.51,200.75S109.78,200.73,112.92,200.72S119.19,200.71,122.33,200.7S128.6,200.68,131.74,200.67S138.01,200.64,141.15,200.62S147.42,200.59,150.56,200.57S156.83,200.53,159.97,200.51S166.24,200.45,169.38,200.41S175.65,200.33,178.79,200.28S185.07,200.15,188.2,200.06S194.48,199.86,197.61,199.73S203.89,199.47,207.02,199.32S213.31,198.98,216.43,198.78S222.72,198.36,225.84,198.11S232.14,197.58,235.25,197.27S241.57,196.61,244.66,196.24S251,195.43,254.07,194.97S260.44,193.99,263.48,193.45S269.88,192.27,272.89,191.64S279.34,190.24,282.3,189.52S288.8,187.86,291.71,187.04S298.28,185.12,301.12,184.21S307.76,182,310.53,180.99S317.24,178.49,319.94,177.41S326.72,174.6,329.35,173.45S336.2,170.36,338.76,169.15S345.67,165.8,348.17,164.55S355.12,160.98,357.58,159.69S364.56,155.97,366.99,154.66S373.98,150.85,376.4,149.53S383.38,145.71,385.81,144.4S392.75,140.66,395.22,139.38S402.1,135.82,404.63,134.58S411.43,131.29,414.04,130.12S420.74,127.18,423.45,126.11S430.03,123.6,432.86,122.66S439.33,120.63,442.27,119.87S448.64,118.35,451.68,117.82S457.98,116.84,461.09,116.56S467.36,116.14,470.5,116.14S476.8,116.28,479.91,116.56S486.28,117.28,489.32,117.82S495.79,119.11,498.73,119.87S505.31,121.72,508.14,122.66S514.84,125.03,517.55,126.11S524.35,128.94,526.96,130.12S533.84,133.33,536.37,134.58S543.31,138.09,545.78,139.38S552.76,143.09,555.19,144.4S562.18,148.21,564.6,149.53S571.58,153.35,574.01,154.66S580.96,158.4,583.42,159.69S590.33,163.29,592.83,164.55S599.68,167.94,602.24,169.15S609.02,172.3,611.65,173.45S618.36,176.32,621.06,177.41S627.7,179.99,630.47,180.99S637.04,183.29,639.88,184.21S646.38,186.22,649.29,187.04S655.74,188.79,658.7,189.52S665.1,191.02,668.11,191.64S674.48,192.92,677.52,193.45S683.86,194.52,686.93,194.97S693.25,195.86,696.34,196.24S702.64,196.96,705.75,197.27S712.04,197.86,715.16,198.11S721.45,198.58,724.57,198.78S730.85,199.16,733.98,199.32S740.26,199.61,743.39,199.73S749.67,199.96,752.8,200.06S759.08,200.23,762.21,200.31S768.48,200.44,771.62,200.49S777.89,200.59,781.03,200.63S787.3,200.71,790.44,200.74S796.71,200.79,799.85,200.82S806.12,200.85,809.26,200.87S815.53,200.9,818.67,200.91S824.94,200.93,828.08,200.94S834.35,200.95,837.49,200.96S843.76,200.97,846.9,200.97S853.17,200.98,856.31,200.98S862.58,200.99,865.72,200.99S871.99,200.99,875.13,200.99S881.4,200.99,884.54,201S890.81,201,893.95,201S900.22,201,903.36,201S909.63,201,912.77,201S919.04,201,922.18,201S928.45,201,931.59,201S939.43,201,941,201" style="fill: none; stroke: #0000ff; stroke-width: 2;"></path>
      </g>
      <g>
       <path d="M0,200.2C1.57,200.19,6.27,200.17,9.41,200.16S15.68,200.13,18.82,200.12S25.09,200.08,28.23,200.07S34.5,200.03,37.64,200.01S43.91,199.98,47.05,199.96S53.32,199.92,56.46,199.89S62.73,199.85,65.87,199.83S72.14,199.78,75.28,199.75S81.55,199.7,84.69,199.67S90.96,199.61,94.1,199.58S100.37,199.52,103.51,199.48S109.78,199.41,112.92,199.37S119.19,199.29,122.33,199.25S128.6,199.16,131.74,199.11S138.01,199.01,141.15,198.96S147.42,198.84,150.56,198.78S156.83,198.65,159.97,198.58S166.25,198.44,169.38,198.36S175.66,198.19,178.79,198.1S185.07,197.91,188.2,197.8S194.48,197.58,197.61,197.46S203.89,197.2,207.02,197.06S213.3,196.75,216.43,196.58S222.72,196.22,225.84,196.01S232.13,195.57,235.25,195.32S241.55,194.79,244.66,194.48S250.98,193.82,254.07,193.44S260.42,192.61,263.48,192.12S269.88,191.06,272.89,190.44S279.37,188.99,282.3,188.22S288.85,186.36,291.71,185.46S298.34,183.3,301.12,182.31S307.83,179.82,310.53,178.73S317.32,175.9,319.94,174.74S326.82,171.57,329.35,170.33S336.3,166.84,338.76,165.55S345.78,161.76,348.17,160.42S355.24,156.39,357.58,155.02S364.69,150.8,366.99,149.42S374.11,145.1,376.4,143.71S383.5,139.38,385.81,138S392.87,133.77,395.22,132.41S402.22,128.39,404.63,127.07S411.53,123.36,414.04,122.1S420.82,118.8,423.45,117.64S430.1,114.82,432.86,113.8S439.37,111.53,442.27,110.7S448.66,109,451.68,108.41S457.98,107.32,461.09,107.01S467.36,106.54,470.5,106.54S476.8,106.7,479.91,107.01S486.3,107.82,489.32,108.41S495.83,109.86,498.73,110.7S505.38,112.78,508.14,113.8S514.92,116.48,517.55,117.64S524.45,120.84,526.96,122.1S533.96,125.74,536.37,127.07S543.43,131.05,545.78,132.41S552.88,136.61,555.19,138S562.31,142.32,564.6,143.71S571.71,148.03,574.01,149.42S581.08,153.65,583.42,155.02S590.44,159.09,592.83,160.42S599.78,164.26,602.24,165.55S609.12,169.1,611.65,170.33S618.44,173.57,621.06,174.74S627.77,177.65,630.47,178.73S637.1,181.31,639.88,182.31S646.43,184.57,649.29,185.46S655.78,187.42,658.7,188.22S665.13,189.89,668.11,190.59S674.5,192.01,677.52,192.6S683.88,193.79,686.93,194.29S693.26,195.28,696.34,195.7S702.65,196.51,705.75,196.85S712.05,197.51,715.16,197.78S721.45,198.31,724.57,198.53S730.85,198.95,733.98,199.13S740.26,199.45,743.39,199.59S749.67,199.85,752.8,199.95S759.08,200.15,762.21,200.23S768.48,200.38,771.62,200.44S777.89,200.55,781.03,200.59S787.3,200.68,790.44,200.71S796.71,200.77,799.85,200.79S806.12,200.84,809.26,200.86S815.53,200.89,818.67,200.9S824.94,200.92,828.08,200.93S834.35,200.95,837.49,200.95S843.76,200.96,846.9,200.97S853.17,200.98,856.31,200.98S862.58,200.98,865.72,200.99S871.99,200.99,875.13,200.99S881.4,200.99,884.54,200.99S890.81,201,893.95,201S900.22,201,903.36,201S909.63,201,912.77,201S919.04,201,922.18,201S928.45,201,931.59,201S939.43,201,941,201" style="fill: none; stroke: #00ff00; stroke-width: 2;"></path>
      </g>
     </svg>
     <g>
      <g transform="translate(0,201)">
       <path d="M0,0h941M0,-8v8m19,-4v4m19,-4v4m18,-4v4m19,-4v4m19,-8v8m19,-4v4m19,-4v4m19,-4v4m18,-4v4m19,-8v8m19,-4v4m19,-4v4m19,-4v4m18,-4v4m19,-8v8m19,-4v4m19,-4v4m19,-4v4m19,-4v4m18,-8v8m19,-4v4m19,-4v4m19,-4v4m19,-4v4m19,-8v8m18,-4v4m19,-4v4m19,-4v4m19,-4v4m19,-8v8m18,-4v4m19,-4v4m19,-4v4m19,-4v4m19,-8v8m19,-4v4m18,-4v4m19,-4v4m19,-4v4m19,-8v8m19,-4v4m18,-4v4m19,-4v4m19,-4v4m19,-8v8m19,-4v4m19,-4v4m18,-4v4m19,-4v4m19,-8v8" style="stroke: black; stroke-width: 1;"></path>
       <g font-family="Arial" font-size="9" space="preserve" fill="black" text-anchor="middle">
        <text dy=".8em" transform="translate(0,3)">
         -5
        </text>
        <text dy=".8em" transform="translate(94,3)">
         -4
        </text>
        <text dy=".8em" transform="translate(188,3)">
         -3
        </text>
        <text dy=".8em" transform="translate(282,3)">
         -2
        </text>
        <text dy=".8em" transform="translate(376,3)">
         -1
        </text>
        <text dy=".8em" transform="translate(471,3)">
         0
        </text>
        <text dy=".8em" transform="translate(565,3)">
         1
        </text>
        <text dy=".8em" transform="translate(659,3)">
         2
        </text>
        <text dy=".8em" transform="translate(753,3)">
         3
        </text>
        <text dy=".8em" transform="translate(847,3)">
         4
        </text>
        <text dy=".8em" transform="translate(941,3)">
         5
        </text>
       </g>
      </g>
      <g>
       <path d="M0,0v201M18,196h-18m18,-5h-18m18,-5h-18m18,-5h-18m35,-4h-35m18,-5h-18m18,-5h-18m18,-5h-18m18,-5h-18m35,-5h-35m18,-5h-18m18,-5h-18m18,-4h-18m18,-5h-18m35,-5h-35m18,-5h-18m18,-5h-18m18,-5h-18m18,-5h-18m35,-5h-35m18,-5h-18m18,-4h-18m18,-5h-18m18,-5h-18m35,-5h-35m18,-5h-18m18,-5h-18m18,-5h-18m18,-5h-18m35,-5h-35m18,-4h-18m18,-5h-18m18,-5h-18m18,-5h-18m35,-5h-35m18,-5h-18m18,-5h-18m18,-5h-18m18,-4h-18m35,-5h-35m18,-5h-18" style="stroke: black; stroke-width: 1;"></path>
       <g font-family="Arial" font-size="9" space="preserve" fill="black" text-anchor="end">
        <text dy=".4em" transform="translate(-1,177)">
         0.1
        </text>
        <text dy=".4em" transform="translate(-1,152)">
         0.2
        </text>
        <text dy=".4em" transform="translate(-1,128)">
         0.3
        </text>
        <text dy=".4em" transform="translate(-1,103)">
         0.4
        </text>
        <text dy=".4em" transform="translate(-1,79)">
         0.5
        </text>
        <text dy=".4em" transform="translate(-1,54)">
         0.6
        </text>
        <text dy=".4em" transform="translate(-1,30)">
         0.7
        </text>
        <text dy=".4em" transform="translate(-1,6)">
         0.8
        </text>
       </g>
      </g>
     </g>
    </g>
    <g transform="translate(118,1)" font-family="Arial" font-size="13" space="preserve">
     <text fill="black" text-anchor="middle" dy=".8em" transform="translate(471)">
      crystalballn
     </text>
    </g>
    <g transform="translate(823,0)" font-family="Arial" font-size="19" space="preserve">
     <path d="M0,0H235V100H0Z" style="fill: white; stroke: black; stroke-width: 1;"></path>
     <path d="M7,19H52" style="stroke: red; stroke-width: 2;"></path>
     <text fill="black" text-anchor="start" dy=".4em" transform="translate(59,19)">
      N=3    alpha=2
     </text>
     <path d="M7,50H52" style="stroke: #0000ff; stroke-width: 2;"></path>
     <text fill="black" text-anchor="start" dy=".4em" transform="translate(59,50)">
      N=1.01 alpha=3
     </text>
     <path d="M7,81H52" style="stroke: #00ff00; stroke-width: 2;"></path>
     <text fill="black" text-anchor="start" dy=".4em" transform="translate(59,82)">
      N=2    alpha=3
     </text>
    </g>
   </g>
  </svg>
  <svg viewBox="0 0 1176 251" preserveAspectRatio="none" x="12" y="541" width="1176" height="251">
   <path d="M0,0H1176V251H0Z" style="fill: white;"></path>
   <g>
    <g transform="translate(118,25)">
     <path d="M0,0H941V201H0Z" style="fill: white; stroke: black; stroke-width: 1;"></path>
     <svg x="0" y="0" overflow="hidden" width="941" height="201" viewBox="0 0 941 201">
      <g>
       <path d="M0,184.59C1.57,184.54,6.28,184.39,9.41,184.28S15.69,184.07,18.82,183.97S25.1,183.75,28.23,183.64S34.51,183.41,37.64,183.29S43.92,183.06,47.05,182.94S53.33,182.69,56.46,182.57S62.74,182.31,65.87,182.18S72.15,181.91,75.28,181.78S81.56,181.5,84.69,181.36S90.97,181.07,94.1,180.92S100.38,180.61,103.51,180.46S109.79,180.14,112.92,179.97S119.2,179.64,122.33,179.47S128.61,179.12,131.74,178.94S138.02,178.57,141.15,178.38S147.44,178,150.56,177.8S156.85,177.39,159.97,177.18S166.26,176.76,169.38,176.53S175.67,176.08,178.79,175.85S185.08,175.37,188.2,175.12S194.5,174.62,197.61,174.35S203.91,173.82,207.02,173.54S213.32,172.97,216.43,172.67S222.74,172.06,225.84,171.75S232.15,171.1,235.25,170.76S241.57,170.07,244.66,169.71S250.98,168.96,254.07,168.57S260.4,167.77,263.48,167.36S269.82,166.49,272.89,166.05S279.24,165.11,282.3,164.63S288.66,163.61,291.71,163.09S298.09,161.99,301.12,161.42S307.52,160.21,310.53,159.6S316.95,158.26,319.94,157.59S326.39,156.12,329.35,155.38S335.84,153.74,338.76,152.94S345.3,151.1,348.17,150.22S354.78,148.14,357.58,147.17S364.26,144.8,366.99,143.75S373.75,141.06,376.4,139.93S383.24,136.91,385.81,135.7S392.73,132.35,395.22,131.08S402.22,127.4,404.63,126.07S411.71,122.07,414.04,120.7S421.19,116.4,423.45,115S430.65,110.44,432.86,109S440.11,104.22,442.27,102.77S449.56,97.8,451.68,96.34S458.99,91.25,461.09,89.78S468.4,84.63,470.5,83.16S477.81,78.01,479.91,76.53S487.2,71.44,489.32,69.97S496.57,65,498.73,63.55S505.93,58.74,508.14,57.31S515.29,52.72,517.55,51.31S524.63,46.98,526.96,45.61S533.96,41.57,536.37,40.24S543.29,36.51,545.78,35.23S552.62,31.82,555.19,30.61S561.95,27.52,564.6,26.39S571.28,23.61,574.01,22.56S580.61,20.1,583.42,19.14S589.96,16.97,592.83,16.1S599.31,14.21,602.24,13.43S608.67,11.79,611.65,11.11S618.04,9.71,621.06,9.11S627.42,7.92,630.47,7.41S636.8,6.41,639.88,5.98S646.2,5.14,649.29,4.78S655.59,4.08,658.7,3.78S664.99,3.21,668.11,2.97S674.4,2.51,677.52,2.31S683.8,1.94,686.93,1.78S693.21,1.49,696.34,1.36S702.62,1.13,705.75,1.03S712.03,0.85,715.16,0.78S721.43,0.63,724.57,0.58S730.84,0.47,733.98,0.42S740.25,0.34,743.39,0.31S749.66,0.25,752.8,0.22S759.07,0.18,762.21,0.16S768.48,0.13,771.62,0.11S777.89,0.09,781.03,0.08S787.3,0.06,790.44,0.06S796.71,0.04,799.85,0.04S806.12,0.03,809.26,0.03S815.53,0.02,818.67,0.02S824.94,0.01,828.08,0.01S834.35,0.01,837.49,0.01S843.76,0.01,846.9,0.01S853.17,0,856.31,0S862.58,0,865.72,0S871.99,0,875.13,0S881.4,0,884.54,0S890.81,0,893.95,0S900.22,0,903.36,0S909.63,0,912.77,0S919.04,0,922.18,0S928.45,0,931.59,0S939.43,0,941,0" style="fill: none; stroke: #cd3333; stroke-width: 2;"></path>
      </g>
      <g>
       <path d="M0,16.41C1.57,16.46,6.28,16.61,9.41,16.72S15.69,16.93,18.82,17.03S25.1,17.25,28.23,17.36S34.51,17.59,37.64,17.71S43.92,17.94,47.05,18.06S53.33,18.31,56.46,18.43S62.74,18.69,65.87,18.82S72.15,19.09,75.28,19.22S81.56,19.5,84.69,19.64S90.97,19.93,94.1,20.08S100.38,20.39,103.51,20.54S109.79,20.86,112.92,21.03S119.2,21.36,122.33,21.53S128.61,21.88,131.74,22.06S138.02,22.43,141.15,22.62S147.44,23,150.56,23.2S156.85,23.61,159.97,23.82S166.26,24.24,169.38,24.47S175.67,24.92,178.79,25.15S185.08,25.63,188.2,25.88S194.5,26.38,197.61,26.65S203.91,27.18,207.02,27.46S213.32,28.03,216.43,28.33S222.74,28.94,225.84,29.25S232.15,29.9,235.25,30.24S241.57,30.93,244.66,31.29S250.98,32.04,254.07,32.43S260.4,33.23,263.48,33.64S269.82,34.51,272.89,34.95S279.24,35.89,282.3,36.37S288.66,37.39,291.71,37.91S298.09,39.01,301.12,39.58S307.52,40.79,310.53,41.4S316.95,42.74,319.94,43.41S326.39,44.88,329.35,45.62S335.84,47.26,338.76,48.06S345.3,49.9,348.17,50.78S354.78,52.86,357.58,53.83S364.26,56.2,366.99,57.25S373.75,59.94,376.4,61.07S383.24,64.09,385.81,65.3S392.73,68.65,395.22,69.92S402.22,73.6,404.63,74.93S411.71,78.93,414.04,80.3S421.19,84.6,423.45,86S430.65,90.56,432.86,92S440.11,96.78,442.27,98.23S449.56,103.2,451.68,104.66S458.99,109.75,461.09,111.22S468.4,116.37,470.5,117.84S477.81,122.99,479.91,124.47S487.2,129.56,489.32,131.03S496.57,136,498.73,137.45S505.93,142.26,508.14,143.69S515.29,148.28,517.55,149.69S524.63,154.02,526.96,155.39S533.96,159.43,536.37,160.76S543.29,164.49,545.78,165.77S552.62,169.18,555.19,170.39S561.95,173.48,564.6,174.61S571.28,177.39,574.01,178.44S580.61,180.9,583.42,181.86S589.96,184.03,592.83,184.9S599.31,186.79,602.24,187.57S608.67,189.21,611.65,189.89S618.04,191.29,621.06,191.89S627.42,193.08,630.47,193.59S636.8,194.59,639.88,195.02S646.2,195.86,649.29,196.22S655.59,196.92,658.7,197.22S664.99,197.79,668.11,198.03S674.4,198.49,677.52,198.69S683.8,199.06,686.93,199.22S693.21,199.51,696.34,199.64S702.62,199.87,705.75,199.97S712.03,200.15,715.16,200.22S721.43,200.37,724.57,200.42S730.84,200.53,733.98,200.58S740.25,200.66,743.39,200.69S749.66,200.75,752.8,200.78S759.07,200.82,762.21,200.84S768.48,200.87,771.62,200.89S777.89,200.91,781.03,200.92S787.3,200.94,790.44,200.94S796.71,200.96,799.85,200.96S806.12,200.97,809.26,200.97S815.53,200.98,818.67,200.98S824.94,200.99,828.08,200.99S834.35,200.99,837.49,200.99S843.76,200.99,846.9,200.99S853.17,201,856.31,201S862.58,201,865.72,201S871.99,201,875.13,201S881.4,201,884.54,201S890.81,201,893.95,201S900.22,201,903.36,201S909.63,201,912.77,201S919.04,201,922.18,201S928.45,201,931.59,201S939.43,201,941,201" style="fill: none; stroke: #ff00ff; stroke-width: 2;"></path>
      </g>
     </svg>
     <g>
      <g transform="translate(0,201)">
       <path d="M0,0h941M0,-8v8m19,-4v4m19,-4v4m18,-4v4m19,-4v4m19,-8v8m19,-4v4m19,-4v4m19,-4v4m18,-4v4m19,-8v8m19,-4v4m19,-4v4m19,-4v4m18,-4v4m19,-8v8m19,-4v4m19,-4v4m19,-4v4m19,-4v4m18,-8v8m19,-4v4m19,-4v4m19,-4v4m19,-4v4m19,-8v8m18,-4v4m19,-4v4m19,-4v4m19,-4v4m19,-8v8m18,-4v4m19,-4v4m19,-4v4m19,-4v4m19,-8v8m19,-4v4m18,-4v4m19,-4v4m19,-4v4m19,-8v8m19,-4v4m18,-4v4m19,-4v4m19,-4v4m19,-8v8m19,-4v4m19,-4v4m18,-4v4m19,-4v4m19,-8v8" style="stroke: black; stroke-width: 1;"></path>
       <g font-family="Arial" font-size="9" space="preserve" fill="black" text-anchor="middle">
        <text dy=".8em" transform="translate(0,3)">
         -5
        </text>
        <text dy=".8em" transform="translate(94,3)">
         -4
        </text>
        <text dy=".8em" transform="translate(188,3)">
         -3
        </text>
        <text dy=".8em" transform="translate(282,3)">
         -2
        </text>
        <text dy=".8em" transform="translate(376,3)">
         -1
        </text>
        <text dy=".8em" transform="translate(471,3)">
         0
        </text>
        <text dy=".8em" transform="translate(565,3)">
         1
        </text>
        <text dy=".8em" transform="translate(659,3)">
         2
        </text>
        <text dy=".8em" transform="translate(753,3)">
         3
        </text>
        <text dy=".8em" transform="translate(847,3)">
         4
        </text>
        <text dy=".8em" transform="translate(941,3)">
         5
        </text>
       </g>
      </g>
      <g>
       <path d="M0,0v201M35,201h-35m18,-4h-18m18,-4h-18m18,-4h-18m18,-4h-18m35,-4h-35m18,-4h-18m18,-4h-18m18,-4h-18m18,-4h-18m35,-4h-35m18,-4h-18m18,-4h-18m18,-4h-18m18,-4h-18m35,-4h-35m18,-4h-18m18,-4h-18m18,-4h-18m18,-4h-18m35,-4h-35m18,-4h-18m18,-4h-18m18,-4h-18m18,-4h-18m35,-4h-35m18,-5h-18m18,-4h-18m18,-4h-18m18,-4h-18m35,-4h-35m18,-4h-18m18,-4h-18m18,-4h-18m18,-4h-18m35,-4h-35m18,-4h-18m18,-4h-18m18,-4h-18m18,-4h-18m35,-4h-35m18,-4h-18m18,-4h-18m18,-4h-18m18,-4h-18m35,-4h-35m18,-4h-18m18,-4h-18m18,-4h-18m18,-4h-18m35,-4h-35" style="stroke: black; stroke-width: 1;"></path>
       <g font-family="Arial" font-size="9" space="preserve" fill="black" text-anchor="end">
        <text dy=".4em" transform="translate(-1,201)">
         0
        </text>
        <text dy=".4em" transform="translate(-1,181)">
         0.1
        </text>
        <text dy=".4em" transform="translate(-1,161)">
         0.2
        </text>
        <text dy=".4em" transform="translate(-1,141)">
         0.3
        </text>
        <text dy=".4em" transform="translate(-1,121)">
         0.4
        </text>
        <text dy=".4em" transform="translate(-1,101)">
         0.5
        </text>
        <text dy=".4em" transform="translate(-1,80)">
         0.6
        </text>
        <text dy=".4em" transform="translate(-1,60)">
         0.7
        </text>
        <text dy=".4em" transform="translate(-1,40)">
         0.8
        </text>
        <text dy=".4em" transform="translate(-1,20)">
         0.9
        </text>
        <text dy=".4em" transform="translate(-1)">
         1
        </text>
       </g>
      </g>
     </g>
    </g>
    <g transform="translate(118,1)" font-family="Arial" font-size="13" space="preserve">
     <text fill="black" text-anchor="middle" dy=".8em" transform="translate(471)">
      ROOT::Math::crystalball_cdf(x, 1.2, 2, 1, 0)
     </text>
    </g>
    <g transform="translate(823,0)" font-family="Arial" font-size="21" space="preserve">
     <path d="M0,0H235V75H0Z" style="fill: white; stroke: black; stroke-width: 1;"></path>
     <path d="M7,20H52" style="stroke: #cd3333; stroke-width: 2;"></path>
     <text fill="black" text-anchor="start" dy=".4em" transform="translate(59,20)">
      N=1.2 alpha=2
     </text>
     <path d="M7,55H52" style="stroke: #ff00ff; stroke-width: 2;"></path>
     <text fill="black" text-anchor="start" dy=".4em" transform="translate(59,56)">
      N=1.2 alpha=2
     </text>
    </g>
   </g>
  </svg>
 </g>
</svg>