<svg xmlns="http://www.w3.org/2000/svg" viewBox="0 0 796 572" preserveAspectRatio="none" width="796" height="572">
 <path d="M0,0H796V572H0Z" style="fill: white;"></path>
 <g>
  <g transform="translate(80,57)">
   <path d="M0,0H637V458H0Z" style="fill: white; stroke: black; stroke-width: 1;"></path>
   <svg x="0" y="0" overflow="hidden" width="637" height="458" viewBox="0 0 637 458">
    <g>
     <path d="M0,458C0.32,458,2.56,457.98,3.2,457.98S5.76,457.96,6.4,457.95S8.96,457.93,9.6,457.92S12.16,457.9,12.8,457.89S15.36,457.87,16.01,457.87S18.57,457.84,19.21,457.83S21.77,457.81,22.41,457.8S24.97,457.77,25.61,457.77S28.17,457.74,28.81,457.73S31.37,457.7,32.01,457.69S34.57,457.66,35.21,457.65S37.77,457.62,38.41,457.61S40.97,457.57,41.61,457.56S44.17,457.53,44.81,457.52S47.37,457.48,48.02,457.47S50.58,457.42,51.22,457.41S53.78,457.37,54.42,457.36S56.98,457.31,57.62,457.3S60.18,457.25,60.82,457.24S63.38,457.19,64.02,457.18S66.58,457.12,67.22,457.11S69.78,457.05,70.42,457.04S72.98,456.98,73.62,456.96S76.18,456.9,76.82,456.88S79.38,456.82,80.03,456.8S82.59,456.73,83.23,456.71S85.79,456.64,86.43,456.62S88.99,456.55,89.63,456.53S92.19,456.45,92.83,456.43S95.39,456.34,96.03,456.32S98.59,456.23,99.23,456.21S101.79,456.12,102.43,456.09S104.99,455.99,105.63,455.97S108.19,455.87,108.83,455.84S111.39,455.73,112.04,455.7S114.6,455.59,115.24,455.56S117.8,455.44,118.44,455.41S121,455.28,121.64,455.25S124.2,455.12,124.84,455.09S127.4,454.95,128.04,454.91S130.6,454.77,131.24,454.73S133.8,454.58,134.44,454.54S137,454.38,137.64,454.34S140.2,454.17,140.84,454.13S143.41,453.95,144.05,453.91S146.61,453.72,147.25,453.67S149.81,453.48,150.45,453.43S153.01,453.23,153.65,453.18S156.21,452.96,156.85,452.91S159.41,452.68,160.05,452.63S162.61,452.39,163.25,452.33S165.81,452.09,166.45,452.03S169.01,451.77,169.65,451.7S172.21,451.44,172.85,451.37S175.42,451.09,176.06,451.02S178.62,450.72,179.26,450.65S181.82,450.34,182.46,450.26S185.02,449.94,185.66,449.86S188.22,449.52,188.86,449.44S191.42,449.09,192.06,449S194.62,448.63,195.26,448.54S197.82,448.16,198.46,448.06S201.02,447.67,201.66,447.56S204.22,447.15,204.86,447.05S207.43,446.61,208.07,446.5S210.63,446.06,211.27,445.94S213.83,445.48,214.47,445.36S217.03,444.87,217.67,444.75S220.23,444.24,220.87,444.12S223.43,443.59,224.07,443.46S226.63,442.92,227.27,442.78S229.83,442.22,230.47,442.08S233.03,441.49,233.67,441.35S236.23,440.75,236.87,440.59S239.44,439.97,240.08,439.81S242.64,439.17,243.28,439.01S245.84,438.35,246.48,438.18S249.04,437.5,249.68,437.33S252.24,436.63,252.88,436.45S255.44,435.73,256.08,435.55S258.64,434.82,259.28,434.63S261.84,433.88,262.48,433.69S265.04,432.92,265.68,432.72S268.24,431.94,268.88,431.74S271.45,430.94,272.09,430.74S274.65,429.92,275.29,429.72S277.85,428.89,278.49,428.69S281.05,427.85,281.69,427.65S284.25,426.8,284.89,426.59S287.45,425.75,288.09,425.54S290.65,424.69,291.29,424.48S293.85,423.63,294.49,423.42S297.05,422.57,297.69,422.36S300.25,421.52,300.89,421.31S303.46,420.49,304.1,420.28S306.66,419.47,307.3,419.26S309.86,418.47,310.5,418.27S313.06,417.49,313.7,417.3S316.26,416.55,316.9,416.37S319.46,415.65,320.1,415.47S322.66,414.78,323.3,414.62S325.86,413.97,326.5,413.82S329.06,413.21,329.7,413.07S332.26,412.52,332.9,412.38S335.47,411.88,336.11,411.77S338.67,411.32,339.31,411.22S341.87,410.84,342.51,410.76S345.07,410.44,345.71,410.38S348.27,410.13,348.91,410.09S351.47,409.92,352.11,409.89S354.67,409.8,355.31,409.79S357.87,409.77,358.51,409.79S361.07,409.86,361.71,409.89S364.27,410.04,364.91,410.1S367.48,410.34,368.12,410.41S370.68,410.74,371.32,410.83S373.88,411.25,374.52,411.36S377.08,411.86,377.72,411.99S380.28,412.57,380.92,412.73S383.48,413.38,384.12,413.56S386.68,414.29,387.32,414.48S389.88,415.28,390.52,415.49S393.08,416.36,393.72,416.59S396.28,417.52,396.92,417.76S399.49,418.74,400.13,418.99S402.69,420.02,403.33,420.29S405.89,421.36,406.53,421.63S409.09,422.73,409.73,423.01S412.29,424.15,412.93,424.43S415.49,425.58,416.13,425.87S418.69,427.03,419.33,427.32S421.89,428.49,422.53,428.78S425.09,429.95,425.73,430.24S428.29,431.39,428.93,431.68S431.5,432.82,432.14,433.1S434.7,434.22,435.34,434.5S437.9,435.6,438.54,435.87S441.1,436.93,441.74,437.19S444.3,438.22,444.94,438.48S447.5,439.47,448.14,439.71S450.7,440.67,451.34,440.9S453.9,441.81,454.54,442.03S457.1,442.9,457.74,443.11S460.3,443.93,460.94,444.13S463.51,444.91,464.15,445.09S466.71,445.82,467.35,446S469.91,446.68,470.55,446.84S473.11,447.48,473.75,447.63S476.31,448.22,476.95,448.36S479.51,448.9,480.15,449.03S482.71,449.53,483.35,449.65S485.91,450.11,486.55,450.22S489.11,450.63,489.75,450.73S492.31,451.11,492.95,451.2S495.52,451.54,496.16,451.62S498.72,451.92,499.36,451.99S501.92,452.26,502.56,452.33S505.12,452.57,505.76,452.62S508.32,452.83,508.96,452.88S511.52,453.07,512.16,453.11S514.72,453.27,515.36,453.3S517.92,453.44,518.56,453.47S521.12,453.59,521.76,453.62S524.32,453.71,524.96,453.74S527.53,453.82,528.17,453.84S530.73,453.91,531.37,453.92S533.93,453.98,534.57,453.99S537.13,454.03,537.77,454.04S540.33,454.08,540.97,454.09S543.53,454.12,544.17,454.12S546.73,454.14,547.37,454.15S549.93,454.17,550.57,454.17S553.13,454.18,553.77,454.18S556.33,454.19,556.97,454.2S559.54,454.2,560.18,454.2S562.74,454.21,563.38,454.21S565.94,454.21,566.58,454.21S569.14,454.22,569.78,454.22S572.34,454.22,572.98,454.22S575.54,454.22,576.18,454.22S578.74,454.22,579.38,454.22S581.94,454.22,582.58,454.22S585.14,454.22,585.78,454.22S588.34,454.22,588.98,454.22S591.55,454.22,592.19,454.22S594.75,454.22,595.39,454.22S597.95,454.22,598.59,454.22S601.15,454.22,601.79,454.22S604.35,454.22,604.99,454.22S607.55,454.22,608.19,454.22S610.75,454.22,611.39,454.22S613.95,454.22,614.59,454.22S617.15,454.22,617.79,454.22S620.35,454.22,620.99,454.22S623.56,454.22,624.2,454.22S626.76,454.22,627.4,454.22S629.96,454.22,630.6,454.22S633.16,454.22,633.8,454.22S636.68,454.22,637,454.22" style="fill: none; stroke: black; stroke-width: 2;"></path>
    </g>
    <g>
     <path d="M0,1.89C0.32,1.9,2.56,1.97,3.2,1.99S5.76,2.08,6.4,2.1S8.96,2.19,9.6,2.21S12.16,2.3,12.8,2.33S15.36,2.42,16.01,2.45S18.57,2.55,19.21,2.58S21.77,2.69,22.41,2.72S24.97,2.83,25.61,2.86S28.17,2.98,28.81,3.01S31.37,3.14,32.01,3.17S34.57,3.3,35.21,3.34S37.77,3.48,38.41,3.52S40.97,3.66,41.61,3.7S44.17,3.86,44.81,3.9S47.37,4.06,48.02,4.1S50.58,4.27,51.22,4.32S53.78,4.5,54.42,4.55S56.98,4.74,57.62,4.79S60.18,4.99,60.82,5.04S63.38,5.25,64.02,5.31S66.58,5.53,67.22,5.59S69.78,5.82,70.42,5.88S72.98,6.13,73.62,6.19S76.18,6.45,76.82,6.51S79.38,6.79,80.03,6.86S82.59,7.14,83.23,7.22S85.79,7.52,86.43,7.6S88.99,7.91,89.63,8S92.19,8.33,92.83,8.42S95.39,8.77,96.03,8.86S98.59,9.23,99.23,9.32S101.79,9.71,102.43,9.81S104.99,10.22,105.63,10.32S108.19,10.75,108.83,10.86S111.39,11.31,112.04,11.43S114.6,11.9,115.24,12.03S117.8,12.52,118.44,12.65S121,13.18,121.64,13.31S124.2,13.86,124.84,14S127.4,14.58,128.04,14.73S130.6,15.34,131.24,15.5S133.8,16.13,134.44,16.3S137,16.97,137.64,17.14S140.2,17.85,140.84,18.03S143.41,18.77,144.05,18.96S146.61,19.74,147.25,19.94S149.81,20.75,150.45,20.96S153.01,21.82,153.65,22.04S156.21,22.93,156.85,23.17S159.41,24.11,160.05,24.35S162.61,25.34,163.25,25.59S165.81,26.63,166.45,26.9S169.01,27.98,169.65,28.26S172.21,29.4,172.85,29.7S175.42,30.89,176.06,31.2S178.62,32.45,179.26,32.77S181.82,34.08,182.46,34.42S185.02,35.79,185.66,36.14S188.22,37.58,188.86,37.95S191.42,39.45,192.06,39.84S194.62,41.41,195.26,41.82S197.82,43.46,198.46,43.88S201.02,45.6,201.66,46.05S204.22,47.84,204.86,48.31S207.43,50.18,208.07,50.67S210.63,52.63,211.27,53.13S213.83,55.18,214.47,55.7S217.03,57.84,217.67,58.38S220.23,60.61,220.87,61.18S223.43,63.5,224.07,64.1S226.63,66.51,227.27,67.13S229.83,69.65,230.47,70.29S233.03,72.91,233.67,73.58S236.23,76.3,236.87,77S239.44,79.83,240.08,80.55S242.64,83.49,243.28,84.24S245.84,87.29,246.48,88.07S249.04,91.22,249.68,92.03S252.24,95.3,252.88,96.14S255.44,99.53,256.08,100.39S258.64,103.9,259.28,104.79S261.84,108.41,262.48,109.33S265.04,113.07,265.68,114.02S268.24,117.88,268.88,118.86S271.45,122.83,272.09,123.84S274.65,127.92,275.29,128.96S277.85,133.16,278.49,134.22S281.05,138.53,281.69,139.63S284.25,144.04,284.89,145.17S287.45,149.69,288.09,150.84S290.65,155.46,291.29,156.63S293.85,161.36,294.49,162.55S297.05,167.37,297.69,168.58S300.25,173.49,300.89,174.72S303.46,179.71,304.1,180.96S306.66,186.02,307.3,187.29S309.86,192.41,310.5,193.7S313.06,198.88,313.7,200.18S316.26,205.41,316.9,206.72S319.46,211.98,320.1,213.3S322.66,218.59,323.3,219.92S325.86,225.23,326.5,226.56S329.06,231.88,329.7,233.2S332.26,238.52,332.9,239.84S335.47,245.14,336.11,246.46S338.67,251.73,339.31,253.05S341.87,258.28,342.51,259.58S345.07,264.77,345.71,266.05S348.27,271.18,348.91,272.45S351.47,277.51,352.11,278.76S354.67,283.74,355.31,284.97S357.87,289.87,358.51,291.07S361.07,295.87,361.71,297.06S364.27,301.75,364.91,302.91S367.48,307.5,368.12,308.63S370.68,313.1,371.32,314.2S373.88,318.56,374.52,319.63S377.08,323.88,377.72,324.92S380.28,329.04,380.92,330.05S383.48,334.06,384.12,335.04S386.68,338.93,387.32,339.88S389.88,343.65,390.52,344.57S393.08,348.23,393.72,349.13S396.28,352.68,396.92,353.55S399.49,356.99,400.13,357.84S402.69,361.18,403.33,362S405.89,365.25,406.53,366.04S409.09,369.2,409.73,369.97S412.29,373.04,412.93,373.79S415.49,376.78,416.13,377.51S418.69,380.41,419.33,381.13S421.89,383.95,422.53,384.64S425.09,387.39,425.73,388.07S428.29,390.74,428.93,391.4S431.5,393.99,432.14,394.63S434.7,397.16,435.34,397.77S437.9,400.22,438.54,400.82S441.1,403.19,441.74,403.77S444.3,406.06,444.94,406.62S447.5,408.83,448.14,409.37S450.7,411.5,451.34,412.02S453.9,414.06,454.54,414.56S457.1,416.51,457.74,416.98S460.3,418.84,460.94,419.29S463.51,421.06,464.15,421.49S466.71,423.17,467.35,423.57S469.91,425.15,470.55,425.53S473.11,427.02,473.75,427.38S476.31,428.77,476.95,429.1S479.51,430.39,480.15,430.7S482.71,431.9,483.35,432.19S485.91,433.29,486.55,433.56S489.11,434.57,489.75,434.81S492.31,435.74,492.95,435.96S495.52,436.8,496.16,437S498.72,437.76,499.36,437.93S501.92,438.61,502.56,438.77S505.12,439.38,505.76,439.52S508.32,440.05,508.96,440.18S511.52,440.65,512.16,440.75S514.72,441.16,515.36,441.25S517.92,441.61,518.56,441.69S521.12,441.99,521.76,442.06S524.32,442.31,524.96,442.37S527.53,442.58,528.17,442.63S530.73,442.81,531.37,442.84S533.93,442.99,534.57,443.02S537.13,443.14,537.77,443.16S540.33,443.26,540.97,443.28S543.53,443.35,544.17,443.37S546.73,443.42,547.37,443.44S549.93,443.48,550.57,443.49S553.13,443.52,553.77,443.53S556.33,443.55,556.97,443.56S559.54,443.58,560.18,443.58S562.74,443.59,563.38,443.6S565.94,443.6,566.58,443.61S569.14,443.61,569.78,443.61S572.34,443.62,572.98,443.62S575.54,443.62,576.18,443.62S578.74,443.62,579.38,443.62S581.94,443.62,582.58,443.62S585.14,443.62,585.78,443.62S588.34,443.63,588.98,443.63S591.55,443.63,592.19,443.63S594.75,443.63,595.39,443.63S597.95,443.63,598.59,443.63S601.15,443.63,601.79,443.63S604.35,443.63,604.99,443.63S607.55,443.63,608.19,443.63S610.75,443.63,611.39,443.63S613.95,443.63,614.59,443.63S617.15,443.63,617.79,443.63S620.35,443.63,620.99,443.63S623.56,443.63,624.2,443.63S626.76,443.63,627.4,443.63S629.96,443.63,630.6,443.63S633.16,443.63,633.8,443.63S636.68,443.63,637,443.63" style="fill: none; stroke: black; stroke-width: 2;"></path>
    </g>
    <g>
     <path d="M0,457.03C0.32,457.02,2.56,456.97,3.2,456.95S5.76,456.89,6.4,456.87S8.96,456.8,9.6,456.79S12.16,456.72,12.8,456.7S15.36,456.62,16.01,456.6S18.57,456.53,19.21,456.51S21.77,456.42,22.41,456.4S24.97,456.32,25.61,456.3S28.17,456.2,28.81,456.18S31.37,456.09,32.01,456.06S34.57,455.96,35.21,455.93S37.77,455.83,38.41,455.8S40.97,455.69,41.61,455.66S44.17,455.54,44.81,455.51S47.37,455.39,48.02,455.36S50.58,455.23,51.22,455.19S53.78,455.06,54.42,455.02S56.98,454.88,57.62,454.84S60.18,454.69,60.82,454.65S63.38,454.49,64.02,454.45S66.58,454.28,67.22,454.24S69.78,454.06,70.42,454.02S72.98,453.83,73.62,453.79S76.18,453.59,76.82,453.54S79.38,453.34,80.03,453.28S82.59,453.07,83.23,453.01S85.79,452.79,86.43,452.73S88.99,452.49,89.63,452.43S92.19,452.18,92.83,452.11S95.39,451.85,96.03,451.78S98.59,451.51,99.23,451.43S101.79,451.14,102.43,451.07S104.99,450.76,105.63,450.68S108.19,450.36,108.83,450.28S111.39,449.94,112.04,449.86S114.6,449.5,115.24,449.41S117.8,449.04,118.44,448.94S121,448.55,121.64,448.45S124.2,448.04,124.84,447.93S127.4,447.5,128.04,447.39S130.6,446.94,131.24,446.82S133.8,446.35,134.44,446.23S137,445.73,137.64,445.6S140.2,445.08,140.84,444.94S143.41,444.39,144.05,444.25S146.61,443.68,147.25,443.53S149.81,442.93,150.45,442.77S153.01,442.14,153.65,441.98S156.21,441.31,156.85,441.14S159.41,440.45,160.05,440.27S162.61,439.54,163.25,439.36S165.81,438.6,166.45,438.4S169.01,437.6,169.65,437.4S172.21,436.57,172.85,436.35S175.42,435.48,176.06,435.26S178.62,434.34,179.26,434.11S181.82,433.16,182.46,432.91S185.02,431.92,185.66,431.66S188.22,430.62,188.86,430.35S191.42,429.27,192.06,428.99S194.62,427.86,195.26,427.57S197.82,426.39,198.46,426.08S201.02,424.85,201.66,424.54S204.22,423.25,204.86,422.93S207.43,421.59,208.07,421.25S210.63,419.86,211.27,419.5S213.83,418.06,214.47,417.69S217.03,416.19,217.67,415.8S220.23,414.25,220.87,413.85S223.43,412.23,224.07,411.82S226.63,410.14,227.27,409.71S229.83,407.98,230.47,407.53S233.03,405.74,233.67,405.28S236.23,403.42,236.87,402.95S239.44,401.03,240.08,400.54S242.64,398.57,243.28,398.06S245.84,396.03,246.48,395.51S249.04,393.41,249.68,392.88S252.24,390.72,252.88,390.17S255.44,387.96,256.08,387.4S258.64,385.13,259.28,384.56S261.84,382.24,262.48,381.65S265.04,379.28,265.68,378.68S268.24,376.27,268.88,375.66S271.45,373.2,272.09,372.58S274.65,370.08,275.29,369.45S277.85,366.92,278.49,366.28S281.05,363.72,281.69,363.07S284.25,360.49,284.89,359.84S287.45,357.24,288.09,356.59S290.65,353.98,291.29,353.33S293.85,350.72,294.49,350.07S297.05,347.47,297.69,346.82S300.25,344.23,300.89,343.59S303.46,341.03,304.1,340.39S306.66,337.87,307.3,337.25S309.86,334.77,310.5,334.16S313.06,331.74,313.7,331.14S316.26,328.79,316.9,328.22S319.46,325.95,320.1,325.4S322.66,323.22,323.3,322.69S325.86,320.62,326.5,320.12S329.06,318.17,329.7,317.7S332.26,315.88,332.9,315.45S335.47,313.76,336.11,313.37S338.67,311.84,339.31,311.48S341.87,310.11,342.51,309.8S345.07,308.6,345.71,308.33S348.27,307.32,348.91,307.1S351.47,306.27,352.11,306.1S354.67,305.47,355.31,305.34S357.87,304.91,358.51,304.84S361.07,304.61,361.71,304.59S364.27,304.57,364.91,304.6S367.48,304.79,368.12,304.87S370.68,305.27,371.32,305.4S373.88,306,374.52,306.18S377.08,306.98,377.72,307.21S380.28,308.2,380.92,308.48S383.48,309.66,384.12,309.98S386.68,311.34,387.32,311.7S389.88,313.22,390.52,313.63S393.08,315.31,393.72,315.75S396.28,317.58,396.92,318.05S399.49,320.01,400.13,320.52S402.69,322.6,403.33,323.14S405.89,325.33,406.53,325.89S409.09,328.17,409.73,328.76S412.29,331.13,412.93,331.73S415.49,334.18,416.13,334.8S418.69,337.3,419.33,337.93S421.89,340.49,422.53,341.13S425.09,343.73,425.73,344.38S428.29,347,428.93,347.66S431.5,350.3,432.14,350.97S434.7,353.62,435.34,354.28S437.9,356.94,438.54,357.6S441.1,360.25,441.74,360.91S444.3,363.54,444.94,364.19S447.5,366.8,448.14,367.44S450.7,370.01,451.34,370.65S453.9,373.18,454.54,373.8S457.1,376.27,457.74,376.88S460.3,379.3,460.94,379.89S463.51,382.23,464.15,382.81S466.71,385.07,467.35,385.63S469.91,387.81,470.55,388.34S473.11,390.43,473.75,390.94S476.31,392.93,476.95,393.41S479.51,395.3,480.15,395.76S482.71,397.54,483.35,397.96S485.91,399.63,486.55,400.03S489.11,401.58,489.75,401.96S492.31,403.39,492.95,403.73S495.52,405.06,496.16,405.37S498.72,406.58,499.36,406.86S501.92,407.95,502.56,408.21S505.12,409.19,505.76,409.42S508.32,410.3,508.96,410.5S511.52,411.27,512.16,411.45S514.72,412.13,515.36,412.29S517.92,412.88,518.56,413.01S521.12,413.52,521.76,413.63S524.32,414.06,524.96,414.16S527.53,414.52,528.17,414.6S530.73,414.91,531.37,414.97S533.93,415.22,534.57,415.28S537.13,415.48,537.77,415.52S540.33,415.68,540.97,415.72S543.53,415.84,544.17,415.87S546.73,415.97,547.37,415.99S549.93,416.07,550.57,416.08S553.13,416.14,553.77,416.15S556.33,416.19,556.97,416.2S559.54,416.23,560.18,416.24S562.74,416.26,563.38,416.27S565.94,416.28,566.58,416.29S569.14,416.3,569.78,416.3S572.34,416.3,572.98,416.31S575.54,416.31,576.18,416.31S578.74,416.31,579.38,416.32S581.94,416.32,582.58,416.32S585.14,416.32,585.78,416.32S588.34,416.32,588.98,416.32S591.55,416.32,592.19,416.32S594.75,416.32,595.39,416.32S597.95,416.32,598.59,416.32S601.15,416.32,601.79,416.32S604.35,416.32,604.99,416.32S607.55,416.32,608.19,416.32S610.75,416.32,611.39,416.32S613.95,416.32,614.59,416.32S617.15,416.32,617.79,416.32S620.35,416.32,620.99,416.32S623.56,416.32,624.2,416.32S626.76,416.32,627.4,416.32S629.96,416.32,630.6,416.32S633.16,416.32,633.8,416.32S636.68,416.32,637,416.32" style="fill: none; stroke: red; stroke-width: 2;"></path>
    </g>
    <g>
     <path d="M0,458.46C0.32,458.46,2.56,458.46,3.2,458.46S5.76,458.46,6.4,458.46S8.96,458.46,9.6,458.46S12.16,458.46,12.8,458.46S15.36,458.46,16.01,458.46S18.57,458.45,19.21,458.45S21.77,458.45,22.41,458.45S24.97,458.45,25.61,458.45S28.17,458.45,28.81,458.45S31.37,458.45,32.01,458.45S34.57,458.45,35.21,458.45S37.77,458.45,38.41,458.45S40.97,458.45,41.61,458.45S44.17,458.45,44.81,458.45S47.37,458.45,48.02,458.45S50.58,458.45,51.22,458.45S53.78,458.45,54.42,458.45S56.98,458.45,57.62,458.45S60.18,458.44,60.82,458.44S63.38,458.44,64.02,458.44S66.58,458.44,67.22,458.44S69.78,458.44,70.42,458.44S72.98,458.44,73.62,458.44S76.18,458.44,76.82,458.44S79.38,458.43,80.03,458.43S82.59,458.43,83.23,458.43S85.79,458.43,86.43,458.43S88.99,458.42,89.63,458.42S92.19,458.42,92.83,458.42S95.39,458.42,96.03,458.42S98.59,458.41,99.23,458.41S101.79,458.41,102.43,458.41S104.99,458.4,105.63,458.4S108.19,458.4,108.83,458.39S111.39,458.39,112.04,458.39S114.6,458.38,115.24,458.38S117.8,458.37,118.44,458.37S121,458.36,121.64,458.36S124.2,458.35,124.84,458.35S127.4,458.34,128.04,458.34S130.6,458.33,131.24,458.33S133.8,458.32,134.44,458.31S137,458.3,137.64,458.3S140.2,458.28,140.84,458.28S143.41,458.26,144.05,458.26S146.61,458.24,147.25,458.24S149.81,458.22,150.45,458.22S153.01,458.19,153.65,458.19S156.21,458.17,156.85,458.16S159.41,458.14,160.05,458.13S162.61,458.1,163.25,458.09S165.81,458.06,166.45,458.06S169.01,458.02,169.65,458.01S172.21,457.98,172.85,457.97S175.42,457.92,176.06,457.91S178.62,457.87,179.26,457.86S181.82,457.81,182.46,457.79S185.02,457.74,185.66,457.72S188.22,457.66,188.86,457.64S191.42,457.58,192.06,457.56S194.62,457.49,195.26,457.47S197.82,457.38,198.46,457.36S201.02,457.27,201.66,457.25S204.22,457.15,204.86,457.12S207.43,457.01,208.07,456.99S210.63,456.87,211.27,456.83S213.83,456.7,214.47,456.67S217.03,456.52,217.67,456.48S220.23,456.33,220.87,456.28S223.43,456.11,224.07,456.06S226.63,455.87,227.27,455.82S229.83,455.61,230.47,455.55S233.03,455.32,233.67,455.26S236.23,455.01,236.87,454.94S239.44,454.67,240.08,454.59S242.64,454.29,243.28,454.21S245.84,453.88,246.48,453.8S249.04,453.43,249.68,453.34S252.24,452.95,252.88,452.84S255.44,452.41,256.08,452.3S258.64,451.83,259.28,451.71S261.84,451.2,262.48,451.07S265.04,450.51,265.68,450.37S268.24,449.77,268.88,449.61S271.45,448.95,272.09,448.78S274.65,448.08,275.29,447.89S277.85,447.13,278.49,446.92S281.05,446.1,281.69,445.88S284.25,444.99,284.89,444.75S287.45,443.79,288.09,443.54S290.65,442.5,291.29,442.23S293.85,441.12,294.49,440.82S297.05,439.63,297.69,439.32S300.25,438.04,300.89,437.7S303.46,436.33,304.1,435.98S306.66,434.51,307.3,434.13S309.86,432.58,310.5,432.17S313.06,430.52,313.7,430.09S316.26,428.34,316.9,427.88S319.46,426.02,320.1,425.54S322.66,423.59,323.3,423.08S325.86,421.02,326.5,420.49S329.06,418.32,329.7,417.76S332.26,415.5,332.9,414.91S335.47,412.55,336.11,411.94S338.67,409.48,339.31,408.85S341.87,406.3,342.51,405.65S345.07,403.01,345.71,402.34S348.27,399.62,348.91,398.93S351.47,396.14,352.11,395.43S354.67,392.59,355.31,391.87S357.87,388.97,358.51,388.24S361.07,385.31,361.71,384.57S364.27,381.61,364.91,380.87S367.48,377.9,368.12,377.16S370.68,374.2,371.32,373.47S373.88,370.53,374.52,369.8S377.08,366.9,377.72,366.19S380.28,363.35,380.92,362.65S383.48,359.88,384.12,359.2S386.68,356.53,387.32,355.88S389.88,353.31,390.52,352.69S393.08,350.25,393.72,349.66S396.28,347.36,396.92,346.81S399.49,344.66,400.13,344.15S402.69,342.16,403.33,341.7S405.89,339.89,406.53,339.47S409.09,337.85,409.73,337.47S412.29,336.04,412.93,335.71S415.49,334.48,416.13,334.2S418.69,333.17,419.33,332.94S421.89,332.11,422.53,331.93S425.09,331.3,425.73,331.17S428.29,330.73,428.93,330.65S431.5,330.4,432.14,330.36S434.7,330.29,435.34,330.3S437.9,330.41,438.54,330.46S441.1,330.73,441.74,330.82S444.3,331.25,444.94,331.38S447.5,331.95,448.14,332.11S450.7,332.81,451.34,333S453.9,333.81,454.54,334.03S457.1,334.94,457.74,335.19S460.3,336.19,460.94,336.45S463.51,337.53,464.15,337.8S466.71,338.94,467.35,339.22S469.91,340.4,470.55,340.7S473.11,341.9,473.75,342.2S476.31,343.41,476.95,343.71S479.51,344.92,480.15,345.22S482.71,346.42,483.35,346.71S485.91,347.88,486.55,348.16S489.11,349.29,489.75,349.57S492.31,350.64,492.95,350.9S495.52,351.93,496.16,352.17S498.72,353.13,499.36,353.36S501.92,354.25,502.56,354.46S505.12,355.27,505.76,355.47S508.32,356.21,508.96,356.38S511.52,357.05,512.16,357.2S514.72,357.8,515.36,357.93S517.92,358.45,518.56,358.57S521.12,359.03,521.76,359.13S524.32,359.52,524.96,359.61S527.53,359.94,528.17,360.02S530.73,360.29,531.37,360.36S533.93,360.59,534.57,360.64S537.13,360.83,537.77,360.87S540.33,361.02,540.97,361.05S543.53,361.17,544.17,361.2S546.73,361.29,547.37,361.31S549.93,361.39,550.57,361.4S553.13,361.46,553.77,361.47S556.33,361.51,556.97,361.52S559.54,361.55,560.18,361.55S562.74,361.57,563.38,361.58S565.94,361.59,566.58,361.6S569.14,361.61,569.78,361.61S572.34,361.62,572.98,361.62S575.54,361.62,576.18,361.62S578.74,361.62,579.38,361.63S581.94,361.63,582.58,361.63S585.14,361.63,585.78,361.63S588.34,361.63,588.98,361.63S591.55,361.63,592.19,361.63S594.75,361.63,595.39,361.63S597.95,361.63,598.59,361.63S601.15,361.63,601.79,361.63S604.35,361.63,604.99,361.63S607.55,361.63,608.19,361.63S610.75,361.63,611.39,361.63S613.95,361.63,614.59,361.63S617.15,361.63,617.79,361.63S620.35,361.63,620.99,361.63S623.56,361.63,624.2,361.63S626.76,361.63,627.4,361.63S629.96,361.63,630.6,361.63S633.16,361.63,633.8,361.63S636.68,361.63,637,361.63" style="fill: none; stroke: green; stroke-width: 2;"></path>
    </g>
    <g>
     <path d="M0,458.46C0.32,458.46,2.56,458.46,3.2,458.46S5.76,458.46,6.4,458.46S8.96,458.46,9.6,458.46S12.16,458.46,12.8,458.46S15.36,458.46,16.01,458.46S18.57,458.46,19.21,458.46S21.77,458.46,22.41,458.46S24.97,458.46,25.61,458.46S28.17,458.46,28.81,458.46S31.37,458.46,32.01,458.46S34.57,458.46,35.21,458.46S37.77,458.46,38.41,458.46S40.97,458.46,41.61,458.46S44.17,458.46,44.81,458.46S47.37,458.46,48.02,458.46S50.58,458.46,51.22,458.46S53.78,458.46,54.42,458.46S56.98,458.46,57.62,458.46S60.18,458.46,60.82,458.46S63.38,458.46,64.02,458.46S66.58,458.46,67.22,458.46S69.78,458.46,70.42,458.46S72.98,458.46,73.62,458.46S76.18,458.46,76.82,458.46S79.38,458.46,80.03,458.46S82.59,458.46,83.23,458.46S85.79,458.46,86.43,458.46S88.99,458.46,89.63,458.46S92.19,458.46,92.83,458.46S95.39,458.46,96.03,458.46S98.59,458.46,99.23,458.46S101.79,458.46,102.43,458.46S104.99,458.46,105.63,458.46S108.19,458.46,108.83,458.46S111.39,458.46,112.04,458.46S114.6,458.46,115.24,458.46S117.8,458.46,118.44,458.46S121,458.46,121.64,458.46S124.2,458.46,124.84,458.46S127.4,458.46,128.04,458.46S130.6,458.46,131.24,458.46S133.8,458.46,134.44,458.46S137,458.46,137.64,458.46S140.2,458.46,140.84,458.46S143.41,458.46,144.05,458.46S146.61,458.46,147.25,458.46S149.81,458.46,150.45,458.46S153.01,458.46,153.65,458.46S156.21,458.46,156.85,458.46S159.41,458.46,160.05,458.46S162.61,458.46,163.25,458.46S165.81,458.45,166.45,458.45S169.01,458.45,169.65,458.45S172.21,458.45,172.85,458.45S175.42,458.45,176.06,458.45S178.62,458.45,179.26,458.45S181.82,458.45,182.46,458.45S185.02,458.45,185.66,458.45S188.22,458.45,188.86,458.45S191.42,458.45,192.06,458.44S194.62,458.44,195.26,458.44S197.82,458.44,198.46,458.44S201.02,458.44,201.66,458.44S204.22,458.43,204.86,458.43S207.43,458.43,208.07,458.43S210.63,458.43,211.27,458.42S213.83,458.42,214.47,458.42S217.03,458.41,217.67,458.41S220.23,458.41,220.87,458.41S223.43,458.4,224.07,458.4S226.63,458.39,227.27,458.39S229.83,458.38,230.47,458.38S233.03,458.37,233.67,458.36S236.23,458.35,236.87,458.35S239.44,458.33,240.08,458.33S242.64,458.31,243.28,458.31S245.84,458.29,246.48,458.29S249.04,458.27,249.68,458.26S252.24,458.24,252.88,458.23S255.44,458.2,256.08,458.19S258.64,458.16,259.28,458.15S261.84,458.11,262.48,458.1S265.04,458.06,265.68,458.05S268.24,458,268.88,457.99S271.45,457.93,272.09,457.91S274.65,457.85,275.29,457.83S277.85,457.76,278.49,457.74S281.05,457.65,281.69,457.63S284.25,457.53,284.89,457.5S287.45,457.39,288.09,457.36S290.65,457.24,291.29,457.2S293.85,457.06,294.49,457.02S297.05,456.85,297.69,456.81S300.25,456.62,300.89,456.57S303.46,456.36,304.1,456.3S306.66,456.06,307.3,455.99S309.86,455.72,310.5,455.65S313.06,455.34,313.7,455.25S316.26,454.91,316.9,454.81S319.46,454.42,320.1,454.32S322.66,453.88,323.3,453.76S325.86,453.27,326.5,453.13S329.06,452.58,329.7,452.43S332.26,451.82,332.9,451.65S335.47,450.96,336.11,450.78S338.67,450.01,339.31,449.81S341.87,448.96,342.51,448.74S345.07,447.8,345.71,447.55S348.27,446.51,348.91,446.24S351.47,445.1,352.11,444.79S354.67,443.54,355.31,443.21S357.87,441.84,358.51,441.48S361.07,439.99,361.71,439.59S364.27,437.97,364.91,437.54S367.48,435.79,368.12,435.32S370.68,433.42,371.32,432.93S373.88,430.88,374.52,430.35S377.08,428.16,377.72,427.59S380.28,425.25,380.92,424.64S383.48,422.15,384.12,421.51S386.68,418.87,387.32,418.19S389.88,415.41,390.52,414.69S393.08,411.77,393.72,411.02S396.28,407.97,396.92,407.19S399.49,404.02,400.13,403.2S402.69,399.92,403.33,399.08S405.89,395.69,406.53,394.83S409.09,391.36,409.73,390.48S412.29,386.93,412.93,386.04S415.49,382.44,416.13,381.53S418.69,377.9,419.33,376.99S421.89,373.34,422.53,372.43S425.09,368.78,425.73,367.87S428.29,364.25,428.93,363.35S431.5,359.77,432.14,358.89S434.7,355.37,435.34,354.5S437.9,351.06,438.54,350.21S441.1,346.87,441.74,346.05S444.3,342.82,444.94,342.03S447.5,338.92,448.14,338.16S450.7,335.19,451.34,334.47S453.9,331.64,454.54,330.96S457.1,328.29,457.74,327.65S460.3,325.13,460.94,324.53S463.51,322.18,464.15,321.62S466.71,319.43,467.35,318.91S469.91,316.89,470.55,316.41S473.11,314.55,473.75,314.11S476.31,312.41,476.95,312.01S479.51,310.46,480.15,310.09S482.71,308.69,483.35,308.37S485.91,307.11,486.55,306.81S489.11,305.69,489.75,305.42S492.31,304.42,492.95,304.19S495.52,303.31,496.16,303.1S498.72,302.32,499.36,302.14S501.92,301.47,502.56,301.31S505.12,300.72,505.76,300.59S508.32,300.08,508.96,299.97S511.52,299.54,512.16,299.44S514.72,299.07,515.36,298.99S517.92,298.68,518.56,298.61S521.12,298.36,521.76,298.3S524.32,298.09,524.96,298.04S527.53,297.86,528.17,297.83S530.73,297.69,531.37,297.65S533.93,297.54,534.57,297.52S537.13,297.43,537.77,297.41S540.33,297.34,540.97,297.32S543.53,297.27,544.17,297.26S546.73,297.22,547.37,297.21S549.93,297.18,550.57,297.17S553.13,297.15,553.77,297.14S556.33,297.13,556.97,297.12S559.54,297.11,560.18,297.11S562.74,297.1,563.38,297.1S565.94,297.09,566.58,297.09S569.14,297.09,569.78,297.09S572.34,297.08,572.98,297.08S575.54,297.08,576.18,297.08S578.74,297.08,579.38,297.08S581.94,297.08,582.58,297.08S585.14,297.08,585.78,297.08S588.34,297.08,588.98,297.08S591.55,297.08,592.19,297.08S594.75,297.08,595.39,297.08S597.95,297.08,598.59,297.08S601.15,297.08,601.79,297.08S604.35,297.08,604.99,297.08S607.55,297.08,608.19,297.08S610.75,297.08,611.39,297.08S613.95,297.08,614.59,297.08S617.15,297.08,617.79,297.08S620.35,297.08,620.99,297.08S623.56,297.08,624.2,297.08S626.76,297.08,627.4,297.08S629.96,297.08,630.6,297.08S633.16,297.08,633.8,297.08S636.68,297.08,637,297.08" style="fill: none; stroke: blue; stroke-width: 2;"></path>
    </g>
    <g>
     <path d="M0,458.46C0.32,458.46,2.56,458.46,3.2,458.46S5.76,458.46,6.4,458.46S8.96,458.46,9.6,458.46S12.16,458.46,12.8,458.46S15.36,458.46,16.01,458.46S18.57,458.46,19.21,458.46S21.77,458.46,22.41,458.46S24.97,458.46,25.61,458.46S28.17,458.46,28.81,458.46S31.37,458.46,32.01,458.46S34.57,458.46,35.21,458.46S37.77,458.46,38.41,458.46S40.97,458.46,41.61,458.46S44.17,458.46,44.81,458.46S47.37,458.46,48.02,458.46S50.58,458.46,51.22,458.46S53.78,458.46,54.42,458.46S56.98,458.46,57.62,458.46S60.18,458.46,60.82,458.46S63.38,458.46,64.02,458.46S66.58,458.46,67.22,458.46S69.78,458.46,70.42,458.46S72.98,458.46,73.62,458.46S76.18,458.46,76.82,458.46S79.38,458.46,80.03,458.46S82.59,458.46,83.23,458.46S85.79,458.46,86.43,458.46S88.99,458.46,89.63,458.46S92.19,458.46,92.83,458.46S95.39,458.46,96.03,458.46S98.59,458.46,99.23,458.46S101.79,458.46,102.43,458.46S104.99,458.46,105.63,458.46S108.19,458.46,108.83,458.46S111.39,458.46,112.04,458.46S114.6,458.46,115.24,458.46S117.8,458.46,118.44,458.46S121,458.46,121.64,458.46S124.2,458.46,124.84,458.46S127.4,458.46,128.04,458.46S130.6,458.46,131.24,458.46S133.8,458.46,134.44,458.46S137,458.46,137.64,458.46S140.2,458.46,140.84,458.46S143.41,458.46,144.05,458.46S146.61,458.46,147.25,458.46S149.81,458.46,150.45,458.46S153.01,458.46,153.65,458.46S156.21,458.46,156.85,458.46S159.41,458.46,160.05,458.46S162.61,458.46,163.25,458.46S165.81,458.46,166.45,458.46S169.01,458.46,169.65,458.46S172.21,458.46,172.85,458.46S175.42,458.46,176.06,458.46S178.62,458.46,179.26,458.46S181.82,458.46,182.46,458.46S185.02,458.46,185.66,458.46S188.22,458.46,188.86,458.46S191.42,458.46,192.06,458.46S194.62,458.46,195.26,458.46S197.82,458.46,198.46,458.46S201.02,458.46,201.66,458.46S204.22,458.46,204.86,458.46S207.43,458.46,208.07,458.46S210.63,458.46,211.27,458.46S213.83,458.46,214.47,458.46S217.03,458.46,217.67,458.46S220.23,458.46,220.87,458.46S223.43,458.46,224.07,458.46S226.63,458.46,227.27,458.46S229.83,458.46,230.47,458.46S233.03,458.46,233.67,458.46S236.23,458.46,236.87,458.46S239.44,458.46,240.08,458.46S242.64,458.46,243.28,458.46S245.84,458.46,246.48,458.46S249.04,458.46,249.68,458.46S252.24,458.46,252.88,458.45S255.44,458.45,256.08,458.45S258.64,458.45,259.28,458.45S261.84,458.45,262.48,458.45S265.04,458.45,265.68,458.45S268.24,458.45,268.88,458.45S271.45,458.45,272.09,458.45S274.65,458.45,275.29,458.44S277.85,458.44,278.49,458.44S281.05,458.44,281.69,458.44S284.25,458.43,284.89,458.43S287.45,458.43,288.09,458.43S290.65,458.42,291.29,458.42S293.85,458.42,294.49,458.41S297.05,458.41,297.69,458.4S300.25,458.4,300.89,458.39S303.46,458.38,304.1,458.38S306.66,458.37,307.3,458.36S309.86,458.35,310.5,458.34S313.06,458.33,313.7,458.32S316.26,458.3,316.9,458.29S319.46,458.27,320.1,458.26S322.66,458.23,323.3,458.22S325.86,458.19,326.5,458.18S329.06,458.13,329.7,458.12S332.26,458.07,332.9,458.05S335.47,457.99,336.11,457.98S338.67,457.9,339.31,457.88S341.87,457.8,342.51,457.78S345.07,457.68,345.71,457.65S348.27,457.53,348.91,457.5S351.47,457.36,352.11,457.32S354.67,457.16,355.31,457.12S357.87,456.93,358.51,456.88S361.07,456.66,361.71,456.6S364.27,456.35,364.91,456.28S367.48,455.99,368.12,455.91S370.68,455.57,371.32,455.48S373.88,455.09,374.52,454.99S377.08,454.54,377.72,454.42S380.28,453.92,380.92,453.78S383.48,453.2,384.12,453.04S386.68,452.39,387.32,452.21S389.88,451.47,390.52,451.27S393.08,450.44,393.72,450.21S396.28,449.28,396.92,449.02S399.49,447.98,400.13,447.7S402.69,446.53,403.33,446.22S405.89,444.93,406.53,444.59S409.09,443.16,409.73,442.78S412.29,441.22,412.93,440.8S415.49,439.09,416.13,438.64S418.69,436.78,419.33,436.29S421.89,434.27,422.53,433.74S425.09,431.56,425.73,431S428.29,428.67,428.93,428.06S431.5,425.57,432.14,424.93S434.7,422.29,435.34,421.61S437.9,418.83,438.54,418.11S441.1,415.19,441.74,414.44S444.3,411.4,444.94,410.62S447.5,407.46,448.14,406.66S450.7,403.41,451.34,402.58S453.9,399.25,454.54,398.41S457.1,395.02,457.74,394.17S460.3,390.74,460.94,389.88S463.51,386.44,464.15,385.58S466.71,382.14,467.35,381.29S469.91,377.88,470.55,377.04S473.11,373.69,473.75,372.86S476.31,369.59,476.95,368.78S479.51,365.61,480.15,364.83S482.71,361.78,483.35,361.04S485.91,358.12,486.55,357.41S489.11,354.65,489.75,353.98S492.31,351.38,492.95,350.76S495.52,348.34,496.16,347.76S498.72,345.52,499.36,344.99S501.92,342.94,502.56,342.46S505.12,340.6,505.76,340.16S508.32,338.49,508.96,338.1S511.52,336.61,512.16,336.26S514.72,334.95,515.36,334.65S517.92,333.5,518.56,333.24S521.12,332.25,521.76,332.02S524.32,331.18,524.96,330.99S527.53,330.28,528.17,330.12S530.73,329.52,531.37,329.39S533.93,328.9,534.57,328.79S537.13,328.39,537.77,328.31S540.33,327.99,540.97,327.92S543.53,327.67,544.17,327.61S546.73,327.42,547.37,327.37S549.93,327.22,550.57,327.19S553.13,327.08,553.77,327.05S556.33,326.97,556.97,326.95S559.54,326.89,560.18,326.88S562.74,326.84,563.38,326.83S565.94,326.8,566.58,326.79S569.14,326.77,569.78,326.76S572.34,326.75,572.98,326.75S575.54,326.74,576.18,326.74S578.74,326.73,579.38,326.73S581.94,326.73,582.58,326.73S585.14,326.72,585.78,326.72S588.34,326.72,588.98,326.72S591.55,326.72,592.19,326.72S594.75,326.72,595.39,326.72S597.95,326.72,598.59,326.72S601.15,326.72,601.79,326.72S604.35,326.72,604.99,326.72S607.55,326.72,608.19,326.72S610.75,326.72,611.39,326.72S613.95,326.72,614.59,326.72S617.15,326.72,617.79,326.72S620.35,326.72,620.99,326.72S623.56,326.72,624.2,326.72S626.76,326.72,627.4,326.72S629.96,326.72,630.6,326.72S633.16,326.72,633.8,326.72S636.68,326.72,637,326.72" style="fill: none; stroke: yellow; stroke-width: 2;"></path>
    </g>
    <g>
     <path d="M0,458.46C0.32,458.46,2.56,458.46,3.2,458.46S5.76,458.46,6.4,458.46S8.96,458.46,9.6,458.46S12.16,458.46,12.8,458.46S15.36,458.46,16.01,458.46S18.57,458.46,19.21,458.46S21.77,458.46,22.41,458.46S24.97,458.46,25.61,458.46S28.17,458.46,28.81,458.46S31.37,458.46,32.01,458.46S34.57,458.46,35.21,458.46S37.77,458.46,38.41,458.46S40.97,458.46,41.61,458.46S44.17,458.46,44.81,458.46S47.37,458.46,48.02,458.46S50.58,458.46,51.22,458.46S53.78,458.46,54.42,458.46S56.98,458.46,57.62,458.46S60.18,458.46,60.82,458.46S63.38,458.46,64.02,458.46S66.58,458.46,67.22,458.46S69.78,458.46,70.42,458.46S72.98,458.46,73.62,458.46S76.18,458.46,76.82,458.46S79.38,458.46,80.03,458.46S82.59,458.46,83.23,458.46S85.79,458.46,86.43,458.46S88.99,458.46,89.63,458.46S92.19,458.46,92.83,458.46S95.39,458.46,96.03,458.46S98.59,458.46,99.23,458.46S101.79,458.46,102.43,458.46S104.99,458.46,105.63,458.46S108.19,458.46,108.83,458.46S111.39,458.46,112.04,458.46S114.6,458.46,115.24,458.46S117.8,458.46,118.44,458.46S121,458.46,121.64,458.46S124.2,458.46,124.84,458.46S127.4,458.46,128.04,458.46S130.6,458.46,131.24,458.46S133.8,458.46,134.44,458.46S137,458.46,137.64,458.46S140.2,458.46,140.84,458.46S143.41,458.46,144.05,458.46S146.61,458.46,147.25,458.46S149.81,458.46,150.45,458.46S153.01,458.46,153.65,458.46S156.21,458.46,156.85,458.46S159.41,458.46,160.05,458.46S162.61,458.46,163.25,458.46S165.81,458.46,166.45,458.46S169.01,458.46,169.65,458.46S172.21,458.46,172.85,458.46S175.42,458.46,176.06,458.46S178.62,458.46,179.26,458.46S181.82,458.46,182.46,458.46S185.02,458.46,185.66,458.46S188.22,458.46,188.86,458.46S191.42,458.46,192.06,458.46S194.62,458.46,195.26,458.46S197.82,458.46,198.46,458.46S201.02,458.46,201.66,458.46S204.22,458.46,204.86,458.46S207.43,458.46,208.07,458.46S210.63,458.46,211.27,458.46S213.83,458.46,214.47,458.46S217.03,458.46,217.67,458.46S220.23,458.46,220.87,458.46S223.43,458.46,224.07,458.46S226.63,458.46,227.27,458.46S229.83,458.46,230.47,458.46S233.03,458.46,233.67,458.46S236.23,458.46,236.87,458.46S239.44,458.46,240.08,458.46S242.64,458.46,243.28,458.46S245.84,458.46,246.48,458.46S249.04,458.46,249.68,458.46S252.24,458.46,252.88,458.46S255.44,458.46,256.08,458.46S258.64,458.46,259.28,458.46S261.84,458.46,262.48,458.46S265.04,458.46,265.68,458.46S268.24,458.46,268.88,458.46S271.45,458.46,272.09,458.46S274.65,458.46,275.29,458.46S277.85,458.46,278.49,458.46S281.05,458.46,281.69,458.46S284.25,458.46,284.89,458.46S287.45,458.46,288.09,458.46S290.65,458.46,291.29,458.46S293.85,458.46,294.49,458.46S297.05,458.46,297.69,458.46S300.25,458.46,300.89,458.46S303.46,458.46,304.1,458.46S306.66,458.46,307.3,458.46S309.86,458.46,310.5,458.46S313.06,458.46,313.7,458.46S316.26,458.46,316.9,458.46S319.46,458.46,320.1,458.46S322.66,458.46,323.3,458.46S325.86,458.46,326.5,458.46S329.06,458.46,329.7,458.46S332.26,458.46,332.9,458.46S335.47,458.46,336.11,458.46S338.67,458.46,339.31,458.46S341.87,458.46,342.51,458.46S345.07,458.46,345.71,458.46S348.27,458.45,348.91,458.45S351.47,458.45,352.11,458.45S354.67,458.45,355.31,458.45S357.87,458.45,358.51,458.45S361.07,458.45,361.71,458.45S364.27,458.45,364.91,458.45S367.48,458.44,368.12,458.44S370.68,458.44,371.32,458.44S373.88,458.44,374.52,458.44S377.08,458.43,377.72,458.43S380.28,458.43,380.92,458.43S383.48,458.42,384.12,458.42S386.68,458.41,387.32,458.41S389.88,458.4,390.52,458.4S393.08,458.39,393.72,458.39S396.28,458.37,396.92,458.37S399.49,458.36,400.13,458.35S402.69,458.33,403.33,458.33S405.89,458.31,406.53,458.3S409.09,458.28,409.73,458.27S412.29,458.25,412.93,458.24S415.49,458.21,416.13,458.2S418.69,458.16,419.33,458.15S421.89,458.11,422.53,458.1S425.09,458.05,425.73,458.03S428.29,457.98,428.93,457.96S431.5,457.9,432.14,457.88S434.7,457.81,435.34,457.79S437.9,457.71,438.54,457.69S441.1,457.59,441.74,457.57S444.3,457.47,444.94,457.44S447.5,457.33,448.14,457.3S450.7,457.18,451.34,457.14S453.9,457.01,454.54,456.98S457.1,456.83,457.74,456.79S460.3,456.64,460.94,456.59S463.51,456.43,464.15,456.38S466.71,456.21,467.35,456.16S469.91,455.97,470.55,455.92S473.11,455.73,473.75,455.68S476.31,455.48,476.95,455.42S479.51,455.21,480.15,455.16S482.71,454.95,483.35,454.89S485.91,454.68,486.55,454.62S489.11,454.41,489.75,454.35S492.31,454.14,492.95,454.09S495.52,453.88,496.16,453.82S498.72,453.62,499.36,453.57S501.92,453.37,502.56,453.32S505.12,453.13,505.76,453.09S508.32,452.91,508.96,452.86S511.52,452.7,512.16,452.66S514.72,452.5,515.36,452.47S517.92,452.33,518.56,452.29S521.12,452.17,521.76,452.14S524.32,452.03,524.96,452S527.53,451.9,528.17,451.88S530.73,451.8,531.37,451.78S533.93,451.7,534.57,451.69S537.13,451.63,537.77,451.61S540.33,451.56,540.97,451.55S543.53,451.51,544.17,451.5S546.73,451.47,547.37,451.46S549.93,451.44,550.57,451.43S553.13,451.41,553.77,451.41S556.33,451.39,556.97,451.39S559.54,451.38,560.18,451.37S562.74,451.37,563.38,451.37S565.94,451.36,566.58,451.36S569.14,451.35,569.78,451.35S572.34,451.35,572.98,451.35S575.54,451.35,576.18,451.35S578.74,451.35,579.38,451.35S581.94,451.35,582.58,451.35S585.14,451.35,585.78,451.35S588.34,451.35,588.98,451.34S591.55,451.34,592.19,451.34S594.75,451.34,595.39,451.34S597.95,451.34,598.59,451.34S601.15,451.34,601.79,451.34S604.35,451.34,604.99,451.34S607.55,451.34,608.19,451.34S610.75,451.34,611.39,451.34S613.95,451.34,614.59,451.34S617.15,451.34,617.79,451.34S620.35,451.34,620.99,451.34S623.56,451.34,624.2,451.34S626.76,451.34,627.4,451.34S629.96,451.34,630.6,451.34S633.16,451.34,633.8,451.34S636.68,451.34,637,451.34" style="fill: none; stroke: magenta; stroke-width: 2;"></path>
    </g>
    <g>
     <path d="M0,458.46C0.32,458.46,2.56,458.46,3.2,458.46S5.76,458.46,6.4,458.46S8.96,458.46,9.6,458.46S12.16,458.46,12.8,458.46S15.36,458.46,16.01,458.46S18.57,458.46,19.21,458.46S21.77,458.46,22.41,458.46S24.97,458.46,25.61,458.46S28.17,458.46,28.81,458.46S31.37,458.46,32.01,458.46S34.57,458.46,35.21,458.46S37.77,458.46,38.41,458.46S40.97,458.46,41.61,458.46S44.17,458.46,44.81,458.46S47.37,458.46,48.02,458.46S50.58,458.46,51.22,458.46S53.78,458.46,54.42,458.46S56.98,458.46,57.62,458.46S60.18,458.46,60.82,458.46S63.38,458.46,64.02,458.46S66.58,458.46,67.22,458.46S69.78,458.46,70.42,458.46S72.98,458.46,73.62,458.46S76.18,458.46,76.82,458.46S79.38,458.46,80.03,458.46S82.59,458.46,83.23,458.46S85.79,458.46,86.43,458.46S88.99,458.46,89.63,458.46S92.19,458.46,92.83,458.46S95.39,458.46,96.03,458.46S98.59,458.46,99.23,458.46S101.79,458.46,102.43,458.46S104.99,458.46,105.63,458.46S108.19,458.46,108.83,458.46S111.39,458.46,112.04,458.46S114.6,458.46,115.24,458.46S117.8,458.46,118.44,458.46S121,458.46,121.64,458.46S124.2,458.46,124.84,458.46S127.4,458.46,128.04,458.46S130.6,458.46,131.24,458.46S133.8,458.46,134.44,458.46S137,458.46,137.64,458.46S140.2,458.46,140.84,458.46S143.41,458.46,144.05,458.46S146.61,458.46,147.25,458.46S149.81,458.46,150.45,458.46S153.01,458.46,153.65,458.46S156.21,458.46,156.85,458.46S159.41,458.46,160.05,458.46S162.61,458.46,163.25,458.46S165.81,458.46,166.45,458.46S169.01,458.46,169.65,458.46S172.21,458.46,172.85,458.46S175.42,458.46,176.06,458.46S178.62,458.46,179.26,458.46S181.82,458.46,182.46,458.46S185.02,458.46,185.66,458.46S188.22,458.46,188.86,458.46S191.42,458.46,192.06,458.46S194.62,458.46,195.26,458.46S197.82,458.46,198.46,458.46S201.02,458.46,201.66,458.46S204.22,458.46,204.86,458.46S207.43,458.46,208.07,458.46S210.63,458.46,211.27,458.46S213.83,458.46,214.47,458.46S217.03,458.46,217.67,458.46S220.23,458.46,220.87,458.46S223.43,458.46,224.07,458.46S226.63,458.46,227.27,458.46S229.83,458.46,230.47,458.46S233.03,458.46,233.67,458.46S236.23,458.46,236.87,458.46S239.44,458.46,240.08,458.46S242.64,458.46,243.28,458.46S245.84,458.46,246.48,458.46S249.04,458.46,249.68,458.46S252.24,458.46,252.88,458.46S255.44,458.46,256.08,458.46S258.64,458.46,259.28,458.46S261.84,458.46,262.48,458.46S265.04,458.46,265.68,458.46S268.24,458.46,268.88,458.46S271.45,458.46,272.09,458.46S274.65,458.46,275.29,458.46S277.85,458.46,278.49,458.46S281.05,458.46,281.69,458.46S284.25,458.46,284.89,458.46S287.45,458.46,288.09,458.46S290.65,458.46,291.29,458.46S293.85,458.46,294.49,458.46S297.05,458.46,297.69,458.46S300.25,458.46,300.89,458.46S303.46,458.46,304.1,458.46S306.66,458.46,307.3,458.46S309.86,458.46,310.5,458.46S313.06,458.46,313.7,458.46S316.26,458.46,316.9,458.46S319.46,458.46,320.1,458.46S322.66,458.46,323.3,458.46S325.86,458.46,326.5,458.46S329.06,458.46,329.7,458.46S332.26,458.46,332.9,458.46S335.47,458.46,336.11,458.46S338.67,458.46,339.31,458.46S341.87,458.46,342.51,458.46S345.07,458.46,345.71,458.46S348.27,458.46,348.91,458.46S351.47,458.46,352.11,458.46S354.67,458.46,355.31,458.46S357.87,458.46,358.51,458.46S361.07,458.46,361.71,458.46S364.27,458.46,364.91,458.46S367.48,458.46,368.12,458.46S370.68,458.46,371.32,458.46S373.88,458.46,374.52,458.46S377.08,458.46,377.72,458.46S380.28,458.46,380.92,458.46S383.48,458.46,384.12,458.46S386.68,458.46,387.32,458.46S389.88,458.46,390.52,458.46S393.08,458.46,393.72,458.46S396.28,458.46,396.92,458.46S399.49,458.46,400.13,458.46S402.69,458.46,403.33,458.46S405.89,458.46,406.53,458.46S409.09,458.46,409.73,458.46S412.29,458.46,412.93,458.46S415.49,458.46,416.13,458.46S418.69,458.46,419.33,458.46S421.89,458.46,422.53,458.46S425.09,458.46,425.73,458.46S428.29,458.46,428.93,458.46S431.5,458.45,432.14,458.45S434.7,458.45,435.34,458.45S437.9,458.45,438.54,458.45S441.1,458.45,441.74,458.45S444.3,458.45,444.94,458.45S447.5,458.45,448.14,458.45S450.7,458.45,451.34,458.45S453.9,458.44,454.54,458.44S457.1,458.44,457.74,458.44S460.3,458.44,460.94,458.44S463.51,458.43,464.15,458.43S466.71,458.43,467.35,458.43S469.91,458.43,470.55,458.43S473.11,458.42,473.75,458.42S476.31,458.42,476.95,458.42S479.51,458.41,480.15,458.41S482.71,458.4,483.35,458.4S485.91,458.4,486.55,458.4S489.11,458.39,489.75,458.39S492.31,458.38,492.95,458.38S495.52,458.38,496.16,458.37S498.72,458.37,499.36,458.37S501.92,458.36,502.56,458.36S505.12,458.35,505.76,458.35S508.32,458.34,508.96,458.34S511.52,458.34,512.16,458.33S514.72,458.33,515.36,458.33S517.92,458.32,518.56,458.32S521.12,458.31,521.76,458.31S524.32,458.31,524.96,458.31S527.53,458.3,528.17,458.3S530.73,458.3,531.37,458.29S533.93,458.29,534.57,458.29S537.13,458.29,537.77,458.29S540.33,458.28,540.97,458.28S543.53,458.28,544.17,458.28S546.73,458.28,547.37,458.28S549.93,458.27,550.57,458.27S553.13,458.27,553.77,458.27S556.33,458.27,556.97,458.27S559.54,458.27,560.18,458.27S562.74,458.27,563.38,458.27S565.94,458.27,566.58,458.27S569.14,458.27,569.78,458.27S572.34,458.27,572.98,458.27S575.54,458.27,576.18,458.27S578.74,458.27,579.38,458.27S581.94,458.27,582.58,458.27S585.14,458.27,585.78,458.27S588.34,458.27,588.98,458.27S591.55,458.27,592.19,458.27S594.75,458.27,595.39,458.27S597.95,458.27,598.59,458.27S601.15,458.27,601.79,458.27S604.35,458.27,604.99,458.27S607.55,458.27,608.19,458.27S610.75,458.27,611.39,458.27S613.95,458.27,614.59,458.27S617.15,458.27,617.79,458.27S620.35,458.27,620.99,458.27S623.56,458.27,624.2,458.27S626.76,458.27,627.4,458.27S629.96,458.27,630.6,458.27S633.16,458.27,633.8,458.27S636.68,458.27,637,458.27" style="fill: none; stroke: cyan; stroke-width: 2;"></path>
    </g>
   </svg>
   <g>
    <g transform="translate(0,458)">
     <path d="M0,0h637M0,-17V0M43,-9V0M68,-9V0M86,-9V0M99,-9V0M111,-9V0M120,-9V0M128,-9V0M136,-9V0M142,-17V0M185,-9V0M210,-9V0M228,-9V0M242,-9V0M253,-9V0M263,-9V0M271,-9V0M278,-9V0M285,-17V0M327,-9V0M352,-9V0M370,-9V0M384,-9V0M395,-9V0M405,-9V0M413,-9V0M420,-9V0M427,-17V0M470,-9V0M495,-9V0M512,-9V0M526,-9V0M538,-9V0M547,-9V0M555,-9V0M563,-9V0M569,-17V0M612,-9V0M637,-9V0" style="stroke: black; stroke-width: 1;"></path>
     <g font-family="Arial" font-size="20" space="preserve">
      <g transform="translate(-16,23)">
       <text fill="black" font-size="20">
        10
       </text>
       <text fill="black" font-size="12" transform="translate(21,-10)">
        -3
       </text>
      </g>
      <g transform="translate(126,23)">
       <text fill="black" font-size="20">
        10
       </text>
       <text fill="black" font-size="12" transform="translate(21,-10)">
        -2
       </text>
      </g>
      <g transform="translate(269,23)">
       <text fill="black" font-size="20">
        10
       </text>
       <text fill="black" font-size="12" transform="translate(21,-10)">
        -1
       </text>
      </g>
      <g transform="translate(413,23)">
       <text fill="black" font-size="20">
        10
       </text>
       <text fill="black" font-size="12" transform="translate(21,-10)">
        0
       </text>
      </g>
      <g transform="translate(555,23)">
       <text fill="black" font-size="20">
        10
       </text>
       <text fill="black" font-size="12" transform="translate(21,-10)">
        1
       </text>
      </g>
     </g>
     <g font-family="Arial" font-size="20" space="preserve" transform="translate(319,38)">
      <text fill="black" text-anchor="middle" dy=".4em">
       thickness (cg/cm2)
      </text>
     </g>
    </g>
    <g>
     <path d="M0,0v458M12,449H0M12,440H0M12,431H0M12,422H0M24,413H0M12,403H0M12,394H0M12,385H0M12,376H0M24,367H0M12,358H0M12,348H0M12,339H0M12,330H0M24,321H0M12,312H0M12,303H0M12,293H0M12,284H0M24,275H0M12,266H0M12,257H0M12,248H0M12,238H0M24,229H0M12,220H0M12,211H0M12,202H0M12,193H0M24,183H0M12,174H0M12,165H0M12,156H0M12,147H0M24,138H0M12,128H0M12,119H0M12,110H0M12,101H0M24,92H0M12,83H0M12,73H0M12,64H0M12,55H0M24,46H0M12,37H0M12,28H0M12,18H0M12,9H0M24,0H0" style="stroke: black; stroke-width: 1;"></path>
     <g font-family="Arial" font-size="20" space="preserve" fill="black" text-anchor="end">
      <text dy=".4em" transform="translate(-3,413)">
       0.1
      </text>
      <text dy=".4em" transform="translate(-3,367)">
       0.2
      </text>
      <text dy=".4em" transform="translate(-3,321)">
       0.3
      </text>
      <text dy=".4em" transform="translate(-3,275)">
       0.4
      </text>
      <text dy=".4em" transform="translate(-3,229)">
       0.5
      </text>
      <text dy=".4em" transform="translate(-3,183)">
       0.6
      </text>
      <text dy=".4em" transform="translate(-3,138)">
       0.7
      </text>
      <text dy=".4em" transform="translate(-3,92)">
       0.8
      </text>
      <text dy=".4em" transform="translate(-3,46)">
       0.9
      </text>
      <text dy=".4em" transform="translate(-3)">
       1
      </text>
     </g>
     <g font-family="Arial" font-size="20" space="preserve" transform="translate(-53,229)">
      <text fill="black" text-anchor="middle" dy=".4em" transform="rotate(270)">
       Fractions
      </text>
     </g>
    </g>
   </g>
  </g>
  <g transform="translate(318,57)" font-family="Arial" font-size="39" space="preserve">
   <path d="M0,0H398V114H0Z" style="fill: white; stroke: black; stroke-width: 1;"></path>
   <path d="M3,30H22" style="stroke: black; stroke-width: 2;"></path>
   <path d="M13,30h1" style="stroke: black; fill: none;"></path>
   <text fill="black" text-anchor="start" dy=".4em" transform="translate(25,30)">
    F85
   </text>
   <path d="M103,30H122" style="stroke: black; stroke-width: 2;"></path>
   <path d="M113,30h1" style="stroke: black; fill: none;"></path>
   <text fill="black" text-anchor="start" dy=".4em" transform="translate(125,30)">
    F86
   </text>
   <path d="M203,30H222" style="stroke: red; stroke-width: 2;"></path>
   <path d="M213,30h1" style="stroke: black; fill: none;"></path>
   <text fill="black" text-anchor="start" dy=".4em" transform="translate(225,30)">
    F87
   </text>
   <path d="M303,30H322" style="stroke: green; stroke-width: 2;"></path>
   <path d="M313,30h1" style="stroke: black; fill: none;"></path>
   <text fill="black" text-anchor="start" dy=".4em" transform="translate(325,30)">
    F88
   </text>
   <path d="M3,84H22" style="stroke: blue; stroke-width: 2;"></path>
   <path d="M13,84h1" style="stroke: black; fill: none;"></path>
   <text fill="black" text-anchor="start" dy=".4em" transform="translate(25,84)">
    F89
   </text>
   <path d="M103,84H122" style="stroke: yellow; stroke-width: 2;"></path>
   <path d="M113,84h1" style="stroke: black; fill: none;"></path>
   <text fill="black" text-anchor="start" dy=".4em" transform="translate(125,84)">
    F90
   </text>
   <path d="M203,84H222" style="stroke: magenta; stroke-width: 2;"></path>
   <path d="M213,84h1" style="stroke: black; fill: none;"></path>
   <text fill="black" text-anchor="start" dy=".4em" transform="translate(225,84)">
    F91
   </text>
   <path d="M303,84H322" style="stroke: cyan; stroke-width: 2;"></path>
   <path d="M313,84h1" style="stroke: black; fill: none;"></path>
   <text fill="black" text-anchor="start" dy=".4em" transform="translate(325,84)">
    F92
   </text>
  </g>
  <g transform="translate(119,3)" font-family="Arial" font-size="19" space="preserve">
   <g transform="translate(13,29) scale(0.560)">
    <text fill="black" font-size="35">
     U projectile at 200 MeV/u on
    </text>
    <text fill="black" font-size="21" transform="translate(453,-18)">
     12
    </text>
    <text fill="black" font-size="35" x="475">
     C target with 0 mbar pressure.
    </text>
   </g>
  </g>
 </g>
</svg>