<svg xmlns="http://www.w3.org/2000/svg" width="796" height="572" viewBox="0 0 796 572" preserveAspectRatio="none">
 <path d="M0,0H796V572H0Z" style="fill: white;"></path>
 <g>
  <g transform="translate(80,57)">
   <path d="M0,0H637V458H0Z" style="fill: white; stroke: black; stroke-width: 1;"></path>
   <svg x="0" y="0" overflow="hidden" width="637" height="458" viewBox="0 0 637 458">
    <g>
     <path d="M2,-457h3h3h4l3,1h3h3h3h3h4h3l3,1h3h3h4h3l3,1h3h3h4l3,1h3h3l3,1h3h4l3,1h3h3l3,1h4l3,1h3l3,1h3l3,1l4,1h3l3,1l3,1h3l4,1l3,1l3,1l3,1l3,1l4,1l3,1l3,1l3,1l3,2l3,1l4,1l3,2l3,1l3,2l3,2l4,1l3,2l3,2l3,2l3,2l3,3l4,2l3,3l3,2l3,3l3,3l4,3l3,3l3,3l3,4l3,3l4,4l3,4l3,4l3,5l3,4l3,5l4,5l3,5l3,6l3,5l3,6l4,6l3,7l3,6l3,7l3,7l3,8l4,8l3,8l3,8l3,9l3,9l4,9l3,10l3,10l3,10l3,11l4,11l3,11l3,12l3,11l3,13l3,12l4,13l3,13l3,13l3,14l3,14l4,14l3,14l3,14l3,15l3,14l3,15l4,15l3,15l3,15l3,14l3,15l4,15l3,15l3,14l3,14l3,14l3,14l4,14l3,13l3,13l3,13l3,12l4,12l3,12l3,11l3,11l3,10l4,10l3,9l3,9l3,9l3,8l3,8l4,7l3,7l3,6l3,7l3,5l4,6l3,5l3,4l3,5l3,4l3,4l4,3l3,3l3,3l3,3l3,3l4,2l3,2l3,2l3,2l3,1l4,2l3,1l3,1l3,1l3,1l3,1l4,1h3l3,1h3l3,1h4l3,1h3h3l3,1h3h4h3h3h3h3h4h3l3,1h3h3h4h3h3h3h3h3h4h3" style="fill: none; stroke: black; stroke-width: 2;"></path>
    </g>
    <g>
     <path d="M2,458h3h3h4h3l3,-1h3h3h3h4h3h3h3h3h4l3,-1h3h3h3h4h3h3l3,-1h3h3h4h3l3,-1h3h3h4l3,-1h3h3l3,-1h3h4l3,-1h3h3l3,-1h4l3,-1h3l3,-1h3l4,-1l3,-1h3l3,-1l3,-1h3l4,-1l3,-1l3,-1l3,-1l3,-1l4,-1l3,-1l3,-1l3,-1l3,-1l3,-1l4,-2l3,-1l3,-1l3,-2l3,-1l4,-2l3,-2l3,-1l3,-2l3,-2l4,-2l3,-2l3,-3l3,-2l3,-2l3,-3l4,-2l3,-3l3,-2l3,-3l3,-3l4,-3l3,-3l3,-4l3,-3l3,-3l3,-4l4,-3l3,-4l3,-4l3,-4l3,-4l4,-4l3,-4l3,-4l3,-4l3,-4l4,-4l3,-4l3,-5l3,-4l3,-4l3,-4l4,-4l3,-4l3,-4l3,-4l3,-3l4,-3l3,-4l3,-2l3,-3l3,-3l3,-2l4,-2l3,-1l3,-1l3,-1h3h4h3l3,1l3,1l3,2l3,2l4,3l3,3l3,3l3,4l3,4l4,4l3,5l3,5l3,5l3,5l4,6l3,5l3,6l3,6l3,6l3,6l4,6l3,5l3,6l3,6l3,5l4,5l3,6l3,4l3,5l3,5l3,4l4,4l3,4l3,4l3,3l3,3l4,3l3,3l3,3l3,2l3,2l4,2l3,2l3,2l3,2l3,1l3,1l4,1l3,1l3,1l3,1l3,1l4,1h3l3,1h3l3,1h3h4h3l3,1h3h3h4h3h3h3h3h4h3h3h3h3h3h4h3" style="fill: none; stroke: black; stroke-width: 2;"></path>
    </g>
    <g>
     <path d="M2,458h3h3h4h3h3h3h3h3h4h3h3h3h3h4h3h3h3h3l4,-1h3h3h3h3h3h4h3h3h3l3,-1h4h3h3h3h3h3l4,-1h3h3h3h3l4,-1h3h3h3l3,-1h4h3l3,-1h3h3l3,-1h4h3l3,-1h3l3,-1h4l3,-1h3l3,-1l3,-1h3l4,-1l3,-1h3l3,-1l3,-1l4,-1l3,-1l3,-1l3,-1l3,-1l4,-1l3,-1l3,-1l3,-1l3,-2l3,-1l4,-2l3,-1l3,-2l3,-1l3,-2l4,-2l3,-2l3,-2l3,-2l3,-2l3,-2l4,-2l3,-3l3,-2l3,-3l3,-2l4,-3l3,-3l3,-3l3,-3l3,-3l4,-3l3,-4l3,-3l3,-4l3,-3l3,-4l4,-3l3,-4l3,-4l3,-4l3,-4l4,-4l3,-4l3,-4l3,-3l3,-4l3,-4l4,-4l3,-3l3,-4l3,-3l3,-3l4,-3l3,-3l3,-3l3,-2l3,-2l3,-1l4,-2l3,-1h3h3h3l4,1l3,1l3,1l3,2l3,2l4,3l3,3l3,4l3,4l3,4l3,4l4,5l3,5l3,5l3,5l3,5l4,6l3,5l3,5l3,6l3,5l3,5l4,6l3,5l3,4l3,5l3,5l4,4l3,4l3,4l3,4l3,3l4,3l3,3l3,3l3,3l3,2l3,2l4,2l3,2l3,2l3,1l3,1l4,2l3,1l3,1h3l3,1l3,1h4l3,1h3h3l3,1h4h3h3h3h3h4h3h3h3h3h3h4h3" style="fill: none; stroke: red; stroke-width: 2;"></path>
    </g>
    <g>
     <path d="M2,459h3h3h4h3h3h3h3l3,-1h4h3h3h3h3h4h3h3h3h3h4h3h3h3h3h3h4h3h3h3h3h4h3l3,-1h3h3h3h4h3h3h3h3h4l3,-1h3h3h3h4h3h3l3,-1h3h3h4h3l3,-1h3h3h4l3,-1h3h3l3,-1h3h4l3,-1h3l3,-1h3h4l3,-1h3l3,-1l3,-1h4l3,-1h3l3,-1l3,-1l3,-1h4l3,-1l3,-1l3,-1l3,-1l4,-1l3,-1l3,-1l3,-2l3,-1l3,-1l4,-2l3,-1l3,-1l3,-2l3,-2l4,-1l3,-2l3,-2l3,-2l3,-2l4,-2l3,-3l3,-2l3,-2l3,-3l3,-3l4,-2l3,-3l3,-3l3,-3l3,-3l4,-3l3,-4l3,-3l3,-4l3,-3l3,-4l4,-3l3,-4l3,-4l3,-4l3,-3l4,-4l3,-4l3,-4l3,-3l3,-4l3,-4l4,-3l3,-3l3,-3l3,-3l3,-2l4,-3l3,-2l3,-1l3,-1l3,-1l4,-1h3h3l3,1l3,1l3,1l4,2l3,3l3,2l3,4l3,3l4,4l3,4l3,4l3,4l3,5l3,5l4,5l3,5l3,5l3,5l3,5l4,4l3,5l3,5l3,4l3,5l4,4l3,4l3,3l3,4l3,3l3,3l4,3l3,2l3,3l3,2l3,2l4,2l3,1l3,2l3,1l3,1l3,1l4,1h3l3,1l3,1h3h4l3,1h3h3h3h4h3h3h3h3h3h4h3" style="fill: none; stroke: green; stroke-width: 2;"></path>
    </g>
    <g>
     <path d="M2,459h3h3h4h3h3h3h3h3h4h3h3h3h3h4h3h3h3h3h4h3h3h3h3h3h4h3h3h3h3h4h3h3h3h3h3h4h3h3h3h3h4h3h3h3h3h4h3h3h3h3h3h4h3h3h3h3h4h3h3h3h3h3h4h3h3h3h3l4,-1h3h3h3h3h4h3h3h3h3h3h4l3,-1h3h3h3h4h3l3,-1h3h3l3,-1h4h3l3,-1h3l3,-1h4l3,-1l3,-1h3l3,-1l4,-1l3,-1l3,-1l3,-1l3,-1l3,-1l4,-2l3,-1l3,-2l3,-1l3,-2l4,-2l3,-2l3,-2l3,-3l3,-2l3,-3l4,-3l3,-3l3,-3l3,-3l3,-3l4,-4l3,-4l3,-3l3,-4l3,-4l3,-4l4,-5l3,-4l3,-4l3,-4l3,-5l4,-4l3,-4l3,-4l3,-4l3,-4l4,-3l3,-3l3,-3l3,-3l3,-2l3,-2l4,-2l3,-1l3,-1h3h3h4l3,1l3,2l3,2l3,2l3,2l4,3l3,3l3,3l3,4l3,4l4,4l3,3l3,4l3,5l3,4l4,3l3,4l3,4l3,4l3,3l3,4l4,3l3,3l3,3l3,2l3,2l4,3l3,2l3,1l3,2l3,1l3,1l4,1l3,1l3,1l3,1h3l4,1h3l3,1h3h3h4h3h3h3h3h3h4h3" style="fill: none; stroke: blue; stroke-width: 2;"></path>
    </g>
    <g>
     <path d="M2,459h3h3h4h3h3h3h3h3h4h3h3h3h3h4h3h3h3h3h4h3h3h3h3h3h4h3h3h3h3h4h3h3h3h3h3h4h3h3h3h3h4h3h3h3h3h4h3h3h3h3h3h4h3h3h3h3h4h3h3h3h3h3h4h3h3h3h3h4h3h3h3h3h4h3h3h3h3h3l4,-1h3h3h3h3h4h3h3h3h3h3h4l3,-1h3h3h3h4l3,-1h3h3h3l4,-1h3l3,-1h3l3,-1h3l4,-1h3l3,-1l3,-1l3,-1l4,-1l3,-1l3,-1l3,-1l3,-2l3,-1l4,-2l3,-1l3,-2l3,-2l3,-2l4,-3l3,-2l3,-3l3,-3l3,-3l3,-3l4,-3l3,-3l3,-4l3,-4l3,-4l4,-4l3,-4l3,-4l3,-4l3,-5l4,-4l3,-4l3,-5l3,-4l3,-4l3,-4l4,-4l3,-3l3,-4l3,-3l3,-2l4,-3l3,-2l3,-1l3,-2h3l3,-1h4l3,1h3l3,2l3,1l4,2l3,2l3,2l3,3l3,3l4,2l3,3l3,3l3,3l3,3l3,3l4,3l3,3l3,3l3,2l3,2l4,3l3,2l3,1l3,2l3,2l3,1l4,1l3,1l3,1l3,1h3l4,1h3l3,1h3h3h4h3h3h3l3,1h3h4h3" style="fill: none; stroke: yellow; stroke-width: 2;"></path>
    </g>
    <g>
     <path d="M2,459h3h3h4h3h3h3h3h3h4h3h3h3h3h4h3h3h3h3h4h3h3h3h3h3h4h3h3h3h3h4h3h3h3h3h3h4h3h3h3h3h4h3h3h3h3h4h3h3h3h3h3h4h3h3h3h3h4h3h3h3h3h3h4h3h3h3h3h4h3h3h3h3h4h3h3h3h3h3h4h3h3h3h3h4h3h3h3h3h3h4l3,-1h3h3h3h4h3h3h3h3h4h3l3,-1h3h3h3h4l3,-1h3h3l3,-1h4h3l3,-1l3,-1h3l3,-1l4,-1h3l3,-1l3,-1l3,-1l4,-2l3,-1l3,-2l3,-1l3,-2l3,-2l4,-2l3,-2l3,-3l3,-2l3,-3l4,-3l3,-3l3,-3l3,-4l3,-4l4,-3l3,-4l3,-5l3,-4l3,-4l3,-5l4,-4l3,-5l3,-4l3,-4l3,-5l4,-4l3,-4l3,-4l3,-4l3,-3l3,-3l4,-3l3,-2l3,-2l3,-2l3,-1l4,-1l3,-1h3h3h3l4,1l3,1l3,1l3,1l3,1l3,2l4,1l3,2l3,1l3,2l3,2l4,1l3,2l3,1l3,1l3,1l3,1l4,1l3,1l3,1h3l3,1h4h3l3,1h3h3h4h3h3l3,1h3h3h4h3" style="fill: none; stroke: magenta; stroke-width: 2;"></path>
    </g>
    <g>
     <path d="M2,459h3h3h4h3h3h3h3h3h4h3h3h3h3h4h3h3h3h3h4h3h3h3h3h3h4h3h3h3h3h4h3h3h3h3h3h4h3h3h3h3h4h3h3h3h3h4h3h3h3h3h3h4h3h3h3h3h4h3h3h3h3h3h4h3h3h3h3h4h3h3h3h3h4h3h3h3h3h3h4h3h3h3h3h4h3h3h3h3h3h4h3h3h3h3h4h3h3h3h3h4h3h3h3h3l3,-1h4h3h3h3h3h4h3l3,-1h3h3h3l4,-1h3h3l3,-1h3l4,-1h3l3,-1l3,-1l3,-1l3,-1l4,-1l3,-1l3,-2l3,-1l3,-2l4,-2l3,-2l3,-2l3,-2l3,-3l4,-2l3,-3l3,-3l3,-4l3,-3l3,-4l4,-4l3,-4l3,-4l3,-4l3,-5l4,-4l3,-5l3,-5l3,-4l3,-5l3,-4l4,-4l3,-4l3,-4l3,-4l3,-4l4,-3l3,-3l3,-3l3,-2l3,-2l4,-2l3,-2l3,-1l3,-1l3,-1h3l4,-1h3h3h3h3h4l3,1h3h3l3,1h3h4l3,1h3h3h3h4l3,1h3h3h3h4h3h3h3h3h3h4h3" style="fill: none; stroke: cyan; stroke-width: 2;"></path>
    </g>
    <g>
     <path d="M2,459h3h3h4h3h3h3h3h3h4h3h3h3h3h4h3h3h3h3h4h3h3h3h3h3h4h3h3h3h3h4h3h3h3h3h3h4h3h3h3h3h4h3h3h3h3h4h3h3h3h3h3h4h3h3h3h3h4h3h3h3h3h3h4h3h3h3h3h4h3h3h3h3h4h3h3h3h3h3h4h3h3h3h3h4h3h3h3h3h3h4h3h3h3h3h4h3h3h3h3h4h3h3h3h3h3h4h3h3h3h3h4h3l3,-1h3h3h3h4h3h3h3l3,-1h4h3h3l3,-1h3l3,-1h4l3,-1h3l3,-1l3,-1l4,-1l3,-1l3,-1l3,-2l3,-1l4,-2l3,-2l3,-2l3,-2l3,-2l3,-3l4,-3l3,-3l3,-3l3,-3l3,-4l4,-4l3,-4l3,-4l3,-4l3,-5l3,-4l4,-5l3,-4l3,-5l3,-4l3,-5l4,-4l3,-4l3,-4l3,-4l3,-4l4,-4l3,-3l3,-3l3,-3l3,-2l3,-3l4,-2l3,-2l3,-1l3,-2l3,-1l4,-1l3,-1l3,-1l3,-1h3l3,-1h4h3l3,-1h3h3h4h3l3,-1h3h3h4h3h3h3h3h3h4h3" style="fill: none; stroke: rgb(89, 212, 84); stroke-width: 2;"></path>
    </g>
    <g>
     <path d="M2,459h3h3h4h3h3h3h3h3h4h3h3h3h3h4h3h3h3h3h4h3h3h3h3h3h4h3h3h3h3h4h3h3h3h3h3h4h3h3h3h3h4h3h3h3h3h4h3h3h3h3h3h4h3h3h3h3h4h3h3h3h3h3h4h3h3h3h3h4h3h3h3h3h4h3h3h3h3h3h4h3h3h3h3h4h3h3h3h3h3h4h3h3h3h3h4h3h3h3h3h4h3h3h3h3h3h4h3h3h3h3h4h3h3h3h3h3h4h3h3h3l3,-1h4h3h3h3h3h3l4,-1h3h3h3l3,-1h4l3,-1h3l3,-1l3,-1l4,-1l3,-1l3,-1l3,-1l3,-1l3,-2l4,-2l3,-1l3,-2l3,-3l3,-2l4,-3l3,-2l3,-3l3,-4l3,-3l3,-4l4,-3l3,-4l3,-4l3,-4l3,-4l4,-4l3,-5l3,-4l3,-4l3,-4l4,-4l3,-4l3,-4l3,-4l3,-3l3,-3l4,-3l3,-3l3,-3l3,-2l3,-2l4,-2l3,-2l3,-2l3,-1l3,-2l3,-1l4,-1l3,-1h3l3,-1h3l4,-1h3h3l3,-1h3h4h3h3h3h3h3h4h3" style="fill: none; stroke: rgb(89, 84, 217); stroke-width: 2;"></path>
    </g>
    <g>
     <path d="M2,459h3h3h4h3h3h3h3h3h4h3h3h3h3h4h3h3h3h3h4h3h3h3h3h3h4h3h3h3h3h4h3h3h3h3h3h4h3h3h3h3h4h3h3h3h3h4h3h3h3h3h3h4h3h3h3h3h4h3h3h3h3h3h4h3h3h3h3h4h3h3h3h3h4h3h3h3h3h3h4h3h3h3h3h4h3h3h3h3h3h4h3h3h3h3h4h3h3h3h3h4h3h3h3h3h3h4h3h3h3h3h4h3h3h3h3h3h4h3h3h3h3h4h3h3h3h3h3l4,-1h3h3h3h3h4h3l3,-1h3h3l4,-1h3l3,-1h3l3,-1l3,-1l4,-1l3,-1l3,-1l3,-1l3,-1l4,-2l3,-2l3,-2l3,-2l3,-2l3,-2l4,-3l3,-2l3,-3l3,-3l3,-3l4,-4l3,-3l3,-3l3,-4l3,-4l4,-3l3,-4l3,-3l3,-4l3,-3l3,-3l4,-3l3,-3l3,-3l3,-3l3,-2l4,-3l3,-2l3,-2l3,-1l3,-2l3,-1l4,-1l3,-1l3,-1l3,-1l3,-1h4l3,-1h3h3l3,-1h4h3h3h3h3h3h4h3" style="fill: none; stroke: rgb(192, 182, 172); stroke-width: 2;"></path>
    </g>
    <g>
     <path d="M2,459h3h3h4h3h3h3h3h3h4h3h3h3h3h4h3h3h3h3h4h3h3h3h3h3h4h3h3h3h3h4h3h3h3h3h3h4h3h3h3h3h4h3h3h3h3h4h3h3h3h3h3h4h3h3h3h3h4h3h3h3h3h3h4h3h3h3h3h4h3h3h3h3h4h3h3h3h3h3h4h3h3h3h3h4h3h3h3h3h3h4h3h3h3h3h4h3h3h3h3h4h3h3h3h3h3h4h3h3h3h3h4h3h3h3h3h3h4h3h3h3h3h4h3h3h3h3h3h4h3h3h3h3h4l3,-1h3h3h3h4h3h3l3,-1h3h3l4,-1h3l3,-1h3l3,-1l4,-1l3,-1h3l3,-2l3,-1l3,-1l4,-1l3,-2l3,-2l3,-2l3,-1l4,-3l3,-2l3,-2l3,-2l3,-3l4,-2l3,-3l3,-2l3,-3l3,-2l3,-3l4,-2l3,-3l3,-2l3,-2l3,-2l4,-2l3,-2l3,-2l3,-1l3,-1l3,-2l4,-1l3,-1h3l3,-1l3,-1h4l3,-1h3h3h3h4l3,-1h3h3h3h3h4h3" style="fill: none; stroke: rgb(192, 182, 172); stroke-width: 2;"></path>
    </g>
    <g>
     <path d="M2,459h3h3h4h3h3h3h3h3h4h3h3h3h3h4h3h3h3h3h4h3h3h3h3h3h4h3h3h3h3h4h3h3h3h3h3h4h3h3h3h3h4h3h3h3h3h4h3h3h3h3h3h4h3h3h3h3h4h3h3h3h3h3h4h3h3h3h3h4h3h3h3h3h4h3h3h3h3h3h4h3h3h3h3h4h3h3h3h3h3h4h3h3h3h3h4h3h3h3h3h4h3h3h3h3h3h4h3h3h3h3h4h3h3h3h3h3h4h3h3h3h3h4h3h3h3h3h3h4h3h3h3h3h4h3h3h3h3h4h3l3,-1h3h3h3h4h3h3l3,-1h3h4l3,-1h3l3,-1h3l3,-1l4,-1h3l3,-1l3,-1l3,-1l4,-1l3,-2l3,-1l3,-1l3,-2l4,-1l3,-2l3,-1l3,-2l3,-1l3,-2l4,-1l3,-2l3,-2l3,-1l3,-1l4,-2l3,-1l3,-1l3,-1l3,-1l3,-1l4,-1h3l3,-1h3l3,-1h4h3h3l3,-1h3h4h3h3h3h3h3h4h3" style="fill: none; stroke: rgb(77, 77, 77); stroke-width: 2;"></path>
    </g>
    <g>
     <path d="M2,459h3h3h4h3h3h3h3h3h4h3h3h3h3h4h3h3h3h3h4h3h3h3h3h3h4h3h3h3h3h4h3h3h3h3h3h4h3h3h3h3h4h3h3h3h3h4h3h3h3h3h3h4h3h3h3h3h4h3h3h3h3h3h4h3h3h3h3h4h3h3h3h3h4h3h3h3h3h3h4h3h3h3h3h4h3h3h3h3h3h4h3h3h3h3h4h3h3h3h3h4h3h3h3h3h3h4h3h3h3h3h4h3h3h3h3h3h4h3h3h3h3h4h3h3h3h3h3h4h3h3h3h3h4h3h3h3h3h4h3h3h3h3h3h4h3l3,-1h3h3h4h3h3h3l3,-1h3h4l3,-1h3l3,-1h3l4,-1h3l3,-1l3,-1l3,-1h4l3,-1l3,-1l3,-1l3,-1l3,-1l4,-1l3,-1l3,-1l3,-1l3,-1l4,-1l3,-1h3l3,-1l3,-1h3l4,-1h3l3,-1h3h3l4,-1h3h3h3h3h4h3h3h3h3h3h4h3" style="fill: none; stroke: rgb(102, 102, 102); stroke-width: 2;"></path>
    </g>
    <g>
     <path d="M2,459h3h3h4h3h3h3h3h3h4h3h3h3h3h4h3h3h3h3h4h3h3h3h3h3h4h3h3h3h3h4h3h3h3h3h3h4h3h3h3h3h4h3h3h3h3h4h3h3h3h3h3h4h3h3h3h3h4h3h3h3h3h3h4h3h3h3h3h4h3h3h3h3h4h3h3h3h3h3h4h3h3h3h3h4h3h3h3h3h3h4h3h3h3h3h4h3h3h3h3h4h3h3h3h3h3h4h3h3h3h3h4h3h3h3h3h3h4h3h3h3h3h4h3h3h3h3h3h4h3h3h3h3h4h3h3h3h3h4h3h3h3h3h3h4h3h3h3h3h4h3l3,-1h3h3h3h4h3h3l3,-1h3h4h3l3,-1h3l3,-1h4l3,-1h3l3,-1h3l3,-1h4l3,-1h3l3,-1l3,-1h4l3,-1h3h3l3,-1h3l4,-1h3h3h3h3l4,-1h3h3h3h3h4h3h3h3h3h3h4h3" style="fill: none; stroke: rgb(128, 128, 128); stroke-width: 2;"></path>
    </g>
   </svg>
   <g>
    <g transform="translate(0,458)">
     <path d="M0,0h637M0,-14V0M43,-7V0M68,-7V0M86,-7V0M99,-7V0M111,-7V0M120,-7V0M128,-7V0M136,-7V0M142,-14V0M185,-7V0M210,-7V0M228,-7V0M242,-7V0M253,-7V0M263,-7V0M271,-7V0M278,-7V0M285,-14V0M327,-7V0M352,-7V0M370,-7V0M384,-7V0M395,-7V0M405,-7V0M413,-7V0M420,-7V0M427,-14V0M470,-7V0M495,-7V0M512,-7V0M526,-7V0M538,-7V0M547,-7V0M555,-7V0M563,-7V0M569,-14V0M612,-7V0M637,-7V0" style="stroke: black; stroke-width: 1;"></path>
     <g font-family="Arial" font-size="20" xml:space="preserve"><g transform="translate(-16,26)"><text fill="black" font-size="20">10</text><text fill="black" font-size="12" transform="translate(22,-10)">-3</text></g><g transform="translate(126,26)"><text fill="black" font-size="20">10</text><text fill="black" font-size="12" transform="translate(22,-10)">-2</text></g><g transform="translate(269,26)"><text fill="black" font-size="20">10</text><text fill="black" font-size="12" transform="translate(22,-10)">-1</text></g><text fill="black" text-anchor="middle" transform="translate(427,26)">1</text><text fill="black" text-anchor="middle" transform="translate(569,26)">10</text></g>
     <g font-family="Arial" font-size="20" xml:space="preserve" transform="translate(319,38)"><g transform="translate(-85,7)"><text fill="black" font-size="20">thickness (μg/cm2)</text></g></g>
    </g>
    <g>
     <path d="M0,0v458M10,450H0M10,441H0M10,431H0M10,422H0M19,413H0M10,404H0M10,395H0M10,385H0M10,376H0M19,367H0M10,358H0M10,349H0M10,340H0M10,330H0M19,321H0M10,312H0M10,303H0M10,294H0M10,285H0M19,275H0M10,266H0M10,257H0M10,248H0M10,239H0M19,229H0M10,220H0M10,211H0M10,202H0M10,193H0M19,184H0M10,174H0M10,165H0M10,156H0M10,147H0M19,138H0M10,128H0M10,119H0M10,110H0M10,101H0M19,92H0M10,83H0M10,73H0M10,64H0M10,55H0M19,46H0M10,37H0M10,28H0M10,18H0M10,9H0M19,0H0" style="stroke: black; stroke-width: 1;"></path>
     <g font-family="Arial" font-size="20" xml:space="preserve" fill="black" text-anchor="end"><text dominant-baseline="middle" transform="translate(-4,413)">0.05</text><text dominant-baseline="middle" transform="translate(-4,367)">0.1</text><text dominant-baseline="middle" transform="translate(-4,321)">0.15</text><text dominant-baseline="middle" transform="translate(-4,275)">0.2</text><text dominant-baseline="middle" transform="translate(-4,229)">0.25</text><text dominant-baseline="middle" transform="translate(-4,184)">0.3</text><text dominant-baseline="middle" transform="translate(-4,138)">0.35</text><text dominant-baseline="middle" transform="translate(-4,92)">0.4</text><text dominant-baseline="middle" transform="translate(-4,46)">0.45</text><text dominant-baseline="middle" transform="translate(-4)">0.5</text></g>
     <g font-family="Arial" font-size="20" xml:space="preserve" transform="translate(-53,229)"><text fill="black" text-anchor="middle" dominant-baseline="middle" transform="rotate(270)">Fractions</text></g>
    </g>
   </g>
  </g>
  <g transform="translate(119,3)" font-family="Arial" font-size="19" xml:space="preserve"><g transform="translate(13,30) scale(0.531)"><text fill="black" font-size="37">U projectile at 1.4 MeV/u on</text><text fill="black" font-size="22" transform="translate(468,-19)">40</text><text fill="black" font-size="37" x="492">Ar target with 1 mbar pressure.</text></g></g>
  <g transform="translate(318,57)" font-family="Arial" font-size="21" xml:space="preserve"><path d="M0,0H398V114H0Z" style="fill: white; stroke: black; stroke-width: 1;"></path><path d="M3,16h21" style="stroke: black; stroke-width: 2;"></path><path d="M13,16h1" style="stroke: black; fill: none;"></path><text fill="black" text-anchor="start" dominant-baseline="middle" transform="translate(27,16)">F1</text><path d="M102,16h21" style="stroke: black; stroke-width: 2;"></path><path d="M112,16h1" style="stroke: black; fill: none;"></path><text fill="black" text-anchor="start" dominant-baseline="middle" transform="translate(126,16)">F2</text><path d="M201,16h21" style="stroke: red; stroke-width: 2;"></path><path d="M211,16h1" style="stroke: black; fill: none;"></path><text fill="black" text-anchor="start" dominant-baseline="middle" transform="translate(225,16)">F3</text><path d="M299,16h21" style="stroke: green; stroke-width: 2;"></path><path d="M309,16h1" style="stroke: black; fill: none;"></path><text fill="black" text-anchor="start" dominant-baseline="middle" transform="translate(323,16)">F4</text><path d="M3,44h21" style="stroke: blue; stroke-width: 2;"></path><path d="M13,44h1" style="stroke: black; fill: none;"></path><text fill="black" text-anchor="start" dominant-baseline="middle" transform="translate(27,44)">F5</text><path d="M102,44h21" style="stroke: yellow; stroke-width: 2;"></path><path d="M112,44h1" style="stroke: black; fill: none;"></path><text fill="black" text-anchor="start" dominant-baseline="middle" transform="translate(126,44)">F6</text><path d="M201,44h21" style="stroke: magenta; stroke-width: 2;"></path><path d="M211,44h1" style="stroke: black; fill: none;"></path><text fill="black" text-anchor="start" dominant-baseline="middle" transform="translate(225,44)">F7</text><path d="M299,44h21" style="stroke: cyan; stroke-width: 2;"></path><path d="M309,44h1" style="stroke: black; fill: none;"></path><text fill="black" text-anchor="start" dominant-baseline="middle" transform="translate(323,44)">F8</text><path d="M3,71h21" style="stroke: rgb(89, 212, 84); stroke-width: 2;"></path><path d="M13,71h1" style="stroke: black; fill: none;"></path><text fill="black" text-anchor="start" dominant-baseline="middle" transform="translate(27,71)">F9</text><path d="M102,71h21" style="stroke: rgb(89, 84, 217); stroke-width: 2;"></path><path d="M112,71h1" style="stroke: black; fill: none;"></path><text fill="black" text-anchor="start" dominant-baseline="middle" transform="translate(126,71)">F10</text><path d="M201,71h21" style="stroke: rgb(192, 182, 172); stroke-width: 2;"></path><path d="M211,71h1" style="stroke: black; fill: none;"></path><text fill="black" text-anchor="start" dominant-baseline="middle" transform="translate(225,71)">F11</text><path d="M299,71h21" style="stroke: rgb(192, 182, 172); stroke-width: 2;"></path><path d="M309,71h1" style="stroke: black; fill: none;"></path><text fill="black" text-anchor="start" dominant-baseline="middle" transform="translate(323,71)">F12</text><path d="M3,99h21" style="stroke: rgb(77, 77, 77); stroke-width: 2;"></path><path d="M13,99h1" style="stroke: black; fill: none;"></path><text fill="black" text-anchor="start" dominant-baseline="middle" transform="translate(27,99)">F13</text><path d="M102,99h21" style="stroke: rgb(102, 102, 102); stroke-width: 2;"></path><path d="M112,99h1" style="stroke: black; fill: none;"></path><text fill="black" text-anchor="start" dominant-baseline="middle" transform="translate(126,99)">F14</text><path d="M201,99h21" style="stroke: rgb(128, 128, 128); stroke-width: 2;"></path><path d="M211,99h1" style="stroke: black; fill: none;"></path><text fill="black" text-anchor="start" dominant-baseline="middle" transform="translate(225,99)">F15</text></g>
 </g>
</svg>