<svg xmlns="http://www.w3.org/2000/svg" viewBox="0 0 796 572" preserveAspectRatio="none" width="796" height="572">
 <path d="M0,0H796V572H0Z" style="fill: white;"></path>
 <g>
  <g transform="translate(80,57)">
   <path d="M0,0H637V458H0Z" style="fill: white; stroke: black; stroke-width: 1;"></path>
   <svg x="0" y="0" overflow="hidden" width="637" height="458" viewBox="0 0 637 458">
    <g>
     <path d="M0,-457C0.32,-456.99,2.56,-456.92,3.2,-456.9S5.76,-456.81,6.4,-456.79S8.96,-456.7,9.6,-456.68S12.16,-456.58,12.8,-456.56S15.36,-456.46,16.01,-456.43S18.57,-456.33,19.21,-456.3S21.77,-456.19,22.41,-456.16S24.97,-456.05,25.61,-456.02S28.17,-455.89,28.81,-455.86S31.37,-455.73,32.01,-455.7S34.57,-455.57,35.21,-455.53S37.77,-455.39,38.41,-455.35S40.97,-455.2,41.61,-455.16S44.17,-455,44.81,-454.96S47.37,-454.8,48.02,-454.75S50.58,-454.58,51.22,-454.53S53.78,-454.35,54.42,-454.3S56.98,-454.1,57.62,-454.05S60.18,-453.85,60.82,-453.8S63.38,-453.58,64.02,-453.53S66.58,-453.3,67.22,-453.24S69.78,-453,70.42,-452.94S72.98,-452.69,73.62,-452.62S76.18,-452.36,76.82,-452.29S79.38,-452.01,80.03,-451.94S82.59,-451.65,83.23,-451.57S85.79,-451.26,86.43,-451.18S88.99,-450.86,89.63,-450.77S92.19,-450.43,92.83,-450.34S95.39,-449.98,96.03,-449.89S98.59,-449.51,99.23,-449.41S101.79,-449.01,102.43,-448.91S104.99,-448.49,105.63,-448.38S108.19,-447.94,108.83,-447.83S111.39,-447.36,112.04,-447.24S114.6,-446.75,115.24,-446.63S117.8,-446.11,118.44,-445.98S121,-445.44,121.64,-445.3S124.2,-444.73,124.84,-444.58S127.4,-443.98,128.04,-443.83S130.6,-443.19,131.24,-443.03S133.8,-442.37,134.44,-442.2S137,-441.5,137.64,-441.32S140.2,-440.59,140.84,-440.4S143.41,-439.62,144.05,-439.42S146.61,-438.61,147.25,-438.4S149.81,-437.55,150.45,-437.33S153.01,-436.43,153.65,-436.2S156.21,-435.26,156.85,-435.01S159.41,-434.02,160.05,-433.76S162.61,-432.72,163.25,-432.45S165.81,-431.36,166.45,-431.07S169.01,-429.92,169.65,-429.62S172.21,-428.41,172.85,-428.1S175.42,-426.83,176.06,-426.5S178.62,-425.16,179.26,-424.82S181.82,-423.41,182.46,-423.05S185.02,-421.57,185.66,-421.19S188.22,-419.64,188.86,-419.24S191.42,-417.62,192.06,-417.2S194.62,-415.49,195.26,-415.05S197.82,-413.26,198.46,-412.79S201.02,-410.91,201.66,-410.43S204.22,-408.45,204.86,-407.94S207.43,-405.87,208.07,-405.33S210.63,-403.16,211.27,-402.6S213.83,-400.32,214.47,-399.73S217.03,-397.34,217.67,-396.73S220.23,-394.22,220.87,-393.57S223.43,-390.95,224.07,-390.27S226.63,-387.52,227.27,-386.81S229.83,-383.93,230.47,-383.19S233.03,-380.17,233.67,-379.39S236.23,-376.23,236.87,-375.42S239.44,-372.11,240.08,-371.26S242.64,-367.8,243.28,-366.91S245.84,-363.29,246.48,-362.36S249.04,-358.57,249.68,-357.6S252.24,-353.65,252.88,-352.63S255.44,-348.5,256.08,-347.44S258.64,-343.12,259.28,-342.02S261.84,-337.51,262.48,-336.36S265.04,-331.66,265.68,-330.45S268.24,-325.56,268.88,-324.3S271.45,-319.19,272.09,-317.88S274.65,-312.57,275.29,-311.2S277.85,-305.67,278.49,-304.25S281.05,-298.48,281.69,-297.01S284.25,-291.02,284.89,-289.48S287.45,-283.26,288.09,-281.66S290.65,-275.2,291.29,-273.54S293.85,-266.84,294.49,-265.12S297.05,-258.16,297.69,-256.38S300.25,-249.17,300.89,-247.33S303.46,-239.87,304.1,-237.96S306.66,-230.24,307.3,-228.27S309.86,-220.29,310.5,-218.26S313.06,-210.02,313.7,-207.92S316.26,-199.42,316.9,-197.25S319.46,-188.49,320.1,-186.26S322.66,-177.25,323.3,-174.95S325.86,-165.68,326.5,-163.32S329.06,-153.8,329.7,-151.38S332.26,-141.61,332.9,-139.13S335.47,-129.12,336.11,-126.59S338.67,-116.34,339.31,-113.75S341.87,-103.28,342.51,-100.63S345.07,-89.96,345.71,-87.25S348.27,-76.37,348.91,-73.62S351.47,-62.56,352.11,-59.76S354.67,-48.52,355.31,-45.68S357.87,-34.28,358.51,-31.41S361.07,-19.86,361.71,-16.96S364.27,-5.29,364.91,-2.36S367.48,9.41,368.12,12.36S370.68,24.21,371.32,27.18S373.88,39.09,374.52,42.08S377.08,54.02,377.72,57.01S380.28,68.96,380.92,71.95S383.48,83.9,384.12,86.87S386.68,98.78,387.32,101.75S389.88,113.59,390.52,116.53S393.08,128.29,393.72,131.21S396.28,142.84,396.92,145.73S399.49,157.23,400.13,160.08S402.69,171.41,403.33,174.21S405.89,185.36,406.53,188.11S409.09,199.04,409.73,201.74S412.29,212.44,412.93,215.08S415.49,225.53,416.13,228.1S418.69,238.27,419.33,240.77S421.89,250.66,422.53,253.09S425.09,262.68,425.73,265.02S428.29,274.3,428.93,276.56S431.5,285.51,432.14,287.69S434.7,296.31,435.34,298.41S437.9,306.68,438.54,308.69S441.1,316.62,441.74,318.54S444.3,326.12,444.94,327.96S447.5,335.18,448.14,336.94S450.7,343.82,451.34,345.48S453.9,352.01,454.54,353.59S457.1,359.79,457.74,361.28S460.3,367.14,460.94,368.55S463.51,374.07,464.15,375.4S466.71,380.61,467.35,381.86S469.91,386.75,470.55,387.93S473.11,392.51,473.75,393.62S476.31,397.91,476.95,398.94S479.51,402.95,480.15,403.91S482.71,407.65,483.35,408.54S485.91,412.02,486.55,412.86S489.11,416.09,489.75,416.86S492.31,419.85,492.95,420.57S495.52,423.34,496.16,424S498.72,426.55,499.36,427.16S501.92,429.52,502.56,430.07S505.12,432.24,505.76,432.75S508.32,434.74,508.96,435.21S511.52,437.03,512.16,437.46S514.72,439.12,515.36,439.51S517.92,441.03,518.56,441.38S521.12,442.76,521.76,443.09S524.32,444.34,524.96,444.63S527.53,445.77,528.17,446.03S530.73,447.06,531.37,447.3S533.93,448.22,534.57,448.43S537.13,449.26,537.77,449.46S540.33,450.2,540.97,450.38S543.53,451.04,544.17,451.2S546.73,451.79,547.37,451.93S549.93,452.45,550.57,452.58S553.13,453.04,553.77,453.15S556.33,453.57,556.97,453.66S559.54,454.02,560.18,454.11S562.74,454.43,563.38,454.5S565.94,454.78,566.58,454.84S569.14,455.08,569.78,455.14S572.34,455.35,572.98,455.39S575.54,455.57,576.18,455.61S578.74,455.77,579.38,455.8S581.94,455.93,582.58,455.96S585.14,456.07,585.78,456.1S588.34,456.19,588.98,456.21S591.55,456.28,592.19,456.3S594.75,456.36,595.39,456.38S597.95,456.43,598.59,456.44S601.15,456.48,601.79,456.49S604.35,456.52,604.99,456.53S607.55,456.55,608.19,456.56S610.75,456.58,611.39,456.58S613.95,456.6,614.59,456.6S617.15,456.61,617.79,456.62S620.35,456.62,620.99,456.63S623.56,456.63,624.2,456.63S626.76,456.64,627.4,456.64S629.96,456.64,630.6,456.64S633.16,456.64,633.8,456.64S636.68,456.65,637,456.65" style="fill: none; stroke: black; stroke-width: 2;"></path>
    </g>
    <g>
     <path d="M0,457.81C0.32,457.81,2.56,457.77,3.2,457.76S5.76,457.71,6.4,457.69S8.96,457.64,9.6,457.63S12.16,457.58,12.8,457.56S15.36,457.5,16.01,457.49S18.57,457.43,19.21,457.41S21.77,457.35,22.41,457.33S24.97,457.27,25.61,457.25S28.17,457.18,28.81,457.16S31.37,457.09,32.01,457.07S34.57,456.99,35.21,456.97S37.77,456.89,38.41,456.87S40.97,456.78,41.61,456.76S44.17,456.67,44.81,456.65S47.37,456.55,48.02,456.53S50.58,456.42,51.22,456.4S53.78,456.29,54.42,456.27S56.98,456.15,57.62,456.13S60.18,456.01,60.82,455.98S63.38,455.85,64.02,455.82S66.58,455.69,67.22,455.66S69.78,455.52,70.42,455.49S72.98,455.34,73.62,455.31S76.18,455.15,76.82,455.12S79.38,454.96,80.03,454.92S82.59,454.75,83.23,454.7S85.79,454.53,86.43,454.48S88.99,454.3,89.63,454.25S92.19,454.05,92.83,454S95.39,453.8,96.03,453.74S98.59,453.53,99.23,453.47S101.79,453.25,102.43,453.19S104.99,452.95,105.63,452.89S108.19,452.63,108.83,452.57S111.39,452.31,112.04,452.24S114.6,451.96,115.24,451.89S117.8,451.59,118.44,451.52S121,451.21,121.64,451.13S124.2,450.81,124.84,450.73S127.4,450.39,128.04,450.3S130.6,449.94,131.24,449.85S133.8,449.47,134.44,449.38S137,448.98,137.64,448.88S140.2,448.46,140.84,448.36S143.41,447.92,144.05,447.81S146.61,447.35,147.25,447.23S149.81,446.75,150.45,446.63S153.01,446.12,153.65,445.99S156.21,445.46,156.85,445.33S159.41,444.77,160.05,444.63S162.61,444.04,163.25,443.89S165.81,443.28,166.45,443.12S169.01,442.47,169.65,442.31S172.21,441.63,172.85,441.46S175.42,440.75,176.06,440.57S178.62,439.82,179.26,439.63S181.82,438.85,182.46,438.65S185.02,437.83,185.66,437.62S188.22,436.77,188.86,436.55S191.42,435.65,192.06,435.42S194.62,434.48,195.26,434.24S197.82,433.25,198.46,433S201.02,431.97,201.66,431.7S204.22,430.62,204.86,430.35S207.43,429.22,208.07,428.93S210.63,427.75,211.27,427.44S213.83,426.21,214.47,425.89S217.03,424.6,217.67,424.27S220.23,422.93,220.87,422.58S223.43,421.17,224.07,420.81S226.63,419.34,227.27,418.97S229.83,417.44,230.47,417.04S233.03,415.45,233.67,415.04S236.23,413.38,236.87,412.95S239.44,411.22,240.08,410.78S242.64,408.97,243.28,408.51S245.84,406.64,246.48,406.16S249.04,404.21,249.68,403.71S252.24,401.69,252.88,401.17S255.44,399.08,256.08,398.54S258.64,396.36,259.28,395.81S261.84,393.55,262.48,392.98S265.04,390.65,265.68,390.05S268.24,387.64,268.88,387.02S271.45,384.53,272.09,383.9S274.65,381.33,275.29,380.67S277.85,378.02,278.49,377.35S281.05,374.62,281.69,373.93S284.25,371.13,284.89,370.42S287.45,367.54,288.09,366.81S290.65,363.86,291.29,363.11S293.85,360.1,294.49,359.33S297.05,356.25,297.69,355.47S300.25,352.33,300.89,351.54S303.46,348.34,304.1,347.53S306.66,344.28,307.3,343.46S309.86,340.17,310.5,339.35S313.06,336.02,313.7,335.18S316.26,331.83,316.9,330.99S319.46,327.61,320.1,326.77S322.66,323.39,323.3,322.54S325.86,319.17,326.5,318.32S329.06,314.96,329.7,314.12S332.26,310.79,332.9,309.96S335.47,306.66,336.11,305.85S338.67,302.61,339.31,301.81S341.87,298.65,342.51,297.87S345.07,294.79,345.71,294.04S348.27,291.06,348.91,290.34S351.47,287.49,352.11,286.8S354.67,284.09,355.31,283.44S357.87,280.89,358.51,280.28S361.07,277.91,361.71,277.35S364.27,275.18,364.91,274.67S367.48,272.72,368.12,272.26S370.68,270.54,371.32,270.15S373.88,268.68,374.52,268.36S377.08,267.16,377.72,266.9S380.28,265.99,380.92,265.81S383.48,265.19,384.12,265.09S386.68,264.78,387.32,264.76S389.88,264.77,390.52,264.83S393.08,265.18,393.72,265.32S396.28,266,396.92,266.23S399.49,267.25,400.13,267.56S402.69,268.93,403.33,269.32S405.89,271.03,406.53,271.5S409.09,273.54,409.73,274.1S412.29,276.46,412.93,277.1S415.49,279.78,416.13,280.49S418.69,283.47,419.33,284.26S421.89,287.52,422.53,288.37S425.09,291.89,425.73,292.81S428.29,296.57,428.93,297.54S431.5,301.52,432.14,302.55S434.7,306.72,435.34,307.78S437.9,312.12,438.54,313.22S441.1,317.69,441.74,318.82S444.3,323.4,444.94,324.55S447.5,329.21,448.14,330.38S450.7,335.09,451.34,336.26S453.9,340.99,454.54,342.17S457.1,346.9,457.74,348.07S460.3,352.77,460.94,353.93S463.51,358.58,464.15,359.73S466.71,364.29,467.35,365.42S469.91,369.9,470.55,371S473.11,375.36,473.75,376.43S476.31,380.66,476.95,381.7S479.51,385.8,480.15,386.8S482.71,390.74,483.35,391.7S485.91,395.48,486.55,396.4S489.11,400.02,489.75,400.89S492.31,404.34,492.95,405.17S495.52,408.44,496.16,409.22S498.72,412.31,499.36,413.06S501.92,415.97,502.56,416.67S505.12,419.41,505.76,420.06S508.32,422.62,508.96,423.24S511.52,425.63,512.16,426.2S514.72,428.43,515.36,428.96S517.92,431.02,518.56,431.51S521.12,433.42,521.76,433.88S524.32,435.64,524.96,436.05S527.53,437.67,528.17,438.05S530.73,439.54,531.37,439.89S533.93,441.24,534.57,441.56S537.13,442.79,537.77,443.08S540.33,444.2,540.97,444.46S543.53,445.47,544.17,445.71S546.73,446.62,547.37,446.83S549.93,447.65,550.57,447.84S553.13,448.57,553.77,448.74S556.33,449.39,556.97,449.54S559.54,450.12,560.18,450.25S562.74,450.76,563.38,450.88S565.94,451.33,566.58,451.43S569.14,451.82,569.78,451.91S572.34,452.25,572.98,452.33S575.54,452.62,576.18,452.69S578.74,452.94,579.38,453S581.94,453.22,582.58,453.26S585.14,453.45,585.78,453.49S588.34,453.64,588.98,453.67S591.55,453.8,592.19,453.83S594.75,453.93,595.39,453.96S597.95,454.04,598.59,454.06S601.15,454.13,601.79,454.14S604.35,454.2,604.99,454.21S607.55,454.25,608.19,454.26S610.75,454.3,611.39,454.3S613.95,454.33,614.59,454.33S617.15,454.35,617.79,454.36S620.35,454.37,620.99,454.37S623.56,454.38,624.2,454.39S626.76,454.39,627.4,454.4S629.96,454.4,630.6,454.4S633.16,454.4,633.8,454.41S636.68,454.41,637,454.41" style="fill: none; stroke: black; stroke-width: 2;"></path>
    </g>
    <g>
     <path d="M0,458.38C0.32,458.38,2.56,458.36,3.2,458.35S5.76,458.33,6.4,458.32S8.96,458.3,9.6,458.29S12.16,458.26,12.8,458.26S15.36,458.23,16.01,458.22S18.57,458.19,19.21,458.18S21.77,458.15,22.41,458.14S24.97,458.11,25.61,458.1S28.17,458.07,28.81,458.06S31.37,458.02,32.01,458.01S34.57,457.98,35.21,457.97S37.77,457.93,38.41,457.92S40.97,457.87,41.61,457.86S44.17,457.82,44.81,457.81S47.37,457.76,48.02,457.75S50.58,457.7,51.22,457.69S53.78,457.63,54.42,457.62S56.98,457.57,57.62,457.55S60.18,457.49,60.82,457.48S63.38,457.42,64.02,457.4S66.58,457.34,67.22,457.32S69.78,457.26,70.42,457.24S72.98,457.17,73.62,457.15S76.18,457.08,76.82,457.06S79.38,456.98,80.03,456.96S82.59,456.87,83.23,456.85S85.79,456.77,86.43,456.74S88.99,456.65,89.63,456.63S92.19,456.53,92.83,456.51S95.39,456.41,96.03,456.38S98.59,456.27,99.23,456.25S101.79,456.13,102.43,456.1S104.99,455.99,105.63,455.96S108.19,455.83,108.83,455.8S111.39,455.67,112.04,455.63S114.6,455.5,115.24,455.46S117.8,455.32,118.44,455.28S121,455.13,121.64,455.09S124.2,454.93,124.84,454.88S127.4,454.72,128.04,454.67S130.6,454.49,131.24,454.45S133.8,454.26,134.44,454.21S137,454.02,137.64,453.96S140.2,453.76,140.84,453.7S143.41,453.49,144.05,453.43S146.61,453.2,147.25,453.14S149.81,452.9,150.45,452.84S153.01,452.58,153.65,452.52S156.21,452.25,156.85,452.18S159.41,451.9,160.05,451.83S162.61,451.53,163.25,451.46S165.81,451.15,166.45,451.07S169.01,450.74,169.65,450.66S172.21,450.31,172.85,450.22S175.42,449.86,176.06,449.77S178.62,449.39,179.26,449.29S181.82,448.89,182.46,448.79S185.02,448.37,185.66,448.26S188.22,447.82,188.86,447.71S191.42,447.25,192.06,447.13S194.62,446.64,195.26,446.51S197.82,446,198.46,445.87S201.02,445.33,201.66,445.2S204.22,444.63,204.86,444.49S207.43,443.89,208.07,443.74S210.63,443.12,211.27,442.96S213.83,442.31,214.47,442.14S217.03,441.46,217.67,441.28S220.23,440.56,220.87,440.38S223.43,439.62,224.07,439.43S226.63,438.64,227.27,438.43S229.83,437.61,230.47,437.39S233.03,436.52,233.67,436.3S236.23,435.39,236.87,435.15S239.44,434.2,240.08,433.95S242.64,432.96,243.28,432.7S245.84,431.65,246.48,431.38S249.04,430.29,249.68,430.01S252.24,428.86,252.88,428.56S255.44,427.37,256.08,427.06S258.64,425.8,259.28,425.48S261.84,424.17,262.48,423.84S265.04,422.47,265.68,422.12S268.24,420.69,268.88,420.32S271.45,418.83,272.09,418.45S274.65,416.89,275.29,416.49S277.85,414.87,278.49,414.45S281.05,412.76,281.69,412.33S284.25,410.57,284.89,410.12S287.45,408.29,288.09,407.82S290.65,405.92,291.29,405.43S293.85,403.46,294.49,402.95S297.05,400.9,297.69,400.37S300.25,398.25,300.89,397.7S303.46,395.5,304.1,394.94S306.66,392.66,307.3,392.07S309.86,389.72,310.5,389.12S313.06,386.68,313.7,386.06S316.26,383.55,316.9,382.91S319.46,380.33,320.1,379.67S322.66,377.01,323.3,376.34S325.86,373.61,326.5,372.91S329.06,370.12,329.7,369.41S332.26,366.54,332.9,365.82S335.47,362.9,336.11,362.16S338.67,359.18,339.31,358.43S341.87,355.4,342.51,354.64S345.07,351.57,345.71,350.79S348.27,347.69,348.91,346.91S351.47,343.77,352.11,342.99S354.67,339.84,355.31,339.05S357.87,335.9,358.51,335.11S361.07,331.96,361.71,331.18S364.27,328.05,364.91,327.27S367.48,324.17,368.12,323.41S370.68,320.36,371.32,319.61S373.88,316.62,374.52,315.89S377.08,312.99,377.72,312.28S380.28,309.47,380.92,308.79S383.48,306.11,384.12,305.46S386.68,302.91,387.32,302.3S389.88,299.91,390.52,299.34S393.08,297.13,393.72,296.61S396.28,294.6,396.92,294.13S399.49,292.33,400.13,291.92S402.69,290.37,403.33,290.02S405.89,288.72,406.53,288.43S409.09,287.41,409.73,287.2S412.29,286.46,412.93,286.32S415.49,285.89,416.13,285.83S418.69,285.72,419.33,285.74S421.89,285.95,422.53,286.05S425.09,286.6,425.73,286.79S428.29,287.67,428.93,287.94S431.5,289.16,432.14,289.51S434.7,291.07,435.34,291.51S437.9,293.39,438.54,293.91S441.1,296.12,441.74,296.72S444.3,299.23,444.94,299.9S447.5,302.71,448.14,303.45S450.7,306.53,451.34,307.34S453.9,310.67,454.54,311.53S457.1,315.09,457.74,316.01S460.3,319.77,460.94,320.74S463.51,324.67,464.15,325.68S466.71,329.76,467.35,330.8S469.91,335,470.55,336.06S473.11,340.34,473.75,341.42S476.31,345.76,476.95,346.85S479.51,351.22,480.15,352.31S482.71,356.69,483.35,357.77S485.91,362.12,486.55,363.2S489.11,367.49,489.75,368.55S492.31,372.78,492.95,373.82S495.52,377.95,496.16,378.96S498.72,382.98,499.36,383.96S501.92,387.85,502.56,388.8S505.12,392.55,505.76,393.46S508.32,397.06,508.96,397.93S511.52,401.36,512.16,402.2S514.72,405.46,515.36,406.25S517.92,409.34,518.56,410.08S521.12,412.99,521.76,413.69S524.32,416.42,524.96,417.08S527.53,419.63,528.17,420.24S530.73,422.62,531.37,423.19S533.93,425.39,534.57,425.92S537.13,427.95,537.77,428.44S540.33,430.31,540.97,430.75S543.53,432.47,544.17,432.87S546.73,434.43,547.37,434.8S549.93,436.22,550.57,436.55S553.13,437.83,553.77,438.13S556.33,439.28,556.97,439.55S559.54,440.58,560.18,440.82S562.74,441.74,563.38,441.95S565.94,442.77,566.58,442.95S569.14,443.67,569.78,443.83S572.34,444.46,572.98,444.6S575.54,445.15,576.18,445.27S578.74,445.74,579.38,445.85S581.94,446.25,582.58,446.34S585.14,446.68,585.78,446.76S588.34,447.04,588.98,447.11S591.55,447.35,592.19,447.4S594.75,447.6,595.39,447.64S597.95,447.8,598.59,447.84S601.15,447.97,601.79,448S604.35,448.1,604.99,448.12S607.55,448.21,608.19,448.22S610.75,448.29,611.39,448.3S613.95,448.35,614.59,448.36S617.15,448.4,617.79,448.4S620.35,448.43,620.99,448.44S623.56,448.46,624.2,448.46S626.76,448.47,627.4,448.48S629.96,448.49,630.6,448.49S633.16,448.49,633.8,448.5S636.68,448.5,637,448.5" style="fill: none; stroke: red; stroke-width: 2;"></path>
    </g>
    <g>
     <path d="M0,458.64C0.32,458.64,2.56,458.63,3.2,458.63S5.76,458.61,6.4,458.61S8.96,458.6,9.6,458.6S12.16,458.58,12.8,458.58S15.36,458.56,16.01,458.56S18.57,458.54,19.21,458.54S21.77,458.52,22.41,458.52S24.97,458.5,25.61,458.5S28.17,458.48,28.81,458.48S31.37,458.46,32.01,458.45S34.57,458.43,35.21,458.43S37.77,458.41,38.41,458.4S40.97,458.38,41.61,458.38S44.17,458.35,44.81,458.35S47.37,458.32,48.02,458.32S50.58,458.29,51.22,458.29S53.78,458.26,54.42,458.25S56.98,458.22,57.62,458.22S60.18,458.19,60.82,458.18S63.38,458.15,64.02,458.14S66.58,458.11,67.22,458.1S69.78,458.06,70.42,458.05S72.98,458.02,73.62,458.01S76.18,457.97,76.82,457.96S79.38,457.92,80.03,457.91S82.59,457.87,83.23,457.86S85.79,457.81,86.43,457.8S88.99,457.75,89.63,457.74S92.19,457.69,92.83,457.68S95.39,457.63,96.03,457.61S98.59,457.56,99.23,457.54S101.79,457.48,102.43,457.47S104.99,457.41,105.63,457.39S108.19,457.33,108.83,457.31S111.39,457.24,112.04,457.23S114.6,457.15,115.24,457.14S117.8,457.06,118.44,457.04S121,456.96,121.64,456.94S124.2,456.86,124.84,456.84S127.4,456.75,128.04,456.73S130.6,456.63,131.24,456.61S133.8,456.51,134.44,456.49S137,456.39,137.64,456.36S140.2,456.25,140.84,456.22S143.41,456.11,144.05,456.08S146.61,455.96,147.25,455.93S149.81,455.8,150.45,455.77S153.01,455.64,153.65,455.61S156.21,455.47,156.85,455.43S159.41,455.28,160.05,455.24S162.61,455.09,163.25,455.05S165.81,454.89,166.45,454.85S169.01,454.67,169.65,454.63S172.21,454.45,172.85,454.4S175.42,454.21,176.06,454.16S178.62,453.96,179.26,453.91S181.82,453.7,182.46,453.65S185.02,453.43,185.66,453.37S188.22,453.13,188.86,453.07S191.42,452.83,192.06,452.77S194.62,452.51,195.26,452.44S197.82,452.17,198.46,452.1S201.02,451.81,201.66,451.74S204.22,451.44,204.86,451.36S207.43,451.04,208.07,450.96S210.63,450.63,211.27,450.54S213.83,450.19,214.47,450.1S217.03,449.73,217.67,449.63S220.23,449.25,220.87,449.15S223.43,448.74,224.07,448.63S226.63,448.2,227.27,448.09S229.83,447.64,230.47,447.52S233.03,447.05,233.67,446.92S236.23,446.42,236.87,446.29S239.44,445.77,240.08,445.63S242.64,445.08,243.28,444.94S245.84,444.35,246.48,444.2S249.04,443.59,249.68,443.44S252.24,442.79,252.88,442.63S255.44,441.95,256.08,441.78S258.64,441.07,259.28,440.89S261.84,440.14,262.48,439.95S265.04,439.17,265.68,438.96S268.24,438.14,268.88,437.93S271.45,437.07,272.09,436.84S274.65,435.94,275.29,435.7S277.85,434.75,278.49,434.51S281.05,433.51,281.69,433.25S284.25,432.21,284.89,431.94S287.45,430.84,288.09,430.56S290.65,429.41,291.29,429.11S293.85,427.91,294.49,427.59S297.05,426.33,297.69,426.01S300.25,424.69,300.89,424.35S303.46,422.96,304.1,422.61S306.66,421.16,307.3,420.79S309.86,419.27,310.5,418.89S313.06,417.3,313.7,416.9S316.26,415.25,316.9,414.82S319.46,413.1,320.1,412.66S322.66,410.86,323.3,410.4S325.86,408.53,326.5,408.05S329.06,406.1,329.7,405.61S332.26,403.58,332.9,403.06S335.47,400.96,336.11,400.42S338.67,398.23,339.31,397.68S341.87,395.41,342.51,394.83S345.07,392.49,345.71,391.89S348.27,389.47,348.91,388.85S351.47,386.35,352.11,385.71S354.67,383.13,355.31,382.48S357.87,379.83,358.51,379.15S361.07,376.43,361.71,375.74S364.27,372.95,364.91,372.24S367.48,369.39,368.12,368.67S370.68,365.76,371.32,365.03S373.88,362.07,374.52,361.33S377.08,358.33,377.72,357.57S380.28,354.54,380.92,353.78S383.48,350.73,384.12,349.97S386.68,346.91,387.32,346.15S389.88,343.09,390.52,342.33S393.08,339.29,393.72,338.54S396.28,335.53,396.92,334.79S399.49,331.84,400.13,331.11S402.69,328.23,403.33,327.52S405.89,324.73,406.53,324.05S409.09,321.37,409.73,320.72S412.29,318.16,412.93,317.55S415.49,315.15,416.13,314.58S418.69,312.35,419.33,311.83S421.89,309.8,422.53,309.32S425.09,307.52,425.73,307.1S428.29,305.53,428.93,305.18S431.5,303.87,432.14,303.59S434.7,302.56,435.34,302.35S437.9,301.61,438.54,301.48S441.1,301.05,441.74,301S444.3,300.9,444.94,300.93S447.5,301.16,448.14,301.27S450.7,301.84,451.34,302.03S453.9,302.94,454.54,303.22S457.1,304.47,457.74,304.83S460.3,306.41,460.94,306.86S463.51,308.76,464.15,309.29S466.71,311.5,467.35,312.1S469.91,314.61,470.55,315.28S473.11,318.06,473.75,318.8S476.31,321.83,476.95,322.63S479.51,325.88,480.15,326.73S482.71,330.19,483.35,331.08S485.91,334.7,486.55,335.63S489.11,339.39,489.75,340.35S492.31,344.22,492.95,345.2S495.52,349.14,496.16,350.13S498.72,354.12,499.36,355.12S501.92,359.13,502.56,360.12S505.12,364.11,505.76,365.1S508.32,369.05,508.96,370.03S511.52,373.91,512.16,374.87S514.72,378.66,515.36,379.6S517.92,383.28,518.56,384.19S521.12,387.75,521.76,388.61S524.32,392.03,524.96,392.86S527.53,396.13,528.17,396.92S530.73,400.02,531.37,400.77S533.93,403.71,534.57,404.41S537.13,407.17,537.77,407.83S540.33,410.4,540.97,411.02S543.53,413.41,544.17,413.99S546.73,416.2,547.37,416.73S549.93,418.77,550.57,419.25S553.13,421.12,553.77,421.56S556.33,423.25,556.97,423.65S559.54,425.19,560.18,425.55S562.74,426.93,563.38,427.25S565.94,428.48,566.58,428.77S569.14,429.87,569.78,430.12S572.34,431.08,572.98,431.31S575.54,432.15,576.18,432.35S578.74,433.08,579.38,433.25S581.94,433.88,582.58,434.02S585.14,434.56,585.78,434.68S588.34,435.14,588.98,435.24S591.55,435.62,592.19,435.71S594.75,436.02,595.39,436.09S597.95,436.35,598.59,436.41S601.15,436.62,601.79,436.66S604.35,436.83,604.99,436.87S607.55,437,608.19,437.03S610.75,437.13,611.39,437.15S613.95,437.23,614.59,437.25S617.15,437.31,617.79,437.32S620.35,437.36,620.99,437.37S623.56,437.4,624.2,437.41S626.76,437.43,627.4,437.44S629.96,437.45,630.6,437.46S633.16,437.47,633.8,437.47S636.68,437.48,637,437.48" style="fill: none; stroke: green; stroke-width: 2;"></path>
    </g>
    <g>
     <path d="M0,458.92C0.32,458.92,2.56,458.92,3.2,458.92S5.76,458.92,6.4,458.92S8.96,458.92,9.6,458.92S12.16,458.92,12.8,458.92S15.36,458.92,16.01,458.92S18.57,458.92,19.21,458.92S21.77,458.92,22.41,458.92S24.97,458.92,25.61,458.92S28.17,458.92,28.81,458.92S31.37,458.92,32.01,458.92S34.57,458.92,35.21,458.92S37.77,458.92,38.41,458.92S40.97,458.92,41.61,458.92S44.17,458.92,44.81,458.92S47.37,458.92,48.02,458.92S50.58,458.92,51.22,458.92S53.78,458.92,54.42,458.92S56.98,458.92,57.62,458.92S60.18,458.91,60.82,458.91S63.38,458.91,64.02,458.91S66.58,458.91,67.22,458.91S69.78,458.91,70.42,458.91S72.98,458.91,73.62,458.91S76.18,458.91,76.82,458.91S79.38,458.91,80.03,458.91S82.59,458.91,83.23,458.91S85.79,458.91,86.43,458.91S88.99,458.91,89.63,458.91S92.19,458.91,92.83,458.91S95.39,458.91,96.03,458.91S98.59,458.91,99.23,458.91S101.79,458.91,102.43,458.91S104.99,458.91,105.63,458.91S108.19,458.9,108.83,458.9S111.39,458.9,112.04,458.9S114.6,458.9,115.24,458.9S117.8,458.9,118.44,458.9S121,458.9,121.64,458.9S124.2,458.9,124.84,458.89S127.4,458.89,128.04,458.89S130.6,458.89,131.24,458.89S133.8,458.89,134.44,458.89S137,458.88,137.64,458.88S140.2,458.88,140.84,458.88S143.41,458.88,144.05,458.88S146.61,458.87,147.25,458.87S149.81,458.87,150.45,458.87S153.01,458.86,153.65,458.86S156.21,458.86,156.85,458.85S159.41,458.85,160.05,458.85S162.61,458.84,163.25,458.84S165.81,458.83,166.45,458.83S169.01,458.82,169.65,458.82S172.21,458.81,172.85,458.81S175.42,458.8,176.06,458.8S178.62,458.79,179.26,458.79S181.82,458.78,182.46,458.77S185.02,458.76,185.66,458.76S188.22,458.74,188.86,458.74S191.42,458.73,192.06,458.72S194.62,458.7,195.26,458.7S197.82,458.68,198.46,458.68S201.02,458.66,201.66,458.65S204.22,458.63,204.86,458.62S207.43,458.6,208.07,458.59S210.63,458.56,211.27,458.56S213.83,458.53,214.47,458.52S217.03,458.48,217.67,458.48S220.23,458.44,220.87,458.43S223.43,458.39,224.07,458.38S226.63,458.33,227.27,458.32S229.83,458.27,230.47,458.26S233.03,458.2,233.67,458.19S236.23,458.13,236.87,458.11S239.44,458.04,240.08,458.02S242.64,457.95,243.28,457.93S245.84,457.85,246.48,457.83S249.04,457.74,249.68,457.71S252.24,457.61,252.88,457.59S255.44,457.48,256.08,457.45S258.64,457.33,259.28,457.3S261.84,457.17,262.48,457.13S265.04,456.99,265.68,456.95S268.24,456.79,268.88,456.75S271.45,456.57,272.09,456.52S274.65,456.33,275.29,456.28S277.85,456.07,278.49,456.01S281.05,455.78,281.69,455.72S284.25,455.46,284.89,455.4S287.45,455.12,288.09,455.04S290.65,454.74,291.29,454.66S293.85,454.32,294.49,454.23S297.05,453.87,297.69,453.77S300.25,453.37,300.89,453.26S303.46,452.83,304.1,452.71S306.66,452.24,307.3,452.11S309.86,451.59,310.5,451.45S313.06,450.89,313.7,450.74S316.26,450.12,316.9,449.96S319.46,449.29,320.1,449.11S322.66,448.38,323.3,448.19S325.86,447.4,326.5,447.19S329.06,446.34,329.7,446.11S332.26,445.19,332.9,444.94S335.47,443.94,336.11,443.68S338.67,442.6,339.31,442.32S341.87,441.15,342.51,440.85S345.07,439.59,345.71,439.27S348.27,437.92,348.91,437.57S351.47,436.12,352.11,435.74S354.67,434.2,355.31,433.79S357.87,432.14,358.51,431.71S361.07,429.94,361.71,429.48S364.27,427.6,364.91,427.12S367.48,425.12,368.12,424.6S370.68,422.49,371.32,421.94S373.88,419.7,374.52,419.12S377.08,416.76,377.72,416.15S380.28,413.67,380.92,413.03S383.48,410.43,384.12,409.76S386.68,407.03,387.32,406.33S389.88,403.49,390.52,402.77S393.08,399.82,393.72,399.07S396.28,396.01,396.92,395.23S399.49,392.09,400.13,391.29S402.69,388.05,403.33,387.23S405.89,383.92,406.53,383.09S409.09,379.72,409.73,378.87S412.29,375.46,412.93,374.61S415.49,371.17,416.13,370.31S418.69,366.87,419.33,366.02S421.89,362.59,422.53,361.74S425.09,358.36,425.73,357.52S428.29,354.2,428.93,353.38S431.5,350.15,432.14,349.36S434.7,346.24,435.34,345.49S437.9,342.51,438.54,341.8S441.1,339,441.74,338.33S444.3,335.72,444.94,335.11S447.5,332.73,448.14,332.17S450.7,330.05,451.34,329.56S453.9,327.7,454.54,327.28S457.1,325.72,457.74,325.38S460.3,324.13,460.94,323.86S463.51,322.94,464.15,322.76S466.71,322.18,467.35,322.09S469.91,321.85,470.55,321.84S473.11,321.95,473.75,322.03S476.31,322.49,476.95,322.66S479.51,323.46,480.15,323.71S482.71,324.85,483.35,325.18S485.91,326.64,486.55,327.05S489.11,328.8,489.75,329.28S492.31,331.32,492.95,331.87S495.52,334.16,496.16,334.76S498.72,337.28,499.36,337.94S501.92,340.66,502.56,341.36S505.12,344.24,505.76,344.98S508.32,348,508.96,348.77S511.52,351.89,512.16,352.68S514.72,355.88,515.36,356.68S517.92,359.91,518.56,360.72S521.12,363.97,521.76,364.77S524.32,368,524.96,368.8S527.53,371.98,528.17,372.76S530.73,375.87,531.37,376.64S533.93,379.66,534.57,380.39S537.13,383.31,537.77,384.01S540.33,386.8,540.97,387.48S543.53,390.12,544.17,390.76S546.73,393.26,547.37,393.86S549.93,396.21,550.57,396.77S553.13,398.95,553.77,399.47S556.33,401.48,556.97,401.96S559.54,403.81,560.18,404.25S562.74,405.93,563.38,406.33S565.94,407.85,566.58,408.21S569.14,409.58,569.78,409.9S572.34,411.11,572.98,411.4S575.54,412.47,576.18,412.72S578.74,413.66,579.38,413.88S581.94,414.69,582.58,414.88S585.14,415.58,585.78,415.74S588.34,416.33,588.98,416.47S591.55,416.97,592.19,417.08S594.75,417.5,595.39,417.59S597.95,417.93,598.59,418.01S601.15,418.29,601.79,418.35S604.35,418.57,604.99,418.62S607.55,418.79,608.19,418.83S610.75,418.97,611.39,419S613.95,419.1,614.59,419.12S617.15,419.2,617.79,419.22S620.35,419.28,620.99,419.29S623.56,419.33,624.2,419.34S626.76,419.37,627.4,419.38S629.96,419.4,630.6,419.4S633.16,419.42,633.8,419.42S636.68,419.43,637,419.43" style="fill: none; stroke: blue; stroke-width: 2;"></path>
    </g>
    <g>
     <path d="M0,458.92C0.32,458.92,2.56,458.92,3.2,458.92S5.76,458.92,6.4,458.92S8.96,458.92,9.6,458.92S12.16,458.92,12.8,458.92S15.36,458.92,16.01,458.92S18.57,458.92,19.21,458.92S21.77,458.92,22.41,458.92S24.97,458.92,25.61,458.92S28.17,458.92,28.81,458.92S31.37,458.92,32.01,458.92S34.57,458.92,35.21,458.92S37.77,458.92,38.41,458.92S40.97,458.92,41.61,458.92S44.17,458.92,44.81,458.92S47.37,458.92,48.02,458.92S50.58,458.92,51.22,458.92S53.78,458.92,54.42,458.92S56.98,458.92,57.62,458.92S60.18,458.92,60.82,458.92S63.38,458.92,64.02,458.92S66.58,458.92,67.22,458.92S69.78,458.92,70.42,458.92S72.98,458.92,73.62,458.92S76.18,458.92,76.82,458.92S79.38,458.92,80.03,458.92S82.59,458.92,83.23,458.92S85.79,458.92,86.43,458.92S88.99,458.92,89.63,458.92S92.19,458.92,92.83,458.92S95.39,458.92,96.03,458.92S98.59,458.91,99.23,458.91S101.79,458.91,102.43,458.91S104.99,458.91,105.63,458.91S108.19,458.91,108.83,458.91S111.39,458.91,112.04,458.91S114.6,458.91,115.24,458.91S117.8,458.91,118.44,458.91S121,458.91,121.64,458.91S124.2,458.91,124.84,458.91S127.4,458.91,128.04,458.91S130.6,458.91,131.24,458.91S133.8,458.91,134.44,458.91S137,458.91,137.64,458.91S140.2,458.91,140.84,458.91S143.41,458.9,144.05,458.9S146.61,458.9,147.25,458.9S149.81,458.9,150.45,458.9S153.01,458.9,153.65,458.9S156.21,458.9,156.85,458.9S159.41,458.9,160.05,458.9S162.61,458.89,163.25,458.89S165.81,458.89,166.45,458.89S169.01,458.89,169.65,458.89S172.21,458.88,172.85,458.88S175.42,458.88,176.06,458.88S178.62,458.88,179.26,458.88S181.82,458.87,182.46,458.87S185.02,458.87,185.66,458.87S188.22,458.86,188.86,458.86S191.42,458.86,192.06,458.86S194.62,458.85,195.26,458.85S197.82,458.84,198.46,458.84S201.02,458.83,201.66,458.83S204.22,458.83,204.86,458.82S207.43,458.82,208.07,458.81S210.63,458.8,211.27,458.8S213.83,458.79,214.47,458.79S217.03,458.78,217.67,458.78S220.23,458.76,220.87,458.76S223.43,458.75,224.07,458.74S226.63,458.73,227.27,458.72S229.83,458.71,230.47,458.7S233.03,458.68,233.67,458.68S236.23,458.66,236.87,458.65S239.44,458.63,240.08,458.62S242.64,458.6,243.28,458.59S245.84,458.56,246.48,458.56S249.04,458.53,249.68,458.52S252.24,458.48,252.88,458.48S255.44,458.44,256.08,458.43S258.64,458.39,259.28,458.37S261.84,458.33,262.48,458.32S265.04,458.26,265.68,458.25S268.24,458.19,268.88,458.18S271.45,458.12,272.09,458.1S274.65,458.03,275.29,458.01S277.85,457.93,278.49,457.91S281.05,457.83,281.69,457.81S284.25,457.71,284.89,457.69S287.45,457.58,288.09,457.56S290.65,457.44,291.29,457.41S293.85,457.28,294.49,457.25S297.05,457.11,297.69,457.07S300.25,456.92,300.89,456.88S303.46,456.7,304.1,456.66S306.66,456.47,307.3,456.42S309.86,456.21,310.5,456.16S313.06,455.93,313.7,455.87S316.26,455.61,316.9,455.55S319.46,455.27,320.1,455.19S322.66,454.89,323.3,454.8S325.86,454.47,326.5,454.38S329.06,454,329.7,453.91S332.26,453.5,332.9,453.39S335.47,452.94,336.11,452.82S338.67,452.33,339.31,452.2S341.87,451.66,342.51,451.52S345.07,450.93,345.71,450.77S348.27,450.12,348.91,449.95S351.47,449.25,352.11,449.06S354.67,448.29,355.31,448.08S357.87,447.24,358.51,447.02S361.07,446.1,361.71,445.86S364.27,444.86,364.91,444.6S367.48,443.51,368.12,443.23S370.68,442.05,371.32,441.74S373.88,440.47,374.52,440.14S377.08,438.76,377.72,438.4S380.28,436.91,380.92,436.52S383.48,434.93,384.12,434.51S386.68,432.79,387.32,432.34S389.88,430.5,390.52,430.02S393.08,428.05,393.72,427.54S396.28,425.44,396.92,424.89S399.49,422.66,400.13,422.08S402.69,419.71,403.33,419.09S405.89,416.59,406.53,415.94S409.09,413.3,409.73,412.62S412.29,409.85,412.93,409.14S415.49,406.24,416.13,405.5S418.69,402.48,419.33,401.7S421.89,398.57,422.53,397.77S425.09,394.54,425.73,393.71S428.29,390.39,428.93,389.55S431.5,386.15,432.14,385.29S434.7,381.83,435.34,380.96S437.9,377.47,438.54,376.59S441.1,373.08,441.74,372.21S444.3,368.71,444.94,367.84S447.5,364.37,448.14,363.52S450.7,360.11,451.34,359.28S453.9,355.97,454.54,355.16S457.1,351.97,457.74,351.2S460.3,348.16,460.94,347.42S463.51,344.57,464.15,343.88S466.71,341.23,467.35,340.61S469.91,338.19,470.55,337.63S473.11,335.47,473.75,334.98S476.31,333.1,476.95,332.68S479.51,331.1,480.15,330.76S482.71,329.5,483.35,329.24S485.91,328.3,486.55,328.12S489.11,327.52,489.75,327.42S492.31,327.15,492.95,327.14S495.52,327.2,496.16,327.26S498.72,327.65,499.36,327.79S501.92,328.48,502.56,328.7S505.12,329.69,505.76,329.98S508.32,331.23,508.96,331.59S511.52,333.09,512.16,333.5S514.72,335.23,515.36,335.69S517.92,337.61,518.56,338.11S521.12,340.19,521.76,340.73S524.32,342.94,524.96,343.5S527.53,345.81,528.17,346.4S530.73,348.77,531.37,349.37S533.93,351.78,534.57,352.39S537.13,354.8,537.77,355.4S540.33,357.8,540.97,358.4S543.53,360.75,544.17,361.33S546.73,363.61,547.37,364.17S549.93,366.37,550.57,366.91S553.13,369,553.77,369.51S556.33,371.49,556.97,371.97S559.54,373.82,560.18,374.26S562.74,375.98,563.38,376.39S565.94,377.97,566.58,378.34S569.14,379.78,569.78,380.12S572.34,381.42,572.98,381.72S575.54,382.88,576.18,383.15S578.74,384.17,579.38,384.41S581.94,385.3,582.58,385.51S585.14,386.28,585.78,386.46S588.34,387.12,588.98,387.27S591.55,387.83,592.19,387.96S594.75,388.43,595.39,388.53S597.95,388.92,598.59,389S601.15,389.32,601.79,389.39S604.35,389.64,604.99,389.7S607.55,389.9,608.19,389.94S610.75,390.1,611.39,390.13S613.95,390.25,614.59,390.27S617.15,390.36,617.79,390.38S620.35,390.45,620.99,390.46S623.56,390.51,624.2,390.52S626.76,390.56,627.4,390.56S629.96,390.59,630.6,390.59S633.16,390.61,633.8,390.61S636.68,390.62,637,390.62" style="fill: none; stroke: yellow; stroke-width: 2;"></path>
    </g>
    <g>
     <path d="M0,458.92C0.32,458.92,2.56,458.92,3.2,458.92S5.76,458.92,6.4,458.92S8.96,458.92,9.6,458.92S12.16,458.92,12.8,458.92S15.36,458.92,16.01,458.92S18.57,458.92,19.21,458.92S21.77,458.92,22.41,458.92S24.97,458.92,25.61,458.92S28.17,458.92,28.81,458.92S31.37,458.92,32.01,458.92S34.57,458.92,35.21,458.92S37.77,458.92,38.41,458.92S40.97,458.92,41.61,458.92S44.17,458.92,44.81,458.92S47.37,458.92,48.02,458.92S50.58,458.92,51.22,458.92S53.78,458.92,54.42,458.92S56.98,458.92,57.62,458.92S60.18,458.92,60.82,458.92S63.38,458.92,64.02,458.92S66.58,458.92,67.22,458.92S69.78,458.92,70.42,458.92S72.98,458.92,73.62,458.92S76.18,458.92,76.82,458.92S79.38,458.92,80.03,458.92S82.59,458.92,83.23,458.92S85.79,458.92,86.43,458.92S88.99,458.92,89.63,458.92S92.19,458.92,92.83,458.92S95.39,458.92,96.03,458.92S98.59,458.92,99.23,458.92S101.79,458.92,102.43,458.92S104.99,458.92,105.63,458.92S108.19,458.92,108.83,458.92S111.39,458.92,112.04,458.92S114.6,458.92,115.24,458.92S117.8,458.92,118.44,458.92S121,458.92,121.64,458.92S124.2,458.92,124.84,458.92S127.4,458.92,128.04,458.92S130.6,458.92,131.24,458.92S133.8,458.92,134.44,458.92S137,458.92,137.64,458.92S140.2,458.91,140.84,458.91S143.41,458.91,144.05,458.91S146.61,458.91,147.25,458.91S149.81,458.91,150.45,458.91S153.01,458.91,153.65,458.91S156.21,458.91,156.85,458.91S159.41,458.91,160.05,458.91S162.61,458.91,163.25,458.91S165.81,458.91,166.45,458.91S169.01,458.91,169.65,458.91S172.21,458.91,172.85,458.91S175.42,458.91,176.06,458.91S178.62,458.91,179.26,458.91S181.82,458.91,182.46,458.91S185.02,458.91,185.66,458.91S188.22,458.9,188.86,458.9S191.42,458.9,192.06,458.9S194.62,458.9,195.26,458.9S197.82,458.9,198.46,458.9S201.02,458.9,201.66,458.9S204.22,458.9,204.86,458.89S207.43,458.89,208.07,458.89S210.63,458.89,211.27,458.89S213.83,458.89,214.47,458.89S217.03,458.88,217.67,458.88S220.23,458.88,220.87,458.88S223.43,458.87,224.07,458.87S226.63,458.87,227.27,458.87S229.83,458.86,230.47,458.86S233.03,458.86,233.67,458.86S236.23,458.85,236.87,458.85S239.44,458.84,240.08,458.84S242.64,458.84,243.28,458.83S245.84,458.83,246.48,458.82S249.04,458.82,249.68,458.81S252.24,458.8,252.88,458.8S255.44,458.79,256.08,458.79S258.64,458.78,259.28,458.77S261.84,458.76,262.48,458.76S265.04,458.74,265.68,458.74S268.24,458.72,268.88,458.72S271.45,458.7,272.09,458.7S274.65,458.68,275.29,458.67S277.85,458.65,278.49,458.64S281.05,458.62,281.69,458.61S284.25,458.58,284.89,458.57S287.45,458.54,288.09,458.53S290.65,458.5,291.29,458.49S293.85,458.45,294.49,458.44S297.05,458.39,297.69,458.38S300.25,458.33,300.89,458.32S303.46,458.26,304.1,458.25S306.66,458.19,307.3,458.17S309.86,458.1,310.5,458.08S313.06,458.01,313.7,457.98S316.26,457.9,316.9,457.88S319.46,457.78,320.1,457.75S322.66,457.64,323.3,457.62S325.86,457.49,326.5,457.46S329.06,457.33,329.7,457.29S332.26,457.14,332.9,457.1S335.47,456.93,336.11,456.89S338.67,456.7,339.31,456.65S341.87,456.44,342.51,456.38S345.07,456.15,345.71,456.08S348.27,455.82,348.91,455.75S351.47,455.46,352.11,455.38S354.67,455.06,355.31,454.97S357.87,454.61,358.51,454.52S361.07,454.12,361.71,454.01S364.27,453.56,364.91,453.44S367.48,452.95,368.12,452.82S370.68,452.27,371.32,452.12S373.88,451.52,374.52,451.35S377.08,450.68,377.72,450.5S380.28,449.76,380.92,449.57S383.48,448.75,384.12,448.53S386.68,447.63,387.32,447.39S389.88,446.41,390.52,446.14S393.08,445.06,393.72,444.77S396.28,443.59,396.92,443.27S399.49,441.98,400.13,441.63S402.69,440.22,403.33,439.85S405.89,438.31,406.53,437.91S409.09,436.25,409.73,435.81S412.29,434.01,412.93,433.54S415.49,431.6,416.13,431.09S418.69,429.01,419.33,428.46S421.89,426.23,422.53,425.65S425.09,423.26,425.73,422.64S428.29,420.11,428.93,419.45S431.5,416.77,432.14,416.08S434.7,413.25,435.34,412.52S437.9,409.55,438.54,408.78S441.1,405.68,441.74,404.88S444.3,401.66,444.94,400.83S447.5,397.49,448.14,396.64S450.7,393.21,451.34,392.33S453.9,388.82,454.54,387.93S457.1,384.36,457.74,383.46S460.3,379.86,460.94,378.95S463.51,375.34,464.15,374.44S466.71,370.84,467.35,369.94S469.91,366.39,470.55,365.51S473.11,362.03,473.75,361.18S476.31,357.81,476.95,356.99S479.51,353.75,480.15,352.96S482.71,349.89,483.35,349.15S485.91,346.26,486.55,345.58S489.11,342.91,489.75,342.28S492.31,339.85,492.95,339.28S495.52,337.1,496.16,336.6S498.72,334.7,499.36,334.27S501.92,332.66,502.56,332.3S505.12,330.98,505.76,330.69S508.32,329.66,508.96,329.45S511.52,328.71,512.16,328.56S514.72,328.11,515.36,328.03S517.92,327.85,518.56,327.84S521.12,327.91,521.76,327.96S524.32,328.27,524.96,328.38S527.53,328.9,528.17,329.06S530.73,329.77,531.37,329.97S533.93,330.84,534.57,331.08S537.13,332.09,537.77,332.36S540.33,333.48,540.97,333.77S543.53,334.97,544.17,335.28S546.73,336.53,547.37,336.85S549.93,338.13,550.57,338.46S553.13,339.74,553.77,340.06S556.33,341.34,556.97,341.65S559.54,342.89,560.18,343.19S562.74,344.37,563.38,344.66S565.94,345.78,566.58,346.05S569.14,347.1,569.78,347.35S572.34,348.32,572.98,348.55S575.54,349.43,576.18,349.63S578.74,350.42,579.38,350.61S581.94,351.31,582.58,351.47S585.14,352.09,585.78,352.23S588.34,352.76,588.98,352.88S591.55,353.33,592.19,353.44S594.75,353.82,595.39,353.9S597.95,354.22,598.59,354.29S601.15,354.55,601.79,354.61S604.35,354.82,604.99,354.86S607.55,355.03,608.19,355.06S610.75,355.19,611.39,355.22S613.95,355.32,614.59,355.34S617.15,355.42,617.79,355.43S620.35,355.49,620.99,355.5S623.56,355.54,624.2,355.55S626.76,355.58,627.4,355.58S629.96,355.6,630.6,355.61S633.16,355.62,633.8,355.63S636.68,355.64,637,355.64" style="fill: none; stroke: magenta; stroke-width: 2;"></path>
    </g>
    <g>
     <path d="M0,458.92C0.32,458.92,2.56,458.92,3.2,458.92S5.76,458.92,6.4,458.92S8.96,458.92,9.6,458.92S12.16,458.92,12.8,458.92S15.36,458.92,16.01,458.92S18.57,458.92,19.21,458.92S21.77,458.92,22.41,458.92S24.97,458.92,25.61,458.92S28.17,458.92,28.81,458.92S31.37,458.92,32.01,458.92S34.57,458.92,35.21,458.92S37.77,458.92,38.41,458.92S40.97,458.92,41.61,458.92S44.17,458.92,44.81,458.92S47.37,458.92,48.02,458.92S50.58,458.92,51.22,458.92S53.78,458.92,54.42,458.92S56.98,458.92,57.62,458.92S60.18,458.92,60.82,458.92S63.38,458.92,64.02,458.92S66.58,458.92,67.22,458.92S69.78,458.92,70.42,458.92S72.98,458.92,73.62,458.92S76.18,458.92,76.82,458.92S79.38,458.92,80.03,458.92S82.59,458.92,83.23,458.92S85.79,458.92,86.43,458.92S88.99,458.92,89.63,458.92S92.19,458.92,92.83,458.92S95.39,458.92,96.03,458.92S98.59,458.92,99.23,458.92S101.79,458.92,102.43,458.92S104.99,458.92,105.63,458.92S108.19,458.92,108.83,458.92S111.39,458.92,112.04,458.92S114.6,458.92,115.24,458.92S117.8,458.92,118.44,458.92S121,458.92,121.64,458.92S124.2,458.92,124.84,458.92S127.4,458.92,128.04,458.92S130.6,458.92,131.24,458.92S133.8,458.92,134.44,458.92S137,458.92,137.64,458.92S140.2,458.92,140.84,458.92S143.41,458.92,144.05,458.92S146.61,458.92,147.25,458.92S149.81,458.92,150.45,458.92S153.01,458.92,153.65,458.92S156.21,458.92,156.85,458.92S159.41,458.92,160.05,458.92S162.61,458.92,163.25,458.92S165.81,458.92,166.45,458.92S169.01,458.92,169.65,458.92S172.21,458.92,172.85,458.92S175.42,458.92,176.06,458.92S178.62,458.92,179.26,458.92S181.82,458.92,182.46,458.92S185.02,458.92,185.66,458.92S188.22,458.92,188.86,458.92S191.42,458.92,192.06,458.92S194.62,458.92,195.26,458.92S197.82,458.92,198.46,458.92S201.02,458.92,201.66,458.92S204.22,458.92,204.86,458.92S207.43,458.92,208.07,458.92S210.63,458.92,211.27,458.92S213.83,458.92,214.47,458.92S217.03,458.92,217.67,458.92S220.23,458.92,220.87,458.92S223.43,458.92,224.07,458.92S226.63,458.92,227.27,458.92S229.83,458.91,230.47,458.91S233.03,458.91,233.67,458.91S236.23,458.91,236.87,458.91S239.44,458.91,240.08,458.91S242.64,458.91,243.28,458.91S245.84,458.91,246.48,458.91S249.04,458.91,249.68,458.91S252.24,458.91,252.88,458.91S255.44,458.91,256.08,458.91S258.64,458.91,259.28,458.9S261.84,458.9,262.48,458.9S265.04,458.9,265.68,458.9S268.24,458.9,268.88,458.9S271.45,458.89,272.09,458.89S274.65,458.89,275.29,458.89S277.85,458.89,278.49,458.89S281.05,458.88,281.69,458.88S284.25,458.88,284.89,458.87S287.45,458.87,288.09,458.87S290.65,458.86,291.29,458.86S293.85,458.85,294.49,458.85S297.05,458.84,297.69,458.84S300.25,458.83,300.89,458.82S303.46,458.81,304.1,458.81S306.66,458.8,307.3,458.79S309.86,458.78,310.5,458.77S313.06,458.75,313.7,458.75S316.26,458.73,316.9,458.72S319.46,458.7,320.1,458.69S322.66,458.66,323.3,458.66S325.86,458.62,326.5,458.62S329.06,458.58,329.7,458.57S332.26,458.53,332.9,458.51S335.47,458.46,336.11,458.45S338.67,458.39,339.31,458.38S341.87,458.31,342.51,458.3S345.07,458.22,345.71,458.2S348.27,458.11,348.91,458.09S351.47,457.99,352.11,457.97S354.67,457.85,355.31,457.82S357.87,457.69,358.51,457.66S361.07,457.51,361.71,457.47S364.27,457.3,364.91,457.26S367.48,457.07,368.12,457.02S370.68,456.8,371.32,456.74S373.88,456.49,374.52,456.42S377.08,456.14,377.72,456.07S380.28,455.75,380.92,455.66S383.48,455.3,384.12,455.21S386.68,454.8,387.32,454.69S389.88,454.23,390.52,454.11S393.08,453.6,393.72,453.46S396.28,452.88,396.92,452.72S399.49,452.08,400.13,451.9S402.69,451.18,403.33,450.98S405.89,450.18,406.53,449.96S409.09,449.06,409.73,448.82S412.29,447.83,412.93,447.56S415.49,446.46,416.13,446.16S418.69,444.95,419.33,444.62S421.89,443.28,422.53,442.93S425.09,441.46,425.73,441.07S428.29,439.47,428.93,439.04S431.5,437.29,432.14,436.83S434.7,434.94,435.34,434.44S437.9,432.38,438.54,431.85S441.1,429.64,441.74,429.06S444.3,426.69,444.94,426.07S447.5,423.54,448.14,422.88S450.7,420.19,451.34,419.49S453.9,416.65,454.54,415.91S457.1,412.92,457.74,412.15S460.3,409.01,460.94,408.2S463.51,404.93,464.15,404.1S466.71,400.71,467.35,399.85S469.91,396.37,470.55,395.48S473.11,391.91,473.75,391.01S476.31,387.39,476.95,386.47S479.51,382.81,480.15,381.89S482.71,378.22,483.35,377.3S485.91,373.64,486.55,372.74S489.11,369.12,489.75,368.23S492.31,364.68,492.95,363.81S495.52,360.36,496.16,359.52S498.72,356.2,499.36,355.4S501.92,352.22,502.56,351.46S505.12,348.46,505.76,347.74S508.32,344.93,508.96,344.27S511.52,341.67,512.16,341.06S514.72,338.68,515.36,338.13S517.92,335.98,518.56,335.49S521.12,333.58,521.76,333.14S524.32,331.48,524.96,331.1S527.53,329.67,528.17,329.34S530.73,328.14,531.37,327.87S533.93,326.89,534.57,326.67S537.13,325.89,537.77,325.73S540.33,325.14,540.97,325.02S543.53,324.59,544.17,324.51S546.73,324.24,547.37,324.2S549.93,324.06,550.57,324.04S553.13,324.01,553.77,324.02S556.33,324.08,556.97,324.11S559.54,324.25,560.18,324.29S562.74,324.48,563.38,324.53S565.94,324.76,566.58,324.82S569.14,325.07,569.78,325.13S572.34,325.39,572.98,325.45S575.54,325.71,576.18,325.78S578.74,326.03,579.38,326.09S581.94,326.32,582.58,326.38S585.14,326.6,585.78,326.65S588.34,326.84,588.98,326.89S591.55,327.06,592.19,327.1S594.75,327.25,595.39,327.28S597.95,327.41,598.59,327.44S601.15,327.54,601.79,327.56S604.35,327.65,604.99,327.67S607.55,327.74,608.19,327.75S610.75,327.81,611.39,327.82S613.95,327.86,614.59,327.87S617.15,327.9,617.79,327.91S620.35,327.93,620.99,327.94S623.56,327.95,624.2,327.96S626.76,327.97,627.4,327.97S629.96,327.98,630.6,327.98S633.16,327.99,633.8,327.99S636.68,327.99,637,327.99" style="fill: none; stroke: cyan; stroke-width: 2;"></path>
    </g>
    <g>
     <path d="M0,458.92C0.32,458.92,2.56,458.92,3.2,458.92S5.76,458.92,6.4,458.92S8.96,458.92,9.6,458.92S12.16,458.92,12.8,458.92S15.36,458.92,16.01,458.92S18.57,458.92,19.21,458.92S21.77,458.92,22.41,458.92S24.97,458.92,25.61,458.92S28.17,458.92,28.81,458.92S31.37,458.92,32.01,458.92S34.57,458.92,35.21,458.92S37.77,458.92,38.41,458.92S40.97,458.92,41.61,458.92S44.17,458.92,44.81,458.92S47.37,458.92,48.02,458.92S50.58,458.92,51.22,458.92S53.78,458.92,54.42,458.92S56.98,458.92,57.62,458.92S60.18,458.92,60.82,458.92S63.38,458.92,64.02,458.92S66.58,458.92,67.22,458.92S69.78,458.92,70.42,458.92S72.98,458.92,73.62,458.92S76.18,458.92,76.82,458.92S79.38,458.92,80.03,458.92S82.59,458.92,83.23,458.92S85.79,458.92,86.43,458.92S88.99,458.92,89.63,458.92S92.19,458.92,92.83,458.92S95.39,458.92,96.03,458.92S98.59,458.92,99.23,458.92S101.79,458.92,102.43,458.92S104.99,458.92,105.63,458.92S108.19,458.92,108.83,458.92S111.39,458.92,112.04,458.92S114.6,458.92,115.24,458.92S117.8,458.92,118.44,458.92S121,458.92,121.64,458.92S124.2,458.92,124.84,458.92S127.4,458.92,128.04,458.92S130.6,458.92,131.24,458.92S133.8,458.92,134.44,458.92S137,458.92,137.64,458.92S140.2,458.92,140.84,458.92S143.41,458.92,144.05,458.92S146.61,458.92,147.25,458.92S149.81,458.92,150.45,458.92S153.01,458.92,153.65,458.92S156.21,458.92,156.85,458.92S159.41,458.92,160.05,458.92S162.61,458.92,163.25,458.92S165.81,458.92,166.45,458.92S169.01,458.92,169.65,458.92S172.21,458.92,172.85,458.92S175.42,458.92,176.06,458.92S178.62,458.92,179.26,458.92S181.82,458.92,182.46,458.92S185.02,458.92,185.66,458.92S188.22,458.92,188.86,458.92S191.42,458.92,192.06,458.92S194.62,458.92,195.26,458.92S197.82,458.92,198.46,458.92S201.02,458.92,201.66,458.92S204.22,458.92,204.86,458.92S207.43,458.92,208.07,458.92S210.63,458.92,211.27,458.92S213.83,458.92,214.47,458.92S217.03,458.92,217.67,458.92S220.23,458.92,220.87,458.92S223.43,458.92,224.07,458.92S226.63,458.92,227.27,458.92S229.83,458.92,230.47,458.92S233.03,458.92,233.67,458.92S236.23,458.92,236.87,458.92S239.44,458.92,240.08,458.92S242.64,458.92,243.28,458.92S245.84,458.92,246.48,458.92S249.04,458.92,249.68,458.92S252.24,458.92,252.88,458.92S255.44,458.92,256.08,458.92S258.64,458.91,259.28,458.91S261.84,458.91,262.48,458.91S265.04,458.91,265.68,458.91S268.24,458.91,268.88,458.91S271.45,458.91,272.09,458.91S274.65,458.91,275.29,458.91S277.85,458.91,278.49,458.91S281.05,458.91,281.69,458.91S284.25,458.91,284.89,458.91S287.45,458.91,288.09,458.9S290.65,458.9,291.29,458.9S293.85,458.9,294.49,458.9S297.05,458.9,297.69,458.9S300.25,458.89,300.89,458.89S303.46,458.89,304.1,458.89S306.66,458.89,307.3,458.88S309.86,458.88,310.5,458.88S313.06,458.87,313.7,458.87S316.26,458.87,316.9,458.87S319.46,458.86,320.1,458.86S322.66,458.85,323.3,458.85S325.86,458.84,326.5,458.83S329.06,458.82,329.7,458.82S332.26,458.81,332.9,458.8S335.47,458.79,336.11,458.78S338.67,458.77,339.31,458.76S341.87,458.74,342.51,458.73S345.07,458.71,345.71,458.7S348.27,458.68,348.91,458.67S351.47,458.64,352.11,458.63S354.67,458.59,355.31,458.58S357.87,458.53,358.51,458.52S361.07,458.47,361.71,458.46S364.27,458.4,364.91,458.38S367.48,458.31,368.12,458.29S370.68,458.21,371.32,458.19S373.88,458.1,374.52,458.07S377.08,457.96,377.72,457.93S380.28,457.81,380.92,457.77S383.48,457.63,384.12,457.59S386.68,457.43,387.32,457.38S389.88,457.19,390.52,457.14S393.08,456.92,393.72,456.86S396.28,456.61,396.92,456.54S399.49,456.25,400.13,456.17S402.69,455.84,403.33,455.75S405.89,455.38,406.53,455.28S409.09,454.85,409.73,454.73S412.29,454.25,412.93,454.12S415.49,453.57,416.13,453.42S418.69,452.8,419.33,452.63S421.89,451.93,422.53,451.74S425.09,450.96,425.73,450.74S428.29,449.86,428.93,449.63S431.5,448.64,432.14,448.38S434.7,447.28,435.34,446.98S437.9,445.77,438.54,445.44S441.1,444.09,441.74,443.73S444.3,442.25,444.94,441.86S447.5,440.23,448.14,439.79S450.7,438.01,451.34,437.54S453.9,435.6,454.54,435.09S457.1,432.99,457.74,432.44S460.3,430.18,460.94,429.58S463.51,427.15,464.15,426.52S466.71,423.92,467.35,423.24S469.91,420.48,470.55,419.77S473.11,416.85,473.75,416.1S476.31,413.03,476.95,412.24S479.51,409.04,480.15,408.22S482.71,404.89,483.35,404.04S485.91,400.6,486.55,399.73S489.11,396.2,489.75,395.3S492.31,391.7,492.95,390.8S495.52,387.15,496.16,386.24S498.72,382.57,499.36,381.65S501.92,377.99,502.56,377.08S505.12,373.44,505.76,372.54S508.32,368.95,508.96,368.07S511.52,364.56,512.16,363.7S514.72,360.3,515.36,359.47S517.92,356.19,518.56,355.39S521.12,352.25,521.76,351.5S524.32,348.52,524.96,347.8S527.53,345,528.17,344.33S530.73,341.71,531.37,341.09S533.93,338.66,534.57,338.09S537.13,335.86,537.77,335.33S540.33,333.29,540.97,332.82S543.53,330.97,544.17,330.54S546.73,328.89,547.37,328.5S549.93,327.03,550.57,326.69S553.13,325.39,553.77,325.09S556.33,323.95,556.97,323.68S559.54,322.69,560.18,322.46S562.74,321.6,563.38,321.41S565.94,320.67,566.58,320.5S569.14,319.87,569.78,319.73S572.34,319.2,572.98,319.08S575.54,318.63,576.18,318.53S578.74,318.16,579.38,318.07S581.94,317.76,582.58,317.69S585.14,317.44,585.78,317.38S588.34,317.17,588.98,317.12S591.55,316.95,592.19,316.91S594.75,316.78,595.39,316.75S597.95,316.64,598.59,316.61S601.15,316.52,601.79,316.5S604.35,316.44,604.99,316.42S607.55,316.37,608.19,316.36S610.75,316.31,611.39,316.31S613.95,316.27,614.59,316.27S617.15,316.24,617.79,316.24S620.35,316.22,620.99,316.22S623.56,316.21,624.2,316.2S626.76,316.2,627.4,316.19S629.96,316.19,630.6,316.19S633.16,316.18,633.8,316.18S636.68,316.18,637,316.18" style="fill: none; stroke: #59d454; stroke-width: 2;"></path>
    </g>
    <g>
     <path d="M0,458.92C0.32,458.92,2.56,458.92,3.2,458.92S5.76,458.92,6.4,458.92S8.96,458.92,9.6,458.92S12.16,458.92,12.8,458.92S15.36,458.92,16.01,458.92S18.57,458.92,19.21,458.92S21.77,458.92,22.41,458.92S24.97,458.92,25.61,458.92S28.17,458.92,28.81,458.92S31.37,458.92,32.01,458.92S34.57,458.92,35.21,458.92S37.77,458.92,38.41,458.92S40.97,458.92,41.61,458.92S44.17,458.92,44.81,458.92S47.37,458.92,48.02,458.92S50.58,458.92,51.22,458.92S53.78,458.92,54.42,458.92S56.98,458.92,57.62,458.92S60.18,458.92,60.82,458.92S63.38,458.92,64.02,458.92S66.58,458.92,67.22,458.92S69.78,458.92,70.42,458.92S72.98,458.92,73.62,458.92S76.18,458.92,76.82,458.92S79.38,458.92,80.03,458.92S82.59,458.92,83.23,458.92S85.79,458.92,86.43,458.92S88.99,458.92,89.63,458.92S92.19,458.92,92.83,458.92S95.39,458.92,96.03,458.92S98.59,458.92,99.23,458.92S101.79,458.92,102.43,458.92S104.99,458.92,105.63,458.92S108.19,458.92,108.83,458.92S111.39,458.92,112.04,458.92S114.6,458.92,115.24,458.92S117.8,458.92,118.44,458.92S121,458.92,121.64,458.92S124.2,458.92,124.84,458.92S127.4,458.92,128.04,458.92S130.6,458.92,131.24,458.92S133.8,458.92,134.44,458.92S137,458.92,137.64,458.92S140.2,458.92,140.84,458.92S143.41,458.92,144.05,458.92S146.61,458.92,147.25,458.92S149.81,458.92,150.45,458.92S153.01,458.92,153.65,458.92S156.21,458.92,156.85,458.92S159.41,458.92,160.05,458.92S162.61,458.92,163.25,458.92S165.81,458.92,166.45,458.92S169.01,458.92,169.65,458.92S172.21,458.92,172.85,458.92S175.42,458.92,176.06,458.92S178.62,458.92,179.26,458.92S181.82,458.92,182.46,458.92S185.02,458.92,185.66,458.92S188.22,458.92,188.86,458.92S191.42,458.92,192.06,458.92S194.62,458.92,195.26,458.92S197.82,458.92,198.46,458.92S201.02,458.92,201.66,458.92S204.22,458.92,204.86,458.92S207.43,458.92,208.07,458.92S210.63,458.92,211.27,458.92S213.83,458.92,214.47,458.92S217.03,458.92,217.67,458.92S220.23,458.92,220.87,458.92S223.43,458.92,224.07,458.92S226.63,458.92,227.27,458.92S229.83,458.92,230.47,458.92S233.03,458.92,233.67,458.92S236.23,458.92,236.87,458.92S239.44,458.92,240.08,458.92S242.64,458.92,243.28,458.92S245.84,458.92,246.48,458.92S249.04,458.92,249.68,458.92S252.24,458.92,252.88,458.92S255.44,458.92,256.08,458.92S258.64,458.92,259.28,458.92S261.84,458.92,262.48,458.92S265.04,458.92,265.68,458.92S268.24,458.92,268.88,458.92S271.45,458.92,272.09,458.92S274.65,458.92,275.29,458.92S277.85,458.92,278.49,458.92S281.05,458.92,281.69,458.92S284.25,458.92,284.89,458.92S287.45,458.92,288.09,458.92S290.65,458.92,291.29,458.91S293.85,458.91,294.49,458.91S297.05,458.91,297.69,458.91S300.25,458.91,300.89,458.91S303.46,458.91,304.1,458.91S306.66,458.91,307.3,458.91S309.86,458.91,310.5,458.91S313.06,458.91,313.7,458.91S316.26,458.91,316.9,458.91S319.46,458.9,320.1,458.9S322.66,458.9,323.3,458.9S325.86,458.9,326.5,458.9S329.06,458.9,329.7,458.9S332.26,458.89,332.9,458.89S335.47,458.89,336.11,458.89S338.67,458.88,339.31,458.88S341.87,458.87,342.51,458.87S345.07,458.87,345.71,458.87S348.27,458.86,348.91,458.86S351.47,458.85,352.11,458.84S354.67,458.83,355.31,458.83S357.87,458.82,358.51,458.81S361.07,458.8,361.71,458.79S364.27,458.78,364.91,458.77S367.48,458.75,368.12,458.74S370.68,458.72,371.32,458.71S373.88,458.68,374.52,458.67S377.08,458.64,377.72,458.63S380.28,458.58,380.92,458.57S383.48,458.52,384.12,458.51S386.68,458.45,387.32,458.44S389.88,458.37,390.52,458.35S393.08,458.27,393.72,458.25S396.28,458.15,396.92,458.13S399.49,458.02,400.13,457.99S402.69,457.86,403.33,457.82S405.89,457.67,406.53,457.63S409.09,457.46,409.73,457.41S412.29,457.21,412.93,457.15S415.49,456.92,416.13,456.85S418.69,456.58,419.33,456.5S421.89,456.19,422.53,456.11S425.09,455.74,425.73,455.65S428.29,455.23,428.93,455.12S431.5,454.64,432.14,454.52S434.7,453.98,435.34,453.83S437.9,453.21,438.54,453.05S441.1,452.35,441.74,452.16S444.3,451.37,444.94,451.16S447.5,450.28,448.14,450.04S450.7,449.05,451.34,448.78S453.9,447.67,454.54,447.37S457.1,446.14,457.74,445.81S460.3,444.45,460.94,444.09S463.51,442.58,464.15,442.18S466.71,440.53,467.35,440.1S469.91,438.3,470.55,437.82S473.11,435.86,473.75,435.35S476.31,433.24,476.95,432.68S479.51,430.41,480.15,429.82S482.71,427.39,483.35,426.76S485.91,424.18,486.55,423.51S489.11,420.78,489.75,420.08S492.31,417.21,492.95,416.48S495.52,413.48,496.16,412.72S498.72,409.61,499.36,408.82S501.92,405.62,502.56,404.81S505.12,401.53,505.76,400.7S508.32,397.36,508.96,396.52S511.52,393.14,512.16,392.29S514.72,388.9,515.36,388.06S517.92,384.67,518.56,383.83S521.12,380.48,521.76,379.65S524.32,376.35,524.96,375.54S527.53,372.31,528.17,371.52S530.73,368.39,531.37,367.63S533.93,364.61,534.57,363.88S537.13,360.99,537.77,360.29S540.33,357.55,540.97,356.88S543.53,354.29,544.17,353.67S546.73,351.24,547.37,350.66S549.93,348.4,550.57,347.86S553.13,345.77,553.77,345.28S556.33,343.36,556.97,342.9S559.54,341.15,560.18,340.74S562.74,339.16,563.38,338.79S565.94,337.37,566.58,337.04S569.14,335.77,569.78,335.47S572.34,334.35,572.98,334.09S575.54,333.11,576.18,332.88S578.74,332.03,579.38,331.83S581.94,331.09,582.58,330.92S585.14,330.29,585.78,330.15S588.34,329.61,588.98,329.49S591.55,329.04,592.19,328.94S594.75,328.57,595.39,328.49S597.95,328.19,598.59,328.12S601.15,327.87,601.79,327.82S604.35,327.62,604.99,327.58S607.55,327.42,608.19,327.39S610.75,327.27,611.39,327.24S613.95,327.15,614.59,327.13S617.15,327.06,617.79,327.05S620.35,327,620.99,326.99S623.56,326.95,624.2,326.94S626.76,326.91,627.4,326.91S629.96,326.89,630.6,326.89S633.16,326.87,633.8,326.87S636.68,326.86,637,326.86" style="fill: none; stroke: #5954d9; stroke-width: 2;"></path>
    </g>
    <g>
     <path d="M0,458.92C0.32,458.92,2.56,458.92,3.2,458.92S5.76,458.92,6.4,458.92S8.96,458.92,9.6,458.92S12.16,458.92,12.8,458.92S15.36,458.92,16.01,458.92S18.57,458.92,19.21,458.92S21.77,458.92,22.41,458.92S24.97,458.92,25.61,458.92S28.17,458.92,28.81,458.92S31.37,458.92,32.01,458.92S34.57,458.92,35.21,458.92S37.77,458.92,38.41,458.92S40.97,458.92,41.61,458.92S44.17,458.92,44.81,458.92S47.37,458.92,48.02,458.92S50.58,458.92,51.22,458.92S53.78,458.92,54.42,458.92S56.98,458.92,57.62,458.92S60.18,458.92,60.82,458.92S63.38,458.92,64.02,458.92S66.58,458.92,67.22,458.92S69.78,458.92,70.42,458.92S72.98,458.92,73.62,458.92S76.18,458.92,76.82,458.92S79.38,458.92,80.03,458.92S82.59,458.92,83.23,458.92S85.79,458.92,86.43,458.92S88.99,458.92,89.63,458.92S92.19,458.92,92.83,458.92S95.39,458.92,96.03,458.92S98.59,458.92,99.23,458.92S101.79,458.92,102.43,458.92S104.99,458.92,105.63,458.92S108.19,458.92,108.83,458.92S111.39,458.92,112.04,458.92S114.6,458.92,115.24,458.92S117.8,458.92,118.44,458.92S121,458.92,121.64,458.92S124.2,458.92,124.84,458.92S127.4,458.92,128.04,458.92S130.6,458.92,131.24,458.92S133.8,458.92,134.44,458.92S137,458.92,137.64,458.92S140.2,458.92,140.84,458.92S143.41,458.92,144.05,458.92S146.61,458.92,147.25,458.92S149.81,458.92,150.45,458.92S153.01,458.92,153.65,458.92S156.21,458.92,156.85,458.92S159.41,458.92,160.05,458.92S162.61,458.92,163.25,458.92S165.81,458.92,166.45,458.92S169.01,458.92,169.65,458.92S172.21,458.92,172.85,458.92S175.42,458.92,176.06,458.92S178.62,458.92,179.26,458.92S181.82,458.92,182.46,458.92S185.02,458.92,185.66,458.92S188.22,458.92,188.86,458.92S191.42,458.92,192.06,458.92S194.62,458.92,195.26,458.92S197.82,458.92,198.46,458.92S201.02,458.92,201.66,458.92S204.22,458.92,204.86,458.92S207.43,458.92,208.07,458.92S210.63,458.92,211.27,458.92S213.83,458.92,214.47,458.92S217.03,458.92,217.67,458.92S220.23,458.92,220.87,458.92S223.43,458.92,224.07,458.92S226.63,458.92,227.27,458.92S229.83,458.92,230.47,458.92S233.03,458.92,233.67,458.92S236.23,458.92,236.87,458.92S239.44,458.92,240.08,458.92S242.64,458.92,243.28,458.92S245.84,458.92,246.48,458.92S249.04,458.92,249.68,458.92S252.24,458.92,252.88,458.92S255.44,458.92,256.08,458.92S258.64,458.92,259.28,458.92S261.84,458.92,262.48,458.92S265.04,458.92,265.68,458.92S268.24,458.92,268.88,458.92S271.45,458.92,272.09,458.92S274.65,458.92,275.29,458.92S277.85,458.92,278.49,458.92S281.05,458.92,281.69,458.92S284.25,458.92,284.89,458.92S287.45,458.92,288.09,458.92S290.65,458.92,291.29,458.92S293.85,458.92,294.49,458.92S297.05,458.92,297.69,458.92S300.25,458.92,300.89,458.92S303.46,458.92,304.1,458.92S306.66,458.92,307.3,458.92S309.86,458.92,310.5,458.92S313.06,458.92,313.7,458.92S316.26,458.92,316.9,458.92S319.46,458.92,320.1,458.92S322.66,458.92,323.3,458.92S325.86,458.91,326.5,458.91S329.06,458.91,329.7,458.91S332.26,458.91,332.9,458.91S335.47,458.91,336.11,458.91S338.67,458.91,339.31,458.91S341.87,458.91,342.51,458.91S345.07,458.91,345.71,458.91S348.27,458.91,348.91,458.9S351.47,458.9,352.11,458.9S354.67,458.9,355.31,458.9S357.87,458.9,358.51,458.89S361.07,458.89,361.71,458.89S364.27,458.88,364.91,458.88S367.48,458.88,368.12,458.88S370.68,458.87,371.32,458.87S373.88,458.86,374.52,458.86S377.08,458.84,377.72,458.84S380.28,458.83,380.92,458.83S383.48,458.81,384.12,458.81S386.68,458.79,387.32,458.78S389.88,458.76,390.52,458.76S393.08,458.73,393.72,458.72S396.28,458.69,396.92,458.68S399.49,458.64,400.13,458.63S402.69,458.59,403.33,458.58S405.89,458.52,406.53,458.51S409.09,458.44,409.73,458.43S412.29,458.35,412.93,458.33S415.49,458.24,416.13,458.21S418.69,458.11,419.33,458.08S421.89,457.95,422.53,457.92S425.09,457.77,425.73,457.73S428.29,457.56,428.93,457.51S431.5,457.31,432.14,457.25S434.7,457.02,435.34,456.95S437.9,456.68,438.54,456.6S441.1,456.28,441.74,456.2S444.3,455.83,444.94,455.73S447.5,455.3,448.14,455.19S450.7,454.7,451.34,454.57S453.9,454.01,454.54,453.86S457.1,453.23,457.74,453.06S460.3,452.34,460.94,452.15S463.51,451.34,464.15,451.12S466.71,450.21,467.35,449.97S469.91,448.95,470.55,448.68S473.11,447.55,473.75,447.24S476.31,445.99,476.95,445.66S479.51,444.27,480.15,443.91S482.71,442.39,483.35,441.99S485.91,440.34,486.55,439.91S489.11,438.12,489.75,437.65S492.31,435.73,492.95,435.22S495.52,433.16,496.16,432.62S498.72,430.43,499.36,429.86S501.92,427.54,502.56,426.94S505.12,424.5,505.76,423.87S508.32,421.32,508.96,420.67S511.52,418.02,512.16,417.35S514.72,414.62,515.36,413.93S517.92,411.14,518.56,410.44S521.12,407.61,521.76,406.89S524.32,404.03,524.96,403.32S527.53,400.45,528.17,399.73S530.73,396.88,531.37,396.17S533.93,393.35,534.57,392.66S537.13,389.89,537.77,389.21S540.33,386.52,540.97,385.86S543.53,383.26,544.17,382.62S546.73,380.13,547.37,379.52S549.93,377.15,550.57,376.57S553.13,374.33,553.77,373.79S556.33,371.69,556.97,371.18S559.54,369.23,560.18,368.76S562.74,366.96,563.38,366.53S565.94,364.88,566.58,364.5S569.14,363,569.78,362.65S572.34,361.31,572.98,360.99S575.54,359.8,576.18,359.52S578.74,358.47,579.38,358.22S581.94,357.3,582.58,357.09S585.14,356.3,585.78,356.12S588.34,355.44,588.98,355.29S591.55,354.71,592.19,354.58S594.75,354.1,595.39,354S597.95,353.6,598.59,353.52S601.15,353.19,601.79,353.12S604.35,352.87,604.99,352.81S607.55,352.61,608.19,352.56S610.75,352.4,611.39,352.37S613.95,352.25,614.59,352.22S617.15,352.13,617.79,352.11S620.35,352.04,620.99,352.03S623.56,351.98,624.2,351.97S626.76,351.94,627.4,351.93S629.96,351.9,630.6,351.9S633.16,351.88,633.8,351.88S636.68,351.87,637,351.87" style="fill: none; stroke: #c0b6ac; stroke-width: 2;"></path>
    </g>
    <g>
     <path d="M0,458.92C0.32,458.92,2.56,458.92,3.2,458.92S5.76,458.92,6.4,458.92S8.96,458.92,9.6,458.92S12.16,458.92,12.8,458.92S15.36,458.92,16.01,458.92S18.57,458.92,19.21,458.92S21.77,458.92,22.41,458.92S24.97,458.92,25.61,458.92S28.17,458.92,28.81,458.92S31.37,458.92,32.01,458.92S34.57,458.92,35.21,458.92S37.77,458.92,38.41,458.92S40.97,458.92,41.61,458.92S44.17,458.92,44.81,458.92S47.37,458.92,48.02,458.92S50.58,458.92,51.22,458.92S53.78,458.92,54.42,458.92S56.98,458.92,57.62,458.92S60.18,458.92,60.82,458.92S63.38,458.92,64.02,458.92S66.58,458.92,67.22,458.92S69.78,458.92,70.42,458.92S72.98,458.92,73.62,458.92S76.18,458.92,76.82,458.92S79.38,458.92,80.03,458.92S82.59,458.92,83.23,458.92S85.79,458.92,86.43,458.92S88.99,458.92,89.63,458.92S92.19,458.92,92.83,458.92S95.39,458.92,96.03,458.92S98.59,458.92,99.23,458.92S101.79,458.92,102.43,458.92S104.99,458.92,105.63,458.92S108.19,458.92,108.83,458.92S111.39,458.92,112.04,458.92S114.6,458.92,115.24,458.92S117.8,458.92,118.44,458.92S121,458.92,121.64,458.92S124.2,458.92,124.84,458.92S127.4,458.92,128.04,458.92S130.6,458.92,131.24,458.92S133.8,458.92,134.44,458.92S137,458.92,137.64,458.92S140.2,458.92,140.84,458.92S143.41,458.92,144.05,458.92S146.61,458.92,147.25,458.92S149.81,458.92,150.45,458.92S153.01,458.92,153.65,458.92S156.21,458.92,156.85,458.92S159.41,458.92,160.05,458.92S162.61,458.92,163.25,458.92S165.81,458.92,166.45,458.92S169.01,458.92,169.65,458.92S172.21,458.92,172.85,458.92S175.42,458.92,176.06,458.92S178.62,458.92,179.26,458.92S181.82,458.92,182.46,458.92S185.02,458.92,185.66,458.92S188.22,458.92,188.86,458.92S191.42,458.92,192.06,458.92S194.62,458.92,195.26,458.92S197.82,458.92,198.46,458.92S201.02,458.92,201.66,458.92S204.22,458.92,204.86,458.92S207.43,458.92,208.07,458.92S210.63,458.92,211.27,458.92S213.83,458.92,214.47,458.92S217.03,458.92,217.67,458.92S220.23,458.92,220.87,458.92S223.43,458.92,224.07,458.92S226.63,458.92,227.27,458.92S229.83,458.92,230.47,458.92S233.03,458.92,233.67,458.92S236.23,458.92,236.87,458.92S239.44,458.92,240.08,458.92S242.64,458.92,243.28,458.92S245.84,458.92,246.48,458.92S249.04,458.92,249.68,458.92S252.24,458.92,252.88,458.92S255.44,458.92,256.08,458.92S258.64,458.92,259.28,458.92S261.84,458.92,262.48,458.92S265.04,458.92,265.68,458.92S268.24,458.92,268.88,458.92S271.45,458.92,272.09,458.92S274.65,458.92,275.29,458.92S277.85,458.92,278.49,458.92S281.05,458.92,281.69,458.92S284.25,458.92,284.89,458.92S287.45,458.92,288.09,458.92S290.65,458.92,291.29,458.92S293.85,458.92,294.49,458.92S297.05,458.92,297.69,458.92S300.25,458.92,300.89,458.92S303.46,458.92,304.1,458.92S306.66,458.92,307.3,458.92S309.86,458.92,310.5,458.92S313.06,458.92,313.7,458.92S316.26,458.92,316.9,458.92S319.46,458.92,320.1,458.92S322.66,458.92,323.3,458.92S325.86,458.92,326.5,458.92S329.06,458.92,329.7,458.92S332.26,458.92,332.9,458.92S335.47,458.92,336.11,458.92S338.67,458.92,339.31,458.92S341.87,458.92,342.51,458.92S345.07,458.92,345.71,458.92S348.27,458.92,348.91,458.91S351.47,458.91,352.11,458.91S354.67,458.91,355.31,458.91S357.87,458.91,358.51,458.91S361.07,458.91,361.71,458.91S364.27,458.91,364.91,458.91S367.48,458.91,368.12,458.91S370.68,458.91,371.32,458.91S373.88,458.9,374.52,458.9S377.08,458.9,377.72,458.9S380.28,458.9,380.92,458.89S383.48,458.89,384.12,458.89S386.68,458.88,387.32,458.88S389.88,458.88,390.52,458.88S393.08,458.87,393.72,458.87S396.28,458.86,396.92,458.85S399.49,458.84,400.13,458.84S402.69,458.83,403.33,458.82S405.89,458.81,406.53,458.8S409.09,458.78,409.73,458.77S412.29,458.75,412.93,458.74S415.49,458.71,416.13,458.71S418.69,458.67,419.33,458.66S421.89,458.62,422.53,458.61S425.09,458.55,425.73,458.54S428.29,458.48,428.93,458.46S431.5,458.39,432.14,458.37S434.7,458.28,435.34,458.25S437.9,458.15,438.54,458.12S441.1,458,441.74,457.96S444.3,457.82,444.94,457.78S447.5,457.6,448.14,457.56S450.7,457.36,451.34,457.3S453.9,457.07,454.54,457S457.1,456.73,457.74,456.65S460.3,456.33,460.94,456.25S463.51,455.88,464.15,455.78S466.71,455.36,467.35,455.25S469.91,454.77,470.55,454.64S473.11,454.09,473.75,453.94S476.31,453.32,476.95,453.15S479.51,452.46,480.15,452.27S482.71,451.49,483.35,451.28S485.91,450.41,486.55,450.17S489.11,449.21,489.75,448.95S492.31,447.89,492.95,447.6S495.52,446.44,496.16,446.13S498.72,444.86,499.36,444.53S501.92,443.16,502.56,442.8S505.12,441.32,505.76,440.94S508.32,439.36,508.96,438.96S511.52,437.29,512.16,436.86S514.72,435.1,515.36,434.65S517.92,432.81,518.56,432.34S521.12,430.43,521.76,429.95S524.32,427.98,524.96,427.48S527.53,425.47,528.17,424.97S530.73,422.93,531.37,422.41S533.93,420.36,534.57,419.84S537.13,417.79,537.77,417.28S540.33,415.24,540.97,414.74S543.53,412.73,544.17,412.24S546.73,410.28,547.37,409.8S549.93,407.91,550.57,407.45S553.13,405.64,553.77,405.2S556.33,403.47,556.97,403.05S559.54,401.43,560.18,401.04S562.74,399.52,563.38,399.15S565.94,397.75,566.58,397.41S569.14,396.13,569.78,395.82S572.34,394.65,572.98,394.38S575.54,393.33,576.18,393.08S578.74,392.15,579.38,391.93S581.94,391.11,582.58,390.92S585.14,390.21,585.78,390.05S588.34,389.43,588.98,389.29S591.55,388.77,592.19,388.66S594.75,388.22,595.39,388.12S597.95,387.76,598.59,387.68S601.15,387.39,601.79,387.32S604.35,387.09,604.99,387.04S607.55,386.85,608.19,386.81S610.75,386.66,611.39,386.63S613.95,386.52,614.59,386.49S617.15,386.41,617.79,386.39S620.35,386.33,620.99,386.32S623.56,386.27,624.2,386.26S626.76,386.23,627.4,386.22S629.96,386.2,630.6,386.19S633.16,386.18,633.8,386.18S636.68,386.17,637,386.16" style="fill: none; stroke: #c0b6ac; stroke-width: 2;"></path>
    </g>
    <g>
     <path d="M0,458.92C0.32,458.92,2.56,458.92,3.2,458.92S5.76,458.92,6.4,458.92S8.96,458.92,9.6,458.92S12.16,458.92,12.8,458.92S15.36,458.92,16.01,458.92S18.57,458.92,19.21,458.92S21.77,458.92,22.41,458.92S24.97,458.92,25.61,458.92S28.17,458.92,28.81,458.92S31.37,458.92,32.01,458.92S34.57,458.92,35.21,458.92S37.77,458.92,38.41,458.92S40.97,458.92,41.61,458.92S44.17,458.92,44.81,458.92S47.37,458.92,48.02,458.92S50.58,458.92,51.22,458.92S53.78,458.92,54.42,458.92S56.98,458.92,57.62,458.92S60.18,458.92,60.82,458.92S63.38,458.92,64.02,458.92S66.58,458.92,67.22,458.92S69.78,458.92,70.42,458.92S72.98,458.92,73.62,458.92S76.18,458.92,76.82,458.92S79.38,458.92,80.03,458.92S82.59,458.92,83.23,458.92S85.79,458.92,86.43,458.92S88.99,458.92,89.63,458.92S92.19,458.92,92.83,458.92S95.39,458.92,96.03,458.92S98.59,458.92,99.23,458.92S101.79,458.92,102.43,458.92S104.99,458.92,105.63,458.92S108.19,458.92,108.83,458.92S111.39,458.92,112.04,458.92S114.6,458.92,115.24,458.92S117.8,458.92,118.44,458.92S121,458.92,121.64,458.92S124.2,458.92,124.84,458.92S127.4,458.92,128.04,458.92S130.6,458.92,131.24,458.92S133.8,458.92,134.44,458.92S137,458.92,137.64,458.92S140.2,458.92,140.84,458.92S143.41,458.92,144.05,458.92S146.61,458.92,147.25,458.92S149.81,458.92,150.45,458.92S153.01,458.92,153.65,458.92S156.21,458.92,156.85,458.92S159.41,458.92,160.05,458.92S162.61,458.92,163.25,458.92S165.81,458.92,166.45,458.92S169.01,458.92,169.65,458.92S172.21,458.92,172.85,458.92S175.42,458.92,176.06,458.92S178.62,458.92,179.26,458.92S181.82,458.92,182.46,458.92S185.02,458.92,185.66,458.92S188.22,458.92,188.86,458.92S191.42,458.92,192.06,458.92S194.62,458.92,195.26,458.92S197.82,458.92,198.46,458.92S201.02,458.92,201.66,458.92S204.22,458.92,204.86,458.92S207.43,458.92,208.07,458.92S210.63,458.92,211.27,458.92S213.83,458.92,214.47,458.92S217.03,458.92,217.67,458.92S220.23,458.92,220.87,458.92S223.43,458.92,224.07,458.92S226.63,458.92,227.27,458.92S229.83,458.92,230.47,458.92S233.03,458.92,233.67,458.92S236.23,458.92,236.87,458.92S239.44,458.92,240.08,458.92S242.64,458.92,243.28,458.92S245.84,458.92,246.48,458.92S249.04,458.92,249.68,458.92S252.24,458.92,252.88,458.92S255.44,458.92,256.08,458.92S258.64,458.92,259.28,458.92S261.84,458.92,262.48,458.92S265.04,458.92,265.68,458.92S268.24,458.92,268.88,458.92S271.45,458.92,272.09,458.92S274.65,458.92,275.29,458.92S277.85,458.92,278.49,458.92S281.05,458.92,281.69,458.92S284.25,458.92,284.89,458.92S287.45,458.92,288.09,458.92S290.65,458.92,291.29,458.92S293.85,458.92,294.49,458.92S297.05,458.92,297.69,458.92S300.25,458.92,300.89,458.92S303.46,458.92,304.1,458.92S306.66,458.92,307.3,458.92S309.86,458.92,310.5,458.92S313.06,458.92,313.7,458.92S316.26,458.92,316.9,458.92S319.46,458.92,320.1,458.92S322.66,458.92,323.3,458.92S325.86,458.92,326.5,458.92S329.06,458.92,329.7,458.92S332.26,458.92,332.9,458.92S335.47,458.92,336.11,458.92S338.67,458.92,339.31,458.92S341.87,458.92,342.51,458.92S345.07,458.92,345.71,458.92S348.27,458.92,348.91,458.92S351.47,458.92,352.11,458.92S354.67,458.92,355.31,458.92S357.87,458.92,358.51,458.92S361.07,458.92,361.71,458.92S364.27,458.92,364.91,458.92S367.48,458.92,368.12,458.92S370.68,458.92,371.32,458.92S373.88,458.91,374.52,458.91S377.08,458.91,377.72,458.91S380.28,458.91,380.92,458.91S383.48,458.91,384.12,458.91S386.68,458.91,387.32,458.91S389.88,458.91,390.52,458.91S393.08,458.91,393.72,458.91S396.28,458.9,396.92,458.9S399.49,458.9,400.13,458.9S402.69,458.89,403.33,458.89S405.89,458.89,406.53,458.89S409.09,458.88,409.73,458.88S412.29,458.87,412.93,458.87S415.49,458.86,416.13,458.86S418.69,458.85,419.33,458.84S421.89,458.83,422.53,458.83S425.09,458.81,425.73,458.81S428.29,458.78,428.93,458.78S431.5,458.75,432.14,458.75S434.7,458.72,435.34,458.71S437.9,458.67,438.54,458.66S441.1,458.62,441.74,458.6S444.3,458.55,444.94,458.54S447.5,458.47,448.14,458.45S450.7,458.38,451.34,458.36S453.9,458.27,454.54,458.24S457.1,458.13,457.74,458.1S460.3,457.97,460.94,457.94S463.51,457.79,464.15,457.75S466.71,457.57,467.35,457.52S469.91,457.31,470.55,457.26S473.11,457.02,473.75,456.95S476.31,456.68,476.95,456.6S479.51,456.28,480.15,456.2S482.71,455.84,483.35,455.74S485.91,455.33,486.55,455.21S489.11,454.75,489.75,454.62S492.31,454.1,492.95,453.96S495.52,453.38,496.16,453.22S498.72,452.58,499.36,452.4S501.92,451.69,502.56,451.5S505.12,450.73,505.76,450.52S508.32,449.67,508.96,449.45S511.52,448.54,512.16,448.3S514.72,447.32,515.36,447.07S517.92,446.03,518.56,445.76S521.12,444.66,521.76,444.38S524.32,443.23,524.96,442.94S527.53,441.74,528.17,441.44S530.73,440.21,531.37,439.9S533.93,438.64,534.57,438.32S537.13,437.05,537.77,436.73S540.33,435.45,540.97,435.13S543.53,433.85,544.17,433.54S546.73,432.28,547.37,431.97S549.93,430.73,550.57,430.43S553.13,429.24,553.77,428.94S556.33,427.8,556.97,427.52S559.54,426.42,560.18,426.16S562.74,425.13,563.38,424.88S565.94,423.92,566.58,423.7S569.14,422.81,569.78,422.6S572.34,421.79,572.98,421.6S575.54,420.87,576.18,420.7S578.74,420.04,579.38,419.89S581.94,419.31,582.58,419.18S585.14,418.68,585.78,418.56S588.34,418.13,588.98,418.03S591.55,417.66,592.19,417.57S594.75,417.26,595.39,417.19S597.95,416.94,598.59,416.88S601.15,416.67,601.79,416.62S604.35,416.45,604.99,416.42S607.55,416.28,608.19,416.25S610.75,416.15,611.39,416.13S613.95,416.04,614.59,416.03S617.15,415.97,617.79,415.95S620.35,415.91,620.99,415.9S623.56,415.87,624.2,415.86S626.76,415.84,627.4,415.83S629.96,415.82,630.6,415.81S633.16,415.8,633.8,415.8S636.68,415.79,637,415.79" style="fill: none; stroke: #4d4d4d; stroke-width: 2;"></path>
    </g>
    <g>
     <path d="M0,458.92C0.32,458.92,2.56,458.92,3.2,458.92S5.76,458.92,6.4,458.92S8.96,458.92,9.6,458.92S12.16,458.92,12.8,458.92S15.36,458.92,16.01,458.92S18.57,458.92,19.21,458.92S21.77,458.92,22.41,458.92S24.97,458.92,25.61,458.92S28.17,458.92,28.81,458.92S31.37,458.92,32.01,458.92S34.57,458.92,35.21,458.92S37.77,458.92,38.41,458.92S40.97,458.92,41.61,458.92S44.17,458.92,44.81,458.92S47.37,458.92,48.02,458.92S50.58,458.92,51.22,458.92S53.78,458.92,54.42,458.92S56.98,458.92,57.62,458.92S60.18,458.92,60.82,458.92S63.38,458.92,64.02,458.92S66.58,458.92,67.22,458.92S69.78,458.92,70.42,458.92S72.98,458.92,73.62,458.92S76.18,458.92,76.82,458.92S79.38,458.92,80.03,458.92S82.59,458.92,83.23,458.92S85.79,458.92,86.43,458.92S88.99,458.92,89.63,458.92S92.19,458.92,92.83,458.92S95.39,458.92,96.03,458.92S98.59,458.92,99.23,458.92S101.79,458.92,102.43,458.92S104.99,458.92,105.63,458.92S108.19,458.92,108.83,458.92S111.39,458.92,112.04,458.92S114.6,458.92,115.24,458.92S117.8,458.92,118.44,458.92S121,458.92,121.64,458.92S124.2,458.92,124.84,458.92S127.4,458.92,128.04,458.92S130.6,458.92,131.24,458.92S133.8,458.92,134.44,458.92S137,458.92,137.64,458.92S140.2,458.92,140.84,458.92S143.41,458.92,144.05,458.92S146.61,458.92,147.25,458.92S149.81,458.92,150.45,458.92S153.01,458.92,153.65,458.92S156.21,458.92,156.85,458.92S159.41,458.92,160.05,458.92S162.61,458.92,163.25,458.92S165.81,458.92,166.45,458.92S169.01,458.92,169.65,458.92S172.21,458.92,172.85,458.92S175.42,458.92,176.06,458.92S178.62,458.92,179.26,458.92S181.82,458.92,182.46,458.92S185.02,458.92,185.66,458.92S188.22,458.92,188.86,458.92S191.42,458.92,192.06,458.92S194.62,458.92,195.26,458.92S197.82,458.92,198.46,458.92S201.02,458.92,201.66,458.92S204.22,458.92,204.86,458.92S207.43,458.92,208.07,458.92S210.63,458.92,211.27,458.92S213.83,458.92,214.47,458.92S217.03,458.92,217.67,458.92S220.23,458.92,220.87,458.92S223.43,458.92,224.07,458.92S226.63,458.92,227.27,458.92S229.83,458.92,230.47,458.92S233.03,458.92,233.67,458.92S236.23,458.92,236.87,458.92S239.44,458.92,240.08,458.92S242.64,458.92,243.28,458.92S245.84,458.92,246.48,458.92S249.04,458.92,249.68,458.92S252.24,458.92,252.88,458.92S255.44,458.92,256.08,458.92S258.64,458.92,259.28,458.92S261.84,458.92,262.48,458.92S265.04,458.92,265.68,458.92S268.24,458.92,268.88,458.92S271.45,458.92,272.09,458.92S274.65,458.92,275.29,458.92S277.85,458.92,278.49,458.92S281.05,458.92,281.69,458.92S284.25,458.92,284.89,458.92S287.45,458.92,288.09,458.92S290.65,458.92,291.29,458.92S293.85,458.92,294.49,458.92S297.05,458.92,297.69,458.92S300.25,458.92,300.89,458.92S303.46,458.92,304.1,458.92S306.66,458.92,307.3,458.92S309.86,458.92,310.5,458.92S313.06,458.92,313.7,458.92S316.26,458.92,316.9,458.92S319.46,458.92,320.1,458.92S322.66,458.92,323.3,458.92S325.86,458.92,326.5,458.92S329.06,458.92,329.7,458.92S332.26,458.92,332.9,458.92S335.47,458.92,336.11,458.92S338.67,458.92,339.31,458.92S341.87,458.92,342.51,458.92S345.07,458.92,345.71,458.92S348.27,458.92,348.91,458.92S351.47,458.92,352.11,458.92S354.67,458.92,355.31,458.92S357.87,458.92,358.51,458.92S361.07,458.92,361.71,458.92S364.27,458.92,364.91,458.92S367.48,458.92,368.12,458.92S370.68,458.92,371.32,458.92S373.88,458.92,374.52,458.92S377.08,458.92,377.72,458.92S380.28,458.92,380.92,458.92S383.48,458.92,384.12,458.92S386.68,458.92,387.32,458.92S389.88,458.92,390.52,458.92S393.08,458.92,393.72,458.92S396.28,458.91,396.92,458.91S399.49,458.91,400.13,458.91S402.69,458.91,403.33,458.91S405.89,458.91,406.53,458.91S409.09,458.91,409.73,458.91S412.29,458.91,412.93,458.91S415.49,458.9,416.13,458.9S418.69,458.9,419.33,458.9S421.89,458.89,422.53,458.89S425.09,458.89,425.73,458.89S428.29,458.88,428.93,458.88S431.5,458.87,432.14,458.87S434.7,458.86,435.34,458.86S437.9,458.85,438.54,458.84S441.1,458.83,441.74,458.82S444.3,458.81,444.94,458.8S447.5,458.78,448.14,458.77S450.7,458.75,451.34,458.74S453.9,458.71,454.54,458.7S457.1,458.66,457.74,458.65S460.3,458.6,460.94,458.59S463.51,458.53,464.15,458.52S466.71,458.45,467.35,458.43S469.91,458.35,470.55,458.33S473.11,458.23,473.75,458.21S476.31,458.09,476.95,458.06S479.51,457.93,480.15,457.89S482.71,457.74,483.35,457.7S485.91,457.52,486.55,457.47S489.11,457.26,489.75,457.21S492.31,456.97,492.95,456.9S495.52,456.63,496.16,456.56S498.72,456.25,499.36,456.17S501.92,455.82,502.56,455.73S505.12,455.34,505.76,455.24S508.32,454.81,508.96,454.7S511.52,454.23,512.16,454.1S514.72,453.58,515.36,453.45S517.92,452.89,518.56,452.74S521.12,452.14,521.76,451.98S524.32,451.34,524.96,451.17S527.53,450.49,528.17,450.31S530.73,449.59,531.37,449.41S533.93,448.67,534.57,448.48S537.13,447.71,537.77,447.51S540.33,446.73,540.97,446.53S543.53,445.74,544.17,445.54S546.73,444.74,547.37,444.55S549.93,443.76,550.57,443.56S553.13,442.78,553.77,442.59S556.33,441.84,556.97,441.66S559.54,440.93,560.18,440.75S562.74,440.06,563.38,439.9S565.94,439.25,566.58,439.09S569.14,438.48,569.78,438.34S572.34,437.78,572.98,437.65S575.54,437.14,576.18,437.02S578.74,436.57,579.38,436.46S581.94,436.06,582.58,435.96S585.14,435.61,585.78,435.53S588.34,435.22,588.98,435.15S591.55,434.89,592.19,434.83S594.75,434.61,595.39,434.56S597.95,434.37,598.59,434.33S601.15,434.18,601.79,434.15S604.35,434.03,604.99,434S607.55,433.9,608.19,433.88S610.75,433.81,611.39,433.79S613.95,433.73,614.59,433.72S617.15,433.68,617.79,433.67S620.35,433.64,620.99,433.63S623.56,433.61,624.2,433.6S626.76,433.58,627.4,433.58S629.96,433.57,630.6,433.57S633.16,433.56,633.8,433.56S636.68,433.55,637,433.55" style="fill: none; stroke: #666666; stroke-width: 2;"></path>
    </g>
    <g>
     <path d="M0,458.92C0.32,458.92,2.56,458.92,3.2,458.92S5.76,458.92,6.4,458.92S8.96,458.92,9.6,458.92S12.16,458.92,12.8,458.92S15.36,458.92,16.01,458.92S18.57,458.92,19.21,458.92S21.77,458.92,22.41,458.92S24.97,458.92,25.61,458.92S28.17,458.92,28.81,458.92S31.37,458.92,32.01,458.92S34.57,458.92,35.21,458.92S37.77,458.92,38.41,458.92S40.97,458.92,41.61,458.92S44.17,458.92,44.81,458.92S47.37,458.92,48.02,458.92S50.58,458.92,51.22,458.92S53.78,458.92,54.42,458.92S56.98,458.92,57.62,458.92S60.18,458.92,60.82,458.92S63.38,458.92,64.02,458.92S66.58,458.92,67.22,458.92S69.78,458.92,70.42,458.92S72.98,458.92,73.62,458.92S76.18,458.92,76.82,458.92S79.38,458.92,80.03,458.92S82.59,458.92,83.23,458.92S85.79,458.92,86.43,458.92S88.99,458.92,89.63,458.92S92.19,458.92,92.83,458.92S95.39,458.92,96.03,458.92S98.59,458.92,99.23,458.92S101.79,458.92,102.43,458.92S104.99,458.92,105.63,458.92S108.19,458.92,108.83,458.92S111.39,458.92,112.04,458.92S114.6,458.92,115.24,458.92S117.8,458.92,118.44,458.92S121,458.92,121.64,458.92S124.2,458.92,124.84,458.92S127.4,458.92,128.04,458.92S130.6,458.92,131.24,458.92S133.8,458.92,134.44,458.92S137,458.92,137.64,458.92S140.2,458.92,140.84,458.92S143.41,458.92,144.05,458.92S146.61,458.92,147.25,458.92S149.81,458.92,150.45,458.92S153.01,458.92,153.65,458.92S156.21,458.92,156.85,458.92S159.41,458.92,160.05,458.92S162.61,458.92,163.25,458.92S165.81,458.92,166.45,458.92S169.01,458.92,169.65,458.92S172.21,458.92,172.85,458.92S175.42,458.92,176.06,458.92S178.62,458.92,179.26,458.92S181.82,458.92,182.46,458.92S185.02,458.92,185.66,458.92S188.22,458.92,188.86,458.92S191.42,458.92,192.06,458.92S194.62,458.92,195.26,458.92S197.82,458.92,198.46,458.92S201.02,458.92,201.66,458.92S204.22,458.92,204.86,458.92S207.43,458.92,208.07,458.92S210.63,458.92,211.27,458.92S213.83,458.92,214.47,458.92S217.03,458.92,217.67,458.92S220.23,458.92,220.87,458.92S223.43,458.92,224.07,458.92S226.63,458.92,227.27,458.92S229.83,458.92,230.47,458.92S233.03,458.92,233.67,458.92S236.23,458.92,236.87,458.92S239.44,458.92,240.08,458.92S242.64,458.92,243.28,458.92S245.84,458.92,246.48,458.92S249.04,458.92,249.68,458.92S252.24,458.92,252.88,458.92S255.44,458.92,256.08,458.92S258.64,458.92,259.28,458.92S261.84,458.92,262.48,458.92S265.04,458.92,265.68,458.92S268.24,458.92,268.88,458.92S271.45,458.92,272.09,458.92S274.65,458.92,275.29,458.92S277.85,458.92,278.49,458.92S281.05,458.92,281.69,458.92S284.25,458.92,284.89,458.92S287.45,458.92,288.09,458.92S290.65,458.92,291.29,458.92S293.85,458.92,294.49,458.92S297.05,458.92,297.69,458.92S300.25,458.92,300.89,458.92S303.46,458.92,304.1,458.92S306.66,458.92,307.3,458.92S309.86,458.92,310.5,458.92S313.06,458.92,313.7,458.92S316.26,458.92,316.9,458.92S319.46,458.92,320.1,458.92S322.66,458.92,323.3,458.92S325.86,458.92,326.5,458.92S329.06,458.92,329.7,458.92S332.26,458.92,332.9,458.92S335.47,458.92,336.11,458.92S338.67,458.92,339.31,458.92S341.87,458.92,342.51,458.92S345.07,458.92,345.71,458.92S348.27,458.92,348.91,458.92S351.47,458.92,352.11,458.92S354.67,458.92,355.31,458.92S357.87,458.92,358.51,458.92S361.07,458.92,361.71,458.92S364.27,458.92,364.91,458.92S367.48,458.92,368.12,458.92S370.68,458.92,371.32,458.92S373.88,458.92,374.52,458.92S377.08,458.92,377.72,458.92S380.28,458.92,380.92,458.92S383.48,458.92,384.12,458.92S386.68,458.92,387.32,458.92S389.88,458.92,390.52,458.92S393.08,458.92,393.72,458.92S396.28,458.92,396.92,458.92S399.49,458.92,400.13,458.92S402.69,458.92,403.33,458.92S405.89,458.92,406.53,458.92S409.09,458.92,409.73,458.92S412.29,458.92,412.93,458.91S415.49,458.91,416.13,458.91S418.69,458.91,419.33,458.91S421.89,458.91,422.53,458.91S425.09,458.91,425.73,458.91S428.29,458.91,428.93,458.91S431.5,458.91,432.14,458.91S434.7,458.9,435.34,458.9S437.9,458.9,438.54,458.9S441.1,458.89,441.74,458.89S444.3,458.89,444.94,458.88S447.5,458.88,448.14,458.88S450.7,458.87,451.34,458.86S453.9,458.85,454.54,458.85S457.1,458.84,457.74,458.83S460.3,458.82,460.94,458.81S463.51,458.79,464.15,458.79S466.71,458.76,467.35,458.76S469.91,458.73,470.55,458.72S473.11,458.68,473.75,458.67S476.31,458.63,476.95,458.61S479.51,458.56,480.15,458.55S482.71,458.48,483.35,458.47S485.91,458.39,486.55,458.37S489.11,458.28,489.75,458.26S492.31,458.15,492.95,458.12S495.52,458,496.16,457.97S498.72,457.83,499.36,457.79S501.92,457.63,502.56,457.59S505.12,457.4,505.76,457.35S508.32,457.15,508.96,457.09S511.52,456.86,512.16,456.8S514.72,456.54,515.36,456.47S517.92,456.18,518.56,456.11S521.12,455.79,521.76,455.71S524.32,455.37,524.96,455.28S527.53,454.91,528.17,454.82S530.73,454.43,531.37,454.33S533.93,453.91,534.57,453.81S537.13,453.38,537.77,453.27S540.33,452.82,540.97,452.71S543.53,452.25,544.17,452.14S546.73,451.67,547.37,451.56S549.93,451.09,550.57,450.98S553.13,450.52,553.77,450.4S556.33,449.95,556.97,449.84S559.54,449.4,560.18,449.3S562.74,448.87,563.38,448.77S565.94,448.37,566.58,448.28S569.14,447.91,569.78,447.82S572.34,447.47,572.98,447.39S575.54,447.07,576.18,447S578.74,446.71,579.38,446.65S581.94,446.39,582.58,446.33S585.14,446.11,585.78,446.06S588.34,445.87,588.98,445.82S591.55,445.66,592.19,445.62S594.75,445.48,595.39,445.45S597.95,445.33,598.59,445.3S601.15,445.21,601.79,445.19S604.35,445.11,604.99,445.09S607.55,445.03,608.19,445.02S610.75,444.97,611.39,444.96S613.95,444.92,614.59,444.91S617.15,444.89,617.79,444.88S620.35,444.86,620.99,444.86S623.56,444.84,624.2,444.84S626.76,444.83,627.4,444.83S629.96,444.82,630.6,444.82S633.16,444.81,633.8,444.81S636.68,444.81,637,444.81" style="fill: none; stroke: #808080; stroke-width: 2;"></path>
    </g>
   </svg>
   <g>
    <g transform="translate(0,458)">
     <path d="M0,0h637M0,-17V0M43,-9V0M68,-9V0M86,-9V0M99,-9V0M111,-9V0M120,-9V0M128,-9V0M136,-9V0M142,-17V0M185,-9V0M210,-9V0M228,-9V0M242,-9V0M253,-9V0M263,-9V0M271,-9V0M278,-9V0M285,-17V0M327,-9V0M352,-9V0M370,-9V0M384,-9V0M395,-9V0M405,-9V0M413,-9V0M420,-9V0M427,-17V0M470,-9V0M495,-9V0M512,-9V0M526,-9V0M538,-9V0M547,-9V0M555,-9V0M563,-9V0M569,-17V0M612,-9V0M637,-9V0" style="stroke: black; stroke-width: 1;"></path>
     <g font-family="Arial" font-size="20" space="preserve">
      <g transform="translate(-16,23)">
       <text fill="black" font-size="20">
        10
       </text>
       <text fill="black" font-size="12" transform="translate(21,-10)">
        -3
       </text>
      </g>
      <g transform="translate(126,23)">
       <text fill="black" font-size="20">
        10
       </text>
       <text fill="black" font-size="12" transform="translate(21,-10)">
        -2
       </text>
      </g>
      <g transform="translate(269,23)">
       <text fill="black" font-size="20">
        10
       </text>
       <text fill="black" font-size="12" transform="translate(21,-10)">
        -1
       </text>
      </g>
      <g transform="translate(413,23)">
       <text fill="black" font-size="20">
        10
       </text>
       <text fill="black" font-size="12" transform="translate(21,-10)">
        0
       </text>
      </g>
      <g transform="translate(555,23)">
       <text fill="black" font-size="20">
        10
       </text>
       <text fill="black" font-size="12" transform="translate(21,-10)">
        1
       </text>
      </g>
     </g>
     <g font-family="Arial" font-size="20" space="preserve" transform="translate(319,38)">
      <g transform="translate(-85,7)">
       <text fill="black" font-size="20">
        thickness (g/cm2)
       </text>
      </g>
     </g>
    </g>
    <g>
     <path d="M0,0v458M12,450H0M12,441H0M12,431H0M12,422H0M24,413H0M12,404H0M12,395H0M12,385H0M12,376H0M24,367H0M12,358H0M12,349H0M12,340H0M12,330H0M24,321H0M12,312H0M12,303H0M12,294H0M12,285H0M24,275H0M12,266H0M12,257H0M12,248H0M12,239H0M24,229H0M12,220H0M12,211H0M12,202H0M12,193H0M24,184H0M12,174H0M12,165H0M12,156H0M12,147H0M24,138H0M12,128H0M12,119H0M12,110H0M12,101H0M24,92H0M12,83H0M12,73H0M12,64H0M12,55H0M24,46H0M12,37H0M12,28H0M12,18H0M12,9H0M24,0H0" style="stroke: black; stroke-width: 1;"></path>
     <g font-family="Arial" font-size="20" space="preserve" fill="black" text-anchor="end">
      <text dy=".4em" transform="translate(-3,413)">
       0.05
      </text>
      <text dy=".4em" transform="translate(-3,367)">
       0.10
      </text>
      <text dy=".4em" transform="translate(-3,321)">
       0.15
      </text>
      <text dy=".4em" transform="translate(-3,275)">
       0.20
      </text>
      <text dy=".4em" transform="translate(-3,229)">
       0.25
      </text>
      <text dy=".4em" transform="translate(-3,184)">
       0.30
      </text>
      <text dy=".4em" transform="translate(-3,138)">
       0.35
      </text>
      <text dy=".4em" transform="translate(-3,92)">
       0.40
      </text>
      <text dy=".4em" transform="translate(-3,46)">
       0.45
      </text>
      <text dy=".4em" transform="translate(-3)">
       0.50
      </text>
     </g>
     <g font-family="Arial" font-size="20" space="preserve" transform="translate(-53,229)">
      <text fill="black" text-anchor="middle" dy=".4em" transform="rotate(270)">
       Fractions
      </text>
     </g>
    </g>
   </g>
  </g>
  <g transform="translate(80,3)" font-family="Arial" font-size="22" space="preserve">
   <g transform="translate(15,23) scale(0.699)">
    <text fill="black" font-size="32">
     U projectile at 1.4 MeV/u on
    </text>
    <text fill="black" font-size="19" transform="translate(404,-15)">
     40
    </text>
    <text fill="black" font-size="32" x="425">
     Ar target with 1 mbar pressure.
    </text>
   </g>
  </g>
  <g transform="translate(318,57)" font-family="Arial" font-size="22" space="preserve">
   <path d="M0,0H398V114H0Z" style="fill: white; stroke: black; stroke-width: 1;"></path>
   <path d="M3,17H22" style="stroke: black; stroke-width: 2;"></path>
   <path d="M13,17h1" style="stroke: black; fill: none;"></path>
   <text fill="black" text-anchor="start" dy=".4em" transform="translate(25,17)">
    F1
   </text>
   <path d="M103,17H122" style="stroke: black; stroke-width: 2;"></path>
   <path d="M113,17h1" style="stroke: black; fill: none;"></path>
   <text fill="black" text-anchor="start" dy=".4em" transform="translate(125,17)">
    F2
   </text>
   <path d="M203,17H222" style="stroke: red; stroke-width: 2;"></path>
   <path d="M213,17h1" style="stroke: black; fill: none;"></path>
   <text fill="black" text-anchor="start" dy=".4em" transform="translate(225,17)">
    F3
   </text>
   <path d="M303,17H322" style="stroke: green; stroke-width: 2;"></path>
   <path d="M313,17h1" style="stroke: black; fill: none;"></path>
   <text fill="black" text-anchor="start" dy=".4em" transform="translate(325,17)">
    F4
   </text>
   <path d="M3,44H22" style="stroke: blue; stroke-width: 2;"></path>
   <path d="M13,44h1" style="stroke: black; fill: none;"></path>
   <text fill="black" text-anchor="start" dy=".4em" transform="translate(25,44)">
    F5
   </text>
   <path d="M103,44H122" style="stroke: yellow; stroke-width: 2;"></path>
   <path d="M113,44h1" style="stroke: black; fill: none;"></path>
   <text fill="black" text-anchor="start" dy=".4em" transform="translate(125,44)">
    F6
   </text>
   <path d="M203,44H222" style="stroke: magenta; stroke-width: 2;"></path>
   <path d="M213,44h1" style="stroke: black; fill: none;"></path>
   <text fill="black" text-anchor="start" dy=".4em" transform="translate(225,44)">
    F7
   </text>
   <path d="M303,44H322" style="stroke: cyan; stroke-width: 2;"></path>
   <path d="M313,44h1" style="stroke: black; fill: none;"></path>
   <text fill="black" text-anchor="start" dy=".4em" transform="translate(325,44)">
    F8
   </text>
   <path d="M3,71H22" style="stroke: #59d454; stroke-width: 2;"></path>
   <path d="M13,71h1" style="stroke: black; fill: none;"></path>
   <text fill="black" text-anchor="start" dy=".4em" transform="translate(25,71)">
    F9
   </text>
   <path d="M103,71H122" style="stroke: #5954d9; stroke-width: 2;"></path>
   <path d="M113,71h1" style="stroke: black; fill: none;"></path>
   <text fill="black" text-anchor="start" dy=".4em" transform="translate(125,71)">
    F10
   </text>
   <path d="M203,71H222" style="stroke: #c0b6ac; stroke-width: 2;"></path>
   <path d="M213,71h1" style="stroke: black; fill: none;"></path>
   <text fill="black" text-anchor="start" dy=".4em" transform="translate(225,71)">
    F11
   </text>
   <path d="M303,71H322" style="stroke: #c0b6ac; stroke-width: 2;"></path>
   <path d="M313,71h1" style="stroke: black; fill: none;"></path>
   <text fill="black" text-anchor="start" dy=".4em" transform="translate(325,71)">
    F12
   </text>
   <path d="M3,98H22" style="stroke: #4d4d4d; stroke-width: 2;"></path>
   <path d="M13,98h1" style="stroke: black; fill: none;"></path>
   <text fill="black" text-anchor="start" dy=".4em" transform="translate(25,98)">
    F13
   </text>
   <path d="M103,98H122" style="stroke: #666666; stroke-width: 2;"></path>
   <path d="M113,98h1" style="stroke: black; fill: none;"></path>
   <text fill="black" text-anchor="start" dy=".4em" transform="translate(125,98)">
    F14
   </text>
   <path d="M203,98H222" style="stroke: #808080; stroke-width: 2;"></path>
   <path d="M213,98h1" style="stroke: black; fill: none;"></path>
   <text fill="black" text-anchor="start" dy=".4em" transform="translate(225,98)">
    F15
   </text>
  </g>
 </g>
</svg>