<svg xmlns="http://www.w3.org/2000/svg" viewBox="0 0 598 775" preserveAspectRatio="none" width="598" height="775">
 <path d="M0,0H598V775H0Z" style="fill: white;"></path>
 <g>
  <svg viewBox="0 0 586 372" preserveAspectRatio="none" x="6" y="8" width="586" height="372">
   <path d="M0,0H586V372H0Z" style="fill: white;"></path>
   <g>
    <g transform="translate(59,37)">
     <path d="M0,0H469V298H0Z" style="fill: white; stroke: black; stroke-width: 1;"></path>
     <g>
      <path d="M0,0v298M47,0v298M94,0v298M141,0v298M188,0v298M235,0v298M281,0v298M328,0v298M375,0v298M422,0v298M469,0v298" style="stroke: black; stroke-width: 1; stroke-dasharray: 1,2;"></path>
      <path d="M0,298h469M0,281h469M0,272h469M0,265h469M0,259h469M0,255h469M0,251h469M0,248h469M0,245h469M0,243h469M0,226h469M0,217h469M0,210h469M0,204h469M0,200h469M0,196h469M0,193h469M0,190h469M0,188h469M0,171h469M0,161h469M0,154h469M0,149h469M0,145h469M0,141h469M0,138h469M0,135h469M0,132h469M0,116h469M0,106h469M0,99h469M0,94h469M0,90h469M0,86h469M0,83h469M0,80h469M0,77h469M0,61h469M0,51h469M0,44h469M0,39h469M0,34h469M0,31h469M0,27h469M0,25h469M0,22h469M0,6h469" style="stroke: black; stroke-width: 1; stroke-dasharray: 1,2;"></path>
     </g>
     <svg x="0" y="0" overflow="hidden" width="469" height="298" viewBox="0 0 469 298">
      <g>
       <path d="M3,1l4,16l5,8l5,7l4,5l5,5l5,4l5,4l4,4l5,4l5,4l4,3l5,3l5,4l4,3l5,3l5,3l4,3l5,4l5,3l4,3l5,3l5,2l5,3l4,3l5,3l5,3l4,3l5,3l5,3l4,2l5,3l5,3l4,3l5,2l5,3l5,3l4,3l5,2l5,3l4,3l5,2l5,3l4,3l5,2l5,3l4,3l5,2l5,3l5,3l4,2l5,3l5,3l4,2l5,3l5,2l4,3l5,3l5,2l4,3l5,2l5,3l4,3l5,2l5,3l5,2l4,3l5,2l5,3l4,3l5,2l5,3l4,2l5,3l5,2l4,3l5,3l5,2l5,3l4,2l5,3l5,2l4,3l5,2l5,3l4,2l5,3l5,2l4,3l5,3l5,2l4,3l5,2l5,3l5,2l4,3l5,2l5,3l4,6h5" style="fill: none; stroke: #ff0000; stroke-width: 2;"></path>
      </g>
      <g>
       <path d="M3,23l4,3l5,2l5,3l4,2l5,2l5,3l5,2l4,3l5,2l5,2l4,3l5,2l5,2l4,3l5,2l5,3l4,2l5,2l5,3l4,2l5,3l5,2l5,2l4,3l5,2l5,3l4,2l5,2l5,3l4,2l5,3l5,2l4,2l5,3l5,2l5,3l4,2l5,2l5,3l4,2l5,3l5,2l4,2l5,3l5,2l4,3l5,2l5,2l5,3l4,2l5,3l5,2l4,2l5,3l5,2l4,3l5,2l5,2l4,3l5,2l5,3l4,2l5,2l5,3l5,2l4,2l5,3l5,2l4,3l5,2l5,2l4,3l5,2l5,3l4,2l5,2l5,3l5,2l4,3l5,2l5,2l4,3l5,2l5,3l4,2l5,2l5,3l4,2l5,3l5,2l4,2l5,3l5,2l5,3l4,2l5,2l5,3l4,2l5,3" style="fill: none; stroke: #00ff00; stroke-width: 2;"></path>
      </g>
      <g>
       <path d="M3,95l4,-24l5,-10l5,-5l4,-4l5,-2l5,-2l5,-1l4,-1h5h5h4l5,1h5l4,1l5,1l5,1l4,1l5,1l5,1l4,1l5,1l5,2l5,1l4,1l5,2l5,1l4,2l5,1l5,2l4,2l5,1l5,2l4,1l5,2l5,2l5,2l4,1l5,2l5,2l4,2l5,1l5,2l4,2l5,2l5,2l4,2l5,2l5,2l5,1l4,2l5,2l5,2l4,2l5,2l5,2l4,2l5,2l5,2l4,2l5,2l5,2l4,2l5,2l5,2l5,2l4,2l5,2l5,2l4,2l5,2l5,2l4,2l5,2l5,3l4,2l5,2l5,2l5,2l4,2l5,2l5,2l4,2l5,2l5,2l4,3l5,2l5,2l4,2l5,2l5,2l4,2l5,2l5,3l5,2l4,2l5,2l5,2l4,2l5,3" style="fill: none; stroke: #0000ff; stroke-width: 2;"></path>
      </g>
      <g>
       <path d="M3,303l4,-19l5,-47l5,-30l4,-21l5,-17l5,-14l5,-11l4,-10l5,-8l5,-7l4,-7l5,-5l5,-5l4,-5l5,-4l5,-3l4,-3l5,-3l5,-3l4,-2l5,-3l5,-2l5,-1l4,-2l5,-1l5,-2l4,-1l5,-1l5,-1l4,-1h5l5,-1h4l5,-1h5h5l4,-1h5h5h4h5h5l4,1h5h5h4l5,1h5l5,1h4l5,1h5l4,1h5l5,1l4,1h5l5,1l4,1l5,1l5,1h4l5,1l5,1l5,1l4,1l5,1l5,1l4,1l5,1l5,1l4,1l5,1l5,1l4,1l5,2l5,1l5,1l4,1l5,1l5,1l4,2l5,1l5,1l4,1l5,2l5,1l4,1l5,2l5,1l4,1l5,2l5,1l5,1l4,2l5,1l5,2l4,1l5,1" style="fill: none; stroke: #ff00ff; stroke-width: 2;"></path>
      </g>
     </svg>
     <g>
      <g transform="translate(0,298)">
       <path d="M0,0h469M0,-11V0M9,-6V0M19,-6V0M28,-6V0M38,-6V0M47,-11V0M56,-6V0M66,-6V0M75,-6V0M84,-6V0M94,-11V0M103,-6V0M113,-6V0M122,-6V0M131,-6V0M141,-11V0M150,-6V0M159,-6V0M169,-6V0M178,-6V0M188,-11V0M197,-6V0M206,-6V0M216,-6V0M225,-6V0M235,-11V0M244,-6V0M253,-6V0M263,-6V0M272,-6V0M281,-11V0M291,-6V0M300,-6V0M310,-6V0M319,-6V0M328,-11V0M338,-6V0M347,-6V0M356,-6V0M366,-6V0M375,-11V0M385,-6V0M394,-6V0M403,-6V0M413,-6V0M422,-11V0M431,-6V0M441,-6V0M450,-6V0M460,-6V0M469,-11V0" style="stroke: black; stroke-width: 1;"></path>
       <g font-family="Arial" font-size="13" space="preserve" fill="black" text-anchor="middle">
        <text dy=".8em" transform="translate(0,1)">
         0
        </text>
        <text dy=".8em" transform="translate(47,1)">
         1
        </text>
        <text dy=".8em" transform="translate(94,1)">
         2
        </text>
        <text dy=".8em" transform="translate(141,1)">
         3
        </text>
        <text dy=".8em" transform="translate(188,1)">
         4
        </text>
        <text dy=".8em" transform="translate(235,1)">
         5
        </text>
        <text dy=".8em" transform="translate(281,1)">
         6
        </text>
        <text dy=".8em" transform="translate(328,1)">
         7
        </text>
        <text dy=".8em" transform="translate(375,1)">
         8
        </text>
        <text dy=".8em" transform="translate(422,1)">
         9
        </text>
        <text dy=".8em" transform="translate(469,1)">
         10
        </text>
       </g>
      </g>
      <g>
       <path d="M0,0v298M18,298H0M9,281H0M9,272H0M9,265H0M9,259H0M9,255H0M9,251H0M9,248H0M9,245H0M18,243H0M9,226H0M9,217H0M9,210H0M9,204H0M9,200H0M9,196H0M9,193H0M9,190H0M18,188H0M9,171H0M9,161H0M9,154H0M9,149H0M9,145H0M9,141H0M9,138H0M9,135H0M18,132H0M9,116H0M9,106H0M9,99H0M9,94H0M9,90H0M9,86H0M9,83H0M9,80H0M18,77H0M9,61H0M9,51H0M9,44H0M9,39H0M9,34H0M9,31H0M9,27H0M9,25H0M18,22H0M9,6H0" style="stroke: black; stroke-width: 1;"></path>
       <g font-family="Arial" font-size="13" space="preserve">
        <g transform="translate(-23,304)">
         <text fill="black" font-size="13">
          10
         </text>
         <text fill="black" font-size="8" transform="translate(14,-7)">
          -5
         </text>
        </g>
        <g transform="translate(-23,249)">
         <text fill="black" font-size="13">
          10
         </text>
         <text fill="black" font-size="8" transform="translate(14,-7)">
          -4
         </text>
        </g>
        <g transform="translate(-23,194)">
         <text fill="black" font-size="13">
          10
         </text>
         <text fill="black" font-size="8" transform="translate(14,-7)">
          -3
         </text>
        </g>
        <g transform="translate(-23,138)">
         <text fill="black" font-size="13">
          10
         </text>
         <text fill="black" font-size="8" transform="translate(14,-7)">
          -2
         </text>
        </g>
        <g transform="translate(-23,83)">
         <text fill="black" font-size="13">
          10
         </text>
         <text fill="black" font-size="8" transform="translate(14,-7)">
          -1
         </text>
        </g>
        <g transform="translate(-20,28)">
         <text fill="black" font-size="13">
          10
         </text>
         <text fill="black" font-size="8" transform="translate(14,-7)">
          0
         </text>
        </g>
       </g>
      </g>
     </g>
    </g>
    <g transform="translate(59,2)" font-family="Arial" font-size="19" space="preserve">
     <text fill="black" text-anchor="middle" dy=".8em" transform="translate(235)">
      TMath::GammaDist(x, [0], [1], [2])
     </text>
    </g>
    <g transform="translate(117,223)" font-family="Arial" font-size="7" space="preserve">
     <path d="M0,0H176V93H0Z" style="fill: white; stroke: black; stroke-width: 1;"></path>
     <path d="M5,14H39" style="stroke: #ff0000; stroke-width: 2;"></path>
     <text fill="black" text-anchor="start" dy=".4em" transform="translate(44,14)">
      gamma = 0.5 mu = 0  beta = 1
     </text>
     <path d="M5,36H39" style="stroke: #00ff00; stroke-width: 2;"></path>
     <text fill="black" text-anchor="start" dy=".4em" transform="translate(44,36)">
      gamma = 1   mu = 0  beta = 1
     </text>
     <path d="M5,57H39" style="stroke: #0000ff; stroke-width: 2;"></path>
     <text fill="black" text-anchor="start" dy=".4em" transform="translate(44,58)">
      gamma = 2   mu = 0  beta = 1
     </text>
     <path d="M5,79H39" style="stroke: #ff00ff; stroke-width: 2;"></path>
     <text fill="black" text-anchor="start" dy=".4em" transform="translate(44,79)">
      gamma = 5   mu = 0  beta = 1
     </text>
    </g>
   </g>
  </svg>
  <svg viewBox="0 0 586 372" preserveAspectRatio="none" x="6" y="395" width="586" height="372">
   <path d="M0,0H586V372H0Z" style="fill: white;"></path>
   <g>
    <g transform="translate(59,37)">
     <path d="M0,0H469V298H0Z" style="fill: white; stroke: black; stroke-width: 1;"></path>
     <g>
      <path d="M0,0v298M47,0v298M94,0v298M141,0v298M188,0v298M235,0v298M281,0v298M328,0v298M375,0v298M422,0v298M469,0v298" style="stroke: black; stroke-width: 1; stroke-dasharray: 1,2;"></path>
      <path d="M0,294h469M0,289h469M0,286h469M0,283h469M0,281h469M0,279h469M0,278h469M0,276h469M0,275h469M0,267h469M0,262h469M0,258h469M0,256h469M0,253h469M0,252h469M0,250h469M0,249h469M0,247h469M0,239h469M0,234h469M0,231h469M0,228h469M0,226h469M0,224h469M0,222h469M0,221h469M0,220h469M0,211h469M0,207h469M0,203h469M0,201h469M0,198h469M0,197h469M0,195h469M0,194h469M0,192h469M0,184h469M0,179h469M0,176h469M0,173h469M0,171h469M0,169h469M0,167h469M0,166h469M0,165h469M0,156h469M0,152h469M0,148h469M0,145h469M0,143h469M0,141h469M0,140h469M0,138h469M0,137h469M0,129h469M0,124h469M0,121h469M0,118h469M0,116h469M0,114h469M0,112h469M0,111h469M0,110h469M0,101h469M0,96h469M0,93h469M0,90h469M0,88h469M0,86h469M0,85h469M0,83h469M0,82h469M0,74h469M0,69h469M0,65h469M0,63h469M0,61h469M0,59h469M0,57h469M0,56h469M0,54h469M0,46h469M0,41h469M0,38h469M0,35h469M0,33h469M0,31h469M0,30h469M0,28h469M0,27h469M0,19h469M0,14h469M0,10h469M0,8h469M0,5h469M0,4h469M0,2h469M0,1h469" style="stroke: black; stroke-width: 1; stroke-dasharray: 1,2;"></path>
     </g>
     <svg x="0" y="0" overflow="hidden" width="469" height="298" viewBox="0 0 469 298">
      <g>
       <path d="M3,284l4,-152l5,-51l5,-27l4,-17l5,-10l5,-8l5,-6l4,-4l5,-3l5,-2l4,-1l5,-1l5,-1h4h5h5h4h5l5,1h4l5,1l5,1l5,1h4l5,1l5,1l4,1l5,1l5,1l4,1l5,1l5,2l4,1l5,1l5,1l5,1l4,1l5,1l5,1l4,1l5,2l5,1l4,1l5,1l5,1l4,1l5,1l5,1l5,2l4,1l5,1l5,1l4,1l5,1l5,1l4,1l5,1l5,1l4,2l5,1l5,1l4,1l5,1l5,1l5,1l4,1l5,1l5,1l4,1l5,1l5,1l4,1l5,1l5,1l4,1l5,1l5,1l5,1l4,1l5,1l5,1l4,1l5,1l5,1l4,1l5,1l5,1l4,1l5,1l5,1l4,1l5,1h5l5,1l4,1l5,1l5,1l4,1l5,1" style="fill: none; stroke: #ff0000; stroke-width: 2;"></path>
      </g>
      <g>
       <path d="M3,48l4,-28l5,-9l5,-3l4,-2l5,-1l5,-1h5l4,1h5h5l4,1h5l5,1h4l5,1h5l4,1h5l5,1l4,1h5l5,1h5l4,1l5,1h5l4,1h5l5,1h4l5,1l5,1h4l5,1h5l5,1h4l5,1h5l4,1h5l5,1h4l5,1h5l4,1h5l5,1h5l4,1h5h5l4,1h5l5,1h4l5,1h5l4,1h5h5l4,1h5l5,1h5h4l5,1h5l4,1h5h5l4,1h5h5l4,1h5l5,1h5h4l5,1h5h4l5,1h5h4l5,1h5h4l5,1h5h4l5,1h5h5l4,1h5h5l4,1h5" style="fill: none; stroke: #00ff00; stroke-width: 2;"></path>
      </g>
      <g>
       <path d="M3,-5l4,3l5,2l5,2l4,2l5,2l5,1l5,1l4,2l5,1l5,1l4,1h5l5,1l4,1l5,1h5l4,1l5,1h5l4,1l5,1h5l5,1h4l5,1h5l4,1h5l5,1h4h5l5,1h4l5,1h5h5l4,1h5l5,1h4h5l5,1h4h5l5,1h4h5h5l5,1h4h5l5,1h4h5h5l4,1h5h5h4l5,1h5h4h5l5,1h5h4h5l5,1h4h5h5l4,1h5h5h4h5l5,1h5h4h5h5l4,1h5h5h4h5l5,1h4h5h5h4l5,1h5h5h4h5h5l4,1h5" style="fill: none; stroke: #0000ff; stroke-width: 2;"></path>
      </g>
      <g>
       <path d="M3,-11l4,11l5,6l5,4l4,2l5,3l5,1l5,2l4,2l5,1l5,1l4,1l5,1l5,1l4,1l5,1h5l4,1l5,1h5l4,1h5l5,1l5,1h4l5,1h5h4l5,1h5l4,1h5h5l4,1h5l5,1h5h4l5,1h5h4h5l5,1h4h5l5,1h4h5h5l5,1h4h5h5l4,1h5h5h4l5,1h5h4h5h5l4,1h5h5h5h4l5,1h5h4h5h5h4l5,1h5h4h5h5h5l4,1h5h5h4h5h5l4,1h5h5h4h5h5h4l5,1h5h5h4h5h5h4h5" style="fill: none; stroke: #ff00ff; stroke-width: 2;"></path>
      </g>
     </svg>
     <g>
      <g transform="translate(0,298)">
       <path d="M0,0h469M0,-11V0M9,-6V0M19,-6V0M28,-6V0M38,-6V0M47,-11V0M56,-6V0M66,-6V0M75,-6V0M84,-6V0M94,-11V0M103,-6V0M113,-6V0M122,-6V0M131,-6V0M141,-11V0M150,-6V0M159,-6V0M169,-6V0M178,-6V0M188,-11V0M197,-6V0M206,-6V0M216,-6V0M225,-6V0M235,-11V0M244,-6V0M253,-6V0M263,-6V0M272,-6V0M281,-11V0M291,-6V0M300,-6V0M310,-6V0M319,-6V0M328,-11V0M338,-6V0M347,-6V0M356,-6V0M366,-6V0M375,-11V0M385,-6V0M394,-6V0M403,-6V0M413,-6V0M422,-11V0M431,-6V0M441,-6V0M450,-6V0M460,-6V0M469,-11V0" style="stroke: black; stroke-width: 1;"></path>
       <g font-family="Arial" font-size="13" space="preserve" fill="black" text-anchor="middle">
        <text dy=".8em" transform="translate(0,1)">
         0
        </text>
        <text dy=".8em" transform="translate(47,1)">
         0.5
        </text>
        <text dy=".8em" transform="translate(94,1)">
         1
        </text>
        <text dy=".8em" transform="translate(141,1)">
         1.5
        </text>
        <text dy=".8em" transform="translate(188,1)">
         2
        </text>
        <text dy=".8em" transform="translate(235,1)">
         2.5
        </text>
        <text dy=".8em" transform="translate(281,1)">
         3
        </text>
        <text dy=".8em" transform="translate(328,1)">
         3.5
        </text>
        <text dy=".8em" transform="translate(375,1)">
         4
        </text>
        <text dy=".8em" transform="translate(422,1)">
         4.5
        </text>
        <text dy=".8em" transform="translate(469,1)">
         5
        </text>
       </g>
      </g>
      <g>
       <path d="M0,0v298M9,294H0M9,289H0M9,286H0M9,283H0M9,281H0M9,279H0M9,278H0M9,276H0M18,275H0M9,267H0M9,262H0M9,258H0M9,256H0M9,253H0M9,252H0M9,250H0M9,249H0M18,247H0M9,239H0M9,234H0M9,231H0M9,228H0M9,226H0M9,224H0M9,222H0M9,221H0M18,220H0M9,211H0M9,207H0M9,203H0M9,201H0M9,198H0M9,197H0M9,195H0M9,194H0M18,192H0M9,184H0M9,179H0M9,176H0M9,173H0M9,171H0M9,169H0M9,167H0M9,166H0M18,165H0M9,156H0M9,152H0M9,148H0M9,145H0M9,143H0M9,141H0M9,140H0M9,138H0M18,137H0M9,129H0M9,124H0M9,121H0M9,118H0M9,116H0M9,114H0M9,112H0M9,111H0M18,110H0M9,101H0M9,96H0M9,93H0M9,90H0M9,88H0M9,86H0M9,85H0M9,83H0M18,82H0M9,74H0M9,69H0M9,65H0M9,63H0M9,61H0M9,59H0M9,57H0M9,56H0M18,54H0M9,46H0M9,41H0M9,38H0M9,35H0M9,33H0M9,31H0M9,30H0M9,28H0M18,27H0M9,19H0M9,14H0M9,10H0M9,8H0M9,5H0M9,4H0M9,2H0M9,1H0" style="stroke: black; stroke-width: 1;"></path>
       <g font-family="Arial" font-size="13" space="preserve">
        <g transform="translate(-27,281)">
         <text fill="black" font-size="13">
          10
         </text>
         <text fill="black" font-size="8" transform="translate(14,-7)">
          -10
         </text>
        </g>
        <g transform="translate(-23,253)">
         <text fill="black" font-size="13">
          10
         </text>
         <text fill="black" font-size="8" transform="translate(14,-7)">
          -9
         </text>
        </g>
        <g transform="translate(-23,226)">
         <text fill="black" font-size="13">
          10
         </text>
         <text fill="black" font-size="8" transform="translate(14,-7)">
          -8
         </text>
        </g>
        <g transform="translate(-23,198)">
         <text fill="black" font-size="13">
          10
         </text>
         <text fill="black" font-size="8" transform="translate(14,-7)">
          -7
         </text>
        </g>
        <g transform="translate(-23,171)">
         <text fill="black" font-size="13">
          10
         </text>
         <text fill="black" font-size="8" transform="translate(14,-7)">
          -6
         </text>
        </g>
        <g transform="translate(-23,143)">
         <text fill="black" font-size="13">
          10
         </text>
         <text fill="black" font-size="8" transform="translate(14,-7)">
          -5
         </text>
        </g>
        <g transform="translate(-23,116)">
         <text fill="black" font-size="13">
          10
         </text>
         <text fill="black" font-size="8" transform="translate(14,-7)">
          -4
         </text>
        </g>
        <g transform="translate(-23,88)">
         <text fill="black" font-size="13">
          10
         </text>
         <text fill="black" font-size="8" transform="translate(14,-7)">
          -3
         </text>
        </g>
        <g transform="translate(-23,60)">
         <text fill="black" font-size="13">
          10
         </text>
         <text fill="black" font-size="8" transform="translate(14,-7)">
          -2
         </text>
        </g>
        <g transform="translate(-23,33)">
         <text fill="black" font-size="13">
          10
         </text>
         <text fill="black" font-size="8" transform="translate(14,-7)">
          -1
         </text>
        </g>
       </g>
      </g>
     </g>
    </g>
    <g transform="translate(59,2)" font-family="Arial" font-size="19" space="preserve">
     <text fill="black" text-anchor="middle" dy=".8em" transform="translate(235)">
      TMath::LogNormal(x, [0], [1], [2])
     </text>
    </g>
    <g transform="translate(117,223)" font-family="Arial" font-size="7" space="preserve">
     <path d="M0,0H176V93H0Z" style="fill: white; stroke: black; stroke-width: 1;"></path>
     <path d="M5,14H39" style="stroke: #ff0000; stroke-width: 2;"></path>
     <text fill="black" text-anchor="start" dy=".4em" transform="translate(44,14)">
      sigma = 0.5 theta = 0  m = 1
     </text>
     <path d="M5,36H39" style="stroke: #00ff00; stroke-width: 2;"></path>
     <text fill="black" text-anchor="start" dy=".4em" transform="translate(44,36)">
      sigma = 1   theta = 0  m = 1
     </text>
     <path d="M5,57H39" style="stroke: #0000ff; stroke-width: 2;"></path>
     <text fill="black" text-anchor="start" dy=".4em" transform="translate(44,58)">
      sigma = 2   theta = 0  m = 1
     </text>
     <path d="M5,79H39" style="stroke: #ff00ff; stroke-width: 2;"></path>
     <text fill="black" text-anchor="start" dy=".4em" transform="translate(44,79)">
      sigma = 5   theta = 0  m = 1
     </text>
    </g>
   </g>
  </svg>
 </g>
</svg>