<svg xmlns="http://www.w3.org/2000/svg" viewBox="0 0 1200 800" preserveAspectRatio="none" width="1200" height="800">
 <path d="M0,0H1200V800H0Z" style="fill: white;"></path>
 <g>
  <svg viewBox="0 0 1176 384" preserveAspectRatio="none" x="12" y="8" width="1176" height="384">
   <path d="M0,0H1176V384H0Z" style="fill: white;"></path>
   <g>
    <g transform="translate(118,38)">
     <path d="M0,0H941V307H0Z" style="fill: white; stroke: black; stroke-width: 1;"></path>
     <g>
      <path d="M0,0v307M94,0v307M188,0v307M282,0v307M376,0v307M471,0v307M565,0v307M659,0v307M753,0v307M847,0v307M941,0v307" style="stroke: black; stroke-width: 1; stroke-dasharray: 1,2;"></path>
      <path d="M0,307h941M0,289h941M0,279h941M0,272h941M0,266h941M0,261h941M0,257h941M0,254h941M0,251h941M0,248h941M0,231h941M0,220h941M0,213h941M0,207h941M0,203h941M0,199h941M0,195h941M0,192h941M0,190h941M0,172h941M0,162h941M0,154h941M0,149h941M0,144h941M0,140h941M0,137h941M0,134h941M0,131h941M0,113h941M0,103h941M0,96h941M0,90h941M0,85h941M0,81h941M0,78h941M0,75h941M0,72h941M0,54h941M0,44h941M0,37h941M0,31h941M0,26h941M0,23h941M0,19h941M0,16h941M0,13h941" style="stroke: black; stroke-width: 1; stroke-dasharray: 1,2;"></path>
     </g>
     <svg x="0" y="0" overflow="hidden" width="941" height="307" viewBox="0 0 941 307">
      <g>
       <path d="M0,312C-0.07,280.91,7.53,31.18,9.41,1.24S16.94,10.72,18.82,12.63S26.35,18.96,28.23,20.35S35.76,25.41,37.64,26.57S45.17,30.93,47.05,31.96S54.58,35.90,56.46,36.83S63.99,40.47,65.87,41.35S73.40,44.77,75.28,45.60S82.81,48.86,84.69,49.65S92.22,52.78,94.10,53.55S101.63,56.57,103.51,57.31S111.04,60.25,112.92,60.97S120.45,63.83,122.33,64.54S129.86,67.34,131.74,68.03S139.27,70.78,141.15,71.46S148.68,74.17,150.56,74.84S158.09,77.50,159.97,78.16S167.50,80.78,169.38,81.44S176.91,84.03,178.79,84.68S186.32,87.24,188.20,87.88S195.73,90.42,197.61,91.05S205.14,93.57,207.02,94.19S214.55,96.69,216.43,97.31S223.96,99.79,225.84,100.40S233.37,102.86,235.25,103.47S242.78,105.91,244.66,106.52S252.19,108.95,254.07,109.55S261.60,111.97,263.48,112.57S271.01,114.97,272.89,115.56S280.42,117.95,282.30,118.55S289.83,120.92,291.71,121.51S299.24,123.88,301.12,124.47S308.65,126.82,310.53,127.41S318.06,129.75,319.94,130.34S327.47,132.68,329.35,133.26S336.88,135.59,338.76,136.17S346.29,138.49,348.17,139.07S355.70,141.38,357.58,141.96S365.11,144.26,366.99,144.84S374.52,147.14,376.40,147.71S383.93,150.00,385.81,150.57S393.34,152.86,395.22,153.43S402.75,155.71,404.63,156.28S412.16,158.56,414.04,159.12S421.57,161.39,423.45,161.96S430.98,164.22,432.86,164.79S440.39,167.05,442.27,167.61S449.80,169.87,451.68,170.43S459.21,172.68,461.09,173.24S468.62,175.49,470.50,176.05S478.03,178.29,479.91,178.85S487.44,181.09,489.32,181.65S496.85,183.89,498.73,184.44S506.26,186.67,508.14,187.23S515.67,189.46,517.55,190.02S525.08,192.24,526.96,192.79S534.49,195.02,536.37,195.57S543.90,197.79,545.78,198.34S553.31,200.56,555.19,201.11S562.72,203.32,564.60,203.87S572.13,206.08,574.01,206.63S581.54,208.84,583.42,209.39S590.95,211.59,592.83,212.14S600.36,214.34,602.24,214.89S609.77,217.09,611.65,217.64S619.18,219.84,621.06,220.39S628.59,222.58,630.47,223.13S638.00,225.32,639.88,225.87S647.41,228.06,649.29,228.60S656.82,230.79,658.70,231.34S666.23,233.52,668.11,234.07S675.64,236.25,677.52,236.79S685.05,238.97,686.93,239.52S694.46,241.70,696.34,242.24S703.87,244.42,705.75,244.96S713.28,247.14,715.16,247.68S722.69,249.85,724.57,250.40S732.10,252.57,733.98,253.11S741.51,255.28,743.39,255.82S750.92,257.99,752.80,258.53S760.33,260.70,762.21,261.24S769.74,263.41,771.62,263.95S779.15,266.11,781.03,266.65S788.56,268.81,790.44,269.36S797.97,271.52,799.85,272.06S807.38,274.21,809.26,274.75S816.79,276.91,818.67,277.45S826.20,279.61,828.08,280.15S835.61,282.30,837.49,282.84S845.02,284.99,846.90,285.53S854.43,287.69,856.31,288.22S863.84,290.37,865.72,290.91S873.25,293.06,875.13,293.60S882.66,295.75,884.54,296.29S892.07,298.43,893.95,298.97S901.48,301.12,903.36,301.65S910.89,303.30,912.77,304.34S920.30,311.23,922.18,312S929.71,312,931.59,312S940.06,312,941,312" style="fill: none; stroke: #ff0000; stroke-width: 2;"></path>
      </g>
      <g>
       <path d="M0,13.46C0.94,13.71,7.53,15.49,9.41,16.00S16.94,18.04,18.82,18.55S26.35,20.59,28.23,21.10S35.76,23.14,37.64,23.65S45.17,25.69,47.05,26.20S54.58,28.24,56.46,28.75S63.99,30.79,65.87,31.30S73.40,33.34,75.28,33.85S82.81,35.89,84.69,36.40S92.22,38.44,94.10,38.95S101.63,40.99,103.51,41.50S111.04,43.54,112.92,44.05S120.45,46.09,122.33,46.60S129.86,48.64,131.74,49.15S139.27,51.19,141.15,51.70S148.68,53.74,150.56,54.25S158.09,56.29,159.97,56.80S167.50,58.84,169.38,59.35S176.91,61.39,178.79,61.90S186.32,63.94,188.20,64.45S195.73,66.49,197.61,67.00S205.14,69.04,207.02,69.55S214.55,71.59,216.43,72.10S223.96,74.14,225.84,74.65S233.37,76.69,235.25,77.20S242.78,79.24,244.66,79.75S252.19,81.79,254.07,82.30S261.60,84.34,263.48,84.85S271.01,86.89,272.89,87.40S280.42,89.44,282.30,89.95S289.83,91.99,291.71,92.50S299.24,94.54,301.12,95.05S308.65,97.09,310.53,97.60S318.06,99.63,319.94,100.14S327.47,102.18,329.35,102.69S336.88,104.73,338.76,105.24S346.29,107.28,348.17,107.79S355.70,109.83,357.58,110.34S365.11,112.38,366.99,112.89S374.52,114.93,376.40,115.44S383.93,117.48,385.81,117.99S393.34,120.03,395.22,120.54S402.75,122.58,404.63,123.09S412.16,125.13,414.04,125.64S421.57,127.68,423.45,128.19S430.98,130.23,432.86,130.74S440.39,132.78,442.27,133.29S449.80,135.33,451.68,135.84S459.21,137.88,461.09,138.39S468.62,140.43,470.50,140.94S478.03,142.98,479.91,143.49S487.44,145.53,489.32,146.04S496.85,148.08,498.73,148.59S506.26,150.63,508.14,151.14S515.67,153.18,517.55,153.69S525.08,155.73,526.96,156.24S534.49,158.28,536.37,158.79S543.90,160.83,545.78,161.34S553.31,163.38,555.19,163.89S562.72,165.93,564.60,166.44S572.13,168.48,574.01,168.99S581.54,171.03,583.42,171.54S590.95,173.58,592.83,174.09S600.36,176.13,602.24,176.64S609.77,178.68,611.65,179.19S619.18,181.23,621.06,181.74S628.59,183.78,630.47,184.28S638.00,186.32,639.88,186.83S647.41,188.87,649.29,189.38S656.82,191.42,658.70,191.93S666.23,193.97,668.11,194.48S675.64,196.52,677.52,197.03S685.05,199.07,686.93,199.58S694.46,201.62,696.34,202.13S703.87,204.17,705.75,204.68S713.28,206.72,715.16,207.23S722.69,209.27,724.57,209.78S732.10,211.82,733.98,212.33S741.51,214.37,743.39,214.88S750.92,216.92,752.80,217.43S760.33,219.47,762.21,219.98S769.74,222.02,771.62,222.53S779.15,224.57,781.03,225.08S788.56,227.12,790.44,227.63S797.97,229.67,799.85,230.18S807.38,232.22,809.26,232.73S816.79,234.77,818.67,235.28S826.20,237.32,828.08,237.83S835.61,239.87,837.49,240.38S845.02,242.42,846.90,242.93S854.43,244.97,856.31,245.48S863.84,247.52,865.72,248.03S873.25,250.07,875.13,250.58S882.66,252.62,884.54,253.13S892.07,255.17,893.95,255.68S901.48,257.72,903.36,258.23S910.89,260.27,912.77,260.78S920.30,262.82,922.18,263.33S929.71,265.37,931.59,265.88S940.06,268.17,941,268.42" style="fill: none; stroke: #00ff00; stroke-width: 2;"></path>
      </g>
      <g>
       <path d="M0,312C0.12,288.25,7.53,99.95,9.41,74.71S16.94,61.88,18.82,59.59S26.35,53.06,28.23,51.80S35.76,47.81,37.64,47.02S45.17,44.40,47.05,43.88S54.58,42.13,56.46,41.78S63.99,40.62,65.87,40.40S73.40,39.67,75.28,39.54S82.81,39.15,84.69,39.09S92.22,38.95,94.10,38.95S101.63,39.03,103.51,39.07S111.04,39.32,112.92,39.40S120.45,39.79,122.33,39.91S129.86,40.43,131.74,40.57S139.27,41.19,141.15,41.36S148.68,42.08,150.56,42.27S158.09,43.06,159.97,43.27S167.50,44.14,169.38,44.36S176.91,45.29,178.79,45.53S186.32,46.52,188.20,46.78S195.73,47.81,197.61,48.08S205.14,49.17,207.02,49.45S214.55,50.57,216.43,50.86S223.96,52.03,225.84,52.33S233.37,53.53,235.25,53.84S242.78,55.07,244.66,55.38S252.19,56.65,254.07,56.97S261.60,58.27,263.48,58.59S271.01,59.92,272.89,60.25S280.42,61.59,282.30,61.93S289.83,63.30,291.71,63.65S299.24,65.04,301.12,65.39S308.65,66.80,310.53,67.15S318.06,68.58,319.94,68.94S327.47,70.39,329.35,70.75S336.88,72.22,338.76,72.58S346.29,74.06,348.17,74.44S355.70,75.93,357.58,76.31S365.11,77.81,366.99,78.19S374.52,79.71,376.40,80.10S383.93,81.63,385.81,82.02S393.34,83.56,395.22,83.95S402.75,85.51,404.63,85.90S412.16,87.47,414.04,87.87S421.57,89.45,423.45,89.84S430.98,91.43,432.86,91.83S440.39,93.43,442.27,93.83S449.80,95.44,451.68,95.85S459.21,97.46,461.09,97.87S468.62,99.50,470.50,99.90S478.03,101.54,479.91,101.95S487.44,103.59,489.32,104.00S496.85,105.65,498.73,106.07S506.26,107.73,508.14,108.14S515.67,109.81,517.55,110.22S525.08,111.89,526.96,112.31S534.49,113.99,536.37,114.41S543.90,116.10,545.78,116.52S553.31,118.21,555.19,118.63S562.72,120.33,564.60,120.75S572.13,122.45,574.01,122.88S581.54,124.59,583.42,125.02S590.95,126.73,592.83,127.16S600.36,128.88,602.24,129.31S609.77,131.03,611.65,131.46S619.18,133.19,621.06,133.62S628.59,135.35,630.47,135.79S638.00,137.52,639.88,137.96S647.41,139.70,649.29,140.14S656.82,141.88,658.70,142.32S666.23,144.07,668.11,144.51S675.64,146.26,677.52,146.70S685.05,148.46,686.93,148.90S694.46,150.66,696.34,151.10S703.87,152.87,705.75,153.31S713.28,155.08,715.16,155.52S722.69,157.29,724.57,157.74S732.10,159.51,733.98,159.96S741.51,161.74,743.39,162.18S750.92,163.97,752.80,164.41S760.33,166.20,762.21,166.64S769.74,168.43,771.62,168.88S779.15,170.67,781.03,171.12S788.56,172.92,790.44,173.37S797.97,175.16,799.85,175.61S807.38,177.42,809.26,177.87S816.79,179.67,818.67,180.12S826.20,181.93,828.08,182.38S835.61,184.19,837.49,184.64S845.02,186.45,846.90,186.91S854.43,188.72,856.31,189.17S863.84,190.99,865.72,191.44S873.25,193.26,875.13,193.72S882.66,195.54,884.54,196.00S892.07,197.82,893.95,198.28S901.48,200.10,903.36,200.56S910.89,202.39,912.77,202.84S920.30,204.67,922.18,205.13S929.71,206.96,931.59,207.42S940.06,209.49,941,209.72" style="fill: none; stroke: #0000ff; stroke-width: 2;"></path>
      </g>
      <g>
       <path d="M0,312C0.34,312.88,7.53,316.83,9.41,312S16.94,272.44,18.82,263.73S26.35,231.49,28.23,224.93S35.76,202.84,37.64,198.14S45.17,181.55,47.05,177.93S54.58,164.80,56.46,161.88S63.99,151.13,65.87,148.71S73.40,139.69,75.28,137.64S82.81,129.94,84.69,128.18S92.22,121.52,94.10,119.98S101.63,114.16,103.51,112.81S111.04,107.68,112.92,106.49S120.45,101.94,122.33,100.87S129.86,96.82,131.74,95.87S139.27,92.23,141.15,91.38S148.68,88.11,150.56,87.35S158.09,84.40,159.97,83.71S167.50,81.06,169.38,80.43S176.91,78.03,178.79,77.47S186.32,75.30,188.20,74.79S195.73,72.82,197.61,72.36S205.14,70.58,207.02,70.17S214.55,68.56,216.43,68.18S223.96,66.73,225.84,66.39S233.37,65.08,235.25,64.78S242.78,63.60,244.66,63.33S252.19,62.27,254.07,62.03S261.60,61.09,263.48,60.87S271.01,60.03,272.89,59.84S280.42,59.10,282.30,58.93S289.83,58.29,291.71,58.14S299.24,57.58,301.12,57.45S308.65,56.97,310.53,56.86S318.06,56.46,319.94,56.37S327.47,56.03,329.35,55.96S336.88,55.69,338.76,55.64S346.29,55.43,348.17,55.39S355.70,55.25,357.58,55.22S365.11,55.13,366.99,55.12S374.52,55.09,376.40,55.09S383.93,55.11,385.81,55.12S393.34,55.19,395.22,55.21S402.75,55.33,404.63,55.36S412.16,55.52,414.04,55.57S421.57,55.77,423.45,55.82S430.98,56.07,432.86,56.13S440.39,56.41,442.27,56.49S449.80,56.81,451.68,56.89S459.21,57.24,461.09,57.34S468.62,57.73,470.50,57.83S478.03,58.25,479.91,58.36S487.44,58.81,489.32,58.93S496.85,59.41,498.73,59.53S506.26,60.05,508.14,60.18S515.67,60.72,517.55,60.86S525.08,61.42,526.96,61.57S534.49,62.16,536.37,62.31S543.90,62.93,545.78,63.09S553.31,63.73,555.19,63.89S562.72,64.56,564.60,64.73S572.13,65.42,574.01,65.59S581.54,66.30,583.42,66.49S590.95,67.22,592.83,67.40S600.36,68.16,602.24,68.35S609.77,69.12,611.65,69.32S619.18,70.11,621.06,70.31S628.59,71.12,630.47,71.32S638.00,72.15,639.88,72.36S647.41,73.21,649.29,73.42S656.82,74.29,658.70,74.51S666.23,75.39,668.11,75.61S675.64,76.51,677.52,76.73S685.05,77.64,686.93,77.87S694.46,78.80,696.34,79.04S703.87,79.98,705.75,80.22S713.28,81.17,715.16,81.42S722.69,82.39,724.57,82.63S732.10,83.62,733.98,83.87S741.51,84.87,743.39,85.12S750.92,86.13,752.80,86.38S760.33,87.41,762.21,87.67S769.74,88.70,771.62,88.96S779.15,90.01,781.03,90.28S788.56,91.34,790.44,91.61S797.97,92.68,799.85,92.95S807.38,94.03,809.26,94.31S816.79,95.40,818.67,95.68S826.20,96.78,828.08,97.06S835.61,98.18,837.49,98.46S845.02,99.59,846.90,99.87S854.43,101.01,856.31,101.29S863.84,102.44,865.72,102.73S873.25,103.88,875.13,104.17S882.66,105.34,884.54,105.63S892.07,106.81,893.95,107.10S901.48,108.29,903.36,108.58S910.89,109.78,912.77,110.08S920.30,111.28,922.18,111.58S929.71,112.79,931.59,113.10S940.06,114.47,941,114.62" style="fill: none; stroke: #ff00ff; stroke-width: 2;"></path>
      </g>
     </svg>
     <g>
      <g transform="translate(0,307)">
       <path d="M0,0h941M0,-12V0M19,-6V0M38,-6V0M56,-6V0M75,-6V0M94,-12V0M113,-6V0M132,-6V0M151,-6V0M169,-6V0M188,-12V0M207,-6V0M226,-6V0M245,-6V0M263,-6V0M282,-12V0M301,-6V0M320,-6V0M339,-6V0M358,-6V0M376,-12V0M395,-6V0M414,-6V0M433,-6V0M452,-6V0M471,-12V0M489,-6V0M508,-6V0M527,-6V0M546,-6V0M565,-12V0M583,-6V0M602,-6V0M621,-6V0M640,-6V0M659,-12V0M678,-6V0M696,-6V0M715,-6V0M734,-6V0M753,-12V0M772,-6V0M790,-6V0M809,-6V0M828,-6V0M847,-12V0M866,-6V0M885,-6V0M903,-6V0M922,-6V0M941,-12V0" style="stroke: black; stroke-width: 1;"></path>
       <g font-family="Arial" font-size="13" space="preserve" fill="black" text-anchor="middle">
        <text dy=".8em" transform="translate(0,4)">
         0
        </text>
        <text dy=".8em" transform="translate(94,4)">
         1
        </text>
        <text dy=".8em" transform="translate(188,4)">
         2
        </text>
        <text dy=".8em" transform="translate(282,4)">
         3
        </text>
        <text dy=".8em" transform="translate(376,4)">
         4
        </text>
        <text dy=".8em" transform="translate(471,4)">
         5
        </text>
        <text dy=".8em" transform="translate(565,4)">
         6
        </text>
        <text dy=".8em" transform="translate(659,4)">
         7
        </text>
        <text dy=".8em" transform="translate(753,4)">
         8
        </text>
        <text dy=".8em" transform="translate(847,4)">
         9
        </text>
        <text dy=".8em" transform="translate(941,4)">
         10
        </text>
       </g>
      </g>
      <g>
       <path d="M0,0v307M35,307H0M18,289H0M18,279H0M18,272H0M18,266H0M18,261H0M18,257H0M18,254H0M18,251H0M35,248H0M18,231H0M18,220H0M18,213H0M18,207H0M18,203H0M18,199H0M18,195H0M18,192H0M35,190H0M18,172H0M18,162H0M18,154H0M18,149H0M18,144H0M18,140H0M18,137H0M18,134H0M35,131H0M18,113H0M18,103H0M18,96H0M18,90H0M18,85H0M18,81H0M18,78H0M18,75H0M35,72H0M18,54H0M18,44H0M18,37H0M18,31H0M18,26H0M18,23H0M18,19H0M18,16H0M35,13H0" style="stroke: black; stroke-width: 1;"></path>
       <g font-family="Arial" font-size="13" space="preserve">
        <g transform="translate(-23,312)">
         <text fill="black" font-size="13">
          10
         </text>
         <text fill="black" font-size="8" transform="translate(14,-6)">
          -5
         </text>
        </g>
        <g transform="translate(-23,253)">
         <text fill="black" font-size="13">
          10
         </text>
         <text fill="black" font-size="8" transform="translate(14,-6)">
          -4
         </text>
        </g>
        <g transform="translate(-23,195)">
         <text fill="black" font-size="13">
          10
         </text>
         <text fill="black" font-size="8" transform="translate(14,-6)">
          -3
         </text>
        </g>
        <g transform="translate(-23,136)">
         <text fill="black" font-size="13">
          10
         </text>
         <text fill="black" font-size="8" transform="translate(14,-6)">
          -2
         </text>
        </g>
        <g transform="translate(-23,77)">
         <text fill="black" font-size="13">
          10
         </text>
         <text fill="black" font-size="8" transform="translate(14,-6)">
          -1
         </text>
        </g>
        <g transform="translate(-20,18)">
         <text fill="black" font-size="13">
          10
         </text>
         <text fill="black" font-size="8" transform="translate(14,-6)">
          0
         </text>
        </g>
       </g>
      </g>
     </g>
    </g>
    <g transform="translate(118,2)" font-family="Arial" font-size="19" space="preserve">
     <text fill="black" text-anchor="middle" dy=".8em" transform="translate(471)">
      TMath::GammaDist(x, [0], [1], [2])
     </text>
    </g>
    <g transform="translate(235,230)" font-family="Arial" font-size="14" space="preserve">
     <path d="M0,0H353V96H0Z" style="fill: white; stroke: black; stroke-width: 1;"></path>
     <path d="M11,14H77" style="stroke: #ff0000; stroke-width: 2;"></path>
     <text fill="black" text-anchor="start" dy=".4em" transform="translate(88,14)">
      gamma = 0.5 mu = 0  beta = 1
     </text>
     <path d="M11,37H77" style="stroke: #00ff00; stroke-width: 2;"></path>
     <text fill="black" text-anchor="start" dy=".4em" transform="translate(88,37)">
      gamma = 1   mu = 0  beta = 1
     </text>
     <path d="M11,59H77" style="stroke: #0000ff; stroke-width: 2;"></path>
     <text fill="black" text-anchor="start" dy=".4em" transform="translate(88,59)">
      gamma = 2   mu = 0  beta = 1
     </text>
     <path d="M11,82H77" style="stroke: #ff00ff; stroke-width: 2;"></path>
     <text fill="black" text-anchor="start" dy=".4em" transform="translate(88,82)">
      gamma = 5   mu = 0  beta = 1
     </text>
    </g>
   </g>
  </svg>
  <svg viewBox="0 0 1176 384" preserveAspectRatio="none" x="12" y="408" width="1176" height="384">
   <path d="M0,0H1176V384H0Z" style="fill: white;"></path>
   <g>
    <g transform="translate(118,38)">
     <path d="M0,0H941V307H0Z" style="fill: white; stroke: black; stroke-width: 1;"></path>
     <g>
      <path d="M0,0v307M94,0v307M188,0v307M282,0v307M376,0v307M471,0v307M565,0v307M659,0v307M753,0v307M847,0v307M941,0v307" style="stroke: black; stroke-width: 1; stroke-dasharray: 1,2;"></path>
      <path d="M0,305h941M0,294h941M0,286h941M0,279h941M0,273h941M0,268h941M0,263h941M0,259h941M0,233h941M0,218h941M0,207h941M0,198h941M0,192h941M0,186h941M0,181h941M0,176h941M0,172h941M0,146h941M0,131h941M0,120h941M0,111h941M0,104h941M0,99h941M0,94h941M0,89h941M0,85h941M0,59h941M0,44h941M0,33h941M0,24h941M0,17h941M0,11h941M0,6h941M0,2h941" style="stroke: black; stroke-width: 1; stroke-dasharray: 1,2;"></path>
     </g>
     <svg x="0" y="0" overflow="hidden" width="941" height="307" viewBox="0 0 941 307">
      <g>
       <path d="M0,312C0.94,312,7.53,312,9.41,312S16.94,322.49,18.82,312S26.35,224.18,28.23,207.15S35.76,152.44,37.64,141.68S45.17,106.62,47.05,99.52S54.58,75.61,56.46,70.68S63.99,53.74,65.87,50.21S73.40,37.96,75.28,35.40S82.81,26.44,84.69,24.56S92.22,18.02,94.10,16.66S101.63,11.92,103.51,10.95S111.04,7.61,112.92,6.94S120.45,4.69,122.33,4.27S129.86,2.89,131.74,2.65S139.27,1.98,141.15,1.90S148.68,1.80,150.56,1.85S158.09,2.22,159.97,2.37S167.50,3.13,169.38,3.38S176.91,4.47,178.79,4.78S186.32,6.15,188.20,6.52S195.73,8.12,197.61,8.55S205.14,10.34,207.02,10.82S214.55,12.78,216.43,13.29S223.96,15.39,225.84,15.94S233.37,18.16,235.25,18.74S242.78,21.07,244.66,21.66S252.19,24.08,254.07,24.70S261.60,27.19,263.48,27.83S271.01,30.39,272.89,31.04S280.42,33.65,282.30,34.31S289.83,36.98,291.71,37.65S299.24,40.35,301.12,41.03S308.65,43.77,310.53,44.46S318.06,47.22,319.94,47.92S327.47,50.71,329.35,51.41S336.88,54.22,338.76,54.92S346.29,57.74,348.17,58.45S355.70,61.29,357.58,62.00S365.11,64.84,366.99,65.56S374.52,68.41,376.40,69.12S383.93,71.98,385.81,72.69S393.34,75.55,395.22,76.27S402.75,79.13,404.63,79.84S412.16,82.70,414.04,83.42S421.57,86.28,423.45,86.99S430.98,89.84,432.86,90.56S440.39,93.41,442.27,94.12S449.80,96.96,451.68,97.67S459.21,100.51,461.09,101.22S468.62,104.05,470.50,104.75S478.03,107.57,479.91,108.28S487.44,111.09,489.32,111.79S496.85,114.60,498.73,115.30S506.26,118.09,508.14,118.79S515.67,121.57,517.55,122.27S525.08,125.04,526.96,125.73S534.49,128.50,536.37,129.19S543.90,131.94,545.78,132.62S553.31,135.37,555.19,136.05S562.72,138.78,564.60,139.46S572.13,142.18,574.01,142.85S581.54,145.56,583.42,146.23S590.95,148.93,592.83,149.60S600.36,152.28,602.24,152.95S609.77,155.62,611.65,156.29S619.18,158.94,621.06,159.60S628.59,162.25,630.47,162.91S638.00,165.54,639.88,166.20S647.41,168.82,649.29,169.47S656.82,172.08,658.70,172.73S666.23,175.32,668.11,175.97S675.64,178.55,677.52,179.20S685.05,181.77,686.93,182.41S694.46,184.97,696.34,185.60S703.87,188.15,705.75,188.78S713.28,191.32,715.16,191.95S722.69,194.47,724.57,195.10S732.10,197.61,733.98,198.23S741.51,200.73,743.39,201.35S750.92,203.84,752.80,204.46S760.33,206.93,762.21,207.55S769.74,210.01,771.62,210.62S779.15,213.07,781.03,213.68S788.56,216.12,790.44,216.72S797.97,219.15,799.85,219.75S807.38,222.17,809.26,222.77S816.79,225.17,818.67,225.77S826.20,228.16,828.08,228.75S835.61,231.13,837.49,231.73S845.02,234.09,846.90,234.68S854.43,237.04,856.31,237.63S863.84,239.97,865.72,240.56S873.25,242.89,875.13,243.47S882.66,245.79,884.54,246.37S892.07,248.68,893.95,249.26S901.48,251.56,903.36,252.14S910.89,254.43,912.77,255.00S920.30,257.28,922.18,257.84S929.71,260.11,931.59,260.68S940.06,263.22,941,263.50" style="fill: none; stroke: #ff0000; stroke-width: 2;"></path>
      </g>
      <g>
       <path d="M0,312C0.31,289.70,7.53,115.81,9.41,89.20S16.94,51.95,18.82,45.94S26.35,31.57,28.23,29.06S35.76,22.10,37.64,20.86S45.17,17.28,47.05,16.66S54.58,14.90,56.46,14.62S63.99,13.95,65.87,13.88S73.40,13.89,75.28,13.97S82.81,14.44,84.69,14.60S92.22,15.39,94.10,15.61S101.63,16.62,103.51,16.89S111.04,18.05,112.92,18.36S120.45,19.63,122.33,19.96S129.86,21.32,131.74,21.66S139.27,23.08,141.15,23.43S148.68,24.89,150.56,25.25S158.09,26.73,159.97,27.10S167.50,28.60,169.38,28.98S176.91,30.49,178.79,30.86S186.32,32.38,188.20,32.76S195.73,34.27,197.61,34.65S205.14,36.16,207.02,36.53S214.55,38.04,216.43,38.42S223.96,39.91,225.84,40.29S233.37,41.77,235.25,42.14S242.78,43.62,244.66,43.99S252.19,45.45,254.07,45.82S261.60,47.27,263.48,47.63S271.01,49.07,272.89,49.43S280.42,50.86,282.30,51.21S289.83,52.63,291.71,52.98S299.24,54.38,301.12,54.72S308.65,56.11,310.53,56.45S318.06,57.83,319.94,58.17S327.47,59.52,329.35,59.86S336.88,61.21,338.76,61.54S346.29,62.87,348.17,63.20S355.70,64.52,357.58,64.84S365.11,66.15,366.99,66.47S374.52,67.76,376.40,68.08S383.93,69.36,385.81,69.67S393.34,70.94,395.22,71.25S402.75,72.50,404.63,72.81S412.16,74.05,414.04,74.36S421.57,75.59,423.45,75.89S430.98,77.10,432.86,77.41S440.39,78.61,442.27,78.91S449.80,80.10,451.68,80.39S459.21,81.57,461.09,81.86S468.62,83.03,470.50,83.32S478.03,84.48,479.91,84.77S487.44,85.91,489.32,86.20S496.85,87.33,498.73,87.61S506.26,88.74,508.14,89.02S515.67,90.13,517.55,90.41S525.08,91.51,526.96,91.78S534.49,92.88,536.37,93.15S543.90,94.23,545.78,94.50S553.31,95.58,555.19,95.84S562.72,96.91,564.60,97.17S572.13,98.23,574.01,98.49S581.54,99.54,583.42,99.80S590.95,100.84,592.83,101.09S600.36,102.12,602.24,102.38S609.77,103.40,611.65,103.65S619.18,104.66,621.06,104.92S628.59,105.92,630.47,106.17S638.00,107.16,639.88,107.41S647.41,108.40,649.29,108.64S656.82,109.62,658.70,109.87S666.23,110.84,668.11,111.08S675.64,112.04,677.52,112.28S685.05,113.24,686.93,113.48S694.46,114.43,696.34,114.66S703.87,115.60,705.75,115.84S713.28,116.77,715.16,117.01S722.69,117.93,724.57,118.16S732.10,119.09,733.98,119.31S741.51,120.23,743.39,120.46S750.92,121.36,752.80,121.59S760.33,122.49,762.21,122.71S769.74,123.61,771.62,123.83S779.15,124.72,781.03,124.94S788.56,125.82,790.44,126.04S797.97,126.92,799.85,127.13S807.38,128.00,809.26,128.22S816.79,129.08,818.67,129.30S826.20,130.16,828.08,130.37S835.61,131.22,837.49,131.43S845.02,132.28,846.90,132.49S854.43,133.33,856.31,133.54S863.84,134.37,865.72,134.58S873.25,135.41,875.13,135.62S882.66,136.44,884.54,136.65S892.07,137.46,893.95,137.67S901.48,138.48,903.36,138.68S910.89,139.49,912.77,139.69S920.30,140.50,922.18,140.70S929.71,141.49,931.59,141.69S940.06,142.59,941,142.68" style="fill: none; stroke: #00ff00; stroke-width: 2;"></path>
      </g>
      <g>
       <path d="M0,312C-0.05,279.59,7.53,19.57,9.41,-11.93S16.94,-4.69,18.82,-3.07S26.35,2.88,28.23,4.22S35.76,9.19,37.64,10.33S45.17,14.62,47.05,15.61S54.58,19.39,56.46,20.28S63.99,23.67,65.87,24.47S73.40,27.55,75.28,28.28S82.81,31.11,84.69,31.78S92.22,34.40,94.10,35.03S101.63,37.47,103.51,38.05S111.04,40.34,112.92,40.89S120.45,43.04,122.33,43.56S129.86,45.60,131.74,46.09S139.27,48.02,141.15,48.49S148.68,50.33,150.56,50.78S158.09,52.54,159.97,52.96S167.50,54.64,169.38,55.05S176.91,56.67,178.79,57.06S186.32,58.61,188.20,58.99S195.73,60.48,197.61,60.85S205.14,62.29,207.02,62.64S214.55,64.03,216.43,64.37S223.96,65.72,225.84,66.05S233.37,67.35,235.25,67.67S242.78,68.93,244.66,69.24S252.19,70.47,254.07,70.77S261.60,71.97,263.48,72.26S271.01,73.42,272.89,73.70S280.42,74.83,282.30,75.11S289.83,76.21,291.71,76.48S299.24,77.56,301.12,77.82S308.65,78.87,310.53,79.13S318.06,80.15,319.94,80.40S327.47,81.40,329.35,81.65S336.88,82.63,338.76,82.87S346.29,83.83,348.17,84.06S355.70,85.00,357.58,85.23S365.11,86.15,366.99,86.37S374.52,87.27,376.40,87.50S383.93,88.38,385.81,88.59S393.34,89.46,395.22,89.67S402.75,90.52,404.63,90.73S412.16,91.56,414.04,91.77S421.57,92.59,423.45,92.79S430.98,93.59,432.86,93.79S440.39,94.58,442.27,94.78S449.80,95.56,451.68,95.75S459.21,96.51,461.09,96.70S468.62,97.45,470.50,97.64S478.03,98.38,479.91,98.56S487.44,99.29,489.32,99.47S496.85,100.19,498.73,100.37S506.26,101.07,508.14,101.25S515.67,101.94,517.55,102.12S525.08,102.80,526.96,102.97S534.49,103.65,536.37,103.82S543.90,104.48,545.78,104.65S553.31,105.30,555.19,105.47S562.72,106.12,564.60,106.28S572.13,106.92,574.01,107.08S581.54,107.71,583.42,107.86S590.95,108.49,592.83,108.64S600.36,109.26,602.24,109.41S609.77,110.02,611.65,110.17S619.18,110.77,621.06,110.92S628.59,111.51,630.47,111.66S638.00,112.24,639.88,112.39S647.41,112.97,649.29,113.11S656.82,113.68,658.70,113.83S666.23,114.39,668.11,114.53S675.64,115.09,677.52,115.23S685.05,115.78,686.93,115.92S694.46,116.47,696.34,116.60S703.87,117.14,705.75,117.28S713.28,117.81,715.16,117.95S722.69,118.47,724.57,118.61S732.10,119.13,733.98,119.26S741.51,119.78,743.39,119.91S750.92,120.42,752.80,120.55S760.33,121.05,762.21,121.18S769.74,121.68,771.62,121.81S779.15,122.31,781.03,122.43S788.56,122.92,790.44,123.04S797.97,123.53,799.85,123.65S807.38,124.14,809.26,124.26S816.79,124.74,818.67,124.86S826.20,125.33,828.08,125.45S835.61,125.92,837.49,126.03S845.02,126.50,846.90,126.62S854.43,127.08,856.31,127.19S863.84,127.65,865.72,127.76S873.25,128.22,875.13,128.33S882.66,128.78,884.54,128.89S892.07,129.33,893.95,129.44S901.48,129.89,903.36,130.00S910.89,130.43,912.77,130.54S920.30,130.98,922.18,131.08S929.71,131.51,931.59,131.62S940.06,132.10,941,132.15" style="fill: none; stroke: #0000ff; stroke-width: 2;"></path>
      </g>
      <g>
       <path d="M0,312C-0.14,279.49,7.53,17.23,9.41,-12.92S16.94,6.78,18.82,10.54S26.35,22.17,28.23,24.59S35.76,32.91,37.64,34.72S45.17,41.21,47.05,42.66S54.58,47.99,56.46,49.20S63.99,53.73,65.87,54.77S73.40,58.71,75.28,59.62S82.81,63.11,84.69,63.93S92.22,67.06,94.10,67.80S101.63,70.64,103.51,71.31S111.04,73.91,112.92,74.53S120.45,76.93,122.33,77.50S129.86,79.73,131.74,80.26S139.27,82.34,141.15,82.84S148.68,84.79,150.56,85.26S158.09,87.09,159.97,87.54S167.50,89.27,169.38,89.69S176.91,91.33,178.79,91.73S186.32,93.29,188.20,93.67S195.73,95.15,197.61,95.52S205.14,96.94,207.02,97.28S214.55,98.64,216.43,98.97S223.96,100.27,225.84,100.59S233.37,101.84,235.25,102.15S242.78,103.35,244.66,103.65S252.19,104.81,254.07,105.09S261.60,106.21,263.48,106.49S271.01,107.57,272.89,107.83S280.42,108.88,282.30,109.14S289.83,110.15,291.71,110.40S299.24,111.38,301.12,111.62S308.65,112.58,310.53,112.81S318.06,113.74,319.94,113.96S327.47,114.86,329.35,115.08S336.88,115.96,338.76,116.17S346.29,117.03,348.17,117.24S355.70,118.07,357.58,118.27S365.11,119.08,366.99,119.28S374.52,120.07,376.40,120.26S383.93,121.04,385.81,121.23S393.34,121.98,395.22,122.16S402.75,122.90,404.63,123.08S412.16,123.80,414.04,123.98S421.57,124.68,423.45,124.86S430.98,125.55,432.86,125.72S440.39,126.39,442.27,126.56S449.80,127.22,451.68,127.38S459.21,128.03,461.09,128.19S468.62,128.82,470.50,128.98S478.03,129.60,479.91,129.76S487.44,130.37,489.32,130.52S496.85,131.12,498.73,131.27S506.26,131.86,508.14,132.01S515.67,132.58,517.55,132.73S525.08,133.30,526.96,133.44S534.49,134.00,536.37,134.13S543.90,134.68,545.78,134.82S553.31,135.36,555.19,135.50S562.72,136.03,564.60,136.16S572.13,136.68,574.01,136.81S581.54,137.33,583.42,137.46S590.95,137.96,592.83,138.09S600.36,138.59,602.24,138.71S609.77,139.20,611.65,139.33S619.18,139.81,621.06,139.93S628.59,140.41,630.47,140.53S638.00,141.00,639.88,141.12S647.41,141.58,649.29,141.70S656.82,142.15,658.70,142.27S666.23,142.72,668.11,142.83S675.64,143.28,677.52,143.39S685.05,143.83,686.93,143.94S694.46,144.37,696.34,144.48S703.87,144.91,705.75,145.01S713.28,145.44,715.16,145.54S722.69,145.96,724.57,146.06S732.10,146.48,733.98,146.58S741.51,146.98,743.39,147.09S750.92,147.49,752.80,147.59S760.33,147.99,762.21,148.08S769.74,148.48,771.62,148.58S779.15,148.96,781.03,149.06S788.56,149.44,790.44,149.54S797.97,149.92,799.85,150.01S807.38,150.39,809.26,150.48S816.79,150.85,818.67,150.94S826.20,151.31,828.08,151.40S835.61,151.77,837.49,151.86S845.02,152.21,846.90,152.30S854.43,152.66,856.31,152.75S863.84,153.10,865.72,153.19S873.25,153.53,875.13,153.62S882.66,153.96,884.54,154.05S892.07,154.39,893.95,154.48S901.48,154.81,903.36,154.90S910.89,155.23,912.77,155.31S920.30,155.64,922.18,155.73S929.71,156.05,931.59,156.13S940.06,156.50,941,156.54" style="fill: none; stroke: #ff00ff; stroke-width: 2;"></path>
      </g>
     </svg>
     <g>
      <g transform="translate(0,307)">
       <path d="M0,0h941M0,-12V0M19,-6V0M38,-6V0M56,-6V0M75,-6V0M94,-12V0M113,-6V0M132,-6V0M151,-6V0M169,-6V0M188,-12V0M207,-6V0M226,-6V0M245,-6V0M263,-6V0M282,-12V0M301,-6V0M320,-6V0M339,-6V0M358,-6V0M376,-12V0M395,-6V0M414,-6V0M433,-6V0M452,-6V0M471,-12V0M489,-6V0M508,-6V0M527,-6V0M546,-6V0M565,-12V0M583,-6V0M602,-6V0M621,-6V0M640,-6V0M659,-12V0M678,-6V0M696,-6V0M715,-6V0M734,-6V0M753,-12V0M772,-6V0M790,-6V0M809,-6V0M828,-6V0M847,-12V0M866,-6V0M885,-6V0M903,-6V0M922,-6V0M941,-12V0" style="stroke: black; stroke-width: 1;"></path>
       <g font-family="Arial" font-size="13" space="preserve" fill="black" text-anchor="middle">
        <text dy=".8em" transform="translate(0,4)">
         0
        </text>
        <text dy=".8em" transform="translate(94,4)">
         0.5
        </text>
        <text dy=".8em" transform="translate(188,4)">
         1
        </text>
        <text dy=".8em" transform="translate(282,4)">
         1.5
        </text>
        <text dy=".8em" transform="translate(376,4)">
         2
        </text>
        <text dy=".8em" transform="translate(471,4)">
         2.5
        </text>
        <text dy=".8em" transform="translate(565,4)">
         3
        </text>
        <text dy=".8em" transform="translate(659,4)">
         3.5
        </text>
        <text dy=".8em" transform="translate(753,4)">
         4
        </text>
        <text dy=".8em" transform="translate(847,4)">
         4.5
        </text>
        <text dy=".8em" transform="translate(941,4)">
         5
        </text>
       </g>
      </g>
      <g>
       <path d="M0,0v307M18,305H0M18,294H0M18,286H0M18,279H0M18,273H0M18,268H0M18,263H0M35,259H0M18,233H0M18,218H0M18,207H0M18,198H0M18,192H0M18,186H0M18,181H0M18,176H0M35,172H0M18,146H0M18,131H0M18,120H0M18,111H0M18,104H0M18,99H0M18,94H0M18,89H0M35,85H0M18,59H0M18,44H0M18,33H0M18,24H0M18,17H0M18,11H0M18,6H0M18,2H0" style="stroke: black; stroke-width: 1;"></path>
       <g font-family="Arial" font-size="13" space="preserve">
        <g transform="translate(-23,264)">
         <text fill="black" font-size="13">
          10
         </text>
         <text fill="black" font-size="8" transform="translate(14,-6)">
          -3
         </text>
        </g>
        <g transform="translate(-23,177)">
         <text fill="black" font-size="13">
          10
         </text>
         <text fill="black" font-size="8" transform="translate(14,-6)">
          -2
         </text>
        </g>
        <g transform="translate(-23,90)">
         <text fill="black" font-size="13">
          10
         </text>
         <text fill="black" font-size="8" transform="translate(14,-6)">
          -1
         </text>
        </g>
       </g>
      </g>
     </g>
    </g>
    <g transform="translate(118,2)" font-family="Arial" font-size="19" space="preserve">
     <text fill="black" text-anchor="middle" dy=".8em" transform="translate(471)">
      TMath::LogNormal(x, [0], [1], [2])
     </text>
    </g>
    <g transform="translate(235,230)" font-family="Arial" font-size="14" space="preserve">
     <path d="M0,0H353V96H0Z" style="fill: white; stroke: black; stroke-width: 1;"></path>
     <path d="M11,14H77" style="stroke: #ff0000; stroke-width: 2;"></path>
     <text fill="black" text-anchor="start" dy=".4em" transform="translate(88,14)">
      sigma = 0.5 theta = 0  m = 1
     </text>
     <path d="M11,37H77" style="stroke: #00ff00; stroke-width: 2;"></path>
     <text fill="black" text-anchor="start" dy=".4em" transform="translate(88,37)">
      sigma = 1   theta = 0  m = 1
     </text>
     <path d="M11,59H77" style="stroke: #0000ff; stroke-width: 2;"></path>
     <text fill="black" text-anchor="start" dy=".4em" transform="translate(88,59)">
      sigma = 2   theta = 0  m = 1
     </text>
     <path d="M11,82H77" style="stroke: #ff00ff; stroke-width: 2;"></path>
     <text fill="black" text-anchor="start" dy=".4em" transform="translate(88,82)">
      sigma = 5   theta = 0  m = 1
     </text>
    </g>
   </g>
  </svg>
 </g>
</svg>