<svg viewBox="0 0 1200 800" preserveAspectRatio="none" xmlns="http://www.w3.org/2000/svg" width="1200" height="800"><title>ROOT canvas</title><rect x="0" y="0" width="1200" height="800" style="fill: white;"></rect><g><g transform="translate(120,80)"><title></title><rect x="0" y="0" width="960" height="640" style="fill: white; stroke: black; stroke-width: 1;"></rect><svg x="0" y="0" overflow="hidden" width="960" height="640" viewBox="0 0 960 640"><g objname="histo" objtype="TH1F"><path d="M1,131h19M10,94v73M20,159h19M29,124v70M38,166h20M48,132v69M59,146h19M68,110v71M78,197h19M87,163v68M97,195h19M106,161v67M116,264h19M125,233v62M134,276h20M144,246v61M155,282h19M164,251v61M174,289h19M183,259v60M193,248h19M202,217v63M212,279h19M221,249v60M230,276h20M240,246v61M251,294h19M260,265v59M270,276h19M279,246v61M289,248h19M298,217v63M308,264h19M317,233v62M326,154h20M336,118v71M347,251h19M356,219v63M366,317h19M375,289v57M385,325h19M394,297v57M404,374h19M413,348v52M422,381h20M432,356v51M443,443h19M452,420v45M462,476h19M471,456v41M481,422h19M490,399v47M500,461h19M509,439v43M518,435h20M528,412v46M539,468h19M548,448v41M558,474h19M567,453v41M577,479h19M586,458v41M596,443h19M605,420v45M614,515h20M624,497v35M635,466h19M644,445v42M654,494h19M663,475v38M673,476h19M682,456v41M692,509h19M701,491v37M710,540h20M720,524v32M731,525h19M740,508v34M750,525h19M759,508v34M769,507h19M778,488v37M788,550h19M797,535v31M806,499h20M816,480v38M827,517h19M836,499v36M846,545h19M855,530v31M865,527h19M874,510v34M884,532h19M893,516v33M902,532h20M912,516v33M923,532h19M932,516v33M942,512h19M951,494v36" style="stroke: rgb(0,0,153); stroke-width: 1;"></path><path d="M6,131a4,4,0,1,0,8,0a4,4,0,1,0,-8,0zM25,159a4,4,0,1,0,8,0a4,4,0,1,0,-8,0zM44,166a4,4,0,1,0,8,0a4,4,0,1,0,-8,0zM64,146a4,4,0,1,0,8,0a4,4,0,1,0,-8,0zM83,197a4,4,0,1,0,8,0a4,4,0,1,0,-8,0zM102,195a4,4,0,1,0,8,0a4,4,0,1,0,-8,0zM121,264a4,4,0,1,0,8,0a4,4,0,1,0,-8,0zM140,276a4,4,0,1,0,8,0a4,4,0,1,0,-8,0zM160,282a4,4,0,1,0,8,0a4,4,0,1,0,-8,0zM179,289a4,4,0,1,0,8,0a4,4,0,1,0,-8,0zM198,248a4,4,0,1,0,8,0a4,4,0,1,0,-8,0zM217,279a4,4,0,1,0,8,0a4,4,0,1,0,-8,0zM236,276a4,4,0,1,0,8,0a4,4,0,1,0,-8,0zM256,294a4,4,0,1,0,8,0a4,4,0,1,0,-8,0zM275,276a4,4,0,1,0,8,0a4,4,0,1,0,-8,0zM294,248a4,4,0,1,0,8,0a4,4,0,1,0,-8,0zM313,264a4,4,0,1,0,8,0a4,4,0,1,0,-8,0zM332,154a4,4,0,1,0,8,0a4,4,0,1,0,-8,0zM352,251a4,4,0,1,0,8,0a4,4,0,1,0,-8,0zM371,317a4,4,0,1,0,8,0a4,4,0,1,0,-8,0zM390,325a4,4,0,1,0,8,0a4,4,0,1,0,-8,0zM409,374a4,4,0,1,0,8,0a4,4,0,1,0,-8,0zM428,381a4,4,0,1,0,8,0a4,4,0,1,0,-8,0zM448,443a4,4,0,1,0,8,0a4,4,0,1,0,-8,0zM467,476a4,4,0,1,0,8,0a4,4,0,1,0,-8,0zM486,422a4,4,0,1,0,8,0a4,4,0,1,0,-8,0zM505,461a4,4,0,1,0,8,0a4,4,0,1,0,-8,0zM524,435a4,4,0,1,0,8,0a4,4,0,1,0,-8,0zM544,468a4,4,0,1,0,8,0a4,4,0,1,0,-8,0zM563,474a4,4,0,1,0,8,0a4,4,0,1,0,-8,0zM582,479a4,4,0,1,0,8,0a4,4,0,1,0,-8,0zM601,443a4,4,0,1,0,8,0a4,4,0,1,0,-8,0zM620,515a4,4,0,1,0,8,0a4,4,0,1,0,-8,0zM640,466a4,4,0,1,0,8,0a4,4,0,1,0,-8,0zM659,494a4,4,0,1,0,8,0a4,4,0,1,0,-8,0zM678,476a4,4,0,1,0,8,0a4,4,0,1,0,-8,0zM697,509a4,4,0,1,0,8,0a4,4,0,1,0,-8,0zM716,540a4,4,0,1,0,8,0a4,4,0,1,0,-8,0zM736,525a4,4,0,1,0,8,0a4,4,0,1,0,-8,0zM755,525a4,4,0,1,0,8,0a4,4,0,1,0,-8,0zM774,507a4,4,0,1,0,8,0a4,4,0,1,0,-8,0zM793,550a4,4,0,1,0,8,0a4,4,0,1,0,-8,0zM812,499a4,4,0,1,0,8,0a4,4,0,1,0,-8,0zM832,517a4,4,0,1,0,8,0a4,4,0,1,0,-8,0zM851,545a4,4,0,1,0,8,0a4,4,0,1,0,-8,0zM870,527a4,4,0,1,0,8,0a4,4,0,1,0,-8,0zM889,532a4,4,0,1,0,8,0a4,4,0,1,0,-8,0zM908,532a4,4,0,1,0,8,0a4,4,0,1,0,-8,0zM928,532a4,4,0,1,0,8,0a4,4,0,1,0,-8,0zM947,512a4,4,0,1,0,8,0a4,4,0,1,0,-8,0z" style="stroke: black; fill: black;"></path></g><g objname="gausppar" objtype="TF1"><path d="M0.00,126.39c0.89,0.79,7.80,6.93,9.60,8.52s7.78,6.85,9.60,8.43s7.77,6.76,9.60,8.34s7.75,6.67,9.60,8.25s7.73,6.58,9.60,8.16s7.72,6.49,9.60,8.07s7.70,6.41,9.60,7.98s7.68,6.32,9.60,7.89s7.66,6.23,9.60,7.79s7.64,6.14,9.60,7.70s7.63,6.06,9.60,7.61s7.61,5.97,9.60,7.52s7.59,5.88,9.60,7.43s7.57,5.80,9.60,7.34s7.55,5.71,9.60,7.24s7.53,5.61,9.60,7.14s7.50,5.51,9.60,7.03s7.47,5.38,9.60,6.89s7.42,5.21,9.60,6.70s7.34,4.96,9.60,6.42s7.22,4.59,9.60,5.99s7.05,4.04,9.60,5.33s6.80,3.28,9.60,4.33s6.52,2.28,9.60,2.89s6.40,1.04,9.60,0.93s6.70,-0.66,9.60,-1.58s7.32,-3.09,9.60,-4.54s7.92,-6.10,9.60,-7.70s8.31,-9.05,9.60,-10.62s8.49,-11.24,9.60,-12.77s8.48,-12.04,9.60,-13.56s8.22,-10.96,9.60,-12.54s7.52,-7.98,9.60,-9.50s6.47,-4.14,9.60,-4.59s7.04,0.38,9.60,1.66s8.30,6.86,9.60,8.43s8.85,13.41,9.60,14.77s9.07,18.66,9.60,19.85s9.15,21.98,9.60,23.09s9.16,23.21,9.60,24.31s9.11,22.53,9.60,23.68s9.01,20.40,9.60,21.64s8.84,17.41,9.60,18.77s8.59,14.13,9.60,15.62s8.27,11.05,9.60,12.63s7.91,8.47,9.60,10.07s7.57,6.50,9.60,8.04s7.31,5.11,9.60,6.55s7.12,4.18,9.60,5.52s7.00,3.58,9.60,4.83s6.92,3.20,9.60,4.38s6.87,2.96,9.60,4.09s6.84,2.79,9.60,3.89s6.81,2.68,9.60,3.75s6.79,2.59,9.60,3.63s6.77,2.51,9.60,3.53s6.75,2.43,9.60,3.44s6.74,2.36,9.60,3.34s6.72,2.29,9.60,3.25s6.70,2.22,9.60,3.16s6.69,2.15,9.60,3.07s6.67,2.08,9.60,2.98s6.66,2.02,9.60,2.89s6.64,1.95,9.60,2.80s6.63,1.88,9.60,2.70s6.61,1.81,9.60,2.61s6.60,1.75,9.60,2.52s6.59,1.68,9.60,2.43s6.57,1.62,9.60,2.34s6.56,1.55,9.60,2.25s6.55,1.49,9.60,2.16s6.54,1.42,9.60,2.07s6.52,1.36,9.60,1.98s6.51,1.29,9.60,1.89s6.50,1.23,9.60,1.80s6.49,1.17,9.60,1.71s6.48,1.10,9.60,1.61s6.47,1.04,9.60,1.52s6.47,0.98,9.60,1.43s6.46,0.92,9.60,1.34s6.45,0.86,9.60,1.25s6.44,0.79,9.60,1.16s6.44,0.73,9.60,1.07s6.43,0.67,9.60,0.98s6.42,0.61,9.60,0.89s6.42,0.55,9.60,0.80s6.42,0.49,9.60,0.71s6.41,0.43,9.60,0.61s6.41,0.36,9.60,0.52s6.41,0.30,9.60,0.43s6.40,0.24,9.60,0.34s6.40,0.18,9.60,0.25s6.40,0.12,9.60,0.16s6.40,0.06,9.60,0.07s6.40,-0.00,9.60,-0.02s6.40,-0.06,9.60,-0.11s6.40,-0.12,9.60,-0.20s6.40,-0.18,9.60,-0.29s6.41,-0.24,9.60,-0.39s8.00,-0.40,9.60,-0.48" style="fill: none; stroke: blue; stroke-width: 5;"></path></g><g objname="parabola" objtype="TF1"><path d="M0.00,126.39c0.89,0.79,7.80,6.93,9.60,8.52s7.78,6.85,9.60,8.43s7.77,6.76,9.60,8.34s7.75,6.67,9.60,8.25s7.73,6.58,9.60,8.16s7.72,6.49,9.60,8.07s7.70,6.41,9.60,7.98s7.68,6.32,9.60,7.89s7.66,6.23,9.60,7.79s7.64,6.14,9.60,7.70s7.63,6.06,9.60,7.61s7.61,5.97,9.60,7.52s7.59,5.88,9.60,7.43s7.57,5.80,9.60,7.34s7.55,5.71,9.60,7.25s7.53,5.63,9.60,7.16s7.52,5.54,9.60,7.07s7.50,5.46,9.60,6.98s7.48,5.37,9.60,6.89s7.46,5.29,9.60,6.80s7.44,5.21,9.60,6.70s7.42,5.12,9.60,6.61s7.40,5.04,9.60,6.52s7.38,4.96,9.60,6.43s7.36,4.87,9.60,6.34s7.34,4.79,9.60,6.25s7.32,4.71,9.60,6.16s7.30,4.63,9.60,6.07s7.28,4.55,9.60,5.98s7.26,4.47,9.60,5.89s7.24,4.38,9.60,5.80s7.23,4.30,9.60,5.70s7.21,4.22,9.60,5.61s7.19,4.15,9.60,5.52s7.17,4.07,9.60,5.43s7.15,3.99,9.60,5.34s7.13,3.91,9.60,5.25s7.11,3.83,9.60,5.16s7.09,3.75,9.60,5.07s7.07,3.68,9.60,4.98s7.05,3.60,9.60,4.89s7.03,3.52,9.60,4.80s7.01,3.45,9.60,4.70s6.99,3.37,9.60,4.61s6.97,3.30,9.60,4.52s6.95,3.22,9.60,4.43s6.93,3.15,9.60,4.34s6.92,3.07,9.60,4.25s6.90,3.00,9.60,4.16s6.88,2.93,9.60,4.07s6.86,2.86,9.60,3.98s6.84,2.78,9.60,3.89s6.82,2.71,9.60,3.80s6.81,2.64,9.60,3.70s6.79,2.57,9.60,3.61s6.77,2.50,9.60,3.52s6.75,2.43,9.60,3.43s6.74,2.36,9.60,3.34s6.72,2.29,9.60,3.25s6.70,2.22,9.60,3.16s6.69,2.15,9.60,3.07s6.67,2.08,9.60,2.98s6.66,2.02,9.60,2.89s6.64,1.95,9.60,2.80s6.63,1.88,9.60,2.70s6.61,1.81,9.60,2.61s6.60,1.75,9.60,2.52s6.59,1.68,9.60,2.43s6.57,1.62,9.60,2.34s6.56,1.55,9.60,2.25s6.55,1.49,9.60,2.16s6.54,1.42,9.60,2.07s6.52,1.36,9.60,1.98s6.51,1.29,9.60,1.89s6.50,1.23,9.60,1.80s6.49,1.17,9.60,1.71s6.48,1.10,9.60,1.61s6.47,1.04,9.60,1.52s6.47,0.98,9.60,1.43s6.46,0.92,9.60,1.34s6.45,0.86,9.60,1.25s6.44,0.79,9.60,1.16s6.44,0.73,9.60,1.07s6.43,0.67,9.60,0.98s6.42,0.61,9.60,0.89s6.42,0.55,9.60,0.80s6.42,0.49,9.60,0.71s6.41,0.43,9.60,0.61s6.41,0.36,9.60,0.52s6.41,0.30,9.60,0.43s6.40,0.24,9.60,0.34s6.40,0.18,9.60,0.25s6.40,0.12,9.60,0.16s6.40,0.06,9.60,0.07s6.40,-0.00,9.60,-0.02s6.40,-0.06,9.60,-0.11s6.40,-0.12,9.60,-0.20s6.40,-0.18,9.60,-0.29s6.41,-0.24,9.60,-0.39s8.00,-0.40,9.60,-0.48" style="fill: none; stroke: blue; stroke-width: 5; stroke-dasharray: 3,3;"></path></g><g objname="gaussian" objtype="TF1"><path d="M0.00,640.00c1.60,0.00,6.40,-0.00,9.60,-0.00s6.40,-0.00,9.60,-0.00s6.40,-0.00,9.60,-0.00s6.40,-0.00,9.60,-0.00s6.40,-0.00,9.60,-0.00s6.40,-0.00,9.60,-0.00s6.40,-0.00,9.60,-0.00s6.40,-0.00,9.60,-0.00s6.40,-0.00,9.60,-0.00s6.40,-0.00,9.60,-0.00s6.40,-0.00,9.60,-0.00s6.40,-0.00,9.60,-0.00s6.40,-0.00,9.60,-0.00s6.40,-0.00,9.60,-0.00s6.40,-0.00,9.60,-0.01s6.40,-0.01,9.60,-0.02s6.40,-0.02,9.60,-0.04s6.40,-0.04,9.60,-0.09s6.40,-0.10,9.60,-0.19s6.41,-0.20,9.60,-0.38s6.43,-0.39,9.60,-0.72s6.50,-0.72,9.60,-1.29s6.66,-1.31,9.60,-2.19s6.97,-2.31,9.60,-3.54s7.43,-3.92,9.60,-5.41s7.94,-6.24,9.60,-7.83s8.38,-9.15,9.60,-10.70s8.69,-12.32,9.60,-13.76s8.87,-15.25,9.60,-16.59s8.95,-17.36,9.60,-18.65s8.94,-18.06,9.60,-19.36s8.80,-16.86,9.60,-18.25s8.43,-13.57,9.60,-15.12s7.50,-8.59,9.60,-10.11s6.40,-3.66,9.60,-3.77s7.36,1.62,9.60,3.09s8.36,7.96,9.60,9.52s8.78,13.29,9.60,14.69s8.93,16.72,9.60,18.02s8.95,18.05,9.60,19.33s8.88,17.46,9.60,18.79s8.71,15.41,9.60,16.85s8.42,12.52,9.60,14.07s7.99,9.41,9.60,11.01s7.48,6.59,9.60,8.11s7.01,4.38,9.60,5.63s6.69,2.79,9.60,3.70s6.51,1.71,9.60,2.30s6.44,1.01,9.60,1.36s6.41,0.57,9.60,0.76s6.40,0.30,9.60,0.41s6.40,0.15,9.60,0.20s6.40,0.07,9.60,0.10s6.40,0.03,9.60,0.05s6.40,0.01,9.60,0.02s6.40,0.01,9.60,0.01s6.40,0.00,9.60,0.00s6.40,0.00,9.60,0.00s6.40,0.00,9.60,0.00s6.40,0.00,9.60,0.00s6.40,0.00,9.60,0.00s6.40,0.00,9.60,0.00s6.40,0.00,9.60,0.00s6.40,0.00,9.60,0.00s6.40,0.00,9.60,0.00s6.40,0.00,9.60,0.00s6.40,0.00,9.60,0.00s6.40,0.00,9.60,0.00s6.40,0.00,9.60,0.00s6.40,0.00,9.60,0.00s6.40,0.00,9.60,0.00s6.40,0.00,9.60,0.00s6.40,0.00,9.60,0.00s6.40,0.00,9.60,0.00s6.40,0.00,9.60,0.00s6.40,0.00,9.60,0.00s6.40,0.00,9.60,0.00s6.40,0.00,9.60,0.00s6.40,0.00,9.60,0.00s6.40,0.00,9.60,0.00s6.40,0.00,9.60,0.00s6.40,0.00,9.60,0.00s6.40,0.00,9.60,0.00s6.40,0.00,9.60,0.00s6.40,0.00,9.60,0.00s6.40,0.00,9.60,0.00s6.40,0.00,9.60,0.00s6.40,0.00,9.60,0.00s6.40,0.00,9.60,0.00s6.40,0.00,9.60,0.00s6.40,0.00,9.60,0.00s6.40,0.00,9.60,0.00s6.40,0.00,9.60,0.00s6.40,0.00,9.60,0.00s6.40,0.00,9.60,0.00s6.40,0.00,9.60,0.00s6.40,0.00,9.60,0.00s6.40,0.00,9.60,0.00s6.40,0.00,9.60,0.00s8.00,0.00,9.60,0.00" style="fill: none; stroke: red; stroke-width: 5; stroke-dasharray: 3,3;"></path></g></svg><g><g transform="translate(0,640)"><path d="M0,-24v24m24,-12v12m24,-12v12m24,-12v12m24,-24v24m24,-12v12m24,-12v12m24,-12v12m24,-24v24m24,-12v12m24,-12v12m24,-12v12m24,-24v24m24,-12v12m24,-12v12m24,-12v12m24,-24v24m24,-12v12m24,-12v12m24,-12v12m24,-24v24m24,-12v12m24,-12v12m24,-12v12m24,-24v24m24,-12v12m24,-12v12m24,-12v12m24,-24v24m24,-12v12m24,-12v12m24,-12v12m24,-24v24m24,-12v12m24,-12v12m24,-12v12m24,-24v24m24,-12v12m24,-12v12m24,-12v12m24,-24v24" style="stroke: black; stroke-width: 1;"></path><g font-family="Arial" font-size="28" space="preserve"><text text-anchor="middle" x="0" y="0" fill="black" transform="translate(0,6)" dy=".8em">0</text><text text-anchor="middle" x="0" y="0" fill="black" transform="translate(96,6)" dy=".8em">2</text><text text-anchor="middle" x="0" y="0" fill="black" transform="translate(192,6)" dy=".8em">4</text><text text-anchor="middle" x="0" y="0" fill="black" transform="translate(288,6)" dy=".8em">6</text><text text-anchor="middle" x="0" y="0" fill="black" transform="translate(384,6)" dy=".8em">8</text><text text-anchor="middle" x="0" y="0" fill="black" transform="translate(480,6)" dy=".8em">10</text><text text-anchor="middle" x="0" y="0" fill="black" transform="translate(576,6)" dy=".8em">12</text><text text-anchor="middle" x="0" y="0" fill="black" transform="translate(672,6)" dy=".8em">14</text><text text-anchor="middle" x="0" y="0" fill="black" transform="translate(768,6)" dy=".8em">16</text><text text-anchor="middle" x="0" y="0" fill="black" transform="translate(864,6)" dy=".8em">18</text><text text-anchor="middle" x="0" y="0" fill="black" transform="translate(960,6)" dy=".8em">20</text></g><g font-family="Arial" font-size="28" space="preserve" transform="translate(960,45)"><text text-anchor="end" x="0" y="0" fill="black" transform="translate(0,0)" dominant-baseline="middle">X vals</text></g></g><g><path d="M36,640h-36m18,-26h-18m18,-25h-18m18,-26h-18m18,-25h-18m36,-26h-36m18,-26h-18m18,-25h-18m18,-26h-18m18,-25h-18m36,-26h-36m18,-26h-18m18,-25h-18m18,-26h-18m18,-25h-18m36,-26h-36m18,-26h-18m18,-25h-18m18,-26h-18m18,-25h-18m36,-26h-36m18,-26h-18m18,-25h-18m18,-26h-18m18,-25h-18m36,-26h-36" style="stroke: black; stroke-width: 1;"></path><g font-family="Arial" font-size="28" space="preserve"><text text-anchor="end" x="0" y="0" fill="black" transform="translate(-4,640)" dominant-baseline="middle">0</text><text text-anchor="end" x="0" y="0" fill="black" transform="translate(-4,512)" dominant-baseline="middle">50</text><text text-anchor="end" x="0" y="0" fill="black" transform="translate(-4,384)" dominant-baseline="middle">100</text><text text-anchor="end" x="0" y="0" fill="black" transform="translate(-4,256)" dominant-baseline="middle">150</text><text text-anchor="end" x="0" y="0" fill="black" transform="translate(-4,128)" dominant-baseline="middle">200</text><text text-anchor="end" x="0" y="0" fill="black" transform="translate(-4,0)" dominant-baseline="middle">250</text></g><g font-family="Arial" font-size="28" space="preserve" transform="translate(-67,0)"><text text-anchor="end" x="0" y="0" fill="black" transform="translate(0,0) rotate(270,0,0)" dominant-baseline="middle">Y Vals</text></g></g></g><g><g objname="name" objtype="TLatex" font-family="Arial" font-size="29" space="preserve" font-weight="bold"><text text-anchor="start" x="0" y="0" fill="black" transform="translate(96,77)"><tspan x="0" y="-17">Signal Peak over</tspan><tspan x="0" y="17">background</tspan></text></g></g></g><g objname="title" objtype="TPaveText" transform="translate(336,8)" font-family="Arial" font-size="33" space="preserve"><path d="M0,0h528v40h-528z" style="fill: none;"></path><text text-anchor="middle" x="0" y="0" fill="black" transform="translate(264,21)" dominant-baseline="middle" opacity="1">Signal plus background</text></g><g objname="stats" objtype="TPaveStats" transform="translate(636,88)" font-family="Arial" font-size="30" space="preserve"><path d="M0,0h432v288h-432z" style="fill: white;"></path><text text-anchor="start" x="0" y="0" fill="black" transform="translate(22,19)" dominant-baseline="middle" opacity="1">χ² / ndf </text><text text-anchor="end" x="0" y="0" fill="black" transform="translate(410,19)" dominant-baseline="middle" opacity="1"> 42.03 / 44</text><text text-anchor="start" x="0" y="0" fill="black" transform="translate(22,55)" dominant-baseline="middle" opacity="1">Prob </text><text text-anchor="end" x="0" y="0" fill="black" transform="translate(410,55)" dominant-baseline="middle" opacity="1"> 0.5564</text><text text-anchor="start" x="0" y="0" fill="black" transform="translate(22,91)" dominant-baseline="middle" opacity="1">Norm </text><text text-anchor="end" x="0" y="0" fill="black" transform="translate(410,91)" dominant-baseline="middle" opacity="1"> 57.83 ± 7.89</text><text text-anchor="start" x="0" y="0" fill="black" transform="translate(22,127)" dominant-baseline="middle" opacity="1">Mean </text><text text-anchor="end" x="0" y="0" fill="black" transform="translate(410,127)" dominant-baseline="middle" opacity="1"> 7.010 ± 0.134</text><text text-anchor="start" x="0" y="0" fill="black" transform="translate(22,163)" dominant-baseline="middle" opacity="1">Sigma </text><text text-anchor="end" x="0" y="0" fill="black" transform="translate(410,163)" dominant-baseline="middle" opacity="1"> 0.9238 ± 0.1550</text><text text-anchor="start" x="0" y="0" fill="black" transform="translate(22,199)" dominant-baseline="middle" opacity="1">a </text><text text-anchor="end" x="0" y="0" fill="black" transform="translate(410,199)" dominant-baseline="middle" opacity="1"> 200.6 ± 5.4</text><text text-anchor="start" x="0" y="0" fill="black" transform="translate(22,235)" dominant-baseline="middle" opacity="1">b </text><text text-anchor="end" x="0" y="0" fill="black" transform="translate(410,235)" dominant-baseline="middle" opacity="1"> -16.73 ± 1.03</text><text text-anchor="start" x="0" y="0" fill="black" transform="translate(22,271)" dominant-baseline="middle" opacity="1">c </text><text text-anchor="end" x="0" y="0" fill="black" transform="translate(410,271)" dominant-baseline="middle" opacity="1"> 0.4438 ± 0.0464</text></g></g></svg>