<svg xmlns="http://www.w3.org/2000/svg" viewBox="0 0 1200 800" preserveAspectRatio="none" width="1200" height="800">
 <path d="M0,0H1200V800H0Z" style="fill: white;"></path>
 <g>
  <g transform="translate(120,80)">
   <path d="M0,0H960V640H0Z" style="fill: white; stroke: black; stroke-width: 1;"></path>
   <svg x="0" y="0" overflow="hidden" width="960" height="640" viewBox="0 0 960 640">
    <g>
     <path d="M0,131h20M10,94v73M19,159h20M29,124v70M38,166h20M48,132v69M58,146h20M68,110v71M77,197h20M87,163v68M96,195h20M106,161v67M115,264h20M125,233v62M134,276h20M144,246v61M154,282h20M164,251v61M173,289h20M183,259v60M192,248h20M202,217v63M211,279h20M221,249v60M230,276h20M240,246v61M250,294h20M260,265v59M269,276h20M279,246v61M288,248h20M298,217v63M307,264h20M317,233v62M326,154h20M336,118v71M346,251h20M356,219v63M365,317h20M375,289v57M384,325h20M394,297v57M403,374h20M413,348v52M422,381h20M432,356v51M442,443h20M452,420v45M461,476h20M471,456v41M480,422h20M490,399v47M499,461h20M509,439v43M518,435h20M528,412v46M538,468h20M548,448v41M557,474h20M567,453v41M576,479h20M586,458v41M595,443h20M605,420v45M614,515h20M624,497v35M634,466h20M644,445v42M653,494h20M663,475v38M672,476h20M682,456v41M691,509h20M701,491v37M710,540h20M720,524v32M730,525h20M740,508v34M749,525h20M759,508v34M768,507h20M778,488v37M787,550h20M797,535v31M806,499h20M816,480v38M826,517h20M836,499v36M845,545h20M855,530v31M864,527h20M874,510v34M883,532h20M893,516v33M902,532h20M912,516v33M922,532h20M932,516v33M941,512h20M951,494v36" style="stroke: #000099; stroke-width: 1;"></path>
     <path d="M6,131a4,4,0,1,0,8,0a4,4,0,1,0,-8,0zM25,159a4,4,0,1,0,8,0a4,4,0,1,0,-8,0zM44,166a4,4,0,1,0,8,0a4,4,0,1,0,-8,0zM64,146a4,4,0,1,0,8,0a4,4,0,1,0,-8,0zM83,197a4,4,0,1,0,8,0a4,4,0,1,0,-8,0zM102,195a4,4,0,1,0,8,0a4,4,0,1,0,-8,0zM121,264a4,4,0,1,0,8,0a4,4,0,1,0,-8,0zM140,276a4,4,0,1,0,8,0a4,4,0,1,0,-8,0zM160,282a4,4,0,1,0,8,0a4,4,0,1,0,-8,0zM179,289a4,4,0,1,0,8,0a4,4,0,1,0,-8,0zM198,248a4,4,0,1,0,8,0a4,4,0,1,0,-8,0zM217,279a4,4,0,1,0,8,0a4,4,0,1,0,-8,0zM236,276a4,4,0,1,0,8,0a4,4,0,1,0,-8,0zM256,294a4,4,0,1,0,8,0a4,4,0,1,0,-8,0zM275,276a4,4,0,1,0,8,0a4,4,0,1,0,-8,0zM294,248a4,4,0,1,0,8,0a4,4,0,1,0,-8,0zM313,264a4,4,0,1,0,8,0a4,4,0,1,0,-8,0zM332,154a4,4,0,1,0,8,0a4,4,0,1,0,-8,0zM352,251a4,4,0,1,0,8,0a4,4,0,1,0,-8,0zM371,317a4,4,0,1,0,8,0a4,4,0,1,0,-8,0zM390,325a4,4,0,1,0,8,0a4,4,0,1,0,-8,0zM409,374a4,4,0,1,0,8,0a4,4,0,1,0,-8,0zM428,381a4,4,0,1,0,8,0a4,4,0,1,0,-8,0zM448,443a4,4,0,1,0,8,0a4,4,0,1,0,-8,0zM467,476a4,4,0,1,0,8,0a4,4,0,1,0,-8,0zM486,422a4,4,0,1,0,8,0a4,4,0,1,0,-8,0zM505,461a4,4,0,1,0,8,0a4,4,0,1,0,-8,0zM524,435a4,4,0,1,0,8,0a4,4,0,1,0,-8,0zM544,468a4,4,0,1,0,8,0a4,4,0,1,0,-8,0zM563,474a4,4,0,1,0,8,0a4,4,0,1,0,-8,0zM582,479a4,4,0,1,0,8,0a4,4,0,1,0,-8,0zM601,443a4,4,0,1,0,8,0a4,4,0,1,0,-8,0zM620,515a4,4,0,1,0,8,0a4,4,0,1,0,-8,0zM640,466a4,4,0,1,0,8,0a4,4,0,1,0,-8,0zM659,494a4,4,0,1,0,8,0a4,4,0,1,0,-8,0zM678,476a4,4,0,1,0,8,0a4,4,0,1,0,-8,0zM697,509a4,4,0,1,0,8,0a4,4,0,1,0,-8,0zM716,540a4,4,0,1,0,8,0a4,4,0,1,0,-8,0zM736,525a4,4,0,1,0,8,0a4,4,0,1,0,-8,0zM755,525a4,4,0,1,0,8,0a4,4,0,1,0,-8,0zM774,507a4,4,0,1,0,8,0a4,4,0,1,0,-8,0zM793,550a4,4,0,1,0,8,0a4,4,0,1,0,-8,0zM812,499a4,4,0,1,0,8,0a4,4,0,1,0,-8,0zM832,517a4,4,0,1,0,8,0a4,4,0,1,0,-8,0zM851,545a4,4,0,1,0,8,0a4,4,0,1,0,-8,0zM870,527a4,4,0,1,0,8,0a4,4,0,1,0,-8,0zM889,532a4,4,0,1,0,8,0a4,4,0,1,0,-8,0zM908,532a4,4,0,1,0,8,0a4,4,0,1,0,-8,0zM928,532a4,4,0,1,0,8,0a4,4,0,1,0,-8,0zM947,512a4,4,0,1,0,8,0a4,4,0,1,0,-8,0z" style="stroke: black; fill: black;"></path>
    </g>
    <g>
     <path d="M0,126.39C0.96,127.24,7.68,133.22,9.60,134.91S17.28,141.67,19.20,143.34S26.88,150.02,28.80,151.68S36.48,158.29,38.40,159.93S46.08,166.47,48,168.09S55.68,174.55,57.60,176.16S65.28,182.55,67.20,184.14S74.88,190.45,76.80,192.02S84.48,198.27,86.40,199.82S94.08,205.99,96,207.52S103.68,213.62,105.60,215.13S113.28,221.16,115.20,222.65S122.88,228.61,124.80,230.09S132.48,235.96,134.40,237.42S142.08,243.23,144,244.66S151.68,250.39,153.60,251.81S161.28,257.44,163.20,258.83S170.88,264.36,172.80,265.72S180.48,271.10,182.40,272.41S190.08,277.59,192,278.83S199.68,283.69,201.60,284.82S209.28,289.18,211.20,290.14S218.88,293.75,220.80,294.48S228.48,296.99,230.40,297.37S238.08,298.36,240,298.30S247.68,297.33,249.60,296.71S257.28,293.39,259.20,292.17S266.88,286.31,268.80,284.47S276.48,276.20,278.40,273.86S286.08,263.72,288,261.09S295.68,250.14,297.60,247.53S305.28,237.19,307.20,234.99S314.88,226.89,316.80,225.48S324.48,221.19,326.40,220.89S334.08,221.55,336,222.56S343.68,228.66,345.60,230.98S353.28,242.29,355.20,245.75S362.88,261.31,364.80,265.60S372.48,283.95,374.40,288.69S382.08,308.20,384,313.00S391.68,332.15,393.60,336.68S401.28,354.29,403.20,358.33S410.88,373.66,412.80,377.10S420.48,389.90,422.40,392.72S430.08,403.08,432,405.35S439.68,413.60,441.60,415.42S449.28,422.00,451.20,423.46S458.88,428.81,460.80,430.01S468.48,434.50,470.40,435.53S478.08,439.44,480,440.36S487.68,443.90,489.60,444.74S497.28,448.04,499.20,448.84S506.88,451.97,508.80,452.73S516.48,455.74,518.40,456.48S526.08,459.40,528,460.11S535.68,462.95,537.60,463.64S545.28,466.40,547.20,467.08S554.88,469.76,556.80,470.42S564.48,473.03,566.40,473.67S574.08,476.21,576,476.83S583.68,479.30,585.60,479.90S593.28,482.29,595.20,482.88S602.88,485.20,604.80,485.76S612.48,488.01,614.40,488.56S622.08,490.73,624,491.27S631.68,493.37,633.60,493.88S641.28,495.91,643.20,496.40S650.88,498.36,652.80,498.83S660.48,500.72,662.40,501.18S670.08,502.99,672,503.43S679.68,505.16,681.60,505.59S689.28,507.25,691.20,507.65S698.88,509.25,700.80,509.63S708.48,511.15,710.40,511.52S718.08,512.96,720,513.31S727.68,514.69,729.60,515.02S737.28,516.32,739.20,516.63S746.88,517.86,748.80,518.16S756.48,519.31,758.40,519.59S766.08,520.67,768,520.93S775.68,521.94,777.60,522.18S785.28,523.12,787.20,523.34S794.88,524.21,796.80,524.41S804.48,525.20,806.40,525.39S814.08,526.11,816,526.28S823.68,526.92,825.60,527.07S833.28,527.64,835.20,527.78S842.88,528.28,844.80,528.39S852.48,528.82,854.40,528.91S862.08,529.27,864,529.35S871.68,529.63,873.60,529.69S881.28,529.90,883.20,529.94S890.88,530.08,892.80,530.10S900.48,530.16,902.40,530.17S910.08,530.16,912,530.15S919.68,530.06,921.60,530.03S929.28,529.88,931.20,529.83S938.88,529.60,940.80,529.53S948.48,529.24,950.40,529.15S959.04,528.73,960,528.67" style="fill: none; stroke: blue; stroke-width: 5;"></path>
    </g>
    <g>
     <path d="M0,126.39C0.96,127.24,7.68,133.22,9.60,134.91S17.28,141.67,19.20,143.34S26.88,150.02,28.80,151.68S36.48,158.29,38.40,159.93S46.08,166.47,48,168.09S55.68,174.55,57.60,176.16S65.28,182.55,67.20,184.14S74.88,190.45,76.80,192.02S84.48,198.27,86.40,199.82S94.08,205.99,96,207.52S103.68,213.62,105.60,215.13S113.28,221.16,115.20,222.66S122.88,228.61,124.80,230.09S132.48,235.97,134.40,237.43S142.08,243.24,144,244.68S151.68,250.41,153.60,251.84S161.28,257.50,163.20,258.90S170.88,264.49,172.80,265.88S180.48,271.40,182.40,272.77S190.08,278.21,192,279.56S199.68,284.93,201.60,286.27S209.28,291.57,211.20,292.88S218.88,298.11,220.80,299.40S228.48,304.56,230.40,305.83S238.08,310.91,240,312.17S247.68,317.18,249.60,318.42S257.28,323.36,259.20,324.58S266.88,329.45,268.80,330.65S276.48,335.44,278.40,336.63S286.08,341.34,288,342.51S295.68,347.16,297.60,348.31S305.28,352.88,307.20,354.01S314.88,358.51,316.80,359.63S324.48,364.05,326.40,365.15S334.08,369.50,336,370.58S343.68,374.86,345.60,375.92S353.28,380.13,355.20,381.17S362.88,385.31,364.80,386.33S372.48,390.39,374.40,391.40S382.08,395.39,384,396.38S391.68,400.29,393.60,401.26S401.28,405.11,403.20,406.06S410.88,409.83,412.80,410.76S420.48,414.46,422.40,415.38S430.08,419.00,432,419.90S439.68,423.45,441.60,424.33S449.28,427.81,451.20,428.67S458.88,432.08,460.80,432.92S468.48,436.26,470.40,437.08S478.08,440.34,480,441.15S487.68,444.34,489.60,445.13S497.28,448.24,499.20,449.01S506.88,452.06,508.80,452.81S516.48,455.78,518.40,456.51S526.08,459.41,528,460.13S535.68,462.95,537.60,463.65S545.28,466.40,547.20,467.08S554.88,469.76,556.80,470.42S564.48,473.03,566.40,473.67S574.08,476.21,576,476.83S583.68,479.30,585.60,479.90S593.28,482.29,595.20,482.88S602.88,485.20,604.80,485.76S612.48,488.01,614.40,488.56S622.08,490.73,624,491.27S631.68,493.37,633.60,493.88S641.28,495.91,643.20,496.40S650.88,498.36,652.80,498.83S660.48,500.72,662.40,501.18S670.08,502.99,672,503.43S679.68,505.16,681.60,505.59S689.28,507.25,691.20,507.65S698.88,509.25,700.80,509.63S708.48,511.15,710.40,511.52S718.08,512.96,720,513.31S727.68,514.69,729.60,515.02S737.28,516.32,739.20,516.63S746.88,517.86,748.80,518.16S756.48,519.31,758.40,519.59S766.08,520.67,768,520.93S775.68,521.94,777.60,522.18S785.28,523.12,787.20,523.34S794.88,524.21,796.80,524.41S804.48,525.20,806.40,525.39S814.08,526.11,816,526.28S823.68,526.92,825.60,527.07S833.28,527.64,835.20,527.78S842.88,528.28,844.80,528.39S852.48,528.82,854.40,528.91S862.08,529.27,864,529.35S871.68,529.63,873.60,529.69S881.28,529.90,883.20,529.94S890.88,530.08,892.80,530.10S900.48,530.16,902.40,530.17S910.08,530.16,912,530.15S919.68,530.06,921.60,530.03S929.28,529.88,931.20,529.83S938.88,529.60,940.80,529.53S948.48,529.24,950.40,529.15S959.04,528.73,960,528.67" style="fill: none; stroke: blue; stroke-width: 5; stroke-dasharray: 3,3;"></path>
    </g>
    <g>
     <path d="M0,640.00C0.96,640.00,7.68,640.00,9.60,640.00S17.28,640.00,19.20,640.00S26.88,640.00,28.80,640.00S36.48,640.00,38.40,640.00S46.08,640.00,48,640.00S55.68,640.00,57.60,640.00S65.28,640.00,67.20,640.00S74.88,640.00,76.80,640.00S84.48,640.00,86.40,640.00S94.08,640.00,96,640.00S103.68,640.00,105.60,640.00S113.28,640.00,115.20,640.00S122.88,640.00,124.80,640.00S132.48,640.00,134.40,640.00S142.08,639.99,144,639.99S151.68,639.98,153.60,639.97S161.28,639.94,163.20,639.93S170.88,639.87,172.80,639.84S180.48,639.70,182.40,639.65S190.08,639.38,192,639.27S199.68,638.75,201.60,638.55S209.28,637.61,211.20,637.27S218.88,635.65,220.80,635.08S228.48,632.43,230.40,631.54S238.08,627.45,240,626.13S247.68,620.14,249.60,618.29S257.28,610.03,259.20,607.59S266.88,596.86,268.80,593.83S276.48,580.75,278.40,577.23S286.08,562.38,288,558.58S295.68,542.98,297.60,539.22S305.28,524.31,307.20,520.97S314.88,508.38,316.80,505.86S324.48,497.13,326.40,495.75S334.08,492.04,336,491.98S343.68,493.80,345.60,495.06S353.28,502.16,355.20,504.58S362.88,516.00,364.80,519.27S372.48,533.56,374.40,537.29S382.08,552.82,384,556.63S391.68,571.86,393.60,575.42S401.28,589.18,403.20,592.27S410.88,603.83,412.80,606.34S420.48,615.43,422.40,617.35S430.08,624.08,432,625.45S439.68,630.15,441.60,631.09S449.28,634.19,451.20,634.79S458.88,636.73,460.80,637.09S468.48,638.24,470.40,638.45S478.08,639.10,480,639.21S487.68,639.56,489.60,639.62S497.28,639.79,499.20,639.82S506.88,639.91,508.80,639.92S516.48,639.96,518.40,639.97S526.08,639.98,528,639.99S535.68,639.99,537.60,639.99S545.28,640.00,547.20,640.00S554.88,640.00,556.80,640.00S564.48,640.00,566.40,640.00S574.08,640.00,576,640.00S583.68,640.00,585.60,640.00S593.28,640.00,595.20,640.00S602.88,640.00,604.80,640.00S612.48,640.00,614.40,640.00S622.08,640.00,624,640.00S631.68,640.00,633.60,640.00S641.28,640.00,643.20,640.00S650.88,640.00,652.80,640.00S660.48,640.00,662.40,640.00S670.08,640.00,672,640.00S679.68,640.00,681.60,640.00S689.28,640.00,691.20,640.00S698.88,640.00,700.80,640.00S708.48,640.00,710.40,640.00S718.08,640,720,640S727.68,640,729.60,640S737.28,640,739.20,640S746.88,640,748.80,640S756.48,640,758.40,640S766.08,640,768,640S775.68,640,777.60,640S785.28,640,787.20,640S794.88,640,796.80,640S804.48,640,806.40,640S814.08,640,816,640S823.68,640,825.60,640S833.28,640,835.20,640S842.88,640,844.80,640S852.48,640,854.40,640S862.08,640,864,640S871.68,640,873.60,640S881.28,640,883.20,640S890.88,640,892.80,640S900.48,640,902.40,640S910.08,640,912,640S919.68,640,921.60,640S929.28,640,931.20,640S938.88,640,940.80,640S948.48,640,950.40,640S959.04,640,960,640" style="fill: none; stroke: red; stroke-width: 5; stroke-dasharray: 3,3;"></path>
    </g>
   </svg>
   <g>
    <g transform="translate(0,640)">
     <path d="M0,0h960M0,-24V0M24,-12V0M48,-12V0M72,-12V0M96,-24V0M120,-12V0M144,-12V0M168,-12V0M192,-24V0M216,-12V0M240,-12V0M264,-12V0M288,-24V0M312,-12V0M336,-12V0M360,-12V0M384,-24V0M408,-12V0M432,-12V0M456,-12V0M480,-24V0M504,-12V0M528,-12V0M552,-12V0M576,-24V0M600,-12V0M624,-12V0M648,-12V0M672,-24V0M696,-12V0M720,-12V0M744,-12V0M768,-24V0M792,-12V0M816,-12V0M840,-12V0M864,-24V0M888,-12V0M912,-12V0M936,-12V0M960,-24V0" style="stroke: black; stroke-width: 1;"></path>
     <g font-family="Arial" font-size="28" space="preserve" fill="black" text-anchor="middle">
      <text dy=".8em" transform="translate(0,6)">
       0
      </text>
      <text dy=".8em" transform="translate(96,6)">
       2
      </text>
      <text dy=".8em" transform="translate(192,6)">
       4
      </text>
      <text dy=".8em" transform="translate(288,6)">
       6
      </text>
      <text dy=".8em" transform="translate(384,6)">
       8
      </text>
      <text dy=".8em" transform="translate(480,6)">
       10
      </text>
      <text dy=".8em" transform="translate(576,6)">
       12
      </text>
      <text dy=".8em" transform="translate(672,6)">
       14
      </text>
      <text dy=".8em" transform="translate(768,6)">
       16
      </text>
      <text dy=".8em" transform="translate(864,6)">
       18
      </text>
      <text dy=".8em" transform="translate(960,6)">
       20
      </text>
     </g>
     <g font-family="Arial" font-size="28" space="preserve" transform="translate(960,45)">
      <text fill="black" text-anchor="end" dy=".4em">
       X vals
      </text>
     </g>
    </g>
    <g>
     <path d="M0,0v640M36,640H0M18,614H0M18,589H0M18,563H0M18,538H0M36,512H0M18,486H0M18,461H0M18,435H0M18,410H0M36,384H0M18,358H0M18,333H0M18,307H0M18,282H0M36,256H0M18,230H0M18,205H0M18,179H0M18,154H0M36,128H0M18,102H0M18,77H0M18,51H0M18,26H0M36,0H0" style="stroke: black; stroke-width: 1;"></path>
     <g font-family="Arial" font-size="28" space="preserve" fill="black" text-anchor="end">
      <text dy=".4em" transform="translate(-4,640)">
       0
      </text>
      <text dy=".4em" transform="translate(-4,512)">
       50
      </text>
      <text dy=".4em" transform="translate(-4,384)">
       100
      </text>
      <text dy=".4em" transform="translate(-4,256)">
       150
      </text>
      <text dy=".4em" transform="translate(-4,128)">
       200
      </text>
      <text dy=".4em" transform="translate(-4)">
       250
      </text>
     </g>
     <g font-family="Arial" font-size="28" space="preserve" transform="translate(-67)">
      <text fill="black" text-anchor="end" dy=".4em" transform="rotate(270)">
       Y Vals
      </text>
     </g>
    </g>
   </g>
   <g>
    <g font-family="Arial" font-size="29" space="preserve" font-weight="bold">
     <g transform="translate(96,77)">
      <text fill="black" font-size="29" transform="translate(0,-17)">
       Signal Peak over
      </text>
      <text fill="black" font-size="29" transform="translate(33,18)">
       background
      </text>
     </g>
    </g>
   </g>
  </g>
  <g transform="translate(120,4)" font-family="Arial" font-size="40" space="preserve">
   <text fill="black" text-anchor="middle" dy=".8em" transform="translate(480)">
    Signal plus background
   </text>
  </g>
  <g transform="translate(636,88)" font-family="Arial" font-size="26" space="preserve">
   <path d="M0,0H432V256H0Z" style="fill: white;"></path>
   <g transform="translate(22,26) scale(0.988)">
    <text fill="black" font-size="27">
     χ^2 / ndf
    </text>
   </g>
   <text fill="black" text-anchor="end" dy=".4em" transform="translate(410,16)">
    42.03 / 44
   </text>
   <text fill="black" text-anchor="start" dy=".4em" transform="translate(22,48)">
    Prob
   </text>
   <text fill="black" text-anchor="end" dy=".4em" transform="translate(410,48)">
    0.5564
   </text>
   <text fill="black" text-anchor="start" dy=".4em" transform="translate(22,80)">
    Norm
   </text>
   <g transform="translate(258,90) scale(0.988)">
    <text fill="black" font-size="27">
     57.83 ± 7.89
    </text>
   </g>
   <text fill="black" text-anchor="start" dy=".4em" transform="translate(22,112)">
    Mean
   </text>
   <g transform="translate(246,122) scale(0.988)">
    <text fill="black" font-size="27">
     7.010 ± 0.134
    </text>
   </g>
   <text fill="black" text-anchor="start" dy=".4em" transform="translate(22,144)">
    Sigma
   </text>
   <g transform="translate(215,154) scale(0.988)">
    <text fill="black" font-size="27">
     0.9238 ± 0.1550
    </text>
   </g>
   <text fill="black" text-anchor="start" dy=".4em" transform="translate(22,176)">
    a
   </text>
   <g transform="translate(273,186) scale(0.988)">
    <text fill="black" font-size="27">
     200.6 ± 5.4
    </text>
   </g>
   <text fill="black" text-anchor="start" dy=".4em" transform="translate(22,208)">
    b
   </text>
   <g transform="translate(251,218) scale(0.988)">
    <text fill="black" font-size="27">
     -16.73 ± 1.03
    </text>
   </g>
   <text fill="black" text-anchor="start" dy=".4em" transform="translate(22,240)">
    c
   </text>
   <g transform="translate(214,250) scale(0.988)">
    <text fill="black" font-size="27">
     0.4438 ± 0.0464
    </text>
   </g>
  </g>
 </g>
</svg>