<svg xmlns="http://www.w3.org/2000/svg" viewBox="0 0 1200 800" preserveAspectRatio="none" width="1200" height="800">
 <path d="M0,0H1200V800H0Z" style="fill: white;"></path>
 <g>
  <g transform="translate(120,80)">
   <path d="M0,0H960V640H0Z" style="fill: white; stroke: black; stroke-width: 1;"></path>
   <svg x="0" y="0" overflow="hidden" width="960" height="640" viewBox="0 0 960 640">
    <g>
     <path d="M5,372l10,1l9,1l10,3l9,3l10,5l10,5l9,5l10,7l9,7l10,7l10,8l9,8l10,9l9,8l10,7l10,8l9,6l10,6l9,4l10,3h10l9,-1l10,-4l9,-7l10,-9l10,-13l9,-15l10,-19l9,-21l10,-23l10,-26l9,-43l10,-43l9,-41l10,-39l10,-36l9,-32l10,-27l9,-23l10,-16l10,-11l9,-4l10,3l9,9l10,15l10,20l9,25l10,29l9,33l10,35l10,37l9,37l10,38l9,37l10,35l10,34l9,32l10,30l9,27l10,24l10,22l9,20l10,11l9,7l10,5l10,4l9,2l10,2l9,1l10,1h10h9l10,-1h9h10h10l9,1h10l9,1l10,1l10,1l9,2l10,2l9,2l10,2l10,2l9,3l10,2l9,3l10,3l10,3l9,3l10,3l9,1l10,-3l10,-2l9,-3l10,-2l9,-3L955,643H5Z" style="fill: red;"></path>
     <path d="M5,372l10,1l9,1l10,3l9,3l10,5l10,5l9,5l10,7l9,7l10,7l10,8l9,8l10,9l9,8l10,7l10,8l9,6l10,6l9,4l10,3h10l9,-1l10,-4l9,-7l10,-9l10,-13l9,-15l10,-19l9,-21l10,-23l10,-26l9,-43l10,-43l9,-41l10,-39l10,-36l9,-32l10,-27l9,-23l10,-16l10,-11l9,-4l10,3l9,9l10,15l10,20l9,25l10,29l9,33l10,35l10,37l9,37l10,38l9,37l10,35l10,34l9,32l10,30l9,27l10,24l10,22l9,20l10,11l9,7l10,5l10,4l9,2l10,2l9,1l10,1h10h9l10,-1h9h10h10l9,1h10l9,1l10,1l10,1l9,2l10,2l9,2l10,2l10,2l9,3l10,2l9,3l10,3l10,3l9,3l10,3l9,1l10,-3l10,-2l9,-3l10,-2l9,-3" style="fill: none; stroke: blue; stroke-width: 6;"></path>
    </g>
   </svg>
   <g>
    <g transform="translate(0,640)">
     <path d="M0,0h960M0,-24V0M19,-12V0M38,-12V0M58,-12V0M77,-12V0M96,-24V0M115,-12V0M134,-12V0M154,-12V0M173,-12V0M192,-24V0M211,-12V0M230,-12V0M250,-12V0M269,-12V0M288,-24V0M307,-12V0M326,-12V0M346,-12V0M365,-12V0M384,-24V0M403,-12V0M422,-12V0M442,-12V0M461,-12V0M480,-24V0M499,-12V0M518,-12V0M538,-12V0M557,-12V0M576,-24V0M595,-12V0M614,-12V0M634,-12V0M653,-12V0M672,-24V0M691,-12V0M710,-12V0M730,-12V0M749,-12V0M768,-24V0M787,-12V0M806,-12V0M826,-12V0M845,-12V0M864,-24V0M883,-12V0M902,-12V0M922,-12V0M941,-12V0M960,-24V0" style="stroke: black; stroke-width: 1;"></path>
     <g font-family="Arial" font-size="28" space="preserve" fill="black" text-anchor="middle">
      <text dy=".8em" transform="translate(0,5)">
       0
      </text>
      <text dy=".8em" transform="translate(96,5)">
       1
      </text>
      <text dy=".8em" transform="translate(192,5)">
       2
      </text>
      <text dy=".8em" transform="translate(288,5)">
       3
      </text>
      <text dy=".8em" transform="translate(384,5)">
       4
      </text>
      <text dy=".8em" transform="translate(480,5)">
       5
      </text>
      <text dy=".8em" transform="translate(576,5)">
       6
      </text>
      <text dy=".8em" transform="translate(672,5)">
       7
      </text>
      <text dy=".8em" transform="translate(768,5)">
       8
      </text>
      <text dy=".8em" transform="translate(864,5)">
       9
      </text>
      <text dy=".8em" transform="translate(960,5)">
       10
      </text>
     </g>
    </g>
    <g>
     <path d="M0,0v640M36,640H0M18,627H0M18,613H0M18,600H0M18,586H0M36,573H0M18,559H0M18,546H0M18,533H0M18,519H0M36,506H0M18,492H0M18,479H0M18,465H0M18,452H0M36,439H0M18,425H0M18,412H0M18,398H0M18,385H0M36,372H0M18,358H0M18,345H0M18,331H0M18,318H0M36,304H0M18,291H0M18,278H0M18,264H0M18,251H0M36,237H0M18,224H0M18,210H0M18,197H0M18,184H0M36,170H0M18,157H0M18,143H0M18,130H0M18,116H0M36,103H0M18,90H0M18,76H0M18,63H0M18,49H0M36,36H0M18,22H0M18,9H0" style="stroke: black; stroke-width: 1;"></path>
     <g font-family="Arial" font-size="28" space="preserve" fill="black" text-anchor="end">
      <text dy=".4em" transform="translate(-6,640)">
       0
      </text>
      <text dy=".4em" transform="translate(-6,573)">
       5
      </text>
      <text dy=".4em" transform="translate(-6,506)">
       10
      </text>
      <text dy=".4em" transform="translate(-6,439)">
       15
      </text>
      <text dy=".4em" transform="translate(-6,372)">
       20
      </text>
      <text dy=".4em" transform="translate(-6,304)">
       25
      </text>
      <text dy=".4em" transform="translate(-6,237)">
       30
      </text>
      <text dy=".4em" transform="translate(-6,170)">
       35
      </text>
      <text dy=".4em" transform="translate(-6,103)">
       40
      </text>
      <text dy=".4em" transform="translate(-6,36)">
       45
      </text>
     </g>
    </g>
   </g>
  </g>
  <g transform="translate(120,4)" font-family="Arial" font-size="40" space="preserve">
   <text fill="black" text-anchor="middle" dy=".8em" transform="translate(480)">
    x*gaus(0)+[3]*form1
   </text>
  </g>
 </g>
</svg>