<svg xmlns="http://www.w3.org/2000/svg" viewBox="0 0 698 475" preserveAspectRatio="none" width="698" height="475">
 <path d="M0,0H698V475H0Z" style="fill: white;"></path>
 <g>
  <g transform="translate(70,48)">
   <path d="M0,0H558V380H0Z" style="fill: white; stroke: black; stroke-width: 1;"></path>
   <svg x="0" y="0" overflow="hidden" width="558" height="380" viewBox="0 0 558 380">
    <g>
     <path d="M0,332h6M3,314v36M6,352h6M9,342v21M11,332h6M14,314v36M17,300h6M20,275v51M22,321h6M25,300v42M28,249h6M31,214v69M33,332h6M36,314v36M39,269h6M42,238v62M45,280h6M48,250v59M50,249h6M53,214v69M56,311h6M59,288v46M61,290h6M64,263v55M67,228h6M70,190v75M73,238h6M76,202v72M78,321h6M81,300v42M84,186h6M87,144v85M89,72h6M92,17v110M95,207h6M98,167v80M100,228h6M103,190v75M106,155h6M109,109v93M112,83h6M115,29v107M117,321h6M120,300v42M123,176h6M126,132v88M128,186h6M131,144v85M134,269h6M137,238v62M140,259h6M143,226v66M145,290h6M148,263v55M151,269h6M154,238v62M156,228h6M159,190v75M162,228h6M165,190v75M167,259h6M170,226v66M173,280h6M176,250v59M179,280h6M182,250v59M184,238h6M187,202v72M190,321h6M193,300v42M195,300h6M198,275v51M201,342h6M204,327v30M206,300h6M209,275v51M212,290h6M215,263v55M218,332h6M221,314v36M223,311h6M226,288v46M229,311h6M232,288v46M234,290h6M237,263v55M240,311h6M243,288v46M246,332h6M249,314v36M251,321h6M254,300v42M257,321h6M260,300v42M262,300h6M265,275v51M268,300h6M271,275v51M273,311h6M276,288v46M279,290h6M282,263v55M285,321h6M288,300v42M290,290h6M293,263v55M296,300h6M299,275v51M301,290h6M304,263v55M307,269h6M310,238v62M312,207h6M315,167v80M318,228h6M321,190v75M324,207h6M327,167v80M329,249h6M332,214v69M335,249h6M338,214v69M340,197h6M343,155v83M346,259h6M349,226v66M352,197h6M355,155v83M357,207h6M360,167v80M363,197h6M366,155v83M368,238h6M371,202v72M374,186h6M377,144v85M379,155h6M382,109v93M385,166h6M388,120v91M391,238h6M394,202v72M396,166h6M399,120v91M402,197h6M405,155v83M407,238h6M410,202v72M413,280h6M416,250v59M419,134h6M422,86v97M424,249h6M427,214v69M430,238h6M433,202v72M435,269h6M438,238v62M441,238h6M444,202v72M446,259h6M449,226v66M452,280h6M455,250v59M458,217h6M461,179v77M463,186h6M466,144v85M469,300h6M472,275v51M474,249h6M477,214v69M480,290h6M483,263v55M485,280h6M488,250v59M491,217h6M494,179v77M497,280h6M500,250v59M502,280h6M505,250v59M508,290h6M511,263v55M513,300h6M516,275v51M519,342h6M522,327v30M525,332h6M528,314v36M530,280h6M533,250v59M536,332h6M539,314v36M541,280h6M544,250v59M547,342h6M550,327v30M552,352h6M555,342v21" style="stroke: #00009a; stroke-width: 1;"></path>
    </g>
    <g>
     <path d="M3,339l6,-5l5,-6l6,-6l5,-7l6,-8l5,-9l6,-9l6,-9l5,-9l6,-10l5,-10l6,-9l6,-9l5,-8l6,-7l5,-6l6,-5l5,-3l6,-2h6l5,2l6,3l5,4l6,6l6,6l5,8l6,8l5,9l6,9l5,9l6,8l6,8l5,8l6,7l5,6l6,6l5,4l6,3l6,3l5,1l6,1l5,-1l6,-1l6,-2l5,-3l6,-3l5,-4l6,-4l5,-5l6,-6l6,-5l5,-6l6,-6l5,-6l6,-7l5,-6l6,-6l6,-7l5,-6l6,-5l5,-6l6,-4l6,-5l5,-4l6,-3l5,-3l6,-2l5,-1l6,-1h6l5,1l6,1l5,2l6,3l6,3l5,4l6,5l5,4l6,6l5,6l6,6l6,6l5,6l6,6l5,7l6,6l5,7l6,6l6,6l5,6l6,5l5,6l6,5l6,5l5,4l6,4l5,4l6,3l5,4" style="fill: none; stroke: #009a00; stroke-width: 2;"></path>
    </g>
    <g>
     <path d="M0,331l6,-4l5,-5l6,-4l6,-6l5,-6l6,-6l5,-7l6,-7l5,-8l6,-8l6,-8l5,-8l6,-7l5,-7l6,-7l5,-5l6,-5l6,-3l5,-2h6h5l6,2l6,4l5,4l6,5l5,5l6,6l5,6l6,7l6,6l5,6l6,5l5,6l6,5l6,4l5,4l6,4l5,2l6,3l5,2l6,1l6,1h5h6l5,-1l6,-1l5,-2l6,-2l6,-4l5,-3l6,-4l5,-5l6,-5l6,-6l5,-5l6,-6l5,-7l6,-6l5,-6l6,-6l6,-6l5,-6l6,-5l5,-5l6,-4l5,-3l6,-2l6,-1l5,-1h6l5,1l6,2l6,3l5,3l6,4l5,4l6,4l5,5l6,5l6,5l5,5l6,5l5,5l6,6l6,5l5,5l6,5l5,6l6,5l5,5l6,5l6,5l5,4l6,5l5,4l6,4l5,4l6,4l6,3l5,3" style="fill: none; stroke: red; stroke-width: 2;"></path>
    </g>
   </svg>
   <g>
    <g transform="translate(0,380)">
     <path d="M0,0h558M0,-14V0M11,-7V0M22,-7V0M33,-7V0M45,-7V0M56,-14V0M67,-7V0M78,-7V0M89,-7V0M100,-7V0M112,-14V0M123,-7V0M134,-7V0M145,-7V0M156,-7V0M167,-14V0M179,-7V0M190,-7V0M201,-7V0M212,-7V0M223,-14V0M234,-7V0M246,-7V0M257,-7V0M268,-7V0M279,-14V0M290,-7V0M301,-7V0M312,-7V0M324,-7V0M335,-14V0M346,-7V0M357,-7V0M368,-7V0M379,-7V0M391,-14V0M402,-7V0M413,-7V0M424,-7V0M435,-7V0M446,-14V0M458,-7V0M469,-7V0M480,-7V0M491,-7V0M502,-14V0M513,-7V0M525,-7V0M536,-7V0M547,-7V0M558,-14V0" style="stroke: black; stroke-width: 1;"></path>
     <g font-family="Arial" font-size="17" space="preserve" fill="black" text-anchor="middle">
      <text dy=".8em">
       0
      </text>
      <text dy=".8em" transform="translate(56)">
       1
      </text>
      <text dy=".8em" transform="translate(112)">
       2
      </text>
      <text dy=".8em" transform="translate(167)">
       3
      </text>
      <text dy=".8em" transform="translate(223)">
       4
      </text>
      <text dy=".8em" transform="translate(279)">
       5
      </text>
      <text dy=".8em" transform="translate(335)">
       6
      </text>
      <text dy=".8em" transform="translate(391)">
       7
      </text>
      <text dy=".8em" transform="translate(446)">
       8
      </text>
      <text dy=".8em" transform="translate(502)">
       9
      </text>
      <text dy=".8em" transform="translate(558)">
       10
      </text>
     </g>
    </g>
    <g>
     <path d="M0,0v380M11,373H0M21,363H0M11,353H0M11,343H0M11,333H0M11,323H0M21,313H0M11,303H0M11,293H0M11,283H0M11,273H0M21,262H0M11,252H0M11,242H0M11,232H0M11,222H0M21,212H0M11,202H0M11,192H0M11,182H0M11,172H0M21,162H0M11,152H0M11,142H0M11,132H0M11,122H0M21,112H0M11,102H0M11,92H0M11,82H0M11,72H0M21,62H0M11,52H0M11,42H0M11,32H0M11,22H0M21,12H0M11,2H0" style="stroke: black; stroke-width: 1;"></path>
     <g font-family="Arial" font-size="17" space="preserve" fill="black" text-anchor="end">
      <text dy=".4em" transform="translate(-2,363)">
       0
      </text>
      <text dy=".4em" transform="translate(-2,313)">
       0.05
      </text>
      <text dy=".4em" transform="translate(-2,262)">
       0.10
      </text>
      <text dy=".4em" transform="translate(-2,212)">
       0.15
      </text>
      <text dy=".4em" transform="translate(-2,162)">
       0.20
      </text>
      <text dy=".4em" transform="translate(-2,112)">
       0.25
      </text>
      <text dy=".4em" transform="translate(-2,62)">
       0.30
      </text>
      <text dy=".4em" transform="translate(-2,12)">
       0.35
      </text>
     </g>
    </g>
   </g>
  </g>
  <g transform="translate(70,2)" font-family="Arial" font-size="24" space="preserve">
   <text fill="black" text-anchor="middle" dy=".8em" transform="translate(279)">
    Bi-Gaussian
   </text>
  </g>
  <g transform="translate(419,24)" font-family="Arial" font-size="19" space="preserve">
   <path d="M0,0H209V119H0Z" style="fill: white; stroke: black; stroke-width: 1;"></path>
   <path d="M6,18H46" style="stroke: #009a00; stroke-width: 2;"></path>
   <path d="M26,18h1" style="stroke: black; fill: none;"></path>
   <text fill="black" text-anchor="start" dy=".4em" transform="translate(52,18)">
    True function
   </text>
   <path d="M6,46H46" style="stroke: red; stroke-width: 2;"></path>
   <path d="M26,46h1" style="stroke: black; fill: none;"></path>
   <text fill="black" text-anchor="start" dy=".4em" transform="translate(52,46)">
    TKDE
   </text>
   <path d="M6,73H46" style="stroke: black; stroke-width: 1;"></path>
   <path d="M22,69v8h8v-8z" style="stroke: black; fill: black;"></path>
   <g transform="translate(52,81) scale(0.766)">
    <text fill="black" font-size="25">
     TKDE - σ
    </text>
   </g>
   <path d="M6,101H46" style="stroke: black; stroke-width: 1;"></path>
   <path d="M22,97v8h8v-8z" style="stroke: black; fill: black;"></path>
   <g transform="translate(52,108) scale(0.766)">
    <text fill="black" font-size="25">
     TKDE + σ
    </text>
   </g>
  </g>
 </g>
</svg>