<svg xmlns="http://www.w3.org/2000/svg" width="698" height="475" viewBox="0 0 698 475" preserveAspectRatio="none">
 <path d="M0,0H698V475H0Z" style="fill: white;"></path>
 <g>
  <g transform="translate(70,48)">
   <path d="M0,0H558V380H0Z" style="fill: white; stroke: black; stroke-width: 1;"></path>
   <svg x="0" y="0" overflow="hidden" width="558" height="380" viewBox="0 0 558 380">
    <g>
     <path d="M0,332h6M3,314v36M6,352h6M9,342v21M11,332h6M14,314v36M17,301h6M20,275v51M22,321h6M25,301v41M28,249h6M31,215v68M33,332h6M36,314v36M39,270h6M42,239v62M45,280h6M48,251v58M50,249h6M53,215v68M56,311h6M59,288v46M61,290h6M64,263v55M67,228h6M70,191v75M73,239h6M76,203v71M78,321h6M81,301v41M84,187h6M87,144v85M89,73h6M92,18v110M95,207h6M98,167v81M100,228h6M103,191v75M106,156h6M109,109v93M112,83h6M115,29v108M117,321h6M120,301v41M123,176h6M126,132v88M128,187h6M131,144v85M134,270h6M137,239v62M140,259h6M143,226v66M145,290h6M148,263v55M151,270h6M154,239v62M156,228h6M159,191v75M162,228h6M165,191v75M167,259h6M170,226v66M173,280h6M176,251v58M179,280h6M182,251v58M184,239h6M187,203v71M190,321h6M193,301v41M195,301h6M198,275v51M201,342h6M204,327v30M206,301h6M209,275v51M212,290h6M215,263v55M218,332h6M221,314v36M223,311h6M226,288v46M229,311h6M232,288v46M234,290h6M237,263v55M240,311h6M243,288v46M246,332h6M249,314v36M251,321h6M254,301v41M257,321h6M260,301v41M262,301h6M265,275v51M268,301h6M271,275v51M273,311h6M276,288v46M279,290h6M282,263v55M285,321h6M288,301v41M290,290h6M293,263v55M296,301h6M299,275v51M301,290h6M304,263v55M307,270h6M310,239v62M312,207h6M315,167v81M318,228h6M321,191v75M324,207h6M327,167v81M329,249h6M332,215v68M335,249h6M338,215v68M340,197h6M343,156v83M346,259h6M349,226v66M352,197h6M355,156v83M357,207h6M360,167v81M363,197h6M366,156v83M368,239h6M371,203v71M374,187h6M377,144v85M379,156h6M382,109v93M385,166h6M388,121v90M391,239h6M394,203v71M396,166h6M399,121v90M402,197h6M405,156v83M407,239h6M410,203v71M413,280h6M416,251v58M419,135h6M422,86v98M424,249h6M427,215v68M430,239h6M433,203v71M435,270h6M438,239v62M441,239h6M444,203v71M446,259h6M449,226v66M452,280h6M455,251v58M458,218h6M461,179v78M463,187h6M466,144v85M469,301h6M472,275v51M474,249h6M477,215v68M480,290h6M483,263v55M485,280h6M488,251v58M491,218h6M494,179v78M497,280h6M500,251v58M502,280h6M505,251v58M508,290h6M511,263v55M513,301h6M516,275v51M519,342h6M522,327v30M525,332h6M528,314v36M530,280h6M533,251v58M536,332h6M539,314v36M541,280h6M544,251v58M547,342h6M550,327v30M552,352h6M555,342v21" style="stroke: rgb(0, 0, 154); stroke-width: 1;"></path>
    </g>
    <g>
     <path d="M3,339l6,-5l5,-6l6,-6l5,-7l6,-8l5,-8l6,-9l6,-10l5,-9l6,-10l5,-10l6,-9l6,-9l5,-8l6,-7l5,-6l6,-4l5,-3l6,-2h6l5,1l6,3l5,4l6,6l6,7l5,7l6,8l5,9l6,9l5,9l6,8l6,9l5,7l6,7l5,6l6,6l5,4l6,3l6,3l5,1l6,1l5,-1l6,-1l6,-2l5,-2l6,-4l5,-4l6,-4l5,-5l6,-5l6,-6l5,-6l6,-6l5,-6l6,-7l5,-6l6,-6l6,-6l5,-6l6,-6l5,-5l6,-5l6,-5l5,-3l6,-4l5,-3l6,-2l5,-1l6,-1h6l5,1l6,1l5,2l6,3l6,4l5,3l6,5l5,5l6,5l5,6l6,6l6,6l5,6l6,7l5,6l6,7l5,6l6,6l6,6l5,6l6,6l5,5l6,5l6,5l5,4l6,4l5,4l6,4l5,3" style="fill: none; stroke: rgb(0, 154, 0); stroke-width: 2;"></path>
    </g>
    <g>
     <path d="M3,329l6,-4l5,-5l6,-5l5,-6l6,-6l5,-6l6,-7l6,-8l5,-8l6,-7l5,-8l6,-8l6,-8l5,-6l6,-6l5,-5l6,-4l5,-3l6,-1h6l5,2l6,2l5,4l6,5l6,5l5,6l6,6l5,6l6,6l5,6l6,6l6,5l5,5l6,5l5,4l6,4l5,3l6,3l6,2l5,2l6,1h5h6h6l5,-1l6,-2l5,-2l6,-3l5,-3l6,-4l6,-4l5,-5l6,-6l5,-5l6,-6l5,-6l6,-6l6,-7l5,-6l6,-6l5,-6l6,-5l6,-5l5,-4l6,-4l5,-2l6,-2l5,-1l6,-1l6,1l5,2l6,2l5,3l6,3l6,4l5,5l6,4l5,5l6,5l5,5l6,5l6,5l5,5l6,5l5,6l6,5l5,5l6,5l6,5l5,5l6,5l5,5l6,5l6,4l5,4l6,4l5,4l6,4l5,3" style="fill: none; stroke: red; stroke-width: 2;"></path>
    </g>
   </svg>
   <g>
    <g transform="translate(0,380)">
     <path d="M0,0h558M0,-11V0M11,-6V0M22,-6V0M33,-6V0M45,-6V0M56,-11V0M67,-6V0M78,-6V0M89,-6V0M100,-6V0M112,-11V0M123,-6V0M134,-6V0M145,-6V0M156,-6V0M167,-11V0M179,-6V0M190,-6V0M201,-6V0M212,-6V0M223,-11V0M234,-6V0M246,-6V0M257,-6V0M268,-6V0M279,-11V0M290,-6V0M301,-6V0M312,-6V0M324,-6V0M335,-11V0M346,-6V0M357,-6V0M368,-6V0M379,-6V0M391,-11V0M402,-6V0M413,-6V0M424,-6V0M435,-6V0M446,-11V0M458,-6V0M469,-6V0M480,-6V0M491,-6V0M502,-11V0M513,-6V0M525,-6V0M536,-6V0M547,-6V0M558,-11V0" style="stroke: black; stroke-width: 1;"></path>
     <g font-family="Arial" font-size="17" xml:space="preserve" fill="black" text-anchor="middle"><text dy=".8em" transform="translate(0,3)">0</text><text dy=".8em" transform="translate(56,3)">1</text><text dy=".8em" transform="translate(112,3)">2</text><text dy=".8em" transform="translate(167,3)">3</text><text dy=".8em" transform="translate(223,3)">4</text><text dy=".8em" transform="translate(279,3)">5</text><text dy=".8em" transform="translate(335,3)">6</text><text dy=".8em" transform="translate(391,3)">7</text><text dy=".8em" transform="translate(446,3)">8</text><text dy=".8em" transform="translate(502,3)">9</text><text dy=".8em" transform="translate(558,3)">10</text></g>
    </g>
    <g>
     <path d="M0,0v380M9,373H0M17,363H0M9,353H0M9,343H0M9,333H0M9,323H0M17,313H0M9,303H0M9,293H0M9,283H0M9,273H0M17,263H0M9,253H0M9,243H0M9,233H0M9,223H0M17,213H0M9,203H0M9,193H0M9,183H0M9,173H0M17,163H0M9,153H0M9,143H0M9,133H0M9,123H0M17,113H0M9,103H0M9,93H0M9,83H0M9,73H0M17,63H0M9,53H0M9,43H0M9,33H0M9,23H0M17,13H0M9,3H0" style="stroke: black; stroke-width: 1;"></path>
     <g font-family="Arial" font-size="17" xml:space="preserve" fill="black" text-anchor="end"><text dominant-baseline="middle" transform="translate(-3,363)">0</text><text dominant-baseline="middle" transform="translate(-3,313)">0.05</text><text dominant-baseline="middle" transform="translate(-3,263)">0.1</text><text dominant-baseline="middle" transform="translate(-3,213)">0.15</text><text dominant-baseline="middle" transform="translate(-3,163)">0.2</text><text dominant-baseline="middle" transform="translate(-3,113)">0.25</text><text dominant-baseline="middle" transform="translate(-3,63)">0.3</text><text dominant-baseline="middle" transform="translate(-3,13)">0.35</text></g>
    </g>
   </g>
  </g>
  <g transform="translate(70,2)" font-family="Arial" font-size="24" xml:space="preserve"><text fill="black" text-anchor="middle" dy=".8em" transform="translate(279)">Bi-Gaussian</text></g>
  <g transform="translate(419,24)" font-family="Arial" font-size="23" xml:space="preserve"><path d="M0,0H209V119H0Z" style="fill: white; stroke: black; stroke-width: 1;"></path><path d="M6,18H46" style="stroke: rgb(0, 154, 0); stroke-width: 2;"></path><path d="M26,18h1" style="stroke: black; fill: none;"></path><text fill="black" text-anchor="start" dominant-baseline="middle" transform="translate(52,18)">True function</text><path d="M6,46H46" style="stroke: red; stroke-width: 2;"></path><path d="M26,46h1" style="stroke: black; fill: none;"></path><text fill="black" text-anchor="start" dominant-baseline="middle" transform="translate(52,46)">TKDE</text><path d="M6,73H46" style="stroke: black; stroke-width: 1;"></path><path d="M22,69v8h8v-8z" style="stroke: black; fill: black;"></path><g transform="translate(52,82) scale(0.925)"><text fill="black">TKDE - σ</text></g><path d="M6,101H46" style="stroke: black; stroke-width: 1;"></path><path d="M22,97v8h8v-8z" style="stroke: black; fill: black;"></path><g transform="translate(52,109) scale(0.925)"><text fill="black">TKDE + σ</text></g></g>
 </g>
</svg>