<svg xmlns="http://www.w3.org/2000/svg" viewBox="0 0 598 775" preserveAspectRatio="none" width="598" height="775">
 <path d="M0,0H598V775H0Z" style="fill: white;"></path>
 <g>
  <svg viewBox="0 0 586 243" preserveAspectRatio="none" x="6" y="8" width="586" height="243">
   <path d="M0,0H586V243H0Z" style="fill: white;"></path>
   <g>
    <g transform="translate(59,24)">
     <path d="M0,0H469V194H0Z" style="fill: white; stroke: black; stroke-width: 1;"></path>
     <svg x="0" y="0" overflow="hidden" width="469" height="194" viewBox="0 0 469 194">
      <g>
       <path d="M2.5,194C3.4,194,5.2,194,7,194S9.6,194,11.5,194S14.6,194,16.5,194S19.2,194,21,193.99S23.6,193.99,25.5,193.99S28.5,193.99,30.5,193.99S33.6,193.98,35.5,193.98S38.2,193.97,40,193.97S42.6,193.96,44.5,193.95S47.6,193.94,49.5,193.92S52.2,193.91,54,193.89S56.6,193.86,58.5,193.84S61.6,193.8,63.5,193.76S66.2,193.71,68,193.66S70.6,193.59,72.5,193.52S75.6,193.42,77.5,193.32S80.2,193.18,82,193.06S84.6,192.87,86.5,192.7S89.6,192.45,91.5,192.23S94.2,191.9,96,191.62S98.6,191.18,100.5,190.81S103.5,190.25,105.5,189.78S108.6,189.07,110.5,188.48S113.2,187.57,115,186.84S117.6,185.71,119.5,184.8S122.6,183.41,124.5,182.31S127.2,180.61,129,179.28S131.6,177.24,133.5,175.66S136.6,173.23,138.5,171.37S141.2,168.52,143,166.37S145.6,163.06,147.5,160.58S150.6,156.79,152.5,153.99S155.2,149.71,157,146.58S159.6,141.8,161.5,138.35S164.5,133.09,166.5,129.34S169.6,123.64,171.5,119.63S174.2,113.53,176,109.3S178.6,102.89,180.5,98.51S183.6,91.86,185.5,87.4S188.2,80.65,190,76.19S192.6,69.46,194.5,65.1S197.6,58.53,199.5,54.36S202.2,48.11,204,44.23S206.6,38.46,208.5,34.97S211.6,29.82,213.5,26.82S216.2,22.42,218,20S220.6,16.48,222.5,14.7S225.5,12.17,227.5,11.08S230.6,9.61,232.5,9.24S235.2,8.87,237,9.24S239.6,9.98,241.5,11.08S244.6,12.91,246.5,14.7S249.2,17.57,251,20S253.6,23.83,255.5,26.82S258.6,31.49,260.5,34.97S263.2,40.36,265,44.23S267.6,50.19,269.5,54.36S272.6,60.73,274.5,65.1S277.2,71.73,279,76.19S281.6,82.94,283.5,87.4S286.6,94.13,288.5,98.51S291.2,105.08,293,109.3S295.6,115.62,297.5,119.63S300.5,125.6,302.5,129.34S305.6,134.9,307.5,138.35S310.2,143.45,312,146.58S314.6,151.19,316.5,153.99S319.6,158.11,321.5,160.58S324.2,164.21,326,166.37S328.6,169.52,330.5,171.37S333.6,174.08,335.5,175.66S338.2,177.95,340,179.28S342.6,181.2,344.5,182.31S347.6,183.9,349.5,184.8S352.2,186.1,354,186.84S356.6,187.89,358.5,188.48S361.5,189.32,363.5,189.78S366.6,190.45,368.5,190.81S371.2,191.33,373,191.62S375.6,192.02,377.5,192.23S380.6,192.54,382.5,192.7S385.2,192.94,387,193.06S389.6,193.23,391.5,193.32S394.6,193.45,396.5,193.52S399.2,193.61,401,193.66S403.6,193.73,405.5,193.76S408.6,193.81,410.5,193.84S413.2,193.87,415,193.89S417.6,193.91,419.5,193.92S422.6,193.94,424.5,193.95S427.2,193.96,429,193.97S431.6,193.97,433.5,193.98S436.5,193.98,438.5,193.99S441.6,193.99,443.5,193.99S446.2,193.99,448,193.99S450.6,194,452.5,194S455.6,194,457.5,194S460.2,194,462,194S465.6,194,466.5,194" style="fill: none; stroke: #0000ff; stroke-width: 2;"></path>
      </g>
     </svg>
     <g>
      <g transform="translate(0,194)">
       <path d="M0,0h469M0,-7V0M9,-4V0M19,-4V0M28,-4V0M38,-4V0M47,-7V0M56,-4V0M66,-4V0M75,-4V0M84,-4V0M94,-7V0M103,-4V0M113,-4V0M122,-4V0M131,-4V0M141,-7V0M150,-4V0M159,-4V0M169,-4V0M178,-4V0M188,-7V0M197,-4V0M206,-4V0M216,-4V0M225,-4V0M235,-7V0M244,-4V0M253,-4V0M263,-4V0M272,-4V0M281,-7V0M291,-4V0M300,-4V0M310,-4V0M319,-4V0M328,-7V0M338,-4V0M347,-4V0M356,-4V0M366,-4V0M375,-7V0M385,-4V0M394,-4V0M403,-4V0M413,-4V0M422,-7V0M431,-4V0M441,-4V0M450,-4V0M460,-4V0M469,-7V0" style="stroke: black; stroke-width: 1;"></path>
       <g font-family="Arial" font-size="9" space="preserve" fill="black" text-anchor="middle">
        <text dy=".8em" transform="translate(0,1)">
         -5
        </text>
        <text dy=".8em" transform="translate(47,1)">
         -4
        </text>
        <text dy=".8em" transform="translate(94,1)">
         -3
        </text>
        <text dy=".8em" transform="translate(141,1)">
         -2
        </text>
        <text dy=".8em" transform="translate(188,1)">
         -1
        </text>
        <text dy=".8em" transform="translate(235,1)">
         0
        </text>
        <text dy=".8em" transform="translate(281,1)">
         1
        </text>
        <text dy=".8em" transform="translate(328,1)">
         2
        </text>
        <text dy=".8em" transform="translate(375,1)">
         3
        </text>
        <text dy=".8em" transform="translate(422,1)">
         4
        </text>
        <text dy=".8em" transform="translate(469,1)">
         5
        </text>
       </g>
      </g>
      <g>
       <path d="M0,0v194M18,194H0M9,189H0M9,185H0M9,180H0M9,175H0M18,171H0M9,166H0M9,162H0M9,157H0M9,152H0M18,148H0M9,143H0M9,138H0M9,134H0M9,129H0M18,124H0M9,120H0M9,115H0M9,111H0M9,106H0M18,101H0M9,97H0M9,92H0M9,87H0M9,83H0M18,78H0M9,73H0M9,69H0M9,64H0M9,60H0M18,55H0M9,50H0M9,46H0M9,41H0M9,36H0M18,32H0M9,27H0M9,22H0M9,18H0M9,13H0M18,9H0M9,4H0" style="stroke: black; stroke-width: 1;"></path>
       <g font-family="Arial" font-size="9" space="preserve" fill="black" text-anchor="end">
        <text dy=".4em" transform="translate(-2,194)">
         0
        </text>
        <text dy=".4em" transform="translate(-2,171)">
         0.05
        </text>
        <text dy=".4em" transform="translate(-2,148)">
         0.1
        </text>
        <text dy=".4em" transform="translate(-2,124)">
         0.15
        </text>
        <text dy=".4em" transform="translate(-2,101)">
         0.2
        </text>
        <text dy=".4em" transform="translate(-2,78)">
         0.25
        </text>
        <text dy=".4em" transform="translate(-2,55)">
         0.3
        </text>
        <text dy=".4em" transform="translate(-2,32)">
         0.35
        </text>
        <text dy=".4em" transform="translate(-2,9)">
         0.4
        </text>
       </g>
      </g>
     </g>
    </g>
    <g transform="translate(342,35)" font-family="Arial" font-size="21" space="preserve">
     <path d="M0,0H177V61H0Z" style="fill: white; stroke: black; stroke-width: 1;"></path>
     <path d="M5,31H39" style="stroke: #0000ff; stroke-width: 2;"></path>
     <text fill="black" text-anchor="start" dy=".4em" transform="translate(44,31)">
      normal_pdf
     </text>
    </g>
   </g>
  </svg>
  <svg viewBox="0 0 586 243" preserveAspectRatio="none" x="6" y="266" width="586" height="243">
   <path d="M0,0H586V243H0Z" style="fill: white;"></path>
   <g>
    <g transform="translate(59,24)">
     <path d="M0,0H469V194H0Z" style="fill: white; stroke: black; stroke-width: 1;"></path>
     <svg x="0" y="0" overflow="hidden" width="469" height="194" viewBox="0 0 469 194">
      <g>
       <path d="M2.5,194C3.4,194,5.2,194,7,194S9.6,194,11.5,194S14.6,194,16.5,194S19.2,194,21,194S23.6,194,25.5,194S28.5,194,30.5,194S33.6,194,35.5,194S38.2,194,40,194S42.6,194,44.5,194S47.6,193.99,49.5,193.99S52.2,193.99,54,193.99S56.6,193.99,58.5,193.98S61.6,193.98,63.5,193.98S66.2,193.97,68,193.96S70.6,193.96,72.5,193.95S75.6,193.94,77.5,193.93S80.2,193.91,82,193.89S84.6,193.87,86.5,193.85S89.6,193.82,91.5,193.79S94.2,193.74,96,193.71S98.6,193.65,100.5,193.6S103.5,193.52,105.5,193.45S108.6,193.35,110.5,193.26S113.2,193.12,115,193S117.6,192.83,119.5,192.68S122.6,192.45,124.5,192.27S127.2,191.98,129,191.74S131.6,191.38,133.5,191.08S136.6,190.63,138.5,190.27S141.2,189.71,143,189.27S145.6,188.59,147.5,188.06S150.6,187.24,152.5,186.6S155.2,185.62,157,184.86S159.6,183.7,161.5,182.81S164.5,181.45,166.5,180.41S169.6,178.83,171.5,177.65S174.2,175.83,176,174.48S178.6,172.41,180.5,170.89S183.6,168.57,185.5,166.87S188.2,164.27,190,162.4S192.6,159.53,194.5,157.48S197.6,154.35,199.5,152.13S202.2,148.74,204,146.36S206.6,142.74,208.5,140.2S211.6,136.36,213.5,133.7S216.2,129.67,218,126.9S220.6,122.71,222.5,119.86S225.5,115.54,227.5,112.63S230.6,108.24,232.5,105.3S235.2,100.87,237,97.94S239.6,93.51,241.5,90.6S244.6,86.24,246.5,83.38S249.2,79.11,251,76.34S253.6,72.2,255.5,69.54S258.6,65.56,260.5,63.03S263.2,59.26,265,56.88S267.6,53.33,269.5,51.11S272.6,47.81,274.5,45.76S277.2,42.72,279,40.84S281.6,38.07,283.5,36.37S286.6,33.87,288.5,32.35S291.2,30.11,293,28.76S295.6,26.78,297.5,25.59S300.5,23.86,302.5,22.82S305.6,21.32,307.5,20.43S310.2,19.14,312,18.38S314.6,17.28,316.5,16.64S319.6,15.71,321.5,15.18S324.2,14.41,326,13.97S328.6,13.33,330.5,12.97S333.6,12.45,335.5,12.15S338.2,11.73,340,11.5S342.6,11.16,344.5,10.97S347.6,10.71,349.5,10.56S352.2,10.35,354,10.23S356.6,10.07,358.5,9.98S361.5,9.86,363.5,9.79S366.6,9.69,368.5,9.64S371.2,9.57,373,9.53S375.6,9.48,377.5,9.45S380.6,9.41,382.5,9.39S385.2,9.36,387,9.34S389.6,9.32,391.5,9.31S394.6,9.3,396.5,9.29S399.2,9.28,401,9.27S403.6,9.27,405.5,9.26S408.6,9.26,410.5,9.25S413.2,9.25,415,9.25S417.6,9.25,419.5,9.25S422.6,9.24,424.5,9.24S427.2,9.24,429,9.24S431.6,9.24,433.5,9.24S436.5,9.24,438.5,9.24S441.6,9.24,443.5,9.24S446.2,9.24,448,9.24S450.6,9.24,452.5,9.24S455.6,9.24,457.5,9.24S460.2,9.24,462,9.24S465.6,9.24,466.5,9.24" style="fill: none; stroke: #ff0000; stroke-width: 2;"></path>
      </g>
      <g>
       <path d="M2.5,9.24C3.4,9.24,5.2,9.24,7,9.24S9.6,9.24,11.5,9.24S14.6,9.24,16.5,9.24S19.2,9.24,21,9.24S23.6,9.24,25.5,9.24S28.5,9.24,30.5,9.24S33.6,9.24,35.5,9.24S38.2,9.24,40,9.24S42.6,9.24,44.5,9.24S47.6,9.24,49.5,9.25S52.2,9.25,54,9.25S56.6,9.25,58.5,9.25S61.6,9.26,63.5,9.26S66.2,9.27,68,9.27S70.6,9.28,72.5,9.29S75.6,9.3,77.5,9.31S80.2,9.33,82,9.34S84.6,9.37,86.5,9.39S89.6,9.42,91.5,9.45S94.2,9.49,96,9.53S98.6,9.59,100.5,9.64S103.5,9.72,105.5,9.79S108.6,9.89,110.5,9.98S113.2,10.12,115,10.23S117.6,10.41,119.5,10.56S122.6,10.78,124.5,10.97S127.2,11.26,129,11.5S131.6,11.86,133.5,12.15S136.6,12.6,138.5,12.97S141.2,13.52,143,13.97S145.6,14.64,147.5,15.18S150.6,16,152.5,16.64S155.2,17.62,157,18.38S159.6,19.54,161.5,20.43S164.5,21.79,166.5,22.82S169.6,24.4,171.5,25.59S174.2,27.41,176,28.76S178.6,30.82,180.5,32.35S183.6,34.67,185.5,36.37S188.2,38.97,190,40.84S192.6,43.71,194.5,45.76S197.6,48.89,199.5,51.11S202.2,54.49,204,56.88S206.6,60.5,208.5,63.03S211.6,66.88,213.5,69.54S216.2,73.57,218,76.34S220.6,80.53,222.5,83.38S225.5,87.69,227.5,90.6S230.6,95,232.5,97.94S235.2,102.36,237,105.3S239.6,109.72,241.5,112.63S244.6,117,246.5,119.86S249.2,124.13,251,126.9S253.6,131.04,255.5,133.7S258.6,137.67,260.5,140.2S263.2,143.98,265,146.36S267.6,149.9,269.5,152.13S272.6,155.43,274.5,157.48S277.2,160.52,279,162.4S281.6,165.17,283.5,166.87S286.6,169.37,288.5,170.89S291.2,173.13,293,174.48S295.6,176.46,297.5,177.65S300.5,179.38,302.5,180.41S305.6,181.92,307.5,182.81S310.2,184.1,312,184.86S314.6,185.96,316.5,186.6S319.6,187.52,321.5,188.06S324.2,188.83,326,189.27S328.6,189.91,330.5,190.27S333.6,190.79,335.5,191.08S338.2,191.51,340,191.74S342.6,192.08,344.5,192.27S347.6,192.53,349.5,192.68S352.2,192.89,354,193S356.6,193.17,358.5,193.26S361.5,193.38,363.5,193.45S366.6,193.54,368.5,193.6S371.2,193.67,373,193.71S375.6,193.76,377.5,193.79S380.6,193.83,382.5,193.85S385.2,193.88,387,193.89S389.6,193.91,391.5,193.93S394.6,193.94,396.5,193.95S399.2,193.96,401,193.96S403.6,193.97,405.5,193.98S408.6,193.98,410.5,193.98S413.2,193.99,415,193.99S417.6,193.99,419.5,193.99S422.6,193.99,424.5,194S427.2,194,429,194S431.6,194,433.5,194S436.5,194,438.5,194S441.6,194,443.5,194S446.2,194,448,194S450.6,194,452.5,194S455.6,194,457.5,194S460.2,194,462,194S465.6,194,466.5,194" style="fill: none; stroke: #00ff00; stroke-width: 2;"></path>
      </g>
     </svg>
     <g>
      <g transform="translate(0,194)">
       <path d="M0,0h469M0,-7V0M9,-4V0M19,-4V0M28,-4V0M38,-4V0M47,-7V0M56,-4V0M66,-4V0M75,-4V0M84,-4V0M94,-7V0M103,-4V0M113,-4V0M122,-4V0M131,-4V0M141,-7V0M150,-4V0M159,-4V0M169,-4V0M178,-4V0M188,-7V0M197,-4V0M206,-4V0M216,-4V0M225,-4V0M235,-7V0M244,-4V0M253,-4V0M263,-4V0M272,-4V0M281,-7V0M291,-4V0M300,-4V0M310,-4V0M319,-4V0M328,-7V0M338,-4V0M347,-4V0M356,-4V0M366,-4V0M375,-7V0M385,-4V0M394,-4V0M403,-4V0M413,-4V0M422,-7V0M431,-4V0M441,-4V0M450,-4V0M460,-4V0M469,-7V0" style="stroke: black; stroke-width: 1;"></path>
       <g font-family="Arial" font-size="9" space="preserve" fill="black" text-anchor="middle">
        <text dy=".8em" transform="translate(0,1)">
         -5
        </text>
        <text dy=".8em" transform="translate(47,1)">
         -4
        </text>
        <text dy=".8em" transform="translate(94,1)">
         -3
        </text>
        <text dy=".8em" transform="translate(141,1)">
         -2
        </text>
        <text dy=".8em" transform="translate(188,1)">
         -1
        </text>
        <text dy=".8em" transform="translate(235,1)">
         0
        </text>
        <text dy=".8em" transform="translate(281,1)">
         1
        </text>
        <text dy=".8em" transform="translate(328,1)">
         2
        </text>
        <text dy=".8em" transform="translate(375,1)">
         3
        </text>
        <text dy=".8em" transform="translate(422,1)">
         4
        </text>
        <text dy=".8em" transform="translate(469,1)">
         5
        </text>
       </g>
      </g>
      <g>
       <path d="M0,0v194M18,194H0M9,190H0M9,187H0M9,183H0M9,179H0M18,176H0M9,172H0M9,168H0M9,164H0M9,161H0M18,157H0M9,153H0M9,150H0M9,146H0M9,142H0M18,139H0M9,135H0M9,131H0M9,127H0M9,124H0M18,120H0M9,116H0M9,113H0M9,109H0M9,105H0M18,102H0M9,98H0M9,94H0M9,91H0M9,87H0M18,83H0M9,79H0M9,76H0M9,72H0M9,68H0M18,65H0M9,61H0M9,57H0M9,54H0M9,50H0M18,46H0M9,42H0M9,39H0M9,35H0M9,31H0M18,28H0M9,24H0M9,20H0M9,17H0M9,13H0M18,9H0M9,6H0M9,2H0" style="stroke: black; stroke-width: 1;"></path>
       <g font-family="Arial" font-size="9" space="preserve" fill="black" text-anchor="end">
        <text dy=".4em" transform="translate(-2,194)">
         0
        </text>
        <text dy=".4em" transform="translate(-2,176)">
         0.1
        </text>
        <text dy=".4em" transform="translate(-2,157)">
         0.2
        </text>
        <text dy=".4em" transform="translate(-2,139)">
         0.3
        </text>
        <text dy=".4em" transform="translate(-2,120)">
         0.4
        </text>
        <text dy=".4em" transform="translate(-2,102)">
         0.5
        </text>
        <text dy=".4em" transform="translate(-2,83)">
         0.6
        </text>
        <text dy=".4em" transform="translate(-2,65)">
         0.7
        </text>
        <text dy=".4em" transform="translate(-2,46)">
         0.8
        </text>
        <text dy=".4em" transform="translate(-2,28)">
         0.9
        </text>
        <text dy=".4em" transform="translate(-2,9)">
         1
        </text>
       </g>
      </g>
     </g>
    </g>
    <g transform="translate(343,70)" font-family="Arial" font-size="17" space="preserve">
     <path d="M0,0H177V60H0Z" style="fill: white; stroke: black; stroke-width: 1;"></path>
     <path d="M5,16H39" style="stroke: #ff0000; stroke-width: 2;"></path>
     <text fill="black" text-anchor="start" dy=".4em" transform="translate(44,16)">
      normal_cdf
     </text>
     <path d="M5,44H39" style="stroke: #00ff00; stroke-width: 2;"></path>
     <text fill="black" text-anchor="start" dy=".4em" transform="translate(44,44)">
      normal_cdf_c
     </text>
    </g>
   </g>
  </svg>
  <svg viewBox="0 0 586 243" preserveAspectRatio="none" x="6" y="524" width="586" height="243">
   <path d="M0,0H586V243H0Z" style="fill: white;"></path>
   <g>
    <g transform="translate(59,24)">
     <path d="M0,0H469V194H0Z" style="fill: white; stroke: black; stroke-width: 1;"></path>
     <svg x="0" y="0" overflow="hidden" width="469" height="194" viewBox="0 0 469 194">
      <g>
       <path d="M0,185.18C0.07,183.45,0.3,179.12,0.5,176.53S0.8,173.68,1,172.22S1.3,170.32,1.5,169.27S1.8,167.83,2,167S2.3,165.83,2.5,165.14S2.8,164.15,3,163.56S3.3,162.7,3.5,162.18S3.8,161.43,4,160.96S4.3,160.28,4.5,159.86S4.8,159.24,5,158.85S5.3,158.28,5.5,157.93S5.8,157.4,6,157.07S6.3,156.58,6.5,156.27S6.8,155.81,7,155.51S7.3,155.08,7.5,154.81S7.8,154.52,8,154.14S8.3,153.26,8.5,152.9S8.7,152.65,9,152.32S9.6,151.65,10,151.23S10.6,150.62,11,150.23S11.6,149.66,12,149.3S12.6,148.76,13,148.42S13.7,147.84,14,147.6S14.3,147.36,14.5,147.21S14.9,146.98,15,146.82S14.8,146.67,15,146.45S15.7,145.94,16,145.73S16.3,145.52,16.5,145.38S16.7,145.24,17,145.05S17.6,144.65,18,144.39S18.7,143.95,19,143.76S19.3,143.58,19.5,143.46S19.7,143.33,20,143.16S20.7,142.75,21,142.58S21.3,142.41,21.5,142.29S21.7,142.18,22,142.02S22.6,141.74,23,141.47S23.7,140.9,24,140.69S24.3,140.54,24.5,140.44S24.7,140.34,25,140.19S25.7,139.85,26,139.71S26.3,139.57,26.5,139.47S26.7,139.38,27,139.24S27.6,138.96,28,138.78S28.6,138.51,29,138.33S29.7,138.07,30,137.9S30.3,137.6,30.5,137.47S30.7,137.39,31,137.26S31.6,137.01,32,136.85S32.6,136.61,33,136.45S33.6,136.21,34,136.06S34.7,135.79,35,135.67S35.3,135.56,35.5,135.48S35.7,135.41,36,135.3S36.6,135.07,37,134.93S37.8,134.67,38,134.56S37.8,134.49,38,134.39S38.6,134.17,39,134.03S39.6,133.82,40,133.69S40.6,133.48,41,133.35S41.6,133.15,42,133.01S42.6,132.81,43,132.68S43.6,132.49,44,132.36S44.6,132.2,45,132.04S45.7,131.7,46,131.57S46.3,131.48,46.5,131.42S46.7,131.36,47,131.27S47.6,131.09,48,130.97S48.6,130.79,49,130.67S49.6,130.49,50,130.37S50.6,130.2,51,130.08S51.6,129.91,52,129.8S52.8,129.6,53,129.52S52.8,129.46,53,129.38S53.6,129.21,54,129.1S54.6,128.93,55,128.83S55.7,128.64,56,128.56S56.3,128.47,56.5,128.42S56.7,128.37,57,128.29S57.6,128.13,58,128.02S58.6,127.87,59,127.76S59.7,127.58,60,127.5S60.3,127.43,60.5,127.38S60.7,127.35,61,127.25S61.6,127,62,126.87S62.7,126.7,63,126.62S63.3,126.55,63.5,126.5S63.7,126.45,64,126.38S64.6,126.23,65,126.13S65.6,125.99,66,125.89S66.6,125.75,67,125.65S67.6,125.53,68,125.42S68.6,125.18,69,125.06S69.6,124.92,70,124.83S70.7,124.67,71,124.6S71.3,124.53,71.5,124.49S71.7,124.44,72,124.38S72.6,124.24,73,124.15S73.6,124.02,74,123.93S74.6,123.79,75,123.71S75.6,123.59,76,123.49S76.6,123.27,77,123.16S77.6,123.03,78,122.94S78.6,122.81,79,122.73S79.7,122.58,80,122.52S80.3,122.45,80.5,122.41S80.7,122.37,81,122.31S81.6,122.18,82,122.1S82.6,121.99,83,121.89S83.7,121.66,84,121.58S84.3,121.52,84.5,121.48S84.7,121.44,85,121.38S85.6,121.26,86,121.18S86.6,121.05,87,120.97S87.6,120.85,88,120.77S88.7,120.64,89,120.58S89.3,120.52,89.5,120.48S89.7,120.44,90,120.38S90.6,120.28,91,120.18S91.6,119.99,92,119.89S92.6,119.78,93,119.7S93.7,119.56,94,119.51S94.3,119.45,94.5,119.41S94.7,119.37,95,119.32S95.6,119.2,96,119.13S96.6,119.01,97,118.94S97.6,118.84,98,118.75S98.6,118.56,99,118.47S99.6,118.36,100,118.29S100.6,118.18,101,118.1S101.6,117.99,102,117.92S102.6,117.81,103,117.74S103.7,117.61,104,117.56S104.3,117.5,104.5,117.47S104.7,117.43,105,117.38S105.6,117.29,106,117.2S106.6,117.02,107,116.93S107.6,116.83,108,116.76S108.7,116.63,109,116.58S109.3,116.53,109.5,116.49S109.7,116.46,110,116.41S110.6,116.3,111,116.23S111.6,116.13,112,116.06S112.6,115.97,113,115.88S113.6,115.71,114,115.63S114.6,115.52,115,115.46S115.6,115.35,116,115.29S116.6,115.19,117,115.12S117.6,115.02,118,114.95S118.6,114.85,119,114.78S119.6,114.68,120,114.61S120.6,114.53,121,114.45S121.6,114.28,122,114.2S122.6,114.1,123,114.03S123.6,113.94,124,113.87S124.6,113.77,125,113.71S125.7,113.59,126,113.54S126.3,113.5,126.5,113.46S126.7,113.43,127,113.38S127.6,113.28,128,113.22S128.6,113.14,129,113.06S129.6,112.9,130,112.82S130.6,112.72,131,112.66S131.7,112.55,132,112.5S132.3,112.45,132.5,112.42S132.7,112.39,133,112.34S133.6,112.25,134,112.18S134.6,112.09,135,112.03S135.6,111.95,136,111.87S136.6,111.71,137,111.63S137.6,111.54,138,111.48S138.6,111.39,139,111.32S139.6,111.23,140,111.17S140.6,111.08,141,111.01S141.6,110.92,142,110.86S142.6,110.77,143,110.71S143.8,110.6,144,110.55S143.8,110.52,144,110.48S144.6,110.39,145,110.33S145.6,110.23,146,110.17S146.6,110.08,147,110.02S147.6,109.93,148,109.87S148.6,109.78,149,109.72S149.7,109.62,150,109.57S150.3,109.53,150.5,109.5S150.7,109.48,151,109.42S151.6,109.27,152,109.2S152.6,109.11,153,109.05S153.6,108.96,154,108.9S154.6,108.81,155,108.75S155.6,108.66,156,108.6S156.6,108.52,157,108.46S157.6,108.37,158,108.31S158.6,108.24,159,108.16S159.6,108.02,160,107.94S160.6,107.86,161,107.8S161.6,107.71,162,107.65S162.7,107.55,163,107.51S163.3,107.46,163.5,107.43S163.7,107.41,164,107.36S164.6,107.28,165,107.22S165.6,107.15,166,107.07S166.6,106.93,167,106.86S167.6,106.77,168,106.71S168.7,106.61,169,106.57S169.3,106.53,169.5,106.5S169.7,106.47,170,106.43S170.6,106.34,171,106.28S171.6,106.2,172,106.14S172.6,106.06,173,106S173.6,105.93,174,105.86S174.6,105.72,175,105.65S175.7,105.55,176,105.5S176.3,105.46,176.5,105.43S176.7,105.4,177,105.36S177.6,105.28,178,105.22S178.6,105.14,179,105.08S179.6,105,180,104.94S180.6,104.86,181,104.8S181.6,104.73,182,104.66S182.6,104.52,183,104.45S183.6,104.37,184,104.31S184.6,104.23,185,104.17S185.6,104.09,186,104.03S186.6,103.95,187,103.89S187.6,103.81,188,103.75S188.7,103.67,189,103.62S189.3,103.52,189.5,103.48S189.7,103.45,190,103.41S190.6,103.33,191,103.27S191.6,103.19,192,103.13S192.6,103.05,193,102.99S193.6,102.91,194,102.86S194.6,102.77,195,102.72S195.6,102.64,196,102.58S196.6,102.51,197,102.44S197.6,102.31,198,102.24S198.6,102.16,199,102.1S199.6,102.02,200,101.97S200.6,101.88,201,101.83S201.6,101.75,202,101.69S202.7,101.6,203,101.56S203.3,101.52,203.5,101.49S203.7,101.47,204,101.42S204.6,101.28,205,101.22S205.6,101.13,206,101.08S206.6,101,207,100.94S207.6,100.86,208,100.81S208.6,100.73,209,100.67S209.7,100.58,210,100.54S210.3,100.5,210.5,100.47S210.7,100.44,211,100.4S211.6,100.33,212,100.27S212.6,100.13,213,100.06S213.6,99.98,214,99.93S214.6,99.85,215,99.79S215.6,99.71,216,99.66S216.7,99.56,217,99.52S217.3,99.48,217.5,99.46S217.7,99.43,218,99.39S218.6,99.32,219,99.25S219.6,99.12,220,99.05S220.6,98.97,221,98.92S221.6,98.84,222,98.78S222.6,98.7,223,98.65S223.7,98.55,224,98.51S224.3,98.47,224.5,98.44S224.7,98.42,225,98.38S225.6,98.3,226,98.24S226.6,98.18,227,98.11S227.6,97.97,228,97.91S228.6,97.83,229,97.77S229.6,97.69,230,97.64S230.7,97.54,231,97.5S231.3,97.46,231.5,97.44S231.7,97.41,232,97.37S232.6,97.29,233,97.24S233.6,97.15,234,97.1S234.6,97.03,235,96.97S235.6,96.83,236,96.76S236.6,96.68,237,96.63S237.6,96.55,238,96.5S238.6,96.42,239,96.36S239.6,96.28,240,96.23S240.6,96.15,241,96.09S241.6,96.03,242,95.96S242.6,95.82,243,95.76S243.6,95.68,244,95.62S244.6,95.54,245,95.49S245.6,95.41,246,95.35S246.6,95.27,247,95.22S247.6,95.14,248,95.08S248.6,95,249,94.95S249.6,94.88,250,94.81S250.6,94.68,251,94.61S251.6,94.53,252,94.48S252.6,94.4,253,94.34S253.6,94.26,254,94.21S254.6,94.13,255,94.07S255.6,93.99,256,93.94S256.6,93.87,257,93.8S257.6,93.67,258,93.6S258.6,93.52,259,93.46S259.6,93.38,260,93.33S260.6,93.25,261,93.19S261.6,93.11,262,93.06S262.6,92.97,263,92.92S263.6,92.84,264,92.78S264.6,92.72,265,92.65S265.6,92.51,266,92.44S266.6,92.36,267,92.31S267.6,92.23,268,92.17S268.6,92.09,269,92.03S269.6,91.95,270,91.9S270.6,91.82,271,91.76S271.7,91.68,272,91.62S272.3,91.53,272.5,91.49S272.7,91.46,273,91.42S273.6,91.34,274,91.28S274.6,91.2,275,91.14S275.6,91.06,276,91.01S276.6,90.92,277,90.87S277.6,90.78,278,90.73S278.6,90.65,279,90.59S279.6,90.52,280,90.45S280.6,90.31,281,90.25S281.6,90.16,282,90.11S282.6,90.02,283,89.97S283.6,89.88,284,89.83S284.6,89.74,285,89.69S285.7,89.59,286,89.55S286.3,89.51,286.5,89.48S286.7,89.47,287,89.41S287.6,89.27,288,89.2S288.6,89.12,289,89.06S289.6,88.98,290,88.92S290.6,88.83,291,88.78S291.6,88.69,292,88.64S292.6,88.55,293,88.5S293.6,88.41,294,88.35S294.6,88.28,295,88.21S295.6,88.07,296,88S296.6,87.91,297,87.86S297.6,87.77,298,87.72S298.6,87.63,299,87.57S299.6,87.49,300,87.43S300.6,87.34,301,87.29S301.6,87.2,302,87.14S302.6,87.07,303,87S303.6,86.85,304,86.78S304.6,86.7,305,86.64S305.6,86.55,306,86.49S306.6,86.41,307,86.35S307.6,86.26,308,86.2S308.6,86.11,309,86.06S309.6,85.98,310,85.91S310.6,85.76,311,85.69S311.7,85.59,312,85.54S312.3,85.5,312.5,85.47S312.7,85.44,313,85.4S313.6,85.31,314,85.25S314.6,85.16,315,85.1S315.6,85.01,316,84.95S316.6,84.86,317,84.8S317.6,84.73,318,84.65S318.6,84.5,319,84.43S319.6,84.34,320,84.28S320.6,84.19,321,84.13S321.6,84.04,322,83.98S322.6,83.89,323,83.83S323.6,83.73,324,83.67S324.8,83.57,325,83.52S324.8,83.49,325,83.45S325.6,83.35,326,83.29S326.6,83.2,327,83.14S327.6,83.05,328,82.99S328.6,82.89,329,82.83S329.6,82.74,330,82.68S330.7,82.57,331,82.52S331.3,82.47,331.5,82.44S331.7,82.41,332,82.37S332.6,82.29,333,82.21S333.6,82.05,334,81.97S334.6,81.88,335,81.82S335.6,81.72,336,81.66S336.6,81.56,337,81.5S337.6,81.4,338,81.34S338.6,81.25,339,81.18S339.6,81.1,340,81.02S340.6,80.86,341,80.78S341.6,80.68,342,80.62S342.6,80.52,343,80.46S343.6,80.36,344,80.29S344.6,80.19,345,80.13S345.6,80.03,346,79.97S346.6,79.87,347,79.8S347.7,79.7,348,79.64S348.3,79.52,348.5,79.47S348.7,79.44,349,79.39S349.6,79.29,350,79.22S350.6,79.12,351,79.05S351.6,78.95,352,78.88S352.6,78.78,353,78.71S353.7,78.59,354,78.54S354.3,78.49,354.5,78.46S354.7,78.42,355,78.37S355.6,78.29,356,78.2S356.6,78.03,357,77.94S357.6,77.84,358,77.77S358.6,77.66,359,77.59S359.6,77.49,360,77.42S360.6,77.31,361,77.24S361.6,77.14,362,77.07S362.6,76.98,363,76.89S363.6,76.71,364,76.62S364.6,76.51,365,76.44S365.6,76.33,366,76.26S366.6,76.15,367,76.08S367.6,75.97,368,75.9S368.6,75.79,369,75.71S369.7,75.58,370,75.53S370.3,75.47,370.5,75.44S370.7,75.42,371,75.34S371.6,75.16,372,75.06S372.6,74.95,373,74.87S373.6,74.76,374,74.68S374.6,74.57,375,74.49S375.6,74.38,376,74.3S376.6,74.19,377,74.11S377.6,74.01,378,73.91S378.6,73.72,379,73.62S379.6,73.5,380,73.42S380.6,73.31,381,73.23S381.6,73.11,382,73.03S382.6,72.91,383,72.82S383.6,72.7,384,72.62S384.6,72.5,385,72.42S385.6,72.32,386,72.21S386.6,72.01,387,71.9S387.6,71.78,388,71.69S388.6,71.57,389,71.48S389.6,71.36,390,71.27S390.6,71.14,391,71.06S391.6,70.93,392,70.84S392.7,70.71,393,70.62S393.3,70.47,393.5,70.4S393.7,70.36,394,70.29S394.6,70.16,395,70.07S395.6,69.94,396,69.85S396.6,69.71,397,69.62S397.6,69.49,398,69.4S398.6,69.26,399,69.17S399.6,69.03,400,68.94S400.7,68.8,401,68.7S401.3,68.54,401.5,68.47S401.7,68.42,402,68.35S402.6,68.21,403,68.11S403.6,67.96,404,67.87S404.6,67.72,405,67.62S405.6,67.48,406,67.38S406.6,67.23,407,67.13S407.6,67,408,66.88S408.6,66.62,409,66.5S409.6,66.34,410,66.24S410.6,66.08,411,65.98S411.6,65.82,412,65.71S412.6,65.55,413,65.44S413.6,65.28,414,65.17S414.6,65.01,415,64.9S415.8,64.71,416,64.62S415.8,64.57,416,64.48S416.6,64.32,417,64.2S417.6,64.03,418,63.92S418.7,63.71,419,63.63S419.3,63.54,419.5,63.48S419.7,63.42,420,63.33S420.6,63.15,421,63.03S421.6,62.85,422,62.73S422.6,62.55,423,62.43S423.6,62.27,424,62.11S424.7,61.77,425,61.64S425.3,61.54,425.5,61.48S425.7,61.41,426,61.32S426.6,61.12,427,60.99S427.7,60.75,428,60.65S428.3,60.55,428.5,60.48S428.7,60.42,429,60.31S429.6,60.11,430,59.97S430.8,59.72,431,59.61S430.8,59.54,431,59.44S431.6,59.22,432,59.07S432.6,58.85,433,58.7S433.6,58.48,434,58.33S434.6,58.1,435,57.94S435.7,57.67,436,57.55S436.3,57.43,436.5,57.35S436.7,57.27,437,57.15S437.6,56.9,438,56.74S438.6,56.53,439,56.32S439.7,55.84,440,55.67S440.3,55.54,440.5,55.45S440.7,55.36,441,55.22S441.6,54.95,442,54.76S442.6,54.48,443,54.29S443.6,54,444,53.81S444.6,53.51,445,53.31S445.7,53,446,52.79S446.3,52.42,446.5,52.26S446.7,52.15,447,51.98S447.6,51.65,448,51.42S448.6,51.08,449,50.84S449.6,50.49,450,50.24S450.7,49.8,451,49.61S451.3,49.42,451.5,49.29S451.7,49.16,452,48.95S452.6,48.55,453,48.27S453.8,47.77,454,47.55S453.8,47.41,454,47.18S454.6,46.72,455,46.4S455.7,45.83,456,45.58S456.3,45.32,456.5,45.15S456.8,44.88,457,44.7S457.3,44.43,457.5,44.24S457.8,43.96,458,43.77S458.3,43.48,458.5,43.28S458.8,42.98,459,42.77S459.3,42.45,459.5,42.24S459.8,41.91,460,41.68S460.3,41.34,460.5,41.1S460.8,40.88,461,40.5S461.3,39.6,461.5,39.19S461.7,38.94,462,38.49S462.7,37.42,463,36.93S463.3,36.43,463.5,36.07S463.8,35.54,464,35.15S464.3,34.56,464.5,34.14S464.8,33.5,465,33.04S465.3,32.34,465.5,31.82S465.8,31.03,466,30.44S466.3,29.55,466.5,28.86S466.8,27.83,467,27S467.3,25.77,467.5,24.73S467.8,23.23,468,21.78S468.3,20.06,468.5,17.47S468.93,10.55,469,8.82" style="fill: none; stroke: #ff0000; stroke-width: 2;"></path>
      </g>
      <g>
       <path d="M0,8.82C0.07,10.55,0.3,14.88,0.5,17.47S0.8,20.32,1,21.78S1.3,23.68,1.5,24.73S1.8,26.17,2,27S2.3,28.17,2.5,28.86S2.8,29.85,3,30.44S3.3,31.3,3.5,31.82S3.8,32.57,4,33.04S4.3,33.72,4.5,34.14S4.8,34.76,5,35.15S5.3,35.72,5.5,36.07S5.8,36.6,6,36.93S6.3,37.42,6.5,37.73S6.8,38.19,7,38.49S7.3,38.92,7.5,39.19S7.8,39.48,8,39.86S8.3,40.74,8.5,41.1S8.7,41.35,9,41.68S9.6,42.35,10,42.77S10.6,43.38,11,43.77S11.6,44.34,12,44.7S12.6,45.24,13,45.58S13.7,46.16,14,46.4S14.3,46.64,14.5,46.79S14.9,47.02,15,47.18S14.8,47.33,15,47.55S15.7,48.06,16,48.27S16.3,48.48,16.5,48.62S16.7,48.76,17,48.95S17.6,49.35,18,49.61S18.7,50.05,19,50.24S19.3,50.42,19.5,50.54S19.7,50.67,20,50.84S20.7,51.25,21,51.42S21.3,51.59,21.5,51.71S21.7,51.82,22,51.98S22.6,52.26,23,52.53S23.7,53.1,24,53.31S24.3,53.46,24.5,53.56S24.7,53.66,25,53.81S25.7,54.15,26,54.29S26.3,54.43,26.5,54.53S26.7,54.62,27,54.76S27.6,55.04,28,55.22S28.6,55.49,29,55.67S29.7,55.93,30,56.1S30.3,56.4,30.5,56.53S30.7,56.61,31,56.74S31.6,56.99,32,57.15S32.6,57.39,33,57.55S33.6,57.79,34,57.94S34.7,58.21,35,58.33S35.3,58.44,35.5,58.52S35.7,58.59,36,58.7S36.6,58.93,37,59.07S37.8,59.33,38,59.44S37.8,59.51,38,59.61S38.6,59.83,39,59.97S39.6,60.18,40,60.31S40.6,60.52,41,60.65S41.6,60.85,42,60.99S42.6,61.19,43,61.32S43.6,61.51,44,61.64S44.6,61.8,45,61.96S45.7,62.3,46,62.43S46.3,62.52,46.5,62.58S46.7,62.64,47,62.73S47.6,62.91,48,63.03S48.6,63.21,49,63.33S49.6,63.51,50,63.63S50.6,63.8,51,63.92S51.6,64.09,52,64.2S52.8,64.4,53,64.48S52.8,64.54,53,64.62S53.6,64.79,54,64.9S54.6,65.07,55,65.17S55.7,65.36,56,65.44S56.3,65.53,56.5,65.58S56.7,65.63,57,65.71S57.6,65.87,58,65.98S58.6,66.13,59,66.24S59.7,66.42,60,66.5S60.3,66.57,60.5,66.62S60.7,66.65,61,66.75S61.6,67,62,67.13S62.7,67.3,63,67.38S63.3,67.45,63.5,67.5S63.7,67.55,64,67.62S64.6,67.77,65,67.87S65.6,68.01,66,68.11S66.6,68.25,67,68.35S67.6,68.47,68,68.58S68.6,68.82,69,68.94S69.6,69.08,70,69.17S70.7,69.33,71,69.4S71.3,69.47,71.5,69.51S71.7,69.56,72,69.62S72.6,69.76,73,69.85S73.6,69.98,74,70.07S74.6,70.21,75,70.29S75.6,70.41,76,70.51S76.6,70.73,77,70.84S77.6,70.97,78,71.06S78.6,71.19,79,71.27S79.7,71.42,80,71.48S80.3,71.55,80.5,71.59S80.7,71.63,81,71.69S81.6,71.82,82,71.9S82.6,72.01,83,72.11S83.7,72.34,84,72.42S84.3,72.48,84.5,72.52S84.7,72.56,85,72.62S85.6,72.74,86,72.82S86.6,72.95,87,73.03S87.6,73.15,88,73.23S88.7,73.36,89,73.42S89.3,73.48,89.5,73.52S89.7,73.56,90,73.62S90.6,73.72,91,73.82S91.6,74.01,92,74.11S92.6,74.22,93,74.3S93.7,74.44,94,74.49S94.3,74.55,94.5,74.59S94.7,74.63,95,74.68S95.6,74.8,96,74.87S96.6,74.99,97,75.06S97.6,75.16,98,75.25S98.6,75.44,99,75.53S99.6,75.64,100,75.71S100.6,75.82,101,75.9S101.6,76.01,102,76.08S102.6,76.19,103,76.26S103.7,76.39,104,76.44S104.3,76.5,104.5,76.53S104.7,76.57,105,76.62S105.6,76.71,106,76.8S106.6,76.98,107,77.07S107.6,77.17,108,77.24S108.7,77.37,109,77.42S109.3,77.47,109.5,77.51S109.7,77.54,110,77.59S110.6,77.7,111,77.77S111.6,77.87,112,77.94S112.6,78.03,113,78.12S113.6,78.29,114,78.37S114.6,78.48,115,78.54S115.6,78.65,116,78.71S116.6,78.81,117,78.88S117.6,78.98,118,79.05S118.6,79.15,119,79.22S119.6,79.32,120,79.39S120.6,79.47,121,79.55S121.6,79.72,122,79.8S122.6,79.9,123,79.97S123.6,80.06,124,80.13S124.6,80.23,125,80.29S125.7,80.41,126,80.46S126.3,80.5,126.5,80.54S126.7,80.57,127,80.62S127.6,80.72,128,80.78S128.6,80.86,129,80.94S129.6,81.1,130,81.18S130.6,81.28,131,81.34S131.7,81.45,132,81.5S132.3,81.55,132.5,81.58S132.7,81.61,133,81.66S133.6,81.75,134,81.82S134.6,81.91,135,81.97S135.6,82.05,136,82.13S136.6,82.29,137,82.37S137.6,82.46,138,82.52S138.6,82.61,139,82.68S139.6,82.77,140,82.83S140.6,82.92,141,82.99S141.6,83.08,142,83.14S142.6,83.23,143,83.29S143.8,83.4,144,83.45S143.8,83.48,144,83.52S144.6,83.61,145,83.67S145.6,83.77,146,83.83S146.6,83.92,147,83.98S147.6,84.07,148,84.13S148.6,84.22,149,84.28S149.7,84.38,150,84.43S150.3,84.47,150.5,84.5S150.7,84.52,151,84.58S151.6,84.73,152,84.8S152.6,84.89,153,84.95S153.6,85.04,154,85.1S154.6,85.19,155,85.25S155.6,85.34,156,85.4S156.6,85.48,157,85.54S157.6,85.63,158,85.69S158.6,85.76,159,85.84S159.6,85.98,160,86.06S160.6,86.14,161,86.2S161.6,86.29,162,86.35S162.7,86.45,163,86.49S163.3,86.54,163.5,86.57S163.7,86.59,164,86.64S164.6,86.72,165,86.78S165.6,86.85,166,86.93S166.6,87.07,167,87.14S167.6,87.23,168,87.29S168.7,87.39,169,87.43S169.3,87.47,169.5,87.5S169.7,87.53,170,87.57S170.6,87.66,171,87.72S171.6,87.8,172,87.86S172.6,87.94,173,88S173.6,88.07,174,88.14S174.6,88.28,175,88.35S175.7,88.45,176,88.5S176.3,88.54,176.5,88.57S176.7,88.6,177,88.64S177.6,88.72,178,88.78S178.6,88.86,179,88.92S179.6,89,180,89.06S180.6,89.14,181,89.2S181.6,89.27,182,89.34S182.6,89.48,183,89.55S183.6,89.63,184,89.69S184.6,89.77,185,89.83S185.6,89.91,186,89.97S186.6,90.05,187,90.11S187.6,90.19,188,90.25S188.7,90.33,189,90.38S189.3,90.48,189.5,90.52S189.7,90.55,190,90.59S190.6,90.67,191,90.73S191.6,90.81,192,90.87S192.6,90.95,193,91.01S193.6,91.09,194,91.14S194.6,91.23,195,91.28S195.6,91.36,196,91.42S196.6,91.49,197,91.56S197.6,91.69,198,91.76S198.6,91.84,199,91.9S199.6,91.98,200,92.03S200.6,92.12,201,92.17S201.6,92.25,202,92.31S202.7,92.4,203,92.44S203.3,92.48,203.5,92.51S203.7,92.53,204,92.58S204.6,92.72,205,92.78S205.6,92.87,206,92.92S206.6,93,207,93.06S207.6,93.14,208,93.19S208.6,93.27,209,93.33S209.7,93.42,210,93.46S210.3,93.5,210.5,93.53S210.7,93.56,211,93.6S211.6,93.67,212,93.73S212.6,93.87,213,93.94S213.6,94.02,214,94.07S214.6,94.15,215,94.21S215.6,94.29,216,94.34S216.7,94.44,217,94.48S217.3,94.52,217.5,94.54S217.7,94.57,218,94.61S218.6,94.68,219,94.75S219.6,94.88,220,94.95S220.6,95.03,221,95.08S221.6,95.16,222,95.22S222.6,95.3,223,95.35S223.7,95.45,224,95.49S224.3,95.53,224.5,95.56S224.7,95.58,225,95.62S225.6,95.7,226,95.76S226.6,95.82,227,95.89S227.6,96.03,228,96.09S228.6,96.17,229,96.23S229.6,96.31,230,96.36S230.7,96.46,231,96.5S231.3,96.54,231.5,96.56S231.7,96.59,232,96.63S232.6,96.71,233,96.76S233.6,96.85,234,96.9S234.6,96.97,235,97.03S235.6,97.17,236,97.24S236.6,97.32,237,97.37S237.6,97.45,238,97.5S238.6,97.58,239,97.64S239.6,97.72,240,97.77S240.6,97.85,241,97.91S241.6,97.97,242,98.04S242.6,98.18,243,98.24S243.6,98.32,244,98.38S244.6,98.46,245,98.51S245.6,98.59,246,98.65S246.6,98.73,247,98.78S247.6,98.86,248,98.92S248.6,99,249,99.05S249.6,99.12,250,99.19S250.6,99.32,251,99.39S251.6,99.47,252,99.52S252.6,99.6,253,99.66S253.6,99.74,254,99.79S254.6,99.87,255,99.93S255.6,100.01,256,100.06S256.6,100.13,257,100.2S257.6,100.33,258,100.4S258.6,100.48,259,100.54S259.6,100.62,260,100.67S260.6,100.75,261,100.81S261.6,100.89,262,100.94S262.6,101.03,263,101.08S263.6,101.16,264,101.22S264.6,101.28,265,101.35S265.6,101.49,266,101.56S266.6,101.64,267,101.69S267.6,101.77,268,101.83S268.6,101.91,269,101.97S269.6,102.05,270,102.1S270.6,102.18,271,102.24S271.7,102.32,272,102.38S272.3,102.47,272.5,102.51S272.7,102.54,273,102.58S273.6,102.66,274,102.72S274.6,102.8,275,102.86S275.6,102.94,276,102.99S276.6,103.08,277,103.13S277.6,103.22,278,103.27S278.6,103.35,279,103.41S279.6,103.48,280,103.55S280.6,103.69,281,103.75S281.6,103.84,282,103.89S282.6,103.98,283,104.03S283.6,104.12,284,104.17S284.6,104.26,285,104.31S285.7,104.41,286,104.45S286.3,104.49,286.5,104.52S286.7,104.53,287,104.59S287.6,104.73,288,104.8S288.6,104.88,289,104.94S289.6,105.02,290,105.08S290.6,105.17,291,105.22S291.6,105.31,292,105.36S292.6,105.45,293,105.5S293.6,105.59,294,105.65S294.6,105.72,295,105.79S295.6,105.93,296,106S296.6,106.09,297,106.14S297.6,106.23,298,106.28S298.6,106.37,299,106.43S299.6,106.51,300,106.57S300.6,106.66,301,106.71S301.6,106.8,302,106.86S302.6,106.93,303,107S303.6,107.15,304,107.22S304.6,107.3,305,107.36S305.6,107.45,306,107.51S306.6,107.59,307,107.65S307.6,107.74,308,107.8S308.6,107.89,309,107.94S309.6,108.02,310,108.09S310.6,108.24,311,108.31S311.7,108.41,312,108.46S312.3,108.5,312.5,108.53S312.7,108.56,313,108.6S313.6,108.69,314,108.75S314.6,108.84,315,108.9S315.6,108.99,316,109.05S316.6,109.14,317,109.2S317.6,109.27,318,109.35S318.6,109.5,319,109.57S319.6,109.66,320,109.72S320.6,109.81,321,109.87S321.6,109.96,322,110.02S322.6,110.11,323,110.17S323.6,110.27,324,110.33S324.8,110.43,325,110.48S324.8,110.51,325,110.55S325.6,110.65,326,110.71S326.6,110.8,327,110.86S327.6,110.95,328,111.01S328.6,111.11,329,111.17S329.6,111.26,330,111.32S330.7,111.43,331,111.48S331.3,111.53,331.5,111.56S331.7,111.59,332,111.63S332.6,111.71,333,111.79S333.6,111.95,334,112.03S334.6,112.12,335,112.18S335.6,112.28,336,112.34S336.6,112.44,337,112.5S337.6,112.6,338,112.66S338.6,112.75,339,112.82S339.6,112.9,340,112.98S340.6,113.14,341,113.22S341.6,113.32,342,113.38S342.6,113.48,343,113.54S343.6,113.64,344,113.71S344.6,113.81,345,113.87S345.6,113.97,346,114.03S346.6,114.13,347,114.2S347.7,114.3,348,114.36S348.3,114.48,348.5,114.53S348.7,114.56,349,114.61S349.6,114.71,350,114.78S350.6,114.88,351,114.95S351.6,115.05,352,115.12S352.6,115.22,353,115.29S353.7,115.41,354,115.46S354.3,115.51,354.5,115.54S354.7,115.58,355,115.63S355.6,115.71,356,115.8S356.6,115.97,357,116.06S357.6,116.16,358,116.23S358.6,116.34,359,116.41S359.6,116.51,360,116.58S360.6,116.69,361,116.76S361.6,116.86,362,116.93S362.6,117.02,363,117.11S363.6,117.29,364,117.38S364.6,117.49,365,117.56S365.6,117.67,366,117.74S366.6,117.85,367,117.92S367.6,118.03,368,118.1S368.6,118.21,369,118.29S369.7,118.42,370,118.47S370.3,118.53,370.5,118.56S370.7,118.58,371,118.66S371.6,118.84,372,118.94S372.6,119.05,373,119.13S373.6,119.24,374,119.32S374.6,119.43,375,119.51S375.6,119.62,376,119.7S376.6,119.81,377,119.89S377.6,119.99,378,120.09S378.6,120.28,379,120.38S379.6,120.5,380,120.58S380.6,120.69,381,120.77S381.6,120.89,382,120.97S382.6,121.09,383,121.18S383.6,121.3,384,121.38S384.6,121.5,385,121.58S385.6,121.68,386,121.79S386.6,121.99,387,122.1S387.6,122.22,388,122.31S388.6,122.43,389,122.52S389.6,122.64,390,122.73S390.6,122.86,391,122.94S391.6,123.07,392,123.16S392.7,123.29,393,123.38S393.3,123.53,393.5,123.6S393.7,123.64,394,123.71S394.6,123.84,395,123.93S395.6,124.06,396,124.15S396.6,124.29,397,124.38S397.6,124.51,398,124.6S398.6,124.74,399,124.83S399.6,124.97,400,125.06S400.7,125.2,401,125.3S401.3,125.46,401.5,125.53S401.7,125.58,402,125.65S402.6,125.79,403,125.89S403.6,126.04,404,126.13S404.6,126.28,405,126.38S405.6,126.52,406,126.62S406.6,126.77,407,126.87S407.6,127,408,127.12S408.6,127.38,409,127.5S409.6,127.66,410,127.76S410.6,127.92,411,128.02S411.6,128.18,412,128.29S412.6,128.45,413,128.56S413.6,128.72,414,128.83S414.6,128.99,415,129.1S415.8,129.29,416,129.38S415.8,129.43,416,129.52S416.6,129.68,417,129.8S417.6,129.97,418,130.08S418.7,130.29,419,130.37S419.3,130.46,419.5,130.52S419.7,130.58,420,130.67S420.6,130.85,421,130.97S421.6,131.15,422,131.27S422.6,131.45,423,131.57S423.6,131.73,424,131.89S424.7,132.23,425,132.36S425.3,132.46,425.5,132.52S425.7,132.59,426,132.68S426.6,132.88,427,133.01S427.7,133.25,428,133.35S428.3,133.45,428.5,133.52S428.7,133.58,429,133.69S429.6,133.89,430,134.03S430.8,134.28,431,134.39S430.8,134.46,431,134.56S431.6,134.78,432,134.93S432.6,135.15,433,135.3S433.6,135.52,434,135.67S434.6,135.9,435,136.06S435.7,136.33,436,136.45S436.3,136.57,436.5,136.65S436.7,136.73,437,136.85S437.6,137.1,438,137.26S438.6,137.47,439,137.68S439.7,138.16,440,138.33S440.3,138.46,440.5,138.55S440.7,138.64,441,138.78S441.6,139.05,442,139.24S442.6,139.52,443,139.71S443.6,140,444,140.19S444.6,140.49,445,140.69S445.7,141,446,141.21S446.3,141.58,446.5,141.74S446.7,141.85,447,142.02S447.6,142.35,448,142.58S448.6,142.92,449,143.16S449.6,143.51,450,143.76S450.7,144.2,451,144.39S451.3,144.58,451.5,144.71S451.7,144.84,452,145.05S452.6,145.45,453,145.73S453.8,146.23,454,146.45S453.8,146.59,454,146.82S454.6,147.28,455,147.6S455.7,148.17,456,148.42S456.3,148.68,456.5,148.85S456.8,149.12,457,149.3S457.3,149.57,457.5,149.76S457.8,150.04,458,150.23S458.3,150.52,458.5,150.72S458.8,151.02,459,151.23S459.3,151.55,459.5,151.76S459.8,152.09,460,152.32S460.3,152.66,460.5,152.9S460.8,153.12,461,153.5S461.3,154.4,461.5,154.81S461.7,155.06,462,155.51S462.7,156.58,463,157.07S463.3,157.57,463.5,157.93S463.8,158.46,464,158.85S464.3,159.44,464.5,159.86S464.8,160.5,465,160.96S465.3,161.66,465.5,162.18S465.8,162.97,466,163.56S466.3,164.45,466.5,165.14S466.8,166.17,467,167S467.3,168.23,467.5,169.27S467.8,170.77,468,172.22S468.3,173.94,468.5,176.53S468.93,183.45,469,185.18" style="fill: none; stroke: #00ff00; stroke-width: 2;"></path>
      </g>
     </svg>
     <g>
      <g transform="translate(0,194)">
       <path d="M0,0h469M0,-7V0M9,-4V0M19,-4V0M28,-4V0M38,-4V0M47,-7V0M56,-4V0M66,-4V0M75,-4V0M84,-4V0M94,-7V0M103,-4V0M113,-4V0M122,-4V0M131,-4V0M141,-7V0M150,-4V0M159,-4V0M169,-4V0M178,-4V0M188,-7V0M197,-4V0M206,-4V0M216,-4V0M225,-4V0M235,-7V0M244,-4V0M253,-4V0M263,-4V0M272,-4V0M281,-7V0M291,-4V0M300,-4V0M310,-4V0M319,-4V0M328,-7V0M338,-4V0M347,-4V0M356,-4V0M366,-4V0M375,-7V0M385,-4V0M394,-4V0M403,-4V0M413,-4V0M422,-7V0M431,-4V0M441,-4V0M450,-4V0M460,-4V0M469,-7V0" style="stroke: black; stroke-width: 1;"></path>
       <g font-family="Arial" font-size="9" space="preserve" fill="black" text-anchor="middle">
        <text dy=".8em" transform="translate(0,1)">
         0
        </text>
        <text dy=".8em" transform="translate(47,1)">
         0.1
        </text>
        <text dy=".8em" transform="translate(94,1)">
         0.2
        </text>
        <text dy=".8em" transform="translate(141,1)">
         0.3
        </text>
        <text dy=".8em" transform="translate(188,1)">
         0.4
        </text>
        <text dy=".8em" transform="translate(235,1)">
         0.5
        </text>
        <text dy=".8em" transform="translate(281,1)">
         0.6
        </text>
        <text dy=".8em" transform="translate(328,1)">
         0.7
        </text>
        <text dy=".8em" transform="translate(375,1)">
         0.8
        </text>
        <text dy=".8em" transform="translate(422,1)">
         0.9
        </text>
        <text dy=".8em" transform="translate(469,1)">
         1
        </text>
       </g>
      </g>
      <g>
       <path d="M0,0v194M9,193H0M9,188H0M9,183H0M18,177H0M9,172H0M9,167H0M9,161H0M9,156H0M18,151H0M9,145H0M9,140H0M9,135H0M9,129H0M18,124H0M9,118H0M9,113H0M9,108H0M9,102H0M18,97H0M9,92H0M9,86H0M9,81H0M9,76H0M18,70H0M9,65H0M9,59H0M9,54H0M9,49H0M18,43H0M9,38H0M9,33H0M9,27H0M9,22H0M18,17H0M9,11H0M9,6H0M9,1H0" style="stroke: black; stroke-width: 1;"></path>
       <g font-family="Arial" font-size="9" space="preserve" fill="black" text-anchor="end">
        <text dy=".4em" transform="translate(-2,177)">
         -3
        </text>
        <text dy=".4em" transform="translate(-2,151)">
         -2
        </text>
        <text dy=".4em" transform="translate(-2,124)">
         -1
        </text>
        <text dy=".4em" transform="translate(-2,97)">
         0
        </text>
        <text dy=".4em" transform="translate(-2,70)">
         1
        </text>
        <text dy=".4em" transform="translate(-2,43)">
         2
        </text>
        <text dy=".4em" transform="translate(-2,17)">
         3
        </text>
       </g>
      </g>
     </g>
    </g>
    <g transform="translate(185,29)" font-family="Arial" font-size="15" space="preserve">
     <path d="M0,0H223V60H0Z" style="fill: white; stroke: black; stroke-width: 1;"></path>
     <path d="M7,16H49" style="stroke: #ff0000; stroke-width: 2;"></path>
     <text fill="black" text-anchor="start" dy=".4em" transform="translate(56,16)">
      normal_quantile
     </text>
     <path d="M7,44H49" style="stroke: #00ff00; stroke-width: 2;"></path>
     <text fill="black" text-anchor="start" dy=".4em" transform="translate(56,44)">
      normal_quantile_c
     </text>
    </g>
   </g>
  </svg>
 </g>
</svg>