<svg xmlns="http://www.w3.org/2000/svg" viewBox="0 0 698 475" preserveAspectRatio="none" width="698" height="475">
 <path d="M0,0H698V475H0Z" style="fill: white;"></path>
 <g>
  <g transform="translate(70,48)">
   <path d="M0,0H558V380H0Z" style="fill: white; stroke: black; stroke-width: 1;"></path>
   <svg x="0" y="0" overflow="hidden" width="558" height="380" viewBox="0 0 558 380">
    <g>
     <path d="M0,332h6M3,314v36M6,352h6M9,342v21M11,332h6M14,314v36M17,300h6M20,275v51M22,321h6M25,300v42M28,249h6M31,214v69M33,332h6M36,314v36M39,269h6M42,238v62M45,280h6M48,250v59M50,249h6M53,214v69M56,311h6M59,288v46M61,290h6M64,263v55M67,228h6M70,190v75M73,238h6M76,202v72M78,321h6M81,300v42M84,186h6M87,144v85M89,72h6M92,17v110M95,207h6M98,167v80M100,228h6M103,190v75M106,155h6M109,109v93M112,83h6M115,29v107M117,321h6M120,300v42M123,176h6M126,132v88M128,186h6M131,144v85M134,269h6M137,238v62M140,259h6M143,226v66M145,290h6M148,263v55M151,269h6M154,238v62M156,228h6M159,190v75M162,228h6M165,190v75M167,259h6M170,226v66M173,280h6M176,250v59M179,280h6M182,250v59M184,238h6M187,202v72M190,321h6M193,300v42M195,300h6M198,275v51M201,342h6M204,327v30M206,300h6M209,275v51M212,290h6M215,263v55M218,332h6M221,314v36M223,311h6M226,288v46M229,311h6M232,288v46M234,290h6M237,263v55M240,311h6M243,288v46M246,332h6M249,314v36M251,321h6M254,300v42M257,321h6M260,300v42M262,300h6M265,275v51M268,300h6M271,275v51M273,311h6M276,288v46M279,290h6M282,263v55M285,321h6M288,300v42M290,290h6M293,263v55M296,300h6M299,275v51M301,290h6M304,263v55M307,269h6M310,238v62M312,207h6M315,167v80M318,228h6M321,190v75M324,207h6M327,167v80M329,249h6M332,214v69M335,249h6M338,214v69M340,197h6M343,155v83M346,259h6M349,226v66M352,197h6M355,155v83M357,207h6M360,167v80M363,197h6M366,155v83M368,238h6M371,202v72M374,186h6M377,144v85M379,155h6M382,109v93M385,166h6M388,120v91M391,238h6M394,202v72M396,166h6M399,120v91M402,197h6M405,155v83M407,238h6M410,202v72M413,280h6M416,250v59M419,134h6M422,86v97M424,249h6M427,214v69M430,238h6M433,202v72M435,269h6M438,238v62M441,238h6M444,202v72M446,259h6M449,226v66M452,280h6M455,250v59M458,217h6M461,179v77M463,186h6M466,144v85M469,300h6M472,275v51M474,249h6M477,214v69M480,290h6M483,263v55M485,280h6M488,250v59M491,217h6M494,179v77M497,280h6M500,250v59M502,280h6M505,250v59M508,290h6M511,263v55M513,300h6M516,275v51M519,342h6M522,327v30M525,332h6M528,314v36M530,280h6M533,250v59M536,332h6M539,314v36M541,280h6M544,250v59M547,342h6M550,327v30M552,352h6M555,342v21" style="stroke: #00009a; stroke-width: 1;"></path>
    </g>
    <g>
     <path d="M0,341.08C0.57,340.63,4.46,337.42,5.58,336.41S10.04,332.21,11.16,331.07S15.62,326.29,16.74,325.01S21.2,319.67,22.32,318.24S26.78,312.34,27.9,310.78S32.36,304.35,33.48,302.68S37.94,295.78,39.06,293.99S43.52,286.7,44.64,284.84S49.1,277.26,50.22,275.34S54.68,267.59,55.8,265.65S60.26,257.89,61.38,255.97S65.84,248.34,66.96,246.48S71.42,239.16,72.54,237.41S77,230.57,78.12,228.97S82.58,222.79,83.7,221.37S88.16,216.01,89.28,214.82S93.74,210.42,94.86,209.5S99.32,206.19,100.44,205.54S104.9,203.41,106.02,203.07S110.48,202.18,111.6,202.15S116.06,202.51,117.18,202.8S121.64,204.4,122.76,204.98S127.22,207.76,128.34,208.63S132.8,212.5,133.92,213.62S138.38,218.45,139.5,219.79S143.96,225.44,145.08,226.95S149.54,233.26,150.66,234.9S155.12,241.67,156.24,243.4S160.7,250.45,161.82,252.22S166.28,259.37,167.4,261.14S171.86,268.21,172.98,269.93S177.44,276.76,178.56,278.41S183.02,284.85,184.14,286.38S188.6,292.32,189.72,293.71S194.18,299.05,195.3,300.28S199.76,304.95,200.88,306S205.34,309.93,206.46,310.79S210.92,313.97,212.04,314.64S216.5,317.04,217.62,317.51S222.08,319.14,223.2,319.43S227.66,320.31,228.78,320.41S233.24,320.56,234.36,320.49S238.82,319.95,239.94,319.71S244.4,318.53,245.52,318.14S249.98,316.35,251.1,315.81S255.56,313.47,256.68,312.81S261.14,309.96,262.26,309.18S266.72,305.88,267.84,304.99S272.3,301.29,273.42,300.31S277.88,296.25,279,295.19S283.46,290.83,284.58,289.7S289.04,285.09,290.16,283.91S294.62,279.1,295.74,277.88S300.2,272.92,301.32,271.67S305.78,266.63,306.9,265.36S311.36,260.27,312.48,259S316.94,253.94,318.06,252.68S322.52,247.68,323.64,246.46S328.1,241.59,329.22,240.4S333.68,235.72,334.8,234.59S339.26,230.15,340.38,229.08S344.84,224.93,345.96,223.95S350.42,220.15,351.54,219.26S356,215.84,357.12,215.06S361.58,212.08,362.7,211.41S367.16,208.9,368.28,208.35S372.74,206.35,373.86,205.93S378.32,204.46,379.44,204.18S383.9,203.27,385.02,203.12S389.48,202.77,390.6,202.77S395.06,202.98,396.18,203.12S400.64,203.9,401.76,204.19S406.22,205.52,407.34,205.94S411.8,207.81,412.92,208.36S417.38,210.74,418.5,211.41S422.96,214.28,424.08,215.07S428.54,218.38,429.66,219.27S434.12,222.99,435.24,223.98S439.7,228.05,440.82,229.12S445.28,233.51,446.4,234.64S450.86,239.29,451.98,240.48S456.44,245.34,457.56,246.57S462.02,251.58,463.14,252.85S467.6,257.96,468.72,259.25S473.18,264.42,474.3,265.71S478.76,270.88,479.88,272.17S484.34,277.3,485.46,278.57S489.92,283.62,491.04,284.87S495.5,289.8,496.62,291.01S501.08,295.8,502.2,296.97S506.66,301.57,507.78,302.69S512.24,307.1,513.36,308.16S517.82,312.35,518.94,313.36S523.4,317.3,524.52,318.25S528.98,321.96,530.1,322.84S534.56,326.29,535.68,327.12S540.14,330.31,541.26,331.07S545.72,334.02,546.84,334.71S551.3,337.41,552.42,338.05S557.44,340.79,558,341.08" style="fill: none; stroke: #009a00; stroke-width: 2;"></path>
    </g>
    <g>
     <path d="M0,330.78C0.57,330.4,4.46,327.66,5.58,326.83S10.04,323.36,11.16,322.44S15.62,318.59,16.74,317.57S21.2,313.33,22.32,312.21S26.78,307.56,27.9,306.34S32.36,301.28,33.48,299.96S37.94,294.51,39.06,293.09S43.52,287.29,44.64,285.8S49.1,279.7,50.22,278.15S54.68,271.84,55.8,270.25S60.26,263.85,61.38,262.26S65.84,255.91,66.96,254.35S71.42,248.2,72.54,246.72S77,240.93,78.12,239.58S82.58,234.33,83.7,233.14S88.16,228.61,89.28,227.61S93.74,223.93,94.86,223.17S99.32,220.46,100.44,219.95S104.9,218.3,106.02,218.06S110.48,217.5,111.6,217.52S116.06,218.03,117.18,218.32S121.64,219.85,122.76,220.38S127.22,222.84,128.34,223.58S132.8,226.84,133.92,227.75S138.38,231.67,139.5,232.72S143.96,237.14,145.08,238.29S149.54,243.05,150.66,244.27S155.12,249.21,156.24,250.46S160.7,255.46,161.82,256.71S166.28,261.65,167.4,262.86S171.86,267.66,172.98,268.82S177.44,273.38,178.56,274.48S183.02,278.76,184.14,279.77S188.6,283.72,189.72,284.66S194.18,288.25,195.3,289.09S199.76,292.31,200.88,293.05S205.34,295.87,206.46,296.52S210.92,298.94,212.04,299.48S216.5,301.5,217.62,301.94S222.08,303.54,223.2,303.87S227.66,305.04,228.78,305.27S233.24,306.01,234.36,306.13S238.82,306.43,239.94,306.44S244.4,306.3,245.52,306.19S249.98,305.6,251.1,305.38S255.56,304.33,256.68,303.99S261.14,302.48,262.26,302.03S266.72,300.07,267.84,299.51S272.3,297.1,273.42,296.42S277.88,293.57,279,292.8S283.46,289.53,284.58,288.65S289.04,284.99,290.16,284.02S294.62,280.01,295.74,278.95S300.2,274.62,301.32,273.49S305.78,268.89,306.9,267.71S311.36,262.89,312.48,261.66S316.94,256.7,318.06,255.45S322.52,250.41,323.64,249.15S328.1,244.11,329.22,242.86S333.68,237.9,334.8,236.69S339.26,231.9,340.38,230.74S344.84,226.22,345.96,225.14S350.42,220.97,351.54,219.99S356,216.26,357.12,215.41S361.58,212.2,362.7,211.49S367.16,208.88,368.28,208.33S372.74,206.37,373.86,205.99S378.32,204.72,379.44,204.52S383.9,203.96,385.02,203.93S389.48,204.09,390.6,204.23S395.06,205.06,396.18,205.37S400.64,206.83,401.76,207.28S406.22,209.31,407.34,209.9S411.8,212.42,412.92,213.12S417.38,216.06,418.5,216.84S422.96,220.12,424.08,220.98S428.54,224.52,429.66,225.43S434.12,229.17,435.24,230.12S439.7,234,440.82,234.99S445.28,238.97,446.4,239.97S450.86,244.03,451.98,245.05S456.44,249.15,457.56,250.18S462.02,254.33,463.14,255.37S467.6,259.53,468.72,260.58S473.18,264.77,474.3,265.81S478.76,270.01,479.88,271.06S484.34,275.25,485.46,276.3S489.92,280.48,491.04,281.51S495.5,285.66,496.62,286.68S501.08,290.77,502.2,291.78S506.66,295.79,507.78,296.78S512.24,300.69,513.36,301.64S517.82,305.43,518.94,306.35S523.4,309.99,524.52,310.88S528.98,314.35,530.1,315.19S534.56,318.49,535.68,319.28S540.14,322.39,541.26,323.13S545.72,326.04,546.84,326.73S551.3,329.43,552.42,330.08S557.44,332.87,558,333.17" style="fill: none; stroke: red; stroke-width: 2;"></path>
    </g>
   </svg>
   <g>
    <g transform="translate(0,380)">
     <path d="M0,0h558M0,-14V0M11,-7V0M22,-7V0M33,-7V0M45,-7V0M56,-14V0M67,-7V0M78,-7V0M89,-7V0M100,-7V0M112,-14V0M123,-7V0M134,-7V0M145,-7V0M156,-7V0M167,-14V0M179,-7V0M190,-7V0M201,-7V0M212,-7V0M223,-14V0M234,-7V0M246,-7V0M257,-7V0M268,-7V0M279,-14V0M290,-7V0M301,-7V0M312,-7V0M324,-7V0M335,-14V0M346,-7V0M357,-7V0M368,-7V0M379,-7V0M391,-14V0M402,-7V0M413,-7V0M424,-7V0M435,-7V0M446,-14V0M458,-7V0M469,-7V0M480,-7V0M491,-7V0M502,-14V0M513,-7V0M525,-7V0M536,-7V0M547,-7V0M558,-14V0" style="stroke: black; stroke-width: 1;"></path>
     <g font-family="Arial" font-size="17" space="preserve" fill="black" text-anchor="middle">
      <text dy=".8em" transform="translate(0,4)">
       0
      </text>
      <text dy=".8em" transform="translate(56,4)">
       1
      </text>
      <text dy=".8em" transform="translate(112,4)">
       2
      </text>
      <text dy=".8em" transform="translate(167,4)">
       3
      </text>
      <text dy=".8em" transform="translate(223,4)">
       4
      </text>
      <text dy=".8em" transform="translate(279,4)">
       5
      </text>
      <text dy=".8em" transform="translate(335,4)">
       6
      </text>
      <text dy=".8em" transform="translate(391,4)">
       7
      </text>
      <text dy=".8em" transform="translate(446,4)">
       8
      </text>
      <text dy=".8em" transform="translate(502,4)">
       9
      </text>
      <text dy=".8em" transform="translate(558,4)">
       10
      </text>
     </g>
    </g>
    <g>
     <path d="M0,0v380M11,373H0M21,363H0M11,353H0M11,343H0M11,333H0M11,323H0M21,313H0M11,303H0M11,293H0M11,283H0M11,273H0M21,262H0M11,252H0M11,242H0M11,232H0M11,222H0M21,212H0M11,202H0M11,192H0M11,182H0M11,172H0M21,162H0M11,152H0M11,142H0M11,132H0M11,122H0M21,112H0M11,102H0M11,92H0M11,82H0M11,72H0M21,62H0M11,52H0M11,42H0M11,32H0M11,22H0M21,12H0M11,2H0" style="stroke: black; stroke-width: 1;"></path>
     <g font-family="Arial" font-size="17" space="preserve" fill="black" text-anchor="end">
      <text dy=".4em" transform="translate(-2,363)">
       0
      </text>
      <text dy=".4em" transform="translate(-2,313)">
       0.05
      </text>
      <text dy=".4em" transform="translate(-2,262)">
       0.10
      </text>
      <text dy=".4em" transform="translate(-2,212)">
       0.15
      </text>
      <text dy=".4em" transform="translate(-2,162)">
       0.20
      </text>
      <text dy=".4em" transform="translate(-2,112)">
       0.25
      </text>
      <text dy=".4em" transform="translate(-2,62)">
       0.30
      </text>
      <text dy=".4em" transform="translate(-2,12)">
       0.35
      </text>
     </g>
    </g>
   </g>
  </g>
  <g transform="translate(70,2)" font-family="Arial" font-size="24" space="preserve">
   <text fill="black" text-anchor="middle" dy=".8em" transform="translate(279)">
    Bi-Gaussian
   </text>
  </g>
  <g transform="translate(419,24)" font-family="Arial" font-size="19" space="preserve">
   <path d="M0,0H209V119H0Z" style="fill: white; stroke: black; stroke-width: 1;"></path>
   <path d="M6,18H46" style="stroke: #009a00; stroke-width: 2;"></path>
   <path d="M26,18h1" style="stroke: black; fill: none;"></path>
   <text fill="black" text-anchor="start" dy=".4em" transform="translate(52,18)">
    True function
   </text>
   <path d="M6,46H46" style="stroke: red; stroke-width: 2;"></path>
   <path d="M26,46h1" style="stroke: black; fill: none;"></path>
   <text fill="black" text-anchor="start" dy=".4em" transform="translate(52,46)">
    TKDE
   </text>
   <path d="M6,73H46" style="stroke: black; stroke-width: 1;"></path>
   <path d="M22,69v8h8v-8z" style="stroke: black; fill: black;"></path>
   <g transform="translate(52,81) scale(0.766)">
    <text fill="black" font-size="25">
     TKDE - σ
    </text>
   </g>
   <path d="M6,101H46" style="stroke: black; stroke-width: 1;"></path>
   <path d="M22,97v8h8v-8z" style="stroke: black; fill: black;"></path>
   <g transform="translate(52,108) scale(0.766)">
    <text fill="black" font-size="25">
     TKDE + σ
    </text>
   </g>
  </g>
 </g>
</svg>