<svg xmlns="http://www.w3.org/2000/svg" viewBox="0 0 798 575" preserveAspectRatio="none" width="798" height="575">
 <path d="M0,0H798V575H0Z" style="fill: white;"></path>
 <g>
  <svg viewBox="0 0 383 276" preserveAspectRatio="none" x="8" y="6" width="383" height="276">
   <path d="M0,0H383V276H0Z" style="fill: white;"></path>
   <g>
    <g transform="translate(38,28)">
     <path d="M0,0H306V221H0Z" style="fill: white; stroke: black; stroke-width: 1;"></path>
     <svg x="0" y="0" overflow="hidden" width="306" height="221" viewBox="0 0 306 221">
      <g>
       <path d="M2,221h3h3h3h3h3h3h3h3h4h3h3h3h3h3h3h3h3h3h3h3h3h3h3h3h4h3h3h3h3h3h3h3h3h3h3h3h3h3h3h3h3h4h3h3h3h3h3h3h3h3h3h3h3h3h3h3h3h3h4h3h3h3h3h3h3h3h3h3h3h3h3h3h3h3h4h3h3h3h3h3h3h3h3h3h3h3h3h3l3,-1h3l3,-1l4,-1l3,-3l3,-5l3,-9l3,-16l3,-29l3,-51l3,-94" style="fill: none; stroke: #0000ff; stroke-width: 2;"></path>
      </g>
     </svg>
     <g>
      <g transform="translate(0,221)">
       <path d="M0,0h306M0,-8V0M8,-4V0M15,-4V0M23,-4V0M31,-8V0M38,-4V0M46,-4V0M54,-4V0M61,-8V0M69,-4V0M77,-4V0M84,-4V0M92,-8V0M99,-4V0M107,-4V0M115,-4V0M122,-8V0M130,-4V0M138,-4V0M145,-4V0M153,-8V0M161,-4V0M168,-4V0M176,-4V0M184,-8V0M191,-4V0M199,-4V0M207,-4V0M214,-8V0M222,-4V0M230,-4V0M237,-4V0M245,-8V0M252,-4V0M260,-4V0M268,-4V0M275,-8V0M283,-4V0M291,-4V0M298,-4V0M306,-8V0" style="stroke: black; stroke-width: 1;"></path>
       <g font-family="Arial" font-size="10" space="preserve" fill="black" text-anchor="middle">
        <text dy=".8em" transform="translate(0,2)">
         0
        </text>
        <text dy=".8em" transform="translate(31,2)">
         2
        </text>
        <text dy=".8em" transform="translate(61,2)">
         4
        </text>
        <text dy=".8em" transform="translate(92,2)">
         6
        </text>
        <text dy=".8em" transform="translate(122,2)">
         8
        </text>
        <text dy=".8em" transform="translate(153,2)">
         10
        </text>
        <text dy=".8em" transform="translate(184,2)">
         12
        </text>
        <text dy=".8em" transform="translate(214,2)">
         14
        </text>
        <text dy=".8em" transform="translate(245,2)">
         16
        </text>
        <text dy=".8em" transform="translate(275,2)">
         18
        </text>
        <text dy=".8em" transform="translate(306,2)">
         20
        </text>
       </g>
      </g>
      <g>
       <path d="M0,0v221M11,221H0M6,216H0M6,212H0M6,207H0M6,202H0M11,198H0M6,193H0M6,188H0M6,184H0M6,179H0M11,174H0M6,170H0M6,165H0M6,160H0M6,156H0M11,151H0M6,147H0M6,142H0M6,137H0M6,133H0M11,128H0M6,123H0M6,119H0M6,114H0M6,109H0M11,105H0M6,100H0M6,95H0M6,91H0M6,86H0M11,81H0M6,77H0M6,72H0M6,67H0M6,63H0M11,58H0M6,53H0M6,49H0M6,44H0M6,39H0M11,35H0M6,30H0M6,25H0M6,21H0M6,16H0M11,11H0M6,7H0M6,2H0" style="stroke: black; stroke-width: 1;"></path>
       <g font-family="Arial" font-size="10" space="preserve">
        <text fill="black" text-anchor="end" dy=".4em" transform="translate(-2,221)">
         0
        </text>
        <text fill="black" text-anchor="end" dy=".4em" transform="translate(-2,198)">
         10
        </text>
        <text fill="black" text-anchor="end" dy=".4em" transform="translate(-2,174)">
         20
        </text>
        <text fill="black" text-anchor="end" dy=".4em" transform="translate(-2,151)">
         30
        </text>
        <text fill="black" text-anchor="end" dy=".4em" transform="translate(-2,128)">
         40
        </text>
        <text fill="black" text-anchor="end" dy=".4em" transform="translate(-2,105)">
         50
        </text>
        <text fill="black" text-anchor="end" dy=".4em" transform="translate(-2,81)">
         60
        </text>
        <text fill="black" text-anchor="end" dy=".4em" transform="translate(-2,58)">
         70
        </text>
        <text fill="black" text-anchor="end" dy=".4em" transform="translate(-2,35)">
         80
        </text>
        <text fill="black" text-anchor="end" dy=".4em" transform="translate(-2,11)">
         90
        </text>
        <g transform="translate(5,-5)">
         <text fill="black" font-size="10">
          ×10
         </text>
         <text fill="black" font-size="6" transform="translate(16,-5)">
          15
         </text>
        </g>
       </g>
      </g>
     </g>
    </g>
    <g transform="translate(38,1)" font-family="Arial" font-size="14" space="preserve">
     <text fill="black" text-anchor="middle" dy=".8em" transform="translate(153)">
      ROOT::Math::tgamma(x)
     </text>
    </g>
   </g>
  </svg>
  <svg viewBox="0 0 383 276" preserveAspectRatio="none" x="407" y="6" width="383" height="276">
   <path d="M0,0H383V276H0Z" style="fill: white;"></path>
   <g>
    <g transform="translate(38,28)">
     <path d="M0,0H306V221H0Z" style="fill: white; stroke: black; stroke-width: 1;"></path>
     <svg x="0" y="0" overflow="hidden" width="306" height="221" viewBox="0 0 306 221">
      <g>
       <path d="M2,211h3h3l3,-1h3l3,-1l3,-1l3,-1l3,-1l4,-2l3,-1l3,-1l3,-2l3,-1l3,-1l3,-2l3,-2l3,-1l3,-2l3,-1l3,-2l3,-2l3,-1l3,-2l3,-2l4,-2l3,-2l3,-1l3,-2l3,-2l3,-2l3,-2l3,-2l3,-2l3,-2l3,-2l3,-2l3,-2l3,-2l3,-2l3,-2l3,-2l4,-2l3,-2l3,-2l3,-3l3,-2l3,-2l3,-2l3,-2l3,-2l3,-3l3,-2l3,-2l3,-2l3,-2l3,-3l3,-2l3,-2l4,-3l3,-2l3,-2l3,-2l3,-3l3,-2l3,-2l3,-3l3,-2l3,-3l3,-2l3,-2l3,-3l3,-2l3,-2l3,-3l4,-2l3,-3l3,-2l3,-3l3,-2l3,-3l3,-2l3,-2l3,-3l3,-2l3,-3l3,-2l3,-3l3,-2l3,-3l3,-2l3,-3l4,-3l3,-2l3,-3l3,-2l3,-3l3,-2l3,-3l3,-2" style="fill: none; stroke: #0000ff; stroke-width: 2;"></path>
      </g>
     </svg>
     <g>
      <g transform="translate(0,221)">
       <path d="M0,0h306M0,-8V0M6,-4V0M12,-4V0M18,-4V0M24,-4V0M31,-8V0M37,-4V0M43,-4V0M49,-4V0M55,-4V0M61,-8V0M67,-4V0M73,-4V0M80,-4V0M86,-4V0M92,-8V0M98,-4V0M104,-4V0M110,-4V0M116,-4V0M122,-8V0M129,-4V0M135,-4V0M141,-4V0M147,-4V0M153,-8V0M159,-4V0M165,-4V0M171,-4V0M177,-4V0M184,-8V0M190,-4V0M196,-4V0M202,-4V0M208,-4V0M214,-8V0M220,-4V0M226,-4V0M233,-4V0M239,-4V0M245,-8V0M251,-4V0M257,-4V0M263,-4V0M269,-4V0M275,-8V0M282,-4V0M288,-4V0M294,-4V0M300,-4V0M306,-8V0" style="stroke: black; stroke-width: 1;"></path>
       <g font-family="Arial" font-size="10" space="preserve" fill="black" text-anchor="middle">
        <text dy=".8em" transform="translate(0,2)">
         0
        </text>
        <text dy=".8em" transform="translate(31,2)">
         10
        </text>
        <text dy=".8em" transform="translate(61,2)">
         20
        </text>
        <text dy=".8em" transform="translate(92,2)">
         30
        </text>
        <text dy=".8em" transform="translate(122,2)">
         40
        </text>
        <text dy=".8em" transform="translate(153,2)">
         50
        </text>
        <text dy=".8em" transform="translate(184,2)">
         60
        </text>
        <text dy=".8em" transform="translate(214,2)">
         70
        </text>
        <text dy=".8em" transform="translate(245,2)">
         80
        </text>
        <text dy=".8em" transform="translate(275,2)">
         90
        </text>
        <text dy=".8em" transform="translate(306,2)">
         100
        </text>
       </g>
      </g>
      <g>
       <path d="M0,0v221M6,217H0M11,211H0M6,205H0M6,200H0M6,194H0M6,188H0M11,183H0M6,177H0M6,172H0M6,166H0M6,160H0M11,155H0M6,149H0M6,144H0M6,138H0M6,132H0M11,127H0M6,121H0M6,115H0M6,110H0M6,104H0M11,99H0M6,93H0M6,87H0M6,82H0M6,76H0M11,71H0M6,65H0M6,59H0M6,54H0M6,48H0M11,42H0M6,37H0M6,31H0M6,26H0M6,20H0M11,14H0M6,9H0M6,3H0" style="stroke: black; stroke-width: 1;"></path>
       <g font-family="Arial" font-size="10" space="preserve" fill="black" text-anchor="end">
        <text dy=".4em" transform="translate(-2,211)">
         0
        </text>
        <text dy=".4em" transform="translate(-2,183)">
         50
        </text>
        <text dy=".4em" transform="translate(-2,155)">
         100
        </text>
        <text dy=".4em" transform="translate(-2,127)">
         150
        </text>
        <text dy=".4em" transform="translate(-2,99)">
         200
        </text>
        <text dy=".4em" transform="translate(-2,71)">
         250
        </text>
        <text dy=".4em" transform="translate(-2,42)">
         300
        </text>
        <text dy=".4em" transform="translate(-2,14)">
         350
        </text>
       </g>
      </g>
     </g>
    </g>
    <g transform="translate(38,1)" font-family="Arial" font-size="14" space="preserve">
     <text fill="black" text-anchor="middle" dy=".8em" transform="translate(153)">
      ROOT::Math::lgamma(x)
     </text>
    </g>
   </g>
  </svg>
  <svg viewBox="0 0 383 276" preserveAspectRatio="none" x="8" y="293" width="383" height="276">
   <path d="M0,0H383V276H0Z" style="fill: white;"></path>
   <g>
    <g transform="translate(38,28)">
     <path d="M0,0H306V221H0Z" style="fill: white; stroke: black; stroke-width: 1;"></path>
     <svg x="0" y="0" overflow="hidden" width="306" height="221" viewBox="0 0 306 221">
      <g>
       <path d="M2,215l3,-12l3,-12l3,-11l3,-12l3,-11l3,-11l3,-10l3,-10l4,-10l3,-9l3,-9l3,-8l3,-8l3,-7l3,-7l3,-6l3,-6l3,-5l3,-5l3,-4l3,-4l3,-4l3,-3l3,-3l4,-2l3,-3l3,-2l3,-1l3,-2l3,-1l3,-1l3,-1l3,-1h3l3,-1h3l3,-1h3h3l3,-1h3h4h3h3h3h3h3h3h3h3h3h3h3h3h3h3h3h3h4h3h3h3h3h3h3h3h3h3h3h3h3h3h3h3h4h3h3h3h3h3h3h3h3h3h3h3h3h3h3h3h3h4h3h3h3h3h3h3h3" style="fill: none; stroke: #0000ff; stroke-width: 2;"></path>
      </g>
     </svg>
     <g>
      <g transform="translate(0,221)">
       <path d="M0,0h306M0,-8V0M6,-4V0M12,-4V0M18,-4V0M24,-4V0M31,-8V0M37,-4V0M43,-4V0M49,-4V0M55,-4V0M61,-8V0M67,-4V0M73,-4V0M80,-4V0M86,-4V0M92,-8V0M98,-4V0M104,-4V0M110,-4V0M116,-4V0M122,-8V0M129,-4V0M135,-4V0M141,-4V0M147,-4V0M153,-8V0M159,-4V0M165,-4V0M171,-4V0M177,-4V0M184,-8V0M190,-4V0M196,-4V0M202,-4V0M208,-4V0M214,-8V0M220,-4V0M226,-4V0M233,-4V0M239,-4V0M245,-8V0M251,-4V0M257,-4V0M263,-4V0M269,-4V0M275,-8V0M282,-4V0M288,-4V0M294,-4V0M300,-4V0M306,-8V0" style="stroke: black; stroke-width: 1;"></path>
       <g font-family="Arial" font-size="10" space="preserve" fill="black" text-anchor="middle">
        <text dy=".8em" transform="translate(0,2)">
         0
        </text>
        <text dy=".8em" transform="translate(31,2)">
         0.5
        </text>
        <text dy=".8em" transform="translate(61,2)">
         1
        </text>
        <text dy=".8em" transform="translate(92,2)">
         1.5
        </text>
        <text dy=".8em" transform="translate(122,2)">
         2
        </text>
        <text dy=".8em" transform="translate(153,2)">
         2.5
        </text>
        <text dy=".8em" transform="translate(184,2)">
         3
        </text>
        <text dy=".8em" transform="translate(214,2)">
         3.5
        </text>
        <text dy=".8em" transform="translate(245,2)">
         4
        </text>
        <text dy=".8em" transform="translate(275,2)">
         4.5
        </text>
        <text dy=".8em" transform="translate(306,2)">
         5
        </text>
       </g>
      </g>
      <g>
       <path d="M0,0v221M11,221H0M6,217H0M6,213H0M6,208H0M6,204H0M11,200H0M6,196H0M6,192H0M6,187H0M6,183H0M11,179H0M6,175H0M6,170H0M6,166H0M6,162H0M11,158H0M6,154H0M6,149H0M6,145H0M6,141H0M11,137H0M6,133H0M6,128H0M6,124H0M6,120H0M11,116H0M6,112H0M6,107H0M6,103H0M6,99H0M11,95H0M6,91H0M6,86H0M6,82H0M6,78H0M11,74H0M6,69H0M6,65H0M6,61H0M6,57H0M11,53H0M6,48H0M6,44H0M6,40H0M6,36H0M11,32H0M6,27H0M6,23H0M6,19H0M6,15H0M11,11H0M6,6H0M6,2H0" style="stroke: black; stroke-width: 1;"></path>
       <g font-family="Arial" font-size="10" space="preserve" fill="black" text-anchor="end">
        <text dy=".4em" transform="translate(-2,221)">
         0
        </text>
        <text dy=".4em" transform="translate(-2,200)">
         0.1
        </text>
        <text dy=".4em" transform="translate(-2,179)">
         0.2
        </text>
        <text dy=".4em" transform="translate(-2,158)">
         0.3
        </text>
        <text dy=".4em" transform="translate(-2,137)">
         0.4
        </text>
        <text dy=".4em" transform="translate(-2,116)">
         0.5
        </text>
        <text dy=".4em" transform="translate(-2,95)">
         0.6
        </text>
        <text dy=".4em" transform="translate(-2,74)">
         0.7
        </text>
        <text dy=".4em" transform="translate(-2,53)">
         0.8
        </text>
        <text dy=".4em" transform="translate(-2,32)">
         0.9
        </text>
        <text dy=".4em" transform="translate(-2,11)">
         1
        </text>
       </g>
      </g>
     </g>
    </g>
    <g transform="translate(38,1)" font-family="Arial" font-size="14" space="preserve">
     <text fill="black" text-anchor="middle" dy=".8em" transform="translate(153)">
      ROOT::Math::erf(x)
     </text>
    </g>
   </g>
  </svg>
  <svg viewBox="0 0 383 276" preserveAspectRatio="none" x="407" y="293" width="383" height="276">
   <path d="M0,0H383V276H0Z" style="fill: white;"></path>
   <g>
    <g transform="translate(38,28)">
     <path d="M0,0H306V221H0Z" style="fill: white; stroke: black; stroke-width: 1;"></path>
     <svg x="0" y="0" overflow="hidden" width="306" height="221" viewBox="0 0 306 221">
      <g>
       <path d="M2,11l3,12l3,12l3,12l3,11l3,12l3,11l3,11l3,10l4,10l3,10l3,9l3,8l3,8l3,8l3,7l3,6l3,6l3,6l3,5l3,4l3,4l3,4l3,3l3,3l4,3l3,2l3,2l3,1l3,2l3,1l3,1l3,1l3,1l3,1h3l3,1h3l3,1h3h3h3h4l3,1h3h3h3h3h3h3h3h3h3h3h3h3h3h3h3h4h3h3h3h3h3h3h3h3h3h3h3h3h3h3h3h4h3h3h3h3h3h3h3h3h3h3h3h3h3h3h3h3h4h3h3h3h3h3h3h3" style="fill: none; stroke: #0000ff; stroke-width: 2;"></path>
      </g>
     </svg>
     <g>
      <g transform="translate(0,221)">
       <path d="M0,0h306M0,-8V0M6,-4V0M12,-4V0M18,-4V0M24,-4V0M31,-8V0M37,-4V0M43,-4V0M49,-4V0M55,-4V0M61,-8V0M67,-4V0M73,-4V0M80,-4V0M86,-4V0M92,-8V0M98,-4V0M104,-4V0M110,-4V0M116,-4V0M122,-8V0M129,-4V0M135,-4V0M141,-4V0M147,-4V0M153,-8V0M159,-4V0M165,-4V0M171,-4V0M177,-4V0M184,-8V0M190,-4V0M196,-4V0M202,-4V0M208,-4V0M214,-8V0M220,-4V0M226,-4V0M233,-4V0M239,-4V0M245,-8V0M251,-4V0M257,-4V0M263,-4V0M269,-4V0M275,-8V0M282,-4V0M288,-4V0M294,-4V0M300,-4V0M306,-8V0" style="stroke: black; stroke-width: 1;"></path>
       <g font-family="Arial" font-size="10" space="preserve" fill="black" text-anchor="middle">
        <text dy=".8em" transform="translate(0,2)">
         0
        </text>
        <text dy=".8em" transform="translate(31,2)">
         0.5
        </text>
        <text dy=".8em" transform="translate(61,2)">
         1
        </text>
        <text dy=".8em" transform="translate(92,2)">
         1.5
        </text>
        <text dy=".8em" transform="translate(122,2)">
         2
        </text>
        <text dy=".8em" transform="translate(153,2)">
         2.5
        </text>
        <text dy=".8em" transform="translate(184,2)">
         3
        </text>
        <text dy=".8em" transform="translate(214,2)">
         3.5
        </text>
        <text dy=".8em" transform="translate(245,2)">
         4
        </text>
        <text dy=".8em" transform="translate(275,2)">
         4.5
        </text>
        <text dy=".8em" transform="translate(306,2)">
         5
        </text>
       </g>
      </g>
      <g>
       <path d="M0,0v221M11,221H0M6,217H0M6,212H0M6,208H0M6,204H0M11,199H0M6,195H0M6,191H0M6,186H0M6,182H0M11,178H0M6,173H0M6,169H0M6,165H0M6,160H0M11,156H0M6,152H0M6,147H0M6,143H0M6,139H0M11,134H0M6,130H0M6,126H0M6,121H0M6,117H0M11,113H0M6,108H0M6,104H0M6,100H0M6,95H0M11,91H0M6,87H0M6,82H0M6,78H0M6,74H0M11,69H0M6,65H0M6,61H0M6,56H0M6,52H0M11,48H0M6,43H0M6,39H0M6,35H0M6,30H0M11,26H0M6,22H0M6,17H0M6,13H0M6,9H0M11,4H0M6,0H0" style="stroke: black; stroke-width: 1;"></path>
       <g font-family="Arial" font-size="10" space="preserve" fill="black" text-anchor="end">
        <text dy=".4em" transform="translate(-2,221)">
         0
        </text>
        <text dy=".4em" transform="translate(-2,199)">
         0.1
        </text>
        <text dy=".4em" transform="translate(-2,178)">
         0.2
        </text>
        <text dy=".4em" transform="translate(-2,156)">
         0.3
        </text>
        <text dy=".4em" transform="translate(-2,134)">
         0.4
        </text>
        <text dy=".4em" transform="translate(-2,113)">
         0.5
        </text>
        <text dy=".4em" transform="translate(-2,91)">
         0.6
        </text>
        <text dy=".4em" transform="translate(-2,69)">
         0.7
        </text>
        <text dy=".4em" transform="translate(-2,48)">
         0.8
        </text>
        <text dy=".4em" transform="translate(-2,26)">
         0.9
        </text>
        <text dy=".4em" transform="translate(-2,4)">
         1
        </text>
       </g>
      </g>
     </g>
    </g>
    <g transform="translate(38,1)" font-family="Arial" font-size="14" space="preserve">
     <text fill="black" text-anchor="middle" dy=".8em" transform="translate(153)">
      ROOT::Math::erfc(x)
     </text>
    </g>
   </g>
  </svg>
 </g>
</svg>