<svg xmlns="http://www.w3.org/2000/svg" viewBox="0 0 798 625" preserveAspectRatio="none" width="798" height="625">
 <path d="M0,0H798V625H0Z" style="fill: #cdcdcd;"></path>
 <g>
  <svg viewBox="0 0 383 300" preserveAspectRatio="none" x="8" y="6" width="383" height="300">
   <path d="M0,0H383V300H0Z" style="fill: #cdcdcd;"></path>
   <g>
    <g transform="translate(38,30)">
     <path d="M0,0H306V240H0Z" style="fill: #f3f3f3; stroke: black; stroke-width: 1;"></path>
     <g>
      <path d="M0,0v240M31,0v240M61,0v240M92,0v240M122,0v240M153,0v240M184,0v240M214,0v240M245,0v240M275,0v240M306,0v240" style="stroke: black; stroke-width: 1; stroke-dasharray: 1,2;"></path>
      <path d="M0,217h306M0,194h306M0,171h306M0,149h306M0,126h306M0,103h306M0,80h306M0,57h306M0,34h306M0,11h306" style="stroke: black; stroke-width: 1; stroke-dasharray: 1,2;"></path>
     </g>
     <svg x="0" y="0" overflow="hidden" width="306" height="240" viewBox="0 0 306 240">
      <g>
       <path d="M0,240C0.31,240,2.45,240,3.06,240S5.51,240,6.12,240S8.57,240,9.18,240S11.63,240,12.24,240S14.69,239.99,15.3,239.99S17.75,239.99,18.36,239.99S20.81,239.98,21.42,239.98S23.87,239.97,24.48,239.97S26.93,239.95,27.54,239.95S29.99,239.93,30.6,239.92S33.05,239.9,33.66,239.89S36.11,239.85,36.72,239.83S39.17,239.78,39.78,239.76S42.23,239.68,42.84,239.65S45.29,239.54,45.9,239.5S48.35,239.34,48.96,239.29S51.41,239.08,52.02,239.01S54.47,238.72,55.08,238.63S57.53,238.25,58.14,238.13S60.59,237.62,61.2,237.46S63.65,236.79,64.26,236.59S66.71,235.72,67.32,235.47S69.77,234.35,70.38,234.03S72.83,232.63,73.44,232.22S75.89,230.46,76.5,229.96S78.95,227.79,79.56,227.17S82.01,224.52,82.62,223.77S85.07,220.57,85.68,219.68S88.13,215.86,88.74,214.8S91.19,210.31,91.8,209.07S94.25,203.84,94.86,202.41S97.31,196.4,97.92,194.77S100.37,187.95,100.98,186.12S103.43,178.48,104.04,176.45S106.49,168.02,107.1,165.79S109.55,156.61,110.16,154.22S112.61,144.36,113.22,141.82S115.67,131.41,116.28,128.74S118.73,117.92,119.34,115.18S121.79,104.13,122.4,101.36S124.85,90.28,125.46,87.55S127.91,76.67,128.52,74.02S130.97,63.59,131.58,61.1S134.03,51.36,134.64,49.08S137.09,40.29,137.7,38.29S140.15,30.68,140.76,29S143.21,22.79,143.82,21.49S146.27,16.85,146.88,15.95S149.33,13.02,149.94,12.57S152.39,11.43,153,11.43S155.45,12.12,156.06,12.57S158.51,15.06,159.12,15.95S161.57,20.18,162.18,21.49S164.63,27.32,165.24,29S167.69,36.28,168.3,38.29S170.75,46.8,171.36,49.08S173.81,58.6,174.42,61.1S176.87,71.38,177.48,74.02S179.93,84.81,180.54,87.55S182.99,98.6,183.6,101.36S186.05,112.45,186.66,115.18S189.11,126.08,189.72,128.74S192.17,139.27,192.78,141.82S195.23,151.82,195.84,154.22S198.29,163.57,198.9,165.79S201.35,174.42,201.96,176.45S204.41,184.28,205.02,186.12S207.47,193.14,208.08,194.77S210.53,200.98,211.14,202.41S213.59,207.83,214.2,209.07S216.65,213.74,217.26,214.8S219.71,218.78,220.32,219.68S222.77,223.02,223.38,223.77S225.83,226.55,226.44,227.17S228.89,229.45,229.5,229.96S231.95,231.81,232.56,232.22S235.01,233.71,235.62,234.03S238.07,235.21,238.68,235.47S241.13,236.39,241.74,236.59S244.19,237.31,244.8,237.46S247.25,238.01,247.86,238.13S250.31,238.55,250.92,238.63S253.37,238.95,253.98,239.01S256.43,239.25,257.04,239.29S259.49,239.47,260.1,239.5S262.55,239.62,263.16,239.65S265.61,239.74,266.22,239.76S268.67,239.82,269.28,239.83S271.73,239.88,272.34,239.89S274.79,239.92,275.4,239.92S277.85,239.95,278.46,239.95S280.91,239.96,281.52,239.97S283.97,239.98,284.58,239.98S287.03,239.99,287.64,239.99S290.09,239.99,290.7,239.99S293.15,239.99,293.76,240S296.21,240,296.82,240S299.27,240,299.88,240S302.33,240,302.94,240S305.69,240,306,240" style="fill: none; stroke: red; stroke-width: 1; stroke-dasharray: 3,3;"></path>
      </g>
      <g>
       <path d="M0,239.91C0.31,239.91,2.45,239.9,3.06,239.89S5.51,239.88,6.12,239.88S8.57,239.86,9.18,239.85S11.63,239.83,12.24,239.83S14.69,239.81,15.3,239.8S17.75,239.77,18.36,239.76S20.81,239.73,21.42,239.72S23.87,239.68,24.48,239.67S26.93,239.62,27.54,239.61S29.99,239.55,30.6,239.54S33.05,239.47,33.66,239.45S36.11,239.37,36.72,239.35S39.17,239.25,39.78,239.23S42.23,239.11,42.84,239.08S45.29,238.95,45.9,238.91S48.35,238.75,48.96,238.7S51.41,238.51,52.02,238.45S54.47,238.22,55.08,238.16S57.53,237.89,58.14,237.81S60.59,237.49,61.2,237.4S63.65,237.01,64.26,236.9S66.71,236.44,67.32,236.32S69.77,235.77,70.38,235.62S72.83,234.98,73.44,234.81S75.89,234.05,76.5,233.84S78.95,232.96,79.56,232.71S82.01,231.68,82.62,231.39S85.07,230.19,85.68,229.86S88.13,228.46,88.74,228.08S91.19,226.46,91.8,226.02S94.25,224.18,94.86,223.68S97.31,221.57,97.92,221S100.37,218.63,100.98,217.99S103.43,215.32,104.04,214.61S106.49,211.65,107.1,210.87S109.55,207.62,110.16,206.77S112.61,203.24,113.22,202.32S115.67,198.54,116.28,197.56S118.73,193.57,119.34,192.55S121.79,188.4,122.4,187.35S124.85,183.11,125.46,182.05S127.91,177.81,128.52,176.77S130.97,172.64,131.58,171.64S134.03,167.71,134.64,166.78S137.09,163.18,137.7,162.36S140.15,159.2,140.76,158.5S143.21,155.89,143.82,155.34S146.27,153.37,146.88,152.99S149.33,151.74,149.94,151.55S152.39,151.06,153,151.06S155.45,151.36,156.06,151.55S158.51,152.61,159.12,152.99S161.57,154.79,162.18,155.34S164.63,157.8,165.24,158.5S167.69,161.53,168.3,162.36S170.75,165.86,171.36,166.78S173.81,170.64,174.42,171.64S176.87,175.73,177.48,176.77S179.93,180.99,180.54,182.05S182.99,186.3,183.6,187.35S186.05,191.53,186.66,192.55S189.11,196.59,189.72,197.56S192.17,201.4,192.78,202.32S195.23,205.91,195.84,206.77S198.29,210.09,198.9,210.87S201.35,213.9,201.96,214.61S204.41,217.35,205.02,217.99S207.47,220.43,208.08,221S210.53,223.17,211.14,223.68S213.59,225.58,214.2,226.02S216.65,227.69,217.26,228.08S219.71,229.53,220.32,229.86S222.77,231.11,223.38,231.39S225.83,232.47,226.44,232.71S228.89,233.63,229.5,233.84S231.95,234.63,232.56,234.81S235.01,235.47,235.62,235.62S238.07,236.19,238.68,236.32S241.13,236.79,241.74,236.9S244.19,237.3,244.8,237.4S247.25,237.73,247.86,237.81S250.31,238.1,250.92,238.16S253.37,238.4,253.98,238.45S256.43,238.66,257.04,238.7S259.49,238.87,260.1,238.91S262.55,239.05,263.16,239.08S265.61,239.2,266.22,239.23S268.67,239.33,269.28,239.35S271.73,239.43,272.34,239.45S274.79,239.52,275.4,239.54S277.85,239.6,278.46,239.61S280.91,239.66,281.52,239.67S283.97,239.71,284.58,239.72S287.03,239.76,287.64,239.76S290.09,239.79,290.7,239.8S293.15,239.82,293.76,239.83S296.21,239.85,296.82,239.85S299.27,239.87,299.88,239.88S302.33,239.89,302.94,239.89S305.69,239.91,306,239.91" style="fill: none; stroke: blue; stroke-width: 1;"></path>
      </g>
      <g>
       <path d="M0,239.04C0.31,239.03,2.45,238.98,3.06,238.96S5.51,238.9,6.12,238.89S8.57,238.82,9.18,238.8S11.63,238.73,12.24,238.71S14.69,238.62,15.3,238.6S17.75,238.51,18.36,238.49S20.81,238.39,21.42,238.36S23.87,238.25,24.48,238.23S26.93,238.11,27.54,238.07S29.99,237.94,30.6,237.91S33.05,237.76,33.66,237.72S36.11,237.56,36.72,237.51S39.17,237.33,39.78,237.29S42.23,237.09,42.84,237.03S45.29,236.81,45.9,236.75S48.35,236.5,48.96,236.43S51.41,236.16,52.02,236.08S54.47,235.77,55.08,235.69S57.53,235.34,58.14,235.25S60.59,234.86,61.2,234.75S63.65,234.31,64.26,234.19S66.71,233.7,67.32,233.57S69.77,233.01,70.38,232.86S72.83,232.23,73.44,232.06S75.89,231.36,76.5,231.16S78.95,230.36,79.56,230.15S82.01,229.24,82.62,229S85.07,227.98,85.68,227.7S88.13,226.54,88.74,226.23S91.19,224.92,91.8,224.57S94.25,223.09,94.86,222.7S97.31,221.03,97.92,220.58S100.37,218.71,100.98,218.21S103.43,216.11,104.04,215.54S106.49,213.2,107.1,212.57S109.55,209.96,110.16,209.27S112.61,206.39,113.22,205.63S115.67,202.47,116.28,201.65S118.73,198.23,119.34,197.34S121.79,193.69,122.4,192.74S124.85,188.89,125.46,187.91S127.91,183.93,128.52,182.93S130.97,178.91,131.58,177.92S134.03,173.98,134.64,173.03S137.09,169.29,137.7,168.42S140.15,165.04,140.76,164.28S143.21,161.42,143.82,160.81S146.27,158.61,146.88,158.18S149.33,156.77,149.94,156.55S152.39,155.99,153,155.99S155.45,156.33,156.06,156.55S158.51,157.76,159.12,158.18S161.57,160.2,162.18,160.81S164.63,163.52,165.24,164.28S167.69,167.54,168.3,168.42S170.75,172.08,171.36,173.03S173.81,176.93,174.42,177.92S176.87,181.94,177.48,182.93S179.93,186.93,180.54,187.91S182.99,191.8,183.6,192.74S186.05,196.45,186.66,197.34S189.11,200.82,189.72,201.65S192.17,204.86,192.78,205.63S195.23,208.57,195.84,209.27S198.29,211.94,198.9,212.57S201.35,214.98,201.96,215.54S204.41,217.7,205.02,218.21S207.47,220.13,208.08,220.58S210.53,222.3,211.14,222.7S213.59,224.22,214.2,224.57S216.65,225.92,217.26,226.23S219.71,227.42,220.32,227.7S222.77,228.75,223.38,229S225.83,229.93,226.44,230.15S228.89,230.97,229.5,231.16S231.95,231.89,232.56,232.06S235.01,232.71,235.62,232.86S238.07,233.43,238.68,233.57S241.13,234.07,241.74,234.19S244.19,234.64,244.8,234.75S247.25,235.15,247.86,235.25S250.31,235.6,250.92,235.69S253.37,236.01,253.98,236.08S256.43,236.37,257.04,236.43S259.49,236.69,260.1,236.75S262.55,236.98,263.16,237.03S265.61,237.24,266.22,237.29S268.67,237.47,269.28,237.51S271.73,237.68,272.34,237.72S274.79,237.87,275.4,237.91S277.85,238.04,278.46,238.07S280.91,238.2,281.52,238.23S283.97,238.34,284.58,238.36S287.03,238.46,287.64,238.49S290.09,238.58,290.7,238.6S293.15,238.69,293.76,238.71S296.21,238.78,296.82,238.8S299.27,238.87,299.88,238.89S302.33,238.95,302.94,238.96S305.69,239.03,306,239.04" style="fill: none; stroke: red; stroke-width: 1;"></path>
      </g>
      <g>
       <path d="M0,237.2C0.31,237.19,2.45,237.11,3.06,237.09S5.51,237,6.12,236.97S8.57,236.88,9.18,236.85S11.63,236.74,12.24,236.72S14.69,236.61,15.3,236.58S17.75,236.46,18.36,236.43S20.81,236.3,21.42,236.27S23.87,236.13,24.48,236.1S26.93,235.95,27.54,235.92S29.99,235.76,30.6,235.72S33.05,235.56,33.66,235.51S36.11,235.34,36.72,235.29S39.17,235.1,39.78,235.05S42.23,234.84,42.84,234.79S45.29,234.57,45.9,234.51S48.35,234.27,48.96,234.21S51.41,233.95,52.02,233.88S54.47,233.6,55.08,233.53S57.53,233.22,58.14,233.14S60.59,232.81,61.2,232.73S63.65,232.36,64.26,232.27S66.71,231.87,67.32,231.77S69.77,231.34,70.38,231.22S72.83,230.75,73.44,230.62S75.89,230.1,76.5,229.97S78.95,229.39,79.56,229.24S82.01,228.6,82.62,228.43S85.07,227.73,85.68,227.54S88.13,226.76,88.74,226.55S91.19,225.68,91.8,225.45S94.25,224.48,94.86,224.22S97.31,223.13,97.92,222.84S100.37,221.63,100.98,221.3S103.43,219.93,104.04,219.56S106.49,218.03,107.1,217.61S109.55,215.89,110.16,215.42S112.61,213.48,113.22,212.95S115.67,210.77,116.28,210.18S118.73,207.74,119.34,207.08S121.79,204.35,122.4,203.62S124.85,200.6,125.46,199.8S127.91,196.5,128.52,195.64S130.97,192.08,131.58,191.17S134.03,187.44,134.64,186.5S137.09,182.72,137.7,181.8S140.15,178.13,140.76,177.28S143.21,173.98,143.82,173.25S146.27,170.57,146.88,170.04S149.33,168.24,149.94,167.96S152.39,167.24,153,167.24S155.45,167.68,156.06,167.96S158.51,169.51,159.12,170.04S161.57,172.53,162.18,173.25S164.63,176.43,165.24,177.28S167.69,180.87,168.3,181.8S170.75,185.57,171.36,186.5S173.81,190.26,174.42,191.17S176.87,194.77,177.48,195.64S179.93,199.01,180.54,199.8S182.99,202.89,183.6,203.62S186.05,206.42,186.66,207.08S189.11,209.6,189.72,210.18S192.17,212.43,192.78,212.95S195.23,214.95,195.84,215.42S198.29,217.2,198.9,217.61S201.35,219.2,201.96,219.56S204.41,220.97,205.02,221.3S207.47,222.55,208.08,222.84S210.53,223.96,211.14,224.22S213.59,225.22,214.2,225.45S216.65,226.34,217.26,226.55S219.71,227.35,220.32,227.54S222.77,228.26,223.38,228.43S225.83,229.08,226.44,229.24S228.89,229.83,229.5,229.97S231.95,230.5,232.56,230.62S235.01,231.11,235.62,231.22S238.07,231.67,238.68,231.77S241.13,232.17,241.74,232.27S244.19,232.64,244.8,232.73S247.25,233.06,247.86,233.14S250.31,233.45,250.92,233.53S253.37,233.81,253.98,233.88S256.43,234.15,257.04,234.21S259.49,234.45,260.1,234.51S262.55,234.74,263.16,234.79S265.61,235,266.22,235.05S268.67,235.24,269.28,235.29S271.73,235.47,272.34,235.51S274.79,235.68,275.4,235.72S277.85,235.88,278.46,235.92S280.91,236.06,281.52,236.1S283.97,236.23,284.58,236.27S287.03,236.4,287.64,236.43S290.09,236.55,290.7,236.58S293.15,236.69,293.76,236.72S296.21,236.82,296.82,236.85S299.27,236.95,299.88,236.97S302.33,237.07,302.94,237.09S305.69,237.19,306,237.2" style="fill: none; stroke: black; stroke-width: 1;"></path>
      </g>
     </svg>
     <g>
      <g transform="translate(0,240)">
       <path d="M0,0h306M0,-9V0M6,-5V0M12,-5V0M18,-5V0M24,-5V0M31,-9V0M37,-5V0M43,-5V0M49,-5V0M55,-5V0M61,-9V0M67,-5V0M73,-5V0M80,-5V0M86,-5V0M92,-9V0M98,-5V0M104,-5V0M110,-5V0M116,-5V0M122,-9V0M129,-5V0M135,-5V0M141,-5V0M147,-5V0M153,-9V0M159,-5V0M165,-5V0M171,-5V0M177,-5V0M184,-9V0M190,-5V0M196,-5V0M202,-5V0M208,-5V0M214,-9V0M220,-5V0M226,-5V0M233,-5V0M239,-5V0M245,-9V0M251,-5V0M257,-5V0M263,-5V0M269,-5V0M275,-9V0M282,-5V0M288,-5V0M294,-5V0M300,-5V0M306,-9V0" style="stroke: black; stroke-width: 1;"></path>
       <g font-family="Arial" font-size="11" space="preserve" fill="black" text-anchor="middle">
        <text dy=".8em" transform="translate(0,4)">
         -5
        </text>
        <text dy=".8em" transform="translate(31,4)">
         -4
        </text>
        <text dy=".8em" transform="translate(61,4)">
         -3
        </text>
        <text dy=".8em" transform="translate(92,4)">
         -2
        </text>
        <text dy=".8em" transform="translate(122,4)">
         -1
        </text>
        <text dy=".8em" transform="translate(153,4)">
         0
        </text>
        <text dy=".8em" transform="translate(184,4)">
         1
        </text>
        <text dy=".8em" transform="translate(214,4)">
         2
        </text>
        <text dy=".8em" transform="translate(245,4)">
         3
        </text>
        <text dy=".8em" transform="translate(275,4)">
         4
        </text>
        <text dy=".8em" transform="translate(306,4)">
         5
        </text>
       </g>
      </g>
      <g>
       <path d="M0,0v240M6,235H0M6,231H0M6,226H0M6,222H0M11,217H0M6,213H0M6,208H0M6,203H0M6,199H0M11,194H0M6,190H0M6,185H0M6,181H0M6,176H0M11,171H0M6,167H0M6,162H0M6,158H0M6,153H0M11,149H0M6,144H0M6,139H0M6,135H0M6,130H0M11,126H0M6,121H0M6,117H0M6,112H0M6,107H0M11,103H0M6,98H0M6,94H0M6,89H0M6,85H0M11,80H0M6,75H0M6,71H0M6,66H0M6,62H0M11,57H0M6,53H0M6,48H0M6,43H0M6,39H0M11,34H0M6,30H0M6,25H0M6,21H0M6,16H0M11,11H0M6,7H0M6,2H0" style="stroke: black; stroke-width: 1;"></path>
       <g font-family="Arial" font-size="11" space="preserve" fill="black" text-anchor="end">
        <text dy=".4em" transform="translate(-2,217)">
         0.1
        </text>
        <text dy=".4em" transform="translate(-2,194)">
         0.2
        </text>
        <text dy=".4em" transform="translate(-2,171)">
         0.3
        </text>
        <text dy=".4em" transform="translate(-2,149)">
         0.4
        </text>
        <text dy=".4em" transform="translate(-2,126)">
         0.5
        </text>
        <text dy=".4em" transform="translate(-2,103)">
         0.6
        </text>
        <text dy=".4em" transform="translate(-2,80)">
         0.7
        </text>
        <text dy=".4em" transform="translate(-2,57)">
         0.8
        </text>
        <text dy=".4em" transform="translate(-2,34)">
         0.9
        </text>
        <text dy=".4em" transform="translate(-2,11)">
         1
        </text>
       </g>
      </g>
     </g>
    </g>
    <g transform="translate(38,2)" font-family="Arial" font-size="15" space="preserve">
     <text fill="black" text-anchor="middle" dy=".8em" transform="translate(153)">
      Student density
     </text>
    </g>
    <g transform="translate(230,33)" font-family="Arial" font-size="6" space="preserve">
     <path d="M0,0H111V57H0Z" style="fill: white; stroke: black; stroke-width: 1;"></path>
     <path d="M3,9H25" style="stroke: red; stroke-width: 1; stroke-dasharray: 3,3;"></path>
     <text fill="black" text-anchor="start" dy=".4em" transform="translate(28,9)">
      Normal(0,1)
     </text>
     <path d="M3,22H25" style="stroke: blue; stroke-width: 1;"></path>
     <text fill="black" text-anchor="start" dy=".4em" transform="translate(28,22)">
      10 degrees of freedom
     </text>
     <path d="M3,35H25" style="stroke: red; stroke-width: 1;"></path>
     <text fill="black" text-anchor="start" dy=".4em" transform="translate(28,36)">
      3 degrees of freedom
     </text>
     <path d="M3,48H25" style="stroke: black; stroke-width: 1;"></path>
     <text fill="black" text-anchor="start" dy=".4em" transform="translate(28,49)">
      1 degree of freedom
     </text>
    </g>
   </g>
  </svg>
  <svg viewBox="0 0 383 300" preserveAspectRatio="none" x="407" y="6" width="383" height="300">
   <path d="M0,0H383V300H0Z" style="fill: #cdcdcd;"></path>
   <g>
    <g transform="translate(38,30)">
     <path d="M0,0H306V240H0Z" style="fill: #f3f3f3; stroke: black; stroke-width: 1;"></path>
     <g>
      <path d="M0,0v240M31,0v240M61,0v240M92,0v240M122,0v240M153,0v240M184,0v240M214,0v240M245,0v240M275,0v240M306,0v240" style="stroke: black; stroke-width: 1; stroke-dasharray: 1,2;"></path>
      <path d="M0,217h306M0,194h306M0,171h306M0,149h306M0,126h306M0,103h306M0,80h306M0,57h306M0,34h306M0,11h306" style="stroke: black; stroke-width: 1; stroke-dasharray: 1,2;"></path>
     </g>
     <svg x="0" y="0" overflow="hidden" width="306" height="240" viewBox="0 0 306 240">
      <g>
       <path d="M0,240C0.31,240,2.45,239.99,3.06,239.99S5.51,239.98,6.12,239.98S8.57,239.97,9.18,239.97S11.63,239.95,12.24,239.95S14.69,239.93,15.3,239.93S17.75,239.91,18.36,239.91S20.81,239.89,21.42,239.88S23.87,239.86,24.48,239.85S26.93,239.82,27.54,239.82S29.99,239.78,30.6,239.77S33.05,239.73,33.66,239.72S36.11,239.68,36.72,239.66S39.17,239.61,39.78,239.59S42.23,239.53,42.84,239.51S45.29,239.43,45.9,239.41S48.35,239.31,48.96,239.29S51.41,239.18,52.02,239.15S54.47,239.01,55.08,238.98S57.53,238.82,58.14,238.77S60.59,238.59,61.2,238.54S63.65,238.31,64.26,238.25S66.71,237.99,67.32,237.91S69.77,237.6,70.38,237.51S72.83,237.14,73.44,237.03S75.89,236.59,76.5,236.47S78.95,235.94,79.56,235.79S82.01,235.17,82.62,235S85.07,234.27,85.68,234.07S88.13,233.2,88.74,232.96S91.19,231.95,91.8,231.67S94.25,230.48,94.86,230.16S97.31,228.77,97.92,228.39S100.37,226.79,100.98,226.34S103.43,224.48,104.04,223.98S106.49,221.83,107.1,221.25S109.55,218.8,110.16,218.13S112.61,215.34,113.22,214.59S115.67,211.43,116.28,210.58S118.73,207.04,119.34,206.09S121.79,202.14,122.4,201.08S124.85,196.71,125.46,195.55S127.91,190.75,128.52,189.49S130.97,184.27,131.58,182.9S134.03,177.28,134.64,175.82S137.09,169.82,137.7,168.26S140.15,161.93,140.76,160.3S143.21,153.67,143.82,151.98S146.27,145.12,146.88,143.38S149.33,136.36,149.94,134.6S152.39,127.49,153,125.72S155.45,118.6,156.06,116.83S158.51,109.79,159.12,108.05S161.57,101.14,162.18,99.45S164.63,92.76,165.24,91.13S167.69,84.72,168.3,83.17S170.75,77.08,171.36,75.62S173.81,69.9,174.42,68.53S176.87,63.21,177.48,61.95S179.93,57.04,180.54,55.88S182.99,51.4,183.6,50.35S186.05,46.29,186.66,45.34S189.11,41.7,189.72,40.85S192.17,37.6,192.78,36.84S195.23,33.96,195.84,33.3S198.29,30.76,198.9,30.18S201.35,27.97,201.96,27.46S204.41,25.53,205.02,25.09S207.47,23.42,208.08,23.04S210.53,21.6,211.14,21.27S213.59,20.04,214.2,19.76S216.65,18.71,217.26,18.47S219.71,17.57,220.32,17.37S222.77,16.6,223.38,16.43S225.83,15.78,226.44,15.64S228.89,15.09,229.5,14.97S231.95,14.5,232.56,14.4S235.01,14.01,235.62,13.92S238.07,13.59,238.68,13.52S241.13,13.24,241.74,13.18S244.19,12.95,244.8,12.9S247.25,12.7,247.86,12.66S250.31,12.49,250.92,12.46S253.37,12.32,253.98,12.29S256.43,12.17,257.04,12.14S259.49,12.05,260.1,12.02S262.55,11.94,263.16,11.92S265.61,11.86,266.22,11.84S268.67,11.78,269.28,11.77S271.73,11.72,272.34,11.71S274.79,11.67,275.4,11.66S277.85,11.62,278.46,11.62S280.91,11.59,281.52,11.58S283.97,11.55,284.58,11.55S287.03,11.53,287.64,11.52S290.09,11.5,290.7,11.5S293.15,11.49,293.76,11.48S296.21,11.47,296.82,11.47S299.27,11.46,299.88,11.45S302.33,11.44,302.94,11.44S305.69,11.43,306,11.43" style="fill: none; stroke: blue; stroke-width: 1;"></path>
      </g>
      <g>
       <path d="M0,238.3C0.31,238.29,2.45,238.22,3.06,238.2S5.51,238.12,6.12,238.09S8.57,238,9.18,237.98S11.63,237.88,12.24,237.85S14.69,237.75,15.3,237.72S17.75,237.6,18.36,237.57S20.81,237.45,21.42,237.42S23.87,237.28,24.48,237.24S26.93,237.1,27.54,237.06S29.99,236.9,30.6,236.86S33.05,236.69,33.66,236.64S36.11,236.45,36.72,236.4S39.17,236.2,39.78,236.14S42.23,235.92,42.84,235.86S45.29,235.61,45.9,235.55S48.35,235.28,48.96,235.21S51.41,234.91,52.02,234.83S54.47,234.51,55.08,234.42S57.53,234.06,58.14,233.97S60.59,233.57,61.2,233.47S63.65,233.03,64.26,232.91S66.71,232.43,67.32,232.3S69.77,231.77,70.38,231.62S72.83,231.03,73.44,230.87S75.89,230.21,76.5,230.03S78.95,229.3,79.56,229.1S82.01,228.28,82.62,228.06S85.07,227.14,85.68,226.89S88.13,225.87,88.74,225.59S91.19,224.44,91.8,224.13S94.25,222.84,94.86,222.49S97.31,221.05,97.92,220.66S100.37,219.04,100.98,218.6S103.43,216.78,104.04,216.29S106.49,214.25,107.1,213.7S109.55,211.4,110.16,210.79S112.61,208.22,113.22,207.53S115.67,204.67,116.28,203.9S118.73,200.7,119.34,199.85S121.79,196.3,122.4,195.35S124.85,191.43,125.46,190.38S127.91,186.07,128.52,184.92S130.97,180.21,131.58,178.96S134.03,173.85,134.64,172.51S137.09,167,137.7,165.57S140.15,159.71,140.76,158.2S143.21,152.02,143.82,150.44S146.27,144.01,146.88,142.38S149.33,135.77,149.94,134.1S152.39,127.39,153,125.72S155.45,119,156.06,117.33S158.51,110.69,159.12,109.05S161.57,102.57,162.18,100.99S164.63,94.75,165.24,93.23S167.69,87.29,168.3,85.86S170.75,80.26,171.36,78.93S173.81,73.71,174.42,72.47S176.87,67.65,177.48,66.51S179.93,62.09,180.54,61.05S182.99,57.03,183.6,56.08S186.05,52.44,186.66,51.58S189.11,48.3,189.72,47.53S192.17,44.59,192.78,43.9S195.23,41.26,195.84,40.64S198.29,38.29,198.9,37.74S201.35,35.63,201.96,35.14S204.41,33.27,205.02,32.83S207.47,31.16,208.08,30.77S210.53,29.28,211.14,28.94S213.59,27.61,214.2,27.3S216.65,26.12,217.26,25.84S219.71,24.79,220.32,24.54S222.77,23.6,223.38,23.38S225.83,22.53,226.44,22.33S228.89,21.58,229.5,21.4S231.95,20.72,232.56,20.56S235.01,19.95,235.62,19.81S238.07,19.26,238.68,19.13S241.13,18.63,241.74,18.52S244.19,18.07,244.8,17.96S247.25,17.56,247.86,17.46S250.31,17.1,250.92,17.01S253.37,16.68,253.98,16.6S256.43,16.3,257.04,16.23S259.49,15.95,260.1,15.88S262.55,15.63,263.16,15.57S265.61,15.34,266.22,15.29S268.67,15.08,269.28,15.03S271.73,14.84,272.34,14.79S274.79,14.61,275.4,14.57S277.85,14.41,278.46,14.37S280.91,14.22,281.52,14.19S283.97,14.05,284.58,14.02S287.03,13.89,287.64,13.86S290.09,13.74,290.7,13.71S293.15,13.6,293.76,13.58S296.21,13.48,296.82,13.45S299.27,13.36,299.88,13.34S302.33,13.25,302.94,13.23S305.69,13.14,306,13.13" style="fill: none; stroke: red; stroke-width: 1;"></path>
      </g>
      <g>
       <path d="M0,225.69C0.31,225.66,2.45,225.46,3.06,225.41S5.51,225.17,6.12,225.11S8.57,224.86,9.18,224.8S11.63,224.54,12.24,224.48S14.69,224.21,15.3,224.14S17.75,223.87,18.36,223.79S20.81,223.5,21.42,223.43S23.87,223.12,24.48,223.05S26.93,222.73,27.54,222.65S29.99,222.31,30.6,222.23S33.05,221.88,33.66,221.79S36.11,221.42,36.72,221.33S39.17,220.95,39.78,220.85S42.23,220.44,42.84,220.34S45.29,219.91,45.9,219.8S48.35,219.35,48.96,219.24S51.41,218.77,52.02,218.64S54.47,218.14,55.08,218.01S57.53,217.48,58.14,217.35S60.59,216.79,61.2,216.64S63.65,216.04,64.26,215.89S66.71,215.26,67.32,215.09S69.77,214.42,70.38,214.24S72.83,213.52,73.44,213.33S75.89,212.56,76.5,212.36S78.95,211.54,79.56,211.32S82.01,210.44,82.62,210.21S85.07,209.25,85.68,209.01S88.13,207.98,88.74,207.71S91.19,206.6,91.8,206.31S94.25,205.11,94.86,204.79S97.31,203.49,97.92,203.15S100.37,201.73,100.98,201.35S103.43,199.81,104.04,199.4S106.49,197.71,107.1,197.26S109.55,195.4,110.16,194.91S112.61,192.87,113.22,192.33S115.67,190.09,116.28,189.49S118.73,187.01,119.34,186.35S121.79,183.62,122.4,182.89S124.85,179.87,125.46,179.06S127.91,175.72,128.52,174.83S130.97,171.15,131.58,170.17S134.03,166.13,134.64,165.06S137.09,160.63,137.7,159.47S140.15,154.67,140.76,153.41S143.21,148.27,143.82,146.93S146.27,141.48,146.88,140.09S149.33,134.41,149.94,132.97S152.39,127.17,153,125.72S155.45,119.9,156.06,118.46S158.51,112.74,159.12,111.35S161.57,105.83,162.18,104.5S164.63,99.27,165.24,98.02S167.69,93.13,168.3,91.96S170.75,87.45,171.36,86.38S173.81,82.24,174.42,81.26S176.87,77.49,177.48,76.6S179.93,73.18,180.54,72.37S182.99,69.27,183.6,68.54S186.05,65.74,186.66,65.08S189.11,62.54,189.72,61.94S192.17,59.64,192.78,59.1S195.23,57.01,195.84,56.52S198.29,54.62,198.9,54.17S201.35,52.44,201.96,52.03S204.41,50.45,205.02,50.08S207.47,48.63,208.08,48.28S210.53,46.95,211.14,46.64S213.59,45.41,214.2,45.12S216.65,43.99,217.26,43.72S219.71,42.68,220.32,42.43S222.77,41.46,223.38,41.23S225.83,40.32,226.44,40.11S228.89,39.27,229.5,39.07S231.95,38.29,232.56,38.1S235.01,37.37,235.62,37.19S238.07,36.51,238.68,36.34S241.13,35.7,241.74,35.54S244.19,34.94,244.8,34.79S247.25,34.22,247.86,34.09S250.31,33.55,250.92,33.42S253.37,32.91,253.98,32.79S256.43,32.31,257.04,32.19S259.49,31.74,260.1,31.63S262.55,31.2,263.16,31.09S265.61,30.68,266.22,30.59S268.67,30.2,269.28,30.1S271.73,29.73,272.34,29.64S274.79,29.29,275.4,29.2S277.85,28.87,278.46,28.78S280.91,28.46,281.52,28.39S283.97,28.08,284.58,28S287.03,27.71,287.64,27.64S290.09,27.36,290.7,27.29S293.15,27.02,293.76,26.95S296.21,26.69,296.82,26.63S299.27,26.38,299.88,26.32S302.33,26.08,302.94,26.02S305.69,25.77,306,25.74" style="fill: none; stroke: black; stroke-width: 1;"></path>
      </g>
     </svg>
     <g>
      <g transform="translate(0,240)">
       <path d="M0,0h306M0,-9V0M6,-5V0M12,-5V0M18,-5V0M24,-5V0M31,-9V0M37,-5V0M43,-5V0M49,-5V0M55,-5V0M61,-9V0M67,-5V0M73,-5V0M80,-5V0M86,-5V0M92,-9V0M98,-5V0M104,-5V0M110,-5V0M116,-5V0M122,-9V0M129,-5V0M135,-5V0M141,-5V0M147,-5V0M153,-9V0M159,-5V0M165,-5V0M171,-5V0M177,-5V0M184,-9V0M190,-5V0M196,-5V0M202,-5V0M208,-5V0M214,-9V0M220,-5V0M226,-5V0M233,-5V0M239,-5V0M245,-9V0M251,-5V0M257,-5V0M263,-5V0M269,-5V0M275,-9V0M282,-5V0M288,-5V0M294,-5V0M300,-5V0M306,-9V0" style="stroke: black; stroke-width: 1;"></path>
       <g font-family="Arial" font-size="11" space="preserve" fill="black" text-anchor="middle">
        <text dy=".8em" transform="translate(0,4)">
         -5
        </text>
        <text dy=".8em" transform="translate(31,4)">
         -4
        </text>
        <text dy=".8em" transform="translate(61,4)">
         -3
        </text>
        <text dy=".8em" transform="translate(92,4)">
         -2
        </text>
        <text dy=".8em" transform="translate(122,4)">
         -1
        </text>
        <text dy=".8em" transform="translate(153,4)">
         0
        </text>
        <text dy=".8em" transform="translate(184,4)">
         1
        </text>
        <text dy=".8em" transform="translate(214,4)">
         2
        </text>
        <text dy=".8em" transform="translate(245,4)">
         3
        </text>
        <text dy=".8em" transform="translate(275,4)">
         4
        </text>
        <text dy=".8em" transform="translate(306,4)">
         5
        </text>
       </g>
      </g>
      <g>
       <path d="M0,0v240M6,235H0M6,231H0M6,226H0M6,222H0M11,217H0M6,213H0M6,208H0M6,203H0M6,199H0M11,194H0M6,190H0M6,185H0M6,181H0M6,176H0M11,171H0M6,167H0M6,162H0M6,158H0M6,153H0M11,149H0M6,144H0M6,139H0M6,135H0M6,130H0M11,126H0M6,121H0M6,117H0M6,112H0M6,107H0M11,103H0M6,98H0M6,94H0M6,89H0M6,85H0M11,80H0M6,75H0M6,71H0M6,66H0M6,62H0M11,57H0M6,53H0M6,48H0M6,43H0M6,39H0M11,34H0M6,30H0M6,25H0M6,21H0M6,16H0M11,11H0M6,7H0M6,2H0" style="stroke: black; stroke-width: 1;"></path>
       <g font-family="Arial" font-size="11" space="preserve" fill="black" text-anchor="end">
        <text dy=".4em" transform="translate(-2,217)">
         0.1
        </text>
        <text dy=".4em" transform="translate(-2,194)">
         0.2
        </text>
        <text dy=".4em" transform="translate(-2,171)">
         0.3
        </text>
        <text dy=".4em" transform="translate(-2,149)">
         0.4
        </text>
        <text dy=".4em" transform="translate(-2,126)">
         0.5
        </text>
        <text dy=".4em" transform="translate(-2,103)">
         0.6
        </text>
        <text dy=".4em" transform="translate(-2,80)">
         0.7
        </text>
        <text dy=".4em" transform="translate(-2,57)">
         0.8
        </text>
        <text dy=".4em" transform="translate(-2,34)">
         0.9
        </text>
        <text dy=".4em" transform="translate(-2,11)">
         1
        </text>
       </g>
      </g>
     </g>
    </g>
    <g transform="translate(38,2)" font-family="Arial" font-size="15" space="preserve">
     <text fill="black" text-anchor="middle" dy=".8em" transform="translate(153)">
      Student cumulative dist.
     </text>
    </g>
    <g transform="translate(230,120)" font-family="Arial" font-size="6" space="preserve">
     <path d="M0,0H111V60H0Z" style="fill: white; stroke: black; stroke-width: 1;"></path>
     <path d="M3,11H25" style="stroke: blue; stroke-width: 1;"></path>
     <text fill="black" text-anchor="start" dy=".4em" transform="translate(28,11)">
      10 degrees of freedom
     </text>
     <path d="M3,30H25" style="stroke: red; stroke-width: 1;"></path>
     <text fill="black" text-anchor="start" dy=".4em" transform="translate(28,30)">
      3 degrees of freedom
     </text>
     <path d="M3,49H25" style="stroke: black; stroke-width: 1;"></path>
     <text fill="black" text-anchor="start" dy=".4em" transform="translate(28,48)">
      1 degree of freedom
     </text>
    </g>
   </g>
  </svg>
  <svg viewBox="0 0 383 300" preserveAspectRatio="none" x="8" y="319" width="383" height="300">
   <path d="M0,0H383V300H0Z" style="fill: #cdcdcd;"></path>
   <g>
    <g transform="translate(38,30)">
     <path d="M0,0H306V240H0Z" style="fill: #f3f3f3; stroke: black; stroke-width: 1;"></path>
     <g>
      <path d="M28,0v240M59,0v240M90,0v240M121,0v240M151,0v240M182,0v240M213,0v240M244,0v240M275,0v240M306,0v240" style="stroke: black; stroke-width: 1; stroke-dasharray: 1,2;"></path>
      <path d="M0,195h306M0,141h306M0,87h306M0,34h306" style="stroke: black; stroke-width: 1; stroke-dasharray: 1,2;"></path>
     </g>
     <svg x="0" y="0" overflow="hidden" width="306" height="240" viewBox="0 0 306 240">
      <g>
       <path d="M0,11.81C0.19,19.01,2.45,73.32,3.06,83.77S5.51,111.08,6.12,116.31S8.57,132.67,9.18,136S11.63,147.23,12.24,149.61S14.69,157.95,15.3,159.76S17.75,166.28,18.36,167.72S20.81,173,21.42,174.18S23.87,178.57,24.48,179.57S26.93,183.3,27.54,184.15S29.99,187.37,30.6,188.11S33.05,190.93,33.66,191.58S36.11,194.07,36.72,194.65S39.17,196.86,39.78,197.38S42.23,199.38,42.84,199.85S45.29,201.65,45.9,202.08S48.35,203.72,48.96,204.11S51.41,205.61,52.02,205.97S54.47,207.35,55.08,207.68S57.53,208.95,58.14,209.26S60.59,210.44,61.2,210.72S63.65,211.82,64.26,212.08S66.71,213.1,67.32,213.35S69.77,214.31,70.38,214.54S72.83,215.43,73.44,215.65S75.89,216.49,76.5,216.69S78.95,217.48,79.56,217.67S82.01,218.42,82.62,218.6S85.07,219.3,85.68,219.47S88.13,220.14,88.74,220.3S91.19,220.94,91.8,221.09S94.25,221.69,94.86,221.83S97.31,222.4,97.92,222.54S100.37,223.09,100.98,223.22S103.43,223.73,104.04,223.86S106.49,224.35,107.1,224.47S109.55,224.95,110.16,225.06S112.61,225.51,113.22,225.62S115.67,226.05,116.28,226.16S118.73,226.57,119.34,226.67S121.79,227.07,122.4,227.16S124.85,227.54,125.46,227.64S127.91,228,128.52,228.09S130.97,228.44,131.58,228.53S134.03,228.86,134.64,228.95S137.09,229.27,137.7,229.35S140.15,229.66,140.76,229.74S143.21,230.04,143.82,230.11S146.27,230.41,146.88,230.48S149.33,230.76,149.94,230.83S152.39,231.1,153,231.16S155.45,231.42,156.06,231.49S158.51,231.74,159.12,231.8S161.57,232.05,162.18,232.11S164.63,232.35,165.24,232.4S167.69,232.63,168.3,232.69S170.75,232.91,171.36,232.97S173.81,233.18,174.42,233.23S176.87,233.44,177.48,233.49S179.93,233.7,180.54,233.75S182.99,233.94,183.6,233.99S186.05,234.18,186.66,234.23S189.11,234.41,189.72,234.46S192.17,234.64,192.78,234.68S195.23,234.86,195.84,234.9S198.29,235.07,198.9,235.11S201.35,235.28,201.96,235.32S204.41,235.48,205.02,235.52S207.47,235.67,208.08,235.71S210.53,235.87,211.14,235.9S213.59,236.05,214.2,236.09S216.65,236.23,217.26,236.27S219.71,236.41,220.32,236.44S222.77,236.58,223.38,236.61S225.83,236.75,226.44,236.78S228.89,236.91,229.5,236.94S231.95,237.07,232.56,237.1S235.01,237.23,235.62,237.26S238.07,237.38,238.68,237.41S241.13,237.53,241.74,237.56S244.19,237.67,244.8,237.7S247.25,237.81,247.86,237.84S250.31,237.95,250.92,237.98S253.37,238.09,253.98,238.11S256.43,238.22,257.04,238.24S259.49,238.35,260.1,238.37S262.55,238.47,263.16,238.5S265.61,238.6,266.22,238.62S268.67,238.72,269.28,238.74S271.73,238.83,272.34,238.86S274.79,238.95,275.4,238.97S277.85,239.06,278.46,239.08S280.91,239.17,281.52,239.2S283.97,239.28,284.58,239.3S287.03,239.39,287.64,239.41S290.09,239.49,290.7,239.51S293.15,239.59,293.76,239.61S296.21,239.69,296.82,239.71S299.27,239.79,299.88,239.81S302.33,239.89,302.94,239.91S305.69,239.99,306,240" style="fill: none; stroke: black; stroke-width: 1;"></path>
      </g>
      <g>
       <path d="M0,-43.29C0.19,-34.58,2.45,31.13,3.06,43.75S5.51,76.62,6.12,82.9S8.57,102.51,9.18,106.5S11.63,119.93,12.24,122.77S14.69,132.73,15.3,134.89S17.75,142.67,18.36,144.39S20.81,150.69,21.42,152.11S23.87,157.36,24.48,158.55S26.93,163.02,27.54,164.04S29.99,167.9,30.6,168.8S33.05,172.18,33.66,172.97S36.11,175.97,36.72,176.68S39.17,179.36,39.78,179.99S42.23,182.42,42.84,182.99S45.29,185.2,45.9,185.72S48.35,187.73,48.96,188.21S51.41,190.06,52.02,190.51S54.47,192.22,55.08,192.62S57.53,194.21,58.14,194.59S60.59,196.07,61.2,196.42S63.65,197.8,64.26,198.13S66.71,199.42,67.32,199.73S69.77,200.95,70.38,201.24S72.83,202.38,73.44,202.66S75.89,203.74,76.5,204S78.95,205.02,79.56,205.26S82.01,206.23,82.62,206.47S85.07,207.38,85.68,207.61S88.13,208.48,88.74,208.69S91.19,209.53,91.8,209.73S94.25,210.52,94.86,210.72S97.31,211.47,97.92,211.66S100.37,212.39,100.98,212.56S103.43,213.26,104.04,213.43S106.49,214.09,107.1,214.26S109.55,214.9,110.16,215.05S112.61,215.67,113.22,215.82S115.67,216.41,116.28,216.55S118.73,217.12,119.34,217.26S121.79,217.81,122.4,217.94S124.85,218.47,125.46,218.6S127.91,219.11,128.52,219.24S130.97,219.73,131.58,219.85S134.03,220.33,134.64,220.44S137.09,220.9,137.7,221.01S140.15,221.46,140.76,221.57S143.21,222,143.82,222.1S146.27,222.52,146.88,222.62S149.33,223.03,149.94,223.13S152.39,223.52,153,223.62S155.45,224,156.06,224.09S158.51,224.46,159.12,224.55S161.57,224.91,162.18,225S164.63,225.34,165.24,225.43S167.69,225.77,168.3,225.85S170.75,226.18,171.36,226.26S173.81,226.58,174.42,226.66S176.87,226.97,177.48,227.05S179.93,227.35,180.54,227.42S182.99,227.72,183.6,227.79S186.05,228.08,186.66,228.15S189.11,228.43,189.72,228.5S192.17,228.77,192.78,228.84S195.23,229.1,195.84,229.17S198.29,229.43,198.9,229.49S201.35,229.74,201.96,229.81S204.41,230.05,205.02,230.11S207.47,230.35,208.08,230.41S210.53,230.65,211.14,230.71S213.59,230.94,214.2,230.99S216.65,231.22,217.26,231.27S219.71,231.49,220.32,231.55S222.77,231.76,223.38,231.81S225.83,232.02,226.44,232.07S228.89,232.28,229.5,232.33S231.95,232.53,232.56,232.58S235.01,232.77,235.62,232.82S238.07,233.01,238.68,233.06S241.13,233.25,241.74,233.29S244.19,233.47,244.8,233.52S247.25,233.7,247.86,233.74S250.31,233.92,250.92,233.96S253.37,234.13,253.98,234.18S256.43,234.34,257.04,234.39S259.49,234.55,260.1,234.59S262.55,234.75,263.16,234.79S265.61,234.95,266.22,234.99S268.67,235.14,269.28,235.18S271.73,235.33,272.34,235.37S274.79,235.52,275.4,235.56S277.85,235.7,278.46,235.74S280.91,235.88,281.52,235.92S283.97,236.06,284.58,236.09S287.03,236.23,287.64,236.26S290.09,236.4,290.7,236.43S293.15,236.56,293.76,236.6S296.21,236.73,296.82,236.76S299.27,236.89,299.88,236.92S302.33,237.04,302.94,237.07S305.69,237.21,306,237.23" style="fill: none; stroke: red; stroke-width: 1;"></path>
      </g>
      <g>
       <path d="M0,247.26C0.36,246.85,2.45,243.99,3.06,242.8S5.51,236.91,6.12,235.33S8.57,228.61,9.18,227S11.63,220.66,12.24,219.22S14.69,213.79,15.3,212.6S17.75,208.23,18.36,207.29S20.81,203.93,21.42,203.22S23.87,200.73,24.48,200.22S26.93,198.46,27.54,198.11S29.99,196.95,30.6,196.73S33.05,196.04,33.66,195.93S36.11,195.61,36.72,195.58S39.17,195.56,39.78,195.59S42.23,195.8,42.84,195.88S45.29,196.26,45.9,196.37S48.35,196.89,48.96,197.03S51.41,197.64,52.02,197.81S54.47,198.49,55.08,198.67S57.53,199.4,58.14,199.59S60.59,200.36,61.2,200.56S63.65,201.35,64.26,201.55S66.71,202.35,67.32,202.55S69.77,203.36,70.38,203.56S72.83,204.37,73.44,204.57S75.89,205.37,76.5,205.56S78.95,206.35,79.56,206.54S82.01,207.32,82.62,207.51S85.07,208.27,85.68,208.45S88.13,209.19,88.74,209.38S91.19,210.1,91.8,210.28S94.25,210.98,94.86,211.15S97.31,211.84,97.92,212S100.37,212.67,100.98,212.83S103.43,213.48,104.04,213.64S106.49,214.26,107.1,214.42S109.55,215.03,110.16,215.18S112.61,215.76,113.22,215.91S115.67,216.48,116.28,216.62S118.73,217.17,119.34,217.31S121.79,217.85,122.4,217.98S124.85,218.5,125.46,218.62S127.91,219.13,128.52,219.25S130.97,219.74,131.58,219.86S134.03,220.33,134.64,220.45S137.09,220.9,137.7,221.02S140.15,221.46,140.76,221.57S143.21,222,143.82,222.11S146.27,222.52,146.88,222.62S149.33,223.03,149.94,223.13S152.39,223.52,153,223.62S155.45,224,156.06,224.09S158.51,224.46,159.12,224.55S161.57,224.91,162.18,224.99S164.63,225.34,165.24,225.43S167.69,225.76,168.3,225.85S170.75,226.18,171.36,226.26S173.81,226.57,174.42,226.65S176.87,226.96,177.48,227.04S179.93,227.34,180.54,227.41S182.99,227.7,183.6,227.77S186.05,228.06,186.66,228.13S189.11,228.4,189.72,228.47S192.17,228.74,192.78,228.81S195.23,229.07,195.84,229.13S198.29,229.39,198.9,229.45S201.35,229.69,201.96,229.76S204.41,230,205.02,230.06S207.47,230.29,208.08,230.35S210.53,230.58,211.14,230.63S213.59,230.85,214.2,230.91S216.65,231.13,217.26,231.18S219.71,231.39,220.32,231.44S222.77,231.65,223.38,231.7S225.83,231.9,226.44,231.95S228.89,232.15,229.5,232.19S231.95,232.39,232.56,232.43S235.01,232.62,235.62,232.66S238.07,232.85,238.68,232.89S241.13,233.07,241.74,233.11S244.19,233.29,244.8,233.33S247.25,233.5,247.86,233.54S250.31,233.71,250.92,233.75S253.37,233.91,253.98,233.95S256.43,234.11,257.04,234.14S259.49,234.3,260.1,234.34S262.55,234.49,263.16,234.53S265.61,234.67,266.22,234.71S268.67,234.85,269.28,234.89S271.73,235.03,272.34,235.07S274.79,235.2,275.4,235.24S277.85,235.37,278.46,235.41S280.91,235.54,281.52,235.57S283.97,235.7,284.58,235.73S287.03,235.86,287.64,235.89S290.09,236.01,290.7,236.04S293.15,236.17,293.76,236.2S296.21,236.31,296.82,236.34S299.27,236.46,299.88,236.49S302.33,236.6,302.94,236.63S305.69,236.76,306,236.77" style="fill: none; stroke: #59d454; stroke-width: 1;"></path>
      </g>
      <g>
       <path d="M0,248.02C0.31,248.02,2.45,247.96,3.06,247.92S5.51,247.67,6.12,247.55S8.57,246.99,9.18,246.78S11.63,245.81,12.24,245.5S14.69,244.07,15.3,243.64S17.75,241.75,18.36,241.21S20.81,238.88,21.42,238.24S23.87,235.53,24.48,234.8S26.93,231.77,27.54,230.97S29.99,227.68,30.6,226.83S33.05,223.37,33.66,222.49S36.11,218.92,36.72,218.02S39.17,214.41,39.78,213.51S42.23,209.92,42.84,209.03S45.29,205.51,45.9,204.65S48.35,201.24,48.96,200.42S51.41,197.16,52.02,196.37S54.47,193.3,55.08,192.56S57.53,189.68,58.14,189S60.59,186.34,61.2,185.71S63.65,183.27,64.26,182.7S66.71,180.49,67.32,179.98S69.77,178.01,70.38,177.55S72.83,175.81,73.44,175.41S75.89,173.9,76.5,173.55S78.95,172.26,79.56,171.97S82.01,170.89,82.62,170.65S85.07,169.77,85.68,169.57S88.13,168.88,88.74,168.74S91.19,168.23,91.8,168.13S94.25,167.79,94.86,167.73S97.31,167.54,97.92,167.52S100.37,167.48,100.98,167.49S103.43,167.59,104.04,167.63S106.49,167.85,107.1,167.92S109.55,168.25,110.16,168.35S112.61,168.78,113.22,168.9S115.67,169.42,116.28,169.57S118.73,170.17,119.34,170.34S121.79,171.02,122.4,171.2S124.85,171.94,125.46,172.14S127.91,172.94,128.52,173.15S130.97,174,131.58,174.22S134.03,175.12,134.64,175.35S137.09,176.28,137.7,176.52S140.15,177.48,140.76,177.73S143.21,178.72,143.82,178.97S146.27,179.98,146.88,180.24S149.33,181.27,149.94,181.53S152.39,182.57,153,182.83S155.45,183.88,156.06,184.15S158.51,185.2,159.12,185.47S161.57,186.53,162.18,186.79S164.63,187.85,165.24,188.11S167.69,189.17,168.3,189.43S170.75,190.48,171.36,190.75S173.81,191.79,174.42,192.05S176.87,193.09,177.48,193.34S179.93,194.37,180.54,194.62S182.99,195.64,183.6,195.89S186.05,196.89,186.66,197.14S189.11,198.12,189.72,198.37S192.17,199.34,192.78,199.58S195.23,200.54,195.84,200.77S198.29,201.72,198.9,201.95S201.35,202.87,201.96,203.1S204.41,204.01,205.02,204.23S207.47,205.12,208.08,205.34S210.53,206.21,211.14,206.43S213.59,207.28,214.2,207.49S216.65,208.32,217.26,208.53S219.71,209.35,220.32,209.55S222.77,210.35,223.38,210.55S225.83,211.33,226.44,211.52S228.89,212.28,229.5,212.47S231.95,213.21,232.56,213.4S235.01,214.12,235.62,214.3S238.07,215.01,238.68,215.19S241.13,215.88,241.74,216.05S244.19,216.72,244.8,216.89S247.25,217.55,247.86,217.71S250.31,218.35,250.92,218.51S253.37,219.13,253.98,219.29S256.43,219.9,257.04,220.05S259.49,220.64,260.1,220.78S262.55,221.36,263.16,221.5S265.61,222.07,266.22,222.2S268.67,222.75,269.28,222.89S271.73,223.42,272.34,223.55S274.79,224.07,275.4,224.19S277.85,224.7,278.46,224.82S280.91,225.31,281.52,225.43S283.97,225.91,284.58,226.03S287.03,226.49,287.64,226.61S290.09,227.06,290.7,227.17S293.15,227.61,293.76,227.72S296.21,228.14,296.82,228.25S299.27,228.66,299.88,228.77S302.33,229.17,302.94,229.27S305.69,229.71,306,229.76" style="fill: none; stroke: blue; stroke-width: 1;"></path>
      </g>
     </svg>
     <g>
      <g transform="translate(0,240)">
       <path d="M0,0h306M5,-5V0M12,-5V0M20,-5V0M28,-9V0M36,-5V0M43,-5V0M51,-5V0M59,-9V0M66,-5V0M74,-5V0M82,-5V0M90,-9V0M97,-5V0M105,-5V0M113,-5V0M121,-9V0M128,-5V0M136,-5V0M144,-5V0M151,-9V0M159,-5V0M167,-5V0M175,-5V0M182,-9V0M190,-5V0M198,-5V0M206,-5V0M213,-9V0M221,-5V0M229,-5V0M236,-5V0M244,-9V0M252,-5V0M260,-5V0M267,-5V0M275,-9V0M283,-5V0M291,-5V0M298,-5V0M306,-9V0" style="stroke: black; stroke-width: 1;"></path>
       <g font-family="Arial" font-size="11" space="preserve" fill="black" text-anchor="middle">
        <text dy=".8em" transform="translate(28,4)">
         0.2
        </text>
        <text dy=".8em" transform="translate(59,4)">
         0.4
        </text>
        <text dy=".8em" transform="translate(90,4)">
         0.6
        </text>
        <text dy=".8em" transform="translate(121,4)">
         0.8
        </text>
        <text dy=".8em" transform="translate(151,4)">
         1
        </text>
        <text dy=".8em" transform="translate(182,4)">
         1.2
        </text>
        <text dy=".8em" transform="translate(213,4)">
         1.4
        </text>
        <text dy=".8em" transform="translate(244,4)">
         1.6
        </text>
        <text dy=".8em" transform="translate(275,4)">
         1.8
        </text>
        <text dy=".8em" transform="translate(306,4)">
         2
        </text>
       </g>
      </g>
      <g>
       <path d="M0,0v240M6,237H0M6,227H0M6,216H0M6,205H0M11,195H0M6,184H0M6,173H0M6,162H0M6,152H0M11,141H0M6,130H0M6,120H0M6,109H0M6,98H0M11,87H0M6,77H0M6,66H0M6,55H0M6,45H0M11,34H0M6,23H0M6,13H0M6,2H0" style="stroke: black; stroke-width: 1;"></path>
       <g font-family="Arial" font-size="11" space="preserve" fill="black" text-anchor="end">
        <text dy=".4em" transform="translate(-2,195)">
         0.5
        </text>
        <text dy=".4em" transform="translate(-2,141)">
         1
        </text>
        <text dy=".4em" transform="translate(-2,87)">
         1.5
        </text>
        <text dy=".4em" transform="translate(-2,34)">
         2
        </text>
       </g>
      </g>
     </g>
    </g>
    <g transform="translate(38,2)" font-family="Arial" font-size="15" space="preserve">
     <text fill="black" text-anchor="middle" dy=".8em" transform="translate(153)">
      F-Dist. density
     </text>
    </g>
    <g transform="translate(268,33)" font-family="Arial" font-size="9" space="preserve">
     <path d="M0,0H73V57H0Z" style="fill: white; stroke: black; stroke-width: 1;"></path>
     <path d="M2,9H16" style="stroke: black; stroke-width: 1;"></path>
     <text fill="black" text-anchor="start" dy=".4em" transform="translate(18,9)">
      N=1 M=1
     </text>
     <path d="M2,22H16" style="stroke: red; stroke-width: 1;"></path>
     <text fill="black" text-anchor="start" dy=".4em" transform="translate(18,22)">
      N=1 M=10
     </text>
     <path d="M2,35H16" style="stroke: #59d454; stroke-width: 1;"></path>
     <text fill="black" text-anchor="start" dy=".4em" transform="translate(18,36)">
      N=10 M=1
     </text>
     <path d="M2,48H16" style="stroke: blue; stroke-width: 1;"></path>
     <text fill="black" text-anchor="start" dy=".4em" transform="translate(18,49)">
      N=10 M=10
     </text>
    </g>
   </g>
  </svg>
  <svg viewBox="0 0 383 300" preserveAspectRatio="none" x="407" y="319" width="383" height="300">
   <path d="M0,0H383V300H0Z" style="fill: #cdcdcd;"></path>
   <g>
    <g transform="translate(38,30)">
     <path d="M0,0H306V240H0Z" style="fill: #f3f3f3; stroke: black; stroke-width: 1;"></path>
     <g>
      <path d="M0,0v240M31,0v240M61,0v240M92,0v240M122,0v240M153,0v240M184,0v240M214,0v240M245,0v240M275,0v240M306,0v240" style="stroke: black; stroke-width: 1; stroke-dasharray: 1,2;"></path>
      <path d="M0,240h306M0,202h306M0,165h306M0,127h306M0,90h306M0,52h306M0,15h306" style="stroke: black; stroke-width: 1; stroke-dasharray: 1,2;"></path>
     </g>
     <svg x="0" y="0" overflow="hidden" width="306" height="240" viewBox="0 0 306 240">
      <g>
       <path d="M0,240C0.18,236.63,2.45,211.11,3.06,206.39S5.51,195.16,6.12,192.77S8.57,184.4,9.18,182.52S11.63,175.63,12.24,174.05S14.69,168.1,15.3,166.72S17.75,161.45,18.36,160.21S20.81,155.46,21.42,154.33S23.87,149.99,24.48,148.96S26.93,144.95,27.54,144S29.99,140.28,30.6,139.38S33.05,135.9,33.66,135.07S36.11,131.8,36.72,131.01S39.17,127.92,39.78,127.18S42.23,124.26,42.84,123.55S45.29,120.78,45.9,120.11S48.35,117.47,48.96,116.83S51.41,114.31,52.02,113.69S54.47,111.28,55.08,110.7S57.53,108.39,58.14,107.83S60.59,105.61,61.2,105.07S63.65,102.94,64.26,102.42S66.71,100.37,67.32,99.87S69.77,97.89,70.38,97.41S72.83,95.5,73.44,95.03S75.89,93.19,76.5,92.74S78.95,90.96,79.56,90.52S82.01,88.79,82.62,88.37S85.07,86.7,85.68,86.29S88.13,84.67,88.74,84.27S91.19,82.7,91.8,82.31S94.25,80.78,94.86,80.41S97.31,78.92,97.92,78.56S100.37,77.12,100.98,76.76S103.43,75.36,104.04,75.01S106.49,73.64,107.1,73.31S109.55,71.97,110.16,71.65S112.61,70.35,113.22,70.03S115.67,68.76,116.28,68.45S118.73,67.21,119.34,66.91S121.79,65.7,122.4,65.4S124.85,64.23,125.46,63.93S127.91,62.78,128.52,62.5S130.97,61.37,131.58,61.1S134.03,60,134.64,59.72S137.09,58.65,137.7,58.38S140.15,57.33,140.76,57.07S143.21,56.04,143.82,55.78S146.27,54.77,146.88,54.53S149.33,53.54,149.94,53.29S152.39,52.32,153,52.08S155.45,51.13,156.06,50.9S158.51,49.97,159.12,49.74S161.57,48.82,162.18,48.6S164.63,47.7,165.24,47.48S167.69,46.6,168.3,46.38S170.75,45.52,171.36,45.31S173.81,44.46,174.42,44.25S176.87,43.42,177.48,43.21S179.93,42.4,180.54,42.19S182.99,41.39,183.6,41.19S186.05,40.4,186.66,40.21S189.11,39.43,189.72,39.24S192.17,38.48,192.78,38.29S195.23,37.54,195.84,37.35S198.29,36.62,198.9,36.44S201.35,35.71,201.96,35.53S204.41,34.82,205.02,34.64S207.47,33.94,208.08,33.76S210.53,33.07,211.14,32.9S213.59,32.22,214.2,32.05S216.65,31.38,217.26,31.22S219.71,30.56,220.32,30.39S222.77,29.74,223.38,29.58S225.83,28.94,226.44,28.78S228.89,28.15,229.5,27.99S231.95,27.37,232.56,27.22S235.01,26.61,235.62,26.45S238.07,25.85,238.68,25.7S241.13,25.11,241.74,24.96S244.19,24.37,244.8,24.23S247.25,23.65,247.86,23.5S250.31,22.93,250.92,22.79S253.37,22.23,253.98,22.09S256.43,21.53,257.04,21.39S259.49,20.85,260.1,20.71S262.55,20.17,263.16,20.03S265.61,19.5,266.22,19.37S268.67,18.84,269.28,18.71S271.73,18.19,272.34,18.06S274.79,17.55,275.4,17.42S277.85,16.91,278.46,16.79S280.91,16.29,281.52,16.16S283.97,15.67,284.58,15.55S287.03,15.06,287.64,14.94S290.09,14.45,290.7,14.33S293.15,13.86,293.76,13.74S296.21,13.27,296.82,13.15S299.27,12.69,299.88,12.57S302.33,12.11,302.94,12S305.69,11.48,306,11.43" style="fill: none; stroke: black; stroke-width: 1;"></path>
      </g>
      <g>
       <path d="M0,240C0.18,235.87,2.45,204.6,3.06,198.79S5.51,184.89,6.12,181.93S8.57,171.48,9.18,169.14S11.63,160.47,12.24,158.47S14.69,150.93,15.3,149.17S17.75,142.45,18.36,140.86S20.81,134.75,21.42,133.3S23.87,127.68,24.48,126.34S26.93,121.12,27.54,119.87S29.99,114.99,30.6,113.81S33.05,109.23,33.66,108.12S36.11,103.79,36.72,102.74S39.17,98.63,39.78,97.63S42.23,93.72,42.84,92.77S45.29,89.03,45.9,88.12S48.35,84.55,48.96,83.68S51.41,80.26,52.02,79.42S54.47,76.13,55.08,75.33S57.53,72.17,58.14,71.39S60.59,68.34,61.2,67.6S63.65,64.66,64.26,63.94S66.71,61.09,67.32,60.4S69.77,57.65,70.38,56.97S72.83,54.31,73.44,53.66S75.89,51.08,76.5,50.45S78.95,47.95,79.56,47.33S82.01,44.9,82.62,44.31S85.07,41.95,85.68,41.37S88.13,39.08,88.74,38.51S91.19,36.28,91.8,35.74S94.25,33.57,94.86,33.03S97.31,30.92,97.92,30.4S100.37,28.34,100.98,27.83S103.43,25.83,104.04,25.33S106.49,23.37,107.1,22.89S109.55,20.98,110.16,20.51S112.61,18.65,113.22,18.19S115.67,16.37,116.28,15.92S118.73,14.14,119.34,13.7S121.79,11.96,122.4,11.54S124.85,9.84,125.46,9.42S127.91,7.76,128.52,7.35S130.97,5.72,131.58,5.32S134.03,3.73,134.64,3.34S137.09,1.78,137.7,1.4S140.15,-0.12,140.76,-0.5S143.21,-1.99,143.82,-2.36S146.27,-3.82,146.88,-4.18S149.33,-5.61,149.94,-5.96S152.39,-7.37,153,-7.71S155.45,-9.09,156.06,-9.43S158.51,-10.78,159.12,-11.11S161.57,-12.43,162.18,-12.76S164.63,-14.05,165.24,-14.37S167.69,-15.65,168.3,-15.96S170.75,-17.21,171.36,-17.52S173.81,-18.74,174.42,-19.04S176.87,-20.24,177.48,-20.54S179.93,-21.72,180.54,-22.01S182.99,-23.17,183.6,-23.46S186.05,-24.6,186.66,-24.88S189.11,-25.99,189.72,-26.27S192.17,-27.37,192.78,-27.64S195.23,-28.72,195.84,-28.98S198.29,-30.04,198.9,-30.3S201.35,-31.35,201.96,-31.6S204.41,-32.63,205.02,-32.88S207.47,-33.88,208.08,-34.13S210.53,-35.12,211.14,-35.37S213.59,-36.34,214.2,-36.58S216.65,-37.54,217.26,-37.77S219.71,-38.71,220.32,-38.94S222.77,-39.87,223.38,-40.1S225.83,-41.01,226.44,-41.23S228.89,-42.13,229.5,-42.35S231.95,-43.23,232.56,-43.45S235.01,-44.31,235.62,-44.53S238.07,-45.38,238.68,-45.59S241.13,-46.43,241.74,-46.64S244.19,-47.46,244.8,-47.67S247.25,-48.48,247.86,-48.68S250.31,-49.48,250.92,-49.68S253.37,-50.47,253.98,-50.66S256.43,-51.44,257.04,-51.63S259.49,-52.4,260.1,-52.58S262.55,-53.34,263.16,-53.52S265.61,-54.26,266.22,-54.45S268.67,-55.18,269.28,-55.36S271.73,-56.08,272.34,-56.26S274.79,-56.96,275.4,-57.14S277.85,-57.84,278.46,-58.01S280.91,-58.7,281.52,-58.87S283.97,-59.55,284.58,-59.71S287.03,-60.38,287.64,-60.55S290.09,-61.2,290.7,-61.37S293.15,-62.02,293.76,-62.18S296.21,-62.82,296.82,-62.97S299.27,-63.6,299.88,-63.76S302.33,-64.38,302.94,-64.54S305.69,-65.22,306,-65.3" style="fill: none; stroke: red; stroke-width: 1;"></path>
      </g>
      <g>
       <path d="M0,240C0.31,240.01,2.45,240.01,3.06,239.99S5.51,239.88,6.12,239.8S8.57,239.35,9.18,239.17S11.63,238.27,12.24,237.97S14.69,236.6,15.3,236.2S17.75,234.41,18.36,233.91S20.81,231.78,21.42,231.21S23.87,228.81,24.48,228.18S26.93,225.58,27.54,224.91S29.99,222.16,30.6,221.46S33.05,218.61,33.66,217.89S36.11,214.99,36.72,214.25S39.17,211.31,39.78,210.58S42.23,207.63,42.84,206.89S45.29,203.95,45.9,203.22S48.35,200.31,48.96,199.58S51.41,196.7,52.02,195.98S54.47,193.14,55.08,192.44S57.53,189.64,58.14,188.95S60.59,186.21,61.2,185.53S63.65,182.84,64.26,182.18S66.71,179.54,67.32,178.89S69.77,176.32,70.38,175.68S72.83,173.16,73.44,172.54S75.89,170.07,76.5,169.47S78.95,167.06,79.56,166.47S82.01,164.12,82.62,163.54S85.07,161.24,85.68,160.68S88.13,158.44,88.74,157.88S91.19,155.69,91.8,155.16S94.25,153.02,94.86,152.49S97.31,150.4,97.92,149.89S100.37,147.85,100.98,147.35S103.43,145.36,104.04,144.87S106.49,142.92,107.1,142.44S109.55,140.54,110.16,140.08S112.61,138.22,113.22,137.76S115.67,135.95,116.28,135.5S118.73,133.72,119.34,133.29S121.79,131.55,122.4,131.12S124.85,129.43,125.46,129.01S127.91,127.35,128.52,126.94S130.97,125.32,131.58,124.92S134.03,123.33,134.64,122.93S137.09,121.38,137.7,121S140.15,119.47,140.76,119.1S143.21,117.6,143.82,117.24S146.27,115.78,146.88,115.42S149.33,113.98,149.94,113.63S152.39,112.23,153,111.88S155.45,110.51,156.06,110.17S158.51,108.82,159.12,108.49S161.57,107.16,162.18,106.84S164.63,105.54,165.24,105.22S167.69,103.95,168.3,103.64S170.75,102.39,171.36,102.08S173.81,100.85,174.42,100.55S176.87,99.35,177.48,99.05S179.93,97.87,180.54,97.58S182.99,96.42,183.6,96.13S186.05,95,186.66,94.71S189.11,93.6,189.72,93.32S192.17,92.22,192.78,91.95S195.23,90.87,195.84,90.6S198.29,89.54,198.9,89.28S201.35,88.23,201.96,87.98S204.41,86.95,205.02,86.7S207.47,85.69,208.08,85.44S210.53,84.45,211.14,84.2S213.59,83.22,214.2,82.98S216.65,82.02,217.26,81.78S219.71,80.84,220.32,80.6S222.77,79.67,223.38,79.44S225.83,78.53,226.44,78.3S228.89,77.4,229.5,77.18S231.95,76.29,232.56,76.07S235.01,75.19,235.62,74.98S238.07,74.12,238.68,73.9S241.13,73.05,241.74,72.84S244.19,72.01,244.8,71.8S247.25,70.98,247.86,70.77S250.31,69.96,250.92,69.76S253.37,68.96,253.98,68.76S256.43,67.97,257.04,67.78S259.49,67,260.1,66.81S262.55,66.04,263.16,65.85S265.61,65.09,266.22,64.91S268.67,64.16,269.28,63.98S271.73,63.24,272.34,63.06S274.79,62.33,275.4,62.15S277.85,61.44,278.46,61.26S280.91,60.55,281.52,60.38S283.97,59.68,284.58,59.51S287.03,58.82,287.64,58.65S290.09,57.97,290.7,57.8S293.15,57.13,293.76,56.96S296.21,56.3,296.82,56.14S299.27,55.48,299.88,55.32S302.33,54.68,302.94,54.52S305.69,53.8,306,53.72" style="fill: none; stroke: #59d454; stroke-width: 1;"></path>
      </g>
      <g>
       <path d="M0,240C0.31,240,2.45,240,3.06,240S5.51,240,6.12,240S8.57,239.99,9.18,239.98S11.63,239.94,12.24,239.92S14.69,239.82,15.3,239.79S17.75,239.6,18.36,239.54S20.81,239.24,21.42,239.14S23.87,238.69,24.48,238.55S26.93,237.91,27.54,237.72S29.99,236.88,30.6,236.64S33.05,235.57,33.66,235.27S36.11,233.96,36.72,233.59S39.17,232.04,39.78,231.61S42.23,229.8,42.84,229.3S45.29,227.23,45.9,226.68S48.35,224.36,48.96,223.74S51.41,221.18,52.02,220.5S54.47,217.7,55.08,216.96S57.53,213.94,58.14,213.15S60.59,209.92,61.2,209.09S63.65,205.66,64.26,204.78S66.71,201.18,67.32,200.25S69.77,196.49,70.38,195.53S72.83,191.62,73.44,190.62S75.89,186.59,76.5,185.56S78.95,181.42,79.56,180.36S82.01,176.12,82.62,175.05S85.07,170.73,85.68,169.64S88.13,165.25,88.74,164.14S91.19,159.7,91.8,158.59S94.25,154.11,94.86,152.99S97.31,148.48,97.92,147.35S100.37,142.83,100.98,141.7S103.43,137.18,104.04,136.05S106.49,131.53,107.1,130.4S109.55,125.89,110.16,124.77S112.61,120.29,113.22,119.17S115.67,114.72,116.28,113.61S118.73,109.19,119.34,108.09S121.79,103.72,122.4,102.63S124.85,98.3,125.46,97.23S127.91,92.95,128.52,91.89S130.97,87.68,131.58,86.63S134.03,82.47,134.64,81.44S137.09,77.35,137.7,76.33S140.15,72.3,140.76,71.31S143.21,67.35,143.82,66.37S146.27,62.48,146.88,61.52S149.33,57.7,149.94,56.75S152.39,53.01,153,52.08S155.45,48.41,156.06,47.51S158.51,43.91,159.12,43.02S161.57,39.5,162.18,38.63S164.63,35.18,165.24,34.33S167.69,30.96,168.3,30.13S170.75,26.83,171.36,26.02S173.81,22.8,174.42,22S176.87,18.85,177.48,18.08S179.93,15,180.54,14.24S182.99,11.24,183.6,10.5S186.05,7.57,186.66,6.85S189.11,3.99,189.72,3.29S192.17,0.5,192.78,-0.19S195.23,-2.91,195.84,-3.58S198.29,-6.24,198.9,-6.89S201.35,-9.48,201.96,-10.11S204.41,-12.63,205.02,-13.25S207.47,-15.71,208.08,-16.32S210.53,-18.71,211.14,-19.3S213.59,-21.63,214.2,-22.21S216.65,-24.48,217.26,-25.04S219.71,-27.25,220.32,-27.8S222.77,-29.95,223.38,-30.48S225.83,-32.58,226.44,-33.1S228.89,-35.14,229.5,-35.65S231.95,-37.64,232.56,-38.13S235.01,-40.07,235.62,-40.54S238.07,-42.43,238.68,-42.89S241.13,-44.73,241.74,-45.18S244.19,-46.97,244.8,-47.41S247.25,-49.15,247.86,-49.58S250.31,-51.28,250.92,-51.69S253.37,-53.34,253.98,-53.75S256.43,-55.35,257.04,-55.75S259.49,-57.31,260.1,-57.7S262.55,-59.22,263.16,-59.59S265.61,-61.07,266.22,-61.44S268.67,-62.88,269.28,-63.23S271.73,-64.63,272.34,-64.98S274.79,-66.34,275.4,-66.68S277.85,-68.01,278.46,-68.34S280.91,-69.63,281.52,-69.95S283.97,-71.21,284.58,-71.52S287.03,-72.74,287.64,-73.04S290.09,-74.24,290.7,-74.53S293.15,-75.69,293.76,-75.98S296.21,-77.11,296.82,-77.39S299.27,-78.49,299.88,-78.76S302.33,-79.83,302.94,-80.09S305.69,-81.27,306,-81.39" style="fill: none; stroke: blue; stroke-width: 1;"></path>
      </g>
     </svg>
     <g>
      <g transform="translate(0,240)">
       <path d="M0,0h306M0,-9V0M8,-5V0M15,-5V0M23,-5V0M31,-9V0M38,-5V0M46,-5V0M54,-5V0M61,-9V0M69,-5V0M77,-5V0M84,-5V0M92,-9V0M99,-5V0M107,-5V0M115,-5V0M122,-9V0M130,-5V0M138,-5V0M145,-5V0M153,-9V0M161,-5V0M168,-5V0M176,-5V0M184,-9V0M191,-5V0M199,-5V0M207,-5V0M214,-9V0M222,-5V0M230,-5V0M237,-5V0M245,-9V0M252,-5V0M260,-5V0M268,-5V0M275,-9V0M283,-5V0M291,-5V0M298,-5V0M306,-9V0" style="stroke: black; stroke-width: 1;"></path>
       <g font-family="Arial" font-size="11" space="preserve" fill="black" text-anchor="middle">
        <text dy=".8em" transform="translate(0,4)">
         0
        </text>
        <text dy=".8em" transform="translate(31,4)">
         0.2
        </text>
        <text dy=".8em" transform="translate(61,4)">
         0.4
        </text>
        <text dy=".8em" transform="translate(92,4)">
         0.6
        </text>
        <text dy=".8em" transform="translate(122,4)">
         0.8
        </text>
        <text dy=".8em" transform="translate(153,4)">
         1
        </text>
        <text dy=".8em" transform="translate(184,4)">
         1.2
        </text>
        <text dy=".8em" transform="translate(214,4)">
         1.4
        </text>
        <text dy=".8em" transform="translate(245,4)">
         1.6
        </text>
        <text dy=".8em" transform="translate(275,4)">
         1.8
        </text>
        <text dy=".8em" transform="translate(306,4)">
         2
        </text>
       </g>
      </g>
      <g>
       <path d="M0,0v240M11,240H0M6,232H0M6,225H0M6,217H0M6,210H0M11,202H0M6,195H0M6,187H0M6,180H0M6,172H0M11,165H0M6,157H0M6,150H0M6,142H0M6,135H0M11,127H0M6,120H0M6,112H0M6,105H0M6,97H0M11,90H0M6,82H0M6,75H0M6,67H0M6,60H0M11,52H0M6,45H0M6,37H0M6,30H0M6,22H0M11,15H0M6,7H0" style="stroke: black; stroke-width: 1;"></path>
       <g font-family="Arial" font-size="11" space="preserve" fill="black" text-anchor="end">
        <text dy=".4em" transform="translate(-2,240)">
         0
        </text>
        <text dy=".4em" transform="translate(-2,202)">
         0.1
        </text>
        <text dy=".4em" transform="translate(-2,165)">
         0.2
        </text>
        <text dy=".4em" transform="translate(-2,127)">
         0.3
        </text>
        <text dy=".4em" transform="translate(-2,90)">
         0.4
        </text>
        <text dy=".4em" transform="translate(-2,52)">
         0.5
        </text>
        <text dy=".4em" transform="translate(-2,15)">
         0.6
        </text>
       </g>
      </g>
     </g>
    </g>
    <g transform="translate(38,2)" font-family="Arial" font-size="15" space="preserve">
     <text fill="black" text-anchor="middle" dy=".8em" transform="translate(153)">
      Cumulative dist. function for F
     </text>
    </g>
    <g transform="translate(268,150)" font-family="Arial" font-size="9" space="preserve">
     <path d="M0,0H73V60H0Z" style="fill: white; stroke: black; stroke-width: 1;"></path>
     <path d="M2,9H16" style="stroke: black; stroke-width: 1;"></path>
     <text fill="black" text-anchor="start" dy=".4em" transform="translate(18,9)">
      N=1 M=1
     </text>
     <path d="M2,23H16" style="stroke: red; stroke-width: 1;"></path>
     <text fill="black" text-anchor="start" dy=".4em" transform="translate(18,23)">
      N=1 M=10
     </text>
     <path d="M2,37H16" style="stroke: #59d454; stroke-width: 1;"></path>
     <text fill="black" text-anchor="start" dy=".4em" transform="translate(18,37)">
      N=10 M=1
     </text>
     <path d="M2,51H16" style="stroke: blue; stroke-width: 1;"></path>
     <text fill="black" text-anchor="start" dy=".4em" transform="translate(18,51)">
      N=10 M=10
     </text>
    </g>
   </g>
  </svg>
 </g>
</svg>