<svg xmlns="http://www.w3.org/2000/svg" viewBox="0 0 798 625" preserveAspectRatio="none" width="798" height="625">
 <path d="M0,0H798V625H0Z" style="fill: #cdcdcd;"></path>
 <g>
  <svg viewBox="0 0 383 300" preserveAspectRatio="none" x="8" y="6" width="383" height="300">
   <path d="M0,0H383V300H0Z" style="fill: #cdcdcd;"></path>
   <g>
    <g transform="translate(38,30)">
     <path d="M0,0H306V240H0Z" style="fill: #f3f3f3; stroke: black; stroke-width: 1;"></path>
     <g>
      <path d="M0,0v240M31,0v240M61,0v240M92,0v240M122,0v240M153,0v240M184,0v240M214,0v240M245,0v240M275,0v240M306,0v240" style="stroke: black; stroke-width: 1; stroke-dasharray: 1,2;"></path>
      <path d="M0,240h306M0,211h306M0,183h306M0,154h306M0,125h306M0,97h306M0,68h306M0,39h306M0,11h306" style="stroke: black; stroke-width: 1; stroke-dasharray: 1,2;"></path>
     </g>
     <svg x="0" y="0" overflow="hidden" width="306" height="240" viewBox="0 0 306 240">
      <g>
       <path d="M1.5,240C2.1,240,3.3,240,4.5,240S6.3,240,7.5,240S9.3,240,10.5,240S12.3,239.99,13.5,239.99S15.3,239.99,16.5,239.99S18.3,239.99,19.5,239.98S21.2,239.98,22.5,239.97S24.6,239.97,26,239.96S28.2,239.95,29.5,239.94S31.3,239.92,32.5,239.91S34.3,239.88,35.5,239.86S37.3,239.83,38.5,239.8S40.3,239.75,41.5,239.71S43.3,239.64,44.5,239.58S46.3,239.49,47.5,239.4S49.3,239.28,50.5,239.16S52.3,238.99,53.5,238.84S55.3,238.6,56.5,238.4S58.3,238.08,59.5,237.81S61.3,237.4,62.5,237.05S64.3,236.51,65.5,236.06S67.3,235.36,68.5,234.78S70.2,233.9,71.5,233.17S73.6,232.05,75,231.14S77.2,229.74,78.5,228.62S80.3,226.9,81.5,225.53S83.3,223.44,84.5,221.79S86.3,219.27,87.5,217.31S89.3,214.31,90.5,212.01S92.3,208.48,93.5,205.81S95.3,201.72,96.5,198.66S98.3,193.97,99.5,190.51S101.3,185.2,102.5,181.33S104.3,175.42,105.5,171.16S107.3,164.65,108.5,160.01S110.3,152.95,111.5,147.99S113.3,140.45,114.5,135.22S116.3,127.28,117.5,121.86S119.3,113.65,120.5,108.13S122.2,99.78,123.5,94.26S125.6,85.93,127,80.53S129.2,72.41,130.5,67.25S132.3,59.52,133.5,54.72S135.3,47.58,136.5,43.27S138.3,36.89,139.5,33.18S141.3,27.74,142.5,24.74S144.3,20.39,145.5,18.18S147.3,15.05,148.5,13.7S150.3,11.88,151.5,11.43S153.3,10.97,154.5,11.43S156.3,12.35,157.5,13.7S159.3,15.98,160.5,18.18S162.3,21.74,163.5,24.74S165.3,29.47,166.5,33.18S168.3,38.96,169.5,43.27S171.3,49.93,172.5,54.72S174.2,62.09,175.5,67.25S177.6,75.13,179,80.53S181.2,88.74,182.5,94.26S184.3,102.6,185.5,108.13S187.3,116.44,188.5,121.86S190.3,130,191.5,135.22S193.3,143.04,194.5,147.99S196.3,155.38,197.5,160.01S199.3,166.89,200.5,171.16S202.3,177.46,203.5,181.33S205.3,187.04,206.5,190.51S208.3,195.6,209.5,198.66S211.3,203.14,212.5,205.81S214.3,209.71,215.5,212.01S217.3,215.36,218.5,217.31S220.3,220.15,221.5,221.79S223.2,224.17,224.5,225.53S226.6,227.5,228,228.62S230.2,230.23,231.5,231.14S233.3,232.44,234.5,233.17S236.3,234.21,237.5,234.78S239.3,235.6,240.5,236.06S242.3,236.7,243.5,237.05S245.3,237.55,246.5,237.81S248.3,238.19,249.5,238.4S251.3,238.68,252.5,238.84S254.3,239.05,255.5,239.16S257.3,239.32,258.5,239.4S260.3,239.52,261.5,239.58S263.3,239.66,264.5,239.71S266.3,239.77,267.5,239.8S269.3,239.84,270.5,239.86S272.3,239.89,273.5,239.91S275.2,239.93,276.5,239.94S278.6,239.95,280,239.96S282.2,239.97,283.5,239.97S285.3,239.98,286.5,239.98S288.3,239.99,289.5,239.99S291.3,239.99,292.5,239.99S294.3,239.99,295.5,240S297.3,240,298.5,240S300.3,240,301.5,240S303.9,240,304.5,240" style="fill: none; stroke: red; stroke-width: 1; stroke-dasharray: 3,3;"></path>
      </g>
      <g>
       <path d="M2,240h3h3h3h3l3,-1h3h3h3h4h3l3,-1h3h3l3,-1h3l3,-1h3l3,-1l3,-1l3,-1l3,-1l3,-2l3,-2l3,-2l4,-3l3,-3l3,-3l3,-5l3,-4l3,-6l3,-6l3,-7l3,-8l3,-9l3,-10l3,-11l3,-11l3,-13l3,-13l3,-13l3,-13l4,-13l3,-13l3,-11l3,-11l3,-9l3,-7l3,-4l3,-3h3l3,3l3,4l3,7l3,9l3,11l3,11l3,13l3,13l4,13l3,13l3,13l3,13l3,11l3,11l3,10l3,9l3,8l3,7l3,6l3,6l3,4l3,5l3,3l3,3l4,3l3,2l3,2l3,2l3,1l3,1l3,1l3,1h3l3,1h3l3,1h3h3l3,1h3h3h4h3h3l3,1h3h3h3h3" style="fill: none; stroke: blue; stroke-width: 1;"></path>
      </g>
      <g>
       <path d="M2,237h3h3h3h3l3,-1h3h3l3,-1h4h3l3,-1l3,-1h3l3,-1l3,-1h3l3,-1l3,-1l3,-2l3,-1l3,-1l3,-2l3,-2l3,-2l4,-2l3,-3l3,-3l3,-4l3,-4l3,-4l3,-5l3,-6l3,-6l3,-7l3,-8l3,-9l3,-9l3,-11l3,-11l3,-12l3,-12l4,-13l3,-12l3,-12l3,-11l3,-10l3,-7l3,-6l3,-2h3l3,2l3,6l3,7l3,10l3,11l3,12l3,12l3,13l4,12l3,12l3,11l3,11l3,9l3,9l3,8l3,7l3,6l3,6l3,5l3,4l3,4l3,4l3,3l3,3l4,2l3,2l3,2l3,2l3,1l3,1l3,2l3,1l3,1h3l3,1l3,1h3l3,1l3,1h3h3l4,1h3h3l3,1h3h3h3h3" style="fill: none; stroke: red; stroke-width: 1;"></path>
      </g>
      <g>
       <path d="M2,233h3l3,-1h3h3l3,-1h3l3,-1h3h4l3,-1l3,-1h3l3,-1h3l3,-1l3,-1l3,-1l3,-1l3,-1l3,-1l3,-1l3,-1l3,-2l3,-1l4,-2l3,-2l3,-2l3,-2l3,-3l3,-3l3,-3l3,-4l3,-4l3,-5l3,-5l3,-6l3,-6l3,-8l3,-8l3,-9l3,-10l4,-11l3,-11l3,-12l3,-12l3,-11l3,-9l3,-7l3,-3h3l3,3l3,7l3,9l3,11l3,12l3,12l3,11l3,11l4,10l3,9l3,8l3,8l3,6l3,6l3,5l3,5l3,4l3,4l3,3l3,3l3,3l3,2l3,2l3,2l4,2l3,1l3,2l3,1l3,1l3,1l3,1l3,1l3,1l3,1l3,1h3l3,1h3l3,1l3,1h3h4l3,1h3l3,1h3h3l3,1h3" style="fill: none; stroke: black; stroke-width: 1;"></path>
      </g>
     </svg>
     <g>
      <g transform="translate(0,240)">
       <path d="M0,0h306M0,-9V0M6,-5V0M12,-5V0M18,-5V0M24,-5V0M31,-9V0M37,-5V0M43,-5V0M49,-5V0M55,-5V0M61,-9V0M67,-5V0M73,-5V0M80,-5V0M86,-5V0M92,-9V0M98,-5V0M104,-5V0M110,-5V0M116,-5V0M122,-9V0M129,-5V0M135,-5V0M141,-5V0M147,-5V0M153,-9V0M159,-5V0M165,-5V0M171,-5V0M177,-5V0M184,-9V0M190,-5V0M196,-5V0M202,-5V0M208,-5V0M214,-9V0M220,-5V0M226,-5V0M233,-5V0M239,-5V0M245,-9V0M251,-5V0M257,-5V0M263,-5V0M269,-5V0M275,-9V0M282,-5V0M288,-5V0M294,-5V0M300,-5V0M306,-9V0" style="stroke: black; stroke-width: 1;"></path>
       <g font-family="Arial" font-size="11" space="preserve" fill="black" text-anchor="middle">
        <text dy=".8em" transform="translate(0,1)">
         -5
        </text>
        <text dy=".8em" transform="translate(31,1)">
         -4
        </text>
        <text dy=".8em" transform="translate(61,1)">
         -3
        </text>
        <text dy=".8em" transform="translate(92,1)">
         -2
        </text>
        <text dy=".8em" transform="translate(122,1)">
         -1
        </text>
        <text dy=".8em" transform="translate(153,1)">
         0
        </text>
        <text dy=".8em" transform="translate(184,1)">
         1
        </text>
        <text dy=".8em" transform="translate(214,1)">
         2
        </text>
        <text dy=".8em" transform="translate(245,1)">
         3
        </text>
        <text dy=".8em" transform="translate(275,1)">
         4
        </text>
        <text dy=".8em" transform="translate(306,1)">
         5
        </text>
       </g>
      </g>
      <g>
       <path d="M0,0v240M11,240H0M6,234H0M6,229H0M6,223H0M6,217H0M11,211H0M6,206H0M6,200H0M6,194H0M6,188H0M11,183H0M6,177H0M6,171H0M6,165H0M6,160H0M11,154H0M6,148H0M6,142H0M6,137H0M6,131H0M11,125H0M6,120H0M6,114H0M6,108H0M6,102H0M11,97H0M6,91H0M6,85H0M6,79H0M6,74H0M11,68H0M6,62H0M6,56H0M6,51H0M6,45H0M11,39H0M6,33H0M6,28H0M6,22H0M6,16H0M11,11H0M6,5H0" style="stroke: black; stroke-width: 1;"></path>
       <g font-family="Arial" font-size="11" space="preserve" fill="black" text-anchor="end">
        <text dy=".4em" transform="translate(-2,240)">
         0
        </text>
        <text dy=".4em" transform="translate(-2,211)">
         0.05
        </text>
        <text dy=".4em" transform="translate(-2,183)">
         0.10
        </text>
        <text dy=".4em" transform="translate(-2,154)">
         0.15
        </text>
        <text dy=".4em" transform="translate(-2,125)">
         0.20
        </text>
        <text dy=".4em" transform="translate(-2,97)">
         0.25
        </text>
        <text dy=".4em" transform="translate(-2,68)">
         0.30
        </text>
        <text dy=".4em" transform="translate(-2,39)">
         0.35
        </text>
        <text dy=".4em" transform="translate(-2,11)">
         0.40
        </text>
       </g>
      </g>
     </g>
    </g>
    <g transform="translate(38,2)" font-family="Arial" font-size="15" space="preserve">
     <text fill="black" text-anchor="middle" dy=".8em" transform="translate(153)">
      Student density
     </text>
    </g>
    <g transform="translate(230,33)" font-family="Arial" font-size="6" space="preserve">
     <path d="M0,0H111V57H0Z" style="fill: white; stroke: black; stroke-width: 1;"></path>
     <path d="M3,9H25" style="stroke: red; stroke-width: 1; stroke-dasharray: 3,3;"></path>
     <text fill="black" text-anchor="start" dy=".4em" transform="translate(28,9)">
      Normal(0,1)
     </text>
     <path d="M3,22H25" style="stroke: blue; stroke-width: 1;"></path>
     <text fill="black" text-anchor="start" dy=".4em" transform="translate(28,22)">
      10 degrees of freedom
     </text>
     <path d="M3,35H25" style="stroke: red; stroke-width: 1;"></path>
     <text fill="black" text-anchor="start" dy=".4em" transform="translate(28,36)">
      3 degrees of freedom
     </text>
     <path d="M3,48H25" style="stroke: black; stroke-width: 1;"></path>
     <text fill="black" text-anchor="start" dy=".4em" transform="translate(28,49)">
      1 degree of freedom
     </text>
    </g>
   </g>
  </svg>
  <svg viewBox="0 0 383 300" preserveAspectRatio="none" x="407" y="6" width="383" height="300">
   <path d="M0,0H383V300H0Z" style="fill: #cdcdcd;"></path>
   <g>
    <g transform="translate(38,30)">
     <path d="M0,0H306V240H0Z" style="fill: #f3f3f3; stroke: black; stroke-width: 1;"></path>
     <g>
      <path d="M0,0v240M31,0v240M61,0v240M92,0v240M122,0v240M153,0v240M184,0v240M214,0v240M245,0v240M275,0v240M306,0v240" style="stroke: black; stroke-width: 1; stroke-dasharray: 1,2;"></path>
      <path d="M0,240h306M0,217h306M0,194h306M0,171h306M0,149h306M0,126h306M0,103h306M0,80h306M0,57h306M0,34h306M0,11h306" style="stroke: black; stroke-width: 1; stroke-dasharray: 1,2;"></path>
     </g>
     <svg x="0" y="0" overflow="hidden" width="306" height="240" viewBox="0 0 306 240">
      <g>
       <path d="M1.5,239.93C2.1,239.93,3.3,239.93,4.5,239.92S6.3,239.92,7.5,239.91S9.3,239.9,10.5,239.9S12.3,239.89,13.5,239.88S15.3,239.87,16.5,239.86S18.3,239.85,19.5,239.83S21.2,239.82,22.5,239.81S24.6,239.79,26,239.77S28.2,239.75,29.5,239.73S31.3,239.71,32.5,239.69S34.3,239.66,35.5,239.63S37.3,239.6,38.5,239.57S40.3,239.52,41.5,239.49S43.3,239.44,44.5,239.4S46.3,239.34,47.5,239.29S49.3,239.22,50.5,239.16S52.3,239.07,53.5,239S55.3,238.9,56.5,238.82S58.3,238.7,59.5,238.6S61.3,238.45,62.5,238.34S64.3,238.16,65.5,238.03S67.3,237.82,68.5,237.66S70.2,237.41,71.5,237.22S73.6,236.93,75,236.7S77.2,236.35,78.5,236.08S80.3,235.67,81.5,235.35S83.3,234.87,84.5,234.49S86.3,233.92,87.5,233.48S89.3,232.8,90.5,232.28S92.3,231.49,93.5,230.88S95.3,229.96,96.5,229.25S98.3,228.17,99.5,227.35S101.3,226.09,102.5,225.14S104.3,223.69,105.5,222.6S107.3,220.93,108.5,219.69S110.3,217.78,111.5,216.36S113.3,214.19,114.5,212.59S116.3,210.14,117.5,208.34S119.3,205.6,120.5,203.6S122.2,200.54,123.5,198.33S125.6,194.96,127,192.53S129.2,188.84,130.5,186.21S132.3,182.2,133.5,179.37S135.3,175.07,136.5,172.05S138.3,167.47,139.5,164.28S141.3,159.46,142.5,156.13S144.3,151.1,145.5,147.67S147.3,142.48,148.5,138.97S150.3,133.67,151.5,130.13S153.3,124.78,154.5,121.23S156.3,115.9,157.5,112.39S159.3,107.12,160.5,103.69S162.3,98.55,163.5,95.22S165.3,90.26,166.5,87.07S168.3,82.33,169.5,79.31S171.3,74.82,172.5,71.99S174.2,67.78,175.5,65.15S177.6,61.25,179,58.83S181.2,55.24,182.5,53.03S184.3,49.77,185.5,47.76S187.3,44.81,188.5,43.01S190.3,40.37,191.5,38.77S193.3,36.42,194.5,35S196.3,32.92,197.5,31.67S199.3,29.85,200.5,28.76S202.3,27.16,203.5,26.22S205.3,24.83,206.5,24.01S208.3,22.82,209.5,22.11S211.3,21.08,212.5,20.48S214.3,19.6,215.5,19.08S217.3,18.32,218.5,17.88S220.3,17.24,221.5,16.87S223.2,16.32,224.5,16.01S226.6,15.54,228,15.28S230.2,14.89,231.5,14.66S233.3,14.33,234.5,14.14S236.3,13.86,237.5,13.7S239.3,13.47,240.5,13.33S242.3,13.14,243.5,13.02S245.3,12.86,246.5,12.76S248.3,12.62,249.5,12.54S251.3,12.42,252.5,12.36S254.3,12.26,255.5,12.2S257.3,12.12,258.5,12.07S260.3,12,261.5,11.96S263.3,11.9,264.5,11.87S266.3,11.82,267.5,11.79S269.3,11.75,270.5,11.73S272.3,11.69,273.5,11.67S275.2,11.64,276.5,11.62S278.6,11.6,280,11.59S282.2,11.56,283.5,11.55S285.3,11.53,286.5,11.52S288.3,11.51,289.5,11.5S291.3,11.49,292.5,11.48S294.3,11.47,295.5,11.46S297.3,11.45,298.5,11.45S300.3,11.44,301.5,11.44S303.9,11.43,304.5,11.43" style="fill: none; stroke: blue; stroke-width: 1;"></path>
      </g>
      <g>
       <path d="M2,238h3h3h3h3h3l3,-1h3h3h4h3l3,-1h3h3h3l3,-1h3h3l3,-1h3l3,-1h3l3,-1l3,-1l3,-1h4l3,-1l3,-2l3,-1l3,-1l3,-2l3,-1l3,-2l3,-3l3,-2l3,-3l3,-3l3,-3l3,-4l3,-4l3,-5l3,-5l4,-6l3,-6l3,-7l3,-7l3,-8l3,-8l3,-8l3,-8l3,-9l3,-8l3,-8l3,-8l3,-8l3,-7l3,-6l3,-7l3,-5l4,-6l3,-4l3,-5l3,-3l3,-4l3,-3l3,-3l3,-2l3,-2l3,-2l3,-2l3,-1l3,-2l3,-1l3,-1l3,-1l4,-1l3,-1l3,-1h3l3,-1h3l3,-1h3l3,-1h3h3l3,-1h3h3h3l3,-1h3h4h3h3h3h3l3,-1h3h3" style="fill: none; stroke: red; stroke-width: 1;"></path>
      </g>
      <g>
       <path d="M2,225h3h3h3l3,-1h3h3l3,-1h3l4,-1h3h3l3,-1h3l3,-1l3,-1h3l3,-1h3l3,-1l3,-1l3,-1h3l3,-1l3,-1l4,-1l3,-1l3,-1l3,-2l3,-1l3,-1l3,-2l3,-2l3,-2l3,-2l3,-2l3,-2l3,-3l3,-3l3,-3l3,-4l3,-4l4,-4l3,-5l3,-6l3,-6l3,-6l3,-6l3,-7l3,-8l3,-7l3,-7l3,-7l3,-7l3,-6l3,-6l3,-5l3,-5l3,-5l4,-4l3,-3l3,-4l3,-3l3,-2l3,-3l3,-2l3,-2l3,-2l3,-2l3,-1l3,-2l3,-1l3,-1l3,-1l3,-1l4,-1l3,-1l3,-1l3,-1l3,-1l3,-1h3l3,-1l3,-1h3l3,-1h3l3,-1h3l3,-1h3h3l4,-1h3l3,-1h3h3l3,-1h3h3" style="fill: none; stroke: black; stroke-width: 1;"></path>
      </g>
     </svg>
     <g>
      <g transform="translate(0,240)">
       <path d="M0,0h306M0,-9V0M6,-5V0M12,-5V0M18,-5V0M24,-5V0M31,-9V0M37,-5V0M43,-5V0M49,-5V0M55,-5V0M61,-9V0M67,-5V0M73,-5V0M80,-5V0M86,-5V0M92,-9V0M98,-5V0M104,-5V0M110,-5V0M116,-5V0M122,-9V0M129,-5V0M135,-5V0M141,-5V0M147,-5V0M153,-9V0M159,-5V0M165,-5V0M171,-5V0M177,-5V0M184,-9V0M190,-5V0M196,-5V0M202,-5V0M208,-5V0M214,-9V0M220,-5V0M226,-5V0M233,-5V0M239,-5V0M245,-9V0M251,-5V0M257,-5V0M263,-5V0M269,-5V0M275,-9V0M282,-5V0M288,-5V0M294,-5V0M300,-5V0M306,-9V0" style="stroke: black; stroke-width: 1;"></path>
       <g font-family="Arial" font-size="11" space="preserve" fill="black" text-anchor="middle">
        <text dy=".8em" transform="translate(0,1)">
         -5
        </text>
        <text dy=".8em" transform="translate(31,1)">
         -4
        </text>
        <text dy=".8em" transform="translate(61,1)">
         -3
        </text>
        <text dy=".8em" transform="translate(92,1)">
         -2
        </text>
        <text dy=".8em" transform="translate(122,1)">
         -1
        </text>
        <text dy=".8em" transform="translate(153,1)">
         0
        </text>
        <text dy=".8em" transform="translate(184,1)">
         1
        </text>
        <text dy=".8em" transform="translate(214,1)">
         2
        </text>
        <text dy=".8em" transform="translate(245,1)">
         3
        </text>
        <text dy=".8em" transform="translate(275,1)">
         4
        </text>
        <text dy=".8em" transform="translate(306,1)">
         5
        </text>
       </g>
      </g>
      <g>
       <path d="M0,0v240M11,240H0M6,235H0M6,231H0M6,226H0M6,222H0M11,217H0M6,213H0M6,208H0M6,203H0M6,199H0M11,194H0M6,190H0M6,185H0M6,181H0M6,176H0M11,171H0M6,167H0M6,162H0M6,158H0M6,153H0M11,149H0M6,144H0M6,139H0M6,135H0M6,130H0M11,126H0M6,121H0M6,117H0M6,112H0M6,107H0M11,103H0M6,98H0M6,94H0M6,89H0M6,85H0M11,80H0M6,75H0M6,71H0M6,66H0M6,62H0M11,57H0M6,53H0M6,48H0M6,43H0M6,39H0M11,34H0M6,30H0M6,25H0M6,21H0M6,16H0M11,11H0M6,7H0M6,2H0" style="stroke: black; stroke-width: 1;"></path>
       <g font-family="Arial" font-size="11" space="preserve" fill="black" text-anchor="end">
        <text dy=".4em" transform="translate(-2,240)">
         0
        </text>
        <text dy=".4em" transform="translate(-2,217)">
         0.1
        </text>
        <text dy=".4em" transform="translate(-2,194)">
         0.2
        </text>
        <text dy=".4em" transform="translate(-2,171)">
         0.3
        </text>
        <text dy=".4em" transform="translate(-2,149)">
         0.4
        </text>
        <text dy=".4em" transform="translate(-2,126)">
         0.5
        </text>
        <text dy=".4em" transform="translate(-2,103)">
         0.6
        </text>
        <text dy=".4em" transform="translate(-2,80)">
         0.7
        </text>
        <text dy=".4em" transform="translate(-2,57)">
         0.8
        </text>
        <text dy=".4em" transform="translate(-2,34)">
         0.9
        </text>
        <text dy=".4em" transform="translate(-2,11)">
         1
        </text>
       </g>
      </g>
     </g>
    </g>
    <g transform="translate(38,2)" font-family="Arial" font-size="15" space="preserve">
     <text fill="black" text-anchor="middle" dy=".8em" transform="translate(153)">
      Student cumulative dist.
     </text>
    </g>
    <g transform="translate(230,120)" font-family="Arial" font-size="6" space="preserve">
     <path d="M0,0H111V60H0Z" style="fill: white; stroke: black; stroke-width: 1;"></path>
     <path d="M3,11H25" style="stroke: blue; stroke-width: 1;"></path>
     <text fill="black" text-anchor="start" dy=".4em" transform="translate(28,11)">
      10 degrees of freedom
     </text>
     <path d="M3,30H25" style="stroke: red; stroke-width: 1;"></path>
     <text fill="black" text-anchor="start" dy=".4em" transform="translate(28,30)">
      3 degrees of freedom
     </text>
     <path d="M3,49H25" style="stroke: black; stroke-width: 1;"></path>
     <text fill="black" text-anchor="start" dy=".4em" transform="translate(28,48)">
      1 degree of freedom
     </text>
    </g>
   </g>
  </svg>
  <svg viewBox="0 0 383 300" preserveAspectRatio="none" x="8" y="319" width="383" height="300">
   <path d="M0,0H383V300H0Z" style="fill: #cdcdcd;"></path>
   <g>
    <g transform="translate(38,30)">
     <path d="M0,0H306V240H0Z" style="fill: #f3f3f3; stroke: black; stroke-width: 1;"></path>
     <g>
      <path d="M0,0v240M31,0v240M61,0v240M92,0v240M122,0v240M153,0v240M184,0v240M214,0v240M245,0v240M275,0v240M306,0v240" style="stroke: black; stroke-width: 1; stroke-dasharray: 1,2;"></path>
      <path d="M0,240h306M0,204h306M0,167h306M0,131h306M0,95h306M0,58h306M0,22h306" style="stroke: black; stroke-width: 1; stroke-dasharray: 1,2;"></path>
     </g>
     <svg x="0" y="0" overflow="hidden" width="306" height="240" viewBox="0 0 306 240">
      <g>
       <path d="M1.5,11.17C1.79,31.03,3.3,84.37,4.5,110.45S6.3,131.98,7.5,141.56S9.3,152.81,10.5,158.36S12.3,165.55,13.5,169.32S15.3,174.43,16.5,177.22S18.3,181.1,19.5,183.27S21.2,186.35,22.5,188.11S24.6,190.62,26,192.09S28.2,194.2,29.5,195.44S31.3,197.24,32.5,198.32S34.3,199.88,35.5,200.82S37.3,202.19,38.5,203.02S40.3,204.24,41.5,204.98S43.3,206.06,44.5,206.73S46.3,207.71,47.5,208.31S49.3,209.2,50.5,209.75S52.3,210.56,53.5,211.06S55.3,211.8,56.5,212.27S58.3,212.95,59.5,213.37S61.3,214.01,62.5,214.4S64.3,214.99,65.5,215.35S67.3,215.9,68.5,216.24S70.2,216.75,71.5,217.07S73.6,217.54,75,217.84S77.2,218.29,78.5,218.57S80.3,218.99,81.5,219.25S83.3,219.64,84.5,219.89S86.3,220.27,87.5,220.5S89.3,220.85,90.5,221.08S92.3,221.41,93.5,221.62S95.3,221.93,96.5,222.14S98.3,222.43,99.5,222.63S101.3,222.91,102.5,223.09S104.3,223.36,105.5,223.54S107.3,223.79,108.5,223.96S110.3,224.21,111.5,224.36S113.3,224.6,114.5,224.75S116.3,224.97,117.5,225.12S119.3,225.33,120.5,225.47S122.2,225.68,123.5,225.81S125.6,226.01,127,226.14S129.2,226.33,130.5,226.45S132.3,226.63,133.5,226.75S135.3,226.92,136.5,227.04S138.3,227.21,139.5,227.32S141.3,227.48,142.5,227.58S144.3,227.74,145.5,227.84S147.3,227.99,148.5,228.09S150.3,228.23,151.5,228.33S153.3,228.47,154.5,228.56S156.3,228.69,157.5,228.78S159.3,228.91,160.5,229S162.3,229.12,163.5,229.21S165.3,229.33,166.5,229.41S168.3,229.53,169.5,229.6S171.3,229.72,172.5,229.79S174.2,229.9,175.5,229.98S177.6,230.08,179,230.15S181.2,230.26,182.5,230.33S184.3,230.43,185.5,230.49S187.3,230.59,188.5,230.65S190.3,230.75,191.5,230.81S193.3,230.91,194.5,230.97S196.3,231.06,197.5,231.11S199.3,231.2,200.5,231.26S202.3,231.34,203.5,231.4S205.3,231.48,206.5,231.54S208.3,231.62,209.5,231.67S211.3,231.75,212.5,231.8S214.3,231.87,215.5,231.92S217.3,232,218.5,232.05S220.3,232.12,221.5,232.17S223.2,232.24,224.5,232.28S226.6,232.35,228,232.4S230.2,232.46,231.5,232.51S233.3,232.57,234.5,232.61S236.3,232.68,237.5,232.72S239.3,232.78,240.5,232.82S242.3,232.88,243.5,232.92S245.3,232.98,246.5,233.02S248.3,233.08,249.5,233.12S251.3,233.17,252.5,233.21S254.3,233.27,255.5,233.3S257.3,233.36,258.5,233.39S260.3,233.44,261.5,233.48S263.3,233.53,264.5,233.56S266.3,233.61,267.5,233.65S269.3,233.7,270.5,233.73S272.3,233.78,273.5,233.81S275.2,233.86,276.5,233.89S278.6,233.93,280,233.96S282.2,234.01,283.5,234.04S285.3,234.08,286.5,234.11S288.3,234.15,289.5,234.18S291.3,234.23,292.5,234.25S294.3,234.29,295.5,234.32S297.3,234.36,298.5,234.39S300.3,234.43,301.5,234.46S303.9,234.51,304.5,234.52" style="fill: none; stroke: black; stroke-width: 1;"></path>
      </g>
      <g>
       <path d="M2,-41l3,121l3,37l3,20l3,13l3,10l3,7l3,6l3,5l4,4l3,3l3,3l3,3l3,2l3,2l3,2l3,2l3,1l3,2l3,1l3,2l3,1l3,1l3,1l3,1l4,1l3,1l3,1h3l3,1l3,1l3,1h3l3,1h3l3,1l3,1h3l3,1h3l3,1h3h4l3,1h3l3,1h3h3l3,1h3h3l3,1h3h3l3,1h3h3l3,1h3h4h3l3,1h3h3h3h3l3,1h3h3h3h3l3,1h3h3h3h4l3,1h3h3h3h3h3l3,1h3h3h3h3h3h3h3l3,1h3h4h3h3h3h3h3l3,1h3" style="fill: none; stroke: red; stroke-width: 1;"></path>
      </g>
      <g>
       <path d="M2,240l3,-2l3,-4l3,-6l3,-5l3,-5l3,-4l3,-3l3,-3l4,-1l3,-1l3,-1l3,-1h3l3,1h3h3l3,1h3l3,1l3,1h3l3,1l3,1h3l4,1l3,1h3l3,1l3,1h3l3,1h3l3,1l3,1h3l3,1h3l3,1h3l3,1h3h4l3,1h3l3,1h3h3l3,1h3h3l3,1h3h3l3,1h3h3l3,1h3h4h3l3,1h3h3h3h3l3,1h3h3h3h3l3,1h3h3h3h4h3l3,1h3h3h3h3h3h3l3,1h3h3h3h3h3h3h3l4,1h3h3h3h3h3h3h3" style="fill: none; stroke: #59d454; stroke-width: 1;"></path>
      </g>
      <g>
       <path d="M2,240h3h3l3,-1h3l3,-1l3,-2l3,-2l3,-2l4,-2l3,-3l3,-3l3,-3l3,-3l3,-3l3,-3l3,-3l3,-3l3,-3l3,-2l3,-3l3,-2l3,-2l3,-1l3,-2l4,-1l3,-1l3,-1l3,-1l3,-1h3h3l3,-1h3h3l3,1h3h3l3,1h3l3,1h3l4,1l3,1l3,1h3l3,1l3,1l3,1l3,1l3,1l3,1l3,1h3l3,1l3,1l3,1l3,1l3,1l4,1l3,1l3,1h3l3,1l3,1l3,1l3,1h3l3,1l3,1l3,1h3l3,1l3,1h3l4,1l3,1h3l3,1h3l3,1l3,1h3l3,1h3l3,1h3l3,1h3l3,1h3h3l4,1h3l3,1h3h3l3,1h3h3" style="fill: none; stroke: blue; stroke-width: 1;"></path>
      </g>
     </svg>
     <g>
      <g transform="translate(0,240)">
       <path d="M0,0h306M0,-9V0M8,-5V0M15,-5V0M23,-5V0M31,-9V0M38,-5V0M46,-5V0M54,-5V0M61,-9V0M69,-5V0M77,-5V0M84,-5V0M92,-9V0M99,-5V0M107,-5V0M115,-5V0M122,-9V0M130,-5V0M138,-5V0M145,-5V0M153,-9V0M161,-5V0M168,-5V0M176,-5V0M184,-9V0M191,-5V0M199,-5V0M207,-5V0M214,-9V0M222,-5V0M230,-5V0M237,-5V0M245,-9V0M252,-5V0M260,-5V0M268,-5V0M275,-9V0M283,-5V0M291,-5V0M298,-5V0M306,-9V0" style="stroke: black; stroke-width: 1;"></path>
       <g font-family="Arial" font-size="11" space="preserve" fill="black" text-anchor="middle">
        <text dy=".8em" transform="translate(0,1)">
         0
        </text>
        <text dy=".8em" transform="translate(31,1)">
         0.2
        </text>
        <text dy=".8em" transform="translate(61,1)">
         0.4
        </text>
        <text dy=".8em" transform="translate(92,1)">
         0.6
        </text>
        <text dy=".8em" transform="translate(122,1)">
         0.8
        </text>
        <text dy=".8em" transform="translate(153,1)">
         1
        </text>
        <text dy=".8em" transform="translate(184,1)">
         1.2
        </text>
        <text dy=".8em" transform="translate(214,1)">
         1.4
        </text>
        <text dy=".8em" transform="translate(245,1)">
         1.6
        </text>
        <text dy=".8em" transform="translate(275,1)">
         1.8
        </text>
        <text dy=".8em" transform="translate(306,1)">
         2
        </text>
       </g>
      </g>
      <g>
       <path d="M0,0v240M11,240H0M6,233H0M6,225H0M6,218H0M6,211H0M11,204H0M6,196H0M6,189H0M6,182H0M6,175H0M11,167H0M6,160H0M6,153H0M6,146H0M6,138H0M11,131H0M6,124H0M6,117H0M6,109H0M6,102H0M11,95H0M6,88H0M6,80H0M6,73H0M6,66H0M11,58H0M6,51H0M6,44H0M6,37H0M6,29H0M11,22H0M6,15H0M6,8H0M6,0H0" style="stroke: black; stroke-width: 1;"></path>
       <g font-family="Arial" font-size="11" space="preserve" fill="black" text-anchor="end">
        <text dy=".4em" transform="translate(-2,240)">
         0
        </text>
        <text dy=".4em" transform="translate(-2,204)">
         0.5
        </text>
        <text dy=".4em" transform="translate(-2,167)">
         1
        </text>
        <text dy=".4em" transform="translate(-2,131)">
         1.5
        </text>
        <text dy=".4em" transform="translate(-2,95)">
         2
        </text>
        <text dy=".4em" transform="translate(-2,58)">
         2.5
        </text>
        <text dy=".4em" transform="translate(-2,22)">
         3
        </text>
       </g>
      </g>
     </g>
    </g>
    <g transform="translate(38,2)" font-family="Arial" font-size="15" space="preserve">
     <text fill="black" text-anchor="middle" dy=".8em" transform="translate(153)">
      F-Dist. density
     </text>
    </g>
    <g transform="translate(268,33)" font-family="Arial" font-size="9" space="preserve">
     <path d="M0,0H73V57H0Z" style="fill: white; stroke: black; stroke-width: 1;"></path>
     <path d="M2,9H16" style="stroke: black; stroke-width: 1;"></path>
     <text fill="black" text-anchor="start" dy=".4em" transform="translate(18,9)">
      N=1 M=1
     </text>
     <path d="M2,22H16" style="stroke: red; stroke-width: 1;"></path>
     <text fill="black" text-anchor="start" dy=".4em" transform="translate(18,22)">
      N=1 M=10
     </text>
     <path d="M2,35H16" style="stroke: #59d454; stroke-width: 1;"></path>
     <text fill="black" text-anchor="start" dy=".4em" transform="translate(18,36)">
      N=10 M=1
     </text>
     <path d="M2,48H16" style="stroke: blue; stroke-width: 1;"></path>
     <text fill="black" text-anchor="start" dy=".4em" transform="translate(18,49)">
      N=10 M=10
     </text>
    </g>
   </g>
  </svg>
  <svg viewBox="0 0 383 300" preserveAspectRatio="none" x="407" y="319" width="383" height="300">
   <path d="M0,0H383V300H0Z" style="fill: #cdcdcd;"></path>
   <g>
    <g transform="translate(38,30)">
     <path d="M0,0H306V240H0Z" style="fill: #f3f3f3; stroke: black; stroke-width: 1;"></path>
     <g>
      <path d="M0,0v240M31,0v240M61,0v240M92,0v240M122,0v240M153,0v240M184,0v240M214,0v240M245,0v240M275,0v240M306,0v240" style="stroke: black; stroke-width: 1; stroke-dasharray: 1,2;"></path>
      <path d="M0,214h306M0,174h306M0,134h306M0,94h306M0,54h306M0,14h306" style="stroke: black; stroke-width: 1; stroke-dasharray: 1,2;"></path>
     </g>
     <svg x="0" y="0" overflow="hidden" width="306" height="240" viewBox="0 0 306 240">
      <g>
       <path d="M1.5,229.09C1.99,225.41,3.3,216.89,4.5,210.75S6.3,202.82,7.5,198.37S9.3,192.15,10.5,188.5S12.3,183.26,13.5,180.12S15.3,175.56,16.5,172.77S18.3,168.7,19.5,166.18S21.2,162.49,22.5,160.19S24.6,156.8,26,154.68S28.2,151.55,29.5,149.58S31.3,146.66,32.5,144.82S34.3,142.09,35.5,140.36S37.3,137.79,38.5,136.15S40.3,133.73,41.5,132.18S43.3,129.88,44.5,128.41S46.3,126.22,47.5,124.82S49.3,122.74,50.5,121.4S52.3,119.41,53.5,118.13S55.3,116.23,56.5,115S58.3,113.18,59.5,112S61.3,110.25,62.5,109.11S64.3,107.43,65.5,106.34S67.3,104.72,68.5,103.67S70.2,102.1,71.5,101.09S73.6,99.58,75,98.6S77.2,97.14,78.5,96.19S80.3,94.78,81.5,93.86S83.3,92.49,84.5,91.6S86.3,90.28,87.5,89.41S89.3,88.13,90.5,87.29S92.3,86.04,93.5,85.23S95.3,84.02,96.5,83.23S98.3,82.05,99.5,81.28S101.3,80.14,102.5,79.39S104.3,78.27,105.5,77.55S107.3,76.46,108.5,75.75S110.3,74.69,111.5,74S113.3,72.97,114.5,72.3S116.3,71.29,117.5,70.63S119.3,69.65,120.5,69.01S122.2,68.05,123.5,67.42S125.6,66.48,127,65.87S129.2,64.96,130.5,64.36S132.3,63.46,133.5,62.88S135.3,62,136.5,61.43S138.3,60.57,139.5,60.01S141.3,59.18,142.5,58.63S144.3,57.81,145.5,57.27S147.3,56.47,148.5,55.94S150.3,55.15,151.5,54.64S153.3,53.87,154.5,53.36S156.3,52.6,157.5,52.11S159.3,51.37,160.5,50.88S162.3,50.15,163.5,49.68S165.3,48.96,166.5,48.5S168.3,47.8,169.5,47.34S171.3,46.65,172.5,46.2S174.2,45.52,175.5,45.08S177.6,44.42,179,43.98S181.2,43.33,182.5,42.9S184.3,42.26,185.5,41.84S187.3,41.22,188.5,40.8S190.3,40.19,191.5,39.78S193.3,39.17,194.5,38.77S196.3,38.18,197.5,37.78S199.3,37.2,200.5,36.81S202.3,36.23,203.5,35.85S205.3,35.28,206.5,34.91S208.3,34.35,209.5,33.98S211.3,33.43,212.5,33.07S214.3,32.53,215.5,32.17S217.3,31.63,218.5,31.28S220.3,30.76,221.5,30.41S223.2,29.89,224.5,29.55S226.6,29.04,228,28.71S230.2,28.2,231.5,27.87S233.3,27.38,234.5,27.05S236.3,26.56,237.5,26.24S239.3,25.76,240.5,25.44S242.3,24.97,243.5,24.65S245.3,24.19,246.5,23.88S248.3,23.42,249.5,23.11S251.3,22.66,252.5,22.36S254.3,21.91,255.5,21.61S257.3,21.17,258.5,20.88S260.3,20.44,261.5,20.15S263.3,19.72,264.5,19.43S266.3,19.01,267.5,18.73S269.3,18.31,270.5,18.03S272.3,17.62,273.5,17.34S275.2,16.93,276.5,16.66S278.6,16.26,280,15.99S282.2,15.59,283.5,15.33S285.3,14.93,286.5,14.67S288.3,14.28,289.5,14.03S291.3,13.64,292.5,13.39S294.3,13.01,295.5,12.76S297.3,12.38,298.5,12.13S300.3,11.76,301.5,11.52S303.9,11.03,304.5,10.91" style="fill: none; stroke: black; stroke-width: 1;"></path>
      </g>
      <g>
       <path d="M2,223l3,-22l3,-16l3,-12l3,-11l3,-9l3,-8l3,-8l3,-7l4,-7l3,-6l3,-6l3,-6l3,-5l3,-5l3,-5l3,-5l3,-4l3,-4l3,-4l3,-4l3,-4l3,-4l3,-4l3,-3l4,-3l3,-4l3,-3l3,-3l3,-3l3,-3l3,-3l3,-3l3,-2l3,-3l3,-2l3,-3l3,-2l3,-3l3,-2l3,-2l3,-3l4,-2l3,-2l3,-2l3,-2l3,-2l3,-2l3,-2l3,-2l3,-2l3,-2l3,-1l3,-2l3,-2l3,-1l3,-2l3,-2l3,-1l4,-2l3,-1l3,-2l3,-1l3,-2l3,-1l3,-2l3,-1l3,-1l3,-2l3,-1l3,-1l3,-2l3,-1l3,-1l3,-1l4,-1l3,-2l3,-1l3,-1l3,-1l3,-1l3,-1l3,-1l3,-1l3,-1l3,-1l3,-1l3,-1l3,-1l3,-1l3,-1l3,-1l4,-1l3,-1l3,-1l3,-1h3l3,-1l3,-1l3,-1" style="fill: none; stroke: red; stroke-width: 1;"></path>
      </g>
      <g>
       <path d="M2,255l3,-1h3l3,-1l3,-1l3,-3l3,-2l3,-3l3,-4l4,-3l3,-4l3,-4l3,-4l3,-4l3,-4l3,-4l3,-4l3,-3l3,-4l3,-4l3,-3l3,-4l3,-3l3,-4l3,-3l4,-3l3,-4l3,-3l3,-3l3,-3l3,-2l3,-3l3,-3l3,-3l3,-2l3,-3l3,-2l3,-3l3,-2l3,-3l3,-2l3,-2l4,-2l3,-2l3,-2l3,-2l3,-2l3,-2l3,-2l3,-2l3,-2l3,-2l3,-2l3,-1l3,-2l3,-2l3,-1l3,-2l3,-2l4,-1l3,-2l3,-1l3,-2l3,-1l3,-2l3,-1l3,-1l3,-2l3,-1l3,-1l3,-2l3,-1l3,-1l3,-1l3,-2l4,-1l3,-1l3,-1l3,-1l3,-1l3,-2l3,-1l3,-1l3,-1l3,-1l3,-1l3,-1l3,-1l3,-1l3,-1l3,-1l3,-1l4,-1l3,-1h3l3,-1l3,-1l3,-1l3,-1l3,-1" style="fill: none; stroke: #59d454; stroke-width: 1;"></path>
      </g>
      <g>
       <path d="M2,255h3h3l3,-1h3h3h3l3,-1h3l4,-1l3,-2l3,-1l3,-2l3,-3l3,-2l3,-3l3,-4l3,-3l3,-4l3,-4l3,-5l3,-4l3,-5l3,-6l3,-5l4,-5l3,-6l3,-6l3,-5l3,-6l3,-6l3,-6l3,-6l3,-6l3,-6l3,-6l3,-6l3,-6l3,-6l3,-6l3,-6l3,-6l4,-5l3,-6l3,-5l3,-6l3,-5l3,-5l3,-5l3,-6l3,-4l3,-5l3,-5l3,-5l3,-4l3,-5l3,-4l3,-4l3,-4l4,-4l3,-4l3,-4l3,-4l3,-4l3,-3l3,-4l3,-3l3,-3l3,-4l3,-3l3,-3l3,-3l3,-3l3,-3l3,-2l4,-3l3,-3l3,-2l3,-3l3,-2l3,-2l3,-3l3,-2l3,-2l3,-2l3,-2l3,-2l3,-2l3,-2l3,-2l3,-2l3,-1l4,-2l3,-2l3,-1l3,-2l3,-1l3,-2l3,-1l3,-2" style="fill: none; stroke: blue; stroke-width: 1;"></path>
      </g>
     </svg>
     <g>
      <g transform="translate(0,240)">
       <path d="M0,0h306M0,-9V0M8,-5V0M15,-5V0M23,-5V0M31,-9V0M38,-5V0M46,-5V0M54,-5V0M61,-9V0M69,-5V0M77,-5V0M84,-5V0M92,-9V0M99,-5V0M107,-5V0M115,-5V0M122,-9V0M130,-5V0M138,-5V0M145,-5V0M153,-9V0M161,-5V0M168,-5V0M176,-5V0M184,-9V0M191,-5V0M199,-5V0M207,-5V0M214,-9V0M222,-5V0M230,-5V0M237,-5V0M245,-9V0M252,-5V0M260,-5V0M268,-5V0M275,-9V0M283,-5V0M291,-5V0M298,-5V0M306,-9V0" style="stroke: black; stroke-width: 1;"></path>
       <g font-family="Arial" font-size="11" space="preserve" fill="black" text-anchor="middle">
        <text dy=".8em" transform="translate(0,1)">
         0
        </text>
        <text dy=".8em" transform="translate(31,1)">
         0.2
        </text>
        <text dy=".8em" transform="translate(61,1)">
         0.4
        </text>
        <text dy=".8em" transform="translate(92,1)">
         0.6
        </text>
        <text dy=".8em" transform="translate(122,1)">
         0.8
        </text>
        <text dy=".8em" transform="translate(153,1)">
         1
        </text>
        <text dy=".8em" transform="translate(184,1)">
         1.2
        </text>
        <text dy=".8em" transform="translate(214,1)">
         1.4
        </text>
        <text dy=".8em" transform="translate(245,1)">
         1.6
        </text>
        <text dy=".8em" transform="translate(275,1)">
         1.8
        </text>
        <text dy=".8em" transform="translate(306,1)">
         2
        </text>
       </g>
      </g>
      <g>
       <path d="M0,0v240M6,238H0M6,230H0M6,222H0M11,214H0M6,206H0M6,198H0M6,190H0M6,182H0M11,174H0M6,166H0M6,158H0M6,150H0M6,142H0M11,134H0M6,126H0M6,118H0M6,110H0M6,102H0M11,94H0M6,86H0M6,78H0M6,70H0M6,62H0M11,54H0M6,46H0M6,38H0M6,30H0M6,22H0M11,14H0M6,6H0" style="stroke: black; stroke-width: 1;"></path>
       <g font-family="Arial" font-size="11" space="preserve" fill="black" text-anchor="end">
        <text dy=".4em" transform="translate(-2,214)">
         0.1
        </text>
        <text dy=".4em" transform="translate(-2,174)">
         0.2
        </text>
        <text dy=".4em" transform="translate(-2,134)">
         0.3
        </text>
        <text dy=".4em" transform="translate(-2,94)">
         0.4
        </text>
        <text dy=".4em" transform="translate(-2,54)">
         0.5
        </text>
        <text dy=".4em" transform="translate(-2,14)">
         0.6
        </text>
       </g>
      </g>
     </g>
    </g>
    <g transform="translate(38,2)" font-family="Arial" font-size="15" space="preserve">
     <text fill="black" text-anchor="middle" dy=".8em" transform="translate(153)">
      Cumulative dist. function for F
     </text>
    </g>
    <g transform="translate(268,150)" font-family="Arial" font-size="9" space="preserve">
     <path d="M0,0H73V60H0Z" style="fill: white; stroke: black; stroke-width: 1;"></path>
     <path d="M2,9H16" style="stroke: black; stroke-width: 1;"></path>
     <text fill="black" text-anchor="start" dy=".4em" transform="translate(18,9)">
      N=1 M=1
     </text>
     <path d="M2,23H16" style="stroke: red; stroke-width: 1;"></path>
     <text fill="black" text-anchor="start" dy=".4em" transform="translate(18,23)">
      N=1 M=10
     </text>
     <path d="M2,37H16" style="stroke: #59d454; stroke-width: 1;"></path>
     <text fill="black" text-anchor="start" dy=".4em" transform="translate(18,37)">
      N=10 M=1
     </text>
     <path d="M2,51H16" style="stroke: blue; stroke-width: 1;"></path>
     <text fill="black" text-anchor="start" dy=".4em" transform="translate(18,51)">
      N=10 M=10
     </text>
    </g>
   </g>
  </svg>
 </g>
</svg>