<svg xmlns="http://www.w3.org/2000/svg" viewBox="0 0 1200 800" preserveAspectRatio="none" width="1200" height="800">
 <path d="M0,0H1200V800H0Z" style="fill: #cdcdcd;"></path>
 <g>
  <svg viewBox="0 0 576 384" preserveAspectRatio="none" x="12" y="8" width="576" height="384">
   <path d="M0,0H576V384H0Z" style="fill: #cdcdcd;"></path>
   <g>
    <g transform="translate(58,38)">
     <path d="M0,0H461V307H0Z" style="fill: #f3f3f3; stroke: black; stroke-width: 1;"></path>
     <g>
      <path d="M0,0v307M46,0v307M92,0v307M138,0v307M184,0v307M231,0v307M277,0v307M323,0v307M369,0v307M415,0v307M461,0v307" style="stroke: black; stroke-width: 1; stroke-dasharray: 1,2;"></path>
      <path d="M0,270h461M0,234h461M0,197h461M0,160h461M0,124h461M0,87h461M0,50h461M0,14h461" style="stroke: black; stroke-width: 1; stroke-dasharray: 1,2;"></path>
     </g>
     <svg x="0" y="0" overflow="hidden" width="461" height="307" viewBox="0 0 461 307">
      <g>
       <path d="M0,307C0.77,307,3.07,307,4.61,307S7.68,307,9.22,307S12.29,307,13.83,307S16.9,306.99,18.44,306.99S21.51,306.99,23.05,306.99S26.12,306.99,27.66,306.98S30.73,306.98,32.27,306.97S35.34,306.96,36.88,306.96S39.95,306.94,41.49,306.94S44.56,306.92,46.1,306.9S49.17,306.87,50.71,306.86S53.78,306.81,55.32,306.79S58.39,306.73,59.93,306.69S63.01,306.61,64.54,306.55S67.62,306.44,69.15,306.36S72.23,306.2,73.76,306.1S76.85,305.88,78.37,305.74S81.47,305.44,82.98,305.25S86.09,304.85,87.59,304.61S90.73,304.07,92.2,303.75S95.38,303.03,96.81,302.64S100.06,301.68,101.42,301.2S104.75,299.94,106.03,299.36S109.48,297.7,110.64,297.05S114.22,294.88,115.25,294.15S118.98,291.35,119.86,290.59S123.73,287.01,124.47,286.24S128.48,281.75,129.08,281S133.2,275.48,133.69,274.77S137.91,268.1,138.3,267.43S142.6,259.53,142.91,258.91S147.27,249.71,147.52,249.14S151.92,238.6,152.13,238.07S156.57,226.19,156.74,225.71S161.2,212.53,161.35,212.08S165.83,197.69,165.96,197.27S170.46,181.81,170.57,181.41S175.08,165.07,175.18,164.68S179.69,147.72,179.79,147.34S184.3,130.04,184.4,129.66S188.91,112.37,189.01,111.99S193.51,95.08,193.62,94.69S198.11,78.56,198.23,78.15S202.7,63.22,202.84,62.78S207.27,49.46,207.45,48.97S211.82,37.66,212.06,37.1S216.31,28.14,216.67,27.48S220.67,21.16,221.28,20.41S224.79,16.77,225.89,16.08S228.96,14.62,230.5,14.62S234.01,15.39,235.11,16.08S239.11,19.66,239.72,20.41S243.97,26.83,244.33,27.48S248.7,36.54,248.94,37.1S253.37,48.49,253.55,48.97S258.02,62.34,258.16,62.78S262.65,77.74,262.77,78.15S267.27,94.3,267.38,94.69S271.89,111.61,271.99,111.99S276.5,129.29,276.6,129.66S281.11,146.96,281.21,147.34S285.72,164.3,285.82,164.68S290.32,181,290.43,181.41S294.91,196.84,295.04,197.27S299.5,211.63,299.65,212.08S304.09,225.22,304.26,225.71S308.66,237.55,308.87,238.07S313.23,248.57,313.48,249.14S317.78,258.29,318.09,258.91S322.31,266.76,322.7,267.43S326.82,274.05,327.31,274.77S331.32,280.25,331.92,281S335.79,285.47,336.53,286.24S340.26,289.83,341.14,290.59S344.72,293.43,345.75,294.15S349.2,296.39,350.36,297.05S353.69,298.79,354.97,299.36S358.22,300.72,359.58,301.2S362.76,302.24,364.19,302.64S367.33,303.44,368.8,303.75S371.91,304.36,373.41,304.61S376.51,305.07,378.02,305.25S381.11,305.6,382.63,305.74S385.71,305.99,387.24,306.1S390.32,306.29,391.85,306.36S394.93,306.5,396.46,306.55S399.53,306.65,401.07,306.69S404.14,306.76,405.68,306.79S408.75,306.84,410.29,306.86S413.36,306.89,414.9,306.9S417.97,306.93,419.51,306.94S422.58,306.95,424.12,306.96S427.19,306.97,428.73,306.97S431.8,306.98,433.34,306.98S436.41,306.99,437.95,306.99S441.02,306.99,442.56,306.99S445.63,307,447.17,307S450.24,307,451.78,307S454.85,307,456.39,307S460.23,307,461,307" style="fill: none; stroke: red; stroke-width: 1; stroke-dasharray: 3,3;"></path>
      </g>
      <g>
       <path d="M0,306.71C0.77,306.7,3.07,306.68,4.61,306.66S7.68,306.62,9.22,306.6S12.29,306.56,13.83,306.53S16.9,306.48,18.44,306.45S21.51,306.39,23.05,306.35S26.12,306.28,27.66,306.24S30.73,306.15,32.27,306.1S35.35,306,36.88,305.94S39.96,305.81,41.49,305.74S44.57,305.6,46.1,305.51S49.18,305.34,50.71,305.24S53.79,305.03,55.32,304.91S58.41,304.66,59.93,304.52S63.02,304.22,64.54,304.05S67.64,303.69,69.15,303.5S72.26,303.07,73.76,302.83S76.89,302.32,78.37,302.04S81.52,301.43,82.98,301.1S86.15,300.36,87.59,299.98S90.8,299.09,92.2,298.65S95.46,297.57,96.81,297.06S100.14,295.76,101.42,295.19S104.83,293.6,106.03,292.97S109.53,291.03,110.64,290.34S114.25,287.99,115.25,287.26S118.97,284.4,119.86,283.64S123.7,280.17,124.47,279.4S128.42,275.24,129.08,274.48S133.14,269.5,133.69,268.77S137.84,262.89,138.3,262.19S142.53,255.32,142.91,254.65S147.21,246.7,147.52,246.09S151.87,236.99,152.13,236.41S156.52,226.13,156.74,225.59S161.17,214.09,161.35,213.6S165.8,200.91,165.96,200.44S170.43,186.62,170.57,186.18S175.06,171.35,175.18,170.93S179.68,155.25,179.79,154.85S184.29,138.56,184.4,138.17S188.9,121.58,189.01,121.19S193.51,104.66,193.62,104.26S198.11,88.21,198.23,87.8S202.71,72.67,202.84,72.24S207.28,58.52,207.45,58.04S211.84,46.21,212.06,45.67S216.34,36.17,216.67,35.54S220.72,28.76,221.28,28.02S224.83,24.1,225.89,23.39S228.96,21.83,230.5,21.83S234.05,22.68,235.11,23.39S239.16,27.28,239.72,28.02S244,34.91,244.33,35.54S248.72,45.13,248.94,45.67S253.38,57.56,253.55,58.04S258.03,71.8,258.16,72.24S262.65,87.39,262.77,87.8S267.27,103.87,267.38,104.26S271.88,120.8,271.99,121.19S276.49,137.78,276.6,138.17S281.1,154.45,281.21,154.85S285.7,170.51,285.82,170.93S290.29,185.75,290.43,186.18S294.88,199.98,295.04,200.44S299.47,213.1,299.65,213.6S304.04,225.06,304.26,225.59S308.61,235.84,308.87,236.41S313.17,245.47,313.48,246.09S317.71,253.99,318.09,254.65S322.24,261.48,322.7,262.19S326.76,268.03,327.31,268.77S331.26,273.71,331.92,274.48S335.76,278.64,336.53,279.4S340.25,282.88,341.14,283.64S344.75,286.53,345.75,287.26S349.25,289.66,350.36,290.34S353.77,292.33,354.97,292.97S358.3,294.62,359.58,295.19S362.84,296.56,364.19,297.06S367.4,298.2,368.8,298.65S371.97,299.6,373.41,299.98S376.56,300.77,378.02,301.1S381.15,301.76,382.63,302.04S385.74,302.6,387.24,302.83S390.34,303.3,391.85,303.5S394.94,303.88,396.46,304.05S399.55,304.38,401.07,304.52S404.15,304.79,405.68,304.91S408.76,305.14,410.29,305.24S413.37,305.43,414.9,305.51S417.98,305.67,419.51,305.74S422.59,305.88,424.12,305.94S427.19,306.05,428.73,306.1S431.8,306.2,433.34,306.24S436.41,306.32,437.95,306.35S441.02,306.42,442.56,306.45S445.63,306.51,447.17,306.53S450.24,306.58,451.78,306.6S454.85,306.64,456.39,306.66S460.23,306.7,461,306.71" style="fill: none; stroke: blue; stroke-width: 1;"></path>
      </g>
      <g>
       <path d="M0,303.91C0.77,303.87,3.08,303.76,4.61,303.68S7.69,303.51,9.22,303.43S12.3,303.25,13.83,303.15S16.91,302.95,18.44,302.85S21.52,302.63,23.05,302.52S26.13,302.28,27.66,302.15S30.75,301.89,32.27,301.75S35.36,301.46,36.88,301.31S39.97,300.99,41.49,300.82S44.59,300.47,46.1,300.29S49.2,299.9,50.71,299.69S53.82,299.26,55.32,299.03S58.44,298.55,59.93,298.3S63.06,297.76,64.54,297.48S67.68,296.88,69.15,296.58S72.3,295.9,73.76,295.56S76.93,294.81,78.37,294.44S81.56,293.58,82.98,293.17S86.2,292.21,87.59,291.75S90.84,290.66,92.2,290.17S95.5,288.92,96.81,288.38S100.16,286.96,101.42,286.37S104.82,284.74,106.03,284.1S109.5,282.22,110.64,281.55S114.19,279.38,115.25,278.67S118.88,276.15,119.86,275.41S123.58,272.48,124.47,271.72S128.28,268.33,129.08,267.56S132.99,263.61,133.69,262.85S137.69,258.28,138.3,257.52S142.38,252.24,142.91,251.51S147.07,245.44,147.52,244.74S151.75,237.78,152.13,237.12S156.42,229.2,156.74,228.58S161.08,219.62,161.35,219.04S165.73,209,165.96,208.46S170.38,197.29,170.57,196.78S175.01,184.5,175.18,184.02S179.64,170.67,179.79,170.22S184.27,155.91,184.4,155.48S188.89,140.4,189.01,139.99S193.5,124.43,193.62,124.02S198.11,108.37,198.23,107.96S202.71,92.68,202.84,92.26S207.3,77.93,207.45,77.47S211.87,64.72,212.06,64.21S216.39,53.68,216.67,53.09S220.8,45.38,221.28,44.67S224.92,40.15,225.89,39.41S228.96,37.62,230.5,37.62S234.14,38.67,235.11,39.41S239.24,43.95,239.72,44.67S244.05,52.49,244.33,53.09S248.75,63.7,248.94,64.21S253.4,77.02,253.55,77.47S258.03,91.83,258.16,92.26S262.65,107.54,262.77,107.96S267.26,123.61,267.38,124.02S271.87,139.57,271.99,139.99S276.47,155.05,276.6,155.48S281.06,169.77,281.21,170.22S285.65,183.54,285.82,184.02S290.24,196.27,290.43,196.78S294.81,207.91,295.04,208.46S299.38,218.46,299.65,219.04S303.94,227.95,304.26,228.58S308.49,236.46,308.87,237.12S313.03,244.04,313.48,244.74S317.56,250.78,318.09,251.51S322.09,256.77,322.7,257.52S326.61,262.08,327.31,262.85S331.12,266.79,331.92,267.56S335.64,270.97,336.53,271.72S340.16,274.67,341.14,275.41S344.69,277.96,345.75,278.67S349.22,280.88,350.36,281.55S353.76,283.47,354.97,284.1S358.32,285.78,359.58,286.37S362.88,287.84,364.19,288.38S367.44,289.67,368.8,290.17S372.02,291.3,373.41,291.75S376.6,292.76,378.02,293.17S381.19,294.06,382.63,294.44S385.78,295.23,387.24,295.56S390.38,296.27,391.85,296.58S394.98,297.21,396.46,297.48S399.58,298.05,401.07,298.3S404.18,298.8,405.68,299.03S408.78,299.48,410.29,299.69S413.39,300.1,414.9,300.29S417.99,300.65,419.51,300.82S422.6,301.16,424.12,301.31S427.21,301.61,428.73,301.75S431.81,302.03,433.34,302.15S436.42,302.4,437.95,302.52S441.03,302.74,442.56,302.85S445.64,303.05,447.17,303.15S450.25,303.34,451.78,303.43S454.86,303.6,456.39,303.68S460.23,303.87,461,303.91" style="fill: none; stroke: red; stroke-width: 1;"></path>
      </g>
      <g>
       <path d="M0,298.03C0.76,297.97,3.08,297.79,4.61,297.67S7.69,297.43,9.22,297.3S12.31,297.03,13.83,296.9S16.92,296.62,18.44,296.47S21.53,296.18,23.05,296.02S26.14,295.71,27.66,295.54S30.75,295.21,32.27,295.03S35.37,294.67,36.88,294.49S39.98,294.1,41.49,293.9S44.59,293.49,46.1,293.28S49.21,292.84,50.71,292.61S53.82,292.13,55.32,291.89S58.44,291.38,59.93,291.12S63.06,290.57,64.54,290.29S67.67,289.69,69.15,289.39S72.29,288.75,73.76,288.43S76.91,287.72,78.37,287.38S81.54,286.62,82.98,286.25S86.16,285.41,87.59,285.01S90.79,284.1,92.2,283.67S95.43,282.67,96.81,282.21S100.06,281.1,101.42,280.61S104.7,279.39,106.03,278.86S109.35,277.5,110.64,276.94S114,275.42,115.25,274.82S118.66,273.13,119.86,272.49S123.33,270.58,124.47,269.91S128,267.76,129.08,267.05S132.69,264.61,133.69,263.88S137.37,261.1,138.3,260.34S142.07,257.16,142.91,256.4S146.76,252.75,147.52,251.98S151.46,247.79,152.13,247.03S156.16,242.22,156.74,241.47S160.85,235.94,161.35,235.22S165.54,228.87,165.96,228.19S170.21,220.93,170.57,220.28S174.88,212,175.18,211.39S179.54,202.01,179.79,201.44S184.19,190.88,184.4,190.36S188.83,178.6,189.01,178.11S193.47,165.21,193.62,164.75S198.09,150.87,198.23,150.43S202.71,135.9,202.84,135.47S207.31,120.81,207.45,120.37S211.9,106.36,212.06,105.89S216.46,93.5,216.67,92.98S220.93,83.33,221.28,82.69S225.1,76.79,225.89,76.02S228.96,73.71,230.5,73.71S234.32,75.26,235.11,76.02S239.37,82.04,239.72,82.69S244.12,92.45,244.33,92.98S248.78,105.43,248.94,105.89S253.41,119.93,253.55,120.37S258.03,135.04,258.16,135.47S262.63,149.99,262.77,150.43S267.23,164.29,267.38,164.75S271.81,177.62,271.99,178.11S276.39,189.83,276.6,190.36S280.96,200.88,281.21,201.44S285.52,210.78,285.82,211.39S290.07,219.63,290.43,220.28S294.62,227.5,295.04,228.19S299.15,234.5,299.65,235.22S303.68,240.73,304.26,241.47S308.2,246.27,308.87,247.03S312.72,251.21,313.48,251.98S317.25,255.63,318.09,256.4S321.77,259.59,322.7,260.34S326.31,263.15,327.31,263.88S330.84,266.35,331.92,267.05S335.39,269.24,336.53,269.91S339.94,271.85,341.14,272.49S344.5,274.22,345.75,274.82S349.07,276.37,350.36,276.94S353.64,278.33,354.97,278.86S358.22,280.12,359.58,280.61S362.81,281.75,364.19,282.21S367.39,283.24,368.8,283.67S371.98,284.62,373.41,285.01S376.58,285.88,378.02,286.25S381.17,287.04,382.63,287.38S385.77,288.11,387.24,288.43S390.37,289.1,391.85,289.39S394.98,290.01,396.46,290.29S399.58,290.86,401.07,291.12S404.18,291.65,405.68,291.89S408.79,292.38,410.29,292.61S413.39,293.07,414.9,293.28S418,293.7,419.51,293.9S422.61,294.3,424.12,294.49S427.21,294.86,428.73,295.03S431.82,295.38,433.34,295.54S436.43,295.87,437.95,296.02S441.04,296.33,442.56,296.47S445.65,296.76,447.17,296.9S450.25,297.17,451.78,297.3S454.86,297.55,456.39,297.67S460.24,297.97,461,298.03" style="fill: none; stroke: black; stroke-width: 1;"></path>
      </g>
     </svg>
     <g>
      <g transform="translate(0,307)">
       <path d="M0,0h461M0,-12V0M9,-6V0M18,-6V0M28,-6V0M37,-6V0M46,-12V0M55,-6V0M65,-6V0M74,-6V0M83,-6V0M92,-12V0M101,-6V0M111,-6V0M120,-6V0M129,-6V0M138,-12V0M148,-6V0M157,-6V0M166,-6V0M175,-6V0M184,-12V0M194,-6V0M203,-6V0M212,-6V0M221,-6V0M231,-12V0M240,-6V0M249,-6V0M258,-6V0M267,-6V0M277,-12V0M286,-6V0M295,-6V0M304,-6V0M313,-6V0M323,-12V0M332,-6V0M341,-6V0M350,-6V0M360,-6V0M369,-12V0M378,-6V0M387,-6V0M396,-6V0M406,-6V0M415,-12V0M424,-6V0M433,-6V0M443,-6V0M452,-6V0M461,-12V0" style="stroke: black; stroke-width: 1;"></path>
       <g font-family="Arial" font-size="13" space="preserve" fill="black" text-anchor="middle">
        <text dy=".8em" transform="translate(0,4)">
         -5
        </text>
        <text dy=".8em" transform="translate(46,4)">
         -4
        </text>
        <text dy=".8em" transform="translate(92,4)">
         -3
        </text>
        <text dy=".8em" transform="translate(138,4)">
         -2
        </text>
        <text dy=".8em" transform="translate(184,4)">
         -1
        </text>
        <text dy=".8em" transform="translate(231,4)">
         0
        </text>
        <text dy=".8em" transform="translate(277,4)">
         1
        </text>
        <text dy=".8em" transform="translate(323,4)">
         2
        </text>
        <text dy=".8em" transform="translate(369,4)">
         3
        </text>
        <text dy=".8em" transform="translate(415,4)">
         4
        </text>
        <text dy=".8em" transform="translate(461,4)">
         5
        </text>
       </g>
      </g>
      <g>
       <path d="M0,0v307M9,300H0M9,292H0M9,285H0M9,278H0M17,270H0M9,263H0M9,256H0M9,248H0M9,241H0M17,234H0M9,226H0M9,219H0M9,212H0M9,204H0M17,197H0M9,190H0M9,182H0M9,175H0M9,168H0M17,160H0M9,153H0M9,146H0M9,138H0M9,131H0M17,124H0M9,116H0M9,109H0M9,102H0M9,94H0M17,87H0M9,80H0M9,72H0M9,65H0M9,58H0M17,50H0M9,43H0M9,36H0M9,29H0M9,21H0M17,14H0M9,7H0" style="stroke: black; stroke-width: 1;"></path>
       <g font-family="Arial" font-size="13" space="preserve" fill="black" text-anchor="end">
        <text dy=".4em" transform="translate(-2,270)">
         0.05
        </text>
        <text dy=".4em" transform="translate(-2,234)">
         0.10
        </text>
        <text dy=".4em" transform="translate(-2,197)">
         0.15
        </text>
        <text dy=".4em" transform="translate(-2,160)">
         0.20
        </text>
        <text dy=".4em" transform="translate(-2,124)">
         0.25
        </text>
        <text dy=".4em" transform="translate(-2,87)">
         0.30
        </text>
        <text dy=".4em" transform="translate(-2,50)">
         0.35
        </text>
        <text dy=".4em" transform="translate(-2,14)">
         0.40
        </text>
       </g>
      </g>
     </g>
    </g>
    <g transform="translate(58,2)" font-family="Arial" font-size="19" space="preserve">
     <text fill="black" text-anchor="middle" dy=".8em" transform="translate(231)">
      Student density
     </text>
    </g>
    <g transform="translate(346,42)" font-family="Arial" font-size="9" space="preserve">
     <path d="M0,0H167V73H0Z" style="fill: white; stroke: black; stroke-width: 1;"></path>
     <path d="M5,11H37" style="stroke: red; stroke-width: 1; stroke-dasharray: 3,3;"></path>
     <text fill="black" text-anchor="start" dy=".4em" transform="translate(42,11)">
      Normal(0,1)
     </text>
     <path d="M5,28H37" style="stroke: blue; stroke-width: 1;"></path>
     <text fill="black" text-anchor="start" dy=".4em" transform="translate(42,28)">
      10 degrees of freedom
     </text>
     <path d="M5,45H37" style="stroke: red; stroke-width: 1;"></path>
     <text fill="black" text-anchor="start" dy=".4em" transform="translate(42,46)">
      3 degrees of freedom
     </text>
     <path d="M5,62H37" style="stroke: black; stroke-width: 1;"></path>
     <text fill="black" text-anchor="start" dy=".4em" transform="translate(42,63)">
      1 degree of freedom
     </text>
    </g>
   </g>
  </svg>
  <svg viewBox="0 0 576 384" preserveAspectRatio="none" x="612" y="8" width="576" height="384">
   <path d="M0,0H576V384H0Z" style="fill: #cdcdcd;"></path>
   <g>
    <g transform="translate(58,38)">
     <path d="M0,0H461V307H0Z" style="fill: #f3f3f3; stroke: black; stroke-width: 1;"></path>
     <g>
      <path d="M0,0v307M46,0v307M92,0v307M138,0v307M184,0v307M231,0v307M277,0v307M323,0v307M369,0v307M415,0v307M461,0v307" style="stroke: black; stroke-width: 1; stroke-dasharray: 1,2;"></path>
      <path d="M0,278h461M0,249h461M0,219h461M0,190h461M0,161h461M0,132h461M0,102h461M0,73h461M0,44h461M0,15h461" style="stroke: black; stroke-width: 1; stroke-dasharray: 1,2;"></path>
     </g>
     <svg x="0" y="0" overflow="hidden" width="461" height="307" viewBox="0 0 461 307">
      <g>
       <path d="M0,307C0.77,307,3.07,306.99,4.61,306.99S7.68,306.98,9.22,306.97S12.29,306.96,13.83,306.96S16.9,306.94,18.44,306.94S21.51,306.92,23.05,306.91S26.12,306.89,27.66,306.88S30.73,306.86,32.27,306.85S35.34,306.83,36.88,306.81S39.95,306.78,41.49,306.76S44.56,306.73,46.1,306.71S49.17,306.67,50.71,306.65S53.78,306.6,55.32,306.57S58.39,306.51,59.93,306.48S63,306.41,64.54,306.37S67.61,306.29,69.15,306.24S72.23,306.14,73.76,306.09S76.84,305.97,78.37,305.91S81.45,305.77,82.98,305.69S86.06,305.53,87.59,305.43S90.67,305.24,92.2,305.13S95.28,304.89,96.81,304.76S99.9,304.49,101.42,304.33S104.52,304,106.03,303.81S109.13,303.42,110.64,303.2S113.76,302.74,115.25,302.48S118.38,301.92,119.86,301.62S123.02,300.95,124.47,300.61S127.66,299.81,129.08,299.41S132.31,298.46,133.69,298S136.97,296.86,138.3,296.34S141.64,294.99,142.91,294.41S146.32,292.79,147.52,292.15S151.01,290.22,152.13,289.53S155.72,287.23,156.74,286.5S160.42,283.77,161.35,283.02S165.13,279.8,165.96,279.03S169.84,275.26,170.57,274.5S174.54,270.13,175.18,269.37S179.23,264.36,179.79,263.62S183.91,257.93,184.4,257.22S188.58,250.83,189.01,250.14S193.24,243.05,193.62,242.38S197.9,234.6,198.23,233.96S202.54,225.51,202.84,224.9S207.18,215.83,207.45,215.24S211.81,205.62,212.06,205.05S216.43,194.96,216.67,194.41S221.05,183.96,221.28,183.41S225.67,172.71,225.89,172.17S230.28,161.35,230.5,160.81S234.89,149.99,235.11,149.45S239.49,138.76,239.72,138.21S244.09,127.77,244.33,127.22S248.69,117.14,248.94,116.58S253.28,106.97,253.55,106.38S257.86,97.33,258.16,96.73S262.44,88.3,262.77,87.66S267,79.9,267.38,79.24S271.56,72.17,271.99,71.48S276.11,65.12,276.6,64.41S280.65,58.74,281.21,58S285.18,53.01,285.82,52.25S289.7,47.9,290.43,47.13S294.21,43.36,295.04,42.59S298.72,39.36,299.65,38.61S303.24,35.85,304.26,35.12S307.75,32.78,308.87,32.09S312.28,30.11,313.48,29.47S316.82,27.79,318.09,27.21S321.37,25.8,322.7,25.28S325.93,24.08,327.31,23.62S330.5,22.62,331.92,22.21S335.08,21.37,336.53,21.02S339.66,20.3,341.14,20S344.26,19.4,345.75,19.14S348.85,18.64,350.36,18.42S353.46,17.99,354.97,17.81S358.06,17.45,359.58,17.29S362.66,16.99,364.19,16.86S367.27,16.61,368.8,16.5S371.88,16.28,373.41,16.19S376.49,16.01,378.02,15.93S381.1,15.78,382.63,15.72S385.71,15.59,387.24,15.53S390.31,15.43,391.85,15.38S394.92,15.29,396.46,15.25S399.53,15.18,401.07,15.15S404.14,15.08,405.68,15.05S408.75,15,410.29,14.98S413.36,14.93,414.9,14.91S417.97,14.87,419.51,14.86S422.58,14.83,424.12,14.81S427.19,14.78,428.73,14.77S431.8,14.75,433.34,14.74S436.41,14.72,437.95,14.71S441.02,14.69,442.56,14.69S445.63,14.67,447.17,14.67S450.24,14.66,451.78,14.65S454.85,14.64,456.39,14.64S460.23,14.62,461,14.62" style="fill: none; stroke: blue; stroke-width: 1;"></path>
      </g>
      <g>
       <path d="M0,304.83C0.77,304.81,3.07,304.74,4.61,304.7S7.68,304.61,9.22,304.56S12.3,304.46,13.83,304.41S16.91,304.31,18.44,304.25S21.52,304.14,23.05,304.08S26.13,303.96,27.66,303.9S30.74,303.76,32.27,303.69S35.35,303.55,36.88,303.48S39.96,303.32,41.49,303.24S44.57,303.07,46.1,302.98S49.18,302.8,50.71,302.7S53.79,302.5,55.32,302.4S58.4,302.18,59.93,302.06S63.01,301.83,64.54,301.7S67.63,301.44,69.15,301.3S72.24,301.02,73.76,300.87S76.85,300.55,78.37,300.39S81.47,300.04,82.98,299.86S86.08,299.48,87.59,299.28S90.7,298.86,92.2,298.64S95.31,298.18,96.81,297.94S99.93,297.42,101.42,297.15S104.55,296.58,106.03,296.29S109.17,295.65,110.64,295.32S113.8,294.61,115.25,294.25S118.43,293.45,119.86,293.06S123.07,292.15,124.47,291.72S127.7,290.7,129.08,290.23S132.35,289.08,133.69,288.57S137,287.26,138.3,286.7S141.66,285.21,142.91,284.61S146.33,282.9,147.52,282.26S151.01,280.31,152.13,279.63S155.69,277.38,156.74,276.67S160.38,274.09,161.35,273.35S165.07,270.39,165.96,269.63S169.77,266.24,170.57,265.47S174.46,261.59,175.18,260.82S179.15,256.4,179.79,255.64S183.84,250.63,184.4,249.89S188.51,244.25,189.01,243.53S193.18,237.24,193.62,236.55S197.84,229.59,198.23,228.92S202.49,221.31,202.84,220.66S207.14,212.41,207.45,211.79S211.78,202.96,212.06,202.36S216.41,193.02,216.67,192.44S221.03,182.69,221.28,182.13S225.65,172.1,225.89,171.54S230.26,161.37,230.5,160.81S234.87,150.64,235.11,150.08S239.47,140.06,239.72,139.5S244.07,129.76,244.33,129.18S248.66,119.86,248.94,119.26S253.24,110.45,253.55,109.83S257.81,101.6,258.16,100.96S262.38,93.37,262.77,92.7S266.94,85.77,267.38,85.07S271.49,78.81,271.99,78.09S276.04,72.48,276.6,71.73S280.57,66.74,281.21,65.98S285.1,61.57,285.82,60.8S289.63,56.92,290.43,56.15S294.15,52.75,295.04,51.99S298.68,49.01,299.65,48.27S303.21,45.67,304.26,44.95S307.75,42.68,308.87,42S312.29,40.01,313.48,39.36S316.84,37.62,318.09,37.02S321.4,35.48,322.7,34.92S325.97,33.57,327.31,33.06S330.54,31.86,331.92,31.39S335.13,30.33,336.53,29.9S339.71,28.96,341.14,28.57S344.3,27.73,345.75,27.37S348.89,26.62,350.36,26.3S353.49,25.63,354.97,25.34S358.09,24.74,359.58,24.47S362.69,23.93,364.19,23.69S367.3,23.2,368.8,22.98S371.9,22.54,373.41,22.34S376.51,21.94,378.02,21.76S381.11,21.4,382.63,21.23S385.72,20.91,387.24,20.75S390.33,20.46,391.85,20.32S394.93,20.05,396.46,19.92S399.54,19.67,401.07,19.56S404.15,19.33,405.68,19.23S408.76,19.02,410.29,18.92S413.37,18.73,414.9,18.64S417.98,18.47,419.51,18.38S422.59,18.22,424.12,18.15S427.2,18,428.73,17.93S431.81,17.79,433.34,17.73S436.42,17.6,437.95,17.54S441.03,17.42,442.56,17.37S445.64,17.26,447.17,17.21S450.24,17.11,451.78,17.06S454.85,16.97,456.39,16.92S460.23,16.82,461,16.8" style="fill: none; stroke: red; stroke-width: 1;"></path>
      </g>
      <g>
       <path d="M0,288.7C0.76,288.64,3.08,288.46,4.61,288.33S7.69,288.08,9.22,287.95S12.31,287.69,13.83,287.56S16.92,287.28,18.44,287.15S21.53,286.86,23.05,286.72S26.14,286.42,27.66,286.27S30.75,285.96,32.27,285.8S35.36,285.48,36.88,285.31S39.97,284.97,41.49,284.8S44.58,284.45,46.1,284.27S49.2,283.89,50.71,283.71S53.81,283.32,55.32,283.12S58.42,282.71,59.93,282.5S63.03,282.07,64.54,281.85S67.65,281.39,69.15,281.16S72.26,280.68,73.76,280.44S76.88,279.93,78.37,279.68S81.49,279.14,82.98,278.87S86.11,278.3,87.59,278.02S90.72,277.42,92.2,277.12S95.34,276.47,96.81,276.16S99.96,275.47,101.42,275.14S104.58,274.4,106.03,274.05S109.2,273.26,110.64,272.89S113.82,272.04,115.25,271.65S118.45,270.74,119.86,270.32S123.08,269.34,124.47,268.89S127.71,267.83,129.08,267.35S132.34,266.2,133.69,265.7S136.98,264.44,138.3,263.91S141.62,262.53,142.91,261.97S146.27,260.46,147.52,259.86S150.92,258.2,152.13,257.57S155.58,255.72,156.74,255.06S160.24,253.02,161.35,252.33S164.91,250.04,165.96,249.32S169.59,246.76,170.57,246.02S174.27,243.14,175.18,242.39S178.95,239.14,179.79,238.38S183.64,234.71,184.4,233.94S188.33,229.81,189.01,229.05S193.01,224.39,193.62,223.64S197.69,218.41,198.23,217.68S202.36,211.85,202.84,211.13S207.02,204.67,207.45,203.98S211.68,196.91,212.06,196.24S216.32,188.59,216.67,187.95S220.96,179.82,221.28,179.19S225.58,170.71,225.89,170.09S230.2,161.42,230.5,160.81S234.8,152.15,235.11,151.53S239.4,143.06,239.72,142.43S243.98,134.31,244.33,133.67S248.56,126.04,248.94,125.38S253.12,118.33,253.55,117.64S257.68,111.2,258.16,110.49S262.23,104.68,262.77,103.94S266.77,98.73,267.38,97.98S271.31,93.34,271.99,92.57S275.84,88.45,276.6,87.68S280.37,84.01,281.21,83.25S284.91,79.99,285.82,79.24S289.45,76.34,290.43,75.6S293.99,73.02,295.04,72.3S298.54,69.99,299.65,69.3S303.1,67.22,304.26,66.56S307.66,64.69,308.87,64.06S312.23,62.36,313.48,61.76S316.8,60.22,318.09,59.66S321.38,58.25,322.7,57.72S325.96,56.43,327.31,55.93S330.55,54.75,331.92,54.27S335.14,53.18,336.53,52.73S339.73,51.73,341.14,51.31S344.32,50.37,345.75,49.98S348.92,49.11,350.36,48.73S353.52,47.93,354.97,47.57S358.12,46.82,359.58,46.49S362.72,45.78,364.19,45.46S367.32,44.8,368.8,44.5S371.93,43.88,373.41,43.6S376.53,43.02,378.02,42.75S381.14,42.2,382.63,41.94S385.74,41.42,387.24,41.18S390.35,40.69,391.85,40.46S394.95,39.99,396.46,39.77S399.56,39.33,401.07,39.12S404.17,38.7,405.68,38.51S408.78,38.11,410.29,37.92S413.38,37.54,414.9,37.36S417.99,36.99,419.51,36.82S422.6,36.47,424.12,36.31S427.21,35.98,428.73,35.82S431.82,35.5,433.34,35.35S436.43,35.05,437.95,34.91S441.04,34.62,442.56,34.48S445.65,34.2,447.17,34.07S450.25,33.8,451.78,33.67S454.86,33.41,456.39,33.29S460.24,32.99,461,32.92" style="fill: none; stroke: black; stroke-width: 1;"></path>
      </g>
     </svg>
     <g>
      <g transform="translate(0,307)">
       <path d="M0,0h461M0,-12V0M9,-6V0M18,-6V0M28,-6V0M37,-6V0M46,-12V0M55,-6V0M65,-6V0M74,-6V0M83,-6V0M92,-12V0M101,-6V0M111,-6V0M120,-6V0M129,-6V0M138,-12V0M148,-6V0M157,-6V0M166,-6V0M175,-6V0M184,-12V0M194,-6V0M203,-6V0M212,-6V0M221,-6V0M231,-12V0M240,-6V0M249,-6V0M258,-6V0M267,-6V0M277,-12V0M286,-6V0M295,-6V0M304,-6V0M313,-6V0M323,-12V0M332,-6V0M341,-6V0M350,-6V0M360,-6V0M369,-12V0M378,-6V0M387,-6V0M396,-6V0M406,-6V0M415,-12V0M424,-6V0M433,-6V0M443,-6V0M452,-6V0M461,-12V0" style="stroke: black; stroke-width: 1;"></path>
       <g font-family="Arial" font-size="13" space="preserve" fill="black" text-anchor="middle">
        <text dy=".8em" transform="translate(0,4)">
         -5
        </text>
        <text dy=".8em" transform="translate(46,4)">
         -4
        </text>
        <text dy=".8em" transform="translate(92,4)">
         -3
        </text>
        <text dy=".8em" transform="translate(138,4)">
         -2
        </text>
        <text dy=".8em" transform="translate(184,4)">
         -1
        </text>
        <text dy=".8em" transform="translate(231,4)">
         0
        </text>
        <text dy=".8em" transform="translate(277,4)">
         1
        </text>
        <text dy=".8em" transform="translate(323,4)">
         2
        </text>
        <text dy=".8em" transform="translate(369,4)">
         3
        </text>
        <text dy=".8em" transform="translate(415,4)">
         4
        </text>
        <text dy=".8em" transform="translate(461,4)">
         5
        </text>
       </g>
      </g>
      <g>
       <path d="M0,0v307M9,301H0M9,295H0M9,290H0M9,284H0M17,278H0M9,272H0M9,266H0M9,260H0M9,254H0M17,249H0M9,243H0M9,237H0M9,231H0M9,225H0M17,219H0M9,213H0M9,208H0M9,202H0M9,196H0M17,190H0M9,184H0M9,178H0M9,173H0M9,167H0M17,161H0M9,155H0M9,149H0M9,143H0M9,137H0M17,132H0M9,126H0M9,120H0M9,114H0M9,108H0M17,102H0M9,96H0M9,91H0M9,85H0M9,79H0M17,73H0M9,67H0M9,61H0M9,55H0M9,50H0M17,44H0M9,38H0M9,32H0M9,26H0M9,20H0M17,15H0M9,9H0M9,3H0" style="stroke: black; stroke-width: 1;"></path>
       <g font-family="Arial" font-size="13" space="preserve" fill="black" text-anchor="end">
        <text dy=".4em" transform="translate(-2,278)">
         0.1
        </text>
        <text dy=".4em" transform="translate(-2,249)">
         0.2
        </text>
        <text dy=".4em" transform="translate(-2,219)">
         0.3
        </text>
        <text dy=".4em" transform="translate(-2,190)">
         0.4
        </text>
        <text dy=".4em" transform="translate(-2,161)">
         0.5
        </text>
        <text dy=".4em" transform="translate(-2,132)">
         0.6
        </text>
        <text dy=".4em" transform="translate(-2,102)">
         0.7
        </text>
        <text dy=".4em" transform="translate(-2,73)">
         0.8
        </text>
        <text dy=".4em" transform="translate(-2,44)">
         0.9
        </text>
        <text dy=".4em" transform="translate(-2,15)">
         1
        </text>
       </g>
      </g>
     </g>
    </g>
    <g transform="translate(58,2)" font-family="Arial" font-size="19" space="preserve">
     <text fill="black" text-anchor="middle" dy=".8em" transform="translate(231)">
      Student cumulative dist.
     </text>
    </g>
    <g transform="translate(346,154)" font-family="Arial" font-size="9" space="preserve">
     <path d="M0,0H167V77H0Z" style="fill: white; stroke: black; stroke-width: 1;"></path>
     <path d="M5,14H37" style="stroke: blue; stroke-width: 1;"></path>
     <text fill="black" text-anchor="start" dy=".4em" transform="translate(42,14)">
      10 degrees of freedom
     </text>
     <path d="M5,39H37" style="stroke: red; stroke-width: 1;"></path>
     <text fill="black" text-anchor="start" dy=".4em" transform="translate(42,38)">
      3 degrees of freedom
     </text>
     <path d="M5,63H37" style="stroke: black; stroke-width: 1;"></path>
     <text fill="black" text-anchor="start" dy=".4em" transform="translate(42,63)">
      1 degree of freedom
     </text>
    </g>
   </g>
  </svg>
  <svg viewBox="0 0 576 384" preserveAspectRatio="none" x="12" y="408" width="576" height="384">
   <path d="M0,0H576V384H0Z" style="fill: #cdcdcd;"></path>
   <g>
    <g transform="translate(58,38)">
     <path d="M0,0H461V307H0Z" style="fill: #f3f3f3; stroke: black; stroke-width: 1;"></path>
     <g>
      <path d="M42,0v307M88,0v307M135,0v307M182,0v307M228,0v307M275,0v307M321,0v307M368,0v307M414,0v307M461,0v307" style="stroke: black; stroke-width: 1; stroke-dasharray: 1,2;"></path>
      <path d="M0,249h461M0,180h461M0,112h461M0,43h461" style="stroke: black; stroke-width: 1; stroke-dasharray: 1,2;"></path>
     </g>
     <svg x="0" y="0" overflow="hidden" width="461" height="307" viewBox="0 0 461 307">
      <g>
       <path d="M0,15.11C0,15.15,4.6,107.05,4.61,107.15S9.19,148.57,9.22,148.78S13.76,173.65,13.83,173.97S18.31,190.95,18.44,191.37S22.84,203.83,23.05,204.36S27.35,213.92,27.66,214.54S31.86,222.13,32.27,222.81S36.35,228.97,36.88,229.7S40.85,234.81,41.49,235.56S45.35,239.86,46.1,240.63S49.87,244.3,50.71,245.06S54.39,248.23,55.32,248.99S58.92,251.76,59.93,252.49S63.46,254.94,64.54,255.64S68.01,257.82,69.15,258.49S72.57,260.45,73.76,261.09S77.14,262.86,78.37,263.47S81.71,265.08,82.98,265.66S86.29,267.13,87.59,267.68S90.87,269.03,92.2,269.55S95.45,270.79,96.81,271.29S100.04,272.44,101.42,272.91S104.63,273.98,106.03,274.43S109.23,275.43,110.64,275.85S113.83,276.78,115.25,277.18S118.42,278.06,119.86,278.44S123.02,279.26,124.47,279.62S127.62,280.4,129.08,280.74S132.23,281.48,133.69,281.8S136.83,282.5,138.3,282.81S141.43,283.46,142.91,283.76S146.04,284.38,147.52,284.67S150.64,285.26,152.13,285.53S155.25,286.09,156.74,286.35S159.85,286.89,161.35,287.14S164.46,287.65,165.96,287.89S169.07,288.38,170.57,288.61S173.68,289.07,175.18,289.29S178.28,289.74,179.79,289.95S182.89,290.38,184.4,290.58S187.5,290.99,189.01,291.18S192.11,291.58,193.62,291.76S196.71,292.14,198.23,292.32S201.32,292.69,202.84,292.86S205.93,293.21,207.45,293.38S210.54,293.71,212.06,293.87S215.15,294.2,216.67,294.35S219.76,294.67,221.28,294.82S224.37,295.12,225.89,295.26S228.98,295.56,230.5,295.7S233.59,295.98,235.11,296.11S238.19,296.38,239.72,296.52S242.8,296.78,244.33,296.91S247.41,297.16,248.94,297.28S252.02,297.53,253.55,297.65S256.63,297.89,258.16,298S261.24,298.23,262.77,298.34S265.85,298.57,267.38,298.68S270.46,298.89,271.99,299S275.07,299.21,276.6,299.31S279.68,299.52,281.21,299.62S284.29,299.81,285.82,299.91S288.9,300.1,290.43,300.2S293.51,300.39,295.04,300.48S298.12,300.66,299.65,300.75S302.73,300.92,304.26,301.01S307.34,301.18,308.87,301.27S311.95,301.43,313.48,301.52S316.56,301.68,318.09,301.76S321.17,301.92,322.7,302S325.78,302.15,327.31,302.23S330.39,302.38,331.92,302.45S335,302.6,336.53,302.67S339.61,302.81,341.14,302.88S344.22,303.02,345.75,303.09S348.83,303.23,350.36,303.29S353.44,303.43,354.97,303.49S358.05,303.62,359.58,303.68S362.66,303.81,364.19,303.87S367.27,304,368.8,304.06S371.88,304.18,373.41,304.24S376.49,304.36,378.02,304.41S381.1,304.53,382.63,304.58S385.71,304.7,387.24,304.75S390.32,304.86,391.85,304.92S394.93,305.02,396.46,305.08S399.54,305.18,401.07,305.23S404.15,305.34,405.68,305.39S408.75,305.49,410.29,305.54S413.36,305.64,414.9,305.69S417.97,305.78,419.51,305.83S422.58,305.92,424.12,305.97S427.19,306.06,428.73,306.11S431.8,306.2,433.34,306.24S436.41,306.33,437.95,306.38S441.02,306.46,442.56,306.51S445.63,306.59,447.17,306.63S450.24,306.72,451.78,306.76S454.85,306.84,456.39,306.88S460.23,306.98,461,307" style="fill: none; stroke: black; stroke-width: 1;"></path>
      </g>
      <g>
       <path d="M0,-55.37C0,-55.34,4.61,55.88,4.61,55.97S9.2,105.87,9.22,106.04S13.78,135.96,13.83,136.23S18.35,156.68,18.44,157.04S22.9,172.09,23.05,172.55S27.43,184.15,27.66,184.7S31.95,193.95,32.27,194.57S36.47,202.14,36.88,202.82S40.98,209.11,41.49,209.84S45.49,215.17,46.1,215.92S50.01,220.49,50.71,221.26S54.53,225.23,55.32,226S59.06,229.48,59.93,230.24S63.6,233.33,64.54,234.08S68.14,236.83,69.15,237.56S72.69,240.05,73.76,240.75S77.25,243,78.37,243.69S81.82,245.74,82.98,246.4S86.39,248.28,87.59,248.91S90.96,250.65,92.2,251.25S95.54,252.86,96.81,253.44S100.12,254.93,101.42,255.49S104.71,256.88,106.03,257.42S109.3,258.72,110.64,259.23S113.89,260.45,115.25,260.95S118.48,262.1,119.86,262.57S123.08,263.65,124.47,264.1S127.68,265.13,129.08,265.56S132.28,266.54,133.69,266.95S136.88,267.88,138.3,268.28S141.48,269.16,142.91,269.54S146.08,270.38,147.52,270.75S150.68,271.55,152.13,271.9S155.28,272.67,156.74,273.01S159.89,273.74,161.35,274.07S164.49,274.77,165.96,275.09S169.1,275.76,170.57,276.07S173.7,276.71,175.18,277.01S178.31,277.63,179.79,277.91S182.91,278.51,184.4,278.79S187.52,279.36,189.01,279.63S192.13,280.18,193.62,280.44S196.74,280.97,198.23,281.22S201.34,281.74,202.84,281.98S205.95,282.48,207.45,282.71S210.56,283.2,212.06,283.42S215.17,283.89,216.67,284.11S219.77,284.56,221.28,284.77S224.38,285.21,225.89,285.42S228.99,285.84,230.5,286.04S233.6,286.45,235.11,286.65S238.21,287.05,239.72,287.24S242.82,287.62,244.33,287.81S247.42,288.18,248.94,288.36S252.03,288.73,253.55,288.9S256.64,289.25,258.16,289.42S261.25,289.77,262.77,289.93S265.86,290.27,267.38,290.43S270.47,290.76,271.99,290.91S275.08,291.23,276.6,291.38S279.69,291.69,281.21,291.84S284.3,292.14,285.82,292.29S288.91,292.58,290.43,292.72S293.52,293.01,295.04,293.14S298.13,293.42,299.65,293.56S302.73,293.83,304.26,293.96S307.34,294.23,308.87,294.35S311.95,294.61,313.48,294.74S316.56,294.99,318.09,295.11S321.17,295.36,322.7,295.48S325.78,295.72,327.31,295.84S330.39,296.07,331.92,296.19S335,296.41,336.53,296.53S339.61,296.75,341.14,296.86S344.22,297.08,345.75,297.19S348.83,297.4,350.36,297.5S353.44,297.71,354.97,297.82S358.05,298.02,359.58,298.12S362.66,298.32,364.19,298.42S367.27,298.62,368.8,298.71S371.88,298.9,373.41,299S376.49,299.18,378.02,299.28S381.1,299.46,382.63,299.55S385.71,299.73,387.24,299.82S390.32,299.99,391.85,300.08S394.93,300.25,396.46,300.34S399.54,300.51,401.07,300.59S404.15,300.76,405.68,300.84S408.76,301,410.29,301.08S413.37,301.24,414.9,301.32S417.98,301.47,419.51,301.55S422.59,301.7,424.12,301.78S427.2,301.93,428.73,302S431.81,302.15,433.34,302.22S436.42,302.36,437.95,302.44S441.03,302.58,442.56,302.65S445.64,302.79,447.17,302.85S450.25,302.99,451.78,303.06S454.86,303.19,456.39,303.26S460.23,303.42,461,303.45" style="fill: none; stroke: red; stroke-width: 1;"></path>
      </g>
      <g>
       <path d="M0,316.28C0.3,315.91,4.2,311.26,4.61,310.58S8.96,301.6,9.22,301.02S13.57,290.94,13.83,290.37S18.13,281.03,18.44,280.42S22.64,272.63,23.05,271.95S27.09,265.9,27.66,265.16S31.49,260.72,32.27,259.95S35.86,256.84,36.88,256.11S40.24,254.02,41.49,253.42S44.69,252.08,46.1,251.65S49.21,250.86,50.71,250.62S53.78,250.19,55.32,250.18S58.39,250.18,59.93,250.19S63.02,250.39,64.54,250.56S67.65,250.95,69.15,251.19S72.28,251.74,73.76,252.03S76.91,252.69,78.37,253.03S81.53,253.77,82.98,254.13S86.15,254.93,87.59,255.31S90.77,256.16,92.2,256.55S95.38,257.42,96.81,257.82S99.99,258.7,101.42,259.1S104.6,259.99,106.03,260.39S109.21,261.28,110.64,261.68S113.82,262.56,115.25,262.95S118.43,263.82,119.86,264.2S123.03,265.06,124.47,265.44S127.64,266.27,129.08,266.65S132.25,267.46,133.69,267.83S136.85,268.62,138.3,268.98S141.46,269.75,142.91,270.1S146.06,270.85,147.52,271.19S150.67,271.92,152.13,272.25S155.27,272.96,156.74,273.28S159.88,273.96,161.35,274.28S164.49,274.94,165.96,275.24S169.09,275.89,170.57,276.18S173.7,276.81,175.18,277.09S178.31,277.7,179.79,277.97S182.91,278.56,184.4,278.83S187.52,279.39,189.01,279.66S192.13,280.2,193.62,280.46S196.73,280.99,198.23,281.24S201.34,281.75,202.84,281.99S205.95,282.48,207.45,282.72S210.56,283.2,212.06,283.42S215.17,283.89,216.67,284.11S219.77,284.56,221.28,284.77S224.38,285.21,225.89,285.42S228.99,285.84,230.5,286.04S233.6,286.45,235.11,286.65S238.21,287.05,239.72,287.24S242.82,287.62,244.33,287.81S247.42,288.18,248.94,288.36S252.03,288.72,253.55,288.9S256.64,289.25,258.16,289.42S261.25,289.76,262.77,289.93S265.86,290.26,267.38,290.42S270.47,290.74,271.99,290.9S275.08,291.21,276.6,291.36S279.69,291.67,281.21,291.81S284.3,292.11,285.82,292.25S288.91,292.54,290.43,292.68S293.52,292.96,295.04,293.1S298.12,293.37,299.65,293.5S302.73,293.77,304.26,293.9S307.34,294.15,308.87,294.28S311.95,294.53,313.48,294.65S316.56,294.9,318.09,295.02S321.17,295.26,322.7,295.37S325.78,295.6,327.31,295.72S330.39,295.94,331.92,296.05S335,296.27,336.53,296.38S339.61,296.6,341.14,296.7S344.22,296.91,345.75,297.01S348.83,297.22,350.36,297.32S353.44,297.52,354.97,297.62S358.05,297.81,359.58,297.91S362.66,298.1,364.19,298.19S367.27,298.38,368.8,298.47S371.88,298.65,373.41,298.74S376.49,298.91,378.02,299S381.1,299.17,382.63,299.26S385.71,299.43,387.24,299.51S390.32,299.68,391.85,299.76S394.93,299.92,396.46,300S399.54,300.16,401.07,300.23S404.15,300.39,405.68,300.46S408.76,300.61,410.29,300.69S413.37,300.84,414.9,300.91S417.98,301.05,419.51,301.12S422.59,301.26,424.12,301.33S427.2,301.47,428.73,301.54S431.81,301.68,433.34,301.74S436.42,301.87,437.95,301.94S441.03,302.07,442.56,302.13S445.64,302.26,447.17,302.32S450.25,302.45,451.78,302.51S454.86,302.63,456.39,302.69S460.23,302.84,461,302.87" style="fill: none; stroke: #59d454; stroke-width: 1;"></path>
      </g>
      <g>
       <path d="M0,317.26C0.77,317.24,3.08,317.23,4.61,317.13S7.72,316.9,9.22,316.66S12.41,316.08,13.83,315.68S17.15,314.59,18.44,314.03S21.91,312.33,23.05,311.65S26.68,309.28,27.66,308.55S31.41,305.51,32.27,304.75S36.12,301.12,36.88,300.35S40.8,296.21,41.49,295.45S45.46,290.92,46.1,290.16S50.09,285.35,50.71,284.6S54.72,279.63,55.32,278.88S59.33,273.87,59.93,273.12S63.93,268.14,64.54,267.39S68.52,262.54,69.15,261.78S73.1,257.13,73.76,256.37S77.67,251.96,78.37,251.2S82.23,247.08,82.98,246.32S86.78,242.53,87.59,241.76S91.33,238.31,92.2,237.55S95.87,234.45,96.81,233.7S100.4,230.95,101.42,230.22S104.93,227.81,106.03,227.12S109.46,225.03,110.64,224.38S114,222.6,115.25,222S118.54,220.51,119.86,219.98S123.09,218.75,124.47,218.29S127.64,217.29,129.08,216.91S132.21,216.14,133.69,215.85S136.79,215.28,138.3,215.06S141.38,214.68,142.91,214.55S145.98,214.32,147.52,214.28S150.59,214.23,152.13,214.25S155.21,214.33,156.74,214.42S159.83,214.64,161.35,214.79S164.45,215.14,165.96,215.34S169.08,215.8,170.57,216.05S173.7,216.61,175.18,216.9S178.33,217.56,179.79,217.89S182.95,218.63,184.4,218.99S187.58,219.8,189.01,220.19S192.2,221.07,193.62,221.48S196.82,222.43,198.23,222.86S201.45,223.85,202.84,224.3S206.06,225.34,207.45,225.8S210.68,226.88,212.06,227.34S215.3,228.46,216.67,228.93S219.92,230.07,221.28,230.56S224.53,231.71,225.89,232.2S229.14,233.38,230.5,233.87S233.75,235.06,235.11,235.55S238.37,236.75,239.72,237.24S242.98,238.44,244.33,238.94S247.59,240.13,248.94,240.63S252.19,241.82,253.55,242.32S256.8,243.5,258.16,244S261.41,245.17,262.77,245.66S266.02,246.83,267.38,247.32S270.62,248.47,271.99,248.96S275.23,250.1,276.6,250.57S279.84,251.7,281.21,252.17S284.44,253.28,285.82,253.75S289.05,254.84,290.43,255.3S293.65,256.37,295.04,256.82S298.26,257.88,299.65,258.32S302.86,259.36,304.26,259.8S307.47,260.81,308.87,261.24S312.07,262.23,313.48,262.66S316.68,263.63,318.09,264.05S321.28,265,322.7,265.41S325.89,266.34,327.31,266.75S330.49,267.65,331.92,268.05S335.1,268.93,336.53,269.32S339.71,270.18,341.14,270.57S344.31,271.41,345.75,271.78S348.92,272.6,350.36,272.97S353.52,273.77,354.97,274.13S358.13,274.91,359.58,275.26S362.73,276.02,364.19,276.36S367.34,277.1,368.8,277.44S371.95,278.16,373.41,278.49S376.55,279.19,378.02,279.51S381.16,280.19,382.63,280.51S385.77,281.17,387.24,281.48S390.37,282.12,391.85,282.42S394.98,283.05,396.46,283.34S399.59,283.95,401.07,284.24S404.2,284.83,405.68,285.11S408.8,285.69,410.29,285.96S413.41,286.52,414.9,286.78S418.02,287.33,419.51,287.58S422.63,288.12,424.12,288.37S427.23,288.88,428.73,289.13S431.84,289.63,433.34,289.87S436.45,290.36,437.95,290.59S441.06,291.06,442.56,291.29S445.67,291.75,447.17,291.97S450.27,292.42,451.78,292.63S454.88,293.06,456.39,293.27S460.25,293.8,461,293.9" style="fill: none; stroke: blue; stroke-width: 1;"></path>
      </g>
     </svg>
     <g>
      <g transform="translate(0,307)">
       <path d="M0,0h461M7,-6V0M19,-6V0M30,-6V0M42,-12V0M54,-6V0M65,-6V0M77,-6V0M88,-12V0M100,-6V0M112,-6V0M123,-6V0M135,-12V0M147,-6V0M158,-6V0M170,-6V0M182,-12V0M193,-6V0M205,-6V0M217,-6V0M228,-12V0M240,-6V0M251,-6V0M263,-6V0M275,-12V0M286,-6V0M298,-6V0M310,-6V0M321,-12V0M333,-6V0M345,-6V0M356,-6V0M368,-12V0M380,-6V0M391,-6V0M403,-6V0M414,-12V0M426,-6V0M438,-6V0M449,-6V0M461,-12V0" style="stroke: black; stroke-width: 1;"></path>
       <g font-family="Arial" font-size="13" space="preserve" fill="black" text-anchor="middle">
        <text dy=".8em" transform="translate(42,4)">
         0.2
        </text>
        <text dy=".8em" transform="translate(88,4)">
         0.4
        </text>
        <text dy=".8em" transform="translate(135,4)">
         0.6
        </text>
        <text dy=".8em" transform="translate(182,4)">
         0.8
        </text>
        <text dy=".8em" transform="translate(228,4)">
         1
        </text>
        <text dy=".8em" transform="translate(275,4)">
         1.2
        </text>
        <text dy=".8em" transform="translate(321,4)">
         1.4
        </text>
        <text dy=".8em" transform="translate(368,4)">
         1.6
        </text>
        <text dy=".8em" transform="translate(414,4)">
         1.8
        </text>
        <text dy=".8em" transform="translate(461,4)">
         2
        </text>
       </g>
      </g>
      <g>
       <path d="M0,0v307M9,304H0M9,290H0M9,276H0M9,263H0M17,249H0M9,235H0M9,221H0M9,208H0M9,194H0M17,180H0M9,167H0M9,153H0M9,139H0M9,126H0M17,112H0M9,98H0M9,84H0M9,71H0M9,57H0M17,43H0M9,30H0M9,16H0M9,2H0" style="stroke: black; stroke-width: 1;"></path>
       <g font-family="Arial" font-size="13" space="preserve" fill="black" text-anchor="end">
        <text dy=".4em" transform="translate(-2,249)">
         0.5
        </text>
        <text dy=".4em" transform="translate(-2,180)">
         1
        </text>
        <text dy=".4em" transform="translate(-2,112)">
         1.5
        </text>
        <text dy=".4em" transform="translate(-2,43)">
         2
        </text>
       </g>
      </g>
     </g>
    </g>
    <g transform="translate(58,2)" font-family="Arial" font-size="19" space="preserve">
     <text fill="black" text-anchor="middle" dy=".8em" transform="translate(231)">
      F-Dist. density
     </text>
    </g>
    <g transform="translate(403,42)" font-family="Arial" font-size="14" space="preserve">
     <path d="M0,0H109V73H0Z" style="fill: white; stroke: black; stroke-width: 1;"></path>
     <path d="M3,11H24" style="stroke: black; stroke-width: 1;"></path>
     <text fill="black" text-anchor="start" dy=".4em" transform="translate(27,11)">
      N=1 M=1
     </text>
     <path d="M3,28H24" style="stroke: red; stroke-width: 1;"></path>
     <text fill="black" text-anchor="start" dy=".4em" transform="translate(27,28)">
      N=1 M=10
     </text>
     <path d="M3,45H24" style="stroke: #59d454; stroke-width: 1;"></path>
     <text fill="black" text-anchor="start" dy=".4em" transform="translate(27,46)">
      N=10 M=1
     </text>
     <path d="M3,62H24" style="stroke: blue; stroke-width: 1;"></path>
     <text fill="black" text-anchor="start" dy=".4em" transform="translate(27,63)">
      N=10 M=10
     </text>
    </g>
   </g>
  </svg>
  <svg viewBox="0 0 576 384" preserveAspectRatio="none" x="612" y="408" width="576" height="384">
   <path d="M0,0H576V384H0Z" style="fill: #cdcdcd;"></path>
   <g>
    <g transform="translate(58,38)">
     <path d="M0,0H461V307H0Z" style="fill: #f3f3f3; stroke: black; stroke-width: 1;"></path>
     <g>
      <path d="M0,0v307M46,0v307M92,0v307M138,0v307M184,0v307M231,0v307M277,0v307M323,0v307M369,0v307M415,0v307M461,0v307" style="stroke: black; stroke-width: 1; stroke-dasharray: 1,2;"></path>
      <path d="M0,307h461M0,259h461M0,211h461M0,163h461M0,115h461M0,67h461M0,19h461" style="stroke: black; stroke-width: 1; stroke-dasharray: 1,2;"></path>
     </g>
     <svg x="0" y="0" overflow="hidden" width="461" height="307" viewBox="0 0 461 307">
      <g>
       <path d="M0,307C0.01,306.92,4.58,264.23,4.61,264S9.09,247.01,9.22,246.59S13.63,233.99,13.83,233.48S18.18,223.22,18.44,222.64S22.72,213.89,23.05,213.26S27.27,205.61,27.66,204.94S31.82,198.12,32.27,197.42S36.38,191.26,36.88,190.54S40.93,184.93,41.49,184.2S45.49,179.04,46.1,178.29S50.06,173.53,50.71,172.77S54.62,168.35,55.32,167.58S59.19,163.45,59.93,162.68S63.76,158.81,64.54,158.04S68.33,154.4,69.15,153.64S72.9,150.2,73.76,149.44S77.48,146.19,78.37,145.43S82.06,142.35,82.98,141.6S86.64,138.67,87.59,137.93S91.22,135.14,92.2,134.4S95.8,131.74,96.81,131.01S100.38,128.47,101.42,127.75S104.97,125.31,106.03,124.6S109.56,122.26,110.64,121.56S114.15,119.32,115.25,118.63S118.74,116.47,119.86,115.79S123.33,113.71,124.47,113.04S127.92,111.04,129.08,110.38S132.51,108.45,133.69,107.8S137.11,105.93,138.3,105.29S141.7,103.49,142.91,102.86S146.3,101.11,147.52,100.49S150.89,98.8,152.13,98.19S155.49,96.55,156.74,95.95S160.09,94.36,161.35,93.77S164.69,92.23,165.96,91.65S169.29,90.15,170.57,89.58S173.89,88.12,175.18,87.56S178.49,86.14,179.79,85.59S183.09,84.2,184.4,83.66S187.69,82.32,189.01,81.78S192.29,80.47,193.62,79.95S196.89,78.67,198.23,78.15S201.49,76.9,202.84,76.4S206.1,75.18,207.45,74.68S210.7,73.49,212.06,73S215.3,71.84,216.67,71.36S219.91,70.22,221.28,69.75S224.51,68.64,225.89,68.17S229.12,67.08,230.5,66.62S233.72,65.56,235.11,65.11S238.33,64.07,239.72,63.62S242.93,62.6,244.33,62.17S247.54,61.17,248.94,60.74S252.14,59.76,253.55,59.33S256.75,58.38,258.16,57.96S261.35,57.02,262.77,56.61S265.96,55.68,267.38,55.28S270.57,54.37,271.99,53.97S275.17,53.09,276.6,52.69S279.78,51.82,281.21,51.43S284.39,50.58,285.82,50.2S288.99,49.36,290.43,48.98S293.6,48.15,295.04,47.78S298.21,46.97,299.65,46.61S302.81,45.81,304.26,45.45S307.42,44.67,308.87,44.31S312.03,43.54,313.48,43.19S316.64,42.43,318.09,42.09S321.24,41.34,322.7,41S325.85,40.27,327.31,39.93S330.46,39.21,331.92,38.88S335.07,38.17,336.53,37.84S339.67,37.14,341.14,36.82S344.28,36.13,345.75,35.81S348.89,35.13,350.36,34.82S353.5,34.15,354.97,33.84S358.11,33.18,359.58,32.88S362.72,32.23,364.19,31.93S367.32,31.29,368.8,30.99S371.93,30.36,373.41,30.06S376.54,29.44,378.02,29.15S381.15,28.54,382.63,28.25S385.76,27.65,387.24,27.37S390.37,26.77,391.85,26.49S394.97,25.9,396.46,25.63S399.58,25.05,401.07,24.78S404.19,24.2,405.68,23.93S408.8,23.37,410.29,23.1S413.41,22.55,414.9,22.28S418.02,21.73,419.51,21.47S422.63,20.93,424.12,20.67S427.24,20.14,428.73,19.88S431.85,19.36,433.34,19.11S436.45,18.58,437.95,18.33S441.06,17.82,442.56,17.57S445.67,17.06,447.17,16.82S450.28,16.32,451.78,16.08S454.89,15.58,456.39,15.34S460.25,14.74,461,14.62" style="fill: none; stroke: black; stroke-width: 1;"></path>
      </g>
      <g>
       <path d="M0,307C0.01,306.93,4.59,254.47,4.61,254.28S9.13,233.07,9.22,232.72S13.7,216.79,13.83,216.35S18.26,203.2,18.44,202.71S22.83,191.36,23.05,190.82S27.4,180.76,27.66,180.18S31.97,171.12,32.27,170.51S36.54,162.25,36.88,161.6S41.11,153.99,41.49,153.33S45.68,146.27,46.1,145.59S50.25,139.01,50.71,138.3S54.83,132.13,55.32,131.42S59.4,125.61,59.93,124.88S63.98,119.4,64.54,118.66S68.56,113.47,69.15,112.73S73.13,107.8,73.76,107.04S77.71,102.36,78.37,101.6S82.29,97.12,82.98,96.36S86.88,92.09,87.59,91.32S91.46,87.24,92.2,86.47S96.04,82.55,96.81,81.78S100.62,78.03,101.42,77.26S105.21,73.65,106.03,72.88S109.8,69.4,110.64,68.64S114.38,65.29,115.25,64.53S118.97,61.3,119.86,60.55S123.56,57.43,124.47,56.68S128.15,53.67,129.08,52.92S132.74,50.01,133.69,49.27S137.33,46.45,138.3,45.71S141.92,42.99,142.91,42.25S146.51,39.61,147.52,38.88S151.1,36.33,152.13,35.6S155.69,33.12,156.74,32.4S160.29,29.99,161.35,29.28S164.88,26.94,165.96,26.24S169.48,23.96,170.57,23.26S174.07,21.05,175.18,20.36S178.67,18.21,179.79,17.53S183.26,15.43,184.4,14.76S187.86,12.72,189.01,12.05S192.46,10.06,193.62,9.4S197.06,7.46,198.23,6.81S201.65,4.92,202.84,4.27S206.25,2.43,207.45,1.79S210.85,-0.01,212.06,-0.64S215.45,-2.39,216.67,-3.02S220.05,-4.73,221.28,-5.35S224.65,-7.02,225.89,-7.63S229.25,-9.27,230.5,-9.87S233.85,-11.47,235.11,-12.06S238.45,-13.63,239.72,-14.21S243.05,-15.74,244.33,-16.32S247.66,-17.82,248.94,-18.39S252.26,-19.85,253.55,-20.42S256.86,-21.85,258.16,-22.41S261.46,-23.81,262.77,-24.36S266.07,-25.73,267.38,-26.28S270.67,-27.62,271.99,-28.16S275.27,-29.48,276.6,-30.01S279.88,-31.3,281.21,-31.82S284.48,-33.09,285.82,-33.6S289.08,-34.85,290.43,-35.35S293.69,-36.57,295.04,-37.07S298.29,-38.27,299.65,-38.76S302.9,-39.94,304.26,-40.43S307.5,-41.58,308.87,-42.06S312.11,-43.19,313.48,-43.66S316.71,-44.77,318.09,-45.24S321.32,-46.33,322.7,-46.79S325.92,-47.86,327.31,-48.32S330.53,-49.37,331.92,-49.82S335.13,-50.85,336.53,-51.29S339.74,-52.31,341.14,-52.74S344.35,-53.74,345.75,-54.17S348.95,-55.15,350.36,-55.58S353.56,-56.54,354.97,-56.96S358.16,-57.9,359.58,-58.32S362.77,-59.25,364.19,-59.66S367.38,-60.57,368.8,-60.98S371.98,-61.87,373.41,-62.27S376.59,-63.16,378.02,-63.55S381.2,-64.42,382.63,-64.81S385.81,-65.66,387.24,-66.05S390.41,-66.89,391.85,-67.26S395.02,-68.09,396.46,-68.47S399.63,-69.28,401.07,-69.65S404.23,-70.45,405.68,-70.81S408.84,-71.6,410.29,-71.96S413.45,-72.74,414.9,-73.09S418.06,-73.86,419.51,-74.2S422.66,-74.96,424.12,-75.3S427.27,-76.04,428.73,-76.38S431.88,-77.11,433.34,-77.45S436.49,-78.17,437.95,-78.5S441.1,-79.21,442.56,-79.53S445.7,-80.23,447.17,-80.56S450.31,-81.24,451.78,-81.56S454.92,-82.24,456.39,-82.55S460.26,-83.37,461,-83.53" style="fill: none; stroke: red; stroke-width: 1;"></path>
      </g>
      <g>
       <path d="M0,307C0.77,307,3.07,307,4.61,306.98S7.7,306.91,9.22,306.74S12.39,306.31,13.83,305.94S17.13,304.95,18.44,304.41S21.88,302.79,23.05,302.13S26.62,299.93,27.66,299.21S31.33,296.51,32.27,295.76S36.01,292.64,36.88,291.88S40.67,288.46,41.49,287.69S45.31,284.05,46.1,283.28S49.94,279.49,50.71,278.72S54.56,274.83,55.32,274.07S59.18,270.13,59.93,269.36S63.79,265.42,64.54,264.65S68.39,260.72,69.15,259.96S72.99,256.07,73.76,255.3S77.59,251.47,78.37,250.7S82.19,246.93,82.98,246.16S86.79,242.47,87.59,241.7S91.38,238.09,92.2,237.33S95.98,233.8,96.81,233.04S100.57,229.6,101.42,228.83S105.17,225.49,106.03,224.72S109.76,221.46,110.64,220.7S114.35,217.53,115.25,216.78S118.94,213.69,119.86,212.94S123.54,209.94,124.47,209.19S128.13,206.28,129.08,205.53S132.72,202.7,133.69,201.96S137.31,199.21,138.3,198.47S141.91,195.79,142.91,195.06S146.5,192.46,147.52,191.73S151.1,189.21,152.13,188.48S155.69,186.03,156.74,185.31S160.28,182.92,161.35,182.21S164.88,179.88,165.96,179.18S169.47,176.91,170.57,176.22S174.07,174.01,175.18,173.33S178.67,171.18,179.79,170.5S183.26,168.4,184.4,167.73S187.86,165.69,189.01,165.02S192.46,163.04,193.62,162.38S197.06,160.44,198.23,159.79S201.65,157.9,202.84,157.25S206.25,155.41,207.45,154.77S210.85,152.97,212.06,152.34S215.45,150.59,216.67,149.97S220.05,148.25,221.28,147.64S224.65,145.96,225.89,145.35S229.25,143.71,230.5,143.11S233.85,141.51,235.11,140.92S238.45,139.36,239.72,138.77S243.05,137.24,244.33,136.66S247.66,135.17,248.94,134.6S252.26,133.13,253.55,132.57S256.86,131.13,258.16,130.58S261.46,129.17,262.77,128.62S266.07,127.25,267.38,126.7S270.67,125.36,271.99,124.82S275.27,123.5,276.6,122.97S279.88,121.68,281.21,121.16S284.48,119.89,285.82,119.37S289.08,118.13,290.43,117.62S293.69,116.4,295.04,115.9S298.29,114.7,299.65,114.2S302.9,113.02,304.26,112.54S307.5,111.38,308.87,110.9S312.11,109.76,313.48,109.29S316.71,108.17,318.09,107.71S321.32,106.61,322.7,106.15S325.92,105.07,327.31,104.61S330.53,103.56,331.92,103.11S335.14,102.07,336.53,101.62S339.74,100.6,341.14,100.16S344.35,99.16,345.75,98.72S348.95,97.73,350.36,97.3S353.56,96.33,354.97,95.91S358.17,94.95,359.58,94.53S362.77,93.59,364.19,93.18S367.38,92.25,368.8,91.84S371.99,90.93,373.41,90.53S376.59,89.63,378.02,89.23S381.2,88.35,382.63,87.96S385.81,87.09,387.24,86.7S390.42,85.84,391.85,85.46S395.02,84.61,396.46,84.23S399.63,83.4,401.07,83.03S404.24,82.2,405.68,81.84S408.85,81.03,410.29,80.66S413.45,79.86,414.9,79.5S418.06,78.72,419.51,78.36S422.67,77.58,424.12,77.23S427.28,76.47,428.73,76.12S431.88,75.36,433.34,75.02S436.49,74.28,437.95,73.94S441.1,73.2,442.56,72.86S445.71,72.14,447.17,71.81S450.32,71.09,451.78,70.76S454.93,70.06,456.39,69.73S460.27,68.88,461,68.72" style="fill: none; stroke: #59d454; stroke-width: 1;"></path>
      </g>
      <g>
       <path d="M0,307C0.77,307,3.07,307,4.61,307S7.68,307,9.22,307S12.29,306.99,13.83,306.97S16.9,306.94,18.44,306.9S21.52,306.81,23.05,306.73S26.14,306.55,27.66,306.41S30.76,306.11,32.27,305.9S35.4,305.43,36.88,305.14S40.05,304.47,41.49,304.08S44.72,303.17,46.1,302.7S49.41,301.5,50.71,300.95S54.1,299.43,55.32,298.81S58.8,296.94,59.93,296.26S63.49,294.03,64.54,293.32S68.19,290.7,69.15,289.96S72.87,286.96,73.76,286.2S77.55,282.82,78.37,282.05S82.23,278.3,82.98,277.53S86.89,273.43,87.59,272.66S91.55,268.22,92.2,267.46S96.2,262.7,96.81,261.95S100.84,256.9,101.42,256.16S105.48,250.85,106.03,250.11S110.11,244.57,110.64,243.84S114.74,238.09,115.25,237.37S119.37,231.43,119.86,230.72S123.99,224.63,124.47,223.92S128.61,217.7,129.08,216.99S133.23,210.67,133.69,209.97S137.85,203.56,138.3,202.86S142.46,196.39,142.91,195.69S147.07,189.18,147.52,188.49S151.69,181.96,152.13,181.26S156.3,174.72,156.74,174.02S160.9,167.5,161.35,166.8S165.51,160.3,165.96,159.6S170.12,153.14,170.57,152.44S174.72,146.03,175.18,145.32S179.33,138.97,179.79,138.27S183.93,131.99,184.4,131.28S188.53,125.08,189.01,124.37S193.13,118.26,193.62,117.55S197.73,111.53,198.23,110.81S202.33,104.9,202.84,104.18S206.93,98.37,207.45,97.64S211.53,91.94,212.06,91.21S216.13,85.63,216.67,84.9S220.73,79.43,221.28,78.69S225.32,73.34,225.89,72.6S229.92,67.37,230.5,66.62S234.51,61.52,235.11,60.77S239.11,55.78,239.72,55.03S243.7,50.17,244.33,49.41S248.3,44.67,248.94,43.92S252.89,39.3,253.55,38.54S257.48,34.05,258.16,33.28S262.08,28.91,262.77,28.14S266.67,23.89,267.38,23.12S271.26,18.99,271.99,18.22S275.85,14.2,276.6,13.43S280.44,9.53,281.21,8.76S285.03,4.97,285.82,4.2S289.62,0.52,290.43,-0.24S294.22,-3.82,295.04,-4.58S298.81,-8.05,299.65,-8.81S303.4,-12.17,304.26,-12.93S307.99,-16.19,308.87,-16.95S312.58,-20.11,313.48,-20.87S317.17,-23.94,318.09,-24.69S321.76,-27.66,322.7,-28.41S326.35,-31.28,327.31,-32.03S330.94,-34.82,331.92,-35.56S335.53,-38.26,336.53,-38.99S340.12,-41.61,341.14,-42.34S344.72,-44.88,345.75,-45.6S349.31,-48.06,350.36,-48.77S353.9,-51.15,354.97,-51.86S358.49,-54.17,359.58,-54.87S363.09,-57.11,364.19,-57.8S367.68,-59.96,368.8,-60.65S372.27,-62.75,373.41,-63.42S376.87,-65.46,378.02,-66.12S381.46,-68.1,382.63,-68.75S386.06,-70.66,387.24,-71.31S390.65,-73.16,391.85,-73.8S395.25,-75.6,396.46,-76.23S399.85,-77.97,401.07,-78.59S404.44,-80.27,405.68,-80.88S409.04,-82.52,410.29,-83.12S413.64,-84.71,414.9,-85.29S418.24,-86.83,419.51,-87.41S422.83,-88.91,424.12,-89.47S427.43,-90.92,428.73,-91.48S432.03,-92.89,433.34,-93.44S436.63,-94.8,437.95,-95.34S441.23,-96.66,442.56,-97.19S445.83,-98.47,447.17,-98.99S450.43,-100.24,451.78,-100.75S455.03,-101.96,456.39,-102.45S460.32,-103.87,461,-104.12" style="fill: none; stroke: blue; stroke-width: 1;"></path>
      </g>
     </svg>
     <g>
      <g transform="translate(0,307)">
       <path d="M0,0h461M0,-12V0M12,-6V0M23,-6V0M35,-6V0M46,-12V0M58,-6V0M69,-6V0M81,-6V0M92,-12V0M104,-6V0M115,-6V0M127,-6V0M138,-12V0M150,-6V0M161,-6V0M173,-6V0M184,-12V0M196,-6V0M207,-6V0M219,-6V0M231,-12V0M242,-6V0M254,-6V0M265,-6V0M277,-12V0M288,-6V0M300,-6V0M311,-6V0M323,-12V0M334,-6V0M346,-6V0M357,-6V0M369,-12V0M380,-6V0M392,-6V0M403,-6V0M415,-12V0M426,-6V0M438,-6V0M449,-6V0M461,-12V0" style="stroke: black; stroke-width: 1;"></path>
       <g font-family="Arial" font-size="13" space="preserve" fill="black" text-anchor="middle">
        <text dy=".8em" transform="translate(0,4)">
         0
        </text>
        <text dy=".8em" transform="translate(46,4)">
         0.2
        </text>
        <text dy=".8em" transform="translate(92,4)">
         0.4
        </text>
        <text dy=".8em" transform="translate(138,4)">
         0.6
        </text>
        <text dy=".8em" transform="translate(184,4)">
         0.8
        </text>
        <text dy=".8em" transform="translate(231,4)">
         1
        </text>
        <text dy=".8em" transform="translate(277,4)">
         1.2
        </text>
        <text dy=".8em" transform="translate(323,4)">
         1.4
        </text>
        <text dy=".8em" transform="translate(369,4)">
         1.6
        </text>
        <text dy=".8em" transform="translate(415,4)">
         1.8
        </text>
        <text dy=".8em" transform="translate(461,4)">
         2
        </text>
       </g>
      </g>
      <g>
       <path d="M0,0v307M17,307H0M9,297H0M9,288H0M9,278H0M9,269H0M17,259H0M9,249H0M9,240H0M9,230H0M9,220H0M17,211H0M9,201H0M9,192H0M9,182H0M9,172H0M17,163H0M9,153H0M9,144H0M9,134H0M9,124H0M17,115H0M9,105H0M9,95H0M9,86H0M9,76H0M17,67H0M9,57H0M9,47H0M9,38H0M9,28H0M17,19H0M9,9H0" style="stroke: black; stroke-width: 1;"></path>
       <g font-family="Arial" font-size="13" space="preserve" fill="black" text-anchor="end">
        <text dy=".4em" transform="translate(-2,307)">
         0
        </text>
        <text dy=".4em" transform="translate(-2,259)">
         0.1
        </text>
        <text dy=".4em" transform="translate(-2,211)">
         0.2
        </text>
        <text dy=".4em" transform="translate(-2,163)">
         0.3
        </text>
        <text dy=".4em" transform="translate(-2,115)">
         0.4
        </text>
        <text dy=".4em" transform="translate(-2,67)">
         0.5
        </text>
        <text dy=".4em" transform="translate(-2,19)">
         0.6
        </text>
       </g>
      </g>
     </g>
    </g>
    <g transform="translate(58,2)" font-family="Arial" font-size="19" space="preserve">
     <text fill="black" text-anchor="middle" dy=".8em" transform="translate(231)">
      Cumulative dist. function for F
     </text>
    </g>
    <g transform="translate(403,192)" font-family="Arial" font-size="14" space="preserve">
     <path d="M0,0H109V77H0Z" style="fill: white; stroke: black; stroke-width: 1;"></path>
     <path d="M3,11H24" style="stroke: black; stroke-width: 1;"></path>
     <text fill="black" text-anchor="start" dy=".4em" transform="translate(27,11)">
      N=1 M=1
     </text>
     <path d="M3,29H24" style="stroke: red; stroke-width: 1;"></path>
     <text fill="black" text-anchor="start" dy=".4em" transform="translate(27,29)">
      N=1 M=10
     </text>
     <path d="M3,48H24" style="stroke: #59d454; stroke-width: 1;"></path>
     <text fill="black" text-anchor="start" dy=".4em" transform="translate(27,48)">
      N=10 M=1
     </text>
     <path d="M3,66H24" style="stroke: blue; stroke-width: 1;"></path>
     <text fill="black" text-anchor="start" dy=".4em" transform="translate(27,66)">
      N=10 M=10
     </text>
    </g>
   </g>
  </svg>
 </g>
</svg>