<svg viewBox="0 0 1200 800" preserveAspectRatio="none" xmlns="http://www.w3.org/2000/svg" width="1200" height="800"><title>ROOT canvas</title><rect x="0" y="0" width="1200" height="800" style="fill: white;"></rect><g><g transform="translate(120,80)"><title></title><rect x="0" y="0" width="960" height="640" style="fill: white; stroke: black; stroke-width: 1;"></rect><svg x="0" y="0" overflow="hidden" width="960" height="640" viewBox="0 0 960 640"><g objname="f3" objtype="TF1"><path d="M0.00,27.41c1.14,0.73,7.33,4.67,9.60,6.13s7.33,4.67,9.60,6.13s7.33,4.67,9.60,6.13s7.33,4.67,9.60,6.13s7.33,4.67,9.60,6.13s7.33,4.67,9.60,6.13s7.33,4.67,9.60,6.13s7.33,4.67,9.60,6.13s7.33,4.67,9.60,6.13s7.33,4.67,9.60,6.13s7.33,4.67,9.60,6.13s7.33,4.67,9.60,6.13s7.33,4.67,9.60,6.13s7.33,4.67,9.60,6.13s7.33,4.67,9.60,6.13s7.33,4.67,9.60,6.12s7.32,4.67,9.60,6.12s7.32,4.67,9.60,6.12s7.32,4.66,9.60,6.11s7.31,4.65,9.60,6.09s7.30,4.61,9.60,6.05s7.28,4.55,9.60,5.98s7.24,4.43,9.60,5.84s7.17,4.23,9.60,5.60s7.05,3.89,9.60,5.18s6.88,3.38,9.60,4.52s6.65,2.66,9.60,3.52s6.40,2.00,9.60,2.07s6.40,0.17,9.60,0.10s6.85,-1.29,9.60,-2.40s7.51,-3.85,9.60,-5.37s8.09,-7.00,9.60,-8.60s8.48,-10.22,9.60,-11.75s8.68,-12.91,9.60,-14.35s8.74,-14.47,9.60,-15.89s8.66,-14.40,9.60,-15.86s8.35,-12.37,9.60,-13.93s7.55,-8.48,9.60,-10.02s6.43,-4.05,9.60,-4.36s7.33,1.04,9.60,2.49s8.49,8.24,9.60,9.76s8.97,15.35,9.60,16.62s9.17,21.17,9.60,22.27s9.24,25.17,9.60,26.18s9.27,27.13,9.60,28.11s9.25,27.14,9.60,28.14s9.20,25.54,9.60,26.61s9.10,22.84,9.60,24.00s8.96,19.57,9.60,20.85s8.76,16.22,9.60,17.62s8.52,13.14,9.60,14.66s8.24,10.57,9.60,12.15s7.98,8.59,9.60,10.18s7.76,7.16,9.60,8.74s7.59,6.18,9.60,7.73s7.48,5.56,9.60,7.07s7.41,5.17,9.60,6.66s7.37,4.94,9.60,6.41s7.35,4.81,9.60,6.27s7.34,4.74,9.60,6.20s7.33,4.71,9.60,6.16s7.33,4.69,9.60,6.14s7.33,4.68,9.60,6.13s7.33,4.68,9.60,6.13s7.33,4.68,9.60,6.13s7.33,4.68,9.60,6.13s7.33,4.67,9.60,6.13s7.33,4.67,9.60,6.13s7.33,4.67,9.60,6.13s7.33,4.67,9.60,6.13s7.33,4.67,9.60,6.13s7.33,4.67,9.60,6.13s7.33,4.67,9.60,6.13s7.33,4.67,9.60,6.13s7.33,4.67,9.60,6.13s7.33,4.67,9.60,6.13s7.33,4.67,9.60,6.13s7.33,4.67,9.60,6.13s7.33,4.67,9.60,6.13s7.33,4.67,9.60,6.13s7.33,4.67,9.60,6.13s7.33,4.67,9.60,6.13s7.33,4.67,9.60,6.13s7.33,4.67,9.60,6.13s7.33,4.67,9.60,6.13s7.33,4.67,9.60,6.13s7.33,4.67,9.60,6.13s7.33,4.67,9.60,6.13s7.33,4.67,9.60,6.13s7.33,4.67,9.60,6.13s7.33,4.67,9.60,6.13s7.33,4.67,9.60,6.13s7.33,4.67,9.60,6.13s7.33,4.67,9.60,6.13s7.33,4.67,9.60,6.13s7.33,4.67,9.60,6.13s7.33,4.67,9.60,6.13s7.33,4.67,9.60,6.13s7.33,4.67,9.60,6.13s8.46,5.40,9.60,6.13" style="fill: none; stroke: red; stroke-width: 2;"></path></g></svg><g><g transform="translate(0,640)"><path d="M0,-24v24m48,-12v12m48,-12v12m48,-12v12m48,-24v24m48,-12v12m48,-12v12m48,-12v12m48,-24v24m48,-12v12m48,-12v12m48,-12v12m48,-24v24m48,-12v12m48,-12v12m48,-12v12m48,-24v24m48,-12v12m48,-12v12m48,-12v12m48,-24v24" style="stroke: black; stroke-width: 1;"></path><g font-family="Arial" font-size="28" space="preserve"><text fill="black" text-anchor="middle" dy=".8em" transform="translate(0,6)">0</text><text fill="black" text-anchor="middle" dy=".8em" transform="translate(192,6)">2</text><text fill="black" text-anchor="middle" dy=".8em" transform="translate(384,6)">4</text><text fill="black" text-anchor="middle" dy=".8em" transform="translate(576,6)">6</text><text fill="black" text-anchor="middle" dy=".8em" transform="translate(768,6)">8</text><text fill="black" text-anchor="middle" dy=".8em" transform="translate(960,6)">10</text></g></g><g><path d="M36,640h-36m18,-31h-18m18,-30h-18m18,-31h-18m36,-31h-36m18,-30h-18m18,-31h-18m18,-30h-18m36,-31h-36m18,-31h-18m18,-30h-18m18,-31h-18m36,-31h-36m18,-30h-18m18,-31h-18m18,-30h-18m36,-31h-36m18,-31h-18m18,-30h-18m18,-31h-18m36,-31h-36" style="stroke: black; stroke-width: 1;"></path><g font-family="Arial" font-size="28" space="preserve"><text fill="black" text-anchor="end" dy=".4em" transform="translate(-4,640)">0</text><text fill="black" text-anchor="end" dy=".4em" transform="translate(-4,517)">2</text><text fill="black" text-anchor="end" dy=".4em" transform="translate(-4,395)">4</text><text fill="black" text-anchor="end" dy=".4em" transform="translate(-4,272)">6</text><text fill="black" text-anchor="end" dy=".4em" transform="translate(-4,150)">8</text><text fill="black" text-anchor="end" dy=".4em" transform="translate(-4,27)">10</text></g></g></g></g><g objname="title" objtype="TPaveText" transform="translate(540,4)" font-family="Arial" font-size="36" space="preserve"><path d="M0,0h120v44h-120z" style="fill: none;"></path><text fill="black" text-anchor="middle" dy=".4em" transform="translate(60,22)">f1+f2</text></g></g></svg>