<svg xmlns="http://www.w3.org/2000/svg" viewBox="0 0 798 675" preserveAspectRatio="none" width="798" height="675">
 <path d="M0,0H798V675H0Z" style="fill: white;"></path>
 <g>
  <svg viewBox="0 0 383 324" preserveAspectRatio="none" x="8" y="7" width="383" height="324">
   <path d="M0,0H383V324H0Z" style="fill: white;"></path>
   <g>
    <g transform="translate(38,32)">
     <path d="M0,0H306V259H0Z" style="fill: white; stroke: black; stroke-width: 1;"></path>
     <svg x="0" y="0" overflow="hidden" width="306" height="259" viewBox="0 0 306 259">
      <g>
       <path d="M2,256L5,256L8,256L11,255L14,255L17,255L20,254L23,254L26,254L30,253L33,253L36,252L39,251L42,251L45,250L48,249L51,248L54,247L57,246L60,244L63,243L66,241L69,239L72,237L75,234L79,232L82,228L85,225L88,221L91,216L94,211L97,205L100,198L103,191L106,183L109,174L112,163L115,152L118,140L121,127L124,113L127,98L131,84L134,69L137,55L140,42L143,31L146,22L149,15L152,12L155,12L158,15L161,22L164,31L167,42L170,55L173,69L176,84L179,98L183,113L186,127L189,140L192,152L195,163L198,174L201,183L204,191L207,198L210,205L213,211L216,216L219,221L222,225L225,228L228,232L232,234L235,237L238,239L241,241L244,243L247,244L250,246L253,247L256,248L259,249L262,250L265,251L268,251L271,252L274,253L277,253L280,254L284,254L287,254L290,255L293,255L296,255L299,256L302,256L305,256" style="fill: none; stroke: red; stroke-width: 2;"></path>
      </g>
     </svg>
     <g>
      <g transform="translate(0,259)">
       <path d="M0,0h306M0,-10V0M6,-5V0M12,-5V0M18,-5V0M24,-5V0M31,-10V0M37,-5V0M43,-5V0M49,-5V0M55,-5V0M61,-10V0M67,-5V0M73,-5V0M80,-5V0M86,-5V0M92,-10V0M98,-5V0M104,-5V0M110,-5V0M116,-5V0M122,-10V0M129,-5V0M135,-5V0M141,-5V0M147,-5V0M153,-10V0M159,-5V0M165,-5V0M171,-5V0M177,-5V0M184,-10V0M190,-5V0M196,-5V0M202,-5V0M208,-5V0M214,-10V0M220,-5V0M226,-5V0M233,-5V0M239,-5V0M245,-10V0M251,-5V0M257,-5V0M263,-5V0M269,-5V0M275,-10V0M282,-5V0M288,-5V0M294,-5V0M300,-5V0M306,-10V0" style="stroke: black; stroke-width: 1;"></path>
       <g font-family="Arial" font-size="11" space="preserve" fill="black" text-anchor="middle">
        <text dy=".8em" transform="translate(0,1)">
         -5
        </text>
        <text dy=".8em" transform="translate(31,1)">
         -4
        </text>
        <text dy=".8em" transform="translate(61,1)">
         -3
        </text>
        <text dy=".8em" transform="translate(92,1)">
         -2
        </text>
        <text dy=".8em" transform="translate(122,1)">
         -1
        </text>
        <text dy=".8em" transform="translate(153,1)">
         0
        </text>
        <text dy=".8em" transform="translate(184,1)">
         1
        </text>
        <text dy=".8em" transform="translate(214,1)">
         2
        </text>
        <text dy=".8em" transform="translate(245,1)">
         3
        </text>
        <text dy=".8em" transform="translate(275,1)">
         4
        </text>
        <text dy=".8em" transform="translate(306,1)">
         5
        </text>
       </g>
      </g>
      <g>
       <path d="M0,0v259M11,259H0M6,252H0M6,246H0M6,239H0M6,232H0M11,225H0M6,219H0M6,212H0M6,205H0M6,198H0M11,192H0M6,185H0M6,178H0M6,172H0M6,165H0M11,158H0M6,151H0M6,145H0M6,138H0M6,131H0M11,124H0M6,118H0M6,111H0M6,104H0M6,98H0M11,91H0M6,84H0M6,77H0M6,71H0M6,64H0M11,57H0M6,50H0M6,44H0M6,37H0M6,30H0M11,24H0M6,17H0M6,10H0M6,3H0" style="stroke: black; stroke-width: 1;"></path>
       <g font-family="Arial" font-size="11" space="preserve" fill="black" text-anchor="end">
        <text dy=".4em" transform="translate(-2,259)">
         0
        </text>
        <text dy=".4em" transform="translate(-2,225)">
         0.05
        </text>
        <text dy=".4em" transform="translate(-2,192)">
         0.10
        </text>
        <text dy=".4em" transform="translate(-2,158)">
         0.15
        </text>
        <text dy=".4em" transform="translate(-2,124)">
         0.20
        </text>
        <text dy=".4em" transform="translate(-2,91)">
         0.25
        </text>
        <text dy=".4em" transform="translate(-2,57)">
         0.30
        </text>
        <text dy=".4em" transform="translate(-2,24)">
         0.35
        </text>
       </g>
      </g>
     </g>
    </g>
    <g transform="translate(38,2)" font-family="Arial" font-size="16" space="preserve">
     <text fill="black" text-anchor="middle" dy=".8em" transform="translate(153)">
      Student t distribution function
     </text>
    </g>
   </g>
  </svg>
  <svg viewBox="0 0 383 324" preserveAspectRatio="none" x="407" y="7" width="383" height="324">
   <path d="M0,0H383V324H0Z" style="fill: white;"></path>
   <g>
    <g transform="translate(38,32)">
     <path d="M0,0H306V259H0Z" style="fill: white; stroke: black; stroke-width: 1;"></path>
     <svg x="0" y="0" overflow="hidden" width="306" height="259" viewBox="0 0 306 259">
      <g>
       <path d="M2,257L5,257L8,257L11,257L14,257L17,256L20,256L23,256L26,256L30,256L33,255L36,255L39,255L42,255L45,254L48,254L51,254L54,253L57,253L60,252L63,252L66,251L69,250L72,249L75,249L79,248L82,247L85,245L88,244L91,242L94,241L97,239L100,237L103,234L106,232L109,229L112,225L115,222L118,218L121,213L124,208L127,202L131,196L134,189L137,182L140,174L143,166L146,157L149,148L152,139L155,130L158,121L161,112L164,103L167,95L170,87L173,80L176,73L179,67L183,62L186,56L189,52L192,48L195,44L198,40L201,37L204,35L207,32L210,30L213,28L216,27L219,25L222,24L225,23L228,22L232,21L235,20L238,19L241,18L244,18L247,17L250,17L253,16L256,16L259,15L262,15L265,15L268,14L271,14L274,14L277,14L280,13L284,13L287,13L290,13L293,13L296,13L299,12L302,12L305,12" style="fill: none; stroke: #ff0000; stroke-width: 2;"></path>
      </g>
     </svg>
     <g>
      <g transform="translate(0,259)">
       <path d="M0,0h306M0,-10V0M6,-5V0M12,-5V0M18,-5V0M24,-5V0M31,-10V0M37,-5V0M43,-5V0M49,-5V0M55,-5V0M61,-10V0M67,-5V0M73,-5V0M80,-5V0M86,-5V0M92,-10V0M98,-5V0M104,-5V0M110,-5V0M116,-5V0M122,-10V0M129,-5V0M135,-5V0M141,-5V0M147,-5V0M153,-10V0M159,-5V0M165,-5V0M171,-5V0M177,-5V0M184,-10V0M190,-5V0M196,-5V0M202,-5V0M208,-5V0M214,-10V0M220,-5V0M226,-5V0M233,-5V0M239,-5V0M245,-10V0M251,-5V0M257,-5V0M263,-5V0M269,-5V0M275,-10V0M282,-5V0M288,-5V0M294,-5V0M300,-5V0M306,-10V0" style="stroke: black; stroke-width: 1;"></path>
       <g font-family="Arial" font-size="11" space="preserve" fill="black" text-anchor="middle">
        <text dy=".8em" transform="translate(0,1)">
         -5
        </text>
        <text dy=".8em" transform="translate(31,1)">
         -4
        </text>
        <text dy=".8em" transform="translate(61,1)">
         -3
        </text>
        <text dy=".8em" transform="translate(92,1)">
         -2
        </text>
        <text dy=".8em" transform="translate(122,1)">
         -1
        </text>
        <text dy=".8em" transform="translate(153,1)">
         0
        </text>
        <text dy=".8em" transform="translate(184,1)">
         1
        </text>
        <text dy=".8em" transform="translate(214,1)">
         2
        </text>
        <text dy=".8em" transform="translate(245,1)">
         3
        </text>
        <text dy=".8em" transform="translate(275,1)">
         4
        </text>
        <text dy=".8em" transform="translate(306,1)">
         5
        </text>
       </g>
      </g>
      <g>
       <path d="M0,0v259M11,259H0M6,254H0M6,249H0M6,244H0M6,239H0M11,234H0M6,229H0M6,224H0M6,219H0M6,214H0M11,209H0M6,204H0M6,199H0M6,194H0M6,189H0M11,184H0M6,179H0M6,174H0M6,169H0M6,164H0M11,160H0M6,155H0M6,150H0M6,145H0M6,140H0M11,135H0M6,130H0M6,125H0M6,120H0M6,115H0M11,110H0M6,105H0M6,100H0M6,95H0M6,90H0M11,85H0M6,80H0M6,75H0M6,70H0M6,65H0M11,60H0M6,55H0M6,50H0M6,45H0M6,40H0M11,35H0M6,30H0M6,25H0M6,20H0M6,15H0M11,10H0M6,5H0M6,0H0" style="stroke: black; stroke-width: 1;"></path>
       <g font-family="Arial" font-size="11" space="preserve" fill="black" text-anchor="end">
        <text dy=".4em" transform="translate(-2,259)">
         0
        </text>
        <text dy=".4em" transform="translate(-2,234)">
         0.1
        </text>
        <text dy=".4em" transform="translate(-2,209)">
         0.2
        </text>
        <text dy=".4em" transform="translate(-2,184)">
         0.3
        </text>
        <text dy=".4em" transform="translate(-2,160)">
         0.4
        </text>
        <text dy=".4em" transform="translate(-2,135)">
         0.5
        </text>
        <text dy=".4em" transform="translate(-2,110)">
         0.6
        </text>
        <text dy=".4em" transform="translate(-2,85)">
         0.7
        </text>
        <text dy=".4em" transform="translate(-2,60)">
         0.8
        </text>
        <text dy=".4em" transform="translate(-2,35)">
         0.9
        </text>
        <text dy=".4em" transform="translate(-2,10)">
         1
        </text>
       </g>
      </g>
     </g>
    </g>
    <g transform="translate(38,2)" font-family="Arial" font-size="16" space="preserve">
     <text fill="black" text-anchor="middle" dy=".8em" transform="translate(153)">
      Cumulative for Student t
     </text>
    </g>
   </g>
  </svg>
  <svg viewBox="0 0 383 324" preserveAspectRatio="none" x="8" y="344" width="383" height="324">
   <path d="M0,0H383V324H0Z" style="fill: white;"></path>
   <g>
    <g transform="translate(38,32)">
     <path d="M0,0H306V259H0Z" style="fill: white; stroke: black; stroke-width: 1;"></path>
     <svg x="0" y="0" overflow="hidden" width="306" height="259" viewBox="0 0 306 259">
      <g>
       <path d="M0,188h34M17,129v118M34,165h34M51,129v71M68,151h34M85,129v43M102,139h34M119,129v20M170,120h34M187,110v19M204,108h34M221,87v42M238,94h34M255,59v70M272,71h34M289,12v117" style="stroke: #0000ff; stroke-width: 2;"></path>
      </g>
     </svg>
     <g>
      <g transform="translate(0,259)">
       <path d="M0,0h306M0,-10V0M7,-5V0M14,-5V0M20,-5V0M27,-5V0M34,-10V0M41,-5V0M48,-5V0M54,-5V0M61,-5V0M68,-10V0M75,-5V0M82,-5V0M88,-5V0M95,-5V0M102,-10V0M109,-5V0M116,-5V0M122,-5V0M129,-5V0M136,-10V0M143,-5V0M150,-5V0M156,-5V0M163,-5V0M170,-10V0M177,-5V0M184,-5V0M190,-5V0M197,-5V0M204,-10V0M211,-5V0M218,-5V0M224,-5V0M231,-5V0M238,-10V0M245,-5V0M252,-5V0M258,-5V0M265,-5V0M272,-10V0M279,-5V0M286,-5V0M292,-5V0M299,-5V0M306,-10V0" style="stroke: black; stroke-width: 1;"></path>
       <g font-family="Arial" font-size="11" space="preserve" fill="black" text-anchor="middle">
        <text dy=".8em" transform="translate(0,1)">
         0
        </text>
        <text dy=".8em" transform="translate(34,1)">
         0.1
        </text>
        <text dy=".8em" transform="translate(68,1)">
         0.2
        </text>
        <text dy=".8em" transform="translate(102,1)">
         0.3
        </text>
        <text dy=".8em" transform="translate(136,1)">
         0.4
        </text>
        <text dy=".8em" transform="translate(170,1)">
         0.5
        </text>
        <text dy=".8em" transform="translate(204,1)">
         0.6
        </text>
        <text dy=".8em" transform="translate(238,1)">
         0.7
        </text>
        <text dy=".8em" transform="translate(272,1)">
         0.8
        </text>
        <text dy=".8em" transform="translate(306,1)">
         0.9
        </text>
       </g>
      </g>
      <g>
       <path d="M0,0v259M6,259H0M6,252H0M6,245H0M11,237H0M6,230H0M6,223H0M6,216H0M6,209H0M11,201H0M6,194H0M6,187H0M6,180H0M6,173H0M11,165H0M6,158H0M6,151H0M6,144H0M6,137H0M11,129H0M6,122H0M6,115H0M6,108H0M6,101H0M11,94H0M6,86H0M6,79H0M6,72H0M6,65H0M11,58H0M6,50H0M6,43H0M6,36H0M6,29H0M11,22H0M6,14H0M6,7H0M6,0H0" style="stroke: black; stroke-width: 1;"></path>
       <g font-family="Arial" font-size="11" space="preserve" fill="black" text-anchor="end">
        <text dy=".4em" transform="translate(-2,237)">
         -3
        </text>
        <text dy=".4em" transform="translate(-2,201)">
         -2
        </text>
        <text dy=".4em" transform="translate(-2,165)">
         -1
        </text>
        <text dy=".4em" transform="translate(-2,129)">
         0
        </text>
        <text dy=".4em" transform="translate(-2,94)">
         1
        </text>
        <text dy=".4em" transform="translate(-2,58)">
         2
        </text>
        <text dy=".4em" transform="translate(-2,22)">
         3
        </text>
       </g>
      </g>
     </g>
    </g>
    <g transform="translate(38,2)" font-family="Arial" font-size="16" space="preserve">
     <text fill="black" text-anchor="middle" dy=".8em" transform="translate(153)">
      10-quantiles  for Student t
     </text>
    </g>
   </g>
  </svg>
  <svg viewBox="0 0 383 324" preserveAspectRatio="none" x="407" y="344" width="383" height="324">
   <path d="M0,0H383V324H0Z" style="fill: white;"></path>
   <g>
    <g transform="translate(38,32)">
     <path d="M0,0H306V259H0Z" style="fill: white; stroke: black; stroke-width: 1;"></path>
     <svg x="0" y="0" overflow="hidden" width="306" height="259" viewBox="0 0 306 259">
      <g>
       <path d="M2,256L5,256L8,256L11,255L14,255L17,255L20,254L23,254L26,254L30,253L33,253L36,252L39,251L42,251L45,250L48,249L51,248L54,247L57,246L60,244L63,243L66,241L69,239L72,237L75,234L79,232L82,228L85,225L88,221L91,216L94,211L97,205L100,198L103,191L106,183L109,174L112,163L115,152L118,140L121,127L124,113L127,98L131,84L134,69L137,55L140,42L143,31L146,22L149,15L152,12L155,12L158,15L161,22L164,31L167,42L170,55L173,69L176,84L179,98L183,113L186,127L189,140L192,152L195,163L198,174L201,183L204,191L207,198L210,205L213,211L216,216L219,221L222,225L225,228L228,232L232,234L235,237L238,239L241,241L244,243L247,244L250,246L253,247L256,248L259,249L262,250L265,251L268,251L271,252L274,253L277,253L280,254L284,254L287,254L290,255L293,255L296,255L299,256L302,256L305,256" style="fill: none; stroke: red; stroke-width: 2;"></path>
      </g>
      <g>
       <path d="M103,188h1v-3h1v-2h1v-3h1v-3v-3h1v-3h1v-3h1v-3h1v-3h1v-3h1v-4h1v-3h1v-4h1v-3h1v-4h1v-4v-4h1v-4h1v-4h1v-4h1v138h1L123,262H103Z" style="stroke-linejoin: miter; stroke: #00009a; stroke-width: 1; fill: red;"></path>
      </g>
      <g>
       <path d="M123,113h1v-4h1v-4h1v-4h1v-4v-5h1v-4h1v-4h1v-4h1v-4h1v-4h1v-4v-4h1v195h1L135,262H123Z" style="stroke-linejoin: miter; stroke: #00009a; stroke-width: 1; fill: green;"></path>
      </g>
      <g>
       <path d="M135,56h1v-4h1v-4h1v-3h1v-4v-3h1v-3h1v-3h1v-3h1v-3h1v233h1L145,262H135Z" style="stroke-linejoin: miter; stroke: #00009a; stroke-width: 1; fill: blue;"></path>
      </g>
      <g>
       <path d="M145,22v-2h1v-2h1v-2h1v-1h1v-1h1v-1v-1h2v247h1L153,262H145Z" style="stroke-linejoin: miter; stroke: #00009a; stroke-width: 1; fill: yellow;"></path>
      </g>
      <g>
       <path d="M153,12h2v1h1v1v1h1v1h1v2h1v2h1v2h1v237L161,262H153Z" style="stroke-linejoin: miter; stroke: #00009a; stroke-width: 1; fill: magenta;"></path>
      </g>
      <g>
       <path d="M161,26h1v3h1v3h1v3h1v3h1v3h1v4v3h1v4h1v4h1v203h1L171,262H161Z" style="stroke-linejoin: miter; stroke: #00009a; stroke-width: 1; fill: cyan;"></path>
      </g>
      <g>
       <path d="M171,64h1v4h1v4v4h1v4h1v4h1v4h1v4h1v5h1v4v4h1v4h1v4h1v146h1L183,262H171Z" style="stroke-linejoin: miter; stroke: #00009a; stroke-width: 1; fill: #59d454;"></path>
      </g>
      <g>
       <path d="M183,121h1v4h1v4h1v4v4h1v3h1v4h1v3h1v4h1v3h1v4h1v3h1v3v3h1v3h1v3h1v3h1v83h1L199,262H183Z" style="stroke-linejoin: miter; stroke: #00009a; stroke-width: 1; fill: #5954d9;"></path>
      </g>
     </svg>
     <g>
      <g transform="translate(0,259)">
       <path d="M0,0h306M0,-10V0M6,-5V0M12,-5V0M18,-5V0M24,-5V0M31,-10V0M37,-5V0M43,-5V0M49,-5V0M55,-5V0M61,-10V0M67,-5V0M73,-5V0M80,-5V0M86,-5V0M92,-10V0M98,-5V0M104,-5V0M110,-5V0M116,-5V0M122,-10V0M129,-5V0M135,-5V0M141,-5V0M147,-5V0M153,-10V0M159,-5V0M165,-5V0M171,-5V0M177,-5V0M184,-10V0M190,-5V0M196,-5V0M202,-5V0M208,-5V0M214,-10V0M220,-5V0M226,-5V0M233,-5V0M239,-5V0M245,-10V0M251,-5V0M257,-5V0M263,-5V0M269,-5V0M275,-10V0M282,-5V0M288,-5V0M294,-5V0M300,-5V0M306,-10V0" style="stroke: black; stroke-width: 1;"></path>
       <g font-family="Arial" font-size="11" space="preserve" fill="black" text-anchor="middle">
        <text dy=".8em" transform="translate(0,1)">
         -5
        </text>
        <text dy=".8em" transform="translate(31,1)">
         -4
        </text>
        <text dy=".8em" transform="translate(61,1)">
         -3
        </text>
        <text dy=".8em" transform="translate(92,1)">
         -2
        </text>
        <text dy=".8em" transform="translate(122,1)">
         -1
        </text>
        <text dy=".8em" transform="translate(153,1)">
         0
        </text>
        <text dy=".8em" transform="translate(184,1)">
         1
        </text>
        <text dy=".8em" transform="translate(214,1)">
         2
        </text>
        <text dy=".8em" transform="translate(245,1)">
         3
        </text>
        <text dy=".8em" transform="translate(275,1)">
         4
        </text>
        <text dy=".8em" transform="translate(306,1)">
         5
        </text>
       </g>
      </g>
      <g>
       <path d="M0,0v259M11,259H0M6,252H0M6,246H0M6,239H0M6,232H0M11,225H0M6,219H0M6,212H0M6,205H0M6,198H0M11,192H0M6,185H0M6,178H0M6,172H0M6,165H0M11,158H0M6,151H0M6,145H0M6,138H0M6,131H0M11,124H0M6,118H0M6,111H0M6,104H0M6,98H0M11,91H0M6,84H0M6,77H0M6,71H0M6,64H0M11,57H0M6,50H0M6,44H0M6,37H0M6,30H0M11,24H0M6,17H0M6,10H0M6,3H0" style="stroke: black; stroke-width: 1;"></path>
       <g font-family="Arial" font-size="11" space="preserve" fill="black" text-anchor="end">
        <text dy=".4em" transform="translate(-2,259)">
         0
        </text>
        <text dy=".4em" transform="translate(-2,225)">
         0.05
        </text>
        <text dy=".4em" transform="translate(-2,192)">
         0.10
        </text>
        <text dy=".4em" transform="translate(-2,158)">
         0.15
        </text>
        <text dy=".4em" transform="translate(-2,124)">
         0.20
        </text>
        <text dy=".4em" transform="translate(-2,91)">
         0.25
        </text>
        <text dy=".4em" transform="translate(-2,57)">
         0.30
        </text>
        <text dy=".4em" transform="translate(-2,24)">
         0.35
        </text>
       </g>
      </g>
     </g>
    </g>
   </g>
  </svg>
 </g>
</svg>