<svg xmlns="http://www.w3.org/2000/svg" viewBox="0 0 1200 800" preserveAspectRatio="none" width="1200" height="800">
 <path d="M0,0H1200V800H0Z" style="fill: white;"></path>
 <g>
  <svg viewBox="0 0 576 384" preserveAspectRatio="none" x="12" y="8" width="576" height="384">
   <path d="M0,0H576V384H0Z" style="fill: white;"></path>
   <g>
    <g transform="translate(58,38)">
     <path d="M0,0H461V307H0Z" style="fill: white; stroke: black; stroke-width: 1;"></path>
     <svg x="0" y="0" overflow="hidden" width="461" height="307" viewBox="0 0 461 307">
      <g>
       <path d="M0,307C0.77,306.96,3.08,306.83,4.61,306.75S7.69,306.57,9.22,306.47S12.3,306.27,13.83,306.17S16.91,305.95,18.44,305.84S21.52,305.6,23.05,305.47S26.14,305.21,27.66,305.07S30.75,304.79,32.27,304.63S35.36,304.32,36.88,304.15S39.98,303.8,41.49,303.61S44.59,303.23,46.1,303.02S49.21,302.59,50.71,302.37S53.82,301.89,55.32,301.65S58.44,301.12,59.93,300.84S63.07,300.25,64.54,299.95S67.69,299.29,69.15,298.95S72.32,298.21,73.76,297.84S76.95,297.01,78.37,296.6S81.59,295.66,82.98,295.22S86.23,294.15,87.59,293.66S90.88,292.45,92.2,291.92S95.53,290.53,96.81,289.96S100.2,288.37,101.42,287.75S104.87,285.93,106.03,285.27S109.56,283.16,110.64,282.46S114.25,280.03,115.25,279.3S118.95,276.48,119.86,275.72S123.65,272.45,124.47,271.68S128.35,267.88,129.08,267.11S133.06,262.7,133.69,261.94S137.76,256.83,138.3,256.1S142.45,250.21,142.91,249.5S147.13,242.73,147.52,242.07S151.8,234.33,152.13,233.7S156.47,224.92,156.74,224.33S161.12,214.41,161.35,213.87S165.77,202.76,165.96,202.25S170.41,189.91,170.57,189.44S175.04,175.88,175.18,175.44S179.67,160.7,179.79,160.29S184.29,144.51,184.4,144.11S188.91,127.5,189.01,127.11S193.52,109.97,193.62,109.59S198.13,92.34,198.23,91.96S202.73,75.13,202.84,74.73S207.32,58.93,207.45,58.51S211.9,44.43,212.06,43.96S216.43,32.31,216.67,31.75S220.86,23.19,221.28,22.51S224.99,17.5,225.89,16.74S228.96,14.78,230.5,14.78S234.21,15.99,235.11,16.74S239.3,21.82,239.72,22.51S244.09,31.19,244.33,31.75S248.78,43.49,248.94,43.96S253.42,58.09,253.55,58.51S258.05,74.34,258.16,74.73S262.67,91.58,262.77,91.96S267.28,109.22,267.38,109.59S271.89,126.73,271.99,127.11S276.49,143.71,276.6,144.11S281.09,159.87,281.21,160.29S285.68,174.99,285.82,175.44S290.27,188.97,290.43,189.44S294.85,201.74,295.04,202.25S299.42,213.32,299.65,213.87S303.99,223.74,304.26,224.33S308.54,233.08,308.87,233.7S313.09,241.4,313.48,242.07S317.63,248.8,318.09,249.5S322.16,255.36,322.7,256.1S326.68,261.18,327.31,261.94S331.19,266.34,331.92,267.11S335.71,270.91,336.53,271.68S340.23,274.97,341.14,275.72S344.75,278.57,345.75,279.3S349.28,281.76,350.36,282.46S353.81,284.6,354.97,285.27S358.36,287.13,359.58,287.75S362.91,289.38,364.19,289.96S367.48,291.39,368.8,291.92S372.05,293.17,373.41,293.66S376.63,294.77,378.02,295.22S381.21,296.2,382.63,296.6S385.8,297.48,387.24,297.84S390.39,298.62,391.85,298.95S394.99,299.65,396.46,299.95S399.58,300.57,401.07,300.84S404.18,301.4,405.68,301.65S408.79,302.15,410.29,302.37S413.39,302.82,414.9,303.02S418,303.43,419.51,303.61S422.6,303.98,424.12,304.15S427.21,304.48,428.73,304.63S431.82,304.93,433.34,305.07S436.42,305.35,437.95,305.47S441.03,305.72,442.56,305.84S445.64,306.06,447.17,306.17S450.25,306.37,451.78,306.47S454.86,306.66,456.39,306.75S460.23,306.96,461,307" style="fill: none; stroke: red; stroke-width: 2;"></path>
      </g>
     </svg>
     <g>
      <g transform="translate(0,307)">
       <path d="M0,0h461M0,-12v12m9,-6v6m9,-6v6m10,-6v6m9,-6v6m9,-12v12m9,-6v6m10,-6v6m9,-6v6m9,-6v6m9,-12v12m9,-6v6m10,-6v6m9,-6v6m9,-6v6m9,-12v12m10,-6v6m9,-6v6m9,-6v6m9,-6v6m9,-12v12m10,-6v6m9,-6v6m9,-6v6m9,-6v6m10,-12v12m9,-6v6m9,-6v6m9,-6v6m9,-6v6m10,-12v12m9,-6v6m9,-6v6m9,-6v6m9,-6v6m10,-12v12m9,-6v6m9,-6v6m9,-6v6m10,-6v6m9,-12v12m9,-6v6m9,-6v6m9,-6v6m10,-6v6m9,-12v12m9,-6v6m9,-6v6m10,-6v6m9,-6v6m9,-12v12" style="stroke: black; stroke-width: 1;"></path>
       <g font-family="Arial" font-size="13" space="preserve" fill="black" text-anchor="middle">
        <text dy=".8em" transform="translate(0,4)">
         -5
        </text>
        <text dy=".8em" transform="translate(46,4)">
         -4
        </text>
        <text dy=".8em" transform="translate(92,4)">
         -3
        </text>
        <text dy=".8em" transform="translate(138,4)">
         -2
        </text>
        <text dy=".8em" transform="translate(184,4)">
         -1
        </text>
        <text dy=".8em" transform="translate(231,4)">
         0
        </text>
        <text dy=".8em" transform="translate(277,4)">
         1
        </text>
        <text dy=".8em" transform="translate(323,4)">
         2
        </text>
        <text dy=".8em" transform="translate(369,4)">
         3
        </text>
        <text dy=".8em" transform="translate(415,4)">
         4
        </text>
        <text dy=".8em" transform="translate(461,4)">
         5
        </text>
       </g>
      </g>
      <g>
       <path d="M0,0v307M9,302h-9m9,-8h-9m9,-8h-9m9,-8h-9m17,-8h-17m9,-8h-9m9,-8h-9m9,-8h-9m9,-8h-9m17,-8h-17m9,-8h-9m9,-8h-9m9,-8h-9m9,-8h-9m17,-8h-17m9,-8h-9m9,-8h-9m9,-8h-9m9,-8h-9m17,-8h-17m9,-9h-9m9,-8h-9m9,-8h-9m9,-8h-9m17,-8h-17m9,-8h-9m9,-8h-9m9,-8h-9m9,-8h-9m17,-8h-17m9,-8h-9m9,-8h-9m9,-8h-9m9,-8h-9m17,-8h-17m9,-8h-9m9,-8h-9m9,-8h-9" style="stroke: black; stroke-width: 1;"></path>
       <g font-family="Arial" font-size="13" space="preserve" fill="black" text-anchor="end">
        <text dy=".4em" transform="translate(-2,270)">
         0.05
        </text>
        <text dy=".4em" transform="translate(-2,230)">
         0.10
        </text>
        <text dy=".4em" transform="translate(-2,190)">
         0.15
        </text>
        <text dy=".4em" transform="translate(-2,150)">
         0.20
        </text>
        <text dy=".4em" transform="translate(-2,109)">
         0.25
        </text>
        <text dy=".4em" transform="translate(-2,69)">
         0.30
        </text>
        <text dy=".4em" transform="translate(-2,29)">
         0.35
        </text>
       </g>
      </g>
     </g>
    </g>
    <g transform="translate(58,2)" font-family="Arial" font-size="19" space="preserve">
     <text fill="black" text-anchor="middle" dy=".8em" transform="translate(231)">
      Student t distribution function
     </text>
    </g>
   </g>
  </svg>
  <svg viewBox="0 0 576 384" preserveAspectRatio="none" x="612" y="8" width="576" height="384">
   <path d="M0,0H576V384H0Z" style="fill: white;"></path>
   <g>
    <g transform="translate(58,38)">
     <path d="M0,0H461V307H0Z" style="fill: white; stroke: black; stroke-width: 1;"></path>
     <svg x="0" y="0" overflow="hidden" width="461" height="307" viewBox="0 0 461 307">
      <g>
       <path d="M0,307C0.77,306.98,3.07,306.92,4.61,306.87S7.68,306.78,9.22,306.73S12.3,306.63,13.83,306.58S16.91,306.47,18.44,306.42S21.52,306.3,23.05,306.24S26.13,306.12,27.66,306.05S30.74,305.92,32.27,305.85S35.35,305.71,36.88,305.63S39.96,305.47,41.49,305.39S44.57,305.22,46.1,305.13S49.18,304.94,50.71,304.84S53.79,304.64,55.32,304.53S58.4,304.31,59.93,304.2S63.01,303.96,64.54,303.83S67.63,303.56,69.15,303.42S72.24,303.14,73.76,302.98S76.85,302.66,78.37,302.5S81.47,302.15,82.98,301.96S86.08,301.58,87.59,301.37S90.7,300.95,92.2,300.73S95.31,300.25,96.81,300.01S99.93,299.48,101.42,299.21S104.55,298.63,106.03,298.33S109.18,297.68,110.64,297.36S113.8,296.63,115.25,296.27S118.43,295.45,119.86,295.05S123.07,294.14,124.47,293.7S127.71,292.67,129.08,292.19S132.36,291.02,133.69,290.5S137.01,289.17,138.3,288.61S141.67,287.09,142.91,286.48S146.34,284.75,147.52,284.1S151.02,282.11,152.13,281.43S155.7,279.15,156.74,278.43S160.39,275.81,161.35,275.06S165.08,272.05,165.96,271.29S169.78,267.83,170.57,267.06S174.47,263.11,175.18,262.34S179.16,257.84,179.79,257.09S183.85,251.99,184.4,251.25S188.52,245.52,189.01,244.8S193.19,238.41,193.62,237.72S197.85,230.64,198.23,229.98S202.5,222.23,202.84,221.6S207.15,213.21,207.45,212.6S211.78,203.62,212.06,203.03S216.41,193.53,216.67,192.96S221.04,183.06,221.28,182.49S225.65,172.3,225.89,171.75S230.27,161.42,230.5,160.86S234.87,150.53,235.11,149.98S239.48,139.8,239.72,139.23S244.07,129.34,244.33,128.77S248.66,119.29,248.94,118.7S253.25,109.74,253.55,109.13S257.82,100.77,258.16,100.13S262.39,92.41,262.77,91.75S266.95,84.7,267.38,84.01S271.5,77.64,271.99,76.92S276.05,71.21,276.6,70.48S280.58,65.4,281.21,64.64S285.11,60.15,285.82,59.38S289.64,55.43,290.43,54.66S294.16,51.2,295.04,50.44S298.69,47.41,299.65,46.67S303.22,44.02,304.26,43.3S307.76,40.99,308.87,40.3S312.3,38.28,313.48,37.63S316.85,35.85,318.09,35.25S321.41,33.68,322.7,33.12S325.98,31.75,327.31,31.23S330.55,30.01,331.92,29.54S335.13,28.46,336.53,28.03S339.71,27.07,341.14,26.67S344.3,25.82,345.75,25.46S348.9,24.7,350.36,24.37S353.49,23.69,354.97,23.39S358.09,22.78,359.58,22.51S362.69,21.97,364.19,21.72S367.3,21.23,368.8,21S371.9,20.56,373.41,20.35S376.51,19.95,378.02,19.77S381.11,19.4,382.63,19.23S385.72,18.9,387.24,18.75S390.33,18.44,391.85,18.3S394.93,18.03,396.46,17.9S399.54,17.65,401.07,17.53S404.15,17.3,405.68,17.19S408.76,16.98,410.29,16.88S413.37,16.69,414.9,16.6S417.98,16.42,419.51,16.34S422.59,16.18,424.12,16.1S427.2,15.95,428.73,15.88S431.81,15.74,433.34,15.67S436.42,15.55,437.95,15.48S441.03,15.37,442.56,15.31S445.64,15.2,447.17,15.15S450.24,15.05,451.78,15S454.85,14.9,456.39,14.86S460.23,14.75,461,14.73" style="fill: none; stroke: #ff0000; stroke-width: 2;"></path>
      </g>
     </svg>
     <g>
      <g transform="translate(0,307)">
       <path d="M0,0h461M0,-12v12m9,-6v6m9,-6v6m10,-6v6m9,-6v6m9,-12v12m9,-6v6m10,-6v6m9,-6v6m9,-6v6m9,-12v12m9,-6v6m10,-6v6m9,-6v6m9,-6v6m9,-12v12m10,-6v6m9,-6v6m9,-6v6m9,-6v6m9,-12v12m10,-6v6m9,-6v6m9,-6v6m9,-6v6m10,-12v12m9,-6v6m9,-6v6m9,-6v6m9,-6v6m10,-12v12m9,-6v6m9,-6v6m9,-6v6m9,-6v6m10,-12v12m9,-6v6m9,-6v6m9,-6v6m10,-6v6m9,-12v12m9,-6v6m9,-6v6m9,-6v6m10,-6v6m9,-12v12m9,-6v6m9,-6v6m10,-6v6m9,-6v6m9,-12v12" style="stroke: black; stroke-width: 1;"></path>
       <g font-family="Arial" font-size="13" space="preserve" fill="black" text-anchor="middle">
        <text dy=".8em" transform="translate(0,4)">
         -5
        </text>
        <text dy=".8em" transform="translate(46,4)">
         -4
        </text>
        <text dy=".8em" transform="translate(92,4)">
         -3
        </text>
        <text dy=".8em" transform="translate(138,4)">
         -2
        </text>
        <text dy=".8em" transform="translate(184,4)">
         -1
        </text>
        <text dy=".8em" transform="translate(231,4)">
         0
        </text>
        <text dy=".8em" transform="translate(277,4)">
         1
        </text>
        <text dy=".8em" transform="translate(323,4)">
         2
        </text>
        <text dy=".8em" transform="translate(369,4)">
         3
        </text>
        <text dy=".8em" transform="translate(415,4)">
         4
        </text>
        <text dy=".8em" transform="translate(461,4)">
         5
        </text>
       </g>
      </g>
      <g>
       <path d="M0,0v307M9,303h-9m9,-6h-9m9,-6h-9m9,-5h-9m17,-6h-17m9,-6h-9m9,-6h-9m9,-6h-9m9,-6h-9m17,-6h-17m9,-6h-9m9,-6h-9m9,-6h-9m9,-6h-9m17,-6h-17m9,-6h-9m9,-6h-9m9,-6h-9m9,-6h-9m17,-5h-17m9,-6h-9m9,-6h-9m9,-6h-9m9,-6h-9m17,-6h-17m9,-6h-9m9,-6h-9m9,-6h-9m9,-6h-9m17,-6h-17m9,-6h-9m9,-6h-9m9,-6h-9m9,-6h-9m17,-6h-17m9,-5h-9m9,-6h-9m9,-6h-9m9,-6h-9m17,-6h-17m9,-6h-9m9,-6h-9m9,-6h-9m9,-6h-9m17,-6h-17m9,-6h-9m9,-6h-9m9,-6h-9m9,-6h-9m17,-6h-17m9,-5h-9m9,-6h-9" style="stroke: black; stroke-width: 1;"></path>
       <g font-family="Arial" font-size="13" space="preserve" fill="black" text-anchor="end">
        <text dy=".4em" transform="translate(-2,280)">
         0.1
        </text>
        <text dy=".4em" transform="translate(-2,250)">
         0.2
        </text>
        <text dy=".4em" transform="translate(-2,220)">
         0.3
        </text>
        <text dy=".4em" transform="translate(-2,191)">
         0.4
        </text>
        <text dy=".4em" transform="translate(-2,161)">
         0.5
        </text>
        <text dy=".4em" transform="translate(-2,131)">
         0.6
        </text>
        <text dy=".4em" transform="translate(-2,101)">
         0.7
        </text>
        <text dy=".4em" transform="translate(-2,72)">
         0.8
        </text>
        <text dy=".4em" transform="translate(-2,42)">
         0.9
        </text>
        <text dy=".4em" transform="translate(-2,12)">
         1
        </text>
       </g>
      </g>
     </g>
    </g>
    <g transform="translate(58,2)" font-family="Arial" font-size="19" space="preserve">
     <text fill="black" text-anchor="middle" dy=".8em" transform="translate(231)">
      Cumulative for Student t
     </text>
    </g>
   </g>
  </svg>
  <svg viewBox="0 0 576 384" preserveAspectRatio="none" x="12" y="408" width="576" height="384">
   <path d="M0,0H576V384H0Z" style="fill: white;"></path>
   <g>
    <g transform="translate(58,38)">
     <path d="M0,0H461V307H0Z" style="fill: white; stroke: black; stroke-width: 1;"></path>
     <svg x="0" y="0" overflow="hidden" width="461" height="307" viewBox="0 0 461 307">
      <g>
       <path d="M0,223h52M26,153v140M51,195h52M77,153v84M102,178h52M128,153v50M154,165h52M180,153v24M256,142h52M282,130v23M307,129h52M333,104v49M359,112h52M385,70v83M410,84h52M436,14v139" style="stroke: #0000ff; stroke-width: 2;"></path>
      </g>
     </svg>
     <g>
      <g transform="translate(0,307)">
       <path d="M0,0h461M0,-12v12m10,-6v6m10,-6v6m11,-6v6m10,-6v6m10,-12v12m10,-6v6m11,-6v6m10,-6v6m10,-6v6m10,-12v12m11,-6v6m10,-6v6m10,-6v6m10,-6v6m11,-12v12m10,-6v6m10,-6v6m10,-6v6m11,-6v6m10,-12v12m10,-6v6m10,-6v6m11,-6v6m10,-6v6m10,-12v12m10,-6v6m11,-6v6m10,-6v6m10,-6v6m10,-12v12m11,-6v6m10,-6v6m10,-6v6m10,-6v6m11,-12v12m10,-6v6m10,-6v6m10,-6v6m11,-6v6m10,-12v12m10,-6v6m10,-6v6m11,-6v6m10,-6v6m10,-12v12" style="stroke: black; stroke-width: 1;"></path>
       <g font-family="Arial" font-size="13" space="preserve" fill="black" text-anchor="middle">
        <text dy=".8em" transform="translate(0,4)">
         0
        </text>
        <text dy=".8em" transform="translate(51,4)">
         0.1
        </text>
        <text dy=".8em" transform="translate(102,4)">
         0.2
        </text>
        <text dy=".8em" transform="translate(154,4)">
         0.3
        </text>
        <text dy=".8em" transform="translate(205,4)">
         0.4
        </text>
        <text dy=".8em" transform="translate(256,4)">
         0.5
        </text>
        <text dy=".8em" transform="translate(307,4)">
         0.6
        </text>
        <text dy=".8em" transform="translate(359,4)">
         0.7
        </text>
        <text dy=".8em" transform="translate(410,4)">
         0.8
        </text>
        <text dy=".8em" transform="translate(461,4)">
         0.9
        </text>
       </g>
      </g>
      <g>
       <path d="M0,0v307M9,307h-9m9,-9h-9m9,-8h-9m17,-9h-17m9,-8h-9m9,-9h-9m9,-8h-9m9,-9h-9m17,-8h-17m9,-9h-9m9,-8h-9m9,-9h-9m9,-8h-9m17,-9h-17m9,-8h-9m9,-9h-9m9,-8h-9m9,-9h-9m17,-9h-17m9,-8h-9m9,-9h-9m9,-8h-9m9,-9h-9m17,-8h-17m9,-9h-9m9,-8h-9m9,-9h-9m9,-8h-9m17,-9h-17m9,-8h-9m9,-9h-9m9,-8h-9m9,-9h-9m17,-8h-17m9,-9h-9m9,-8h-9m9,-9h-9" style="stroke: black; stroke-width: 1;"></path>
       <g font-family="Arial" font-size="13" space="preserve" fill="black" text-anchor="end">
        <text dy=".4em" transform="translate(-2,281)">
         -3
        </text>
        <text dy=".4em" transform="translate(-2,239)">
         -2
        </text>
        <text dy=".4em" transform="translate(-2,196)">
         -1
        </text>
        <text dy=".4em" transform="translate(-2,153)">
         0
        </text>
        <text dy=".4em" transform="translate(-2,111)">
         1
        </text>
        <text dy=".4em" transform="translate(-2,68)">
         2
        </text>
        <text dy=".4em" transform="translate(-2,26)">
         3
        </text>
       </g>
      </g>
     </g>
    </g>
    <g transform="translate(58,2)" font-family="Arial" font-size="19" space="preserve">
     <text fill="black" text-anchor="middle" dy=".8em" transform="translate(231)">
      10-quantiles  for Student t
     </text>
    </g>
   </g>
  </svg>
  <svg viewBox="0 0 576 384" preserveAspectRatio="none" x="612" y="408" width="576" height="384">
   <path d="M0,0H576V384H0Z" style="fill: white;"></path>
   <g>
    <g transform="translate(58,38)">
     <path d="M0,0H461V307H0Z" style="fill: white; stroke: black; stroke-width: 1;"></path>
     <svg x="0" y="0" overflow="hidden" width="461" height="307" viewBox="0 0 461 307">
      <g>
       <path d="M0,307C0.77,306.96,3.08,306.83,4.61,306.75S7.69,306.57,9.22,306.47S12.3,306.27,13.83,306.17S16.91,305.95,18.44,305.84S21.52,305.6,23.05,305.47S26.14,305.21,27.66,305.07S30.75,304.79,32.27,304.63S35.36,304.32,36.88,304.15S39.98,303.8,41.49,303.61S44.59,303.23,46.1,303.02S49.21,302.59,50.71,302.37S53.82,301.89,55.32,301.65S58.44,301.12,59.93,300.84S63.07,300.25,64.54,299.95S67.69,299.29,69.15,298.95S72.32,298.21,73.76,297.84S76.95,297.01,78.37,296.6S81.59,295.66,82.98,295.22S86.23,294.15,87.59,293.66S90.88,292.45,92.2,291.92S95.53,290.53,96.81,289.96S100.2,288.37,101.42,287.75S104.87,285.93,106.03,285.27S109.56,283.16,110.64,282.46S114.25,280.03,115.25,279.3S118.95,276.48,119.86,275.72S123.65,272.45,124.47,271.68S128.35,267.88,129.08,267.11S133.06,262.7,133.69,261.94S137.76,256.83,138.3,256.1S142.45,250.21,142.91,249.5S147.13,242.73,147.52,242.07S151.8,234.33,152.13,233.7S156.47,224.92,156.74,224.33S161.12,214.41,161.35,213.87S165.77,202.76,165.96,202.25S170.41,189.91,170.57,189.44S175.04,175.88,175.18,175.44S179.67,160.7,179.79,160.29S184.29,144.51,184.4,144.11S188.91,127.5,189.01,127.11S193.52,109.97,193.62,109.59S198.13,92.34,198.23,91.96S202.73,75.13,202.84,74.73S207.32,58.93,207.45,58.51S211.9,44.43,212.06,43.96S216.43,32.31,216.67,31.75S220.86,23.19,221.28,22.51S224.99,17.5,225.89,16.74S228.96,14.78,230.5,14.78S234.21,15.99,235.11,16.74S239.3,21.82,239.72,22.51S244.09,31.19,244.33,31.75S248.78,43.49,248.94,43.96S253.42,58.09,253.55,58.51S258.05,74.34,258.16,74.73S262.67,91.58,262.77,91.96S267.28,109.22,267.38,109.59S271.89,126.73,271.99,127.11S276.49,143.71,276.6,144.11S281.09,159.87,281.21,160.29S285.68,174.99,285.82,175.44S290.27,188.97,290.43,189.44S294.85,201.74,295.04,202.25S299.42,213.32,299.65,213.87S303.99,223.74,304.26,224.33S308.54,233.08,308.87,233.7S313.09,241.4,313.48,242.07S317.63,248.8,318.09,249.5S322.16,255.36,322.7,256.1S326.68,261.18,327.31,261.94S331.19,266.34,331.92,267.11S335.71,270.91,336.53,271.68S340.23,274.97,341.14,275.72S344.75,278.57,345.75,279.3S349.28,281.76,350.36,282.46S353.81,284.6,354.97,285.27S358.36,287.13,359.58,287.75S362.91,289.38,364.19,289.96S367.48,291.39,368.8,291.92S372.05,293.17,373.41,293.66S376.63,294.77,378.02,295.22S381.21,296.2,382.63,296.6S385.8,297.48,387.24,297.84S390.39,298.62,391.85,298.95S394.99,299.65,396.46,299.95S399.58,300.57,401.07,300.84S404.18,301.4,405.68,301.65S408.79,302.15,410.29,302.37S413.39,302.82,414.9,303.02S418,303.43,419.51,303.61S422.6,303.98,424.12,304.15S427.21,304.48,428.73,304.63S431.82,304.93,433.34,305.07S436.42,305.35,437.95,305.47S441.03,305.72,442.56,305.84S445.64,306.06,447.17,306.17S450.25,306.37,451.78,306.47S454.86,306.66,456.39,306.75S460.23,306.96,461,307" style="fill: none; stroke: red; stroke-width: 2;"></path>
      </g>
      <g>
       <path d="M155,225h1v-3h2v-3h1v-3h2v-3h1v-4h1v-3h2v-4h1v-4h1v-4h2v-3h1v-5h2v-4h1v-4h1v-4h2v-5h1v-4h1v-5h2v-5h1v-5h2v-4h1v164h1L185,310H155Z" style="stroke-linejoin: miter; stroke: #00009a; stroke-width: 1; fill: red;"></path>
      </g>
      <g>
       <path d="M185,136h2v-5h1v-5h1v-5h2v-5h1v-5h1v-5h1v-5h2v-5h1v-5h1v-4h2v-5h1v-5h1v233h2L204,310H185Z" style="stroke-linejoin: miter; stroke: #00009a; stroke-width: 1; fill: green;"></path>
      </g>
      <g>
       <path d="M204,68h1v-5h1v-4h1v-5h2v-4h1v-4h1v-4h2v-3h1v-4h1v-3h1v278h2L218,310H204Z" style="stroke-linejoin: miter; stroke: #00009a; stroke-width: 1; fill: blue;"></path>
      </g>
      <g>
       <path d="M218,27h1v-3h1v-2h2v-2h1v-1h1v-2h1v-1h2v-1h2v295h2L231,310H218Z" style="stroke-linejoin: miter; stroke: #00009a; stroke-width: 1; fill: yellow;"></path>
      </g>
      <g>
       <path d="M231,15h2v1h1v1h2v2h1v1h1v2h1v2h2v3h1v283h1L243,310H231Z" style="stroke-linejoin: miter; stroke: #00009a; stroke-width: 1; fill: magenta;"></path>
      </g>
      <g>
       <path d="M243,32h2v3h1v4h1v3h1v4h2v4h1v4h1v5h2v4h1v5h1v242h1L257,310H243Z" style="stroke-linejoin: miter; stroke: #00009a; stroke-width: 1; fill: cyan;"></path>
      </g>
      <g>
       <path d="M257,77h2v5h1v5h1v4h2v5h1v5h1v5h2v5h1v5h1v5h1v5h2v5h1v5h1v174h2L276,310H257Z" style="stroke-linejoin: miter; stroke: #00009a; stroke-width: 1; fill: #59d454;"></path>
      </g>
      <g>
       <path d="M276,145h1v5h1v5h2v4h1v5h1v4h2v5h1v4h1v4h2v4h1v4h1v4h2v4h1v3h1v4h2v3h1v4h1v99h2L300,310H276Z" style="stroke-linejoin: miter; stroke: #00009a; stroke-width: 1; fill: #5954d9;"></path>
      </g>
     </svg>
     <g>
      <g transform="translate(0,307)">
       <path d="M0,0h461M0,-12v12m9,-6v6m9,-6v6m10,-6v6m9,-6v6m9,-12v12m9,-6v6m10,-6v6m9,-6v6m9,-6v6m9,-12v12m9,-6v6m10,-6v6m9,-6v6m9,-6v6m9,-12v12m10,-6v6m9,-6v6m9,-6v6m9,-6v6m9,-12v12m10,-6v6m9,-6v6m9,-6v6m9,-6v6m10,-12v12m9,-6v6m9,-6v6m9,-6v6m9,-6v6m10,-12v12m9,-6v6m9,-6v6m9,-6v6m9,-6v6m10,-12v12m9,-6v6m9,-6v6m9,-6v6m10,-6v6m9,-12v12m9,-6v6m9,-6v6m9,-6v6m10,-6v6m9,-12v12m9,-6v6m9,-6v6m10,-6v6m9,-6v6m9,-12v12" style="stroke: black; stroke-width: 1;"></path>
       <g font-family="Arial" font-size="13" space="preserve" fill="black" text-anchor="middle">
        <text dy=".8em" transform="translate(0,4)">
         -5
        </text>
        <text dy=".8em" transform="translate(46,4)">
         -4
        </text>
        <text dy=".8em" transform="translate(92,4)">
         -3
        </text>
        <text dy=".8em" transform="translate(138,4)">
         -2
        </text>
        <text dy=".8em" transform="translate(184,4)">
         -1
        </text>
        <text dy=".8em" transform="translate(231,4)">
         0
        </text>
        <text dy=".8em" transform="translate(277,4)">
         1
        </text>
        <text dy=".8em" transform="translate(323,4)">
         2
        </text>
        <text dy=".8em" transform="translate(369,4)">
         3
        </text>
        <text dy=".8em" transform="translate(415,4)">
         4
        </text>
        <text dy=".8em" transform="translate(461,4)">
         5
        </text>
       </g>
      </g>
      <g>
       <path d="M0,0v307M9,302h-9m9,-8h-9m9,-8h-9m9,-8h-9m17,-8h-17m9,-8h-9m9,-8h-9m9,-8h-9m9,-8h-9m17,-8h-17m9,-8h-9m9,-8h-9m9,-8h-9m9,-8h-9m17,-8h-17m9,-8h-9m9,-8h-9m9,-8h-9m9,-8h-9m17,-8h-17m9,-9h-9m9,-8h-9m9,-8h-9m9,-8h-9m17,-8h-17m9,-8h-9m9,-8h-9m9,-8h-9m9,-8h-9m17,-8h-17m9,-8h-9m9,-8h-9m9,-8h-9m9,-8h-9m17,-8h-17m9,-8h-9m9,-8h-9m9,-8h-9" style="stroke: black; stroke-width: 1;"></path>
       <g font-family="Arial" font-size="13" space="preserve" fill="black" text-anchor="end">
        <text dy=".4em" transform="translate(-2,270)">
         0.05
        </text>
        <text dy=".4em" transform="translate(-2,230)">
         0.10
        </text>
        <text dy=".4em" transform="translate(-2,190)">
         0.15
        </text>
        <text dy=".4em" transform="translate(-2,150)">
         0.20
        </text>
        <text dy=".4em" transform="translate(-2,109)">
         0.25
        </text>
        <text dy=".4em" transform="translate(-2,69)">
         0.30
        </text>
        <text dy=".4em" transform="translate(-2,29)">
         0.35
        </text>
       </g>
      </g>
     </g>
    </g>
   </g>
  </svg>
 </g>
</svg>