<svg xmlns="http://www.w3.org/2000/svg" viewBox="0 0 1200 800" preserveAspectRatio="none" width="1200" height="800">
 <path d="M0,0H1200V800H0Z" style="fill: white;"></path>
 <g>
  <g transform="translate(120,80)">
   <path d="M0,0H960V640H0Z" style="fill: white; stroke: black; stroke-width: 1;"></path>
   <svg x="0" y="0" overflow="hidden" width="960" height="640" viewBox="0 0 960 640">
    <g>
     <path d="M5,372L15,372L24,374L34,377L43,380L53,385L63,390L72,395L82,402L91,409L101,416L111,424L120,432L130,441L139,449L149,456L159,464L168,470L178,476L187,480L197,483L207,483L216,482L226,478L235,471L245,462L255,449L264,434L274,415L283,394L293,371L303,345L312,302L322,259L331,218L341,179L351,143L360,111L370,84L379,61L389,45L399,34L408,30L418,33L427,42L437,57L447,77L456,102L466,131L475,164L485,199L495,236L504,273L514,311L523,348L533,383L543,417L552,449L562,479L571,506L581,530L591,552L600,572L610,583L619,590L629,595L639,599L648,601L658,603L667,604L677,605L687,605L696,605L706,604L715,604L725,604L735,604L744,605L754,605L763,606L773,607L783,608L792,610L802,612L811,614L821,616L831,618L840,621L850,623L859,626L869,629L879,632L888,635L898,638L907,639L917,636L927,634L936,631L946,629L955,626" style="fill: none; stroke: blue; stroke-width: 6;"></path>
    </g>
   </svg>
   <g>
    <g>
     <path d="M0,0h960M0,0V24M19,0V12M38,0V12M58,0V12M77,0V12M96,0V24M115,0V12M134,0V12M154,0V12M173,0V12M192,0V24M211,0V12M230,0V12M250,0V12M269,0V12M288,0V24M307,0V12M326,0V12M346,0V12M365,0V12M384,0V24M403,0V12M422,0V12M442,0V12M461,0V12M480,0V24M499,0V12M518,0V12M538,0V12M557,0V12M576,0V24M595,0V12M614,0V12M634,0V12M653,0V12M672,0V24M691,0V12M710,0V12M730,0V12M749,0V12M768,0V24M787,0V12M806,0V12M826,0V12M845,0V12M864,0V24M883,0V12M902,0V12M922,0V12M941,0V12M960,0V24" style="stroke: black; stroke-width: 1;"></path>
     <g font-family="Arial" font-size="28" space="preserve" fill="black" text-anchor="middle">
      <text transform="translate(0,-4)">
       0
      </text>
      <text transform="translate(96,-4)">
       1
      </text>
      <text transform="translate(192,-4)">
       2
      </text>
      <text transform="translate(288,-4)">
       3
      </text>
      <text transform="translate(384,-4)">
       4
      </text>
      <text transform="translate(480,-4)">
       5
      </text>
      <text transform="translate(576,-4)">
       6
      </text>
      <text transform="translate(672,-4)">
       7
      </text>
      <text transform="translate(768,-4)">
       8
      </text>
      <text transform="translate(864,-4)">
       9
      </text>
      <text transform="translate(960,-4)">
       10
      </text>
     </g>
    </g>
    <g transform="translate(960)">
     <path d="M0,0v640M0,640H-36M0,627H-18M0,613H-18M0,600H-18M0,586H-18M0,573H-36M0,559H-18M0,546H-18M0,533H-18M0,519H-18M0,506H-36M0,492H-18M0,479H-18M0,465H-18M0,452H-18M0,439H-36M0,425H-18M0,412H-18M0,398H-18M0,385H-18M0,371H-36M0,358H-18M0,345H-18M0,331H-18M0,318H-18M0,304H-36M0,291H-18M0,278H-18M0,264H-18M0,251H-18M0,237H-36M0,224H-18M0,210H-18M0,197H-18M0,184H-18M0,170H-36M0,157H-18M0,143H-18M0,130H-18M0,116H-18M0,103H-36M0,90H-18M0,76H-18M0,63H-18M0,49H-18M0,36H-36M0,22H-18M0,9H-18" style="stroke: black; stroke-width: 1;"></path>
     <g font-family="Arial" font-size="28" space="preserve" fill="black" text-anchor="start">
      <text dy=".4em" transform="translate(4,640)">
       0
      </text>
      <text dy=".4em" transform="translate(4,573)">
       5
      </text>
      <text dy=".4em" transform="translate(4,506)">
       10
      </text>
      <text dy=".4em" transform="translate(4,439)">
       15
      </text>
      <text dy=".4em" transform="translate(4,371)">
       20
      </text>
      <text dy=".4em" transform="translate(4,304)">
       25
      </text>
      <text dy=".4em" transform="translate(4,237)">
       30
      </text>
      <text dy=".4em" transform="translate(4,170)">
       35
      </text>
      <text dy=".4em" transform="translate(4,103)">
       40
      </text>
      <text dy=".4em" transform="translate(4,36)">
       45
      </text>
     </g>
    </g>
   </g>
  </g>
  <g transform="translate(120,4)" font-family="Arial" font-size="40" space="preserve">
   <text fill="black" text-anchor="middle" dy=".8em" transform="translate(480)">
    x*gaus(0)+[3]*form1
   </text>
  </g>
 </g>
</svg>