<svg xmlns="http://www.w3.org/2000/svg" viewBox="0 0 1200 800" preserveAspectRatio="none" width="1200" height="800">
 <path d="M0,0H1200V800H0Z" style="fill: white;"></path>
 <g>
  <g transform="translate(120,80)">
   <path d="M0,0H960V640H0Z" style="fill: white; stroke: black; stroke-width: 1;"></path>
   <svg x="0" y="0" overflow="hidden" width="960" height="640" viewBox="0 0 960 640">
    <g>
     <path d="M0,372.16C0.96,372.25,7.68,373.12,9.6,373.47S17.28,375.12,19.2,375.64S26.88,377.96,28.8,378.65S36.48,381.62,38.4,382.47S46.08,386.07,48,387.07S55.68,391.27,57.6,392.4S65.28,397.15,67.2,398.41S74.88,403.66,76.8,405.04S84.48,410.72,86.4,412.19S94.08,418.23,96,419.78S103.68,426.09,105.6,427.69S113.28,434.16,115.2,435.78S122.88,442.29,124.8,443.9S132.48,450.31,134.4,451.86S142.08,458.01,144,459.47S151.68,465.18,153.6,466.5S161.28,471.56,163.2,472.69S170.88,476.9,172.8,477.78S180.48,480.91,182.4,481.48S190.08,483.3,192,483.51S199.68,483.78,201.6,483.56S209.28,482.07,211.2,481.38S218.88,477.92,220.8,476.72S228.48,471.12,230.4,469.36S238.08,461.5,240,459.17S247.68,448.97,249.6,446.06S257.28,433.55,259.2,430.07S266.88,415.31,268.8,411.31S276.48,394.48,278.4,390S286.08,371.84,288,366.5S295.68,343.85,297.6,336.61S305.28,302.54,307.2,294.1S314.88,260.45,316.8,252.22S324.48,219.62,326.4,211.75S334.08,180.85,336,173.51S343.68,144.98,345.6,138.33S353.28,112.81,355.2,107S362.88,85.08,364.8,80.26S372.48,62.48,374.4,58.75S382.08,45.53,384,42.99S391.68,34.64,393.6,33.34S401.28,30.04,403.2,30.01S410.88,31.79,412.8,33.01S420.48,39.76,422.4,42.18S430.08,53.66,432,57.2S439.68,73.03,441.6,77.58S449.28,97.28,451.2,102.71S458.88,125.71,460.8,131.86S468.48,157.54,470.4,164.26S478.08,191.95,480,199.07S487.68,228.11,489.6,235.47S497.28,265.22,499.2,272.67S506.88,302.52,508.8,309.91S516.48,339.33,518.4,346.54S526.08,375.05,528,381.98S535.68,409.2,537.6,415.76S545.28,441.4,547.2,447.52S554.88,471.35,556.8,477S564.48,498.89,566.4,504.05S574.08,523.92,576,528.58S583.68,546.44,585.6,550.6S593.28,566.96,595.2,570.19S602.88,580.92,604.8,582.88S612.48,588.59,614.4,589.81S622.08,594.18,624,595.09S631.68,598.32,633.6,598.98S641.28,601.26,643.2,601.71S650.88,603.22,652.8,603.51S660.48,604.42,662.4,604.58S670.08,605.05,672,605.12S679.68,605.28,681.6,605.29S689.28,605.26,691.2,605.24S698.88,605.12,700.8,605.09S708.48,604.95,710.4,604.93S718.08,604.85,720,604.85S727.68,604.88,729.6,604.91S737.28,605.09,739.2,605.16S746.88,605.51,748.8,605.63S756.48,606.17,758.4,606.34S766.08,607.08,768,607.3S775.68,608.24,777.6,608.51S785.28,609.65,787.2,609.97S794.88,611.31,796.8,611.67S804.48,613.19,806.4,613.6S814.08,615.29,816,615.73S823.68,617.57,825.6,618.05S833.28,620.02,835.2,620.53S842.88,622.61,844.8,623.14S852.48,625.31,854.4,625.87S862.08,628.11,864,628.67S871.68,630.96,873.6,631.54S881.28,633.85,883.2,634.42S890.88,636.74,892.8,637.31S900.48,640.06,902.4,640.17S910.08,638.89,912,638.44S919.68,636.25,921.6,635.72S929.28,633.61,931.2,633.1S938.88,631.09,940.8,630.6S948.48,628.71,950.4,628.25S959.04,626.29,960,626.08" style="fill: none; stroke: blue; stroke-width: 6;"></path>
    </g>
   </svg>
   <g>
    <g>
     <path d="M0,0h960M10,0V12M29,0V12M48,0V12M68,0V12M87,0V24M107,0V12M126,0V12M145,0V12M165,0V12M184,0V24M204,0V12M223,0V12M242,0V12M262,0V12M281,0V24M301,0V12M320,0V12M339,0V12M359,0V12M378,0V24M398,0V12M417,0V12M436,0V12M456,0V12M475,0V24M495,0V12M514,0V12M533,0V12M553,0V12M572,0V24M592,0V12M611,0V12M630,0V12M650,0V12M669,0V24M688,0V12M708,0V12M727,0V12M747,0V12M766,0V24M785,0V12M805,0V12M824,0V12M844,0V12M863,0V24M882,0V12M902,0V12M921,0V12M941,0V12M960,0V24" style="stroke: black; stroke-width: 1;"></path>
     <g font-family="Arial" font-size="28" space="preserve" fill="black" text-anchor="middle">
      <text transform="translate(87,-4)">
       1
      </text>
      <text transform="translate(184,-4)">
       2
      </text>
      <text transform="translate(281,-4)">
       3
      </text>
      <text transform="translate(378,-4)">
       4
      </text>
      <text transform="translate(475,-4)">
       5
      </text>
      <text transform="translate(572,-4)">
       6
      </text>
      <text transform="translate(669,-4)">
       7
      </text>
      <text transform="translate(766,-4)">
       8
      </text>
      <text transform="translate(863,-4)">
       9
      </text>
      <text transform="translate(960,-4)">
       10
      </text>
     </g>
    </g>
    <g transform="translate(960)">
     <path d="M0,0v640M0,627H-18M0,614H-18M0,600H-18M0,587H-18M0,573H-36M0,560H-18M0,547H-18M0,533H-18M0,520H-18M0,506H-36M0,493H-18M0,479H-18M0,466H-18M0,452H-18M0,439H-36M0,426H-18M0,412H-18M0,399H-18M0,385H-18M0,372H-36M0,358H-18M0,345H-18M0,331H-18M0,318H-18M0,304H-36M0,291H-18M0,278H-18M0,264H-18M0,251H-18M0,237H-36M0,224H-18M0,210H-18M0,197H-18M0,183H-18M0,170H-36M0,157H-18M0,143H-18M0,130H-18M0,116H-18M0,103H-36M0,89H-18M0,76H-18M0,62H-18M0,49H-18M0,35H-36M0,22H-18M0,9H-18" style="stroke: black; stroke-width: 1;"></path>
     <g font-family="Arial" font-size="28" space="preserve" fill="black" text-anchor="start">
      <text dy=".4em" transform="translate(4,573)">
       5
      </text>
      <text dy=".4em" transform="translate(4,506)">
       10
      </text>
      <text dy=".4em" transform="translate(4,439)">
       15
      </text>
      <text dy=".4em" transform="translate(4,372)">
       20
      </text>
      <text dy=".4em" transform="translate(4,304)">
       25
      </text>
      <text dy=".4em" transform="translate(4,237)">
       30
      </text>
      <text dy=".4em" transform="translate(4,170)">
       35
      </text>
      <text dy=".4em" transform="translate(4,103)">
       40
      </text>
      <text dy=".4em" transform="translate(4,35)">
       45
      </text>
     </g>
    </g>
   </g>
  </g>
  <g transform="translate(120,4)" font-family="Arial" font-size="40" space="preserve">
   <text fill="black" text-anchor="middle" dy=".8em" transform="translate(480)">
    x*gaus(0)+[3]*form1
   </text>
  </g>
 </g>
</svg>