<svg width="1200" height="800" viewBox="0 0 1000 800" preserveAspectRatio="none" xmlns="http://www.w3.org/2000/svg">
 <path d="M0,0H1000V800H0Z" style="fill: white;"></path>
 <g>
  <g transform="translate(30,720)">
   <path d="M0,0v-640" style="stroke: black; stroke-width: 1;"></path>
   <path d="M0,0h-20m20,-32h-10m10,-32h-10m10,-32h-10m10,-32h-20m20,-32h-10m10,-32h-10m10,-32h-10m10,-32h-20m20,-32h-10m10,-32h-10m10,-32h-10m10,-32h-20m20,-32h-10m10,-32h-10m10,-32h-10m10,-32h-20m20,-32h-10m10,-32h-10m10,-32h-10m10,-32h-20" style="stroke: black;"></path>
   <g font-family="Arial" font-size="24" space="preserve">
    <text text-anchor="start" dy=".4em" transform="translate(5)">
     0
    </text>
    <text text-anchor="start" dy=".4em" transform="translate(5,-128)">
     20
    </text>
    <text text-anchor="start" dy=".4em" transform="translate(5,-256)">
     40
    </text>
    <text text-anchor="start" dy=".4em" transform="translate(5,-384)">
     60
    </text>
    <text text-anchor="start" dy=".4em" transform="translate(5,-512)">
     80
    </text>
    <text text-anchor="start" dy=".4em" transform="translate(5,-640)">
     100
    </text>
   </g>
   <g font-family="Arial" font-size="24" space="preserve" transform="translate(54,-640)">
    <text text-anchor="end" dy=".8em" transform=" rotate(270)">
     vertical
    </text>
   </g>
  </g>
  <g transform="translate(80,80)">
   <path d="M0,0h360" style="stroke: black; stroke-width: 1;"></path>
   <path d="M0,-16v16m18,-8v8m18,-8v8m18,-8v8m18,-16v16m18,-8v8m18,-8v8m18,-8v8m18,-16v16m18,-8v8m18,-8v8m18,-8v8m18,-16v16m18,-8v8m18,-8v8m18,-8v8m18,-16v16m18,-8v8m18,-8v8m18,-8v8m18,-16v16" style="stroke: black;"></path>
   <g font-family="Arial" font-size="24" space="preserve">
    <text text-anchor="middle" dy=".8em" transform="translate(0,4)">
     0
    </text>
    <text text-anchor="middle" dy=".8em" transform="translate(72,4)">
     20
    </text>
    <text text-anchor="middle" dy=".8em" transform="translate(144,4)">
     40
    </text>
    <text text-anchor="middle" dy=".8em" transform="translate(216,4)">
     60
    </text>
    <text text-anchor="middle" dy=".8em" transform="translate(288,4)">
     80
    </text>
    <text text-anchor="middle" dy=".8em" transform="translate(360,4)">
     100
    </text>
   </g>
   <g font-family="Arial" font-size="24" space="preserve" transform="translate(180,39)">
    <text text-anchor="middle" dy=".8em">
     horizontal
    </text>
   </g>
  </g>
  <g transform="translate(80,240)">
   <path d="M0,0h360" style="stroke: black; stroke-width: 1;"></path>
   <path d="M0,-16v32m18,-24v16m18,-16v16m18,-16v16m18,-24v32m18,-24v16m18,-16v16m18,-16v16m18,-24v32m18,-24v16m18,-16v16m18,-16v16m18,-24v32m18,-24v16m18,-16v16m18,-16v16m18,-24v32m18,-24v16m18,-16v16m18,-16v16m18,-24v32" style="stroke: black;"></path>
   <g font-family="Arial" font-size="24" space="preserve">
    <text text-anchor="middle" dy=".8em" transform="translate(0,20)">
     0
    </text>
    <text text-anchor="middle" dy=".8em" transform="translate(72,20)">
     20
    </text>
    <text text-anchor="middle" dy=".8em" transform="translate(144,20)">
     40
    </text>
    <text text-anchor="middle" dy=".8em" transform="translate(216,20)">
     60
    </text>
    <text text-anchor="middle" dy=".8em" transform="translate(288,20)">
     80
    </text>
    <text text-anchor="middle" dy=".8em" transform="translate(360,20)">
     100
    </text>
   </g>
   <g font-family="Arial" font-size="24" space="preserve" transform="translate(180,55)">
    <text text-anchor="middle" dy=".8em">
     both side ticks
    </text>
   </g>
  </g>
  <g transform="translate(80,400)">
   <path d="M0,0h360" style="stroke: black; stroke-width: 1;"></path>
   <path d="M0,-16v16m18,-8v8m18,-8v8m18,-8v8m18,-16v16m18,-8v8m18,-8v8m18,-8v8m18,-16v16m18,-8v8m18,-8v8m18,-8v8m18,-16v16m18,-8v8m18,-8v8m18,-8v8m18,-16v16m18,-8v8m18,-8v8m18,-8v8m18,-16v16" style="stroke: black;"></path>
   <g font-family="Arial" font-size="24" space="preserve">
    <text text-anchor="middle" dy=".8em" transform="translate(36,4)">
     0
    </text>
    <text text-anchor="middle" dy=".8em" transform="translate(108,4)">
     20
    </text>
    <text text-anchor="middle" dy=".8em" transform="translate(180,4)">
     40
    </text>
    <text text-anchor="middle" dy=".8em" transform="translate(252,4)">
     60
    </text>
    <text text-anchor="middle" dy=".8em" transform="translate(324,4)">
     80
    </text>
   </g>
   <g font-family="Arial" font-size="24" space="preserve" transform="translate(360,39)">
    <text text-anchor="end" dy=".8em">
     center labels
    </text>
   </g>
  </g>
  <g transform="translate(80,560)">
   <path d="M0,0h360" style="stroke: black; stroke-width: 1;"></path>
   <path d="M0,-16v16m10,-8v8m10,-8v8m10,-8v8m10,-8v8m10,-8v8m10,-16v16m10,-8v8m10,-8v8m10,-8v8m10,-8v8m10,-8v8m10,-16v16m10,-8v8m10,-8v8m10,-8v8m10,-8v8m10,-8v8m10,-16v16m10,-8v8m10,-8v8m10,-8v8m10,-8v8m10,-8v8m10,-16v16m10,-8v8m10,-8v8m10,-8v8m10,-8v8m10,-8v8m10,-16v16m10,-8v8m10,-8v8m10,-8v8m10,-8v8m10,-8v8m10,-16v16" style="stroke: black;"></path>
   <g font-family="Arial" font-size="7" space="preserve">
    <text fill="#FF0000" text-anchor="middle" dy=".8em" transform="translate(0,4)">
     12/11/20 09:00
    </text>
    <text fill="#FF0000" text-anchor="middle" dy=".8em" transform="translate(60,4)">
     12/11/20 09:30
    </text>
    <text fill="#FF0000" text-anchor="middle" dy=".8em" transform="translate(120,4)">
     12/11/20 10:00
    </text>
    <text fill="#FF0000" text-anchor="middle" dy=".8em" transform="translate(180,4)">
     12/11/20 10:30
    </text>
    <text fill="#FF0000" text-anchor="middle" dy=".8em" transform="translate(240,4)">
     12/11/20 11:00
    </text>
    <text fill="#FF0000" text-anchor="middle" dy=".8em" transform="translate(300,4)">
     12/11/20 11:30
    </text>
    <text fill="#FF0000" text-anchor="middle" dy=".8em" transform="translate(360,4)">
     12/11/20 12:00
    </text>
   </g>
   <g font-family="Arial" font-size="24" space="preserve" transform="translate(360,16)">
    <text text-anchor="end" dy=".8em">
     time display
    </text>
   </g>
  </g>
  <g transform="translate(80,720)">
   <path d="M0,0h360" style="stroke: black; stroke-width: 1;"></path>
   <path d="M0,0v16m72,-16v16m72,-16v16m72,-16v16m72,-16v16m72,-16v16" style="stroke: black;"></path>
   <g font-family="Arial" font-size="19" space="preserve">
    <text text-anchor="middle" transform="translate(36,-4)">
     first
    </text>
    <text text-anchor="middle" transform="translate(108,-4)">
     second
    </text>
    <text text-anchor="middle" transform="translate(180,-4)">
     third
    </text>
    <text text-anchor="middle" transform="translate(252,-4)">
     forth
    </text>
    <text text-anchor="middle" transform="translate(324,-4)">
     fifth
    </text>
   </g>
   <g font-family="Arial" font-size="24" space="preserve" transform="translate(0,-39)">
    <text text-anchor="begin">
     labels, swap ticks side
    </text>
   </g>
  </g>
  <g transform="translate(500,80)">
   <path d="M0,0v640l-14,-20M0,640l14,-20" style="stroke: black; stroke-width: 1; fill: none;"></path>
   <path d="M20,0h-20m10,32h-10m10,32h-10m10,32h-10m20,32h-20m10,32h-10m10,32h-10m10,32h-10m20,32h-20m10,32h-10m10,32h-10m10,32h-10m20,32h-20m10,32h-10m10,32h-10m10,32h-10m20,32h-20m10,32h-10m10,32h-10m10,32h-10" style="stroke: black;"></path>
   <g font-family="Arial" font-size="24" space="preserve">
    <text text-anchor="end" dy=".4em" transform="translate(-5)">
     0
    </text>
    <text text-anchor="end" dy=".4em" transform="translate(-5,128)">
     2
    </text>
    <text text-anchor="end" dy=".4em" transform="translate(-5,256)">
     4
    </text>
    <text text-anchor="end" dy=".4em" transform="translate(-5,384)">
     6
    </text>
    <text text-anchor="end" dy=".4em" transform="translate(-5,512)">
     8
    </text>
   </g>
   <g font-family="Arial" font-size="24" space="preserve" transform="translate(-28,640)">
    <text text-anchor="begin" transform=" rotate(270)">
     vertical negative length
    </text>
   </g>
  </g>
  <g transform="translate(570,80)">
   <path d="M0,0h360l-16,-11M360,0l-16,11" style="stroke: black; stroke-width: 1; fill: none;"></path>
   <path d="M0,-16v16m54,-8v8m32,-8v8m22,-8v8m18,-8v8m14,-8v8m12,-8v8m11,-8v8m9,-8v8m8,-16v16m54,-8v8m32,-8v8m22,-8v8m18,-8v8m14,-8v8m12,-8v8m11,-8v8" style="stroke: black;"></path>
   <g font-family="Arial" font-size="24" space="preserve">
    <text text-anchor="middle" dy=".8em" transform="translate(0,4)">
     1
    </text>
    <text text-anchor="middle" dy=".8em" transform="translate(180,4)">
     10
    </text>
   </g>
   <g font-family="Verdana" font-size="24" space="preserve" transform="translate(180,39)">
    <text fill="#008000" text-anchor="middle" dy=".8em">
     log10 scale
    </text>
   </g>
  </g>
  <g transform="translate(570,240)">
   <path d="M0,0h360" style="stroke: black; stroke-width: 1;"></path>
   <path d="M0,-16v16m36,-16v16m36,-16v16m36,-16v16m36,-16v16m36,-16v16m36,-16v16m36,-16v16m36,-16v16m36,-16v16m36,-16v16" style="stroke: black;"></path>
   <g font-family="Arial" font-size="24" space="preserve">
    <g transform="translate(-13,30)">
     <text font-size="24">
      2
     </text>
     <text font-size="14" transform="translate(13,-12)">
      -3
     </text>
    </g>
    <g transform="translate(23,30)">
     <text font-size="24">
      2
     </text>
     <text font-size="14" transform="translate(13,-12)">
      -2
     </text>
    </g>
    <g transform="translate(60,30)">
     <text font-size="24">
      2
     </text>
     <text font-size="14" transform="translate(13,-12)">
      -1
     </text>
    </g>
    <g transform="translate(98,30)">
     <text font-size="24">
      2
     </text>
     <text font-size="14" transform="translate(13,-12)">
      0
     </text>
    </g>
    <g transform="translate(134,30)">
     <text font-size="24">
      2
     </text>
     <text font-size="14" transform="translate(13,-12)">
      1
     </text>
    </g>
    <g transform="translate(170,30)">
     <text font-size="24">
      2
     </text>
     <text font-size="14" transform="translate(13,-12)">
      2
     </text>
    </g>
    <g transform="translate(206,30)">
     <text font-size="24">
      2
     </text>
     <text font-size="14" transform="translate(13,-12)">
      3
     </text>
    </g>
    <g transform="translate(242,30)">
     <text font-size="24">
      2
     </text>
     <text font-size="14" transform="translate(13,-12)">
      4
     </text>
    </g>
    <g transform="translate(278,30)">
     <text font-size="24">
      2
     </text>
     <text font-size="14" transform="translate(13,-12)">
      5
     </text>
    </g>
    <g transform="translate(314,30)">
     <text font-size="24">
      2
     </text>
     <text font-size="14" transform="translate(13,-12)">
      6
     </text>
    </g>
    <g transform="translate(350,30)">
     <text font-size="24">
      2
     </text>
     <text font-size="14" transform="translate(13,-12)">
      7
     </text>
    </g>
   </g>
   <g font-family="Arial" font-size="24" space="preserve" transform="translate(180,42)">
    <text text-anchor="middle" dy=".8em">
     log2 scale
    </text>
   </g>
  </g>
  <g transform="translate(570,400)">
   <path d="M0,0h360" style="stroke: black; stroke-width: 1;"></path>
   <path d="M0,-16v16m78,-16v16m78,-16v16m79,-16v16m78,-16v16" style="stroke: black;"></path>
   <g font-family="Arial" font-size="24" space="preserve">
    <g transform="translate(-10,30)">
     <text font-size="24">
      e
     </text>
     <text font-size="14" transform="translate(12,-12)">
      0
     </text>
    </g>
    <g transform="translate(68,30)">
     <text font-size="24">
      e
     </text>
     <text font-size="14" transform="translate(12,-12)">
      1
     </text>
    </g>
    <g transform="translate(146,30)">
     <text font-size="24">
      e
     </text>
     <text font-size="14" transform="translate(12,-12)">
      2
     </text>
    </g>
    <g transform="translate(225,30)">
     <text font-size="24">
      e
     </text>
     <text font-size="14" transform="translate(12,-12)">
      3
     </text>
    </g>
    <g transform="translate(303,30)">
     <text font-size="24">
      e
     </text>
     <text font-size="14" transform="translate(12,-12)">
      4
     </text>
    </g>
   </g>
   <g font-family="Arial" font-size="24" space="preserve" transform="translate(180,42)">
    <text text-anchor="middle" dy=".8em">
     ln scale
    </text>
   </g>
  </g>
  <g transform="translate(930,560)">
   <path d="M0,0h-360l16,11M-360,0l16,-11" style="stroke: black; stroke-width: 1; fill: none;"></path>
   <path d="M0,-16v16m-18,-8v8m-18,-8v8m-18,-8v8m-18,-16v16m-18,-8v8m-18,-8v8m-18,-8v8m-18,-16v16m-18,-8v8m-18,-8v8m-18,-8v8m-18,-16v16m-18,-8v8m-18,-8v8m-18,-8v8m-18,-16v16m-18,-8v8m-18,-8v8m-18,-8v8" style="stroke: black;"></path>
   <g font-family="Arial" font-size="24" space="preserve">
    <text text-anchor="middle" dy=".8em" transform="translate(0,4)">
     0
    </text>
    <text text-anchor="middle" dy=".8em" transform="translate(-72,4)">
     20
    </text>
    <text text-anchor="middle" dy=".8em" transform="translate(-144,4)">
     40
    </text>
    <text text-anchor="middle" dy=".8em" transform="translate(-216,4)">
     60
    </text>
    <text text-anchor="middle" dy=".8em" transform="translate(-288,4)">
     80
    </text>
   </g>
   <g font-family="Arial" font-size="24" space="preserve" transform="translate(-180,39)">
    <text text-anchor="middle" dy=".8em">
     horizontal negative length
    </text>
   </g>
  </g>
  <g transform="translate(570,720)">
   <path d="M0,0h360l-16,-11M360,0l-16,11" style="stroke: black; stroke-width: 1; fill: none;"></path>
   <path d="M342,-8v8m-18,-8v8m-18,-8v8m-18,-16v16m-18,-8v8m-18,-8v8m-18,-8v8m-18,-16v16m-18,-8v8m-18,-8v8m-18,-8v8m-18,-16v16m-18,-8v8m-18,-8v8m-18,-8v8m-18,-16v16m-18,-8v8m-18,-8v8m-18,-8v8m-18,-16v16" style="stroke: black;"></path>
   <g font-family="Arial" font-size="24" space="preserve">
    <text text-anchor="middle" dy=".8em" transform="translate(288,4)">
     20
    </text>
    <text text-anchor="middle" dy=".8em" transform="translate(216,4)">
     40
    </text>
    <text text-anchor="middle" dy=".8em" transform="translate(144,4)">
     60
    </text>
    <text text-anchor="middle" dy=".8em" transform="translate(72,4)">
     80
    </text>
    <text text-anchor="middle" dy=".8em" transform="translate(0,4)">
     100
    </text>
   </g>
   <g font-family="Arial" font-size="24" space="preserve" transform="translate(180,39)">
    <text text-anchor="middle" dy=".8em">
     horizontal reverse
    </text>
   </g>
  </g>
  <g transform="translate(970,720)">
   <path d="M0,0v-640l7,10M0,-640l-7,10" style="stroke: black; stroke-width: 1; fill: none;"></path>
   <path d="M10,0h-20m15,-32h-10m10,-32h-10m10,-32h-10m15,-32h-20m15,-32h-10m10,-32h-10m10,-32h-10m15,-32h-20m15,-32h-10m10,-32h-10m10,-32h-10m15,-32h-20m15,-32h-10m10,-32h-10m10,-32h-10m15,-32h-20m15,-32h-10m10,-32h-10m10,-32h-10" style="stroke: #0000FF;"></path>
   <g font-family="Arial" font-size="24" space="preserve">
    <text text-anchor="end" dy=".4em" transform="translate(-13)">
     0
    </text>
    <text text-anchor="end" dy=".4em" transform="translate(-13,-128)">
     20
    </text>
    <text text-anchor="end" dy=".4em" transform="translate(-13,-256)">
     40
    </text>
    <text text-anchor="end" dy=".4em" transform="translate(-13,-384)">
     60
    </text>
    <text text-anchor="end" dy=".4em" transform="translate(-13,-512)">
     80
    </text>
   </g>
   <g font-family="Arial" font-size="24" space="preserve" transform="translate(-49,-320)">
    <text text-anchor="middle" transform=" rotate(270)">
     vertical axis with arrow
    </text>
   </g>
  </g>
 </g>
</svg>