<svg width="1200" height="800" viewBox="0 0 1000 700" preserveAspectRatio="none" xmlns="http://www.w3.org/2000/svg">
 <path d="M0,0H1000V700H0Z" style="fill: white;"></path>
 <g>
  <g transform="translate(70,84)">
   <rect x="0" y="0" width="880" height="532" style="fill: none; stroke: black; stroke-width: 1;"></rect>
   <svg x="0" y="0" overflow="hidden" width="880" height="532" viewBox="0 0 880 532">
    <g>
     <path style="fill: rgb(53, 42, 135);" d="M0,532h4v-53h-4zm4,0h5v-51h-5zm5,0h4v-48h-4zm4,0h5v-45h-5zm5,0h4v-43h-4zm4,0h4v-40h-4zm4,0h5v-37h-5zm5,0h4v-35h-4zm4,0h5v-32h-5zm5,0h4v-29h-4zm4,0h4v-27h-4zm4,0h5v-24h-5zm5,0h4v-21h-4zm4,0h5v-19h-5zm5,0h4v-16h-4zm4,0h4v-13h-4zm4,0h5v-11h-5zm5,0h4v-8h-4zm4,0h5v-5h-5zm5,0h4v-3h-4z"></path>
     <path style="fill: rgb(37, 63, 171);" d="M0,479h4v-53h-4zm4,2h5v-53h-5zm5,3h4v-53h-4zm4,3h5v-53h-5zm5,2h4v-53h-4zm4,3h4v-53h-4zm4,3h5v-53h-5zm5,2h4v-53h-4zm4,3h5v-53h-5zm5,3h4v-53h-4zm4,2h4v-53h-4zm4,3h5v-53h-5zm5,3h4v-53h-4zm4,2h5v-53h-5zm5,3h4v-53h-4zm4,3h4v-53h-4zm4,2h5v-53h-5zm5,3h4v-53h-4zm4,3h5v-54h-5zm5,2h4v-53h-4zm4,3h4v-53h-4zm4,0h5v-51h-5zm5,0h4v-48h-4zm4,0h5v-45h-5zm5,0h4v-43h-4zm4,0h4v-40h-4zm4,0h5v-37h-5zm5,0h4v-35h-4zm4,0h5v-32h-5zm5,0h4v-29h-4zm4,0h4v-27h-4zm4,0h5v-24h-5zm5,0h4v-21h-4zm4,0h5v-19h-5zm5,0h4v-16h-4zm4,0h4v-13h-4zm4,0h5v-11h-5zm5,0h4v-8h-4zm4,0h5v-5h-5zm5,0h4v-3h-4z"></path>
     <path style="fill: rgb(21, 84, 207);" d="M0,426h4v-54h-4zm4,2h5v-53h-5zm5,3h4v-53h-4zm4,3h5v-54h-5zm5,2h4v-53h-4zm4,3h4v-53h-4zm4,3h5v-54h-5zm5,2h4v-53h-4zm4,3h5v-53h-5zm5,3h4v-54h-4zm4,2h4v-53h-4zm4,3h5v-53h-5zm5,3h4v-54h-4zm4,2h5v-53h-5zm5,3h4v-53h-4zm4,3h4v-54h-4zm4,2h5v-53h-5zm5,3h4v-53h-4zm4,2h5v-53h-5zm5,3h4v-53h-4zm4,3h4v-53h-4zm4,2h5v-53h-5zm5,3h4v-53h-4zm4,3h5v-53h-5zm5,2h4v-53h-4zm4,3h4v-53h-4zm4,3h5v-53h-5zm5,2h4v-53h-4zm4,3h5v-53h-5zm5,3h4v-53h-4zm4,2h4v-53h-4zm4,3h5v-53h-5zm5,3h4v-53h-4zm4,2h5v-53h-5zm5,3h4v-53h-4zm4,3h4v-53h-4zm4,2h5v-53h-5zm5,3h4v-53h-4zm4,3h5v-54h-5zm5,2h4v-53h-4zm4,3h4v-53h-4zm4,0h5v-51h-5zm5,0h4v-48h-4zm4,0h5v-45h-5zm5,0h4v-43h-4zm4,0h4v-40h-4zm4,0h5v-37h-5zm5,0h4v-35h-4zm4,0h5v-32h-5zm5,0h4v-29h-4zm4,0h4v-27h-4zm4,0h5v-24h-5zm5,0h4v-21h-4zm4,0h5v-19h-5zm5,0h4v-16h-4zm4,0h4v-13h-4zm4,0h5v-11h-5zm5,0h4v-8h-4zm4,0h5v-5h-5zm5,0h4v-3h-4z"></path>
     <path style="fill: rgb(16, 102, 219);" d="M0,372h4v-53h-4zm4,3h5v-53h-5zm5,3h4v-53h-4zm4,2h5v-53h-5zm5,3h4v-53h-4zm4,3h4v-53h-4zm4,2h5v-53h-5zm5,3h4v-53h-4zm4,3h5v-54h-5zm5,2h4v-53h-4zm4,3h4v-53h-4zm4,3h5v-54h-5zm5,2h4v-53h-4zm4,3h5v-53h-5zm5,3h4v-54h-4zm4,2h4v-53h-4zm4,3h5v-53h-5zm5,3h4v-54h-4zm4,2h5v-53h-5zm5,3h4v-53h-4zm4,3h4v-54h-4zm4,2h5v-53h-5zm5,3h4v-53h-4zm4,3h5v-54h-5zm5,2h4v-53h-4zm4,3h4v-53h-4zm4,3h5v-54h-5zm5,2h4v-53h-4zm4,3h5v-53h-5zm5,3h4v-54h-4zm4,2h4v-53h-4zm4,3h5v-53h-5zm5,3h4v-54h-4zm4,2h5v-53h-5zm5,3h4v-53h-4zm4,3h4v-54h-4zm4,2h5v-53h-5zm5,3h4v-53h-4zm4,2h5v-53h-5zm5,3h4v-53h-4zm4,3h4v-53h-4zm4,2h5v-53h-5zm5,3h4v-53h-4zm4,3h5v-53h-5zm5,2h4v-53h-4zm4,3h4v-53h-4zm4,3h5v-53h-5zm5,2h4v-53h-4zm4,3h5v-53h-5zm5,3h4v-53h-4zm4,2h4v-53h-4zm4,3h5v-53h-5zm5,3h4v-53h-4zm4,2h5v-53h-5zm5,3h4v-53h-4zm4,3h4v-53h-4zm4,2h5v-53h-5zm5,3h4v-53h-4zm4,3h5v-54h-5zm5,2h4v-53h-4zm4,3h4v-53h-4zm4,0h5v-51h-5zm5,0h4v-48h-4zm4,0h5v-45h-5zm5,0h4v-43h-4zm4,0h4v-40h-4zm4,0h5v-37h-5zm5,0h4v-35h-4zm4,0h5v-32h-5zm5,0h4v-29h-4zm4,0h4v-27h-4zm4,0h5v-24h-5zm5,0h4v-21h-4zm4,0h5v-19h-5zm5,0h4v-16h-4zm4,0h4v-13h-4zm4,0h5v-11h-5zm5,0h4v-8h-4zm4,0h5v-5h-5zm5,0h4v-3h-4z"></path>
     <path style="fill: rgb(18, 117, 216);" d="M0,319h4v-53h-4zm4,3h5v-53h-5zm5,3h4v-54h-4zm4,2h5v-53h-5zm5,3h4v-53h-4zm4,3h4v-54h-4zm4,2h5v-53h-5zm5,3h4v-53h-4zm4,2h5v-53h-5zm5,3h4v-53h-4zm4,3h4v-53h-4zm4,2h5v-53h-5zm5,3h4v-53h-4zm4,3h5v-53h-5zm5,2h4v-53h-4zm4,3h4v-53h-4zm4,3h5v-53h-5zm5,2h4v-53h-4zm4,3h5v-53h-5zm5,3h4v-53h-4zm4,2h4v-53h-4zm4,3h5v-53h-5zm5,3h4v-53h-4zm4,2h5v-53h-5zm5,3h4v-53h-4zm4,3h4v-53h-4zm4,2h5v-53h-5zm5,3h4v-53h-4zm4,3h5v-54h-5zm5,2h4v-53h-4zm4,3h4v-53h-4zm4,3h5v-54h-5zm5,2h4v-53h-4zm4,3h5v-53h-5zm5,3h4v-54h-4zm4,2h4v-53h-4zm4,3h5v-53h-5zm5,3h4v-54h-4zm4,2h5v-53h-5zm5,3h4v-53h-4zm4,3h4v-54h-4zm4,2h5v-53h-5zm5,3h4v-53h-4zm4,3h5v-54h-5zm5,2h4v-53h-4zm4,3h4v-53h-4zm4,3h5v-54h-5zm5,2h4v-53h-4zm4,3h5v-53h-5zm5,3h4v-54h-4zm4,2h4v-53h-4zm4,3h5v-53h-5zm5,3h4v-54h-4zm4,2h5v-53h-5zm5,3h4v-53h-4zm4,3h4v-54h-4zm4,2h5v-53h-5zm5,3h4v-53h-4zm4,2h5v-53h-5zm5,3h4v-53h-4zm4,3h4v-53h-4zm4,2h5v-53h-5zm5,3h4v-53h-4zm4,3h5v-53h-5zm5,2h4v-53h-4zm4,3h4v-53h-4zm4,3h5v-53h-5zm5,2h4v-53h-4zm4,3h5v-53h-5zm5,3h4v-53h-4zm4,2h4v-53h-4zm4,3h5v-53h-5zm5,3h4v-53h-4zm4,2h5v-53h-5zm5,3h4v-53h-4zm4,3h4v-53h-4zm4,2h5v-53h-5zm5,3h4v-53h-4zm4,3h5v-54h-5zm5,2h4v-53h-4zm4,3h4v-53h-4zm4,0h5v-51h-5zm5,0h4v-48h-4zm4,0h5v-45h-5zm5,0h4v-43h-4zm4,0h4v-40h-4zm4,0h5v-37h-5zm5,0h4v-35h-4zm4,0h5v-32h-5zm5,0h4v-29h-4zm4,0h4v-27h-4zm4,0h5v-24h-5zm5,0h4v-21h-4zm4,0h5v-19h-5zm5,0h4v-16h-4zm4,0h4v-13h-4zm4,0h5v-11h-5zm5,0h4v-8h-4zm4,0h5v-5h-5zm5,0h4v-3h-4z"></path>
     <path style="fill: rgb(19, 133, 213);" d="M0,266h4v-53h-4zm4,3h5v-54h-5zm5,2h4v-53h-4zm4,3h5v-53h-5zm5,3h4v-54h-4zm4,2h4v-53h-4zm4,3h5v-53h-5zm5,3h4v-54h-4zm4,2h5v-53h-5zm5,3h4v-53h-4zm4,3h4v-54h-4zm4,2h5v-53h-5zm5,3h4v-53h-4zm4,3h5v-54h-5zm5,2h4v-53h-4zm4,3h4v-53h-4zm4,3h5v-54h-5zm5,2h4v-53h-4zm4,3h5v-53h-5zm5,3h4v-54h-4zm4,2h4v-53h-4zm4,3h5v-53h-5zm5,3h4v-54h-4zm4,2h5v-53h-5zm5,3h4v-53h-4zm4,3h4v-54h-4zm4,2h5v-53h-5zm5,3h4v-53h-4zm4,2h5v-53h-5zm5,3h4v-53h-4zm4,3h4v-53h-4zm4,2h5v-53h-5zm5,3h4v-53h-4zm4,3h5v-53h-5zm5,2h4v-53h-4zm4,3h4v-53h-4zm4,3h5v-53h-5zm5,2h4v-53h-4zm4,3h5v-53h-5zm5,3h4v-53h-4zm4,2h4v-53h-4zm4,3h5v-53h-5zm5,3h4v-53h-4zm4,2h5v-53h-5zm5,3h4v-53h-4zm4,3h4v-53h-4zm4,2h5v-53h-5zm5,3h4v-53h-4zm4,3h5v-54h-5zm5,2h4v-53h-4zm4,3h4v-53h-4zm4,3h5v-54h-5zm5,2h4v-53h-4zm4,3h5v-53h-5zm5,3h4v-54h-4zm4,2h4v-53h-4zm4,3h5v-53h-5zm5,3h4v-54h-4zm4,2h5v-53h-5zm5,3h4v-53h-4zm4,3h4v-54h-4zm4,2h5v-53h-5zm5,3h4v-53h-4zm4,3h5v-54h-5zm5,2h4v-53h-4zm4,3h4v-53h-4zm4,3h5v-54h-5zm5,2h4v-53h-4zm4,3h5v-53h-5zm5,3h4v-54h-4zm4,2h4v-53h-4zm4,3h5v-53h-5zm5,3h4v-54h-4zm4,2h5v-53h-5zm5,3h4v-53h-4zm4,3h4v-54h-4zm4,2h5v-53h-5zm5,3h4v-53h-4zm4,2h5v-53h-5zm5,3h4v-53h-4zm4,3h4v-53h-4zm4,2h5v-53h-5zm5,3h4v-53h-4zm4,3h5v-53h-5zm5,2h4v-53h-4zm4,3h4v-53h-4zm4,3h5v-53h-5zm5,2h4v-53h-4zm4,3h5v-53h-5zm5,3h4v-53h-4zm4,2h4v-53h-4zm4,3h5v-53h-5zm5,3h4v-53h-4zm4,2h5v-53h-5zm5,3h4v-53h-4zm4,3h4v-53h-4zm4,2h5v-53h-5zm5,3h4v-53h-4zm4,3h5v-54h-5zm5,2h4v-53h-4zm4,3h4v-53h-4zm4,0h5v-51h-5zm5,0h4v-48h-4zm4,0h5v-45h-5zm5,0h4v-43h-4zm4,0h4v-40h-4zm4,0h5v-37h-5zm5,0h4v-35h-4zm4,0h5v-32h-5zm5,0h4v-29h-4zm4,0h4v-27h-4zm4,0h5v-24h-5zm5,0h4v-21h-4zm4,0h5v-19h-5zm5,0h4v-16h-4zm4,0h4v-13h-4zm4,0h5v-11h-5zm5,0h4v-8h-4zm4,0h5v-5h-5zm5,0h4v-3h-4z"></path>
     <path style="fill: rgb(13, 147, 208);" d="M0,213h4v-53h-4zm4,2h5v-53h-5zm5,3h4v-53h-4zm4,3h5v-53h-5zm5,2h4v-53h-4zm4,3h4v-53h-4zm4,3h5v-53h-5zm5,2h4v-53h-4zm4,3h5v-53h-5zm5,3h4v-53h-4zm4,2h4v-53h-4zm4,3h5v-53h-5zm5,3h4v-53h-4zm4,2h5v-53h-5zm5,3h4v-53h-4zm4,3h4v-53h-4zm4,2h5v-53h-5zm5,3h4v-53h-4zm4,3h5v-54h-5zm5,2h4v-53h-4zm4,3h4v-53h-4zm4,3h5v-54h-5zm5,2h4v-53h-4zm4,3h5v-53h-5zm5,3h4v-54h-4zm4,2h4v-53h-4zm4,3h5v-53h-5zm5,3h4v-54h-4zm4,2h5v-53h-5zm5,3h4v-53h-4zm4,3h4v-54h-4zm4,2h5v-53h-5zm5,3h4v-53h-4zm4,3h5v-54h-5zm5,2h4v-53h-4zm4,3h4v-53h-4zm4,3h5v-54h-5zm5,2h4v-53h-4zm4,3h5v-53h-5zm5,3h4v-54h-4zm4,2h4v-53h-4zm4,3h5v-53h-5zm5,3h4v-54h-4zm4,2h5v-53h-5zm5,3h4v-53h-4zm4,3h4v-54h-4zm4,2h5v-53h-5zm5,3h4v-53h-4zm4,2h5v-53h-5zm5,3h4v-53h-4zm4,3h4v-53h-4zm4,2h5v-53h-5zm5,3h4v-53h-4zm4,3h5v-53h-5zm5,2h4v-53h-4zm4,3h4v-53h-4zm4,3h5v-53h-5zm5,2h4v-53h-4zm4,3h5v-53h-5zm5,3h4v-53h-4zm4,2h4v-53h-4zm4,3h5v-53h-5zm5,3h4v-53h-4zm4,2h5v-53h-5zm5,3h4v-53h-4zm4,3h4v-53h-4zm4,2h5v-53h-5zm5,3h4v-53h-4zm4,3h5v-54h-5zm5,2h4v-53h-4zm4,3h4v-53h-4zm4,3h5v-54h-5zm5,2h4v-53h-4zm4,3h5v-53h-5zm5,3h4v-54h-4zm4,2h4v-53h-4zm4,3h5v-53h-5zm5,3h4v-54h-4zm4,2h5v-53h-5zm5,3h4v-53h-4zm4,3h4v-54h-4zm4,2h5v-53h-5zm5,3h4v-53h-4zm4,3h5v-54h-5zm5,2h4v-53h-4zm4,3h4v-53h-4zm4,3h5v-54h-5zm5,2h4v-53h-4zm4,3h5v-53h-5zm5,3h4v-54h-4zm4,2h4v-53h-4zm4,3h5v-53h-5zm5,3h4v-54h-4zm4,2h5v-53h-5zm5,3h4v-53h-4zm4,3h4v-54h-4zm4,2h5v-53h-5zm5,3h4v-53h-4zm4,2h5v-53h-5zm5,3h4v-53h-4zm4,3h4v-53h-4zm4,2h5v-53h-5zm5,3h4v-53h-4zm4,3h5v-53h-5zm5,2h4v-53h-4zm4,3h4v-53h-4zm4,3h5v-53h-5zm5,2h4v-53h-4zm4,3h5v-53h-5zm5,3h4v-53h-4zm4,2h4v-53h-4zm4,3h5v-53h-5zm5,3h4v-53h-4zm4,2h5v-53h-5zm5,3h4v-53h-4zm4,3h4v-53h-4zm4,2h5v-53h-5zm5,3h4v-53h-4zm4,3h5v-54h-5zm5,2h4v-53h-4zm4,3h4v-53h-4zm4,0h5v-51h-5zm5,0h4v-48h-4zm4,0h5v-45h-5zm5,0h4v-43h-4zm4,0h4v-40h-4zm4,0h5v-37h-5zm5,0h4v-35h-4zm4,0h5v-32h-5zm5,0h4v-29h-4zm4,0h4v-27h-4zm4,0h5v-24h-5zm5,0h4v-21h-4zm4,0h5v-19h-5zm5,0h4v-16h-4zm4,0h4v-13h-4zm4,0h5v-11h-5zm5,0h4v-8h-4zm4,0h5v-5h-5zm5,0h4v-3h-4z"></path>
     <path style="fill: rgb(7, 162, 203);" d="M0,160h4v-54h-4zm4,2h5v-53h-5zm5,3h4v-53h-4zm4,3h5v-54h-5zm5,2h4v-53h-4zm4,3h4v-53h-4zm4,3h5v-54h-5zm5,2h4v-53h-4zm4,3h5v-53h-5zm5,3h4v-54h-4zm4,2h4v-53h-4zm4,3h5v-53h-5zm5,3h4v-54h-4zm4,2h5v-53h-5zm5,3h4v-53h-4zm4,3h4v-54h-4zm4,2h5v-53h-5zm5,3h4v-53h-4zm4,2h5v-53h-5zm5,3h4v-53h-4zm4,3h4v-53h-4zm4,2h5v-53h-5zm5,3h4v-53h-4zm4,3h5v-53h-5zm5,2h4v-53h-4zm4,3h4v-53h-4zm4,3h5v-53h-5zm5,2h4v-53h-4zm4,3h5v-53h-5zm5,3h4v-53h-4zm4,2h4v-53h-4zm4,3h5v-53h-5zm5,3h4v-53h-4zm4,2h5v-53h-5zm5,3h4v-53h-4zm4,3h4v-53h-4zm4,2h5v-53h-5zm5,3h4v-53h-4zm4,3h5v-54h-5zm5,2h4v-53h-4zm4,3h4v-53h-4zm4,3h5v-54h-5zm5,2h4v-53h-4zm4,3h5v-53h-5zm5,3h4v-54h-4zm4,2h4v-53h-4zm4,3h5v-53h-5zm5,3h4v-54h-4zm4,2h5v-53h-5zm5,3h4v-53h-4zm4,3h4v-54h-4zm4,2h5v-53h-5zm5,3h4v-53h-4zm4,3h5v-54h-5zm5,2h4v-53h-4zm4,3h4v-53h-4zm4,3h5v-54h-5zm5,2h4v-53h-4zm4,3h5v-53h-5zm5,3h4v-54h-4zm4,2h4v-53h-4zm4,3h5v-53h-5zm5,3h4v-54h-4zm4,2h5v-53h-5zm5,3h4v-53h-4zm4,3h4v-54h-4zm4,2h5v-53h-5zm5,3h4v-53h-4zm4,2h5v-53h-5zm5,3h4v-53h-4zm4,3h4v-53h-4zm4,2h5v-53h-5zm5,3h4v-53h-4zm4,3h5v-53h-5zm5,2h4v-53h-4zm4,3h4v-53h-4zm4,3h5v-53h-5zm5,2h4v-53h-4zm4,3h5v-53h-5zm5,3h4v-53h-4zm4,2h4v-53h-4zm4,3h5v-53h-5zm5,3h4v-53h-4zm4,2h5v-53h-5zm5,3h4v-53h-4zm4,3h4v-53h-4zm4,2h5v-53h-5zm5,3h4v-53h-4zm4,3h5v-54h-5zm5,2h4v-53h-4zm4,3h4v-53h-4zm4,3h5v-54h-5zm5,2h4v-53h-4zm4,3h5v-53h-5zm5,3h4v-54h-4zm4,2h4v-53h-4zm4,3h5v-53h-5zm5,3h4v-54h-4zm4,2h5v-53h-5zm5,3h4v-53h-4zm4,3h4v-54h-4zm4,2h5v-53h-5zm5,3h4v-53h-4zm4,3h5v-54h-5zm5,2h4v-53h-4zm4,3h4v-53h-4zm4,3h5v-54h-5zm5,2h4v-53h-4zm4,3h5v-53h-5zm5,3h4v-54h-4zm4,2h4v-53h-4zm4,3h5v-53h-5zm5,3h4v-54h-4zm4,2h5v-53h-5zm5,3h4v-53h-4zm4,3h4v-54h-4zm4,2h5v-53h-5zm5,3h4v-53h-4zm4,2h5v-53h-5zm5,3h4v-53h-4zm4,3h4v-53h-4zm4,2h5v-53h-5zm5,3h4v-53h-4zm4,3h5v-53h-5zm5,2h4v-53h-4zm4,3h4v-53h-4zm4,3h5v-53h-5zm5,2h4v-53h-4zm4,3h5v-53h-5zm5,3h4v-53h-4zm4,2h4v-53h-4zm4,3h5v-53h-5zm5,3h4v-53h-4zm4,2h5v-53h-5zm5,3h4v-53h-4zm4,3h4v-53h-4zm4,2h5v-53h-5zm5,3h4v-53h-4zm4,3h5v-54h-5zm5,2h4v-53h-4zm4,3h4v-53h-4zm4,0h5v-51h-5zm5,0h4v-48h-4zm4,0h5v-45h-5zm5,0h4v-43h-4zm4,0h4v-40h-4zm4,0h5v-37h-5zm5,0h4v-35h-4zm4,0h5v-32h-5zm5,0h4v-29h-4zm4,0h4v-27h-4zm4,0h5v-24h-5zm5,0h4v-21h-4zm4,0h5v-19h-5zm5,0h4v-16h-4zm4,0h4v-13h-4zm4,0h5v-11h-5zm5,0h4v-8h-4zm4,0h5v-5h-5zm5,0h4v-3h-4z"></path>
     <path style="fill: rgb(21, 171, 188);" d="M0,106h4v-53h-4zm4,3h5v-53h-5zm5,3h4v-53h-4zm4,2h5v-53h-5zm5,3h4v-53h-4zm4,3h4v-53h-4zm4,2h5v-53h-5zm5,3h4v-53h-4zm4,3h5v-54h-5zm5,2h4v-53h-4zm4,3h4v-53h-4zm4,3h5v-54h-5zm5,2h4v-53h-4zm4,3h5v-53h-5zm5,3h4v-54h-4zm4,2h4v-53h-4zm4,3h5v-53h-5zm5,3h4v-54h-4zm4,2h5v-53h-5zm5,3h4v-53h-4zm4,3h4v-54h-4zm4,2h5v-53h-5zm5,3h4v-53h-4zm4,3h5v-54h-5zm5,2h4v-53h-4zm4,3h4v-53h-4zm4,3h5v-54h-5zm5,2h4v-53h-4zm4,3h5v-53h-5zm5,3h4v-54h-4zm4,2h4v-53h-4zm4,3h5v-53h-5zm5,3h4v-54h-4zm4,2h5v-53h-5zm5,3h4v-53h-4zm4,3h4v-54h-4zm4,2h5v-53h-5zm5,3h4v-53h-4zm4,2h5v-53h-5zm5,3h4v-53h-4zm4,3h4v-53h-4zm4,2h5v-53h-5zm5,3h4v-53h-4zm4,3h5v-53h-5zm5,2h4v-53h-4zm4,3h4v-53h-4zm4,3h5v-53h-5zm5,2h4v-53h-4zm4,3h5v-53h-5zm5,3h4v-53h-4zm4,2h4v-53h-4zm4,3h5v-53h-5zm5,3h4v-53h-4zm4,2h5v-53h-5zm5,3h4v-53h-4zm4,3h4v-53h-4zm4,2h5v-53h-5zm5,3h4v-53h-4zm4,3h5v-54h-5zm5,2h4v-53h-4zm4,3h4v-53h-4zm4,3h5v-54h-5zm5,2h4v-53h-4zm4,3h5v-53h-5zm5,3h4v-54h-4zm4,2h4v-53h-4zm4,3h5v-53h-5zm5,3h4v-54h-4zm4,2h5v-53h-5zm5,3h4v-53h-4zm4,3h4v-54h-4zm4,2h5v-53h-5zm5,3h4v-53h-4zm4,3h5v-54h-5zm5,2h4v-53h-4zm4,3h4v-53h-4zm4,3h5v-54h-5zm5,2h4v-53h-4zm4,3h5v-53h-5zm5,3h4v-54h-4zm4,2h4v-53h-4zm4,3h5v-53h-5zm5,3h4v-54h-4zm4,2h5v-53h-5zm5,3h4v-53h-4zm4,3h4v-54h-4zm4,2h5v-53h-5zm5,3h4v-53h-4zm4,2h5v-53h-5zm5,3h4v-53h-4zm4,3h4v-53h-4zm4,2h5v-53h-5zm5,3h4v-53h-4zm4,3h5v-53h-5zm5,2h4v-53h-4zm4,3h4v-53h-4zm4,3h5v-53h-5zm5,2h4v-53h-4zm4,3h5v-53h-5zm5,3h4v-53h-4zm4,2h4v-53h-4zm4,3h5v-53h-5zm5,3h4v-53h-4zm4,2h5v-53h-5zm5,3h4v-53h-4zm4,3h4v-53h-4zm4,2h5v-53h-5zm5,3h4v-53h-4zm4,3h5v-54h-5zm5,2h4v-53h-4zm4,3h4v-53h-4zm4,3h5v-54h-5zm5,2h4v-53h-4zm4,3h5v-53h-5zm5,3h4v-54h-4zm4,2h4v-53h-4zm4,3h5v-53h-5zm5,3h4v-54h-4zm4,2h5v-53h-5zm5,3h4v-53h-4zm4,3h4v-54h-4zm4,2h5v-53h-5zm5,3h4v-53h-4zm4,3h5v-54h-5zm5,2h4v-53h-4zm4,3h4v-53h-4zm4,3h5v-54h-5zm5,2h4v-53h-4zm4,3h5v-53h-5zm5,3h4v-54h-4zm4,2h4v-53h-4zm4,3h5v-53h-5zm5,3h4v-54h-4zm4,2h5v-53h-5zm5,3h4v-53h-4zm4,3h4v-54h-4zm4,2h5v-53h-5zm5,3h4v-53h-4zm4,2h5v-53h-5zm5,3h4v-53h-4zm4,3h4v-53h-4zm4,2h5v-53h-5zm5,3h4v-53h-4zm4,3h5v-53h-5zm5,2h4v-53h-4zm4,3h4v-53h-4zm4,3h5v-53h-5zm5,2h4v-53h-4zm4,3h5v-53h-5zm5,3h4v-53h-4zm4,2h4v-53h-4zm4,3h5v-53h-5zm5,3h4v-53h-4zm4,2h5v-53h-5zm5,3h4v-53h-4zm4,3h4v-53h-4zm4,2h5v-53h-5zm5,3h4v-53h-4zm4,3h5v-54h-5zm5,2h4v-53h-4zm4,3h4v-53h-4zm4,0h5v-51h-5zm5,0h4v-48h-4zm4,0h5v-45h-5zm5,0h4v-43h-4zm4,0h4v-40h-4zm4,0h5v-37h-5zm5,0h4v-35h-4zm4,0h5v-32h-5zm5,0h4v-29h-4zm4,0h4v-27h-4zm4,0h5v-24h-5zm5,0h4v-21h-4zm4,0h5v-19h-5zm5,0h4v-16h-4zm4,0h4v-13h-4zm4,0h5v-11h-5zm5,0h4v-8h-4zm4,0h5v-5h-5zm5,0h4v-3h-4z"></path>
     <path style="fill: rgb(38, 179, 172);" d="M0,53h4v-53h-4zm4,3h5v-53h-5zm5,3h4v-54h-4zm4,2h5v-53h-5zm5,3h4v-53h-4zm4,3h4v-54h-4zm4,2h5v-53h-5zm5,3h4v-53h-4zm4,2h5v-53h-5zm5,3h4v-53h-4zm4,3h4v-53h-4zm4,2h5v-53h-5zm5,3h4v-53h-4zm4,3h5v-53h-5zm5,2h4v-53h-4zm4,3h4v-53h-4zm4,3h5v-53h-5zm5,2h4v-53h-4zm4,3h5v-53h-5zm5,3h4v-53h-4zm4,2h4v-53h-4zm4,3h5v-53h-5zm5,3h4v-53h-4zm4,2h5v-53h-5zm5,3h4v-53h-4zm4,3h4v-53h-4zm4,2h5v-53h-5zm5,3h4v-53h-4zm4,3h5v-54h-5zm5,2h4v-53h-4zm4,3h4v-53h-4zm4,3h5v-54h-5zm5,2h4v-53h-4zm4,3h5v-53h-5zm5,3h4v-54h-4zm4,2h4v-53h-4zm4,3h5v-53h-5zm5,3h4v-54h-4zm4,2h5v-53h-5zm5,3h4v-53h-4zm4,3h4v-54h-4zm4,2h5v-53h-5zm5,3h4v-53h-4zm4,3h5v-54h-5zm5,2h4v-53h-4zm4,3h4v-53h-4zm4,3h5v-54h-5zm5,2h4v-53h-4zm4,3h5v-53h-5zm5,3h4v-54h-4zm4,2h4v-53h-4zm4,3h5v-53h-5zm5,3h4v-54h-4zm4,2h5v-53h-5zm5,3h4v-53h-4zm4,3h4v-54h-4zm4,2h5v-53h-5zm5,3h4v-53h-4zm4,2h5v-53h-5zm5,3h4v-53h-4zm4,3h4v-53h-4zm4,2h5v-53h-5zm5,3h4v-53h-4zm4,3h5v-53h-5zm5,2h4v-53h-4zm4,3h4v-53h-4zm4,3h5v-53h-5zm5,2h4v-53h-4zm4,3h5v-53h-5zm5,3h4v-53h-4zm4,2h4v-53h-4zm4,3h5v-53h-5zm5,3h4v-53h-4zm4,2h5v-53h-5zm5,3h4v-53h-4zm4,3h4v-53h-4zm4,2h5v-53h-5zm5,3h4v-53h-4zm4,3h5v-54h-5zm5,2h4v-53h-4zm4,3h4v-53h-4zm4,3h5v-54h-5zm5,2h4v-53h-4zm4,3h5v-53h-5zm5,3h4v-54h-4zm4,2h4v-53h-4zm4,3h5v-53h-5zm5,3h4v-54h-4zm4,2h5v-53h-5zm5,3h4v-53h-4zm4,3h4v-54h-4zm4,2h5v-53h-5zm5,3h4v-53h-4zm4,3h5v-54h-5zm5,2h4v-53h-4zm4,3h4v-53h-4zm4,3h5v-54h-5zm5,2h4v-53h-4zm4,3h5v-53h-5zm5,3h4v-54h-4zm4,2h4v-53h-4zm4,3h5v-53h-5zm5,3h4v-54h-4zm4,2h5v-53h-5zm5,3h4v-53h-4zm4,3h4v-54h-4zm4,2h5v-53h-5zm5,3h4v-53h-4zm4,2h5v-53h-5zm5,3h4v-53h-4zm4,3h4v-53h-4zm4,2h5v-53h-5zm5,3h4v-53h-4zm4,3h5v-53h-5zm5,2h4v-53h-4zm4,3h4v-53h-4zm4,3h5v-53h-5zm5,2h4v-53h-4zm4,3h5v-53h-5zm5,3h4v-53h-4zm4,2h4v-53h-4zm4,3h5v-53h-5zm5,3h4v-53h-4zm4,2h5v-53h-5zm5,3h4v-53h-4zm4,3h4v-53h-4zm4,2h5v-53h-5zm5,3h4v-53h-4zm4,3h5v-54h-5zm5,2h4v-53h-4zm4,3h4v-53h-4zm4,3h5v-54h-5zm5,2h4v-53h-4zm4,3h5v-53h-5zm5,3h4v-54h-4zm4,2h4v-53h-4zm4,3h5v-53h-5zm5,3h4v-54h-4zm4,2h5v-53h-5zm5,3h4v-53h-4zm4,3h4v-54h-4zm4,2h5v-53h-5zm5,3h4v-53h-4zm4,3h5v-54h-5zm5,2h4v-53h-4zm4,3h4v-53h-4zm4,3h5v-54h-5zm5,2h4v-53h-4zm4,3h5v-53h-5zm5,3h4v-54h-4zm4,2h4v-53h-4zm4,3h5v-53h-5zm5,3h4v-54h-4zm4,2h5v-53h-5zm5,3h4v-53h-4zm4,3h4v-54h-4zm4,2h5v-53h-5zm5,3h4v-53h-4zm4,2h5v-53h-5zm5,3h4v-53h-4zm4,3h4v-53h-4zm4,2h5v-53h-5zm5,3h4v-53h-4zm4,3h5v-53h-5zm5,2h4v-53h-4zm4,3h4v-53h-4zm4,3h5v-53h-5zm5,2h4v-53h-4zm4,3h5v-53h-5zm5,3h4v-53h-4zm4,2h4v-53h-4zm4,3h5v-53h-5zm5,3h4v-53h-4zm4,2h5v-53h-5zm5,3h4v-53h-4zm4,3h4v-53h-4zm4,2h5v-53h-5zm5,3h4v-53h-4zm4,3h5v-54h-5zm5,2h4v-53h-4zm4,3h4v-53h-4zm4,0h5v-51h-5zm5,0h4v-48h-4zm4,0h5v-45h-5zm5,0h4v-43h-4zm4,0h4v-40h-4zm4,0h5v-37h-5zm5,0h4v-35h-4zm4,0h5v-32h-5zm5,0h4v-29h-4zm4,0h4v-27h-4zm4,0h5v-24h-5zm5,0h4v-21h-4zm4,0h5v-19h-5zm5,0h4v-16h-4zm4,0h4v-13h-4zm4,0h5v-11h-5zm5,0h4v-8h-4zm4,0h5v-5h-5zm5,0h4v-3h-4z"></path>
     <path style="fill: rgb(65, 185, 155);" d="M0,0h4v-1h-4zM4,3h5v-4h-5zM9,5h4v-6h-4zm4,3h5v-9h-5zm5,3h4v-12h-4zm4,2h4v-14h-4zm4,3h5v-17h-5zm5,3h4v-20h-4zm4,2h5v-22h-5zm5,3h4v-25h-4zm4,3h4v-28h-4zm4,2h5v-30h-5zm5,3h4v-33h-4zm4,3h5v-36h-5zm5,2h4v-38h-4zm4,3h4v-41h-4zm4,3h5v-44h-5zm5,2h4v-46h-4zm4,3h5v-49h-5zm5,3h4v-52h-4zm4,2h4v-53h-4zm4,3h5v-53h-5zm5,3h4v-54h-4zm4,2h5v-53h-5zm5,3h4v-53h-4zm4,3h4v-54h-4zm4,2h5v-53h-5zm5,3h4v-53h-4zm4,2h5v-53h-5zm5,3h4v-53h-4zm4,3h4v-53h-4zm4,2h5v-53h-5zm5,3h4v-53h-4zm4,3h5v-53h-5zm5,2h4v-53h-4zm4,3h4v-53h-4zm4,3h5v-53h-5zm5,2h4v-53h-4zm4,3h5v-53h-5zm5,3h4v-53h-4zm4,2h4v-53h-4zm4,3h5v-53h-5zm5,3h4v-53h-4zm4,2h5v-53h-5zm5,3h4v-53h-4zm4,3h4v-53h-4zm4,2h5v-53h-5zm5,3h4v-53h-4zm4,3h5v-54h-5zm5,2h4v-53h-4zm4,3h4v-53h-4zm4,3h5v-54h-5zm5,2h4v-53h-4zm4,3h5v-53h-5zm5,3h4v-54h-4zm4,2h4v-53h-4zm4,3h5v-53h-5zm5,3h4v-54h-4zm4,2h5v-53h-5zm5,3h4v-53h-4zm4,3h4v-54h-4zm4,2h5v-53h-5zm5,3h4v-53h-4zm4,3h5v-54h-5zm5,2h4v-53h-4zm4,3h4v-53h-4zm4,3h5v-54h-5zm5,2h4v-53h-4zm4,3h5v-53h-5zm5,3h4v-54h-4zm4,2h4v-53h-4zm4,3h5v-53h-5zm5,3h4v-54h-4zm4,2h5v-53h-5zm5,3h4v-53h-4zm4,3h4v-54h-4zm4,2h5v-53h-5zm5,3h4v-53h-4zm4,2h5v-53h-5zm5,3h4v-53h-4zm4,3h4v-53h-4zm4,2h5v-53h-5zm5,3h4v-53h-4zm4,3h5v-53h-5zm5,2h4v-53h-4zm4,3h4v-53h-4zm4,3h5v-53h-5zm5,2h4v-53h-4zm4,3h5v-53h-5zm5,3h4v-53h-4zm4,2h4v-53h-4zm4,3h5v-53h-5zm5,3h4v-53h-4zm4,2h5v-53h-5zm5,3h4v-53h-4zm4,3h4v-53h-4zm4,2h5v-53h-5zm5,3h4v-53h-4zm4,3h5v-54h-5zm5,2h4v-53h-4zm4,3h4v-53h-4zm4,3h5v-54h-5zm5,2h4v-53h-4zm4,3h5v-53h-5zm5,3h4v-54h-4zm4,2h4v-53h-4zm4,3h5v-53h-5zm5,3h4v-54h-4zm4,2h5v-53h-5zm5,3h4v-53h-4zm4,3h4v-54h-4zm4,2h5v-53h-5zm5,3h4v-53h-4zm4,3h5v-54h-5zm5,2h4v-53h-4zm4,3h4v-53h-4zm4,3h5v-54h-5zm5,2h4v-53h-4zm4,3h5v-53h-5zm5,3h4v-54h-4zm4,2h4v-53h-4zm4,3h5v-53h-5zm5,3h4v-54h-4zm4,2h5v-53h-5zm5,3h4v-53h-4zm4,3h4v-54h-4zm4,2h5v-53h-5zm5,3h4v-53h-4zm4,2h5v-53h-5zm5,3h4v-53h-4zm4,3h4v-53h-4zm4,2h5v-53h-5zm5,3h4v-53h-4zm4,3h5v-53h-5zm5,2h4v-53h-4zm4,3h4v-53h-4zm4,3h5v-53h-5zm5,2h4v-53h-4zm4,3h5v-53h-5zm5,3h4v-53h-4zm4,2h4v-53h-4zm4,3h5v-53h-5zm5,3h4v-53h-4zm4,2h5v-53h-5zm5,3h4v-53h-4zm4,3h4v-53h-4zm4,2h5v-53h-5zm5,3h4v-53h-4zm4,3h5v-54h-5zm5,2h4v-53h-4zm4,3h4v-53h-4zm4,3h5v-54h-5zm5,2h4v-53h-4zm4,3h5v-53h-5zm5,3h4v-54h-4zm4,2h4v-53h-4zm4,3h5v-53h-5zm5,3h4v-54h-4zm4,2h5v-53h-5zm5,3h4v-53h-4zm4,3h4v-54h-4zm4,2h5v-53h-5zm5,3h4v-53h-4zm4,3h5v-54h-5zm5,2h4v-53h-4zm4,3h4v-53h-4zm4,3h5v-54h-5zm5,2h4v-53h-4zm4,3h5v-53h-5zm5,3h4v-54h-4zm4,2h4v-53h-4zm4,3h5v-53h-5zm5,3h4v-54h-4zm4,2h5v-53h-5zm5,3h4v-53h-4zm4,3h4v-54h-4zm4,2h5v-53h-5zm5,3h4v-53h-4zm4,2h5v-53h-5zm5,3h4v-53h-4zm4,3h4v-53h-4zm4,2h5v-53h-5zm5,3h4v-53h-4zm4,3h5v-53h-5zm5,2h4v-53h-4zm4,3h4v-53h-4zm4,3h5v-53h-5zm5,2h4v-53h-4zm4,3h5v-53h-5zm5,3h4v-53h-4zm4,2h4v-53h-4zm4,3h5v-53h-5zm5,3h4v-53h-4zm4,2h5v-53h-5zm5,3h4v-53h-4zm4,3h4v-53h-4zm4,2h5v-53h-5zm5,3h4v-53h-4zm4,3h5v-54h-5zm5,2h4v-53h-4zm4,3h1v-53h-1z"></path>
     <path style="fill: rgb(102, 188, 136);" d="M88,0h4v-1h-4zm4,3h5v-4h-5zm5,2h4v-6h-4zm4,3h5v-9h-5zm5,3h4v-12h-4zm4,2h4v-14h-4zm4,3h5v-17h-5zm5,3h4v-20h-4zm4,2h5v-22h-5zm5,3h4v-25h-4zm4,3h4v-28h-4zm4,2h5v-30h-5zm5,3h4v-33h-4zm4,3h5v-36h-5zm5,2h4v-38h-4zm4,3h4v-41h-4zm4,3h5v-44h-5zm5,2h4v-46h-4zm4,3h5v-49h-5zm5,3h4v-52h-4zm4,2h4v-53h-4zm4,3h5v-53h-5zm5,3h4v-54h-4zm4,2h5v-53h-5zm5,3h4v-53h-4zm4,3h4v-54h-4zm4,2h5v-53h-5zm5,3h4v-53h-4zm4,2h5v-53h-5zm5,3h4v-53h-4zm4,3h4v-53h-4zm4,2h5v-53h-5zm5,3h4v-53h-4zm4,3h5v-53h-5zm5,2h4v-53h-4zm4,3h4v-53h-4zm4,3h5v-53h-5zm5,2h4v-53h-4zm4,3h5v-53h-5zm5,3h4v-53h-4zm4,2h4v-53h-4zm4,3h5v-53h-5zm5,3h4v-53h-4zm4,2h5v-53h-5zm5,3h4v-53h-4zm4,3h4v-53h-4zm4,2h5v-53h-5zm5,3h4v-53h-4zm4,3h5v-54h-5zm5,2h4v-53h-4zm4,3h4v-53h-4zm4,3h5v-54h-5zm5,2h4v-53h-4zm4,3h5v-53h-5zm5,3h4v-54h-4zm4,2h4v-53h-4zm4,3h5v-53h-5zm5,3h4v-54h-4zm4,2h5v-53h-5zm5,3h4v-53h-4zm4,3h4v-54h-4zm4,2h5v-53h-5zm5,3h4v-53h-4zm4,3h5v-54h-5zm5,2h4v-53h-4zm4,3h4v-53h-4zm4,3h5v-54h-5zm5,2h4v-53h-4zm4,3h5v-53h-5zm5,3h4v-54h-4zm4,2h4v-53h-4zm4,3h5v-53h-5zm5,3h4v-54h-4zm4,2h5v-53h-5zm5,3h4v-53h-4zm4,3h4v-54h-4zm4,2h5v-53h-5zm5,3h4v-53h-4zm4,2h5v-53h-5zm5,3h4v-53h-4zm4,3h4v-53h-4zm4,2h5v-53h-5zm5,3h4v-53h-4zm4,3h5v-53h-5zm5,2h4v-53h-4zm4,3h4v-53h-4zm4,3h5v-53h-5zm5,2h4v-53h-4zm4,3h5v-53h-5zm5,3h4v-53h-4zm4,2h4v-53h-4zm4,3h5v-53h-5zm5,3h4v-53h-4zm4,2h5v-53h-5zm5,3h4v-53h-4zm4,3h4v-53h-4zm4,2h5v-53h-5zm5,3h4v-53h-4zm4,3h5v-54h-5zm5,2h4v-53h-4zm4,3h4v-53h-4zm4,3h5v-54h-5zm5,2h4v-53h-4zm4,3h5v-53h-5zm5,3h4v-54h-4zm4,2h4v-53h-4zm4,3h5v-53h-5zm5,3h4v-54h-4zm4,2h5v-53h-5zm5,3h4v-53h-4zm4,3h4v-54h-4zm4,2h5v-53h-5zm5,3h4v-53h-4zm4,3h5v-54h-5zm5,2h4v-53h-4zm4,3h4v-53h-4zm4,3h5v-54h-5zm5,2h4v-53h-4zm4,3h5v-53h-5zm5,3h4v-54h-4zm4,2h4v-53h-4zm4,3h5v-53h-5zm5,3h4v-54h-4zm4,2h5v-53h-5zm5,3h4v-53h-4zm4,3h4v-54h-4zm4,2h5v-53h-5zm5,3h4v-53h-4zm4,2h5v-53h-5zm5,3h4v-53h-4zm4,3h4v-53h-4zm4,2h5v-53h-5zm5,3h4v-53h-4zm4,3h5v-53h-5zm5,2h4v-53h-4zm4,3h4v-53h-4zm4,3h5v-53h-5zm5,2h4v-53h-4zm4,3h5v-53h-5zm5,3h4v-53h-4zm4,2h4v-53h-4zm4,3h5v-53h-5zm5,3h4v-53h-4zm4,2h5v-53h-5zm5,3h4v-53h-4zm4,3h4v-53h-4zm4,2h5v-53h-5zm5,3h4v-53h-4zm4,3h5v-54h-5zm5,2h4v-53h-4zm4,3h4v-53h-4zm4,3h5v-54h-5zm5,2h4v-53h-4zm4,3h5v-53h-5zm5,3h4v-54h-4zm4,2h4v-53h-4zm4,3h5v-53h-5zm5,3h4v-54h-4zm4,2h5v-53h-5zm5,3h4v-53h-4zm4,3h4v-54h-4zm4,2h5v-53h-5zm5,3h4v-53h-4zm4,3h5v-54h-5zm5,2h4v-53h-4zm4,3h4v-53h-4zm4,3h5v-54h-5zm5,2h4v-53h-4zm4,3h5v-53h-5zm5,3h4v-54h-4zm4,2h4v-53h-4zm4,3h5v-53h-5zm5,3h4v-54h-4zm4,2h5v-53h-5zm5,3h4v-53h-4zm4,3h4v-54h-4zm4,2h5v-53h-5zm5,3h4v-53h-4zm4,2h5v-53h-5zm5,3h4v-53h-4zm4,3h1v-53h-1z"></path>
     <path style="fill: rgb(139, 191, 117);" d="M176,0h4v-1h-4zm4,3h5v-4h-5zm5,2h4v-6h-4zm4,3h5v-9h-5zm5,3h4v-12h-4zm4,2h4v-14h-4zm4,3h5v-17h-5zm5,3h4v-20h-4zm4,2h5v-22h-5zm5,3h4v-25h-4zm4,3h4v-28h-4zm4,2h5v-30h-5zm5,3h4v-33h-4zm4,3h5v-36h-5zm5,2h4v-38h-4zm4,3h4v-41h-4zm4,3h5v-44h-5zm5,2h4v-46h-4zm4,3h5v-49h-5zm5,3h4v-52h-4zm4,2h4v-53h-4zm4,3h5v-53h-5zm5,3h4v-54h-4zm4,2h5v-53h-5zm5,3h4v-53h-4zm4,3h4v-54h-4zm4,2h5v-53h-5zm5,3h4v-53h-4zm4,2h5v-53h-5zm5,3h4v-53h-4zm4,3h4v-53h-4zm4,2h5v-53h-5zm5,3h4v-53h-4zm4,3h5v-53h-5zm5,2h4v-53h-4zm4,3h4v-53h-4zm4,3h5v-53h-5zm5,2h4v-53h-4zm4,3h5v-53h-5zm5,3h4v-53h-4zm4,2h4v-53h-4zm4,3h5v-53h-5zm5,3h4v-53h-4zm4,2h5v-53h-5zm5,3h4v-53h-4zm4,3h4v-53h-4zm4,2h5v-53h-5zm5,3h4v-53h-4zm4,3h5v-54h-5zm5,2h4v-53h-4zm4,3h4v-53h-4zm4,3h5v-54h-5zm5,2h4v-53h-4zm4,3h5v-53h-5zm5,3h4v-54h-4zm4,2h4v-53h-4zm4,3h5v-53h-5zm5,3h4v-54h-4zm4,2h5v-53h-5zm5,3h4v-53h-4zm4,3h4v-54h-4zm4,2h5v-53h-5zm5,3h4v-53h-4zm4,3h5v-54h-5zm5,2h4v-53h-4zm4,3h4v-53h-4zm4,3h5v-54h-5zm5,2h4v-53h-4zm4,3h5v-53h-5zm5,3h4v-54h-4zm4,2h4v-53h-4zm4,3h5v-53h-5zm5,3h4v-54h-4zm4,2h5v-53h-5zm5,3h4v-53h-4zm4,3h4v-54h-4zm4,2h5v-53h-5zm5,3h4v-53h-4zm4,2h5v-53h-5zm5,3h4v-53h-4zm4,3h4v-53h-4zm4,2h5v-53h-5zm5,3h4v-53h-4zm4,3h5v-53h-5zm5,2h4v-53h-4zm4,3h4v-53h-4zm4,3h5v-53h-5zm5,2h4v-53h-4zm4,3h5v-53h-5zm5,3h4v-53h-4zm4,2h4v-53h-4zm4,3h5v-53h-5zm5,3h4v-53h-4zm4,2h5v-53h-5zm5,3h4v-53h-4zm4,3h4v-53h-4zm4,2h5v-53h-5zm5,3h4v-53h-4zm4,3h5v-54h-5zm5,2h4v-53h-4zm4,3h4v-53h-4zm4,3h5v-54h-5zm5,2h4v-53h-4zm4,3h5v-53h-5zm5,3h4v-54h-4zm4,2h4v-53h-4zm4,3h5v-53h-5zm5,3h4v-54h-4zm4,2h5v-53h-5zm5,3h4v-53h-4zm4,3h4v-54h-4zm4,2h5v-53h-5zm5,3h4v-53h-4zm4,3h5v-54h-5zm5,2h4v-53h-4zm4,3h4v-53h-4zm4,3h5v-54h-5zm5,2h4v-53h-4zm4,3h5v-53h-5zm5,3h4v-54h-4zm4,2h4v-53h-4zm4,3h5v-53h-5zm5,3h4v-54h-4zm4,2h5v-53h-5zm5,3h4v-53h-4zm4,3h4v-54h-4zm4,2h5v-53h-5zm5,3h4v-53h-4zm4,2h5v-53h-5zm5,3h4v-53h-4zm4,3h4v-53h-4zm4,2h5v-53h-5zm5,3h4v-53h-4zm4,3h5v-53h-5zm5,2h4v-53h-4zm4,3h4v-53h-4zm4,3h5v-53h-5zm5,2h4v-53h-4zm4,3h5v-53h-5zm5,3h4v-53h-4zm4,2h4v-53h-4zm4,3h5v-53h-5zm5,3h4v-53h-4zm4,2h5v-53h-5zm5,3h4v-53h-4zm4,3h4v-53h-4zm4,2h5v-53h-5zm5,3h4v-53h-4zm4,3h5v-54h-5zm5,2h4v-53h-4zm4,3h4v-53h-4zm4,3h5v-54h-5zm5,2h4v-53h-4zm4,3h5v-53h-5zm5,3h4v-54h-4zm4,2h4v-53h-4zm4,3h5v-53h-5zm5,3h4v-54h-4zm4,2h5v-53h-5zm5,3h4v-53h-4zm4,3h1v-54h-1z"></path>
     <path style="fill: rgb(170, 189, 105);" d="M264,0h4v-1h-4zm4,3h5v-4h-5zm5,2h4v-6h-4zm4,3h5v-9h-5zm5,3h4v-12h-4zm4,2h4v-14h-4zm4,3h5v-17h-5zm5,3h4v-20h-4zm4,2h5v-22h-5zm5,3h4v-25h-4zm4,3h4v-28h-4zm4,2h5v-30h-5zm5,3h4v-33h-4zm4,3h5v-36h-5zm5,2h4v-38h-4zm4,3h4v-41h-4zm4,3h5v-44h-5zm5,2h4v-46h-4zm4,3h5v-49h-5zm5,3h4v-52h-4zm4,2h4v-53h-4zm4,3h5v-53h-5zm5,3h4v-54h-4zm4,2h5v-53h-5zm5,3h4v-53h-4zm4,3h4v-54h-4zm4,2h5v-53h-5zm5,3h4v-53h-4zm4,2h5v-53h-5zm5,3h4v-53h-4zm4,3h4v-53h-4zm4,2h5v-53h-5zm5,3h4v-53h-4zm4,3h5v-53h-5zm5,2h4v-53h-4zm4,3h4v-53h-4zm4,3h5v-53h-5zm5,2h4v-53h-4zm4,3h5v-53h-5zm5,3h4v-53h-4zm4,2h4v-53h-4zm4,3h5v-53h-5zm5,3h4v-53h-4zm4,2h5v-53h-5zm5,3h4v-53h-4zm4,3h4v-53h-4zm4,2h5v-53h-5zm5,3h4v-53h-4zm4,3h5v-54h-5zm5,2h4v-53h-4zm4,3h4v-53h-4zm4,3h5v-54h-5zm5,2h4v-53h-4zm4,3h5v-53h-5zm5,3h4v-54h-4zm4,2h4v-53h-4zm4,3h5v-53h-5zm5,3h4v-54h-4zm4,2h5v-53h-5zm5,3h4v-53h-4zm4,3h4v-54h-4zm4,2h5v-53h-5zm5,3h4v-53h-4zm4,3h5v-54h-5zm5,2h4v-53h-4zm4,3h4v-53h-4zm4,3h5v-54h-5zm5,2h4v-53h-4zm4,3h5v-53h-5zm5,3h4v-54h-4zm4,2h4v-53h-4zm4,3h5v-53h-5zm5,3h4v-54h-4zm4,2h5v-53h-5zm5,3h4v-53h-4zm4,3h4v-54h-4zm4,2h5v-53h-5zm5,3h4v-53h-4zm4,2h5v-53h-5zm5,3h4v-53h-4zm4,3h4v-53h-4zm4,2h5v-53h-5zm5,3h4v-53h-4zm4,3h5v-53h-5zm5,2h4v-53h-4zm4,3h4v-53h-4zm4,3h5v-53h-5zm5,2h4v-53h-4zm4,3h5v-53h-5zm5,3h4v-53h-4zm4,2h4v-53h-4zm4,3h5v-53h-5zm5,3h4v-53h-4zm4,2h5v-53h-5zm5,3h4v-53h-4zm4,3h4v-53h-4zm4,2h5v-53h-5zm5,3h4v-53h-4zm4,3h5v-54h-5zm5,2h4v-53h-4zm4,3h4v-53h-4zm4,3h5v-54h-5zm5,2h4v-53h-4zm4,3h5v-53h-5zm5,3h4v-54h-4zm4,2h4v-53h-4zm4,3h5v-53h-5zm5,3h4v-54h-4zm4,2h5v-53h-5zm5,3h4v-53h-4zm4,3h4v-54h-4zm4,2h5v-53h-5zm5,3h4v-53h-4zm4,3h5v-54h-5zm5,2h4v-53h-4zm4,3h4v-53h-4zm4,3h5v-54h-5zm5,2h4v-53h-4zm4,3h5v-53h-5zm5,3h4v-54h-4zm4,2h4v-53h-4zm4,3h5v-53h-5zm5,3h4v-54h-4zm4,2h5v-53h-5zm5,3h4v-53h-4zm4,3h4v-54h-4zm4,2h5v-53h-5zm5,3h4v-53h-4zm4,2h5v-53h-5zm5,3h4v-53h-4zm4,3h4v-53h-4zm4,2h5v-53h-5zm5,3h4v-53h-4zm4,3h5v-53h-5zm5,2h4v-53h-4zm4,3h4v-53h-4zm4,3h5v-53h-5zm5,2h4v-53h-4zm4,3h5v-53h-5zm5,3h4v-53h-4zm4,2h1v-53h-1z"></path>
     <path style="fill: rgb(201, 187, 92);" d="M352,0h4v-1h-4zm4,3h5v-4h-5zm5,2h4v-6h-4zm4,3h5v-9h-5zm5,3h4v-12h-4zm4,2h4v-14h-4zm4,3h5v-17h-5zm5,3h4v-20h-4zm4,2h5v-22h-5zm5,3h4v-25h-4zm4,3h4v-28h-4zm4,2h5v-30h-5zm5,3h4v-33h-4zm4,3h5v-36h-5zm5,2h4v-38h-4zm4,3h4v-41h-4zm4,3h5v-44h-5zm5,2h4v-46h-4zm4,3h5v-49h-5zm5,3h4v-52h-4zm4,2h4v-53h-4zm4,3h5v-53h-5zm5,3h4v-54h-4zm4,2h5v-53h-5zm5,3h4v-53h-4zm4,3h4v-54h-4zm4,2h5v-53h-5zm5,3h4v-53h-4zm4,2h5v-53h-5zm5,3h4v-53h-4zm4,3h4v-53h-4zm4,2h5v-53h-5zm5,3h4v-53h-4zm4,3h5v-53h-5zm5,2h4v-53h-4zm4,3h4v-53h-4zm4,3h5v-53h-5zm5,2h4v-53h-4zm4,3h5v-53h-5zm5,3h4v-53h-4zm4,2h4v-53h-4zm4,3h5v-53h-5zm5,3h4v-53h-4zm4,2h5v-53h-5zm5,3h4v-53h-4zm4,3h4v-53h-4zm4,2h5v-53h-5zm5,3h4v-53h-4zm4,3h5v-54h-5zm5,2h4v-53h-4zm4,3h4v-53h-4zm4,3h5v-54h-5zm5,2h4v-53h-4zm4,3h5v-53h-5zm5,3h4v-54h-4zm4,2h4v-53h-4zm4,3h5v-53h-5zm5,3h4v-54h-4zm4,2h5v-53h-5zm5,3h4v-53h-4zm4,3h4v-54h-4zm4,2h5v-53h-5zm5,3h4v-53h-4zm4,3h5v-54h-5zm5,2h4v-53h-4zm4,3h4v-53h-4zm4,3h5v-54h-5zm5,2h4v-53h-4zm4,3h5v-53h-5zm5,3h4v-54h-4zm4,2h4v-53h-4zm4,3h5v-53h-5zm5,3h4v-54h-4zm4,2h5v-53h-5zm5,3h4v-53h-4zm4,3h4v-54h-4zm4,2h5v-53h-5zm5,3h4v-53h-4zm4,2h5v-53h-5zm5,3h4v-53h-4zm4,3h4v-53h-4zm4,2h5v-53h-5zm5,3h4v-53h-4zm4,3h5v-53h-5zm5,2h4v-53h-4zm4,3h4v-53h-4zm4,3h5v-53h-5zm5,2h4v-53h-4zm4,3h5v-53h-5zm5,3h4v-53h-4zm4,2h4v-53h-4zm4,3h5v-53h-5zm5,3h4v-53h-4zm4,2h5v-53h-5zm5,3h4v-53h-4zm4,3h4v-53h-4zm4,2h5v-53h-5zm5,3h4v-53h-4zm4,3h5v-54h-5zm5,2h4v-53h-4zm4,3h4v-53h-4zm4,3h5v-54h-5zm5,2h4v-53h-4zm4,3h5v-53h-5zm5,3h4v-54h-4zm4,2h4v-53h-4zm4,3h5v-53h-5zm5,3h4v-54h-4zm4,2h5v-53h-5zm5,3h4v-53h-4zm4,3h4v-54h-4zm4,2h5v-53h-5zm5,3h4v-53h-4zm4,3h5v-54h-5zm5,2h4v-53h-4zm4,3h4v-53h-4zm4,3h5v-54h-5zm5,2h4v-53h-4zm4,3h5v-53h-5zm5,3h4v-54h-4zm4,2h1v-53h-1z"></path>
     <path style="fill: rgb(223, 191, 77);" d="M440,0h4v-1h-4zm4,3h5v-4h-5zm5,2h4v-6h-4zm4,3h5v-9h-5zm5,3h4v-12h-4zm4,2h4v-14h-4zm4,3h5v-17h-5zm5,3h4v-20h-4zm4,2h5v-22h-5zm5,3h4v-25h-4zm4,3h4v-28h-4zm4,2h5v-30h-5zm5,3h4v-33h-4zm4,3h5v-36h-5zm5,2h4v-38h-4zm4,3h4v-41h-4zm4,3h5v-44h-5zm5,2h4v-46h-4zm4,3h5v-49h-5zm5,3h4v-52h-4zm4,2h4v-53h-4zm4,3h5v-53h-5zm5,3h4v-54h-4zm4,2h5v-53h-5zm5,3h4v-53h-4zm4,3h4v-54h-4zm4,2h5v-53h-5zm5,3h4v-53h-4zm4,2h5v-53h-5zm5,3h4v-53h-4zm4,3h4v-53h-4zm4,2h5v-53h-5zm5,3h4v-53h-4zm4,3h5v-53h-5zm5,2h4v-53h-4zm4,3h4v-53h-4zm4,3h5v-53h-5zm5,2h4v-53h-4zm4,3h5v-53h-5zm5,3h4v-53h-4zm4,2h4v-53h-4zm4,3h5v-53h-5zm5,3h4v-53h-4zm4,2h5v-53h-5zm5,3h4v-53h-4zm4,3h4v-53h-4zm4,2h5v-53h-5zm5,3h4v-53h-4zm4,3h5v-54h-5zm5,2h4v-53h-4zm4,3h4v-53h-4zm4,3h5v-54h-5zm5,2h4v-53h-4zm4,3h5v-53h-5zm5,3h4v-54h-4zm4,2h4v-53h-4zm4,3h5v-53h-5zm5,3h4v-54h-4zm4,2h5v-53h-5zm5,3h4v-53h-4zm4,3h4v-54h-4zm4,2h5v-53h-5zm5,3h4v-53h-4zm4,3h5v-54h-5zm5,2h4v-53h-4zm4,3h4v-53h-4zm4,3h5v-54h-5zm5,2h4v-53h-4zm4,3h5v-53h-5zm5,3h4v-54h-4zm4,2h4v-53h-4zm4,3h5v-53h-5zm5,3h4v-54h-4zm4,2h5v-53h-5zm5,3h4v-53h-4zm4,3h4v-54h-4zm4,2h5v-53h-5zm5,3h4v-53h-4zm4,2h5v-53h-5zm5,3h4v-53h-4zm4,3h4v-53h-4zm4,2h5v-53h-5zm5,3h4v-53h-4zm4,3h5v-53h-5zm5,2h4v-53h-4zm4,3h4v-53h-4zm4,3h5v-53h-5zm5,2h4v-53h-4zm4,3h5v-53h-5zm5,3h4v-53h-4zm4,2h4v-53h-4zm4,3h5v-53h-5zm5,3h4v-53h-4zm4,2h5v-53h-5zm5,3h4v-53h-4zm4,3h4v-53h-4zm4,2h5v-53h-5zm5,3h4v-53h-4zm4,3h5v-54h-5zm5,2h4v-53h-4zm4,3h1v-53h-1z"></path>
     <path style="fill: rgb(242, 197, 60);" d="M528,0h4v-1h-4zm4,3h5v-4h-5zm5,2h4v-6h-4zm4,3h5v-9h-5zm5,3h4v-12h-4zm4,2h4v-14h-4zm4,3h5v-17h-5zm5,3h4v-20h-4zm4,2h5v-22h-5zm5,3h4v-25h-4zm4,3h4v-28h-4zm4,2h5v-30h-5zm5,3h4v-33h-4zm4,3h5v-36h-5zm5,2h4v-38h-4zm4,3h4v-41h-4zm4,3h5v-44h-5zm5,2h4v-46h-4zm4,3h5v-49h-5zm5,3h4v-52h-4zm4,2h4v-53h-4zm4,3h5v-53h-5zm5,3h4v-54h-4zm4,2h5v-53h-5zm5,3h4v-53h-4zm4,3h4v-54h-4zm4,2h5v-53h-5zm5,3h4v-53h-4zm4,2h5v-53h-5zm5,3h4v-53h-4zm4,3h4v-53h-4zm4,2h5v-53h-5zm5,3h4v-53h-4zm4,3h5v-53h-5zm5,2h4v-53h-4zm4,3h4v-53h-4zm4,3h5v-53h-5zm5,2h4v-53h-4zm4,3h5v-53h-5zm5,3h4v-53h-4zm4,2h4v-53h-4zm4,3h5v-53h-5zm5,3h4v-53h-4zm4,2h5v-53h-5zm5,3h4v-53h-4zm4,3h4v-53h-4zm4,2h5v-53h-5zm5,3h4v-53h-4zm4,3h5v-54h-5zm5,2h4v-53h-4zm4,3h4v-53h-4zm4,3h5v-54h-5zm5,2h4v-53h-4zm4,3h5v-53h-5zm5,3h4v-54h-4zm4,2h4v-53h-4zm4,3h5v-53h-5zm5,3h4v-54h-4zm4,2h5v-53h-5zm5,3h4v-53h-4zm4,3h4v-54h-4zm4,2h5v-53h-5zm5,3h4v-53h-4zm4,3h5v-54h-5zm5,2h4v-53h-4zm4,3h4v-53h-4zm4,3h5v-54h-5zm5,2h4v-53h-4zm4,3h5v-53h-5zm5,3h4v-54h-4zm4,2h4v-53h-4zm4,3h5v-53h-5zm5,3h4v-54h-4zm4,2h5v-53h-5zm5,3h4v-53h-4zm4,3h4v-54h-4zm4,2h5v-53h-5zm5,3h4v-53h-4zm4,2h5v-53h-5zm5,3h4v-53h-4zm4,3h1v-53h-1z"></path>
     <path style="fill: rgb(253, 208, 44);" d="M616,0h4v-1h-4zm4,3h5v-4h-5zm5,2h4v-6h-4zm4,3h5v-9h-5zm5,3h4v-12h-4zm4,2h4v-14h-4zm4,3h5v-17h-5zm5,3h4v-20h-4zm4,2h5v-22h-5zm5,3h4v-25h-4zm4,3h4v-28h-4zm4,2h5v-30h-5zm5,3h4v-33h-4zm4,3h5v-36h-5zm5,2h4v-38h-4zm4,3h4v-41h-4zm4,3h5v-44h-5zm5,2h4v-46h-4zm4,3h5v-49h-5zm5,3h4v-52h-4zm4,2h4v-53h-4zm4,3h5v-53h-5zm5,3h4v-54h-4zm4,2h5v-53h-5zm5,3h4v-53h-4zm4,3h4v-54h-4zm4,2h5v-53h-5zm5,3h4v-53h-4zm4,2h5v-53h-5zm5,3h4v-53h-4zm4,3h4v-53h-4zm4,2h5v-53h-5zm5,3h4v-53h-4zm4,3h5v-53h-5zm5,2h4v-53h-4zm4,3h4v-53h-4zm4,3h5v-53h-5zm5,2h4v-53h-4zm4,3h5v-53h-5zm5,3h4v-53h-4zm4,2h4v-53h-4zm4,3h5v-53h-5zm5,3h4v-53h-4zm4,2h5v-53h-5zm5,3h4v-53h-4zm4,3h4v-53h-4zm4,2h5v-53h-5zm5,3h4v-53h-4zm4,3h5v-54h-5zm5,2h4v-53h-4zm4,3h4v-53h-4zm4,3h5v-54h-5zm5,2h4v-53h-4zm4,3h5v-53h-5zm5,3h4v-54h-4zm4,2h4v-53h-4zm4,3h5v-53h-5zm5,3h4v-54h-4zm4,2h5v-53h-5zm5,3h4v-53h-4zm4,3h1v-54h-1z"></path>
     <path style="fill: rgb(251, 230, 29);" d="M704,0h4v-1h-4zm4,3h5v-4h-5zm5,2h4v-6h-4zm4,3h5v-9h-5zm5,3h4v-12h-4zm4,2h4v-14h-4zm4,3h5v-17h-5zm5,3h4v-20h-4zm4,2h5v-22h-5zm5,3h4v-25h-4zm4,3h4v-28h-4zm4,2h5v-30h-5zm5,3h4v-33h-4zm4,3h5v-36h-5zm5,2h4v-38h-4zm4,3h4v-41h-4zm4,3h5v-44h-5zm5,2h4v-46h-4zm4,3h5v-49h-5zm5,3h4v-52h-4zm4,2h4v-53h-4zm4,3h5v-53h-5zm5,3h4v-54h-4zm4,2h5v-53h-5zm5,3h4v-53h-4zm4,3h4v-54h-4zm4,2h5v-53h-5zm5,3h4v-53h-4zm4,2h5v-53h-5zm5,3h4v-53h-4zm4,3h4v-53h-4zm4,2h5v-53h-5zm5,3h4v-53h-4zm4,3h5v-53h-5zm5,2h4v-53h-4zm4,3h4v-53h-4zm4,3h5v-53h-5zm5,2h4v-53h-4zm4,3h5v-53h-5zm5,3h4v-53h-4zm4,2h1v-53h-1z"></path>
     <path style="fill: rgb(249, 251, 14);" d="M792,0h4v-1h-4zm4,3h5v-4h-5zm5,2h4v-6h-4zm4,3h5v-9h-5zm5,3h4v-12h-4zm4,2h4v-14h-4zm4,3h5v-17h-5zm5,3h4v-20h-4zm4,2h5v-22h-5zm5,3h4v-25h-4zm4,3h4v-28h-4zm4,2h5v-30h-5zm5,3h4v-33h-4zm4,3h5v-36h-5zm5,2h4v-38h-4zm4,3h4v-41h-4zm4,3h5v-44h-5zm5,2h4v-46h-4zm4,3h5v-49h-5zm5,3h4v-52h-4zm4,2h1v-54h-1z"></path>
    </g>
   </svg>
   <g>
    <g transform="translate(0,532)">
     <path d="M0,-14V0M37,-7V0M73,-7V0M110,-7V0M147,-14V0M183,-7V0M220,-7V0M257,-7V0M293,-14V0M330,-7V0M367,-7V0M403,-7V0M440,-14V0M477,-7V0M513,-7V0M550,-7V0M587,-14V0M623,-7V0M660,-7V0M697,-7V0M733,-14V0M770,-7V0M807,-7V0M843,-7V0M880,-14V0" style="stroke: black;"></path>
     <g font-family="Arial" font-size="21" space="preserve">
      <text text-anchor="middle" dy=".8em" transform="translate(0,4)">
       400
      </text>
      <text text-anchor="middle" dy=".8em" transform="translate(147,4)">
       600
      </text>
      <text text-anchor="middle" dy=".8em" transform="translate(293,4)">
       800
      </text>
      <text text-anchor="middle" dy=".8em" transform="translate(440,4)">
       1000
      </text>
      <text text-anchor="middle" dy=".8em" transform="translate(587,4)">
       1200
      </text>
      <text text-anchor="middle" dy=".8em" transform="translate(733,4)">
       1400
      </text>
      <text text-anchor="middle" dy=".8em" transform="translate(880,4)">
       1600
      </text>
     </g>
    </g>
    <g transform="translate(0,532)">
     <path d="M20,0H0M10,-22H0M10,-44H0M10,-66H0M20,-89H0M10,-111H0M10,-133H0M10,-155H0M20,-177H0M10,-199H0M10,-222H0M10,-244H0M20,-266H0M10,-288H0M10,-310H0M10,-332H0M20,-355H0M10,-377H0M10,-399H0M10,-421H0M20,-443H0M10,-465H0M10,-488H0M10,-510H0M20,-532H0" style="stroke: black;"></path>
     <g font-family="Arial" font-size="21" space="preserve">
      <text text-anchor="end" dy=".4em" transform="translate(-5)">
       400
      </text>
      <text text-anchor="end" dy=".4em" transform="translate(-5,-89)">
       600
      </text>
      <text text-anchor="end" dy=".4em" transform="translate(-5,-177)">
       800
      </text>
      <text text-anchor="end" dy=".4em" transform="translate(-5,-266)">
       1000
      </text>
      <text text-anchor="end" dy=".4em" transform="translate(-5,-355)">
       1200
      </text>
      <text text-anchor="end" dy=".4em" transform="translate(-5,-443)">
       1400
      </text>
      <text text-anchor="end" dy=".4em" transform="translate(-5,-532)">
       1600
      </text>
     </g>
    </g>
   </g>
  </g>
  <g transform="translate(70,35)" font-family="Arial" font-size="49" space="preserve">
   <text fill="black" text-anchor="middle" dy=".4em" transform="translate(440,18)">
    Large RH2D histogram with 2000 x 2000 bins
   </text>
  </g>
  <g transform="translate(630,98)">
   <rect x="0" width="300" y="0" height="210" style="stroke: black; stroke-width: 1; fill: #0000FF;"></rect>
   <g font-family="Arial" font-size="17" space="preserve">
    <text fill="black" text-anchor="middle" dy=".4em" transform="translate(150,11)">
     hist
    </text>
    <text fill="black" text-anchor="start" dy=".4em" transform="translate(6,32)">
     Entries
    </text>
    <text fill="black" text-anchor="end" dy=".4em" transform="translate(294,32)">
     1
    </text>
    <text fill="black" text-anchor="start" dy=".4em" transform="translate(6,53)">
     Mean x
    </text>
    <text fill="black" text-anchor="end" dy=".4em" transform="translate(294,53)">
     2
    </text>
    <text fill="black" text-anchor="start" dy=".4em" transform="translate(6,74)">
     Mean y
    </text>
    <text fill="black" text-anchor="end" dy=".4em" transform="translate(294,74)">
     3
    </text>
    <text fill="black" text-anchor="start" dy=".4em" transform="translate(6,95)">
     Std dev x
    </text>
    <text fill="black" text-anchor="end" dy=".4em" transform="translate(294,95)">
     5
    </text>
    <text fill="black" text-anchor="start" dy=".4em" transform="translate(6,116)">
     Std dev y
    </text>
    <text fill="black" text-anchor="end" dy=".4em" transform="translate(294,116)">
     6
    </text>
    <text fill="black" text-anchor="start" dy=".4em" transform="translate(6,137)">
     X min
    </text>
    <text fill="black" text-anchor="end" dy=".4em" transform="translate(294,137)">
     400.000000
    </text>
    <text fill="black" text-anchor="start" dy=".4em" transform="translate(6,158)">
     X max
    </text>
    <text fill="black" text-anchor="end" dy=".4em" transform="translate(294,158)">
     1600.000000
    </text>
    <text fill="black" text-anchor="start" dy=".4em" transform="translate(6,179)">
     Y min
    </text>
    <text fill="black" text-anchor="end" dy=".4em" transform="translate(294,179)">
     400.000000
    </text>
    <text fill="black" text-anchor="start" dy=".4em" transform="translate(6,200)">
     Y max
    </text>
    <text fill="black" text-anchor="end" dy=".4em" transform="translate(294,200)">
     1600.000000
    </text>
   </g>
   <path d="M0,21h300"></path>
  </g>
 </g>
</svg>