<svg width="1000" height="700" viewBox="0 0 1000 700" preserveAspectRatio="none" xmlns="http://www.w3.org/2000/svg">
 <path d="M0,0H1000V700H0Z" style="fill: white;"></path>
 <g>
  <g transform="translate(100,70)">
   <rect x="0" y="0" width="700" height="560" style="fill: none; stroke: black; stroke-width: 1;"></rect>
   <svg x="0" y="0" overflow="hidden" width="700" height="560" viewBox="0 0 700 560">
    <g>
     <path d="M0,0h58v-47h-58zM700,560h58v-47h-58z" style="fill: #352A87;"></path>
     <path d="M0,47h58v-47h-58zm58,0h59v-47h-59zm584,0h58v-94h-58zm58,466h58v-46h-58zM700,93h58v-140h-58z" style="fill: rgb(37, 63, 171);"></path>
     <path d="M0,93h58v-46h-58zM58,0h59v-47h-59zm59,0h58v-47h-58zM525,0h58v-47h-58zm58,560h59v-47h-59zM583,47h59v-94h-59zm59,513h58v-47h-58zM642,93h58v-46h-58zm58,374h58v-47h-58zm0,-327h58v-47h-58z" style="fill: rgb(21, 84, 207);"></path>
     <path d="M0,560h58v-93h-58zm58,0h59v-47h-59zM233,0h59v-47h-59zM350,0h58v-47h-58zm58,0h59v-47h-59zM642,140h58v-47h-58zm58,280h58v-47h-58zm0,-187h58v-93h-58z" style="fill: rgb(16, 102, 219);"></path>
     <path d="M0,187h58v-47h-58zM58,93h59v-46h-59zm59,467h58v-93h-58zM175,0h58v-47h-58zM408,47h59v-47h-59zM467,0h58v-47h-58zm58,560h58v-47h-58zm58,-47h59v-46h-59zM583,93h59v-46h-59zm59,420h58v-93h-58zm0,-326h58v-47h-58zm58,186h58v-140h-58z" style="fill: rgb(18, 117, 216);"></path>
     <path d="M0,467h58v-47h-58zM0,140h58v-47h-58zM58,513h59v-46h-59zM58,140h59v-47h-59zM175,560h58v-47h-58zM175,47h58v-47h-58zm58,513h59v-47h-59zM350,47h58v-47h-58zM467,560h58v-47h-58zM525,47h58v-47h-58zM642,420h58v-47h-58z" style="fill: rgb(19, 133, 213);"></path>
     <path d="M0,373h58v-46h-58zM0,280h58v-93h-58zM117,93h58v-46h-58zm58,420h58v-46h-58zm117,47h58v-47h-58zM292,0h58v-47h-58zM408,560h59v-47h-59zM408,93h59v-46h-59zm59,0h58v-93h-58zm58,0h58v-46h-58zm58,94h59v-47h-59zm59,93h58v-93h-58z" style="fill: rgb(13, 147, 208);"></path>
     <path d="M0,420h58v-47h-58zM0,327h58v-47h-58zm58,46h59v-46h-59zm0,-93h59v-47h-59zm59,187h58v-47h-58zm0,-280h58v-94h-58zM117,47h58v-47h-58zm58,46h58v-46h-58zm58,420h59v-46h-59zM292,47h58v-47h-58zm58,513h58v-47h-58zM350,93h58v-46h-58zM525,513h58v-46h-58zm0,-373h58v-47h-58zm58,327h59v-47h-59zm0,-187h59v-47h-59zm59,93h58v-93h-58z" style="fill: rgb(7, 162, 203);"></path>
     <path d="M58,467h59v-94h-59zM233,47h59v-47h-59zm59,466h58v-46h-58zM292,93h58v-46h-58zm58,420h58v-46h-58zm58,0h59v-46h-59zm59,0h58v-93h-58zm58,-46h58v-94h-58zm58,-47h59v-47h-59zm0,-93h59v-47h-59zm0,-187h59v-47h-59z" style="fill: rgb(21, 171, 188);"></path>
     <path d="M58,233h59v-46h-59zm59,187h58v-47h-58zM233,93h59v-46h-59zm292,94h58v-47h-58zm58,186h59v-46h-59zm0,-140h59v-46h-59z" style="fill: rgb(38, 179, 172);"></path>
     <path d="M58,327h59v-47h-59zM58,187h59v-47h-59zM175,467h58v-47h-58zm0,-234h58v-46h-58zm0,-93h58v-47h-58zm233,0h59v-47h-59zM525,373h58v-93h-58zm0,-140h58v-46h-58z" style="fill: rgb(65, 185, 155);"></path>
     <path d="M117,373h58v-46h-58zM175,187h58v-47h-58zm58,280h59v-47h-59zm0,-327h59v-47h-59zm59,280h58v-47h-58zm58,47h58v-47h-58zm0,-327h58v-47h-58zm58,327h59v-47h-59z" style="fill: rgb(102, 188, 136);"></path>
     <path d="M117,327h58v-47h-58zm0,-94h58v-46h-58zM233,420h59v-47h-59zm59,47h58v-47h-58zm0,-327h58v-47h-58zm58,280h58v-47h-58zm58,0h59v-47h-59zm59,0h58v-47h-58zm0,-93h58v-47h-58zm0,-187h58v-47h-58zm58,140h58v-47h-58z" style="fill: rgb(139, 191, 117);"></path>
     <path d="M175,420h58v-47h-58zm0,-93h58v-47h-58zm175,0h58v-47h-58zM408,187h59v-47h-59zm59,0h58v-47h-58z" style="fill: rgb(170, 189, 105);"></path>
     <path d="M117,280h58v-47h-58zm58,93h58v-46h-58zm0,-93h58v-47h-58zm58,-93h59v-47h-59zm59,186h58v-46h-58zm0,-93h58v-47h-58zm0,-93h58v-47h-58zM467,373h58v-46h-58z" style="fill: rgb(201, 187, 92);"></path>
     <path d="M233,373h59v-46h-59zm117,0h58v-46h-58zm0,-93h58v-47h-58zm0,-93h58v-47h-58zm58,140h59v-47h-59zm59,-94h58v-46h-58z" style="fill: rgb(223, 191, 77);"></path>
     <path d="M233,233h59v-46h-59zm234,47h58v-47h-58z" style="fill: rgb(242, 197, 60);"></path>
     <path d="M233,327h59v-47h-59zm59,0h58v-47h-58zm58,-94h58v-46h-58zm58,140h59v-46h-59z" style="fill: rgb(253, 208, 44);"></path>
     <path d="M233,280h59v-47h-59zm59,-47h58v-46h-58zm116,47h59v-47h-59z" style="fill: rgb(251, 230, 29);"></path>
     <path d="M408,233h59v-46h-59z" style="fill: #F9FB0E;"></path>
     <g font-family="Arial" font-size="28" xml:space="preserve" fill="black" text-anchor="middle"><text dominant-baseline="middle" transform="translate(29,537)">21</text><text dominant-baseline="middle" transform="translate(29,491)">22</text><text dominant-baseline="middle" transform="translate(29,444)">35</text><text dominant-baseline="middle" transform="translate(29,397)">42</text><text dominant-baseline="middle" transform="translate(29,351)">37</text><text dominant-baseline="middle" transform="translate(29,304)">43</text><text dominant-baseline="middle" transform="translate(29,257)">39</text><text dominant-baseline="middle" transform="translate(29,211)">40</text><text dominant-baseline="middle" transform="translate(29,164)">28</text><text dominant-baseline="middle" transform="translate(29,117)">30</text><text dominant-baseline="middle" transform="translate(29,71)">16</text><text dominant-baseline="middle" transform="translate(29,24)">13</text><text dominant-baseline="middle" transform="translate(29,-23)">3</text><text dominant-baseline="middle" transform="translate(88,537)">22</text><text dominant-baseline="middle" transform="translate(88,491)">32</text><text dominant-baseline="middle" transform="translate(88,444)">48</text><text dominant-baseline="middle" transform="translate(88,397)">51</text><text dominant-baseline="middle" transform="translate(88,351)">43</text><text dominant-baseline="middle" transform="translate(88,304)">58</text><text dominant-baseline="middle" transform="translate(88,257)">43</text><text dominant-baseline="middle" transform="translate(88,211)">55</text><text dominant-baseline="middle" transform="translate(88,164)">60</text><text dominant-baseline="middle" transform="translate(88,117)">35</text><text dominant-baseline="middle" transform="translate(88,71)">27</text><text dominant-baseline="middle" transform="translate(88,24)">10</text><text dominant-baseline="middle" transform="translate(88,-23)">18</text><text dominant-baseline="middle" transform="translate(146,537)">28</text><text dominant-baseline="middle" transform="translate(146,491)">29</text><text dominant-baseline="middle" transform="translate(146,444)">41</text><text dominant-baseline="middle" transform="translate(146,397)">55</text><text dominant-baseline="middle" transform="translate(146,351)">66</text><text dominant-baseline="middle" transform="translate(146,304)">72</text><text dominant-baseline="middle" transform="translate(146,257)">78</text><text dominant-baseline="middle" transform="translate(146,211)">72</text><text dominant-baseline="middle" transform="translate(146,164)">44</text><text dominant-baseline="middle" transform="translate(146,117)">42</text><text dominant-baseline="middle" transform="translate(146,71)">40</text><text dominant-baseline="middle" transform="translate(146,24)">44</text><text dominant-baseline="middle" transform="translate(146,-23)">14</text><text dominant-baseline="middle" transform="translate(204,537)">35</text><text dominant-baseline="middle" transform="translate(204,491)">39</text><text dominant-baseline="middle" transform="translate(204,444)">60</text><text dominant-baseline="middle" transform="translate(204,397)">75</text><text dominant-baseline="middle" transform="translate(204,351)">82</text><text dominant-baseline="middle" transform="translate(204,304)">73</text><text dominant-baseline="middle" transform="translate(204,257)">80</text><text dominant-baseline="middle" transform="translate(204,211)">60</text><text dominant-baseline="middle" transform="translate(204,164)">67</text><text dominant-baseline="middle" transform="translate(204,117)">58</text><text dominant-baseline="middle" transform="translate(204,71)">42</text><text dominant-baseline="middle" transform="translate(204,24)">30</text><text dominant-baseline="middle" transform="translate(204,-23)">28</text><text dominant-baseline="middle" transform="translate(263,537)">33</text><text dominant-baseline="middle" transform="translate(263,491)">44</text><text dominant-baseline="middle" transform="translate(263,444)">66</text><text dominant-baseline="middle" transform="translate(263,397)">68</text><text dominant-baseline="middle" transform="translate(263,351)">88</text><text dominant-baseline="middle" transform="translate(263,304)">95</text><text dominant-baseline="middle" transform="translate(263,257)">103</text><text dominant-baseline="middle" transform="translate(263,211)">90</text><text dominant-baseline="middle" transform="translate(263,164)">82</text><text dominant-baseline="middle" transform="translate(263,117)">63</text><text dominant-baseline="middle" transform="translate(263,71)">52</text><text dominant-baseline="middle" transform="translate(263,24)">46</text><text dominant-baseline="middle" transform="translate(263,-23)">23</text><text dominant-baseline="middle" transform="translate(321,537)">36</text><text dominant-baseline="middle" transform="translate(321,491)">50</text><text dominant-baseline="middle" transform="translate(321,444)">68</text><text dominant-baseline="middle" transform="translate(321,397)">66</text><text dominant-baseline="middle" transform="translate(321,351)">78</text><text dominant-baseline="middle" transform="translate(321,304)">96</text><text dominant-baseline="middle" transform="translate(321,257)">82</text><text dominant-baseline="middle" transform="translate(321,211)">100</text><text dominant-baseline="middle" transform="translate(321,164)">81</text><text dominant-baseline="middle" transform="translate(321,117)">70</text><text dominant-baseline="middle" transform="translate(321,71)">48</text><text dominant-baseline="middle" transform="translate(321,24)">45</text><text dominant-baseline="middle" transform="translate(321,-23)">37</text><text dominant-baseline="middle" transform="translate(379,537)">43</text><text dominant-baseline="middle" transform="translate(379,491)">49</text><text dominant-baseline="middle" transform="translate(379,444)">67</text><text dominant-baseline="middle" transform="translate(379,397)">71</text><text dominant-baseline="middle" transform="translate(379,351)">85</text><text dominant-baseline="middle" transform="translate(379,304)">77</text><text dominant-baseline="middle" transform="translate(379,257)">85</text><text dominant-baseline="middle" transform="translate(379,211)">96</text><text dominant-baseline="middle" transform="translate(379,164)">88</text><text dominant-baseline="middle" transform="translate(379,117)">67</text><text dominant-baseline="middle" transform="translate(379,71)">43</text><text dominant-baseline="middle" transform="translate(379,24)">32</text><text dominant-baseline="middle" transform="translate(379,-23)">22</text><text dominant-baseline="middle" transform="translate(438,537)">36</text><text dominant-baseline="middle" transform="translate(438,491)">46</text><text dominant-baseline="middle" transform="translate(438,444)">62</text><text dominant-baseline="middle" transform="translate(438,397)">69</text><text dominant-baseline="middle" transform="translate(438,351)">94</text><text dominant-baseline="middle" transform="translate(438,304)">87</text><text dominant-baseline="middle" transform="translate(438,257)">100</text><text dominant-baseline="middle" transform="translate(438,211)">110</text><text dominant-baseline="middle" transform="translate(438,164)">76</text><text dominant-baseline="middle" transform="translate(438,117)">57</text><text dominant-baseline="middle" transform="translate(438,71)">37</text><text dominant-baseline="middle" transform="translate(438,24)">27</text><text dominant-baseline="middle" transform="translate(438,-23)">20</text><text dominant-baseline="middle" transform="translate(496,537)">30</text><text dominant-baseline="middle" transform="translate(496,491)">49</text><text dominant-baseline="middle" transform="translate(496,444)">48</text><text dominant-baseline="middle" transform="translate(496,397)">70</text><text dominant-baseline="middle" transform="translate(496,351)">78</text><text dominant-baseline="middle" transform="translate(496,304)">70</text><text dominant-baseline="middle" transform="translate(496,257)">92</text><text dominant-baseline="middle" transform="translate(496,211)">84</text><text dominant-baseline="middle" transform="translate(496,164)">73</text><text dominant-baseline="middle" transform="translate(496,117)">72</text><text dominant-baseline="middle" transform="translate(496,71)">36</text><text dominant-baseline="middle" transform="translate(496,24)">38</text><text dominant-baseline="middle" transform="translate(496,-23)">25</text><text dominant-baseline="middle" transform="translate(554,537)">26</text><text dominant-baseline="middle" transform="translate(554,491)">45</text><text dominant-baseline="middle" transform="translate(554,444)">48</text><text dominant-baseline="middle" transform="translate(554,397)">48</text><text dominant-baseline="middle" transform="translate(554,351)">58</text><text dominant-baseline="middle" transform="translate(554,304)">59</text><text dominant-baseline="middle" transform="translate(554,257)">69</text><text dominant-baseline="middle" transform="translate(554,211)">60</text><text dominant-baseline="middle" transform="translate(554,164)">54</text><text dominant-baseline="middle" transform="translate(554,117)">41</text><text dominant-baseline="middle" transform="translate(554,71)">39</text><text dominant-baseline="middle" transform="translate(554,24)">33</text><text dominant-baseline="middle" transform="translate(554,-23)">16</text><text dominant-baseline="middle" transform="translate(613,537)">19</text><text dominant-baseline="middle" transform="translate(613,491)">26</text><text dominant-baseline="middle" transform="translate(613,444)">41</text><text dominant-baseline="middle" transform="translate(613,397)">49</text><text dominant-baseline="middle" transform="translate(613,351)">54</text><text dominant-baseline="middle" transform="translate(613,304)">49</text><text dominant-baseline="middle" transform="translate(613,257)">44</text><text dominant-baseline="middle" transform="translate(613,211)">52</text><text dominant-baseline="middle" transform="translate(613,164)">36</text><text dominant-baseline="middle" transform="translate(613,117)">46</text><text dominant-baseline="middle" transform="translate(613,71)">25</text><text dominant-baseline="middle" transform="translate(613,24)">18</text><text dominant-baseline="middle" transform="translate(613,-23)">14</text><text dominant-baseline="middle" transform="translate(671,537)">17</text><text dominant-baseline="middle" transform="translate(671,491)">29</text><text dominant-baseline="middle" transform="translate(671,444)">26</text><text dominant-baseline="middle" transform="translate(671,397)">32</text><text dominant-baseline="middle" transform="translate(671,351)">42</text><text dominant-baseline="middle" transform="translate(671,304)">42</text><text dominant-baseline="middle" transform="translate(671,257)">37</text><text dominant-baseline="middle" transform="translate(671,211)">39</text><text dominant-baseline="middle" transform="translate(671,164)">29</text><text dominant-baseline="middle" transform="translate(671,117)">20</text><text dominant-baseline="middle" transform="translate(671,71)">14</text><text dominant-baseline="middle" transform="translate(671,24)">12</text><text dominant-baseline="middle" transform="translate(671,-23)">9</text><text dominant-baseline="middle" transform="translate(729,537)">6</text><text dominant-baseline="middle" transform="translate(729,491)">13</text><text dominant-baseline="middle" transform="translate(729,444)">18</text><text dominant-baseline="middle" transform="translate(729,397)">20</text><text dominant-baseline="middle" transform="translate(729,351)">29</text><text dominant-baseline="middle" transform="translate(729,304)">28</text><text dominant-baseline="middle" transform="translate(729,257)">25</text><text dominant-baseline="middle" transform="translate(729,211)">24</text><text dominant-baseline="middle" transform="translate(729,164)">21</text><text dominant-baseline="middle" transform="translate(729,117)">16</text><text dominant-baseline="middle" transform="translate(729,71)">12</text><text dominant-baseline="middle" transform="translate(729,24)">11</text><text dominant-baseline="middle" transform="translate(729,-23)">9</text></g>
    </g>
   </svg>
   <g>
    <g transform="translate(0,560)">
     <path d="M0,-14V0M23,-7V0M47,-7V0M70,-7V0M93,-7V0M117,-14V0M140,-7V0M163,-7V0M187,-7V0M210,-7V0M233,-14V0M257,-7V0M280,-7V0M303,-7V0M327,-7V0M350,-14V0M373,-7V0M397,-7V0M420,-7V0M443,-7V0M467,-14V0M490,-7V0M513,-7V0M537,-7V0M560,-7V0M583,-14V0M607,-7V0M630,-7V0M653,-7V0M677,-7V0M700,-14V0" style="stroke: black;"></path>
     <g font-family="Arial" font-size="21" xml:space="preserve"><text text-anchor="middle" dy=".8em" transform="translate(0,4)">2</text><text text-anchor="middle" dy=".8em" transform="translate(117,4)">3</text><text text-anchor="middle" dy=".8em" transform="translate(233,4)">4</text><text text-anchor="middle" dy=".8em" transform="translate(350,4)">5</text><text text-anchor="middle" dy=".8em" transform="translate(467,4)">6</text><text text-anchor="middle" dy=".8em" transform="translate(583,4)">7</text><text text-anchor="middle" dy=".8em" transform="translate(700,4)">8</text></g>
    </g>
    <g transform="translate(0,560)">
     <path d="M20,0H0M10,-19H0M10,-37H0M10,-56H0M10,-75H0M20,-93H0M10,-112H0M10,-131H0M10,-149H0M10,-168H0M20,-187H0M10,-205H0M10,-224H0M10,-243H0M10,-261H0M20,-280H0M10,-299H0M10,-317H0M10,-336H0M10,-355H0M20,-373H0M10,-392H0M10,-411H0M10,-429H0M10,-448H0M20,-467H0M10,-485H0M10,-504H0M10,-523H0M10,-541H0M20,-560H0" style="stroke: black;"></path>
     <g font-family="Arial" font-size="21" xml:space="preserve"><text text-anchor="end" dominant-baseline="middle" transform="translate(-5)">2</text><text text-anchor="end" dominant-baseline="middle" transform="translate(-5,-93)">3</text><text text-anchor="end" dominant-baseline="middle" transform="translate(-5,-187)">4</text><text text-anchor="end" dominant-baseline="middle" transform="translate(-5,-280)">5</text><text text-anchor="end" dominant-baseline="middle" transform="translate(-5,-373)">6</text><text text-anchor="end" dominant-baseline="middle" transform="translate(-5,-467)">7</text><text text-anchor="end" dominant-baseline="middle" transform="translate(-5,-560)">8</text></g>
    </g>
    <g>
     <path d="M0,0V14M23,0V7M47,0V7M70,0V7M93,0V7M117,0V14M140,0V7M163,0V7M187,0V7M210,0V7M233,0V14M257,0V7M280,0V7M303,0V7M327,0V7M350,0V14M373,0V7M397,0V7M420,0V7M443,0V7M467,0V14M490,0V7M513,0V7M537,0V7M560,0V7M583,0V14M607,0V7M630,0V7M653,0V7M677,0V7M700,0V14" style="stroke: black;"></path>
    </g>
    <g transform="translate(700,560)">
     <path d="M0,0H-20M0,-19H-10M0,-37H-10M0,-56H-10M0,-75H-10M0,-93H-20M0,-112H-10M0,-131H-10M0,-149H-10M0,-168H-10M0,-187H-20M0,-205H-10M0,-224H-10M0,-243H-10M0,-261H-10M0,-280H-20M0,-299H-10M0,-317H-10M0,-336H-10M0,-355H-10M0,-373H-20M0,-392H-10M0,-411H-10M0,-429H-10M0,-448H-10M0,-467H-20M0,-485H-10M0,-504H-10M0,-523H-10M0,-541H-10M0,-560H-20" style="stroke: black;"></path>
    </g>
   </g>
  </g>
  <g transform="translate(100)" font-family="Arial" font-size="49" xml:space="preserve"><text fill="black" text-anchor="middle" dominant-baseline="middle" transform="translate(350,32)">2D histogram with color palette</text></g>
  <g transform="translate(820,70)">
   <g>
    <path d="M0,0H50V560H0Z" style="stroke: black; fill: none;"></path>
    <path d="M0,532H50V560H0Z" style="fill: #352A87; stroke: #352A87;"></path>
    <path d="M0,504H50V532H0Z" style="fill: rgb(37, 63, 171); stroke: rgb(37, 63, 171);"></path>
    <path d="M0,476H50V504H0Z" style="fill: rgb(21, 84, 207); stroke: rgb(21, 84, 207);"></path>
    <path d="M0,448H50V476H0Z" style="fill: rgb(16, 102, 219); stroke: rgb(16, 102, 219);"></path>
    <path d="M0,420H50V448H0Z" style="fill: rgb(18, 117, 216); stroke: rgb(18, 117, 216);"></path>
    <path d="M0,392H50V420H0Z" style="fill: rgb(19, 133, 213); stroke: rgb(19, 133, 213);"></path>
    <path d="M0,364H50V392H0Z" style="fill: rgb(13, 147, 208); stroke: rgb(13, 147, 208);"></path>
    <path d="M0,336H50V364H0Z" style="fill: rgb(7, 162, 203); stroke: rgb(7, 162, 203);"></path>
    <path d="M0,308H50V336H0Z" style="fill: rgb(21, 171, 188); stroke: rgb(21, 171, 188);"></path>
    <path d="M0,280H50V308H0Z" style="fill: rgb(38, 179, 172); stroke: rgb(38, 179, 172);"></path>
    <path d="M0,252H50V280H0Z" style="fill: rgb(65, 185, 155); stroke: rgb(65, 185, 155);"></path>
    <path d="M0,224H50V252H0Z" style="fill: rgb(102, 188, 136); stroke: rgb(102, 188, 136);"></path>
    <path d="M0,196H50V224H0Z" style="fill: rgb(139, 191, 117); stroke: rgb(139, 191, 117);"></path>
    <path d="M0,168H50V196H0Z" style="fill: rgb(170, 189, 105); stroke: rgb(170, 189, 105);"></path>
    <path d="M0,140H50V168H0Z" style="fill: rgb(201, 187, 92); stroke: rgb(201, 187, 92);"></path>
    <path d="M0,112H50V140H0Z" style="fill: rgb(223, 191, 77); stroke: rgb(223, 191, 77);"></path>
    <path d="M0,84H50V112H0Z" style="fill: rgb(242, 197, 60); stroke: rgb(242, 197, 60);"></path>
    <path d="M0,56H50V84H0Z" style="fill: rgb(253, 208, 44); stroke: rgb(253, 208, 44);"></path>
    <path d="M0,28H50V56H0Z" style="fill: rgb(251, 230, 29); stroke: rgb(251, 230, 29);"></path>
    <path d="M0,0H50V28H0Z" style="fill: #F9FB0E; stroke: #F9FB0E;"></path>
   </g>
   <g transform="translate(50,560)">
    <path d="M0,-10H-8M0,-37H-8M0,-63H-8M0,-89H-15M0,-115H-8M0,-141H-8M0,-167H-8M0,-194H-15M0,-220H-8M0,-246H-8M0,-272H-8M0,-298H-15M0,-324H-8M0,-351H-8M0,-377H-8M0,-403H-15M0,-429H-8M0,-455H-8M0,-481H-8M0,-508H-15M0,-534H-8M0,-560H-8" style="stroke: black;"></path>
    <g font-family="Arial" font-size="21" xml:space="preserve"><text text-anchor="start" dominant-baseline="middle" transform="translate(4,-89)">20</text><text text-anchor="start" dominant-baseline="middle" transform="translate(4,-194)">40</text><text text-anchor="start" dominant-baseline="middle" transform="translate(4,-298)">60</text><text text-anchor="start" dominant-baseline="middle" transform="translate(4,-403)">80</text><text text-anchor="start" dominant-baseline="middle" transform="translate(4,-508)">100</text></g>
   </g>
  </g>
  <g transform="translate(480,84)">
   <rect x="0" width="300" y="0" height="210" style="stroke: black; stroke-width: 1; fill: rgb(255, 0, 0);"></rect>
   <g font-family="Arial" font-size="18" xml:space="preserve"><text fill="black" text-anchor="middle" dominant-baseline="middle" transform="translate(150,11)">hist2</text><text fill="black" text-anchor="start" dominant-baseline="middle" transform="translate(6,32)">Entries </text><text fill="black" text-anchor="end" dominant-baseline="middle" transform="translate(294,32)"> 1</text><text fill="black" text-anchor="start" dominant-baseline="middle" transform="translate(6,53)">Mean x </text><text fill="black" text-anchor="end" dominant-baseline="middle" transform="translate(294,53)"> 2</text><text fill="black" text-anchor="start" dominant-baseline="middle" transform="translate(6,74)">Mean y </text><text fill="black" text-anchor="end" dominant-baseline="middle" transform="translate(294,74)"> 3</text><text fill="black" text-anchor="start" dominant-baseline="middle" transform="translate(6,95)">Std dev x </text><text fill="black" text-anchor="end" dominant-baseline="middle" transform="translate(294,95)"> 5</text><text fill="black" text-anchor="start" dominant-baseline="middle" transform="translate(6,116)">Std dev y </text><text fill="black" text-anchor="end" dominant-baseline="middle" transform="translate(294,116)"> 6</text><text fill="black" text-anchor="start" dominant-baseline="middle" transform="translate(6,137)">X min </text><text fill="black" text-anchor="end" dominant-baseline="middle" transform="translate(294,137)"> 2.000000</text><text fill="black" text-anchor="start" dominant-baseline="middle" transform="translate(6,158)">X max </text><text fill="black" text-anchor="end" dominant-baseline="middle" transform="translate(294,158)"> 8.000000</text><text fill="black" text-anchor="start" dominant-baseline="middle" transform="translate(6,179)">Y min </text><text fill="black" text-anchor="end" dominant-baseline="middle" transform="translate(294,179)"> 2.000000</text><text fill="black" text-anchor="start" dominant-baseline="middle" transform="translate(6,200)">Y max </text><text fill="black" text-anchor="end" dominant-baseline="middle" transform="translate(294,200)"> 8.000000</text></g>
   <path d="M0,21h300"></path>
  </g>
 </g>
</svg>