<svg width="1200" height="800" viewBox="0 0 1200 800" preserveAspectRatio="none" xmlns="http://www.w3.org/2000/svg">
 <title>
  ROOT canvas
 </title>
 <path d="M0,0H1200V800H0Z" style="fill: white;"></path>
 <g>
  <svg viewBox="0 0 400 267" preserveAspectRatio="none" x="0" y="0" width="400" height="267">
   <path d="M0,0H400V267H0Z" style="fill: none;"></path>
   <g>
    <g>
     <line x1="40" y1="240" x2="360" y2="27" style="stroke: black; stroke-width: 1;"></line>
    </g>
    <g>
     <line x1="40" y1="27" x2="360" y2="240" style="stroke: black; stroke-width: 1;"></line>
    </g>
   </g>
  </svg>
  <svg viewBox="0 0 400 267" preserveAspectRatio="none" x="0" y="267" width="400" height="267">
   <path d="M0,0H400V267H0Z" style="fill: none;"></path>
   <g>
    <g>
     <line x1="40" y1="240" x2="360" y2="27" style="stroke: black; stroke-width: 1;"></line>
    </g>
    <g>
     <line x1="40" y1="27" x2="360" y2="240" style="stroke: black; stroke-width: 1;"></line>
    </g>
   </g>
  </svg>
  <svg viewBox="0 0 400 267" preserveAspectRatio="none" x="0" y="533" width="400" height="267">
   <path d="M0,0H400V267H0Z" style="fill: none;"></path>
   <g>
    <g>
     <line x1="40" y1="240" x2="360" y2="27" style="stroke: black; stroke-width: 1;"></line>
    </g>
    <g>
     <line x1="40" y1="27" x2="360" y2="240" style="stroke: black; stroke-width: 1;"></line>
    </g>
   </g>
  </svg>
  <svg viewBox="0 0 400 267" preserveAspectRatio="none" x="400" y="0" width="400" height="267">
   <path d="M0,0H400V267H0Z" style="fill: none;"></path>
   <g>
    <g>
     <line x1="40" y1="240" x2="360" y2="27" style="stroke: black; stroke-width: 1;"></line>
    </g>
    <g>
     <line x1="40" y1="27" x2="360" y2="240" style="stroke: black; stroke-width: 1;"></line>
    </g>
   </g>
  </svg>
  <svg viewBox="0 0 400 267" preserveAspectRatio="none" x="400" y="267" width="400" height="267">
   <path d="M0,0H400V267H0Z" style="fill: none;"></path>
   <g>
    <g>
     <line x1="40" y1="240" x2="360" y2="27" style="stroke: black; stroke-width: 1;"></line>
    </g>
    <g>
     <line x1="40" y1="27" x2="360" y2="240" style="stroke: black; stroke-width: 1;"></line>
    </g>
   </g>
  </svg>
  <svg viewBox="0 0 400 267" preserveAspectRatio="none" x="400" y="533" width="400" height="267">
   <path d="M0,0H400V267H0Z" style="fill: none;"></path>
   <g>
    <g>
     <line x1="40" y1="240" x2="360" y2="27" style="stroke: black; stroke-width: 1;"></line>
    </g>
    <g>
     <line x1="40" y1="27" x2="360" y2="240" style="stroke: black; stroke-width: 1;"></line>
    </g>
   </g>
  </svg>
  <svg viewBox="0 0 400 267" preserveAspectRatio="none" x="800" y="0" width="400" height="267">
   <path d="M0,0H400V267H0Z" style="fill: none;"></path>
   <g>
    <g>
     <line x1="40" y1="240" x2="360" y2="27" style="stroke: black; stroke-width: 1;"></line>
    </g>
    <g>
     <line x1="40" y1="27" x2="360" y2="240" style="stroke: black; stroke-width: 1;"></line>
    </g>
   </g>
  </svg>
  <svg viewBox="0 0 400 267" preserveAspectRatio="none" x="800" y="267" width="400" height="267">
   <path d="M0,0H400V267H0Z" style="fill: none;"></path>
   <g>
    <g>
     <line x1="40" y1="240" x2="360" y2="27" style="stroke: black; stroke-width: 1;"></line>
    </g>
    <g>
     <line x1="40" y1="27" x2="360" y2="240" style="stroke: black; stroke-width: 1;"></line>
    </g>
   </g>
  </svg>
  <svg viewBox="0 0 400 267" preserveAspectRatio="none" x="800" y="533" width="400" height="267">
   <path d="M0,0H400V267H0Z" style="fill: none;"></path>
   <g>
    <g>
     <line x1="40" y1="240" x2="360" y2="27" style="stroke: black; stroke-width: 1;"></line>
    </g>
    <g>
     <line x1="40" y1="27" x2="360" y2="240" style="stroke: black; stroke-width: 1;"></line>
    </g>
   </g>
  </svg>
 </g>
</svg>