<svg width="1200" height="600" viewBox="0 0 1200 600" preserveAspectRatio="none" xmlns="http://www.w3.org/2000/svg">
 <path d="M0,0H1200V600H0Z" style="fill: white;"></path>
 <g>
  <svg viewBox="0 0 600 300" preserveAspectRatio="none" x="0" y="0" width="600" height="300">
   <path d="M0,0H600V300H0Z" style="fill: none;"></path>
   <g>
    <g transform="translate(60,30)">
     <rect x="0" y="0" width="480" height="240" style="fill: none; stroke: black; stroke-width: 1;"></rect>
     <svg x="0" y="0" overflow="hidden" width="480" height="240" viewBox="0 0 480 240">
      <g>
       <path d="M0,240h19v-1h19v-12h20v-25h19v-51h19v-86h19v-18h19v-24h20v-12h19v72h19v67h19v55h19v19h20v13h19v3h211" style="stroke-linejoin: miter; stroke: rgb(255, 0, 0); stroke-width: 1; fill: none;"></path>
      </g>
     </svg>
     <g>
      <g transform="translate(0,240)">
       <path d="M0,-6V0M24,-3V0M48,-3V0M72,-3V0M96,-6V0M120,-3V0M144,-3V0M168,-3V0M192,-6V0M216,-3V0M240,-3V0M264,-3V0M288,-6V0M312,-3V0M336,-3V0M360,-3V0M384,-6V0M408,-3V0M432,-3V0M456,-3V0M480,-6V0" style="stroke: black;"></path>
       <g font-family="Arial" font-size="15" xml:space="preserve"><text text-anchor="middle" dy=".8em" transform="translate(0,2)">0</text><text text-anchor="middle" dy=".8em" transform="translate(96,2)">2</text><text text-anchor="middle" dy=".8em" transform="translate(192,2)">4</text><text text-anchor="middle" dy=".8em" transform="translate(288,2)">6</text><text text-anchor="middle" dy=".8em" transform="translate(384,2)">8</text><text text-anchor="middle" dy=".8em" transform="translate(480,2)">10</text></g>
      </g>
      <g transform="translate(0,240)">
       <path d="M12,0H0M6,-13H0M6,-25H0M6,-38H0M6,-50H0M12,-63H0M6,-75H0M6,-88H0M6,-100H0M6,-113H0M12,-126H0M6,-138H0M6,-151H0M6,-163H0M6,-176H0M12,-188H0M6,-201H0M6,-214H0M6,-226H0M6,-239H0" style="stroke: black;"></path>
       <g font-family="Arial" font-size="20" xml:space="preserve"><text fill="green" text-anchor="end" dominant-baseline="middle" transform="translate(-3)">0</text><text fill="green" text-anchor="end" dominant-baseline="middle" transform="translate(-3,-63)">50</text><text fill="green" text-anchor="end" dominant-baseline="middle" transform="translate(-3,-126)">100</text><text fill="green" text-anchor="end" dominant-baseline="middle" transform="translate(-3,-188)">150</text></g>
      </g>
      <g>
       <path d="M0,0V6M24,0V3M48,0V3M72,0V3M96,0V6M120,0V3M144,0V3M168,0V3M192,0V6M216,0V3M240,0V3M264,0V3M288,0V6M312,0V3M336,0V3M360,0V3M384,0V6M408,0V3M432,0V3M456,0V3M480,0V6" style="stroke: black;"></path>
      </g>
      <g transform="translate(480,240)">
       <path d="M0,0H-12M0,-13H-6M0,-25H-6M0,-38H-6M0,-50H-6M0,-63H-12M0,-75H-6M0,-88H-6M0,-100H-6M0,-113H-6M0,-126H-12M0,-138H-6M0,-151H-6M0,-163H-6M0,-176H-6M0,-188H-12M0,-201H-6M0,-214H-6M0,-226H-6M0,-239H-6" style="stroke: black;"></path>
      </g>
      <path d="M0,0v240M96,0v240M192,0v240M288,0v240M384,0v240M480,0v240" style="stroke: black; stroke-width: 1; stroke-dasharray: 1, 2;"></path>
      <path d="M0,240h480M0,177h480M0,114h480M0,52h480" style="stroke: black; stroke-width: 1; stroke-dasharray: 1, 2;"></path>
     </g>
    </g>
   </g>
  </svg>
  <svg viewBox="0 0 600 300" preserveAspectRatio="none" x="0" y="300" width="600" height="300">
   <path d="M0,0H600V300H0Z" style="fill: none;"></path>
   <g>
    <g transform="translate(60,30)">
     <rect x="0" y="0" width="480" height="240" style="fill: none; stroke: black; stroke-width: 1;"></rect>
     <svg x="0" y="0" overflow="hidden" width="480" height="240" viewBox="0 0 480 240">
      <g>
       <path d="M0,240h173v-8h19v-6h19v-7h19v-28h20v-35h19v-34h19v-43h19v-34h19v-34h20v19h19v70h19v25h19v20h19v51h20v15h19v18h19" style="stroke-linejoin: miter; stroke: rgb(0, 128, 0); stroke-width: 1; fill: none;"></path>
      </g>
     </svg>
     <g>
      <g transform="translate(0,240)">
       <path d="M0,-6V0M24,-3V0M48,-3V0M72,-3V0M96,-6V0M120,-3V0M144,-3V0M168,-3V0M192,-6V0M216,-3V0M240,-3V0M264,-3V0M288,-6V0M312,-3V0M336,-3V0M360,-3V0M384,-6V0M408,-3V0M432,-3V0M456,-3V0M480,-6V0" style="stroke: black;"></path>
       <g font-family="Arial" font-size="15" xml:space="preserve"><text text-anchor="middle" dy=".8em" transform="translate(0,2)">0</text><text text-anchor="middle" dy=".8em" transform="translate(96,2)">2</text><text text-anchor="middle" dy=".8em" transform="translate(192,2)">4</text><text text-anchor="middle" dy=".8em" transform="translate(288,2)">6</text><text text-anchor="middle" dy=".8em" transform="translate(384,2)">8</text><text text-anchor="middle" dy=".8em" transform="translate(480,2)">10</text></g>
      </g>
      <g transform="translate(0,240)">
       <path d="M12,0H0M6,-8H0M6,-15H0M6,-23H0M12,-31H0M6,-38H0M6,-46H0M6,-54H0M12,-61H0M6,-69H0M6,-77H0M6,-84H0M12,-92H0M6,-100H0M6,-107H0M6,-115H0M12,-123H0M6,-130H0M6,-138H0M6,-146H0M12,-153H0M6,-161H0M6,-169H0M6,-176H0M12,-184H0M6,-192H0M6,-199H0M6,-207H0M12,-215H0M6,-222H0M6,-230H0M6,-238H0" style="stroke: black;"></path>
       <g font-family="Arial" font-size="20" xml:space="preserve"><text fill="green" text-anchor="end" dominant-baseline="middle" transform="translate(-3)">0</text><text fill="green" text-anchor="end" dominant-baseline="middle" transform="translate(-3,-31)">20</text><text fill="green" text-anchor="end" dominant-baseline="middle" transform="translate(-3,-61)">40</text><text fill="green" text-anchor="end" dominant-baseline="middle" transform="translate(-3,-92)">60</text><text fill="green" text-anchor="end" dominant-baseline="middle" transform="translate(-3,-123)">80</text><text fill="green" text-anchor="end" dominant-baseline="middle" transform="translate(-3,-153)">100</text><text fill="green" text-anchor="end" dominant-baseline="middle" transform="translate(-3,-184)">120</text><text fill="green" text-anchor="end" dominant-baseline="middle" transform="translate(-3,-215)">140</text></g>
      </g>
      <g>
       <path d="M0,0V6M24,0V3M48,0V3M72,0V3M96,0V6M120,0V3M144,0V3M168,0V3M192,0V6M216,0V3M240,0V3M264,0V3M288,0V6M312,0V3M336,0V3M360,0V3M384,0V6M408,0V3M432,0V3M456,0V3M480,0V6" style="stroke: black;"></path>
      </g>
      <g transform="translate(480,240)">
       <path d="M0,0H-12M0,-8H-6M0,-15H-6M0,-23H-6M0,-31H-12M0,-38H-6M0,-46H-6M0,-54H-6M0,-61H-12M0,-69H-6M0,-77H-6M0,-84H-6M0,-92H-12M0,-100H-6M0,-107H-6M0,-115H-6M0,-123H-12M0,-130H-6M0,-138H-6M0,-146H-6M0,-153H-12M0,-161H-6M0,-169H-6M0,-176H-6M0,-184H-12M0,-192H-6M0,-199H-6M0,-207H-6M0,-215H-12M0,-222H-6M0,-230H-6M0,-238H-6" style="stroke: black;"></path>
      </g>
      <path d="M0,0v240M96,0v240M192,0v240M288,0v240M384,0v240M480,0v240" style="stroke: black; stroke-width: 1; stroke-dasharray: 1, 2;"></path>
      <path d="M0,240h480M0,209h480M0,179h480M0,148h480M0,117h480M0,87h480M0,56h480M0,25h480" style="stroke: black; stroke-width: 1; stroke-dasharray: 1, 2;"></path>
     </g>
    </g>
   </g>
  </svg>
  <svg viewBox="0 0 600 300" preserveAspectRatio="none" x="600" y="0" width="600" height="300">
   <path d="M0,0H600V300H0Z" style="fill: none;"></path>
   <g>
    <g transform="translate(60,30)">
     <rect x="0" y="0" width="480" height="240" style="fill: none; stroke: black; stroke-width: 1;"></rect>
     <svg x="0" y="0" overflow="hidden" width="480" height="240" viewBox="0 0 480 240">
      <g>
       <path d="M0,240h77v-1h19v-7h19v1h19v-14h20v-59h19v-30h19v-38h19v-45h19v-36h20v33h19v62h19v26h19v65h19v22h20v14h19v2h19v2h19v3h77" style="stroke-linejoin: miter; stroke: rgb(0, 0, 255); stroke-width: 1; fill: none;"></path>
      </g>
     </svg>
     <g>
      <g transform="translate(0,240)">
       <path d="M0,-6V0M24,-3V0M48,-3V0M72,-3V0M96,-6V0M120,-3V0M144,-3V0M168,-3V0M192,-6V0M216,-3V0M240,-3V0M264,-3V0M288,-6V0M312,-3V0M336,-3V0M360,-3V0M384,-6V0M408,-3V0M432,-3V0M456,-3V0M480,-6V0" style="stroke: black;"></path>
       <g font-family="Arial" font-size="15" xml:space="preserve"><text text-anchor="middle" dy=".8em" transform="translate(0,2)">0</text><text text-anchor="middle" dy=".8em" transform="translate(96,2)">2</text><text text-anchor="middle" dy=".8em" transform="translate(192,2)">4</text><text text-anchor="middle" dy=".8em" transform="translate(288,2)">6</text><text text-anchor="middle" dy=".8em" transform="translate(384,2)">8</text><text text-anchor="middle" dy=".8em" transform="translate(480,2)">10</text></g>
      </g>
      <g transform="translate(0,240)">
       <path d="M12,0H0M6,-7H0M6,-13H0M6,-20H0M12,-26H0M6,-33H0M6,-39H0M6,-46H0M12,-53H0M6,-59H0M6,-66H0M6,-72H0M12,-79H0M6,-85H0M6,-92H0M6,-99H0M12,-105H0M6,-112H0M6,-118H0M6,-125H0M12,-131H0M6,-138H0M6,-144H0M6,-151H0M12,-158H0M6,-164H0M6,-171H0M6,-177H0M12,-184H0M6,-190H0M6,-197H0M6,-204H0M12,-210H0M6,-217H0M6,-223H0M6,-230H0M12,-236H0" style="stroke: black;"></path>
       <g font-family="Arial" font-size="20" xml:space="preserve"><text fill="green" text-anchor="end" dominant-baseline="middle" transform="translate(-3)">0</text><text fill="green" text-anchor="end" dominant-baseline="middle" transform="translate(-3,-26)">20</text><text fill="green" text-anchor="end" dominant-baseline="middle" transform="translate(-3,-53)">40</text><text fill="green" text-anchor="end" dominant-baseline="middle" transform="translate(-3,-79)">60</text><text fill="green" text-anchor="end" dominant-baseline="middle" transform="translate(-3,-105)">80</text><text fill="green" text-anchor="end" dominant-baseline="middle" transform="translate(-3,-131)">100</text><text fill="green" text-anchor="end" dominant-baseline="middle" transform="translate(-3,-158)">120</text><text fill="green" text-anchor="end" dominant-baseline="middle" transform="translate(-3,-184)">140</text><text fill="green" text-anchor="end" dominant-baseline="middle" transform="translate(-3,-210)">160</text><text fill="green" text-anchor="end" dominant-baseline="middle" transform="translate(-3,-236)">180</text></g>
      </g>
      <g>
       <path d="M0,0V6M24,0V3M48,0V3M72,0V3M96,0V6M120,0V3M144,0V3M168,0V3M192,0V6M216,0V3M240,0V3M264,0V3M288,0V6M312,0V3M336,0V3M360,0V3M384,0V6M408,0V3M432,0V3M456,0V3M480,0V6" style="stroke: black;"></path>
      </g>
      <g transform="translate(480,240)">
       <path d="M0,0H-12M0,-7H-6M0,-13H-6M0,-20H-6M0,-26H-12M0,-33H-6M0,-39H-6M0,-46H-6M0,-53H-12M0,-59H-6M0,-66H-6M0,-72H-6M0,-79H-12M0,-85H-6M0,-92H-6M0,-99H-6M0,-105H-12M0,-112H-6M0,-118H-6M0,-125H-6M0,-131H-12M0,-138H-6M0,-144H-6M0,-151H-6M0,-158H-12M0,-164H-6M0,-171H-6M0,-177H-6M0,-184H-12M0,-190H-6M0,-197H-6M0,-204H-6M0,-210H-12M0,-217H-6M0,-223H-6M0,-230H-6M0,-236H-12" style="stroke: black;"></path>
      </g>
      <path d="M0,0v240M96,0v240M192,0v240M288,0v240M384,0v240M480,0v240" style="stroke: black; stroke-width: 1; stroke-dasharray: 1, 2;"></path>
      <path d="M0,240h480M0,214h480M0,187h480M0,161h480M0,135h480M0,109h480M0,82h480M0,56h480M0,30h480M0,4h480" style="stroke: black; stroke-width: 1; stroke-dasharray: 1, 2;"></path>
     </g>
    </g>
   </g>
  </svg>
  <svg viewBox="0 0 600 300" preserveAspectRatio="none" x="600" y="300" width="600" height="300">
   <path d="M0,0H600V300H0Z" style="fill: none;"></path>
   <g>
    <svg viewBox="0 0 300 150" preserveAspectRatio="none" x="0" y="0" width="300" height="150">
     <path d="M0,0H300V150H0Z" style="fill: none;"></path>
     <g>
      <g transform="translate(30,15)">
       <rect x="0" y="0" width="240" height="120" style="fill: none; stroke: black; stroke-width: 1;"></rect>
       <svg x="0" y="0" overflow="hidden" width="240" height="120" viewBox="0 0 240 120">
        <g>
         <path d="M0,120h10v-1h9v-5h10v-13h9v-26h10v-42h10v-10h9v-12h10v-5h9v36h10v33h10v27h9v10h10v7h9v1h106" style="stroke-linejoin: miter; stroke: rgb(0, 0, 255); stroke-width: 1; fill: none;"></path>
        </g>
       </svg>
       <g>
        <g transform="translate(0,120)">
         <path d="M0,-3V0M12,-2V0M24,-2V0M36,-2V0M48,-3V0M60,-2V0M72,-2V0M84,-2V0M96,-3V0M108,-2V0M120,-2V0M132,-2V0M144,-3V0M156,-2V0M168,-2V0M180,-2V0M192,-3V0M204,-2V0M216,-2V0M228,-2V0M240,-3V0" style="stroke: black;"></path>
         <g font-family="Arial" font-size="8" xml:space="preserve"><text text-anchor="middle" dy=".8em" transform="translate(0,1)">0</text><text text-anchor="middle" dy=".8em" transform="translate(48,1)">2</text><text text-anchor="middle" dy=".8em" transform="translate(96,1)">4</text><text text-anchor="middle" dy=".8em" transform="translate(144,1)">6</text><text text-anchor="middle" dy=".8em" transform="translate(192,1)">8</text><text text-anchor="middle" dy=".8em" transform="translate(240,1)">10</text></g>
        </g>
        <g transform="translate(0,120)">
         <path d="M6,0H0M3,-6H0M3,-13H0M3,-19H0M3,-25H0M6,-31H0M3,-38H0M3,-44H0M3,-50H0M3,-57H0M6,-63H0M3,-69H0M3,-75H0M3,-82H0M3,-88H0M6,-94H0M3,-100H0M3,-107H0M3,-113H0M3,-119H0" style="stroke: black;"></path>
         <g font-family="Arial" font-size="20" xml:space="preserve"><text fill="green" text-anchor="end" dominant-baseline="middle" transform="translate(-2)">0</text><text fill="green" text-anchor="end" dominant-baseline="middle" transform="translate(-2,-31)">50</text><text fill="green" text-anchor="end" dominant-baseline="middle" transform="translate(-2,-63)">100</text><text fill="green" text-anchor="end" dominant-baseline="middle" transform="translate(-2,-94)">150</text></g>
        </g>
        <g>
         <path d="M0,0V3M12,0V2M24,0V2M36,0V2M48,0V3M60,0V2M72,0V2M84,0V2M96,0V3M108,0V2M120,0V2M132,0V2M144,0V3M156,0V2M168,0V2M180,0V2M192,0V3M204,0V2M216,0V2M228,0V2M240,0V3" style="stroke: black;"></path>
        </g>
        <g transform="translate(240,120)">
         <path d="M0,0H-6M0,-6H-3M0,-13H-3M0,-19H-3M0,-25H-3M0,-31H-6M0,-38H-3M0,-44H-3M0,-50H-3M0,-57H-3M0,-63H-6M0,-69H-3M0,-75H-3M0,-82H-3M0,-88H-3M0,-94H-6M0,-100H-3M0,-107H-3M0,-113H-3M0,-119H-3" style="stroke: black;"></path>
        </g>
        <path d="M0,0v120M48,0v120M96,0v120M144,0v120M192,0v120M240,0v120" style="stroke: black; stroke-width: 1; stroke-dasharray: 1, 2;"></path>
        <path d="M0,120h240M0,89h240M0,57h240M0,26h240" style="stroke: black; stroke-width: 1; stroke-dasharray: 1, 2;"></path>
       </g>
      </g>
     </g>
    </svg>
    <svg viewBox="0 0 300 150" preserveAspectRatio="none" x="0" y="150" width="300" height="150">
     <path d="M0,0H300V150H0Z" style="fill: none;"></path>
     <g>
      <g transform="translate(30,15)">
       <rect x="0" y="0" width="240" height="120" style="fill: none; stroke: black; stroke-width: 1;"></rect>
       <svg x="0" y="0" overflow="hidden" width="240" height="120" viewBox="0 0 240 120">
        <g>
         <path d="M0,120h86v-4h10v-3h10v-4h9v-14h10v-17h9v-17h10v-22h10v-16h9v-17h10v9h9v35h10v12h10v10h9v26h10v7h9v10h10" style="stroke-linejoin: miter; stroke: rgb(255, 0, 0); stroke-width: 1; fill: none;"></path>
        </g>
       </svg>
       <g>
        <g transform="translate(0,120)">
         <path d="M0,-3V0M12,-2V0M24,-2V0M36,-2V0M48,-3V0M60,-2V0M72,-2V0M84,-2V0M96,-3V0M108,-2V0M120,-2V0M132,-2V0M144,-3V0M156,-2V0M168,-2V0M180,-2V0M192,-3V0M204,-2V0M216,-2V0M228,-2V0M240,-3V0" style="stroke: black;"></path>
         <g font-family="Arial" font-size="8" xml:space="preserve"><text text-anchor="middle" dy=".8em" transform="translate(0,1)">0</text><text text-anchor="middle" dy=".8em" transform="translate(48,1)">2</text><text text-anchor="middle" dy=".8em" transform="translate(96,1)">4</text><text text-anchor="middle" dy=".8em" transform="translate(144,1)">6</text><text text-anchor="middle" dy=".8em" transform="translate(192,1)">8</text><text text-anchor="middle" dy=".8em" transform="translate(240,1)">10</text></g>
        </g>
        <g transform="translate(0,120)">
         <path d="M6,0H0M3,-4H0M3,-8H0M3,-12H0M6,-15H0M3,-19H0M3,-23H0M3,-27H0M6,-31H0M3,-35H0M3,-38H0M3,-42H0M6,-46H0M3,-50H0M3,-54H0M3,-58H0M6,-61H0M3,-65H0M3,-69H0M3,-73H0M6,-77H0M3,-81H0M3,-84H0M3,-88H0M6,-92H0M3,-96H0M3,-100H0M3,-104H0M6,-107H0M3,-111H0M3,-115H0M3,-119H0" style="stroke: black;"></path>
         <g font-family="Arial" font-size="13" xml:space="preserve"><text fill="green" text-anchor="end" dominant-baseline="middle" transform="translate(-2)">0</text><text fill="green" text-anchor="end" dominant-baseline="middle" transform="translate(-2,-15)">20</text><text fill="green" text-anchor="end" dominant-baseline="middle" transform="translate(-2,-31)">40</text><text fill="green" text-anchor="end" dominant-baseline="middle" transform="translate(-2,-46)">60</text><text fill="green" text-anchor="end" dominant-baseline="middle" transform="translate(-2,-61)">80</text><text fill="green" text-anchor="end" dominant-baseline="middle" transform="translate(-2,-77)">100</text><text fill="green" text-anchor="end" dominant-baseline="middle" transform="translate(-2,-92)">120</text><text fill="green" text-anchor="end" dominant-baseline="middle" transform="translate(-2,-107)">140</text></g>
        </g>
        <g>
         <path d="M0,0V3M12,0V2M24,0V2M36,0V2M48,0V3M60,0V2M72,0V2M84,0V2M96,0V3M108,0V2M120,0V2M132,0V2M144,0V3M156,0V2M168,0V2M180,0V2M192,0V3M204,0V2M216,0V2M228,0V2M240,0V3" style="stroke: black;"></path>
        </g>
        <g transform="translate(240,120)">
         <path d="M0,0H-6M0,-4H-3M0,-8H-3M0,-12H-3M0,-15H-6M0,-19H-3M0,-23H-3M0,-27H-3M0,-31H-6M0,-35H-3M0,-38H-3M0,-42H-3M0,-46H-6M0,-50H-3M0,-54H-3M0,-58H-3M0,-61H-6M0,-65H-3M0,-69H-3M0,-73H-3M0,-77H-6M0,-81H-3M0,-84H-3M0,-88H-3M0,-92H-6M0,-96H-3M0,-100H-3M0,-104H-3M0,-107H-6M0,-111H-3M0,-115H-3M0,-119H-3" style="stroke: black;"></path>
        </g>
        <path d="M0,0v120M48,0v120M96,0v120M144,0v120M192,0v120M240,0v120" style="stroke: black; stroke-width: 1; stroke-dasharray: 1, 2;"></path>
        <path d="M0,120h240M0,105h240M0,89h240M0,74h240M0,59h240M0,43h240M0,28h240M0,13h240" style="stroke: black; stroke-width: 1; stroke-dasharray: 1, 2;"></path>
       </g>
      </g>
     </g>
    </svg>
    <svg viewBox="0 0 300 150" preserveAspectRatio="none" x="300" y="0" width="300" height="150">
     <path d="M0,0H300V150H0Z" style="fill: none;"></path>
     <g>
      <g transform="translate(30,15)">
       <rect x="0" y="0" width="240" height="120" style="fill: none; stroke: black; stroke-width: 1;"></rect>
       <svg x="0" y="0" overflow="hidden" width="240" height="120" viewBox="0 0 240 120">
        <g>
         <path d="M0,120h38v-1h10v-3h10v1h9v-8h10v-29h9v-15h10v-19h10v-23h9v-17h10v16h9v31h10v13h10v32h9v11h10v8h19v2h10v1h38" style="stroke-linejoin: miter; stroke: rgb(0, 128, 0); stroke-width: 1; fill: none;"></path>
        </g>
       </svg>
       <g>
        <g transform="translate(0,120)">
         <path d="M0,-3V0M12,-2V0M24,-2V0M36,-2V0M48,-3V0M60,-2V0M72,-2V0M84,-2V0M96,-3V0M108,-2V0M120,-2V0M132,-2V0M144,-3V0M156,-2V0M168,-2V0M180,-2V0M192,-3V0M204,-2V0M216,-2V0M228,-2V0M240,-3V0" style="stroke: black;"></path>
         <g font-family="Arial" font-size="8" xml:space="preserve"><text text-anchor="middle" dy=".8em" transform="translate(0,1)">0</text><text text-anchor="middle" dy=".8em" transform="translate(48,1)">2</text><text text-anchor="middle" dy=".8em" transform="translate(96,1)">4</text><text text-anchor="middle" dy=".8em" transform="translate(144,1)">6</text><text text-anchor="middle" dy=".8em" transform="translate(192,1)">8</text><text text-anchor="middle" dy=".8em" transform="translate(240,1)">10</text></g>
        </g>
        <g transform="translate(0,120)">
         <path d="M6,0H0M6,-13H0M6,-26H0M6,-39H0M6,-53H0M6,-66H0M6,-79H0M6,-92H0M6,-105H0M6,-118H0" style="stroke: black;"></path>
         <g font-family="Arial" font-size="11" xml:space="preserve"><text fill="green" text-anchor="end" dominant-baseline="middle" transform="translate(-2)">0</text><text fill="green" text-anchor="end" dominant-baseline="middle" transform="translate(-2,-13)">20</text><text fill="green" text-anchor="end" dominant-baseline="middle" transform="translate(-2,-26)">40</text><text fill="green" text-anchor="end" dominant-baseline="middle" transform="translate(-2,-39)">60</text><text fill="green" text-anchor="end" dominant-baseline="middle" transform="translate(-2,-53)">80</text><text fill="green" text-anchor="end" dominant-baseline="middle" transform="translate(-2,-66)">100</text><text fill="green" text-anchor="end" dominant-baseline="middle" transform="translate(-2,-79)">120</text><text fill="green" text-anchor="end" dominant-baseline="middle" transform="translate(-2,-92)">140</text><text fill="green" text-anchor="end" dominant-baseline="middle" transform="translate(-2,-105)">160</text><text fill="green" text-anchor="end" dominant-baseline="middle" transform="translate(-2,-118)">180</text></g>
        </g>
        <g>
         <path d="M0,0V3M12,0V2M24,0V2M36,0V2M48,0V3M60,0V2M72,0V2M84,0V2M96,0V3M108,0V2M120,0V2M132,0V2M144,0V3M156,0V2M168,0V2M180,0V2M192,0V3M204,0V2M216,0V2M228,0V2M240,0V3" style="stroke: black;"></path>
        </g>
        <g transform="translate(240,120)">
         <path d="M0,0H-6M0,-13H-6M0,-26H-6M0,-39H-6M0,-53H-6M0,-66H-6M0,-79H-6M0,-92H-6M0,-105H-6M0,-118H-6" style="stroke: black;"></path>
        </g>
        <path d="M0,0v120M48,0v120M96,0v120M144,0v120M192,0v120M240,0v120" style="stroke: black; stroke-width: 1; stroke-dasharray: 1, 2;"></path>
        <path d="M0,120h240M0,107h240M0,94h240M0,81h240M0,67h240M0,54h240M0,41h240M0,28h240M0,15h240M0,2h240" style="stroke: black; stroke-width: 1; stroke-dasharray: 1, 2;"></path>
       </g>
      </g>
     </g>
    </svg>
    <svg viewBox="0 0 300 150" preserveAspectRatio="none" x="300" y="150" width="300" height="150">
     <path d="M0,0H300V150H0Z" style="fill: none;"></path>
    </svg>
   </g>
  </svg>
 </g>
</svg>