<svg width="1200" height="800" viewBox="0 0 1200 600" preserveAspectRatio="none" xmlns="http://www.w3.org/2000/svg">
 <path d="M0,0H1200V600H0Z" style="fill: white;"></path>
 <g>
  <svg viewBox="0 0 600 300" preserveAspectRatio="none" x="0" y="0" width="600" height="300">
   <path d="M0,0H600V300H0Z" style="fill: none;"></path>
   <g>
    <g transform="translate(42,36)">
     <rect x="0" y="0" width="528" height="228" style="fill: none; stroke: black; stroke-width: 1;"></rect>
     <g>
      <path d="M0,0v228M106,0v228M211,0v228M317,0v228M422,0v228M528,0v228" style="stroke: black; stroke-width: 1; stroke-dasharray: 1,2;"></path>
      <path d="M0,228h528M0,168h528M0,109h528M0,49h528" style="stroke: black; stroke-width: 1; stroke-dasharray: 1,2;"></path>
     </g>
     <svg x="0" y="0" overflow="hidden" width="528" height="228" viewBox="0 0 528 228">
      <g>
       <path d="M0,228h21v-1h21v-11h21v-24h21v-49h22v-81h21v-18h21v-22h21v-11h21v68h21v63h21v53h21v17h22v14h21v2h232" style="stroke-linejoin: miter; stroke: #FF0000; stroke-width: 1; fill: none;"></path>
      </g>
     </svg>
     <g>
      <g transform="translate(0,228)">
       <path d="M0,-6V0M26,-3V0M53,-3V0M79,-3V0M106,-6V0M132,-3V0M158,-3V0M185,-3V0M211,-6V0M238,-3V0M264,-3V0M290,-3V0M317,-6V0M343,-3V0M370,-3V0M396,-3V0M422,-6V0M449,-3V0M475,-3V0M502,-3V0M528,-6V0" style="stroke: black;"></path>
       <g font-family="Arial" font-size="15" space="preserve">
        <text text-anchor="middle" dy=".8em" transform="translate(0,2)">
         0
        </text>
        <text text-anchor="middle" dy=".8em" transform="translate(106,2)">
         2
        </text>
        <text text-anchor="middle" dy=".8em" transform="translate(211,2)">
         4
        </text>
        <text text-anchor="middle" dy=".8em" transform="translate(317,2)">
         6
        </text>
        <text text-anchor="middle" dy=".8em" transform="translate(422,2)">
         8
        </text>
        <text text-anchor="middle" dy=".8em" transform="translate(528,2)">
         10
        </text>
       </g>
      </g>
      <g transform="translate(0,228)">
       <path d="M12,0H0M6,-12H0M6,-24H0M6,-36H0M6,-48H0M12,-60H0M6,-72H0M6,-84H0M6,-95H0M6,-107H0M12,-119H0M6,-131H0M6,-143H0M6,-155H0M6,-167H0M12,-179H0M6,-191H0M6,-203H0M6,-215H0M6,-227H0" style="stroke: black;"></path>
       <g font-family="Arial" font-size="20" space="preserve">
        <text fill="green" text-anchor="end" dy=".4em" transform="translate(-3)">
         0
        </text>
        <text fill="green" text-anchor="end" dy=".4em" transform="translate(-3,-60)">
         50
        </text>
        <text fill="green" text-anchor="end" dy=".4em" transform="translate(-3,-119)">
         100
        </text>
        <text fill="green" text-anchor="end" dy=".4em" transform="translate(-3,-179)">
         150
        </text>
       </g>
      </g>
      <g>
       <path d="M0,0V6M26,0V3M53,0V3M79,0V3M106,0V6M132,0V3M158,0V3M185,0V3M211,0V6M238,0V3M264,0V3M290,0V3M317,0V6M343,0V3M370,0V3M396,0V3M422,0V6M449,0V3M475,0V3M502,0V3M528,0V6" style="stroke: black;"></path>
      </g>
      <g transform="translate(528,228)">
       <path d="M0,0H-12M0,-12H-6M0,-24H-6M0,-36H-6M0,-48H-6M0,-60H-12M0,-72H-6M0,-84H-6M0,-95H-6M0,-107H-6M0,-119H-12M0,-131H-6M0,-143H-6M0,-155H-6M0,-167H-6M0,-179H-12M0,-191H-6M0,-203H-6M0,-215H-6M0,-227H-6" style="stroke: black;"></path>
      </g>
     </g>
    </g>
   </g>
  </svg>
  <svg viewBox="0 0 600 300" preserveAspectRatio="none" x="0" y="300" width="600" height="300">
   <path d="M0,0H600V300H0Z" style="fill: none;"></path>
   <g>
    <g transform="translate(42,36)">
     <rect x="0" y="0" width="528" height="228" style="fill: none; stroke: black; stroke-width: 1;"></rect>
     <g>
      <path d="M0,0v228M106,0v228M211,0v228M317,0v228M422,0v228M528,0v228" style="stroke: black; stroke-width: 1; stroke-dasharray: 1,2;"></path>
      <path d="M0,228h528M0,199h528M0,170h528M0,141h528M0,111h528M0,82h528M0,53h528M0,24h528" style="stroke: black; stroke-width: 1; stroke-dasharray: 1,2;"></path>
     </g>
     <svg x="0" y="0" overflow="hidden" width="528" height="228" viewBox="0 0 528 228">
      <g>
       <path d="M0,228h190v-7h21v-6h21v-7h21v-27h22v-33h21v-32h21v-41h21v-32h21v-32h21v17h21v67h21v24h22v19h21v48h21v14h21v18h21" style="stroke-linejoin: miter; stroke: #008000; stroke-width: 1; fill: none;"></path>
      </g>
     </svg>
     <g>
      <g transform="translate(0,228)">
       <path d="M0,-6V0M26,-3V0M53,-3V0M79,-3V0M106,-6V0M132,-3V0M158,-3V0M185,-3V0M211,-6V0M238,-3V0M264,-3V0M290,-3V0M317,-6V0M343,-3V0M370,-3V0M396,-3V0M422,-6V0M449,-3V0M475,-3V0M502,-3V0M528,-6V0" style="stroke: black;"></path>
       <g font-family="Arial" font-size="15" space="preserve">
        <text text-anchor="middle" dy=".8em" transform="translate(0,2)">
         0
        </text>
        <text text-anchor="middle" dy=".8em" transform="translate(106,2)">
         2
        </text>
        <text text-anchor="middle" dy=".8em" transform="translate(211,2)">
         4
        </text>
        <text text-anchor="middle" dy=".8em" transform="translate(317,2)">
         6
        </text>
        <text text-anchor="middle" dy=".8em" transform="translate(422,2)">
         8
        </text>
        <text text-anchor="middle" dy=".8em" transform="translate(528,2)">
         10
        </text>
       </g>
      </g>
      <g transform="translate(0,228)">
       <path d="M12,0H0M6,-7H0M6,-15H0M6,-22H0M12,-29H0M6,-36H0M6,-44H0M6,-51H0M12,-58H0M6,-66H0M6,-73H0M6,-80H0M12,-87H0M6,-95H0M6,-102H0M6,-109H0M12,-117H0M6,-124H0M6,-131H0M6,-138H0M12,-146H0M6,-153H0M6,-160H0M6,-168H0M12,-175H0M6,-182H0M6,-189H0M6,-197H0M12,-204H0M6,-211H0M6,-219H0M6,-226H0" style="stroke: black;"></path>
       <g font-family="Arial" font-size="20" space="preserve">
        <text fill="green" text-anchor="end" dy=".4em" transform="translate(-3)">
         0
        </text>
        <text fill="green" text-anchor="end" dy=".4em" transform="translate(-3,-29)">
         20
        </text>
        <text fill="green" text-anchor="end" dy=".4em" transform="translate(-3,-58)">
         40
        </text>
        <text fill="green" text-anchor="end" dy=".4em" transform="translate(-3,-87)">
         60
        </text>
        <text fill="green" text-anchor="end" dy=".4em" transform="translate(-3,-117)">
         80
        </text>
        <text fill="green" text-anchor="end" dy=".4em" transform="translate(-3,-146)">
         100
        </text>
        <text fill="green" text-anchor="end" dy=".4em" transform="translate(-3,-175)">
         120
        </text>
        <text fill="green" text-anchor="end" dy=".4em" transform="translate(-3,-204)">
         140
        </text>
       </g>
      </g>
      <g>
       <path d="M0,0V6M26,0V3M53,0V3M79,0V3M106,0V6M132,0V3M158,0V3M185,0V3M211,0V6M238,0V3M264,0V3M290,0V3M317,0V6M343,0V3M370,0V3M396,0V3M422,0V6M449,0V3M475,0V3M502,0V3M528,0V6" style="stroke: black;"></path>
      </g>
      <g transform="translate(528,228)">
       <path d="M0,0H-12M0,-7H-6M0,-15H-6M0,-22H-6M0,-29H-12M0,-36H-6M0,-44H-6M0,-51H-6M0,-58H-12M0,-66H-6M0,-73H-6M0,-80H-6M0,-87H-12M0,-95H-6M0,-102H-6M0,-109H-6M0,-117H-12M0,-124H-6M0,-131H-6M0,-138H-6M0,-146H-12M0,-153H-6M0,-160H-6M0,-168H-6M0,-175H-12M0,-182H-6M0,-189H-6M0,-197H-6M0,-204H-12M0,-211H-6M0,-219H-6M0,-226H-6" style="stroke: black;"></path>
      </g>
     </g>
    </g>
   </g>
  </svg>
  <svg viewBox="0 0 600 300" preserveAspectRatio="none" x="600" y="0" width="600" height="300">
   <path d="M0,0H600V300H0Z" style="fill: none;"></path>
   <g>
    <g transform="translate(42,36)">
     <rect x="0" y="0" width="528" height="228" style="fill: none; stroke: black; stroke-width: 1;"></rect>
     <g>
      <path d="M0,0v228M106,0v228M211,0v228M317,0v228M422,0v228M528,0v228" style="stroke: black; stroke-width: 1; stroke-dasharray: 1,2;"></path>
      <path d="M0,228h528M0,203h528M0,178h528M0,153h528M0,128h528M0,103h528M0,78h528M0,53h528M0,28h528M0,3h528" style="stroke: black; stroke-width: 1; stroke-dasharray: 1,2;"></path>
     </g>
     <svg x="0" y="0" overflow="hidden" width="528" height="228" viewBox="0 0 528 228">
      <g>
       <path d="M0,228h84v-1h22v-6h21v1h21v-14h21v-56h21v-29h21v-36h21v-42h21v-34h22v31h21v59h21v25h21v61h21v21h21v14h21v1h21v3h22v2h84" style="stroke-linejoin: miter; stroke: #0000FF; stroke-width: 1; fill: none;"></path>
      </g>
     </svg>
     <g>
      <g transform="translate(0,228)">
       <path d="M0,-6V0M26,-3V0M53,-3V0M79,-3V0M106,-6V0M132,-3V0M158,-3V0M185,-3V0M211,-6V0M238,-3V0M264,-3V0M290,-3V0M317,-6V0M343,-3V0M370,-3V0M396,-3V0M422,-6V0M449,-3V0M475,-3V0M502,-3V0M528,-6V0" style="stroke: black;"></path>
       <g font-family="Arial" font-size="15" space="preserve">
        <text text-anchor="middle" dy=".8em" transform="translate(0,2)">
         0
        </text>
        <text text-anchor="middle" dy=".8em" transform="translate(106,2)">
         2
        </text>
        <text text-anchor="middle" dy=".8em" transform="translate(211,2)">
         4
        </text>
        <text text-anchor="middle" dy=".8em" transform="translate(317,2)">
         6
        </text>
        <text text-anchor="middle" dy=".8em" transform="translate(422,2)">
         8
        </text>
        <text text-anchor="middle" dy=".8em" transform="translate(528,2)">
         10
        </text>
       </g>
      </g>
      <g transform="translate(0,228)">
       <path d="M12,0H0M6,-6H0M6,-12H0M6,-19H0M12,-25H0M6,-31H0M6,-37H0M6,-44H0M12,-50H0M6,-56H0M6,-62H0M6,-69H0M12,-75H0M6,-81H0M6,-87H0M6,-94H0M12,-100H0M6,-106H0M6,-112H0M6,-119H0M12,-125H0M6,-131H0M6,-137H0M6,-144H0M12,-150H0M6,-156H0M6,-162H0M6,-168H0M12,-175H0M6,-181H0M6,-187H0M6,-193H0M12,-200H0M6,-206H0M6,-212H0M6,-218H0M12,-225H0" style="stroke: black;"></path>
       <g font-family="Arial" font-size="20" space="preserve">
        <text fill="green" text-anchor="end" dy=".4em" transform="translate(-3)">
         0
        </text>
        <text fill="green" text-anchor="end" dy=".4em" transform="translate(-3,-25)">
         20
        </text>
        <text fill="green" text-anchor="end" dy=".4em" transform="translate(-3,-50)">
         40
        </text>
        <text fill="green" text-anchor="end" dy=".4em" transform="translate(-3,-75)">
         60
        </text>
        <text fill="green" text-anchor="end" dy=".4em" transform="translate(-3,-100)">
         80
        </text>
        <text fill="green" text-anchor="end" dy=".4em" transform="translate(-3,-125)">
         100
        </text>
        <text fill="green" text-anchor="end" dy=".4em" transform="translate(-3,-150)">
         120
        </text>
        <text fill="green" text-anchor="end" dy=".4em" transform="translate(-3,-175)">
         140
        </text>
        <text fill="green" text-anchor="end" dy=".4em" transform="translate(-3,-200)">
         160
        </text>
        <text fill="green" text-anchor="end" dy=".4em" transform="translate(-3,-225)">
         180
        </text>
       </g>
      </g>
      <g>
       <path d="M0,0V6M26,0V3M53,0V3M79,0V3M106,0V6M132,0V3M158,0V3M185,0V3M211,0V6M238,0V3M264,0V3M290,0V3M317,0V6M343,0V3M370,0V3M396,0V3M422,0V6M449,0V3M475,0V3M502,0V3M528,0V6" style="stroke: black;"></path>
      </g>
      <g transform="translate(528,228)">
       <path d="M0,0H-12M0,-6H-6M0,-12H-6M0,-19H-6M0,-25H-12M0,-31H-6M0,-37H-6M0,-44H-6M0,-50H-12M0,-56H-6M0,-62H-6M0,-69H-6M0,-75H-12M0,-81H-6M0,-87H-6M0,-94H-6M0,-100H-12M0,-106H-6M0,-112H-6M0,-119H-6M0,-125H-12M0,-131H-6M0,-137H-6M0,-144H-6M0,-150H-12M0,-156H-6M0,-162H-6M0,-168H-6M0,-175H-12M0,-181H-6M0,-187H-6M0,-193H-6M0,-200H-12M0,-206H-6M0,-212H-6M0,-218H-6M0,-225H-12" style="stroke: black;"></path>
      </g>
     </g>
    </g>
   </g>
  </svg>
  <svg viewBox="0 0 600 300" preserveAspectRatio="none" x="600" y="300" width="600" height="300">
   <path d="M0,0H600V300H0Z" style="fill: none;"></path>
   <g>
    <svg viewBox="0 0 300 150" preserveAspectRatio="none" x="0" y="0" width="300" height="150">
     <path d="M0,0H300V150H0Z" style="fill: none;"></path>
     <g>
      <g transform="translate(21,18)">
       <rect x="0" y="0" width="264" height="114" style="fill: none; stroke: black; stroke-width: 1;"></rect>
       <g>
        <path d="M0,0v114M53,0v114M106,0v114M158,0v114M211,0v114M264,0v114" style="stroke: black; stroke-width: 1; stroke-dasharray: 1,2;"></path>
        <path d="M0,114h264M0,84h264M0,54h264M0,25h264" style="stroke: black; stroke-width: 1; stroke-dasharray: 1,2;"></path>
       </g>
       <svg x="0" y="0" overflow="hidden" width="264" height="114" viewBox="0 0 264 114">
        <g>
         <path d="M0,114h11v-1h10v-5h11v-12h10v-24h11v-41h10v-9h11v-11h10v-6h11v34h11v32h10v26h11v9h10v7h11v1h116" style="stroke-linejoin: miter; stroke: #0000FF; stroke-width: 1; fill: none;"></path>
        </g>
       </svg>
       <g>
        <g transform="translate(0,114)">
         <path d="M0,-3V0M13,-2V0M26,-2V0M40,-2V0M53,-3V0M66,-2V0M79,-2V0M92,-2V0M106,-3V0M119,-2V0M132,-2V0M145,-2V0M158,-3V0M172,-2V0M185,-2V0M198,-2V0M211,-3V0M224,-2V0M238,-2V0M251,-2V0M264,-3V0" style="stroke: black;"></path>
         <g font-family="Arial" font-size="8" space="preserve">
          <text text-anchor="middle" dy=".8em" transform="translate(0,1)">
           0
          </text>
          <text text-anchor="middle" dy=".8em" transform="translate(53,1)">
           2
          </text>
          <text text-anchor="middle" dy=".8em" transform="translate(106,1)">
           4
          </text>
          <text text-anchor="middle" dy=".8em" transform="translate(158,1)">
           6
          </text>
          <text text-anchor="middle" dy=".8em" transform="translate(211,1)">
           8
          </text>
          <text text-anchor="middle" dy=".8em" transform="translate(264,1)">
           10
          </text>
         </g>
        </g>
        <g transform="translate(0,114)">
         <path d="M6,0H0M3,-6H0M3,-12H0M3,-18H0M3,-24H0M6,-30H0M3,-36H0M3,-42H0M3,-48H0M3,-54H0M6,-60H0M3,-66H0M3,-72H0M3,-78H0M3,-84H0M6,-89H0M3,-95H0M3,-101H0M3,-107H0M3,-113H0" style="stroke: black;"></path>
         <g font-family="Arial" font-size="20" space="preserve">
          <text fill="green" text-anchor="end" dy=".4em" transform="translate(-2)">
           0
          </text>
          <text fill="green" text-anchor="end" dy=".4em" transform="translate(-2,-30)">
           50
          </text>
          <text fill="green" text-anchor="end" dy=".4em" transform="translate(-2,-60)">
           100
          </text>
          <text fill="green" text-anchor="end" dy=".4em" transform="translate(-2,-89)">
           150
          </text>
         </g>
        </g>
        <g>
         <path d="M0,0V3M13,0V2M26,0V2M40,0V2M53,0V3M66,0V2M79,0V2M92,0V2M106,0V3M119,0V2M132,0V2M145,0V2M158,0V3M172,0V2M185,0V2M198,0V2M211,0V3M224,0V2M238,0V2M251,0V2M264,0V3" style="stroke: black;"></path>
        </g>
        <g transform="translate(264,114)">
         <path d="M0,0H-6M0,-6H-3M0,-12H-3M0,-18H-3M0,-24H-3M0,-30H-6M0,-36H-3M0,-42H-3M0,-48H-3M0,-54H-3M0,-60H-6M0,-66H-3M0,-72H-3M0,-78H-3M0,-84H-3M0,-89H-6M0,-95H-3M0,-101H-3M0,-107H-3M0,-113H-3" style="stroke: black;"></path>
        </g>
       </g>
      </g>
     </g>
    </svg>
    <svg viewBox="0 0 300 150" preserveAspectRatio="none" x="0" y="150" width="300" height="150">
     <path d="M0,0H300V150H0Z" style="fill: none;"></path>
     <g>
      <g transform="translate(21,18)">
       <rect x="0" y="0" width="264" height="114" style="fill: none; stroke: black; stroke-width: 1;"></rect>
       <g>
        <path d="M0,0v114M53,0v114M106,0v114M158,0v114M211,0v114M264,0v114" style="stroke: black; stroke-width: 1; stroke-dasharray: 1,2;"></path>
        <path d="M0,114h264M0,99h264M0,85h264M0,70h264M0,56h264M0,41h264M0,27h264M0,12h264" style="stroke: black; stroke-width: 1; stroke-dasharray: 1,2;"></path>
       </g>
       <svg x="0" y="0" overflow="hidden" width="264" height="114" viewBox="0 0 264 114">
        <g>
         <path d="M0,114h95v-4h11v-3h10v-3h11v-13h10v-17h11v-16h10v-21h11v-16h11v-16h10v9h11v34h10v11h11v10h10v24h11v7h10v9h11" style="stroke-linejoin: miter; stroke: #FF0000; stroke-width: 1; fill: none;"></path>
        </g>
       </svg>
       <g>
        <g transform="translate(0,114)">
         <path d="M0,-3V0M13,-2V0M26,-2V0M40,-2V0M53,-3V0M66,-2V0M79,-2V0M92,-2V0M106,-3V0M119,-2V0M132,-2V0M145,-2V0M158,-3V0M172,-2V0M185,-2V0M198,-2V0M211,-3V0M224,-2V0M238,-2V0M251,-2V0M264,-3V0" style="stroke: black;"></path>
         <g font-family="Arial" font-size="8" space="preserve">
          <text text-anchor="middle" dy=".8em" transform="translate(0,1)">
           0
          </text>
          <text text-anchor="middle" dy=".8em" transform="translate(53,1)">
           2
          </text>
          <text text-anchor="middle" dy=".8em" transform="translate(106,1)">
           4
          </text>
          <text text-anchor="middle" dy=".8em" transform="translate(158,1)">
           6
          </text>
          <text text-anchor="middle" dy=".8em" transform="translate(211,1)">
           8
          </text>
          <text text-anchor="middle" dy=".8em" transform="translate(264,1)">
           10
          </text>
         </g>
        </g>
        <g transform="translate(0,114)">
         <path d="M6,0H0M3,-4H0M3,-7H0M3,-11H0M6,-15H0M3,-18H0M3,-22H0M3,-26H0M6,-29H0M3,-33H0M3,-36H0M3,-40H0M6,-44H0M3,-47H0M3,-51H0M3,-55H0M6,-58H0M3,-62H0M3,-66H0M3,-69H0M6,-73H0M3,-77H0M3,-80H0M3,-84H0M6,-87H0M3,-91H0M3,-95H0M3,-98H0M6,-102H0M3,-106H0M3,-109H0M3,-113H0" style="stroke: black;"></path>
         <g font-family="Arial" font-size="12" space="preserve">
          <text fill="green" text-anchor="end" dy=".4em" transform="translate(-2)">
           0
          </text>
          <text fill="green" text-anchor="end" dy=".4em" transform="translate(-2,-15)">
           20
          </text>
          <text fill="green" text-anchor="end" dy=".4em" transform="translate(-2,-29)">
           40
          </text>
          <text fill="green" text-anchor="end" dy=".4em" transform="translate(-2,-44)">
           60
          </text>
          <text fill="green" text-anchor="end" dy=".4em" transform="translate(-2,-58)">
           80
          </text>
          <text fill="green" text-anchor="end" dy=".4em" transform="translate(-2,-73)">
           100
          </text>
          <text fill="green" text-anchor="end" dy=".4em" transform="translate(-2,-87)">
           120
          </text>
          <text fill="green" text-anchor="end" dy=".4em" transform="translate(-2,-102)">
           140
          </text>
         </g>
        </g>
        <g>
         <path d="M0,0V3M13,0V2M26,0V2M40,0V2M53,0V3M66,0V2M79,0V2M92,0V2M106,0V3M119,0V2M132,0V2M145,0V2M158,0V3M172,0V2M185,0V2M198,0V2M211,0V3M224,0V2M238,0V2M251,0V2M264,0V3" style="stroke: black;"></path>
        </g>
        <g transform="translate(264,114)">
         <path d="M0,0H-6M0,-4H-3M0,-7H-3M0,-11H-3M0,-15H-6M0,-18H-3M0,-22H-3M0,-26H-3M0,-29H-6M0,-33H-3M0,-36H-3M0,-40H-3M0,-44H-6M0,-47H-3M0,-51H-3M0,-55H-3M0,-58H-6M0,-62H-3M0,-66H-3M0,-69H-3M0,-73H-6M0,-77H-3M0,-80H-3M0,-84H-3M0,-87H-6M0,-91H-3M0,-95H-3M0,-98H-3M0,-102H-6M0,-106H-3M0,-109H-3M0,-113H-3" style="stroke: black;"></path>
        </g>
       </g>
      </g>
     </g>
    </svg>
    <svg viewBox="0 0 300 150" preserveAspectRatio="none" x="300" y="0" width="300" height="150">
     <path d="M0,0H300V150H0Z" style="fill: none;"></path>
     <g>
      <g transform="translate(21,18)">
       <rect x="0" y="0" width="264" height="114" style="fill: none; stroke: black; stroke-width: 1;"></rect>
       <g>
        <path d="M0,0v114M53,0v114M106,0v114M158,0v114M211,0v114M264,0v114" style="stroke: black; stroke-width: 1; stroke-dasharray: 1,2;"></path>
        <path d="M0,114h264M0,102h264M0,89h264M0,77h264M0,64h264M0,52h264M0,39h264M0,27h264M0,14h264M0,2h264" style="stroke: black; stroke-width: 1; stroke-dasharray: 1,2;"></path>
       </g>
       <svg x="0" y="0" overflow="hidden" width="264" height="114" viewBox="0 0 264 114">
        <g>
         <path d="M0,114h42v-1h11v-3h10v1h11v-7h10v-28h11v-14h11v-19h10v-21h11v-17h10v16h11v29h10v13h11v30h11v11h10v7h11v1h10v1h11v1h42" style="stroke-linejoin: miter; stroke: #008000; stroke-width: 1; fill: none;"></path>
        </g>
       </svg>
       <g>
        <g transform="translate(0,114)">
         <path d="M0,-3V0M13,-2V0M26,-2V0M40,-2V0M53,-3V0M66,-2V0M79,-2V0M92,-2V0M106,-3V0M119,-2V0M132,-2V0M145,-2V0M158,-3V0M172,-2V0M185,-2V0M198,-2V0M211,-3V0M224,-2V0M238,-2V0M251,-2V0M264,-3V0" style="stroke: black;"></path>
         <g font-family="Arial" font-size="8" space="preserve">
          <text text-anchor="middle" dy=".8em" transform="translate(0,1)">
           0
          </text>
          <text text-anchor="middle" dy=".8em" transform="translate(53,1)">
           2
          </text>
          <text text-anchor="middle" dy=".8em" transform="translate(106,1)">
           4
          </text>
          <text text-anchor="middle" dy=".8em" transform="translate(158,1)">
           6
          </text>
          <text text-anchor="middle" dy=".8em" transform="translate(211,1)">
           8
          </text>
          <text text-anchor="middle" dy=".8em" transform="translate(264,1)">
           10
          </text>
         </g>
        </g>
        <g transform="translate(0,114)">
         <path d="M6,0H0M6,-12H0M6,-25H0M6,-37H0M6,-50H0M6,-62H0M6,-75H0M6,-87H0M6,-100H0M6,-112H0" style="stroke: black;"></path>
         <g font-family="Arial" font-size="10" space="preserve">
          <text fill="green" text-anchor="end" dy=".4em" transform="translate(-2)">
           0
          </text>
          <text fill="green" text-anchor="end" dy=".4em" transform="translate(-2,-12)">
           20
          </text>
          <text fill="green" text-anchor="end" dy=".4em" transform="translate(-2,-25)">
           40
          </text>
          <text fill="green" text-anchor="end" dy=".4em" transform="translate(-2,-37)">
           60
          </text>
          <text fill="green" text-anchor="end" dy=".4em" transform="translate(-2,-50)">
           80
          </text>
          <text fill="green" text-anchor="end" dy=".4em" transform="translate(-2,-62)">
           100
          </text>
          <text fill="green" text-anchor="end" dy=".4em" transform="translate(-2,-75)">
           120
          </text>
          <text fill="green" text-anchor="end" dy=".4em" transform="translate(-2,-87)">
           140
          </text>
          <text fill="green" text-anchor="end" dy=".4em" transform="translate(-2,-100)">
           160
          </text>
          <text fill="green" text-anchor="end" dy=".4em" transform="translate(-2,-112)">
           180
          </text>
         </g>
        </g>
        <g>
         <path d="M0,0V3M13,0V2M26,0V2M40,0V2M53,0V3M66,0V2M79,0V2M92,0V2M106,0V3M119,0V2M132,0V2M145,0V2M158,0V3M172,0V2M185,0V2M198,0V2M211,0V3M224,0V2M238,0V2M251,0V2M264,0V3" style="stroke: black;"></path>
        </g>
        <g transform="translate(264,114)">
         <path d="M0,0H-6M0,-12H-6M0,-25H-6M0,-37H-6M0,-50H-6M0,-62H-6M0,-75H-6M0,-87H-6M0,-100H-6M0,-112H-6" style="stroke: black;"></path>
        </g>
       </g>
      </g>
     </g>
    </svg>
    <svg viewBox="0 0 300 150" preserveAspectRatio="none" x="300" y="150" width="300" height="150">
     <path d="M0,0H300V150H0Z" style="fill: none;"></path>
    </svg>
   </g>
  </svg>
 </g>
</svg>