<svg xmlns="http://www.w3.org/2000/svg" viewBox="0 0 598 374" preserveAspectRatio="none" width="598" height="374">
 <path d="M0,0H598V374H0Z" style="fill: white;"></path>
 <g>
  <g transform="translate(60,37)">
   <path d="M0,0H478V299H0Z" style="fill: white; stroke: black; stroke-width: 1;"></path>
   <svg x="0" y="0" overflow="hidden" width="478" height="299" viewBox="0 0 478 299">
    <g>
     <g transform="translate(35,250)">
      <path style="stroke: black; stroke-width: 1; fill: none;" d="M0,0H-14m0,3v-6M0,0H14m0,3v-6M0,0V23m3,0h-6M0,0V-23m3,0h-6"></path>
     </g>
     <g transform="translate(307,103)">
      <path style="stroke: black; stroke-width: 1; fill: none;" d="M0,0H-14m0,3v-6M0,0H14m0,3v-6M0,0V15m3,0h-6M0,0V-15m3,0h-6"></path>
     </g>
     <path d="M31,246v8h8v-8zM303,99v8h8v-8z" style="stroke: red; fill: red;"></path>
    </g>
    <g>
     <g transform="translate(171,165)">
      <path style="stroke: black; stroke-width: 1; fill: none;" d="M0,0H-14m0,3v-6M0,0H14m0,3v-6M0,0V23m3,0h-6M0,0V-23m3,0h-6"></path>
     </g>
     <g transform="translate(443,41)">
      <path style="stroke: black; stroke-width: 1; fill: none;" d="M0,0H-14m0,3v-6M0,0H14m0,3v-6M0,0V15m3,0h-6M0,0V-15m3,0h-6"></path>
     </g>
     <path d="M171,161l-4,8h8zM443,37l-4,8h8z" style="stroke: green; fill: green;"></path>
    </g>
    <g>
     <path d="M2.5,258.49C3.51,258.03,5.6,257.06,7.5,256.1S10.2,254.66,12,253.71S14.6,252.27,16.5,251.31S19.5,249.88,21.5,248.92S24.6,247.48,26.5,246.52S29.2,245.09,31,244.13S33.6,242.69,35.5,241.74S38.5,240.3,40.5,239.34S43.5,237.91,45.5,236.95S48.6,235.51,50.5,234.55S53.2,233.12,55,232.16S57.6,230.72,59.5,229.77S62.5,228.33,64.5,227.37S67.6,225.94,69.5,224.98S72.2,223.54,74,222.59S76.6,221.15,78.5,220.19S81.5,218.76,83.5,217.8S86.5,216.36,88.5,215.4S91.6,213.97,93.5,213.01S96.2,211.57,98,210.62S100.6,209.18,102.5,208.22S105.5,206.79,107.5,205.83S110.6,204.39,112.5,203.43S115.2,202,117,201.04S119.6,199.6,121.5,198.65S124.5,197.21,126.5,196.25S129.5,194.82,131.5,193.86S134.6,192.42,136.5,191.47S139.2,190.03,141,189.07S143.6,187.64,145.5,186.68S148.5,185.24,150.5,184.28S153.5,182.85,155.5,181.89S158.6,180.45,160.5,179.5S163.2,178.06,165,177.1S167.6,175.67,169.5,174.71S172.5,173.27,174.5,172.31S177.6,170.88,179.5,169.92S182.2,168.48,184,167.53S186.6,166.09,188.5,165.13S191.5,163.7,193.5,162.74S196.5,161.3,198.5,160.35S201.6,158.91,203.5,157.95S206.2,156.52,208,155.56S210.6,154.12,212.5,153.16S215.5,151.73,217.5,150.77S220.6,149.33,222.5,148.38S225.2,146.94,227,145.98S229.6,144.55,231.5,143.59S234.5,142.15,236.5,141.19S239.5,139.76,241.5,138.8S244.6,137.36,246.5,136.41S249.2,134.97,251,134.01S253.6,132.58,255.5,131.62S258.5,130.18,260.5,129.23S263.6,127.79,265.5,126.83S268.2,125.4,270,124.44S272.6,123,274.5,122.04S277.5,120.61,279.5,119.65S282.5,118.21,284.5,117.26S287.6,115.82,289.5,114.86S292.2,113.43,294,112.47S296.6,111.03,298.5,110.07S301.5,108.64,303.5,107.68S306.6,106.24,308.5,105.29S311.2,103.85,313,102.89S315.6,101.46,317.5,100.5S320.5,99.06,322.5,98.11S325.5,96.67,327.5,95.71S330.6,94.28,332.5,93.32S335.2,91.88,337,90.92S339.6,89.49,341.5,88.53S344.5,87.09,346.5,86.14S349.6,84.7,351.5,83.74S354.2,82.31,356,81.35S358.6,79.91,360.5,78.95S363.5,77.52,365.5,76.56S368.5,75.12,370.5,74.17S373.6,72.73,375.5,71.77S378.2,70.34,380,69.38S382.6,67.94,384.5,66.99S387.5,65.55,389.5,64.59S392.5,63.16,394.5,62.2S397.6,60.76,399.5,59.8S402.2,58.37,404,57.41S406.6,55.97,408.5,55.02S411.5,53.58,413.5,52.62S416.6,51.19,418.5,50.23S421.2,48.79,423,47.84S425.6,46.4,427.5,45.44S430.5,44,432.5,43.05S435.5,41.61,437.5,40.65S440.6,39.22,442.5,38.26S445.2,36.82,447,35.87S449.6,34.43,451.5,33.47S454.5,32.04,456.5,31.08S459.6,29.64,461.5,28.68S464.2,27.25,466,26.29S468.6,24.85,470.5,23.9S474.49,21.96,475.5,21.5" style="fill: none; stroke: red; stroke-width: 2;"></path>
    </g>
   </svg>
   <g>
    <g transform="translate(0,299)">
     <path d="M0,0h478M8,-6V0M22,-6V0M35,-11V0M49,-6V0M62,-6V0M76,-6V0M90,-6V0M103,-11V0M117,-6V0M130,-6V0M144,-6V0M158,-6V0M171,-11V0M185,-6V0M198,-6V0M212,-6V0M225,-6V0M239,-11V0M253,-6V0M266,-6V0M280,-6V0M293,-6V0M307,-11V0M320,-6V0M334,-6V0M348,-6V0M361,-6V0M375,-11V0M388,-6V0M402,-6V0M416,-6V0M429,-6V0M443,-11V0M456,-6V0M470,-6V0" style="stroke: black; stroke-width: 1;"></path>
     <g font-family="Arial" font-size="13" space="preserve" fill="black" text-anchor="middle">
      <text dy=".8em" transform="translate(35,3)">
       2
      </text>
      <text dy=".8em" transform="translate(103,3)">
       2.5
      </text>
      <text dy=".8em" transform="translate(171,3)">
       3
      </text>
      <text dy=".8em" transform="translate(239,3)">
       3.5
      </text>
      <text dy=".8em" transform="translate(307,3)">
       4
      </text>
      <text dy=".8em" transform="translate(375,3)">
       4.5
      </text>
      <text dy=".8em" transform="translate(443,3)">
       5
      </text>
     </g>
    </g>
    <g>
     <path d="M0,0v299M18,296H0M9,288H0M9,281H0M9,273H0M9,265H0M18,258H0M9,250H0M9,242H0M9,234H0M9,227H0M18,219H0M9,211H0M9,204H0M9,196H0M9,188H0M18,180H0M9,173H0M9,165H0M9,157H0M9,150H0M18,142H0M9,134H0M9,126H0M9,119H0M9,111H0M18,103H0M9,95H0M9,88H0M9,80H0M9,72H0M18,65H0M9,57H0M9,49H0M9,41H0M9,34H0M18,26H0M9,18H0M9,11H0M9,3H0" style="stroke: black; stroke-width: 1;"></path>
     <g font-family="Arial" font-size="13" space="preserve" fill="black" text-anchor="end">
      <text dy=".4em" transform="translate(-3,296)">
       1.5
      </text>
      <text dy=".4em" transform="translate(-3,258)">
       2
      </text>
      <text dy=".4em" transform="translate(-3,219)">
       2.5
      </text>
      <text dy=".4em" transform="translate(-3,180)">
       3
      </text>
      <text dy=".4em" transform="translate(-3,142)">
       3.5
      </text>
      <text dy=".4em" transform="translate(-3,103)">
       4
      </text>
      <text dy=".4em" transform="translate(-3,65)">
       4.5
      </text>
      <text dy=".4em" transform="translate(-3,26)">
       5
      </text>
     </g>
    </g>
   </g>
  </g>
 </g>
</svg>