<svg xmlns="http://www.w3.org/2000/svg" viewBox="0 0 598 374" preserveAspectRatio="none" width="598" height="374">
 <path d="M0,0H598V374H0Z" style="fill: white;"></path>
 <g>
  <g transform="translate(60,37)">
   <path d="M0,0H478V299H0Z" style="fill: white; stroke: black; stroke-width: 1;"></path>
   <svg x="0" y="0" overflow="hidden" width="478" height="299" viewBox="0 0 478 299">
    <g>
     <g transform="translate(35,250)">
      <path style="stroke: black; stroke-width: 1; fill: none;" d="M0,0H-14m0,3v-6M0,0H14m0,3v-6M0,0V23m3,0h-6M0,0V-23m3,0h-6"></path>
     </g>
     <g transform="translate(307,103)">
      <path style="stroke: black; stroke-width: 1; fill: none;" d="M0,0H-14m0,3v-6M0,0H14m0,3v-6M0,0V15m3,0h-6M0,0V-15m3,0h-6"></path>
     </g>
     <path d="M31,246v8h8v-8zM303,99v8h8v-8z" style="stroke: red; fill: red;"></path>
    </g>
    <g>
     <g transform="translate(171,165)">
      <path style="stroke: black; stroke-width: 1; fill: none;" d="M0,0H-14m0,3v-6M0,0H14m0,3v-6M0,0V23m3,0h-6M0,0V-23m3,0h-6"></path>
     </g>
     <g transform="translate(443,41)">
      <path style="stroke: black; stroke-width: 1; fill: none;" d="M0,0H-14m0,3v-6M0,0H14m0,3v-6M0,0V15m3,0h-6M0,0V-15m3,0h-6"></path>
     </g>
     <path d="M171,161l-4,8h8zM443,37l-4,8h8z" style="stroke: green; fill: green;"></path>
    </g>
    <g>
     <path d="M0,259.69C0.48,259.45,3.82,257.77,4.78,257.3S8.6,255.38,9.56,254.9S13.38,252.99,14.34,252.51S18.16,250.59,19.12,250.11S22.94,248.2,23.9,247.72S27.72,245.81,28.68,245.33S32.5,243.41,33.46,242.93S37.28,241.02,38.24,240.54S42.06,238.62,43.02,238.15S46.84,236.23,47.8,235.75S51.62,233.84,52.58,233.36S56.4,231.44,57.36,230.96S61.18,229.05,62.14,228.57S65.96,226.65,66.92,226.18S70.74,224.26,71.7,223.78S75.52,221.87,76.48,221.39S80.3,219.47,81.26,218.99S85.08,217.08,86.04,216.6S89.86,214.69,90.82,214.21S94.64,212.29,95.6,211.81S99.42,209.9,100.38,209.42S104.2,207.5,105.16,207.03S108.98,205.11,109.94,204.63S113.76,202.72,114.72,202.24S118.54,200.32,119.5,199.84S123.32,197.93,124.28,197.45S128.1,195.53,129.06,195.06S132.88,193.14,133.84,192.66S137.66,190.75,138.62,190.27S142.44,188.35,143.4,187.87S147.22,185.96,148.18,185.48S152,183.57,152.96,183.09S156.78,181.17,157.74,180.69S161.56,178.78,162.52,178.3S166.34,176.38,167.3,175.91S171.12,173.99,172.08,173.51S175.9,171.6,176.86,171.12S180.68,169.2,181.64,168.72S185.46,166.81,186.42,166.33S190.24,164.41,191.2,163.94S195.02,162.02,195.98,161.54S199.8,159.63,200.76,159.15S204.58,157.23,205.54,156.75S209.36,154.84,210.32,154.36S214.14,152.45,215.1,151.97S218.92,150.05,219.88,149.57S223.7,147.66,224.66,147.18S228.48,145.26,229.44,144.79S233.26,142.87,234.22,142.39S238.04,140.48,239,140S242.82,138.08,243.78,137.6S247.6,135.69,248.56,135.21S252.38,133.3,253.34,132.82S257.16,130.9,258.12,130.42S261.94,128.51,262.9,128.03S266.72,126.11,267.68,125.63S271.5,123.72,272.46,123.24S276.28,121.33,277.24,120.85S281.06,118.93,282.02,118.45S285.84,116.54,286.8,116.06S290.62,114.14,291.58,113.67S295.4,111.75,296.36,111.27S300.18,109.36,301.14,108.88S304.96,106.96,305.92,106.48S309.74,104.57,310.7,104.09S314.52,102.18,315.48,101.7S319.3,99.78,320.26,99.3S324.08,97.39,325.04,96.91S328.86,94.99,329.82,94.51S333.64,92.6,334.6,92.12S338.42,90.21,339.38,89.73S343.2,87.81,344.16,87.33S347.98,85.42,348.94,84.94S352.76,83.02,353.72,82.55S357.54,80.63,358.5,80.15S362.32,78.24,363.28,77.76S367.1,75.84,368.06,75.36S371.88,73.45,372.84,72.97S376.66,71.06,377.62,70.58S381.44,68.66,382.4,68.18S386.22,66.27,387.18,65.79S391,63.87,391.96,63.39S395.78,61.48,396.74,61S400.56,59.09,401.52,58.61S405.34,56.69,406.3,56.21S410.12,54.3,411.08,53.82S414.9,51.9,415.86,51.43S419.68,49.51,420.64,49.03S424.46,47.12,425.42,46.64S429.24,44.72,430.2,44.24S434.02,42.33,434.98,41.85S438.8,39.94,439.76,39.46S443.58,37.54,444.54,37.06S448.36,35.15,449.32,34.67S453.14,32.75,454.1,32.28S457.92,30.36,458.88,29.88S462.7,27.97,463.66,27.49S467.48,25.57,468.44,25.09S472.26,23.18,473.22,22.7S477.52,20.55,478,20.31" style="fill: none; stroke: red; stroke-width: 2;"></path>
    </g>
   </svg>
   <g>
    <g transform="translate(0,299)">
     <path d="M0,0h478M8,-6V0M22,-6V0M35,-11V0M49,-6V0M62,-6V0M76,-6V0M90,-6V0M103,-11V0M117,-6V0M130,-6V0M144,-6V0M158,-6V0M171,-11V0M185,-6V0M198,-6V0M212,-6V0M225,-6V0M239,-11V0M253,-6V0M266,-6V0M280,-6V0M293,-6V0M307,-11V0M320,-6V0M334,-6V0M348,-6V0M361,-6V0M375,-11V0M388,-6V0M402,-6V0M416,-6V0M429,-6V0M443,-11V0M456,-6V0M470,-6V0" style="stroke: black; stroke-width: 1;"></path>
     <g font-family="Arial" font-size="13" space="preserve" fill="black" text-anchor="middle">
      <text dy=".8em" transform="translate(35,1)">
       2
      </text>
      <text dy=".8em" transform="translate(103,1)">
       2.5
      </text>
      <text dy=".8em" transform="translate(171,1)">
       3
      </text>
      <text dy=".8em" transform="translate(239,1)">
       3.5
      </text>
      <text dy=".8em" transform="translate(307,1)">
       4
      </text>
      <text dy=".8em" transform="translate(375,1)">
       4.5
      </text>
      <text dy=".8em" transform="translate(443,1)">
       5
      </text>
     </g>
    </g>
    <g>
     <path d="M0,0v299M18,296H0M9,288H0M9,281H0M9,273H0M9,265H0M18,258H0M9,250H0M9,242H0M9,234H0M9,227H0M18,219H0M9,211H0M9,204H0M9,196H0M9,188H0M18,180H0M9,173H0M9,165H0M9,157H0M9,150H0M18,142H0M9,134H0M9,126H0M9,119H0M9,111H0M18,103H0M9,95H0M9,88H0M9,80H0M9,72H0M18,65H0M9,57H0M9,49H0M9,41H0M9,34H0M18,26H0M9,18H0M9,11H0M9,3H0" style="stroke: black; stroke-width: 1;"></path>
     <g font-family="Arial" font-size="13" space="preserve" fill="black" text-anchor="end">
      <text dy=".4em" transform="translate(-2,296)">
       1.5
      </text>
      <text dy=".4em" transform="translate(-2,258)">
       2
      </text>
      <text dy=".4em" transform="translate(-2,219)">
       2.5
      </text>
      <text dy=".4em" transform="translate(-2,180)">
       3
      </text>
      <text dy=".4em" transform="translate(-2,142)">
       3.5
      </text>
      <text dy=".4em" transform="translate(-2,103)">
       4
      </text>
      <text dy=".4em" transform="translate(-2,65)">
       4.5
      </text>
      <text dy=".4em" transform="translate(-2,26)">
       5
      </text>
     </g>
    </g>
   </g>
  </g>
 </g>
</svg>