<svg xmlns="http://www.w3.org/2000/svg" viewBox="0 0 698 474" preserveAspectRatio="none" width="698" height="474">
 <path d="M0,0H698V474H0Z" style="fill: white;"></path>
 <g>
  <g transform="translate(70,47)">
   <path d="M0,0H558V379H0Z" style="fill: white; stroke: black; stroke-width: 1;"></path>
   <g>
    <path d="M70,0v379M144,0v379M218,0v379M292,0v379M366,0v379M440,0v379M514,0v379" style="stroke: black; stroke-width: 1; stroke-dasharray: 1,2;"></path>
    <path d="M0,367h558M0,313h558M0,258h558M0,204h558M0,149h558M0,95h558M0,40h558" style="stroke: black; stroke-width: 1; stroke-dasharray: 1,2;"></path>
   </g>
   <svg x="0" y="0" overflow="hidden" width="558" height="379" viewBox="0 0 558 379">
    <g>
     <g transform="translate(107,340)">
      <path style="stroke: black; stroke-width: 1; fill: none;" d="M0,0H-19m0,3v-6M0,0H19m0,3v-6M0,0V22m3,0h-6M0,0V-22m3,0h-6"></path>
     </g>
     <g transform="translate(162,234)">
      <path style="stroke: black; stroke-width: 1; fill: none;" d="M0,0H-37m0,3v-6M0,0H37m0,3v-6M0,0V19m3,0h-6M0,0V-19m3,0h-6"></path>
     </g>
     <g transform="translate(236,160)">
      <path style="stroke: black; stroke-width: 1; fill: none;" d="M0,0H-26m0,3v-6M0,0H26m0,3v-6M0,0V16m3,0h-6M0,0V-16m3,0h-6"></path>
     </g>
     <g transform="translate(273,111)">
      <path style="stroke: black; stroke-width: 1; fill: none;" d="M0,0H-26m0,3v-6M0,0H26m0,3v-6M0,0V14m3,0h-6M0,0V-14m3,0h-6"></path>
     </g>
     <g transform="translate(329,68)">
      <path style="stroke: black; stroke-width: 1; fill: none;" d="M0,0H-15m0,3v-6M0,0H15m0,3v-6M0,0V11m3,0h-6M0,0V-11m3,0h-6"></path>
     </g>
     <g transform="translate(370,51)">
      <path style="stroke: black; stroke-width: 1; fill: none;" d="M0,0H-19m0,3v-6M0,0H19m0,3v-6M0,0V11m3,0h-6M0,0V-11m3,0h-6"></path>
     </g>
     <g transform="translate(403,76)">
      <path style="stroke: black; stroke-width: 1; fill: none;" d="M0,0H-22m0,3v-6M0,0H22m0,3v-6M0,0V14m3,0h-6M0,0V-14m3,0h-6"></path>
     </g>
     <g transform="translate(459,141)">
      <path style="stroke: black; stroke-width: 1; fill: none;" d="M0,0H-26m0,3v-6M0,0H26m0,3v-6M0,0V16m3,0h-6M0,0V-16m3,0h-6"></path>
     </g>
     <g transform="translate(473,190)">
      <path style="stroke: black; stroke-width: 1; fill: none;" d="M0,0H-30m0,3v-6M0,0H30m0,3v-6M0,0V19m3,0h-6M0,0V-19m3,0h-6"></path>
     </g>
     <g transform="translate(496,286)">
      <path style="stroke: black; stroke-width: 1; fill: none;" d="M0,0H-19m0,3v-6M0,0H19m0,3v-6M0,0V22m3,0h-6M0,0V-22m3,0h-6"></path>
     </g>
     <path d="M103,336v8h8v-8zM158,230v8h8v-8zM232,156v8h8v-8zM269,107v8h8v-8zM325,64v8h8v-8zM366,47v8h8v-8zM399,72v8h8v-8zM455,137v8h8v-8zM469,186v8h8v-8zM492,282v8h8v-8z" style="stroke: blue; fill: blue;"></path>
    </g>
    <g>
     <path d="M45.73,1989.09C46.24,1975.89,49.82,1883.44,50.84,1857.09S54.93,1751.68,55.95,1725.55S60.04,1621.44,61.06,1595.77S65.15,1493.88,66.17,1468.89S70.26,1370.01,71.28,1345.87S75.37,1250.66,76.39,1227.52S80.47,1136.52,81.5,1114.51S85.58,1028.16,86.61,1007.36S90.69,926.01,91.72,906.49S95.8,830.37,96.83,812.19S100.91,741.48,101.94,724.66S106.02,659.44,107.05,643.99S111.13,584.28,112.16,570.2S116.24,515.96,117.27,503.24S121.35,454.37,122.37,442.96S126.46,399.32,127.48,389.19S131.57,350.59,132.59,341.69S136.68,307.91,137.7,300.17S141.79,270.94,142.81,264.3S146.9,239.37,147.92,233.75S152.01,212.79,153.03,208.12S157.12,190.84,158.14,187.04S162.23,173.1,163.25,170.08S167.34,159.16,168.36,156.84S172.45,148.6,173.47,146.9S177.56,141.01,178.58,139.84S182.67,135.97,183.69,135.27S187.78,133.1,188.8,132.77S192.89,131.99,193.91,131.97S198,132.29,199.02,132.5S203.11,133.65,204.13,134.02S208.22,135.73,209.24,136.2S213.33,138.24,214.35,138.76S218.44,140.9,219.46,141.42S223.55,143.47,224.57,143.94S228.66,145.74,229.68,146.12S233.77,147.51,234.79,147.78S238.88,148.64,239.9,148.76S243.99,149.01,245.01,148.97S249.1,148.53,250.12,148.31S254.21,147.14,255.23,146.74S259.32,144.83,260.34,144.23S264.43,141.58,265.45,140.81S269.54,137.44,270.56,136.5S274.65,132.48,275.67,131.38S279.76,126.76,280.78,125.53S284.87,120.41,285.89,119.07S289.97,113.55,291,112.13S295.08,106.33,296.11,104.86S300.19,98.91,301.22,97.42S305.3,91.44,306.33,89.97S310.41,84.12,311.44,82.7S315.52,77.11,316.55,75.78S320.63,70.59,321.66,69.37S325.74,64.71,326.77,63.65S330.85,59.64,331.87,58.75S335.96,55.49,336.98,54.8S341.07,52.37,342.09,51.9S346.18,50.36,347.2,50.12S351.29,49.48,352.31,49.47S356.4,49.73,357.42,49.93S361.51,51.03,362.53,51.42S366.62,53.26,367.64,53.81S371.73,56.22,372.75,56.87S376.84,59.63,377.86,60.32S381.95,63.13,382.97,63.77S387.06,66.26,388.08,66.75S392.17,68.46,393.19,68.67S397.28,69.05,398.3,68.82S402.39,67.22,403.41,66.37S407.5,62.03,408.52,60.36S412.61,52.4,413.63,49.67S417.72,37.09,418.74,33.01S422.83,14.66,423.85,8.94S427.94,-16.46,428.96,-24.17S433.05,-58.07,434.07,-68.16S438.16,-112.16,439.18,-125.05S443.27,-180.94,444.29,-197.12S448.38,-266.87,449.4,-286.86S453.49,-372.63,454.51,-397S458.6,-501.17,459.62,-530.55S463.71,-655.72,464.73,-690.79S468.82,-839.78,469.84,-881.3S473.93,-1057.18,474.95,-1105.94S479.04,-1312.04,480.06,-1368.93S484.15,-1608.84,485.17,-1674.79S489.26,-1952.38,490.28,-2028.41S494.37,-2347.86,495.39,-2435.05S499.47,-2800.83,500.5,-2900.36S504.58,-3317.26,505.61,-3430.39S509.69,-3903.54,510.72,-4031.59S514.8,-4566.47,515.83,-4710.88S519.91,-5313.33,520.94,-5475.61S525.02,-6151.85,526.05,-6333.62S530.13,-7090.27,531.16,-7293.23S535.24,-8137.3,536.27,-8363.3S540.35,-9302.23,541.37,-9553.18S545.46,-10594.85,546.48,-10872.8S550.57,-12025.55,551.59,-12332.65S556.22,-13782.7,556.7,-13943.82" style="fill: none; stroke: red; stroke-width: 2;"></path>
    </g>
    <g>
     <g transform="translate(40,256)">
      <path style="stroke: black; stroke-width: 1; fill: none;" d="M0,0H-15m0,3v-6M0,0H15m0,3v-6M0,0V16m3,0h-6M0,0V-16m3,0h-6"></path>
     </g>
     <g transform="translate(146,208)">
      <path style="stroke: black; stroke-width: 1; fill: none;" d="M0,0H-44m0,3v-6M0,0H44m0,3v-6M0,0V22m3,0h-6M0,0V-22m3,0h-6"></path>
     </g>
     <g transform="translate(214,122)">
      <path style="stroke: black; stroke-width: 1; fill: none;" d="M0,0H-30m0,3v-6M0,0H30m0,3v-6M0,0V19m3,0h-6M0,0V-19m3,0h-6"></path>
     </g>
     <g transform="translate(251,68)">
      <path style="stroke: black; stroke-width: 1; fill: none;" d="M0,0H-22m0,3v-6M0,0H22m0,3v-6M0,0V11m3,0h-6M0,0V-11m3,0h-6"></path>
     </g>
     <g transform="translate(310,40)">
      <path style="stroke: black; stroke-width: 1; fill: none;" d="M0,0H-19m0,3v-6M0,0H19m0,3v-6M0,0V8m3,0h-6M0,0V-8m3,0h-6"></path>
     </g>
     <g transform="translate(351,25)">
      <path style="stroke: black; stroke-width: 1; fill: none;" d="M0,0H-15m0,3v-6M0,0H15m0,3v-6M0,0V8m3,0h-6M0,0V-8m3,0h-6"></path>
     </g>
     <g transform="translate(385,50)">
      <path style="stroke: black; stroke-width: 1; fill: none;" d="M0,0H-26m0,3v-6M0,0H26m0,3v-6M0,0V11m3,0h-6M0,0V-11m3,0h-6"></path>
     </g>
     <g transform="translate(440,115)">
      <path style="stroke: black; stroke-width: 1; fill: none;" d="M0,0H-22m0,3v-6M0,0H22m0,3v-6M0,0V14m3,0h-6M0,0V-14m3,0h-6"></path>
     </g>
     <g transform="translate(477,165)">
      <path style="stroke: black; stroke-width: 1; fill: none;" d="M0,0H-30m0,3v-6M0,0H30m0,3v-6M0,0V16m3,0h-6M0,0V-16m3,0h-6"></path>
     </g>
     <g transform="translate(518,258)">
      <path style="stroke: black; stroke-width: 1; fill: none;" d="M0,0H-15m0,3v-6M0,0H15m0,3v-6M0,0V19m3,0h-6M0,0V-19m3,0h-6"></path>
     </g>
     <path d="M36,256a4,4,0,1,0,8,0a4,4,0,1,0,-8,0zM142,208a4,4,0,1,0,8,0a4,4,0,1,0,-8,0zM210,122a4,4,0,1,0,8,0a4,4,0,1,0,-8,0zM247,68a4,4,0,1,0,8,0a4,4,0,1,0,-8,0zM306,40a4,4,0,1,0,8,0a4,4,0,1,0,-8,0zM347,25a4,4,0,1,0,8,0a4,4,0,1,0,-8,0zM381,50a4,4,0,1,0,8,0a4,4,0,1,0,-8,0zM436,115a4,4,0,1,0,8,0a4,4,0,1,0,-8,0zM473,165a4,4,0,1,0,8,0a4,4,0,1,0,-8,0zM514,258a4,4,0,1,0,8,0a4,4,0,1,0,-8,0z" style="stroke: red; fill: red;"></path>
    </g>
    <g>
     <path d="M-7.1,241.03C-6.5,241.33,-2.23,243.37,-1.01,243.92S3.86,246.06,5.07,246.56S9.94,248.49,11.16,248.93S16.03,250.61,17.25,250.99S22.12,252.41,23.33,252.72S28.2,253.86,29.42,254.1S34.29,254.94,35.51,255.1S40.38,255.63,41.6,255.72S46.47,255.93,47.68,255.93S52.55,255.81,53.77,255.73S58.64,255.27,59.86,255.1S64.73,254.3,65.95,254.05S70.82,252.91,72.03,252.57S76.9,251.09,78.12,250.66S82.99,248.84,84.21,248.33S89.08,246.17,90.29,245.58S95.16,243.08,96.38,242.41S101.25,239.59,102.47,238.83S107.34,235.7,108.56,234.87S113.43,231.43,114.64,230.52S119.51,226.79,120.73,225.81S125.6,221.8,126.82,220.75S131.69,216.47,132.91,215.36S137.78,210.83,138.99,209.66S143.86,204.9,145.08,203.68S149.95,198.7,151.17,197.43S156.04,192.26,157.25,190.94S162.12,185.59,163.34,184.23S168.21,178.73,169.43,177.33S174.3,171.7,175.52,170.27S180.39,164.53,181.6,163.08S186.47,157.25,187.69,155.78S192.56,149.89,193.78,148.41S198.65,142.47,199.87,140.99S204.74,135.04,205.95,133.55S210.82,127.61,212.04,126.13S216.91,120.23,218.13,118.76S223,112.92,224.21,111.47S229.08,105.71,230.3,104.28S235.17,98.63,236.39,97.24S241.26,91.73,242.48,90.37S247.35,85.02,248.56,83.71S253.43,78.54,254.65,77.28S259.52,72.31,260.74,71.11S265.61,66.38,266.83,65.24S271.7,60.76,272.91,59.69S277.78,55.49,279,54.49S283.87,50.6,285.09,49.68S289.96,46.11,291.17,45.27S296.04,42.04,297.26,41.29S302.13,38.42,303.35,37.77S308.22,35.29,309.44,34.73S314.31,32.64,315.52,32.19S320.39,30.52,321.61,30.17S326.48,28.94,327.7,28.7S332.57,27.91,333.79,27.79S338.66,27.46,339.87,27.45S344.74,27.59,345.96,27.7S350.83,28.33,352.05,28.56S356.92,29.67,358.13,30.03S363,31.63,364.22,32.11S369.09,34.22,370.31,34.83S375.18,37.44,376.4,38.17S381.27,41.29,382.48,42.15S387.35,45.77,388.57,46.75S393.44,50.88,394.66,51.99S399.53,56.61,400.75,57.84S405.62,62.95,406.83,64.3S411.7,69.89,412.92,71.36S417.79,77.42,419.01,79S423.88,85.52,425.09,87.21S429.96,94.16,431.18,95.97S436.05,103.33,437.27,105.24S442.14,113,443.36,115S448.23,123.14,449.44,125.22S454.31,133.7,455.53,135.87S460.4,144.66,461.62,146.91S466.49,155.98,467.71,158.28S472.58,167.6,473.79,169.96S478.66,179.47,479.88,181.88S484.75,191.55,485.97,193.99S490.84,203.78,492.05,206.24S496.92,216.09,498.14,218.56S503.01,228.42,504.23,230.88S509.1,240.7,510.32,243.14S515.19,252.85,516.4,255.25S521.27,264.79,522.49,267.14S527.36,276.44,528.58,278.72S533.45,287.71,534.67,289.89S539.54,298.5,540.75,300.58S545.62,308.72,546.84,310.67S551.71,318.26,552.93,320.05S557.8,327.01,559.01,328.63S564.47,335.53,565.1,336.28" style="fill: none; stroke: red; stroke-width: 2;"></path>
    </g>
   </svg>
   <g>
    <g transform="translate(0,379)">
     <path d="M0,0h558M14,-7V0M33,-7V0M51,-7V0M70,-14V0M88,-7V0M107,-7V0M125,-7V0M144,-14V0M162,-7V0M181,-7V0M199,-7V0M218,-14V0M236,-7V0M255,-7V0M273,-7V0M292,-14V0M310,-7V0M329,-7V0M348,-7V0M366,-14V0M385,-7V0M403,-7V0M422,-7V0M440,-14V0M459,-7V0M477,-7V0M496,-7V0M514,-14V0M533,-7V0M551,-7V0" style="stroke: black; stroke-width: 1;"></path>
     <g font-family="Arial" font-size="17" space="preserve" fill="black" text-anchor="middle">
      <text dy=".8em" transform="translate(70)">
       -0.2
      </text>
      <text dy=".8em" transform="translate(144)">
       0
      </text>
      <text dy=".8em" transform="translate(218)">
       0.2
      </text>
      <text dy=".8em" transform="translate(292)">
       0.4
      </text>
      <text dy=".8em" transform="translate(366)">
       0.6
      </text>
      <text dy=".8em" transform="translate(440)">
       0.8
      </text>
      <text dy=".8em" transform="translate(514)">
       1
      </text>
     </g>
    </g>
    <g>
     <path d="M0,0v379M21,367H0M11,354H0M11,340H0M11,326H0M21,313H0M11,299H0M11,286H0M11,272H0M21,258H0M11,245H0M11,231H0M11,217H0M21,204H0M11,190H0M11,177H0M11,163H0M21,149H0M11,136H0M11,122H0M11,108H0M21,95H0M11,81H0M11,68H0M11,54H0M21,40H0M11,27H0M11,13H0" style="stroke: black; stroke-width: 1;"></path>
     <g font-family="Arial" font-size="17" space="preserve" fill="black" text-anchor="end">
      <text dy=".4em" transform="translate(-2,367)">
       -2
      </text>
      <text dy=".4em" transform="translate(-2,313)">
       0
      </text>
      <text dy=".4em" transform="translate(-2,258)">
       2
      </text>
      <text dy=".4em" transform="translate(-2,204)">
       4
      </text>
      <text dy=".4em" transform="translate(-2,149)">
       6
      </text>
      <text dy=".4em" transform="translate(-2,95)">
       8
      </text>
      <text dy=".4em" transform="translate(-2,40)">
       10
      </text>
     </g>
    </g>
   </g>
  </g>
  <g transform="translate(84,31)" font-family="Arial" font-size="8" space="preserve">
   <path d="M0,0H140V88H0Z" style="fill: white; stroke: black; stroke-width: 1;"></path>
   <g transform="translate(7,9) scale(0.938)">
    <text fill="blue" font-size="9">
     χ
    </text>
    <text fill="blue" font-size="5" transform="translate(5,-4)">
     2
    </text>
    <text fill="blue" font-size="9" x="8">
     / ndf
    </text>
   </g>
   <text fill="blue" text-anchor="end" dy=".4em" transform="translate(133,6)">
    7.515 / 3
   </text>
   <text fill="blue" text-anchor="start" dy=".4em" transform="translate(7,17)">
    p0
   </text>
   <g transform="translate(59,20) scale(0.938)">
    <text fill="blue" font-size="9">
     2.022 ± 4.573e+04
    </text>
   </g>
   <text fill="blue" text-anchor="start" dy=".4em" transform="translate(7,28)">
    p1
   </text>
   <g transform="translate(59,31) scale(0.938)">
    <text fill="blue" font-size="9">
     85.35 ± 4.572e+04
    </text>
   </g>
   <text fill="blue" text-anchor="start" dy=".4em" transform="translate(7,39)">
    p2
   </text>
   <g transform="translate(57,42) scale(0.938)">
    <text fill="blue" font-size="9">
     -504.7 ± 4.516e+04
    </text>
   </g>
   <text fill="blue" text-anchor="start" dy=".4em" transform="translate(7,50)">
    p3
   </text>
   <g transform="translate(59,53) scale(0.938)">
    <text fill="blue" font-size="9">
     862.3 ± 4.566e+04
    </text>
   </g>
   <text fill="blue" text-anchor="start" dy=".4em" transform="translate(7,61)">
    p4
   </text>
   <g transform="translate(59,64) scale(0.938)">
    <text fill="blue" font-size="9">
     970.8 ± 3.948e+04
    </text>
   </g>
   <text fill="blue" text-anchor="start" dy=".4em" transform="translate(7,72)">
    p5
   </text>
   <g transform="translate(77,75) scale(0.938)">
    <text fill="blue" font-size="9">
     -3737 ± 33.42
    </text>
   </g>
   <text fill="blue" text-anchor="start" dy=".4em" transform="translate(7,83)">
    p6
   </text>
   <g transform="translate(60,86) scale(0.938)">
    <text fill="blue" font-size="9">
     2497 ± 4.182e+04
    </text>
   </g>
  </g>
  <g transform="translate(503,31)" font-family="Arial" font-size="8" space="preserve">
   <path d="M0,0H140V73H0Z" style="fill: white; stroke: black; stroke-width: 1;"></path>
   <g transform="translate(7,8) scale(0.919)">
    <text fill="red" font-size="9">
     χ
    </text>
    <text fill="red" font-size="5" transform="translate(5,-4)">
     2
    </text>
    <text fill="red" font-size="9" x="8">
     / ndf
    </text>
   </g>
   <text fill="red" text-anchor="end" dy=".4em" transform="translate(133,5)">
    0.8146 / 4
   </text>
   <text fill="red" text-anchor="start" dy=".4em" transform="translate(7,16)">
    p0
   </text>
   <g transform="translate(79,19) scale(0.919)">
    <text fill="red" font-size="9">
     3.959 ± 0.631
    </text>
   </g>
   <text fill="red" text-anchor="start" dy=".4em" transform="translate(7,26)">
    p1
   </text>
   <g transform="translate(82,29) scale(0.919)">
    <text fill="red" font-size="9">
     13.55 ±  1.43
    </text>
   </g>
   <text fill="red" text-anchor="start" dy=".4em" transform="translate(7,37)">
    p2
   </text>
   <g transform="translate(82,39) scale(0.919)">
    <text fill="red" font-size="9">
     18.33 ±  5.69
    </text>
   </g>
   <text fill="red" text-anchor="start" dy=".4em" transform="translate(7,47)">
    p3
   </text>
   <g transform="translate(77,50) scale(0.919)">
    <text fill="red" font-size="9">
     -32.01 ± 9.676
    </text>
   </g>
   <text fill="red" text-anchor="start" dy=".4em" transform="translate(7,57)">
    p4
   </text>
   <g transform="translate(84,60) scale(0.919)">
    <text fill="red" font-size="9">
     -26.6 ±  11.6
    </text>
   </g>
   <text fill="red" text-anchor="start" dy=".4em" transform="translate(7,68)">
    p5
   </text>
   <g transform="translate(81,71) scale(0.919)">
    <text fill="red" font-size="9">
     25.04 ±  8.75
    </text>
   </g>
  </g>
 </g>
</svg>