<svg xmlns="http://www.w3.org/2000/svg" viewBox="0 0 698 474" preserveAspectRatio="none" width="698" height="474">
 <path d="M0,0H698V474H0Z" style="fill: white;"></path>
 <g>
  <g transform="translate(70,47)">
   <path d="M0,0H558V379H0Z" style="fill: white; stroke: black; stroke-width: 1;"></path>
   <svg x="0" y="0" overflow="hidden" width="558" height="379" viewBox="0 0 558 379">
    <g>
     <g transform="translate(107,340)">
      <path style="stroke: black; stroke-width: 1; fill: none;" d="M0,0H-19m0,3v-6M0,0H19m0,3v-6M0,0V22m3,0h-6M0,0V-22m3,0h-6"></path>
     </g>
     <g transform="translate(162,234)">
      <path style="stroke: black; stroke-width: 1; fill: none;" d="M0,0H-37m0,3v-6M0,0H37m0,3v-6M0,0V19m3,0h-6M0,0V-19m3,0h-6"></path>
     </g>
     <g transform="translate(236,160)">
      <path style="stroke: black; stroke-width: 1; fill: none;" d="M0,0H-26m0,3v-6M0,0H26m0,3v-6M0,0V16m3,0h-6M0,0V-16m3,0h-6"></path>
     </g>
     <g transform="translate(273,111)">
      <path style="stroke: black; stroke-width: 1; fill: none;" d="M0,0H-26m0,3v-6M0,0H26m0,3v-6M0,0V14m3,0h-6M0,0V-14m3,0h-6"></path>
     </g>
     <g transform="translate(329,68)">
      <path style="stroke: black; stroke-width: 1; fill: none;" d="M0,0H-15m0,3v-6M0,0H15m0,3v-6M0,0V11m3,0h-6M0,0V-11m3,0h-6"></path>
     </g>
     <g transform="translate(370,51)">
      <path style="stroke: black; stroke-width: 1; fill: none;" d="M0,0H-19m0,3v-6M0,0H19m0,3v-6M0,0V11m3,0h-6M0,0V-11m3,0h-6"></path>
     </g>
     <g transform="translate(403,76)">
      <path style="stroke: black; stroke-width: 1; fill: none;" d="M0,0H-22m0,3v-6M0,0H22m0,3v-6M0,0V14m3,0h-6M0,0V-14m3,0h-6"></path>
     </g>
     <g transform="translate(459,141)">
      <path style="stroke: black; stroke-width: 1; fill: none;" d="M0,0H-26m0,3v-6M0,0H26m0,3v-6M0,0V16m3,0h-6M0,0V-16m3,0h-6"></path>
     </g>
     <g transform="translate(473,190)">
      <path style="stroke: black; stroke-width: 1; fill: none;" d="M0,0H-30m0,3v-6M0,0H30m0,3v-6M0,0V19m3,0h-6M0,0V-19m3,0h-6"></path>
     </g>
     <g transform="translate(496,286)">
      <path style="stroke: black; stroke-width: 1; fill: none;" d="M0,0H-19m0,3v-6M0,0H19m0,3v-6M0,0V22m3,0h-6M0,0V-22m3,0h-6"></path>
     </g>
     <path d="M103,336v8h8v-8zM158,230v8h8v-8zM232,156v8h8v-8zM269,107v8h8v-8zM325,64v8h8v-8zM366,47v8h8v-8zM399,72v8h8v-8zM455,137v8h8v-8zM469,186v8h8v-8zM492,282v8h8v-8z" style="stroke: blue; fill: blue;"></path>
    </g>
    <g>
     <path d="M49,1923l5,-132l5,-131l5,-128l5,-125l5,-121l5,-116l5,-110l6,-104l5,-97l5,-91l5,-85l5,-77l5,-70l5,-64l5,-57l5,-50l6,-45l5,-38l5,-34l5,-28l5,-23l5,-19l5,-15l5,-12l5,-8l6,-6l5,-3l5,-2h5l5,1l5,2l5,2l5,3l5,3l6,2l5,2l5,1l5,1h5l5,-1l5,-2l5,-3l5,-4l6,-5l5,-5l5,-7l5,-6l5,-7l5,-8l5,-7l5,-8l5,-7l6,-6l5,-7l5,-5l5,-4l5,-4l5,-2l5,-1h5l5,1l6,2l5,2l5,4l5,3l5,3l5,3l5,1l5,-1l5,-4l6,-8l5,-14l5,-20l5,-28l5,-39l5,-50l5,-64l5,-81l5,-99l6,-122l5,-146l5,-175l5,-207l5,-243l5,-284l5,-329l5,-380l5,-435l5,-497l6,-565l5,-639l5,-721l5,-810l5,-908l5,-1014l5,-1129l5,-1253l5,-1389l6,-1534" style="fill: none; stroke: red; stroke-width: 2;"></path>
    </g>
    <g>
     <g transform="translate(40,256)">
      <path style="stroke: black; stroke-width: 1; fill: none;" d="M0,0H-15m0,3v-6M0,0H15m0,3v-6M0,0V16m3,0h-6M0,0V-16m3,0h-6"></path>
     </g>
     <g transform="translate(146,208)">
      <path style="stroke: black; stroke-width: 1; fill: none;" d="M0,0H-44m0,3v-6M0,0H44m0,3v-6M0,0V22m3,0h-6M0,0V-22m3,0h-6"></path>
     </g>
     <g transform="translate(214,122)">
      <path style="stroke: black; stroke-width: 1; fill: none;" d="M0,0H-30m0,3v-6M0,0H30m0,3v-6M0,0V19m3,0h-6M0,0V-19m3,0h-6"></path>
     </g>
     <g transform="translate(251,68)">
      <path style="stroke: black; stroke-width: 1; fill: none;" d="M0,0H-22m0,3v-6M0,0H22m0,3v-6M0,0V11m3,0h-6M0,0V-11m3,0h-6"></path>
     </g>
     <g transform="translate(310,40)">
      <path style="stroke: black; stroke-width: 1; fill: none;" d="M0,0H-19m0,3v-6M0,0H19m0,3v-6M0,0V8m3,0h-6M0,0V-8m3,0h-6"></path>
     </g>
     <g transform="translate(351,25)">
      <path style="stroke: black; stroke-width: 1; fill: none;" d="M0,0H-15m0,3v-6M0,0H15m0,3v-6M0,0V8m3,0h-6M0,0V-8m3,0h-6"></path>
     </g>
     <g transform="translate(385,50)">
      <path style="stroke: black; stroke-width: 1; fill: none;" d="M0,0H-26m0,3v-6M0,0H26m0,3v-6M0,0V11m3,0h-6M0,0V-11m3,0h-6"></path>
     </g>
     <g transform="translate(440,115)">
      <path style="stroke: black; stroke-width: 1; fill: none;" d="M0,0H-22m0,3v-6M0,0H22m0,3v-6M0,0V14m3,0h-6M0,0V-14m3,0h-6"></path>
     </g>
     <g transform="translate(477,165)">
      <path style="stroke: black; stroke-width: 1; fill: none;" d="M0,0H-30m0,3v-6M0,0H30m0,3v-6M0,0V16m3,0h-6M0,0V-16m3,0h-6"></path>
     </g>
     <g transform="translate(518,258)">
      <path style="stroke: black; stroke-width: 1; fill: none;" d="M0,0H-15m0,3v-6M0,0H15m0,3v-6M0,0V19m3,0h-6M0,0V-19m3,0h-6"></path>
     </g>
     <path d="M36,256a4,4,0,1,0,8,0a4,4,0,1,0,-8,0zM142,208a4,4,0,1,0,8,0a4,4,0,1,0,-8,0zM210,122a4,4,0,1,0,8,0a4,4,0,1,0,-8,0zM247,68a4,4,0,1,0,8,0a4,4,0,1,0,-8,0zM306,40a4,4,0,1,0,8,0a4,4,0,1,0,-8,0zM347,25a4,4,0,1,0,8,0a4,4,0,1,0,-8,0zM381,50a4,4,0,1,0,8,0a4,4,0,1,0,-8,0zM436,115a4,4,0,1,0,8,0a4,4,0,1,0,-8,0zM473,165a4,4,0,1,0,8,0a4,4,0,1,0,-8,0zM514,258a4,4,0,1,0,8,0a4,4,0,1,0,-8,0z" style="stroke: red; fill: red;"></path>
    </g>
    <g>
     <path d="M-22,233l6,3l6,4l6,3l6,2l6,3l6,2l6,2l6,1l7,2h6l6,1h6l6,-1h6l6,-2l6,-1l6,-2l6,-3l6,-3l6,-3l7,-4l6,-4l6,-5l6,-5l6,-5l6,-5l6,-6l6,-6l6,-7l6,-6l6,-7l7,-7l6,-7l6,-8l6,-7l6,-7l6,-8l6,-7l6,-8l6,-7l6,-7l6,-7l6,-7l7,-7l6,-7l6,-6l6,-6l6,-6l6,-5l6,-5l6,-5l6,-4l6,-4l6,-3l7,-3l6,-2l6,-2l6,-1h6h6h6l6,1l6,2l6,2l6,3l6,4l7,4l6,5l6,6l6,6l6,7l6,7l6,8l6,9l6,9l6,9l6,10l7,10l6,11l6,12l6,11l6,12l6,12l6,12l6,12l6,13l6,12l6,12l6,12l7,12l6,11l6,11l6,11l6,9l6,9l6,9l6,7l6,6l6,5" style="fill: none; stroke: red; stroke-width: 2;"></path>
    </g>
   </svg>
   <g>
    <g transform="translate(0,379)">
     <path d="M0,0h558M14,-6V0M33,-6V0M51,-6V0M70,-11V0M88,-6V0M107,-6V0M125,-6V0M144,-11V0M162,-6V0M181,-6V0M199,-6V0M218,-11V0M236,-6V0M255,-6V0M273,-6V0M292,-11V0M310,-6V0M329,-6V0M348,-6V0M366,-11V0M385,-6V0M403,-6V0M422,-6V0M440,-11V0M459,-6V0M477,-6V0M496,-6V0M514,-11V0M533,-6V0M551,-6V0" style="stroke: black; stroke-width: 1;"></path>
     <g font-family="Arial" font-size="17" space="preserve" fill="black" text-anchor="middle">
      <text dy=".8em" transform="translate(70,3)">
       -0.2
      </text>
      <text dy=".8em" transform="translate(144,3)">
       0
      </text>
      <text dy=".8em" transform="translate(218,3)">
       0.2
      </text>
      <text dy=".8em" transform="translate(292,3)">
       0.4
      </text>
      <text dy=".8em" transform="translate(366,3)">
       0.6
      </text>
      <text dy=".8em" transform="translate(440,3)">
       0.8
      </text>
      <text dy=".8em" transform="translate(514,3)">
       1
      </text>
     </g>
    </g>
    <g>
     <path d="M0,0v379M17,367H0M9,354H0M9,340H0M9,326H0M17,313H0M9,299H0M9,286H0M9,272H0M17,258H0M9,245H0M9,231H0M9,217H0M17,204H0M9,190H0M9,177H0M9,163H0M17,149H0M9,136H0M9,122H0M9,108H0M17,95H0M9,81H0M9,68H0M9,54H0M17,40H0M9,27H0M9,13H0" style="stroke: black; stroke-width: 1;"></path>
     <g font-family="Arial" font-size="17" space="preserve" fill="black" text-anchor="end">
      <text dy=".4em" transform="translate(-3,367)">
       -2
      </text>
      <text dy=".4em" transform="translate(-3,313)">
       0
      </text>
      <text dy=".4em" transform="translate(-3,258)">
       2
      </text>
      <text dy=".4em" transform="translate(-3,204)">
       4
      </text>
      <text dy=".4em" transform="translate(-3,149)">
       6
      </text>
      <text dy=".4em" transform="translate(-3,95)">
       8
      </text>
      <text dy=".4em" transform="translate(-3,40)">
       10
      </text>
     </g>
    </g>
    <path d="M70,0v379M144,0v379M218,0v379M292,0v379M366,0v379M440,0v379M514,0v379" style="stroke: black; stroke-width: 1; stroke-dasharray: 1,2;"></path>
    <path d="M0,367h558M0,313h558M0,258h558M0,204h558M0,149h558M0,95h558M0,40h558" style="stroke: black; stroke-width: 1; stroke-dasharray: 1,2;"></path>
   </g>
  </g>
  <g transform="translate(84,31)" font-family="Arial" font-size="8" space="preserve">
   <path d="M0,0H140V88H0Z" style="fill: white; stroke: black; stroke-width: 1;"></path>
   <g transform="translate(7,9) scale(0.891)">
    <text fill="blue" font-size="9">
     χ
    </text>
    <text fill="blue" font-size="5" transform="translate(5,-5)">
     2
    </text>
    <text fill="blue" font-size="9" x="12">
     / ndf
    </text>
   </g>
   <text fill="blue" text-anchor="end" dy=".4em" transform="translate(133,6)">
    7.515 / 3
   </text>
   <text fill="blue" text-anchor="start" dy=".4em" transform="translate(7,17)">
    p0
   </text>
   <g transform="translate(64,19) scale(0.891)">
    <text fill="blue" font-size="9" x="4">
     2.022 ± 45734.630
    </text>
   </g>
   <text fill="blue" text-anchor="start" dy=".4em" transform="translate(7,28)">
    p1
   </text>
   <g transform="translate(69,30) scale(0.891)">
    <text fill="blue" font-size="9" x="4">
     85.35 ± 45715.18
    </text>
   </g>
   <text fill="blue" text-anchor="start" dy=".4em" transform="translate(7,39)">
    p2
   </text>
   <g transform="translate(70,41) scale(0.891)">
    <text fill="blue" font-size="9" x="4">
     -504.7 ± 45164.4
    </text>
   </g>
   <text fill="blue" text-anchor="start" dy=".4em" transform="translate(7,50)">
    p3
   </text>
   <g transform="translate(73,52) scale(0.891)">
    <text fill="blue" font-size="9" x="4">
     862.3 ± 45658.9
    </text>
   </g>
   <text fill="blue" text-anchor="start" dy=".4em" transform="translate(7,61)">
    p4
   </text>
   <g transform="translate(73,63) scale(0.891)">
    <text fill="blue" font-size="9" x="4">
     970.8 ± 39476.6
    </text>
   </g>
   <text fill="blue" text-anchor="start" dy=".4em" transform="translate(7,72)">
    p5
   </text>
   <g transform="translate(72,74) scale(0.891)">
    <text fill="blue" font-size="9" x="4">
     -3737 ± 33.4175
    </text>
   </g>
   <text fill="blue" text-anchor="start" dy=".4em" transform="translate(7,83)">
    p6
   </text>
   <g transform="translate(62,85) scale(0.891)">
    <text fill="blue" font-size="9" x="4">
     2497 ± 41820.5789
    </text>
   </g>
  </g>
  <g transform="translate(503,31)" font-family="Arial" font-size="7" space="preserve">
   <path d="M0,0H140V73H0Z" style="fill: white; stroke: black; stroke-width: 1;"></path>
   <g transform="translate(7,9) scale(0.845)">
    <text fill="red" font-size="9">
     χ
    </text>
    <text fill="red" font-size="5" transform="translate(5,-5)">
     2
    </text>
    <text fill="red" font-size="9" x="12">
     / ndf
    </text>
   </g>
   <text fill="red" text-anchor="end" dy=".4em" transform="translate(133,5)">
    0.8146 / 4
   </text>
   <text fill="red" text-anchor="start" dy=".4em" transform="translate(7,16)">
    p0
   </text>
   <g transform="translate(84,18) scale(0.845)">
    <text fill="red" font-size="9" x="4">
     3.959 ± 0.631
    </text>
   </g>
   <text fill="red" text-anchor="start" dy=".4em" transform="translate(7,26)">
    p1
   </text>
   <g transform="translate(89,29) scale(0.845)">
    <text fill="red" font-size="9" x="4">
     13.55 ± 1.43
    </text>
   </g>
   <text fill="red" text-anchor="start" dy=".4em" transform="translate(7,37)">
    p2
   </text>
   <g transform="translate(88,39) scale(0.845)">
    <text fill="red" font-size="9" x="4">
     18.33 ± 5.69
    </text>
   </g>
   <text fill="red" text-anchor="start" dy=".4em" transform="translate(7,47)">
    p3
   </text>
   <g transform="translate(86,50) scale(0.845)">
    <text fill="red" font-size="9" x="4">
     -32.01 ± 9.68
    </text>
   </g>
   <text fill="red" text-anchor="start" dy=".4em" transform="translate(7,57)">
    p4
   </text>
   <g transform="translate(82,60) scale(0.845)">
    <text fill="red" font-size="9" x="4">
     -26.60 ± 11.60
    </text>
   </g>
   <text fill="red" text-anchor="start" dy=".4em" transform="translate(7,68)">
    p5
   </text>
   <g transform="translate(88,71) scale(0.845)">
    <text fill="red" font-size="9" x="4">
     25.04 ± 8.75
    </text>
   </g>
  </g>
 </g>
</svg>