<svg xmlns="http://www.w3.org/2000/svg" viewBox="0 0 598 374" preserveAspectRatio="none" width="598" height="374">
 <path d="M0,0H598V374H0Z" style="fill: white;"></path>
 <g>
  <g transform="translate(60,37)">
   <path d="M0,0H478V299H0Z" style="fill: white; stroke: black; stroke-width: 1;"></path>
   <svg x="0" y="0" overflow="hidden" width="478" height="299" viewBox="0 0 478 299">
    <g>
     <path d="M-120,269l79,-30l80,-30l80,-30l79,-29h80l80,29l79,30l80,30l80,30" style="stroke: black; stroke-width: 1; fill: none;"></path>
     <path d="M36,209a4,4,0,1,0,8,0a4,4,0,1,0,-8,0zM116,179a4,4,0,1,0,8,0a4,4,0,1,0,-8,0zM195,150a4,4,0,1,0,8,0a4,4,0,1,0,-8,0zM275,150a4,4,0,1,0,8,0a4,4,0,1,0,-8,0zM355,179a4,4,0,1,0,8,0a4,4,0,1,0,-8,0zM434,209a4,4,0,1,0,8,0a4,4,0,1,0,-8,0z" style="stroke: red; fill: red;"></path>
    </g>
    <g>
     <path d="M-120,299l79,-30l80,-30l80,-30l79,-30h80l80,30l79,30l80,30l80,30" style="stroke: black; stroke-width: 1; fill: none;"></path>
     <path d="M36,239a4,4,0,1,0,8,0a4,4,0,1,0,-8,0zM116,209a4,4,0,1,0,8,0a4,4,0,1,0,-8,0zM195,179a4,4,0,1,0,8,0a4,4,0,1,0,-8,0zM275,179a4,4,0,1,0,8,0a4,4,0,1,0,-8,0zM355,209a4,4,0,1,0,8,0a4,4,0,1,0,-8,0zM434,239a4,4,0,1,0,8,0a4,4,0,1,0,-8,0z" style="stroke: green; fill: green;"></path>
    </g>
    <g>
     <path d="M-120,329l79,-30l80,-30l80,-30l79,-30h80l80,30l79,30l80,30l80,30" style="stroke: black; stroke-width: 1; fill: none;"></path>
     <path d="M36,269a4,4,0,1,0,8,0a4,4,0,1,0,-8,0zM116,239a4,4,0,1,0,8,0a4,4,0,1,0,-8,0zM195,209a4,4,0,1,0,8,0a4,4,0,1,0,-8,0zM275,209a4,4,0,1,0,8,0a4,4,0,1,0,-8,0zM355,239a4,4,0,1,0,8,0a4,4,0,1,0,-8,0zM434,269a4,4,0,1,0,8,0a4,4,0,1,0,-8,0z" style="stroke: blue; fill: blue;"></path>
    </g>
   </svg>
   <g>
    <g transform="translate(0,299)">
     <path d="M0,0h478M8,-6V0M24,-6V0M40,-11V0M56,-6V0M72,-6V0M88,-6V0M104,-6V0M120,-11V0M135,-6V0M151,-6V0M167,-6V0M183,-6V0M199,-11V0M215,-6V0M231,-6V0M247,-6V0M263,-6V0M279,-11V0M295,-6V0M311,-6V0M327,-6V0M343,-6V0M359,-11V0M374,-6V0M390,-6V0M406,-6V0M422,-6V0M438,-11V0M454,-6V0M470,-6V0" style="stroke: black; stroke-width: 1;"></path>
     <g font-family="Arial" font-size="13" space="preserve" fill="black" text-anchor="middle">
      <text dy=".8em" transform="translate(40,3)">
       2
      </text>
      <text dy=".8em" transform="translate(120,3)">
       3
      </text>
      <text dy=".8em" transform="translate(199,3)">
       4
      </text>
      <text dy=".8em" transform="translate(279,3)">
       5
      </text>
      <text dy=".8em" transform="translate(359,3)">
       6
      </text>
      <text dy=".8em" transform="translate(438,3)">
       7
      </text>
     </g>
     <g font-family="Arial" font-size="13" space="preserve" transform="translate(478,21)">
      <g transform="translate(-51,4)">
       <text fill="black" font-size="13">
        E
       </text>
       <text fill="black" font-size="8" transform="translate(8,3)">
        γ
       </text>
       <text fill="black" font-size="13" x="17">
        (GeV)
       </text>
      </g>
     </g>
    </g>
    <g>
     <path d="M0,0v299M18,299H0M9,293H0M9,287H0M9,281H0M9,275H0M18,269H0M9,263H0M9,257H0M9,251H0M9,245H0M18,239H0M9,233H0M9,227H0M9,221H0M9,215H0M18,209H0M9,203H0M9,197H0M9,191H0M9,185H0M18,179H0M9,173H0M9,167H0M9,161H0M9,155H0M18,150H0M9,144H0M9,138H0M9,132H0M9,126H0M18,120H0M9,114H0M9,108H0M9,102H0M9,96H0M18,90H0M9,84H0M9,78H0M9,72H0M9,66H0M18,60H0M9,54H0M9,48H0M9,42H0M9,36H0M18,30H0M9,24H0M9,18H0M9,12H0M9,6H0M18,0H0" style="stroke: black; stroke-width: 1;"></path>
     <g font-family="Arial" font-size="13" space="preserve" fill="black" text-anchor="end">
      <text dy=".4em" transform="translate(-3,299)">
       0
      </text>
      <text dy=".4em" transform="translate(-3,269)">
       1
      </text>
      <text dy=".4em" transform="translate(-3,239)">
       2
      </text>
      <text dy=".4em" transform="translate(-3,209)">
       3
      </text>
      <text dy=".4em" transform="translate(-3,179)">
       4
      </text>
      <text dy=".4em" transform="translate(-3,150)">
       5
      </text>
      <text dy=".4em" transform="translate(-3,120)">
       6
      </text>
      <text dy=".4em" transform="translate(-3,90)">
       7
      </text>
      <text dy=".4em" transform="translate(-3,60)">
       8
      </text>
      <text dy=".4em" transform="translate(-3,30)">
       9
      </text>
      <text dy=".4em" transform="translate(-3)">
       10
      </text>
     </g>
     <g font-family="Arial" font-size="13" space="preserve" transform="translate(-33)">
      <text fill="black" text-anchor="end" dy=".4em" transform="rotate(270)">
       Coefficients
      </text>
     </g>
    </g>
   </g>
  </g>
 </g>
</svg>