<svg xmlns="http://www.w3.org/2000/svg" viewBox="0 0 598 374" preserveAspectRatio="none" width="598" height="374">
 <path d="M0,0H598V374H0Z" style="fill: white;"></path>
 <g>
  <g transform="translate(60,37)">
   <path d="M0,0H478V299H0Z" style="fill: white; stroke: black; stroke-width: 1;"></path>
   <svg x="0" y="0" overflow="hidden" width="478" height="299" viewBox="0 0 478 299">
    <g>
     <path d="M0,25l48,28l49,27l48,28l48,28l48,27l49,28l48,28l48,27l49,28" style="stroke: blue; stroke-width: 4; fill: none;"></path>
     <path d="M0,29l-4,-8h8zM48,57l-4,-8h8zM97,84l-4,-8h8zM145,112l-4,-8h8zM193,140l-4,-8h8zM241,167l-4,-8h8zM290,195l-4,-8h8zM338,223l-4,-8h8zM386,250l-4,-8h8zM435,278l-4,-8h8z" style="stroke: black; fill: black;"></path>
    </g>
    <g>
     <path d="M0,25l48,46l49,46l48,46l48,46l48,47l49,46l48,46l48,46l49,46" style="stroke: red; stroke-width: 4; fill: none;"></path>
     <path d="M-4,21v8h8v-8zM44,67v8h8v-8zM93,113v8h8v-8zM141,159v8h8v-8zM189,205v8h8v-8zM237,252v8h8v-8zM286,298v8h8v-8z" style="stroke: black; fill: black;"></path>
    </g>
    <g>
     <path d="M0,25l48,23l49,23l48,23l48,23l48,23l49,23l48,23l48,23l49,24" style="stroke: green; stroke-width: 4; fill: none;"></path>
     <path d="M0,21l-4,8h8zM48,44l-4,8h8zM97,67l-4,8h8zM145,90l-4,8h8zM193,113l-4,8h8zM241,136l-4,8h8zM290,159l-4,8h8zM338,182l-4,8h8zM386,205l-4,8h8zM435,229l-4,8h8z" style="stroke: red; fill: red;"></path>
    </g>
   </svg>
   <g>
    <g transform="translate(0,299)">
     <path d="M0,0h478M0,-11V0M10,-6V0M19,-6V0M29,-6V0M39,-6V0M48,-11V0M58,-6V0M68,-6V0M77,-6V0M87,-6V0M97,-11V0M106,-6V0M116,-6V0M126,-6V0M135,-6V0M145,-11V0M155,-6V0M164,-6V0M174,-6V0M183,-6V0M193,-11V0M203,-6V0M212,-6V0M222,-6V0M232,-6V0M241,-11V0M251,-6V0M261,-6V0M270,-6V0M280,-6V0M290,-11V0M299,-6V0M309,-6V0M319,-6V0M328,-6V0M338,-11V0M348,-6V0M357,-6V0M367,-6V0M377,-6V0M386,-11V0M396,-6V0M406,-6V0M415,-6V0M425,-6V0M435,-11V0M444,-6V0M454,-6V0M464,-6V0M473,-6V0" style="stroke: black; stroke-width: 1;"></path>
     <g font-family="Arial" font-size="13" space="preserve" fill="black" text-anchor="middle">
      <text dy=".8em" transform="translate(0,3)">
       0
      </text>
      <text dy=".8em" transform="translate(48,3)">
       1
      </text>
      <text dy=".8em" transform="translate(97,3)">
       2
      </text>
      <text dy=".8em" transform="translate(145,3)">
       3
      </text>
      <text dy=".8em" transform="translate(193,3)">
       4
      </text>
      <text dy=".8em" transform="translate(241,3)">
       5
      </text>
      <text dy=".8em" transform="translate(290,3)">
       6
      </text>
      <text dy=".8em" transform="translate(338,3)">
       7
      </text>
      <text dy=".8em" transform="translate(386,3)">
       8
      </text>
      <text dy=".8em" transform="translate(435,3)">
       9
      </text>
     </g>
    </g>
    <g>
     <path d="M0,0v299M9,293H0M9,283H0M9,274H0M9,265H0M18,256H0M9,246H0M9,237H0M9,228H0M9,219H0M18,209H0M9,200H0M9,191H0M9,182H0M9,173H0M18,163H0M9,154H0M9,145H0M9,136H0M9,126H0M18,117H0M9,108H0M9,99H0M9,90H0M9,80H0M18,71H0M9,62H0M9,53H0M9,43H0M9,34H0M18,25H0M9,16H0M9,6H0" style="stroke: black; stroke-width: 1;"></path>
     <g font-family="Arial" font-size="13" space="preserve" fill="black" text-anchor="end">
      <text dy=".4em" transform="translate(-3,256)">
       5
      </text>
      <text dy=".4em" transform="translate(-3,209)">
       6
      </text>
      <text dy=".4em" transform="translate(-3,163)">
       7
      </text>
      <text dy=".4em" transform="translate(-3,117)">
       8
      </text>
      <text dy=".4em" transform="translate(-3,71)">
       9
      </text>
      <text dy=".4em" transform="translate(-3,25)">
       10
      </text>
     </g>
    </g>
   </g>
  </g>
  <g transform="translate(60,2)" font-family="Arial" font-size="19" space="preserve">
   <text fill="black" text-anchor="middle" dy=".8em" transform="translate(239)">
    graph 3
   </text>
  </g>
  <g transform="translate(299,45)" font-family="Arial" font-size="20" space="preserve">
   <path d="M0,0H227V79H0Z" style="fill: white; stroke: black; stroke-width: 1;"></path>
   <path d="M7,15H50" style="stroke: blue; stroke-width: 4;"></path>
   <path d="M29,19l-4,-8h8z" style="stroke: black; fill: black;"></path>
   <text fill="black" text-anchor="start" dy=".4em" transform="translate(57,15)">
    graph 3
   </text>
   <path d="M7,40H50" style="stroke: red; stroke-width: 4;"></path>
   <path d="M25,36v8h8v-8z" style="stroke: black; fill: black;"></path>
   <text fill="black" text-anchor="start" dy=".4em" transform="translate(57,40)">
    graph 1
   </text>
   <path d="M7,65H50" style="stroke: green; stroke-width: 4;"></path>
   <path d="M29,61l-4,8h8z" style="stroke: red; fill: red;"></path>
   <text fill="black" text-anchor="start" dy=".4em" transform="translate(57,65)">
    graph 2
   </text>
  </g>
 </g>
</svg>