<svg viewBox="0 0 1200 800" preserveAspectRatio="none" xmlns="http://www.w3.org/2000/svg" width="1200" height="800"><title>ROOT canvas</title><rect class="canvas_fillrect" x="0" y="0" width="1200" height="800" style="fill: white;"></rect><g class="root_frame" x="120" y="80" width="960" height="640" transform="translate(120,80)"><title></title><rect x="0" y="0" width="960" height="640" style="fill: white; stroke: black; stroke-width: 1;"></rect><g class="grid_layer"></g><svg class="main_layer" x="0" y="0" overflow="hidden" width="960" height="640" viewBox="0 0 960 640"><g objname="gr3" objtype="TGraph"><path d="M0,53l97,60l97,59l97,59l97,59l97,60l97,59l97,59l97,59l97,60" style="stroke: blue; stroke-width: 4; fill: none;"></path><path d="M0,57l-4,-8h8zM97,117l-4,-8h8zM194,176l-4,-8h8zM291,235l-4,-8h8zM388,294l-4,-8h8zM485,354l-4,-8h8zM582,413l-4,-8h8zM679,472l-4,-8h8zM776,531l-4,-8h8zM873,591l-4,-8h8z" style="stroke: black; fill: black;"></path></g><g objname="gr1" objtype="TGraph"><path d="M0,53l97,99l97,99l97,99l97,98l97,99l97,99l97,99l97,98l97,99" style="stroke: red; stroke-width: 4; fill: none;"></path><path d="M-4,49v8h8v-8zM93,148v8h8v-8zM190,247v8h8v-8zM287,346v8h8v-8zM384,444v8h8v-8zM481,543v8h8v-8z" style="stroke: black; fill: black;"></path></g><g objname="gr2" objtype="TGraph"><path d="M0,53l97,50l97,49l97,49l97,50l97,49l97,50l97,49l97,49l97,50" style="stroke: green; stroke-width: 4; fill: none;"></path><path d="M0,49l-4,8h8zM97,99l-4,8h8zM194,148l-4,8h8zM291,197l-4,8h8zM388,247l-4,8h8zM485,296l-4,8h8zM582,346l-4,8h8zM679,395l-4,8h8zM776,444l-4,8h8zM873,494l-4,8h8z" style="stroke: red; fill: red;"></path></g></svg><g class="axis_layer"><g class="xaxis_container" transform="translate(0,640)"><path d="M0,-19v19m48,-10v10m49,-10v10m48,-10v10m49,-19v19m48,-10v10m49,-10v10m48,-10v10m49,-19v19m48,-10v10m49,-10v10m48,-10v10m49,-19v19m48,-10v10m49,-10v10m48,-10v10m49,-19v19m48,-10v10m49,-10v10m48,-10v10" style="stroke: black; stroke-width: 1;"></path><g class="axis_labels" font-family="Arial" font-size="22" space="preserve"><text fill="black" x="0" y="8" dy=".7em" style="text-anchor: middle;">0</text><text fill="black" x="194" y="8" dy=".7em" style="text-anchor: middle;">2</text><text fill="black" x="388" y="8" dy=".7em" style="text-anchor: middle;">4</text><text fill="black" x="582" y="8" dy=".7em" style="text-anchor: middle;">6</text><text fill="black" x="776" y="8" dy=".7em" style="text-anchor: middle;">8</text></g></g><g class="yaxis_container"><path d="M15,626h-15m15,-20h-15m15,-19h-15m15,-20h-15m29,-20h-29m15,-20h-15m15,-19h-15m15,-20h-15m15,-20h-15m29,-20h-29m15,-19h-15m15,-20h-15m15,-20h-15m15,-20h-15m29,-19h-29m15,-20h-15m15,-20h-15m15,-20h-15m15,-19h-15m29,-20h-29m15,-20h-15m15,-20h-15m15,-19h-15m15,-20h-15m29,-20h-29m15,-20h-15m15,-19h-15m15,-20h-15m15,-20h-15m29,-20h-29m15,-19h-15m15,-20h-15" style="stroke: black; stroke-width: 1;"></path><g class="axis_labels" font-family="Arial" font-size="22" space="preserve"><text fill="black" x="-8" y="547" style="text-anchor: end; dominant-baseline: middle;">5</text><text fill="black" x="-8" y="448" style="text-anchor: end; dominant-baseline: middle;">6</text><text fill="black" x="-8" y="350" style="text-anchor: end; dominant-baseline: middle;">7</text><text fill="black" x="-8" y="251" style="text-anchor: end; dominant-baseline: middle;">8</text><text fill="black" x="-8" y="152" style="text-anchor: end; dominant-baseline: middle;">9</text><text fill="black" x="-8" y="53" style="text-anchor: end; dominant-baseline: middle;">10</text></g></g></g><g class="upper_layer"></g></g><g class="subpads_layer"></g><g class="special_layer"></g><g class="text_layer"><g objname="title" objtype="TPaveText" x="336" y="8" width="528" height="40" transform="translate(336,8)" font-family="Arial" font-size="33" space="preserve"><rect x="0" y="0" width="528" height="40" style="fill: none;"></rect><text text-anchor="middle" x="0" y="0" fill="black" transform="translate(264.0,21.0)" dominant-baseline="middle" class="" opacity="1">graph 3</text></g><g objname="TPave" objtype="TLegend" x="600" y="96" width="456" height="168" transform="translate(600,96)" font-family="Arial" font-size="44" space="preserve"><rect x="0" y="0" width="456" height="168" style="fill: white; stroke: black; stroke-width: 1;"></rect><rect x="14" y="10" width="86" height="42" style="fill: none;"></rect><line x1="14" y1="31" x2="100" y2="31" style="stroke: blue; stroke-width: 4;"></line><path d="M57,35l-4,-8h8z" style="stroke: black; fill: black;"></path><text text-anchor="start" x="0" y="0" fill="black" transform="translate(114.0,32.3)" dominant-baseline="middle" class="" opacity="1">graph 3</text><rect x="14" y="63" width="86" height="42" style="fill: none;"></rect><line x1="14" y1="84" x2="100" y2="84" style="stroke: red; stroke-width: 4;"></line><path d="M53,80v8h8v-8z" style="stroke: black; fill: black;"></path><text text-anchor="start" x="0" y="0" fill="black" transform="translate(114.0,85.3)" dominant-baseline="middle" class="" opacity="1">graph 1</text><rect x="14" y="115" width="86" height="42" style="fill: none;"></rect><line x1="14" y1="137" x2="100" y2="137" style="stroke: green; stroke-width: 4;"></line><path d="M57,133l-4,8h8z" style="stroke: red; fill: red;"></path><text text-anchor="start" x="0" y="0" fill="black" transform="translate(114.0,137.3)" dominant-baseline="middle" class="" opacity="1">graph 2</text></g></g><g class="stat_layer"></g><g class="btns_layer" transform="translate(2,780)"></g></svg>