<svg viewBox="0 0 1200 800" preserveAspectRatio="none" xmlns="http://www.w3.org/2000/svg" width="1200" height="800"><title>ROOT canvas</title><rect x="0" y="0" width="1200" height="800" style="fill: white;"></rect><g><g transform="translate(120,80)"><title></title><rect x="0" y="0" width="960" height="640" style="fill: white; stroke: black; stroke-width: 1;"></rect><svg x="0" y="0" overflow="hidden" width="960" height="640" viewBox="0 0 960 640"><g objname="gr3" objtype="TGraph"><path d="M0,53l97,60l97,59l97,59l97,59l97,60l97,59l97,59l97,59l97,60" style="stroke: blue; stroke-width: 4; fill: none;"></path><path d="M0,57l-4,-8h8zM97,117l-4,-8h8zM194,176l-4,-8h8zM291,235l-4,-8h8zM388,294l-4,-8h8zM485,354l-4,-8h8zM582,413l-4,-8h8zM679,472l-4,-8h8zM776,531l-4,-8h8zM873,591l-4,-8h8z" style="stroke: black; fill: black;"></path></g><g objname="gr1" objtype="TGraph"><path d="M0,53l97,99l97,99l97,99l97,98l97,99l97,99l97,99l97,98l97,99" style="stroke: red; stroke-width: 4; fill: none;"></path><path d="M-4,49v8h8v-8zM93,148v8h8v-8zM190,247v8h8v-8zM287,346v8h8v-8zM384,444v8h8v-8zM481,543v8h8v-8zM578,642v8h8v-8z" style="stroke: black; fill: black;"></path></g><g objname="gr2" objtype="TGraph"><path d="M0,53l97,50l97,49l97,49l97,50l97,49l97,50l97,49l97,49l97,50" style="stroke: green; stroke-width: 4; fill: none;"></path><path d="M0,49l-4,8h8zM97,99l-4,8h8zM194,148l-4,8h8zM291,197l-4,8h8zM388,247l-4,8h8zM485,296l-4,8h8zM582,346l-4,8h8zM679,395l-4,8h8zM776,444l-4,8h8zM873,494l-4,8h8z" style="stroke: red; fill: red;"></path></g></svg><g><g transform="translate(0,640)"><path d="M0,-24v24m48,-12v12m49,-12v12m48,-12v12m49,-24v24m48,-12v12m49,-12v12m48,-12v12m49,-24v24m48,-12v12m49,-12v12m48,-12v12m49,-24v24m48,-12v12m49,-12v12m48,-12v12m49,-24v24m48,-12v12m49,-12v12m48,-12v12" style="stroke: black; stroke-width: 1;"></path><g font-family="Arial" font-size="28" space="preserve"><text fill="black" text-anchor="middle" dy=".8em" transform="translate(0,6)">0</text><text fill="black" text-anchor="middle" dy=".8em" transform="translate(194,6)">2</text><text fill="black" text-anchor="middle" dy=".8em" transform="translate(388,6)">4</text><text fill="black" text-anchor="middle" dy=".8em" transform="translate(582,6)">6</text><text fill="black" text-anchor="middle" dy=".8em" transform="translate(776,6)">8</text></g></g><g><path d="M18,626h-18m18,-20h-18m18,-19h-18m18,-20h-18m36,-20h-36m18,-20h-18m18,-19h-18m18,-20h-18m18,-20h-18m36,-20h-36m18,-19h-18m18,-20h-18m18,-20h-18m18,-20h-18m36,-19h-36m18,-20h-18m18,-20h-18m18,-20h-18m18,-19h-18m36,-20h-36m18,-20h-18m18,-20h-18m18,-19h-18m18,-20h-18m36,-20h-36m18,-20h-18m18,-19h-18m18,-20h-18m18,-20h-18m36,-20h-36m18,-19h-18m18,-20h-18" style="stroke: black; stroke-width: 1;"></path><g font-family="Arial" font-size="28" space="preserve"><text fill="black" text-anchor="end" dy=".4em" transform="translate(-4,547)">5</text><text fill="black" text-anchor="end" dy=".4em" transform="translate(-4,448)">6</text><text fill="black" text-anchor="end" dy=".4em" transform="translate(-4,350)">7</text><text fill="black" text-anchor="end" dy=".4em" transform="translate(-4,251)">8</text><text fill="black" text-anchor="end" dy=".4em" transform="translate(-4,152)">9</text><text fill="black" text-anchor="end" dy=".4em" transform="translate(-4,53)">10</text></g></g></g></g><g objname="title" objtype="TPaveText" transform="translate(336,8)" font-family="Arial" font-size="33" space="preserve"><path d="M0,0h528v40h-528z" style="fill: none;"></path><text fill="black" text-anchor="middle" dy=".4em" transform="translate(264,20)">graph 3</text></g><g objname="TPave" objtype="TLegend" transform="translate(600,96)" font-family="Arial" font-size="43" space="preserve"><path d="M0,0h456v168h-456z" style="fill: white; stroke: black; stroke-width: 1;"></path><rect x="14" y="10" width="86" height="42" style="fill: none;"></rect><line x1="14" y1="31" x2="100" y2="31" style="stroke: blue; stroke-width: 4;"></line><path d="M57,35l-4,-8h8z" style="stroke: black; fill: black;"></path><text fill="black" text-anchor="start" dy=".4em" transform="translate(114,31)">graph 3</text><rect x="14" y="63" width="86" height="42" style="fill: none;"></rect><line x1="14" y1="84" x2="100" y2="84" style="stroke: red; stroke-width: 4;"></line><path d="M53,80v8h8v-8z" style="stroke: black; fill: black;"></path><text fill="black" text-anchor="start" dy=".4em" transform="translate(114,84)">graph 1</text><rect x="14" y="115" width="86" height="42" style="fill: none;"></rect><line x1="14" y1="137" x2="100" y2="137" style="stroke: green; stroke-width: 4;"></line><path d="M57,133l-4,8h8z" style="stroke: red; fill: red;"></path><text fill="black" text-anchor="start" dy=".4em" transform="translate(114,136)">graph 2</text></g></g></svg>