<svg viewBox="0 0 1200 800" preserveAspectRatio="none" xmlns="http://www.w3.org/2000/svg" width="1200" height="800"><defs class="canvas_defs"><pattern id="pat_3005_1" class="pat_3005_1" patternUnits="userSpaceOnUse" width="8" height="8"><line x1="0" y1="0" x2="8" y2="8" style="stroke: black; stroke-width: 1;"></line></pattern><pattern id="pat_3004_9" class="pat_3004_9" patternUnits="userSpaceOnUse" width="8" height="8"><line x1="8" y1="0" x2="0" y2="8" style="stroke: rgb(89,84,217); stroke-width: 1;"></line></pattern><pattern id="pat_3002_2" class="pat_3002_2" patternUnits="userSpaceOnUse" width="4" height="2"><rect x="1" y="0" width="1" height="1" style="fill: red;"></rect><rect x="3" y="1" width="1" height="1" style="fill: red;"></rect></pattern></defs><title>ROOT canvas</title><rect class="canvas_fillrect" x="0" y="0" width="1200" height="800" style="fill: white;"></rect><g class="root_frame" x="120" y="80" width="960" height="640" transform="translate(120,80)"><title></title><rect x="0" y="0" width="960" height="640" style="fill: white; stroke: black; stroke-width: 1;"></rect><g class="grid_layer"><path class="xgrid" d="M0,0v640M117,0v640M234,0v640M352,0v640M469,0v640M586,0v640M703,0v640M821,0v640M938,0v640" style="stroke: black; stroke-width: 1; stroke-dasharray: 1,3;"></path><path class="ygrid" d="M0,611h960M0,553h960M0,495h960M0,437h960M0,378h960M0,320h960M0,262h960M0,204h960M0,146h960M0,87h960M0,29h960" style="stroke: black; stroke-width: 1; stroke-dasharray: 1,3;"></path></g><svg class="main_layer" x="0" y="0" overflow="hidden" width="960" height="640" viewBox="0 0 960 640"><g objname="Graph" objtype="TGraph"><path d="M0.00,320.13c1.54,-1.91,20.34,-25.23,23.44,-29.06s20.29,-24.93,23.44,-28.76s20.19,-24.33,23.44,-28.19s20.05,-23.45,23.44,-27.33s19.86,-22.30,23.44,-26.20s19.62,-20.89,23.44,-24.80s19.33,-19.26,23.44,-23.16s18.97,-17.42,23.44,-21.29s18.54,-15.42,23.44,-19.20s18.05,-13.31,23.44,-16.92s17.51,-11.14,23.44,-14.48s16.94,-8.96,23.44,-11.88s16.40,-6.84,23.44,-9.17s15.96,-4.80,23.44,-6.37s15.67,-2.95,23.44,-3.51s15.64,-0.84,23.44,-0.60s15.82,1.08,23.44,2.30s16.20,3.15,23.44,5.19s16.71,5.32,23.44,8.02s17.27,7.59,23.44,10.77s17.83,9.90,23.44,13.41s18.34,12.20,23.44,15.92s18.80,14.44,23.44,18.27s19.19,16.55,23.44,20.44s19.51,18.50,23.44,22.41s19.77,20.25,23.44,24.15s19.98,21.76,23.44,25.65s20.14,23.03,23.44,26.89s20.25,24.02,23.44,27.86s20.32,24.73,23.44,28.56s20.36,25.15,23.44,28.97s20.36,25.27,23.44,29.09s20.31,25.09,23.44,28.92s21.86,26.54,23.44,28.46L854.96,346.81c-1.57,-1.90,-20.16,-24.44,-23.26,-28.23s-20.12,-24.81,-23.19,-28.61s-20.33,-25.23,-23.42,-29.07s-20.49,-25.35,-23.66,-29.23s-20.63,-25.17,-23.90,-29.11s-20.73,-24.71,-24.16,-28.71s-20.81,-23.97,-24.45,-28.05s-20.88,-22.96,-24.80,-27.12s-20.93,-21.71,-25.20,-25.95s-20.97,-20.23,-25.69,-24.55s-21.00,-18.55,-26.28,-22.91s-21.03,-16.69,-27.00,-21.04s-21.06,-14.66,-27.86,-18.91s-21.11,-12.50,-28.85,-16.49s-21.17,-10.23,-29.93,-13.73s-21.29,-7.86,-31.01,-10.59s-21.38,-5.38,-31.95,-7.05s-22.39,-2.90,-33.06,-3.21s-20.30,0.03,-31.01,0.76s-23.15,2.75,-33.55,4.92s-22.25,5.48,-31.59,8.57s-22.24,8.21,-30.57,11.95s-22.14,10.80,-29.47,14.92s-21.98,13.23,-28.42,17.53s-21.82,15.46,-27.48,19.83s-21.65,17.50,-26.69,21.85s-21.50,19.34,-26.02,23.62s-21.36,20.95,-25.48,25.16s-21.23,22.34,-25.02,26.47s-21.10,23.49,-24.65,27.54s-20.97,24.38,-24.33,28.35s-20.83,25.00,-24.05,28.91s-20.66,25.33,-23.79,29.20s-22.01,27.28,-23.56,29.20Z" style="stroke: none; fill: url(#pat_3005_1); opacity: 0.75;"></path><path d="M0.00,320.13c1.54,-1.91,20.34,-25.23,23.44,-29.06s20.29,-24.93,23.44,-28.76s20.19,-24.33,23.44,-28.19s20.05,-23.45,23.44,-27.33s19.86,-22.30,23.44,-26.20s19.62,-20.89,23.44,-24.80s19.33,-19.26,23.44,-23.16s18.97,-17.42,23.44,-21.29s18.54,-15.42,23.44,-19.20s18.05,-13.31,23.44,-16.92s17.51,-11.14,23.44,-14.48s16.94,-8.96,23.44,-11.88s16.40,-6.84,23.44,-9.17s15.96,-4.80,23.44,-6.37s15.67,-2.95,23.44,-3.51s15.64,-0.84,23.44,-0.60s15.82,1.08,23.44,2.30s16.20,3.15,23.44,5.19s16.71,5.32,23.44,8.02s17.27,7.59,23.44,10.77s17.83,9.90,23.44,13.41s18.34,12.20,23.44,15.92s18.80,14.44,23.44,18.27s19.19,16.55,23.44,20.44s19.51,18.50,23.44,22.41s19.77,20.25,23.44,24.15s19.98,21.76,23.44,25.65s20.14,23.03,23.44,26.89s20.25,24.02,23.44,27.86s20.32,24.73,23.44,28.56s20.36,25.15,23.44,28.97s20.36,25.27,23.44,29.09s20.31,25.09,23.44,28.92s21.86,26.54,23.44,28.46" style="stroke: red; stroke-width: 4; fill: none;"></path></g><g objname="Graph" objtype="TGraph"><path d="M0.00,29.09c3.89,0.24,15.75,0.50,23.44,1.45s16.08,2.53,23.44,4.35s16.55,4.67,23.44,7.20s17.11,6.92,23.44,9.98s17.67,9.22,23.44,12.65s18.20,11.53,23.44,15.21s18.67,13.80,23.44,17.61s19.08,15.95,23.44,19.83s19.42,17.95,23.44,21.86s19.70,19.76,23.44,23.66s19.92,21.35,23.44,25.23s20.10,22.69,23.44,26.55s20.22,23.76,23.44,27.61s20.31,24.55,23.44,28.39s20.35,25.06,23.44,28.88s20.36,25.27,23.44,29.09s20.33,25.17,23.44,29.00s20.26,24.79,23.44,28.63s20.15,24.11,23.44,27.96s20.00,23.15,23.44,27.02s19.80,21.92,23.44,25.81s19.54,20.44,23.44,24.35s19.23,18.74,23.44,22.64s18.85,16.85,23.44,20.70s18.40,14.81,23.44,18.55s17.89,12.68,23.44,16.22s17.34,10.50,23.44,13.73s16.78,8.34,23.44,11.10s16.26,6.23,23.44,8.36s15.86,4.21,23.44,5.54s15.63,2.52,23.44,2.66s15.63,-0.05,23.44,-0.24s15.92,-1.68,23.44,-3.15s19.78,-5.08,23.44,-6.02L823.18,703.20c-4.61,1.16,-18.08,5.25,-29.41,7.37s-29.43,4.80,-40.91,5.06s-16.75,0.45,-28.03,0.26s-27.51,-2.14,-39.63,-4.21s-24.62,-5.17,-35.20,-8.30s-24.44,-8.15,-33.85,-12.06s-24.11,-10.94,-32.33,-15.29s-23.69,-13.48,-30.83,-18.04s-23.25,-15.77,-29.46,-20.37s-22.84,-17.81,-28.29,-22.38s-22.47,-19.63,-27.31,-24.10s-22.14,-21.21,-26.50,-25.58s-21.86,-22.57,-25.83,-26.82s-21.60,-23.68,-25.27,-27.82s-21.35,-24.54,-24.80,-28.59s-21.11,-25.13,-24.40,-29.10s-20.87,-25.45,-24.04,-29.35s-20.60,-25.48,-23.70,-29.32s-20.32,-25.22,-23.38,-29.00s-19.99,-24.66,-23.05,-28.39s-19.61,-23.80,-22.70,-27.49s-19.17,-22.65,-22.33,-26.29s-18.65,-21.22,-21.90,-24.81s-18.03,-19.52,-21.39,-23.03s-17.29,-17.59,-20.79,-21.00s-16.42,-15.47,-20.07,-18.72s-15.40,-13.21,-19.19,-16.25s-14.22,-10.89,-18.13,-13.63s-12.90,-8.60,-16.88,-10.97s-11.48,-6.44,-15.45,-8.36s-10.05,-4.52,-13.92,-5.94s-8.72,-2.92,-12.44,-3.84s-6.58,-1.55,-11.23,-2.10s-14.22,-0.72,-17.05,-0.86Z" style="stroke: none; fill: url(#pat_3004_9); opacity: 0.75;"></path><path d="M0.00,29.09c3.89,0.24,15.75,0.50,23.44,1.45s16.08,2.53,23.44,4.35s16.55,4.67,23.44,7.20s17.11,6.92,23.44,9.98s17.67,9.22,23.44,12.65s18.20,11.53,23.44,15.21s18.67,13.80,23.44,17.61s19.08,15.95,23.44,19.83s19.42,17.95,23.44,21.86s19.70,19.76,23.44,23.66s19.92,21.35,23.44,25.23s20.10,22.69,23.44,26.55s20.22,23.76,23.44,27.61s20.31,24.55,23.44,28.39s20.35,25.06,23.44,28.88s20.36,25.27,23.44,29.09s20.33,25.17,23.44,29.00s20.26,24.79,23.44,28.63s20.15,24.11,23.44,27.96s20.00,23.15,23.44,27.02s19.80,21.92,23.44,25.81s19.54,20.44,23.44,24.35s19.23,18.74,23.44,22.64s18.85,16.85,23.44,20.70s18.40,14.81,23.44,18.55s17.89,12.68,23.44,16.22s17.34,10.50,23.44,13.73s16.78,8.34,23.44,11.10s16.26,6.23,23.44,8.36s15.86,4.21,23.44,5.54s15.63,2.52,23.44,2.66s15.63,-0.05,23.44,-0.24s15.92,-1.68,23.44,-3.15s19.78,-5.08,23.44,-6.02" style="stroke: blue; stroke-width: 2; fill: none;"></path></g><g objname="Graph" objtype="TGraph"><path d="M117.22,378.33c1.54,-1.91,20.34,-25.23,23.44,-29.06s20.29,-24.93,23.44,-28.76s20.19,-24.33,23.44,-28.19s20.05,-23.45,23.44,-27.33s19.86,-22.30,23.44,-26.20s19.62,-20.89,23.44,-24.80s19.33,-19.26,23.44,-23.16s18.97,-17.42,23.44,-21.29s18.54,-15.42,23.44,-19.20s18.05,-13.31,23.44,-16.92s17.51,-11.14,23.44,-14.48s16.94,-8.96,23.44,-11.88s16.40,-6.84,23.44,-9.17s15.96,-4.80,23.44,-6.37s15.67,-2.95,23.44,-3.51s15.64,-0.84,23.44,-0.60s15.82,1.08,23.44,2.30s16.20,3.15,23.44,5.19s16.71,5.32,23.44,8.02s17.27,7.59,23.44,10.77s17.83,9.90,23.44,13.41s18.34,12.20,23.44,15.92s18.80,14.44,23.44,18.27s19.19,16.55,23.44,20.44s19.51,18.50,23.44,22.41s19.77,20.25,23.44,24.15s19.98,21.76,23.44,25.65s20.14,23.03,23.44,26.89s20.25,24.02,23.44,27.86s20.32,24.73,23.44,28.56s20.36,25.15,23.44,28.97s20.36,25.27,23.44,29.09s20.31,25.09,23.44,28.92s21.86,26.54,23.44,28.46L879.55,481.31c-1.59,-1.93,-20.41,-24.75,-23.56,-28.60s-20.50,-25.27,-23.59,-29.11s-20.38,-25.29,-23.45,-29.10s-20.22,-25.02,-23.32,-28.81s-20.03,-24.44,-23.17,-28.23s-19.78,-23.58,-23.01,-27.35s-19.48,-22.43,-22.84,-26.20s-19.11,-21.02,-22.63,-24.76s-18.66,-19.36,-22.39,-23.06s-18.11,-17.48,-22.09,-21.12s-17.47,-15.44,-21.74,-18.96s-16.73,-13.28,-21.31,-16.62s-15.89,-11.06,-20.79,-14.13s-14.97,-8.87,-20.20,-11.57s-14.03,-6.78,-19.55,-8.99s-13.15,-4.85,-18.90,-6.47s-12.49,-3.12,-18.34,-4.06s-11.59,-1.57,-17.68,-1.76s-12.89,0.06,-18.90,0.51s-11.65,1.44,-17.38,2.65s-12.89,3.17,-18.56,5.05s-13.76,5.08,-19.17,7.51s-14.73,7.19,-19.83,10.06s-15.69,9.44,-20.46,12.64s-16.57,11.75,-21.02,15.18s-17.35,14.03,-21.50,17.61s-18.02,16.21,-21.89,19.88s-18.58,18.23,-22.22,21.96s-19.04,20.05,-22.49,23.80s-19.42,21.62,-22.72,25.39s-19.72,22.93,-22.91,26.71s-19.96,23.97,-23.08,27.75s-20.15,24.71,-23.23,28.51s-21.84,27.07,-23.37,28.97Z" style="stroke: none; fill: url(#pat_3002_2); opacity: 0.75;"></path><path d="M117.22,378.33c1.54,-1.91,20.34,-25.23,23.44,-29.06s20.29,-24.93,23.44,-28.76s20.19,-24.33,23.44,-28.19s20.05,-23.45,23.44,-27.33s19.86,-22.30,23.44,-26.20s19.62,-20.89,23.44,-24.80s19.33,-19.26,23.44,-23.16s18.97,-17.42,23.44,-21.29s18.54,-15.42,23.44,-19.20s18.05,-13.31,23.44,-16.92s17.51,-11.14,23.44,-14.48s16.94,-8.96,23.44,-11.88s16.40,-6.84,23.44,-9.17s15.96,-4.80,23.44,-6.37s15.67,-2.95,23.44,-3.51s15.64,-0.84,23.44,-0.60s15.82,1.08,23.44,2.30s16.20,3.15,23.44,5.19s16.71,5.32,23.44,8.02s17.27,7.59,23.44,10.77s17.83,9.90,23.44,13.41s18.34,12.20,23.44,15.92s18.80,14.44,23.44,18.27s19.19,16.55,23.44,20.44s19.51,18.50,23.44,22.41s19.77,20.25,23.44,24.15s19.98,21.76,23.44,25.65s20.14,23.03,23.44,26.89s20.25,24.02,23.44,27.86s20.32,24.73,23.44,28.56s20.36,25.15,23.44,28.97s20.36,25.27,23.44,29.09s20.31,25.09,23.44,28.92s21.86,26.54,23.44,28.46" style="stroke: yellow; stroke-width: 2; fill: none;"></path></g></svg><g class="axis_layer"><g class="xaxis_container" transform="translate(0,640)"><path d="M0,-19v19m23,-10v10m24,-10v10m23,-10v10m24,-10v10m23,-19v19m24,-10v10m23,-10v10m24,-10v10m23,-10v10m23,-19v19m24,-10v10m23,-10v10m24,-10v10m23,-10v10m24,-19v19m23,-10v10m24,-10v10m23,-10v10m23,-10v10m24,-19v19m23,-10v10m24,-10v10m23,-10v10m24,-10v10m23,-19v19m24,-10v10m23,-10v10m23,-10v10m24,-10v10m23,-19v19m24,-10v10m23,-10v10m24,-10v10m23,-10v10m24,-19v19m23,-10v10m23,-10v10m24,-10v10m23,-10v10m24,-19v19" style="stroke: black; stroke-width: 1;"></path><g class="axis_labels" font-family="Arial" font-size="22" space="preserve"><text fill="black" x="0" y="8" dy=".7em" style="text-anchor: middle;">0</text><text fill="black" x="117" y="8" dy=".7em" style="text-anchor: middle;">0.5</text><text fill="black" x="234" y="8" dy=".7em" style="text-anchor: middle;">1</text><text fill="black" x="352" y="8" dy=".7em" style="text-anchor: middle;">1.5</text><text fill="black" x="469" y="8" dy=".7em" style="text-anchor: middle;">2</text><text fill="black" x="586" y="8" dy=".7em" style="text-anchor: middle;">2.5</text><text fill="black" x="703" y="8" dy=".7em" style="text-anchor: middle;">3</text><text fill="black" x="821" y="8" dy=".7em" style="text-anchor: middle;">3.5</text><text fill="black" x="938" y="8" dy=".7em" style="text-anchor: middle;">4</text></g></g><g class="yaxis_container"><path d="M15,626h-15m29,-15h-29m15,-14h-15m15,-15h-15m15,-14h-15m29,-15h-29m15,-15h-15m15,-14h-15m15,-15h-15m29,-14h-29m15,-15h-15m15,-14h-15m15,-15h-15m29,-14h-29m15,-15h-15m15,-15h-15m15,-14h-15m29,-15h-29m15,-14h-15m15,-15h-15m15,-14h-15m29,-15h-29m15,-14h-15m15,-15h-15m15,-15h-15m29,-14h-29m15,-15h-15m15,-14h-15m15,-15h-15m29,-14h-29m15,-15h-15m15,-14h-15m15,-15h-15m29,-14h-29m15,-15h-15m15,-15h-15m15,-14h-15m29,-15h-29m15,-14h-15m15,-15h-15m15,-14h-15m29,-15h-29m15,-14h-15" style="stroke: black; stroke-width: 1;"></path><g class="axis_labels" font-family="Arial" font-size="22" space="preserve"><text fill="black" x="-8" y="611" style="text-anchor: end; dominant-baseline: middle;">-10</text><text fill="black" x="-8" y="553" style="text-anchor: end; dominant-baseline: middle;">-8</text><text fill="black" x="-8" y="495" style="text-anchor: end; dominant-baseline: middle;">-6</text><text fill="black" x="-8" y="437" style="text-anchor: end; dominant-baseline: middle;">-4</text><text fill="black" x="-8" y="378" style="text-anchor: end; dominant-baseline: middle;">-2</text><text fill="black" x="-8" y="320" style="text-anchor: end; dominant-baseline: middle;">0</text><text fill="black" x="-8" y="262" style="text-anchor: end; dominant-baseline: middle;">2</text><text fill="black" x="-8" y="204" style="text-anchor: end; dominant-baseline: middle;">4</text><text fill="black" x="-8" y="146" style="text-anchor: end; dominant-baseline: middle;">6</text><text fill="black" x="-8" y="87" style="text-anchor: end; dominant-baseline: middle;">8</text><text fill="black" x="-8" y="29" style="text-anchor: end; dominant-baseline: middle;">10</text></g></g></g><g class="upper_layer"></g></g><g class="subpads_layer"></g><g class="special_layer"></g><g class="text_layer"><g objname="title" objtype="TPaveText" x="336" y="8" width="528" height="40" transform="translate(336,8)" font-family="Arial" font-size="33" space="preserve"><rect x="0" y="0" width="528" height="40" style="fill: none;"></rect><text text-anchor="middle" x="0" y="0" fill="black" transform="translate(264.0,21.0)" dominant-baseline="middle" class="" opacity="1">Exclusion graphs</text></g></g><g class="stat_layer"></g><g class="btns_layer" transform="translate(2,780)"></g></svg>