<svg viewBox="0 0 1200 800" preserveAspectRatio="none" xmlns="http://www.w3.org/2000/svg" width="1200" height="800"><defs><pattern id="pat_3005_1" patternUnits="userSpaceOnUse" width="8" height="8"><line x1="0" y1="0" x2="8" y2="8" style="stroke: black; stroke-width: 1;"></line></pattern><pattern id="pat_3004_9" patternUnits="userSpaceOnUse" width="8" height="8"><line x1="8" y1="0" x2="0" y2="8" style="stroke: rgb(89,84,217); stroke-width: 1;"></line></pattern><pattern id="pat_3002_2" patternUnits="userSpaceOnUse" width="4" height="2"><rect x="1" y="0" width="1" height="1" style="fill: red;"></rect><rect x="3" y="1" width="1" height="1" style="fill: red;"></rect></pattern></defs><title>ROOT canvas</title><rect x="0" y="0" width="1200" height="800" style="fill: white;"></rect><g x="120" y="80" width="960" height="640" transform="translate(120,80)"><title></title><rect x="0" y="0" width="960" height="640" style="fill: white; stroke: black; stroke-width: 1;"></rect><g><path d="M0,0v640M117,0v640M234,0v640M352,0v640M469,0v640M586,0v640M703,0v640M821,0v640M938,0v640" style="stroke: black; stroke-width: 1; stroke-dasharray: 1,3;"></path><path d="M0,611h960M0,553h960M0,495h960M0,437h960M0,378h960M0,320h960M0,262h960M0,204h960M0,146h960M0,87h960M0,29h960" style="stroke: black; stroke-width: 1; stroke-dasharray: 1,3;"></path></g><svg x="0" y="0" overflow="hidden" width="960" height="640" viewBox="0 0 960 640"><g objname="Graph" objtype="TGraph"><path d="M0.00,320.13c1.54,-1.91,20.34,-25.23,23.44,-29.06s20.29,-24.93,23.44,-28.76s20.19,-24.33,23.44,-28.19s20.05,-23.45,23.44,-27.33s19.86,-22.30,23.44,-26.20s19.62,-20.89,23.44,-24.80s19.33,-19.26,23.44,-23.16s18.97,-17.42,23.44,-21.29s18.54,-15.42,23.44,-19.20s18.05,-13.31,23.44,-16.92s17.51,-11.14,23.44,-14.48s16.94,-8.96,23.44,-11.88s16.40,-6.84,23.44,-9.17s15.96,-4.80,23.44,-6.37s15.67,-2.95,23.44,-3.51s15.64,-0.84,23.44,-0.60s15.82,1.08,23.44,2.30s16.20,3.15,23.44,5.19s16.71,5.32,23.44,8.02s17.27,7.59,23.44,10.77s17.83,9.90,23.44,13.41s18.34,12.20,23.44,15.92s18.80,14.44,23.44,18.27s19.19,16.55,23.44,20.44s19.51,18.50,23.44,22.41s19.77,20.25,23.44,24.15s19.98,21.76,23.44,25.65s20.14,23.03,23.44,26.89s20.25,24.02,23.44,27.86s20.32,24.73,23.44,28.56s20.36,25.15,23.44,28.97s20.36,25.27,23.44,29.09s20.31,25.09,23.44,28.92s21.86,26.54,23.44,28.46L854.96,346.81c-1.57,-1.90,-20.16,-24.44,-23.26,-28.23s-20.12,-24.81,-23.19,-28.61s-20.33,-25.23,-23.42,-29.07s-20.49,-25.35,-23.66,-29.23s-20.63,-25.17,-23.90,-29.11s-20.73,-24.71,-24.16,-28.71s-20.81,-23.97,-24.45,-28.05s-20.88,-22.96,-24.80,-27.12s-20.93,-21.71,-25.20,-25.95s-20.97,-20.23,-25.69,-24.55s-21.00,-18.55,-26.28,-22.91s-21.03,-16.69,-27.00,-21.04s-21.06,-14.66,-27.86,-18.91s-21.11,-12.50,-28.85,-16.49s-21.17,-10.23,-29.93,-13.73s-21.29,-7.86,-31.01,-10.59s-21.38,-5.38,-31.95,-7.05s-22.39,-2.90,-33.06,-3.21s-20.30,0.03,-31.01,0.76s-23.15,2.75,-33.55,4.92s-22.25,5.48,-31.59,8.57s-22.24,8.21,-30.57,11.95s-22.14,10.80,-29.47,14.92s-21.98,13.23,-28.42,17.53s-21.82,15.46,-27.48,19.83s-21.65,17.50,-26.69,21.85s-21.50,19.34,-26.02,23.62s-21.36,20.95,-25.48,25.16s-21.23,22.34,-25.02,26.47s-21.10,23.49,-24.65,27.54s-20.97,24.38,-24.33,28.35s-20.83,25.00,-24.05,28.91s-20.66,25.33,-23.79,29.20s-22.01,27.28,-23.56,29.20Z" style="stroke: none; fill: url(#pat_3005_1); opacity: 0.75;"></path><path d="M0.00,320.13c1.54,-1.91,20.34,-25.23,23.44,-29.06s20.29,-24.93,23.44,-28.76s20.19,-24.33,23.44,-28.19s20.05,-23.45,23.44,-27.33s19.86,-22.30,23.44,-26.20s19.62,-20.89,23.44,-24.80s19.33,-19.26,23.44,-23.16s18.97,-17.42,23.44,-21.29s18.54,-15.42,23.44,-19.20s18.05,-13.31,23.44,-16.92s17.51,-11.14,23.44,-14.48s16.94,-8.96,23.44,-11.88s16.40,-6.84,23.44,-9.17s15.96,-4.80,23.44,-6.37s15.67,-2.95,23.44,-3.51s15.64,-0.84,23.44,-0.60s15.82,1.08,23.44,2.30s16.20,3.15,23.44,5.19s16.71,5.32,23.44,8.02s17.27,7.59,23.44,10.77s17.83,9.90,23.44,13.41s18.34,12.20,23.44,15.92s18.80,14.44,23.44,18.27s19.19,16.55,23.44,20.44s19.51,18.50,23.44,22.41s19.77,20.25,23.44,24.15s19.98,21.76,23.44,25.65s20.14,23.03,23.44,26.89s20.25,24.02,23.44,27.86s20.32,24.73,23.44,28.56s20.36,25.15,23.44,28.97s20.36,25.27,23.44,29.09s20.31,25.09,23.44,28.92s21.86,26.54,23.44,28.46" style="stroke: red; stroke-width: 4; fill: none;"></path></g><g objname="Graph" objtype="TGraph"><path d="M0.00,29.09c3.89,0.24,15.75,0.50,23.44,1.45s16.08,2.53,23.44,4.35s16.55,4.67,23.44,7.20s17.11,6.92,23.44,9.98s17.67,9.22,23.44,12.65s18.20,11.53,23.44,15.21s18.67,13.80,23.44,17.61s19.08,15.95,23.44,19.83s19.42,17.95,23.44,21.86s19.70,19.76,23.44,23.66s19.92,21.35,23.44,25.23s20.10,22.69,23.44,26.55s20.22,23.76,23.44,27.61s20.31,24.55,23.44,28.39s20.35,25.06,23.44,28.88s20.36,25.27,23.44,29.09s20.33,25.17,23.44,29.00s20.26,24.79,23.44,28.63s20.15,24.11,23.44,27.96s20.00,23.15,23.44,27.02s19.80,21.92,23.44,25.81s19.54,20.44,23.44,24.35s19.23,18.74,23.44,22.64s18.85,16.85,23.44,20.70s18.40,14.81,23.44,18.55s17.89,12.68,23.44,16.22s17.34,10.50,23.44,13.73s16.78,8.34,23.44,11.10s16.26,6.23,23.44,8.36s15.86,4.21,23.44,5.54s15.63,2.52,23.44,2.66s15.63,-0.05,23.44,-0.24s15.92,-1.68,23.44,-3.15s19.78,-5.08,23.44,-6.02L770.96,499.80c-2.72,0.73,-13.78,3.80,-17.48,4.67s-1.84,1.10,-5.97,1.23s-14.51,0.31,-18.86,0.23s-4.22,-0.51,-7.26,-1.11s-7.90,-1.65,-11.68,-2.78s-9.11,-3.04,-13.03,-4.67s-10.58,-4.80,-14.56,-6.92s-12.10,-6.89,-16.06,-9.43s-13.55,-9.20,-17.42,-12.07s-14.86,-11.60,-18.60,-14.73s-15.99,-13.98,-19.58,-17.30s-16.94,-16.24,-20.39,-19.70s-17.74,-18.33,-21.06,-21.88s-18.41,-20.19,-21.61,-23.80s-18.96,-21.79,-22.08,-25.46s-19.41,-23.12,-22.49,-26.83s-19.79,-24.15,-22.85,-27.90s-20.12,-24.88,-23.19,-28.68s-20.39,-25.31,-23.51,-29.17s-20.63,-25.44,-23.84,-29.36s-20.83,-25.28,-24.18,-29.28s-21.02,-24.83,-24.56,-28.92s-21.20,-24.11,-24.99,-28.30s-21.37,-23.14,-25.49,-27.43s-21.55,-21.92,-26.09,-26.33s-21.74,-20.48,-26.82,-24.99s-21.95,-18.83,-27.70,-23.41s-22.18,-16.98,-28.76,-21.58s-22.44,-14.95,-30.01,-19.45s-22.73,-12.75,-31.44,-16.95s-23.06,-10.38,-32.97,-14.01s-23.43,-7.85,-34.45,-10.56s-24.91,-5.24,-35.65,-6.60s-24.89,-1.71,-29.84,-2.05Z" style="stroke: none; fill: url(#pat_3004_9); opacity: 0.75;"></path><path d="M0.00,29.09c3.89,0.24,15.75,0.50,23.44,1.45s16.08,2.53,23.44,4.35s16.55,4.67,23.44,7.20s17.11,6.92,23.44,9.98s17.67,9.22,23.44,12.65s18.20,11.53,23.44,15.21s18.67,13.80,23.44,17.61s19.08,15.95,23.44,19.83s19.42,17.95,23.44,21.86s19.70,19.76,23.44,23.66s19.92,21.35,23.44,25.23s20.10,22.69,23.44,26.55s20.22,23.76,23.44,27.61s20.31,24.55,23.44,28.39s20.35,25.06,23.44,28.88s20.36,25.27,23.44,29.09s20.33,25.17,23.44,29.00s20.26,24.79,23.44,28.63s20.15,24.11,23.44,27.96s20.00,23.15,23.44,27.02s19.80,21.92,23.44,25.81s19.54,20.44,23.44,24.35s19.23,18.74,23.44,22.64s18.85,16.85,23.44,20.70s18.40,14.81,23.44,18.55s17.89,12.68,23.44,16.22s17.34,10.50,23.44,13.73s16.78,8.34,23.44,11.10s16.26,6.23,23.44,8.36s15.86,4.21,23.44,5.54s15.63,2.52,23.44,2.66s15.63,-0.05,23.44,-0.24s15.92,-1.68,23.44,-3.15s19.78,-5.08,23.44,-6.02" style="stroke: blue; stroke-width: -2; fill: none;"></path></g><g objname="Graph" objtype="TGraph"><path d="M117.22,378.33c1.54,-1.91,20.34,-25.23,23.44,-29.06s20.29,-24.93,23.44,-28.76s20.19,-24.33,23.44,-28.19s20.05,-23.45,23.44,-27.33s19.86,-22.30,23.44,-26.20s19.62,-20.89,23.44,-24.80s19.33,-19.26,23.44,-23.16s18.97,-17.42,23.44,-21.29s18.54,-15.42,23.44,-19.20s18.05,-13.31,23.44,-16.92s17.51,-11.14,23.44,-14.48s16.94,-8.96,23.44,-11.88s16.40,-6.84,23.44,-9.17s15.96,-4.80,23.44,-6.37s15.67,-2.95,23.44,-3.51s15.64,-0.84,23.44,-0.60s15.82,1.08,23.44,2.30s16.20,3.15,23.44,5.19s16.71,5.32,23.44,8.02s17.27,7.59,23.44,10.77s17.83,9.90,23.44,13.41s18.34,12.20,23.44,15.92s18.80,14.44,23.44,18.27s19.19,16.55,23.44,20.44s19.51,18.50,23.44,22.41s19.77,20.25,23.44,24.15s19.98,21.76,23.44,25.65s20.14,23.03,23.44,26.89s20.25,24.02,23.44,27.86s20.32,24.73,23.44,28.56s20.36,25.15,23.44,28.97s20.36,25.27,23.44,29.09s20.31,25.09,23.44,28.92s21.86,26.54,23.44,28.46L949.02,424.09c-1.57,-1.91,-20.22,-24.52,-23.33,-28.32s-20.21,-24.93,-23.29,-28.73s-20.34,-25.25,-23.43,-29.08s-20.43,-25.27,-23.57,-29.13s-20.48,-24.99,-23.72,-28.89s-20.49,-24.43,-23.87,-28.37s-20.48,-23.58,-24.05,-27.58s-20.44,-22.48,-24.26,-26.53s-20.36,-21.12,-24.50,-25.23s-20.26,-19.55,-24.79,-23.69s-20.12,-17.77,-25.15,-21.92s-19.96,-15.83,-25.58,-19.93s-19.77,-13.76,-26.09,-17.71s-19.57,-11.59,-26.68,-15.26s-19.39,-9.37,-27.33,-12.55s-19.25,-7.11,-27.98,-9.56s-19.16,-4.81,-28.54,-6.31s-19.69,-2.57,-29.21,-2.85s-18.45,0.04,-27.98,0.70s-20.27,2.42,-29.51,4.36s-19.91,4.90,-28.33,7.69s-20.12,7.43,-27.72,10.84s-20.28,9.90,-27.06,13.71s-20.41,12.28,-26.43,16.31s-20.51,14.54,-25.87,18.67s-20.58,16.63,-25.39,20.79s-20.63,18.55,-24.99,22.69s-20.67,20.27,-24.66,24.36s-20.68,21.77,-24.39,25.80s-20.68,23.02,-24.17,27.00s-20.66,24.02,-23.97,27.94s-20.61,24.74,-23.81,28.62s-20.54,25.18,-23.65,29.02s-21.97,27.23,-23.51,29.14Z" style="stroke: none; fill: url(#pat_3002_2); opacity: 0.75;"></path><path d="M117.22,378.33c1.54,-1.91,20.34,-25.23,23.44,-29.06s20.29,-24.93,23.44,-28.76s20.19,-24.33,23.44,-28.19s20.05,-23.45,23.44,-27.33s19.86,-22.30,23.44,-26.20s19.62,-20.89,23.44,-24.80s19.33,-19.26,23.44,-23.16s18.97,-17.42,23.44,-21.29s18.54,-15.42,23.44,-19.20s18.05,-13.31,23.44,-16.92s17.51,-11.14,23.44,-14.48s16.94,-8.96,23.44,-11.88s16.40,-6.84,23.44,-9.17s15.96,-4.80,23.44,-6.37s15.67,-2.95,23.44,-3.51s15.64,-0.84,23.44,-0.60s15.82,1.08,23.44,2.30s16.20,3.15,23.44,5.19s16.71,5.32,23.44,8.02s17.27,7.59,23.44,10.77s17.83,9.90,23.44,13.41s18.34,12.20,23.44,15.92s18.80,14.44,23.44,18.27s19.19,16.55,23.44,20.44s19.51,18.50,23.44,22.41s19.77,20.25,23.44,24.15s19.98,21.76,23.44,25.65s20.14,23.03,23.44,26.89s20.25,24.02,23.44,27.86s20.32,24.73,23.44,28.56s20.36,25.15,23.44,28.97s20.36,25.27,23.44,29.09s20.31,25.09,23.44,28.92s21.86,26.54,23.44,28.46" style="stroke: yellow; stroke-width: -2; fill: none;"></path></g></svg><g><g transform="translate(0,640)"><path d="M0,-19v19m23,-10v10m24,-10v10m23,-10v10m24,-10v10m23,-19v19m24,-10v10m23,-10v10m24,-10v10m23,-10v10m23,-19v19m24,-10v10m23,-10v10m24,-10v10m23,-10v10m24,-19v19m23,-10v10m24,-10v10m23,-10v10m23,-10v10m24,-19v19m23,-10v10m24,-10v10m23,-10v10m24,-10v10m23,-19v19m24,-10v10m23,-10v10m23,-10v10m24,-10v10m23,-19v19m24,-10v10m23,-10v10m24,-10v10m23,-10v10m24,-19v19m23,-10v10m23,-10v10m24,-10v10m23,-10v10m24,-19v19" style="stroke: black; stroke-width: 1;"></path><g font-family="Arial" font-size="22" space="preserve"><text fill="black" x="0" y="8" dy=".7em" style="text-anchor: middle;">0</text><text fill="black" x="117" y="8" dy=".7em" style="text-anchor: middle;">0.5</text><text fill="black" x="234" y="8" dy=".7em" style="text-anchor: middle;">1</text><text fill="black" x="352" y="8" dy=".7em" style="text-anchor: middle;">1.5</text><text fill="black" x="469" y="8" dy=".7em" style="text-anchor: middle;">2</text><text fill="black" x="586" y="8" dy=".7em" style="text-anchor: middle;">2.5</text><text fill="black" x="703" y="8" dy=".7em" style="text-anchor: middle;">3</text><text fill="black" x="821" y="8" dy=".7em" style="text-anchor: middle;">3.5</text><text fill="black" x="938" y="8" dy=".7em" style="text-anchor: middle;">4</text></g></g><g><path d="M15,626h-15m29,-15h-29m15,-14h-15m15,-15h-15m15,-14h-15m29,-15h-29m15,-15h-15m15,-14h-15m15,-15h-15m29,-14h-29m15,-15h-15m15,-14h-15m15,-15h-15m29,-14h-29m15,-15h-15m15,-15h-15m15,-14h-15m29,-15h-29m15,-14h-15m15,-15h-15m15,-14h-15m29,-15h-29m15,-14h-15m15,-15h-15m15,-15h-15m29,-14h-29m15,-15h-15m15,-14h-15m15,-15h-15m29,-14h-29m15,-15h-15m15,-14h-15m15,-15h-15m29,-14h-29m15,-15h-15m15,-15h-15m15,-14h-15m29,-15h-29m15,-14h-15m15,-15h-15m15,-14h-15m29,-15h-29m15,-14h-15" style="stroke: black; stroke-width: 1;"></path><g font-family="Arial" font-size="22" space="preserve"><text fill="black" x="-8" y="611" style="text-anchor: end; dominant-baseline: middle;">-10</text><text fill="black" x="-8" y="553" style="text-anchor: end; dominant-baseline: middle;">-8</text><text fill="black" x="-8" y="495" style="text-anchor: end; dominant-baseline: middle;">-6</text><text fill="black" x="-8" y="437" style="text-anchor: end; dominant-baseline: middle;">-4</text><text fill="black" x="-8" y="378" style="text-anchor: end; dominant-baseline: middle;">-2</text><text fill="black" x="-8" y="320" style="text-anchor: end; dominant-baseline: middle;">0</text><text fill="black" x="-8" y="262" style="text-anchor: end; dominant-baseline: middle;">2</text><text fill="black" x="-8" y="204" style="text-anchor: end; dominant-baseline: middle;">4</text><text fill="black" x="-8" y="146" style="text-anchor: end; dominant-baseline: middle;">6</text><text fill="black" x="-8" y="87" style="text-anchor: end; dominant-baseline: middle;">8</text><text fill="black" x="-8" y="29" style="text-anchor: end; dominant-baseline: middle;">10</text></g></g></g></g><g><g objname="title" objtype="TPaveText" x="336" y="8" width="528" height="40" transform="translate(336,8)" font-family="Arial" font-size="33" space="preserve"><rect x="0" y="0" width="528" height="40" style="fill: none;"></rect><text text-anchor="middle" x="0" y="0" fill="black" transform="translate(264,21)" dominant-baseline="middle" opacity="1">Exclusion graphs</text></g></g></svg>