<svg xmlns="http://www.w3.org/2000/svg" viewBox="0 0 1200 800" preserveAspectRatio="none" width="1200" height="800">
 <path d="M0,0H1200V800H0Z" style="fill: white;"></path>
 <g>
  <svg viewBox="0 0 1176 384" preserveAspectRatio="none" x="12" y="8" width="1176" height="384">
   <path d="M0,0H1176V384H0Z" style="fill: white;"></path>
   <g>
    <g transform="translate(118,38)">
     <path d="M0,0H941V307H0Z" style="fill: white; stroke: black; stroke-width: 1;"></path>
     <svg x="0" y="0" overflow="hidden" width="941" height="307" viewBox="0 0 941 307">
      <g>
       <path d="M113,264l102,-84l136,-59l68,-39l103,-35l75,-13l61,20l102,52l28,39l40,76" style="stroke: black; stroke-width: 1; fill: none;"></path>
       <g transform="translate(113,264)">
        <path d="M0,0H-34m0,3v-6M0,0H34m0,3v-6M0,0V17m3,0h-6M0,0V-17m3,0h-6" style="fill: none; stroke: black; stroke-width: 1;"></path>
       </g>
       <g transform="translate(215,180)">
        <path d="M0,0H-68m0,3v-6M0,0H68m0,3v-6M0,0V15m3,0h-6M0,0V-15m3,0h-6" style="fill: none; stroke: black; stroke-width: 1;"></path>
       </g>
       <g transform="translate(351,121)">
        <path d="M0,0H-48m0,3v-6M0,0H48m0,3v-6M0,0V13m3,0h-6M0,0V-13m3,0h-6" style="fill: none; stroke: black; stroke-width: 1;"></path>
       </g>
       <g transform="translate(419,82)">
        <path d="M0,0H-48m0,3v-6M0,0H48m0,3v-6M0,0V11m3,0h-6M0,0V-11m3,0h-6" style="fill: none; stroke: black; stroke-width: 1;"></path>
       </g>
       <g transform="translate(522,47)">
        <path d="M0,0H-27m0,3v-6M0,0H27m0,3v-6M0,0V9m3,0h-6M0,0V-9m3,0h-6" style="fill: none; stroke: black; stroke-width: 1;"></path>
       </g>
       <g transform="translate(597,34)">
        <path d="M0,0H-34m0,3v-6M0,0H34m0,3v-6M0,0V9m3,0h-6M0,0V-9m3,0h-6" style="fill: none; stroke: black; stroke-width: 1;"></path>
       </g>
       <g transform="translate(658,54)">
        <path d="M0,0H-41m0,3v-6M0,0H41m0,3v-6M0,0V11m3,0h-6M0,0V-11m3,0h-6" style="fill: none; stroke: black; stroke-width: 1;"></path>
       </g>
       <g transform="translate(760,106)">
        <path d="M0,0H-48m0,3v-6M0,0H48m0,3v-6M0,0V13m3,0h-6M0,0V-13m3,0h-6" style="fill: none; stroke: black; stroke-width: 1;"></path>
       </g>
       <g transform="translate(788,145)">
        <path d="M0,0H-55m0,3v-6M0,0H55m0,3v-6M0,0V15m3,0h-6M0,0V-15m3,0h-6" style="fill: none; stroke: black; stroke-width: 1;"></path>
       </g>
       <g transform="translate(828,221)">
        <path d="M0,0H-34m0,3v-6M0,0H34m0,3v-6M0,0V17m3,0h-6M0,0V-17m3,0h-6" style="fill: none; stroke: black; stroke-width: 1;"></path>
       </g>
       <path d="M109,260v8h8v-8zM211,176v8h8v-8zM347,117v8h8v-8zM415,78v8h8v-8zM518,43v8h8v-8zM593,30v8h8v-8zM654,50v8h8v-8zM756,102v8h8v-8zM784,141v8h8v-8zM824,217v8h8v-8z" style="stroke: rgb(0, 0, 255); fill: rgb(0, 0, 255);"></path>
      </g>
      <g>
       <path d="M5,1524l9,-105l10,-104l9,-102l10,-100l9,-96l9,-92l10,-88l9,-82l10,-78l9,-73l10,-67l9,-61l9,-56l10,-51l9,-45l10,-40l9,-36l9,-30l10,-27l9,-22l10,-19l9,-15l9,-12l10,-9l9,-7l10,-4l9,-3l9,-1h10h9l10,2l9,2l10,2l9,2l9,2l10,1l9,2h10h9l9,-1l10,-2l9,-2l10,-3l9,-4l9,-4l10,-5l9,-5l10,-6l9,-6l10,-6l9,-6l9,-6l10,-5l9,-5l10,-4l9,-3l9,-3l10,-2l9,-1h10l9,1l9,1l10,2l9,3l10,3l9,2l9,2l10,1h9l10,-4l9,-6l10,-11l9,-16l9,-23l10,-30l9,-40l10,-51l9,-64l9,-80l10,-96l9,-117l10,-139l9,-165l9,-194l10,-225l9,-262l10,-302l9,-347l9,-395l10,-450l9,-509l10,-574l9,-645l10,-723l9,-806l9,-899l10,-998l9,-1105l10,-1221" style="fill: none; stroke: red; stroke-width: 2;"></path>
      </g>
     </svg>
     <g>
      <g transform="translate(0,307)">
       <path d="M0,0h941M10,-5V0M44,-9V0M78,-5V0M113,-5V0M147,-5V0M181,-9V0M215,-5V0M249,-5V0M283,-5V0M317,-9V0M351,-5V0M385,-5V0M419,-5V0M453,-9V0M488,-5V0M522,-5V0M556,-5V0M590,-9V0M624,-5V0M658,-5V0M692,-5V0M726,-9V0M760,-5V0M794,-5V0M828,-5V0M863,-9V0M897,-5V0M931,-5V0" style="stroke: black; stroke-width: 1;"></path>
       <g font-family="Arial" font-size="13" xml:space="preserve" fill="black" text-anchor="middle"><text dy=".8em" transform="translate(44,3)">-0.2</text><text dy=".8em" transform="translate(181,3)">0</text><text dy=".8em" transform="translate(317,3)">0.2</text><text dy=".8em" transform="translate(453,3)">0.4</text><text dy=".8em" transform="translate(590,3)">0.6</text><text dy=".8em" transform="translate(726,3)">0.8</text><text dy=".8em" transform="translate(863,3)">1</text></g>
      </g>
      <g>
       <path d="M0,0v307M14,297H0M28,286H0M14,275H0M14,264H0M14,253H0M28,242H0M14,232H0M14,221H0M14,210H0M28,199H0M14,188H0M14,177H0M14,167H0M28,156H0M14,145H0M14,134H0M14,123H0M28,112H0M14,101H0M14,91H0M14,80H0M28,69H0M14,58H0M14,47H0M14,36H0M28,26H0M14,15H0M14,4H0" style="stroke: black; stroke-width: 1;"></path>
       <g font-family="Arial" font-size="13" xml:space="preserve" fill="black" text-anchor="end"><text dominant-baseline="middle" transform="translate(-3,286)">-2</text><text dominant-baseline="middle" transform="translate(-3,242)">0</text><text dominant-baseline="middle" transform="translate(-3,199)">2</text><text dominant-baseline="middle" transform="translate(-3,156)">4</text><text dominant-baseline="middle" transform="translate(-3,112)">6</text><text dominant-baseline="middle" transform="translate(-3,69)">8</text><text dominant-baseline="middle" transform="translate(-3,26)">10</text></g>
      </g>
     </g>
    </g>
    <g transform="translate(550,2)" font-family="Arial" font-size="18" xml:space="preserve"><text fill="black" text-anchor="middle" dominant-baseline="middle" transform="translate(38,12)">Graph</text></g>
    <g transform="translate(141,25)" font-family="Arial" font-size="6" xml:space="preserve"><path d="M0,0H235V71H0Z" style="fill: white; stroke: black; stroke-width: 1;"></path><g transform="translate(12,7) scale(0.914)"><text fill="rgb(0, 0, 255)" font-size="7">χ</text><text fill="rgb(0, 0, 255)" font-size="4" transform="translate(4,-4)">2</text><text fill="rgb(0, 0, 255)" font-size="7" x="10">/ ndf</text></g><text fill="rgb(0, 0, 255)" text-anchor="end" dominant-baseline="middle" transform="translate(223,4)">7.515 / 3</text><text fill="rgb(0, 0, 255)" text-anchor="start" dominant-baseline="middle" transform="translate(12,13)">p0</text><g transform="translate(173,16) scale(0.914)"><text fill="rgb(0, 0, 255)" font-size="7">2.022 ± 45734.630</text></g><text fill="rgb(0, 0, 255)" text-anchor="start" dominant-baseline="middle" transform="translate(12,22)">p1</text><g transform="translate(177,24) scale(0.914)"><text fill="rgb(0, 0, 255)" font-size="7">85.35 ± 45715.18</text></g><text fill="rgb(0, 0, 255)" text-anchor="start" dominant-baseline="middle" transform="translate(12,31)">p2</text><g transform="translate(178,33) scale(0.914)"><text fill="rgb(0, 0, 255)" font-size="7">-504.7 ± 45164.4</text></g><text fill="rgb(0, 0, 255)" text-anchor="start" dominant-baseline="middle" transform="translate(12,40)">p3</text><g transform="translate(180,42) scale(0.914)"><text fill="rgb(0, 0, 255)" font-size="7">862.3 ± 45658.9</text></g><text fill="rgb(0, 0, 255)" text-anchor="start" dominant-baseline="middle" transform="translate(12,49)">p4</text><g transform="translate(180,51) scale(0.914)"><text fill="rgb(0, 0, 255)" font-size="7">970.8 ± 39476.6</text></g><text fill="rgb(0, 0, 255)" text-anchor="start" dominant-baseline="middle" transform="translate(12,58)">p5</text><g transform="translate(189,60) scale(0.914)"><text fill="rgb(0, 0, 255)" font-size="7">-3737 ± 33.4</text></g><text fill="rgb(0, 0, 255)" text-anchor="start" dominant-baseline="middle" transform="translate(12,67)">p6</text><g transform="translate(181,69) scale(0.914)"><text fill="rgb(0, 0, 255)" font-size="7">2497 ± 41820.6</text></g></g>
   </g>
  </svg>
  <svg viewBox="0 0 1176 384" preserveAspectRatio="none" x="12" y="408" width="1176" height="384">
   <path d="M0,0H1176V384H0Z" style="fill: white;"></path>
   <g>
    <g transform="translate(118,38)">
     <path d="M0,0H941V307H0Z" style="fill: white; stroke: black; stroke-width: 1;"></path>
     <svg x="0" y="0" overflow="hidden" width="941" height="307" viewBox="0 0 941 307">
      <g>
       <path d="M101,260l163,-47l106,-84l58,-54l91,-27l63,-14l52,24l85,64l58,49l63,92" style="stroke: black; stroke-width: 1; fill: none;"></path>
       <g transform="translate(101,260)">
        <path d="M0,0H-23m0,3v-6M0,0H23m0,3v-6M0,0V16m3,0h-6M0,0V-16m3,0h-6" style="fill: none; stroke: black; stroke-width: 1;"></path>
       </g>
       <g transform="translate(264,213)">
        <path d="M0,0H-69m0,3v-6M0,0H69m0,3v-6M0,0V21m3,0h-6M0,0V-21m3,0h-6" style="fill: none; stroke: black; stroke-width: 1;"></path>
       </g>
       <g transform="translate(370,129)">
        <path d="M0,0H-46m0,3v-6M0,0H46m0,3v-6M0,0V19m3,0h-6M0,0V-19m3,0h-6" style="fill: none; stroke: black; stroke-width: 1;"></path>
       </g>
       <g transform="translate(428,75)">
        <path d="M0,0H-34m0,3v-6M0,0H34m0,3v-6M0,0V11m3,0h-6M0,0V-11m3,0h-6" style="fill: none; stroke: black; stroke-width: 1;"></path>
       </g>
       <g transform="translate(519,48)">
        <path d="M0,0H-29m0,3v-6M0,0H29m0,3v-6M0,0V8m3,0h-6M0,0V-8m3,0h-6" style="fill: none; stroke: black; stroke-width: 1;"></path>
       </g>
       <g transform="translate(582,34)">
        <path d="M0,0H-23m0,3v-6M0,0H23m0,3v-6M0,0V8m3,0h-6M0,0V-8m3,0h-6" style="fill: none; stroke: black; stroke-width: 1;"></path>
       </g>
       <g transform="translate(634,58)">
        <path d="M0,0H-40m0,3v-6M0,0H40m0,3v-6M0,0V11m3,0h-6M0,0V-11m3,0h-6" style="fill: none; stroke: black; stroke-width: 1;"></path>
       </g>
       <g transform="translate(719,122)">
        <path d="M0,0H-34m0,3v-6M0,0H34m0,3v-6M0,0V13m3,0h-6M0,0V-13m3,0h-6" style="fill: none; stroke: black; stroke-width: 1;"></path>
       </g>
       <g transform="translate(777,171)">
        <path d="M0,0H-46m0,3v-6M0,0H46m0,3v-6M0,0V16m3,0h-6M0,0V-16m3,0h-6" style="fill: none; stroke: black; stroke-width: 1;"></path>
       </g>
       <g transform="translate(840,263)">
        <path d="M0,0H-23m0,3v-6M0,0H23m0,3v-6M0,0V19m3,0h-6M0,0V-19m3,0h-6" style="fill: none; stroke: black; stroke-width: 1;"></path>
       </g>
       <path d="M97,260a4,4,0,1,0,8,0a4,4,0,1,0,-8,0zM260,213a4,4,0,1,0,8,0a4,4,0,1,0,-8,0zM366,129a4,4,0,1,0,8,0a4,4,0,1,0,-8,0zM424,75a4,4,0,1,0,8,0a4,4,0,1,0,-8,0zM515,48a4,4,0,1,0,8,0a4,4,0,1,0,-8,0zM578,34a4,4,0,1,0,8,0a4,4,0,1,0,-8,0zM630,58a4,4,0,1,0,8,0a4,4,0,1,0,-8,0zM715,122a4,4,0,1,0,8,0a4,4,0,1,0,-8,0zM773,171a4,4,0,1,0,8,0a4,4,0,1,0,-8,0zM836,263a4,4,0,1,0,8,0a4,4,0,1,0,-8,0z" style="stroke: rgb(255, 0, 0); fill: rgb(255, 0, 0);"></path>
      </g>
      <g>
       <path d="M5,238l9,3l10,3l9,3l10,3l9,2l9,3l10,1l9,2l10,1l9,1h10h9h9l10,-1l9,-1l10,-2l9,-2l9,-2l10,-3l9,-4l10,-3l9,-4l9,-5l10,-5l9,-5l10,-5l9,-6l9,-6l10,-6l9,-7l10,-7l9,-6l10,-7l9,-8l9,-7l10,-7l9,-7l10,-8l9,-7l9,-7l10,-7l9,-7l10,-7l9,-7l9,-6l10,-6l9,-6l10,-6l9,-5l10,-5l9,-5l9,-4l10,-4l9,-3l10,-3l9,-2l9,-1l10,-2h9h10h9l9,1l10,2l9,2l10,3l9,4l9,4l10,5l9,6l10,6l9,6l10,8l9,7l9,9l10,9l9,9l10,10l9,10l9,11l10,11l9,11l10,12l9,11l9,12l10,13l9,12l10,12l9,12l9,12l10,11l9,11l10,11l9,10l10,10l9,9l9,8l10,7l9,6l10,4" style="fill: none; stroke: red; stroke-width: 2;"></path>
      </g>
     </svg>
     <g>
      <g transform="translate(0,307)">
       <path d="M0,0h941M4,-5V0M33,-9V0M61,-5V0M90,-5V0M118,-5V0M147,-9V0M176,-5V0M204,-5V0M233,-5V0M262,-9V0M290,-5V0M319,-5V0M347,-5V0M376,-9V0M405,-5V0M433,-5V0M462,-5V0M491,-9V0M519,-5V0M548,-5V0M576,-5V0M605,-9V0M634,-5V0M662,-5V0M691,-5V0M719,-9V0M748,-5V0M777,-5V0M805,-5V0M834,-9V0M863,-5V0M891,-5V0M920,-5V0" style="stroke: black; stroke-width: 1;"></path>
       <g font-family="Arial" font-size="13" xml:space="preserve" fill="black" text-anchor="middle"><text dy=".8em" transform="translate(33,3)">-0.4</text><text dy=".8em" transform="translate(147,3)">-0.2</text><text dy=".8em" transform="translate(262,3)">0</text><text dy=".8em" transform="translate(376,3)">0.2</text><text dy=".8em" transform="translate(491,3)">0.4</text><text dy=".8em" transform="translate(605,3)">0.6</text><text dy=".8em" transform="translate(719,3)">0.8</text><text dy=".8em" transform="translate(834,3)">1</text></g>
      </g>
      <g>
       <path d="M0,0v307M14,303H0M14,289H0M14,276H0M28,263H0M14,249H0M14,236H0M14,222H0M28,209H0M14,196H0M14,182H0M14,169H0M28,156H0M14,142H0M14,129H0M14,115H0M28,102H0M14,89H0M14,75H0M14,62H0M28,48H0M14,35H0M14,22H0M14,8H0" style="stroke: black; stroke-width: 1;"></path>
       <g font-family="Arial" font-size="13" xml:space="preserve" fill="black" text-anchor="end"><text dominant-baseline="middle" transform="translate(-3,263)">2</text><text dominant-baseline="middle" transform="translate(-3,209)">4</text><text dominant-baseline="middle" transform="translate(-3,156)">6</text><text dominant-baseline="middle" transform="translate(-3,102)">8</text><text dominant-baseline="middle" transform="translate(-3,48)">10</text></g>
      </g>
     </g>
    </g>
    <g transform="translate(550,2)" font-family="Arial" font-size="18" xml:space="preserve"><text fill="black" text-anchor="middle" dominant-baseline="middle" transform="translate(38,12)">Graph</text></g>
    <g transform="translate(847,25)" font-family="Arial" font-size="6" xml:space="preserve"><path d="M0,0H235V60H0Z" style="fill: white; stroke: black; stroke-width: 1;"></path><g transform="translate(12,7) scale(0.883)"><text fill="rgb(255, 0, 0)" font-size="7">χ</text><text fill="rgb(255, 0, 0)" font-size="4" transform="translate(4,-4)">2</text><text fill="rgb(255, 0, 0)" font-size="7" x="10">/ ndf</text></g><text fill="rgb(255, 0, 0)" text-anchor="end" dominant-baseline="middle" transform="translate(223,4)">0.8146 / 4</text><text fill="rgb(255, 0, 0)" text-anchor="start" dominant-baseline="middle" transform="translate(12,13)">p0</text><g transform="translate(188,15) scale(0.883)"><text fill="rgb(255, 0, 0)" font-size="7">3.959 ± 0.631</text></g><text fill="rgb(255, 0, 0)" text-anchor="start" dominant-baseline="middle" transform="translate(12,21)">p1</text><g transform="translate(192,24) scale(0.883)"><text fill="rgb(255, 0, 0)" font-size="7">13.55 ± 1.43</text></g><text fill="rgb(255, 0, 0)" text-anchor="start" dominant-baseline="middle" transform="translate(12,30)">p2</text><g transform="translate(192,32) scale(0.883)"><text fill="rgb(255, 0, 0)" font-size="7">18.33 ± 5.69</text></g><text fill="rgb(255, 0, 0)" text-anchor="start" dominant-baseline="middle" transform="translate(12,39)">p3</text><g transform="translate(190,41) scale(0.883)"><text fill="rgb(255, 0, 0)" font-size="7">-32.01 ± 9.68</text></g><text fill="rgb(255, 0, 0)" text-anchor="start" dominant-baseline="middle" transform="translate(12,47)">p4</text><g transform="translate(193,49) scale(0.883)"><text fill="rgb(255, 0, 0)" font-size="7">-26.6 ± 11.6</text></g><text fill="rgb(255, 0, 0)" text-anchor="start" dominant-baseline="middle" transform="translate(12,56)">p5</text><g transform="translate(192,58) scale(0.883)"><text fill="rgb(255, 0, 0)" font-size="7">25.04 ± 8.75</text></g></g>
   </g>
  </svg>
 </g>
</svg>