<svg viewBox="0 0 1200 800" preserveAspectRatio="none" xmlns="http://www.w3.org/2000/svg" width="1200" height="800"><title>ROOT canvas</title><rect x="0" y="0" width="1200" height="800" style="fill: white;"></rect><g><g pad="vC1_1" transform="translate(12,8)"><rect x="0" y="0" width="576" height="384" style="fill: white;"></rect><g><g transform="translate(58,38)"><title></title><rect x="0" y="0" width="461" height="307" style="fill: white; stroke: black; stroke-width: 1;"></rect><svg x="0" y="0" overflow="hidden" width="461" height="307" viewBox="0 0 461 307"><g objname="Graph" objtype="TGraph"><path d="M28.7,303.0v4.0h4.0v-4.0zM59.5,296.8v4.0h4.0v-4.0zM90.2,286.6v4.0h4.0v-4.0zM120.9,272.3v4.0h4.0v-4.0zM151.7,253.8v4.0h4.0v-4.0zM182.4,253.8v4.0h4.0v-4.0zM182.4,231.3v4.0h4.0v-4.0zM182.4,204.7v4.0h4.0v-4.0zM243.9,174.0v4.0h4.0v-4.0zM274.6,139.2v4.0h4.0v-4.0zM305.3,100.3v4.0h4.0v-4.0z" style="stroke: rgb(0,0,255); fill: rgb(0,0,255);"></path></g><g objname="Graph" objtype="TGraph"><path d="M27.9,302.2l5.6,5.6m0,-5.6l-5.6,5.6M58.7,296.0l5.6,5.6m0,-5.6l-5.6,5.6M89.4,285.8l5.6,5.6m0,-5.6l-5.6,5.6M120.1,271.5l5.6,5.6m0,-5.6l-5.6,5.6M150.9,253.0l5.6,5.6m0,-5.6l-5.6,5.6M181.6,229.2l5.6,5.6m0,-5.6l-5.6,5.6M243.1,173.2l5.6,5.6m0,-5.6l-5.6,5.6M273.8,138.4l5.6,5.6m0,-5.6l-5.6,5.6M304.5,99.5l5.6,5.6m0,-5.6l-5.6,5.6" style="stroke: rgb(255,0,0); fill: none;"></path></g><g objname="Graph" objtype="TGraph"><path d="M31,305l5,-1l6,-1l6,-1l5,-2l6,-1l6,-1l5,-2l6,-2l6,-2l5,-2l6,-2l5,-2l6,-3l6,-3l5,-2l6,-3l6,-3l5,-3l6,-4l6,-3l5,-4l6,-3l6,-5l5,-4l6,-4l6,-5l5,-4l6,-5l5,-5l6,-5l6,-5l5,-6l6,-5l6,-5l5,-5l6,-5l6,-5l5,-5l6,-7l6,-6l5,-6l6,-7l5,-6l6,-7l6,-7l5,-7l6,-7l6,-8l5,-7" style="stroke: black; stroke-width: 1; fill: none;"></path><path d="M31,305h1m4,-1h1m5,-1h1m5,-1h1m4,-2h1m5,-1h1m5,-1h1m4,-2h1m5,-2h1m5,-2h1m4,-2h1m5,-2h1m4,-2h1m5,-3h1m5,-3h1m4,-2h1m5,-3h1m5,-3h1m4,-3h1m5,-4h1m5,-3h1m4,-4h1m5,-3h1m5,-5h1m4,-4h1m5,-4h1m5,-5h1m4,-4h1m5,-5h1m4,-5h1m5,-5h1m5,-5h1m4,-6h1m5,-5h1m5,-5h1m4,-5h1m5,-5h1m5,-5h1m4,-5h1m5,-7h1m5,-6h1m4,-6h1m5,-7h1m4,-6h1m5,-7h1m5,-7h1m4,-7h1m5,-7h1m5,-8h1m4,-7h1" style="stroke: black; fill: none;"></path></g></svg><g><g transform="translate(0,307)"><path d="M0,-12v12m15,-6v6m16,-6v6m15,-6v6m15,-12v12m16,-6v6m15,-6v6m16,-6v6m15,-12v12m15,-6v6m16,-6v6m15,-6v6m15,-12v12m16,-6v6m15,-6v6m16,-6v6m15,-12v12m15,-6v6m16,-6v6m15,-6v6m15,-12v12m16,-6v6m15,-6v6m15,-6v6m16,-12v12m15,-6v6m16,-6v6m15,-6v6m15,-12v12m16,-6v6m15,-6v6" style="stroke: black; stroke-width: 1;"></path><g font-family="Arial" font-size="13" space="preserve"><text fill="black" x="0" y="7" dy=".7em" style="text-anchor: middle;">0</text><text fill="black" x="61" y="7" dy=".7em" style="text-anchor: middle;">2</text><text fill="black" x="123" y="7" dy=".7em" style="text-anchor: middle;">4</text><text fill="black" x="184" y="7" dy=".7em" style="text-anchor: middle;">6</text><text fill="black" x="246" y="7" dy=".7em" style="text-anchor: middle;">8</text><text fill="black" x="307" y="7" dy=".7em" style="text-anchor: middle;">10</text><text fill="black" x="369" y="7" dy=".7em" style="text-anchor: middle;">12</text><text fill="black" x="430" y="7" dy=".7em" style="text-anchor: middle;">14</text></g><g font-family="Arial" font-size="77" space="preserve" transform="translate(461,123)"><text text-anchor="end" x="0" y="0" fill="black" transform="translate(0,0)" dominant-baseline="middle">X-axis</text></g></g><g><path d="M17,307h-17m9,-10h-9m9,-10h-9m9,-11h-9m17,-10h-17m9,-10h-9m9,-10h-9m9,-11h-9m17,-10h-17m9,-10h-9m9,-10h-9m9,-11h-9m17,-10h-17m9,-10h-9m9,-10h-9m9,-10h-9m17,-11h-17m9,-10h-9m9,-10h-9m9,-10h-9m17,-11h-17m9,-10h-9m9,-10h-9m9,-10h-9m17,-11h-17m9,-10h-9m9,-10h-9m9,-10h-9m17,-11h-17m9,-10h-9m9,-10h-9" style="stroke: black; stroke-width: 1;"></path><g font-family="Arial" font-size="13" space="preserve"><text fill="black" x="-6" y="307" style="text-anchor: end; dominant-baseline: middle;">0</text><text fill="black" x="-6" y="266" style="text-anchor: end; dominant-baseline: middle;">20</text><text fill="black" x="-6" y="225" style="text-anchor: end; dominant-baseline: middle;">40</text><text fill="black" x="-6" y="184" style="text-anchor: end; dominant-baseline: middle;">60</text><text fill="black" x="-6" y="143" style="text-anchor: end; dominant-baseline: middle;">80</text><text fill="black" x="-6" y="102" style="text-anchor: end; dominant-baseline: middle;">100</text><text fill="black" x="-6" y="61" style="text-anchor: end; dominant-baseline: middle;">120</text><text fill="black" x="-6" y="20" style="text-anchor: end; dominant-baseline: middle;">140</text></g><g font-family="Arial" font-size="13" space="preserve" transform="translate(-4,0)"><text text-anchor="end" x="0" y="0" fill="black" transform="translate(0,0) rotate(270,0,0)" dominant-baseline="middle">Y-axis</text></g></g></g></g><g objname="title" objtype="TPaveText" transform="translate(143,2)" font-family="Arial" font-size="20" space="preserve"><path d="M0,0h290v24h-290z" style="fill: none;"></path><text text-anchor="middle" x="0" y="0" fill="black" transform="translate(145,13)" dominant-baseline="middle" opacity="1">Approx: ties = mean</text></g></g></g><g pad="vC1_2" transform="translate(612,8)"><rect x="0" y="0" width="576" height="384" style="fill: white;"></rect><g><g transform="translate(58,38)"><title></title><rect x="0" y="0" width="461" height="307" style="fill: white; stroke: black; stroke-width: 1;"></rect><svg x="0" y="0" overflow="hidden" width="461" height="307" viewBox="0 0 461 307"><g objname="Graph" objtype="TGraph"><path d="M28.7,303.0v4.0h4.0v-4.0zM59.5,296.8v4.0h4.0v-4.0zM90.2,286.6v4.0h4.0v-4.0zM120.9,272.3v4.0h4.0v-4.0zM151.7,253.8v4.0h4.0v-4.0zM182.4,253.8v4.0h4.0v-4.0zM182.4,231.3v4.0h4.0v-4.0zM182.4,204.7v4.0h4.0v-4.0zM243.9,174.0v4.0h4.0v-4.0zM274.6,139.2v4.0h4.0v-4.0zM305.3,100.3v4.0h4.0v-4.0z" style="stroke: rgb(0,0,255); fill: rgb(0,0,255);"></path></g><g objname="Graph" objtype="TGraph"><path d="M27.9,302.2l5.6,5.6m0,-5.6l-5.6,5.6M58.7,296.0l5.6,5.6m0,-5.6l-5.6,5.6M89.4,285.8l5.6,5.6m0,-5.6l-5.6,5.6M120.1,271.5l5.6,5.6m0,-5.6l-5.6,5.6M150.9,253.0l5.6,5.6m0,-5.6l-5.6,5.6M181.6,229.2l5.6,5.6m0,-5.6l-5.6,5.6M243.1,173.2l5.6,5.6m0,-5.6l-5.6,5.6M273.8,138.4l5.6,5.6m0,-5.6l-5.6,5.6M304.5,99.5l5.6,5.6m0,-5.6l-5.6,5.6" style="stroke: rgb(255,0,0); fill: none;"></path></g><g objname="Graph" objtype="TGraph"><path d="M37,304l15,-3l25,-7l21,-8l37,-19l25,-16l15,-12l25,-21l34,-31l21,-21l43,-52l22,-73l27,0l53,0" style="stroke: black; stroke-width: 1; fill: none;"></path><path d="M37,304h1m14,-3h1m24,-7h1m20,-8h1m36,-19h1m24,-16h1m14,-12h1m24,-21h1m33,-31h1m20,-21h1m42,-52h1M320,41h1m26,0h1m52,0h1" style="stroke: black; fill: none;"></path></g></svg><g><g transform="translate(0,307)"><path d="M0,-12v12m15,-6v6m16,-6v6m15,-6v6m15,-12v12m16,-6v6m15,-6v6m16,-6v6m15,-12v12m15,-6v6m16,-6v6m15,-6v6m15,-12v12m16,-6v6m15,-6v6m16,-6v6m15,-12v12m15,-6v6m16,-6v6m15,-6v6m15,-12v12m16,-6v6m15,-6v6m15,-6v6m16,-12v12m15,-6v6m16,-6v6m15,-6v6m15,-12v12m16,-6v6m15,-6v6" style="stroke: black; stroke-width: 1;"></path><g font-family="Arial" font-size="13" space="preserve"><text fill="black" x="0" y="7" dy=".7em" style="text-anchor: middle;">0</text><text fill="black" x="61" y="7" dy=".7em" style="text-anchor: middle;">2</text><text fill="black" x="123" y="7" dy=".7em" style="text-anchor: middle;">4</text><text fill="black" x="184" y="7" dy=".7em" style="text-anchor: middle;">6</text><text fill="black" x="246" y="7" dy=".7em" style="text-anchor: middle;">8</text><text fill="black" x="307" y="7" dy=".7em" style="text-anchor: middle;">10</text><text fill="black" x="369" y="7" dy=".7em" style="text-anchor: middle;">12</text><text fill="black" x="430" y="7" dy=".7em" style="text-anchor: middle;">14</text></g></g><g><path d="M17,307h-17m9,-10h-9m9,-10h-9m9,-11h-9m17,-10h-17m9,-10h-9m9,-10h-9m9,-11h-9m17,-10h-17m9,-10h-9m9,-10h-9m9,-11h-9m17,-10h-17m9,-10h-9m9,-10h-9m9,-10h-9m17,-11h-17m9,-10h-9m9,-10h-9m9,-10h-9m17,-11h-17m9,-10h-9m9,-10h-9m9,-10h-9m17,-11h-17m9,-10h-9m9,-10h-9m9,-10h-9m17,-11h-17m9,-10h-9m9,-10h-9" style="stroke: black; stroke-width: 1;"></path><g font-family="Arial" font-size="13" space="preserve"><text fill="black" x="-6" y="307" style="text-anchor: end; dominant-baseline: middle;">0</text><text fill="black" x="-6" y="266" style="text-anchor: end; dominant-baseline: middle;">20</text><text fill="black" x="-6" y="225" style="text-anchor: end; dominant-baseline: middle;">40</text><text fill="black" x="-6" y="184" style="text-anchor: end; dominant-baseline: middle;">60</text><text fill="black" x="-6" y="143" style="text-anchor: end; dominant-baseline: middle;">80</text><text fill="black" x="-6" y="102" style="text-anchor: end; dominant-baseline: middle;">100</text><text fill="black" x="-6" y="61" style="text-anchor: end; dominant-baseline: middle;">120</text><text fill="black" x="-6" y="20" style="text-anchor: end; dominant-baseline: middle;">140</text></g></g></g></g><g objname="title" objtype="TPaveText" transform="translate(143,2)" font-family="Arial" font-size="20" space="preserve"><path d="M0,0h290v24h-290z" style="fill: none;"></path><text text-anchor="middle" x="0" y="0" fill="black" transform="translate(145,13)" dominant-baseline="middle" opacity="1">Approx: ties = mean</text></g></g></g><g pad="vC1_3" transform="translate(12,408)"><rect x="0" y="0" width="576" height="384" style="fill: white;"></rect><g><g transform="translate(58,38)"><title></title><rect x="0" y="0" width="461" height="307" style="fill: white; stroke: black; stroke-width: 1;"></rect><svg x="0" y="0" overflow="hidden" width="461" height="307" viewBox="0 0 461 307"><g objname="Graph" objtype="TGraph"><path d="M28.7,303.0v4.0h4.0v-4.0zM59.5,296.8v4.0h4.0v-4.0zM90.2,286.6v4.0h4.0v-4.0zM120.9,272.3v4.0h4.0v-4.0zM151.7,253.8v4.0h4.0v-4.0zM182.4,253.8v4.0h4.0v-4.0zM182.4,231.3v4.0h4.0v-4.0zM182.4,204.7v4.0h4.0v-4.0zM243.9,174.0v4.0h4.0v-4.0zM274.6,139.2v4.0h4.0v-4.0zM305.3,100.3v4.0h4.0v-4.0z" style="stroke: rgb(0,0,255); fill: rgb(0,0,255);"></path></g><g objname="Graph" objtype="TGraph"><path d="M27.9,302.2l5.6,5.6m0,-5.6l-5.6,5.6M58.7,296.0l5.6,5.6m0,-5.6l-5.6,5.6M89.4,285.8l5.6,5.6m0,-5.6l-5.6,5.6M120.1,271.5l5.6,5.6m0,-5.6l-5.6,5.6M150.9,253.0l5.6,5.6m0,-5.6l-5.6,5.6M181.6,253.0l5.6,5.6m0,-5.6l-5.6,5.6M243.1,173.2l5.6,5.6m0,-5.6l-5.6,5.6M273.8,138.4l5.6,5.6m0,-5.6l-5.6,5.6M304.5,99.5l5.6,5.6m0,-5.6l-5.6,5.6" style="stroke: rgb(255,0,0); fill: none;"></path></g><g objname="Graph" objtype="TGraph"><path d="M31,305l5,-3l6,0l6,0l5,0l6,0l6,-8l5,0l6,0l6,0l5,0l6,-13l5,0l6,0l6,0l5,0l6,0l6,-16l5,0l6,0l6,0l5,0l6,-9l6,0l5,0l6,0l6,0l5,0l6,-40l5,0l6,0l6,0l5,0l6,0l6,0l5,0l6,0l6,0l5,0l6,-57l6,0l5,0l6,0l5,0l6,-37l6,0l5,0l6,0l6,0l5,-20" style="stroke: black; stroke-width: 1; fill: none;"></path><path d="M31,305h1m4,-3h1m5,0h1m5,0h1m4,0h1m5,0h1m5,-8h1m4,0h1m5,0h1m5,0h1m4,0h1m5,-13h1m4,0h1m5,0h1m5,0h1m4,0h1m5,0h1m5,-16h1m4,0h1m5,0h1m5,0h1m4,0h1m5,-9h1m5,0h1m4,0h1m5,0h1m5,0h1m4,0h1m5,-40h1m4,0h1m5,0h1m5,0h1m4,0h1m5,0h1m5,0h1m4,0h1m5,0h1m5,0h1m4,0h1m5,-57h1m5,0h1m4,0h1m5,0h1m4,0h1m5,-37h1m5,0h1m4,0h1m5,0h1m5,0h1m4,-20h1" style="stroke: black; fill: none;"></path></g></svg><g><g transform="translate(0,307)"><path d="M0,-12v12m15,-6v6m16,-6v6m15,-6v6m15,-12v12m16,-6v6m15,-6v6m16,-6v6m15,-12v12m15,-6v6m16,-6v6m15,-6v6m15,-12v12m16,-6v6m15,-6v6m16,-6v6m15,-12v12m15,-6v6m16,-6v6m15,-6v6m15,-12v12m16,-6v6m15,-6v6m15,-6v6m16,-12v12m15,-6v6m16,-6v6m15,-6v6m15,-12v12m16,-6v6m15,-6v6" style="stroke: black; stroke-width: 1;"></path><g font-family="Arial" font-size="13" space="preserve"><text fill="black" x="0" y="7" dy=".7em" style="text-anchor: middle;">0</text><text fill="black" x="61" y="7" dy=".7em" style="text-anchor: middle;">2</text><text fill="black" x="123" y="7" dy=".7em" style="text-anchor: middle;">4</text><text fill="black" x="184" y="7" dy=".7em" style="text-anchor: middle;">6</text><text fill="black" x="246" y="7" dy=".7em" style="text-anchor: middle;">8</text><text fill="black" x="307" y="7" dy=".7em" style="text-anchor: middle;">10</text><text fill="black" x="369" y="7" dy=".7em" style="text-anchor: middle;">12</text><text fill="black" x="430" y="7" dy=".7em" style="text-anchor: middle;">14</text></g></g><g><path d="M17,307h-17m9,-10h-9m9,-10h-9m9,-11h-9m17,-10h-17m9,-10h-9m9,-10h-9m9,-11h-9m17,-10h-17m9,-10h-9m9,-10h-9m9,-11h-9m17,-10h-17m9,-10h-9m9,-10h-9m9,-10h-9m17,-11h-17m9,-10h-9m9,-10h-9m9,-10h-9m17,-11h-17m9,-10h-9m9,-10h-9m9,-10h-9m17,-11h-17m9,-10h-9m9,-10h-9m9,-10h-9m17,-11h-17m9,-10h-9m9,-10h-9" style="stroke: black; stroke-width: 1;"></path><g font-family="Arial" font-size="13" space="preserve"><text fill="black" x="-6" y="307" style="text-anchor: end; dominant-baseline: middle;">0</text><text fill="black" x="-6" y="266" style="text-anchor: end; dominant-baseline: middle;">20</text><text fill="black" x="-6" y="225" style="text-anchor: end; dominant-baseline: middle;">40</text><text fill="black" x="-6" y="184" style="text-anchor: end; dominant-baseline: middle;">60</text><text fill="black" x="-6" y="143" style="text-anchor: end; dominant-baseline: middle;">80</text><text fill="black" x="-6" y="102" style="text-anchor: end; dominant-baseline: middle;">100</text><text fill="black" x="-6" y="61" style="text-anchor: end; dominant-baseline: middle;">120</text><text fill="black" x="-6" y="20" style="text-anchor: end; dominant-baseline: middle;">140</text></g></g></g></g><g objname="title" objtype="TPaveText" transform="translate(155,2)" font-family="Arial" font-size="20" space="preserve"><path d="M0,0h266v24h-266z" style="fill: none;"></path><text text-anchor="middle" x="0" y="0" fill="black" transform="translate(133,13)" dominant-baseline="middle" opacity="1">Approx: ties = min</text></g></g></g><g pad="vC1_4" transform="translate(612,408)"><rect x="0" y="0" width="576" height="384" style="fill: white;"></rect><g><g transform="translate(58,38)"><title></title><rect x="0" y="0" width="461" height="307" style="fill: white; stroke: black; stroke-width: 1;"></rect><svg x="0" y="0" overflow="hidden" width="461" height="307" viewBox="0 0 461 307"><g objname="Graph" objtype="TGraph"><path d="M28.7,303.0v4.0h4.0v-4.0zM59.5,296.8v4.0h4.0v-4.0zM90.2,286.6v4.0h4.0v-4.0zM120.9,272.3v4.0h4.0v-4.0zM151.7,253.8v4.0h4.0v-4.0zM182.4,253.8v4.0h4.0v-4.0zM182.4,231.3v4.0h4.0v-4.0zM182.4,204.7v4.0h4.0v-4.0zM243.9,174.0v4.0h4.0v-4.0zM274.6,139.2v4.0h4.0v-4.0zM305.3,100.3v4.0h4.0v-4.0z" style="stroke: rgb(0,0,255); fill: rgb(0,0,255);"></path></g><g objname="Graph" objtype="TGraph"><path d="M27.9,302.2l5.6,5.6m0,-5.6l-5.6,5.6M58.7,296.0l5.6,5.6m0,-5.6l-5.6,5.6M89.4,285.8l5.6,5.6m0,-5.6l-5.6,5.6M120.1,271.5l5.6,5.6m0,-5.6l-5.6,5.6M150.9,253.0l5.6,5.6m0,-5.6l-5.6,5.6M181.6,203.9l5.6,5.6m0,-5.6l-5.6,5.6M243.1,173.2l5.6,5.6m0,-5.6l-5.6,5.6M273.8,138.4l5.6,5.6m0,-5.6l-5.6,5.6M304.5,99.5l5.6,5.6m0,-5.6l-5.6,5.6" style="stroke: rgb(255,0,0); fill: none;"></path></g><g objname="Graph" objtype="TGraph"><path d="M37,304l15,-3l25,-7l21,-8l37,-19l25,-21l15,-25l25,-22l34,-17l21,-16l43,-52l22,-12l27,0l53,0" style="stroke: black; stroke-width: 1; fill: none;"></path><path d="M37,304h1m14,-3h1m24,-7h1m20,-8h1m36,-19h1m24,-21h1m14,-25h1m24,-22h1m33,-17h1m20,-16h1m42,-52h1m21,-12h1m26,0h1m52,0h1" style="stroke: black; fill: none;"></path></g></svg><g><g transform="translate(0,307)"><path d="M0,-12v12m15,-6v6m16,-6v6m15,-6v6m15,-12v12m16,-6v6m15,-6v6m16,-6v6m15,-12v12m15,-6v6m16,-6v6m15,-6v6m15,-12v12m16,-6v6m15,-6v6m16,-6v6m15,-12v12m15,-6v6m16,-6v6m15,-6v6m15,-12v12m16,-6v6m15,-6v6m15,-6v6m16,-12v12m15,-6v6m16,-6v6m15,-6v6m15,-12v12m16,-6v6m15,-6v6" style="stroke: black; stroke-width: 1;"></path><g font-family="Arial" font-size="13" space="preserve"><text fill="black" x="0" y="7" dy=".7em" style="text-anchor: middle;">0</text><text fill="black" x="61" y="7" dy=".7em" style="text-anchor: middle;">2</text><text fill="black" x="123" y="7" dy=".7em" style="text-anchor: middle;">4</text><text fill="black" x="184" y="7" dy=".7em" style="text-anchor: middle;">6</text><text fill="black" x="246" y="7" dy=".7em" style="text-anchor: middle;">8</text><text fill="black" x="307" y="7" dy=".7em" style="text-anchor: middle;">10</text><text fill="black" x="369" y="7" dy=".7em" style="text-anchor: middle;">12</text><text fill="black" x="430" y="7" dy=".7em" style="text-anchor: middle;">14</text></g></g><g><path d="M17,307h-17m9,-10h-9m9,-10h-9m9,-11h-9m17,-10h-17m9,-10h-9m9,-10h-9m9,-11h-9m17,-10h-17m9,-10h-9m9,-10h-9m9,-11h-9m17,-10h-17m9,-10h-9m9,-10h-9m9,-10h-9m17,-11h-17m9,-10h-9m9,-10h-9m9,-10h-9m17,-11h-17m9,-10h-9m9,-10h-9m9,-10h-9m17,-11h-17m9,-10h-9m9,-10h-9m9,-10h-9m17,-11h-17m9,-10h-9m9,-10h-9" style="stroke: black; stroke-width: 1;"></path><g font-family="Arial" font-size="13" space="preserve"><text fill="black" x="-6" y="307" style="text-anchor: end; dominant-baseline: middle;">0</text><text fill="black" x="-6" y="266" style="text-anchor: end; dominant-baseline: middle;">20</text><text fill="black" x="-6" y="225" style="text-anchor: end; dominant-baseline: middle;">40</text><text fill="black" x="-6" y="184" style="text-anchor: end; dominant-baseline: middle;">60</text><text fill="black" x="-6" y="143" style="text-anchor: end; dominant-baseline: middle;">80</text><text fill="black" x="-6" y="102" style="text-anchor: end; dominant-baseline: middle;">100</text><text fill="black" x="-6" y="61" style="text-anchor: end; dominant-baseline: middle;">120</text><text fill="black" x="-6" y="20" style="text-anchor: end; dominant-baseline: middle;">140</text></g></g></g></g><g objname="title" objtype="TPaveText" transform="translate(151,2)" font-family="Arial" font-size="20" space="preserve"><path d="M0,0h275v24h-275z" style="fill: none;"></path><text text-anchor="middle" x="0" y="0" fill="black" transform="translate(138,13)" dominant-baseline="middle" opacity="1">Approx: ties = max</text></g></g></g></g></svg>