<svg viewBox="0 0 1200 800" preserveAspectRatio="none" xmlns="http://www.w3.org/2000/svg" width="1200" height="800"><defs class="canvas_defs"><pattern id="pat_3010_4" class="pat_3010_4" patternUnits="userSpaceOnUse" width="10" height="10"><line x1="0" y1="2" x2="10" y2="2" style="stroke: blue; stroke-width: 1;"></line><line x1="0" y1="7" x2="10" y2="7" style="stroke: blue; stroke-width: 1;"></line><line x1="2" y1="0" x2="2" y2="2" style="stroke: blue; stroke-width: 1;"></line><line x1="7" y1="2" x2="7" y2="7" style="stroke: blue; stroke-width: 1;"></line><line x1="2" y1="7" x2="2" y2="10" style="stroke: blue; stroke-width: 1;"></line></pattern></defs><title>ROOT canvas</title><rect class="canvas_fillrect" x="0" y="0" width="1200" height="800" style="fill: white;"></rect><g class="root_frame" x="120" y="80" width="960" height="640" transform="translate(120,80)"><title></title><rect x="0" y="0" width="960" height="640" style="fill: white; stroke: black; stroke-width: 1;"></rect><g class="grid_layer"></g><svg class="main_layer" x="0" y="0" overflow="hidden" width="960" height="640" viewBox="0 0 960 640"><g objname="Graph" objtype="TGraphErrors"><path d="M97,587l174,-223l174,-133l174,222l174,-133L793,142l-174,222l-174,-311l-174,223l-174,133Z" style="stroke: none; fill: url(#pat_3010_4);"></path></g></svg><g class="axis_layer"><g class="xaxis_container" transform="translate(0,640)"><path d="M28,-10v10m35,-10v10m34,-19v19m35,-10v10m35,-10v10m35,-10v10m35,-10v10m34,-19v19m35,-10v10m35,-10v10m35,-10v10m34,-10v10m35,-19v19m35,-10v10m35,-10v10m35,-10v10m34,-10v10m35,-19v19m35,-10v10m35,-10v10m34,-10v10m35,-10v10m35,-19v19m35,-10v10m35,-10v10m34,-10v10m35,-10v10" style="stroke: black; stroke-width: 1;"></path><g class="axis_labels" font-family="Arial" font-size="22" space="preserve"><text fill="black" x="97" y="8" dy=".7em" style="text-anchor: middle;">0</text><text fill="black" x="271" y="8" dy=".7em" style="text-anchor: middle;">1</text><text fill="black" x="445" y="8" dy=".7em" style="text-anchor: middle;">2</text><text fill="black" x="619" y="8" dy=".7em" style="text-anchor: middle;">3</text><text fill="black" x="793" y="8" dy=".7em" style="text-anchor: middle;">4</text></g></g><g class="yaxis_container"><path d="M15,640h-15m15,-18h-15m15,-18h-15m29,-17h-29m15,-18h-15m15,-18h-15m15,-18h-15m15,-17h-15m29,-18h-29m15,-18h-15m15,-18h-15m15,-18h-15m15,-17h-15m29,-18h-29m15,-18h-15m15,-18h-15m15,-17h-15m15,-18h-15m29,-18h-29m15,-18h-15m15,-18h-15m15,-17h-15m15,-18h-15m29,-18h-29m15,-18h-15m15,-17h-15m15,-18h-15m15,-18h-15m29,-18h-29m15,-18h-15m15,-17h-15m15,-18h-15m15,-18h-15m29,-18h-29m15,-17h-15m15,-18h-15" style="stroke: black; stroke-width: 1;"></path><g class="axis_labels" font-family="Arial" font-size="22" space="preserve"><text fill="black" x="-8" y="587" style="text-anchor: end; dominant-baseline: middle;">-1</text><text fill="black" x="-8" y="498" style="text-anchor: end; dominant-baseline: middle;">0</text><text fill="black" x="-8" y="409" style="text-anchor: end; dominant-baseline: middle;">1</text><text fill="black" x="-8" y="320" style="text-anchor: end; dominant-baseline: middle;">2</text><text fill="black" x="-8" y="231" style="text-anchor: end; dominant-baseline: middle;">3</text><text fill="black" x="-8" y="142" style="text-anchor: end; dominant-baseline: middle;">4</text><text fill="black" x="-8" y="53" style="text-anchor: end; dominant-baseline: middle;">5</text></g></g></g><g class="upper_layer"></g></g><g class="subpads_layer"></g><g class="special_layer"></g><g class="text_layer"><g objname="title" objtype="TPaveText" x="336" y="8" width="528" height="40" transform="translate(336,8)" font-family="Arial" font-size="33" space="preserve"><rect x="0" y="0" width="528" height="40" style="fill: none;"></rect><text text-anchor="middle" x="0" y="0" fill="black" transform="translate(264.0,21.0)" dominant-baseline="middle" class="" opacity="1">Graph</text></g></g><g class="stat_layer"></g><g class="btns_layer" transform="translate(2,780)"></g></svg>