<svg viewBox="0 0 1200 800" preserveAspectRatio="none" xmlns="http://www.w3.org/2000/svg" width="1200" height="800"><defs><pattern id="pat_3005_6" patternUnits="userSpaceOnUse" width="8" height="8"><line x1="0" y1="0" x2="8" y2="8" style="stroke: magenta; stroke-width: 1;"></line></pattern></defs><title>ROOT canvas</title><rect x="0" y="0" width="1200" height="800" style="fill: white;"></rect><g><g transform="translate(120,80)"><title></title><rect x="0" y="0" width="960" height="640" style="fill: white; stroke: black; stroke-width: 1;"></rect><svg x="0" y="0" overflow="hidden" width="960" height="640" viewBox="0 0 960 640"><g objname="Graph" objtype="TGraphErrors"><path d="M97.39,586.67c11.01,-14.07,145.56,-193.24,173.91,-222.22s119.50,-147.24,173.91,-133.33s119.50,208.32,173.91,222.22s155.66,-119.34,173.91,-133.33L793.04,142.22c-11.01,14.07,-119.50,236.13,-173.91,222.22s-119.50,-297.20,-173.91,-311.11s-145.56,193.24,-173.91,222.22s-155.66,119.34,-173.91,133.33Z" style="stroke: none; fill: url(#pat_3005_6);"></path></g></svg><g><g transform="translate(0,640)"><path d="M28,-12v12m35,-12v12m34,-24v24m35,-12v12m35,-12v12m35,-12v12m35,-12v12m34,-24v24m35,-12v12m35,-12v12m35,-12v12m34,-12v12m35,-24v24m35,-12v12m35,-12v12m35,-12v12m34,-12v12m35,-24v24m35,-12v12m35,-12v12m34,-12v12m35,-12v12m35,-24v24m35,-12v12m35,-12v12m34,-12v12m35,-12v12" style="stroke: black; stroke-width: 1;"></path><g font-family="Arial" font-size="28" space="preserve"><text fill="black" x="97" y="9" dy=".7em" style="text-anchor: middle;">0</text><text fill="black" x="271" y="9" dy=".7em" style="text-anchor: middle;">1</text><text fill="black" x="445" y="9" dy=".7em" style="text-anchor: middle;">2</text><text fill="black" x="619" y="9" dy=".7em" style="text-anchor: middle;">3</text><text fill="black" x="793" y="9" dy=".7em" style="text-anchor: middle;">4</text></g></g><g><path d="M18,640h-18m18,-18h-18m18,-18h-18m36,-17h-36m18,-18h-18m18,-18h-18m18,-18h-18m18,-17h-18m36,-18h-36m18,-18h-18m18,-18h-18m18,-18h-18m18,-17h-18m36,-18h-36m18,-18h-18m18,-18h-18m18,-17h-18m18,-18h-18m36,-18h-36m18,-18h-18m18,-18h-18m18,-17h-18m18,-18h-18m36,-18h-36m18,-18h-18m18,-17h-18m18,-18h-18m18,-18h-18m36,-18h-36m18,-18h-18m18,-17h-18m18,-18h-18m18,-18h-18m36,-18h-36m18,-17h-18m18,-18h-18" style="stroke: black; stroke-width: 1;"></path><g font-family="Arial" font-size="28" space="preserve"><text fill="black" x="-9" y="587" style="text-anchor: end; dominant-baseline: middle;">-1</text><text fill="black" x="-9" y="498" style="text-anchor: end; dominant-baseline: middle;">0</text><text fill="black" x="-9" y="409" style="text-anchor: end; dominant-baseline: middle;">1</text><text fill="black" x="-9" y="320" style="text-anchor: end; dominant-baseline: middle;">2</text><text fill="black" x="-9" y="231" style="text-anchor: end; dominant-baseline: middle;">3</text><text fill="black" x="-9" y="142" style="text-anchor: end; dominant-baseline: middle;">4</text><text fill="black" x="-9" y="53" style="text-anchor: end; dominant-baseline: middle;">5</text></g></g></g></g><g objname="title" objtype="TPaveText" transform="translate(336,8)" font-family="Arial" font-size="33" space="preserve"><path d="M0,0h528v40h-528z" style="fill: none;"></path><text text-anchor="middle" x="0" y="0" fill="black" transform="translate(264,21)" dominant-baseline="middle" opacity="1">Graph</text></g></g></svg>