<svg xmlns="http://www.w3.org/2000/svg" viewBox="0 0 1200 800" preserveAspectRatio="none" width="1200" height="800">
 <defs>
  <pattern id="pat_3010_4" patternUnits="userSpaceOnUse" width="10" height="10">
   <path d="M0,2h10M0,7h10M2,0v2M7,2v5M2,7v3" style="stroke: blue; stroke-width: 1;"></path>
  </pattern>
 </defs>
 <title>
  ROOT canvas
 </title>
 <path d="M0,0H1200V800H0Z" style="fill: white;"></path>
 <g>
  <g transform="translate(120,80)">
   <title></title>
   <path d="M0,0H960V640H0Z" style="fill: white; stroke: black; stroke-width: 1;"></path>
   <svg x="0" y="0" overflow="hidden" width="960" height="640" viewBox="0 0 960 640">
    <g>
     <path d="M97,587l174,-223l174,-133l174,222l174,-133L793,142l-174,222l-174,-311l-174,223l-174,133Z" style="stroke: none; fill: url(#pat_3010_4);"></path>
    </g>
   </svg>
   <g>
    <g transform="translate(0,640)">
     <path d="M0,0h960" style="stroke: black; stroke-width: 1;"></path>
     <path d="M28,-12v12m35,-12v12m34,-24v24m35,-12v12m35,-12v12m35,-12v12m35,-12v12m34,-24v24m35,-12v12m35,-12v12m35,-12v12m34,-12v12m35,-24v24m35,-12v12m35,-12v12m35,-12v12m34,-12v12m35,-24v24m35,-12v12m35,-12v12m34,-12v12m35,-12v12m35,-24v24m35,-12v12m35,-12v12m34,-12v12m35,-12v12" style="stroke: black; stroke-width: 1;"></path>
     <g font-family="Arial" font-size="28" space="preserve">
      <text fill="black" text-anchor="middle" dy=".8em" transform="translate(97,6)">
       0
      </text>
      <text fill="black" text-anchor="middle" dy=".8em" transform="translate(271,6)">
       1
      </text>
      <text fill="black" text-anchor="middle" dy=".8em" transform="translate(445,6)">
       2
      </text>
      <text fill="black" text-anchor="middle" dy=".8em" transform="translate(619,6)">
       3
      </text>
      <text fill="black" text-anchor="middle" dy=".8em" transform="translate(793,6)">
       4
      </text>
     </g>
    </g>
    <g>
     <path d="M0,0v640" style="stroke: black; stroke-width: 1;"></path>
     <path d="M18,640h-18m18,-18h-18m18,-18h-18m36,-17h-36m18,-18h-18m18,-18h-18m18,-18h-18m18,-17h-18m36,-18h-36m18,-18h-18m18,-18h-18m18,-18h-18m18,-17h-18m36,-18h-36m18,-18h-18m18,-18h-18m18,-17h-18m18,-18h-18m36,-18h-36m18,-18h-18m18,-18h-18m18,-17h-18m18,-18h-18m36,-18h-36m18,-18h-18m18,-17h-18m18,-18h-18m18,-18h-18m36,-18h-36m18,-18h-18m18,-17h-18m18,-18h-18m18,-18h-18m36,-18h-36m18,-17h-18m18,-18h-18m18,-18h-18" style="stroke: black; stroke-width: 1;"></path>
     <g font-family="Arial" font-size="28" space="preserve">
      <text fill="black" text-anchor="end" dy=".4em" transform="translate(-4,587)">
       -1
      </text>
      <text fill="black" text-anchor="end" dy=".4em" transform="translate(-4,498)">
       0
      </text>
      <text fill="black" text-anchor="end" dy=".4em" transform="translate(-4,409)">
       1
      </text>
      <text fill="black" text-anchor="end" dy=".4em" transform="translate(-4,320)">
       2
      </text>
      <text fill="black" text-anchor="end" dy=".4em" transform="translate(-4,231)">
       3
      </text>
      <text fill="black" text-anchor="end" dy=".4em" transform="translate(-4,142)">
       4
      </text>
      <text fill="black" text-anchor="end" dy=".4em" transform="translate(-4,53)">
       5
      </text>
     </g>
    </g>
   </g>
  </g>
  <g transform="translate(120,4)" font-family="Arial" font-size="40" space="preserve">
   <path d="M0,0H960V53H0Z" style="fill: none;"></path>
   <text fill="black" text-anchor="middle" dy=".8em" transform="translate(480)">
    Graph
   </text>
  </g>
 </g>
</svg>