<svg xmlns="http://www.w3.org/2000/svg" viewBox="0 0 596 372" preserveAspectRatio="none" width="596" height="372">
 <path d="M0,0H596V372H0Z" style="fill: white;"></path>
 <g>
  <g transform="translate(60,37)">
   <path d="M0,0H477V298H0Z" style="fill: white; stroke: black; stroke-width: 1;"></path>
   <svg x="0" y="0" overflow="hidden" width="477" height="298" viewBox="0 0 477 298">
    <g>
     <path d="M56,275l86,-54l63,-76l32,-50l48,-45l35,-17l28,25l48,68l13,50l19,99" style="stroke: black; stroke-width: 1; fill: none;"></path>
     <g transform="translate(56,275)">
      <path style="stroke: black; stroke-width: 1; fill: none;" d="M0,0H-16m0,3v-6M0,0H6m0,3v-6M0,0V23m3,0h-6M0,0V-17m3,0h-6"></path>
     </g>
     <g transform="translate(142,221)">
      <path style="stroke: black; stroke-width: 1; fill: none;" d="M0,0H-32m0,3v-6M0,0H25m0,3v-6M0,0V20m3,0h-6M0,0V-14m3,0h-6"></path>
     </g>
     <g transform="translate(205,145)">
      <path style="stroke: black; stroke-width: 1; fill: none;" d="M0,0H-22m0,3v-6M0,0H16m0,3v-6M0,0L16,17m3,0h-6M0,0V-11m3,0h-6"></path>
     </g>
     <g transform="translate(237,95)">
      <path style="stroke: black; stroke-width: 1; fill: none;" d="M0,0H-22m0,3v-6M0,0H16m0,3v-6M0,0V14m3,0h-6M0,0V-8m3,0h-6"></path>
     </g>
     <g transform="translate(285,50)">
      <path style="stroke: black; stroke-width: 1; fill: none;" d="M0,0H-13m0,3v-6M0,0H10m0,3v-6M0,0V11m3,0h-6M0,0V-6m3,0h-6"></path>
     </g>
     <g transform="translate(320,33)">
      <path style="stroke: black; stroke-width: 1; fill: none;" d="M0,0H-16m0,3v-6M0,0H10m0,3v-6M0,0V11m3,0h-6M0,0V-6m3,0h-6"></path>
     </g>
     <g transform="translate(348,58)">
      <path style="stroke: black; stroke-width: 1; fill: none;" d="M0,0H-19m0,3v-6M0,0H13m0,3v-6M0,0V14m3,0h-6M0,0V-8m3,0h-6"></path>
     </g>
     <g transform="translate(396,126)">
      <path style="stroke: black; stroke-width: 1; fill: none;" d="M0,0H-22m0,3v-6M0,0H16m0,3v-6M0,0V17m3,0h-6M0,0V-11m3,0h-6"></path>
     </g>
     <g transform="translate(409,176)">
      <path style="stroke: black; stroke-width: 1; fill: none;" d="M0,0H-25m0,3v-6M0,0H19m0,3v-6M0,0V20m3,0h-6M0,0L16,-14m3,0h-6"></path>
     </g>
     <g transform="translate(428,275)">
      <path style="stroke: black; stroke-width: 1; fill: none;" d="M0,0H-16m0,3v-6M0,0H10m0,3v-6M0,0V23m3,0h-6M0,0V-17m3,0h-6"></path>
     </g>
     <path d="M52,271v8h8v-8zM138,217v8h8v-8zM201,141v8h8v-8zM233,91v8h8v-8zM281,46v8h8v-8zM316,29v8h8v-8zM344,54v8h8v-8zM392,122v8h8v-8zM405,172v8h8v-8zM424,271v8h8v-8z" style="stroke: blue; fill: blue;"></path>
    </g>
   </svg>
   <g>
    <g transform="translate(0,298)">
     <path d="M0,0h477M14,-5V0M30,-5V0M46,-5V0M62,-9V0M78,-5V0M94,-5V0M110,-5V0M126,-9V0M142,-5V0M157,-5V0M173,-5V0M189,-9V0M205,-5V0M221,-5V0M237,-5V0M253,-9V0M269,-5V0M285,-5V0M301,-5V0M316,-9V0M332,-5V0M348,-5V0M364,-5V0M380,-9V0M396,-5V0M412,-5V0M428,-5V0M444,-9V0M460,-5V0M475,-5V0" style="stroke: black; stroke-width: 1;"></path>
     <g font-family="Arial" font-size="13" space="preserve" fill="black" text-anchor="middle">
      <text dy=".8em" transform="translate(62,3)">
       -0.2
      </text>
      <text dy=".8em" transform="translate(126,3)">
       0
      </text>
      <text dy=".8em" transform="translate(189,3)">
       0.2
      </text>
      <text dy=".8em" transform="translate(253,3)">
       0.4
      </text>
      <text dy=".8em" transform="translate(316,3)">
       0.6
      </text>
      <text dy=".8em" transform="translate(380,3)">
       0.8
      </text>
      <text dy=".8em" transform="translate(444,3)">
       1
      </text>
     </g>
    </g>
    <g>
     <path d="M0,0v298M7,297H0M7,292H0M7,286H0M7,281H0M14,275H0M7,269H0M7,264H0M7,258H0M7,252H0M14,247H0M7,241H0M7,235H0M7,230H0M7,224H0M14,219H0M7,213H0M7,207H0M7,202H0M7,196H0M14,190H0M7,185H0M7,179H0M7,174H0M7,168H0M14,162H0M7,157H0M7,151H0M7,145H0M7,140H0M14,134H0M7,128H0M7,123H0M7,117H0M7,112H0M14,106H0M7,100H0M7,95H0M7,89H0M7,83H0M14,78H0M7,72H0M7,66H0M7,61H0M7,55H0M14,50H0M7,44H0M7,38H0M7,33H0M7,27H0M14,21H0M7,16H0M7,10H0M7,5H0" style="stroke: black; stroke-width: 1;"></path>
     <g font-family="Arial" font-size="13" space="preserve" fill="black" text-anchor="end">
      <text dy=".4em" transform="translate(-3,275)">
       1
      </text>
      <text dy=".4em" transform="translate(-3,247)">
       2
      </text>
      <text dy=".4em" transform="translate(-3,219)">
       3
      </text>
      <text dy=".4em" transform="translate(-3,190)">
       4
      </text>
      <text dy=".4em" transform="translate(-3,162)">
       5
      </text>
      <text dy=".4em" transform="translate(-3,134)">
       6
      </text>
      <text dy=".4em" transform="translate(-3,106)">
       7
      </text>
      <text dy=".4em" transform="translate(-3,78)">
       8
      </text>
      <text dy=".4em" transform="translate(-3,50)">
       9
      </text>
      <text dy=".4em" transform="translate(-3,21)">
       10
      </text>
     </g>
    </g>
   </g>
  </g>
  <g transform="translate(60,2)" font-family="Arial" font-size="19" space="preserve">
   <text fill="black" text-anchor="middle" dy=".8em" transform="translate(239)">
    TGraphBentErrors Example
   </text>
  </g>
 </g>
</svg>