<svg viewBox="0 0 1200 800" preserveAspectRatio="none" xmlns="http://www.w3.org/2000/svg" width="1200" height="800"><title>ROOT canvas</title><rect x="0" y="0" width="1200" height="800" style="fill: white;"></rect><g><g pad="c47_1" transform="translate(12,8)"><rect x="0" y="0" width="1176" height="384" style="fill: white;"></rect><g><g transform="translate(118,38)"><title></title><rect x="0" y="0" width="941" height="307" style="fill: white; stroke: black; stroke-width: 1;"></rect><svg x="0" y="0" overflow="hidden" width="941" height="307" viewBox="0 0 941 307"><g objname="Graph" objtype="TGraph"><g transform="translate(0,281)"><rect x="-21" y="-128" width="43" height="128" style="fill: rgb(125,153,209);"></rect></g><g transform="translate(45,250)"><rect x="-21" y="-97" width="43" height="97" style="fill: rgb(125,153,209);"></rect></g><g transform="translate(90,220)"><rect x="-21" y="-67" width="43" height="67" style="fill: rgb(125,153,209);"></rect></g><g transform="translate(135,192)"><rect x="-21" y="-39" width="43" height="39" style="fill: rgb(125,153,209);"></rect></g><g transform="translate(180,165)"><rect x="-21" y="-12" width="43" height="12" style="fill: rgb(125,153,209);"></rect></g><g transform="translate(225,139)"><rect x="-21" y="0" width="43" height="14" style="fill: rgb(125,153,209);"></rect></g><g transform="translate(270,116)"><rect x="-21" y="0" width="43" height="37" style="fill: rgb(125,153,209);"></rect></g><g transform="translate(315,95)"><rect x="-21" y="0" width="43" height="58" style="fill: rgb(125,153,209);"></rect></g><g transform="translate(360,76)"><rect x="-21" y="0" width="43" height="77" style="fill: rgb(125,153,209);"></rect></g><g transform="translate(405,60)"><rect x="-21" y="0" width="43" height="93" style="fill: rgb(125,153,209);"></rect></g><g transform="translate(450,47)"><rect x="-21" y="0" width="43" height="106" style="fill: rgb(125,153,209);"></rect></g><g transform="translate(495,37)"><rect x="-21" y="0" width="43" height="116" style="fill: rgb(125,153,209);"></rect></g><g transform="translate(540,30)"><rect x="-21" y="0" width="43" height="123" style="fill: rgb(125,153,209);"></rect></g><g transform="translate(585,26)"><rect x="-21" y="0" width="43" height="127" style="fill: rgb(125,153,209);"></rect></g><g transform="translate(630,26)"><rect x="-21" y="0" width="43" height="127" style="fill: rgb(125,153,209);"></rect></g><g transform="translate(675,28)"><rect x="-21" y="0" width="43" height="125" style="fill: rgb(125,153,209);"></rect></g><g transform="translate(720,34)"><rect x="-21" y="0" width="43" height="119" style="fill: rgb(125,153,209);"></rect></g><g transform="translate(765,43)"><rect x="-21" y="0" width="43" height="110" style="fill: rgb(125,153,209);"></rect></g><g transform="translate(810,54)"><rect x="-21" y="0" width="43" height="99" style="fill: rgb(125,153,209);"></rect></g><g transform="translate(855,69)"><rect x="-21" y="0" width="43" height="84" style="fill: rgb(125,153,209);"></rect></g></g></svg><g><g transform="translate(0,307)"><path d="M0,-9v9m23,-5v5m22,-5v5m23,-5v5m22,-9v9m23,-5v5m22,-5v5m23,-5v5m22,-9v9m23,-5v5m22,-5v5m23,-5v5m22,-9v9m23,-5v5m22,-5v5m23,-5v5m22,-9v9m23,-5v5m22,-5v5m23,-5v5m22,-9v9m23,-5v5m22,-5v5m23,-5v5m22,-9v9m23,-5v5m22,-5v5m23,-5v5m22,-9v9m23,-5v5m22,-5v5m23,-5v5m22,-9v9m23,-5v5m22,-5v5m23,-5v5m22,-9v9m23,-5v5m22,-5v5m23,-5v5m22,-9v9m23,-5v5" style="stroke: black; stroke-width: 1;"></path><g font-family="Arial" font-size="11" space="preserve"><text fill="black" x="0" y="7" dy=".7em" style="text-anchor: middle;">0</text><text fill="black" x="90" y="7" dy=".7em" style="text-anchor: middle;">0.2</text><text fill="black" x="180" y="7" dy=".7em" style="text-anchor: middle;">0.4</text><text fill="black" x="270" y="7" dy=".7em" style="text-anchor: middle;">0.6</text><text fill="black" x="360" y="7" dy=".7em" style="text-anchor: middle;">0.8</text><text fill="black" x="450" y="7" dy=".7em" style="text-anchor: middle;">1</text><text fill="black" x="540" y="7" dy=".7em" style="text-anchor: middle;">1.2</text><text fill="black" x="630" y="7" dy=".7em" style="text-anchor: middle;">1.4</text><text fill="black" x="720" y="7" dy=".7em" style="text-anchor: middle;">1.6</text><text fill="black" x="810" y="7" dy=".7em" style="text-anchor: middle;">1.8</text><text fill="black" x="900" y="7" dy=".7em" style="text-anchor: middle;">2</text></g></g><g><path d="M14,307h-14m14,-7h-14m14,-6h-14m14,-7h-14m28,-6h-28m14,-6h-14m14,-7h-14m14,-6h-14m14,-7h-14m28,-6h-28m14,-6h-14m14,-7h-14m14,-6h-14m14,-7h-14m28,-6h-28m14,-6h-14m14,-7h-14m14,-6h-14m14,-6h-14m28,-7h-28m14,-6h-14m14,-7h-14m14,-6h-14m14,-6h-14m28,-7h-28m14,-6h-14m14,-7h-14m14,-6h-14m14,-6h-14m28,-7h-28m14,-6h-14m14,-7h-14m14,-6h-14m14,-6h-14m28,-7h-28m14,-6h-14m14,-6h-14m14,-7h-14m14,-6h-14m28,-7h-28m14,-6h-14m14,-6h-14m14,-7h-14m14,-6h-14m28,-7h-28m14,-6h-14m14,-6h-14m14,-7h-14" style="stroke: black; stroke-width: 1;"></path><g font-family="Arial" font-size="11" space="preserve"><text fill="black" x="-8" y="281" style="text-anchor: end; dominant-baseline: middle;">-4</text><text fill="black" x="-8" y="249" style="text-anchor: end; dominant-baseline: middle;">-3</text><text fill="black" x="-8" y="217" style="text-anchor: end; dominant-baseline: middle;">-2</text><text fill="black" x="-8" y="185" style="text-anchor: end; dominant-baseline: middle;">-1</text><text fill="black" x="-8" y="153" style="text-anchor: end; dominant-baseline: middle;">0</text><text fill="black" x="-8" y="121" style="text-anchor: end; dominant-baseline: middle;">1</text><text fill="black" x="-8" y="89" style="text-anchor: end; dominant-baseline: middle;">2</text><text fill="black" x="-8" y="57" style="text-anchor: end; dominant-baseline: middle;">3</text><text fill="black" x="-8" y="25" style="text-anchor: end; dominant-baseline: middle;">4</text></g></g></g></g><g objname="title" objtype="TPaveText" transform="translate(329,4)" font-family="Arial" font-size="16" space="preserve"><path d="M0,0h517v19h-517z" style="fill: none;"></path><text text-anchor="middle" x="0" y="0" fill="black" transform="translate(259,11)" dominant-baseline="middle" opacity="1">Graph</text></g></g></g><g pad="c47_2" transform="translate(12,408)"><rect x="0" y="0" width="1176" height="384" style="fill: white;"></rect><g><g transform="translate(118,38)"><title></title><rect x="0" y="0" width="941" height="307" style="fill: white; stroke: black; stroke-width: 1;"></rect><svg x="0" y="0" overflow="hidden" width="941" height="307" viewBox="0 0 941 307"><g objname="Graph" objtype="TGraph"><g transform="translate(0,281)"><rect x="-21" y="0" width="43" height="26" style="fill: rgb(125,153,209);"></rect></g><g transform="translate(45,250)"><rect x="-21" y="0" width="43" height="57" style="fill: rgb(125,153,209);"></rect></g><g transform="translate(90,220)"><rect x="-21" y="0" width="43" height="87" style="fill: rgb(125,153,209);"></rect></g><g transform="translate(135,192)"><rect x="-21" y="0" width="43" height="115" style="fill: rgb(125,153,209);"></rect></g><g transform="translate(180,165)"><rect x="-21" y="0" width="43" height="142" style="fill: rgb(125,153,209);"></rect></g><g transform="translate(225,139)"><rect x="-21" y="0" width="43" height="168" style="fill: rgb(125,153,209);"></rect></g><g transform="translate(270,116)"><rect x="-21" y="0" width="43" height="191" style="fill: rgb(125,153,209);"></rect></g><g transform="translate(315,95)"><rect x="-21" y="0" width="43" height="212" style="fill: rgb(125,153,209);"></rect></g><g transform="translate(360,76)"><rect x="-21" y="0" width="43" height="231" style="fill: rgb(125,153,209);"></rect></g><g transform="translate(405,60)"><rect x="-21" y="0" width="43" height="247" style="fill: rgb(125,153,209);"></rect></g><g transform="translate(450,47)"><rect x="-21" y="0" width="43" height="260" style="fill: rgb(125,153,209);"></rect></g><g transform="translate(495,37)"><rect x="-21" y="0" width="43" height="270" style="fill: rgb(125,153,209);"></rect></g><g transform="translate(540,30)"><rect x="-21" y="0" width="43" height="277" style="fill: rgb(125,153,209);"></rect></g><g transform="translate(585,26)"><rect x="-21" y="0" width="43" height="281" style="fill: rgb(125,153,209);"></rect></g><g transform="translate(630,26)"><rect x="-21" y="0" width="43" height="281" style="fill: rgb(125,153,209);"></rect></g><g transform="translate(675,28)"><rect x="-21" y="0" width="43" height="279" style="fill: rgb(125,153,209);"></rect></g><g transform="translate(720,34)"><rect x="-21" y="0" width="43" height="273" style="fill: rgb(125,153,209);"></rect></g><g transform="translate(765,43)"><rect x="-21" y="0" width="43" height="264" style="fill: rgb(125,153,209);"></rect></g><g transform="translate(810,54)"><rect x="-21" y="0" width="43" height="253" style="fill: rgb(125,153,209);"></rect></g><g transform="translate(855,69)"><rect x="-21" y="0" width="43" height="238" style="fill: rgb(125,153,209);"></rect></g></g></svg><g><g transform="translate(0,307)"><path d="M0,-9v9m23,-5v5m22,-5v5m23,-5v5m22,-9v9m23,-5v5m22,-5v5m23,-5v5m22,-9v9m23,-5v5m22,-5v5m23,-5v5m22,-9v9m23,-5v5m22,-5v5m23,-5v5m22,-9v9m23,-5v5m22,-5v5m23,-5v5m22,-9v9m23,-5v5m22,-5v5m23,-5v5m22,-9v9m23,-5v5m22,-5v5m23,-5v5m22,-9v9m23,-5v5m22,-5v5m23,-5v5m22,-9v9m23,-5v5m22,-5v5m23,-5v5m22,-9v9m23,-5v5m22,-5v5m23,-5v5m22,-9v9m23,-5v5" style="stroke: black; stroke-width: 1;"></path><g font-family="Arial" font-size="11" space="preserve"><text fill="black" x="0" y="7" dy=".7em" style="text-anchor: middle;">0</text><text fill="black" x="90" y="7" dy=".7em" style="text-anchor: middle;">0.2</text><text fill="black" x="180" y="7" dy=".7em" style="text-anchor: middle;">0.4</text><text fill="black" x="270" y="7" dy=".7em" style="text-anchor: middle;">0.6</text><text fill="black" x="360" y="7" dy=".7em" style="text-anchor: middle;">0.8</text><text fill="black" x="450" y="7" dy=".7em" style="text-anchor: middle;">1</text><text fill="black" x="540" y="7" dy=".7em" style="text-anchor: middle;">1.2</text><text fill="black" x="630" y="7" dy=".7em" style="text-anchor: middle;">1.4</text><text fill="black" x="720" y="7" dy=".7em" style="text-anchor: middle;">1.6</text><text fill="black" x="810" y="7" dy=".7em" style="text-anchor: middle;">1.8</text><text fill="black" x="900" y="7" dy=".7em" style="text-anchor: middle;">2</text></g></g><g><path d="M14,307h-14m14,-7h-14m14,-6h-14m14,-7h-14m28,-6h-28m14,-6h-14m14,-7h-14m14,-6h-14m14,-7h-14m28,-6h-28m14,-6h-14m14,-7h-14m14,-6h-14m14,-7h-14m28,-6h-28m14,-6h-14m14,-7h-14m14,-6h-14m14,-6h-14m28,-7h-28m14,-6h-14m14,-7h-14m14,-6h-14m14,-6h-14m28,-7h-28m14,-6h-14m14,-7h-14m14,-6h-14m14,-6h-14m28,-7h-28m14,-6h-14m14,-7h-14m14,-6h-14m14,-6h-14m28,-7h-28m14,-6h-14m14,-6h-14m14,-7h-14m14,-6h-14m28,-7h-28m14,-6h-14m14,-6h-14m14,-7h-14m14,-6h-14m28,-7h-28m14,-6h-14m14,-6h-14m14,-7h-14" style="stroke: black; stroke-width: 1;"></path><g font-family="Arial" font-size="11" space="preserve"><text fill="black" x="-8" y="281" style="text-anchor: end; dominant-baseline: middle;">-4</text><text fill="black" x="-8" y="249" style="text-anchor: end; dominant-baseline: middle;">-3</text><text fill="black" x="-8" y="217" style="text-anchor: end; dominant-baseline: middle;">-2</text><text fill="black" x="-8" y="185" style="text-anchor: end; dominant-baseline: middle;">-1</text><text fill="black" x="-8" y="153" style="text-anchor: end; dominant-baseline: middle;">0</text><text fill="black" x="-8" y="121" style="text-anchor: end; dominant-baseline: middle;">1</text><text fill="black" x="-8" y="89" style="text-anchor: end; dominant-baseline: middle;">2</text><text fill="black" x="-8" y="57" style="text-anchor: end; dominant-baseline: middle;">3</text><text fill="black" x="-8" y="25" style="text-anchor: end; dominant-baseline: middle;">4</text></g></g></g></g><g objname="title" objtype="TPaveText" transform="translate(329,4)" font-family="Arial" font-size="16" space="preserve"><path d="M0,0h517v19h-517z" style="fill: none;"></path><text text-anchor="middle" x="0" y="0" fill="black" transform="translate(259,11)" dominant-baseline="middle" opacity="1">Graph</text></g></g></g></g></svg>