<svg xmlns="http://www.w3.org/2000/svg" viewBox="0 0 596 372" preserveAspectRatio="none" width="596" height="372">
 <path d="M0,0H596V372H0Z" style="fill: #deba87;"></path>
 <g>
  <g transform="translate(60,37)">
   <path d="M0,0H477V298H0Z" style="fill: #ccc7ab; stroke: black; stroke-width: 1;"></path>
   <svg x="0" y="0" overflow="hidden" width="477" height="298" viewBox="0 0 477 298">
    <g>
     <path d="M0,273.17Q13.69,254.97,22.82,243.14C31.95,231.31,36.52,225.43,45.65,214.02S59.34,196.98,68.47,186.11S82.16,169.91,91.29,159.69S104.99,144.49,114.11,135.02S127.81,120.97,136.94,112.34S150.63,99.58,159.76,91.88S173.45,80.55,182.58,73.86S196.28,64.05,205.41,58.43S219.1,50.26,228.23,45.77S241.92,39.31,251.05,36S264.75,31.32,273.88,29.21S287.57,26.35,296.7,25.48S310.39,24.47,319.52,24.83S333.22,25.69,342.34,27.29S356.04,30,365.17,32.81S378.86,37.35,387.99,41.35S401.68,47.67,410.81,52.82Q429.21,64.05,433.64,67.12" style="stroke: red; stroke-width: 4; fill: none;"></path>
     <path d="M-6,267v12h12v-12zM17,237v12h12v-12zM40,208v12h12v-12zM62,180v12h12v-12zM85,154v12h12v-12zM108,129v12h12v-12zM131,106v12h12v-12zM154,86v12h12v-12zM177,68v12h12v-12zM199,52v12h12v-12zM222,40v12h12v-12zM245,30v12h12v-12zM268,23v12h12v-12zM291,19v12h12v-12zM314,19v12h12v-12zM336,21v12h12v-12zM359,27v12h12v-12zM382,35v12h12v-12zM405,47v12h12v-12zM428,61v12h12v-12z" style="stroke: blue; fill: blue;"></path>
    </g>
   </svg>
   <g>
    <g transform="translate(0,298)">
     <path d="M0,0h477M0,-11V0M11,-6V0M23,-6V0M34,-6V0M46,-11V0M57,-6V0M68,-6V0M80,-6V0M91,-11V0M103,-6V0M114,-6V0M126,-6V0M137,-11V0M148,-6V0M160,-6V0M171,-6V0M183,-11V0M194,-6V0M205,-6V0M217,-6V0M228,-11V0M240,-6V0M251,-6V0M262,-6V0M274,-11V0M285,-6V0M297,-6V0M308,-6V0M320,-11V0M331,-6V0M342,-6V0M354,-6V0M365,-11V0M377,-6V0M388,-6V0M399,-6V0M411,-11V0M422,-6V0M434,-6V0M445,-6V0M456,-11V0M468,-6V0" style="stroke: black; stroke-width: 1;"></path>
     <g font-family="Arial" font-size="13" space="preserve" fill="black" text-anchor="middle">
      <text dy=".8em" transform="translate(0,1)">
       0
      </text>
      <text dy=".8em" transform="translate(46,1)">
       0.2
      </text>
      <text dy=".8em" transform="translate(91,1)">
       0.4
      </text>
      <text dy=".8em" transform="translate(137,1)">
       0.6
      </text>
      <text dy=".8em" transform="translate(183,1)">
       0.8
      </text>
      <text dy=".8em" transform="translate(228,1)">
       1
      </text>
      <text dy=".8em" transform="translate(274,1)">
       1.2
      </text>
      <text dy=".8em" transform="translate(320,1)">
       1.4
      </text>
      <text dy=".8em" transform="translate(365,1)">
       1.6
      </text>
      <text dy=".8em" transform="translate(411,1)">
       1.8
      </text>
      <text dy=".8em" transform="translate(456,1)">
       2
      </text>
     </g>
     <g font-family="Arial" font-size="13" space="preserve" transform="translate(477,21)">
      <text fill="black" text-anchor="end" dy=".4em">
       X title
      </text>
     </g>
    </g>
    <g>
     <path d="M0,0v298M9,298H0M9,291H0M9,285H0M9,279H0M18,273H0M9,267H0M9,260H0M9,254H0M9,248H0M18,242H0M9,236H0M9,229H0M9,223H0M9,217H0M18,211H0M9,205H0M9,198H0M9,192H0M9,186H0M18,180H0M9,174H0M9,167H0M9,161H0M9,155H0M18,149H0M9,143H0M9,136H0M9,130H0M9,124H0M18,118H0M9,112H0M9,105H0M9,99H0M9,93H0M18,87H0M9,81H0M9,74H0M9,68H0M9,62H0M18,56H0M9,50H0M9,43H0M9,37H0M9,31H0M18,25H0M9,18H0M9,12H0M9,6H0" style="stroke: black; stroke-width: 1;"></path>
     <g font-family="Arial" font-size="13" space="preserve" fill="black" text-anchor="end">
      <text dy=".4em" transform="translate(-2,273)">
       2
      </text>
      <text dy=".4em" transform="translate(-2,242)">
       3
      </text>
      <text dy=".4em" transform="translate(-2,211)">
       4
      </text>
      <text dy=".4em" transform="translate(-2,180)">
       5
      </text>
      <text dy=".4em" transform="translate(-2,149)">
       6
      </text>
      <text dy=".4em" transform="translate(-2,118)">
       7
      </text>
      <text dy=".4em" transform="translate(-2,87)">
       8
      </text>
      <text dy=".4em" transform="translate(-2,56)">
       9
      </text>
      <text dy=".4em" transform="translate(-2,25)">
       10
      </text>
     </g>
     <g font-family="Arial" font-size="13" space="preserve" transform="translate(-33)">
      <text fill="black" text-anchor="end" dy=".4em" transform="rotate(270)">
       Y title
      </text>
     </g>
    </g>
    <path d="M0,0v298M46,0v298M91,0v298M137,0v298M183,0v298M228,0v298M274,0v298M320,0v298M365,0v298M411,0v298M456,0v298" style="stroke: black; stroke-width: 1; stroke-dasharray: 1,2;"></path>
    <path d="M0,273h477M0,242h477M0,211h477M0,180h477M0,149h477M0,118h477M0,87h477M0,56h477M0,25h477" style="stroke: black; stroke-width: 1; stroke-dasharray: 1,2;"></path>
   </g>
  </g>
  <g transform="translate(198,2)" font-family="Arial" font-size="18" space="preserve">
   <text fill="black" text-anchor="middle" dy=".4em" transform="translate(100,12)">
    Option ACP example
   </text>
  </g>
 </g>
</svg>