<svg xmlns="http://www.w3.org/2000/svg" viewBox="0 0 596 372" preserveAspectRatio="none" width="596" height="372">
 <defs>
  <pattern id="pat_3005_6" patternUnits="userSpaceOnUse" width="8" height="8">
   <path d="M0,0L8,8" style="stroke: magenta; stroke-width: 1;"></path>
  </pattern>
 </defs>
 <path d="M0,0H596V372H0Z" style="fill: white;"></path>
 <g>
  <g transform="translate(60,37)">
   <path d="M0,0H477V298H0Z" style="fill: white; stroke: black; stroke-width: 1;"></path>
   <svg x="0" y="0" overflow="hidden" width="477" height="298" viewBox="0 0 477 298">
    <g>
     <path d="M48,273Q100,203,135,170C169,137,187,99,221,108S273,203,308,211Q392,170,394,149L394,66Q342,178,308,170C273,161,256,33,221,25S169,95,135,128Q67,181,48,190Z" style="fill: url(#pat_3005_6);"></path>
    </g>
   </svg>
   <g>
    <g transform="translate(0,298)">
     <path d="M0,0h477M14,-6V0M31,-6V0M48,-11V0M66,-6V0M83,-6V0M100,-6V0M118,-6V0M135,-11V0M152,-6V0M169,-6V0M187,-6V0M204,-6V0M221,-11V0M239,-6V0M256,-6V0M273,-6V0M290,-6V0M308,-11V0M325,-6V0M342,-6V0M359,-6V0M377,-6V0M394,-11V0M411,-6V0M429,-6V0M446,-6V0M463,-6V0" style="stroke: black; stroke-width: 1;"></path>
     <g font-family="Arial" font-size="13" space="preserve" fill="black" text-anchor="middle">
      <text dy=".8em" transform="translate(48,3)">
       0
      </text>
      <text dy=".8em" transform="translate(135,3)">
       1
      </text>
      <text dy=".8em" transform="translate(221,3)">
       2
      </text>
      <text dy=".8em" transform="translate(308,3)">
       3
      </text>
      <text dy=".8em" transform="translate(394,3)">
       4
      </text>
     </g>
    </g>
    <g>
     <path d="M0,0v298M9,298H0M9,290H0M9,281H0M18,273H0M9,265H0M9,257H0M9,248H0M9,240H0M18,232H0M9,224H0M9,215H0M9,207H0M9,199H0M18,190H0M9,182H0M9,174H0M9,166H0M9,157H0M18,149H0M9,141H0M9,132H0M9,124H0M9,116H0M18,108H0M9,99H0M9,91H0M9,83H0M9,74H0M18,66H0M9,58H0M9,50H0M9,41H0M9,33H0M18,25H0M9,17H0M9,8H0M9,0H0" style="stroke: black; stroke-width: 1;"></path>
     <g font-family="Arial" font-size="13" space="preserve" fill="black" text-anchor="end">
      <text dy=".4em" transform="translate(-3,273)">
       -1
      </text>
      <text dy=".4em" transform="translate(-3,232)">
       0
      </text>
      <text dy=".4em" transform="translate(-3,190)">
       1
      </text>
      <text dy=".4em" transform="translate(-3,149)">
       2
      </text>
      <text dy=".4em" transform="translate(-3,108)">
       3
      </text>
      <text dy=".4em" transform="translate(-3,66)">
       4
      </text>
      <text dy=".4em" transform="translate(-3,25)">
       5
      </text>
     </g>
    </g>
   </g>
  </g>
  <g transform="translate(60,2)" font-family="Arial" font-size="19" space="preserve">
   <text fill="black" text-anchor="middle" dy=".8em" transform="translate(239)">
    Graph
   </text>
  </g>
 </g>
</svg>