<svg xmlns="http://www.w3.org/2000/svg" viewBox="0 0 596 372" preserveAspectRatio="none" width="596" height="372">
 <path d="M0,0H596V372H0Z" style="fill: #deba87;"></path>
 <g>
  <g transform="translate(60,37)">
   <path d="M0,0H477V298H0Z" style="fill: #ccc7ab; stroke: black; stroke-width: 1;"></path>
   <svg x="0" y="0" overflow="hidden" width="477" height="298" viewBox="0 0 477 298">
    <g>
     <path d="M0,273.17Q13.69,254.97,22.82,243.14C31.95,231.31,36.52,225.43,45.65,214.02S59.34,196.98,68.47,186.11S82.16,169.91,91.29,159.69S104.99,144.49,114.11,135.02S127.81,120.97,136.94,112.34S150.63,99.58,159.76,91.88S173.45,80.55,182.58,73.86S196.28,64.05,205.41,58.43S219.1,50.26,228.23,45.77S241.92,39.31,251.05,36S264.75,31.32,273.88,29.21S287.57,26.35,296.7,25.48S310.39,24.47,319.52,24.83S333.22,25.69,342.34,27.29S356.04,30,365.17,32.81S378.86,37.35,387.99,41.35S401.68,47.67,410.81,52.82Q429.21,64.05,433.64,67.12" style="stroke: red; stroke-width: 4; fill: none;"></path>
     <path d="M-6,267v12h12v-12zM17,237v12h12v-12zM40,208v12h12v-12zM62,180v12h12v-12zM85,154v12h12v-12zM108,129v12h12v-12zM131,106v12h12v-12zM154,86v12h12v-12zM177,68v12h12v-12zM199,52v12h12v-12zM222,40v12h12v-12zM245,30v12h12v-12zM268,23v12h12v-12zM291,19v12h12v-12zM314,19v12h12v-12zM336,21v12h12v-12zM359,27v12h12v-12zM382,35v12h12v-12zM405,47v12h12v-12zM428,61v12h12v-12z" style="stroke: blue; fill: blue;"></path>
    </g>
   </svg>
   <g>
    <g transform="translate(0,298)">
     <path d="M0,0h477M0,-9V0M11,-5V0M23,-5V0M34,-5V0M46,-9V0M57,-5V0M68,-5V0M80,-5V0M91,-9V0M103,-5V0M114,-5V0M126,-5V0M137,-9V0M148,-5V0M160,-5V0M171,-5V0M183,-9V0M194,-5V0M205,-5V0M217,-5V0M228,-9V0M240,-5V0M251,-5V0M262,-5V0M274,-9V0M285,-5V0M297,-5V0M308,-5V0M320,-9V0M331,-5V0M342,-5V0M354,-5V0M365,-9V0M377,-5V0M388,-5V0M399,-5V0M411,-9V0M422,-5V0M434,-5V0M445,-5V0M456,-9V0M468,-5V0" style="stroke: black; stroke-width: 1;"></path>
     <g font-family="Arial" font-size="13" space="preserve" fill="black" text-anchor="middle">
      <text dy=".8em" transform="translate(0,3)">
       0
      </text>
      <text dy=".8em" transform="translate(46,3)">
       0.2
      </text>
      <text dy=".8em" transform="translate(91,3)">
       0.4
      </text>
      <text dy=".8em" transform="translate(137,3)">
       0.6
      </text>
      <text dy=".8em" transform="translate(183,3)">
       0.8
      </text>
      <text dy=".8em" transform="translate(228,3)">
       1
      </text>
      <text dy=".8em" transform="translate(274,3)">
       1.2
      </text>
      <text dy=".8em" transform="translate(320,3)">
       1.4
      </text>
      <text dy=".8em" transform="translate(365,3)">
       1.6
      </text>
      <text dy=".8em" transform="translate(411,3)">
       1.8
      </text>
      <text dy=".8em" transform="translate(456,3)">
       2
      </text>
     </g>
     <g font-family="Arial" font-size="13" space="preserve" transform="translate(477,21)">
      <text fill="black" text-anchor="end" dy=".4em">
       X title
      </text>
     </g>
    </g>
    <g>
     <path d="M0,0v298M7,298H0M7,291H0M7,285H0M7,279H0M14,273H0M7,267H0M7,260H0M7,254H0M7,248H0M14,242H0M7,236H0M7,229H0M7,223H0M7,217H0M14,211H0M7,205H0M7,198H0M7,192H0M7,186H0M14,180H0M7,174H0M7,167H0M7,161H0M7,155H0M14,149H0M7,143H0M7,136H0M7,130H0M7,124H0M14,118H0M7,112H0M7,105H0M7,99H0M7,93H0M14,87H0M7,81H0M7,74H0M7,68H0M7,62H0M14,56H0M7,50H0M7,43H0M7,37H0M7,31H0M14,25H0M7,18H0M7,12H0M7,6H0" style="stroke: black; stroke-width: 1;"></path>
     <g font-family="Arial" font-size="13" space="preserve" fill="black" text-anchor="end">
      <text dy=".4em" transform="translate(-3,273)">
       2
      </text>
      <text dy=".4em" transform="translate(-3,242)">
       3
      </text>
      <text dy=".4em" transform="translate(-3,211)">
       4
      </text>
      <text dy=".4em" transform="translate(-3,180)">
       5
      </text>
      <text dy=".4em" transform="translate(-3,149)">
       6
      </text>
      <text dy=".4em" transform="translate(-3,118)">
       7
      </text>
      <text dy=".4em" transform="translate(-3,87)">
       8
      </text>
      <text dy=".4em" transform="translate(-3,56)">
       9
      </text>
      <text dy=".4em" transform="translate(-3,25)">
       10
      </text>
     </g>
     <g font-family="Arial" font-size="13" space="preserve" transform="translate(-33)">
      <text fill="black" text-anchor="end" dy=".4em" transform="rotate(270)">
       Y title
      </text>
     </g>
    </g>
    <path d="M0,0v298M46,0v298M91,0v298M137,0v298M183,0v298M228,0v298M274,0v298M320,0v298M365,0v298M411,0v298M456,0v298" style="stroke: black; stroke-width: 1; stroke-dasharray: 1,2;"></path>
    <path d="M0,273h477M0,242h477M0,211h477M0,180h477M0,149h477M0,118h477M0,87h477M0,56h477M0,25h477" style="stroke: black; stroke-width: 1; stroke-dasharray: 1,2;"></path>
   </g>
  </g>
  <g transform="translate(198,2)" font-family="Arial" font-size="16" space="preserve">
   <text fill="black" text-anchor="middle" dy=".4em" transform="translate(100,12)">
    Option ACP example
   </text>
  </g>
 </g>
</svg>