<svg xmlns="http://www.w3.org/2000/svg" viewBox="0 0 1200 800" preserveAspectRatio="none" width="1200" height="800">
 <path d="M0,0H1200V800H0Z" style="fill: white;"></path>
 <g>
  <g transform="translate(120,80)">
   <path d="M0,0H960V640H0Z" style="fill: white; stroke: black; stroke-width: 1;"></path>
   <svg x="0" y="0" overflow="hidden" width="960" height="640" viewBox="0 0 960 640">
    <g>
     <path d="M-5,490l414,-115l126,-80l73,-60l52,-47l41,-38l33,-32l28,-25l24,-21l21,-16l19,-13l18,-10l15,-7l15,-3l13,-1l13,3l12,5l11,8l10,12l10,15" style="stroke: red; stroke-width: 4; fill: none;"></path>
     <path d="M-11,484v12h12v-12zM403,369v12h12v-12zM529,289v12h12v-12zM602,229v12h12v-12zM654,182v12h12v-12zM695,144v12h12v-12zM728,112v12h12v-12zM756,87v12h12v-12zM780,66v12h12v-12zM801,50v12h12v-12zM820,37v12h12v-12zM838,27v12h12v-12zM853,20v12h12v-12zM868,17v12h12v-12zM881,16v12h12v-12zM894,19v12h12v-12zM906,24v12h12v-12zM917,32v12h12v-12zM927,44v12h12v-12zM937,59v12h12v-12z" style="stroke: blue; fill: blue;"></path>
    </g>
   </svg>
   <g>
    <g transform="translate(0,640)">
     <path d="M0,0h960M118,-10V0M191,-10V0M243,-10V0M284,-10V0M317,-10V0M345,-10V0M369,-10V0M390,-10V0M409,-19V0M535,-10V0M608,-10V0M660,-10V0M701,-10V0M734,-10V0M762,-10V0M786,-10V0M807,-10V0M826,-19V0M952,-10V0" style="stroke: black; stroke-width: 1;"></path>
     <g font-family="Arial" font-size="28" xml:space="preserve"><g transform="translate(386,36)"><text fill="black" font-size="28">10</text><text fill="black" font-size="17" transform="translate(31,-15)">-1</text></g><text fill="black" text-anchor="middle" transform="translate(826,36)">1</text></g>
    </g>
    <g>
     <path d="M0,0v640M15,489H0M15,371H0M15,288H0M15,223H0M15,170H0M15,126H0M15,87H0M15,53H0M29,22H0" style="stroke: black; stroke-width: 1;"></path>
     <g font-family="Arial" font-size="28" xml:space="preserve"><text fill="black" text-anchor="end" dominant-baseline="middle" transform="translate(-6,22)">10</text></g>
    </g>
   </g>
  </g>
  <g transform="translate(402,4)" font-family="Arial" font-size="40" xml:space="preserve"><text fill="black" text-anchor="middle" dominant-baseline="middle" transform="translate(198,26)">Option ACP example</text></g>
 </g>
</svg>