<svg xmlns="http://www.w3.org/2000/svg" viewBox="0 0 1200 800" preserveAspectRatio="none" width="1200" height="800">
 <path d="M0,0H1200V800H0Z" style="fill: white;"></path>
 <g>
  <g transform="translate(120,80)">
   <path d="M0,0H960V640H0Z" style="fill: white; stroke: black; stroke-width: 1;"></path>
   <svg x="0" y="0" overflow="hidden" width="960" height="640" viewBox="0 0 960 640">
    <g>
     <path d="M-6,581v12h12v-12zM40,516v12h12v-12zM86,454v12h12v-12zM132,394v12h12v-12zM178,337v12h12v-12zM224,284v12h12v-12zM270,235v12h12v-12zM316,191v12h12v-12zM361,153v12h12v-12zM407,119v12h12v-12zM453,92v12h12v-12zM499,71v12h12v-12zM545,57v12h12v-12zM591,49v12h12v-12zM637,47v12h12v-12zM683,53v12h12v-12zM729,64v12h12v-12zM775,83v12h12v-12zM821,107v12h12v-12zM867,138v12h12v-12z" style="stroke: blue; fill: blue;"></path>
    </g>
   </svg>
   <g>
    <g transform="translate(0,640)">
     <path d="M0,0h960M0,-24v24m23,-12v12m23,-12v12m23,-12v12m23,-24v24m23,-12v12m23,-12v12m23,-12v12m23,-24v24m23,-12v12m23,-12v12m23,-12v12m23,-24v24m23,-12v12m23,-12v12m22,-12v12m23,-24v24m23,-12v12m23,-12v12m23,-12v12m23,-24v24m23,-12v12m23,-12v12m23,-12v12m23,-24v24m23,-12v12m23,-12v12m23,-12v12m23,-24v24m23,-12v12m23,-12v12m23,-12v12m23,-24v24m23,-12v12m23,-12v12m23,-12v12m23,-24v24m23,-12v12m23,-12v12m23,-12v12m23,-24v24m23,-12v12" style="stroke: black; stroke-width: 1;"></path>
     <g font-family="Arial" font-size="28" space="preserve" fill="black" text-anchor="middle">
      <text dy=".8em" transform="translate(0,6)">
       0
      </text>
      <text dy=".8em" transform="translate(92,6)">
       0.2
      </text>
      <text dy=".8em" transform="translate(184,6)">
       0.4
      </text>
      <text dy=".8em" transform="translate(276,6)">
       0.6
      </text>
      <text dy=".8em" transform="translate(367,6)">
       0.8
      </text>
      <text dy=".8em" transform="translate(459,6)">
       1
      </text>
      <text dy=".8em" transform="translate(551,6)">
       1.2
      </text>
      <text dy=".8em" transform="translate(643,6)">
       1.4
      </text>
      <text dy=".8em" transform="translate(735,6)">
       1.6
      </text>
      <text dy=".8em" transform="translate(827,6)">
       1.8
      </text>
      <text dy=".8em" transform="translate(919,6)">
       2
      </text>
     </g>
    </g>
    <g>
     <path d="M0,0v640M18,639h-18m18,-13h-18m18,-14h-18m18,-13h-18m36,-13h-36m18,-14h-18m18,-13h-18m18,-13h-18m18,-13h-18m36,-14h-36m18,-13h-18m18,-13h-18m18,-14h-18m18,-13h-18m36,-13h-36m18,-14h-18m18,-13h-18m18,-13h-18m18,-14h-18m36,-13h-36m18,-13h-18m18,-14h-18m18,-13h-18m18,-13h-18m36,-14h-36m18,-13h-18m18,-13h-18m18,-14h-18m18,-13h-18m36,-13h-36m18,-13h-18m18,-14h-18m18,-13h-18m18,-13h-18m36,-14h-36m18,-13h-18m18,-13h-18m18,-14h-18m18,-13h-18m36,-13h-36m18,-14h-18m18,-13h-18m18,-13h-18m18,-14h-18m36,-13h-36m18,-13h-18m18,-14h-18m18,-13h-18" style="stroke: black; stroke-width: 1;"></path>
     <g font-family="Arial" font-size="28" space="preserve" fill="black" text-anchor="end">
      <text dy=".4em" transform="translate(-4,586)">
       2
      </text>
      <text dy=".4em" transform="translate(-4,519)">
       3
      </text>
      <text dy=".4em" transform="translate(-4,453)">
       4
      </text>
      <text dy=".4em" transform="translate(-4,386)">
       5
      </text>
      <text dy=".4em" transform="translate(-4,319)">
       6
      </text>
      <text dy=".4em" transform="translate(-4,253)">
       7
      </text>
      <text dy=".4em" transform="translate(-4,186)">
       8
      </text>
      <text dy=".4em" transform="translate(-4,120)">
       9
      </text>
      <text dy=".4em" transform="translate(-4,53)">
       10
      </text>
     </g>
    </g>
   </g>
  </g>
  <g transform="translate(120,4)" font-family="Arial" font-size="40" space="preserve">
   <text fill="black" text-anchor="middle" dy=".8em" transform="translate(480)">
    Option ACP example
   </text>
  </g>
 </g>
</svg>