<svg xmlns="http://www.w3.org/2000/svg" viewBox="0 0 698 474" preserveAspectRatio="none" width="698" height="474">
 <path d="M0,0H698V474H0Z" style="fill: white;"></path>
 <g>
  <g transform="translate(70,47)">
   <path d="M0,0H558V379H0Z" style="fill: white; stroke: black; stroke-width: 1;"></path>
   <svg x="0" y="0" overflow="hidden" width="558" height="379" viewBox="0 0 558 379">
    <g>
     <path d="M47,347Q116,190,163,190C209,190,232,363,279,347S349,174,395,111Q484,39,512,32" style="stroke: #630005; stroke-width: 3; fill: none;"></path>
     <path d="M43,343l8,8m0,-8l-8,8m0,-4h8m-4,-4v8M159,186l8,8m0,-8l-8,8m0,-4h8m-4,-4v8M275,343l8,8m0,-8l-8,8m0,-4h8m-4,-4v8M391,107l8,8m0,-8l-8,8m0,-4h8m-4,-4v8M508,28l8,8m0,-8l-8,8m0,-4h8m-4,-4v8" style="stroke: red; fill: none;"></path>
    </g>
    <g>
     <path d="M47,332Q116,174,163,174C209,174,232,347,279,332S349,158,395,95Q484,23,512,16" style="stroke: #8b0507; stroke-width: 3; fill: none;"></path>
     <path d="M43,332a4,4,0,1,0,8,0a4,4,0,1,0,-8,0zM159,174a4,4,0,1,0,8,0a4,4,0,1,0,-8,0zM275,332a4,4,0,1,0,8,0a4,4,0,1,0,-8,0zM391,95a4,4,0,1,0,8,0a4,4,0,1,0,-8,0zM508,16a4,4,0,1,0,8,0a4,4,0,1,0,-8,0z" style="stroke: black; fill: none;"></path>
    </g>
    <g>
     <path d="M47,316Q116,158,163,158C209,158,232,332,279,316S349,142,395,79Q484,7,512,0" style="stroke: #b32509; stroke-width: 3; fill: none;"></path>
     <path d="M43,312v8h8v-8zM159,154v8h8v-8zM275,312v8h8v-8zM391,75v8h8v-8zM508,-4v8h8v-8z" style="stroke: black; fill: none;"></path>
    </g>
    <g>
     <path d="M47,300Q116,142,163,142C209,142,232,316,279,300S349,126,395,63Q484,-9,512,-16" style="stroke: #c54d0d; stroke-width: 3; fill: none;"></path>
     <path d="M43,296l8,8m0,-8l-8,8m0,-4h8m-4,-4v8M159,138l8,8m0,-8l-8,8m0,-4h8m-4,-4v8M275,296l8,8m0,-8l-8,8m0,-4h8m-4,-4v8M391,59l8,8m0,-8l-8,8m0,-4h8m-4,-4v8" style="stroke: blue; fill: none;"></path>
    </g>
    <g>
     <path d="M47,284Q116,126,163,126C209,126,232,300,279,284S349,111,395,47Q484,-24,512,-32" style="stroke: #c97d12; stroke-width: 3; fill: none;"></path>
     <path d="M43,280v8h8v-8zM159,122v8h8v-8zM275,280v8h8v-8zM391,43v8h8v-8z" style="stroke: black; fill: black;"></path>
    </g>
   </svg>
   <g>
    <g transform="translate(0,379)">
     <path d="M0,0h558M0,-7V0M12,-7V0M23,-7V0M35,-7V0M47,-14V0M58,-7V0M70,-7V0M81,-7V0M93,-7V0M105,-14V0M116,-7V0M128,-7V0M140,-7V0M151,-7V0M163,-14V0M174,-7V0M186,-7V0M198,-7V0M209,-7V0M221,-14V0M232,-7V0M244,-7V0M256,-7V0M267,-7V0M279,-14V0M291,-7V0M302,-7V0M314,-7V0M325,-7V0M337,-14V0M349,-7V0M360,-7V0M372,-7V0M384,-7V0M395,-14V0M407,-7V0M418,-7V0M430,-7V0M442,-7V0M453,-14V0M465,-7V0M477,-7V0M488,-7V0M500,-7V0M512,-14V0M523,-7V0M535,-7V0M546,-7V0M558,-7V0" style="stroke: black; stroke-width: 1;"></path>
     <g font-family="Arial" font-size="17" space="preserve" fill="black" text-anchor="middle">
      <text dy=".8em" transform="translate(47,3)">
       1
      </text>
      <text dy=".8em" transform="translate(105,3)">
       1.5
      </text>
      <text dy=".8em" transform="translate(163,3)">
       2
      </text>
      <text dy=".8em" transform="translate(221,3)">
       2.5
      </text>
      <text dy=".8em" transform="translate(279,3)">
       3
      </text>
      <text dy=".8em" transform="translate(337,3)">
       3.5
      </text>
      <text dy=".8em" transform="translate(395,3)">
       4
      </text>
      <text dy=".8em" transform="translate(453,3)">
       4.5
      </text>
      <text dy=".8em" transform="translate(512,3)">
       5
      </text>
     </g>
    </g>
    <g>
     <path d="M0,0v379M11,379H0M11,363H0M21,347H0M11,332H0M11,316H0M11,300H0M11,284H0M21,268H0M11,253H0M11,237H0M11,221H0M11,205H0M21,190H0M11,174H0M11,158H0M11,142H0M11,126H0M21,111H0M11,95H0M11,79H0M11,63H0M11,47H0M21,32H0M11,16H0M11,0H0" style="stroke: black; stroke-width: 1;"></path>
     <g font-family="Arial" font-size="17" space="preserve" fill="black" text-anchor="end">
      <text dy=".4em" transform="translate(-3,347)">
       1
      </text>
      <text dy=".4em" transform="translate(-3,268)">
       1.5
      </text>
      <text dy=".4em" transform="translate(-3,190)">
       2
      </text>
      <text dy=".4em" transform="translate(-3,111)">
       2.5
      </text>
      <text dy=".4em" transform="translate(-3,32)">
       3
      </text>
     </g>
    </g>
   </g>
  </g>
  <g transform="translate(70,2)" font-family="Arial" font-size="24" space="preserve">
   <text fill="black" text-anchor="middle" dy=".8em" transform="translate(279)">
    Graph with a red star
   </text>
  </g>
  <g transform="translate(349,57)" font-family="Arial" font-size="9" space="preserve">
   <path d="M0,0H265V100H0Z" style="fill: white; stroke: black; stroke-width: 1;"></path>
   <path d="M8,5v15h50v-15z" style="fill: #630005;"></path>
   <path d="M8,12H58" style="stroke: #630005; stroke-width: 3;"></path>
   <path d="M29,8l8,8m0,-8l-8,8m0,-4h8m-4,-4v8" style="stroke: red; fill: none;"></path>
   <text fill="black" text-anchor="start" dy=".4em" transform="translate(66,12)">
    Graph with a red star
   </text>
   <path d="M8,24v15h50v-15z" style="fill: #8b0507;"></path>
   <path d="M8,31H58" style="stroke: #8b0507; stroke-width: 3;"></path>
   <path d="M29,31a4,4,0,1,0,8,0a4,4,0,1,0,-8,0z" style="stroke: black; fill: none;"></path>
   <text fill="black" text-anchor="start" dy=".4em" transform="translate(66,31)">
    Graph with a circular marker
   </text>
   <path d="M8,43v15h50v-15z" style="fill: #b32509;"></path>
   <path d="M8,50H58" style="stroke: #b32509; stroke-width: 3;"></path>
   <path d="M29,46v8h8v-8z" style="stroke: black; fill: none;"></path>
   <text fill="black" text-anchor="start" dy=".4em" transform="translate(66,50)">
    Graph with an open square marker
   </text>
   <path d="M8,61v15h50v-15z" style="fill: #c54d0d;"></path>
   <path d="M8,69H58" style="stroke: #c54d0d; stroke-width: 3;"></path>
   <path d="M29,65l8,8m0,-8l-8,8m0,-4h8m-4,-4v8" style="stroke: blue; fill: none;"></path>
   <text fill="black" text-anchor="start" dy=".4em" transform="translate(66,68)">
    Graph with a blue star
   </text>
   <path d="M8,80v15h50v-15z" style="fill: #c97d12;"></path>
   <path d="M8,88H58" style="stroke: #c97d12; stroke-width: 3;"></path>
   <path d="M29,84v8h8v-8z" style="stroke: black; fill: black;"></path>
   <text fill="black" text-anchor="start" dy=".4em" transform="translate(66,87)">
    Graph with a full square marker
   </text>
  </g>
 </g>
</svg>