<svg xmlns="http://www.w3.org/2000/svg" width="698" height="474" viewBox="0 0 698 474" preserveAspectRatio="none">
 <path d="M0,0H698V474H0Z" style="fill: white;"></path>
 <g>
  <g transform="translate(70,47)">
   <path d="M0,0H558V379H0Z" style="fill: white; stroke: black; stroke-width: 1;"></path>
   <svg x="0" y="0" overflow="hidden" width="558" height="379" viewBox="0 0 558 379">
    <g>
     <path d="M47,347Q116,190,163,190C209,190,232,363,279,347S349,174,395,111Q484,39,512,32" style="stroke: rgb(99, 0, 5); stroke-width: 3; fill: none;"></path>
     <path d="M47,343v8m-4,-4h8m-1,-3l-6,6m6,0l-6,-6M163,186v8m-4,-4h8m-1,-3l-6,6m6,0l-6,-6M279,343v8m-4,-4h8m-1,-3l-6,6m6,0l-6,-6M395,107v8m-4,-4h8m-1,-3l-6,6m6,0l-6,-6M512,28v8m-4,-4h8m-1,-3l-6,6m6,0l-6,-6" style="stroke: red; fill: none;"></path>
    </g>
    <g>
     <path d="M47,332Q116,174,163,174C209,174,232,347,279,332S349,158,395,95Q484,23,512,16" style="stroke: rgb(139, 5, 7); stroke-width: 3; fill: none;"></path>
     <path d="M43,332a4,4,0,1,0,8,0a4,4,0,1,0,-8,0zM159,174a4,4,0,1,0,8,0a4,4,0,1,0,-8,0zM275,332a4,4,0,1,0,8,0a4,4,0,1,0,-8,0zM391,95a4,4,0,1,0,8,0a4,4,0,1,0,-8,0zM508,16a4,4,0,1,0,8,0a4,4,0,1,0,-8,0z" style="stroke: black; fill: none;"></path>
    </g>
    <g>
     <path d="M47,316Q116,158,163,158C209,158,232,332,279,316S349,142,395,79Q484,7,512,0" style="stroke: rgb(179, 37, 9); stroke-width: 3; fill: none;"></path>
     <path d="M43,312v8h8v-8zM159,154v8h8v-8zM275,312v8h8v-8zM391,75v8h8v-8zM508,-4v8h8v-8z" style="stroke: black; fill: none;"></path>
    </g>
    <g>
     <path d="M47,300Q116,142,163,142C209,142,232,316,279,300S349,126,395,63Q484,-9,512,-16" style="stroke: rgb(197, 77, 13); stroke-width: 3; fill: none;"></path>
     <path d="M47,296v8m-4,-4h8m-1,-3l-6,6m6,0l-6,-6M163,138v8m-4,-4h8m-1,-3l-6,6m6,0l-6,-6M279,296v8m-4,-4h8m-1,-3l-6,6m6,0l-6,-6M395,59v8m-4,-4h8m-1,-3l-6,6m6,0l-6,-6" style="stroke: blue; fill: none;"></path>
    </g>
    <g>
     <path d="M47,284Q116,126,163,126C209,126,232,300,279,284S349,111,395,47Q484,-24,512,-32" style="stroke: rgb(201, 125, 18); stroke-width: 3; fill: none;"></path>
     <path d="M43,280v8h8v-8zM159,122v8h8v-8zM275,280v8h8v-8zM391,43v8h8v-8z" style="stroke: black; fill: black;"></path>
    </g>
   </svg>
   <g>
    <g transform="translate(0,379)">
     <path d="M0,0h558M0,-6V0M12,-6V0M23,-6V0M35,-6V0M47,-11V0M58,-6V0M70,-6V0M81,-6V0M93,-6V0M105,-11V0M116,-6V0M128,-6V0M140,-6V0M151,-6V0M163,-11V0M174,-6V0M186,-6V0M198,-6V0M209,-6V0M221,-11V0M232,-6V0M244,-6V0M256,-6V0M267,-6V0M279,-11V0M291,-6V0M302,-6V0M314,-6V0M325,-6V0M337,-11V0M349,-6V0M360,-6V0M372,-6V0M384,-6V0M395,-11V0M407,-6V0M418,-6V0M430,-6V0M442,-6V0M453,-11V0M465,-6V0M477,-6V0M488,-6V0M500,-6V0M512,-11V0M523,-6V0M535,-6V0M546,-6V0M558,-6V0" style="stroke: black; stroke-width: 1;"></path>
     <g font-family="Arial" font-size="17" xml:space="preserve" fill="black" text-anchor="middle"><text dy=".8em" transform="translate(47,3)">1</text><text dy=".8em" transform="translate(105,3)">1.5</text><text dy=".8em" transform="translate(163,3)">2</text><text dy=".8em" transform="translate(221,3)">2.5</text><text dy=".8em" transform="translate(279,3)">3</text><text dy=".8em" transform="translate(337,3)">3.5</text><text dy=".8em" transform="translate(395,3)">4</text><text dy=".8em" transform="translate(453,3)">4.5</text><text dy=".8em" transform="translate(512,3)">5</text></g>
    </g>
    <g>
     <path d="M0,0v379M9,379H0M9,363H0M17,347H0M9,332H0M9,316H0M9,300H0M9,284H0M17,268H0M9,253H0M9,237H0M9,221H0M9,205H0M17,190H0M9,174H0M9,158H0M9,142H0M9,126H0M17,111H0M9,95H0M9,79H0M9,63H0M9,47H0M17,32H0M9,16H0M9,0H0" style="stroke: black; stroke-width: 1;"></path>
     <g font-family="Arial" font-size="17" xml:space="preserve" fill="black" text-anchor="end"><text dominant-baseline="middle" transform="translate(-3,347)">1</text><text dominant-baseline="middle" transform="translate(-3,268)">1.5</text><text dominant-baseline="middle" transform="translate(-3,190)">2</text><text dominant-baseline="middle" transform="translate(-3,111)">2.5</text><text dominant-baseline="middle" transform="translate(-3,32)">3</text></g>
    </g>
   </g>
  </g>
  <g transform="translate(229,2)" font-family="Arial" font-size="24" xml:space="preserve"><text fill="black" text-anchor="middle" dominant-baseline="middle" transform="translate(120,16)">Graph with a red star</text></g>
  <g transform="translate(349,57)" font-family="Arial" font-size="11" xml:space="preserve"><path d="M0,0H265V100H0Z" style="fill: white; stroke: black; stroke-width: 1;"></path><path d="M8,5v14h54v-14z" style="fill: rgb(99, 0, 5);"></path><path d="M8,12h54" style="stroke: rgb(99, 0, 5); stroke-width: 3;"></path><path d="M35,8v8m-4,-4h8m-1,-3l-6,6m6,0l-6,-6" style="stroke: red; fill: none;"></path><text fill="black" text-anchor="start" dominant-baseline="middle" transform="translate(70,12)">Graph with a red star</text><path d="M8,24v14h54v-14z" style="fill: rgb(139, 5, 7);"></path><path d="M8,31h54" style="stroke: rgb(139, 5, 7); stroke-width: 3;"></path><path d="M31,31a4,4,0,1,0,8,0a4,4,0,1,0,-8,0z" style="stroke: black; fill: none;"></path><text fill="black" text-anchor="start" dominant-baseline="middle" transform="translate(70,31)">Graph with a circular marker</text><path d="M8,43v14h54v-14z" style="fill: rgb(179, 37, 9);"></path><path d="M8,50h54" style="stroke: rgb(179, 37, 9); stroke-width: 3;"></path><path d="M31,46v8h8v-8z" style="stroke: black; fill: none;"></path><text fill="black" text-anchor="start" dominant-baseline="middle" transform="translate(70,50)">Graph with an open square marker</text><path d="M8,62v14h54v-14z" style="fill: rgb(197, 77, 13);"></path><path d="M8,69h54" style="stroke: rgb(197, 77, 13); stroke-width: 3;"></path><path d="M35,65v8m-4,-4h8m-1,-3l-6,6m6,0l-6,-6" style="stroke: blue; fill: none;"></path><text fill="black" text-anchor="start" dominant-baseline="middle" transform="translate(70,69)">Graph with a blue star</text><path d="M8,82v14h54v-14z" style="fill: rgb(201, 125, 18);"></path><path d="M8,89h54" style="stroke: rgb(201, 125, 18); stroke-width: 3;"></path><path d="M31,85v8h8v-8z" style="stroke: black; fill: black;"></path><text fill="black" text-anchor="start" dominant-baseline="middle" transform="translate(70,89)">Graph with a full square marker</text></g>
 </g>
</svg>