<svg viewBox="0 0 1200 800" preserveAspectRatio="none" xmlns="http://www.w3.org/2000/svg" width="1200" height="800"><title>ROOT canvas</title><rect x="0" y="0" width="1200" height="800" style="fill: white;"></rect><g><g transform="translate(120,80)"><title></title><rect x="0" y="0" width="960" height="640" style="fill: white; stroke: black; stroke-width: 1;"></rect><svg x="0" y="0" overflow="hidden" width="960" height="640" viewBox="0 0 960 640"><g objname="Graph" objtype="TGraph"><path d="M80.00,586.67c12.00,-16.00,133.33,-266.67,200.00,-266.67s140.00,286.67,200.00,266.67s176.00,-368.00,200.00,-400.00s176.92,-117.95,200.00,-133.33" style="stroke: rgb(18,114,217); stroke-width: 3; fill: none;"></path><path d="M76,583l8,8m0,-8l-8,8m0,-4h8m-4,-4v8M276,316l8,8m0,-8l-8,8m0,-4h8m-4,-4v8M476,583l8,8m0,-8l-8,8m0,-4h8m-4,-4v8M676,183l8,8m0,-8l-8,8m0,-4h8m-4,-4v8M876,49l8,8m0,-8l-8,8m0,-4h8m-4,-4v8" style="stroke: red; fill: none;"></path></g><g objname="Graph" objtype="TGraph"><path d="M80.00,560.00c12.00,-16.00,133.33,-266.67,200.00,-266.67s140.00,286.67,200.00,266.67s176.00,-368.00,200.00,-400.00s176.92,-117.95,200.00,-133.33" style="stroke: rgb(13,167,195); stroke-width: 3; fill: none;"></path><path d="M76,560a4,4 0 1,0 8,0a4,4 0 1,0 -8,0zM276,293a4,4 0 1,0 8,0a4,4 0 1,0 -8,0zM476,560a4,4 0 1,0 8,0a4,4 0 1,0 -8,0zM676,160a4,4 0 1,0 8,0a4,4 0 1,0 -8,0zM876,27a4,4 0 1,0 8,0a4,4 0 1,0 -8,0z" style="stroke: black; fill: none;"></path></g><g objname="Graph" objtype="TGraph"><path d="M80.00,533.33c12.00,-16.00,133.33,-266.67,200.00,-266.67s140.00,286.67,200.00,266.67s176.00,-368.00,200.00,-400.00s176.92,-117.95,200.00,-133.33" style="stroke: rgb(116,189,129); stroke-width: 3; fill: none;"></path><path d="M76,529v8h8v-8zM276,263v8h8v-8zM476,529v8h8v-8zM676,129v8h8v-8zM876,-4v8h8v-8z" style="stroke: black; fill: none;"></path></g><g objname="Graph" objtype="TGraph"><path d="M80.00,506.67c12.00,-16.00,133.33,-266.67,200.00,-266.67s140.00,286.67,200.00,266.67s176.00,-368.00,200.00,-400.00s176.92,-117.95,200.00,-133.33" style="stroke: rgb(226,192,75); stroke-width: 3; fill: none;"></path><path d="M76,503l8,8m0,-8l-8,8m0,-4h8m-4,-4v8M276,236l8,8m0,-8l-8,8m0,-4h8m-4,-4v8M476,503l8,8m0,-8l-8,8m0,-4h8m-4,-4v8M676,103l8,8m0,-8l-8,8m0,-4h8m-4,-4v8" style="stroke: blue; fill: none;"></path></g><g objname="Graph" objtype="TGraph"><path d="M80.00,480.00c12.00,-16.00,133.33,-266.67,200.00,-266.67s140.00,286.67,200.00,266.67s176.00,-368.00,200.00,-400.00s176.92,-117.95,200.00,-133.33" style="stroke: rgb(249,249,15); stroke-width: 3; fill: none;"></path><path d="M76,476v8h8v-8zM276,209v8h8v-8zM476,476v8h8v-8zM676,76v8h8v-8z" style="stroke: black; fill: black;"></path></g></svg><g><g transform="translate(0,640)"><path d="M0,-12v12m20,-12v12m20,-12v12m20,-12v12m20,-24v24m20,-12v12m20,-12v12m20,-12v12m20,-12v12m20,-24v24m20,-12v12m20,-12v12m20,-12v12m20,-12v12m20,-24v24m20,-12v12m20,-12v12m20,-12v12m20,-12v12m20,-24v24m20,-12v12m20,-12v12m20,-12v12m20,-12v12m20,-24v24m20,-12v12m20,-12v12m20,-12v12m20,-12v12m20,-24v24m20,-12v12m20,-12v12m20,-12v12m20,-12v12m20,-24v24m20,-12v12m20,-12v12m20,-12v12m20,-12v12m20,-24v24m20,-12v12m20,-12v12m20,-12v12m20,-12v12m20,-24v24m20,-12v12m20,-12v12m20,-12v12m20,-12v12" style="stroke: black; stroke-width: 1;"></path><g font-family="Arial" font-size="28" space="preserve"><text fill="black" x="80" y="9" dy=".7em" style="text-anchor: middle;">1</text><text fill="black" x="180" y="9" dy=".7em" style="text-anchor: middle;">1.5</text><text fill="black" x="280" y="9" dy=".7em" style="text-anchor: middle;">2</text><text fill="black" x="380" y="9" dy=".7em" style="text-anchor: middle;">2.5</text><text fill="black" x="480" y="9" dy=".7em" style="text-anchor: middle;">3</text><text fill="black" x="580" y="9" dy=".7em" style="text-anchor: middle;">3.5</text><text fill="black" x="680" y="9" dy=".7em" style="text-anchor: middle;">4</text><text fill="black" x="780" y="9" dy=".7em" style="text-anchor: middle;">4.5</text><text fill="black" x="880" y="9" dy=".7em" style="text-anchor: middle;">5</text></g></g><g><path d="M18,640h-18m18,-27h-18m36,-26h-36m18,-27h-18m18,-27h-18m18,-26h-18m18,-27h-18m36,-27h-36m18,-26h-18m18,-27h-18m18,-27h-18m18,-26h-18m36,-27h-36m18,-27h-18m18,-26h-18m18,-27h-18m18,-27h-18m36,-26h-36m18,-27h-18m18,-27h-18m18,-26h-18m18,-27h-18m36,-27h-36m18,-26h-18m18,-27h-18" style="stroke: black; stroke-width: 1;"></path><g font-family="Arial" font-size="28" space="preserve"><text fill="black" x="-9" y="587" style="text-anchor: end; dominant-baseline: middle;">1</text><text fill="black" x="-9" y="453" style="text-anchor: end; dominant-baseline: middle;">1.5</text><text fill="black" x="-9" y="320" style="text-anchor: end; dominant-baseline: middle;">2</text><text fill="black" x="-9" y="187" style="text-anchor: end; dominant-baseline: middle;">2.5</text><text fill="black" x="-9" y="53" style="text-anchor: end; dominant-baseline: middle;">3</text></g></g></g></g><g objname="title" objtype="TPaveText" transform="translate(336,8)" font-family="Arial" font-size="33" space="preserve"><path d="M0,0h528v40h-528z" style="fill: none;"></path><text text-anchor="middle" x="0" y="0" fill="black" transform="translate(264,21)" dominant-baseline="middle" opacity="1">Graph with a red star</text></g><g objname="TPave" objtype="TLegend" transform="translate(600,96)" font-family="Arial" font-size="24" space="preserve"><path d="M0,0h456v168h-456z" style="fill: white; stroke: black; stroke-width: 1;"></path><rect x="14" y="8" width="86" height="25" style="fill: rgb(18,114,217);"></rect><line x1="14" y1="21" x2="100" y2="21" style="stroke: rgb(18,114,217); stroke-width: 3;"></line><path d="M53,17l8,8m0,-8l-8,8m0,-4h8m-4,-4v8" style="stroke: red; fill: none;"></path><text text-anchor="start" x="0" y="0" fill="black" transform="translate(114,22)" dominant-baseline="middle" opacity="1">Graph with a red star</text><rect x="14" y="40" width="86" height="25" style="fill: rgb(13,167,195);"></rect><line x1="14" y1="52" x2="100" y2="52" style="stroke: rgb(13,167,195); stroke-width: 3;"></line><path d="M53,52a4,4 0 1,0 8,0a4,4 0 1,0 -8,0z" style="stroke: black; fill: none;"></path><text text-anchor="start" x="0" y="0" fill="black" transform="translate(114,54)" dominant-baseline="middle" opacity="1">Graph with a circular marker</text><rect x="14" y="71" width="86" height="25" style="fill: rgb(116,189,129);"></rect><line x1="14" y1="84" x2="100" y2="84" style="stroke: rgb(116,189,129); stroke-width: 3;"></line><path d="M53,80v8h8v-8z" style="stroke: black; fill: none;"></path><text text-anchor="start" x="0" y="0" fill="black" transform="translate(114,85)" dominant-baseline="middle" opacity="1">Graph with an open square marker</text><rect x="14" y="103" width="86" height="25" style="fill: rgb(226,192,75);"></rect><line x1="14" y1="116" x2="100" y2="116" style="stroke: rgb(226,192,75); stroke-width: 3;"></line><path d="M53,112l8,8m0,-8l-8,8m0,-4h8m-4,-4v8" style="stroke: blue; fill: none;"></path><text text-anchor="start" x="0" y="0" fill="black" transform="translate(114,117)" dominant-baseline="middle" opacity="1">Graph with a blue star</text><rect x="14" y="134" width="86" height="25" style="fill: rgb(249,249,15);"></rect><line x1="14" y1="147" x2="100" y2="147" style="stroke: rgb(249,249,15); stroke-width: 3;"></line><path d="M53,143v8h8v-8z" style="stroke: black; fill: black;"></path><text text-anchor="start" x="0" y="0" fill="black" transform="translate(114,148)" dominant-baseline="middle" opacity="1">Graph with a full square marker</text></g></g></svg>