<svg xmlns="http://www.w3.org/2000/svg" viewBox="0 0 698 474" preserveAspectRatio="none" width="698" height="474">
 <defs>
  <pattern id="pat_3013_16" patternUnits="userSpaceOnUse" width="7" height="7">
   <path d="M0,0L7,7M7,0L0,7" style="stroke: #b3b3b3; stroke-width: 1; fill: none;"></path>
  </pattern>
 </defs>
 <path d="M0,0H698V474H0Z" style="fill: white;"></path>
 <g>
  <g transform="translate(70,47)">
   <path d="M0,0H558V379H0Z" style="fill: white; stroke: black; stroke-width: 1;"></path>
   <svg x="0" y="0" overflow="hidden" width="558" height="379" viewBox="0 0 558 379">
    <g>
     <path d="M25,286l26,-30l25,-28l25,-27l26,-25l25,-24l26,-20l25,-19l25,-15l26,-13l25,-10l25,-7l26,-4l25,-1l25,3l26,5l25,9l26,12l25,14l25,18v37l-25,-12l-25,-9l-26,-7l-25,-5l-26,-2l-25,1l-25,3l-26,6l-25,8l-25,10l-26,12l-25,15l-25,17l-26,18l-25,20l-26,22l-25,23l-25,23l-26,25Z" style="fill: url(#pat_3013_16);"></path>
    </g>
    <g>
     <path d="M25,329l26,-25l25,-23l25,-23l26,-22l25,-20l26,-18l25,-17l25,-15l26,-12l25,-10l25,-8l26,-6l25,-3l25,-1l26,2l25,5l26,7l25,9l25,12" style="stroke: black; stroke-width: 1; fill: none;"></path>
    </g>
    <g>
     <path d="M25,286l26,-30l25,-28l25,-27l26,-25l25,-24l26,-20l25,-19l25,-15l26,-13l25,-10l25,-7l26,-4l25,-1l25,3l26,5l25,9l26,12l25,14l25,18" style="stroke: black; stroke-width: 1; fill: none;"></path>
    </g>
    <g>
     <path d="M25.36,308.68Q40.58,292.19,50.73,281.53C60.87,270.87,65.95,265.58,76.09,255.36S91.31,240.1,101.45,230.43S116.67,216.01,126.82,206.98S142.04,193.55,152.18,185.24S167.4,172.94,177.55,165.45S192.76,154.39,202.91,147.79S218.13,138.08,228.27,132.43S243.49,124.18,253.64,119.55S268.85,112.83,279,109.25S294.22,104.14,304.36,101.65S319.58,98.19,329.73,96.82S344.95,95.05,355.09,94.81S370.31,94.74,380.45,95.64S395.67,97.28,405.82,99.3S421.04,102.63,431.18,105.76S446.4,110.74,456.55,114.94S471.76,121.53,481.91,126.77Q502.31,138.05,507.27,141.11" style="stroke: black; stroke-width: 4; fill: none;"></path>
     <path d="M21,305v8h8v-8zM47,278v8h8v-8zM72,251v8h8v-8zM97,226v8h8v-8zM123,203v8h8v-8zM148,181v8h8v-8zM174,161v8h8v-8zM199,144v8h8v-8zM224,128v8h8v-8zM250,116v8h8v-8zM275,105v8h8v-8zM300,98v8h8v-8zM326,93v8h8v-8zM351,91v8h8v-8zM376,92v8h8v-8zM402,95v8h8v-8zM427,102v8h8v-8zM453,111v8h8v-8zM478,123v8h8v-8zM503,137v8h8v-8z" style="stroke: blue; fill: blue;"></path>
    </g>
   </svg>
   <g>
    <g transform="translate(0,379)">
     <path d="M0,0h558M0,-11V0M13,-6V0M25,-6V0M38,-6V0M51,-11V0M63,-6V0M76,-6V0M89,-6V0M101,-11V0M114,-6V0M127,-6V0M140,-6V0M152,-11V0M165,-6V0M178,-6V0M190,-6V0M203,-11V0M216,-6V0M228,-6V0M241,-6V0M254,-11V0M266,-6V0M279,-6V0M292,-6V0M304,-11V0M317,-6V0M330,-6V0M342,-6V0M355,-11V0M368,-6V0M380,-6V0M393,-6V0M406,-11V0M418,-6V0M431,-6V0M444,-6V0M457,-11V0M469,-6V0M482,-6V0M495,-6V0M507,-11V0M520,-6V0M533,-6V0M545,-6V0M558,-11V0" style="stroke: black; stroke-width: 1;"></path>
     <g font-family="Arial" font-size="17" space="preserve" fill="black" text-anchor="middle">
      <text dy=".8em" transform="translate(0,3)">
       0
      </text>
      <text dy=".8em" transform="translate(51,3)">
       0.2
      </text>
      <text dy=".8em" transform="translate(101,3)">
       0.4
      </text>
      <text dy=".8em" transform="translate(152,3)">
       0.6
      </text>
      <text dy=".8em" transform="translate(203,3)">
       0.8
      </text>
      <text dy=".8em" transform="translate(254,3)">
       1
      </text>
      <text dy=".8em" transform="translate(304,3)">
       1.2
      </text>
      <text dy=".8em" transform="translate(355,3)">
       1.4
      </text>
      <text dy=".8em" transform="translate(406,3)">
       1.6
      </text>
      <text dy=".8em" transform="translate(457,3)">
       1.8
      </text>
      <text dy=".8em" transform="translate(507,3)">
       2
      </text>
      <text dy=".8em" transform="translate(558,3)">
       2.2
      </text>
     </g>
    </g>
    <g>
     <path d="M0,0v379M17,379H0M9,363H0M9,347H0M9,332H0M17,316H0M9,300H0M9,284H0M9,268H0M17,253H0M9,237H0M9,221H0M9,205H0M17,190H0M9,174H0M9,158H0M9,142H0M17,126H0M9,111H0M9,95H0M9,79H0M17,63H0M9,47H0M9,32H0M9,16H0M17,0H0" style="stroke: black; stroke-width: 1;"></path>
     <g font-family="Arial" font-size="17" space="preserve" fill="black" text-anchor="end">
      <text dy=".4em" transform="translate(-3,379)">
       0
      </text>
      <text dy=".4em" transform="translate(-3,316)">
       2
      </text>
      <text dy=".4em" transform="translate(-3,253)">
       4
      </text>
      <text dy=".4em" transform="translate(-3,190)">
       6
      </text>
      <text dy=".4em" transform="translate(-3,126)">
       8
      </text>
      <text dy=".4em" transform="translate(-3,63)">
       10
      </text>
      <text dy=".4em" transform="translate(-3)">
       12
      </text>
     </g>
    </g>
    <path d="M0,0v379M51,0v379M101,0v379M152,0v379M203,0v379M254,0v379M304,0v379M355,0v379M406,0v379M457,0v379M507,0v379M558,0v379" style="stroke: black; stroke-width: 1; stroke-dasharray: 1,2;"></path>
    <path d="M0,379h558M0,316h558M0,253h558M0,190h558M0,126h558M0,63h558M0,0h558" style="stroke: black; stroke-width: 1; stroke-dasharray: 1,2;"></path>
   </g>
  </g>
 </g>
</svg>