<svg viewBox="0 0 1200 800" preserveAspectRatio="none" xmlns="http://www.w3.org/2000/svg" width="1200" height="800"><title>ROOT canvas</title><rect x="0" y="0" width="1200" height="800" style="fill: white;"></rect><g><g transform="translate(120,80)"><title></title><rect x="0" y="0" width="960" height="640" style="fill: white; stroke: black; stroke-width: 1;"></rect><svg x="0" y="0" overflow="hidden" width="960" height="640" viewBox="0 0 960 640"><g objname="Graph" objtype="TGraph"><path d="M60,631l59,-9l60,-24l60,-45l60,-74l59,-118l60,-143l60,-112l60,-49l59,44l60,102l60,140l60,121l59,72l60,46" style="stroke: blue; stroke-width: 2; fill: none;"></path><path d="M54,631a6,6,0,1,0,12,0a6,6,0,1,0,-12,0zM113,622a6,6,0,1,0,12,0a6,6,0,1,0,-12,0zM173,598a6,6,0,1,0,12,0a6,6,0,1,0,-12,0zM233,553a6,6,0,1,0,12,0a6,6,0,1,0,-12,0zM293,479a6,6,0,1,0,12,0a6,6,0,1,0,-12,0zM352,361a6,6,0,1,0,12,0a6,6,0,1,0,-12,0zM412,218a6,6,0,1,0,12,0a6,6,0,1,0,-12,0zM472,106a6,6,0,1,0,12,0a6,6,0,1,0,-12,0zM532,57a6,6,0,1,0,12,0a6,6,0,1,0,-12,0zM591,101a6,6,0,1,0,12,0a6,6,0,1,0,-12,0zM651,203a6,6,0,1,0,12,0a6,6,0,1,0,-12,0zM711,343a6,6,0,1,0,12,0a6,6,0,1,0,-12,0zM771,464a6,6,0,1,0,12,0a6,6,0,1,0,-12,0zM830,536a6,6,0,1,0,12,0a6,6,0,1,0,-12,0zM890,582a6,6,0,1,0,12,0a6,6,0,1,0,-12,0z" style="stroke: red; fill: red;"></path></g></svg><g><g transform="translate(0,640)"><path d="M0,-24v24m30,-12v12m30,-12v12m30,-12v12m29,-24v24m30,-12v12m30,-12v12m30,-12v12m30,-24v24m30,-12v12m30,-12v12m30,-12v12m29,-24v24m30,-12v12m30,-12v12m30,-12v12m30,-24v24m30,-12v12m30,-12v12m29,-12v12m30,-24v24m30,-12v12m30,-12v12m30,-12v12m30,-24v24m30,-12v12m30,-12v12m29,-12v12m30,-24v24m30,-12v12m30,-12v12m30,-12v12m30,-24v24" style="stroke: black; stroke-width: 1;"></path><g font-family="Arial" font-size="28" space="preserve"><text fill="black" text-anchor="middle" dy=".8em" transform="translate(0,6)">0</text><text fill="black" text-anchor="middle" dy=".8em" transform="translate(119,6)">2</text><text fill="black" text-anchor="middle" dy=".8em" transform="translate(239,6)">4</text><text fill="black" text-anchor="middle" dy=".8em" transform="translate(358,6)">6</text><text fill="black" text-anchor="middle" dy=".8em" transform="translate(478,6)">8</text><text fill="black" text-anchor="middle" dy=".8em" transform="translate(597,6)">10</text><text fill="black" text-anchor="middle" dy=".8em" transform="translate(717,6)">12</text><text fill="black" text-anchor="middle" dy=".8em" transform="translate(836,6)">14</text><text fill="black" text-anchor="middle" dy=".8em" transform="translate(956,6)">16</text></g><g font-family="Arial" font-size="28" space="preserve" transform="translate(480,54)"><text fill="black" text-anchor="middle" dy=".4em">Charge q</text></g></g><g><path d="M36,640h-36m18,-19h-18m18,-18h-18m18,-19h-18m36,-19h-36m18,-19h-18m18,-18h-18m18,-19h-18m36,-19h-36m18,-19h-18m18,-18h-18m18,-19h-18m36,-19h-36m18,-19h-18m18,-18h-18m18,-19h-18m36,-19h-36m18,-18h-18m18,-19h-18m18,-19h-18m36,-19h-36m18,-18h-18m18,-19h-18m18,-19h-18m36,-19h-36m18,-18h-18m18,-19h-18m18,-19h-18m36,-18h-36m18,-19h-18m18,-19h-18m18,-19h-18m36,-18h-36m18,-19h-18m18,-19h-18" style="stroke: black; stroke-width: 1;"></path><g font-family="Arial" font-size="28" space="preserve"><text fill="black" text-anchor="end" dy=".4em" transform="translate(-4,640)">0</text><text fill="black" text-anchor="end" dy=".4em" transform="translate(-4,565)">0.02</text><text fill="black" text-anchor="end" dy=".4em" transform="translate(-4,490)">0.04</text><text fill="black" text-anchor="end" dy=".4em" transform="translate(-4,415)">0.06</text><text fill="black" text-anchor="end" dy=".4em" transform="translate(-4,340)">0.08</text><text fill="black" text-anchor="end" dy=".4em" transform="translate(-4,265)">0.10</text><text fill="black" text-anchor="end" dy=".4em" transform="translate(-4,190)">0.12</text><text fill="black" text-anchor="end" dy=".4em" transform="translate(-4,116)">0.14</text><text fill="black" text-anchor="end" dy=".4em" transform="translate(-4,41)">0.16</text></g><g font-family="Arial" font-size="28" space="preserve" transform="translate(-81,320)"><text fill="black" text-anchor="middle" dy=".4em" transform=" rotate(270)">Fractions</text></g></g></g></g><g objname="TPave" objtype="TLegend" transform="translate(120,80)" font-family="Arial" font-size="20" space="preserve"><path d="M0,0h360v160h-360z" style="fill: white; stroke: black; stroke-width: 1;"></path><line x1="11" y1="30" x2="79" y2="30" style="stroke: blue; stroke-width: 2;"></line><path d="M39,30a6,6,0,1,0,12,0a6,6,0,1,0,-12,0z" style="stroke: red; fill: red;"></path><text fill="black" text-anchor="start" transform="translate(90,40)"><tspan dy="-.60em">Equilibrium charge</tspan><tspan dy="1.20em" dx="-9.67em">state distribution</tspan></text><text fill="black" text-anchor="start" dy=".4em" transform="translate(90,80)">&lt;q&gt; = 9.031923</text><text fill="black" text-anchor="start" transform="translate(90,143)">  σ   = 5.779455</text></g><g objname="title" objtype="TPaveText" transform="translate(180,4)" font-family="Arial" font-size="19" space="preserve"><path d="M0,0h840v59h-840z" style="fill: none;"></path><text fill="black" text-anchor="start" transform="translate(20,41)"><tspan dy="-.10em">U projectile at 1.4 MeV/u on </tspan><tspan font-size="60%" dy="-.60em">40</tspan><tspan dy=".36em">Ar target with 1 mbar pressure. (equilibrium)</tspan></text></g></g></svg>