<svg xmlns="http://www.w3.org/2000/svg" viewBox="0 0 1200 800" preserveAspectRatio="none" width="1200" height="800">
 <path d="M0,0H1200V800H0Z" style="fill: white;"></path>
 <g>
  <g transform="translate(120,80)">
   <path d="M0,0H960V640H0Z" style="fill: white; stroke: black; stroke-width: 1;"></path>
   <svg x="0" y="0" overflow="hidden" width="960" height="640" viewBox="0 0 960 640">
    <g>
     <path d="M0,587l46,-65l46,-62l46,-60l46,-57l46,-53l46,-49l46,-44l45,-38l46,-34l46,-27l46,-21l46,-14l46,-8l46,-2l46,6l46,11l46,19l46,24l46,31" style="stroke: red; stroke-width: 4; fill: none;"></path>
     <path d="M-6,581v12h12v-12zM40,516v12h12v-12zM86,454v12h12v-12zM132,394v12h12v-12zM178,337v12h12v-12zM224,284v12h12v-12zM270,235v12h12v-12zM316,191v12h12v-12zM361,153v12h12v-12zM407,119v12h12v-12zM453,92v12h12v-12zM499,71v12h12v-12zM545,57v12h12v-12zM591,49v12h12v-12zM637,47v12h12v-12zM683,53v12h12v-12zM729,64v12h12v-12zM775,83v12h12v-12zM821,107v12h12v-12zM867,138v12h12v-12z" style="stroke: blue; fill: blue;"></path>
    </g>
   </svg>
   <g>
    <g transform="translate(0,640)">
     <path d="M0,0h960M0,-640h960M0,-19V0M23,-10V0M46,-10V0M69,-10V0M92,-19V0M115,-10V0M138,-10V0M161,-10V0M184,-19V0M207,-10V0M230,-10V0M253,-10V0M276,-19V0M299,-10V0M322,-10V0M344,-10V0M367,-19V0M390,-10V0M413,-10V0M436,-10V0M459,-19V0M482,-10V0M505,-10V0M528,-10V0M551,-19V0M574,-10V0M597,-10V0M620,-10V0M643,-19V0M666,-10V0M689,-10V0M712,-10V0M735,-19V0M758,-10V0M781,-10V0M804,-10V0M827,-19V0M850,-10V0M873,-10V0M896,-10V0M919,-19V0M942,-10V0M0,-621V-640M23,-630V-640M46,-630V-640M69,-630V-640M92,-621V-640M115,-630V-640M138,-630V-640M161,-630V-640M184,-621V-640M207,-630V-640M230,-630V-640M253,-630V-640M276,-621V-640M299,-630V-640M322,-630V-640M344,-630V-640M367,-621V-640M390,-630V-640M413,-630V-640M436,-630V-640M459,-621V-640M482,-630V-640M505,-630V-640M528,-630V-640M551,-621V-640M574,-630V-640M597,-630V-640M620,-630V-640M643,-621V-640M666,-630V-640M689,-630V-640M712,-630V-640M735,-621V-640M758,-630V-640M781,-630V-640M804,-630V-640M827,-621V-640M850,-630V-640M873,-630V-640M896,-630V-640M919,-621V-640M942,-630V-640" style="stroke: black; stroke-width: 1;"></path>
     <g font-family="Arial" font-size="28" xml:space="preserve" fill="black" text-anchor="middle"><text dy=".8em" transform="translate(0,5)">0</text><text dy=".8em" transform="translate(92,5)">0.2</text><text dy=".8em" transform="translate(184,5)">0.4</text><text dy=".8em" transform="translate(276,5)">0.6</text><text dy=".8em" transform="translate(367,5)">0.8</text><text dy=".8em" transform="translate(459,5)">1</text><text dy=".8em" transform="translate(551,5)">1.2</text><text dy=".8em" transform="translate(643,5)">1.4</text><text dy=".8em" transform="translate(735,5)">1.6</text><text dy=".8em" transform="translate(827,5)">1.8</text><text dy=".8em" transform="translate(919,5)">2</text></g>
    </g>
    <g>
     <path d="M0,0v640M960,0v640M15,639H0M15,626H0M15,612H0M15,599H0M29,586H0M15,572H0M15,559H0M15,546H0M15,533H0M29,519H0M15,506H0M15,493H0M15,479H0M15,466H0M29,453H0M15,439H0M15,426H0M15,413H0M15,399H0M29,386H0M15,373H0M15,359H0M15,346H0M15,333H0M29,319H0M15,306H0M15,293H0M15,279H0M15,266H0M29,253H0M15,240H0M15,226H0M15,213H0M15,200H0M29,186H0M15,173H0M15,160H0M15,146H0M15,133H0M29,120H0M15,106H0M15,93H0M15,80H0M15,66H0M29,53H0M15,40H0M15,26H0M15,13H0M945,639H960M945,626H960M945,612H960M945,599H960M931,586H960M945,572H960M945,559H960M945,546H960M945,533H960M931,519H960M945,506H960M945,493H960M945,479H960M945,466H960M931,453H960M945,439H960M945,426H960M945,413H960M945,399H960M931,386H960M945,373H960M945,359H960M945,346H960M945,333H960M931,319H960M945,306H960M945,293H960M945,279H960M945,266H960M931,253H960M945,240H960M945,226H960M945,213H960M945,200H960M931,186H960M945,173H960M945,160H960M945,146H960M945,133H960M931,120H960M945,106H960M945,93H960M945,80H960M945,66H960M931,53H960M945,40H960M945,26H960M945,13H960" style="stroke: black; stroke-width: 1;"></path>
     <g font-family="Arial" font-size="28" xml:space="preserve" fill="black" text-anchor="end"><text dominant-baseline="middle" transform="translate(-6,586)">2</text><text dominant-baseline="middle" transform="translate(-6,519)">3</text><text dominant-baseline="middle" transform="translate(-6,453)">4</text><text dominant-baseline="middle" transform="translate(-6,386)">5</text><text dominant-baseline="middle" transform="translate(-6,319)">6</text><text dominant-baseline="middle" transform="translate(-6,253)">7</text><text dominant-baseline="middle" transform="translate(-6,186)">8</text><text dominant-baseline="middle" transform="translate(-6,120)">9</text><text dominant-baseline="middle" transform="translate(-6,53)">10</text></g>
    </g>
   </g>
  </g>
  <g transform="translate(120,4)" font-family="Arial" font-size="40" xml:space="preserve"><text fill="black" text-anchor="middle" dy=".8em" transform="translate(480)">Option ACP example</text></g>
 </g>
</svg>