<svg viewBox="0 0 1200 800" preserveAspectRatio="none" xmlns="http://www.w3.org/2000/svg" width="1200" height="800"><title>ROOT canvas</title><rect x="0" y="0" width="1200" height="800" style="fill: white;"></rect><g></g><g><g pad="pad1" transform="translate(0,0)"><rect x="0" y="0" width="1200" height="800" style="fill: white;"></rect><g x="120" y="80" width="960" height="640" transform="translate(120,80)"><title></title><rect x="0" y="0" width="960" height="640" style="fill: white; stroke: black; stroke-width: 1;"></rect><g></g><svg x="0" y="0" overflow="hidden" width="960" height="640" viewBox="0 0 960 640"><g objname="Graph" objtype="TGraph"><path d="M80,320l40,82l40,75l40,59l40,38l40,13l40,-13l40,-38l40,-59l40,-75l40,-82l40,-82l40,-75l40,-59l40,-38l40,-13l40,13l40,38l40,59l40,75l40,82" style="stroke: black; stroke-width: 1; fill: none;"></path><path d="M80,320h1m39,82h1m39,75h1m39,59h1m39,38h1m39,13h1m39,-13h1m39,-38h1m39,-59h1m39,-75h1m39,-82h1m39,-82h1m39,-75h1m39,-59h1M640,66h1M680,53h1m39,13h1m39,38h1m39,59h1m39,75h1m39,82h1" style="stroke: black; fill: none;"></path></g></svg><g><g transform="translate(0,640)"><path d="M22,-10v10m25,-10v10m26,-10v10m25,-19v19m25,-10v10m26,-10v10m25,-10v10m26,-10v10m25,-19v19m26,-10v10m25,-10v10m26,-10v10m25,-10v10m26,-19v19m25,-10v10m26,-10v10m25,-10v10m26,-10v10m25,-19v19m25,-10v10m26,-10v10m25,-10v10m26,-10v10m25,-19v19m26,-10v10m25,-10v10m26,-10v10m25,-10v10m26,-19v19m25,-10v10m26,-10v10m25,-10v10m26,-10v10m25,-19v19m25,-10v10m26,-10v10m25,-10v10" style="stroke: black; stroke-width: 1;"></path><g font-family="Arial" font-size="22" space="preserve"><text fill="black" x="98" y="8" dy=".7em" style="text-anchor: middle;">-3</text><text fill="black" x="225" y="8" dy=".7em" style="text-anchor: middle;">-2</text><text fill="black" x="353" y="8" dy=".7em" style="text-anchor: middle;">-1</text><text fill="black" x="480" y="8" dy=".7em" style="text-anchor: middle;">0</text><text fill="black" x="607" y="8" dy=".7em" style="text-anchor: middle;">1</text><text fill="black" x="735" y="8" dy=".7em" style="text-anchor: middle;">2</text><text fill="black" x="862" y="8" dy=".7em" style="text-anchor: middle;">3</text></g></g><g><path d="M15,613h-15m29,-26h-29m15,-27h-15m15,-27h-15m15,-26h-15m15,-27h-15m29,-27h-29m15,-26h-15m15,-27h-15m15,-27h-15m15,-26h-15m29,-27h-29m15,-27h-15m15,-26h-15m15,-27h-15m15,-27h-15m29,-26h-29m15,-27h-15m15,-27h-15m15,-26h-15m15,-27h-15m29,-27h-29m15,-26h-15" style="stroke: black; stroke-width: 1;"></path><g font-family="Arial" font-size="22" space="preserve"><text fill="black" x="-8" y="587" style="text-anchor: end; dominant-baseline: middle;">-1</text><text fill="black" x="-8" y="453" style="text-anchor: end; dominant-baseline: middle;">-0.5</text><text fill="black" x="-8" y="320" style="text-anchor: end; dominant-baseline: middle;">0</text><text fill="black" x="-8" y="187" style="text-anchor: end; dominant-baseline: middle;">0.5</text><text fill="black" x="-8" y="53" style="text-anchor: end; dominant-baseline: middle;">1</text></g></g></g><g></g></g><g></g><g><g objname="title" objtype="TPaveText" x="336" y="8" width="528" height="40" transform="translate(336,8)" font-family="Arial" font-size="33" space="preserve"><rect x="0" y="0" width="528" height="40" style="fill: none;"></rect><text text-anchor="middle" x="0" y="0" fill="black" transform="translate(264.0,21.0)" dominant-baseline="middle" opacity="1">Graph</text></g></g><g></g><g transform="translate(1185,785)"></g></g><g pad="pad2" transform="translate(0,0)"><rect x="0" y="0" width="1200" height="800" style="fill: white; opacity: 0;"></rect><g x="120" y="80" width="960" height="640" transform="translate(120,80)"><title></title><rect x="0" y="0" width="960" height="640" style="fill: none; stroke: black; stroke-width: 1;"></rect><g></g><svg x="0" y="0" overflow="hidden" width="960" height="640" viewBox="0 0 960 640"><g objname="Graph" objtype="TGraph"><path d="M80,587l40,-13l40,-38l40,-59l40,-75l40,-82l40,-82l40,-75l40,-59l40,-38l40,-13l40,13l40,38l40,59l40,75l40,82l40,82l40,75l40,59l40,38l40,13" style="stroke: red; stroke-width: 1; fill: none;"></path></g></svg><g><g><path d="M22,0v10m25,-10v10m26,-10v10m25,-10v19m25,-19v10m26,-10v10m25,-10v10m26,-10v10m25,-10v19m26,-19v10m25,-10v10m26,-10v10m25,-10v10m26,-10v19m25,-19v10m26,-10v10m25,-10v10m26,-10v10m25,-10v19m25,-19v10m26,-10v10m25,-10v10m26,-10v10m25,-10v19m26,-19v10m25,-10v10m26,-10v10m25,-10v10m26,-10v19m25,-19v10m26,-10v10m25,-10v10m26,-10v10m25,-10v19m25,-19v10m26,-10v10m25,-10v10" style="stroke: black; stroke-width: 1;"></path><g font-family="Arial" font-size="22" space="preserve"><text fill="black" x="98" y="-4" dy="-.3em" style="text-anchor: middle;">-3</text><text fill="black" x="225" y="-4" dy="-.3em" style="text-anchor: middle;">-2</text><text fill="black" x="353" y="-4" dy="-.3em" style="text-anchor: middle;">-1</text><text fill="black" x="480" y="-4" dy="-.3em" style="text-anchor: middle;">0</text><text fill="black" x="607" y="-4" dy="-.3em" style="text-anchor: middle;">1</text><text fill="black" x="735" y="-4" dy="-.3em" style="text-anchor: middle;">2</text><text fill="black" x="862" y="-4" dy="-.3em" style="text-anchor: middle;">3</text></g></g><g transform="translate(960,0)"><path d="M0,613h-15m15,-26h-29m29,-27h-15m15,-27h-15m15,-26h-15m15,-27h-15m15,-27h-29m29,-26h-15m15,-27h-15m15,-27h-15m15,-26h-15m15,-27h-29m29,-27h-15m15,-26h-15m15,-27h-15m15,-27h-15m15,-26h-29m29,-27h-15m15,-27h-15m15,-26h-15m15,-27h-15m15,-27h-29m29,-26h-15" style="stroke: black; stroke-width: 1;"></path><g font-family="Arial" font-size="22" space="preserve"><text fill="black" x="8" y="587" style="text-anchor: start; dominant-baseline: middle;">-0.10</text><text fill="black" x="8" y="453" style="text-anchor: start; dominant-baseline: middle;">-0.05</text><text fill="black" x="8" y="320" style="text-anchor: start; dominant-baseline: middle;">0</text><text fill="black" x="8" y="187" style="text-anchor: start; dominant-baseline: middle;">0.05</text><text fill="black" x="8" y="53" style="text-anchor: start; dominant-baseline: middle;">0.10</text></g></g></g><g></g></g><g></g><g><g objname="title" objtype="TPaveText" x="336" y="8" width="528" height="40" transform="translate(336,8)" font-family="Arial" font-size="33" space="preserve"><rect x="0" y="0" width="528" height="40" style="fill: none;"></rect><text text-anchor="middle" x="0" y="0" fill="black" transform="translate(264.0,21.0)" dominant-baseline="middle" opacity="1">Graph</text></g></g><g></g><g transform="translate(1185,785)"></g></g></g><g></g><g></g><g></g><g transform="translate(2,780)"></g></svg>