<svg xmlns="http://www.w3.org/2000/svg" viewBox="0 0 698 474" preserveAspectRatio="none" width="698" height="474">
 <path d="M0,0H698V474H0Z" style="fill: white;"></path>
 <g>
  <svg viewBox="0 0 698 474" preserveAspectRatio="none" x="0" y="0" width="698" height="474">
   <path d="M0,0H698V474H0Z" style="fill: white;"></path>
   <g>
    <g transform="translate(70,47)">
     <path d="M0,0H558V379H0Z" style="fill: white; stroke: black; stroke-width: 1;"></path>
     <svg x="0" y="0" overflow="hidden" width="558" height="379" viewBox="0 0 558 379">
      <g>
       <path d="M47,190l23,48l23,44l23,35l24,23l23,7l23,-7l23,-23l24,-35l23,-44l23,-49l23,-48l23,-44l24,-35l23,-23l23,-7l24,7l23,23l23,35l23,44l24,48" style="stroke: black; stroke-width: 1; fill: none;"></path>
       <path d="M47,190h1m22,48h1m22,44h1m22,35h1m23,23h1m22,7h1m22,-7h1m22,-23h1m23,-35h1m22,-44h1m22,-49h1m22,-48h1M325,97h1M349,62h1M372,39h1m22,-7h1m23,7h1m22,23h1m22,35h1m22,44h1m23,48h1" style="stroke: black; fill: none;"></path>
      </g>
     </svg>
     <g>
      <g transform="translate(0,379)">
       <path d="M0,0h558M13,-7V0M27,-7V0M42,-7V0M57,-14V0M72,-7V0M87,-7V0M101,-7V0M116,-7V0M131,-14V0M146,-7V0M161,-7V0M175,-7V0M190,-7V0M205,-14V0M220,-7V0M235,-7V0M249,-7V0M264,-7V0M279,-14V0M294,-7V0M309,-7V0M323,-7V0M338,-7V0M353,-14V0M368,-7V0M383,-7V0M397,-7V0M412,-7V0M427,-14V0M442,-7V0M457,-7V0M471,-7V0M486,-7V0M501,-14V0M516,-7V0M531,-7V0M545,-7V0" style="stroke: black; stroke-width: 1;"></path>
       <g font-family="Arial" font-size="17" space="preserve" fill="black" text-anchor="middle">
        <text dy=".8em" transform="translate(57,3)">
         -3
        </text>
        <text dy=".8em" transform="translate(131,3)">
         -2
        </text>
        <text dy=".8em" transform="translate(205,3)">
         -1
        </text>
        <text dy=".8em" transform="translate(279,3)">
         0
        </text>
        <text dy=".8em" transform="translate(353,3)">
         1
        </text>
        <text dy=".8em" transform="translate(427,3)">
         2
        </text>
        <text dy=".8em" transform="translate(501,3)">
         3
        </text>
       </g>
      </g>
      <g>
       <path d="M0,0v379M11,363H0M21,347H0M11,332H0M11,316H0M11,300H0M11,284H0M21,268H0M11,253H0M11,237H0M11,221H0M11,205H0M21,190H0M11,174H0M11,158H0M11,142H0M11,126H0M21,111H0M11,95H0M11,79H0M11,63H0M11,47H0M21,32H0M11,16H0" style="stroke: black; stroke-width: 1;"></path>
       <g font-family="Arial" font-size="17" space="preserve" fill="black" text-anchor="end">
        <text dy=".4em" transform="translate(-3,347)">
         -1
        </text>
        <text dy=".4em" transform="translate(-3,268)">
         -0.5
        </text>
        <text dy=".4em" transform="translate(-3,190)">
         0
        </text>
        <text dy=".4em" transform="translate(-3,111)">
         0.5
        </text>
        <text dy=".4em" transform="translate(-3,32)">
         1
        </text>
       </g>
      </g>
     </g>
    </g>
    <g transform="translate(70,2)" font-family="Arial" font-size="24" space="preserve">
     <text fill="black" text-anchor="middle" dy=".8em" transform="translate(279)">
      Graph
     </text>
    </g>
   </g>
  </svg>
  <svg viewBox="0 0 698 474" preserveAspectRatio="none" x="0" y="0" width="698" height="474">
   <path d="M0,0H698V474H0Z" style="fill: white; opacity: 0;"></path>
   <g>
    <g transform="translate(70,47)">
     <path d="M0,0H558V379H0Z" style="fill: white; opacity: 0; stroke: black; stroke-width: 1;"></path>
     <svg x="0" y="0" overflow="hidden" width="558" height="379" viewBox="0 0 558 379">
      <g>
       <path d="M47,347l23,-7l23,-23l23,-35l24,-44l23,-49l23,-48l23,-44l24,-35l23,-23l23,-7l23,7l23,23l24,35l23,44l23,48l24,49l23,44l23,35l23,23l24,7" style="stroke: red; stroke-width: 1; fill: none;"></path>
      </g>
     </svg>
     <g>
      <g>
       <path d="M0,0h558M13,0V7M27,0V7M42,0V7M57,0V14M72,0V7M87,0V7M101,0V7M116,0V7M131,0V14M146,0V7M161,0V7M175,0V7M190,0V7M205,0V14M220,0V7M235,0V7M249,0V7M264,0V7M279,0V14M294,0V7M309,0V7M323,0V7M338,0V7M353,0V14M368,0V7M383,0V7M397,0V7M412,0V7M427,0V14M442,0V7M457,0V7M471,0V7M486,0V7M501,0V14M516,0V7M531,0V7M545,0V7" style="stroke: black; stroke-width: 1;"></path>
       <g font-family="Arial" font-size="17" space="preserve" fill="black" text-anchor="middle">
        <text transform="translate(57,-5)">
         -3
        </text>
        <text transform="translate(131,-5)">
         -2
        </text>
        <text transform="translate(205,-5)">
         -1
        </text>
        <text transform="translate(279,-5)">
         0
        </text>
        <text transform="translate(353,-5)">
         1
        </text>
        <text transform="translate(427,-5)">
         2
        </text>
        <text transform="translate(501,-5)">
         3
        </text>
       </g>
      </g>
      <g transform="translate(558)">
       <path d="M0,0v379M0,363H-11M0,347H-21M0,332H-11M0,316H-11M0,300H-11M0,284H-11M0,268H-21M0,253H-11M0,237H-11M0,221H-11M0,205H-11M0,190H-21M0,174H-11M0,158H-11M0,142H-11M0,126H-11M0,111H-21M0,95H-11M0,79H-11M0,63H-11M0,47H-11M0,32H-21M0,16H-11" style="stroke: black; stroke-width: 1;"></path>
       <g font-family="Arial" font-size="17" space="preserve" fill="black" text-anchor="start">
        <text dy=".4em" transform="translate(3,347)">
         -0.1
        </text>
        <text dy=".4em" transform="translate(3,268)">
         -0.05
        </text>
        <text dy=".4em" transform="translate(3,190)">
         0
        </text>
        <text dy=".4em" transform="translate(3,111)">
         0.05
        </text>
        <text dy=".4em" transform="translate(3,32)">
         0.1
        </text>
       </g>
      </g>
     </g>
    </g>
    <g transform="translate(70,2)" font-family="Arial" font-size="24" space="preserve">
     <text fill="black" text-anchor="middle" dy=".8em" transform="translate(279)">
      Graph
     </text>
    </g>
   </g>
  </svg>
 </g>
</svg>