<svg xmlns="http://www.w3.org/2000/svg" viewBox="0 0 1200 800" preserveAspectRatio="none" width="1200" height="800">
 <title>
  ROOT canvas
 </title>
 <rect x="0" y="0" width="1200" height="800" style="fill: none;"></rect>
 <g>
  <g transform="translate(120,80)">
   <title></title>
   <rect x="0" y="0" width="960" height="640" style="fill: white; stroke: black; stroke-width: 1;"></rect>
   <svg x="0" y="0" overflow="hidden" width="960" height="640" viewBox="0 0 960 640">
    <g>
     <path d="M944,299l-32,-3l-32,-2h-32l-32,2l-32,3l-32,6l-14,4l-18,6l-27,16l-5,3l-16,18l-14,21l-2,4l-7,18l-6,21l-5,21l-3,22l-3,21l-2,21l-2,22l-1,21l-1,21l-1,22v21v21" style="fill: none; stroke: red; stroke-width: 2;"></path>
     <path d="M16,224l32,-1h32h32l32,-1l32,-1l32,-1l32,-1l32,-2l32,-3l32,-3l32,-4l27,-4l5,-2l32,-9l26,-11l6,-3l23,-18l9,-12l6,-9l10,-22l5,-21l2,-21v-22l-3,-21l-4,-21" style="fill: none; stroke: red; stroke-width: 2;"></path>
     <path d="M944,390l-32,-7l-32,-4h-32l-32,4l-32,8l-8,4l-24,12l-12,9l-20,19l-2,2l-14,22l-10,21l-6,14l-2,7l-6,22l-4,21l-3,21l-2,22l-2,21l-1,21" style="fill: none; stroke: red; stroke-width: 2;"></path>
     <path d="M16,194h32l32,-1l32,-2l32,-2l32,-2l32,-4l11,-2l21,-3l32,-7l32,-10l4,-1l28,-13l14,-8l18,-17l5,-5l13,-21l5,-21v-22l-6,-21l-11,-21" style="fill: none; stroke: red; stroke-width: 2;"></path>
     <path d="M944,488l-17,-8l-15,-7l-32,-7h-32l-32,7l-14,7l-18,10l-12,11l-18,22l-2,2l-9,19l-8,21l-5,22l-4,21l-2,21" style="fill: none; stroke: red; stroke-width: 2;"></path>
     <path d="M16,157l32,-1l32,-2l32,-4l32,-5l28,-6l4,-2l32,-12l17,-8l15,-12l10,-9l11,-21v-22l-11,-21l-10,-10l-13,-11" style="fill: none; stroke: red; stroke-width: 2;"></path>
     <path d="M16,248h32h32l32,1h32l32,1h32l32,1l32,1l32,2l32,2l32,2l32,4l32,5l32,7l32,11l7,3l25,17l5,4l17,22l10,21l7,21l6,22l3,21l3,21l2,22l2,21l1,21l2,22v21l1,21v22l1,21v21" style="fill: none; stroke: red; stroke-width: 2;"></path>
     <path d="M944,173l-32,4l-32,2h-32l-32,-2l-32,-5l-32,-9l-6,-3l-26,-17l-4,-4l-14,-22l-8,-21l-3,-21v-22l3,-21l7,-21" style="fill: none; stroke: red; stroke-width: 2;"></path>
     <path d="M16,270l32,1h32l32,1l32,1l32,2l32,2l32,3l32,3l32,5h2l30,5l32,7l29,9l3,1l32,14l13,7l19,13l10,8l20,21l2,2l13,20l11,21l8,20v1l7,22l5,21l4,21l4,22l2,21l2,21l1,22l1,21v21" style="fill: none; stroke: red; stroke-width: 2;"></path>
     <path d="M16,291h32l32,1l32,2l32,2l32,2l32,4l32,4l20,3l12,2l32,7l32,9l10,4l22,8l28,13l4,2l29,19l3,3l20,19l12,14l5,7l14,21l10,22l3,8l5,13l6,21l6,22l3,21l3,21l3,22l1,21l1,21" style="fill: none; stroke: red; stroke-width: 2;"></path>
     <path d="M16,310l32,1l32,1l32,2l32,3l32,3l32,5l31,6h1l32,7l32,9l13,5l19,7l29,14l3,2l29,20l3,2l21,19l11,13l7,8l14,22l11,21l9,21l6,22l6,21l4,21l3,22l1,21l1,21" style="fill: none; stroke: red; stroke-width: 2;"></path>
     <path d="M16,329l32,1l14,1l18,1l32,2l32,3l32,5l32,5l21,5l11,3l32,9l26,9l6,3l32,15l6,4l26,17l5,4l23,21l4,4l14,18l14,21l4,7l7,14l9,22l6,21l5,21l4,22l1,11l1,10l1,21" style="fill: none; stroke: red; stroke-width: 2;"></path>
     <path d="M16,347l32,1l32,2l20,2l12,1l32,4l32,5l32,7l15,4l17,5l32,11l12,6l20,9l21,12l11,8l18,13l14,14l8,8l17,21l7,11l6,10l10,22l8,21l6,21l2,8l3,14l3,21l1,21" style="fill: none; stroke: red; stroke-width: 2;"></path>
     <path d="M16,365l32,1l32,3l32,3l9,1l23,4l32,6l32,8l11,4l21,7l32,13l1,1l31,17l6,4l26,21l1,1l20,21l11,14l5,7l12,22l10,21l5,15l2,6l5,22l3,21l2,21" style="fill: none; stroke: red; stroke-width: 2;"></path>
     <path d="M16,383l32,1l32,3l32,4l22,4l10,1l32,8l32,9l7,3l25,10l23,11l9,5l24,17l8,6l17,15l15,16l4,5l14,22l11,21l3,6l6,15l6,22l3,21l2,21" style="fill: none; stroke: red; stroke-width: 2;"></path>
     <path d="M16,401l32,2l32,3l32,4l30,6h2l32,9l32,11l3,1l29,14l13,8l19,12l11,9l21,20l2,1l16,22l13,21l1,1l9,20l7,22l4,21l2,21" style="fill: none; stroke: red; stroke-width: 2;"></path>
     <path d="M16,419l32,2l32,3l32,6l32,7h1l31,10l28,12l4,1l32,18l2,2l28,21l2,3l17,19l15,20l1,1l11,21l7,22l5,21l3,21" style="fill: none; stroke: red; stroke-width: 2;"></path>
     <path d="M16,438l32,2l32,4l32,6l32,9l32,12l20,9l12,7l22,14l10,8l14,14l18,21l13,21l9,22l6,21l3,21" style="fill: none; stroke: red; stroke-width: 2;"></path>
     <path d="M16,458l13,1l19,1l32,5l32,7l27,8l5,2l32,14l9,5l23,15l8,7l21,21l3,3l12,18l11,22l7,21l2,13l1,8" style="fill: none; stroke: red; stroke-width: 2;"></path>
     <path d="M16,479l16,1l16,1l32,6l32,8l17,6l15,7l27,15l5,3l22,18l10,10l9,11l13,22l8,21l2,11l2,10" style="fill: none; stroke: red; stroke-width: 2;"></path>
     <path d="M16,502l32,3l32,7l32,10l2,1l30,15l9,6l23,20l1,1l16,22l10,21l4,21" style="fill: none; stroke: red; stroke-width: 2;"></path>
     <path d="M16,528l32,4l32,9l8,3l24,12l15,9l17,16l5,6l12,21l6,21" style="fill: none; stroke: red; stroke-width: 2;"></path>
     <path d="M16,562l23,3l9,2l32,14l8,6l21,21l3,6l6,15" style="fill: none; stroke: red; stroke-width: 2;"></path>
    </g>
   </svg>
   <g>
    <g transform="translate(0,640)">
     <line x1="0" y1="0" x2="960" y2="0" style="stroke: black; stroke-width: 1;"></line>
     <path d="M0,-24v24m38,-12v12m39,-12v12m38,-12v12m39,-12v12m38,-24v24m38,-12v12m39,-12v12m38,-12v12m39,-12v12m38,-24v24m38,-12v12m39,-12v12m38,-12v12m39,-12v12m38,-24v24m38,-12v12m39,-12v12m38,-12v12m39,-12v12m38,-24v24m38,-12v12m39,-12v12m38,-12v12m39,-12v12m38,-24v24" style="stroke: black; stroke-width: 1;"></path>
     <g font-family="Arial" font-size="28" space="preserve">
      <text fill="black" text-anchor="middle" dy=".8em" transform="translate(0,6)">
       0
      </text>
      <text fill="black" text-anchor="middle" dy=".8em" transform="translate(192,6)">
       1
      </text>
      <text fill="black" text-anchor="middle" dy=".8em" transform="translate(384,6)">
       2
      </text>
      <text fill="black" text-anchor="middle" dy=".8em" transform="translate(576,6)">
       3
      </text>
      <text fill="black" text-anchor="middle" dy=".8em" transform="translate(768,6)">
       4
      </text>
      <text fill="black" text-anchor="middle" dy=".8em" transform="translate(960,6)">
       5
      </text>
     </g>
    </g>
    <g>
     <line x1="0" y1="0" x2="0" y2="640" style="stroke: black; stroke-width: 1;"></line>
     <path d="M36,640h-36m18,-26h-18m18,-25h-18m18,-26h-18m18,-25h-18m36,-26h-36m18,-26h-18m18,-25h-18m18,-26h-18m18,-25h-18m36,-26h-36m18,-26h-18m18,-25h-18m18,-26h-18m18,-25h-18m36,-26h-36m18,-26h-18m18,-25h-18m18,-26h-18m18,-25h-18m36,-26h-36m18,-26h-18m18,-25h-18m18,-26h-18m18,-25h-18m36,-26h-36" style="stroke: black; stroke-width: 1;"></path>
     <g font-family="Arial" font-size="28" space="preserve">
      <text fill="black" text-anchor="end" dy=".4em" transform="translate(-4,640)">
       0
      </text>
      <text fill="black" text-anchor="end" dy=".4em" transform="translate(-4,512)">
       1
      </text>
      <text fill="black" text-anchor="end" dy=".4em" transform="translate(-4,384)">
       2
      </text>
      <text fill="black" text-anchor="end" dy=".4em" transform="translate(-4,256)">
       3
      </text>
      <text fill="black" text-anchor="end" dy=".4em" transform="translate(-4,128)">
       4
      </text>
      <text fill="black" text-anchor="end" dy=".4em" transform="translate(-4,0)">
       5
      </text>
     </g>
    </g>
   </g>
  </g>
  <g transform="translate(120,4)" font-family="Arial" font-size="40" space="preserve">
   <path d="M0,0h960v53h-960z" style="fill: none;"></path>
   <text fill="black" text-anchor="middle" dy=".8em" transform="translate(480,0)">
    sin(x)*sin(y)/(x*y)
   </text>
  </g>
 </g>
</svg>