<svg width="1200" height="800" xmlns="http://www.w3.org/2000/svg">
 <svg viewBox="-600 -400 1200 800" width="1200" height="800" style="background: rgb(255, 255, 255);">
  <path style="fill:rgb(1,1,1)" d="M198,-3L189,-3L201,-3zM190,-3L201,-3L200,-3z"></path>
  <path style="fill:rgb(143,143,143)" d="M201,-3L190,0L201,1zM201,-4L190,-2L201,-2z"></path>
  <path style="fill:rgb(1,1,1)" d="M199,-3L188,-3L190,-3zM191,-3L201,-3L189,-3z"></path>
  <path style="fill:rgb(144,144,144)" d="M201,-3L191,-3L191,1zM201,-3L190,-4L191,-2z"></path>
  <path style="fill:rgb(1,1,1)" d="M189,-3L141,-3L191,-3z"></path>
  <path style="fill:rgb(145,145,145)" d="M192,-4L142,1L192,1z"></path>
  <path style="fill:rgb(1,1,1)" d="M190,-4L144,-4L194,-4zM191,1L144,1L194,1z"></path>
  <path style="fill:rgb(145,145,145)" d="M193,-4L144,-3L193,-3z"></path>
  <path style="fill:rgb(142,142,142)" d="M194,1L193,-4L144,-3z"></path>
  <path style="fill:rgb(145,145,145)" d="M194,0L144,2L194,2z"></path>
  <path style="fill:rgb(1,1,1)" d="M190,-3L140,-3L142,-3zM191,-4L141,-4L145,-4z"></path>
  <path style="fill:rgb(147,147,147)" d="M193,-3L143,-3L143,1z"></path>
  <path style="fill:rgb(1,1,1)" d="M192,1L142,1L145,1z"></path>
  <path style="fill:rgb(147,147,147)" d="M194,-4L144,-4L144,-2z"></path>
  <path style="fill:rgb(144,144,144)" d="M195,1L144,-3L145,2z"></path>
  <path style="fill:rgb(147,147,147)" d="M195,1L144,1L145,2z"></path>
  <path style="fill:rgb(172,172,172)" d="M146,-3L141,-4L142,-2zM144,1L143,-4L142,1zM144,1L144,-4L142,-3zM146,2L142,0L143,2zM145,-2L145,-4L141,-4zM146,2L146,0L142,1zM143,-3L145,2L145,-3zM144,-4L144,2L146,1z"></path>
  <path style="fill:rgb(1,1,1)" d="M141,-3L117,-3L143,-3zM118,-3L144,-3L142,-3z"></path>
  <path style="fill:rgb(149,149,149)" d="M143,-3L118,1L143,1zM143,-3L118,-2L143,-2z"></path>
  <path style="fill:rgb(1,1,1)" d="M142,-3L116,-3L118,-3zM119,-3L143,-3L117,-3z"></path>
  <path style="fill:rgb(150,150,150)" d="M144,-2L118,-2L118,1zM144,-3L118,-3L118,-1z"></path>
  <path style="fill:rgb(1,1,1)" d="M117,-3L64,-2L119,-3z"></path>
  <path style="fill:rgb(152,152,152)" d="M120,-3L65,1L120,1z"></path>
  <path style="fill:rgb(1,1,1)" d="M118,-3L66,-3L121,-3zM119,1L67,2L121,1z"></path>
  <path style="fill:rgb(152,152,152)" d="M121,-4L66,-2L121,-2z"></path>
  <path style="fill:rgb(149,149,149)" d="M122,2L121,-3L66,-3z"></path>
  <path style="fill:rgb(152,152,152)" d="M122,1L67,2L122,2z"></path>
  <path style="fill:rgb(1,1,1)" d="M118,-3L63,-2L65,-2zM119,-3L64,-3L67,-3z"></path>
  <path style="fill:rgb(153,153,153)" d="M120,-3L66,-3L66,2z"></path>
  <path style="fill:rgb(1,1,1)" d="M120,1L65,2L68,2z"></path>
  <path style="fill:rgb(153,153,153)" d="M121,-3L67,-4L67,-2z"></path>
  <path style="fill:rgb(150,150,150)" d="M122,1L67,-3L68,2z"></path>
  <path style="fill:rgb(153,153,153)" d="M122,1L67,1L68,3z"></path>
  <path style="fill:rgb(166,166,166)" d="M68,-2L64,-4L65,-2zM67,2L66,-3L65,2zM66,2L67,-3L65,-3zM69,2L65,1L66,3zM68,-2L68,-4L64,-3zM69,3L69,1L65,2zM66,-3L68,3L68,-3zM67,-3L67,3L69,2z"></path>
  <path style="fill:rgb(1,1,1)" d="M64,-2L32,-2L66,-2zM33,-2L67,-2L65,-2z"></path>
  <path style="fill:rgb(156,156,156)" d="M66,-2L33,1L66,2zM66,-3L33,-1L66,-1z"></path>
  <path style="fill:rgb(1,1,1)" d="M65,-2L31,-2L33,-2zM34,-2L66,-2L32,-2z"></path>
  <path style="fill:rgb(157,157,157)" d="M67,-2L33,-2L34,2zM67,-3L33,-3L34,-1z"></path>
  <path style="fill:rgb(1,1,1)" d="M32,-2L-26,-2L34,-2z"></path>
  <path style="fill:rgb(159,159,159)" d="M35,-3L-25,2L35,2z"></path>
  <path style="fill:rgb(1,1,1)" d="M33,-3L-24,-3L37,-3zM34,2L-24,2L37,2z"></path>
  <path style="fill:rgb(159,159,159)" d="M36,-4L-24,-2L36,-2z"></path>
  <path style="fill:rgb(156,156,156)" d="M37,2L36,-3L-24,-2z"></path>
  <path style="fill:rgb(159,159,159)" d="M37,1L-23,3L37,3z"></path>
  <path style="fill:rgb(1,1,1)" d="M33,-2L-27,-2L-25,-2zM34,-3L-26,-3L-23,-3z"></path>
  <path style="fill:rgb(161,161,161)" d="M36,-2L-24,-3L-24,2z"></path>
  <path style="fill:rgb(1,1,1)" d="M35,2L-25,2L-23,2z"></path>
  <path style="fill:rgb(161,161,161)" d="M37,-3L-23,-3L-23,-2z"></path>
  <path style="fill:rgb(158,158,158)" d="M37,2L-23,-3L-22,3z"></path>
  <path style="fill:rgb(161,161,161)" d="M37,2L-23,2L-22,4z"></path>
  <path style="fill:rgb(158,158,158)" d="M-22,-2L-26,-3L-26,-2zM-23,2L-25,-3L-25,2zM-24,3L-23,-3L-25,-2zM-21,3L-25,2L-25,4zM-22,-1L-22,-3L-26,-3z"></path>
  <path style="fill:rgb(159,159,159)" d="M-22,4L-22,2L-25,2zM-24,-2L-22,3L-22,-3zM-23,-3L-23,3L-22,2z"></path>
  <path style="fill:rgb(1,1,1)" d="M-26,-2L-73,-2L-24,-2zM-73,-2L-23,-2L-25,-2z"></path>
  <path style="fill:rgb(164,164,164)" d="M-24,-2L-73,2L-24,2zM-24,-3L-73,-1L-24,-1z"></path>
  <path style="fill:rgb(1,1,1)" d="M-25,-2L-74,-2L-72,-2zM-72,-2L-24,-2L-73,-2z"></path>
  <path style="fill:rgb(165,165,165)" d="M-23,-1L-72,-1L-72,3zM-23,-2L-72,-2L-72,-0z"></path>
  <path style="fill:rgb(1,1,1)" d="M-73,-2L-139,-1L-71,-2z"></path>
  <path style="fill:rgb(168,168,168)" d="M-70,-2L-138,3L-70,3z"></path>
  <path style="fill:rgb(1,1,1)" d="M-72,-3L-136,-2L-69,-3zM-71,3L-136,3L-69,3z"></path>
  <path style="fill:rgb(168,168,168)" d="M-69,-3L-136,-1L-69,-1z"></path>
  <path style="fill:rgb(165,165,165)" d="M-69,3L-69,-2L-136,-1z"></path>
  <path style="fill:rgb(168,168,168)" d="M-69,2L-136,4L-69,4z"></path>
  <path style="fill:rgb(1,1,1)" d="M-72,-2L-140,-1L-138,-1zM-71,-3L-139,-2L-135,-2z"></path>
  <path style="fill:rgb(170,170,170)" d="M-70,-2L-137,-2L-137,3z"></path>
  <path style="fill:rgb(1,1,1)" d="M-70,3L-138,3L-135,3z"></path>
  <path style="fill:rgb(170,170,170)" d="M-69,-3L-136,-3L-136,-1z"></path>
  <path style="fill:rgb(166,166,166)" d="M-68,3L-136,-2L-135,4z"></path>
  <path style="fill:rgb(170,170,170)" d="M-68,3L-136,3L-135,4z"></path>
  <path style="fill:rgb(149,149,149)" d="M-134,-1L-139,-3L-138,-1zM-136,3L-137,-2L-138,3zM-136,3L-136,-2L-138,-2zM-134,4L-138,3L-137,4zM-135,-1L-135,-3L-139,-2zM-134,5L-134,3L-138,3zM-137,-2L-135,4L-135,-2zM-136,-2L-136,4L-134,3z"></path>
  <path style="fill:rgb(1,1,1)" d="M-139,-1L-172,-1L-137,-1zM-171,-1L-136,-1L-138,-1z"></path>
  <path style="fill:rgb(172,172,172)" d="M-137,-1L-171,3L-137,3zM-137,-2L-171,-0L-137,0z"></path>
  <path style="fill:rgb(1,1,1)" d="M-138,-1L-173,-1L-171,-1zM-170,-1L-137,-1L-172,-1z"></path>
  <path style="fill:rgb(173,173,173)" d="M-136,-1L-171,-1L-171,3zM-136,-1L-171,-2L-170,0z"></path>
  <path style="fill:rgb(1,1,1)" d="M-172,-1L-245,-1L-170,-1z"></path>
  <path style="fill:rgb(176,176,176)" d="M-169,-2L-243,3L-169,3z"></path>
  <path style="fill:rgb(1,1,1)" d="M-171,-2L-242,-2L-167,-2z"></path>
  <path style="fill:rgb(2,2,2)" d="M-170,3L-242,4L-167,3z"></path>
  <path style="fill:rgb(176,176,176)" d="M-168,-3L-242,-1L-168,-1z"></path>
  <path style="fill:rgb(172,172,172)" d="M-167,4L-168,-2L-242,-1z"></path>
  <path style="fill:rgb(176,176,176)" d="M-167,3L-242,5L-167,5z"></path>
  <path style="fill:rgb(1,1,1)" d="M-171,-1L-246,-1L-244,-1zM-170,-2L-245,-2L-241,-2z"></path>
  <path style="fill:rgb(178,178,178)" d="M-169,-1L-243,-1L-243,4z"></path>
  <path style="fill:rgb(2,2,2)" d="M-169,3L-244,4L-241,4z"></path>
  <path style="fill:rgb(177,177,177)" d="M-167,-2L-242,-2L-242,-0z"></path>
  <path style="fill:rgb(174,174,174)" d="M-167,3L-242,-1L-241,4z"></path>
  <path style="fill:rgb(177,177,177)" d="M-167,3L-241,4L-241,5z"></path>
  <path style="fill:rgb(139,139,139)" d="M-240,-1L-245,-2L-244,-0zM-242,4L-243,-2L-244,4zM-242,4L-242,-2L-244,-1zM-240,5L-244,3L-243,5zM-241,-0L-241,-2L-245,-2zM-240,6L-240,3L-244,4zM-242,-1L-241,5L-241,-1zM-242,-2L-242,5L-240,4z"></path>
  <path style="fill:rgb(1,1,1)" d="M-245,-1L-260,-1L-243,-1zM-260,-1L-242,-1L-244,-1z"></path>
  <path style="fill:rgb(180,180,180)" d="M-243,-0L-259,3L-243,4zM-243,-1L-259,0L-243,1z"></path>
  <path style="fill:rgb(1,1,1)" d="M-244,-1L-261,-1L-259,-1zM-260,-1L-258,-1L-242,-1z"></path>
  <path style="fill:rgb(180,180,180)" d="M-242,0L-259,-0L-258,4zM-242,-1L-259,-1L-258,1z"></path>
  <path style="fill:rgb(138,138,138)" d="M-257,0L-260,-2L-260,1zM-258,1L-258,-1L-261,-1zM-257,4L-259,-1L-259,4zM-258,4L-258,-1L-259,0z"></path>
 </svg>
</svg>