<svg width="1200" height="800" xmlns="http://www.w3.org/2000/svg">
 <svg xmlns="http://www.w3.org/2000/svg" viewBox="-600 -400 1200 800" width="1200" height="800" style="background:rgb(255,255,255)">
  <path style="fill:rgb(107,107,107)" d="M71,110L87,95L86,95zM73,108L87,95L86,94zM74,107L87,95L86,93zM76,105L87,94L86,93zM77,104L87,93L86,92zM78,102L87,93L86,91zM80,100L87,92L86,91zM81,99L87,91L86,91zM82,97L87,91L86,90zM-60,234L99,90L100,82z"/>
  <path style="fill:rgb(108,108,108)" d="M83,96L87,90L86,90z"/>
  <path style="fill:rgb(105,105,105)" d="M86,123L91,118L93,116zM86,123L89,119L92,117zM86,123L92,116L94,114zM86,123L88,121L90,119zM86,123L94,115L96,112zM86,123L95,113L97,111z"/>
  <path style="fill:rgb(108,108,108)" d="M84,94L87,90L86,89z"/>
  <path style="fill:rgb(105,105,105)" d="M86,123L96,112L98,109z"/>
  <path style="fill:rgb(108,108,108)" d="M85,93L87,89L86,89z"/>
  <path style="fill:rgb(105,105,105)" d="M86,123L97,110L99,108zM86,123L98,109L100,106z"/>
  <path style="fill:rgb(108,108,108)" d="M86,92L87,89L86,89z"/>
  <path style="fill:rgb(105,105,105)" d="M86,123L99,107L101,105z"/>
  <path style="fill:rgb(108,108,108)" d="M86,91L87,88L86,88z"/>
  <path style="fill:rgb(105,105,105)" d="M86,123L100,106L101,104zM86,123L101,105L102,102z"/>
  <path style="fill:rgb(108,108,108)" d="M87,90L87,88L86,87z"/>
  <path style="fill:rgb(105,105,105)" d="M86,123L101,103L102,101zM86,123L102,102L102,101zM86,123L102,101L87,115z"/>
  <path style="fill:rgb(108,108,108)" d="M-60,233L-59,240L100,89z"/>
  <path style="fill:rgb(105,105,105)" d="M88,114L-15,220L87,123z"/>
  <path style="fill:rgb(108,108,108)" d="M-30,206L-29,204L-32,207zM-31,207L-30,205L-33,208zM-32,208L-31,206L-35,210zM-33,208L-31,207L-36,211zM-34,209L-32,208L-38,212zM-35,210L-33,209L-39,213z"/>
  <path style="fill:rgb(105,105,105)" d="M88,114L-15,212L-15,220z"/>
  <path style="fill:rgb(108,108,108)" d="M-35,211L-34,209L-40,213zM-36,212L-35,210L-42,214zM-37,213L-36,211L-43,214z"/>
  <path style="fill:rgb(105,105,105)" d="M-14,218L-19,223L-16,221z"/>
  <path style="fill:rgb(108,108,108)" d="M-38,214L-37,212L-44,214z"/>
  <path style="fill:rgb(105,105,105)" d="M-14,218L-20,224L-18,222z"/>
  <path style="fill:rgb(108,108,108)" d="M-39,215L-38,213L-44,214z"/>
  <path style="fill:rgb(105,105,105)" d="M-14,218L-22,225L-19,223z"/>
  <path style="fill:rgb(108,108,108)" d="M-41,216L-39,214L-45,214z"/>
  <path style="fill:rgb(105,105,105)" d="M-14,218L-23,226L-21,224z"/>
  <path style="fill:rgb(108,108,108)" d="M-42,218L-40,216L-45,213z"/>
  <path style="fill:rgb(105,105,105)" d="M-14,218L-24,227L-22,225z"/>
  <path style="fill:rgb(108,108,108)" d="M-44,219L-41,217L-45,212z"/>
  <path style="fill:rgb(105,105,105)" d="M-14,218L-26,228L-24,226z"/>
  <path style="fill:rgb(108,108,108)" d="M-45,220L-43,219L-45,212z"/>
  <path style="fill:rgb(105,105,105)" d="M-14,219L-27,228L-25,227zM-14,219L-28,228L-26,228zM-14,219L-29,229L-27,228zM-14,219L-29,229L-28,228z"/>
  <path style="fill:rgb(106,106,106)" d="M-14,219L-30,229L-28,228zM-14,219L-30,228L-29,228zM-14,219L-15,212L-31,227zM-14,219L-31,228L-30,228zM-14,219L-31,227L-30,228z"/>
  <path style="fill:rgb(0,0,0)" d="M-29,228L-45,212L-44,214zM-30,227L-45,213L-29,229z"/>
  <path style="fill:rgb(77,77,77)" d="M-29,228L-45,212L-45,213zM-30,227L-45,212L-29,228z"/>
  <path style="fill:rgb(113,113,113)" d="M85,96L100,82L147,-274z"/>
  <path style="fill:rgb(111,111,111)" d="M146,-223L-30,228L102,102z"/>
  <path style="fill:rgb(103,103,103)" d="M-62,-146L-84,154L-40,196z"/>
  <path style="fill:rgb(100,100,100)" d="M-44,-55L-45,213L-30,228z"/>
  <path style="fill:rgb(114,114,114)" d="M-89,-69L-60,234L-44,219z"/>
  <path style="fill:rgb(96,96,96)" d="M-90,-83L-73,226L-58,240z"/>
  <path style="fill:rgb(120,120,120)" d="M86,97L147,-274L126,-256z"/>
  <path style="fill:rgb(118,118,118)" d="M147,-223L-44,-54L-30,228z"/>
  <path style="fill:rgb(110,110,110)" d="M-62,-145L-127,-203L-83,155z"/>
  <path style="fill:rgb(106,106,106)" d="M-43,-54L-66,-74L-45,214z"/>
  <path style="fill:rgb(122,122,122)" d="M-89,-68L-44,220L-66,-88z"/>
  <path style="fill:rgb(103,103,103)" d="M-90,-82L-113,-103L-73,226z"/>
  <path style="fill:rgb(124,124,124)" d="M125,-203L147,-222L147,-224zM125,-203L147,-223L146,-225zM125,-203L147,-225L146,-227z"/>
  <path style="fill:rgb(128,128,128)" d="M125,-239L127,-257L125,-255z"/>
  <path style="fill:rgb(108,108,108)" d="M145,-227L123,-245L121,-246z"/>
  <path style="fill:rgb(124,124,124)" d="M125,-203L147,-226L145,-227z"/>
  <path style="fill:rgb(128,128,128)" d="M125,-240L126,-256L123,-253z"/>
  <path style="fill:rgb(125,125,125)" d="M125,-203L146,-227L144,-228z"/>
  <path style="fill:rgb(128,128,128)" d="M125,-242L124,-254L121,-252z"/>
  <path style="fill:rgb(131,131,131)" d="M144,-227L122,-246L120,-246z"/>
  <path style="fill:rgb(109,109,109)" d="M145,-227L121,-246L144,-228z"/>
  <path style="fill:rgb(125,125,125)" d="M125,-203L145,-228L143,-228z"/>
  <path style="fill:rgb(128,128,128)" d="M125,-243L122,-252L120,-250zM124,-244L120,-251L118,-249z"/>
  <path style="fill:rgb(149,149,149)" d="M143,-227L121,-246L119,-246z"/>
  <path style="fill:rgb(125,125,125)" d="M125,-203L144,-228L142,-228z"/>
  <path style="fill:rgb(131,131,131)" d="M145,-227L120,-246L142,-227z"/>
  <path style="fill:rgb(128,128,128)" d="M124,-245L119,-249L116,-247z"/>
  <path style="fill:rgb(125,125,125)" d="M125,-203L143,-228L141,-228z"/>
  <path style="fill:rgb(128,128,128)" d="M123,-245L117,-248L115,-246z"/>
  <path style="fill:rgb(164,164,164)" d="M142,-227L119,-246L117,-245z"/>
  <path style="fill:rgb(125,125,125)" d="M125,-203L142,-228L139,-227z"/>
  <path style="fill:rgb(149,149,149)" d="M143,-228L119,-246L141,-227z"/>
  <path style="fill:rgb(128,128,128)" d="M122,-246L116,-247L114,-245z"/>
  <path style="fill:rgb(176,176,176)" d="M140,-227L118,-246L115,-245z"/>
  <path style="fill:rgb(128,128,128)" d="M120,-246L114,-246L113,-244z"/>
  <path style="fill:rgb(125,125,125)" d="M125,-203L140,-228L138,-227z"/>
  <path style="fill:rgb(128,128,128)" d="M119,-246L113,-244L111,-242z"/>
  <path style="fill:rgb(164,164,164)" d="M142,-227L117,-246L139,-227z"/>
  <path style="fill:rgb(125,125,125)" d="M126,-203L139,-227L136,-226z"/>
  <path style="fill:rgb(187,187,187)" d="M139,-226L116,-245L113,-244z"/>
  <path style="fill:rgb(128,128,128)" d="M117,-245L112,-243L110,-241z"/>
  <path style="fill:rgb(125,125,125)" d="M126,-203L137,-226L134,-225z"/>
  <path style="fill:rgb(128,128,128)" d="M115,-244L111,-242L109,-240z"/>
  <path style="fill:rgb(176,176,176)" d="M140,-227L115,-245L138,-226z"/>
  <path style="fill:rgb(196,196,196)" d="M137,-225L114,-244L112,-242z"/>
  <path style="fill:rgb(128,128,128)" d="M113,-243L110,-241L108,-239z"/>
  <path style="fill:rgb(125,125,125)" d="M126,-203L135,-225L132,-223z"/>
  <path style="fill:rgb(128,128,128)" d="M111,-242L109,-240L107,-238z"/>
  <path style="fill:rgb(125,125,125)" d="M126,-203L133,-224L130,-222z"/>
  <path style="fill:rgb(187,187,187)" d="M139,-226L113,-244L136,-225z"/>
  <path style="fill:rgb(128,128,128)" d="M109,-240L107,-239L105,-237z"/>
  <path style="fill:rgb(204,204,204)" d="M135,-224L112,-243L110,-241z"/>
  <path style="fill:rgb(125,125,125)" d="M126,-203L130,-222L128,-220z"/>
  <path style="fill:rgb(210,210,210)" d="M133,-222L110,-242L107,-239z"/>
  <path style="fill:rgb(196,196,196)" d="M137,-226L112,-243L134,-224z"/>
  <path style="fill:rgb(215,215,215)" d="M131,-221L108,-240L105,-238z"/>
  <path style="fill:rgb(204,204,204)" d="M135,-224L110,-242L132,-222z"/>
  <path style="fill:rgb(210,210,210)" d="M133,-223L107,-240L130,-221z"/>
  <path style="fill:rgb(215,215,215)" d="M131,-221L105,-238L128,-219z"/>
  <path style="fill:rgb(125,125,125)" d="M128,-220L-22,-72L126,-204z"/>
  <path style="fill:rgb(129,129,129)" d="M150,-291L-90,-67L147,-273z"/>
  <path style="fill:rgb(219,219,219)" d="M106,-238L-23,-87L129,-220z"/>
  <path style="fill:rgb(217,217,217)" d="M17,-323L-63,-144L82,-268zM127,-308L-91,-81L150,-290z"/>
  <path style="fill:rgb(218,218,218)" d="M17,-323L-127,-202L-62,-144z"/>
  <path style="fill:rgb(126,126,126)" d="M129,-220L-22,-87L-22,-72z"/>
  <path style="fill:rgb(219,219,219)" d="M107,-238L-45,-107L-22,-87z"/>
  <path style="fill:rgb(130,130,130)" d="M-65,-76L-66,-74L-65,-72zM-65,-77L-66,-75L-65,-73z"/>
  <path style="fill:rgb(125,125,125)" d="M-43,-54L-66,-75L-66,-73z"/>
  <path style="fill:rgb(130,130,130)" d="M-64,-79L-66,-76L-65,-74z"/>
  <path style="fill:rgb(125,125,125)" d="M-43,-55L-66,-74L-43,-53z"/>
  <path style="fill:rgb(127,127,127)" d="M-21,-74L-44,-55L-44,-53z"/>
  <path style="fill:rgb(130,130,130)" d="M-63,-81L-66,-76L-65,-75z"/>
  <path style="fill:rgb(144,144,144)" d="M-43,-56L-65,-77L-66,-74z"/>
  <path style="fill:rgb(127,127,127)" d="M-21,-74L-44,-57L-44,-54z"/>
  <path style="fill:rgb(130,130,130)" d="M-62,-84L-66,-77L-65,-76z"/>
  <path style="fill:rgb(144,144,144)" d="M-43,-57L-66,-75L-43,-54z"/>
  <path style="fill:rgb(160,160,160)" d="M-42,-58L-65,-79L-65,-76z"/>
  <path style="fill:rgb(127,127,127)" d="M-21,-74L-43,-59L-44,-56z"/>
  <path style="fill:rgb(130,130,130)" d="M-61,-86L-66,-78L-65,-76z"/>
  <path style="fill:rgb(127,127,127)" d="M-21,-74L-42,-61L-43,-58z"/>
  <path style="fill:rgb(130,130,130)" d="M-60,-88L-66,-79L-66,-77z"/>
  <path style="fill:rgb(160,160,160)" d="M-42,-59L-66,-77L-43,-56z"/>
  <path style="fill:rgb(173,173,173)" d="M-41,-60L-64,-81L-65,-78z"/>
  <path style="fill:rgb(127,127,127)" d="M-21,-74L-41,-63L-43,-60z"/>
  <path style="fill:rgb(130,130,130)" d="M-58,-91L-66,-80L-66,-78z"/>
  <path style="fill:rgb(184,184,184)" d="M-40,-63L-63,-84L-64,-80z"/>
  <path style="fill:rgb(173,173,173)" d="M-41,-61L-65,-79L-43,-58z"/>
  <path style="fill:rgb(127,127,127)" d="M-21,-73L-40,-66L-42,-62z"/>
  <path style="fill:rgb(130,130,130)" d="M-56,-93L-66,-81L-66,-79z"/>
  <path style="fill:rgb(127,127,127)" d="M-21,-73L-39,-68L-41,-65z"/>
  <path style="fill:rgb(193,193,193)" d="M-39,-65L-62,-86L-63,-83z"/>
  <path style="fill:rgb(130,130,130)" d="M-54,-96L-66,-82L-66,-80z"/>
  <path style="fill:rgb(184,184,184)" d="M-40,-63L-64,-81L-42,-60z"/>
  <path style="fill:rgb(127,127,127)" d="M-21,-73L-37,-71L-39,-67zM-21,-73L-35,-73L-38,-70z"/>
  <path style="fill:rgb(130,130,130)" d="M-52,-98L-67,-83L-66,-81z"/>
  <path style="fill:rgb(201,201,201)" d="M-38,-67L-60,-88L-62,-85z"/>
  <path style="fill:rgb(127,127,127)" d="M-22,-72L-22,-88L-25,-85zM-21,-73L-33,-76L-36,-73zM-21,-72L-24,-86L-27,-83zM-21,-73L-31,-79L-34,-75z"/>
  <path style="fill:rgb(194,194,194)" d="M-39,-66L-64,-83L-41,-62z"/>
  <path style="fill:rgb(127,127,127)" d="M-21,-72L-27,-84L-30,-80zM-21,-72L-29,-81L-32,-78z"/>
  <path style="fill:rgb(130,130,130)" d="M-50,-101L-67,-84L-66,-82z"/>
  <path style="fill:rgb(208,208,208)" d="M-36,-70L-59,-91L-61,-87z"/>
  <path style="fill:rgb(202,202,202)" d="M-38,-68L-62,-86L-40,-65z"/>
  <path style="fill:rgb(214,214,214)" d="M-34,-72L-57,-93L-59,-90z"/>
  <path style="fill:rgb(131,131,131)" d="M-48,-103L-67,-85L-66,-83z"/>
  <path style="fill:rgb(222,222,222)" d="M-21,-87L-44,-108L-47,-105z"/>
  <path style="fill:rgb(218,218,218)" d="M-32,-75L-55,-96L-57,-92z"/>
  <path style="fill:rgb(131,131,131)" d="M150,-291L-91,-82L-89,-67z"/>
  <path style="fill:rgb(223,223,223)" d="M-24,-85L-46,-105L-49,-102z"/>
  <path style="fill:rgb(208,208,208)" d="M-36,-71L-61,-88L-38,-67z"/>
  <path style="fill:rgb(221,221,221)" d="M-30,-77L-53,-98L-56,-95z"/>
  <path style="fill:rgb(223,223,223)" d="M-26,-82L-49,-103L-51,-100zM-28,-80L-51,-101L-54,-97z"/>
  <path style="fill:rgb(131,131,131)" d="M-46,-105L-67,-87L-66,-84z"/>
  <path style="fill:rgb(214,214,214)" d="M-34,-73L-59,-91L-37,-70z"/>
  <path style="fill:rgb(131,131,131)" d="M-43,-107L-67,-87L-66,-86z"/>
  <path style="fill:rgb(218,218,218)" d="M-32,-76L-58,-93L-35,-72z"/>
  <path style="fill:rgb(222,222,222)" d="M-21,-87L-47,-105L-24,-85z"/>
  <path style="fill:rgb(221,221,221)" d="M-30,-78L-56,-96L-33,-75z"/>
  <path style="fill:rgb(219,219,219)" d="M128,-308L-113,-102L-90,-81z"/>
  <path style="fill:rgb(223,223,223)" d="M-24,-85L-49,-103L-27,-82zM-28,-81L-54,-98L-31,-77z"/>
  <path style="fill:rgb(224,224,224)" d="M-26,-83L-52,-101L-29,-80z"/>
 </svg>
</svg>