<svg xmlns="http://www.w3.org/2000/svg" width="1200" height="800"><svg xmlns="http://www.w3.org/2000/svg" viewBox="-600 -400 1200 800" width="1200" height="800" style="background:rgb(255,255,255)"><path style="fill:none;stroke:rgb(0,0,164);stroke-opacity:1;stroke-width:1;stroke-linecap:round;stroke-linejoin:round" d="M-74,26L110,-15L111,-104z"/><path style="fill:none;stroke:rgb(0,82,0);stroke-opacity:0.4;stroke-width:1;stroke-linecap:round;stroke-linejoin:round" d="M-74,68L100,25L102,-141z"/><path style="fill:none;stroke:rgb(0,0,57);stroke-opacity:1;stroke-width:1;stroke-linecap:round;stroke-linejoin:round" d="M-91,-72L112,-103L101,-105z"/><path style="fill:none;stroke:rgb(0,31,0);stroke-opacity:0.4;stroke-width:1;stroke-linecap:round;stroke-linejoin:round" d="M-91,-116L103,-140L93,-144z"/><path style="fill:none;stroke:rgb(0,0,170);stroke-opacity:1;stroke-width:1;stroke-linecap:round;stroke-linejoin:round" d="M-74,27L111,-103L-75,-71z"/><path style="fill:none;stroke:rgb(0,85,0);stroke-opacity:0.4;stroke-width:1;stroke-linecap:round;stroke-linejoin:round" d="M-74,68L103,-141L-75,-114z"/><path style="fill:none;stroke:rgb(0,0,59);stroke-opacity:1;stroke-width:1;stroke-linecap:round;stroke-linejoin:round" d="M-91,-72L-74,-70L112,-103z"/><path style="fill:none;stroke:rgb(0,32,0);stroke-opacity:0.4;stroke-width:1;stroke-linecap:round;stroke-linejoin:round" d="M-91,-116L-75,-113L103,-141z"/><path style="fill:none;stroke:rgb(0,0,15);stroke-opacity:1;stroke-width:1;stroke-linecap:round;stroke-linejoin:round" d="M-57,11L-90,-73L-89,26z"/><path style="fill:none;stroke:rgb(0,7,0);stroke-opacity:0.4;stroke-width:1;stroke-linecap:round;stroke-linejoin:round" d="M-57,-24L-90,-117L-88,69z"/><path style="fill:none;stroke:rgb(0,0,63);stroke-opacity:1;stroke-width:1;stroke-linecap:round;stroke-linejoin:round" d="M-57,11L-74,-71L-90,-73z"/><path style="fill:none;stroke:rgb(0,34,0);stroke-opacity:0.4;stroke-width:1;stroke-linecap:round;stroke-linejoin:round" d="M-58,-23L-74,-114L-91,-116z"/><path style="fill:none;stroke:rgb(0,0,64);stroke-opacity:1;stroke-width:1;stroke-linecap:round;stroke-linejoin:round" d="M-75,-71L-55,18L-73,-67z"/><path style="fill:none;stroke:rgb(0,35,0);stroke-opacity:0.4;stroke-width:1;stroke-linecap:round;stroke-linejoin:round" d="M-75,-114L-55,-16L-73,-110z"/><path style="fill:none;stroke:rgb(0,8,0);stroke-opacity:0.4;stroke-width:1;stroke-linecap:round;stroke-linejoin:round" d="M-58,-25L-89,68L-57,122z"/><path style="fill:none;stroke:rgb(0,0,16);stroke-opacity:1;stroke-width:1;stroke-linecap:round;stroke-linejoin:round" d="M-57,10L-89,25L-57,88z"/><path style="fill:none;stroke:rgb(0,0,67);stroke-opacity:1;stroke-width:1;stroke-linecap:round;stroke-linejoin:round" d="M-55,18L-75,-71L-58,10z"/><path style="fill:none;stroke:rgb(0,36,0);stroke-opacity:0.4;stroke-width:1;stroke-linecap:round;stroke-linejoin:round" d="M-55,-16L-75,-114L-58,-24z"/><path style="fill:none;stroke:rgb(0,0,68);stroke-opacity:1;stroke-width:1;stroke-linecap:round;stroke-linejoin:round" d="M-73,-68L-55,17L-25,21z"/><path style="fill:none;stroke:rgb(0,37,0);stroke-opacity:0.4;stroke-width:1;stroke-linecap:round;stroke-linejoin:round" d="M-74,-111L-56,-17L-25,-11z"/><path style="fill:none;stroke:rgb(0,8,0);stroke-opacity:0.4;stroke-width:1;stroke-linecap:round;stroke-linejoin:round" d="M-55,-18L-57,121L-54,126z"/><path style="fill:none;stroke:rgb(0,0,17);stroke-opacity:1;stroke-width:1;stroke-linecap:round;stroke-linejoin:round" d="M-55,17L-58,9L-57,89zM-55,16L-57,88L-54,93z"/><path style="fill:none;stroke:rgb(0,8,0);stroke-opacity:0.4;stroke-width:1;stroke-linecap:round;stroke-linejoin:round" d="M-55,-17L-58,-25L-57,122z"/><path style="fill:none;stroke:rgb(0,86,0);stroke-opacity:0.4;stroke-width:1;stroke-linecap:round;stroke-linejoin:round" d="M-142,158L-25,125L-26,-12z"/><path style="fill:none;stroke:rgb(0,0,172);stroke-opacity:1;stroke-width:1;stroke-linecap:round;stroke-linejoin:round" d="M-143,125L-25,93L-26,20z"/><path style="fill:none;stroke:rgb(0,0,73);stroke-opacity:1;stroke-width:1;stroke-linecap:round;stroke-linejoin:round" d="M-25,21L-55,17L-163,41z"/><path style="fill:none;stroke:rgb(0,40,0);stroke-opacity:0.4;stroke-width:1;stroke-linecap:round;stroke-linejoin:round" d="M-25,-11L-55,-17L-164,5z"/><path style="fill:none;stroke:rgb(0,0,74);stroke-opacity:1;stroke-width:1;stroke-linecap:round;stroke-linejoin:round" d="M-25,21L-163,41L-143,48z"/><path style="fill:none;stroke:rgb(0,0,176);stroke-opacity:1;stroke-width:1;stroke-linecap:round;stroke-linejoin:round" d="M-142,125L-25,20L-144,47z"/><path style="fill:none;stroke:rgb(0,88,0);stroke-opacity:0.4;stroke-width:1;stroke-linecap:round;stroke-linejoin:round" d="M-142,158L-25,-12L-145,13z"/><path style="fill:none;stroke:rgb(0,40,0);stroke-opacity:0.4;stroke-width:1;stroke-linecap:round;stroke-linejoin:round" d="M-25,-12L-164,5L-144,14z"/><path style="fill:none;stroke:rgb(0,71,0);stroke-opacity:0.4;stroke-width:1;stroke-linecap:round;stroke-linejoin:round" d="M-144,12L-161,155L-141,158z"/><path style="fill:none;stroke:rgb(0,0,141);stroke-opacity:1;stroke-width:1;stroke-linecap:round;stroke-linejoin:round" d="M-143,47L-163,40L-161,121zM-143,47L-161,121L-142,125z"/><path style="fill:none;stroke:rgb(0,71,0);stroke-opacity:0.4;stroke-width:1;stroke-linecap:round;stroke-linejoin:round" d="M-144,13L-164,4L-160,156z"/><path style="fill:rgb(255,0,0)" d="M99,-18h3v3h-3zM99,-18h3v3h-3zM99,-18h3v3h-3zM99,-22h3v3h-3zM100,-18h3v3h-3zM100,-18h3v3h-3zM99,-25h3v3h-3zM101,-18h3v3h-3zM101,-18h3v3h-3zM99,-29h3v3h-3zM101,-18h3v3h-3zM102,-17h3v3h-3zM99,-33h3v3h-3zM102,-17h3v3h-3zM103,-17h3v3h-3zM103,-17h3v3h-3zM99,-37h3v3h-3zM103,-17h3v3h-3zM104,-17h3v3h-3zM99,-41h3v3h-3zM104,-17h3v3h-3zM105,-17h3v3h-3zM99,-45h3v3h-3zM105,-17h3v3h-3zM106,-17h3v3h-3zM99,-48h3v3h-3zM106,-17h3v3h-3zM106,-17h3v3h-3zM91,-16h3v3h-3zM99,-52h3v3h-3zM107,-17h3v3h-3zM107,-17h3v3h-3zM108,-17h3v3h-3zM99,-56h3v3h-3zM108,-17h3v3h-3zM99,-60h3v3h-3zM108,-21h3v3h-3zM99,-64h3v3h-3zM108,-24h3v3h-3zM99,-68h3v3h-3zM108,-28h3v3h-3zM99,-72h3v3h-3zM108,-32h3v3h-3zM99,-75h3v3h-3zM108,-36h3v3h-3zM99,-79h3v3h-3zM108,-39h3v3h-3zM99,-83h3v3h-3zM108,-43h3v3h-3zM99,-87h3v3h-3zM108,-47h3v3h-3zM101,-15h3v3h-3zM99,-91h3v3h-3zM108,-51h3v3h-3zM100,-95h3v3h-3zM109,-55h3v3h-3zM100,-99h3v3h-3zM109,-58h3v3h-3zM100,-103h3v3h-3zM109,-62h3v3h-3zM100,-106h3v3h-3zM109,-66h3v3h-3zM100,-106h3v3h-3zM100,-106h3v3h-3zM109,-70h3v3h-3zM101,-106h3v3h-3zM101,-106h3v3h-3zM109,-74h3v3h-3zM102,-106h3v3h-3zM102,-106h3v3h-3zM103,-106h3v3h-3zM109,-77h3v3h-3zM103,-106h3v3h-3zM103,-106h3v3h-3zM109,-81h3v3h-3zM104,-105h3v3h-3zM104,-105h3v3h-3zM109,-85h3v3h-3zM105,-105h3v3h-3zM105,-105h3v3h-3zM109,-89h3v3h-3zM105,-105h3v3h-3zM106,-105h3v3h-3zM106,-105h3v3h-3zM109,-93h3v3h-3zM107,-105h3v3h-3zM107,-105h3v3h-3zM109,-96h3v3h-3zM108,-104h3v3h-3zM108,-104h3v3h-3zM92,-105h3v3h-3zM109,-100h3v3h-3zM108,-104h3v3h-3zM109,-104h3v3h-3zM109,-104h3v3h-3zM102,-103h3v3h-3z"/></svg></svg>