<svg width="1200" height="800" xmlns="http://www.w3.org/2000/svg">
 <svg width="1200" height="800" viewBox="-600 -400 1200 800" style="background: rgb(255, 255, 255);">
  <path style="fill:rgb(226,0,226)" d="M-11,-307L-3,156L3,156z"></path>
  <path style="fill:rgb(224,0,224)" d="M11,-307L2,156L9,157z"></path>
  <path style="fill:rgb(227,0,227)" d="M-32,-307L-9,157L-2,156z"></path>
  <path style="fill:rgb(220,0,220)" d="M32,-307L8,157L15,158z"></path>
  <path style="fill:rgb(225,0,225)" d="M-53,-305L-15,158L-8,157z"></path>
  <path style="fill:rgb(215,0,215)" d="M53,-305L14,157L20,159z"></path>
  <path style="fill:rgb(222,0,222)" d="M-74,-302L-20,159L-14,157z"></path>
  <path style="fill:rgb(207,0,207)" d="M74,-302L19,158L25,160z"></path>
  <path style="fill:rgb(217,0,217)" d="M-94,-299L-25,160L-19,158z"></path>
  <path style="fill:rgb(198,0,198)" d="M94,-299L24,160L30,162z"></path>
  <path style="fill:rgb(210,0,210)" d="M-113,-294L-30,162L-24,160z"></path>
  <path style="fill:rgb(188,0,188)" d="M113,-294L29,162L35,164z"></path>
  <path style="fill:rgb(202,0,202)" d="M-132,-289L-35,164L-29,161z"></path>
  <path style="fill:rgb(176,0,176)" d="M132,-289L34,164L39,166z"></path>
  <path style="fill:rgb(192,0,192)" d="M-149,-284L-39,166L-34,163z"></path>
  <path style="fill:rgb(162,0,162)" d="M149,-284L38,166L43,169z"></path>
  <path style="fill:rgb(180,0,180)" d="M-165,-277L-43,169L-38,166z"></path>
  <path style="fill:rgb(148,0,148)" d="M165,-277L42,168L47,172z"></path>
  <path style="fill:rgb(232,0,232)" d="M-11,-307L3,157L11,-307z"></path>
  <path style="fill:rgb(167,0,167)" d="M-180,-270L-47,172L-42,168z"></path>
  <path style="fill:rgb(232,0,232)" d="M-33,-306L-3,157L-10,-307z"></path>
  <path style="fill:rgb(229,0,229)" d="M10,-307L9,157L33,-306z"></path>
  <path style="fill:rgb(230,0,230)" d="M-54,-304L-8,157L-32,-306z"></path>
  <path style="fill:rgb(132,0,132)" d="M180,-270L46,171L50,175z"></path>
  <path style="fill:rgb(226,0,226)" d="M32,-306L14,158L54,-304z"></path>
  <path style="fill:rgb(227,0,227)" d="M-74,-302L-14,158L-53,-304z"></path>
  <path style="fill:rgb(220,0,220)" d="M53,-304L20,159L74,-302z"></path>
  <path style="fill:rgb(103,0,103)" d="M11,-306L14,-329L-14,-329zM-10,-306L-13,-329L-41,-328zM32,-305L41,-328L13,-329z"></path>
  <path style="fill:rgb(153,0,153)" d="M-192,-262L-50,175L-46,171z"></path>
  <path style="fill:rgb(103,0,103)" d="M-31,-305L-40,-328L-67,-325z"></path>
  <path style="fill:rgb(222,0,222)" d="M-94,-298L-19,159L-73,-302z"></path>
  <path style="fill:rgb(115,0,115)" d="M192,-262L49,174L52,178z"></path>
  <path style="fill:rgb(213,0,213)" d="M73,-302L25,160L94,-298z"></path>
  <path style="fill:rgb(103,0,103)" d="M53,-303L67,-326L39,-328zM-52,-303L-66,-326L-93,-322z"></path>
  <path style="fill:rgb(215,0,215)" d="M-114,-294L-25,160L-93,-298z"></path>
  <path style="fill:rgb(103,0,103)" d="M74,-300L93,-322L66,-326z"></path>
  <path style="fill:rgb(138,0,138)" d="M-204,-253L-52,178L-49,174z"></path>
  <path style="fill:rgb(204,0,204)" d="M93,-298L30,162L114,-294z"></path>
  <path style="fill:rgb(98,0,98)" d="M204,-253L51,177L54,182z"></path>
  <path style="fill:rgb(104,0,104)" d="M12,-306L-14,-329L-11,-306z"></path>
  <path style="fill:rgb(103,0,103)" d="M-73,-301L-92,-323L-119,-318z"></path>
  <path style="fill:rgb(104,0,104)" d="M33,-305L13,-329L10,-306zM-10,-306L-41,-328L-32,-305z"></path>
  <path style="fill:rgb(207,0,207)" d="M-132,-289L-30,162L-113,-294z"></path>
  <path style="fill:rgb(104,0,104)" d="M93,-297L119,-318L92,-323z"></path>
  <path style="fill:rgb(193,0,193)" d="M113,-294L34,164L132,-289z"></path>
  <path style="fill:rgb(104,0,104)" d="M54,-303L40,-328L31,-305z"></path>
  <path style="fill:rgb(121,0,121)" d="M-213,-244L-54,182L-51,177z"></path>
  <path style="fill:rgb(104,0,104)" d="M-31,-305L-67,-326L-53,-303z"></path>
  <path style="fill:rgb(80,0,80)" d="M213,-244L53,181L55,185z"></path>
  <path style="fill:rgb(104,0,104)" d="M74,-301L67,-326L52,-303zM-93,-297L-118,-318L-143,-313zM-52,-304L-93,-323L-74,-301z"></path>
  <path style="fill:rgb(197,0,197)" d="M-149,-283L-34,164L-131,-289z"></path>
  <path style="fill:rgb(181,0,181)" d="M131,-289L39,167L149,-283z"></path>
  <path style="fill:rgb(104,0,104)" d="M113,-293L143,-313L117,-318zM-220,-235L-55,185L-53,181z"></path>
  <path style="fill:rgb(105,0,105)" d="M94,-297L93,-323L73,-301z"></path>
  <path style="fill:rgb(62,0,62)" d="M220,-235L55,184L56,189z"></path>
  <path style="fill:rgb(104,0,104)" d="M-73,-301L-118,-318L-94,-297z"></path>
  <path style="fill:rgb(185,0,185)" d="M-165,-276L-39,167L-148,-283z"></path>
  <path style="fill:rgb(104,0,104)" d="M-112,-293L-142,-313L-166,-306z"></path>
  <path style="fill:rgb(168,0,168)" d="M148,-283L43,169L165,-276z"></path>
  <path style="fill:rgb(105,0,105)" d="M113,-293L118,-319L93,-298z"></path>
  <path style="fill:rgb(86,0,86)" d="M-225,-225L-56,189L-55,184z"></path>
  <path style="fill:rgb(105,0,105)" d="M131,-288L166,-307L142,-313zM-93,-298L-143,-313L-113,-293z"></path>
  <path style="fill:rgb(43,0,43)" d="M225,-225L56,188L56,193z"></path>
  <path style="fill:rgb(172,0,172)" d="M-180,-269L-43,169L-164,-277z"></path>
  <path style="fill:rgb(153,0,153)" d="M164,-277L46,172L180,-269z"></path>
  <path style="fill:rgb(106,0,106)" d="M132,-288L143,-313L112,-293z"></path>
  <path style="fill:rgb(105,0,105)" d="M-130,-288L-165,-307L-188,-299z"></path>
  <path style="fill:rgb(68,0,68)" d="M-227,-215L-56,193L-56,188z"></path>
  <path style="fill:rgb(24,0,24)" d="M227,-215L56,192L55,196z"></path>
  <path style="fill:rgb(105,0,105)" d="M-112,-294L-166,-307L-131,-288z"></path>
  <path style="fill:rgb(106,0,106)" d="M148,-282L188,-299L165,-307z"></path>
  <path style="fill:rgb(158,0,158)" d="M-193,-261L-46,172L-179,-269z"></path>
  <path style="fill:rgb(137,0,137)" d="M179,-269L49,175L193,-261z"></path>
  <path style="fill:rgb(49,0,49)" d="M-227,-204L-55,196L-56,192z"></path>
  <path style="fill:rgb(106,0,106)" d="M149,-282L166,-307L131,-288z"></path>
  <path style="fill:rgb(5,0,5)" d="M227,-204L56,195L54,200z"></path>
  <path style="fill:rgb(105,0,105)" d="M-148,-282L-187,-300L-209,-291z"></path>
  <path style="fill:rgb(106,0,106)" d="M-130,-288L-188,-300L-149,-282z"></path>
  <path style="fill:rgb(107,0,107)" d="M164,-275L209,-291L187,-300z"></path>
  <path style="fill:rgb(30,0,30)" d="M-225,-194L-54,200L-56,195z"></path>
  <path style="fill:rgb(142,0,142)" d="M-204,-252L-49,175L-192,-262z"></path>
  <path style="fill:rgb(120,0,120)" d="M192,-262L52,178L204,-252z"></path>
  <path style="fill:rgb(107,0,107)" d="M165,-275L188,-300L148,-283z"></path>
  <path style="fill:rgb(106,0,106)" d="M-148,-283L-209,-291L-165,-276zM-164,-276L-208,-291L-228,-282z"></path>
  <path style="fill:rgb(126,0,126)" d="M-213,-243L-51,178L-203,-253z"></path>
  <path style="fill:rgb(108,0,108)" d="M178,-268L228,-282L208,-292z"></path>
  <path style="fill:rgb(102,0,102)" d="M203,-253L53,182L213,-243z"></path>
  <path style="fill:rgb(108,0,108)" d="M179,-268L209,-292L164,-276z"></path>
  <path style="fill:rgb(107,0,107)" d="M-164,-276L-228,-282L-179,-268zM-178,-269L-227,-282L-245,-272z"></path>
  <path style="fill:rgb(108,0,108)" d="M-220,-234L-53,182L-212,-244z"></path>
  <path style="fill:rgb(84,0,84)" d="M212,-244L55,185L220,-234z"></path>
  <path style="fill:rgb(0,0,0)" d="M-286,-173L-107,215L-102,223z"></path>
  <path style="fill:rgb(109,0,109)" d="M191,-260L245,-272L227,-283zM192,-260L228,-282L178,-269z"></path>
  <path style="fill:rgb(22,0,22)" d="M276,-159L102,223L107,215z"></path>
  <path style="fill:rgb(108,0,108)" d="M-178,-269L-245,-272L-192,-260z"></path>
  <path style="fill:rgb(90,0,90)" d="M-225,-224L-55,185L-220,-235z"></path>
  <path style="fill:rgb(65,0,65)" d="M220,-235L56,189L225,-224z"></path>
  <path style="fill:rgb(17,0,17)" d="M-276,-159L-102,222L-96,230z"></path>
  <path style="fill:rgb(108,0,108)" d="M-191,-261L-244,-272L-260,-261z"></path>
  <path style="fill:rgb(110,0,110)" d="M202,-252L260,-261L244,-273zM203,-252L245,-272L191,-261z"></path>
  <path style="fill:rgb(40,0,40)" d="M264,-146L96,230L102,222z"></path>
  <path style="fill:rgb(71,0,71)" d="M-227,-214L-56,189L-225,-225z"></path>
  <path style="fill:rgb(45,0,45)" d="M225,-225L56,193L227,-214z"></path>
  <path style="fill:rgb(109,0,109)" d="M-191,-261L-260,-261L-203,-252z"></path>
  <path style="fill:rgb(34,0,34)" d="M-264,-146L-97,229L-90,236z"></path>
  <path style="fill:rgb(109,0,109)" d="M-202,-252L-259,-262L-272,-250z"></path>
  <path style="fill:rgb(56,0,56)" d="M247,-134L90,236L97,229z"></path>
  <path style="fill:rgb(111,0,111)" d="M212,-243L260,-262L202,-253z"></path>
  <path style="fill:rgb(51,0,51)" d="M-227,-203L-56,193L-227,-215z"></path>
  <path style="fill:rgb(111,0,111)" d="M212,-243L272,-250L259,-262z"></path>
  <path style="fill:rgb(50,0,50)" d="M-247,-134L-90,235L-82,242z"></path>
  <path style="fill:rgb(25,0,25)" d="M227,-215L55,196L227,-203z"></path>
  <path style="fill:rgb(110,0,110)" d="M-202,-253L-272,-250L-212,-243z"></path>
  <path style="fill:rgb(71,0,71)" d="M228,-122L82,242L90,235z"></path>
  <path style="fill:rgb(66,0,66)" d="M-228,-122L-83,241L-73,247z"></path>
  <path style="fill:rgb(32,0,32)" d="M-225,-193L-55,196L-227,-204z"></path>
  <path style="fill:rgb(111,0,111)" d="M-212,-243L-271,-250L-282,-237z"></path>
  <path style="fill:rgb(6,0,6)" d="M227,-204L54,200L225,-193z"></path>
  <path style="fill:rgb(112,0,112)" d="M219,-233L272,-250L212,-244z"></path>
  <path style="fill:rgb(84,0,84)" d="M205,-111L73,247L83,241z"></path>
  <path style="fill:rgb(113,0,113)" d="M219,-233L282,-237L271,-250z"></path>
  <path style="fill:rgb(80,0,80)" d="M-205,-111L-74,246L-63,252z"></path>
  <path style="fill:rgb(111,0,111)" d="M-212,-244L-282,-238L-219,-233z"></path>
  <path style="fill:rgb(96,0,96)" d="M179,-101L63,252L74,246z"></path>
  <path style="fill:rgb(92,0,92)" d="M-179,-101L-64,251L-53,256z"></path>
  <path style="fill:rgb(112,0,112)" d="M-219,-234L-281,-238L-289,-225z"></path>
  <path style="fill:rgb(106,0,106)" d="M150,-93L53,256L64,251z"></path>
  <path style="fill:rgb(114,0,114)" d="M224,-223L282,-238L219,-234z"></path>
  <path style="fill:rgb(103,0,103)" d="M-150,-93L-54,255L-42,259z"></path>
  <path style="fill:rgb(114,0,114)" d="M223,-224L289,-225L281,-238z"></path>
  <path style="fill:rgb(115,0,115)" d="M120,-86L42,259L54,255z"></path>
  <path style="fill:rgb(113,0,113)" d="M-219,-234L-289,-225L-224,-223z"></path>
  <path style="fill:rgb(112,0,112)" d="M-120,-86L-43,259L-30,261z"></path>
  <path style="fill:rgb(121,0,121)" d="M87,-81L30,261L43,259z"></path>
  <path style="fill:rgb(119,0,119)" d="M-87,-81L-31,261L-18,263z"></path>
  <path style="fill:rgb(125,0,125)" d="M53,-77L18,263L31,261z"></path>
  <path style="fill:rgb(124,0,124)" d="M-53,-77L-19,263L-6,264z"></path>
  <path style="fill:rgb(127,0,127)" d="M18,-75L6,264L19,263z"></path>
  <path style="fill:rgb(126,0,126)" d="M-18,-75L-7,264L7,264z"></path>
  <path style="fill:rgb(115,0,115)" d="M227,-213L289,-225L224,-224z"></path>
  <path style="fill:rgb(113,0,113)" d="M-223,-224L-289,-226L-293,-212z"></path>
  <path style="fill:rgb(24,0,24)" d="M276,-158L106,216L286,-173z"></path>
  <path style="fill:rgb(115,0,115)" d="M226,-214L293,-212L288,-226z"></path>
  <path style="fill:rgb(0,0,0)" d="M-286,-173L-102,223L-276,-158z"></path>
  <path style="fill:rgb(114,0,114)" d="M-224,-224L-293,-212L-227,-213z"></path>
  <path style="fill:rgb(116,0,116)" d="M227,-203L293,-212L226,-214z"></path>
  <path style="fill:rgb(115,0,115)" d="M-226,-214L-293,-213L-294,-198z"></path>
  <path style="fill:rgb(42,0,42)" d="M263,-145L102,223L277,-159z"></path>
  <path style="fill:rgb(18,0,18)" d="M-277,-159L-96,230L-263,-145z"></path>
  <path style="fill:rgb(115,0,115)" d="M-226,-214L-294,-199L-227,-203z"></path>
  <path style="fill:rgb(117,0,117)" d="M226,-203L294,-198L293,-213z"></path>
  <path style="fill:rgb(118,0,118)" d="M224,-192L294,-199L227,-204z"></path>
  <path style="fill:rgb(59,0,59)" d="M247,-133L96,230L264,-146z"></path>
  <path style="fill:rgb(36,0,36)" d="M-264,-146L-90,236L-247,-133z"></path>
  <path style="fill:rgb(116,0,116)" d="M-226,-203L-294,-199L-291,-185z"></path>
  <path style="fill:rgb(117,0,117)" d="M-227,-204L-292,-185L-224,-192z"></path>
  <path style="fill:rgb(119,0,119)" d="M224,-193L291,-185L294,-199z"></path>
  <path style="fill:rgb(76,0,76)" d="M227,-121L90,236L248,-133z"></path>
  <path style="fill:rgb(54,0,54)" d="M-248,-133L-82,242L-227,-121z"></path>
  <path style="fill:rgb(119,0,119)" d="M219,-182L292,-185L224,-193z"></path>
  <path style="fill:rgb(118,0,118)" d="M-224,-193L-292,-186L-286,-171zM-224,-193L-286,-171L-219,-182z"></path>
  <path style="fill:rgb(90,0,90)" d="M204,-110L82,242L228,-122z"></path>
  <path style="fill:rgb(120,0,120)" d="M218,-183L286,-171L292,-186z"></path>
  <path style="fill:rgb(70,0,70)" d="M-228,-122L-73,247L-204,-110z"></path>
  <path style="fill:rgb(121,0,121)" d="M211,-172L286,-172L219,-183z"></path>
  <path style="fill:rgb(103,0,103)" d="M178,-101L73,247L205,-111z"></path>
  <path style="fill:rgb(86,0,86)" d="M-205,-111L-64,252L-178,-101z"></path>
  <path style="fill:rgb(119,0,119)" d="M-219,-183L-277,-158L-211,-172zM-218,-183L-286,-172L-276,-158z"></path>
  <path style="fill:rgb(122,0,122)" d="M211,-173L276,-158L286,-172z"></path>
  <path style="fill:rgb(115,0,115)" d="M150,-92L64,252L179,-101z"></path>
  <path style="fill:rgb(99,0,99)" d="M-179,-101L-53,256L-150,-92z"></path>
  <path style="fill:rgb(122,0,122)" d="M200,-162L277,-158L211,-173z"></path>
  <path style="fill:rgb(121,0,121)" d="M-212,-173L-264,-145L-200,-162z"></path>
  <path style="fill:rgb(124,0,124)" d="M119,-86L53,256L151,-93z"></path>
  <path style="fill:rgb(111,0,111)" d="M-151,-93L-42,259L-119,-86z"></path>
  <path style="fill:rgb(121,0,121)" d="M-211,-173L-277,-159L-263,-145z"></path>
  <path style="fill:rgb(123,0,123)" d="M200,-163L263,-145L277,-159z"></path>
  <path style="fill:rgb(131,0,131)" d="M86,-80L42,259L120,-86z"></path>
  <path style="fill:rgb(121,0,121)" d="M-120,-86L-30,262L-86,-80z"></path>
  <path style="fill:rgb(123,0,123)" d="M187,-153L264,-145L201,-163z"></path>
  <path style="fill:rgb(135,0,135)" d="M52,-77L30,262L87,-80z"></path>
  <path style="fill:rgb(129,0,129)" d="M-87,-80L-18,263L-52,-77z"></path>
  <path style="fill:rgb(122,0,122)" d="M-201,-163L-248,-132L-187,-153z"></path>
  <path style="fill:rgb(137,0,137)" d="M17,-75L18,263L53,-77z"></path>
  <path style="fill:rgb(134,0,134)" d="M-53,-77L-6,264L-17,-75z"></path>
  <path style="fill:rgb(137,0,137)" d="M-18,-75L6,264L18,-75z"></path>
  <path style="fill:rgb(122,0,122)" d="M-200,-163L-264,-145L-247,-132z"></path>
  <path style="fill:rgb(125,0,125)" d="M187,-153L247,-132L264,-146zM172,-144L248,-133L188,-154z"></path>
  <path style="fill:rgb(124,0,124)" d="M-188,-154L-228,-121L-172,-144zM-187,-154L-248,-133L-227,-120z"></path>
  <path style="fill:rgb(126,0,126)" d="M154,-136L228,-121L173,-145zM172,-145L227,-121L248,-133z"></path>
  <path style="fill:rgb(125,0,125)" d="M-173,-145L-205,-110L-154,-137z"></path>
  <path style="fill:rgb(127,0,127)" d="M134,-129L205,-110L155,-137z"></path>
  <path style="fill:rgb(125,0,125)" d="M-172,-145L-228,-121L-204,-110z"></path>
  <path style="fill:rgb(127,0,127)" d="M154,-137L205,-110L228,-121z"></path>
  <path style="fill:rgb(126,0,126)" d="M-155,-137L-179,-100L-134,-129z"></path>
  <path style="fill:rgb(128,0,128)" d="M112,-123L180,-100L135,-130z"></path>
  <path style="fill:rgb(126,0,126)" d="M-154,-137L-205,-110L-179,-100z"></path>
  <path style="fill:rgb(127,0,127)" d="M-135,-130L-151,-91L-112,-123z"></path>
  <path style="fill:rgb(128,0,128)" d="M134,-130L179,-100L206,-110z"></path>
  <path style="fill:rgb(129,0,129)" d="M89,-118L151,-92L113,-124z"></path>
  <path style="fill:rgb(128,0,128)" d="M-114,-124L-120,-84L-89,-118zM-135,-130L-180,-100L-150,-92z"></path>
  <path style="fill:rgb(129,0,129)" d="M64,-114L120,-85L90,-119zM112,-124L150,-92L180,-100zM-90,-119L-87,-79L-64,-115z"></path>
  <path style="fill:rgb(130,0,130)" d="M39,-112L87,-79L65,-115z"></path>
  <path style="fill:rgb(129,0,129)" d="M-66,-115L-53,-75L-39,-112zM-113,-124L-151,-92L-119,-85z"></path>
  <path style="fill:rgb(130,0,130)" d="M12,-111L53,-75L40,-112zM-40,-112L-17,-73L-13,-111zM89,-119L119,-85L151,-92zM-14,-111L18,-74L14,-111zM-90,-119L-120,-85L-86,-79z"></path>
  <path style="fill:rgb(131,0,131)" d="M64,-115L86,-79L120,-85z"></path>
  <path style="fill:rgb(130,0,130)" d="M-65,-115L-87,-79L-52,-76z"></path>
  <path style="fill:rgb(131,0,131)" d="M39,-112L52,-76L88,-80zM-40,-112L-53,-76L-17,-74zM13,-111L17,-74L53,-76zM-13,-111L-18,-74L18,-74z"></path>
 </svg>
</svg>