<svg xmlns="http://www.w3.org/2000/svg" width="1200" height="800"><svg xmlns="http://www.w3.org/2000/svg" viewBox="-600 -400 1200 800" width="1200" height="800" style="background:rgb(255,255,255)"><path style="fill:rgb(0,0,26)" d="M182,-327L146,126L147,118z"/><path style="fill:rgb(0,0,44)" d="M179,-319L142,135L146,126z"/><path style="fill:rgb(0,0,58)" d="M173,-309L138,145L142,135z"/><path style="fill:rgb(0,0,69)" d="M165,-299L131,155L138,145z"/><path style="fill:rgb(0,0,78)" d="M156,-289L124,166L131,155z"/><path style="fill:rgb(0,0,86)" d="M144,-278L114,178L124,166z"/><path style="fill:rgb(0,0,93)" d="M131,-266L104,190L114,178z"/><path style="fill:rgb(0,0,99)" d="M117,-254L92,202L104,190z"/><path style="fill:rgb(0,0,105)" d="M100,-242L79,215L92,202z"/><path style="fill:rgb(0,0,110)" d="M82,-230L65,227L79,215z"/><path style="fill:rgb(0,0,115)" d="M64,-218L50,240L65,227z"/><path style="fill:rgb(0,0,119)" d="M44,-206L34,252L50,240z"/><path style="fill:rgb(0,0,28)" d="M182,-327L147,118L184,-335z"/><path style="fill:rgb(0,0,47)" d="M179,-319L146,126L182,-327z"/><path style="fill:rgb(0,0,124)" d="M23,-195L18,264L34,252z"/><path style="fill:rgb(0,0,62)" d="M173,-309L142,135L179,-319z"/><path style="fill:rgb(0,0,128)" d="M2,-184L1,275L18,264z"/><path style="fill:rgb(0,0,74)" d="M165,-299L138,145L173,-309z"/><path style="fill:rgb(0,0,132)" d="M-20,-174L-16,285L1,275z"/><path style="fill:rgb(0,0,136)" d="M-42,-164L-33,295L-16,285z"/><path style="fill:rgb(0,0,84)" d="M156,-289L131,155L165,-299z"/><path style="fill:rgb(0,0,140)" d="M-63,-156L-49,303L-33,295z"/><path style="fill:rgb(0,0,92)" d="M144,-278L124,166L156,-289z"/><path style="fill:rgb(0,0,143)" d="M-84,-148L-65,311L-49,303z"/><path style="fill:rgb(0,0,20)" d="M-209,-149L-163,310L-160,316z"/><path style="fill:rgb(0,0,147)" d="M-104,-142L-81,317L-65,311z"/><path style="fill:rgb(0,0,63)" d="M-206,-143L-160,316L-156,321z"/><path style="fill:rgb(0,0,100)" d="M131,-266L114,178L144,-278z"/><path style="fill:rgb(0,0,150)" d="M-123,-137L-96,322L-81,317z"/><path style="fill:rgb(0,0,104)" d="M-201,-138L-156,321L-150,325z"/><path style="fill:rgb(0,0,153)" d="M-141,-134L-109,325L-96,322z"/><path style="fill:rgb(0,0,132)" d="M-193,-134L-150,325L-142,327z"/><path style="fill:rgb(0,0,154)" d="M-157,-132L-122,327L-109,325z"/><path style="fill:rgb(0,0,147)" d="M-183,-132L-142,327L-133,328z"/><path style="fill:rgb(0,0,153)" d="M-171,-131L-133,328L-122,327z"/><path style="fill:rgb(0,0,107)" d="M117,-254L104,190L131,-266z"/><path style="fill:rgb(0,0,113)" d="M100,-242L92,202L117,-254z"/><path style="fill:rgb(0,0,118)" d="M82,-230L79,215L100,-242z"/><path style="fill:rgb(0,0,124)" d="M64,-218L65,227L82,-230z"/><path style="fill:rgb(0,0,136)" d="M-0,-255L146,-361L134,-361zM-0,-255L157,-360L146,-361zM-0,-255L134,-361L121,-359zM-0,-255L166,-359L157,-360zM-0,-255L121,-359L106,-357zM-0,-255L173,-356L166,-359zM-0,-255L106,-357L90,-353zM-0,-255L179,-352L173,-356z"/><path style="fill:rgb(0,0,129)" d="M44,-206L50,240L64,-218z"/><path style="fill:rgb(0,0,136)" d="M-0,-255L90,-353L73,-348zM-0,-255L182,-347L179,-352z"/><path style="fill:rgb(0,0,137)" d="M-0,-255L73,-348L56,-343zM-0,-255L184,-342L182,-347zM-0,-255L56,-343L37,-336zM-0,-255L184,-335L184,-342z"/><path style="fill:rgb(0,0,134)" d="M23,-195L34,252L44,-206z"/><path style="fill:rgb(0,0,137)" d="M-0,-255L37,-336L18,-328z"/><path style="fill:rgb(0,0,138)" d="M-0,-255L182,-327L184,-335zM-0,-255L18,-328L-1,-320zM-0,-255L179,-319L182,-327zM2,-184L18,264L23,-195z"/><path style="fill:rgb(0,0,139)" d="M-0,-255L-1,-320L-21,-311zM-0,-255L173,-309L179,-319z"/><path style="fill:rgb(0,0,143)" d="M-20,-174L1,275L2,-184z"/><path style="fill:rgb(0,0,139)" d="M-0,-255L-21,-311L-41,-301zM-0,-255L165,-299L173,-309z"/><path style="fill:rgb(0,0,147)" d="M-42,-164L-16,285L-20,-174z"/><path style="fill:rgb(0,0,140)" d="M-0,-255L-41,-301L-60,-290zM-0,-255L156,-289L165,-299zM-0,-255L-60,-290L-80,-279z"/><path style="fill:rgb(0,0,151)" d="M-63,-156L-33,295L-42,-164z"/><path style="fill:rgb(0,0,141)" d="M-0,-255L144,-278L156,-289z"/><path style="fill:rgb(0,0,155)" d="M-84,-148L-49,303L-63,-156z"/><path style="fill:rgb(0,0,141)" d="M-0,-255L-80,-279L-98,-268z"/><path style="fill:rgb(0,0,142)" d="M-0,-255L131,-266L144,-278z"/><path style="fill:rgb(0,0,159)" d="M-104,-142L-65,311L-84,-148z"/><path style="fill:rgb(0,0,22)" d="M-209,-149L-160,316L-206,-143z"/><path style="fill:rgb(0,0,142)" d="M-0,-255L-98,-268L-116,-256z"/><path style="fill:rgb(0,0,143)" d="M-0,-255L117,-254L131,-266z"/><path style="fill:rgb(0,0,163)" d="M-123,-137L-81,317L-104,-142z"/><path style="fill:rgb(0,0,69)" d="M-206,-143L-156,321L-201,-138z"/><path style="fill:rgb(0,0,166)" d="M-141,-134L-96,322L-123,-137z"/><path style="fill:rgb(0,0,113)" d="M-201,-138L-150,325L-193,-134z"/><path style="fill:rgb(0,0,143)" d="M-0,-255L-116,-256L-133,-244zM-0,-255L100,-242L117,-254z"/><path style="fill:rgb(0,0,168)" d="M-157,-132L-109,325L-141,-134z"/><path style="fill:rgb(0,0,144)" d="M-193,-134L-142,327L-183,-132z"/><path style="fill:rgb(0,0,167)" d="M-171,-131L-122,327L-157,-132z"/><path style="fill:rgb(0,0,160)" d="M-183,-132L-133,328L-171,-131z"/><path style="fill:rgb(0,0,143)" d="M-0,-255L-133,-244L-149,-232z"/><path style="fill:rgb(0,0,144)" d="M-0,-255L82,-230L100,-242zM-0,-255L-149,-232L-163,-220z"/><path style="fill:rgb(0,0,145)" d="M-0,-255L64,-218L82,-230zM-0,-255L-163,-220L-176,-208z"/><path style="fill:rgb(0,0,146)" d="M-0,-255L44,-206L64,-218z"/><path style="fill:rgb(0,0,145)" d="M-0,-255L-176,-208L-187,-196z"/><path style="fill:rgb(0,0,146)" d="M-0,-255L23,-195L44,-206zM-0,-255L-187,-196L-196,-185z"/><path style="fill:rgb(0,0,147)" d="M-0,-255L2,-184L23,-195zM-0,-255L-196,-185L-203,-175z"/><path style="fill:rgb(0,0,148)" d="M-0,-255L-20,-174L2,-184z"/><path style="fill:rgb(0,0,147)" d="M-0,-255L-203,-175L-207,-166z"/><path style="fill:rgb(0,0,148)" d="M-0,-255L-42,-164L-20,-174zM-0,-255L-207,-166L-209,-157z"/><path style="fill:rgb(0,0,149)" d="M-0,-255L-63,-156L-42,-164z"/><path style="fill:rgb(0,0,148)" d="M-0,-255L-209,-157L-209,-149z"/><path style="fill:rgb(0,0,149)" d="M-0,-255L-84,-148L-63,-156zM-0,-255L-209,-149L-206,-143zM-0,-255L-104,-142L-84,-148zM-0,-255L-206,-143L-201,-138z"/><path style="fill:rgb(0,0,150)" d="M-0,-255L-123,-137L-104,-142z"/><path style="fill:rgb(0,0,149)" d="M-0,-255L-201,-138L-193,-134z"/><path style="fill:rgb(0,0,150)" d="M-0,-255L-141,-134L-123,-137zM-0,-255L-193,-134L-183,-132zM-0,-255L-157,-132L-141,-134zM-0,-255L-183,-132L-171,-131zM-0,-255L-171,-131L-157,-132z"/></svg></svg>