<svg xmlns="http://www.w3.org/2000/svg" width="1200" height="800"><svg xmlns="http://www.w3.org/2000/svg" viewBox="-600 -400 1200 800" width="1200" height="800" style="background:rgb(255,255,255)"><path style="fill:rgb(227,0,227)" d="M-11,-306L-3,156L3,156z"/><path style="fill:rgb(226,0,226)" d="M11,-306L3,156L9,156zM-32,-306L-9,156L-3,156z"/><path style="fill:rgb(223,0,223)" d="M32,-306L9,156L14,157z"/><path style="fill:rgb(224,0,224)" d="M-53,-304L-14,157L-9,156z"/><path style="fill:rgb(218,0,218)" d="M53,-304L14,157L20,158z"/><path style="fill:rgb(220,0,220)" d="M-74,-301L-20,158L-14,157z"/><path style="fill:rgb(211,0,211)" d="M74,-301L20,158L25,159z"/><path style="fill:rgb(214,0,214)" d="M-94,-298L-25,159L-20,158z"/><path style="fill:rgb(203,0,203)" d="M94,-298L25,159L30,161z"/><path style="fill:rgb(206,0,206)" d="M-113,-293L-30,161L-25,159z"/><path style="fill:rgb(194,0,194)" d="M113,-293L30,161L35,163z"/><path style="fill:rgb(197,0,197)" d="M-131,-288L-35,163L-30,161z"/><path style="fill:rgb(182,0,182)" d="M131,-288L35,163L39,166z"/><path style="fill:rgb(186,0,186)" d="M-149,-283L-39,166L-35,163z"/><path style="fill:rgb(170,0,170)" d="M149,-283L39,166L43,168z"/><path style="fill:rgb(174,0,174)" d="M-165,-276L-43,168L-39,166z"/><path style="fill:rgb(156,0,156)" d="M165,-276L43,168L46,171z"/><path style="fill:rgb(232,0,232)" d="M-11,-306L3,156L11,-306z"/><path style="fill:rgb(160,0,160)" d="M-179,-269L-46,171L-43,168z"/><path style="fill:rgb(231,0,231)" d="M-32,-306L-3,156L-11,-306zM11,-306L9,156L32,-306z"/><path style="fill:rgb(229,0,229)" d="M-53,-304L-9,156L-32,-306z"/><path style="fill:rgb(140,0,140)" d="M179,-269L46,171L49,174z"/><path style="fill:rgb(228,0,228)" d="M32,-306L14,157L53,-304z"/><path style="fill:rgb(225,0,225)" d="M-74,-301L-14,157L-53,-304z"/><path style="fill:rgb(223,0,223)" d="M53,-304L20,158L74,-301z"/><path style="fill:rgb(103,0,103)" d="M11,-306L13,-328L-13,-328zM-11,-306L-13,-328L-40,-327zM32,-306L40,-327L13,-328z"/><path style="fill:rgb(145,0,145)" d="M-192,-261L-49,174L-46,171z"/><path style="fill:rgb(103,0,103)" d="M-32,-306L-40,-327L-66,-325z"/><path style="fill:rgb(219,0,219)" d="M-94,-298L-20,158L-74,-301z"/><path style="fill:rgb(124,0,124)" d="M192,-261L49,174L52,177z"/><path style="fill:rgb(217,0,217)" d="M74,-301L25,159L94,-298z"/><path style="fill:rgb(103,0,103)" d="M53,-304L66,-325L40,-327zM-53,-304L-66,-325L-92,-322z"/><path style="fill:rgb(211,0,211)" d="M-113,-293L-25,159L-94,-298z"/><path style="fill:rgb(103,0,103)" d="M74,-301L92,-322L66,-325z"/><path style="fill:rgb(129,0,129)" d="M-203,-252L-52,177L-49,174z"/><path style="fill:rgb(209,0,209)" d="M94,-298L30,161L113,-293z"/><path style="fill:rgb(107,0,107)" d="M203,-252L52,177L54,181z"/><path style="fill:rgb(104,0,104)" d="M11,-306L-13,-328L-11,-306z"/><path style="fill:rgb(103,0,103)" d="M-74,-301L-92,-322L-118,-318z"/><path style="fill:rgb(104,0,104)" d="M32,-306L13,-328L11,-306zM-11,-306L-40,-327L-32,-306z"/><path style="fill:rgb(202,0,202)" d="M-131,-288L-30,161L-113,-293z"/><path style="fill:rgb(104,0,104)" d="M94,-298L118,-318L92,-322z"/><path style="fill:rgb(199,0,199)" d="M113,-293L35,163L131,-288z"/><path style="fill:rgb(104,0,104)" d="M53,-304L40,-327L32,-306z"/><path style="fill:rgb(113,0,113)" d="M-213,-243L-54,181L-52,177z"/><path style="fill:rgb(104,0,104)" d="M-32,-306L-66,-325L-53,-304z"/><path style="fill:rgb(89,0,89)" d="M213,-243L54,181L55,184z"/><path style="fill:rgb(104,0,104)" d="M74,-301L66,-325L53,-304zM-94,-298L-118,-318L-142,-313zM-53,-304L-92,-322L-74,-301z"/><path style="fill:rgb(191,0,191)" d="M-149,-283L-35,163L-131,-288z"/><path style="fill:rgb(188,0,188)" d="M131,-288L39,166L149,-283z"/><path style="fill:rgb(104,0,104)" d="M113,-293L142,-313L118,-318z"/><path style="fill:rgb(95,0,95)" d="M-220,-234L-55,184L-54,181z"/><path style="fill:rgb(105,0,105)" d="M94,-298L92,-322L74,-301z"/><path style="fill:rgb(71,0,71)" d="M220,-234L55,184L56,188z"/><path style="fill:rgb(104,0,104)" d="M-74,-301L-118,-318L-94,-298z"/><path style="fill:rgb(178,0,178)" d="M-165,-276L-39,166L-149,-283z"/><path style="fill:rgb(104,0,104)" d="M-113,-293L-142,-313L-165,-306z"/><path style="fill:rgb(175,0,175)" d="M149,-283L43,168L165,-276z"/><path style="fill:rgb(105,0,105)" d="M113,-293L118,-318L94,-298z"/><path style="fill:rgb(77,0,77)" d="M-224,-224L-56,188L-55,184z"/><path style="fill:rgb(105,0,105)" d="M131,-288L165,-306L142,-313zM-94,-298L-142,-313L-113,-293z"/><path style="fill:rgb(52,0,52)" d="M224,-224L56,188L56,192z"/><path style="fill:rgb(165,0,165)" d="M-179,-269L-43,168L-165,-276z"/><path style="fill:rgb(161,0,161)" d="M165,-276L46,171L179,-269z"/><path style="fill:rgb(106,0,106)" d="M131,-288L142,-313L113,-293z"/><path style="fill:rgb(105,0,105)" d="M-131,-288L-165,-306L-187,-299z"/><path style="fill:rgb(58,0,58)" d="M-227,-214L-56,192L-56,188z"/><path style="fill:rgb(34,0,34)" d="M227,-214L56,192L56,195z"/><path style="fill:rgb(105,0,105)" d="M-113,-293L-165,-306L-131,-288z"/><path style="fill:rgb(106,0,106)" d="M149,-283L187,-299L165,-306z"/><path style="fill:rgb(150,0,150)" d="M-192,-261L-46,171L-179,-269z"/><path style="fill:rgb(146,0,146)" d="M179,-269L49,174L192,-261z"/><path style="fill:rgb(40,0,40)" d="M-227,-203L-56,195L-56,192z"/><path style="fill:rgb(106,0,106)" d="M149,-283L165,-306L131,-288z"/><path style="fill:rgb(15,0,15)" d="M227,-203L56,195L55,199z"/><path style="fill:rgb(105,0,105)" d="M-149,-283L-187,-299L-208,-291z"/><path style="fill:rgb(106,0,106)" d="M-131,-288L-187,-299L-149,-283z"/><path style="fill:rgb(107,0,107)" d="M165,-276L208,-291L187,-299z"/><path style="fill:rgb(21,0,21)" d="M-224,-193L-55,199L-56,195z"/><path style="fill:rgb(134,0,134)" d="M-203,-252L-49,174L-192,-261z"/><path style="fill:rgb(129,0,129)" d="M192,-261L52,177L203,-252z"/><path style="fill:rgb(107,0,107)" d="M165,-276L187,-299L149,-283z"/><path style="fill:rgb(106,0,106)" d="M-149,-283L-208,-291L-165,-276zM-165,-276L-208,-291L-227,-282z"/><path style="fill:rgb(117,0,117)" d="M-213,-243L-52,177L-203,-252z"/><path style="fill:rgb(108,0,108)" d="M179,-269L227,-282L208,-291z"/><path style="fill:rgb(112,0,112)" d="M203,-252L54,181L213,-243z"/><path style="fill:rgb(108,0,108)" d="M179,-269L208,-291L165,-276z"/><path style="fill:rgb(107,0,107)" d="M-165,-276L-227,-282L-179,-269zM-179,-269L-227,-282L-244,-272z"/><path style="fill:rgb(99,0,99)" d="M-220,-234L-54,181L-213,-243z"/><path style="fill:rgb(93,0,93)" d="M213,-243L55,184L220,-234z"/><path style="fill:rgb(0,0,0)" d="M-285,-172L-107,215L-102,222z"/><path style="fill:rgb(109,0,109)" d="M192,-261L244,-272L227,-282zM192,-261L227,-282L179,-269z"/><path style="fill:rgb(31,0,31)" d="M276,-158L102,222L107,215z"/><path style="fill:rgb(108,0,108)" d="M-179,-269L-244,-272L-192,-261z"/><path style="fill:rgb(80,0,80)" d="M-224,-224L-55,184L-220,-234z"/><path style="fill:rgb(74,0,74)" d="M220,-234L56,188L224,-224z"/><path style="fill:rgb(8,0,8)" d="M-276,-158L-102,222L-97,229z"/><path style="fill:rgb(108,0,108)" d="M-192,-261L-244,-272L-259,-261z"/><path style="fill:rgb(110,0,110)" d="M203,-252L259,-261L244,-272zM203,-252L244,-272L192,-261z"/><path style="fill:rgb(48,0,48)" d="M263,-145L97,229L102,222z"/><path style="fill:rgb(61,0,61)" d="M-227,-214L-56,188L-224,-224z"/><path style="fill:rgb(55,0,55)" d="M224,-224L56,192L227,-214z"/><path style="fill:rgb(109,0,109)" d="M-192,-261L-259,-261L-203,-252z"/><path style="fill:rgb(25,0,25)" d="M-263,-145L-97,229L-90,235z"/><path style="fill:rgb(109,0,109)" d="M-203,-252L-259,-261L-271,-250z"/><path style="fill:rgb(63,0,63)" d="M247,-133L90,235L97,229z"/><path style="fill:rgb(111,0,111)" d="M213,-243L259,-261L203,-252z"/><path style="fill:rgb(41,0,41)" d="M-227,-203L-56,192L-227,-214z"/><path style="fill:rgb(111,0,111)" d="M213,-243L271,-250L259,-261z"/><path style="fill:rgb(42,0,42)" d="M-247,-133L-90,235L-82,241z"/><path style="fill:rgb(35,0,35)" d="M227,-214L56,195L227,-203z"/><path style="fill:rgb(110,0,110)" d="M-203,-252L-271,-250L-213,-243z"/><path style="fill:rgb(77,0,77)" d="M227,-121L82,241L90,235z"/><path style="fill:rgb(58,0,58)" d="M-227,-121L-82,241L-74,246z"/><path style="fill:rgb(22,0,22)" d="M-224,-193L-56,195L-227,-203z"/><path style="fill:rgb(111,0,111)" d="M-213,-243L-271,-250L-281,-238z"/><path style="fill:rgb(16,0,16)" d="M227,-203L55,199L224,-193z"/><path style="fill:rgb(112,0,112)" d="M220,-234L271,-250L213,-243z"/><path style="fill:rgb(90,0,90)" d="M205,-110L74,246L82,241z"/><path style="fill:rgb(113,0,113)" d="M220,-234L281,-238L271,-250z"/><path style="fill:rgb(73,0,73)" d="M-205,-110L-74,246L-64,251z"/><path style="fill:rgb(111,0,111)" d="M-213,-243L-281,-238L-220,-234z"/><path style="fill:rgb(101,0,101)" d="M179,-101L64,251L74,246z"/><path style="fill:rgb(86,0,86)" d="M-179,-101L-64,251L-53,255z"/><path style="fill:rgb(112,0,112)" d="M-220,-234L-281,-238L-288,-225z"/><path style="fill:rgb(110,0,110)" d="M150,-92L53,255L64,251z"/><path style="fill:rgb(114,0,114)" d="M224,-224L281,-238L220,-234z"/><path style="fill:rgb(98,0,98)" d="M-150,-92L-53,255L-42,258z"/><path style="fill:rgb(114,0,114)" d="M224,-224L288,-225L281,-238z"/><path style="fill:rgb(118,0,118)" d="M119,-85L42,258L53,255z"/><path style="fill:rgb(113,0,113)" d="M-220,-234L-288,-225L-224,-224z"/><path style="fill:rgb(108,0,108)" d="M-119,-85L-42,258L-31,261z"/><path style="fill:rgb(123,0,123)" d="M87,-80L31,261L42,258z"/><path style="fill:rgb(116,0,116)" d="M-87,-80L-31,261L-18,262z"/><path style="fill:rgb(126,0,126)" d="M53,-76L18,262L31,261z"/><path style="fill:rgb(122,0,122)" d="M-53,-76L-18,262L-6,263z"/><path style="fill:rgb(127,0,127)" d="M18,-74L6,263L18,262z"/><path style="fill:rgb(125,0,125)" d="M-18,-74L-6,263L6,263z"/><path style="fill:rgb(115,0,115)" d="M227,-214L288,-225L224,-224z"/><path style="fill:rgb(113,0,113)" d="M-224,-224L-288,-225L-292,-212z"/><path style="fill:rgb(33,0,33)" d="M276,-158L107,215L285,-172z"/><path style="fill:rgb(115,0,115)" d="M227,-214L292,-212L288,-225z"/><path style="fill:rgb(0,0,0)" d="M-285,-172L-102,222L-276,-158z"/><path style="fill:rgb(114,0,114)" d="M-224,-224L-292,-212L-227,-214z"/><path style="fill:rgb(116,0,116)" d="M227,-203L292,-212L227,-214z"/><path style="fill:rgb(115,0,115)" d="M-227,-214L-292,-212L-293,-199z"/><path style="fill:rgb(51,0,51)" d="M263,-145L102,222L276,-158z"/><path style="fill:rgb(8,0,8)" d="M-276,-158L-97,229L-263,-145z"/><path style="fill:rgb(115,0,115)" d="M-227,-214L-293,-199L-227,-203z"/><path style="fill:rgb(117,0,117)" d="M227,-203L293,-199L292,-212z"/><path style="fill:rgb(118,0,118)" d="M224,-193L293,-199L227,-203z"/><path style="fill:rgb(67,0,67)" d="M247,-133L97,229L263,-145z"/><path style="fill:rgb(27,0,27)" d="M-263,-145L-90,235L-247,-133z"/><path style="fill:rgb(116,0,116)" d="M-227,-203L-293,-199L-291,-185z"/><path style="fill:rgb(117,0,117)" d="M-227,-203L-291,-185L-224,-193z"/><path style="fill:rgb(119,0,119)" d="M224,-193L291,-185L293,-199z"/><path style="fill:rgb(83,0,83)" d="M227,-121L90,235L247,-133z"/><path style="fill:rgb(45,0,45)" d="M-247,-133L-82,241L-227,-121z"/><path style="fill:rgb(119,0,119)" d="M219,-183L291,-185L224,-193z"/><path style="fill:rgb(118,0,118)" d="M-224,-193L-291,-185L-285,-172zM-224,-193L-285,-172L-219,-183z"/><path style="fill:rgb(97,0,97)" d="M205,-110L82,241L227,-121z"/><path style="fill:rgb(120,0,120)" d="M219,-183L285,-172L291,-185z"/><path style="fill:rgb(63,0,63)" d="M-227,-121L-74,246L-205,-110z"/><path style="fill:rgb(121,0,121)" d="M212,-172L285,-172L219,-183z"/><path style="fill:rgb(109,0,109)" d="M179,-101L74,246L205,-110z"/><path style="fill:rgb(79,0,79)" d="M-205,-110L-64,251L-179,-101z"/><path style="fill:rgb(119,0,119)" d="M-219,-183L-276,-158L-212,-172zM-219,-183L-285,-172L-276,-158z"/><path style="fill:rgb(122,0,122)" d="M212,-172L276,-158L285,-172z"/><path style="fill:rgb(119,0,119)" d="M150,-92L64,251L179,-101z"/><path style="fill:rgb(93,0,93)" d="M-179,-101L-53,255L-150,-92z"/><path style="fill:rgb(122,0,122)" d="M201,-163L276,-158L212,-172z"/><path style="fill:rgb(121,0,121)" d="M-212,-172L-263,-145L-201,-163z"/><path style="fill:rgb(127,0,127)" d="M119,-85L53,255L150,-92z"/><path style="fill:rgb(106,0,106)" d="M-150,-92L-42,258L-119,-85z"/><path style="fill:rgb(121,0,121)" d="M-212,-172L-276,-158L-263,-145z"/><path style="fill:rgb(123,0,123)" d="M201,-163L263,-145L276,-158z"/><path style="fill:rgb(133,0,133)" d="M87,-80L42,258L119,-85z"/><path style="fill:rgb(117,0,117)" d="M-119,-85L-31,261L-87,-80z"/><path style="fill:rgb(123,0,123)" d="M188,-153L263,-145L201,-163z"/><path style="fill:rgb(136,0,136)" d="M53,-76L31,261L87,-80z"/><path style="fill:rgb(125,0,125)" d="M-87,-80L-18,262L-53,-76z"/><path style="fill:rgb(122,0,122)" d="M-201,-163L-247,-133L-188,-153z"/><path style="fill:rgb(137,0,137)" d="M18,-74L18,262L53,-76z"/><path style="fill:rgb(132,0,132)" d="M-53,-76L-6,263L-18,-74z"/><path style="fill:rgb(136,0,136)" d="M-18,-74L6,263L18,-74z"/><path style="fill:rgb(122,0,122)" d="M-201,-163L-263,-145L-247,-133z"/><path style="fill:rgb(125,0,125)" d="M188,-153L247,-133L263,-145zM173,-144L247,-133L188,-153z"/><path style="fill:rgb(124,0,124)" d="M-188,-153L-227,-121L-173,-144zM-188,-153L-247,-133L-227,-121z"/><path style="fill:rgb(126,0,126)" d="M155,-136L227,-121L173,-144zM173,-144L227,-121L247,-133z"/><path style="fill:rgb(125,0,125)" d="M-173,-144L-205,-110L-155,-136z"/><path style="fill:rgb(127,0,127)" d="M135,-129L205,-110L155,-136z"/><path style="fill:rgb(125,0,125)" d="M-173,-144L-227,-121L-205,-110z"/><path style="fill:rgb(127,0,127)" d="M155,-136L205,-110L227,-121z"/><path style="fill:rgb(126,0,126)" d="M-155,-136L-179,-101L-135,-129z"/><path style="fill:rgb(128,0,128)" d="M113,-123L179,-101L135,-129z"/><path style="fill:rgb(126,0,126)" d="M-155,-136L-205,-110L-179,-101z"/><path style="fill:rgb(127,0,127)" d="M-135,-129L-150,-92L-113,-123z"/><path style="fill:rgb(128,0,128)" d="M135,-129L179,-101L205,-110z"/><path style="fill:rgb(129,0,129)" d="M90,-118L150,-92L113,-123z"/><path style="fill:rgb(128,0,128)" d="M-113,-123L-119,-85L-90,-118zM-135,-129L-179,-101L-150,-92z"/><path style="fill:rgb(129,0,129)" d="M65,-114L119,-85L90,-118zM113,-123L150,-92L179,-101zM-90,-118L-87,-80L-65,-114z"/><path style="fill:rgb(130,0,130)" d="M39,-112L87,-80L65,-114z"/><path style="fill:rgb(129,0,129)" d="M-65,-114L-53,-76L-39,-112zM-113,-123L-150,-92L-119,-85z"/><path style="fill:rgb(130,0,130)" d="M13,-110L53,-76L39,-112zM-39,-112L-18,-74L-13,-110zM90,-118L119,-85L150,-92zM-13,-110L18,-74L13,-110zM-90,-118L-119,-85L-87,-80z"/><path style="fill:rgb(131,0,131)" d="M65,-114L87,-80L119,-85z"/><path style="fill:rgb(130,0,130)" d="M-65,-114L-87,-80L-53,-76z"/><path style="fill:rgb(131,0,131)" d="M39,-112L53,-76L87,-80zM-39,-112L-53,-76L-18,-74zM13,-110L18,-74L53,-76zM-13,-110L-18,-74L18,-74z"/></svg></svg>