<svg xmlns="http://www.w3.org/2000/svg" viewBox="-600 -400 1200 800" width="1200" height="800" style="background:rgb(255,255,255)"><path style="fill:rgb(0,0,148)" d="M3,-262L-2,88L15,88z"/><path style="fill:rgb(0,0,146)" d="M10,-262L15,88L32,90z"/><path style="fill:rgb(0,0,147)" d="M-4,-261L-20,89L-2,88z"/><path style="fill:rgb(0,0,144)" d="M17,-261L32,90L49,92z"/><path style="fill:rgb(0,0,145)" d="M-11,-261L-37,91L-20,89z"/><path style="fill:rgb(0,0,139)" d="M24,-261L49,92L66,95z"/><path style="fill:rgb(0,0,141)" d="M-18,-260L-54,95L-37,91z"/><path style="fill:rgb(0,0,133)" d="M31,-260L66,95L82,100z"/><path style="fill:rgb(0,0,135)" d="M-25,-259L-70,99L-54,95z"/><path style="fill:rgb(0,0,125)" d="M38,-258L82,100L98,105z"/><path style="fill:rgb(0,0,128)" d="M-31,-257L-85,104L-70,99z"/><path style="fill:rgb(0,0,115)" d="M44,-257L98,105L112,112z"/><path style="fill:rgb(0,0,119)" d="M-37,-255L-100,111L-85,104z"/><path style="fill:rgb(0,0,105)" d="M50,-255L112,112L126,119z"/><path style="fill:rgb(0,0,109)" d="M-43,-253L-114,118L-100,111z"/><path style="fill:rgb(0,0,92)" d="M55,-252L126,119L139,128z"/><path style="fill:rgb(0,0,98)" d="M-48,-250L-127,126L-114,118z"/><path style="fill:rgb(0,0,79)" d="M60,-250L139,128L150,137z"/><path style="fill:rgb(0,0,85)" d="M-52,-248L-139,135L-127,126z"/><path style="fill:rgb(0,0,64)" d="M65,-247L150,137L160,147z"/><path style="fill:rgb(0,0,70)" d="M-56,-245L-149,145L-139,135z"/><path style="fill:rgb(0,0,48)" d="M69,-244L160,147L169,158z"/><path style="fill:rgb(0,0,55)" d="M-59,-242L-158,156L-149,145z"/><path style="fill:rgb(0,0,175)" d="M176,169L231,159L141,-246z"/><path style="fill:rgb(0,0,32)" d="M72,-241L169,158L176,169z"/><path style="fill:rgb(0,0,39)" d="M-62,-238L-165,167L-158,156z"/><path style="fill:rgb(0,0,22)" d="M-64,-235L-170,179L-165,167z"/><path style="fill:rgb(0,0,4)" d="M-65,-232L-174,191L-170,179z"/><path style="fill:rgb(0,0,0)" d="M-135,-234L-233,188L-237,205z"/><path style="fill:rgb(0,0,5)" d="M-137,-227L-237,205L-237,222z"/><path style="fill:rgb(0,0,158)" d="M3,-262L15,88L10,-262zM-4,-261L-2,88L3,-262z"/><path style="fill:rgb(0,0,157)" d="M10,-262L32,90L17,-261z"/><path style="fill:rgb(0,0,155)" d="M-11,-261L-20,89L-4,-261z"/><path style="fill:rgb(0,0,154)" d="M17,-261L49,92L24,-261z"/><path style="fill:rgb(0,0,151)" d="M-18,-260L-37,91L-11,-261z"/><path style="fill:rgb(0,0,149)" d="M24,-261L66,95L31,-260z"/><path style="fill:rgb(0,0,145)" d="M-25,-259L-54,95L-18,-260z"/><path style="fill:rgb(0,0,142)" d="M31,-260L82,100L38,-258z"/><path style="fill:rgb(0,0,137)" d="M-31,-257L-70,99L-25,-259z"/><path style="fill:rgb(0,0,24)" d="M-136,-220L-237,222L-235,239z"/><path style="fill:rgb(0,0,134)" d="M38,-258L98,105L44,-257z"/><path style="fill:rgb(0,0,128)" d="M-37,-255L-85,104L-31,-257z"/><path style="fill:rgb(0,0,123)" d="M44,-257L112,112L50,-255z"/><path style="fill:rgb(0,0,117)" d="M-43,-253L-100,111L-37,-255z"/><path style="fill:rgb(0,0,112)" d="M50,-255L126,119L55,-252z"/><path style="fill:rgb(0,0,104)" d="M-48,-250L-114,118L-43,-253z"/><path style="fill:rgb(0,0,42)" d="M-134,-213L-235,239L-230,256z"/><path style="fill:rgb(0,0,99)" d="M55,-252L139,128L60,-250z"/><path style="fill:rgb(0,0,90)" d="M-52,-248L-127,126L-48,-250z"/><path style="fill:rgb(0,0,84)" d="M60,-250L150,137L65,-247z"/><path style="fill:rgb(0,0,75)" d="M-56,-245L-139,135L-52,-248z"/><path style="fill:rgb(0,0,68)" d="M65,-247L160,147L69,-244z"/><path style="fill:rgb(0,0,59)" d="M-59,-242L-149,145L-56,-245z"/><path style="fill:rgb(0,0,61)" d="M-131,-206L-230,256L-223,273z"/><path style="fill:rgb(0,0,51)" d="M69,-244L169,158L72,-241z"/><path style="fill:rgb(0,0,41)" d="M-62,-238L-158,156L-59,-242z"/><path style="fill:rgb(0,0,186)" d="M176,169L141,-246L74,-238z"/><path style="fill:rgb(0,0,34)" d="M72,-241L176,169L74,-238z"/><path style="fill:rgb(0,0,23)" d="M-64,-235L-165,167L-62,-238z"/><path style="fill:rgb(0,0,80)" d="M-126,-199L-223,273L-212,289z"/><path style="fill:rgb(0,0,4)" d="M-65,-232L-170,179L-64,-235z"/><path style="fill:rgb(0,0,98)" d="M-119,-193L-212,289L-199,305z"/><path style="fill:rgb(0,0,0)" d="M-135,-234L-237,205L-137,-227z"/><path style="fill:rgb(0,0,119)" d="M10,-262L14,-292L-0,-292zM3,-262L-0,-292L-14,-292zM17,-261L28,-292L14,-292zM-4,-261L-14,-292L-28,-291zM24,-261L41,-290L28,-292zM-11,-261L-28,-291L-41,-289zM31,-260L55,-288L41,-290zM-18,-260L-41,-289L-54,-286z"/><path style="fill:rgb(0,0,115)" d="M-111,-186L-199,305L-183,320z"/><path style="fill:rgb(0,0,119)" d="M38,-258L68,-286L55,-288zM-25,-259L-54,-286L-66,-283z"/><path style="fill:rgb(0,0,120)" d="M44,-257L80,-283L68,-286z"/><path style="fill:rgb(0,0,6)" d="M-137,-227L-237,222L-136,-220z"/><path style="fill:rgb(0,0,120)" d="M-31,-257L-66,-283L-78,-280zM50,-255L92,-279L80,-283zM10,-262L-0,-292L3,-262zM17,-261L14,-292L10,-262zM3,-262L-14,-292L-4,-261zM24,-261L28,-292L17,-261zM-4,-261L-28,-291L-11,-261zM31,-260L41,-290L24,-261zM-37,-255L-78,-280L-89,-275z"/><path style="fill:rgb(0,0,131)" d="M-102,-180L-183,320L-165,333z"/><path style="fill:rgb(0,0,120)" d="M-11,-261L-41,-289L-18,-260zM38,-258L55,-288L31,-260zM55,-252L102,-275L92,-279zM-18,-260L-54,-286L-25,-259z"/><path style="fill:rgb(0,0,121)" d="M44,-257L68,-286L38,-258z"/><path style="fill:rgb(0,0,25)" d="M-136,-220L-235,239L-134,-213z"/><path style="fill:rgb(0,0,120)" d="M-43,-253L-89,-275L-99,-271zM-25,-259L-66,-283L-31,-257z"/><path style="fill:rgb(0,0,121)" d="M60,-250L112,-270L102,-275zM50,-255L80,-283L44,-257zM-31,-257L-78,-280L-37,-255z"/><path style="fill:rgb(0,0,146)" d="M-91,-175L-165,333L-145,345z"/><path style="fill:rgb(0,0,121)" d="M-48,-250L-99,-271L-108,-265zM55,-252L92,-279L50,-255zM-37,-255L-89,-275L-43,-253zM65,-247L121,-264L112,-270z"/><path style="fill:rgb(0,0,122)" d="M60,-250L102,-275L55,-252z"/><path style="fill:rgb(0,0,45)" d="M-134,-213L-230,256L-131,-206z"/><path style="fill:rgb(0,0,121)" d="M-43,-253L-99,-271L-48,-250zM-52,-248L-108,-265L-116,-260z"/><path style="fill:rgb(0,0,160)" d="M-79,-170L-145,345L-122,356z"/><path style="fill:rgb(0,0,122)" d="M69,-244L129,-259L121,-264zM65,-247L112,-270L60,-250zM-48,-250L-108,-265L-52,-248zM-56,-245L-116,-260L-123,-254zM69,-244L121,-264L65,-247z"/><path style="fill:rgb(0,0,173)" d="M-66,-166L-122,356L-98,365z"/><path style="fill:rgb(0,0,123)" d="M72,-241L136,-253L129,-259z"/><path style="fill:rgb(0,0,122)" d="M-52,-248L-116,-260L-56,-245z"/><path style="fill:rgb(0,0,65)" d="M-131,-206L-223,273L-126,-199z"/><path style="fill:rgb(0,0,123)" d="M72,-241L129,-259L69,-244z"/><path style="fill:rgb(0,0,197)" d="M56,-161L93,369L119,362z"/><path style="fill:rgb(0,0,122)" d="M-59,-242L-123,-254L-129,-247z"/><path style="fill:rgb(0,0,183)" d="M-52,-163L-98,365L-72,372z"/><path style="fill:rgb(0,0,123)" d="M-56,-245L-123,-254L-59,-242zM74,-238L141,-246L136,-253z"/><path style="fill:rgb(0,0,202)" d="M41,-159L67,375L93,369z"/><path style="fill:rgb(0,0,192)" d="M-37,-160L-72,372L-45,377z"/><path style="fill:rgb(0,0,123)" d="M74,-238L136,-253L72,-241z"/><path style="fill:rgb(0,0,84)" d="M-126,-199L-212,289L-119,-193z"/><path style="fill:rgb(0,0,123)" d="M-59,-242L-129,-247L-62,-238zM-62,-238L-129,-247L-133,-241z"/><path style="fill:rgb(0,0,204)" d="M25,-158L39,379L67,375z"/><path style="fill:rgb(0,0,198)" d="M-22,-158L-45,377L-17,380z"/><path style="fill:rgb(0,0,205)" d="M10,-157L11,380L39,379z"/><path style="fill:rgb(0,0,203)" d="M-6,-157L-17,380L11,380z"/><path style="fill:rgb(0,0,123)" d="M-62,-238L-133,-241L-64,-235zM-64,-235L-133,-241L-135,-234z"/><path style="fill:rgb(0,0,103)" d="M-119,-193L-199,305L-111,-186z"/><path style="fill:rgb(0,0,124)" d="M-64,-235L-135,-234L-65,-232zM-65,-232L-135,-234L-137,-227z"/><path style="fill:rgb(0,0,125)" d="M-65,-232L-137,-227L-65,-228z"/><path style="fill:rgb(0,0,121)" d="M-111,-186L-183,320L-102,-180z"/><path style="fill:rgb(0,0,125)" d="M-65,-228L-137,-227L-136,-220zM-65,-228L-136,-220L-65,-225z"/><path style="fill:rgb(0,0,139)" d="M-102,-180L-165,333L-91,-175z"/><path style="fill:rgb(0,0,126)" d="M-65,-225L-134,-213L-64,-221z"/><path style="fill:rgb(0,0,125)" d="M-65,-225L-136,-220L-134,-213z"/><path style="fill:rgb(0,0,155)" d="M-91,-175L-145,345L-79,-170z"/><path style="fill:rgb(0,0,126)" d="M-64,-221L-131,-206L-62,-218zM-64,-221L-134,-213L-131,-206z"/><path style="fill:rgb(0,0,169)" d="M-79,-170L-122,356L-66,-166z"/><path style="fill:rgb(0,0,127)" d="M-62,-218L-126,-199L-59,-214zM-62,-218L-131,-206L-126,-199z"/><path style="fill:rgb(0,0,182)" d="M-66,-166L-98,365L-52,-163z"/><path style="fill:rgb(0,0,207)" d="M56,-161L119,362L70,-164z"/><path style="fill:rgb(0,0,127)" d="M-59,-214L-119,-193L-56,-211z"/><path style="fill:rgb(0,0,193)" d="M-52,-163L-72,372L-37,-160z"/><path style="fill:rgb(0,0,212)" d="M41,-159L93,369L56,-161z"/><path style="fill:rgb(0,0,128)" d="M-59,-214L-126,-199L-119,-193zM-56,-211L-111,-186L-51,-208z"/><path style="fill:rgb(0,0,202)" d="M-37,-160L-45,377L-22,-158z"/><path style="fill:rgb(0,0,215)" d="M25,-158L67,375L41,-159z"/><path style="fill:rgb(0,0,208)" d="M-22,-158L-17,380L-6,-157z"/><path style="fill:rgb(0,0,215)" d="M10,-157L39,379L25,-158z"/><path style="fill:rgb(0,0,213)" d="M-6,-157L11,380L10,-157z"/><path style="fill:rgb(0,0,128)" d="M-51,-208L-102,-180L-47,-205zM-56,-211L-119,-193L-111,-186z"/><path style="fill:rgb(0,0,129)" d="M-47,-205L-91,-175L-41,-203zM-51,-208L-111,-186L-102,-180zM-41,-203L-79,-170L-35,-201zM-35,-201L-66,-166L-29,-199zM-47,-205L-102,-180L-91,-175z"/><path style="fill:rgb(0,0,130)" d="M-29,-199L-52,-163L-22,-197zM30,-196L70,-164L37,-198zM-22,-197L-37,-160L-15,-196zM23,-195L56,-161L30,-196zM-15,-196L-22,-158L-7,-195zM15,-195L41,-159L23,-195zM-41,-203L-91,-175L-79,-170zM-7,-195L-6,-157L0,-194zM8,-194L25,-158L15,-195zM0,-194L10,-157L8,-194zM-35,-201L-79,-170L-66,-166z"/><path style="fill:rgb(0,0,131)" d="M-29,-199L-66,-166L-52,-163z"/><path style="fill:rgb(0,0,132)" d="M30,-196L56,-161L70,-164z"/><path style="fill:rgb(0,0,131)" d="M-22,-197L-52,-163L-37,-160z"/><path style="fill:rgb(0,0,132)" d="M23,-195L41,-159L56,-161z"/><path style="fill:rgb(0,0,131)" d="M-15,-196L-37,-160L-22,-158z"/><path style="fill:rgb(0,0,132)" d="M15,-195L25,-158L41,-159zM-7,-195L-22,-158L-6,-157zM8,-194L10,-157L25,-158zM0,-194L-6,-157L10,-157z"/></svg>