<svg viewBox="-600 -400 1200 800" width="1200" height="800" xmlns="http://www.w3.org/2000/svg"><path style="fill:rgb(0,0,148)" d="M3,-262l-5,350h17Z"/><path style="fill:rgb(0,0,146)" d="M10,-262l5,350l17,2Z"/><path style="fill:rgb(0,0,147)" d="M-4,-261l-16,350l18,-1Z"/><path style="fill:rgb(0,0,144)" d="M17,-261l15,351l17,2Z"/><path style="fill:rgb(0,0,145)" d="M-11,-261l-26,352l17,-2Z"/><path style="fill:rgb(0,0,139)" d="M24,-261l25,353l17,3Z"/><path style="fill:rgb(0,0,141)" d="M-18,-260l-36,355l17,-4Z"/><path style="fill:rgb(0,0,133)" d="M31,-260l35,355l16,5Z"/><path style="fill:rgb(0,0,135)" d="M-25,-259l-45,358l16,-4Z"/><path style="fill:rgb(0,0,125)" d="M38,-258l44,358l16,5Z"/><path style="fill:rgb(0,0,128)" d="M-31,-257l-54,361l15,-5Z"/><path style="fill:rgb(0,0,115)" d="M44,-257l54,362l14,7Z"/><path style="fill:rgb(0,0,119)" d="M-37,-255l-63,366l15,-7Z"/><path style="fill:rgb(0,0,105)" d="M50,-255l62,367l14,7Z"/><path style="fill:rgb(0,0,109)" d="M-43,-253l-71,371l14,-7Z"/><path style="fill:rgb(0,0,92)" d="M55,-252l71,371l13,9Z"/><path style="fill:rgb(0,0,98)" d="M-48,-250l-79,376l13,-8Z"/><path style="fill:rgb(0,0,79)" d="M60,-250l79,378l11,9Z"/><path style="fill:rgb(0,0,85)" d="M-52,-248l-87,383l12,-9Z"/><path style="fill:rgb(0,0,64)" d="M65,-247l85,384l10,10Z"/><path style="fill:rgb(0,0,70)" d="M-56,-245l-93,390l10,-10Z"/><path style="fill:rgb(0,0,48)" d="M69,-244l91,391l9,11Z"/><path style="fill:rgb(0,0,55)" d="M-59,-242l-99,398l9,-11Z"/><path style="fill:rgb(0,0,175)" d="M176,169l55,-10l-90,-405Z"/><path style="fill:rgb(0,0,32)" d="M72,-241l97,399l7,11Z"/><path style="fill:rgb(0,0,39)" d="M-62,-238l-103,405l7,-11Z"/><path style="fill:rgb(0,0,22)" d="M-64,-235l-106,414l5,-12Z"/><path style="fill:rgb(0,0,4)" d="M-65,-232l-109,423l4,-12Z"/><path style="fill:rgb(0,0,0)" d="M-135,-234l-98,422l-4,17Z"/><path style="fill:rgb(0,0,5)" d="M-137,-227l-100,432v17Z"/><path style="fill:rgb(0,0,158)" d="M3,-262l12,350l-5,-350ZM-4,-261l2,349l5,-350Z"/><path style="fill:rgb(0,0,157)" d="M10,-262l22,352l-15,-351Z"/><path style="fill:rgb(0,0,155)" d="M-11,-261l-9,350l16,-350Z"/><path style="fill:rgb(0,0,154)" d="M17,-261l32,353l-25,-353Z"/><path style="fill:rgb(0,0,151)" d="M-18,-260l-19,351l26,-352Z"/><path style="fill:rgb(0,0,149)" d="M24,-261l42,356l-35,-355Z"/><path style="fill:rgb(0,0,145)" d="M-25,-259l-29,354l36,-355Z"/><path style="fill:rgb(0,0,142)" d="M31,-260l51,360l-44,-358Z"/><path style="fill:rgb(0,0,137)" d="M-31,-257l-39,356l45,-358Z"/><path style="fill:rgb(0,0,24)" d="M-136,-220l-101,442l2,17Z"/><path style="fill:rgb(0,0,134)" d="M38,-258l60,363l-54,-362Z"/><path style="fill:rgb(0,0,128)" d="M-37,-255l-48,359l54,-361Z"/><path style="fill:rgb(0,0,123)" d="M44,-257l68,369l-62,-367Z"/><path style="fill:rgb(0,0,117)" d="M-43,-253l-57,364l63,-366Z"/><path style="fill:rgb(0,0,112)" d="M50,-255l76,374l-71,-371Z"/><path style="fill:rgb(0,0,104)" d="M-48,-250l-66,368l71,-371Z"/><path style="fill:rgb(0,0,42)" d="M-134,-213l-101,452l5,17Z"/><path style="fill:rgb(0,0,99)" d="M55,-252l84,380l-79,-378Z"/><path style="fill:rgb(0,0,90)" d="M-52,-248l-75,374l79,-376Z"/><path style="fill:rgb(0,0,84)" d="M60,-250l90,387l-85,-384Z"/><path style="fill:rgb(0,0,75)" d="M-56,-245l-83,380l87,-383Z"/><path style="fill:rgb(0,0,68)" d="M65,-247l95,394l-91,-391Z"/><path style="fill:rgb(0,0,59)" d="M-59,-242l-90,387l93,-390Z"/><path style="fill:rgb(0,0,61)" d="M-131,-206l-99,462l7,17Z"/><path style="fill:rgb(0,0,51)" d="M69,-244l100,402l-97,-399Z"/><path style="fill:rgb(0,0,41)" d="M-62,-238l-96,394l99,-398Z"/><path style="fill:rgb(0,0,186)" d="M176,169l-35,-415l-67,8Z"/><path style="fill:rgb(0,0,34)" d="M72,-241l104,410l-102,-407Z"/><path style="fill:rgb(0,0,23)" d="M-64,-235l-101,402l103,-405Z"/><path style="fill:rgb(0,0,80)" d="M-126,-199l-97,472l11,16Z"/><path style="fill:rgb(0,0,4)" d="M-65,-232l-105,411l106,-414Z"/><path style="fill:rgb(0,0,98)" d="M-119,-193l-93,482l13,16Z"/><path style="fill:rgb(0,0,0)" d="M-135,-234l-102,439l100,-432Z"/><path style="fill:rgb(0,0,119)" d="M10,-262l4,-30h-14ZM3,-262l-3,-30h-14ZM17,-261l11,-31h-14ZM-4,-261l-10,-31l-14,1ZM24,-261l17,-29l-13,-2ZM-11,-261l-17,-30l-13,2ZM31,-260l24,-28l-14,-2ZM-18,-260l-23,-29l-13,3Z"/><path style="fill:rgb(0,0,115)" d="M-111,-186l-88,491l16,15Z"/><path style="fill:rgb(0,0,119)" d="M38,-258l30,-28l-13,-2ZM-25,-259l-29,-27l-12,3Z"/><path style="fill:rgb(0,0,120)" d="M44,-257l36,-26l-12,-3Z"/><path style="fill:rgb(0,0,6)" d="M-137,-227l-100,449l101,-442Z"/><path style="fill:rgb(0,0,120)" d="M-31,-257l-35,-26l-12,3ZM50,-255l42,-24l-12,-4ZM10,-262l-10,-30l3,30ZM17,-261l-3,-31l-4,30ZM3,-262l-17,-30l10,31ZM24,-261l4,-31l-11,31ZM-4,-261l-24,-30l17,30ZM31,-260l10,-30l-17,29ZM-37,-255l-41,-25l-11,5Z"/><path style="fill:rgb(0,0,131)" d="M-102,-180l-81,500l18,13Z"/><path style="fill:rgb(0,0,120)" d="M-11,-261l-30,-28l23,29ZM38,-258l17,-30l-24,28ZM55,-252l47,-23l-10,-4ZM-18,-260l-36,-26l29,27Z"/><path style="fill:rgb(0,0,121)" d="M44,-257l24,-29l-30,28Z"/><path style="fill:rgb(0,0,25)" d="M-136,-220l-99,459l101,-452Z"/><path style="fill:rgb(0,0,120)" d="M-43,-253l-46,-22l-10,4ZM-25,-259l-41,-24l35,26Z"/><path style="fill:rgb(0,0,121)" d="M60,-250l52,-20l-10,-5ZM50,-255l30,-28l-36,26ZM-31,-257l-47,-23l41,25Z"/><path style="fill:rgb(0,0,146)" d="M-91,-175l-74,508l20,12Z"/><path style="fill:rgb(0,0,121)" d="M-48,-250l-51,-21l-9,6ZM55,-252l37,-27l-42,24ZM-37,-255l-52,-20l46,22ZM65,-247l56,-17l-9,-6Z"/><path style="fill:rgb(0,0,122)" d="M60,-250l42,-25l-47,23Z"/><path style="fill:rgb(0,0,45)" d="M-134,-213l-96,469l99,-462Z"/><path style="fill:rgb(0,0,121)" d="M-43,-253l-56,-18l51,21ZM-52,-248l-56,-17l-8,5Z"/><path style="fill:rgb(0,0,160)" d="M-79,-170l-66,515l23,11Z"/><path style="fill:rgb(0,0,122)" d="M69,-244l60,-15l-8,-5ZM65,-247l47,-23l-52,20ZM-48,-250l-60,-15l56,17ZM-56,-245l-60,-15l-7,6ZM69,-244l52,-20l-56,17Z"/><path style="fill:rgb(0,0,173)" d="M-66,-166l-56,522l24,9Z"/><path style="fill:rgb(0,0,123)" d="M72,-241l64,-12l-7,-6Z"/><path style="fill:rgb(0,0,122)" d="M-52,-248l-64,-12l60,15Z"/><path style="fill:rgb(0,0,65)" d="M-131,-206l-92,479l97,-472Z"/><path style="fill:rgb(0,0,123)" d="M72,-241l57,-18l-60,15Z"/><path style="fill:rgb(0,0,197)" d="M56,-161l37,530l26,-7Z"/><path style="fill:rgb(0,0,122)" d="M-59,-242l-64,-12l-6,7Z"/><path style="fill:rgb(0,0,183)" d="M-52,-163l-46,528l26,7Z"/><path style="fill:rgb(0,0,123)" d="M-56,-245l-67,-9l64,12ZM74,-238l67,-8l-5,-7Z"/><path style="fill:rgb(0,0,202)" d="M41,-159l26,534l26,-6Z"/><path style="fill:rgb(0,0,192)" d="M-37,-160l-35,532l27,5Z"/><path style="fill:rgb(0,0,123)" d="M74,-238l62,-15l-64,12Z"/><path style="fill:rgb(0,0,84)" d="M-126,-199l-86,488l93,-482Z"/><path style="fill:rgb(0,0,123)" d="M-59,-242l-70,-5l67,9ZM-62,-238l-67,-9l-4,6Z"/><path style="fill:rgb(0,0,204)" d="M25,-158l14,537l28,-4Z"/><path style="fill:rgb(0,0,198)" d="M-22,-158l-23,535l28,3Z"/><path style="fill:rgb(0,0,205)" d="M10,-157l1,537l28,-1Z"/><path style="fill:rgb(0,0,203)" d="M-6,-157l-11,537h28Z"/><path style="fill:rgb(0,0,123)" d="M-62,-238l-71,-3l69,6ZM-64,-235l-69,-6l-2,7Z"/><path style="fill:rgb(0,0,103)" d="M-119,-193l-80,498l88,-491Z"/><path style="fill:rgb(0,0,124)" d="M-64,-235l-71,1l70,2ZM-65,-232l-70,-2l-2,7Z"/><path style="fill:rgb(0,0,125)" d="M-65,-232l-72,5l72,-1Z"/><path style="fill:rgb(0,0,121)" d="M-111,-186l-72,506l81,-500Z"/><path style="fill:rgb(0,0,125)" d="M-65,-228l-72,1l1,7ZM-65,-228l-71,8l71,-5Z"/><path style="fill:rgb(0,0,139)" d="M-102,-180l-63,513l74,-508Z"/><path style="fill:rgb(0,0,126)" d="M-65,-225l-69,12l70,-8Z"/><path style="fill:rgb(0,0,125)" d="M-65,-225l-71,5l2,7Z"/><path style="fill:rgb(0,0,155)" d="M-91,-175l-54,520l66,-515Z"/><path style="fill:rgb(0,0,126)" d="M-64,-221l-67,15l69,-12ZM-64,-221l-70,8l3,7Z"/><path style="fill:rgb(0,0,169)" d="M-79,-170l-43,526l56,-522Z"/><path style="fill:rgb(0,0,127)" d="M-62,-218l-64,19l67,-15ZM-62,-218l-69,12l5,7Z"/><path style="fill:rgb(0,0,182)" d="M-66,-166l-32,531l46,-528Z"/><path style="fill:rgb(0,0,207)" d="M56,-161l63,523l-49,-526Z"/><path style="fill:rgb(0,0,127)" d="M-59,-214l-60,21l63,-18Z"/><path style="fill:rgb(0,0,193)" d="M-52,-163l-20,535l35,-532Z"/><path style="fill:rgb(0,0,212)" d="M41,-159l52,528l-37,-530Z"/><path style="fill:rgb(0,0,128)" d="M-59,-214l-67,15l7,6ZM-56,-211l-55,25l60,-22Z"/><path style="fill:rgb(0,0,202)" d="M-37,-160l-8,537l23,-535Z"/><path style="fill:rgb(0,0,215)" d="M25,-158l42,533l-26,-534Z"/><path style="fill:rgb(0,0,208)" d="M-22,-158l5,538l11,-537Z"/><path style="fill:rgb(0,0,215)" d="M10,-157l29,536l-14,-537Z"/><path style="fill:rgb(0,0,213)" d="M-6,-157l17,537l-1,-537Z"/><path style="fill:rgb(0,0,128)" d="M-51,-208l-51,28l55,-25ZM-56,-211l-63,18l8,7Z"/><path style="fill:rgb(0,0,129)" d="M-47,-205l-44,30l50,-28ZM-51,-208l-60,22l9,6ZM-41,-203l-38,33l44,-31ZM-35,-201l-31,35l37,-33ZM-47,-205l-55,25l11,5Z"/><path style="fill:rgb(0,0,130)" d="M-29,-199l-23,36l30,-34ZM30,-196l40,32l-33,-34ZM-22,-197l-15,37l22,-36ZM23,-195l33,34l-26,-35ZM-15,-196l-7,38l15,-37ZM15,-195l26,36l-18,-36ZM-41,-203l-50,28l12,5ZM-7,-195l1,38l6,-37ZM8,-194l17,36l-10,-37ZM0,-194l10,37l-2,-37ZM-35,-201l-44,31l13,4Z"/><path style="fill:rgb(0,0,131)" d="M-29,-199l-37,33l14,3Z"/><path style="fill:rgb(0,0,132)" d="M30,-196l26,35l14,-3Z"/><path style="fill:rgb(0,0,131)" d="M-22,-197l-30,34l15,3Z"/><path style="fill:rgb(0,0,132)" d="M23,-195l18,36l15,-2Z"/><path style="fill:rgb(0,0,131)" d="M-15,-196l-22,36l15,2Z"/><path style="fill:rgb(0,0,132)" d="M15,-195l10,37l16,-1ZM-7,-195l-15,37l16,1ZM8,-194l2,37l15,-1ZM0,-194l-6,37h16Z"/></svg>