<svg xmlns="http://www.w3.org/2000/svg" width="1200" height="800"><svg xmlns="http://www.w3.org/2000/svg" viewBox="-600 -400 1200 800" width="1200" height="800" style="background:rgb(255,255,255)"><path style="fill:rgb(101,0,0)" d="M0,88L-65,-52L-178,190z"/><path style="fill:rgb(84,0,0)" d="M279,248L0,-84L0,88z"/><path style="fill:rgb(103,0,0)" d="M0,88L0,-84L-65,-52z"/><path style="fill:rgb(178,0,0)" d="M357,190L99,-35L279,248z"/><path style="fill:rgb(130,0,0)" d="M0,-84L0,-96L-91,-52z"/><path style="fill:rgb(182,0,0)" d="M357,190L130,-52L99,-35z"/><path style="fill:rgb(90,0,0)" d="M279,248L99,-35L0,-84z"/><path style="fill:rgb(130,0,0)" d="M99,-35L0,-96L0,-84z"/><path style="fill:rgb(131,0,0)" d="M0,-84L-91,-52L-65,-52z"/><path style="fill:rgb(150,0,0)" d="M139,-28L0,-269L0,-96z"/><path style="fill:rgb(133,0,0)" d="M99,-35L139,-28L0,-96z"/><path style="fill:rgb(109,0,0)" d="M0,-269L247,-219L0,-314zM-123,-219L0,-269L0,-314z"/><path style="fill:rgb(170,0,0)" d="M0,-96L0,-269L-123,-219zM0,-96L-123,-219L-91,-52z"/><path style="fill:rgb(166,0,0)" d="M0,456L-130,-52L-357,190z"/><path style="fill:rgb(111,0,0)" d="M0,-314L-247,-219L-123,-219z"/><path style="fill:rgb(135,0,0)" d="M-65,-52L-91,-52L48,22z"/><path style="fill:rgb(156,0,0)" d="M139,-28L190,-191L0,-269z"/><path style="fill:rgb(108,0,0)" d="M181,-52L190,-191L139,-28z"/><path style="fill:rgb(137,0,0)" d="M-65,-52L48,22L34,0z"/><path style="fill:rgb(115,0,0)" d="M0,-269L190,-191L247,-219z"/><path style="fill:rgb(109,0,0)" d="M181,-52L247,-219L190,-191z"/><path style="fill:rgb(89,0,0)" d="M0,49L-247,-219L-181,-52z"/><path style="fill:rgb(195,0,0)" d="M102,380L34,0L0,18z"/><path style="fill:rgb(177,0,0)" d="M0,456L0,18L-130,-52z"/><path style="fill:rgb(195,0,0)" d="M102,380L0,18L0,456z"/><path style="fill:rgb(119,0,0)" d="M-247,-219L0,-99L-123,-219z"/><path style="fill:rgb(94,0,0)" d="M0,49L0,-99L-247,-219z"/><path style="fill:rgb(116,0,0)" d="M48,22L0,-99L0,49z"/><path style="fill:rgb(123,0,0)" d="M0,-99L68,-132L-123,-219z"/><path style="fill:rgb(118,0,0)" d="M48,22L68,-132L0,-99z"/></svg></svg>