<svg viewBox="-600 -400 1200 800" width="1200" height="800" xmlns="http://www.w3.org/2000/svg"><path style="fill:rgb(0,94,0)" d="M7,106l-15,-413l1,413Z"/><path style="fill:rgb(0,92,0)" d="M21,107l-13,-414l-1,413Z"/><path style="fill:rgb(0,95,0)" d="M-7,106l-18,-412l4,413Z"/><path style="fill:rgb(0,90,0)" d="M35,109l-10,-415l-4,413Z"/><path style="fill:rgb(0,94,0)" d="M-21,107l-20,-411l6,413Z"/><path style="fill:rgb(0,87,0)" d="M49,112l-8,-416l-6,413Z"/><path style="fill:rgb(0,93,0)" d="M-35,109l-22,-411l8,414Z"/><path style="fill:rgb(0,83,0)" d="M62,115l-5,-417l-8,414Z"/><path style="fill:rgb(0,91,0)" d="M-49,112l-23,-411l10,414Z"/><path style="fill:rgb(0,78,0)" d="M74,120l-2,-419l-10,414Z"/><path style="fill:rgb(0,85,0)" d="M137,172l45,-8l11,-153Z"/><path style="fill:rgb(0,88,0)" d="M-62,115l-25,-410l13,415Z"/><path style="fill:rgb(0,72,0)" d="M86,125l1,-420l-13,415Z"/><path style="fill:rgb(0,85,0)" d="M-74,120l-27,-411l15,416Z"/><path style="fill:rgb(0,66,0)" d="M97,131l4,-422l-15,416Z"/><path style="fill:rgb(0,80,0)" d="M-86,125l-28,-411l17,417Z"/><path style="fill:rgb(0,59,0)" d="M108,138l6,-424l-17,417Z"/><path style="fill:rgb(0,75,0)" d="M-97,131l-29,-411l18,418Z"/><path style="fill:rgb(0,52,0)" d="M117,146l9,-426l-18,418Z"/><path style="fill:rgb(0,69,0)" d="M-108,138l-29,-412l20,420Z"/><path style="fill:rgb(0,43,0)" d="M125,154l12,-428l-20,420Z"/><path style="fill:rgb(0,62,0)" d="M-117,146l-30,-413l22,421Z"/><path style="fill:rgb(0,35,0)" d="M132,163l15,-430l-22,421Z"/><path style="fill:rgb(0,54,0)" d="M-125,154l-30,-414l23,423Z"/><path style="fill:rgb(0,26,0)" d="M137,172l18,-432l-23,423Z"/><path style="fill:rgb(0,4,0)" d="M-190,230l-15,-169l12,156Z"/><path style="fill:rgb(0,46,0)" d="M-132,163l-29,-415l24,424Z"/><path style="fill:rgb(0,99,0)" d="M7,106l1,-413h-16ZM-7,106l-1,-413l-17,1Z"/><path style="fill:rgb(0,97,0)" d="M21,107l4,-413l-17,-1Z"/><path style="fill:rgb(0,99,0)" d="M-21,107l-4,-413l-16,2Z"/><path style="fill:rgb(0,95,0)" d="M35,109l6,-413l-16,-2Z"/><path style="fill:rgb(0,38,0)" d="M-137,172l-29,-416l25,425Z"/><path style="fill:rgb(0,98,0)" d="M-35,109l-6,-413l-16,2Z"/><path style="fill:rgb(0,91,0)" d="M49,112l8,-414l-16,-2Z"/><path style="fill:rgb(0,13,0)" d="M-185,244l-18,-170l13,156Z"/><path style="fill:rgb(0,96,0)" d="M-49,112l-8,-414l-15,3Z"/><path style="fill:rgb(0,87,0)" d="M62,115l10,-414l-15,-3Z"/><path style="fill:rgb(0,93,0)" d="M-62,115l-10,-414l-15,4Z"/><path style="fill:rgb(0,29,0)" d="M-141,181l-29,-417l26,427Z"/><path style="fill:rgb(0,82,0)" d="M74,120l13,-415l-15,-4Z"/><path style="fill:rgb(0,89,0)" d="M-74,120l-13,-415l-14,4Z"/><path style="fill:rgb(0,90,0)" d="M214,-259l-77,431l56,-161Z"/><path style="fill:rgb(0,22,0)" d="M-178,257l-20,-170l13,157Z"/><path style="fill:rgb(0,76,0)" d="M86,125l15,-416l-14,-4Z"/><path style="fill:rgb(0,20,0)" d="M-144,191l-27,-419l26,429Z"/><path style="fill:rgb(0,84,0)" d="M-86,125l-15,-416l-13,5Z"/><path style="fill:rgb(0,70,0)" d="M97,131l17,-417l-13,-5Z"/><path style="fill:rgb(0,4,0)" d="M-190,230l-13,-156l-2,-13Z"/><path style="fill:rgb(0,31,0)" d="M-169,270l-22,-170l13,157Z"/><path style="fill:rgb(0,78,0)" d="M-97,131l-17,-417l-12,6Z"/><path style="fill:rgb(0,62,0)" d="M108,138l18,-418l-12,-6Z"/><path style="fill:rgb(0,11,0)" d="M-145,201l-25,-420l26,430Z"/><path style="fill:rgb(0,72,0)" d="M-108,138l-18,-418l-11,6Z"/><path style="fill:rgb(0,14,0)" d="M-185,244l-13,-157l-5,-13Z"/><path style="fill:rgb(0,91,0)" d="M193,11l47,-8l-26,-262Z"/><path style="fill:rgb(0,54,0)" d="M117,146l20,-420l-11,-6Z"/><path style="fill:rgb(0,39,0)" d="M-158,282l-23,-170l12,158Z"/><path style="fill:rgb(0,57,0)" d="M8,-307l3,-22h-22Z"/><path style="fill:rgb(0,65,0)" d="M-117,146l-20,-420l-10,7Z"/><path style="fill:rgb(0,57,0)" d="M-8,-307l-3,-22l-21,1ZM25,-306l7,-22l-21,-1ZM-25,-306l-7,-22l-22,2Z"/><path style="fill:rgb(0,46,0)" d="M125,154l22,-421l-10,-7Z"/><path style="fill:rgb(0,57,0)" d="M41,-304l13,-22l-22,-2ZM-41,-304l-13,-22l-20,3Z"/><path style="fill:rgb(0,47,0)" d="M-145,293l-24,-170l11,159Z"/><path style="fill:rgb(0,57,0)" d="M57,-302l17,-21l-20,-3Z"/><path style="fill:rgb(0,23,0)" d="M-178,257l-13,-157l-7,-13Z"/><path style="fill:rgb(0,57,0)" d="M-125,154l-22,-421l-8,7ZM-57,-302l-17,-21l-21,3Z"/><path style="fill:rgb(0,58,0)" d="M8,-307l-19,-22l3,22ZM72,-299l23,-21l-21,-3ZM25,-306l-14,-23l-3,22ZM-8,-307l-24,-21l7,22Z"/><path style="fill:rgb(0,37,0)" d="M132,163l23,-423l-8,-7Z"/><path style="fill:rgb(0,58,0)" d="M41,-304l-9,-24l-7,22ZM-25,-306l-29,-20l13,22ZM-72,-299l-23,-21l-19,5ZM57,-302l-3,-24l-13,22Z"/><path style="fill:rgb(0,55,0)" d="M-130,303l-25,-169l10,159Z"/><path style="fill:rgb(0,58,0)" d="M-41,-304l-33,-19l17,21ZM87,-295l27,-20l-19,-5Z"/><path style="fill:rgb(0,32,0)" d="M-169,270l-12,-158l-10,-12Z"/><path style="fill:rgb(0,49,0)" d="M-132,163l-23,-423l-6,8Z"/><path style="fill:rgb(0,57,0)" d="M145,293l-6,-149l-9,159Z"/><path style="fill:rgb(0,58,0)" d="M72,-299l2,-24l-17,21ZM-57,-302l-38,-18l23,21Z"/><path style="fill:rgb(0,28,0)" d="M137,172l24,-424l-6,-8Z"/><path style="fill:rgb(0,58,0)" d="M-87,-295l-27,-20l-18,6Z"/><path style="fill:rgb(0,93,0)" d="M214,-259l-53,7l-24,424Z"/><path style="fill:rgb(0,58,0)" d="M101,-291l31,-18l-18,-6ZM87,-295l8,-25l-23,21Z"/><path style="fill:rgb(0,61,0)" d="M-113,312l-26,-168l9,159Z"/><path style="fill:rgb(0,58,0)" d="M-72,-299l-42,-16l27,20Z"/><path style="fill:rgb(0,64,0)" d="M130,303l-9,-150l-8,159Z"/><path style="fill:rgb(0,40,0)" d="M-137,172l-24,-424l-5,8Z"/><path style="fill:rgb(0,58,0)" d="M-101,-291l-31,-18l-18,6Z"/><path style="fill:rgb(0,40,0)" d="M-158,282l-11,-159l-12,-11Z"/><path style="fill:rgb(0,58,0)" d="M101,-291l13,-24l-27,20Z"/><path style="fill:rgb(0,59,0)" d="M114,-286l36,-17l-18,-6Z"/><path style="fill:rgb(0,67,0)" d="M-95,320l-26,-167l8,159Z"/><path style="fill:rgb(0,58,0)" d="M-87,-295l-45,-14l31,18Z"/><path style="fill:rgb(0,69,0)" d="M113,312l-12,-151l-6,159Z"/><path style="fill:rgb(0,59,0)" d="M114,-286l18,-23l-31,18Z"/><path style="fill:rgb(0,58,0)" d="M-114,-286l-36,-17l-16,8Z"/><path style="fill:rgb(0,72,0)" d="M-75,326l-26,-165l6,159Z"/><path style="fill:rgb(0,31,0)" d="M-141,181l-25,-425l-4,8Z"/><path style="fill:rgb(0,59,0)" d="M-101,-291l-49,-12l36,17Z"/><path style="fill:rgb(0,49,0)" d="M-145,293l-10,-159l-14,-11Z"/><path style="fill:rgb(0,59,0)" d="M126,-280l40,-15l-16,-8Z"/><path style="fill:rgb(0,74,0)" d="M95,320l-15,-153l-5,159Z"/><path style="fill:rgb(0,0,0)" d="M-258,66l30,-292l-29,276Z"/><path style="fill:rgb(0,76,0)" d="M-54,331l-26,-164l5,159Z"/><path style="fill:rgb(0,59,0)" d="M126,-280l24,-23l-36,17Z"/><path style="fill:rgb(0,77,0)" d="M75,326l-17,-155l-4,160Z"/><path style="fill:rgb(0,59,0)" d="M145,293l10,-159l-16,10ZM-126,-280l-40,-15l-15,8Z"/><path style="fill:rgb(0,79,0)" d="M-33,335l-25,-164l4,160Z"/><path style="fill:rgb(0,59,0)" d="M-114,-286l-52,-9l40,15Z"/><path style="fill:rgb(0,80,0)" d="M54,331l-19,-156l-2,160Z"/><path style="fill:rgb(0,21,0)" d="M-144,191l-26,-427l-1,8Z"/><path style="fill:rgb(0,56,0)" d="M-130,303l-9,-159l-16,-10Z"/><path style="fill:rgb(0,81,0)" d="M-11,336l-24,-161l2,160Z"/><path style="fill:rgb(0,59,0)" d="M137,-274l44,-13l-15,-8Z"/><path style="fill:rgb(0,81,0)" d="M33,335l-21,-159l-1,160Z"/><path style="fill:rgb(0,82,0)" d="M11,336l-23,-160l1,160Z"/><path style="fill:rgb(0,60,0)" d="M137,-274l29,-21l-40,15Z"/><path style="fill:rgb(0,65,0)" d="M130,303l9,-159l-18,9Z"/><path style="fill:rgb(0,59,0)" d="M-126,-280l-55,-7l44,13ZM-137,-274l-44,-13l-12,8Z"/><path style="fill:rgb(0,63,0)" d="M-113,312l-8,-159l-18,-9Z"/><path style="fill:rgb(0,0,0)" d="M-255,83l27,-298l-30,281Z"/><path style="fill:rgb(0,11,0)" d="M-145,201l-26,-429l1,9Z"/><path style="fill:rgb(0,60,0)" d="M147,-267l46,-12l-12,-8ZM147,-267l34,-20l-44,13Z"/><path style="fill:rgb(0,71,0)" d="M113,312l8,-159l-20,8Z"/><path style="fill:rgb(0,69,0)" d="M-95,320l-6,-159l-20,-8Z"/><path style="fill:rgb(0,60,0)" d="M-137,-274l-56,-5l46,12ZM-147,-267l-46,-12l-12,10Z"/><path style="fill:rgb(0,76,0)" d="M95,320l6,-159l-21,6Z"/><path style="fill:rgb(0,74,0)" d="M-75,326l-5,-159l-21,-6Z"/><path style="fill:rgb(0,60,0)" d="M155,-260l50,-9l-12,-10ZM155,-260l38,-19l-46,12Z"/><path style="fill:rgb(0,0,0)" d="M-250,99l24,-302l-29,286Z"/><path style="fill:rgb(0,79,0)" d="M75,326l5,-159l-22,4Z"/><path style="fill:rgb(0,78,0)" d="M-54,331l-4,-160l-22,-4Z"/><path style="fill:rgb(0,60,0)" d="M-147,-267l-58,-2l50,9Z"/><path style="fill:rgb(0,82,0)" d="M54,331l4,-160l-23,4Z"/><path style="fill:rgb(0,81,0)" d="M-33,335l-2,-160l-23,-4Z"/><path style="fill:rgb(0,60,0)" d="M-155,-260l-50,-9l-9,10Z"/><path style="fill:rgb(0,83,0)" d="M33,335l2,-160l-23,1ZM-11,336l-1,-160l-23,-1Z"/><path style="fill:rgb(0,84,0)" d="M11,336l1,-160h-24Z"/><path style="fill:rgb(0,61,0)" d="M161,-252l44,-17l-50,9ZM161,-252l53,-7l-9,-10Z"/><path style="fill:rgb(0,60,0)" d="M-155,-260l-59,1l53,7Z"/><path style="fill:rgb(0,10,0)" d="M-241,115l21,-307l-30,291Z"/><path style="fill:rgb(0,61,0)" d="M-161,-252l-53,-7l-7,11Z"/><path style="fill:rgb(0,0,0)" d="M-258,66l30,-281v-11Z"/><path style="fill:rgb(0,61,0)" d="M-161,-252l-60,4l55,4Z"/><path style="fill:rgb(0,19,0)" d="M-229,131l17,-312l-29,296Z"/><path style="fill:rgb(0,61,0)" d="M-166,-244l-55,-4l-5,10Z"/><path style="fill:rgb(0,0,0)" d="M-255,83l29,-286l-2,-12Z"/><path style="fill:rgb(0,61,0)" d="M-166,-244l-60,6l56,2Z"/><path style="fill:rgb(0,28,0)" d="M-215,146l13,-316l-27,301Z"/><path style="fill:rgb(0,62,0)" d="M-170,-236l-56,-2l-2,12ZM-170,-236l-58,10l57,-2Z"/><path style="fill:rgb(0,2,0)" d="M-250,99l30,-291l-6,-11Z"/><path style="fill:rgb(0,36,0)" d="M-197,159l8,-319l-26,306Z"/><path style="fill:rgb(0,62,0)" d="M-171,-228l-57,2v11ZM-171,-228l-57,13l58,-4Z"/><path style="fill:rgb(0,12,0)" d="M-241,115l29,-296l-8,-11Z"/><path style="fill:rgb(0,44,0)" d="M-177,172l4,-322l-24,309Z"/><path style="fill:rgb(0,63,0)" d="M-170,-219l-58,4l2,12Z"/><path style="fill:rgb(0,47,0)" d="M197,159l-42,-300l22,313Z"/><path style="fill:rgb(0,63,0)" d="M-170,-219l-56,16l58,-8Z"/><path style="fill:rgb(0,22,0)" d="M-229,131l27,-301l-10,-11Z"/><path style="fill:rgb(0,52,0)" d="M-155,184v-325l-22,313Z"/><path style="fill:rgb(0,54,0)" d="M177,172l-42,-305l20,317Z"/><path style="fill:rgb(0,63,0)" d="M-168,-211l-58,8l6,11Z"/><path style="fill:rgb(0,64,0)" d="M-168,-211l-52,19l56,-10Z"/><path style="fill:rgb(0,58,0)" d="M-130,194l-5,-327l-20,317Z"/><path style="fill:rgb(0,31,0)" d="M-215,146l26,-306l-13,-10Z"/><path style="fill:rgb(0,60,0)" d="M155,184l-41,-311l16,321Z"/><path style="fill:rgb(0,64,0)" d="M-164,-202l-48,21l55,-13ZM-164,-202l-56,10l8,11Z"/><path style="fill:rgb(0,63,0)" d="M-103,202l-11,-329l-16,321Z"/><path style="fill:rgb(0,65,0)" d="M130,194l-40,-315l13,323Z"/><path style="fill:rgb(0,40,0)" d="M-197,159l24,-309l-16,-10Z"/><path style="fill:rgb(0,68,0)" d="M-75,208l-15,-329l-13,323Z"/><path style="fill:rgb(0,69,0)" d="M103,202l-38,-319l10,325Z"/><path style="fill:rgb(0,65,0)" d="M-157,-194l-45,24l53,-16Z"/><path style="fill:rgb(0,71,0)" d="M-45,212l-20,-329l-10,325Z"/><path style="fill:rgb(0,65,0)" d="M-157,-194l-55,13l10,11Z"/><path style="fill:rgb(0,72,0)" d="M75,208l-35,-322l5,326Z"/><path style="fill:rgb(0,51,0)" d="M197,159l-24,-309l-18,9Z"/><path style="fill:rgb(0,73,0)" d="M-15,214l-25,-328l-5,326Z"/><path style="fill:rgb(0,74,0)" d="M45,212l-32,-324l2,326ZM15,214l-28,-326l-2,326Z"/><path style="fill:rgb(0,48,0)" d="M-177,172l22,-313l-18,-9Z"/><path style="fill:rgb(0,65,0)" d="M-149,-186l-40,26l50,-19Z"/><path style="fill:rgb(0,58,0)" d="M177,172l-22,-313l-20,8Z"/><path style="fill:rgb(0,65,0)" d="M-149,-186l-53,16l13,10Z"/><path style="fill:rgb(0,56,0)" d="M-155,184l20,-317l-20,-8Z"/><path style="fill:rgb(0,66,0)" d="M-139,-179l-34,29l46,-22Z"/><path style="fill:rgb(0,65,0)" d="M155,184l-20,-317l-21,6Z"/><path style="fill:rgb(0,66,0)" d="M-139,-179l-50,19l16,10Z"/><path style="fill:rgb(0,67,0)" d="M114,-165l59,15l-46,-22Z"/><path style="fill:rgb(0,62,0)" d="M-130,194l16,-321l-21,-6Z"/><path style="fill:rgb(0,66,0)" d="M-127,-172l-28,31l41,-24Z"/><path style="fill:rgb(0,70,0)" d="M130,194l-16,-321l-24,6Z"/><path style="fill:rgb(0,68,0)" d="M-103,202l13,-323l-24,-6Z"/><path style="fill:rgb(0,67,0)" d="M99,-160l56,19l-41,-24Z"/><path style="fill:rgb(0,66,0)" d="M-127,-172l-46,22l18,9Z"/><path style="fill:rgb(0,67,0)" d="M-114,-165l-21,32l36,-27Z"/><path style="fill:rgb(0,74,0)" d="M103,202l-13,-323l-25,4Z"/><path style="fill:rgb(0,67,0)" d="M114,-165l41,24l18,-9Z"/><path style="fill:rgb(0,73,0)" d="M-75,208l10,-325l-25,-4Z"/><path style="fill:rgb(0,67,0)" d="M83,-155l52,22l-36,-27Z"/><path style="fill:rgb(0,77,0)" d="M75,208l-10,-325l-25,3Z"/><path style="fill:rgb(0,76,0)" d="M-45,212l5,-326l-25,-3Z"/><path style="fill:rgb(0,67,0)" d="M-99,-160l-15,33l31,-28ZM-114,-165l-41,24l20,8Z"/><path style="fill:rgb(0,79,0)" d="M45,212l-5,-326l-27,2Z"/><path style="fill:rgb(0,78,0)" d="M-15,214l2,-326l-27,-2Z"/><path style="fill:rgb(0,79,0)" d="M15,214l-2,-326h-26Z"/><path style="fill:rgb(0,68,0)" d="M99,-160l36,27l20,-8ZM66,-151l48,24l-31,-28Z"/><path style="fill:rgb(0,67,0)" d="M-83,-155l-7,34l24,-30Z"/><path style="fill:rgb(0,68,0)" d="M48,-148l42,27l-24,-30Z"/><path style="fill:rgb(0,67,0)" d="M-99,-160l-36,27l21,6Z"/><path style="fill:rgb(0,68,0)" d="M-66,-151l1,34l17,-31ZM83,-155l31,28l21,-6ZM29,-146l36,29l-17,-31ZM-48,-148l8,34l11,-32ZM10,-145l30,31l-11,-32ZM-29,-146l16,34l3,-33ZM-83,-155l-31,28l24,6ZM-10,-145l23,33l-3,-33ZM66,-151l24,30l24,-6ZM-66,-151l-24,30l25,4Z"/><path style="fill:rgb(0,69,0)" d="M48,-148l17,31l25,-4Z"/><path style="fill:rgb(0,68,0)" d="M-48,-148l-17,31l25,3Z"/><path style="fill:rgb(0,69,0)" d="M29,-146l11,32l25,-3ZM-29,-146l-11,32l27,2ZM10,-145l3,33l27,-2ZM-10,-145l-3,33h26Z"/></svg>