<svg width="1200" height="800" xmlns="http://www.w3.org/2000/svg">
 <svg width="1200" height="800" viewBox="-600 -400 1200 800" style="background: rgb(255, 255, 255);">
  <path style="fill:rgb(364,0,364)" d="M-11,-307L-3,156L3,156z"></path>
  <path style="fill:rgb(363,0,363)" d="M11,-307L2,156L9,157zM-32,-307L-9,157L-2,156z"></path>
  <path style="fill:rgb(361,0,361)" d="M32,-307L8,157L15,158zM-53,-305L-15,158L-8,157z"></path>
  <path style="fill:rgb(357,0,357)" d="M53,-305L14,157L20,159z"></path>
  <path style="fill:rgb(358,0,358)" d="M-74,-302L-20,159L-14,157z"></path>
  <path style="fill:rgb(351,0,351)" d="M74,-302L19,158L25,160z"></path>
  <path style="fill:rgb(353,0,353)" d="M-94,-299L-25,160L-19,158z"></path>
  <path style="fill:rgb(345,0,345)" d="M94,-299L24,160L30,162z"></path>
  <path style="fill:rgb(346,0,346)" d="M-113,-294L-30,162L-24,160z"></path>
  <path style="fill:rgb(336,0,336)" d="M113,-294L29,162L35,164z"></path>
  <path style="fill:rgb(339,0,339)" d="M-132,-289L-35,164L-29,161z"></path>
  <path style="fill:rgb(326,0,326)" d="M132,-289L34,164L39,166z"></path>
  <path style="fill:rgb(329,0,329)" d="M-149,-284L-39,166L-34,163z"></path>
  <path style="fill:rgb(315,0,315)" d="M149,-284L38,166L43,169z"></path>
  <path style="fill:rgb(318,0,318)" d="M-165,-277L-43,169L-38,166z"></path>
  <path style="fill:rgb(301,0,301)" d="M165,-277L42,168L47,172z"></path>
  <path style="fill:rgb(364,0,364)" d="M-11,-307L3,157L11,-307z"></path>
  <path style="fill:rgb(305,0,305)" d="M-180,-270L-47,172L-42,168z"></path>
  <path style="fill:rgb(363,0,363)" d="M-33,-306L-3,157L-10,-307zM10,-307L9,157L33,-306z"></path>
  <path style="fill:rgb(361,0,361)" d="M-54,-304L-8,157L-32,-306z"></path>
  <path style="fill:rgb(286,0,286)" d="M180,-270L46,171L50,175z"></path>
  <path style="fill:rgb(361,0,361)" d="M32,-306L14,158L54,-304z"></path>
  <path style="fill:rgb(358,0,358)" d="M-74,-302L-14,158L-53,-304z"></path>
  <path style="fill:rgb(357,0,357)" d="M53,-304L20,159L74,-302z"></path>
  <path style="fill:rgb(283,0,283)" d="M11,-306L14,-329L-14,-329zM-10,-306L-13,-329L-41,-328zM32,-305L41,-328L13,-329z"></path>
  <path style="fill:rgb(290,0,290)" d="M-192,-262L-50,175L-46,171z"></path>
  <path style="fill:rgb(283,0,283)" d="M-31,-305L-40,-328L-67,-325z"></path>
  <path style="fill:rgb(353,0,353)" d="M-94,-298L-19,159L-73,-302z"></path>
  <path style="fill:rgb(270,0,270)" d="M192,-262L49,174L52,178z"></path>
  <path style="fill:rgb(351,0,351)" d="M73,-302L25,160L94,-298z"></path>
  <path style="fill:rgb(283,0,283)" d="M53,-303L67,-326L39,-328zM-52,-303L-66,-326L-93,-322z"></path>
  <path style="fill:rgb(346,0,346)" d="M-114,-294L-25,160L-93,-298z"></path>
  <path style="fill:rgb(283,0,283)" d="M74,-300L93,-322L66,-326z"></path>
  <path style="fill:rgb(274,0,274)" d="M-204,-253L-52,178L-49,174z"></path>
  <path style="fill:rgb(345,0,345)" d="M93,-298L30,162L114,-294z"></path>
  <path style="fill:rgb(254,0,254)" d="M204,-253L51,177L54,182z"></path>
  <path style="fill:rgb(283,0,283)" d="M12,-306L-14,-329L-11,-306zM-73,-301L-92,-323L-119,-318zM33,-305L13,-329L10,-306zM-10,-306L-41,-328L-32,-305z"></path>
  <path style="fill:rgb(339,0,339)" d="M-132,-289L-30,162L-113,-294z"></path>
  <path style="fill:rgb(283,0,283)" d="M93,-297L119,-318L92,-323z"></path>
  <path style="fill:rgb(336,0,336)" d="M113,-294L34,164L132,-289z"></path>
  <path style="fill:rgb(283,0,283)" d="M54,-303L40,-328L31,-305z"></path>
  <path style="fill:rgb(258,0,258)" d="M-213,-244L-54,182L-51,177z"></path>
  <path style="fill:rgb(283,0,283)" d="M-31,-305L-67,-326L-53,-303z"></path>
  <path style="fill:rgb(235,0,235)" d="M213,-244L53,181L55,185z"></path>
  <path style="fill:rgb(283,0,283)" d="M74,-301L67,-326L52,-303zM-93,-297L-118,-318L-143,-313zM-52,-304L-93,-323L-74,-301z"></path>
  <path style="fill:rgb(329,0,329)" d="M-149,-283L-34,164L-131,-289z"></path>
  <path style="fill:rgb(326,0,326)" d="M131,-289L39,167L149,-283z"></path>
  <path style="fill:rgb(283,0,283)" d="M113,-293L143,-313L117,-318z"></path>
  <path style="fill:rgb(241,0,241)" d="M-220,-235L-55,185L-53,181z"></path>
  <path style="fill:rgb(283,0,283)" d="M94,-297L93,-323L73,-301z"></path>
  <path style="fill:rgb(214,0,214)" d="M220,-235L55,184L56,189z"></path>
  <path style="fill:rgb(283,0,283)" d="M-73,-301L-118,-318L-94,-297z"></path>
  <path style="fill:rgb(318,0,318)" d="M-165,-276L-39,167L-148,-283z"></path>
  <path style="fill:rgb(283,0,283)" d="M-112,-293L-142,-313L-166,-306z"></path>
  <path style="fill:rgb(315,0,315)" d="M148,-283L43,169L165,-276z"></path>
  <path style="fill:rgb(283,0,283)" d="M113,-293L118,-319L93,-298z"></path>
  <path style="fill:rgb(220,0,220)" d="M-225,-225L-56,189L-55,184z"></path>
  <path style="fill:rgb(283,0,283)" d="M131,-288L166,-307L142,-313zM-93,-298L-143,-313L-113,-293z"></path>
  <path style="fill:rgb(189,0,189)" d="M225,-225L56,188L56,193z"></path>
  <path style="fill:rgb(305,0,305)" d="M-180,-269L-43,169L-164,-277z"></path>
  <path style="fill:rgb(301,0,301)" d="M164,-277L46,172L180,-269z"></path>
  <path style="fill:rgb(283,0,283)" d="M132,-288L143,-313L112,-293zM-130,-288L-165,-307L-188,-299z"></path>
  <path style="fill:rgb(196,0,196)" d="M-227,-215L-56,193L-56,188z"></path>
  <path style="fill:rgb(166,0,166)" d="M227,-215L56,192L55,196z"></path>
  <path style="fill:rgb(283,0,283)" d="M-112,-294L-166,-307L-131,-288zM148,-282L188,-299L165,-307z"></path>
  <path style="fill:rgb(290,0,290)" d="M-193,-261L-46,172L-179,-269z"></path>
  <path style="fill:rgb(286,0,286)" d="M179,-269L49,175L193,-261z"></path>
  <path style="fill:rgb(175,0,175)" d="M-227,-204L-55,196L-56,192z"></path>
  <path style="fill:rgb(283,0,283)" d="M149,-282L166,-307L131,-288z"></path>
  <path style="fill:rgb(144,0,144)" d="M227,-204L56,195L54,200z"></path>
  <path style="fill:rgb(283,0,283)" d="M-148,-282L-187,-300L-209,-291zM-130,-288L-188,-300L-149,-282zM164,-275L209,-291L187,-300z"></path>
  <path style="fill:rgb(150,0,150)" d="M-225,-194L-54,200L-56,195z"></path>
  <path style="fill:rgb(274,0,274)" d="M-204,-252L-49,175L-192,-262z"></path>
  <path style="fill:rgb(270,0,270)" d="M192,-262L52,178L204,-252z"></path>
  <path style="fill:rgb(283,0,283)" d="M165,-275L188,-300L148,-283zM-148,-283L-209,-291L-165,-276zM-164,-276L-208,-291L-228,-282z"></path>
  <path style="fill:rgb(258,0,258)" d="M-213,-243L-51,178L-203,-253z"></path>
  <path style="fill:rgb(283,0,283)" d="M178,-268L228,-282L208,-292z"></path>
  <path style="fill:rgb(254,0,254)" d="M203,-253L53,182L213,-243z"></path>
  <path style="fill:rgb(283,0,283)" d="M179,-268L209,-292L164,-276zM-164,-276L-228,-282L-179,-268zM-178,-269L-227,-282L-245,-272z"></path>
  <path style="fill:rgb(241,0,241)" d="M-220,-234L-53,182L-212,-244z"></path>
  <path style="fill:rgb(235,0,235)" d="M212,-244L55,185L220,-234z"></path>
  <path style="fill:rgb(193,0,193)" d="M-286,-173L-107,215L-102,223z"></path>
  <path style="fill:rgb(283,0,283)" d="M191,-260L245,-272L227,-283zM192,-260L228,-282L178,-269z"></path>
  <path style="fill:rgb(200,0,200)" d="M276,-159L102,223L107,215z"></path>
  <path style="fill:rgb(283,0,283)" d="M-178,-269L-245,-272L-192,-260z"></path>
  <path style="fill:rgb(220,0,220)" d="M-225,-224L-55,185L-220,-235z"></path>
  <path style="fill:rgb(214,0,214)" d="M220,-235L56,189L225,-224z"></path>
  <path style="fill:rgb(212,0,212)" d="M-276,-159L-102,222L-96,230z"></path>
  <path style="fill:rgb(283,0,283)" d="M-191,-261L-244,-272L-260,-261zM202,-252L260,-261L244,-273zM203,-252L245,-272L191,-261z"></path>
  <path style="fill:rgb(217,0,217)" d="M264,-146L96,230L102,222z"></path>
  <path style="fill:rgb(196,0,196)" d="M-227,-214L-56,189L-225,-225z"></path>
  <path style="fill:rgb(189,0,189)" d="M225,-225L56,193L227,-214z"></path>
  <path style="fill:rgb(283,0,283)" d="M-191,-261L-260,-261L-203,-252z"></path>
  <path style="fill:rgb(227,0,227)" d="M-264,-146L-97,229L-90,236z"></path>
  <path style="fill:rgb(283,0,283)" d="M-202,-252L-259,-262L-272,-250z"></path>
  <path style="fill:rgb(232,0,232)" d="M247,-134L90,236L97,229z"></path>
  <path style="fill:rgb(283,0,283)" d="M212,-243L260,-262L202,-253z"></path>
  <path style="fill:rgb(175,0,175)" d="M-227,-203L-56,193L-227,-215z"></path>
  <path style="fill:rgb(283,0,283)" d="M212,-243L272,-250L259,-262z"></path>
  <path style="fill:rgb(241,0,241)" d="M-247,-134L-90,235L-82,242z"></path>
  <path style="fill:rgb(166,0,166)" d="M227,-215L55,196L227,-203z"></path>
  <path style="fill:rgb(283,0,283)" d="M-202,-253L-272,-250L-212,-243z"></path>
  <path style="fill:rgb(245,0,245)" d="M228,-122L82,242L90,235z"></path>
  <path style="fill:rgb(256,0,256)" d="M-228,-122L-83,241L-73,247z"></path>
  <path style="fill:rgb(150,0,150)" d="M-225,-193L-55,196L-227,-204z"></path>
  <path style="fill:rgb(283,0,283)" d="M-212,-243L-271,-250L-282,-237z"></path>
  <path style="fill:rgb(144,0,144)" d="M227,-204L54,200L225,-193z"></path>
  <path style="fill:rgb(283,0,283)" d="M219,-233L272,-250L212,-244z"></path>
  <path style="fill:rgb(259,0,259)" d="M205,-111L73,247L83,241z"></path>
  <path style="fill:rgb(283,0,283)" d="M219,-233L282,-237L271,-250z"></path>
  <path style="fill:rgb(269,0,269)" d="M-205,-111L-74,246L-63,252z"></path>
  <path style="fill:rgb(283,0,283)" d="M-212,-244L-282,-238L-219,-233z"></path>
  <path style="fill:rgb(272,0,272)" d="M179,-101L63,252L74,246z"></path>
  <path style="fill:rgb(280,0,280)" d="M-179,-101L-64,251L-53,256z"></path>
  <path style="fill:rgb(283,0,283)" d="M-219,-234L-281,-238L-289,-225zM150,-93L53,256L64,251zM224,-223L282,-238L219,-234z"></path>
  <path style="fill:rgb(289,0,289)" d="M-150,-93L-54,255L-42,259z"></path>
  <path style="fill:rgb(283,0,283)" d="M223,-224L289,-225L281,-238z"></path>
  <path style="fill:rgb(291,0,291)" d="M120,-86L42,259L54,255z"></path>
  <path style="fill:rgb(283,0,283)" d="M-219,-234L-289,-225L-224,-223z"></path>
  <path style="fill:rgb(296,0,296)" d="M-120,-86L-43,259L-30,261z"></path>
  <path style="fill:rgb(297,0,297)" d="M87,-81L30,261L43,259z"></path>
  <path style="fill:rgb(301,0,301)" d="M-87,-81L-31,261L-18,263z"></path>
  <path style="fill:rgb(302,0,302)" d="M53,-77L18,263L31,261z"></path>
  <path style="fill:rgb(304,0,304)" d="M-53,-77L-19,263L-6,264zM18,-75L6,264L19,263z"></path>
  <path style="fill:rgb(305,0,305)" d="M-18,-75L-7,264L7,264z"></path>
  <path style="fill:rgb(283,0,283)" d="M227,-213L289,-225L224,-224zM-223,-224L-289,-226L-293,-212z"></path>
  <path style="fill:rgb(200,0,200)" d="M276,-158L106,216L286,-173z"></path>
  <path style="fill:rgb(283,0,283)" d="M226,-214L293,-212L288,-226z"></path>
  <path style="fill:rgb(193,0,193)" d="M-286,-173L-102,223L-276,-158z"></path>
  <path style="fill:rgb(283,0,283)" d="M-224,-224L-293,-212L-227,-213zM227,-203L293,-212L226,-214zM-226,-214L-293,-213L-294,-198z"></path>
  <path style="fill:rgb(217,0,217)" d="M263,-145L102,223L277,-159z"></path>
  <path style="fill:rgb(212,0,212)" d="M-277,-159L-96,230L-263,-145z"></path>
  <path style="fill:rgb(283,0,283)" d="M-226,-214L-294,-199L-227,-203zM226,-203L294,-198L293,-213zM224,-192L294,-199L227,-204z"></path>
  <path style="fill:rgb(232,0,232)" d="M247,-133L96,230L264,-146z"></path>
  <path style="fill:rgb(227,0,227)" d="M-264,-146L-90,236L-247,-133z"></path>
  <path style="fill:rgb(283,0,283)" d="M-226,-203L-294,-199L-291,-185zM-227,-204L-292,-185L-224,-192zM224,-193L291,-185L294,-199z"></path>
  <path style="fill:rgb(245,0,245)" d="M227,-121L90,236L248,-133z"></path>
  <path style="fill:rgb(241,0,241)" d="M-248,-133L-82,242L-227,-121z"></path>
  <path style="fill:rgb(283,0,283)" d="M219,-182L292,-185L224,-193zM-224,-193L-292,-186L-286,-171zM-224,-193L-286,-171L-219,-182z"></path>
  <path style="fill:rgb(259,0,259)" d="M204,-110L82,242L228,-122z"></path>
  <path style="fill:rgb(283,0,283)" d="M218,-183L286,-171L292,-186z"></path>
  <path style="fill:rgb(256,0,256)" d="M-228,-122L-73,247L-204,-110z"></path>
  <path style="fill:rgb(283,0,283)" d="M211,-172L286,-172L219,-183z"></path>
  <path style="fill:rgb(272,0,272)" d="M178,-101L73,247L205,-111z"></path>
  <path style="fill:rgb(269,0,269)" d="M-205,-111L-64,252L-178,-101z"></path>
  <path style="fill:rgb(283,0,283)" d="M-219,-183L-277,-158L-211,-172zM-218,-183L-286,-172L-276,-158zM211,-173L276,-158L286,-172zM150,-92L64,252L179,-101z"></path>
  <path style="fill:rgb(280,0,280)" d="M-179,-101L-53,256L-150,-92z"></path>
  <path style="fill:rgb(283,0,283)" d="M200,-162L277,-158L211,-173zM-212,-173L-264,-145L-200,-162z"></path>
  <path style="fill:rgb(291,0,291)" d="M119,-86L53,256L151,-93z"></path>
  <path style="fill:rgb(289,0,289)" d="M-151,-93L-42,259L-119,-86z"></path>
  <path style="fill:rgb(283,0,283)" d="M-211,-173L-277,-159L-263,-145zM200,-163L263,-145L277,-159z"></path>
  <path style="fill:rgb(297,0,297)" d="M86,-80L42,259L120,-86z"></path>
  <path style="fill:rgb(296,0,296)" d="M-120,-86L-30,262L-86,-80z"></path>
  <path style="fill:rgb(283,0,283)" d="M187,-153L264,-145L201,-163z"></path>
  <path style="fill:rgb(302,0,302)" d="M52,-77L30,262L87,-80z"></path>
  <path style="fill:rgb(301,0,301)" d="M-87,-80L-18,263L-52,-77z"></path>
  <path style="fill:rgb(283,0,283)" d="M-201,-163L-248,-132L-187,-153z"></path>
  <path style="fill:rgb(304,0,304)" d="M17,-75L18,263L53,-77zM-53,-77L-6,264L-17,-75z"></path>
  <path style="fill:rgb(305,0,305)" d="M-18,-75L6,264L18,-75z"></path>
  <path style="fill:rgb(283,0,283)" d="M-200,-163L-264,-145L-247,-132zM187,-153L247,-132L264,-146zM172,-144L248,-133L188,-154zM-188,-154L-228,-121L-172,-144zM-187,-154L-248,-133L-227,-120zM154,-136L228,-121L173,-145zM172,-145L227,-121L248,-133zM-173,-145L-205,-110L-154,-137zM134,-129L205,-110L155,-137zM-172,-145L-228,-121L-204,-110zM154,-137L205,-110L228,-121zM-155,-137L-179,-100L-134,-129zM112,-123L180,-100L135,-130zM-154,-137L-205,-110L-179,-100zM-135,-130L-151,-91L-112,-123zM134,-130L179,-100L206,-110zM89,-118L151,-92L113,-124zM-114,-124L-120,-84L-89,-118zM-135,-130L-180,-100L-150,-92zM64,-114L120,-85L90,-119zM112,-124L150,-92L180,-100zM-90,-119L-87,-79L-64,-115zM39,-112L87,-79L65,-115zM-66,-115L-53,-75L-39,-112zM-113,-124L-151,-92L-119,-85zM12,-111L53,-75L40,-112zM-40,-112L-17,-73L-13,-111zM89,-119L119,-85L151,-92zM-14,-111L18,-74L14,-111zM-90,-119L-120,-85L-86,-79zM64,-115L86,-79L120,-85zM-65,-115L-87,-79L-52,-76zM39,-112L52,-76L88,-80zM-40,-112L-53,-76L-17,-74zM13,-111L17,-74L53,-76zM-13,-111L-18,-74L18,-74z"></path>
 </svg>
</svg>