<svg width="1200" height="800" xmlns="http://www.w3.org/2000/svg">
 <svg width="1200" height="800" viewBox="-600 -400 1200 800" style="background: rgb(255, 255, 255);">
  <path style="fill:rgb(0,167,0)" d="M8,107L-8,-308L-8,107zM22,108L8,-308L7,107zM-7,107L-25,-307L-22,108z"></path>
  <path style="fill:rgb(0,165,0)" d="M36,110L25,-307L21,108z"></path>
  <path style="fill:rgb(0,166,0)" d="M-21,108L-41,-305L-36,110z"></path>
  <path style="fill:rgb(0,163,0)" d="M49,112L41,-305L35,109z"></path>
  <path style="fill:rgb(0,164,0)" d="M-35,109L-57,-303L-49,112z"></path>
  <path style="fill:rgb(0,160,0)" d="M62,116L57,-303L48,112z"></path>
  <path style="fill:rgb(0,161,0)" d="M-48,112L-72,-300L-62,116z"></path>
  <path style="fill:rgb(0,156,0)" d="M75,121L72,-300L61,116z"></path>
  <path style="fill:rgb(0,157,0)" d="M-61,116L-87,-296L-75,121z"></path>
  <path style="fill:rgb(0,151,0)" d="M87,126L87,-296L74,120z"></path>
  <path style="fill:rgb(0,152,0)" d="M-74,120L-101,-292L-87,126z"></path>
  <path style="fill:rgb(0,145,0)" d="M98,132L101,-292L86,125z"></path>
  <path style="fill:rgb(0,147,0)" d="M-86,125L-114,-287L-98,132z"></path>
  <path style="fill:rgb(0,138,0)" d="M108,139L114,-287L97,132z"></path>
  <path style="fill:rgb(0,140,0)" d="M-97,132L-126,-281L-108,139z"></path>
  <path style="fill:rgb(0,130,0)" d="M117,147L126,-281L107,138z"></path>
  <path style="fill:rgb(0,132,0)" d="M-107,138L-137,-275L-117,147z"></path>
  <path style="fill:rgb(0,122,0)" d="M125,155L137,-275L116,146z"></path>
  <path style="fill:rgb(0,125,0)" d="M-116,146L-147,-268L-125,155z"></path>
  <path style="fill:rgb(0,114,0)" d="M132,164L147,-268L124,154z"></path>
  <path style="fill:rgb(0,117,0)" d="M-124,154L-155,-261L-132,164z"></path>
  <path style="fill:rgb(0,104,0)" d="M137,173L155,-261L131,163z"></path>
  <path style="fill:rgb(0,91,0)" d="M-190,231L-205,60L-193,217z"></path>
  <path style="fill:rgb(0,107,0)" d="M-131,163L-161,-253L-137,173z"></path>
  <path style="fill:rgb(0,165,0)" d="M161,-253L136,172L182,164z"></path>
  <path style="fill:rgb(0,167,0)" d="M7,107L9,-307L-9,-307zM-7,107L-8,-307L-25,-306zM21,108L25,-306L8,-307z"></path>
  <path style="fill:rgb(0,166,0)" d="M-21,108L-24,-306L-42,-305z"></path>
  <path style="fill:rgb(0,165,0)" d="M35,110L42,-305L24,-306z"></path>
  <path style="fill:rgb(0,95,0)" d="M-137,172L-166,-245L-141,182z"></path>
  <path style="fill:rgb(0,164,0)" d="M-35,110L-41,-305L-58,-303z"></path>
  <path style="fill:rgb(0,163,0)" d="M49,113L57,-303L41,-305z"></path>
  <path style="fill:rgb(0,104,0)" d="M-185,245L-203,73L-190,230z"></path>
  <path style="fill:rgb(0,161,0)" d="M-49,113L-57,-303L-73,-299z"></path>
  <path style="fill:rgb(0,160,0)" d="M62,116L73,-300L56,-303z"></path>
  <path style="fill:rgb(0,157,0)" d="M-62,116L-72,-300L-88,-296z"></path>
  <path style="fill:rgb(0,81,0)" d="M-141,181L-170,-237L-144,192z"></path>
  <path style="fill:rgb(0,156,0)" d="M74,121L88,-296L72,-300z"></path>
  <path style="fill:rgb(0,152,0)" d="M-74,121L-87,-296L-102,-291z"></path>
  <path style="fill:rgb(0,114,0)" d="M-178,258L-198,86L-186,244z"></path>
  <path style="fill:rgb(0,151,0)" d="M86,126L102,-291L87,-296z"></path>
  <path style="fill:rgb(0,165,0)" d="M161,-253L182,165L193,11z"></path>
  <path style="fill:rgb(0,62,0)" d="M-143,191L-171,-229L-145,202z"></path>
  <path style="fill:rgb(0,147,0)" d="M-86,126L-101,-292L-115,-286z"></path>
  <path style="fill:rgb(0,145,0)" d="M97,132L115,-286L101,-292z"></path>
  <path style="fill:rgb(0,91,0)" d="M-190,231L-203,74L-206,60z"></path>
  <path style="fill:rgb(0,122,0)" d="M-169,270L-191,99L-179,257z"></path>
  <path style="fill:rgb(0,140,0)" d="M-97,132L-114,-287L-127,-281z"></path>
  <path style="fill:rgb(0,138,0)" d="M108,139L127,-281L114,-287z"></path>
  <path style="fill:rgb(0,54,0)" d="M-145,201L-170,-220L-144,212z"></path>
  <path style="fill:rgb(0,132,0)" d="M-108,139L-126,-281L-138,-274z"></path>
  <path style="fill:rgb(0,104,0)" d="M-185,245L-198,87L-203,73z"></path>
  <path style="fill:rgb(0,130,0)" d="M117,147L138,-274L126,-281zM-158,282L-181,111L-170,270z"></path>
  <path style="fill:rgb(0,165,0)" d="M193,12L241,4L161,-253z"></path>
  <path style="fill:rgb(0,158,0)" d="M9,-306L11,-330L-12,-330z"></path>
  <path style="fill:rgb(0,125,0)" d="M-117,147L-137,-275L-147,-267z"></path>
  <path style="fill:rgb(0,158,0)" d="M-8,-306L-10,-330L-33,-329zM25,-305L33,-329L10,-330zM-24,-305L-32,-329L-54,-327z"></path>
  <path style="fill:rgb(0,122,0)" d="M125,155L147,-268L137,-275z"></path>
  <path style="fill:rgb(0,158,0)" d="M41,-303L54,-327L32,-329zM-40,-304L-53,-327L-75,-324z"></path>
  <path style="fill:rgb(0,138,0)" d="M-144,294L-169,123L-158,282z"></path>
  <path style="fill:rgb(0,158,0)" d="M57,-301L75,-324L53,-327z"></path>
  <path style="fill:rgb(0,114,0)" d="M-178,258L-190,100L-198,86z"></path>
  <path style="fill:rgb(0,117,0)" d="M-125,155L-146,-268L-155,-260z"></path>
  <path style="fill:rgb(0,158,0)" d="M-56,-301L-74,-324L-95,-320zM9,-306L-11,-330L-9,-306zM72,-298L95,-320L74,-324zM26,-305L11,-330L8,-306zM-7,-306L-33,-329L-25,-305z"></path>
  <path style="fill:rgb(0,114,0)" d="M132,164L155,-260L146,-268z"></path>
  <path style="fill:rgb(0,158,0)" d="M42,-304L32,-329L24,-305zM-24,-306L-54,-327L-41,-304zM-72,-299L-94,-320L-115,-315zM58,-302L54,-327L40,-304z"></path>
  <path style="fill:rgb(0,145,0)" d="M-129,304L-155,133L-145,293z"></path>
  <path style="fill:rgb(0,158,0)" d="M-40,-304L-75,-324L-57,-302zM87,-295L115,-315L94,-320z"></path>
  <path style="fill:rgb(0,122,0)" d="M-169,271L-181,112L-191,99z"></path>
  <path style="fill:rgb(0,107,0)" d="M-132,164L-155,-261L-162,-253z"></path>
  <path style="fill:rgb(0,147,0)" d="M145,293L139,143L129,304z"></path>
  <path style="fill:rgb(0,158,0)" d="M73,-299L75,-324L56,-302zM-56,-302L-95,-320L-73,-299z"></path>
  <path style="fill:rgb(0,104,0)" d="M137,173L162,-253L155,-261z"></path>
  <path style="fill:rgb(0,158,0)" d="M-86,-295L-114,-315L-133,-309zM101,-290L133,-309L114,-315zM88,-295L95,-320L72,-299z"></path>
  <path style="fill:rgb(0,151,0)" d="M-112,313L-139,143L-130,303z"></path>
  <path style="fill:rgb(0,158,0)" d="M-71,-299L-115,-315L-87,-295z"></path>
  <path style="fill:rgb(0,152,0)" d="M130,303L121,152L113,313z"></path>
  <path style="fill:rgb(0,95,0)" d="M-137,173L-161,-253L-167,-244z"></path>
  <path style="fill:rgb(0,158,0)" d="M-100,-291L-132,-310L-151,-303z"></path>
  <path style="fill:rgb(0,130,0)" d="M-158,283L-169,123L-181,111z"></path>
  <path style="fill:rgb(0,158,0)" d="M101,-290L115,-316L86,-295zM114,-285L151,-303L132,-310z"></path>
  <path style="fill:rgb(0,156,0)" d="M-94,321L-121,152L-113,312z"></path>
  <path style="fill:rgb(0,158,0)" d="M-86,-295L-133,-310L-101,-291z"></path>
  <path style="fill:rgb(0,157,0)" d="M113,312L101,160L94,321z"></path>
  <path style="fill:rgb(0,158,0)" d="M114,-285L133,-310L100,-291zM-113,-286L-150,-303L-167,-295z"></path>
  <path style="fill:rgb(0,160,0)" d="M-74,327L-102,160L-95,320z"></path>
  <path style="fill:rgb(0,81,0)" d="M-141,182L-166,-245L-170,-236z"></path>
  <path style="fill:rgb(0,158,0)" d="M-100,-291L-151,-303L-114,-286z"></path>
  <path style="fill:rgb(0,138,0)" d="M-145,294L-155,134L-170,123z"></path>
  <path style="fill:rgb(0,158,0)" d="M126,-280L167,-295L150,-303z"></path>
  <path style="fill:rgb(0,161,0)" d="M95,320L80,166L75,327z"></path>
  <path style="fill:rgb(0,165,0)" d="M240,4L214,-260L161,-253z"></path>
  <path style="fill:rgb(0,97,0)" d="M-258,67L-228,-227L-257,50z"></path>
  <path style="fill:rgb(0,163,0)" d="M-54,332L-80,166L-75,327z"></path>
  <path style="fill:rgb(0,158,0)" d="M126,-280L151,-303L113,-286z"></path>
  <path style="fill:rgb(0,164,0)" d="M76,327L58,170L54,332z"></path>
  <path style="fill:rgb(0,147,0)" d="M145,294L156,134L139,144z"></path>
  <path style="fill:rgb(0,158,0)" d="M-125,-280L-166,-296L-181,-287z"></path>
  <path style="fill:rgb(0,165,0)" d="M-32,335L-58,170L-55,332z"></path>
  <path style="fill:rgb(0,158,0)" d="M-113,-286L-167,-296L-126,-280z"></path>
  <path style="fill:rgb(0,166,0)" d="M55,332L35,174L32,335z"></path>
  <path style="fill:rgb(0,62,0)" d="M-143,192L-169,-237L-171,-228z"></path>
  <path style="fill:rgb(0,145,0)" d="M-130,304L-139,144L-156,134z"></path>
  <path style="fill:rgb(0,167,0)" d="M-10,337L-35,174L-33,335z"></path>
  <path style="fill:rgb(0,158,0)" d="M136,-274L181,-287L166,-296z"></path>
  <path style="fill:rgb(0,167,0)" d="M33,335L12,175L11,337zM12,337L-12,175L-12,337z"></path>
  <path style="fill:rgb(0,158,0)" d="M137,-274L167,-296L125,-280z"></path>
  <path style="fill:rgb(0,152,0)" d="M130,304L139,143L121,153z"></path>
  <path style="fill:rgb(0,158,0)" d="M-125,-280L-181,-288L-137,-274zM-136,-274L-181,-288L-194,-278z"></path>
  <path style="fill:rgb(0,151,0)" d="M-113,313L-121,153L-140,143z"></path>
  <path style="fill:rgb(0,108,0)" d="M-255,84L-228,-216L-258,66z"></path>
  <path style="fill:rgb(0,54,0)" d="M-144,202L-171,-229L-170,-219z"></path>
  <path style="fill:rgb(0,158,0)" d="M146,-267L194,-278L181,-288zM147,-267L181,-288L136,-274z"></path>
  <path style="fill:rgb(0,157,0)" d="M113,313L122,152L101,160z"></path>
  <path style="fill:rgb(0,156,0)" d="M-95,321L-101,160L-122,152z"></path>
  <path style="fill:rgb(0,158,0)" d="M-136,-274L-194,-279L-147,-267zM-146,-267L-194,-279L-206,-269z"></path>
  <path style="fill:rgb(0,161,0)" d="M95,321L102,160L80,166z"></path>
  <path style="fill:rgb(0,160,0)" d="M-75,327L-80,166L-102,160z"></path>
  <path style="fill:rgb(0,158,0)" d="M154,-260L206,-269L194,-279zM155,-259L194,-279L146,-268z"></path>
  <path style="fill:rgb(0,118,0)" d="M-249,100L-225,-204L-255,83z"></path>
  <path style="fill:rgb(0,164,0)" d="M75,327L81,166L58,171z"></path>
  <path style="fill:rgb(0,163,0)" d="M-54,332L-58,171L-81,166z"></path>
  <path style="fill:rgb(0,158,0)" d="M-146,-268L-206,-269L-155,-260z"></path>
  <path style="fill:rgb(0,166,0)" d="M54,332L59,171L35,174z"></path>
  <path style="fill:rgb(0,165,0)" d="M-33,336L-35,174L-59,171z"></path>
  <path style="fill:rgb(0,158,0)" d="M-154,-260L-205,-270L-215,-259z"></path>
  <path style="fill:rgb(0,167,0)" d="M33,336L36,174L11,176zM-11,337L-11,176L-36,174zM11,337L12,176L-12,176z"></path>
  <path style="fill:rgb(0,158,0)" d="M161,-252L206,-269L154,-260zM160,-252L215,-259L205,-270zM-154,-260L-215,-259L-161,-252z"></path>
  <path style="fill:rgb(0,127,0)" d="M-241,116L-220,-193L-250,99z"></path>
  <path style="fill:rgb(0,158,0)" d="M-160,-252L-214,-260L-222,-248z"></path>
  <path style="fill:rgb(0,97,0)" d="M-258,67L-228,-215L-228,-227z"></path>
  <path style="fill:rgb(0,158,0)" d="M-161,-253L-222,-249L-166,-244z"></path>
  <path style="fill:rgb(0,135,0)" d="M-229,132L-212,-182L-241,115z"></path>
  <path style="fill:rgb(0,158,0)" d="M-165,-244L-221,-249L-226,-237z"></path>
  <path style="fill:rgb(0,108,0)" d="M-255,84L-225,-203L-228,-216z"></path>
  <path style="fill:rgb(0,158,0)" d="M-166,-245L-227,-238L-169,-236z"></path>
  <path style="fill:rgb(0,143,0)" d="M-214,146L-202,-171L-230,131z"></path>
  <path style="fill:rgb(0,158,0)" d="M-169,-236L-226,-238L-229,-226zM-169,-237L-229,-226L-170,-227z"></path>
  <path style="fill:rgb(0,118,0)" d="M-250,100L-220,-192L-226,-204z"></path>
  <path style="fill:rgb(0,151,0)" d="M-197,160L-189,-161L-215,146z"></path>
  <path style="fill:rgb(0,158,0)" d="M-170,-228L-229,-227L-229,-214zM-170,-228L-229,-215L-170,-219z"></path>
  <path style="fill:rgb(0,127,0)" d="M-241,116L-212,-181L-221,-193z"></path>
  <path style="fill:rgb(0,157,0)" d="M-177,173L-173,-151L-198,160z"></path>
  <path style="fill:rgb(0,158,0)" d="M-169,-219L-229,-215L-226,-203zM198,160L155,-142L177,173zM-170,-220L-227,-203L-167,-210z"></path>
  <path style="fill:rgb(0,135,0)" d="M-229,132L-202,-170L-213,-182z"></path>
  <path style="fill:rgb(0,162,0)" d="M-154,184L-155,-142L-178,173z"></path>
  <path style="fill:rgb(0,163,0)" d="M178,173L135,-134L154,184z"></path>
  <path style="fill:rgb(0,158,0)" d="M-167,-211L-226,-204L-221,-191zM-168,-211L-221,-192L-163,-202z"></path>
  <path style="fill:rgb(0,167,0)" d="M-129,194L-135,-134L-155,184z"></path>
  <path style="fill:rgb(0,143,0)" d="M-215,147L-188,-160L-202,-171z"></path>
  <path style="fill:rgb(0,167,0)" d="M155,184L114,-128L129,194z"></path>
  <path style="fill:rgb(0,158,0)" d="M-164,-203L-213,-181L-157,-194zM-163,-203L-221,-192L-213,-180z"></path>
  <path style="fill:rgb(0,170,0)" d="M-102,202L-114,-128L-130,194z"></path>
  <path style="fill:rgb(0,171,0)" d="M130,194L90,-122L102,202z"></path>
  <path style="fill:rgb(0,151,0)" d="M-197,160L-173,-150L-189,-160z"></path>
  <path style="fill:rgb(0,173,0)" d="M-74,209L-90,-122L-103,202zM103,202L65,-118L74,209z"></path>
  <path style="fill:rgb(0,158,0)" d="M-157,-195L-203,-170L-148,-186z"></path>
  <path style="fill:rgb(0,175,0)" d="M-45,213L-65,-118L-75,208z"></path>
  <path style="fill:rgb(0,158,0)" d="M-156,-194L-213,-181L-202,-169z"></path>
  <path style="fill:rgb(0,175,0)" d="M75,208L40,-115L45,213z"></path>
  <path style="fill:rgb(0,158,0)" d="M197,160L174,-151L155,-142z"></path>
  <path style="fill:rgb(0,176,0)" d="M-15,215L-40,-115L-46,213zM46,213L13,-113L15,215z"></path>
  <path style="fill:rgb(0,177,0)" d="M16,215L-13,-113L-16,215z"></path>
  <path style="fill:rgb(0,157,0)" d="M-177,173L-155,-142L-174,-151z"></path>
  <path style="fill:rgb(0,158,0)" d="M-149,-187L-190,-159L-138,-179z"></path>
  <path style="fill:rgb(0,163,0)" d="M177,173L156,-142L135,-134z"></path>
  <path style="fill:rgb(0,158,0)" d="M-148,-187L-203,-170L-189,-159z"></path>
  <path style="fill:rgb(0,162,0)" d="M-155,185L-135,-134L-156,-142z"></path>
  <path style="fill:rgb(0,158,0)" d="M-139,-179L-174,-150L-127,-172z"></path>
  <path style="fill:rgb(0,167,0)" d="M155,185L136,-134L113,-127z"></path>
  <path style="fill:rgb(0,158,0)" d="M-138,-179L-190,-160L-173,-150zM113,-165L174,-150L127,-172z"></path>
  <path style="fill:rgb(0,167,0)" d="M-130,195L-113,-127L-136,-134z"></path>
  <path style="fill:rgb(0,158,0)" d="M-128,-172L-156,-141L-113,-165z"></path>
  <path style="fill:rgb(0,171,0)" d="M130,195L114,-127L90,-121z"></path>
  <path style="fill:rgb(0,170,0)" d="M-103,203L-90,-121L-114,-127z"></path>
  <path style="fill:rgb(0,158,0)" d="M98,-160L156,-141L114,-166zM-127,-172L-174,-150L-155,-141zM-114,-166L-136,-133L-98,-160z"></path>
  <path style="fill:rgb(0,173,0)" d="M103,203L91,-122L65,-117z"></path>
  <path style="fill:rgb(0,158,0)" d="M113,-166L155,-141L174,-150z"></path>
  <path style="fill:rgb(0,173,0)" d="M-75,209L-65,-117L-91,-122z"></path>
  <path style="fill:rgb(0,158,0)" d="M82,-155L136,-133L99,-160z"></path>
  <path style="fill:rgb(0,175,0)" d="M75,209L66,-117L39,-114zM-45,213L-39,-114L-66,-117z"></path>
  <path style="fill:rgb(0,158,0)" d="M-100,-160L-114,-126L-82,-155zM-113,-166L-156,-141L-135,-133z"></path>
  <path style="fill:rgb(0,176,0)" d="M45,213L40,-114L13,-113zM-15,215L-13,-113L-40,-114z"></path>
  <path style="fill:rgb(0,177,0)" d="M15,215L14,-113L-14,-113z"></path>
  <path style="fill:rgb(0,158,0)" d="M98,-160L135,-133L156,-141zM65,-151L114,-126L83,-155zM-83,-156L-91,-120L-65,-151zM47,-148L91,-120L66,-151zM-99,-161L-136,-133L-113,-126zM-66,-152L-66,-116L-47,-148zM82,-155L113,-126L136,-133zM28,-146L66,-116L48,-148zM-48,-148L-40,-113L-28,-146zM9,-145L40,-113L29,-146zM-30,-146L-13,-112L-9,-145zM-83,-156L-114,-126L-90,-120zM-10,-145L14,-112L10,-145zM65,-152L90,-121L115,-127zM-66,-152L-91,-121L-65,-116zM47,-149L65,-116L91,-121zM-48,-149L-66,-116L-39,-113zM28,-147L39,-113L66,-117zM-29,-147L-40,-113L-13,-112zM9,-146L13,-112L40,-114zM-10,-146L-14,-112L14,-112z"></path>
 </svg>
</svg>