<svg width="1200" height="800" xmlns="http://www.w3.org/2000/svg"><svg xmlns="http://www.w3.org/2000/svg" viewBox="-600 -400 1200 800" width="1200" height="800" style="background:rgb(255,255,255)"><path style="fill:rgb(0,0,147)" d="M3,-263L-3,89L15,89z"/><path style="fill:rgb(0,0,145)" d="M10,-263L14,89L33,90z"/><path style="fill:rgb(0,0,148)" d="M-4,-262L-20,90L-2,89z"/><path style="fill:rgb(0,0,141)" d="M17,-262L32,90L50,92z"/><path style="fill:rgb(0,0,146)" d="M-11,-262L-37,92L-19,90z"/><path style="fill:rgb(0,0,136)" d="M24,-262L49,92L67,96z"/><path style="fill:rgb(0,0,143)" d="M-18,-261L-54,95L-36,92z"/><path style="fill:rgb(0,0,129)" d="M31,-261L66,96L83,100z"/><path style="fill:rgb(0,0,139)" d="M-25,-260L-70,100L-53,95z"/><path style="fill:rgb(0,0,120)" d="M38,-259L82,100L98,106z"/><path style="fill:rgb(0,0,132)" d="M-31,-258L-86,105L-69,99z"/><path style="fill:rgb(0,0,110)" d="M44,-258L97,106L113,113z"/><path style="fill:rgb(0,0,124)" d="M-37,-256L-101,111L-85,105z"/><path style="fill:rgb(0,0,98)" d="M50,-256L112,112L127,120z"/><path style="fill:rgb(0,0,115)" d="M-42,-254L-115,119L-100,111z"/><path style="fill:rgb(0,0,86)" d="M55,-253L126,120L139,128z"/><path style="fill:rgb(0,0,104)" d="M-47,-251L-127,127L-114,118z"/><path style="fill:rgb(0,0,71)" d="M60,-251L138,128L151,138z"/><path style="fill:rgb(0,0,91)" d="M-52,-249L-139,136L-127,126z"/><path style="fill:rgb(0,0,56)" d="M64,-248L150,137L161,148z"/><path style="fill:rgb(0,0,78)" d="M-56,-246L-149,146L-138,135z"/><path style="fill:rgb(0,0,40)" d="M68,-245L160,147L169,159z"/><path style="fill:rgb(0,0,63)" d="M-59,-243L-158,157L-149,145z"/><path style="fill:rgb(0,0,175)" d="M175,170L232,160L141,-247z"/><path style="fill:rgb(0,0,23)" d="M71,-242L169,158L176,170z"/><path style="fill:rgb(0,0,47)" d="M-62,-239L-165,168L-157,156z"/><path style="fill:rgb(0,0,31)" d="M-63,-236L-171,180L-165,167z"/><path style="fill:rgb(0,0,13)" d="M-65,-233L-174,192L-170,179z"/><path style="fill:rgb(0,0,0)" d="M-135,-235L-233,188L-237,206z"/><path style="fill:rgb(0,0,14)" d="M-136,-228L-237,205L-237,223z"/><path style="fill:rgb(0,0,158)" d="M2,-262L15,89L11,-262zM-5,-262L-2,89L3,-262z"/><path style="fill:rgb(0,0,156)" d="M10,-262L32,91L18,-262z"/><path style="fill:rgb(0,0,157)" d="M-12,-261L-20,90L-4,-262z"/><path style="fill:rgb(0,0,151)" d="M17,-262L49,93L25,-261z"/><path style="fill:rgb(0,0,153)" d="M-19,-260L-37,92L-11,-261z"/><path style="fill:rgb(0,0,146)" d="M24,-261L66,96L32,-260z"/><path style="fill:rgb(0,0,148)" d="M-25,-259L-54,96L-18,-260z"/><path style="fill:rgb(0,0,138)" d="M31,-260L82,101L38,-259z"/><path style="fill:rgb(0,0,141)" d="M-32,-257L-70,100L-24,-259z"/><path style="fill:rgb(0,0,33)" d="M-136,-221L-237,222L-235,240z"/><path style="fill:rgb(0,0,129)" d="M37,-259L98,106L44,-257z"/><path style="fill:rgb(0,0,133)" d="M-37,-255L-86,105L-31,-258z"/><path style="fill:rgb(0,0,118)" d="M43,-257L113,113L50,-255z"/><path style="fill:rgb(0,0,123)" d="M-43,-253L-100,112L-37,-256z"/><path style="fill:rgb(0,0,105)" d="M49,-255L126,120L56,-253z"/><path style="fill:rgb(0,0,111)" d="M-48,-251L-114,119L-42,-253z"/><path style="fill:rgb(0,0,52)" d="M-134,-214L-235,239L-230,257z"/><path style="fill:rgb(0,0,91)" d="M55,-253L139,129L61,-250z"/><path style="fill:rgb(0,0,98)" d="M-52,-248L-127,127L-47,-251z"/><path style="fill:rgb(0,0,76)" d="M60,-251L150,138L65,-247z"/><path style="fill:rgb(0,0,83)" d="M-56,-245L-139,136L-52,-248z"/><path style="fill:rgb(0,0,60)" d="M64,-248L161,148L69,-244z"/><path style="fill:rgb(0,0,67)" d="M-60,-242L-149,146L-56,-246z"/><path style="fill:rgb(0,0,70)" d="M-131,-207L-231,256L-223,274z"/><path style="fill:rgb(0,0,43)" d="M68,-245L169,159L72,-241z"/><path style="fill:rgb(0,0,50)" d="M-62,-238L-158,157L-59,-242z"/><path style="fill:rgb(0,0,186)" d="M176,170L142,-247L74,-238z"/><path style="fill:rgb(0,0,24)" d="M71,-242L176,170L74,-238z"/><path style="fill:rgb(0,0,33)" d="M-64,-235L-165,168L-62,-239z"/><path style="fill:rgb(0,0,88)" d="M-126,-200L-223,273L-212,290z"/><path style="fill:rgb(0,0,14)" d="M-65,-232L-171,180L-63,-236z"/><path style="fill:rgb(0,0,106)" d="M-119,-193L-213,289L-199,306z"/><path style="fill:rgb(0,0,0)" d="M-135,-235L-237,206L-137,-227z"/><path style="fill:rgb(0,0,119)" d="M10,-261L14,-293L-1,-293zM3,-261L0,-293L-15,-292zM17,-260L28,-292L13,-293zM-4,-261L-14,-292L-28,-291zM24,-260L42,-291L27,-292zM-11,-260L-27,-291L-42,-289zM31,-259L56,-289L41,-291zM-17,-259L-41,-289L-55,-286z"/><path style="fill:rgb(0,0,123)" d="M-111,-187L-200,305L-183,320z"/><path style="fill:rgb(0,0,119)" d="M37,-257L68,-286L54,-289zM-24,-258L-54,-287L-67,-283z"/><path style="fill:rgb(0,0,120)" d="M43,-256L81,-283L67,-286z"/><path style="fill:rgb(0,0,15)" d="M-137,-228L-237,223L-136,-220z"/><path style="fill:rgb(0,0,120)" d="M-30,-256L-66,-284L-79,-280zM49,-254L93,-279L80,-283zM11,-261L-0,-293L2,-261zM18,-261L14,-293L10,-261zM4,-261L-14,-293L-5,-261zM25,-260L28,-293L17,-261zM-3,-261L-28,-291L-12,-260zM31,-259L42,-291L23,-260zM-36,-255L-78,-280L-90,-275z"/><path style="fill:rgb(0,0,138)" d="M-102,-181L-184,320L-165,334z"/><path style="fill:rgb(0,0,120)" d="M-10,-261L-42,-290L-18,-259zM38,-258L55,-289L30,-259zM54,-252L103,-275L92,-279zM-17,-260L-55,-287L-25,-258z"/><path style="fill:rgb(0,0,121)" d="M44,-256L68,-287L37,-258z"/><path style="fill:rgb(0,0,35)" d="M-136,-221L-235,240L-134,-213z"/><path style="fill:rgb(0,0,120)" d="M-42,-252L-89,-276L-100,-271zM-24,-258L-67,-284L-31,-256z"/><path style="fill:rgb(0,0,121)" d="M59,-249L113,-270L102,-275zM50,-254L81,-283L43,-256zM-30,-257L-79,-280L-37,-255z"/><path style="fill:rgb(0,0,153)" d="M-91,-176L-166,333L-144,346z"/><path style="fill:rgb(0,0,121)" d="M-47,-250L-99,-271L-109,-265zM55,-252L92,-279L49,-255zM-36,-255L-90,-276L-43,-252zM64,-247L122,-264L112,-270z"/><path style="fill:rgb(0,0,122)" d="M60,-249L103,-275L54,-252z"/><path style="fill:rgb(0,0,55)" d="M-135,-214L-230,257L-131,-206z"/><path style="fill:rgb(0,0,121)" d="M-42,-253L-100,-271L-48,-250zM-51,-247L-108,-266L-117,-260z"/><path style="fill:rgb(0,0,166)" d="M-79,-171L-145,346L-122,357z"/><path style="fill:rgb(0,0,122)" d="M68,-244L130,-259L121,-265zM65,-247L113,-270L59,-250zM-47,-250L-109,-266L-52,-247zM-55,-245L-116,-260L-124,-254zM68,-244L122,-265L64,-247z"/><path style="fill:rgb(0,0,178)" d="M-66,-167L-123,356L-97,366z"/><path style="fill:rgb(0,0,123)" d="M71,-241L137,-252L129,-259z"/><path style="fill:rgb(0,0,122)" d="M-51,-248L-117,-260L-56,-244z"/><path style="fill:rgb(0,0,74)" d="M-131,-207L-223,274L-126,-199z"/><path style="fill:rgb(0,0,123)" d="M72,-241L130,-259L68,-244z"/><path style="fill:rgb(0,0,194)" d="M56,-162L93,370L119,362z"/><path style="fill:rgb(0,0,122)" d="M-58,-241L-123,-254L-129,-247z"/><path style="fill:rgb(0,0,187)" d="M-52,-164L-98,365L-71,372z"/><path style="fill:rgb(0,0,123)" d="M-55,-245L-124,-254L-59,-241zM73,-238L142,-246L136,-253z"/><path style="fill:rgb(0,0,200)" d="M41,-160L66,376L94,370z"/><path style="fill:rgb(0,0,195)" d="M-37,-161L-72,372L-44,377z"/><path style="fill:rgb(0,0,123)" d="M74,-237L137,-253L71,-241z"/><path style="fill:rgb(0,0,93)" d="M-126,-200L-212,290L-119,-193z"/><path style="fill:rgb(0,0,123)" d="M-58,-242L-130,-248L-62,-238zM-61,-238L-129,-248L-133,-240z"/><path style="fill:rgb(0,0,204)" d="M25,-159L39,379L67,376z"/><path style="fill:rgb(0,0,201)" d="M-22,-159L-45,377L-16,380z"/><path style="fill:rgb(0,0,205)" d="M10,-158L11,381L40,379z"/><path style="fill:rgb(0,0,204)" d="M-6,-158L-17,380L12,381z"/><path style="fill:rgb(0,0,123)" d="M-61,-239L-134,-241L-63,-235zM-63,-235L-133,-241L-136,-233z"/><path style="fill:rgb(0,0,112)" d="M-120,-193L-199,306L-111,-186z"/><path style="fill:rgb(0,0,124)" d="M-63,-235L-136,-234L-65,-231zM-64,-232L-136,-234L-137,-226z"/><path style="fill:rgb(0,0,125)" d="M-64,-232L-138,-227L-65,-228z"/><path style="fill:rgb(0,0,130)" d="M-112,-187L-184,320L-101,-181z"/><path style="fill:rgb(0,0,125)" d="M-64,-228L-137,-227L-137,-219zM-65,-229L-137,-220L-64,-224z"/><path style="fill:rgb(0,0,146)" d="M-102,-181L-165,334L-90,-175z"/><path style="fill:rgb(0,0,126)" d="M-64,-225L-135,-213L-63,-221z"/><path style="fill:rgb(0,0,125)" d="M-64,-225L-137,-220L-135,-212z"/><path style="fill:rgb(0,0,161)" d="M-91,-176L-145,346L-78,-171z"/><path style="fill:rgb(0,0,126)" d="M-63,-222L-132,-206L-61,-217zM-63,-221L-135,-213L-131,-205z"/><path style="fill:rgb(0,0,175)" d="M-79,-171L-122,357L-65,-167z"/><path style="fill:rgb(0,0,127)" d="M-62,-218L-127,-199L-58,-214zM-61,-218L-132,-206L-126,-199z"/><path style="fill:rgb(0,0,187)" d="M-66,-167L-98,366L-51,-163z"/><path style="fill:rgb(0,0,204)" d="M55,-162L119,363L71,-165z"/><path style="fill:rgb(0,0,127)" d="M-59,-215L-120,-192L-55,-211z"/><path style="fill:rgb(0,0,197)" d="M-52,-163L-72,373L-37,-161z"/><path style="fill:rgb(0,0,210)" d="M40,-159L93,370L56,-162z"/><path style="fill:rgb(0,0,128)" d="M-58,-215L-127,-199L-119,-192zM-56,-212L-112,-186L-51,-208z"/><path style="fill:rgb(0,0,205)" d="M-38,-161L-45,378L-21,-159z"/><path style="fill:rgb(0,0,214)" d="M25,-158L67,376L41,-160z"/><path style="fill:rgb(0,0,211)" d="M-22,-159L-17,381L-6,-158z"/><path style="fill:rgb(0,0,215)" d="M9,-157L39,380L26,-158z"/><path style="fill:rgb(0,0,214)" d="M-7,-158L11,381L10,-157z"/><path style="fill:rgb(0,0,128)" d="M-51,-209L-103,-180L-46,-205zM-55,-211L-120,-193L-111,-186z"/><path style="fill:rgb(0,0,129)" d="M-47,-206L-92,-175L-40,-203zM-51,-209L-112,-186L-102,-180zM-41,-203L-80,-170L-34,-201zM-35,-201L-67,-166L-28,-199zM-46,-206L-103,-180L-91,-175z"/><path style="fill:rgb(0,0,130)" d="M-29,-199L-53,-162L-21,-197zM29,-196L71,-163L37,-198zM-22,-198L-38,-159L-14,-196zM22,-195L57,-160L30,-197zM-15,-196L-22,-157L-7,-195zM15,-195L41,-158L23,-196zM-40,-203L-92,-175L-79,-170zM-8,-195L-6,-156L1,-195zM7,-195L26,-157L16,-195zM-1,-195L10,-156L8,-195zM-35,-201L-80,-170L-66,-166z"/><path style="fill:rgb(0,0,131)" d="M-28,-199L-67,-166L-52,-162z"/><path style="fill:rgb(0,0,132)" d="M30,-197L56,-161L71,-164z"/><path style="fill:rgb(0,0,131)" d="M-22,-198L-53,-163L-37,-160z"/><path style="fill:rgb(0,0,132)" d="M22,-196L41,-158L57,-161z"/><path style="fill:rgb(0,0,131)" d="M-15,-197L-38,-160L-22,-158z"/><path style="fill:rgb(0,0,132)" d="M15,-195L25,-157L42,-159zM-7,-196L-23,-158L-6,-157zM7,-195L9,-156L26,-157zM0,-195L-7,-157L10,-157z"/></svg></svg>