<svg xmlns="http://www.w3.org/2000/svg" viewBox="-600 -400 1200 800" width="1200" height="800" style="background:rgb(255,255,255)"><path style="fill:rgb(169,0,169)" d="M-9,-351L-7,101L7,101z"/><path style="fill:rgb(168,0,168)" d="M9,-351L7,101L21,102zM-26,-350L-21,102L-7,101z"/><path style="fill:rgb(165,0,165)" d="M26,-350L21,102L34,104z"/><path style="fill:rgb(166,0,166)" d="M-42,-348L-34,104L-21,102z"/><path style="fill:rgb(161,0,161)" d="M42,-348L34,104L47,107z"/><path style="fill:rgb(162,0,162)" d="M-59,-345L-47,107L-34,104z"/><path style="fill:rgb(155,0,155)" d="M59,-345L47,107L60,111z"/><path style="fill:rgb(157,0,157)" d="M-75,-341L-60,111L-47,107z"/><path style="fill:rgb(148,0,148)" d="M75,-341L60,111L72,116z"/><path style="fill:rgb(150,0,150)" d="M-90,-336L-72,116L-60,111z"/><path style="fill:rgb(140,0,140)" d="M90,-336L72,116L83,122z"/><path style="fill:rgb(142,0,142)" d="M-105,-330L-83,122L-72,116z"/><path style="fill:rgb(130,0,130)" d="M105,-330L83,122L94,129z"/><path style="fill:rgb(133,0,133)" d="M-118,-324L-94,129L-83,122z"/><path style="fill:rgb(119,0,119)" d="M118,-324L94,129L104,137z"/><path style="fill:rgb(122,0,122)" d="M-130,-317L-104,137L-94,129z"/><path style="fill:rgb(106,0,106)" d="M130,-317L104,137L113,145z"/><path style="fill:rgb(110,0,110)" d="M-142,-309L-113,145L-104,137z"/><path style="fill:rgb(93,0,93)" d="M142,-309L113,145L120,154z"/><path style="fill:rgb(97,0,97)" d="M-151,-300L-120,154L-113,145z"/><path style="fill:rgb(79,0,79)" d="M151,-300L120,154L127,164z"/><path style="fill:rgb(83,0,83)" d="M-160,-291L-127,164L-120,154z"/><path style="fill:rgb(154,0,154)" d="M132,174L196,161L247,-294z"/><path style="fill:rgb(64,0,64)" d="M160,-291L127,164L132,174z"/><path style="fill:rgb(68,0,68)" d="M-166,-281L-132,174L-127,164z"/><path style="fill:rgb(53,0,53)" d="M-171,-271L-136,185L-132,174z"/><path style="fill:rgb(37,0,37)" d="M-174,-260L-138,196L-136,185z"/><path style="fill:rgb(20,0,20)" d="M-176,-250L-139,207L-138,196z"/><path style="fill:rgb(4,0,4)" d="M-175,-239L-138,218L-139,207z"/><path style="fill:rgb(181,0,181)" d="M-9,-351L7,101L9,-351z"/><path style="fill:rgb(180,0,180)" d="M-26,-350L-7,101L-9,-351zM9,-351L21,102L26,-350z"/><path style="fill:rgb(178,0,178)" d="M-42,-348L-21,102L-26,-350z"/><path style="fill:rgb(177,0,177)" d="M26,-350L34,104L42,-348z"/><path style="fill:rgb(174,0,174)" d="M-59,-345L-34,104L-42,-348z"/><path style="fill:rgb(0,0,0)" d="M-264,-231L-208,227L-205,244z"/><path style="fill:rgb(173,0,173)" d="M42,-348L47,107L59,-345z"/><path style="fill:rgb(168,0,168)" d="M-75,-341L-47,107L-59,-345z"/><path style="fill:rgb(167,0,167)" d="M59,-345L60,111L75,-341z"/><path style="fill:rgb(161,0,161)" d="M-90,-336L-60,111L-75,-341z"/><path style="fill:rgb(159,0,159)" d="M75,-341L72,116L90,-336z"/><path style="fill:rgb(152,0,152)" d="M-105,-330L-72,116L-90,-336z"/><path style="fill:rgb(150,0,150)" d="M90,-336L83,122L105,-330z"/><path style="fill:rgb(3,0,3)" d="M-261,-214L-205,244L-200,260z"/><path style="fill:rgb(142,0,142)" d="M-118,-324L-83,122L-105,-330z"/><path style="fill:rgb(139,0,139)" d="M105,-330L94,129L118,-324z"/><path style="fill:rgb(131,0,131)" d="M-130,-317L-94,129L-118,-324z"/><path style="fill:rgb(128,0,128)" d="M118,-324L104,137L130,-317z"/><path style="fill:rgb(19,0,19)" d="M-255,-198L-200,260L-192,277z"/><path style="fill:rgb(118,0,118)" d="M-142,-309L-104,137L-130,-317z"/><path style="fill:rgb(114,0,114)" d="M130,-317L113,145L142,-309z"/><path style="fill:rgb(104,0,104)" d="M-151,-300L-113,145L-142,-309z"/><path style="fill:rgb(35,0,35)" d="M-246,-182L-192,277L-182,292z"/><path style="fill:rgb(100,0,100)" d="M142,-309L120,154L151,-300z"/><path style="fill:rgb(89,0,89)" d="M-160,-291L-120,154L-151,-300z"/><path style="fill:rgb(85,0,85)" d="M151,-300L127,164L160,-291z"/><path style="fill:rgb(51,0,51)" d="M-234,-167L-182,292L-170,307z"/><path style="fill:rgb(73,0,73)" d="M-166,-281L-127,164L-160,-291z"/><path style="fill:rgb(166,0,166)" d="M132,174L247,-294L166,-281z"/><path style="fill:rgb(69,0,69)" d="M160,-291L132,174L166,-281z"/><path style="fill:rgb(136,0,136)" d="M9,-351L12,-394L-12,-394zM-9,-351L-12,-394L-37,-392z"/><path style="fill:rgb(66,0,66)" d="M-219,-152L-170,307L-156,321z"/><path style="fill:rgb(136,0,136)" d="M26,-350L37,-392L12,-394zM-26,-350L-37,-392L-62,-390z"/><path style="fill:rgb(137,0,137)" d="M42,-348L62,-390L37,-392z"/><path style="fill:rgb(57,0,57)" d="M-171,-271L-132,174L-166,-281z"/><path style="fill:rgb(137,0,137)" d="M-42,-348L-62,-390L-86,-385zM59,-345L86,-385L62,-390zM-59,-345L-86,-385L-109,-380z"/><path style="fill:rgb(138,0,138)" d="M75,-341L109,-380L86,-385z"/><path style="fill:rgb(81,0,81)" d="M-201,-138L-156,321L-140,334z"/><path style="fill:rgb(40,0,40)" d="M-174,-260L-136,185L-171,-271z"/><path style="fill:rgb(138,0,138)" d="M9,-351L-12,-394L-9,-351z"/><path style="fill:rgb(137,0,137)" d="M-75,-341L-109,-380L-132,-373z"/><path style="fill:rgb(138,0,138)" d="M26,-350L12,-394L9,-351z"/><path style="fill:rgb(109,0,109)" d="M180,-125L140,334L156,321z"/><path style="fill:rgb(138,0,138)" d="M-9,-351L-37,-392L-26,-350zM42,-348L37,-392L26,-350zM90,-336L132,-373L109,-380zM-26,-350L-62,-390L-42,-348zM59,-345L62,-390L42,-348z"/><path style="fill:rgb(94,0,94)" d="M-180,-125L-140,334L-122,345z"/><path style="fill:rgb(138,0,138)" d="M-42,-348L-86,-385L-59,-345zM-90,-336L-132,-373L-153,-365z"/><path style="fill:rgb(22,0,22)" d="M-176,-250L-138,196L-174,-260z"/><path style="fill:rgb(139,0,139)" d="M75,-341L86,-385L59,-345zM105,-330L153,-365L132,-373z"/><path style="fill:rgb(119,0,119)" d="M157,-114L122,345L140,334z"/><path style="fill:rgb(138,0,138)" d="M-59,-345L-109,-380L-75,-341z"/><path style="fill:rgb(139,0,139)" d="M90,-336L109,-380L75,-341z"/><path style="fill:rgb(106,0,106)" d="M-157,-114L-122,345L-102,355z"/><path style="fill:rgb(139,0,139)" d="M-105,-330L-153,-365L-173,-356zM-75,-341L-132,-373L-90,-336z"/><path style="fill:rgb(140,0,140)" d="M118,-324L173,-356L153,-365z"/><path style="fill:rgb(127,0,127)" d="M132,-104L102,355L122,345z"/><path style="fill:rgb(4,0,4)" d="M-175,-239L-139,207L-176,-250z"/><path style="fill:rgb(140,0,140)" d="M105,-330L132,-373L90,-336z"/><path style="fill:rgb(116,0,116)" d="M-132,-104L-102,355L-81,363z"/><path style="fill:rgb(139,0,139)" d="M-90,-336L-153,-365L-105,-330z"/><path style="fill:rgb(134,0,134)" d="M105,-96L81,363L102,355z"/><path style="fill:rgb(139,0,139)" d="M-118,-324L-173,-356L-192,-346z"/><path style="fill:rgb(141,0,141)" d="M118,-324L153,-365L105,-330zM130,-317L192,-346L173,-356z"/><path style="fill:rgb(125,0,125)" d="M-105,-96L-81,363L-58,369z"/><path style="fill:rgb(139,0,139)" d="M76,-90L58,369L81,363z"/><path style="fill:rgb(140,0,140)" d="M-105,-330L-173,-356L-118,-324z"/><path style="fill:rgb(132,0,132)" d="M-76,-90L-58,369L-35,373z"/><path style="fill:rgb(141,0,141)" d="M46,-86L35,373L58,369z"/><path style="fill:rgb(138,0,138)" d="M-46,-86L-35,373L-12,375z"/><path style="fill:rgb(141,0,141)" d="M130,-317L173,-356L118,-324z"/><path style="fill:rgb(140,0,140)" d="M-130,-317L-192,-346L-209,-334z"/><path style="fill:rgb(142,0,142)" d="M15,-84L12,375L35,373z"/><path style="fill:rgb(141,0,141)" d="M-15,-84L-12,375L12,375z"/><path style="fill:rgb(142,0,142)" d="M142,-309L209,-334L192,-346z"/><path style="fill:rgb(141,0,141)" d="M-118,-324L-192,-346L-130,-317z"/><path style="fill:rgb(0,0,0)" d="M-264,-231L-205,244L-261,-214z"/><path style="fill:rgb(142,0,142)" d="M142,-309L192,-346L130,-317z"/><path style="fill:rgb(141,0,141)" d="M-142,-309L-209,-334L-224,-322z"/><path style="fill:rgb(142,0,142)" d="M-130,-317L-209,-334L-142,-309z"/><path style="fill:rgb(143,0,143)" d="M151,-300L224,-322L209,-334zM151,-300L209,-334L142,-309z"/><path style="fill:rgb(3,0,3)" d="M-261,-214L-200,260L-255,-198z"/><path style="fill:rgb(142,0,142)" d="M-142,-309L-224,-322L-151,-300zM-151,-300L-224,-322L-237,-308z"/><path style="fill:rgb(144,0,144)" d="M160,-291L237,-308L224,-322zM160,-291L224,-322L151,-300z"/><path style="fill:rgb(143,0,143)" d="M-151,-300L-237,-308L-160,-291z"/><path style="fill:rgb(21,0,21)" d="M-255,-198L-192,277L-246,-182z"/><path style="fill:rgb(143,0,143)" d="M-160,-291L-237,-308L-247,-294z"/><path style="fill:rgb(145,0,145)" d="M166,-281L247,-294L237,-308zM166,-281L237,-308L160,-291z"/><path style="fill:rgb(144,0,144)" d="M-160,-291L-247,-294L-166,-281z"/><path style="fill:rgb(145,0,145)" d="M-166,-281L-247,-294L-256,-279z"/><path style="fill:rgb(39,0,39)" d="M-246,-182L-182,292L-234,-167z"/><path style="fill:rgb(146,0,146)" d="M-166,-281L-256,-279L-171,-271z"/><path style="fill:rgb(56,0,56)" d="M-234,-167L-170,307L-219,-152z"/><path style="fill:rgb(146,0,146)" d="M-171,-271L-256,-279L-261,-263z"/><path style="fill:rgb(147,0,147)" d="M-171,-271L-261,-263L-174,-260z"/><path style="fill:rgb(72,0,72)" d="M-219,-152L-156,321L-201,-138z"/><path style="fill:rgb(147,0,147)" d="M-174,-260L-261,-263L-264,-247z"/><path style="fill:rgb(148,0,148)" d="M-174,-260L-264,-247L-176,-250z"/><path style="fill:rgb(119,0,119)" d="M180,-125L156,321L201,-138z"/><path style="fill:rgb(88,0,88)" d="M-201,-138L-140,334L-180,-125z"/><path style="fill:rgb(149,0,149)" d="M-176,-250L-264,-247L-264,-231zM-176,-250L-264,-231L-175,-239z"/><path style="fill:rgb(130,0,130)" d="M157,-114L140,334L180,-125z"/><path style="fill:rgb(103,0,103)" d="M-180,-125L-122,345L-157,-114z"/><path style="fill:rgb(139,0,139)" d="M132,-104L122,345L157,-114z"/><path style="fill:rgb(116,0,116)" d="M-157,-114L-102,355L-132,-104z"/><path style="fill:rgb(150,0,150)" d="M-175,-239L-264,-231L-261,-214z"/><path style="fill:rgb(151,0,151)" d="M-175,-239L-261,-214L-173,-228z"/><path style="fill:rgb(146,0,146)" d="M105,-96L102,355L132,-104z"/><path style="fill:rgb(127,0,127)" d="M-132,-104L-81,363L-105,-96z"/><path style="fill:rgb(152,0,152)" d="M76,-90L81,363L105,-96z"/><path style="fill:rgb(137,0,137)" d="M-105,-96L-58,369L-76,-90z"/><path style="fill:rgb(152,0,152)" d="M-173,-228L-255,-198L-168,-218zM-173,-228L-261,-214L-255,-198z"/><path style="fill:rgb(155,0,155)" d="M46,-86L58,369L76,-90z"/><path style="fill:rgb(145,0,145)" d="M-76,-90L-35,373L-46,-86z"/><path style="fill:rgb(156,0,156)" d="M15,-84L35,373L46,-86z"/><path style="fill:rgb(151,0,151)" d="M-46,-86L-12,375L-15,-84z"/><path style="fill:rgb(154,0,154)" d="M-15,-84L12,375L15,-84z"/><path style="fill:rgb(153,0,153)" d="M-168,-218L-246,-182L-161,-207zM-168,-218L-255,-198L-246,-182z"/><path style="fill:rgb(154,0,154)" d="M-161,-207L-234,-167L-153,-197z"/><path style="fill:rgb(155,0,155)" d="M-161,-207L-246,-182L-234,-167z"/><path style="fill:rgb(156,0,156)" d="M-153,-197L-219,-152L-143,-188zM-153,-197L-234,-167L-219,-152z"/><path style="fill:rgb(157,0,157)" d="M-143,-188L-201,-138L-131,-179z"/><path style="fill:rgb(159,0,159)" d="M117,-171L201,-138L131,-179z"/><path style="fill:rgb(157,0,157)" d="M-143,-188L-219,-152L-201,-138z"/><path style="fill:rgb(158,0,158)" d="M-131,-179L-180,-125L-117,-171z"/><path style="fill:rgb(160,0,160)" d="M102,-164L180,-125L117,-171z"/><path style="fill:rgb(159,0,159)" d="M-117,-171L-157,-114L-102,-164zM-131,-179L-201,-138L-180,-125z"/><path style="fill:rgb(161,0,161)" d="M85,-158L157,-114L102,-164zM117,-171L180,-125L201,-138z"/><path style="fill:rgb(160,0,160)" d="M-102,-164L-132,-104L-85,-158z"/><path style="fill:rgb(161,0,161)" d="M67,-153L132,-104L85,-158z"/><path style="fill:rgb(160,0,160)" d="M-117,-171L-180,-125L-157,-114z"/><path style="fill:rgb(161,0,161)" d="M-85,-158L-105,-96L-67,-153z"/><path style="fill:rgb(162,0,162)" d="M102,-164L157,-114L180,-125zM49,-149L105,-96L67,-153z"/><path style="fill:rgb(161,0,161)" d="M-67,-153L-76,-90L-49,-149z"/><path style="fill:rgb(162,0,162)" d="M29,-147L76,-90L49,-149z"/><path style="fill:rgb(161,0,161)" d="M-102,-164L-157,-114L-132,-104z"/><path style="fill:rgb(162,0,162)" d="M-49,-149L-46,-86L-29,-147zM10,-145L46,-86L29,-147zM85,-158L132,-104L157,-114zM-29,-147L-15,-84L-10,-145zM-10,-145L15,-84L10,-145zM-85,-158L-132,-104L-105,-96z"/><path style="fill:rgb(163,0,163)" d="M67,-153L105,-96L132,-104zM-67,-153L-105,-96L-76,-90z"/><path style="fill:rgb(164,0,164)" d="M49,-149L76,-90L105,-96z"/><path style="fill:rgb(163,0,163)" d="M-49,-149L-76,-90L-46,-86z"/><path style="fill:rgb(164,0,164)" d="M29,-147L46,-86L76,-90zM-29,-147L-46,-86L-15,-84zM10,-145L15,-84L46,-86zM-10,-145L-15,-84L15,-84z"/></svg>