<svg width="1200" height="800" xmlns="http://www.w3.org/2000/svg">
 <svg width="1200" height="800" viewBox="-600 -400 1200 800" style="background: rgb(255, 255, 255);">
  <path style="fill:rgb(205,0,205)" d="M-9,-352L-7,102L7,101z"></path>
  <path style="fill:rgb(204,0,204)" d="M9,-352L6,101L21,103z"></path>
  <path style="fill:rgb(205,0,205)" d="M-26,-351L-21,103L-6,101z"></path>
  <path style="fill:rgb(202,0,202)" d="M26,-351L20,102L35,105z"></path>
  <path style="fill:rgb(204,0,204)" d="M-43,-349L-34,105L-20,102z"></path>
  <path style="fill:rgb(199,0,199)" d="M42,-349L33,105L48,108z"></path>
  <path style="fill:rgb(203,0,203)" d="M-59,-346L-48,108L-33,104z"></path>
  <path style="fill:rgb(196,0,196)" d="M59,-346L47,108L60,112z"></path>
  <path style="fill:rgb(200,0,200)" d="M-75,-342L-60,112L-47,108z"></path>
  <path style="fill:rgb(191,0,191)" d="M75,-342L59,112L72,117z"></path>
  <path style="fill:rgb(197,0,197)" d="M-90,-337L-72,117L-59,112z"></path>
  <path style="fill:rgb(186,0,186)" d="M90,-337L72,117L84,123z"></path>
  <path style="fill:rgb(193,0,193)" d="M-105,-331L-84,123L-72,117z"></path>
  <path style="fill:rgb(179,0,179)" d="M105,-331L83,123L95,130z"></path>
  <path style="fill:rgb(188,0,188)" d="M-118,-325L-95,130L-83,123z"></path>
  <path style="fill:rgb(171,0,171)" d="M118,-325L94,129L104,138z"></path>
  <path style="fill:rgb(181,0,181)" d="M-131,-318L-104,138L-94,129z"></path>
  <path style="fill:rgb(162,0,162)" d="M131,-318L104,137L113,146z"></path>
  <path style="fill:rgb(174,0,174)" d="M-142,-310L-113,146L-104,137z"></path>
  <path style="fill:rgb(151,0,151)" d="M142,-310L112,145L121,155z"></path>
  <path style="fill:rgb(165,0,165)" d="M-151,-301L-121,155L-112,145z"></path>
  <path style="fill:rgb(139,0,139)" d="M151,-301L120,155L127,165z"></path>
  <path style="fill:rgb(155,0,155)" d="M-160,-292L-127,165L-120,154z"></path>
  <path style="fill:rgb(124,0,124)" d="M160,-292L126,164L132,175z"></path>
  <path style="fill:rgb(143,0,143)" d="M-166,-282L-132,175L-126,164z"></path>
  <path style="fill:rgb(106,0,106)" d="M166,-282L132,174L136,186z"></path>
  <path style="fill:rgb(130,0,130)" d="M-171,-272L-136,186L-132,174z"></path>
  <path style="fill:rgb(83,0,83)" d="M171,-272L135,185L138,197z"></path>
  <path style="fill:rgb(113,0,113)" d="M-175,-261L-138,197L-135,185z"></path>
  <path style="fill:rgb(45,0,45)" d="M175,-261L138,196L139,208z"></path>
  <path style="fill:rgb(91,0,91)" d="M-176,-251L-139,208L-138,196z"></path>
  <path style="fill:rgb(0,0,0)" d="M176,-251L139,207L138,219z"></path>
  <path style="fill:rgb(60,0,60)" d="M-175,-240L-138,219L-139,207z"></path>
  <path style="fill:rgb(211,0,211)" d="M-9,-351L7,102L9,-351zM-26,-350L-7,102L-8,-351z"></path>
  <path style="fill:rgb(210,0,210)" d="M8,-351L21,103L26,-350z"></path>
  <path style="fill:rgb(211,0,211)" d="M-43,-348L-20,103L-25,-350z"></path>
  <path style="fill:rgb(208,0,208)" d="M25,-350L34,105L43,-348z"></path>
  <path style="fill:rgb(209,0,209)" d="M-59,-345L-34,105L-42,-348z"></path>
  <path style="fill:rgb(0,0,0)" d="M-264,-232L-208,227L-205,245z"></path>
  <path style="fill:rgb(206,0,206)" d="M42,-348L47,108L59,-345z"></path>
  <path style="fill:rgb(207,0,207)" d="M-75,-341L-47,108L-58,-345z"></path>
  <path style="fill:rgb(202,0,202)" d="M58,-345L60,112L75,-341z"></path>
  <path style="fill:rgb(69,0,69)" d="M261,-215L205,245L208,227z"></path>
  <path style="fill:rgb(203,0,203)" d="M-91,-336L-60,112L-74,-342z"></path>
  <path style="fill:rgb(197,0,197)" d="M74,-342L72,117L91,-336z"></path>
  <path style="fill:rgb(199,0,199)" d="M-105,-331L-72,117L-90,-337z"></path>
  <path style="fill:rgb(192,0,192)" d="M90,-337L83,123L105,-331z"></path>
  <path style="fill:rgb(57,0,57)" d="M-261,-215L-205,244L-200,261z"></path>
  <path style="fill:rgb(193,0,193)" d="M-119,-324L-83,123L-104,-331z"></path>
  <path style="fill:rgb(185,0,185)" d="M104,-331L94,130L119,-324z"></path>
  <path style="fill:rgb(97,0,97)" d="M255,-199L200,261L205,244z"></path>
  <path style="fill:rgb(187,0,187)" d="M-131,-317L-94,130L-118,-325z"></path>
  <path style="fill:rgb(177,0,177)" d="M118,-325L104,138L131,-317z"></path>
  <path style="fill:rgb(89,0,89)" d="M-255,-199L-200,260L-192,278z"></path>
  <path style="fill:rgb(179,0,179)" d="M-142,-309L-104,138L-130,-318z"></path>
  <path style="fill:rgb(117,0,117)" d="M246,-183L192,278L200,260z"></path>
  <path style="fill:rgb(168,0,168)" d="M130,-318L113,146L142,-309z"></path>
  <path style="fill:rgb(171,0,171)" d="M-152,-300L-113,146L-141,-310z"></path>
  <path style="fill:rgb(111,0,111)" d="M-246,-183L-193,277L-182,293z"></path>
  <path style="fill:rgb(157,0,157)" d="M141,-310L120,155L152,-300z"></path>
  <path style="fill:rgb(132,0,132)" d="M234,-168L182,293L193,277z"></path>
  <path style="fill:rgb(160,0,160)" d="M-160,-291L-120,155L-151,-301z"></path>
  <path style="fill:rgb(144,0,144)" d="M151,-301L127,165L160,-291z"></path>
  <path style="fill:rgb(127,0,127)" d="M-234,-168L-183,292L-170,308z"></path>
  <path style="fill:rgb(148,0,148)" d="M-167,-281L-127,165L-159,-292z"></path>
  <path style="fill:rgb(145,0,145)" d="M219,-153L170,308L183,292z"></path>
  <path style="fill:rgb(129,0,129)" d="M159,-292L132,175L167,-281z"></path>
  <path style="fill:rgb(187,0,187)" d="M9,-350L13,-394L-13,-394zM-8,-350L-12,-394L-38,-393z"></path>
  <path style="fill:rgb(141,0,141)" d="M-219,-153L-171,307L-156,322z"></path>
  <path style="fill:rgb(187,0,187)" d="M26,-349L38,-393L12,-394zM-25,-349L-37,-393L-63,-390zM42,-347L62,-390L37,-393z"></path>
  <path style="fill:rgb(134,0,134)" d="M-172,-271L-132,175L-166,-282z"></path>
  <path style="fill:rgb(187,0,187)" d="M-42,-347L-61,-390L-87,-386z"></path>
  <path style="fill:rgb(156,0,156)" d="M201,-139L156,322L171,307z"></path>
  <path style="fill:rgb(110,0,110)" d="M166,-282L135,186L172,-271z"></path>
  <path style="fill:rgb(187,0,187)" d="M59,-344L87,-386L61,-390zM-58,-344L-86,-386L-110,-380zM74,-340L110,-380L85,-386z"></path>
  <path style="fill:rgb(153,0,153)" d="M-201,-139L-156,321L-139,335z"></path>
  <path style="fill:rgb(117,0,117)" d="M-175,-261L-135,186L-171,-272z"></path>
  <path style="fill:rgb(187,0,187)" d="M9,-350L-13,-395L-9,-350z"></path>
  <path style="fill:rgb(86,0,86)" d="M171,-272L138,197L175,-261z"></path>
  <path style="fill:rgb(187,0,187)" d="M-74,-340L-109,-381L-132,-373z"></path>
  <path style="fill:rgb(188,0,188)" d="M26,-349L12,-395L8,-350z"></path>
  <path style="fill:rgb(165,0,165)" d="M180,-126L139,335L156,321z"></path>
  <path style="fill:rgb(187,0,187)" d="M-8,-350L-38,-393L-26,-349z"></path>
  <path style="fill:rgb(188,0,188)" d="M43,-347L37,-393L25,-349zM90,-335L132,-373L109,-381zM-25,-349L-62,-390L-43,-347zM59,-344L62,-390L42,-347z"></path>
  <path style="fill:rgb(162,0,162)" d="M-180,-126L-140,334L-121,346z"></path>
  <path style="fill:rgb(188,0,188)" d="M-42,-347L-86,-386L-59,-344z"></path>
  <path style="fill:rgb(187,0,187)" d="M-89,-336L-131,-374L-154,-365z"></path>
  <path style="fill:rgb(95,0,95)" d="M-176,-250L-138,197L-174,-261z"></path>
  <path style="fill:rgb(188,0,188)" d="M75,-340L86,-386L58,-344zM104,-330L154,-365L131,-374z"></path>
  <path style="fill:rgb(172,0,172)" d="M157,-115L121,346L140,334z"></path>
  <path style="fill:rgb(47,0,47)" d="M174,-261L139,208L176,-250z"></path>
  <path style="fill:rgb(188,0,188)" d="M-58,-345L-110,-381L-75,-340zM90,-336L110,-381L74,-341z"></path>
  <path style="fill:rgb(170,0,170)" d="M-157,-115L-122,345L-101,356z"></path>
  <path style="fill:rgb(188,0,188)" d="M-104,-330L-153,-366L-174,-356zM-74,-341L-132,-374L-90,-336z"></path>
  <path style="fill:rgb(189,0,189)" d="M117,-323L174,-356L153,-366z"></path>
  <path style="fill:rgb(179,0,179)" d="M132,-105L101,356L122,345z"></path>
  <path style="fill:rgb(63,0,63)" d="M-175,-239L-139,208L-176,-251z"></path>
  <path style="fill:rgb(189,0,189)" d="M105,-330L132,-374L89,-336z"></path>
  <path style="fill:rgb(0,0,0)" d="M176,-251L138,219L175,-239z"></path>
  <path style="fill:rgb(177,0,177)" d="M-132,-105L-102,355L-80,363z"></path>
  <path style="fill:rgb(188,0,188)" d="M-89,-336L-154,-366L-105,-330z"></path>
  <path style="fill:rgb(183,0,183)" d="M105,-97L80,363L102,355z"></path>
  <path style="fill:rgb(188,0,188)" d="M-117,-324L-173,-357L-193,-346z"></path>
  <path style="fill:rgb(189,0,189)" d="M118,-323L154,-366L104,-330zM130,-316L193,-346L173,-357z"></path>
  <path style="fill:rgb(182,0,182)" d="M-105,-97L-81,363L-58,369z"></path>
  <path style="fill:rgb(187,0,187)" d="M76,-91L58,370L81,363z"></path>
  <path style="fill:rgb(189,0,189)" d="M-104,-331L-174,-356L-118,-324z"></path>
  <path style="fill:rgb(186,0,186)" d="M-76,-91L-59,369L-35,374z"></path>
  <path style="fill:rgb(189,0,189)" d="M46,-87L35,374L59,369z"></path>
  <path style="fill:rgb(188,0,188)" d="M-46,-87L-36,373L-11,376z"></path>
  <path style="fill:rgb(190,0,190)" d="M131,-316L174,-357L117,-324z"></path>
  <path style="fill:rgb(189,0,189)" d="M-130,-316L-192,-346L-209,-334z"></path>
  <path style="fill:rgb(190,0,190)" d="M15,-85L11,376L36,373zM-15,-85L-12,376L12,376z"></path>
  <path style="fill:rgb(72,0,72)" d="M261,-214L208,228L264,-232z"></path>
  <path style="fill:rgb(190,0,190)" d="M141,-308L209,-334L192,-346z"></path>
  <path style="fill:rgb(189,0,189)" d="M-117,-324L-193,-346L-130,-316z"></path>
  <path style="fill:rgb(0,0,0)" d="M-264,-232L-205,245L-261,-214z"></path>
  <path style="fill:rgb(190,0,190)" d="M142,-308L192,-346L130,-317z"></path>
  <path style="fill:rgb(189,0,189)" d="M-141,-309L-209,-335L-224,-321z"></path>
  <path style="fill:rgb(190,0,190)" d="M-130,-317L-209,-334L-142,-308zM150,-300L224,-321L209,-335z"></path>
  <path style="fill:rgb(100,0,100)" d="M255,-198L205,245L261,-215z"></path>
  <path style="fill:rgb(191,0,191)" d="M151,-300L209,-335L141,-309z"></path>
  <path style="fill:rgb(59,0,59)" d="M-261,-215L-200,261L-255,-198z"></path>
  <path style="fill:rgb(190,0,190)" d="M-141,-309L-225,-322L-151,-300zM-150,-300L-224,-322L-237,-308z"></path>
  <path style="fill:rgb(191,0,191)" d="M159,-291L237,-308L224,-322zM160,-290L225,-322L151,-300z"></path>
  <path style="fill:rgb(121,0,121)" d="M246,-182L200,261L256,-199z"></path>
  <path style="fill:rgb(191,0,191)" d="M-151,-300L-238,-308L-159,-290z"></path>
  <path style="fill:rgb(93,0,93)" d="M-256,-199L-192,278L-246,-182z"></path>
  <path style="fill:rgb(191,0,191)" d="M-159,-291L-237,-309L-248,-293z"></path>
  <path style="fill:rgb(192,0,192)" d="M165,-281L248,-293L237,-309zM166,-281L238,-308L159,-291z"></path>
  <path style="fill:rgb(191,0,191)" d="M-159,-291L-248,-294L-166,-281z"></path>
  <path style="fill:rgb(137,0,137)" d="M234,-167L192,278L247,-183z"></path>
  <path style="fill:rgb(191,0,191)" d="M-165,-281L-248,-294L-256,-278z"></path>
  <path style="fill:rgb(115,0,115)" d="M-247,-183L-182,293L-234,-167z"></path>
  <path style="fill:rgb(193,0,193)" d="M171,-270L248,-294L166,-282zM170,-271L256,-278L247,-294z"></path>
  <path style="fill:rgb(192,0,192)" d="M-166,-282L-257,-279L-171,-270z"></path>
  <path style="fill:rgb(151,0,151)" d="M219,-152L182,293L235,-167z"></path>
  <path style="fill:rgb(133,0,133)" d="M-235,-167L-170,308L-219,-152z"></path>
  <path style="fill:rgb(192,0,192)" d="M-170,-271L-256,-279L-262,-263z"></path>
  <path style="fill:rgb(193,0,193)" d="M174,-260L257,-279L171,-271zM173,-260L262,-263L256,-279zM-171,-272L-262,-263L-174,-260z"></path>
  <path style="fill:rgb(162,0,162)" d="M201,-138L170,308L219,-153z"></path>
  <path style="fill:rgb(147,0,147)" d="M-219,-153L-156,322L-201,-138z"></path>
  <path style="fill:rgb(194,0,194)" d="M175,-249L262,-263L174,-261z"></path>
  <path style="fill:rgb(193,0,193)" d="M-173,-261L-262,-264L-265,-247z"></path>
  <path style="fill:rgb(194,0,194)" d="M175,-250L265,-247L262,-264z"></path>
  <path style="fill:rgb(193,0,193)" d="M-174,-261L-265,-247L-175,-249z"></path>
  <path style="fill:rgb(171,0,171)" d="M180,-126L156,322L202,-139z"></path>
  <path style="fill:rgb(159,0,159)" d="M-202,-139L-140,335L-180,-126z"></path>
  <path style="fill:rgb(195,0,195)" d="M175,-238L265,-247L175,-250z"></path>
  <path style="fill:rgb(194,0,194)" d="M-175,-250L-265,-248L-265,-230zM-175,-250L-265,-231L-175,-239z"></path>
  <path style="fill:rgb(179,0,179)" d="M157,-114L140,335L181,-126z"></path>
  <path style="fill:rgb(195,0,195)" d="M174,-239L265,-230L265,-248z"></path>
  <path style="fill:rgb(169,0,169)" d="M-181,-126L-122,346L-157,-114z"></path>
  <path style="fill:rgb(196,0,196)" d="M172,-228L265,-231L175,-240z"></path>
  <path style="fill:rgb(186,0,186)" d="M131,-105L122,346L158,-115z"></path>
  <path style="fill:rgb(177,0,177)" d="M-158,-115L-102,356L-131,-105z"></path>
  <path style="fill:rgb(195,0,195)" d="M-174,-239L-265,-231L-262,-214zM-175,-240L-262,-214L-172,-228z"></path>
  <path style="fill:rgb(196,0,196)" d="M172,-228L262,-214L265,-231z"></path>
  <path style="fill:rgb(191,0,191)" d="M104,-97L102,356L132,-105z"></path>
  <path style="fill:rgb(184,0,184)" d="M-132,-105L-81,364L-104,-97z"></path>
  <path style="fill:rgb(196,0,196)" d="M167,-217L262,-214L172,-229z"></path>
  <path style="fill:rgb(194,0,194)" d="M75,-91L81,364L105,-97z"></path>
  <path style="fill:rgb(189,0,189)" d="M-105,-97L-58,370L-75,-91z"></path>
  <path style="fill:rgb(196,0,196)" d="M-172,-229L-256,-198L-167,-217zM-172,-228L-262,-215L-256,-197z"></path>
  <path style="fill:rgb(197,0,197)" d="M45,-86L58,370L76,-91z"></path>
  <path style="fill:rgb(193,0,193)" d="M-76,-91L-35,374L-45,-86z"></path>
  <path style="fill:rgb(197,0,197)" d="M167,-218L256,-197L262,-215z"></path>
  <path style="fill:rgb(198,0,198)" d="M15,-84L35,374L46,-86z"></path>
  <path style="fill:rgb(196,0,196)" d="M-46,-86L-12,376L-15,-84z"></path>
  <path style="fill:rgb(198,0,198)" d="M-16,-84L12,376L16,-84z"></path>
  <path style="fill:rgb(197,0,197)" d="M161,-207L256,-198L168,-218z"></path>
  <path style="fill:rgb(196,0,196)" d="M-168,-218L-247,-182L-161,-207zM-167,-218L-256,-198L-246,-181z"></path>
  <path style="fill:rgb(198,0,198)" d="M160,-207L246,-181L256,-198zM152,-197L247,-182L161,-208z"></path>
  <path style="fill:rgb(197,0,197)" d="M-161,-208L-235,-166L-152,-197zM-161,-208L-247,-182L-234,-166z"></path>
  <path style="fill:rgb(198,0,198)" d="M142,-188L235,-166L153,-198z"></path>
  <path style="fill:rgb(199,0,199)" d="M152,-198L234,-166L247,-182z"></path>
  <path style="fill:rgb(198,0,198)" d="M-153,-198L-220,-151L-142,-188z"></path>
  <path style="fill:rgb(199,0,199)" d="M130,-179L220,-151L143,-188z"></path>
  <path style="fill:rgb(198,0,198)" d="M-152,-198L-235,-167L-219,-151z"></path>
  <path style="fill:rgb(199,0,199)" d="M142,-188L219,-151L235,-167zM-143,-188L-202,-137L-130,-179z"></path>
  <path style="fill:rgb(200,0,200)" d="M116,-171L202,-137L131,-180z"></path>
  <path style="fill:rgb(199,0,199)" d="M-142,-188L-220,-152L-201,-137zM-131,-180L-181,-125L-116,-171z"></path>
  <path style="fill:rgb(200,0,200)" d="M130,-179L201,-137L220,-152zM101,-164L181,-125L117,-172zM-117,-172L-158,-113L-101,-164zM-130,-180L-202,-138L-180,-125z"></path>
  <path style="fill:rgb(201,0,201)" d="M84,-158L158,-113L102,-165zM116,-172L180,-125L202,-138z"></path>
  <path style="fill:rgb(200,0,200)" d="M-102,-165L-132,-103L-84,-158z"></path>
  <path style="fill:rgb(201,0,201)" d="M66,-153L133,-104L85,-158z"></path>
  <path style="fill:rgb(200,0,200)" d="M-116,-172L-181,-125L-157,-113z"></path>
  <path style="fill:rgb(201,0,201)" d="M-85,-159L-105,-95L-67,-153zM101,-165L157,-113L181,-125zM48,-149L105,-95L67,-153zM-68,-154L-76,-89L-48,-150zM29,-147L76,-89L49,-150zM-101,-165L-158,-114L-132,-104zM-49,-150L-46,-85L-29,-147z"></path>
  <path style="fill:rgb(202,0,202)" d="M9,-146L46,-85L30,-147zM84,-159L132,-104L158,-114z"></path>
  <path style="fill:rgb(201,0,201)" d="M-30,-147L-15,-83L-9,-146z"></path>
  <path style="fill:rgb(202,0,202)" d="M-11,-146L16,-83L10,-146z"></path>
  <path style="fill:rgb(201,0,201)" d="M-84,-159L-133,-104L-104,-96z"></path>
  <path style="fill:rgb(202,0,202)" d="M67,-154L104,-96L133,-104zM-67,-154L-105,-96L-75,-90zM48,-150L76,-90L105,-96zM-49,-150L-77,-90L-45,-85z"></path>
  <path style="fill:rgb(203,0,203)" d="M29,-147L46,-85L77,-90z"></path>
  <path style="fill:rgb(202,0,202)" d="M-29,-148L-47,-86L-15,-83z"></path>
  <path style="fill:rgb(203,0,203)" d="M10,-146L15,-83L47,-86zM-10,-146L-16,-83L16,-83z"></path>
 </svg>
</svg>