<svg xmlns="http://www.w3.org/2000/svg" width="1200" height="800"><svg xmlns="http://www.w3.org/2000/svg" viewBox="-600 -400 1200 800" width="1200" height="800" style="background:rgb(255,255,255)"><path style="fill:rgb(0,55,55)" d="M-240,-139L-74,-267L-178,-230z"/><path style="fill:rgb(0,37,37)" d="M-110,270L0,277L-81,199zM-110,270L-81,199L-194,198z"/><path style="fill:rgb(0,69,69)" d="M289,-39L240,-139L213,-29zM289,-39L213,-29L268,69z"/><path style="fill:rgb(0,102,102)" d="M-240,-139L-308,42L-208,28z"/><path style="fill:rgb(0,123,123)" d="M79,-194L118,-287L-74,-267z"/><path style="fill:rgb(0,128,128)" d="M79,-194L240,-139L118,-287z"/><path style="fill:rgb(0,95,95)" d="M-308,42L-194,198L-81,199z"/><path style="fill:rgb(0,116,116)" d="M190,246L268,69L213,-29z"/><path style="fill:rgb(0,103,103)" d="M190,246L-81,199L0,277z"/><path style="fill:rgb(0,58,58)" d="M-240,-139L-132,-170L-74,-267z"/><path style="fill:rgb(0,97,97)" d="M-308,42L-81,199L-208,28z"/><path style="fill:rgb(0,118,118)" d="M190,246L213,-29L129,166z"/><path style="fill:rgb(0,106,106)" d="M190,246L129,166L-81,199zM-240,-139L-208,28L-132,-170z"/><path style="fill:rgb(0,127,127)" d="M79,-194L-74,-267L-132,-170z"/><path style="fill:rgb(0,133,133)" d="M79,-194L213,-29L240,-139z"/><path style="fill:rgb(0,208,208)" d="M-132,-170L-208,28L-81,199z"/><path style="fill:rgb(0,215,215)" d="M0,-0L-81,199L129,166z"/><path style="fill:rgb(0,225,225)" d="M79,-194L0,-0L213,-29z"/><path style="fill:rgb(0,216,216)" d="M0,-0L129,166L213,-29z"/><path style="fill:rgb(0,224,224)" d="M79,-194L-132,-170L0,-0z"/><path style="fill:rgb(0,212,212)" d="M-132,-170L-81,199L0,-0z"/></svg></svg>