<svg width="1200" height="800" viewBox="0 0 1000 700" preserveAspectRatio="none" xmlns="http://www.w3.org/2000/svg">
 <defs>
  <pattern id="pat_3004_0" patternUnits="userSpaceOnUse" width="8" height="8">
   <path d="M8,0L0,8" style="stroke: white; stroke-width: 1;"></path>
  </pattern>
 </defs>
 <title>
  ROOT canvas
 </title>
 <rect x="0" y="0" width="1000" height="700" style="fill: white;"></rect>
 <g>
  <g transform="translate(70,84)">
   <title></title>
   <rect x="0" y="0" width="880" height="532" style="fill: none; stroke: black; stroke-width: 1;"></rect>
   <svg x="0" y="0" overflow="hidden" width="880" height="532" viewBox="0 0 880 532">
    <g objname="name" objtype="ROOT::Experimental::RHist1Drawable">
     <path d="M0,532h35v-7h35v-8h36v-60h35v-90h35v-120h35v-179h35v-43h36v98h35v105h35v147h35v95h35v25h36v32h35v3h35v2h352" style="stroke-linejoin: miter; stroke: #FF0000; stroke-width: 2; fill: none;"></path>
    </g>
    <g objname="name" objtype="ROOT::Experimental::RHist1Drawable">
     <path d="M0,532h211v-2h35v2h71v-7h35v-18h35v-17h35v-50h36v-38h35v-57h35v-3h35v-152h35v-15h36v50h35v55h35v42h35v38h35v95h36v15h35v35h35" style="stroke-linejoin: miter; stroke: #0000FF; stroke-width: 4; fill: none;"></path>
    </g>
   </svg>
   <g>
    <g transform="translate(0,532)">
     <path d="M0,-14v14m44,-7v7m44,-7v7m44,-7v7m44,-14v14m44,-7v7m44,-7v7m44,-7v7m44,-14v14m44,-7v7m44,-7v7m44,-7v7m44,-14v14m44,-7v7m44,-7v7m44,-7v7m44,-14v14m44,-7v7m44,-7v7m44,-7v7m44,-14v14" style="stroke: black;"></path>
     <g font-family="Arial" font-size="21" space="preserve">
      <text text-anchor="middle" dy=".8em" transform="translate(0,4)">
       0
      </text>
      <text text-anchor="middle" dy=".8em" transform="translate(176,4)">
       2
      </text>
      <text text-anchor="middle" dy=".8em" transform="translate(352,4)">
       4
      </text>
      <text text-anchor="middle" dy=".8em" transform="translate(528,4)">
       6
      </text>
      <text text-anchor="middle" dy=".8em" transform="translate(704,4)">
       8
      </text>
      <text text-anchor="middle" dy=".8em" transform="translate(880,4)">
       10
      </text>
     </g>
    </g>
    <g transform="translate(0,532)">
     <path d="M20,0h-20m10,-12h-10m10,-13h-10m10,-12h-10m20,-13h-20m10,-12h-10m10,-13h-10m10,-12h-10m20,-13h-20m10,-12h-10m10,-13h-10m10,-12h-10m20,-13h-20m10,-12h-10m10,-13h-10m10,-12h-10m20,-13h-20m10,-12h-10m10,-13h-10m10,-12h-10m20,-13h-20m10,-12h-10m10,-13h-10m10,-12h-10m20,-13h-20m10,-12h-10m10,-12h-10m10,-13h-10m20,-12h-20m10,-13h-10m10,-12h-10m10,-13h-10m20,-12h-20m10,-13h-10m10,-12h-10m10,-13h-10m20,-12h-20m10,-13h-10m10,-12h-10m10,-13h-10m20,-12h-20m10,-13h-10m10,-12h-10" style="stroke: black;"></path>
     <g font-family="Arial" font-size="21" space="preserve">
      <text text-anchor="end" dy=".4em" transform="translate(-5,0)">
       0
      </text>
      <text text-anchor="end" dy=".4em" transform="translate(-5,-50)">
       20
      </text>
      <text text-anchor="end" dy=".4em" transform="translate(-5,-100)">
       40
      </text>
      <text text-anchor="end" dy=".4em" transform="translate(-5,-150)">
       60
      </text>
      <text text-anchor="end" dy=".4em" transform="translate(-5,-200)">
       80
      </text>
      <text text-anchor="end" dy=".4em" transform="translate(-5,-250)">
       100
      </text>
      <text text-anchor="end" dy=".4em" transform="translate(-5,-300)">
       120
      </text>
      <text text-anchor="end" dy=".4em" transform="translate(-5,-349)">
       140
      </text>
      <text text-anchor="end" dy=".4em" transform="translate(-5,-399)">
       160
      </text>
      <text text-anchor="end" dy=".4em" transform="translate(-5,-449)">
       180
      </text>
      <text text-anchor="end" dy=".4em" transform="translate(-5,-499)">
       200
      </text>
     </g>
    </g>
   </g>
  </g>
  <g objname="name" objtype="ROOT::Experimental::RPaletteDrawable"></g>
  <g objname="name" objtype="ROOT::Experimental::RLegend" transform="translate(670,70)" x="670" y="70" width="300" height="210" font-family="Arial" font-size="41" space="preserve">
   <rect x="0" width="300" y="0" height="210" style="stroke: #FF0000;" stroke-width="2" fill="#FFFFFF"></rect>
   <text fill="black" text-anchor="middle" dy=".4em" transform="translate(150,26)">
    Legend title
   </text>
   <text fill="black" text-anchor="middle" dy=".4em" transform="translate(191,79)">
    histo1
   </text>
   <line x1="6" y1="79" x2="81" y2="79" style="stroke: #FF0000; stroke-width: 2;"></line>
   <text fill="black" text-anchor="middle" dy=".4em" transform="translate(191,131)">
    histo2
   </text>
   <line x1="6" y1="131" x2="81" y2="131" style="stroke: #0000FF; stroke-width: 4;"></line>
   <text fill="black" text-anchor="middle" dy=".4em" transform="translate(191,184)">
    test
   </text>
   <rect x="6" y="163" width="75" height="42" style="fill: #0000FF;"></rect>
   <line x1="6" y1="184" x2="81" y2="184" style="stroke: #008000; stroke-width: 5;"></line>
   <path d="M48,188h8v-8h-8v-8h-8v8h-8v8h8v8h8z" style="stroke: #FF0000; fill: none;"></path>
  </g>
 </g>
</svg>