<svg viewBox="0 0 1200 800" preserveAspectRatio="none" xmlns="http://www.w3.org/2000/svg" width="1200" height="800"><title>ROOT canvas</title><rect x="0" y="0"></rect><g><g transform="translate(84,96)"><title></title><rect x="0" y="0" width="1056" height="608" style="fill: white; stroke: black; stroke-width: 1;"></rect><g><path d="M0,0v608M211,0v608M422,0v608M634,0v608M845,0v608M1056,0v608" style="stroke: black; stroke-width: 1; stroke-dasharray: 1,2;"></path><path d="M0,608h1056M0,550h1056M0,492h1056M0,434h1056M0,376h1056M0,318h1056M0,261h1056M0,203h1056M0,145h1056M0,87h1056M0,29h1056" style="stroke: black; stroke-width: 1; stroke-dasharray: 1,2;"></path></g><svg x="0" y="0" overflow="hidden" width="1056" height="608" viewBox="0 0 1056 608"><g objname="name" objtype="ROOT::Experimental::THistDrawable%3C1%3E"><path d="M0,608h106v-290h105v-289h106v289h105v290h634" style="stroke-linejoin: miter; stroke: rgb(0,0,255); stroke-width: 1; fill: none;"></path></g></svg><g><g transform="translate(0,608)"><path d="M0,-24v24m53,-12v12m53,-12v12m52,-12v12m53,-24v24m53,-12v12m53,-12v12m53,-12v12m52,-24v24m53,-12v12m53,-12v12m53,-12v12m53,-24v24m52,-12v12m53,-12v12m53,-12v12m53,-24v24m53,-12v12m52,-12v12m53,-12v12m53,-24v24" style="stroke: black; stroke-width: 1;"></path><g font-family="Arial" font-size="28" space="preserve"><text fill="black" text-anchor="middle" dy=".8em" transform="translate(0,6)">0</text><text fill="black" text-anchor="middle" dy=".8em" transform="translate(211,6)">2</text><text fill="black" text-anchor="middle" dy=".8em" transform="translate(422,6)">4</text><text fill="black" text-anchor="middle" dy=".8em" transform="translate(634,6)">6</text><text fill="black" text-anchor="middle" dy=".8em" transform="translate(845,6)">8</text><text fill="black" text-anchor="middle" dy=".8em" transform="translate(1056,6)">10</text></g></g><g><path d="M36,608h-36m18,-14h-18m18,-15h-18m18,-14h-18m36,-15h-36m18,-14h-18m18,-15h-18m18,-14h-18m36,-15h-36m18,-14h-18m18,-15h-18m18,-14h-18m36,-15h-36m18,-14h-18m18,-15h-18m18,-14h-18m36,-15h-36m18,-14h-18m18,-15h-18m18,-14h-18m36,-15h-36m18,-14h-18m18,-14h-18m18,-15h-18m36,-14h-36m18,-15h-18m18,-14h-18m18,-15h-18m36,-14h-36m18,-15h-18m18,-14h-18m18,-15h-18m36,-14h-36m18,-15h-18m18,-14h-18m18,-15h-18m36,-14h-36m18,-15h-18m18,-14h-18m18,-15h-18m36,-14h-36m18,-15h-18m18,-14h-18" style="stroke: black; stroke-width: 1;"></path><g font-family="Arial" font-size="28" space="preserve"><text fill="black" text-anchor="end" dy=".4em" transform="translate(-4,608)">0</text><text fill="black" text-anchor="end" dy=".4em" transform="translate(-4,550)">0.2</text><text fill="black" text-anchor="end" dy=".4em" transform="translate(-4,492)">0.4</text><text fill="black" text-anchor="end" dy=".4em" transform="translate(-4,434)">0.6</text><text fill="black" text-anchor="end" dy=".4em" transform="translate(-4,376)">0.8</text><text fill="black" text-anchor="end" dy=".4em" transform="translate(-4,318)">1</text><text fill="black" text-anchor="end" dy=".4em" transform="translate(-4,261)">1.2</text><text fill="black" text-anchor="end" dy=".4em" transform="translate(-4,203)">1.4</text><text fill="black" text-anchor="end" dy=".4em" transform="translate(-4,145)">1.6</text><text fill="black" text-anchor="end" dy=".4em" transform="translate(-4,87)">1.8</text><text fill="black" text-anchor="end" dy=".4em" transform="translate(-4,29)">2</text></g></g></g></g></g></svg>