<svg xmlns="http://www.w3.org/2000/svg" viewBox="0 0 696 372" preserveAspectRatio="none" width="696" height="372">
 <path d="M0,0H696V372H0Z" style="fill: white;"></path>
 <g>
  <svg viewBox="0 0 334 365" preserveAspectRatio="none" x="7" y="3" width="334" height="365">
   <path d="M0,0H334V365H0Z" style="fill: white;"></path>
   <g>
    <g transform="translate(33,37)">
     <path d="M0,0H267V292H0Z" style="fill: white; stroke: black; stroke-width: 1;"></path>
     <svg x="0" y="0" overflow="hidden" width="267" height="292" viewBox="0 0 267 292">
      <g>
       <path d="M80,291h14M87,290v2M93,276h14M100,273v6M107,181h14M114,173v15M120,27h14M127,15v23M134,26h14M141,14v23M147,191h14M154,184v14M160,275h14M167,272v6M174,290h14M181,290v1M187,291h14M194,291v1" style="stroke: blue; stroke-width: 1;"></path>
      </g>
      <g>
       <path d="M80,291h14M87,291v1M93,282h14M100,279v5M107,219h14M114,212v13M120,120h14M127,110v19M134,108h14M141,98v20M147,227h14M154,221v12M160,280h14M167,277v5M174,290h14M181,290v1M187,291h14M194,291v1" style="stroke: #cc00ff; stroke-width: 1;"></path>
      </g>
     </svg>
     <g>
      <g transform="translate(0,292)">
       <path d="M0,0h267M0,-11V0M7,-6V0M13,-6V0M20,-6V0M27,-11V0M33,-6V0M40,-6V0M47,-6V0M53,-11V0M60,-6V0M67,-6V0M73,-6V0M80,-11V0M87,-6V0M93,-6V0M100,-6V0M107,-11V0M113,-6V0M120,-6V0M127,-6V0M134,-11V0M140,-6V0M147,-6V0M154,-6V0M160,-11V0M167,-6V0M174,-6V0M180,-6V0M187,-11V0M194,-6V0M200,-6V0M207,-6V0M214,-11V0M220,-6V0M227,-6V0M234,-6V0M240,-11V0M247,-6V0M254,-6V0M260,-6V0M267,-11V0" style="stroke: black; stroke-width: 1;"></path>
       <g font-family="Arial" font-size="12" space="preserve" fill="black" text-anchor="middle">
        <text dy=".8em" transform="translate(0,2)">
         -10
        </text>
        <text dy=".8em" transform="translate(27,2)">
         -8
        </text>
        <text dy=".8em" transform="translate(53,2)">
         -6
        </text>
        <text dy=".8em" transform="translate(80,2)">
         -4
        </text>
        <text dy=".8em" transform="translate(107,2)">
         -2
        </text>
        <text dy=".8em" transform="translate(134,2)">
         0
        </text>
        <text dy=".8em" transform="translate(160,2)">
         2
        </text>
        <text dy=".8em" transform="translate(187,2)">
         4
        </text>
        <text dy=".8em" transform="translate(214,2)">
         6
        </text>
        <text dy=".8em" transform="translate(240,2)">
         8
        </text>
        <text dy=".8em" transform="translate(267,2)">
         10
        </text>
       </g>
      </g>
      <g>
       <path d="M0,0v292M10,292H0M5,282H0M5,271H0M5,261H0M5,250H0M10,240H0M5,230H0M5,219H0M5,209H0M5,198H0M10,188H0M5,178H0M5,167H0M5,157H0M5,146H0M10,136H0M5,126H0M5,115H0M5,105H0M5,94H0M10,84H0M5,74H0M5,63H0M5,53H0M5,42H0M10,32H0M5,22H0M5,11H0M5,1H0" style="stroke: black; stroke-width: 1;"></path>
       <g font-family="Arial" font-size="12" space="preserve" fill="black" text-anchor="end">
        <text dy=".4em" transform="translate(-2,292)">
         0
        </text>
        <text dy=".4em" transform="translate(-2,240)">
         100
        </text>
        <text dy=".4em" transform="translate(-2,188)">
         200
        </text>
        <text dy=".4em" transform="translate(-2,136)">
         300
        </text>
        <text dy=".4em" transform="translate(-2,84)">
         400
        </text>
        <text dy=".4em" transform="translate(-2,32)">
         500
        </text>
       </g>
      </g>
     </g>
    </g>
    <g transform="translate(153,2)" font-family="Arial" font-size="14" space="preserve">
     <text fill="black" text-anchor="middle" dy=".4em" transform="translate(15,10)">
      st1
     </text>
    </g>
   </g>
  </svg>
  <svg viewBox="0 0 334 365" preserveAspectRatio="none" x="355" y="3" width="334" height="365">
   <path d="M0,0H334V365H0Z" style="fill: white;"></path>
   <g>
    <g transform="translate(33,37)">
     <path d="M0,0H267V292H0Z" style="fill: white; stroke: black; stroke-width: 1;"></path>
     <svg x="0" y="0" overflow="hidden" width="267" height="292" viewBox="0 0 267 292">
      <g>
       <path d="M0,292h80v-1h13v-16h14v-99h13v-161h14v-1h13v173h13v87h14v16h13v1h13v1h67L267,295H0Z" style="stroke-linejoin: miter; stroke: blue; stroke-width: 1; fill: blue;"></path>
      </g>
      <g>
       <path d="M0,292h80v-1h13v-10h14v-66h13v-103h14v-12h13v124h13v55h14v11h13v1h13v1h67L267,295H0Z" style="stroke-linejoin: miter; stroke: #cc00ff; stroke-width: 1; fill: #cc00ff;"></path>
      </g>
     </svg>
     <g>
      <g transform="translate(0,292)">
       <path d="M0,0h267M0,-11V0M7,-6V0M13,-6V0M20,-6V0M27,-11V0M33,-6V0M40,-6V0M47,-6V0M53,-11V0M60,-6V0M67,-6V0M73,-6V0M80,-11V0M87,-6V0M93,-6V0M100,-6V0M107,-11V0M113,-6V0M120,-6V0M127,-6V0M134,-11V0M140,-6V0M147,-6V0M154,-6V0M160,-11V0M167,-6V0M174,-6V0M180,-6V0M187,-11V0M194,-6V0M200,-6V0M207,-6V0M214,-11V0M220,-6V0M227,-6V0M234,-6V0M240,-11V0M247,-6V0M254,-6V0M260,-6V0M267,-11V0" style="stroke: black; stroke-width: 1;"></path>
       <g font-family="Arial" font-size="12" space="preserve" fill="black" text-anchor="middle">
        <text dy=".8em" transform="translate(0,2)">
         -10
        </text>
        <text dy=".8em" transform="translate(27,2)">
         -8
        </text>
        <text dy=".8em" transform="translate(53,2)">
         -6
        </text>
        <text dy=".8em" transform="translate(80,2)">
         -4
        </text>
        <text dy=".8em" transform="translate(107,2)">
         -2
        </text>
        <text dy=".8em" transform="translate(134,2)">
         0
        </text>
        <text dy=".8em" transform="translate(160,2)">
         2
        </text>
        <text dy=".8em" transform="translate(187,2)">
         4
        </text>
        <text dy=".8em" transform="translate(214,2)">
         6
        </text>
        <text dy=".8em" transform="translate(240,2)">
         8
        </text>
        <text dy=".8em" transform="translate(267,2)">
         10
        </text>
       </g>
      </g>
      <g>
       <path d="M0,0v292M10,292H0M5,287H0M5,281H0M5,276H0M5,270H0M10,265H0M5,259H0M5,254H0M5,249H0M5,243H0M10,238H0M5,232H0M5,227H0M5,221H0M5,216H0M10,211H0M5,205H0M5,200H0M5,194H0M5,189H0M10,183H0M5,178H0M5,173H0M5,167H0M5,162H0M10,156H0M5,151H0M5,145H0M5,140H0M5,134H0M10,129H0M5,124H0M5,118H0M5,113H0M5,107H0M10,102H0M5,96H0M5,91H0M5,86H0M5,80H0M10,75H0M5,69H0M5,64H0M5,58H0M5,53H0M10,48H0M5,42H0M5,37H0M5,31H0M5,26H0M10,20H0M5,15H0M5,10H0M5,4H0" style="stroke: black; stroke-width: 1;"></path>
       <g font-family="Arial" font-size="12" space="preserve" fill="black" text-anchor="end">
        <text dy=".4em" transform="translate(-2,292)">
         0
        </text>
        <text dy=".4em" transform="translate(-2,265)">
         50
        </text>
        <text dy=".4em" transform="translate(-2,238)">
         100
        </text>
        <text dy=".4em" transform="translate(-2,211)">
         150
        </text>
        <text dy=".4em" transform="translate(-2,183)">
         200
        </text>
        <text dy=".4em" transform="translate(-2,156)">
         250
        </text>
        <text dy=".4em" transform="translate(-2,129)">
         300
        </text>
        <text dy=".4em" transform="translate(-2,102)">
         350
        </text>
        <text dy=".4em" transform="translate(-2,75)">
         400
        </text>
        <text dy=".4em" transform="translate(-2,48)">
         450
        </text>
        <text dy=".4em" transform="translate(-2,20)">
         500
        </text>
       </g>
      </g>
     </g>
    </g>
    <g transform="translate(153,2)" font-family="Arial" font-size="14" space="preserve">
     <text fill="black" text-anchor="middle" dy=".4em" transform="translate(15,10)">
      st1
     </text>
    </g>
   </g>
  </svg>
 </g>
</svg>