<svg xmlns="http://www.w3.org/2000/svg" viewBox="0 0 1200 800" preserveAspectRatio="none" width="1200" height="800">
 <path d="M0,0H1200V800H0Z" style="fill: white;"></path>
 <g>
  <svg viewBox="0 0 376 784" preserveAspectRatio="none" x="12" y="8" width="376" height="784">
   <path d="M0,0H376V784H0Z" style="fill: white;"></path>
   <g>
    <g transform="translate(38,78)">
     <path d="M0,0H301V627H0Z" style="fill: white; stroke: black; stroke-width: 1;"></path>
     <svg x="0" y="0" overflow="hidden" width="301" height="627" viewBox="0 0 301 627">
      <g>
       <path d="M0,63h15v31h-15zm0,62h15v32h-15zM0,251h15v31h-15zm15,31h15v32h-15zm0,126h15v31h-15zM30,157h15v219h-15zm0,282h15v63h-15zm0,94h15v31h-15zM45,63h15v31h-15zm0,94h15v31h-15zm0,62h15v32h-15zm0,63h15v32h-15zm0,94h15v32h-15zm0,63h15v31h-15zm0,63h15v31h-15zM60,125h15v32h-15zm0,314h15v31h-15zm0,94h15v31h-15zM75,63h15v62h-15zm0,94h15v31h-15zm0,313h15v32h-15zM90,63h15v31h-15zm0,62h15v32h-15zm0,345h15v63h-15zM105,31h15v94h-15zm0,533h15v32h-15zm15,-31h15v63h-15zM135,31h16v63h-16zm0,471h16v31h-16zm0,62h16v32h-16zM151,63h15v62h-15zm0,533h15v31h-15zM166,63h15v62h-15zm0,439h15v94h-15zm15,0h15v62h-15zm15,0h15v62h-15zM211,94h15v31h-15zm0,345h15v63h-15zM226,94h15v94h-15zm0,125h15v32h-15zm0,189h15v62h-15zM241,157h15v219h-15zm0,251h15v62h-15zm0,94h15v62h-15zM256,157h15v62h-15zm0,94h15v94h-15zm0,157h15v62h-15zM271,188h15v63h-15zm15,-31h15v31h-15zm0,62h15v32h-15zm0,95h15v31h-15z" fill="rgb(38, 62, 168)"></path>
       <path d="M60,251h15v63h-15zm0,94h15v31h-15zM75,188h15v31h-15zM90,439h15v31h-15zM105,125h15v32h-15zm15,0h15v32h-15zm15,345h16v32h-16zM151,125h15v32h-15zm0,345h15v32h-15zM166,125h15v32h-15zm0,345h15v32h-15zm15,0h15v32h-15zM211,188h15v31h-15zm0,220h15v31h-15zM226,251h15v31h-15zm0,63h15v62h-15z" fill="rgb(22, 82, 205)"></path>
       <path d="M75,219h15v32h-15zm0,157h15v32h-15zM105,157h15v31h-15zm0,282h15v31h-15zM181,157h15v31h-15zm0,282h15v31h-15zm15,-31h15v31h-15zM211,219h15v32h-15zm0,157h15v32h-15z" fill="rgb(16, 100, 220)"></path>
       <path d="M75,251h15v31h-15zm0,63h15v62h-15zm15,94h15v31h-15zM120,157h15v31h-15zm0,282h15v31h-15zM151,157h15v31h-15zm0,282h15v31h-15zm15,0h15v31h-15zM211,251h15v31h-15zm0,94h15v31h-15z" fill="rgb(18, 114, 217)"></path>
       <path d="M105,408h15v31h-15zm76,0h15v31h-15zM211,282h15v32h-15z" fill="rgb(20, 129, 214)"></path>
       <path d="M120,188h15v31h-15zm76,63h15v31h-15z" fill="rgb(14, 143, 209)"></path>
       <path d="M105,219h15v32h-15zm61,189h15v31h-15z" fill="rgb(9, 157, 204)"></path>
       <path d="M90,314h15v62h-15zm15,62h15v32h-15zM135,188h16v31h-16zm16,0h15v31h-15zm30,31h15v32h-15zm15,63h15v32h-15z" fill="rgb(13, 167, 195)"></path>
       <path d="M151,408h15v31h-15zm15,-32h15v32h-15z" fill="rgb(30, 175, 179)"></path>
       <path d="M166,219h15v32h-15zm15,126h15v31h-15z" fill="rgb(46, 183, 164)"></path>
       <path d="M105,345h15v31h-15zm76,-94h15v31h-15z" fill="rgb(82, 186, 146)"></path>
       <path d="M135,219h16v32h-16zm16,157h15v32h-15z" fill="rgb(116, 189, 129)"></path>
       <path d="M105,314h15v31h-15zm61,-63h15v31h-15zm0,94h15v31h-15z" fill="rgb(179, 189, 101)"></path>
       <path d="M120,251h15v31h-15z" fill="rgb(209, 187, 89)"></path>
       <path d="M120,314h15v31h-15zm15,31h16v31h-16z" fill="rgb(226, 192, 75)"></path>
       <path d="M120,282h15v32h-15zm31,-31h15v31h-15zm0,94h15v31h-15zm15,-63h15v32h-15z" fill="rgb(244, 198, 59)"></path>
       <path d="M135,282h16v32h-16z" fill="rgb(251, 230, 29)"></path>
       <path d="M151,282h15v63h-15z" fill="rgb(249, 249, 15)"></path>
      </g>
     </svg>
     <g>
      <g transform="translate(0,627)">
       <path d="M0,0h301M0,-19V0M8,-10V0M15,-10V0M23,-10V0M30,-10V0M38,-19V0M45,-10V0M53,-10V0M60,-10V0M68,-10V0M75,-19V0M83,-10V0M90,-10V0M98,-10V0M105,-10V0M113,-19V0M120,-10V0M128,-10V0M135,-10V0M143,-10V0M151,-19V0M158,-10V0M166,-10V0M173,-10V0M181,-10V0M188,-19V0M196,-10V0M203,-10V0M211,-10V0M218,-10V0M226,-19V0M233,-10V0M241,-10V0M248,-10V0M256,-10V0M263,-19V0M271,-10V0M278,-10V0M286,-10V0M293,-10V0M301,-19V0" style="stroke: black; stroke-width: 1;"></path>
       <g font-family="Arial" font-size="13" xml:space="preserve" fill="black" text-anchor="middle"><text dy=".8em" transform="translate(0,3)">-4</text><text dy=".8em" transform="translate(38,3)">-3</text><text dy=".8em" transform="translate(75,3)">-2</text><text dy=".8em" transform="translate(113,3)">-1</text><text dy=".8em" transform="translate(151,3)">0</text><text dy=".8em" transform="translate(188,3)">1</text><text dy=".8em" transform="translate(226,3)">2</text><text dy=".8em" transform="translate(263,3)">3</text><text dy=".8em" transform="translate(301,3)">4</text></g>
      </g>
      <g>
       <path d="M0,0v627M9,627H0M5,611H0M5,596H0M5,580H0M5,564H0M9,549H0M5,533H0M5,517H0M5,502H0M5,486H0M9,470H0M5,455H0M5,439H0M5,423H0M5,408H0M9,392H0M5,376H0M5,361H0M5,345H0M5,329H0M9,314H0M5,298H0M5,282H0M5,266H0M5,251H0M9,235H0M5,219H0M5,204H0M5,188H0M5,172H0M9,157H0M5,141H0M5,125H0M5,110H0M5,94H0M9,78H0M5,63H0M5,47H0M5,31H0M5,16H0M9,0H0" style="stroke: black; stroke-width: 1;"></path>
       <g font-family="Arial" font-size="13" xml:space="preserve" fill="black" text-anchor="end"><text dominant-baseline="middle" transform="translate(-3,627)">-4</text><text dominant-baseline="middle" transform="translate(-3,549)">-3</text><text dominant-baseline="middle" transform="translate(-3,470)">-2</text><text dominant-baseline="middle" transform="translate(-3,392)">-1</text><text dominant-baseline="middle" transform="translate(-3,314)">0</text><text dominant-baseline="middle" transform="translate(-3,235)">1</text><text dominant-baseline="middle" transform="translate(-3,157)">2</text><text dominant-baseline="middle" transform="translate(-3,78)">3</text><text dominant-baseline="middle" transform="translate(-3)">4</text></g>
      </g>
     </g>
    </g>
    <g transform="translate(293,51)" font-family="Arial" font-size="9" xml:space="preserve" fill="black"><path d="M0,0H75V188H0Z" style="fill: white; stroke: black; stroke-width: 1;"></path><text text-anchor="middle" dominant-baseline="middle" transform="translate(38,16)">h1</text><text text-anchor="start" dominant-baseline="middle" transform="translate(4,47)">Entries</text><text text-anchor="end" dominant-baseline="middle" transform="translate(71,47)">20109</text><text text-anchor="start" dominant-baseline="middle" transform="translate(4,78)">Mean x</text><text text-anchor="end" dominant-baseline="middle" transform="translate(71,78)">0.03131</text><text text-anchor="start" dominant-baseline="middle" transform="translate(4,110)">Mean y</text><text text-anchor="end" dominant-baseline="middle" transform="translate(71,110)">-0.03086</text><text text-anchor="start" dominant-baseline="middle" transform="translate(4,141)">Std Dev x</text><text text-anchor="end" dominant-baseline="middle" transform="translate(71,141)">0.9743</text><text text-anchor="start" dominant-baseline="middle" transform="translate(4,172)">Std Dev y</text><text text-anchor="end" dominant-baseline="middle" transform="translate(71,172)">0.9811</text><path d="M0,31h75" style="stroke: black; stroke-width: 1;"></path></g>
    <g transform="translate(174,4)" font-family="Arial" font-size="18" xml:space="preserve"><text fill="black" text-anchor="middle" dominant-baseline="middle" transform="translate(14,12)">h1</text></g>
   </g>
  </svg>
  <svg viewBox="0 0 376 784" preserveAspectRatio="none" x="412" y="8" width="376" height="784">
   <path d="M0,0H376V784H0Z" style="fill: white;"></path>
   <g>
    <g transform="translate(38,78)">
     <path d="M0,0H301V627H0Z" style="fill: white; stroke: black; stroke-width: 1;"></path>
     <svg x="0" y="0" overflow="hidden" width="301" height="627" viewBox="0 0 301 627">
      <g>
       <path d="M15,314h15v31h-15zM45,125h15v32h-15zm0,126h15v31h-15zM60,94h15v31h-15zm0,63h15v62h-15zm0,251h15v31h-15zm0,62h15v32h-15zm15,32h15v31h-15zm15,31h15v31h-15zm15,0h15v31h-15zM120,94h15v31h-15zm0,408h15v31h-15zM151,31h15v32h-15zm30,63h15v31h-15zM196,63h15v62h-15zm0,407h15v32h-15zm0,126h15v31h-15zm15,-32h15v32h-15zM226,63h15v31h-15zm0,125h15v31h-15zm0,314h15v31h-15zM241,125h15v32h-15zm15,251h15v32h-15zM271,251h15v31h-15zm0,157h15v31h-15z" fill="rgb(38, 62, 168)"></path>
       <path d="M60,376h15v32h-15zm15,32h15v31h-15zm30,62h15v32h-15zM211,157h15v31h-15z" fill="rgb(22, 82, 205)"></path>
       <path d="M166,157h15v31h-15z" fill="rgb(18, 114, 217)"></path>
       <path d="M135,439h16v31h-16z" fill="rgb(20, 129, 214)"></path>
       <path d="M211,314h15v31h-15z" fill="rgb(14, 143, 209)"></path>
       <path d="M90,219h15v32h-15zM196,376h15v32h-15z" fill="rgb(9, 157, 204)"></path>
       <path d="M120,408h15v31h-15zM196,219h15v32h-15zm0,126h15v31h-15z" fill="rgb(13, 167, 195)"></path>
       <path d="M90,251h15v31h-15z" fill="rgb(30, 175, 179)"></path>
       <path d="M120,219h15v32h-15z" fill="rgb(179, 189, 101)"></path>
       <path d="M105,251h15v31h-15zm30,125h16v32h-16zm46,-62h15v31h-15z" fill="rgb(209, 187, 89)"></path>
       <path d="M151,219h15v32h-15z" fill="rgb(244, 198, 59)"></path>
       <path d="M135,251h16v31h-16zm31,63h15v31h-15z" fill="rgb(249, 249, 15)"></path>
      </g>
     </svg>
     <g>
      <g transform="translate(0,627)">
       <path d="M0,0h301M0,-19V0M8,-10V0M15,-10V0M23,-10V0M30,-10V0M38,-19V0M45,-10V0M53,-10V0M60,-10V0M68,-10V0M75,-19V0M83,-10V0M90,-10V0M98,-10V0M105,-10V0M113,-19V0M120,-10V0M128,-10V0M135,-10V0M143,-10V0M151,-19V0M158,-10V0M166,-10V0M173,-10V0M181,-10V0M188,-19V0M196,-10V0M203,-10V0M211,-10V0M218,-10V0M226,-19V0M233,-10V0M241,-10V0M248,-10V0M256,-10V0M263,-19V0M271,-10V0M278,-10V0M286,-10V0M293,-10V0M301,-19V0" style="stroke: black; stroke-width: 1;"></path>
       <g font-family="Arial" font-size="13" xml:space="preserve" fill="black" text-anchor="middle"><text dy=".8em" transform="translate(0,3)">-4</text><text dy=".8em" transform="translate(38,3)">-3</text><text dy=".8em" transform="translate(75,3)">-2</text><text dy=".8em" transform="translate(113,3)">-1</text><text dy=".8em" transform="translate(151,3)">0</text><text dy=".8em" transform="translate(188,3)">1</text><text dy=".8em" transform="translate(226,3)">2</text><text dy=".8em" transform="translate(263,3)">3</text><text dy=".8em" transform="translate(301,3)">4</text></g>
      </g>
      <g>
       <path d="M0,0v627M9,627H0M5,611H0M5,596H0M5,580H0M5,564H0M9,549H0M5,533H0M5,517H0M5,502H0M5,486H0M9,470H0M5,455H0M5,439H0M5,423H0M5,408H0M9,392H0M5,376H0M5,361H0M5,345H0M5,329H0M9,314H0M5,298H0M5,282H0M5,266H0M5,251H0M9,235H0M5,219H0M5,204H0M5,188H0M5,172H0M9,157H0M5,141H0M5,125H0M5,110H0M5,94H0M9,78H0M5,63H0M5,47H0M5,31H0M5,16H0M9,0H0" style="stroke: black; stroke-width: 1;"></path>
       <g font-family="Arial" font-size="13" xml:space="preserve" fill="black" text-anchor="end"><text dominant-baseline="middle" transform="translate(-3,627)">-4</text><text dominant-baseline="middle" transform="translate(-3,549)">-3</text><text dominant-baseline="middle" transform="translate(-3,470)">-2</text><text dominant-baseline="middle" transform="translate(-3,392)">-1</text><text dominant-baseline="middle" transform="translate(-3,314)">0</text><text dominant-baseline="middle" transform="translate(-3,235)">1</text><text dominant-baseline="middle" transform="translate(-3,157)">2</text><text dominant-baseline="middle" transform="translate(-3,78)">3</text><text dominant-baseline="middle" transform="translate(-3)">4</text></g>
      </g>
     </g>
    </g>
    <g transform="translate(293,51)" font-family="Arial" font-size="9" xml:space="preserve" fill="black"><path d="M0,0H75V188H0Z" style="fill: white; stroke: black; stroke-width: 1;"></path><text text-anchor="middle" dominant-baseline="middle" transform="translate(38,16)">h2</text><text text-anchor="start" dominant-baseline="middle" transform="translate(4,47)">Entries</text><text text-anchor="end" dominant-baseline="middle" transform="translate(71,47)">109</text><text text-anchor="start" dominant-baseline="middle" transform="translate(4,78)">Mean x</text><text text-anchor="end" dominant-baseline="middle" transform="translate(71,78)">0.03989</text><text text-anchor="start" dominant-baseline="middle" transform="translate(4,110)">Mean y</text><text text-anchor="end" dominant-baseline="middle" transform="translate(71,110)">0.1078</text><text text-anchor="start" dominant-baseline="middle" transform="translate(4,141)">Std Dev x</text><text text-anchor="end" dominant-baseline="middle" transform="translate(71,141)">1.01</text><text text-anchor="start" dominant-baseline="middle" transform="translate(4,172)">Std Dev y</text><text text-anchor="end" dominant-baseline="middle" transform="translate(71,172)">0.9711</text><path d="M0,31h75" style="stroke: black; stroke-width: 1;"></path></g>
    <g transform="translate(174,4)" font-family="Arial" font-size="18" xml:space="preserve"><text fill="black" text-anchor="middle" dominant-baseline="middle" transform="translate(15,12)">h2</text></g>
   </g>
  </svg>
  <svg viewBox="0 0 376 784" preserveAspectRatio="none" x="812" y="8" width="376" height="784">
   <path d="M0,0H376V784H0Z" style="fill: white;"></path>
   <g>
    <g transform="translate(38,78)">
     <path d="M0,0H301V627H0Z" style="fill: white; stroke: black; stroke-width: 1;"></path>
     <svg x="0" y="0" overflow="hidden" width="301" height="627" viewBox="0 0 301 627">
      <g>
       <path d="M15,251h15v31h-15zm0,94h15v31h-15zm15,31h15v63h-15zM45,94h15v31h-15zm0,94h15v31h-15zm0,126h15v62h-15zm0,94h15v31h-15zM60,63h15v31h-15zm0,439h15v31h-15zM75,125h15v32h-15zm0,314h15v31h-15zm0,94h15v31h-15zM90,94h15v31h-15zm15,408h15v31h-15zM120,63h15v31h-15zm15,31h16v31h-16zm0,439h16v31h-16zm16,-31h15v94h-15zM181,63h15v31h-15zm0,62h15v32h-15zM211,63h15v31h-15zm0,62h15v32h-15zm0,377h15v62h-15zm15,-32h15v32h-15zm15,-94h15v32h-15zm0,94h15v32h-15zM256,125h15v32h-15zm0,94h15v32h-15zm0,126h15v31h-15zm15,0h15v31h-15z" fill="rgb(38, 62, 168)"></path>
       <path d="M60,219h15v32h-15zM90,157h15v31h-15zm30,313h15v32h-15zM196,125h15v32h-15zm0,314h15v31h-15zM226,282h15v32h-15zm0,94h15v32h-15z" fill="rgb(22, 82, 205)"></path>
       <path d="M60,314h15v31h-15zM135,125h16v32h-16zm61,32h15v31h-15z" fill="rgb(16, 100, 220)"></path>
       <path d="M75,282h15v32h-15zM90,188h15v31h-15zm106,0h15v31h-15z" fill="rgb(18, 114, 217)"></path>
       <path d="M105,188h15v31h-15zm30,-31h16v31h-16z" fill="rgb(20, 129, 214)"></path>
       <path d="M90,376h15v32h-15zM181,188h15v31h-15z" fill="rgb(14, 143, 209)"></path>
       <path d="M196,314h15v31h-15z" fill="rgb(9, 157, 204)"></path>
       <path d="M135,408h16v31h-16zM166,188h15v31h-15z" fill="rgb(13, 167, 195)"></path>
       <path d="M90,282h15v32h-15zm91,94h15v32h-15z" fill="rgb(30, 175, 179)"></path>
       <path d="M120,376h15v32h-15z" fill="rgb(116, 189, 129)"></path>
       <path d="M105,282h15v32h-15z" fill="rgb(149, 190, 113)"></path>
       <path d="M181,282h15v32h-15z" fill="rgb(179, 189, 101)"></path>
       <path d="M120,345h15v31h-15z" fill="rgb(226, 192, 75)"></path>
       <path d="M135,314h16v31h-16z" fill="rgb(249, 249, 15)"></path>
      </g>
     </svg>
     <g>
      <g transform="translate(0,627)">
       <path d="M0,0h301M0,-19V0M8,-10V0M15,-10V0M23,-10V0M30,-10V0M38,-19V0M45,-10V0M53,-10V0M60,-10V0M68,-10V0M75,-19V0M83,-10V0M90,-10V0M98,-10V0M105,-10V0M113,-19V0M120,-10V0M128,-10V0M135,-10V0M143,-10V0M151,-19V0M158,-10V0M166,-10V0M173,-10V0M181,-10V0M188,-19V0M196,-10V0M203,-10V0M211,-10V0M218,-10V0M226,-19V0M233,-10V0M241,-10V0M248,-10V0M256,-10V0M263,-19V0M271,-10V0M278,-10V0M286,-10V0M293,-10V0M301,-19V0" style="stroke: black; stroke-width: 1;"></path>
       <g font-family="Arial" font-size="13" xml:space="preserve" fill="black" text-anchor="middle"><text dy=".8em" transform="translate(0,3)">-4</text><text dy=".8em" transform="translate(38,3)">-3</text><text dy=".8em" transform="translate(75,3)">-2</text><text dy=".8em" transform="translate(113,3)">-1</text><text dy=".8em" transform="translate(151,3)">0</text><text dy=".8em" transform="translate(188,3)">1</text><text dy=".8em" transform="translate(226,3)">2</text><text dy=".8em" transform="translate(263,3)">3</text><text dy=".8em" transform="translate(301,3)">4</text></g>
      </g>
      <g>
       <path d="M0,0v627M9,627H0M5,611H0M5,596H0M5,580H0M5,564H0M9,549H0M5,533H0M5,517H0M5,502H0M5,486H0M9,470H0M5,455H0M5,439H0M5,423H0M5,408H0M9,392H0M5,376H0M5,361H0M5,345H0M5,329H0M9,314H0M5,298H0M5,282H0M5,266H0M5,251H0M9,235H0M5,219H0M5,204H0M5,188H0M5,172H0M9,157H0M5,141H0M5,125H0M5,110H0M5,94H0M9,78H0M5,63H0M5,47H0M5,31H0M5,16H0M9,0H0" style="stroke: black; stroke-width: 1;"></path>
       <g font-family="Arial" font-size="13" xml:space="preserve" fill="black" text-anchor="end"><text dominant-baseline="middle" transform="translate(-3,627)">-4</text><text dominant-baseline="middle" transform="translate(-3,549)">-3</text><text dominant-baseline="middle" transform="translate(-3,470)">-2</text><text dominant-baseline="middle" transform="translate(-3,392)">-1</text><text dominant-baseline="middle" transform="translate(-3,314)">0</text><text dominant-baseline="middle" transform="translate(-3,235)">1</text><text dominant-baseline="middle" transform="translate(-3,157)">2</text><text dominant-baseline="middle" transform="translate(-3,78)">3</text><text dominant-baseline="middle" transform="translate(-3)">4</text></g>
      </g>
     </g>
    </g>
    <g transform="translate(293,51)" font-family="Arial" font-size="9" xml:space="preserve" fill="black"><path d="M0,0H75V188H0Z" style="fill: white; stroke: black; stroke-width: 1;"></path><text text-anchor="middle" dominant-baseline="middle" transform="translate(38,16)">h3</text><text text-anchor="start" dominant-baseline="middle" transform="translate(4,47)">Entries</text><text text-anchor="end" dominant-baseline="middle" transform="translate(71,47)">109</text><text text-anchor="start" dominant-baseline="middle" transform="translate(4,78)">Mean x</text><text text-anchor="end" dominant-baseline="middle" transform="translate(71,78)">-0.1526</text><text text-anchor="start" dominant-baseline="middle" transform="translate(4,110)">Mean y</text><text text-anchor="end" dominant-baseline="middle" transform="translate(71,110)">0.01823</text><text text-anchor="start" dominant-baseline="middle" transform="translate(4,141)">Std Dev x</text><text text-anchor="end" dominant-baseline="middle" transform="translate(71,141)">1.099</text><text text-anchor="start" dominant-baseline="middle" transform="translate(4,172)">Std Dev y</text><text text-anchor="end" dominant-baseline="middle" transform="translate(71,172)">1.081</text><path d="M0,31h75" style="stroke: black; stroke-width: 1;"></path></g>
    <g transform="translate(174,4)" font-family="Arial" font-size="18" xml:space="preserve"><text fill="black" text-anchor="middle" dominant-baseline="middle" transform="translate(15,12)">h3</text></g>
   </g>
  </svg>
 </g>
</svg>