<svg xmlns="http://www.w3.org/2000/svg" viewBox="0 0 1200 800" preserveAspectRatio="none" width="1200" height="800">
 <title>
  ROOT canvas
 </title>
 <path d="M0,0H1200V800H0Z" style="fill: none;"></path>
 <g>
  <g transform="translate(120,80)">
   <title></title>
   <path d="M0,0H960V640H0Z" style="fill: white; stroke: black; stroke-width: 1;"></path>
   <svg x="0" y="0" overflow="hidden" width="960" height="640" viewBox="0 0 960 640">
    <g>
     <path d="M4,356V364H20V356ZM28,276V284H44V276ZM52,280V392H68V280ZM76,300V380H92V300ZM100,284V367H116V284ZM124,262V388H140V262ZM148,258V371H164V258ZM172,243V369H188V243ZM196,269V367H212V269ZM220,268V380H236V268ZM244,267V383H260V267ZM268,272V372H284V272ZM292,256V369H308V256ZM316,271V379H332V271ZM340,264V376H356V264ZM364,263V374H380V263ZM388,267V375H404V267ZM412,263V374H428V263ZM436,269V372H452V269ZM460,264V374H476V264ZM484,270V375H500V270ZM508,265V371H524V265ZM532,265V371H548V265ZM556,266V377H572V266ZM580,261V370H596V261ZM604,267V374H620V267ZM628,265V376H644V265ZM652,263V373H668V263ZM676,266V368H692V266ZM700,253V364H716V253ZM724,263V364H740V263ZM748,270V378H764V270ZM772,256V357H788V256ZM796,251V371H812V251ZM820,272V376H836V272ZM844,258V396H860V258ZM868,292V396H884V292ZM892,268V346H908V268ZM940,356V364H956V356Z" style="stroke: #00009a; stroke-width: 1; fill: none;"></path>
     <path d="M4,360H20M4,352H20M4,368H20M12,356V352M12,364V368M28,280H44M28,272H44M28,288H44M36,276V272M36,284V288M52,336H68M52,272H68M52,400H68M60,280V272M60,392V400M76,356H92M76,288H92M76,480H92M84,300V288M84,380V480M100,344H116M100,176H116M100,448H116M108,284V176M108,367V448M124,328H140M124,176H140M124,464H140M132,262V176M132,388V464M148,325H164M148,96H164M148,528H164M156,258V96M156,371V528M172,302H188M172,112H188M172,544H188M180,243V112M180,369V544M196,321H212M196,96H212M196,496H212M204,269V96M204,367V496M220,319H236M220,80H236M220,512H236M228,268V80M228,380V512M244,323H260M244,112H260M244,560H260M252,267V112M252,383V560M268,324H284M268,128H284M268,512H284M276,272V128M276,372V512M292,311H308M292,64H308M292,544H308M300,256V64M300,369V544M316,324H332M316,80H332M316,528H332M324,271V80M324,379V528M340,319H356M340,64H356M340,560H356M348,264V64M348,376V560M364,320H380M364,80H380M364,544H380M372,263V80M372,374V544M388,323H404M388,96H404M388,544H404M396,267V96M396,375V544M412,317H428M412,80H428M412,544H428M420,263V80M420,374V544M436,319H452M436,96H452M436,528H452M444,269V96M444,372V528M460,316H476M460,96H476M460,544H476M468,264V96M468,374V544M484,321H500M484,96H500M484,544H500M492,270V96M492,375V544M508,317H524M508,80H524M508,544H524M516,265V80M516,371V544M532,317H548M532,80H548M532,544H548M540,265V80M540,371V544M556,322H572M556,80H572M556,528H572M564,266V80M564,377V528M580,319H596M580,96H596M580,544H596M588,261V96M588,370V544M604,318H620M604,80H620M604,544H620M612,267V80M612,374V544M628,322H644M628,80H644M628,544H644M636,265V80M636,376V544M652,319H668M652,80H668M652,544H668M660,263V80M660,373V544M676,315H692M676,112H692M676,528H692M684,266V112M684,368V528M700,312H716M700,128H716M700,544H716M708,253V128M708,364V544M724,313H740M724,96H740M724,528H740M732,263V96M732,364V528M748,327H764M748,112H764M748,512H764M756,270V112M756,378V512M772,318H788M772,112H788M772,480H788M780,256V112M780,357V480M796,315H812M796,48H812M796,496H812M804,251V48M804,371V496M820,336H836M820,160H836M820,480H836M828,272V160M828,376V480M844,340H860M844,96H860M844,480H860M852,258V96M852,396V480M868,360H884M868,240H884M868,544H884M876,292V240M876,396V544M892,340H908M892,256H908M892,352H908M900,268V256M900,346V352M940,360H956M940,352H956M940,368H956M948,356V352M948,364V368" style="stroke: #00009a; stroke-width: 1; fill: none;"></path>
     <path d="M8,360a4,4,0,1,0,8,0a4,4,0,1,0,-8,0zM32,280a4,4,0,1,0,8,0a4,4,0,1,0,-8,0zM56,336a4,4,0,1,0,8,0a4,4,0,1,0,-8,0zM80,356a4,4,0,1,0,8,0a4,4,0,1,0,-8,0zM104,331a4,4,0,1,0,8,0a4,4,0,1,0,-8,0zM128,326a4,4,0,1,0,8,0a4,4,0,1,0,-8,0zM152,318a4,4,0,1,0,8,0a4,4,0,1,0,-8,0zM176,310a4,4,0,1,0,8,0a4,4,0,1,0,-8,0zM200,318a4,4,0,1,0,8,0a4,4,0,1,0,-8,0zM224,324a4,4,0,1,0,8,0a4,4,0,1,0,-8,0zM248,325a4,4,0,1,0,8,0a4,4,0,1,0,-8,0zM272,323a4,4,0,1,0,8,0a4,4,0,1,0,-8,0zM296,313a4,4,0,1,0,8,0a4,4,0,1,0,-8,0zM320,323a4,4,0,1,0,8,0a4,4,0,1,0,-8,0zM344,319a4,4,0,1,0,8,0a4,4,0,1,0,-8,0zM368,319a4,4,0,1,0,8,0a4,4,0,1,0,-8,0zM392,321a4,4,0,1,0,8,0a4,4,0,1,0,-8,0zM416,319a4,4,0,1,0,8,0a4,4,0,1,0,-8,0zM440,320a4,4,0,1,0,8,0a4,4,0,1,0,-8,0zM464,318a4,4,0,1,0,8,0a4,4,0,1,0,-8,0zM488,322a4,4,0,1,0,8,0a4,4,0,1,0,-8,0zM512,317a4,4,0,1,0,8,0a4,4,0,1,0,-8,0zM536,318a4,4,0,1,0,8,0a4,4,0,1,0,-8,0zM560,322a4,4,0,1,0,8,0a4,4,0,1,0,-8,0zM584,317a4,4,0,1,0,8,0a4,4,0,1,0,-8,0zM608,319a4,4,0,1,0,8,0a4,4,0,1,0,-8,0zM632,321a4,4,0,1,0,8,0a4,4,0,1,0,-8,0zM656,318a4,4,0,1,0,8,0a4,4,0,1,0,-8,0zM680,319a4,4,0,1,0,8,0a4,4,0,1,0,-8,0zM704,313a4,4,0,1,0,8,0a4,4,0,1,0,-8,0zM728,312a4,4,0,1,0,8,0a4,4,0,1,0,-8,0zM752,323a4,4,0,1,0,8,0a4,4,0,1,0,-8,0zM776,314a4,4,0,1,0,8,0a4,4,0,1,0,-8,0zM800,307a4,4,0,1,0,8,0a4,4,0,1,0,-8,0zM824,330a4,4,0,1,0,8,0a4,4,0,1,0,-8,0zM848,328a4,4,0,1,0,8,0a4,4,0,1,0,-8,0zM872,362a4,4,0,1,0,8,0a4,4,0,1,0,-8,0zM896,317a4,4,0,1,0,8,0a4,4,0,1,0,-8,0zM944,360a4,4,0,1,0,8,0a4,4,0,1,0,-8,0z" style="stroke: #00009a; fill: none;"></path>
     <path d="M176,564l8,8m0,-8l-8,8M200,548l8,8m0,-8l-8,8M200,532l8,8m0,-8l-8,8M200,20l8,8m0,-8l-8,8M272,580l8,8m0,-8l-8,8M272,532l8,8m0,-8l-8,8M272,84l8,8m0,-8l-8,8M272,4l8,8m0,-8l-8,8M296,584l8,8m0,-8l-8,8M296,578l8,8m0,-8l-8,8M296,551l8,8m0,-8l-8,8M296,545l8,8m0,-8l-8,8M320,564l8,8m0,-8l-8,8M320,553l8,8m0,-8l-8,8M320,542l8,8m0,-8l-8,8M344,612l8,8m0,-8l-8,8M344,580l8,8m0,-8l-8,8M344,564l8,8m0,-8l-8,8M344,36l8,8m0,-8l-8,8M368,580l8,8m0,-8l-8,8M368,557l8,8m0,-8l-8,8M368,561l8,8m0,-8l-8,8M368,569l8,8m0,-8l-8,8M368,540l8,8m0,-8l-8,8M368,553l8,8m0,-8l-8,8M368,57l8,8m0,-8l-8,8M368,55l8,8m0,-8l-8,8M368,50l8,8m0,-8l-8,8M392,588l8,8m0,-8l-8,8M392,580l8,8m0,-8l-8,8M392,564l8,8m0,-8l-8,8M392,548l8,8m0,-8l-8,8M392,549l8,8m0,-8l-8,8M392,551l8,8m0,-8l-8,8M392,553l8,8m0,-8l-8,8M392,554l8,8m0,-8l-8,8M392,68l8,8m0,-8l-8,8M416,568l8,8m0,-8l-8,8M416,564l8,8m0,-8l-8,8M416,567l8,8m0,-8l-8,8M416,557l8,8m0,-8l-8,8M416,563l8,8m0,-8l-8,8M416,548l8,8m0,-8l-8,8M416,47l8,8m0,-8l-8,8M416,59l8,8m0,-8l-8,8M416,56l8,8m0,-8l-8,8M416,36l8,8m0,-8l-8,8M440,612l8,8m0,-8l-8,8M440,542l8,8m0,-8l-8,8M440,553l8,8m0,-8l-8,8M440,553l8,8m0,-8l-8,8M440,536l8,8m0,-8l-8,8M440,527l8,8m0,-8l-8,8M440,83l8,8m0,-8l-8,8M440,81l8,8m0,-8l-8,8M440,52l8,8m0,-8l-8,8M464,564l8,8m0,-8l-8,8M464,554l8,8m0,-8l-8,8M464,549l8,8m0,-8l-8,8M464,70l8,8m0,-8l-8,8M464,60l8,8m0,-8l-8,8M464,61l8,8m0,-8l-8,8M488,596l8,8m0,-8l-8,8M488,577l8,8m0,-8l-8,8M488,574l8,8m0,-8l-8,8M488,568l8,8m0,-8l-8,8M488,570l8,8m0,-8l-8,8M488,566l8,8m0,-8l-8,8M488,571l8,8m0,-8l-8,8M488,567l8,8m0,-8l-8,8M488,554l8,8m0,-8l-8,8M488,551l8,8m0,-8l-8,8M488,556l8,8m0,-8l-8,8M488,76l8,8m0,-8l-8,8M488,86l8,8m0,-8l-8,8M488,61l8,8m0,-8l-8,8M488,67l8,8m0,-8l-8,8M488,49l8,8m0,-8l-8,8M488,50l8,8m0,-8l-8,8M512,554l8,8m0,-8l-8,8M512,552l8,8m0,-8l-8,8M512,541l8,8m0,-8l-8,8M512,68l8,8m0,-8l-8,8M512,72l8,8m0,-8l-8,8M512,64l8,8m0,-8l-8,8M512,71l8,8m0,-8l-8,8M512,42l8,8m0,-8l-8,8M512,41l8,8m0,-8l-8,8M536,564l8,8m0,-8l-8,8M536,68l8,8m0,-8l-8,8M536,70l8,8m0,-8l-8,8M536,52l8,8m0,-8l-8,8M536,36l8,8m0,-8l-8,8M560,580l8,8m0,-8l-8,8M560,548l8,8m0,-8l-8,8M560,555l8,8m0,-8l-8,8M560,555l8,8m0,-8l-8,8M584,564l8,8m0,-8l-8,8M584,548l8,8m0,-8l-8,8M584,544l8,8m0,-8l-8,8M608,599l8,8m0,-8l-8,8M608,600l8,8m0,-8l-8,8M608,564l8,8m0,-8l-8,8M608,548l8,8m0,-8l-8,8M632,579l8,8m0,-8l-8,8M632,577l8,8m0,-8l-8,8M632,582l8,8m0,-8l-8,8M632,548l8,8m0,-8l-8,8M656,580l8,8m0,-8l-8,8M656,52l8,8m0,-8l-8,8M680,580l8,8m0,-8l-8,8M680,532l8,8m0,-8l-8,8M680,84l8,8m0,-8l-8,8M680,68l8,8m0,-8l-8,8M752,580l8,8m0,-8l-8,8" style="stroke: #00009a; fill: none;"></path>
    </g>
   </svg>
   <g>
    <g transform="translate(0,640)">
     <path d="M0,0h960" style="stroke: black; stroke-width: 1;"></path>
     <path d="M0,-24v24m24,-12v12m24,-12v12m24,-12v12m24,-12v12m24,-24v24m24,-12v12m24,-12v12m24,-12v12m24,-12v12m24,-24v24m24,-12v12m24,-12v12m24,-12v12m24,-12v12m24,-24v24m24,-12v12m24,-12v12m24,-12v12m24,-12v12m24,-24v24m24,-12v12m24,-12v12m24,-12v12m24,-12v12m24,-24v24m24,-12v12m24,-12v12m24,-12v12m24,-12v12m24,-24v24m24,-12v12m24,-12v12m24,-12v12m24,-12v12m24,-24v24m24,-12v12m24,-12v12m24,-12v12m24,-12v12m24,-24v24" style="stroke: black; stroke-width: 1;"></path>
     <g font-family="Arial" font-size="28" space="preserve">
      <text fill="black" text-anchor="middle" dy=".8em" transform="translate(0,6)">
       -4
      </text>
      <text fill="black" text-anchor="middle" dy=".8em" transform="translate(120,6)">
       -3
      </text>
      <text fill="black" text-anchor="middle" dy=".8em" transform="translate(240,6)">
       -2
      </text>
      <text fill="black" text-anchor="middle" dy=".8em" transform="translate(360,6)">
       -1
      </text>
      <text fill="black" text-anchor="middle" dy=".8em" transform="translate(480,6)">
       0
      </text>
      <text fill="black" text-anchor="middle" dy=".8em" transform="translate(600,6)">
       1
      </text>
      <text fill="black" text-anchor="middle" dy=".8em" transform="translate(720,6)">
       2
      </text>
      <text fill="black" text-anchor="middle" dy=".8em" transform="translate(840,6)">
       3
      </text>
      <text fill="black" text-anchor="middle" dy=".8em" transform="translate(960,6)">
       4
      </text>
     </g>
    </g>
    <g>
     <path d="M0,0v640" style="stroke: black; stroke-width: 1;"></path>
     <path d="M36,640h-36m18,-16h-18m18,-16h-18m18,-16h-18m18,-16h-18m36,-16h-36m18,-16h-18m18,-16h-18m18,-16h-18m18,-16h-18m36,-16h-36m18,-16h-18m18,-16h-18m18,-16h-18m18,-16h-18m36,-16h-36m18,-16h-18m18,-16h-18m18,-16h-18m18,-16h-18m36,-16h-36m18,-16h-18m18,-16h-18m18,-16h-18m18,-16h-18m36,-16h-36m18,-16h-18m18,-16h-18m18,-16h-18m18,-16h-18m36,-16h-36m18,-16h-18m18,-16h-18m18,-16h-18m18,-16h-18m36,-16h-36m18,-16h-18m18,-16h-18m18,-16h-18m18,-16h-18m36,-16h-36" style="stroke: black; stroke-width: 1;"></path>
     <g font-family="Arial" font-size="28" space="preserve">
      <text fill="black" text-anchor="end" dy=".4em" transform="translate(-4,640)">
       -4
      </text>
      <text fill="black" text-anchor="end" dy=".4em" transform="translate(-4,560)">
       -3
      </text>
      <text fill="black" text-anchor="end" dy=".4em" transform="translate(-4,480)">
       -2
      </text>
      <text fill="black" text-anchor="end" dy=".4em" transform="translate(-4,400)">
       -1
      </text>
      <text fill="black" text-anchor="end" dy=".4em" transform="translate(-4,320)">
       0
      </text>
      <text fill="black" text-anchor="end" dy=".4em" transform="translate(-4,240)">
       1
      </text>
      <text fill="black" text-anchor="end" dy=".4em" transform="translate(-4,160)">
       2
      </text>
      <text fill="black" text-anchor="end" dy=".4em" transform="translate(-4,80)">
       3
      </text>
      <text fill="black" text-anchor="end" dy=".4em" transform="translate(-4)">
       4
      </text>
     </g>
    </g>
   </g>
  </g>
  <g transform="translate(120,4)" font-family="Arial" font-size="40" space="preserve">
   <path d="M0,0H960V53H0Z" style="fill: none;"></path>
   <text fill="black" text-anchor="middle" dy=".8em" transform="translate(480)">
    py vs px
   </text>
  </g>
  <g transform="translate(936,52)" font-family="Arial" font-size="20" space="preserve">
   <path d="M0,0H240V212H0Z" style="fill: white; stroke: black; stroke-width: 1;"></path>
   <text fill="black" text-anchor="middle" dy=".4em" transform="translate(120,18)">
    hpxpy
   </text>
   <text fill="black" text-anchor="start" dy=".4em" transform="translate(12,53)">
    Entries
   </text>
   <text fill="black" text-anchor="end" dy=".4em" transform="translate(228,53)">
    25000
   </text>
   <text fill="black" text-anchor="start" dy=".4em" transform="translate(12,88)">
    Mean x
   </text>
   <text fill="black" text-anchor="end" dy=".4em" transform="translate(228,88)">
    0.003181
   </text>
   <text fill="black" text-anchor="start" dy=".4em" transform="translate(12,124)">
    Mean y
   </text>
   <text fill="black" text-anchor="end" dy=".4em" transform="translate(228,124)">
    0.009441
   </text>
   <text fill="black" text-anchor="start" dy=".4em" transform="translate(12,159)">
    Std Dev x
   </text>
   <text fill="black" text-anchor="end" dy=".4em" transform="translate(228,159)">
    1.004
   </text>
   <text fill="black" text-anchor="start" dy=".4em" transform="translate(12,194)">
    Std Dev y
   </text>
   <text fill="black" text-anchor="end" dy=".4em" transform="translate(228,194)">
    0.9972
   </text>
   <path d="M0,35h240" style="stroke: black; stroke-width: 1;"></path>
  </g>
 </g>
</svg>