<svg xmlns="http://www.w3.org/2000/svg" viewBox="0 0 1200 800" preserveAspectRatio="none" width="1200" height="800">
 <title>
  ROOT canvas
 </title>
 <path d="M0,0H1200V800H0Z" style="fill: white;"></path>
 <g>
  <g transform="translate(120,80)">
   <title></title>
   <path d="M0,0H960V640H0Z" style="fill: white; stroke: black; stroke-width: 1;"></path>
   <svg x="0" y="0" overflow="hidden" width="960" height="640" viewBox="0 0 960 640">
    <g>
     <path d="M4,258V302H36V258ZM84,241V286H116V241ZM164,236V280H196V236ZM244,232V278H276V232ZM324,237V281H356V237ZM404,246V288H436V246ZM484,253V296H516V253ZM564,267V313H596V267ZM644,284V328H676V284ZM724,301V343H756V301ZM804,317V359H836V317ZM884,330V373H916V330Z" style="stroke: #000099; stroke-width: 1; fill: none;"></path>
     <path d="M4,279H36M4,190H36M4,369H36M20,258V190M20,302V369M84,264H116M84,176H116M84,345H116M100,241V176M100,286V345M164,256H196M164,176H196M164,336H196M180,236V176M180,280V336M244,255H276M244,163H276M244,342H276M260,232V163M260,278V342M324,259H356M324,172H356M324,348H356M340,237V172M340,281V348M404,266H436M404,183H436M404,349H436M420,246V183M420,288V349M484,273H516M484,188H516M484,358H516M500,253V188M500,296V358M564,290H596M564,198H596M564,377H596M580,267V198M580,313V377M644,306H676M644,220H676M644,393H676M660,284V220M660,328V393M724,322H756M724,240H756M724,404H756M740,301V240M740,343V404M804,338H836M804,259H836M804,418H836M820,317V259M820,359V418M884,352H916M884,266H916M884,437H916M900,330V266M900,373V437" style="stroke: #000099; stroke-width: 1; fill: none;"></path>
     <path d="M4,279H36M84,264H116M164,258H196M244,255H276M324,259H356M404,266H436M484,274H516M564,290H596M644,306H676M724,322H756M804,338H836M884,352H916" style="stroke: #000099; stroke-width: 1; stroke-dasharray: 3,3; fill: none;"></path>
     <path d="M16,380l8,8m0,-8l-8,8M16,376l8,8m0,-8l-8,8M16,375l8,8m0,-8l-8,8M16,370l8,8m0,-8l-8,8M16,365l8,8m0,-8l-8,8M16,181l8,8m0,-8l-8,8M16,152l8,8m0,-8l-8,8M96,384l8,8m0,-8l-8,8M96,365l8,8m0,-8l-8,8M96,352l8,8m0,-8l-8,8M96,156l8,8m0,-8l-8,8M96,151l8,8m0,-8l-8,8M176,366l8,8m0,-8l-8,8M176,362l8,8m0,-8l-8,8M176,357l8,8m0,-8l-8,8M176,345l8,8m0,-8l-8,8M176,344l8,8m0,-8l-8,8M176,341l8,8m0,-8l-8,8M176,341l8,8m0,-8l-8,8M176,158l8,8m0,-8l-8,8M256,364l8,8m0,-8l-8,8M256,355l8,8m0,-8l-8,8M256,156l8,8m0,-8l-8,8M256,155l8,8m0,-8l-8,8M336,350l8,8m0,-8l-8,8M336,155l8,8m0,-8l-8,8M336,139l8,8m0,-8l-8,8M416,364l8,8m0,-8l-8,8M416,363l8,8m0,-8l-8,8M416,355l8,8m0,-8l-8,8M416,350l8,8m0,-8l-8,8M416,179l8,8m0,-8l-8,8M416,179l8,8m0,-8l-8,8M416,171l8,8m0,-8l-8,8M416,163l8,8m0,-8l-8,8M496,364l8,8m0,-8l-8,8M496,363l8,8m0,-8l-8,8M496,181l8,8m0,-8l-8,8M576,383l8,8m0,-8l-8,8M576,379l8,8m0,-8l-8,8M576,185l8,8m0,-8l-8,8M656,392l8,8m0,-8l-8,8M656,392l8,8m0,-8l-8,8M656,212l8,8m0,-8l-8,8M656,212l8,8m0,-8l-8,8M656,211l8,8m0,-8l-8,8M656,207l8,8m0,-8l-8,8M656,204l8,8m0,-8l-8,8M656,197l8,8m0,-8l-8,8M656,190l8,8m0,-8l-8,8M656,184l8,8m0,-8l-8,8M736,421l8,8m0,-8l-8,8M736,412l8,8m0,-8l-8,8M736,410l8,8m0,-8l-8,8M736,408l8,8m0,-8l-8,8M736,407l8,8m0,-8l-8,8M736,231l8,8m0,-8l-8,8M736,220l8,8m0,-8l-8,8M736,219l8,8m0,-8l-8,8M736,202l8,8m0,-8l-8,8M816,436l8,8m0,-8l-8,8M816,431l8,8m0,-8l-8,8M816,420l8,8m0,-8l-8,8M816,247l8,8m0,-8l-8,8M816,246l8,8m0,-8l-8,8M816,246l8,8m0,-8l-8,8M816,236l8,8m0,-8l-8,8M816,231l8,8m0,-8l-8,8M816,225l8,8m0,-8l-8,8M896,469l8,8m0,-8l-8,8M896,448l8,8m0,-8l-8,8M896,439l8,8m0,-8l-8,8M896,440l8,8m0,-8l-8,8M896,439l8,8m0,-8l-8,8M896,259l8,8m0,-8l-8,8M896,258l8,8m0,-8l-8,8M896,256l8,8m0,-8l-8,8" style="stroke: #000099; fill: none;"></path>
    </g>
    <g>
     <path d="M44,228V287H76V228ZM124,234V298H156V234ZM204,242V303H236V242ZM284,259V315H316V259ZM364,268V331H396V268ZM444,286V345H476V286ZM524,299V364H556V299ZM604,315V374H636V315ZM684,329V388H716V329ZM764,341V401H796V341ZM844,345V409H876V345ZM924,353V410H956V353Z" style="stroke: red; stroke-width: 1; fill: none;"></path>
     <path d="M44,257H76M44,141H76M44,368H76M60,228V141M60,287V368M124,266H156M124,145H156M124,383H156M140,234V145M140,298V383M204,273H236M204,156H236M204,396H236M220,242V156M220,303V396M284,287H316M284,174H316M284,396H316M300,259V174M300,315V396M364,300H396M364,174H396M364,424H396M380,268V174M380,331V424M444,315H476M444,204H476M444,430H476M460,286V204M460,345V430M524,332H556M524,204H556M524,459H556M540,299V204M540,364V459M604,344H636M604,227H636M604,449H636M620,315V227M620,374V449M684,360H716M684,246H716M684,476H716M700,329V246M700,388V476M764,372H796M764,255H796M764,492H796M780,341V255M780,401V492M844,377H876M844,249H876M844,502H876M860,345V249M860,409V502M924,383H956M924,268H956M924,495H956M940,353V268M940,410V495" style="stroke: red; stroke-width: 1; fill: none;"></path>
     <path d="M56,257a4,4,0,1,0,8,0a4,4,0,1,0,-8,0zM136,267a4,4,0,1,0,8,0a4,4,0,1,0,-8,0zM216,273a4,4,0,1,0,8,0a4,4,0,1,0,-8,0zM296,287a4,4,0,1,0,8,0a4,4,0,1,0,-8,0zM376,300a4,4,0,1,0,8,0a4,4,0,1,0,-8,0zM456,315a4,4,0,1,0,8,0a4,4,0,1,0,-8,0zM536,332a4,4,0,1,0,8,0a4,4,0,1,0,-8,0zM616,345a4,4,0,1,0,8,0a4,4,0,1,0,-8,0zM696,359a4,4,0,1,0,8,0a4,4,0,1,0,-8,0zM776,371a4,4,0,1,0,8,0a4,4,0,1,0,-8,0zM856,377a4,4,0,1,0,8,0a4,4,0,1,0,-8,0zM936,383a4,4,0,1,0,8,0a4,4,0,1,0,-8,0z" style="stroke: red; fill: none;"></path>
     <path d="M56,390l8,8m0,-8l-8,8M56,385l8,8m0,-8l-8,8M56,384l8,8m0,-8l-8,8M56,380l8,8m0,-8l-8,8M56,376l8,8m0,-8l-8,8M56,373l8,8m0,-8l-8,8M56,373l8,8m0,-8l-8,8M56,373l8,8m0,-8l-8,8M56,131l8,8m0,-8l-8,8M56,128l8,8m0,-8l-8,8M56,128l8,8m0,-8l-8,8M56,118l8,8m0,-8l-8,8M56,113l8,8m0,-8l-8,8M56,112l8,8m0,-8l-8,8M56,72l8,8m0,-8l-8,8M136,433l8,8m0,-8l-8,8M136,391l8,8m0,-8l-8,8M136,390l8,8m0,-8l-8,8M136,131l8,8m0,-8l-8,8M216,415l8,8m0,-8l-8,8M216,410l8,8m0,-8l-8,8M216,408l8,8m0,-8l-8,8M216,400l8,8m0,-8l-8,8M216,394l8,8m0,-8l-8,8M216,134l8,8m0,-8l-8,8M216,129l8,8m0,-8l-8,8M296,449l8,8m0,-8l-8,8M296,414l8,8m0,-8l-8,8M296,412l8,8m0,-8l-8,8M296,408l8,8m0,-8l-8,8M296,398l8,8m0,-8l-8,8M296,166l8,8m0,-8l-8,8M296,155l8,8m0,-8l-8,8M296,155l8,8m0,-8l-8,8M376,458l8,8m0,-8l-8,8M376,447l8,8m0,-8l-8,8M376,428l8,8m0,-8l-8,8M376,159l8,8m0,-8l-8,8M456,430l8,8m0,-8l-8,8M456,192l8,8m0,-8l-8,8M456,189l8,8m0,-8l-8,8M456,186l8,8m0,-8l-8,8M456,183l8,8m0,-8l-8,8M456,172l8,8m0,-8l-8,8M536,478l8,8m0,-8l-8,8M536,459l8,8m0,-8l-8,8M536,196l8,8m0,-8l-8,8M616,484l8,8m0,-8l-8,8M616,466l8,8m0,-8l-8,8M616,462l8,8m0,-8l-8,8M616,219l8,8m0,-8l-8,8M616,211l8,8m0,-8l-8,8M616,208l8,8m0,-8l-8,8M696,505l8,8m0,-8l-8,8M696,496l8,8m0,-8l-8,8M696,483l8,8m0,-8l-8,8M696,483l8,8m0,-8l-8,8M696,478l8,8m0,-8l-8,8M696,232l8,8m0,-8l-8,8M696,228l8,8m0,-8l-8,8M696,204l8,8m0,-8l-8,8M776,490l8,8m0,-8l-8,8M776,489l8,8m0,-8l-8,8M776,245l8,8m0,-8l-8,8M776,240l8,8m0,-8l-8,8M776,235l8,8m0,-8l-8,8M776,234l8,8m0,-8l-8,8M776,229l8,8m0,-8l-8,8M856,558l8,8m0,-8l-8,8M856,528l8,8m0,-8l-8,8M856,507l8,8m0,-8l-8,8M856,507l8,8m0,-8l-8,8M936,520l8,8m0,-8l-8,8M936,513l8,8m0,-8l-8,8M936,506l8,8m0,-8l-8,8M936,504l8,8m0,-8l-8,8M936,503l8,8m0,-8l-8,8M936,501l8,8m0,-8l-8,8M936,497l8,8m0,-8l-8,8M936,494l8,8m0,-8l-8,8M936,492l8,8m0,-8l-8,8M936,252l8,8m0,-8l-8,8M936,243l8,8m0,-8l-8,8M936,241l8,8m0,-8l-8,8M936,238l8,8m0,-8l-8,8" style="stroke: red; fill: none;"></path>
    </g>
   </svg>
   <g>
    <g transform="translate(0,640)">
     <path d="M0,0h960" style="stroke: black; stroke-width: 1;"></path>
     <path d="M0,-24v24m82,-12v12m73,-12v12m82,-24v24m79,-12v12m81,-12v12m79,-24v24m81,-12v12m82,-12v12m79,-24v24m82,-12v12m78,-12v12m82,-24v24" style="stroke: black; stroke-width: 1;"></path>
     <g font-family="Arial" font-size="28" space="preserve">
      <text fill="black" text-anchor="middle" dy=".8em" transform="translate(0,6)">
       01/10
      </text>
      <text fill="black" text-anchor="middle" dy=".8em" transform="translate(237,6)">
       04/10
      </text>
      <text fill="black" text-anchor="middle" dy=".8em" transform="translate(476,6)">
       07/10
      </text>
      <text fill="black" text-anchor="middle" dy=".8em" transform="translate(718,6)">
       10/10
      </text>
      <text fill="black" text-anchor="middle" dy=".8em" transform="translate(960,6)">
       01/11
      </text>
     </g>
     <g font-family="Arial" font-size="28" space="preserve" transform="translate(960,45)">
      <text fill="black" text-anchor="end" dy=".4em">
       Date [month/year]
      </text>
     </g>
    </g>
    <g>
     <path d="M0,0v640" style="stroke: black; stroke-width: 1;"></path>
     <path d="M36,640h-36m18,-13h-18m18,-13h-18m18,-12h-18m18,-13h-18m36,-13h-36m18,-13h-18m18,-13h-18m18,-12h-18m18,-13h-18m36,-13h-36m18,-13h-18m18,-13h-18m18,-12h-18m18,-13h-18m36,-13h-36m18,-13h-18m18,-13h-18m18,-12h-18m18,-13h-18m36,-13h-36m18,-13h-18m18,-13h-18m18,-12h-18m18,-13h-18m36,-13h-36m18,-13h-18m18,-13h-18m18,-12h-18m18,-13h-18m36,-13h-36m18,-13h-18m18,-13h-18m18,-12h-18m18,-13h-18m36,-13h-36m18,-13h-18m18,-13h-18m18,-12h-18m18,-13h-18m36,-13h-36m18,-13h-18m18,-13h-18m18,-12h-18m18,-13h-18m36,-13h-36m18,-13h-18m18,-13h-18m18,-12h-18m18,-13h-18m36,-13h-36" style="stroke: black; stroke-width: 1;"></path>
     <g font-family="Arial" font-size="28" space="preserve">
      <text fill="black" text-anchor="end" dy=".4em" transform="translate(-4,640)">
       0
      </text>
      <text fill="black" text-anchor="end" dy=".4em" transform="translate(-4,576)">
       100
      </text>
      <text fill="black" text-anchor="end" dy=".4em" transform="translate(-4,512)">
       200
      </text>
      <text fill="black" text-anchor="end" dy=".4em" transform="translate(-4,448)">
       300
      </text>
      <text fill="black" text-anchor="end" dy=".4em" transform="translate(-4,384)">
       400
      </text>
      <text fill="black" text-anchor="end" dy=".4em" transform="translate(-4,320)">
       500
      </text>
      <text fill="black" text-anchor="end" dy=".4em" transform="translate(-4,256)">
       600
      </text>
      <text fill="black" text-anchor="end" dy=".4em" transform="translate(-4,192)">
       700
      </text>
      <text fill="black" text-anchor="end" dy=".4em" transform="translate(-4,128)">
       800
      </text>
      <text fill="black" text-anchor="end" dy=".4em" transform="translate(-4,64)">
       900
      </text>
      <text fill="black" text-anchor="end" dy=".4em" transform="translate(-4)">
       1000
      </text>
     </g>
    </g>
   </g>
  </g>
  <g transform="translate(120,4)" font-family="Arial" font-size="40" space="preserve">
   <path d="M0,0H960V53H0Z" style="fill: none;"></path>
   <text fill="black" text-anchor="middle" dy=".8em" transform="translate(480)">
    Machine A + B
   </text>
  </g>
  <g transform="translate(936,52)" font-family="Arial" font-size="19" space="preserve">
   <path d="M0,0H240V212H0Z" style="fill: white; stroke: black; stroke-width: 1;"></path>
   <text fill="black" text-anchor="middle" dy=".4em" transform="translate(120,18)">
    h1
   </text>
   <text fill="black" text-anchor="start" dy=".4em" transform="translate(12,53)">
    Entries
   </text>
   <text fill="black" text-anchor="end" dy=".4em" transform="translate(228,53)">
    13000
   </text>
   <text fill="black" text-anchor="start" dy=".4em" transform="translate(12,88)">
    Mean x
   </text>
   <text fill="black" text-anchor="end" dy=".4em" transform="translate(228,88)">
    1.278e+9
   </text>
   <text fill="black" text-anchor="start" dy=".4em" transform="translate(12,124)">
    Mean y
   </text>
   <text fill="black" text-anchor="end" dy=".4em" transform="translate(228,124)">
    550.1
   </text>
   <text fill="black" text-anchor="start" dy=".4em" transform="translate(12,159)">
    Std Dev x
   </text>
   <text fill="black" text-anchor="end" dy=".4em" transform="translate(228,159)">
    9698376
   </text>
   <text fill="black" text-anchor="start" dy=".4em" transform="translate(12,194)">
    Std Dev y
   </text>
   <text fill="black" text-anchor="end" dy=".4em" transform="translate(228,194)">
    69.45
   </text>
   <path d="M0,35h240" style="stroke: black; stroke-width: 1;"></path>
  </g>
  <g transform="translate(720,160)" font-family="Arial" font-size="10" space="preserve">
   <path d="M0,0H120V80H0Z" style="fill: white; stroke: black; stroke-width: 1;"></path>
   <path d="M4,6v30h22v-30z" style="fill: none; stroke: #000099; stroke-width: 1;"></path>
   <text fill="black" text-anchor="start" dy=".4em" transform="translate(30,21)">
    Machine A + B
   </text>
   <path d="M4,44v30h22v-30z" style="fill: none; stroke: red; stroke-width: 1;"></path>
   <text fill="black" text-anchor="start" dy=".4em" transform="translate(30,59)">
    Machine B
   </text>
  </g>
 </g>
</svg>