<svg xmlns="http://www.w3.org/2000/svg" width="798" height="575" viewBox="0 0 798 575" preserveAspectRatio="none">
 <path d="M0,0H798V575H0Z" style="fill: white;"></path>
 <g>
  <svg viewBox="0 0 250 276" preserveAspectRatio="none" x="8" y="6" width="250" height="276">
   <path d="M0,0H250V276H0Z" style="fill: white;"></path>
   <g>
    <g transform="translate(25,28)">
     <path d="M0,0H200V221H0Z" style="fill: white; stroke: black; stroke-width: 1;"></path>
     <svg x="0" y="0" overflow="hidden" width="200" height="221" viewBox="0 0 200 221">
      <g>
       <path d="M6,71h-1v2h1v2h-1v9h1v2h-1v5h-2v2h1v4h-1v2h1v5h-2v2h2v2h-1v3h1v2h1v2h-1v2h2v2h-1v7h-1v2h1v2h1v3h-1v2h1v22ZM17,49h-1v2h1v6h-2v7h1v5h-1v4h-1v2h2v2h-1v5h1v2h-2v2h1v2h-1v3h1v6h1v2h-1v3h1v2h-1v4h2v20ZM28,13v18h-1v9h-1v2h1v2h-1v5h1v2h-1v2h-1v2h1v2h-2v5h2v15h1v7h1v11ZM39,7v8h-1v5h-1v2h1v2h1v3h-2v8h1v3h-1v2h-2v2h2v2h-2v2h2v3h-2v2h2v4h-1v2h2v7h-1v2h2v7ZM50,2h-1v5h1v4h-1v7h1v2h-1v4h-1v3h-1v2h1v4h-1v5h2v2h-3v2h2v2h-3v2h3v3h1v2h-1v4h1v2h-1v5h1v2h1v13ZM62,0v15h-1v7h-1v5h1v2h-1v4h-1v2h1v5h-1v2h1v2h-2v2h2v7h1v2h-1v2h1v7h1v2h-1v3h1v6ZM73,18v2h-1v4h1v5h-1v6h-1v5h-1v4h1v5h-1v2h-1v2h2v2h-1v5h1v6h2v3h-1v4h1v2h-1v2h1v22ZM84,33v2h-1v5h1v4h-1v7h-1v4h1v5h-1v2h-2v2h2v2h-2v3h1v2h1v6h1v3h-1v4h1v2h-1v2h2v3h-1v2h1v2h-1v2h1v20ZM95,38v19h-1v3h1v4h-1v5h1v2h-2v2h1v2h1v2h-2v14h-2v2h2v2h-1v2h2v2h-1v3h1v2h-1v7h1v8h1v9ZM106,73v13h-1v2h1v5h-2v2h2v2h-2v2h1v3h-1v9h-1v2h2v2h-1v11h-1v2h1v2h-1v3h2v2h1v2h-2v2h2v5h-1v4h1v13ZM117,102v9h-1v13h-1v6h1v3h-2v2h1v2h-1v4h1v14h1v2h-1v4h1v5h1v13ZM128,124v9h-1v2h1v4h-1v2h1v3h-1v4h-1v2h-1v2h1v3h-1v2h1v7h-1v2h1v6h-1v3h2v4h-1v2h1v11h1v9ZM139,141v5h-1v15h-1v3h-2v2h2v9h-2v2h2v4h-1v5h2v11h-1v4h1v5h1v4ZM150,146v4h-1v7h1v2h-1v2h1v3h-1v6h-1v2h1v3h-1v2h-1v2h-1v2h1v2h1v3h-2v2h1v2h1v4h1v3h-1v2h1v2h-1v2h1v9h1v5ZM162,133v19h-1v3h1v2h-1v9h-1v2h-1v2h1v7h-1v2h-1v2h2v2h-1v3h2v2h-2v2h1v4h1v3h-1v2h1v7h1v2h-1v2h1v9ZM173,130v16h-1v2h-1v2h1v7h-2v2h1v5h1v2h-2v2h1v2h-1v5h1v2h-1v2h2v2h-1v7h1v4h1v5h-1v4h1v11ZM184,106v16h-1v13h-1v2h2v2h-2v5h1v2h-1v2h-1v4h1v3h-1v4h1v2h-1v3h1v8h1v7h1v11ZM195,82v17h-1v5h1v2h-1v7h-1v9h1v2h-2v2h1v7h-1v2h1v4h-1v2h1v3h1v2h-1v2h1v4h1v3h-1v4h1v16Z" style="stroke: rgb(0, 0, 154); fill: rgb(255, 255, 0);"></path>
      </g>
     </svg>
     <g>
      <g transform="translate(0,221)">
       <path d="M0,0h200M0,-7V0M6,-4V0M11,-4V0M17,-4V0M22,-4V0M28,-7V0M33,-4V0M39,-4V0M44,-4V0M50,-4V0M56,-7V0M61,-4V0M67,-4V0M72,-4V0M78,-4V0M83,-7V0M89,-4V0M94,-4V0M100,-4V0M106,-4V0M111,-7V0M117,-4V0M122,-4V0M128,-4V0M133,-4V0M139,-7V0M144,-4V0M150,-4V0M156,-4V0M161,-4V0M167,-7V0M172,-4V0M178,-4V0M183,-4V0M189,-4V0M194,-7V0M200,-4V0" style="stroke: black; stroke-width: 1;"></path>
       <g font-family="Arial" font-size="9" xml:space="preserve" fill="black" text-anchor="middle"><text dy=".8em" transform="translate(0,1)">0</text><text dy=".8em" transform="translate(28,1)">50</text><text dy=".8em" transform="translate(56,1)">100</text><text dy=".8em" transform="translate(83,1)">150</text><text dy=".8em" transform="translate(111,1)">200</text><text dy=".8em" transform="translate(139,1)">250</text><text dy=".8em" transform="translate(167,1)">300</text><text dy=".8em" transform="translate(194,1)">350</text></g>
       <g font-family="Arial" font-size="9" xml:space="preserve" transform="translate(200,16)"><text fill="black" text-anchor="end" dominant-baseline="middle">Deg</text></g>
      </g>
      <g>
       <path d="M0,0v221M6,221H0M3,214H0M3,206H0M3,199H0M3,192H0M6,184H0M3,177H0M3,169H0M3,162H0M3,155H0M6,147H0M3,140H0M3,133H0M3,125H0M3,118H0M6,111H0M3,103H0M3,96H0M3,88H0M3,81H0M6,74H0M3,66H0M3,59H0M3,52H0M3,44H0M6,37H0M3,29H0M3,22H0M3,15H0M3,7H0M6,0H0" style="stroke: black; stroke-width: 1;"></path>
       <g font-family="Arial" font-size="9" xml:space="preserve" fill="black" text-anchor="end"><text dominant-baseline="middle" transform="translate(-2,221)">-1.5</text><text dominant-baseline="middle" transform="translate(-2,184)">-1</text><text dominant-baseline="middle" transform="translate(-2,147)">-0.5</text><text dominant-baseline="middle" transform="translate(-2,111)">0</text><text dominant-baseline="middle" transform="translate(-2,74)">0.5</text><text dominant-baseline="middle" transform="translate(-2,37)">1</text><text dominant-baseline="middle" transform="translate(-2)">1.5</text></g>
      </g>
     </g>
    </g>
    <g transform="translate(195,18)" font-family="Arial" font-size="5" xml:space="preserve" fill="black"><path d="M0,0H50V66H0Z" style="fill: white; stroke: black; stroke-width: 1;"></path><text text-anchor="middle" dominant-baseline="middle" transform="translate(25,6)">h1_copy</text><text text-anchor="start" dominant-baseline="middle" transform="translate(3,17)">Entries</text><text text-anchor="end" dominant-baseline="middle" transform="translate(48,17)">3600</text><text text-anchor="start" dominant-baseline="middle" transform="translate(3,28)">Mean x</text><text text-anchor="end" dominant-baseline="middle" transform="translate(48,28)">175</text><text text-anchor="start" dominant-baseline="middle" transform="translate(3,39)">Mean y</text><text text-anchor="end" dominant-baseline="middle" transform="translate(48,39)">0.001895</text><text text-anchor="start" dominant-baseline="middle" transform="translate(3,50)">Std Dev x</text><text text-anchor="end" dominant-baseline="middle" transform="translate(48,50)">103.9</text><text text-anchor="start" dominant-baseline="middle" transform="translate(3,61)">Std Dev y</text><text text-anchor="end" dominant-baseline="middle" transform="translate(48,61)">0.7269</text><path d="M0,11h50" style="stroke: black; stroke-width: 1;"></path></g>
    <g transform="translate(71,1)" font-family="Arial" font-size="12" xml:space="preserve"><text fill="black" text-anchor="middle" dominant-baseline="middle" transform="translate(54,9)">candlex(1000000)</text></g>
   </g>
  </svg>
  <svg viewBox="0 0 250 276" preserveAspectRatio="none" x="274" y="6" width="250" height="276">
   <path d="M0,0H250V276H0Z" style="fill: white;"></path>
   <g>
    <g transform="translate(25,28)">
     <path d="M0,0H200V221H0Z" style="fill: white; stroke: black; stroke-width: 1;"></path>
     <svg x="0" y="0" overflow="hidden" width="200" height="221" viewBox="0 0 200 221">
      <g>
       <path d="M6,157v-22h1v-2h-1v-3h1v-2h1v-2h-1v-7h-1v-2h2v-2h-1v-2h1v-2h1v-3h-1v-2h2v-2h-2v-5h1v-2h-1v-4h1v-2h-2v-5h-1v-2h1v-9h-1v-2h1v-2h-1ZM17,128v-20h2v-4h-1v-2h1v-3h-1v-2h1v-6h1v-3h-1v-2h1v-2h-2v-2h1v-5h-1v-2h2v-2h-1v-4h-1v-5h1v-7h-2v-6h1v-2h-1ZM28,95v-11h1v-7h1v-15h2v-5h-2v-2h1v-2h-1v-2h-1v-2h1v-5h-1v-2h1v-2h-1v-9h-1v-18ZM39,73v-7h2v-2h-1v-7h2v-2h-1v-4h2v-2h-2v-3h2v-2h-2v-2h2v-2h-2v-2h-1v-3h1v-8h-2v-3h1v-2h1v-2h-1v-5h-1v-8ZM50,77v-13h1v-2h1v-5h-1v-2h1v-4h-1v-2h1v-3h3v-2h-3v-2h2v-2h-3v-2h2v-5h-1v-4h1v-2h-1v-3h-1v-4h-1v-2h1v-7h-1v-4h1v-5h-1ZM62,75v-6h1v-3h-1v-2h1v-7h1v-2h-1v-2h1v-7h2v-2h-2v-2h1v-2h-1v-5h1v-2h-1v-4h-1v-2h1v-5h-1v-7h-1v-15ZM73,99v-22h1v-2h-1v-2h1v-4h-1v-3h2v-6h1v-5h-1v-2h2v-2h-1v-2h-1v-5h1v-4h-1v-5h-1v-6h-1v-5h1v-4h-1v-2ZM84,117v-20h1v-2h-1v-2h1v-2h-1v-3h2v-2h-1v-2h1v-4h-1v-3h1v-6h1v-2h1v-3h-2v-2h2v-2h-2v-2h-1v-5h1v-4h-1v-7h-1v-4h1v-5h-1v-2ZM95,128v-9h1v-8h1v-7h-1v-2h1v-3h-1v-2h2v-2h-1v-2h2v-2h-2v-14h-2v-2h1v-2h1v-2h-2v-2h1v-5h-1v-4h1v-3h-1v-19ZM106,161v-13h1v-4h-1v-5h2v-2h-2v-2h1v-2h2v-3h-1v-2h1v-2h-1v-11h-1v-2h2v-2h-1v-9h-1v-3h1v-2h-2v-2h2v-2h-2v-5h1v-2h-1v-13ZM117,179v-13h1v-5h1v-4h-1v-2h1v-14h1v-4h-1v-2h1v-2h-2v-3h1v-6h-1v-13h-1v-9ZM128,201v-9h1v-11h1v-2h-1v-4h2v-3h-1v-6h1v-2h-1v-7h1v-2h-1v-3h1v-2h-1v-2h-1v-4h-1v-3h1v-2h-1v-4h1v-2h-1v-9ZM139,210v-4h1v-5h1v-4h-1v-11h2v-5h-1v-4h2v-2h-2v-9h2v-2h-2v-3h-1v-15h-1v-5ZM150,217v-5h1v-9h1v-2h-1v-2h1v-2h-1v-3h1v-4h1v-2h1v-2h-2v-3h1v-2h1v-2h-1v-2h-1v-2h-1v-3h1v-2h-1v-6h-1v-3h1v-2h-1v-2h1v-7h-1v-4ZM162,219v-9h1v-2h-1v-2h1v-7h1v-2h-1v-3h1v-4h1v-2h-2v-2h2v-3h-1v-2h2v-2h-1v-2h-1v-7h1v-2h-1v-2h-1v-9h-1v-2h1v-3h-1v-19ZM173,212v-11h1v-4h-1v-5h1v-4h1v-7h-1v-2h2v-2h-1v-2h1v-5h-1v-2h1v-2h-2v-2h1v-5h1v-2h-2v-7h1v-2h-1v-2h-1v-16ZM184,190v-11h1v-7h1v-8h1v-3h-1v-2h1v-4h-1v-3h1v-4h-1v-2h-1v-2h1v-5h-2v-2h2v-2h-1v-13h-1v-16ZM195,175v-16h1v-4h-1v-3h1v-4h1v-2h-1v-2h1v-3h1v-2h-1v-4h1v-2h-1v-7h1v-2h-2v-2h1v-9h-1v-7h-1v-2h1v-5h-1v-17Z" style="stroke: rgb(0, 0, 154); fill: rgb(255, 255, 0);"></path>
      </g>
     </svg>
     <g>
      <g transform="translate(0,221)">
       <path d="M0,0h200M0,-7V0M6,-4V0M11,-4V0M17,-4V0M22,-4V0M28,-7V0M33,-4V0M39,-4V0M44,-4V0M50,-4V0M56,-7V0M61,-4V0M67,-4V0M72,-4V0M78,-4V0M83,-7V0M89,-4V0M94,-4V0M100,-4V0M106,-4V0M111,-7V0M117,-4V0M122,-4V0M128,-4V0M133,-4V0M139,-7V0M144,-4V0M150,-4V0M156,-4V0M161,-4V0M167,-7V0M172,-4V0M178,-4V0M183,-4V0M189,-4V0M194,-7V0M200,-4V0" style="stroke: black; stroke-width: 1;"></path>
       <g font-family="Arial" font-size="9" xml:space="preserve" fill="black" text-anchor="middle"><text dy=".8em" transform="translate(0,1)">0</text><text dy=".8em" transform="translate(28,1)">50</text><text dy=".8em" transform="translate(56,1)">100</text><text dy=".8em" transform="translate(83,1)">150</text><text dy=".8em" transform="translate(111,1)">200</text><text dy=".8em" transform="translate(139,1)">250</text><text dy=".8em" transform="translate(167,1)">300</text><text dy=".8em" transform="translate(194,1)">350</text></g>
       <g font-family="Arial" font-size="9" xml:space="preserve" transform="translate(200,16)"><text fill="black" text-anchor="end" dominant-baseline="middle">Deg</text></g>
      </g>
      <g>
       <path d="M0,0v221M6,221H0M3,214H0M3,206H0M3,199H0M3,192H0M6,184H0M3,177H0M3,169H0M3,162H0M3,155H0M6,147H0M3,140H0M3,133H0M3,125H0M3,118H0M6,111H0M3,103H0M3,96H0M3,88H0M3,81H0M6,74H0M3,66H0M3,59H0M3,52H0M3,44H0M6,37H0M3,29H0M3,22H0M3,15H0M3,7H0M6,0H0" style="stroke: black; stroke-width: 1;"></path>
       <g font-family="Arial" font-size="9" xml:space="preserve" fill="black" text-anchor="end"><text dominant-baseline="middle" transform="translate(-2,221)">-1.5</text><text dominant-baseline="middle" transform="translate(-2,184)">-1</text><text dominant-baseline="middle" transform="translate(-2,147)">-0.5</text><text dominant-baseline="middle" transform="translate(-2,111)">0</text><text dominant-baseline="middle" transform="translate(-2,74)">0.5</text><text dominant-baseline="middle" transform="translate(-2,37)">1</text><text dominant-baseline="middle" transform="translate(-2)">1.5</text></g>
      </g>
     </g>
    </g>
    <g transform="translate(195,18)" font-family="Arial" font-size="5" xml:space="preserve" fill="black"><path d="M0,0H50V66H0Z" style="fill: white; stroke: black; stroke-width: 1;"></path><text text-anchor="middle" dominant-baseline="middle" transform="translate(25,6)">h1_copy</text><text text-anchor="start" dominant-baseline="middle" transform="translate(3,17)">Entries</text><text text-anchor="end" dominant-baseline="middle" transform="translate(48,17)">3600</text><text text-anchor="start" dominant-baseline="middle" transform="translate(3,28)">Mean x</text><text text-anchor="end" dominant-baseline="middle" transform="translate(48,28)">175</text><text text-anchor="start" dominant-baseline="middle" transform="translate(3,39)">Mean y</text><text text-anchor="end" dominant-baseline="middle" transform="translate(48,39)">0.001895</text><text text-anchor="start" dominant-baseline="middle" transform="translate(3,50)">Std Dev x</text><text text-anchor="end" dominant-baseline="middle" transform="translate(48,50)">103.9</text><text text-anchor="start" dominant-baseline="middle" transform="translate(3,61)">Std Dev y</text><text text-anchor="end" dominant-baseline="middle" transform="translate(48,61)">0.7269</text><path d="M0,11h50" style="stroke: black; stroke-width: 1;"></path></g>
    <g transform="translate(71,1)" font-family="Arial" font-size="13" xml:space="preserve"><text fill="black" text-anchor="middle" dominant-baseline="middle" transform="translate(55,9)">candlex(2000000)</text></g>
   </g>
  </svg>
  <svg viewBox="0 0 250 276" preserveAspectRatio="none" x="540" y="6" width="250" height="276">
   <path d="M0,0H250V276H0Z" style="fill: white;"></path>
   <g>
    <g transform="translate(25,28)">
     <path d="M0,0H200V221H0Z" style="fill: white; stroke: black; stroke-width: 1;"></path>
     <svg x="0" y="0" overflow="hidden" width="200" height="221" viewBox="0 0 200 221">
      <g>
       <path d="M6,157v-22h1v-2h-1v-3h1v-2h1v-2h-1v-7h-1v-2h2v-2h-1v-2h1v-2h1v-3h-1v-2h2v-2h-2v-5h1v-2h-1v-4h1v-2h-2v-5h-1v-2h1v-9h-1v-2h1v-2h-2v2h1v2h-1v9h1v2h-1v5h-2v2h1v4h-1v2h1v5h-2v2h2v2h-1v3h1v2h1v2h-1v2h2v2h-1v7h-1v2h1v2h1v3h-1v2h1v22ZM17,128v-20h2v-4h-1v-2h1v-3h-1v-2h1v-6h1v-3h-1v-2h1v-2h-2v-2h1v-5h-1v-2h2v-2h-1v-4h-1v-5h1v-7h-2v-6h1v-2h-2v2h1v6h-2v7h1v5h-1v4h-1v2h2v2h-1v5h1v2h-2v2h1v2h-1v3h1v6h1v2h-1v3h1v2h-1v4h2v20ZM28,95v-11h1v-7h1v-15h2v-5h-2v-2h1v-2h-1v-2h-1v-2h1v-5h-1v-2h1v-2h-1v-9h-1v-18v18h-1v9h-1v2h1v2h-1v5h1v2h-1v2h-1v2h1v2h-2v5h2v15h1v7h1v11ZM39,73v-7h2v-2h-1v-7h2v-2h-1v-4h2v-2h-2v-3h2v-2h-2v-2h2v-2h-2v-2h-1v-3h1v-8h-2v-3h1v-2h1v-2h-1v-5h-1v-8v8h-1v5h-1v2h1v2h1v3h-2v8h1v3h-1v2h-2v2h2v2h-2v2h2v3h-2v2h2v4h-1v2h2v7h-1v2h2v7ZM50,77v-13h1v-2h1v-5h-1v-2h1v-4h-1v-2h1v-3h3v-2h-3v-2h2v-2h-3v-2h2v-5h-1v-4h1v-2h-1v-3h-1v-4h-1v-2h1v-7h-1v-4h1v-5h-2v5h1v4h-1v7h1v2h-1v4h-1v3h-1v2h1v4h-1v5h2v2h-3v2h2v2h-3v2h3v3h1v2h-1v4h1v2h-1v5h1v2h1v13ZM62,75v-6h1v-3h-1v-2h1v-7h1v-2h-1v-2h1v-7h2v-2h-2v-2h1v-2h-1v-5h1v-2h-1v-4h-1v-2h1v-5h-1v-7h-1v-15v15h-1v7h-1v5h1v2h-1v4h-1v2h1v5h-1v2h1v2h-2v2h2v7h1v2h-1v2h1v7h1v2h-1v3h1v6ZM73,99v-22h1v-2h-1v-2h1v-4h-1v-3h2v-6h1v-5h-1v-2h2v-2h-1v-2h-1v-5h1v-4h-1v-5h-1v-6h-1v-5h1v-4h-1v-2v2h-1v4h1v5h-1v6h-1v5h-1v4h1v5h-1v2h-1v2h2v2h-1v5h1v6h2v3h-1v4h1v2h-1v2h1v22ZM84,117v-20h1v-2h-1v-2h1v-2h-1v-3h2v-2h-1v-2h1v-4h-1v-3h1v-6h1v-2h1v-3h-2v-2h2v-2h-2v-2h-1v-5h1v-4h-1v-7h-1v-4h1v-5h-1v-2v2h-1v5h1v4h-1v7h-1v4h1v5h-1v2h-2v2h2v2h-2v3h1v2h1v6h1v3h-1v4h1v2h-1v2h2v3h-1v2h1v2h-1v2h1v20ZM95,128v-9h1v-8h1v-7h-1v-2h1v-3h-1v-2h2v-2h-1v-2h2v-2h-2v-14h-2v-2h1v-2h1v-2h-2v-2h1v-5h-1v-4h1v-3h-1v-19v19h-1v3h1v4h-1v5h1v2h-2v2h1v2h1v2h-2v14h-2v2h2v2h-1v2h2v2h-1v3h1v2h-1v7h1v8h1v9ZM106,161v-13h1v-4h-1v-5h2v-2h-2v-2h1v-2h2v-3h-1v-2h1v-2h-1v-11h-1v-2h2v-2h-1v-9h-1v-3h1v-2h-2v-2h2v-2h-2v-5h1v-2h-1v-13v13h-1v2h1v5h-2v2h2v2h-2v2h1v3h-1v9h-1v2h2v2h-1v11h-1v2h1v2h-1v3h2v2h1v2h-2v2h2v5h-1v4h1v13ZM117,179v-13h1v-5h1v-4h-1v-2h1v-14h1v-4h-1v-2h1v-2h-2v-3h1v-6h-1v-13h-1v-9v9h-1v13h-1v6h1v3h-2v2h1v2h-1v4h1v14h1v2h-1v4h1v5h1v13ZM128,201v-9h1v-11h1v-2h-1v-4h2v-3h-1v-6h1v-2h-1v-7h1v-2h-1v-3h1v-2h-1v-2h-1v-4h-1v-3h1v-2h-1v-4h1v-2h-1v-9v9h-1v2h1v4h-1v2h1v3h-1v4h-1v2h-1v2h1v3h-1v2h1v7h-1v2h1v6h-1v3h2v4h-1v2h1v11h1v9ZM139,210v-4h1v-5h1v-4h-1v-11h2v-5h-1v-4h2v-2h-2v-9h2v-2h-2v-3h-1v-15h-1v-5v5h-1v15h-1v3h-2v2h2v9h-2v2h2v4h-1v5h2v11h-1v4h1v5h1v4ZM150,217v-5h1v-9h1v-2h-1v-2h1v-2h-1v-3h1v-4h1v-2h1v-2h-2v-3h1v-2h1v-2h-1v-2h-1v-2h-1v-3h1v-2h-1v-6h-1v-3h1v-2h-1v-2h1v-7h-1v-4v4h-1v7h1v2h-1v2h1v3h-1v6h-1v2h1v3h-1v2h-1v2h-1v2h1v2h1v3h-2v2h1v2h1v4h1v3h-1v2h1v2h-1v2h1v9h1v5ZM162,219v-9h1v-2h-1v-2h1v-7h1v-2h-1v-3h1v-4h1v-2h-2v-2h2v-3h-1v-2h2v-2h-1v-2h-1v-7h1v-2h-1v-2h-1v-9h-1v-2h1v-3h-1v-19v19h-1v3h1v2h-1v9h-1v2h-1v2h1v7h-1v2h-1v2h2v2h-1v3h2v2h-2v2h1v4h1v3h-1v2h1v7h1v2h-1v2h1v9ZM173,212v-11h1v-4h-1v-5h1v-4h1v-7h-1v-2h2v-2h-1v-2h1v-5h-1v-2h1v-2h-2v-2h1v-5h1v-2h-2v-7h1v-2h-1v-2h-1v-16v16h-1v2h-1v2h1v7h-2v2h1v5h1v2h-2v2h1v2h-1v5h1v2h-1v2h2v2h-1v7h1v4h1v5h-1v4h1v11ZM184,190v-11h1v-7h1v-8h1v-3h-1v-2h1v-4h-1v-3h1v-4h-1v-2h-1v-2h1v-5h-2v-2h2v-2h-1v-13h-1v-16v16h-1v13h-1v2h2v2h-2v5h1v2h-1v2h-1v4h1v3h-1v4h1v2h-1v3h1v8h1v7h1v11ZM195,175v-16h1v-4h-1v-3h1v-4h1v-2h-1v-2h1v-3h1v-2h-1v-4h1v-2h-1v-7h1v-2h-2v-2h1v-9h-1v-7h-1v-2h1v-5h-1v-17v17h-1v5h1v2h-1v7h-1v9h1v2h-2v2h1v7h-1v2h1v4h-1v2h1v3h1v2h-1v2h1v4h1v3h-1v4h1v16Z" style="stroke: rgb(0, 0, 154); fill: rgb(255, 255, 0);"></path>
      </g>
     </svg>
     <g>
      <g transform="translate(0,221)">
       <path d="M0,0h200M0,-7V0M6,-4V0M11,-4V0M17,-4V0M22,-4V0M28,-7V0M33,-4V0M39,-4V0M44,-4V0M50,-4V0M56,-7V0M61,-4V0M67,-4V0M72,-4V0M78,-4V0M83,-7V0M89,-4V0M94,-4V0M100,-4V0M106,-4V0M111,-7V0M117,-4V0M122,-4V0M128,-4V0M133,-4V0M139,-7V0M144,-4V0M150,-4V0M156,-4V0M161,-4V0M167,-7V0M172,-4V0M178,-4V0M183,-4V0M189,-4V0M194,-7V0M200,-4V0" style="stroke: black; stroke-width: 1;"></path>
       <g font-family="Arial" font-size="9" xml:space="preserve" fill="black" text-anchor="middle"><text dy=".8em" transform="translate(0,1)">0</text><text dy=".8em" transform="translate(28,1)">50</text><text dy=".8em" transform="translate(56,1)">100</text><text dy=".8em" transform="translate(83,1)">150</text><text dy=".8em" transform="translate(111,1)">200</text><text dy=".8em" transform="translate(139,1)">250</text><text dy=".8em" transform="translate(167,1)">300</text><text dy=".8em" transform="translate(194,1)">350</text></g>
       <g font-family="Arial" font-size="9" xml:space="preserve" transform="translate(200,16)"><text fill="black" text-anchor="end" dominant-baseline="middle">Deg</text></g>
      </g>
      <g>
       <path d="M0,0v221M6,221H0M3,214H0M3,206H0M3,199H0M3,192H0M6,184H0M3,177H0M3,169H0M3,162H0M3,155H0M6,147H0M3,140H0M3,133H0M3,125H0M3,118H0M6,111H0M3,103H0M3,96H0M3,88H0M3,81H0M6,74H0M3,66H0M3,59H0M3,52H0M3,44H0M6,37H0M3,29H0M3,22H0M3,15H0M3,7H0M6,0H0" style="stroke: black; stroke-width: 1;"></path>
       <g font-family="Arial" font-size="9" xml:space="preserve" fill="black" text-anchor="end"><text dominant-baseline="middle" transform="translate(-2,221)">-1.5</text><text dominant-baseline="middle" transform="translate(-2,184)">-1</text><text dominant-baseline="middle" transform="translate(-2,147)">-0.5</text><text dominant-baseline="middle" transform="translate(-2,111)">0</text><text dominant-baseline="middle" transform="translate(-2,74)">0.5</text><text dominant-baseline="middle" transform="translate(-2,37)">1</text><text dominant-baseline="middle" transform="translate(-2)">1.5</text></g>
      </g>
     </g>
    </g>
    <g transform="translate(195,18)" font-family="Arial" font-size="5" xml:space="preserve" fill="black"><path d="M0,0H50V66H0Z" style="fill: white; stroke: black; stroke-width: 1;"></path><text text-anchor="middle" dominant-baseline="middle" transform="translate(25,6)">h1_copy</text><text text-anchor="start" dominant-baseline="middle" transform="translate(3,17)">Entries</text><text text-anchor="end" dominant-baseline="middle" transform="translate(48,17)">3600</text><text text-anchor="start" dominant-baseline="middle" transform="translate(3,28)">Mean x</text><text text-anchor="end" dominant-baseline="middle" transform="translate(48,28)">175</text><text text-anchor="start" dominant-baseline="middle" transform="translate(3,39)">Mean y</text><text text-anchor="end" dominant-baseline="middle" transform="translate(48,39)">0.001895</text><text text-anchor="start" dominant-baseline="middle" transform="translate(3,50)">Std Dev x</text><text text-anchor="end" dominant-baseline="middle" transform="translate(48,50)">103.9</text><text text-anchor="start" dominant-baseline="middle" transform="translate(3,61)">Std Dev y</text><text text-anchor="end" dominant-baseline="middle" transform="translate(48,61)">0.7269</text><path d="M0,11h50" style="stroke: black; stroke-width: 1;"></path></g>
    <g transform="translate(71,1)" font-family="Arial" font-size="13" xml:space="preserve"><text fill="black" text-anchor="middle" dominant-baseline="middle" transform="translate(55,9)">candlex(3000000)</text></g>
   </g>
  </svg>
  <svg viewBox="0 0 250 276" preserveAspectRatio="none" x="8" y="293" width="250" height="276">
   <path d="M0,0H250V276H0Z" style="fill: white;"></path>
   <g>
    <g transform="translate(25,28)">
     <path d="M0,0H200V221H0Z" style="fill: white; stroke: black; stroke-width: 1;"></path>
     <svg x="0" y="0" overflow="hidden" width="200" height="221" viewBox="0 0 200 221">
      <g>
       <path d="M6,71h-1v2h1v2h-1v9h1v2h-1v5h-2v2h1v4h-1v2h1v5h-2v2h2v2h-1v3h1v2h1v2h-1v2h2v2h-1v7h-1v2h1v2h1v3h-1v2h1v22ZM17,49h-1v2h1v6h-2v7h1v5h-1v4h-1v2h2v2h-1v5h1v2h-2v2h1v2h-1v3h1v6h1v2h-1v3h1v2h-1v4h2v20ZM28,13v18h-1v9h-1v2h1v2h-1v5h1v2h-1v2h-1v2h1v2h-2v5h2v15h1v7h1v11ZM39,7v8h-1v5h-1v2h1v2h1v3h-2v8h1v3h-1v2h-2v2h2v2h-2v2h2v3h-2v2h2v4h-1v2h2v7h-1v2h2v7ZM50,2h-1v5h1v4h-1v7h1v2h-1v4h-1v3h-1v2h1v4h-1v5h2v2h-3v2h2v2h-3v2h3v3h1v2h-1v4h1v2h-1v5h1v2h1v13ZM62,0v15h-1v7h-1v5h1v2h-1v4h-1v2h1v5h-1v2h1v2h-2v2h2v7h1v2h-1v2h1v7h1v2h-1v3h1v6ZM73,18v2h-1v4h1v5h-1v6h-1v5h-1v4h1v5h-1v2h-1v2h2v2h-1v5h1v6h2v3h-1v4h1v2h-1v2h1v22ZM84,33v2h-1v5h1v4h-1v7h-1v4h1v5h-1v2h-2v2h2v2h-2v3h1v2h1v6h1v3h-1v4h1v2h-1v2h2v3h-1v2h1v2h-1v2h1v20ZM95,38v19h-1v3h1v4h-1v5h1v2h-2v2h1v2h1v2h-2v14h-2v2h2v2h-1v2h2v2h-1v3h1v2h-1v7h1v8h1v9ZM106,73v13h-1v2h1v5h-2v2h2v2h-2v2h1v3h-1v9h-1v2h2v2h-1v11h-1v2h1v2h-1v3h2v2h1v2h-2v2h2v5h-1v4h1v13ZM117,102v9h-1v13h-1v6h1v3h-2v2h1v2h-1v4h1v14h1v2h-1v4h1v5h1v13ZM128,124v9h-1v2h1v4h-1v2h1v3h-1v4h-1v2h-1v2h1v3h-1v2h1v7h-1v2h1v6h-1v3h2v4h-1v2h1v11h1v9ZM139,141v5h-1v15h-1v3h-2v2h2v9h-2v2h2v4h-1v5h2v11h-1v4h1v5h1v4ZM150,146v4h-1v7h1v2h-1v2h1v3h-1v6h-1v2h1v3h-1v2h-1v2h-1v2h1v2h1v3h-2v2h1v2h1v4h1v3h-1v2h1v2h-1v2h1v9h1v5ZM162,133v19h-1v3h1v2h-1v9h-1v2h-1v2h1v7h-1v2h-1v2h2v2h-1v3h2v2h-2v2h1v4h1v3h-1v2h1v7h1v2h-1v2h1v9ZM173,130v16h-1v2h-1v2h1v7h-2v2h1v5h1v2h-2v2h1v2h-1v5h1v2h-1v2h2v2h-1v7h1v4h1v5h-1v4h1v11ZM184,106v16h-1v13h-1v2h2v2h-2v5h1v2h-1v2h-1v4h1v3h-1v4h1v2h-1v3h1v8h1v7h1v11ZM195,82v17h-1v5h1v2h-1v7h-1v9h1v2h-2v2h1v7h-1v2h1v4h-1v2h1v3h1v2h-1v2h1v4h1v3h-1v4h1v16Z" style="stroke: rgb(0, 0, 154); fill: rgb(255, 255, 0);"></path>
       <path d="M2,94v19h7v-19zM13,71v23h7v-23zM24,50v20h7v-20zM35,34v19h7v-19zM46,28v21h8v-21zM58,30v19h7v-19zM69,41v18h7v-18zM80,59v20h7v-20zM91,81v21h7v-21zM102,105v23h7v-23zM113,130v22h7v-22zM124,152v21h7v-21zM135,165v20h7v-20zM146,175v18h8v-18zM158,170v20h7v-20zM169,159v21h7v-21zM180,143v21h7v-21zM191,118v22h7v-22z" style="stroke: rgb(0, 0, 154); stroke-width: 1; fill: rgb(255, 255, 0);"></path>
       <path d="M2,104h7M2,71h7M2,141h7M6,94v-23M6,113v28M13,84h7M13,49h7M13,128h7M17,71v-22M17,94v34M24,60h7M24,22h7M24,95h7M28,50v-28M28,70v25M35,45h7M35,7h7M35,73h7M39,34v-27M39,53v20M46,40h8M46,2h8M46,77h8M50,28v-26M50,49v28M58,40h7M58,0h7M58,75h7M62,30v-30M62,49v26M69,50h7M69,18h7M69,82h7M73,41v-23M73,59v23M80,68h7M80,33h7M80,108h7M84,59v-26M84,79v29M91,92h7M91,53h7M91,128h7M95,81v-28M95,102v26M102,118h7M102,73h7M102,161h7M106,105v-32M106,128v33M113,140h7M113,102h7M113,179h7M117,130v-28M117,152v27M124,163h7M124,124h7M124,201h7M128,152v-28M128,173v28M135,175h7M135,141h7M135,210h7M139,165v-24M139,185v25M146,183h8M146,146h8M146,217h8M150,175v-29M150,193v24M158,180h7M158,148h7M158,219h7M162,170v-22M162,190v29M169,170h7M169,130h7M169,212h7M173,159v-29M173,180v32M180,154h7M180,108h7M180,190h7M184,143v-35M184,164v26M191,130h7M191,82h7M191,175h7M195,118v-36M195,140v35" style="stroke: rgb(0, 0, 154); stroke-width: 1; fill: none;"></path>
       <path d="M2,104h7M13,82h7M24,59h7M35,43h7M46,39h8M58,40h7M69,51h7M80,68h7M91,91h7M102,117h7M113,141h7M124,162h7M135,175h7M146,183h8M158,179h7M169,170h7M180,153h7M191,129h7" style="stroke: rgb(0, 0, 154); stroke-width: 1; stroke-dasharray: 3, 3; fill: none;"></path>
       <path d="M3,153l6,6m0,-6l-6,6M3,144l6,6m0,-6l-6,6M25,11l6,6m0,-6l-6,6M70,95l6,6m0,-6l-6,6M70,89l6,6m0,-6l-6,6M70,89l6,6m0,-6l-6,6M70,87l6,6m0,-6l-6,6M81,113l6,6m0,-6l-6,6M92,36l6,6m0,-6l-6,6M159,133l6,6m0,-6l-6,6M159,131l6,6m0,-6l-6,6M181,104l6,6m0,-6l-6,6" style="stroke: rgb(0, 0, 154); fill: none;"></path>
      </g>
     </svg>
     <g>
      <g transform="translate(0,221)">
       <path d="M0,0h200M0,-7V0M6,-4V0M11,-4V0M17,-4V0M22,-4V0M28,-7V0M33,-4V0M39,-4V0M44,-4V0M50,-4V0M56,-7V0M61,-4V0M67,-4V0M72,-4V0M78,-4V0M83,-7V0M89,-4V0M94,-4V0M100,-4V0M106,-4V0M111,-7V0M117,-4V0M122,-4V0M128,-4V0M133,-4V0M139,-7V0M144,-4V0M150,-4V0M156,-4V0M161,-4V0M167,-7V0M172,-4V0M178,-4V0M183,-4V0M189,-4V0M194,-7V0M200,-4V0" style="stroke: black; stroke-width: 1;"></path>
       <g font-family="Arial" font-size="9" xml:space="preserve" fill="black" text-anchor="middle"><text dy=".8em" transform="translate(0,1)">0</text><text dy=".8em" transform="translate(28,1)">50</text><text dy=".8em" transform="translate(56,1)">100</text><text dy=".8em" transform="translate(83,1)">150</text><text dy=".8em" transform="translate(111,1)">200</text><text dy=".8em" transform="translate(139,1)">250</text><text dy=".8em" transform="translate(167,1)">300</text><text dy=".8em" transform="translate(194,1)">350</text></g>
       <g font-family="Arial" font-size="9" xml:space="preserve" transform="translate(200,16)"><text fill="black" text-anchor="end" dominant-baseline="middle">Deg</text></g>
      </g>
      <g>
       <path d="M0,0v221M6,221H0M3,214H0M3,206H0M3,199H0M3,192H0M6,184H0M3,177H0M3,169H0M3,162H0M3,155H0M6,147H0M3,140H0M3,133H0M3,125H0M3,118H0M6,111H0M3,103H0M3,96H0M3,88H0M3,81H0M6,74H0M3,66H0M3,59H0M3,52H0M3,44H0M6,37H0M3,29H0M3,22H0M3,15H0M3,7H0M6,0H0" style="stroke: black; stroke-width: 1;"></path>
       <g font-family="Arial" font-size="9" xml:space="preserve" fill="black" text-anchor="end"><text dominant-baseline="middle" transform="translate(-2,221)">-1.5</text><text dominant-baseline="middle" transform="translate(-2,184)">-1</text><text dominant-baseline="middle" transform="translate(-2,147)">-0.5</text><text dominant-baseline="middle" transform="translate(-2,111)">0</text><text dominant-baseline="middle" transform="translate(-2,74)">0.5</text><text dominant-baseline="middle" transform="translate(-2,37)">1</text><text dominant-baseline="middle" transform="translate(-2)">1.5</text></g>
      </g>
     </g>
    </g>
    <g transform="translate(195,18)" font-family="Arial" font-size="5" xml:space="preserve" fill="black"><path d="M0,0H50V66H0Z" style="fill: white; stroke: black; stroke-width: 1;"></path><text text-anchor="middle" dominant-baseline="middle" transform="translate(25,6)">h1_copy</text><text text-anchor="start" dominant-baseline="middle" transform="translate(3,17)">Entries</text><text text-anchor="end" dominant-baseline="middle" transform="translate(48,17)">3600</text><text text-anchor="start" dominant-baseline="middle" transform="translate(3,28)">Mean x</text><text text-anchor="end" dominant-baseline="middle" transform="translate(48,28)">175</text><text text-anchor="start" dominant-baseline="middle" transform="translate(3,39)">Mean y</text><text text-anchor="end" dominant-baseline="middle" transform="translate(48,39)">0.001895</text><text text-anchor="start" dominant-baseline="middle" transform="translate(3,50)">Std Dev x</text><text text-anchor="end" dominant-baseline="middle" transform="translate(48,50)">103.9</text><text text-anchor="start" dominant-baseline="middle" transform="translate(3,61)">Std Dev y</text><text text-anchor="end" dominant-baseline="middle" transform="translate(48,61)">0.7269</text><path d="M0,11h50" style="stroke: black; stroke-width: 1;"></path></g>
    <g transform="translate(72,1)" font-family="Arial" font-size="13" xml:space="preserve"><text fill="black" text-anchor="middle" dominant-baseline="middle" transform="translate(53,9)">candlex(1112111)</text></g>
   </g>
  </svg>
  <svg viewBox="0 0 250 276" preserveAspectRatio="none" x="274" y="293" width="250" height="276">
   <path d="M0,0H250V276H0Z" style="fill: white;"></path>
   <g>
    <g transform="translate(25,28)">
     <path d="M0,0H200V221H0Z" style="fill: white; stroke: black; stroke-width: 1;"></path>
     <svg x="0" y="0" overflow="hidden" width="200" height="221" viewBox="0 0 200 221">
      <g>
       <path d="M2,94v19h7v-19zM13,71v23h7v-23zM24,50v20h7v-20zM35,34v19h7v-19zM46,28v21h8v-21zM58,30v19h7v-19zM69,41v18h7v-18zM80,59v20h7v-20zM91,81v21h7v-21zM102,105v23h7v-23zM113,130v22h7v-22zM124,152v21h7v-21zM135,165v20h7v-20zM146,175v18h8v-18zM158,170v20h7v-20zM169,159v21h7v-21zM180,143v21h7v-21zM191,118v22h7v-22z" style="stroke: rgb(0, 0, 154); stroke-width: 1; fill: rgb(255, 255, 0);"></path>
       <path d="M2,104h7M2,71h7M2,141h7M6,94v-23M6,113v28M13,84h7M13,49h7M13,128h7M17,71v-22M17,94v34M24,60h7M24,22h7M24,95h7M28,50v-28M28,70v25M35,45h7M35,7h7M35,73h7M39,34v-27M39,53v20M46,40h8M46,2h8M46,77h8M50,28v-26M50,49v28M58,40h7M58,0h7M58,75h7M62,30v-30M62,49v26M69,50h7M69,18h7M69,82h7M73,41v-23M73,59v23M80,68h7M80,33h7M80,108h7M84,59v-26M84,79v29M91,92h7M91,53h7M91,128h7M95,81v-28M95,102v26M102,118h7M102,73h7M102,161h7M106,105v-32M106,128v33M113,140h7M113,102h7M113,179h7M117,130v-28M117,152v27M124,163h7M124,124h7M124,201h7M128,152v-28M128,173v28M135,175h7M135,141h7M135,210h7M139,165v-24M139,185v25M146,183h8M146,146h8M146,217h8M150,175v-29M150,193v24M158,180h7M158,148h7M158,219h7M162,170v-22M162,190v29M169,170h7M169,130h7M169,212h7M173,159v-29M173,180v32M180,154h7M180,108h7M180,190h7M184,143v-35M184,164v26M191,130h7M191,82h7M191,175h7M195,118v-36M195,140v35" style="stroke: rgb(0, 0, 154); stroke-width: 1; fill: none;"></path>
       <path d="M2,104h7M13,82h7M24,59h7M35,43h7M46,39h8M58,40h7M69,51h7M80,68h7M91,91h7M102,117h7M113,141h7M124,162h7M135,175h7M146,183h8M158,179h7M169,170h7M180,153h7M191,129h7" style="stroke: rgb(0, 0, 154); stroke-width: 1; stroke-dasharray: 3, 3; fill: none;"></path>
       <path d="M3,153l6,6m0,-6l-6,6M3,144l6,6m0,-6l-6,6M25,11l6,6m0,-6l-6,6M70,95l6,6m0,-6l-6,6M70,89l6,6m0,-6l-6,6M70,89l6,6m0,-6l-6,6M70,87l6,6m0,-6l-6,6M81,113l6,6m0,-6l-6,6M92,36l6,6m0,-6l-6,6M159,133l6,6m0,-6l-6,6M159,131l6,6m0,-6l-6,6M181,104l6,6m0,-6l-6,6" style="stroke: rgb(0, 0, 154); fill: none;"></path>
      </g>
      <g>
       <path d="M6,71h-1v2h1v2h-1v9h1v2h-1v5h-2v2h1v4h-1v2h1v5h-2v2h2v2h-1v3h1v2h1v2h-1v2h2v2h-1v7h-1v2h1v2h1v3h-1v2h1v22ZM17,49h-1v2h1v6h-2v7h1v5h-1v4h-1v2h2v2h-1v5h1v2h-2v2h1v2h-1v3h1v6h1v2h-1v3h1v2h-1v4h2v20ZM28,13v18h-1v9h-1v2h1v2h-1v5h1v2h-1v2h-1v2h1v2h-2v5h2v15h1v7h1v11ZM39,7v8h-1v5h-1v2h1v2h1v3h-2v8h1v3h-1v2h-2v2h2v2h-2v2h2v3h-2v2h2v4h-1v2h2v7h-1v2h2v7ZM50,2h-1v5h1v4h-1v7h1v2h-1v4h-1v3h-1v2h1v4h-1v5h2v2h-3v2h2v2h-3v2h3v3h1v2h-1v4h1v2h-1v5h1v2h1v13ZM62,0v15h-1v7h-1v5h1v2h-1v4h-1v2h1v5h-1v2h1v2h-2v2h2v7h1v2h-1v2h1v7h1v2h-1v3h1v6ZM73,18v2h-1v4h1v5h-1v6h-1v5h-1v4h1v5h-1v2h-1v2h2v2h-1v5h1v6h2v3h-1v4h1v2h-1v2h1v22ZM84,33v2h-1v5h1v4h-1v7h-1v4h1v5h-1v2h-2v2h2v2h-2v3h1v2h1v6h1v3h-1v4h1v2h-1v2h2v3h-1v2h1v2h-1v2h1v20ZM95,38v19h-1v3h1v4h-1v5h1v2h-2v2h1v2h1v2h-2v14h-2v2h2v2h-1v2h2v2h-1v3h1v2h-1v7h1v8h1v9ZM106,73v13h-1v2h1v5h-2v2h2v2h-2v2h1v3h-1v9h-1v2h2v2h-1v11h-1v2h1v2h-1v3h2v2h1v2h-2v2h2v5h-1v4h1v13ZM117,102v9h-1v13h-1v6h1v3h-2v2h1v2h-1v4h1v14h1v2h-1v4h1v5h1v13ZM128,124v9h-1v2h1v4h-1v2h1v3h-1v4h-1v2h-1v2h1v3h-1v2h1v7h-1v2h1v6h-1v3h2v4h-1v2h1v11h1v9ZM139,141v5h-1v15h-1v3h-2v2h2v9h-2v2h2v4h-1v5h2v11h-1v4h1v5h1v4ZM150,146v4h-1v7h1v2h-1v2h1v3h-1v6h-1v2h1v3h-1v2h-1v2h-1v2h1v2h1v3h-2v2h1v2h1v4h1v3h-1v2h1v2h-1v2h1v9h1v5ZM162,133v19h-1v3h1v2h-1v9h-1v2h-1v2h1v7h-1v2h-1v2h2v2h-1v3h2v2h-2v2h1v4h1v3h-1v2h1v7h1v2h-1v2h1v9ZM173,130v16h-1v2h-1v2h1v7h-2v2h1v5h1v2h-2v2h1v2h-1v5h1v2h-1v2h2v2h-1v7h1v4h1v5h-1v4h1v11ZM184,106v16h-1v13h-1v2h2v2h-2v5h1v2h-1v2h-1v4h1v3h-1v4h1v2h-1v3h1v8h1v7h1v11ZM195,82v17h-1v5h1v2h-1v7h-1v9h1v2h-2v2h1v7h-1v2h1v4h-1v2h1v3h1v2h-1v2h1v4h1v3h-1v4h1v16Z" style="stroke: rgb(0, 0, 154); fill: rgb(255, 0, 0);"></path>
      </g>
     </svg>
     <g>
      <g transform="translate(0,221)">
       <path d="M0,0h200M0,-7V0M6,-4V0M11,-4V0M17,-4V0M22,-4V0M28,-7V0M33,-4V0M39,-4V0M44,-4V0M50,-4V0M56,-7V0M61,-4V0M67,-4V0M72,-4V0M78,-4V0M83,-7V0M89,-4V0M94,-4V0M100,-4V0M106,-4V0M111,-7V0M117,-4V0M122,-4V0M128,-4V0M133,-4V0M139,-7V0M144,-4V0M150,-4V0M156,-4V0M161,-4V0M167,-7V0M172,-4V0M178,-4V0M183,-4V0M189,-4V0M194,-7V0M200,-4V0" style="stroke: black; stroke-width: 1;"></path>
       <g font-family="Arial" font-size="9" xml:space="preserve" fill="black" text-anchor="middle"><text dy=".8em" transform="translate(0,1)">0</text><text dy=".8em" transform="translate(28,1)">50</text><text dy=".8em" transform="translate(56,1)">100</text><text dy=".8em" transform="translate(83,1)">150</text><text dy=".8em" transform="translate(111,1)">200</text><text dy=".8em" transform="translate(139,1)">250</text><text dy=".8em" transform="translate(167,1)">300</text><text dy=".8em" transform="translate(194,1)">350</text></g>
       <g font-family="Arial" font-size="9" xml:space="preserve" transform="translate(200,16)"><text fill="black" text-anchor="end" dominant-baseline="middle">Deg</text></g>
      </g>
      <g>
       <path d="M0,0v221M6,221H0M3,214H0M3,206H0M3,199H0M3,192H0M6,184H0M3,177H0M3,169H0M3,162H0M3,155H0M6,147H0M3,140H0M3,133H0M3,125H0M3,118H0M6,111H0M3,103H0M3,96H0M3,88H0M3,81H0M6,74H0M3,66H0M3,59H0M3,52H0M3,44H0M6,37H0M3,29H0M3,22H0M3,15H0M3,7H0M6,0H0" style="stroke: black; stroke-width: 1;"></path>
       <g font-family="Arial" font-size="9" xml:space="preserve" fill="black" text-anchor="end"><text dominant-baseline="middle" transform="translate(-2,221)">-1.5</text><text dominant-baseline="middle" transform="translate(-2,184)">-1</text><text dominant-baseline="middle" transform="translate(-2,147)">-0.5</text><text dominant-baseline="middle" transform="translate(-2,111)">0</text><text dominant-baseline="middle" transform="translate(-2,74)">0.5</text><text dominant-baseline="middle" transform="translate(-2,37)">1</text><text dominant-baseline="middle" transform="translate(-2)">1.5</text></g>
      </g>
     </g>
    </g>
    <g transform="translate(195,18)" font-family="Arial" font-size="5" xml:space="preserve" fill="black"><path d="M0,0H50V66H0Z" style="fill: white; stroke: black; stroke-width: 1;"></path><text text-anchor="middle" dominant-baseline="middle" transform="translate(25,6)">h1_copy</text><text text-anchor="start" dominant-baseline="middle" transform="translate(3,17)">Entries</text><text text-anchor="end" dominant-baseline="middle" transform="translate(48,17)">3600</text><text text-anchor="start" dominant-baseline="middle" transform="translate(3,28)">Mean x</text><text text-anchor="end" dominant-baseline="middle" transform="translate(48,28)">175</text><text text-anchor="start" dominant-baseline="middle" transform="translate(3,39)">Mean y</text><text text-anchor="end" dominant-baseline="middle" transform="translate(48,39)">0.001895</text><text text-anchor="start" dominant-baseline="middle" transform="translate(3,50)">Std Dev x</text><text text-anchor="end" dominant-baseline="middle" transform="translate(48,50)">103.9</text><text text-anchor="start" dominant-baseline="middle" transform="translate(3,61)">Std Dev y</text><text text-anchor="end" dominant-baseline="middle" transform="translate(48,61)">0.7269</text><path d="M0,11h50" style="stroke: black; stroke-width: 1;"></path></g>
    <g transform="translate(75,1)" font-family="Arial" font-size="12" xml:space="preserve"><text fill="black" text-anchor="middle" dominant-baseline="middle" transform="translate(50,9)">candlex(112111)</text></g>
   </g>
  </svg>
  <svg viewBox="0 0 250 276" preserveAspectRatio="none" x="540" y="293" width="250" height="276">
   <path d="M0,0H250V276H0Z" style="fill: white;"></path>
   <g>
    <g transform="translate(25,28)">
     <path d="M0,0H200V221H0Z" style="fill: white; stroke: black; stroke-width: 1;"></path>
     <svg x="0" y="0" overflow="hidden" width="200" height="221" viewBox="0 0 200 221">
      <g>
       <path d="M7,94v19h2v-19zM18,71v23h2v-23zM29,50v20h2v-20zM40,34v19h2v-19zM52,28v21h2v-21zM63,30v19h2v-19zM74,41v18h2v-18zM85,59v20h2v-20zM96,81v21h2v-21zM107,105v23h2v-23zM118,130v22h2v-22zM129,152v21h2v-21zM140,165v20h2v-20zM152,175v18h2v-18zM163,170v20h2v-20zM174,159v21h2v-21zM185,143v21h2v-21zM196,118v22h2v-22z" style="stroke: rgb(0, 0, 154); stroke-width: 1; fill: rgb(255, 255, 0);"></path>
       <path d="M7,104h2M7,71h2M7,141h2M8,94v-23M8,113v28M18,84h2M18,49h2M18,128h2M19,71v-22M19,94v34M29,60h2M29,22h2M29,95h2M30,50v-28M30,70v25M40,45h2M40,7h2M40,73h2M41,34v-27M41,53v20M52,40h2M52,2h2M52,77h2M53,28v-26M53,49v28M63,40h2M63,0h2M63,75h2M64,30v-30M64,49v26M74,50h2M74,18h2M74,82h2M75,41v-23M75,59v23M85,68h2M85,33h2M85,108h2M86,59v-26M86,79v29M96,92h2M96,53h2M96,128h2M97,81v-28M97,102v26M107,118h2M107,73h2M107,161h2M108,105v-32M108,128v33M118,140h2M118,102h2M118,179h2M119,130v-28M119,152v27M129,163h2M129,124h2M129,201h2M130,152v-28M130,173v28M140,175h2M140,141h2M140,210h2M141,165v-24M141,185v25M152,183h2M152,146h2M152,217h2M153,175v-29M153,193v24M163,180h2M163,148h2M163,219h2M164,170v-22M164,190v29M174,170h2M174,130h2M174,212h2M175,159v-29M175,180v32M185,154h2M185,108h2M185,190h2M186,143v-35M186,164v26M196,130h2M196,82h2M196,175h2M197,118v-36M197,140v35" style="stroke: rgb(0, 0, 154); stroke-width: 1; fill: none;"></path>
       <path d="M7,104h2M18,82h2M29,59h2M40,43h2M52,39h2M63,40h2M74,51h2M85,68h2M96,91h2M107,117h2M118,141h2M129,162h2M140,175h2M152,183h2M163,179h2M174,170h2M185,153h2M196,129h2" style="stroke: rgb(0, 0, 154); stroke-width: 1; stroke-dasharray: 3, 3; fill: none;"></path>
       <path d="M5,153l6,6m0,-6l-6,6M5,144l6,6m0,-6l-6,6M27,11l6,6m0,-6l-6,6M72,95l6,6m0,-6l-6,6M72,89l6,6m0,-6l-6,6M72,89l6,6m0,-6l-6,6M72,87l6,6m0,-6l-6,6M83,113l6,6m0,-6l-6,6M94,36l6,6m0,-6l-6,6M161,133l6,6m0,-6l-6,6M161,131l6,6m0,-6l-6,6M183,104l6,6m0,-6l-6,6" style="stroke: rgb(0, 0, 154); fill: none;"></path>
      </g>
      <g>
       <path d="M0,157v-22h1v-2h-1v-5h1v-4h-1v-2h1v-3h-1v-2h1v-4h1v-5h-1v-2h2v-2h-1v-7h-1v-4h1v-2h-1v-5h-1v-2h1v-2h-1v-11ZM11,128v-20h1v-11h1v-2h-1v-4h1v-7h-1v-2h1v-5h-1v-2h1v-4h-1v-5h-1v-2h1v-7h-1v-8ZM22,95v-11h1v-11h1v-7h-1v-4h2v-5h-1v-4h-1v-9h-1v-2h1v-7h-1v-2h1v-2h-1v-18ZM33,73v-7h1v-9h1v-2h-1v-2h1v-2h1v-2h-2v-3h2v-2h-1v-2h1v-2h-2v-13h-1v-5h1v-7h-1v-8ZM44,77v-13h1v-9h1v-2h-1v-7h2v-2h-2v-2h2v-2h-2v-2h1v-7h-1v-2h1v-5h-1v-4h-1v-2h1v-7h-1v-4h1v-5h-1ZM56,75v-6h1v-3h-1v-4h1v-7h-1v-2h1v-4h1v-3h1v-2h-1v-15h-2v-2h1v-12h-1v-15ZM67,99v-22h1v-2h-1v-4h1v-2h-1v-3h1v-6h1v-5h-1v-2h2v-2h-1v-13h-1v-5h-1v-2h1v-2h-1v-11ZM78,117v-20h1v-2h-1v-2h1v-2h-1v-3h1v-6h1v-2h-1v-7h1v-4h1v-3h-1v-2h1v-2h-2v-13h-1v-3h1v-2h-1v-4h1v-5h-1v-2ZM89,128v-9h1v-17h1v-3h-1v-2h1v-2h-1v-2h2v-2h-2v-5h1v-6h-1v-3h-1v-2h1v-4h-1v-2h1v-3h-1v-6h1v-3h-1v-19ZM100,161v-13h1v-4h-1v-5h1v-2h-1v-2h1v-2h1v-3h-1v-2h1v-6h-1v-9h1v-2h-1v-14h-1v-2h2v-2h-2v-20ZM111,179v-13h1v-2h-1v-3h1v-6h1v-5h-1v-2h1v-2h-1v-2h1v-11h-1v-14h-1v-2h1v-2h-1v-13ZM122,201v-9h1v-2h-1v-2h1v-13h1v-7h-1v-2h1v-5h-1v-2h1v-4h-1v-3h1v-2h-1v-6h-1v-3h1v-2h-1v-4h1v-2h-1v-9ZM133,210v-9h1v-4h-1v-3h1v-8h1v-5h-1v-2h1v-2h1v-2h-2v-5h1v-4h1v-2h-2v-18h-1v-5ZM144,217v-5h1v-13h1v-2h-1v-5h1v-4h1v-2h-1v-5h1v-2h-1v-4h-1v-11h-1v-3h1v-2h-1v-2h1v-7h-1v-4ZM156,219v-16h1v-11h1v-4h-1v-2h1v-5h1v-2h-1v-2h-1v-5h1v-4h-1v-11h-1v-2h1v-3h-1v-19ZM167,212v-20h1v-2h-1v-2h1v-9h1v-2h-1v-2h1v-5h-1v-2h1v-2h-2v-2h2v-7h-1v-9h-1v-18ZM178,190v-11h1v-15h1v-3h-1v-2h1v-13h-1v-7h-1v-2h1v-4h-1v-3h1v-2h-1v-2h1v-2h-1v-18ZM189,175v-23h1v-2h-1v-2h1v-7h1v-2h-1v-2h1v-4h-1v-3h1v-2h-1v-2h1v-2h-1v-5h1v-2h-1v-11h-1v-2h1v-5h-1v-17Z" style="stroke: rgb(0, 0, 154); fill: rgb(255, 0, 0);"></path>
      </g>
     </svg>
     <g>
      <g transform="translate(0,221)">
       <path d="M0,0h200M0,-7V0M6,-4V0M11,-4V0M17,-4V0M22,-4V0M28,-7V0M33,-4V0M39,-4V0M44,-4V0M50,-4V0M56,-7V0M61,-4V0M67,-4V0M72,-4V0M78,-4V0M83,-7V0M89,-4V0M94,-4V0M100,-4V0M106,-4V0M111,-7V0M117,-4V0M122,-4V0M128,-4V0M133,-4V0M139,-7V0M144,-4V0M150,-4V0M156,-4V0M161,-4V0M167,-7V0M172,-4V0M178,-4V0M183,-4V0M189,-4V0M194,-7V0M200,-4V0" style="stroke: black; stroke-width: 1;"></path>
       <g font-family="Arial" font-size="9" xml:space="preserve" fill="black" text-anchor="middle"><text dy=".8em" transform="translate(0,1)">0</text><text dy=".8em" transform="translate(28,1)">50</text><text dy=".8em" transform="translate(56,1)">100</text><text dy=".8em" transform="translate(83,1)">150</text><text dy=".8em" transform="translate(111,1)">200</text><text dy=".8em" transform="translate(139,1)">250</text><text dy=".8em" transform="translate(167,1)">300</text><text dy=".8em" transform="translate(194,1)">350</text></g>
       <g font-family="Arial" font-size="9" xml:space="preserve" transform="translate(200,16)"><text fill="black" text-anchor="end" dominant-baseline="middle">Deg</text></g>
      </g>
      <g>
       <path d="M0,0v221M6,221H0M3,214H0M3,206H0M3,199H0M3,192H0M6,184H0M3,177H0M3,169H0M3,162H0M3,155H0M6,147H0M3,140H0M3,133H0M3,125H0M3,118H0M6,111H0M3,103H0M3,96H0M3,88H0M3,81H0M6,74H0M3,66H0M3,59H0M3,52H0M3,44H0M6,37H0M3,29H0M3,22H0M3,15H0M3,7H0M6,0H0" style="stroke: black; stroke-width: 1;"></path>
       <g font-family="Arial" font-size="9" xml:space="preserve" fill="black" text-anchor="end"><text dominant-baseline="middle" transform="translate(-2,221)">-1.5</text><text dominant-baseline="middle" transform="translate(-2,184)">-1</text><text dominant-baseline="middle" transform="translate(-2,147)">-0.5</text><text dominant-baseline="middle" transform="translate(-2,111)">0</text><text dominant-baseline="middle" transform="translate(-2,74)">0.5</text><text dominant-baseline="middle" transform="translate(-2,37)">1</text><text dominant-baseline="middle" transform="translate(-2)">1.5</text></g>
      </g>
     </g>
    </g>
    <g transform="translate(195,18)" font-family="Arial" font-size="5" xml:space="preserve" fill="black"><path d="M0,0H50V66H0Z" style="fill: white; stroke: black; stroke-width: 1;"></path><text text-anchor="middle" dominant-baseline="middle" transform="translate(25,6)">h1_copy</text><text text-anchor="start" dominant-baseline="middle" transform="translate(3,17)">Entries</text><text text-anchor="end" dominant-baseline="middle" transform="translate(48,17)">3600</text><text text-anchor="start" dominant-baseline="middle" transform="translate(3,28)">Mean x</text><text text-anchor="end" dominant-baseline="middle" transform="translate(48,28)">175</text><text text-anchor="start" dominant-baseline="middle" transform="translate(3,39)">Mean y</text><text text-anchor="end" dominant-baseline="middle" transform="translate(48,39)">0.001895</text><text text-anchor="start" dominant-baseline="middle" transform="translate(3,50)">Std Dev x</text><text text-anchor="end" dominant-baseline="middle" transform="translate(48,50)">103.9</text><text text-anchor="start" dominant-baseline="middle" transform="translate(3,61)">Std Dev y</text><text text-anchor="end" dominant-baseline="middle" transform="translate(48,61)">0.7269</text><path d="M0,11h50" style="stroke: black; stroke-width: 1;"></path></g>
    <g transform="translate(75,1)" font-family="Arial" font-size="12" xml:space="preserve"><text fill="black" text-anchor="middle" dominant-baseline="middle" transform="translate(50,9)">candlex(112111)</text></g>
   </g>
  </svg>
 </g>
</svg>