<svg xmlns="http://www.w3.org/2000/svg" viewBox="0 0 698 475" preserveAspectRatio="none" width="698" height="475">
 <path d="M0,0H698V475H0Z" style="fill: white;"></path>
 <g>
  <g transform="translate(70,48)">
   <path d="M0,0H558V380H0Z" style="fill: white; stroke: black; stroke-width: 1;"></path>
   <svg x="0" y="0" overflow="hidden" width="558" height="380" viewBox="0 0 558 380">
    <g>
     <path d="M2,152v26h19v-26zM49,142v27h19v-27zM95,141v24h19v-24zM142,139v25h19v-25zM188,141v26h19v-26zM235,144v26h19v-26zM281,151v26h19v-26zM328,159v26h19v-26zM374,168v24h19v-24zM421,178v25h19v-25zM467,188v24h19v-24zM514,198v25h19v-25z" style="stroke: #00009a; stroke-width: 1; fill: #ffff00;"></path>
     <path d="M2,166h19M2,112h19M2,217h19M12,152v-40M12,178v39M49,156h19M49,103h19M49,210h19M59,142v-39M59,169v41M95,153h19M95,104h19M95,201h19M105,141v-37M105,165v36M142,151h19M142,101h19M142,200h19M152,139v-38M152,164v36M188,154h19M188,103h19M188,204h19M198,141v-38M198,167v37M235,158h19M235,106h19M235,209h19M245,144v-38M245,170v39M281,165h19M281,113h19M281,216h19M291,151v-38M291,177v39M328,172h19M328,120h19M328,224h19M338,159v-39M338,185v39M374,180h19M374,132h19M374,225h19M384,168v-36M384,192v33M421,190h19M421,141h19M421,237h19M431,178v-37M431,203v34M467,200h19M467,152h19M467,247h19M477,188v-36M477,212v35M514,210h19M514,159h19M514,260h19M524,198v-39M524,223v37" style="stroke: #00009a; stroke-width: 1; fill: none;"></path>
     <path d="M2,165h19M49,156h19M95,154h19M142,152h19M188,154h19M235,158h19M281,164h19M328,172h19M374,181h19M421,190h19M467,200h19M514,210h19" style="stroke: #00009a; stroke-width: 1; stroke-dasharray: 3,3; fill: none;"></path>
     <path d="M8,223l8,8m0,-8l-8,8M8,222l8,8m0,-8l-8,8M8,220l8,8m0,-8l-8,8M8,218l8,8m0,-8l-8,8M8,215l8,8m0,-8l-8,8M8,215l8,8m0,-8l-8,8M8,108l8,8m0,-8l-8,8M8,107l8,8m0,-8l-8,8M8,105l8,8m0,-8l-8,8M8,104l8,8m0,-8l-8,8M8,97l8,8m0,-8l-8,8M8,96l8,8m0,-8l-8,8M8,95l8,8m0,-8l-8,8M8,89l8,8m0,-8l-8,8M55,208l8,8m0,-8l-8,8M55,97l8,8m0,-8l-8,8M55,97l8,8m0,-8l-8,8M55,94l8,8m0,-8l-8,8M55,90l8,8m0,-8l-8,8M101,213l8,8m0,-8l-8,8M101,203l8,8m0,-8l-8,8M101,201l8,8m0,-8l-8,8M101,200l8,8m0,-8l-8,8M101,199l8,8m0,-8l-8,8M101,95l8,8m0,-8l-8,8M101,91l8,8m0,-8l-8,8M148,225l8,8m0,-8l-8,8M148,208l8,8m0,-8l-8,8M148,205l8,8m0,-8l-8,8M148,200l8,8m0,-8l-8,8M148,199l8,8m0,-8l-8,8M148,95l8,8m0,-8l-8,8M148,90l8,8m0,-8l-8,8M148,66l8,8m0,-8l-8,8M194,218l8,8m0,-8l-8,8M194,210l8,8m0,-8l-8,8M194,205l8,8m0,-8l-8,8M194,204l8,8m0,-8l-8,8M194,201l8,8m0,-8l-8,8M194,98l8,8m0,-8l-8,8M194,96l8,8m0,-8l-8,8M194,92l8,8m0,-8l-8,8M194,88l8,8m0,-8l-8,8M194,85l8,8m0,-8l-8,8M241,216l8,8m0,-8l-8,8M241,100l8,8m0,-8l-8,8M241,100l8,8m0,-8l-8,8M241,99l8,8m0,-8l-8,8M241,98l8,8m0,-8l-8,8M287,218l8,8m0,-8l-8,8M287,108l8,8m0,-8l-8,8M334,224l8,8m0,-8l-8,8M334,223l8,8m0,-8l-8,8M334,114l8,8m0,-8l-8,8M334,102l8,8m0,-8l-8,8M380,237l8,8m0,-8l-8,8M380,234l8,8m0,-8l-8,8M380,228l8,8m0,-8l-8,8M380,228l8,8m0,-8l-8,8M380,127l8,8m0,-8l-8,8M380,125l8,8m0,-8l-8,8M380,116l8,8m0,-8l-8,8M427,242l8,8m0,-8l-8,8M427,240l8,8m0,-8l-8,8M427,135l8,8m0,-8l-8,8M427,135l8,8m0,-8l-8,8M427,132l8,8m0,-8l-8,8M427,131l8,8m0,-8l-8,8M473,256l8,8m0,-8l-8,8M473,251l8,8m0,-8l-8,8M473,250l8,8m0,-8l-8,8M473,246l8,8m0,-8l-8,8M473,245l8,8m0,-8l-8,8M473,244l8,8m0,-8l-8,8M473,148l8,8m0,-8l-8,8M473,147l8,8m0,-8l-8,8M473,146l8,8m0,-8l-8,8M473,143l8,8m0,-8l-8,8M473,136l8,8m0,-8l-8,8M520,268l8,8m0,-8l-8,8M520,266l8,8m0,-8l-8,8M520,261l8,8m0,-8l-8,8M520,155l8,8m0,-8l-8,8M520,155l8,8m0,-8l-8,8M520,151l8,8m0,-8l-8,8M520,150l8,8m0,-8l-8,8M520,149l8,8m0,-8l-8,8M520,147l8,8m0,-8l-8,8" style="stroke: #00009a; fill: none;"></path>
    </g>
    <g>
     <path d="M26,134v36h19v-36zM72,141v36h19v-36zM119,146v37h19v-37zM165,154v35h19v-35zM212,160v37h19v-37zM258,169v38h19v-38zM305,179v35h19v-35zM351,187v36h19v-36zM398,195v35h19v-35zM444,201v35h19v-35zM491,208v38h19v-38zM537,208v37h19v-37z" style="stroke: #ff0000; stroke-width: 1; fill: #00ff00;"></path>
     <path d="M26,152h19M26,82h19M26,223h19M35,134v-52M35,170v53M72,159h19M72,88h19M72,228h19M82,141v-53M82,177v51M119,165h19M119,90h19M119,237h19M128,146v-56M128,183v54M165,172h19M165,102h19M165,242h19M175,154v-52M175,189v53M212,179h19M212,104h19M212,251h19M221,160v-56M221,197v54M258,187h19M258,114h19M258,261h19M268,169v-55M268,207v54M305,197h19M305,130h19M305,266h19M314,179v-49M314,214v52M351,204h19M351,138h19M351,276h19M361,187v-49M361,223v53M398,213h19M398,143h19M398,281h19M407,195v-52M407,230v51M444,218h19M444,151h19M444,287h19M454,201v-50M454,236v51M491,228h19M491,154h19M491,300h19M500,208v-54M500,246v54M537,227h19M537,152h19M537,297h19M547,208v-56M547,245v52" style="stroke: #ff0000; stroke-width: 1; fill: none;"></path>
     <path d="M31,152a4,4,0,1,0,8,0a4,4,0,1,0,-8,0zM78,159a4,4,0,1,0,8,0a4,4,0,1,0,-8,0zM124,164a4,4,0,1,0,8,0a4,4,0,1,0,-8,0zM171,171a4,4,0,1,0,8,0a4,4,0,1,0,-8,0zM217,178a4,4,0,1,0,8,0a4,4,0,1,0,-8,0zM264,187a4,4,0,1,0,8,0a4,4,0,1,0,-8,0zM310,197a4,4,0,1,0,8,0a4,4,0,1,0,-8,0zM357,205a4,4,0,1,0,8,0a4,4,0,1,0,-8,0zM403,213a4,4,0,1,0,8,0a4,4,0,1,0,-8,0zM450,218a4,4,0,1,0,8,0a4,4,0,1,0,-8,0zM496,227a4,4,0,1,0,8,0a4,4,0,1,0,-8,0zM543,227a4,4,0,1,0,8,0a4,4,0,1,0,-8,0z" style="stroke: #ff0000; fill: none;"></path>
     <path d="M31,249l8,8m0,-8l-8,8M31,234l8,8m0,-8l-8,8M31,223l8,8m0,-8l-8,8M31,220l8,8m0,-8l-8,8M31,220l8,8m0,-8l-8,8M31,220l8,8m0,-8l-8,8M31,72l8,8m0,-8l-8,8M31,71l8,8m0,-8l-8,8M31,69l8,8m0,-8l-8,8M31,69l8,8m0,-8l-8,8M31,59l8,8m0,-8l-8,8M31,58l8,8m0,-8l-8,8M31,54l8,8m0,-8l-8,8M78,228l8,8m0,-8l-8,8M78,82l8,8m0,-8l-8,8M78,62l8,8m0,-8l-8,8M78,47l8,8m0,-8l-8,8M124,245l8,8m0,-8l-8,8M124,85l8,8m0,-8l-8,8M124,83l8,8m0,-8l-8,8M124,82l8,8m0,-8l-8,8M124,71l8,8m0,-8l-8,8M171,267l8,8m0,-8l-8,8M171,262l8,8m0,-8l-8,8M171,253l8,8m0,-8l-8,8M171,250l8,8m0,-8l-8,8M171,245l8,8m0,-8l-8,8M171,244l8,8m0,-8l-8,8M171,240l8,8m0,-8l-8,8M171,86l8,8m0,-8l-8,8M217,266l8,8m0,-8l-8,8M217,255l8,8m0,-8l-8,8M217,251l8,8m0,-8l-8,8M217,249l8,8m0,-8l-8,8M217,90l8,8m0,-8l-8,8M217,89l8,8m0,-8l-8,8M217,88l8,8m0,-8l-8,8M217,87l8,8m0,-8l-8,8M217,87l8,8m0,-8l-8,8M217,85l8,8m0,-8l-8,8M217,84l8,8m0,-8l-8,8M264,269l8,8m0,-8l-8,8M264,101l8,8m0,-8l-8,8M310,274l8,8m0,-8l-8,8M310,271l8,8m0,-8l-8,8M310,270l8,8m0,-8l-8,8M310,265l8,8m0,-8l-8,8M310,264l8,8m0,-8l-8,8M310,120l8,8m0,-8l-8,8M310,118l8,8m0,-8l-8,8M310,116l8,8m0,-8l-8,8M310,113l8,8m0,-8l-8,8M310,110l8,8m0,-8l-8,8M310,102l8,8m0,-8l-8,8M310,97l8,8m0,-8l-8,8M357,283l8,8m0,-8l-8,8M357,128l8,8m0,-8l-8,8M357,124l8,8m0,-8l-8,8M357,123l8,8m0,-8l-8,8M357,123l8,8m0,-8l-8,8M357,123l8,8m0,-8l-8,8M357,115l8,8m0,-8l-8,8M403,285l8,8m0,-8l-8,8M403,284l8,8m0,-8l-8,8M403,282l8,8m0,-8l-8,8M403,281l8,8m0,-8l-8,8M403,133l8,8m0,-8l-8,8M450,305l8,8m0,-8l-8,8M450,305l8,8m0,-8l-8,8M450,294l8,8m0,-8l-8,8M450,289l8,8m0,-8l-8,8M450,286l8,8m0,-8l-8,8M450,139l8,8m0,-8l-8,8M450,135l8,8m0,-8l-8,8M496,306l8,8m0,-8l-8,8M496,300l8,8m0,-8l-8,8M496,299l8,8m0,-8l-8,8M496,145l8,8m0,-8l-8,8M496,143l8,8m0,-8l-8,8M543,314l8,8m0,-8l-8,8M543,298l8,8m0,-8l-8,8M543,144l8,8m0,-8l-8,8M543,144l8,8m0,-8l-8,8M543,119l8,8m0,-8l-8,8" style="stroke: #ff0000; fill: none;"></path>
    </g>
   </svg>
   <g>
    <g transform="translate(0,380)">
     <path d="M0,0h558M0,-14V0M47,-7V0M90,-7V0M138,-14V0M183,-7V0M231,-7V0M277,-14V0M324,-7V0M371,-7V0M417,-14V0M465,-7V0M511,-7V0M558,-14V0" style="stroke: black; stroke-width: 1;"></path>
     <g font-family="Arial" font-size="17" space="preserve" fill="black" text-anchor="middle">
      <text dy=".8em" transform="translate(0,4)">
       01/10
      </text>
      <text dy=".8em" transform="translate(138,4)">
       04/10
      </text>
      <text dy=".8em" transform="translate(277,4)">
       07/10
      </text>
      <text dy=".8em" transform="translate(417,4)">
       10/10
      </text>
      <text dy=".8em" transform="translate(558,4)">
       01/11
      </text>
     </g>
     <g font-family="Arial" font-size="17" space="preserve" transform="translate(558,27)">
      <text fill="black" text-anchor="end" dy=".4em">
       Date [month/year]
      </text>
     </g>
    </g>
    <g>
     <path d="M0,0v380M21,380H0M11,372H0M11,365H0M11,357H0M11,350H0M21,342H0M11,334H0M11,327H0M11,319H0M11,312H0M21,304H0M11,296H0M11,289H0M11,281H0M11,274H0M21,266H0M11,258H0M11,251H0M11,243H0M11,236H0M21,228H0M11,220H0M11,213H0M11,205H0M11,198H0M21,190H0M11,182H0M11,175H0M11,167H0M11,160H0M21,152H0M11,144H0M11,137H0M11,129H0M11,122H0M21,114H0M11,106H0M11,99H0M11,91H0M11,84H0M21,76H0M11,68H0M11,61H0M11,53H0M11,46H0M21,38H0M11,30H0M11,23H0M11,15H0M11,8H0M21,0H0" style="stroke: black; stroke-width: 1;"></path>
     <g font-family="Arial" font-size="17" space="preserve" fill="black" text-anchor="end">
      <text dy=".4em" transform="translate(-2,380)">
       0
      </text>
      <text dy=".4em" transform="translate(-2,342)">
       100
      </text>
      <text dy=".4em" transform="translate(-2,304)">
       200
      </text>
      <text dy=".4em" transform="translate(-2,266)">
       300
      </text>
      <text dy=".4em" transform="translate(-2,228)">
       400
      </text>
      <text dy=".4em" transform="translate(-2,190)">
       500
      </text>
      <text dy=".4em" transform="translate(-2,152)">
       600
      </text>
      <text dy=".4em" transform="translate(-2,114)">
       700
      </text>
      <text dy=".4em" transform="translate(-2,76)">
       800
      </text>
      <text dy=".4em" transform="translate(-2,38)">
       900
      </text>
      <text dy=".4em" transform="translate(-2)">
       1000
      </text>
     </g>
    </g>
   </g>
  </g>
  <g transform="translate(70,2)" font-family="Arial" font-size="24" space="preserve">
   <text fill="black" text-anchor="middle" dy=".8em" transform="translate(279)">
    Machine A + B
   </text>
  </g>
  <g transform="translate(544,31)" font-family="Arial" font-size="11" space="preserve" fill="black">
   <path d="M0,0H140V114H0Z" style="fill: white; stroke: black; stroke-width: 1;"></path>
   <text text-anchor="middle" dy=".4em" transform="translate(70,10)">
    h1
   </text>
   <text text-anchor="start" dy=".4em" transform="translate(7,29)">
    Entries
   </text>
   <text text-anchor="end" dy=".4em" transform="translate(133,29)">
    13000
   </text>
   <text text-anchor="start" dy=".4em" transform="translate(7,48)">
    Mean x
   </text>
   <text text-anchor="end" dy=".4em" transform="translate(133,48)">
    1.278e+9
   </text>
   <text text-anchor="start" dy=".4em" transform="translate(7,67)">
    Mean y
   </text>
   <text text-anchor="end" dy=".4em" transform="translate(133,67)">
    550.6
   </text>
   <text text-anchor="start" dy=".4em" transform="translate(7,86)">
    Std Dev x
   </text>
   <text text-anchor="end" dy=".4em" transform="translate(133,86)">
    9698376
   </text>
   <text text-anchor="start" dy=".4em" transform="translate(7,105)">
    Std Dev y
   </text>
   <text text-anchor="end" dy=".4em" transform="translate(133,105)">
    69.28
   </text>
   <path d="M0,19h140" style="stroke: black; stroke-width: 1;"></path>
  </g>
  <g transform="translate(544,31)" font-family="Arial" font-size="12" space="preserve">
   <path d="M0,0H140V114H0Z" style="fill: white; stroke: black; stroke-width: 1;"></path>
   <path d="M4,8v43h27v-43z" style="fill: #ffff00; stroke: #00009a; stroke-width: 1;"></path>
   <text fill="black" text-anchor="start" dy=".4em" transform="translate(35,30)">
    Machine A + B
   </text>
   <path d="M4,62v43h27v-43z" style="fill: #00ff00; stroke: #ff0000; stroke-width: 1;"></path>
   <text fill="black" text-anchor="start" dy=".4em" transform="translate(35,84)">
    Machine B
   </text>
  </g>
 </g>
</svg>