<svg xmlns="http://www.w3.org/2000/svg" width="798" height="575" viewBox="0 0 798 575" preserveAspectRatio="none">
 <path d="M0,0H798V575H0Z" style="fill: white;"></path>
 <g>
  <svg viewBox="0 0 383 276" preserveAspectRatio="none" x="8" y="6" width="383" height="276">
   <path d="M0,0H383V276H0Z" style="fill: white;"></path>
   <g>
    <g transform="translate(38,28)">
     <path d="M0,0H306V221H0Z" style="fill: white; stroke: black; stroke-width: 1;"></path>
     <svg x="0" y="0" overflow="hidden" width="306" height="221" viewBox="0 0 306 221">
      <g>
       <path d="M7,111v1h1v-1zM38,87v40h1v-40zM53,98v27h1v-27zM69,95v31v-31zM84,94v31h1v-31zM98,95v30h3v-30zM112,95v30h5v-30zM126,96v30h8v-30zM141,96v29h9v-29zM156,95v30h9v-30zM172,95v31h8v-31zM189,96v29h5v-29zM205,96v30h3v-30zM222,96v30v-30zM237,96v29h1v-29zM252,91v35h1v-35zM267,95v25h1v-25zM283,96v16v-16z" style="stroke: rgb(0, 0, 154); stroke-width: 1; fill: none;"></path>
       <path d="M7,112h1M7,111h1M7,113h1M8,111M8,112v1M38,102h1M38,46h1M38,157h1M39,87v-41M39,127v30M53,109h1M53,69h1M53,161h1M54,98v-29M54,125v36M69,111M69,46M69,170M69,95v-49M69,126v44M84,110h1M84,51h1M84,172h1M85,94v-43M85,125v47M98,110h3M98,46h3M98,170h3M100,95v-49M100,125v45M112,111h5M112,46h5M112,170h5M115,95v-49M115,125v45M126,111h8M126,46h8M126,172h8M130,96v-50M130,126v46M141,110h9M141,49h9M141,170h9M146,96v-47M146,125v45M156,110h9M156,46h9M156,170h9M161,95v-49M161,125v45M172,110h8M172,46h8M172,172h8M176,95v-49M176,126v46M189,110h5M189,49h5M189,170h5M192,96v-47M192,125v45M205,111h3M205,49h3M205,172h3M207,96v-47M207,126v46M222,111M222,51M222,172M222,96v-45M222,126v46M237,112h1M237,55h1M237,168h1M238,96v-41M238,125v43M252,111h1M252,53h1M252,146h1M253,91v-38M253,126v20M267,107h1M267,66h1M267,150h1M268,95v-29M268,120v30M283,104M283,95M283,113M283,96v-1M283,112v1" style="stroke: rgb(0, 0, 154); stroke-width: 1; fill: none;"></path>
       <path d="M7,112h1M38,106h1M53,112h1M69,109M84,110h1M98,110h3M112,110h5M126,111h8M141,110h9M156,110h9M172,110h8M189,111h5M205,111h3M222,110M237,111h1M252,108h1M267,108h1M283,104" style="stroke: rgb(0, 0, 154); stroke-width: 1; stroke-dasharray: 3, 3; fill: none;"></path>
       <path d="M51,170l6,6m0,-6l-6,6M51,168l6,6m0,-6l-6,6M51,49l6,6m0,-6l-6,6M66,40l6,6m0,-6l-6,6M82,178l6,6m0,-6l-6,6M82,177l6,6m0,-6l-6,6M82,175l6,6m0,-6l-6,6M82,175l6,6m0,-6l-6,6M82,174l6,6m0,-6l-6,6M82,172l6,6m0,-6l-6,6M82,170l6,6m0,-6l-6,6M82,171l6,6m0,-6l-6,6M82,172l6,6m0,-6l-6,6M82,40l6,6m0,-6l-6,6M82,27l6,6m0,-6l-6,6M82,22l6,6m0,-6l-6,6M97,197l6,6m0,-6l-6,6M97,182l6,6m0,-6l-6,6M97,179l6,6m0,-6l-6,6M97,178l6,6m0,-6l-6,6M97,177l6,6m0,-6l-6,6M97,173l6,6m0,-6l-6,6M97,172l6,6m0,-6l-6,6M97,174l6,6m0,-6l-6,6M97,172l6,6m0,-6l-6,6M97,172l6,6m0,-6l-6,6M97,171l6,6m0,-6l-6,6M97,172l6,6m0,-6l-6,6M97,167l6,6m0,-6l-6,6M97,167l6,6m0,-6l-6,6M97,169l6,6m0,-6l-6,6M97,43l6,6m0,-6l-6,6M97,42l6,6m0,-6l-6,6M97,42l6,6m0,-6l-6,6M97,40l6,6m0,-6l-6,6M97,40l6,6m0,-6l-6,6M97,36l6,6m0,-6l-6,6M97,31l6,6m0,-6l-6,6M112,195l6,6m0,-6l-6,6M112,187l6,6m0,-6l-6,6M112,186l6,6m0,-6l-6,6M112,182l6,6m0,-6l-6,6M112,181l6,6m0,-6l-6,6M112,182l6,6m0,-6l-6,6M112,179l6,6m0,-6l-6,6M112,177l6,6m0,-6l-6,6M112,175l6,6m0,-6l-6,6M112,172l6,6m0,-6l-6,6M112,172l6,6m0,-6l-6,6M112,173l6,6m0,-6l-6,6M112,174l6,6m0,-6l-6,6M112,170l6,6m0,-6l-6,6M112,170l6,6m0,-6l-6,6M112,171l6,6m0,-6l-6,6M112,171l6,6m0,-6l-6,6M112,170l6,6m0,-6l-6,6M112,170l6,6m0,-6l-6,6M112,171l6,6m0,-6l-6,6M112,171l6,6m0,-6l-6,6M112,169l6,6m0,-6l-6,6M112,169l6,6m0,-6l-6,6M112,167l6,6m0,-6l-6,6M112,169l6,6m0,-6l-6,6M112,169l6,6m0,-6l-6,6M112,169l6,6m0,-6l-6,6M112,169l6,6m0,-6l-6,6M112,168l6,6m0,-6l-6,6M112,169l6,6m0,-6l-6,6M112,168l6,6m0,-6l-6,6M112,168l6,6m0,-6l-6,6M112,169l6,6m0,-6l-6,6M112,42l6,6m0,-6l-6,6M112,43l6,6m0,-6l-6,6M112,43l6,6m0,-6l-6,6M112,43l6,6m0,-6l-6,6M112,38l6,6m0,-6l-6,6M112,38l6,6m0,-6l-6,6M112,34l6,6m0,-6l-6,6M112,34l6,6m0,-6l-6,6M112,29l6,6m0,-6l-6,6M112,18l6,6m0,-6l-6,6M112,11l6,6m0,-6l-6,6M127,199l6,6m0,-6l-6,6M127,193l6,6m0,-6l-6,6M127,184l6,6m0,-6l-6,6M127,182l6,6m0,-6l-6,6M127,180l6,6m0,-6l-6,6M127,179l6,6m0,-6l-6,6M127,180l6,6m0,-6l-6,6M127,177l6,6m0,-6l-6,6M127,178l6,6m0,-6l-6,6M127,177l6,6m0,-6l-6,6M127,177l6,6m0,-6l-6,6M127,177l6,6m0,-6l-6,6M127,178l6,6m0,-6l-6,6M127,174l6,6m0,-6l-6,6M127,174l6,6m0,-6l-6,6M127,176l6,6m0,-6l-6,6M127,176l6,6m0,-6l-6,6M127,175l6,6m0,-6l-6,6M127,174l6,6m0,-6l-6,6M127,173l6,6m0,-6l-6,6M127,173l6,6m0,-6l-6,6M127,173l6,6m0,-6l-6,6M127,173l6,6m0,-6l-6,6M127,169l6,6m0,-6l-6,6M127,171l6,6m0,-6l-6,6M127,171l6,6m0,-6l-6,6M127,171l6,6m0,-6l-6,6M127,171l6,6m0,-6l-6,6M127,170l6,6m0,-6l-6,6M127,171l6,6m0,-6l-6,6M127,170l6,6m0,-6l-6,6M127,170l6,6m0,-6l-6,6M127,171l6,6m0,-6l-6,6M127,170l6,6m0,-6l-6,6M127,171l6,6m0,-6l-6,6M127,43l6,6m0,-6l-6,6M127,43l6,6m0,-6l-6,6M127,42l6,6m0,-6l-6,6M127,42l6,6m0,-6l-6,6M127,42l6,6m0,-6l-6,6M127,43l6,6m0,-6l-6,6M127,43l6,6m0,-6l-6,6M127,43l6,6m0,-6l-6,6M127,39l6,6m0,-6l-6,6M127,39l6,6m0,-6l-6,6M127,38l6,6m0,-6l-6,6M127,37l6,6m0,-6l-6,6M127,39l6,6m0,-6l-6,6M127,39l6,6m0,-6l-6,6M127,39l6,6m0,-6l-6,6M127,36l6,6m0,-6l-6,6M127,34l6,6m0,-6l-6,6M127,34l6,6m0,-6l-6,6M127,31l6,6m0,-6l-6,6M127,29l6,6m0,-6l-6,6M127,27l6,6m0,-6l-6,6M127,25l6,6m0,-6l-6,6M127,14l6,6m0,-6l-6,6M143,204l6,6m0,-6l-6,6M143,193l6,6m0,-6l-6,6M143,190l6,6m0,-6l-6,6M143,186l6,6m0,-6l-6,6M143,182l6,6m0,-6l-6,6M143,181l6,6m0,-6l-6,6M143,182l6,6m0,-6l-6,6M143,181l6,6m0,-6l-6,6M143,179l6,6m0,-6l-6,6M143,178l6,6m0,-6l-6,6M143,177l6,6m0,-6l-6,6M143,177l6,6m0,-6l-6,6M143,177l6,6m0,-6l-6,6M143,178l6,6m0,-6l-6,6M143,174l6,6m0,-6l-6,6M143,174l6,6m0,-6l-6,6M143,176l6,6m0,-6l-6,6M143,176l6,6m0,-6l-6,6M143,175l6,6m0,-6l-6,6M143,172l6,6m0,-6l-6,6M143,173l6,6m0,-6l-6,6M143,173l6,6m0,-6l-6,6M143,173l6,6m0,-6l-6,6M143,173l6,6m0,-6l-6,6M143,172l6,6m0,-6l-6,6M143,174l6,6m0,-6l-6,6M143,174l6,6m0,-6l-6,6M143,173l6,6m0,-6l-6,6M143,174l6,6m0,-6l-6,6M143,172l6,6m0,-6l-6,6M143,173l6,6m0,-6l-6,6M143,170l6,6m0,-6l-6,6M143,170l6,6m0,-6l-6,6M143,171l6,6m0,-6l-6,6M143,170l6,6m0,-6l-6,6M143,171l6,6m0,-6l-6,6M143,171l6,6m0,-6l-6,6M143,171l6,6m0,-6l-6,6M143,170l6,6m0,-6l-6,6M143,170l6,6m0,-6l-6,6M143,171l6,6m0,-6l-6,6M143,171l6,6m0,-6l-6,6M143,171l6,6m0,-6l-6,6M143,171l6,6m0,-6l-6,6M143,170l6,6m0,-6l-6,6M143,170l6,6m0,-6l-6,6M143,168l6,6m0,-6l-6,6M143,168l6,6m0,-6l-6,6M143,169l6,6m0,-6l-6,6M143,169l6,6m0,-6l-6,6M143,169l6,6m0,-6l-6,6M143,169l6,6m0,-6l-6,6M143,169l6,6m0,-6l-6,6M143,169l6,6m0,-6l-6,6M143,169l6,6m0,-6l-6,6M143,167l6,6m0,-6l-6,6M143,167l6,6m0,-6l-6,6M143,169l6,6m0,-6l-6,6M143,168l6,6m0,-6l-6,6M143,169l6,6m0,-6l-6,6M143,168l6,6m0,-6l-6,6M143,168l6,6m0,-6l-6,6M143,169l6,6m0,-6l-6,6M143,169l6,6m0,-6l-6,6M143,167l6,6m0,-6l-6,6M143,168l6,6m0,-6l-6,6M143,46l6,6m0,-6l-6,6M143,44l6,6m0,-6l-6,6M143,45l6,6m0,-6l-6,6M143,45l6,6m0,-6l-6,6M143,44l6,6m0,-6l-6,6M143,45l6,6m0,-6l-6,6M143,45l6,6m0,-6l-6,6M143,45l6,6m0,-6l-6,6M143,44l6,6m0,-6l-6,6M143,44l6,6m0,-6l-6,6M143,45l6,6m0,-6l-6,6M143,44l6,6m0,-6l-6,6M143,45l6,6m0,-6l-6,6M143,45l6,6m0,-6l-6,6M143,43l6,6m0,-6l-6,6M143,42l6,6m0,-6l-6,6M143,43l6,6m0,-6l-6,6M143,41l6,6m0,-6l-6,6M143,42l6,6m0,-6l-6,6M143,43l6,6m0,-6l-6,6M143,42l6,6m0,-6l-6,6M143,41l6,6m0,-6l-6,6M143,39l6,6m0,-6l-6,6M143,40l6,6m0,-6l-6,6M143,39l6,6m0,-6l-6,6M143,41l6,6m0,-6l-6,6M143,40l6,6m0,-6l-6,6M143,40l6,6m0,-6l-6,6M143,40l6,6m0,-6l-6,6M143,40l6,6m0,-6l-6,6M143,40l6,6m0,-6l-6,6M143,40l6,6m0,-6l-6,6M143,40l6,6m0,-6l-6,6M143,41l6,6m0,-6l-6,6M143,41l6,6m0,-6l-6,6M143,37l6,6m0,-6l-6,6M143,39l6,6m0,-6l-6,6M143,38l6,6m0,-6l-6,6M143,38l6,6m0,-6l-6,6M143,37l6,6m0,-6l-6,6M143,38l6,6m0,-6l-6,6M143,39l6,6m0,-6l-6,6M143,36l6,6m0,-6l-6,6M143,36l6,6m0,-6l-6,6M143,35l6,6m0,-6l-6,6M143,35l6,6m0,-6l-6,6M143,36l6,6m0,-6l-6,6M143,33l6,6m0,-6l-6,6M143,34l6,6m0,-6l-6,6M143,34l6,6m0,-6l-6,6M143,34l6,6m0,-6l-6,6M143,27l6,6m0,-6l-6,6M143,25l6,6m0,-6l-6,6M143,22l6,6m0,-6l-6,6M158,215l6,6m0,-6l-6,6M158,190l6,6m0,-6l-6,6M158,186l6,6m0,-6l-6,6M158,184l6,6m0,-6l-6,6M158,184l6,6m0,-6l-6,6M158,184l6,6m0,-6l-6,6M158,182l6,6m0,-6l-6,6M158,179l6,6m0,-6l-6,6M158,180l6,6m0,-6l-6,6M158,179l6,6m0,-6l-6,6M158,179l6,6m0,-6l-6,6M158,179l6,6m0,-6l-6,6M158,180l6,6m0,-6l-6,6M158,179l6,6m0,-6l-6,6M158,178l6,6m0,-6l-6,6M158,177l6,6m0,-6l-6,6M158,176l6,6m0,-6l-6,6M158,176l6,6m0,-6l-6,6M158,175l6,6m0,-6l-6,6M158,174l6,6m0,-6l-6,6M158,175l6,6m0,-6l-6,6M158,173l6,6m0,-6l-6,6M158,173l6,6m0,-6l-6,6M158,173l6,6m0,-6l-6,6M158,172l6,6m0,-6l-6,6M158,174l6,6m0,-6l-6,6M158,174l6,6m0,-6l-6,6M158,173l6,6m0,-6l-6,6M158,174l6,6m0,-6l-6,6M158,172l6,6m0,-6l-6,6M158,171l6,6m0,-6l-6,6M158,170l6,6m0,-6l-6,6M158,170l6,6m0,-6l-6,6M158,171l6,6m0,-6l-6,6M158,170l6,6m0,-6l-6,6M158,171l6,6m0,-6l-6,6M158,171l6,6m0,-6l-6,6M158,171l6,6m0,-6l-6,6M158,170l6,6m0,-6l-6,6M158,170l6,6m0,-6l-6,6M158,168l6,6m0,-6l-6,6M158,169l6,6m0,-6l-6,6M158,169l6,6m0,-6l-6,6M158,169l6,6m0,-6l-6,6M158,167l6,6m0,-6l-6,6M158,168l6,6m0,-6l-6,6M158,168l6,6m0,-6l-6,6M158,168l6,6m0,-6l-6,6M158,169l6,6m0,-6l-6,6M158,169l6,6m0,-6l-6,6M158,169l6,6m0,-6l-6,6M158,169l6,6m0,-6l-6,6M158,169l6,6m0,-6l-6,6M158,169l6,6m0,-6l-6,6M158,169l6,6m0,-6l-6,6M158,167l6,6m0,-6l-6,6M158,167l6,6m0,-6l-6,6M158,43l6,6m0,-6l-6,6M158,42l6,6m0,-6l-6,6M158,43l6,6m0,-6l-6,6M158,42l6,6m0,-6l-6,6M158,42l6,6m0,-6l-6,6M158,43l6,6m0,-6l-6,6M158,43l6,6m0,-6l-6,6M158,41l6,6m0,-6l-6,6M158,42l6,6m0,-6l-6,6M158,43l6,6m0,-6l-6,6M158,42l6,6m0,-6l-6,6M158,43l6,6m0,-6l-6,6M158,43l6,6m0,-6l-6,6M158,41l6,6m0,-6l-6,6M158,43l6,6m0,-6l-6,6M158,43l6,6m0,-6l-6,6M158,43l6,6m0,-6l-6,6M158,39l6,6m0,-6l-6,6M158,39l6,6m0,-6l-6,6M158,40l6,6m0,-6l-6,6M158,40l6,6m0,-6l-6,6M158,41l6,6m0,-6l-6,6M158,39l6,6m0,-6l-6,6M158,38l6,6m0,-6l-6,6M158,38l6,6m0,-6l-6,6M158,39l6,6m0,-6l-6,6M158,35l6,6m0,-6l-6,6M158,35l6,6m0,-6l-6,6M158,37l6,6m0,-6l-6,6M158,33l6,6m0,-6l-6,6M158,34l6,6m0,-6l-6,6M158,29l6,6m0,-6l-6,6M158,27l6,6m0,-6l-6,6M158,20l6,6m0,-6l-6,6M173,189l6,6m0,-6l-6,6M173,188l6,6m0,-6l-6,6M173,186l6,6m0,-6l-6,6M173,182l6,6m0,-6l-6,6M173,180l6,6m0,-6l-6,6M173,179l6,6m0,-6l-6,6M173,180l6,6m0,-6l-6,6M173,179l6,6m0,-6l-6,6M173,177l6,6m0,-6l-6,6M173,177l6,6m0,-6l-6,6M173,176l6,6m0,-6l-6,6M173,174l6,6m0,-6l-6,6M173,174l6,6m0,-6l-6,6M173,176l6,6m0,-6l-6,6M173,173l6,6m0,-6l-6,6M173,172l6,6m0,-6l-6,6M173,172l6,6m0,-6l-6,6M173,173l6,6m0,-6l-6,6M173,173l6,6m0,-6l-6,6M173,173l6,6m0,-6l-6,6M173,173l6,6m0,-6l-6,6M173,172l6,6m0,-6l-6,6M173,171l6,6m0,-6l-6,6M173,171l6,6m0,-6l-6,6M173,171l6,6m0,-6l-6,6M173,171l6,6m0,-6l-6,6M173,170l6,6m0,-6l-6,6M173,171l6,6m0,-6l-6,6M173,170l6,6m0,-6l-6,6M173,170l6,6m0,-6l-6,6M173,171l6,6m0,-6l-6,6M173,170l6,6m0,-6l-6,6M173,171l6,6m0,-6l-6,6M173,171l6,6m0,-6l-6,6M173,171l6,6m0,-6l-6,6M173,42l6,6m0,-6l-6,6M173,42l6,6m0,-6l-6,6M173,42l6,6m0,-6l-6,6M173,43l6,6m0,-6l-6,6M173,43l6,6m0,-6l-6,6M173,43l6,6m0,-6l-6,6M173,42l6,6m0,-6l-6,6M173,42l6,6m0,-6l-6,6M173,42l6,6m0,-6l-6,6M173,40l6,6m0,-6l-6,6M173,41l6,6m0,-6l-6,6M173,41l6,6m0,-6l-6,6M173,41l6,6m0,-6l-6,6M173,39l6,6m0,-6l-6,6M173,38l6,6m0,-6l-6,6M173,39l6,6m0,-6l-6,6M173,39l6,6m0,-6l-6,6M173,37l6,6m0,-6l-6,6M173,37l6,6m0,-6l-6,6M173,39l6,6m0,-6l-6,6M173,37l6,6m0,-6l-6,6M173,36l6,6m0,-6l-6,6M173,36l6,6m0,-6l-6,6M173,33l6,6m0,-6l-6,6M173,34l6,6m0,-6l-6,6M173,32l6,6m0,-6l-6,6M173,30l6,6m0,-6l-6,6M173,31l6,6m0,-6l-6,6M173,26l6,6m0,-6l-6,6M173,24l6,6m0,-6l-6,6M173,21l6,6m0,-6l-6,6M173,21l6,6m0,-6l-6,6M173,18l6,6m0,-6l-6,6M189,193l6,6m0,-6l-6,6M189,184l6,6m0,-6l-6,6M189,177l6,6m0,-6l-6,6M189,175l6,6m0,-6l-6,6M189,175l6,6m0,-6l-6,6M189,175l6,6m0,-6l-6,6M189,175l6,6m0,-6l-6,6M189,176l6,6m0,-6l-6,6M189,174l6,6m0,-6l-6,6M189,172l6,6m0,-6l-6,6M189,173l6,6m0,-6l-6,6M189,174l6,6m0,-6l-6,6M189,172l6,6m0,-6l-6,6M189,170l6,6m0,-6l-6,6M189,171l6,6m0,-6l-6,6M189,171l6,6m0,-6l-6,6M189,170l6,6m0,-6l-6,6M189,170l6,6m0,-6l-6,6M189,171l6,6m0,-6l-6,6M189,168l6,6m0,-6l-6,6M189,169l6,6m0,-6l-6,6M189,169l6,6m0,-6l-6,6M189,167l6,6m0,-6l-6,6M189,169l6,6m0,-6l-6,6M189,169l6,6m0,-6l-6,6M189,169l6,6m0,-6l-6,6M189,169l6,6m0,-6l-6,6M189,168l6,6m0,-6l-6,6M189,169l6,6m0,-6l-6,6M189,168l6,6m0,-6l-6,6M189,45l6,6m0,-6l-6,6M189,42l6,6m0,-6l-6,6M189,43l6,6m0,-6l-6,6M189,42l6,6m0,-6l-6,6M189,43l6,6m0,-6l-6,6M189,40l6,6m0,-6l-6,6M189,39l6,6m0,-6l-6,6M189,39l6,6m0,-6l-6,6M189,38l6,6m0,-6l-6,6M189,38l6,6m0,-6l-6,6M189,36l6,6m0,-6l-6,6M189,34l6,6m0,-6l-6,6M189,34l6,6m0,-6l-6,6M189,25l6,6m0,-6l-6,6M189,22l6,6m0,-6l-6,6M204,184l6,6m0,-6l-6,6M204,182l6,6m0,-6l-6,6M204,181l6,6m0,-6l-6,6M204,182l6,6m0,-6l-6,6M204,179l6,6m0,-6l-6,6M204,177l6,6m0,-6l-6,6M204,175l6,6m0,-6l-6,6M204,170l6,6m0,-6l-6,6M204,171l6,6m0,-6l-6,6M204,170l6,6m0,-6l-6,6M204,170l6,6m0,-6l-6,6M204,45l6,6m0,-6l-6,6M204,42l6,6m0,-6l-6,6M204,43l6,6m0,-6l-6,6M204,41l6,6m0,-6l-6,6M204,41l6,6m0,-6l-6,6M204,41l6,6m0,-6l-6,6M204,41l6,6m0,-6l-6,6M204,40l6,6m0,-6l-6,6M204,39l6,6m0,-6l-6,6M204,38l6,6m0,-6l-6,6M204,38l6,6m0,-6l-6,6M204,39l6,6m0,-6l-6,6M204,36l6,6m0,-6l-6,6M204,29l6,6m0,-6l-6,6M204,22l6,6m0,-6l-6,6M219,184l6,6m0,-6l-6,6M219,173l6,6m0,-6l-6,6M219,170l6,6m0,-6l-6,6M219,43l6,6m0,-6l-6,6M219,42l6,6m0,-6l-6,6M219,43l6,6m0,-6l-6,6M219,40l6,6m0,-6l-6,6M219,41l6,6m0,-6l-6,6M219,40l6,6m0,-6l-6,6M219,37l6,6m0,-6l-6,6M219,38l6,6m0,-6l-6,6M235,188l6,6m0,-6l-6,6M235,173l6,6m0,-6l-6,6M235,171l6,6m0,-6l-6,6M235,170l6,6m0,-6l-6,6M235,169l6,6m0,-6l-6,6M235,168l6,6m0,-6l-6,6" style="stroke: rgb(0, 0, 154); fill: none;"></path>
      </g>
     </svg>
     <g>
      <g transform="translate(0,221)">
       <path d="M0,0h306M0,-7V0M6,-4V0M12,-4V0M18,-4V0M24,-4V0M31,-7V0M37,-4V0M43,-4V0M49,-4V0M55,-4V0M61,-7V0M67,-4V0M73,-4V0M80,-4V0M86,-4V0M92,-7V0M98,-4V0M104,-4V0M110,-4V0M116,-4V0M122,-7V0M129,-4V0M135,-4V0M141,-4V0M147,-4V0M153,-7V0M159,-4V0M165,-4V0M171,-4V0M177,-4V0M184,-7V0M190,-4V0M196,-4V0M202,-4V0M208,-4V0M214,-7V0M220,-4V0M226,-4V0M233,-4V0M239,-4V0M245,-7V0M251,-4V0M257,-4V0M263,-4V0M269,-4V0M275,-7V0M282,-4V0M288,-4V0M294,-4V0M300,-4V0M306,-7V0" style="stroke: black; stroke-width: 1;"></path>
       <g font-family="Arial" font-size="10" xml:space="preserve" fill="black" text-anchor="middle"><text dy=".8em" transform="translate(0,2)">-5</text><text dy=".8em" transform="translate(31,2)">-4</text><text dy=".8em" transform="translate(61,2)">-3</text><text dy=".8em" transform="translate(92,2)">-2</text><text dy=".8em" transform="translate(122,2)">-1</text><text dy=".8em" transform="translate(153,2)">0</text><text dy=".8em" transform="translate(184,2)">1</text><text dy=".8em" transform="translate(214,2)">2</text><text dy=".8em" transform="translate(245,2)">3</text><text dy=".8em" transform="translate(275,2)">4</text><text dy=".8em" transform="translate(306,2)">5</text></g>
      </g>
      <g>
       <path d="M0,0v221M9,221H0M5,217H0M5,212H0M5,208H0M5,203H0M9,199H0M5,194H0M5,190H0M5,186H0M5,181H0M9,177H0M5,172H0M5,168H0M5,164H0M5,159H0M9,155H0M5,150H0M5,146H0M5,141H0M5,137H0M9,133H0M5,128H0M5,124H0M5,119H0M5,115H0M9,111H0M5,106H0M5,102H0M5,97H0M5,93H0M9,88H0M5,84H0M5,80H0M5,75H0M5,71H0M9,66H0M5,62H0M5,57H0M5,53H0M5,49H0M9,44H0M5,40H0M5,35H0M5,31H0M5,27H0M9,22H0M5,18H0M5,13H0M5,9H0M5,4H0M9,0H0" style="stroke: black; stroke-width: 1;"></path>
       <g font-family="Arial" font-size="10" xml:space="preserve" fill="black" text-anchor="end"><text dominant-baseline="middle" transform="translate(-2,221)">-5</text><text dominant-baseline="middle" transform="translate(-2,199)">-4</text><text dominant-baseline="middle" transform="translate(-2,177)">-3</text><text dominant-baseline="middle" transform="translate(-2,155)">-2</text><text dominant-baseline="middle" transform="translate(-2,133)">-1</text><text dominant-baseline="middle" transform="translate(-2,111)">0</text><text dominant-baseline="middle" transform="translate(-2,88)">1</text><text dominant-baseline="middle" transform="translate(-2,66)">2</text><text dominant-baseline="middle" transform="translate(-2,44)">3</text><text dominant-baseline="middle" transform="translate(-2,22)">4</text><text dominant-baseline="middle" transform="translate(-2)">5</text></g>
      </g>
     </g>
    </g>
    <g transform="translate(299,18)" font-family="Arial" font-size="9" xml:space="preserve" fill="black"><path d="M0,0H77V66H0Z" style="fill: white; stroke: black; stroke-width: 1;"></path><text text-anchor="middle" dominant-baseline="middle" transform="translate(39,6)">h1_copy</text><text text-anchor="start" dominant-baseline="middle" transform="translate(4,17)">Entries</text><text text-anchor="end" dominant-baseline="middle" transform="translate(73,17)">100000</text><text text-anchor="start" dominant-baseline="middle" transform="translate(4,28)">Mean x</text><text text-anchor="end" dominant-baseline="middle" transform="translate(73,28)">-0.004002</text><text text-anchor="start" dominant-baseline="middle" transform="translate(4,39)">Mean y</text><text text-anchor="end" dominant-baseline="middle" transform="translate(73,39)">0.003930</text><text text-anchor="start" dominant-baseline="middle" transform="translate(4,50)">Std Dev x</text><text text-anchor="end" dominant-baseline="middle" transform="translate(73,50)">0.9997</text><text text-anchor="start" dominant-baseline="middle" transform="translate(4,61)">Std Dev y</text><text text-anchor="end" dominant-baseline="middle" transform="translate(73,61)">1.002</text><path d="M0,11h77" style="stroke: black; stroke-width: 1;"></path></g>
    <g transform="translate(38,1)" font-family="Arial" font-size="14" xml:space="preserve"><text fill="black" text-anchor="middle" dy=".8em" transform="translate(153)">CandleX scaled</text></g>
   </g>
  </svg>
  <svg viewBox="0 0 383 276" preserveAspectRatio="none" x="407" y="6" width="383" height="276">
   <path d="M0,0H383V276H0Z" style="fill: white;"></path>
   <g>
    <g transform="translate(38,28)">
     <path d="M0,0H306V221H0Z" style="fill: white; stroke: black; stroke-width: 1;"></path>
     <svg x="0" y="0" overflow="hidden" width="306" height="221" viewBox="0 0 306 221">
      <g>
       <path d="M155,215h-1v1h1zM142,204h-42v1h42zM176,193h-46v1h46zM175,182h-44v1h44zM174,171h-43v1h43zM172,160h-39v1h39zM174,149h-41v1h41zM174,137h-41v3h41zM174,125h-43v5h43zM173,113h-41v7h41zM174,101h-41v8h41zM173,91h-41v5h41zM173,81h-40v3h40zM174,71h-42v1h42zM174,60h-42v1h42zM174,49h-42v1h42zM179,38h-39v1h39zM181,27h-48v1h48zM147,16h-29v1h29z" style="stroke: rgb(0, 0, 154); stroke-width: 1; fill: none;"></path>
       <path d="M155,215v1M156,215v1M153,215v1M155,216h1M154,216h-1M127,204v1M144,204v1M98,204v1M142,205h2M100,205h-2M158,193v1M236,193v1M107,193v1M176,194h60M130,194h-23M153,182v1M223,182v1M77,182v1M175,183h48M131,183h-54M152,171v1M239,171v1M67,171v1M174,172h65M131,172h-64M153,160v1M236,160v1M73,160v1M172,161h64M133,161h-60M153,149v1M239,149v1M70,149v1M174,150h65M133,150h-63M154,137v3M242,137v3M70,137v3M174,139h68M133,139h-63M153,125v5M242,125v5M67,125v5M174,128h68M131,128h-64M152,113v7M239,113v7M70,113v7M173,117h66M132,117h-62M153,101v8M239,101v8M70,101v8M174,105h65M133,105h-63M152,91v5M239,91v5M67,91v5M173,94h66M132,94h-65M153,81v3M239,81v3M70,81v3M173,83h66M133,83h-63M153,71v1M242,71v1M67,71v1M174,72h68M132,72h-65M153,60v1M242,60v1M67,60v1M174,61h68M132,61h-65M153,49v1M223,49v1M70,49v1M174,50h49M132,50h-62M154,38v1M226,38v1M89,38v1M179,39h47M140,39h-51M158,27v1M211,27v1M86,27v1M181,28h30M133,28h-47M121,16v1M171,16v1M116,16v1M147,17h24M118,17h-2" style="stroke: rgb(0, 0, 154); stroke-width: 1; fill: none;"></path>
       <path d="M155,215v1M123,204v1M156,193v1M152,182v1M153,171v1M152,160v1M153,149v1M154,137v3M153,125v5M153,113v7M153,101v8M152,91v5M153,81v3M153,71v1M153,60v1M152,49v1M159,38v1M155,27v1M132,16v1" style="stroke: rgb(0, 0, 154); stroke-width: 1; stroke-dasharray: 3, 3; fill: none;"></path>
       <path d="M54,169l6,6m0,-6l-6,6M57,169l6,6m0,-6l-6,6M60,169l6,6m0,-6l-6,6M240,169l6,6m0,-6l-6,6M41,158l6,6m0,-6l-6,6M57,158l6,6m0,-6l-6,6M66,158l6,6m0,-6l-6,6M69,158l6,6m0,-6l-6,6M233,158l6,6m0,-6l-6,6M234,158l6,6m0,-6l-6,6M237,158l6,6m0,-6l-6,6M238,158l6,6m0,-6l-6,6M240,158l6,6m0,-6l-6,6M41,147l6,6m0,-6l-6,6M53,147l6,6m0,-6l-6,6M54,147l6,6m0,-6l-6,6M56,147l6,6m0,-6l-6,6M57,147l6,6m0,-6l-6,6M58,147l6,6m0,-6l-6,6M60,147l6,6m0,-6l-6,6M60,147l6,6m0,-6l-6,6M63,147l6,6m0,-6l-6,6M61,147l6,6m0,-6l-6,6M64,147l6,6m0,-6l-6,6M64,147l6,6m0,-6l-6,6M62,147l6,6m0,-6l-6,6M66,147l6,6m0,-6l-6,6M236,147l6,6m0,-6l-6,6M238,147l6,6m0,-6l-6,6M238,147l6,6m0,-6l-6,6M237,147l6,6m0,-6l-6,6M240,147l6,6m0,-6l-6,6M239,147l6,6m0,-6l-6,6M249,147l6,6m0,-6l-6,6M251,147l6,6m0,-6l-6,6M259,147l6,6m0,-6l-6,6M38,136l6,6m0,-6l-6,6M44,136l6,6m0,-6l-6,6M47,136l6,6m0,-6l-6,6M48,136l6,6m0,-6l-6,6M50,136l6,6m0,-6l-6,6M51,136l6,6m0,-6l-6,6M49,136l6,6m0,-6l-6,6M54,136l6,6m0,-6l-6,6M54,136l6,6m0,-6l-6,6M54,136l6,6m0,-6l-6,6M52,136l6,6m0,-6l-6,6M58,136l6,6m0,-6l-6,6M58,136l6,6m0,-6l-6,6M56,136l6,6m0,-6l-6,6M59,136l6,6m0,-6l-6,6M60,136l6,6m0,-6l-6,6M61,136l6,6m0,-6l-6,6M60,136l6,6m0,-6l-6,6M63,136l6,6m0,-6l-6,6M62,136l6,6m0,-6l-6,6M62,136l6,6m0,-6l-6,6M64,136l6,6m0,-6l-6,6M62,136l6,6m0,-6l-6,6M62,136l6,6m0,-6l-6,6M62,136l6,6m0,-6l-6,6M65,136l6,6m0,-6l-6,6M67,136l6,6m0,-6l-6,6M65,136l6,6m0,-6l-6,6M67,136l6,6m0,-6l-6,6M67,136l6,6m0,-6l-6,6M65,136l6,6m0,-6l-6,6M66,136l6,6m0,-6l-6,6M239,136l6,6m0,-6l-6,6M239,136l6,6m0,-6l-6,6M239,136l6,6m0,-6l-6,6M240,136l6,6m0,-6l-6,6M243,136l6,6m0,-6l-6,6M243,136l6,6m0,-6l-6,6M242,136l6,6m0,-6l-6,6M246,136l6,6m0,-6l-6,6M249,136l6,6m0,-6l-6,6M252,136l6,6m0,-6l-6,6M252,136l6,6m0,-6l-6,6M254,136l6,6m0,-6l-6,6M256,136l6,6m0,-6l-6,6M259,136l6,6m0,-6l-6,6M29,125l6,6m0,-6l-6,6M32,125l6,6m0,-6l-6,6M41,125l6,6m0,-6l-6,6M42,125l6,6m0,-6l-6,6M44,125l6,6m0,-6l-6,6M45,125l6,6m0,-6l-6,6M43,125l6,6m0,-6l-6,6M45,125l6,6m0,-6l-6,6M47,125l6,6m0,-6l-6,6M51,125l6,6m0,-6l-6,6M51,125l6,6m0,-6l-6,6M52,125l6,6m0,-6l-6,6M55,125l6,6m0,-6l-6,6M55,125l6,6m0,-6l-6,6M52,125l6,6m0,-6l-6,6M53,125l6,6m0,-6l-6,6M57,125l6,6m0,-6l-6,6M58,125l6,6m0,-6l-6,6M57,125l6,6m0,-6l-6,6M56,125l6,6m0,-6l-6,6M59,125l6,6m0,-6l-6,6M59,125l6,6m0,-6l-6,6M61,125l6,6m0,-6l-6,6M58,125l6,6m0,-6l-6,6M59,125l6,6m0,-6l-6,6M59,125l6,6m0,-6l-6,6M58,125l6,6m0,-6l-6,6M60,125l6,6m0,-6l-6,6M59,125l6,6m0,-6l-6,6M64,125l6,6m0,-6l-6,6M64,125l6,6m0,-6l-6,6M62,125l6,6m0,-6l-6,6M63,125l6,6m0,-6l-6,6M61,125l6,6m0,-6l-6,6M61,125l6,6m0,-6l-6,6M61,125l6,6m0,-6l-6,6M63,125l6,6m0,-6l-6,6M240,125l6,6m0,-6l-6,6M240,125l6,6m0,-6l-6,6M239,125l6,6m0,-6l-6,6M240,125l6,6m0,-6l-6,6M240,125l6,6m0,-6l-6,6M241,125l6,6m0,-6l-6,6M241,125l6,6m0,-6l-6,6M240,125l6,6m0,-6l-6,6M241,125l6,6m0,-6l-6,6M239,125l6,6m0,-6l-6,6M239,125l6,6m0,-6l-6,6M242,125l6,6m0,-6l-6,6M242,125l6,6m0,-6l-6,6M243,125l6,6m0,-6l-6,6M242,125l6,6m0,-6l-6,6M242,125l6,6m0,-6l-6,6M245,125l6,6m0,-6l-6,6M245,125l6,6m0,-6l-6,6M242,125l6,6m0,-6l-6,6M244,125l6,6m0,-6l-6,6M243,125l6,6m0,-6l-6,6M243,125l6,6m0,-6l-6,6M244,125l6,6m0,-6l-6,6M245,125l6,6m0,-6l-6,6M245,125l6,6m0,-6l-6,6M248,125l6,6m0,-6l-6,6M249,125l6,6m0,-6l-6,6M248,125l6,6m0,-6l-6,6M250,125l6,6m0,-6l-6,6M248,125l6,6m0,-6l-6,6M248,125l6,6m0,-6l-6,6M251,125l6,6m0,-6l-6,6M249,125l6,6m0,-6l-6,6M255,125l6,6m0,-6l-6,6M255,125l6,6m0,-6l-6,6M257,125l6,6m0,-6l-6,6M257,125l6,6m0,-6l-6,6M259,125l6,6m0,-6l-6,6M271,125l6,6m0,-6l-6,6M2,114l6,6m0,-6l-6,6M41,114l6,6m0,-6l-6,6M44,114l6,6m0,-6l-6,6M45,114l6,6m0,-6l-6,6M44,114l6,6m0,-6l-6,6M48,114l6,6m0,-6l-6,6M46,114l6,6m0,-6l-6,6M48,114l6,6m0,-6l-6,6M48,114l6,6m0,-6l-6,6M51,114l6,6m0,-6l-6,6M49,114l6,6m0,-6l-6,6M52,114l6,6m0,-6l-6,6M55,114l6,6m0,-6l-6,6M52,114l6,6m0,-6l-6,6M53,114l6,6m0,-6l-6,6M54,114l6,6m0,-6l-6,6M58,114l6,6m0,-6l-6,6M57,114l6,6m0,-6l-6,6M56,114l6,6m0,-6l-6,6M59,114l6,6m0,-6l-6,6M59,114l6,6m0,-6l-6,6M61,114l6,6m0,-6l-6,6M58,114l6,6m0,-6l-6,6M59,114l6,6m0,-6l-6,6M59,114l6,6m0,-6l-6,6M58,114l6,6m0,-6l-6,6M60,114l6,6m0,-6l-6,6M62,114l6,6m0,-6l-6,6M64,114l6,6m0,-6l-6,6M64,114l6,6m0,-6l-6,6M62,114l6,6m0,-6l-6,6M63,114l6,6m0,-6l-6,6M61,114l6,6m0,-6l-6,6M61,114l6,6m0,-6l-6,6M61,114l6,6m0,-6l-6,6M63,114l6,6m0,-6l-6,6M63,114l6,6m0,-6l-6,6M63,114l6,6m0,-6l-6,6M61,114l6,6m0,-6l-6,6M62,114l6,6m0,-6l-6,6M62,114l6,6m0,-6l-6,6M64,114l6,6m0,-6l-6,6M64,114l6,6m0,-6l-6,6M63,114l6,6m0,-6l-6,6M63,114l6,6m0,-6l-6,6M65,114l6,6m0,-6l-6,6M64,114l6,6m0,-6l-6,6M65,114l6,6m0,-6l-6,6M64,114l6,6m0,-6l-6,6M65,114l6,6m0,-6l-6,6M65,114l6,6m0,-6l-6,6M65,114l6,6m0,-6l-6,6M67,114l6,6m0,-6l-6,6M67,114l6,6m0,-6l-6,6M65,114l6,6m0,-6l-6,6M67,114l6,6m0,-6l-6,6M65,114l6,6m0,-6l-6,6M66,114l6,6m0,-6l-6,6M66,114l6,6m0,-6l-6,6M236,114l6,6m0,-6l-6,6M236,114l6,6m0,-6l-6,6M239,114l6,6m0,-6l-6,6M237,114l6,6m0,-6l-6,6M236,114l6,6m0,-6l-6,6M238,114l6,6m0,-6l-6,6M236,114l6,6m0,-6l-6,6M236,114l6,6m0,-6l-6,6M239,114l6,6m0,-6l-6,6M237,114l6,6m0,-6l-6,6M236,114l6,6m0,-6l-6,6M237,114l6,6m0,-6l-6,6M241,114l6,6m0,-6l-6,6M242,114l6,6m0,-6l-6,6M240,114l6,6m0,-6l-6,6M240,114l6,6m0,-6l-6,6M239,114l6,6m0,-6l-6,6M239,114l6,6m0,-6l-6,6M240,114l6,6m0,-6l-6,6M240,114l6,6m0,-6l-6,6M239,114l6,6m0,-6l-6,6M241,114l6,6m0,-6l-6,6M241,114l6,6m0,-6l-6,6M242,114l6,6m0,-6l-6,6M243,114l6,6m0,-6l-6,6M243,114l6,6m0,-6l-6,6M244,114l6,6m0,-6l-6,6M243,114l6,6m0,-6l-6,6M245,114l6,6m0,-6l-6,6M242,114l6,6m0,-6l-6,6M246,114l6,6m0,-6l-6,6M250,114l6,6m0,-6l-6,6M250,114l6,6m0,-6l-6,6M250,114l6,6m0,-6l-6,6M253,114l6,6m0,-6l-6,6M252,114l6,6m0,-6l-6,6M253,114l6,6m0,-6l-6,6M255,114l6,6m0,-6l-6,6M254,114l6,6m0,-6l-6,6M261,114l6,6m0,-6l-6,6M263,114l6,6m0,-6l-6,6M261,114l6,6m0,-6l-6,6M265,114l6,6m0,-6l-6,6M274,114l6,6m0,-6l-6,6M35,102l6,6m0,-6l-6,6M44,102l6,6m0,-6l-6,6M45,102l6,6m0,-6l-6,6M44,102l6,6m0,-6l-6,6M45,102l6,6m0,-6l-6,6M46,102l6,6m0,-6l-6,6M48,102l6,6m0,-6l-6,6M48,102l6,6m0,-6l-6,6M47,102l6,6m0,-6l-6,6M46,102l6,6m0,-6l-6,6M49,102l6,6m0,-6l-6,6M52,102l6,6m0,-6l-6,6M49,102l6,6m0,-6l-6,6M50,102l6,6m0,-6l-6,6M51,102l6,6m0,-6l-6,6M55,102l6,6m0,-6l-6,6M54,102l6,6m0,-6l-6,6M53,102l6,6m0,-6l-6,6M53,102l6,6m0,-6l-6,6M53,102l6,6m0,-6l-6,6M55,102l6,6m0,-6l-6,6M52,102l6,6m0,-6l-6,6M56,102l6,6m0,-6l-6,6M56,102l6,6m0,-6l-6,6M55,102l6,6m0,-6l-6,6M57,102l6,6m0,-6l-6,6M56,102l6,6m0,-6l-6,6M57,102l6,6m0,-6l-6,6M58,102l6,6m0,-6l-6,6M56,102l6,6m0,-6l-6,6M57,102l6,6m0,-6l-6,6M55,102l6,6m0,-6l-6,6M58,102l6,6m0,-6l-6,6M58,102l6,6m0,-6l-6,6M60,102l6,6m0,-6l-6,6M60,102l6,6m0,-6l-6,6M59,102l6,6m0,-6l-6,6M58,102l6,6m0,-6l-6,6M59,102l6,6m0,-6l-6,6M59,102l6,6m0,-6l-6,6M61,102l6,6m0,-6l-6,6M61,102l6,6m0,-6l-6,6M60,102l6,6m0,-6l-6,6M63,102l6,6m0,-6l-6,6M61,102l6,6m0,-6l-6,6M61,102l6,6m0,-6l-6,6M62,102l6,6m0,-6l-6,6M61,102l6,6m0,-6l-6,6M62,102l6,6m0,-6l-6,6M62,102l6,6m0,-6l-6,6M62,102l6,6m0,-6l-6,6M64,102l6,6m0,-6l-6,6M64,102l6,6m0,-6l-6,6M62,102l6,6m0,-6l-6,6M64,102l6,6m0,-6l-6,6M62,102l6,6m0,-6l-6,6M63,102l6,6m0,-6l-6,6M63,102l6,6m0,-6l-6,6M62,102l6,6m0,-6l-6,6M65,102l6,6m0,-6l-6,6M67,102l6,6m0,-6l-6,6M66,102l6,6m0,-6l-6,6M64,102l6,6m0,-6l-6,6M67,102l6,6m0,-6l-6,6M65,102l6,6m0,-6l-6,6M65,102l6,6m0,-6l-6,6M67,102l6,6m0,-6l-6,6M65,102l6,6m0,-6l-6,6M65,102l6,6m0,-6l-6,6M237,102l6,6m0,-6l-6,6M238,102l6,6m0,-6l-6,6M239,102l6,6m0,-6l-6,6M237,102l6,6m0,-6l-6,6M237,102l6,6m0,-6l-6,6M236,102l6,6m0,-6l-6,6M236,102l6,6m0,-6l-6,6M237,102l6,6m0,-6l-6,6M237,102l6,6m0,-6l-6,6M236,102l6,6m0,-6l-6,6M238,102l6,6m0,-6l-6,6M238,102l6,6m0,-6l-6,6M236,102l6,6m0,-6l-6,6M237,102l6,6m0,-6l-6,6M237,102l6,6m0,-6l-6,6M238,102l6,6m0,-6l-6,6M237,102l6,6m0,-6l-6,6M238,102l6,6m0,-6l-6,6M236,102l6,6m0,-6l-6,6M237,102l6,6m0,-6l-6,6M241,102l6,6m0,-6l-6,6M241,102l6,6m0,-6l-6,6M241,102l6,6m0,-6l-6,6M240,102l6,6m0,-6l-6,6M241,102l6,6m0,-6l-6,6M243,102l6,6m0,-6l-6,6M242,102l6,6m0,-6l-6,6M243,102l6,6m0,-6l-6,6M245,102l6,6m0,-6l-6,6M242,102l6,6m0,-6l-6,6M243,102l6,6m0,-6l-6,6M246,102l6,6m0,-6l-6,6M247,102l6,6m0,-6l-6,6M246,102l6,6m0,-6l-6,6M249,102l6,6m0,-6l-6,6M252,102l6,6m0,-6l-6,6M251,102l6,6m0,-6l-6,6M256,102l6,6m0,-6l-6,6M259,102l6,6m0,-6l-6,6M260,102l6,6m0,-6l-6,6M32,91l6,6m0,-6l-6,6M35,91l6,6m0,-6l-6,6M41,91l6,6m0,-6l-6,6M42,91l6,6m0,-6l-6,6M44,91l6,6m0,-6l-6,6M47,91l6,6m0,-6l-6,6M50,91l6,6m0,-6l-6,6M51,91l6,6m0,-6l-6,6M49,91l6,6m0,-6l-6,6M51,91l6,6m0,-6l-6,6M51,91l6,6m0,-6l-6,6M51,91l6,6m0,-6l-6,6M52,91l6,6m0,-6l-6,6M55,91l6,6m0,-6l-6,6M58,91l6,6m0,-6l-6,6M56,91l6,6m0,-6l-6,6M56,91l6,6m0,-6l-6,6M57,91l6,6m0,-6l-6,6M58,91l6,6m0,-6l-6,6M57,91l6,6m0,-6l-6,6M56,91l6,6m0,-6l-6,6M56,91l6,6m0,-6l-6,6M56,91l6,6m0,-6l-6,6M58,91l6,6m0,-6l-6,6M55,91l6,6m0,-6l-6,6M59,91l6,6m0,-6l-6,6M59,91l6,6m0,-6l-6,6M58,91l6,6m0,-6l-6,6M60,91l6,6m0,-6l-6,6M59,91l6,6m0,-6l-6,6M61,91l6,6m0,-6l-6,6M61,91l6,6m0,-6l-6,6M62,91l6,6m0,-6l-6,6M63,91l6,6m0,-6l-6,6M61,91l6,6m0,-6l-6,6M61,91l6,6m0,-6l-6,6M61,91l6,6m0,-6l-6,6M237,91l6,6m0,-6l-6,6M237,91l6,6m0,-6l-6,6M237,91l6,6m0,-6l-6,6M236,91l6,6m0,-6l-6,6M237,91l6,6m0,-6l-6,6M237,91l6,6m0,-6l-6,6M238,91l6,6m0,-6l-6,6M238,91l6,6m0,-6l-6,6M237,91l6,6m0,-6l-6,6M241,91l6,6m0,-6l-6,6M239,91l6,6m0,-6l-6,6M239,91l6,6m0,-6l-6,6M239,91l6,6m0,-6l-6,6M239,91l6,6m0,-6l-6,6M240,91l6,6m0,-6l-6,6M239,91l6,6m0,-6l-6,6M239,91l6,6m0,-6l-6,6M245,91l6,6m0,-6l-6,6M245,91l6,6m0,-6l-6,6M242,91l6,6m0,-6l-6,6M244,91l6,6m0,-6l-6,6M243,91l6,6m0,-6l-6,6M243,91l6,6m0,-6l-6,6M244,91l6,6m0,-6l-6,6M242,91l6,6m0,-6l-6,6M245,91l6,6m0,-6l-6,6M248,91l6,6m0,-6l-6,6M246,91l6,6m0,-6l-6,6M248,91l6,6m0,-6l-6,6M250,91l6,6m0,-6l-6,6M251,91l6,6m0,-6l-6,6M251,91l6,6m0,-6l-6,6M254,91l6,6m0,-6l-6,6M258,91l6,6m0,-6l-6,6M258,91l6,6m0,-6l-6,6M268,91l6,6m0,-6l-6,6M280,91l6,6m0,-6l-6,6M32,80l6,6m0,-6l-6,6M41,80l6,6m0,-6l-6,6M47,80l6,6m0,-6l-6,6M50,80l6,6m0,-6l-6,6M51,80l6,6m0,-6l-6,6M53,80l6,6m0,-6l-6,6M54,80l6,6m0,-6l-6,6M55,80l6,6m0,-6l-6,6M57,80l6,6m0,-6l-6,6M60,80l6,6m0,-6l-6,6M60,80l6,6m0,-6l-6,6M61,80l6,6m0,-6l-6,6M64,80l6,6m0,-6l-6,6M64,80l6,6m0,-6l-6,6M62,80l6,6m0,-6l-6,6M62,80l6,6m0,-6l-6,6M63,80l6,6m0,-6l-6,6M64,80l6,6m0,-6l-6,6M63,80l6,6m0,-6l-6,6M63,80l6,6m0,-6l-6,6M65,80l6,6m0,-6l-6,6M65,80l6,6m0,-6l-6,6M67,80l6,6m0,-6l-6,6M65,80l6,6m0,-6l-6,6M65,80l6,6m0,-6l-6,6M65,80l6,6m0,-6l-6,6M65,80l6,6m0,-6l-6,6M238,80l6,6m0,-6l-6,6M237,80l6,6m0,-6l-6,6M238,80l6,6m0,-6l-6,6M238,80l6,6m0,-6l-6,6M236,80l6,6m0,-6l-6,6M241,80l6,6m0,-6l-6,6M239,80l6,6m0,-6l-6,6M239,80l6,6m0,-6l-6,6M242,80l6,6m0,-6l-6,6M244,80l6,6m0,-6l-6,6M243,80l6,6m0,-6l-6,6M243,80l6,6m0,-6l-6,6M242,80l6,6m0,-6l-6,6M246,80l6,6m0,-6l-6,6M246,80l6,6m0,-6l-6,6M247,80l6,6m0,-6l-6,6M249,80l6,6m0,-6l-6,6M253,80l6,6m0,-6l-6,6M252,80l6,6m0,-6l-6,6M253,80l6,6m0,-6l-6,6M251,80l6,6m0,-6l-6,6M254,80l6,6m0,-6l-6,6M254,80l6,6m0,-6l-6,6M262,80l6,6m0,-6l-6,6M265,80l6,6m0,-6l-6,6M41,69l6,6m0,-6l-6,6M56,69l6,6m0,-6l-6,6M57,69l6,6m0,-6l-6,6M60,69l6,6m0,-6l-6,6M62,69l6,6m0,-6l-6,6M63,69l6,6m0,-6l-6,6M62,69l6,6m0,-6l-6,6M63,69l6,6m0,-6l-6,6M241,69l6,6m0,-6l-6,6M240,69l6,6m0,-6l-6,6M239,69l6,6m0,-6l-6,6M241,69l6,6m0,-6l-6,6M243,69l6,6m0,-6l-6,6M246,69l6,6m0,-6l-6,6M253,69l6,6m0,-6l-6,6M256,69l6,6m0,-6l-6,6M262,69l6,6m0,-6l-6,6M32,58l6,6m0,-6l-6,6M59,58l6,6m0,-6l-6,6M60,58l6,6m0,-6l-6,6M62,58l6,6m0,-6l-6,6M63,58l6,6m0,-6l-6,6M62,58l6,6m0,-6l-6,6M240,58l6,6m0,-6l-6,6M243,58l6,6m0,-6l-6,6M249,58l6,6m0,-6l-6,6M35,47l6,6m0,-6l-6,6M57,47l6,6m0,-6l-6,6M243,47l6,6m0,-6l-6,6M72,36l6,6m0,-6l-6,6" style="stroke: rgb(0, 0, 154); fill: none;"></path>
      </g>
     </svg>
     <g>
      <g transform="translate(0,221)">
       <path d="M0,0h306M0,-7V0M6,-4V0M12,-4V0M18,-4V0M24,-4V0M31,-7V0M37,-4V0M43,-4V0M49,-4V0M55,-4V0M61,-7V0M67,-4V0M73,-4V0M80,-4V0M86,-4V0M92,-7V0M98,-4V0M104,-4V0M110,-4V0M116,-4V0M122,-7V0M129,-4V0M135,-4V0M141,-4V0M147,-4V0M153,-7V0M159,-4V0M165,-4V0M171,-4V0M177,-4V0M184,-7V0M190,-4V0M196,-4V0M202,-4V0M208,-4V0M214,-7V0M220,-4V0M226,-4V0M233,-4V0M239,-4V0M245,-7V0M251,-4V0M257,-4V0M263,-4V0M269,-4V0M275,-7V0M282,-4V0M288,-4V0M294,-4V0M300,-4V0M306,-7V0" style="stroke: black; stroke-width: 1;"></path>
       <g font-family="Arial" font-size="10" xml:space="preserve" fill="black" text-anchor="middle"><text dy=".8em" transform="translate(0,2)">-5</text><text dy=".8em" transform="translate(31,2)">-4</text><text dy=".8em" transform="translate(61,2)">-3</text><text dy=".8em" transform="translate(92,2)">-2</text><text dy=".8em" transform="translate(122,2)">-1</text><text dy=".8em" transform="translate(153,2)">0</text><text dy=".8em" transform="translate(184,2)">1</text><text dy=".8em" transform="translate(214,2)">2</text><text dy=".8em" transform="translate(245,2)">3</text><text dy=".8em" transform="translate(275,2)">4</text><text dy=".8em" transform="translate(306,2)">5</text></g>
      </g>
      <g>
       <path d="M0,0v221M9,221H0M5,217H0M5,212H0M5,208H0M5,203H0M9,199H0M5,194H0M5,190H0M5,186H0M5,181H0M9,177H0M5,172H0M5,168H0M5,164H0M5,159H0M9,155H0M5,150H0M5,146H0M5,141H0M5,137H0M9,133H0M5,128H0M5,124H0M5,119H0M5,115H0M9,111H0M5,106H0M5,102H0M5,97H0M5,93H0M9,88H0M5,84H0M5,80H0M5,75H0M5,71H0M9,66H0M5,62H0M5,57H0M5,53H0M5,49H0M9,44H0M5,40H0M5,35H0M5,31H0M5,27H0M9,22H0M5,18H0M5,13H0M5,9H0M5,4H0M9,0H0" style="stroke: black; stroke-width: 1;"></path>
       <g font-family="Arial" font-size="10" xml:space="preserve" fill="black" text-anchor="end"><text dominant-baseline="middle" transform="translate(-2,221)">-5</text><text dominant-baseline="middle" transform="translate(-2,199)">-4</text><text dominant-baseline="middle" transform="translate(-2,177)">-3</text><text dominant-baseline="middle" transform="translate(-2,155)">-2</text><text dominant-baseline="middle" transform="translate(-2,133)">-1</text><text dominant-baseline="middle" transform="translate(-2,111)">0</text><text dominant-baseline="middle" transform="translate(-2,88)">1</text><text dominant-baseline="middle" transform="translate(-2,66)">2</text><text dominant-baseline="middle" transform="translate(-2,44)">3</text><text dominant-baseline="middle" transform="translate(-2,22)">4</text><text dominant-baseline="middle" transform="translate(-2)">5</text></g>
      </g>
     </g>
    </g>
    <g transform="translate(299,18)" font-family="Arial" font-size="9" xml:space="preserve" fill="black"><path d="M0,0H77V66H0Z" style="fill: white; stroke: black; stroke-width: 1;"></path><text text-anchor="middle" dominant-baseline="middle" transform="translate(39,6)">h3_copy</text><text text-anchor="start" dominant-baseline="middle" transform="translate(4,17)">Entries</text><text text-anchor="end" dominant-baseline="middle" transform="translate(73,17)">100000</text><text text-anchor="start" dominant-baseline="middle" transform="translate(4,28)">Mean x</text><text text-anchor="end" dominant-baseline="middle" transform="translate(73,28)">-0.004002</text><text text-anchor="start" dominant-baseline="middle" transform="translate(4,39)">Mean y</text><text text-anchor="end" dominant-baseline="middle" transform="translate(73,39)">0.003930</text><text text-anchor="start" dominant-baseline="middle" transform="translate(4,50)">Std Dev x</text><text text-anchor="end" dominant-baseline="middle" transform="translate(73,50)">0.9997</text><text text-anchor="start" dominant-baseline="middle" transform="translate(4,61)">Std Dev y</text><text text-anchor="end" dominant-baseline="middle" transform="translate(73,61)">1.002</text><path d="M0,11h77" style="stroke: black; stroke-width: 1;"></path></g>
    <g transform="translate(38,1)" font-family="Arial" font-size="14" xml:space="preserve"><text fill="black" text-anchor="middle" dy=".8em" transform="translate(153)">CandleY scaled</text></g>
   </g>
  </svg>
  <svg viewBox="0 0 383 276" preserveAspectRatio="none" x="8" y="293" width="383" height="276">
   <path d="M0,0H383V276H0Z" style="fill: white;"></path>
   <g>
    <g transform="translate(38,28)">
     <path d="M0,0H306V221H0Z" style="fill: white; stroke: black; stroke-width: 1;"></path>
     <svg x="0" y="0" overflow="hidden" width="306" height="221" viewBox="0 0 306 221">
      <g>
       <path d="M8,221v-221M39,221v-221M54,221v-221M69,221v-221M85,221v-221M100,221v-221M115,221v-221M130,221v-221M146,221v-221M161,221v-221M176,221v-221M192,221v-221M207,221v-221M222,221v-221M238,221v-221M253,221v-221M268,221v-221M283,221v-221" style="stroke: rgb(102, 102, 102);"></path>
       <path d="M8,113h6v-2h-12v2h6M39,157h3v-2h-3v-5h3v-2h-3v-7h3v-2h-3v-6h3v-3h-3v-2h3v-2h-3v-2h6v-2h-3v-3h-3v-13h3v-2h-3v-5h6v-2h-3v-2h-3v-2h3v-2h-3v-3h3v-4h-3v-13h3v-2h-3v-3h3v-2h-3v-15h3v-3h-6v3h3v15h-3v2h3v3h-3v2h3v13h-3v4h3v3h-3v2h3v2h-3v2h-3v2h6v5h-3v2h3v13h-3v3h-3v2h6v2h-3v2h3v2h-3v3h3v6h-3v2h3v7h-3v2h3v5h-3v2h3M54,175h1v-5h-1v-9h1v-2h-1v-7h1v-6h-1v-2h1v-3h1v-4h-1v-2h1v-2h-1v-3h1v-2h-2v-2h4v-2h-1v-2h-2v-3h2v-2h-2v-2h3v-2h-2v-2h1v-3h1v-2h-1v-2h2v-5h-3v-2h4v-2h-5v-2h3v-2h-3v-3h1v-2h-1v-6h-1v-3h1v-2h-1v-4h1v-2h-1v-16h1v-2h-2v2h1v16h-1v2h1v4h-1v2h1v3h-1v6h-1v2h1v3h-3v2h3v2h-5v2h4v2h-3v5h2v2h-1v2h1v3h1v2h-2v2h3v2h-2v2h2v3h-2v2h-1v2h4v2h-2v2h1v3h-1v2h1v2h-1v4h1v3h1v2h-1v6h1v7h-1v2h1v9h-1v5h1M69,170h1v-2h-1v-11h1v-13h1v-7h1v-4h-1v-3h2v-2h1v-2h-2v-2h2v-2h1v-3h-1v-2h-2v-2h1v-2h1v-2h-1v-3h1v-2h-2v-2h2v-2h-1v-3h1v-4h-1v-4h-2v-5h1v-2h-2v-4h2v-3h-1v-6h-1v-11h-1v-3h1v-2h-1v-6h1v-3h-1v-4v4h-1v3h1v6h-1v2h1v3h-1v11h-1v6h-1v3h2v4h-2v2h1v5h-2v4h-1v4h1v3h-1v2h2v2h-2v2h1v3h-1v2h1v2h1v2h-2v2h-1v3h1v2h2v2h-2v2h1v2h2v3h-1v4h1v7h1v13h1v11h-1v2h1M85,181v-15h1v-2h-1v-7h1v-11h1v-2h-1v-3h1v-2h1v-6h1v-9h1v-5h-1v-2h1v-2h1v-2h-1v-7h1v-2h-1v-2h-1v-9h1v-2h-1v-3h-1v-2h-1v-2h1v-4h-1v-3h-1v-4h1v-2h-1v-9h-1v-38v38h-1v9h-1v2h1v4h-1v3h-1v4h1v2h-1v2h-1v3h-1v2h1v9h-1v2h-1v2h1v7h-1v2h1v2h1v2h-1v5h1v9h1v6h1v2h1v3h-1v2h1v11h1v7h-1v2h1v15M100,201v-42h1v-15h1v-3h-1v-2h1v-2h1v-7h1v-4h1v-4h-1v-3h1v-2h-1v-2h1v-2h1v-2h-1v-3h1v-2h-2v-2h1v-7h-1v-9h-1v-4h-1v-9h-1v-9h-1v-33v33h-1v9h-1v9h-1v4h-1v11h-1v5h1v2h-2v2h1v3h-1v2h1v2h1v2h-1v2h1v3h-1v4h1v2h1v9h1v2h1v2h-1v3h1v11h1v2h-1v2h1v42M115,199v-38h1v-15h1v-9h1v-4h1v-9h1v-5h1v-13h-1v-9h-1v-2h1v-2h-1v-5h-1v-6h-1v-7h-1v-15h-1v-47v47h-1v15h-1v7h-1v6h-1v5h-1v2h1v2h-1v9h-1v13h1v5h1v9h1v4h1v9h1v15h1v38M130,203v-44h1v-11h1v-7h1v-6h1v-5h1v-4h1v-2h-1v-2h1v-25h-1v-4h-1v-5h-1v-6h-1v-9h-1v-11h-1v-47v47h-1v11h-1v9h-1v6h-1v5h-1v4h-1v25h1v2h-1v2h1v4h1v5h1v6h1v7h1v11h1v44M146,208v-49h1v-11h1v-9h1v-9h1v-4h1v-9h1v-2h-1v-7h1v-2h-1v-9h-1v-6h-1v-7h-1v-9h-1v-13h-1v-38v38h-1v13h-1v9h-1v7h-1v6h-1v9h-1v2h1v7h-1v2h1v9h1v4h1v9h1v9h1v11h1v49M161,219v-60h1v-11h1v-7h1v-8h1v-7h1v-7h1v-17h-1v-7h-1v-7h-1v-6h-1v-7h-1v-15h-1v-38v38h-1v15h-1v7h-1v6h-1v7h-1v7h-1v17h1v7h1v7h1v8h1v7h1v11h1v60M176,192v-31h1v-2h-1v-2h1v-9h1v-7h1v-8h1v-7h1v-4h1v-23h-1v-6h-1v-7h-1v-4h-1v-9h-1v-11h-1v-42v42h-1v11h-1v9h-1v4h-1v7h-1v6h-1v23h1v4h1v7h1v8h1v7h1v9h1v2h-1v2h1v31M192,197v-36h1v-2h-1v-2h1v-9h1v-9h1v-9h1v-2h1v-17h1v-3h-1v-2h1v-2h-1v-9h-1v-4h-1v-9h-1v-7h-1v-11h-1v-2h1v-2h-1v-36v36h-1v2h1v2h-1v11h-1v7h-1v9h-1v4h-1v9h-1v2h1v2h-1v3h1v17h1v2h1v9h1v9h1v9h1v2h-1v2h1v36M207,188v-29h1v-9h1v-2h-1v-2h1v-5h1v-2h-1v-2h1v-2h1v-7h1v-9h1v-2h-1v-4h1v-5h-1v-2h1v-7h-1v-4h-1v-7h-1v-4h-1v-9h-1v-15h-1v-36v36h-1v2h1v2h-1v11h-1v9h-1v4h-1v7h-1v4h-1v7h1v2h-1v5h1v4h-1v2h1v9h1v7h1v2h1v2h-1v2h1v5h1v2h-1v2h1v7h1v31M222,188v-29h1v-2h-1v-2h1v-11h1v-3h1v-6h1v-2h-1v-3h1v-4h1v-4h-1v-3h2v-2h-1v-2h-1v-2h2v-2h-1v-5h1v-2h-1v-7h-1v-2h1v-4h-2v-11h-1v-3h-1v-17h-1v-20v20h-1v17h-1v3h-1v11h-2v4h1v2h-1v7h-1v2h1v5h-1v2h2v2h-1v2h-1v2h2v3h-1v4h1v4h1v3h-1v2h1v6h1v3h1v11h1v2h-1v2h1v29M238,192v-35h1v-5h-1v-2h1v-6h1v-3h-1v-2h1v-2h-1v-4h1v-3h2v-2h-1v-2h1v-2h1v-5h-2v-2h1v-4h2v-2h-1v-3h-1v-2h-1v-7h1v-2h-2v-4h-1v-2h3v-3h-2v-6h-1v-2h1v-3h-1v-4h1v-2h-1v-5h-1v-2h1v-4h-1v-5v5h-1v4h1v2h-1v5h-1v2h1v4h-1v3h1v2h-1v6h-2v3h3v2h-1v4h-2v2h1v7h-1v2h-1v3h-1v2h2v4h1v2h-2v5h1v2h1v2h-1v2h2v3h1v4h-1v2h1v2h-1v3h1v6h1v2h-1v5h1v35M253,146h1v-2h-1v-3h1v-2h1v-4h-1v-2h-1v-3h6v-2h-1v-2h-2v-2h1v-2h-1v-5h-2v-2h1v-4h3v-3h-5v-2h1v-2h1v-2h-1v-3h1v-4h-1v-2h3v-2h-3v-5h2v-2h-2v-2h2v-2h-1v-3h-1v-4h-1v-2h1v-2h-1v-7h1v-5h-1v-2h1v-2h-2v2h1v2h-1v5h1v7h-1v2h1v2h-1v4h-1v3h-1v2h2v2h-2v2h2v5h-3v2h3v2h-1v4h1v3h-1v2h1v2h1v2h-5v3h3v4h1v2h-2v5h-1v2h1v2h-2v2h-1v2h6v3h-1v2h-1v4h1v2h1v3h-1v2h1M268,150h3v-2h-3v-9h3v-2h-3v-4h3v-3h-3v-4h3v-2h-3v-7h3v-4h3v-2h-6v-7h3v-11h-3v-5h3v-2h-3v-2h3v-2h-3v-13h3v-3h-6v3h3v13h-3v2h3v2h-3v2h3v5h-3v11h3v7h-6v2h3v4h3v7h-3v2h3v4h-3v3h3v4h-3v2h3v9h-3v2h3M283,113h6v-2h-6v-14h6v-2h-12v2h6v14h-6v2h6" style="stroke: rgb(0, 0, 255); fill: none;"></path>
       <path d="M8,111M8,112v1M39,87v-41M39,127v30M54,98v-47M54,125v50M69,95v-53M69,126v44M85,94v-70M85,125v56M100,95v-62M100,125v76M115,95v-82M115,125v74M130,96v-81M130,126v77M146,96v-72M146,125v83M161,95v-73M161,125v94M176,95v-75M176,126v66M192,96v-72M192,125v72M207,96v-72M207,126v62M222,96v-56M222,126v62M238,96v-41M238,125v67M253,91v-38M253,126v20M268,95v-29M268,120v30M283,96v-1M283,112v1" style="stroke: rgb(0, 0, 255); stroke-width: 1; fill: none;"></path>
       <path d="M4,112a4,4,0,1,0,8,0a4,4,0,1,0,-8,0zM35,106a4,4,0,1,0,8,0a4,4,0,1,0,-8,0zM50,112a4,4,0,1,0,8,0a4,4,0,1,0,-8,0zM65,109a4,4,0,1,0,8,0a4,4,0,1,0,-8,0zM81,110a4,4,0,1,0,8,0a4,4,0,1,0,-8,0zM96,110a4,4,0,1,0,8,0a4,4,0,1,0,-8,0zM111,110a4,4,0,1,0,8,0a4,4,0,1,0,-8,0zM126,111a4,4,0,1,0,8,0a4,4,0,1,0,-8,0zM142,110a4,4,0,1,0,8,0a4,4,0,1,0,-8,0zM157,110a4,4,0,1,0,8,0a4,4,0,1,0,-8,0zM172,110a4,4,0,1,0,8,0a4,4,0,1,0,-8,0zM188,111a4,4,0,1,0,8,0a4,4,0,1,0,-8,0zM203,111a4,4,0,1,0,8,0a4,4,0,1,0,-8,0zM218,110a4,4,0,1,0,8,0a4,4,0,1,0,-8,0zM234,111a4,4,0,1,0,8,0a4,4,0,1,0,-8,0zM249,108a4,4,0,1,0,8,0a4,4,0,1,0,-8,0zM264,108a4,4,0,1,0,8,0a4,4,0,1,0,-8,0zM279,104a4,4,0,1,0,8,0a4,4,0,1,0,-8,0z" style="stroke: rgb(0, 0, 255); fill: none;"></path>
      </g>
     </svg>
     <g>
      <g transform="translate(0,221)">
       <path d="M0,0h306M0,-7V0M6,-4V0M12,-4V0M18,-4V0M24,-4V0M31,-7V0M37,-4V0M43,-4V0M49,-4V0M55,-4V0M61,-7V0M67,-4V0M73,-4V0M80,-4V0M86,-4V0M92,-7V0M98,-4V0M104,-4V0M110,-4V0M116,-4V0M122,-7V0M129,-4V0M135,-4V0M141,-4V0M147,-4V0M153,-7V0M159,-4V0M165,-4V0M171,-4V0M177,-4V0M184,-7V0M190,-4V0M196,-4V0M202,-4V0M208,-4V0M214,-7V0M220,-4V0M226,-4V0M233,-4V0M239,-4V0M245,-7V0M251,-4V0M257,-4V0M263,-4V0M269,-4V0M275,-7V0M282,-4V0M288,-4V0M294,-4V0M300,-4V0M306,-7V0" style="stroke: black; stroke-width: 1;"></path>
       <g font-family="Arial" font-size="10" xml:space="preserve" fill="black" text-anchor="middle"><text dy=".8em" transform="translate(0,2)">-5</text><text dy=".8em" transform="translate(31,2)">-4</text><text dy=".8em" transform="translate(61,2)">-3</text><text dy=".8em" transform="translate(92,2)">-2</text><text dy=".8em" transform="translate(122,2)">-1</text><text dy=".8em" transform="translate(153,2)">0</text><text dy=".8em" transform="translate(184,2)">1</text><text dy=".8em" transform="translate(214,2)">2</text><text dy=".8em" transform="translate(245,2)">3</text><text dy=".8em" transform="translate(275,2)">4</text><text dy=".8em" transform="translate(306,2)">5</text></g>
      </g>
      <g>
       <path d="M0,0v221M9,221H0M5,217H0M5,212H0M5,208H0M5,203H0M9,199H0M5,194H0M5,190H0M5,186H0M5,181H0M9,177H0M5,172H0M5,168H0M5,164H0M5,159H0M9,155H0M5,150H0M5,146H0M5,141H0M5,137H0M9,133H0M5,128H0M5,124H0M5,119H0M5,115H0M9,111H0M5,106H0M5,102H0M5,97H0M5,93H0M9,88H0M5,84H0M5,80H0M5,75H0M5,71H0M9,66H0M5,62H0M5,57H0M5,53H0M5,49H0M9,44H0M5,40H0M5,35H0M5,31H0M5,27H0M9,22H0M5,18H0M5,13H0M5,9H0M5,4H0M9,0H0" style="stroke: black; stroke-width: 1;"></path>
       <g font-family="Arial" font-size="10" xml:space="preserve" fill="black" text-anchor="end"><text dominant-baseline="middle" transform="translate(-2,221)">-5</text><text dominant-baseline="middle" transform="translate(-2,199)">-4</text><text dominant-baseline="middle" transform="translate(-2,177)">-3</text><text dominant-baseline="middle" transform="translate(-2,155)">-2</text><text dominant-baseline="middle" transform="translate(-2,133)">-1</text><text dominant-baseline="middle" transform="translate(-2,111)">0</text><text dominant-baseline="middle" transform="translate(-2,88)">1</text><text dominant-baseline="middle" transform="translate(-2,66)">2</text><text dominant-baseline="middle" transform="translate(-2,44)">3</text><text dominant-baseline="middle" transform="translate(-2,22)">4</text><text dominant-baseline="middle" transform="translate(-2)">5</text></g>
      </g>
     </g>
    </g>
    <g transform="translate(299,18)" font-family="Arial" font-size="9" xml:space="preserve" fill="black"><path d="M0,0H77V66H0Z" style="fill: white; stroke: black; stroke-width: 1;"></path><text text-anchor="middle" dominant-baseline="middle" transform="translate(39,6)">h1_copy</text><text text-anchor="start" dominant-baseline="middle" transform="translate(4,17)">Entries</text><text text-anchor="end" dominant-baseline="middle" transform="translate(73,17)">100000</text><text text-anchor="start" dominant-baseline="middle" transform="translate(4,28)">Mean x</text><text text-anchor="end" dominant-baseline="middle" transform="translate(73,28)">-0.004002</text><text text-anchor="start" dominant-baseline="middle" transform="translate(4,39)">Mean y</text><text text-anchor="end" dominant-baseline="middle" transform="translate(73,39)">0.003930</text><text text-anchor="start" dominant-baseline="middle" transform="translate(4,50)">Std Dev x</text><text text-anchor="end" dominant-baseline="middle" transform="translate(73,50)">0.9997</text><text text-anchor="start" dominant-baseline="middle" transform="translate(4,61)">Std Dev y</text><text text-anchor="end" dominant-baseline="middle" transform="translate(73,61)">1.002</text><path d="M0,11h77" style="stroke: black; stroke-width: 1;"></path></g>
    <g transform="translate(38,1)" font-family="Arial" font-size="14" xml:space="preserve"><text fill="black" text-anchor="middle" dy=".8em" transform="translate(153)">ViolinX unscaled</text></g>
   </g>
  </svg>
  <svg viewBox="0 0 383 276" preserveAspectRatio="none" x="407" y="293" width="383" height="276">
   <path d="M0,0H383V276H0Z" style="fill: white;"></path>
   <g>
    <g transform="translate(38,28)">
     <path d="M0,0H306V221H0Z" style="fill: white; stroke: black; stroke-width: 1;"></path>
     <svg x="0" y="0" overflow="hidden" width="306" height="221" viewBox="0 0 306 221">
      <g>
       <path d="M0,216h306M0,205h306M0,194h306M0,183h306M0,172h306M0,161h306M0,150h306M0,139h306M0,128h306M0,117h306M0,105h306M0,94h306M0,83h306M0,72h306M0,61h306M0,50h306M0,39h306M0,28h306M0,17h306" style="stroke: rgb(102, 102, 102);"></path>
       <path d="M153,216v-4h3v8h-3v-4M98,205v-4h3v4h24v-4h4v4h12v-4h3v8h-3v-4h-12v4h-4v-4h-24v4h-3v-4M107,194v-4h3v4h3v-2h3v2h13v-2h3v2h9v-2h3v2h3v-2h6v2h9v-4h3v4h6v-2h10v2h12v-2h3v2h37v-2h3v4h-3v-2h-37v2h-3v-2h-12v2h-10v-2h-6v4h-3v-4h-9v2h-6v-2h-3v2h-3v-2h-9v2h-3v-2h-13v2h-3v-2h-3v4h-3v-4M77,183v-1h6v1h6v-1h3v1h3v-1h3v1h3v-1h15v1h3v-1h3v-1h3v1h4v-2h3v-1h3v2h3v2h3v-3h6v1h3v-1h3v-1h3v2h3v-2h3v3h6v-1h3v2h3v-3h7v3h3v-2h3v2h3v-1h3v-1h3v1h6v-1h3v2h3v-1h3v1h9v-1h3v2h-3v-1h-9v1h-3v-1h-3v2h-3v-1h-6v1h-3v-1h-3v-1h-3v2h-3v-2h-3v3h-7v-3h-3v2h-3v-1h-6v3h-3v-2h-3v2h-3v-1h-3v-1h-3v1h-6v-3h-3v2h-3v2h-3v-1h-3v-2h-4v1h-3v-1h-3v-1h-3v1h-15v-1h-3v1h-3v-1h-3v1h-3v-1h-6v1h-6v-1M55,172h46v-1h12v-1h6v-1h3v1h3v-1h7v1h3v-1h3v-1h3v1h3v-1h3v2h3v-2h6v1h3v1h3v-2h3v2h6v-1h3v2h3v-1h7v-1h3v1h3v1h3v-1h3v1h18v1h19v-1h3v1h9h-9v1h-3v-1h-19v1h-18v1h-3v-1h-3v1h-3v1h-3v-1h-7v-1h-3v2h-3v-1h-6v2h-3v-2h-3v1h-3v1h-6v-2h-3v2h-3v-1h-3v1h-3v-1h-3v-1h-3v1h-7v-1h-3v1h-3v-1h-6v-1h-12v-1h-46M43,161h34v-1h3v1h6v-1h3v1h3v-1h15v-1h9v1h3v-1h6v-1h4v1h3v-2h15v1h6v-1h9v1h3v-1h6v1h6v1h13v1h27v1h28h-28v1h-27v1h-13v1h-6v1h-6v-1h-3v1h-9v-1h-6v1h-15v-2h-3v1h-4v-1h-6v-1h-3v1h-9v-1h-15v-1h-3v1h-3v-1h-6v1h-3v-1h-34M43,150h49v-1h18v-1h9v-1h16v-1h30v1h3v-1h6v1h7v1h3v-1h3v1h9v1h18v1h49h-49v1h-18v1h-9v1h-3v-1h-3v1h-7v1h-6v-1h-3v1h-30v-1h-16v-1h-9v-1h-18v-1h-49M40,139h52v-1h18v-1h12v-1h13v-1h39v1h10v1h12v1h24v1h43h-43v1h-24v1h-12v1h-10v1h-39v-1h-13v-1h-12v-1h-18v-1h-52M31,128h61v-1h15v-1h15v-1h13v-1h36v1h13v1h15v1h18v1h58h-58v1h-18v1h-15v1h-13v1h-36v-1h-13v-1h-15v-1h-15v-1h-61M3,117h89v-1h15v-1h15v-1h13v-1h30v1h3v-1h3v1h13v1h12v1h18v1h64h-64v1h-18v1h-12v1h-13v1h-3v-1h-3v1h-30v-1h-13v-1h-15v-1h-15v-1h-89M37,105h52v-1h18v-1h12v-1h13v-1h18v-1h6v1h3v-1h3v1h9v1h3v-1h3v1h10v1h12v1h18v1h46h-46v1h-18v1h-12v1h-10v1h-3v-1h-3v1h-9v1h-3v-1h-3v1h-6v-1h-18v-1h-13v-1h-12v-1h-18v-1h-52M34,94h55v-1h21v-1h12v-1h10v-1h36v1h16v1h12v1h21v1h68h-68v1h-21v1h-12v1h-16v1h-36v-1h-10v-1h-12v-1h-21v-1h-55M34,83h52v-1h21v-1h15v-1h13v-1h39v1h10v1h12v1h18v1h3v-1h3v1h49h-49v1h-3v-1h-3v1h-18v1h-12v1h-10v1h-39v-1h-13v-1h-15v-1h-21v-1h-52M43,72h43v-1h21v-1h15v-1h16v-1h30v1h19v1h9v1h18v1h52h-52v1h-18v1h-9v1h-19v1h-30v-1h-16v-1h-15v-1h-21v-1h-43M34,61h55v-1h6v1h3v-1h12v-1h9v-1h13v-1h6v1h3v-1h3v1h3v-1h21v1h3v-1h3v1h7v1h21v1h9v1h3v-1h6v1h34h-34v1h-6v-1h-3v1h-9v1h-21v1h-7v1h-3v-1h-3v1h-21v-1h-3v1h-3v-1h-3v1h-6v-1h-13v-1h-9v-1h-12v-1h-3v1h-6v-1h-55M37,50h55v-1h18v-1h3v1h3v-1h16v-1h3v1h3v-1h12v-1h3v1h3v-1h6v1h6v1h6v-1h10v1h6v1h3v-1h3v2h3v-1h3v1h3v-1h3v1h40h-40v1h-3v-1h-3v1h-3v-1h-3v2h-3v-1h-3v1h-6v1h-10v-1h-6v1h-6v1h-6v-1h-3v1h-3v-1h-12v-1h-3v1h-3v-1h-16v-1h-3v1h-3v-1h-18v-1h-55M73,39h25v-1h3v1h15v-1h3v1h3v-1h3v1h4v-1h3v1h3v-2h3v-1h3v1h3v-2h3v3h3v-3h3v1h3v2h3v1h3v-1h6v-1h3v1h3v-1h3v1h4v-1h3v1h3v1h9v-1h3v1h3v-2h3v1h3v1h12v-1h3v1h3h-3v1h-3v-1h-12v1h-3v1h-3v-2h-3v1h-3v-1h-9v1h-3v1h-3v-1h-4v1h-3v-1h-3v1h-3v-1h-6v-1h-3v1h-3v2h-3v1h-3v-3h-3v3h-3v-2h-3v1h-3v-1h-3v-2h-3v1h-3v-1h-4v1h-3v-1h-3v1h-3v-1h-15v1h-3v-1h-25M86,28v-3h3v3h30v-1h3v1h3v-1h7v1h3v-1h6v1h3v-1h6v1h3v-1h3v1h3v-1h6v1h12v-4h4v3h6v1h3v-1h3v1h6v-1h3v1h6v-1h3v2h-3v-1h-6v1h-3v-1h-6v1h-3v-1h-3v1h-6v3h-4v-4h-12v1h-6v-1h-3v1h-3v-1h-3v1h-6v-1h-3v1h-6v-1h-3v1h-7v-1h-3v1h-3v-1h-30v3h-3v-3M116,17v-4h3v4h3v-2h3v2h43v-2h3v4h-3v-2h-43v2h-3v-2h-3v4h-3v-4" style="stroke: rgb(0, 0, 255); fill: none;"></path>
       <path d="M155,216h1M154,216h-1M142,205h2M100,205h-2M176,194h60M130,194h-23M175,183h48M131,183h-54M174,172h71M131,172h-76M172,161h73M133,161h-90M174,150h89M133,150h-90M174,139h89M133,139h-93M174,128h101M131,128h-100M173,117h105M132,117h-129M174,105h89M133,105h-96M173,94h112M132,94h-98M173,83h96M133,83h-99M174,72h92M132,72h-89M174,61h80M132,61h-98M174,50h74M132,50h-95M179,39h47M140,39h-67M181,28h30M133,28h-47M147,17h24M118,17h-2" style="stroke: rgb(0, 0, 255); stroke-width: 1; fill: none;"></path>
       <path d="M151,216a4,4,0,1,0,8,0a4,4,0,1,0,-8,0zM119,205a4,4,0,1,0,8,0a4,4,0,1,0,-8,0zM152,194a4,4,0,1,0,8,0a4,4,0,1,0,-8,0zM148,183a4,4,0,1,0,8,0a4,4,0,1,0,-8,0zM149,172a4,4,0,1,0,8,0a4,4,0,1,0,-8,0zM148,161a4,4,0,1,0,8,0a4,4,0,1,0,-8,0zM149,150a4,4,0,1,0,8,0a4,4,0,1,0,-8,0zM150,139a4,4,0,1,0,8,0a4,4,0,1,0,-8,0zM149,128a4,4,0,1,0,8,0a4,4,0,1,0,-8,0zM149,117a4,4,0,1,0,8,0a4,4,0,1,0,-8,0zM149,105a4,4,0,1,0,8,0a4,4,0,1,0,-8,0zM148,94a4,4,0,1,0,8,0a4,4,0,1,0,-8,0zM149,83a4,4,0,1,0,8,0a4,4,0,1,0,-8,0zM149,72a4,4,0,1,0,8,0a4,4,0,1,0,-8,0zM149,61a4,4,0,1,0,8,0a4,4,0,1,0,-8,0zM148,50a4,4,0,1,0,8,0a4,4,0,1,0,-8,0zM155,39a4,4,0,1,0,8,0a4,4,0,1,0,-8,0zM151,28a4,4,0,1,0,8,0a4,4,0,1,0,-8,0zM128,17a4,4,0,1,0,8,0a4,4,0,1,0,-8,0z" style="stroke: rgb(0, 0, 255); fill: none;"></path>
      </g>
     </svg>
     <g>
      <g transform="translate(0,221)">
       <path d="M0,0h306M0,-7V0M6,-4V0M12,-4V0M18,-4V0M24,-4V0M31,-7V0M37,-4V0M43,-4V0M49,-4V0M55,-4V0M61,-7V0M67,-4V0M73,-4V0M80,-4V0M86,-4V0M92,-7V0M98,-4V0M104,-4V0M110,-4V0M116,-4V0M122,-7V0M129,-4V0M135,-4V0M141,-4V0M147,-4V0M153,-7V0M159,-4V0M165,-4V0M171,-4V0M177,-4V0M184,-7V0M190,-4V0M196,-4V0M202,-4V0M208,-4V0M214,-7V0M220,-4V0M226,-4V0M233,-4V0M239,-4V0M245,-7V0M251,-4V0M257,-4V0M263,-4V0M269,-4V0M275,-7V0M282,-4V0M288,-4V0M294,-4V0M300,-4V0M306,-7V0" style="stroke: black; stroke-width: 1;"></path>
       <g font-family="Arial" font-size="10" xml:space="preserve" fill="black" text-anchor="middle"><text dy=".8em" transform="translate(0,2)">-5</text><text dy=".8em" transform="translate(31,2)">-4</text><text dy=".8em" transform="translate(61,2)">-3</text><text dy=".8em" transform="translate(92,2)">-2</text><text dy=".8em" transform="translate(122,2)">-1</text><text dy=".8em" transform="translate(153,2)">0</text><text dy=".8em" transform="translate(184,2)">1</text><text dy=".8em" transform="translate(214,2)">2</text><text dy=".8em" transform="translate(245,2)">3</text><text dy=".8em" transform="translate(275,2)">4</text><text dy=".8em" transform="translate(306,2)">5</text></g>
      </g>
      <g>
       <path d="M0,0v221M9,221H0M5,217H0M5,212H0M5,208H0M5,203H0M9,199H0M5,194H0M5,190H0M5,186H0M5,181H0M9,177H0M5,172H0M5,168H0M5,164H0M5,159H0M9,155H0M5,150H0M5,146H0M5,141H0M5,137H0M9,133H0M5,128H0M5,124H0M5,119H0M5,115H0M9,111H0M5,106H0M5,102H0M5,97H0M5,93H0M9,88H0M5,84H0M5,80H0M5,75H0M5,71H0M9,66H0M5,62H0M5,57H0M5,53H0M5,49H0M9,44H0M5,40H0M5,35H0M5,31H0M5,27H0M9,22H0M5,18H0M5,13H0M5,9H0M5,4H0M9,0H0" style="stroke: black; stroke-width: 1;"></path>
       <g font-family="Arial" font-size="10" xml:space="preserve" fill="black" text-anchor="end"><text dominant-baseline="middle" transform="translate(-2,221)">-5</text><text dominant-baseline="middle" transform="translate(-2,199)">-4</text><text dominant-baseline="middle" transform="translate(-2,177)">-3</text><text dominant-baseline="middle" transform="translate(-2,155)">-2</text><text dominant-baseline="middle" transform="translate(-2,133)">-1</text><text dominant-baseline="middle" transform="translate(-2,111)">0</text><text dominant-baseline="middle" transform="translate(-2,88)">1</text><text dominant-baseline="middle" transform="translate(-2,66)">2</text><text dominant-baseline="middle" transform="translate(-2,44)">3</text><text dominant-baseline="middle" transform="translate(-2,22)">4</text><text dominant-baseline="middle" transform="translate(-2)">5</text></g>
      </g>
     </g>
    </g>
    <g transform="translate(299,18)" font-family="Arial" font-size="9" xml:space="preserve" fill="black"><path d="M0,0H77V66H0Z" style="fill: white; stroke: black; stroke-width: 1;"></path><text text-anchor="middle" dominant-baseline="middle" transform="translate(39,6)">h3_copy</text><text text-anchor="start" dominant-baseline="middle" transform="translate(4,17)">Entries</text><text text-anchor="end" dominant-baseline="middle" transform="translate(73,17)">100000</text><text text-anchor="start" dominant-baseline="middle" transform="translate(4,28)">Mean x</text><text text-anchor="end" dominant-baseline="middle" transform="translate(73,28)">-0.004002</text><text text-anchor="start" dominant-baseline="middle" transform="translate(4,39)">Mean y</text><text text-anchor="end" dominant-baseline="middle" transform="translate(73,39)">0.003930</text><text text-anchor="start" dominant-baseline="middle" transform="translate(4,50)">Std Dev x</text><text text-anchor="end" dominant-baseline="middle" transform="translate(73,50)">0.9997</text><text text-anchor="start" dominant-baseline="middle" transform="translate(4,61)">Std Dev y</text><text text-anchor="end" dominant-baseline="middle" transform="translate(73,61)">1.002</text><path d="M0,11h77" style="stroke: black; stroke-width: 1;"></path></g>
    <g transform="translate(38,1)" font-family="Arial" font-size="14" xml:space="preserve"><text fill="black" text-anchor="middle" dy=".8em" transform="translate(153)">ViolinY unscaled</text></g>
   </g>
  </svg>
 </g>
</svg>