<svg xmlns="http://www.w3.org/2000/svg" viewBox="0 0 1200 800" preserveAspectRatio="none" width="1200" height="800">
 <title>
  ROOT canvas
 </title>
 <path d="M0,0H1200V800H0Z" style="fill: white;"></path>
 <g>
  <svg viewBox="0 0 576 384" preserveAspectRatio="none" x="12" y="8" width="576" height="384">
   <path d="M0,0H576V384H0Z" style="fill: white;"></path>
   <g>
    <g transform="translate(58,38)">
     <title></title>
     <path d="M0,0H461V307H0Z" style="fill: white; stroke: black; stroke-width: 1;"></path>
     <svg x="0" y="0" overflow="hidden" width="461" height="307" viewBox="0 0 461 307">
      <g>
       <path d="M11,154v2h1v-2zM57,121v56h1v-56zM80,136v37h1v-37zM103,132v42h1v-42zM126,131v43h1v-43zM148,132v42h3v-42zM169,132v42h7v-42zM190,133v41h11v-41zM211,133v41h16v-41zM235,133v41h15v-41zM260,132v42h11v-42zM285,133v41h7v-41zM310,133v42h3v-42zM334,133v42h1v-42zM357,134v39h1v-39zM380,127v48h1v-48zM403,132v35h1v-35zM426,134v21h1v-21z" style="stroke: #00009a; stroke-width: 1; fill: none;"></path>
       <path d="M11,155h1M11,154h1M11,157h1M12,154M12,156v1M57,141h1M57,64h1M57,218h1M58,121v-57M58,177v41M80,151h1M80,95h1M80,224h1M81,136v-41M81,173v51M103,154h1M103,64h1M103,236h1M104,132v-68M104,174v62M126,153h1M126,71h1M126,239h1M127,131v-60M127,174v65M148,153h3M148,64h3M148,236h3M150,132v-68M150,174v62M169,154h7M169,64h7M169,236h7M173,132v-68M173,174v62M190,154h11M190,64h11M190,239h11M196,133v-69M196,174v65M211,153h16M211,68h16M211,236h16M219,133v-65M219,174v62M235,153h15M235,64h15M235,236h15M243,133v-69M243,174v62M260,153h11M260,64h11M260,239h11M266,132v-68M266,174v65M285,153h7M285,68h7M285,236h7M289,133v-65M289,174v62M310,154h3M310,68h3M310,239h3M312,133v-65M312,175v64M334,154h1M334,71h1M334,239h1M335,133v-62M335,175v64M357,155h1M357,77h1M357,233h1M358,134v-57M358,173v60M380,155h1M380,74h1M380,203h1M381,127v-53M381,175v28M403,149h1M403,92h1M403,209h1M404,132v-40M404,167v42M426,144h1M426,132h1M426,157h1M427,134v-2M427,155v2" style="stroke: #00009a; stroke-width: 1; fill: none;"></path>
       <path d="M11,155h1M57,148h1M80,156h1M103,152h1M126,153h1M148,153h3M169,153h7M190,154h11M211,153h16M235,153h15M260,153h11M285,154h7M310,154h3M334,153h1M357,154h1M380,150h1M403,150h1M426,144h1" style="stroke: #00009a; stroke-width: 1; stroke-dasharray: 3,3; fill: none;"></path>
       <path d="M77,237l8,8m0,-8l-8,8M77,234l8,8m0,-8l-8,8M77,68l8,8m0,-8l-8,8M100,56l8,8m0,-8l-8,8M123,247l8,8m0,-8l-8,8M123,246l8,8m0,-8l-8,8M123,244l8,8m0,-8l-8,8M123,243l8,8m0,-8l-8,8M123,241l8,8m0,-8l-8,8M123,239l8,8m0,-8l-8,8M123,236l8,8m0,-8l-8,8M123,237l8,8m0,-8l-8,8M123,238l8,8m0,-8l-8,8M123,56l8,8m0,-8l-8,8M123,37l8,8m0,-8l-8,8M123,31l8,8m0,-8l-8,8M146,274l8,8m0,-8l-8,8M146,252l8,8m0,-8l-8,8M146,249l8,8m0,-8l-8,8M146,247l8,8m0,-8l-8,8M146,246l8,8m0,-8l-8,8M146,241l8,8m0,-8l-8,8M146,240l8,8m0,-8l-8,8M146,241l8,8m0,-8l-8,8M146,239l8,8m0,-8l-8,8M146,239l8,8m0,-8l-8,8M146,237l8,8m0,-8l-8,8M146,238l8,8m0,-8l-8,8M146,233l8,8m0,-8l-8,8M146,233l8,8m0,-8l-8,8M146,235l8,8m0,-8l-8,8M146,60l8,8m0,-8l-8,8M146,59l8,8m0,-8l-8,8M146,58l8,8m0,-8l-8,8M146,56l8,8m0,-8l-8,8M146,56l8,8m0,-8l-8,8M146,50l8,8m0,-8l-8,8M146,44l8,8m0,-8l-8,8M169,271l8,8m0,-8l-8,8M169,259l8,8m0,-8l-8,8M169,258l8,8m0,-8l-8,8M169,253l8,8m0,-8l-8,8M169,252l8,8m0,-8l-8,8M169,254l8,8m0,-8l-8,8M169,249l8,8m0,-8l-8,8M169,246l8,8m0,-8l-8,8M169,243l8,8m0,-8l-8,8M169,239l8,8m0,-8l-8,8M169,239l8,8m0,-8l-8,8M169,240l8,8m0,-8l-8,8M169,242l8,8m0,-8l-8,8M169,236l8,8m0,-8l-8,8M169,236l8,8m0,-8l-8,8M169,238l8,8m0,-8l-8,8M169,238l8,8m0,-8l-8,8M169,237l8,8m0,-8l-8,8M169,236l8,8m0,-8l-8,8M169,237l8,8m0,-8l-8,8M169,237l8,8m0,-8l-8,8M169,235l8,8m0,-8l-8,8M169,235l8,8m0,-8l-8,8M169,232l8,8m0,-8l-8,8M169,235l8,8m0,-8l-8,8M169,235l8,8m0,-8l-8,8M169,235l8,8m0,-8l-8,8M169,235l8,8m0,-8l-8,8M169,233l8,8m0,-8l-8,8M169,234l8,8m0,-8l-8,8M169,233l8,8m0,-8l-8,8M169,233l8,8m0,-8l-8,8M169,235l8,8m0,-8l-8,8M169,58l8,8m0,-8l-8,8M169,60l8,8m0,-8l-8,8M169,60l8,8m0,-8l-8,8M169,60l8,8m0,-8l-8,8M169,53l8,8m0,-8l-8,8M169,53l8,8m0,-8l-8,8M169,47l8,8m0,-8l-8,8M169,48l8,8m0,-8l-8,8M169,41l8,8m0,-8l-8,8M169,25l8,8m0,-8l-8,8M169,16l8,8m0,-8l-8,8M192,277l8,8m0,-8l-8,8M192,268l8,8m0,-8l-8,8M192,255l8,8m0,-8l-8,8M192,252l8,8m0,-8l-8,8M192,250l8,8m0,-8l-8,8M192,249l8,8m0,-8l-8,8M192,250l8,8m0,-8l-8,8M192,246l8,8m0,-8l-8,8M192,247l8,8m0,-8l-8,8M192,246l8,8m0,-8l-8,8M192,245l8,8m0,-8l-8,8M192,246l8,8m0,-8l-8,8M192,248l8,8m0,-8l-8,8M192,242l8,8m0,-8l-8,8M192,242l8,8m0,-8l-8,8M192,244l8,8m0,-8l-8,8M192,244l8,8m0,-8l-8,8M192,243l8,8m0,-8l-8,8M192,242l8,8m0,-8l-8,8M192,240l8,8m0,-8l-8,8M192,240l8,8m0,-8l-8,8M192,241l8,8m0,-8l-8,8M192,241l8,8m0,-8l-8,8M192,235l8,8m0,-8l-8,8M192,238l8,8m0,-8l-8,8M192,238l8,8m0,-8l-8,8M192,238l8,8m0,-8l-8,8M192,238l8,8m0,-8l-8,8M192,236l8,8m0,-8l-8,8M192,237l8,8m0,-8l-8,8M192,236l8,8m0,-8l-8,8M192,236l8,8m0,-8l-8,8M192,238l8,8m0,-8l-8,8M192,236l8,8m0,-8l-8,8M192,238l8,8m0,-8l-8,8M192,60l8,8m0,-8l-8,8M192,60l8,8m0,-8l-8,8M192,59l8,8m0,-8l-8,8M192,59l8,8m0,-8l-8,8M192,59l8,8m0,-8l-8,8M192,60l8,8m0,-8l-8,8M192,60l8,8m0,-8l-8,8M192,59l8,8m0,-8l-8,8M192,55l8,8m0,-8l-8,8M192,55l8,8m0,-8l-8,8M192,53l8,8m0,-8l-8,8M192,52l8,8m0,-8l-8,8M192,54l8,8m0,-8l-8,8M192,54l8,8m0,-8l-8,8M192,54l8,8m0,-8l-8,8M192,50l8,8m0,-8l-8,8M192,48l8,8m0,-8l-8,8M192,47l8,8m0,-8l-8,8M192,44l8,8m0,-8l-8,8M192,41l8,8m0,-8l-8,8M192,37l8,8m0,-8l-8,8M192,34l8,8m0,-8l-8,8M192,19l8,8m0,-8l-8,8M215,283l8,8m0,-8l-8,8M215,268l8,8m0,-8l-8,8M215,265l8,8m0,-8l-8,8M215,258l8,8m0,-8l-8,8M215,253l8,8m0,-8l-8,8M215,252l8,8m0,-8l-8,8M215,253l8,8m0,-8l-8,8M215,252l8,8m0,-8l-8,8M215,249l8,8m0,-8l-8,8M215,247l8,8m0,-8l-8,8M215,246l8,8m0,-8l-8,8M215,245l8,8m0,-8l-8,8M215,246l8,8m0,-8l-8,8M215,248l8,8m0,-8l-8,8M215,242l8,8m0,-8l-8,8M215,242l8,8m0,-8l-8,8M215,244l8,8m0,-8l-8,8M215,244l8,8m0,-8l-8,8M215,243l8,8m0,-8l-8,8M215,239l8,8m0,-8l-8,8M215,240l8,8m0,-8l-8,8M215,240l8,8m0,-8l-8,8M215,241l8,8m0,-8l-8,8M215,241l8,8m0,-8l-8,8M215,239l8,8m0,-8l-8,8M215,241l8,8m0,-8l-8,8M215,241l8,8m0,-8l-8,8M215,241l8,8m0,-8l-8,8M215,241l8,8m0,-8l-8,8M215,239l8,8m0,-8l-8,8M215,240l8,8m0,-8l-8,8M215,236l8,8m0,-8l-8,8M215,236l8,8m0,-8l-8,8M215,238l8,8m0,-8l-8,8M215,236l8,8m0,-8l-8,8M215,238l8,8m0,-8l-8,8M215,238l8,8m0,-8l-8,8M215,238l8,8m0,-8l-8,8M215,237l8,8m0,-8l-8,8M215,237l8,8m0,-8l-8,8M215,237l8,8m0,-8l-8,8M215,238l8,8m0,-8l-8,8M215,238l8,8m0,-8l-8,8M215,238l8,8m0,-8l-8,8M215,236l8,8m0,-8l-8,8M215,236l8,8m0,-8l-8,8M215,234l8,8m0,-8l-8,8M215,233l8,8m0,-8l-8,8M215,235l8,8m0,-8l-8,8M215,235l8,8m0,-8l-8,8M215,235l8,8m0,-8l-8,8M215,235l8,8m0,-8l-8,8M215,235l8,8m0,-8l-8,8M215,235l8,8m0,-8l-8,8M215,235l8,8m0,-8l-8,8M215,233l8,8m0,-8l-8,8M215,233l8,8m0,-8l-8,8M215,235l8,8m0,-8l-8,8M215,233l8,8m0,-8l-8,8M215,235l8,8m0,-8l-8,8M215,234l8,8m0,-8l-8,8M215,234l8,8m0,-8l-8,8M215,235l8,8m0,-8l-8,8M215,235l8,8m0,-8l-8,8M215,233l8,8m0,-8l-8,8M215,234l8,8m0,-8l-8,8M215,63l8,8m0,-8l-8,8M215,61l8,8m0,-8l-8,8M215,63l8,8m0,-8l-8,8M215,63l8,8m0,-8l-8,8M215,61l8,8m0,-8l-8,8M215,63l8,8m0,-8l-8,8M215,63l8,8m0,-8l-8,8M215,63l8,8m0,-8l-8,8M215,61l8,8m0,-8l-8,8M215,61l8,8m0,-8l-8,8M215,62l8,8m0,-8l-8,8M215,62l8,8m0,-8l-8,8M215,63l8,8m0,-8l-8,8M215,63l8,8m0,-8l-8,8M215,59l8,8m0,-8l-8,8M215,59l8,8m0,-8l-8,8M215,60l8,8m0,-8l-8,8M215,58l8,8m0,-8l-8,8M215,58l8,8m0,-8l-8,8M215,60l8,8m0,-8l-8,8M215,59l8,8m0,-8l-8,8M215,56l8,8m0,-8l-8,8M215,55l8,8m0,-8l-8,8M215,56l8,8m0,-8l-8,8M215,55l8,8m0,-8l-8,8M215,57l8,8m0,-8l-8,8M215,56l8,8m0,-8l-8,8M215,55l8,8m0,-8l-8,8M215,55l8,8m0,-8l-8,8M215,55l8,8m0,-8l-8,8M215,56l8,8m0,-8l-8,8M215,55l8,8m0,-8l-8,8M215,56l8,8m0,-8l-8,8M215,57l8,8m0,-8l-8,8M215,57l8,8m0,-8l-8,8M215,51l8,8m0,-8l-8,8M215,54l8,8m0,-8l-8,8M215,53l8,8m0,-8l-8,8M215,53l8,8m0,-8l-8,8M215,52l8,8m0,-8l-8,8M215,53l8,8m0,-8l-8,8M215,54l8,8m0,-8l-8,8M215,51l8,8m0,-8l-8,8M215,50l8,8m0,-8l-8,8M215,48l8,8m0,-8l-8,8M215,49l8,8m0,-8l-8,8M215,50l8,8m0,-8l-8,8M215,46l8,8m0,-8l-8,8M215,48l8,8m0,-8l-8,8M215,47l8,8m0,-8l-8,8M215,48l8,8m0,-8l-8,8M215,37l8,8m0,-8l-8,8M215,34l8,8m0,-8l-8,8M215,31l8,8m0,-8l-8,8M239,298l8,8m0,-8l-8,8M239,265l8,8m0,-8l-8,8M239,258l8,8m0,-8l-8,8M239,256l8,8m0,-8l-8,8M239,255l8,8m0,-8l-8,8M239,256l8,8m0,-8l-8,8M239,252l8,8m0,-8l-8,8M239,249l8,8m0,-8l-8,8M239,251l8,8m0,-8l-8,8M239,249l8,8m0,-8l-8,8M239,249l8,8m0,-8l-8,8M239,249l8,8m0,-8l-8,8M239,251l8,8m0,-8l-8,8M239,248l8,8m0,-8l-8,8M239,248l8,8m0,-8l-8,8M239,246l8,8m0,-8l-8,8M239,244l8,8m0,-8l-8,8M239,244l8,8m0,-8l-8,8M239,243l8,8m0,-8l-8,8M239,242l8,8m0,-8l-8,8M239,243l8,8m0,-8l-8,8M239,240l8,8m0,-8l-8,8M239,241l8,8m0,-8l-8,8M239,241l8,8m0,-8l-8,8M239,239l8,8m0,-8l-8,8M239,241l8,8m0,-8l-8,8M239,241l8,8m0,-8l-8,8M239,241l8,8m0,-8l-8,8M239,241l8,8m0,-8l-8,8M239,239l8,8m0,-8l-8,8M239,237l8,8m0,-8l-8,8M239,236l8,8m0,-8l-8,8M239,236l8,8m0,-8l-8,8M239,238l8,8m0,-8l-8,8M239,236l8,8m0,-8l-8,8M239,238l8,8m0,-8l-8,8M239,238l8,8m0,-8l-8,8M239,238l8,8m0,-8l-8,8M239,237l8,8m0,-8l-8,8M239,237l8,8m0,-8l-8,8M239,234l8,8m0,-8l-8,8M239,235l8,8m0,-8l-8,8M239,235l8,8m0,-8l-8,8M239,234l8,8m0,-8l-8,8M239,233l8,8m0,-8l-8,8M239,233l8,8m0,-8l-8,8M239,234l8,8m0,-8l-8,8M239,233l8,8m0,-8l-8,8M239,235l8,8m0,-8l-8,8M239,235l8,8m0,-8l-8,8M239,235l8,8m0,-8l-8,8M239,235l8,8m0,-8l-8,8M239,235l8,8m0,-8l-8,8M239,235l8,8m0,-8l-8,8M239,235l8,8m0,-8l-8,8M239,233l8,8m0,-8l-8,8M239,233l8,8m0,-8l-8,8M239,60l8,8m0,-8l-8,8M239,58l8,8m0,-8l-8,8M239,60l8,8m0,-8l-8,8M239,59l8,8m0,-8l-8,8M239,59l8,8m0,-8l-8,8M239,60l8,8m0,-8l-8,8M239,60l8,8m0,-8l-8,8M239,58l8,8m0,-8l-8,8M239,59l8,8m0,-8l-8,8M239,60l8,8m0,-8l-8,8M239,58l8,8m0,-8l-8,8M239,60l8,8m0,-8l-8,8M239,60l8,8m0,-8l-8,8M239,58l8,8m0,-8l-8,8M239,59l8,8m0,-8l-8,8M239,60l8,8m0,-8l-8,8M239,59l8,8m0,-8l-8,8M239,55l8,8m0,-8l-8,8M239,55l8,8m0,-8l-8,8M239,56l8,8m0,-8l-8,8M239,56l8,8m0,-8l-8,8M239,57l8,8m0,-8l-8,8M239,54l8,8m0,-8l-8,8M239,53l8,8m0,-8l-8,8M239,53l8,8m0,-8l-8,8M239,54l8,8m0,-8l-8,8M239,49l8,8m0,-8l-8,8M239,49l8,8m0,-8l-8,8M239,51l8,8m0,-8l-8,8M239,47l8,8m0,-8l-8,8M239,47l8,8m0,-8l-8,8M239,41l8,8m0,-8l-8,8M239,37l8,8m0,-8l-8,8M239,28l8,8m0,-8l-8,8M262,262l8,8m0,-8l-8,8M262,261l8,8m0,-8l-8,8M262,258l8,8m0,-8l-8,8M262,252l8,8m0,-8l-8,8M262,250l8,8m0,-8l-8,8M262,249l8,8m0,-8l-8,8M262,251l8,8m0,-8l-8,8M262,249l8,8m0,-8l-8,8M262,245l8,8m0,-8l-8,8M262,246l8,8m0,-8l-8,8M262,245l8,8m0,-8l-8,8M262,242l8,8m0,-8l-8,8M262,242l8,8m0,-8l-8,8M262,244l8,8m0,-8l-8,8M262,241l8,8m0,-8l-8,8M262,240l8,8m0,-8l-8,8M262,239l8,8m0,-8l-8,8M262,240l8,8m0,-8l-8,8M262,240l8,8m0,-8l-8,8M262,241l8,8m0,-8l-8,8M262,241l8,8m0,-8l-8,8M262,239l8,8m0,-8l-8,8M262,238l8,8m0,-8l-8,8M262,238l8,8m0,-8l-8,8M262,238l8,8m0,-8l-8,8M262,238l8,8m0,-8l-8,8M262,236l8,8m0,-8l-8,8M262,237l8,8m0,-8l-8,8M262,236l8,8m0,-8l-8,8M262,236l8,8m0,-8l-8,8M262,238l8,8m0,-8l-8,8M262,236l8,8m0,-8l-8,8M262,238l8,8m0,-8l-8,8M262,238l8,8m0,-8l-8,8M262,238l8,8m0,-8l-8,8M262,59l8,8m0,-8l-8,8M262,59l8,8m0,-8l-8,8M262,59l8,8m0,-8l-8,8M262,60l8,8m0,-8l-8,8M262,60l8,8m0,-8l-8,8M262,59l8,8m0,-8l-8,8M262,58l8,8m0,-8l-8,8M262,58l8,8m0,-8l-8,8M262,59l8,8m0,-8l-8,8M262,55l8,8m0,-8l-8,8M262,57l8,8m0,-8l-8,8M262,57l8,8m0,-8l-8,8M262,57l8,8m0,-8l-8,8M262,54l8,8m0,-8l-8,8M262,53l8,8m0,-8l-8,8M262,54l8,8m0,-8l-8,8M262,54l8,8m0,-8l-8,8M262,51l8,8m0,-8l-8,8M262,52l8,8m0,-8l-8,8M262,54l8,8m0,-8l-8,8M262,52l8,8m0,-8l-8,8M262,50l8,8m0,-8l-8,8M262,50l8,8m0,-8l-8,8M262,46l8,8m0,-8l-8,8M262,48l8,8m0,-8l-8,8M262,45l8,8m0,-8l-8,8M262,42l8,8m0,-8l-8,8M262,44l8,8m0,-8l-8,8M262,36l8,8m0,-8l-8,8M262,34l8,8m0,-8l-8,8M262,29l8,8m0,-8l-8,8M262,29l8,8m0,-8l-8,8M262,25l8,8m0,-8l-8,8M285,268l8,8m0,-8l-8,8M285,255l8,8m0,-8l-8,8M285,246l8,8m0,-8l-8,8M285,244l8,8m0,-8l-8,8M285,243l8,8m0,-8l-8,8M285,244l8,8m0,-8l-8,8M285,243l8,8m0,-8l-8,8M285,244l8,8m0,-8l-8,8M285,242l8,8m0,-8l-8,8M285,239l8,8m0,-8l-8,8M285,240l8,8m0,-8l-8,8M285,242l8,8m0,-8l-8,8M285,239l8,8m0,-8l-8,8M285,236l8,8m0,-8l-8,8M285,238l8,8m0,-8l-8,8M285,238l8,8m0,-8l-8,8M285,237l8,8m0,-8l-8,8M285,236l8,8m0,-8l-8,8M285,237l8,8m0,-8l-8,8M285,234l8,8m0,-8l-8,8M285,235l8,8m0,-8l-8,8M285,235l8,8m0,-8l-8,8M285,232l8,8m0,-8l-8,8M285,235l8,8m0,-8l-8,8M285,235l8,8m0,-8l-8,8M285,235l8,8m0,-8l-8,8M285,235l8,8m0,-8l-8,8M285,233l8,8m0,-8l-8,8M285,234l8,8m0,-8l-8,8M285,233l8,8m0,-8l-8,8M285,62l8,8m0,-8l-8,8M285,58l8,8m0,-8l-8,8M285,60l8,8m0,-8l-8,8M285,58l8,8m0,-8l-8,8M285,60l8,8m0,-8l-8,8M285,56l8,8m0,-8l-8,8M285,54l8,8m0,-8l-8,8M285,54l8,8m0,-8l-8,8M285,53l8,8m0,-8l-8,8M285,53l8,8m0,-8l-8,8M285,50l8,8m0,-8l-8,8M285,47l8,8m0,-8l-8,8M285,48l8,8m0,-8l-8,8M285,34l8,8m0,-8l-8,8M285,31l8,8m0,-8l-8,8M308,255l8,8m0,-8l-8,8M308,253l8,8m0,-8l-8,8M308,252l8,8m0,-8l-8,8M308,253l8,8m0,-8l-8,8M308,249l8,8m0,-8l-8,8M308,246l8,8m0,-8l-8,8M308,243l8,8m0,-8l-8,8M308,237l8,8m0,-8l-8,8M308,238l8,8m0,-8l-8,8M308,236l8,8m0,-8l-8,8M308,236l8,8m0,-8l-8,8M308,62l8,8m0,-8l-8,8M308,59l8,8m0,-8l-8,8M308,60l8,8m0,-8l-8,8M308,58l8,8m0,-8l-8,8M308,58l8,8m0,-8l-8,8M308,57l8,8m0,-8l-8,8M308,57l8,8m0,-8l-8,8M308,56l8,8m0,-8l-8,8M308,55l8,8m0,-8l-8,8M308,53l8,8m0,-8l-8,8M308,53l8,8m0,-8l-8,8M308,54l8,8m0,-8l-8,8M308,50l8,8m0,-8l-8,8M308,41l8,8m0,-8l-8,8M308,31l8,8m0,-8l-8,8M331,255l8,8m0,-8l-8,8M331,240l8,8m0,-8l-8,8M331,237l8,8m0,-8l-8,8M331,60l8,8m0,-8l-8,8M331,59l8,8m0,-8l-8,8M331,59l8,8m0,-8l-8,8M331,55l8,8m0,-8l-8,8M331,57l8,8m0,-8l-8,8M331,55l8,8m0,-8l-8,8M331,52l8,8m0,-8l-8,8M331,53l8,8m0,-8l-8,8M354,262l8,8m0,-8l-8,8M354,240l8,8m0,-8l-8,8M354,238l8,8m0,-8l-8,8M354,237l8,8m0,-8l-8,8M354,234l8,8m0,-8l-8,8M354,233l8,8m0,-8l-8,8" style="stroke: #00009a; fill: none;"></path>
      </g>
     </svg>
     <g>
      <g transform="translate(0,307)">
       <path d="M0,0h461" style="stroke: black; stroke-width: 1;"></path>
       <path d="M0,-12v12m9,-6v6m9,-6v6m10,-6v6m9,-6v6m9,-12v12m9,-6v6m10,-6v6m9,-6v6m9,-6v6m9,-12v12m9,-6v6m10,-6v6m9,-6v6m9,-6v6m9,-12v12m10,-6v6m9,-6v6m9,-6v6m9,-6v6m9,-12v12m10,-6v6m9,-6v6m9,-6v6m9,-6v6m10,-12v12m9,-6v6m9,-6v6m9,-6v6m9,-6v6m10,-12v12m9,-6v6m9,-6v6m9,-6v6m9,-6v6m10,-12v12m9,-6v6m9,-6v6m9,-6v6m10,-6v6m9,-12v12m9,-6v6m9,-6v6m9,-6v6m10,-6v6m9,-12v12m9,-6v6m9,-6v6m10,-6v6m9,-6v6m9,-12v12" style="stroke: black; stroke-width: 1;"></path>
       <g font-family="Arial" font-size="13" space="preserve" fill="black" text-anchor="middle">
        <text dy=".8em" transform="translate(0,4)">
         -5
        </text>
        <text dy=".8em" transform="translate(46,4)">
         -4
        </text>
        <text dy=".8em" transform="translate(92,4)">
         -3
        </text>
        <text dy=".8em" transform="translate(138,4)">
         -2
        </text>
        <text dy=".8em" transform="translate(184,4)">
         -1
        </text>
        <text dy=".8em" transform="translate(231,4)">
         0
        </text>
        <text dy=".8em" transform="translate(277,4)">
         1
        </text>
        <text dy=".8em" transform="translate(323,4)">
         2
        </text>
        <text dy=".8em" transform="translate(369,4)">
         3
        </text>
        <text dy=".8em" transform="translate(415,4)">
         4
        </text>
        <text dy=".8em" transform="translate(461,4)">
         5
        </text>
       </g>
      </g>
      <g>
       <path d="M0,0v307" style="stroke: black; stroke-width: 1;"></path>
       <path d="M17,307h-17m9,-6h-9m9,-6h-9m9,-6h-9m9,-7h-9m17,-6h-17m9,-6h-9m9,-6h-9m9,-6h-9m9,-6h-9m17,-6h-17m9,-7h-9m9,-6h-9m9,-6h-9m9,-6h-9m17,-6h-17m9,-6h-9m9,-6h-9m9,-7h-9m9,-6h-9m17,-6h-17m9,-6h-9m9,-6h-9m9,-6h-9m9,-6h-9m17,-6h-17m9,-7h-9m9,-6h-9m9,-6h-9m9,-6h-9m17,-6h-17m9,-6h-9m9,-6h-9m9,-7h-9m9,-6h-9m17,-6h-17m9,-6h-9m9,-6h-9m9,-6h-9m9,-6h-9m17,-7h-17m9,-6h-9m9,-6h-9m9,-6h-9m9,-6h-9m17,-6h-17m9,-6h-9m9,-7h-9m9,-6h-9m9,-6h-9m17,-6h-17" style="stroke: black; stroke-width: 1;"></path>
       <g font-family="Arial" font-size="13" space="preserve" fill="black" text-anchor="end">
        <text dy=".4em" transform="translate(-2,307)">
         -5
        </text>
        <text dy=".4em" transform="translate(-2,276)">
         -4
        </text>
        <text dy=".4em" transform="translate(-2,246)">
         -3
        </text>
        <text dy=".4em" transform="translate(-2,215)">
         -2
        </text>
        <text dy=".4em" transform="translate(-2,184)">
         -1
        </text>
        <text dy=".4em" transform="translate(-2,154)">
         0
        </text>
        <text dy=".4em" transform="translate(-2,123)">
         1
        </text>
        <text dy=".4em" transform="translate(-2,92)">
         2
        </text>
        <text dy=".4em" transform="translate(-2,61)">
         3
        </text>
        <text dy=".4em" transform="translate(-2,31)">
         4
        </text>
        <text dy=".4em" transform="translate(-2)">
         5
        </text>
       </g>
      </g>
     </g>
    </g>
    <g transform="translate(58,2)" font-family="Arial" font-size="19" space="preserve">
     <path d="M0,0H461V26H0Z" style="fill: none;"></path>
     <text fill="black" text-anchor="middle" dy=".8em" transform="translate(231)">
      CandleX scaled
     </text>
    </g>
    <g transform="translate(449,25)" font-family="Arial" font-size="10" space="preserve" fill="black">
     <path d="M0,0H115V102H0Z" style="fill: white; stroke: black; stroke-width: 1;"></path>
     <text text-anchor="middle" dy=".4em" transform="translate(58,9)">
      h1_copy
     </text>
     <text text-anchor="start" dy=".4em" transform="translate(6,26)">
      Entries
     </text>
     <text text-anchor="end" dy=".4em" transform="translate(109,26)">
      100000
     </text>
     <text text-anchor="start" dy=".4em" transform="translate(6,43)">
      Mean x
     </text>
     <text text-anchor="end" dy=".4em" transform="translate(109,43)">
      -0.004002
     </text>
     <text text-anchor="start" dy=".4em" transform="translate(6,60)">
      Mean y
     </text>
     <text text-anchor="end" dy=".4em" transform="translate(109,60)">
      0.003930
     </text>
     <text text-anchor="start" dy=".4em" transform="translate(6,77)">
      Std Dev x
     </text>
     <text text-anchor="end" dy=".4em" transform="translate(109,77)">
      0.9997
     </text>
     <text text-anchor="start" dy=".4em" transform="translate(6,94)">
      Std Dev y
     </text>
     <text text-anchor="end" dy=".4em" transform="translate(109,94)">
      1.002
     </text>
     <path d="M0,17h115" style="stroke: black; stroke-width: 1;"></path>
    </g>
   </g>
  </svg>
  <svg viewBox="0 0 576 384" preserveAspectRatio="none" x="612" y="8" width="576" height="384">
   <path d="M0,0H576V384H0Z" style="fill: white;"></path>
   <g>
    <g transform="translate(58,38)">
     <title></title>
     <path d="M0,0H461V307H0Z" style="fill: white; stroke: black; stroke-width: 1;"></path>
     <svg x="0" y="0" overflow="hidden" width="461" height="307" viewBox="0 0 461 307">
      <g>
       <path d="M234,299h-2v1h2zM213,284h-62h62zM265,268h-69v1h69zM264,253h-66v1h66zM262,238h-64h64zM259,222h-59v1h59zM262,206h-62v3h62zM263,189h-63v6h63zM262,173h-64v7h64zM260,157h-61v9h61zM262,141h-62v10h62zM261,127h-62v7h62zM261,112h-61v6h61zM262,98h-63v3h63zM262,84h-64v1h64zM262,69h-64h64zM270,53h-59v1h59zM272,38h-71v1h71zM221,23h-44h44z" style="stroke: #00009a; stroke-width: 1; fill: none;"></path>
       <path d="M233,299v1M235,299v1M231,299v1M234,300h1M232,300h-1M191,284M217,284M148,284M213,284h4M151,284h-3M237,268v1M355,268v1M161,268v1M265,269h90M196,269h-35M230,253v1M337,253v1M115,253v1M264,254h73M198,254h-83M229,238M360,238M101,238M262,238h98M198,238h-97M230,222v1M355,222v1M111,222v1M259,223h96M200,223h-89M231,206v3M360,206v3M106,206v3M262,208h98M200,208h-94M232,189v6M364,189v6M106,189v6M263,192h101M200,192h-94M230,173v7M364,173v7M101,173v7M262,177h102M198,177h-97M230,157v9M360,157v9M106,157v9M260,162h100M199,162h-93M231,141v10M360,141v10M106,141v10M262,146h98M200,146h-94M230,127v7M360,127v7M101,127v7M261,131h99M199,131h-98M231,112v6M360,112v6M106,112v6M261,115h99M200,115h-94M230,98v3M364,98v3M101,98v3M262,100h102M199,100h-98M231,84v1M364,84v1M101,84v1M262,85h102M198,85h-97M230,69M337,69M106,69M262,69h75M198,69h-92M231,53v1M341,53v1M134,53v1M270,54h71M211,54h-77M237,38v1M318,38v1M129,38v1M272,39h46M201,39h-72M182,23M258,23M175,23M221,23h37M177,23h-2" style="stroke: #00009a; stroke-width: 1; fill: none;"></path>
       <path d="M233,299v1M185,284M235,268v1M229,253v1M230,238M230,222v1M230,206v3M231,189v6M230,173v7M230,157v9M231,141v10M230,127v7M230,112v6M230,98v3M231,84v1M228,69M239,53v1M234,38v1M199,23" style="stroke: #00009a; stroke-width: 1; stroke-dasharray: 3,3; fill: none;"></path>
       <path d="M81,234l8,8m0,-8l-8,8M86,234l8,8m0,-8l-8,8M91,234l8,8m0,-8l-8,8M362,234l8,8m0,-8l-8,8M63,219l8,8m0,-8l-8,8M86,219l8,8m0,-8l-8,8M100,219l8,8m0,-8l-8,8M104,219l8,8m0,-8l-8,8M352,219l8,8m0,-8l-8,8M354,219l8,8m0,-8l-8,8M357,219l8,8m0,-8l-8,8M359,219l8,8m0,-8l-8,8M362,219l8,8m0,-8l-8,8M63,204l8,8m0,-8l-8,8M80,204l8,8m0,-8l-8,8M82,204l8,8m0,-8l-8,8M85,204l8,8m0,-8l-8,8M87,204l8,8m0,-8l-8,8M89,204l8,8m0,-8l-8,8M92,204l8,8m0,-8l-8,8M92,204l8,8m0,-8l-8,8M95,204l8,8m0,-8l-8,8M93,204l8,8m0,-8l-8,8M97,204l8,8m0,-8l-8,8M97,204l8,8m0,-8l-8,8M93,204l8,8m0,-8l-8,8M100,204l8,8m0,-8l-8,8M356,204l8,8m0,-8l-8,8M358,204l8,8m0,-8l-8,8M359,204l8,8m0,-8l-8,8M358,204l8,8m0,-8l-8,8M362,204l8,8m0,-8l-8,8M361,204l8,8m0,-8l-8,8M375,204l8,8m0,-8l-8,8M379,204l8,8m0,-8l-8,8M390,204l8,8m0,-8l-8,8M58,188l8,8m0,-8l-8,8M67,188l8,8m0,-8l-8,8M71,188l8,8m0,-8l-8,8M72,188l8,8m0,-8l-8,8M76,188l8,8m0,-8l-8,8M77,188l8,8m0,-8l-8,8M75,188l8,8m0,-8l-8,8M82,188l8,8m0,-8l-8,8M82,188l8,8m0,-8l-8,8M81,188l8,8m0,-8l-8,8M79,188l8,8m0,-8l-8,8M88,188l8,8m0,-8l-8,8M88,188l8,8m0,-8l-8,8M84,188l8,8m0,-8l-8,8M89,188l8,8m0,-8l-8,8M91,188l8,8m0,-8l-8,8M92,188l8,8m0,-8l-8,8M90,188l8,8m0,-8l-8,8M95,188l8,8m0,-8l-8,8M94,188l8,8m0,-8l-8,8M94,188l8,8m0,-8l-8,8M97,188l8,8m0,-8l-8,8M93,188l8,8m0,-8l-8,8M93,188l8,8m0,-8l-8,8M94,188l8,8m0,-8l-8,8M98,188l8,8m0,-8l-8,8M101,188l8,8m0,-8l-8,8M99,188l8,8m0,-8l-8,8M101,188l8,8m0,-8l-8,8M101,188l8,8m0,-8l-8,8M98,188l8,8m0,-8l-8,8M100,188l8,8m0,-8l-8,8M360,188l8,8m0,-8l-8,8M360,188l8,8m0,-8l-8,8M360,188l8,8m0,-8l-8,8M363,188l8,8m0,-8l-8,8M367,188l8,8m0,-8l-8,8M367,188l8,8m0,-8l-8,8M365,188l8,8m0,-8l-8,8M372,188l8,8m0,-8l-8,8M376,188l8,8m0,-8l-8,8M380,188l8,8m0,-8l-8,8M380,188l8,8m0,-8l-8,8M383,188l8,8m0,-8l-8,8M386,188l8,8m0,-8l-8,8M390,188l8,8m0,-8l-8,8M44,173l8,8m0,-8l-8,8M49,173l8,8m0,-8l-8,8M62,173l8,8m0,-8l-8,8M63,173l8,8m0,-8l-8,8M67,173l8,8m0,-8l-8,8M68,173l8,8m0,-8l-8,8M66,173l8,8m0,-8l-8,8M68,173l8,8m0,-8l-8,8M72,173l8,8m0,-8l-8,8M78,173l8,8m0,-8l-8,8M77,173l8,8m0,-8l-8,8M79,173l8,8m0,-8l-8,8M83,173l8,8m0,-8l-8,8M83,173l8,8m0,-8l-8,8M80,173l8,8m0,-8l-8,8M80,173l8,8m0,-8l-8,8M86,173l8,8m0,-8l-8,8M87,173l8,8m0,-8l-8,8M86,173l8,8m0,-8l-8,8M85,173l8,8m0,-8l-8,8M89,173l8,8m0,-8l-8,8M89,173l8,8m0,-8l-8,8M93,173l8,8m0,-8l-8,8M89,173l8,8m0,-8l-8,8M89,173l8,8m0,-8l-8,8M89,173l8,8m0,-8l-8,8M89,173l8,8m0,-8l-8,8M92,173l8,8m0,-8l-8,8M90,173l8,8m0,-8l-8,8M96,173l8,8m0,-8l-8,8M97,173l8,8m0,-8l-8,8M94,173l8,8m0,-8l-8,8M96,173l8,8m0,-8l-8,8M93,173l8,8m0,-8l-8,8M93,173l8,8m0,-8l-8,8M93,173l8,8m0,-8l-8,8M95,173l8,8m0,-8l-8,8M363,173l8,8m0,-8l-8,8M362,173l8,8m0,-8l-8,8M360,173l8,8m0,-8l-8,8M362,173l8,8m0,-8l-8,8M362,173l8,8m0,-8l-8,8M364,173l8,8m0,-8l-8,8M364,173l8,8m0,-8l-8,8M362,173l8,8m0,-8l-8,8M363,173l8,8m0,-8l-8,8M361,173l8,8m0,-8l-8,8M360,173l8,8m0,-8l-8,8M365,173l8,8m0,-8l-8,8M365,173l8,8m0,-8l-8,8M366,173l8,8m0,-8l-8,8M365,173l8,8m0,-8l-8,8M366,173l8,8m0,-8l-8,8M369,173l8,8m0,-8l-8,8M369,173l8,8m0,-8l-8,8M366,173l8,8m0,-8l-8,8M369,173l8,8m0,-8l-8,8M366,173l8,8m0,-8l-8,8M367,173l8,8m0,-8l-8,8M368,173l8,8m0,-8l-8,8M370,173l8,8m0,-8l-8,8M370,173l8,8m0,-8l-8,8M374,173l8,8m0,-8l-8,8M376,173l8,8m0,-8l-8,8M374,173l8,8m0,-8l-8,8M377,173l8,8m0,-8l-8,8M374,173l8,8m0,-8l-8,8M375,173l8,8m0,-8l-8,8M378,173l8,8m0,-8l-8,8M376,173l8,8m0,-8l-8,8M384,173l8,8m0,-8l-8,8M385,173l8,8m0,-8l-8,8M387,173l8,8m0,-8l-8,8M388,173l8,8m0,-8l-8,8M390,173l8,8m0,-8l-8,8M409,173l8,8m0,-8l-8,8M3,158l8,8m0,-8l-8,8M63,158l8,8m0,-8l-8,8M66,158l8,8m0,-8l-8,8M68,158l8,8m0,-8l-8,8M67,158l8,8m0,-8l-8,8M73,158l8,8m0,-8l-8,8M70,158l8,8m0,-8l-8,8M73,158l8,8m0,-8l-8,8M73,158l8,8m0,-8l-8,8M77,158l8,8m0,-8l-8,8M74,158l8,8m0,-8l-8,8M78,158l8,8m0,-8l-8,8M83,158l8,8m0,-8l-8,8M80,158l8,8m0,-8l-8,8M80,158l8,8m0,-8l-8,8M82,158l8,8m0,-8l-8,8M87,158l8,8m0,-8l-8,8M86,158l8,8m0,-8l-8,8M85,158l8,8m0,-8l-8,8M89,158l8,8m0,-8l-8,8M89,158l8,8m0,-8l-8,8M93,158l8,8m0,-8l-8,8M89,158l8,8m0,-8l-8,8M89,158l8,8m0,-8l-8,8M89,158l8,8m0,-8l-8,8M89,158l8,8m0,-8l-8,8M92,158l8,8m0,-8l-8,8M94,158l8,8m0,-8l-8,8M96,158l8,8m0,-8l-8,8M97,158l8,8m0,-8l-8,8M94,158l8,8m0,-8l-8,8M96,158l8,8m0,-8l-8,8M93,158l8,8m0,-8l-8,8M93,158l8,8m0,-8l-8,8M93,158l8,8m0,-8l-8,8M95,158l8,8m0,-8l-8,8M95,158l8,8m0,-8l-8,8M95,158l8,8m0,-8l-8,8M93,158l8,8m0,-8l-8,8M94,158l8,8m0,-8l-8,8M94,158l8,8m0,-8l-8,8M97,158l8,8m0,-8l-8,8M97,158l8,8m0,-8l-8,8M95,158l8,8m0,-8l-8,8M96,158l8,8m0,-8l-8,8M98,158l8,8m0,-8l-8,8M97,158l8,8m0,-8l-8,8M98,158l8,8m0,-8l-8,8M98,158l8,8m0,-8l-8,8M99,158l8,8m0,-8l-8,8M98,158l8,8m0,-8l-8,8M98,158l8,8m0,-8l-8,8M102,158l8,8m0,-8l-8,8M102,158l8,8m0,-8l-8,8M98,158l8,8m0,-8l-8,8M101,158l8,8m0,-8l-8,8M99,158l8,8m0,-8l-8,8M100,158l8,8m0,-8l-8,8M100,158l8,8m0,-8l-8,8M356,158l8,8m0,-8l-8,8M356,158l8,8m0,-8l-8,8M360,158l8,8m0,-8l-8,8M358,158l8,8m0,-8l-8,8M356,158l8,8m0,-8l-8,8M359,158l8,8m0,-8l-8,8M356,158l8,8m0,-8l-8,8M356,158l8,8m0,-8l-8,8M360,158l8,8m0,-8l-8,8M357,158l8,8m0,-8l-8,8M357,158l8,8m0,-8l-8,8M357,158l8,8m0,-8l-8,8M364,158l8,8m0,-8l-8,8M364,158l8,8m0,-8l-8,8M362,158l8,8m0,-8l-8,8M363,158l8,8m0,-8l-8,8M361,158l8,8m0,-8l-8,8M361,158l8,8m0,-8l-8,8M362,158l8,8m0,-8l-8,8M362,158l8,8m0,-8l-8,8M361,158l8,8m0,-8l-8,8M364,158l8,8m0,-8l-8,8M363,158l8,8m0,-8l-8,8M365,158l8,8m0,-8l-8,8M367,158l8,8m0,-8l-8,8M366,158l8,8m0,-8l-8,8M368,158l8,8m0,-8l-8,8M367,158l8,8m0,-8l-8,8M369,158l8,8m0,-8l-8,8M365,158l8,8m0,-8l-8,8M372,158l8,8m0,-8l-8,8M377,158l8,8m0,-8l-8,8M377,158l8,8m0,-8l-8,8M377,158l8,8m0,-8l-8,8M382,158l8,8m0,-8l-8,8M380,158l8,8m0,-8l-8,8M382,158l8,8m0,-8l-8,8M385,158l8,8m0,-8l-8,8M383,158l8,8m0,-8l-8,8M394,158l8,8m0,-8l-8,8M397,158l8,8m0,-8l-8,8M393,158l8,8m0,-8l-8,8M399,158l8,8m0,-8l-8,8M413,158l8,8m0,-8l-8,8M54,142l8,8m0,-8l-8,8M66,142l8,8m0,-8l-8,8M68,142l8,8m0,-8l-8,8M67,142l8,8m0,-8l-8,8M68,142l8,8m0,-8l-8,8M70,142l8,8m0,-8l-8,8M73,142l8,8m0,-8l-8,8M73,142l8,8m0,-8l-8,8M72,142l8,8m0,-8l-8,8M70,142l8,8m0,-8l-8,8M74,142l8,8m0,-8l-8,8M79,142l8,8m0,-8l-8,8M75,142l8,8m0,-8l-8,8M75,142l8,8m0,-8l-8,8M77,142l8,8m0,-8l-8,8M83,142l8,8m0,-8l-8,8M81,142l8,8m0,-8l-8,8M81,142l8,8m0,-8l-8,8M80,142l8,8m0,-8l-8,8M80,142l8,8m0,-8l-8,8M84,142l8,8m0,-8l-8,8M79,142l8,8m0,-8l-8,8M84,142l8,8m0,-8l-8,8M85,142l8,8m0,-8l-8,8M84,142l8,8m0,-8l-8,8M87,142l8,8m0,-8l-8,8M85,142l8,8m0,-8l-8,8M87,142l8,8m0,-8l-8,8M87,142l8,8m0,-8l-8,8M84,142l8,8m0,-8l-8,8M87,142l8,8m0,-8l-8,8M84,142l8,8m0,-8l-8,8M89,142l8,8m0,-8l-8,8M88,142l8,8m0,-8l-8,8M91,142l8,8m0,-8l-8,8M91,142l8,8m0,-8l-8,8M90,142l8,8m0,-8l-8,8M88,142l8,8m0,-8l-8,8M90,142l8,8m0,-8l-8,8M90,142l8,8m0,-8l-8,8M92,142l8,8m0,-8l-8,8M92,142l8,8m0,-8l-8,8M90,142l8,8m0,-8l-8,8M96,142l8,8m0,-8l-8,8M93,142l8,8m0,-8l-8,8M93,142l8,8m0,-8l-8,8M93,142l8,8m0,-8l-8,8M93,142l8,8m0,-8l-8,8M94,142l8,8m0,-8l-8,8M93,142l8,8m0,-8l-8,8M94,142l8,8m0,-8l-8,8M97,142l8,8m0,-8l-8,8M97,142l8,8m0,-8l-8,8M94,142l8,8m0,-8l-8,8M97,142l8,8m0,-8l-8,8M94,142l8,8m0,-8l-8,8M95,142l8,8m0,-8l-8,8M96,142l8,8m0,-8l-8,8M93,142l8,8m0,-8l-8,8M98,142l8,8m0,-8l-8,8M102,142l8,8m0,-8l-8,8M99,142l8,8m0,-8l-8,8M98,142l8,8m0,-8l-8,8M101,142l8,8m0,-8l-8,8M98,142l8,8m0,-8l-8,8M98,142l8,8m0,-8l-8,8M102,142l8,8m0,-8l-8,8M99,142l8,8m0,-8l-8,8M98,142l8,8m0,-8l-8,8M357,142l8,8m0,-8l-8,8M360,142l8,8m0,-8l-8,8M360,142l8,8m0,-8l-8,8M357,142l8,8m0,-8l-8,8M358,142l8,8m0,-8l-8,8M356,142l8,8m0,-8l-8,8M356,142l8,8m0,-8l-8,8M357,142l8,8m0,-8l-8,8M358,142l8,8m0,-8l-8,8M356,142l8,8m0,-8l-8,8M360,142l8,8m0,-8l-8,8M359,142l8,8m0,-8l-8,8M356,142l8,8m0,-8l-8,8M358,142l8,8m0,-8l-8,8M357,142l8,8m0,-8l-8,8M359,142l8,8m0,-8l-8,8M358,142l8,8m0,-8l-8,8M360,142l8,8m0,-8l-8,8M356,142l8,8m0,-8l-8,8M358,142l8,8m0,-8l-8,8M363,142l8,8m0,-8l-8,8M363,142l8,8m0,-8l-8,8M363,142l8,8m0,-8l-8,8M362,142l8,8m0,-8l-8,8M364,142l8,8m0,-8l-8,8M367,142l8,8m0,-8l-8,8M365,142l8,8m0,-8l-8,8M366,142l8,8m0,-8l-8,8M369,142l8,8m0,-8l-8,8M366,142l8,8m0,-8l-8,8M366,142l8,8m0,-8l-8,8M371,142l8,8m0,-8l-8,8M373,142l8,8m0,-8l-8,8M372,142l8,8m0,-8l-8,8M376,142l8,8m0,-8l-8,8M380,142l8,8m0,-8l-8,8M379,142l8,8m0,-8l-8,8M386,142l8,8m0,-8l-8,8M390,142l8,8m0,-8l-8,8M392,142l8,8m0,-8l-8,8M49,127l8,8m0,-8l-8,8M54,127l8,8m0,-8l-8,8M62,127l8,8m0,-8l-8,8M63,127l8,8m0,-8l-8,8M67,127l8,8m0,-8l-8,8M72,127l8,8m0,-8l-8,8M76,127l8,8m0,-8l-8,8M77,127l8,8m0,-8l-8,8M75,127l8,8m0,-8l-8,8M78,127l8,8m0,-8l-8,8M78,127l8,8m0,-8l-8,8M77,127l8,8m0,-8l-8,8M79,127l8,8m0,-8l-8,8M83,127l8,8m0,-8l-8,8M88,127l8,8m0,-8l-8,8M84,127l8,8m0,-8l-8,8M84,127l8,8m0,-8l-8,8M86,127l8,8m0,-8l-8,8M87,127l8,8m0,-8l-8,8M86,127l8,8m0,-8l-8,8M85,127l8,8m0,-8l-8,8M84,127l8,8m0,-8l-8,8M85,127l8,8m0,-8l-8,8M88,127l8,8m0,-8l-8,8M84,127l8,8m0,-8l-8,8M89,127l8,8m0,-8l-8,8M89,127l8,8m0,-8l-8,8M89,127l8,8m0,-8l-8,8M92,127l8,8m0,-8l-8,8M90,127l8,8m0,-8l-8,8M92,127l8,8m0,-8l-8,8M92,127l8,8m0,-8l-8,8M94,127l8,8m0,-8l-8,8M96,127l8,8m0,-8l-8,8M93,127l8,8m0,-8l-8,8M93,127l8,8m0,-8l-8,8M93,127l8,8m0,-8l-8,8M358,127l8,8m0,-8l-8,8M358,127l8,8m0,-8l-8,8M357,127l8,8m0,-8l-8,8M356,127l8,8m0,-8l-8,8M357,127l8,8m0,-8l-8,8M357,127l8,8m0,-8l-8,8M360,127l8,8m0,-8l-8,8M359,127l8,8m0,-8l-8,8M358,127l8,8m0,-8l-8,8M363,127l8,8m0,-8l-8,8M361,127l8,8m0,-8l-8,8M360,127l8,8m0,-8l-8,8M361,127l8,8m0,-8l-8,8M360,127l8,8m0,-8l-8,8M362,127l8,8m0,-8l-8,8M361,127l8,8m0,-8l-8,8M361,127l8,8m0,-8l-8,8M369,127l8,8m0,-8l-8,8M369,127l8,8m0,-8l-8,8M366,127l8,8m0,-8l-8,8M369,127l8,8m0,-8l-8,8M366,127l8,8m0,-8l-8,8M367,127l8,8m0,-8l-8,8M368,127l8,8m0,-8l-8,8M365,127l8,8m0,-8l-8,8M370,127l8,8m0,-8l-8,8M374,127l8,8m0,-8l-8,8M371,127l8,8m0,-8l-8,8M374,127l8,8m0,-8l-8,8M377,127l8,8m0,-8l-8,8M379,127l8,8m0,-8l-8,8M379,127l8,8m0,-8l-8,8M383,127l8,8m0,-8l-8,8M389,127l8,8m0,-8l-8,8M389,127l8,8m0,-8l-8,8M404,127l8,8m0,-8l-8,8M422,127l8,8m0,-8l-8,8M49,111l8,8m0,-8l-8,8M63,111l8,8m0,-8l-8,8M72,111l8,8m0,-8l-8,8M75,111l8,8m0,-8l-8,8M77,111l8,8m0,-8l-8,8M80,111l8,8m0,-8l-8,8M82,111l8,8m0,-8l-8,8M84,111l8,8m0,-8l-8,8M87,111l8,8m0,-8l-8,8M92,111l8,8m0,-8l-8,8M90,111l8,8m0,-8l-8,8M93,111l8,8m0,-8l-8,8M97,111l8,8m0,-8l-8,8M97,111l8,8m0,-8l-8,8M93,111l8,8m0,-8l-8,8M94,111l8,8m0,-8l-8,8M96,111l8,8m0,-8l-8,8M96,111l8,8m0,-8l-8,8M95,111l8,8m0,-8l-8,8M95,111l8,8m0,-8l-8,8M98,111l8,8m0,-8l-8,8M99,111l8,8m0,-8l-8,8M102,111l8,8m0,-8l-8,8M98,111l8,8m0,-8l-8,8M98,111l8,8m0,-8l-8,8M99,111l8,8m0,-8l-8,8M98,111l8,8m0,-8l-8,8M359,111l8,8m0,-8l-8,8M357,111l8,8m0,-8l-8,8M359,111l8,8m0,-8l-8,8M359,111l8,8m0,-8l-8,8M356,111l8,8m0,-8l-8,8M363,111l8,8m0,-8l-8,8M360,111l8,8m0,-8l-8,8M360,111l8,8m0,-8l-8,8M365,111l8,8m0,-8l-8,8M367,111l8,8m0,-8l-8,8M367,111l8,8m0,-8l-8,8M367,111l8,8m0,-8l-8,8M365,111l8,8m0,-8l-8,8M371,111l8,8m0,-8l-8,8M371,111l8,8m0,-8l-8,8M373,111l8,8m0,-8l-8,8M376,111l8,8m0,-8l-8,8M382,111l8,8m0,-8l-8,8M381,111l8,8m0,-8l-8,8M382,111l8,8m0,-8l-8,8M379,111l8,8m0,-8l-8,8M383,111l8,8m0,-8l-8,8M384,111l8,8m0,-8l-8,8M395,111l8,8m0,-8l-8,8M399,111l8,8m0,-8l-8,8M63,96l8,8m0,-8l-8,8M85,96l8,8m0,-8l-8,8M86,96l8,8m0,-8l-8,8M91,96l8,8m0,-8l-8,8M94,96l8,8m0,-8l-8,8M96,96l8,8m0,-8l-8,8M93,96l8,8m0,-8l-8,8M96,96l8,8m0,-8l-8,8M364,96l8,8m0,-8l-8,8M362,96l8,8m0,-8l-8,8M360,96l8,8m0,-8l-8,8M364,96l8,8m0,-8l-8,8M367,96l8,8m0,-8l-8,8M372,96l8,8m0,-8l-8,8M381,96l8,8m0,-8l-8,8M386,96l8,8m0,-8l-8,8M395,96l8,8m0,-8l-8,8M49,81l8,8m0,-8l-8,8M89,81l8,8m0,-8l-8,8M91,81l8,8m0,-8l-8,8M94,81l8,8m0,-8l-8,8M96,81l8,8m0,-8l-8,8M93,81l8,8m0,-8l-8,8M362,81l8,8m0,-8l-8,8M367,81l8,8m0,-8l-8,8M376,81l8,8m0,-8l-8,8M54,65l8,8m0,-8l-8,8M86,65l8,8m0,-8l-8,8M367,65l8,8m0,-8l-8,8M109,50l8,8m0,-8l-8,8" style="stroke: #00009a; fill: none;"></path>
      </g>
     </svg>
     <g>
      <g transform="translate(0,307)">
       <path d="M0,0h461" style="stroke: black; stroke-width: 1;"></path>
       <path d="M0,-12v12m9,-6v6m9,-6v6m10,-6v6m9,-6v6m9,-12v12m9,-6v6m10,-6v6m9,-6v6m9,-6v6m9,-12v12m9,-6v6m10,-6v6m9,-6v6m9,-6v6m9,-12v12m10,-6v6m9,-6v6m9,-6v6m9,-6v6m9,-12v12m10,-6v6m9,-6v6m9,-6v6m9,-6v6m10,-12v12m9,-6v6m9,-6v6m9,-6v6m9,-6v6m10,-12v12m9,-6v6m9,-6v6m9,-6v6m9,-6v6m10,-12v12m9,-6v6m9,-6v6m9,-6v6m10,-6v6m9,-12v12m9,-6v6m9,-6v6m9,-6v6m10,-6v6m9,-12v12m9,-6v6m9,-6v6m10,-6v6m9,-6v6m9,-12v12" style="stroke: black; stroke-width: 1;"></path>
       <g font-family="Arial" font-size="13" space="preserve" fill="black" text-anchor="middle">
        <text dy=".8em" transform="translate(0,4)">
         -5
        </text>
        <text dy=".8em" transform="translate(46,4)">
         -4
        </text>
        <text dy=".8em" transform="translate(92,4)">
         -3
        </text>
        <text dy=".8em" transform="translate(138,4)">
         -2
        </text>
        <text dy=".8em" transform="translate(184,4)">
         -1
        </text>
        <text dy=".8em" transform="translate(231,4)">
         0
        </text>
        <text dy=".8em" transform="translate(277,4)">
         1
        </text>
        <text dy=".8em" transform="translate(323,4)">
         2
        </text>
        <text dy=".8em" transform="translate(369,4)">
         3
        </text>
        <text dy=".8em" transform="translate(415,4)">
         4
        </text>
        <text dy=".8em" transform="translate(461,4)">
         5
        </text>
       </g>
      </g>
      <g>
       <path d="M0,0v307" style="stroke: black; stroke-width: 1;"></path>
       <path d="M17,307h-17m9,-6h-9m9,-6h-9m9,-6h-9m9,-7h-9m17,-6h-17m9,-6h-9m9,-6h-9m9,-6h-9m9,-6h-9m17,-6h-17m9,-7h-9m9,-6h-9m9,-6h-9m9,-6h-9m17,-6h-17m9,-6h-9m9,-6h-9m9,-7h-9m9,-6h-9m17,-6h-17m9,-6h-9m9,-6h-9m9,-6h-9m9,-6h-9m17,-6h-17m9,-7h-9m9,-6h-9m9,-6h-9m9,-6h-9m17,-6h-17m9,-6h-9m9,-6h-9m9,-7h-9m9,-6h-9m17,-6h-17m9,-6h-9m9,-6h-9m9,-6h-9m9,-6h-9m17,-7h-17m9,-6h-9m9,-6h-9m9,-6h-9m9,-6h-9m17,-6h-17m9,-6h-9m9,-7h-9m9,-6h-9m9,-6h-9m17,-6h-17" style="stroke: black; stroke-width: 1;"></path>
       <g font-family="Arial" font-size="13" space="preserve" fill="black" text-anchor="end">
        <text dy=".4em" transform="translate(-2,307)">
         -5
        </text>
        <text dy=".4em" transform="translate(-2,276)">
         -4
        </text>
        <text dy=".4em" transform="translate(-2,246)">
         -3
        </text>
        <text dy=".4em" transform="translate(-2,215)">
         -2
        </text>
        <text dy=".4em" transform="translate(-2,184)">
         -1
        </text>
        <text dy=".4em" transform="translate(-2,154)">
         0
        </text>
        <text dy=".4em" transform="translate(-2,123)">
         1
        </text>
        <text dy=".4em" transform="translate(-2,92)">
         2
        </text>
        <text dy=".4em" transform="translate(-2,61)">
         3
        </text>
        <text dy=".4em" transform="translate(-2,31)">
         4
        </text>
        <text dy=".4em" transform="translate(-2)">
         5
        </text>
       </g>
      </g>
     </g>
    </g>
    <g transform="translate(58,2)" font-family="Arial" font-size="19" space="preserve">
     <path d="M0,0H461V26H0Z" style="fill: none;"></path>
     <text fill="black" text-anchor="middle" dy=".8em" transform="translate(231)">
      CandleY scaled
     </text>
    </g>
    <g transform="translate(449,25)" font-family="Arial" font-size="10" space="preserve" fill="black">
     <path d="M0,0H115V102H0Z" style="fill: white; stroke: black; stroke-width: 1;"></path>
     <text text-anchor="middle" dy=".4em" transform="translate(58,9)">
      h3_copy
     </text>
     <text text-anchor="start" dy=".4em" transform="translate(6,26)">
      Entries
     </text>
     <text text-anchor="end" dy=".4em" transform="translate(109,26)">
      100000
     </text>
     <text text-anchor="start" dy=".4em" transform="translate(6,43)">
      Mean x
     </text>
     <text text-anchor="end" dy=".4em" transform="translate(109,43)">
      -0.004002
     </text>
     <text text-anchor="start" dy=".4em" transform="translate(6,60)">
      Mean y
     </text>
     <text text-anchor="end" dy=".4em" transform="translate(109,60)">
      0.003930
     </text>
     <text text-anchor="start" dy=".4em" transform="translate(6,77)">
      Std Dev x
     </text>
     <text text-anchor="end" dy=".4em" transform="translate(109,77)">
      0.9997
     </text>
     <text text-anchor="start" dy=".4em" transform="translate(6,94)">
      Std Dev y
     </text>
     <text text-anchor="end" dy=".4em" transform="translate(109,94)">
      1.002
     </text>
     <path d="M0,17h115" style="stroke: black; stroke-width: 1;"></path>
    </g>
   </g>
  </svg>
  <svg viewBox="0 0 576 384" preserveAspectRatio="none" x="12" y="408" width="576" height="384">
   <path d="M0,0H576V384H0Z" style="fill: white;"></path>
   <g>
    <g transform="translate(58,38)">
     <title></title>
     <path d="M0,0H461V307H0Z" style="fill: white; stroke: black; stroke-width: 1;"></path>
     <svg x="0" y="0" overflow="hidden" width="461" height="307" viewBox="0 0 461 307">
      <g>
       <path d="M12,307v-307M58,307v-307M81,307v-307M104,307v-307M127,307v-307M150,307v-307M173,307v-307M196,307v-307M219,307v-307M243,307v-307M266,307v-307M289,307v-307M312,307v-307M335,307v-307M358,307v-307M381,307v-307M404,307v-307M427,307v-307" style="stroke: #666666;"></path>
       <path d="M12,157h9v-3h-18v3h9M58,218h5v-3h-5v-3v-3h5v-3h-5v-3v-3v-4h5v-3h-5v-3v-3v-3h5v-3h-5v-3h5v-3h-5v-3h9v-3h-4v-3h-5v-3v-3v-3v-3v-4v-3h5v-3h-5v-3v-3h9v-3h-4v-3h-5v-3h5v-3h-5v-3h5v-3v-3h-5v-3v-3v-4v-3v-3v-3h5v-3h-5v-3h5v-3h-5v-3v-3v-3v-3v-3v-3v-3h5v-4h-10v4h5v3v3v3v3v3v3v3h-5v3h5v3h-5v3h5v3v3v3v4v3v3h-5v3v3h5v3h-5v3h5v3h-5v3h-4v3h9v3v3h-5v3h5v3v4v3v3v3v3h-5v3h-4v3h9v3h-5v3h5v3h-5v3h5v3v3v3h-5v3h5v4v3v3h-5v3h5v3v3h-5v3h5M81,243h1v-4v-3h-1v-3v-3v-3v-3h1v-3h-1v-3v-3v-3h1v-3v-3h1v-3h-2v-3h2v-4h1v-3v-3h-1v-3h1v-3h-1v-3h1v-3h-3v-3h6v-3h-1v-3h-3v-3h2v-3h-2v-3h4v-3h-3v-3h2v-4h1v-3h-1v-3h2v-3h1v-3h-5v-3h6v-3h-8v-3h5v-3h-4v-3h1v-3h-1v-3h-1v-3v-3h-1v-4h1v-3h-1v-3v-3h1v-3h-1v-3v-3v-3v-3v-3v-3v-3h1v-3h-2v3h1v3v3v3v3v3v3v3h-1v3h1v3v3h-1v3h1v4h-1v3v3h-1v3h-1v3h1v3h-4v3h5v3h-8v3h6v3h-5v3h1v3h2v3h-1v3h1v4h2v3h-3v3h4v3h-2v3h2v3h-3v3h-1v3h6v3h-3v3h1v3h-1v3h1v3h-1v3v3h1v4h2v3h-2v3h1v3v3h1v3v3v3h-1v3h1v3v3v3v3h-1v3v4h1M104,236h1v-3h-1v-3v-3v-3v-3v-3h1v-3v-3v-3v-3v-3h1v-3h1v-4h-1v-3h1v-3h1v-3v-3h-1v-3h3v-3h1v-3h-2v-3h2v-3h2v-3h-2v-3h-3v-3h1v-3h2v-3h-1v-4h1v-3h-3v-3h3v-3h-2v-3h2v-3v-3h-1v-3h-1v-3h-2v-3h-1v-3h2v-3h-2v-3h-1v-3h3v-4h-1v-3v-3h-1v-3h-1v-3v-3v-3v-3v-3h-1v-3h1v-3h-1v-3v-3v-3h1v-4h-1v-3v-3v3v3h-1v4h1v3v3v3h-1v3h1v3h-1v3v3v3v3v3h-1v3h-1v3v3h-1v4h3v3h-1v3h-2v3h2v3h-1v3h-2v3h-1v3h-1v3v3h2v3h-2v3h3v3h-3v3h1v4h-1v3h2v3h1v3h-3v3h-2v3h2v3h2v3h-2v3h1v3h3v3h-1v3v3h1v3h1v3h-1v4h1v3h1v3v3v3v3v3h1v3v3v3v3v3h-1v3h1M127,252v-3v-3v-3v-4v-3v-3v-3h1v-3h-1v-3v-3h1v-3h1v-3h-1v-3h1v-3v-3h-1v-3h2v-3h-1v-4h1v-3h1v-3v-3v-3h2v-3v-3v-3v-3h1v-3h1v-3h-2v-3h2v-3v-3v-3v-4v-3h1v-3h-2v-3v-3v-3h-1v-3h1v-3v-3h-1v-3h-1v-3h-2v-3h1v-3v-3h-1v-4h-1v-3v-3h1v-3h-2v-3v-3v-3v-3h-1v-3h1v-3h-1v-3v-3v-3v-3v-4v-3v-3v-3v-3v-3v-3v-3v-3v-3v-3v3v3v3v3v3v3v3v3v3v3v4v3v3v3v3h-1v3h1v3h-1v3v3v3v3h-2v3h1v3v3h-1v4h-1v3v3h1v3h-2v3h-1v3h-1v3v3h1v3h-1v3v3v3h-2v3h1v3v4v3v3v3h2v3h-2v3h1v3h1v3v3v3v3h2v3v3v3h1v3h1v4h-1v3h2v3h-1v3v3h1v3h-1v3h1v3h1v3v3h-1v3h1v3v3v3v4v3v3v3M150,279v-3v-3v-3v-3v-3v-3v-3v-3v-3v-3v-3v-3v-4v-3v-3v-3v-3v-3v-3h1v-3v-3v-3v-3h1v-3v-3v-3h1v-4h-1v-3h1v-3h2v-3v-3v-3v-3h1v-3h1v-3v-3v-3v-3v-3h1v-3h1v-3h-2v-4h2v-3h-2v-3v-3v-3v-3h-1v-3v-3v-3v-3h-1v-3h-1v-3v-3h-1v-3v-4h-1v-3v-3v-3h-1v-3v-3v-3v-3v-3v-3h-1v-3v-3v-3v-3v-4v-3v-3v-3v-3v-3v-3v3v3v3v3v3v3v4v3v3v3v3h-1v3v3v3v3v3v3h-1v3v3v3h-1v4v3h-1v3v3h-1v3h-1v3v3v3v3h-1v3v3v3v3h-2v3h2v4h-2v3h1v3h1v3v3v3v3v3h1v3h1v3v3v3v3h2v3h1v3h-1v4h1v3v3v3h1v3v3v3v3h1v3v3v3v3v3v3v4v3v3v3v3v3v3v3v3v3v3v3v3M173,276v-3v-3v-3v-3v-3v-3v-3v-3v-3v-3v-3v-4v-3v-3v-3h1v-3v-3v-3v-3v-3v-3v-3h1v-3v-3h1v-3v-4v-3v-3h2v-3v-3h1v-3v-3h1v-3h-1v-3h2v-3v-3h1v-3v-3v-3v-3v-4v-3h-1v-3v-3h-1v-3v-3v-3v-3h-1v-3h-1v-3v-3v-3h-1v-3v-3v-4h-1v-3h-1v-3v-3v-3h-1v-3v-3v-3v-3h-1v-3v-3v-3v-3v-3v-4v-3v-3v-3v-3v-3v-3v-3v-3v-3v-3v-3v-3v-3v-4v-3v3v4v3v3v3v3v3v3v3v3v3v3v3v3v3v4v3v3v3v3v3h-1v3v3v3v3h-1v3v3v3h-1v3h-1v4v3v3h-1v3v3v3h-1v3h-1v3v3v3v3h-1v3v3h-1v3v4v3v3v3v3h1v3v3h2v3h-1v3h1v3v3h1v3v3h2v3v3v4v3h1v3v3h1v3v3v3v3v3v3v3h1v3v3v3v4v3v3v3v3v3v3v3v3v3v3v3M196,282v-3v-3v-3v-3v-3v-3v-3v-3v-3v-3v-3v-3v-3v-4v-3v-3v-3h1v-3v-3v-3v-3v-3v-3h1v-3v-3v-3v-3h1v-4h1v-3v-3h1v-3v-3h1v-3h1v-3v-3h1v-3v-3h1v-3v-3v-3v-3v-3v-4v-3h-1v-3v-3h1v-3h-1v-3v-3h-1v-3h-1v-3v-3h-1v-3v-3h-1v-3h-1v-3v-4h-1v-3h1v-3h-1v-3v-3v-3h-1v-3v-3v-3v-3v-3h-1v-3v-3v-3v-4v-3v-3v-3v-3v-3v-3v-3v-3v-3v-3v-3v-3v-3v-4v4v3v3v3v3v3v3v3v3v3v3v3v3v3v4v3v3v3h-1v3v3v3v3v3h-1v3v3v3h-1v3h1v3h-1v4v3h-1v3h-1v3v3h-1v3v3h-1v3h-1v3v3h-1v3h1v3v3h-1v3v4v3v3v3v3v3h1v3v3h1v3v3h1v3h1v3v3h1v3v3h1v4h1v3v3v3v3h1v3v3v3v3v3v3h1v3v3v3v4v3v3v3v3v3v3v3v3v3v3v3v3v3M219,289v-3v-4v-3v-3v-3v-3v-3v-3v-3v-3v-3v-3v-3v-3v-3v-4v-3v-3v-3v-3h1v-3v-3v-3v-3v-3h1v-3v-3v-3h1v-3v-4h1v-3v-3h1v-3v-3h1v-3v-3v-3h2v-3v-3v-3h1v-3v-3v-3v-3v-4h1v-3h-1v-3v-3h-1v-3v-3h-1v-3v-3h-1v-3v-3v-3h-1v-3h-1v-3v-3h-1v-4v-3h-1v-3v-3v-3h-1v-3v-3v-3v-3v-3h-1v-3v-3v-3v-3v-4v-3v-3v-3v-3v-3v-3v-3v-3v-3v-3v3v3v3v3v3v3v3v3v3v3v4v3v3v3v3h-1v3v3v3v3v3h-1v3v3v3h-1v3v4h-1v3v3h-1v3h-1v3v3v3h-1v3v3h-1v3v3h-1v3v3h-1v3h1v4v3v3v3v3h1v3v3v3h2v3v3v3h1v3v3h1v3v3h1v4v3h1v3v3v3h1v3v3v3v3v3h1v3v3v3v3v4v3v3v3v3v3v3v3v3v3v3v3v3v3v4v3M243,304v-3v-3v-3v-3v-3v-3v-4v-3v-3v-3v-3v-3v-3v-3v-3v-3v-3v-3v-3v-3v-4v-3v-3v-3v-3h1v-3v-3v-3v-3v-3h1v-3v-3v-3h1v-3v-4h1v-3v-3h1v-3v-3h1v-3v-3v-3h1v-3v-3h1v-3h1v-3v-3v-3v-3v-4v-3v-3v-3h-1v-3v-3h-1v-3v-3h-1v-3v-3h-1v-3v-3h-1v-3v-3h-1v-4v-3h-1v-3v-3v-3h-1v-3v-3v-3v-3v-3h-1v-3v-3v-3v-3v-4v-3v-3v-3v-3v-3v-3v-3v-3v-3v-3v-3v3v3v3v3v3v3v3v3v3v3v3v4v3v3v3v3h-1v3v3v3v3v3h-1v3v3v3h-1v3v4h-1v3v3h-1v3v3h-1v3v3h-1v3v3h-1v3v3h-1v3v3v3v4v3v3v3v3h1v3h1v3v3h1v3v3v3h1v3v3h1v3v3h1v4v3h1v3v3v3h1v3v3v3v3v3h1v3v3v3v3v4v3v3v3v3v3v3v3v3v3v3v3v3v3v4v3v3v3v3v3v3M266,267v-3v-3v-3v-3v-3v-3v-3v-3v-4v-3v-3v-3h1v-3h-1v-3h1v-3v-3v-3h1v-3h-1v-3h1v-3v-3h1v-3h1v-4v-3v-3h1v-3v-3h1v-3v-3v-3h1v-3h1v-3v-3v-3v-3h1v-3v-3v-4h-1v-3v-3v-3v-3h-1v-3v-3v-3h-1v-3v-3h-1v-3v-3h-1v-3h-1v-3v-4v-3h-1v-3v-3v-3h-1v-3v-3v-3v-3v-3v-3h-1v-3v-3v-3v-4v-3v-3v-3v-3v-3v-3v-3v-3v-3v-3v-3v-3v3v3v3v3v3v3v3v3v3v3v3v3v4v3v3v3h-1v3v3v3v3v3v3h-1v3v3v3h-1v3v4v3h-1v3h-1v3v3h-1v3v3h-1v3v3v3h-1v3v3v3v3h-1v4v3v3h1v3v3v3v3h1v3h1v3v3v3h1v3v3h1v3v3v4h1v3h1v3v3h1v3h-1v3h1v3v3v3h1v3h-1v3h1v3v3v3v4v3v3v3v3v3v3v3v3M289,273v-3v-3v-3v-3v-3v-3v-3v-3v-3v-3v-4v-3v-3v-3v-3h1v-3v-3v-3v-3v-3v-3h1v-3h1v-3v-3v-4v-3h1v-3v-3h1v-3v-3h1v-3h1v-3v-3h1v-3h-1v-3h1v-3v-3v-3v-3h1v-4h-1v-3h1v-3h-1v-3v-3v-3h-1v-3h-1v-3v-3h-1v-3v-3h-1v-3v-3h-1v-3v-4v-3h-1v-3v-3h-1v-3v-3v-3v-3v-3v-3h-1v-3v-3v-3v-3v-4v-3v-3v-3v-3v-3v-3v-3v-3v-3v-3v3v3v3v3v3v3v3v3v3v3v4v3v3v3v3h-1v3v3v3v3v3v3h-1v3v3h-1v3v4v3h-1v3v3h-1v3v3h-1v3v3h-1v3h-1v3v3v3h-1v3h1v3h-1v4h1v3v3v3v3h1v3h-1v3h1v3v3h1v3h1v3v3h1v3v3h1v3v4v3v3h1v3h1v3v3v3v3v3v3h1v3v3v3v3v4v3v3v3v3v3v3v3v3v3v3M312,261v-3v-3v-3v-3v-3v-3v-4v-3v-3v-3h1v-3v-3v-3v-3v-3v-3h1v-3v-3v-3v-3h1v-4h1v-3v-3h1v-3h1v-3v-3h1v-3v-3v-3h1v-3v-3h1v-3h-1v-3v-3h1v-3v-4h-1v-3h1v-3v-3v-3h-1v-3h-1v-3h-1v-3h1v-3h-1v-3h-1v-3v-3h-1v-3h-1v-3v-4h-1v-3v-3v-3v-3h-1v-3v-3v-3v-3v-3h-1v-3v-3v-3v-3v-4v-3v-3v-3v-3v-3v-3v-3v-3v-3v-3v3v3v3v3v3v3v3v3v3v3v4v3v3v3v3h-1v3v3v3v3v3h-1v3v3v3v3h-1v4v3h-1v3h-1v3v3h-1v3h-1v3h1v3h-1v3h-1v3h-1v3v3v3h1v3h-1v4v3h1v3v3h-1v3h1v3v3h1v3v3v3h1v3v3h1v3h1v3v3h1v4h1v3v3v3v3h1v3v3v3v3v3v3h1v3v3v3v4v3v3v3v3v3v3M335,261v-3v-3v-3v-3v-3v-3v-4v-3v-3v-3v-3v-3v-3h1v-3v-3v-3v-3v-3h1v-3v-3h1v-4h1v-3v-3h1v-3h1v-3h-1v-3h1v-3v-3h1v-3v-3h-1v-3h3v-3h-1v-3h-2v-3h2v-3v-4h-1v-3h2v-3h-1v-3v-3h-1v-3h-2v-3h2v-3v-3h-3v-3h1v-3h-1v-3v-3v-3h-1v-4h-2v-3v-3h1v-3h-1v-3h1v-3h-1v-3v-3v-3v-3v-3h-1v-3v-3v-3v-4v-3v-3v-3v3v3v3v4v3v3v3h-1v3v3v3v3v3h-1v3h1v3h-1v3h1v3v3h-2v4h-1v3v3v3h-1v3h1v3h-3v3v3h2v3h-2v3h-1v3v3h-1v3h2v3h-1v4v3h2v3h-2v3h-1v3h3v3h-1v3v3h1v3v3h1v3h-1v3h1v3h1v3v3h1v4h1v3v3h1v3v3v3v3v3h1v3v3v3v3v3v3v4v3v3v3v3v3v3M358,267v-3v-3v-3v-3v-3v-3v-3v-3h1v-4v-3h-1v-3v-3h1v-3h-1v-3h1v-3v-3v-3v-3v-3v-3v-3h1v-3h1v-4h-1v-3h1v-3h-1v-3h-1v-3h2v-3h2v-3h-1v-3h3v-3v-3v-3h-2v-3h1v-3v-3h3v-3h-2v-4h-1v-3h-1v-3v-3v-3h1v-3h-3v-3v-3h-1v-3h4v-3h-3v-3v-3v-3h-1v-3h1v-4h-1v-3v-3h1v-3h-2v-3v-3h-1v-3h1v-3v-3h-1v-3v-3v3v3h-1v3v3h1v3h-1v3v3h-2v3h1v3v3h-1v4h1v3h-1v3v3v3h-3v3h4v3h-1v3v3h-3v3h1v3v3v3h-1v3h-1v4h-2v3h3v3v3h1v3h-2v3v3v3h3v3h-1v3h2v3h2v3h-1v3h-1v3h1v3h-1v4h1v3h1v3v3v3v3v3v3v3h1v3h-1v3h1v3v3h-1v3v4h1v3v3v3v3v3v3v3v3M381,203h2v-3h-2v-4h1v-3h2v-3v-3h-1v-3h-2v-3h9v-3h-2v-3h-3v-3h2v-3h-2v-3v-3h-2v-3h1v-3v-3h4v-4h-7v-3h1v-3h2v-3h-1v-3h1v-3v-3h-1v-3h4v-3h-4v-3v-3h2v-3h-2v-3h2v-3h-1v-4h-1v-3h-1v-3h-1v-3h1v-3h-1v-3v-3v-3h1v-3v-3h-1v-3h1v-3h-2v3h1v3h-1v3v3h1v3v3v3h-1v3h1v3h-1v3h-1v3h-1v4h-1v3h2v3h-2v3h2v3v3h-4v3h4v3h-1v3v3h1v3h-1v3h2v3h1v3h-7v4h4v3v3h1v3h-2v3v3h-2v3h2v3h-3v3h-2v3h9v3h-2v3h-1v3v3h2v3h1v4h-2v3h2M404,209h5v-3h-5v-3v-3v-4v-3h5v-3h-5v-3v-3h5v-3h-5v-3v-3h5v-3h-5v-3v-3v-3h5v-3v-3h4v-3h-9v-4v-3v-3h5v-3v-3v-3v-3v-3h-5v-3v-3h5v-3h-5v-3h5v-3h-5v-3v-4v-3v-3v-3v-3h5v-3h-10v3h5v3v3v3v3v4v3h-5v3h5v3h-5v3h5v3v3h-5v3v3v3v3v3h5v3v3v4h-9v3h4v3v3h5v3v3v3h-5v3h5v3v3h-5v3h5v3v3h-5v3h5v3v4v3v3h-5v3h5M427,157h9v-3h-9v-4v-3v-3v-3v-3v-3h9v-3h-18v3h9v3v3v3v3v3v4h-9v3h9" style="fill: none;"></path>
       <path d="M12,154M12,156v1M58,121v-57M58,177v41M81,136v-65M81,173v70M104,132v-74M104,174v62M127,131v-97M127,174v78M150,132v-86M150,174v105M173,132v-114M173,174v102M196,133v-112M196,174v108M219,133v-99M219,174v115M243,133v-102M243,174v130M266,132v-104M266,174v93M289,133v-99M289,174v99M312,133v-99M312,175v86M335,133v-78M335,175v86M358,134v-57M358,173v94M381,127v-53M381,175v28M404,132v-40M404,167v42M427,134v-2M427,155v2" style="stroke: #0000ff; stroke-width: 1; fill: none;"></path>
       <path d="M8,155a4,4,0,1,0,8,0a4,4,0,1,0,-8,0zM54,148a4,4,0,1,0,8,0a4,4,0,1,0,-8,0zM77,156a4,4,0,1,0,8,0a4,4,0,1,0,-8,0zM100,152a4,4,0,1,0,8,0a4,4,0,1,0,-8,0zM123,153a4,4,0,1,0,8,0a4,4,0,1,0,-8,0zM146,153a4,4,0,1,0,8,0a4,4,0,1,0,-8,0zM169,153a4,4,0,1,0,8,0a4,4,0,1,0,-8,0zM192,154a4,4,0,1,0,8,0a4,4,0,1,0,-8,0zM215,153a4,4,0,1,0,8,0a4,4,0,1,0,-8,0zM239,153a4,4,0,1,0,8,0a4,4,0,1,0,-8,0zM262,153a4,4,0,1,0,8,0a4,4,0,1,0,-8,0zM285,154a4,4,0,1,0,8,0a4,4,0,1,0,-8,0zM308,154a4,4,0,1,0,8,0a4,4,0,1,0,-8,0zM331,153a4,4,0,1,0,8,0a4,4,0,1,0,-8,0zM354,154a4,4,0,1,0,8,0a4,4,0,1,0,-8,0zM377,150a4,4,0,1,0,8,0a4,4,0,1,0,-8,0zM400,150a4,4,0,1,0,8,0a4,4,0,1,0,-8,0zM423,144a4,4,0,1,0,8,0a4,4,0,1,0,-8,0z" style="stroke: #0000ff; fill: none;"></path>
      </g>
     </svg>
     <g>
      <g transform="translate(0,307)">
       <path d="M0,0h461" style="stroke: black; stroke-width: 1;"></path>
       <path d="M0,-12v12m9,-6v6m9,-6v6m10,-6v6m9,-6v6m9,-12v12m9,-6v6m10,-6v6m9,-6v6m9,-6v6m9,-12v12m9,-6v6m10,-6v6m9,-6v6m9,-6v6m9,-12v12m10,-6v6m9,-6v6m9,-6v6m9,-6v6m9,-12v12m10,-6v6m9,-6v6m9,-6v6m9,-6v6m10,-12v12m9,-6v6m9,-6v6m9,-6v6m9,-6v6m10,-12v12m9,-6v6m9,-6v6m9,-6v6m9,-6v6m10,-12v12m9,-6v6m9,-6v6m9,-6v6m10,-6v6m9,-12v12m9,-6v6m9,-6v6m9,-6v6m10,-6v6m9,-12v12m9,-6v6m9,-6v6m10,-6v6m9,-6v6m9,-12v12" style="stroke: black; stroke-width: 1;"></path>
       <g font-family="Arial" font-size="13" space="preserve" fill="black" text-anchor="middle">
        <text dy=".8em" transform="translate(0,4)">
         -5
        </text>
        <text dy=".8em" transform="translate(46,4)">
         -4
        </text>
        <text dy=".8em" transform="translate(92,4)">
         -3
        </text>
        <text dy=".8em" transform="translate(138,4)">
         -2
        </text>
        <text dy=".8em" transform="translate(184,4)">
         -1
        </text>
        <text dy=".8em" transform="translate(231,4)">
         0
        </text>
        <text dy=".8em" transform="translate(277,4)">
         1
        </text>
        <text dy=".8em" transform="translate(323,4)">
         2
        </text>
        <text dy=".8em" transform="translate(369,4)">
         3
        </text>
        <text dy=".8em" transform="translate(415,4)">
         4
        </text>
        <text dy=".8em" transform="translate(461,4)">
         5
        </text>
       </g>
      </g>
      <g>
       <path d="M0,0v307" style="stroke: black; stroke-width: 1;"></path>
       <path d="M17,307h-17m9,-6h-9m9,-6h-9m9,-6h-9m9,-7h-9m17,-6h-17m9,-6h-9m9,-6h-9m9,-6h-9m9,-6h-9m17,-6h-17m9,-7h-9m9,-6h-9m9,-6h-9m9,-6h-9m17,-6h-17m9,-6h-9m9,-6h-9m9,-7h-9m9,-6h-9m17,-6h-17m9,-6h-9m9,-6h-9m9,-6h-9m9,-6h-9m17,-6h-17m9,-7h-9m9,-6h-9m9,-6h-9m9,-6h-9m17,-6h-17m9,-6h-9m9,-6h-9m9,-7h-9m9,-6h-9m17,-6h-17m9,-6h-9m9,-6h-9m9,-6h-9m9,-6h-9m17,-7h-17m9,-6h-9m9,-6h-9m9,-6h-9m9,-6h-9m17,-6h-17m9,-6h-9m9,-7h-9m9,-6h-9m9,-6h-9m17,-6h-17" style="stroke: black; stroke-width: 1;"></path>
       <g font-family="Arial" font-size="13" space="preserve" fill="black" text-anchor="end">
        <text dy=".4em" transform="translate(-2,307)">
         -5
        </text>
        <text dy=".4em" transform="translate(-2,276)">
         -4
        </text>
        <text dy=".4em" transform="translate(-2,246)">
         -3
        </text>
        <text dy=".4em" transform="translate(-2,215)">
         -2
        </text>
        <text dy=".4em" transform="translate(-2,184)">
         -1
        </text>
        <text dy=".4em" transform="translate(-2,154)">
         0
        </text>
        <text dy=".4em" transform="translate(-2,123)">
         1
        </text>
        <text dy=".4em" transform="translate(-2,92)">
         2
        </text>
        <text dy=".4em" transform="translate(-2,61)">
         3
        </text>
        <text dy=".4em" transform="translate(-2,31)">
         4
        </text>
        <text dy=".4em" transform="translate(-2)">
         5
        </text>
       </g>
      </g>
     </g>
    </g>
    <g transform="translate(58,2)" font-family="Arial" font-size="19" space="preserve">
     <path d="M0,0H461V26H0Z" style="fill: none;"></path>
     <text fill="black" text-anchor="middle" dy=".8em" transform="translate(231)">
      ViolinX unscaled
     </text>
    </g>
    <g transform="translate(449,25)" font-family="Arial" font-size="10" space="preserve" fill="black">
     <path d="M0,0H115V102H0Z" style="fill: white; stroke: black; stroke-width: 1;"></path>
     <text text-anchor="middle" dy=".4em" transform="translate(58,9)">
      h1_copy
     </text>
     <text text-anchor="start" dy=".4em" transform="translate(6,26)">
      Entries
     </text>
     <text text-anchor="end" dy=".4em" transform="translate(109,26)">
      100000
     </text>
     <text text-anchor="start" dy=".4em" transform="translate(6,43)">
      Mean x
     </text>
     <text text-anchor="end" dy=".4em" transform="translate(109,43)">
      -0.004002
     </text>
     <text text-anchor="start" dy=".4em" transform="translate(6,60)">
      Mean y
     </text>
     <text text-anchor="end" dy=".4em" transform="translate(109,60)">
      0.003930
     </text>
     <text text-anchor="start" dy=".4em" transform="translate(6,77)">
      Std Dev x
     </text>
     <text text-anchor="end" dy=".4em" transform="translate(109,77)">
      0.9997
     </text>
     <text text-anchor="start" dy=".4em" transform="translate(6,94)">
      Std Dev y
     </text>
     <text text-anchor="end" dy=".4em" transform="translate(109,94)">
      1.002
     </text>
     <path d="M0,17h115" style="stroke: black; stroke-width: 1;"></path>
    </g>
   </g>
  </svg>
  <svg viewBox="0 0 576 384" preserveAspectRatio="none" x="612" y="408" width="576" height="384">
   <path d="M0,0H576V384H0Z" style="fill: white;"></path>
   <g>
    <g transform="translate(58,38)">
     <title></title>
     <path d="M0,0H461V307H0Z" style="fill: white; stroke: black; stroke-width: 1;"></path>
     <svg x="0" y="0" overflow="hidden" width="461" height="307" viewBox="0 0 461 307">
      <g>
       <path d="M0,300h461M0,284h461M0,269h461M0,254h461M0,238h461M0,223h461M0,208h461M0,192h461M0,177h461M0,162h461M0,146h461M0,131h461M0,115h461M0,100h461M0,85h461M0,69h461M0,54h461M0,39h461M0,23h461" style="stroke: #666666;"></path>
       <path d="M231,300v-6h4v12h-4v-6M148,284v-6h4v6h5h4h5h5h4h5h4h5v-6h5v6h4h5h4h5v-6h5v12h-5v-6h-5h-4h-5h-4v6h-5v-6h-5h-4h-5h-4h-5h-5h-4h-5v6h-4v-6M161,269v-6h5v6h5v-3h4v3h5h4h5h5v-3h4v3h5h4h5v-3h5v3h4v-3h5h5v3h4h5h4v-6h5v6h5h4v-3h5h4h5v3h5h4h5h4v-3h5v3h5h4h5h4h5h5h4h5h5h4h5h4v-3h5v6h-5v-3h-4h-5h-4h-5h-5h-4h-5h-5h-4h-5h-4h-5v3h-5v-3h-4h-5h-4h-5v3h-5h-4h-5v-3h-4h-5v6h-5v-6h-4h-5h-4v3h-5h-5v-3h-4v3h-5v-3h-5h-4h-5v3h-4v-3h-5h-5h-4h-5v3h-4v-3h-5v6h-5v-6M115,254v-1h5h4v1h5h5v-2h4v2h5v-1h5v1h4v-1h5v-1h4v1h5h5v-1h4v2h5v-2h4v-1h5v1h5v-2h4v-1h5v2h4v3h5v-4h5h4v1h5v-1h5v-1h4v2h5v-3h4v4h5h5v-1h4v3h5v-4h4h5v4h5v-3h4v3h5v-1h4v-2h5v2h5v-1h4v-1h5v3h4v-2h5v2h5h4h5v-1h5v2h-5v-1h-5h-4h-5v2h-5v-2h-4v3h-5v-1h-4v-1h-5v2h-5v-2h-4v-1h-5v3h-4v-3h-5v4h-5h-4v-4h-5v3h-4v-1h-5h-5v4h-4v-3h-5v2h-4v-1h-5v-1h-5v1h-4h-5v-4h-5v3h-4v2h-5v-1h-4v-2h-5v1h-5v-1h-4v-2h-5v2h-4v-1h-5h-5v1h-4v-1h-5v-1h-4v1h-5v-1h-5v2h-4v-2h-5h-5v1h-4h-5v-1M83,238h5h4h5h4v-1h5v1h5h4v-1h5h4h5h5h4v1h5v-1h5v1h4v-1h5h4h5v-1h5h4v-1h5v-1h4v1h5v-1h5h4h5h4v-2h5v1h5v-1h4v2h5v-2h5h4v2h5v1h4v-3h5v2h5h4h5v2h4v-1h5h5v-1h4h5v2h4h5h5h4h5v1h4h5h5v1h4h5v-1h5v1h4h5h4v-1h5h5v1h4h5h-5h-4v1h-5h-5v-1h-4h-5h-4v1h-5v-1h-5h-4v1h-5h-5h-4v1h-5h-4h-5h-5h-4v2h-5h-4v-1h-5h-5v-1h-4v2h-5h-4h-5v2h-5v-3h-4v1h-5v2h-4h-5v-2h-5v2h-4v-1h-5v1h-5v-2h-4h-5h-4h-5v-1h-5v1h-4v-1h-5v-1h-4h-5v-1h-5h-4h-5v-1h-4v1h-5v-1h-5v1h-4h-5h-5h-4h-5v-1h-4h-5v1h-5v-1h-4h-5h-4h-5M65,223h4h5h4h5h5h4h5h4h5h5h4v-1h5v1h4h5v-1h5v1h4v-1h5h5h4h5h4v-1h5h5v-1h4v1h5v-1h4h5v-1h5v1h4v-2h5v-1h4h5v1h5h4h5h5h4v-1h5v1h4h5h5h4v1h5h4v1h5h5h4v1h5h4h5h5h4v1h5h4h5h5h4v1h5h5h4h5h4h5h5h4h5h-5h-4h-5h-5h-4h-5h-4h-5h-5v1h-4h-5h-5h-4h-5v1h-4h-5h-5h-4h-5v1h-4h-5h-5v1h-4h-5v1h-4h-5h-5h-4v1h-5v-1h-4h-5h-5h-4h-5v1h-5h-4v-1h-5v-2h-4v1h-5v-1h-5h-4v-1h-5v1h-4v-1h-5h-5v-1h-4h-5h-4h-5h-5v-1h-4v1h-5v-1h-5h-4v1h-5v-1h-4h-5h-5h-4h-5h-4h-5h-5h-4h-5h-4M65,208h4h5h4h5h5h4h5h4h5h5h4h5h4h5h5v-1h4h5h5h4h5v-1h4v1h5v-1h5v-1h4h5h4v-1h5h5h4h5v-1h4v-1h5h5h4v1h5h5v-1h4v1h5h4v-1h5v1h5h4h5h4v1h5v1h5v-1h4v1h5h4v1h5h5h4v1h5h4h5h5h4v1h5v-1h5v1h4h5h4h5h5h4h5h4h5h5h4h5h4h-4h-5h-4h-5h-5h-4h-5h-4h-5h-5h-4h-5h-4v1h-5v-1h-5v1h-4h-5h-5h-4h-5v1h-4h-5h-5v1h-4h-5v1h-4v-1h-5v1h-5v1h-4h-5h-4h-5v1h-5v-1h-4h-5v1h-4v-1h-5h-5v1h-4h-5h-5v-1h-4v-1h-5h-4h-5h-5v-1h-4h-5h-4v-1h-5v-1h-5v1h-4v-1h-5h-4h-5h-5h-4v-1h-5h-5h-4h-5h-4h-5h-5h-4h-5h-4h-5h-5h-4h-5h-4M60,192h5h4h5h4h5h5h4h5h4h5h5h4h5h4h5v-1h5h4h5h5h4h5v-1h4h5h5v-1h4v-1h5v1h4v-1h5h5h4v-1h5h4h5v-1h5h4h5h5h4v1h5v-1h4h5h5v1h4h5h4h5v1h5v1h4h5h4h5v1h5h4h5v1h4h5h5h4h5h5v1h4h5h4h5h5h4h5h4h5h5h4h5h4h-4h-5h-4h-5h-5h-4h-5h-4h-5h-5h-4h-5h-4v1h-5h-5h-4h-5h-5h-4v1h-5h-4h-5v1h-5h-4h-5h-4v1h-5v1h-5h-4h-5h-4v1h-5h-5h-4v-1h-5v1h-4h-5h-5h-4h-5v-1h-5h-4h-5v-1h-4h-5h-5v-1h-4v1h-5v-1h-4v-1h-5h-5h-4v-1h-5h-4h-5h-5h-4h-5v-1h-5h-4h-5h-4h-5h-5h-4h-5h-4h-5h-5h-4h-5h-4h-5M46,177h5h4h5h5h4h5h4h5h5h4h5h4h5h5h4h5h4v-1h5h5h4h5h5h4v-1h5h4h5h5v-1h4h5h4v-1h5h5v-1h4h5h4h5h5v-1h4h5h5h4h5v1h4h5h5h4v1h5h4h5h5v1h4h5h4h5v1h5h4h5v1h4h5h5h4h5v1h5h4h5h4h5h5h4h5h4h5h5h4h5h4h5h5h4h5h-5h-4h-5h-5h-4h-5h-4h-5h-5h-4h-5h-4h-5h-5h-4h-5h-4h-5v1h-5h-4h-5h-5h-4v1h-5h-4h-5v1h-5h-4h-5h-4v1h-5h-5h-4h-5v1h-4h-5h-5h-4v1h-5h-4h-5h-5h-4v-1h-5h-5h-4h-5h-4v-1h-5h-5v-1h-4h-5h-4v-1h-5h-5h-4h-5v-1h-4h-5h-5h-4h-5h-5v-1h-4h-5h-4h-5h-5h-4h-5h-4h-5h-5h-4h-5h-4h-5h-5h-4h-5M5,162h4h5h4h5h5h4h5h4h5h5h4h5h5h4h5h4h5h5h4h5h4h5h5h4h5h4h5v-1h5h4h5h5h4h5v-1h4h5h5v-1h4h5h4v-1h5h5h4h5v-1h4h5h5v-1h4v1h5h5v-1h4h5v1h4h5h5h4v1h5h4h5h5v1h4h5v1h4h5h5h4v1h5h4h5h5h4h5v1h5h4h5h4h5h5h4h5h4h5h5h4h5h4h5h5h4h5h5h-5h-5h-4h-5h-5h-4h-5h-4h-5h-5h-4h-5h-4h-5h-5h-4h-5h-4h-5v1h-5h-4h-5h-5h-4h-5v1h-4h-5h-5h-4v1h-5h-4v1h-5h-5h-4h-5v1h-4h-5h-5h-4v1h-5h-4v-1h-5h-5v1h-4v-1h-5h-5h-4v-1h-5h-4h-5h-5v-1h-4h-5h-4v-1h-5h-5h-4v-1h-5h-4h-5h-5h-4h-5v-1h-5h-4h-5h-4h-5h-5h-4h-5h-4h-5h-5h-4h-5h-4h-5h-5h-4h-5h-5h-4h-5h-4h-5h-5h-4h-5h-4M55,146h5h5h4h5h4h5h5h4h5h4h5h5h4h5h4h5v-1h5h4h5h5h4v-1h5h4h5h5v-1h4h5h4v-1h5h5h4v-1h5h4h5v-1h5h4h5h5h4h5h4h5h5v1h4v1h5v-1h4v1h5h5h4v1h5h4v1h5h5h4h5v1h4h5h5h4h5v1h5h4h5h4h5h5h4h5h4h5h5h4h5h4h-4h-5h-4h-5h-5h-4h-5h-4h-5h-5h-4h-5h-4h-5v1h-5h-4h-5h-5h-4v1h-5h-4h-5h-5v1h-4h-5v1h-4h-5h-5v1h-4v-1h-5v1h-4v1h-5h-5h-4h-5h-4h-5h-5h-4h-5v-1h-5h-4h-5v-1h-4h-5h-5v-1h-4h-5h-4v-1h-5h-5h-4h-5v-1h-4h-5h-5h-4h-5v-1h-5h-4h-5h-4h-5h-5h-4h-5h-4h-5h-5h-4h-5h-4h-5h-5M51,131h4h5h5h4h5h4h5h5h4h5h4h5h5h4h5h4h5v-1h5h4h5h5h4h5v-1h4h5h5v-1h4h5h4v-1h5h5v-1h4h5h4h5h5v-1h4h5h5h4h5h4v1h5h5h4h5v1h4h5h5v1h4h5v1h4v-1h5v1h5h4v1h5h4h5h5h4h5v1h5h4h5h4h5h5h4h5h4h5h5h4h5h4h5h5h4h5h5h4h5h-5h-4h-5h-5h-4h-5h-5h-4h-5h-4h-5h-5h-4h-5h-4h-5h-5h-4h-5h-4h-5v1h-5h-4h-5h-5h-4h-5v1h-4h-5v1h-5v-1h-4v1h-5h-4v1h-5h-5h-4v1h-5h-4h-5h-5v1h-4h-5h-4h-5h-5h-4v-1h-5h-5h-4h-5h-4v-1h-5h-5v-1h-4h-5h-4v-1h-5h-5h-4v-1h-5h-4h-5h-5h-4h-5v-1h-5h-4h-5h-4h-5h-5h-4h-5h-4h-5h-5h-4h-5h-4h-5h-5h-4M51,115h4h5h5h4h5h4h5h5h4h5h4h5h5h4h5h4h5v-1h5h4h5h5h4v-1h5h4h5h5v-1h4h5v-1h4h5h5h4v-1h5v-1h4h5v1h5h4v-1h5h5h4h5h4h5v1h5v-1h4v1h5h4v1h5h5v1h4h5v1h4v-1h5v1h5h4v1h5v-1h4v1h5h5h4h5h5v1h4h5h4h5h5h4h5h4h5h5h4h5h4h5h5h-5h-5h-4h-5h-4h-5h-5h-4h-5h-4h-5h-5h-4h-5h-4v1h-5h-5h-4h-5h-5v1h-4v-1h-5v1h-4h-5v1h-5v-1h-4v1h-5h-4v1h-5h-5v1h-4h-5v1h-4v-1h-5v1h-5h-4h-5h-4h-5h-5v-1h-4h-5v1h-5h-4v-1h-5v-1h-4h-5h-5h-4v-1h-5h-4v-1h-5h-5h-4h-5v-1h-4h-5h-5h-4h-5v-1h-5h-4h-5h-4h-5h-5h-4h-5h-4h-5h-5h-4h-5h-4h-5h-5h-4M65,100h4h5h4h5h5h4h5h4h5h5h4h5h4h5v-1h5h4h5h5h4v-1h5v1h4v-1h5h5v-1h4h5h4v-1h5h5h4h5v-1h4v-1h5h5v1h4v-1h5h5h4v1h5v-1h4v1h5h5v1h4h5h4v-1h5v1h5v1h4h5v1h4h5h5h4v1h5h4h5h5v1h4v-1h5v1h5h4h5h4h5h5h4h5h4h5h5h4h5h4h5h-5h-4h-5h-4h-5h-5h-4h-5h-4h-5h-5h-4h-5h-4h-5v1h-5v-1h-4v1h-5h-5h-4h-5v1h-4h-5h-5h-4v1h-5h-4v1h-5v1h-5v-1h-4h-5h-4v1h-5h-5v1h-4v-1h-5v1h-4h-5h-5v-1h-4v1h-5h-5v-1h-4v-1h-5v1h-4v-1h-5h-5v-1h-4h-5h-4v-1h-5h-5v-1h-4v1h-5v-1h-4h-5h-5h-4h-5v-1h-5h-4h-5h-4h-5h-5h-4h-5h-4h-5h-5h-4h-5h-4M51,85h4h5h5h4h5h4h5h5h4h5h4h5h5h4h5h4h5v-1h5h4h5h5v-1h4v1h5h4h5v-2h5h4h5v-1h4h5h5h4v-2h5v1h4h5h5h4h5h5h4v-1h5v1h4h5v-1h5v1h4h5v1h4h5v1h5h4h5v1h4h5h5h4v1h5v-1h4v1h5v1h5v-1h4h5v1h5v-1h4v1h5h4h5h5h4h5h4h5h5h-5h-5h-4h-5h-4h-5h-5h-4h-5v1h-4v-1h-5v1h-5h-4h-5h-5v1h-4v-1h-5v1h-4h-5v1h-5v-1h-4v1h-5h-4h-5v1h-5h-4v1h-5h-4v1h-5v-1h-5v1h-4h-5v-1h-4v1h-5v-1h-5h-4h-5h-5h-4v1h-5v-2h-4h-5h-5h-4v-1h-5h-4h-5v-2h-5h-4h-5v1h-4v-1h-5h-5h-4h-5v-1h-5h-4h-5h-4h-5h-5h-4h-5h-4h-5h-5h-4h-5h-4h-5h-5h-4M55,69h5h5h4h5h4h5h5h4h5h4h5h5h4h5h4h5h5h4v-1h5h5h4v-1h5h4h5v-1h5v1h4v-1h5h4h5h5v-1h4h5v1h4v-2h5v1h5h4h5v-2h5v2h4v-2h5h4v2h5h5v1h4h5v-2h4v1h5h5v2h4v-1h5v1h4v-1h5v2h5v-1h4v1h5h4h5v1h5h4h5v-1h5v1h4h5h4h5h5h4h5h4h-4h-5h-4h-5h-5h-4h-5h-4v1h-5v-1h-5h-4h-5v1h-5h-4h-5v1h-4v-1h-5v2h-5v-1h-4v1h-5v-1h-4v2h-5h-5v1h-4v-2h-5h-4v1h-5h-5v2h-4h-5v-2h-4v2h-5v-2h-5h-4h-5v1h-5v-2h-4v1h-5h-4v-1h-5h-5h-4h-5v-1h-4v1h-5v-1h-5h-4h-5v-1h-4h-5h-5v-1h-4h-5h-5h-4h-5h-4h-5h-5h-4h-5h-4h-5h-5h-4h-5h-4h-5h-5M111,54v-1h4v1h5h4h5h5v-1h4h5v1h5v-1h4v1h5v-1h4v1h5v-1h5h4h5v1h4v-1h5h5h4h5v-2h4v-1h5v1h5v-2h4v4h5v-5h5v1h4v4h5h4h5h5v-2h4v1h5v-1h4v1h5v-1h5v1h4v1h5v1h4v-1h5v-1h5v1h4v-2h5v2h4v1h5h5v-1h4h5h5h4v2h-4h-5h-5h-4v-1h-5h-5v1h-4v2h-5v-2h-4v1h-5v-1h-5v-1h-4v1h-5v1h-4v1h-5v-1h-5v1h-4v-1h-5v1h-4v-2h-5h-5h-4h-5v4h-4v1h-5v-5h-5v4h-4v-2h-5v1h-5v-1h-4v-2h-5h-4h-5h-5v-1h-4v1h-5h-4h-5v-1h-5v1h-4v-1h-5v1h-4v-1h-5v1h-5h-4v-1h-5h-5h-4h-5v1h-4v-1M129,39v-4h5v4h4h5h5h4h5h4h5h5h4h5v-2h4v2h5v-2h5h4v2h5v-2h4h5v2h5v-2h4h5v2h5v-2h4v2h5v-2h4h5v2h5h4h5h4v-6h5v4h5h4v2h5v-2h4v2h5h5v-2h4v2h5h4v-2h5v4h-5v-2h-4h-5v2h-4v-2h-5h-5v2h-4v-2h-5v2h-4h-5v4h-5v-6h-4h-5h-4h-5v2h-5h-4v-2h-5v2h-4v-2h-5v2h-5h-4v-2h-5v2h-5h-4v-2h-5v2h-4h-5v-2h-5v2h-4v-2h-5h-4h-5h-5h-4h-5h-4h-5h-5h-4v4h-5v-4M175,23v-6h5v6h4v-3h5v3h5h4h5h4h5h5h4h5h5h4h5h4h5h5v-3h4v6h-4v-3h-5h-5h-4h-5h-4h-5h-5h-4h-5h-5h-4h-5h-4h-5v3h-5v-3h-4v6h-5v-6" style="fill: none;"></path>
       <path d="M234,300h1M232,300h-1M213,284h4M151,284h-3M265,269h90M196,269h-35M264,254h73M198,254h-83M262,238h107M198,238h-115M259,223h110M200,223h-135M262,208h134M200,208h-135M263,192h133M200,192h-140M262,177h153M198,177h-152M260,162h160M199,162h-194M262,146h134M200,146h-145M261,131h168M199,131h-148M261,115h145M200,115h-149M262,100h139M199,100h-134M262,85h121M198,85h-147M262,69h111M198,69h-143M270,54h71M211,54h-100M272,39h46M201,39h-72M221,23h37M177,23h-2" style="stroke: #0000ff; stroke-width: 1; fill: none;"></path>
       <path d="M229,300a4,4,0,1,0,8,0a4,4,0,1,0,-8,0zM181,284a4,4,0,1,0,8,0a4,4,0,1,0,-8,0zM231,269a4,4,0,1,0,8,0a4,4,0,1,0,-8,0zM225,254a4,4,0,1,0,8,0a4,4,0,1,0,-8,0zM226,238a4,4,0,1,0,8,0a4,4,0,1,0,-8,0zM226,223a4,4,0,1,0,8,0a4,4,0,1,0,-8,0zM226,208a4,4,0,1,0,8,0a4,4,0,1,0,-8,0zM227,192a4,4,0,1,0,8,0a4,4,0,1,0,-8,0zM226,177a4,4,0,1,0,8,0a4,4,0,1,0,-8,0zM226,162a4,4,0,1,0,8,0a4,4,0,1,0,-8,0zM227,146a4,4,0,1,0,8,0a4,4,0,1,0,-8,0zM226,131a4,4,0,1,0,8,0a4,4,0,1,0,-8,0zM226,115a4,4,0,1,0,8,0a4,4,0,1,0,-8,0zM226,100a4,4,0,1,0,8,0a4,4,0,1,0,-8,0zM227,85a4,4,0,1,0,8,0a4,4,0,1,0,-8,0zM224,69a4,4,0,1,0,8,0a4,4,0,1,0,-8,0zM235,54a4,4,0,1,0,8,0a4,4,0,1,0,-8,0zM230,39a4,4,0,1,0,8,0a4,4,0,1,0,-8,0zM195,23a4,4,0,1,0,8,0a4,4,0,1,0,-8,0z" style="stroke: #0000ff; fill: none;"></path>
      </g>
     </svg>
     <g>
      <g transform="translate(0,307)">
       <path d="M0,0h461" style="stroke: black; stroke-width: 1;"></path>
       <path d="M0,-12v12m9,-6v6m9,-6v6m10,-6v6m9,-6v6m9,-12v12m9,-6v6m10,-6v6m9,-6v6m9,-6v6m9,-12v12m9,-6v6m10,-6v6m9,-6v6m9,-6v6m9,-12v12m10,-6v6m9,-6v6m9,-6v6m9,-6v6m9,-12v12m10,-6v6m9,-6v6m9,-6v6m9,-6v6m10,-12v12m9,-6v6m9,-6v6m9,-6v6m9,-6v6m10,-12v12m9,-6v6m9,-6v6m9,-6v6m9,-6v6m10,-12v12m9,-6v6m9,-6v6m9,-6v6m10,-6v6m9,-12v12m9,-6v6m9,-6v6m9,-6v6m10,-6v6m9,-12v12m9,-6v6m9,-6v6m10,-6v6m9,-6v6m9,-12v12" style="stroke: black; stroke-width: 1;"></path>
       <g font-family="Arial" font-size="13" space="preserve" fill="black" text-anchor="middle">
        <text dy=".8em" transform="translate(0,4)">
         -5
        </text>
        <text dy=".8em" transform="translate(46,4)">
         -4
        </text>
        <text dy=".8em" transform="translate(92,4)">
         -3
        </text>
        <text dy=".8em" transform="translate(138,4)">
         -2
        </text>
        <text dy=".8em" transform="translate(184,4)">
         -1
        </text>
        <text dy=".8em" transform="translate(231,4)">
         0
        </text>
        <text dy=".8em" transform="translate(277,4)">
         1
        </text>
        <text dy=".8em" transform="translate(323,4)">
         2
        </text>
        <text dy=".8em" transform="translate(369,4)">
         3
        </text>
        <text dy=".8em" transform="translate(415,4)">
         4
        </text>
        <text dy=".8em" transform="translate(461,4)">
         5
        </text>
       </g>
      </g>
      <g>
       <path d="M0,0v307" style="stroke: black; stroke-width: 1;"></path>
       <path d="M17,307h-17m9,-6h-9m9,-6h-9m9,-6h-9m9,-7h-9m17,-6h-17m9,-6h-9m9,-6h-9m9,-6h-9m9,-6h-9m17,-6h-17m9,-7h-9m9,-6h-9m9,-6h-9m9,-6h-9m17,-6h-17m9,-6h-9m9,-6h-9m9,-7h-9m9,-6h-9m17,-6h-17m9,-6h-9m9,-6h-9m9,-6h-9m9,-6h-9m17,-6h-17m9,-7h-9m9,-6h-9m9,-6h-9m9,-6h-9m17,-6h-17m9,-6h-9m9,-6h-9m9,-7h-9m9,-6h-9m17,-6h-17m9,-6h-9m9,-6h-9m9,-6h-9m9,-6h-9m17,-7h-17m9,-6h-9m9,-6h-9m9,-6h-9m9,-6h-9m17,-6h-17m9,-6h-9m9,-7h-9m9,-6h-9m9,-6h-9m17,-6h-17" style="stroke: black; stroke-width: 1;"></path>
       <g font-family="Arial" font-size="13" space="preserve" fill="black" text-anchor="end">
        <text dy=".4em" transform="translate(-2,307)">
         -5
        </text>
        <text dy=".4em" transform="translate(-2,276)">
         -4
        </text>
        <text dy=".4em" transform="translate(-2,246)">
         -3
        </text>
        <text dy=".4em" transform="translate(-2,215)">
         -2
        </text>
        <text dy=".4em" transform="translate(-2,184)">
         -1
        </text>
        <text dy=".4em" transform="translate(-2,154)">
         0
        </text>
        <text dy=".4em" transform="translate(-2,123)">
         1
        </text>
        <text dy=".4em" transform="translate(-2,92)">
         2
        </text>
        <text dy=".4em" transform="translate(-2,61)">
         3
        </text>
        <text dy=".4em" transform="translate(-2,31)">
         4
        </text>
        <text dy=".4em" transform="translate(-2)">
         5
        </text>
       </g>
      </g>
     </g>
    </g>
    <g transform="translate(58,2)" font-family="Arial" font-size="19" space="preserve">
     <path d="M0,0H461V26H0Z" style="fill: none;"></path>
     <text fill="black" text-anchor="middle" dy=".8em" transform="translate(231)">
      ViolinY unscaled
     </text>
    </g>
    <g transform="translate(449,25)" font-family="Arial" font-size="10" space="preserve" fill="black">
     <path d="M0,0H115V102H0Z" style="fill: white; stroke: black; stroke-width: 1;"></path>
     <text text-anchor="middle" dy=".4em" transform="translate(58,9)">
      h3_copy
     </text>
     <text text-anchor="start" dy=".4em" transform="translate(6,26)">
      Entries
     </text>
     <text text-anchor="end" dy=".4em" transform="translate(109,26)">
      100000
     </text>
     <text text-anchor="start" dy=".4em" transform="translate(6,43)">
      Mean x
     </text>
     <text text-anchor="end" dy=".4em" transform="translate(109,43)">
      -0.004002
     </text>
     <text text-anchor="start" dy=".4em" transform="translate(6,60)">
      Mean y
     </text>
     <text text-anchor="end" dy=".4em" transform="translate(109,60)">
      0.003930
     </text>
     <text text-anchor="start" dy=".4em" transform="translate(6,77)">
      Std Dev x
     </text>
     <text text-anchor="end" dy=".4em" transform="translate(109,77)">
      0.9997
     </text>
     <text text-anchor="start" dy=".4em" transform="translate(6,94)">
      Std Dev y
     </text>
     <text text-anchor="end" dy=".4em" transform="translate(109,94)">
      1.002
     </text>
     <path d="M0,17h115" style="stroke: black; stroke-width: 1;"></path>
    </g>
   </g>
  </svg>
 </g>
</svg>