<svg viewBox="0 0 1200 800" preserveAspectRatio="none" xmlns="http://www.w3.org/2000/svg" width="1200" height="800"><title>ROOT canvas</title><rect x="0" y="0" width="1200" height="800" style="fill: none;"></rect><g><g transform="translate(120,80)"><title></title><rect x="0" y="0" width="960" height="640" style="fill: none; stroke: black; stroke-width: 1;"></rect><svg x="0" y="0" overflow="hidden" width="960" height="640" viewBox="0 0 960 640"><g objname="VertexXY" objtype="TH2F"><path palette-index="12" fill="rgb(38,62,168)" d="M401,323v2h2v-2zm0,-6v1h2v-1zm2,16v1h3v-1zm0,-2v2h3v-2zm0,-1v1h3v-1zm0,-4v2h3v-2zm0,-1v1h3v-1zm0,-3v1h3v-1zm0,-4v2h3v-2zm0,-3v2h3v-2zm0,-1v1h3v-1zm0,-2v2h3v-2zm0,-3v1h3v-1zm0,-3v1h3v-1zm0,-4v2h3v-2zm3,34v2h2v-2zm0,-2v2h2v-2zm0,-3v2h2v-2zm0,-1v1h2v-1zm0,-4v2h2v-2zm0,-1v1h2v-1zm0,-2v2h2v-2zm0,-1v1h2v-1zm0,-2v2h2v-2zm0,-2v2h2v-2zm0,-4v1h2v-1zm0,-2v2h2v-2zm0,-2v2h2v-2zm0,-6v2h2v-2zm0,-3v1h2v-1zm0,-3v1h2v-1zm2,44v2h2v-2zm0,-4v1h2v-1zm0,-2v2h2v-2zm0,-6v1h2v-1zm0,-2v2h2v-2zm0,-2v2h2v-2zm0,-1v1h2v-1zm0,-3v1h2v-1zm0,-2v2h2v-2zm0,-5v2h2v-2zm0,-5v2h2v-2zm0,-3v2h2v-2zm0,-5v2h2v-2zm0,-1v1h2v-1zm0,-7v2h2v-2zm2,50v2h3v-2zm0,-10v2h3v-2zm0,-1v1h3v-1zm0,-2v2h3v-2zm0,-3v2h3v-2zm0,-2v2h3v-2zm0,-1v1h3v-1zm0,-5v2h3v-2zm0,-2v2h3v-2zm0,-3v2h3v-2zm0,-1v1h3v-1zm0,-2v2h3v-2zm0,-2v2h3v-2zm0,-4v1h3v-1zm0,-4v2h3v-2zm0,-1v1h3v-1zm0,-3v1h3v-1zm0,-2v2h3v-2zm3,48v2h2v-2zm0,-2v2h2v-2zm0,-1v1h2v-1zm0,-2v2h2v-2zm0,-1v1h2v-1zm0,-2v2h2v-2zm0,-3v1h2v-1zm0,-2v2h2v-2zm0,-1v1h2v-1zm0,-4v2h2v-2zm0,-1v1h2v-1zm0,-2v2h2v-2zm0,-1v1h2v-1zm0,-4v2h2v-2zm0,-3v2h2v-2zm0,-1v1h2v-1zm0,-2v2h2v-2zm0,-2v2h2v-2zm0,-1v1h2v-1zm0,-2v2h2v-2zm0,-1v1h2v-1zm0,-2v2h2v-2zm0,-2v2h2v-2zm0,-1v1h2v-1zm0,-2v2h2v-2zm0,-3v2h2v-2zm0,-2v2h2v-2zm0,-1v1h2v-1zm0,-2v2h2v-2zm2,58v1h3v-1zm0,-3v1h3v-1zm0,-2v2h3v-2zm0,-2v2h3v-2zm0,-1v1h3v-1zm0,-5v2h3v-2zm0,-2v2h3v-2zm0,-1v1h3v-1zm0,-3v1h3v-1zm0,-2v2h3v-2zm0,-2v2h3v-2zm0,-1v1h3v-1zm0,-2v2h3v-2zm0,-1v1h3v-1zm0,-2v2h3v-2zm0,-2v2h3v-2zm0,-1v1h3v-1zm0,-3v1h3v-1zm0,-2v2h3v-2zm0,-2v2h3v-2zm0,-1v1h3v-1zm0,-2v2h3v-2zm0,-1v1h3v-1zm0,-4v2h3v-2zm0,-1v1h3v-1zm0,-3v1h3v-1zm0,-4v2h3v-2zm0,-3v2h3v-2zm0,-1v1h3v-1zm3,60v2h2v-2zm0,-4v1h2v-1zm0,-2v2h2v-2zm0,-3v1h2v-1zm0,-2v2h2v-2zm0,-3v2h2v-2zm0,-2v2h2v-2zm0,-1v1h2v-1zm0,-2v2h2v-2zm0,-3v2h2v-2zm0,-2v2h2v-2zm0,-1v1h2v-1zm0,-2v2h2v-2zm0,-3v2h2v-2zm0,-2v2h2v-2zm0,-1v1h2v-1zm0,-2v2h2v-2zm0,-1v1h2v-1zm0,-2v2h2v-2zm0,-5v2h2v-2zm0,-1v1h2v-1zm0,-2v2h2v-2zm0,-2v2h2v-2zm0,-1v1h2v-1zm0,-2v2h2v-2zm0,-1v1h2v-1zm0,-2v2h2v-2zm0,-2v2h2v-2zm0,-4v1h2v-1zm2,64v1h2v-1zm0,-2v2h2v-2zm0,-3v1h2v-1zm0,-5v2h2v-2zm0,-2v2h2v-2zm0,-1v1h2v-1zm0,-2v2h2v-2zm0,-1v1h2v-1zm0,-2v2h2v-2zm0,-2v2h2v-2zm0,-1v1h2v-1zm0,-2v2h2v-2zm0,-1v1h2v-1zm0,-4v2h2v-2zm0,-1v1h2v-1zm0,-2v2h2v-2zm0,-1v1h2v-1zm0,-2v2h2v-2zm0,-2v2h2v-2zm0,-1v1h2v-1zm0,-2v2h2v-2zm0,-1v1h2v-1zm0,-2v2h2v-2zm0,-2v2h2v-2zm0,-1v1h2v-1zm0,-2v2h2v-2zm0,-1v1h2v-1zm0,-2v2h2v-2zm0,-2v2h2v-2zm0,-1v1h2v-1zm0,-2v2h2v-2zm0,-3v2h2v-2zm0,-3v1h2v-1zm0,-5v2h2v-2zm2,67v2h3v-2zm0,-1v1h3v-1zm0,-5v1h3v-1zm0,-5v2h3v-2zm0,-2v2h3v-2zm0,-3v2h3v-2zm0,-1v1h3v-1zm0,-2v2h3v-2zm0,-2v2h3v-2zm0,-1v1h3v-1zm0,-3v1h3v-1zm0,-2v2h3v-2zm0,-2v2h3v-2zm0,-1v1h3v-1zm0,-2v2h3v-2zm0,-1v1h3v-1zm0,-2v2h3v-2zm0,-2v2h3v-2zm0,-1v1h3v-1zm0,-2v2h3v-2zm0,-1v1h3v-1zm0,-2v2h3v-2zm0,-2v2h3v-2zm0,-1v1h3v-1zm0,-2v2h3v-2zm0,-1v1h3v-1zm0,-4v2h3v-2zm0,-1v1h3v-1zm0,-2v2h3v-2zm0,-1v1h3v-1zm0,-2v2h3v-2zm0,-2v2h3v-2zm0,-1v1h3v-1zm0,-2v2h3v-2zm0,-8v2h3v-2zm3,71v1h2v-1zm0,-4v2h2v-2zm0,-1v1h2v-1zm0,-3v1h2v-1zm0,-2v2h2v-2zm0,-2v2h2v-2zm0,-1v1h2v-1zm0,-2v2h2v-2zm0,-1v1h2v-1zm0,-2v2h2v-2zm0,-2v2h2v-2zm0,-1v1h2v-1zm0,-2v2h2v-2zm0,-1v1h2v-1zm0,-2v2h2v-2zm0,-2v2h2v-2zm0,-1v1h2v-1zm0,-2v2h2v-2zm0,-1v1h2v-1zm0,-2v2h2v-2zm0,-2v2h2v-2zm0,-1v1h2v-1zm0,-2v2h2v-2zm0,-1v1h2v-1zm0,-2v2h2v-2zm0,-2v2h2v-2zm0,-1v1h2v-1zm0,-2v2h2v-2zm0,-1v1h2v-1zm0,-2v2h2v-2zm0,-2v2h2v-2zm0,-1v1h2v-1zm0,-2v2h2v-2zm0,-1v1h2v-1zm0,-2v2h2v-2zm0,-2v2h2v-2zm0,-1v1h2v-1zm0,-3v1h2v-1zm0,-4v2h2v-2zm0,-1v1h2v-1zm0,-3v1h2v-1zm2,75v1h3v-1zm0,-8v1h3v-1zm0,-5v2h3v-2zm0,-2v2h3v-2zm0,-1v1h3v-1zm0,-2v2h3v-2zm0,-1v1h3v-1zm0,-2v2h3v-2zm0,-2v2h3v-2zm0,-1v1h3v-1zm0,-2v2h3v-2zm0,-1v1h3v-1zm0,-2v2h3v-2zm0,-2v2h3v-2zm0,-1v1h3v-1zm0,-2v2h3v-2zm0,-1v1h3v-1zm0,-2v2h3v-2zm0,-2v2h3v-2zm0,-1v1h3v-1zm0,-2v2h3v-2zm0,-1v1h3v-1zm0,-2v2h3v-2zm0,-2v2h3v-2zm0,-1v1h3v-1zm0,-2v2h3v-2zm0,-1v1h3v-1zm0,-2v2h3v-2zm0,-2v2h3v-2zm0,-1v1h3v-1zm0,-2v2h3v-2zm0,-1v1h3v-1zm0,-2v2h3v-2zm0,-2v2h3v-2zm0,-3v2h3v-2zm0,-1v1h3v-1zm0,-2v2h3v-2zm0,-3v1h3v-1zm0,-3v1h3v-1zm0,-4v2h3v-2zm3,72v2h2v-2zm0,-1v1h2v-1zm0,-2v2h2v-2zm0,-1v1h2v-1zm0,-2v2h2v-2zm0,-2v2h2v-2zm0,-1v1h2v-1zm0,-2v2h2v-2zm0,-1v1h2v-1zm0,-2v2h2v-2zm0,-2v2h2v-2zm0,-1v1h2v-1zm0,-2v2h2v-2zm0,-1v1h2v-1zm0,-2v2h2v-2zm0,-2v2h2v-2zm0,-1v1h2v-1zm0,-2v2h2v-2zm0,-1v1h2v-1zm0,-2v2h2v-2zm0,-2v2h2v-2zm0,-1v1h2v-1zm0,-2v2h2v-2zm0,-1v1h2v-1zm0,-2v2h2v-2zm0,-2v2h2v-2zm0,-1v1h2v-1zm0,-2v2h2v-2zm0,-1v1h2v-1zm0,-2v2h2v-2zm0,-2v2h2v-2zm0,-1v1h2v-1zm0,-2v2h2v-2zm0,-1v1h2v-1zm0,-4v2h2v-2zm0,-1v1h2v-1zm0,-2v2h2v-2zm0,-1v1h2v-1zm0,-2v2h2v-2zm0,-2v2h2v-2zm0,-1v1h2v-1zm0,-2v2h2v-2zm0,-5v2h2v-2zm0,-1v1h2v-1zm2,83v2h2v-2zm0,-2v2h2v-2zm0,-1v1h2v-1zm0,-2v2h2v-2zm0,-1v1h2v-1zm0,-2v2h2v-2zm0,-2v2h2v-2zm0,-1v1h2v-1zm0,-2v2h2v-2zm0,-1v1h2v-1zm0,-2v2h2v-2zm0,-2v2h2v-2zm0,-1v1h2v-1zm0,-2v2h2v-2zm0,-1v1h2v-1zm0,-2v2h2v-2zm0,-2v2h2v-2zm0,-1v1h2v-1zm0,-2v2h2v-2zm0,-1v1h2v-1zm0,-2v2h2v-2zm0,-2v2h2v-2zm0,-1v1h2v-1zm0,-2v2h2v-2zm0,-1v1h2v-1zm0,-2v2h2v-2zm0,-2v2h2v-2zm0,-1v1h2v-1zm0,-2v2h2v-2zm0,-1v1h2v-1zm0,-2v2h2v-2zm0,-2v2h2v-2zm0,-1v1h2v-1zm0,-2v2h2v-2zm0,-1v1h2v-1zm0,-2v2h2v-2zm0,-2v2h2v-2zm0,-1v1h2v-1zm0,-2v2h2v-2zm0,-1v1h2v-1zm0,-2v2h2v-2zm0,-2v2h2v-2zm0,-1v1h2v-1zm0,-3v1h2v-1zm0,-2v2h2v-2zm0,-2v2h2v-2zm0,-1v1h2v-1zm0,-2v2h2v-2zm0,-1v1h2v-1zm2,78v2h3v-2zm0,-3v1h3v-1zm0,-2v2h3v-2zm0,-3v2h3v-2zm0,-2v2h3v-2zm0,-3v2h3v-2zm0,-1v1h3v-1zm0,-2v2h3v-2zm0,-2v2h3v-2zm0,-1v1h3v-1zm0,-2v2h3v-2zm0,-1v1h3v-1zm0,-2v2h3v-2zm0,-2v2h3v-2zm0,-1v1h3v-1zm0,-2v2h3v-2zm0,-1v1h3v-1zm0,-2v2h3v-2zm0,-2v2h3v-2zm0,-1v1h3v-1zm0,-2v2h3v-2zm0,-1v1h3v-1zm0,-2v2h3v-2zm0,-2v2h3v-2zm0,-1v1h3v-1zm0,-2v2h3v-2zm0,-1v1h3v-1zm0,-2v2h3v-2zm0,-2v2h3v-2zm0,-1v1h3v-1zm0,-2v2h3v-2zm0,-1v1h3v-1zm0,-2v2h3v-2zm0,-2v2h3v-2zm0,-1v1h3v-1zm0,-2v2h3v-2zm0,-1v1h3v-1zm0,-2v2h3v-2zm0,-2v2h3v-2zm0,-1v1h3v-1zm0,-2v2h3v-2zm0,-1v1h3v-1zm0,-2v2h3v-2zm0,-2v2h3v-2zm0,-1v1h3v-1zm0,-3v1h3v-1zm0,-4v2h3v-2zm0,-1v1h3v-1zm3,86v2h2v-2zm0,-1v1h2v-1zm0,-2v2h2v-2zm0,-2v2h2v-2zm0,-1v1h2v-1zm0,-5v2h2v-2zm0,-2v2h2v-2zm0,-1v1h2v-1zm0,-2v2h2v-2zm0,-1v1h2v-1zm0,-2v2h2v-2zm0,-2v2h2v-2zm0,-1v1h2v-1zm0,-2v2h2v-2zm0,-1v1h2v-1zm0,-2v2h2v-2zm0,-2v2h2v-2zm0,-1v1h2v-1zm0,-2v2h2v-2zm0,-1v1h2v-1zm0,-2v2h2v-2zm0,-2v2h2v-2zm0,-1v1h2v-1zm0,-2v2h2v-2zm0,-1v1h2v-1zm0,-2v2h2v-2zm0,-2v2h2v-2zm0,-1v1h2v-1zm0,-2v2h2v-2zm0,-1v1h2v-1zm0,-2v2h2v-2zm0,-2v2h2v-2zm0,-1v1h2v-1zm0,-2v2h2v-2zm0,-1v1h2v-1zm0,-2v2h2v-2zm0,-2v2h2v-2zm0,-1v1h2v-1zm0,-2v2h2v-2zm0,-1v1h2v-1zm0,-2v2h2v-2zm0,-2v2h2v-2zm0,-1v1h2v-1zm0,-2v2h2v-2zm0,-1v1h2v-1zm0,-4v2h2v-2zm0,-1v1h2v-1zm0,-2v2h2v-2zm0,-1v1h2v-1zm0,-4v2h2v-2zm0,-3v2h2v-2zm2,88v2h3v-2zm0,-5v2h3v-2zm0,-1v1h3v-1zm0,-2v2h3v-2zm0,-1v1h3v-1zm0,-2v2h3v-2zm0,-2v2h3v-2zm0,-1v1h3v-1zm0,-2v2h3v-2zm0,-1v1h3v-1zm0,-2v2h3v-2zm0,-2v2h3v-2zm0,-1v1h3v-1zm0,-2v2h3v-2zm0,-1v1h3v-1zm0,-2v2h3v-2zm0,-2v2h3v-2zm0,-1v1h3v-1zm0,-2v2h3v-2zm0,-1v1h3v-1zm0,-2v2h3v-2zm0,-2v2h3v-2zm0,-1v1h3v-1zm0,-2v2h3v-2zm0,-1v1h3v-1zm0,-2v2h3v-2zm0,-2v2h3v-2zm0,-3v2h3v-2zm0,-1v1h3v-1zm0,-4v2h3v-2zm0,-1v1h3v-1zm0,-2v2h3v-2zm0,-1v1h3v-1zm0,-2v2h3v-2zm0,-2v2h3v-2zm0,-1v1h3v-1zm0,-2v2h3v-2zm0,-1v1h3v-1zm0,-2v2h3v-2zm0,-2v2h3v-2zm0,-1v1h3v-1zm0,-2v2h3v-2zm0,-1v1h3v-1zm0,-2v2h3v-2zm0,-2v2h3v-2zm0,-1v1h3v-1zm0,-2v2h3v-2zm0,-6v1h3v-1zm0,-2v2h3v-2zm3,88v2h2v-2zm0,-6v1h2v-1zm0,-2v2h2v-2zm0,-1v1h2v-1zm0,-2v2h2v-2zm0,-2v2h2v-2zm0,-1v1h2v-1zm0,-2v2h2v-2zm0,-1v1h2v-1zm0,-2v2h2v-2zm0,-2v2h2v-2zm0,-1v1h2v-1zm0,-2v2h2v-2zm0,-1v1h2v-1zm0,-2v2h2v-2zm0,-2v2h2v-2zm0,-1v1h2v-1zm0,-2v2h2v-2zm0,-1v1h2v-1zm0,-2v2h2v-2zm0,-2v2h2v-2zm0,-4v1h2v-1zm0,-2v2h2v-2zm0,-2v2h2v-2zm0,-1v1h2v-1zm0,-11v1h2v-1zm0,-2v2h2v-2zm0,-2v2h2v-2zm0,-1v1h2v-1zm0,-2v2h2v-2zm0,-1v1h2v-1zm0,-2v2h2v-2zm0,-2v2h2v-2zm0,-1v1h2v-1zm0,-2v2h2v-2zm0,-1v1h2v-1zm0,-2v2h2v-2zm0,-2v2h2v-2zm0,-1v1h2v-1zm0,-2v2h2v-2zm0,-3v2h2v-2zm0,-3v1h2v-1zm0,-2v2h2v-2zm0,-1v1h2v-1zm2,91v1h2v-1zm0,-3v1h2v-1zm0,-2v2h2v-2zm0,-2v2h2v-2zm0,-1v1h2v-1zm0,-2v2h2v-2zm0,-1v1h2v-1zm0,-2v2h2v-2zm0,-2v2h2v-2zm0,-1v1h2v-1zm0,-2v2h2v-2zm0,-1v1h2v-1zm0,-2v2h2v-2zm0,-2v2h2v-2zm0,-1v1h2v-1zm0,-2v2h2v-2zm0,-1v1h2v-1zm0,-2v2h2v-2zm0,-2v2h2v-2zm0,-4v1h2v-1zm0,-2v2h2v-2zm0,-2v2h2v-2zm0,-1v1h2v-1zm0,-18v2h2v-2zm0,-1v1h2v-1zm0,-2v2h2v-2zm0,-2v2h2v-2zm0,-1v1h2v-1zm0,-2v2h2v-2zm0,-1v1h2v-1zm0,-2v2h2v-2zm0,-2v2h2v-2zm0,-1v1h2v-1zm0,-2v2h2v-2zm0,-1v1h2v-1zm0,-2v2h2v-2zm0,-2v2h2v-2zm0,-1v1h2v-1zm0,-2v2h2v-2zm0,-1v1h2v-1zm0,-2v2h2v-2zm0,-3v1h2v-1zm0,-3v1h2v-1zm2,92v2h3v-2zm0,-1v1h3v-1zm0,-2v2h3v-2zm0,-1v1h3v-1zm0,-4v2h3v-2zm0,-1v1h3v-1zm0,-2v2h3v-2zm0,-1v1h3v-1zm0,-2v2h3v-2zm0,-2v2h3v-2zm0,-1v1h3v-1zm0,-2v2h3v-2zm0,-1v1h3v-1zm0,-2v2h3v-2zm0,-2v2h3v-2zm0,-1v1h3v-1zm0,-2v2h3v-2zm0,-1v1h3v-1zm0,-2v2h3v-2zm0,-2v2h3v-2zm0,-1v1h3v-1zm0,-3v1h3v-1zm0,-29v1h3v-1zm0,-2v2h3v-2zm0,-1v1h3v-1zm0,-2v2h3v-2zm0,-2v2h3v-2zm0,-1v1h3v-1zm0,-2v2h3v-2zm0,-1v1h3v-1zm0,-2v2h3v-2zm0,-2v2h3v-2zm0,-1v1h3v-1zm0,-2v2h3v-2zm0,-1v1h3v-1zm0,-2v2h3v-2zm0,-2v2h3v-2zm0,-1v1h3v-1zm0,-3v1h3v-1zm3,92v2h2v-2zm0,-1v1h2v-1zm0,-2v2h2v-2zm0,-1v1h2v-1zm0,-2v2h2v-2zm0,-3v1h2v-1zm0,-3v1h2v-1zm0,-2v2h2v-2zm0,-2v2h2v-2zm0,-1v1h2v-1zm0,-2v2h2v-2zm0,-1v1h2v-1zm0,-2v2h2v-2zm0,-2v2h2v-2zm0,-1v1h2v-1zm0,-2v2h2v-2zm0,-1v1h2v-1zm0,-2v2h2v-2zm0,-35v1h2v-1zm0,-2v2h2v-2zm0,-1v1h2v-1zm0,-2v2h2v-2zm0,-2v2h2v-2zm0,-1v1h2v-1zm0,-2v2h2v-2zm0,-1v1h2v-1zm0,-2v2h2v-2zm0,-2v2h2v-2zm0,-1v1h2v-1zm0,-2v2h2v-2zm0,-1v1h2v-1zm0,-2v2h2v-2zm0,-3v1h2v-1zm0,-2v2h2v-2zm2,90v1h3v-1zm0,-2v2h3v-2zm0,-1v1h3v-1zm0,-2v2h3v-2zm0,-2v2h3v-2zm0,-1v1h3v-1zm0,-2v2h3v-2zm0,-1v1h3v-1zm0,-4v2h3v-2zm0,-1v1h3v-1zm0,-2v2h3v-2zm0,-1v1h3v-1zm0,-2v2h3v-2zm0,-2v2h3v-2zm0,-1v1h3v-1zm0,-2v2h3v-2zm0,-5v2h3v-2zm0,-32v2h3v-2zm0,-3v2h3v-2zm0,-1v1h3v-1zm0,-2v2h3v-2zm0,-2v2h3v-2zm0,-1v1h3v-1zm0,-2v2h3v-2zm0,-1v1h3v-1zm0,-2v2h3v-2zm0,-2v2h3v-2zm0,-1v1h3v-1zm0,-2v2h3v-2zm0,-1v1h3v-1zm0,-2v2h3v-2zm0,-5v2h3v-2zm0,-5v2h3v-2zm3,98v2h2v-2zm0,-3v1h2v-1zm0,-2v2h2v-2zm0,-1v1h2v-1zm0,-4v2h2v-2zm0,-3v2h2v-2zm0,-1v1h2v-1zm0,-2v2h2v-2zm0,-2v2h2v-2zm0,-1v1h2v-1zm0,-2v2h2v-2zm0,-1v1h2v-1zm0,-2v2h2v-2zm0,-2v2h2v-2zm0,-1v1h2v-1zm0,-2v2h2v-2zm0,-1v1h2v-1zm0,-2v2h2v-2zm0,-38v1h2v-1zm0,-2v2h2v-2zm0,-2v2h2v-2zm0,-1v1h2v-1zm0,-2v2h2v-2zm0,-1v1h2v-1zm0,-2v2h2v-2zm0,-2v2h2v-2zm0,-1v1h2v-1zm0,-2v2h2v-2zm0,-1v1h2v-1zm0,-2v2h2v-2zm0,-2v2h2v-2zm0,-1v1h2v-1zm0,-7v2h2v-2zm2,98v2h2v-2zm0,-5v2h2v-2zm0,-1v1h2v-1zm0,-2v2h2v-2zm0,-2v2h2v-2zm0,-1v1h2v-1zm0,-2v2h2v-2zm0,-1v1h2v-1zm0,-2v2h2v-2zm0,-2v2h2v-2zm0,-1v1h2v-1zm0,-2v2h2v-2zm0,-1v1h2v-1zm0,-2v2h2v-2zm0,-2v2h2v-2zm0,-48v2h2v-2zm0,-1v1h2v-1zm0,-2v2h2v-2zm0,-1v1h2v-1zm0,-2v2h2v-2zm0,-2v2h2v-2zm0,-1v1h2v-1zm0,-2v2h2v-2zm0,-1v1h2v-1zm0,-4v2h2v-2zm0,-3v2h2v-2zm0,-3v2h2v-2zm0,-5v2h2v-2zm2,103v1h3v-1zm0,-2v2h3v-2zm0,-3v1h3v-1zm0,-2v2h3v-2zm0,-1v1h3v-1zm0,-4v2h3v-2zm0,-1v1h3v-1zm0,-2v2h3v-2zm0,-1v1h3v-1zm0,-2v2h3v-2zm0,-2v2h3v-2zm0,-1v1h3v-1zm0,-2v2h3v-2zm0,-1v1h3v-1zm0,-2v2h3v-2zm0,-2v2h3v-2zm0,-1v1h3v-1zm0,-45v2h3v-2zm0,-2v2h3v-2zm0,-1v1h3v-1zm0,-2v2h3v-2zm0,-1v1h3v-1zm0,-2v2h3v-2zm0,-2v2h3v-2zm0,-1v1h3v-1zm0,-2v2h3v-2zm0,-1v1h3v-1zm0,-4v2h3v-2zm0,-1v1h3v-1zm0,-3v1h3v-1zm0,-4v2h3v-2zm0,-1v1h3v-1zm3,101v1h2v-1zm0,-5v1h2v-1zm0,-2v2h2v-2zm0,-1v1h2v-1zm0,-2v2h2v-2zm0,-2v2h2v-2zm0,-1v1h2v-1zm0,-2v2h2v-2zm0,-1v1h2v-1zm0,-2v2h2v-2zm0,-2v2h2v-2zm0,-1v1h2v-1zm0,-2v2h2v-2zm0,-1v1h2v-1zm0,-2v2h2v-2zm0,-2v2h2v-2zm0,-1v1h2v-1zm0,-47v2h2v-2zm0,-1v1h2v-1zm0,-2v2h2v-2zm0,-1v1h2v-1zm0,-2v2h2v-2zm0,-2v2h2v-2zm0,-1v1h2v-1zm0,-2v2h2v-2zm0,-1v1h2v-1zm0,-2v2h2v-2zm0,-2v2h2v-2zm0,-1v1h2v-1zm0,-2v2h2v-2zm0,-1v1h2v-1zm2,94v2h3v-2zm0,-2v2h3v-2zm0,-1v1h3v-1zm0,-3v1h3v-1zm0,-4v2h3v-2zm0,-1v1h3v-1zm0,-2v2h3v-2zm0,-1v1h3v-1zm0,-2v2h3v-2zm0,-2v2h3v-2zm0,-1v1h3v-1zm0,-2v2h3v-2zm0,-1v1h3v-1zm0,-5v1h3v-1zm0,-47v2h3v-2zm0,-1v1h3v-1zm0,-2v2h3v-2zm0,-1v1h3v-1zm0,-2v2h3v-2zm0,-2v2h3v-2zm0,-1v1h3v-1zm0,-2v2h3v-2zm0,-1v1h3v-1zm0,-2v2h3v-2zm0,-2v2h3v-2zm0,-1v1h3v-1zm0,-2v2h3v-2zm0,-8v2h3v-2zm3,104v2h2v-2zm0,-1v1h2v-1zm0,-2v2h2v-2zm0,-2v2h2v-2zm0,-4v1h2v-1zm0,-2v2h2v-2zm0,-2v2h2v-2zm0,-1v1h2v-1zm0,-2v2h2v-2zm0,-1v1h2v-1zm0,-2v2h2v-2zm0,-2v2h2v-2zm0,-1v1h2v-1zm0,-2v2h2v-2zm0,-1v1h2v-1zm0,-2v2h2v-2zm0,-51v1h2v-1zm0,-2v2h2v-2zm0,-1v1h2v-1zm0,-2v2h2v-2zm0,-2v2h2v-2zm0,-1v1h2v-1zm0,-2v2h2v-2zm0,-1v1h2v-1zm0,-2v2h2v-2zm0,-2v2h2v-2zm0,-1v1h2v-1zm0,-3v1h2v-1zm0,-4v2h2v-2zm2,101v2h2v-2zm0,-1v1h2v-1zm0,-2v2h2v-2zm0,-3v1h2v-1zm0,-3v1h2v-1zm0,-2v2h2v-2zm0,-2v2h2v-2zm0,-1v1h2v-1zm0,-2v2h2v-2zm0,-1v1h2v-1zm0,-2v2h2v-2zm0,-2v2h2v-2zm0,-1v1h2v-1zm0,-2v2h2v-2zm0,-1v1h2v-1zm0,-2v2h2v-2zm0,-2v2h2v-2zm0,-48v2h2v-2zm0,-1v1h2v-1zm0,-2v2h2v-2zm0,-1v1h2v-1zm0,-2v2h2v-2zm0,-2v2h2v-2zm0,-1v1h2v-1zm0,-2v2h2v-2zm0,-1v1h2v-1zm0,-2v2h2v-2zm0,-2v2h2v-2zm0,-1v1h2v-1zm0,-2v2h2v-2zm0,-1v1h2v-1zm0,-2v2h2v-2zm0,-5v2h2v-2zm2,104v2h3v-2zm0,-5v2h3v-2zm0,-1v1h3v-1zm0,-3v1h3v-1zm0,-4v2h3v-2zm0,-1v1h3v-1zm0,-2v2h3v-2zm0,-1v1h3v-1zm0,-2v2h3v-2zm0,-2v2h3v-2zm0,-1v1h3v-1zm0,-2v2h3v-2zm0,-1v1h3v-1zm0,-2v2h3v-2zm0,-51v1h3v-1zm0,-2v2h3v-2zm0,-1v1h3v-1zm0,-2v2h3v-2zm0,-2v2h3v-2zm0,-1v1h3v-1zm0,-2v2h3v-2zm0,-1v1h3v-1zm0,-2v2h3v-2zm0,-2v2h3v-2zm0,-1v1h3v-1zm0,-2v2h3v-2zm0,-1v1h3v-1zm0,-4v2h3v-2zm0,-1v1h3v-1zm3,101v1h2v-1zm0,-2v2h2v-2zm0,-2v2h2v-2zm0,-4v1h2v-1zm0,-2v2h2v-2zm0,-2v2h2v-2zm0,-1v1h2v-1zm0,-2v2h2v-2zm0,-1v1h2v-1zm0,-2v2h2v-2zm0,-2v2h2v-2zm0,-1v1h2v-1zm0,-3v1h2v-1zm0,-56v1h2v-1zm0,-2v2h2v-2zm0,-2v2h2v-2zm0,-1v1h2v-1zm0,-2v2h2v-2zm0,-1v1h2v-1zm0,-2v2h2v-2zm0,-2v2h2v-2zm0,-1v1h2v-1zm0,-2v2h2v-2zm0,-1v1h2v-1zm0,-4v2h2v-2zm0,-3v2h2v-2zm2,104v2h3v-2zm0,-1v1h3v-1zm0,-2v2h3v-2zm0,-2v2h3v-2zm0,-1v1h3v-1zm0,-2v2h3v-2zm0,-1v1h3v-1zm0,-2v2h3v-2zm0,-2v2h3v-2zm0,-1v1h3v-1zm0,-2v2h3v-2zm0,-1v1h3v-1zm0,-2v2h3v-2zm0,-2v2h3v-2zm0,-1v1h3v-1zm0,-2v2h3v-2zm0,-1v1h3v-1zm0,-2v2h3v-2zm0,-51v1h3v-1zm0,-2v2h3v-2zm0,-3v2h3v-2zm0,-2v2h3v-2zm0,-1v1h3v-1zm0,-2v2h3v-2zm0,-1v1h3v-1zm0,-2v2h3v-2zm0,-2v2h3v-2zm0,-1v1h3v-1zm0,-2v2h3v-2zm0,-1v1h3v-1zm0,-2v2h3v-2zm0,-3v1h3v-1zm0,-3v1h3v-1zm3,105v2h2v-2zm0,-1v1h2v-1zm0,-7v2h2v-2zm0,-1v1h2v-1zm0,-2v2h2v-2zm0,-2v2h2v-2zm0,-1v1h2v-1zm0,-2v2h2v-2zm0,-1v1h2v-1zm0,-2v2h2v-2zm0,-2v2h2v-2zm0,-1v1h2v-1zm0,-2v2h2v-2zm0,-5v2h2v-2zm0,-49v1h2v-1zm0,-2v2h2v-2zm0,-1v1h2v-1zm0,-2v2h2v-2zm0,-2v2h2v-2zm0,-1v1h2v-1zm0,-2v2h2v-2zm0,-1v1h2v-1zm0,-4v2h2v-2zm0,-1v1h2v-1zm0,-2v2h2v-2zm0,-1v1h2v-1zm0,-2v2h2v-2zm0,-2v2h2v-2zm0,-3v2h2v-2zm0,-1v1h2v-1zm2,105v2h2v-2zm0,-1v1h2v-1zm0,-2v2h2v-2zm0,-2v2h2v-2zm0,-1v1h2v-1zm0,-2v2h2v-2zm0,-1v1h2v-1zm0,-2v2h2v-2zm0,-2v2h2v-2zm0,-1v1h2v-1zm0,-2v2h2v-2zm0,-1v1h2v-1zm0,-2v2h2v-2zm0,-2v2h2v-2zm0,-1v1h2v-1zm0,-2v2h2v-2zm0,-1v1h2v-1zm0,-56v1h2v-1zm0,-2v2h2v-2zm0,-2v2h2v-2zm0,-1v1h2v-1zm0,-2v2h2v-2zm0,-1v1h2v-1zm0,-2v2h2v-2zm0,-2v2h2v-2zm0,-1v1h2v-1zm0,-2v2h2v-2zm0,-3v2h2v-2zm0,-2v2h2v-2zm0,-1v1h2v-1zm2,101v1h3v-1zm0,-2v2h3v-2zm0,-2v2h3v-2zm0,-1v1h3v-1zm0,-2v2h3v-2zm0,-3v2h3v-2zm0,-2v2h3v-2zm0,-1v1h3v-1zm0,-2v2h3v-2zm0,-1v1h3v-1zm0,-2v2h3v-2zm0,-2v2h3v-2zm0,-1v1h3v-1zm0,-2v2h3v-2zm0,-3v2h3v-2zm0,-2v2h3v-2zm0,-48v2h3v-2zm0,-3v2h3v-2zm0,-1v1h3v-1zm0,-2v2h3v-2zm0,-2v2h3v-2zm0,-1v1h3v-1zm0,-2v2h3v-2zm0,-1v1h3v-1zm0,-2v2h3v-2zm0,-2v2h3v-2zm0,-1v1h3v-1zm0,-2v2h3v-2zm0,-1v1h3v-1zm0,-2v2h3v-2zm0,-2v2h3v-2zm0,-1v1h3v-1zm0,-3v1h3v-1zm3,102v2h2v-2zm0,-5v2h2v-2zm0,-1v1h2v-1zm0,-2v2h2v-2zm0,-2v2h2v-2zm0,-1v1h2v-1zm0,-2v2h2v-2zm0,-1v1h2v-1zm0,-2v2h2v-2zm0,-2v2h2v-2zm0,-1v1h2v-1zm0,-2v2h2v-2zm0,-1v1h2v-1zm0,-2v2h2v-2zm0,-53v2h2v-2zm0,-1v1h2v-1zm0,-2v2h2v-2zm0,-2v2h2v-2zm0,-1v1h2v-1zm0,-2v2h2v-2zm0,-1v1h2v-1zm0,-2v2h2v-2zm0,-2v2h2v-2zm0,-1v1h2v-1zm0,-3v1h2v-1zm0,-2v2h2v-2zm0,-3v1h2v-1zm2,97v2h3v-2zm0,-1v1h3v-1zm0,-2v2h3v-2zm0,-1v1h3v-1zm0,-2v2h3v-2zm0,-2v2h3v-2zm0,-1v1h3v-1zm0,-2v2h3v-2zm0,-1v1h3v-1zm0,-2v2h3v-2zm0,-2v2h3v-2zm0,-1v1h3v-1zm0,-2v2h3v-2zm0,-1v1h3v-1zm0,-52v2h3v-2zm0,-3v2h3v-2zm0,-1v1h3v-1zm0,-2v2h3v-2zm0,-2v2h3v-2zm0,-1v1h3v-1zm0,-2v2h3v-2zm0,-1v1h3v-1zm0,-2v2h3v-2zm0,-2v2h3v-2zm0,-1v1h3v-1zm0,-3v1h3v-1zm0,-7v2h3v-2zm3,103v1h2v-1zm0,-4v2h2v-2zm0,-1v1h2v-1zm0,-2v2h2v-2zm0,-3v2h2v-2zm0,-2v2h2v-2zm0,-1v1h2v-1zm0,-2v2h2v-2zm0,-1v1h2v-1zm0,-2v2h2v-2zm0,-2v2h2v-2zm0,-1v1h2v-1zm0,-2v2h2v-2zm0,-56v2h2v-2zm0,-1v1h2v-1zm0,-2v2h2v-2zm0,-2v2h2v-2zm0,-1v1h2v-1zm0,-2v2h2v-2zm0,-1v1h2v-1zm0,-2v2h2v-2zm0,-2v2h2v-2zm0,-1v1h2v-1zm0,-2v2h2v-2zm0,-1v1h2v-1zm0,-2v2h2v-2zm0,-5v2h2v-2zm2,101v2h2v-2zm0,-5v2h2v-2zm0,-1v1h2v-1zm0,-4v2h2v-2zm0,-1v1h2v-1zm0,-2v2h2v-2zm0,-1v1h2v-1zm0,-2v2h2v-2zm0,-2v2h2v-2zm0,-1v1h2v-1zm0,-2v2h2v-2zm0,-1v1h2v-1zm0,-2v2h2v-2zm0,-51v1h2v-1zm0,-2v2h2v-2zm0,-1v1h2v-1zm0,-2v2h2v-2zm0,-2v2h2v-2zm0,-1v1h2v-1zm0,-2v2h2v-2zm0,-1v1h2v-1zm0,-2v2h2v-2zm0,-2v2h2v-2zm0,-1v1h2v-1zm0,-2v2h2v-2zm0,-1v1h2v-1zm0,-2v2h2v-2zm0,-2v2h2v-2zm0,-1v1h2v-1zm2,101v1h3v-1zm0,-4v2h3v-2zm0,-1v1h3v-1zm0,-2v2h3v-2zm0,-1v1h3v-1zm0,-2v2h3v-2zm0,-2v2h3v-2zm0,-1v1h3v-1zm0,-2v2h3v-2zm0,-1v1h3v-1zm0,-2v2h3v-2zm0,-2v2h3v-2zm0,-1v1h3v-1zm0,-2v2h3v-2zm0,-3v2h3v-2zm0,-48v2h3v-2zm0,-5v2h3v-2zm0,-1v1h3v-1zm0,-2v2h3v-2zm0,-2v2h3v-2zm0,-1v1h3v-1zm0,-2v2h3v-2zm0,-1v1h3v-1zm0,-2v2h3v-2zm0,-2v2h3v-2zm0,-1v1h3v-1zm0,-2v2h3v-2zm0,-1v1h3v-1zm0,-2v2h3v-2zm0,-5v2h3v-2zm0,-1v1h3v-1zm3,104v1h2v-1zm0,-4v2h2v-2zm0,-1v1h2v-1zm0,-2v2h2v-2zm0,-3v2h2v-2zm0,-2v2h2v-2zm0,-1v1h2v-1zm0,-2v2h2v-2zm0,-1v1h2v-1zm0,-2v2h2v-2zm0,-2v2h2v-2zm0,-1v1h2v-1zm0,-2v2h2v-2zm0,-1v1h2v-1zm0,-2v2h2v-2zm0,-2v2h2v-2zm0,-48v2h2v-2zm0,-1v1h2v-1zm0,-2v2h2v-2zm0,-1v1h2v-1zm0,-2v2h2v-2zm0,-2v2h2v-2zm0,-1v1h2v-1zm0,-2v2h2v-2zm0,-1v1h2v-1zm0,-2v2h2v-2zm0,-2v2h2v-2zm0,-1v1h2v-1zm0,-2v2h2v-2zm0,-1v1h2v-1zm0,-2v2h2v-2zm0,-2v2h2v-2zm2,98v2h3v-2zm0,-3v1h3v-1zm0,-3v1h3v-1zm0,-2v2h3v-2zm0,-2v2h3v-2zm0,-1v1h3v-1zm0,-2v2h3v-2zm0,-1v1h3v-1zm0,-2v2h3v-2zm0,-2v2h3v-2zm0,-1v1h3v-1zm0,-2v2h3v-2zm0,-1v1h3v-1zm0,-2v2h3v-2zm0,-2v2h3v-2zm0,-48v2h3v-2zm0,-1v1h3v-1zm0,-2v2h3v-2zm0,-1v1h3v-1zm0,-2v2h3v-2zm0,-2v2h3v-2zm0,-1v1h3v-1zm0,-2v2h3v-2zm0,-1v1h3v-1zm0,-2v2h3v-2zm0,-2v2h3v-2zm0,-1v1h3v-1zm0,-2v2h3v-2zm0,-1v1h3v-1zm0,-2v2h3v-2zm0,-2v2h3v-2zm0,-1v1h3v-1zm3,99v2h2v-2zm0,-5v2h2v-2zm0,-1v1h2v-1zm0,-2v2h2v-2zm0,-2v2h2v-2zm0,-1v1h2v-1zm0,-2v2h2v-2zm0,-1v1h2v-1zm0,-2v2h2v-2zm0,-2v2h2v-2zm0,-1v1h2v-1zm0,-2v2h2v-2zm0,-1v1h2v-1zm0,-2v2h2v-2zm0,-5v2h2v-2zm0,-45v2h2v-2zm0,-1v1h2v-1zm0,-2v2h2v-2zm0,-1v1h2v-1zm0,-2v2h2v-2zm0,-2v2h2v-2zm0,-1v1h2v-1zm0,-2v2h2v-2zm0,-1v1h2v-1zm0,-2v2h2v-2zm0,-2v2h2v-2zm0,-1v1h2v-1zm0,-3v1h2v-1zm0,-2v2h2v-2zm0,-2v2h2v-2zm0,-1v1h2v-1zm0,-2v2h2v-2zm2,101v2h2v-2zm0,-8v2h2v-2zm0,-2v2h2v-2zm0,-3v2h2v-2zm0,-1v1h2v-1zm0,-4v2h2v-2zm0,-1v1h2v-1zm0,-2v2h2v-2zm0,-1v1h2v-1zm0,-2v2h2v-2zm0,-5v2h2v-2zm0,-43v2h2v-2zm0,-2v2h2v-2zm0,-1v1h2v-1zm0,-2v2h2v-2zm0,-1v1h2v-1zm0,-2v2h2v-2zm0,-3v1h2v-1zm0,-2v2h2v-2zm0,-1v1h2v-1zm0,-2v2h2v-2zm0,-2v2h2v-2zm0,-1v1h2v-1zm0,-2v2h2v-2zm0,-1v1h2v-1zm0,-4v2h2v-2zm0,-1v1h2v-1zm2,99v2h3v-2zm0,-3v1h3v-1zm0,-3v1h3v-1zm0,-2v2h3v-2zm0,-5v2h3v-2zm0,-1v1h3v-1zm0,-2v2h3v-2zm0,-2v2h3v-2zm0,-1v1h3v-1zm0,-2v2h3v-2zm0,-1v1h3v-1zm0,-2v2h3v-2zm0,-2v2h3v-2zm0,-1v1h3v-1zm0,-2v2h3v-2zm0,-1v1h3v-1zm0,-42v2h3v-2zm0,-2v2h3v-2zm0,-1v1h3v-1zm0,-2v2h3v-2zm0,-1v1h3v-1zm0,-2v2h3v-2zm0,-2v2h3v-2zm0,-1v1h3v-1zm0,-2v2h3v-2zm0,-1v1h3v-1zm0,-5v1h3v-1zm0,-2v2h3v-2zm0,-1v1h3v-1zm0,-2v2h3v-2zm0,-2v2h3v-2zm3,96v2h2v-2zm0,-1v1h2v-1zm0,-2v2h2v-2zm0,-1v1h2v-1zm0,-5v1h2v-1zm0,-2v2h2v-2zm0,-1v1h2v-1zm0,-2v2h2v-2zm0,-2v2h2v-2zm0,-1v1h2v-1zm0,-2v2h2v-2zm0,-1v1h2v-1zm0,-2v2h2v-2zm0,-2v2h2v-2zm0,-1v1h2v-1zm0,-2v2h2v-2zm0,-1v1h2v-1zm0,-5v1h2v-1zm0,-34v2h2v-2zm0,-1v1h2v-1zm0,-2v2h2v-2zm0,-2v2h2v-2zm0,-1v1h2v-1zm0,-2v2h2v-2zm0,-1v1h2v-1zm0,-2v2h2v-2zm0,-2v2h2v-2zm0,-1v1h2v-1zm0,-2v2h2v-2zm0,-1v1h2v-1zm0,-2v2h2v-2zm0,-3v1h2v-1zm0,-2v2h2v-2zm0,-1v1h2v-1zm0,-4v2h2v-2zm2,95v1h3v-1zm0,-2v2h3v-2zm0,-3v2h3v-2zm0,-2v2h3v-2zm0,-4v1h3v-1zm0,-2v2h3v-2zm0,-2v2h3v-2zm0,-1v1h3v-1zm0,-2v2h3v-2zm0,-1v1h3v-1zm0,-2v2h3v-2zm0,-2v2h3v-2zm0,-1v1h3v-1zm0,-2v2h3v-2zm0,-1v1h3v-1zm0,-2v2h3v-2zm0,-2v2h3v-2zm0,-1v1h3v-1zm0,-32v1h3v-1zm0,-2v2h3v-2zm0,-1v1h3v-1zm0,-2v2h3v-2zm0,-2v2h3v-2zm0,-1v1h3v-1zm0,-2v2h3v-2zm0,-1v1h3v-1zm0,-2v2h3v-2zm0,-2v2h3v-2zm0,-1v1h3v-1zm0,-2v2h3v-2zm0,-1v1h3v-1zm0,-2v2h3v-2zm0,-2v2h3v-2zm0,-1v1h3v-1zm0,-2v2h3v-2zm0,-3v2h3v-2zm0,-2v2h3v-2zm3,95v1h2v-1zm0,-2v2h2v-2zm0,-6v1h2v-1zm0,-3v1h2v-1zm0,-2v2h2v-2zm0,-2v2h2v-2zm0,-1v1h2v-1zm0,-2v2h2v-2zm0,-1v1h2v-1zm0,-2v2h2v-2zm0,-2v2h2v-2zm0,-1v1h2v-1zm0,-2v2h2v-2zm0,-1v1h2v-1zm0,-2v2h2v-2zm0,-2v2h2v-2zm0,-1v1h2v-1zm0,-26v2h2v-2zm0,-6v1h2v-1zm0,-2v2h2v-2zm0,-1v1h2v-1zm0,-2v2h2v-2zm0,-2v2h2v-2zm0,-1v1h2v-1zm0,-2v2h2v-2zm0,-1v1h2v-1zm0,-2v2h2v-2zm0,-2v2h2v-2zm0,-1v1h2v-1zm0,-2v2h2v-2zm0,-1v1h2v-1zm0,-2v2h2v-2zm0,-2v2h2v-2zm0,-4v1h2v-1zm0,-2v2h2v-2zm2,88v2h2v-2zm0,-2v2h2v-2zm0,-3v2h2v-2zm0,-1v1h2v-1zm0,-2v2h2v-2zm0,-2v2h2v-2zm0,-1v1h2v-1zm0,-2v2h2v-2zm0,-1v1h2v-1zm0,-2v2h2v-2zm0,-2v2h2v-2zm0,-1v1h2v-1zm0,-2v2h2v-2zm0,-1v1h2v-1zm0,-2v2h2v-2zm0,-2v2h2v-2zm0,-3v2h2v-2zm0,-3v2h2v-2zm0,-13v2h2v-2zm0,-9v1h2v-1zm0,-2v2h2v-2zm0,-2v2h2v-2zm0,-1v1h2v-1zm0,-2v2h2v-2zm0,-1v1h2v-1zm0,-2v2h2v-2zm0,-2v2h2v-2zm0,-1v1h2v-1zm0,-2v2h2v-2zm0,-1v1h2v-1zm0,-2v2h2v-2zm0,-2v2h2v-2zm0,-1v1h2v-1zm0,-2v2h2v-2zm0,-1v1h2v-1zm0,-2v2h2v-2zm0,-2v2h2v-2zm0,-3v2h2v-2zm0,-1v1h2v-1zm2,91v1h3v-1zm0,-2v2h3v-2zm0,-1v1h3v-1zm0,-2v2h3v-2zm0,-2v2h3v-2zm0,-4v1h3v-1zm0,-4v2h3v-2zm0,-1v1h3v-1zm0,-2v2h3v-2zm0,-1v1h3v-1zm0,-2v2h3v-2zm0,-2v2h3v-2zm0,-1v1h3v-1zm0,-2v2h3v-2zm0,-1v1h3v-1zm0,-2v2h3v-2zm0,-2v2h3v-2zm0,-1v1h3v-1zm0,-3v1h3v-1zm0,-2v2h3v-2zm0,-2v2h3v-2zm0,-4v1h3v-1zm0,-2v2h3v-2zm0,-3v1h3v-1zm0,-2v2h3v-2zm0,-6v1h3v-1zm0,-2v2h3v-2zm0,-1v1h3v-1zm0,-2v2h3v-2zm0,-2v2h3v-2zm0,-1v1h3v-1zm0,-2v2h3v-2zm0,-1v1h3v-1zm0,-2v2h3v-2zm0,-2v2h3v-2zm0,-1v1h3v-1zm0,-2v2h3v-2zm0,-3v2h3v-2zm0,-2v2h3v-2zm0,-1v1h3v-1zm0,-2v2h3v-2zm0,-1v1h3v-1zm3,80v1h2v-1zm0,-5v1h2v-1zm0,-2v2h2v-2zm0,-1v1h2v-1zm0,-2v2h2v-2zm0,-2v2h2v-2zm0,-1v1h2v-1zm0,-2v2h2v-2zm0,-1v1h2v-1zm0,-4v2h2v-2zm0,-1v1h2v-1zm0,-2v2h2v-2zm0,-1v1h2v-1zm0,-2v2h2v-2zm0,-2v2h2v-2zm0,-1v1h2v-1zm0,-2v2h2v-2zm0,-3v2h2v-2zm0,-2v2h2v-2zm0,-1v1h2v-1zm0,-2v2h2v-2zm0,-5v2h2v-2zm0,-1v1h2v-1zm0,-2v2h2v-2zm0,-1v1h2v-1zm0,-2v2h2v-2zm0,-2v2h2v-2zm0,-3v2h2v-2zm0,-1v1h2v-1zm0,-2v2h2v-2zm0,-2v2h2v-2zm0,-1v1h2v-1zm0,-2v2h2v-2zm0,-1v1h2v-1zm0,-2v2h2v-2zm0,-2v2h2v-2zm0,-1v1h2v-1zm0,-3v1h2v-1zm0,-2v2h2v-2zm0,-2v2h2v-2zm0,-3v2h2v-2zm0,-1v1h2v-1zm0,-2v2h2v-2zm2,80v2h3v-2zm0,-2v2h3v-2zm0,-1v1h3v-1zm0,-2v2h3v-2zm0,-3v2h3v-2zm0,-2v2h3v-2zm0,-1v1h3v-1zm0,-2v2h3v-2zm0,-3v2h3v-2zm0,-2v2h3v-2zm0,-1v1h3v-1zm0,-2v2h3v-2zm0,-1v1h3v-1zm0,-2v2h3v-2zm0,-2v2h3v-2zm0,-1v1h3v-1zm0,-2v2h3v-2zm0,-1v1h3v-1zm0,-2v2h3v-2zm0,-2v2h3v-2zm0,-1v1h3v-1zm0,-2v2h3v-2zm0,-1v1h3v-1zm0,-2v2h3v-2zm0,-2v2h3v-2zm0,-1v1h3v-1zm0,-2v2h3v-2zm0,-1v1h3v-1zm0,-2v2h3v-2zm0,-2v2h3v-2zm0,-1v1h3v-1zm0,-2v2h3v-2zm0,-1v1h3v-1zm0,-2v2h3v-2zm0,-2v2h3v-2zm0,-1v1h3v-1zm0,-2v2h3v-2zm0,-1v1h3v-1zm0,-2v2h3v-2zm0,-2v2h3v-2zm0,-1v1h3v-1zm0,-2v2h3v-2zm0,-1v1h3v-1zm0,-2v2h3v-2zm0,-2v2h3v-2zm0,-1v1h3v-1zm0,-2v2h3v-2zm0,-1v1h3v-1zm3,80v1h2v-1zm0,-2v2h2v-2zm0,-5v2h2v-2zm0,-1v1h2v-1zm0,-2v2h2v-2zm0,-2v2h2v-2zm0,-1v1h2v-1zm0,-2v2h2v-2zm0,-1v1h2v-1zm0,-2v2h2v-2zm0,-2v2h2v-2zm0,-1v1h2v-1zm0,-2v2h2v-2zm0,-1v1h2v-1zm0,-2v2h2v-2zm0,-2v2h2v-2zm0,-1v1h2v-1zm0,-2v2h2v-2zm0,-1v1h2v-1zm0,-2v2h2v-2zm0,-2v2h2v-2zm0,-1v1h2v-1zm0,-2v2h2v-2zm0,-1v1h2v-1zm0,-2v2h2v-2zm0,-2v2h2v-2zm0,-1v1h2v-1zm0,-2v2h2v-2zm0,-1v1h2v-1zm0,-4v2h2v-2zm0,-1v1h2v-1zm0,-2v2h2v-2zm0,-1v1h2v-1zm0,-2v2h2v-2zm0,-2v2h2v-2zm0,-1v1h2v-1zm0,-2v2h2v-2zm0,-1v1h2v-1zm0,-2v2h2v-2zm0,-2v2h2v-2zm0,-1v1h2v-1zm0,-2v2h2v-2zm0,-1v1h2v-1zm0,-4v2h2v-2zm0,-1v1h2v-1zm0,-2v2h2v-2zm0,-1v1h2v-1zm0,-2v2h2v-2zm0,-2v2h2v-2zm0,-1v1h2v-1zm0,-2v2h2v-2zm2,82v1h2v-1zm0,-2v2h2v-2zm0,-1v1h2v-1zm0,-2v2h2v-2zm0,-2v2h2v-2zm0,-1v1h2v-1zm0,-2v2h2v-2zm0,-1v1h2v-1zm0,-2v2h2v-2zm0,-2v2h2v-2zm0,-1v1h2v-1zm0,-2v2h2v-2zm0,-1v1h2v-1zm0,-2v2h2v-2zm0,-2v2h2v-2zm0,-1v1h2v-1zm0,-2v2h2v-2zm0,-1v1h2v-1zm0,-2v2h2v-2zm0,-2v2h2v-2zm0,-1v1h2v-1zm0,-2v2h2v-2zm0,-1v1h2v-1zm0,-2v2h2v-2zm0,-2v2h2v-2zm0,-1v1h2v-1zm0,-2v2h2v-2zm0,-1v1h2v-1zm0,-2v2h2v-2zm0,-2v2h2v-2zm0,-1v1h2v-1zm0,-2v2h2v-2zm0,-1v1h2v-1zm0,-2v2h2v-2zm0,-2v2h2v-2zm0,-1v1h2v-1zm0,-2v2h2v-2zm0,-1v1h2v-1zm0,-2v2h2v-2zm0,-2v2h2v-2zm0,-1v1h2v-1zm0,-2v2h2v-2zm0,-1v1h2v-1zm0,-4v2h2v-2zm0,-1v1h2v-1zm0,-2v2h2v-2zm0,-1v1h2v-1zm0,-5v1h2v-1zm2,81v2h3v-2zm0,-1v1h3v-1zm0,-2v2h3v-2zm0,-1v1h3v-1zm0,-4v2h3v-2zm0,-1v1h3v-1zm0,-3v1h3v-1zm0,-2v2h3v-2zm0,-2v2h3v-2zm0,-1v1h3v-1zm0,-2v2h3v-2zm0,-1v1h3v-1zm0,-2v2h3v-2zm0,-2v2h3v-2zm0,-1v1h3v-1zm0,-2v2h3v-2zm0,-1v1h3v-1zm0,-2v2h3v-2zm0,-2v2h3v-2zm0,-1v1h3v-1zm0,-2v2h3v-2zm0,-1v1h3v-1zm0,-2v2h3v-2zm0,-2v2h3v-2zm0,-1v1h3v-1zm0,-2v2h3v-2zm0,-1v1h3v-1zm0,-2v2h3v-2zm0,-2v2h3v-2zm0,-1v1h3v-1zm0,-2v2h3v-2zm0,-1v1h3v-1zm0,-2v2h3v-2zm0,-2v2h3v-2zm0,-1v1h3v-1zm0,-2v2h3v-2zm0,-1v1h3v-1zm0,-2v2h3v-2zm0,-2v2h3v-2zm0,-3v2h3v-2zm0,-1v1h3v-1zm0,-2v2h3v-2zm0,-2v2h3v-2zm0,-1v1h3v-1zm0,-5v2h3v-2zm0,-2v2h3v-2zm3,77v2h2v-2zm0,-5v2h2v-2zm0,-1v1h2v-1zm0,-2v2h2v-2zm0,-5v2h2v-2zm0,-1v1h2v-1zm0,-2v2h2v-2zm0,-1v1h2v-1zm0,-2v2h2v-2zm0,-2v2h2v-2zm0,-1v1h2v-1zm0,-2v2h2v-2zm0,-1v1h2v-1zm0,-2v2h2v-2zm0,-2v2h2v-2zm0,-1v1h2v-1zm0,-2v2h2v-2zm0,-1v1h2v-1zm0,-2v2h2v-2zm0,-2v2h2v-2zm0,-1v1h2v-1zm0,-2v2h2v-2zm0,-1v1h2v-1zm0,-2v2h2v-2zm0,-2v2h2v-2zm0,-1v1h2v-1zm0,-2v2h2v-2zm0,-1v1h2v-1zm0,-2v2h2v-2zm0,-2v2h2v-2zm0,-1v1h2v-1zm0,-2v2h2v-2zm0,-3v2h2v-2zm0,-2v2h2v-2zm0,-1v1h2v-1zm0,-3v1h2v-1zm0,-4v2h2v-2zm0,-1v1h2v-1zm0,-3v1h2v-1zm0,-2v2h2v-2zm2,72v2h3v-2zm0,-2v2h3v-2zm0,-1v1h3v-1zm0,-2v2h3v-2zm0,-1v1h3v-1zm0,-2v2h3v-2zm0,-5v2h3v-2zm0,-1v1h3v-1zm0,-2v2h3v-2zm0,-2v2h3v-2zm0,-1v1h3v-1zm0,-2v2h3v-2zm0,-1v1h3v-1zm0,-2v2h3v-2zm0,-2v2h3v-2zm0,-1v1h3v-1zm0,-2v2h3v-2zm0,-1v1h3v-1zm0,-2v2h3v-2zm0,-2v2h3v-2zm0,-1v1h3v-1zm0,-2v2h3v-2zm0,-1v1h3v-1zm0,-2v2h3v-2zm0,-2v2h3v-2zm0,-1v1h3v-1zm0,-2v2h3v-2zm0,-1v1h3v-1zm0,-2v2h3v-2zm0,-2v2h3v-2zm0,-1v1h3v-1zm0,-2v2h3v-2zm0,-1v1h3v-1zm0,-2v2h3v-2zm0,-3v1h3v-1zm0,-2v2h3v-2zm0,-1v1h3v-1zm0,-4v2h3v-2zm0,-3v2h3v-2zm0,-3v2h3v-2zm3,75v2h2v-2zm0,-5v2h2v-2zm0,-3v2h2v-2zm0,-1v1h2v-1zm0,-4v2h2v-2zm0,-1v1h2v-1zm0,-2v2h2v-2zm0,-1v1h2v-1zm0,-2v2h2v-2zm0,-2v2h2v-2zm0,-1v1h2v-1zm0,-2v2h2v-2zm0,-1v1h2v-1zm0,-2v2h2v-2zm0,-2v2h2v-2zm0,-1v1h2v-1zm0,-2v2h2v-2zm0,-1v1h2v-1zm0,-2v2h2v-2zm0,-2v2h2v-2zm0,-1v1h2v-1zm0,-2v2h2v-2zm0,-1v1h2v-1zm0,-2v2h2v-2zm0,-2v2h2v-2zm0,-1v1h2v-1zm0,-2v2h2v-2zm0,-1v1h2v-1zm0,-2v2h2v-2zm0,-2v2h2v-2zm0,-1v1h2v-1zm0,-2v2h2v-2zm0,-3v2h2v-2zm0,-6v1h2v-1zm0,-4v2h2v-2zm2,64v2h2v-2zm0,-1v1h2v-1zm0,-2v2h2v-2zm0,-1v1h2v-1zm0,-2v2h2v-2zm0,-2v2h2v-2zm0,-1v1h2v-1zm0,-2v2h2v-2zm0,-1v1h2v-1zm0,-2v2h2v-2zm0,-2v2h2v-2zm0,-1v1h2v-1zm0,-2v2h2v-2zm0,-1v1h2v-1zm0,-4v2h2v-2zm0,-1v1h2v-1zm0,-2v2h2v-2zm0,-3v2h2v-2zm0,-2v2h2v-2zm0,-1v1h2v-1zm0,-2v2h2v-2zm0,-1v1h2v-1zm0,-2v2h2v-2zm0,-2v2h2v-2zm0,-1v1h2v-1zm0,-2v2h2v-2zm0,-1v1h2v-1zm0,-2v2h2v-2zm0,-2v2h2v-2zm0,-1v1h2v-1zm0,-2v2h2v-2zm0,-1v1h2v-1zm0,-2v2h2v-2zm0,-2v2h2v-2zm0,-1v1h2v-1zm2,56v1h3v-1zm0,-2v2h3v-2zm0,-3v2h3v-2zm0,-3v1h3v-1zm0,-2v2h3v-2zm0,-6v1h3v-1zm0,-2v2h3v-2zm0,-1v1h3v-1zm0,-2v2h3v-2zm0,-2v2h3v-2zm0,-1v1h3v-1zm0,-2v2h3v-2zm0,-1v1h3v-1zm0,-2v2h3v-2zm0,-2v2h3v-2zm0,-1v1h3v-1zm0,-3v1h3v-1zm0,-2v2h3v-2zm0,-2v2h3v-2zm0,-1v1h3v-1zm0,-3v1h3v-1zm0,-2v2h3v-2zm0,-2v2h3v-2zm0,-1v1h3v-1zm0,-2v2h3v-2zm0,-1v1h3v-1zm0,-4v2h3v-2zm0,-3v2h3v-2zm0,-1v1h3v-1zm0,-4v2h3v-2zm3,64v2h2v-2zm0,-4v1h2v-1zm0,-2v2h2v-2zm0,-2v2h2v-2zm0,-1v1h2v-1zm0,-2v2h2v-2zm0,-1v1h2v-1zm0,-2v2h2v-2zm0,-2v2h2v-2zm0,-1v1h2v-1zm0,-2v2h2v-2zm0,-1v1h2v-1zm0,-2v2h2v-2zm0,-2v2h2v-2zm0,-1v1h2v-1zm0,-3v1h2v-1zm0,-2v2h2v-2zm0,-2v2h2v-2zm0,-1v1h2v-1zm0,-2v2h2v-2zm0,-1v1h2v-1zm0,-2v2h2v-2zm0,-2v2h2v-2zm0,-1v1h2v-1zm0,-2v2h2v-2zm0,-1v1h2v-1zm0,-2v2h2v-2zm0,-2v2h2v-2zm0,-1v1h2v-1zm0,-2v2h2v-2zm0,-5v2h2v-2zm0,-3v2h2v-2zm0,-3v2h2v-2zm2,54v2h3v-2zm0,-1v1h3v-1zm0,-2v2h3v-2zm0,-3v2h3v-2zm0,-2v2h3v-2zm0,-1v1h3v-1zm0,-2v2h3v-2zm0,-1v1h3v-1zm0,-2v2h3v-2zm0,-3v1h3v-1zm0,-2v2h3v-2zm0,-1v1h3v-1zm0,-2v2h3v-2zm0,-2v2h3v-2zm0,-1v1h3v-1zm0,-2v2h3v-2zm0,-1v1h3v-1zm0,-2v2h3v-2zm0,-2v2h3v-2zm0,-3v2h3v-2zm0,-3v2h3v-2zm0,-3v1h3v-1zm0,-3v1h3v-1zm0,-2v2h3v-2zm0,-2v2h3v-2zm0,-3v2h3v-2zm3,50v1h2v-1zm0,-3v1h2v-1zm0,-5v1h2v-1zm0,-2v2h2v-2zm0,-1v1h2v-1zm0,-2v2h2v-2zm0,-2v2h2v-2zm0,-1v1h2v-1zm0,-2v2h2v-2zm0,-1v1h2v-1zm0,-2v2h2v-2zm0,-2v2h2v-2zm0,-1v1h2v-1zm0,-2v2h2v-2zm0,-1v1h2v-1zm0,-2v2h2v-2zm0,-2v2h2v-2zm0,-1v1h2v-1zm0,-2v2h2v-2zm0,-8v2h2v-2zm0,-1v1h2v-1zm0,-4v2h2v-2zm0,-1v1h2v-1zm2,49v2h2v-2zm0,-1v1h2v-1zm0,-3v1h2v-1zm0,-4v2h2v-2zm0,-1v1h2v-1zm0,-7v2h2v-2zm0,-1v1h2v-1zm0,-3v1h2v-1zm0,-2v2h2v-2zm0,-2v2h2v-2zm0,-3v2h2v-2zm0,-1v1h2v-1zm0,-2v2h2v-2zm0,-2v2h2v-2zm0,-3v2h2v-2zm0,-1v1h2v-1zm0,-5v1h2v-1zm0,-3v1h2v-1zm0,-2v2h2v-2zm2,40v2h3v-2zm0,-3v1h3v-1zm0,-2v2h3v-2zm0,-5v2h3v-2zm0,-3v2h3v-2zm0,-5v2h3v-2zm0,-1v1h3v-1zm0,-5v2h3v-2zm0,-2v2h3v-2zm0,-1v1h3v-1zm0,-7v2h3v-2zm0,-1v1h3v-1zm0,-3v1h3v-1zm3,33v2h2v-2zm0,-3v2h2v-2zm0,-3v1h2v-1zm0,-2v2h2v-2zm0,-5v2h2v-2zm0,-11v2h2v-2zm2,16v2h3v-2zm0,-5v2h3v-2zm0,-1v1h3v-1zm0,-7v2h3v-2z"></path><path palette-index="25" fill="rgb(22,82,205)" d="M439,317v1h3v-1zm0,-5v2h3v-2zm3,13v1h2v-1zm0,-2v2h2v-2zm0,-8v2h2v-2zm0,-1v1h2v-1zm0,-2v2h2v-2zm0,-2v2h2v-2zm0,-1v1h2v-1zm0,-2v2h2v-2zm2,26v1h2v-1zm0,-2v2h2v-2zm0,-8v2h2v-2zm0,-1v1h2v-1zm0,-2v2h2v-2zm0,-2v2h2v-2zm0,-1v1h2v-1zm0,-2v2h2v-2zm0,-1v1h2v-1zm0,-2v2h2v-2zm0,-2v2h2v-2zm0,-1v1h2v-1zm2,22v2h3v-2zm0,-3v2h3v-2zm0,-2v2h3v-2zm0,-1v1h3v-1zm0,-2v2h3v-2zm0,-3v2h3v-2zm0,-3v1h3v-1zm0,-3v1h3v-1zm0,-2v2h3v-2zm0,-2v2h3v-2zm0,-1v1h3v-1zm0,-2v2h3v-2zm0,-1v1h3v-1zm0,-2v2h3v-2zm0,-2v2h3v-2zm3,32v2h2v-2zm0,-1v1h2v-1zm0,-2v2h2v-2zm0,-1v1h2v-1zm0,-2v2h2v-2zm0,-2v2h2v-2zm0,-1v1h2v-1zm0,-2v2h2v-2zm0,-1v1h2v-1zm0,-7v2h2v-2zm0,-3v2h2v-2zm0,-2v2h2v-2zm0,-1v1h2v-1zm0,-2v2h2v-2zm0,-1v1h2v-1zm0,-2v2h2v-2zm0,-2v2h2v-2zm2,36v1h3v-1zm0,-2v2h3v-2zm0,-3v1h3v-1zm0,-2v2h3v-2zm0,-1v1h3v-1zm0,-2v2h3v-2zm0,-3v1h3v-1zm0,-18v2h3v-2zm0,-1v1h3v-1zm0,-2v2h3v-2zm0,-3v1h3v-1zm3,33v2h2v-2zm0,-1v1h2v-1zm0,-29v2h2v-2zm0,-2v2h2v-2zm0,-1v1h2v-1zm0,-2v2h2v-2zm2,42v1h2v-1zm0,-2v2h2v-2zm0,-1v1h2v-1zm0,-2v2h2v-2zm0,-3v1h2v-1zm0,-26v2h2v-2zm0,-3v2h2v-2zm0,-2v2h2v-2zm0,-1v1h2v-1zm0,-2v2h2v-2zm0,-1v1h2v-1zm0,-2v2h2v-2zm2,43v2h3v-2zm0,-1v1h3v-1zm0,-2v2h3v-2zm0,-2v2h3v-2zm0,-33v1h3v-1zm0,-2v2h3v-2zm0,-1v1h3v-1zm3,41v2h2v-2zm0,-1v1h2v-1zm0,-2v2h2v-2zm0,-34v2h2v-2zm0,-3v2h2v-2zm0,-1v1h2v-1zm0,-2v2h2v-2zm2,48v2h3v-2zm0,-2v2h3v-2zm0,-3v2h3v-2zm0,-1v1h3v-1zm0,-2v2h3v-2zm0,-35v1h3v-1zm0,-2v2h3v-2zm0,-1v1h3v-1zm0,-2v2h3v-2zm3,46v2h2v-2zm0,-1v1h2v-1zm0,-2v2h2v-2zm0,-1v1h2v-1zm0,-39v2h2v-2zm0,-1v1h2v-1zm0,-2v2h2v-2zm0,-2v2h2v-2zm2,47v1h2v-1zm0,-2v2h2v-2zm0,-1v1h2v-1zm0,-42v2h2v-2zm2,46v2h3v-2zm0,-1v1h3v-1zm0,-3v1h3v-1zm0,-40v1h3v-1zm0,-2v2h3v-2zm0,-2v2h3v-2zm3,53v2h2v-2zm0,-3v2h2v-2zm0,-2v2h2v-2zm0,-1v1h2v-1zm0,-45v2h2v-2zm0,-2v2h2v-2zm0,-1v1h2v-1zm0,-2v2h2v-2zm2,51v2h3v-2zm0,-1v1h3v-1zm0,-43v1h3v-1zm0,-2v2h3v-2zm0,-2v2h3v-2zm0,-4v1h3v-1zm3,56v1h2v-1zm0,-2v2h2v-2zm0,-46v1h2v-1zm0,-2v2h2v-2zm0,-2v2h2v-2zm2,50v2h2v-2zm0,-2v2h2v-2zm0,-1v1h2v-1zm0,-47v2h2v-2zm0,-1v1h2v-1zm0,-2v2h2v-2zm2,55v1h3v-1zm0,-50v2h3v-2zm3,46v2h2v-2zm0,-46v2h2v-2zm0,-2v2h2v-2zm0,-1v1h2v-1zm2,51v2h3v-2zm0,-2v2h3v-2zm0,-1v1h3v-1zm0,-2v2h3v-2zm0,-1v1h3v-1zm0,-45v1h3v-1zm3,53v1h2v-1zm0,-2v2h2v-2zm0,-2v2h2v-2zm0,-1v1h2v-1zm0,-2v2h2v-2zm0,-41v1h2v-1zm0,-2v2h2v-2zm0,-2v2h2v-2zm0,-1v1h2v-1zm2,49v2h2v-2zm0,-1v1h2v-1zm0,-2v2h2v-2zm0,-40v2h2v-2zm0,-3v2h2v-2zm0,-2v2h2v-2zm2,52v1h3v-1zm0,-4v2h3v-2zm0,-1v1h3v-1zm0,-2v2h3v-2zm0,-1v1h3v-1zm0,-44v2h3v-2zm0,-1v1h3v-1zm3,48v1h2v-1zm0,-2v2h2v-2zm0,-1v1h2v-1zm0,-40v1h2v-1zm0,-2v2h2v-2zm2,45v1h3v-1zm0,-2v2h3v-2zm0,-1v1h3v-1zm0,-39v2h3v-2zm0,-1v1h3v-1zm0,-2v2h3v-2zm3,46v2h2v-2zm0,-1v1h2v-1zm0,-3v1h2v-1zm0,-2v2h2v-2zm0,-2v2h2v-2zm0,-32v2h2v-2zm0,-3v2h2v-2zm0,-1v1h2v-1zm0,-2v2h2v-2zm2,46v2h2v-2zm0,-1v1h2v-1zm0,-3v1h2v-1zm0,-2v2h2v-2zm0,-3v1h2v-1zm0,-29v2h2v-2zm0,-2v2h2v-2zm0,-1v1h2v-1zm0,-2v2h2v-2zm0,-1v1h2v-1zm2,38v2h3v-2zm0,-2v2h3v-2zm0,-1v1h3v-1zm0,-2v2h3v-2zm0,-24v2h3v-2zm0,-1v1h3v-1zm0,-5v1h3v-1zm0,-2v2h3v-2zm0,-1v1h3v-1zm3,38v2h2v-2zm0,-2v2h2v-2zm0,-3v2h2v-2zm0,-1v1h2v-1zm0,-23v2h2v-2zm0,-1v1h2v-1zm0,-2v2h2v-2zm0,-2v2h2v-2zm0,-1v1h2v-1zm2,30v2h3v-2zm0,-1v1h3v-1zm0,-2v2h3v-2zm0,-2v2h3v-2zm0,-1v1h3v-1zm0,-11v1h3v-1zm0,-2v2h3v-2zm0,-2v2h3v-2zm0,-1v1h3v-1zm0,-2v2h3v-2zm0,-1v1h3v-1zm0,-2v2h3v-2zm0,-2v2h3v-2zm3,29v2h2v-2zm0,-1v1h2v-1zm0,-2v2h2v-2zm0,-2v2h2v-2zm0,-1v1h2v-1zm0,-2v2h2v-2zm0,-1v1h2v-1zm0,-2v2h2v-2zm0,-2v2h2v-2zm0,-1v1h2v-1zm0,-2v2h2v-2zm0,-1v1h2v-1zm0,-2v2h2v-2zm0,-3v1h2v-1zm0,-3v1h2v-1zm0,-2v2h2v-2zm0,-2v2h2v-2zm2,31v1h2v-1zm0,-3v1h2v-1zm0,-4v2h2v-2zm0,-1v1h2v-1zm0,-2v2h2v-2zm0,-1v1h2v-1zm0,-2v2h2v-2zm0,-2v2h2v-2zm0,-1v1h2v-1zm0,-3v1h2v-1zm0,-2v2h2v-2zm0,-2v2h2v-2zm0,-1v1h2v-1zm0,-2v2h2v-2zm2,24v2h3v-2zm0,-6v1h3v-1zm0,-2v2h3v-2zm0,-5v2h3v-2zm0,-4v1h3v-1zm0,-2v2h3v-2zm0,-2v2h3v-2zm3,20v1h2v-1zm0,-8v1h2v-1zm0,-2v2h2v-2zm0,-11v1h2v-1zm5,3v2h2v-2z"></path><path palette-index="38" fill="rgb(16,100,220)" d="M446,322v1h3v-1zm0,-4v2h3v-2zm0,-3v2h3v-2zm3,5v2h2v-2zm0,-2v2h2v-2zm0,-1v1h2v-1zm0,-3v1h2v-1zm2,12v2h3v-2zm0,-3v2h3v-2zm0,-1v1h3v-1zm0,-2v2h3v-2zm0,-2v2h3v-2zm0,-1v1h3v-1zm0,-2v2h3v-2zm0,-3v2h3v-2zm0,-2v2h3v-2zm0,-1v1h3v-1zm3,22v2h2v-2zm0,-1v1h2v-1zm0,-4v2h2v-2zm0,-16v2h2v-2zm0,-1v1h2v-1zm0,-2v2h2v-2zm0,-1v1h2v-1zm2,28v2h2v-2zm0,-3v2h2v-2zm0,-1v1h2v-1zm0,-2v2h2v-2zm0,-22v1h2v-1zm2,25v2h3v-2zm0,-27v2h3v-2zm0,-2v2h3v-2zm3,32v2h2v-2zm0,-1v1h2v-1zm0,-29v2h2v-2zm0,-3v1h2v-1zm2,33v2h3v-2zm0,-1v1h3v-1zm0,-31v2h3v-2zm3,34v2h2v-2zm0,-2v2h2v-2zm0,-32v2h2v-2zm0,-1v1h2v-1zm2,35v2h2v-2zm0,-2v2h2v-2zm0,-35v2h2v-2zm0,-1v1h2v-1zm2,41v2h3v-2zm0,-40v2h3v-2zm3,40v2h2v-2zm0,-1v1h2v-1zm0,-37v1h2v-1zm0,-2v2h2v-2zm0,-1v1h2v-1zm2,41v2h3v-2zm0,-1v1h3v-1zm0,-39v2h3v-2zm3,42v1h2v-1zm0,-2v2h2v-2zm0,-1v1h2v-1zm0,-39v2h2v-2zm2,40v2h2v-2zm0,-1v1h2v-1zm0,-42v2h2v-2zm2,45v1h3v-1zm0,-2v2h3v-2zm0,-1v1h3v-1zm0,-39v2h3v-2zm0,-1v1h3v-1zm0,-5v1h3v-1zm3,48v1h2v-1zm0,-2v2h2v-2zm0,-1v1h2v-1zm0,-2v2h2v-2zm0,-38v1h2v-1zm2,4v2h3v-2zm0,-3v2h3v-2zm0,-1v1h3v-1zm0,-2v2h3v-2zm3,42v1h2v-1zm0,-2v2h2v-2zm0,-37v2h2v-2zm2,39v1h2v-1zm0,-37v1h2v-1zm0,-3v1h2v-1zm2,38v2h3v-2zm0,-35v1h3v-1zm0,-2v2h3v-2zm0,-1v1h3v-1zm3,38v2h2v-2zm0,-2v2h2v-2zm0,-32v2h2v-2zm0,-1v1h2v-1zm0,-2v2h2v-2zm2,37v2h3v-2zm0,-2v2h3v-2zm0,-1v1h3v-1zm0,-29v2h3v-2zm0,-2v2h3v-2zm0,-1v1h3v-1zm3,32v1h2v-1zm0,-3v1h2v-1zm0,-24v1h2v-1zm0,-2v2h2v-2zm0,-3v1h2v-1zm2,33v2h2v-2zm0,-3v2h2v-2zm0,-5v2h2v-2zm0,-19v2h2v-2zm0,-1v1h2v-1zm2,24v1h3v-1zm0,-2v2h3v-2zm0,-2v2h3v-2zm0,-1v1h3v-1zm0,-21v2h3v-2zm0,-2v2h3v-2zm3,26v2h2v-2zm0,-2v2h2v-2zm0,-3v2h2v-2zm0,-1v1h2v-1zm0,-2v2h2v-2zm0,-5v2h2v-2zm0,-1v1h2v-1zm0,-2v2h2v-2zm0,-2v2h2v-2zm0,-1v1h2v-1zm2,14v2h3v-2zm0,-1v1h3v-1zm0,-2v2h3v-2zm0,-2v2h3v-2zm0,-1v1h3v-1zm0,-2v2h3v-2zm3,-5v2h2v-2z"></path><path palette-index="50" fill="rgb(18,114,217)" d="M454,328v2h2v-2zm0,-3v1h2v-1zm0,-2v2h2v-2zm0,-1v1h2v-1zm0,-2v2h2v-2zm0,-3v1h2v-1zm0,-2v2h2v-2zm0,-1v1h2v-1zm0,-2v2h2v-2zm2,14v2h2v-2zm0,-1v1h2v-1zm0,-2v2h2v-2zm0,-11v2h2v-2zm0,-2v2h2v-2zm0,-1v1h2v-1zm2,24v1h3v-1zm0,-3v1h3v-1zm0,-2v2h3v-2zm0,-2v2h3v-2zm0,-17v1h3v-1zm0,-2v2h3v-2zm0,-1v1h3v-1zm3,25v2h2v-2zm0,-24v2h2v-2zm0,-1v1h2v-1zm2,25v2h3v-2zm0,-25v1h3v-1zm0,-2v2h3v-2zm3,29v1h2v-1zm0,-29v2h2v-2zm2,29v1h2v-1zm0,-2v2h2v-2zm0,-29v2h2v-2zm0,-1v1h2v-1zm2,35v2h3v-2zm0,-2v2h3v-2zm0,-32v2h3v-2zm0,-1v1h3v-1zm3,35v2h2v-2zm0,-2v2h2v-2zm2,2v2h3v-2zm0,-35v1h3v-1zm3,35v2h2v-2zm0,-34v2h2v-2zm0,-1v1h2v-1zm2,35v2h2v-2zm0,-2v2h2v-2zm0,-33v1h2v-1zm0,-2v2h2v-2zm0,-1v1h2v-1zm2,38v2h3v-2zm0,-35v1h3v-1zm3,33v2h2v-2zm0,-32v2h2v-2zm0,-1v1h2v-1zm0,-2v2h2v-2zm2,37v2h3v-2zm0,-2v2h3v-2zm0,-33v1h3v-1zm3,33v2h2v-2zm0,-30v2h2v-2zm0,-2v2h2v-2zm0,-1v1h2v-1zm2,35v2h2v-2zm0,-2v2h2v-2zm0,-1v1h2v-1zm0,-29v2h2v-2zm2,30v2h3v-2zm0,-1v1h3v-1zm0,-29v2h3v-2zm0,-2v2h3v-2zm3,31v1h2v-1zm0,-2v2h2v-2zm0,-1v1h2v-1zm0,-26v2h2v-2zm2,27v2h3v-2zm0,-1v1h3v-1zm0,-21v1h3v-1zm0,-3v1h3v-1zm3,25v2h2v-2zm0,-3v2h2v-2zm0,-2v2h2v-2zm0,-17v1h2v-1zm0,-2v2h2v-2zm2,23v1h2v-1zm0,-2v2h2v-2zm0,-5v2h2v-2zm0,-9v1h2v-1zm0,-4v2h2v-2zm0,-1v1h2v-1zm2,14v2h3v-2zm0,-3v2h3v-2zm0,-2v2h3v-2zm0,-3v2h3v-2zm0,-1v1h3v-1zm0,-2v2h3v-2zm0,-2v2h3v-2zm0,-1v1h3v-1zm3,16v1h2v-1zm0,-7v2h2v-2zm0,-1v1h2v-1z"></path><path palette-index="63" fill="rgb(20,129,214)" d="M451,314v1h3v-1zm3,4v2h2v-2zm2,4v1h2v-1zm0,-2v2h2v-2zm0,-2v2h2v-2zm0,-1v1h2v-1zm0,-3v1h2v-1zm2,11v1h3v-1zm0,-2v2h3v-2zm0,-1v1h3v-1zm0,-10v2h3v-2zm0,-2v2h3v-2zm3,20v1h2v-1zm0,-2v2h2v-2zm0,-2v2h2v-2zm0,-1v1h2v-1zm2,5v1h3v-1zm0,-21v1h3v-1zm3,22v2h2v-2zm0,-1v1h2v-1zm0,-23v2h2v-2zm0,-1v1h2v-1zm2,-2v2h2v-2zm2,29v1h3v-1zm3,0v1h2v-1zm0,-31v2h2v-2zm2,31v1h3v-1zm0,-31v2h3v-2zm3,32v2h2v-2zm0,-1v1h2v-1zm2,-31v2h2v-2zm2,0v2h3v-2zm5,31v1h3v-1zm3,0v1h2v-1zm0,-2v2h2v-2zm2,-24v2h2v-2zm0,-5v2h2v-2zm2,29v2h3v-2zm0,-25v1h3v-1zm3,1v2h2v-2zm0,-1v1h2v-1zm2,22v2h3v-2zm0,-21v2h3v-2zm3,18v1h2v-1zm0,-2v2h2v-2zm0,-3v2h2v-2zm0,-5v2h2v-2zm0,-3v2h2v-2zm0,-2v2h2v-2zm2,15v1h2v-1zm0,-3v1h2v-1zm0,-2v2h2v-2zm0,-2v2h2v-2zm0,-3v2h2v-2zm0,-3v2h2v-2zm2,10v1h3v-1zm0,-5v1h3v-1z"></path><path palette-index="76" fill="rgb(14,143,209)" d="M456,315v2h2v-2zm2,5v2h3v-2zm0,-3v1h3v-1zm0,-2v2h3v-2zm0,-1v1h3v-1zm3,9v2h2v-2zm0,-13v2h2v-2zm0,-1v1h2v-1zm2,19v2h3v-2zm0,-21v2h3v-2zm5,23v1h2v-1zm0,-23v2h2v-2zm0,-1v1h2v-1zm2,25v2h3v-2zm0,-25v1h3v-1zm0,-2v2h3v-2zm3,27v2h2v-2zm0,-27v2h2v-2zm2,30v2h3v-2zm0,-3v2h3v-2zm0,-27v2h3v-2zm3,27v2h2v-2zm0,-27v2h2v-2zm2,29v1h2v-1zm0,-29v2h2v-2zm2,30v2h3v-2zm0,-1v1h3v-1zm3,0v1h2v-1zm2,-2v2h3v-2zm0,-27v2h3v-2zm3,26v1h2v-1zm0,-24v1h2v-1zm2,25v2h2v-2zm0,-25v1h2v-1zm2,24v1h3v-1zm0,-2v2h3v-2zm0,-19v1h3v-1zm3,19v2h2v-2zm0,-2v2h2v-2zm0,-17v1h2v-1zm2,17v2h3v-2zm0,-1v1h3v-1zm0,-13v2h3v-2zm0,-2v2h3v-2zm3,12v1h2v-1zm0,-4v2h2v-2zm0,-1v1h2v-1zm0,-3v1h2v-1zm2,3v1h2v-1z"></path><path palette-index="89" fill="rgb(9,157,204)" d="M458,318v2h3v-2zm3,2v2h2v-2zm0,-2v2h2v-2zm0,-3v2h2v-2zm0,-1v1h2v-1zm0,-2v2h2v-2zm2,14v2h3v-2zm0,-1v1h3v-1zm0,-13v2h3v-2zm0,-2v2h3v-2zm3,18v2h2v-2zm0,-2v2h2v-2zm0,-17v1h2v-1zm2,19v2h2v-2zm0,-19v1h2v-1zm2,21v1h3v-1zm0,-23v2h3v-2zm3,-1v1h2v-1zm2,0v1h3v-1zm3,0v1h2v-1zm2,25v2h2v-2zm0,-1v1h2v-1zm2,1v2h3v-2zm0,-24v2h3v-2zm0,-1v1h3v-1zm0,-2v2h3v-2zm3,27v2h2v-2zm0,-1v1h2v-1zm0,-24v1h2v-1zm0,-2v2h2v-2zm2,26v1h3v-1zm3,-23v2h2v-2zm2,23v1h2v-1zm0,-21v1h2v-1zm2,17v2h3v-2zm0,-16v2h3v-2zm0,-3v2h3v-2zm3,18v1h2v-1zm0,-11v1h2v-1zm0,-2v2h2v-2zm0,-2v2h2v-2zm2,13v2h3v-2zm0,-1v1h3v-1zm0,-5v1h3v-1zm0,-2v2h3v-2zm0,-1v1h3v-1z"></path><path palette-index="101" fill="rgb(13,167,195)" d="M461,322v1h2v-1zm0,-5v1h2v-1zm2,6v2h3v-2zm0,-1v1h3v-1zm3,3v1h2v-1zm0,-15v2h2v-2zm2,0v2h2v-2zm2,18v2h3v-2zm0,-19v1h3v-1zm3,21v1h2v-1zm2,0v1h3v-1zm3,0v1h2v-1zm2,-24v1h2v-1zm7,1v2h3v-2zm0,-1v1h3v-1zm3,22v2h2v-2zm0,-19v1h2v-1zm2,19v2h2v-2zm0,-2v2h2v-2zm2,-1v1h3v-1zm0,-13v2h3v-2zm3,11v2h2v-2zm0,-1v1h2v-1zm0,-2v2h2v-2zm0,-5v2h2v-2zm2,5v2h3v-2zm0,-2v2h3v-2z"></path><path palette-index="114" fill="rgb(30,175,179)" d="M463,320v2h3v-2zm0,-2v2h3v-2zm0,-1v1h3v-1zm0,-2v2h3v-2zm0,-1v1h3v-1zm3,9v2h2v-2zm0,-3v2h2v-2zm0,-5v2h2v-2zm0,-1v1h2v-1zm0,-2v2h2v-2zm2,14v2h2v-2zm0,-1v1h2v-1zm0,-13v2h2v-2zm2,14v2h3v-2zm3,2v2h2v-2zm0,-2v2h2v-2zm0,-19v2h2v-2zm5,0v2h2v-2zm2,0v2h2v-2zm2,23v1h3v-1zm0,-2v2h3v-2zm3,-21v2h2v-2zm2,21v2h3v-2zm5,-3v1h2v-1zm2,-2v2h3v-2zm0,-9v1h3v-1zm3,4v2h2v-2z"></path><path palette-index="127" fill="rgb(46,183,164)" d="M466,322v1h2v-1zm0,-4v2h2v-2zm2,4v1h2v-1zm2,-12v2h3v-2zm3,-1v1h2v-1zm2,19v2h3v-2zm0,-21v2h3v-2zm3,19v2h2v-2zm0,-17v1h2v-1zm2,19v2h2v-2zm2,-19v1h3v-1zm3,19v2h2v-2zm0,-19v1h2v-1zm5,17v2h2v-2zm0,-1v1h2v-1zm2,-13v2h2v-2zm0,-2v2h2v-2zm2,12v1h3v-1zm0,-2v2h3v-2zm0,-2v2h3v-2zm0,-3v2h3v-2zm3,2v1h2v-1z"></path><path palette-index="140" fill="rgb(82,186,146)" d="M466,317v1h2v-1zm2,6v2h2v-2zm0,-3v2h2v-2zm0,-6v1h2v-1zm2,11v1h3v-1zm0,-11v1h3v-1zm3,-4v2h2v-2zm2,16v2h3v-2zm0,-16v2h3v-2zm0,-1v1h3v-1zm3,19v2h2v-2zm2,-19v1h2v-1zm5,17v2h2v-2zm2,0v2h3v-2zm0,-1v1h3v-1zm0,-15v2h3v-2zm0,-1v1h3v-1zm3,3v2h2v-2zm0,-2v2h2v-2zm2,13v2h2v-2zm0,-3v2h2v-2zm2,-3v1h3v-1z"></path><path palette-index="152" fill="rgb(116,189,129)" d="M468,318v2h2v-2zm0,-1v1h2v-1zm0,-2v2h2v-2zm2,8v2h3v-2zm0,-11v2h3v-2zm5,13v1h3v-1zm5,1v2h2v-2zm0,-16v2h2v-2zm2,16v2h3v-2zm3,-16v2h2v-2zm2,13v2h3v-2zm5,-1v1h2v-1zm0,-4v2h2v-2zm0,-1v1h2v-1zm0,-2v2h2v-2zm0,-1v1h2v-1z"></path><path palette-index="165" fill="rgb(149,190,113)" d="M470,322v1h3v-1zm3,3v1h2v-1zm0,-13v2h2v-2zm5,0v2h2v-2zm0,-2v2h2v-2zm4,2v2h3v-2zm0,-2v2h3v-2zm3,15v1h2v-1zm2,-13v2h3v-2zm3,11v2h2v-2zm0,-3v2h2v-2zm0,-6v1h2v-1z"></path><path palette-index="178" fill="rgb(179,189,101)" d="M470,320v2h3v-2zm0,-2v2h3v-2zm0,-1v1h3v-1zm0,-2v2h3v-2zm3,8v2h2v-2zm0,-9v1h2v-1zm2,0v1h3v-1zm0,-2v2h3v-2zm3,13v1h2v-1zm2,0v1h2v-1zm0,-13v2h2v-2zm2,13v1h3v-1zm3,-2v2h2v-2zm0,-11v2h2v-2zm2,8v2h3v-2zm0,-6v1h3v-1zm3,4v2h2v-2zm0,-1v1h2v-1zm0,-2v2h2v-2z"></path><path palette-index="191" fill="rgb(209,187,89)" d="M473,322v1h2v-1zm0,-5v1h2v-1zm0,-2v2h2v-2zm2,8v2h3v-2zm0,-3v2h3v-2zm3,-6v1h2v-1zm7,8v1h2v-1zm2,-4v2h3v-2zm3,4v1h2v-1z"></path><path palette-index="203" fill="rgb(226,192,75)" d="M473,318v2h2v-2zm2,4v1h3v-1zm3,1v2h2v-2zm0,-1v1h2v-1zm2,1v2h2v-2zm0,-3v2h2v-2zm0,-6v1h2v-1zm2,9v2h3v-2zm0,-8v2h3v-2zm3,3v2h2v-2zm0,-1v1h2v-1zm0,-3v1h2v-1zm2,8v1h3v-1zm0,-5v1h3v-1zm0,-2v2h3v-2z"></path><path palette-index="216" fill="rgb(244,198,59)" d="M473,320v2h2v-2zm2,-2v2h3v-2zm0,-1v1h3v-1zm0,-2v2h3v-2zm3,5v2h2v-2zm0,-3v1h2v-1zm0,-2v2h2v-2zm2,7v1h2v-1zm0,-7v2h2v-2zm2,7v1h3v-1zm0,-8v1h3v-1zm3,6v2h2v-2zm0,-5v2h2v-2z"></path><path palette-index="229" fill="rgb(253,210,43)" d="M478,318v2h2v-2zm4,2v2h3v-2zm0,-2v2h3v-2z"></path><path palette-index="254" fill="rgb(249,249,15)" d="M480,318v2h2v-2zm0,-1v1h2v-1zm2,0v1h3v-1z"></path></g></svg><g><g transform="translate(0,640)"><path d="M16,-12v12m40,-12v12m40,-24v24m40,-12v12m40,-12v12m40,-12v12m40,-24v24m40,-12v12m40,-12v12m40,-12v12m40,-24v24m40,-12v12m40,-12v12m40,-12v12m40,-24v24m40,-12v12m40,-12v12m40,-12v12m40,-24v24m40,-12v12m40,-12v12m40,-12v12m40,-24v24m40,-12v12" style="stroke: black; stroke-width: 1;"></path><g font-family="Arial" font-size="28" space="preserve"><text fill="black" text-anchor="middle" dy=".8em" transform="translate(96,6)">-0.4</text><text fill="black" text-anchor="middle" dy=".8em" transform="translate(256,6)">-0.2</text><text fill="black" text-anchor="middle" dy=".8em" transform="translate(416,6)">0</text><text fill="black" text-anchor="middle" dy=".8em" transform="translate(576,6)">0.2</text><text fill="black" text-anchor="middle" dy=".8em" transform="translate(736,6)">0.4</text><text fill="black" text-anchor="middle" dy=".8em" transform="translate(896,6)">0.6</text></g><g font-family="Arial" font-size="28" space="preserve" transform="translate(960,45)"><text fill="black" text-anchor="end" dy=".4em">X , cm</text></g></g><g><path d="M18,616h-18m36,-27h-36m18,-27h-18m18,-26h-18m18,-27h-18m36,-27h-36m18,-26h-18m18,-27h-18m18,-27h-18m36,-26h-36m18,-27h-18m18,-27h-18m18,-26h-18m36,-27h-36m18,-27h-18m18,-26h-18m18,-27h-18m36,-27h-36m18,-26h-18m18,-27h-18m18,-27h-18m36,-26h-36m18,-27h-18m18,-27h-18" style="stroke: black; stroke-width: 1;"></path><g font-family="Arial" font-size="28" space="preserve"><text fill="black" text-anchor="end" dy=".4em" transform="translate(-4,589)">-0.2</text><text fill="black" text-anchor="end" dy=".4em" transform="translate(-4,482)">0</text><text fill="black" text-anchor="end" dy=".4em" transform="translate(-4,376)">0.2</text><text fill="black" text-anchor="end" dy=".4em" transform="translate(-4,269)">0.4</text><text fill="black" text-anchor="end" dy=".4em" transform="translate(-4,162)">0.6</text><text fill="black" text-anchor="end" dy=".4em" transform="translate(-4,56)">0.8</text></g><g font-family="Arial" font-size="28" space="preserve" transform="translate(-67,0)"><text fill="black" text-anchor="end" dy=".4em" transform=" rotate(270)">Y , cm</text></g></g></g></g><g objname="palette" objtype="TPaletteAxis" transform="translate(1092,80)"><path d="M0,0h54v640h-54z" style="fill: red; stroke: black; stroke-width: 1;"></path><rect x="0" y="608" width="54" height="32" style="fill: rgb(38,62,168); stroke: rgb(38,62,168);"></rect><rect x="0" y="576" width="54" height="32" style="fill: rgb(22,82,205); stroke: rgb(22,82,205);"></rect><rect x="0" y="544" width="54" height="32" style="fill: rgb(16,100,220); stroke: rgb(16,100,220);"></rect><rect x="0" y="512" width="54" height="32" style="fill: rgb(18,114,217); stroke: rgb(18,114,217);"></rect><rect x="0" y="480" width="54" height="32" style="fill: rgb(20,129,214); stroke: rgb(20,129,214);"></rect><rect x="0" y="448" width="54" height="32" style="fill: rgb(14,143,209); stroke: rgb(14,143,209);"></rect><rect x="0" y="416" width="54" height="32" style="fill: rgb(9,157,204); stroke: rgb(9,157,204);"></rect><rect x="0" y="384" width="54" height="32" style="fill: rgb(13,167,195); stroke: rgb(13,167,195);"></rect><rect x="0" y="352" width="54" height="32" style="fill: rgb(30,175,179); stroke: rgb(30,175,179);"></rect><rect x="0" y="320" width="54" height="32" style="fill: rgb(46,183,164); stroke: rgb(46,183,164);"></rect><rect x="0" y="288" width="54" height="32" style="fill: rgb(82,186,146); stroke: rgb(82,186,146);"></rect><rect x="0" y="256" width="54" height="32" style="fill: rgb(116,189,129); stroke: rgb(116,189,129);"></rect><rect x="0" y="224" width="54" height="32" style="fill: rgb(149,190,113); stroke: rgb(149,190,113);"></rect><rect x="0" y="192" width="54" height="32" style="fill: rgb(179,189,101); stroke: rgb(179,189,101);"></rect><rect x="0" y="160" width="54" height="32" style="fill: rgb(209,187,89); stroke: rgb(209,187,89);"></rect><rect x="0" y="128" width="54" height="32" style="fill: rgb(226,192,75); stroke: rgb(226,192,75);"></rect><rect x="0" y="96" width="54" height="32" style="fill: rgb(244,198,59); stroke: rgb(244,198,59);"></rect><rect x="0" y="64" width="54" height="32" style="fill: rgb(253,210,43); stroke: rgb(253,210,43);"></rect><rect x="0" y="32" width="54" height="32" style="fill: rgb(251,230,29); stroke: rgb(251,230,29);"></rect><rect x="0" y="0" width="54" height="32" style="fill: rgb(249,249,15); stroke: rgb(249,249,15);"></rect><g transform="translate(54, 0)"><path d="M0,640h-33m33,-83h-33m33,-84h-33m33,-83h-33m33,-83h-33m33,-84h-33m33,-83h-33m33,-83h-33" style="stroke: black; stroke-width: 1;"></path><g font-family="Arial" font-size="28" space="preserve"><text fill="black" text-anchor="start" dy=".4em" transform="translate(4,640)">0</text><text fill="black" text-anchor="start" dy=".4em" transform="translate(4,557)">50</text><text fill="black" text-anchor="start" dy=".4em" transform="translate(4,473)">100</text><text fill="black" text-anchor="start" dy=".4em" transform="translate(4,390)">150</text><text fill="black" text-anchor="start" dy=".4em" transform="translate(4,307)">200</text><text fill="black" text-anchor="start" dy=".4em" transform="translate(4,223)">250</text><text fill="black" text-anchor="start" dy=".4em" transform="translate(4,140)">300</text><text fill="black" text-anchor="start" dy=".4em" transform="translate(4,57)">350</text></g></g></g><g objname="TPave" objtype="TPaveText" transform="translate(-3464,-2744)" font-family="Arial" font-size="171" space="preserve" font-weight="bold"><path d="M4,4v907h8000v-907z" style="fill: black; stroke: black; stroke-width: 1px;"></path><path d="M0,0h8000v907h-8000z" style="fill: rgb(242,242,242); stroke: black; stroke-width: 1;"></path><text fill="black" text-anchor="middle" dy=".4em" transform="translate(4000,227)">0.284785 events with vertex (91117 out of 319950 processed events)</text><text fill="black" text-anchor="middle" dy=".4em" transform="translate(4000,680)">0.972903 events with good vertex (88648 out of 91117 events with vertex)</text></g><g objname="TPave" objtype="TPaveText" transform="translate(408,765)" font-family="Arial" font-size="19" space="preserve" font-weight="bold"><path d="M0,0h552v31h-552z" style="fill: rgb(242,242,242); stroke: black; stroke-width: 1;"></path><text fill="black" text-anchor="middle" dy=".4em" transform="translate(276,16)">Object published in db : Tue Apr 17 11:51:40 2012</text></g><g objname="TPave" objtype="TPaveText" transform="translate(12,765)" font-family="Arial" font-size="18" space="preserve" font-weight="bold"><path d="M0,0h384v31h-384z" style="fill: rgb(242,242,242); stroke: black; stroke-width: 1;"></path><text fill="black" text-anchor="middle" dy=".4em" transform="translate(192,16)">Tue May 29 11:21:59 2012, Run 180000</text></g><g objname="stats" objtype="TPaveStats" transform="translate(936,52)" font-family="Arial" font-size="21" space="preserve"><path d="M0,0h240v192h-240z" style="fill: white; stroke: black; stroke-width: 1;"></path><text fill="black" text-anchor="middle" dy=".4em" transform="translate(120,16)">VertexXY</text><text fill="black" text-anchor="start" dy=".4em" transform="translate(12,48)">Entries </text><text fill="black" text-anchor="end" dy=".4em" transform="translate(228,48)"> 88648</text><text fill="black" text-anchor="start" dy=".4em" transform="translate(12,80)">Mean x </text><text fill="black" text-anchor="end" dy=".4em" transform="translate(228,80)"> 0.08209</text><text fill="black" text-anchor="start" dy=".4em" transform="translate(12,112)">Mean y </text><text fill="black" text-anchor="end" dy=".4em" transform="translate(228,112)"> 0.3063</text><text fill="black" text-anchor="start" dy=".4em" transform="translate(12,144)">Std Dev x </text><text fill="black" text-anchor="end" dy=".4em" transform="translate(228,144)"> 0.02400</text><text fill="black" text-anchor="start" dy=".4em" transform="translate(12,176)">Std Dev y </text><text fill="black" text-anchor="end" dy=".4em" transform="translate(228,176)"> 0.02363</text><path d="M0,32h240" style="stroke: black; stroke-width: 1;"></path></g></g></svg>