<svg xmlns="http://www.w3.org/2000/svg" viewBox="0 0 1200 800" preserveAspectRatio="none" width="1200" height="800">
 <path d="M0,0H1200V800H0Z" style="fill: none;"></path>
 <g>
  <g transform="translate(120,80)">
   <path d="M0,0H960V640H0Z" style="fill: none; stroke: black; stroke-width: 1;"></path>
   <svg x="0" y="0" overflow="hidden" width="960" height="640" viewBox="0 0 960 640">
    <g>
     <path fill="#263ea8" d="M401,317h2v1h-2zm0,6h2v2h-2zm2,-21h3v2h-3zm0,4h3v1h-3zm0,3h3v1h-3zm0,3h3v5h-3zm0,6h3v2h-3zm0,4h3v1h-3zm0,3h3v3h-3zm0,5h3v4h-3zm3,-32h2v1h-2zm0,3h2v1h-2zm0,3h2v2h-2zm0,6h2v5h-2zm0,8h2v10h-2zm0,12h2v3h-2zm0,4h2v4h-2zm2,-40h2v2h-2zm0,7h2v3h-2zm0,6h2v2h-2zm0,3h2v2h-2zm0,5h2v2h-2zm0,5h2v3h-2zm0,5h2v6h-2zm0,11h2v3h-2zm0,6h2v2h-2zm2,-46h3v3h-3zm0,5h3v3h-3zm0,5h3v1h-3zm0,4h3v7h-3zm0,8h3v4h-3zm0,7h3v5h-3zm0,6h3v5h-3zm0,13h3v2h-3zm3,-53h2v7h-2zm0,8h2v18h-2zm0,19h2v2h-2zm0,4h2v6h-2zm0,8h2v4h-2zm0,6h2v10h-2zm2,-46h3v3h-3zm0,4h3v2h-3zm0,4h3v1h-3zm0,3h3v3h-3zm0,5h3v9h-3zm0,11h3v14h-3zm0,16h3v5h-3zm0,8h3v6h-3zm0,8h3v1h-3zm3,-59h2v1h-2zm0,4h2v15h-2zm0,18h2v10h-2zm0,11h2v7h-2zm0,8h2v7h-2zm0,8h2v3h-2zm0,5h2v3h-2zm0,6h2v2h-2zm2,-62h2v2h-2zm0,5h2v1h-2zm0,3h2v2h-2zm0,3h2v29h-2zm0,31h2v16h-2zm0,19h2v1h-2zm0,3h2v3h-2zm2,-69h3v2h-3zm0,8h3v13h-3zm0,15h3v25h-3zm0,27h3v8h-3zm0,9h3v4h-3zm0,7h3v1h-3zm0,5h3v3h-3zm3,-72h2v1h-2zm0,3h2v3h-2zm0,5h2v1h-2zm0,3h2v54h-2zm0,56h2v3h-2zm0,5h2v1h-2zm2,-76h3v2h-3zm0,4h3v1h-3zm0,3h3v1h-3zm0,3h3v5h-3zm0,6h3v52h-3zm0,55h3v1h-3zm0,8h3v1h-3zm3,-80h2v3h-2zm0,6h2v13h-2zm0,15h2v54h-2zm2,-16h2v9h-2zm0,11h2v69h-2zm2,-16h3v3h-3zm0,5h3v1h-3zm0,3h3v64h-3zm0,65h3v4h-3zm0,5h3v3h-3zm0,5h3v2h-3zm3,-85h2v2h-2zm0,3h2v2h-2zm0,4h2v6h-2zm0,8h2v64h-2zm0,67h2v8h-2zm2,-82h3v3h-3zm0,8h3v29h-3zm0,31h3v3h-3zm0,4h3v42h-3zm0,45h3v2h-3zm3,-89h2v4h-2zm0,6h2v2h-2zm0,3h2v24h-2zm0,34h2v6h-2zm0,9h2v32h-2zm0,37h2v2h-2zm2,-89h2v1h-2zm0,3h2v1h-2zm0,3h2v29h-2zm0,45h2v6h-2zm0,9h2v29h-2zm0,31h2v1h-2zm2,-91h3v1h-3zm0,3h3v25h-3zm0,53h3v1h-3zm0,3h3v27h-3zm0,29h3v6h-3zm3,-87h2v3h-2zm0,5h2v22h-2zm0,56h2v19h-2zm0,21h2v1h-2zm0,3h2v8h-2zm2,-90h3v2h-3zm0,5h3v2h-3zm0,5h3v21h-3zm0,22h3v2h-3zm0,32h3v2h-3zm0,5h3v13h-3zm0,15h3v12h-3zm3,-84h2v2h-2zm0,7h2v22h-2zm0,59h2v21h-2zm0,22h2v2h-2zm0,4h2v4h-2zm0,6h2v2h-2zm2,-101h2v2h-2zm0,5h2v2h-2zm0,3h2v2h-2zm0,3h2v2h-2zm0,4h2v14h-2zm0,60h2v23h-2zm0,26h2v2h-2zm2,-99h3v3h-3zm0,5h3v1h-3zm0,3h3v3h-3zm0,5h3v16h-3zm0,59h3v19h-3zm0,21h3v4h-3zm0,6h3v3h-3zm3,-94h2v22h-2zm0,67h2v25h-2zm0,29h2v1h-2zm2,-103h3v2h-3zm0,8h3v21h-3zm0,66h3v1h-3zm0,5h3v14h-3zm0,16h3v1h-3zm0,3h3v5h-3zm3,-95h2v2h-2zm0,4h2v1h-2zm0,3h2v17h-2zm0,67h2v19h-2zm0,22h2v7h-2zm2,-99h2v2h-2zm0,5h2v24h-2zm0,70h2v21h-2zm0,23h2v1h-2zm0,3h2v5h-2zm2,-99h3v3h-3zm0,5h3v20h-3zm0,70h3v16h-3zm0,18h3v1h-3zm0,3h3v3h-3zm0,6h3v2h-3zm3,-104h2v2h-2zm0,3h2v2h-2zm0,4h2v17h-2zm0,72h2v1h-2zm0,3h2v14h-2zm0,17h2v5h-2zm2,-100h3v1h-3zm0,3h3v1h-3zm0,3h3v18h-3zm0,19h3v3h-3zm0,53h3v29h-3zm3,-78h2v3h-2zm0,4h2v10h-2zm0,12h2v12h-2zm0,60h2v2h-2zm0,5h2v18h-2zm0,23h2v3h-2zm2,-101h2v5h-2zm0,6h2v16h-2zm0,71h2v27h-2zm2,-80h3v1h-3zm0,3h3v24h-3zm0,25h3v2h-3zm0,48h3v4h-3zm0,5h3v15h-3zm0,16h3v8h-3zm3,-94h2v1h-2zm0,3h2v3h-2zm0,5h2v16h-2zm0,67h2v21h-2zm0,24h2v2h-2zm2,-101h3v2h-3zm0,7h3v1h-3zm0,3h3v16h-3zm0,17h3v2h-3zm0,52h3v22h-3zm3,-79h2v2h-2zm0,5h2v21h-2zm0,75h2v15h-2zm0,16h2v5h-2zm0,7h2v1h-2zm2,-101h2v25h-2zm0,75h2v16h-2zm0,18h2v3h-2zm0,6h2v2h-2zm2,-102h3v3h-3zm0,6h3v21h-3zm0,24h3v2h-3zm0,48h3v2h-3zm0,3h3v21h-3zm0,23h3v1h-3zm3,-100h2v26h-2zm0,72h2v20h-2zm0,21h2v5h-2zm0,7h2v1h-2zm2,-101h3v27h-3zm0,73h3v21h-3zm0,23h3v1h-3zm0,3h3v2h-3zm3,-101h2v8h-2zm0,10h2v19h-2zm0,62h2v2h-2zm0,5h2v21h-2zm0,24h2v2h-2zm2,-99h2v3h-2zm0,5h2v12h-2zm0,14h2v10h-2zm0,51h2v2h-2zm0,5h2v8h-2zm0,10h2v3h-2zm0,4h2v4h-2zm0,10h2v2h-2zm2,-98h3v8h-3zm0,12h3v16h-3zm0,56h3v19h-3zm0,22h3v3h-3zm0,5h3v1h-3zm0,3h3v2h-3zm3,-98h2v2h-2zm0,4h2v4h-2zm0,6h2v21h-2zm0,53h2v1h-2zm0,5h2v20h-2zm0,24h2v6h-2zm2,-92h3v4h-3zm0,5h3v27h-3zm0,58h3v22h-3zm0,25h3v4h-3zm0,5h3v3h-3zm3,-91h2v3h-2zm0,6h2v24h-2zm0,29h2v2h-2zm0,26h2v22h-2zm0,24h2v1h-2zm0,6h2v3h-2zm2,-89h2v3h-2zm0,4h2v29h-2zm0,37h2v2h-2zm0,13h2v2h-2zm0,3h2v2h-2zm0,3h2v23h-2zm0,24h2v4h-2zm2,-76h3v8h-3zm0,9h3v19h-3zm0,24h3v3h-3zm0,5h3v3h-3zm0,6h3v5h-3zm0,7h3v19h-3zm0,21h3v1h-3zm0,4h3v8h-3zm3,-78h2v5h-2zm0,6h2v5h-2zm0,7h2v16h-2zm0,17h2v10h-2zm0,13h2v7h-2zm0,8h2v13h-2zm0,15h2v12h-2zm0,16h2v1h-2zm2,-80h3v64h-3zm0,65h3v7h-3zm0,8h3v7h-3zm3,-80h2v13h-2zm0,15h2v22h-2zm0,24h2v43h-2zm0,46h2v3h-2zm2,-83h2v1h-2zm0,5h2v6h-2zm0,8h2v68h-2zm2,-12h3v4h-3zm0,7h3v8h-3zm0,9h3v53h-3zm0,55h3v3h-3zm0,5h3v6h-3zm3,-74h2v3h-2zm0,5h2v3h-2zm0,5h2v1h-2zm0,3h2v5h-2zm0,6h2v45h-2zm0,48h2v5h-2zm0,8h2v2h-2zm2,-75h3v2h-3zm0,3h3v2h-3zm0,3h3v2h-3zm0,4h3v4h-3zm0,6h3v45h-3zm0,48h3v10h-3zm3,-58h2v2h-2zm0,4h2v1h-2zm0,6h2v2h-2zm0,3h2v45h-2zm0,47h2v3h-2zm0,4h2v2h-2zm0,5h2v2h-2zm2,-62h2v29h-2zm0,30h2v5h-2zm0,7h2v22h-2zm2,-44h3v2h-3zm0,4h3v3h-3zm0,4h3v2h-3zm0,4h3v9h-3zm0,11h3v6h-3zm0,8h3v17h-3zm0,22h3v3h-3zm0,5h3v2h-3zm0,3h3v3h-3zm3,-59h2v2h-2zm0,3h2v2h-2zm0,3h2v2h-2zm0,5h2v24h-2zm0,26h2v22h-2zm0,25h2v2h-2zm2,-59h3v2h-3zm0,3h3v5h-3zm0,7h3v1h-3zm0,3h3v2h-3zm0,3h3v2h-3zm0,3h3v16h-3zm0,18h3v10h-3zm0,11h3v5h-3zm3,-46h2v3h-2zm0,5h2v3h-2zm0,9h2v27h-2zm0,31h2v1h-2zm0,3h2v1h-2zm2,-45h2v3h-2zm0,5h2v1h-2zm0,5h2v3h-2zm0,4h2v7h-2zm0,8h2v5h-2zm0,7h2v3h-2zm0,8h2v3h-2zm0,5h2v1h-2zm0,3h2v3h-2zm2,-43h3v1h-3zm0,3h3v3h-3zm0,8h3v5h-3zm0,8h3v3h-3zm0,6h3v2h-3zm0,3h3v2h-3zm0,5h3v3h-3zm0,5h3v2h-3zm3,-29h2v2h-2zm0,11h2v2h-2zm0,5h2v3h-2zm0,5h2v2h-2zm0,3h2v2h-2zm2,-21h3v2h-3zm0,7h3v3h-3zm0,6h3v2h-3z"></path>
     <path fill="#1652cd" d="M439,312h3v2h-3zm0,5h3v1h-3zm3,-10h2v10h-2zm0,16h2v3h-2zm2,-14h2v16h-2zm0,22h2v3h-2zm2,-29h3v13h-3zm0,15h3v1h-3zm0,3h3v2h-3zm0,3h3v7h-3zm0,8h3v2h-3zm3,-29h2v12h-2zm0,13h2v2h-2zm0,7h2v14h-2zm2,-21h3v1h-3zm0,3h3v5h-3zm0,21h3v1h-3zm0,3h3v6h-3zm0,8h3v3h-3zm3,-37h2v7h-2zm0,34h2v3h-2zm2,-37h2v10h-2zm0,11h2v2h-2zm0,26h2v1h-2zm0,3h2v6h-2zm2,-38h3v4h-3zm0,36h3v7h-3zm3,-38h2v5h-2zm0,6h2v2h-2zm0,34h2v5h-2zm2,-40h3v6h-3zm0,40h3v5h-3zm0,6h3v4h-3zm3,-48h2v7h-2zm0,44h2v6h-2zm2,-42h2v2h-2zm0,42h2v4h-2zm2,-44h3v5h-3zm0,44h3v1h-3zm0,3h3v3h-3zm3,-50h2v7h-2zm0,50h2v5h-2zm0,6h2v2h-2zm2,-57h3v1h-3zm0,4h3v5h-3zm0,47h3v3h-3zm3,-47h2v5h-2zm0,50h2v3h-2zm2,-53h2v5h-2zm0,50h2v5h-2zm2,-45h3v2h-3zm0,50h3v1h-3zm3,-53h2v5h-2zm0,49h2v2h-2zm2,-49h3v1h-3zm0,45h3v8h-3zm3,-45h2v6h-2zm0,46h2v8h-2zm2,-45h2v4h-2zm0,5h2v2h-2zm0,40h2v5h-2zm2,-46h3v3h-3zm0,45h3v6h-3zm0,8h3v1h-3zm3,-50h2v3h-2zm0,42h2v4h-2zm2,-42h3v5h-3zm0,42h3v4h-3zm3,-42h2v5h-2zm0,6h2v2h-2zm0,32h2v5h-2zm0,7h2v3h-2zm2,-43h2v8h-2zm0,35h2v1h-2zm0,3h2v3h-2zm0,5h2v3h-2zm2,-43h3v4h-3zm0,8h3v3h-3zm0,25h3v7h-3zm3,-30h2v8h-2zm0,29h2v3h-2zm0,4h2v4h-2zm2,-32h3v13h-3zm0,23h3v8h-3zm3,-23h2v5h-2zm0,7h2v1h-2zm0,3h2v21h-2zm2,-5h2v8h-2zm0,10h2v11h-2zm0,13h2v1h-2zm0,3h2v1h-2zm2,-23h3v5h-3zm0,8h3v2h-3zm0,5h3v3h-3zm0,8h3v2h-3zm3,-22h2v1h-2zm0,11h2v3h-2zm0,10h2v1h-2zm5,-18h2v2h-2z"></path>
     <path fill="#1064dc" d="M446,315h3v2h-3zm0,3h3v2h-3zm0,4h3v1h-3zm3,-8h2v1h-2zm0,3h2v5h-2zm2,-8h3v5h-3zm0,6h3v10h-3zm0,11h3v2h-3zm3,-20h2v6h-2zm0,20h2v2h-2zm0,4h2v3h-2zm2,-24h2v1h-2zm0,22h2v5h-2zm0,6h2v2h-2zm2,-32h3v4h-3zm0,29h3v2h-3zm3,-30h2v1h-2zm0,3h2v2h-2zm0,29h2v3h-2zm2,-31h3v2h-3zm0,31h3v3h-3zm3,-32h2v3h-2zm0,33h2v4h-2zm2,-36h2v3h-2zm0,36h2v4h-2zm2,-35h3v2h-3zm0,40h3v2h-3zm3,-41h2v4h-2zm0,40h2v3h-2zm2,-39h3v2h-3zm0,39h3v3h-3zm3,-39h2v2h-2zm0,39h2v4h-2zm2,-42h2v2h-2zm0,42h2v3h-2zm2,-45h3v1h-3zm0,5h3v3h-3zm0,40h3v4h-3zm3,-40h2v1h-2zm0,38h2v6h-2zm2,-40h3v5h-3zm0,6h3v2h-3zm3,-3h2v2h-2zm0,37h2v3h-2zm2,-38h2v1h-2zm0,3h2v1h-2zm0,37h2v1h-2zm2,-40h3v4h-3zm0,38h3v2h-3zm3,-37h2v5h-2zm0,35h2v4h-2zm2,-33h3v5h-3zm0,32h3v5h-3zm3,-32h2v1h-2zm0,3h2v3h-2zm0,26h2v1h-2zm0,3h2v1h-2zm2,-27h2v3h-2zm0,20h2v2h-2zm0,5h2v2h-2zm0,3h2v2h-2zm2,-32h3v4h-3zm0,23h3v6h-3zm3,-16h2v8h-2zm0,11h2v5h-2zm0,6h2v4h-2zm2,-11h3v10h-3zm3,-5h2v2h-2z"></path>
     <path fill="#1272d9" d="M454,312h2v6h-2zm0,8h2v6h-2zm0,8h2v2h-2zm2,-19h2v5h-2zm0,14h2v5h-2zm2,-17h3v4h-3zm0,20h3v5h-3zm0,7h3v1h-3zm3,-27h2v3h-2zm0,25h2v2h-2zm2,-27h3v3h-3zm0,27h3v2h-3zm3,-27h2v2h-2zm0,29h2v1h-2zm2,-32h2v3h-2zm0,30h2v3h-2zm2,-30h3v3h-3zm0,33h3v4h-3zm3,0h2v4h-2zm2,-33h3v1h-3zm0,35h3v2h-3zm3,-35h2v3h-2zm0,35h2v2h-2zm2,-38h2v4h-2zm0,36h2v4h-2zm2,-33h3v1h-3zm0,35h3v2h-3zm3,-37h2v5h-2zm0,35h2v2h-2zm2,-33h3v1h-3zm0,33h3v4h-3zm3,-33h2v5h-2zm0,33h2v2h-2zm2,-30h2v2h-2zm0,29h2v5h-2zm2,-31h3v4h-3zm0,31h3v3h-3zm3,-29h2v2h-2zm0,26h2v4h-2zm2,-24h3v1h-3zm0,3h3v1h-3zm0,21h3v3h-3zm3,-23h2v3h-2zm0,19h2v4h-2zm0,5h2v2h-2zm2,-22h2v3h-2zm0,5h2v1h-2zm0,9h2v2h-2zm0,5h2v3h-2zm2,-19h3v8h-3zm0,9h3v4h-3zm0,5h3v2h-3zm3,-6h2v3h-2zm0,8h2v1h-2z"></path>
     <path fill="#1481d6" d="M451,314h3v1h-3zm3,4h2v2h-2zm2,-4h2v1h-2zm0,3h2v6h-2zm2,-7h3v4h-3zm0,12h3v4h-3zm3,3h2v6h-2zm2,-16h3v1h-3zm0,21h3v1h-3zm3,-24h2v3h-2zm0,24h2v3h-2zm2,-26h2v2h-2zm2,29h3v1h-3zm3,-31h2v2h-2zm0,31h2v1h-2zm2,-31h3v2h-3zm0,31h3v1h-3zm3,0h2v3h-2zm2,-31h2v2h-2zm2,0h3v2h-3zm5,31h3v1h-3zm3,-2h2v3h-2zm2,-29h2v2h-2zm0,5h2v2h-2zm2,-1h3v1h-3zm0,25h3v2h-3zm3,-25h2v3h-2zm2,1h3v2h-3zm0,21h3v2h-3zm3,-18h2v4h-2zm0,5h2v2h-2zm0,5h2v2h-2zm0,3h2v3h-2zm2,-11h2v2h-2zm0,3h2v2h-2zm0,3h2v5h-2zm0,7h2v1h-2zm2,-8h3v1h-3zm0,5h3v1h-3z"></path>
     <path fill="#0e8fd1" d="M456,315h2v2h-2zm2,-1h3v4h-3zm0,6h3v2h-3zm3,-11h2v3h-2zm0,14h2v2h-2zm2,-16h3v2h-3zm0,21h3v2h-3zm5,-22h2v3h-2zm0,24h2v1h-2zm2,-26h3v3h-3zm0,27h3v2h-3zm3,-27h2v2h-2zm0,27h2v2h-2zm2,-27h3v2h-3zm0,27h3v2h-3zm0,3h3v2h-3zm3,-30h2v2h-2zm0,27h2v2h-2zm2,-27h2v2h-2zm0,29h2v1h-2zm2,0h3v3h-3zm3,0h2v1h-2zm2,-29h3v2h-3zm0,27h3v2h-3zm3,-25h2v1h-2zm0,24h2v1h-2zm2,-24h2v1h-2zm0,25h2v2h-2zm2,-22h3v1h-3zm0,19h3v3h-3zm3,-19h2v1h-2zm0,17h2v4h-2zm2,-16h3v4h-3zm0,15h3v3h-3zm3,-11h2v1h-2zm0,3h2v3h-2zm0,5h2v1h-2zm2,-5h2v1h-2z"></path>
     <path fill="#099dcc" d="M458,318h3v2h-3zm3,-6h2v5h-2zm0,6h2v4h-2zm2,-8h3v4h-3zm0,15h3v3h-3zm3,-16h2v1h-2zm0,17h2v4h-2zm2,-17h2v1h-2zm0,19h2v2h-2zm2,-21h3v2h-3zm0,23h3v1h-3zm3,-24h2v1h-2zm2,0h3v1h-3zm3,0h2v1h-2zm2,24h2v3h-2zm2,-26h3v5h-3zm0,27h3v2h-3zm3,-27h2v3h-2zm0,26h2v3h-2zm2,0h3v1h-3zm3,-23h2v2h-2zm2,2h2v1h-2zm0,21h2v1h-2zm2,-23h3v2h-3zm0,3h3v2h-3zm0,16h3v2h-3zm3,-16h2v5h-2zm0,15h2v1h-2zm2,-11h3v4h-3zm0,8h3v3h-3z"></path>
     <path fill="#0da7c3" d="M461,317h2v1h-2zm0,5h2v1h-2zm2,0h3v3h-3zm3,-12h2v2h-2zm0,15h2v1h-2zm2,-15h2v2h-2zm2,-1h3v1h-3zm0,19h3v2h-3zm3,2h2v1h-2zm2,0h3v1h-3zm3,0h2v1h-2zm2,-24h2v1h-2zm7,0h3v3h-3zm3,3h2v1h-2zm0,19h2v2h-2zm2,-2h2v4h-2zm2,-14h3v2h-3zm0,13h3v1h-3zm3,-10h2v2h-2zm0,5h2v5h-2zm2,-2h3v4h-3z"></path>
     <path fill="#1eafb3" d="M463,314h3v8h-3zm3,-2h2v5h-2zm0,8h2v2h-2zm0,3h2v2h-2zm2,-11h2v2h-2zm0,13h2v3h-2zm2,1h3v2h-3zm3,-19h2v2h-2zm0,19h2v4h-2zm5,-19h2v2h-2zm2,0h2v2h-2zm2,21h3v3h-3zm3,-21h2v2h-2zm2,21h3v2h-3zm5,-3h2v1h-2zm2,-11h3v1h-3zm0,9h3v2h-3zm3,-5h2v2h-2z"></path>
     <path fill="#2eb7a4" d="M466,318h2v2h-2zm0,4h2v1h-2zm2,0h2v1h-2zm2,-12h3v2h-3zm3,-1h2v1h-2zm2,-2h3v2h-3zm0,21h3v2h-3zm3,-19h2v1h-2zm0,17h2v2h-2zm2,2h2v2h-2zm2,-19h3v1h-3zm3,0h2v1h-2zm0,19h2v2h-2zm5,-3h2v3h-2zm2,-15h2v4h-2zm2,5h3v2h-3zm0,3h3v5h-3zm3,-1h2v1h-2z"></path>
     <path fill="#52ba92" d="M466,317h2v1h-2zm2,-3h2v1h-2zm0,6h2v2h-2zm0,3h2v2h-2zm2,-9h3v1h-3zm0,11h3v1h-3zm3,-15h2v2h-2zm2,-1h3v3h-3zm0,17h3v2h-3zm3,2h2v2h-2zm2,-19h2v1h-2zm5,17h2v2h-2zm2,-17h3v3h-3zm0,16h3v3h-3zm3,-15h2v4h-2zm2,10h2v2h-2zm0,3h2v2h-2zm2,-6h3v1h-3z"></path>
     <path fill="#74bd81" d="M468,315h2v5h-2zm2,-3h3v2h-3zm0,11h3v2h-3zm5,2h3v1h-3zm5,-15h2v2h-2zm0,16h2v2h-2zm2,0h3v2h-3zm3,-16h2v2h-2zm2,13h3v2h-3zm5,-9h2v6h-2zm0,8h2v1h-2z"></path>
     <path fill="#95be71" d="M470,322h3v1h-3zm3,-10h2v2h-2zm0,13h2v1h-2zm5,-15h2v4h-2zm4,0h3v4h-3zm3,15h2v1h-2zm2,-13h3v2h-3zm3,2h2v1h-2zm0,6h2v2h-2zm0,3h2v2h-2z"></path>
     <path fill="#b3bd65" d="M470,315h3v7h-3zm3,-1h2v1h-2zm0,9h2v2h-2zm2,-11h3v3h-3zm3,13h2v1h-2zm2,-13h2v2h-2zm0,13h2v1h-2zm2,0h3v1h-3zm3,-13h2v2h-2zm0,11h2v2h-2zm2,-9h3v1h-3zm0,6h3v2h-3zm3,-5h2v5h-2z"></path>
     <path fill="#d1bb59" d="M473,315h2v3h-2zm0,7h2v1h-2zm2,-2h3v2h-3zm0,3h3v2h-3zm3,-9h2v1h-2zm7,8h2v1h-2zm2,-4h3v2h-3zm3,4h2v1h-2z"></path>
     <path fill="#e2c04b" d="M473,318h2v2h-2zm2,4h3v1h-3zm3,0h2v3h-2zm2,-8h2v1h-2zm0,6h2v2h-2zm0,3h2v2h-2zm2,-8h3v2h-3zm0,8h3v2h-3zm3,-9h2v1h-2zm0,3h2v3h-2zm2,-2h3v3h-3zm0,7h3v1h-3z"></path>
     <path fill="#f4c63b" d="M473,320h2v2h-2zm2,-5h3v5h-3zm3,0h2v3h-2zm0,5h2v2h-2zm2,-5h2v2h-2zm0,7h2v1h-2zm2,-8h3v1h-3zm0,8h3v1h-3zm3,-7h2v2h-2zm0,5h2v2h-2z"></path>
     <path fill="#fdd22b" d="M478,318h2v2h-2zm4,0h3v4h-3z"></path>
     <path fill="#f9f90f" d="M480,317h2v3h-2zm2,0h3v1h-3z"></path>
    </g>
   </svg>
   <g>
    <g transform="translate(0,640)">
     <path d="M0,0h960M16,-12V0M56,-12V0M96,-24V0M136,-12V0M176,-12V0M216,-12V0M256,-24V0M296,-12V0M336,-12V0M376,-12V0M416,-24V0M456,-12V0M496,-12V0M536,-12V0M576,-24V0M616,-12V0M656,-12V0M696,-12V0M736,-24V0M776,-12V0M816,-12V0M856,-12V0M896,-24V0M936,-12V0" style="stroke: black; stroke-width: 1;"></path>
     <g font-family="Arial" font-size="28" space="preserve" fill="black" text-anchor="middle">
      <text dy=".8em" transform="translate(96,6)">
       -0.4
      </text>
      <text dy=".8em" transform="translate(256,6)">
       -0.2
      </text>
      <text dy=".8em" transform="translate(416,6)">
       0
      </text>
      <text dy=".8em" transform="translate(576,6)">
       0.2
      </text>
      <text dy=".8em" transform="translate(736,6)">
       0.4
      </text>
      <text dy=".8em" transform="translate(896,6)">
       0.6
      </text>
     </g>
     <g font-family="Arial" font-size="28" space="preserve" transform="translate(960,45)">
      <text fill="black" text-anchor="end" dy=".4em">
       X , cm
      </text>
     </g>
    </g>
    <g>
     <path d="M0,0v640M18,616H0M36,589H0M18,562H0M18,536H0M18,509H0M36,482H0M18,456H0M18,429H0M18,402H0M36,376H0M18,349H0M18,322H0M18,296H0M36,269H0M18,242H0M18,216H0M18,189H0M36,162H0M18,136H0M18,109H0M18,82H0M36,56H0M18,29H0M18,2H0" style="stroke: black; stroke-width: 1;"></path>
     <g font-family="Arial" font-size="28" space="preserve" fill="black" text-anchor="end">
      <text dy=".4em" transform="translate(-4,589)">
       -0.2
      </text>
      <text dy=".4em" transform="translate(-4,482)">
       0
      </text>
      <text dy=".4em" transform="translate(-4,376)">
       0.2
      </text>
      <text dy=".4em" transform="translate(-4,269)">
       0.4
      </text>
      <text dy=".4em" transform="translate(-4,162)">
       0.6
      </text>
      <text dy=".4em" transform="translate(-4,56)">
       0.8
      </text>
     </g>
     <g font-family="Arial" font-size="28" space="preserve" transform="translate(-67)">
      <text fill="black" text-anchor="end" dy=".4em" transform="rotate(270)">
       Y , cm
      </text>
     </g>
    </g>
   </g>
  </g>
  <g transform="translate(1086,80)">
   <path d="M0,0H54V640H0Z" style="fill: red; stroke: black; stroke-width: 1;"></path>
   <path d="M0,608H54V640H0Z" style="fill: #1652cd;"></path>
   <path d="M0,576H54V609H0Z" style="fill: #1652cd;"></path>
   <path d="M0,544H54V577H0Z" style="fill: #1064dc;"></path>
   <path d="M0,512H54V545H0Z" style="fill: #1272d9;"></path>
   <path d="M0,480H54V513H0Z" style="fill: #1481d6;"></path>
   <path d="M0,448H54V481H0Z" style="fill: #0e8fd1;"></path>
   <path d="M0,416H54V449H0Z" style="fill: #099dcc;"></path>
   <path d="M0,384H54V417H0Z" style="fill: #0da7c3;"></path>
   <path d="M0,352H54V385H0Z" style="fill: #1eafb3;"></path>
   <path d="M0,320H54V353H0Z" style="fill: #2eb7a4;"></path>
   <path d="M0,288H54V321H0Z" style="fill: #52ba92;"></path>
   <path d="M0,256H54V289H0Z" style="fill: #74bd81;"></path>
   <path d="M0,224H54V257H0Z" style="fill: #95be71;"></path>
   <path d="M0,192H54V225H0Z" style="fill: #b3bd65;"></path>
   <path d="M0,160H54V193H0Z" style="fill: #d1bb59;"></path>
   <path d="M0,128H54V161H0Z" style="fill: #e2c04b;"></path>
   <path d="M0,96H54V129H0Z" style="fill: #f4c63b;"></path>
   <path d="M0,64H54V97H0Z" style="fill: #fdd22b;"></path>
   <path d="M0,32H54V65H0Z" style="fill: #fbe61d;"></path>
   <path d="M0,0H54V33H0Z" style="fill: #f9f90f;"></path>
   <g transform="translate(54)">
    <path d="M0,0v640M0,640H-33M0,557H-33M0,473H-33M0,390H-33M0,307H-33M0,223H-33M0,140H-33M0,57H-33" style="stroke: black; stroke-width: 1;"></path>
    <g font-family="Arial" font-size="28" space="preserve" fill="black" text-anchor="start">
     <text dy=".4em" transform="translate(4,640)">
      0
     </text>
     <text dy=".4em" transform="translate(4,557)">
      50
     </text>
     <text dy=".4em" transform="translate(4,473)">
      100
     </text>
     <text dy=".4em" transform="translate(4,390)">
      150
     </text>
     <text dy=".4em" transform="translate(4,307)">
      200
     </text>
     <text dy=".4em" transform="translate(4,223)">
      250
     </text>
     <text dy=".4em" transform="translate(4,140)">
      300
     </text>
     <text dy=".4em" transform="translate(4,57)">
      350
     </text>
    </g>
   </g>
  </g>
  <g transform="translate(-3464,-2744)" font-family="Arial" font-size="157" space="preserve" font-weight="bold" fill="black" text-anchor="middle">
   <path d="M4,4v907h8000v-907z" style="fill: black; stroke: black; stroke-width: 1px;"></path>
   <path d="M0,0H8000V907H0Z" style="fill: #f2f2f2; stroke: black; stroke-width: 1;"></path>
   <text dy=".4em" transform="translate(4000,227)">
    0.284785 events with vertex (91117 out of 319950 processed events)
   </text>
   <text dy=".4em" transform="translate(4000,680)">
    0.972903 events with good vertex (88648 out of 91117 events with vertex)
   </text>
  </g>
  <g transform="translate(408,765)" font-family="Arial" font-size="17" space="preserve" font-weight="bold">
   <path d="M0,0H552V31H0Z" style="fill: #f2f2f2; stroke: black; stroke-width: 1;"></path>
   <text fill="black" text-anchor="middle" dy=".4em" transform="translate(276,16)">
    Object published in db : Tue Apr 17 11:51:40 2012
   </text>
  </g>
  <g transform="translate(936,52)" font-family="Arial" font-size="19" space="preserve" fill="black">
   <path d="M0,0H240V192H0Z" style="fill: white; stroke: black; stroke-width: 1;"></path>
   <text text-anchor="middle" dy=".4em" transform="translate(120,16)">
    VertexXY
   </text>
   <text text-anchor="start" dy=".4em" transform="translate(12,48)">
    Entries
   </text>
   <text text-anchor="end" dy=".4em" transform="translate(228,48)">
    88648
   </text>
   <text text-anchor="start" dy=".4em" transform="translate(12,80)">
    Mean x
   </text>
   <text text-anchor="end" dy=".4em" transform="translate(228,80)">
    0.08209
   </text>
   <text text-anchor="start" dy=".4em" transform="translate(12,112)">
    Mean y
   </text>
   <text text-anchor="end" dy=".4em" transform="translate(228,112)">
    0.3063
   </text>
   <text text-anchor="start" dy=".4em" transform="translate(12,144)">
    Std Dev x
   </text>
   <text text-anchor="end" dy=".4em" transform="translate(228,144)">
    0.02400
   </text>
   <text text-anchor="start" dy=".4em" transform="translate(12,176)">
    Std Dev y
   </text>
   <text text-anchor="end" dy=".4em" transform="translate(228,176)">
    0.02363
   </text>
   <path d="M0,32h240" style="stroke: black; stroke-width: 1;"></path>
  </g>
  <g transform="translate(12,765)" font-family="Arial" font-size="16" space="preserve" font-weight="bold">
   <path d="M0,0H384V31H0Z" style="fill: #f2f2f2; stroke: black; stroke-width: 1;"></path>
   <text fill="black" text-anchor="middle" dy=".4em" transform="translate(192,16)">
    Tue May 29 11:21:59 2012, Run 180000
   </text>
  </g>
 </g>
</svg>