<svg xmlns="http://www.w3.org/2000/svg" width="598" height="574" viewBox="0 0 598 574" preserveAspectRatio="none">
 <path d="M0,0H598V574H0Z" style="fill: white;"></path>
 <g>
  <g transform="translate(96,29)">
   <path d="M0,0H472V453H0Z" style="fill: white; stroke: black; stroke-width: 1;"></path>
   <svg x="0" y="0" overflow="hidden" width="472" height="453" viewBox="0 0 472 453">
    <g>
     <g transform="translate(12,21)">
      <path d="M-7,2H7V-1H-7Z" style="fill: yellow;"></path>
     </g>
     <g transform="translate(26,79)">
      <path d="M-7,2H7V-1H-7Z" style="fill: yellow;"></path>
     </g>
     <g transform="translate(40,115)">
      <path d="M-7,2H7V-1H-7Z" style="fill: yellow;"></path>
     </g>
     <g transform="translate(54,143)">
      <path d="M-7,2H7V-1H-7Z" style="fill: yellow;"></path>
     </g>
     <g transform="translate(67,167)">
      <path d="M-7,2H7V-1H-7Z" style="fill: yellow;"></path>
     </g>
     <g transform="translate(81,185)">
      <path d="M-7,2H7V-2H-7Z" style="fill: yellow;"></path>
     </g>
     <g transform="translate(95,202)">
      <path d="M-7,2H7V-2H-7Z" style="fill: yellow;"></path>
     </g>
     <g transform="translate(108,217)">
      <path d="M-7,2H7V-2H-7Z" style="fill: yellow;"></path>
     </g>
     <g transform="translate(122,231)">
      <path d="M-7,2H7V-2H-7Z" style="fill: yellow;"></path>
     </g>
     <g transform="translate(136,243)">
      <path d="M-7,3H7V-3H-7Z" style="fill: yellow;"></path>
     </g>
     <g transform="translate(150,255)">
      <path d="M-7,3H7V-3H-7Z" style="fill: yellow;"></path>
     </g>
     <g transform="translate(163,266)">
      <path d="M-7,3H7V-3H-7Z" style="fill: yellow;"></path>
     </g>
     <g transform="translate(177,277)">
      <path d="M-7,3H7V-3H-7Z" style="fill: yellow;"></path>
     </g>
     <g transform="translate(191,286)">
      <path d="M-7,3H7V-3H-7Z" style="fill: yellow;"></path>
     </g>
     <g transform="translate(204,296)">
      <path d="M-7,3H7V-3H-7Z" style="fill: yellow;"></path>
     </g>
     <g transform="translate(218,303)">
      <path d="M-7,3H7V-3H-7Z" style="fill: yellow;"></path>
     </g>
     <g transform="translate(232,314)">
      <path d="M-7,3H7V-4H-7Z" style="fill: yellow;"></path>
     </g>
     <g transform="translate(246,321)">
      <path d="M-7,3H7V-4H-7Z" style="fill: yellow;"></path>
     </g>
     <g transform="translate(259,330)">
      <path d="M-7,3H7V-4H-7Z" style="fill: yellow;"></path>
     </g>
     <g transform="translate(273,339)">
      <path d="M-7,3H7V-4H-7Z" style="fill: yellow;"></path>
     </g>
     <g transform="translate(287,347)">
      <path d="M-7,3H7V-4H-7Z" style="fill: yellow;"></path>
     </g>
     <g transform="translate(300,351)">
      <path d="M-7,4H7V-4H-7Z" style="fill: yellow;"></path>
     </g>
     <g transform="translate(314,364)">
      <path d="M-7,3H7V-4H-7Z" style="fill: yellow;"></path>
     </g>
     <g transform="translate(328,369)">
      <path d="M-7,3H7V-4H-7Z" style="fill: yellow;"></path>
     </g>
     <g transform="translate(342,378)">
      <path d="M-7,4H7V-5H-7Z" style="fill: yellow;"></path>
     </g>
     <g transform="translate(355,384)">
      <path d="M-7,4H7V-5H-7Z" style="fill: yellow;"></path>
     </g>
     <g transform="translate(369,392)">
      <path d="M-7,4H7V-5H-7Z" style="fill: yellow;"></path>
     </g>
     <g transform="translate(383,398)">
      <path d="M-7,4H7V-5H-7Z" style="fill: yellow;"></path>
     </g>
     <g transform="translate(397,408)">
      <path d="M-7,4H7V-5H-7Z" style="fill: yellow;"></path>
     </g>
     <g transform="translate(410,415)">
      <path d="M-7,4H7V-5H-7Z" style="fill: yellow;"></path>
     </g>
     <g transform="translate(424,422)">
      <path d="M-7,4H7V-5H-7Z" style="fill: yellow;"></path>
     </g>
     <g transform="translate(438,429)">
      <path d="M-7,4H7V-5H-7Z" style="fill: yellow;"></path>
     </g>
     <g transform="translate(451,436)">
      <path d="M-7,4H7V-6H-7Z" style="fill: yellow;"></path>
     </g>
     <g transform="translate(465,447)">
      <path d="M-7,4H7V-6H-7Z" style="fill: yellow;"></path>
     </g>
    </g>
    <g>
     <g transform="translate(12,21)">
      <path d="M-7,2H7V-1H-7Z" style="fill: yellow;"></path>
     </g>
     <g transform="translate(26,79)">
      <path d="M-7,1H7V-1H-7Z" style="fill: yellow;"></path>
     </g>
     <g transform="translate(40,115)">
      <path d="M-7,2H7V-1H-7Z" style="fill: yellow;"></path>
     </g>
     <g transform="translate(54,143)">
      <path d="M-7,2H7V-1H-7Z" style="fill: yellow;"></path>
     </g>
     <g transform="translate(67,167)">
      <path d="M-7,2H7V-1H-7Z" style="fill: yellow;"></path>
     </g>
     <g transform="translate(81,185)">
      <path d="M-7,2H7V-1H-7Z" style="fill: yellow;"></path>
     </g>
     <g transform="translate(95,202)">
      <path d="M-7,2H7V-1H-7Z" style="fill: yellow;"></path>
     </g>
     <g transform="translate(108,217)">
      <path d="M-7,2H7V-1H-7Z" style="fill: yellow;"></path>
     </g>
     <g transform="translate(122,231)">
      <path d="M-7,2H7V-1H-7Z" style="fill: yellow;"></path>
     </g>
     <g transform="translate(136,243)">
      <path d="M-7,2H7V-1H-7Z" style="fill: yellow;"></path>
     </g>
     <g transform="translate(150,255)">
      <path d="M-7,2H7V-1H-7Z" style="fill: yellow;"></path>
     </g>
     <g transform="translate(163,266)">
      <path d="M-7,2H7V-1H-7Z" style="fill: yellow;"></path>
     </g>
     <g transform="translate(177,277)">
      <path d="M-7,2H7V-1H-7Z" style="fill: yellow;"></path>
     </g>
     <g transform="translate(191,286)">
      <path d="M-7,2H7V-1H-7Z" style="fill: yellow;"></path>
     </g>
     <g transform="translate(204,296)">
      <path d="M-7,2H7V-1H-7Z" style="fill: yellow;"></path>
     </g>
     <g transform="translate(218,303)">
      <path d="M-7,2H7V-2H-7Z" style="fill: yellow;"></path>
     </g>
     <g transform="translate(232,314)">
      <path d="M-7,2H7V-1H-7Z" style="fill: yellow;"></path>
     </g>
     <g transform="translate(246,321)">
      <path d="M-7,2H7V-1H-7Z" style="fill: yellow;"></path>
     </g>
     <g transform="translate(259,330)">
      <path d="M-7,2H7V-1H-7Z" style="fill: yellow;"></path>
     </g>
     <g transform="translate(273,339)">
      <path d="M-7,2H7V-1H-7Z" style="fill: yellow;"></path>
     </g>
     <g transform="translate(287,347)">
      <path d="M-7,2H7V-1H-7Z" style="fill: yellow;"></path>
     </g>
     <g transform="translate(300,351)">
      <path d="M-7,3H7V-2H-7Z" style="fill: yellow;"></path>
     </g>
     <g transform="translate(314,364)">
      <path d="M-7,2H7V0H-7Z" style="fill: yellow;"></path>
     </g>
     <g transform="translate(328,369)">
      <path d="M-7,2H7V-1H-7Z" style="fill: yellow;"></path>
     </g>
     <g transform="translate(342,378)">
      <path d="M-7,2H7V-1H-7Z" style="fill: yellow;"></path>
     </g>
     <g transform="translate(355,384)">
      <path d="M-7,2H7V-1H-7Z" style="fill: yellow;"></path>
     </g>
     <g transform="translate(369,392)">
      <path d="M-7,2H7V-1H-7Z" style="fill: yellow;"></path>
     </g>
     <g transform="translate(383,398)">
      <path d="M-7,3H7V-2H-7Z" style="fill: yellow;"></path>
     </g>
     <g transform="translate(397,408)">
      <path d="M-7,2H7V-1H-7Z" style="fill: yellow;"></path>
     </g>
     <g transform="translate(410,415)">
      <path d="M-7,2H7V-1H-7Z" style="fill: yellow;"></path>
     </g>
     <g transform="translate(424,422)">
      <path d="M-7,2H7V-2H-7Z" style="fill: yellow;"></path>
     </g>
     <g transform="translate(438,429)">
      <path d="M-7,3H7V-2H-7Z" style="fill: yellow;"></path>
     </g>
     <g transform="translate(451,436)">
      <path d="M-7,3H7V-2H-7Z" style="fill: yellow;"></path>
     </g>
     <g transform="translate(465,447)">
      <path d="M-7,2H7V-1H-7Z" style="fill: yellow;"></path>
     </g>
    </g>
    <g>
     <g transform="translate(12,21)">
      <path d="M0,0H-6M0,0H6" style="fill: none; stroke: black; stroke-width: 3;"></path>
     </g>
     <g transform="translate(26,79)">
      <path d="M0,0H-6M0,0H6" style="fill: none; stroke: black; stroke-width: 3;"></path>
     </g>
     <g transform="translate(40,115)">
      <path d="M0,0H-6M0,0H6" style="fill: none; stroke: black; stroke-width: 3;"></path>
     </g>
     <g transform="translate(54,143)">
      <path d="M0,0H-6M0,0H6" style="fill: none; stroke: black; stroke-width: 3;"></path>
     </g>
     <g transform="translate(67,167)">
      <path d="M0,0H-6M0,0H6" style="fill: none; stroke: black; stroke-width: 3;"></path>
     </g>
     <g transform="translate(81,185)">
      <path d="M0,0H-6M0,0H6" style="fill: none; stroke: black; stroke-width: 3;"></path>
     </g>
     <g transform="translate(95,202)">
      <path d="M0,0H-6M0,0H6" style="fill: none; stroke: black; stroke-width: 3;"></path>
     </g>
     <g transform="translate(108,217)">
      <path d="M0,0H-6M0,0H6" style="fill: none; stroke: black; stroke-width: 3;"></path>
     </g>
     <g transform="translate(122,231)">
      <path d="M0,0H-6M0,0H6" style="fill: none; stroke: black; stroke-width: 3;"></path>
     </g>
     <g transform="translate(136,243)">
      <path d="M0,0H-6M0,0H6" style="fill: none; stroke: black; stroke-width: 3;"></path>
     </g>
     <g transform="translate(150,255)">
      <path d="M0,0H-6M0,0H6" style="fill: none; stroke: black; stroke-width: 3;"></path>
     </g>
     <g transform="translate(163,266)">
      <path d="M0,0H-6M0,0H6" style="fill: none; stroke: black; stroke-width: 3;"></path>
     </g>
     <g transform="translate(177,277)">
      <path d="M0,0H-6M0,0H6" style="fill: none; stroke: black; stroke-width: 3;"></path>
     </g>
     <g transform="translate(191,286)">
      <path d="M0,0H-6M0,0H6" style="fill: none; stroke: black; stroke-width: 3;"></path>
     </g>
     <g transform="translate(204,296)">
      <path d="M0,0H-6M0,0H6" style="fill: none; stroke: black; stroke-width: 3;"></path>
     </g>
     <g transform="translate(218,303)">
      <path d="M0,0H-6M0,0H6" style="fill: none; stroke: black; stroke-width: 3;"></path>
     </g>
     <g transform="translate(232,314)">
      <path d="M0,0H-6M0,0H6" style="fill: none; stroke: black; stroke-width: 3;"></path>
     </g>
     <g transform="translate(246,321)">
      <path d="M0,0H-6M0,0H6" style="fill: none; stroke: black; stroke-width: 3;"></path>
     </g>
     <g transform="translate(259,330)">
      <path d="M0,0H-6M0,0H6" style="fill: none; stroke: black; stroke-width: 3;"></path>
     </g>
     <g transform="translate(273,339)">
      <path d="M0,0H-6M0,0H6" style="fill: none; stroke: black; stroke-width: 3;"></path>
     </g>
     <g transform="translate(287,347)">
      <path d="M0,0H-6M0,0H6" style="fill: none; stroke: black; stroke-width: 3;"></path>
     </g>
     <g transform="translate(300,351)">
      <path d="M0,0H-6M0,0H6" style="fill: none; stroke: black; stroke-width: 3;"></path>
     </g>
     <g transform="translate(314,364)">
      <path d="M0,0H-6M0,0H6" style="fill: none; stroke: black; stroke-width: 3;"></path>
     </g>
     <g transform="translate(328,369)">
      <path d="M0,0H-6M0,0H6" style="fill: none; stroke: black; stroke-width: 3;"></path>
     </g>
     <g transform="translate(342,378)">
      <path d="M0,0H-6M0,0H6" style="fill: none; stroke: black; stroke-width: 3;"></path>
     </g>
     <g transform="translate(355,384)">
      <path d="M0,0H-6M0,0H6" style="fill: none; stroke: black; stroke-width: 3;"></path>
     </g>
     <g transform="translate(369,392)">
      <path d="M0,0H-6M0,0H6" style="fill: none; stroke: black; stroke-width: 3;"></path>
     </g>
     <g transform="translate(383,398)">
      <path d="M0,0H-6M0,0H6" style="fill: none; stroke: black; stroke-width: 3;"></path>
     </g>
     <g transform="translate(397,408)">
      <path d="M0,0H-6M0,0H6" style="fill: none; stroke: black; stroke-width: 3;"></path>
     </g>
     <g transform="translate(410,415)">
      <path d="M0,0H-6M0,0H6" style="fill: none; stroke: black; stroke-width: 3;"></path>
     </g>
     <g transform="translate(424,422)">
      <path d="M0,0H-6M0,0H6" style="fill: none; stroke: black; stroke-width: 3;"></path>
     </g>
     <g transform="translate(438,429)">
      <path d="M0,0H-6M0,0H6" style="fill: none; stroke: black; stroke-width: 3;"></path>
     </g>
     <g transform="translate(451,436)">
      <path d="M0,0H-6M0,0H6" style="fill: none; stroke: black; stroke-width: 3;"></path>
     </g>
     <g transform="translate(465,447)">
      <path d="M0,0H-6M0,0H6" style="fill: none; stroke: black; stroke-width: 3;"></path>
     </g>
    </g>
    <g>
     <g transform="translate(12,23)">
      <path d="M0,0m2,0h-4M0,0m2,0h-4" style="fill: none; stroke: black; stroke-width: 2;"></path>
     </g>
     <g transform="translate(26,81)">
      <path d="M0,0m2,0h-4M0,0m2,0h-4" style="fill: none; stroke: black; stroke-width: 2;"></path>
     </g>
     <g transform="translate(40,112)">
      <path d="M0,0m2,0h-4M0,0m2,0h-4" style="fill: none; stroke: black; stroke-width: 2;"></path>
     </g>
     <g transform="translate(54,143)">
      <path d="M0,0m2,0h-4M0,0m2,0h-4" style="fill: none; stroke: black; stroke-width: 2;"></path>
     </g>
     <g transform="translate(67,165)">
      <path d="M0,0m2,0h-4M0,0m2,0h-4" style="fill: none; stroke: black; stroke-width: 2;"></path>
     </g>
     <g transform="translate(81,187)">
      <path d="M0,0m2,0h-4M0,0m2,0h-4" style="fill: none; stroke: black; stroke-width: 2;"></path>
     </g>
     <g transform="translate(95,202)">
      <path d="M0,0m2,0h-4M0,0m2,0h-4" style="fill: none; stroke: black; stroke-width: 2;"></path>
     </g>
     <g transform="translate(108,217)">
      <path d="M0,0m2,0h-4M0,0m2,0h-4" style="fill: none; stroke: black; stroke-width: 2;"></path>
     </g>
     <g transform="translate(122,233)">
      <path d="M0,0m2,0h-4M0,0m2,0h-4" style="fill: none; stroke: black; stroke-width: 2;"></path>
     </g>
     <g transform="translate(136,247)">
      <path d="M0,0m2,0h-4M0,0m2,0h-4" style="fill: none; stroke: black; stroke-width: 2;"></path>
     </g>
     <g transform="translate(150,258)">
      <path d="M0,0V1m2,0h-4M0,0V-1m2,0h-4" style="fill: none; stroke: black; stroke-width: 2;"></path>
     </g>
     <g transform="translate(163,266)">
      <path d="M0,0V1m2,0h-4M0,0V-1m2,0h-4" style="fill: none; stroke: black; stroke-width: 2;"></path>
     </g>
     <g transform="translate(177,275)">
      <path d="M0,0V1m2,0h-4M0,0V-1m2,0h-4" style="fill: none; stroke: black; stroke-width: 2;"></path>
     </g>
     <g transform="translate(191,286)">
      <path d="M0,0V1m2,0h-4M0,0V-1m2,0h-4" style="fill: none; stroke: black; stroke-width: 2;"></path>
     </g>
     <g transform="translate(204,298)">
      <path d="M0,0V2m2,0h-4M0,0V-2m2,0h-4" style="fill: none; stroke: black; stroke-width: 2;"></path>
     </g>
     <g transform="translate(218,307)">
      <path d="M0,0V2m2,0h-4M0,0V-2m2,0h-4" style="fill: none; stroke: black; stroke-width: 2;"></path>
     </g>
     <g transform="translate(232,312)">
      <path d="M0,0V3m2,0h-4M0,0V-2m2,0h-4" style="fill: none; stroke: black; stroke-width: 2;"></path>
     </g>
     <g transform="translate(246,319)">
      <path d="M0,0V3m2,0h-4M0,0V-3m2,0h-4" style="fill: none; stroke: black; stroke-width: 2;"></path>
     </g>
     <g transform="translate(259,327)">
      <path d="M0,0V4m2,0h-4M0,0V-3m2,0h-4" style="fill: none; stroke: black; stroke-width: 2;"></path>
     </g>
     <g transform="translate(273,340)">
      <path d="M0,0V6m2,0h-4M0,0V-4m2,0h-4" style="fill: none; stroke: black; stroke-width: 2;"></path>
     </g>
     <g transform="translate(287,346)">
      <path d="M0,0V7m2,0h-4M0,0V-5m2,0h-4" style="fill: none; stroke: black; stroke-width: 2;"></path>
     </g>
     <g transform="translate(300,352)">
      <path d="M0,0V8m2,0h-4M0,0V-6m2,0h-4" style="fill: none; stroke: black; stroke-width: 2;"></path>
     </g>
     <g transform="translate(314,359)">
      <path d="M0,0V11m2,0h-4M0,0V-7m2,0h-4" style="fill: none; stroke: black; stroke-width: 2;"></path>
     </g>
     <g transform="translate(328,359)">
      <path d="M0,0V11m2,0h-4M0,0V-7m2,0h-4" style="fill: none; stroke: black; stroke-width: 2;"></path>
     </g>
     <g transform="translate(342,367)">
      <path d="M0,0V15m2,0h-4M0,0V-8m2,0h-4" style="fill: none; stroke: black; stroke-width: 2;"></path>
     </g>
     <g transform="translate(355,371)">
      <path d="M0,0V17m2,0h-4M0,0V-9m2,0h-4" style="fill: none; stroke: black; stroke-width: 2;"></path>
     </g>
     <g transform="translate(369,372)">
      <path d="M0,0V17m2,0h-4M0,0V-9m2,0h-4" style="fill: none; stroke: black; stroke-width: 2;"></path>
     </g>
     <g transform="translate(383,377)">
      <path d="M0,0V22m2,0h-4M0,0V-10m2,0h-4" style="fill: none; stroke: black; stroke-width: 2;"></path>
     </g>
     <g transform="translate(397,373)">
      <path d="M0,0V19m2,0h-4M0,0V-9m2,0h-4" style="fill: none; stroke: black; stroke-width: 2;"></path>
     </g>
     <g transform="translate(410,375)">
      <path d="M0,0V20m2,0h-4M0,0V-10m2,0h-4" style="fill: none; stroke: black; stroke-width: 2;"></path>
     </g>
     <g transform="translate(424,373)">
      <path d="M0,0V18m2,0h-4M0,0V-9m2,0h-4" style="fill: none; stroke: black; stroke-width: 2;"></path>
     </g>
     <g transform="translate(438,376)">
      <path d="M0,0V21m2,0h-4M0,0V-10m2,0h-4" style="fill: none; stroke: black; stroke-width: 2;"></path>
     </g>
     <g transform="translate(451,369)">
      <path d="M0,0V15m2,0h-4M0,0V-8m2,0h-4" style="fill: none; stroke: black; stroke-width: 2;"></path>
     </g>
     <g transform="translate(465,371)">
      <path d="M0,0V17m2,0h-4M0,0V-9m2,0h-4" style="fill: none; stroke: black; stroke-width: 2;"></path>
     </g>
     <path d="M7,23a5,5,0,1,0,10,0a5,5,0,1,0,-10,0zM21,81a5,5,0,1,0,10,0a5,5,0,1,0,-10,0zM35,112a5,5,0,1,0,10,0a5,5,0,1,0,-10,0zM49,143a5,5,0,1,0,10,0a5,5,0,1,0,-10,0zM62,165a5,5,0,1,0,10,0a5,5,0,1,0,-10,0zM76,187a5,5,0,1,0,10,0a5,5,0,1,0,-10,0zM90,202a5,5,0,1,0,10,0a5,5,0,1,0,-10,0zM103,217a5,5,0,1,0,10,0a5,5,0,1,0,-10,0zM117,233a5,5,0,1,0,10,0a5,5,0,1,0,-10,0zM131,247a5,5,0,1,0,10,0a5,5,0,1,0,-10,0zM145,258a5,5,0,1,0,10,0a5,5,0,1,0,-10,0zM158,266a5,5,0,1,0,10,0a5,5,0,1,0,-10,0zM172,275a5,5,0,1,0,10,0a5,5,0,1,0,-10,0zM186,286a5,5,0,1,0,10,0a5,5,0,1,0,-10,0zM199,298a5,5,0,1,0,10,0a5,5,0,1,0,-10,0zM213,307a5,5,0,1,0,10,0a5,5,0,1,0,-10,0zM227,312a5,5,0,1,0,10,0a5,5,0,1,0,-10,0zM241,319a5,5,0,1,0,10,0a5,5,0,1,0,-10,0zM254,327a5,5,0,1,0,10,0a5,5,0,1,0,-10,0zM268,340a5,5,0,1,0,10,0a5,5,0,1,0,-10,0zM282,346a5,5,0,1,0,10,0a5,5,0,1,0,-10,0zM295,352a5,5,0,1,0,10,0a5,5,0,1,0,-10,0zM309,359a5,5,0,1,0,10,0a5,5,0,1,0,-10,0zM323,359a5,5,0,1,0,10,0a5,5,0,1,0,-10,0zM337,367a5,5,0,1,0,10,0a5,5,0,1,0,-10,0zM350,371a5,5,0,1,0,10,0a5,5,0,1,0,-10,0zM364,372a5,5,0,1,0,10,0a5,5,0,1,0,-10,0zM378,377a5,5,0,1,0,10,0a5,5,0,1,0,-10,0zM392,373a5,5,0,1,0,10,0a5,5,0,1,0,-10,0zM405,375a5,5,0,1,0,10,0a5,5,0,1,0,-10,0zM419,373a5,5,0,1,0,10,0a5,5,0,1,0,-10,0zM433,376a5,5,0,1,0,10,0a5,5,0,1,0,-10,0zM446,369a5,5,0,1,0,10,0a5,5,0,1,0,-10,0zM460,371a5,5,0,1,0,10,0a5,5,0,1,0,-10,0z" style="stroke: black; fill: black;"></path>
    </g>
   </svg>
   <g>
    <g transform="translate(0,453)">
     <path d="M0,0h472M0,-453h472M5,-7V0M19,-7V0M33,-7V0M47,-7V0M60,-14V0M74,-7V0M88,-7V0M102,-7V0M115,-7V0M129,-14V0M143,-7V0M156,-7V0M170,-7V0M184,-7V0M198,-14V0M211,-7V0M225,-7V0M239,-7V0M252,-7V0M266,-14V0M280,-7V0M294,-7V0M307,-7V0M321,-7V0M335,-14V0M349,-7V0M362,-7V0M376,-7V0M390,-7V0M403,-14V0M417,-7V0M431,-7V0M445,-7V0M458,-7V0M472,-14V0M5,-446V-453M19,-446V-453M33,-446V-453M47,-446V-453M60,-439V-453M74,-446V-453M88,-446V-453M102,-446V-453M115,-446V-453M129,-439V-453M143,-446V-453M156,-446V-453M170,-446V-453M184,-446V-453M198,-439V-453M211,-446V-453M225,-446V-453M239,-446V-453M252,-446V-453M266,-439V-453M280,-446V-453M294,-446V-453M307,-446V-453M321,-446V-453M335,-439V-453M349,-446V-453M362,-446V-453M376,-446V-453M390,-446V-453M403,-439V-453M417,-446V-453M431,-446V-453M445,-446V-453M458,-446V-453M472,-439V-453" style="stroke: black; stroke-width: 1;"></path>
     <g font-family="Arial" font-size="29" xml:space="preserve" fill="black" text-anchor="middle"><text dy=".8em" transform="translate(60,3)">500</text><text dy=".8em" transform="translate(129,3)">1000</text><text dy=".8em" transform="translate(198,3)">1500</text><text dy=".8em" transform="translate(266,3)">2000</text><text dy=".8em" transform="translate(335,3)">2500</text><text dy=".8em" transform="translate(403,3)">3000</text><text dy=".8em" transform="translate(472,3)">3500</text></g>
     <g font-family="Arial" font-size="29" xml:space="preserve" transform="translate(472,65)"><g transform="translate(-148,9)"><text fill="black" font-size="29">E</text><text fill="black" font-size="17" transform="translate(19,6)">T,jet</text><text fill="black" font-size="29" x="74">[GeV]</text></g></g>
    </g>
    <g>
     <path d="M0,0v453M472,0v453M14,453H0M7,440H0M7,432H0M7,427H0M7,422H0M7,419H0M7,416H0M7,413H0M7,411H0M14,409H0M7,396H0M7,388H0M7,383H0M7,378H0M7,375H0M7,372H0M7,369H0M7,367H0M14,365H0M7,352H0M7,344H0M7,339H0M7,334H0M7,331H0M7,328H0M7,325H0M7,323H0M14,321H0M7,308H0M7,300H0M7,295H0M7,290H0M7,287H0M7,284H0M7,281H0M7,279H0M14,277H0M7,264H0M7,256H0M7,251H0M7,246H0M7,243H0M7,240H0M7,237H0M7,235H0M14,233H0M7,220H0M7,212H0M7,207H0M7,202H0M7,199H0M7,196H0M7,193H0M7,191H0M14,189H0M7,176H0M7,168H0M7,163H0M7,158H0M7,155H0M7,152H0M7,149H0M7,147H0M14,145H0M7,132H0M7,124H0M7,119H0M7,114H0M7,111H0M7,108H0M7,105H0M7,103H0M14,101H0M7,88H0M7,80H0M7,75H0M7,70H0M7,67H0M7,64H0M7,61H0M7,59H0M14,57H0M7,44H0M7,36H0M7,31H0M7,26H0M7,23H0M7,20H0M7,17H0M7,15H0M14,13H0M7,0H0M458,453H472M465,440H472M465,432H472M465,427H472M465,422H472M465,419H472M465,416H472M465,413H472M465,411H472M458,409H472M465,396H472M465,388H472M465,383H472M465,378H472M465,375H472M465,372H472M465,369H472M465,367H472M458,365H472M465,352H472M465,344H472M465,339H472M465,334H472M465,331H472M465,328H472M465,325H472M465,323H472M458,321H472M465,308H472M465,300H472M465,295H472M465,290H472M465,287H472M465,284H472M465,281H472M465,279H472M458,277H472M465,264H472M465,256H472M465,251H472M465,246H472M465,243H472M465,240H472M465,237H472M465,235H472M458,233H472M465,220H472M465,212H472M465,207H472M465,202H472M465,199H472M465,196H472M465,193H472M465,191H472M458,189H472M465,176H472M465,168H472M465,163H472M465,158H472M465,155H472M465,152H472M465,149H472M465,147H472M458,145H472M465,132H472M465,124H472M465,119H472M465,114H472M465,111H472M465,108H472M465,105H472M465,103H472M458,101H472M465,88H472M465,80H472M465,75H472M465,70H472M465,67H472M465,64H472M465,61H472M465,59H472M458,57H472M465,44H472M465,36H472M465,31H472M465,26H472M465,23H472M465,20H472M465,17H472M465,15H472M458,13H472M465,0H472" style="stroke: black; stroke-width: 1;"></path>
     <g font-family="Arial" font-size="29" xml:space="preserve"><g transform="translate(-51,465)"><text fill="black" font-size="29">10</text><text fill="black" font-size="17" transform="translate(32,-15)">-3</text></g><g transform="translate(-51,421)"><text fill="black" font-size="29">10</text><text fill="black" font-size="17" transform="translate(32,-15)">-2</text></g><g transform="translate(-51,377)"><text fill="black" font-size="29">10</text><text fill="black" font-size="17" transform="translate(32,-15)">-1</text></g><text fill="black" text-anchor="end" dominant-baseline="middle" transform="translate(-4,321)">1</text><text fill="black" text-anchor="end" dominant-baseline="middle" transform="translate(-4,277)">10</text><g transform="translate(-46,245)"><text fill="black" font-size="29">10</text><text fill="black" font-size="17" transform="translate(32,-15)">2</text></g><g transform="translate(-46,201)"><text fill="black" font-size="29">10</text><text fill="black" font-size="17" transform="translate(32,-15)">3</text></g><g transform="translate(-46,157)"><text fill="black" font-size="29">10</text><text fill="black" font-size="17" transform="translate(32,-15)">4</text></g><g transform="translate(-46,113)"><text fill="black" font-size="29">10</text><text fill="black" font-size="17" transform="translate(32,-15)">5</text></g><g transform="translate(-46,69)"><text fill="black" font-size="29">10</text><text fill="black" font-size="17" transform="translate(32,-15)">6</text></g><g transform="translate(-46,25)"><text fill="black" font-size="29">10</text><text fill="black" font-size="17" transform="translate(32,-15)">7</text></g></g>
     <g font-family="Arial" font-size="29" xml:space="preserve" transform="translate(-68)"><g transform="rotate(270) translate(-249,9)"><text fill="black" font-size="29">dσ</text><text fill="black" font-size="17" transform="translate(34,6)">jet</text><text fill="black" font-size="29" x="53">/dE</text><text fill="black" font-size="17" transform="translate(97,6)">T,jet</text><text fill="black" font-size="29" x="141">[fb/GeV]</text></g></g>
    </g>
   </g>
  </g>
  <g transform="translate(6,3)" style="display: none;">
   <path d="M299,2h2v29h-299v-2h297z" style="fill: black; stroke: black; stroke-width: 1px;"></path>
   <path d="M0,0H299V29H0Z" style="fill: rgb(243, 243, 243); stroke: black; stroke-width: 1;"></path>
  </g>
  <g font-family="Arial" font-size="29" xml:space="preserve"><g transform="translate(179,86)"><g><path d="M0,-10h3l3,11l3,-29h21v3" style="stroke: black; stroke-width: 2; fill: none;"></path><text fill="black" font-size="29" transform="translate(14)">s</text></g><text fill="black" font-size="29" x="35">= 14 TeV</text></g></g>
  <g font-family="Arial" font-size="29" xml:space="preserve"><g transform="translate(341,86)"><text fill="black" font-size="29">|η</text><text fill="black" font-size="17" transform="translate(25,6)">jet</text><text fill="black" font-size="29" x="44">|&lt;0.5</text></g></g>
  <g>
   <path d="M310,144a5,5,0,1,0,10,0a5,5,0,1,0,-10,0z" style="stroke: black; fill: black;"></path>
  </g>
  <g font-family="Arial" font-size="29" xml:space="preserve"><text fill="black" text-anchor="start" dominant-baseline="middle" transform="translate(329,144)">Data 2009</text></g>
  <g font-family="Arial" font-size="29" xml:space="preserve"><text fill="black" text-anchor="start" dominant-baseline="middle" transform="translate(329,189)">NLO QCD</text></g>
  <g transform="translate(288,181)">
   <path d="M0,0H30V17H0Z" style="fill: yellow;"></path>
  </g>
  <g>
   <path d="M288,189H318" style="stroke: black; stroke-width: 4;"></path>
  </g>
 </g>
</svg>