<svg xmlns="http://www.w3.org/2000/svg" viewBox="0 0 1200 800" preserveAspectRatio="none" width="1200" height="800">
 <path d="M0,0H1200V800H0Z" style="fill: white;"></path>
 <g>
  <g transform="translate(168,56)">
   <path d="M0,0H864V640H0Z" style="fill: none; stroke: black; stroke-width: 1;"></path>
   <svg x="0" y="0" overflow="hidden" width="864" height="640" viewBox="0 0 864 640">
    <g>
     <path fill="#004d80" d="M0,0h35v51h-35zM0,589h35v51h-35zM35,0h34v26h-34zm0,589h34v51h-34zm34,25h35v26h-35zm691,0h35v26h-35zM795,0h34v51h-34zm34,0h35v26h-35zm0,563h35v26h-35zm0,51h35v26h-35z"></path>
     <path fill="#004e7f" d="M0,51h35v51h-35zM0,538h35v51h-35zM35,26h34v51h-34zM69,0h35v51h-35zm0,589h35v25h-35zm35,25h34v26h-34zM691,0h35v26h-35zm35,614h34v26h-34zM760,0h35v51h-35zm0,589h35v25h-35zM795,51h34v26h-34zm0,512h34v77h-34zM829,26h35v76h-35zm0,512h35v25h-35zm0,51h35v25h-35z"></path>
     <path fill="#00507e" d="M0,102h35v26h-35zM104,0h34v51h-34zm0,589h34v25h-34zM173,0h34v26h-34zM726,0h34v26h-34zm34,51h35v26h-35zm0,512h35v26h-35zM795,77h34v25h-34zm0,461h34v25h-34zM829,102h35v26h-35zm0,384h35v52h-35z"></path>
     <path fill="#00527d" d="M0,512h35v26h-35zM35,77h34v51h-34zm0,435h34v77h-34zM69,51h35v26h-35zm0,512h35v26h-35zM138,0h35v51h-35zM691,614h35v26h-35zM726,26h34v25h-34zM829,154h35v25h-35z"></path>
     <path fill="#00537c" d="M0,128h35v51h-35zM0,461h35v51h-35zM69,77h35v25h-35zm0,461h35v25h-35zm35,25h34v26h-34zm34,26h35v51h-35zm35,25h34v26h-34zM657,0h34v26h-34zm34,26h35v25h-35zm35,537h34v51h-34zm34,-25h35v25h-35zm35,-26h34v26h-34z"></path>
     <path fill="#00557b" d="M0,435h35v26h-35zm69,77h35v26h-35zM104,51h34v26h-34zM173,26h34v25h-34zM207,0h35v26h-35zm0,614h35v26h-35zM242,0h34v26h-34zM622,614h35v26h-35zM657,26h34v25h-34zm0,588h34v26h-34zm34,-25h35v25h-35zM726,51h34v26h-34zm34,26h35v25h-35zm35,25h34v26h-34zm34,26h35v26h-35zm0,307h35v51h-35z"></path>
     <path fill="#00577a" d="M0,179h35v26h-35zM35,128h34v26h-34zm0,358h34v26h-34zM138,51h35v26h-35zM242,614h34v26h-34zM553,0h35v26h-35zm35,0h34v26h-34zm34,0h35v26h-35zm35,589h34v25h-34zM795,128h34v26h-34zm0,358h34v26h-34z"></path>
     <path fill="#00587a" d="M0,205h35v51h-35zM0,410h35v25h-35zM69,102h35v26h-35zM104,77h34v25h-34zm34,486h35v26h-35zm35,26h34v25h-34zm34,0h35v25h-35zm104,25h35v26h-35zm173,0h34v26h-34zm69,0h35v26h-35zm35,0h34v26h-34zm69,-51h34v26h-34zM726,77h34v25h-34zm0,461h34v25h-34zM760,102h35v26h-35zm0,410h35v26h-35z"></path>
     <path fill="#005a79" d="M35,154h34v25h-34zm0,307h34v25h-34zM69,128h35v26h-35zm35,410h34v25h-34zM276,0h35v26h-35zM588,26h34v25h-34zM691,51h35v26h-35zm0,512h35v26h-35zM795,154h34v25h-34zm34,25h35v51h-35zm0,103h35v25h-35z"></path>
     <path fill="#005c78" d="M0,256h35v26h-35zm0,51h35v51h-35zM35,179h34v26h-34zM69,486h35v26h-35zm69,52h35v25h-35zm35,25h34v26h-34zM207,26h35v25h-35zm35,0h34v25h-34zM311,0h35v26h-35zM518,0h35v26h-35zm70,589h34v25h-34zM622,26h35v25h-35zm69,512h35v25h-35zm35,-26h34v26h-34zM795,179h34v26h-34zm0,231h34v76h-34zM829,230h35v26h-35zm0,77h35v26h-35zm0,51h35v77h-35z"></path>
     <path fill="#005e77" d="M0,358h35v26h-35zm35,77h34v26h-34zm69,77h34v26h-34zM138,77h35v25h-35zM173,51h34v26h-34zm69,538h34v25h-34zm34,25h35v26h-35zm70,0h34v26h-34zM380,0h35v26h-35zm35,0h34v26h-34zm0,614h34v26h-34zM449,0h35v26h-35zm69,614h35v26h-35zM622,51h35v26h-35zm0,538h35v25h-35zM691,77h35v25h-35zm35,25h34v26h-34zm34,384h35v26h-35z"></path>
     <path fill="#005f76" d="M0,282h35v25h-35zM0,384h35v26h-35zM104,102h34v26h-34zm34,410h35v26h-35zM346,0h34v26h-34zm34,614h35v26h-35zM518,26h35v25h-35zM657,51h34v26h-34zm69,435h34v26h-34zM760,128h35v51h-35zm35,77h34v25h-34zm34,51h35v26h-35z"></path>
     <path fill="#006175" d="M35,384h34v51h-34zm34,77h35v25h-35zM207,51h35v26h-35zM276,26h35v25h-35zm0,563h35v25h-35zM311,26h35v25h-35zM449,614h35v26h-35zM553,26h35v25h-35zm0,563h35v25h-35zm69,-26h35v26h-35zm35,-25h34v25h-34zM726,128h34v26h-34zm34,333h35v25h-35zM829,333h35v25h-35z"></path>
     <path fill="#006374" d="M35,230h34v26h-34zM69,154h35v25h-35zM484,0h34v26h-34zM691,102h35v26h-35zM795,282h34v25h-34zm0,76h34v52h-34z"></path>
     <path fill="#006474" d="M35,205h34v25h-34zM173,77h34v25h-34zm34,486h35v26h-35zM346,26h34v25h-34zM484,589h34v25h-34zM726,154h34v25h-34zm69,179h34v25h-34z"></path>
     <path fill="#006673" d="M35,256h34v51h-34zM104,128h34v26h-34zm0,358h34v26h-34zm69,52h34v25h-34zm34,0h35v25h-35zm104,51h35v25h-35zm207,0h35v25h-35zM657,77h34v25h-34zm34,435h35v26h-35zm35,-51h34v25h-34zM760,179h35v26h-35zm35,77h34v26h-34z"></path>
     <path fill="#006872" d="M35,358h34v26h-34zM69,205h35v25h-35zM138,102h35v26h-35zM242,51h34v26h-34zM380,26h35v25h-35zm0,563h35v25h-35zM415,26h34v25h-34zm0,563h34v25h-34zM449,26h35v25h-35zM588,563h34v26h-34zM760,410h35v51h-35zM795,230h34v26h-34z"></path>
     <path fill="#006971" d="M35,307h34v26h-34zM69,179h35v26h-35zm35,-25h34v25h-34zM242,563h34v26h-34zm311,0h35v26h-35zM588,51h34v26h-34zm69,51h34v26h-34zM795,307h34v26h-34z"></path>
     <path fill="#006b70" d="M69,410h35v51h-35zm35,51h34v25h-34zM138,128h35v26h-35zm0,358h35v26h-35zM276,51h35v26h-35zM449,589h35v25h-35zM484,26h34v25h-34zM622,77h35v25h-35zm0,461h35v25h-35z"></path>
     <path fill="#006d6f" d="M35,333h34v25h-34zm34,51h35v26h-35zM207,77h35v25h-35zm69,486h35v26h-35zm70,26h34v25h-34zM553,51h35v26h-35zM657,512h34v26h-34zM691,128h35v26h-35zm69,77h35v25h-35z"></path>
     <path fill="#006f6f" d="M173,512h34v26h-34zM311,51h35v26h-35zM760,384h35v26h-35z"></path>
     <path fill="#00706e" d="M69,230h35v26h-35zM242,538h34v25h-34zm69,25h35v26h-35zm35,0h34v26h-34zM691,486h35v26h-35z"></path>
     <path fill="#00726d" d="M104,179h34v26h-34zM242,77h34v25h-34zM380,51h35v26h-35zm138,0h35v26h-35zm70,26h34v25h-34zm0,461h34v25h-34zM760,230h35v26h-35z"></path>
     <path fill="#00746c" d="M173,102h34v26h-34zM484,51h34v26h-34zm34,512h35v26h-35zM726,179h34v26h-34zm34,77h35v51h-35z"></path>
     <path fill="#00756b" d="M69,256h35v51h-35zm0,102h35v26h-35zM173,486h34v26h-34zm311,77h34v26h-34zM691,154h35v25h-35zm35,281h34v26h-34z"></path>
     <path fill="#00776a" d="M69,307h35v26h-35zM207,102h35v26h-35zM346,51h34v26h-34zm69,0h34v26h-34zm34,512h35v26h-35zM622,102h35v26h-35zm35,26h34v26h-34zm69,282h34v25h-34zm34,-52h35v26h-35z"></path>
     <path fill="#007969" d="M104,410h34v25h-34zM173,128h34v26h-34zM622,512h35v26h-35zm35,-26h34v26h-34zm34,-25h35v25h-35zM760,307h35v51h-35z"></path>
     <path fill="#007a69" d="M69,333h35v25h-35zm35,102h34v26h-34zm34,26h35v25h-35zM380,563h35v26h-35zM449,51h35v26h-35zM553,77h35v25h-35zM726,205h34v25h-34z"></path>
     <path fill="#007c68" d="M138,154h35v25h-35zm69,358h35v26h-35zm208,51h34v26h-34z"></path>
     <path fill="#007e67" d="M104,205h34v51h-34zM311,77h35v25h-35zM553,538h35v25h-35z"></path>
     <path fill="#008066" d="M276,77h35v25h-35zM691,435h35v26h-35z"></path>
     <path fill="#028066" d="M138,435h35v26h-35zM173,154h34v25h-34zM518,77h35v25h-35z"></path>
     <path fill="#058065" d="M104,358h34v52h-34zm69,103h34v25h-34zM207,128h35v26h-35zm35,-26h34v26h-34zM346,538h34v25h-34zm172,0h35v25h-35zM588,102h34v26h-34zm0,410h34v26h-34zM726,384h34v26h-34z"></path>
     <path fill="#078165" d="M242,512h34v26h-34zM691,179h35v26h-35zm35,51h34v26h-34z"></path>
     <path fill="#098164" d="M276,538h35v25h-35zm35,0h35v25h-35zM622,128h35v26h-35zm0,358h35v26h-35zM726,282h34v25h-34z"></path>
     <path fill="#0c8264" d="M104,256h34v26h-34zm34,-77h35v26h-35zM346,77h34v25h-34zM726,256h34v26h-34z"></path>
     <path fill="#0e8263" d="M104,282h34v25h-34zm0,51h34v25h-34zM484,538h34v25h-34zM691,410h35v25h-35zm35,-52h34v26h-34z"></path>
     <path fill="#108363" d="M104,307h34v26h-34zM276,512h35v26h-35zM657,461h34v25h-34zM726,307h34v26h-34z"></path>
     <path fill="#138362" d="M449,538h35v25h-35zM553,102h35v26h-35zm0,410h35v26h-35zM691,205h35v25h-35z"></path>
     <path fill="#158462" d="M138,205h35v25h-35zm35,230h34v26h-34zM276,102h35v26h-35zM380,77h35v25h-35zm0,461h35v25h-35zM415,77h34v25h-34zm0,461h34v25h-34zM484,77h34v25h-34zm173,77h34v25h-34z"></path>
     <path fill="#178461" d="M138,410h35v25h-35zm69,76h35v26h-35zM449,77h35v25h-35zM726,333h34v25h-34z"></path>
     <path fill="#1a8561" d="M173,179h34v26h-34zm34,282h35v25h-35zm415,0h35v25h-35z"></path>
     <path fill="#1c8560" d="M242,128h34v26h-34zm0,358h34v26h-34zM588,128h34v26h-34z"></path>
     <path fill="#1e8660" d="M518,512h35v26h-35zM691,384h35v26h-35z"></path>
     <path fill="#208660" d="M138,384h35v26h-35zM588,486h34v26h-34z"></path>
     <path fill="#23865f" d="M138,230h35v26h-35zM311,512h35v26h-35zM622,154h35v25h-35z"></path>
     <path fill="#25875f" d="M311,102h35v26h-35zm346,77h34v26h-34zm0,256h34v26h-34z"></path>
     <path fill="#27875e" d="M173,205h34v25h-34zM484,512h34v26h-34zM691,230h35v26h-35z"></path>
     <path fill="#2a885e" d="M518,102h35v26h-35zM691,358h35v26h-35z"></path>
     <path fill="#2c885d" d="M588,461h34v25h-34z"></path>
     <path fill="#2e895d" d="M346,102h34v26h-34zM691,256h35v26h-35zm0,77h35v25h-35z"></path>
     <path fill="#31895c" d="M207,154h35v25h-35zM484,102h34v26h-34z"></path>
     <path fill="#338a5c" d="M138,256h35v26h-35zM276,128h35v26h-35zM449,512h35v26h-35zM657,205h34v25h-34zm34,77h35v51h-35z"></path>
     <path fill="#358a5b" d="M138,333h35v51h-35zM276,486h35v26h-35zm70,26h34v26h-34zM380,102h35v26h-35zm69,0h35v26h-35zM553,486h35v26h-35z"></path>
     <path fill="#388b5b" d="M415,102h34v26h-34zm0,410h34v26h-34zM588,154h34v25h-34z"></path>
     <path fill="#3a8b5a" d="M173,410h34v25h-34zM380,512h35v26h-35zM553,128h35v26h-35zM657,410h34v25h-34z"></path>
     <path fill="#3c8c5a" d="M138,307h35v26h-35zM242,154h34v25h-34zm415,76h34v26h-34z"></path>
     <path fill="#3f8c59" d="M138,282h35v25h-35zM518,128h35v26h-35zm104,51h35v26h-35z"></path>
     <path fill="#418c59" d="M207,435h35v26h-35z"></path>
     <path fill="#438d59" d="M242,461h34v25h-34zm276,25h35v26h-35z"></path>
     <path fill="#468d58" d="M173,230h34v26h-34zM622,435h35v26h-35z"></path>
     <path fill="#488e58" d="M173,358h34v26h-34zM207,179h35v26h-35zm69,282h35v25h-35zM657,384h34v26h-34z"></path>
     <path fill="#4a8e57" d="M173,384h34v26h-34zM311,486h35v26h-35z"></path>
     <path fill="#4f8f56" d="M173,282h34v25h-34zm69,153h34v26h-34zM276,154h35v25h-35zM657,256h34v26h-34zm0,102h34v26h-34z"></path>
     <path fill="#519056" d="M207,410h35v25h-35zM311,128h35v26h-35zm35,358h34v26h-34z"></path>
     <path fill="#539055" d="M207,205h35v25h-35zM484,486h34v26h-34z"></path>
     <path fill="#569155" d="M484,128h34v26h-34zm69,26h35v25h-35zm69,51h35v25h-35z"></path>
     <path fill="#589154" d="M242,179h34v26h-34zM346,128h34v26h-34zm103,0h35v26h-35z"></path>
     <path fill="#5a9254" d="M553,461h35v25h-35zm35,-26h34v26h-34z"></path>
     <path fill="#5d9253" d="M173,256h34v26h-34zM622,410h35v25h-35z"></path>
     <path fill="#5f9353" d="M173,333h34v25h-34zM380,486h35v26h-35zM588,179h34v26h-34zm69,103h34v25h-34z"></path>
     <path fill="#619353" d="M380,128h35v26h-35zm35,0h34v26h-34zM657,307h34v51h-34z"></path>
     <path fill="#649352" d="M449,486h35v26h-35z"></path>
     <path fill="#689451" d="M173,307h34v26h-34zM518,154h35v25h-35zm104,76h35v26h-35z"></path>
     <path fill="#6d9550" d="M415,486h34v26h-34z"></path>
     <path fill="#72964f" d="M207,230h35v26h-35zM622,384h35v26h-35z"></path>
     <path fill="#74974f" d="M242,410h34v25h-34zm69,51h35v25h-35z"></path>
     <path fill="#76974e" d="M518,461h35v25h-35zm35,-26h35v26h-35z"></path>
     <path fill="#79984e" d="M311,154h35v25h-35zm277,51h34v25h-34z"></path>
     <path fill="#7b984d" d="M553,179h35v26h-35zm35,231h34v25h-34z"></path>
     <path fill="#7d994d" d="M276,435h35v26h-35z"></path>
     <path fill="#80994d" d="M207,256h35v26h-35zm0,128h35v26h-35zM242,205h34v25h-34zM622,358h35v26h-35z"></path>
     <path fill="#82994c" d="M484,154h34v25h-34zM622,256h35v26h-35z"></path>
     <path fill="#849a4c" d="M207,358h35v26h-35zM346,461h34v25h-34zM622,333h35v25h-35z"></path>
     <path fill="#869a4b" d="M484,461h34v25h-34z"></path>
     <path fill="#899b4b" d="M276,179h35v26h-35zm70,-25h34v25h-34z"></path>
     <path fill="#8d9c4a" d="M207,282h35v76h-35zM311,435h35v26h-35zM415,154h34v25h-34z"></path>
     <path fill="#929d49" d="M449,461h35v25h-35zM622,282h35v25h-35z"></path>
     <path fill="#949d48" d="M380,154h35v25h-35zm208,76h34v26h-34zm34,77h35v26h-35z"></path>
     <path fill="#979e48" d="M242,384h34v26h-34zm138,77h35v25h-35zm35,0h34v25h-34z"></path>
     <path fill="#999e47" d="M449,154h35v25h-35z"></path>
     <path fill="#9e9f46" d="M311,179h35v26h-35z"></path>
     <path fill="#a09f46" d="M242,230h34v26h-34zM588,384h34v26h-34z"></path>
     <path fill="#a2a046" d="M518,435h35v26h-35z"></path>
     <path fill="#a5a045" d="M276,205h35v25h-35zm0,205h35v25h-35zM553,205h35v25h-35zm0,205h35v25h-35z"></path>
     <path fill="#a7a145" d="M518,179h35v26h-35z"></path>
     <path fill="#a9a144" d="M588,358h34v26h-34z"></path>
     <path fill="#aea243" d="M242,358h34v26h-34z"></path>
     <path fill="#b0a343" d="M484,435h34v26h-34z"></path>
     <path fill="#b5a442" d="M242,256h34v26h-34z"></path>
     <path fill="#b7a441" d="M346,435h34v26h-34zM449,179h35v26h-35z"></path>
     <path fill="#b9a541" d="M415,435h34v26h-34zm34,0h35v26h-35z"></path>
     <path fill="#bca540" d="M380,179h35v26h-35z"></path>
     <path fill="#bea640" d="M311,205h35v25h-35zm69,230h35v26h-35zM484,179h34v26h-34zm104,77h34v26h-34zm0,77h34v25h-34z"></path>
     <path fill="#c0a640" d="M346,179h34v26h-34z"></path>
     <path fill="#c3a63f" d="M276,230h35v26h-35zM518,410h35v25h-35zm35,-26h35v26h-35zm35,-77h34v26h-34z"></path>
     <path fill="#c7a73e" d="M311,410h35v25h-35zM588,282h34v25h-34z"></path>
     <path fill="#caa83e" d="M346,410h34v25h-34zM553,230h35v26h-35z"></path>
     <path fill="#cca83d" d="M242,333h34v25h-34zm34,51h35v26h-35z"></path>
     <path fill="#cea93d" d="M242,282h34v25h-34z"></path>
     <path fill="#d1a93c" d="M518,205h35v25h-35z"></path>
     <path fill="#d5aa3b" d="M484,410h34v25h-34z"></path>
     <path fill="#d8ab3b" d="M276,256h35v26h-35z"></path>
     <path fill="#daab3a" d="M242,307h34v26h-34z"></path>
     <path fill="#dcac3a" d="M415,179h34v26h-34z"></path>
     <path fill="#dfac39" d="M346,205h34v25h-34z"></path>
     <path fill="#eaae37" d="M311,230h35v26h-35z"></path>
     <path fill="#ecaf37" d="M276,358h35v26h-35zM415,205h34v25h-34zM518,384h35v26h-35z"></path>
     <path fill="#efaf36" d="M553,358h35v26h-35z"></path>
     <path fill="#f1b036" d="M276,282h35v25h-35z"></path>
     <path fill="#f3b035" d="M518,230h35v26h-35zm35,52h35v25h-35z"></path>
     <path fill="#f8b134" d="M311,384h35v26h-35zm69,26h35v25h-35zM484,205h34v25h-34z"></path>
     <path fill="#fab234" d="M553,307h35v26h-35z"></path>
     <path fill="#fdb233" d="M553,256h35v26h-35z"></path>
     <path fill="#ffb233" d="M449,205h35v25h-35zm0,205h35v25h-35zM484,230h34v26h-34z"></path>
     <path fill="#fcad33" d="M380,205h35v25h-35z"></path>
     <path fill="#fbaa32" d="M276,307h35v26h-35zM415,410h34v25h-34z"></path>
     <path fill="#f9a432" d="M276,333h35v25h-35zm277,0h35v25h-35z"></path>
     <path fill="#f7a132" d="M346,384h34v26h-34zm138,0h34v26h-34z"></path>
     <path fill="#f29531" d="M311,358h35v26h-35z"></path>
     <path fill="#f19231" d="M346,230h34v26h-34z"></path>
     <path fill="#f08f30" d="M346,358h34v26h-34zM518,256h35v26h-35z"></path>
     <path fill="#ed8930" d="M311,256h35v26h-35zm207,77h35v25h-35z"></path>
     <path fill="#eb8330" d="M311,282h35v25h-35zm69,102h35v26h-35z"></path>
     <path fill="#e9802f" d="M449,230h35v26h-35z"></path>
     <path fill="#e87d2f" d="M518,358h35v26h-35z"></path>
     <path fill="#e77a2f" d="M415,230h34v26h-34zm34,154h35v26h-35z"></path>
     <path fill="#e3712e" d="M380,230h35v26h-35z"></path>
     <path fill="#e26e2e" d="M484,358h34v26h-34zm34,-51h35v26h-35z"></path>
     <path fill="#df682e" d="M484,256h34v26h-34zm34,26h35v25h-35z"></path>
     <path fill="#dd622d" d="M311,307h35v26h-35z"></path>
     <path fill="#db5f2d" d="M415,384h34v26h-34z"></path>
     <path fill="#d9592d" d="M311,333h35v25h-35zm35,0h34v25h-34zM484,282h34v25h-34z"></path>
     <path fill="#d7562c" d="M346,256h34v26h-34z"></path>
     <path fill="#d5502c" d="M415,358h34v26h-34z"></path>
     <path fill="#d44d2c" d="M484,333h34v25h-34z"></path>
     <path fill="#d24a2c" d="M346,282h34v25h-34z"></path>
     <path fill="#d1472b" d="M346,307h34v26h-34zM449,256h35v26h-35z"></path>
     <path fill="#d0442b" d="M380,282h35v25h-35zm104,25h34v26h-34z"></path>
     <path fill="#cf412b" d="M415,256h34v26h-34z"></path>
     <path fill="#cc3c2b" d="M415,282h34v25h-34z"></path>
     <path fill="#c8332a" d="M380,358h35v26h-35z"></path>
     <path fill="#c7302a" d="M449,358h35v26h-35z"></path>
     <path fill="#c62d29" d="M380,256h35v26h-35zm0,77h35v25h-35z"></path>
     <path fill="#c42a29" d="M449,307h35v51h-35z"></path>
     <path fill="#c32729" d="M415,333h34v25h-34z"></path>
     <path fill="#bd1828" d="M449,282h35v25h-35z"></path>
     <path fill="#b80c27" d="M380,307h35v26h-35z"></path>
     <path fill="#b40326" d="M415,307h34v26h-34z"></path>
    </g>
   </svg>
   <g>
    <g transform="translate(0,640)">
     <path d="M0,0h864M0,-640h864M0,-24V0M17,-12V0M35,-12V0M52,-12V0M69,-12V0M86,-24V0M104,-12V0M121,-12V0M138,-12V0M156,-12V0M173,-24V0M190,-12V0M207,-12V0M225,-12V0M242,-12V0M259,-24V0M276,-12V0M294,-12V0M311,-12V0M328,-12V0M346,-24V0M363,-12V0M380,-12V0M397,-12V0M415,-12V0M432,-24V0M449,-12V0M467,-12V0M484,-12V0M501,-12V0M518,-24V0M536,-12V0M553,-12V0M570,-12V0M588,-12V0M605,-24V0M622,-12V0M639,-12V0M657,-12V0M674,-12V0M691,-24V0M708,-12V0M726,-12V0M743,-12V0M760,-12V0M778,-24V0M795,-12V0M812,-12V0M829,-12V0M847,-12V0M864,-24V0M0,-616V-640M17,-628V-640M35,-628V-640M52,-628V-640M69,-628V-640M86,-616V-640M104,-628V-640M121,-628V-640M138,-628V-640M156,-628V-640M173,-616V-640M190,-628V-640M207,-628V-640M225,-628V-640M242,-628V-640M259,-616V-640M276,-628V-640M294,-628V-640M311,-628V-640M328,-628V-640M346,-616V-640M363,-628V-640M380,-628V-640M397,-628V-640M415,-628V-640M432,-616V-640M449,-628V-640M467,-628V-640M484,-628V-640M501,-628V-640M518,-616V-640M536,-628V-640M553,-628V-640M570,-628V-640M588,-628V-640M605,-616V-640M622,-628V-640M639,-628V-640M657,-628V-640M674,-628V-640M691,-616V-640M708,-628V-640M726,-628V-640M743,-628V-640M760,-628V-640M778,-616V-640M795,-628V-640M812,-628V-640M829,-628V-640M847,-628V-640M864,-616V-640" style="stroke: black; stroke-width: 1;"></path>
     <g font-family="Arial" font-size="40" space="preserve" fill="black" text-anchor="middle">
      <text dy=".8em" transform="translate(0,6)">
       0
      </text>
      <text dy=".8em" transform="translate(86,6)">
       0.5
      </text>
      <text dy=".8em" transform="translate(173,6)">
       1
      </text>
      <text dy=".8em" transform="translate(259,6)">
       1.5
      </text>
      <text dy=".8em" transform="translate(346,6)">
       2
      </text>
      <text dy=".8em" transform="translate(432,6)">
       2.5
      </text>
      <text dy=".8em" transform="translate(518,6)">
       3
      </text>
      <text dy=".8em" transform="translate(605,6)">
       3.5
      </text>
      <text dy=".8em" transform="translate(691,6)">
       4
      </text>
      <text dy=".8em" transform="translate(778,6)">
       4.5
      </text>
      <text dy=".8em" transform="translate(864,6)">
       5
      </text>
     </g>
     <g font-family="Arial" font-size="48" space="preserve" transform="translate(864,69)">
      <text fill="black" text-anchor="end" dy=".4em">
       X
      </text>
     </g>
    </g>
    <g>
     <path d="M0,0v640M864,0v640M36,640H0M18,627H0M18,614H0M18,602H0M18,589H0M36,576H0M18,563H0M18,550H0M18,538H0M18,525H0M36,512H0M18,499H0M18,486H0M18,474H0M18,461H0M36,448H0M18,435H0M18,422H0M18,410H0M18,397H0M36,384H0M18,371H0M18,358H0M18,346H0M18,333H0M36,320H0M18,307H0M18,294H0M18,282H0M18,269H0M36,256H0M18,243H0M18,230H0M18,218H0M18,205H0M36,192H0M18,179H0M18,166H0M18,154H0M18,141H0M36,128H0M18,115H0M18,102H0M18,90H0M18,77H0M36,64H0M18,51H0M18,38H0M18,26H0M18,13H0M36,0H0M828,640H864M846,627H864M846,614H864M846,602H864M846,589H864M828,576H864M846,563H864M846,550H864M846,538H864M846,525H864M828,512H864M846,499H864M846,486H864M846,474H864M846,461H864M828,448H864M846,435H864M846,422H864M846,410H864M846,397H864M828,384H864M846,371H864M846,358H864M846,346H864M846,333H864M828,320H864M846,307H864M846,294H864M846,282H864M846,269H864M828,256H864M846,243H864M846,230H864M846,218H864M846,205H864M828,192H864M846,179H864M846,166H864M846,154H864M846,141H864M828,128H864M846,115H864M846,102H864M846,90H864M846,77H864M828,64H864M846,51H864M846,38H864M846,26H864M846,13H864M828,0H864" style="stroke: black; stroke-width: 1;"></path>
     <g font-family="Arial" font-size="40" space="preserve" fill="black" text-anchor="end">
      <text dy=".4em" transform="translate(-7,640)">
       0
      </text>
      <text dy=".4em" transform="translate(-7,576)">
       0.5
      </text>
      <text dy=".4em" transform="translate(-7,512)">
       1
      </text>
      <text dy=".4em" transform="translate(-7,448)">
       1.5
      </text>
      <text dy=".4em" transform="translate(-7,384)">
       2
      </text>
      <text dy=".4em" transform="translate(-7,320)">
       2.5
      </text>
      <text dy=".4em" transform="translate(-7,256)">
       3
      </text>
      <text dy=".4em" transform="translate(-7,192)">
       3.5
      </text>
      <text dy=".4em" transform="translate(-7,128)">
       4
      </text>
      <text dy=".4em" transform="translate(-7,64)">
       4.5
      </text>
      <text dy=".4em" transform="translate(-7)">
       5
      </text>
     </g>
     <g font-family="Arial" font-size="48" space="preserve" transform="translate(-138)">
      <text fill="black" text-anchor="end" dy=".4em" transform="rotate(270)">
       Y
      </text>
     </g>
    </g>
   </g>
  </g>
  <g font-family="Arial" font-size="30" space="preserve">
   <g transform="translate(852,45)">
    <g>
     <text fill="black" font-size="24">
      138 fb
     </text>
     <text fill="black" font-size="14" transform="translate(66,-13)">
      -1
     </text>
     <text fill="black" font-size="24" x="88">
      (13 TeV)
     </text>
    </g>
   </g>
  </g>
  <g font-family="Arial" font-size="38" space="preserve" font-weight="bold">
   <text fill="black" text-anchor="start" transform="translate(168,45)">
    CMS
   </text>
  </g>
  <g font-family="Arial" font-size="29" space="preserve" font-style="oblique">
   <text fill="black" text-anchor="start" transform="translate(312,45)">
    Simulation Preliminary
   </text>
  </g>
  <g transform="translate(1049,56)">
   <path d="M0,0H35V640H0Z" style="fill: #b40326; stroke: black; stroke-width: 1;"></path>
   <path d="M0,637H35V640H0Z" style="fill: #004e7f;"></path>
   <path d="M0,634H35V638H0Z" style="fill: #004e7f;"></path>
   <path d="M0,630H35V635H0Z" style="fill: #00507e;"></path>
   <path d="M0,627H35V631H0Z" style="fill: #00527d;"></path>
   <path d="M0,624H35V628H0Z" style="fill: #00537c;"></path>
   <path d="M0,621H35V625H0Z" style="fill: #00557b;"></path>
   <path d="M0,618H35V622H0Z" style="fill: #00577a;"></path>
   <path d="M0,614H35V619H0Z" style="fill: #00587a;"></path>
   <path d="M0,611H35V615H0Z" style="fill: #005a79;"></path>
   <path d="M0,608H35V612H0Z" style="fill: #005c78;"></path>
   <path d="M0,605H35V609H0Z" style="fill: #005e77;"></path>
   <path d="M0,602H35V606H0Z" style="fill: #005f76;"></path>
   <path d="M0,598H35V603H0Z" style="fill: #006175;"></path>
   <path d="M0,595H35V599H0Z" style="fill: #006374;"></path>
   <path d="M0,592H35V596H0Z" style="fill: #006474;"></path>
   <path d="M0,589H35V593H0Z" style="fill: #006673;"></path>
   <path d="M0,586H35V590H0Z" style="fill: #006872;"></path>
   <path d="M0,582H35V587H0Z" style="fill: #006971;"></path>
   <path d="M0,579H35V583H0Z" style="fill: #006b70;"></path>
   <path d="M0,576H35V580H0Z" style="fill: #006d6f;"></path>
   <path d="M0,573H35V577H0Z" style="fill: #006f6f;"></path>
   <path d="M0,570H35V574H0Z" style="fill: #00706e;"></path>
   <path d="M0,566H35V571H0Z" style="fill: #00726d;"></path>
   <path d="M0,563H35V567H0Z" style="fill: #00746c;"></path>
   <path d="M0,560H35V564H0Z" style="fill: #00756b;"></path>
   <path d="M0,557H35V561H0Z" style="fill: #00776a;"></path>
   <path d="M0,554H35V558H0Z" style="fill: #007969;"></path>
   <path d="M0,550H35V555H0Z" style="fill: #007a69;"></path>
   <path d="M0,547H35V551H0Z" style="fill: #007c68;"></path>
   <path d="M0,544H35V548H0Z" style="fill: #007e67;"></path>
   <path d="M0,541H35V545H0Z" style="fill: #008066;"></path>
   <path d="M0,538H35V542H0Z" style="fill: #028066;"></path>
   <path d="M0,534H35V539H0Z" style="fill: #058065;"></path>
   <path d="M0,531H35V535H0Z" style="fill: #078165;"></path>
   <path d="M0,528H35V532H0Z" style="fill: #098164;"></path>
   <path d="M0,525H35V529H0Z" style="fill: #0c8264;"></path>
   <path d="M0,522H35V526H0Z" style="fill: #0e8263;"></path>
   <path d="M0,518H35V523H0Z" style="fill: #108363;"></path>
   <path d="M0,515H35V519H0Z" style="fill: #138362;"></path>
   <path d="M0,512H35V516H0Z" style="fill: #158462;"></path>
   <path d="M0,509H35V513H0Z" style="fill: #178461;"></path>
   <path d="M0,506H35V510H0Z" style="fill: #1a8561;"></path>
   <path d="M0,502H35V507H0Z" style="fill: #1c8560;"></path>
   <path d="M0,499H35V503H0Z" style="fill: #1e8660;"></path>
   <path d="M0,496H35V500H0Z" style="fill: #208660;"></path>
   <path d="M0,493H35V497H0Z" style="fill: #23865f;"></path>
   <path d="M0,490H35V494H0Z" style="fill: #25875f;"></path>
   <path d="M0,486H35V491H0Z" style="fill: #27875e;"></path>
   <path d="M0,483H35V487H0Z" style="fill: #2a885e;"></path>
   <path d="M0,480H35V484H0Z" style="fill: #2c885d;"></path>
   <path d="M0,477H35V481H0Z" style="fill: #2e895d;"></path>
   <path d="M0,474H35V478H0Z" style="fill: #31895c;"></path>
   <path d="M0,470H35V475H0Z" style="fill: #338a5c;"></path>
   <path d="M0,467H35V471H0Z" style="fill: #358a5b;"></path>
   <path d="M0,464H35V468H0Z" style="fill: #388b5b;"></path>
   <path d="M0,461H35V465H0Z" style="fill: #3a8b5a;"></path>
   <path d="M0,458H35V462H0Z" style="fill: #3c8c5a;"></path>
   <path d="M0,454H35V459H0Z" style="fill: #3f8c59;"></path>
   <path d="M0,451H35V455H0Z" style="fill: #418c59;"></path>
   <path d="M0,448H35V452H0Z" style="fill: #438d59;"></path>
   <path d="M0,445H35V449H0Z" style="fill: #468d58;"></path>
   <path d="M0,442H35V446H0Z" style="fill: #488e58;"></path>
   <path d="M0,438H35V443H0Z" style="fill: #4a8e57;"></path>
   <path d="M0,435H35V439H0Z" style="fill: #4d8f57;"></path>
   <path d="M0,432H35V436H0Z" style="fill: #4f8f56;"></path>
   <path d="M0,429H35V433H0Z" style="fill: #519056;"></path>
   <path d="M0,426H35V430H0Z" style="fill: #539055;"></path>
   <path d="M0,422H35V427H0Z" style="fill: #569155;"></path>
   <path d="M0,419H35V423H0Z" style="fill: #589154;"></path>
   <path d="M0,416H35V420H0Z" style="fill: #5a9254;"></path>
   <path d="M0,413H35V417H0Z" style="fill: #5d9253;"></path>
   <path d="M0,410H35V414H0Z" style="fill: #5f9353;"></path>
   <path d="M0,406H35V411H0Z" style="fill: #619353;"></path>
   <path d="M0,403H35V407H0Z" style="fill: #649352;"></path>
   <path d="M0,400H35V404H0Z" style="fill: #669452;"></path>
   <path d="M0,397H35V401H0Z" style="fill: #689451;"></path>
   <path d="M0,394H35V398H0Z" style="fill: #6b9551;"></path>
   <path d="M0,390H35V395H0Z" style="fill: #6d9550;"></path>
   <path d="M0,387H35V391H0Z" style="fill: #6f9650;"></path>
   <path d="M0,384H35V388H0Z" style="fill: #72964f;"></path>
   <path d="M0,381H35V385H0Z" style="fill: #74974f;"></path>
   <path d="M0,378H35V382H0Z" style="fill: #76974e;"></path>
   <path d="M0,374H35V379H0Z" style="fill: #79984e;"></path>
   <path d="M0,371H35V375H0Z" style="fill: #7b984d;"></path>
   <path d="M0,368H35V372H0Z" style="fill: #7d994d;"></path>
   <path d="M0,365H35V369H0Z" style="fill: #80994d;"></path>
   <path d="M0,362H35V366H0Z" style="fill: #82994c;"></path>
   <path d="M0,358H35V363H0Z" style="fill: #849a4c;"></path>
   <path d="M0,355H35V359H0Z" style="fill: #869a4b;"></path>
   <path d="M0,352H35V356H0Z" style="fill: #899b4b;"></path>
   <path d="M0,349H35V353H0Z" style="fill: #8b9b4a;"></path>
   <path d="M0,346H35V350H0Z" style="fill: #8d9c4a;"></path>
   <path d="M0,342H35V347H0Z" style="fill: #909c49;"></path>
   <path d="M0,339H35V343H0Z" style="fill: #929d49;"></path>
   <path d="M0,336H35V340H0Z" style="fill: #949d48;"></path>
   <path d="M0,333H35V337H0Z" style="fill: #979e48;"></path>
   <path d="M0,330H35V334H0Z" style="fill: #999e47;"></path>
   <path d="M0,326H35V331H0Z" style="fill: #9b9f47;"></path>
   <path d="M0,323H35V327H0Z" style="fill: #9e9f46;"></path>
   <path d="M0,320H35V324H0Z" style="fill: #a09f46;"></path>
   <path d="M0,317H35V321H0Z" style="fill: #a2a046;"></path>
   <path d="M0,314H35V318H0Z" style="fill: #a5a045;"></path>
   <path d="M0,310H35V315H0Z" style="fill: #a7a145;"></path>
   <path d="M0,307H35V311H0Z" style="fill: #a9a144;"></path>
   <path d="M0,304H35V308H0Z" style="fill: #aca244;"></path>
   <path d="M0,301H35V305H0Z" style="fill: #aea243;"></path>
   <path d="M0,298H35V302H0Z" style="fill: #b0a343;"></path>
   <path d="M0,294H35V299H0Z" style="fill: #b2a342;"></path>
   <path d="M0,291H35V295H0Z" style="fill: #b5a442;"></path>
   <path d="M0,288H35V292H0Z" style="fill: #b7a441;"></path>
   <path d="M0,285H35V289H0Z" style="fill: #b9a541;"></path>
   <path d="M0,282H35V286H0Z" style="fill: #bca540;"></path>
   <path d="M0,278H35V283H0Z" style="fill: #bea640;"></path>
   <path d="M0,275H35V279H0Z" style="fill: #c0a640;"></path>
   <path d="M0,272H35V276H0Z" style="fill: #c3a63f;"></path>
   <path d="M0,269H35V273H0Z" style="fill: #c5a73f;"></path>
   <path d="M0,266H35V270H0Z" style="fill: #c7a73e;"></path>
   <path d="M0,262H35V267H0Z" style="fill: #caa83e;"></path>
   <path d="M0,259H35V263H0Z" style="fill: #cca83d;"></path>
   <path d="M0,256H35V260H0Z" style="fill: #cea93d;"></path>
   <path d="M0,253H35V257H0Z" style="fill: #d1a93c;"></path>
   <path d="M0,250H35V254H0Z" style="fill: #d3aa3c;"></path>
   <path d="M0,246H35V251H0Z" style="fill: #d5aa3b;"></path>
   <path d="M0,243H35V247H0Z" style="fill: #d8ab3b;"></path>
   <path d="M0,240H35V244H0Z" style="fill: #daab3a;"></path>
   <path d="M0,237H35V241H0Z" style="fill: #dcac3a;"></path>
   <path d="M0,234H35V238H0Z" style="fill: #dfac39;"></path>
   <path d="M0,230H35V235H0Z" style="fill: #e1ac39;"></path>
   <path d="M0,227H35V231H0Z" style="fill: #e3ad39;"></path>
   <path d="M0,224H35V228H0Z" style="fill: #e5ad38;"></path>
   <path d="M0,221H35V225H0Z" style="fill: #e8ae38;"></path>
   <path d="M0,218H35V222H0Z" style="fill: #eaae37;"></path>
   <path d="M0,214H35V219H0Z" style="fill: #ecaf37;"></path>
   <path d="M0,211H35V215H0Z" style="fill: #efaf36;"></path>
   <path d="M0,208H35V212H0Z" style="fill: #f1b036;"></path>
   <path d="M0,205H35V209H0Z" style="fill: #f3b035;"></path>
   <path d="M0,202H35V206H0Z" style="fill: #f6b135;"></path>
   <path d="M0,198H35V203H0Z" style="fill: #f8b134;"></path>
   <path d="M0,195H35V199H0Z" style="fill: #fab234;"></path>
   <path d="M0,192H35V196H0Z" style="fill: #fdb233;"></path>
   <path d="M0,189H35V193H0Z" style="fill: #ffb233;"></path>
   <path d="M0,186H35V190H0Z" style="fill: #feb033;"></path>
   <path d="M0,182H35V187H0Z" style="fill: #fcad33;"></path>
   <path d="M0,179H35V183H0Z" style="fill: #fbaa32;"></path>
   <path d="M0,176H35V180H0Z" style="fill: #faa732;"></path>
   <path d="M0,173H35V177H0Z" style="fill: #f9a432;"></path>
   <path d="M0,170H35V174H0Z" style="fill: #f7a132;"></path>
   <path d="M0,166H35V171H0Z" style="fill: #f69e32;"></path>
   <path d="M0,163H35V167H0Z" style="fill: #f59b31;"></path>
   <path d="M0,160H35V164H0Z" style="fill: #f49831;"></path>
   <path d="M0,157H35V161H0Z" style="fill: #f29531;"></path>
   <path d="M0,154H35V158H0Z" style="fill: #f19231;"></path>
   <path d="M0,150H35V155H0Z" style="fill: #f08f30;"></path>
   <path d="M0,147H35V151H0Z" style="fill: #ee8c30;"></path>
   <path d="M0,144H35V148H0Z" style="fill: #ed8930;"></path>
   <path d="M0,141H35V145H0Z" style="fill: #ec8630;"></path>
   <path d="M0,138H35V142H0Z" style="fill: #eb8330;"></path>
   <path d="M0,134H35V139H0Z" style="fill: #e9802f;"></path>
   <path d="M0,131H35V135H0Z" style="fill: #e87d2f;"></path>
   <path d="M0,128H35V132H0Z" style="fill: #e77a2f;"></path>
   <path d="M0,125H35V129H0Z" style="fill: #e5772f;"></path>
   <path d="M0,122H35V126H0Z" style="fill: #e4742f;"></path>
   <path d="M0,118H35V123H0Z" style="fill: #e3712e;"></path>
   <path d="M0,115H35V119H0Z" style="fill: #e26e2e;"></path>
   <path d="M0,112H35V116H0Z" style="fill: #e06b2e;"></path>
   <path d="M0,109H35V113H0Z" style="fill: #df682e;"></path>
   <path d="M0,106H35V110H0Z" style="fill: #de652d;"></path>
   <path d="M0,102H35V107H0Z" style="fill: #dd622d;"></path>
   <path d="M0,99H35V103H0Z" style="fill: #db5f2d;"></path>
   <path d="M0,96H35V100H0Z" style="fill: #da5c2d;"></path>
   <path d="M0,93H35V97H0Z" style="fill: #d9592d;"></path>
   <path d="M0,90H35V94H0Z" style="fill: #d7562c;"></path>
   <path d="M0,86H35V91H0Z" style="fill: #d6532c;"></path>
   <path d="M0,83H35V87H0Z" style="fill: #d5502c;"></path>
   <path d="M0,80H35V84H0Z" style="fill: #d44d2c;"></path>
   <path d="M0,77H35V81H0Z" style="fill: #d24a2c;"></path>
   <path d="M0,74H35V78H0Z" style="fill: #d1472b;"></path>
   <path d="M0,70H35V75H0Z" style="fill: #d0442b;"></path>
   <path d="M0,67H35V71H0Z" style="fill: #cf412b;"></path>
   <path d="M0,64H35V68H0Z" style="fill: #cd3e2b;"></path>
   <path d="M0,61H35V65H0Z" style="fill: #cc3c2b;"></path>
   <path d="M0,58H35V62H0Z" style="fill: #cb392a;"></path>
   <path d="M0,54H35V59H0Z" style="fill: #c9362a;"></path>
   <path d="M0,51H35V55H0Z" style="fill: #c8332a;"></path>
   <path d="M0,48H35V52H0Z" style="fill: #c7302a;"></path>
   <path d="M0,45H35V49H0Z" style="fill: #c62d29;"></path>
   <path d="M0,42H35V46H0Z" style="fill: #c42a29;"></path>
   <path d="M0,38H35V43H0Z" style="fill: #c32729;"></path>
   <path d="M0,35H35V39H0Z" style="fill: #c22429;"></path>
   <path d="M0,32H35V36H0Z" style="fill: #c12129;"></path>
   <path d="M0,29H35V33H0Z" style="fill: #bf1e28;"></path>
   <path d="M0,26H35V30H0Z" style="fill: #be1b28;"></path>
   <path d="M0,22H35V27H0Z" style="fill: #bd1828;"></path>
   <path d="M0,19H35V23H0Z" style="fill: #bb1528;"></path>
   <path d="M0,16H35V20H0Z" style="fill: #ba1228;"></path>
   <path d="M0,13H35V17H0Z" style="fill: #b90f27;"></path>
   <path d="M0,10H35V14H0Z" style="fill: #b80c27;"></path>
   <path d="M0,6H35V11H0Z" style="fill: #b60927;"></path>
   <path d="M0,3H35V7H0Z" style="fill: #b50627;"></path>
   <path d="M0,0H35V4H0Z" style="fill: #b40326;"></path>
   <g transform="translate(35)">
    <path d="M0,0v640M0,545H-25M0,450H-25M0,355H-25M0,260H-25M0,165H-25M0,70H-25" style="stroke: black; stroke-width: 1;"></path>
    <g font-family="Arial" font-size="28" space="preserve" fill="black" text-anchor="start">
     <text dy=".4em" transform="translate(6,545)">
      0.01
     </text>
     <text dy=".4em" transform="translate(6,450)">
      0.02
     </text>
     <text dy=".4em" transform="translate(6,355)">
      0.03
     </text>
     <text dy=".4em" transform="translate(6,260)">
      0.04
     </text>
     <text dy=".4em" transform="translate(6,165)">
      0.05
     </text>
     <text dy=".4em" transform="translate(6,70)">
      0.06
     </text>
    </g>
    <g font-family="Arial" font-size="28" space="preserve" transform="translate(94)">
     <text fill="black" text-anchor="end" dy=".4em" transform="rotate(270)">
      Events normalised
     </text>
    </g>
   </g>
  </g>
 </g>
</svg>