<svg xmlns="http://www.w3.org/2000/svg" viewBox="0 0 598 575" preserveAspectRatio="none" width="598" height="575">
 <path d="M0,0H598V575H0Z" style="fill: white;"></path>
 <g>
  <g transform="translate(96,29)">
   <path d="M0,0H472V454H0Z" style="fill: white; stroke: black; stroke-width: 1;"></path>
   <svg x="0" y="0" overflow="hidden" width="472" height="454" viewBox="0 0 472 454">
    <g>
     <path d="M0,459h20v-194h19v-35h20v-13h20v-4h19v-4h20v5h20v3h19v-3h20v2h20v2h19v4h20v-2h20v4h19v3h20v2h20v5h19v6h20v4h20v1h19v3h20v6h20v4h39L472,457H0Z" style="stroke-linejoin: miter; stroke: black; stroke-width: 1; fill: #de5a6a;"></path>
    </g>
    <g>
     <path d="M0,459h20v-84h19v-42h20v-13h20v-9h19v-4h20v-5h20v-4h19v-2h40v2h19v-3h20v-2h20v1h59v4h39v3h20v4h19v3h20v6h20v1h19v-2h20L472,457H0Z" style="stroke-linejoin: miter; stroke: black; stroke-width: 1; fill: #f8ce68;"></path>
    </g>
    <g>
     <path d="M0,459h20v-50h19v-33h20v-14h20v-13h19v-5h20v-7h20v-6h19v-2h20v-1h20v-2h19v-2h20v1h20v2h19v-1h20v-3h20v3h59v2h19v2h20v1h39v2h20L472,457H0Z" style="stroke-linejoin: miter; stroke: black; stroke-width: 1; fill: #9b98cc;"></path>
    </g>
    <g>
     <path d="M0,459h20v-23h19v-35h20v-2h20v-12h19v-9h20v-7h20v-6h19v1h20v3h20v-4h19v-3h20v2h20v4h59v1h19v-2h40v4h19v2h20v-2h20v2h19v1h20L472,457H0Z" style="stroke-linejoin: miter; stroke: black; stroke-width: 1; fill: #c38a91;"></path>
    </g>
    <g>
     <path d="M0,459h39v-9h20v-12h20v-14h19v-22h20v-4h20v-4h19v-2h20v17h20v-24h19v2h20v4h20v2h19v-5h20v2h20v4h19v-9h20v-1h20v15h19v-2h20v-11h20v10h19v-7h20L472,457H0Z" style="stroke-linejoin: miter; stroke: black; stroke-width: 1; fill: #d0f0c1;"></path>
    </g>
    <g>
     <path d="M20,273h20M30,272v2M39,235h20M49,234v1M59,220h20M69,219v1M79,214h20M89,214v1M98,214h20M108,213v1M118,213h20M128,212v1M138,215h20M148,215v1M157,216h20M167,216v1M177,218h20M187,217v1M197,218h20M207,218v1M216,220h20M226,219v1M236,222h20M246,222v1M256,223h20M266,222v1M275,226h20M285,225v1M295,229h20M305,229v1M315,232h20M325,231v2M334,236h20M344,235v1M354,241h20M364,240v1M374,244h20M384,244v1M393,248h20M403,247v2M413,252h20M423,251v2M433,257h20M443,256v2M452,260h20M462,259v2" style="stroke: black; stroke-width: 2;"></path>
     <path d="M25,273a5,5,0,1,0,10,0a5,5,0,1,0,-10,0zM44,235a5,5,0,1,0,10,0a5,5,0,1,0,-10,0zM64,220a5,5,0,1,0,10,0a5,5,0,1,0,-10,0zM84,214a5,5,0,1,0,10,0a5,5,0,1,0,-10,0zM103,214a5,5,0,1,0,10,0a5,5,0,1,0,-10,0zM123,213a5,5,0,1,0,10,0a5,5,0,1,0,-10,0zM143,215a5,5,0,1,0,10,0a5,5,0,1,0,-10,0zM162,216a5,5,0,1,0,10,0a5,5,0,1,0,-10,0zM182,218a5,5,0,1,0,10,0a5,5,0,1,0,-10,0zM202,218a5,5,0,1,0,10,0a5,5,0,1,0,-10,0zM221,220a5,5,0,1,0,10,0a5,5,0,1,0,-10,0zM241,222a5,5,0,1,0,10,0a5,5,0,1,0,-10,0zM261,223a5,5,0,1,0,10,0a5,5,0,1,0,-10,0zM280,226a5,5,0,1,0,10,0a5,5,0,1,0,-10,0zM300,229a5,5,0,1,0,10,0a5,5,0,1,0,-10,0zM320,232a5,5,0,1,0,10,0a5,5,0,1,0,-10,0zM339,236a5,5,0,1,0,10,0a5,5,0,1,0,-10,0zM359,241a5,5,0,1,0,10,0a5,5,0,1,0,-10,0zM379,244a5,5,0,1,0,10,0a5,5,0,1,0,-10,0zM398,248a5,5,0,1,0,10,0a5,5,0,1,0,-10,0zM418,252a5,5,0,1,0,10,0a5,5,0,1,0,-10,0zM438,257a5,5,0,1,0,10,0a5,5,0,1,0,-10,0zM457,260a5,5,0,1,0,10,0a5,5,0,1,0,-10,0z" style="stroke: black; fill: black;"></path>
    </g>
   </svg>
   <g>
    <g transform="translate(0,454)">
     <path d="M0,0h472M0,-14V0M20,-7V0M39,-7V0M59,-7V0M79,-14V0M98,-7V0M118,-7V0M138,-7V0M157,-14V0M177,-7V0M197,-7V0M216,-7V0M236,-14V0M256,-7V0M275,-7V0M295,-7V0M315,-14V0M334,-7V0M354,-7V0M374,-7V0M393,-14V0M413,-7V0M433,-7V0M452,-7V0M472,-14V0" style="stroke: black; stroke-width: 1;"></path>
     <g font-family="Arial" font-size="23" space="preserve" fill="black" text-anchor="middle">
      <text dy=".8em" transform="translate(0,4)">
       60
      </text>
      <text dy=".8em" transform="translate(79,4)">
       80
      </text>
      <text dy=".8em" transform="translate(157,4)">
       100
      </text>
      <text dy=".8em" transform="translate(236,4)">
       120
      </text>
      <text dy=".8em" transform="translate(315,4)">
       140
      </text>
      <text dy=".8em" transform="translate(393,4)">
       160
      </text>
      <text dy=".8em" transform="translate(472,4)">
       180
      </text>
     </g>
     <g font-family="Arial" font-size="26" space="preserve" transform="translate(472,54)">
      <g transform="translate(-145,10)">
       <text fill="black" font-size="26">
        m
       </text>
       <text fill="black" font-size="16" transform="translate(23,-14)">
        W→ lν
       </text>
       <text fill="black" font-size="16" transform="translate(23,5)">
        T
       </text>
       <text fill="black" font-size="26" x="79">
        [GeV]
       </text>
      </g>
     </g>
    </g>
    <g>
     <path d="M0,0v454M7,446H0M7,439H0M7,433H0M7,429H0M7,425H0M7,422H0M7,419H0M14,416H0M7,399H0M7,389H0M7,382H0M7,377H0M7,372H0M7,369H0M7,365H0M7,362H0M14,360H0M7,343H0M7,333H0M7,326H0M7,320H0M7,316H0M7,312H0M7,309H0M7,306H0M14,303H0M7,286H0M7,276H0M7,269H0M7,264H0M7,259H0M7,256H0M7,252H0M7,250H0M14,247H0M7,230H0M7,220H0M7,213H0M7,208H0M7,203H0M7,199H0M7,196H0M7,193H0M14,191H0M7,174H0M7,164H0M7,157H0M7,151H0M7,147H0M7,143H0M7,140H0M7,137H0M14,134H0M7,117H0M7,107H0M7,100H0M7,95H0M7,90H0M7,87H0M7,83H0M7,80H0M14,78H0M7,61H0M7,51H0M7,44H0M7,38H0M7,34H0M7,30H0M7,27H0M7,24H0M14,21H0M7,4H0" style="stroke: black; stroke-width: 1;"></path>
     <g font-family="Arial" font-size="23" space="preserve">
      <text fill="black" text-anchor="end" dy=".4em" transform="translate(-4,416)">
       1
      </text>
      <text fill="black" text-anchor="end" dy=".4em" transform="translate(-4,360)">
       10
      </text>
      <g transform="translate(-37,313)">
       <text fill="black" font-size="23">
        10
       </text>
       <text fill="black" font-size="14" transform="translate(25,-12)">
        2
       </text>
      </g>
      <g transform="translate(-37,257)">
       <text fill="black" font-size="23">
        10
       </text>
       <text fill="black" font-size="14" transform="translate(25,-12)">
        3
       </text>
      </g>
      <g transform="translate(-37,201)">
       <text fill="black" font-size="23">
        10
       </text>
       <text fill="black" font-size="14" transform="translate(25,-12)">
        4
       </text>
      </g>
      <g transform="translate(-37,144)">
       <text fill="black" font-size="23">
        10
       </text>
       <text fill="black" font-size="14" transform="translate(25,-12)">
        5
       </text>
      </g>
      <g transform="translate(-37,88)">
       <text fill="black" font-size="23">
        10
       </text>
       <text fill="black" font-size="14" transform="translate(25,-12)">
        6
       </text>
      </g>
      <g transform="translate(-37,31)">
       <text fill="black" font-size="23">
        10
       </text>
       <text fill="black" font-size="14" transform="translate(25,-12)">
        7
       </text>
      </g>
     </g>
     <g font-family="Arial" font-size="26" space="preserve" transform="translate(-61)">
      <text fill="black" text-anchor="end" dy=".4em" transform="rotate(270)">
       Events
      </text>
     </g>
    </g>
   </g>
  </g>
  <g transform="translate(359,46)" font-family="Arial" font-size="22" space="preserve">
   <path d="M6,17H42" style="stroke: black; stroke-width: 2;"></path>
   <path d="M24,7V27" style="stroke: black; stroke-width: 2;"></path>
   <path d="M19,17a5,5,0,1,0,10,0a5,5,0,1,0,-10,0z" style="stroke: black; fill: black;"></path>
   <text fill="black" text-anchor="end" dy=".4em" transform="translate(185,17)">
    Data
   </text>
   <path d="M6,31v19h36v-19z" style="fill: #de5a6a; stroke: black; stroke-width: 1;"></path>
   <text fill="black" text-anchor="end" dy=".4em" transform="translate(185,41)">
    W+jets
   </text>
   <path d="M6,55v19h36v-19z" style="fill: #f8ce68; stroke: black; stroke-width: 1;"></path>
   <text fill="black" text-anchor="end" dy=".4em" transform="translate(185,65)">
    Z+jets
   </text>
   <path d="M6,80v19h36v-19z" style="fill: #9b98cc; stroke: black; stroke-width: 1;"></path>
   <g transform="translate(171,98)">
    <text fill="black" font-size="22">
     t
    </text>
    <g transform="translate(7)">
     <text fill="black" font-size="22" text-decoration="overline">
      t
     </text>
    </g>
   </g>
   <path d="M6,104v19h36v-19z" style="fill: #c38a91; stroke: black; stroke-width: 1;"></path>
   <text fill="black" text-anchor="end" dy=".4em" transform="translate(185,114)">
    Diboson
   </text>
   <path d="M6,128v19h36v-19z" style="fill: #d0f0c1; stroke: black; stroke-width: 1;"></path>
   <text fill="black" text-anchor="end" dy=".4em" transform="translate(185,138)">
    Single top
   </text>
  </g>
  <g font-family="Arial" font-size="23" space="preserve" font-weight="bold" font-style="oblique">
   <text fill="black" text-anchor="start" transform="translate(126,81)">
    ATLAS
   </text>
  </g>
  <g font-family="Arial" font-size="23" space="preserve">
   <text fill="black" text-anchor="start" transform="translate(221,81)">
    Open Data
   </text>
  </g>
  <g font-family="Arial" font-size="21" space="preserve">
   <g transform="translate(126,115)">
    <g>
     <path style="stroke: black; stroke-width: 1; fill: none;" d="M0,-8h3l3,9l3,-21h15v3"></path>
     <text fill="black" font-size="21" transform="translate(10)">
      s
     </text>
    </g>
    <text fill="black" font-size="21" x="33">
     = 13 TeV, 0.01 fb
    </text>
    <text fill="black" font-size="13" transform="translate(192,-11)">
     -1
    </text>
   </g>
  </g>
 </g>
</svg>