<svg xmlns="http://www.w3.org/2000/svg" viewBox="0 0 1200 800" preserveAspectRatio="none" width="1200" height="800">
 <title>
  ROOT canvas
 </title>
 <rect x="0" y="0" width="1200" height="800" style="fill: white;"></rect>
 <g>
  <svg viewBox="0 0 1200 520" preserveAspectRatio="none" x="0" y="0" width="1200" height="520">
   <rect x="0" y="0" width="1200" height="520" style="fill: white;"></rect>
   <g>
    <g transform="translate(168,26)">
     <title></title>
     <rect x="0" y="0" width="972" height="494" style="fill: white; stroke: black; stroke-width: 1;"></rect>
     <svg x="0" y="0" overflow="hidden" width="972" height="494" viewBox="0 0 972 494">
      <g>
       <path d="M0,161h32M16,157v9M32,189h34M49,184v9M65,203h32M81,199v8M97,229h34M114,225v8M130,239h32M146,235v8M162,255h32M178,252v7M194,273h34M211,269v7M227,285h32M243,282v7M259,298h34M276,294v7M292,304h32M308,301v6M324,311h32M340,307v7M356,325h34M373,322v7M389,334h32M405,331v6M421,348h34M438,345v6M454,356h32M470,354v5M486,362h32M502,359v6M518,366h34M535,363v6M551,378h32M567,375v5M583,385h34M600,382v5M616,383h32M632,381v5M648,388h32M664,385v5M680,394h34M697,391v5M713,401h32M729,399v4M745,407h34M762,405v4M778,414h32M794,412v5M810,413h32M826,410v5M842,419h34M859,417v4M875,423h32M891,421v4M907,428h34M924,426v4M940,432h32M956,430v4" style="stroke: black; stroke-width: 2;"></path>
       <path d="M11,161a5,5,0,1,0,10,0a5,5,0,1,0,-10,0zM44,189a5,5,0,1,0,10,0a5,5,0,1,0,-10,0zM76,203a5,5,0,1,0,10,0a5,5,0,1,0,-10,0zM109,229a5,5,0,1,0,10,0a5,5,0,1,0,-10,0zM141,239a5,5,0,1,0,10,0a5,5,0,1,0,-10,0zM173,255a5,5,0,1,0,10,0a5,5,0,1,0,-10,0zM206,273a5,5,0,1,0,10,0a5,5,0,1,0,-10,0zM238,285a5,5,0,1,0,10,0a5,5,0,1,0,-10,0zM271,298a5,5,0,1,0,10,0a5,5,0,1,0,-10,0zM303,304a5,5,0,1,0,10,0a5,5,0,1,0,-10,0zM335,311a5,5,0,1,0,10,0a5,5,0,1,0,-10,0zM368,325a5,5,0,1,0,10,0a5,5,0,1,0,-10,0zM400,334a5,5,0,1,0,10,0a5,5,0,1,0,-10,0zM433,348a5,5,0,1,0,10,0a5,5,0,1,0,-10,0zM465,356a5,5,0,1,0,10,0a5,5,0,1,0,-10,0zM497,362a5,5,0,1,0,10,0a5,5,0,1,0,-10,0zM530,366a5,5,0,1,0,10,0a5,5,0,1,0,-10,0zM562,378a5,5,0,1,0,10,0a5,5,0,1,0,-10,0zM595,385a5,5,0,1,0,10,0a5,5,0,1,0,-10,0zM627,383a5,5,0,1,0,10,0a5,5,0,1,0,-10,0zM659,388a5,5,0,1,0,10,0a5,5,0,1,0,-10,0zM692,394a5,5,0,1,0,10,0a5,5,0,1,0,-10,0zM724,401a5,5,0,1,0,10,0a5,5,0,1,0,-10,0zM757,407a5,5,0,1,0,10,0a5,5,0,1,0,-10,0zM789,414a5,5,0,1,0,10,0a5,5,0,1,0,-10,0zM821,413a5,5,0,1,0,10,0a5,5,0,1,0,-10,0zM854,419a5,5,0,1,0,10,0a5,5,0,1,0,-10,0zM886,423a5,5,0,1,0,10,0a5,5,0,1,0,-10,0zM919,428a5,5,0,1,0,10,0a5,5,0,1,0,-10,0zM951,432a5,5,0,1,0,10,0a5,5,0,1,0,-10,0z" style="stroke: black; fill: black;"></path>
      </g>
      <g>
       <path d="M0,154.12c1.11,0.75,7.5,5.13,9.72,6.63s7.47,5.01,9.72,6.5s7.44,4.9,9.72,6.38s7.41,4.78,9.72,6.25s7.39,4.67,9.72,6.13s7.36,4.56,9.72,6s7.34,4.45,9.72,5.88s7.31,4.35,9.72,5.76s7.28,4.25,9.72,5.65s7.26,4.14,9.72,5.53s7.24,4.05,9.72,5.41s7.21,3.95,9.72,5.3s7.19,3.85,9.72,5.19s7.16,3.76,9.72,5.08s7.14,3.67,9.72,4.97s7.12,3.58,9.72,4.87s7.1,3.49,9.72,4.76s7.07,3.4,9.72,4.66s7.05,3.32,9.72,4.55s7.03,3.23,9.72,4.45s7.01,3.15,9.72,4.35s6.99,3.07,9.72,4.24s6.96,2.98,9.72,4.13s6.94,2.88,9.72,4.01s6.91,2.77,9.72,3.87s6.87,2.64,9.72,3.7s6.83,2.5,9.72,3.5s6.79,2.33,9.72,3.28s6.74,2.14,9.72,3.03s6.71,1.95,9.72,2.77s6.67,1.77,9.72,2.54s6.66,1.63,9.72,2.37s6.65,1.56,9.72,2.29s6.67,1.57,9.72,2.32s6.7,1.67,9.72,2.48s6.74,1.85,9.72,2.74s6.8,2.08,9.72,3.05s6.85,2.32,9.72,3.35s6.88,2.52,9.72,3.58s6.9,2.64,9.72,3.72s6.89,2.66,9.72,3.73s6.86,2.6,9.72,3.64s6.82,2.47,9.72,3.46s6.78,2.3,9.72,3.24s6.75,2.12,9.72,3.01s6.71,1.96,9.72,2.79s6.69,1.82,9.72,2.61s6.67,1.7,9.72,2.45s6.65,1.61,9.72,2.33s6.64,1.54,9.72,2.24s6.63,1.48,9.72,2.16s6.62,1.44,9.72,2.09s6.61,1.4,9.72,2.04s6.61,1.36,9.72,1.99s6.6,1.33,9.72,1.94s6.6,1.29,9.72,1.9s6.59,1.27,9.72,1.86s6.59,1.24,9.72,1.82s6.58,1.21,9.72,1.78s6.58,1.18,9.72,1.74s6.57,1.16,9.72,1.7s6.57,1.13,9.72,1.67s6.57,1.11,9.72,1.64s6.56,1.09,9.72,1.61s6.56,1.07,9.72,1.58s6.56,1.05,9.72,1.55s6.56,1.03,9.72,1.52s6.55,1.02,9.72,1.5s6.55,1,9.72,1.48s6.55,0.98,9.72,1.46s6.55,0.97,9.72,1.44s6.55,0.96,9.72,1.42s6.55,0.95,9.72,1.4s6.54,0.94,9.72,1.39s6.54,0.93,9.72,1.37s6.54,0.92,9.72,1.36s6.54,0.91,9.72,1.35s6.54,0.9,9.72,1.34s6.54,0.9,9.72,1.34s6.54,0.9,9.72,1.33s6.54,0.89,9.72,1.33s6.54,0.89,9.72,1.32s6.54,0.89,9.72,1.32s6.54,0.89,9.72,1.32s6.54,0.89,9.72,1.33s6.54,0.89,9.72,1.33s6.54,0.9,9.72,1.34s6.54,0.9,9.72,1.34s6.54,0.91,9.72,1.35s6.54,0.91,9.72,1.36s6.54,0.92,9.72,1.37s6.55,0.93,9.72,1.39s6.55,0.94,9.72,1.4s6.55,0.95,9.72,1.42s6.55,0.96,9.72,1.44s6.55,0.98,9.72,1.46s6.55,0.99,9.72,1.48s6.56,1.01,9.72,1.5s6.56,1.03,9.72,1.53s8.14,1.3,9.72,1.55" style="fill: none; stroke: red; stroke-width: 2;"></path>
      </g>
      <g>
       <path d="M0,154.12c1.11,0.75,7.5,5.13,9.72,6.63s7.47,5.01,9.72,6.5s7.44,4.9,9.72,6.38s7.41,4.78,9.72,6.25s7.39,4.67,9.72,6.13s7.36,4.56,9.72,6s7.34,4.45,9.72,5.88s7.31,4.35,9.72,5.76s7.28,4.25,9.72,5.65s7.26,4.14,9.72,5.53s7.24,4.05,9.72,5.41s7.21,3.95,9.72,5.3s7.19,3.85,9.72,5.19s7.16,3.76,9.72,5.08s7.14,3.67,9.72,4.97s7.12,3.58,9.72,4.87s7.1,3.49,9.72,4.76s7.07,3.4,9.72,4.66s7.05,3.32,9.72,4.55s7.03,3.23,9.72,4.45s7.01,3.15,9.72,4.35s6.99,3.07,9.72,4.24s6.96,2.98,9.72,4.13s6.94,2.88,9.72,4.01s6.91,2.77,9.72,3.87s6.87,2.64,9.72,3.7s6.83,2.5,9.72,3.5s6.79,2.33,9.72,3.28s6.74,2.14,9.72,3.03s6.71,1.95,9.72,2.77s6.67,1.77,9.72,2.54s6.66,1.63,9.72,2.37s6.65,1.56,9.72,2.29s6.67,1.57,9.72,2.32s6.7,1.67,9.72,2.48s6.74,1.85,9.72,2.74s6.8,2.08,9.72,3.05s6.85,2.32,9.72,3.35s6.88,2.52,9.72,3.58s6.9,2.64,9.72,3.72s6.89,2.66,9.72,3.73s6.86,2.6,9.72,3.64s6.82,2.47,9.72,3.46s6.78,2.3,9.72,3.24s6.75,2.12,9.72,3.01s6.71,1.96,9.72,2.79s6.69,1.82,9.72,2.61s6.67,1.7,9.72,2.45s6.65,1.61,9.72,2.33s6.64,1.54,9.72,2.24s6.63,1.48,9.72,2.16s6.62,1.44,9.72,2.09s6.61,1.4,9.72,2.04s6.61,1.36,9.72,1.99s6.6,1.33,9.72,1.94s6.6,1.29,9.72,1.9s6.59,1.27,9.72,1.86s6.59,1.24,9.72,1.82s6.58,1.21,9.72,1.78s6.58,1.18,9.72,1.74s6.57,1.16,9.72,1.7s6.57,1.13,9.72,1.67s6.57,1.11,9.72,1.64s6.56,1.09,9.72,1.61s6.56,1.07,9.72,1.58s6.56,1.05,9.72,1.55s6.56,1.03,9.72,1.52s6.55,1.02,9.72,1.5s6.55,1,9.72,1.48s6.55,0.98,9.72,1.46s6.55,0.97,9.72,1.44s6.55,0.96,9.72,1.42s6.55,0.95,9.72,1.4s6.54,0.94,9.72,1.39s6.54,0.93,9.72,1.37s6.54,0.92,9.72,1.36s6.54,0.91,9.72,1.35s6.54,0.9,9.72,1.34s6.54,0.9,9.72,1.34s6.54,0.9,9.72,1.33s6.54,0.89,9.72,1.33s6.54,0.89,9.72,1.32s6.54,0.89,9.72,1.32s6.54,0.89,9.72,1.32s6.54,0.89,9.72,1.33s6.54,0.89,9.72,1.33s6.54,0.9,9.72,1.34s6.54,0.9,9.72,1.34s6.54,0.91,9.72,1.35s6.54,0.91,9.72,1.36s6.54,0.92,9.72,1.37s6.55,0.93,9.72,1.39s6.55,0.94,9.72,1.4s6.55,0.95,9.72,1.42s6.55,0.96,9.72,1.44s6.55,0.98,9.72,1.46s6.55,0.99,9.72,1.48s6.56,1.01,9.72,1.5s6.56,1.03,9.72,1.53s8.14,1.3,9.72,1.55" style="fill: none; stroke: red; stroke-width: 2;"></path>
      </g>
      <g>
       <path d="M0,154.12c1.11,0.75,7.5,5.13,9.72,6.63s7.47,5.01,9.72,6.5s7.44,4.9,9.72,6.38s7.41,4.78,9.72,6.25s7.39,4.67,9.72,6.13s7.36,4.56,9.72,6s7.34,4.45,9.72,5.88s7.31,4.35,9.72,5.76s7.28,4.25,9.72,5.65s7.26,4.14,9.72,5.53s7.24,4.05,9.72,5.41s7.21,3.95,9.72,5.3s7.19,3.85,9.72,5.19s7.16,3.76,9.72,5.08s7.14,3.67,9.72,4.97s7.12,3.58,9.72,4.87s7.1,3.49,9.72,4.76s7.07,3.4,9.72,4.66s7.05,3.32,9.72,4.56s7.03,3.24,9.72,4.46s7.01,3.16,9.72,4.36s6.99,3.08,9.72,4.26s6.97,3,9.72,4.16s6.95,2.93,9.72,4.07s6.94,2.85,9.72,3.98s6.92,2.78,9.72,3.89s6.9,2.71,9.72,3.8s6.88,2.64,9.72,3.71s6.87,2.57,9.72,3.62s6.85,2.51,9.72,3.54s6.84,2.44,9.72,3.46s6.82,2.38,9.72,3.38s6.81,2.32,9.72,3.3s6.79,2.26,9.72,3.22s6.78,2.2,9.72,3.14s6.77,2.15,9.72,3.07s6.75,2.09,9.72,2.99s6.74,2.04,9.72,2.92s6.73,1.98,9.72,2.85s6.72,1.93,9.72,2.78s6.71,1.88,9.72,2.71s6.7,1.84,9.72,2.65s6.69,1.79,9.72,2.59s6.68,1.74,9.72,2.52s6.67,1.7,9.72,2.46s6.66,1.66,9.72,2.4s6.65,1.61,9.72,2.35s6.65,1.57,9.72,2.29s6.64,1.53,9.72,2.23s6.63,1.5,9.72,2.18s6.63,1.46,9.72,2.13s6.62,1.42,9.72,2.08s6.61,1.39,9.72,2.03s6.61,1.36,9.72,1.99s6.6,1.33,9.72,1.94s6.6,1.29,9.72,1.9s6.59,1.26,9.72,1.86s6.59,1.24,9.72,1.82s6.58,1.21,9.72,1.78s6.58,1.18,9.72,1.74s6.57,1.16,9.72,1.7s6.57,1.13,9.72,1.67s6.57,1.11,9.72,1.64s6.56,1.09,9.72,1.61s6.56,1.07,9.72,1.58s6.56,1.05,9.72,1.55s6.56,1.03,9.72,1.52s6.55,1.02,9.72,1.5s6.55,1,9.72,1.48s6.55,0.98,9.72,1.46s6.55,0.97,9.72,1.44s6.55,0.96,9.72,1.42s6.55,0.95,9.72,1.4s6.54,0.94,9.72,1.39s6.54,0.93,9.72,1.37s6.54,0.92,9.72,1.36s6.54,0.91,9.72,1.35s6.54,0.9,9.72,1.34s6.54,0.9,9.72,1.34s6.54,0.9,9.72,1.33s6.54,0.89,9.72,1.33s6.54,0.89,9.72,1.32s6.54,0.89,9.72,1.32s6.54,0.89,9.72,1.32s6.54,0.89,9.72,1.33s6.54,0.89,9.72,1.33s6.54,0.9,9.72,1.34s6.54,0.9,9.72,1.34s6.54,0.91,9.72,1.35s6.54,0.91,9.72,1.36s6.54,0.92,9.72,1.37s6.55,0.93,9.72,1.39s6.55,0.94,9.72,1.4s6.55,0.95,9.72,1.42s6.55,0.96,9.72,1.44s6.55,0.98,9.72,1.46s6.55,0.99,9.72,1.48s6.56,1.01,9.72,1.5s6.56,1.03,9.72,1.53s8.14,1.3,9.72,1.55" style="fill: none; stroke: blue; stroke-width: 2; stroke-dasharray: 3,3;"></path>
      </g>
      <g>
       <path d="M0,161h32M16,157v9M32,189h34M49,184v9M65,203h32M81,199v8M97,229h34M114,225v8M130,239h32M146,235v8M162,255h32M178,252v7M194,273h34M211,269v7M227,285h32M243,282v7M259,298h34M276,294v7M292,304h32M308,301v6M324,311h32M340,307v7M356,325h34M373,322v7M389,334h32M405,331v6M421,348h34M438,345v6M454,356h32M470,354v5M486,362h32M502,359v6M518,366h34M535,363v6M551,378h32M567,375v5M583,385h34M600,382v5M616,383h32M632,381v5M648,388h32M664,385v5M680,394h34M697,391v5M713,401h32M729,399v4M745,407h34M762,405v4M778,414h32M794,412v5M810,413h32M826,410v5M842,419h34M859,417v4M875,423h32M891,421v4M907,428h34M924,426v4M940,432h32M956,430v4" style="stroke: black; stroke-width: 2;"></path>
       <path d="M11,161a5,5,0,1,0,10,0a5,5,0,1,0,-10,0zM44,189a5,5,0,1,0,10,0a5,5,0,1,0,-10,0zM76,203a5,5,0,1,0,10,0a5,5,0,1,0,-10,0zM109,229a5,5,0,1,0,10,0a5,5,0,1,0,-10,0zM141,239a5,5,0,1,0,10,0a5,5,0,1,0,-10,0zM173,255a5,5,0,1,0,10,0a5,5,0,1,0,-10,0zM206,273a5,5,0,1,0,10,0a5,5,0,1,0,-10,0zM238,285a5,5,0,1,0,10,0a5,5,0,1,0,-10,0zM271,298a5,5,0,1,0,10,0a5,5,0,1,0,-10,0zM303,304a5,5,0,1,0,10,0a5,5,0,1,0,-10,0zM335,311a5,5,0,1,0,10,0a5,5,0,1,0,-10,0zM368,325a5,5,0,1,0,10,0a5,5,0,1,0,-10,0zM400,334a5,5,0,1,0,10,0a5,5,0,1,0,-10,0zM433,348a5,5,0,1,0,10,0a5,5,0,1,0,-10,0zM465,356a5,5,0,1,0,10,0a5,5,0,1,0,-10,0zM497,362a5,5,0,1,0,10,0a5,5,0,1,0,-10,0zM530,366a5,5,0,1,0,10,0a5,5,0,1,0,-10,0zM562,378a5,5,0,1,0,10,0a5,5,0,1,0,-10,0zM595,385a5,5,0,1,0,10,0a5,5,0,1,0,-10,0zM627,383a5,5,0,1,0,10,0a5,5,0,1,0,-10,0zM659,388a5,5,0,1,0,10,0a5,5,0,1,0,-10,0zM692,394a5,5,0,1,0,10,0a5,5,0,1,0,-10,0zM724,401a5,5,0,1,0,10,0a5,5,0,1,0,-10,0zM757,407a5,5,0,1,0,10,0a5,5,0,1,0,-10,0zM789,414a5,5,0,1,0,10,0a5,5,0,1,0,-10,0zM821,413a5,5,0,1,0,10,0a5,5,0,1,0,-10,0zM854,419a5,5,0,1,0,10,0a5,5,0,1,0,-10,0zM886,423a5,5,0,1,0,10,0a5,5,0,1,0,-10,0zM919,428a5,5,0,1,0,10,0a5,5,0,1,0,-10,0zM951,432a5,5,0,1,0,10,0a5,5,0,1,0,-10,0z" style="stroke: black; fill: black;"></path>
      </g>
      <g>
       <path d="M0,494h259v-1h33v-3h32v-3h65v4h32v2h33v1h518" style="stroke-linejoin: miter; stroke: rgb(0,0,154); stroke-width: 1; fill: none;"></path>
      </g>
     </svg>
     <g>
      <g transform="translate(0,494)">
       <line x1="0" y1="0" x2="972" y2="0" style="stroke: black; stroke-width: 1;"></line>
       <path d="M18,-8v8m35,-8v8m35,-16v16m36,-8v8m35,-8v8m35,-8v8m36,-8v8m35,-16v16m35,-8v8m36,-8v8m35,-8v8m35,-8v8m36,-16v16m35,-8v8m36,-8v8m35,-8v8m35,-8v8m36,-16v16m35,-8v8m35,-8v8m36,-8v8m35,-8v8m35,-16v16m36,-8v8m35,-8v8m35,-8v8m36,-8v8m35,-16v16" style="stroke: black; stroke-width: 1;"></path>
       <g font-family="Arial" font-size="18" space="preserve">
        <text fill="black" text-anchor="middle" dy=".8em" transform="translate(88,5)">
         110
        </text>
        <text fill="black" text-anchor="middle" dy=".8em" transform="translate(265,5)">
         120
        </text>
        <text fill="black" text-anchor="middle" dy=".8em" transform="translate(442,5)">
         130
        </text>
        <text fill="black" text-anchor="middle" dy=".8em" transform="translate(619,5)">
         140
        </text>
        <text fill="black" text-anchor="middle" dy=".8em" transform="translate(795,5)">
         150
        </text>
        <text fill="black" text-anchor="middle" dy=".8em" transform="translate(972,5)">
         160
        </text>
       </g>
       <g font-family="Arial" font-size="18" space="preserve" transform="translate(972,29)">
        <text fill="black" text-anchor="start" transform="translate(-90,3)">
         <tspan dy="-.1em">
          m
         </tspan>
         <tspan font-size="60%" dx=".1em" dy=".4em">
          γγ
         </tspan>
         <tspan dy="-.24em">
          [GeV]
         </tspan>
        </text>
       </g>
      </g>
      <g>
       <line x1="0" y1="0" x2="0" y2="494" style="stroke: black; stroke-width: 1;"></line>
       <path d="M18,482h-18m18,-13h-18m18,-12h-18m18,-12h-18m36,-13h-36m18,-12h-18m18,-12h-18m18,-13h-18m18,-12h-18m36,-12h-36m18,-13h-18m18,-12h-18m18,-13h-18m18,-12h-18m36,-12h-36m18,-13h-18m18,-12h-18m18,-12h-18m18,-13h-18m36,-12h-36m18,-12h-18m18,-13h-18m18,-12h-18m18,-12h-18m36,-13h-36m18,-12h-18m18,-12h-18m18,-13h-18m18,-12h-18m36,-12h-36m18,-13h-18m18,-12h-18m18,-13h-18m18,-12h-18m36,-12h-36m18,-13h-18m18,-12h-18m18,-12h-18m18,-13h-18m36,-12h-36" style="stroke: black; stroke-width: 1;"></path>
       <g font-family="Arial" font-size="23" space="preserve">
        <text fill="black" text-anchor="end" dy=".4em" transform="translate(-3,432)">
         1000
        </text>
        <text fill="black" text-anchor="end" dy=".4em" transform="translate(-3,371)">
         2000
        </text>
        <text fill="black" text-anchor="end" dy=".4em" transform="translate(-3,309)">
         3000
        </text>
        <text fill="black" text-anchor="end" dy=".4em" transform="translate(-3,247)">
         4000
        </text>
        <text fill="black" text-anchor="end" dy=".4em" transform="translate(-3,185)">
         5000
        </text>
        <text fill="black" text-anchor="end" dy=".4em" transform="translate(-3,124)">
         6000
        </text>
        <text fill="black" text-anchor="end" dy=".4em" transform="translate(-3,62)">
         7000
        </text>
        <text fill="black" text-anchor="end" dy=".4em" transform="translate(-3,0)">
         8000
        </text>
       </g>
       <g font-family="Arial" font-size="26" space="preserve" transform="translate(-71,0)">
        <text fill="black" text-anchor="end" dy=".4em" transform=" rotate(270)">
         Events
        </text>
       </g>
      </g>
     </g>
    </g>
    <g transform="translate(660,78)" font-family="Arial" font-size="26" space="preserve">
     <path d="M0,0h408v156h-408z" style="fill: none;"></path>
     <line x1="12" y1="23" x2="90" y2="23" style="stroke: black; stroke-width: 2;"></line>
     <line x1="51" y1="9" x2="51" y2="38" style="stroke: black; stroke-width: 2;"></line>
     <path d="M46,23a5,5,0,1,0,10,0a5,5,0,1,0,-10,0z" style="stroke: black; fill: black;"></path>
     <text fill="black" text-anchor="end" dy=".4em" transform="translate(396,23)">
      Data
     </text>
     <line x1="12" y1="60" x2="90" y2="60" style="stroke: blue; stroke-width: 2; stroke-dasharray: 3,3;"></line>
     <text fill="black" text-anchor="end" dy=".4em" transform="translate(396,60)">
      Background
     </text>
     <line x1="12" y1="96" x2="90" y2="96" style="stroke: red; stroke-width: 2;"></line>
     <text fill="black" text-anchor="end" dy=".4em" transform="translate(396,96)">
      Signal + Bkg.
     </text>
     <line x1="12" y1="133" x2="90" y2="133" style="stroke: rgb(0,0,154); stroke-width: 1;"></line>
     <text fill="black" text-anchor="end" dy=".4em" transform="translate(396,133)">
      Signal
     </text>
    </g>
    <g font-family="Arial" font-size="23" space="preserve" font-weight="bold" font-style="oblique">
     <text fill="black" text-anchor="start" transform="translate(216,83)">
      ATLAS
     </text>
    </g>
    <g font-family="Arial" font-size="23" space="preserve">
     <text fill="black" text-anchor="start" transform="translate(372,83)">
      Open Data
     </text>
    </g>
    <g font-family="Arial" font-size="19" space="preserve">
     <text fill="black" text-anchor="start" transform="translate(216,114)">
      <tspan dy="-.1em">
       <tspan>
        <tspan>
         √
        </tspan>
        <tspan>
         ‾‾
        </tspan>
        <tspan dx="-.87em">
        </tspan>
       </tspan>
       <tspan>
        s
       </tspan>
      </tspan>
      <tspan>
       = 13 TeV, 10 fb
      </tspan>
      <tspan font-size="60%" dx=".1em" dy="-.6em">
       -1
      </tspan>
     </text>
    </g>
   </g>
  </svg>
  <svg viewBox="0 0 1200 280" preserveAspectRatio="none" x="0" y="520" width="1200" height="280">
   <rect x="0" y="0" width="1200" height="280" style="fill: white;"></rect>
   <g>
    <g transform="translate(168,0)">
     <title></title>
     <rect x="0" y="0" width="972" height="196" style="fill: white; stroke: black; stroke-width: 1;"></rect>
     <svg x="0" y="0" overflow="hidden" width="972" height="196" viewBox="0 0 972 196">
      <g>
       <path d="M0,130.67c1.62,0,6.48,0,9.72,0s6.48,0,9.72,0s6.48,0,9.72,0s6.48,0,9.72,0s6.48,0,9.72,0s6.48,0,9.72,0s6.48,0,9.72,0s6.48,0,9.72,0s6.48,0,9.72,0s6.48,0,9.72,0s6.48,0,9.72,0s6.48,0,9.72,0s6.48,0,9.72,0s6.48,0,9.72,0s6.48,0,9.72,0s6.48,0,9.72,0s6.48,0,9.72,0s6.48,0,9.72,0s6.48,0,9.72,0s6.48,0,9.72,0s6.48,0,9.72,0s6.48,0,9.72,0s6.48,0,9.72,0s6.48,0,9.72,0s6.48,0,9.72,0s6.48,0,9.72,0s6.48,0,9.72,0s6.48,0,9.72,0s6.48,0,9.72,0s6.48,0,9.72,0s6.48,0,9.72,0s6.48,0,9.72,0s6.48,0,9.72,0s6.48,0,9.72,0s6.48,0,9.72,0s6.48,0,9.72,0s6.48,0,9.72,0s6.48,0,9.72,0s6.48,0,9.72,0s6.48,0,9.72,0s6.48,0,9.72,0s6.48,0,9.72,0s6.48,0,9.72,0s6.48,0,9.72,0s6.48,0,9.72,0s6.48,0,9.72,0s6.48,0,9.72,0s6.48,0,9.72,0s6.48,0,9.72,0s6.48,0,9.72,0s6.48,0,9.72,0s6.48,0,9.72,0s6.48,0,9.72,0s6.48,0,9.72,0s6.48,0,9.72,0s6.48,0,9.72,0s6.48,0,9.72,0s6.48,0,9.72,0s6.48,0,9.72,0s6.48,0,9.72,0s6.48,0,9.72,0s6.48,0,9.72,0s6.48,0,9.72,0s6.48,0,9.72,0s6.48,0,9.72,0s6.48,0,9.72,0s6.48,0,9.72,0s6.48,0,9.72,0s6.48,0,9.72,0s6.48,0,9.72,0s6.48,0,9.72,0s6.48,0,9.72,0s6.48,0,9.72,0s6.48,0,9.72,0s6.48,0,9.72,0s6.48,0,9.72,0s6.48,0,9.72,0s6.48,0,9.72,0s6.48,0,9.72,0s6.48,0,9.72,0s6.48,0,9.72,0s6.48,0,9.72,0s6.48,0,9.72,0s6.48,0,9.72,0s6.48,0,9.72,0s6.48,0,9.72,0s6.48,0,9.72,0s6.48,0,9.72,0s6.48,0,9.72,0s6.48,0,9.72,0s6.48,0,9.72,0s6.48,0,9.72,0s6.48,0,9.72,0s6.48,0,9.72,0s6.48,0,9.72,0s6.48,0,9.72,0s6.48,0,9.72,0s6.48,0,9.72,0s6.48,0,9.72,0s8.1,0,9.72,0" style="fill: none; stroke: blue; stroke-width: 2; stroke-dasharray: 3,3;"></path>
      </g>
      <g>
       <path d="M0,131h208v-1h26v-1h10v-1h6v-1h5v-1h4v-1h4v-1h3v-1h2v-1h3v-1h2v-1h2v-1h2v-1h2v-1h2v-1h1v-1h2v-1h2v-1h1v-1h2v-1h1v-1h1v-1h2v-1h1v-1h1v-1h2v-1h1v-1h1v-1h1v-1h1v-1h2v-1h1v-1h1v-1h1v-1h1v-1h1v-1h1v-1h2v-1h1v-1h1v-1h1v-1h1v-1h1v-1h1v-1h1v-1h2v-1h1v-1h1v-1h1v-1h1v-1h2v-1h1v-1h1v-1h2v-1h1v-1h2v-1h1v-1h2v-1h2v-1h2v-1h2v-1h4v-1h5v-1h5v1h5v1h3v1h3v1h2v1h2v1h2v1h1v1h2v1h1v1h2v1h1v1h1v1h1v1h2v1h1v1h1v1h1v1h1v1h2v1h1v1h1v1h1v1h1v1h1v1h1v1h1v1h2v1h1v1h1v1h1v1h1v1h1v1h1v1h2v1h1v1h1v1h1v1h2v1h1v1h1v1h1v1h2v1h1v1h2v1h1v1h2v1h1v1h2v1h2v1h2v1h2v1h2v1h2v1h3v1h2v1h3v1h4v1h4v1h4v1h7v1h10v1h26v1h473" style="stroke-linejoin: miter; stroke: red; stroke-width: 2; fill: none;"></path>
      </g>
      <g>
       <path d="M0,97h32M16,58v77M32,154h34M49,117v73M65,108h32M81,72v72M97,177h34M114,143v68M130,119h32M146,85v68M162,120h32M178,88v65M194,141h34M211,110v63M227,133h32M243,102v61M259,131h34M276,102v59M292,87h32M308,58v58M324,51h32M340,23v57M356,93h34M373,66v54M389,85h32M405,59v53M421,131h34M438,106v51M454,141h32M470,116v49M486,127h32M502,103v49M518,103h34M535,79v48M551,150h32M567,127v45M583,162h34M600,140v44M616,103h32M632,81v44M648,100h32M664,78v44M680,109h34M697,88v42M713,132h32M729,112v40M745,145h34M762,125v40M778,170h32M794,151v37M810,117h32M826,98v38M842,132h34M859,114v36M875,129h32M891,111v36M907,133h34M924,116v34M940,123h32M956,121v4" style="stroke: black; stroke-width: 2;"></path>
       <path d="M11,97a5,5,0,1,0,10,0a5,5,0,1,0,-10,0zM44,154a5,5,0,1,0,10,0a5,5,0,1,0,-10,0zM76,108a5,5,0,1,0,10,0a5,5,0,1,0,-10,0zM109,177a5,5,0,1,0,10,0a5,5,0,1,0,-10,0zM141,119a5,5,0,1,0,10,0a5,5,0,1,0,-10,0zM173,120a5,5,0,1,0,10,0a5,5,0,1,0,-10,0zM206,141a5,5,0,1,0,10,0a5,5,0,1,0,-10,0zM238,133a5,5,0,1,0,10,0a5,5,0,1,0,-10,0zM271,131a5,5,0,1,0,10,0a5,5,0,1,0,-10,0zM303,87a5,5,0,1,0,10,0a5,5,0,1,0,-10,0zM335,51a5,5,0,1,0,10,0a5,5,0,1,0,-10,0zM368,93a5,5,0,1,0,10,0a5,5,0,1,0,-10,0zM400,85a5,5,0,1,0,10,0a5,5,0,1,0,-10,0zM433,131a5,5,0,1,0,10,0a5,5,0,1,0,-10,0zM465,141a5,5,0,1,0,10,0a5,5,0,1,0,-10,0zM497,127a5,5,0,1,0,10,0a5,5,0,1,0,-10,0zM530,103a5,5,0,1,0,10,0a5,5,0,1,0,-10,0zM562,150a5,5,0,1,0,10,0a5,5,0,1,0,-10,0zM595,162a5,5,0,1,0,10,0a5,5,0,1,0,-10,0zM627,103a5,5,0,1,0,10,0a5,5,0,1,0,-10,0zM659,100a5,5,0,1,0,10,0a5,5,0,1,0,-10,0zM692,109a5,5,0,1,0,10,0a5,5,0,1,0,-10,0zM724,132a5,5,0,1,0,10,0a5,5,0,1,0,-10,0zM757,145a5,5,0,1,0,10,0a5,5,0,1,0,-10,0zM789,170a5,5,0,1,0,10,0a5,5,0,1,0,-10,0zM821,117a5,5,0,1,0,10,0a5,5,0,1,0,-10,0zM854,132a5,5,0,1,0,10,0a5,5,0,1,0,-10,0zM886,129a5,5,0,1,0,10,0a5,5,0,1,0,-10,0zM919,133a5,5,0,1,0,10,0a5,5,0,1,0,-10,0zM951,123a5,5,0,1,0,10,0a5,5,0,1,0,-10,0z" style="stroke: black; fill: black;"></path>
      </g>
      <g>
       <path d="M0,-2746.15c0.05,0.27,9.62,55.58,9.72,56.13s9.62,54.48,9.72,55.04s9.62,53.39,9.72,53.96s9.61,52.32,9.72,52.9s9.61,51.26,9.72,51.85s9.6,50.21,9.72,50.81s9.6,49.17,9.72,49.79s9.59,48.15,9.72,48.78s9.59,47.15,9.72,47.78s9.58,46.15,9.72,46.8s9.58,45.17,9.72,45.83s9.57,44.2,9.72,44.88s9.57,43.24,9.72,43.93s9.56,42.3,9.72,43.01s9.55,41.37,9.72,42.09s9.55,40.46,9.72,41.19s9.54,39.55,9.72,40.3s9.53,38.66,9.72,39.42s9.52,37.77,9.72,38.55s9.51,36.89,9.72,37.68s9.5,36,9.72,36.81s9.49,35.08,9.72,35.91s9.48,34.11,9.72,34.96s9.47,33.04,9.72,33.91s9.45,31.82,9.72,32.72s9.42,30.38,9.72,31.32s9.39,28.68,9.72,29.66s9.34,26.7,9.72,27.74s9.28,24.52,9.72,25.63s9.21,22.29,9.72,23.47s9.14,20.26,9.72,21.5s9.09,18.75,9.72,20.03s9.08,18.07,9.72,19.36s9.12,18.42,9.72,19.68s9.19,19.82,9.72,21.02s9.28,22.07,9.72,23.18s9.35,24.74,9.72,25.77s9.4,27.35,9.72,28.32s9.43,29.4,9.72,30.33s9.44,30.56,9.72,31.47s9.43,30.68,9.72,31.6s9.41,29.86,9.72,30.81s9.38,28.33,9.72,29.33s9.34,26.41,9.72,27.46s9.28,24.38,9.72,25.49s9.22,22.48,9.72,23.65s9.17,20.84,9.72,22.06s9.11,19.5,9.72,20.76s9.07,18.43,9.72,19.73s9.02,17.59,9.72,18.92s8.99,16.92,9.72,18.27s8.96,16.35,9.72,17.73s8.92,15.86,9.72,17.26s8.9,15.42,9.72,16.83s8.87,15.01,9.72,16.44s8.84,14.62,9.72,16.06s8.81,14.25,9.72,15.71s8.78,13.9,9.72,15.37s8.75,13.56,9.72,15.04s8.72,13.23,9.72,14.72s8.69,12.92,9.72,14.42s8.67,12.62,9.72,14.14s8.64,12.34,9.72,13.86s8.61,12.07,9.72,13.6s8.59,11.81,9.72,13.36s8.56,11.57,9.72,13.12s8.53,11.34,9.72,12.9s8.51,11.13,9.72,12.69s8.49,10.93,9.72,12.5s8.47,10.74,9.72,12.32s8.45,10.57,9.72,12.15s8.43,10.41,9.72,12s8.41,10.27,9.72,11.86s8.39,10.14,9.72,11.73s8.38,10.02,9.72,11.62s8.37,9.92,9.72,11.52s8.36,9.83,9.72,11.43s8.35,9.76,9.72,11.36s8.34,9.7,9.72,11.3s8.33,9.65,9.72,11.25s8.33,9.62,9.72,11.22s8.33,9.6,9.72,11.2s8.33,9.59,9.72,11.19s8.33,9.6,9.72,11.2s8.33,9.62,9.72,11.22s8.34,9.65,9.72,11.26s8.35,9.7,9.72,11.3s8.36,9.76,9.72,11.36s8.37,9.84,9.72,11.44s8.38,9.93,9.72,11.52s8.39,10.03,9.72,11.62s8.41,10.15,9.72,11.74s8.43,10.28,9.72,11.87s8.45,10.42,9.72,12.01s8.47,10.58,9.72,12.16s8.49,10.76,9.72,12.33s8.51,10.94,9.72,12.51s8.54,11.14,9.72,12.7s8.56,11.36,9.72,12.91s9.15,12.36,9.72,13.13" style="fill: none; stroke: red; stroke-width: 2;"></path>
      </g>
     </svg>
     <g>
      <g transform="translate(0,196)">
       <line x1="0" y1="0" x2="972" y2="0" style="stroke: black; stroke-width: 1;"></line>
       <path d="M18,-4v4m35,-4v4m35,-8v8m36,-4v4m35,-4v4m35,-4v4m36,-4v4m35,-8v8m35,-4v4m36,-4v4m35,-4v4m35,-4v4m36,-8v8m35,-4v4m36,-4v4m35,-4v4m35,-4v4m36,-8v8m35,-4v4m35,-4v4m36,-4v4m35,-4v4m35,-8v8m36,-4v4m35,-4v4m35,-4v4m36,-4v4m35,-8v8" style="stroke: black; stroke-width: 1;"></path>
       <g font-family="Arial" font-size="10" space="preserve">
        <text fill="black" text-anchor="middle" dy=".8em" transform="translate(88,3)">
         110
        </text>
        <text fill="black" text-anchor="middle" dy=".8em" transform="translate(265,3)">
         120
        </text>
        <text fill="black" text-anchor="middle" dy=".8em" transform="translate(442,3)">
         130
        </text>
        <text fill="black" text-anchor="middle" dy=".8em" transform="translate(619,3)">
         140
        </text>
        <text fill="black" text-anchor="middle" dy=".8em" transform="translate(795,3)">
         150
        </text>
        <text fill="black" text-anchor="middle" dy=".8em" transform="translate(972,3)">
         160
        </text>
       </g>
      </g>
      <g>
       <line x1="0" y1="0" x2="0" y2="196" style="stroke: black; stroke-width: 1;"></line>
       <path d="M18,193h-18m18,-5h-18m36,-5h-36m18,-5h-18m18,-6h-18m18,-5h-18m18,-5h-18m36,-5h-36m18,-5h-18m18,-6h-18m18,-5h-18m18,-5h-18m36,-5h-36m18,-6h-18m18,-5h-18m18,-5h-18m18,-5h-18m36,-5h-36m18,-6h-18m18,-5h-18m18,-5h-18m18,-5h-18m36,-6h-36m18,-5h-18m18,-5h-18m18,-5h-18m18,-6h-18m36,-5h-36m18,-5h-18m18,-5h-18m18,-5h-18m18,-6h-18m36,-5h-36m18,-5h-18m18,-5h-18m18,-6h-18m18,-5h-18m36,-5h-36" style="stroke: black; stroke-width: 1;"></path>
       <g font-family="Arial" font-size="10" space="preserve">
        <text fill="black" text-anchor="end" dy=".4em" transform="translate(-1,183)">
         -100
        </text>
        <text fill="black" text-anchor="end" dy=".4em" transform="translate(-1,157)">
         -50
        </text>
        <text fill="black" text-anchor="end" dy=".4em" transform="translate(-1,131)">
         0
        </text>
        <text fill="black" text-anchor="end" dy=".4em" transform="translate(-1,105)">
         50
        </text>
        <text fill="black" text-anchor="end" dy=".4em" transform="translate(-1,78)">
         100
        </text>
        <text fill="black" text-anchor="end" dy=".4em" transform="translate(-1,52)">
         150
        </text>
        <text fill="black" text-anchor="end" dy=".4em" transform="translate(-1,26)">
         200
        </text>
        <text fill="black" text-anchor="end" dy=".4em" transform="translate(-1,0)">
         250
        </text>
       </g>
      </g>
     </g>
    </g>
    <g transform="translate(114,1)" font-family="Arial" font-size="14" space="preserve">
     <path d="M0,0h972v17h-972z" style="fill: none;"></path>
     <text fill="black" text-anchor="middle" dy=".8em" transform="translate(486,0)">
      0
     </text>
    </g>
   </g>
  </svg>
 </g>
</svg>