<svg xmlns="http://www.w3.org/2000/svg" viewBox="0 0 698 725" preserveAspectRatio="none" width="698" height="725">
 <path d="M0,0H698V725H0Z" style="fill: white;"></path>
 <g>
  <svg viewBox="0 0 698 471" preserveAspectRatio="none" x="0" y="0" width="698" height="471">
   <path d="M0,0H698V471H0Z" style="fill: white;"></path>
   <g>
    <g transform="translate(98,24)">
     <path d="M0,0H565V447H0Z" style="fill: white; stroke: black; stroke-width: 1;"></path>
     <svg x="0" y="0" overflow="hidden" width="565" height="447" viewBox="0 0 565 447">
      <g>
       <path d="M0,146h20M10,142v8M19,171h20M29,167v8M38,184h20M48,180v7M57,207h18M66,204v7M75,217h20M85,213v7M94,231h20M104,228v7M113,247h20M123,243v7M132,258h20M142,255v6M151,269h20M161,266v6M170,275h18M179,272v6M188,281h20M198,278v6M207,294h20M217,292v5M226,302h20M236,299v6M245,315h20M255,312v5M264,323h20M274,320v5M283,328h18M292,325v5M301,331h20M311,329v5M320,342h20M330,339v5M339,348h20M349,346v5M358,347h20M368,344v5M377,351h20M387,349v4M396,356h18M405,354v5M414,363h20M424,361v4M433,368h20M443,366v4M452,375h20M462,373v4M471,373h20M481,371v4M490,379h20M500,377v4M509,383h18M518,381v4M527,388h20M537,386v3M546,391h20M556,389v4" style="stroke: black; stroke-width: 2;"></path>
       <path d="M5,146a5,5,0,1,0,10,0a5,5,0,1,0,-10,0zM24,171a5,5,0,1,0,10,0a5,5,0,1,0,-10,0zM43,184a5,5,0,1,0,10,0a5,5,0,1,0,-10,0zM61,207a5,5,0,1,0,10,0a5,5,0,1,0,-10,0zM80,217a5,5,0,1,0,10,0a5,5,0,1,0,-10,0zM99,231a5,5,0,1,0,10,0a5,5,0,1,0,-10,0zM118,247a5,5,0,1,0,10,0a5,5,0,1,0,-10,0zM137,258a5,5,0,1,0,10,0a5,5,0,1,0,-10,0zM156,269a5,5,0,1,0,10,0a5,5,0,1,0,-10,0zM174,275a5,5,0,1,0,10,0a5,5,0,1,0,-10,0zM193,281a5,5,0,1,0,10,0a5,5,0,1,0,-10,0zM212,294a5,5,0,1,0,10,0a5,5,0,1,0,-10,0zM231,302a5,5,0,1,0,10,0a5,5,0,1,0,-10,0zM250,315a5,5,0,1,0,10,0a5,5,0,1,0,-10,0zM269,323a5,5,0,1,0,10,0a5,5,0,1,0,-10,0zM287,328a5,5,0,1,0,10,0a5,5,0,1,0,-10,0zM306,331a5,5,0,1,0,10,0a5,5,0,1,0,-10,0zM325,342a5,5,0,1,0,10,0a5,5,0,1,0,-10,0zM344,348a5,5,0,1,0,10,0a5,5,0,1,0,-10,0zM363,347a5,5,0,1,0,10,0a5,5,0,1,0,-10,0zM382,351a5,5,0,1,0,10,0a5,5,0,1,0,-10,0zM400,356a5,5,0,1,0,10,0a5,5,0,1,0,-10,0zM419,363a5,5,0,1,0,10,0a5,5,0,1,0,-10,0zM438,368a5,5,0,1,0,10,0a5,5,0,1,0,-10,0zM457,375a5,5,0,1,0,10,0a5,5,0,1,0,-10,0zM476,373a5,5,0,1,0,10,0a5,5,0,1,0,-10,0zM495,379a5,5,0,1,0,10,0a5,5,0,1,0,-10,0zM513,383a5,5,0,1,0,10,0a5,5,0,1,0,-10,0zM532,388a5,5,0,1,0,10,0a5,5,0,1,0,-10,0zM551,391a5,5,0,1,0,10,0a5,5,0,1,0,-10,0z" style="stroke: black; fill: black;"></path>
      </g>
      <g>
       <path d="M3,142.47C4.09,143.67,6.3,146.06,8.5,148.41S11.7,151.93,14,154.24S17.7,157.69,20,159.95S23.3,163.33,25.5,165.55S28.7,168.86,31,171.04S34.7,174.29,37,176.41S40.3,179.6,42.5,181.68S45.7,184.8,48,186.84S51.7,189.9,54,191.9S57.3,194.89,59.5,196.85S62.8,199.78,65,201.7S68.3,204.57,70.5,206.45S73.7,209.26,76,211.09S79.7,213.84,82,215.64S85.3,218.33,87.5,220.09S90.7,222.73,93,224.45S96.7,227.02,99,228.71S102.3,231.23,104.5,232.88S107.7,235.34,110,236.95S113.7,239.36,116,240.93S119.3,243.29,121.5,244.82S124.7,247.12,127,248.61S130.7,250.84,133,252.29S136.3,254.46,138.5,255.86S141.7,257.95,144,259.28S147.7,261.28,150,262.55S153.3,264.43,155.5,265.62S158.7,267.38,161,268.47S164.7,270.09,167,271.1S170.3,272.57,172.5,273.49S175.8,274.85,178,275.71S181.3,276.97,183.5,277.8S186.7,279.02,189,279.87S192.7,281.13,195,282.03S198.3,283.39,200.5,284.39S203.7,285.9,206,287S209.7,288.69,212,289.9S215.3,291.75,217.5,293.04S220.7,295.02,223,296.36S226.7,298.4,229,299.74S232.3,301.78,234.5,303.09S237.7,305.06,240,306.31S243.7,308.18,246,309.35S249.3,311.09,251.5,312.18S254.7,313.79,257,314.8S260.7,316.3,263,317.24S266.3,318.64,268.5,319.53S271.7,320.84,274,321.69S277.7,322.94,280,323.75S283.3,324.96,285.5,325.74S288.8,326.9,291,327.66S294.3,328.79,296.5,329.53S299.7,330.63,302,331.35S305.7,332.43,308,333.13S311.3,334.18,313.5,334.87S316.7,335.89,319,336.57S322.7,337.57,325,338.23S328.3,339.21,330.5,339.85S333.7,340.81,336,341.44S339.7,342.38,342,343S345.3,343.92,347.5,344.53S350.7,345.43,353,346.02S356.7,346.91,359,347.49S362.3,348.36,364.5,348.93S367.7,349.79,370,350.35S373.7,351.19,376,351.74S379.3,352.56,381.5,353.11S384.7,353.92,387,354.45S390.7,355.25,393,355.78S396.3,356.57,398.5,357.09S401.8,357.87,404,358.38S407.3,359.15,409.5,359.65S412.7,360.41,415,360.91S418.7,361.67,421,362.16S424.3,362.91,426.5,363.4S429.7,364.14,432,364.63S435.7,365.36,438,365.84S441.3,366.57,443.5,367.06S446.7,367.78,449,368.26S452.7,368.98,455,369.46S458.3,370.18,460.5,370.66S463.7,371.38,466,371.86S469.7,372.57,472,373.05S475.3,373.77,477.5,374.25S480.7,374.97,483,375.45S486.7,376.18,489,376.66S492.3,377.38,494.5,377.87S497.7,378.6,500,379.09S503.7,379.82,506,380.32S509.3,381.06,511.5,381.55S514.8,382.3,517,382.8S520.3,383.56,522.5,384.06S525.7,384.83,528,385.34S531.7,386.11,534,386.63S537.3,387.41,539.5,387.94S542.7,388.73,545,389.27S548.7,390.07,551,390.61S554.3,391.43,556.5,391.98S560.9,393.1,562,393.38" style="fill: none; stroke: red; stroke-width: 2;"></path>
      </g>
      <g>
       <path d="M3,142.47C4.09,143.67,6.3,146.06,8.5,148.41S11.7,151.93,14,154.24S17.7,157.69,20,159.95S23.3,163.33,25.5,165.55S28.7,168.86,31,171.04S34.7,174.29,37,176.41S40.3,179.6,42.5,181.68S45.7,184.8,48,186.84S51.7,189.9,54,191.9S57.3,194.89,59.5,196.85S62.8,199.78,65,201.7S68.3,204.57,70.5,206.45S73.7,209.26,76,211.09S79.7,213.84,82,215.64S85.3,218.33,87.5,220.09S90.7,222.73,93,224.45S96.7,227.02,99,228.71S102.3,231.23,104.5,232.88S107.7,235.34,110,236.96S113.7,239.36,116,240.94S119.3,243.3,121.5,244.84S124.7,247.14,127,248.65S130.7,250.9,133,252.38S136.3,254.58,138.5,256.02S141.7,258.17,144,259.58S147.7,261.68,150,263.05S153.3,265.11,155.5,266.45S158.7,268.45,161,269.77S164.7,271.73,167,273.01S170.3,274.92,172.5,276.17S175.8,278.04,178,279.26S181.3,281.09,183.5,282.28S186.7,284.06,189,285.23S192.7,286.97,195,288.1S198.3,289.8,200.5,290.91S203.7,292.57,206,293.65S209.7,295.27,212,296.33S215.3,297.91,217.5,298.94S220.7,300.48,223,301.49S226.7,302.99,229,303.97S232.3,305.44,234.5,306.4S237.7,307.83,240,308.77S243.7,310.16,246,311.08S249.3,312.44,251.5,313.33S254.7,314.66,257,315.53S260.7,316.83,263,317.68S266.3,318.95,268.5,319.78S271.7,321.01,274,321.82S277.7,323.03,280,323.82S283.3,325,285.5,325.77S288.8,326.92,291,327.68S294.3,328.8,296.5,329.54S299.7,330.64,302,331.36S305.7,332.43,308,333.13S311.3,334.18,313.5,334.87S316.7,335.89,319,336.57S322.7,337.57,325,338.23S328.3,339.21,330.5,339.85S333.7,340.81,336,341.44S339.7,342.38,342,343S345.3,343.92,347.5,344.53S350.7,345.43,353,346.02S356.7,346.91,359,347.49S362.3,348.36,364.5,348.93S367.7,349.79,370,350.35S373.7,351.19,376,351.74S379.3,352.56,381.5,353.11S384.7,353.92,387,354.45S390.7,355.25,393,355.78S396.3,356.57,398.5,357.09S401.8,357.87,404,358.38S407.3,359.15,409.5,359.65S412.7,360.41,415,360.91S418.7,361.67,421,362.16S424.3,362.91,426.5,363.4S429.7,364.14,432,364.63S435.7,365.36,438,365.84S441.3,366.57,443.5,367.06S446.7,367.78,449,368.26S452.7,368.98,455,369.46S458.3,370.18,460.5,370.66S463.7,371.38,466,371.86S469.7,372.57,472,373.05S475.3,373.77,477.5,374.25S480.7,374.97,483,375.45S486.7,376.18,489,376.66S492.3,377.38,494.5,377.87S497.7,378.6,500,379.09S503.7,379.82,506,380.32S509.3,381.06,511.5,381.55S514.8,382.3,517,382.8S520.3,383.56,522.5,384.06S525.7,384.83,528,385.34S531.7,386.11,534,386.63S537.3,387.41,539.5,387.94S542.7,388.73,545,389.27S548.7,390.07,551,390.61S554.3,391.43,556.5,391.98S560.9,393.1,562,393.38" style="fill: none; stroke: blue; stroke-width: 2; stroke-dasharray: 3,3;"></path>
      </g>
      <g>
       <path d="M0,447h151v-1h19v-2h18v-3h38v3h19v2h19v1h301" style="stroke-linejoin: miter; stroke: #00009a; stroke-width: 1; fill: none;"></path>
      </g>
     </svg>
     <g>
      <g transform="translate(0,447)">
       <path d="M0,0h565M10,-7V0M31,-7V0M51,-14V0M72,-7V0M92,-7V0M113,-7V0M134,-7V0M154,-14V0M175,-7V0M195,-7V0M216,-7V0M236,-7V0M257,-14V0M277,-7V0M298,-7V0M318,-7V0M339,-7V0M360,-14V0M380,-7V0M401,-7V0M421,-7V0M442,-7V0M462,-14V0M483,-7V0M503,-7V0M524,-7V0M544,-7V0M565,-14V0" style="stroke: black; stroke-width: 1;"></path>
       <g font-family="Arial" font-size="16" space="preserve" fill="black" text-anchor="middle">
        <text dy=".8em" transform="translate(51)">
         110
        </text>
        <text dy=".8em" transform="translate(154)">
         120
        </text>
        <text dy=".8em" transform="translate(257)">
         130
        </text>
        <text dy=".8em" transform="translate(360)">
         140
        </text>
        <text dy=".8em" transform="translate(462)">
         150
        </text>
        <text dy=".8em" transform="translate(565)">
         160
        </text>
       </g>
       <g font-family="Arial" font-size="16" space="preserve" transform="translate(565,26)">
        <g transform="translate(-76,5)">
         <text fill="black" font-size="16" x="6">
          m
         </text>
         <text fill="black" font-size="10" transform="translate(20,3)">
          γγ
         </text>
         <text fill="black" font-size="16" x="35">
          [GeV]
         </text>
        </g>
       </g>
      </g>
      <g>
       <path d="M0,0v447M11,436H0M11,425H0M11,413H0M11,402H0M21,391H0M11,380H0M11,369H0M11,358H0M11,346H0M21,335H0M11,324H0M11,313H0M11,302H0M11,291H0M21,279H0M11,268H0M11,257H0M11,246H0M11,235H0M21,224H0M11,212H0M11,201H0M11,190H0M11,179H0M21,168H0M11,156H0M11,145H0M11,134H0M11,123H0M21,112H0M11,101H0M11,89H0M11,78H0M11,67H0M21,56H0M11,45H0M11,34H0M11,22H0M11,11H0M21,0H0" style="stroke: black; stroke-width: 1;"></path>
       <g font-family="Arial" font-size="21" space="preserve" fill="black" text-anchor="end">
        <text dy=".4em" transform="translate(-2,391)">
         1000
        </text>
        <text dy=".4em" transform="translate(-2,335)">
         2000
        </text>
        <text dy=".4em" transform="translate(-2,279)">
         3000
        </text>
        <text dy=".4em" transform="translate(-2,224)">
         4000
        </text>
        <text dy=".4em" transform="translate(-2,168)">
         5000
        </text>
        <text dy=".4em" transform="translate(-2,112)">
         6000
        </text>
        <text dy=".4em" transform="translate(-2,56)">
         7000
        </text>
        <text dy=".4em" transform="translate(-2)">
         8000
        </text>
       </g>
       <g font-family="Arial" font-size="24" space="preserve" transform="translate(-73)">
        <text fill="black" text-anchor="end" dy=".4em" transform="rotate(270)">
         Events
        </text>
       </g>
      </g>
     </g>
    </g>
    <g transform="translate(384,71)" font-family="Arial" font-size="21" space="preserve">
     <path d="M7,21H52" style="stroke: black; stroke-width: 2;"></path>
     <path d="M30,7V34" style="stroke: black; stroke-width: 2;"></path>
     <path d="M25,21a5,5,0,1,0,10,0a5,5,0,1,0,-10,0z" style="stroke: black; fill: black;"></path>
     <text fill="black" text-anchor="end" dy=".4em" transform="translate(230,21)">
      Data
     </text>
     <path d="M7,54H52" style="stroke: blue; stroke-width: 2; stroke-dasharray: 3,3;"></path>
     <text fill="black" text-anchor="end" dy=".4em" transform="translate(230,54)">
      Background
     </text>
     <path d="M7,87H52" style="stroke: red; stroke-width: 2;"></path>
     <text fill="black" text-anchor="end" dy=".4em" transform="translate(230,88)">
      Signal + Bkg.
     </text>
     <path d="M7,120H52" style="stroke: #00009a; stroke-width: 1;"></path>
     <text fill="black" text-anchor="end" dy=".4em" transform="translate(230,121)">
      Signal
     </text>
    </g>
    <g font-family="Arial" font-size="21" space="preserve" font-weight="bold" font-style="oblique">
     <text fill="black" text-anchor="start" transform="translate(126,75)">
      ATLAS
     </text>
    </g>
    <g font-family="Arial" font-size="21" space="preserve">
     <text fill="black" text-anchor="start" transform="translate(216,75)">
      Open Data
     </text>
    </g>
    <g font-family="Arial" font-size="17" space="preserve">
     <g transform="translate(126,104)">
      <g>
       <path style="stroke: black; stroke-width: 1; fill: none;" d="M0,-6h2l2,7l2,-17h12v2"></path>
       <text fill="black" font-size="17" transform="translate(8)">
        s
       </text>
      </g>
      <text fill="black" font-size="17" x="27">
       = 13 TeV, 10 fb
      </text>
      <text fill="black" font-size="10" transform="translate(141,-9)">
       -1
      </text>
     </g>
    </g>
   </g>
  </svg>
  <svg viewBox="0 0 698 254" preserveAspectRatio="none" x="0" y="471" width="698" height="254">
   <path d="M0,0H698V254H0Z" style="fill: white;"></path>
   <g>
    <g transform="translate(98)">
     <path d="M0,0H565V178H0Z" style="fill: white; stroke: black; stroke-width: 1;"></path>
     <svg x="0" y="0" overflow="hidden" width="565" height="178" viewBox="0 0 565 178">
      <g>
       <path d="M0,119h122v-1h15v-1h6v-1h3v-1h3v-1h3v-1h2v-1h2v-1h1v-1h2v-1h1v-1h1v-1h1v-1h2v-1h1v-1h1v-1h1v-1h1v-1v-1h1v-1h1v-1h1v-1h1v-1h1v-2h1v-1h1v-1h1v-2h1v-1h1v-1h1v-2h1v-1h1v-1h1v-1v-1h1v-1h1v-2h1v-1h1v-1h1v-2h1v-1h1v-1h1v-1h1v-1h1v-1h1v-1v-1h1v-1h2v-1h1v-1h1v-1h2v-1h3v-1h5v1h3v1h2v1h1v1h1v1h1v1h1v1h1v1h1v1h1v1h1v1h1v1h1v1h1v1v1h1v1h1v1h1v1v1h1v1h1v2h1v1h1v1h1v1v1h1v1h1v2h1v1h1v1h1v1h1v1v1h1v1h1v1h1v1h1v2h1v1h1v1h1v1h1v1h1v1h1v1h2v1h1v1h1v1h2v1h1v1h2v1h2v1h3v1h2v1h4v1h6v1h15v1h276" style="stroke-linejoin: miter; stroke: red; stroke-width: 2; fill: none;"></path>
      </g>
      <g>
       <path d="M0,88h20M10,53v70M19,139h20M29,106v67M38,98h20M48,65v66M57,161h18M66,130v62M75,108h20M85,78v61M94,109h20M104,80v59M113,128h20M123,100v57M132,121h20M142,93v55M151,119h20M161,92v54M170,79h18M179,53v53M188,47h20M198,21v52M207,84h20M217,59v50M226,77h20M236,53v49M245,119h20M255,96v46M264,128h20M274,105v45M283,116h18M292,94v44M301,94h20M311,72v43M320,136h20M330,115v42M339,147h20M349,127v40M358,94h20M368,74v40M377,91h20M387,71v39M396,99h18M405,80v38M414,120h20M424,101v37M433,132h20M443,114v35M452,154h20M462,137v34M471,106h20M481,89v35M490,120h20M500,104v33M509,117h18M518,101v32M527,121h20M537,105v31M546,112h20M556,110v4" style="stroke: black; stroke-width: 2;"></path>
       <path d="M5,88a5,5,0,1,0,10,0a5,5,0,1,0,-10,0zM24,139a5,5,0,1,0,10,0a5,5,0,1,0,-10,0zM43,98a5,5,0,1,0,10,0a5,5,0,1,0,-10,0zM61,161a5,5,0,1,0,10,0a5,5,0,1,0,-10,0zM80,108a5,5,0,1,0,10,0a5,5,0,1,0,-10,0zM99,109a5,5,0,1,0,10,0a5,5,0,1,0,-10,0zM118,128a5,5,0,1,0,10,0a5,5,0,1,0,-10,0zM137,121a5,5,0,1,0,10,0a5,5,0,1,0,-10,0zM156,119a5,5,0,1,0,10,0a5,5,0,1,0,-10,0zM174,79a5,5,0,1,0,10,0a5,5,0,1,0,-10,0zM193,47a5,5,0,1,0,10,0a5,5,0,1,0,-10,0zM212,84a5,5,0,1,0,10,0a5,5,0,1,0,-10,0zM231,77a5,5,0,1,0,10,0a5,5,0,1,0,-10,0zM250,119a5,5,0,1,0,10,0a5,5,0,1,0,-10,0zM269,128a5,5,0,1,0,10,0a5,5,0,1,0,-10,0zM287,116a5,5,0,1,0,10,0a5,5,0,1,0,-10,0zM306,94a5,5,0,1,0,10,0a5,5,0,1,0,-10,0zM325,136a5,5,0,1,0,10,0a5,5,0,1,0,-10,0zM344,147a5,5,0,1,0,10,0a5,5,0,1,0,-10,0zM363,94a5,5,0,1,0,10,0a5,5,0,1,0,-10,0zM382,91a5,5,0,1,0,10,0a5,5,0,1,0,-10,0zM400,99a5,5,0,1,0,10,0a5,5,0,1,0,-10,0zM419,120a5,5,0,1,0,10,0a5,5,0,1,0,-10,0zM438,132a5,5,0,1,0,10,0a5,5,0,1,0,-10,0zM457,154a5,5,0,1,0,10,0a5,5,0,1,0,-10,0zM476,106a5,5,0,1,0,10,0a5,5,0,1,0,-10,0zM495,120a5,5,0,1,0,10,0a5,5,0,1,0,-10,0zM513,117a5,5,0,1,0,10,0a5,5,0,1,0,-10,0zM532,121a5,5,0,1,0,10,0a5,5,0,1,0,-10,0zM551,112a5,5,0,1,0,10,0a5,5,0,1,0,-10,0z" style="stroke: black; fill: black;"></path>
      </g>
     </svg>
     <g>
      <g transform="translate(0,178)">
       <path d="M0,0h565M10,-4V0M31,-4V0M51,-8V0M72,-4V0M92,-4V0M113,-4V0M134,-4V0M154,-8V0M175,-4V0M195,-4V0M216,-4V0M236,-4V0M257,-8V0M277,-4V0M298,-4V0M318,-4V0M339,-4V0M360,-8V0M380,-4V0M401,-4V0M421,-4V0M442,-4V0M462,-8V0M483,-4V0M503,-4V0M524,-4V0M544,-4V0M565,-8V0" style="stroke: black; stroke-width: 1;"></path>
       <g font-family="Arial" font-size="20" space="preserve" fill="black" text-anchor="middle">
        <text dy=".8em" transform="translate(51,-1)">
         110
        </text>
        <text dy=".8em" transform="translate(154,-1)">
         120
        </text>
        <text dy=".8em" transform="translate(257,-1)">
         130
        </text>
        <text dy=".8em" transform="translate(360,-1)">
         140
        </text>
        <text dy=".8em" transform="translate(462,-1)">
         150
        </text>
        <text dy=".8em" transform="translate(565,-1)">
         160
        </text>
       </g>
       <g font-family="Arial" font-size="30" space="preserve" transform="translate(565,48)">
        <g transform="translate(-132,9)">
         <text fill="black" font-size="30">
          m
         </text>
         <text fill="black" font-size="18" transform="translate(26,6)">
          γγ
         </text>
         <text fill="black" font-size="30" x="56">
          [GeV]
         </text>
        </g>
       </g>
      </g>
      <g>
       <path d="M0,0v178M21,166H0M21,119H0M21,71H0M21,24H0" style="stroke: black; stroke-width: 1;"></path>
       <g font-family="Arial" font-size="20" space="preserve" fill="black" text-anchor="end">
        <text dy=".4em" transform="translate(-1,166)">
         -100
        </text>
        <text dy=".4em" transform="translate(-1,119)">
         0
        </text>
        <text dy=".4em" transform="translate(-1,71)">
         100
        </text>
       </g>
       <g font-family="Arial" font-size="23" space="preserve" transform="translate(-71,89)">
        <text fill="black" text-anchor="middle" dy=".4em" transform="rotate(270)">
         Data - Bkg.
        </text>
       </g>
      </g>
     </g>
    </g>
   </g>
  </svg>
 </g>
</svg>