<svg xmlns="http://www.w3.org/2000/svg" viewBox="0 0 1200 800" preserveAspectRatio="none" width="1200" height="800">
 <path d="M0,0H1200V800H0Z" style="fill: white;"></path>
 <g>
  <g transform="translate(120,80)">
   <path d="M0,0H960V640H0Z" style="fill: white; stroke: black; stroke-width: 1;"></path>
   <svg x="0" y="0" overflow="hidden" width="960" height="640" viewBox="0 0 960 640">
    <g>
     <path d="M695,85h1M528,45h1M195,369h1M504,574h1M331,93h1M93,352h1M182,160h1M841,274h1M803,399h1m-33,65h1M107,318h1M629,101h1M802,231h1M423,564h1m-27,-4h1m-55,37h1M784,106h1m84,65h1m-54,22h1M540,44h1M199,184h1M660,100h1m-313,2h1M454,624h1M145,263h1M318,541h1M107,286h1M251,76h1M79,207h1M537,537h1M845,350h1M748,102h1M664,544h1M257,106h1M214,473h1M119,318h1M714,120h1M350,104h1M209,153h1m2,396h1M355,516h1M792,117h1M657,570h1M638,94h1M324,561h1M851,376h1M750,126h1M149,535h1M97,220h1M869,328h1M467,81h1M151,433h1M135,238h1M778,129h1m67,148h1M391,45h1M511,77h1M727,556h1M804,199h1M547,571h1M893,353h1M291,129h1m36,417h1M777,177h1M445,576h1M839,380h1M816,320h1m60,-6h1M202,467h1m-10,19h1M71,315h1m61,-52h1m14,179h1M839,391h1M416,98h1M359,68h1M827,410h1M488,583h1M180,190h1M393,93h1m105,3h1M212,139h1M599,538h1M653,101h1M310,565h1M182,174h1M405,39h1M104,321h1M328,540h1M856,352h1M127,408h1M840,389h1M527,561h1M262,546h1M151,438h1M692,88h1m108,56h1m32,242h1M851,202h1M208,431h1M114,262h1M805,213h1M198,160h1M125,314h1M771,454h1M121,233h1M86,212h1M741,128h1m94,287h1m5,-216h1M115,343h1M731,140h1m-5,-4h1M445,73h1M292,547h1M837,291h1M110,443h1m63,15h1m639,61h1M167,470h1M819,303h1M442,70h1M861,320h1M99,296h1m99,206h1M856,227h1M208,141h1M537,548h1M259,103h1M553,39h1M109,370h1M858,254h1M672,545h1M849,325h1M720,549h1M384,547h1M861,285h1M625,550h1M93,290h1M549,554h1M127,202h1M849,408h1M392,553h1M856,246h1M408,586h1M110,205h1m-3,63h1M420,97h1M616,576h1M889,320h1M484,49h1M170,245h1m-65,69h1M646,516h1M758,473h1M86,413h1M634,555h1M816,239h1M766,460h1M829,215h1M64,333h1M593,549h1M345,90h1M476,85h1M300,542h1M698,124h1M283,543h1m343,22h1M863,202h1M500,586h1M732,545h1M326,556h1M832,419h1M119,258h1m4,182h1M517,547h1M559,65h1M146,427h1M858,381h1M469,595h1M717,165h1M659,526h1m4,33h1M306,515h1m-21,27h1M177,265h1M241,141h1M803,443h1m16,-74h1M127,233h1M230,139h1M388,561h1M129,309h1M788,122h1M227,103h1M797,465h1M233,91h1M485,571h1M117,304h1M303,100h1M676,549h1M836,397h1M532,32h1M228,116h1M883,265h1M90,348h1M347,514h1M99,248h1m44,3h1M123,397h1M62,303h1M831,467h1M394,77h1M608,95h1M154,143h1M598,74h1M785,504h1M127,406h1M247,517h1M587,97h1M467,573h1M491,63h1M763,482h1M94,325h1M868,287h1M142,214h1M336,62h1M791,259h1M140,297h1M211,160h1M317,122h1M127,285h1M97,247h1M233,197h1M662,553h1M491,50h1M110,310h1M560,597h1M375,542h1m-20,36h1M616,79h1m45,425h1M500,52h1M683,92h1M889,350h1M849,291h1M240,120h1m162,-5h1M205,114h1M678,517h1M457,48h1M240,169h1M467,62h1M727,494h1M552,82h1M697,97h1M798,522h1M157,380h1M774,524h1M799,181h1M127,434h1m119,85h1M885,378h1M347,108h1M106,434h1M723,113h1M655,54h1m29,487h1M355,100h1M741,496h1M129,167h1M241,533h1M375,73h1M878,436h1M823,218h1M349,551h1M333,89h1m437,92h1m42,343h1M70,257h1m53,53h1M844,229h1M535,590h1M131,318h1m20,91h1m29,97h1m183,39h1m-82,-2h1M638,68h1m56,447h1M282,583h1M267,537h1M570,107h1M839,261h1M316,544h1M183,169h1m47,336h1M888,332h1M878,199h1M372,588h1M477,555h1M571,78h1M889,270h1M712,542h1m19,-39h1M125,248h1M410,74h1M276,513h1M204,493h1M817,439h1M456,68h1M289,544h1M140,308h1M365,577h1M155,436h1M435,564h1M119,264h1M470,76h1M531,62h1M603,52h1m125,99h1M453,79h1M710,527h1M802,321h1m6,-102h1M335,95h1M619,570h1M70,442h1m751,27h1M210,144h1M600,83h1M165,194h1M494,581h1M232,131h1M484,581h1M133,362h1M432,77h1M516,62h1M458,53h1M694,508h1m12,5h1M376,581h1M910,282h1M860,272h1M719,463h1M96,252h1m0,147h1m34,71h1m406,87h1M196,180h1M79,332h1m25,-20h1M801,266h1M140,142h1M635,574h1M815,157h1M325,46h1M63,360h1M845,348h1M603,74h1M576,35h1M413,74h1m263,31h1m139,85h1M524,75h1M719,502h1m-64,61h1M661,57h1M315,516h1M141,435h1M610,541h1M296,75h1M502,564h1M831,210h1m7,96h1M335,559h1M74,348h1M134,211h1m13,272h1M861,368h1M641,26h1M243,144h1M213,124h1m494,30h1M443,561h1M739,120h1M185,189h1M746,503h1M342,105h1M798,343h1M880,227h1M354,79h1M877,436h1M790,170h1M573,75h1M478,592h1M99,336h1M227,552h1m190,50h1m59,-44h1M867,263h1M237,559h1M73,298h1M821,186h1M705,524h1M398,575h1M210,84h1m568,96h1M213,502h1M210,149h1M831,448h1M96,245h1M923,364h1M497,88h1M847,376h1m9,-150h1M804,441h1m78,-45h1M361,30h1M825,210h1M386,74h1M272,514h1M639,68h1M405,593h1M873,358h1M464,94h1M112,245h1M527,63h1M358,558h1M186,196h1m-85,26h1M754,170h1M379,73h1M825,402h1M576,52h1m-7,8h1m60,494h1m106,-5h1m-76,-1h1m32,-35h1M247,532h1M209,74h1M100,382h1M281,559h1M789,142h1M377,94h1M97,258h1M70,298h1M335,537h1m120,38h1m160,13h1M744,162h1M642,93h1M221,89h1M100,340h1M651,546h1M598,523h1M116,227h1m67,-19h1M792,464h1M140,414h1M544,584h1M329,557h1M605,118h1M475,569h1M435,556h1M126,263h1M845,219h1M121,407h1M552,569h1M455,45h1m24,528h1M841,444h1M101,294h1M263,124h1M731,544h1M626,115h1M540,574h1M170,426h1M837,223h1M263,123h1m445,10h1M157,422h1M131,296h1M838,436h1M116,376h1M526,38h1M856,379h1M642,94h1M276,99h1M500,550h1M861,358h1M753,480h1M591,558h1M846,238h1M142,453h1M786,228h1m54,81h1M110,289h1M700,97h1M915,289h1M697,76h1M830,279h1M238,545h1M696,113h1M850,452h1M811,196h1m-9,15h1M732,143h1m55,217h1M808,164h1M153,153h1M123,391h1M865,245h1M208,132h1M481,563h1M263,132h1M377,89h1m437,79h1M684,600h1M518,546h1M645,109h1M100,281h1M816,410h1M696,530h1M264,100h1M882,349h1M525,552h1M317,562h1M760,188h1M350,579h1m53,-8h1M118,349h1M804,126h1M399,567h1M151,237h1m680,52h1M357,85h1M870,347h1M393,529h1M753,129h1M485,49h1M75,341h1M56,263h1m97,-44h1M619,78h1M79,320h1M757,512h1M276,524h1M130,420h1M440,110h1M596,55h1M830,211h1M661,104h1M862,362h1M723,120h1M334,564h1M306,135h1M868,287h1M398,570h1M827,453h1M572,77h1m173,52h1m39,45h1M426,82h1M315,547h1m4,-12h1M219,488h1M177,207h1M145,451h1M787,150h1m54,306h1M426,34h1M800,384h1M318,80h1M558,49h1M810,225h1M152,165h1M514,31h1M780,157h1m62,119h1M662,73h1M252,149h1M80,401h1m727,1h1M273,526h1M198,469h1M117,351h1M648,543h1m58,16h1M135,456h1M857,386h1M790,166h1M153,479h1m587,38h1m-8,36h1M587,102h1M798,385h1M414,561h1M847,310h1M220,541h1M205,196h1m-92,53h1M770,488h1M295,107h1M532,55h1M92,391h1M120,226h1M224,129h1m634,74h1M221,511h1M813,229h1m12,152h1M284,567h1M56,391h1M885,360h1M804,178h1M126,252h1M314,585h1M485,41h1M647,522h1M749,498h1M509,74h1m1,-19h1M824,300h1M293,545h1M755,166h1M701,519h1m45,-20h1M849,449h1M210,477h1M634,100h1M880,339h1M155,391h1M250,116h1M509,72h1M368,85h1M661,510h1M459,566h1M369,57h1M794,483h1M397,567h1M805,187h1m78,140h1M822,201h1M125,429h1M786,416h1M395,572h1M218,163h1M345,88h1M826,284h1M388,555h1M440,51h1M586,516h1M5,394h1M166,166h1M681,523h1M869,310h1M265,547h1M729,516h1M148,405h1M509,56h1M76,221h1m784,39h1M417,110h1M120,194h1m45,6h1M629,578h1M790,501h1M704,83h1M877,338h1M676,108h1M151,455h1M558,584h1M683,53h1m72,465h1M865,342h1M505,556h1M109,288h1M248,93h1M831,312h1M769,139h1M681,554h1M186,479h1m129,78h1M447,57h1M176,278h1M600,88h1m62,2h1m95,44h1M152,349h1m695,97h1M779,114h1M388,538h1M692,114h1M660,104h1M468,590h1M734,141h1M841,294h1M429,578h1M556,80h1M238,147h1M400,570h1M129,197h1m717,89h1M233,136h1M649,552h1M404,29h1M116,230h1M444,91h1M887,213h1M421,96h1M108,453h1M875,428h1M715,88h1M178,162h1M650,550h1M455,81h1m-6,514h1M89,262h1M231,516h1M130,250h1M621,66h1M149,136h1m23,336h1M610,599h1M253,499h1M402,60h1M344,552h1M120,394h1M829,356h1M146,217h1m13,-49h1m16,299h1M587,68h1M303,543h1M710,165h1m3,376h1M231,527h1M42,188h1M668,91h1M888,436h1M620,80h1M569,68h1M874,291h1M807,415h1M94,300h1M237,484h1M456,37h1M890,251h1M169,355h1M457,78h1M876,316h1M101,395h1M280,159h1M131,398h1M107,357h1m737,82h1M323,561h1M756,441h1M687,551h1M576,71h1M826,424h1M391,552h1M833,396h1M127,282h1m725,79h1M273,100h1M87,215h1M618,531h1M741,483h1M880,324h1M126,253h1M366,56h1M857,433h1M254,526h1M130,426h1M871,338h1M86,231h1M756,165h1M372,559h1m151,-9h1M661,523h1M106,227h1m79,-65h1M430,574h1M682,148h1M865,366h1m-735,4h1M387,558h1M255,95h1M236,533h1M783,429h1M811,163h1M225,155h1M669,76h1M121,437h1M834,228h1m40,-2h1M644,545h1M369,79h1M327,542h1M141,180h1M772,152h1m-624,7h1M692,85h1M578,586h1M561,88h1M234,509h1M278,92h1M74,405h1M173,204h1M683,148h1M913,317h1M236,121h1M481,561h1M557,61h1M457,45h1M119,426h1M228,106h1M589,64h1M924,400h1M669,72h1M215,171h1M134,450h1M825,390h1M329,548h1M816,254h1m-7,221h1M138,228h1M718,477h1M294,536h1M140,467h1M530,577h1M551,88h1m6,525h1M821,423h1M660,549h1M843,332h1M480,69h1M280,92h1M221,543h1m386,22h1m-209,5h1M868,333h1M126,402h1M79,291h1M799,203h1M115,365h1m698,95h1m56,-12h1M859,430h1M180,116h1M121,410h1m752,32h1M695,136h1m39,329h1M852,422h1M313,584h1M929,344h1M389,553h1M120,438h1M64,323h1M698,537h1m-367,2h1M131,474h1m147,63h1M180,164h1M740,525h1M458,38h1M94,421h1M793,190h1M182,132h1M656,94h1m122,99h1M108,436h1M804,399h1M157,201h1M794,429h1M275,118h1M643,585h1M538,52h1M728,80h1M445,606h1M763,470h1M134,448h1M121,175h1m-5,204h1M252,125h1M837,302h1M805,133h1M243,98h1m15,419h1M851,247h1M475,581h1M128,163h1M674,560h1M188,159h1M853,482h1M206,151h1M336,114h1M617,552h1M877,415h1M755,127h1M133,423h1M721,547h1M105,303h1M880,239h1M346,88h1m277,13h1m30,477h1M101,249h1M324,99h1m417,32h1M262,110h1M535,79h1m76,462h1M805,455h1M513,54h1M116,335h1M76,249h1M372,74h1M843,264h1M78,282h1M497,578h1M847,449h1M448,75h1M542,26h1M140,303h1M811,279h1M395,74h1M247,132h1M276,85h1M754,523h1M242,158h1m543,-2h1M717,528h1M610,84h1M248,476h1M782,121h1M702,88h1m-51,12h1m23,3h1M794,443h1M905,278h1M127,429h1m55,38h1m546,59h1M843,230h1M114,186h1M551,79h1m91,8h1M910,315h1M655,549h1m-60,12h1M812,224h1M535,575h1M712,532h1m-29,28h1M608,529h1M147,230h1M423,573h1M779,128h1M640,556h1M291,542h1M487,46h1M816,477h1M298,94h1M413,569h1M732,524h1M552,45h1M494,550h1m87,42h1M803,169h1M327,515h1M520,66h1M133,410h1M679,79h1M294,531h1M906,333h1M814,188h1M595,538h1M596,93h1M222,166h1m606,60h1M434,578h1M823,199h1M121,390h1M519,545h1M760,525h1M614,75h1M533,67h1M114,411h1M217,125h1M840,306h1m-1,40h1M769,133h1M507,551h1M269,121h1M425,65h1M136,407h1m10,84h1M306,79h1M271,581h1M175,371h1M793,155h1M311,118h1m470,-7h1M883,395h1M694,507h1M134,454h1M838,395h1M108,274h1M668,64h1M916,393h1m-89,83h1M266,538h1M677,99h1M834,279h1M709,106h1m20,428h1m66,-87h1M650,64h1M324,95h1M165,183h1M858,311h1m-49,51h1M112,437h1M514,555h1M393,522h1M854,271h1M809,243h1M355,575h1M675,101h1M584,45h1M875,276h1M704,503h1M308,88h1m449,79h1m57,221h1M605,547h1M481,558h1M861,256h1M773,112h1M205,110h1m40,431h1M846,399h1M625,570h1M170,184h1M850,358h1M115,406h1M705,526h1M894,273h1M191,497h1M827,458h1M796,389h1M459,581h1M870,266h1M621,123h1M213,189h1m658,35h1M613,566h1M881,327h1M322,39h1M809,186h1M477,52h1M196,157h1m95,9h1M644,86h1M430,31h1M142,272h1M83,263h1M537,594h1M93,271h1m733,73h1m-25,55h1m8,1h1M346,124h1M289,83h1M85,292h1M73,313h1M398,61h1M162,186h1M592,99h1M447,82h1M492,49h1M762,454h1M734,108h1M840,259h1M568,56h1M500,580h1M494,86h1M782,457h1M85,270h1m750,25h1M817,227h1M42,348h1M110,227h1M93,200h1M232,143h1M625,78h1M258,512h1m241,46h1M778,165h1M467,48h1M91,388h1M746,130h1m-34,22h1M431,64h1M541,561h1M839,390h1M600,561h1m8,-5h1M628,118h1M866,270h1M60,230h1m807,9h1m-7,61h1M420,90h1M122,441h1M883,368h1M843,243h1M530,64h1M759,475h1M123,337h1M878,304h1M106,263h1M90,308h1M279,573h1m232,24h1m71,-69h1M817,403h1M288,95h1M81,280h1M423,556h1M319,527h1M234,515h1M165,162h1M467,603h1M802,446h1M596,577h1M139,495h1m3,-282h1M786,405h1m-28,67h1M879,262h1M827,422h1M407,536h1m-85,29h1M235,540h1m293,44h1M396,114h1m365,-2h1M173,498h1M707,129h1M157,251h1M241,129h1M163,460h1M771,143h1M582,32h1M258,510h1M150,532h1M631,97h1M534,75h1M482,570h1M54,260h1M160,492h1M361,112h1M323,565h1M694,529h1M734,113h1M123,428h1M443,594h1M228,109h1M75,306h1M212,109h1M620,553h1M847,276h1M176,174h1M710,522h1M811,153h1M304,533h1M724,124h1M406,68h1M219,120h1M194,548h1M747,151h1m48,46h1M88,322h1M814,187h1M314,571h1M838,289h1M297,575h1M725,91h1M228,551h1M149,346h1M57,300h1M514,582h1M896,314h1M502,564h1M252,530h1M219,169h1M629,68h1M838,442h1M183,410h1M513,57h1M110,211h1M705,132h1M430,585h1M322,527h1M166,142h1m563,6h1M103,236h1M252,91h1m14,3h1M638,530h1M526,563h1M413,50h1M811,184h1M253,506h1M341,109h1M460,82h1m-40,3h1M697,516h1M184,499h1m524,36h1M239,550h1M862,223h1M714,561h1M261,163h1m85,362h1M853,380h1M549,577h1M879,359h1M716,533h1m93,-91h1M384,64h1m-44,8h1M136,272h1M491,46h1M802,220h1M750,153h1m84,272h1M181,212h1M474,66h1M168,160h1M104,299h1M764,107h1M149,260h1m-41,41h1M331,95h1M861,380h1M542,573h1M324,93h1M581,550h1M424,582h1M629,557h1M170,201h1M650,81h1M129,289h1M526,69h1M631,554h1M529,587h1M784,121h1M442,79h1M110,316h1M600,580h1M133,398h1M170,290h1M597,53h1M223,460h1m556,40h1M133,178h1m88,-53h1m62,0h1M822,407h1M731,114h1m24,69h1M78,317h1M632,101h1m101,51h1M475,565h1M187,138h1m-27,79h1M766,521h1M850,235h1M707,539h1M862,356h1M487,569h1M777,161h1M103,420h1M810,152h1M404,37h1M786,481h1M133,372h1M449,575h1M744,218h1M352,576h1m26,-12h1M172,160h1M820,404h1M687,91h1M812,213h1M776,155h1M738,129h1m9,371h1M195,466h1M807,221h1M200,215h1M405,71h1M125,363h1M789,198h1m49,179h1M177,459h1M199,124h1M169,374h1M301,112h1M799,467h1M164,298h1M665,554h1M280,528h1M611,101h1M804,272h1M317,71h1M550,587h1M527,573h1m-60,10h1M317,566h1M858,240h1M153,426h1M278,114h1m93,422h1M814,323h1M730,538h1M380,61h1M233,470h1m-61,5h1M253,131h1M121,424h1M70,319h1m28,13h1m11,84h1M825,182h1m-9,193h1M870,226h1M295,114h1M371,77h1m-97,39h1M876,251h1M501,536h1M380,102h1M705,536h1M491,572h1M722,480h1m-47,56h1M768,156h1M198,459h1M887,350h1M639,524h1M467,587h1M896,307h1M440,43h1M103,313h1M848,286h1M577,578h1M805,472h1M859,190h1M697,471h1M869,299h1M78,355h1M748,526h1M518,50h1m36,13h1M313,81h1M467,587h1M801,393h1M847,185h1m-7,108h1M669,537h1M171,462h1M633,95h1M110,199h1M276,109h1M829,343h1m44,5h1M52,266h1M389,74h1M64,280h1M221,113h1M462,578h1M138,218h1M719,530h1M297,115h1M823,384h1M790,146h1M717,115h1M833,260h1M159,398h1m14,50h1M192,72h1M159,474h1M882,297h1M543,577h1M196,441h1M789,149h1M224,140h1M488,565h1M773,172h1M231,513h1M765,443h1M333,82h1m-86,34h1M163,302h1m676,77h1M501,572h1M386,96h1M147,420h1M89,304h1M196,183h1M781,128h1m33,290h1M75,276h1M673,558h1M637,81h1M861,289h1M144,364h1M810,291h1m17,68h1M460,600h1M292,493h1M127,268h1M331,561h1M122,456h1M73,344h1M382,96h1M105,392h1M781,187h1M101,366h1M74,308h1M280,86h1m427,76h1m98,285h1M260,138h1m492,23h1M697,535h1M573,42h1M129,239h1M411,120h1M445,53h1m106,55h1M392,62h1M870,350h1M441,581h1M146,422h1M596,65h1M410,44h1M855,245h1m1,124h1M209,87h1m53,435h1M813,438h1M178,450h1m533,76h1M861,342h1M856,192h1m3,51h1M119,413h1m675,18h1M85,346h1m714,90h1M735,158h1m15,292h1m-80,79h1M657,109h1M278,490h1m137,70h1m-14,5h1M564,33h1M808,407h1m1,15h1M315,580h1M790,472h1m-13,28h1m-51,33h1M302,66h1M547,588h1M842,434h1M345,63h1M145,257h1M626,65h1M118,440h1M257,102h1M877,341h1M131,153h1M547,559h1M363,583h1M763,175h1M116,349h1M483,86h1M126,437h1M464,591h1M789,504h1M186,462h1M752,141h1M250,500h1M214,175h1m-7,283h1M888,301h1M248,96h1M526,561h1M858,361h1M148,458h1M871,223h1M318,81h1m-60,27h1M159,444h1M95,432h1M417,66h1M846,421h1M462,572h1m33,17h1M251,129h1M738,492h1M68,244h1m8,117h1m774,50h1m10,-73h1M248,497h1M747,131h1M272,109h1m-77,52h1M632,537h1M282,95h1M856,435h1M181,391h1M697,505h1M471,64h1M677,556h1M560,34h1M75,313h1M832,446h1M248,121h1M473,580h1M192,515h1M138,189h1M758,87h1M631,43h1M139,297h1M260,124h1M133,209h1M827,318h1m-8,108h1M626,529h1M438,594h1M245,487h1M167,464h1M628,57h1m147,65h1m15,51h1M219,538h1M848,230h1m9,-15h1M104,211h1m67,-64h1M307,532h1M255,102h1M160,400h1M798,129h1m67,199h1M827,183h1M815,442h1M246,534h1M669,122h1M102,264h1m756,90h1m-47,57h1M183,152h1M622,570h1M129,400h1M267,95h1M538,83h1M144,187h1M649,85h1M399,582h1M124,197h1M252,99h1M135,224h1M659,491h1M208,482h1m107,73h1M874,360h1M149,206h1M671,91h1M856,323h1M237,149h1M890,276h1M602,546h1M848,318h1M823,207h1M206,503h1M769,483h1M753,101h1m-9,36h1m24,358h1M850,235h1M59,399h1M286,513h1M88,297h1M518,67h1M165,220h1m-2,171h1M819,246h1M397,585h1M805,148h1M415,74h1M63,375h1M713,555h1M156,460h1m560,71h1M923,327h1M647,118h1M423,573h1M399,75h1M626,87h1M350,72h1M72,395h1M264,76h1M91,321h1M857,161h1M665,140h1m53,-8h1M583,96h1M97,252h1m11,6h1M367,62h1M789,442h1M544,597h1M214,433h1M572,88h1M232,493h1M109,310h1M267,118h1M464,588h1M846,270h1m58,30h1M467,73h1M405,58h1M168,253h1M394,582h1M763,111h1M369,90h1m373,93h1M143,390h1M584,80h1M843,456h1M161,421h1m57,105h1M831,375h1M795,195h1M782,409h1M199,185h1M300,140h1M723,118h1M441,66h1M563,598h1M831,380h1M803,188h1M101,387h1M713,152h1M480,67h1M747,174h1m43,-24h1M233,113h1M553,558h1M124,442h1M194,133h1m93,415h1m-42,-1h1m113,2h1m-66,-2h1M275,484h1M179,133h1M879,353h1M740,185h1M133,183h1M707,503h1M493,563h1M667,521h1M529,64h1m8,462h1M373,557h1M209,135h1m616,14h1M296,572h1M197,472h1m378,86h1M358,83h1M824,449h1M644,531h1m141,-7h1M446,60h1M140,484h1m252,68h1m-84,5h1M195,158h1M777,135h1M622,560h1M71,322h1M843,183h1M647,87h1M184,162h1M157,400h1M479,35h1M106,245h1M468,559h1M744,526h1M530,573h1M699,111h1M847,369h1M337,540h1M801,150h1m51,121h1M604,99h1m28,469h1M809,444h1M849,174h1M180,448h1m555,38h1M717,133h1M488,547h1m104,38h1M181,148h1m-21,28h1M860,395h1M358,562h1m130,0h1m-93,11h1M179,199h1M143,416h1M241,130h1M574,45h1M885,336h1M187,143h1M844,360h1M669,127h1M865,239h1M108,298h1M224,465h1M631,75h1M426,39h1M888,318h1M93,360h1M525,586h1M840,397h1M662,128h1m24,-18h1M611,570h1M251,497h1M841,197h1m20,138h1M278,549h1M411,66h1M793,428h1M520,532h1M387,67h1M799,169h1M183,230h1M593,87h1M74,389h1M832,212h1M635,76h1M425,47h1M60,241h1m53,87h1M93,318h1M712,499h1m11,28h1M428,599h1M873,352h1M129,224h1M72,363h1m113,97h1M522,62h1M433,74h1m-35,7h1M338,582h1M116,234h1M64,351h1M641,110h1M88,272h1M681,79h1M503,51h1M179,453h1m4,-286h1M328,64h1M114,385h1M515,594h1M782,180h1M210,112h1M527,85h1M866,411h1M112,434h1M83,334h1M839,320h1M607,549h1M688,126h1M511,562h1M331,86h1M840,227h1m3,161h1M483,53h1M262,122h1m521,32h1M703,131h1M395,545h1M708,132h1m72,314h1M218,487h1M98,231h1M243,110h1M63,434h1M110,318h1M847,278h1m3,87h1m15,86h1M137,429h1M879,378h1M125,421h1M878,341h1M67,368h1M93,224h1m737,27h1M646,516h1M285,503h1M248,124h1M386,554h1M914,339h1M865,259h1M357,526h1m-122,1h1M862,380h1M665,75h1M869,414h1M725,88h1M879,323h1M238,172h1M187,152h1M258,95h1M306,82h1M86,305h1M503,55h1M163,201h1M265,490h1M850,480h1M745,149h1M124,400h1M548,553h1M859,234h1M471,55h1M734,505h1M785,213h1M253,553h1M260,97h1M177,452h1M345,88h1m327,7h1m121,81h1m85,238h1M547,548h1M896,331h1M640,60h1M517,81h1M211,157h1M848,390h1M231,531h1M678,73h1M127,355h1M716,124h1M865,362h1M110,397h1M412,609h1M207,158h1M127,419h1M157,248h1M650,75h1M795,486h1m-56,24h1m51,-80h1m42,-12h1M667,552h1M866,391h1M544,566h1M148,307h1m-6,85h1M628,50h1M177,499h1m570,12h1M182,216h1M645,101h1m-8,476h1M325,47h1M703,480h1M264,524h1M125,396h1M141,198h1M698,138h1M329,500h1M840,287h1m43,-49h1M609,507h1M372,565h1M803,485h1M241,506h1M606,616h1M775,459h1M144,301h1M298,55h1M789,437h1m78,-38h1M401,72h1M302,114h1M731,522h1M252,106h1M158,444h1M785,174h1M637,76h1M806,210h1M341,56h1M557,549h1M700,487h1m-47,81h1M500,70h1M845,298h1M282,532h1M307,88h1M576,74h1M692,497h1M598,89h1M787,465h1M670,554h1M863,412h1M628,521h1M309,89h1m357,13h1M834,410h1M233,119h1M368,77h1M82,398h1M596,596h1M800,211h1m70,128h1M497,61h1M451,570h1M610,550h1M408,71h1M86,218h1M615,57h1M823,280h1M680,127h1m-5,-24h1M132,398h1M712,527h1M624,68h1M568,66h1M349,515h1M250,142h1M120,211h1M707,107h1M191,477h1M174,165h1M730,482h1M794,381h1M164,243h1m664,11h1m-4,0h1m5,20h1M686,79h1M821,194h1M120,239h1m694,22h1M108,339h1m31,77h1M573,62h1m80,56h1M886,377h1M116,345h1M902,215h1M502,565h1M95,223h1M520,69h1m30,514h1M248,105h1M493,578h1M485,55h1M827,316h1M190,467h1m650,-4h1M630,574h1M277,93h1M744,517h1M833,324h1M224,130h1M573,79h1M162,215h1m644,-1h1M266,501h1m388,69h1M131,232h1M746,192h1M630,523h1M405,59h1m-2,505h1M255,78h1m131,1h1M256,105h1M697,565h1m64,-37h1M324,74h1M457,87h1M147,265h1M134,431h1M455,83h1M873,396h1M115,160h1m-5,188h1M526,75h1M441,553h1m101,3h1M859,212h1M482,557h1M812,419h1M358,92h1M800,453h1M121,213h1m14,194h1M868,307h1M348,551h1M677,112h1m111,-2h1m-26,20h1m36,42h1m-616,5h1M574,68h1M690,557h1M816,477h1M849,362h1M712,99h1m85,136h1m62,51h1M103,213h1m742,87h1M302,116h1M125,300h1m51,-99h1M474,68h1m99,4h1M781,175h1M706,110h1m3,-3h1M867,299h1M67,318h1M687,144h1M443,89h1M603,555h1M849,229h1M157,424h1M812,406h1M116,339h1M803,242h1M750,145h1M469,597h1M234,117h1M154,339h1M549,87h1M189,222h1m614,5h1M393,570h1M171,459h1M125,411h1M360,83h1M115,404h1M487,29h1M328,606h1M741,124h1M318,537h1M799,478h1m-41,84h1M148,410h1m637,65h1M151,174h1M487,64h1M82,254h1M211,510h1M885,320h1M109,337h1M803,195h1M347,122h1M554,575h1M317,89h1M155,418h1m559,92h1M768,174h1M879,277h1M787,219h1M320,72h1M595,580h1M204,509h1m1,-313h1M808,483h1m61,-90h1M264,66h1m364,46h1M858,221h1M684,548h1M608,523h1M176,513h1m192,39h1M217,485h1M627,56h1M180,489h1M411,77h1M567,543h1M397,77h1m-48,2h1M541,569h1M159,168h1M848,384h1M157,267h1m693,77h1M815,450h1M397,75h1M682,556h1M676,100h1M340,574h1M282,558h1M174,472h1M299,115h1M743,503h1M875,271h1M642,81h1m69,63h1M824,286h1M513,565h1M778,473h1M370,547h1M752,476h1m-25,-4h1m-91,94h1m82,-44h1M300,558h1M198,150h1M418,589h1M847,232h1M733,92h1M583,99h1M524,63h1M362,582h1M118,454h1M691,127h1M31,329h1M757,467h1M421,593h1M729,100h1M873,395h1M863,324h1M795,446h1M143,509h1M786,466h1M652,100h1M846,306h1m4,42h1m16,11h1M416,73h1m22,530h1M562,84h1m188,35h1M577,556h1M621,98h1M199,99h1M399,69h1M875,376h1M155,193h1M737,153h1m-7,-29h1M87,323h1m92,146h1m-26,5h1m157,55h1m297,15h1M271,141h1M104,365h1M238,143h1m7,32h1M701,99h1M175,512h1M232,126h1M161,488h1M844,379h1m37,55h1M809,163h1M585,573h1M321,78h1M305,515h1M374,94h1M834,332h1M157,492h1m627,15h1M170,482h1M827,425h1M225,513h1M854,379h1M164,453h1m565,69h1M510,61h1M142,191h1M121,316h1m2,-141h1M389,575h1m186,-1h1M855,404h1M273,134h1M98,410h1M724,147h1M841,378h1m18,-30h1M442,65h1M262,114h1M898,391h1M102,343h1M778,224h1M644,94h1M845,363h1M255,110h1M131,330h1M749,180h1M532,74h1M422,594h1M846,429h1M705,118h1M643,83h1M510,564h1m91,-42h1M841,201h1m-24,7h1M160,415h1M424,581h1M308,573h1M824,359h1M158,204h1M411,566h1M672,92h1M405,551h1M116,210h1M253,116h1M352,84h1M799,196h1M719,125h1M417,61h1M704,523h1M164,517h1M782,165h1m61,152h1M840,199h1M136,491h1M554,63h1M165,218h1M594,576h1M703,138h1M63,394h1m165,97h1M732,122h1M190,165h1M800,505h1M135,436h1M183,194h1m647,8h1M777,145h1M645,517h1m-96,51h1M661,105h1M91,346h1M805,224h1M311,91h1M845,453h1M373,106h1m9,-59h1M295,561h1M635,105h1M480,584h1M880,290h1M686,527h1M650,98h1m56,422h1m97,-80h1M324,571h1M720,157h1M250,112h1M161,441h1M293,116h1M841,490h1M823,334h1M337,85h1M222,545h1M109,344h1M727,506h1M407,44h1M286,564h1M385,101h1M776,439h1M306,534h1M555,44h1M262,143h1m-9,360h1M99,290h1m91,161h1M418,567h1M577,91h1m157,58h1m105,88h1M455,583h1M851,435h1M560,562h1M791,475h1M371,551h1M771,471h1m74,34h1M266,533h1m-4,-10h1M311,107h1m412,31h1M603,89h1M395,554h1M312,512h1M161,492h1M141,177h1M105,288h1M452,61h1M118,337h1M633,557h1M326,84h1M524,598h1M176,137h1M362,95h1M892,321h1M621,543h1m-350,3h1M204,125h1M566,567h1M112,135h1m73,47h1M854,459h1M136,259h1M570,531h1M295,139h1M179,197h1M92,414h1M835,243h1M40,328h1m70,-6h1m79,182h1m112,49h1M840,167h1M128,304h1m724,3h1M496,573h1M363,543h1m247,31h1M834,172h1M758,517h1M462,588h1M726,472h1m21,11h1M248,516h1M703,496h1M600,87h1M67,237h1m760,81h1m1,141h1M95,430h1M463,567h1M317,536h1M519,83h1M664,542h1M854,352h1M111,244h1M433,74h1M787,479h1M227,522h1M199,124h1M455,62h1M154,463h1m352,99h1M741,180h1M207,108h1M860,299h1M455,581h1M814,433h1M283,92h1M614,560h1M205,136h1M355,99h1M786,466h1M640,551h1M765,149h1M462,585h1M345,560h1M444,53h1M563,83h1M150,429h1M253,543h1M53,303h1m798,63h1M184,408h1M473,581h1M374,93h1M799,197h1M772,533h1M244,111h1M822,249h1M562,40h1M406,589h1M860,392h1M773,150h1M94,233h1m23,1h1M866,350h1M218,485h1m176,77h1M117,223h1m18,212h1M632,537h1M258,89h1m-28,51h1M277,90h1m514,80h1M409,582h1M57,313h1M282,85h1M820,438h1M303,74h1M853,384h1M448,562h1M225,98h1M411,582h1M137,408h1M124,242h1m-19,39h1M750,151h1m90,243h1M698,517h1M437,577h1M798,158h1M110,422h1M163,178h1M800,459h1m-12,12h1M771,445h1m25,7h1M280,519h1M341,70h1M872,240h1M84,317h1M729,100h1M560,45h1m260,98h1m79,202h1M147,184h1M78,291h1M475,564h1M71,337h1M795,179h1M503,76h1m199,32h1M896,382h1M409,585h1M108,286h1M405,544h1M195,468h1M863,304h1M66,311h1M321,106h1M438,86h1M324,109h1M260,525h1m47,24h1M773,471h1M664,67h1M116,220h1M257,533h1M192,515h1M517,74h1m142,30h1M856,217h1M800,162h1M188,178h1m20,-40h1M558,550h1M644,107h1M414,48h1M93,200h1M872,329h1m-14,65h1M191,125h1M381,582h1M747,133h1M908,300h1M706,523h1M840,270h1M597,78h1M765,191h1M462,587h1M130,199h1M32,397h1M846,325h1m-16,57h1M564,595h1M733,120h1M712,471h1M842,377h1M159,141h1M145,439h1m641,32h1M305,108h1M609,587h1M93,232h1m99,219h1M777,275h1M471,73h1M576,565h1M103,355h1m746,49h1M139,241h1M634,57h1M112,325h1m777,37h1M743,470h1M155,196h1M447,602h1M128,224h1M447,32h1M169,444h1m20,66h1M484,58h1M267,512h1M222,493h1M288,83h1M500,42h1M884,243h1m-1,39h1M580,66h1M500,37h1m1,551h1M124,422h1m707,14h1M901,278h1M167,217h1M122,384h1M557,553h1M230,152h1M482,71h1M200,103h1M840,277h1M485,581h1m45,-36h1m89,33h1M164,270h1M645,46h1m91,106h1M533,50h1M860,262h1M799,197h1M137,426h1M392,601h1M349,78h1M863,321h1M236,518h1M890,234h1M580,62h1M698,514h1M858,261h1M436,110h1M349,543h1m277,9h1M737,181h1m66,18h1M147,172h1m582,3h1M856,285h1M806,416h1M312,592h1m171,-9h1M620,565h1M727,501h1M898,365h1M745,509h1M183,457h1M59,299h1M446,76h1M192,137h1m12,338h1M388,576h1M317,76h1M104,405h1M503,562h1M291,107h1M460,560h1M138,270h1M753,453h1M174,150h1M844,380h1M782,499h1M625,91h1M202,479h1M776,161h1M78,370h1M746,528h1M635,109h1M859,353h1M738,190h1M855,375h1M100,194h1M498,66h1m266,85h1m75,54h1M585,536h1M150,433h1M413,81h1M851,335h1M802,258h1M68,337h1M765,442h1M281,522h1M116,443h1M672,547h1M143,299h1m0,121h1M98,394h1M459,79h1M104,281h1M857,419h1M204,479h1M396,49h1M110,197h1M96,317h1M578,63h1M341,552h1M859,396h1M847,254h1M797,422h1M545,50h1M826,201h1M177,524h1M222,128h1M531,86h1M90,292h1M582,39h1M811,206h1M691,133h1M400,87h1M642,563h1M859,340h1m40,22h1M415,43h1M113,448h1M809,422h1M759,157h1M91,343h1M859,317h1m-15,88h1M265,507h1M108,321h1M174,182h1M822,396h1M895,244h1M354,88h1M835,225h1M612,592h1M840,375h1M700,521h1M557,80h1M833,256h1M704,95h1M838,278h1M212,136h1M491,70h1M317,116h1M129,298h1M841,409h1M420,75h1M250,536h1M277,91h1M430,58h1M862,384h1M106,189h1m11,21h1M692,144h1M223,102h1m470,5h1M160,234h1M440,592h1M305,138h1M568,567h1M701,100h1M505,120h1M196,113h1M332,527h1M606,71h1m60,56h1M802,247h1M99,361h1M776,159h1M79,384h1M847,487h1M130,461h1m608,66h1M207,119h1M877,351h1M540,67h1M787,500h1M885,347h1M844,496h1M328,578h1M813,179h1M358,88h1M808,436h1M101,350h1M626,542h1M193,484h1m581,6h1m70,-68h1M224,536h1M842,440h1M250,129h1M435,82h1M309,81h1M485,575h1M183,467h1M197,196h1M117,307h1M70,302h1M837,207h1M119,163h1m35,287h1m556,98h1M84,328h1M579,572h1M850,441h1M93,436h1M922,328h1M803,385h1M150,430h1M848,289h1M771,126h1M145,379h1m680,81h1M268,548h1M95,326h1M790,174h1M181,159h1M867,423h1M657,113h1m123,84h1m52,178h1M607,588h1m67,-47h1m-349,4h1M619,97h1M381,33h1M895,234h1M488,80h1M459,90h1M295,520h1M851,306h1M280,106h1M180,177h1M320,64h1M829,234h1M589,62h1M307,100h1m455,51h1M422,562h1M803,410h1M358,101h1M864,310h1m27,89h1M857,284h1M261,89h1M167,453h1m658,-6h1m-700,7h1M125,164h1M535,599h1M850,322h1M95,295h1M392,21h1M813,376h1M234,518h1M894,339h1M83,426h1m85,11h1m534,87h1M79,241h1M300,99h1M536,565h1M339,81h1M809,184h1m77,233h1M169,339h1m60,173h1M402,86h1m-90,32h1M637,523h1M788,470h1M85,378h1m744,-8h1M105,408h1m73,74h1M777,96h1M150,247h1m-39,-3h1M580,70h1M688,537h1M503,566h1M101,422h1M735,127h1M167,435h1M105,308h1M82,218h1M824,326h1M718,145h1M130,223h1M699,546h1M215,143h1m547,12h1M291,521h1m-45,6h1M801,395h1M84,365h1M562,102h1M106,278h1M784,466h1M507,77h1M124,266h1M680,109h1M111,405h1M604,541h1M269,135h1M363,81h1M153,469h1M574,620h1M690,566h1M792,401h1M651,71h1m112,36h1M448,60h1M309,556h1M876,291h1M209,520h1M528,62h1M110,323h1M719,131h1M536,96h1M330,534h1m283,17h1M108,380h1M627,549h1M876,291h1M695,486h1M58,355h1m798,77h1m-94,46h1M810,233h1M376,561h1M308,532h1M849,344h1M833,209h1m-4,197h1m18,-75h1M781,454h1M88,322h1M514,593h1M786,427h1M369,556h1M340,51h1m364,55h1m129,41h1M320,116h1M903,424h1M213,105h1M116,431h1M856,276h1M484,41h1M316,586h1M80,397h1M659,152h1m63,371h1M345,592h1M165,168h1M471,611h1M109,284h1m45,-24h1M752,166h1M321,80h1m401,78h1m53,312h1M883,366h1m-45,22h1M334,549h1M660,111h1M627,84h1M186,108h1M111,446h1M809,181h1M113,238h1m37,-50h1M285,541h1M464,41h1m65,551h1M804,231h1m67,189h1m7,39h1M418,87h1M855,364h1M320,123h1M59,409h1M53,325h1M450,548h1M667,71h1M46,355h1M285,531h1M680,82h1M843,319h1M452,42h1M863,276h1M195,461h1M584,75h1M122,394h1m649,23h1M685,138h1m134,40h1M202,137h1M856,387h1M673,123h1M472,587h1M847,226h1M157,175h1M134,298h1M382,30h1m228,81h1M298,554h1M262,542h1M858,289h1M541,79h1M147,172h1M546,89h1M91,290h1M735,494h1M875,350h1M421,579h1M834,191h1M453,73h1M131,498h1M232,149h1M74,312h1M478,614h1M225,477h1m330,69h1M660,87h1M855,280h1M558,77h1M678,515h1m9,-23h1M474,80h1M841,436h1M535,50h1M185,249h1m655,50h1M152,365h1M244,116h1M492,65h1M734,509h1m-26,17h1M473,53h1M82,400h1M355,67h1M182,161h1M119,385h1M549,72h1M827,229h1M670,557h1M290,121h1M919,297h1M451,44h1M213,126h1M816,296h1M145,400h1M739,144h1M426,565h1M840,188h1M318,79h1M577,555h1m19,31h1M546,561h1M137,328h1m1,70h1M496,630h1M322,581h1M473,33h1M252,103h1M837,402h1M189,147h1M916,335h1m-17,64h1m-45,-2h1M78,332h1m740,77h1M127,175h1M97,415h1M857,371h1M143,226h1M726,555h1M845,381h1M85,300h1M866,199h1M204,145h1m-41,77h1M722,552h1M194,516h1m426,53h1M97,341h1M673,569h1M420,84h1M748,98h1M887,206h1M533,585h1M373,90h1M679,523h1M303,574h1m171,8h1M173,292h1M219,125h1M836,365h1M776,491h1M888,378h1M291,567h1M845,404h1M635,105h1M757,529h1M723,113h1M320,529h1m405,11h1M52,428h1M359,71h1M768,174h1M108,435h1m611,81h1m64,16h1M338,557h1M262,532h1M838,294h1M160,168h1m-22,96h1M753,473h1M99,337h1M823,236h1M48,302h1m818,-6h1m-745,0h1M103,233h1M225,445h1M126,435h1M672,73h1M220,498h1M413,49h1M335,559h1M153,378h1M762,189h1M191,203h1M453,565h1M753,512h1M348,560h1M57,246h1M869,375h1M221,95h1M363,569h1m142,-3h1M869,330h1M355,71h1m49,4h1m-20,44h1M727,517h1M288,567h1M819,234h1M193,520h1m475,63h1M796,142h1M229,198h1M381,518h1M377,104h1M824,255h1M726,546h1M78,226h1M803,205h1M123,363h1M616,557h1M131,401h1M849,298h1M279,125h1M164,196h1M389,75h1M287,553h1M427,68h1M98,245h1M497,591h1M819,180h1m-25,46h1M569,526h1M751,501h1M127,435h1M350,75h1m427,84h1M354,566h1m-12,14h1M166,401h1M56,349h1M357,40h1M299,534h1M86,315h1M744,133h1M130,374h1M839,284h1m18,-28h1M128,307h1M662,530h1M839,427h1M559,571h1M542,61h1M116,276h1M363,555h1M388,80h1M433,37h1M808,182h1M264,140h1m99,412h1M496,78h1M190,521h1m465,23h1m-2,9h1M586,48h1M136,422h1m718,-6h1M279,132h1M172,174h1M297,537h1M158,325h1M269,78h1m494,96h1M154,413h1M103,292h1M430,571h1M775,125h1m48,169h1M384,101h1M750,499h1M542,528h1M124,301h1M85,176h1M431,54h1m12,-5h1M255,163h1M563,71h1M891,324h1M769,489h1M876,291h1M618,84h1M874,282h1M406,56h1m55,526h1M256,167h1M681,575h1M732,111h1M116,320h1m9,-87h1M728,489h1M840,257h1m28,56h1M565,577h1M842,381h1M199,166h1m-63,23h1m7,281h1M766,150h1m-17,22h1M170,392h1M448,581h1M149,287h1m703,40h1M393,77h1M206,145h1M349,536h1M139,130h1M282,115h1M819,401h1M855,222h1M766,433h1M836,268h1M239,506h1M884,243h1M738,549h1M250,124h1M61,239h1M802,418h1M845,209h1m8,162h1M762,103h1M89,263h1M223,550h1m66,2h1M826,391h1M484,65h1M299,527h1M145,440h1M827,268h1M267,101h1M368,556h1m22,33h1M437,73h1M333,82h1m460,87h1M521,60h1M170,215h1M457,559h1M711,123h1M540,94h1m83,-2h1M660,72h1M195,481h1M78,296h1M763,489h1M148,161h1m741,92h1M191,485h1M823,272h1M93,423h1m619,76h1M292,551h1m110,61h1M817,456h1M843,281h1M568,592h1M240,527h1M777,131h1M144,466h1M176,203h1M475,561h1M675,530h1M105,316h1M565,559h1M251,127h1m-36,76h1m19,-36h1m609,31h1M404,55h1M812,422h1M667,99h1M811,224h1M215,167h1M131,367h1M608,571h1m-3,6h1m5,-60h1M559,107h1m262,37h1M578,552h1M795,459h1M205,531h1M821,483h1M144,378h1M842,332h1M665,99h1m130,72h1M236,134h1m573,-7h1M135,231h1M642,577h1M436,596h1M287,552h1m83,-5h1M781,425h1m88,-56h1M631,81h1M311,580h1M885,430h1M779,141h1M100,292h1M67,288h1M257,583h1M164,438h1m631,34h1M433,89h1M145,482h1M403,51h1M97,391h1M543,41h1m99,87h1M633,573h1M380,545h1M136,463h1M121,397h1M85,265h1M867,396h1M605,559h1M248,86h1M199,499h1M122,222h1m71,-59h1m-8,55h1M669,537h1M867,294h1M628,89h1M791,455h1M138,156h1M496,542h1M279,111h1M63,352h1M399,566h1M275,126h1M252,102h1m-58,97h1m712,8h1M528,576h1M850,440h1M554,88h1m200,98h1M531,67h1M70,285h1M192,189h1M104,411h1M424,105h1M395,60h1m335,73h1M241,502h1M761,491h1M601,541h1M887,302h1M522,596h1M845,420h1M170,171h1M346,95h1m21,0h1M153,453h1M797,256h1M395,65h1M379,551h1M211,503h1M884,348h1M682,128h1M269,142h1M463,41h1m33,533h1M808,449h1M569,75h1M184,157h1M810,393h1M166,327h1M379,55h1M791,249h1m70,65h1M288,94h1M635,66h1M560,590h1M145,398h1M229,172h1M76,364h1M713,120h1M872,444h1M118,300h1M764,479h1M703,149h1M119,330h1M345,567h1M332,32h1M157,187h1M753,491h1m35,-39h1M342,528h1M822,466h1M579,73h1M439,49h1M375,568h1m8,5h1M820,414h1M113,332h1m85,202h1M155,447h1M105,422h1M748,135h1M592,560h1M129,457h1M344,29h1M586,568h1M834,396h1m9,-162h1M344,576h1M265,515h1M107,274h1M819,441h1M213,510h1m158,58h1M611,85h1M304,104h1M349,87h1m438,79h1M140,494h1M551,594h1M775,199h1M90,279h1m91,-60h1m-75,77h1M730,144h1M319,108h1M181,146h1M91,409h1M85,385h1m738,69h1M364,114h1M181,429h1M467,76h1M81,418h1M469,90h1m278,73h1M175,179h1M473,76h1M142,346h1M543,80h1M751,497h1M829,361h1M759,115h1M319,551h1M572,29h1M910,288h1m-53,99h1M628,89h1m17,469h1M876,371h1m-4,16h1M855,372h1M784,149h1M110,391h1M643,559h1M110,326h1m83,-37h1M740,521h1M588,69h1M404,103h1M320,90h1M184,477h1M233,129h1M578,83h1M838,246h1M607,88h1M214,500h1m265,63h1M225,131h1m22,424h1M729,474h1M547,56h1m85,498h1M741,490h1M63,402h1M460,559h1M433,41h1M229,492h1M830,175h1M384,100h1M719,487h1M203,139h1m65,413h1M152,465h1m38,-26h1M358,91h1M553,610h1M846,357h1M590,557h1M815,257h1M355,581h1M188,219h1M63,366h1M236,528h1M753,504h1M120,174h1M857,403h1M688,523h1M891,416h1M185,206h1M557,561h1m-285,9h1M501,58h1M211,440h1m12,61h1m510,-3h1M845,411h1M492,16h1M848,386h1M315,554h1M85,372h1M249,538h1M84,300h1m86,187h1m42,24h1M760,147h1m85,210h1M84,402h1M664,534h1M849,190h1M671,116h1M244,104h1M388,68h1M486,55h1m67,527h1M450,80h1M162,382h1m669,39h1M508,70h1M442,533h1M793,418h1M260,565h1M893,379h1M451,625h1M824,446h1m-25,45h1M742,61h1m91,120h1M793,385h1M104,324h1M754,113h1M433,551h1M131,308h1M580,66h1M148,193h1M763,438h1M354,82h1M221,159h1M803,463h1M303,555h1M546,61h1M134,199h1M286,553h1M826,240h1M90,229h1M847,398h1M299,101h1M147,433h1M71,359h1M812,554h1M103,397h1M325,556h1m73,47h1M58,223h1M601,89h1M250,121h1M366,554h1M780,420h1m4,13h1M846,209h1M336,571h1M81,266h1M186,448h1M604,96h1M37,267h1M786,458h1M112,323h1M455,59h1m39,509h1M428,46h1M945,295h1M91,394h1M617,96h1M835,435h1M672,122h1m36,10h1M650,90h1M453,57h1M323,66h1M676,548h1M293,99h1m402,56h1M263,567h1M133,389h1M200,119h1M555,586h1M892,217h1M824,386h1M617,540h1M730,110h1M60,446h1m99,60h1M789,478h1M686,550h1M170,161h1m-37,28h1M498,586h1M252,546h1m319,35h1M71,365h1M538,74h1M422,580h1M817,411h1M758,212h1M537,576h1M897,437h1M661,121h1M107,277h1m56,-77h1M769,521h1M671,89h1M145,483h1M223,130h1M478,93h1M740,529h1m-91,35h1M116,262h1M528,52h1M217,500h1M815,135h1m0,33h1M773,457h1m-75,61h1M125,450h1M606,110h1M471,66h1m151,36h1M839,466h1M616,560h1m-47,32h1M282,518h1M755,126h1M262,507h1M842,423h1M728,510h1M481,78h1M191,479h1M70,386h1M883,366h1M585,585h1M97,330h1M673,548h1M882,305h1M181,483h1M464,85h1M754,503h1M706,100h1M639,542h1M894,220h1M522,605h1M853,196h1m-12,87h1M555,67h1M267,504h1m345,42h1M497,41h1M149,360h1M620,57h1M569,561h1M425,83h1M796,231h1M723,517h1M166,483h1M111,411h1M174,170h1M104,321h1M351,112h1M533,534h1M133,252h1m-7,-36h1M558,581h1M850,448h1M818,216h1M658,551h1M647,519h1M548,72h1M806,438h1M146,261h1M104,404h1M76,258h1M848,380h1m-16,41h1M263,494h1M167,180h1M574,73h1m93,50h1m96,-1h1M16,293h1M266,92h1M102,263h1m15,146h1M115,305h1M399,571h1M121,338h1M805,167h1M319,132h1M63,317h1m739,80h1M93,372h1m709,66h1m78,-62h1M754,208h1M269,136h1m-2,3h1M127,423h1M576,83h1M119,316h1m65,136h1m578,98h1M170,201h1m615,8h1M542,85h1M179,469h1m120,79h1M560,94h1M80,314h1M181,236h1M342,57h1M877,390h1M752,460h1M592,554h1M372,95h1M339,522h1M743,498h1M326,562h1m60,12h1M713,127h1m-455,1h1M827,353h1M106,263h1M640,546h1M234,497h1M196,118h1M879,315h1M382,541h1M133,201h1m693,11h1M322,528h1m289,13h1M220,530h1M851,425h1M664,100h1m2,43h1M586,553h1M752,119h1m84,242h1M291,495h1M313,144h1M158,453h1m65,73h1M290,102h1M445,85h1M144,475h1m300,92h1M276,552h1M502,74h1M774,477h1M124,343h1M822,310h1M137,302h1M336,118h1M128,159h1M894,330h1M799,149h1m77,182h1M499,111h1M364,101h1m372,16h1M599,70h1M374,31h1M772,134h1m-71,44h1m21,-62h1M138,192h1M827,374h1M742,520h1M213,508h1M888,252h1M667,541h1M170,446h1M255,101h1M847,296h1M94,164h1m17,82h1m15,142h1M748,525h1M185,117h1M86,320h1M288,70h1m50,20h1M910,306h1M420,45h1M204,478h1m14,82h1M267,119h1M772,462h1M143,439h1M836,330h1M792,184h1M667,544h1M287,576h1M499,84h1M98,439h1M323,62h1M876,305h1M105,219h1m66,248h1M458,50h1M141,438h1M696,122h1M382,110h1M298,553h1m207,12h1M351,55h1M679,561h1M84,166h1M362,102h1M871,352h1M454,38h1M397,577h1M118,212h1M328,137h1M303,534h1M591,45h1M363,75h1M293,98h1M526,535h1M320,161h1M468,66h1M200,513h1M840,290h1M234,100h1M134,173h1M681,89h1M879,280h1M416,95h1m64,481h1m25,15h1M841,388h1M168,432h1M623,134h1m0,-54h1M274,491h1m415,42h1M116,239h1M731,465h1M873,393h1M145,154h1M309,96h1m41,-4h1M663,572h1M215,500h1M179,475h1m264,95h1M740,512h1M863,306h1M372,82h1M166,188h1M153,445h1M882,264h1M251,120h1M599,72h1m77,7h1M874,327h1M500,75h1M621,580h1M339,553h1m262,7h1M284,551h1M536,105h1M819,211h1M412,62h1M875,262h1M220,123h1m592,24h1M455,557h1M119,321h1M822,423h1M357,78h1m275,4h1m86,2h1M107,340h1m7,-21h1M637,529h1M76,235h1M355,527h1M857,219h1M154,201h1M468,74h1M150,163h1M132,424h1m626,53h1M851,326h1m-12,35h1M192,156h1M339,554h1M767,515h1M462,69h1m252,60h1M697,537h1m-99,15h1M335,98h1M673,91h1M840,252h1M94,378h1M73,243h1M268,117h1M119,409h1M439,576h1M615,530h1M91,304h1M743,519h1M724,93h1m61,356h1M460,71h1M128,368h1M827,272h1M186,150h1M93,177h1m28,75h1M588,513h1M835,308h1M256,522h1m189,50h1M262,84h1M526,568h1M154,403h1M402,65h1m-8,506h1M151,495h1M790,447h1M135,372h1M68,270h1M323,112h1m464,39h1M762,122h1M238,480h1M856,301h1M499,560h1M384,581h1M72,364h1m695,66h1M339,117h1M153,449h1M258,104h1M120,355h1M805,202h1M707,560h1M179,503h1M771,471h1M737,147h1M188,203h1M695,530h1m-60,74h1M595,587h1M132,293h1M852,225h1M374,80h1M834,317h1M312,137h1M852,360h1M707,119h1M451,573h1M296,119h1M663,523h1m-405,0h1m443,15h1M238,104h1M634,77h1M453,554h1M665,128h1M198,486h1M126,236h1M825,383h1M361,584h1M680,564h1M232,93h1M121,421h1M816,243h1M200,126h1m569,30h1M318,551h1M247,504h1M179,394h1M734,127h1M843,377h1m47,-11h1M355,58h1M188,114h1m583,24h1M511,577h1M885,321h1M448,60h1m246,50h1M354,107h1m11,482h1M87,300h1M772,470h1M848,342h1M250,97h1M129,358h1M66,302h1m853,56h1M76,307h1M759,477h1M443,570h1M195,166h1M650,44h1M94,275h1M888,244h1M830,158h1M392,89h1M819,475h1M572,75h1M742,510h1m-65,34h1M555,590h1M138,331h1M207,121h1M341,99h1M381,54h1M824,413h1M463,598h1M398,70h1M715,95h1M706,514h1M73,343h1M570,81h1M750,493h1M275,72h1M622,53h1M606,588h1M143,368h1M723,140h1M517,14h1M108,336h1M544,617h1M668,523h1M837,362h1m91,-16h1M694,105h1M159,462h1M308,64h1M732,173h1m128,-4h1M566,567h1M94,381h1M859,363h1m69,-84h1M877,247h1M855,455h1M851,227h1m28,51h1M243,571h1M306,80h1M491,69h1m178,32h1M301,60h1M744,478h1M218,169h1M167,454h1M560,589h1M166,385h1M123,247h1M230,491h1M823,256h1M118,293h1M813,235h1M136,395h1M197,124h1m-18,66h1M91,402h1m47,1h1M448,67h1M188,442h1M89,244h1m85,227h1M568,72h1M180,125h1M261,89h1M159,417h1M537,76h1M670,60h1M255,137h1M104,372h1M846,258h1M673,121h1M92,456h1M150,292h1M803,432h1M68,333h1M393,67h1M151,256h1M855,360h1M224,529h1m19,-22h1M204,474h1M599,583h1M812,308h1M760,494h1M821,198h1M104,266h1M621,87h1M187,194h1M745,454h1M694,121h1M473,552h1M635,537h1M87,405h1M402,569h1M652,549h1M480,57h1M636,72h1M357,556h1M834,373h1m36,17h1M504,583h1M202,461h1M588,575h1M881,342h1M818,215h1M774,143h1M246,123h1M842,393h1M127,350h1M472,43h1M349,545h1M705,527h1m-491,7h1M414,88h1M114,282h1M130,148h1M345,79h1M76,253h1m50,18h1M67,371h1M833,218h1M169,89h1M364,560h1M144,197h1M389,95h1M122,388h1M88,285h1M275,494h1m431,-5h1M102,416h1M204,179h1M174,495h1M887,281h1M376,556h1M813,424h1M484,47h1M670,554h1M84,222h1M198,525h1m62,23h1M247,533h1M804,444h1M314,78h1m53,12h1M748,499h1M765,125h1M317,577h1M469,69h1M640,93h1M921,325h1M418,89h1M832,264h1m8,127h1M292,522h1M149,216h1M661,71h1M876,264h1m2,55h1M364,560h1M811,378h1M77,239h1M858,208h1M602,113h1M285,507h1m28,57h1M623,86h1M74,183h1m52,5h1m-4,251h1M110,393h1M396,56h1M382,582h1M394,88h1m313,3h1M118,380h1m2,98h1m510,88h1M437,83h1M197,501h1m349,54h1M86,362h1M604,76h1M317,533h1M854,277h1M709,158h1M230,67h1m-14,67h1M696,122h1M136,254h1M446,565h1M188,147h1M610,70h1m54,35h1M878,348h1M758,146h1m69,326h1M536,74h1M300,566h1m159,7h1m21,-21h1M804,293h1M411,41h1M604,578h1M780,472h1M479,73h1m-74,2h1m5,496h1m134,10h1M131,420h1m667,51h1M101,312h1M249,484h1m389,80h1M254,149h1M811,451h1M162,431h1M737,88h1M691,528h1M813,202h1M663,575h1M497,95h1M231,572h1M810,484h1m-63,3h1M78,400h1m31,-71h1M569,558h1M705,520h1M559,590h1M815,359h1M168,263h1M700,120h1M870,358h1M843,297h1m3,-57h1M455,73h1m14,25h1M91,336h1M909,302h1M733,480h1M614,537h1M850,152h1M225,443h1M131,226h1m10,161h1m657,56h1m-51,39h1M155,463h1m6,-22h1M853,395h1M653,537h1M206,175h1M822,457h1M579,114h1m205,82h1m59,128h1M151,411h1M412,564h1M125,271h1M445,75h1M642,543h1M202,73h1m16,103h1M146,306h1M378,60h1m258,3h1M206,456h1M546,76h1M225,164h1m589,67h1M799,404h1m78,-90h1M606,579h1M327,99h1M189,478h1M618,82h1M849,495h1M259,505h1M874,297h1M863,283h1M825,212h1M563,588h1M398,114h1M254,525h1M885,312h1M446,57h1M390,585h1m-43,24h1M515,548h1M109,359h1M606,554h1M689,96h1M328,577h1M316,115h1M441,595h1M77,248h1M808,127h1M369,478h1M841,454h1M151,452h1M261,109h1m-60,29h1M839,402h1M641,541h1M63,269h1M736,529h1M151,450h1M849,393h1M207,463h1m567,9h1M840,165h1M815,481h1M124,439h1m578,52h1M739,131h1M385,533h1m312,53h1M870,291h1M818,425h1M189,215h1M776,131h1M138,448h1M126,263h1M69,282h1M381,546h1M815,398h1M792,151h1m25,268h1M770,176h1M610,80h1M44,337h1M415,569h1M239,494h1M803,171h1m40,133h1M606,72h1M228,501h1M755,130h1M121,469h1M770,122h1M154,439h1M351,583h1M438,57h1m277,50h1M377,544h1M98,396h1M289,104h1M375,62h1M184,189h1m2,34h1M147,435h1M358,583h1M356,63h1M819,313h1M293,109h1M440,68h1M907,266h1M220,491h1m278,96h1M823,237h1M554,547h1M854,367h1M162,459h1M868,304h1M568,581h1M345,548h1M752,103h1M195,514h1M416,54h1M150,460h1M810,124h1M746,534h1M215,489h1M716,112h1M120,203h1m-3,86h1M616,92h1M414,68h1M850,416h1M76,282h1M451,82h1M418,593h1M140,460h1M798,429h1M199,103h1M597,571h1M432,72h1M637,87h1M111,422h1M342,82h1M272,72h1M637,90h1M110,427h1M284,77h1M713,94h1M368,65h1M874,197h1M124,388h1M170,196h1M772,464h1m-81,0h1M853,259h1M257,114h1M815,447h1M439,567h1M733,136h1M460,589h1M847,391h1M868,238h1M734,516h1M374,68h1M571,551h1M809,177h1M117,298h1M518,530h1m140,48h1M534,120h1M313,106h1M836,395h1M637,536h1m-63,30h1M880,368h1M466,93h1M127,319h1M357,548h1m369,0h1M529,574h1M117,409h1M399,563h1M419,80h1M454,30h1M420,570h1M62,390h1M874,373h1M93,393h1m8,-3h1M396,66h1m258,35h1M241,517h1M301,107h1M322,71h1M173,481h1M777,467h1m9,-339h1m-32,5h1M102,308h1M360,97h1M536,610h1M99,323h1M614,540h1m-62,48h1M312,539h1M83,429h1M850,219h1M69,370h1M78,194h1M676,548h1M397,70h1M307,527h1M178,131h1M295,555h1M677,128h1m50,416h1m63,-75h1M179,465h1M169,183h1M810,171h1M223,165h1M642,555h1M154,232h1M319,70h1M267,521h1M573,90h1M173,443h1m6,-262h1M672,522h1M878,416h1M538,68h1M869,328h1M682,138h1M850,307h1M820,418h1M195,176h1M130,156h1m704,45h1m-6,72h1m17,71h1M668,528h1M277,90h1m12,463h1M497,78h1M140,279h1M822,454h1M531,70h1m278,92h1m7,27h1M473,59h1M116,412h1M371,541h1M179,122h1M285,96h1M648,94h1M312,106h1M339,60h1M520,56h1m225,73h1M113,298h1M248,122h1M586,570h1M88,226h1M846,439h1M720,133h1M131,212h1M574,571h1M811,481h1M682,135h1M228,110h1M771,486h1M188,542h1M709,502h1M360,556h1m241,15h1M830,292h1M466,45h1m275,92h1M705,126h1M497,54h1M464,53h1M758,480h1M892,318h1M313,85h1M575,566h1M411,65h1M633,56h1m71,57h1M537,77h1M503,588h1M260,473h1M461,48h1M744,99h1M532,37h1M848,163h1M317,107h1m39,-6h1M284,566h1M212,114h1M655,538h1m-355,6h1M445,83h1M132,301h1M850,401h1M346,124h1M224,87h1M837,341h1M785,467h1M298,64h1M74,227h1M208,131h1M744,114h1m15,89h1M231,113h1M546,51h1m96,516h1M603,87h1M143,196h1M589,66h1M146,287h1M588,556h1M129,219h1M467,61h1M843,228h1M490,83h1M804,226h1M320,110h1M119,320h1M97,210h1m22,10h1M549,75h1M857,258h1M614,551h1m4,38h1M97,438h1M449,593h1M791,179h1M281,548h1M610,102h1M398,552h1M754,182h1M151,409h1m97,106h1m221,22h1M241,154h1M121,213h1M472,61h1M772,423h1M187,213h1M703,156h1M854,340h1M836,259h1M291,533h1M324,71h1M564,533h1M92,260h1M255,114h1m552,46h1M137,202h1M704,79h1M97,423h1M889,270h1m45,95h1M103,290h1M582,583h1M180,157h1M487,558h1M574,114h1m89,413h1M422,579h1M635,533h1M825,316h1m52,70h1M327,556h1M886,283h1m-6,16h1M173,134h1M492,68h1m214,90h1m65,-3h1m-1,-48h1m91,172h1M565,88h1M300,538h1M198,136h1m-8,-4h1M781,466h1M190,176h1M604,64h1M359,95h1M135,357h1M442,70h1M836,362h1M161,235h1M729,130h1M442,557h1M755,488h1m-45,48h1M876,369h1M121,381h1m676,85h1m-74,81h1M485,101h1M282,529h1M156,416h1M671,106h1M489,67h1M131,300h1M102,228h1m767,97h1M332,73h1m28,24h1M114,279h1M520,536h1M112,288h1M470,69h1m38,28h1m19,472h1M341,42h1M862,378h1M149,179h1M578,570h1M812,329h1M84,372h1M846,234h1M80,291h1M762,496h1M522,549h1M585,61h1M396,100h1M72,344h1M506,544h1M529,71h1M466,61h1M331,580h1M462,67h1M86,348h1M742,114h1M100,336h1M219,550h1M604,51h1M274,560h1M108,216h1M757,465h1M908,377h1M393,104h1m26,448h1M689,114h1M92,332h1m715,35h1M845,248h1M754,472h1M386,78h1M850,372h1M751,178h1M244,524h1M892,262h1M171,502h1m32,16h1M681,107h1M148,361h1M681,104h1M268,83h1M433,554h1M665,151h1M324,76h1M825,446h1m29,-84h1M108,235h1m20,13h1M230,134h1m55,403h1M898,250h1m-37,44h1M549,94h1M154,430h1M133,178h1m34,188h1m21,37h1M682,568h1M388,561h1M608,90h1M64,370h1M588,64h1M784,478h1M609,93h1m137,49h1M122,222h1M245,142h1M409,582h1M368,66h1M816,302h1m5,109h1M808,269h1M397,60h1m20,494h1M385,530h1M73,369h1M682,80h1M858,298h1M580,577h1m15,4h1M912,393h1M251,523h1m71,33h1M587,96h1M193,441h1M517,564h1M145,485h1M156,382h1M754,158h1m84,30h1M98,296h1M823,249h1m45,32h1M803,132h1M281,96h1M745,483h1M344,571h1M176,196h1M398,605h1M226,495h1M745,475h1M143,448h1M682,565h1M125,353h1M715,538h1M812,398h1M841,281h1M621,555h1M477,39h1M92,215h1M704,110h1M590,556h1M105,300h1M443,28h1M710,134h1M665,70h1M870,432h1M595,591h1M845,336h1M264,518h1M850,234h1M182,476h1m28,-21h1M315,60h1M893,309h1M829,279h1M144,390h1M310,90h1M479,47h1m318,89h1M648,135h1M190,177h1m44,298h1M337,70h1m-91,64h1M122,337h1M728,522h1M141,174h1M519,84h1M201,137h1m79,415h1M205,478h1M380,99h1M166,123h1M814,335h1M796,163h1m64,196h1M658,543h1M515,62h1M205,120h1m10,387h1M635,79h1M808,228h1m4,184h1M467,549h1M73,369h1m17,55h1M673,119h1M560,77h1M140,189h1M642,150h1m168,8h1m7,236h1M61,305h1M695,537h1M80,381h1M365,83h1M492,574h1M780,494h1M792,201h1M441,553h1M205,168h1m-78,76h1m-9,-61h1m20,-49h1M430,598h1M120,260h1M286,549h1m344,14h1M164,465h1M126,267h1M585,552h1M680,126h1M348,58h1M488,605h1M370,50h1M131,377h1M372,588h1M718,97h1m76,408h1M831,168h1M605,569h1M856,414h1M115,278h1M72,320h1M225,454h1M611,555h1m80,-44h1M568,548h1M768,156h1m65,112h1M521,57h1M900,356h1M224,139h1M900,303h1M325,87h1M99,268h1M811,256h1M744,114h1M294,567h1M400,46h1M509,86h1M221,506h1M463,606h1M416,573h1M834,302h1M287,97h1m-5,35h1M243,113h1M164,414h1M291,84h1M860,438h1M128,410h1M850,309h1M161,138h1M806,412h1M115,245h1m15,108h1M201,188h1M167,170h1M325,560h1M630,108h1m185,99h1M761,480h1M302,548h1m183,51h1M137,411h1m691,4h1M717,150h1M132,330h1M191,152h1M121,324h1M787,148h1M560,82h1M374,554h1M665,93h1m25,-2h1M92,439h1M746,163h1M331,525h1M662,506h1M115,198h1M544,543h1M224,499h1M843,214h1m-732,7h1M549,65h1M707,526h1M142,408h1M633,101h1m21,425h1M299,81h1M73,299h1M519,580h1M834,390h1M284,62h1M35,216h1m76,226h1M786,228h1M217,133h1M127,270h1M759,149h1M125,205h1m717,18h1M293,549h1M541,60h1m42,40h1M467,567h1M829,462h1M339,92h1m-2,-3h1M837,303h1M150,377h1M172,145h1M762,510h1M708,97h1M163,214h1m704,-3h1M847,329h1m3,-38h1M181,532h1M415,52h1M722,492h1M222,105h1M173,490h1M862,332h1M783,439h1M414,601h1M781,178h1M190,198h1M842,418h1M52,351h1M880,283h1M663,532h1M642,66h1M354,560h1M341,71h1M786,475h1M190,181h1M699,120h1M165,461h1M278,123h1M316,44h1M561,582h1M418,28h1M390,573h1M450,98h1M128,212h1m64,-49h1m21,-19h1M182,496h1m489,51h1M485,75h1M894,424h1M140,210h1M590,542h1M132,174h1M844,276h1M108,403h1M628,525h1M113,169h1M655,536h1m-93,41h1M880,362h1M784,144h1M106,328h1M220,507h1m6,-244h1M658,531h1M427,60h1M826,252h1M696,115h1M350,79h1M461,53h1m86,13h1M918,342h1M94,402h1M620,90h1m-3,487h1M341,41h1M495,65h1m189,56h1M388,594h1M706,132h1M687,554h1M161,161h1m78,381h1M824,431h1M148,259h1M161,145h1M228,91h1M116,264h1M256,104h1M585,593h1m50,-39h1m-25,8h1M843,338h1M183,159h1M107,306h1M781,454h1M158,244h1m50,250h1m278,24h1m19,34h1M485,50h1M90,326h1M233,551h1M809,221h1M740,102h1M564,611h1M122,264h1M557,58h1M371,58h1M724,509h1M366,589h1M156,216h1M475,62h1M340,80h1m451,82h1M167,103h1M313,524h1M854,210h1M141,155h1m83,383h1M428,74h1m-89,27h1m428,78h1M124,224h1m26,232h1M598,52h1M385,105h1M646,538h1M874,359h1m-45,87h1M451,568h1M818,196h1M640,111h1m-462,2h1M868,278h1M371,559h1M784,492h1M115,290h1M267,554h1m302,45h1m80,-66h1m-16,36h1M878,330h1M355,560h1m347,21h1M492,571h1M658,517h1M121,388h1M435,75h1M777,488h1m-9,-19h1M710,172h1M594,530h1M420,81h1m334,90h1M531,69h1M178,464h1M819,335h1M541,72h1M854,363h1m-71,86h1M287,519h1M829,229h1M608,596h1M891,326h1M72,334h1M228,96h1M375,82h1M194,158h1M123,388h1M491,63h1M596,563h1M389,90h1M591,528h1M172,478h1M343,104h1M782,495h1M851,217h1M671,132h1M119,404h1m-1,-72h1M768,194h1M597,98h1M236,98h1m462,36h1M809,431h1M158,446h1M805,190h1m-638,1h1m687,70h1M245,119h1M796,438h1M342,122h1m63,478h1M855,379h1M562,70h1M780,196h1m25,196h1M774,511h1M106,211h1M717,124h1M897,304h1m-18,96h1M259,548h1M522,62h1M192,470h1m608,-9h1M674,573h1M826,375h1M453,53h1M288,561h1M796,446h1M167,151h1M742,552h1M848,245h1M169,188h1M430,33h1M557,528h1M348,549h1M729,511h1M882,211h1M122,328h1M196,168h1M555,78h1M871,281h1M89,310h1m89,131h1M138,189h1m35,-35h1M714,505h1M337,79h1M859,249h1M469,565h1m40,59h1M852,448h1M87,369h1m736,44h1M154,438h1m635,52h1M373,70h1M221,151h1M106,430h1M146,177h1M492,566h1M821,196h1M343,553h1M103,410h1M322,94h1M804,415h1M753,533h1M128,390h1M920,293h1M436,86h1m341,57h1M917,354h1M762,505h1m-79,40h1M807,180h1M550,65h1M59,314h1M301,136h1M845,363h1M165,431h1m2,-279h1M570,558h1M905,419h1M444,31h1M158,178h1m640,77h1M749,519h1M804,384h1M72,265h1M275,545h1M830,386h1M569,594h1M336,522h1M136,290h1M343,96h1M107,255h1M660,552h1M675,126h1M342,94h1M169,470h1M59,399h1M257,178h1M388,577h1M289,106h1M98,321h1M232,487h1M82,395h1M683,547h1M792,482h1M498,65h1M868,252h1m-81,-4h1M384,111h1M163,123h1M153,390h1m3,31h1M441,51h1M750,181h1m50,41h1M95,349h1M701,96h1m22,12h1m-44,10h1M903,230h1M420,566h1M82,237h1M825,152h1M761,471h1M141,328h1M101,268h1M206,127h1M167,441h1M819,186h1M60,337h1M760,120h1m-18,18h1M853,397h1M640,93h1m113,39h1M203,466h1M443,43h1M759,483h1M222,180h1M716,129h1m9,446h1M263,63h1M403,586h1M361,527h1M158,180h1M632,558h1M844,391h1m-6,57h1M154,418h1M844,258h1M303,75h1M195,172h1m661,37h1m-16,5h1M348,562h1M675,533h1M759,132h1M867,378h1M359,77h1M862,394h1M562,52h1M862,161h1M126,267h1m67,245h1M135,117h1M652,85h1M589,545h1M209,101h1M527,586h1M469,55h1M906,329h1M829,293h1m2,22h1M815,290h1m22,-74h1M142,462h1m58,58h1m305,23h1M133,377h1m-32,43h1M214,565h1M131,334h1M242,121h1M849,255h1M640,555h1M888,315h1M387,88h1M100,288h1M806,191h1M394,568h1M822,331h1m61,-37h1M82,317h1m42,39h1M765,164h1M455,582h1M305,109h1m503,68h1M207,485h1M560,71h1M125,434h1M99,313h1M794,197h1M546,98h1M112,224h1M841,421h1M214,154h1M741,78h1M125,369h1M860,306h1M372,90h1m14,470h1M846,312h1M344,557h1M660,538h1M843,400h1M149,448h1M849,212h1M459,59h1M323,560h1M823,260h1M127,248h1M657,96h1M94,220h1M791,376h1M600,519h1M820,351h1M553,84h1M762,185h1M665,551h1M204,118h1M686,532h1M770,117h1M570,29h1M360,565h1M617,64h1M759,514h1M838,267h1m-2,-57h1M802,446h1M849,312h1M216,184h1M130,405h1m652,64h1M615,106h1M51,407h1M341,544h1M481,66h1m23,523h1M159,507h1M860,357h1m20,-5h1M382,548h1M907,368h1M252,130h1M860,251h1M713,105h1m-509,9h1m511,40h1M126,261h1M337,85h1M606,538h1M256,115h1M847,426h1M181,443h1M100,308h1m706,87h1M249,94h1M496,34h1M853,440h1m-71,35h1M749,174h1M101,223h1m-1,128h1M366,530h1M828,183h1M133,460h1M311,82h1M848,334h1M226,483h1m268,88h1M268,551h1M374,34h1m68,57h1M742,499h1M804,159h1M80,403h1M92,229h1M78,379h1M661,532h1M850,373h1m20,-59h1M415,549h1m80,54h1M330,553h1M150,471h1M562,573h1M765,448h1M407,90h1M187,456h1M472,43h1M134,217h1M112,202h1M366,564h1M130,203h1m731,43h1M853,401h1M460,62h1M449,94h1M319,62h1M558,569h1M301,541h1M614,62h1m44,445h1m-60,53h1M832,215h1M481,572h1M841,291h1M440,578h1M597,84h1M781,461h1M103,383h1m68,83h1M213,121h1M439,543h1M50,264h1M228,529h1M124,226h1M813,364h1M163,244h1M370,506h1M870,306h1M552,577h1M109,381h1M464,85h1M200,499h1M851,260h1M220,149h1M712,515h1M300,80h1M200,327h1M499,87h1M864,442h1M380,606h1M236,149h1M118,323h1M827,439h1m-33,27h1M617,89h1m54,51h1M784,466h1M336,87h1m66,-5h1M151,189h1M89,307h1m763,61h1M512,96h1m59,491h1m-1,-12h1M654,51h1M534,95h1M800,447h1M490,35h1M343,55h1M811,200h1M584,585h1M829,255h1M326,551h1M755,197h1M181,487h1M153,209h1M817,333h1M786,468h1m38,10h1M623,562h1M831,435h1M130,305h1M162,184h1M318,100h1M280,511h1M146,447h1M776,426h1M619,516h1M835,178h1M226,474h1m88,72h1M251,89h1M410,48h1M202,87h1M95,240h1M673,68h1M779,224h1M178,487h1m607,-2h1M162,451h1M530,39h1M406,580h1M181,470h1M537,59h1M127,435h1M497,53h1M171,478h1M853,359h1M267,580h1m13,-32h1M125,252h1M853,439h1M827,416h1M663,99h1M422,47h1M854,285h1M487,54h1M833,218h1m27,134h1M358,560h1M306,91h1M889,260h1M530,74h1M265,532h1M176,132h1m0,314h1M121,207h1M741,465h1M290,96h1M51,297h1M166,132h1M690,536h1M798,355h1M670,562h1M828,151h1M130,436h1M506,598h1M905,133h1M475,44h1M790,263h1M162,390h1M799,132h1M660,564h1M122,400h1m24,65h1M229,135h1M544,66h1M131,335h1M729,123h1M437,585h1M226,531h1M267,111h1M181,433h1M866,181h1M470,39h1M111,318h1M364,75h1M117,166h1M402,82h1m-3,526h1M256,77h1m503,72h1M461,87h1M541,65h1M517,30h1M238,134h1M108,426h1M349,88h1M103,176h1m56,2h1M143,158h1M433,91h1M230,116h1M359,543h1M107,300h1m4,-108h1M827,339h1M761,519h1m-80,45h1m-117,7h1M450,55h1M702,502h1M366,557h1M354,50h1M789,492h1M712,137h1m-66,0h1M443,593h1M579,546h1M676,94h1M72,226h1M244,131h1M505,66h1M95,277h1M591,65h1M157,436h1M326,108h1M112,401h1M765,159h1M716,112h1M290,510h1M423,77h1M185,269h1m-49,77h1M657,110h1M460,559h1M249,103h1m-48,55h1M708,109h1M193,407h1M854,212h1M502,570h1M110,435h1M675,127h1M159,171h1m26,325h1M876,274h1M504,615h1M407,75h1M885,433h1m6,-182h1M471,58h1M328,540h1M526,96h1M444,61h1M268,117h1M803,337h1m-671,6h1M278,99h1m51,20h1M850,301h1m-5,-36h1M185,140h1M868,266h1M314,566h1M342,109h1M666,535h1M203,137h1M189,495h1M328,71h1M129,155h1M613,103h1M268,552h1m258,38h1M208,152h1m0,69h1M117,468h1M423,91h1m292,16h1M845,345h1M43,266h1M248,168h1M498,78h1m68,18h1M676,596h1M526,547h1M133,429h1M257,155h1M715,551h1M173,151h1M344,564h1M709,144h1M871,319h1M67,380h1M694,528h1M451,68h1M136,170h1M304,542h1M159,472h1M849,339h1M235,94h1M866,419h1M802,188h1m56,69h1M130,420h1M479,587h1m100,-2h1M143,194h1M771,488h1M142,314h1M439,50h1M826,228h1M792,185h1M259,153h1M497,53h1M830,237h1m-23,11h1M222,476h1m486,29h1M535,581h1M526,70h1M172,172h1m78,371h1M874,368h1M129,426h1m639,63h1M846,200h1M89,365h1M591,79h1M69,382h1M179,229h1M759,116h1M91,432h1M896,328h1M852,210h1M559,552h1M204,131h1M559,66h1M180,167h1M558,47h1M425,41h1M630,548h1M493,52h1M115,320h1M245,524h1m275,41h1M783,113h1m83,313h1M327,85h1M829,378h1M846,203h1M502,55h1M812,232h1m18,165h1m-76,79h1M102,268h1m33,158h1m615,31h1M646,48h1m41,53h1M107,343h1M593,113h1M504,567h1M288,94h1M181,490h1M390,90h1M104,342h1M888,286h1M577,586h1M454,91h1M130,346h1M91,327h1m788,42h1M618,550h1m-38,14h1M690,114h1M79,324h1M457,565h1M744,507h1M161,414h1m64,132h1m40,-12h1M517,71h1M279,74h1M621,56h1M151,435h1M418,93h1M73,301h1m35,130h1M275,102h1M225,551h1M174,144h1m96,-4h1M433,54h1M302,79h1M488,21h1M293,566h1M760,503h1M744,139h1m52,323h1M308,41h1M521,65h1M878,360h1M721,505h1M534,599h1M729,527h1m87,-11h1M866,263h1M492,545h1M743,158h1M312,549h1M723,174h1M118,339h1m89,142h1M488,582h1M99,285h1M789,143h1M218,498h1m609,14h1M698,122h1M389,572h1M138,279h1M359,86h1m303,20h1M874,378h1M530,532h1M121,379h1M733,114h1M81,246h1M598,109h1M580,81h1M780,455h1M337,554h1m297,-8h1M879,348h1M200,496h1M144,254h1M366,533h1M723,491h1M227,128h1M197,517h1M107,390h1M821,212h1M665,533h1M773,463h1m100,-9h1M615,565h1M739,497h1M384,556h1M539,68h1M716,530h1m8,-20h1M283,73h1M487,598h1M845,295h1M384,79h1M885,384h1M343,568h1M882,272h1M165,290h1m697,85h1M500,75h1M226,528h1M270,94h1M521,77h1M535,51h1M761,468h1M139,379h1M243,524h1M733,99h1M303,527h1m0,-418h1m503,67h1m-5,-14h1M558,67h1M326,515h1M441,67h1M200,156h1M122,316h1M636,544h1M580,77h1M385,553h1m221,47h1M195,464h1M485,594h1M213,523h1M191,115h1M726,493h1M725,88h1M571,558h1M835,390h1M570,545h1M238,564h1M103,404h1M685,542h1M117,246h1m46,155h1m17,70h1M650,94h1M155,184h1M137,440h1m8,-232h1M68,275h1M818,479h1m44,-67h1M529,67h1M284,509h1M97,477h1M865,246h1M845,365h1M617,537h1M438,557h1M820,159h1M446,576h1M526,68h1M807,223h1M421,572h1M828,438h1M581,60h1M852,370h1M507,578h1M651,52h1M789,453h1m72,-30h1M554,56h1M308,74h1M901,373h1M231,142h1m98,404h1m-65,-3h1M842,280h1M785,178h1M717,111h1M260,497h1M874,318h1M837,241h1M450,64h1M210,153h1M106,429h1m620,62h1M657,94h1M789,484h1M542,69h1M774,493h1M693,108h1M377,583h1M160,342h1M829,230h1m-17,5h1m48,-28h1M119,344h1M318,98h1M840,399h1M535,99h1M107,359h1M657,69h1M111,394h1M603,58h1M158,395h1M135,161h1M717,526h1M471,83h1M119,193h1M392,69h1M734,480h1M350,549h1M377,52h1M806,179h1m63,198h1M173,145h1m-55,82h1M813,417h1M132,390h1M300,105h1M664,518h1m-38,26h1M778,149h1M50,362h1M437,54h1m31,32h1M216,543h1M680,513h1M817,180h1M123,454h1M36,332h1M842,283h1M538,519h1M412,76h1M273,101h1M460,596h1M125,204h1M757,504h1M68,413h1M858,340h1M747,151h1M737,536h1M122,333h1m64,195h1M808,199h1M415,64h1M199,182h1M737,506h1M453,71h1M118,266h1M624,579h1M587,60h1M688,52h1M316,107h1m358,-2h1m30,422h1M506,595h1M719,129h1m1,5h1m87,210h1m-12,86h1M109,223h1M868,406h1M88,373h1M629,562h1M792,399h1M63,292h1M312,93h1M751,503h1M261,527h1M171,171h1M880,333h1M17,349h1M818,469h1M709,150h1M141,319h1m-7,103h1M697,132h1M396,569h1M271,564h1M813,489h1M132,214h1M853,395h1M781,520h1M750,156h1M739,513h1M420,563h1M143,215h1M564,578h1M387,79h1M499,51h1M763,447h1M163,192h1M577,77h1M144,473h1M839,192h1M767,513h1M123,432h1m705,21h1m30,-32h1M118,263h1m22,-84h1M417,562h1M868,297h1M666,96h1M92,393h1m724,85h1M788,146h1M184,498h1m240,80h1M168,525h1M856,210h1m-18,-2h1M113,299h1M284,126h1M734,99h1M847,266h1M603,584h1m88,-77h1M142,401h1M208,184h1M719,511h1M100,203h1M792,127h1M475,577h1M480,83h1m330,92h1M101,376h1M864,220h1M481,62h1M640,517h1M591,104h1m23,27h1m45,392h1M192,537h1m573,3h1M566,581h1m-69,4h1M694,74h1M548,565h1M804,234h1M87,223h1M357,511h1M147,477h1M860,360h1M62,377h1M207,144h1M788,382h1M851,199h1M347,517h1M167,494h1M347,99h1M322,520h1M479,59h1M252,502h1M169,262h1m-73,1h1M367,74h1M716,519h1M863,361h1m5,-63h1M762,468h1M154,206h1M372,111h1M814,450h1M253,500h1M112,388h1m38,59h1M820,224h1M579,60h1M430,41h1M161,168h1m16,279h1M105,381h1m681,78h1M347,81h1M225,134h1m-18,18h1M40,353h1M150,231h1M646,86h1M831,217h1m-22,81h1M347,509h1m293,-2h1M843,439h1M125,234h1M852,432h1M709,114h1M881,347h1M713,496h1M127,231h1M612,61h1M825,408h1M356,545h1M174,486h1M863,365h1M76,406h1M455,52h1M787,489h1M174,434h1m80,63h1m180,51h1M607,77h1M304,529h1m-27,25h1M363,68h1M646,542h1M842,314h1M604,521h1M454,549h1M189,165h1M418,68h1M94,454h1M226,100h1M868,310h1m-32,30h1M100,410h1m670,36h1M81,257h1M600,80h1M877,285h1M88,250h1M731,494h1M886,222h1M200,162h1M445,574h1M860,268h1M130,417h1M668,538h1M279,557h1m5,-455h1M60,367h1M99,324h1M839,221h1M444,71h1m334,32h1M582,59h1M547,587h1M254,93h1M110,327h1M722,181h1M364,120h1M815,445h1M413,67h1M243,105h1m259,5h1M429,566h1M845,348h1M219,488h1M853,315h1M320,96h1M700,525h1M58,227h1M309,551h1M704,494h1m-85,94h1m-219,0h1M764,149h1M136,385h1M475,44h1M285,523h1M108,397h1M353,88h1M196,438h1M807,391h1m84,-50h1M285,104h1M799,457h1M558,84h1m111,1h1M362,573h1M110,186h1M398,585h1m-2,-28h1M815,263h1M616,550h1m-259,4h1M129,362h1M569,102h1M754,502h1M113,229h1m816,98h1M712,123h1M742,91h1M663,560h1M797,170h1M704,107h1m-18,41h1M93,450h1M388,84h1M165,216h1M150,435h1M649,554h1M415,566h1M497,84h1M653,79h1M336,512h1m223,74h1M649,91h1m-30,3h1M89,301h1M832,446h1M334,549h1M661,120h1M252,165h1M363,559h1M228,498h1m327,48h1M152,436h1M484,66h1m244,45h1m85,69h1m-610,4h1M600,86h1M73,304h1M509,90h1M833,390h1M769,100h1M471,584h1M79,444h1M555,565h1M113,246h1m747,45h1M814,453h1M831,314h1M728,519h1M850,340h1m37,-6h1M49,280h1M450,75h1M876,253h1M641,84h1m118,48h1M131,309h1M472,37h1M855,191h1m-5,101h1M772,125h1M343,526h1m187,22h1M438,53h1M120,294h1M344,129h1M181,443h1m42,41h1M403,42h1m21,11h1M122,330h1m4,-55h1M150,136h1M303,113h1M462,65h1m85,495h1M116,360h1M643,100h1M519,585h1M151,122h1m692,95h1M769,541h1M886,383h1M359,42h1M849,289h1M612,101h1M836,409h1M865,309h1M155,206h1m674,19h1M793,421h1M316,537h1m279,-6h1M498,37h1M289,522h1m213,43h1M164,480h1M370,43h1M482,65h1M160,180h1M642,544h1M418,91h1M120,394h1M518,582h1M104,337h1m52,57h1M843,160h1M731,505h1M833,224h1M157,183h1M304,113h1M858,273h1M278,547h1M855,389h1M803,255h1M237,133h1M425,591h1M848,373h1M220,131h1M166,383h1M856,363h1m-72,99h1M529,71h1m62,506h1M196,437h1M786,143h1M615,51h1M775,418h1M394,85h1M210,499h1m62,40h1M258,510h1m295,58h1M174,183h1m666,37h1m-664,2h1m653,61h1M708,499h1M497,590h1M225,192h1M744,474h1M480,60h1M833,381h1M858,243h1M613,567h1M809,160h1m27,127h1M355,86h1m367,66h1m65,376h1m50,-68h1M136,190h1M821,425h1m0,-122h1M284,502h1m238,55h1M863,328h1M261,559h1M150,403h1m662,19h1M322,566h1M94,355h1M560,68h1M820,316h1M660,98h1M421,577h1M552,78h1m223,86h1M615,79h1M301,123h1M550,555h1M137,196h1m83,286h1M857,364h1M291,539h1M98,208h1m66,295h1M387,92h1M653,530h1M380,50h1m-23,71h1M703,100h1M515,619h1M404,62h1M389,564h1M241,128h1M837,338h1M67,442h1M810,420h1M76,294h1M197,540h1M138,261h1M677,89h1M232,492h1m291,94h1m48,-31h1M690,92h1M81,263h1M633,524h1M256,541h1M118,204h1M779,501h1M647,66h1M451,63h1M846,398h1M124,259h1M343,49h1M310,545h1M558,80h1M448,578h1M734,107h1M577,608h1M825,399h1M197,164h1m617,74h1M516,51h1M818,210h1M98,263h1M761,157h1M267,97h1M483,49h1M148,378h1m10,79h1M128,208h1M285,57h1M627,91h1M329,536h1M384,65h1M204,501h1M609,54h1M432,51h1M136,221h1M382,536h1M701,501h1m84,-43h1M530,49h1M114,363h1m39,110h1M833,198h1M99,344h1M838,201h1M45,397h1M298,526h1m139,57h1M768,505h1M250,521h1M77,463h1M459,563h1M356,83h1M502,536h1m-83,67h1M148,442h1m85,73h1M263,115h1m478,-5h1m53,302h1M670,556h1M119,275h1m734,65h1M827,185h1M183,182h1M394,45h1M844,217h1M275,546h1M854,328h1M800,140h1M730,524h1M682,67h1M576,52h1M386,550h1m218,13h1M323,85h1M449,576h1M141,454h1M320,566h1M96,394h1M204,150h1M187,106h1M488,79h1M791,476h1M803,265h1M529,83h1M96,265h1M366,572h1M228,485h1M843,380h1M156,228h1M530,56h1m216,75h1M277,117h1M860,398h1M733,508h1M125,366h1M696,99h1M78,307h1M712,479h1M468,78h1M695,545h1M870,407h1M659,71h1M70,319h1M702,79h1M246,103h1M129,412h1M395,38h1m294,85h1M793,453h1M282,496h1M138,255h1M504,80h1m73,473h1M727,166h1M130,164h1M678,48h1M848,285h1m38,-55h1M226,517h1M657,91h1M840,255h1M107,383h1M675,101h1m107,40h1M260,539h1M138,190h1M544,62h1M339,541h1M771,466h1M392,565h1M674,87h1M157,138h1M89,320h1M606,583h1M614,92h1M810,353h1M623,82h1M817,354h1M420,573h1M756,487h1M131,477h1M822,396h1M112,201h1M730,499h1M844,287h1M708,151h1M422,541h1M842,440h1M569,87h1M157,265h1M675,520h1M516,583h1M234,136h1M131,184h1M355,62h1M134,395h1M206,98h1m455,32h1M395,87h1M865,187h1M174,496h1M105,327h1M312,564h1M843,229h1M139,257h1M399,132h1M604,547h1M533,72h1M120,415h1M67,337h1M200,156h1M77,317h1M407,559h1M196,444h1M442,48h1M729,493h1M589,88h1M585,70h1M767,510h1M855,228h1M152,459h1M92,231h1m84,-76h1m601,16h1M289,117h1M659,100h1M336,565h1M827,203h1m33,5h1M164,223h1M475,591h1M651,111h1M525,538h1M102,417h1M503,71h1M132,180h1M500,586h1M404,94h1M86,293h1m22,164h1M354,110h1M713,66h1M305,83h1M207,458h1M757,168h1m57,37h1M473,88h1M389,552h1M272,97h1M150,467h1m146,80h1M841,245h1M553,79h1m251,46h1M382,570h1M113,447h1m2,-110h1m6,77h1M379,57h1m311,54h1M859,386h1M203,516h1M261,126h1M821,420h1M707,130h1m-9,389h1m-75,58h1M470,588h1M122,211h1m779,98h1M691,548h1M213,113h1M114,337h1m-1,39h1M622,87h1M858,221h1M129,188h1M655,116h1M563,550h1M918,337h1M103,335h1M445,84h1M281,98h1M827,233h1M196,464h1M560,14h1M785,180h1m61,111h1M358,544h1M312,113h1M821,401h1m-33,67h1M416,56h1M167,277h1M830,210h1M229,539h1M706,506h1M763,143h1m82,153h1M344,98h1M854,417h1M106,494h1M401,70h1M138,360h1m32,40h1M480,53h1M698,532h1M171,451h1M124,175h1m46,41h1M331,61h1M250,514h1M818,477h1M143,351h1M914,279h1M654,522h1M175,507h1M127,259h1M786,552h1M127,369h1M249,547h1M122,367h1M171,167h1M447,72h1m319,69h1M558,80h1M797,435h1M701,554h1M90,241h1M219,499h1M593,65h1M782,476h1M650,530h1M120,382h1M791,183h1M701,99h1M854,391h1M92,295h1M801,468h1M198,105h1m488,29h1M752,90h1M200,179h1m6,-38h1m-55,26h1M358,98h1M132,231h1M764,475h1M343,559h1M483,72h1M273,96h1M863,326h1M541,110h1m252,53h1M200,121h1M783,466h1M84,394h1M371,564h1M32,320h1M624,88h1M134,276h1M86,313h1M257,79h1M393,66h1M690,508h1M122,212h1M402,99h1M678,536h1M694,135h1M858,355h1M307,558h1M161,177h1M732,458h1M746,142h1M612,76h1M159,438h1M389,71h1M512,87h1M858,382h1M778,489h1m-23,13h1m8,-329h1m6,284h1M1,334h1M330,591h1M441,62h1M100,406h1M68,369h1M555,106h1M245,561h1M222,502h1M858,376h1M241,142h1M380,552h1M803,496h1M534,91h1M138,236h1M280,505h1M784,187h1m77,76h1M632,539h1M860,157h1M351,615h1M170,498h1M792,478h1M69,324h1M323,53h1M736,207h1M336,547h1M705,176h1M274,504h1M46,338h1M734,120h1M273,568h1M770,135h1M61,293h1M631,116h1M508,70h1M216,528h1M208,177h1M741,512h1M174,366h1M829,291h1M754,133h1m73,306h1M206,508h1M550,53h1M723,456h1M81,300h1M99,279h1M304,89h1m527,79h1M212,489h1M66,246h1M617,77h1M530,542h1M861,349h1M49,323h1M783,216h1m27,232h1m36,-88h1M826,298h1M206,108h1m465,-5h1M301,102h1M806,448h1m-70,75h1M656,59h1M873,366h1M307,118h1M775,497h1m-11,20h1m63,-99h1m15,-93h1M792,147h1m54,187h1M733,147h1M322,563h1m198,4h1M149,166h1m-30,44h1M887,352h1M469,97h1M683,515h1M162,185h1M381,66h1m310,43h1M441,568h1M433,46h1M195,516h1M775,202h1M313,72h1M846,410h1M165,250h1M560,54h1M147,263h1m-26,30h1M428,548h1M771,240h1M361,64h1M513,57h1M465,73h1m87,33h1M302,550h1m224,72h1M533,77h1M836,419h1M313,101h1M872,377h1m34,-26h1M668,526h1M794,154h1m61,224h1M479,42h1M738,560h1M545,54h1M157,190h1M807,475h1m-1,6h1M138,383h1M281,90h1M115,286h1M529,580h1M134,316h1M741,126h1m64,294h1M629,93h1m62,-9h1m99,337h1M212,124h1M111,391h1M295,60h1M574,594h1m-5,-9h1M108,476h1m493,73h1M223,141h1M699,122h1M438,81h1M334,63h1M448,32h1M395,552h1M876,288h1M413,69h1M99,200h1M896,397h1M692,96h1M346,66h1M374,55h1M853,403h1M680,58h1M824,321h1M137,381h1M416,597h1M721,115h1M152,452h1M625,558h1M346,534h1m335,-7h1M536,49h1M456,93h1M311,99h1m-60,41h1M112,195h1M391,52h1M92,326h1M33,308h1M797,120h1M545,577h1M88,243h1M635,101h1M141,253h1M564,602h1M626,72h1M424,577h1M121,461h1M605,111h1M325,573h1M879,261h1M155,166h1M646,88h1M196,146h1M60,347h1m747,50h1M171,396h1m661,-8h1M467,66h1m6,511h1M95,441h1M860,280h1M230,500h1M346,79h1M740,463h1M461,72h1M41,286h1M532,43h1M313,76h1m514,70h1M478,573h1M828,403h1M377,82h1M278,574h1M114,362h1m1,-163h1M815,434h1M843,280h1M554,566h1M819,313h1m26,100h1m11,-46h1M838,274h1M782,460h1M380,549h1m159,17h1M82,310h1M619,79h1M267,540h1M825,382h1M34,317h1M377,46h1M873,241h1M688,120h1M817,254h1M408,70h1M790,227h1m67,165h1M108,276h1m-9,81h1M805,179h1M462,40h1M810,289h1M559,569h1m-26,8h1M396,47h1M171,444h1M861,346h1M335,601h1M727,526h1M859,230h1M135,216h1M572,82h1M801,503h1M203,100h1M94,217h1M778,474h1M175,512h1M711,136h1M87,291h1m9,-2h1M537,86h1M426,95h1M106,211h1M804,324h1M190,483h1M762,150h1m112,47h1M81,275h1M629,528h1M751,483h1M501,601h1M873,268h1M545,57h1M895,312h1M412,576h1M398,70h1m76,496h1M844,210h1m13,58h1M469,564h1M601,534h1M309,112h1m8,-28h1M727,476h1m8,66h1m-431,7h1M823,270h1M152,483h1M824,299h1M607,538h1M80,377h1M779,487h1M385,572h1M682,536h1M859,334h1M371,56h1M96,376h1m733,18h1M27,349h1M901,287h1M733,518h1M124,249h1M779,177h1m83,220h1M176,424h1M467,73h1M264,528h1M786,422h1M286,573h1M427,46h1M153,388h1M699,510h1M814,237h1M264,140h1M689,528h1M819,498h1M172,245h1M820,379h1M389,568h1m209,20h1M513,569h1M317,60h1M567,543h1m-200,7h1M233,523h1M104,276h1m33,82h1M70,306h1M800,471h1m-651,6h1m590,8h1M277,127h1M692,115h1m-469,1h1M147,399h1M518,3h1m91,536h1M873,291h1M697,105h1m-31,5h1M328,103h1M881,314h1M825,270h1m43,15h1M853,223h1M597,81h1M79,368h1m90,75h1M157,173h1M839,373h1M294,539h1M648,94h1M582,69h1m57,417h1M601,83h1m72,450h1M826,482h1M844,242h1M104,329h1M631,542h1M87,408h1M136,193h1M70,386h1M208,166h1M505,564h1M635,87h1M790,205h1M772,109h1M89,260h1M401,557h1M736,472h1M277,64h1M811,482h1M849,226h1M658,78h1M468,49h1M348,84h1M832,191h1m-8,64h1M803,165h1M259,521h1M123,495h1M222,115h1m499,-2h1M334,63h1m383,83h1M179,403h1M867,272h1M181,203h1M227,101h1M545,596h1M253,106h1M44,268h1M683,83h1M877,436h1M444,599h1M677,113h1M796,509h1M108,197h1M467,35h1M395,55h1M161,193h1M286,522h1m176,64h1M108,313h1M802,179h1M172,436h1M258,103h1M576,603h1M190,439h1M311,543h1M848,340h1M283,74h1M614,91h1M584,83h1M167,160h1M760,519h1M86,303h1M244,110h1M849,296h1m6,52h1M214,219h1M793,427h1M463,596h1M848,428h1M162,448h1M645,139h1M419,579h1M588,550h1M883,331h1M339,104h1M907,268h1M776,458h1M808,178h1M699,558h1M260,129h1M317,98h1m-41,40h1M259,119h1M561,66h1m48,21h1M110,345h1m717,27h1M79,280h1M655,565h1M157,244h1m6,263h1M833,404h1M165,505h1m29,9h1M146,233h1M437,567h1M306,122h1m88,433h1M417,81h1M620,74h1M854,241h1m-5,0h1M174,462h1M800,208h1M509,583h1M781,135h1M154,364h1m701,13h1M335,108h1M159,171h1m-1,96h1M269,95h1M808,463h1M100,378h1M876,322h1M408,548h1M790,473h1M854,270h1M415,61h1m36,34h1M307,526h1M130,420h1M744,144h1M650,101h1m12,32h1m170,74h1M301,544h1M361,94h1M862,402h1M241,155h1M149,143h1M872,365h1M841,259h1M657,521h1M823,469h1m44,-13h1M769,478h1M213,504h1M696,88h1M126,248h1M570,43h1M179,467h1M112,457h1M287,105h1M901,350h1M538,74h1M305,520h1M832,255h1M696,95h1m-99,7h1M273,75h1M781,460h1M112,208h1M806,197h1M134,260h1M844,390h1M542,577h1m68,-3h1M417,555h1m259,-8h1M801,164h1M222,131h1m553,40h1M298,110h1M71,293h1M342,130h1m341,-7h1M197,166h1M122,362h1M514,35h1M118,236h1m28,169h1M79,324h1M462,589h1M249,522h1m185,65h1M95,310h1M807,197h1M67,272h1M277,554h1M146,304h1M759,486h1M172,185h1M568,71h1M797,257h1M554,86h1M782,188h1M292,95h1M131,424h1m55,53h1M501,53h1M844,200h1M341,67h1M844,342h1M119,359h1M739,121h1M123,359h1m727,27h1M826,322h1M300,554h1M639,542h1M239,152h1M715,107h1M273,134h1M351,67h1M866,332h1M114,385h1M391,581h1M112,376h1m-5,-90h1M509,64h1m121,56h1M165,441h1M878,282h1M194,492h1M272,83h1M761,436h1M413,591h1M661,539h1M63,250h1M295,80h1M148,240h1m-53,0h1M583,86h1M140,133h1M546,554h1M201,497h1M589,107h1M710,555h1M127,385h1M367,70h1M752,181h1M698,503h1M88,387h1m25,7h1M776,509h1m18,-7h1M163,164h1M643,80h1M437,577h1M158,136h1M416,600h1M820,287h1M163,226h1M875,351h1M361,74h1M241,546h1M682,142h1M855,312h1M431,95h1M333,560h1M751,539h1M89,269h1M769,466h1M813,232h1M207,137h1M869,385h1M737,501h1M835,186h1M581,544h1m-283,7h1M156,453h1M124,352h1M866,178h1M780,513h1M672,107h1M293,571h1M73,266h1M776,156h1M108,435h1M258,112h1M826,403h1M582,557h1M187,115h1M613,567h1M219,524h1M211,167h1M825,392h1M711,143h1M679,94h1m21,435h1M692,489h1M109,257h1M608,590h1M805,406h1M310,530h1M839,292h1M404,586h1m91,4h1M856,285h1m-10,18h1M311,72h1M619,575h1M128,228h1M63,333h1m53,56h1M554,77h1M171,411h1M471,66h1M467,54h1M360,111h1M849,375h1M588,116h1M496,71h1M813,190h1M764,170h1M236,88h1M184,541h1M169,197h1M368,103h1M601,541h1M672,69h1M126,249h1m64,-50h1m4,-29h1m668,40h1M259,129h1M847,401h1M632,90h1M382,546h1M872,373h1M140,241h1M291,105h1m0,11h1m403,5h1M850,401h1M398,66h1M87,234h1M485,585h1M261,551h1M701,151h1M220,491h1M785,450h1M847,325h1M607,89h1M587,62h1M414,110h1M761,489h1m-19,16h1M856,269h1M187,452h1M862,328h1M808,468h1M833,368h1M157,196h1m661,25h1M760,509h1M180,213h1M653,101h1M267,495h1M614,69h1m4,482h1M351,542h1M811,392h1M497,49h1M480,571h1M280,120h1M168,137h1M398,72h1M769,452h1M474,102h1M389,73h1M92,355h1M603,572h1M275,68h1M799,195h1M97,333h1m40,97h1M162,219h1M122,352h1M165,201h1M659,117h1M140,315h1M320,72h1M758,469h1M649,108h1M303,69h1M378,30h1M843,458h1M506,554h1M246,529h1M741,154h1M223,564h1m195,3h1m74,-11h1M712,169h1M242,541h1M748,152h1M252,546h1m360,26h1m-48,3h1M723,92h1M80,325h1M464,72h1M558,47h1m18,56h1M869,406h1M274,475h1M270,138h1m26,425h1M729,514h1M178,445h1M299,83h1M104,324h1M710,529h1M792,145h1M93,271h1M203,185h1M490,583h1M853,376h1M335,33h1m190,6h1M280,67h1M809,432h1M222,487h1m-8,-5h1M618,67h1M761,527h1M588,585h1M177,145h1m-29,29h1m-27,77h1M74,316h1M391,554h1M134,409h1m87,135h1M310,58h1m260,4h1M69,252h1M848,454h1M826,191h1m30,261h1M191,528h1M118,203h1M714,128h1M371,92h1M248,118h1M334,78h1m50,9h1M646,531h1M745,151h1m44,269h1M334,567h1M113,350h1M747,171h1M234,130h1M858,399h1M378,556h1M829,176h1M112,246h1M659,536h1M834,227h1M380,93h1M754,514h1M626,571h1M129,271h1M195,127h1m556,74h1M186,133h1M118,348h1M264,110h1M818,226h1M313,111h1M783,474h1M609,110h1M446,40h1M232,538h1M893,327h1m-8,41h1M702,544h1m-79,13h1m-60,42h1M621,119h1M823,427h1M520,45h1M112,294h1M604,557h1M185,138h1M771,484h1M504,564h1M303,107h1M564,564h1M270,107h1M859,224h1M640,553h1M581,530h1M574,78h1M801,258h1M94,281h1m6,97h1m26,88h1M531,44h1M96,226h1M383,557h1M460,73h1M124,432h1m131,98h1M104,232h1M844,422h1M362,70h1M896,350h1M769,75h1m97,120h1M215,525h1M805,440h1M206,460h1m193,90h1M800,186h1M150,326h1M251,505h1M296,141h1M110,423h1M822,208h1M788,504h1M640,571h1M420,566h1M751,159h1M352,108h1M338,585h1M116,299h1m758,38h1M100,145h1m70,330h1M623,85h1M215,438h1m-37,4h1M234,105h1M835,470h1M139,223h1M625,104h1M384,537h1M817,139h1M618,42h1M829,430h1M103,410h1M158,235h1M578,100h1M793,495h1M187,510h1M132,260h1M761,482h1m-13,4h1M95,395h1M257,136h1M68,354h1M796,243h1M86,340h1m93,106h1M436,73h1M611,583h1M861,308h1M92,261h1M810,508h1M336,553h1m231,25h1M811,404h1M132,185h1M284,514h1M782,482h1M861,373h1M220,536h1M456,60h1M173,212h1M124,435h1M155,208h1m65,-84h1M103,392h1m33,45h1M124,171h1M686,533h1M834,412h1M441,588h1M112,295h1M297,80h1m67,475h1M844,253h1M784,232h1M717,127h1M153,165h1M679,592h1M445,59h1M118,406h1M404,573h1M165,118h1m50,7h1M869,377h1M826,171h1m69,145h1m15,-29h1M842,434h1M109,182h1M708,114h1M879,352h1M784,198h1M619,551h1M88,285h1M572,79h1m49,33h1M418,591h1M55,349h1m87,71h1M639,555h1M749,92h1M472,582h1M252,518h1m422,37h1M180,277h1M164,537h1M203,206h1M398,551h1M830,261h1M434,569h1m213,33h1M876,265h1M836,222h1M290,98h1m-11,3h1M148,285h1M130,227h1m77,263h1M161,424h1M358,543h1M365,67h1M869,176h1M249,131h1M868,300h1M278,131h1M86,330h1M734,517h1M170,457h1m173,82h1M504,71h1M68,401h1m704,25h1M592,572h1M106,268h1M368,80h1m66,482h1M765,169h1m91,116h1m10,-76h1M372,568h1M152,443h1M123,352h1M486,62h1M271,87h1M93,332h1M460,577h1M868,445h1M849,251h1m9,-1h1M417,82h1m10,478h1M743,110h1m71,301h1M624,129h1M141,402h1m605,93h1M256,113h1m514,68h1M103,372h1m716,87h1M504,80h1M112,407h1M334,552h1M750,425h1M143,461h1M184,135h1M603,72h1M829,227h1M114,267h1M700,560h1M871,303h1M839,271h1M801,435h1M835,277h1M748,158h1M725,70h1M849,200h1M636,78h1M873,347h1M358,553h1M299,525h1m-84,-4h1M188,174h1m535,0h1m167,11h1M728,528h1M711,507h1M243,108h1M839,437h1M728,103h1M358,96h1M128,207h1M756,170h1M444,564h1m1,21h1M540,65h1M809,479h1M902,336h1M777,496h1M314,63h1M868,316h1M733,459h1m-35,32h1m26,-25h1M374,57h1M825,393h1m21,-75h1M189,138h1M113,304h1M227,138h1M112,257h1M821,203h1m-4,-50h1M411,558h1M323,545h1M649,55h1M767,161h1M406,33h1M787,142h1M377,88h1M112,403h1M810,139h1m-89,34h1M862,451h1M618,558h1M466,573h1M796,206h1M327,64h1m406,98h1M654,144h1M107,315h1M275,529h1M115,459h1M755,134h1m50,241h1M624,97h1M898,359h1M708,538h1M395,530h1M635,87h1M498,570h1M795,191h1M66,418h1m759,46h1M840,154h1M825,285h1m3,132h1M319,109h1m480,65h1M235,149h1m527,69h1M124,240h1M826,453h1M798,176h1M471,45h1m96,534h1M706,483h1M833,262h1M440,533h1M820,428h1M89,295h1m30,-51h1M307,501h1M96,363h1M82,325h1M131,184h1M297,578h1M163,446h1m12,5h1m-70,-2h1m119,88h1M301,103h1M689,533h1M168,204h1M822,362h1M321,67h1M226,503h1M306,83h1M838,187h1M703,506h1m-21,8h1M862,256h1M785,407h1M515,616h1M185,200h1M450,60h1M809,194h1M161,473h1m228,79h1M419,81h1M787,512h1M100,304h1M890,289h1m-23,43h1M680,121h1M45,368h1M764,497h1m7,-16h1M129,260h1m37,-68h1M115,352h1M896,292h1m-59,77h1M87,293h1M375,80h1M693,503h1M712,140h1M500,586h1M756,512h1M259,101h1M217,513h1M109,263h1M813,221h1M123,259h1m-2,176h1M785,247h1M540,81h1M771,502h1M484,590h1M884,356h1M445,556h1M195,524h1M104,341h1M803,464h1m-601,4h1M512,88h1M481,54h1M379,581h1M118,252h1M676,565h1M539,557h1M116,296h1M723,478h1M296,50h1M870,253h1M804,214h1M179,410h1M782,128h1M360,83h1M681,543h1M501,572h1m23,2h1M386,585h1M521,566h1M156,485h1m569,28h1M109,204h1m-8,63h1M504,570h1M714,136h1M586,80h1M329,541h1M663,69h1M659,59h1M523,552h1M839,245h1M239,496h1M782,207h1m65,20h1M395,568h1M103,365h1M572,597h1M325,561h1m155,26h1M253,165h1M382,548h1M850,395h1M212,104h1M347,49h1m99,10h1M146,425h1m654,38h1M309,524h1M289,110h1m33,456h1m121,25h1M135,433h1M210,215h1M504,77h1M297,548h1M228,185h1m-9,301h1m472,42h1M119,244h1M86,300h1M634,583h1M457,67h1M879,425h1M655,541h1M806,338h1M439,58h1M794,520h1m81,-77h1M758,148h1M707,482h1M270,474h1M860,256h1M75,239h1M64,314h1m20,4h1M810,439h1m-7,16h1M187,453h1M847,410h1M697,533h1M338,526h1m319,16h1M386,556h1M840,394h1M806,381h1M569,57h1m84,22h1M668,50h1m-5,43h1M337,58h1M835,387h1M116,373h1m-29,4h1m54,85h1m7,-27h1M370,538h1M860,207h1m33,55h1M718,550h1M785,203h1M45,275h1M331,102h1M316,91h1M736,528h1M81,220h1M414,596h1M220,493h1M220,164h1M756,454h1M164,400h1M784,133h1M736,117h1M919,308h1M734,482h1M851,447h1M718,505h1M127,227h1M458,552h1M738,504h1M345,75h1M75,257h1M767,161h1m1,304h1m10,20h1M852,348h1M743,440h1M890,333h1M530,32h1M880,350h1M817,212h1M800,443h1M273,506h1M849,222h1M792,458h1M484,48h1M303,553h1M124,153h1M275,535h1M155,175h1m27,320h1M808,227h1M162,490h1M247,127h1M443,53h1M272,94h1m-99,69h1M935,325h1M588,58h1m169,49h1M109,254h1M309,103h1M218,88h1M95,280h1M391,590h1M88,326h1M748,479h1M98,239h1M732,123h1M860,250h1m4,32h1M437,528h1M152,200h1M598,41h1m1,518h1M859,385h1M514,584h1M738,534h1M367,553h1m4,20h1m200,-7h1M676,128h1M131,383h1M601,111h1M91,314h1M372,559h1M100,412h1M514,75h1M842,484h1M160,143h1M408,554h1M229,119h1M411,603h1M311,544h1M265,117h1M871,341h1M180,147h1M665,92h1M490,57h1M638,566h1M424,540h1M743,182h1M664,111h1M698,80h1M274,80h1M159,479h1m306,81h1M573,83h1m0,1h1M186,464h1M126,181h1M276,589h1M234,105h1M439,65h1M857,284h1M208,142h1m-65,35h1m645,-9h1M701,114h1m77,81h1M642,98h1M239,121h1M815,225h1M637,580h1M183,440h1m641,28h1M739,92h1M436,98h1M327,544h1M745,154h1m85,98h1M176,455h1m537,51h1M368,556h1M788,484h1M802,171h1M557,601h1M324,546h1M237,483h1M158,168h1M263,552h1M161,422h1M495,80h1M838,320h1M770,477h1m-13,29h1m34,-48h1m27,-94h1M103,341h1M263,515h1M567,69h1M535,609h1M772,190h1m75,158h1M534,92h1m4,475h1M696,97h1M335,558h1M415,71h1m333,76h1M881,315h1M318,549h1M597,73h1M321,93h1M504,68h1M130,413h1M89,425h1m690,77h1M882,368h1M296,557h1M840,243h1M674,561h1M648,517h1M118,258h1m747,20h1M266,563h1M171,208h1M842,179h1M111,202h1m10,139h1M765,138h1M132,430h1M377,573h1M525,20h1M267,534h1M91,289h1m42,97h1m0,-126h1M87,296h1M128,191h1M553,64h1M356,43h1M886,369h1M791,228h1M169,176h1m91,400h1m317,-6h1M812,184h1M577,82h1M338,67h1m34,529h1M145,232h1M661,547h1M746,169h1m85,21h1m27,41h1M469,71h1m226,48h1M301,148h1M473,63h1M72,309h1M378,109h1m415,56h1M684,547h1M31,273h1M144,150h1m655,35h1M679,96h1m53,28h1M647,105h1m108,49h1M258,95h1m-36,74h1M649,67h1M218,120h1M425,574h1M725,482h1M443,73h1m61,16h1M641,88h1M109,450h1M867,415h1M862,273h1M56,274h1m759,50h1m50,115h1M556,580h1M290,521h1M200,497h1M147,462h1M456,604h1m52,-30h1M54,311h1M745,498h1M126,267h1M260,476h1M784,370h1m25,-60h1M184,516h1M626,118h1M762,461h1M863,204h1M798,414h1M641,566h1M836,180h1M747,113h1M584,54h1M59,338h1m748,35h1m63,-36h1M191,460h1M509,86h1m254,53h1m82,114h1M527,64h1M110,321h1M519,539h1m87,10h1M320,481h1M775,175h1M493,84h1M154,334h1M891,278h1M835,442h1M448,48h1M222,483h1m172,86h1M463,41h1M151,487h1M828,269h1M805,142h1M285,122h1M648,43h1m-12,64h1M321,554h1M356,54h1M821,354h1M77,348h1M250,158h1M81,335h1M478,577h1M755,142h1m62,324h1m-93,38h1M849,316h1M464,87h1M205,145h1M797,450h1M95,322h1M67,262h1M756,476h1M440,47h1M166,483h1M448,591h1M599,44h1M197,462h1M820,427h1M601,68h1M758,521h1M133,196h1M102,484h1M303,108h1M263,509h1M221,129h1M81,372h1M856,229h1M589,59h1M883,292h1M182,493h1M635,146h1M568,555h1M177,145h1M870,393h1m13,11h1M743,511h1M868,402h1M811,234h1M617,543h1M290,119h1M451,51h1M141,491h1M268,136h1M756,114h1M132,380h1M105,297h1M782,147h1M423,101h1m289,56h1m7,361h1m-52,21h1M596,96h1M372,116h1M733,104h1M59,391h1m53,-2h1M46,386h1M329,540h1M150,169h1M288,93h1M712,72h1m84,134h1M370,75h1m324,26h1M261,534h1M338,69h1M171,475h1M811,405h1M278,120h1M170,202h1M592,530h1M371,52h1M825,423h1M797,195h1M608,552h1M805,344h1M170,139h1M870,277h1M218,520h1M864,262h1M265,503h1m-1,61h1M851,299h1M756,167h1M640,593h1M800,161h1m79,226h1M550,62h1M345,556h1m363,0h1m-89,12h1M186,479h1m63,40h1M622,104h1M106,324h1M473,65h1M110,351h1M759,135h1m18,350h1M117,321h1m3,116h1m11,-86h1m6,-140h1m17,-44h1M131,335h1M472,586h1M253,507h1m0,-359h1M414,579h1M301,122h1M646,59h1M630,565h1M256,541h1M377,83h1M814,480h1M797,280h1M774,480h1M896,338h1m-81,29h1M243,134h1M865,376h1M741,169h1m77,89h1M530,541h1M831,371h1m-52,75h1M125,376h1m86,118h1M287,96h1M811,417h1M88,357h1M865,246h1m-7,63h1M93,315h1M832,483h1M787,137h1M82,343h1M475,597h1M114,215h1M67,323h1M772,128h1M480,580h1M659,103h1m27,27h1M313,559h1M211,159h1m-52,42h1M130,432h1M829,137h1M82,177h1m697,34h1M158,181h1M42,336h1m777,-7h1M680,110h1M141,136h1M600,532h1m-82,13h1M222,485h1M873,262h1M227,489h1M375,20h1M784,144h1m-36,52h1M118,362h1m5,20h1M376,546h1m90,22h1M209,484h1M190,205h1M802,162h1M251,566h1M405,17h1M798,230h1M353,51h1m258,8h1M99,256h1M831,225h1M272,552h1m63,18h1M97,354h1m719,60h1M170,203h1M637,114h1M96,291h1M707,542h1m5,-367h1m67,271h1M465,604h1M443,565h1M201,479h1m15,13h1M825,454h1M314,114h1m338,8h1M142,196h1m715,87h1M646,545h1M395,52h1M916,397h1M166,387h1M266,126h1m-22,9h1M400,79h1M667,68h1M657,569h1M188,423h1M775,120h1M352,74h1m-55,35h1M714,500h1M884,314h1M847,509h1M650,559h1m-63,31h1M666,83h1M586,597h1M693,551h1M428,565h1M112,203h1M840,320h1M231,117h1M539,580h1M220,499h1m483,23h1M488,45h1M118,339h1M482,113h1M441,608h1M195,463h1M860,388h1M809,179h1m46,261h1M774,147h1m7,329h1M319,568h1M494,79h1M836,243h1M474,77h1M514,42h1m80,523h1M286,505h1m142,58h1M281,117h1M232,502h1M858,403h1M117,401h1M761,154h1M88,240h1M798,512h1m-473,7h1M116,428h1M497,572h1M813,173h1M242,109h1M867,227h1M172,135h1M64,233h1m40,149h1m55,-8h1M274,120h1M166,206h1M333,85h1M716,533h1M142,424h1M850,195h1M97,378h1M125,221h1M727,158h1M464,547h1M860,287h1m-3,56h1M118,290h1m11,112h1M838,364h1M477,571h1M801,437h1M676,90h1m8,448h1M454,579h1M656,541h1M597,66h1M497,539h1m120,18h1M772,135h1m88,166h1M637,96h1M459,565h1M752,119h1M485,588h1M684,85h1M249,511h1m285,38h1M386,93h1M353,83h1M698,487h1M355,563h1M351,70h1M594,576h1M765,163h1M670,489h1M126,278h1m39,209h1m33,-10h1M161,203h1M629,560h1M645,74h1M123,349h1m75,104h1M593,570h1M342,85h1M719,488h1m94,-76h1M618,535h1M219,463h1m522,59h1M73,322h1M864,266h1M722,109h1M390,63h1m43,497h1M693,145h1M305,83h1m40,466h1M752,465h1M849,208h1M675,99h1M110,251h1M530,70h1M118,233h1m11,-21h1m-9,26h1M677,538h1M211,470h1m205,86h1m-77,6h1m137,40h1M563,63h1M745,177h1m92,336h1M372,562h1M852,231h1M187,182h1M735,153h1M195,411h1M783,182h1M188,166h1m-14,16h1M780,149h1M278,541h1M65,418h1M216,96h1M599,94h1M348,114h1m421,-5h1m-98,13h1M315,544h1M143,460h1M533,572h1M749,157h1M600,553h1M90,231h1m48,181h1M518,555h1M646,510h1M839,437h1M172,198h1M893,411h1M193,126h1M87,259h1M759,157h1M228,481h1M145,420h1M554,63h1M408,541h1M289,511h1m110,84h1M496,54h1M207,514h1m116,23h1M843,390h1M658,599h1M560,71h1m164,46h1M632,91h1M65,359h1m-3,-4h1M676,112h1M301,494h1m-32,70h1M259,544h1M830,200h1M543,573h1M866,341h1M150,182h1M883,306h1M526,81h1M291,148h1M838,385h1M586,105h1M883,336h1M727,164h1M331,87h1M148,197h1M367,556h1M218,463h1M512,568h1M612,80h1M570,72h1m91,6h1M922,288h1M643,108h1m67,10h1M418,555h1M93,305h1M285,497h1m424,18h1M147,475h1m162,66h1M74,228h1M39,267h1m83,-49h1M236,520h1M866,325h1M212,529h1M665,80h1M105,406h1M198,101h1M437,52h1M817,274h1M364,104h1M212,172h1m81,334h1m248,65h1M413,85h1M868,385h1M821,259h1M430,587h1M332,563h1M180,158h1M337,114h1M139,199h1M638,564h1M115,173h1m742,34h1M635,90h1M849,326h1m4,-61h1M258,566h1M94,334h1M164,210h1M386,94h1M570,66h1M818,336h1M754,189h1m13,19h1M690,569h1M680,114h1M98,390h1m698,45h1M711,541h1M245,133h1M397,556h1M121,200h1M756,495h1M723,112h1m-503,9h1m-24,79h1M84,402h1m57,29h1m-3,-30h1M280,541h1M140,182h1m5,139h1M896,293h1M274,572h1M113,354h1M722,103h1M844,339h1m-7,-13h1M667,557h1m9,-11h1M575,24h1M828,220h1m26,-64h1M694,536h1M904,409h1M163,197h1m680,41h1M71,278h1M824,268h1M511,68h1M833,169h1m26,27h1M692,528h1M437,559h1M102,342h1m92,141h1M103,361h1M769,223h1m49,250h1M648,72h1M176,468h1M240,144h1m583,64h1M183,190h1m-38,46h1M431,546h1M681,93h1M216,447h1m443,80h1M892,364h1M692,499h1M107,286h1M745,486h1M824,218h1M71,277h1M416,93h1m378,94h1M762,172h1M374,538h1M776,138h1M245,517h1M35,344h1M806,207h1M93,392h1M396,83h1m379,85h1M334,84h1m453,69h1M659,95h1m3,439h1M95,206h1m809,81h1M65,409h1m57,-51h1M636,78h1M314,81h1M820,207h1M325,569h1M877,409h1M603,572h1M215,122h1m-4,346h1M703,96h1M196,191h1M729,131h1M218,167h1M549,558h1M786,404h1M194,487h1M850,215h1m46,9h1M146,466h1m178,88h1M137,422h1M793,201h1M556,76h1M137,211h1m31,3h1m58,301h1M887,422h1M831,409h1M535,564h1M732,479h1m-11,50h1m67,-20h1M518,542h1M793,160h1M413,569h1M450,50h1M124,248h1M518,51h1m185,71h1M501,69h1M874,246h1M153,225h1M530,63h1M129,340h1M821,271h1M711,68h1M169,467h1m15,37h1m471,5h1M199,139h1M790,465h1M546,51h1M489,62h1m74,23h1M510,59h1m64,527h1m-49,14h1M88,180h1m123,57h1M752,223h1M228,478h1M147,376h1m586,81h1M656,106h1m201,77h1M96,279h1M950,234h1M601,550h1M755,114h1M166,388h1M860,206h1M277,521h1m295,-2h1M304,548h1M125,321h1M425,79h1m98,6h1m288,58h1M192,187h1M328,117h1m424,14h1m12,360h1M218,103h1M426,533h1M108,403h1M811,221h1m-43,32h1M389,91h1M263,482h1M830,150h1M107,463h1M156,203h1m-16,38h1m0,39h1M82,303h1M801,449h1M32,292h1m79,146h1M506,61h1M135,414h1M379,526h1M132,373h1m-4,-49h1m83,165h1m325,98h1M736,465h1M468,90h1M846,472h1M652,53h1M168,461h1M427,61h1m337,80h1M288,539h1M242,155h1M829,421h1M131,308h1m4,-33h1M329,83h1m-5,10h1M405,72h1M113,351h1M834,154h1M297,523h1M44,315h1M611,117h1m124,15h1M553,46h1m65,509h1M622,77h1M159,467h1M471,576h1M760,526h1M172,384h1M511,594h1M284,111h1m509,83h1M389,78h1m35,15h1M288,509h1M734,487h1m82,3h1M201,127h1m13,369h1M366,44h1m-93,67h1M39,250h1m24,25h1M738,100h1M571,537h1M831,449h1M464,94h1M911,307h1M63,272h1M250,114h1M924,293h1M252,128h1m-46,0h1M676,59h1M289,86h1M719,527h1M558,50h1m52,18h1M102,200h1M838,350h1M743,569h1M815,451h1M287,108h1M487,593h1M193,434h1M516,571h1M896,278h1M605,586h1M936,423h1M907,256h1M86,314h1M148,154h1m-49,64h1M83,300h1M345,549h1M790,425h1M390,63h1M603,594h1M718,533h1M689,516h1M189,435h1m578,67h1M139,255h1M398,589h1M113,301h1M855,268h1M751,480h1M397,592h1M321,86h1m349,43h1M126,299h1M115,240h1m49,-62h1m27,297h1m3,-348h1M320,113h1M339,67h1m84,521h1M162,147h1m45,88h1m640,58h1M576,72h1M187,441h1M294,87h1M635,564h1M163,174h1m602,24h1M509,552h1M806,439h1M869,339h1M794,211h1M140,458h1M792,168h1M651,99h1m106,27h1M361,556h1M812,217h1M192,470h1M894,344h1M438,562h1m62,-21h1M128,486h1m-3,-42h1m513,96h1M204,110h1m80,420h1M744,500h1M545,590h1M260,147h1M171,135h1M907,278h1M145,184h1m733,84h1M646,88h1M526,579h1M279,540h1m264,27h1M860,317h1M818,156h1m54,247h1M666,509h1M154,198h1M744,483h1M435,81h1M105,271h1M545,554h1M765,468h1M434,76h1m342,74h1M722,135h1M298,106h1M366,89h1M809,446h1M104,290h1m0,145h1M123,285h1M579,570h1M826,405h1m45,-81h1M44,284h1m22,91h1M291,115h1M817,388h1M172,144h1M923,342h1M887,198h1m-753,4h1M530,84h1m51,494h1M274,128h1M518,546h1M459,65h1M404,534h1m1,22h1m-81,22h1M767,451h1M299,590h1m54,-21h1M299,530h1M754,468h1M337,608h1M561,582h1M135,238h1m54,-74h1M876,387h1M753,150h1M527,93h1M633,77h1M851,255h1M125,406h1M338,553h1M276,68h1M109,391h1M828,212h1M175,174h1M522,556h1M620,82h1M845,353h1M157,438h1M79,292h1M578,62h1M809,230h1M450,63h1M710,574h1M76,268h1M649,552h1M169,179h1M877,282h1M167,133h1M860,414h1M218,450h1m-28,15h1M862,270h1M548,550h1m-93,32h1M196,560h1M116,327h1M555,96h1M78,323h1m43,6h1M666,110h1m15,432h1M539,69h1M87,320h1M338,549h1M191,159h1M606,66h1M733,548h1M184,507h1m132,50h1M372,54h1M830,205h1M296,103h1M76,363h1M369,87h1M502,581h1M449,80h1M329,541h1M185,486h1M240,109h1m97,410h1M808,385h1M274,103h1M782,237h1M488,577h1M842,350h1M105,239h1m70,-61h1M893,361h1M148,371h1M529,68h1M231,524h1M896,224h1M582,67h1M819,454h1M650,86h1M812,207h1M714,118h1M403,72h1m34,12h1M805,455h1M397,57h1m6,34h1M126,211h1m20,198h1M659,76h1M96,424h1M864,269h1M764,513h1M367,580h1M673,137h1M573,44h1M210,529h1M251,116h1M89,320h1M763,219h1M580,86h1m140,69h1M103,304h1M870,414h1M187,473h1M390,49h1M184,465h1M887,344h1M288,89h1M108,250h1M309,87h1M113,420h1M357,88h1M186,146h1M118,324h1M528,77h1M465,75h1M809,496h1M66,330h1m52,-28h1m97,173h1M149,232h1M350,62h1M549,573h1M131,194h1M868,381h1M557,586h1M693,521h1M150,357h1M648,92h1M126,361h1m669,66h1M263,542h1M750,494h1M164,384h1m30,125h1m297,76h1M786,139h1M286,83h1M218,476h1M339,109h1M696,558h1M585,543h1M125,233h1m-9,203h1M532,545h1M290,85h1M475,60h1M761,187h1M254,550h1M820,155h1m27,156h1M500,76h1M275,173h1M258,497h1M143,155h1M403,40h1M581,577h1M808,186h1M88,299h1m32,57h1m674,74h1M643,580h1M148,421h1M169,156h1M317,545h1M112,249h1M375,82h1m194,36h1M849,377h1M492,61h1M305,121h1M326,59h1M221,171h1M700,100h1M660,74h1M520,52h1m51,-5h1M266,131h1m69,401h1m416,-1h1m-429,0h1M193,460h1M665,97h1M300,94h1M140,464h1M507,64h1M124,398h1M733,498h1M433,53h1M842,239h1M111,464h1M610,571h1M759,165h1M719,107h1m6,63h1M115,155h1M609,86h1M312,528h1M230,116h1m535,66h1M289,514h1m291,68h1M100,353h1M398,560h1M265,551h1m32,-36h1M869,335h1M755,496h1M858,181h1M491,77h1M847,402h1M539,93h1M686,567h1M68,370h1M915,320h1M472,578h1M185,167h1M572,62h1M118,439h1M783,128h1M171,227h1M749,506h1M385,561h1M437,72h1M588,46h1M400,65h1M169,181h1m646,35h1M691,122h1M857,322h1M192,519h1M398,61h1M759,482h1M799,232h1M928,339h1M150,422h1M394,575h1m-8,8h1M764,511h1M594,544h1m-361,7h1M707,535h1m-96,5h1M536,40h1M172,181h1M91,424h1M640,579h1M118,262h1M828,181h1M773,122h1m42,317h1M92,324h1M200,521h1M881,353h1M82,254h1m808,73h1m0,-93h1m-64,99h1M336,559h1M327,71h1M153,456h1M98,385h1M641,60h1M527,533h1M467,53h1M594,572h1M151,470h1m-3,-41h1M819,353h1M754,144h1M499,567h1m-227,1h1M880,310h1M208,98h1M430,574h1m-44,19h1m175,-4h1m44,-62h1M126,408h1M292,566h1m224,13h1M779,452h1M417,74h1m66,498h1m4,-5h1M500,62h1M639,59h1m90,60h1M711,458h1M576,563h1M384,562h1M108,258h1M62,228h1M850,187h1m10,195h1M164,489h1M96,205h1M626,534h1M748,189h1m67,187h1M110,415h1M873,326h1M765,495h1M136,249h1M393,78h1M314,561h1M856,313h1M169,207h1M870,350h1m-23,61h1M258,129h1m3,-49h1M211,540h1M618,86h1M92,307h1M207,443h1m-18,17h1M69,251h1M819,417h1M120,155h1M587,571h1M603,96h1M850,425h1M577,74h1M844,300h1M693,121h1M241,115h1M888,393h1M769,530h1M836,219h1M648,569h1M601,558h1M737,501h1m-63,21h1M244,506h1M201,482h1M452,58h1M644,548h1M152,194h1M360,553h1M379,86h1M138,341h1M648,537h1M249,515h1m440,9h1M221,542h1m73,35h1m84,-34h1m148,28h1M501,98h1M724,90h1M478,68h1M208,500h1M811,458h1M66,363h1m849,14h1M776,465h1M170,231h1M731,150h1M210,500h1M145,253h1M377,596h1M72,248h1M878,194h1M628,73h1m88,20h1m2,471h1M606,555h1M486,575h1M118,456h1M449,562h1m174,-7h1m-164,7h1M375,48h1M814,335h1M170,152h1M520,583h1M287,520h1M788,492h1M759,119h1M863,264h1M325,550h1M70,398h1M700,102h1M139,477h1M671,91h1M136,408h1M668,550h1M796,172h1M129,182h1M305,93h1m-33,4h1M301,67h1m375,34h1M918,393h1M887,253h1m-48,77h1M264,102h1M133,263h1M688,54h1M432,71h1m63,508h1M917,307h1M96,278h1M258,120h1M693,556h1M91,312h1M869,435h1m-20,36h1M580,564h1M158,321h1M140,136h1M380,590h1M323,553h1M293,95h1M163,426h1M135,213h1M894,327h1M780,514h1M796,184h1M596,65h1m96,454h1M94,209h1m776,47h1m-12,31h1M831,438h1M68,374h1m-9,38h1M579,552h1M169,142h1m627,71h1M84,417h1m775,-1h1M846,259h1M70,385h1M731,556h1M561,97h1M776,425h1M173,211h1M803,343h1M214,509h1M821,330h1M156,496h1m521,27h1M499,58h1M643,93h1m29,482h1M615,94h1M353,540h1M837,207h1M442,78h1M314,521h1M457,62h1m43,513h1M731,111h1M882,347h1M287,529h1M259,98h1M243,512h1M368,85h1M132,283h1m76,134h1M396,85h1M559,71h1M187,153h1M65,240h1M849,191h1M78,379h1M629,66h1m-8,497h1M731,84h1M476,51h1m157,56h1M416,555h1M728,104h1M99,461h1m132,66h1M127,278h1M789,458h1M162,220h1m635,5h1M144,209h1M79,380h1M531,586h1M457,77h1M836,346h1M827,311h1M655,556h1M877,416h1M545,50h1m63,479h1M845,397h1M785,201h1M310,580h1M156,262h1M846,190h1M795,421h1M463,550h1M824,447h1m50,-50h1M743,154h1m74,173h1m11,74h1M854,221h1M454,541h1M113,411h1M370,546h1M838,192h1m-7,181h1M592,567h1M487,20h1M663,531h1M646,101h1M418,573h1M799,195h1M681,96h1m130,84h1M559,67h1M538,45h1M799,457h1M859,324h1M448,536h1m34,49h1M747,524h1M397,573h1M686,127h1m88,346h1M265,516h1M77,393h1M247,528h1M181,399h1M431,69h1M149,445h1M787,295h1M133,469h1m122,53h1M140,421h1m684,23h1M295,568h1M100,211h1m20,104h1M706,119h1M830,397h1M654,62h1m140,74h1M233,131h1M809,456h1M461,65h1M640,557h1M861,317h1M807,163h1M244,152h1m565,62h1M396,564h1M156,164h1M596,74h1m97,479h1M293,104h1m-73,17h1M491,38h1M782,466h1M858,284h1M118,150h1M383,68h1M258,136h1M753,462h1M628,69h1M147,237h1m7,255h1M767,150h1m61,134h1M109,325h1M228,130h1M165,472h1M685,102h1m35,6h1M834,473h1M692,563h1m-368,5h1M752,159h1m4,324h1M134,523h1M248,81h1M158,477h1M40,378h1M759,143h1M680,119h1M451,573h1M452,69h1M158,215h1M847,177h1M144,402h1M682,533h1M369,595h1M622,81h1M792,435h1M140,205h1M477,573h1M288,540h1M487,67h1M146,166h1M844,302h1M143,185h1M331,542h1m366,-2h1M142,228h1M211,120h1m514,-6h1M86,321h1M369,109h1M157,462h1M806,190h1M274,528h1m108,7h1M325,82h1M128,377h1m-26,69h1M817,346h1M134,447h1M104,302h1m719,88h1M177,372h1M590,75h1M752,512h1M90,359h1M400,97h1M197,493h1M859,415h1M333,85h1M127,456h1M470,582h1M735,164h1M526,49h1M388,595h1M153,499h1m69,-14h1M631,85h1m40,17h1M90,341h1M575,115h1m257,65h1M259,561h1M104,402h1m55,36h1M122,229h1m54,-43h1M245,50h1M870,354h1M760,173h1m71,156h1M94,307h1M747,137h1M139,412h1M739,139h1M562,107h1m161,1h1M108,346h1M649,91h1M867,388h1M304,58h1M619,578h1M761,518h1M369,98h1M449,67h1M851,187h1M390,561h1M125,320h1M206,114h1M99,210h1M809,195h1M227,483h1M140,345h1M263,91h1M823,244h1M96,321h1M717,112h1M456,547h1m85,6h1M191,482h1M900,335h1M209,473h1m467,38h1M473,593h1M152,472h1M753,198h1M277,532h1m426,16h1M593,539h1M284,127h1M750,489h1M591,563h1M748,496h1M190,518h1M673,119h1M137,466h1M353,595h1M518,71h1m262,71h1M353,112h1M643,526h1M166,444h1m595,-7h1M866,342h1M150,414h1M733,146h1M141,455h1M849,203h1M269,549h1M144,202h1M286,534h1M538,36h1M406,591h1M300,515h1M843,222h1M308,557h1M125,402h1M178,164h1m63,353h1m105,56h1m68,-7h1M858,286h1M168,186h1m-8,-13h1M267,517h1m258,81h1M133,412h1M239,134h1M445,33h1M803,465h1M360,72h1M715,93h1M122,472h1m596,29h1M518,580h1M159,362h1M236,115h1m485,1h1m32,388h1M72,324h1M765,161h1M192,436h1m-3,66h1m275,54h1M770,475h1M343,614h1M723,518h1M481,556h1M128,272h1M399,76h1M166,373h1m-29,22h1M109,229h1m40,166h1M685,531h1m-2,51h1M601,571h1m-31,10h1M65,317h1M488,88h1M188,390h1M320,92h1m48,0h1M134,279h1m731,14h1M623,537h1m-233,3h1m140,22h1M438,43h1M113,224h1M448,570h1M831,282h1M256,533h1M803,139h1m77,174h1M800,268h1M140,222h1M274,131h1M813,274h1M509,53h1M292,84h1M571,549h1M278,508h1M794,434h1M90,261h1M631,568h1M699,112h1M486,49h1M318,73h1M766,455h1M832,330h1M614,66h1M847,233h1M421,600h1M714,555h1M122,415h1M549,556h1M202,173h1m22,336h1M293,112h1m35,432h1M863,350h1M846,299h1M115,278h1m13,115h1M733,94h1M910,338h1M655,533h1M816,174h1M94,305h1M653,577h1M867,265h1M146,277h1m-27,43h1M411,594h1M619,546h1M162,425h1M216,103h1m523,35h1M506,586h1M577,21h1M82,215h1M845,318h1M571,552h1M173,469h1M696,83h1M914,364h1M288,502h1M864,372h1M558,611h1m-2,-53h1M530,58h1m23,519h1M358,78h1M824,476h1M543,99h1M298,95h1M232,551h1M145,152h1M725,507h1M456,93h1M407,553h1M860,236h1M310,88h1M135,446h1M524,82h1m289,62h1M280,106h1M660,510h1" style="stroke: black; fill: none;"></path>
    </g>
   </svg>
   <g>
    <g transform="translate(0,640)">
     <path d="M0,0h960M0,-24V0M19,-12V0M38,-12V0M58,-12V0M77,-12V0M96,-24V0M115,-12V0M134,-12V0M154,-12V0M173,-12V0M192,-24V0M211,-12V0M230,-12V0M250,-12V0M269,-12V0M288,-24V0M307,-12V0M326,-12V0M346,-12V0M365,-12V0M384,-24V0M403,-12V0M422,-12V0M442,-12V0M461,-12V0M480,-24V0M499,-12V0M518,-12V0M538,-12V0M557,-12V0M576,-24V0M595,-12V0M614,-12V0M634,-12V0M653,-12V0M672,-24V0M691,-12V0M710,-12V0M730,-12V0M749,-12V0M768,-24V0M787,-12V0M806,-12V0M826,-12V0M845,-12V0M864,-24V0M883,-12V0M902,-12V0M922,-12V0M941,-12V0M960,-24V0" style="stroke: black; stroke-width: 1;"></path>
     <g font-family="Arial" font-size="28" space="preserve" fill="black" text-anchor="middle">
      <text dy=".8em" transform="translate(0,5)">
       -5
      </text>
      <text dy=".8em" transform="translate(96,5)">
       -4
      </text>
      <text dy=".8em" transform="translate(192,5)">
       -3
      </text>
      <text dy=".8em" transform="translate(288,5)">
       -2
      </text>
      <text dy=".8em" transform="translate(384,5)">
       -1
      </text>
      <text dy=".8em" transform="translate(480,5)">
       0
      </text>
      <text dy=".8em" transform="translate(576,5)">
       1
      </text>
      <text dy=".8em" transform="translate(672,5)">
       2
      </text>
      <text dy=".8em" transform="translate(768,5)">
       3
      </text>
      <text dy=".8em" transform="translate(864,5)">
       4
      </text>
      <text dy=".8em" transform="translate(960,5)">
       5
      </text>
     </g>
    </g>
    <g>
     <path d="M0,0v640M36,640H0M18,627H0M18,614H0M18,602H0M18,589H0M36,576H0M18,563H0M18,550H0M18,538H0M18,525H0M36,512H0M18,499H0M18,486H0M18,474H0M18,461H0M36,448H0M18,435H0M18,422H0M18,410H0M18,397H0M36,384H0M18,371H0M18,358H0M18,346H0M18,333H0M36,320H0M18,307H0M18,294H0M18,282H0M18,269H0M36,256H0M18,243H0M18,230H0M18,218H0M18,205H0M36,192H0M18,179H0M18,166H0M18,154H0M18,141H0M36,128H0M18,115H0M18,102H0M18,90H0M18,77H0M36,64H0M18,51H0M18,38H0M18,26H0M18,13H0M36,0H0" style="stroke: black; stroke-width: 1;"></path>
     <g font-family="Arial" font-size="28" space="preserve" fill="black" text-anchor="end">
      <text dy=".4em" transform="translate(-6,640)">
       -5
      </text>
      <text dy=".4em" transform="translate(-6,576)">
       -4
      </text>
      <text dy=".4em" transform="translate(-6,512)">
       -3
      </text>
      <text dy=".4em" transform="translate(-6,448)">
       -2
      </text>
      <text dy=".4em" transform="translate(-6,384)">
       -1
      </text>
      <text dy=".4em" transform="translate(-6,320)">
       0
      </text>
      <text dy=".4em" transform="translate(-6,256)">
       1
      </text>
      <text dy=".4em" transform="translate(-6,192)">
       2
      </text>
      <text dy=".4em" transform="translate(-6,128)">
       3
      </text>
      <text dy=".4em" transform="translate(-6,64)">
       4
      </text>
      <text dy=".4em" transform="translate(-6)">
       5
      </text>
     </g>
    </g>
    <path d="M0,0v640M96,0v640M192,0v640M288,0v640M384,0v640M480,0v640M576,0v640M672,0v640M768,0v640M864,0v640M960,0v640" style="stroke: black; stroke-width: 1; stroke-dasharray: 1,2;"></path>
    <path d="M0,640h960M0,576h960M0,512h960M0,448h960M0,384h960M0,320h960M0,256h960M0,192h960M0,128h960M0,64h960M0,0h960" style="stroke: black; stroke-width: 1; stroke-dasharray: 1,2;"></path>
   </g>
  </g>
  <g>
   <path transform="translate(601,400)" d="M-383,0A383,256,0,1,0,383,0A383,256,0,1,0,-383,0Z" style="stroke: #ff0000; stroke-width: 4; fill: none;"></path>
  </g>
 </g>
</svg>