<svg xmlns="http://www.w3.org/2000/svg" viewBox="0 0 1200 800" preserveAspectRatio="none" width="1200" height="800">
 <path d="M0,0H1200V800H0Z" style="fill: white;"></path>
 <g>
  <svg viewBox="0 0 1176 384" preserveAspectRatio="none" x="12" y="8" width="1176" height="384">
   <path d="M0,0H1176V384H0Z" style="fill: white;"></path>
   <g>
    <g transform="translate(118,38)">
     <path d="M0,0H941V307H0Z" style="fill: white; stroke: black; stroke-width: 1;"></path>
     <svg x="0" y="0" overflow="hidden" width="941" height="307" viewBox="0 0 941 307">
      <g>
       <path d="M77,291h1m1,0h1m-1,-1h1m8,-1h1M77,276h1m-6,2h1m26,20h1m16,-2h1m-10,-3h1m-6,-1h1m-2,2h1m5,0h1m5,2h1m1,2h1m-17,0h1m1,-5h1m-6,4h1m11,-2h1m-11,0h1m7,4h1m10,-2h1m-6,-4h1m-16,1h1m3,-8h1m-3,0h1m-4,-1h1m5,0h1m-1,4h1m9,-3h1m-12,-2h1m7,2h1m5,-1h1m-15,-1h1m2,3h1m-3,-2h1m-6,4h1m10,-2h1m-8,0h1m4,-1h1m-13,5h1m2,-2h1m5,2h1m6,1h1M96,289h1m15,2h1m-1,-3h1m5,1h1M97,288h1m-1,0h1m7,0h1m-12,2h1m6,-3h1m7,-2h1m4,5h1m-1,-3h1m-10,-2h1m-9,6h1m3,-6h1m-5,4h1m-4,1h1m23,-3h1m-23,5h1m4,-1h1m12,0h1m-3,0h1m5,0h1m-11,-1h1m-2,-5h1m-9,3h1m-5,3h1m17,-6h1m-9,-3h1m6,-4h1m-11,4h1m11,-5h1m-8,3h1m8,3h1m-10,-4h1m-6,4h1m14,-7h1m-3,5h1M95,279h1m18,4h1m-2,-2h1M99,278h1m17,-1h1m-12,4h1m-5,-4h1m8,4h1M99,280h1m3,3h1m10,1h1m-11,-6h1m-9,5h1m8,0h1m6,-1h1m-2,-4h1m1,2h1m-12,-1h1m-1,3h1m-5,-1h1h1m-3,-5h1m7,3h1m-7,5h1m7,-1h1m-9,-7h1m5,-7h1m28,25h1m-2,2h1h1m-13,1h1m-1,-1h1m9,3h1m7,-6h1m-16,1h1m-2,-2h1m-3,1h1m-3,3h1m1,-2h1m13,-8h1m-17,0h1m0,2h1m1,0h1m3,2h1m8,2h1m-8,-2h1m1,-4h1m-6,3h1m-3,-2h1m-4,0h1m6,4h1m4,-7h1m-12,7h1m1,-2h1m10,-3h1m-2,0h1m2,1h1m-10,3h1m5,-4h1m-2,3h1m-8,-3h1m-3,2h1m7,-1h1m-5,-1h1m9,2h1m1,0h1m-20,-1h1m9,-2h1m3,5h1m-11,-5h1m-2,7h1m3,-8h1m6,2h1m-6,0h1m9,0h1m-14,1h1m3,2h1m-6,1h1m6,-3h1m-1,1h1m-11,0h1m10,0h1m-4,2h1m6,-2h1m-20,-3h1m9,-1h1m8,8h1m-1,0h1m-7,-3h1m5,-8h1m-2,-3h1m-1,2h1m-6,1h1m-11,0h1m16,0h1m-19,2h1m19,-2h1m-10,2h1m3,-2h1m-18,2h1m18,1h1m-7,-5h1m-4,-1h1m7,4h1m-20,-5h1m19,2h1m-16,1h1m11,0h1m5,3h1m-16,-2h1m-5,-2h1m-2,4h1m9,-1h1m5,-2h1m-1,-3h1m3,0h1m-20,0h1m9,1h1m-5,1h1m-5,3h1m-6,1h1m0,-4h1m4,-2h1m6,0h1m-2,0h1m-9,0h1m13,1h1m-7,6h1m-9,-7h1m4,2h1m12,0h1m-17,4h1m9,-7h1m-10,7h1m9,0h1m-13,-4h1m11,1h1m-5,3h1m-9,-2h1m13,2h1m-7,-2h1m-1,-2h1m4,-1h1m-16,4h1m-1,-2h1m12,2h1m-14,1h1m4,-6h1m-8,7h1m7,-5h1m2,-2h1m-13,3h1m1,-3h1m11,6h1m6,-14h1m-8,4h1m0,2h1m0,-4h1m3,-1h1m-14,1h1m-7,0h1m4,1h1m-7,2h1m7,0h1m-3,-1h1m-6,-1h1m1,-2h1m3,4h1m-7,-3h1m18,-2h1m-3,2h1m0,3h1m-6,-2h1m-13,3h1m3,-4h1m-1,3h1m11,-3h1m2,2h1m-3,-4h1m0,6h1m-13,-2h1m-1,-3h1m-7,2h1m-1,-1h1m9,1h1m-13,3h1m4,-4h1m1,-1h1m14,3h1m-3,1h1m-8,-4h1m-7,-1h1m-9,4h1m20,-3h1m-9,4h1m7,-1h1m-8,-2h1m4,5h1m-10,-1h1m-4,-2h1m13,0h1m0,-1h1m-11,3h1m-8,-2h1m8,2h1m2,1h1m-6,-9h1m2,-4h1m-1,-1h1m4,4h1m-9,-2h1m9,4h1m-3,-1h1m-5,-1h1m-5,3h1m20,19h1m-5,0h1m-7,-3h1m17,0h1m4,-6h1m0,4h1m-19,-4h1m17,4h1m-6,-4h1m-2,1h1m-18,0h1m19,-3h1m-18,4h1m15,-2h1m-12,2h1m-10,-3h1m21,1h1m-3,-1h1m-20,5h1m15,0h1m-1,1h1m6,-1h1m-24,-1h1m0,-1h1m13,3h1m-1,-1h1m-7,1h1m6,-3h1m-16,-2h1m17,1h1m-6,1h1m-10,-4h1m-1,-1h1m1,5h1m-9,-4h1m4,1h1m9,3h1m-8,2h1m10,-2h1m1,2h1m-21,-2h1m5,-1h1m2,-2h1m1,4h1m-10,0h1m2,1h1m10,-6h1m-4,0h1m-9,3h1m15,1h1m-17,1h1m15,-1h1m-17,-6h1m13,-5h1m-20,1h1m13,3h1m-4,-3h1m10,3h1m-19,1h1m8,-3h1m1,1h1m-9,-3h1m4,1h1m-6,-2h1m2,7h1m4,-1h1m-16,1h1m19,-3h1m-17,-2h1m15,1h1m0,-2h1m-10,0h1m-10,4h1m5,-2h1m-8,0h1m13,-2h1m-6,3h1m2,-2h1m3,-2h1m2,4h1m-20,2h1m19,-1h1m-2,-3h1m-20,0h1m15,4h1m3,-5h1m-14,1h1m2,3h1m-4,-4h1m7,3h1m-16,0h1m6,1h1m-5,-4h1m5,6h1m1,-4h1m-11,0h1m7,-2h1m9,6h1m-17,-2h1m7,-4h1m8,5h1m-12,-2h1m-3,-3h1m-2,0h1m-1,0h1m-9,0h1m4,4h1m16,-3h1m-23,1h1m0,4h1m8,-2h1m8,1h1m-7,-1h1m-13,-5h1m3,5h1m-6,-4h1m19,-6h1m-3,-3h1m-12,1h1m5,0h1m-10,2h1m-1,-2h1m2,2h1m-2,-2h1m3,5h1m4,-5h1m-15,6h1m4,0h1m-3,-3h1m8,-3h1m-9,5h1m14,1h1m1,-3h1m-17,-1h1m-4,3h1m14,-1h1m-3,-3h1m-3,0h1m1,-1h1m-5,6h1m-2,-5h1m-9,1h1m16,0h1m-9,4h1m-7,-7h1m3,3h1m1,5h1m-4,-1h1m-1,-5h1m5,1h1m-6,-2h1m0,1h1m5,2h1m-1,-4h1m-16,1h1m14,1h1m-9,1h1m7,-1h1m0,5h1m-16,-2h1m11,1h1m5,-1h1m-12,-4h1m-10,1h1m16,1h1m-19,-1h1m15,5h1m4,-4h1m-9,-2h1m-12,4h1m10,1h1m-13,0h1m9,-2h1m0,-9h1m-12,2h1m6,-2h1m-8,0h1m3,-1h1m-3,2h1m4,-2h1m14,4h1m-10,-3h1m-6,3h1m1,-5h1m-7,5h1m10,0h1m-12,-6h1m30,29h1m-3,-4h1m1,4h1m-13,2h1m18,0h1m-19,-7h1m6,-3h1m12,1h1m-3,-1h1m-12,-1h1m5,-3h1m5,6h1m-9,-5h1m-13,-1h1m1,6h1m-2,-3h1m13,-1h1m4,-2h1m0,5h1m-10,-2h1m-1,-1h1m6,0h1m-12,1h1m1,-3h1m0,4h1m1,1h1m-3,-3h1m0,-1h1m2,-1h1m-16,5h1m1,-1h1m-3,0h1m-1,-4h1m10,4h1m10,-2h1m-22,4h1m13,-3h1m-1,1h1m-1,-2h1m-12,4h1m5,-3h1m-12,0h1m12,2h1m-7,-4h1m-8,2h1m5,-1h1m16,3h1m-19,-6h1m0,4h1m9,-3h1h1m-10,1h1m1,2h1m8,-11h1m-18,2h1m11,-1h1m-6,6h1m8,-1h1m-13,1h1m4,-5h1m-8,-2h1m8,3h1m-10,0h1m5,2h1m11,2h1m-8,-3h1m-12,-1h1m11,-4h1m-16,6h1m4,-1h1m15,-4h1m-16,5h1m-7,-5h1m19,3h1m-15,-3h1m4,0h1m1,4h1m-11,-4h1m0,3h1m9,4h1m-14,-7h1m7,6h1m5,-4h1m-14,-2h1m15,2h1m-13,-2h1m11,0h1m-17,4h1m4,-1h1m9,2h1m-11,-1h1m-2,0h1m-1,-4h1m10,5h1m-12,-2h1m11,-3h1m-7,1h1m-5,1h1m-3,0h1m4,-3h1m6,5h1m-9,-2h1m1,1h1m1,-3h1m6,6h1m-10,-6h1m-5,7h1m7,-7h1m-13,2h1m-6,2h1m7,0h1m-6,0h1m2,2h1m-5,0h1m1,-3h1m7,-11h1m1,1h1m2,-1h1m-11,3h1m4,4h1m-2,-7h1m5,3h1m1,4h1m-5,-2h1m-7,-1h1m4,-4h1m-9,-1h1m-6,5h1m3,-4h1m7,7h1m0,-6h1m2,1h1m-7,2h1m4,-3h1m-9,1h1m10,2h1m-4,0h1m-5,-4h1m-4,0h1m10,0h1m-2,1h1m-15,-1h1m-1,3h1m-5,4h1m-1,-6h1m12,4h1m-1,-5h1m-11,-1h1m2,2h1m5,2h1m2,0h1m-6,-3h1m8,2h1m-16,-2h1m-4,7h1m1,-1h1m9,1h1m-6,-4h1m9,4h1m-15,-7h1m-5,0h1m9,6h1m-8,-6h1m8,4h1m4,-3h1m1,2h1m2,1h1m-12,-1h1m-11,-1h1m19,-3h1m-8,7h1m0,-7h1m-1,7h1m0,-2h1m-16,2h1m3,-2h1m0,-5h1m3,4h1m-4,0h1m0,-10h1m2,5h1m5,-2h1m-7,0h1m-12,-2h1m17,1h1m-18,-1h1m15,1h1m-9,0h1m3,-2h1m-4,2h1m7,-2h1m2,3h1m-4,-2h1m-2,3h1m-10,-5h1m10,4h1m-12,-3h1m16,26h1m11,-7h1m-10,-5h1m4,2h1m6,2h1m-9,-1h1m8,1h1m-3,4h1m1,-4h1m-16,0h1m18,-1h1m-3,3h1m-20,-3h1m20,-2h1m-6,1h1m4,5h1m-16,-5h1m6,0h1m4,2h1m-18,2h1m10,-1h1m-4,2h1m2,-7h1h1m-12,4h1m1,-1h1m-7,5h1m2,-4h1m17,-1h1m-12,2h1m-11,-1h1m15,2h1m7,-4h1m-9,-2h1m-16,8h1m13,-5h1m-3,-2h1m-14,0h1m22,6h1m-8,-5h1m1,0h1m-19,-2h1m11,4h1m-9,1h1m9,-3h1m-9,5h1m3,-1h1m9,-2h1m-2,2h1m-4,-3h1m-4,-2h1m3,6h1m-1,-3h1m1,-9h1m-2,3h1m-6,-4h1m-4,1h1m-10,-3h1m18,2h1m-8,3h1m5,-4h1m-17,6h1m13,-7h1m-7,6h1m0,-1h1m4,2h1m-3,-2h1m6,-3h1m-21,6h1m17,-8h1m-8,4h1m-5,3h1m-6,-2h1m2,-5h1m-7,3h1m8,0h1m5,1h1m5,1h1m-5,-2h1m-17,2h1m-1,2h1m10,-4h1m9,1h1m-7,-2h1m-10,6h1m-4,-1h1m-4,-6h1m16,3h1m-20,-3h1m7,0h1m-1,1h1m5,4h1m-4,-3h1m-8,-2h1m19,6h1m-18,-6h1m1,0h1m5,5h1m-16,1h1m3,0h1m-5,-6h1m14,4h1m7,-3h1m-8,4h1m6,-6h1m-17,7h1m-5,-3h1m17,-3h1m-11,0h1m0,-3h1m-10,2h1m3,-1h1m-3,-1h1m1,-2h1m6,3h1m-4,-1h1m-3,1h1m7,-2h1m-12,-1h1m8,3h1m-1,-2h1m-11,1h1m-5,-4h1m20,5h1m-22,-1h1m14,-3h1m-13,4h1m18,0h1m-17,-6h1m15,2h1m-22,-1h1m-3,3h1m1,-1h1m6,4h1m-4,-2h1m15,0h1m0,-3h1m-22,0h1m10,1h1m-2,-3h1m7,1h1m-10,4h1m2,-3h1m-3,1h1m-6,-1h1m-7,-2h1m4,3h1m16,3h1m-6,-3h1m-18,4h1m6,-3h1m11,-3h1m-13,-1h1m-8,1h1m13,0h1m-16,0h1m2,1h1m-4,2h1m3,0h1m-2,-2h1m-3,0h1m1,-2h1m8,1h1m10,0h1m-15,3h1m6,0h1m-3,-3h1m-3,1h1m10,4h1m-2,-2h1m-10,2h1m-7,-1h1m16,-2h1m-18,0h1m-1,-8h1m8,-2h1m-11,5h1m-5,1h1m17,-2h1m-20,-4h1m10,3h1m-9,3h1m-2,-2h1m17,2h1m-4,-2h1m2,-3h1m-9,0h1m2,-2h1m0,2h1m-5,-1h1m-3,0h1m5,2h1m-1,3h1m-17,-2h1m10,1h1m-1,1h1m-4,-1h1m-1,-3h1m10,-2h1m-18,3h1m6,4h1m7,-5h1m-18,4h1m8,0h1m2,-1h1m-8,2h1m9,-3h1m7,3h1m-10,0h1m30,8h1m-20,5h1m8,-3h1m9,1h1m-14,-1h1m5,0h1m-2,4h1m-1,-5h1m-15,6h1m10,0h1m-4,-7h1m8,2h1m4,1h1m-6,4h1m-17,-3h1m11,3h1m-6,-1h1m-5,0h1m12,-5h1m2,5h1m-9,-4h1m-2,-2h1m-8,5h1m9,-3h1m7,0h1m-6,6h1m-8,-11h1m-8,-3h1m0,6h1m-1,-5h1m-4,0h1m16,1h1h1m-14,4h1m-4,-5h1m9,2h1m-5,-1h1m1,1h1m0,2h1m4,-1h1m-11,-5h1m9,6h1m-5,-1h1m-9,-1h1m-3,1h1m-1,2h1m19,-4h1m-15,-1h1m10,3h1m-12,-2h1m10,-2h1m-1,2h1m-20,3h1m7,-1h1m-6,-3h1m17,2h1m-18,3h1m-3,-6h1m9,4h1m-7,-3h1m-5,4h1m16,0h1m-1,1h1m-8,-6h1m-5,0h1m10,1h1m-20,0h1m20,3h1m-7,0h1m0,-2h1m-15,2h1m3,-2h1m5,4h1m1,-2h1m0,-3h1m-14,2h1m6,3h1m3,-4h1m-7,2h1m-4,-1h1m8,2h1m-9,0h1m14,-3h1m-10,-3h1m-11,2h1m20,2h1m-20,3h1m11,-3h1m-13,-2h1m1,3h1m15,1h1m-18,-3h1m12,-1h1m-11,3h1m5,-5h1m2,4h1m-7,2h1m5,-4h1m-5,2h1m-2,2h1m-9,-9h1m10,2h1m-6,-4h1m12,-1h1m-8,5h1m-16,-7h1m2,4h1m3,3h1m-7,-4h1m11,4h1m-9,0h1m-2,-6h1m12,0h1m1,2h1m-15,4h1m12,-2h1m-9,1h1m-8,-3h1m1,-2h1m6,2h1m-14,-2h1m16,0h1m-3,2h1m-15,3h1m6,0h1m2,1h1m-12,-4h1m16,4h1m-7,-6h1m2,7h1m6,-5h1m-8,0h1m6,1h1m-1,1h1m-4,-4h1m-11,4h1m1,2h1m9,0h1m-18,-2h1m16,1h1m-20,0h1m-1,-5h1m13,0h1m-10,6h1m-3,-2h1m10,-1h1m0,-1h1m-13,-1h1m17,1h1m-9,-2h1m-4,7h1m-1,-5h1m9,-1h1m-2,2h1m-4,-1h1m-12,-2h1m8,5h1m-5,1h1m-3,-5h1m3,3h1m-3,-2h1m4,5h1m-15,-5h1m17,4h1m-16,-6h1m-5,-1h1m21,-1h1m-5,1h1m-15,-7h1m9,1h1m-5,4h1m6,-5h1m1,1h1m-11,4h1m-1,-5h1m8,3h1m-8,3h1m3,0h1m-12,-7h1m2,5h1m-9,-4h1m10,3h1m8,-1h1m-7,3h1m8,-3h1m-16,-1h1m-2,2h1m6,-3h1m-3,7h1m-4,-1h1m-9,-2h1m-1,3h1m10,-3h1m0,-1h1m-5,-2h1m8,3h1m-2,1h1m-9,-5h1m-2,2h1m-3,0h1m-1,5h1m-5,-5h1m12,-3h1m6,5h1m-21,-2h1m2,0h1m15,-3h1m-4,-2h1m-15,-5h1m28,29h1m-11,0h1m13,-3h1m-11,0h1m-4,0h1m12,0h1m9,3h1m-16,-5h1m0,5h1m-5,-5h1m1,0h1h1m13,3h1m-13,2h1m1,-4h1m-11,-1h1h1m19,0h1m-5,5h1m-10,-4h1m9,3h1m1,-1h1m-23,-4h1m10,1h1m-12,5h1m13,-5h1m0,1h1m-15,4h1m10,0h1m-5,-3h1m-8,-10h1m2,7h1m9,-7h1m-8,0h1m15,2h1m-20,-2h1m-3,5h1m4,1h1m-9,-5h1m16,0h1m-1,-1h1m-13,2h1m14,0h1m-10,4h1m10,-2h1m-10,-1h1m-2,-3h1m-5,2h1m5,-1h1m4,4h1m4,-4h1m-7,2h1m-10,-1h1m-10,0h1m19,3h1m3,-5h1m-10,3h1m4,2h1m-7,-4h1m2,-2h1m-10,5h1m-9,-4h1m22,6h1m-9,-5h1m-10,0h1m-4,2h1m6,-2h1m-7,3h1m-1,-3h1m-1,1h1m1,0h1m12,0h1m0,4h1m-9,-6h1m-4,4h1m9,-5h1m-19,7h1m1,-5h1m7,0h1m7,2h1m-5,3h1m-2,0h1m-3,0h1m-1,-1h1m-8,2h1m18,-7h1m-18,-1h1m-2,2h1m-4,1h1m6,-2h1m4,3h1m3,-2h1m-15,0h1m-2,4h1m2,-3h1m3,2h1m-11,-3h1m13,3h1h1m-14,-1h1m0,3h1m7,-5h1m-9,6h1m10,-1h1m0,-2h1m-10,3h1m1,-11h1m-8,2h1m21,-6h1m-17,3h1m8,-4h1m-2,7h1m-11,0h1m9,-1h1m-1,0h1m4,-1h1m-8,2h1m3,-3h1m1,-2h1m-3,4h1m-8,0h1m-4,-4h1m2,6h1m-4,-6h1m4,2h1m7,3h1m-2,-3h1m-9,3h1m-1,-1h1m-10,0h1m7,0h1h1m4,1h1m-2,-2h1m-9,0h1m8,1h1m-4,-4h1m-14,1h1m9,1h1m-11,0h1m1,3h1m2,-3h1m17,3h1m-16,-5h1m7,5h1m-12,-4h1m11,4h1m-2,-2h1m-9,2h1m-10,-2h1m19,0h1m-3,-4h1m-10,3h1m-7,3h1m16,-4h1m-12,0h1m10,-1h1m-18,0h1m17,1h1m-1,-1h1m-22,4h1m4,-2h1m18,-3h1m-22,7h1m9,-14h1m-1,3h1m-5,-1h1m10,0h1m-3,2h1m-10,0h1m-1,-2h1m0,3h1m11,1h1m-12,0h1m-10,-1h1m10,-5h1h1m4,0h1m-4,1h1m-3,3h1m-12,1h1m-4,-4h1m20,-1h1m-21,-1h1m14,7h1m5,-4h1m-2,0h1m-4,-2h1m-9,2h1m-5,2h1m14,2h1m-10,-1h1m-9,-5h1m18,6h1m-14,-6h1m1,4h1m-12,-1h1m6,1h1m9,1h1m-8,-4h1m-7,-1h1m8,1h1m7,4h1m-17,0h1m7,-3h1m1,-7h1m20,21h1m0,3h1m-9,1h1m9,-6h1m-11,7h1m15,0h1m-15,-6h1m2,1h1m1,2h1m-5,1h1m12,-1h1m-11,1h1m-2,0h1m-10,0h1m20,-5h1m-6,7h1m-14,-2h1m4,-5h1m6,-4h1m2,-3h1m-5,5h1m-16,-1h1m19,-2h1m-20,2h1m6,3h1m3,-3h1m-5,1h1m7,2h1m4,-3h1m-15,3h1m13,-4h1m-16,2h1m0,-5h1m-3,3h1m-1,3h1m-5,-1h1m7,-3h1m5,3h1m1,1h1m2,-6h1m-22,1h1m22,-2h1m-23,8h1m10,-2h1m0,-6h1m-6,5h1m10,0h1m-7,-3h1m8,5h1m-6,-4h1m-14,3h1m15,-2h1m-17,4h1m2,-6h1m4,1h1m-8,2h1m10,-5h1m-9,5h1m0,-2h1m2,-1h1m-8,2h1m3,-1h1m-8,-1h1m4,6h1m5,-4h1m-3,1h1m-1,0h1m8,-1h1m-8,-2h1m-11,5h1m-1,-2h1m9,3h1m2,-3h1m-7,-3h1m8,-1h1m0,4h1m0,-1h1m-19,-2h1m-1,2h1m4,-1h1m-3,2h1h1m2,2h1m-8,-2h1m13,-3h1m-14,0h1m11,-6h1m5,4h1m-23,-6h1m11,5h1m7,-6h1m-17,4h1m1,-4h1m12,3h1m3,1h1m-11,-3h1m-12,1h1m9,3h1m1,-5h1m8,1h1m-14,2h1m5,0h1m-1,-2h1m0,1h1m-14,2h1m-2,-2h1m-1,5h1m2,-3h1m8,2h1m2,0h1m-12,-3h1m-5,-1h1m14,-1h1m-13,6h1m-5,-5h1m10,2h1m1,-2h1m0,-1h1m-7,5h1m9,1h1m-13,-4h1m2,4h1m-7,-1h1m1,-2h1m15,1h1m-15,-1h1m7,-3h1h1m-14,6h1m-6,-6h1m22,5h1m-12,-2h1m-2,-2h1m-7,1h1m1,1h1m-1,-2h1m-3,1h1m-3,-2h1m15,1h1m-11,1h1m6,3h1m-17,-1h1m8,1h1m-8,-1h1m16,-4h1m-2,0h1m-4,0h1m-15,1h1m11,5h1m4,-2h1m-11,-7h1m0,-4h1m-1,3h1m10,-4h1m-21,6h1m0,-2h1m12,-3h1m6,5h1m-19,-4h1m13,-1h1m-2,2h1m-10,-3h1m-2,2h1m9,2h1m-14,1h1m7,1h1m-1,-4h1m10,3h1m-7,-2h1m2,4h1m-1,-6h1m-12,1h1m3,5h1m2,-7h1m-5,1h1m10,5h1m-22,-6h1m3,5h1m1,-1h1m-4,-2h1m2,3h1m9,1h1m-3,-4h1m-4,-2h1m9,1h1m-11,3h1m-11,-1h1m1,-1h1m14,2h1m-5,-3h1m-10,-1h1m7,1h1m-2,3h1m4,-3h1m-3,2h1m-9,-3h1m-5,3h1m0,2h1m6,-1h1m5,0h1m-7,-2h1m1,-1h1m-4,2h1m8,-1h1M261,207h1m-2,4h1m19,0h1m-14,-2h1m1,4h1m0,-2h1m10,2h1m-12,0h1m-1,0h1m30,19h1m0,1h1m0,-1h1m-17,2h1m-6,-3h1m1,7h1m12,0h1m-4,-7h1m-3,-1h1m11,1h1m-11,7h1m7,-4h1m-19,-3h1m18,5h1m0,-3h1m0,-1h1m-15,-1h1m-2,3h1m-1,0h1m5,-2h1m-9,5h1m-3,0h1m5,-4h1m-9,-9h1m5,4h1m0,-2h1m-8,-2h1m15,1h1m3,4h1m-5,-6h1m-9,5h1m-2,-2h1m4,-3h1m-6,4h1m-8,-2h1m13,2h1m-12,0h1m10,0h1m-4,1h1m-9,2h1m12,-1h1m-17,-1h1m15,0h1m1,-1h1m0,2h1m-21,0h1m20,-5h1m-16,1h1m4,5h1m7,-6h1m-20,4h1m13,-4h1m0,3h1m1,-3h1m-8,5h1m-5,-2h1m0,1h1m-9,-4h1m9,5h1m-4,-3h1h1m-4,-1h1m-3,3h1m2,-2h1m2,2h1m5,0h1m-3,-4h1m5,1h1m-2,5h1m-1,-6h1m2,3h1m-12,0h1m5,3h1m-9,-6h1m3,6h1m0,-3h1m4,-3h1m3,3h1h1m-1,1h1m-12,-3h1m-9,3h1m-4,-2h1m2,4h1m17,-1h1m-19,0h1m17,-3h1m-17,-1h1m1,1h1m1,-3h1m8,6h1m-14,1h1m-7,-1h1m19,-6h1m-8,2h1m2,-6h1m-3,4h1m-8,-5h1m11,3h1m-7,-5h1h1m4,6h1m-1,-2h1m-12,-4h1m-3,4h1m-3,-3h1m19,5h1m-15,0h1m-2,-3h1m7,0h1m-14,-2h1m9,6h1m6,-5h1m-19,0h1m16,3h1m-15,1h1m6,-3h1m-14,3h1m10,-4h1m8,1h1m-19,3h1m16,-3h1m-17,4h1m8,-5h1m-8,5h1m12,-3h1m-6,-1h1m5,3h1m-4,-2h1m-7,2h1m8,-2h1m-18,2h1m11,-4h1m4,-2h1m-8,7h1m-9,-2h1m16,0h1m-7,-1h1m2,-1h1m-17,1h1m14,-3h1m-4,5h1m-14,-7h1m6,1h1m13,3h1m-9,3h1m-11,-2h1m5,1h1m11,-2h1m-9,-3h1m7,0h1m-13,5h1m-4,1h1m9,0h1m2,-7h1m-19,4h1m7,-5h1m-3,0h1m3,-2h1m1,-3h1m-12,0h1m20,0h1m-6,5h1m-6,-3h1m-12,-1h1m12,3h1m-15,-4h1m20,1h1m-22,-2h1m3,4h1m3,0h1m13,-5h1m-22,6h1m11,-3h1m-3,-3h1m5,2h1m-7,3h1m0,1h1m4,-4h1m-9,3h1m6,-2h1m-18,0h1m1,4h1m9,-4h1m-12,4h1m2,-4h1m-3,1h1m4,-1h1m-9,-1h1m6,4h1m7,-2h1m-10,4h1m-7,-1h1m4,-3h1m-6,-1h1m6,2h1m4,-2h1m-9,4h1m10,-5h1m-4,3h1m-5,-4h1m4,-1h1m4,6h1m-10,-4h1m13,1h1m-7,2h1m4,-1h1m-4,-2h1m4,4h1m-9,2h1m6,-7h1m-23,2h1m9,0h1m-7,-3h1m11,8h1m4,-2h1m-2,1h1m-9,0h1m3,-2h1m-3,1h1m3,-1h1m-11,2h1m8,-1h1m-16,-4h1m3,6h1m8,-6h1m-5,4h1m1,1h1m-7,-6h1m-8,-5h1m11,0h1m-4,3h1m9,-4h1m-11,2h1m2,-2h1m2,-1h1m-1,6h1m-17,-3h1m1,-2h1m12,2h1m-3,0h1m4,-3h1m-13,4h1m35,25h1m-1,-1h1m-7,-5h1m-12,2h1m15,0h1m-7,3h1m8,-5h1m-17,-1h1m5,7h1m-7,0h1m17,-7h1m-13,3h1m11,3h1m-16,-2h1m11,-2h1m-11,-2h1m-6,1h1m-4,0h1m4,5h1m5,1h1m2,-3h1m-4,2h1m-4,-3h1m4,-4h1m8,-4h1m-6,-1h1m-10,4h1m-6,-3h1m16,-1h1m-15,-1h1m11,-1h1m-15,6h1m0,-3h1m4,2h1m9,1h1m-22,1h1m4,-3h1m3,-2h1m-5,0h1m16,-1h1m-11,7h1m-12,-8h1m-1,7h1m14,-3h1m-1,-3h1m1,0h1m2,2h1m-21,1h1m18,2h1m0,1h1m-12,-1h1m1,-1h1m5,2h1m-19,-3h1m8,1h1m7,-3h1m-2,-1h1m2,-1h1m-4,2h1m-13,0h1m11,2h1m5,-3h1m-4,2h1m-15,1h1m1,3h1m13,-5h1m-6,4h1m-3,1h1m-12,-5h1m2,2h1m15,-1h1m-15,-1h1m-3,2h1m12,2h1m1,0h1m-8,-2h1m-7,-1h1m4,-3h1m-8,8h1m-3,-4h1m4,4h1m7,-6h1m-3,1h1m-8,1h1m-6,-7h1m1,1h1m5,-3h1m-11,1h1m18,2h1m-20,-3h1m19,3h1m-3,-4h1m-18,4h1m19,-4h1m-19,0h1m0,-2h1m4,4h1m7,1h1m-2,-4h1m-4,4h1m-5,-3h1m2,-1h1m9,0h1m-21,1h1m6,-2h1m-6,4h1m4,1h1h1m-11,-3h1m6,0h1m-8,0h1m2,6h1m8,-2h1m2,1h1m0,-4h1m-13,-2h1m7,0h1m2,3h1m2,0h1m-8,-1h1m-1,-3h1m5,7h1m-12,-2h1m-4,1h1m4,0h1m-2,-6h1m9,5h1m-3,-1h1m-5,3h1m8,-6h1m-18,2h1m0,5h1m14,-2h1m-4,-4h1m-2,4h1m-13,-5h1m-5,5h1m1,-2h1m0,2h1m6,0h1m-4,-3h1m-7,4h1m18,-2h1m-3,1h1m-2,-3h1m-3,2h1m-3,1h1m4,1h1m-6,-2h1m-8,-1h1m12,1h1m-5,-3h1m3,2h1m-17,3h1m12,-1h1m-5,-4h1m4,5h1m-18,0h1m13,-12h1m8,1h1m-9,2h1m-15,-4h1m6,3h1m-6,0h1m5,3h1m-6,-1h1m16,-2h1m-2,3h1m-19,-5h1m14,-1h1m5,0h1m-10,1h1m-2,1h1m-7,-1h1m5,2h1m5,-4h1m-10,6h1m-2,-1h1m0,-5h1m-1,1h1m-5,4h1m3,-1h1m-3,-1h1m-4,4h1m15,-2h1m-22,1h1m-1,-2h1m1,-2h1m0,2h1h1m13,0h1m-11,-3h1m13,2h1m-21,0h1m1,1h1m1,3h1m13,-1h1m1,0h1m-6,-6h1m0,1h1m-2,3h1m-15,2h1m14,-2h1m2,0h1m-21,-4h1m19,2h1m-21,2h1m6,-1h1m0,-2h1m-6,2h1m7,0h1m-10,-2h1m4,2h1m7,1h1m1,0h1m-15,1h1m7,-4h1m2,2h1m5,1h1m-17,2h1m2,-3h1m13,3h1M306,195h1m-1,0h1m9,-2h1m9,4h1m-11,-5h1m-8,2h1m4,-2h1m11,7h1m2,-6h1m-20,0h1m-3,3h1m9,1h1m0,1h1m-1,1h1m6,-1h1m1,1h1m-12,-7h1m0,7h1m33,22h1m-4,-1h1m-12,-1h1m-8,-8h1m-2,2h1m20,-4h1m-6,3h1m-16,2h1m12,-2h1m3,2h1m-18,-6h1m19,4h1m-9,1h1m-11,-4h1m3,2h1m4,0h1m-13,2h1m16,0h1m-7,0h1m-10,-6h1m7,4h1m11,0h1m-3,-1h1m-13,5h1m-6,0h1m17,-3h1m-15,-5h1m-7,6h1m-2,-5h1m11,1h1m-8,3h1m-2,-3h1m-3,-2h1m-1,4h1m13,4h1m-14,-4h1m14,3h1m3,0h1m-20,-1h1m12,-6h1m-13,6h1m10,-1h1m3,2h1m-17,-3h1m0,-2h1m18,5h1m-18,-7h1m5,4h1m-2,-1h1m7,-2h1m-5,5h1m-3,1h1m6,1h1m-7,-5h1m-14,1h1m19,-1h1m-3,-1h1m-11,3h1m-10,-3h1m19,2h1m-5,0h1m-9,-1h1m5,-1h1m-12,2h1m-2,1h1m15,-7h1m-9,-2h1m-9,2h1m5,-3h1m0,-1h1m6,0h1m-11,1h1m-2,1h1m3,-2h1m-2,1h1m-2,4h1m10,-4h1m1,-2h1m-8,5h1m-4,-3h1m8,3h1m-16,-3h1m4,2h1m-11,-3h1m10,3h1m-4,2h1m11,-5h1m-6,5h1m-10,-5h1m0,1h1m10,-1h1m-13,1h1m3,0h1m4,5h1m-12,-6h1m9,1h1m4,4h1m-1,-5h1m3,3h1m-15,-4h1m5,4h1m-3,2h1m10,-4h1m-4,-2h1m-6,3h1m4,-3h1m-4,3h1m-18,4h1m7,-1h1m-2,-2h1m-8,-2h1m2,2h1h1m10,-2h1m6,-2h1m-6,2h1m4,-1h1m-10,2h1m3,2h1m3,-3h1m-10,0h1m-6,-1h1m-8,-4h1m-2,-4h1m0,3h1m9,-2h1m4,5h1m-7,-3h1m3,3h1m3,-6h1m-1,3h1m-15,2h1m-3,-6h1m16,5h1m1,-1h1m-12,3h1m-8,-1h1m2,-6h1m16,3h1m-5,2h1m-19,-5h1m9,3h1m-5,-1h1m-4,4h1m-4,1h1m1,-3h1m15,-3h1m-19,5h1m16,-5h1m-3,5h1m5,-3h1m-3,3h1m-20,-2h1m11,-3h1m-6,5h1m-2,-1h1m8,-1h1m5,3h1m-17,-6h1m-4,7h1m15,-4h1m-11,1h1m12,3h1m0,-4h1m-22,3h1m5,-6h1m3,7h1m-4,-7h1m9,6h1m-9,0h1m-5,-3h1m-7,4h1m10,-4h1m7,-1h1m-11,3h1m10,-4h1m-6,4h1m-3,-5h1m3,6h1m-18,-5h1m16,6h1m-3,-6h1m-15,4h1m21,-11h1m-11,1h1m-14,-4h1m19,3h1m-9,2h1m-6,-4h1m10,-1h1m-6,2h1m-1,-2h1m-6,2h1m-1,1h1m-6,-2h1m7,1h1m-9,5h1m9,-2h1m-11,3h1m16,-1h1m-6,-3h1m-1,3h1m-9,-5h1m3,-2h1m6,3h1m-11,0h1m-7,1h1m1,1h1m8,-2h1m7,4h1m-21,-5h1m9,5h1m2,-1h1m-10,0h1m-5,-5h1m0,4h1m0,-1h1m3,-4h1m7,3h1m7,1h1m-5,-4h1m-4,3h1m-10,-2h1m3,1h1m-10,1h1m33,26h1m-9,-8h1m14,-1h1m-3,-3h1m1,3h1m-8,-2h1m6,-1h1m-9,3h1m-1,1h1m8,-4h1m-13,1h1m-8,0h1m7,4h1m6,0h1m-13,-5h1m11,4h1m4,-5h1m-18,2h1m9,-2h1m4,4h1m-1,2h1m-21,-5h1m7,0h1h1m6,3h1m-5,2h1m3,0h1m-5,-2h1m9,-4h1m-12,6h1m-7,-2h1m6,3h1m1,-1h1m-12,-4h1m8,1h1m-11,-1h1m14,2h1m-15,0h1m5,1h1m-2,-3h1m-9,1h1m4,2h1m3,1h1m3,1h1m3,-4h1m-6,0h1m-6,-3h1m-8,6h1m10,-9h1m-3,1h1h1m-2,-2h1m13,-4h1m-16,3h1m0,3h1m-7,-4h1m5,6h1m-4,-6h1m10,0h1m-9,0h1m-8,-2h1m16,8h1m-16,-1h1m13,-1h1m1,-6h1m-11,7h1m-2,-6h1m-1,0h1m9,2h1m-14,-2h1m5,5h1m9,-5h1m-21,7h1m16,-6h1m0,-1h1m-11,7h1m-5,-7h1m-4,3h1m0,-2h1m2,3h1m6,0h1m-2,-1h1m8,3h1m-19,-5h1m7,2h1m0,2h1m-5,1h1m13,-2h1m-18,-1h1m6,-1h1m-1,-3h1m8,7h1m-15,0h1m-5,-3h1m18,1h1m-12,-2h1m5,3h1m-15,-2h1m15,4h1m-20,-8h1m10,8h1m2,-5h1m4,3h1m-12,-2h1m-2,2h1m-3,-6h1m5,7h1m-2,-6h1m1,6h1m-4,-3h1m0,-6h1m7,1h1m-7,-5h1m-6,1h1m1,2h1m5,-3h1m0,6h1m-11,-4h1m15,-2h1m-10,-1h1m-8,3h1m-7,2h1m10,-4h1m-2,2h1m-1,-4h1m-10,8h1m9,-4h1m-1,-1h1m-9,3h1m-1,-5h1m1,3h1m-5,0h1m10,1h1m-11,0h1m5,-1h1m-9,2h1m8,-5h1m0,4h1m5,-1h1m-2,-1h1m1,-3h1m-14,4h1m15,-3h1m-11,3h1m3,-1h1m-15,-3h1m11,0h1m-5,6h1m4,-5h1m-8,1h1m-3,0h1m16,0h1m-13,4h1m5,1h1m-4,-1h1m-9,0h1m12,-4h1m-9,3h1m8,-1h1m-8,3h1m-6,-2h1m-8,-4h1m22,0h1m-8,3h1m-4,-3h1m4,-1h1m-12,2h1m-6,2h1m8,0h1m4,2h1m-16,-1h1m-1,-1h1m5,1h1m4,0h1m8,-5h1m-5,2h1m-18,-1h1m15,6h1m-5,-2h1m1,1h1m2,-1h1m3,-1h1m-6,-2h1m-4,3h1m-10,0h1m1,-4h1m-1,4h1m3,-7h1m-1,0h1m-6,-4h1m8,0h1m-10,1h1m-1,3h1m16,-2h1m-16,0h1m-1,-1h1m9,2h1m-6,-1h1m-11,3h1m5,-2h1m1,-4h1m-2,1h1m-9,0h1m12,1h1m3,3h1m-11,-1h1m5,-4h1m-3,4h1m3,-3h1m-15,2h1m14,-1h1m4,2h1m-18,0h1m0,-3h1m13,1h1m-6,4h1m-14,-2h1m6,2h1m-3,1h1m-2,-2h1m-1,-3h1m12,0h1m1,0h1m-6,1h1m-13,-2h1m16,2h1m-9,-1h1m-8,3h1m-3,-1h1m6,-4h1m-1,7h1m6,-9h1m-17,-1h1m33,29h1m4,2h1m-16,-5h1m10,-6h1m-4,6h1m2,-7h1m4,7h1m-10,-7h1m-8,1h1m6,-1h1m6,7h1m-15,-5h1m19,1h1m-21,-3h1m10,6h1m-11,-6h1m18,7h1m-21,-4h1m14,1h1m-19,-2h1m15,3h1m5,-1h1m1,-3h1m-24,3h1m14,-3h1m-16,1h1m20,-2h1m-19,5h1m11,-5h1h1m1,4h1m-3,3h1m-7,-15h1m1,0h1m1,4h1m-15,0h1m1,-5h1m2,1h1m-4,-1h1m17,6h1m-5,0h1m-10,-6h1m7,6h1m5,-3h1m-17,-1h1m16,-1h1m-2,7h1m-15,-7h1m1,0h1m9,3h1m-14,1h1m0,-2h1m1,2h1m-5,3h1m-5,-3h1m19,-3h1m-18,-1h1m-3,3h1m9,1h1m-2,0h1m-12,-2h1m-1,4h1m2,-1h1m4,-4h1m5,6h1m7,-4h1m-12,0h1m-2,2h1m-9,-2h1m16,0h1m-14,-3h1m-5,6h1m0,-7h1m16,6h1m-20,-6h1m18,0h1m-7,0h1m-10,4h1m13,-1h1m-9,3h1m-6,2h1m-1,-1h1m15,-4h1m-15,-2h1m-4,2h1m4,3h1m10,2h1m-22,-6h1m17,-2h1m1,5h1m-6,-9h1m-5,1h1m8,-1h1m-14,-2h1m13,3h1m-18,-4h1m12,6h1m-18,-4h1m-1,3h1m4,-2h1m9,0h1m-6,0h1m-10,1h1m19,0h1m-1,0h1m-20,-2h1m3,0h1m-6,2h1m7,-1h1m4,-2h1m7,5h1m-22,-2h1m3,3h1m13,-7h1m-10,6h1m-10,-5h1m21,0h1m-18,3h1m7,-1h1m5,-1h1m-21,4h1m17,-1h1m-17,-1h1m13,-1h1m-2,-2h1m1,5h1m4,0h1m-11,-4h1m1,2h1m-2,1h1m8,1h1m-21,-4h1m8,1h1m10,2h1m-1,-4h1m-2,-1h1m-21,2h1m7,2h1m-1,1h1m11,-4h1m1,0h1m-19,1h1m8,2h1m-9,-2h1m10,4h1m4,0h1m-16,-2h1m12,-1h1m0,-2h1m-20,-1h1m14,3h1m-12,-2h1m-5,-1h1m-4,0h1m11,3h1M377,170h1m0,2h1m14,1h1m-10,-2h1m-9,4h1m2,-1h1m13,-4h1m-9,5h1m5,0h1m8,-3h1m-12,4h1m6,-5h1m-1,5h1m-20,-2h1m19,-1h1m-14,4h1m-7,-7h1m18,-1h1m-9,2h1m-3,1h1m11,-3h1m-15,4h1m3,3h1m-7,-4h1m8,1h1m-6,4h1m5,-4h1m-13,-1h1m9,1h1m-11,-4h1m4,4h1m-6,1h1m3,2h1m12,-3h1m-19,-1h1m5,1h1m13,-1h1m-2,4h1m-23,-3h1m10,1h1m-4,0h1m-5,-4h1m-4,1h1m13,0h1m4,2h1m-16,-1h1m11,-2h1m-2,4h1m-16,-1h1m-1,-4h1m16,1h1m2,2h1m0,4h1m-14,-4h1m8,-1h1m-11,6h1m-5,-1h1m-4,-4h1m13,-1h1m-12,2h1m-5,0h1m13,-1h1m-2,-4h1m-3,-1h1m2,-2h1m-8,-3h1m9,3h1m-18,-4h1m18,1h1m-18,2h1m7,4h1m11,-6h1m5,33h1m7,-9h1m-8,4h1m6,-5h1m-6,5h1m-1,0h1m4,-4h1m-1,-1h1m-4,7h1m-1,-5h1m5,-3h1m-7,5h1m11,-4h1m-16,-1h1m-2,5h1h1m15,0h1m-14,-2h1m3,-1h1m-7,0h1m9,-1h1m-8,5h1m-11,-1h1m17,-1h1m-10,-4h1m11,8h1m-16,-1h1m-3,-1h1m3,-1h1m-2,-1h1m9,0h1m-4,1h1m2,-2h1m3,5h1m-20,-5h1m19,0h1m-23,2h1m12,2h1m-5,0h1m-8,0h1m13,-1h1m-17,-2h1m20,1h1m-22,3h1m1,-2h1m-2,0h1m3,-8h1m-1,-3h1m2,-1h1m6,0h1m-11,4h1m15,-2h1m0,4h1m-14,-5h1m-9,0h1m9,2h1m2,1h1m3,-2h1m-13,0h1m9,2h1m4,-3h1m-11,4h1m6,-2h1m-1,-2h1m2,1h1m-14,2h1m2,-2h1m9,3h1m-23,-5h1m19,5h1m-15,-3h1m10,2h1m1,-3h1m0,4h1m-6,-3h1m2,2h1m-4,-2h1m-16,3h1m21,-3h1m-19,3h1m17,-6h1m-19,4h1m16,3h1m-9,0h1m-3,-6h1m10,6h1m-8,-4h1m5,0h1m-9,1h1m-12,-3h1m19,4h1m-18,-3h1m13,5h1m-11,-1h1m0,-3h1m10,0h1m-2,2h1m-11,-2h1m-1,0h1m-10,0h1m21,1h1m-6,0h1m-11,-5h1m3,-7h1m-10,2h1m10,4h1m6,-1h1m-5,-2h1m-4,-1h1m-11,3h1m2,-4h1m9,7h1m-4,-7h1m-7,3h1m-9,0h1m9,2h1m-7,-3h1m15,3h1m-3,-1h1m-14,-4h1m10,2h1m-7,3h1m10,1h1m-18,-4h1m0,-3h1m11,7h1m-13,-4h1m0,-2h1m-2,3h1m13,-2h1m-6,2h1m0,2h1m-10,-2h1m6,2h1m-6,-1h1m-5,3h1m0,-1h1m8,0h1m1,-5h1m5,3h1m-11,1h1m1,-3h1m-13,1h1m11,-3h1m4,3h1m-7,-3h1m8,3h1m-3,-2h1m-12,3h1m-5,-1h1m10,-4h1m-1,5h1m-12,-4h1m-3,4h1m5,-5h1m-2,4h1m5,3h1m-12,1h1m11,-6h1m4,-6h1m-17,-3h1m2,3h1m2,0h1m-6,1h1m7,0h1m1,2h1m-4,-2h1m-8,-5h1m11,2h1m-10,6h1m11,-6h1m1,0h1m-9,6h1m-3,-7h1m-7,4h1m6,-1h1m6,-2h1m-17,-1h1m1,7h1m16,-5h1m-19,-1h1m9,5h1m-5,-2h1m4,-2h1m-16,-1h1m1,4h1m7,1h1m8,-3h1m-12,2h1m-8,-1h1m16,-4h1m-1,6h1m0,-7h1m-6,7h1m-8,1h1m10,-4h1m-11,2h1m7,0h1m-11,-1h1m-4,-4h1m-1,3h1m1,-2h1m7,-1h1m-1,5h1m4,-4h1m-6,-2h1m2,2h1m-9,1h1m12,1h1m-16,2h1m-8,-1h1m12,-4h1m-5,-1h1m-9,5h1m9,-1h1m-6,-1h1m-2,4h1m9,1h1m0,-13h1m-9,0h1m-7,0h1m17,5h1m-20,-2h1m15,1h1m5,-6h1m-5,4h1m-19,-2h1m8,4h1m24,21h1m-6,2h1m13,-4h1m-1,3h1m-2,2h1m-11,-1h1m-1,-3h1m-1,3h1m-4,-4h1m3,1h1m-3,3h1m7,0h1m-12,0h1m-1,-6h1m11,2h1m-5,5h1m-6,-1h1m10,-2h1m-6,1h1m-2,-5h1m3,5h1m1,-5h1m1,3h1m-13,3h1m-6,-3h1m-2,0h1m13,-2h1m-9,5h1m5,-2h1m7,2h1m-9,-1h1m-11,-4h1m5,4h1h1m-5,-5h1m1,-1h1m10,-3h1m-11,-1h1m6,-2h1m-16,7h1m18,-2h1m-15,-1h1m11,-2h1m-6,2h1m-1,-3h1m-5,4h1m-3,-6h1m11,2h1m-20,-1h1m-1,4h1m9,1h1m-7,-3h1m-8,3h1m13,-3h1m-13,-3h1m-3,6h1m20,2h1m-5,-7h1m-2,4h1m-16,2h1m2,-1h1m14,-4h1m-3,5h1m3,-2h1m-17,-4h1m15,4h1m-17,-2h1m7,2h1m-13,0h1m-1,-1h1m8,0h1m0,-1h1m5,4h1m3,0h1m-21,-3h1m19,3h1m-22,-6h1m4,4h1m14,0h1m0,-3h1m-18,6h1m17,-4h1m-23,4h1m9,-6h1m-10,2h1m9,-3h1m5,5h1m-11,-4h1m7,4h1m-9,2h1m2,-3h1m11,-1h1m1,2h1m-20,-1h1m16,0h1m-1,-4h1m-22,1h1m14,5h1m-7,-3h1m-3,1h1m6,-4h1m-14,-8h1m19,1h1m-11,-1h1m7,7h1m-20,0h1m12,-1h1m-8,-4h1m-1,-1h1m-3,3h1m1,-2h1m-5,4h1m7,-7h1m5,4h1m-8,0h1m-8,-1h1m-3,4h1m6,-1h1m9,-2h1m-2,4h1m-12,-2h1m9,-6h1m-11,6h1m0,-5h1m-2,4h1m-3,0h1m16,-5h1m1,6h1m-1,-1h1m-4,0h1m-11,0h1m8,-4h1m-1,-1h1m-2,5h1m1,1h1m-10,0h1m-6,2h1m15,-3h1m-7,-3h1m-6,4h1m6,2h1m5,-4h1m-19,3h1m-5,1h1m1,0h1m-5,0h1m3,-5h1m14,-3h1m-18,1h1m19,2h1m-20,1h1m15,-3h1m-8,4h1m8,-5h1m-13,7h1m10,0h1m-10,0h1m6,-6h1m1,-1h1m-8,6h1m-1,-2h1m-14,-3h1m10,-1h1m4,-5h1m-15,-2h1m6,1h1m1,-1h1m1,7h1m-3,-4h1m-9,4h1m5,-2h1m13,0h1m-18,-1h1m5,-1h1m8,1h1m-21,-3h1m10,3h1m-1,-1h1m9,3h1m-10,-3h1m-8,4h1m12,0h1h1m-8,-1h1m2,-2h1m-7,0h1m-9,-2h1m3,-2h1m2,6h1m-1,-2h1m1,-1h1m3,2h1m-12,-5h1m0,2h1m14,2h1m-16,0h1m14,-3h1m0,2h1m-13,-2h1m2,-1h1m3,1h1m-10,1h1m11,0h1m-14,-1h1m1,2h1m13,2h1m-1,-3h1m-18,2h1m9,3h1m5,-6h1m-18,1h1m11,1h1m-10,2h1m12,-1h1m-4,1h1m-8,-4h1m4,1h1m-14,-1h1m20,2h1m-7,2h1m1,0h1m-4,0h1m1,-11h1m-15,1h1m-4,-1h1m18,3h1m-15,2h1m11,-1h1m3,-1h1m-13,-3h1m9,0h1m-18,2h1m2,-2h1m13,1h1m2,1h1m-5,2h1m-3,-1h1m1,-3h1m-2,2h1m-13,2h1m-3,-5h1m7,0h1m-1,2h1m2,3h1m-9,-4h1m-1,5h1m33,24h1m-16,-2h1m1,0h1m-4,0h1m3,1h1m6,0h1m-5,-2h1m13,3h1m-3,-6h1m-13,1h1m1,4h1m10,-5h1m-13,4h1m10,-2h1m-5,3h1m4,1h1m0,-1h1m-5,1h1m-3,-6h1m-8,3h1m-5,-1h1m14,-1h1m-10,-1h1m2,3h1m2,1h1m4,-2h1m-1,0h1m-17,-3h1m10,3h1m-12,1h1m-1,0h1m12,1h1m-17,-2h1m20,-3h1m-11,0h1m2,0h1m4,4h1m1,2h1M450,162h1m10,2h1m-3,2h1m-11,3h1m0,-8h1m1,1h1m2,1h1m2,4h1m-6,0h1m-7,-4h1m5,1h1m16,3h1m-17,0h1m14,0h1m-23,-2h1m2,-3h1m3,0h1m15,6h1m-17,-3h1m4,-1h1m4,4h1m-7,-1h1m-4,-4h1m14,2h1m-15,3h1m5,0h1m-13,0h1m16,-6h1m0,2h1m-14,-2h1m0,4h1m-8,2h1m9,-5h1m2,2h1m4,1h1m-19,1h1m4,-2h1m3,-3h1m8,6h1m2,-5h1m-21,2h1m1,2h1m14,-2h1m-9,2h1m-9,-4h1m1,1h1m10,3h1m0,-4h1m2,-2h1m-16,7h1m17,-5h1m-25,3h1m17,2h1m-10,-1h1m1,-4h1m4,1h1m-3,-1h1m0,3h1m6,-5h1m0,3h1m-9,-3h1m-13,-5h1m3,1h1m12,-2h1m-3,-1h1m-7,6h1m6,-4h1m-11,0h1m-9,-1h1m7,5h1m-6,-1h1m18,1h1m-23,0h1m20,-1h1m-21,2h1m17,-6h1m-9,-1h1m-7,4h1m4,2h1m4,-1h1m1,-2h1m-18,-3h1m21,7h1m-12,-4h1m9,-3h1m-18,0h1m2,1h1m-3,2h1m4,4h1m11,0h1m-9,-3h1m-15,-1h1m22,3h1m-14,0h1m-5,-5h1m13,2h1m-20,1h1m9,-1h1m-1,-1h1m3,4h1m-11,0h1m14,-3h1m-7,1h1m7,1h1m-7,-4h1m-15,4h1m1,-2h1m-1,-2h1m-1,6h1m-3,-5h1m7,5h1m6,-1h1m-13,1h1m5,-4h1m4,0h1m-17,1h1m14,-3h1m-14,5h1m14,-5h1m3,4h1m-15,2h1m-5,-1h1m16,-2h1m-21,0h1m22,-2h1m-4,1h1m-18,1h1m14,-4h1m1,0h1m-10,-3h1m3,-3h1m-2,6h1m-9,-3h1m9,-3h1m-10,1h1m6,2h1m-11,-2h1m5,0h1m4,-3h1m-12,1h1m5,2h1m11,4h1m-4,-5h1m-17,0h1m-5,0h1m4,4h1m-5,-6h1m19,2h1m-4,5h1m-11,-1h1m4,0h1m0,-2h1m6,0h1m-18,0h1m1,-1h1m7,0h1m2,4h1m-7,-1h1m-5,-4h1m-3,-1h1m18,2h1m-2,1h1m-23,-3h1m2,3h1m10,1h1m1,-5h1m-6,2h1m-9,4h1m0,-5h1m2,-1h1m6,6h1m-1,-6h1m-5,1h1m-11,-1h1m7,2h1m-9,5h1m15,-7h1m-12,2h1m8,3h1m0,2h1m-9,-1h1m1,-1h1m0,-3h1m10,0h1m-16,1h1m12,0h1m-3,1h1m4,-4h1m-19,1h1m11,4h1m-3,-4h1m-1,2h1M448,139h1m11,4h1m-14,0h1m19,-4h1m-21,5h1m10,2h1m-7,-3h1m2,-2h1m3,-1h1m4,1h1m2,-3h1m1,5h1m-16,2h1m5,1h1m-9,-3h1m15,2h1m1,-1h1m-11,-5h1m1,0h1m-1,7h1m-11,-2h1m2,-5h1m-8,2h1m10,2h1m4,2h1m-3,0h1m-16,-5h1m10,2h1m4,1h1m9,19h1m20,0h1m-10,0h1m0,5h1m-14,0h1m12,2h1m-8,-7h1m4,2h1m-10,-3h1m11,1h1m-6,1h1m10,2h1m-10,-2h1m-3,4h1m-6,0h1m-3,-5h1m15,3h1m-3,1h1m-11,-2h1m5,5h1m-9,-3h1m-6,0h1m12,-4h1m-3,0h1m-6,4h1m5,-1h1m5,0h1m-14,2h1m7,-1h1m-10,-4h1m2,2h1m-7,4h1m16,0h1m-7,0h1m-12,-8h1m16,-2h1m-9,-1h1m8,0h1m-20,1h1m10,3h1m-7,-5h1h1m-6,4h1m7,-1h1m0,-1h1m9,-4h1m-16,1h1m12,-1h1m-13,6h1m2,0h1m11,-5h1m-13,2h1m11,-3h1m-3,5h1m-8,0h1m4,-2h1m-3,1h1m2,0h1m-9,-1h1m9,4h1m-1,-1h1m-5,-2h1m-10,-3h1m5,0h1m-10,2h1m-5,-2h1m-1,3h1m10,-1h1m0,1h1m1,-4h1m-14,1h1m-1,5h1m12,-4h1m5,3h1h1m-17,0h1m9,-3h1m3,2h1m-7,2h1m-5,-4h1m3,2h1m-5,1h1m5,-4h1m-1,5h1m3,-4h1m-3,4h1m-18,-5h1m21,4h1m-17,2h1m5,-6h1m-11,3h1m8,-2h1m-12,-9h1m12,2h1m-12,5h1m6,-6h1m3,1h1m-10,0h1m2,-3h1m-5,5h1m14,1h1m-6,-2h1m-8,-2h1m1,0h1m12,0h1m-19,4h1m-4,-4h1m8,-1h1m5,4h1m5,2h1m-7,-1h1m-1,-5h1m3,3h1m-8,-1h1m-2,1h1m-9,1h1m17,-1h1m-17,-3h1m12,-1h1m-3,5h1m-6,-1h1m-5,-1h1m12,2h1m0,-4h1m-16,4h1m-8,-5h1m12,5h1m7,-3h1m-16,2h1m11,-1h1m-18,3h1m18,-3h1m-18,2h1m15,-5h1m-14,2h1m-6,6h1m2,-7h1m-3,-1h1m15,3h1m-15,-1h1m5,4h1m3,2h1m-9,-7h1m-6,3h1m18,-2h1m-12,-1h1m5,2h1m5,3h1m1,-5h1m-5,0h1m-1,1h1m-6,-1h1m1,3h1m-2,2h1m4,-2h1m-3,-1h1m-4,-2h1m-13,1h1m16,-1h1m-5,1h1m-16,4h1m13,1h1m-4,-3h1m2,-2h1m-3,2h1m-4,-12h1m0,6h1m-7,-2h1m8,2h1m4,-2h1m-20,-3h1m4,5h1m2,1h1m9,0h1m-12,-4h1m-2,5h1m6,0h1m-1,-4h1m2,-1h1m-3,1h1m-14,2h1m9,-2h1m-6,-3h1m5,6h1m-3,-2h1m-2,-4h1m-8,6h1m12,-6h1m-16,1h1m16,4h1m-1,-5h1m-15,4h1m12,-3h1m6,3h1m-22,1h1m15,-6h1m-18,5h1m6,-5h1m-7,5h1m7,-5h1m7,5h1m-14,-3h1m16,5h1m-8,-6h1m-9,7h1m6,-7h1m-7,4h1m-5,-1h1m3,3h1m8,-1h1m-2,0h1m-5,-4h1m8,-2h1m-22,8h1m6,-2h1m14,-1h1m-18,0h1m6,3h1m-12,-2h1m8,-2h1m-10,-1h1m0,-2h1h1m-2,4h1m8,1h1m-4,-4h1m6,-1h1m-6,0h1m1,7h1m-5,-4h1m-3,3h1m-3,-4h1m6,2h1m-5,-1h1m12,3h1m-14,-2h1m6,0h1m-11,1h1m4,-5h1m-2,5h1m6,-5h1m-14,-3h1m16,-3h1m-10,-3h1m6,3h1m-15,1h1m8,4h1m3,-7h1m-14,0h1m18,0h1m-16,5h1m-3,2h1m13,-5h1m1,3h1m-21,-4h1m6,-1h1m2,1h1m9,6h1m-17,-5h1m13,3h1m-4,-3h1m-15,0h1m-1,-3h1m16,2h1m-19,3h1m9,2h1m-11,0h1m0,-1h1m13,-1h1m-16,-1h1m7,2h1m9,-3h1m0,1h1m-18,-3h1m8,1h1m-1,2h1m7,1h1h1m-14,-1h1m-3,-1h1m1,3h1m-9,-6h1m5,3h1m37,28h1m-18,-3h1m2,3h1m4,-2h1m2,-4h1m-5,4h1m2,0h1m-9,0h1m-3,0h1m2,2h1m10,-4h1m-14,2h1m6,1h1m-11,-2h1m9,-5h1m6,-2h1m-10,-3h1m9,0h1m-9,4h1m4,-5h1m-3,2h1m-1,4h1m-13,-1h1m2,-2h1m13,-4h1m-6,7h1m-12,-7h1m6,8h1m2,0h1m-7,-4h1m15,-3h1m-14,3h1m10,1h1m-2,-2h1m-1,3h1m-7,0h1m-13,-1h1m15,-5h1m-14,2h1m13,0h1m-14,0h1m6,6h1m-14,-3h1m21,2h1m-2,-3h1m-1,-4h1m-19,1h1m0,4h1m-3,1h1m16,-1h1m-16,-4h1m7,4h1m8,-5h1m-10,2h1m-12,3h1m0,-5h1m14,4h1m4,-4h1m-4,7h1m-17,0h1m1,-1h1m2,1h1m6,-3h1m1,-3h1m-13,-1h1m13,0h1m-8,7h1m8,-3h1m-11,1h1M494,140h1m12,5h1m-2,-2h1m9,-4h1m-19,5h1m-3,-4h1m18,1h1m-9,2h1m9,-4h1m-10,5h1m-11,-2h1m6,3h1m6,-1h1m-11,2h1m-8,-6h1m20,-2h1m-12,5h1m11,2h1m-12,1h1m8,-3h1m-6,3h1m-11,-7h1m12,7h1m-3,-5h1m-5,2h1m2,-3h1m0,-2h1m-4,3h1m1,3h1m-8,0h1m9,-2h1m-18,-2h1m3,2h1m5,3h1m-6,-6h1m-2,4h1m-1,-2h1m-5,-1h1m17,5h1m-14,-3h1m1,-1h1m11,-2h1m-6,2h1m1,-1h1m-18,4h1m8,-3h1m0,3h1m-3,2h1m9,-2h1m3,-2h1m-2,-2h1m-18,5h1m5,-1h1m6,-3h1m5,0h1m-2,4h1m-15,-1h1m-4,-4h1m12,1h1m-15,-1h1m1,-5h1m15,-4h1m-17,1h1m1,0h1m8,4h1m4,-3h1m-16,0h1m4,1h1m-9,4h1m17,-7h1m-7,6h1m-12,-6h1m-1,5h1m-4,-3h1m6,1h1m-6,3h1m9,0h1m-8,0h1m2,-1h1m0,-6h1m-3,2h1m5,1h1m0,3h1m0,1h1m-6,0h1m-7,-1h1m-3,0h1m-4,-3h1m20,3h1m-14,-4h1m3,5h1m-12,-1h1m17,1h1m-5,-6h1m2,-1h1m1,7h1m-20,-4h1m20,2h1m-5,-3h1m-17,5h1m8,-5h1m-11,0h1m6,5h1m-8,-1h1m3,-2h1m13,-3h1m-5,3h1m1,-1h1m-9,4h1m-2,-6h1m-10,6h1m9,-3h1m5,3h1m-2,-4h1m4,2h1m-17,-7h1m9,-4h1m4,2h1m-5,-1h1m-16,-1h1m9,1h1m-8,4h1m-2,-2h1m10,-1h1m-13,3h1m-3,-4h1m10,-1h1m-4,3h1m5,1h1m-10,-5h1m2,4h1m4,-4h1m-2,3h1m2,2h1m-2,1h1m2,-5h1m2,2h1m-13,-2h1m-5,6h1m6,-2h1m-9,-2h1m14,4h1m-4,-4h1m-1,-2h1m3,6h1m2,-6h1m-14,2h1m0,-1h1m11,4h1m-18,-1h1m1,-1h1m5,0h1m1,3h1m-11,-7h1m15,4h1m-10,-4h1m-1,7h1m2,-1h1m-15,-2h1m4,0h1m17,1h1m-15,-4h1m-7,5h1m12,1h1m5,-14h1m-22,5h1m8,2h1m-6,-6h1m24,29h1m3,0h1m-5,8h1m-5,-4h1m7,4h1m-11,-2h1m19,-4h1m-5,2h1m2,-3h1m-2,2h1m-3,-1h1m-2,4h1m0,1h1m2,-2h1m-20,-4h1m20,-8h1m-15,3h1m-5,3h1m2,-7h1m2,6h1m-9,-3h1m3,1h1m2,-3h1m12,1h1m-5,-1h1m-13,0h1m6,2h1m5,0h1m-9,0h1m2,1h1m-15,-4h1m19,4h1m-18,3h1m-3,-2h1m11,2h1m0,-5h1m-3,1h1m8,1h1m-11,1h1m1,-5h1m-7,1h1m9,4h1m-8,3h1m11,-4h1m-7,-4h1m4,1h1m-22,1h1m13,0h1m-4,-2h1m-11,2h1m6,-1h1m-1,6h1m-1,-3h1m-3,2h1m-6,-3h1m13,0h1m-12,4h1m0,-5h1m14,1h1m-19,3h1m-1,-1h1m9,-4h1m-13,2h1m5,-3h1m-2,1h1m-5,2h1m5,0h1m9,-8h1m-1,1h1m-3,-2h1m-10,2h1m-4,-1h1m8,3h1h1m-1,-2h1m8,0h1m-17,-3h1m1,0h1m4,2h1m6,0h1m-1,2h1m-8,1h1m-1,-3h1m7,4h1m-5,-2h1m-11,-4h1m-1,5h1m3,-4h1m2,4h1m-9,-1h1m6,-3h1m8,2h1m-1,-1h1m-2,0h1m-14,4h1m-6,-3h1m14,-3h1m-7,6h1m-12,-6h1m-1,0h1m15,3h1m-3,-4h1m2,6h1m-3,-5h1m-13,3h1m-3,-3h1m9,4h1m4,-2h1m-3,-2h1m3,-1h1m-1,4h1m-18,2h1m19,0h1m-1,-3h1m-15,-3h1m-6,1h1m-3,7h1m8,-1h1m3,-2h1m-1,2h1m-14,-6h1m11,0h1m-14,-1h1m20,7h1m-16,-6h1m-6,3h1m5,-4h1m13,1h1m-8,1h1m-14,3h1m0,2h1m-2,-3h1m6,-2h1m0,-6h1m-4,2h1m8,-4h1m-2,2h1m-5,0h1m9,1h1m-7,-3h1m-12,1h1m10,1h1m0,1h1m-11,-3h1m-6,5h1m13,-5h1m5,3h1m-10,0h1m1,2h1m6,-5h1m1,1h1m-2,-1h1m1,5h1m-22,-3h1m3,-2h1m8,-1h1m-5,2h1m4,3h1m4,-2h1m-10,3h1m9,-3h1m-5,2h1m-17,-4h1m5,4h1m-2,2h1m-7,-6h1m7,1h1m12,4h1m-22,-3h1m9,1h1m0,-2h1m6,-2h1m-11,2h1m5,2h1m-7,3h1m12,0h1m-5,-4h1m-11,3h1m12,0h1m-8,0h1m-8,-3h1m9,3h1m1,-3h1m-12,-1h1m-2,4h1m9,-2h1m-8,-3h1m-8,0h1m18,2h1m-7,2h1m-16,-2h1m11,-2h1m4,0h1m-2,3h1m-4,-1h1m4,-2h1m-9,5h1m-7,-3h1m14,3h1m0,-3h1m-12,-2h1m-9,4h1m6,-3h1m-9,5h1m10,-10h1m-10,0h1m6,-1h1m0,1h1m5,-2h1m-8,2h1m3,-1h1m-1,4h1m-2,-4h1m-12,-1h1m19,4h1m-10,-2h1m-12,-4h1m7,6h1m-7,-5h1m10,5h1m1,-4h1m-1,1h1m-6,-2h1m-6,5h1m10,-3h1m1,2h1m0,-5h1m-14,6h1m-4,-4h1m9,-1h1m-6,5h1m-7,-6h1m1,2h1m-2,5h1m15,-5h1m-20,3h1m9,-3h1m7,3h1m-17,1h1m16,-2h1m-4,2h1m-15,-5h1m12,-9h1m5,7h1m-11,-4h1m-4,-4h1m5,6h1m-16,2h1m38,31h1m4,-5h1m-7,-1h1m5,5h1m-2,-3h1m-8,-3h1m-9,-4h1m16,-4h1m-14,0h1m8,1h1m-13,6h1m-2,-7h1m6,2h1m-6,0h1m-8,3h1m8,-3h1m-1,-2h1m2,4h1m-4,1h1m-10,-1h1m1,-4h1m10,4h1m-13,3h1m1,-3h1m10,0h1m6,3h1m-22,-2h1m10,0h1m-5,1h1m13,-6h1m-23,6h1m1,-2h1m13,-2h1m-3,4h1m-8,-4h1m13,-2h1m-11,5h1m-5,-4h1m7,3h1m-8,-2h1m-5,-2h1m4,2h1m11,1h1m-18,-3h1m6,-1h1m9,6h1m-11,-3h1m7,1h1m-15,1h1m15,3h1m-7,-4h1m-10,2h1m7,1h1m-2,-3h1m-2,1h1m-11,0h1m3,3h1m4,-4h1m8,-1h1m1,1h1m-9,0h1m3,-3h1m2,0h1m-7,5h1m1,-1h1m-10,-6h1m-8,-3h1m15,3h1m-17,-1h1m0,2h1m5,-6h1m-7,4h1m8,0h1m-10,-1h1m2,1h1m-5,-2h1m5,-1h1m-2,1h1m13,-1h1m1,4h1m-18,-1h1m14,1h1m-20,-5h1m17,0h1m-17,6h1m15,-1h1m-14,-4h1m12,3h1m-10,-2h1h1m-9,-1h1m18,2h1m-21,2h1m8,-2h1m-5,0h1m6,2h1m2,0h1m0,1h1m4,-6h1m-19,5h1m-3,0h1m16,-5h1m2,5h1m-16,0h1m-7,-2h1m4,3h1m-5,-3h1m7,2h1m-9,-1h1m12,1h1m-15,1h1m3,-5h1m2,3h1m-5,1h1m10,-5h1m-8,4h1m-8,-5h1m7,3h1m8,0h1m-12,3h1m-6,-3h1m6,4h1m-1,-6h1m0,5h1m-6,-4h1m-6,2h1h1m3,-7h1m-2,-1h1m0,3h1m9,0h1m-5,-6h1m-12,-1h1m21,4h1m-15,0h1m3,-3h1m-11,1h1m1,4h1m7,-2h1m-7,-1h1m9,-2h1m2,4h1m-14,0h1m8,2h1m-3,-4h1m3,-1h1m-7,4h1m9,2h1m1,-6h1m-15,0h1m-10,1h1m7,-1h1m10,-2h1m-10,8h1m8,-1h1m-3,-4h1m-3,-1h1m-11,4h1m14,-3h1m-15,0h1m11,4h1m-1,-7h1m2,5h1m-19,-1h1m11,-4h1m4,6h1m-11,-3h1m3,0h1m1,1h1m-16,1h1m1,2h1m8,-7h1m-3,2h1m1,0h1m8,3h1m-6,-2h1m-12,-1h1m17,3h1m-7,0h1m-4,-1h1m-10,2h1m14,-6h1m-6,7h1m-6,-5h1m-3,-9h1m0,2h1m7,1h1m-17,0h1m19,1h1m-18,-4h1m-4,4h1m2,-3h1m5,3h1m10,-1h1m-14,3h1m-6,-5h1m2,6h1m10,-1h1m-12,-4h1m13,-2h1m-11,3h1m-3,1h1m-3,-4h1m-6,2h1m9,4h1m-6,-4h1m11,-2h1m0,2h1m1,3h1m-14,-6h1m12,5h1m-1,-4h1m-3,5h1m-18,-3h1m-3,0h1m4,-1h1m3,4h1m-5,-4h1m15,5h1m-4,-1h1m-13,0h1m-7,-1h1m7,-3h1m-6,3h1m17,2h1m-18,-1h1m17,-2h1m-11,2h1m-5,1h1m5,1h1m-13,-3h1m0,-2h1m-4,-1h1m7,5h1m3,-4h1m-3,5h1m-9,-5h1m5,4h1m4,0h1m-12,-1h1m3,-6h1m11,6h1m0,-1h1m-1,1h1m-15,-6h1m-4,1h1m4,-6h1m5,1h1m-9,-2h1m16,3h1m-23,-2h1m11,5h1m-3,-4h1m-12,3h1m0,-3h1m11,-2h1m-12,0h1m8,6h1m-2,-7h1m2,1h1m8,3h1m11,33h1m3,-3h1m7,2h1m-20,-5h1m8,2h1m-1,-7h1m5,3h1m0,-1h1m-14,-3h1m7,3h1m-9,-4h1m12,1h1m-2,1h1m-15,-2h1m14,0h1m-16,6h1m-2,-2h1m14,-1h1h1m-13,-3h1m-4,3h1m3,2h1m10,-4h1m1,-1h1m-4,3h1m-2,2h1m-1,-2h1m-18,2h1m6,-1h1m7,-3h1m3,4h1m2,-2h1m-3,1h1m2,-3h1m-11,-1h1m-1,1h1m-10,-1h1m13,6h1m3,0h1m-22,-6h1m12,2h1m-12,3h1m2,-5h1m15,0h1m-16,5h1m6,-2h1m3,-2h1m-9,-1h1m-5,3h1m-1,0h1m-6,3h1m-1,-3h1m10,-4h1m3,5h1m4,-5h1m0,6h1m-19,-4h1m2,5h1m4,-15h1m9,1h1m0,6h1m-21,1h1m-3,-6h1m4,-2h1m-4,5h1m8,-1h1m-2,2h1m3,1h1m4,-1h1m-20,-1h1m8,2h1m-8,1h1m11,-6h1m-9,-1h1m2,2h1m2,2h1m-12,-2h1m4,3h1m4,-1h1m-12,-4h1m11,5h1m-2,2h1m4,-6h1m3,2h1m-20,-3h1m16,1h1m-16,-1h1m16,4h1m-1,-5h1m-10,7h1m6,-6h1m-11,3h1m4,-3h1m-3,4h1m-12,-4h1m19,0h1m-3,3h1m-17,-1h1m10,-2h1m-3,4h1m-2,3h1m9,-6h1m-17,3h1m5,-2h1m1,-2h1m3,5h1m-10,1h1m2,-5h1m3,6h1m5,-5h1m-17,-3h1m6,1h1m-1,2h1m10,-3h1m-13,5h1m4,-5h1m5,6h1m-17,-5h1m15,2h1m-15,5h1m-8,-10h1m4,-3h1m3,-3h1m-3,1h1m-8,3h1m10,2h1m-12,1h1m3,-1h1m14,-4h1m-8,0h1m-11,1h1m15,0h1m-16,0h1m0,-2h1m7,2h1m9,0h1m-24,2h1m9,-1h1m-5,-2h1m-2,2h1m14,3h1m-10,-6h1m-6,-1h1m8,3h1m-8,-1h1m14,0h1m-12,0h1m-13,5h1m14,-1h1m2,-5h1m1,0h1m-6,0h1m4,1h1m-10,-1h1m6,3h1m3,-3h1m-6,1h1m4,4h1m0,-6h1m-18,7h1m8,-2h1m-10,-4h1m2,5h1m6,-1h1m-12,0h1m6,-3h1m9,-1h1m-9,3h1m-8,-2h1m6,2h1m-14,-5h1m17,-5h1m2,5h1m-2,-3h1m-21,-2h1m3,3h1m9,2h1m0,-6h1m-7,7h1m5,-4h1m-16,0h1m8,2h1m-3,-3h1m12,3h1m-16,2h1m2,-6h1h1m-3,3h1m3,-3h1m-12,0h1m2,0h1m15,-1h1m-9,1h1m2,5h1m-3,1h1m-10,-2h1m5,-5h1m-6,2h1m-2,1h1m4,1h1m-7,-4h1m-1,5h1m-4,0h1m17,0h1m-8,-2h1m-6,4h1m2,-1h1m6,-5h1m-2,-1h1m-1,7h1m4,-3h1m-18,2h1m15,-2h1m-4,0h1m-13,-2h1m-2,0h1m-1,0h1m3,2h1m-4,2h1m-2,-5h1m2,-1h1m-5,7h1m11,-7h1m4,1h1m-16,1h1m13,3h1M577,92h1m2,0h1m5,5h1M569,93h1m16,2h1m-7,5h1m-4,-3h1m6,-5h1m-5,0h1m-9,5h1m11,-4h1m-17,2h1m1,2h1m16,-1h1M578,92h1m-6,7h1m-6,-5h1m8,-1h1m8,4h1m-13,2h1m-7,-3h1m6,2h1m-6,-1h1m38,27h1m2,1h1m-12,-3h1m8,-6h1m-1,2h1m-13,2h1m5,-1h1m-6,-2h1m3,2h1m-7,4h1m-9,-1h1m16,-3h1m-13,0h1m-1,-2h1m17,5h1m-13,-6h1m-5,1h1m-6,4h1m9,0h1m-12,1h1m19,-4h1m-17,1h1m-2,-4h1m-3,5h1m9,-4h1m-1,6h1m-7,0h1m9,-1h1m-1,-4h1m-16,1h1m9,1h1m11,0h1m-3,2h1m-16,-2h1m4,3h1m10,-6h1m-13,3h1m6,2h1m0,-3h1m-3,-3h1m-17,3h1m3,5h1m8,-4h1m-2,-2h1m-8,5h1m16,-2h1m-11,-3h1m1,3h1m-4,1h1m3,-14h1m-14,6h1m9,1h1m-2,1h1m-11,-1h1m1,-1h1m4,-1h1m-4,1h1m15,-5h1m-12,4h1m1,1h1m8,-2h1m-12,-2h1m-2,-1h1m-4,0h1m4,6h1m-7,1h1m10,0h1m-3,-7h1m4,7h1m-9,-3h1m4,-2h1m-6,0h1m-6,2h1m8,0h1m3,-4h1m-19,0h1m5,6h1m2,0h1m-3,-1h1m0,-4h1m1,4h1m8,1h1m-18,-2h1m13,-5h1m-8,4h1m-11,0h1m17,-1h1m-16,0h1m15,-1h1m2,3h1m-14,-1h1m6,-2h1m-18,3h1m8,-4h1m1,3h1m-12,-2h1m18,1h1m1,0h1m-4,4h1m-10,-2h1m-10,-1h1m4,1h1m7,0h1m9,-4h1m-12,4h1m2,-5h1m0,7h1m-9,0h1m-2,-3h1m-4,-4h1m8,0h1m9,8h1m-22,-2h1m3,1h1m15,-2h1m-21,-5h1m13,1h1m6,-8h1m-9,4h1m-5,1h1m-10,-1h1m12,1h1m-5,-4h1m-11,3h1m11,-2h1m-11,3h1m10,-3h1m-7,-2h1m13,1h1m-13,0h1m4,-1h1m-12,6h1m7,-3h1m8,-2h1m-6,0h1m-2,0h1m-6,1h1m10,-1h1m-12,3h1m-1,-1h1m-6,0h1m14,3h1m-8,-3h1m-1,2h1m-4,2h1m3,-2h1m8,-1h1m-7,3h1m-1,-2h1m-15,-3h1m-3,3h1m4,0h1m15,0h1m-10,-2h1m5,-3h1m-5,1h1m-3,5h1m-13,-3h1m16,-3h1m-5,3h1m-12,-3h1m0,1h1m5,3h1m-2,-1h1m1,0h1m-7,-2h1m5,5h1m3,-1h1m-14,-3h1m6,0h1m9,0h1m-16,2h1m16,0h1m-15,-1h1m-3,1h1m-1,-2h1m10,-1h1m-6,1h1m4,1h1m-1,0h1m-6,2h1m5,-3h1m-4,0h1m-6,1h1m4,2h1m-15,-4h1m11,-1h1m-10,5h1m0,-3h1m5,4h1m-7,-4h1m4,-5h1m-1,2h1m-6,-2h1m3,1h1m3,-4h1m11,2h1m-17,0h1m7,-1h1M591,94h1m6,6h1m-6,-5h1m12,2h1m-2,1h1m-8,0h1m-3,-5h1m-3,1h1m7,4h1m7,-1h1M592,94h1m6,4h1m10,-6h1m-7,6h1m-11,0h1m-1,-2h1m6,-4h1m-14,5h1m7,-4h1m3,4h1m-9,-2h1m-3,-2h1m20,5h1m-9,-3h1m-11,0h1m12,4h1m-8,-3h1m1,3h1m3,-1h1m-5,-2h1m7,0h1M590,93h1m6,6h1m11,-5h1M600,92h1m7,0h1m-10,5h1M590,96h1m1,1h1m11,3h1m1,-2h1M597,94h1m1,0h1m-6,-1h1m5,7h1M589,90h1m19,-3h1M598,85h1m-8,1h1m19,5h1m-2,1h1m1,-4h1M596,84h1m4,7h1m-4,-4h1m7,4h1m3,-2h1M592,86h1m8,2h1m5,1h1M592,88h1m6,1h1m-7,-4h1m-1,5h1m5,0h1m3,0h1m-11,0h1m7,-1h1m-1,3h1m7,-6h1m-7,-1h1m6,-1h1m-7,1h1m-15,2h1m4,5h1m-1,-8h1m11,0h1m3,0h1m-15,6h1m18,23h1m12,-5h1m-6,2h1m4,3h1m-14,-3h1m6,3h1m-1,2h1m-3,-3h1m-7,0h1m7,0h1m0,-4h1m-10,0h1m16,0h1m-14,2h1m10,4h1m0,-3h1m-6,-4h1m-13,2h1m10,5h1m-2,-2h1m7,1h1m-19,-1h1m14,-4h1m-6,-1h1m-10,7h1m-2,-4h1m5,0h1m6,1h1m2,-1h1m-13,3h1m3,-3h1m4,3h1m6,-3h1m-20,2h1m15,-1h1m-18,-9h1m17,-1h1m-20,2h1m19,-3h1m-14,5h1m-6,-1h1m4,-4h1m-5,1h1m11,1h1m-5,3h1m-9,-4h1m17,1h1m-13,1h1m-7,-2h1m3,2h1m-3,0h1m-5,-1h1m1,-1h1m10,4h1m-4,-3h1m-11,4h1m0,-5h1m16,4h1m-12,-1h1m11,2h1m-20,-4h1m6,0h1m-5,4h1m15,-2h1m0,2h1m-3,-3h1m-13,2h1m-4,1h1m9,-2h1m-7,-2h1m-8,3h1m11,-1h1m-12,-3h1m2,3h1m-2,-2h1m12,0h1m-12,-1h1m5,6h1m-5,-4h1m-10,3h1m4,-4h1m-6,0h1m7,4h1m2,-3h1m9,0h1m-12,-2h1m9,1h1m-1,2h1m1,3h1m-8,-4h1m-2,4h1m-3,-6h1m-9,4h1m5,-1h1m1,-4h1m6,1h1m0,4h1m-3,-1h1m2,-8h1m-4,2h1m-9,0h1m3,-2h1m-3,2h1m-7,-3h1m14,-3h1m-3,3h1m-13,4h1m10,-4h1M616,94h1m13,6h1m-5,0h1M616,95h1m7,0h1m9,3h1h1m-24,2h1m-1,-7h1m6,-1h1m5,6h1m-13,2h1m14,-8h1m-14,0h1m1,3h1m10,4h1m-4,-1h1m-1,0h1m-2,-5h1m-10,6h1m1,-5h1m-1,4h1m-2,-1h1m17,-3h1m-5,5h1M616,93h1m8,0h1m7,5h1m-9,-3h1m9,0h1m-15,5h1m-9,-5h1m15,-2h1m-10,1h1m12,1h1m-13,2h1m-1,2h1m7,-6h1m-1,5h1m-9,-1h1m8,-3h1m1,-2h1m-2,2h1m-18,5h1m9,-1h1m-5,-3h1m3,0h1m4,2h1m3,-1h1M622,92h1m11,8h1M614,99h1m7,-4h1m-7,3h1m-1,-2h1m11,0h1m-4,4h1M616,89h1m7,-4h1m0,5h1M615,89h1m8,0h1m6,0h1m-9,2h1m10,-4h1m-1,2h1m-6,-3h1m-9,-2h1m-5,1h1m10,0h1m-10,3h1m-5,0h1m2,2h1m16,2h1M620,91h1m14,-7h1m-10,3h1m0,-2h1m0,5h1M616,89h1m16,-2h1m-22,4h1m8,1h1m-5,-5h1m8,0h1m-14,2h1m5,-1h1m-5,0h1m12,-3h1m-13,7h1m4,0h1m-6,-5h1m13,2h1M621,84h1m7,6h1h1m-3,-2h1M613,84h1m12,6h1m-9,-1h1m-1,3h1m-1,-2h1m5,-3h1m-10,5h1m5,-1h1m5,-5h1m-5,-2h1m11,1h1m-20,5h1m8,-3h1m3,2h1m-5,1h1m4,-4h1m3,6h1M614,90h1m15,-6h1m-14,2h1m14,-6h1m-3,0h1m-3,2h1M615,78h1m7,2h1m2,-1h1m1,-1h1m6,4h1m-12,0h1M613,81h1m3,-2h1m14,-1h1m1,2h1m-8,4h1m-4,-2h1m3,-5h1m-8,1h1m-7,6h1m12,-1h1m-8,-2h1m9,2h1m1,-4h1M618,77h1m-6,2h1m15,0h1m-6,4h1m2,0h1m2,-2h1m-5,1h1m8,-1h1m-19,2h1m-2,-1h1m-4,-5h1m4,3h1m15,-3h1m-15,6h1m4,0h1m-6,0h1m0,-2h1m12,-3h1m-3,3h1m-3,0h1m-3,-1h1m-8,1h1m11,2h1m-4,-6h1m-18,0h1m19,2h1m11,28h1m-5,-4h1m10,3h1m-4,-2h1m-9,0h1m8,1h1m-2,0h1m-12,1h1m-3,-4h1m3,0h1m18,4h1m-8,-2h1m-17,-2h1m14,1h1m4,1h1m-22,-2h1m23,3h1m-17,-3h1m6,-2h1m-14,6h1m1,-3h1m-1,2h1m14,0h1m0,2h1m-9,-1h1m4,-5h1m-2,-1h1m-17,6h1m7,1h1m13,-4h1m-8,0h1m7,-8h1M648,93h1M636,92h1m0,4h1m3,0h1m8,-1h1m-2,3h1m6,2h1m-2,0h1M645,95h1m10,3h1m-9,-4h1m-2,2h1m7,3h1m-6,-3h1h1M635,93h1m12,2h1m4,1h1m2,0h1m-6,0h1m-1,-2h1m-16,4h1m19,-1h1m-2,-3h1m0,1h1m-7,2h1M640,95h1m15,4h1m-4,-6h1m-7,0h1m-5,2h1m1,5h1m8,-6h1m-2,1h1m-7,0h1m-3,4h1m11,0h1M638,92h1m3,1h1m-4,4h1m18,-2h1m-5,0h1M637,94h1m3,1h1m1,2h1m-8,-1h1m14,3h1M637,93h1m18,7h1m-8,-2h1m7,-3h1m-1,0h1m-14,3h1m5,-2h1m-1,-4h1m5,7h1m0,-3h1m-6,4h1M641,97h1m-3,-4h1m8,4h1m0,2h1m3,-5h1m4,2h1m-3,-2h1m-2,3h1M642,94h1m5,-9h1m3,0h1m-15,6h1m5,-6h1m0,2h1m10,-1h1m-15,3h1m-3,1h1m15,-1h1m-18,0h1m11,-4h1m-10,2h1m0,-1h1m2,6h1m8,-3h1M639,84h1m5,3h1m10,3h1m-7,2h1M640,87h1m-2,5h1m11,-3h1m-7,-3h1m-10,1h1m5,-1h1m13,3h1m-21,2h1m10,-1h1m0,-1h1M636,88h1m9,-1h1m12,-3h1m-18,3h1m2,-1h1m5,1h1m5,0h1m-18,4h1m6,-7h1m7,6h1m-15,0h1m12,0h1m1,-1h1m-11,0h1m7,-1h1m-7,1h1m4,-2h1m0,3h1m-16,2h1m12,0h1M643,88h1m9,-1h1M640,85h1m9,4h1m7,-5h1m-15,0h1m-8,4h1m1,3h1m6,-3h1m5,4h1M643,84h1m-2,3h1m12,-2h1m1,7h1m-5,-2h1M640,87h1m17,0h1m-20,4h1m-3,-1h1m21,1h1m-21,0h1m8,-3h1m1,-8h1m-2,3h1m-2,-6h1m-10,6h1m3,-4h1m5,0h1m-5,3h1m0,1h1m5,-3h1M643,78h1m4,1h1m7,-1h1m-20,2h1m17,-2h1m-2,5h1m-3,-4h1m-5,2h1M636,80h1m3,3h1m-1,-5h1m18,2h1m-13,2h1M637,79h1m18,4h1m-16,0h1m7,-3h1m-6,-2h1m12,1h1M639,78h1m11,4h1M635,80h1m2,-1h1m15,-1h1m-14,3h1m11,-1h1m-5,0h1m-15,0h1m23,1h1m-3,2h1m-9,-1h1m4,2h1m-18,0h1m5,-1h1m11,-4h1M641,78h1m-2,4h1m8,-4h1m8,1h1m-7,1h1m4,0h1m-22,1h1m22,-2h1M643,78h1m11,3h1m-12,0h1m9,1h1m-6,-4h1m-5,2h1m2,3h1M638,79h1m20,1h1m-9,-2h1m-16,3h1m4,-3h1m14,1h1m-1,2h1m-5,0h1m-9,-3h1m3,0h1m0,-9h1m1,6h1m5,-6h1m-4,4h1M643,71h1m-5,1h1m9,1h1M639,70h1m7,1h1m-5,1h1m-9,1h1m11,2h1m-13,0h1m5,2h1m-3,-2h1m16,0h1m-6,-5h1m5,1h1m-16,4h1m4,2h1m-6,-1h1m-6,-5h1m6,0h1m-5,2h1m4,4h1m12,-2h1m-5,1h1m-2,-7h1m-15,8h1m16,-3h1m-6,2h1m6,-5h1m-16,2h1m5,-1h1m-13,1h1m18,3h1m-7,-2h1m-3,2h1m5,-2h1m-11,2h1m0,-3h1m2,3h1m0,-1h1m-9,0h1m6,-6h1m0,-1h1m5,0h1h1M635,63h1m0,3h1m1,2h1m37,27h1m-10,3h1m10,-3h1m-11,4h1m10,-4h1m-12,2h1m-6,2h1m3,-2h1m7,-2h1m-6,2h1m-4,-2h1m10,3h1m-11,2h1m10,-5h1m-5,-1h1m5,-1h1m0,3h1m-24,3h1m1,-6h1m2,3h1m10,4h1M666,99h1m11,-4h1m-9,3h1m8,0h1m-3,-7h1M663,89h1m-1,-1h1m-1,-4h1m6,7h1m3,-2h1m-2,-2h1m2,4h1m3,-5h1M667,85h1m13,1h1m-15,4h1m-2,-4h1m15,-1h1m-2,1h1m-4,2h1M662,86h1m6,-2h1m0,7h1m-5,1h1m10,0h1m3,0h1m-6,-2h1m-17,1h1m18,1h1m0,-4h1m-11,3h1m8,-1h1m-10,0h1m9,-4h1m-18,1h1m2,4h1m9,-7h1m-17,7h1m14,-4h1m1,1h1m3,1h1m-2,2h1m-20,0h1m16,-3h1m1,0h1m-10,3h1m3,0h1m-7,-2h1m11,3h1m-3,-2h1m1,-5h1m-11,6h1m-9,1h1m3,-1h1m6,0h1M659,87h1m18,-2h1m-8,5h1m3,-3h1m-6,4h1m-4,-2h1m4,-5h1m-13,1h1m0,2h1m0,5h1m17,-8h1m-11,1h1m7,2h1m-13,2h1M682,79h1m-7,0h1m-7,1h1m-4,-2h1m-7,1h1m9,5h1M661,82h1m20,-1h1M665,80h1m13,-3h1m1,5h1M670,80h1m0,3h1m-7,1h1m12,-6h1m-2,0h1m-6,6h1M662,81h1m-2,-2h1m6,-1h1m-3,5h1m-2,-3h1m-6,1h1m19,2h1m-6,-1h1m2,1h1m1,-3h1m-6,-1h1m1,4h1M667,77h1m7,2h1m3,-1h1m-5,5h1m-3,-6h1m-7,4h1m-5,-4h1m11,7h1m2,-3h1M667,79h1m10,2h1m1,-4h1m0,3h1m-1,-2h1m-7,5h1m-11,1h1m-5,-7h1m-2,4h1m11,1h1m0,-5h1m-11,2h1m17,2h1M670,80h1m7,0h1m-3,-2h1m-3,2h1m-11,2h1m4,1h1m-2,-5h1m13,3h1m-9,-1h1m-5,-2h1m-7,2h1m15,3h1M671,82h1M660,80h1m18,-9h1m-8,0h1m-4,2h1m-2,-3h1m-5,4h1m1,-2h1m1,-3h1m-10,6h1m2,-3h1m11,0h1m3,-2h1m-4,1h1m-8,1h1m11,1h1m-13,0h1m6,1h1m-7,-3h1m-6,1h1m5,-1h1m0,1h1h1m2,-2h1m3,5h1m-6,0h1m-2,-5h1m-13,2h1m14,2h1M661,71h1m13,0h1m-9,0h1m-3,3h1m10,1h1m-3,-5h1m-5,2h1m-1,4h1m-7,-6h1m12,2h1m-8,2h1m-7,-3h1m0,4h1m-3,-1h1m12,-5h1m-3,3h1m3,5h1M660,70h1m11,5h1m6,-3h1m-11,5h1m8,-6h1m-3,4h1m-8,-5h1m8,-1h1m-18,2h1m20,-2h1m-7,5h1m3,-2h1m0,2h1m-5,-5h1m-4,3h1m3,5h1m-3,-7h1m1,5h1m-9,0h1m-3,-3h1m11,0h1m-8,2h1m5,3h1m-9,-4h1m-11,2h1m3,-4h1m11,1h1M666,71h1m4,5h1m-8,-4h1m9,5h1M672,63h1m0,5h1M660,67h1h1m10,0h1m-10,0h1m15,-1h1m-6,-1h1m-2,3h1M662,67h1m2,-3h1m0,-1h1m-3,0h1m2,5h1m-3,-2h1m-3,-4h1m1,7h1m-1,-7h1m16,2h1m-2,1h1M661,63h1m12,2h1m3,4h1m-6,-5h1m-8,-3h1m5,3h1m-13,3h1m18,-3h1m-4,5h1m-6,-3h1m-4,0h1m4,-2h1m7,2h1M666,62h1m15,3h1M668,64h1m-3,5h1m7,-7h1m3,7h1m0,-7h1m-9,0h1m-8,0h1m10,4h1m4,-4h1m-11,1h1m8,-1h1m-3,6h1m-1,-4h1m4,-2h1m-13,6h1m5,-1h1M665,63h1m-7,4h1m9,-1h1m-2,-1h1m12,-2h1m-20,4h1m15,-1h1M663,63h1m13,1h1m-5,5h1m0,-6h1m-11,1h1m-6,2h1m4,-1h1m15,1h1m-15,1h1m1,-7h1m8,-1h1m2,1h1m-3,-5h1m-16,4h1m12,-1h1m-1,-1h1m4,-2h1m-8,4h1m6,2h1m2,29h1m8,0h1m1,-1h1m-9,-4h1m9,6h1m-13,0h1m5,0h1m-3,-3h1m-5,-3h1m15,0h1m-6,7h1m-5,-7h1m5,7h1M687,85h1m10,3h1m3,-6h1m-7,-4h1m2,1h1M687,78h1m1,1h1m-3,-1h1m9,3h1m-7,1h1m-6,-4h1m0,1h1m11,5h1M684,78h1m7,2h1m11,-3h1m-15,4h1m-3,2h1m-2,-2h1m-4,0h1m3,3h1m15,-3h1m-20,2h1m5,-6h1m-3,5h1m15,-3h1M692,77h1m9,6h1M686,82h1m2,-3h1m10,-1h1m5,2h1m-12,0h1M685,79h1m20,1h1m-7,-1h1m-15,0h1m8,4h1M682,80h1m11,-1h1m0,1h1m-1,-1h1m-7,2h1m12,-3h1M692,77h1m11,4h1m-17,0h1m12,2h1m-9,-6h1m2,4h1m-1,-2h1m-1,3h1h1m6,1h1M691,78h1m7,4h1M690,81h1h1m-6,0h1m10,-2h1M683,77h1m14,-5h1m-13,0h1m18,5h1M691,74h1m-8,-2h1m11,3h1m-4,0h1m-3,-2h1m-9,1h1m3,2h1m2,-4h1m15,4h1M690,70h1m4,2h1m4,4h1m-6,-3h1M686,70h1m17,1h1m-3,3h1m-7,1h1m4,1h1M692,72h1m5,4h1m3,-6h1m-15,0h1m3,0h1m-10,5h1m20,2h1m-8,-2h1m-2,1h1m-3,-2h1m2,-2h1m-1,-1h1m6,0h1m-8,3h1m2,-2h1m-7,-2h1m-3,1h1m-11,2h1m20,-1h1M693,70h1m8,2h1m-1,1h1m-1,2h1M690,74h1m1,1h1m11,-5h1m-3,-1h1M682,66h1m16,-1h1m1,1h1m-7,-1h1m6,-4h1m-1,6h1m-1,-4h1m-9,4h1M685,62h1m17,3h1m-2,0h1m-3,2h1M683,66h1m22,-2h1m-11,3h1M687,63h1m-4,0h1m8,0h1m8,1h1m-13,2h1m13,-4h1m-9,1h1m-2,2h1m-10,4h1m17,-6h1m-17,5h1m-3,0h1m14,-1h1m4,-3h1m-23,4h1m7,-2h1m8,-5h1m-4,2h1m-8,4h1m-4,-3h1m2,2h1m4,-5h1m4,3h1m-8,1h1m-6,-1h1m11,2h1m1,-3h1m-7,0h1m-13,5h1m5,-4h1m-4,-2h1m9,3h1m-7,2h1m8,-4h1m-1,0h1m-18,0h1m16,6h1M691,62h1m14,6h1M693,56h1m2,0h1m-3,4h1m-9,-2h1m14,-1h1M685,54h1m6,0h1m7,4h1m-15,0h1m-3,0h1m16,-3h1m-5,4h1m-2,1h1M686,59h1m18,-5h1m-16,3h1m-9,0h1m2,-2h1m0,3h1m16,2h1m-8,-2h1M686,57h1m5,1h1m9,-1h1m-15,3h1m16,-1h1M693,57h1m-7,3h1m12,0h1m-6,-5h1m4,4h1m0,-2h1m-8,-2h1m-13,4h1m15,-5h1m2,4h1M692,54h1m6,4h1M683,57h1m6,-1h1m-8,0h1m1,3h1m9,1h1m-3,0h1m6,-5h1m2,2h1m2,-1h1m-15,4h1m-5,1h1m9,-3h1m-2,-3h1m-6,3h1m-4,0h1m-2,-2h1m16,3h1m-11,2h1M683,60h1m6,-11h1m4,5h1m9,-2h1m-13,2h1m-4,-7h1m11,4h1m-9,1h1m-7,-1h1m7,-4h1m7,0h1M684,46h1m0,4h1m16,1h1m-6,-3h1m-12,1h1m1,-2h1m9,0h1m3,3h1m-5,4h1M688,51h1m14,-1h1m-14,0h1m8,1h1M689,50h1m36,30h1m-17,3h1m6,-1h1m7,1h1m-7,-2h1m-4,-2h1m3,2h1m6,2h1m1,-2h1M706,78h1m1,2h1m-1,4h1m8,-9h1m5,-4h1m-3,0h1m2,1h1m-10,1h1m13,2h1M719,69h1m-4,4h1m2,3h1m6,-1h1M710,73h1m8,2h1m0,-5h1m6,7h1m-3,-5h1m-14,3h1m7,-3h1m6,4h1m-15,1h1m5,-6h1m0,2h1m-3,0h1m5,-1h1m-4,2h1M710,71h1m10,0h1m-6,2h1m9,1h1M707,73h1m-1,0h1m11,4h1m4,-8h1m-8,1h1m6,2h1m-6,3h1m-11,0h1m-1,0h1m6,-3h1m8,4h1M714,74h1m-4,2h1m8,0h1m-4,0h1M708,70h1m6,5h1m2,-4h1m4,4h1m-7,-2h1m10,-3h1m-8,4h1m-5,-3h1m3,-1h1m-3,7h1m-8,-5h1m-4,0h1m16,1h1m-6,-2h1m-3,0h1m-1,4h1m-8,-2h1m10,-3h1m-3,-3h1m-4,0h1m6,-2h1M711,63h1m-5,1h1m17,2h1m3,1h1m-8,-5h1m-12,1h1m-1,2h1m13,0h1m-17,3h1m18,-1h1m-9,-2h1m7,0h1M710,61h1m5,6h1M707,64h1m16,3h1M711,65h1m-5,-1h1m5,-3h1m-1,5h1m6,-3h1m0,2h1m-7,2h1m10,-3h1m-14,2h1m11,-2h1m-2,-1h1m-18,4h1m17,1h1m-8,-1h1m-8,1h1m-5,-7h1m5,2h1m-1,5h1m-5,-5h1m15,2h1m-11,4h1m-9,-4h1m2,0h1m12,0h1M711,63h1m-4,5h1m18,-5h1m-4,2h1m-7,2h1m4,0h1m4,-4h1m-3,-1h1m-15,4h1m6,-3h1m9,3h1M717,61h1m3,7h1m2,-1h1m3,-4h1m-19,0h1m3,3h1m13,-3h1m-4,1h1m-9,4h1m2,0h1m3,-2h1M713,65h1m-6,-1h1m2,-2h1m10,-6h1m-5,3h1M709,58h1m7,-3h1m-6,4h1m11,-3h1m1,0h1m-10,3h1h1m-5,0h1m-6,1h1m16,-4h1m-20,4h1m19,-6h1m-8,3h1m-6,1h1m2,-3h1m9,3h1M719,54h1m-5,0h1m5,2h1m-10,0h1m3,1h1m8,3h1M714,56h1m-6,0h1m2,0h1m4,2h1m11,-3h1m-6,-1h1m3,4h1m-1,-2h1m-18,5h1m-4,-5h1m-3,1h1m4,-1h1m14,4h1m-20,0h1m1,-3h1m13,-1h1m5,-2h1m-8,3h1m-3,0h1M706,56h1m18,0h1m-5,1h1m-13,2h1m6,0h1m-5,-5h1m-7,4h1m14,1h1m0,1h1M710,56h1m2,0h1m11,-1h1m-16,1h1m2,1h1m-1,0h1m-4,1h1m2,2h1m15,-6h1m-13,6h1m-3,0h1m1,0h1m-2,-3h1m4,-2h1m5,2h1m-18,1h1m10,3h1m1,-5h1m-16,0h1m0,-7h1m5,1h1m0,3h1m2,-6h1m1,3h1m4,1h1m-6,2h1m-4,-4h1m-5,4h1m13,0h1M718,46h1m8,4h1m-11,0h1m-10,3h1m20,-1h1M713,47h1m-1,0h1m11,2h1m-6,2h1m1,1h1m-11,0h1m1,-2h1m13,0h1m-7,-4h1m-14,2h1m1,3h1m17,0h1M719,47h1m-4,0h1m-1,6h1m0,-6h1m-9,0h1m7,2h1m-12,1h1m9,0h1m7,3h1m2,-5h1m-18,4h1m-1,-1h1m9,-1h1M711,48h1m16,5h1M707,49h1m5,1h1m2,-3h1m-7,1h1m15,4h1M708,50h1m14,3h1m-2,-6h1m4,4h1m-9,-4h1m-8,7h1m13,-6h1m-3,5h1m2,-1h1m-11,0h1m-3,1h1m1,-13h1m6,3h1m-4,2h1m4,-3h1m-10,1h1m1,-2h1m-9,1h1m3,-3h1m0,-1h1m-1,0h1m1,4h1m4,4h1m1,-8h1m-5,7h1m-2,-2h1m-5,-2h1m-3,1h1m3,-4h1m-3,3h1m0,4h1M707,43h1m20,0h1m23,27h1m-5,1h1m-18,5h1m0,-3h1m17,-1h1m-22,0h1m5,-4h1m17,-1h1m-2,1h1m-6,-4h1m-16,4h1m8,-2h1m2,3h1m-11,0h1m6,-5h1m6,4h1M735,67h1m17,-2h1M736,63h1m7,3h1m-10,3h1m14,-4h1m-12,0h1m-9,2h1m16,-2h1m-1,2h1m-2,-4h1m-10,5h1m-2,-3h1m-7,-1h1m8,4h1h1m-6,-1h1m0,-5h1m4,7h1m0,-5h1m6,5h1m-2,-3h1m-5,0h1m3,2h1m-7,1h1m-7,0h1m4,0h1m4,-1h1m-9,-5h1m-7,4h1m11,-3h1m1,3h1m3,-4h1m-15,3h1m-8,-1h1m11,1h1m-7,3h1m5,-6h1m-11,0h1m1,1h1m14,4h1m2,-5h1m-4,1h1m-8,-2h1m-3,-3h1m-3,-3h1m1,-1h1m-2,1h1m3,3h1m-6,-1h1m-8,0h1m20,-4h1m-18,3h1m6,3h1m-2,-2h1m-5,1h1m-2,-5h1m10,3h1M736,56h1m9,2h1m2,-2h1m-7,0h1m3,3h1M732,54h1m13,1h1m-8,4h1m9,-1h1m-19,1h1m12,0h1m3,0h1m-8,-5h1m6,3h1m-5,-3h1m2,6h1m0,-4h1m-6,4h1m4,-3h1M732,55h1m12,5h1m-2,-6h1m-12,3h1m0,3h1m5,-1h1m8,0h1m-1,-2h1M740,54h1m12,7h1m-2,-1h1m-8,-3h1m-13,4h1m6,-1h1m10,0h1M739,58h1m11,-1h1m-2,-1h1m-13,2h1m-6,-3h1m-2,-1h1m6,7h1m-9,-3h1m-2,-2h1m6,0h1m-5,-1h1m4,3h1m-2,2h1m5,-1h1m7,0h1M730,56h1m7,3h1m2,-3h1m-5,2h1m9,-2h1m2,4h1m-4,-6h1m4,1h1m-12,2h1m9,3h1M735,56h1m16,2h1M737,55h1m5,0h1m6,4h1m1,-4h1m0,5h1m-5,-7h1M737,47h1m-2,5h1m1,0h1m-2,-1h1m0,-3h1m-8,1h1m-1,0h1m5,4h1m-7,-6h1m1,3h1m17,-2h1m-18,1h1m9,3h1m-8,-2h1m-1,2h1m-9,-2h1m23,-1h1m-9,2h1M735,47h1m-5,2h1m-1,3h1m1,-1h1m-1,-4h1m13,5h1m-6,-2h1m1,2h1m-2,-3h1m-4,-1h1m6,3h1M737,48h1m6,-2h1m-15,1h1m22,3h1m-16,0h1m9,-1h1m3,1h1m-9,-3h1m4,0h1m-20,4h1m4,-4h1m8,5h1m-14,0h1h1m9,1h1m5,-4h1m-11,0h1m-4,1h1m0,-3h1m-7,0h1m14,4h1M735,50h1M732,39h1m12,0h1m-3,2h1m3,3h1m-16,1h1m8,-3h1m-2,-3h1m-3,4h1m9,1h1M739,39h1m-6,7h1m4,-4h1m7,0h1m1,-1h1m-7,1h1m-5,2h1m0,-4h1m-11,2h1m0,-3h1m14,4h1m0,-5h1m-2,5h1m-1,-2h1m-10,4h1m-5,-3h1m12,4h1m2,-3h1m-2,-2h1M730,40h1m17,3h1m-1,3h1m-4,-2h1M729,41h1m1,-2h1m16,1h1m-2,4h1m0,-4h1m2,-1h1m-18,1h1m9,0h1m-9,6h1m1,-6h1m13,4h1m-6,2h1M733,40h1m9,5h1m4,-5h1m-5,0h1M730,38h1m-2,4h1m5,-1h1m4,2h1m10,-2h1m0,1h1m-5,0h1m-11,1h1m8,2h1m0,-1h1m-5,-4h1m-2,3h1m-1,-1h1m-7,2h1m6,-3h1m-8,4h1m8,-5h1m-13,2h1m10,-1h1m-7,3h1m11,-5h1m-5,3h1m-1,-3h1M737,38h1m4,1h1m-13,5h1m-1,-4h1m1,1h1m13,-8h1m3,2h1M730,32h1m10,1h1m-11,5h1m2,-3h1m3,-3h1m-6,1h1m-2,1h1m15,2h1M735,32h1m11,6h1m-2,-5h1m-8,0h1m6,2h1m2,-1h1m2,4h1M729,34h1m16,-1h1m-13,2h1m13,-3h1m-15,1h1m-5,2h1m16,-1h1m-10,0h1m14,28h1m3,1h1m8,-1h1m-12,5h1m9,-1h1m4,3h1M756,62h1m18,2h1M759,55h1m-4,5h1m8,-6h1m-7,7h1m9,-6h1m5,1h1m-20,5h1m11,-2h1m-7,-5h1m9,0h1m-13,3h1m-2,-3h1m9,2h1M755,55h1m9,1h1m-2,-1h1m-5,5h1m14,-3h1m-7,1h1m1,-4h1m-15,0h1m11,6h1m0,-6h1m-5,1h1m-14,5h1m1,-4h1m18,0h1m-4,0h1m-8,2h1m2,-3h1m5,6h1M761,57h1m13,2h1M759,58h1m3,-4h1m3,5h1m-7,1h1m14,-5h1m-16,2h1m6,-1h1m-9,0h1m-5,0h1m6,2h1m-3,-3h1m9,1h1m-18,1h1m9,1h1m10,-2h1m-2,4h1m-12,0h1M776,49h1m-2,3h1M761,50h1m-2,-2h1m3,3h1m-3,-4h1m3,0h1m-9,5h1m7,1h1m4,-5h1m-8,6h1m-8,-1h1m15,-5h1m-11,6h1m8,0h1m2,-7h1m-19,6h1m4,-7h1m12,2h1m-8,5h1m1,-4h1m-2,3h1M757,50h1m-2,2h1m12,1h1m5,-3h1m-7,-2h1m-11,0h1m8,5h1h1m2,-4h1m-5,-2h1m-10,1h1m-3,-2h1m13,4h1m-6,1h1m-4,-5h1m3,6h1M757,46h1m7,7h1m-9,0h1m16,0h1m-6,-6h1m-16,5h1m7,-3h1m4,3h1m-8,1h1m-2,-7h1m2,0h1m2,1h1m-1,0h1m-3,1h1m1,5h1m-2,-1h1m-7,1h1m-4,-5h1m7,0h1m-8,3h1m0,-1h1m15,-3h1m-1,3h1M763,48h1m3,1h1M758,45h1m3,-1h1m-7,-3h1m2,5h1m-4,-2h1m5,-5h1m3,6h1m-4,-5h1m-3,2h1m7,-1h1m-9,4h1m-1,-1h1m-4,-5h1m3,5h1m-7,1h1m5,-4h1m0,1h1m-2,3h1m0,-3h1m-6,0h1m9,0h1m-12,1h1m9,0h1m-9,-1h1m-2,0h1m4,3h1m-3,-1h1m13,-5h1m-13,3h1m-1,2h1m-3,-3h1m5,1h1m-14,2h1m13,0h1m-9,0h1m-4,-5h1m2,3h1m2,4h1m8,-5h1m-1,4h1M755,40h1m6,0h1m10,3h1m-13,1h1m-6,-5h1m3,4h1m1,-4h1m2,6h1m-7,-6h1m14,7h1m-6,-5h1m-1,0h1m-2,-1h1m-7,1h1m12,4h1m-1,-2h1m-17,1h1m2,-3h1m11,4h1m1,-3h1m-19,0h1m-1,-7h1m1,1h1m0,-3h1m12,2h1M755,32h1m12,0h1m-14,0h1m3,4h1m-3,-3h1m3,-1h1m12,4h1M757,34h1m8,1h1m9,-3h1m-6,5h1m2,-6h1m-15,0h1m-2,2h1m10,0h1m-2,-1h1m3,6h1M754,35h1m12,0h1m0,-4h1m-3,5h1m-3,2h1m4,-3h1m-3,-2h1m7,2h1M758,33h1m-4,4h1m10,0h1M755,33h1m18,1h1m-21,0h1m18,1h1m-5,2h1m2,0h1m-3,-5h1m-13,0h1m16,5h1m-2,-5h1m-13,5h1m8,-6h1m-2,3h1m-9,-2h1m10,2h1m-4,-3h1m-12,1h1m-3,5h1m9,-6h1m-12,4h1m18,3h1m-9,-9h1m-5,1h1m1,-3h1m-12,3h1m15,-1h1m-3,-5h1m-1,2h1m-15,0h1m2,3h1m17,1h1M765,28h1m7,1h1M762,23h1m-2,7h1m-8,-1h1m6,0h1m2,-2h1m-11,0h1m11,-1h1m-5,0h1m-1,1h1m4,1h1m-8,-1h1m12,0h1m-4,-3h1m-3,3h1m-2,-2h1m-2,0h1m3,4h1m-4,-1h1m-1,-2h1m-4,0h1M755,24h1m7,2h1m-4,1h1m4,4h1m9,-6h1m-21,4h1m19,-4h1m-9,6h1m2,-5h1m-13,3h1m9,-9h1m-2,-4h1m-14,6h1m41,39h1M782,56h1m2,-1h1m-10,6h1m6,-1h1m-2,-5h1m14,2h1m-10,2h1m2,-5h1m5,4h1M783,56h1m14,5h1m-6,-1h1m2,-2h1m-17,0h1m-3,1h1M798,47h1m-2,1h1m-5,-2h1m-14,6h1m12,-2h1m2,3h1M779,51h1m4,1h1m15,-1h1m-14,2h1m12,0h1m-15,1h1m12,-3h1m-16,2h1m1,-4h1m3,0h1m0,5h1m3,-4h1M783,48h1m10,1h1m4,-2h1m0,3h1m-19,1h1m1,-2h1m7,2h1m-8,2h1m2,-3h1m7,1h1m-4,-1h1M782,46h1m1,4h1m1,0h1m10,1h1m-14,1h1m6,-6h1m4,5h1m-6,1h1M777,50h1m18,4h1M782,46h1m15,4h1m-9,4h1m3,-4h1m4,-4h1m-22,8h1m15,-3h1m-2,2h1m-9,-2h1m-6,-4h1m2,3h1m-1,-1h1m13,0h1m-7,5h1m-6,-5h1m10,0h1m-6,0h1m-10,2h1m1,1h1m-6,-1h1m5,-4h1m12,3h1m-3,-2h1m-16,3h1m12,1h1M795,41h1m-2,0h1m-3,1h1M778,40h1m14,6h1M777,39h1m1,7h1m-1,-6h1m8,5h1m6,-3h1m-9,3h1m11,1h1m-8,-6h1M782,39h1m6,5h1m2,-2h1m0,-3h1m-15,7h1m10,-3h1m-9,2h1m9,-6h1m-2,1h1M779,39h1m3,4h1m15,-1h1M789,39h1m9,0h1m-5,6h1h1m-2,-2h1M781,42h1m8,0h1m9,-2h1m-22,3h1m5,-5h1m6,0h1m2,1h1m-14,1h1m-7,0h1m6,4h1m14,-3h1m-7,0h1m-3,4h1m-3,-2h1m-9,-3h1m16,0h1m-1,1h1m-3,4h1m-3,-2h1M783,42h1m12,-1h1m-4,2h1m-8,3h1m-8,-3h1m12,3h1m-7,-6h1m0,-1h1m4,6h1m-9,-2h1m-4,-2h1m13,1h1m-16,3h1m-2,-6h1m5,1h1m10,4h1M784,40h1m2,-3h1m9,0h1m1,-2h1M788,33h1m2,-1h1m-9,0h1h1m-4,1h1m-2,2h1m16,0h1m-5,1h1m6,-2h1m-18,4h1m7,-3h1m3,-2h1M779,31h1m18,1h1m-20,3h1m3,-4h1m8,1h1m-2,0h1m3,1h1M782,31h1m9,7h1M776,32h1m11,1h1m3,3h1m3,-2h1M783,33h1m15,0h1m-18,0h1m6,-1h1m-2,6h1m-8,-1h1m-4,-3h1m10,3h1m1,-1h1m1,-4h1m2,1h1m1,5h1M779,36h1m10,0h1m4,-2h1M782,32h1m10,5h1m1,-2h1M784,31h1m4,5h1m-1,0h1m3,-1h1m-9,3h1m1,-1h1m2,0h1m-10,1h1m-1,-3h1m5,-3h1m7,4h1M779,34h1m3,-10h1m6,-1h1m6,4h1m-14,2h1m4,2h1M779,23h1m-1,5h1m4,3h1m2,-2h1m-9,-4h1m-3,0h1m9,1h1m0,4h1m0,-3h1m-3,2h1m5,2h1m0,-7h1m-3,0h1m4,-1h1m-4,7h1M783,26h1m12,4h1M786,28h1m8,1h1M785,28h1m-4,-2h1m5,-1h1M779,24h1m14,2h1m-6,-2h1m-14,1h1m21,5h1m-8,1h1m5,0h1m-3,-2h1M779,24h1m9,0h1m-3,6h1m-7,-5h1m-5,-1h1m0,3h1m20,3h1m-4,-6h1m-11,2h1m4,0h1m5,2h1m-8,1h1m-7,0h1m12,-5h1m-18,4h1m6,0h1m-9,-1h1m12,4h1m4,-2h1m-9,1h1m3,1h1m-1,-6h1m-5,4h1M778,25h1m-2,5h1m1,-9h1m19,1h1m-9,0h1M780,18h1m7,3h1m11,-3h1M779,16h1m11,5h1M781,19h1m10,0h1m-1,-3h1m-5,4h1m-8,1h1m8,-1h1M777,18h1m9,0h1m1,3h1m-4,-6h1m-5,8h1m15,-1h1M780,16h1m5,1h1m8,5h1m0,-6h1m-12,7h1m9,-3h1M778,16h1m15,3h1m-1,2h1M778,17h1m15,5h1m20,32h1m-1,-1h1m-6,-5h1m-8,-1h1m-4,5h1m19,0h1m-18,0h1m3,-4h1m12,4h1m-15,2h1m8,-3h1m-7,-4h1m7,0h1m-17,6h1m15,-2h1m-12,0h1m2,1h1m5,0h1m2,-4h1m-5,-7h1m-5,-3h1m1,3h1m-6,1h1m-6,-1h1m10,4h1m2,-1h1m-8,-3h1m5,-2h1m5,5h1M801,41h1m13,2h1m-6,1h1m0,-2h1m1,1h1m9,-5h1m-14,3h1m1,-3h1m5,4h1m-14,2h1m2,-3h1m-2,-1h1m12,1h1m-2,2h1m0,-4h1m-4,1h1m-4,-2h1m6,8h1M810,40h1m9,-2h1m-10,7h1m6,-6h1m-10,6h1m13,-6h1m-7,7h1m-1,-3h1M803,39h1m4,3h1m-4,3h1m16,-2h1M806,39h1m13,6h1m-18,1h1m15,-8h1m-14,7h1m7,1h1m-7,-6h1m1,-1h1m9,-6h1m-4,0h1m2,2h1m-5,-2h1m-10,1h1m-4,-1h1m3,4h1m0,-5h1m7,3h1M808,31h1m10,5h1M810,34h1m-5,2h1m10,-3h1m-11,3h1m11,-3h1m-12,3h1m0,1h1m4,-5h1m-4,1h1m1,2h1m0,3h1m1,-1h1m-1,-2h1m-14,1h1m15,0h1M802,34h1m10,3h1m-5,-2h1m12,-2h1m-22,2h1m20,0h1M808,33h1m1,3h1m-1,0h1m6,-4h1m-12,1h1m-3,4h1m13,-5h1m-17,0h1m19,0h1m-3,5h1M810,32h1m2,1h1m-11,4h1m2,-3h1m10,-3h1m3,2h1m-8,0h1m2,4h1m-4,0h1m0,-1h1m1,-2h1m-1,-2h1m-6,0h1m9,3h1m-15,0h1m-3,-2h1m-2,-1h1m11,3h1m-6,-4h1m9,3h1M811,32h1m8,5h1m-5,-4h1m5,-1h1m-3,-4h1M810,23h1m-7,2h1m15,3h1m-13,1h1m0,-2h1m3,0h1M804,24h1m6,2h1m7,-2h1m3,5h1m-6,2h1M806,26h1m-5,4h1m18,-5h1m0,2h1m-9,-2h1m0,-1h1m7,2h1m-21,5h1m19,-4h1M808,26h1m-9,-3h1m19,3h1m-2,3h1m-15,2h1m-5,-8h1m16,2h1m3,2h1m-9,2h1m-1,-3h1m-8,3h1m-1,-4h1m-3,2h1m-1,0h1m15,-2h1m-18,3h1m11,-1h1m-1,-3h1m-9,5h1m-9,2h1m17,-6h1m-12,2h1m-7,-3h1m20,6h1m-9,1h1m-7,-3h1m1,3h1m0,-7h1m-4,3h1m5,-2h1m-10,2h1m13,-2h1m-13,2h1m-3,1h1m10,-5h1m-1,8h1m2,-1h1m-7,-4h1m8,4h1m-7,1h1M802,28h1m13,1h1m-8,-3h1m-5,-2h1m1,5h1m4,-11h1m8,-1h1m-5,5h1m2,1h1M804,22h1m12,-7h1m-10,7h1m28,20h1m-5,1h1m-2,1h1m-7,-2h1m3,4h1m-6,-4h1m14,0h1m-6,-2h1m-10,1h1m-1,-3h1m7,3h1m3,3h1m1,1h1m5,-1h1M830,39h1m-5,2h1m2,3h1m8,0h1m-8,-4h1m-6,4h1m15,-5h1m-13,5h1m0,-4h1m8,-2h1m-1,6h1m-7,-1h1m6,-3h1m-17,1h1m-3,-1h1m22,-1h1m-7,7h1M828,43h1m10,0h1m-5,-2h1m11,2h1m-6,-4h1m1,5h1m1,-4h1m-13,4h1m8,-3h1M830,36h1m9,-1h1m-16,0h1m8,-2h1m2,2h1m-1,1h1m-4,1h1m0,-4h1m3,3h1M829,31h1m13,6h1m-9,-5h1m2,4h1m-12,0h1m-1,-5h1m16,5h1m-14,1h1m6,-2h1m-14,2h1m3,-1h1m-5,-3h1m5,-2h1m-6,5h1m18,1h1m-6,0h1m-5,0h1m3,-2h1M826,34h1m8,-2h1m-8,2h1m-5,1h1m9,3h1m-2,0h1m8,0h1m3,-2h1m-5,-3h1m-8,-2h1m-3,0h1m-7,2h1m16,-1h1m-1,5h1M826,36h1m13,-1h1M824,33h1m15,1h1m-2,3h1m-4,-2h1m-6,2h1m-5,-2h1m16,1h1m-7,-2h1m-10,0h1m0,1h1m0,1h1m2,-13h1m5,3h1m5,0h1m-11,2h1m-13,0h1m7,-4h1m5,-1h1m-1,7h1m-4,-1h1m-7,-2h1m-4,-2h1m2,2h1m9,-1h1m-8,2h1m-9,-5h1m18,5h1M823,27h1m0,-1h1m8,1h1m-1,-3h1m2,3h1m1,3h1m7,-5h1m-19,2h1m12,-1h1M823,25h1m20,-2h1m-11,4h1M824,24h1m18,1h1m-9,1h1m7,1h1M833,26h1m-1,-2h1m6,5h1m4,-5h1m-3,7h1M834,24h1m-1,-1h1m-5,0h1m12,4h1M824,26h1m19,-2h1m-1,2h1m22,18h1M852,37h1m12,-5h1m3,5h1m-9,-5h1m-5,1h1m6,0h1m-14,1h1m-3,2h1m13,-5h1m-14,6h1m16,0h1M847,33h1m2,-1h1m15,3h1M847,32h1m12,0h1m-13,3h1m-2,1h1m15,1h1m-5,-5h1m-11,4h1m2,0h1m0,-4h1m6,2h1m8,3h1M856,34h1m5,-3h1m-6,6h1m3,0h1m5,-2h1m-2,0h1m-6,2h1m7,-3h1m-5,1h1M847,31h1m3,3h1m1,4h1m3,-4h1m-3,3h1m6,-1h1m0,2h1m-3,0h1m-6,-1h1m13,-4h1m-22,2h1m1,-4h1m4,1h1m-5,2h1m-3,0h1m10,0h1m1,0h1M849,33h1m9,-9h1m-4,3h1m4,-2h1m-12,3h1m7,-4h1m9,3h1M854,26h1m-2,4h1m14,-2h1m-2,-5h1m-8,1h1m-11,2h1m3,-2h1m8,-1h1m2,6h1M848,25h1m11,5h1m2,-6h1m-11,6h1m11,-1h1m-10,1h1m11,-7h1m-5,1h1m25,11h1m-18,2h1m9,-5h1m6,3h1m-20,1h1m12,-4h1m9,5h1M872,33h1m-2,0h1m3,-1h1m4,2h1m-3,-7h1" style="stroke: black; fill: none;"></path>
      </g>
     </svg>
     <g>
      <g transform="translate(0,307)">
       <path d="M0,0h941M0,-12V0M19,-6V0M38,-6V0M56,-6V0M75,-6V0M94,-12V0M113,-6V0M132,-6V0M151,-6V0M169,-6V0M188,-12V0M207,-6V0M226,-6V0M245,-6V0M263,-6V0M282,-12V0M301,-6V0M320,-6V0M339,-6V0M358,-6V0M376,-12V0M395,-6V0M414,-6V0M433,-6V0M452,-6V0M471,-12V0M489,-6V0M508,-6V0M527,-6V0M546,-6V0M565,-12V0M583,-6V0M602,-6V0M621,-6V0M640,-6V0M659,-12V0M678,-6V0M696,-6V0M715,-6V0M734,-6V0M753,-12V0M772,-6V0M790,-6V0M809,-6V0M828,-6V0M847,-12V0M866,-6V0M885,-6V0M903,-6V0M922,-6V0M941,-12V0" style="stroke: black; stroke-width: 1;"></path>
       <g font-family="Arial" font-size="13" space="preserve" fill="black" text-anchor="middle">
        <text dy=".8em" transform="translate(0,1)">
         0
        </text>
        <text dy=".8em" transform="translate(94,1)">
         0.1
        </text>
        <text dy=".8em" transform="translate(188,1)">
         0.2
        </text>
        <text dy=".8em" transform="translate(282,1)">
         0.3
        </text>
        <text dy=".8em" transform="translate(376,1)">
         0.4
        </text>
        <text dy=".8em" transform="translate(471,1)">
         0.5
        </text>
        <text dy=".8em" transform="translate(565,1)">
         0.6
        </text>
        <text dy=".8em" transform="translate(659,1)">
         0.7
        </text>
        <text dy=".8em" transform="translate(753,1)">
         0.8
        </text>
        <text dy=".8em" transform="translate(847,1)">
         0.9
        </text>
        <text dy=".8em" transform="translate(941,1)">
         1
        </text>
       </g>
      </g>
      <g>
       <path d="M0,0v307M35,307H0M18,301H0M18,295H0M18,289H0M18,282H0M35,276H0M18,270H0M18,264H0M18,258H0M18,252H0M35,246H0M18,239H0M18,233H0M18,227H0M18,221H0M35,215H0M18,209H0M18,203H0M18,196H0M18,190H0M35,184H0M18,178H0M18,172H0M18,166H0M18,160H0M35,154H0M18,147H0M18,141H0M18,135H0M18,129H0M35,123H0M18,117H0M18,111H0M18,104H0M18,98H0M35,92H0M18,86H0M18,80H0M18,74H0M18,68H0M35,61H0M18,55H0M18,49H0M18,43H0M18,37H0M35,31H0M18,25H0M18,18H0M18,12H0M18,6H0M35,0H0" style="stroke: black; stroke-width: 1;"></path>
       <g font-family="Arial" font-size="13" space="preserve" fill="black" text-anchor="end">
        <text dy=".4em" transform="translate(-2,307)">
         0
        </text>
        <text dy=".4em" transform="translate(-2,276)">
         1
        </text>
        <text dy=".4em" transform="translate(-2,246)">
         2
        </text>
        <text dy=".4em" transform="translate(-2,215)">
         3
        </text>
        <text dy=".4em" transform="translate(-2,184)">
         4
        </text>
        <text dy=".4em" transform="translate(-2,154)">
         5
        </text>
        <text dy=".4em" transform="translate(-2,123)">
         6
        </text>
        <text dy=".4em" transform="translate(-2,92)">
         7
        </text>
        <text dy=".4em" transform="translate(-2,61)">
         8
        </text>
        <text dy=".4em" transform="translate(-2,31)">
         9
        </text>
        <text dy=".4em" transform="translate(-2)">
         10
        </text>
       </g>
      </g>
     </g>
    </g>
    <g transform="translate(118,2)" font-family="Arial" font-size="19" space="preserve">
     <text fill="black" text-anchor="middle" dy=".8em" transform="translate(471)">
      h2
     </text>
    </g>
    <g transform="translate(917,25)" font-family="Arial" font-size="12" space="preserve" fill="black">
     <path d="M0,0H235V92H0Z" style="fill: white; stroke: black; stroke-width: 1;"></path>
     <text text-anchor="middle" dy=".4em" transform="translate(118,8)">
      h2
     </text>
     <text text-anchor="start" dy=".4em" transform="translate(12,23)">
      Entries
     </text>
     <text text-anchor="end" dy=".4em" transform="translate(223,23)">
      7693
     </text>
     <text text-anchor="start" dy=".4em" transform="translate(12,38)">
      Mean x
     </text>
     <text text-anchor="end" dy=".4em" transform="translate(223,38)">
      0.5289
     </text>
     <text text-anchor="start" dy=".4em" transform="translate(12,54)">
      Mean y
     </text>
     <text text-anchor="end" dy=".4em" transform="translate(223,54)">
      5.320
     </text>
     <text text-anchor="start" dy=".4em" transform="translate(12,69)">
      Std Dev x
     </text>
     <text text-anchor="end" dy=".4em" transform="translate(223,69)">
      0.2220
     </text>
     <text text-anchor="start" dy=".4em" transform="translate(12,84)">
      Std Dev y
     </text>
     <text text-anchor="end" dy=".4em" transform="translate(223,84)">
      2.508
     </text>
     <path d="M0,15h235" style="stroke: black; stroke-width: 1;"></path>
    </g>
   </g>
  </svg>
  <svg viewBox="0 0 1176 384" preserveAspectRatio="none" x="12" y="408" width="1176" height="384">
   <path d="M0,0H1176V384H0Z" style="fill: white;"></path>
   <g>
    <g transform="translate(118,38)">
     <path d="M0,0H941V307H0Z" style="fill: white; stroke: black; stroke-width: 1;"></path>
     <svg x="0" y="0" overflow="hidden" width="941" height="307" viewBox="0 0 941 307">
      <g>
       <path d="M71,284h24M83,282v3M94,285h24M106,284v2M118,279h24M130,278v1M141,269h24M153,268v2M165,260h24M177,260v1M188,251h24M200,250v1M212,241h24M224,240v1M235,233h24M247,233v1M259,223h24M271,222v1M282,214h24M294,213v1M306,205h24M318,205v1M329,194h24M341,193v2M353,184h24M365,184v1M376,174h24M388,173v2M400,167h24M412,166v1M423,157h24M435,156v2M447,148h24M459,148v1M471,139h24M483,138v1M494,129h24M506,128v1M518,121h24M530,120v1M541,110h24M553,110v1M565,102h24M577,101v1M588,92h24M600,92v1M612,82h24M624,81v2M635,73h24M647,73v1M659,63h24M671,62v2M682,53h24M694,53v1M706,45h24M718,45v1M729,36h24M741,35v2M753,27h24M765,26v1M776,21h24M788,20v1M800,18h24M812,17v1M823,17h24M835,17v1M847,15h24M859,15v1M870,17h24M882,16v1" style="stroke: #00009a; stroke-width: 1;"></path>
      </g>
      <g>
       <path d="M4.5,320.59C6.4,319.89,10.2,318.48,14,317.07S19.7,314.95,23.5,313.54S29.2,311.43,33,310.02S38.8,307.9,42.5,306.49S47.8,304.38,51.5,302.97S57.2,300.85,61,299.44S66.7,297.33,70.5,295.92S76.2,293.8,80,292.39S85.7,290.28,89.5,288.87S95.2,286.75,99,285.34S104.8,283.23,108.5,281.82S113.8,279.7,117.5,278.29S123.2,276.18,127,274.77S132.7,272.65,136.5,271.24S142.2,269.13,146,267.72S151.8,265.6,155.5,264.19S160.8,262.08,164.5,260.67S170.2,258.55,174,257.14S179.7,255.03,183.5,253.62S189.2,251.5,193,250.09S198.8,247.98,202.5,246.57S207.8,244.45,211.5,243.04S217.2,240.93,221,239.52S226.7,237.4,230.5,235.99S236.2,233.88,240,232.47S245.8,230.35,249.5,228.94S254.8,226.83,258.5,225.42S264.2,223.3,268,221.89S273.7,219.78,277.5,218.37S283.2,216.26,287,214.85S292.7,212.73,296.5,211.32S302.2,209.21,306,207.8S311.8,205.68,315.5,204.27S320.8,202.16,324.5,200.75S330.2,198.63,334,197.22S339.7,195.11,343.5,193.7S349.2,191.58,353,190.17S358.8,188.06,362.5,186.65S367.8,184.53,371.5,183.12S377.2,181.01,381,179.6S386.7,177.48,390.5,176.07S396.2,173.96,400,172.55S405.8,170.43,409.5,169.02S414.8,166.91,418.5,165.5S424.2,163.38,428,161.97S433.7,159.86,437.5,158.45S443.2,156.33,447,154.92S452.7,152.81,456.5,151.4S462.2,149.28,466,147.87S471.8,145.76,475.5,144.35S480.8,142.23,484.5,140.82S490.2,138.71,494,137.3S499.7,135.18,503.5,133.77S509.2,131.66,513,130.25S518.8,128.13,522.5,126.72S527.8,124.61,531.5,123.2S537.2,121.08,541,119.67S546.7,117.56,550.5,116.15S556.2,114.03,560,112.62S565.8,110.51,569.5,109.1S574.8,106.99,578.5,105.58S584.2,103.46,588,102.05S593.7,99.94,597.5,98.53S603.2,96.41,607,95S612.8,92.89,616.5,91.48S621.8,89.36,625.5,87.95S631.2,85.84,635,84.43S640.7,82.31,644.5,80.9S650.2,78.79,654,77.38S659.7,75.26,663.5,73.85S669.2,71.74,673,70.33S678.8,68.21,682.5,66.8S687.8,64.69,691.5,63.28S697.2,61.16,701,59.75S706.7,57.64,710.5,56.23S716.2,54.11,720,52.7S725.8,50.59,729.5,49.18S734.8,47.06,738.5,45.65S744.2,43.54,748,42.13S753.7,40.01,757.5,38.6S763.2,36.49,767,35.08S772.8,32.96,776.5,31.55S781.8,29.44,785.5,28.03S791.2,25.91,795,24.5S800.7,22.39,804.5,20.98S810.2,18.86,814,17.45S819.8,15.34,823.5,13.93S828.8,11.81,832.5,10.4S838.2,8.29,842,6.88S847.7,4.76,851.5,3.35S857.2,1.24,861,-0.17S866.7,-2.28,870.5,-3.69S876.2,-5.81,880,-7.22S885.8,-9.33,889.5,-10.74S894.8,-12.86,898.5,-14.27S904.2,-16.38,908,-17.79S913.7,-19.91,917.5,-21.32S923.2,-23.43,927,-24.84S934.6,-27.66,936.5,-28.37" style="fill: none; stroke: red; stroke-width: 2;"></path>
      </g>
     </svg>
     <g>
      <g transform="translate(0,307)">
       <path d="M0,0h941M0,-12V0M19,-6V0M38,-6V0M56,-6V0M75,-6V0M94,-12V0M113,-6V0M132,-6V0M151,-6V0M169,-6V0M188,-12V0M207,-6V0M226,-6V0M245,-6V0M263,-6V0M282,-12V0M301,-6V0M320,-6V0M339,-6V0M358,-6V0M376,-12V0M395,-6V0M414,-6V0M433,-6V0M452,-6V0M471,-12V0M489,-6V0M508,-6V0M527,-6V0M546,-6V0M565,-12V0M583,-6V0M602,-6V0M621,-6V0M640,-6V0M659,-12V0M678,-6V0M696,-6V0M715,-6V0M734,-6V0M753,-12V0M772,-6V0M790,-6V0M809,-6V0M828,-6V0M847,-12V0M866,-6V0M885,-6V0M903,-6V0M922,-6V0M941,-12V0" style="stroke: black; stroke-width: 1;"></path>
       <g font-family="Arial" font-size="13" space="preserve" fill="black" text-anchor="middle">
        <text dy=".8em" transform="translate(0,1)">
         0
        </text>
        <text dy=".8em" transform="translate(94,1)">
         0.1
        </text>
        <text dy=".8em" transform="translate(188,1)">
         0.2
        </text>
        <text dy=".8em" transform="translate(282,1)">
         0.3
        </text>
        <text dy=".8em" transform="translate(376,1)">
         0.4
        </text>
        <text dy=".8em" transform="translate(471,1)">
         0.5
        </text>
        <text dy=".8em" transform="translate(565,1)">
         0.6
        </text>
        <text dy=".8em" transform="translate(659,1)">
         0.7
        </text>
        <text dy=".8em" transform="translate(753,1)">
         0.8
        </text>
        <text dy=".8em" transform="translate(847,1)">
         0.9
        </text>
        <text dy=".8em" transform="translate(941,1)">
         1
        </text>
       </g>
      </g>
      <g>
       <path d="M0,0v307M35,307H0M18,300H0M18,294H0M18,287H0M18,281H0M35,274H0M18,268H0M18,261H0M18,255H0M18,248H0M35,242H0M18,235H0M18,229H0M18,222H0M18,216H0M35,209H0M18,203H0M18,196H0M18,190H0M18,183H0M35,176H0M18,170H0M18,163H0M18,157H0M18,150H0M35,144H0M18,137H0M18,131H0M18,124H0M18,118H0M35,111H0M18,105H0M18,98H0M18,92H0M18,85H0M35,79H0M18,72H0M18,66H0M18,59H0M18,53H0M35,46H0M18,39H0M18,33H0M18,26H0M18,20H0M35,13H0M18,7H0M18,0H0" style="stroke: black; stroke-width: 1;"></path>
       <g font-family="Arial" font-size="13" space="preserve" fill="black" text-anchor="end">
        <text dy=".4em" transform="translate(-2,307)">
         0
        </text>
        <text dy=".4em" transform="translate(-2,274)">
         1
        </text>
        <text dy=".4em" transform="translate(-2,242)">
         2
        </text>
        <text dy=".4em" transform="translate(-2,209)">
         3
        </text>
        <text dy=".4em" transform="translate(-2,176)">
         4
        </text>
        <text dy=".4em" transform="translate(-2,144)">
         5
        </text>
        <text dy=".4em" transform="translate(-2,111)">
         6
        </text>
        <text dy=".4em" transform="translate(-2,79)">
         7
        </text>
        <text dy=".4em" transform="translate(-2,46)">
         8
        </text>
        <text dy=".4em" transform="translate(-2,13)">
         9
        </text>
       </g>
      </g>
     </g>
    </g>
    <g transform="translate(118,2)" font-family="Arial" font-size="19" space="preserve">
     <text fill="black" text-anchor="middle" dy=".8em" transform="translate(471)">
      h2
     </text>
    </g>
    <g transform="translate(917,25)" font-family="Arial" font-size="12" space="preserve" fill="black">
     <path d="M0,0H235V92H0Z" style="fill: white; stroke: black; stroke-width: 1;"></path>
     <text text-anchor="middle" dy=".4em" transform="translate(118,8)">
      h2_pfx
     </text>
     <text text-anchor="start" dy=".4em" transform="translate(12,23)">
      Entries
     </text>
     <text text-anchor="end" dy=".4em" transform="translate(223,23)">
      7693
     </text>
     <text text-anchor="start" dy=".4em" transform="translate(12,38)">
      Mean
     </text>
     <text text-anchor="end" dy=".4em" transform="translate(223,38)">
      0.5289
     </text>
     <text text-anchor="start" dy=".4em" transform="translate(12,54)">
      Mean y
     </text>
     <text text-anchor="end" dy=".4em" transform="translate(223,54)">
      5.320
     </text>
     <text text-anchor="start" dy=".4em" transform="translate(12,69)">
      Std Dev
     </text>
     <text text-anchor="end" dy=".4em" transform="translate(223,69)">
      0.2220
     </text>
     <text text-anchor="start" dy=".4em" transform="translate(12,84)">
      Std Dev y
     </text>
     <text text-anchor="end" dy=".4em" transform="translate(223,84)">
      2.509
     </text>
     <path d="M0,15h235" style="stroke: black; stroke-width: 1;"></path>
    </g>
   </g>
  </svg>
 </g>
</svg>