<svg xmlns="http://www.w3.org/2000/svg" viewBox="0 0 1200 800" preserveAspectRatio="none" width="1200" height="800">
 <path d="M0,0H1200V800H0Z" style="fill: white;"></path>
 <g>
  <g transform="translate(120,80)">
   <path d="M0,0H960V640H0Z" style="fill: white; stroke: black; stroke-width: 1;"></path>
   <svg x="0" y="0" overflow="hidden" width="960" height="640" viewBox="0 0 960 640">
    <g>
     <path d="M0,54h2M1,44v21M1,53h2M2,43v21M2,41h2M3,30v22M3,54h2M4,43v21M4,73h2M5,63v21M5,43h2M6,33v21M6,56h2M7,45v21M7,66h2M8,55v21M8,56h2M9,46v21M9,60h2M10,49v21M10,68h2M11,58v21M11,81h2M12,70v21M12,84h0M12,74v21M12,75h2M13,65v21M13,73h2M14,63v20M14,87h2M15,77v20M15,81h2M16,71v20M16,105h2M17,95v20M17,73h2M18,63v21M18,82h2M19,72v20M19,92h2M20,82v20M20,94h2M21,84v20M21,96h2M22,86v20M22,92h2M23,82v20M23,97h2M24,87v20M24,91h2M25,81v21M25,102h2M26,92v20M26,87h2M27,77v20M27,97h2M28,87v20M28,102h2M29,92v20M29,108h2M30,98v20M30,123h2M31,113v20M31,98h2M32,88v20M32,119h2M33,109v20M33,126h2M34,117v19M34,118h2M35,108v20M35,108h2M36,98v20M36,108h0M36,98v19M36,131h2M37,121v20M37,127h2M38,118v19M38,126h2M39,117v19M39,125h2M40,116v19M40,124h2M41,114v19M41,121h2M42,111v20M42,121h2M43,111v19M43,122h2M44,112v20M44,114h2M45,105v19M45,147h2M46,137v19M46,120h2M47,110v20M47,134h2M48,124v20M48,140h2M49,130v19M49,136h2M50,126v19M50,130h2M51,121v19M51,142h2M52,132v19M52,140h2M53,131v19M53,131h2M54,121v19M54,146h2M55,137v19M55,150h2M56,140v19M56,151h2M57,141v19M57,148h2M58,138v19M58,148h2M59,139v19M59,134h2M60,125v19M60,164h0M60,154v19M60,158h2M61,148v19M61,153h2M62,144v19M62,170h2M63,160v19M63,173h2M64,164v19M64,161h2M65,151v19M65,159h2M66,150v19M66,169h2M67,160v18M67,159h2M68,149v19M68,170h2M69,161v18M69,179h2M70,170v18M70,174h2M71,165v18M71,174h2M72,164v19M72,180h2M73,171v18M73,169h2M74,160v18M74,181h2M75,171v19M75,187h2M76,177v19M76,178h2M77,169v19M77,179h2M78,170v18M78,187h2M79,178v19M79,155h2M80,146v19M80,188h2M81,178v19M81,200h2M82,191v18M82,196h2M83,186v19M83,181h2M84,172v18M84,179h0M84,170v18M84,179h2M85,170v18M85,203h2M86,194v18M86,178h2M87,168v19M87,182h2M88,173v18M88,187h2M89,178v19M89,189h2M90,180v18M90,196h2M91,187v18M91,196h2M92,187v18M92,210h2M93,201v18M93,200h2M94,191v18M94,203h2M95,194v18M95,200h2M96,191v18M96,195h2M97,186v18M97,190h2M98,181v18M98,194h2M99,185v18M99,228h2M100,219v17M100,189h2M101,180v18M101,212h2M102,203v18M102,217h2M103,208v18M103,209h2M104,200v18M104,202h2M105,193v18M105,213h2M106,204v18M106,215h2M107,206v17M107,212h2M108,203v18M108,219h0M108,210v18M108,215h2M109,206v18M109,219h2M110,210v18M110,230h2M111,221v18M111,226h2M112,217v18M112,214h2M113,205v18M113,228h2M114,219v18M114,234h2M115,225v17M115,219h2M116,210v18M116,229h2M117,220v17M117,234h2M118,225v17M118,232h2M119,223v17M119,238h2M120,229v17M120,228h2M121,219v18M121,239h2M122,231v17M122,230h2M123,221v18M123,251h2M124,243v17M124,250h2M125,241v17M125,252h2M126,243v17M126,236h2M127,227v18M127,251h2M128,243v17M128,242h2M129,234v17M129,260h2M130,252v16M130,248h2M131,239v17M131,267h2M132,259v17M132,243h0M132,235v17M132,237h2M133,228v18M133,256h2M134,248v17M134,242h2M135,233v17M135,254h2M136,246v17M136,260h2M137,252v16M137,248h2M138,240v17M138,254h2M139,245v17M139,240h2M140,231v17M140,283h2M141,275v16M141,285h2M142,277v17M142,262h2M143,253v17M143,264h2M144,256v16M144,264h2M145,255v17M145,284h2M146,276v16M146,245h2M147,237v17M147,250h2M148,241v17M148,260h2M149,252v17M149,270h2M150,262v17M150,279h2M151,271v16M151,280h2M152,271v17M152,286h2M153,278v16M153,272h2M154,264v16M154,269h2M155,261v17M155,276h2M156,267v17M156,286h0M156,278v16M156,291h2M157,283v16M157,280h2M158,271v17M158,279h2M159,271v16M159,292h2M160,284v16M160,291h2M161,283v16M161,272h2M162,263v17M162,292h2M163,284v16M163,272h2M164,263v17M164,288h2M165,280v16M165,289h2M166,281v16M166,286h2M167,278v16M167,301h2M168,293v16M168,290h2M169,282v16M169,306h2M170,298v16M170,291h2M171,283v16M171,274h2M172,266v16M172,296h2M173,288v16M173,313h2M174,305v15M174,280h2M175,272v16M175,302h2M176,294v16M176,309h2M177,301v16M177,296h2M178,288v16M178,309h2M179,301v16M179,315h2M180,307v16M180,303h0M180,295v16M180,306h2M181,298v16M181,318h2M182,310v15M182,310h2M183,302v16M183,320h2M184,312v15M184,310h2M185,302v16M185,308h2M186,301v15M186,317h2M187,310v15M187,306h2M188,298v15M188,305h2M189,297v16M189,309h2M190,301v16M190,307h2M191,299v16M191,335h2M192,327v15M192,315h2M193,308v15M193,307h2M194,299v16M194,303h2M195,295v16M195,322h2M196,314v16M196,315h2M197,307v16M197,317h2M198,309v16M198,307h2M199,299v16M199,324h2M200,316v16M200,315h2M201,308v15M201,317h2M202,310v15M202,327h2M203,320v15M203,335h2M204,327v15M204,335h0M204,327v15M204,323h2M205,315v16M205,340h2M206,332v15M206,347h2M207,340v15M207,334h2M208,326v15M208,341h2M209,333v15M209,338h2M210,331v15M210,332h2M211,324v15M211,343h2M212,336v15M212,325h2M213,318v15M213,329h2M214,321v15M214,335h2M215,327v16M215,344h2M216,336v15M216,324h2M217,317v15M217,332h2M218,325v15M218,340h2M219,333v15M219,342h2M220,335v15M220,353h2M221,346v14M221,344h2M222,337v14M222,350h2M223,343v14M223,346h2M224,339v14M224,344h2M225,337v14M225,345h2M226,338v15M226,354h2M227,347v14M227,339h2M228,331v15M228,361h0M228,354v14M228,361h2M229,354v14M229,350h2M230,342v15M230,359h2M231,352v14M231,361h2M232,354v14M232,354h2M233,347v15M233,353h2M234,346v15M234,364h2M235,357v14M235,371h2M236,364v14M236,365h2M237,358v15M237,357h2M238,350v15M238,372h2M239,365v14M239,361h2M240,354v14M240,365h2M241,358v14M241,361h2M242,354v14M242,351h2M243,344v15M243,357h2M244,350v14M244,365h2M245,358v15M245,375h2M246,368v14M246,358h2M247,350v15M247,364h2M248,357v14M248,364h2M249,356v15M249,367h2M250,360v15M250,365h2M251,357v15M251,386h2M252,379v14M252,382h0M252,375v14M252,362h2M253,355v14M253,380h2M254,373v14M254,369h2M255,362v14M255,375h2M256,368v14M256,391h2M257,384v13M257,372h2M258,365v14M258,388h2M259,381v14M259,382h2M260,375v14M260,366h2M261,359v14M261,387h2M262,380v13M262,380h2M263,374v13M263,392h2M264,386v13M264,388h2M265,382v13M265,386h2M266,379v14M266,385h2M267,379v13M267,390h2M268,383v13M268,385h2M269,378v14M269,381h2M270,374v14M270,377h2M271,370v14M271,382h2M272,375v14M272,395h2M273,388v13M273,389h2M274,382v14M274,386h2M275,379v14M275,412h2M276,405v13M276,389h0M276,382v13M276,393h2M277,386v13M277,396h2M278,389v13M278,387h2M279,380v14M279,406h2M280,399v13M280,389h2M281,383v13M281,390h2M282,384v13M282,389h2M283,383v13M283,397h2M284,391v13M284,399h2M285,393v13M285,401h2M286,394v14M286,394h2M287,387v14M287,393h2M288,387v13M288,404h2M289,397v13M289,404h2M290,397v13M290,395h2M291,388v14M291,401h2M292,394v13M292,397h2M293,390v14M293,409h2M294,403v13M294,417h2M295,411v13M295,405h2M296,398v13M296,406h2M297,399v13M297,410h2M298,403v13M298,411h2M299,404v13M299,406h2M300,399v13M300,406h0M300,399v14M300,423h2M301,417v13M301,414h2M302,408v13M302,419h2M303,413v13M303,403h2M304,396v13M304,403h2M305,396v14M305,413h2M306,406v13M306,419h2M307,413v13M307,416h2M308,410v13M308,422h2M309,416v12M309,417h2M310,411v13M310,433h2M311,427v12M311,428h2M312,421v13M312,422h2M313,415v13M313,426h2M314,420v12M314,428h2M315,422v13M315,422h2M316,415v13M316,413h2M317,406v13M317,426h2M318,420v12M318,418h2M319,412v13M319,415h2M320,409v13M320,425h2M321,419v12M321,425h2M322,419v12M322,418h2M323,412v12M323,415h2M324,409v13M324,420h0M324,414v13M324,424h2M325,418v12M325,438h2M326,432v12M326,423h2M327,417v12M327,437h2M328,431v12M328,426h2M329,420v12M329,427h2M330,421v12M330,445h2M331,439v12M331,437h2M332,431v12M332,419h2M333,413v12M333,435h2M334,429v12M334,439h2M335,433v12M335,433h2M336,426v13M336,423h2M337,416v13M337,433h2M338,427v12M338,434h2M339,428v13M339,435h2M340,428v13M340,440h2M341,434v12M341,445h2M342,439v12M342,435h2M343,429v12M343,438h2M344,432v12M344,453h2M345,447v12M345,429h2M346,423v13M346,433h2M347,427v12M347,440h2M348,434v12M348,443h0M348,437v12M348,436h2M349,430v12M349,446h2M350,440v12M350,447h2M351,441v12M351,436h2M352,430v12M352,452h2M353,446v12M353,445h2M354,438v13M354,436h2M355,430v12M355,439h2M356,433v12M356,445h2M357,439v12M357,436h2M358,430v12M358,448h2M359,442v12M359,445h2M360,439v12M360,455h2M361,449v11M361,451h2M362,445v12M362,454h2M363,448v12M363,450h2M364,444v12M364,466h2M365,460v11M365,457h2M366,451v11M366,459h2M367,453v11M367,453h2M368,447v12M368,456h2M369,450v12M369,450h2M370,445v11M370,463h2M371,457v12M371,452h2M372,446v12M372,454h0M372,448v12M372,453h2M373,447v12M373,458h2M374,452v12M374,458h2M375,453v11M375,469h2M376,463v12M376,458h2M377,452v12M377,455h2M378,449v12M378,453h2M379,447v11M379,474h2M380,468v11M380,462h2M381,456v12M381,467h2M382,461v12M382,463h2M383,457v11M383,471h2M384,465v11M384,460h2M385,454v12M385,464h2M386,459v11M386,460h2M387,454v12M387,452h2M388,446v12M388,458h2M389,453v11M389,465h2M390,459v11M390,459h2M391,454v11M391,457h2M392,451v12M392,474h2M393,469v11M393,470h2M394,464v11M394,472h2M395,467v11M395,472h2M396,466v11M396,471h0M396,466v11M396,476h2M397,471v11M397,469h2M398,463v11M398,471h2M399,465v11M399,470h2M400,465v11M400,477h2M401,471v11M401,475h2M402,470v11M402,470h2M403,464v11M403,468h2M404,462v11M404,480h2M405,475v11M405,483h2M406,477v11M406,470h2M407,465v11M407,472h2M408,466v12M408,469h2M409,464v11M409,476h2M410,470v11M410,472h2M411,467v11M411,474h2M412,469v11M412,477h2M413,471v11M413,481h2M414,475v11M414,485h2M415,480v10M415,483h2M416,478v11M416,490h2M417,485v10M417,482h2M418,477v11M418,479h2M419,474v11M419,479h2M420,474v11M420,484h0M420,478v11M420,479h2M421,474v11M421,488h2M422,483v11M422,477h2M423,471v11M423,474h2M424,468v11M424,481h2M425,476v11M425,488h2M426,482v11M426,490h2M427,485v11M427,490h2M428,484v11M428,474h2M429,468v11M429,483h2M430,478v11M430,485h2M431,479v11M431,494h2M432,488v11M432,495h2M433,490v10M433,487h2M434,481v11M434,483h2M435,477v11M435,491h2M436,486v10M436,489h2M437,484v10M437,476h2M438,470v11M438,498h2M439,493v10M439,490h2M440,485v11M440,492h2M441,487v10M441,490h2M442,485v10M442,500h2M443,495v10M443,489h2M444,484v10M444,499h0M444,494v11M444,492h2M445,487v10M445,502h2M446,497v10M446,494h2M447,489v10M447,495h2M448,489v11M448,498h2M449,492v11M449,501h2M450,496v11M450,504h2M451,499v10M451,495h2M452,490v10M452,490h2M453,485v11M453,497h2M454,492v10M454,498h2M455,493v10M455,494h2M456,488v11M456,512h2M457,507v10M457,503h2M458,498v10M458,500h2M459,495v10M459,491h2M460,486v10M460,498h2M461,493v10M461,496h2M462,491v10M462,497h2M463,492v10M463,501h2M464,496v10M464,502h2M465,497v10M465,499h2M466,494v10M466,503h2M467,498v10M467,505h2M468,500v10M468,506h0M468,501v10M468,500h2M469,495v10M469,496h2M470,491v10M470,515h2M471,510v10M471,507h2M472,502v10M472,494h2M473,489v10M473,505h2M474,500v10M474,502h2M475,497v10M475,508h2M476,503v10M476,501h2M477,496v11M477,513h2M478,508v10M478,507h2M479,502v10M479,512h2M480,507v10M480,511h2M481,506v10M481,512h2M482,507v10M482,502h2M483,497v10M483,509h2M484,504v9M484,519h2M485,514v9M485,515h2M486,510v9M486,510h2M487,506v9M487,510h2M488,505v10M488,506h2M489,501v10M489,511h2M490,506v10M490,520h2M491,516v9M491,514h2M492,509v10M492,513h0M492,508v10M492,513h2M493,509v9M493,518h2M494,513v10M494,513h2M495,508v10M495,516h2M496,511v9M496,508h2M497,503v10M497,516h2M498,511v10M498,517h2M499,512v10M499,521h2M500,516v9M500,514h2M501,509v10M501,518h2M502,513v10M502,514h2M503,509v9M503,510h2M504,506v9M504,506h2M505,501v10M505,526h2M506,521v9M506,520h2M507,515v9M507,522h2M508,517v9M508,518h2M509,513v10M509,513h2M510,508v10M510,521h2M511,517v9M511,525h2M512,521v9M512,525h2M513,520v9M513,519h2M514,514v9M514,534h2M515,529v9M515,518h2M516,513v10M516,528h0M516,524v9M516,523h2M517,519v9M517,524h2M518,519v9M518,532h2M519,528v9M519,524h2M520,520v9M520,521h2M521,516v10M521,521h2M522,517v9M522,525h2M523,520v10M523,528h2M524,523v9M524,525h2M525,520v10M525,524h2M526,519v9M526,528h2M527,524v9M527,525h2M528,520v9M528,525h2M529,520v9M529,529h2M530,525v9M530,531h2M531,527v9M531,531h2M532,527v9M532,524h2M533,520v9M533,527h2M534,522v9M534,523h2M535,519v9M535,527h2M536,522v10M536,530h2M537,525v9M537,529h2M538,524v9M538,532h2M539,527v9M539,529h2M540,524v9M540,531h0M540,526v9M540,529h2M541,524v9M541,535h2M542,530v9M542,529h2M543,524v10M543,539h2M544,534v9M544,533h2M545,528v9M545,530h2M546,525v9M546,531h2M547,526v9M547,537h2M548,533v9M548,531h2M549,527v9M549,536h2M550,532v9M550,531h2M551,527v9M551,531h2M552,526v9M552,539h2M553,535v8M553,535h2M554,531v8M554,538h2M555,534v8M555,530h2M556,525v9M556,536h2M557,532v8M557,532h2M558,528v9M558,545h2M559,541v8M559,547h2M560,542v9M560,531h2M561,526v9M561,537h2M562,533v9M562,528h2M563,524v9M563,540h2M564,535v9M564,537h0M564,532v9M564,543h2M565,539v8M565,540h2M566,536v8M566,540h2M567,536v8M567,537h2M568,532v9M568,538h2M569,533v9M569,542h2M570,538v8M570,536h2M571,532v9M571,546h2M572,542v8M572,542h2M573,538v9M573,540h2M574,535v9M574,543h2M575,538v9M575,534h2M576,530v9M576,551h2M577,547v8M577,544h2M578,540v9M578,544h2M579,539v9M579,547h2M580,542v9M580,546h2M581,542v8M581,544h2M582,540v8M582,547h2M583,542v9M583,545h2M584,540v9M584,547h2M585,543v8M585,549h2M586,544v9M586,545h2M587,540v9M587,547h2M588,543v8M588,548h0M588,544v8M588,545h2M589,541v9M589,545h2M590,540v9M590,541h2M591,537v9M591,552h2M592,548v8M592,549h2M593,545v8M593,553h2M594,549v8M594,550h2M595,546v8M595,544h2M596,540v8M596,549h2M597,545v8M597,551h2M598,547v8M598,553h2M599,549v8M599,544h2M600,540v8M600,548h2M601,544v8M601,549h2M602,545v8M602,550h2M603,546v8M603,544h2M604,540v9M604,551h2M605,547v8M605,550h2M606,545v9M606,552h2M607,548v9M607,549h2M608,545v8M608,553h2M609,549v8M609,551h2M610,547v8M610,544h2M611,540v8M611,554h2M612,550v8M612,549h0M612,545v8M612,549h2M613,544v9M613,554h2M614,550v8M614,548h2M615,544v9M615,551h2M616,547v8M616,551h2M617,547v8M617,552h2M618,548v8M618,555h2M619,552v7M619,560h2M620,556v7M620,553h2M621,549v8M621,558h2M622,554v8M622,553h2M623,549v8M623,550h2M624,546v9M624,552h2M625,548v8M625,549h2M626,545v8M626,559h2M627,555v8M627,551h2M628,547v8M628,551h2M629,547v8M629,554h2M630,550v8M630,563h2M631,559v7M631,563h2M632,560v7M632,552h2M633,548v9M633,558h2M634,554v7M634,560h2M635,557v7M635,561h2M636,557v8M636,556h0M636,552v8M636,553h2M637,549v8M637,560h2M638,556v7M638,557h2M639,553v8M639,557h2M640,553v8M640,565h2M641,561v7M641,554h2M642,550v8M642,555h2M643,552v7M643,552h2M644,548v9M644,560h2M645,557v7M645,555h2M646,551v8M646,553h2M647,549v8M647,560h2M648,557v7M648,563h2M649,559v7M649,559h2M650,555v8M650,552h2M651,548v9M651,561h2M652,557v8M652,566h2M653,562v7M653,552h2M654,548v8M654,569h2M655,565v7M655,566h2M656,562v7M656,559h2M657,555v8M657,568h2M658,564v7M658,569h2M659,566v7M659,565h2M660,562v7M660,560h0M660,556v8M660,560h2M661,556v8M661,564h2M662,560v8M662,563h2M663,559v8M663,559h2M664,555v8M664,562h2M665,559v7M665,563h2M666,560v7M666,566h2M667,563v7M667,566h2M668,563v7M668,566h2M669,563v7M669,561h2M670,558v7M670,566h2M671,562v7M671,561h2M672,557v8M672,567h2M673,563v8M673,569h2M674,565v7M674,564h2M675,560v7M675,563h2M676,560v7M676,562h2M677,558v8M677,566h2M678,563v7M678,568h2M679,564v8M679,571h2M680,567v7M680,566h2M681,562v8M681,568h2M682,564v7M682,564h2M683,560v8M683,560h2M684,556v8M684,566h0M684,562v7M684,568h2M685,564v8M685,570h2M686,567v7M686,569h2M687,565v8M687,565h2M688,561v8M688,564h2M689,561v7M689,568h2M690,565v7M690,566h2M691,562v8M691,567h2M692,564v7M692,573h2M693,569v7M693,563h2M694,559v8M694,566h2M695,562v8M695,572h2M696,568v8M696,563h2M697,560v7M697,571h2M698,567v8M698,569h2M699,565v8M699,565h2M700,561v7M700,567h2M701,564v7M701,567h2M702,563v8M702,564h2M703,560v8M703,564h2M704,560v8M704,561h2M705,557v8M705,566h2M706,562v8M706,559h2M707,555v8M707,564h2M708,561v7M708,562h0M708,559v7M708,572h2M709,568v8M709,563h2M710,560v7M710,553h2M711,549v8M711,563h2M712,559v7M712,552h2M713,548v8M713,558h2M714,555v7M714,558h2M715,554v8M715,552h2M716,548v8M716,547h2M717,543v8M717,551h2M718,547v8M718,556h2M719,552v8M719,553h2M720,549v8M720,544h2M721,540v8M721,541h2M722,537v8M722,545h2M723,541v9M723,537h2M724,533v9M724,545h2M725,541v8M725,542h2M726,538v9M726,542h2M727,538v8M727,536h2M728,532v9M728,543h2M729,539v8M729,522h2M730,517v10M730,524h2M731,520v9M731,525h2M732,520v9M732,528h0M732,523v9M732,523h2M733,519v9M733,522h2M734,517v10M734,517h2M735,512v9M735,518h2M736,513v10M736,519h2M737,514v10M737,504h2M738,499v10M738,514h2M739,509v10M739,510h2M740,505v10M740,506h2M741,501v10M741,497h2M742,492v10M742,504h2M743,499v10M743,500h2M744,495v10M744,500h2M745,495v10M745,495h2M746,490v11M746,502h2M747,497v10M747,494h2M748,489v10M748,502h2M749,497v10M749,488h2M750,483v11M750,487h2M751,482v10M751,487h2M752,482v10M752,480h2M753,474v11M753,490h2M754,484v11M754,483h2M755,477v11M755,472h2M756,466v11M756,482h0M756,476v11M756,464h2M757,458v12M757,463h2M758,458v11M758,463h2M759,458v11M759,465h2M760,459v12M760,464h2M761,458v12M761,470h2M762,464v12M762,473h2M763,468v11M763,480h2M764,474v11M764,474h2M765,468v11M765,467h2M766,462v11M766,466h2M767,460v11M767,473h2M768,468v11M768,463h2M769,457v11M769,457h2M770,451v12M770,465h2M771,459v12M771,461h2M772,455v11M772,480h2M773,474v11M773,471h2M774,465v11M774,470h2M775,465v11M775,470h2M776,464v11M776,474h2M777,468v11M777,471h2M778,465v11M778,469h2M779,464v11M779,474h2M780,469v11M780,490h0M780,484v11M780,483h2M781,478v10M781,487h2M782,482v11M782,484h2M783,479v11M783,484h2M784,479v11M784,496h2M785,491v10M785,484h2M786,478v11M786,496h2M787,490v11M787,496h2M788,491v10M788,499h2M789,494v10M789,499h2M790,494v10M790,506h2M791,501v10M791,507h2M792,502v10M792,508h2M793,503v10M793,516h2M794,511v9M794,512h2M795,507v10M795,513h2M796,508v10M796,524h2M797,519v9M797,508h2M798,503v10M798,528h2M799,524v9M799,530h2M800,525v9M800,530h2M801,525v9M801,534h2M802,530v9M802,527h2M803,523v9M803,539h2M804,534v9M804,542h0M804,537v9M804,541h2M805,537v9M805,547h2M806,543v8M806,549h2M807,545v8M807,545h2M808,541v8M808,547h2M809,543v8M809,548h2M810,544v8M810,557h2M811,553v8M811,564h2M812,560v8M812,555h2M813,551v8M813,562h2M814,559v7M814,564h2M815,560v8M815,563h2M816,559v8M816,566h2M817,562v8M817,569h2M818,565v7M818,567h2M819,563v8M819,570h2M820,566v7M820,568h2M821,564v8M821,577h2M822,573v7M822,569h2M823,565v8M823,576h2M824,572v7M824,580h2M825,577v6M825,581h2M826,578v6M826,583h2M827,579v7M827,582h2M828,579v7M828,585h0M828,582v6M828,585h2M829,581v7M829,586h2M830,583v6M830,586h2M831,583v7M831,585h2M832,582v7M832,583h2M833,579v7M833,590h2M834,587v6M834,589h2M835,586v6M835,593h2M836,590v6M836,589h2M837,586v6M837,594h2M838,591v6M838,585h2M839,581v7M839,592h2M840,589v6M840,593h2M841,590v6M841,588h2M842,585v7M842,595h2M843,592v6M843,594h2M844,591v6M844,592h2M845,589v6M845,598h2M846,596v5M846,594h2M847,591v6M847,595h2M848,592v6M848,599h2M849,597v5M849,595h2M850,592v6M850,596h2M851,593v6M851,598h2M852,595v6M852,597h0M852,595v5M852,602h2M853,599v5M853,605h2M854,602v6M854,599h2M855,596v5M855,597h2M856,594v5M856,598h2M857,595v6M857,601h2M858,598v5M858,602h2M859,600v5M859,603h2M860,600v5M860,600h2M861,598v5M861,598h2M862,595v6M862,602h2M863,599v5M863,598h2M864,596v5M864,597h2M865,594v6M865,601h2M866,599v5M866,596h2M867,593v6M867,605h2M868,602v5M868,601h2M869,599v5M869,597h2M870,594v6M870,601h2M871,598v6M871,599h2M872,596v6M872,596h2M873,593v6M873,599h2M874,596v6M874,600h2M875,597v6M875,598h2M876,596v5M876,600h0M876,598v5M876,600h2M877,598v5M877,599h2M878,596v5M878,596h2M879,594v5M879,601h2M880,599v5M880,607h2M881,605v5M881,601h2M882,598v6M882,600h2M883,597v6M883,603h2M884,600v5M884,602h2M885,599v6M885,606h2M886,603v5M886,599h2M887,596v6M887,605h2M888,602v6M888,601h2M889,598v6M889,602h2M890,599v5M890,604h2M891,602v5M891,601h2M892,598v5M892,607h2M893,605v5M893,607h2M894,604v5M894,603h2M895,601v5M895,601h2M896,599v5M896,604h2M897,602v5M897,607h2M898,604v5M898,606h2M899,604v5M899,604h2M900,601v5M900,600h0M900,597v5M900,603h2M901,600v6M901,606h2M902,604v5M902,605h2M903,602v6M903,605h2M904,603v5M904,606h2M905,604v5M905,605h2M906,602v5M906,606h2M907,603v5M907,609h2M908,607v4M908,607h2M909,604v5M909,606h2M910,603v5M910,604h2M911,601v6M911,607h2M912,605v5M912,610h2M913,608v4M913,604h2M914,601v5M914,607h2M915,605v5M915,605h2M916,602v5M916,609h2M917,607v4M917,607h2M918,604v5M918,608h2M919,606v5M919,609h2M920,607v5M920,605h2M921,602v5M921,610h2M922,608v5M922,605h2M923,602v6M923,609h2M924,607v4M924,604h0M924,601v5M924,609h2M925,607v4M925,607h2M926,604v5M926,608h2M927,605v5M927,606h2M928,604v5M928,608h2M929,606v4M929,606h2M930,604v5M930,608h2M931,606v5M931,613h2M932,611v5M932,612h2M933,609v5M933,610h2M934,608v5M934,611h2M935,608v5M935,612h2M936,610v4M936,604h2M937,602v5M937,608h2M938,605v5M938,607h2M939,605v5M939,611h2M940,608v5M940,609h2M941,607v5M941,609h2M942,607v4M942,611h2M943,609v4M943,610h2M944,608v5M944,608h2M945,606v4M945,606h2M946,603v5M946,606h2M947,604v5M947,612h2M948,609v5M948,613h0M948,611v4M948,603h2M949,601v5M949,612h2M950,609v5M950,613h2M951,611v5M951,609h2M952,607v4M952,611h2M953,609v4M953,609h2M954,606v5M954,611h2M955,609v4M955,610h2M956,608v5M956,609h2M957,606v5M957,606h2M958,604v5M958,610h2M959,608v5M959,606h2M960,604v5" style="stroke: #00009a; stroke-width: 1;"></path>
    </g>
    <g>
     <path d="M0,52.11C0.95,53.85,7.68,66.07,9.60,69.50S17.28,83.04,19.20,86.37S26.88,99.52,28.80,102.74S36.48,115.50,38.40,118.63S46.08,131.01,48,134.05S55.68,146.07,57.60,149.01S65.28,160.67,67.20,163.53S74.88,174.85,76.80,177.62S84.48,188.60,86.40,191.30S94.08,201.95,96,204.56S103.68,214.90,105.60,217.44S113.28,227.47,115.20,229.93S122.88,239.67,124.80,242.06S132.48,251.50,134.40,253.82S142.08,262.99,144,265.24S151.68,274.14,153.60,276.32S161.28,284.95,163.20,287.07S170.88,295.45,172.80,297.50S180.48,305.63,182.40,307.63S190.08,315.51,192,317.45S199.68,325.10,201.60,326.98S209.28,334.41,211.20,336.23S218.88,343.44,220.80,345.21S228.48,352.20,230.40,353.92S238.08,360.71,240,362.37S247.68,368.96,249.60,370.57S257.28,376.96,259.20,378.53S266.88,384.73,268.80,386.26S276.48,392.27,278.40,393.75S286.08,399.59,288,401.02S295.68,406.69,297.60,408.08S305.28,413.58,307.20,414.92S314.88,420.26,316.80,421.57S324.48,426.74,326.40,428.01S334.08,433.04,336,434.27S343.68,439.14,345.60,440.34S353.28,445.07,355.20,446.23S362.88,450.82,364.80,451.94S372.48,456.39,374.40,457.48S382.08,461.80,384,462.86S391.68,467.05,393.60,468.08S401.28,472.15,403.20,473.15S410.88,477.09,412.80,478.06S420.48,481.88,422.40,482.82S430.08,486.54,432,487.45S439.68,491.05,441.60,491.93S449.28,495.42,451.20,496.28S458.88,499.67,460.80,500.50S468.48,503.79,470.40,504.59S478.08,507.78,480,508.56S487.68,511.65,489.60,512.41S497.28,515.41,499.20,516.14S506.88,519.05,508.80,519.76S516.48,522.58,518.40,523.27S526.08,526.00,528,526.67S535.68,529.31,537.60,529.96S545.28,532.52,547.20,533.15S554.88,535.63,556.80,536.24S564.48,538.64,566.40,539.22S574.08,541.55,576,542.11S583.68,544.36,585.60,544.91S593.28,547.07,595.20,547.60S602.88,549.69,604.80,550.20S612.48,552.21,614.40,552.70S622.08,554.63,624,555.09S631.68,556.93,633.60,557.38S641.28,559.12,643.20,559.54S650.88,561.17,652.80,561.56S660.48,563.06,662.40,563.41S670.08,564.73,672,565.02S679.68,566.08,681.60,566.27S689.28,566.90,691.20,566.87S698.88,566.62,700.80,565.99S708.48,562.26,710.40,560.56S718.08,551.84,720,548.93S727.68,535.39,729.60,531.48S737.28,514.18,739.20,509.86S746.88,492.00,748.80,488.27S756.48,474.58,758.40,472.53S766.08,467.41,768,467.76S775.68,473.25,777.60,475.98S785.28,490.71,787.20,495.10S794.88,514.99,796.80,519.95S804.48,540.20,806.40,544.73S814.08,561.77,816,565.30S823.68,577.63,825.60,580.04S833.28,587.95,835.20,589.44S842.88,594.11,844.80,594.98S852.48,597.67,854.40,598.19S862.08,599.86,864,600.20S871.68,601.39,873.60,601.66S881.28,602.65,883.20,602.88S890.88,603.79,892.80,604.01S900.48,604.87,902.40,605.08S910.08,605.91,912,606.11S919.68,606.92,921.60,607.12S929.28,607.90,931.20,608.09S938.88,608.85,940.80,609.03S948.48,609.77,950.40,609.95S959.04,610.75,960,610.84" style="fill: none; stroke: red; stroke-width: 2;"></path>
    </g>
   </svg>
   <g>
    <g transform="translate(0,640)">
     <path d="M0,0h960M0,-24V0M19,-12V0M38,-12V0M58,-12V0M77,-12V0M96,-24V0M115,-12V0M134,-12V0M154,-12V0M173,-12V0M192,-24V0M211,-12V0M230,-12V0M250,-12V0M269,-12V0M288,-24V0M307,-12V0M326,-12V0M346,-12V0M365,-12V0M384,-24V0M403,-12V0M422,-12V0M442,-12V0M461,-12V0M480,-24V0M499,-12V0M518,-12V0M538,-12V0M557,-12V0M576,-24V0M595,-12V0M614,-12V0M634,-12V0M653,-12V0M672,-24V0M691,-12V0M710,-12V0M730,-12V0M749,-12V0M768,-24V0M787,-12V0M806,-12V0M826,-12V0M845,-12V0M864,-24V0M883,-12V0M902,-12V0M922,-12V0M941,-12V0M960,-24V0" style="stroke: black; stroke-width: 1;"></path>
     <g font-family="Arial" font-size="28" space="preserve" fill="black" text-anchor="middle">
      <text dy=".8em" transform="translate(0,6)">
       -5
      </text>
      <text dy=".8em" transform="translate(96,6)">
       -4
      </text>
      <text dy=".8em" transform="translate(192,6)">
       -3
      </text>
      <text dy=".8em" transform="translate(288,6)">
       -2
      </text>
      <text dy=".8em" transform="translate(384,6)">
       -1
      </text>
      <text dy=".8em" transform="translate(480,6)">
       0
      </text>
      <text dy=".8em" transform="translate(576,6)">
       1
      </text>
      <text dy=".8em" transform="translate(672,6)">
       2
      </text>
      <text dy=".8em" transform="translate(768,6)">
       3
      </text>
      <text dy=".8em" transform="translate(864,6)">
       4
      </text>
      <text dy=".8em" transform="translate(960,6)">
       5
      </text>
     </g>
    </g>
    <g>
     <path d="M0,0v640M36,640H0M18,621H0M18,603H0M18,584H0M18,566H0M36,547H0M18,528H0M18,510H0M18,491H0M18,472H0M36,454H0M18,435H0M18,417H0M18,398H0M18,379H0M36,361H0M18,342H0M18,323H0M18,305H0M18,286H0M36,268H0M18,249H0M18,230H0M18,212H0M18,193H0M36,175H0M18,156H0M18,137H0M18,119H0M18,100H0M36,81H0M18,63H0M18,44H0M18,26H0M18,7H0" style="stroke: black; stroke-width: 1;"></path>
     <g font-family="Arial" font-size="28" space="preserve">
      <text fill="black" text-anchor="end" dy=".4em" transform="translate(-4,640)">
       0
      </text>
      <text fill="black" text-anchor="end" dy=".4em" transform="translate(-4,547)">
       50
      </text>
      <text fill="black" text-anchor="end" dy=".4em" transform="translate(-4,454)">
       100
      </text>
      <text fill="black" text-anchor="end" dy=".4em" transform="translate(-4,361)">
       150
      </text>
      <text fill="black" text-anchor="end" dy=".4em" transform="translate(-4,268)">
       200
      </text>
      <text fill="black" text-anchor="end" dy=".4em" transform="translate(-4,175)">
       250
      </text>
      <text fill="black" text-anchor="end" dy=".4em" transform="translate(-4,81)">
       300
      </text>
      <g transform="translate(5,-10)">
       <text fill="black" font-size="28">
        ×10
       </text>
       <text fill="black" font-size="17" transform="translate(46,-14)">
        3
       </text>
      </g>
     </g>
    </g>
   </g>
   <g>
    <g font-family="Arial" font-size="29" space="preserve" font-weight="bold">
     <g transform="translate(240,81)">
      <text fill="black" font-size="29">
       NSignal =    50083 ± 1236
      </text>
     </g>
    </g>
    <g font-family="Arial" font-size="29" space="preserve" font-weight="bold">
     <g transform="translate(240,137)">
      <text fill="black" font-size="29">
       Nbackgr =   998896 ± 1574
      </text>
     </g>
    </g>
   </g>
  </g>
  <g transform="translate(936,52)" font-family="Arial" font-size="22" space="preserve" fill="black">
   <path d="M0,0H240V128H0Z" style="fill: white; stroke: black; stroke-width: 1;"></path>
   <text text-anchor="middle" dy=".4em" transform="translate(120,16)">
    h_ExpCB
   </text>
   <text text-anchor="start" dy=".4em" transform="translate(12,48)">
    Entries
   </text>
   <text text-anchor="end" dy=".4em" transform="translate(228,48)">
    1050000
   </text>
   <text text-anchor="start" dy=".4em" transform="translate(12,80)">
    Mean
   </text>
   <text text-anchor="end" dy=".4em" transform="translate(228,80)">
    -1.949
   </text>
   <text text-anchor="start" dy=".4em" transform="translate(12,112)">
    Std Dev
   </text>
   <text text-anchor="end" dy=".4em" transform="translate(228,112)">
    2.555
   </text>
   <path d="M0,32h240" style="stroke: black; stroke-width: 1;"></path>
  </g>
  <g transform="translate(180,4)" font-family="Arial" font-size="36" space="preserve">
   <text fill="black" text-anchor="middle" dy=".4em" transform="translate(420,22)">
    Exponential Bkg + CrystalBall function
   </text>
  </g>
 </g>
</svg>