<svg xmlns="http://www.w3.org/2000/svg" viewBox="0 0 1200 800" preserveAspectRatio="none" width="1200" height="800">
 <path d="M0,0H1200V800H0Z" style="fill: white;"></path>
 <g>
  <g transform="translate(120,80)">
   <path d="M0,0H960V640H0Z" style="fill: white; stroke: black; stroke-width: 1;"></path>
   <svg x="0" y="0" overflow="hidden" width="960" height="640" viewBox="0 0 960 640">
    <g>
     <g transform="translate(173,529)">
      <path style="stroke: black; stroke-width: 1; fill: none;" d="M0,0V3m3,0h-6M0,0V-3m3,0h-6"></path>
     </g>
     <g transform="translate(250,542)">
      <path style="stroke: black; stroke-width: 1; fill: none;" d="M0,0V3m3,0h-6M0,0V-3m3,0h-6"></path>
     </g>
     <g transform="translate(696,445)">
      <path style="stroke: black; stroke-width: 1; fill: none;" d="M0,0V3m3,0h-6M0,0V-3m3,0h-6"></path>
     </g>
     <g transform="translate(548,571)">
      <path style="stroke: black; stroke-width: 1; fill: none;" d="M0,0V3m3,0h-6M0,0V-3m3,0h-6"></path>
     </g>
     <g transform="translate(880,57)">
      <path style="stroke: black; stroke-width: 1; fill: none;" d="M0,0V3m3,0h-6M0,0V-3m3,0h-6"></path>
     </g>
     <g transform="translate(80,552)">
      <path style="stroke: black; stroke-width: 1; fill: none;" d="M0,0V3m3,0h-6M0,0V-3m3,0h-6"></path>
     </g>
     <g transform="translate(371,568)">
      <path style="stroke: black; stroke-width: 1; fill: none;" d="M0,0V3m3,0h-6M0,0V-3m3,0h-6"></path>
     </g>
     <g transform="translate(88,549)">
      <path style="stroke: black; stroke-width: 1; fill: none;" d="M0,0V3m3,0h-6M0,0V-3m3,0h-6"></path>
     </g>
     <g transform="translate(481,573)">
      <path style="stroke: black; stroke-width: 1; fill: none;" d="M0,0V3m3,0h-6M0,0V-3m3,0h-6"></path>
     </g>
     <g transform="translate(325,551)">
      <path style="stroke: black; stroke-width: 1; fill: none;" d="M0,0V3m3,0h-6M0,0V-3m3,0h-6"></path>
     </g>
     <g transform="translate(245,542)">
      <path style="stroke: black; stroke-width: 1; fill: none;" d="M0,0V3m3,0h-6M0,0V-3m3,0h-6"></path>
     </g>
     <g transform="translate(146,533)">
      <path style="stroke: black; stroke-width: 1; fill: none;" d="M0,0V3m3,0h-6M0,0V-3m3,0h-6"></path>
     </g>
     <g transform="translate(698,444)">
      <path style="stroke: black; stroke-width: 1; fill: none;" d="M0,0V3m3,0h-6M0,0V-3m3,0h-6"></path>
     </g>
     <g transform="translate(760,350)">
      <path style="stroke: black; stroke-width: 1; fill: none;" d="M0,0V3m3,0h-6M0,0V-3m3,0h-6"></path>
     </g>
     <g transform="translate(440,571)">
      <path style="stroke: black; stroke-width: 1; fill: none;" d="M0,0V3m3,0h-6M0,0V-3m3,0h-6"></path>
     </g>
     <g transform="translate(620,527)">
      <path style="stroke: black; stroke-width: 1; fill: none;" d="M0,0V3m3,0h-6M0,0V-3m3,0h-6"></path>
     </g>
     <g transform="translate(431,574)">
      <path style="stroke: black; stroke-width: 1; fill: none;" d="M0,0V3m3,0h-6M0,0V-3m3,0h-6"></path>
     </g>
     <g transform="translate(830,194)">
      <path style="stroke: black; stroke-width: 1; fill: none;" d="M0,0V3m3,0h-6M0,0V-3m3,0h-6"></path>
     </g>
     <g transform="translate(465,583)">
      <path style="stroke: black; stroke-width: 1; fill: none;" d="M0,0V3m3,0h-6M0,0V-3m3,0h-6"></path>
     </g>
     <g transform="translate(89,547)">
      <path style="stroke: black; stroke-width: 1; fill: none;" d="M0,0V3m3,0h-6M0,0V-3m3,0h-6"></path>
     </g>
     <g transform="translate(655,490)">
      <path style="stroke: black; stroke-width: 1; fill: none;" d="M0,0V3m3,0h-6M0,0V-3m3,0h-6"></path>
     </g>
     <g transform="translate(360,555)">
      <path style="stroke: black; stroke-width: 1; fill: none;" d="M0,0V3m3,0h-6M0,0V-3m3,0h-6"></path>
     </g>
     <g transform="translate(115,544)">
      <path style="stroke: black; stroke-width: 1; fill: none;" d="M0,0V3m3,0h-6M0,0V-3m3,0h-6"></path>
     </g>
     <g transform="translate(223,534)">
      <path style="stroke: black; stroke-width: 1; fill: none;" d="M0,0V3m3,0h-6M0,0V-3m3,0h-6"></path>
     </g>
     <g transform="translate(241,538)">
      <path style="stroke: black; stroke-width: 1; fill: none;" d="M0,0V3m3,0h-6M0,0V-3m3,0h-6"></path>
     </g>
     <g transform="translate(834,183)">
      <path style="stroke: black; stroke-width: 1; fill: none;" d="M0,0V3m3,0h-6M0,0V-3m3,0h-6"></path>
     </g>
     <g transform="translate(431,570)">
      <path style="stroke: black; stroke-width: 1; fill: none;" d="M0,0V3m3,0h-6M0,0V-3m3,0h-6"></path>
     </g>
     <g transform="translate(746,373)">
      <path style="stroke: black; stroke-width: 1; fill: none;" d="M0,0V3m3,0h-6M0,0V-3m3,0h-6"></path>
     </g>
     <g transform="translate(329,557)">
      <path style="stroke: black; stroke-width: 1; fill: none;" d="M0,0V3m3,0h-6M0,0V-3m3,0h-6"></path>
     </g>
     <g transform="translate(360,563)">
      <path style="stroke: black; stroke-width: 1; fill: none;" d="M0,0V3m3,0h-6M0,0V-3m3,0h-6"></path>
     </g>
     <g transform="translate(567,557)">
      <path style="stroke: black; stroke-width: 1; fill: none;" d="M0,0V3m3,0h-6M0,0V-3m3,0h-6"></path>
     </g>
     <g transform="translate(748,375)">
      <path style="stroke: black; stroke-width: 1; fill: none;" d="M0,0V3m3,0h-6M0,0V-3m3,0h-6"></path>
     </g>
     <g transform="translate(820,225)">
      <path style="stroke: black; stroke-width: 1; fill: none;" d="M0,0V3m3,0h-6M0,0V-3m3,0h-6"></path>
     </g>
     <g transform="translate(635,510)">
      <path style="stroke: black; stroke-width: 1; fill: none;" d="M0,0V3m3,0h-6M0,0V-3m3,0h-6"></path>
     </g>
     <g transform="translate(376,567)">
      <path style="stroke: black; stroke-width: 1; fill: none;" d="M0,0V3m3,0h-6M0,0V-3m3,0h-6"></path>
     </g>
     <g transform="translate(803,259)">
      <path style="stroke: black; stroke-width: 1; fill: none;" d="M0,0V3m3,0h-6M0,0V-3m3,0h-6"></path>
     </g>
     <g transform="translate(673,475)">
      <path style="stroke: black; stroke-width: 1; fill: none;" d="M0,0V3m3,0h-6M0,0V-3m3,0h-6"></path>
     </g>
     <g transform="translate(301,551)">
      <path style="stroke: black; stroke-width: 1; fill: none;" d="M0,0V3m3,0h-6M0,0V-3m3,0h-6"></path>
     </g>
     <g transform="translate(520,574)">
      <path style="stroke: black; stroke-width: 1; fill: none;" d="M0,0V3m3,0h-6M0,0V-3m3,0h-6"></path>
     </g>
     <g transform="translate(525,571)">
      <path style="stroke: black; stroke-width: 1; fill: none;" d="M0,0V3m3,0h-6M0,0V-3m3,0h-6"></path>
     </g>
     <path d="M169,525l8,8m0,-8l-8,8m0,-4h8m-4,-4v8M246,538l8,8m0,-8l-8,8m0,-4h8m-4,-4v8M692,441l8,8m0,-8l-8,8m0,-4h8m-4,-4v8M544,567l8,8m0,-8l-8,8m0,-4h8m-4,-4v8M876,53l8,8m0,-8l-8,8m0,-4h8m-4,-4v8M76,548l8,8m0,-8l-8,8m0,-4h8m-4,-4v8M367,564l8,8m0,-8l-8,8m0,-4h8m-4,-4v8M84,545l8,8m0,-8l-8,8m0,-4h8m-4,-4v8M477,569l8,8m0,-8l-8,8m0,-4h8m-4,-4v8M321,547l8,8m0,-8l-8,8m0,-4h8m-4,-4v8M241,538l8,8m0,-8l-8,8m0,-4h8m-4,-4v8M142,529l8,8m0,-8l-8,8m0,-4h8m-4,-4v8M694,440l8,8m0,-8l-8,8m0,-4h8m-4,-4v8M756,346l8,8m0,-8l-8,8m0,-4h8m-4,-4v8M436,567l8,8m0,-8l-8,8m0,-4h8m-4,-4v8M616,523l8,8m0,-8l-8,8m0,-4h8m-4,-4v8M427,570l8,8m0,-8l-8,8m0,-4h8m-4,-4v8M826,190l8,8m0,-8l-8,8m0,-4h8m-4,-4v8M461,579l8,8m0,-8l-8,8m0,-4h8m-4,-4v8M85,543l8,8m0,-8l-8,8m0,-4h8m-4,-4v8M651,486l8,8m0,-8l-8,8m0,-4h8m-4,-4v8M356,551l8,8m0,-8l-8,8m0,-4h8m-4,-4v8M111,540l8,8m0,-8l-8,8m0,-4h8m-4,-4v8M219,530l8,8m0,-8l-8,8m0,-4h8m-4,-4v8M237,534l8,8m0,-8l-8,8m0,-4h8m-4,-4v8M830,179l8,8m0,-8l-8,8m0,-4h8m-4,-4v8M427,566l8,8m0,-8l-8,8m0,-4h8m-4,-4v8M742,369l8,8m0,-8l-8,8m0,-4h8m-4,-4v8M325,553l8,8m0,-8l-8,8m0,-4h8m-4,-4v8M356,559l8,8m0,-8l-8,8m0,-4h8m-4,-4v8M563,553l8,8m0,-8l-8,8m0,-4h8m-4,-4v8M744,371l8,8m0,-8l-8,8m0,-4h8m-4,-4v8M816,221l8,8m0,-8l-8,8m0,-4h8m-4,-4v8M631,506l8,8m0,-8l-8,8m0,-4h8m-4,-4v8M372,563l8,8m0,-8l-8,8m0,-4h8m-4,-4v8M799,255l8,8m0,-8l-8,8m0,-4h8m-4,-4v8M669,471l8,8m0,-8l-8,8m0,-4h8m-4,-4v8M297,547l8,8m0,-8l-8,8m0,-4h8m-4,-4v8M516,570l8,8m0,-8l-8,8m0,-4h8m-4,-4v8M521,567l8,8m0,-8l-8,8m0,-4h8m-4,-4v8" style="stroke: black; fill: none;"></path>
    </g>
    <g>
     <path d="M5,598.18C6.87,596.56,10.7,593.31,14.5,590.26S20.2,585.76,24,582.96S29.7,578.82,33.5,576.24S39.1,572.45,43,570.1S49.1,566.64,53,564.5S58.7,561.36,62.5,559.44S68.2,556.61,72,554.89S77.7,552.37,81.5,550.84S87.1,548.6,91,547.26S97.1,545.3,101,544.14S106.7,542.44,110.5,541.45S116.2,540.01,120,539.18S125.7,537.98,129.5,537.31S135.1,536.34,139,535.82S145.1,535.07,149,534.69S154.7,534.15,158.5,533.9S164.2,533.57,168,533.44S173.7,533.29,177.5,533.28S183.1,533.3,187,533.41S193.1,533.59,197,533.8S202.7,534.13,206.5,534.43S212.2,534.91,216,535.3S221.7,535.91,225.5,536.37S231.1,537.1,235,537.64S241.1,538.47,245,539.07S250.7,540,254.5,540.66S260.2,541.67,264,542.38S269.7,543.46,273.5,544.22S279.1,545.36,283,546.14S289.1,547.34,293,548.15S298.7,549.38,302.5,550.21S308.2,551.47,312,552.31S317.7,553.58,321.5,554.43S327.1,555.7,331,556.54S337.1,557.81,341,558.64S346.7,559.89,350.5,560.7S356.2,561.92,360,562.71S365.7,563.88,369.5,564.63S375.1,565.75,379,566.46S385.1,567.52,389,568.18S394.7,569.16,398.5,569.77S404.2,570.66,408,571.2S413.7,571.99,417.5,572.46S423.1,573.14,427,573.53S433.1,574.09,437,574.39S442.7,574.82,446.5,575.02S452.2,575.3,456,575.4S461.7,575.53,465.5,575.52S471.1,575.48,475,575.36S481.1,575.14,485,574.89S490.7,574.48,494.5,574.09S500.2,573.48,504,572.95S509.7,572.13,513.5,571.46S519.1,570.41,523,569.58S529.1,568.29,533,567.3S538.7,565.77,542.5,564.6S548.2,562.81,552,561.47S557.7,559.41,561.5,557.88S567.1,555.54,571,553.81S577.1,551.18,581,549.25S586.7,546.31,590.5,544.18S596.2,540.92,600,538.57S605.7,534.99,609.5,532.41S615.1,528.49,619,525.69S625.1,521.42,629,518.37S634.7,513.74,638.5,510.44S644.2,505.44,648,501.89S653.7,496.5,657.5,492.69S663.1,486.9,667,482.82S673.1,476.63,677,472.27S682.7,465.66,686.5,461.02S692.2,453.98,696,449.04S701.7,441.56,705.5,436.32S711.1,428.39,715,422.84S721.1,414.45,725,408.58S730.7,399.71,734.5,393.53S740.2,384.17,744,377.65S749.7,367.8,753.5,360.94S759.1,350.57,763,343.37S769.1,332.49,773,324.93S778.7,313.51,782.5,305.59S788.2,293.63,792,285.35S797.7,272.83,801.5,264.17S807.1,251.08,811,242.04S817.1,228.37,821,218.94S826.7,204.68,830.5,194.85S836.2,179.99,840,169.75S845.7,154.29,849.5,143.63S855.1,127.54,859,116.46S865.1,99.73,869,88.22S874.7,70.85,878.5,58.91S884.2,40.88,888,28.49S893.7,9.79,897.5,-3.06S903.1,-22.43,907,-35.74S913.1,-55.81,917,-69.58S922.7,-90.36,926.5,-104.6S932.2,-126.09,936,-140.82S941.7,-163.04,945.5,-178.26S953.13,-209.19,955,-216.93" style="fill: none; stroke: red; stroke-width: 1;"></path>
    </g>
    <g>
     <g transform="translate(173,380)">
      <path style="stroke: #0000ff; stroke-width: 1; fill: none;" d="M0,0V3m3,0h-6M0,0V-3m3,0h-6"></path>
     </g>
     <g transform="translate(250,400)">
      <path style="stroke: #0000ff; stroke-width: 1; fill: none;" d="M0,0V3m3,0h-6M0,0V-3m3,0h-6"></path>
     </g>
     <g transform="translate(696,281)">
      <path style="stroke: #0000ff; stroke-width: 1; fill: none;" d="M0,0V3m3,0h-6M0,0V-3m3,0h-6"></path>
     </g>
     <g transform="translate(548,314)">
      <path style="stroke: #0000ff; stroke-width: 1; fill: none;" d="M0,0V3m3,0h-6M0,0V-3m3,0h-6"></path>
     </g>
     <g transform="translate(880,333)">
      <path style="stroke: #0000ff; stroke-width: 1; fill: none;" d="M0,0V3m3,0h-6M0,0V-3m3,0h-6"></path>
     </g>
     <g transform="translate(80,355)">
      <path style="stroke: #0000ff; stroke-width: 1; fill: none;" d="M0,0V3m3,0h-6M0,0V-3m3,0h-6"></path>
     </g>
     <g transform="translate(371,385)">
      <path style="stroke: #0000ff; stroke-width: 1; fill: none;" d="M0,0V3m3,0h-6M0,0V-3m3,0h-6"></path>
     </g>
     <g transform="translate(88,358)">
      <path style="stroke: #0000ff; stroke-width: 1; fill: none;" d="M0,0V3m3,0h-6M0,0V-3m3,0h-6"></path>
     </g>
     <g transform="translate(481,333)">
      <path style="stroke: #0000ff; stroke-width: 1; fill: none;" d="M0,0V3m3,0h-6M0,0V-3m3,0h-6"></path>
     </g>
     <g transform="translate(325,390)">
      <path style="stroke: #0000ff; stroke-width: 1; fill: none;" d="M0,0V3m3,0h-6M0,0V-3m3,0h-6"></path>
     </g>
     <g transform="translate(245,401)">
      <path style="stroke: #0000ff; stroke-width: 1; fill: none;" d="M0,0V3m3,0h-6M0,0V-3m3,0h-6"></path>
     </g>
     <g transform="translate(146,375)">
      <path style="stroke: #0000ff; stroke-width: 1; fill: none;" d="M0,0V3m3,0h-6M0,0V-3m3,0h-6"></path>
     </g>
     <g transform="translate(698,283)">
      <path style="stroke: #0000ff; stroke-width: 1; fill: none;" d="M0,0V3m3,0h-6M0,0V-3m3,0h-6"></path>
     </g>
     <g transform="translate(760,297)">
      <path style="stroke: #0000ff; stroke-width: 1; fill: none;" d="M0,0V3m3,0h-6M0,0V-3m3,0h-6"></path>
     </g>
     <g transform="translate(440,350)">
      <path style="stroke: #0000ff; stroke-width: 1; fill: none;" d="M0,0V3m3,0h-6M0,0V-3m3,0h-6"></path>
     </g>
     <g transform="translate(620,288)">
      <path style="stroke: #0000ff; stroke-width: 1; fill: none;" d="M0,0V3m3,0h-6M0,0V-3m3,0h-6"></path>
     </g>
     <g transform="translate(431,358)">
      <path style="stroke: #0000ff; stroke-width: 1; fill: none;" d="M0,0V3m3,0h-6M0,0V-3m3,0h-6"></path>
     </g>
     <g transform="translate(830,315)">
      <path style="stroke: #0000ff; stroke-width: 1; fill: none;" d="M0,0V3m3,0h-6M0,0V-3m3,0h-6"></path>
     </g>
     <g transform="translate(465,350)">
      <path style="stroke: #0000ff; stroke-width: 1; fill: none;" d="M0,0V3m3,0h-6M0,0V-3m3,0h-6"></path>
     </g>
     <g transform="translate(89,356)">
      <path style="stroke: #0000ff; stroke-width: 1; fill: none;" d="M0,0V3m3,0h-6M0,0V-3m3,0h-6"></path>
     </g>
     <g transform="translate(655,278)">
      <path style="stroke: #0000ff; stroke-width: 1; fill: none;" d="M0,0V3m3,0h-6M0,0V-3m3,0h-6"></path>
     </g>
     <g transform="translate(360,378)">
      <path style="stroke: #0000ff; stroke-width: 1; fill: none;" d="M0,0V3m3,0h-6M0,0V-3m3,0h-6"></path>
     </g>
     <g transform="translate(115,370)">
      <path style="stroke: #0000ff; stroke-width: 1; fill: none;" d="M0,0V3m3,0h-6M0,0V-3m3,0h-6"></path>
     </g>
     <g transform="translate(223,394)">
      <path style="stroke: #0000ff; stroke-width: 1; fill: none;" d="M0,0V3m3,0h-6M0,0V-3m3,0h-6"></path>
     </g>
     <g transform="translate(241,397)">
      <path style="stroke: #0000ff; stroke-width: 1; fill: none;" d="M0,0V3m3,0h-6M0,0V-3m3,0h-6"></path>
     </g>
     <g transform="translate(834,316)">
      <path style="stroke: #0000ff; stroke-width: 1; fill: none;" d="M0,0V3m3,0h-6M0,0V-3m3,0h-6"></path>
     </g>
     <g transform="translate(431,354)">
      <path style="stroke: #0000ff; stroke-width: 1; fill: none;" d="M0,0V3m3,0h-6M0,0V-3m3,0h-6"></path>
     </g>
     <g transform="translate(746,291)">
      <path style="stroke: #0000ff; stroke-width: 1; fill: none;" d="M0,0V3m3,0h-6M0,0V-3m3,0h-6"></path>
     </g>
     <g transform="translate(329,394)">
      <path style="stroke: #0000ff; stroke-width: 1; fill: none;" d="M0,0V3m3,0h-6M0,0V-3m3,0h-6"></path>
     </g>
     <g transform="translate(360,386)">
      <path style="stroke: #0000ff; stroke-width: 1; fill: none;" d="M0,0V3m3,0h-6M0,0V-3m3,0h-6"></path>
     </g>
     <g transform="translate(567,301)">
      <path style="stroke: #0000ff; stroke-width: 1; fill: none;" d="M0,0V3m3,0h-6M0,0V-3m3,0h-6"></path>
     </g>
     <g transform="translate(748,297)">
      <path style="stroke: #0000ff; stroke-width: 1; fill: none;" d="M0,0V3m3,0h-6M0,0V-3m3,0h-6"></path>
     </g>
     <g transform="translate(820,316)">
      <path style="stroke: #0000ff; stroke-width: 1; fill: none;" d="M0,0V3m3,0h-6M0,0V-3m3,0h-6"></path>
     </g>
     <g transform="translate(635,282)">
      <path style="stroke: #0000ff; stroke-width: 1; fill: none;" d="M0,0V3m3,0h-6M0,0V-3m3,0h-6"></path>
     </g>
     <g transform="translate(376,382)">
      <path style="stroke: #0000ff; stroke-width: 1; fill: none;" d="M0,0V3m3,0h-6M0,0V-3m3,0h-6"></path>
     </g>
     <g transform="translate(803,307)">
      <path style="stroke: #0000ff; stroke-width: 1; fill: none;" d="M0,0V3m3,0h-6M0,0V-3m3,0h-6"></path>
     </g>
     <g transform="translate(673,281)">
      <path style="stroke: #0000ff; stroke-width: 1; fill: none;" d="M0,0V3m3,0h-6M0,0V-3m3,0h-6"></path>
     </g>
     <g transform="translate(301,399)">
      <path style="stroke: #0000ff; stroke-width: 1; fill: none;" d="M0,0V3m3,0h-6M0,0V-3m3,0h-6"></path>
     </g>
     <g transform="translate(520,321)">
      <path style="stroke: #0000ff; stroke-width: 1; fill: none;" d="M0,0V3m3,0h-6M0,0V-3m3,0h-6"></path>
     </g>
     <g transform="translate(525,316)">
      <path style="stroke: #0000ff; stroke-width: 1; fill: none;" d="M0,0V3m3,0h-6M0,0V-3m3,0h-6"></path>
     </g>
     <path d="M169,376l8,8m0,-8l-8,8m0,-4h8m-4,-4v8M246,396l8,8m0,-8l-8,8m0,-4h8m-4,-4v8M692,277l8,8m0,-8l-8,8m0,-4h8m-4,-4v8M544,310l8,8m0,-8l-8,8m0,-4h8m-4,-4v8M876,329l8,8m0,-8l-8,8m0,-4h8m-4,-4v8M76,351l8,8m0,-8l-8,8m0,-4h8m-4,-4v8M367,381l8,8m0,-8l-8,8m0,-4h8m-4,-4v8M84,354l8,8m0,-8l-8,8m0,-4h8m-4,-4v8M477,329l8,8m0,-8l-8,8m0,-4h8m-4,-4v8M321,386l8,8m0,-8l-8,8m0,-4h8m-4,-4v8M241,397l8,8m0,-8l-8,8m0,-4h8m-4,-4v8M142,371l8,8m0,-8l-8,8m0,-4h8m-4,-4v8M694,279l8,8m0,-8l-8,8m0,-4h8m-4,-4v8M756,293l8,8m0,-8l-8,8m0,-4h8m-4,-4v8M436,346l8,8m0,-8l-8,8m0,-4h8m-4,-4v8M616,284l8,8m0,-8l-8,8m0,-4h8m-4,-4v8M427,354l8,8m0,-8l-8,8m0,-4h8m-4,-4v8M826,311l8,8m0,-8l-8,8m0,-4h8m-4,-4v8M461,346l8,8m0,-8l-8,8m0,-4h8m-4,-4v8M85,352l8,8m0,-8l-8,8m0,-4h8m-4,-4v8M651,274l8,8m0,-8l-8,8m0,-4h8m-4,-4v8M356,374l8,8m0,-8l-8,8m0,-4h8m-4,-4v8M111,366l8,8m0,-8l-8,8m0,-4h8m-4,-4v8M219,390l8,8m0,-8l-8,8m0,-4h8m-4,-4v8M237,393l8,8m0,-8l-8,8m0,-4h8m-4,-4v8M830,312l8,8m0,-8l-8,8m0,-4h8m-4,-4v8M427,350l8,8m0,-8l-8,8m0,-4h8m-4,-4v8M742,287l8,8m0,-8l-8,8m0,-4h8m-4,-4v8M325,390l8,8m0,-8l-8,8m0,-4h8m-4,-4v8M356,382l8,8m0,-8l-8,8m0,-4h8m-4,-4v8M563,297l8,8m0,-8l-8,8m0,-4h8m-4,-4v8M744,293l8,8m0,-8l-8,8m0,-4h8m-4,-4v8M816,312l8,8m0,-8l-8,8m0,-4h8m-4,-4v8M631,278l8,8m0,-8l-8,8m0,-4h8m-4,-4v8M372,378l8,8m0,-8l-8,8m0,-4h8m-4,-4v8M799,303l8,8m0,-8l-8,8m0,-4h8m-4,-4v8M669,277l8,8m0,-8l-8,8m0,-4h8m-4,-4v8M297,395l8,8m0,-8l-8,8m0,-4h8m-4,-4v8M516,317l8,8m0,-8l-8,8m0,-4h8m-4,-4v8M521,312l8,8m0,-8l-8,8m0,-4h8m-4,-4v8" style="stroke: #0000ff; fill: none;"></path>
    </g>
    <g>
     <path d="M5,336.62C6.9,337,10.7,337.78,14.5,338.62S20.2,339.9,24,340.81S29.7,342.2,33.5,343.18S39.1,344.66,43,345.7S49.1,347.27,53,348.37S58.7,350.02,62.5,351.15S68.2,352.87,72,354.05S77.7,355.82,81.5,357.02S87.1,358.84,91,360.06S97.1,361.9,101,363.13S106.7,364.99,110.5,366.22S116.2,368.07,120,369.29S125.7,371.13,129.5,372.34S135.1,374.14,139,375.31S145.1,377.07,149,378.21S154.7,379.91,158.5,380.99S164.2,382.62,168,383.64S173.7,385.18,177.5,386.14S183.1,387.57,187,388.45S193.1,389.76,197,390.56S202.7,391.75,206.5,392.46S212.2,393.5,216,394.11S221.7,395,225.5,395.5S231.1,396.23,235,396.62S241.1,397.19,245,397.46S250.7,397.84,254.5,398S260.2,398.2,264,398.23S269.7,398.24,273.5,398.15S279.1,397.97,283,397.75S289.1,397.38,293,397.02S298.7,396.46,302.5,395.98S308.2,395.22,312,394.61S317.7,393.66,321.5,392.93S327.1,391.79,331,390.94S337.1,389.62,341,388.65S346.7,387.15,350.5,386.07S356.2,384.41,360,383.21S365.7,381.39,369.5,380.1S375.1,378.13,379,376.74S385.1,374.63,389,373.16S394.7,370.92,398.5,369.37S404.2,367.03,408,365.41S413.7,362.97,417.5,361.29S423.1,358.76,427,357.04S433.1,354.44,437,352.69S442.7,350.04,446.5,348.25S452.2,345.57,456,343.77S461.7,341.06,465.5,339.26S471.1,336.56,475,334.76S481.1,332.07,485,330.29S490.7,327.63,494.5,325.88S500.2,323.27,504,321.56S509.7,319.01,513.5,317.36S519.1,314.88,523,313.29S529.1,310.91,533,309.39S538.7,307.12,542.5,305.67S548.2,303.53,552,302.17S557.7,300.16,561.5,298.9S567.1,297.03,571,295.87S577.1,294.16,581,293.11S586.7,291.57,590.5,290.63S596.2,289.26,600,288.45S605.7,287.26,609.5,286.57S615.1,285.56,619,285S625.1,284.18,629,283.74S634.7,283.12,638.5,282.81S644.2,282.38,648,282.2S653.7,281.97,657.5,281.91S663.1,281.87,667,281.94S673.1,282.09,677,282.29S682.7,282.61,686.5,282.93S692.2,283.44,696,283.87S701.7,284.55,705.5,285.09S711.1,285.93,715,286.58S721.1,287.58,725,288.32S730.7,289.46,734.5,290.29S740.2,291.56,744,292.48S749.7,293.87,753.5,294.86S759.1,296.36,763,297.41S769.1,299,773,300.11S778.7,301.79,782.5,302.94S788.2,304.68,792,305.86S797.7,307.66,801.5,308.87S807.1,310.7,811,311.92S817.1,313.77,821,315.01S826.7,316.86,830.5,318.09S836.2,319.94,840,321.15S845.7,322.98,849.5,324.17S855.1,325.96,859,327.12S865.1,328.86,869,329.98S874.7,331.65,878.5,332.73S884.2,334.33,888,335.34S893.7,336.86,897.5,337.81S903.1,339.23,907,340.12S913.1,341.43,917,342.24S922.7,343.44,926.5,344.18S932.2,345.26,936,345.91S941.7,346.86,945.5,347.43S953.1,348.49,955,348.73" style="fill: none; stroke: #0000ff; stroke-width: 1;"></path>
    </g>
    <g>
     <g transform="translate(173,269)">
      <path style="stroke: #ff0000; stroke-width: 1; fill: none;" d="M0,0V3m3,0h-6M0,0V-3m3,0h-6"></path>
     </g>
     <g transform="translate(250,317)">
      <path style="stroke: #ff0000; stroke-width: 1; fill: none;" d="M0,0V3m3,0h-6M0,0V-3m3,0h-6"></path>
     </g>
     <g transform="translate(696,393)">
      <path style="stroke: #ff0000; stroke-width: 1; fill: none;" d="M0,0V3m3,0h-6M0,0V-3m3,0h-6"></path>
     </g>
     <g transform="translate(548,395)">
      <path style="stroke: #ff0000; stroke-width: 1; fill: none;" d="M0,0V3m3,0h-6M0,0V-3m3,0h-6"></path>
     </g>
     <g transform="translate(880,402)">
      <path style="stroke: #ff0000; stroke-width: 1; fill: none;" d="M0,0V3m3,0h-6M0,0V-3m3,0h-6"></path>
     </g>
     <g transform="translate(80,199)">
      <path style="stroke: #ff0000; stroke-width: 1; fill: none;" d="M0,0V3m3,0h-6M0,0V-3m3,0h-6"></path>
     </g>
     <g transform="translate(371,360)">
      <path style="stroke: #ff0000; stroke-width: 1; fill: none;" d="M0,0V3m3,0h-6M0,0V-3m3,0h-6"></path>
     </g>
     <g transform="translate(88,207)">
      <path style="stroke: #ff0000; stroke-width: 1; fill: none;" d="M0,0V3m3,0h-6M0,0V-3m3,0h-6"></path>
     </g>
     <g transform="translate(481,377)">
      <path style="stroke: #ff0000; stroke-width: 1; fill: none;" d="M0,0V3m3,0h-6M0,0V-3m3,0h-6"></path>
     </g>
     <g transform="translate(325,340)">
      <path style="stroke: #ff0000; stroke-width: 1; fill: none;" d="M0,0V3m3,0h-6M0,0V-3m3,0h-6"></path>
     </g>
     <g transform="translate(245,316)">
      <path style="stroke: #ff0000; stroke-width: 1; fill: none;" d="M0,0V3m3,0h-6M0,0V-3m3,0h-6"></path>
     </g>
     <g transform="translate(146,254)">
      <path style="stroke: #ff0000; stroke-width: 1; fill: none;" d="M0,0V3m3,0h-6M0,0V-3m3,0h-6"></path>
     </g>
     <g transform="translate(698,395)">
      <path style="stroke: #ff0000; stroke-width: 1; fill: none;" d="M0,0V3m3,0h-6M0,0V-3m3,0h-6"></path>
     </g>
     <g transform="translate(760,400)">
      <path style="stroke: #ff0000; stroke-width: 1; fill: none;" d="M0,0V3m3,0h-6M0,0V-3m3,0h-6"></path>
     </g>
     <g transform="translate(440,368)">
      <path style="stroke: #ff0000; stroke-width: 1; fill: none;" d="M0,0V3m3,0h-6M0,0V-3m3,0h-6"></path>
     </g>
     <g transform="translate(620,394)">
      <path style="stroke: #ff0000; stroke-width: 1; fill: none;" d="M0,0V3m3,0h-6M0,0V-3m3,0h-6"></path>
     </g>
     <g transform="translate(431,370)">
      <path style="stroke: #ff0000; stroke-width: 1; fill: none;" d="M0,0V3m3,0h-6M0,0V-3m3,0h-6"></path>
     </g>
     <g transform="translate(830,398)">
      <path style="stroke: #ff0000; stroke-width: 1; fill: none;" d="M0,0V3m3,0h-6M0,0V-3m3,0h-6"></path>
     </g>
     <g transform="translate(465,384)">
      <path style="stroke: #ff0000; stroke-width: 1; fill: none;" d="M0,0V3m3,0h-6M0,0V-3m3,0h-6"></path>
     </g>
     <g transform="translate(89,206)">
      <path style="stroke: #ff0000; stroke-width: 1; fill: none;" d="M0,0V3m3,0h-6M0,0V-3m3,0h-6"></path>
     </g>
     <g transform="translate(655,390)">
      <path style="stroke: #ff0000; stroke-width: 1; fill: none;" d="M0,0V3m3,0h-6M0,0V-3m3,0h-6"></path>
     </g>
     <g transform="translate(360,347)">
      <path style="stroke: #ff0000; stroke-width: 1; fill: none;" d="M0,0V3m3,0h-6M0,0V-3m3,0h-6"></path>
     </g>
     <g transform="translate(115,235)">
      <path style="stroke: #ff0000; stroke-width: 1; fill: none;" d="M0,0V3m3,0h-6M0,0V-3m3,0h-6"></path>
     </g>
     <g transform="translate(223,300)">
      <path style="stroke: #ff0000; stroke-width: 1; fill: none;" d="M0,0V3m3,0h-6M0,0V-3m3,0h-6"></path>
     </g>
     <g transform="translate(241,311)">
      <path style="stroke: #ff0000; stroke-width: 1; fill: none;" d="M0,0V3m3,0h-6M0,0V-3m3,0h-6"></path>
     </g>
     <g transform="translate(834,398)">
      <path style="stroke: #ff0000; stroke-width: 1; fill: none;" d="M0,0V3m3,0h-6M0,0V-3m3,0h-6"></path>
     </g>
     <g transform="translate(431,366)">
      <path style="stroke: #ff0000; stroke-width: 1; fill: none;" d="M0,0V3m3,0h-6M0,0V-3m3,0h-6"></path>
     </g>
     <g transform="translate(746,396)">
      <path style="stroke: #ff0000; stroke-width: 1; fill: none;" d="M0,0V3m3,0h-6M0,0V-3m3,0h-6"></path>
     </g>
     <g transform="translate(329,346)">
      <path style="stroke: #ff0000; stroke-width: 1; fill: none;" d="M0,0V3m3,0h-6M0,0V-3m3,0h-6"></path>
     </g>
     <g transform="translate(360,354)">
      <path style="stroke: #ff0000; stroke-width: 1; fill: none;" d="M0,0V3m3,0h-6M0,0V-3m3,0h-6"></path>
     </g>
     <g transform="translate(567,390)">
      <path style="stroke: #ff0000; stroke-width: 1; fill: none;" d="M0,0V3m3,0h-6M0,0V-3m3,0h-6"></path>
     </g>
     <g transform="translate(748,402)">
      <path style="stroke: #ff0000; stroke-width: 1; fill: none;" d="M0,0V3m3,0h-6M0,0V-3m3,0h-6"></path>
     </g>
     <g transform="translate(820,402)">
      <path style="stroke: #ff0000; stroke-width: 1; fill: none;" d="M0,0V3m3,0h-6M0,0V-3m3,0h-6"></path>
     </g>
     <g transform="translate(635,391)">
      <path style="stroke: #ff0000; stroke-width: 1; fill: none;" d="M0,0V3m3,0h-6M0,0V-3m3,0h-6"></path>
     </g>
     <g transform="translate(376,359)">
      <path style="stroke: #ff0000; stroke-width: 1; fill: none;" d="M0,0V3m3,0h-6M0,0V-3m3,0h-6"></path>
     </g>
     <g transform="translate(803,398)">
      <path style="stroke: #ff0000; stroke-width: 1; fill: none;" d="M0,0V3m3,0h-6M0,0V-3m3,0h-6"></path>
     </g>
     <g transform="translate(673,394)">
      <path style="stroke: #ff0000; stroke-width: 1; fill: none;" d="M0,0V3m3,0h-6M0,0V-3m3,0h-6"></path>
     </g>
     <g transform="translate(301,337)">
      <path style="stroke: #ff0000; stroke-width: 1; fill: none;" d="M0,0V3m3,0h-6M0,0V-3m3,0h-6"></path>
     </g>
     <g transform="translate(520,388)">
      <path style="stroke: #ff0000; stroke-width: 1; fill: none;" d="M0,0V3m3,0h-6M0,0V-3m3,0h-6"></path>
     </g>
     <g transform="translate(525,386)">
      <path style="stroke: #ff0000; stroke-width: 1; fill: none;" d="M0,0V3m3,0h-6M0,0V-3m3,0h-6"></path>
     </g>
     <path d="M169,265l8,8m0,-8l-8,8m0,-4h8m-4,-4v8M246,313l8,8m0,-8l-8,8m0,-4h8m-4,-4v8M692,389l8,8m0,-8l-8,8m0,-4h8m-4,-4v8M544,391l8,8m0,-8l-8,8m0,-4h8m-4,-4v8M876,398l8,8m0,-8l-8,8m0,-4h8m-4,-4v8M76,195l8,8m0,-8l-8,8m0,-4h8m-4,-4v8M367,356l8,8m0,-8l-8,8m0,-4h8m-4,-4v8M84,203l8,8m0,-8l-8,8m0,-4h8m-4,-4v8M477,373l8,8m0,-8l-8,8m0,-4h8m-4,-4v8M321,336l8,8m0,-8l-8,8m0,-4h8m-4,-4v8M241,312l8,8m0,-8l-8,8m0,-4h8m-4,-4v8M142,250l8,8m0,-8l-8,8m0,-4h8m-4,-4v8M694,391l8,8m0,-8l-8,8m0,-4h8m-4,-4v8M756,396l8,8m0,-8l-8,8m0,-4h8m-4,-4v8M436,364l8,8m0,-8l-8,8m0,-4h8m-4,-4v8M616,390l8,8m0,-8l-8,8m0,-4h8m-4,-4v8M427,366l8,8m0,-8l-8,8m0,-4h8m-4,-4v8M826,394l8,8m0,-8l-8,8m0,-4h8m-4,-4v8M461,380l8,8m0,-8l-8,8m0,-4h8m-4,-4v8M85,202l8,8m0,-8l-8,8m0,-4h8m-4,-4v8M651,386l8,8m0,-8l-8,8m0,-4h8m-4,-4v8M356,343l8,8m0,-8l-8,8m0,-4h8m-4,-4v8M111,231l8,8m0,-8l-8,8m0,-4h8m-4,-4v8M219,296l8,8m0,-8l-8,8m0,-4h8m-4,-4v8M237,307l8,8m0,-8l-8,8m0,-4h8m-4,-4v8M830,394l8,8m0,-8l-8,8m0,-4h8m-4,-4v8M427,362l8,8m0,-8l-8,8m0,-4h8m-4,-4v8M742,392l8,8m0,-8l-8,8m0,-4h8m-4,-4v8M325,342l8,8m0,-8l-8,8m0,-4h8m-4,-4v8M356,350l8,8m0,-8l-8,8m0,-4h8m-4,-4v8M563,386l8,8m0,-8l-8,8m0,-4h8m-4,-4v8M744,398l8,8m0,-8l-8,8m0,-4h8m-4,-4v8M816,398l8,8m0,-8l-8,8m0,-4h8m-4,-4v8M631,387l8,8m0,-8l-8,8m0,-4h8m-4,-4v8M372,355l8,8m0,-8l-8,8m0,-4h8m-4,-4v8M799,394l8,8m0,-8l-8,8m0,-4h8m-4,-4v8M669,390l8,8m0,-8l-8,8m0,-4h8m-4,-4v8M297,333l8,8m0,-8l-8,8m0,-4h8m-4,-4v8M516,384l8,8m0,-8l-8,8m0,-4h8m-4,-4v8M521,382l8,8m0,-8l-8,8m0,-4h8m-4,-4v8" style="stroke: #ff0000; fill: none;"></path>
    </g>
    <g>
     <path d="M5,110.33C6.87,113,10.7,118.41,14.5,123.59S20.2,131.3,24,136.26S29.7,143.63,33.5,148.36S39.1,155.41,43,159.93S49.1,166.66,53,170.98S58.7,177.41,62.5,181.54S68.2,187.68,72,191.63S77.7,197.49,81.5,201.26S87.1,206.87,91,210.47S97.1,215.83,101,219.27S106.7,224.39,110.5,227.68S116.2,232.57,120,235.71S125.7,240.39,129.5,243.39S135.1,247.85,139,250.72S145.1,254.99,149,257.73S154.7,261.8,158.5,264.42S164.2,268.31,168,270.82S173.7,274.54,177.5,276.93S183.1,280.48,187,282.77S193.1,286.16,197,288.35S202.7,291.59,206.5,293.68S212.2,296.78,216,298.77S221.7,301.73,225.5,303.64S231.1,306.47,235,308.28S241.1,310.99,245,312.73S250.7,315.31,254.5,316.97S260.2,319.44,264,321.03S269.7,323.39,273.5,324.9S279.1,327.16,283,328.6S289.1,330.76,293,332.14S298.7,334.2,302.5,335.52S308.2,337.49,312,338.75S317.7,340.63,321.5,341.84S327.1,343.63,331,344.78S337.1,346.5,341,347.6S346.7,349.24,350.5,350.29S356.2,351.86,360,352.86S365.7,354.36,369.5,355.32S375.1,356.75,379,357.67S385.1,359.03,389,359.91S394.7,361.22,398.5,362.05S404.2,363.3,408,364.1S413.7,365.29,417.5,366.06S423.1,367.2,427,367.93S433.1,369.01,437,369.71S442.7,370.75,446.5,371.42S452.2,372.41,456,373.05S461.7,374,465.5,374.61S471.1,375.51,475,376.09S481.1,376.96,485,377.52S490.7,378.34,494.5,378.88S500.2,379.67,504,380.17S509.7,380.93,513.5,381.41S519.1,382.14,523,382.6S529.1,383.29,533,383.73S538.7,384.39,542.5,384.81S548.2,385.44,552,385.85S557.7,386.45,561.5,386.84S567.1,387.41,571,387.78S577.1,388.33,581,388.68S586.7,389.2,590.5,389.54S596.2,390.04,600,390.36S605.7,390.84,609.5,391.15S615.1,391.61,619,391.9S625.1,392.34,629,392.62S634.7,393.04,638.5,393.31S644.2,393.71,648,393.96S653.7,394.34,657.5,394.59S663.1,394.95,667,395.19S673.1,395.53,677,395.76S682.7,396.09,686.5,396.3S692.2,396.62,696,396.83S701.7,397.13,705.5,397.33S711.1,397.62,715,397.8S721.1,398.08,725,398.26S730.7,398.52,734.5,398.69S740.2,398.94,744,399.11S749.7,399.35,753.5,399.5S759.1,399.74,763,399.88S769.1,400.1,773,400.25S778.7,400.46,782.5,400.59S788.2,400.79,792,400.92S797.7,401.12,801.5,401.24S807.1,401.42,811,401.54S817.1,401.72,821,401.83S826.7,402,830.5,402.11S836.2,402.27,840,402.37S845.7,402.52,849.5,402.62S855.1,402.77,859,402.86S865.1,403,869,403.09S874.7,403.23,878.5,403.31S884.2,403.44,888,403.52S893.7,403.64,897.5,403.72S903.1,403.84,907,403.91S913.1,404.02,917,404.1S922.7,404.2,926.5,404.27S932.2,404.37,936,404.44S941.7,404.54,945.5,404.6S953.1,404.72,955,404.75" style="fill: none; stroke: #ff0000; stroke-width: 1;"></path>
    </g>
   </svg>
   <g>
    <g transform="translate(0,640)">
     <path d="M0,0h960M0,-12V0M21,-12V0M43,-24V0M64,-12V0M85,-12V0M106,-12V0M127,-12V0M148,-24V0M169,-12V0M190,-12V0M211,-12V0M232,-12V0M253,-24V0M274,-12V0M295,-12V0M316,-12V0M337,-12V0M359,-24V0M380,-12V0M401,-12V0M422,-12V0M443,-12V0M464,-24V0M485,-12V0M506,-12V0M527,-12V0M548,-12V0M569,-24V0M590,-12V0M611,-12V0M632,-12V0M654,-12V0M675,-24V0M696,-12V0M717,-12V0M738,-12V0M759,-12V0M780,-24V0M801,-12V0M822,-12V0M843,-12V0M864,-12V0M885,-24V0M906,-12V0M927,-12V0M948,-12V0" style="stroke: black; stroke-width: 1;"></path>
     <g font-family="Arial" font-size="28" space="preserve" fill="black" text-anchor="middle">
      <text dy=".8em" transform="translate(43,1)">
       -2
      </text>
      <text dy=".8em" transform="translate(148,1)">
       -1.5
      </text>
      <text dy=".8em" transform="translate(253,1)">
       -1
      </text>
      <text dy=".8em" transform="translate(359,1)">
       -0.5
      </text>
      <text dy=".8em" transform="translate(464,1)">
       0
      </text>
      <text dy=".8em" transform="translate(569,1)">
       0.5
      </text>
      <text dy=".8em" transform="translate(675,1)">
       1
      </text>
      <text dy=".8em" transform="translate(780,1)">
       1.5
      </text>
      <text dy=".8em" transform="translate(885,1)">
       2
      </text>
     </g>
    </g>
    <g>
     <path d="M0,0v640M18,640H0M18,623H0M36,606H0M18,590H0M18,573H0M18,556H0M36,540H0M18,523H0M18,507H0M18,490H0M36,473H0M18,457H0M18,440H0M18,423H0M36,407H0M18,390H0M18,373H0M18,357H0M36,340H0M18,323H0M18,307H0M18,290H0M36,273H0M18,257H0M18,240H0M18,224H0M36,207H0M18,190H0M18,174H0M18,157H0M36,140H0M18,124H0M18,107H0M18,90H0M36,74H0M18,57H0M18,40H0M18,24H0M36,7H0" style="stroke: black; stroke-width: 1;"></path>
     <g font-family="Arial" font-size="28" space="preserve" fill="black" text-anchor="end">
      <text dy=".4em" transform="translate(-4,606)">
       -8
      </text>
      <text dy=".4em" transform="translate(-4,540)">
       -6
      </text>
      <text dy=".4em" transform="translate(-4,473)">
       -4
      </text>
      <text dy=".4em" transform="translate(-4,407)">
       -2
      </text>
      <text dy=".4em" transform="translate(-4,340)">
       0
      </text>
      <text dy=".4em" transform="translate(-4,273)">
       2
      </text>
      <text dy=".4em" transform="translate(-4,207)">
       4
      </text>
      <text dy=".4em" transform="translate(-4,140)">
       6
      </text>
      <text dy=".4em" transform="translate(-4,74)">
       8
      </text>
      <text dy=".4em" transform="translate(-4,7)">
       10
      </text>
     </g>
    </g>
    <path d="M43,0v640M148,0v640M253,0v640M359,0v640M464,0v640M569,0v640M675,0v640M780,0v640M885,0v640" style="stroke: black; stroke-width: 1; stroke-dasharray: 1,2;"></path>
    <path d="M0,606h960M0,540h960M0,473h960M0,407h960M0,340h960M0,273h960M0,207h960M0,140h960M0,74h960M0,7h960" style="stroke: black; stroke-width: 1; stroke-dasharray: 1,2;"></path>
   </g>
  </g>
  <g transform="translate(120,4)" font-family="Arial" font-size="40" space="preserve">
   <text fill="black" text-anchor="middle" dy=".8em" transform="translate(480)">
    Graph
   </text>
  </g>
  <g transform="translate(360,80)" font-family="Arial" font-size="26" space="preserve">
   <path d="M0,0H420V160H0Z" style="fill: white; stroke: black; stroke-width: 1;"></path>
   <path d="M49,26l8,8m0,-8l-8,8m0,-4h8m-4,-4v8" style="stroke: black; fill: none;"></path>
   <text fill="black" text-anchor="start" dy=".4em" transform="translate(105,30)">
    -7 + 2*x*x + x*x*x
   </text>
   <path d="M49,76l8,8m0,-8l-8,8m0,-4h8m-4,-4v8" style="stroke: #0000ff; fill: none;"></path>
   <text fill="black" text-anchor="start" dy=".4em" transform="translate(105,80)">
    sin(x) + sin(2*x)
   </text>
   <path d="M49,126l8,8m0,-8l-8,8m0,-4h8m-4,-4v8" style="stroke: #ff0000; fill: none;"></path>
   <text fill="black" text-anchor="start" dy=".4em" transform="translate(105,130)">
    -2 + exp(-x)
   </text>
  </g>
 </g>
</svg>