<svg xmlns="http://www.w3.org/2000/svg" viewBox="0 0 1200 800" preserveAspectRatio="none" width="1200" height="800">
 <path d="M0,0H1200V800H0Z" style="fill: white;"></path>
 <g>
  <g transform="translate(120,80)">
   <path d="M0,0H960V640H0Z" style="fill: white; stroke: black; stroke-width: 1;"></path>
   <svg x="0" y="0" overflow="hidden" width="960" height="640" viewBox="0 0 960 640">
    <g>
     <path d="M-25,599h26M-12,583v33M0,633h26M13,626v14M25,572h24M37,551v43M49,559h26M62,535v47M74,599h24M86,583v33M98,552h26M111,528v48M123,484h26M136,452v65M148,491h24M160,459v64M172,538h26M185,512v53M197,498h26M210,467v62M222,484h24M234,452v65M246,464h26M259,429v69M271,396h24M283,356v81M295,471h26M308,437v68M320,457h26M333,422v70M345,403h24M357,363v80M369,369h26M382,326v86M394,342h24M406,297v90M418,193h26M431,138v110M443,91h26M456,30v122M468,132h24M480,73v118M492,254h26M505,203v102M517,349h26M530,304v89M542,389h24M554,348v83M566,396h26M579,356v81M591,430h24M603,392v76M615,403h26M628,363v80M640,396h26M653,356v81M665,349h24M677,304v89M689,423h26M702,385v77M714,369h24M726,326v86M738,389h26M751,348v83M763,383h26M776,341v83M788,417h24M800,378v77M812,396h26M825,356v81M837,342h26M850,297v90M862,356h24M874,312v87M886,389h26M899,348v83M911,423h24M923,385v77M935,423h26M948,385v77M960,349h26M973,304v89M985,342h24M997,297v90" style="stroke: #00009a; stroke-width: 1;"></path>
     <path d="M-15.2,595.8v6.4h6.4v-6.4zM9.8,629.8v6.4h6.4v-6.4zM33.8,568.8v6.4h6.4v-6.4zM58.8,555.8v6.4h6.4v-6.4zM82.8,595.8v6.4h6.4v-6.4zM107.8,548.8v6.4h6.4v-6.4zM132.8,480.8v6.4h6.4v-6.4zM156.8,487.8v6.4h6.4v-6.4zM181.8,534.8v6.4h6.4v-6.4zM206.8,494.8v6.4h6.4v-6.4zM230.8,480.8v6.4h6.4v-6.4zM255.8,460.8v6.4h6.4v-6.4zM279.8,392.8v6.4h6.4v-6.4zM304.8,467.8v6.4h6.4v-6.4zM329.8,453.8v6.4h6.4v-6.4zM353.8,399.8v6.4h6.4v-6.4zM378.8,365.8v6.4h6.4v-6.4zM402.8,338.8v6.4h6.4v-6.4zM427.8,189.8v6.4h6.4v-6.4zM452.8,87.8v6.4h6.4v-6.4zM476.8,128.8v6.4h6.4v-6.4zM501.8,250.8v6.4h6.4v-6.4zM526.8,345.8v6.4h6.4v-6.4zM550.8,385.8v6.4h6.4v-6.4zM575.8,392.8v6.4h6.4v-6.4zM599.8,426.8v6.4h6.4v-6.4zM624.8,399.8v6.4h6.4v-6.4zM649.8,392.8v6.4h6.4v-6.4zM673.8,345.8v6.4h6.4v-6.4zM698.8,419.8v6.4h6.4v-6.4zM722.8,365.8v6.4h6.4v-6.4zM747.8,385.8v6.4h6.4v-6.4zM772.8,379.8v6.4h6.4v-6.4zM796.8,413.8v6.4h6.4v-6.4zM821.8,392.8v6.4h6.4v-6.4zM846.8,338.8v6.4h6.4v-6.4zM870.8,352.8v6.4h6.4v-6.4zM895.8,385.8v6.4h6.4v-6.4zM919.8,419.8v6.4h6.4v-6.4zM944.8,419.8v6.4h6.4v-6.4zM969.8,345.8v6.4h6.4v-6.4zM993.8,338.8v6.4h6.4v-6.4z" style="stroke: black; fill: black;"></path>
    </g>
    <g>
     <path d="M75,581.45C75.5,581.13,76.5,580.48,77.5,579.83S79,578.86,80,578.21S81.5,577.25,82.5,576.61S84,575.65,85,575.01S86.5,574.05,87.5,573.41S89,572.46,90,571.82S91.5,570.87,92.5,570.24S94.1,569.3,95,568.67S96.1,567.73,97,567.1S98.5,566.16,99.5,565.54S101,564.6,102,563.98S103.5,563.05,104.5,562.43S106,561.51,107,560.89S108.5,559.97,109.5,559.36S111,558.44,112,557.83S113.5,556.91,114.5,556.31S116,555.4,117,554.79S118.5,553.88,119.5,553.28S121,552.38,122,551.78S123.5,550.88,124.5,550.28S126.1,549.39,127,548.79S128.1,547.9,129,547.31S130.5,546.42,131.5,545.84S133,544.95,134,544.37S135.5,543.49,136.5,542.9S138,542.03,139,541.45S140.5,540.58,141.5,540S143,539.13,144,538.55S145.5,537.69,146.5,537.12S148,536.26,149,535.69S150.5,534.83,151.5,534.26S153,533.41,154,532.85S155.5,532,156.5,531.44S158.1,530.59,159,530.03S160.1,529.19,161,528.63S162.5,527.8,163.5,527.24S165,526.41,166,525.86S167.5,525.03,168.5,524.48S170,523.66,171,523.11S172.5,522.29,173.5,521.75S175,520.93,176,520.39S177.5,519.58,178.5,519.04S180,518.23,181,517.69S182.5,516.89,183.5,516.35S185,515.55,186,515.02S187.5,514.23,188.5,513.7S190.1,512.91,191,512.38S192.1,511.59,193,511.07S194.5,510.28,195.5,509.76S197,508.98,198,508.46S199.5,507.69,200.5,507.17S202,506.4,203,505.89S204.5,505.12,205.5,504.61S207,503.84,208,503.33S209.5,502.57,210.5,502.07S212,501.31,213,500.81S214.5,500.06,215.5,499.56S217,498.81,218,498.31S219.5,497.57,220.5,497.07S222.1,496.33,223,495.84S224.1,495.1,225,494.61S226.5,493.88,227.5,493.39S229,492.66,230,492.18S231.5,491.45,232.5,490.97S234,490.25,235,489.77S236.5,489.05,237.5,488.58S239,487.86,240,487.39S241.5,486.68,242.5,486.21S244,485.51,245,485.04S246.5,484.34,247.5,483.87S249,483.17,250,482.71S251.5,482.02,252.5,481.55S254.1,480.87,255,480.41S256.1,479.72,257,479.27S258.5,478.58,259.5,478.13S261,477.45,262,477S263.5,476.33,264.5,475.88S266,475.21,267,474.77S268.5,474.1,269.5,473.66S271,473,272,472.56S273.5,471.9,274.5,471.46S276,470.81,277,470.37S278.5,469.72,279.5,469.29S281,468.65,282,468.22S283.5,467.57,284.5,467.15S286.1,466.51,287,466.09S288.1,465.45,289,465.03S290.5,464.4,291.5,463.98S293,463.35,294,462.94S295.5,462.31,296.5,461.9S298,461.28,299,460.87S300.5,460.25,301.5,459.84S303,459.23,304,458.82S305.5,458.21,306.5,457.8S308,457.19,309,456.79S310.5,456.18,311.5,455.78S313,455.18,314,454.78S315.5,454.17,316.5,453.77S318.1,453.17,319,452.77S320.1,452.17,321,451.77S322.5,451.16,323.5,450.76S325,450.15,326,449.75S327.5,449.14,328.5,448.73S330,448.11,331,447.69S332.5,447.07,333.5,446.64S335,446,336,445.57S337.5,444.92,338.5,444.47S340,443.79,341,443.33S342.5,442.63,343.5,442.14S345,441.41,346,440.9S347.5,440.14,348.5,439.59S350.1,438.78,351,438.2S352.1,437.33,353,436.71S354.5,435.77,355.5,435.1S357,434.08,358,433.35S359.5,432.24,360.5,431.44S362,430.23,363,429.35S364.5,428.01,365.5,427.03S367,425.55,368,424.47S369.5,422.83,370.5,421.63S372,419.81,373,418.48S374.5,416.46,375.5,414.98S377,412.73,378,411.09S379.5,408.59,380.5,406.77S382.1,404,383,401.99S384.1,398.93,385,396.7S386.5,393.32,387.5,390.88S389,387.16,390,384.48S391.5,380.41,392.5,377.48S394,373.03,395,369.85S396.5,365.02,397.5,361.58S399,356.35,400,352.65S401.5,347.03,402.5,343.06S404,337.04,405,332.82S406.5,326.41,407.5,321.94S409,315.16,410,310.46S411.5,303.33,412.5,298.41S414.1,290.96,415,285.85S416.1,278.13,417,272.86S418.5,264.9,419.5,259.5S421,251.36,422,245.88S423.5,237.62,424.5,232.1S426,223.79,427,218.28S428.5,209.99,429.5,204.54S431,196.35,432,191.01S433.5,183.01,434.5,177.84S436,170.11,437,165.17S438.5,157.79,439.5,153.13S441,146.19,442,141.87S443.5,135.45,444.5,131.52S446.1,125.71,447,122.21S448.1,117.07,449,114.06S450.5,109.65,451.5,107.16S453,103.55,454,101.61S455.5,98.83,456.5,97.46S458,95.56,459,94.78S460.5,93.77,461.5,93.59S463,93.48,464,93.91S465.5,94.69,466.5,95.7S468,97.38,469,98.96S470.5,101.48,471.5,103.61S473,106.95,474,109.59S475.5,113.69,476.5,116.8S478.1,121.61,479,125.15S480.1,130.59,481,134.51S482.5,140.51,483.5,144.76S485,151.23,486,155.75S487.5,162.62,488.5,167.35S490,174.53,491,179.42S492.5,186.82,493.5,191.82S495,199.36,496,204.4S497.5,212,498.5,217.04S500,224.62,501,229.61S502.5,237.1,503.5,242S505,249.34,506,254.1S507.5,261.23,508.5,265.83S510.1,272.69,511,277.1S512.1,283.66,513,287.85S514.5,294.07,515.5,298.02S517,303.89,518,307.59S519.5,313.07,520.5,316.51S522,321.6,523,324.78S524.5,329.47,525.5,332.39S527,336.69,528,339.34S529.5,343.25,530.5,345.65S532,349.18,533,351.34S534.5,354.51,535.5,356.43S537,359.25,538,360.95S539.5,363.45,540.5,364.95S542.1,367.14,543,368.45S544.1,370.35,545,371.49S546.5,373.14,547.5,374.11S549,375.52,550,376.35S551.5,377.55,552.5,378.25S554,379.26,555,379.84S556.5,380.68,557.5,381.16S559,381.85,560,382.24S561.5,382.8,562.5,383.11S564,383.56,565,383.8S566.5,384.15,567.5,384.33S569,384.59,570,384.73S571.5,384.92,572.5,385.02S574.1,385.14,575,385.2S576.1,385.28,577,385.31S578.5,385.35,579.5,385.35S581,385.36,582,385.34S583.5,385.32,584.5,385.29S586,385.24,587,385.2S588.5,385.13,589.5,385.08S591,385,592,384.94S593.5,384.85,594.5,384.79S596,384.69,597,384.62S598.5,384.51,599.5,384.44S601,384.34,602,384.26S603.5,384.15,604.5,384.08S606.1,383.97,607,383.9S608.1,383.79,609,383.72S610.5,383.61,611.5,383.54S613,383.43,614,383.36S615.5,383.25,616.5,383.19S618,383.08,619,383.02S620.5,382.92,621.5,382.85S623,382.76,624,382.69S625.5,382.6,626.5,382.54S628,382.45,629,382.4S630.5,382.31,631.5,382.26S633,382.17,634,382.12S635.5,382.04,636.5,381.99S638.1,381.92,639,381.87S640.1,381.8,641,381.76S642.5,381.69,643.5,381.65S645,381.58,646,381.54S647.5,381.49,648.5,381.45S650,381.39,651,381.36S652.5,381.31,653.5,381.28S655,381.23,656,381.2S657.5,381.16,658.5,381.13S660,381.09,661,381.07S662.5,381.03,663.5,381.01S665,380.98,666,380.96S667.5,380.93,668.5,380.92S670.1,380.89,671,380.88S672.1,380.86,673,380.85S674.5,380.83,675.5,380.83S677,380.81,678,380.81S679.5,380.8,680.5,380.8S682,380.79,683,380.79S684.5,380.79,685.5,380.8S687,380.8,688,380.81S689.5,380.81,690.5,380.82S692,380.83,693,380.84S694.5,380.86,695.5,380.87S697,380.89,698,380.91S699.5,380.93,700.5,380.95S702.1,380.98,703,381S704.1,381.03,705,381.05S706.5,381.09,707.5,381.12S709,381.16,710,381.18S711.5,381.23,712.5,381.26S714,381.31,715,381.34S716.5,381.39,717.5,381.43S719,381.48,720,381.52S721.5,381.58,722.5,381.62S724,381.69,725,381.73S726.5,381.8,727.5,381.85S729,381.92,730,381.97S731.5,382.04,732.5,382.09S734.1,382.17,735,382.23S736.1,382.31,737,382.37S738.5,382.46,739.5,382.52S741,382.61,742,382.67S743.5,382.76,744.5,382.83S746,382.93,747,383S748.5,383.1,749.5,383.17S751,383.28,752,383.35S753.5,383.46,754.5,383.54S756,383.65,757,383.73S758.5,383.85,759.5,383.93S761,384.05,762,384.14S763.5,384.26,764.5,384.35S766.1,384.48,767,384.57S768.1,384.7,769,384.79S770.5,384.93,771.5,385.03S773,385.17,774,385.27S775.5,385.41,776.5,385.51S778,385.66,779,385.76S780.5,385.92,781.5,386.02S783,386.18,784,386.29S785.5,386.45,786.5,386.56S788,386.73,789,386.84S790.5,387.01,791.5,387.12S793,387.3,794,387.42S795.5,387.59,796.5,387.71S798.1,387.9,799,388.02S800.1,388.21,801,388.33S802.5,388.52,803.5,388.65S805,388.84,806,388.97S807.5,389.17,808.5,389.31S810,389.51,811,389.64S812.5,389.85,813.5,389.99S815,390.2,816,390.34S817.5,390.55,818.5,390.7S820,390.91,821,391.06S822.5,391.28,823.5,391.43S825,391.66,826,391.81S827.5,392.04,828.5,392.19S830.1,392.42,831,392.58S832.1,392.82,833,392.98S834.5,393.22,835.5,393.38S837,393.63,838,393.79S839.5,394.04,840.5,394.21S842,394.46,843,394.63S844.5,394.89,845.5,395.06S847,395.32,848,395.5S849.5,395.76,850.5,395.94S852,396.21,853,396.39S854.5,396.66,855.5,396.85S857,397.12,858,397.31S859.5,397.59,860.5,397.78S862.1,398.06,863,398.25S864.1,398.54,865,398.74S866.5,399.03,867.5,399.22S869,399.52,870,399.72S871.5,400.02,872.5,400.22S874,400.53,875,400.73S876.5,401.04,877.5,401.25S879,401.56,880,401.77S881.5,402.08,882.5,402.3S884,402.62,885,402.83S886.5,403.15,887.5,403.37S889,403.7,890,403.92S891.5,404.25,892.5,404.48S894.1,404.81,895,405.04S896.1,405.38,897,405.6S898.5,405.95,899.5,406.18S901,406.53,902,406.76S903.5,407.11,904.5,407.35S906,407.7,907,407.94S908.5,408.3,909.5,408.54S911,408.9,912,409.15S913.5,409.52,914.5,409.76S916,410.13,917,410.38S918.5,410.76,919.5,411.01S921,411.39,922,411.64S923.5,412.03,924.5,412.28S926.1,412.67,927,412.93S928.1,413.32,929,413.58S930.5,413.98,931.5,414.24S933,414.64,934,414.91S935.5,415.31,936.5,415.58S938,415.99,939,416.26S940.5,416.67,941.5,416.95S943,417.36,944,417.64S945.5,418.06,946.5,418.34S948,418.76,949,419.05S950.5,419.47,951.5,419.76S953,420.19,954,420.48S955.5,420.91,956.5,421.2S958.1,421.64,959,421.93S960.1,422.38,961,422.67S963,423.28,963.5,423.42" style="fill: none; stroke: #0000ff; stroke-width: 2;"></path>
    </g>
    <g>
     <path d="M80,581.45C82.38,579.81,87.1,576.59,92,573.41S99.5,568.65,104.5,565.54S112.1,560.88,117,557.83S124.1,553.27,129,550.28S136.5,545.82,141.5,542.9S149.1,538.54,154,535.69S161.1,531.42,166,528.63S173.5,524.47,178.5,521.75S186.1,517.68,191,515.02S198.1,511.05,203,508.46S210.5,504.59,215.5,502.07S223.1,498.3,228,495.84S235.2,492.17,240,489.77S247.1,486.2,252,483.87S259.5,480.39,264.5,478.13S272.1,474.76,277,472.56S284.1,469.28,289,467.15S296.5,463.97,301.5,461.9S309.1,458.82,314,456.82S321.1,453.84,326,451.91S333.5,449.02,338.5,447.16S346.1,444.37,351,442.57S358.1,439.88,363,438.15S370.5,435.56,375.5,433.89S383.1,431.4,388,429.79S395.2,427.4,400,425.86S407.1,423.57,412,422.09S419.5,419.9,424.5,418.49S432.1,416.4,437,415.06S444.1,413.06,449,411.78S456.5,409.88,461.5,408.67S469.1,406.87,474,405.73S481.1,404.03,486,402.95S493.5,401.35,498.5,400.33S506.1,398.83,511,397.88S518.1,396.48,523,395.59S530.5,394.29,535.5,393.47S543.1,392.26,548,391.51S555.2,390.4,560,389.72S567.1,388.71,572,388.09S579.5,387.17,584.5,386.62S592.1,385.81,597,385.32S604.1,384.6,609,384.18S616.5,383.57,621.5,383.21S629.1,382.69,634,382.4S641.1,381.98,646,381.76S653.5,381.44,658.5,381.28S666.1,381.05,671,380.96S678.1,380.84,683,380.81S690.5,380.78,695.5,380.82S703.1,380.9,708,381S715.2,381.17,720,381.34S727.1,381.61,732,381.85S739.5,382.22,744.5,382.52S752.1,382.98,757,383.35S764.1,383.92,769,384.35S776.5,385.01,781.5,385.51S789.1,386.28,794,386.84S801.1,387.7,806,388.33S813.5,389.29,818.5,389.99S826.1,391.05,831,391.81S838.1,392.97,843,393.79S850.5,395.05,855.5,395.94S863.1,397.3,868,398.25S875.2,399.71,880,400.73S887.1,402.28,892,403.37S899.5,405.02,904.5,406.18S912.1,407.93,917,409.15S924.1,411,929,412.28S936.5,414.23,941.5,415.58S949.1,417.63,954,419.05S961.1,421.19,966,422.67S976,425.71,978.5,426.47" style="fill: none; stroke: #ff0000; stroke-width: 2;"></path>
    </g>
    <g>
     <path d="M75,640C75.5,640,76.5,640,77.5,640S79,640,80,640S81.5,640,82.5,640S84,640,85,640S86.5,640,87.5,640S89,640,90,640S91.5,640,92.5,640S94.1,640,95,640S96.1,640,97,640S98.5,640,99.5,640S101,640,102,640S103.5,640,104.5,640S106,640,107,640S108.5,640,109.5,640S111,640,112,640S113.5,640,114.5,640S116,640,117,640S118.5,640,119.5,640S121,640,122,640S123.5,640,124.5,640S126.1,640,127,640S128.1,640,129,640S130.5,640,131.5,640S133,640,134,640S135.5,640,136.5,640S138,640,139,640S140.5,640,141.5,640S143,640,144,640S145.5,640,146.5,640S148,640,149,640S150.5,640,151.5,640S153,640,154,640S155.5,640,156.5,640S158.1,640,159,640S160.1,640,161,640S162.5,640,163.5,640S165,640,166,640S167.5,640,168.5,640S170,640,171,640S172.5,640,173.5,640S175,640,176,640S177.5,640,178.5,640S180,640,181,640S182.5,640,183.5,640S185,640,186,640S187.5,640,188.5,640S190.1,640,191,640S192.1,640,193,640S194.5,640,195.5,640S197,640,198,640S199.5,640,200.5,640S202,640,203,640S204.5,640,205.5,640S207,640,208,640S209.5,640,210.5,640S212,640,213,640S214.5,640,215.5,640S217,640,218,640S219.5,640,220.5,640S222.1,640,223,640S224.1,640,225,640S226.5,640,227.5,640S229,640,230,640S231.5,640,232.5,640S234,640,235,640S236.5,640,237.5,640S239,640,240,640S241.5,640,242.5,640S244,640,245,640S246.5,640,247.5,640S249,640,250,640S251.5,640,252.5,640S254.1,640,255,640S256.1,640,257,640S258.5,640,259.5,640S261,640,262,640S263.5,640,264.5,640S266,640,267,640S268.5,640,269.5,640S271,640,272,640S273.5,640,274.5,640S276,640,277,640S278.5,640,279.5,640S281,640,282,640S283.5,640,284.5,640S286.1,640,287,640S288.1,640,289,640S290.5,640,291.5,640S293,640,294,639.99S295.5,639.99,296.5,639.99S298,639.99,299,639.99S300.5,639.99,301.5,639.99S303,639.98,304,639.98S305.5,639.98,306.5,639.97S308,639.97,309,639.97S310.5,639.96,311.5,639.95S313,639.95,314,639.94S315.5,639.93,316.5,639.92S318.1,639.91,319,639.89S320.1,639.88,321,639.86S322.5,639.84,323.5,639.82S325,639.79,326,639.76S327.5,639.72,328.5,639.69S330,639.64,331,639.6S332.5,639.54,333.5,639.49S335,639.41,336,639.34S337.5,639.25,338.5,639.17S340,639.04,341,638.95S342.5,638.79,343.5,638.67S345,638.49,346,638.34S347.5,638.11,348.5,637.92S350.1,637.64,351,637.42S352.1,637.08,353,636.82S354.5,636.41,355.5,636.08S357,635.59,358,635.21S359.5,634.62,360.5,634.16S362,633.46,363,632.92S364.5,632.1,365.5,631.46S367,630.49,368,629.75S369.5,628.61,370.5,627.75S372,626.43,373,625.43S374.5,623.9,375.5,622.75S377,620.99,378,619.68S379.5,617.67,380.5,616.17S382.1,613.89,383,612.2S384.1,609.61,385,607.71S386.5,604.81,387.5,602.68S389,599.43,390,597.07S391.5,593.46,392.5,590.85S394,586.86,395,583.99S396.5,579.62,397.5,576.49S399,571.72,400,568.32S401.5,563.14,402.5,559.48S404,553.91,405,549.98S406.5,544.02,407.5,539.84S409,533.51,410,529.09S411.5,522.41,412.5,517.77S414.1,510.76,415,505.94S416.1,498.64,417,493.66S418.5,486.12,419.5,481.01S421,473.29,422,468.09S423.5,460.25,424.5,455S426,447.11,427,441.87S428.5,433.99,429.5,428.81S431,421.03,432,415.96S433.5,408.36,434.5,403.45S436,396.12,437,391.44S438.5,384.46,439.5,380.06S441,373.51,442,369.45S443.5,363.42,444.5,359.74S446.1,354.31,447,351.07S448.1,346.3,449,343.54S450.5,339.51,451.5,337.26S453,334.02,454,332.32S455.5,329.91,456.5,328.79S458,327.25,459,326.71S460.5,326.06,461.5,326.12S463,326.36,464,327.02S465.5,328.16,466.5,329.4S468,331.42,469,333.23S470.5,336.1,471.5,338.45S473,342.13,474,344.99S475.5,349.43,476.5,352.76S478.1,357.9,479,361.66S480.1,367.43,481,371.56S482.5,377.88,483.5,382.34S485,389.14,486,393.87S487.5,401.05,488.5,405.99S490,413.48,491,418.58S492.5,426.29,493.5,431.49S495,439.33,496,444.57S497.5,452.47,498.5,457.71S500,465.58,501,470.77S502.5,478.55,503.5,483.64S505,491.27,506,496.22S507.5,503.63,508.5,508.42S510.1,515.56,511,520.15S512.1,526.99,513,531.36S514.5,537.86,515.5,541.98S517,548.12,518,551.99S519.5,557.74,520.5,561.35S522,566.71,523,570.05S524.5,575.01,525.5,578.09S527,582.64,528,585.46S529.5,589.62,530.5,592.18S532,595.96,533,598.27S534.5,601.68,535.5,603.76S537,606.82,538,608.68S539.5,611.41,540.5,613.06S542.1,615.48,543,616.93S544.1,619.07,545,620.35S546.5,622.22,547.5,623.33S549,624.96,550,625.93S551.5,627.35,552.5,628.19S554,629.4,555,630.12S556.5,631.17,557.5,631.78S559,632.67,560,633.2S561.5,633.95,562.5,634.39S564,635.03,565,635.4S566.5,635.94,567.5,636.25S569,636.69,570,636.95S571.5,637.32,572.5,637.53S574.1,637.84,575,638.02S576.1,638.27,577,638.41S578.5,638.62,579.5,638.73S581,638.9,582,639S583.5,639.13,584.5,639.21S586,639.32,587,639.38S588.5,639.46,589.5,639.51S591,639.58,592,639.62S593.5,639.68,594.5,639.71S596,639.75,597,639.77S598.5,639.81,599.5,639.83S601,639.85,602,639.87S603.5,639.89,604.5,639.9S606.1,639.92,607,639.92S608.1,639.94,609,639.94S610.5,639.95,611.5,639.96S613,639.96,614,639.97S615.5,639.97,616.5,639.98S618,639.98,619,639.98S620.5,639.99,621.5,639.99S623,639.99,624,639.99S625.5,639.99,626.5,639.99S628,639.99,629,640S630.5,640,631.5,640S633,640,634,640S635.5,640,636.5,640S638.1,640,639,640S640.1,640,641,640S642.5,640,643.5,640S645,640,646,640S647.5,640,648.5,640S650,640,651,640S652.5,640,653.5,640S655,640,656,640S657.5,640,658.5,640S660,640,661,640S662.5,640,663.5,640S665,640,666,640S667.5,640,668.5,640S670.1,640,671,640S672.1,640,673,640S674.5,640,675.5,640S677,640,678,640S679.5,640,680.5,640S682,640,683,640S684.5,640,685.5,640S687,640,688,640S689.5,640,690.5,640S692,640,693,640S694.5,640,695.5,640S697,640,698,640S699.5,640,700.5,640S702.1,640,703,640S704.1,640,705,640S706.5,640,707.5,640S709,640,710,640S711.5,640,712.5,640S714,640,715,640S716.5,640,717.5,640S719,640,720,640S721.5,640,722.5,640S724,640,725,640S726.5,640,727.5,640S729,640,730,640S731.5,640,732.5,640S734.1,640,735,640S736.1,640,737,640S738.5,640,739.5,640S741,640,742,640S743.5,640,744.5,640S746,640,747,640S748.5,640,749.5,640S751,640,752,640S753.5,640,754.5,640S756,640,757,640S758.5,640,759.5,640S761,640,762,640S763.5,640,764.5,640S766.1,640,767,640S768.1,640,769,640S770.5,640,771.5,640S773,640,774,640S775.5,640,776.5,640S778,640,779,640S780.5,640,781.5,640S783,640,784,640S785.5,640,786.5,640S788,640,789,640S790.5,640,791.5,640S793,640,794,640S795.5,640,796.5,640S798.1,640,799,640S800.1,640,801,640S802.5,640,803.5,640S805,640,806,640S807.5,640,808.5,640S810,640,811,640S812.5,640,813.5,640S815,640,816,640S817.5,640,818.5,640S820,640,821,640S822.5,640,823.5,640S825,640,826,640S827.5,640,828.5,640S830.1,640,831,640S832.1,640,833,640S834.5,640,835.5,640S837,640,838,640S839.5,640,840.5,640S842,640,843,640S844.5,640,845.5,640S847,640,848,640S849.5,640,850.5,640S852,640,853,640S854.5,640,855.5,640S857,640,858,640S859.5,640,860.5,640S862.1,640,863,640S864.1,640,865,640S866.5,640,867.5,640S869,640,870,640S871.5,640,872.5,640S874,640,875,640S876.5,640,877.5,640S879,640,880,640S881.5,640,882.5,640S884,640,885,640S886.5,640,887.5,640S889,640,890,640S891.5,640,892.5,640S894.1,640,895,640S896.1,640,897,640S898.5,640,899.5,640S901,640,902,640S903.5,640,904.5,640S906,640,907,640S908.5,640,909.5,640S911,640,912,640S913.5,640,914.5,640S916,640,917,640S918.5,640,919.5,640S921,640,922,640S923.5,640,924.5,640S926.1,640,927,640S928.1,640,929,640S930.5,640,931.5,640S933,640,934,640S935.5,640,936.5,640S938,640,939,640S940.5,640,941.5,640S943,640,944,640S945.5,640,946.5,640S948,640,949,640S950.5,640,951.5,640S953,640,954,640S955.5,640,956.5,640S958.1,640,959,640S960.1,640,961,640S963,640,963.5,640" style="fill: none; stroke: #00ff00; stroke-width: 2;"></path>
    </g>
    <g>
     <path d="M-25,599h26M-12,583v33M0,633h26M13,626v14M25,572h24M37,551v43M49,559h26M62,535v47M74,599h24M86,583v33M98,552h26M111,528v48M123,484h26M136,452v65M148,491h24M160,459v64M172,538h26M185,512v53M197,498h26M210,467v62M222,484h24M234,452v65M246,464h26M259,429v69M271,396h24M283,356v81M295,471h26M308,437v68M320,457h26M333,422v70M345,403h24M357,363v80M369,369h26M382,326v86M394,342h24M406,297v90M418,193h26M431,138v110M443,91h26M456,30v122M468,132h24M480,73v118M492,254h26M505,203v102M517,349h26M530,304v89M542,389h24M554,348v83M566,396h26M579,356v81M591,430h24M603,392v76M615,403h26M628,363v80M640,396h26M653,356v81M665,349h24M677,304v89M689,423h26M702,385v77M714,369h24M726,326v86M738,389h26M751,348v83M763,383h26M776,341v83M788,417h24M800,378v77M812,396h26M825,356v81M837,342h26M850,297v90M862,356h24M874,312v87M886,389h26M899,348v83M911,423h24M923,385v77M935,423h26M948,385v77M960,349h26M973,304v89M985,342h24M997,297v90" style="stroke: #00009a; stroke-width: 1;"></path>
     <path d="M-15.2,595.8v6.4h6.4v-6.4zM9.8,629.8v6.4h6.4v-6.4zM33.8,568.8v6.4h6.4v-6.4zM58.8,555.8v6.4h6.4v-6.4zM82.8,595.8v6.4h6.4v-6.4zM107.8,548.8v6.4h6.4v-6.4zM132.8,480.8v6.4h6.4v-6.4zM156.8,487.8v6.4h6.4v-6.4zM181.8,534.8v6.4h6.4v-6.4zM206.8,494.8v6.4h6.4v-6.4zM230.8,480.8v6.4h6.4v-6.4zM255.8,460.8v6.4h6.4v-6.4zM279.8,392.8v6.4h6.4v-6.4zM304.8,467.8v6.4h6.4v-6.4zM329.8,453.8v6.4h6.4v-6.4zM353.8,399.8v6.4h6.4v-6.4zM378.8,365.8v6.4h6.4v-6.4zM402.8,338.8v6.4h6.4v-6.4zM427.8,189.8v6.4h6.4v-6.4zM452.8,87.8v6.4h6.4v-6.4zM476.8,128.8v6.4h6.4v-6.4zM501.8,250.8v6.4h6.4v-6.4zM526.8,345.8v6.4h6.4v-6.4zM550.8,385.8v6.4h6.4v-6.4zM575.8,392.8v6.4h6.4v-6.4zM599.8,426.8v6.4h6.4v-6.4zM624.8,399.8v6.4h6.4v-6.4zM649.8,392.8v6.4h6.4v-6.4zM673.8,345.8v6.4h6.4v-6.4zM698.8,419.8v6.4h6.4v-6.4zM722.8,365.8v6.4h6.4v-6.4zM747.8,385.8v6.4h6.4v-6.4zM772.8,379.8v6.4h6.4v-6.4zM796.8,413.8v6.4h6.4v-6.4zM821.8,392.8v6.4h6.4v-6.4zM846.8,338.8v6.4h6.4v-6.4zM870.8,352.8v6.4h6.4v-6.4zM895.8,385.8v6.4h6.4v-6.4zM919.8,419.8v6.4h6.4v-6.4zM944.8,419.8v6.4h6.4v-6.4zM969.8,345.8v6.4h6.4v-6.4zM993.8,338.8v6.4h6.4v-6.4z" style="stroke: black; fill: black;"></path>
    </g>
    <g>
     <path d="M75,581.45C75.5,581.13,76.5,580.48,77.5,579.83S79,578.86,80,578.21S81.5,577.25,82.5,576.61S84,575.65,85,575.01S86.5,574.05,87.5,573.41S89,572.46,90,571.82S91.5,570.87,92.5,570.24S94.1,569.3,95,568.67S96.1,567.73,97,567.1S98.5,566.16,99.5,565.54S101,564.6,102,563.98S103.5,563.05,104.5,562.43S106,561.51,107,560.89S108.5,559.97,109.5,559.36S111,558.44,112,557.83S113.5,556.91,114.5,556.31S116,555.4,117,554.79S118.5,553.88,119.5,553.28S121,552.38,122,551.78S123.5,550.88,124.5,550.28S126.1,549.39,127,548.79S128.1,547.9,129,547.31S130.5,546.42,131.5,545.84S133,544.95,134,544.37S135.5,543.49,136.5,542.9S138,542.03,139,541.45S140.5,540.58,141.5,540S143,539.13,144,538.55S145.5,537.69,146.5,537.12S148,536.26,149,535.69S150.5,534.83,151.5,534.26S153,533.41,154,532.85S155.5,532,156.5,531.44S158.1,530.59,159,530.03S160.1,529.19,161,528.63S162.5,527.8,163.5,527.24S165,526.41,166,525.86S167.5,525.03,168.5,524.48S170,523.66,171,523.11S172.5,522.29,173.5,521.75S175,520.93,176,520.39S177.5,519.58,178.5,519.04S180,518.23,181,517.69S182.5,516.89,183.5,516.35S185,515.55,186,515.02S187.5,514.23,188.5,513.7S190.1,512.91,191,512.38S192.1,511.59,193,511.07S194.5,510.28,195.5,509.76S197,508.98,198,508.46S199.5,507.69,200.5,507.17S202,506.4,203,505.89S204.5,505.12,205.5,504.61S207,503.84,208,503.33S209.5,502.57,210.5,502.07S212,501.31,213,500.81S214.5,500.06,215.5,499.56S217,498.81,218,498.31S219.5,497.57,220.5,497.07S222.1,496.33,223,495.84S224.1,495.1,225,494.61S226.5,493.88,227.5,493.39S229,492.66,230,492.18S231.5,491.45,232.5,490.97S234,490.25,235,489.77S236.5,489.05,237.5,488.58S239,487.86,240,487.39S241.5,486.68,242.5,486.21S244,485.51,245,485.04S246.5,484.34,247.5,483.87S249,483.17,250,482.71S251.5,482.02,252.5,481.55S254.1,480.87,255,480.41S256.1,479.72,257,479.27S258.5,478.58,259.5,478.13S261,477.45,262,477S263.5,476.33,264.5,475.88S266,475.21,267,474.77S268.5,474.1,269.5,473.66S271,473,272,472.56S273.5,471.9,274.5,471.46S276,470.81,277,470.37S278.5,469.72,279.5,469.29S281,468.65,282,468.22S283.5,467.57,284.5,467.15S286.1,466.51,287,466.09S288.1,465.45,289,465.03S290.5,464.4,291.5,463.98S293,463.35,294,462.94S295.5,462.31,296.5,461.9S298,461.28,299,460.87S300.5,460.25,301.5,459.84S303,459.23,304,458.82S305.5,458.21,306.5,457.8S308,457.19,309,456.79S310.5,456.18,311.5,455.78S313,455.18,314,454.78S315.5,454.17,316.5,453.77S318.1,453.17,319,452.77S320.1,452.17,321,451.77S322.5,451.16,323.5,450.76S325,450.15,326,449.75S327.5,449.14,328.5,448.73S330,448.11,331,447.69S332.5,447.07,333.5,446.64S335,446,336,445.57S337.5,444.92,338.5,444.47S340,443.79,341,443.33S342.5,442.63,343.5,442.14S345,441.41,346,440.9S347.5,440.14,348.5,439.59S350.1,438.78,351,438.2S352.1,437.33,353,436.71S354.5,435.77,355.5,435.1S357,434.08,358,433.35S359.5,432.24,360.5,431.44S362,430.23,363,429.35S364.5,428.01,365.5,427.03S367,425.55,368,424.47S369.5,422.83,370.5,421.63S372,419.81,373,418.48S374.5,416.46,375.5,414.98S377,412.73,378,411.09S379.5,408.59,380.5,406.77S382.1,404,383,401.99S384.1,398.93,385,396.7S386.5,393.32,387.5,390.88S389,387.16,390,384.48S391.5,380.41,392.5,377.48S394,373.03,395,369.85S396.5,365.02,397.5,361.58S399,356.35,400,352.65S401.5,347.03,402.5,343.06S404,337.04,405,332.82S406.5,326.41,407.5,321.94S409,315.16,410,310.46S411.5,303.33,412.5,298.41S414.1,290.96,415,285.85S416.1,278.13,417,272.86S418.5,264.9,419.5,259.5S421,251.36,422,245.88S423.5,237.62,424.5,232.1S426,223.79,427,218.28S428.5,209.99,429.5,204.54S431,196.35,432,191.01S433.5,183.01,434.5,177.84S436,170.11,437,165.17S438.5,157.79,439.5,153.13S441,146.19,442,141.87S443.5,135.45,444.5,131.52S446.1,125.71,447,122.21S448.1,117.07,449,114.06S450.5,109.65,451.5,107.16S453,103.55,454,101.61S455.5,98.83,456.5,97.46S458,95.56,459,94.78S460.5,93.77,461.5,93.59S463,93.48,464,93.91S465.5,94.69,466.5,95.7S468,97.38,469,98.96S470.5,101.48,471.5,103.61S473,106.95,474,109.59S475.5,113.69,476.5,116.8S478.1,121.61,479,125.15S480.1,130.59,481,134.51S482.5,140.51,483.5,144.76S485,151.23,486,155.75S487.5,162.62,488.5,167.35S490,174.53,491,179.42S492.5,186.82,493.5,191.82S495,199.36,496,204.4S497.5,212,498.5,217.04S500,224.62,501,229.61S502.5,237.1,503.5,242S505,249.34,506,254.1S507.5,261.23,508.5,265.83S510.1,272.69,511,277.1S512.1,283.66,513,287.85S514.5,294.07,515.5,298.02S517,303.89,518,307.59S519.5,313.07,520.5,316.51S522,321.6,523,324.78S524.5,329.47,525.5,332.39S527,336.69,528,339.34S529.5,343.25,530.5,345.65S532,349.18,533,351.34S534.5,354.51,535.5,356.43S537,359.25,538,360.95S539.5,363.45,540.5,364.95S542.1,367.14,543,368.45S544.1,370.35,545,371.49S546.5,373.14,547.5,374.11S549,375.52,550,376.35S551.5,377.55,552.5,378.25S554,379.26,555,379.84S556.5,380.68,557.5,381.16S559,381.85,560,382.24S561.5,382.8,562.5,383.11S564,383.56,565,383.8S566.5,384.15,567.5,384.33S569,384.59,570,384.73S571.5,384.92,572.5,385.02S574.1,385.14,575,385.2S576.1,385.28,577,385.31S578.5,385.35,579.5,385.35S581,385.36,582,385.34S583.5,385.32,584.5,385.29S586,385.24,587,385.2S588.5,385.13,589.5,385.08S591,385,592,384.94S593.5,384.85,594.5,384.79S596,384.69,597,384.62S598.5,384.51,599.5,384.44S601,384.34,602,384.26S603.5,384.15,604.5,384.08S606.1,383.97,607,383.9S608.1,383.79,609,383.72S610.5,383.61,611.5,383.54S613,383.43,614,383.36S615.5,383.25,616.5,383.19S618,383.08,619,383.02S620.5,382.92,621.5,382.85S623,382.76,624,382.69S625.5,382.6,626.5,382.54S628,382.45,629,382.4S630.5,382.31,631.5,382.26S633,382.17,634,382.12S635.5,382.04,636.5,381.99S638.1,381.92,639,381.87S640.1,381.8,641,381.76S642.5,381.69,643.5,381.65S645,381.58,646,381.54S647.5,381.49,648.5,381.45S650,381.39,651,381.36S652.5,381.31,653.5,381.28S655,381.23,656,381.2S657.5,381.16,658.5,381.13S660,381.09,661,381.07S662.5,381.03,663.5,381.01S665,380.98,666,380.96S667.5,380.93,668.5,380.92S670.1,380.89,671,380.88S672.1,380.86,673,380.85S674.5,380.83,675.5,380.83S677,380.81,678,380.81S679.5,380.8,680.5,380.8S682,380.79,683,380.79S684.5,380.79,685.5,380.8S687,380.8,688,380.81S689.5,380.81,690.5,380.82S692,380.83,693,380.84S694.5,380.86,695.5,380.87S697,380.89,698,380.91S699.5,380.93,700.5,380.95S702.1,380.98,703,381S704.1,381.03,705,381.05S706.5,381.09,707.5,381.12S709,381.16,710,381.18S711.5,381.23,712.5,381.26S714,381.31,715,381.34S716.5,381.39,717.5,381.43S719,381.48,720,381.52S721.5,381.58,722.5,381.62S724,381.69,725,381.73S726.5,381.8,727.5,381.85S729,381.92,730,381.97S731.5,382.04,732.5,382.09S734.1,382.17,735,382.23S736.1,382.31,737,382.37S738.5,382.46,739.5,382.52S741,382.61,742,382.67S743.5,382.76,744.5,382.83S746,382.93,747,383S748.5,383.1,749.5,383.17S751,383.28,752,383.35S753.5,383.46,754.5,383.54S756,383.65,757,383.73S758.5,383.85,759.5,383.93S761,384.05,762,384.14S763.5,384.26,764.5,384.35S766.1,384.48,767,384.57S768.1,384.7,769,384.79S770.5,384.93,771.5,385.03S773,385.17,774,385.27S775.5,385.41,776.5,385.51S778,385.66,779,385.76S780.5,385.92,781.5,386.02S783,386.18,784,386.29S785.5,386.45,786.5,386.56S788,386.73,789,386.84S790.5,387.01,791.5,387.12S793,387.3,794,387.42S795.5,387.59,796.5,387.71S798.1,387.9,799,388.02S800.1,388.21,801,388.33S802.5,388.52,803.5,388.65S805,388.84,806,388.97S807.5,389.17,808.5,389.31S810,389.51,811,389.64S812.5,389.85,813.5,389.99S815,390.2,816,390.34S817.5,390.55,818.5,390.7S820,390.91,821,391.06S822.5,391.28,823.5,391.43S825,391.66,826,391.81S827.5,392.04,828.5,392.19S830.1,392.42,831,392.58S832.1,392.82,833,392.98S834.5,393.22,835.5,393.38S837,393.63,838,393.79S839.5,394.04,840.5,394.21S842,394.46,843,394.63S844.5,394.89,845.5,395.06S847,395.32,848,395.5S849.5,395.76,850.5,395.94S852,396.21,853,396.39S854.5,396.66,855.5,396.85S857,397.12,858,397.31S859.5,397.59,860.5,397.78S862.1,398.06,863,398.25S864.1,398.54,865,398.74S866.5,399.03,867.5,399.22S869,399.52,870,399.72S871.5,400.02,872.5,400.22S874,400.53,875,400.73S876.5,401.04,877.5,401.25S879,401.56,880,401.77S881.5,402.08,882.5,402.3S884,402.62,885,402.83S886.5,403.15,887.5,403.37S889,403.7,890,403.92S891.5,404.25,892.5,404.48S894.1,404.81,895,405.04S896.1,405.38,897,405.6S898.5,405.95,899.5,406.18S901,406.53,902,406.76S903.5,407.11,904.5,407.35S906,407.7,907,407.94S908.5,408.3,909.5,408.54S911,408.9,912,409.15S913.5,409.52,914.5,409.76S916,410.13,917,410.38S918.5,410.76,919.5,411.01S921,411.39,922,411.64S923.5,412.03,924.5,412.28S926.1,412.67,927,412.93S928.1,413.32,929,413.58S930.5,413.98,931.5,414.24S933,414.64,934,414.91S935.5,415.31,936.5,415.58S938,415.99,939,416.26S940.5,416.67,941.5,416.95S943,417.36,944,417.64S945.5,418.06,946.5,418.34S948,418.76,949,419.05S950.5,419.47,951.5,419.76S953,420.19,954,420.48S955.5,420.91,956.5,421.2S958.1,421.64,959,421.93S960.1,422.38,961,422.67S963,423.28,963.5,423.42" style="fill: none; stroke: #0000ff; stroke-width: 2;"></path>
    </g>
   </svg>
   <g>
    <g transform="translate(0,640)">
     <path d="M0,0h960M0,-12V0M25,-12V0M49,-12V0M74,-24V0M98,-12V0M123,-12V0M148,-12V0M172,-24V0M197,-12V0M222,-12V0M246,-12V0M271,-24V0M295,-12V0M320,-12V0M345,-12V0M369,-24V0M394,-12V0M418,-12V0M443,-12V0M468,-24V0M492,-12V0M517,-12V0M542,-12V0M566,-24V0M591,-12V0M615,-12V0M640,-12V0M665,-24V0M689,-12V0M714,-12V0M738,-12V0M763,-24V0M788,-12V0M812,-12V0M837,-12V0M862,-24V0M886,-12V0M911,-12V0M935,-12V0M960,-24V0" style="stroke: black; stroke-width: 1;"></path>
     <g font-family="Arial" font-size="28" space="preserve" fill="black" text-anchor="middle">
      <text dy=".8em" transform="translate(74,5)">
       0.2
      </text>
      <text dy=".8em" transform="translate(172,5)">
       0.4
      </text>
      <text dy=".8em" transform="translate(271,5)">
       0.6
      </text>
      <text dy=".8em" transform="translate(369,5)">
       0.8
      </text>
      <text dy=".8em" transform="translate(468,5)">
       1
      </text>
      <text dy=".8em" transform="translate(566,5)">
       1.2
      </text>
      <text dy=".8em" transform="translate(665,5)">
       1.4
      </text>
      <text dy=".8em" transform="translate(763,5)">
       1.6
      </text>
      <text dy=".8em" transform="translate(862,5)">
       1.8
      </text>
      <text dy=".8em" transform="translate(960,5)">
       2
      </text>
     </g>
     <g font-family="Arial" font-size="28" space="preserve" transform="translate(960,45)">
      <text fill="black" text-anchor="end" dy=".4em">
       x
      </text>
     </g>
    </g>
    <g>
     <path d="M0,0v640M36,640H0M18,626H0M18,613H0M18,599H0M18,586H0M36,572H0M18,559H0M18,545H0M18,532H0M18,518H0M36,505H0M18,491H0M18,477H0M18,464H0M18,450H0M36,437H0M18,423H0M18,410H0M18,396H0M18,383H0M36,369H0M18,356H0M18,342H0M18,328H0M18,315H0M36,301H0M18,288H0M18,274H0M18,261H0M18,247H0M36,234H0M18,220H0M18,207H0M18,193H0M18,179H0M36,166H0M18,152H0M18,139H0M18,125H0M18,112H0M36,98H0M18,85H0M18,71H0M18,58H0M18,44H0M36,30H0M18,17H0M18,3H0" style="stroke: black; stroke-width: 1;"></path>
     <g font-family="Arial" font-size="28" space="preserve" fill="black" text-anchor="end">
      <text dy=".4em" transform="translate(-6,640)">
       0
      </text>
      <text dy=".4em" transform="translate(-6,572)">
       10
      </text>
      <text dy=".4em" transform="translate(-6,505)">
       20
      </text>
      <text dy=".4em" transform="translate(-6,437)">
       30
      </text>
      <text dy=".4em" transform="translate(-6,369)">
       40
      </text>
      <text dy=".4em" transform="translate(-6,301)">
       50
      </text>
      <text dy=".4em" transform="translate(-6,234)">
       60
      </text>
      <text dy=".4em" transform="translate(-6,166)">
       70
      </text>
      <text dy=".4em" transform="translate(-6,98)">
       80
      </text>
      <text dy=".4em" transform="translate(-6,30)">
       90
      </text>
     </g>
     <g font-family="Arial" font-size="28" space="preserve" transform="translate(-62)">
      <text fill="black" text-anchor="end" dy=".4em" transform="rotate(270)">
       Events/0.05
      </text>
     </g>
    </g>
   </g>
  </g>
  <g transform="translate(744,52)" font-family="Arial" font-size="14" space="preserve">
   <path d="M0,0H432V160H0Z" style="fill: white; stroke: black; stroke-width: 1;"></path>
   <g transform="translate(22,16) scale(0.874)">
    <text fill="black" font-size="17">
     χ
    </text>
    <text fill="black" font-size="10" transform="translate(9,-9)">
     2
    </text>
    <text fill="black" font-size="17" x="22">
     / ndf
    </text>
   </g>
   <text fill="black" text-anchor="end" dy=".4em" transform="translate(410,10)">
    20.03 / 30
   </text>
   <text fill="black" text-anchor="start" dy=".4em" transform="translate(22,30)">
    Prob
   </text>
   <text fill="black" text-anchor="end" dy=".4em" transform="translate(410,30)">
    0.9157
   </text>
   <text fill="black" text-anchor="start" dy=".4em" transform="translate(22,50)">
    Bkg0
   </text>
   <g transform="translate(311,55) scale(0.874)">
    <text fill="black" font-size="17" x="7">
     -1.723 ± 3.178
    </text>
   </g>
   <text fill="black" text-anchor="start" dy=".4em" transform="translate(22,70)">
    Bkg1
   </text>
   <g transform="translate(323,75) scale(0.874)">
    <text fill="black" font-size="17" x="7">
     55.72 ± 8.54
    </text>
   </g>
   <text fill="black" text-anchor="start" dy=".4em" transform="translate(22,90)">
    Bkg2
   </text>
   <g transform="translate(320,95) scale(0.874)">
    <text fill="black" font-size="17" x="7">
     -19.41 ± 4.10
    </text>
   </g>
   <text fill="black" text-anchor="start" dy=".4em" transform="translate(22,110)">
    Gauss scale
   </text>
   <g transform="translate(316,115) scale(0.874)">
    <text fill="black" font-size="17" x="7">
     8.415 ± 1.290
    </text>
   </g>
   <g transform="translate(22,135) scale(0.874)">
    <text fill="black" font-size="17">
     Gauss σ
    </text>
   </g>
   <g transform="translate(284,135) scale(0.874)">
    <text fill="black" font-size="17" x="7">
     0.07243 ± 0.01162
    </text>
   </g>
   <g transform="translate(22,155) scale(0.874)">
    <text fill="black" font-size="17">
     Gauss μ
    </text>
   </g>
   <g transform="translate(299,155) scale(0.874)">
    <text fill="black" font-size="17" x="7">
     0.9845 ± 0.0104
    </text>
   </g>
  </g>
  <g transform="translate(180,120)" font-family="Arial" font-size="24" space="preserve" font-weight="bold" font-style="oblique">
   <path d="M0,0H156V120H0Z" style="fill: white; stroke: black; stroke-width: 1;"></path>
   <path d="M5,18H34" style="stroke: #00009a; stroke-width: 1;"></path>
   <path d="M20,7V29" style="stroke: #00009a; stroke-width: 1;"></path>
   <path d="M16.3,14.8v6.4h6.4v-6.4z" style="stroke: black; fill: black;"></path>
   <text fill="black" text-anchor="start" dy=".4em" transform="translate(39,18)">
    Data
   </text>
   <path d="M5,46H34" style="stroke: #ff0000; stroke-width: 2;"></path>
   <text fill="black" text-anchor="start" dy=".4em" transform="translate(39,46)">
    Bgd
   </text>
   <path d="M5,74H34" style="stroke: #00ff00; stroke-width: 2;"></path>
   <text fill="black" text-anchor="start" dy=".4em" transform="translate(39,74)">
    Sig
   </text>
   <path d="M5,102H34" style="stroke: #0000ff; stroke-width: 2;"></path>
   <text fill="black" text-anchor="start" dy=".4em" transform="translate(39,102)">
    Sig+Bgd
   </text>
  </g>
  <g transform="translate(213,4)" font-family="Arial" font-size="37" space="preserve">
   <text fill="black" text-anchor="middle" dy=".4em" transform="translate(387,25)">
    Gauss Peak on Quadratic Background
   </text>
  </g>
 </g>
</svg>