<svg xmlns="http://www.w3.org/2000/svg" width="698" height="475" viewBox="0 0 698 475" preserveAspectRatio="none">
 <path d="M0,0H698V475H0Z" style="fill: white;"></path>
 <g>
  <g transform="translate(70,48)">
   <path d="M0,0H558V380H0Z" style="fill: white; stroke: black; stroke-width: 1;"></path>
   <svg x="0" y="0" overflow="hidden" width="558" height="380" viewBox="0 0 558 380">
    <g>
     <g transform="translate(100,314)">
      <path style="stroke: black; stroke-width: 1; fill: none;" d="M0,0V2m3,0h-6M0,0V-2m3,0h-6"></path>
     </g>
     <g transform="translate(145,322)">
      <path style="stroke: black; stroke-width: 1; fill: none;" d="M0,0V2m3,0h-6M0,0V-2m3,0h-6"></path>
     </g>
     <g transform="translate(405,264)">
      <path style="stroke: black; stroke-width: 1; fill: none;" d="M0,0V2m3,0h-6M0,0V-2m3,0h-6"></path>
     </g>
     <g transform="translate(318,339)">
      <path style="stroke: black; stroke-width: 1; fill: none;" d="M0,0V2m3,0h-6M0,0V-2m3,0h-6"></path>
     </g>
     <g transform="translate(512,34)">
      <path style="stroke: black; stroke-width: 1; fill: none;" d="M0,0V2m3,0h-6M0,0V-2m3,0h-6"></path>
     </g>
     <g transform="translate(47,328)">
      <path style="stroke: black; stroke-width: 1; fill: none;" d="M0,0V2m3,0h-6M0,0V-2m3,0h-6"></path>
     </g>
     <g transform="translate(216,337)">
      <path style="stroke: black; stroke-width: 1; fill: none;" d="M0,0V2m3,0h-6M0,0V-2m3,0h-6"></path>
     </g>
     <g transform="translate(51,326)">
      <path style="stroke: black; stroke-width: 1; fill: none;" d="M0,0V2m3,0h-6M0,0V-2m3,0h-6"></path>
     </g>
     <g transform="translate(279,340)">
      <path style="stroke: black; stroke-width: 1; fill: none;" d="M0,0V2m3,0h-6M0,0V-2m3,0h-6"></path>
     </g>
     <g transform="translate(189,327)">
      <path style="stroke: black; stroke-width: 1; fill: none;" d="M0,0V2m3,0h-6M0,0V-2m3,0h-6"></path>
     </g>
     <g transform="translate(142,322)">
      <path style="stroke: black; stroke-width: 1; fill: none;" d="M0,0V2m3,0h-6M0,0V-2m3,0h-6"></path>
     </g>
     <g transform="translate(85,317)">
      <path style="stroke: black; stroke-width: 1; fill: none;" d="M0,0V2m3,0h-6M0,0V-2m3,0h-6"></path>
     </g>
     <g transform="translate(406,264)">
      <path style="stroke: black; stroke-width: 1; fill: none;" d="M0,0V2m3,0h-6M0,0V-2m3,0h-6"></path>
     </g>
     <g transform="translate(442,208)">
      <path style="stroke: black; stroke-width: 1; fill: none;" d="M0,0V2m3,0h-6M0,0V-2m3,0h-6"></path>
     </g>
     <g transform="translate(256,339)">
      <path style="stroke: black; stroke-width: 1; fill: none;" d="M0,0V2m3,0h-6M0,0V-2m3,0h-6"></path>
     </g>
     <g transform="translate(360,313)">
      <path style="stroke: black; stroke-width: 1; fill: none;" d="M0,0V2m3,0h-6M0,0V-2m3,0h-6"></path>
     </g>
     <g transform="translate(250,341)">
      <path style="stroke: black; stroke-width: 1; fill: none;" d="M0,0V2m3,0h-6M0,0V-2m3,0h-6"></path>
     </g>
     <g transform="translate(482,115)">
      <path style="stroke: black; stroke-width: 1; fill: none;" d="M0,0V2m3,0h-6M0,0V-2m3,0h-6"></path>
     </g>
     <g transform="translate(270,346)">
      <path style="stroke: black; stroke-width: 1; fill: none;" d="M0,0V2m3,0h-6M0,0V-2m3,0h-6"></path>
     </g>
     <g transform="translate(52,325)">
      <path style="stroke: black; stroke-width: 1; fill: none;" d="M0,0V2m3,0h-6M0,0V-2m3,0h-6"></path>
     </g>
     <g transform="translate(381,291)">
      <path style="stroke: black; stroke-width: 1; fill: none;" d="M0,0V2m3,0h-6M0,0V-2m3,0h-6"></path>
     </g>
     <g transform="translate(209,330)">
      <path style="stroke: black; stroke-width: 1; fill: none;" d="M0,0V2m3,0h-6M0,0V-2m3,0h-6"></path>
     </g>
     <g transform="translate(67,323)">
      <path style="stroke: black; stroke-width: 1; fill: none;" d="M0,0V2m3,0h-6M0,0V-2m3,0h-6"></path>
     </g>
     <g transform="translate(129,317)">
      <path style="stroke: black; stroke-width: 1; fill: none;" d="M0,0V2m3,0h-6M0,0V-2m3,0h-6"></path>
     </g>
     <g transform="translate(140,319)">
      <path style="stroke: black; stroke-width: 1; fill: none;" d="M0,0V2m3,0h-6M0,0V-2m3,0h-6"></path>
     </g>
     <g transform="translate(485,109)">
      <path style="stroke: black; stroke-width: 1; fill: none;" d="M0,0V2m3,0h-6M0,0V-2m3,0h-6"></path>
     </g>
     <g transform="translate(250,338)">
      <path style="stroke: black; stroke-width: 1; fill: none;" d="M0,0V2m3,0h-6M0,0V-2m3,0h-6"></path>
     </g>
     <g transform="translate(433,221)">
      <path style="stroke: black; stroke-width: 1; fill: none;" d="M0,0V2m3,0h-6M0,0V-2m3,0h-6"></path>
     </g>
     <g transform="translate(191,331)">
      <path style="stroke: black; stroke-width: 1; fill: none;" d="M0,0V2m3,0h-6M0,0V-2m3,0h-6"></path>
     </g>
     <g transform="translate(209,334)">
      <path style="stroke: black; stroke-width: 1; fill: none;" d="M0,0V2m3,0h-6M0,0V-2m3,0h-6"></path>
     </g>
     <g transform="translate(330,331)">
      <path style="stroke: black; stroke-width: 1; fill: none;" d="M0,0V2m3,0h-6M0,0V-2m3,0h-6"></path>
     </g>
     <g transform="translate(435,222)">
      <path style="stroke: black; stroke-width: 1; fill: none;" d="M0,0V2m3,0h-6M0,0V-2m3,0h-6"></path>
     </g>
     <g transform="translate(476,134)">
      <path style="stroke: black; stroke-width: 1; fill: none;" d="M0,0V2m3,0h-6M0,0V-2m3,0h-6"></path>
     </g>
     <g transform="translate(369,303)">
      <path style="stroke: black; stroke-width: 1; fill: none;" d="M0,0V2m3,0h-6M0,0V-2m3,0h-6"></path>
     </g>
     <g transform="translate(218,337)">
      <path style="stroke: black; stroke-width: 1; fill: none;" d="M0,0V2m3,0h-6M0,0V-2m3,0h-6"></path>
     </g>
     <g transform="translate(467,154)">
      <path style="stroke: black; stroke-width: 1; fill: none;" d="M0,0V2m3,0h-6M0,0V-2m3,0h-6"></path>
     </g>
     <g transform="translate(391,282)">
      <path style="stroke: black; stroke-width: 1; fill: none;" d="M0,0V2m3,0h-6M0,0V-2m3,0h-6"></path>
     </g>
     <g transform="translate(175,327)">
      <path style="stroke: black; stroke-width: 1; fill: none;" d="M0,0V2m3,0h-6M0,0V-2m3,0h-6"></path>
     </g>
     <g transform="translate(302,341)">
      <path style="stroke: black; stroke-width: 1; fill: none;" d="M0,0V2m3,0h-6M0,0V-2m3,0h-6"></path>
     </g>
     <g transform="translate(305,339)">
      <path style="stroke: black; stroke-width: 1; fill: none;" d="M0,0V2m3,0h-6M0,0V-2m3,0h-6"></path>
     </g>
     <path d="M96,310l8,8m0,-8l-8,8m0,-4h8m-4,-4v8M141,318l8,8m0,-8l-8,8m0,-4h8m-4,-4v8M401,260l8,8m0,-8l-8,8m0,-4h8m-4,-4v8M314,335l8,8m0,-8l-8,8m0,-4h8m-4,-4v8M508,30l8,8m0,-8l-8,8m0,-4h8m-4,-4v8M43,324l8,8m0,-8l-8,8m0,-4h8m-4,-4v8M212,333l8,8m0,-8l-8,8m0,-4h8m-4,-4v8M47,322l8,8m0,-8l-8,8m0,-4h8m-4,-4v8M275,336l8,8m0,-8l-8,8m0,-4h8m-4,-4v8M185,323l8,8m0,-8l-8,8m0,-4h8m-4,-4v8M138,318l8,8m0,-8l-8,8m0,-4h8m-4,-4v8M81,313l8,8m0,-8l-8,8m0,-4h8m-4,-4v8M402,260l8,8m0,-8l-8,8m0,-4h8m-4,-4v8M438,204l8,8m0,-8l-8,8m0,-4h8m-4,-4v8M252,335l8,8m0,-8l-8,8m0,-4h8m-4,-4v8M356,309l8,8m0,-8l-8,8m0,-4h8m-4,-4v8M246,337l8,8m0,-8l-8,8m0,-4h8m-4,-4v8M478,111l8,8m0,-8l-8,8m0,-4h8m-4,-4v8M266,342l8,8m0,-8l-8,8m0,-4h8m-4,-4v8M48,321l8,8m0,-8l-8,8m0,-4h8m-4,-4v8M377,287l8,8m0,-8l-8,8m0,-4h8m-4,-4v8M205,326l8,8m0,-8l-8,8m0,-4h8m-4,-4v8M63,319l8,8m0,-8l-8,8m0,-4h8m-4,-4v8M125,313l8,8m0,-8l-8,8m0,-4h8m-4,-4v8M136,315l8,8m0,-8l-8,8m0,-4h8m-4,-4v8M481,105l8,8m0,-8l-8,8m0,-4h8m-4,-4v8M246,334l8,8m0,-8l-8,8m0,-4h8m-4,-4v8M429,217l8,8m0,-8l-8,8m0,-4h8m-4,-4v8M187,327l8,8m0,-8l-8,8m0,-4h8m-4,-4v8M205,330l8,8m0,-8l-8,8m0,-4h8m-4,-4v8M326,327l8,8m0,-8l-8,8m0,-4h8m-4,-4v8M431,218l8,8m0,-8l-8,8m0,-4h8m-4,-4v8M472,130l8,8m0,-8l-8,8m0,-4h8m-4,-4v8M365,299l8,8m0,-8l-8,8m0,-4h8m-4,-4v8M214,333l8,8m0,-8l-8,8m0,-4h8m-4,-4v8M463,150l8,8m0,-8l-8,8m0,-4h8m-4,-4v8M387,278l8,8m0,-8l-8,8m0,-4h8m-4,-4v8M171,323l8,8m0,-8l-8,8m0,-4h8m-4,-4v8M298,337l8,8m0,-8l-8,8m0,-4h8m-4,-4v8M301,335l8,8m0,-8l-8,8m0,-4h8m-4,-4v8" style="stroke: black; fill: none;"></path>
    </g>
    <g>
     <path d="M3,355l6,-5l5,-4l6,-4l5,-4l6,-3l5,-3l6,-3l6,-2l5,-2l6,-2l5,-2l6,-1l6,-1l5,-1l6,-1h5h6h5h6h6h5l6,1h5l6,1l6,1l5,1l6,1l5,1l6,1l5,1l6,2l6,1l5,1l6,1l5,2l6,1l5,1l6,1l6,1l5,1l6,1l5,1l6,1l6,1h5h6l5,1h6h5l6,-1h6l5,-1l6,-1l5,-1l6,-1l5,-2l6,-2l6,-2l5,-2l6,-3l5,-3l6,-3l6,-4l5,-4l6,-4l5,-5l6,-5l5,-5l6,-6l6,-7l5,-6l6,-7l5,-8l6,-8l6,-8l5,-9l6,-10l5,-10l6,-10l5,-11l6,-12l6,-12l5,-12l6,-13l5,-14l6,-14l5,-15l6,-16l6,-16l5,-17l6,-17l5,-18l6,-19l6,-19l5,-20l6,-21l5,-22l6,-22l5,-23" style="fill: none; stroke: red; stroke-width: 1;"></path>
    </g>
    <g>
     <g transform="translate(100,226)">
      <path style="stroke: rgb(0, 0, 255); stroke-width: 1; fill: none;" d="M0,0V2m3,0h-6M0,0V-2m3,0h-6"></path>
     </g>
     <g transform="translate(145,238)">
      <path style="stroke: rgb(0, 0, 255); stroke-width: 1; fill: none;" d="M0,0V2m3,0h-6M0,0V-2m3,0h-6"></path>
     </g>
     <g transform="translate(405,167)">
      <path style="stroke: rgb(0, 0, 255); stroke-width: 1; fill: none;" d="M0,0V2m3,0h-6M0,0V-2m3,0h-6"></path>
     </g>
     <g transform="translate(318,186)">
      <path style="stroke: rgb(0, 0, 255); stroke-width: 1; fill: none;" d="M0,0V2m3,0h-6M0,0V-2m3,0h-6"></path>
     </g>
     <g transform="translate(512,198)">
      <path style="stroke: rgb(0, 0, 255); stroke-width: 1; fill: none;" d="M0,0V2m3,0h-6M0,0V-2m3,0h-6"></path>
     </g>
     <g transform="translate(47,211)">
      <path style="stroke: rgb(0, 0, 255); stroke-width: 1; fill: none;" d="M0,0V2m3,0h-6M0,0V-2m3,0h-6"></path>
     </g>
     <g transform="translate(216,228)">
      <path style="stroke: rgb(0, 0, 255); stroke-width: 1; fill: none;" d="M0,0V2m3,0h-6M0,0V-2m3,0h-6"></path>
     </g>
     <g transform="translate(51,212)">
      <path style="stroke: rgb(0, 0, 255); stroke-width: 1; fill: none;" d="M0,0V2m3,0h-6M0,0V-2m3,0h-6"></path>
     </g>
     <g transform="translate(279,198)">
      <path style="stroke: rgb(0, 0, 255); stroke-width: 1; fill: none;" d="M0,0V2m3,0h-6M0,0V-2m3,0h-6"></path>
     </g>
     <g transform="translate(189,232)">
      <path style="stroke: rgb(0, 0, 255); stroke-width: 1; fill: none;" d="M0,0V2m3,0h-6M0,0V-2m3,0h-6"></path>
     </g>
     <g transform="translate(142,238)">
      <path style="stroke: rgb(0, 0, 255); stroke-width: 1; fill: none;" d="M0,0V2m3,0h-6M0,0V-2m3,0h-6"></path>
     </g>
     <g transform="translate(85,223)">
      <path style="stroke: rgb(0, 0, 255); stroke-width: 1; fill: none;" d="M0,0V2m3,0h-6M0,0V-2m3,0h-6"></path>
     </g>
     <g transform="translate(406,168)">
      <path style="stroke: rgb(0, 0, 255); stroke-width: 1; fill: none;" d="M0,0V2m3,0h-6M0,0V-2m3,0h-6"></path>
     </g>
     <g transform="translate(442,177)">
      <path style="stroke: rgb(0, 0, 255); stroke-width: 1; fill: none;" d="M0,0V2m3,0h-6M0,0V-2m3,0h-6"></path>
     </g>
     <g transform="translate(256,208)">
      <path style="stroke: rgb(0, 0, 255); stroke-width: 1; fill: none;" d="M0,0V2m3,0h-6M0,0V-2m3,0h-6"></path>
     </g>
     <g transform="translate(360,171)">
      <path style="stroke: rgb(0, 0, 255); stroke-width: 1; fill: none;" d="M0,0V2m3,0h-6M0,0V-2m3,0h-6"></path>
     </g>
     <g transform="translate(250,212)">
      <path style="stroke: rgb(0, 0, 255); stroke-width: 1; fill: none;" d="M0,0V2m3,0h-6M0,0V-2m3,0h-6"></path>
     </g>
     <g transform="translate(482,187)">
      <path style="stroke: rgb(0, 0, 255); stroke-width: 1; fill: none;" d="M0,0V2m3,0h-6M0,0V-2m3,0h-6"></path>
     </g>
     <g transform="translate(270,208)">
      <path style="stroke: rgb(0, 0, 255); stroke-width: 1; fill: none;" d="M0,0V2m3,0h-6M0,0V-2m3,0h-6"></path>
     </g>
     <g transform="translate(52,212)">
      <path style="stroke: rgb(0, 0, 255); stroke-width: 1; fill: none;" d="M0,0V2m3,0h-6M0,0V-2m3,0h-6"></path>
     </g>
     <g transform="translate(381,165)">
      <path style="stroke: rgb(0, 0, 255); stroke-width: 1; fill: none;" d="M0,0V2m3,0h-6M0,0V-2m3,0h-6"></path>
     </g>
     <g transform="translate(209,224)">
      <path style="stroke: rgb(0, 0, 255); stroke-width: 1; fill: none;" d="M0,0V2m3,0h-6M0,0V-2m3,0h-6"></path>
     </g>
     <g transform="translate(67,220)">
      <path style="stroke: rgb(0, 0, 255); stroke-width: 1; fill: none;" d="M0,0V2m3,0h-6M0,0V-2m3,0h-6"></path>
     </g>
     <g transform="translate(129,234)">
      <path style="stroke: rgb(0, 0, 255); stroke-width: 1; fill: none;" d="M0,0V2m3,0h-6M0,0V-2m3,0h-6"></path>
     </g>
     <g transform="translate(140,236)">
      <path style="stroke: rgb(0, 0, 255); stroke-width: 1; fill: none;" d="M0,0V2m3,0h-6M0,0V-2m3,0h-6"></path>
     </g>
     <g transform="translate(485,188)">
      <path style="stroke: rgb(0, 0, 255); stroke-width: 1; fill: none;" d="M0,0V2m3,0h-6M0,0V-2m3,0h-6"></path>
     </g>
     <g transform="translate(250,210)">
      <path style="stroke: rgb(0, 0, 255); stroke-width: 1; fill: none;" d="M0,0V2m3,0h-6M0,0V-2m3,0h-6"></path>
     </g>
     <g transform="translate(433,173)">
      <path style="stroke: rgb(0, 0, 255); stroke-width: 1; fill: none;" d="M0,0V2m3,0h-6M0,0V-2m3,0h-6"></path>
     </g>
     <g transform="translate(191,234)">
      <path style="stroke: rgb(0, 0, 255); stroke-width: 1; fill: none;" d="M0,0V2m3,0h-6M0,0V-2m3,0h-6"></path>
     </g>
     <g transform="translate(209,229)">
      <path style="stroke: rgb(0, 0, 255); stroke-width: 1; fill: none;" d="M0,0V2m3,0h-6M0,0V-2m3,0h-6"></path>
     </g>
     <g transform="translate(330,179)">
      <path style="stroke: rgb(0, 0, 255); stroke-width: 1; fill: none;" d="M0,0V2m3,0h-6M0,0V-2m3,0h-6"></path>
     </g>
     <g transform="translate(435,176)">
      <path style="stroke: rgb(0, 0, 255); stroke-width: 1; fill: none;" d="M0,0V2m3,0h-6M0,0V-2m3,0h-6"></path>
     </g>
     <g transform="translate(476,188)">
      <path style="stroke: rgb(0, 0, 255); stroke-width: 1; fill: none;" d="M0,0V2m3,0h-6M0,0V-2m3,0h-6"></path>
     </g>
     <g transform="translate(369,167)">
      <path style="stroke: rgb(0, 0, 255); stroke-width: 1; fill: none;" d="M0,0V2m3,0h-6M0,0V-2m3,0h-6"></path>
     </g>
     <g transform="translate(218,227)">
      <path style="stroke: rgb(0, 0, 255); stroke-width: 1; fill: none;" d="M0,0V2m3,0h-6M0,0V-2m3,0h-6"></path>
     </g>
     <g transform="translate(467,183)">
      <path style="stroke: rgb(0, 0, 255); stroke-width: 1; fill: none;" d="M0,0V2m3,0h-6M0,0V-2m3,0h-6"></path>
     </g>
     <g transform="translate(391,167)">
      <path style="stroke: rgb(0, 0, 255); stroke-width: 1; fill: none;" d="M0,0V2m3,0h-6M0,0V-2m3,0h-6"></path>
     </g>
     <g transform="translate(175,237)">
      <path style="stroke: rgb(0, 0, 255); stroke-width: 1; fill: none;" d="M0,0V2m3,0h-6M0,0V-2m3,0h-6"></path>
     </g>
     <g transform="translate(302,191)">
      <path style="stroke: rgb(0, 0, 255); stroke-width: 1; fill: none;" d="M0,0V2m3,0h-6M0,0V-2m3,0h-6"></path>
     </g>
     <g transform="translate(305,188)">
      <path style="stroke: rgb(0, 0, 255); stroke-width: 1; fill: none;" d="M0,0V2m3,0h-6M0,0V-2m3,0h-6"></path>
     </g>
     <path d="M96,222l8,8m0,-8l-8,8m0,-4h8m-4,-4v8M141,234l8,8m0,-8l-8,8m0,-4h8m-4,-4v8M401,163l8,8m0,-8l-8,8m0,-4h8m-4,-4v8M314,182l8,8m0,-8l-8,8m0,-4h8m-4,-4v8M508,194l8,8m0,-8l-8,8m0,-4h8m-4,-4v8M43,207l8,8m0,-8l-8,8m0,-4h8m-4,-4v8M212,224l8,8m0,-8l-8,8m0,-4h8m-4,-4v8M47,208l8,8m0,-8l-8,8m0,-4h8m-4,-4v8M275,194l8,8m0,-8l-8,8m0,-4h8m-4,-4v8M185,228l8,8m0,-8l-8,8m0,-4h8m-4,-4v8M138,234l8,8m0,-8l-8,8m0,-4h8m-4,-4v8M81,219l8,8m0,-8l-8,8m0,-4h8m-4,-4v8M402,164l8,8m0,-8l-8,8m0,-4h8m-4,-4v8M438,173l8,8m0,-8l-8,8m0,-4h8m-4,-4v8M252,204l8,8m0,-8l-8,8m0,-4h8m-4,-4v8M356,167l8,8m0,-8l-8,8m0,-4h8m-4,-4v8M246,208l8,8m0,-8l-8,8m0,-4h8m-4,-4v8M478,183l8,8m0,-8l-8,8m0,-4h8m-4,-4v8M266,204l8,8m0,-8l-8,8m0,-4h8m-4,-4v8M48,208l8,8m0,-8l-8,8m0,-4h8m-4,-4v8M377,161l8,8m0,-8l-8,8m0,-4h8m-4,-4v8M205,220l8,8m0,-8l-8,8m0,-4h8m-4,-4v8M63,216l8,8m0,-8l-8,8m0,-4h8m-4,-4v8M125,230l8,8m0,-8l-8,8m0,-4h8m-4,-4v8M136,232l8,8m0,-8l-8,8m0,-4h8m-4,-4v8M481,184l8,8m0,-8l-8,8m0,-4h8m-4,-4v8M246,206l8,8m0,-8l-8,8m0,-4h8m-4,-4v8M429,169l8,8m0,-8l-8,8m0,-4h8m-4,-4v8M187,230l8,8m0,-8l-8,8m0,-4h8m-4,-4v8M205,225l8,8m0,-8l-8,8m0,-4h8m-4,-4v8M326,175l8,8m0,-8l-8,8m0,-4h8m-4,-4v8M431,172l8,8m0,-8l-8,8m0,-4h8m-4,-4v8M472,184l8,8m0,-8l-8,8m0,-4h8m-4,-4v8M365,163l8,8m0,-8l-8,8m0,-4h8m-4,-4v8M214,223l8,8m0,-8l-8,8m0,-4h8m-4,-4v8M463,179l8,8m0,-8l-8,8m0,-4h8m-4,-4v8M387,163l8,8m0,-8l-8,8m0,-4h8m-4,-4v8M171,233l8,8m0,-8l-8,8m0,-4h8m-4,-4v8M298,187l8,8m0,-8l-8,8m0,-4h8m-4,-4v8M301,184l8,8m0,-8l-8,8m0,-4h8m-4,-4v8" style="stroke: rgb(0, 0, 255); fill: none;"></path>
    </g>
    <g>
     <path d="M3,200l6,1l5,1l6,2l5,1l6,2l5,1l6,2l6,2l5,2l6,2l5,1l6,2l6,2l5,2l6,2l5,1l6,2l5,1l6,2l6,1l5,1l6,1l5,1h6l6,1h5h6h5h6h5l6,-1l6,-1l5,-1l6,-1l5,-1l6,-2l5,-1l6,-2l6,-2l5,-2l6,-3l5,-2l6,-2l6,-3l5,-3l6,-2l5,-3l6,-3l5,-2l6,-3l6,-3l5,-2l6,-3l5,-2l6,-2l5,-3l6,-2l6,-2l5,-1l6,-2l5,-1l6,-2l6,-1l5,-1l6,-1h5h6l5,-1h6l6,1h5l6,1h5l6,1l6,1l5,1l6,2l5,1l6,2l5,1l6,2l6,2l5,1l6,2l5,2l6,2l5,2l6,1l6,2l5,2l6,2l5,1l6,2l6,1l5,1l6,1l5,1l6,1l5,1" style="fill: none; stroke: rgb(0, 0, 255); stroke-width: 1;"></path>
    </g>
    <g>
     <g transform="translate(100,160)">
      <path style="stroke: rgb(255, 0, 0); stroke-width: 1; fill: none;" d="M0,0V2m3,0h-6M0,0V-2m3,0h-6"></path>
     </g>
     <g transform="translate(145,188)">
      <path style="stroke: rgb(255, 0, 0); stroke-width: 1; fill: none;" d="M0,0V2m3,0h-6M0,0V-2m3,0h-6"></path>
     </g>
     <g transform="translate(405,233)">
      <path style="stroke: rgb(255, 0, 0); stroke-width: 1; fill: none;" d="M0,0V2m3,0h-6M0,0V-2m3,0h-6"></path>
     </g>
     <g transform="translate(318,234)">
      <path style="stroke: rgb(255, 0, 0); stroke-width: 1; fill: none;" d="M0,0V2m3,0h-6M0,0V-2m3,0h-6"></path>
     </g>
     <g transform="translate(512,239)">
      <path style="stroke: rgb(255, 0, 0); stroke-width: 1; fill: none;" d="M0,0V2m3,0h-6M0,0V-2m3,0h-6"></path>
     </g>
     <g transform="translate(47,118)">
      <path style="stroke: rgb(255, 0, 0); stroke-width: 1; fill: none;" d="M0,0V2m3,0h-6M0,0V-2m3,0h-6"></path>
     </g>
     <g transform="translate(216,214)">
      <path style="stroke: rgb(255, 0, 0); stroke-width: 1; fill: none;" d="M0,0V2m3,0h-6M0,0V-2m3,0h-6"></path>
     </g>
     <g transform="translate(51,123)">
      <path style="stroke: rgb(255, 0, 0); stroke-width: 1; fill: none;" d="M0,0V2m3,0h-6M0,0V-2m3,0h-6"></path>
     </g>
     <g transform="translate(279,224)">
      <path style="stroke: rgb(255, 0, 0); stroke-width: 1; fill: none;" d="M0,0V2m3,0h-6M0,0V-2m3,0h-6"></path>
     </g>
     <g transform="translate(189,202)">
      <path style="stroke: rgb(255, 0, 0); stroke-width: 1; fill: none;" d="M0,0V2m3,0h-6M0,0V-2m3,0h-6"></path>
     </g>
     <g transform="translate(142,188)">
      <path style="stroke: rgb(255, 0, 0); stroke-width: 1; fill: none;" d="M0,0V2m3,0h-6M0,0V-2m3,0h-6"></path>
     </g>
     <g transform="translate(85,151)">
      <path style="stroke: rgb(255, 0, 0); stroke-width: 1; fill: none;" d="M0,0V2m3,0h-6M0,0V-2m3,0h-6"></path>
     </g>
     <g transform="translate(406,235)">
      <path style="stroke: rgb(255, 0, 0); stroke-width: 1; fill: none;" d="M0,0V2m3,0h-6M0,0V-2m3,0h-6"></path>
     </g>
     <g transform="translate(442,237)">
      <path style="stroke: rgb(255, 0, 0); stroke-width: 1; fill: none;" d="M0,0V2m3,0h-6M0,0V-2m3,0h-6"></path>
     </g>
     <g transform="translate(256,219)">
      <path style="stroke: rgb(255, 0, 0); stroke-width: 1; fill: none;" d="M0,0V2m3,0h-6M0,0V-2m3,0h-6"></path>
     </g>
     <g transform="translate(360,234)">
      <path style="stroke: rgb(255, 0, 0); stroke-width: 1; fill: none;" d="M0,0V2m3,0h-6M0,0V-2m3,0h-6"></path>
     </g>
     <g transform="translate(250,220)">
      <path style="stroke: rgb(255, 0, 0); stroke-width: 1; fill: none;" d="M0,0V2m3,0h-6M0,0V-2m3,0h-6"></path>
     </g>
     <g transform="translate(482,236)">
      <path style="stroke: rgb(255, 0, 0); stroke-width: 1; fill: none;" d="M0,0V2m3,0h-6M0,0V-2m3,0h-6"></path>
     </g>
     <g transform="translate(270,228)">
      <path style="stroke: rgb(255, 0, 0); stroke-width: 1; fill: none;" d="M0,0V2m3,0h-6M0,0V-2m3,0h-6"></path>
     </g>
     <g transform="translate(52,123)">
      <path style="stroke: rgb(255, 0, 0); stroke-width: 1; fill: none;" d="M0,0V2m3,0h-6M0,0V-2m3,0h-6"></path>
     </g>
     <g transform="translate(381,232)">
      <path style="stroke: rgb(255, 0, 0); stroke-width: 1; fill: none;" d="M0,0V2m3,0h-6M0,0V-2m3,0h-6"></path>
     </g>
     <g transform="translate(209,206)">
      <path style="stroke: rgb(255, 0, 0); stroke-width: 1; fill: none;" d="M0,0V2m3,0h-6M0,0V-2m3,0h-6"></path>
     </g>
     <g transform="translate(67,139)">
      <path style="stroke: rgb(255, 0, 0); stroke-width: 1; fill: none;" d="M0,0V2m3,0h-6M0,0V-2m3,0h-6"></path>
     </g>
     <g transform="translate(129,178)">
      <path style="stroke: rgb(255, 0, 0); stroke-width: 1; fill: none;" d="M0,0V2m3,0h-6M0,0V-2m3,0h-6"></path>
     </g>
     <g transform="translate(140,184)">
      <path style="stroke: rgb(255, 0, 0); stroke-width: 1; fill: none;" d="M0,0V2m3,0h-6M0,0V-2m3,0h-6"></path>
     </g>
     <g transform="translate(485,236)">
      <path style="stroke: rgb(255, 0, 0); stroke-width: 1; fill: none;" d="M0,0V2m3,0h-6M0,0V-2m3,0h-6"></path>
     </g>
     <g transform="translate(250,217)">
      <path style="stroke: rgb(255, 0, 0); stroke-width: 1; fill: none;" d="M0,0V2m3,0h-6M0,0V-2m3,0h-6"></path>
     </g>
     <g transform="translate(433,235)">
      <path style="stroke: rgb(255, 0, 0); stroke-width: 1; fill: none;" d="M0,0V2m3,0h-6M0,0V-2m3,0h-6"></path>
     </g>
     <g transform="translate(191,205)">
      <path style="stroke: rgb(255, 0, 0); stroke-width: 1; fill: none;" d="M0,0V2m3,0h-6M0,0V-2m3,0h-6"></path>
     </g>
     <g transform="translate(209,210)">
      <path style="stroke: rgb(255, 0, 0); stroke-width: 1; fill: none;" d="M0,0V2m3,0h-6M0,0V-2m3,0h-6"></path>
     </g>
     <g transform="translate(330,232)">
      <path style="stroke: rgb(255, 0, 0); stroke-width: 1; fill: none;" d="M0,0V2m3,0h-6M0,0V-2m3,0h-6"></path>
     </g>
     <g transform="translate(435,239)">
      <path style="stroke: rgb(255, 0, 0); stroke-width: 1; fill: none;" d="M0,0V2m3,0h-6M0,0V-2m3,0h-6"></path>
     </g>
     <g transform="translate(476,239)">
      <path style="stroke: rgb(255, 0, 0); stroke-width: 1; fill: none;" d="M0,0V2m3,0h-6M0,0V-2m3,0h-6"></path>
     </g>
     <g transform="translate(369,232)">
      <path style="stroke: rgb(255, 0, 0); stroke-width: 1; fill: none;" d="M0,0V2m3,0h-6M0,0V-2m3,0h-6"></path>
     </g>
     <g transform="translate(218,213)">
      <path style="stroke: rgb(255, 0, 0); stroke-width: 1; fill: none;" d="M0,0V2m3,0h-6M0,0V-2m3,0h-6"></path>
     </g>
     <g transform="translate(467,236)">
      <path style="stroke: rgb(255, 0, 0); stroke-width: 1; fill: none;" d="M0,0V2m3,0h-6M0,0V-2m3,0h-6"></path>
     </g>
     <g transform="translate(391,234)">
      <path style="stroke: rgb(255, 0, 0); stroke-width: 1; fill: none;" d="M0,0V2m3,0h-6M0,0V-2m3,0h-6"></path>
     </g>
     <g transform="translate(175,200)">
      <path style="stroke: rgb(255, 0, 0); stroke-width: 1; fill: none;" d="M0,0V2m3,0h-6M0,0V-2m3,0h-6"></path>
     </g>
     <g transform="translate(302,230)">
      <path style="stroke: rgb(255, 0, 0); stroke-width: 1; fill: none;" d="M0,0V2m3,0h-6M0,0V-2m3,0h-6"></path>
     </g>
     <g transform="translate(305,229)">
      <path style="stroke: rgb(255, 0, 0); stroke-width: 1; fill: none;" d="M0,0V2m3,0h-6M0,0V-2m3,0h-6"></path>
     </g>
     <path d="M96,156l8,8m0,-8l-8,8m0,-4h8m-4,-4v8M141,184l8,8m0,-8l-8,8m0,-4h8m-4,-4v8M401,229l8,8m0,-8l-8,8m0,-4h8m-4,-4v8M314,230l8,8m0,-8l-8,8m0,-4h8m-4,-4v8M508,235l8,8m0,-8l-8,8m0,-4h8m-4,-4v8M43,114l8,8m0,-8l-8,8m0,-4h8m-4,-4v8M212,210l8,8m0,-8l-8,8m0,-4h8m-4,-4v8M47,119l8,8m0,-8l-8,8m0,-4h8m-4,-4v8M275,220l8,8m0,-8l-8,8m0,-4h8m-4,-4v8M185,198l8,8m0,-8l-8,8m0,-4h8m-4,-4v8M138,184l8,8m0,-8l-8,8m0,-4h8m-4,-4v8M81,147l8,8m0,-8l-8,8m0,-4h8m-4,-4v8M402,231l8,8m0,-8l-8,8m0,-4h8m-4,-4v8M438,233l8,8m0,-8l-8,8m0,-4h8m-4,-4v8M252,215l8,8m0,-8l-8,8m0,-4h8m-4,-4v8M356,230l8,8m0,-8l-8,8m0,-4h8m-4,-4v8M246,216l8,8m0,-8l-8,8m0,-4h8m-4,-4v8M478,232l8,8m0,-8l-8,8m0,-4h8m-4,-4v8M266,224l8,8m0,-8l-8,8m0,-4h8m-4,-4v8M48,119l8,8m0,-8l-8,8m0,-4h8m-4,-4v8M377,228l8,8m0,-8l-8,8m0,-4h8m-4,-4v8M205,202l8,8m0,-8l-8,8m0,-4h8m-4,-4v8M63,135l8,8m0,-8l-8,8m0,-4h8m-4,-4v8M125,174l8,8m0,-8l-8,8m0,-4h8m-4,-4v8M136,180l8,8m0,-8l-8,8m0,-4h8m-4,-4v8M481,232l8,8m0,-8l-8,8m0,-4h8m-4,-4v8M246,213l8,8m0,-8l-8,8m0,-4h8m-4,-4v8M429,231l8,8m0,-8l-8,8m0,-4h8m-4,-4v8M187,201l8,8m0,-8l-8,8m0,-4h8m-4,-4v8M205,206l8,8m0,-8l-8,8m0,-4h8m-4,-4v8M326,228l8,8m0,-8l-8,8m0,-4h8m-4,-4v8M431,235l8,8m0,-8l-8,8m0,-4h8m-4,-4v8M472,235l8,8m0,-8l-8,8m0,-4h8m-4,-4v8M365,228l8,8m0,-8l-8,8m0,-4h8m-4,-4v8M214,209l8,8m0,-8l-8,8m0,-4h8m-4,-4v8M463,232l8,8m0,-8l-8,8m0,-4h8m-4,-4v8M387,230l8,8m0,-8l-8,8m0,-4h8m-4,-4v8M171,196l8,8m0,-8l-8,8m0,-4h8m-4,-4v8M298,226l8,8m0,-8l-8,8m0,-4h8m-4,-4v8M301,225l8,8m0,-8l-8,8m0,-4h8m-4,-4v8" style="stroke: rgb(255, 0, 0); fill: none;"></path>
    </g>
    <g>
     <path d="M3,66l6,7l5,8l6,7l5,7l6,7l5,6l6,6l6,6l5,5l6,5l5,5l6,5l6,5l5,4l6,4l5,4l6,4l5,3l6,4l6,3l5,3l6,3l5,3l6,3l6,3l5,2l6,3l5,2l6,2l5,2l6,2l6,2l5,2l6,2l5,1l6,2l5,2l6,1l6,1l5,2l6,1l5,1l6,1l6,1l5,2l6,1h5l6,1l5,1l6,1l6,1l5,1h6l5,1l6,1h5l6,1l6,1h5l6,1h5l6,1h6l5,1h6l5,1h6h5l6,1h6h5l6,1h5h6h6l5,1h6h5h6l5,1h6h6h5h6l5,1h6h5h6h6h5h6l5,1h6h6h5h6h5h6h5" style="fill: none; stroke: rgb(255, 0, 0); stroke-width: 1;"></path>
    </g>
   </svg>
   <g>
    <g transform="translate(0,380)">
     <path d="M0,0h558M0,-6V0M12,-6V0M25,-11V0M37,-6V0M49,-6V0M61,-6V0M74,-6V0M86,-11V0M98,-6V0M110,-6V0M123,-6V0M135,-6V0M147,-11V0M159,-6V0M172,-6V0M184,-6V0M196,-6V0M208,-11V0M221,-6V0M233,-6V0M245,-6V0M257,-6V0M270,-11V0M282,-6V0M294,-6V0M306,-6V0M319,-6V0M331,-11V0M343,-6V0M355,-6V0M368,-6V0M380,-6V0M392,-11V0M404,-6V0M417,-6V0M429,-6V0M441,-6V0M453,-11V0M466,-6V0M478,-6V0M490,-6V0M502,-6V0M515,-11V0M527,-6V0M539,-6V0M551,-6V0" style="stroke: black; stroke-width: 1;"></path>
     <g font-family="Arial" font-size="17" xml:space="preserve" fill="black" text-anchor="middle"><text dy=".8em" transform="translate(25,3)">-2</text><text dy=".8em" transform="translate(86,3)">-1.5</text><text dy=".8em" transform="translate(147,3)">-1</text><text dy=".8em" transform="translate(208,3)">-0.5</text><text dy=".8em" transform="translate(270,3)">0</text><text dy=".8em" transform="translate(331,3)">0.5</text><text dy=".8em" transform="translate(392,3)">1</text><text dy=".8em" transform="translate(453,3)">1.5</text><text dy=".8em" transform="translate(515,3)">2</text></g>
    </g>
    <g>
     <path d="M0,0v380M9,380H0M9,370H0M17,360H0M9,350H0M9,340H0M9,330H0M17,321H0M9,311H0M9,301H0M9,291H0M17,281H0M9,271H0M9,261H0M9,251H0M17,241H0M9,232H0M9,222H0M9,212H0M17,202H0M9,192H0M9,182H0M9,172H0M17,162H0M9,152H0M9,143H0M9,133H0M17,123H0M9,113H0M9,103H0M9,93H0M17,83H0M9,73H0M9,64H0M9,54H0M17,44H0M9,34H0M9,24H0M9,14H0M17,4H0" style="stroke: black; stroke-width: 1;"></path>
     <g font-family="Arial" font-size="17" xml:space="preserve" fill="black" text-anchor="end"><text dominant-baseline="middle" transform="translate(-3,360)">-8</text><text dominant-baseline="middle" transform="translate(-3,321)">-6</text><text dominant-baseline="middle" transform="translate(-3,281)">-4</text><text dominant-baseline="middle" transform="translate(-3,241)">-2</text><text dominant-baseline="middle" transform="translate(-3,202)">0</text><text dominant-baseline="middle" transform="translate(-3,162)">2</text><text dominant-baseline="middle" transform="translate(-3,123)">4</text><text dominant-baseline="middle" transform="translate(-3,83)">6</text><text dominant-baseline="middle" transform="translate(-3,44)">8</text><text dominant-baseline="middle" transform="translate(-3,4)">10</text></g>
    </g>
    <path d="M25,0v380M86,0v380M147,0v380M208,0v380M270,0v380M331,0v380M392,0v380M453,0v380M515,0v380" style="stroke: black; stroke-width: 1; stroke-dasharray: 1, 2;"></path>
    <path d="M0,360h558M0,321h558M0,281h558M0,241h558M0,202h558M0,162h558M0,123h558M0,83h558M0,44h558M0,4h558" style="stroke: black; stroke-width: 1; stroke-dasharray: 1, 2;"></path>
   </g>
  </g>
  <g transform="translate(70,2)" font-family="Arial" font-size="24" xml:space="preserve"><text fill="black" text-anchor="middle" dy=".8em" transform="translate(279)">Graph</text></g>
  <g transform="translate(209,47)" font-family="Arial" font-size="20" xml:space="preserve"><path d="M0,0H244V95H0Z" style="fill: white; stroke: black; stroke-width: 1;"></path><path d="M27,14l8,8m0,-8l-8,8m0,-4h8m-4,-4v8" style="stroke: black; fill: none;"></path><text fill="black" text-anchor="start" dominant-baseline="middle" transform="translate(61,18)"> -7 + 2*x*x + x*x*x</text><path d="M27,44l8,8m0,-8l-8,8m0,-4h8m-4,-4v8" style="stroke: rgb(0, 0, 255); fill: none;"></path><text fill="black" text-anchor="start" dominant-baseline="middle" transform="translate(61,48)">sin(x) + sin(2*x)</text><path d="M27,73l8,8m0,-8l-8,8m0,-4h8m-4,-4v8" style="stroke: rgb(255, 0, 0); fill: none;"></path><text fill="black" text-anchor="start" dominant-baseline="middle" transform="translate(61,77)">-2 + exp(-x)</text></g>
 </g>
</svg>