<svg xmlns="http://www.w3.org/2000/svg" viewBox="0 0 1200 800" preserveAspectRatio="none" width="1200" height="800">
 <path d="M0,0H1200V800H0Z" style="fill: white;"></path>
 <g>
  <g transform="translate(120,80)">
   <path d="M0,0H960V640H0Z" style="fill: white; stroke: black; stroke-width: 1;"></path>
   <g>
    <path d="M75,0v640M176,0v640M278,0v640M379,0v640M480,0v640M581,0v640M683,0v640M784,0v640M885,0v640" style="stroke: black; stroke-width: 1; stroke-dasharray: 1,2;"></path>
    <path d="M0,582h960M0,465h960M0,349h960M0,233h960M0,116h960M0,0h960" style="stroke: black; stroke-width: 1; stroke-dasharray: 1,2;"></path>
   </g>
   <svg x="0" y="0" overflow="hidden" width="960" height="640" viewBox="0 0 960 640">
    <g>
     <g transform="translate(200,496)">
      <path style="stroke: black; stroke-width: 1; fill: none;" d="M0,0V6m3,0h-6M0,0V-6m3,0h-6"></path>
     </g>
     <g transform="translate(275,482)">
      <path style="stroke: black; stroke-width: 1; fill: none;" d="M0,0V6m3,0h-6M0,0V-6m3,0h-6"></path>
     </g>
     <g transform="translate(704,390)">
      <path style="stroke: black; stroke-width: 1; fill: none;" d="M0,0V6m3,0h-6M0,0V-6m3,0h-6"></path>
     </g>
     <g transform="translate(561,469)">
      <path style="stroke: black; stroke-width: 1; fill: none;" d="M0,0V6m3,0h-6M0,0V-6m3,0h-6"></path>
     </g>
     <g transform="translate(880,189)">
      <path style="stroke: black; stroke-width: 1; fill: none;" d="M0,0V6m3,0h-6M0,0V-6m3,0h-6"></path>
     </g>
     <g transform="translate(111,561)">
      <path style="stroke: black; stroke-width: 1; fill: none;" d="M0,0V6m3,0h-6M0,0V-6m3,0h-6"></path>
     </g>
     <g transform="translate(391,472)">
      <path style="stroke: black; stroke-width: 1; fill: none;" d="M0,0V6m3,0h-6M0,0V-6m3,0h-6"></path>
     </g>
     <g transform="translate(119,554)">
      <path style="stroke: black; stroke-width: 1; fill: none;" d="M0,0V6m3,0h-6M0,0V-6m3,0h-6"></path>
     </g>
     <g transform="translate(496,460)">
      <path style="stroke: black; stroke-width: 1; fill: none;" d="M0,0V6m3,0h-6M0,0V-6m3,0h-6"></path>
     </g>
     <g transform="translate(346,462)">
      <path style="stroke: black; stroke-width: 1; fill: none;" d="M0,0V6m3,0h-6M0,0V-6m3,0h-6"></path>
     </g>
     <g transform="translate(270,485)">
      <path style="stroke: black; stroke-width: 1; fill: none;" d="M0,0V6m3,0h-6M0,0V-6m3,0h-6"></path>
     </g>
     <g transform="translate(174,513)">
      <path style="stroke: black; stroke-width: 1; fill: none;" d="M0,0V6m3,0h-6M0,0V-6m3,0h-6"></path>
     </g>
     <g transform="translate(705,392)">
      <path style="stroke: black; stroke-width: 1; fill: none;" d="M0,0V6m3,0h-6M0,0V-6m3,0h-6"></path>
     </g>
     <g transform="translate(765,346)">
      <path style="stroke: black; stroke-width: 1; fill: none;" d="M0,0V6m3,0h-6M0,0V-6m3,0h-6"></path>
     </g>
     <g transform="translate(457,459)">
      <path style="stroke: black; stroke-width: 1; fill: none;" d="M0,0V6m3,0h-6M0,0V-6m3,0h-6"></path>
     </g>
     <g transform="translate(630,438)">
      <path style="stroke: black; stroke-width: 1; fill: none;" d="M0,0V6m3,0h-6M0,0V-6m3,0h-6"></path>
     </g>
     <g transform="translate(448,465)">
      <path style="stroke: black; stroke-width: 1; fill: none;" d="M0,0V6m3,0h-6M0,0V-6m3,0h-6"></path>
     </g>
     <g transform="translate(832,259)">
      <path style="stroke: black; stroke-width: 1; fill: none;" d="M0,0V6m3,0h-6M0,0V-6m3,0h-6"></path>
     </g>
     <g transform="translate(481,477)">
      <path style="stroke: black; stroke-width: 1; fill: none;" d="M0,0V6m3,0h-6M0,0V-6m3,0h-6"></path>
     </g>
     <g transform="translate(119,552)">
      <path style="stroke: black; stroke-width: 1; fill: none;" d="M0,0V6m3,0h-6M0,0V-6m3,0h-6"></path>
     </g>
     <g transform="translate(664,412)">
      <path style="stroke: black; stroke-width: 1; fill: none;" d="M0,0V6m3,0h-6M0,0V-6m3,0h-6"></path>
     </g>
     <g transform="translate(380,454)">
      <path style="stroke: black; stroke-width: 1; fill: none;" d="M0,0V6m3,0h-6M0,0V-6m3,0h-6"></path>
     </g>
     <g transform="translate(144,542)">
      <path style="stroke: black; stroke-width: 1; fill: none;" d="M0,0V6m3,0h-6M0,0V-6m3,0h-6"></path>
     </g>
     <g transform="translate(248,482)">
      <path style="stroke: black; stroke-width: 1; fill: none;" d="M0,0V6m3,0h-6M0,0V-6m3,0h-6"></path>
     </g>
     <g transform="translate(266,479)">
      <path style="stroke: black; stroke-width: 1; fill: none;" d="M0,0V6m3,0h-6M0,0V-6m3,0h-6"></path>
     </g>
     <g transform="translate(836,253)">
      <path style="stroke: black; stroke-width: 1; fill: none;" d="M0,0V6m3,0h-6M0,0V-6m3,0h-6"></path>
     </g>
     <g transform="translate(448,458)">
      <path style="stroke: black; stroke-width: 1; fill: none;" d="M0,0V6m3,0h-6M0,0V-6m3,0h-6"></path>
     </g>
     <g transform="translate(751,354)">
      <path style="stroke: black; stroke-width: 1; fill: none;" d="M0,0V6m3,0h-6M0,0V-6m3,0h-6"></path>
     </g>
     <g transform="translate(351,470)">
      <path style="stroke: black; stroke-width: 1; fill: none;" d="M0,0V6m3,0h-6M0,0V-6m3,0h-6"></path>
     </g>
     <g transform="translate(380,468)">
      <path style="stroke: black; stroke-width: 1; fill: none;" d="M0,0V6m3,0h-6M0,0V-6m3,0h-6"></path>
     </g>
     <g transform="translate(579,454)">
      <path style="stroke: black; stroke-width: 1; fill: none;" d="M0,0V6m3,0h-6M0,0V-6m3,0h-6"></path>
     </g>
     <g transform="translate(753,362)">
      <path style="stroke: black; stroke-width: 1; fill: none;" d="M0,0V6m3,0h-6M0,0V-6m3,0h-6"></path>
     </g>
     <g transform="translate(822,281)">
      <path style="stroke: black; stroke-width: 1; fill: none;" d="M0,0V6m3,0h-6M0,0V-6m3,0h-6"></path>
     </g>
     <g transform="translate(645,424)">
      <path style="stroke: black; stroke-width: 1; fill: none;" d="M0,0V6m3,0h-6M0,0V-6m3,0h-6"></path>
     </g>
     <g transform="translate(395,469)">
      <path style="stroke: black; stroke-width: 1; fill: none;" d="M0,0V6m3,0h-6M0,0V-6m3,0h-6"></path>
     </g>
     <g transform="translate(806,295)">
      <path style="stroke: black; stroke-width: 1; fill: none;" d="M0,0V6m3,0h-6M0,0V-6m3,0h-6"></path>
     </g>
     <g transform="translate(681,408)">
      <path style="stroke: black; stroke-width: 1; fill: none;" d="M0,0V6m3,0h-6M0,0V-6m3,0h-6"></path>
     </g>
     <g transform="translate(323,474)">
      <path style="stroke: black; stroke-width: 1; fill: none;" d="M0,0V6m3,0h-6M0,0V-6m3,0h-6"></path>
     </g>
     <g transform="translate(534,466)">
      <path style="stroke: black; stroke-width: 1; fill: none;" d="M0,0V6m3,0h-6M0,0V-6m3,0h-6"></path>
     </g>
     <g transform="translate(539,461)">
      <path style="stroke: black; stroke-width: 1; fill: none;" d="M0,0V6m3,0h-6M0,0V-6m3,0h-6"></path>
     </g>
     <g transform="translate(498,447)">
      <path style="stroke: black; stroke-width: 1; fill: none;" d="M0,0V6m3,0h-6M0,0V-6m3,0h-6"></path>
     </g>
     <g transform="translate(844,236)">
      <path style="stroke: black; stroke-width: 1; fill: none;" d="M0,0V6m3,0h-6M0,0V-6m3,0h-6"></path>
     </g>
     <g transform="translate(503,468)">
      <path style="stroke: black; stroke-width: 1; fill: none;" d="M0,0V6m3,0h-6M0,0V-6m3,0h-6"></path>
     </g>
     <g transform="translate(402,450)">
      <path style="stroke: black; stroke-width: 1; fill: none;" d="M0,0V6m3,0h-6M0,0V-6m3,0h-6"></path>
     </g>
     <g transform="translate(343,468)">
      <path style="stroke: black; stroke-width: 1; fill: none;" d="M0,0V6m3,0h-6M0,0V-6m3,0h-6"></path>
     </g>
     <g transform="translate(416,463)">
      <path style="stroke: black; stroke-width: 1; fill: none;" d="M0,0V6m3,0h-6M0,0V-6m3,0h-6"></path>
     </g>
     <g transform="translate(101,573)">
      <path style="stroke: black; stroke-width: 1; fill: none;" d="M0,0V6m3,0h-6M0,0V-6m3,0h-6"></path>
     </g>
     <g transform="translate(445,458)">
      <path style="stroke: black; stroke-width: 1; fill: none;" d="M0,0V6m3,0h-6M0,0V-6m3,0h-6"></path>
     </g>
     <g transform="translate(614,437)">
      <path style="stroke: black; stroke-width: 1; fill: none;" d="M0,0V6m3,0h-6M0,0V-6m3,0h-6"></path>
     </g>
     <g transform="translate(749,357)">
      <path style="stroke: black; stroke-width: 1; fill: none;" d="M0,0V6m3,0h-6M0,0V-6m3,0h-6"></path>
     </g>
     <g transform="translate(463,462)">
      <path style="stroke: black; stroke-width: 1; fill: none;" d="M0,0V6m3,0h-6M0,0V-6m3,0h-6"></path>
     </g>
     <g transform="translate(721,386)">
      <path style="stroke: black; stroke-width: 1; fill: none;" d="M0,0V6m3,0h-6M0,0V-6m3,0h-6"></path>
     </g>
     <g transform="translate(405,457)">
      <path style="stroke: black; stroke-width: 1; fill: none;" d="M0,0V6m3,0h-6M0,0V-6m3,0h-6"></path>
     </g>
     <g transform="translate(771,338)">
      <path style="stroke: black; stroke-width: 1; fill: none;" d="M0,0V6m3,0h-6M0,0V-6m3,0h-6"></path>
     </g>
     <g transform="translate(352,466)">
      <path style="stroke: black; stroke-width: 1; fill: none;" d="M0,0V6m3,0h-6M0,0V-6m3,0h-6"></path>
     </g>
     <g transform="translate(610,444)">
      <path style="stroke: black; stroke-width: 1; fill: none;" d="M0,0V6m3,0h-6M0,0V-6m3,0h-6"></path>
     </g>
     <g transform="translate(750,358)">
      <path style="stroke: black; stroke-width: 1; fill: none;" d="M0,0V6m3,0h-6M0,0V-6m3,0h-6"></path>
     </g>
     <g transform="translate(816,282)">
      <path style="stroke: black; stroke-width: 1; fill: none;" d="M0,0V6m3,0h-6M0,0V-6m3,0h-6"></path>
     </g>
     <g transform="translate(729,381)">
      <path style="stroke: black; stroke-width: 1; fill: none;" d="M0,0V6m3,0h-6M0,0V-6m3,0h-6"></path>
     </g>
     <g transform="translate(684,410)">
      <path style="stroke: black; stroke-width: 1; fill: none;" d="M0,0V6m3,0h-6M0,0V-6m3,0h-6"></path>
     </g>
     <g transform="translate(798,308)">
      <path style="stroke: black; stroke-width: 1; fill: none;" d="M0,0V6m3,0h-6M0,0V-6m3,0h-6"></path>
     </g>
     <g transform="translate(737,375)">
      <path style="stroke: black; stroke-width: 1; fill: none;" d="M0,0V6m3,0h-6M0,0V-6m3,0h-6"></path>
     </g>
     <g transform="translate(633,436)">
      <path style="stroke: black; stroke-width: 1; fill: none;" d="M0,0V6m3,0h-6M0,0V-6m3,0h-6"></path>
     </g>
     <g transform="translate(249,482)">
      <path style="stroke: black; stroke-width: 1; fill: none;" d="M0,0V6m3,0h-6M0,0V-6m3,0h-6"></path>
     </g>
     <g transform="translate(523,454)">
      <path style="stroke: black; stroke-width: 1; fill: none;" d="M0,0V6m3,0h-6M0,0V-6m3,0h-6"></path>
     </g>
     <g transform="translate(212,501)">
      <path style="stroke: black; stroke-width: 1; fill: none;" d="M0,0V6m3,0h-6M0,0V-6m3,0h-6"></path>
     </g>
     <g transform="translate(648,427)">
      <path style="stroke: black; stroke-width: 1; fill: none;" d="M0,0V6m3,0h-6M0,0V-6m3,0h-6"></path>
     </g>
     <g transform="translate(753,361)">
      <path style="stroke: black; stroke-width: 1; fill: none;" d="M0,0V6m3,0h-6M0,0V-6m3,0h-6"></path>
     </g>
     <g transform="translate(178,506)">
      <path style="stroke: black; stroke-width: 1; fill: none;" d="M0,0V6m3,0h-6M0,0V-6m3,0h-6"></path>
     </g>
     <g transform="translate(608,446)">
      <path style="stroke: black; stroke-width: 1; fill: none;" d="M0,0V6m3,0h-6M0,0V-6m3,0h-6"></path>
     </g>
     <g transform="translate(151,530)">
      <path style="stroke: black; stroke-width: 1; fill: none;" d="M0,0V6m3,0h-6M0,0V-6m3,0h-6"></path>
     </g>
     <g transform="translate(374,476)">
      <path style="stroke: black; stroke-width: 1; fill: none;" d="M0,0V6m3,0h-6M0,0V-6m3,0h-6"></path>
     </g>
     <g transform="translate(552,454)">
      <path style="stroke: black; stroke-width: 1; fill: none;" d="M0,0V6m3,0h-6M0,0V-6m3,0h-6"></path>
     </g>
     <g transform="translate(394,459)">
      <path style="stroke: black; stroke-width: 1; fill: none;" d="M0,0V6m3,0h-6M0,0V-6m3,0h-6"></path>
     </g>
     <g transform="translate(472,472)">
      <path style="stroke: black; stroke-width: 1; fill: none;" d="M0,0V6m3,0h-6M0,0V-6m3,0h-6"></path>
     </g>
     <g transform="translate(357,465)">
      <path style="stroke: black; stroke-width: 1; fill: none;" d="M0,0V6m3,0h-6M0,0V-6m3,0h-6"></path>
     </g>
     <g transform="translate(127,542)">
      <path style="stroke: black; stroke-width: 1; fill: none;" d="M0,0V6m3,0h-6M0,0V-6m3,0h-6"></path>
     </g>
     <g transform="translate(776,323)">
      <path style="stroke: black; stroke-width: 1; fill: none;" d="M0,0V6m3,0h-6M0,0V-6m3,0h-6"></path>
     </g>
     <g transform="translate(203,509)">
      <path style="stroke: black; stroke-width: 1; fill: none;" d="M0,0V6m3,0h-6M0,0V-6m3,0h-6"></path>
     </g>
     <g transform="translate(319,469)">
      <path style="stroke: black; stroke-width: 1; fill: none;" d="M0,0V6m3,0h-6M0,0V-6m3,0h-6"></path>
     </g>
     <g transform="translate(680,420)">
      <path style="stroke: black; stroke-width: 1; fill: none;" d="M0,0V6m3,0h-6M0,0V-6m3,0h-6"></path>
     </g>
     <g transform="translate(509,455)">
      <path style="stroke: black; stroke-width: 1; fill: none;" d="M0,0V6m3,0h-6M0,0V-6m3,0h-6"></path>
     </g>
     <g transform="translate(386,455)">
      <path style="stroke: black; stroke-width: 1; fill: none;" d="M0,0V6m3,0h-6M0,0V-6m3,0h-6"></path>
     </g>
     <g transform="translate(80,606)">
      <path style="stroke: black; stroke-width: 1; fill: none;" d="M0,0V6m3,0h-6M0,0V-6m3,0h-6"></path>
     </g>
     <g transform="translate(853,231)">
      <path style="stroke: black; stroke-width: 1; fill: none;" d="M0,0V6m3,0h-6M0,0V-6m3,0h-6"></path>
     </g>
     <g transform="translate(122,544)">
      <path style="stroke: black; stroke-width: 1; fill: none;" d="M0,0V6m3,0h-6M0,0V-6m3,0h-6"></path>
     </g>
     <g transform="translate(336,464)">
      <path style="stroke: black; stroke-width: 1; fill: none;" d="M0,0V6m3,0h-6M0,0V-6m3,0h-6"></path>
     </g>
     <g transform="translate(389,468)">
      <path style="stroke: black; stroke-width: 1; fill: none;" d="M0,0V6m3,0h-6M0,0V-6m3,0h-6"></path>
     </g>
     <g transform="translate(233,491)">
      <path style="stroke: black; stroke-width: 1; fill: none;" d="M0,0V6m3,0h-6M0,0V-6m3,0h-6"></path>
     </g>
     <g transform="translate(561,447)">
      <path style="stroke: black; stroke-width: 1; fill: none;" d="M0,0V6m3,0h-6M0,0V-6m3,0h-6"></path>
     </g>
     <g transform="translate(305,472)">
      <path style="stroke: black; stroke-width: 1; fill: none;" d="M0,0V6m3,0h-6M0,0V-6m3,0h-6"></path>
     </g>
     <g transform="translate(574,445)">
      <path style="stroke: black; stroke-width: 1; fill: none;" d="M0,0V6m3,0h-6M0,0V-6m3,0h-6"></path>
     </g>
     <g transform="translate(832,276)">
      <path style="stroke: black; stroke-width: 1; fill: none;" d="M0,0V6m3,0h-6M0,0V-6m3,0h-6"></path>
     </g>
     <g transform="translate(407,470)">
      <path style="stroke: black; stroke-width: 1; fill: none;" d="M0,0V6m3,0h-6M0,0V-6m3,0h-6"></path>
     </g>
     <g transform="translate(621,427)">
      <path style="stroke: black; stroke-width: 1; fill: none;" d="M0,0V6m3,0h-6M0,0V-6m3,0h-6"></path>
     </g>
     <g transform="translate(544,451)">
      <path style="stroke: black; stroke-width: 1; fill: none;" d="M0,0V6m3,0h-6M0,0V-6m3,0h-6"></path>
     </g>
     <g transform="translate(681,409)">
      <path style="stroke: black; stroke-width: 1; fill: none;" d="M0,0V6m3,0h-6M0,0V-6m3,0h-6"></path>
     </g>
     <g transform="translate(461,462)">
      <path style="stroke: black; stroke-width: 1; fill: none;" d="M0,0V6m3,0h-6M0,0V-6m3,0h-6"></path>
     </g>
     <g transform="translate(291,469)">
      <path style="stroke: black; stroke-width: 1; fill: none;" d="M0,0V6m3,0h-6M0,0V-6m3,0h-6"></path>
     </g>
     <g transform="translate(811,297)">
      <path style="stroke: black; stroke-width: 1; fill: none;" d="M0,0V6m3,0h-6M0,0V-6m3,0h-6"></path>
     </g>
     <g transform="translate(747,362)">
      <path style="stroke: black; stroke-width: 1; fill: none;" d="M0,0V6m3,0h-6M0,0V-6m3,0h-6"></path>
     </g>
     <g transform="translate(682,410)">
      <path style="stroke: black; stroke-width: 1; fill: none;" d="M0,0V6m3,0h-6M0,0V-6m3,0h-6"></path>
     </g>
     <g transform="translate(773,339)">
      <path style="stroke: black; stroke-width: 1; fill: none;" d="M0,0V6m3,0h-6M0,0V-6m3,0h-6"></path>
     </g>
     <g transform="translate(638,429)">
      <path style="stroke: black; stroke-width: 1; fill: none;" d="M0,0V6m3,0h-6M0,0V-6m3,0h-6"></path>
     </g>
     <g transform="translate(403,454)">
      <path style="stroke: black; stroke-width: 1; fill: none;" d="M0,0V6m3,0h-6M0,0V-6m3,0h-6"></path>
     </g>
     <g transform="translate(230,485)">
      <path style="stroke: black; stroke-width: 1; fill: none;" d="M0,0V6m3,0h-6M0,0V-6m3,0h-6"></path>
     </g>
     <g transform="translate(612,441)">
      <path style="stroke: black; stroke-width: 1; fill: none;" d="M0,0V6m3,0h-6M0,0V-6m3,0h-6"></path>
     </g>
     <g transform="translate(262,484)">
      <path style="stroke: black; stroke-width: 1; fill: none;" d="M0,0V6m3,0h-6M0,0V-6m3,0h-6"></path>
     </g>
     <g transform="translate(284,465)">
      <path style="stroke: black; stroke-width: 1; fill: none;" d="M0,0V6m3,0h-6M0,0V-6m3,0h-6"></path>
     </g>
     <g transform="translate(584,439)">
      <path style="stroke: black; stroke-width: 1; fill: none;" d="M0,0V6m3,0h-6M0,0V-6m3,0h-6"></path>
     </g>
     <g transform="translate(759,354)">
      <path style="stroke: black; stroke-width: 1; fill: none;" d="M0,0V6m3,0h-6M0,0V-6m3,0h-6"></path>
     </g>
     <g transform="translate(475,455)">
      <path style="stroke: black; stroke-width: 1; fill: none;" d="M0,0V6m3,0h-6M0,0V-6m3,0h-6"></path>
     </g>
     <g transform="translate(120,558)">
      <path style="stroke: black; stroke-width: 1; fill: none;" d="M0,0V6m3,0h-6M0,0V-6m3,0h-6"></path>
     </g>
     <g transform="translate(256,490)">
      <path style="stroke: black; stroke-width: 1; fill: none;" d="M0,0V6m3,0h-6M0,0V-6m3,0h-6"></path>
     </g>
     <g transform="translate(615,439)">
      <path style="stroke: black; stroke-width: 1; fill: none;" d="M0,0V6m3,0h-6M0,0V-6m3,0h-6"></path>
     </g>
     <g transform="translate(264,484)">
      <path style="stroke: black; stroke-width: 1; fill: none;" d="M0,0V6m3,0h-6M0,0V-6m3,0h-6"></path>
     </g>
     <g transform="translate(238,491)">
      <path style="stroke: black; stroke-width: 1; fill: none;" d="M0,0V6m3,0h-6M0,0V-6m3,0h-6"></path>
     </g>
     <g transform="translate(574,445)">
      <path style="stroke: black; stroke-width: 1; fill: none;" d="M0,0V6m3,0h-6M0,0V-6m3,0h-6"></path>
     </g>
     <g transform="translate(138,539)">
      <path style="stroke: black; stroke-width: 1; fill: none;" d="M0,0V6m3,0h-6M0,0V-6m3,0h-6"></path>
     </g>
     <g transform="translate(730,376)">
      <path style="stroke: black; stroke-width: 1; fill: none;" d="M0,0V6m3,0h-6M0,0V-6m3,0h-6"></path>
     </g>
     <g transform="translate(738,377)">
      <path style="stroke: black; stroke-width: 1; fill: none;" d="M0,0V6m3,0h-6M0,0V-6m3,0h-6"></path>
     </g>
     <g transform="translate(481,458)">
      <path style="stroke: black; stroke-width: 1; fill: none;" d="M0,0V6m3,0h-6M0,0V-6m3,0h-6"></path>
     </g>
     <g transform="translate(211,504)">
      <path style="stroke: black; stroke-width: 1; fill: none;" d="M0,0V6m3,0h-6M0,0V-6m3,0h-6"></path>
     </g>
     <g transform="translate(222,483)">
      <path style="stroke: black; stroke-width: 1; fill: none;" d="M0,0V6m3,0h-6M0,0V-6m3,0h-6"></path>
     </g>
     <g transform="translate(145,534)">
      <path style="stroke: black; stroke-width: 1; fill: none;" d="M0,0V6m3,0h-6M0,0V-6m3,0h-6"></path>
     </g>
     <g transform="translate(100,572)">
      <path style="stroke: black; stroke-width: 1; fill: none;" d="M0,0V6m3,0h-6M0,0V-6m3,0h-6"></path>
     </g>
     <g transform="translate(444,465)">
      <path style="stroke: black; stroke-width: 1; fill: none;" d="M0,0V6m3,0h-6M0,0V-6m3,0h-6"></path>
     </g>
     <g transform="translate(179,512)">
      <path style="stroke: black; stroke-width: 1; fill: none;" d="M0,0V6m3,0h-6M0,0V-6m3,0h-6"></path>
     </g>
     <g transform="translate(334,466)">
      <path style="stroke: black; stroke-width: 1; fill: none;" d="M0,0V6m3,0h-6M0,0V-6m3,0h-6"></path>
     </g>
     <g transform="translate(346,457)">
      <path style="stroke: black; stroke-width: 1; fill: none;" d="M0,0V6m3,0h-6M0,0V-6m3,0h-6"></path>
     </g>
     <g transform="translate(205,495)">
      <path style="stroke: black; stroke-width: 1; fill: none;" d="M0,0V6m3,0h-6M0,0V-6m3,0h-6"></path>
     </g>
     <g transform="translate(555,449)">
      <path style="stroke: black; stroke-width: 1; fill: none;" d="M0,0V6m3,0h-6M0,0V-6m3,0h-6"></path>
     </g>
     <g transform="translate(461,450)">
      <path style="stroke: black; stroke-width: 1; fill: none;" d="M0,0V6m3,0h-6M0,0V-6m3,0h-6"></path>
     </g>
     <g transform="translate(754,350)">
      <path style="stroke: black; stroke-width: 1; fill: none;" d="M0,0V6m3,0h-6M0,0V-6m3,0h-6"></path>
     </g>
     <g transform="translate(548,456)">
      <path style="stroke: black; stroke-width: 1; fill: none;" d="M0,0V6m3,0h-6M0,0V-6m3,0h-6"></path>
     </g>
     <g transform="translate(639,431)">
      <path style="stroke: black; stroke-width: 1; fill: none;" d="M0,0V6m3,0h-6M0,0V-6m3,0h-6"></path>
     </g>
     <g transform="translate(139,543)">
      <path style="stroke: black; stroke-width: 1; fill: none;" d="M0,0V6m3,0h-6M0,0V-6m3,0h-6"></path>
     </g>
     <g transform="translate(633,433)">
      <path style="stroke: black; stroke-width: 1; fill: none;" d="M0,0V6m3,0h-6M0,0V-6m3,0h-6"></path>
     </g>
     <g transform="translate(571,456)">
      <path style="stroke: black; stroke-width: 1; fill: none;" d="M0,0V6m3,0h-6M0,0V-6m3,0h-6"></path>
     </g>
     <g transform="translate(94,583)">
      <path style="stroke: black; stroke-width: 1; fill: none;" d="M0,0V6m3,0h-6M0,0V-6m3,0h-6"></path>
     </g>
     <g transform="translate(304,469)">
      <path style="stroke: black; stroke-width: 1; fill: none;" d="M0,0V6m3,0h-6M0,0V-6m3,0h-6"></path>
     </g>
     <g transform="translate(262,478)">
      <path style="stroke: black; stroke-width: 1; fill: none;" d="M0,0V6m3,0h-6M0,0V-6m3,0h-6"></path>
     </g>
     <g transform="translate(143,540)">
      <path style="stroke: black; stroke-width: 1; fill: none;" d="M0,0V6m3,0h-6M0,0V-6m3,0h-6"></path>
     </g>
     <g transform="translate(703,394)">
      <path style="stroke: black; stroke-width: 1; fill: none;" d="M0,0V6m3,0h-6M0,0V-6m3,0h-6"></path>
     </g>
     <g transform="translate(596,445)">
      <path style="stroke: black; stroke-width: 1; fill: none;" d="M0,0V6m3,0h-6M0,0V-6m3,0h-6"></path>
     </g>
     <g transform="translate(672,407)">
      <path style="stroke: black; stroke-width: 1; fill: none;" d="M0,0V6m3,0h-6M0,0V-6m3,0h-6"></path>
     </g>
     <g transform="translate(466,463)">
      <path style="stroke: black; stroke-width: 1; fill: none;" d="M0,0V6m3,0h-6M0,0V-6m3,0h-6"></path>
     </g>
     <g transform="translate(771,346)">
      <path style="stroke: black; stroke-width: 1; fill: none;" d="M0,0V6m3,0h-6M0,0V-6m3,0h-6"></path>
     </g>
     <g transform="translate(522,454)">
      <path style="stroke: black; stroke-width: 1; fill: none;" d="M0,0V6m3,0h-6M0,0V-6m3,0h-6"></path>
     </g>
     <g transform="translate(256,484)">
      <path style="stroke: black; stroke-width: 1; fill: none;" d="M0,0V6m3,0h-6M0,0V-6m3,0h-6"></path>
     </g>
     <g transform="translate(543,450)">
      <path style="stroke: black; stroke-width: 1; fill: none;" d="M0,0V6m3,0h-6M0,0V-6m3,0h-6"></path>
     </g>
     <g transform="translate(836,258)">
      <path style="stroke: black; stroke-width: 1; fill: none;" d="M0,0V6m3,0h-6M0,0V-6m3,0h-6"></path>
     </g>
     <g transform="translate(154,533)">
      <path style="stroke: black; stroke-width: 1; fill: none;" d="M0,0V6m3,0h-6M0,0V-6m3,0h-6"></path>
     </g>
     <g transform="translate(780,336)">
      <path style="stroke: black; stroke-width: 1; fill: none;" d="M0,0V6m3,0h-6M0,0V-6m3,0h-6"></path>
     </g>
     <g transform="translate(384,461)">
      <path style="stroke: black; stroke-width: 1; fill: none;" d="M0,0V6m3,0h-6M0,0V-6m3,0h-6"></path>
     </g>
     <g transform="translate(829,277)">
      <path style="stroke: black; stroke-width: 1; fill: none;" d="M0,0V6m3,0h-6M0,0V-6m3,0h-6"></path>
     </g>
     <g transform="translate(641,434)">
      <path style="stroke: black; stroke-width: 1; fill: none;" d="M0,0V6m3,0h-6M0,0V-6m3,0h-6"></path>
     </g>
     <g transform="translate(499,448)">
      <path style="stroke: black; stroke-width: 1; fill: none;" d="M0,0V6m3,0h-6M0,0V-6m3,0h-6"></path>
     </g>
     <g transform="translate(369,468)">
      <path style="stroke: black; stroke-width: 1; fill: none;" d="M0,0V6m3,0h-6M0,0V-6m3,0h-6"></path>
     </g>
     <g transform="translate(223,491)">
      <path style="stroke: black; stroke-width: 1; fill: none;" d="M0,0V6m3,0h-6M0,0V-6m3,0h-6"></path>
     </g>
     <g transform="translate(107,568)">
      <path style="stroke: black; stroke-width: 1; fill: none;" d="M0,0V6m3,0h-6M0,0V-6m3,0h-6"></path>
     </g>
     <g transform="translate(251,478)">
      <path style="stroke: black; stroke-width: 1; fill: none;" d="M0,0V6m3,0h-6M0,0V-6m3,0h-6"></path>
     </g>
     <g transform="translate(326,465)">
      <path style="stroke: black; stroke-width: 1; fill: none;" d="M0,0V6m3,0h-6M0,0V-6m3,0h-6"></path>
     </g>
     <g transform="translate(676,418)">
      <path style="stroke: black; stroke-width: 1; fill: none;" d="M0,0V6m3,0h-6M0,0V-6m3,0h-6"></path>
     </g>
     <g transform="translate(352,469)">
      <path style="stroke: black; stroke-width: 1; fill: none;" d="M0,0V6m3,0h-6M0,0V-6m3,0h-6"></path>
     </g>
     <g transform="translate(501,459)">
      <path style="stroke: black; stroke-width: 1; fill: none;" d="M0,0V6m3,0h-6M0,0V-6m3,0h-6"></path>
     </g>
     <g transform="translate(387,463)">
      <path style="stroke: black; stroke-width: 1; fill: none;" d="M0,0V6m3,0h-6M0,0V-6m3,0h-6"></path>
     </g>
     <g transform="translate(609,435)">
      <path style="stroke: black; stroke-width: 1; fill: none;" d="M0,0V6m3,0h-6M0,0V-6m3,0h-6"></path>
     </g>
     <g transform="translate(163,533)">
      <path style="stroke: black; stroke-width: 1; fill: none;" d="M0,0V6m3,0h-6M0,0V-6m3,0h-6"></path>
     </g>
     <g transform="translate(266,488)">
      <path style="stroke: black; stroke-width: 1; fill: none;" d="M0,0V6m3,0h-6M0,0V-6m3,0h-6"></path>
     </g>
     <g transform="translate(419,472)">
      <path style="stroke: black; stroke-width: 1; fill: none;" d="M0,0V6m3,0h-6M0,0V-6m3,0h-6"></path>
     </g>
     <g transform="translate(312,470)">
      <path style="stroke: black; stroke-width: 1; fill: none;" d="M0,0V6m3,0h-6M0,0V-6m3,0h-6"></path>
     </g>
     <g transform="translate(499,459)">
      <path style="stroke: black; stroke-width: 1; fill: none;" d="M0,0V6m3,0h-6M0,0V-6m3,0h-6"></path>
     </g>
     <g transform="translate(393,454)">
      <path style="stroke: black; stroke-width: 1; fill: none;" d="M0,0V6m3,0h-6M0,0V-6m3,0h-6"></path>
     </g>
     <g transform="translate(635,438)">
      <path style="stroke: black; stroke-width: 1; fill: none;" d="M0,0V6m3,0h-6M0,0V-6m3,0h-6"></path>
     </g>
     <g transform="translate(300,476)">
      <path style="stroke: black; stroke-width: 1; fill: none;" d="M0,0V6m3,0h-6M0,0V-6m3,0h-6"></path>
     </g>
     <g transform="translate(273,477)">
      <path style="stroke: black; stroke-width: 1; fill: none;" d="M0,0V6m3,0h-6M0,0V-6m3,0h-6"></path>
     </g>
     <g transform="translate(497,458)">
      <path style="stroke: black; stroke-width: 1; fill: none;" d="M0,0V6m3,0h-6M0,0V-6m3,0h-6"></path>
     </g>
     <g transform="translate(520,457)">
      <path style="stroke: black; stroke-width: 1; fill: none;" d="M0,0V6m3,0h-6M0,0V-6m3,0h-6"></path>
     </g>
     <g transform="translate(411,464)">
      <path style="stroke: black; stroke-width: 1; fill: none;" d="M0,0V6m3,0h-6M0,0V-6m3,0h-6"></path>
     </g>
     <g transform="translate(835,262)">
      <path style="stroke: black; stroke-width: 1; fill: none;" d="M0,0V6m3,0h-6M0,0V-6m3,0h-6"></path>
     </g>
     <g transform="translate(699,403)">
      <path style="stroke: black; stroke-width: 1; fill: none;" d="M0,0V6m3,0h-6M0,0V-6m3,0h-6"></path>
     </g>
     <g transform="translate(848,250)">
      <path style="stroke: black; stroke-width: 1; fill: none;" d="M0,0V6m3,0h-6M0,0V-6m3,0h-6"></path>
     </g>
     <g transform="translate(661,414)">
      <path style="stroke: black; stroke-width: 1; fill: none;" d="M0,0V6m3,0h-6M0,0V-6m3,0h-6"></path>
     </g>
     <g transform="translate(714,391)">
      <path style="stroke: black; stroke-width: 1; fill: none;" d="M0,0V6m3,0h-6M0,0V-6m3,0h-6"></path>
     </g>
     <g transform="translate(741,373)">
      <path style="stroke: black; stroke-width: 1; fill: none;" d="M0,0V6m3,0h-6M0,0V-6m3,0h-6"></path>
     </g>
     <g transform="translate(383,459)">
      <path style="stroke: black; stroke-width: 1; fill: none;" d="M0,0V6m3,0h-6M0,0V-6m3,0h-6"></path>
     </g>
     <g transform="translate(549,447)">
      <path style="stroke: black; stroke-width: 1; fill: none;" d="M0,0V6m3,0h-6M0,0V-6m3,0h-6"></path>
     </g>
     <g transform="translate(736,365)">
      <path style="stroke: black; stroke-width: 1; fill: none;" d="M0,0V6m3,0h-6M0,0V-6m3,0h-6"></path>
     </g>
     <g transform="translate(531,450)">
      <path style="stroke: black; stroke-width: 1; fill: none;" d="M0,0V6m3,0h-6M0,0V-6m3,0h-6"></path>
     </g>
     <g transform="translate(532,454)">
      <path style="stroke: black; stroke-width: 1; fill: none;" d="M0,0V6m3,0h-6M0,0V-6m3,0h-6"></path>
     </g>
     <g transform="translate(724,388)">
      <path style="stroke: black; stroke-width: 1; fill: none;" d="M0,0V6m3,0h-6M0,0V-6m3,0h-6"></path>
     </g>
     <g transform="translate(749,351)">
      <path style="stroke: black; stroke-width: 1; fill: none;" d="M0,0V6m3,0h-6M0,0V-6m3,0h-6"></path>
     </g>
     <g transform="translate(90,583)">
      <path style="stroke: black; stroke-width: 1; fill: none;" d="M0,0V6m3,0h-6M0,0V-6m3,0h-6"></path>
     </g>
     <g transform="translate(124,559)">
      <path style="stroke: black; stroke-width: 1; fill: none;" d="M0,0V6m3,0h-6M0,0V-6m3,0h-6"></path>
     </g>
     <g transform="translate(144,535)">
      <path style="stroke: black; stroke-width: 1; fill: none;" d="M0,0V6m3,0h-6M0,0V-6m3,0h-6"></path>
     </g>
     <g transform="translate(215,498)">
      <path style="stroke: black; stroke-width: 1; fill: none;" d="M0,0V6m3,0h-6M0,0V-6m3,0h-6"></path>
     </g>
     <g transform="translate(685,405)">
      <path style="stroke: black; stroke-width: 1; fill: none;" d="M0,0V6m3,0h-6M0,0V-6m3,0h-6"></path>
     </g>
     <g transform="translate(708,397)">
      <path style="stroke: black; stroke-width: 1; fill: none;" d="M0,0V6m3,0h-6M0,0V-6m3,0h-6"></path>
     </g>
     <g transform="translate(826,267)">
      <path style="stroke: black; stroke-width: 1; fill: none;" d="M0,0V6m3,0h-6M0,0V-6m3,0h-6"></path>
     </g>
     <g transform="translate(413,401)">
      <path style="stroke: black; stroke-width: 1; fill: none;" d="M0,0V6m3,0h-6M0,0V-6m3,0h-6"></path>
     </g>
     <g transform="translate(586,383)">
      <path style="stroke: black; stroke-width: 1; fill: none;" d="M0,0V6m3,0h-6M0,0V-6m3,0h-6"></path>
     </g>
     <g transform="translate(680,344)">
      <path style="stroke: black; stroke-width: 1; fill: none;" d="M0,0V6m3,0h-6M0,0V-6m3,0h-6"></path>
     </g>
     <g transform="translate(279,472)">
      <path style="stroke: black; stroke-width: 1; fill: none;" d="M0,0V6m3,0h-6M0,0V-6m3,0h-6"></path>
     </g>
     <g transform="translate(652,310)">
      <path style="stroke: black; stroke-width: 1; fill: none;" d="M0,0V6m3,0h-6M0,0V-6m3,0h-6"></path>
     </g>
     <g transform="translate(432,228)">
      <path style="stroke: black; stroke-width: 1; fill: none;" d="M0,0V6m3,0h-6M0,0V-6m3,0h-6"></path>
     </g>
     <g transform="translate(611,416)">
      <path style="stroke: black; stroke-width: 1; fill: none;" d="M0,0V6m3,0h-6M0,0V-6m3,0h-6"></path>
     </g>
     <g transform="translate(448,358)">
      <path style="stroke: black; stroke-width: 1; fill: none;" d="M0,0V6m3,0h-6M0,0V-6m3,0h-6"></path>
     </g>
     <g transform="translate(602,152)">
      <path style="stroke: black; stroke-width: 1; fill: none;" d="M0,0V6m3,0h-6M0,0V-6m3,0h-6"></path>
     </g>
     <g transform="translate(385,373)">
      <path style="stroke: black; stroke-width: 1; fill: none;" d="M0,0V6m3,0h-6M0,0V-6m3,0h-6"></path>
     </g>
     <g transform="translate(422,339)">
      <path style="stroke: black; stroke-width: 1; fill: none;" d="M0,0V6m3,0h-6M0,0V-6m3,0h-6"></path>
     </g>
     <g transform="translate(559,373)">
      <path style="stroke: black; stroke-width: 1; fill: none;" d="M0,0V6m3,0h-6M0,0V-6m3,0h-6"></path>
     </g>
     <g transform="translate(392,413)">
      <path style="stroke: black; stroke-width: 1; fill: none;" d="M0,0V6m3,0h-6M0,0V-6m3,0h-6"></path>
     </g>
     <g transform="translate(281,404)">
      <path style="stroke: black; stroke-width: 1; fill: none;" d="M0,0V6m3,0h-6M0,0V-6m3,0h-6"></path>
     </g>
     <g transform="translate(504,311)">
      <path style="stroke: black; stroke-width: 1; fill: none;" d="M0,0V6m3,0h-6M0,0V-6m3,0h-6"></path>
     </g>
     <g transform="translate(325,392)">
      <path style="stroke: black; stroke-width: 1; fill: none;" d="M0,0V6m3,0h-6M0,0V-6m3,0h-6"></path>
     </g>
     <g transform="translate(506,310)">
      <path style="stroke: black; stroke-width: 1; fill: none;" d="M0,0V6m3,0h-6M0,0V-6m3,0h-6"></path>
     </g>
     <g transform="translate(589,431)">
      <path style="stroke: black; stroke-width: 1; fill: none;" d="M0,0V6m3,0h-6M0,0V-6m3,0h-6"></path>
     </g>
     <g transform="translate(340,445)">
      <path style="stroke: black; stroke-width: 1; fill: none;" d="M0,0V6m3,0h-6M0,0V-6m3,0h-6"></path>
     </g>
     <g transform="translate(482,368)">
      <path style="stroke: black; stroke-width: 1; fill: none;" d="M0,0V6m3,0h-6M0,0V-6m3,0h-6"></path>
     </g>
     <g transform="translate(671,374)">
      <path style="stroke: black; stroke-width: 1; fill: none;" d="M0,0V6m3,0h-6M0,0V-6m3,0h-6"></path>
     </g>
     <g transform="translate(596,444)">
      <path style="stroke: black; stroke-width: 1; fill: none;" d="M0,0V6m3,0h-6M0,0V-6m3,0h-6"></path>
     </g>
     <g transform="translate(661,311)">
      <path style="stroke: black; stroke-width: 1; fill: none;" d="M0,0V6m3,0h-6M0,0V-6m3,0h-6"></path>
     </g>
     <g transform="translate(286,471)">
      <path style="stroke: black; stroke-width: 1; fill: none;" d="M0,0V6m3,0h-6M0,0V-6m3,0h-6"></path>
     </g>
     <g transform="translate(547,334)">
      <path style="stroke: black; stroke-width: 1; fill: none;" d="M0,0V6m3,0h-6M0,0V-6m3,0h-6"></path>
     </g>
     <g transform="translate(519,460)">
      <path style="stroke: black; stroke-width: 1; fill: none;" d="M0,0V6m3,0h-6M0,0V-6m3,0h-6"></path>
     </g>
     <g transform="translate(673,360)">
      <path style="stroke: black; stroke-width: 1; fill: none;" d="M0,0V6m3,0h-6M0,0V-6m3,0h-6"></path>
     </g>
     <g transform="translate(481,236)">
      <path style="stroke: black; stroke-width: 1; fill: none;" d="M0,0V6m3,0h-6M0,0V-6m3,0h-6"></path>
     </g>
     <g transform="translate(473,420)">
      <path style="stroke: black; stroke-width: 1; fill: none;" d="M0,0V6m3,0h-6M0,0V-6m3,0h-6"></path>
     </g>
     <g transform="translate(358,417)">
      <path style="stroke: black; stroke-width: 1; fill: none;" d="M0,0V6m3,0h-6M0,0V-6m3,0h-6"></path>
     </g>
     <g transform="translate(598,349)">
      <path style="stroke: black; stroke-width: 1; fill: none;" d="M0,0V6m3,0h-6M0,0V-6m3,0h-6"></path>
     </g>
     <g transform="translate(445,359)">
      <path style="stroke: black; stroke-width: 1; fill: none;" d="M0,0V6m3,0h-6M0,0V-6m3,0h-6"></path>
     </g>
     <g transform="translate(515,188)">
      <path style="stroke: black; stroke-width: 1; fill: none;" d="M0,0V6m3,0h-6M0,0V-6m3,0h-6"></path>
     </g>
     <g transform="translate(671,273)">
      <path style="stroke: black; stroke-width: 1; fill: none;" d="M0,0V6m3,0h-6M0,0V-6m3,0h-6"></path>
     </g>
     <g transform="translate(410,161)">
      <path style="stroke: black; stroke-width: 1; fill: none;" d="M0,0V6m3,0h-6M0,0V-6m3,0h-6"></path>
     </g>
     <g transform="translate(682,393)">
      <path style="stroke: black; stroke-width: 1; fill: none;" d="M0,0V6m3,0h-6M0,0V-6m3,0h-6"></path>
     </g>
     <g transform="translate(590,147)">
      <path style="stroke: black; stroke-width: 1; fill: none;" d="M0,0V6m3,0h-6M0,0V-6m3,0h-6"></path>
     </g>
     <g transform="translate(374,453)">
      <path style="stroke: black; stroke-width: 1; fill: none;" d="M0,0V6m3,0h-6M0,0V-6m3,0h-6"></path>
     </g>
     <g transform="translate(588,434)">
      <path style="stroke: black; stroke-width: 1; fill: none;" d="M0,0V6m3,0h-6M0,0V-6m3,0h-6"></path>
     </g>
     <g transform="translate(558,198)">
      <path style="stroke: black; stroke-width: 1; fill: none;" d="M0,0V6m3,0h-6M0,0V-6m3,0h-6"></path>
     </g>
     <g transform="translate(396,284)">
      <path style="stroke: black; stroke-width: 1; fill: none;" d="M0,0V6m3,0h-6M0,0V-6m3,0h-6"></path>
     </g>
     <g transform="translate(402,390)">
      <path style="stroke: black; stroke-width: 1; fill: none;" d="M0,0V6m3,0h-6M0,0V-6m3,0h-6"></path>
     </g>
     <g transform="translate(368,262)">
      <path style="stroke: black; stroke-width: 1; fill: none;" d="M0,0V6m3,0h-6M0,0V-6m3,0h-6"></path>
     </g>
     <g transform="translate(654,414)">
      <path style="stroke: black; stroke-width: 1; fill: none;" d="M0,0V6m3,0h-6M0,0V-6m3,0h-6"></path>
     </g>
     <g transform="translate(591,335)">
      <path style="stroke: black; stroke-width: 1; fill: none;" d="M0,0V6m3,0h-6M0,0V-6m3,0h-6"></path>
     </g>
     <path d="M200,496h1m74,-14h1M704,390h1M561,469h1M880,189h1M111,561h1M391,472h1M119,554h1M496,460h1m-151,2h1m-77,23h1m-97,28h1M705,392h1m59,-46h1M457,459h1M630,438h1M448,465h1M832,259h1M481,477h1M119,552h1M664,412h1M380,454h1M144,542h1M248,482h1m17,-3h1M836,253h1M448,458h1M751,354h1M351,470h1m28,-2h1M579,454h1M753,362h1m68,-81h1M645,424h1M395,469h1M806,295h1M681,408h1M323,474h1m210,-8h1m4,-5h1M498,447h1M844,236h1M503,468h1M402,450h1m-60,18h1m72,-5h1M101,573h1M445,458h1M614,437h1M749,357h1M463,462h1M721,386h1M405,457h1M771,338h1M352,466h1M610,444h1M750,358h1m65,-76h1m-88,99h1m-46,29h1M798,308h1m-62,67h1M633,436h1M249,482h1M523,454h1M212,501h1M648,427h1M753,361h1M178,506h1M608,446h1M151,530h1M374,476h1M552,454h1m-159,5h1m77,13h1M357,465h1M127,542h1M776,323h1M203,509h1M319,469h1M680,420h1M509,455h1m-124,0h1M80,606h1M853,231h1M122,544h1M336,464h1m52,4h1M233,491h1M561,447h1M305,472h1M574,445h1M832,276h1M407,470h1M621,427h1m-78,24h1M681,409h1M461,462h1m-171,7h1M811,297h1m-65,65h1m-66,48h1m90,-71h1M638,429h1M403,454h1M230,485h1M612,441h1M262,484h1m21,-19h1M584,439h1M759,354h1M475,455h1M120,558h1M256,490h1M615,439h1M264,484h1m-27,7h1M574,445h1M138,539h1M730,376h1m7,1h1M481,458h1M211,504h1m10,-21h1m-78,51h1m-46,38h1M444,465h1M179,512h1M334,466h1m11,-9h1M205,495h1M555,449h1m-95,1h1M754,350h1M548,456h1m90,-25h1M139,543h1M633,433h1m-63,23h1M94,583h1M304,469h1m-43,9h1M143,540h1M703,394h1M596,445h1m75,-38h1M466,463h1M771,346h1M522,454h1M256,484h1M543,450h1M836,258h1M154,533h1M780,336h1M384,461h1M829,277h1M641,434h1M499,448h1M369,468h1M223,491h1M107,568h1M251,478h1m74,-13h1M676,418h1M352,469h1M501,459h1m-115,4h1M609,435h1M163,533h1M266,488h1M419,472h1M312,470h1M499,459h1M393,454h1M635,438h1M300,476h1m-28,1h1M497,458h1m22,-1h1m-110,7h1M835,262h1M699,403h1M848,250h1M661,414h1m52,-23h1m26,-18h1M383,459h1M549,447h1M736,365h1M531,450h1m0,4h1M724,388h1m24,-37h1M90,583h1m33,-24h1m19,-24h1m70,-37h1M685,405h1m22,-8h1M826,267h1M413,401h1M586,383h1m93,-39h1M279,472h1M652,310h1M432,228h1M611,416h1M448,358h1M602,152h1M385,373h1m36,-34h1m136,34h1M392,413h1M281,404h1M504,311h1M325,392h1M506,310h1m82,121h1M340,445h1M482,368h1m188,6h1m-76,70h1M661,311h1M286,471h1M547,334h1M519,460h1M673,360h1M481,236h1m-9,184h1M358,417h1M598,349h1M445,359h1M515,188h1m155,85h1M410,161h1M682,393h1M590,147h1M374,453h1M588,434h1M558,198h1M396,284h1m5,106h1M368,262h1M654,414h1M591,335h1" style="stroke: black; fill: none;"></path>
    </g>
    <g>
     <path d="M0,847.77C0.94,845.15,7.68,826.74,9.60,821.60S17.28,801.34,19.20,796.40S26.88,776.91,28.80,772.15S36.48,753.40,38.40,748.83S46.08,730.82,48.00,726.43S55.68,709.14,57.60,704.92S65.28,688.34,67.20,684.30S74.88,668.40,76.80,664.53S84.48,649.31,86.40,645.61S94.08,631.05,96,627.51S103.68,613.59,105.60,610.22S113.28,596.94,115.20,593.71S122.88,581.05,124.80,577.98S132.48,565.92,134.40,563.00S142.08,551.54,144.00,548.76S151.68,537.87,153.60,535.23S161.28,524.90,163.20,522.41S170.88,512.62,172.80,510.26S180.48,501.01,182.40,498.78S190.08,490.05,192.00,487.94S199.68,479.71,201.60,477.73S209.28,469.99,211.20,468.13S218.88,460.87,220.80,459.12S228.48,452.32,230.40,450.69S238.08,444.33,240.00,442.81S247.68,436.89,249.60,435.47S257.28,429.96,259.20,428.65S266.88,423.55,268.80,422.33S276.48,417.62,278.40,416.49S286.08,412.15,288.00,411.13S295.68,407.15,297.60,406.20S305.28,402.57,307.20,401.71S314.88,398.41,316.80,397.63S324.48,394.65,326.40,393.95S334.08,391.27,336.00,390.64S343.68,388.25,345.60,387.69S353.28,385.57,355.20,385.08S362.88,383.22,364.80,382.80S372.48,381.18,374.40,380.81S382.08,379.43,384.00,379.12S391.68,377.95,393.60,377.69S401.28,376.72,403.20,376.51S410.88,375.74,412.80,375.57S420.48,374.96,422.40,374.84S430.08,374.39,432.00,374.31S439.68,374.01,441.60,373.95S449.28,373.78,451.20,373.76S458.88,373.71,460.80,373.71S468.48,373.76,470.40,373.79S478.08,373.92,480.00,373.97S487.68,374.18,489.60,374.24S497.28,374.51,499.20,374.58S506.88,374.90,508.80,374.98S516.48,375.32,518.40,375.41S526.08,375.77,528.00,375.86S535.68,376.22,537.60,376.31S545.28,376.65,547.20,376.74S554.88,377.06,556.80,377.13S564.48,377.41,566.40,377.47S574.08,377.69,576.00,377.74S583.68,377.89,585.60,377.91S593.28,377.98,595.20,377.98S602.88,377.95,604.80,377.92S612.48,377.78,614.40,377.72S622.08,377.45,624.00,377.36S631.68,376.94,633.60,376.81S641.28,376.24,643.20,376.07S650.88,375.33,652.80,375.11S660.48,374.18,662.40,373.92S670.08,372.79,672.00,372.48S679.68,371.13,681.60,370.76S689.28,369.19,691.20,368.76S698.88,366.95,700.80,366.45S708.48,364.38,710.40,363.82S718.08,361.48,720.00,360.85S727.68,358.22,729.60,357.52S737.28,354.59,739.20,353.81S746.88,350.57,748.80,349.71S756.48,346.14,758.40,345.19S766.08,341.28,768.00,340.24S775.68,335.97,777.60,334.84S785.28,330.20,787.20,328.98S794.88,323.95,796.80,322.63S804.48,317.20,806.40,315.78S814.08,309.93,816.00,308.40S823.68,302.13,825.60,300.49S833.28,293.77,835.20,292.02S842.88,284.84,844.80,282.97S852.48,275.33,854.40,273.34S862.08,265.20,864.00,263.09S871.68,254.45,873.60,252.21S881.28,243.06,883.20,240.69S890.88,231.01,892.80,228.50S900.48,218.28,902.40,215.63S910.08,204.85,912.00,202.06S919.68,190.70,921.60,187.77S929.28,175.83,931.20,172.75S938.88,160.20,940.80,156.97S948.48,143.81,950.40,140.42S959.06,124.82,960.00,123.07" style="fill: none; stroke: #0000ff; stroke-width: 2;"></path>
    </g>
    <g>
     <path d="M0,701.77C0.94,700.24,7.68,689.55,9.60,686.58S17.28,674.89,19.20,672.05S26.88,660.88,28.80,658.17S36.48,647.51,38.40,644.92S46.08,634.76,48.00,632.29S55.68,622.62,57.60,620.27S65.28,611.07,67.20,608.84S74.88,600.10,76.80,597.98S84.48,589.69,86.40,587.68S94.08,579.82,96,577.92S103.68,570.49,105.60,568.70S113.28,561.68,115.20,559.98S122.88,553.36,124.80,551.77S132.48,545.54,134.40,544.04S142.08,538.18,144.00,536.77S151.68,531.28,153.60,529.96S161.28,524.82,163.20,523.59S170.88,518.79,172.80,517.64S180.48,513.16,182.40,512.09S190.08,507.94,192.00,506.94S199.68,503.09,201.60,502.17S209.28,498.60,211.20,497.76S218.88,494.47,220.80,493.69S228.48,490.67,230.40,489.96S238.08,487.19,240.00,486.54S247.68,484.02,249.60,483.42S257.28,481.13,259.20,480.59S266.88,478.52,268.80,478.03S276.48,476.17,278.40,475.73S286.08,474.06,288.00,473.67S295.68,472.18,297.60,471.83S305.28,470.51,307.20,470.20S314.88,469.04,316.80,468.77S324.48,467.75,326.40,467.52S334.08,466.63,336.00,466.43S343.68,465.67,345.60,465.49S353.28,464.84,355.20,464.69S362.88,464.13,364.80,464.01S372.48,463.53,374.40,463.43S382.08,463.03,384.00,462.94S391.68,462.60,393.60,462.52S401.28,462.23,403.20,462.16S410.88,461.91,412.80,461.84S420.48,461.61,422.40,461.56S430.08,461.34,432.00,461.28S439.68,461.07,441.60,461.01S449.28,460.78,451.20,460.72S458.88,460.46,460.80,460.39S468.48,460.10,470.40,460.02S478.08,459.68,480.00,459.58S487.68,459.18,489.60,459.07S497.28,458.60,499.20,458.46S506.88,457.91,508.80,457.75S516.48,457.09,518.40,456.91S526.08,456.15,528.00,455.94S535.68,455.05,537.60,454.81S545.28,453.79,547.20,453.51S554.88,452.34,556.80,452.03S564.48,450.70,566.40,450.34S574.08,448.85,576.00,448.45S583.68,446.77,585.60,446.32S593.28,444.45,595.20,443.95S602.88,441.88,604.80,441.32S612.48,439.03,614.40,438.42S622.08,435.89,624.00,435.23S631.68,432.46,633.60,431.73S641.28,428.70,643.20,427.90S650.88,424.62,652.80,423.75S660.48,420.18,662.40,419.24S670.08,415.38,672.00,414.37S679.68,410.21,681.60,409.12S689.28,404.64,691.20,403.47S698.88,398.66,700.80,397.40S708.48,392.26,710.40,390.92S718.08,385.42,720.00,383.99S727.68,378.12,729.60,376.60S737.28,370.36,739.20,368.74S746.88,362.12,748.80,360.40S756.48,353.37,758.40,351.55S766.08,344.11,768.00,342.18S775.68,334.32,777.60,332.28S785.28,323.98,787.20,321.84S794.88,313.09,796.80,310.83S804.48,301.62,806.40,299.24S814.08,289.56,816.00,287.06S823.68,276.89,825.60,274.27S833.28,263.60,835.20,260.86S842.88,249.68,844.80,246.81S852.48,235.11,854.40,232.10S862.08,219.87,864.00,216.72S871.68,203.95,873.60,200.66S881.28,187.33,883.20,183.91S890.88,170.00,892.80,166.43S900.48,151.94,902.40,148.23S910.08,133.15,912.00,129.28S919.68,113.59,921.60,109.57S929.28,93.26,931.20,89.09S938.88,72.15,940.80,67.81S948.48,50.23,950.40,45.73S959.05,25.13,960.00,22.83" style="fill: none; stroke: #ff0000; stroke-width: 2;"></path>
    </g>
   </svg>
   <g>
    <g transform="translate(0,640)">
     <path d="M0,0h960M14,-12V0M35,-12V0M55,-12V0M75,-24V0M95,-12V0M116,-12V0M136,-12V0M156,-12V0M176,-24V0M197,-12V0M217,-12V0M237,-12V0M257,-12V0M278,-24V0M298,-12V0M318,-12V0M338,-12V0M359,-12V0M379,-24V0M399,-12V0M419,-12V0M440,-12V0M460,-12V0M480,-24V0M500,-12V0M521,-12V0M541,-12V0M561,-12V0M581,-24V0M602,-12V0M622,-12V0M642,-12V0M662,-12V0M683,-24V0M703,-12V0M723,-12V0M743,-12V0M764,-12V0M784,-24V0M804,-12V0M824,-12V0M845,-12V0M865,-12V0M885,-24V0M905,-12V0M926,-12V0M946,-12V0" style="stroke: black; stroke-width: 1;"></path>
     <g font-family="Arial" font-size="28" space="preserve" fill="black" text-anchor="middle">
      <text dy=".8em" transform="translate(75,6)">
       -2
      </text>
      <text dy=".8em" transform="translate(176,6)">
       -1.5
      </text>
      <text dy=".8em" transform="translate(278,6)">
       -1
      </text>
      <text dy=".8em" transform="translate(379,6)">
       -0.5
      </text>
      <text dy=".8em" transform="translate(480,6)">
       0
      </text>
      <text dy=".8em" transform="translate(581,6)">
       0.5
      </text>
      <text dy=".8em" transform="translate(683,6)">
       1
      </text>
      <text dy=".8em" transform="translate(784,6)">
       1.5
      </text>
      <text dy=".8em" transform="translate(885,6)">
       2
      </text>
     </g>
    </g>
    <g>
     <path d="M0,0v640M18,640H0M18,611H0M36,582H0M18,553H0M18,524H0M18,495H0M36,465H0M18,436H0M18,407H0M18,378H0M36,349H0M18,320H0M18,291H0M18,262H0M36,233H0M18,204H0M18,175H0M18,145H0M36,116H0M18,87H0M18,58H0M18,29H0M36,0H0" style="stroke: black; stroke-width: 1;"></path>
     <g font-family="Arial" font-size="28" space="preserve" fill="black" text-anchor="end">
      <text dy=".4em" transform="translate(-4,582)">
       -20
      </text>
      <text dy=".4em" transform="translate(-4,465)">
       0
      </text>
      <text dy=".4em" transform="translate(-4,349)">
       20
      </text>
      <text dy=".4em" transform="translate(-4,233)">
       40
      </text>
      <text dy=".4em" transform="translate(-4,116)">
       60
      </text>
      <text dy=".4em" transform="translate(-4)">
       80
      </text>
     </g>
    </g>
   </g>
  </g>
  <g transform="translate(120,4)" font-family="Arial" font-size="40" space="preserve">
   <text fill="black" text-anchor="middle" dy=".8em" transform="translate(480)">
    Graph
   </text>
  </g>
  <g transform="translate(720,88)" font-family="Arial" font-size="18" space="preserve">
   <path d="M0,0H348V72H0Z" style="fill: white; stroke: black; stroke-width: 1;"></path>
   <path d="M10,19H77" style="stroke: #0000ff; stroke-width: 2;"></path>
   <text fill="black" text-anchor="start" dy=".4em" transform="translate(87,19)">
    Ordinary least squares
   </text>
   <path d="M10,53H77" style="stroke: #ff0000; stroke-width: 2;"></path>
   <text fill="black" text-anchor="start" dy=".4em" transform="translate(87,53)">
    LTS regression
   </text>
  </g>
 </g>
</svg>