<svg xmlns="http://www.w3.org/2000/svg" width="698" height="475" viewBox="0 0 698 475" preserveAspectRatio="none">
 <path d="M0,0H698V475H0Z" style="fill: white;"></path>
 <g>
  <g transform="translate(70,48)">
   <path d="M0,0H558V380H0Z" style="fill: white; stroke: black; stroke-width: 1;"></path>
   <svg x="0" y="0" overflow="hidden" width="558" height="380" viewBox="0 0 558 380">
    <g>
     <g transform="translate(116,294)">
      <path style="stroke: black; stroke-width: 1; fill: none;" d="M0,0V3m3,0h-6M0,0V-3m3,0h-6"></path>
     </g>
     <g transform="translate(160,286)">
      <path style="stroke: black; stroke-width: 1; fill: none;" d="M0,0V3m3,0h-6M0,0V-3m3,0h-6"></path>
     </g>
     <g transform="translate(409,232)">
      <path style="stroke: black; stroke-width: 1; fill: none;" d="M0,0V3m3,0h-6M0,0V-3m3,0h-6"></path>
     </g>
     <g transform="translate(326,278)">
      <path style="stroke: black; stroke-width: 1; fill: none;" d="M0,0V3m3,0h-6M0,0V-3m3,0h-6"></path>
     </g>
     <g transform="translate(512,112)">
      <path style="stroke: black; stroke-width: 1; fill: none;" d="M0,0V3m3,0h-6M0,0V-3m3,0h-6"></path>
     </g>
     <g transform="translate(65,333)">
      <path style="stroke: black; stroke-width: 1; fill: none;" d="M0,0V3m3,0h-6M0,0V-3m3,0h-6"></path>
     </g>
     <g transform="translate(227,280)">
      <path style="stroke: black; stroke-width: 1; fill: none;" d="M0,0V3m3,0h-6M0,0V-3m3,0h-6"></path>
     </g>
     <g transform="translate(69,329)">
      <path style="stroke: black; stroke-width: 1; fill: none;" d="M0,0V3m3,0h-6M0,0V-3m3,0h-6"></path>
     </g>
     <g transform="translate(288,273)">
      <path style="stroke: black; stroke-width: 1; fill: none;" d="M0,0V3m3,0h-6M0,0V-3m3,0h-6"></path>
     </g>
     <g transform="translate(201,275)">
      <path style="stroke: black; stroke-width: 1; fill: none;" d="M0,0V3m3,0h-6M0,0V-3m3,0h-6"></path>
     </g>
     <g transform="translate(157,288)">
      <path style="stroke: black; stroke-width: 1; fill: none;" d="M0,0V3m3,0h-6M0,0V-3m3,0h-6"></path>
     </g>
     <g transform="translate(101,305)">
      <path style="stroke: black; stroke-width: 1; fill: none;" d="M0,0V3m3,0h-6M0,0V-3m3,0h-6"></path>
     </g>
     <g transform="translate(410,233)">
      <path style="stroke: black; stroke-width: 1; fill: none;" d="M0,0V3m3,0h-6M0,0V-3m3,0h-6"></path>
     </g>
     <g transform="translate(445,205)">
      <path style="stroke: black; stroke-width: 1; fill: none;" d="M0,0V3m3,0h-6M0,0V-3m3,0h-6"></path>
     </g>
     <g transform="translate(265,272)">
      <path style="stroke: black; stroke-width: 1; fill: none;" d="M0,0V3m3,0h-6M0,0V-3m3,0h-6"></path>
     </g>
     <g transform="translate(366,260)">
      <path style="stroke: black; stroke-width: 1; fill: none;" d="M0,0V3m3,0h-6M0,0V-3m3,0h-6"></path>
     </g>
     <g transform="translate(260,276)">
      <path style="stroke: black; stroke-width: 1; fill: none;" d="M0,0V3m3,0h-6M0,0V-3m3,0h-6"></path>
     </g>
     <g transform="translate(484,154)">
      <path style="stroke: black; stroke-width: 1; fill: none;" d="M0,0V3m3,0h-6M0,0V-3m3,0h-6"></path>
     </g>
     <g transform="translate(280,283)">
      <path style="stroke: black; stroke-width: 1; fill: none;" d="M0,0V3m3,0h-6M0,0V-3m3,0h-6"></path>
     </g>
     <g transform="translate(69,328)">
      <path style="stroke: black; stroke-width: 1; fill: none;" d="M0,0V3m3,0h-6M0,0V-3m3,0h-6"></path>
     </g>
     <g transform="translate(386,245)">
      <path style="stroke: black; stroke-width: 1; fill: none;" d="M0,0V3m3,0h-6M0,0V-3m3,0h-6"></path>
     </g>
     <g transform="translate(221,270)">
      <path style="stroke: black; stroke-width: 1; fill: none;" d="M0,0V3m3,0h-6M0,0V-3m3,0h-6"></path>
     </g>
     <g transform="translate(84,322)">
      <path style="stroke: black; stroke-width: 1; fill: none;" d="M0,0V3m3,0h-6M0,0V-3m3,0h-6"></path>
     </g>
     <g transform="translate(144,286)">
      <path style="stroke: black; stroke-width: 1; fill: none;" d="M0,0V3m3,0h-6M0,0V-3m3,0h-6"></path>
     </g>
     <g transform="translate(155,285)">
      <path style="stroke: black; stroke-width: 1; fill: none;" d="M0,0V3m3,0h-6M0,0V-3m3,0h-6"></path>
     </g>
     <g transform="translate(486,150)">
      <path style="stroke: black; stroke-width: 1; fill: none;" d="M0,0V3m3,0h-6M0,0V-3m3,0h-6"></path>
     </g>
     <g transform="translate(260,272)">
      <path style="stroke: black; stroke-width: 1; fill: none;" d="M0,0V3m3,0h-6M0,0V-3m3,0h-6"></path>
     </g>
     <g transform="translate(436,210)">
      <path style="stroke: black; stroke-width: 1; fill: none;" d="M0,0V3m3,0h-6M0,0V-3m3,0h-6"></path>
     </g>
     <g transform="translate(204,279)">
      <path style="stroke: black; stroke-width: 1; fill: none;" d="M0,0V3m3,0h-6M0,0V-3m3,0h-6"></path>
     </g>
     <g transform="translate(221,278)">
      <path style="stroke: black; stroke-width: 1; fill: none;" d="M0,0V3m3,0h-6M0,0V-3m3,0h-6"></path>
     </g>
     <g transform="translate(337,270)">
      <path style="stroke: black; stroke-width: 1; fill: none;" d="M0,0V3m3,0h-6M0,0V-3m3,0h-6"></path>
     </g>
     <g transform="translate(438,215)">
      <path style="stroke: black; stroke-width: 1; fill: none;" d="M0,0V3m3,0h-6M0,0V-3m3,0h-6"></path>
     </g>
     <g transform="translate(478,167)">
      <path style="stroke: black; stroke-width: 1; fill: none;" d="M0,0V3m3,0h-6M0,0V-3m3,0h-6"></path>
     </g>
     <g transform="translate(375,252)">
      <path style="stroke: black; stroke-width: 1; fill: none;" d="M0,0V3m3,0h-6M0,0V-3m3,0h-6"></path>
     </g>
     <g transform="translate(230,278)">
      <path style="stroke: black; stroke-width: 1; fill: none;" d="M0,0V3m3,0h-6M0,0V-3m3,0h-6"></path>
     </g>
     <g transform="translate(469,175)">
      <path style="stroke: black; stroke-width: 1; fill: none;" d="M0,0V3m3,0h-6M0,0V-3m3,0h-6"></path>
     </g>
     <g transform="translate(396,242)">
      <path style="stroke: black; stroke-width: 1; fill: none;" d="M0,0V3m3,0h-6M0,0V-3m3,0h-6"></path>
     </g>
     <g transform="translate(188,281)">
      <path style="stroke: black; stroke-width: 1; fill: none;" d="M0,0V3m3,0h-6M0,0V-3m3,0h-6"></path>
     </g>
     <g transform="translate(310,277)">
      <path style="stroke: black; stroke-width: 1; fill: none;" d="M0,0V3m3,0h-6M0,0V-3m3,0h-6"></path>
     </g>
     <g transform="translate(313,274)">
      <path style="stroke: black; stroke-width: 1; fill: none;" d="M0,0V3m3,0h-6M0,0V-3m3,0h-6"></path>
     </g>
     <g transform="translate(290,266)">
      <path style="stroke: black; stroke-width: 1; fill: none;" d="M0,0V3m3,0h-6M0,0V-3m3,0h-6"></path>
     </g>
     <g transform="translate(491,140)">
      <path style="stroke: black; stroke-width: 1; fill: none;" d="M0,0V3m3,0h-6M0,0V-3m3,0h-6"></path>
     </g>
     <g transform="translate(292,278)">
      <path style="stroke: black; stroke-width: 1; fill: none;" d="M0,0V3m3,0h-6M0,0V-3m3,0h-6"></path>
     </g>
     <g transform="translate(234,267)">
      <path style="stroke: black; stroke-width: 1; fill: none;" d="M0,0V3m3,0h-6M0,0V-3m3,0h-6"></path>
     </g>
     <g transform="translate(200,278)">
      <path style="stroke: black; stroke-width: 1; fill: none;" d="M0,0V3m3,0h-6M0,0V-3m3,0h-6"></path>
     </g>
     <g transform="translate(242,275)">
      <path style="stroke: black; stroke-width: 1; fill: none;" d="M0,0V3m3,0h-6M0,0V-3m3,0h-6"></path>
     </g>
     <g transform="translate(59,340)">
      <path style="stroke: black; stroke-width: 1; fill: none;" d="M0,0V3m3,0h-6M0,0V-3m3,0h-6"></path>
     </g>
     <g transform="translate(259,272)">
      <path style="stroke: black; stroke-width: 1; fill: none;" d="M0,0V3m3,0h-6M0,0V-3m3,0h-6"></path>
     </g>
     <g transform="translate(357,260)">
      <path style="stroke: black; stroke-width: 1; fill: none;" d="M0,0V3m3,0h-6M0,0V-3m3,0h-6"></path>
     </g>
     <g transform="translate(435,212)">
      <path style="stroke: black; stroke-width: 1; fill: none;" d="M0,0V3m3,0h-6M0,0V-3m3,0h-6"></path>
     </g>
     <g transform="translate(269,274)">
      <path style="stroke: black; stroke-width: 1; fill: none;" d="M0,0V3m3,0h-6M0,0V-3m3,0h-6"></path>
     </g>
     <g transform="translate(419,229)">
      <path style="stroke: black; stroke-width: 1; fill: none;" d="M0,0V3m3,0h-6M0,0V-3m3,0h-6"></path>
     </g>
     <g transform="translate(235,271)">
      <path style="stroke: black; stroke-width: 1; fill: none;" d="M0,0V3m3,0h-6M0,0V-3m3,0h-6"></path>
     </g>
     <g transform="translate(448,201)">
      <path style="stroke: black; stroke-width: 1; fill: none;" d="M0,0V3m3,0h-6M0,0V-3m3,0h-6"></path>
     </g>
     <g transform="translate(205,277)">
      <path style="stroke: black; stroke-width: 1; fill: none;" d="M0,0V3m3,0h-6M0,0V-3m3,0h-6"></path>
     </g>
     <g transform="translate(355,264)">
      <path style="stroke: black; stroke-width: 1; fill: none;" d="M0,0V3m3,0h-6M0,0V-3m3,0h-6"></path>
     </g>
     <g transform="translate(436,213)">
      <path style="stroke: black; stroke-width: 1; fill: none;" d="M0,0V3m3,0h-6M0,0V-3m3,0h-6"></path>
     </g>
     <g transform="translate(474,168)">
      <path style="stroke: black; stroke-width: 1; fill: none;" d="M0,0V3m3,0h-6M0,0V-3m3,0h-6"></path>
     </g>
     <g transform="translate(424,226)">
      <path style="stroke: black; stroke-width: 1; fill: none;" d="M0,0V3m3,0h-6M0,0V-3m3,0h-6"></path>
     </g>
     <g transform="translate(398,244)">
      <path style="stroke: black; stroke-width: 1; fill: none;" d="M0,0V3m3,0h-6M0,0V-3m3,0h-6"></path>
     </g>
     <g transform="translate(464,183)">
      <path style="stroke: black; stroke-width: 1; fill: none;" d="M0,0V3m3,0h-6M0,0V-3m3,0h-6"></path>
     </g>
     <g transform="translate(428,223)">
      <path style="stroke: black; stroke-width: 1; fill: none;" d="M0,0V3m3,0h-6M0,0V-3m3,0h-6"></path>
     </g>
     <g transform="translate(368,259)">
      <path style="stroke: black; stroke-width: 1; fill: none;" d="M0,0V3m3,0h-6M0,0V-3m3,0h-6"></path>
     </g>
     <g transform="translate(145,286)">
      <path style="stroke: black; stroke-width: 1; fill: none;" d="M0,0V3m3,0h-6M0,0V-3m3,0h-6"></path>
     </g>
     <g transform="translate(304,270)">
      <path style="stroke: black; stroke-width: 1; fill: none;" d="M0,0V3m3,0h-6M0,0V-3m3,0h-6"></path>
     </g>
     <g transform="translate(123,298)">
      <path style="stroke: black; stroke-width: 1; fill: none;" d="M0,0V3m3,0h-6M0,0V-3m3,0h-6"></path>
     </g>
     <g transform="translate(377,254)">
      <path style="stroke: black; stroke-width: 1; fill: none;" d="M0,0V3m3,0h-6M0,0V-3m3,0h-6"></path>
     </g>
     <g transform="translate(437,214)">
      <path style="stroke: black; stroke-width: 1; fill: none;" d="M0,0V3m3,0h-6M0,0V-3m3,0h-6"></path>
     </g>
     <g transform="translate(104,300)">
      <path style="stroke: black; stroke-width: 1; fill: none;" d="M0,0V3m3,0h-6M0,0V-3m3,0h-6"></path>
     </g>
     <g transform="translate(353,265)">
      <path style="stroke: black; stroke-width: 1; fill: none;" d="M0,0V3m3,0h-6M0,0V-3m3,0h-6"></path>
     </g>
     <g transform="translate(88,315)">
      <path style="stroke: black; stroke-width: 1; fill: none;" d="M0,0V3m3,0h-6M0,0V-3m3,0h-6"></path>
     </g>
     <g transform="translate(217,282)">
      <path style="stroke: black; stroke-width: 1; fill: none;" d="M0,0V3m3,0h-6M0,0V-3m3,0h-6"></path>
     </g>
     <g transform="translate(321,270)">
      <path style="stroke: black; stroke-width: 1; fill: none;" d="M0,0V3m3,0h-6M0,0V-3m3,0h-6"></path>
     </g>
     <g transform="translate(229,273)">
      <path style="stroke: black; stroke-width: 1; fill: none;" d="M0,0V3m3,0h-6M0,0V-3m3,0h-6"></path>
     </g>
     <g transform="translate(274,280)">
      <path style="stroke: black; stroke-width: 1; fill: none;" d="M0,0V3m3,0h-6M0,0V-3m3,0h-6"></path>
     </g>
     <g transform="translate(207,276)">
      <path style="stroke: black; stroke-width: 1; fill: none;" d="M0,0V3m3,0h-6M0,0V-3m3,0h-6"></path>
     </g>
     <g transform="translate(74,322)">
      <path style="stroke: black; stroke-width: 1; fill: none;" d="M0,0V3m3,0h-6M0,0V-3m3,0h-6"></path>
     </g>
     <g transform="translate(451,192)">
      <path style="stroke: black; stroke-width: 1; fill: none;" d="M0,0V3m3,0h-6M0,0V-3m3,0h-6"></path>
     </g>
     <g transform="translate(118,302)">
      <path style="stroke: black; stroke-width: 1; fill: none;" d="M0,0V3m3,0h-6M0,0V-3m3,0h-6"></path>
     </g>
     <g transform="translate(185,278)">
      <path style="stroke: black; stroke-width: 1; fill: none;" d="M0,0V3m3,0h-6M0,0V-3m3,0h-6"></path>
     </g>
     <g transform="translate(395,250)">
      <path style="stroke: black; stroke-width: 1; fill: none;" d="M0,0V3m3,0h-6M0,0V-3m3,0h-6"></path>
     </g>
     <g transform="translate(296,270)">
      <path style="stroke: black; stroke-width: 1; fill: none;" d="M0,0V3m3,0h-6M0,0V-3m3,0h-6"></path>
     </g>
     <g transform="translate(224,270)">
      <path style="stroke: black; stroke-width: 1; fill: none;" d="M0,0V3m3,0h-6M0,0V-3m3,0h-6"></path>
     </g>
     <g transform="translate(46,360)">
      <path style="stroke: black; stroke-width: 1; fill: none;" d="M0,0V3m3,0h-6M0,0V-3m3,0h-6"></path>
     </g>
     <g transform="translate(496,137)">
      <path style="stroke: black; stroke-width: 1; fill: none;" d="M0,0V3m3,0h-6M0,0V-3m3,0h-6"></path>
     </g>
     <g transform="translate(71,323)">
      <path style="stroke: black; stroke-width: 1; fill: none;" d="M0,0V3m3,0h-6M0,0V-3m3,0h-6"></path>
     </g>
     <g transform="translate(196,276)">
      <path style="stroke: black; stroke-width: 1; fill: none;" d="M0,0V3m3,0h-6M0,0V-3m3,0h-6"></path>
     </g>
     <g transform="translate(226,278)">
      <path style="stroke: black; stroke-width: 1; fill: none;" d="M0,0V3m3,0h-6M0,0V-3m3,0h-6"></path>
     </g>
     <g transform="translate(136,291)">
      <path style="stroke: black; stroke-width: 1; fill: none;" d="M0,0V3m3,0h-6M0,0V-3m3,0h-6"></path>
     </g>
     <g transform="translate(326,265)">
      <path style="stroke: black; stroke-width: 1; fill: none;" d="M0,0V3m3,0h-6M0,0V-3m3,0h-6"></path>
     </g>
     <g transform="translate(177,281)">
      <path style="stroke: black; stroke-width: 1; fill: none;" d="M0,0V3m3,0h-6M0,0V-3m3,0h-6"></path>
     </g>
     <g transform="translate(333,264)">
      <path style="stroke: black; stroke-width: 1; fill: none;" d="M0,0V3m3,0h-6M0,0V-3m3,0h-6"></path>
     </g>
     <g transform="translate(484,164)">
      <path style="stroke: black; stroke-width: 1; fill: none;" d="M0,0V3m3,0h-6M0,0V-3m3,0h-6"></path>
     </g>
     <g transform="translate(236,279)">
      <path style="stroke: black; stroke-width: 1; fill: none;" d="M0,0V3m3,0h-6M0,0V-3m3,0h-6"></path>
     </g>
     <g transform="translate(361,254)">
      <path style="stroke: black; stroke-width: 1; fill: none;" d="M0,0V3m3,0h-6M0,0V-3m3,0h-6"></path>
     </g>
     <g transform="translate(316,268)">
      <path style="stroke: black; stroke-width: 1; fill: none;" d="M0,0V3m3,0h-6M0,0V-3m3,0h-6"></path>
     </g>
     <g transform="translate(396,243)">
      <path style="stroke: black; stroke-width: 1; fill: none;" d="M0,0V3m3,0h-6M0,0V-3m3,0h-6"></path>
     </g>
     <g transform="translate(268,274)">
      <path style="stroke: black; stroke-width: 1; fill: none;" d="M0,0V3m3,0h-6M0,0V-3m3,0h-6"></path>
     </g>
     <g transform="translate(169,279)">
      <path style="stroke: black; stroke-width: 1; fill: none;" d="M0,0V3m3,0h-6M0,0V-3m3,0h-6"></path>
     </g>
     <g transform="translate(472,177)">
      <path style="stroke: black; stroke-width: 1; fill: none;" d="M0,0V3m3,0h-6M0,0V-3m3,0h-6"></path>
     </g>
     <g transform="translate(434,215)">
      <path style="stroke: black; stroke-width: 1; fill: none;" d="M0,0V3m3,0h-6M0,0V-3m3,0h-6"></path>
     </g>
     <g transform="translate(397,243)">
      <path style="stroke: black; stroke-width: 1; fill: none;" d="M0,0V3m3,0h-6M0,0V-3m3,0h-6"></path>
     </g>
     <g transform="translate(449,201)">
      <path style="stroke: black; stroke-width: 1; fill: none;" d="M0,0V3m3,0h-6M0,0V-3m3,0h-6"></path>
     </g>
     <g transform="translate(371,255)">
      <path style="stroke: black; stroke-width: 1; fill: none;" d="M0,0V3m3,0h-6M0,0V-3m3,0h-6"></path>
     </g>
     <g transform="translate(234,270)">
      <path style="stroke: black; stroke-width: 1; fill: none;" d="M0,0V3m3,0h-6M0,0V-3m3,0h-6"></path>
     </g>
     <g transform="translate(134,288)">
      <path style="stroke: black; stroke-width: 1; fill: none;" d="M0,0V3m3,0h-6M0,0V-3m3,0h-6"></path>
     </g>
     <g transform="translate(356,262)">
      <path style="stroke: black; stroke-width: 1; fill: none;" d="M0,0V3m3,0h-6M0,0V-3m3,0h-6"></path>
     </g>
     <g transform="translate(152,287)">
      <path style="stroke: black; stroke-width: 1; fill: none;" d="M0,0V3m3,0h-6M0,0V-3m3,0h-6"></path>
     </g>
     <g transform="translate(165,276)">
      <path style="stroke: black; stroke-width: 1; fill: none;" d="M0,0V3m3,0h-6M0,0V-3m3,0h-6"></path>
     </g>
     <g transform="translate(340,260)">
      <path style="stroke: black; stroke-width: 1; fill: none;" d="M0,0V3m3,0h-6M0,0V-3m3,0h-6"></path>
     </g>
     <g transform="translate(441,210)">
      <path style="stroke: black; stroke-width: 1; fill: none;" d="M0,0V3m3,0h-6M0,0V-3m3,0h-6"></path>
     </g>
     <g transform="translate(276,270)">
      <path style="stroke: black; stroke-width: 1; fill: none;" d="M0,0V3m3,0h-6M0,0V-3m3,0h-6"></path>
     </g>
     <g transform="translate(70,332)">
      <path style="stroke: black; stroke-width: 1; fill: none;" d="M0,0V3m3,0h-6M0,0V-3m3,0h-6"></path>
     </g>
     <g transform="translate(149,291)">
      <path style="stroke: black; stroke-width: 1; fill: none;" d="M0,0V3m3,0h-6M0,0V-3m3,0h-6"></path>
     </g>
     <g transform="translate(357,260)">
      <path style="stroke: black; stroke-width: 1; fill: none;" d="M0,0V3m3,0h-6M0,0V-3m3,0h-6"></path>
     </g>
     <g transform="translate(153,288)">
      <path style="stroke: black; stroke-width: 1; fill: none;" d="M0,0V3m3,0h-6M0,0V-3m3,0h-6"></path>
     </g>
     <g transform="translate(138,291)">
      <path style="stroke: black; stroke-width: 1; fill: none;" d="M0,0V3m3,0h-6M0,0V-3m3,0h-6"></path>
     </g>
     <g transform="translate(334,264)">
      <path style="stroke: black; stroke-width: 1; fill: none;" d="M0,0V3m3,0h-6M0,0V-3m3,0h-6"></path>
     </g>
     <g transform="translate(80,320)">
      <path style="stroke: black; stroke-width: 1; fill: none;" d="M0,0V3m3,0h-6M0,0V-3m3,0h-6"></path>
     </g>
     <g transform="translate(424,223)">
      <path style="stroke: black; stroke-width: 1; fill: none;" d="M0,0V3m3,0h-6M0,0V-3m3,0h-6"></path>
     </g>
     <g transform="translate(429,224)">
      <path style="stroke: black; stroke-width: 1; fill: none;" d="M0,0V3m3,0h-6M0,0V-3m3,0h-6"></path>
     </g>
     <g transform="translate(280,272)">
      <path style="stroke: black; stroke-width: 1; fill: none;" d="M0,0V3m3,0h-6M0,0V-3m3,0h-6"></path>
     </g>
     <g transform="translate(123,299)">
      <path style="stroke: black; stroke-width: 1; fill: none;" d="M0,0V3m3,0h-6M0,0V-3m3,0h-6"></path>
     </g>
     <g transform="translate(129,287)">
      <path style="stroke: black; stroke-width: 1; fill: none;" d="M0,0V3m3,0h-6M0,0V-3m3,0h-6"></path>
     </g>
     <g transform="translate(85,317)">
      <path style="stroke: black; stroke-width: 1; fill: none;" d="M0,0V3m3,0h-6M0,0V-3m3,0h-6"></path>
     </g>
     <g transform="translate(58,340)">
      <path style="stroke: black; stroke-width: 1; fill: none;" d="M0,0V3m3,0h-6M0,0V-3m3,0h-6"></path>
     </g>
     <g transform="translate(258,276)">
      <path style="stroke: black; stroke-width: 1; fill: none;" d="M0,0V3m3,0h-6M0,0V-3m3,0h-6"></path>
     </g>
     <g transform="translate(104,304)">
      <path style="stroke: black; stroke-width: 1; fill: none;" d="M0,0V3m3,0h-6M0,0V-3m3,0h-6"></path>
     </g>
     <g transform="translate(194,277)">
      <path style="stroke: black; stroke-width: 1; fill: none;" d="M0,0V3m3,0h-6M0,0V-3m3,0h-6"></path>
     </g>
     <g transform="translate(201,271)">
      <path style="stroke: black; stroke-width: 1; fill: none;" d="M0,0V3m3,0h-6M0,0V-3m3,0h-6"></path>
     </g>
     <g transform="translate(119,294)">
      <path style="stroke: black; stroke-width: 1; fill: none;" d="M0,0V3m3,0h-6M0,0V-3m3,0h-6"></path>
     </g>
     <g transform="translate(323,267)">
      <path style="stroke: black; stroke-width: 1; fill: none;" d="M0,0V3m3,0h-6M0,0V-3m3,0h-6"></path>
     </g>
     <g transform="translate(268,267)">
      <path style="stroke: black; stroke-width: 1; fill: none;" d="M0,0V3m3,0h-6M0,0V-3m3,0h-6"></path>
     </g>
     <g transform="translate(438,208)">
      <path style="stroke: black; stroke-width: 1; fill: none;" d="M0,0V3m3,0h-6M0,0V-3m3,0h-6"></path>
     </g>
     <g transform="translate(318,271)">
      <path style="stroke: black; stroke-width: 1; fill: none;" d="M0,0V3m3,0h-6M0,0V-3m3,0h-6"></path>
     </g>
     <g transform="translate(371,256)">
      <path style="stroke: black; stroke-width: 1; fill: none;" d="M0,0V3m3,0h-6M0,0V-3m3,0h-6"></path>
     </g>
     <g transform="translate(81,323)">
      <path style="stroke: black; stroke-width: 1; fill: none;" d="M0,0V3m3,0h-6M0,0V-3m3,0h-6"></path>
     </g>
     <g transform="translate(368,257)">
      <path style="stroke: black; stroke-width: 1; fill: none;" d="M0,0V3m3,0h-6M0,0V-3m3,0h-6"></path>
     </g>
     <g transform="translate(332,271)">
      <path style="stroke: black; stroke-width: 1; fill: none;" d="M0,0V3m3,0h-6M0,0V-3m3,0h-6"></path>
     </g>
     <g transform="translate(55,346)">
      <path style="stroke: black; stroke-width: 1; fill: none;" d="M0,0V3m3,0h-6M0,0V-3m3,0h-6"></path>
     </g>
     <g transform="translate(177,278)">
      <path style="stroke: black; stroke-width: 1; fill: none;" d="M0,0V3m3,0h-6M0,0V-3m3,0h-6"></path>
     </g>
     <g transform="translate(152,284)">
      <path style="stroke: black; stroke-width: 1; fill: none;" d="M0,0V3m3,0h-6M0,0V-3m3,0h-6"></path>
     </g>
     <g transform="translate(83,321)">
      <path style="stroke: black; stroke-width: 1; fill: none;" d="M0,0V3m3,0h-6M0,0V-3m3,0h-6"></path>
     </g>
     <g transform="translate(409,234)">
      <path style="stroke: black; stroke-width: 1; fill: none;" d="M0,0V3m3,0h-6M0,0V-3m3,0h-6"></path>
     </g>
     <g transform="translate(347,264)">
      <path style="stroke: black; stroke-width: 1; fill: none;" d="M0,0V3m3,0h-6M0,0V-3m3,0h-6"></path>
     </g>
     <g transform="translate(390,242)">
      <path style="stroke: black; stroke-width: 1; fill: none;" d="M0,0V3m3,0h-6M0,0V-3m3,0h-6"></path>
     </g>
     <g transform="translate(271,275)">
      <path style="stroke: black; stroke-width: 1; fill: none;" d="M0,0V3m3,0h-6M0,0V-3m3,0h-6"></path>
     </g>
     <g transform="translate(448,205)">
      <path style="stroke: black; stroke-width: 1; fill: none;" d="M0,0V3m3,0h-6M0,0V-3m3,0h-6"></path>
     </g>
     <g transform="translate(303,270)">
      <path style="stroke: black; stroke-width: 1; fill: none;" d="M0,0V3m3,0h-6M0,0V-3m3,0h-6"></path>
     </g>
     <g transform="translate(149,287)">
      <path style="stroke: black; stroke-width: 1; fill: none;" d="M0,0V3m3,0h-6M0,0V-3m3,0h-6"></path>
     </g>
     <g transform="translate(316,267)">
      <path style="stroke: black; stroke-width: 1; fill: none;" d="M0,0V3m3,0h-6M0,0V-3m3,0h-6"></path>
     </g>
     <g transform="translate(486,153)">
      <path style="stroke: black; stroke-width: 1; fill: none;" d="M0,0V3m3,0h-6M0,0V-3m3,0h-6"></path>
     </g>
     <g transform="translate(89,317)">
      <path style="stroke: black; stroke-width: 1; fill: none;" d="M0,0V3m3,0h-6M0,0V-3m3,0h-6"></path>
     </g>
     <g transform="translate(453,200)">
      <path style="stroke: black; stroke-width: 1; fill: none;" d="M0,0V3m3,0h-6M0,0V-3m3,0h-6"></path>
     </g>
     <g transform="translate(223,274)">
      <path style="stroke: black; stroke-width: 1; fill: none;" d="M0,0V3m3,0h-6M0,0V-3m3,0h-6"></path>
     </g>
     <g transform="translate(482,164)">
      <path style="stroke: black; stroke-width: 1; fill: none;" d="M0,0V3m3,0h-6M0,0V-3m3,0h-6"></path>
     </g>
     <g transform="translate(372,257)">
      <path style="stroke: black; stroke-width: 1; fill: none;" d="M0,0V3m3,0h-6M0,0V-3m3,0h-6"></path>
     </g>
     <g transform="translate(290,266)">
      <path style="stroke: black; stroke-width: 1; fill: none;" d="M0,0V3m3,0h-6M0,0V-3m3,0h-6"></path>
     </g>
     <g transform="translate(215,278)">
      <path style="stroke: black; stroke-width: 1; fill: none;" d="M0,0V3m3,0h-6M0,0V-3m3,0h-6"></path>
     </g>
     <g transform="translate(130,291)">
      <path style="stroke: black; stroke-width: 1; fill: none;" d="M0,0V3m3,0h-6M0,0V-3m3,0h-6"></path>
     </g>
     <g transform="translate(62,337)">
      <path style="stroke: black; stroke-width: 1; fill: none;" d="M0,0V3m3,0h-6M0,0V-3m3,0h-6"></path>
     </g>
     <g transform="translate(146,284)">
      <path style="stroke: black; stroke-width: 1; fill: none;" d="M0,0V3m3,0h-6M0,0V-3m3,0h-6"></path>
     </g>
     <g transform="translate(190,276)">
      <path style="stroke: black; stroke-width: 1; fill: none;" d="M0,0V3m3,0h-6M0,0V-3m3,0h-6"></path>
     </g>
     <g transform="translate(393,248)">
      <path style="stroke: black; stroke-width: 1; fill: none;" d="M0,0V3m3,0h-6M0,0V-3m3,0h-6"></path>
     </g>
     <g transform="translate(205,278)">
      <path style="stroke: black; stroke-width: 1; fill: none;" d="M0,0V3m3,0h-6M0,0V-3m3,0h-6"></path>
     </g>
     <g transform="translate(291,273)">
      <path style="stroke: black; stroke-width: 1; fill: none;" d="M0,0V3m3,0h-6M0,0V-3m3,0h-6"></path>
     </g>
     <g transform="translate(225,275)">
      <path style="stroke: black; stroke-width: 1; fill: none;" d="M0,0V3m3,0h-6M0,0V-3m3,0h-6"></path>
     </g>
     <g transform="translate(354,258)">
      <path style="stroke: black; stroke-width: 1; fill: none;" d="M0,0V3m3,0h-6M0,0V-3m3,0h-6"></path>
     </g>
     <g transform="translate(95,316)">
      <path style="stroke: black; stroke-width: 1; fill: none;" d="M0,0V3m3,0h-6M0,0V-3m3,0h-6"></path>
     </g>
     <g transform="translate(155,290)">
      <path style="stroke: black; stroke-width: 1; fill: none;" d="M0,0V3m3,0h-6M0,0V-3m3,0h-6"></path>
     </g>
     <g transform="translate(244,280)">
      <path style="stroke: black; stroke-width: 1; fill: none;" d="M0,0V3m3,0h-6M0,0V-3m3,0h-6"></path>
     </g>
     <g transform="translate(181,279)">
      <path style="stroke: black; stroke-width: 1; fill: none;" d="M0,0V3m3,0h-6M0,0V-3m3,0h-6"></path>
     </g>
     <g transform="translate(290,273)">
      <path style="stroke: black; stroke-width: 1; fill: none;" d="M0,0V3m3,0h-6M0,0V-3m3,0h-6"></path>
     </g>
     <g transform="translate(228,270)">
      <path style="stroke: black; stroke-width: 1; fill: none;" d="M0,0V3m3,0h-6M0,0V-3m3,0h-6"></path>
     </g>
     <g transform="translate(369,260)">
      <path style="stroke: black; stroke-width: 1; fill: none;" d="M0,0V3m3,0h-6M0,0V-3m3,0h-6"></path>
     </g>
     <g transform="translate(174,282)">
      <path style="stroke: black; stroke-width: 1; fill: none;" d="M0,0V3m3,0h-6M0,0V-3m3,0h-6"></path>
     </g>
     <g transform="translate(159,283)">
      <path style="stroke: black; stroke-width: 1; fill: none;" d="M0,0V3m3,0h-6M0,0V-3m3,0h-6"></path>
     </g>
     <g transform="translate(289,272)">
      <path style="stroke: black; stroke-width: 1; fill: none;" d="M0,0V3m3,0h-6M0,0V-3m3,0h-6"></path>
     </g>
     <g transform="translate(303,271)">
      <path style="stroke: black; stroke-width: 1; fill: none;" d="M0,0V3m3,0h-6M0,0V-3m3,0h-6"></path>
     </g>
     <g transform="translate(239,276)">
      <path style="stroke: black; stroke-width: 1; fill: none;" d="M0,0V3m3,0h-6M0,0V-3m3,0h-6"></path>
     </g>
     <g transform="translate(486,156)">
      <path style="stroke: black; stroke-width: 1; fill: none;" d="M0,0V3m3,0h-6M0,0V-3m3,0h-6"></path>
     </g>
     <g transform="translate(406,239)">
      <path style="stroke: black; stroke-width: 1; fill: none;" d="M0,0V3m3,0h-6M0,0V-3m3,0h-6"></path>
     </g>
     <g transform="translate(493,149)">
      <path style="stroke: black; stroke-width: 1; fill: none;" d="M0,0V3m3,0h-6M0,0V-3m3,0h-6"></path>
     </g>
     <g transform="translate(384,246)">
      <path style="stroke: black; stroke-width: 1; fill: none;" d="M0,0V3m3,0h-6M0,0V-3m3,0h-6"></path>
     </g>
     <g transform="translate(415,232)">
      <path style="stroke: black; stroke-width: 1; fill: none;" d="M0,0V3m3,0h-6M0,0V-3m3,0h-6"></path>
     </g>
     <g transform="translate(431,221)">
      <path style="stroke: black; stroke-width: 1; fill: none;" d="M0,0V3m3,0h-6M0,0V-3m3,0h-6"></path>
     </g>
     <g transform="translate(222,273)">
      <path style="stroke: black; stroke-width: 1; fill: none;" d="M0,0V3m3,0h-6M0,0V-3m3,0h-6"></path>
     </g>
     <g transform="translate(319,265)">
      <path style="stroke: black; stroke-width: 1; fill: none;" d="M0,0V3m3,0h-6M0,0V-3m3,0h-6"></path>
     </g>
     <g transform="translate(428,216)">
      <path style="stroke: black; stroke-width: 1; fill: none;" d="M0,0V3m3,0h-6M0,0V-3m3,0h-6"></path>
     </g>
     <g transform="translate(309,267)">
      <path style="stroke: black; stroke-width: 1; fill: none;" d="M0,0V3m3,0h-6M0,0V-3m3,0h-6"></path>
     </g>
     <g transform="translate(309,270)">
      <path style="stroke: black; stroke-width: 1; fill: none;" d="M0,0V3m3,0h-6M0,0V-3m3,0h-6"></path>
     </g>
     <g transform="translate(421,230)">
      <path style="stroke: black; stroke-width: 1; fill: none;" d="M0,0V3m3,0h-6M0,0V-3m3,0h-6"></path>
     </g>
     <g transform="translate(435,208)">
      <path style="stroke: black; stroke-width: 1; fill: none;" d="M0,0V3m3,0h-6M0,0V-3m3,0h-6"></path>
     </g>
     <g transform="translate(52,346)">
      <path style="stroke: black; stroke-width: 1; fill: none;" d="M0,0V3m3,0h-6M0,0V-3m3,0h-6"></path>
     </g>
     <g transform="translate(72,332)">
      <path style="stroke: black; stroke-width: 1; fill: none;" d="M0,0V3m3,0h-6M0,0V-3m3,0h-6"></path>
     </g>
     <g transform="translate(83,317)">
      <path style="stroke: black; stroke-width: 1; fill: none;" d="M0,0V3m3,0h-6M0,0V-3m3,0h-6"></path>
     </g>
     <g transform="translate(125,296)">
      <path style="stroke: black; stroke-width: 1; fill: none;" d="M0,0V3m3,0h-6M0,0V-3m3,0h-6"></path>
     </g>
     <g transform="translate(398,241)">
      <path style="stroke: black; stroke-width: 1; fill: none;" d="M0,0V3m3,0h-6M0,0V-3m3,0h-6"></path>
     </g>
     <g transform="translate(412,235)">
      <path style="stroke: black; stroke-width: 1; fill: none;" d="M0,0V3m3,0h-6M0,0V-3m3,0h-6"></path>
     </g>
     <g transform="translate(480,158)">
      <path style="stroke: black; stroke-width: 1; fill: none;" d="M0,0V3m3,0h-6M0,0V-3m3,0h-6"></path>
     </g>
     <g transform="translate(240,238)">
      <path style="stroke: black; stroke-width: 1; fill: none;" d="M0,0V3m3,0h-6M0,0V-3m3,0h-6"></path>
     </g>
     <g transform="translate(341,227)">
      <path style="stroke: black; stroke-width: 1; fill: none;" d="M0,0V3m3,0h-6M0,0V-3m3,0h-6"></path>
     </g>
     <g transform="translate(395,204)">
      <path style="stroke: black; stroke-width: 1; fill: none;" d="M0,0V3m3,0h-6M0,0V-3m3,0h-6"></path>
     </g>
     <g transform="translate(162,281)">
      <path style="stroke: black; stroke-width: 1; fill: none;" d="M0,0V3m3,0h-6M0,0V-3m3,0h-6"></path>
     </g>
     <g transform="translate(379,184)">
      <path style="stroke: black; stroke-width: 1; fill: none;" d="M0,0V3m3,0h-6M0,0V-3m3,0h-6"></path>
     </g>
     <g transform="translate(251,136)">
      <path style="stroke: black; stroke-width: 1; fill: none;" d="M0,0V3m3,0h-6M0,0V-3m3,0h-6"></path>
     </g>
     <g transform="translate(355,247)">
      <path style="stroke: black; stroke-width: 1; fill: none;" d="M0,0V3m3,0h-6M0,0V-3m3,0h-6"></path>
     </g>
     <g transform="translate(260,213)">
      <path style="stroke: black; stroke-width: 1; fill: none;" d="M0,0V3m3,0h-6M0,0V-3m3,0h-6"></path>
     </g>
     <g transform="translate(350,90)">
      <path style="stroke: black; stroke-width: 1; fill: none;" d="M0,0V3m3,0h-6M0,0V-3m3,0h-6"></path>
     </g>
     <g transform="translate(224,222)">
      <path style="stroke: black; stroke-width: 1; fill: none;" d="M0,0V3m3,0h-6M0,0V-3m3,0h-6"></path>
     </g>
     <g transform="translate(245,201)">
      <path style="stroke: black; stroke-width: 1; fill: none;" d="M0,0V3m3,0h-6M0,0V-3m3,0h-6"></path>
     </g>
     <g transform="translate(325,221)">
      <path style="stroke: black; stroke-width: 1; fill: none;" d="M0,0V3m3,0h-6M0,0V-3m3,0h-6"></path>
     </g>
     <g transform="translate(228,245)">
      <path style="stroke: black; stroke-width: 1; fill: none;" d="M0,0V3m3,0h-6M0,0V-3m3,0h-6"></path>
     </g>
     <g transform="translate(164,240)">
      <path style="stroke: black; stroke-width: 1; fill: none;" d="M0,0V3m3,0h-6M0,0V-3m3,0h-6"></path>
     </g>
     <g transform="translate(293,185)">
      <path style="stroke: black; stroke-width: 1; fill: none;" d="M0,0V3m3,0h-6M0,0V-3m3,0h-6"></path>
     </g>
     <g transform="translate(189,233)">
      <path style="stroke: black; stroke-width: 1; fill: none;" d="M0,0V3m3,0h-6M0,0V-3m3,0h-6"></path>
     </g>
     <g transform="translate(294,184)">
      <path style="stroke: black; stroke-width: 1; fill: none;" d="M0,0V3m3,0h-6M0,0V-3m3,0h-6"></path>
     </g>
     <g transform="translate(343,256)">
      <path style="stroke: black; stroke-width: 1; fill: none;" d="M0,0V3m3,0h-6M0,0V-3m3,0h-6"></path>
     </g>
     <g transform="translate(198,264)">
      <path style="stroke: black; stroke-width: 1; fill: none;" d="M0,0V3m3,0h-6M0,0V-3m3,0h-6"></path>
     </g>
     <g transform="translate(280,219)">
      <path style="stroke: black; stroke-width: 1; fill: none;" d="M0,0V3m3,0h-6M0,0V-3m3,0h-6"></path>
     </g>
     <g transform="translate(390,222)">
      <path style="stroke: black; stroke-width: 1; fill: none;" d="M0,0V3m3,0h-6M0,0V-3m3,0h-6"></path>
     </g>
     <g transform="translate(346,264)">
      <path style="stroke: black; stroke-width: 1; fill: none;" d="M0,0V3m3,0h-6M0,0V-3m3,0h-6"></path>
     </g>
     <g transform="translate(384,185)">
      <path style="stroke: black; stroke-width: 1; fill: none;" d="M0,0V3m3,0h-6M0,0V-3m3,0h-6"></path>
     </g>
     <g transform="translate(166,280)">
      <path style="stroke: black; stroke-width: 1; fill: none;" d="M0,0V3m3,0h-6M0,0V-3m3,0h-6"></path>
     </g>
     <g transform="translate(318,199)">
      <path style="stroke: black; stroke-width: 1; fill: none;" d="M0,0V3m3,0h-6M0,0V-3m3,0h-6"></path>
     </g>
     <g transform="translate(302,273)">
      <path style="stroke: black; stroke-width: 1; fill: none;" d="M0,0V3m3,0h-6M0,0V-3m3,0h-6"></path>
     </g>
     <g transform="translate(391,214)">
      <path style="stroke: black; stroke-width: 1; fill: none;" d="M0,0V3m3,0h-6M0,0V-3m3,0h-6"></path>
     </g>
     <g transform="translate(280,140)">
      <path style="stroke: black; stroke-width: 1; fill: none;" d="M0,0V3m3,0h-6M0,0V-3m3,0h-6"></path>
     </g>
     <g transform="translate(275,249)">
      <path style="stroke: black; stroke-width: 1; fill: none;" d="M0,0V3m3,0h-6M0,0V-3m3,0h-6"></path>
     </g>
     <g transform="translate(208,248)">
      <path style="stroke: black; stroke-width: 1; fill: none;" d="M0,0V3m3,0h-6M0,0V-3m3,0h-6"></path>
     </g>
     <g transform="translate(348,207)">
      <path style="stroke: black; stroke-width: 1; fill: none;" d="M0,0V3m3,0h-6M0,0V-3m3,0h-6"></path>
     </g>
     <g transform="translate(259,213)">
      <path style="stroke: black; stroke-width: 1; fill: none;" d="M0,0V3m3,0h-6M0,0V-3m3,0h-6"></path>
     </g>
     <g transform="translate(299,112)">
      <path style="stroke: black; stroke-width: 1; fill: none;" d="M0,0V3m3,0h-6M0,0V-3m3,0h-6"></path>
     </g>
     <g transform="translate(390,162)">
      <path style="stroke: black; stroke-width: 1; fill: none;" d="M0,0V3m3,0h-6M0,0V-3m3,0h-6"></path>
     </g>
     <g transform="translate(238,96)">
      <path style="stroke: black; stroke-width: 1; fill: none;" d="M0,0V3m3,0h-6M0,0V-3m3,0h-6"></path>
     </g>
     <g transform="translate(396,234)">
      <path style="stroke: black; stroke-width: 1; fill: none;" d="M0,0V3m3,0h-6M0,0V-3m3,0h-6"></path>
     </g>
     <g transform="translate(343,87)">
      <path style="stroke: black; stroke-width: 1; fill: none;" d="M0,0V3m3,0h-6M0,0V-3m3,0h-6"></path>
     </g>
     <g transform="translate(217,269)">
      <path style="stroke: black; stroke-width: 1; fill: none;" d="M0,0V3m3,0h-6M0,0V-3m3,0h-6"></path>
     </g>
     <g transform="translate(342,258)">
      <path style="stroke: black; stroke-width: 1; fill: none;" d="M0,0V3m3,0h-6M0,0V-3m3,0h-6"></path>
     </g>
     <g transform="translate(324,117)">
      <path style="stroke: black; stroke-width: 1; fill: none;" d="M0,0V3m3,0h-6M0,0V-3m3,0h-6"></path>
     </g>
     <g transform="translate(230,169)">
      <path style="stroke: black; stroke-width: 1; fill: none;" d="M0,0V3m3,0h-6M0,0V-3m3,0h-6"></path>
     </g>
     <g transform="translate(234,231)">
      <path style="stroke: black; stroke-width: 1; fill: none;" d="M0,0V3m3,0h-6M0,0V-3m3,0h-6"></path>
     </g>
     <g transform="translate(214,156)">
      <path style="stroke: black; stroke-width: 1; fill: none;" d="M0,0V3m3,0h-6M0,0V-3m3,0h-6"></path>
     </g>
     <g transform="translate(380,246)">
      <path style="stroke: black; stroke-width: 1; fill: none;" d="M0,0V3m3,0h-6M0,0V-3m3,0h-6"></path>
     </g>
     <g transform="translate(344,199)">
      <path style="stroke: black; stroke-width: 1; fill: none;" d="M0,0V3m3,0h-6M0,0V-3m3,0h-6"></path>
     </g>
     <path d="M116,294h1m43,-8h1M409,232h1m-84,46h1M512,112h1M65,333h1M227,280h1M69,329h1M288,273h1m-88,2h1m-45,13h1m-57,17h1M410,233h1m34,-28h1M265,272h1M366,260h1M260,276h1M484,154h1M280,283h1M69,328h1M386,245h1M221,270h1M84,322h1m59,-36h1m10,-1h1M486,150h1M260,272h1M436,210h1M204,279h1m16,-1h1m115,-8h1M438,215h1m39,-48h1M375,252h1M230,278h1M469,175h1m-74,67h1M188,281h1m121,-4h1m2,-3h1m-24,-8h1M491,140h1M292,278h1M234,267h1m-35,11h1m41,-3h1M59,340h1M259,272h1m97,-12h1m77,-48h1M269,274h1M419,229h1M235,271h1M448,201h1M205,277h1M355,264h1m80,-51h1m37,-45h1m-51,58h1m-27,18h1m65,-61h1m-37,40h1m-61,36h1M145,286h1M304,270h1M123,298h1M377,254h1m59,-40h1M104,300h1M353,265h1M88,315h1M217,282h1M321,270h1m-93,3h1m44,7h1m-68,-4h1M74,322h1M451,192h1M118,302h1m66,-24h1M395,250h1M296,270h1m-73,0h1M46,360h1M496,137h1M71,323h1M196,276h1m29,2h1m-91,13h1M326,265h1M177,281h1M333,264h1M484,164h1M236,279h1M361,254h1m-46,14h1m79,-25h1M268,274h1m-100,5h1M472,177h1m-39,38h1m-38,28h1m51,-42h1m-79,54h1M234,270h1M134,288h1M356,262h1M152,287h1m12,-11h1M340,260h1M441,210h1M276,270h1M70,332h1m78,-41h1M357,260h1M153,288h1m-16,3h1M334,264h1M80,320h1M424,223h1m4,1h1M280,272h1M123,299h1m5,-12h1M85,317h1M58,340h1M258,276h1M104,304h1m89,-27h1m6,-6h1m-83,23h1M323,267h1m-56,0h1M438,208h1M318,271h1m52,-15h1M81,323h1M368,257h1m-37,14h1M55,346h1M177,278h1m-26,6h1M83,321h1M409,234h1m-63,30h1m42,-22h1M271,275h1M448,205h1M303,270h1M149,287h1M316,267h1M486,153h1M89,317h1M453,200h1M223,274h1M482,164h1M372,257h1m-83,9h1m-76,12h1m-86,13h1M62,337h1m83,-53h1m43,-8h1M393,248h1M205,278h1m85,-5h1m-67,2h1M354,258h1M95,316h1m59,-26h1m88,-10h1m-64,-1h1m108,-6h1m-63,-3h1M369,260h1M174,282h1m-16,1h1M289,272h1m13,-1h1m-65,5h1M486,156h1m-81,83h1m86,-90h1M384,246h1m30,-14h1m15,-11h1M222,273h1m96,-8h1M428,216h1M309,267h1m-1,3h1M421,230h1m13,-22h1M52,346h1M72,332h1M83,317h1m41,-21h1M398,241h1m13,-6h1m67,-77h1M240,238h1M341,227h1m53,-23h1M162,281h1M379,184h1M251,136h1M355,247h1M260,213h1M350,90h1M224,222h1m20,-21h1m79,20h1m-98,24h1m-65,-5h1M293,185h1M189,233h1M294,184h1m48,72h1m-146,8h1m81,-45h1m109,3h1m-45,42h1m37,-79h1M166,280h1M318,199h1m-17,74h1m88,-59h1M280,140h1m-6,109h1m-68,-1h1M348,207h1m-90,6h1M299,112h1m90,50h1M238,96h1M396,234h1M343,87h1M217,269h1M342,258h1M324,117h1m-95,52h1m3,62h1M214,156h1m165,90h1M344,199h1" style="stroke: black; fill: none;"></path>
    </g>
    <g>
     <path d="M3,496l6,-16l5,-14l6,-15l5,-13l6,-13l5,-13l6,-12l6,-11l5,-11l6,-11l5,-10l6,-9l6,-9l5,-9l6,-8l5,-8l6,-7l5,-7l6,-7l6,-6l5,-6l6,-6l5,-5l6,-5l5,-4l6,-5l6,-3l5,-4l6,-3l5,-3l6,-3l6,-3l5,-2l6,-2l5,-2l6,-2l5,-1l6,-1l6,-1l5,-1l6,-1l5,-1h6l6,-1h5h6h5h6h5h6h6l5,1h6h5h6l5,1h6h6h5h6h5h6h6h5h6h5l6,-1l5,-1h6l6,-1l5,-1l6,-2l5,-1l6,-2l5,-2l6,-2l6,-2l5,-3l6,-2l5,-4l6,-3l6,-4l5,-3l6,-5l5,-4l6,-5l5,-5l6,-6l6,-6l5,-6l6,-7l5,-7l6,-7l6,-8l5,-8l6,-9l5,-9l6,-10l5,-10" style="fill: none; stroke: rgb(0, 0, 255); stroke-width: 2;"></path>
    </g>
    <g>
     <path d="M3,412l6,-9l5,-8l6,-8l5,-8l6,-7l5,-7l6,-7l6,-6l5,-6l6,-6l5,-5l6,-5l6,-5l5,-4l6,-4l5,-4l6,-4l5,-3l6,-4l6,-2l5,-3l6,-3l5,-2l6,-2l5,-2l6,-2l6,-1l5,-2l6,-1l5,-1l6,-1l6,-1l5,-1l6,-1h5l6,-1h5l6,-1h6h5h6l5,-1h6h6h5h6l5,-1h6h5h6l6,-1h5h6l5,-1l6,-1h5l6,-1l6,-1l5,-1l6,-1l5,-2l6,-1l6,-2l5,-2l6,-2l5,-2l6,-2l5,-3l6,-2l6,-3l5,-4l6,-3l5,-4l6,-4l5,-4l6,-5l6,-5l5,-5l6,-5l5,-6l6,-6l6,-6l5,-7l6,-7l5,-7l6,-8l5,-8l6,-9l6,-9l5,-9l6,-10l5,-10l6,-11l6,-11l5,-11l6,-12l5,-12l6,-13l5,-14" style="fill: none; stroke: rgb(255, 0, 0); stroke-width: 2;"></path>
    </g>
   </svg>
   <g>
    <g transform="translate(0,380)">
     <path d="M0,0h558M8,-6V0M20,-6V0M32,-6V0M44,-11V0M55,-6V0M67,-6V0M79,-6V0M91,-6V0M102,-11V0M114,-6V0M126,-6V0M138,-6V0M150,-6V0M161,-11V0M173,-6V0M185,-6V0M197,-6V0M208,-6V0M220,-11V0M232,-6V0M244,-6V0M255,-6V0M267,-6V0M279,-11V0M291,-6V0M303,-6V0M314,-6V0M326,-6V0M338,-11V0M350,-6V0M361,-6V0M373,-6V0M385,-6V0M397,-11V0M409,-6V0M420,-6V0M432,-6V0M444,-6V0M456,-11V0M467,-6V0M479,-6V0M491,-6V0M503,-6V0M514,-11V0M526,-6V0M538,-6V0M550,-6V0" style="stroke: black; stroke-width: 1;"></path>
     <g font-family="Arial" font-size="17" xml:space="preserve" fill="black" text-anchor="middle"><text dy=".8em" transform="translate(44,3)">-2</text><text dy=".8em" transform="translate(102,3)">-1.5</text><text dy=".8em" transform="translate(161,3)">-1</text><text dy=".8em" transform="translate(220,3)">-0.5</text><text dy=".8em" transform="translate(279,3)">0</text><text dy=".8em" transform="translate(338,3)">0.5</text><text dy=".8em" transform="translate(397,3)">1</text><text dy=".8em" transform="translate(456,3)">1.5</text><text dy=".8em" transform="translate(514,3)">2</text></g>
    </g>
    <g>
     <path d="M0,0v380M9,380H0M9,363H0M17,345H0M9,328H0M9,311H0M9,294H0M17,276H0M9,259H0M9,242H0M9,225H0M17,207H0M9,190H0M9,173H0M9,155H0M17,138H0M9,121H0M9,104H0M9,86H0M17,69H0M9,52H0M9,35H0M9,17H0M17,0H0" style="stroke: black; stroke-width: 1;"></path>
     <g font-family="Arial" font-size="17" xml:space="preserve" fill="black" text-anchor="end"><text dominant-baseline="middle" transform="translate(-3,345)">-20</text><text dominant-baseline="middle" transform="translate(-3,276)">0</text><text dominant-baseline="middle" transform="translate(-3,207)">20</text><text dominant-baseline="middle" transform="translate(-3,138)">40</text><text dominant-baseline="middle" transform="translate(-3,69)">60</text><text dominant-baseline="middle" transform="translate(-3)">80</text></g>
    </g>
    <path d="M44,0v380M102,0v380M161,0v380M220,0v380M279,0v380M338,0v380M397,0v380M456,0v380M514,0v380" style="stroke: black; stroke-width: 1; stroke-dasharray: 1, 2;"></path>
    <path d="M0,345h558M0,276h558M0,207h558M0,138h558M0,69h558M0,0h558" style="stroke: black; stroke-width: 1; stroke-dasharray: 1, 2;"></path>
   </g>
  </g>
  <g transform="translate(70,2)" font-family="Arial" font-size="24" xml:space="preserve"><text fill="black" text-anchor="middle" dy=".8em" transform="translate(279)">Graph</text></g>
  <g transform="translate(419,52)" font-family="Arial" font-size="13" xml:space="preserve"><path d="M0,0H202V43H0Z" style="fill: white; stroke: black; stroke-width: 1;"></path><path d="M6,11H45" style="stroke: rgb(0, 0, 255); stroke-width: 2;"></path><text fill="black" text-anchor="start" dominant-baseline="middle" transform="translate(51,11)">Ordinary least squares</text><path d="M6,32H45" style="stroke: rgb(255, 0, 0); stroke-width: 2;"></path><text fill="black" text-anchor="start" dominant-baseline="middle" transform="translate(51,32)">LTS regression</text></g>
 </g>
</svg>