<svg xmlns="http://www.w3.org/2000/svg" viewBox="0 0 1200 800" preserveAspectRatio="none" width="1200" height="800">
 <path d="M0,0H1200V800H0Z" style="fill: white;"></path>
 <g>
  <g transform="translate(120,80)">
   <path d="M0,0H960V640H0Z" style="fill: white; stroke: black; stroke-width: 1;"></path>
   <svg x="0" y="0" overflow="hidden" width="960" height="640" viewBox="0 0 960 640">
    <g>
     <g transform="translate(200,496)">
      <path style="stroke: black; stroke-width: 1; fill: none;" d="M0,0V6m3,0h-6M0,0V-6m3,0h-6"></path>
     </g>
     <g transform="translate(275,482)">
      <path style="stroke: black; stroke-width: 1; fill: none;" d="M0,0V6m3,0h-6M0,0V-6m3,0h-6"></path>
     </g>
     <g transform="translate(704,390)">
      <path style="stroke: black; stroke-width: 1; fill: none;" d="M0,0V6m3,0h-6M0,0V-6m3,0h-6"></path>
     </g>
     <g transform="translate(561,469)">
      <path style="stroke: black; stroke-width: 1; fill: none;" d="M0,0V6m3,0h-6M0,0V-6m3,0h-6"></path>
     </g>
     <g transform="translate(880,189)">
      <path style="stroke: black; stroke-width: 1; fill: none;" d="M0,0V6m3,0h-6M0,0V-6m3,0h-6"></path>
     </g>
     <g transform="translate(111,561)">
      <path style="stroke: black; stroke-width: 1; fill: none;" d="M0,0V6m3,0h-6M0,0V-6m3,0h-6"></path>
     </g>
     <g transform="translate(391,472)">
      <path style="stroke: black; stroke-width: 1; fill: none;" d="M0,0V6m3,0h-6M0,0V-6m3,0h-6"></path>
     </g>
     <g transform="translate(119,554)">
      <path style="stroke: black; stroke-width: 1; fill: none;" d="M0,0V6m3,0h-6M0,0V-6m3,0h-6"></path>
     </g>
     <g transform="translate(496,460)">
      <path style="stroke: black; stroke-width: 1; fill: none;" d="M0,0V6m3,0h-6M0,0V-6m3,0h-6"></path>
     </g>
     <g transform="translate(346,462)">
      <path style="stroke: black; stroke-width: 1; fill: none;" d="M0,0V6m3,0h-6M0,0V-6m3,0h-6"></path>
     </g>
     <g transform="translate(270,485)">
      <path style="stroke: black; stroke-width: 1; fill: none;" d="M0,0V6m3,0h-6M0,0V-6m3,0h-6"></path>
     </g>
     <g transform="translate(174,513)">
      <path style="stroke: black; stroke-width: 1; fill: none;" d="M0,0V6m3,0h-6M0,0V-6m3,0h-6"></path>
     </g>
     <g transform="translate(705,392)">
      <path style="stroke: black; stroke-width: 1; fill: none;" d="M0,0V6m3,0h-6M0,0V-6m3,0h-6"></path>
     </g>
     <g transform="translate(765,346)">
      <path style="stroke: black; stroke-width: 1; fill: none;" d="M0,0V6m3,0h-6M0,0V-6m3,0h-6"></path>
     </g>
     <g transform="translate(457,459)">
      <path style="stroke: black; stroke-width: 1; fill: none;" d="M0,0V6m3,0h-6M0,0V-6m3,0h-6"></path>
     </g>
     <g transform="translate(630,438)">
      <path style="stroke: black; stroke-width: 1; fill: none;" d="M0,0V6m3,0h-6M0,0V-6m3,0h-6"></path>
     </g>
     <g transform="translate(448,465)">
      <path style="stroke: black; stroke-width: 1; fill: none;" d="M0,0V6m3,0h-6M0,0V-6m3,0h-6"></path>
     </g>
     <g transform="translate(832,259)">
      <path style="stroke: black; stroke-width: 1; fill: none;" d="M0,0V6m3,0h-6M0,0V-6m3,0h-6"></path>
     </g>
     <g transform="translate(481,477)">
      <path style="stroke: black; stroke-width: 1; fill: none;" d="M0,0V6m3,0h-6M0,0V-6m3,0h-6"></path>
     </g>
     <g transform="translate(119,552)">
      <path style="stroke: black; stroke-width: 1; fill: none;" d="M0,0V6m3,0h-6M0,0V-6m3,0h-6"></path>
     </g>
     <g transform="translate(664,412)">
      <path style="stroke: black; stroke-width: 1; fill: none;" d="M0,0V6m3,0h-6M0,0V-6m3,0h-6"></path>
     </g>
     <g transform="translate(380,454)">
      <path style="stroke: black; stroke-width: 1; fill: none;" d="M0,0V6m3,0h-6M0,0V-6m3,0h-6"></path>
     </g>
     <g transform="translate(144,542)">
      <path style="stroke: black; stroke-width: 1; fill: none;" d="M0,0V6m3,0h-6M0,0V-6m3,0h-6"></path>
     </g>
     <g transform="translate(248,482)">
      <path style="stroke: black; stroke-width: 1; fill: none;" d="M0,0V6m3,0h-6M0,0V-6m3,0h-6"></path>
     </g>
     <g transform="translate(266,479)">
      <path style="stroke: black; stroke-width: 1; fill: none;" d="M0,0V6m3,0h-6M0,0V-6m3,0h-6"></path>
     </g>
     <g transform="translate(836,253)">
      <path style="stroke: black; stroke-width: 1; fill: none;" d="M0,0V6m3,0h-6M0,0V-6m3,0h-6"></path>
     </g>
     <g transform="translate(448,458)">
      <path style="stroke: black; stroke-width: 1; fill: none;" d="M0,0V6m3,0h-6M0,0V-6m3,0h-6"></path>
     </g>
     <g transform="translate(751,354)">
      <path style="stroke: black; stroke-width: 1; fill: none;" d="M0,0V6m3,0h-6M0,0V-6m3,0h-6"></path>
     </g>
     <g transform="translate(351,470)">
      <path style="stroke: black; stroke-width: 1; fill: none;" d="M0,0V6m3,0h-6M0,0V-6m3,0h-6"></path>
     </g>
     <g transform="translate(380,468)">
      <path style="stroke: black; stroke-width: 1; fill: none;" d="M0,0V6m3,0h-6M0,0V-6m3,0h-6"></path>
     </g>
     <g transform="translate(579,454)">
      <path style="stroke: black; stroke-width: 1; fill: none;" d="M0,0V6m3,0h-6M0,0V-6m3,0h-6"></path>
     </g>
     <g transform="translate(753,362)">
      <path style="stroke: black; stroke-width: 1; fill: none;" d="M0,0V6m3,0h-6M0,0V-6m3,0h-6"></path>
     </g>
     <g transform="translate(822,281)">
      <path style="stroke: black; stroke-width: 1; fill: none;" d="M0,0V6m3,0h-6M0,0V-6m3,0h-6"></path>
     </g>
     <g transform="translate(645,424)">
      <path style="stroke: black; stroke-width: 1; fill: none;" d="M0,0V6m3,0h-6M0,0V-6m3,0h-6"></path>
     </g>
     <g transform="translate(395,469)">
      <path style="stroke: black; stroke-width: 1; fill: none;" d="M0,0V6m3,0h-6M0,0V-6m3,0h-6"></path>
     </g>
     <g transform="translate(806,295)">
      <path style="stroke: black; stroke-width: 1; fill: none;" d="M0,0V6m3,0h-6M0,0V-6m3,0h-6"></path>
     </g>
     <g transform="translate(681,408)">
      <path style="stroke: black; stroke-width: 1; fill: none;" d="M0,0V6m3,0h-6M0,0V-6m3,0h-6"></path>
     </g>
     <g transform="translate(323,474)">
      <path style="stroke: black; stroke-width: 1; fill: none;" d="M0,0V6m3,0h-6M0,0V-6m3,0h-6"></path>
     </g>
     <g transform="translate(534,466)">
      <path style="stroke: black; stroke-width: 1; fill: none;" d="M0,0V6m3,0h-6M0,0V-6m3,0h-6"></path>
     </g>
     <g transform="translate(539,461)">
      <path style="stroke: black; stroke-width: 1; fill: none;" d="M0,0V6m3,0h-6M0,0V-6m3,0h-6"></path>
     </g>
     <g transform="translate(498,447)">
      <path style="stroke: black; stroke-width: 1; fill: none;" d="M0,0V6m3,0h-6M0,0V-6m3,0h-6"></path>
     </g>
     <g transform="translate(844,236)">
      <path style="stroke: black; stroke-width: 1; fill: none;" d="M0,0V6m3,0h-6M0,0V-6m3,0h-6"></path>
     </g>
     <g transform="translate(503,468)">
      <path style="stroke: black; stroke-width: 1; fill: none;" d="M0,0V6m3,0h-6M0,0V-6m3,0h-6"></path>
     </g>
     <g transform="translate(402,450)">
      <path style="stroke: black; stroke-width: 1; fill: none;" d="M0,0V6m3,0h-6M0,0V-6m3,0h-6"></path>
     </g>
     <g transform="translate(343,468)">
      <path style="stroke: black; stroke-width: 1; fill: none;" d="M0,0V6m3,0h-6M0,0V-6m3,0h-6"></path>
     </g>
     <g transform="translate(416,463)">
      <path style="stroke: black; stroke-width: 1; fill: none;" d="M0,0V6m3,0h-6M0,0V-6m3,0h-6"></path>
     </g>
     <g transform="translate(101,573)">
      <path style="stroke: black; stroke-width: 1; fill: none;" d="M0,0V6m3,0h-6M0,0V-6m3,0h-6"></path>
     </g>
     <g transform="translate(445,458)">
      <path style="stroke: black; stroke-width: 1; fill: none;" d="M0,0V6m3,0h-6M0,0V-6m3,0h-6"></path>
     </g>
     <g transform="translate(614,437)">
      <path style="stroke: black; stroke-width: 1; fill: none;" d="M0,0V6m3,0h-6M0,0V-6m3,0h-6"></path>
     </g>
     <g transform="translate(749,357)">
      <path style="stroke: black; stroke-width: 1; fill: none;" d="M0,0V6m3,0h-6M0,0V-6m3,0h-6"></path>
     </g>
     <g transform="translate(463,462)">
      <path style="stroke: black; stroke-width: 1; fill: none;" d="M0,0V6m3,0h-6M0,0V-6m3,0h-6"></path>
     </g>
     <g transform="translate(721,386)">
      <path style="stroke: black; stroke-width: 1; fill: none;" d="M0,0V6m3,0h-6M0,0V-6m3,0h-6"></path>
     </g>
     <g transform="translate(405,457)">
      <path style="stroke: black; stroke-width: 1; fill: none;" d="M0,0V6m3,0h-6M0,0V-6m3,0h-6"></path>
     </g>
     <g transform="translate(771,338)">
      <path style="stroke: black; stroke-width: 1; fill: none;" d="M0,0V6m3,0h-6M0,0V-6m3,0h-6"></path>
     </g>
     <g transform="translate(352,466)">
      <path style="stroke: black; stroke-width: 1; fill: none;" d="M0,0V6m3,0h-6M0,0V-6m3,0h-6"></path>
     </g>
     <g transform="translate(610,444)">
      <path style="stroke: black; stroke-width: 1; fill: none;" d="M0,0V6m3,0h-6M0,0V-6m3,0h-6"></path>
     </g>
     <g transform="translate(750,358)">
      <path style="stroke: black; stroke-width: 1; fill: none;" d="M0,0V6m3,0h-6M0,0V-6m3,0h-6"></path>
     </g>
     <g transform="translate(816,282)">
      <path style="stroke: black; stroke-width: 1; fill: none;" d="M0,0V6m3,0h-6M0,0V-6m3,0h-6"></path>
     </g>
     <g transform="translate(729,381)">
      <path style="stroke: black; stroke-width: 1; fill: none;" d="M0,0V6m3,0h-6M0,0V-6m3,0h-6"></path>
     </g>
     <g transform="translate(684,410)">
      <path style="stroke: black; stroke-width: 1; fill: none;" d="M0,0V6m3,0h-6M0,0V-6m3,0h-6"></path>
     </g>
     <g transform="translate(798,308)">
      <path style="stroke: black; stroke-width: 1; fill: none;" d="M0,0V6m3,0h-6M0,0V-6m3,0h-6"></path>
     </g>
     <g transform="translate(737,375)">
      <path style="stroke: black; stroke-width: 1; fill: none;" d="M0,0V6m3,0h-6M0,0V-6m3,0h-6"></path>
     </g>
     <g transform="translate(633,436)">
      <path style="stroke: black; stroke-width: 1; fill: none;" d="M0,0V6m3,0h-6M0,0V-6m3,0h-6"></path>
     </g>
     <g transform="translate(249,482)">
      <path style="stroke: black; stroke-width: 1; fill: none;" d="M0,0V6m3,0h-6M0,0V-6m3,0h-6"></path>
     </g>
     <g transform="translate(523,454)">
      <path style="stroke: black; stroke-width: 1; fill: none;" d="M0,0V6m3,0h-6M0,0V-6m3,0h-6"></path>
     </g>
     <g transform="translate(212,501)">
      <path style="stroke: black; stroke-width: 1; fill: none;" d="M0,0V6m3,0h-6M0,0V-6m3,0h-6"></path>
     </g>
     <g transform="translate(648,427)">
      <path style="stroke: black; stroke-width: 1; fill: none;" d="M0,0V6m3,0h-6M0,0V-6m3,0h-6"></path>
     </g>
     <g transform="translate(753,361)">
      <path style="stroke: black; stroke-width: 1; fill: none;" d="M0,0V6m3,0h-6M0,0V-6m3,0h-6"></path>
     </g>
     <g transform="translate(178,506)">
      <path style="stroke: black; stroke-width: 1; fill: none;" d="M0,0V6m3,0h-6M0,0V-6m3,0h-6"></path>
     </g>
     <g transform="translate(608,446)">
      <path style="stroke: black; stroke-width: 1; fill: none;" d="M0,0V6m3,0h-6M0,0V-6m3,0h-6"></path>
     </g>
     <g transform="translate(151,530)">
      <path style="stroke: black; stroke-width: 1; fill: none;" d="M0,0V6m3,0h-6M0,0V-6m3,0h-6"></path>
     </g>
     <g transform="translate(374,476)">
      <path style="stroke: black; stroke-width: 1; fill: none;" d="M0,0V6m3,0h-6M0,0V-6m3,0h-6"></path>
     </g>
     <g transform="translate(552,454)">
      <path style="stroke: black; stroke-width: 1; fill: none;" d="M0,0V6m3,0h-6M0,0V-6m3,0h-6"></path>
     </g>
     <g transform="translate(394,459)">
      <path style="stroke: black; stroke-width: 1; fill: none;" d="M0,0V6m3,0h-6M0,0V-6m3,0h-6"></path>
     </g>
     <g transform="translate(472,472)">
      <path style="stroke: black; stroke-width: 1; fill: none;" d="M0,0V6m3,0h-6M0,0V-6m3,0h-6"></path>
     </g>
     <g transform="translate(357,465)">
      <path style="stroke: black; stroke-width: 1; fill: none;" d="M0,0V6m3,0h-6M0,0V-6m3,0h-6"></path>
     </g>
     <g transform="translate(127,542)">
      <path style="stroke: black; stroke-width: 1; fill: none;" d="M0,0V6m3,0h-6M0,0V-6m3,0h-6"></path>
     </g>
     <g transform="translate(776,323)">
      <path style="stroke: black; stroke-width: 1; fill: none;" d="M0,0V6m3,0h-6M0,0V-6m3,0h-6"></path>
     </g>
     <g transform="translate(203,509)">
      <path style="stroke: black; stroke-width: 1; fill: none;" d="M0,0V6m3,0h-6M0,0V-6m3,0h-6"></path>
     </g>
     <g transform="translate(319,469)">
      <path style="stroke: black; stroke-width: 1; fill: none;" d="M0,0V6m3,0h-6M0,0V-6m3,0h-6"></path>
     </g>
     <g transform="translate(680,420)">
      <path style="stroke: black; stroke-width: 1; fill: none;" d="M0,0V6m3,0h-6M0,0V-6m3,0h-6"></path>
     </g>
     <g transform="translate(509,455)">
      <path style="stroke: black; stroke-width: 1; fill: none;" d="M0,0V6m3,0h-6M0,0V-6m3,0h-6"></path>
     </g>
     <g transform="translate(386,455)">
      <path style="stroke: black; stroke-width: 1; fill: none;" d="M0,0V6m3,0h-6M0,0V-6m3,0h-6"></path>
     </g>
     <g transform="translate(80,606)">
      <path style="stroke: black; stroke-width: 1; fill: none;" d="M0,0V6m3,0h-6M0,0V-6m3,0h-6"></path>
     </g>
     <g transform="translate(853,231)">
      <path style="stroke: black; stroke-width: 1; fill: none;" d="M0,0V6m3,0h-6M0,0V-6m3,0h-6"></path>
     </g>
     <g transform="translate(122,544)">
      <path style="stroke: black; stroke-width: 1; fill: none;" d="M0,0V6m3,0h-6M0,0V-6m3,0h-6"></path>
     </g>
     <g transform="translate(336,464)">
      <path style="stroke: black; stroke-width: 1; fill: none;" d="M0,0V6m3,0h-6M0,0V-6m3,0h-6"></path>
     </g>
     <g transform="translate(389,468)">
      <path style="stroke: black; stroke-width: 1; fill: none;" d="M0,0V6m3,0h-6M0,0V-6m3,0h-6"></path>
     </g>
     <g transform="translate(233,491)">
      <path style="stroke: black; stroke-width: 1; fill: none;" d="M0,0V6m3,0h-6M0,0V-6m3,0h-6"></path>
     </g>
     <g transform="translate(561,447)">
      <path style="stroke: black; stroke-width: 1; fill: none;" d="M0,0V6m3,0h-6M0,0V-6m3,0h-6"></path>
     </g>
     <g transform="translate(305,472)">
      <path style="stroke: black; stroke-width: 1; fill: none;" d="M0,0V6m3,0h-6M0,0V-6m3,0h-6"></path>
     </g>
     <g transform="translate(574,445)">
      <path style="stroke: black; stroke-width: 1; fill: none;" d="M0,0V6m3,0h-6M0,0V-6m3,0h-6"></path>
     </g>
     <g transform="translate(832,276)">
      <path style="stroke: black; stroke-width: 1; fill: none;" d="M0,0V6m3,0h-6M0,0V-6m3,0h-6"></path>
     </g>
     <g transform="translate(407,470)">
      <path style="stroke: black; stroke-width: 1; fill: none;" d="M0,0V6m3,0h-6M0,0V-6m3,0h-6"></path>
     </g>
     <g transform="translate(621,427)">
      <path style="stroke: black; stroke-width: 1; fill: none;" d="M0,0V6m3,0h-6M0,0V-6m3,0h-6"></path>
     </g>
     <g transform="translate(544,451)">
      <path style="stroke: black; stroke-width: 1; fill: none;" d="M0,0V6m3,0h-6M0,0V-6m3,0h-6"></path>
     </g>
     <g transform="translate(681,409)">
      <path style="stroke: black; stroke-width: 1; fill: none;" d="M0,0V6m3,0h-6M0,0V-6m3,0h-6"></path>
     </g>
     <g transform="translate(461,462)">
      <path style="stroke: black; stroke-width: 1; fill: none;" d="M0,0V6m3,0h-6M0,0V-6m3,0h-6"></path>
     </g>
     <g transform="translate(291,469)">
      <path style="stroke: black; stroke-width: 1; fill: none;" d="M0,0V6m3,0h-6M0,0V-6m3,0h-6"></path>
     </g>
     <g transform="translate(811,297)">
      <path style="stroke: black; stroke-width: 1; fill: none;" d="M0,0V6m3,0h-6M0,0V-6m3,0h-6"></path>
     </g>
     <g transform="translate(747,362)">
      <path style="stroke: black; stroke-width: 1; fill: none;" d="M0,0V6m3,0h-6M0,0V-6m3,0h-6"></path>
     </g>
     <g transform="translate(682,410)">
      <path style="stroke: black; stroke-width: 1; fill: none;" d="M0,0V6m3,0h-6M0,0V-6m3,0h-6"></path>
     </g>
     <g transform="translate(773,339)">
      <path style="stroke: black; stroke-width: 1; fill: none;" d="M0,0V6m3,0h-6M0,0V-6m3,0h-6"></path>
     </g>
     <g transform="translate(638,429)">
      <path style="stroke: black; stroke-width: 1; fill: none;" d="M0,0V6m3,0h-6M0,0V-6m3,0h-6"></path>
     </g>
     <g transform="translate(403,454)">
      <path style="stroke: black; stroke-width: 1; fill: none;" d="M0,0V6m3,0h-6M0,0V-6m3,0h-6"></path>
     </g>
     <g transform="translate(230,485)">
      <path style="stroke: black; stroke-width: 1; fill: none;" d="M0,0V6m3,0h-6M0,0V-6m3,0h-6"></path>
     </g>
     <g transform="translate(612,441)">
      <path style="stroke: black; stroke-width: 1; fill: none;" d="M0,0V6m3,0h-6M0,0V-6m3,0h-6"></path>
     </g>
     <g transform="translate(262,484)">
      <path style="stroke: black; stroke-width: 1; fill: none;" d="M0,0V6m3,0h-6M0,0V-6m3,0h-6"></path>
     </g>
     <g transform="translate(284,465)">
      <path style="stroke: black; stroke-width: 1; fill: none;" d="M0,0V6m3,0h-6M0,0V-6m3,0h-6"></path>
     </g>
     <g transform="translate(584,439)">
      <path style="stroke: black; stroke-width: 1; fill: none;" d="M0,0V6m3,0h-6M0,0V-6m3,0h-6"></path>
     </g>
     <g transform="translate(759,354)">
      <path style="stroke: black; stroke-width: 1; fill: none;" d="M0,0V6m3,0h-6M0,0V-6m3,0h-6"></path>
     </g>
     <g transform="translate(475,455)">
      <path style="stroke: black; stroke-width: 1; fill: none;" d="M0,0V6m3,0h-6M0,0V-6m3,0h-6"></path>
     </g>
     <g transform="translate(120,558)">
      <path style="stroke: black; stroke-width: 1; fill: none;" d="M0,0V6m3,0h-6M0,0V-6m3,0h-6"></path>
     </g>
     <g transform="translate(256,490)">
      <path style="stroke: black; stroke-width: 1; fill: none;" d="M0,0V6m3,0h-6M0,0V-6m3,0h-6"></path>
     </g>
     <g transform="translate(615,439)">
      <path style="stroke: black; stroke-width: 1; fill: none;" d="M0,0V6m3,0h-6M0,0V-6m3,0h-6"></path>
     </g>
     <g transform="translate(264,484)">
      <path style="stroke: black; stroke-width: 1; fill: none;" d="M0,0V6m3,0h-6M0,0V-6m3,0h-6"></path>
     </g>
     <g transform="translate(238,491)">
      <path style="stroke: black; stroke-width: 1; fill: none;" d="M0,0V6m3,0h-6M0,0V-6m3,0h-6"></path>
     </g>
     <g transform="translate(574,445)">
      <path style="stroke: black; stroke-width: 1; fill: none;" d="M0,0V6m3,0h-6M0,0V-6m3,0h-6"></path>
     </g>
     <g transform="translate(138,539)">
      <path style="stroke: black; stroke-width: 1; fill: none;" d="M0,0V6m3,0h-6M0,0V-6m3,0h-6"></path>
     </g>
     <g transform="translate(730,376)">
      <path style="stroke: black; stroke-width: 1; fill: none;" d="M0,0V6m3,0h-6M0,0V-6m3,0h-6"></path>
     </g>
     <g transform="translate(738,377)">
      <path style="stroke: black; stroke-width: 1; fill: none;" d="M0,0V6m3,0h-6M0,0V-6m3,0h-6"></path>
     </g>
     <g transform="translate(481,458)">
      <path style="stroke: black; stroke-width: 1; fill: none;" d="M0,0V6m3,0h-6M0,0V-6m3,0h-6"></path>
     </g>
     <g transform="translate(211,504)">
      <path style="stroke: black; stroke-width: 1; fill: none;" d="M0,0V6m3,0h-6M0,0V-6m3,0h-6"></path>
     </g>
     <g transform="translate(222,483)">
      <path style="stroke: black; stroke-width: 1; fill: none;" d="M0,0V6m3,0h-6M0,0V-6m3,0h-6"></path>
     </g>
     <g transform="translate(145,534)">
      <path style="stroke: black; stroke-width: 1; fill: none;" d="M0,0V6m3,0h-6M0,0V-6m3,0h-6"></path>
     </g>
     <g transform="translate(100,572)">
      <path style="stroke: black; stroke-width: 1; fill: none;" d="M0,0V6m3,0h-6M0,0V-6m3,0h-6"></path>
     </g>
     <g transform="translate(444,465)">
      <path style="stroke: black; stroke-width: 1; fill: none;" d="M0,0V6m3,0h-6M0,0V-6m3,0h-6"></path>
     </g>
     <g transform="translate(179,512)">
      <path style="stroke: black; stroke-width: 1; fill: none;" d="M0,0V6m3,0h-6M0,0V-6m3,0h-6"></path>
     </g>
     <g transform="translate(334,466)">
      <path style="stroke: black; stroke-width: 1; fill: none;" d="M0,0V6m3,0h-6M0,0V-6m3,0h-6"></path>
     </g>
     <g transform="translate(346,457)">
      <path style="stroke: black; stroke-width: 1; fill: none;" d="M0,0V6m3,0h-6M0,0V-6m3,0h-6"></path>
     </g>
     <g transform="translate(205,495)">
      <path style="stroke: black; stroke-width: 1; fill: none;" d="M0,0V6m3,0h-6M0,0V-6m3,0h-6"></path>
     </g>
     <g transform="translate(555,449)">
      <path style="stroke: black; stroke-width: 1; fill: none;" d="M0,0V6m3,0h-6M0,0V-6m3,0h-6"></path>
     </g>
     <g transform="translate(461,450)">
      <path style="stroke: black; stroke-width: 1; fill: none;" d="M0,0V6m3,0h-6M0,0V-6m3,0h-6"></path>
     </g>
     <g transform="translate(754,350)">
      <path style="stroke: black; stroke-width: 1; fill: none;" d="M0,0V6m3,0h-6M0,0V-6m3,0h-6"></path>
     </g>
     <g transform="translate(548,456)">
      <path style="stroke: black; stroke-width: 1; fill: none;" d="M0,0V6m3,0h-6M0,0V-6m3,0h-6"></path>
     </g>
     <g transform="translate(639,431)">
      <path style="stroke: black; stroke-width: 1; fill: none;" d="M0,0V6m3,0h-6M0,0V-6m3,0h-6"></path>
     </g>
     <g transform="translate(139,543)">
      <path style="stroke: black; stroke-width: 1; fill: none;" d="M0,0V6m3,0h-6M0,0V-6m3,0h-6"></path>
     </g>
     <g transform="translate(633,433)">
      <path style="stroke: black; stroke-width: 1; fill: none;" d="M0,0V6m3,0h-6M0,0V-6m3,0h-6"></path>
     </g>
     <g transform="translate(571,456)">
      <path style="stroke: black; stroke-width: 1; fill: none;" d="M0,0V6m3,0h-6M0,0V-6m3,0h-6"></path>
     </g>
     <g transform="translate(94,583)">
      <path style="stroke: black; stroke-width: 1; fill: none;" d="M0,0V6m3,0h-6M0,0V-6m3,0h-6"></path>
     </g>
     <g transform="translate(304,469)">
      <path style="stroke: black; stroke-width: 1; fill: none;" d="M0,0V6m3,0h-6M0,0V-6m3,0h-6"></path>
     </g>
     <g transform="translate(262,478)">
      <path style="stroke: black; stroke-width: 1; fill: none;" d="M0,0V6m3,0h-6M0,0V-6m3,0h-6"></path>
     </g>
     <g transform="translate(143,540)">
      <path style="stroke: black; stroke-width: 1; fill: none;" d="M0,0V6m3,0h-6M0,0V-6m3,0h-6"></path>
     </g>
     <g transform="translate(703,394)">
      <path style="stroke: black; stroke-width: 1; fill: none;" d="M0,0V6m3,0h-6M0,0V-6m3,0h-6"></path>
     </g>
     <g transform="translate(596,445)">
      <path style="stroke: black; stroke-width: 1; fill: none;" d="M0,0V6m3,0h-6M0,0V-6m3,0h-6"></path>
     </g>
     <g transform="translate(672,407)">
      <path style="stroke: black; stroke-width: 1; fill: none;" d="M0,0V6m3,0h-6M0,0V-6m3,0h-6"></path>
     </g>
     <g transform="translate(466,463)">
      <path style="stroke: black; stroke-width: 1; fill: none;" d="M0,0V6m3,0h-6M0,0V-6m3,0h-6"></path>
     </g>
     <g transform="translate(771,346)">
      <path style="stroke: black; stroke-width: 1; fill: none;" d="M0,0V6m3,0h-6M0,0V-6m3,0h-6"></path>
     </g>
     <g transform="translate(522,454)">
      <path style="stroke: black; stroke-width: 1; fill: none;" d="M0,0V6m3,0h-6M0,0V-6m3,0h-6"></path>
     </g>
     <g transform="translate(256,484)">
      <path style="stroke: black; stroke-width: 1; fill: none;" d="M0,0V6m3,0h-6M0,0V-6m3,0h-6"></path>
     </g>
     <g transform="translate(543,450)">
      <path style="stroke: black; stroke-width: 1; fill: none;" d="M0,0V6m3,0h-6M0,0V-6m3,0h-6"></path>
     </g>
     <g transform="translate(836,258)">
      <path style="stroke: black; stroke-width: 1; fill: none;" d="M0,0V6m3,0h-6M0,0V-6m3,0h-6"></path>
     </g>
     <g transform="translate(154,533)">
      <path style="stroke: black; stroke-width: 1; fill: none;" d="M0,0V6m3,0h-6M0,0V-6m3,0h-6"></path>
     </g>
     <g transform="translate(780,336)">
      <path style="stroke: black; stroke-width: 1; fill: none;" d="M0,0V6m3,0h-6M0,0V-6m3,0h-6"></path>
     </g>
     <g transform="translate(384,461)">
      <path style="stroke: black; stroke-width: 1; fill: none;" d="M0,0V6m3,0h-6M0,0V-6m3,0h-6"></path>
     </g>
     <g transform="translate(829,277)">
      <path style="stroke: black; stroke-width: 1; fill: none;" d="M0,0V6m3,0h-6M0,0V-6m3,0h-6"></path>
     </g>
     <g transform="translate(641,434)">
      <path style="stroke: black; stroke-width: 1; fill: none;" d="M0,0V6m3,0h-6M0,0V-6m3,0h-6"></path>
     </g>
     <g transform="translate(499,448)">
      <path style="stroke: black; stroke-width: 1; fill: none;" d="M0,0V6m3,0h-6M0,0V-6m3,0h-6"></path>
     </g>
     <g transform="translate(369,468)">
      <path style="stroke: black; stroke-width: 1; fill: none;" d="M0,0V6m3,0h-6M0,0V-6m3,0h-6"></path>
     </g>
     <g transform="translate(223,491)">
      <path style="stroke: black; stroke-width: 1; fill: none;" d="M0,0V6m3,0h-6M0,0V-6m3,0h-6"></path>
     </g>
     <g transform="translate(107,568)">
      <path style="stroke: black; stroke-width: 1; fill: none;" d="M0,0V6m3,0h-6M0,0V-6m3,0h-6"></path>
     </g>
     <g transform="translate(251,478)">
      <path style="stroke: black; stroke-width: 1; fill: none;" d="M0,0V6m3,0h-6M0,0V-6m3,0h-6"></path>
     </g>
     <g transform="translate(326,465)">
      <path style="stroke: black; stroke-width: 1; fill: none;" d="M0,0V6m3,0h-6M0,0V-6m3,0h-6"></path>
     </g>
     <g transform="translate(676,418)">
      <path style="stroke: black; stroke-width: 1; fill: none;" d="M0,0V6m3,0h-6M0,0V-6m3,0h-6"></path>
     </g>
     <g transform="translate(352,469)">
      <path style="stroke: black; stroke-width: 1; fill: none;" d="M0,0V6m3,0h-6M0,0V-6m3,0h-6"></path>
     </g>
     <g transform="translate(501,459)">
      <path style="stroke: black; stroke-width: 1; fill: none;" d="M0,0V6m3,0h-6M0,0V-6m3,0h-6"></path>
     </g>
     <g transform="translate(387,463)">
      <path style="stroke: black; stroke-width: 1; fill: none;" d="M0,0V6m3,0h-6M0,0V-6m3,0h-6"></path>
     </g>
     <g transform="translate(609,435)">
      <path style="stroke: black; stroke-width: 1; fill: none;" d="M0,0V6m3,0h-6M0,0V-6m3,0h-6"></path>
     </g>
     <g transform="translate(163,533)">
      <path style="stroke: black; stroke-width: 1; fill: none;" d="M0,0V6m3,0h-6M0,0V-6m3,0h-6"></path>
     </g>
     <g transform="translate(266,488)">
      <path style="stroke: black; stroke-width: 1; fill: none;" d="M0,0V6m3,0h-6M0,0V-6m3,0h-6"></path>
     </g>
     <g transform="translate(419,472)">
      <path style="stroke: black; stroke-width: 1; fill: none;" d="M0,0V6m3,0h-6M0,0V-6m3,0h-6"></path>
     </g>
     <g transform="translate(312,470)">
      <path style="stroke: black; stroke-width: 1; fill: none;" d="M0,0V6m3,0h-6M0,0V-6m3,0h-6"></path>
     </g>
     <g transform="translate(499,459)">
      <path style="stroke: black; stroke-width: 1; fill: none;" d="M0,0V6m3,0h-6M0,0V-6m3,0h-6"></path>
     </g>
     <g transform="translate(393,454)">
      <path style="stroke: black; stroke-width: 1; fill: none;" d="M0,0V6m3,0h-6M0,0V-6m3,0h-6"></path>
     </g>
     <g transform="translate(635,438)">
      <path style="stroke: black; stroke-width: 1; fill: none;" d="M0,0V6m3,0h-6M0,0V-6m3,0h-6"></path>
     </g>
     <g transform="translate(300,476)">
      <path style="stroke: black; stroke-width: 1; fill: none;" d="M0,0V6m3,0h-6M0,0V-6m3,0h-6"></path>
     </g>
     <g transform="translate(273,477)">
      <path style="stroke: black; stroke-width: 1; fill: none;" d="M0,0V6m3,0h-6M0,0V-6m3,0h-6"></path>
     </g>
     <g transform="translate(497,458)">
      <path style="stroke: black; stroke-width: 1; fill: none;" d="M0,0V6m3,0h-6M0,0V-6m3,0h-6"></path>
     </g>
     <g transform="translate(520,457)">
      <path style="stroke: black; stroke-width: 1; fill: none;" d="M0,0V6m3,0h-6M0,0V-6m3,0h-6"></path>
     </g>
     <g transform="translate(411,464)">
      <path style="stroke: black; stroke-width: 1; fill: none;" d="M0,0V6m3,0h-6M0,0V-6m3,0h-6"></path>
     </g>
     <g transform="translate(835,262)">
      <path style="stroke: black; stroke-width: 1; fill: none;" d="M0,0V6m3,0h-6M0,0V-6m3,0h-6"></path>
     </g>
     <g transform="translate(699,403)">
      <path style="stroke: black; stroke-width: 1; fill: none;" d="M0,0V6m3,0h-6M0,0V-6m3,0h-6"></path>
     </g>
     <g transform="translate(848,250)">
      <path style="stroke: black; stroke-width: 1; fill: none;" d="M0,0V6m3,0h-6M0,0V-6m3,0h-6"></path>
     </g>
     <g transform="translate(661,414)">
      <path style="stroke: black; stroke-width: 1; fill: none;" d="M0,0V6m3,0h-6M0,0V-6m3,0h-6"></path>
     </g>
     <g transform="translate(714,391)">
      <path style="stroke: black; stroke-width: 1; fill: none;" d="M0,0V6m3,0h-6M0,0V-6m3,0h-6"></path>
     </g>
     <g transform="translate(741,373)">
      <path style="stroke: black; stroke-width: 1; fill: none;" d="M0,0V6m3,0h-6M0,0V-6m3,0h-6"></path>
     </g>
     <g transform="translate(383,459)">
      <path style="stroke: black; stroke-width: 1; fill: none;" d="M0,0V6m3,0h-6M0,0V-6m3,0h-6"></path>
     </g>
     <g transform="translate(549,447)">
      <path style="stroke: black; stroke-width: 1; fill: none;" d="M0,0V6m3,0h-6M0,0V-6m3,0h-6"></path>
     </g>
     <g transform="translate(736,365)">
      <path style="stroke: black; stroke-width: 1; fill: none;" d="M0,0V6m3,0h-6M0,0V-6m3,0h-6"></path>
     </g>
     <g transform="translate(531,450)">
      <path style="stroke: black; stroke-width: 1; fill: none;" d="M0,0V6m3,0h-6M0,0V-6m3,0h-6"></path>
     </g>
     <g transform="translate(532,454)">
      <path style="stroke: black; stroke-width: 1; fill: none;" d="M0,0V6m3,0h-6M0,0V-6m3,0h-6"></path>
     </g>
     <g transform="translate(724,388)">
      <path style="stroke: black; stroke-width: 1; fill: none;" d="M0,0V6m3,0h-6M0,0V-6m3,0h-6"></path>
     </g>
     <g transform="translate(749,351)">
      <path style="stroke: black; stroke-width: 1; fill: none;" d="M0,0V6m3,0h-6M0,0V-6m3,0h-6"></path>
     </g>
     <g transform="translate(90,583)">
      <path style="stroke: black; stroke-width: 1; fill: none;" d="M0,0V6m3,0h-6M0,0V-6m3,0h-6"></path>
     </g>
     <g transform="translate(124,559)">
      <path style="stroke: black; stroke-width: 1; fill: none;" d="M0,0V6m3,0h-6M0,0V-6m3,0h-6"></path>
     </g>
     <g transform="translate(144,535)">
      <path style="stroke: black; stroke-width: 1; fill: none;" d="M0,0V6m3,0h-6M0,0V-6m3,0h-6"></path>
     </g>
     <g transform="translate(215,498)">
      <path style="stroke: black; stroke-width: 1; fill: none;" d="M0,0V6m3,0h-6M0,0V-6m3,0h-6"></path>
     </g>
     <g transform="translate(685,405)">
      <path style="stroke: black; stroke-width: 1; fill: none;" d="M0,0V6m3,0h-6M0,0V-6m3,0h-6"></path>
     </g>
     <g transform="translate(708,397)">
      <path style="stroke: black; stroke-width: 1; fill: none;" d="M0,0V6m3,0h-6M0,0V-6m3,0h-6"></path>
     </g>
     <g transform="translate(826,267)">
      <path style="stroke: black; stroke-width: 1; fill: none;" d="M0,0V6m3,0h-6M0,0V-6m3,0h-6"></path>
     </g>
     <g transform="translate(413,401)">
      <path style="stroke: black; stroke-width: 1; fill: none;" d="M0,0V6m3,0h-6M0,0V-6m3,0h-6"></path>
     </g>
     <g transform="translate(586,383)">
      <path style="stroke: black; stroke-width: 1; fill: none;" d="M0,0V6m3,0h-6M0,0V-6m3,0h-6"></path>
     </g>
     <g transform="translate(680,344)">
      <path style="stroke: black; stroke-width: 1; fill: none;" d="M0,0V6m3,0h-6M0,0V-6m3,0h-6"></path>
     </g>
     <g transform="translate(279,472)">
      <path style="stroke: black; stroke-width: 1; fill: none;" d="M0,0V6m3,0h-6M0,0V-6m3,0h-6"></path>
     </g>
     <g transform="translate(652,310)">
      <path style="stroke: black; stroke-width: 1; fill: none;" d="M0,0V6m3,0h-6M0,0V-6m3,0h-6"></path>
     </g>
     <g transform="translate(432,228)">
      <path style="stroke: black; stroke-width: 1; fill: none;" d="M0,0V6m3,0h-6M0,0V-6m3,0h-6"></path>
     </g>
     <g transform="translate(611,416)">
      <path style="stroke: black; stroke-width: 1; fill: none;" d="M0,0V6m3,0h-6M0,0V-6m3,0h-6"></path>
     </g>
     <g transform="translate(448,358)">
      <path style="stroke: black; stroke-width: 1; fill: none;" d="M0,0V6m3,0h-6M0,0V-6m3,0h-6"></path>
     </g>
     <g transform="translate(602,152)">
      <path style="stroke: black; stroke-width: 1; fill: none;" d="M0,0V6m3,0h-6M0,0V-6m3,0h-6"></path>
     </g>
     <g transform="translate(385,373)">
      <path style="stroke: black; stroke-width: 1; fill: none;" d="M0,0V6m3,0h-6M0,0V-6m3,0h-6"></path>
     </g>
     <g transform="translate(422,339)">
      <path style="stroke: black; stroke-width: 1; fill: none;" d="M0,0V6m3,0h-6M0,0V-6m3,0h-6"></path>
     </g>
     <g transform="translate(559,373)">
      <path style="stroke: black; stroke-width: 1; fill: none;" d="M0,0V6m3,0h-6M0,0V-6m3,0h-6"></path>
     </g>
     <g transform="translate(392,413)">
      <path style="stroke: black; stroke-width: 1; fill: none;" d="M0,0V6m3,0h-6M0,0V-6m3,0h-6"></path>
     </g>
     <g transform="translate(281,404)">
      <path style="stroke: black; stroke-width: 1; fill: none;" d="M0,0V6m3,0h-6M0,0V-6m3,0h-6"></path>
     </g>
     <g transform="translate(504,311)">
      <path style="stroke: black; stroke-width: 1; fill: none;" d="M0,0V6m3,0h-6M0,0V-6m3,0h-6"></path>
     </g>
     <g transform="translate(325,392)">
      <path style="stroke: black; stroke-width: 1; fill: none;" d="M0,0V6m3,0h-6M0,0V-6m3,0h-6"></path>
     </g>
     <g transform="translate(506,310)">
      <path style="stroke: black; stroke-width: 1; fill: none;" d="M0,0V6m3,0h-6M0,0V-6m3,0h-6"></path>
     </g>
     <g transform="translate(589,431)">
      <path style="stroke: black; stroke-width: 1; fill: none;" d="M0,0V6m3,0h-6M0,0V-6m3,0h-6"></path>
     </g>
     <g transform="translate(340,445)">
      <path style="stroke: black; stroke-width: 1; fill: none;" d="M0,0V6m3,0h-6M0,0V-6m3,0h-6"></path>
     </g>
     <g transform="translate(482,368)">
      <path style="stroke: black; stroke-width: 1; fill: none;" d="M0,0V6m3,0h-6M0,0V-6m3,0h-6"></path>
     </g>
     <g transform="translate(671,374)">
      <path style="stroke: black; stroke-width: 1; fill: none;" d="M0,0V6m3,0h-6M0,0V-6m3,0h-6"></path>
     </g>
     <g transform="translate(596,444)">
      <path style="stroke: black; stroke-width: 1; fill: none;" d="M0,0V6m3,0h-6M0,0V-6m3,0h-6"></path>
     </g>
     <g transform="translate(661,311)">
      <path style="stroke: black; stroke-width: 1; fill: none;" d="M0,0V6m3,0h-6M0,0V-6m3,0h-6"></path>
     </g>
     <g transform="translate(286,471)">
      <path style="stroke: black; stroke-width: 1; fill: none;" d="M0,0V6m3,0h-6M0,0V-6m3,0h-6"></path>
     </g>
     <g transform="translate(547,334)">
      <path style="stroke: black; stroke-width: 1; fill: none;" d="M0,0V6m3,0h-6M0,0V-6m3,0h-6"></path>
     </g>
     <g transform="translate(519,460)">
      <path style="stroke: black; stroke-width: 1; fill: none;" d="M0,0V6m3,0h-6M0,0V-6m3,0h-6"></path>
     </g>
     <g transform="translate(673,360)">
      <path style="stroke: black; stroke-width: 1; fill: none;" d="M0,0V6m3,0h-6M0,0V-6m3,0h-6"></path>
     </g>
     <g transform="translate(481,236)">
      <path style="stroke: black; stroke-width: 1; fill: none;" d="M0,0V6m3,0h-6M0,0V-6m3,0h-6"></path>
     </g>
     <g transform="translate(473,420)">
      <path style="stroke: black; stroke-width: 1; fill: none;" d="M0,0V6m3,0h-6M0,0V-6m3,0h-6"></path>
     </g>
     <g transform="translate(358,417)">
      <path style="stroke: black; stroke-width: 1; fill: none;" d="M0,0V6m3,0h-6M0,0V-6m3,0h-6"></path>
     </g>
     <g transform="translate(598,349)">
      <path style="stroke: black; stroke-width: 1; fill: none;" d="M0,0V6m3,0h-6M0,0V-6m3,0h-6"></path>
     </g>
     <g transform="translate(445,359)">
      <path style="stroke: black; stroke-width: 1; fill: none;" d="M0,0V6m3,0h-6M0,0V-6m3,0h-6"></path>
     </g>
     <g transform="translate(515,188)">
      <path style="stroke: black; stroke-width: 1; fill: none;" d="M0,0V6m3,0h-6M0,0V-6m3,0h-6"></path>
     </g>
     <g transform="translate(671,273)">
      <path style="stroke: black; stroke-width: 1; fill: none;" d="M0,0V6m3,0h-6M0,0V-6m3,0h-6"></path>
     </g>
     <g transform="translate(410,161)">
      <path style="stroke: black; stroke-width: 1; fill: none;" d="M0,0V6m3,0h-6M0,0V-6m3,0h-6"></path>
     </g>
     <g transform="translate(682,393)">
      <path style="stroke: black; stroke-width: 1; fill: none;" d="M0,0V6m3,0h-6M0,0V-6m3,0h-6"></path>
     </g>
     <g transform="translate(590,147)">
      <path style="stroke: black; stroke-width: 1; fill: none;" d="M0,0V6m3,0h-6M0,0V-6m3,0h-6"></path>
     </g>
     <g transform="translate(374,453)">
      <path style="stroke: black; stroke-width: 1; fill: none;" d="M0,0V6m3,0h-6M0,0V-6m3,0h-6"></path>
     </g>
     <g transform="translate(588,434)">
      <path style="stroke: black; stroke-width: 1; fill: none;" d="M0,0V6m3,0h-6M0,0V-6m3,0h-6"></path>
     </g>
     <g transform="translate(558,198)">
      <path style="stroke: black; stroke-width: 1; fill: none;" d="M0,0V6m3,0h-6M0,0V-6m3,0h-6"></path>
     </g>
     <g transform="translate(396,284)">
      <path style="stroke: black; stroke-width: 1; fill: none;" d="M0,0V6m3,0h-6M0,0V-6m3,0h-6"></path>
     </g>
     <g transform="translate(402,390)">
      <path style="stroke: black; stroke-width: 1; fill: none;" d="M0,0V6m3,0h-6M0,0V-6m3,0h-6"></path>
     </g>
     <g transform="translate(368,262)">
      <path style="stroke: black; stroke-width: 1; fill: none;" d="M0,0V6m3,0h-6M0,0V-6m3,0h-6"></path>
     </g>
     <g transform="translate(654,414)">
      <path style="stroke: black; stroke-width: 1; fill: none;" d="M0,0V6m3,0h-6M0,0V-6m3,0h-6"></path>
     </g>
     <g transform="translate(591,335)">
      <path style="stroke: black; stroke-width: 1; fill: none;" d="M0,0V6m3,0h-6M0,0V-6m3,0h-6"></path>
     </g>
     <path d="M200,496h1m74,-14h1M704,390h1M561,469h1M880,189h1M111,561h1M391,472h1M119,554h1M496,460h1m-151,2h1m-77,23h1m-97,28h1M705,392h1m59,-46h1M457,459h1M630,438h1M448,465h1M832,259h1M481,477h1M119,552h1M664,412h1M380,454h1M144,542h1M248,482h1m17,-3h1M836,253h1M448,458h1M751,354h1M351,470h1m28,-2h1M579,454h1M753,362h1m68,-81h1M645,424h1M395,469h1M806,295h1M681,408h1M323,474h1m210,-8h1m4,-5h1M498,447h1M844,236h1M503,468h1M402,450h1m-60,18h1m72,-5h1M101,573h1M445,458h1M614,437h1M749,357h1M463,462h1M721,386h1M405,457h1M771,338h1M352,466h1M610,444h1M750,358h1m65,-76h1m-88,99h1m-46,29h1M798,308h1m-62,67h1M633,436h1M249,482h1M523,454h1M212,501h1M648,427h1M753,361h1M178,506h1M608,446h1M151,530h1M374,476h1M552,454h1m-159,5h1m77,13h1M357,465h1M127,542h1M776,323h1M203,509h1M319,469h1M680,420h1M509,455h1m-124,0h1M80,606h1M853,231h1M122,544h1M336,464h1m52,4h1M233,491h1M561,447h1M305,472h1M574,445h1M832,276h1M407,470h1M621,427h1m-78,24h1M681,409h1M461,462h1m-171,7h1M811,297h1m-65,65h1m-66,48h1m90,-71h1M638,429h1M403,454h1M230,485h1M612,441h1M262,484h1m21,-19h1M584,439h1M759,354h1M475,455h1M120,558h1M256,490h1M615,439h1M264,484h1m-27,7h1M574,445h1M138,539h1M730,376h1m7,1h1M481,458h1M211,504h1m10,-21h1m-78,51h1m-46,38h1M444,465h1M179,512h1M334,466h1m11,-9h1M205,495h1M555,449h1m-95,1h1M754,350h1M548,456h1m90,-25h1M139,543h1M633,433h1m-63,23h1M94,583h1M304,469h1m-43,9h1M143,540h1M703,394h1M596,445h1m75,-38h1M466,463h1M771,346h1M522,454h1M256,484h1M543,450h1M836,258h1M154,533h1M780,336h1M384,461h1M829,277h1M641,434h1M499,448h1M369,468h1M223,491h1M107,568h1M251,478h1m74,-13h1M676,418h1M352,469h1M501,459h1m-115,4h1M609,435h1M163,533h1M266,488h1M419,472h1M312,470h1M499,459h1M393,454h1M635,438h1M300,476h1m-28,1h1M497,458h1m22,-1h1m-110,7h1M835,262h1M699,403h1M848,250h1M661,414h1m52,-23h1m26,-18h1M383,459h1M549,447h1M736,365h1M531,450h1m0,4h1M724,388h1m24,-37h1M90,583h1m33,-24h1m19,-24h1m70,-37h1M685,405h1m22,-8h1M826,267h1M413,401h1M586,383h1m93,-39h1M279,472h1M652,310h1M432,228h1M611,416h1M448,358h1M602,152h1M385,373h1m36,-34h1m136,34h1M392,413h1M281,404h1M504,311h1M325,392h1M506,310h1m82,121h1M340,445h1M482,368h1m188,6h1m-76,70h1M661,311h1M286,471h1M547,334h1M519,460h1M673,360h1M481,236h1m-9,184h1M358,417h1M598,349h1M445,359h1M515,188h1m155,85h1M410,161h1M682,393h1M590,147h1M374,453h1M588,434h1M558,198h1M396,284h1m5,106h1M368,262h1M654,414h1M591,335h1" style="stroke: black; fill: none;"></path>
    </g>
    <g>
     <path d="M5,835l10,-26l9,-25l10,-24l9,-22l10,-22l10,-21l9,-21l10,-19l9,-19l10,-17l10,-17l9,-16l10,-16l9,-14l10,-14l10,-13l9,-13l10,-12l9,-11l10,-10l10,-10l9,-9l10,-9l9,-8l10,-8l10,-7l9,-7l10,-6l9,-5l10,-5l10,-5l9,-4l10,-4l9,-4l10,-3l10,-3l9,-2l10,-2l9,-2l10,-2l10,-1l9,-1l10,-1h9l10,-1h10h9h10h9h10h10l9,1h10l9,1h10l10,1h9h10l9,1h10h10h9h10h9l10,-1l10,-1h9l10,-1l9,-2l10,-1l10,-2l9,-2l10,-3l9,-3l10,-3l10,-3l9,-4l10,-4l9,-5l10,-5l10,-6l9,-6l10,-7l9,-7l10,-7l10,-9l9,-8l10,-10l9,-10l10,-10l10,-11l9,-12l10,-13l9,-13l10,-14l10,-15l9,-15l10,-16l9,-17" style="fill: none; stroke: #0000ff; stroke-width: 2;"></path>
    </g>
    <g>
     <path d="M5,694l10,-15l9,-14l10,-14l9,-12l10,-13l10,-12l9,-11l10,-10l9,-10l10,-10l10,-9l9,-8l10,-8l9,-8l10,-7l10,-6l9,-6l10,-6l9,-6l10,-4l10,-5l9,-4l10,-4l9,-4l10,-3l10,-3l9,-3l10,-2l9,-2l10,-2l10,-2l9,-2l10,-1l9,-1l10,-1l10,-1l9,-1h10l9,-1h10l10,-1h9h10l9,-1h10h10h9l10,-1h9l10,-1h10l9,-1l10,-1l9,-1l10,-1l10,-1l9,-1l10,-2l9,-2l10,-2l10,-2l9,-2l10,-3l9,-3l10,-3l10,-4l9,-4l10,-4l9,-5l10,-5l10,-6l9,-6l10,-6l9,-6l10,-8l10,-7l9,-8l10,-9l9,-9l10,-10l10,-10l9,-11l10,-11l9,-12l10,-12l10,-13l9,-14l10,-14l9,-16l10,-15l10,-17l9,-17l10,-18l9,-18l10,-19l10,-21l9,-20l10,-22l9,-23" style="fill: none; stroke: #ff0000; stroke-width: 2;"></path>
    </g>
   </svg>
   <g>
    <g transform="translate(0,640)">
     <path d="M0,0h960M14,-12V0M35,-12V0M55,-12V0M75,-24V0M95,-12V0M116,-12V0M136,-12V0M156,-12V0M176,-24V0M197,-12V0M217,-12V0M237,-12V0M257,-12V0M278,-24V0M298,-12V0M318,-12V0M338,-12V0M359,-12V0M379,-24V0M399,-12V0M419,-12V0M440,-12V0M460,-12V0M480,-24V0M500,-12V0M521,-12V0M541,-12V0M561,-12V0M581,-24V0M602,-12V0M622,-12V0M642,-12V0M662,-12V0M683,-24V0M703,-12V0M723,-12V0M743,-12V0M764,-12V0M784,-24V0M804,-12V0M824,-12V0M845,-12V0M865,-12V0M885,-24V0M905,-12V0M926,-12V0M946,-12V0" style="stroke: black; stroke-width: 1;"></path>
     <g font-family="Arial" font-size="28" space="preserve" fill="black" text-anchor="middle">
      <text dy=".8em" transform="translate(75,5)">
       -2
      </text>
      <text dy=".8em" transform="translate(176,5)">
       -1.5
      </text>
      <text dy=".8em" transform="translate(278,5)">
       -1
      </text>
      <text dy=".8em" transform="translate(379,5)">
       -0.5
      </text>
      <text dy=".8em" transform="translate(480,5)">
       0
      </text>
      <text dy=".8em" transform="translate(581,5)">
       0.5
      </text>
      <text dy=".8em" transform="translate(683,5)">
       1
      </text>
      <text dy=".8em" transform="translate(784,5)">
       1.5
      </text>
      <text dy=".8em" transform="translate(885,5)">
       2
      </text>
     </g>
    </g>
    <g>
     <path d="M0,0v640M18,640H0M18,611H0M36,582H0M18,553H0M18,524H0M18,495H0M36,465H0M18,436H0M18,407H0M18,378H0M36,349H0M18,320H0M18,291H0M18,262H0M36,233H0M18,204H0M18,175H0M18,145H0M36,116H0M18,87H0M18,58H0M18,29H0M36,0H0" style="stroke: black; stroke-width: 1;"></path>
     <g font-family="Arial" font-size="28" space="preserve" fill="black" text-anchor="end">
      <text dy=".4em" transform="translate(-6,582)">
       -20
      </text>
      <text dy=".4em" transform="translate(-6,465)">
       0
      </text>
      <text dy=".4em" transform="translate(-6,349)">
       20
      </text>
      <text dy=".4em" transform="translate(-6,233)">
       40
      </text>
      <text dy=".4em" transform="translate(-6,116)">
       60
      </text>
      <text dy=".4em" transform="translate(-6)">
       80
      </text>
     </g>
    </g>
    <path d="M75,0v640M176,0v640M278,0v640M379,0v640M480,0v640M581,0v640M683,0v640M784,0v640M885,0v640" style="stroke: black; stroke-width: 1; stroke-dasharray: 1,2;"></path>
    <path d="M0,582h960M0,465h960M0,349h960M0,233h960M0,116h960M0,0h960" style="stroke: black; stroke-width: 1; stroke-dasharray: 1,2;"></path>
   </g>
  </g>
  <g transform="translate(120,4)" font-family="Arial" font-size="40" space="preserve">
   <text fill="black" text-anchor="middle" dy=".8em" transform="translate(480)">
    Graph
   </text>
  </g>
  <g transform="translate(720,88)" font-family="Arial" font-size="18" space="preserve">
   <path d="M0,0H348V72H0Z" style="fill: white; stroke: black; stroke-width: 1;"></path>
   <path d="M10,19H77" style="stroke: #0000ff; stroke-width: 2;"></path>
   <text fill="black" text-anchor="start" dy=".4em" transform="translate(87,19)">
    Ordinary least squares
   </text>
   <path d="M10,53H77" style="stroke: #ff0000; stroke-width: 2;"></path>
   <text fill="black" text-anchor="start" dy=".4em" transform="translate(87,53)">
    LTS regression
   </text>
  </g>
 </g>
</svg>