<svg xmlns="http://www.w3.org/2000/svg" viewBox="0 0 1200 800" preserveAspectRatio="none" width="1200" height="800">
 <path d="M0,0H1200V800H0Z" style="fill: white;"></path>
 <g>
  <g transform="translate(120,80)">
   <path d="M0,0H960V640H0Z" style="fill: white; stroke: black; stroke-width: 1;"></path>
   <g>
    <path d="M37,0v640M155,0v640M273,0v640M391,0v640M509,0v640M627,0v640M745,0v640M863,0v640" style="stroke: black; stroke-width: 1; stroke-dasharray: 1,2;"></path>
    <path d="M0,564h960M0,474h960M0,383h960M0,293h960M0,203h960M0,113h960M0,23h960" style="stroke: black; stroke-width: 1; stroke-dasharray: 1,2;"></path>
   </g>
   <svg x="0" y="0" overflow="hidden" width="960" height="640" viewBox="0 0 960 640">
    <g>
     <g transform="translate(88,555)">
      <path style="stroke: #ff0000; stroke-width: 1; fill: none;" d="M0,0V2m3,0h-6M0,0V-2m3,0h-6"></path>
     </g>
     <g transform="translate(216,529)">
      <path style="stroke: #ff0000; stroke-width: 1; fill: none;" d="M0,0V2m3,0h-6M0,0V-2m3,0h-6"></path>
     </g>
     <g transform="translate(289,508)">
      <path style="stroke: #ff0000; stroke-width: 1; fill: none;" d="M0,0V2m3,0h-6M0,0V-2m3,0h-6"></path>
     </g>
     <g transform="translate(247,524)">
      <path style="stroke: #ff0000; stroke-width: 1; fill: none;" d="M0,0V2m3,0h-6M0,0V-2m3,0h-6"></path>
     </g>
     <g transform="translate(268,516)">
      <path style="stroke: #ff0000; stroke-width: 1; fill: none;" d="M0,0V2m3,0h-6M0,0V-2m3,0h-6"></path>
     </g>
     <g transform="translate(241,521)">
      <path style="stroke: #ff0000; stroke-width: 1; fill: none;" d="M0,0V2m3,0h-6M0,0V-2m3,0h-6"></path>
     </g>
     <g transform="translate(188,536)">
      <path style="stroke: #ff0000; stroke-width: 1; fill: none;" d="M0,0V2m3,0h-6M0,0V-2m3,0h-6"></path>
     </g>
     <g transform="translate(317,503)">
      <path style="stroke: #ff0000; stroke-width: 1; fill: none;" d="M0,0V2m3,0h-6M0,0V-2m3,0h-6"></path>
     </g>
     <g transform="translate(105,551)">
      <path style="stroke: #ff0000; stroke-width: 1; fill: none;" d="M0,0V2m3,0h-6M0,0V-2m3,0h-6"></path>
     </g>
     <g transform="translate(176,539)">
      <path style="stroke: #ff0000; stroke-width: 1; fill: none;" d="M0,0V2m3,0h-6M0,0V-2m3,0h-6"></path>
     </g>
     <g transform="translate(97,552)">
      <path style="stroke: #ff0000; stroke-width: 1; fill: none;" d="M0,0V2m3,0h-6M0,0V-2m3,0h-6"></path>
     </g>
     <g transform="translate(107,551)">
      <path style="stroke: #ff0000; stroke-width: 1; fill: none;" d="M0,0V2m3,0h-6M0,0V-2m3,0h-6"></path>
     </g>
     <g transform="translate(305,507)">
      <path style="stroke: #ff0000; stroke-width: 1; fill: none;" d="M0,0V2m3,0h-6M0,0V-2m3,0h-6"></path>
     </g>
     <g transform="translate(44,555)">
      <path style="stroke: #ff0000; stroke-width: 1; fill: none;" d="M0,0V2m3,0h-6M0,0V-2m3,0h-6"></path>
     </g>
     <g transform="translate(318,503)">
      <path style="stroke: #ff0000; stroke-width: 1; fill: none;" d="M0,0V2m3,0h-6M0,0V-2m3,0h-6"></path>
     </g>
     <g transform="translate(139,544)">
      <path style="stroke: #ff0000; stroke-width: 1; fill: none;" d="M0,0V2m3,0h-6M0,0V-2m3,0h-6"></path>
     </g>
     <g transform="translate(175,540)">
      <path style="stroke: #ff0000; stroke-width: 1; fill: none;" d="M0,0V2m3,0h-6M0,0V-2m3,0h-6"></path>
     </g>
     <g transform="translate(181,540)">
      <path style="stroke: #ff0000; stroke-width: 1; fill: none;" d="M0,0V2m3,0h-6M0,0V-2m3,0h-6"></path>
     </g>
     <g transform="translate(291,512)">
      <path style="stroke: #ff0000; stroke-width: 1; fill: none;" d="M0,0V2m3,0h-6M0,0V-2m3,0h-6"></path>
     </g>
     <g transform="translate(284,510)">
      <path style="stroke: #ff0000; stroke-width: 1; fill: none;" d="M0,0V2m3,0h-6M0,0V-2m3,0h-6"></path>
     </g>
     <g transform="translate(260,518)">
      <path style="stroke: #ff0000; stroke-width: 1; fill: none;" d="M0,0V2m3,0h-6M0,0V-2m3,0h-6"></path>
     </g>
     <g transform="translate(193,535)">
      <path style="stroke: #ff0000; stroke-width: 1; fill: none;" d="M0,0V2m3,0h-6M0,0V-2m3,0h-6"></path>
     </g>
     <g transform="translate(92,554)">
      <path style="stroke: #ff0000; stroke-width: 1; fill: none;" d="M0,0V2m3,0h-6M0,0V-2m3,0h-6"></path>
     </g>
     <g transform="translate(80,557)">
      <path style="stroke: #ff0000; stroke-width: 1; fill: none;" d="M0,0V2m3,0h-6M0,0V-2m3,0h-6"></path>
     </g>
     <g transform="translate(150,545)">
      <path style="stroke: #ff0000; stroke-width: 1; fill: none;" d="M0,0V2m3,0h-6M0,0V-2m3,0h-6"></path>
     </g>
     <g transform="translate(65,557)">
      <path style="stroke: #ff0000; stroke-width: 1; fill: none;" d="M0,0V2m3,0h-6M0,0V-2m3,0h-6"></path>
     </g>
     <g transform="translate(130,552)">
      <path style="stroke: #ff0000; stroke-width: 1; fill: none;" d="M0,0V2m3,0h-6M0,0V-2m3,0h-6"></path>
     </g>
     <g transform="translate(154,548)">
      <path style="stroke: #ff0000; stroke-width: 1; fill: none;" d="M0,0V2m3,0h-6M0,0V-2m3,0h-6"></path>
     </g>
     <g transform="translate(60,556)">
      <path style="stroke: #ff0000; stroke-width: 1; fill: none;" d="M0,0V2m3,0h-6M0,0V-2m3,0h-6"></path>
     </g>
     <g transform="translate(217,530)">
      <path style="stroke: #ff0000; stroke-width: 1; fill: none;" d="M0,0V2m3,0h-6M0,0V-2m3,0h-6"></path>
     </g>
     <path d="M88,555h1M216,529h1m72,-21h1m-43,16h1m20,-8h1m-28,5h1m-54,15h1M317,503h1M105,551h1m70,-12h1M97,552h1m9,-1h1M305,507h1M44,555h1M318,503h1M139,544h1m35,-4h1m5,0h1M291,512h1m-8,-2h1m-25,8h1m-68,17h1M92,554h1m-13,3h1m69,-12h1M65,557h1m64,-5h1m23,-4h1m-95,8h1M217,530h1" style="stroke: black; fill: none;"></path>
    </g>
    <g>
     <g transform="translate(339,483)">
      <path style="stroke: #0000ff; stroke-width: 1; fill: none;" d="M0,0V18m3,0h-6M0,0V-18m3,0h-6"></path>
     </g>
     <g transform="translate(359,484)">
      <path style="stroke: #0000ff; stroke-width: 1; fill: none;" d="M0,0V18m3,0h-6M0,0V-18m3,0h-6"></path>
     </g>
     <g transform="translate(329,489)">
      <path style="stroke: #0000ff; stroke-width: 1; fill: none;" d="M0,0V18m3,0h-6M0,0V-18m3,0h-6"></path>
     </g>
     <g transform="translate(313,530)">
      <path style="stroke: #0000ff; stroke-width: 1; fill: none;" d="M0,0V18m3,0h-6M0,0V-18m3,0h-6"></path>
     </g>
     <g transform="translate(275,520)">
      <path style="stroke: #0000ff; stroke-width: 1; fill: none;" d="M0,0V18m3,0h-6M0,0V-18m3,0h-6"></path>
     </g>
     <g transform="translate(278,500)">
      <path style="stroke: #0000ff; stroke-width: 1; fill: none;" d="M0,0V18m3,0h-6M0,0V-18m3,0h-6"></path>
     </g>
     <g transform="translate(344,476)">
      <path style="stroke: #0000ff; stroke-width: 1; fill: none;" d="M0,0V18m3,0h-6M0,0V-18m3,0h-6"></path>
     </g>
     <g transform="translate(429,426)">
      <path style="stroke: #0000ff; stroke-width: 1; fill: none;" d="M0,0V18m3,0h-6M0,0V-18m3,0h-6"></path>
     </g>
     <g transform="translate(257,506)">
      <path style="stroke: #0000ff; stroke-width: 1; fill: none;" d="M0,0V18m3,0h-6M0,0V-18m3,0h-6"></path>
     </g>
     <g transform="translate(478,426)">
      <path style="stroke: #0000ff; stroke-width: 1; fill: none;" d="M0,0V18m3,0h-6M0,0V-18m3,0h-6"></path>
     </g>
     <g transform="translate(398,489)">
      <path style="stroke: #0000ff; stroke-width: 1; fill: none;" d="M0,0V18m3,0h-6M0,0V-18m3,0h-6"></path>
     </g>
     <g transform="translate(292,508)">
      <path style="stroke: #0000ff; stroke-width: 1; fill: none;" d="M0,0V18m3,0h-6M0,0V-18m3,0h-6"></path>
     </g>
     <g transform="translate(435,418)">
      <path style="stroke: #0000ff; stroke-width: 1; fill: none;" d="M0,0V18m3,0h-6M0,0V-18m3,0h-6"></path>
     </g>
     <g transform="translate(383,493)">
      <path style="stroke: #0000ff; stroke-width: 1; fill: none;" d="M0,0V18m3,0h-6M0,0V-18m3,0h-6"></path>
     </g>
     <g transform="translate(243,524)">
      <path style="stroke: #0000ff; stroke-width: 1; fill: none;" d="M0,0V18m3,0h-6M0,0V-18m3,0h-6"></path>
     </g>
     <g transform="translate(310,529)">
      <path style="stroke: #0000ff; stroke-width: 1; fill: none;" d="M0,0V18m3,0h-6M0,0V-18m3,0h-6"></path>
     </g>
     <g transform="translate(476,426)">
      <path style="stroke: #0000ff; stroke-width: 1; fill: none;" d="M0,0V18m3,0h-6M0,0V-18m3,0h-6"></path>
     </g>
     <g transform="translate(421,486)">
      <path style="stroke: #0000ff; stroke-width: 1; fill: none;" d="M0,0V18m3,0h-6M0,0V-18m3,0h-6"></path>
     </g>
     <g transform="translate(249,566)">
      <path style="stroke: #0000ff; stroke-width: 1; fill: none;" d="M0,0V18m3,0h-6M0,0V-18m3,0h-6"></path>
     </g>
     <g transform="translate(431,450)">
      <path style="stroke: #0000ff; stroke-width: 1; fill: none;" d="M0,0V18m3,0h-6M0,0V-18m3,0h-6"></path>
     </g>
     <g transform="translate(294,507)">
      <path style="stroke: #0000ff; stroke-width: 1; fill: none;" d="M0,0V18m3,0h-6M0,0V-18m3,0h-6"></path>
     </g>
     <g transform="translate(417,475)">
      <path style="stroke: #0000ff; stroke-width: 1; fill: none;" d="M0,0V18m3,0h-6M0,0V-18m3,0h-6"></path>
     </g>
     <g transform="translate(401,462)">
      <path style="stroke: #0000ff; stroke-width: 1; fill: none;" d="M0,0V18m3,0h-6M0,0V-18m3,0h-6"></path>
     </g>
     <g transform="translate(240,493)">
      <path style="stroke: #0000ff; stroke-width: 1; fill: none;" d="M0,0V18m3,0h-6M0,0V-18m3,0h-6"></path>
     </g>
     <g transform="translate(215,510)">
      <path style="stroke: #0000ff; stroke-width: 1; fill: none;" d="M0,0V18m3,0h-6M0,0V-18m3,0h-6"></path>
     </g>
     <g transform="translate(470,436)">
      <path style="stroke: #0000ff; stroke-width: 1; fill: none;" d="M0,0V18m3,0h-6M0,0V-18m3,0h-6"></path>
     </g>
     <g transform="translate(450,461)">
      <path style="stroke: #0000ff; stroke-width: 1; fill: none;" d="M0,0V18m3,0h-6M0,0V-18m3,0h-6"></path>
     </g>
     <g transform="translate(238,510)">
      <path style="stroke: #0000ff; stroke-width: 1; fill: none;" d="M0,0V18m3,0h-6M0,0V-18m3,0h-6"></path>
     </g>
     <g transform="translate(242,522)">
      <path style="stroke: #0000ff; stroke-width: 1; fill: none;" d="M0,0V18m3,0h-6M0,0V-18m3,0h-6"></path>
     </g>
     <g transform="translate(255,531)">
      <path style="stroke: #0000ff; stroke-width: 1; fill: none;" d="M0,0V18m3,0h-6M0,0V-18m3,0h-6"></path>
     </g>
     <path d="M337.9,482.7a1.2,1.2,0,1,0,2.4,0a1.2,1.2,0,1,0,-2.4,0zM357.6,483.5a1.2,1.2,0,1,0,2.4,0a1.2,1.2,0,1,0,-2.4,0zM328.2,489.0a1.2,1.2,0,1,0,2.4,0a1.2,1.2,0,1,0,-2.4,0zM311.8,529.9a1.2,1.2,0,1,0,2.4,0a1.2,1.2,0,1,0,-2.4,0zM273.4,520.0a1.2,1.2,0,1,0,2.4,0a1.2,1.2,0,1,0,-2.4,0zM277.1,500.3a1.2,1.2,0,1,0,2.4,0a1.2,1.2,0,1,0,-2.4,0zM342.6,476.0a1.2,1.2,0,1,0,2.4,0a1.2,1.2,0,1,0,-2.4,0zM427.5,426.3a1.2,1.2,0,1,0,2.4,0a1.2,1.2,0,1,0,-2.4,0zM255.8,506.3a1.2,1.2,0,1,0,2.4,0a1.2,1.2,0,1,0,-2.4,0zM477.2,426.4a1.2,1.2,0,1,0,2.4,0a1.2,1.2,0,1,0,-2.4,0zM396.7,489.2a1.2,1.2,0,1,0,2.4,0a1.2,1.2,0,1,0,-2.4,0zM290.5,508.4a1.2,1.2,0,1,0,2.4,0a1.2,1.2,0,1,0,-2.4,0zM433.5,417.6a1.2,1.2,0,1,0,2.4,0a1.2,1.2,0,1,0,-2.4,0zM381.9,492.7a1.2,1.2,0,1,0,2.4,0a1.2,1.2,0,1,0,-2.4,0zM242.0,523.6a1.2,1.2,0,1,0,2.4,0a1.2,1.2,0,1,0,-2.4,0zM308.3,528.6a1.2,1.2,0,1,0,2.4,0a1.2,1.2,0,1,0,-2.4,0zM474.9,426.1a1.2,1.2,0,1,0,2.4,0a1.2,1.2,0,1,0,-2.4,0zM419.4,486.0a1.2,1.2,0,1,0,2.4,0a1.2,1.2,0,1,0,-2.4,0zM247.8,566.4a1.2,1.2,0,1,0,2.4,0a1.2,1.2,0,1,0,-2.4,0zM429.7,450.2a1.2,1.2,0,1,0,2.4,0a1.2,1.2,0,1,0,-2.4,0zM292.3,506.8a1.2,1.2,0,1,0,2.4,0a1.2,1.2,0,1,0,-2.4,0zM416.1,475.5a1.2,1.2,0,1,0,2.4,0a1.2,1.2,0,1,0,-2.4,0zM399.7,461.7a1.2,1.2,0,1,0,2.4,0a1.2,1.2,0,1,0,-2.4,0zM239.1,493.0a1.2,1.2,0,1,0,2.4,0a1.2,1.2,0,1,0,-2.4,0zM213.7,510.1a1.2,1.2,0,1,0,2.4,0a1.2,1.2,0,1,0,-2.4,0zM468.4,435.7a1.2,1.2,0,1,0,2.4,0a1.2,1.2,0,1,0,-2.4,0zM448.7,461.3a1.2,1.2,0,1,0,2.4,0a1.2,1.2,0,1,0,-2.4,0zM237.0,510.0a1.2,1.2,0,1,0,2.4,0a1.2,1.2,0,1,0,-2.4,0zM240.8,522.2a1.2,1.2,0,1,0,2.4,0a1.2,1.2,0,1,0,-2.4,0zM253.6,531.1a1.2,1.2,0,1,0,2.4,0a1.2,1.2,0,1,0,-2.4,0z" style="stroke: black; fill: none;"></path>
    </g>
    <g>
     <g transform="translate(848,142)">
      <path style="stroke: #00ff00; stroke-width: 1; fill: none;" d="M0,0V36m3,0h-6M0,0V-36m3,0h-6"></path>
     </g>
     <g transform="translate(885,177)">
      <path style="stroke: #00ff00; stroke-width: 1; fill: none;" d="M0,0V36m3,0h-6M0,0V-36m3,0h-6"></path>
     </g>
     <g transform="translate(578,409)">
      <path style="stroke: #00ff00; stroke-width: 1; fill: none;" d="M0,0V36m3,0h-6M0,0V-36m3,0h-6"></path>
     </g>
     <g transform="translate(896,92)">
      <path style="stroke: #00ff00; stroke-width: 1; fill: none;" d="M0,0V36m3,0h-6M0,0V-36m3,0h-6"></path>
     </g>
     <g transform="translate(776,183)">
      <path style="stroke: #00ff00; stroke-width: 1; fill: none;" d="M0,0V36m3,0h-6M0,0V-36m3,0h-6"></path>
     </g>
     <g transform="translate(573,344)">
      <path style="stroke: #00ff00; stroke-width: 1; fill: none;" d="M0,0V36m3,0h-6M0,0V-36m3,0h-6"></path>
     </g>
     <g transform="translate(737,225)">
      <path style="stroke: #00ff00; stroke-width: 1; fill: none;" d="M0,0V36m3,0h-6M0,0V-36m3,0h-6"></path>
     </g>
     <g transform="translate(916,133)">
      <path style="stroke: #00ff00; stroke-width: 1; fill: none;" d="M0,0V36m3,0h-6M0,0V-36m3,0h-6"></path>
     </g>
     <g transform="translate(844,136)">
      <path style="stroke: #00ff00; stroke-width: 1; fill: none;" d="M0,0V36m3,0h-6M0,0V-36m3,0h-6"></path>
     </g>
     <g transform="translate(863,209)">
      <path style="stroke: #00ff00; stroke-width: 1; fill: none;" d="M0,0V36m3,0h-6M0,0V-36m3,0h-6"></path>
     </g>
     <g transform="translate(582,346)">
      <path style="stroke: #00ff00; stroke-width: 1; fill: none;" d="M0,0V36m3,0h-6M0,0V-36m3,0h-6"></path>
     </g>
     <g transform="translate(817,174)">
      <path style="stroke: #00ff00; stroke-width: 1; fill: none;" d="M0,0V36m3,0h-6M0,0V-36m3,0h-6"></path>
     </g>
     <g transform="translate(843,201)">
      <path style="stroke: #00ff00; stroke-width: 1; fill: none;" d="M0,0V36m3,0h-6M0,0V-36m3,0h-6"></path>
     </g>
     <g transform="translate(652,257)">
      <path style="stroke: #00ff00; stroke-width: 1; fill: none;" d="M0,0V36m3,0h-6M0,0V-36m3,0h-6"></path>
     </g>
     <g transform="translate(755,272)">
      <path style="stroke: #00ff00; stroke-width: 1; fill: none;" d="M0,0V36m3,0h-6M0,0V-36m3,0h-6"></path>
     </g>
     <g transform="translate(701,288)">
      <path style="stroke: #00ff00; stroke-width: 1; fill: none;" d="M0,0V36m3,0h-6M0,0V-36m3,0h-6"></path>
     </g>
     <g transform="translate(804,196)">
      <path style="stroke: #00ff00; stroke-width: 1; fill: none;" d="M0,0V36m3,0h-6M0,0V-36m3,0h-6"></path>
     </g>
     <g transform="translate(850,134)">
      <path style="stroke: #00ff00; stroke-width: 1; fill: none;" d="M0,0V36m3,0h-6M0,0V-36m3,0h-6"></path>
     </g>
     <g transform="translate(752,205)">
      <path style="stroke: #00ff00; stroke-width: 1; fill: none;" d="M0,0V36m3,0h-6M0,0V-36m3,0h-6"></path>
     </g>
     <g transform="translate(892,163)">
      <path style="stroke: #00ff00; stroke-width: 1; fill: none;" d="M0,0V36m3,0h-6M0,0V-36m3,0h-6"></path>
     </g>
     <g transform="translate(635,328)">
      <path style="stroke: #00ff00; stroke-width: 1; fill: none;" d="M0,0V36m3,0h-6M0,0V-36m3,0h-6"></path>
     </g>
     <g transform="translate(756,236)">
      <path style="stroke: #00ff00; stroke-width: 1; fill: none;" d="M0,0V36m3,0h-6M0,0V-36m3,0h-6"></path>
     </g>
     <g transform="translate(819,225)">
      <path style="stroke: #00ff00; stroke-width: 1; fill: none;" d="M0,0V36m3,0h-6M0,0V-36m3,0h-6"></path>
     </g>
     <g transform="translate(801,196)">
      <path style="stroke: #00ff00; stroke-width: 1; fill: none;" d="M0,0V36m3,0h-6M0,0V-36m3,0h-6"></path>
     </g>
     <g transform="translate(776,330)">
      <path style="stroke: #00ff00; stroke-width: 1; fill: none;" d="M0,0V36m3,0h-6M0,0V-36m3,0h-6"></path>
     </g>
     <g transform="translate(727,229)">
      <path style="stroke: #00ff00; stroke-width: 1; fill: none;" d="M0,0V36m3,0h-6M0,0V-36m3,0h-6"></path>
     </g>
     <g transform="translate(832,164)">
      <path style="stroke: #00ff00; stroke-width: 1; fill: none;" d="M0,0V36m3,0h-6M0,0V-36m3,0h-6"></path>
     </g>
     <g transform="translate(570,361)">
      <path style="stroke: #00ff00; stroke-width: 1; fill: none;" d="M0,0V36m3,0h-6M0,0V-36m3,0h-6"></path>
     </g>
     <g transform="translate(682,287)">
      <path style="stroke: #00ff00; stroke-width: 1; fill: none;" d="M0,0V36m3,0h-6M0,0V-36m3,0h-6"></path>
     </g>
     <g transform="translate(856,140)">
      <path style="stroke: #00ff00; stroke-width: 1; fill: none;" d="M0,0V36m3,0h-6M0,0V-36m3,0h-6"></path>
     </g>
     <path d="M846.7,141.9a1.2,1.2,0,1,0,2.4,0a1.2,1.2,0,1,0,-2.4,0zM883.4,176.6a1.2,1.2,0,1,0,2.4,0a1.2,1.2,0,1,0,-2.4,0zM577.1,408.9a1.2,1.2,0,1,0,2.4,0a1.2,1.2,0,1,0,-2.4,0zM895.3,91.6a1.2,1.2,0,1,0,2.4,0a1.2,1.2,0,1,0,-2.4,0zM774.6,182.6a1.2,1.2,0,1,0,2.4,0a1.2,1.2,0,1,0,-2.4,0zM572.0,343.8a1.2,1.2,0,1,0,2.4,0a1.2,1.2,0,1,0,-2.4,0zM736.1,224.9a1.2,1.2,0,1,0,2.4,0a1.2,1.2,0,1,0,-2.4,0zM915.2,133.2a1.2,1.2,0,1,0,2.4,0a1.2,1.2,0,1,0,-2.4,0zM842.7,136.0a1.2,1.2,0,1,0,2.4,0a1.2,1.2,0,1,0,-2.4,0zM862.3,208.7a1.2,1.2,0,1,0,2.4,0a1.2,1.2,0,1,0,-2.4,0zM581.3,346.4a1.2,1.2,0,1,0,2.4,0a1.2,1.2,0,1,0,-2.4,0zM815.8,173.8a1.2,1.2,0,1,0,2.4,0a1.2,1.2,0,1,0,-2.4,0zM842.1,200.7a1.2,1.2,0,1,0,2.4,0a1.2,1.2,0,1,0,-2.4,0zM650.8,256.7a1.2,1.2,0,1,0,2.4,0a1.2,1.2,0,1,0,-2.4,0zM753.8,272.4a1.2,1.2,0,1,0,2.4,0a1.2,1.2,0,1,0,-2.4,0zM700.1,287.8a1.2,1.2,0,1,0,2.4,0a1.2,1.2,0,1,0,-2.4,0zM802.5,195.8a1.2,1.2,0,1,0,2.4,0a1.2,1.2,0,1,0,-2.4,0zM849.0,134.0a1.2,1.2,0,1,0,2.4,0a1.2,1.2,0,1,0,-2.4,0zM751.2,205.0a1.2,1.2,0,1,0,2.4,0a1.2,1.2,0,1,0,-2.4,0zM890.5,162.9a1.2,1.2,0,1,0,2.4,0a1.2,1.2,0,1,0,-2.4,0zM633.6,327.9a1.2,1.2,0,1,0,2.4,0a1.2,1.2,0,1,0,-2.4,0zM754.9,236.1a1.2,1.2,0,1,0,2.4,0a1.2,1.2,0,1,0,-2.4,0zM817.3,225.5a1.2,1.2,0,1,0,2.4,0a1.2,1.2,0,1,0,-2.4,0zM799.7,195.6a1.2,1.2,0,1,0,2.4,0a1.2,1.2,0,1,0,-2.4,0zM775.1,329.7a1.2,1.2,0,1,0,2.4,0a1.2,1.2,0,1,0,-2.4,0zM725.8,228.5a1.2,1.2,0,1,0,2.4,0a1.2,1.2,0,1,0,-2.4,0zM831.2,164.0a1.2,1.2,0,1,0,2.4,0a1.2,1.2,0,1,0,-2.4,0zM569.1,361.0a1.2,1.2,0,1,0,2.4,0a1.2,1.2,0,1,0,-2.4,0zM681.1,287.1a1.2,1.2,0,1,0,2.4,0a1.2,1.2,0,1,0,-2.4,0zM854.6,140.2a1.2,1.2,0,1,0,2.4,0a1.2,1.2,0,1,0,-2.4,0z" style="stroke: black; fill: none;"></path>
    </g>
    <g>
     <path d="M5,559L15,559L24,559L34,558L43,558L53,557L63,556L72,555L82,554L91,553L101,552L111,551L120,550L130,548L139,547L149,545L159,543L168,541L178,540L187,538L197,535L207,533L216,531L226,529L235,526L245,523L255,521L264,518L274,515L283,512L293,509L303,506L312,503L322,499L331,496L341,492L351,489L360,485L370,481L379,477L389,473L399,469L408,465L418,460L427,456L437,451L447,447L456,442L466,437L475,432L485,427L495,422L504,417L514,412L523,406L533,401L543,395L552,390L562,384L571,378L581,372L591,366L600,360L610,354L619,347L629,341L639,334L648,328L658,321L667,314L677,307L687,300L696,293L706,286L715,279L725,271L735,264L744,256L754,248L763,240L773,233L783,225L792,217L802,208L811,200L821,192L831,183L840,175L850,166L859,157L869,148L879,139L888,130L898,121L907,112L917,103L927,93L936,84L946,74L955,64" style="fill: none; stroke: red; stroke-width: 1;"></path>
    </g>
   </svg>
   <g>
    <g transform="translate(0,640)">
     <path d="M0,0h960M8,-12V0M37,-24V0M67,-12V0M96,-12V0M126,-12V0M155,-24V0M185,-12V0M214,-12V0M244,-12V0M273,-24V0M303,-12V0M332,-12V0M362,-12V0M391,-24V0M421,-12V0M450,-12V0M480,-12V0M509,-24V0M539,-12V0M568,-12V0M598,-12V0M627,-24V0M657,-12V0M686,-12V0M716,-12V0M745,-24V0M775,-12V0M804,-12V0M834,-12V0M863,-24V0M893,-12V0M922,-12V0M952,-12V0" style="stroke: black; stroke-width: 1;"></path>
     <g font-family="Arial" font-size="28" space="preserve" fill="black" text-anchor="middle">
      <text dy=".8em" transform="translate(37,1)">
       0
      </text>
      <text dy=".8em" transform="translate(155,1)">
       2
      </text>
      <text dy=".8em" transform="translate(273,1)">
       4
      </text>
      <text dy=".8em" transform="translate(391,1)">
       6
      </text>
      <text dy=".8em" transform="translate(509,1)">
       8
      </text>
      <text dy=".8em" transform="translate(627,1)">
       10
      </text>
      <text dy=".8em" transform="translate(745,1)">
       12
      </text>
      <text dy=".8em" transform="translate(863,1)">
       14
      </text>
     </g>
    </g>
    <g>
     <path d="M0,0v640M18,636H0M18,618H0M18,600H0M18,582H0M36,564H0M18,546H0M18,528H0M18,510H0M18,492H0M36,474H0M18,455H0M18,437H0M18,419H0M18,401H0M36,383H0M18,365H0M18,347H0M18,329H0M18,311H0M36,293H0M18,275H0M18,257H0M18,239H0M18,221H0M36,203H0M18,185H0M18,167H0M18,149H0M18,131H0M36,113H0M18,95H0M18,77H0M18,59H0M18,41H0M36,23H0M18,5H0" style="stroke: black; stroke-width: 1;"></path>
     <g font-family="Arial" font-size="28" space="preserve" fill="black" text-anchor="end">
      <text dy=".4em" transform="translate(-4,564)">
       0
      </text>
      <text dy=".4em" transform="translate(-4,474)">
       50
      </text>
      <text dy=".4em" transform="translate(-4,383)">
       100
      </text>
      <text dy=".4em" transform="translate(-4,293)">
       150
      </text>
      <text dy=".4em" transform="translate(-4,203)">
       200
      </text>
      <text dy=".4em" transform="translate(-4,113)">
       250
      </text>
      <text dy=".4em" transform="translate(-4,23)">
       300
      </text>
     </g>
    </g>
   </g>
  </g>
  <g transform="translate(284,4)" font-family="Arial" font-size="35" space="preserve">
   <text fill="black" text-anchor="middle" dy=".4em" transform="translate(317,25)">
    TMultiGraph of 3 TGraphErrors
   </text>
  </g>
 </g>
</svg>