<svg xmlns="http://www.w3.org/2000/svg" viewBox="0 0 1200 800" preserveAspectRatio="none" width="1200" height="800">
 <path d="M0,0H1200V800H0Z" style="fill: white;"></path>
 <g>
  <g transform="translate(120,80)">
   <path d="M0,0H960V640H0Z" style="fill: white; stroke: black; stroke-width: 1;"></path>
   <svg x="0" y="0" overflow="hidden" width="960" height="640" viewBox="0 0 960 640">
    <g>
     <path fill="#263ea8" d="M0,128h24v16h-24zm0,32h24v32h-24zm0,48h24v176h-24zM0,400h24v240h-24zM24,48h24v16h-24zm0,48h24v48h-24zm0,80h24v144h-24zm0,320h24v144h-24zM48,96h24v16h-24zm0,48h24v192h-24zm0,352h24v144h-24zM72,16h24v16h-24zm0,112h24v160h-24zm0,432h24v80h-24zM96,80h24v32h-24zm0,48h24v160h-24zm0,416h24v16h-24zm0,32h24v64h-24zM120,48h24v16h-24zm0,32h24v32h-24zm0,48h24v144h-24zm0,432h24v16h-24zm0,32h24v48h-24zM144,112h24v144h-24zm0,480h24v48h-24zM168,64h24v16h-24zm0,48h24v128h-24zm0,496h24v32h-24zM192,48h24v48h-24zm0,64h24v112h-24zm0,496h24v32h-24zM216,64h24v160h-24zm0,544h24v32h-24zM240,64h24v160h-24zm0,560h24v16h-24zM264,64h24v144h-24zm0,560h24v16h-24zM288,32h24v16h-24zm0,48h24v128h-24zm24,0h24v112h-24zm0,544h24v16h-24zM336,48h24v16h-24zm0,32h24v128h-24zm0,544h24v16h-24zM360,48h24v160h-24zM384,32h24v16h-24zm0,48h24v128h-24zm0,544h24v16h-24zM408,64h24v144h-24zM432,32h24v16h-24zm0,32h24v32h-24zm0,48h24v112h-24zm0,496h24v32h-24zM456,64h24v48h-24zm0,64h24v96h-24zm0,480h24v32h-24zM480,96h24v32h-24zm0,48h24v96h-24zm0,448h24v48h-24zM504,64h24v48h-24zm0,64h24v112h-24zm0,464h24v48h-24zM528,128h24v112h-24zm0,448h24v64h-24zM552,96h24v16h-24zm0,32h24v16h-24zm0,32h24v112h-24zm0,400h24v80h-24zM576,96h24v16h-24zm0,48h24v144h-24zm0,384h24v16h-24zm0,32h24v80h-24zM600,112h24v80h-24zm0,96h24v96h-24zm0,320h24v112h-24zM624,112h24v48h-24zm0,112h24v128h-24zm0,240h24v160h-24zM648,112h24v48h-24zm0,112h24v416h-24zM672,80h24v16h-24zm0,32h24v48h-24zm0,112h24v400h-24zM696,112h24v48h-24zm0,96h24v432h-24zM720,96h24v80h-24zm0,96h24v64h-24zm0,80h24v336h-24zM744,128h24v384h-24zm0,416h24v16h-24zm0,48h24v16h-24zM768,144h24v32h-24zm0,48h24v16h-24zm0,48h24v352h-24zm0,368h24v16h-24zM792,144h24v16h-24zm0,128h24v16h-24zm0,48h24v224h-24zm24,-64h24v16h-24zm0,32h24v16h-24zm0,48h24v48h-24zm0,64h24v16h-24zm0,32h24v48h-24zm0,64h24v32h-24zm0,48h24v16h-24zM840,288h24v16h-24zm0,32h24v64h-24zm0,80h24v16h-24zm0,32h24v16h-24zm0,64h24v16h-24zm0,32h24v32h-24zm0,48h24v16h-24zM864,288h24v16h-24zm0,128h24v16h-24zm0,64h24v16h-24zm0,32h24v16h-24zM888,272h24v16h-24zm0,64h24v16h-24zm0,64h24v16h-24zM912,240h24v16h-24zm24,112h24v16h-24z"></path>
     <path fill="#1652cd" d="M0,384h24v16h-24zM24,320h24v176h-24zm24,16h24v160h-24zM72,288h24v48h-24zm0,192h24v80h-24zM96,288h24v48h-24zm0,224h24v32h-24zm0,48h24v16h-24zM120,272h24v48h-24zm0,256h24v32h-24zm0,48h24v16h-24zM144,256h24v32h-24zm0,288h24v48h-24zM168,240h24v32h-24zm0,320h24v48h-24zM192,224h24v48h-24zm0,336h24v48h-24zM216,224h24v32h-24zm0,368h24v16h-24zM240,224h24v32h-24zm0,368h24v32h-24zM264,208h24v32h-24zm0,384h24v32h-24zM288,208h24v32h-24zm0,368h24v64h-24zM312,192h24v48h-24zm0,400h24v32h-24zM336,208h24v32h-24zm0,384h24v32h-24zM360,208h24v32h-24zm0,384h24v48h-24zM384,208h24v32h-24zm0,368h24v48h-24zM408,208h24v48h-24zm0,368h24v64h-24zM432,224h24v16h-24zm0,336h24v16h-24zm0,32h24v16h-24zM456,224h24v16h-24zm0,336h24v48h-24zm24,-16h24v48h-24zM504,240h24v16h-24zm0,304h24v48h-24zM528,240h24v32h-24zm0,288h24v48h-24zM552,272h24v16h-24zm0,224h24v64h-24zM576,288h24v32h-24zm0,48h24v16h-24zm0,144h24v48h-24zm0,64h24v16h-24zM600,192h24v16h-24zm0,112h24v224h-24zM624,160h24v16h-24zm0,48h24v16h-24zm0,144h24v112h-24zM696,160h24v16h-24zm24,16h24v16h-24z"></path>
     <path fill="#1064dc" d="M72,336h24v144h-24zm24,0h24v64h-24zm0,80h24v16h-24zm0,48h24v48h-24zM120,320h24v16h-24zm0,160h24v48h-24zM144,288h24v32h-24zm0,224h24v32h-24zM168,272h24v32h-24zm0,256h24v32h-24zM192,272h24v16h-24zm0,272h24v16h-24zM216,256h24v32h-24zm0,304h24v32h-24zM240,256h24v16h-24zm0,304h24v32h-24zM264,240h24v32h-24zm0,320h24v32h-24zM288,240h24v32h-24zm24,0h24v16h-24zm0,320h24v32h-24zM336,240h24v32h-24zm0,336h24v16h-24zM360,240h24v16h-24zm0,336h24v16h-24zM384,240h24v16h-24zm24,304h24v32h-24zM432,240h24v16h-24zm0,336h24v16h-24zM456,240h24v16h-24zm0,304h24v16h-24zM480,240h24v16h-24zm0,288h24v16h-24zm24,0h24v16h-24zm24,-32h24v32h-24zM552,288h24v16h-24zm0,176h24v32h-24zM576,320h24v16h-24zm0,32h24v128h-24zM624,176h24v32h-24zm24,-16h24v16h-24zm0,48h24v16h-24zm24,-48h24v16h-24zm0,48h24v16h-24zm24,-32h24v32h-24z"></path>
     <path fill="#1272d9" d="M96,400h24v16h-24zm0,32h24v32h-24zm24,-96h24v96h-24zm0,128h24v16h-24zM144,320h24v48h-24zm0,144h24v48h-24zM168,304h24v32h-24zm0,208h24v16h-24zM192,288h24v32h-24zm0,240h24v16h-24zM216,288h24v16h-24zm0,240h24v32h-24zM240,272h24v16h-24zm0,272h24v16h-24zM264,272h24v16h-24zm0,272h24v16h-24zm24,0h24v32h-24zM312,256h24v16h-24zm0,288h24v16h-24zm24,0h24v32h-24zM360,256h24v32h-24zm0,288h24v32h-24zM384,256h24v16h-24zm0,288h24v32h-24zM408,256h24v16h-24zm0,272h24v16h-24zM432,256h24v16h-24zm0,272h24v32h-24zm24,0h24v16h-24zm24,-16h24v16h-24zM504,256h24v16h-24zm0,208h24v16h-24zm0,32h24v32h-24zM528,272h24v16h-24zm0,176h24v48h-24zM552,304h24v160h-24zM648,176h24v32h-24zm24,0h24v32h-24z"></path>
     <path fill="#1481d6" d="M120,432h24v32h-24zm24,-64h24v32h-24zm0,48h24v48h-24zm24,-80h24v32h-24zm0,144h24v32h-24zM192,320h24v16h-24zm0,176h24v32h-24zM216,304h24v16h-24zm0,208h24v16h-24zM240,288h24v16h-24zm0,240h24v16h-24zM264,288h24v16h-24zm0,240h24v16h-24zM288,272h24v16h-24zm0,256h24v16h-24zM312,272h24v16h-24zm0,256h24v16h-24zM336,272h24v32h-24zm0,256h24v16h-24zM360,288h24v16h-24zm0,240h24v16h-24zM384,272h24v16h-24zm0,256h24v16h-24zm48,-16h24v16h-24zM456,256h24v16h-24zm0,224h24v48h-24zM480,256h24v16h-24zm0,224h24v32h-24zm24,-32h24v16h-24zm0,32h24v16h-24zm24,-96h24v64h-24z"></path>
     <path fill="#0e8fd1" d="M144,400h24v16h-24zm24,-32h24v64h-24zm0,80h24v32h-24zm24,-96h24v16h-24zm0,112h24v32h-24zM216,320h24v16h-24zm0,176h24v16h-24zM240,304h24v32h-24zm0,208h24v16h-24zM264,304h24v16h-24zm0,208h24v16h-24zM288,288h24v16h-24zm0,224h24v16h-24zM312,288h24v32h-24zm0,224h24v16h-24zM336,304h24v16h-24zm48,-16h24v16h-24zm0,224h24v16h-24zM408,272h24v16h-24zm0,240h24v16h-24zm24,-32h24v32h-24zm24,-16h24v16h-24zm24,-16h24v32h-24zm24,-80h24v80h-24zm24,-80h24v16h-24zm0,64h24v32h-24z"></path>
     <path fill="#099dcc" d="M168,432h24v16h-24zm24,-96h24v16h-24zm0,32h24v16h-24zm0,48h24v48h-24zm24,-80h24v16h-24zm0,128h24v32h-24zm24,16h24v32h-24zM264,320h24v16h-24zm24,-16h24v32h-24zm0,192h24v16h-24zM312,320h24v16h-24zm24,0h24v16h-24zm0,192h24v16h-24zM360,304h24v16h-24zm0,208h24v16h-24zm48,-16h24v16h-24zM432,272h24v16h-24zm0,192h24v16h-24zm24,-64h24v16h-24zm0,32h24v32h-24zm24,-48h24v64h-24zM504,272h24v16h-24zm24,64h24v16h-24z"></path>
     <path fill="#0da7c3" d="M192,384h24v32h-24zm24,-32h24v80h-24zm0,96h24v16h-24zM240,336h24v16h-24zm0,128h24v16h-24zM264,352h24v16h-24zm0,128h24v32h-24zM288,336h24v16h-24zm0,144h24v16h-24zM312,336h24v16h-24zm0,144h24v32h-24zm24,16h24v16h-24zM360,320h24v32h-24zm0,160h24v32h-24zM384,304h24v32h-24zm0,176h24v32h-24zM408,288h24v16h-24zm0,176h24v32h-24zm24,-48h24v32h-24zm24,0h24v16h-24zM528,304h24v32h-24z"></path>
     <path fill="#1eafb3" d="M216,432h24v16h-24zm24,-80h24v32h-24zm0,64h24v48h-24zm24,-80h24v16h-24zm0,32h24v16h-24zm0,80h24v16h-24zm48,16h24v16h-24zM336,336h24v16h-24zm0,128h24v16h-24zM360,352h24v16h-24zm24,112h24v16h-24zm24,-64h24v64h-24zm24,-16h24v16h-24zm0,64h24v16h-24zM456,272h24v16h-24zm0,96h24v32h-24zm24,-96h24v16h-24zm0,96h24v16h-24zm24,-16h24v16h-24z"></path>
     <path fill="#2eb7a4" d="M240,384h24v32h-24zm24,0h24v16h-24zm0,80h24v16h-24zM288,352h24v16h-24zm0,48h24v32h-24zm0,64h24v16h-24zM312,352h24v16h-24zm24,0h24v16h-24zm0,128h24v16h-24zM360,368h24v16h-24zm0,96h24v16h-24zM384,336h24v32h-24zm0,48h24v16h-24zm0,48h24v32h-24zm24,-80h24v32h-24zm24,16h24v16h-24zm0,32h24v16h-24z"></path>
     <path fill="#52ba92" d="M264,400h24v48h-24zm24,-32h24v32h-24zm0,64h24v32h-24zm24,-64h24v32h-24zm0,64h24v32h-24zm24,-64h24v48h-24zm0,64h24v32h-24zm24,-48h24v80h-24zm24,-16h24v16h-24zm0,32h24v32h-24zm24,-96h24v16h-24zm0,32h24v16h-24zm0,48h24v16h-24zm24,-32h24v16h-24zm72,-64h24v16h-24z"></path>
     <path fill="#74bd81" d="M312,400h24v32h-24zm24,16h24v16h-24zm72,-96h24v16h-24zm24,-32h24v16h-24zm48,64h24v16h-24zm24,-16h24v16h-24z"></path>
     <path fill="#95be71" d="M456,352h24v16h-24z"></path>
     <path fill="#b3bd65" d="M480,288h24v16h-24zm24,16h24v32h-24z"></path>
     <path fill="#d1bb59" d="M432,320h24v32h-24z"></path>
     <path fill="#e2c04b" d="M432,304h24v16h-24zm24,-16h24v16h-24z"></path>
     <path fill="#f4c63b" d="M456,336h24v16h-24zm24,0h24v16h-24z"></path>
     <path fill="#f9f90f" d="M456,304h24v32h-24zm24,0h24v32h-24z"></path>
    </g>
    <g>
     <path d="M400,199l23,4l9,1l32,4l32,5l32,11l32,10l18,11l14,12l12,10l17,21l3,8l11,13l12,22l8,21l1,3l7,18l3,22v21l-3,21l-7,19l-1,3l-9,21l-15,21l-7,8l-12,14l-20,17l-6,4l-26,17l-7,4l-25,13l-22,9l-10,4l-32,10l-32,6l-9,1l-23,4l-32,2h-32l-32,-2l-22,-4l-10,-1l-32,-6l-32,-10l-10,-4l-22,-9l-25,-13l-7,-4l-26,-17l-6,-5l-20,-16l-12,-14l-7,-8l-15,-21l-9,-21l-1,-4l-7,-18l-3,-21v-21l3,-22l7,-18l1,-3l9,-21l15,-22l7,-7l12,-14l20,-17l6,-4l26,-18l7,-4l25,-13l22,-8l10,-4l32,-10l32,-6l10,-1l22,-4l32,-2h32z" style="fill: none; stroke: red; stroke-width: 2;"></path>
     <path d="M739,160l9,21l-10,22l-18,12l-32,6l-32,-4l-23,-14l-7,-22l9,-21l21,-13l32,-6l32,6z" style="fill: none; stroke: red; stroke-width: 2;"></path>
     <path d="M464,231l32,1l32,8l11,5l21,10l17,12l14,21l1,4l12,17l4,22l3,21l3,21l3,22v21l-4,21l-8,22l-13,20l-1,1l-17,21l-14,13l-11,9l-21,14l-14,7l-18,9l-32,11l-4,1l-28,8l-32,6l-32,2h-32l-32,-2l-32,-6l-28,-8l-4,-1l-32,-11l-18,-9l-14,-7l-21,-14l-11,-9l-14,-13l-17,-21l-1,-1l-13,-20l-8,-22l-3,-21v-21l3,-22l8,-21l13,-20l1,-1l17,-22l14,-12l11,-9l21,-14l14,-7l18,-9l32,-12l4,-1l28,-7l32,-6l32,-2h32l32,1l32,1z" style="fill: none; stroke: red; stroke-width: 2;"></path>
     <path d="M712,160l8,5l11,16l-11,15l-11,7l-21,7l-24,-7l-8,-5l-13,-17l13,-18l6,-3l26,-8z" style="fill: none; stroke: red; stroke-width: 2;"></path>
     <path d="M464,245l32,-1l5,1l27,4l30,18l2,1l21,20l7,21l1,22l-3,21l-3,21v22v21l-5,21l-9,22l-9,12l-6,9l-22,21l-4,3l-28,19l-4,2l-32,14l-15,5l-17,5l-32,7l-32,3h-32l-32,-3l-32,-7l-17,-5l-15,-5l-32,-14l-4,-2l-28,-19l-4,-3l-22,-21l-6,-9l-9,-12l-9,-22l-5,-21v-21l5,-22l9,-21l9,-12l6,-9l22,-22l4,-2l28,-19l4,-2l32,-15l15,-4l17,-6l32,-6l32,-3h32h32l32,-3l29,-4z" style="fill: none; stroke: red; stroke-width: 2;"></path>
     <path d="M713,181l-25,16l-27,-16l27,-17z" style="fill: none; stroke: red; stroke-width: 2;"></path>
     <path d="M496,249l32,6l20,12l12,10l12,11l9,21l-1,22l-8,21l-12,21v2l-3,20l-2,21l-5,21l-11,22l-11,14l-6,7l-26,21h-1l-31,17l-12,5l-20,7l-32,7l-32,3h-32l-32,-3l-32,-7l-20,-7l-12,-5l-31,-17h-1l-26,-21l-6,-8l-11,-13l-11,-22l-5,-21v-21l5,-22l11,-21l11,-14l7,-7l25,-21l1,-1l31,-16l12,-5l20,-7l32,-7l32,-3l32,-1l32,-1l5,-2l27,-8l32,-8z" style="fill: none; stroke: red; stroke-width: 2;"></path>
     <path d="M691,181l-3,2l-3,-2l3,-2z" style="fill: none; stroke: red; stroke-width: 2;"></path>
     <path d="M436,267l28,-11l32,-2l32,7l10,6l22,19l2,2l11,21l-2,22l-11,18l-2,3l-14,21l-10,22l-3,21l-3,11l-3,10l-12,22l-17,17l-4,4l-28,18l-6,3l-26,11l-32,8l-20,3l-12,1h-32l-12,-1l-20,-3l-32,-8l-26,-11l-6,-3l-28,-18l-4,-4l-17,-17l-12,-22l-3,-11l-3,-10v-21l3,-10l3,-12l13,-21l16,-17l4,-4l28,-19l6,-3l26,-10l32,-8l21,-3l11,-1l32,-1l32,-4l32,-13z" style="fill: none; stroke: red; stroke-width: 2;"></path>
     <path d="M496,258l31,9h1l28,21l4,11l6,10l-4,22l-2,3l-10,18l-22,21h-1l-14,22l-4,21l-7,21l-6,9l-9,13l-23,20l-2,1l-30,15l-20,6l-12,4l-32,4h-32l-32,-4l-12,-4l-20,-6l-30,-15l-2,-2l-23,-19l-9,-13l-6,-9l-6,-21v-21l6,-22l6,-8l9,-13l23,-20l3,-1l29,-15l20,-7l12,-3l32,-5l32,-1l32,-5l8,-7l24,-12l19,-9l13,-5z" style="fill: none; stroke: red; stroke-width: 2;"></path>
     <path d="M496,262l16,5l16,4l23,17l8,21l-3,22l-15,21l-13,13l-19,8l-13,17l-5,5l-4,21l-8,21l-15,19l-3,3l-29,19l-5,2l-27,9l-32,6h-32l-32,-6l-27,-9l-5,-2l-29,-19l-3,-3l-14,-19l-8,-21v-21l8,-22l14,-18l3,-3l29,-19l5,-2l27,-10l32,-5l32,-1l29,-6h3l22,-21l10,-5l32,-16h3z" style="fill: none; stroke: red; stroke-width: 2;"></path>
     <path d="M495,267h1l32,7l18,14l9,21l-3,22l-19,21l-5,5l-32,15l-8,1l-20,22l-3,21l-1,2l-10,19l-22,22l-32,14l-32,7h-32l-32,-7l-32,-14l-22,-22l-10,-20v-1v-21v-1l10,-21l22,-21l32,-14l32,-7h3l29,-1l32,-3l10,-18l22,-18l2,-3l30,-17z" style="fill: none; stroke: red; stroke-width: 2;"></path>
     <path d="M496,269l32,9l13,10l11,21l-5,22l-19,19l-5,2l-27,14l-32,5l-18,2l-4,22l-2,21l-8,15l-5,6l-27,18l-11,4l-21,5h-32l-21,-5l-11,-4l-27,-18l-5,-7l-8,-14v-21l8,-15l5,-7l27,-17l11,-4l21,-5h32l32,2l12,-18l9,-22l11,-9l8,-12l24,-14z" style="fill: none; stroke: red; stroke-width: 2;"></path>
     <path d="M389,373l11,7l10,15v21l-10,12l-14,9l-18,7h-32l-18,-7l-14,-9l-9,-12v-21l9,-12l14,-10l18,-6h32z" style="fill: none; stroke: red; stroke-width: 2;"></path>
     <path d="M528,282l8,6l12,21l-6,22l-14,14l-16,7l-16,8l-32,1l-21,-9l-11,-15l-4,-6l4,-21v-1l14,-21l18,-10l32,-6z" style="fill: none; stroke: red; stroke-width: 2;"></path>
     <path d="M528,286l3,2l13,21l-6,22l-10,9l-27,12l-5,2l-31,-2h-1l-27,-21v-22l15,-21l12,-7l32,-6z" style="fill: none; stroke: red; stroke-width: 2;"></path>
     <path d="M528,290l12,19l-7,22l-5,5l-32,14l-32,-3l-20,-16l-3,-22l17,-21l6,-3l32,-8l29,11z" style="fill: none; stroke: red; stroke-width: 2;"></path>
     <path d="M528,296l8,13l-8,22l-32,16l-32,-6l-14,-10l-4,-22l18,-20l1,-1l31,-8l22,8z" style="fill: none; stroke: red; stroke-width: 2;"></path>
     <path d="M528,302l4,7l-4,12l-7,10l-25,12l-32,-7l-7,-5l-6,-22l13,-15l12,-6l20,-5l14,5z" style="fill: none; stroke: red; stroke-width: 2;"></path>
     <path d="M528,308l1,1l-1,2l-13,20l-19,9l-32,-9l-8,-22l8,-9l22,-12l10,-2l7,2z" style="fill: none; stroke: red; stroke-width: 2;"></path>
     <path d="M496,288l27,21l-15,22l-12,5l-21,-5l-11,-12l-4,-10l4,-4z" style="fill: none; stroke: red; stroke-width: 2;"></path>
     <path d="M518,309l-17,22l-5,2l-8,-2l-22,-22l30,-16z" style="fill: none; stroke: red; stroke-width: 2;"></path>
     <path d="M512,309l-16,20l-22,-20l22,-12z" style="fill: none; stroke: red; stroke-width: 2;"></path>
     <path d="M506,309l-10,13l-14,-13l14,-7z" style="fill: none; stroke: red; stroke-width: 2;"></path>
     <path d="M500,309l-4,6l-6,-6l6,-3z" style="fill: none; stroke: red; stroke-width: 2;"></path>
    </g>
    <g>
     <path d="M400,199l23,4l9,1l32,4l32,5l32,11l32,10l18,11l14,12l12,10l17,21l3,8l11,13l12,22l8,21l1,3l7,18l3,22v21l-3,21l-7,19l-1,3l-9,21l-15,21l-7,8l-12,14l-20,17l-6,4l-26,17l-7,4l-25,13l-22,9l-10,4l-32,10l-32,6l-9,1l-23,4l-32,2h-32l-32,-2l-22,-4l-10,-1l-32,-6l-32,-10l-10,-4l-22,-9l-25,-13l-7,-4l-26,-17l-6,-5l-20,-16l-12,-14l-7,-8l-15,-21l-9,-21l-1,-4l-7,-18l-3,-21v-21l3,-22l7,-18l1,-3l9,-21l15,-22l7,-7l12,-14l20,-17l6,-4l26,-18l7,-4l25,-13l22,-8l10,-4l32,-10l32,-6l10,-1l22,-4l32,-2h32z" style="fill: none; stroke: #1652cd; stroke-width: 1;"></path>
     <path d="M739,160l9,21l-10,22l-18,12l-32,6l-32,-4l-23,-14l-7,-22l9,-21l21,-13l32,-6l32,6z" style="fill: none; stroke: #1652cd; stroke-width: 1;"></path>
     <path d="M464,231l32,1l32,8l11,5l21,10l17,12l14,21l1,4l12,17l4,22l3,21l3,21l3,22v21l-4,21l-8,22l-13,20l-1,1l-17,21l-14,13l-11,9l-21,14l-14,7l-18,9l-32,11l-4,1l-28,8l-32,6l-32,2h-32l-32,-2l-32,-6l-28,-8l-4,-1l-32,-11l-18,-9l-14,-7l-21,-14l-11,-9l-14,-13l-17,-21l-1,-1l-13,-20l-8,-22l-3,-21v-21l3,-22l8,-21l13,-20l1,-1l17,-22l14,-12l11,-9l21,-14l14,-7l18,-9l32,-12l4,-1l28,-7l32,-6l32,-2h32l32,1l32,1z" style="fill: none; stroke: #1064dc; stroke-width: 1;"></path>
     <path d="M712,160l8,5l11,16l-11,15l-11,7l-21,7l-24,-7l-8,-5l-13,-17l13,-18l6,-3l26,-8z" style="fill: none; stroke: #1064dc; stroke-width: 1;"></path>
     <path d="M464,245l32,-1l5,1l27,4l30,18l2,1l21,20l7,21l1,22l-3,21l-3,21v22v21l-5,21l-9,22l-9,12l-6,9l-22,21l-4,3l-28,19l-4,2l-32,14l-15,5l-17,5l-32,7l-32,3h-32l-32,-3l-32,-7l-17,-5l-15,-5l-32,-14l-4,-2l-28,-19l-4,-3l-22,-21l-6,-9l-9,-12l-9,-22l-5,-21v-21l5,-22l9,-21l9,-12l6,-9l22,-22l4,-2l28,-19l4,-2l32,-15l15,-4l17,-6l32,-6l32,-3h32h32l32,-3l29,-4z" style="fill: none; stroke: #1272d9; stroke-width: 1;"></path>
     <path d="M713,181l-25,16l-27,-16l27,-17z" style="fill: none; stroke: #1272d9; stroke-width: 1;"></path>
     <path d="M496,249l32,6l20,12l12,10l12,11l9,21l-1,22l-8,21l-12,21v2l-3,20l-2,21l-5,21l-11,22l-11,14l-6,7l-26,21h-1l-31,17l-12,5l-20,7l-32,7l-32,3h-32l-32,-3l-32,-7l-20,-7l-12,-5l-31,-17h-1l-26,-21l-6,-8l-11,-13l-11,-22l-5,-21v-21l5,-22l11,-21l11,-14l7,-7l25,-21l1,-1l31,-16l12,-5l20,-7l32,-7l32,-3l32,-1l32,-1l5,-2l27,-8l32,-8z" style="fill: none; stroke: #1481d6; stroke-width: 1;"></path>
     <path d="M691,181l-3,2l-3,-2l3,-2z" style="fill: none; stroke: #1481d6; stroke-width: 1;"></path>
     <path d="M436,267l28,-11l32,-2l32,7l10,6l22,19l2,2l11,21l-2,22l-11,18l-2,3l-14,21l-10,22l-3,21l-3,11l-3,10l-12,22l-17,17l-4,4l-28,18l-6,3l-26,11l-32,8l-20,3l-12,1h-32l-12,-1l-20,-3l-32,-8l-26,-11l-6,-3l-28,-18l-4,-4l-17,-17l-12,-22l-3,-11l-3,-10v-21l3,-10l3,-12l13,-21l16,-17l4,-4l28,-19l6,-3l26,-10l32,-8l21,-3l11,-1l32,-1l32,-4l32,-13z" style="fill: none; stroke: #0e8fd1; stroke-width: 1;"></path>
     <path d="M496,258l31,9h1l28,21l4,11l6,10l-4,22l-2,3l-10,18l-22,21h-1l-14,22l-4,21l-7,21l-6,9l-9,13l-23,20l-2,1l-30,15l-20,6l-12,4l-32,4h-32l-32,-4l-12,-4l-20,-6l-30,-15l-2,-2l-23,-19l-9,-13l-6,-9l-6,-21v-21l6,-22l6,-8l9,-13l23,-20l3,-1l29,-15l20,-7l12,-3l32,-5l32,-1l32,-5l8,-7l24,-12l19,-9l13,-5z" style="fill: none; stroke: #099dcc; stroke-width: 1;"></path>
     <path d="M496,262l16,5l16,4l23,17l8,21l-3,22l-15,21l-13,13l-19,8l-13,17l-5,5l-4,21l-8,21l-15,19l-3,3l-29,19l-5,2l-27,9l-32,6h-32l-32,-6l-27,-9l-5,-2l-29,-19l-3,-3l-14,-19l-8,-21v-21l8,-22l14,-18l3,-3l29,-19l5,-2l27,-10l32,-5l32,-1l29,-6h3l22,-21l10,-5l32,-16h3z" style="fill: none; stroke: #0da7c3; stroke-width: 1;"></path>
     <path d="M495,267h1l32,7l18,14l9,21l-3,22l-19,21l-5,5l-32,15l-8,1l-20,22l-3,21l-1,2l-10,19l-22,22l-32,14l-32,7h-32l-32,-7l-32,-14l-22,-22l-10,-20v-1v-21v-1l10,-21l22,-21l32,-14l32,-7h3l29,-1l32,-3l10,-18l22,-18l2,-3l30,-17z" style="fill: none; stroke: #1eafb3; stroke-width: 1;"></path>
     <path d="M496,269l32,9l13,10l11,21l-5,22l-19,19l-5,2l-27,14l-32,5l-18,2l-4,22l-2,21l-8,15l-5,6l-27,18l-11,4l-21,5h-32l-21,-5l-11,-4l-27,-18l-5,-7l-8,-14v-21l8,-15l5,-7l27,-17l11,-4l21,-5h32l32,2l12,-18l9,-22l11,-9l8,-12l24,-14z" style="fill: none; stroke: #2eb7a4; stroke-width: 1;"></path>
     <path d="M389,373l11,7l10,15v21l-10,12l-14,9l-18,7h-32l-18,-7l-14,-9l-9,-12v-21l9,-12l14,-10l18,-6h32z" style="fill: none; stroke: #52ba92; stroke-width: 1;"></path>
     <path d="M528,282l8,6l12,21l-6,22l-14,14l-16,7l-16,8l-32,1l-21,-9l-11,-15l-4,-6l4,-21v-1l14,-21l18,-10l32,-6z" style="fill: none; stroke: #52ba92; stroke-width: 1;"></path>
     <path d="M528,286l3,2l13,21l-6,22l-10,9l-27,12l-5,2l-31,-2h-1l-27,-21v-22l15,-21l12,-7l32,-6z" style="fill: none; stroke: #74bd81; stroke-width: 1;"></path>
     <path d="M528,290l12,19l-7,22l-5,5l-32,14l-32,-3l-20,-16l-3,-22l17,-21l6,-3l32,-8l29,11z" style="fill: none; stroke: #95be71; stroke-width: 1;"></path>
     <path d="M528,296l8,13l-8,22l-32,16l-32,-6l-14,-10l-4,-22l18,-20l1,-1l31,-8l22,8z" style="fill: none; stroke: #b3bd65; stroke-width: 1;"></path>
     <path d="M528,302l4,7l-4,12l-7,10l-25,12l-32,-7l-7,-5l-6,-22l13,-15l12,-6l20,-5l14,5z" style="fill: none; stroke: #d1bb59; stroke-width: 1;"></path>
     <path d="M528,308l1,1l-1,2l-13,20l-19,9l-32,-9l-8,-22l8,-9l22,-12l10,-2l7,2z" style="fill: none; stroke: #e2c04b; stroke-width: 1;"></path>
     <path d="M496,288l27,21l-15,22l-12,5l-21,-5l-11,-12l-4,-10l4,-4z" style="fill: none; stroke: #f4c63b; stroke-width: 1;"></path>
     <path d="M518,309l-17,22l-5,2l-8,-2l-22,-22l30,-16z" style="fill: none; stroke: #fdd22b; stroke-width: 1;"></path>
     <path d="M512,309l-16,20l-22,-20l22,-12z" style="fill: none; stroke: #fbe61d; stroke-width: 1;"></path>
     <path d="M506,309l-10,13l-14,-13l14,-7z" style="fill: none; stroke: #f9f90f; stroke-width: 1;"></path>
     <path d="M500,309l-4,6l-6,-6l6,-3z" style="fill: none; stroke: #f9f90f; stroke-width: 1;"></path>
    </g>
   </svg>
   <g>
    <g transform="translate(0,640)">
     <path d="M0,0h960M0,-24V0M24,-12V0M48,-12V0M72,-12V0M96,-24V0M120,-12V0M144,-12V0M168,-12V0M192,-24V0M216,-12V0M240,-12V0M264,-12V0M288,-24V0M312,-12V0M336,-12V0M360,-12V0M384,-24V0M408,-12V0M432,-12V0M456,-12V0M480,-24V0M504,-12V0M528,-12V0M552,-12V0M576,-24V0M600,-12V0M624,-12V0M648,-12V0M672,-24V0M696,-12V0M720,-12V0M744,-12V0M768,-24V0M792,-12V0M816,-12V0M840,-12V0M864,-24V0M888,-12V0M912,-12V0M936,-12V0M960,-24V0" style="stroke: black; stroke-width: 1;"></path>
     <g font-family="Arial" font-size="28" space="preserve" fill="black" text-anchor="middle">
      <text dy=".8em" transform="translate(0,5)">
       -10
      </text>
      <text dy=".8em" transform="translate(96,5)">
       -8
      </text>
      <text dy=".8em" transform="translate(192,5)">
       -6
      </text>
      <text dy=".8em" transform="translate(288,5)">
       -4
      </text>
      <text dy=".8em" transform="translate(384,5)">
       -2
      </text>
      <text dy=".8em" transform="translate(480,5)">
       0
      </text>
      <text dy=".8em" transform="translate(576,5)">
       2
      </text>
      <text dy=".8em" transform="translate(672,5)">
       4
      </text>
      <text dy=".8em" transform="translate(768,5)">
       6
      </text>
      <text dy=".8em" transform="translate(864,5)">
       8
      </text>
      <text dy=".8em" transform="translate(960,5)">
       10
      </text>
     </g>
    </g>
    <g>
     <path d="M0,0v640M36,640H0M18,624H0M18,608H0M18,592H0M36,576H0M18,560H0M18,544H0M18,528H0M36,512H0M18,496H0M18,480H0M18,464H0M36,448H0M18,432H0M18,416H0M18,400H0M36,384H0M18,368H0M18,352H0M18,336H0M36,320H0M18,304H0M18,288H0M18,272H0M36,256H0M18,240H0M18,224H0M18,208H0M36,192H0M18,176H0M18,160H0M18,144H0M36,128H0M18,112H0M18,96H0M18,80H0M36,64H0M18,48H0M18,32H0M18,16H0M36,0H0" style="stroke: black; stroke-width: 1;"></path>
     <g font-family="Arial" font-size="28" space="preserve" fill="black" text-anchor="end">
      <text dy=".4em" transform="translate(-6,640)">
       -10
      </text>
      <text dy=".4em" transform="translate(-6,576)">
       -8
      </text>
      <text dy=".4em" transform="translate(-6,512)">
       -6
      </text>
      <text dy=".4em" transform="translate(-6,448)">
       -4
      </text>
      <text dy=".4em" transform="translate(-6,384)">
       -2
      </text>
      <text dy=".4em" transform="translate(-6,320)">
       0
      </text>
      <text dy=".4em" transform="translate(-6,256)">
       2
      </text>
      <text dy=".4em" transform="translate(-6,192)">
       4
      </text>
      <text dy=".4em" transform="translate(-6,128)">
       6
      </text>
      <text dy=".4em" transform="translate(-6,64)">
       8
      </text>
      <text dy=".4em" transform="translate(-6)">
       10
      </text>
     </g>
    </g>
   </g>
  </g>
  <g transform="translate(120,4)" font-family="Arial" font-size="40" space="preserve">
   <text fill="black" text-anchor="middle" dy=".8em" transform="translate(480)">
    from f2
   </text>
  </g>
  <g transform="translate(936,52)" font-family="Arial" font-size="22" space="preserve" fill="black">
   <path d="M0,0H240V192H0Z" style="fill: white; stroke: black; stroke-width: 1;"></path>
   <text text-anchor="middle" dy=".4em" transform="translate(120,16)">
    h2
   </text>
   <text text-anchor="start" dy=".4em" transform="translate(12,48)">
    Entries
   </text>
   <text text-anchor="end" dy=".4em" transform="translate(228,48)">
    100000
   </text>
   <text text-anchor="start" dy=".4em" transform="translate(12,80)">
    Mean x
   </text>
   <text text-anchor="end" dy=".4em" transform="translate(228,80)">
    -2.454
   </text>
   <text text-anchor="start" dy=".4em" transform="translate(12,112)">
    Mean y
   </text>
   <text text-anchor="end" dy=".4em" transform="translate(228,112)">
    -2.460
   </text>
   <text text-anchor="start" dy=".4em" transform="translate(12,144)">
    Std Dev x
   </text>
   <text text-anchor="end" dy=".4em" transform="translate(228,144)">
    3.022
   </text>
   <text text-anchor="start" dy=".4em" transform="translate(12,176)">
    Std Dev y
   </text>
   <text text-anchor="end" dy=".4em" transform="translate(228,176)">
    3.018
   </text>
   <path d="M0,32h240" style="stroke: black; stroke-width: 1;"></path>
  </g>
 </g>
</svg>