<svg xmlns="http://www.w3.org/2000/svg" viewBox="0 0 1200 800" preserveAspectRatio="none" width="1200" height="800">
 <path d="M0,0H1200V800H0Z" style="fill: white;"></path>
 <g>
  <g transform="translate(120,80)">
   <path d="M0,0H960V640H0Z" style="fill: white; stroke: black; stroke-width: 1;"></path>
   <svg x="0" y="0" overflow="hidden" width="960" height="640" viewBox="0 0 960 640">
    <g>
     <path fill="#263ea8" d="M0,128h24v16h-24zm0,32h24v32h-24zm0,48h24v176h-24zM0,400h24v240h-24zM24,48h24v16h-24zm0,48h24v48h-24zm0,80h24v144h-24zm0,320h24v144h-24zM48,96h24v16h-24zm0,48h24v192h-24zm0,352h24v144h-24zM72,16h24v16h-24zm0,112h24v160h-24zm0,432h24v80h-24zM96,80h24v32h-24zm0,48h24v160h-24zm0,416h24v16h-24zm0,32h24v64h-24zM120,48h24v16h-24zm0,32h24v32h-24zm0,48h24v144h-24zm0,432h24v16h-24zm0,32h24v48h-24zM144,112h24v144h-24zm0,480h24v48h-24zM168,64h24v16h-24zm0,48h24v128h-24zm0,496h24v32h-24zM192,48h24v48h-24zm0,64h24v112h-24zm0,496h24v32h-24zM216,64h24v160h-24zm0,544h24v32h-24zM240,64h24v160h-24zm0,560h24v16h-24zM264,64h24v144h-24zm0,560h24v16h-24zM288,32h24v16h-24zm0,48h24v128h-24zm24,0h24v112h-24zm0,544h24v16h-24zM336,48h24v16h-24zm0,32h24v128h-24zm0,544h24v16h-24zM360,48h24v160h-24zM384,32h24v16h-24zm0,48h24v128h-24zm0,544h24v16h-24zM408,64h24v144h-24zM432,32h24v16h-24zm0,32h24v32h-24zm0,48h24v112h-24zm0,496h24v32h-24zM456,64h24v48h-24zm0,64h24v96h-24zm0,480h24v32h-24zM480,96h24v32h-24zm0,48h24v96h-24zm0,448h24v48h-24zM504,64h24v48h-24zm0,64h24v112h-24zm0,464h24v48h-24zM528,128h24v112h-24zm0,448h24v64h-24zM552,96h24v16h-24zm0,32h24v16h-24zm0,32h24v112h-24zm0,400h24v80h-24zM576,96h24v16h-24zm0,48h24v144h-24zm0,384h24v16h-24zm0,32h24v80h-24zM600,112h24v80h-24zm0,96h24v96h-24zm0,320h24v112h-24zM624,112h24v48h-24zm0,112h24v128h-24zm0,240h24v160h-24zM648,112h24v48h-24zm0,112h24v416h-24zM672,80h24v16h-24zm0,32h24v48h-24zm0,112h24v400h-24zM696,112h24v48h-24zm0,96h24v432h-24zM720,96h24v80h-24zm0,96h24v64h-24zm0,80h24v336h-24zM744,128h24v384h-24zm0,416h24v16h-24zm0,48h24v16h-24zM768,144h24v32h-24zm0,48h24v16h-24zm0,48h24v352h-24zm0,368h24v16h-24zM792,144h24v16h-24zm0,128h24v16h-24zm0,48h24v224h-24zm24,-64h24v16h-24zm0,32h24v16h-24zm0,48h24v48h-24zm0,64h24v16h-24zm0,32h24v48h-24zm0,64h24v32h-24zm0,48h24v16h-24zM840,288h24v16h-24zm0,32h24v64h-24zm0,80h24v16h-24zm0,32h24v16h-24zm0,64h24v16h-24zm0,32h24v32h-24zm0,48h24v16h-24zM864,288h24v16h-24zm0,128h24v16h-24zm0,64h24v16h-24zm0,32h24v16h-24zM888,272h24v16h-24zm0,64h24v16h-24zm0,64h24v16h-24zM912,240h24v16h-24zm24,112h24v16h-24z"></path>
     <path fill="#1652cd" d="M0,384h24v16h-24zM24,320h24v176h-24zm24,16h24v160h-24zM72,288h24v48h-24zm0,192h24v80h-24zM96,288h24v48h-24zm0,224h24v32h-24zm0,48h24v16h-24zM120,272h24v48h-24zm0,256h24v32h-24zm0,48h24v16h-24zM144,256h24v32h-24zm0,288h24v48h-24zM168,240h24v32h-24zm0,320h24v48h-24zM192,224h24v48h-24zm0,336h24v48h-24zM216,224h24v32h-24zm0,368h24v16h-24zM240,224h24v32h-24zm0,368h24v32h-24zM264,208h24v32h-24zm0,384h24v32h-24zM288,208h24v32h-24zm0,368h24v64h-24zM312,192h24v48h-24zm0,400h24v32h-24zM336,208h24v32h-24zm0,384h24v32h-24zM360,208h24v32h-24zm0,384h24v48h-24zM384,208h24v32h-24zm0,368h24v48h-24zM408,208h24v48h-24zm0,368h24v64h-24zM432,224h24v16h-24zm0,336h24v16h-24zm0,32h24v16h-24zM456,224h24v16h-24zm0,336h24v48h-24zm24,-16h24v48h-24zM504,240h24v16h-24zm0,304h24v48h-24zM528,240h24v32h-24zm0,288h24v48h-24zM552,272h24v16h-24zm0,224h24v64h-24zM576,288h24v32h-24zm0,48h24v16h-24zm0,144h24v48h-24zm0,64h24v16h-24zM600,192h24v16h-24zm0,112h24v224h-24zM624,160h24v16h-24zm0,48h24v16h-24zm0,144h24v112h-24zM696,160h24v16h-24zm24,16h24v16h-24z"></path>
     <path fill="#1064dc" d="M72,336h24v144h-24zm24,0h24v64h-24zm0,80h24v16h-24zm0,48h24v48h-24zM120,320h24v16h-24zm0,160h24v48h-24zM144,288h24v32h-24zm0,224h24v32h-24zM168,272h24v32h-24zm0,256h24v32h-24zM192,272h24v16h-24zm0,272h24v16h-24zM216,256h24v32h-24zm0,304h24v32h-24zM240,256h24v16h-24zm0,304h24v32h-24zM264,240h24v32h-24zm0,320h24v32h-24zM288,240h24v32h-24zm24,0h24v16h-24zm0,320h24v32h-24zM336,240h24v32h-24zm0,336h24v16h-24zM360,240h24v16h-24zm0,336h24v16h-24zM384,240h24v16h-24zm24,304h24v32h-24zM432,240h24v16h-24zm0,336h24v16h-24zM456,240h24v16h-24zm0,304h24v16h-24zM480,240h24v16h-24zm0,288h24v16h-24zm24,0h24v16h-24zm24,-32h24v32h-24zM552,288h24v16h-24zm0,176h24v32h-24zM576,320h24v16h-24zm0,32h24v128h-24zM624,176h24v32h-24zm24,-16h24v16h-24zm0,48h24v16h-24zm24,-48h24v16h-24zm0,48h24v16h-24zm24,-32h24v32h-24z"></path>
     <path fill="#1272d9" d="M96,400h24v16h-24zm0,32h24v32h-24zm24,-96h24v96h-24zm0,128h24v16h-24zM144,320h24v48h-24zm0,144h24v48h-24zM168,304h24v32h-24zm0,208h24v16h-24zM192,288h24v32h-24zm0,240h24v16h-24zM216,288h24v16h-24zm0,240h24v32h-24zM240,272h24v16h-24zm0,272h24v16h-24zM264,272h24v16h-24zm0,272h24v16h-24zm24,0h24v32h-24zM312,256h24v16h-24zm0,288h24v16h-24zm24,0h24v32h-24zM360,256h24v32h-24zm0,288h24v32h-24zM384,256h24v16h-24zm0,288h24v32h-24zM408,256h24v16h-24zm0,272h24v16h-24zM432,256h24v16h-24zm0,272h24v32h-24zm24,0h24v16h-24zm24,-16h24v16h-24zM504,256h24v16h-24zm0,208h24v16h-24zm0,32h24v32h-24zM528,272h24v16h-24zm0,176h24v48h-24zM552,304h24v160h-24zM648,176h24v32h-24zm24,0h24v32h-24z"></path>
     <path fill="#1481d6" d="M120,432h24v32h-24zm24,-64h24v32h-24zm0,48h24v48h-24zm24,-80h24v32h-24zm0,144h24v32h-24zM192,320h24v16h-24zm0,176h24v32h-24zM216,304h24v16h-24zm0,208h24v16h-24zM240,288h24v16h-24zm0,240h24v16h-24zM264,288h24v16h-24zm0,240h24v16h-24zM288,272h24v16h-24zm0,256h24v16h-24zM312,272h24v16h-24zm0,256h24v16h-24zM336,272h24v32h-24zm0,256h24v16h-24zM360,288h24v16h-24zm0,240h24v16h-24zM384,272h24v16h-24zm0,256h24v16h-24zm48,-16h24v16h-24zM456,256h24v16h-24zm0,224h24v48h-24zM480,256h24v16h-24zm0,224h24v32h-24zm24,-32h24v16h-24zm0,32h24v16h-24zm24,-96h24v64h-24z"></path>
     <path fill="#0e8fd1" d="M144,400h24v16h-24zm24,-32h24v64h-24zm0,80h24v32h-24zm24,-96h24v16h-24zm0,112h24v32h-24zM216,320h24v16h-24zm0,176h24v16h-24zM240,304h24v32h-24zm0,208h24v16h-24zM264,304h24v16h-24zm0,208h24v16h-24zM288,288h24v16h-24zm0,224h24v16h-24zM312,288h24v32h-24zm0,224h24v16h-24zM336,304h24v16h-24zm48,-16h24v16h-24zm0,224h24v16h-24zM408,272h24v16h-24zm0,240h24v16h-24zm24,-32h24v32h-24zm24,-16h24v16h-24zm24,-16h24v32h-24zm24,-80h24v80h-24zm24,-80h24v16h-24zm0,64h24v32h-24z"></path>
     <path fill="#099dcc" d="M168,432h24v16h-24zm24,-96h24v16h-24zm0,32h24v16h-24zm0,48h24v48h-24zm24,-80h24v16h-24zm0,128h24v32h-24zm24,16h24v32h-24zM264,320h24v16h-24zm24,-16h24v32h-24zm0,192h24v16h-24zM312,320h24v16h-24zm24,0h24v16h-24zm0,192h24v16h-24zM360,304h24v16h-24zm0,208h24v16h-24zm48,-16h24v16h-24zM432,272h24v16h-24zm0,192h24v16h-24zm24,-64h24v16h-24zm0,32h24v32h-24zm24,-48h24v64h-24zM504,272h24v16h-24zm24,64h24v16h-24z"></path>
     <path fill="#0da7c3" d="M192,384h24v32h-24zm24,-32h24v80h-24zm0,96h24v16h-24zM240,336h24v16h-24zm0,128h24v16h-24zM264,352h24v16h-24zm0,128h24v32h-24zM288,336h24v16h-24zm0,144h24v16h-24zM312,336h24v16h-24zm0,144h24v32h-24zm24,16h24v16h-24zM360,320h24v32h-24zm0,160h24v32h-24zM384,304h24v32h-24zm0,176h24v32h-24zM408,288h24v16h-24zm0,176h24v32h-24zm24,-48h24v32h-24zm24,0h24v16h-24zM528,304h24v32h-24z"></path>
     <path fill="#1eafb3" d="M216,432h24v16h-24zm24,-80h24v32h-24zm0,64h24v48h-24zm24,-80h24v16h-24zm0,32h24v16h-24zm0,80h24v16h-24zm48,16h24v16h-24zM336,336h24v16h-24zm0,128h24v16h-24zM360,352h24v16h-24zm24,112h24v16h-24zm24,-64h24v64h-24zm24,-16h24v16h-24zm0,64h24v16h-24zM456,272h24v16h-24zm0,96h24v32h-24zm24,-96h24v16h-24zm0,96h24v16h-24zm24,-16h24v16h-24z"></path>
     <path fill="#2eb7a4" d="M240,384h24v32h-24zm24,0h24v16h-24zm0,80h24v16h-24zM288,352h24v16h-24zm0,48h24v32h-24zm0,64h24v16h-24zM312,352h24v16h-24zm24,0h24v16h-24zm0,128h24v16h-24zM360,368h24v16h-24zm0,96h24v16h-24zM384,336h24v32h-24zm0,48h24v16h-24zm0,48h24v32h-24zm24,-80h24v32h-24zm24,16h24v16h-24zm0,32h24v16h-24z"></path>
     <path fill="#52ba92" d="M264,400h24v48h-24zm24,-32h24v32h-24zm0,64h24v32h-24zm24,-64h24v32h-24zm0,64h24v32h-24zm24,-64h24v48h-24zm0,64h24v32h-24zm24,-48h24v80h-24zm24,-16h24v16h-24zm0,32h24v32h-24zm24,-96h24v16h-24zm0,32h24v16h-24zm0,48h24v16h-24zm24,-32h24v16h-24zm72,-64h24v16h-24z"></path>
     <path fill="#74bd81" d="M312,400h24v32h-24zm24,16h24v16h-24zm72,-96h24v16h-24zm24,-32h24v16h-24zm48,64h24v16h-24zm24,-16h24v16h-24z"></path>
     <path fill="#95be71" d="M456,352h24v16h-24z"></path>
     <path fill="#b3bd65" d="M480,288h24v16h-24zm24,16h24v32h-24z"></path>
     <path fill="#d1bb59" d="M432,320h24v32h-24z"></path>
     <path fill="#e2c04b" d="M432,304h24v16h-24zm24,-16h24v16h-24z"></path>
     <path fill="#f4c63b" d="M456,336h24v16h-24zm24,0h24v16h-24z"></path>
     <path fill="#f9f90f" d="M456,304h24v32h-24zm24,0h24v32h-24z"></path>
    </g>
    <g>
     <path d="M464,220l14,4l18,2l32,9l20,10l12,6l22,16l10,12l10,9l15,21l7,19l2,3l12,21l8,21l4,22l1,21l-1,21l-5,22l-8,21l-13,20l-1,1l-15,22l-16,15l-7,6l-25,19l-4,2l-28,17l-10,5l-22,10l-32,10l-4,1l-28,8l-32,6l-32,3l-32,1l-32,-1l-32,-3l-32,-6l-28,-8l-4,-1l-32,-10l-22,-10l-10,-5l-28,-17l-4,-2l-25,-19l-7,-6l-16,-15l-15,-22l-1,-1l-13,-20l-8,-21l-5,-22l-1,-21l1,-21l5,-22l8,-21l13,-20l1,-1l15,-22l16,-14l7,-7l25,-19l4,-2l28,-17l10,-5l22,-10l32,-10l5,-1l27,-8l32,-5l32,-3l32,-1h32l32,3l32,4z" style="fill: none; stroke: red; stroke-width: 2;"></path>
     <path d="M707,160l13,8l13,13l-1,22l-12,12l-14,9l-18,8l-32,2l-25,-10l-7,-4l-17,-17l1,-22l16,-15l10,-6l22,-9l32,1z" style="fill: none; stroke: red; stroke-width: 2;"></path>
     <path d="M432,241h32l25,4l7,1l32,7l23,14l9,8l16,13l11,21l4,22l1,13l2,8l3,21l4,22l1,21l-2,21l-7,22l-1,2l-8,19l-16,21l-8,9l-13,13l-19,14l-10,7l-22,13l-20,8l-12,6l-32,10l-32,6l-32,4l-32,2l-32,-2l-32,-4l-32,-6l-32,-11l-12,-5l-20,-8l-22,-13l-10,-7l-19,-14l-13,-13l-8,-9l-15,-21l-9,-19l-1,-2l-7,-22l-2,-21l2,-21l7,-22l1,-2l9,-19l15,-21l8,-9l13,-13l19,-14l10,-7l22,-13l20,-8l12,-5l32,-10l32,-7h1l31,-4l32,-1h32l32,2z" style="fill: none; stroke: red; stroke-width: 2;"></path>
     <path d="M707,181l-1,22l-18,11l-32,1l-21,-12v-22l21,-13l32,1z" style="fill: none; stroke: red; stroke-width: 2;"></path>
     <path d="M432,253l32,-2l32,2l32,12l2,2l28,21l2,3l14,18l5,22l-2,21l-5,21l-3,22l-1,21l-3,21l-5,15l-2,7l-11,21l-19,21l-26,22l-6,4l-32,17h-1l-31,12l-32,8l-14,1l-18,3l-32,2l-32,-2l-18,-3l-14,-2l-32,-7l-31,-12h-1l-32,-17l-6,-4l-26,-22l-18,-21l-12,-21l-2,-7l-5,-15l-2,-21l2,-21l5,-15l2,-7l12,-21l18,-21l26,-22l6,-4l32,-17h1l31,-12l32,-7l15,-2l17,-3l32,-2h32l32,-3z" style="fill: none; stroke: red; stroke-width: 2;"></path>
     <path d="M464,258l32,2l16,7l16,5l21,16l11,20l1,1l5,22l-5,21l-1,2l-7,19l-8,22l-4,21l-3,21l-9,22l-1,1l-12,20l-20,19l-2,2l-30,20l-3,2l-29,12l-31,9h-1l-32,6l-32,1l-32,-1l-32,-6h-1l-31,-9l-29,-12l-3,-2l-30,-20l-2,-2l-19,-19l-13,-20l-1,-1l-8,-22l-3,-21l3,-21l8,-22l1,-1l13,-20l19,-19l3,-2l29,-20l4,-2l28,-12l32,-9l32,-6l32,-2l32,-1l32,-7l20,-5l12,-4z" style="fill: none; stroke: red; stroke-width: 2;"></path>
     <path d="M464,265l20,2h12l32,12l12,9l15,21l2,22l-4,21l-14,21l-11,17l-4,5l-7,21l-4,21l-9,22l-8,10l-9,11l-23,19l-3,2l-29,15l-18,7l-14,4l-32,6l-32,2l-32,-2l-32,-6l-14,-4l-18,-7l-29,-15l-3,-2l-23,-19l-9,-11l-7,-10l-9,-22l-3,-21l3,-21l9,-22l7,-9l9,-12l23,-19l4,-2l28,-15l18,-7l14,-4l32,-6l32,-3l32,-2l16,-6l16,-5l32,-12l23,-4z" style="fill: none; stroke: red; stroke-width: 2;"></path>
     <path d="M496,271l32,14l4,3l17,21l3,22l-7,21l-17,20l-2,1l-21,22l-9,19l-1,2l-6,21l-10,22l-15,16l-5,5l-27,18l-7,3l-25,10l-32,7l-32,2l-32,-2l-32,-7l-25,-10l-7,-3l-27,-18l-5,-5l-15,-16l-10,-22l-3,-21l3,-21l10,-22l15,-16l5,-5l27,-18l8,-3l24,-10l32,-7l32,-2l23,-3l9,-1l32,-14l7,-6l25,-12l32,-7z" style="fill: none; stroke: red; stroke-width: 2;"></path>
     <path d="M464,273l32,2l27,13l5,4l15,17l3,22l-9,21l-9,11l-14,10l-18,16l-12,6l-11,21l-6,21l-3,6l-10,16l-22,19l-2,2l-30,14l-26,7l-6,2l-32,2l-32,-2l-6,-2l-26,-7l-30,-14l-2,-2l-22,-19l-10,-17l-2,-5l-4,-21l4,-21l2,-5l10,-17l22,-19l3,-2l29,-14l26,-7l6,-2l32,-3l32,-3l20,-14l12,-5l19,-16l13,-6z" style="fill: none; stroke: red; stroke-width: 2;"></path>
     <path d="M496,279l19,9l13,10l10,11l3,22l-12,21l-1,1l-27,20l-5,5l-32,15l-4,2l-10,21l-7,21l-11,16l-5,6l-27,18l-8,3l-24,7l-32,3l-32,-3l-23,-7l-9,-3l-27,-18l-5,-6l-11,-16l-4,-21l4,-21l11,-16l5,-6l27,-18l9,-3l23,-7l32,-3l32,-2l12,-9l20,-14l3,-8l28,-21h1l32,-11z" style="fill: none; stroke: red; stroke-width: 2;"></path>
     <path d="M507,288l21,17l4,4l3,22l-7,13l-6,8l-26,18l-14,3l-18,9l-32,9l-5,4l-3,21l-8,21l-16,18l-6,4l-26,10l-32,5l-32,-5l-26,-10l-6,-4l-16,-18l-6,-21l6,-21l16,-18l6,-4l26,-10l32,-5l32,1l17,-7l15,-14l1,-7l10,-22l21,-16l11,-5l21,-7l32,2z" style="fill: none; stroke: red; stroke-width: 2;"></path>
     <path d="M384,395l8,21l-11,21l-13,9l-32,7l-32,-7l-13,-9l-10,-21l10,-21l13,-9l32,-7l32,6z" style="fill: none; stroke: red; stroke-width: 2;"></path>
     <path d="M526,309l2,11l2,11l-2,3l-13,18l-19,13l-32,7l-32,-3l-21,-17l-2,-21l9,-22l14,-10l22,-11l10,-3l32,2l3,1z" style="fill: none; stroke: red; stroke-width: 2;"></path>
     <path d="M521,309l3,22l-16,21l-12,8l-32,7l-32,-10l-7,-5l-9,-21l10,-22l6,-4l32,-17l32,2z" style="fill: none; stroke: red; stroke-width: 2;"></path>
     <path d="M496,294l20,15l3,22l-18,21l-5,3l-32,6l-24,-9l-8,-8l-8,-13l8,-19l1,-3l31,-17z" style="fill: none; stroke: red; stroke-width: 2;"></path>
     <path d="M511,309l3,22l-18,19l-9,2l-23,4l-11,-4l-21,-21v-1l8,-21l24,-13l32,2z" style="fill: none; stroke: red; stroke-width: 2;"></path>
     <path d="M506,309l3,22l-13,14l-32,6l-25,-20l8,-22l17,-9l32,2z" style="fill: none; stroke: red; stroke-width: 2;"></path>
     <path d="M501,309l3,22l-8,9l-32,5l-18,-14l7,-22l11,-6l32,3z" style="fill: none; stroke: red; stroke-width: 2;"></path>
     <path d="M496,313l3,18l-3,3l-32,6l-11,-9l7,-22l4,-2l26,2z" style="fill: none; stroke: red; stroke-width: 2;"></path>
     <path d="M484,331l-20,3l-4,-3l4,-13z" style="fill: none; stroke: red; stroke-width: 2;"></path>
    </g>
    <g>
     <path d="M464,220l14,4l18,2l32,9l20,10l12,6l22,16l10,12l10,9l15,21l7,19l2,3l12,21l8,21l4,22l1,21l-1,21l-5,22l-8,21l-13,20l-1,1l-15,22l-16,15l-7,6l-25,19l-4,2l-28,17l-10,5l-22,10l-32,10l-4,1l-28,8l-32,6l-32,3l-32,1l-32,-1l-32,-3l-32,-6l-28,-8l-4,-1l-32,-10l-22,-10l-10,-5l-28,-17l-4,-2l-25,-19l-7,-6l-16,-15l-15,-22l-1,-1l-13,-20l-8,-21l-5,-22l-1,-21l1,-21l5,-22l8,-21l13,-20l1,-1l15,-22l16,-14l7,-7l25,-19l4,-2l28,-17l10,-5l22,-10l32,-10l5,-1l27,-8l32,-5l32,-3l32,-1h32l32,3l32,4z" style="fill: none; stroke: #1652cd; stroke-width: 1;"></path>
     <path d="M707,160l13,8l13,13l-1,22l-12,12l-14,9l-18,8l-32,2l-25,-10l-7,-4l-17,-17l1,-22l16,-15l10,-6l22,-9l32,1z" style="fill: none; stroke: #1652cd; stroke-width: 1;"></path>
     <path d="M432,241h32l25,4l7,1l32,7l23,14l9,8l16,13l11,21l4,22l1,13l2,8l3,21l4,22l1,21l-2,21l-7,22l-1,2l-8,19l-16,21l-8,9l-13,13l-19,14l-10,7l-22,13l-20,8l-12,6l-32,10l-32,6l-32,4l-32,2l-32,-2l-32,-4l-32,-6l-32,-11l-12,-5l-20,-8l-22,-13l-10,-7l-19,-14l-13,-13l-8,-9l-15,-21l-9,-19l-1,-2l-7,-22l-2,-21l2,-21l7,-22l1,-2l9,-19l15,-21l8,-9l13,-13l19,-14l10,-7l22,-13l20,-8l12,-5l32,-10l32,-7h1l31,-4l32,-1h32l32,2z" style="fill: none; stroke: #1064dc; stroke-width: 1;"></path>
     <path d="M707,181l-1,22l-18,11l-32,1l-21,-12v-22l21,-13l32,1z" style="fill: none; stroke: #1064dc; stroke-width: 1;"></path>
     <path d="M432,253l32,-2l32,2l32,12l2,2l28,21l2,3l14,18l5,22l-2,21l-5,21l-3,22l-1,21l-3,21l-5,15l-2,7l-11,21l-19,21l-26,22l-6,4l-32,17h-1l-31,12l-32,8l-14,1l-18,3l-32,2l-32,-2l-18,-3l-14,-2l-32,-7l-31,-12h-1l-32,-17l-6,-4l-26,-22l-18,-21l-12,-21l-2,-7l-5,-15l-2,-21l2,-21l5,-15l2,-7l12,-21l18,-21l26,-22l6,-4l32,-17h1l31,-12l32,-7l15,-2l17,-3l32,-2h32l32,-3z" style="fill: none; stroke: #1272d9; stroke-width: 1;"></path>
     <path d="M464,258l32,2l16,7l16,5l21,16l11,20l1,1l5,22l-5,21l-1,2l-7,19l-8,22l-4,21l-3,21l-9,22l-1,1l-12,20l-20,19l-2,2l-30,20l-3,2l-29,12l-31,9h-1l-32,6l-32,1l-32,-1l-32,-6h-1l-31,-9l-29,-12l-3,-2l-30,-20l-2,-2l-19,-19l-13,-20l-1,-1l-8,-22l-3,-21l3,-21l8,-22l1,-1l13,-20l19,-19l3,-2l29,-20l4,-2l28,-12l32,-9l32,-6l32,-2l32,-1l32,-7l20,-5l12,-4z" style="fill: none; stroke: #1481d6; stroke-width: 1;"></path>
     <path d="M464,265l20,2h12l32,12l12,9l15,21l2,22l-4,21l-14,21l-11,17l-4,5l-7,21l-4,21l-9,22l-8,10l-9,11l-23,19l-3,2l-29,15l-18,7l-14,4l-32,6l-32,2l-32,-2l-32,-6l-14,-4l-18,-7l-29,-15l-3,-2l-23,-19l-9,-11l-7,-10l-9,-22l-3,-21l3,-21l9,-22l7,-9l9,-12l23,-19l4,-2l28,-15l18,-7l14,-4l32,-6l32,-3l32,-2l16,-6l16,-5l32,-12l23,-4z" style="fill: none; stroke: #0e8fd1; stroke-width: 1;"></path>
     <path d="M496,271l32,14l4,3l17,21l3,22l-7,21l-17,20l-2,1l-21,22l-9,19l-1,2l-6,21l-10,22l-15,16l-5,5l-27,18l-7,3l-25,10l-32,7l-32,2l-32,-2l-32,-7l-25,-10l-7,-3l-27,-18l-5,-5l-15,-16l-10,-22l-3,-21l3,-21l10,-22l15,-16l5,-5l27,-18l8,-3l24,-10l32,-7l32,-2l23,-3l9,-1l32,-14l7,-6l25,-12l32,-7z" style="fill: none; stroke: #099dcc; stroke-width: 1;"></path>
     <path d="M464,273l32,2l27,13l5,4l15,17l3,22l-9,21l-9,11l-14,10l-18,16l-12,6l-11,21l-6,21l-3,6l-10,16l-22,19l-2,2l-30,14l-26,7l-6,2l-32,2l-32,-2l-6,-2l-26,-7l-30,-14l-2,-2l-22,-19l-10,-17l-2,-5l-4,-21l4,-21l2,-5l10,-17l22,-19l3,-2l29,-14l26,-7l6,-2l32,-3l32,-3l20,-14l12,-5l19,-16l13,-6z" style="fill: none; stroke: #0da7c3; stroke-width: 1;"></path>
     <path d="M496,279l19,9l13,10l10,11l3,22l-12,21l-1,1l-27,20l-5,5l-32,15l-4,2l-10,21l-7,21l-11,16l-5,6l-27,18l-8,3l-24,7l-32,3l-32,-3l-23,-7l-9,-3l-27,-18l-5,-6l-11,-16l-4,-21l4,-21l11,-16l5,-6l27,-18l9,-3l23,-7l32,-3l32,-2l12,-9l20,-14l3,-8l28,-21h1l32,-11z" style="fill: none; stroke: #1eafb3; stroke-width: 1;"></path>
     <path d="M507,288l21,17l4,4l3,22l-7,13l-6,8l-26,18l-14,3l-18,9l-32,9l-5,4l-3,21l-8,21l-16,18l-6,4l-26,10l-32,5l-32,-5l-26,-10l-6,-4l-16,-18l-6,-21l6,-21l16,-18l6,-4l26,-10l32,-5l32,1l17,-7l15,-14l1,-7l10,-22l21,-16l11,-5l21,-7l32,2z" style="fill: none; stroke: #2eb7a4; stroke-width: 1;"></path>
     <path d="M384,395l8,21l-11,21l-13,9l-32,7l-32,-7l-13,-9l-10,-21l10,-21l13,-9l32,-7l32,6z" style="fill: none; stroke: #52ba92; stroke-width: 1;"></path>
     <path d="M526,309l2,11l2,11l-2,3l-13,18l-19,13l-32,7l-32,-3l-21,-17l-2,-21l9,-22l14,-10l22,-11l10,-3l32,2l3,1z" style="fill: none; stroke: #52ba92; stroke-width: 1;"></path>
     <path d="M521,309l3,22l-16,21l-12,8l-32,7l-32,-10l-7,-5l-9,-21l10,-22l6,-4l32,-17l32,2z" style="fill: none; stroke: #74bd81; stroke-width: 1;"></path>
     <path d="M496,294l20,15l3,22l-18,21l-5,3l-32,6l-24,-9l-8,-8l-8,-13l8,-19l1,-3l31,-17z" style="fill: none; stroke: #95be71; stroke-width: 1;"></path>
     <path d="M511,309l3,22l-18,19l-9,2l-23,4l-11,-4l-21,-21v-1l8,-21l24,-13l32,2z" style="fill: none; stroke: #b3bd65; stroke-width: 1;"></path>
     <path d="M506,309l3,22l-13,14l-32,6l-25,-20l8,-22l17,-9l32,2z" style="fill: none; stroke: #d1bb59; stroke-width: 1;"></path>
     <path d="M501,309l3,22l-8,9l-32,5l-18,-14l7,-22l11,-6l32,3z" style="fill: none; stroke: #e2c04b; stroke-width: 1;"></path>
     <path d="M496,313l3,18l-3,3l-32,6l-11,-9l7,-22l4,-2l26,2z" style="fill: none; stroke: #f4c63b; stroke-width: 1;"></path>
     <path d="M484,331l-20,3l-4,-3l4,-13z" style="fill: none; stroke: #fdd22b; stroke-width: 1;"></path>
    </g>
   </svg>
   <g>
    <g transform="translate(0,640)">
     <path d="M0,0h960M0,-19V0M24,-10V0M48,-10V0M72,-10V0M96,-19V0M120,-10V0M144,-10V0M168,-10V0M192,-19V0M216,-10V0M240,-10V0M264,-10V0M288,-19V0M312,-10V0M336,-10V0M360,-10V0M384,-19V0M408,-10V0M432,-10V0M456,-10V0M480,-19V0M504,-10V0M528,-10V0M552,-10V0M576,-19V0M600,-10V0M624,-10V0M648,-10V0M672,-19V0M696,-10V0M720,-10V0M744,-10V0M768,-19V0M792,-10V0M816,-10V0M840,-10V0M864,-19V0M888,-10V0M912,-10V0M936,-10V0M960,-19V0" style="stroke: black; stroke-width: 1;"></path>
     <g font-family="Arial" font-size="28" space="preserve" fill="black" text-anchor="middle">
      <text dy=".8em" transform="translate(0,5)">
       -10
      </text>
      <text dy=".8em" transform="translate(96,5)">
       -8
      </text>
      <text dy=".8em" transform="translate(192,5)">
       -6
      </text>
      <text dy=".8em" transform="translate(288,5)">
       -4
      </text>
      <text dy=".8em" transform="translate(384,5)">
       -2
      </text>
      <text dy=".8em" transform="translate(480,5)">
       0
      </text>
      <text dy=".8em" transform="translate(576,5)">
       2
      </text>
      <text dy=".8em" transform="translate(672,5)">
       4
      </text>
      <text dy=".8em" transform="translate(768,5)">
       6
      </text>
      <text dy=".8em" transform="translate(864,5)">
       8
      </text>
      <text dy=".8em" transform="translate(960,5)">
       10
      </text>
     </g>
    </g>
    <g>
     <path d="M0,0v640M29,640H0M15,624H0M15,608H0M15,592H0M29,576H0M15,560H0M15,544H0M15,528H0M29,512H0M15,496H0M15,480H0M15,464H0M29,448H0M15,432H0M15,416H0M15,400H0M29,384H0M15,368H0M15,352H0M15,336H0M29,320H0M15,304H0M15,288H0M15,272H0M29,256H0M15,240H0M15,224H0M15,208H0M29,192H0M15,176H0M15,160H0M15,144H0M29,128H0M15,112H0M15,96H0M15,80H0M29,64H0M15,48H0M15,32H0M15,16H0M29,0H0" style="stroke: black; stroke-width: 1;"></path>
     <g font-family="Arial" font-size="28" space="preserve" fill="black" text-anchor="end">
      <text dy=".4em" transform="translate(-6,640)">
       -10
      </text>
      <text dy=".4em" transform="translate(-6,576)">
       -8
      </text>
      <text dy=".4em" transform="translate(-6,512)">
       -6
      </text>
      <text dy=".4em" transform="translate(-6,448)">
       -4
      </text>
      <text dy=".4em" transform="translate(-6,384)">
       -2
      </text>
      <text dy=".4em" transform="translate(-6,320)">
       0
      </text>
      <text dy=".4em" transform="translate(-6,256)">
       2
      </text>
      <text dy=".4em" transform="translate(-6,192)">
       4
      </text>
      <text dy=".4em" transform="translate(-6,128)">
       6
      </text>
      <text dy=".4em" transform="translate(-6,64)">
       8
      </text>
      <text dy=".4em" transform="translate(-6)">
       10
      </text>
     </g>
    </g>
   </g>
  </g>
  <g transform="translate(120,4)" font-family="Arial" font-size="40" space="preserve">
   <text fill="black" text-anchor="middle" dy=".8em" transform="translate(480)">
    from f2
   </text>
  </g>
  <g transform="translate(936,52)" font-family="Arial" font-size="22" space="preserve" fill="black">
   <path d="M0,0H240V192H0Z" style="fill: white; stroke: black; stroke-width: 1;"></path>
   <text text-anchor="middle" dy=".4em" transform="translate(120,16)">
    h2
   </text>
   <text text-anchor="start" dy=".4em" transform="translate(12,48)">
    Entries
   </text>
   <text text-anchor="end" dy=".4em" transform="translate(228,48)">
    100000
   </text>
   <text text-anchor="start" dy=".4em" transform="translate(12,80)">
    Mean x
   </text>
   <text text-anchor="end" dy=".4em" transform="translate(228,80)">
    -2.454
   </text>
   <text text-anchor="start" dy=".4em" transform="translate(12,112)">
    Mean y
   </text>
   <text text-anchor="end" dy=".4em" transform="translate(228,112)">
    -2.460
   </text>
   <text text-anchor="start" dy=".4em" transform="translate(12,144)">
    Std Dev x
   </text>
   <text text-anchor="end" dy=".4em" transform="translate(228,144)">
    3.022
   </text>
   <text text-anchor="start" dy=".4em" transform="translate(12,176)">
    Std Dev y
   </text>
   <text text-anchor="end" dy=".4em" transform="translate(228,176)">
    3.018
   </text>
   <path d="M0,32h240" style="stroke: black; stroke-width: 1;"></path>
  </g>
 </g>
</svg>