<svg xmlns="http://www.w3.org/2000/svg" viewBox="0 0 598 575" preserveAspectRatio="none" width="598" height="575">
 <defs>
  <linearGradient id="grad_1182" x1="0" y1="1" x2="0" y2="0">
   <stop offset="0%" stop-color="#85c2a3" stop-opacity="100%"></stop>
   <stop offset="100%" stop-color="#7d99d1" stop-opacity="100%"></stop>
  </linearGradient>
  <linearGradient id="grad_1181" x1="0" y1="1" x2="1" y2="1">
   <stop offset="0%" stop-color="#404040" stop-opacity="55%"></stop>
   <stop offset="20%" stop-color="#ffffff" stop-opacity="5%"></stop>
   <stop offset="80%" stop-color="#ffffff" stop-opacity="5%"></stop>
   <stop offset="100%" stop-color="#404040" stop-opacity="55%"></stop>
  </linearGradient>
  <linearGradient id="grad_1183" x1="0" y1="1" x2="0" y2="0">
   <stop offset="0%" stop-color="#ffff00" stop-opacity="100%"></stop>
   <stop offset="50%" stop-color="#ffcc00" stop-opacity="100%"></stop>
   <stop offset="100%" stop-color="#ff0000" stop-opacity="100%"></stop>
  </linearGradient>
 </defs>
 <path d="M0,0H598V575H0Z" style="fill: url(#grad_1182);"></path>
 <g>
  <g transform="translate(60,58)">
   <path d="M0,0H478V460H0Z" style="fill: url(#grad_1181); stroke: black; stroke-width: 1;"></path>
   <svg x="0" y="0" overflow="hidden" width="478" height="460" viewBox="0 0 478 460">
    <g>
     <path d="M0,452h24v-9h24v-19h24v-32h24v-43h24v-64h23v-84h24v-71h24v-72h24v-35h24v-1h24v39h24v74h24v69h24v80h24v65h23v42h24v33h24v19h24v9h24L478,463H0Z" style="stroke-linejoin: miter; stroke: #000099; stroke-width: 1; fill: url(#grad_1183);"></path>
    </g>
   </svg>
   <g>
    <g transform="translate(0,460)">
     <path d="M0,0h478M0,-17V0M16,-9V0M32,-9V0M48,-9V0M64,-9V0M80,-17V0M96,-9V0M112,-9V0M127,-9V0M143,-9V0M159,-17V0M175,-9V0M191,-9V0M207,-9V0M223,-9V0M239,-17V0M255,-9V0M271,-9V0M287,-9V0M303,-9V0M319,-17V0M335,-9V0M351,-9V0M366,-9V0M382,-9V0M398,-17V0M414,-9V0M430,-9V0M446,-9V0M462,-9V0M478,-17V0" style="stroke: black; stroke-width: 1;"></path>
     <g font-family="Arial" font-size="20" space="preserve" fill="black" text-anchor="middle">
      <text dy=".8em" transform="translate(0,4)">
       -3
      </text>
      <text dy=".8em" transform="translate(80,4)">
       -2
      </text>
      <text dy=".8em" transform="translate(159,4)">
       -1
      </text>
      <text dy=".8em" transform="translate(239,4)">
       0
      </text>
      <text dy=".8em" transform="translate(319,4)">
       1
      </text>
      <text dy=".8em" transform="translate(398,4)">
       2
      </text>
      <text dy=".8em" transform="translate(478,4)">
       3
      </text>
     </g>
    </g>
    <g>
     <path d="M0,0v460M18,460H0M9,442H0M9,423H0M9,405H0M18,386H0M9,368H0M9,350H0M9,331H0M18,313H0M9,294H0M9,276H0M9,258H0M18,239H0M9,221H0M9,202H0M9,184H0M18,166H0M9,147H0M9,129H0M9,110H0M18,92H0M9,74H0M9,55H0M9,37H0M18,18H0M9,0H0" style="stroke: black; stroke-width: 1;"></path>
     <g font-family="Arial" font-size="19" space="preserve" fill="black" text-anchor="end">
      <text dy=".4em" transform="translate(-4,460)">
       0
      </text>
      <text dy=".4em" transform="translate(-4,386)">
       2000
      </text>
      <text dy=".4em" transform="translate(-4,313)">
       4000
      </text>
      <text dy=".4em" transform="translate(-4,239)">
       6000
      </text>
      <text dy=".4em" transform="translate(-4,166)">
       8000
      </text>
      <text dy=".4em" transform="translate(-4,92)">
       10000
      </text>
      <text dy=".4em" transform="translate(-4,18)">
       12000
      </text>
     </g>
    </g>
   </g>
  </g>
  <g transform="translate(60,3)" font-family="Arial" font-size="29" space="preserve">
   <text fill="black" text-anchor="middle" dy=".8em" transform="translate(239)">
    b1
   </text>
  </g>
  <g transform="translate(466,37)" font-family="Arial" font-size="11" space="preserve" fill="black">
   <path d="M0,0H120V92H0Z" style="fill: white; stroke: black; stroke-width: 1;"></path>
   <text text-anchor="middle" dy=".4em" transform="translate(60,12)">
    a1
   </text>
   <text text-anchor="start" dy=".4em" transform="translate(6,35)">
    Entries
   </text>
   <text text-anchor="end" dy=".4em" transform="translate(114,35)">
    100000
   </text>
   <text text-anchor="start" dy=".4em" transform="translate(6,58)">
    Mean
   </text>
   <text text-anchor="end" dy=".4em" transform="translate(114,58)">
    -0.001098
   </text>
   <text text-anchor="start" dy=".4em" transform="translate(6,81)">
    Std Dev
   </text>
   <text text-anchor="end" dy=".4em" transform="translate(114,81)">
    0.9934
   </text>
   <path d="M0,23h120" style="stroke: black; stroke-width: 1;"></path>
  </g>
 </g>
</svg>