<svg viewBox="0 0 1200 800" preserveAspectRatio="none" xmlns="http://www.w3.org/2000/svg" width="1200" height="800"><title>ROOT canvas</title><rect x="0" y="0" width="1200" height="800" style="fill: white;"></rect><g><g objname="name" objtype="TBox"><rect x="0" y="0" width="120" height="80" style="fill: black;"></rect></g><g objname="name" objtype="TBox"><rect x="120" y="0" width="120" height="80" style="fill: rgb(2,2,2);"></rect></g><g objname="name" objtype="TBox"><rect x="240" y="0" width="120" height="80" style="fill: rgb(5,5,5);"></rect></g><g objname="name" objtype="TBox"><rect x="360" y="0" width="120" height="80" style="fill: rgb(7,7,7);"></rect></g><g objname="name" objtype="TBox"><rect x="480" y="0" width="120" height="80" style="fill: rgb(10,10,10);"></rect></g><g objname="name" objtype="TBox"><rect x="600" y="0" width="120" height="80" style="fill: rgb(12,12,12);"></rect></g><g objname="name" objtype="TBox"><rect x="720" y="0" width="120" height="80" style="fill: rgb(15,15,15);"></rect></g><g objname="name" objtype="TBox"><rect x="840" y="0" width="120" height="80" style="fill: rgb(17,17,17);"></rect></g><g objname="name" objtype="TBox"><rect x="960" y="0" width="120" height="80" style="fill: rgb(20,20,20);"></rect></g><g objname="name" objtype="TBox"><rect x="1080" y="0" width="120" height="80" style="fill: rgb(22,22,22);"></rect></g><g objname="name" objtype="TBox"><rect x="0" y="80" width="120" height="80" style="fill: rgb(25,25,25);"></rect></g><g objname="name" objtype="TBox"><rect x="120" y="80" width="120" height="80" style="fill: rgb(28,28,28);"></rect></g><g objname="name" objtype="TBox"><rect x="240" y="80" width="120" height="80" style="fill: rgb(30,30,30);"></rect></g><g objname="name" objtype="TBox"><rect x="360" y="80" width="120" height="80" style="fill: rgb(33,33,33);"></rect></g><g objname="name" objtype="TBox"><rect x="480" y="80" width="120" height="80" style="fill: rgb(35,35,35);"></rect></g><g objname="name" objtype="TBox"><rect x="600" y="80" width="120" height="80" style="fill: rgb(38,38,38);"></rect></g><g objname="name" objtype="TBox"><rect x="720" y="80" width="120" height="80" style="fill: rgb(40,40,40);"></rect></g><g objname="name" objtype="TBox"><rect x="840" y="80" width="120" height="80" style="fill: rgb(43,43,43);"></rect></g><g objname="name" objtype="TBox"><rect x="960" y="80" width="120" height="80" style="fill: rgb(45,45,45);"></rect></g><g objname="name" objtype="TBox"><rect x="1080" y="80" width="120" height="80" style="fill: rgb(48,48,48);"></rect></g><g objname="name" objtype="TBox"><rect x="0" y="160" width="120" height="80" style="fill: rgb(51,51,51);"></rect></g><g objname="name" objtype="TBox"><rect x="120" y="160" width="120" height="80" style="fill: rgb(53,53,53);"></rect></g><g objname="name" objtype="TBox"><rect x="240" y="160" width="120" height="80" style="fill: rgb(56,56,56);"></rect></g><g objname="name" objtype="TBox"><rect x="360" y="160" width="120" height="80" style="fill: rgb(58,58,58);"></rect></g><g objname="name" objtype="TBox"><rect x="480" y="160" width="120" height="80" style="fill: rgb(61,61,61);"></rect></g><g objname="name" objtype="TBox"><rect x="600" y="160" width="120" height="80" style="fill: rgb(63,63,63);"></rect></g><g objname="name" objtype="TBox"><rect x="720" y="160" width="120" height="80" style="fill: rgb(66,66,66);"></rect></g><g objname="name" objtype="TBox"><rect x="840" y="160" width="120" height="80" style="fill: rgb(68,68,68);"></rect></g><g objname="name" objtype="TBox"><rect x="960" y="160" width="120" height="80" style="fill: rgb(71,71,71);"></rect></g><g objname="name" objtype="TBox"><rect x="1080" y="160" width="120" height="80" style="fill: rgb(73,73,73);"></rect></g><g objname="name" objtype="TBox"><rect x="0" y="240" width="120" height="80" style="fill: rgb(77,77,77);"></rect></g><g objname="name" objtype="TBox"><rect x="120" y="240" width="120" height="80" style="fill: rgb(79,79,79);"></rect></g><g objname="name" objtype="TBox"><rect x="240" y="240" width="120" height="80" style="fill: rgb(81,81,81);"></rect></g><g objname="name" objtype="TBox"><rect x="360" y="240" width="120" height="80" style="fill: rgb(84,84,84);"></rect></g><g objname="name" objtype="TBox"><rect x="480" y="240" width="120" height="80" style="fill: rgb(86,86,86);"></rect></g><g objname="name" objtype="TBox"><rect x="600" y="240" width="120" height="80" style="fill: rgb(89,89,89);"></rect></g><g objname="name" objtype="TBox"><rect x="720" y="240" width="120" height="80" style="fill: rgb(92,92,92);"></rect></g><g objname="name" objtype="TBox"><rect x="840" y="240" width="120" height="80" style="fill: rgb(94,94,94);"></rect></g><g objname="name" objtype="TBox"><rect x="960" y="240" width="120" height="80" style="fill: rgb(96,96,96);"></rect></g><g objname="name" objtype="TBox"><rect x="1080" y="240" width="120" height="80" style="fill: rgb(99,99,99);"></rect></g><g objname="name" objtype="TBox"><rect x="0" y="320" width="120" height="80" style="fill: rgb(102,102,102);"></rect></g><g objname="name" objtype="TBox"><rect x="120" y="320" width="120" height="80" style="fill: rgb(104,104,104);"></rect></g><g objname="name" objtype="TBox"><rect x="240" y="320" width="120" height="80" style="fill: rgb(107,107,107);"></rect></g><g objname="name" objtype="TBox"><rect x="360" y="320" width="120" height="80" style="fill: rgb(109,109,109);"></rect></g><g objname="name" objtype="TBox"><rect x="480" y="320" width="120" height="80" style="fill: rgb(112,112,112);"></rect></g><g objname="name" objtype="TBox"><rect x="600" y="320" width="120" height="80" style="fill: rgb(114,114,114);"></rect></g><g objname="name" objtype="TBox"><rect x="720" y="320" width="120" height="80" style="fill: rgb(117,117,117);"></rect></g><g objname="name" objtype="TBox"><rect x="840" y="320" width="120" height="80" style="fill: rgb(119,119,119);"></rect></g><g objname="name" objtype="TBox"><rect x="960" y="320" width="120" height="80" style="fill: rgb(122,122,122);"></rect></g><g objname="name" objtype="TBox"><rect x="1080" y="320" width="120" height="80" style="fill: rgb(124,124,124);"></rect></g><g objname="name" objtype="TBox"><rect x="0" y="400" width="120" height="80" style="fill: rgb(128,128,128);"></rect></g><g objname="name" objtype="TBox"><rect x="120" y="400" width="120" height="80" style="fill: rgb(130,130,130);"></rect></g><g objname="name" objtype="TBox"><rect x="240" y="400" width="120" height="80" style="fill: rgb(132,132,132);"></rect></g><g objname="name" objtype="TBox"><rect x="360" y="400" width="120" height="80" style="fill: rgb(135,135,135);"></rect></g><g objname="name" objtype="TBox"><rect x="480" y="400" width="120" height="80" style="fill: rgb(137,137,137);"></rect></g><g objname="name" objtype="TBox"><rect x="600" y="400" width="120" height="80" style="fill: rgb(140,140,140);"></rect></g><g objname="name" objtype="TBox"><rect x="720" y="400" width="120" height="80" style="fill: rgb(142,142,142);"></rect></g><g objname="name" objtype="TBox"><rect x="840" y="400" width="120" height="80" style="fill: rgb(145,145,145);"></rect></g><g objname="name" objtype="TBox"><rect x="960" y="400" width="120" height="80" style="fill: rgb(147,147,147);"></rect></g><g objname="name" objtype="TBox"><rect x="1080" y="400" width="120" height="80" style="fill: rgb(150,150,150);"></rect></g><g objname="name" objtype="TBox"><rect x="0" y="480" width="120" height="80" style="fill: rgb(153,153,153);"></rect></g><g objname="name" objtype="TBox"><rect x="120" y="480" width="120" height="80" style="fill: rgb(155,155,155);"></rect></g><g objname="name" objtype="TBox"><rect x="240" y="480" width="120" height="80" style="fill: rgb(158,158,158);"></rect></g><g objname="name" objtype="TBox"><rect x="360" y="480" width="120" height="80" style="fill: rgb(160,160,160);"></rect></g><g objname="name" objtype="TBox"><rect x="480" y="480" width="120" height="80" style="fill: rgb(163,163,163);"></rect></g><g objname="name" objtype="TBox"><rect x="600" y="480" width="120" height="80" style="fill: rgb(165,165,165);"></rect></g><g objname="name" objtype="TBox"><rect x="720" y="480" width="120" height="80" style="fill: rgb(168,168,168);"></rect></g><g objname="name" objtype="TBox"><rect x="840" y="480" width="120" height="80" style="fill: rgb(170,170,170);"></rect></g><g objname="name" objtype="TBox"><rect x="960" y="480" width="120" height="80" style="fill: rgb(173,173,173);"></rect></g><g objname="name" objtype="TBox"><rect x="1080" y="480" width="120" height="80" style="fill: rgb(175,175,175);"></rect></g><g objname="name" objtype="TBox"><rect x="0" y="560" width="120" height="80" style="fill: rgb(179,179,179);"></rect></g><g objname="name" objtype="TBox"><rect x="120" y="560" width="120" height="80" style="fill: rgb(181,181,181);"></rect></g><g objname="name" objtype="TBox"><rect x="240" y="560" width="120" height="80" style="fill: rgb(184,184,184);"></rect></g><g objname="name" objtype="TBox"><rect x="360" y="560" width="120" height="80" style="fill: rgb(186,186,186);"></rect></g><g objname="name" objtype="TBox"><rect x="480" y="560" width="120" height="80" style="fill: rgb(188,188,188);"></rect></g><g objname="name" objtype="TBox"><rect x="600" y="560" width="120" height="80" style="fill: rgb(191,191,191);"></rect></g><g objname="name" objtype="TBox"><rect x="720" y="560" width="120" height="80" style="fill: rgb(193,193,193);"></rect></g><g objname="name" objtype="TBox"><rect x="840" y="560" width="120" height="80" style="fill: rgb(196,196,196);"></rect></g><g objname="name" objtype="TBox"><rect x="960" y="560" width="120" height="80" style="fill: rgb(198,198,198);"></rect></g><g objname="name" objtype="TBox"><rect x="1080" y="560" width="120" height="80" style="fill: rgb(201,201,201);"></rect></g><g objname="name" objtype="TBox"><rect x="0" y="640" width="120" height="80" style="fill: rgb(204,204,204);"></rect></g><g objname="name" objtype="TBox"><rect x="120" y="640" width="120" height="80" style="fill: rgb(206,206,206);"></rect></g><g objname="name" objtype="TBox"><rect x="240" y="640" width="120" height="80" style="fill: rgb(209,209,209);"></rect></g><g objname="name" objtype="TBox"><rect x="360" y="640" width="120" height="80" style="fill: rgb(211,211,211);"></rect></g><g objname="name" objtype="TBox"><rect x="480" y="640" width="120" height="80" style="fill: rgb(214,214,214);"></rect></g><g objname="name" objtype="TBox"><rect x="600" y="640" width="120" height="80" style="fill: rgb(216,216,216);"></rect></g><g objname="name" objtype="TBox"><rect x="720" y="640" width="120" height="80" style="fill: rgb(219,219,219);"></rect></g><g objname="name" objtype="TBox"><rect x="840" y="640" width="120" height="80" style="fill: rgb(221,221,221);"></rect></g><g objname="name" objtype="TBox"><rect x="960" y="640" width="120" height="80" style="fill: rgb(224,224,224);"></rect></g><g objname="name" objtype="TBox"><rect x="1080" y="640" width="120" height="80" style="fill: rgb(226,226,226);"></rect></g><g objname="name" objtype="TBox"><rect x="0" y="720" width="120" height="80" style="fill: rgb(230,230,230);"></rect></g><g objname="name" objtype="TBox"><rect x="120" y="720" width="120" height="80" style="fill: rgb(232,232,232);"></rect></g><g objname="name" objtype="TBox"><rect x="240" y="720" width="120" height="80" style="fill: rgb(234,234,234);"></rect></g><g objname="name" objtype="TBox"><rect x="360" y="720" width="120" height="80" style="fill: rgb(237,237,237);"></rect></g><g objname="name" objtype="TBox"><rect x="480" y="720" width="120" height="80" style="fill: rgb(239,239,239);"></rect></g><g objname="name" objtype="TBox"><rect x="600" y="720" width="120" height="80" style="fill: rgb(242,242,242);"></rect></g><g objname="name" objtype="TBox"><rect x="720" y="720" width="120" height="80" style="fill: rgb(244,244,244);"></rect></g><g objname="name" objtype="TBox"><rect x="840" y="720" width="120" height="80" style="fill: rgb(247,247,247);"></rect></g><g objname="name" objtype="TBox"><rect x="960" y="720" width="120" height="80" style="fill: rgb(249,249,249);"></rect></g><g objname="name" objtype="TBox"><rect x="1080" y="720" width="120" height="80" style="fill: rgb(252,252,252);"></rect></g><g pad="p" transform="translate(360,240)"><rect x="0" y="0" width="480" height="320" style="fill: rgb(232,232,232);"></rect><g><g objname="name" objtype="TText" font-family="Arial" font-size="29" space="preserve" font-weight="bold"><text fill="black" text-anchor="middle" dy=".4em" transform="translate(240,160)">GUI Background Color</text></g></g></g></g></svg>