<svg xmlns="http://www.w3.org/2000/svg" viewBox="0 0 1200 800" preserveAspectRatio="none" width="1200" height="800">
 <path d="M0,0H1200V800H0Z" style="fill: white;"></path>
 <g>
  <g>
   <path d="M0,0h120v80h-120z" style="fill: black;"></path>
  </g>
  <g>
   <path d="M120,0h120v80h-120z" style="fill: #020202;"></path>
  </g>
  <g>
   <path d="M240,0h120v80h-120z" style="fill: #050505;"></path>
  </g>
  <g>
   <path d="M360,0h120v80h-120z" style="fill: #070707;"></path>
  </g>
  <g>
   <path d="M480,0h120v80h-120z" style="fill: #0a0a0a;"></path>
  </g>
  <g>
   <path d="M600,0h120v80h-120z" style="fill: #0c0c0c;"></path>
  </g>
  <g>
   <path d="M720,0h120v80h-120z" style="fill: #0f0f0f;"></path>
  </g>
  <g>
   <path d="M840,0h120v80h-120z" style="fill: #111111;"></path>
  </g>
  <g>
   <path d="M960,0h120v80h-120z" style="fill: #141414;"></path>
  </g>
  <g>
   <path d="M1080,0h120v80h-120z" style="fill: #161616;"></path>
  </g>
  <g>
   <path d="M0,80h120v80h-120z" style="fill: #191919;"></path>
  </g>
  <g>
   <path d="M120,80h120v80h-120z" style="fill: #1c1c1c;"></path>
  </g>
  <g>
   <path d="M240,80h120v80h-120z" style="fill: #1e1e1e;"></path>
  </g>
  <g>
   <path d="M360,80h120v80h-120z" style="fill: #212121;"></path>
  </g>
  <g>
   <path d="M480,80h120v80h-120z" style="fill: #232323;"></path>
  </g>
  <g>
   <path d="M600,80h120v80h-120z" style="fill: #262626;"></path>
  </g>
  <g>
   <path d="M720,80h120v80h-120z" style="fill: #282828;"></path>
  </g>
  <g>
   <path d="M840,80h120v80h-120z" style="fill: #2b2b2b;"></path>
  </g>
  <g>
   <path d="M960,80h120v80h-120z" style="fill: #2d2d2d;"></path>
  </g>
  <g>
   <path d="M1080,80h120v80h-120z" style="fill: #303030;"></path>
  </g>
  <g>
   <path d="M0,160h120v80h-120z" style="fill: #333333;"></path>
  </g>
  <g>
   <path d="M120,160h120v80h-120z" style="fill: #353535;"></path>
  </g>
  <g>
   <path d="M240,160h120v80h-120z" style="fill: #383838;"></path>
  </g>
  <g>
   <path d="M360,160h120v80h-120z" style="fill: #3a3a3a;"></path>
  </g>
  <g>
   <path d="M480,160h120v80h-120z" style="fill: #3d3d3d;"></path>
  </g>
  <g>
   <path d="M600,160h120v80h-120z" style="fill: #3f3f3f;"></path>
  </g>
  <g>
   <path d="M720,160h120v80h-120z" style="fill: #424242;"></path>
  </g>
  <g>
   <path d="M840,160h120v80h-120z" style="fill: #444444;"></path>
  </g>
  <g>
   <path d="M960,160h120v80h-120z" style="fill: #474747;"></path>
  </g>
  <g>
   <path d="M1080,160h120v80h-120z" style="fill: #494949;"></path>
  </g>
  <g>
   <path d="M0,240h120v80h-120z" style="fill: #4d4d4d;"></path>
  </g>
  <g>
   <path d="M120,240h120v80h-120z" style="fill: #4f4f4f;"></path>
  </g>
  <g>
   <path d="M240,240h120v80h-120z" style="fill: #515151;"></path>
  </g>
  <g>
   <path d="M360,240h120v80h-120z" style="fill: #545454;"></path>
  </g>
  <g>
   <path d="M480,240h120v80h-120z" style="fill: #565656;"></path>
  </g>
  <g>
   <path d="M600,240h120v80h-120z" style="fill: #595959;"></path>
  </g>
  <g>
   <path d="M720,240h120v80h-120z" style="fill: #5c5c5c;"></path>
  </g>
  <g>
   <path d="M840,240h120v80h-120z" style="fill: #5e5e5e;"></path>
  </g>
  <g>
   <path d="M960,240h120v80h-120z" style="fill: #606060;"></path>
  </g>
  <g>
   <path d="M1080,240h120v80h-120z" style="fill: #636363;"></path>
  </g>
  <g>
   <path d="M0,320h120v80h-120z" style="fill: #666666;"></path>
  </g>
  <g>
   <path d="M120,320h120v80h-120z" style="fill: #686868;"></path>
  </g>
  <g>
   <path d="M240,320h120v80h-120z" style="fill: #6b6b6b;"></path>
  </g>
  <g>
   <path d="M360,320h120v80h-120z" style="fill: #6d6d6d;"></path>
  </g>
  <g>
   <path d="M480,320h120v80h-120z" style="fill: #707070;"></path>
  </g>
  <g>
   <path d="M600,320h120v80h-120z" style="fill: #727272;"></path>
  </g>
  <g>
   <path d="M720,320h120v80h-120z" style="fill: #757575;"></path>
  </g>
  <g>
   <path d="M840,320h120v80h-120z" style="fill: #777777;"></path>
  </g>
  <g>
   <path d="M960,320h120v80h-120z" style="fill: #7a7a7a;"></path>
  </g>
  <g>
   <path d="M1080,320h120v80h-120z" style="fill: #7c7c7c;"></path>
  </g>
  <g>
   <path d="M0,400h120v80h-120z" style="fill: #808080;"></path>
  </g>
  <g>
   <path d="M120,400h120v80h-120z" style="fill: #828282;"></path>
  </g>
  <g>
   <path d="M240,400h120v80h-120z" style="fill: #848484;"></path>
  </g>
  <g>
   <path d="M360,400h120v80h-120z" style="fill: #878787;"></path>
  </g>
  <g>
   <path d="M480,400h120v80h-120z" style="fill: #898989;"></path>
  </g>
  <g>
   <path d="M600,400h120v80h-120z" style="fill: #8c8c8c;"></path>
  </g>
  <g>
   <path d="M720,400h120v80h-120z" style="fill: #8e8e8e;"></path>
  </g>
  <g>
   <path d="M840,400h120v80h-120z" style="fill: #919191;"></path>
  </g>
  <g>
   <path d="M960,400h120v80h-120z" style="fill: #939393;"></path>
  </g>
  <g>
   <path d="M1080,400h120v80h-120z" style="fill: #969696;"></path>
  </g>
  <g>
   <path d="M0,480h120v80h-120z" style="fill: #999999;"></path>
  </g>
  <g>
   <path d="M120,480h120v80h-120z" style="fill: #9b9b9b;"></path>
  </g>
  <g>
   <path d="M240,480h120v80h-120z" style="fill: #9e9e9e;"></path>
  </g>
  <g>
   <path d="M360,480h120v80h-120z" style="fill: #a0a0a0;"></path>
  </g>
  <g>
   <path d="M480,480h120v80h-120z" style="fill: #a3a3a3;"></path>
  </g>
  <g>
   <path d="M600,480h120v80h-120z" style="fill: #a5a5a5;"></path>
  </g>
  <g>
   <path d="M720,480h120v80h-120z" style="fill: #a8a8a8;"></path>
  </g>
  <g>
   <path d="M840,480h120v80h-120z" style="fill: #aaaaaa;"></path>
  </g>
  <g>
   <path d="M960,480h120v80h-120z" style="fill: #adadad;"></path>
  </g>
  <g>
   <path d="M1080,480h120v80h-120z" style="fill: #afafaf;"></path>
  </g>
  <g>
   <path d="M0,560h120v80h-120z" style="fill: #b3b3b3;"></path>
  </g>
  <g>
   <path d="M120,560h120v80h-120z" style="fill: #b5b5b5;"></path>
  </g>
  <g>
   <path d="M240,560h120v80h-120z" style="fill: #b8b8b8;"></path>
  </g>
  <g>
   <path d="M360,560h120v80h-120z" style="fill: #bababa;"></path>
  </g>
  <g>
   <path d="M480,560h120v80h-120z" style="fill: #bcbcbc;"></path>
  </g>
  <g>
   <path d="M600,560h120v80h-120z" style="fill: #bfbfbf;"></path>
  </g>
  <g>
   <path d="M720,560h120v80h-120z" style="fill: #c1c1c1;"></path>
  </g>
  <g>
   <path d="M840,560h120v80h-120z" style="fill: #c4c4c4;"></path>
  </g>
  <g>
   <path d="M960,560h120v80h-120z" style="fill: #c6c6c6;"></path>
  </g>
  <g>
   <path d="M1080,560h120v80h-120z" style="fill: #c9c9c9;"></path>
  </g>
  <g>
   <path d="M0,640h120v80h-120z" style="fill: #cccccc;"></path>
  </g>
  <g>
   <path d="M120,640h120v80h-120z" style="fill: #cecece;"></path>
  </g>
  <g>
   <path d="M240,640h120v80h-120z" style="fill: #d1d1d1;"></path>
  </g>
  <g>
   <path d="M360,640h120v80h-120z" style="fill: #d3d3d3;"></path>
  </g>
  <g>
   <path d="M480,640h120v80h-120z" style="fill: #d6d6d6;"></path>
  </g>
  <g>
   <path d="M600,640h120v80h-120z" style="fill: #d8d8d8;"></path>
  </g>
  <g>
   <path d="M720,640h120v80h-120z" style="fill: #dbdbdb;"></path>
  </g>
  <g>
   <path d="M840,640h120v80h-120z" style="fill: #dddddd;"></path>
  </g>
  <g>
   <path d="M960,640h120v80h-120z" style="fill: #e0e0e0;"></path>
  </g>
  <g>
   <path d="M1080,640h120v80h-120z" style="fill: #e2e2e2;"></path>
  </g>
  <g>
   <path d="M0,720h120v80h-120z" style="fill: #e6e6e6;"></path>
  </g>
  <g>
   <path d="M120,720h120v80h-120z" style="fill: #e8e8e8;"></path>
  </g>
  <g>
   <path d="M240,720h120v80h-120z" style="fill: #eaeaea;"></path>
  </g>
  <g>
   <path d="M360,720h120v80h-120z" style="fill: #ededed;"></path>
  </g>
  <g>
   <path d="M480,720h120v80h-120z" style="fill: #efefef;"></path>
  </g>
  <g>
   <path d="M600,720h120v80h-120z" style="fill: #f2f2f2;"></path>
  </g>
  <g>
   <path d="M720,720h120v80h-120z" style="fill: #f4f4f4;"></path>
  </g>
  <g>
   <path d="M840,720h120v80h-120z" style="fill: #f7f7f7;"></path>
  </g>
  <g>
   <path d="M960,720h120v80h-120z" style="fill: #f9f9f9;"></path>
  </g>
  <g>
   <path d="M1080,720h120v80h-120z" style="fill: #fcfcfc;"></path>
  </g>
  <svg viewBox="0 0 480 320" preserveAspectRatio="none" x="360" y="240" width="480" height="320">
   <path d="M0,0H480V320H0Z" style="fill: #e8e8e8;"></path>
   <g>
    <g font-family="Arial" font-size="29" space="preserve" font-weight="bold">
     <text fill="black" text-anchor="middle" dy=".4em" transform="translate(240,160)">
      GUI Background Color
     </text>
    </g>
   </g>
  </svg>
 </g>
</svg>