<svg xmlns="http://www.w3.org/2000/svg" viewBox="0 0 596 572" preserveAspectRatio="none" width="596" height="572">
 <path d="M0,0H596V572H0Z" style="fill: white;"></path>
 <g>
  <g transform="translate(60,57)">
   <path d="M0,0H457V458H0Z" style="fill: white; stroke: black; stroke-width: 1;"></path>
   <svg x="0" y="0" overflow="hidden" width="457" height="458" viewBox="0 0 457 458">
    <g>
     <path fill="#332e8d" d="M222,371h4v37h-4zm4,-9h5v50h-5zm5,-5h4v60h-4zm4,0h5v64h-5zm5,0h5v64h-5zm5,0h4v64h-4zm4,5h5v59h-5zm5,4h5v55h-5zm5,5h4v46h-4zm4,9h5v32h-5z"></path>
     <path fill="#2f3295" d="M208,371h4v32h-4zm4,-14h5v55h-5zm5,-9h5v69h-5zm5,-4h4v27h-4zm0,64h4v13h-4zm4,-64h5v18h-5zm0,68h5v14h-5zm5,-73h4v18h-4zm0,78h4v14h-4zm4,-78h5v18h-5zm0,82h5v10h-5zm5,-82h5v18h-5zm0,82h5v10h-5zm5,-82h4v18h-4zm0,82h4v10h-4zm4,-77h5v18h-5zm0,77h5v10h-5zm5,-73h5v18h-5zm0,73h5v10h-5zm5,-68h4v18h-4zm0,64h4v14h-4zm4,-60h5v23h-5zm0,55h5v14h-5zm5,-50h4v64h-4zm4,9h5v46h-5zm5,18h5v19h-5z"></path>
     <path fill="#2d369a" d="M198,362h5v41h-5zm5,-14h5v69h-5zm5,-9h4v32h-4zm0,64h4v18h-4zm4,-69h5v23h-5zm0,78h5v14h-5zm5,-82h5v18h-5zm0,87h5v14h-5zm5,-92h4v19h-4zm0,96h4v10h-4zm4,-96h5v19h-5zm0,101h5v9h-5zm5,-105h4v18h-4zm0,110h4v4h-4zm4,-110h5v18h-5zm0,110h5v9h-5zm5,-110h5v18h-5zm0,110h5v9h-5zm5,-106h4v14h-4zm0,106h4v9h-4zm4,-106h5v19h-5zm0,106h5v9h-5zm5,-101h5v18h-5zm0,101h5v9h-5zm5,-97h4v19h-4zm0,97h4v4h-4zm4,-92h5v18h-5zm0,87h5v9h-5zm5,-78h4v14h-4zm0,78h4v9h-4zm4,-73h5v18h-5zm0,64h5v14h-5zm5,-55h5v27h-5zm0,46h5v18h-5zm5,-37h4v50h-4zm4,14h5v27h-5z"></path>
     <path fill="#293aa3" d="M189,357h5v51h-5zm5,-13h4v73h-4zm4,-10h5v28h-5zm0,69h5v18h-5zm5,-78h5v23h-5zm0,92h5v9h-5zm5,-96h4v18h-4zm0,100h4v10h-4zm4,-105h5v18h-5zm0,110h5v9h-5zm5,-115h5v19h-5zm0,120h5v4h-5zm5,-120h4v14h-4zm0,120h4v9h-4zm4,-124h5v18h-5zm0,128h5v5h-5zm5,-128h4v14h-4zm0,128h4v5h-4zm4,-128h5v14h-5zm0,133h5v4h-5zm5,-133h5v14h-5zm0,133h5v4h-5zm5,-129h4v14h-4zm0,129h4v4h-4zm4,-129h5v14h-5zm0,129h5v4h-5zm5,-124h5v14h-5zm0,124h5v4h-5zm5,-119h4v13h-4zm0,114h4v5h-4zm4,-110h5v14h-5zm0,110h5v5h-5zm5,-105h4v18h-4zm0,105h4v5h-4zm4,-96h5v14h-5zm0,92h5v4h-5zm5,-87h5v18h-5zm0,82h5v9h-5zm5,-73h4v18h-4zm0,68h4v10h-4zm4,-59h5v23h-5zm0,50h5v19h-5zm5,-46h4v60h-4zm4,5h5v50h-5zm5,9h5v37h-5zm5,9h4v23h-4z"></path>
     <path fill="#263ea8" d="M180,357h5v51h-5zm5,-18h4v78h-4zm4,-9h5v27h-5zm0,78h5v18h-5zm5,-87h4v23h-4zm0,96h4v14h-4zm4,-106h5v23h-5zm0,110h5v10h-5zm5,-114h5v18h-5zm0,119h5v9h-5zm5,-124h4v19h-4zm0,129h4v9h-4zm4,-129h5v14h-5zm0,133h5v5h-5zm5,-137h5v13h-5zm0,137h5v5h-5zm5,-137h4v13h-4zm0,142h4v4h-4zm4,-147h5v14h-5zm0,147h5v4h-5zm5,-147h4v14h-4zm0,147h4v4h-4zm4,-147h5v14h-5zm5,5h5v9h-5zm5,0h4v13h-4zm4,4h5v9h-5zm5,0h5v14h-5zm5,5h4v14h-4zm0,133h4v4h-4zm4,-129h5v14h-5zm0,129h5v4h-5zm5,-119h4v9h-4zm0,119h4v4h-4zm4,-115h5v14h-5zm0,110h5v9h-5zm5,-105h5v14h-5zm0,105h5v5h-5zm5,-96h4v14h-4zm0,92h4v9h-4zm4,-87h5v18h-5zm0,87h5v4h-5zm5,-83h4v18h-4zm0,78h4v9h-4zm4,-73h5v18h-5zm0,68h5v10h-5zm5,-64h5v23h-5zm0,60h5v14h-5zm5,-51h4v23h-4zm0,46h4v14h-4zm4,-41h5v55h-5zm5,5h5v50h-5zm5,0h4v50h-4zm4,4h5v46h-5zm5,5h4v41h-4zm4,4h5v37h-5zm5,0h5v37h-5zm5,5h4v37h-4zm4,4h5v33h-5zm5,5h4v23h-4zm4,9h5v14h-5z"></path>
     <path fill="#2342b1" d="M171,362h4v46h-4zm4,-23h5v82h-5zm5,-14h5v32h-5zm0,83h5v18h-5zm5,-92h4v23h-4zm0,101h4v14h-4zm4,-110h5v23h-5zm0,119h5v9h-5zm5,-124h4v19h-4zm0,129h4v4h-4zm4,-133h5v13h-5zm0,133h5v9h-5zm5,-138h5v14h-5zm0,142h5v5h-5zm5,-146h4v13h-4zm0,151h4v4h-4zm4,-156h5v18h-5zm0,156h5v4h-5zm5,-156h5v14h-5zm0,156h5v4h-5zm5,-156h4v14h-4zm0,160h4v5h-4zm4,-165h5v14h-5zm0,165h5v5h-5zm5,-165h4v14h-4zm0,165h4v5h-4zm4,-160h5v9h-5zm0,160h5v5h-5zm5,-160h5v14h-5zm0,160h5v5h-5zm5,-160h4v14h-4zm0,160h4v5h-4zm4,-155h5v13h-5zm0,155h5v5h-5zm5,-151h5v9h-5zm0,151h5v5h-5zm5,-146h4v9h-4zm0,146h4v5h-4zm4,-142h5v9h-5zm0,142h5v5h-5zm5,-137h4v14h-4zm0,137h4v5h-4zm4,-133h5v14h-5zm5,10h5v9h-5zm0,119h5v4h-5zm5,-115h4v14h-4zm0,115h4v4h-4zm4,-110h5v14h-5zm0,105h5v9h-5zm5,-101h4v14h-4zm0,101h4v5h-4zm4,-96h5v14h-5zm0,92h5v9h-5zm5,-87h5v13h-5zm0,87h5v4h-5zm5,-83h4v18h-4zm0,78h4v9h-4zm4,-73h5v18h-5zm0,73h5v9h-5zm5,-69h5v19h-5zm0,69h5v9h-5zm5,-64h4v14h-4zm0,64h4v9h-4zm4,-60h5v14h-5zm0,60h5v9h-5zm5,-60h4v19h-4zm0,60h4v9h-4zm4,-55h5v18h-5zm0,55h5v14h-5zm5,-50h5v13h-5zm0,50h5v14h-5zm5,-46h4v14h-4zm0,51h4v9h-4zm4,-51h5v18h-5zm0,51h5v9h-5zm5,-46h4v18h-4zm0,41h4v14h-4zm4,-37h5v23h-5zm0,37h5v14h-5zm5,-32h5v46h-5zm5,4h4v42h-4zm4,10h5v27h-5zm5,9h5v18h-5z"></path>
     <path fill="#2045b6" d="M162,371h4v37h-4zm4,-23h5v73h-5zm5,-18h4v32h-4zm0,78h4v23h-4zm4,-92h5v23h-5zm0,105h5v14h-5zm5,-114h5v18h-5zm0,119h5v9h-5zm5,-128h4v18h-4zm0,133h4v9h-4zm4,-142h5v18h-5zm0,146h5v5h-5zm5,-151h4v18h-4zm0,151h4v9h-4zm4,-156h5v19h-5zm0,161h5v4h-5zm5,-165h5v18h-5zm0,165h5v4h-5zm5,-165h4v14h-4zm0,169h4v5h-4zm4,-174h5v14h-5zm0,174h5v5h-5zm5,-174h5v14h-5zm0,174h5v5h-5zm5,-174h4v14h-4zm4,0h5v9h-5zm5,0h4v9h-4zm4,0h5v14h-5zm0,179h5v4h-5zm5,-179h5v14h-5zm0,179h5v4h-5zm5,-174h4v9h-4zm0,174h4v4h-4zm4,-174h5v14h-5zm0,174h5v4h-5zm5,-170h5v14h-5zm0,170h5v4h-5zm5,-165h4v14h-4zm4,5h5v13h-5zm5,4h4v14h-4zm4,9h5v9h-5zm0,142h5v5h-5zm5,-137h5v14h-5zm0,137h5v5h-5zm5,-133h4v14h-4zm0,133h4v5h-4zm4,-128h5v14h-5zm5,5h4v13h-4zm0,119h4v4h-4zm4,-115h5v14h-5zm0,115h5v4h-5zm5,-110h5v14h-5zm0,105h5v9h-5zm5,-101h4v14h-4zm0,101h4v9h-4zm4,-96h5v14h-5zm0,96h5v9h-5zm5,-91h5v13h-5zm0,91h5v9h-5zm5,-87h4v14h-4zm0,87h4v9h-4zm4,-82h5v13h-5zm0,82h5v9h-5zm5,-78h4v9h-4zm0,78h4v9h-4zm4,-78h5v14h-5zm0,83h5v4h-5zm5,-78h5v14h-5zm0,78h5v4h-5zm5,-74h4v14h-4zm0,74h4v4h-4zm4,-69h5v9h-5zm0,69h5v4h-5zm5,-64h4v9h-4zm0,64h4v4h-4zm4,-60h5v9h-5zm0,60h5v4h-5zm5,-60h5v14h-5zm0,60h5v4h-5zm5,-51h4v9h-4zm0,51h4v4h-4zm4,-46h5v14h-5zm0,41h5v9h-5zm5,-37h5v19h-5zm0,37h5v9h-5zm5,-32h4v41h-4zm4,9h5v28h-5zm5,14h4v9h-4z"></path>
     <path fill="#1d4abf" d="M152,380h5v41h-5zm5,-27h5v78h-5zm5,-19h4v37h-4zm0,74h4v27h-4zm4,-87h5v27h-5zm0,100h5v19h-5zm5,-114h4v23h-4zm0,124h4v9h-4zm4,-138h5v23h-5zm0,142h5v9h-5zm5,-151h5v23h-5zm0,151h5v9h-5zm5,-156h4v19h-4zm0,161h4v4h-4zm4,-165h5v14h-5zm0,165h5v4h-5zm5,-170h4v14h-4zm0,174h4v5h-4zm4,-178h5v13h-5zm0,178h5v5h-5zm5,-183h5v14h-5zm0,183h5v5h-5zm5,-183h4v14h-4zm4,-5h5v14h-5zm0,193h5v4h-5zm5,-193h5v14h-5zm0,193h5v4h-5zm5,-193h4v14h-4zm0,193h4v4h-4zm4,-193h5v14h-5zm0,193h5v4h-5zm5,-193h4v14h-4zm0,193h4v4h-4zm4,-193h5v14h-5zm5,5h5v9h-5zm5,0h4v14h-4zm4,5h5v9h-5zm5,4h5v9h-5zm5,5h4v9h-4zm0,174h4v4h-4zm4,-170h5v10h-5zm0,170h5v4h-5zm5,-165h4v9h-4zm0,165h4v4h-4zm4,-160h5v13h-5zm0,160h5v4h-5zm5,-151h5v9h-5zm0,151h5v4h-5zm5,-147h4v9h-4zm4,5h5v9h-5zm0,137h5v5h-5zm5,-133h4v10h-4zm0,133h4v5h-4zm4,-128h5v9h-5zm0,128h5v5h-5zm5,-123h5v9h-5zm0,123h5v5h-5zm5,-119h4v9h-4zm0,119h4v5h-4zm4,-114h5v9h-5zm0,114h5v5h-5zm5,-110h5v10h-5zm0,110h5v5h-5zm5,-105h4v9h-4zm0,105h4v5h-4zm4,-105h5v14h-5zm0,105h5v5h-5zm5,-100h4v13h-4zm0,100h4v5h-4zm4,-96h5v9h-5zm0,96h5v5h-5zm5,-91h5v9h-5zm0,91h5v5h-5zm5,-87h4v9h-4zm0,87h4v5h-4zm4,-87h5v14h-5zm0,87h5v5h-5zm5,-82h4v14h-4zm0,82h4v5h-4zm4,-78h5v14h-5zm0,78h5v5h-5zm5,-73h5v9h-5zm0,73h5v5h-5zm5,-68h4v13h-4zm0,68h4v5h-4zm4,-64h5v14h-5zm0,64h5v5h-5zm5,-59h5v13h-5zm0,59h5v5h-5zm5,-50h4v9h-4zm0,50h4v5h-4zm4,-46h5v14h-5zm0,42h5v9h-5zm5,-37h4v23h-4zm0,32h4v9h-4zm4,-23h5v32h-5zm5,9h5v19h-5z"></path>
     <path fill="#1a4dc4" d="M134,403h4v23h-4zm4,-14h5v46h-5zm5,-13h5v64h-5zm5,-19h4v83h-4zm4,-13h5v36h-5zm0,77h5v23h-5zm5,-96h5v28h-5zm0,106h5v13h-5zm5,-120h4v23h-4zm0,124h4v9h-4zm4,-137h5v23h-5zm0,142h5v9h-5zm5,-151h4v18h-4zm0,151h4v9h-4zm4,-165h5v18h-5zm0,169h5v5h-5zm5,-174h5v14h-5zm0,174h5v5h-5zm5,-183h4v18h-4zm0,183h4v5h-4zm4,-188h5v19h-5zm0,188h5v5h-5zm5,-188h4v14h-4zm0,193h4v4h-4zm4,-197h5v14h-5zm0,197h5v4h-5zm5,-202h5v14h-5zm0,202h5v4h-5zm5,-202h4v14h-4zm0,202h4v4h-4zm4,-202h5v9h-5zm5,-4h5v13h-5zm5,0h4v13h-4zm4,0h5v13h-5zm5,4h4v9h-4zm4,0h5v9h-5zm5,0h5v14h-5zm5,5h4v9h-4zm4,4h5v10h-5zm5,0h5v14h-5zm5,5h4v14h-4zm4,5h5v13h-5zm5,9h4v9h-4zm4,4h5v10h-5zm5,5h5v14h-5zm5,9h4v9h-4zm0,156h4v4h-4zm4,-151h5v9h-5zm0,151h5v4h-5zm5,-147h4v9h-4zm0,147h4v4h-4zm4,-142h5v9h-5zm0,142h5v4h-5zm5,-142h5v14h-5zm0,142h5v4h-5zm5,-138h4v14h-4zm0,138h4v4h-4zm4,-133h5v14h-5zm5,5h5v13h-5zm0,128h5v4h-5zm5,-124h4v14h-4zm0,124h4v4h-4zm4,-119h5v9h-5zm0,119h5v4h-5zm5,-115h4v10h-4zm0,115h4v4h-4zm4,-110h5v9h-5zm0,110h5v4h-5zm5,-105h5v9h-5zm0,105h5v4h-5zm5,-105h4v13h-4zm0,105h4v4h-4zm4,-101h5v9h-5zm0,101h5v4h-5zm5,-96h4v9h-4zm0,96h4v4h-4zm4,-92h5v9h-5zm0,92h5v4h-5zm5,-87h5v9h-5zm0,87h5v4h-5zm5,-83h4v10h-4zm0,83h4v4h-4zm4,-78h5v9h-5zm0,78h5v4h-5zm5,-73h5v9h-5zm0,73h5v4h-5zm5,-69h4v14h-4zm0,69h4v4h-4zm4,-60h5v9h-5zm0,60h5v4h-5zm5,-55h4v9h-4zm0,50h4v9h-4zm4,-46h5v14h-5zm0,46h5v5h-5zm5,-36h5v13h-5zm0,32h5v9h-5zm5,-23h4v32h-4zm4,9h5v18h-5z"></path>
     <path fill="#1652cd" d="M115,403h5v23h-5zm5,-14h5v51h-5zm5,-9h4v64h-4zm4,-9h5v73h-5zm5,-9h4v41h-4zm0,64h4v23h-4zm4,-73h5v36h-5zm0,82h5v14h-5zm5,-91h5v32h-5zm0,96h5v9h-5zm5,-110h4v27h-4zm0,110h4v13h-4zm4,-124h5v28h-5zm0,128h5v9h-5zm5,-142h5v23h-5zm0,142h5v9h-5zm5,-155h4v22h-4zm0,155h4v9h-4zm4,-165h5v19h-5zm0,170h5v4h-5zm5,-179h4v19h-4zm0,179h4v4h-4zm4,-188h5v14h-5zm0,188h5v4h-5zm5,-197h5v18h-5zm0,197h5v4h-5zm5,-202h4v14h-4zm0,202h4v4h-4zm4,-206h5v13h-5zm0,206h5v4h-5zm5,-211h4v18h-4zm4,0h5v14h-5zm5,-4h5v13h-5zm5,0h4v13h-4zm0,219h4v5h-4zm4,-219h5v13h-5zm0,219h5v5h-5zm5,-219h5v9h-5zm0,219h5v5h-5zm5,-219h4v9h-4zm0,219h4v5h-4zm4,-219h5v9h-5zm0,219h5v5h-5zm5,-219h4v13h-4zm0,219h4v5h-4zm4,-219h5v13h-5zm0,219h5v5h-5zm5,-215h5v9h-5zm0,215h5v5h-5zm5,-215h4v14h-4zm0,215h4v5h-4zm4,-210h5v13h-5zm0,210h5v5h-5zm5,-206h5v9h-5zm0,206h5v5h-5zm5,-201h4v9h-4zm0,201h4v5h-4zm4,-197h5v10h-5zm0,197h5v5h-5zm5,-187h4v9h-4zm0,187h4v5h-4zm4,-183h5v9h-5zm0,183h5v5h-5zm5,-178h5v9h-5zm0,178h5v5h-5zm5,-174h4v14h-4zm0,174h4v5h-4zm4,-169h5v14h-5zm5,5h4v13h-4zm4,4h5v14h-5zm5,5h5v9h-5zm5,4h4v9h-4zm4,5h5v9h-5zm0,142h5v4h-5zm5,-138h5v10h-5zm5,5h4v9h-4zm4,5h5v9h-5zm5,4h4v9h-4zm4,5h5v9h-5zm5,4h5v10h-5zm5,0h4v10h-4zm4,5h5v9h-5zm5,5h4v9h-4zm4,4h5v9h-5zm0,105h5v5h-5zm5,-100h5v9h-5zm0,100h5v5h-5zm5,-96h4v9h-4zm0,96h4v5h-4zm4,-91h5v9h-5zm0,91h5v5h-5zm5,-87h5v10h-5zm5,5h4v9h-4zm4,9h5v9h-5zm5,5h4v9h-4zm4,4h5v9h-5zm0,60h5v4h-5zm5,-51h5v10h-5zm0,51h5v4h-5zm5,-46h4v14h-4zm0,46h4v4h-4zm4,-37h5v14h-5zm0,32h5v9h-5zm5,-27h4v36h-4zm4,9h5v23h-5zm5,14h5v4h-5z"></path>
     <path fill="#1357d5" d="M0,426h5v23h-5zm5,0h4v23h-4zm4,5h5v18h-5zm5,4h4v14h-4zm4,5h5v4h-5zm47,-5h4v14h-4zm4,-4h5v18h-5zm5,-5h4v27h-4zm4,0h5v27h-5zm5,-5h5v32h-5zm5,-4h4v36h-4zm4,-9h5v45h-5zm5,-10h5v55h-5zm5,-13h4v68h-4zm4,-9h5v82h-5zm5,-10h4v92h-4zm4,-4h5v41h-5zm0,64h5v32h-5zm5,-69h5v32h-5zm0,83h5v18h-5zm5,-92h4v32h-4zm0,96h4v14h-4zm4,-100h5v27h-5zm0,100h5v14h-5zm5,-105h4v23h-4zm0,110h4v9h-4zm4,-119h5v23h-5zm0,119h5v9h-5zm5,-128h5v23h-5zm0,128h5v9h-5zm5,-142h4v23h-4zm0,146h4v5h-4zm4,-160h5v23h-5zm0,160h5v5h-5zm5,-169h5v18h-5zm0,169h5v5h-5zm5,-183h4v19h-4zm0,183h4v5h-4zm4,-192h5v18h-5zm0,192h5v5h-5zm5,-201h4v18h-4zm0,201h4v5h-4zm4,-210h5v18h-5zm0,210h5v5h-5zm5,-215h5v14h-5zm0,215h5v5h-5zm5,-219h4v13h-4zm0,219h4v5h-4zm4,-224h5v14h-5zm0,224h5v5h-5zm5,-229h4v14h-4zm0,229h4v5h-4zm4,-229h5v14h-5zm0,229h5v5h-5zm5,-229h5v10h-5zm0,229h5v5h-5zm5,-233h4v14h-4zm4,0h5v14h-5zm5,0h5v14h-5zm5,0h4v14h-4zm4,0h5v14h-5zm5,4h4v10h-4zm4,0h5v10h-5zm5,0h5v14h-5zm5,5h4v9h-4zm4,5h5v9h-5zm5,4h5v9h-5zm5,5h4v9h-4zm4,4h5v9h-5zm5,5h4v14h-4zm4,9h5v9h-5zm5,5h5v9h-5zm5,4h4v9h-4zm4,5h5v9h-5zm0,178h5v5h-5zm5,-174h4v10h-4zm0,174h4v5h-4zm4,-169h5v9h-5zm0,169h5v5h-5zm5,-164h5v9h-5zm0,164h5v5h-5zm5,-160h4v9h-4zm0,160h4v5h-4zm4,-155h5v9h-5zm0,155h5v5h-5zm5,-151h5v9h-5zm0,151h5v5h-5zm5,-146h4v9h-4zm0,146h4v5h-4zm4,-142h5v10h-5zm0,142h5v5h-5zm5,-137h4v9h-4zm0,137h4v5h-4zm4,-132h5v9h-5zm0,132h5v5h-5zm5,-128h5v9h-5zm0,128h5v5h-5zm5,-123h4v4h-4zm0,123h4v5h-4zm4,-123h5v9h-5zm0,123h5v5h-5zm5,-119h4v10h-4zm0,119h4v5h-4zm4,-114h5v9h-5zm5,5h5v9h-5zm5,4h4v9h-4zm4,5h5v9h-5zm5,9h5v4h-5zm0,91h5v5h-5zm5,-87h4v5h-4zm0,87h4v5h-4zm4,-82h5v9h-5zm0,82h5v5h-5zm5,-77h4v9h-4zm0,77h4v5h-4zm4,-73h5v9h-5zm0,73h5v5h-5zm5,-64h5v9h-5zm0,64h5v5h-5zm5,-59h4v9h-4zm0,59h4v5h-4zm4,-50h5v9h-5zm0,50h5v5h-5zm5,-45h4v9h-4zm0,45h4v5h-4zm4,-36h5v9h-5zm0,32h5v9h-5zm5,-28h5v19h-5zm0,23h5v14h-5zm5,-18h4v32h-4zm4,9h5v23h-5zm5,5h5v18h-5zm5,4h4v14h-4zm4,0h5v14h-5zm5,5h4v9h-4z"></path>
     <path fill="#105adb" d="M0,366h5v60h-5zm0,83h5v9h-5zM5,366h4v60h-4zm0,83h4v9h-4zM9,371h5v60h-5zm0,78h5v9h-5zm5,-73h4v59h-4zm0,73h4v9h-4zm4,-73h5v64h-5zm0,68h5v14h-5zm5,-64h5v78h-5zm5,0h4v78h-4zm4,5h5v73h-5zm5,0h5v73h-5zm5,0h4v73h-4zm4,0h5v73h-5zm5,0h4v73h-4zm4,0h5v73h-5zm5,-5h5v78h-5zm5,0h4v55h-4zm0,69h4v9h-4zm4,-69h5v51h-5zm0,69h5v9h-5zm5,-69h4v46h-4zm0,73h4v5h-4zm4,-77h5v50h-5zm0,77h5v5h-5zm5,-77h5v45h-5zm0,77h5v5h-5zm5,-82h4v46h-4zm0,82h4v5h-4zm4,-91h5v46h-5zm0,91h5v5h-5zm5,-96h5v41h-5zm0,96h5v5h-5zm5,-100h4v32h-4zm0,100h4v5h-4zm4,-109h5v32h-5zm5,-5h4v27h-4zm4,-5h5v28h-5zm5,-4h5v27h-5zm5,-5h4v23h-4zm4,-4h5v23h-5zm5,-5h4v23h-4zm4,-9h5v23h-5zm5,-9h5v23h-5zm5,-14h4v23h-4zm4,-9h5v18h-5zm5,-14h5v23h-5zm5,-9h4v18h-4zm4,-9h5v18h-5zm5,-9h4v18h-4zm4,-5h5v14h-5zm5,-5h5v14h-5zm5,-4h4v14h-4zm4,-5h5v14h-5zm5,0h4v9h-4zm4,-4h5v13h-5zm5,0h5v13h-5zm5,0h4v9h-4zm4,0h5v9h-5zm5,0h5v9h-5zm5,0h4v9h-4zm4,0h5v9h-5zm5,0h4v13h-4zm4,4h5v9h-5zm5,0h5v9h-5zm5,5h4v9h-4zm4,4h5v10h-5zm5,5h5v9h-5zm5,5h4v9h-4zm4,4h5v9h-5zm5,5h4v9h-4zm4,9h5v9h-5zm5,4h5v10h-5zm5,5h4v9h-4zm4,5h5v9h-5zm5,4h4v9h-4zm4,5h5v9h-5zm5,4h5v10h-5zm5,5h4v9h-4zm4,5h5v9h-5zm5,4h5v9h-5zm5,5h4v9h-4zm4,4h5v9h-5zm5,5h4v9h-4zm4,4h5v10h-5zm5,5h5v9h-5zm5,5h4v9h-4zm4,4h5v5h-5zm5,5h4v4h-4zm4,4h5v5h-5zm5,5h5v5h-5zm5,5h4v4h-4zm4,4h5v5h-5zm5,5h5v9h-5zm5,4h4v9h-4zm4,5h5v9h-5zm5,4h4v10h-4zm4,10h5v4h-5zm5,4h5v9h-5zm5,5h4v9h-4zm4,9h5v9h-5zm5,4h4v10h-4zm4,5h5v14h-5zm5,9h5v9h-5zm5,5h4v9h-4zm4,4h5v14h-5zm5,5h5v14h-5zm5,5h4v13h-4zm4,4h5v9h-5zm5,0h4v14h-4zm4,5h5v18h-5z"></path>
     <path fill="#0f5edd" d="M0,330h5v36h-5zm5,0h4v36h-4zm4,4h5v37h-5zm5,5h4v37h-4zm4,5h5v32h-5zm5,0h5v36h-5zm5,4h4v32h-4zm4,0h5v37h-5zm5,5h5v32h-5zm5,0h4v32h-4zm4,0h5v32h-5zm5,0h4v32h-4zm4,0h5v32h-5zm5,-5h5v32h-5zm5,0h4v32h-4zm4,0h5v32h-5zm5,0h4v32h-4zm4,0h5v28h-5zm5,-4h5v32h-5zm5,-5h4v32h-4zm4,-5h5v28h-5zm5,-4h5v27h-5zm5,-5h4v28h-4zm4,-4h5v23h-5zm5,-5h4v23h-4zm4,-5h5v23h-5zm5,-4h5v23h-5zm5,0h4v18h-4zm4,-5h5v19h-5zm5,-4h4v18h-4zm4,-9h5v18h-5zm5,-10h5v19h-5zm5,-13h4v18h-4zm4,-10h5v19h-5zm5,-9h5v14h-5zm5,-9h4v14h-4zm4,-9h5v14h-5zm5,-9h4v14h-4zm4,-5h5v14h-5zm5,-4h5v13h-5zm5,-5h4v14h-4zm4,-4h5v13h-5zm5,0h4v13h-4zm4,-5h5v14h-5zm5,0h5v14h-5zm5,0h4v14h-4zm4,0h5v14h-5zm5,0h5v14h-5zm5,0h4v14h-4zm4,0h5v14h-5zm5,5h4v9h-4zm4,0h5v13h-5zm5,4h5v9h-5zm5,5h4v9h-4zm4,0h5v13h-5zm5,4h5v14h-5zm5,9h4v10h-4zm4,5h5v9h-5zm5,5h4v9h-4zm4,4h5v14h-5zm5,9h5v9h-5zm5,5h4v9h-4zm4,4h5v10h-5zm5,5h4v9h-4zm4,5h5v9h-5zm5,4h5v9h-5zm5,5h4v9h-4zm4,4h5v10h-5zm5,5h5v9h-5zm5,5h4v9h-4zm4,4h5v9h-5zm5,5h4v9h-4zm4,4h5v9h-5zm5,5h5v9h-5zm5,4h4v10h-4zm4,5h5v9h-5zm5,5h4v9h-4zm4,4h5v9h-5zm5,5h5v9h-5zm5,4h4v10h-4zm4,5h5v9h-5zm5,5h5v9h-5zm5,4h4v9h-4zm4,5h5v9h-5zm5,9h4v4h-4zm4,4h5v10h-5zm5,5h5v9h-5zm5,9h4v5h-4zm4,5h5v9h-5zm5,4h4v9h-4zm4,9h5v5h-5zm5,5h5v9h-5zm5,5h4v9h-4zm4,4h5v9h-5zm5,5h5v9h-5zm5,4h4v10h-4zm4,5h5v9h-5zm5,0h4v9h-4zm4,5h5v9h-5z"></path>
     <path fill="#1060dc" d="M0,298h5v32h-5zm5,4h4v28h-4zm4,0h5v32h-5zm5,5h4v32h-4zm4,4h5v33h-5zm5,5h5v28h-5zm5,5h4v27h-4zm4,0h5v27h-5zm5,0h5v32h-5zm5,4h4v28h-4zm4,0h5v28h-5zm5,0h4v28h-4zm4,0h5v28h-5zm5,0h5v23h-5zm5,0h4v23h-4zm4,0h5v23h-5zm5,-4h4v27h-4zm4,0h5v27h-5zm5,-5h5v28h-5zm5,0h4v23h-4zm4,-5h5v23h-5zm5,-4h5v23h-5zm5,-5h4v23h-4zm4,-4h5v23h-5zm5,-5h4v23h-4zm4,0h5v18h-5zm5,-4h5v18h-5zm5,-5h4v23h-4zm4,0h5v18h-5zm5,-9h4v23h-4zm4,-5h5v19h-5zm5,-14h5v23h-5zm5,-9h4v19h-4zm4,-9h5v18h-5zm5,-9h5v18h-5zm5,-9h4v18h-4zm4,-9h5v18h-5zm5,-5h4v14h-4zm4,-4h5v13h-5zm5,-5h5v14h-5zm5,-5h4v14h-4zm4,-4h5v14h-5zm5,0h4v14h-4zm4,0h5v9h-5zm5,0h5v9h-5zm5,-5h4v14h-4zm4,0h5v14h-5zm5,5h5v9h-5zm5,0h4v9h-4zm4,0h5v9h-5zm5,0h4v14h-4zm4,4h5v10h-5zm5,5h5v9h-5zm5,0h4v14h-4zm4,5h5v9h-5zm5,4h5v9h-5zm5,5h4v13h-4zm4,9h5v9h-5zm5,4h4v10h-4zm4,5h5v9h-5zm5,9h5v9h-5zm5,5h4v9h-4zm4,4h5v9h-5zm5,5h4v9h-4zm4,4h5v10h-5zm5,5h5v9h-5zm5,5h4v9h-4zm4,4h5v9h-5zm5,5h5v9h-5zm5,4h4v10h-4zm4,5h5v9h-5zm5,5h4v9h-4zm4,4h5v9h-5zm5,5h5v9h-5zm5,4h4v9h-4zm4,5h5v9h-5zm5,4h4v10h-4zm4,5h5v9h-5zm5,5h5v9h-5zm5,4h4v9h-4zm4,5h5v9h-5zm5,9h5v5h-5zm5,5h4v4h-4zm4,4h5v5h-5zm5,5h4v9h-4zm4,4h5v9h-5zm5,9h5v5h-5zm5,5h4v9h-4zm4,5h5v9h-5zm5,9h4v4h-4zm4,4h5v9h-5zm5,5h5v9h-5zm5,4h4v10h-4zm4,10h5v4h-5zm5,0h5v9h-5zm5,4h4v9h-4zm4,5h5v9h-5zm5,4h4v5h-4zm4,0h5v10h-5z"></path>
     <path fill="#1064dc" d="M0,266h5v32h-5zm5,4h4v32h-4zm4,5h5v27h-5zm5,4h4v28h-4zm4,5h5v27h-5zm5,5h5v27h-5zm5,4h4v28h-4zm4,0h5v28h-5zm5,5h5v23h-5zm5,0h4v27h-4zm4,0h5v27h-5zm5,0h4v27h-4zm4,0h5v27h-5zm5,0h5v27h-5zm5,0h4v27h-4zm4,0h5v27h-5zm5,0h4v23h-4zm4,0h5v23h-5zm5,-5h5v23h-5zm5,0h4v23h-4zm4,-4h5v22h-5zm5,-5h5v23h-5zm5,-5h4v23h-4zm4,0h5v19h-5zm5,-4h4v18h-4zm4,-5h5v23h-5zm5,0h5v19h-5zm5,-4h4v18h-4zm4,0h5v18h-5zm5,-10h4v19h-4zm4,-9h5v23h-5zm5,-9h5v18h-5zm5,-9h4v18h-4zm4,-9h5v18h-5zm5,-9h5v18h-5zm5,-5h4v14h-4zm4,-9h5v14h-5zm5,-5h4v14h-4zm4,-4h5v14h-5zm5,-5h5v14h-5zm5,-4h4v13h-4zm4,0h5v9h-5zm5,-5h4v14h-4zm4,0h5v14h-5zm5,0h5v14h-5zm5,0h4v9h-4zm4,0h5v9h-5zm5,0h5v14h-5zm5,0h4v14h-4zm4,5h5v9h-5zm5,0h4v9h-4zm4,4h5v9h-5zm5,0h5v14h-5zm5,5h4v9h-4zm4,4h5v10h-5zm5,5h5v9h-5zm5,5h4v9h-4zm4,9h5v9h-5zm5,4h4v9h-4zm4,5h5v9h-5zm5,9h5v9h-5zm5,5h4v9h-4zm4,4h5v9h-5zm5,5h4v9h-4zm4,4h5v9h-5zm5,5h5v9h-5zm5,4h4v10h-4zm4,5h5v9h-5zm5,5h5v9h-5zm5,4h4v9h-4zm4,5h5v9h-5zm5,4h4v10h-4zm4,5h5v9h-5zm5,5h5v9h-5zm5,4h4v9h-4zm4,5h5v9h-5zm5,9h4v4h-4zm4,4h5v5h-5zm5,5h5v5h-5zm5,5h4v4h-4zm4,4h5v5h-5zm5,5h5v9h-5zm5,4h4v10h-4zm4,5h5v9h-5zm5,9h4v5h-4zm4,5h5v4h-5zm5,4h5v9h-5zm5,5h4v9h-4zm4,9h5v5h-5zm5,5h4v9h-4zm4,4h5v9h-5zm5,9h5v5h-5zm5,5h4v4h-4zm4,4h5v10h-5zm5,5h5v5h-5zm5,5h4v4h-4zm4,4h5v5h-5zm5,0h4v9h-4zm4,5h5v4h-5z"></path>
     <path fill="#1066db" d="M0,238h5v28h-5zm5,5h4v27h-4zm4,4h5v28h-5zm5,5h4v27h-4zm4,4h5v28h-5zm5,5h5v28h-5zm5,5h4v27h-4zm4,4h5v23h-5zm5,0h5v28h-5zm5,0h4v28h-4zm4,5h5v23h-5zm5,0h4v23h-4zm4,0h5v23h-5zm5,0h5v23h-5zm5,0h4v23h-4zm4,0h5v23h-5zm5,0h4v23h-4zm4,0h5v23h-5zm5,-5h5v23h-5zm5,0h4v23h-4zm4,-4h5v23h-5zm5,-5h5v23h-5zm5,0h4v18h-4zm4,-5h5v23h-5zm5,0h4v19h-4zm4,-4h5v18h-5zm5,0h5v18h-5zm5,0h4v14h-4zm4,-5h5v19h-5zm5,-9h4v18h-4zm4,-4h5v13h-5zm5,-10h5v14h-5zm5,-9h4v14h-4zm4,-9h5v14h-5zm5,-9h5v14h-5zm5,-9h4v18h-4zm4,-5h5v14h-5zm5,-4h4v13h-4zm4,-5h5v14h-5zm5,-5h5v14h-5zm5,-4h4v14h-4zm4,0h5v14h-5zm5,0h4v9h-4zm4,-5h5v14h-5zm5,0h5v14h-5zm5,0h4v14h-4zm4,5h5v9h-5zm5,0h5v9h-5zm5,0h4v9h-4zm4,0h5v14h-5zm5,4h4v10h-4zm4,0h5v14h-5zm5,5h5v9h-5zm5,5h4v9h-4zm4,4h5v9h-5zm5,5h5v9h-5zm5,4h4v10h-4zm4,5h5v14h-5zm5,9h4v9h-4zm4,5h5v9h-5zm5,9h5v9h-5zm5,4h4v10h-4zm4,5h5v9h-5zm5,5h4v9h-4zm4,4h5v9h-5zm5,5h5v9h-5zm5,4h4v9h-4zm4,5h5v9h-5zm5,4h5v10h-5zm5,10h4v4h-4zm4,4h5v5h-5zm5,5h4v4h-4zm4,4h5v5h-5zm5,5h5v5h-5zm5,5h4v4h-4zm4,4h5v5h-5zm5,5h4v9h-4zm4,4h5v9h-5zm5,5h5v9h-5zm5,4h4v10h-4zm4,5h5v9h-5zm5,5h5v9h-5zm5,9h4v4h-4zm4,4h5v5h-5zm5,5h4v9h-4zm4,5h5v9h-5zm5,9h5v4h-5zm5,4h4v5h-4zm4,5h5v9h-5zm5,9h4v5h-4zm4,5h5v4h-5zm5,4h5v9h-5zm5,5h4v9h-4zm4,9h5v4h-5zm5,4h5v5h-5zm5,0h4v10h-4zm4,5h5v9h-5zm5,5h4v4h-4zm4,0h5v9h-5z"></path>
     <path fill="#116adb" d="M0,211h5v27h-5zm5,4h4v28h-4zm4,5h5v27h-5zm5,9h4v23h-4zm4,5h5v22h-5zm5,4h5v23h-5zm5,5h4v23h-4zm4,0h5v27h-5zm5,4h5v23h-5zm5,0h4v23h-4zm4,5h5v23h-5zm5,0h4v23h-4zm4,0h5v23h-5zm5,0h5v23h-5zm5,4h4v19h-4zm4,0h5v19h-5zm5,0h4v19h-4zm4,-4h5v23h-5zm5,0h5v18h-5zm5,-5h4v23h-4zm4,0h5v19h-5zm5,-4h5v18h-5zm5,0h4v18h-4zm4,-5h5v18h-5zm5,0h4v18h-4zm4,0h5v14h-5zm5,-4h5v18h-5zm5,0h4v18h-4zm4,-5h5v18h-5zm5,-5h4v14h-4zm4,-9h5v19h-5zm5,-9h5v18h-5zm5,-9h4v18h-4zm4,-9h5v18h-5zm5,-5h5v14h-5zm5,-9h4v14h-4zm4,-5h5v14h-5zm5,-4h4v14h-4zm4,-5h5v14h-5zm5,-4h5v13h-5zm5,-5h4v14h-4zm4,0h5v14h-5zm5,0h4v14h-4zm4,0h5v9h-5zm5,0h5v9h-5zm5,0h4v9h-4zm4,0h5v14h-5zm5,0h5v14h-5zm5,5h4v9h-4zm4,0h5v9h-5zm5,4h4v9h-4zm4,0h5v9h-5zm5,5h5v9h-5zm5,4h4v10h-4zm4,5h5v9h-5zm5,5h5v9h-5zm5,4h4v9h-4zm4,5h5v9h-5zm5,9h4v9h-4zm4,5h5v9h-5zm5,9h5v9h-5zm5,4h4v9h-4zm4,5h5v9h-5zm5,4h4v10h-4zm4,5h5v9h-5zm5,5h5v9h-5zm5,4h4v9h-4zm4,5h5v9h-5zm5,9h5v4h-5zm5,4h4v10h-4zm4,5h5v9h-5zm5,5h4v9h-4zm4,4h5v9h-5zm5,5h5v9h-5zm5,4h4v10h-4zm4,5h5v9h-5zm5,5h4v9h-4zm4,4h5v9h-5zm5,9h5v5h-5zm5,5h4v4h-4zm4,4h5v5h-5zm5,5h5v5h-5zm5,5h4v9h-4zm4,4h5v9h-5zm5,9h4v5h-4zm4,5h5v5h-5zm5,5h5v9h-5zm5,9h4v4h-4zm4,4h5v5h-5zm5,5h4v9h-4zm4,4h5v10h-5zm5,10h5v4h-5zm5,4h4v5h-4zm4,5h5v9h-5zm5,4h5v9h-5zm5,5h4v4h-4zm4,4h5v5h-5zm5,5h4v5h-4zm4,0h5v5h-5z"></path>
     <path fill="#116cda" d="M0,183h5v28h-5zm5,5h4v27h-4zm4,9h5v23h-5zm5,5h4v27h-4zm4,4h5v28h-5zm5,5h5v27h-5zm5,4h4v28h-4zm4,5h5v23h-5zm5,4h5v23h-5zm5,0h4v23h-4zm4,5h5v23h-5zm5,0h4v23h-4zm4,0h5v23h-5zm5,5h5v18h-5zm5,0h4v22h-4zm4,0h5v22h-5zm5,0h4v22h-4zm4,0h5v18h-5zm5,-5h5v23h-5zm5,0h4v18h-4zm4,-5h5v23h-5zm5,0h5v19h-5zm5,0h4v19h-4zm4,-4h5v18h-5zm5,0h4v18h-4zm4,0h5v18h-5zm5,-5h5v19h-5zm5,0h4v19h-4zm4,-4h5v18h-5zm5,-5h4v18h-4zm4,-9h5v18h-5zm5,-9h5v18h-5zm5,-5h4v14h-4zm4,-9h5v14h-5zm5,-9h5v18h-5zm5,-5h4v14h-4zm4,-4h5v13h-5zm5,-5h4v14h-4zm4,-4h5v13h-5zm5,-5h5v14h-5zm5,0h4v9h-4zm4,-5h5v14h-5zm5,0h4v14h-4zm4,0h5v14h-5zm5,0h5v14h-5zm5,0h4v14h-4zm4,5h5v9h-5zm5,0h5v9h-5zm5,0h4v14h-4zm4,5h5v9h-5zm5,0h4v13h-4zm4,4h5v9h-5zm5,5h5v9h-5zm5,4h4v9h-4zm4,5h5v9h-5zm5,4h5v10h-5zm5,5h4v9h-4zm4,5h5v9h-5zm5,9h4v9h-4zm4,4h5v10h-5zm5,10h5v9h-5zm5,4h4v9h-4zm4,5h5v9h-5zm5,4h4v9h-4zm4,5h5v9h-5zm5,4h5v10h-5zm5,5h4v9h-4zm4,9h5v5h-5zm5,5h5v9h-5zm5,4h4v9h-4zm4,5h5v9h-5zm5,4h4v10h-4zm4,5h5v9h-5zm5,5h5v9h-5zm5,4h4v9h-4zm4,9h5v5h-5zm5,5h4v5h-4zm4,5h5v4h-5zm5,4h5v9h-5zm5,5h4v9h-4zm4,4h5v9h-5zm5,9h5v5h-5zm5,5h4v5h-4zm4,5h5v4h-5zm5,4h4v9h-4zm4,5h5v9h-5zm5,9h5v5h-5zm5,5h4v9h-4zm4,4h5v9h-5zm5,9h4v5h-4zm4,5h5v4h-5zm5,4h5v10h-5zm5,10h4v4h-4zm4,4h5v5h-5zm5,5h5v4h-5zm5,4h4v5h-4zm4,5h5v4h-5zm5,0h4v9h-4zm4,4h5v5h-5z"></path>
     <path fill="#126fd9" d="M0,156h5v27h-5zm5,9h4v23h-4zm4,4h5v28h-5zm5,10h4v23h-4zm4,4h5v23h-5zm5,5h5v23h-5zm5,4h4v23h-4zm4,5h5v23h-5zm5,5h5v22h-5zm5,0h4v22h-4zm4,4h5v23h-5zm5,0h4v23h-4zm4,5h5v18h-5zm5,0h5v23h-5zm5,4h4v19h-4zm4,0h5v19h-5zm5,0h4v19h-4zm4,-4h5v23h-5zm5,0h5v18h-5zm5,0h4v18h-4zm4,-5h5v18h-5zm5,0h5v18h-5zm5,0h4v18h-4zm4,-4h5v18h-5zm5,0h4v18h-4zm4,0h5v18h-5zm5,0h5v13h-5zm5,-5h4v18h-4zm4,0h5v14h-5zm5,-9h4v18h-4zm4,-5h5v14h-5zm5,-9h5v14h-5zm5,-9h4v18h-4zm4,-5h5v14h-5zm5,-9h5v14h-5zm5,-4h4v13h-4zm4,-5h5v14h-5zm5,-5h4v14h-4zm4,-4h5v14h-5zm5,-5h5v14h-5zm5,0h4v14h-4zm4,0h5v9h-5zm5,0h4v9h-4zm4,0h5v9h-5zm5,0h5v9h-5zm5,0h4v9h-4zm4,0h5v14h-5zm5,5h5v9h-5zm5,0h4v9h-4zm4,0h5v14h-5zm5,4h4v10h-4zm4,5h5v9h-5zm5,5h5v9h-5zm5,4h4v9h-4zm4,5h5v9h-5zm5,4h5v9h-5zm5,5h4v9h-4zm4,4h5v10h-5zm5,10h4v9h-4zm4,4h5v9h-5zm5,9h5v10h-5zm5,5h4v9h-4zm4,5h5v9h-5zm5,4h4v9h-4zm4,5h5v9h-5zm5,4h5v9h-5zm5,9h4v5h-4zm4,5h5v9h-5zm5,5h5v9h-5zm5,4h4v9h-4zm4,5h5v9h-5zm5,4h4v9h-4zm4,9h5v5h-5zm5,5h5v5h-5zm5,5h4v4h-4zm4,4h5v9h-5zm5,5h4v9h-4zm4,4h5v10h-5zm5,10h5v4h-5zm5,4h4v5h-4zm4,5h5v4h-5zm5,4h5v9h-5zm5,5h4v9h-4zm4,9h5v5h-5zm5,5h4v4h-4zm4,4h5v5h-5zm5,5h5v9h-5zm5,9h4v5h-4zm4,5h5v4h-5zm5,4h4v9h-4zm4,9h5v5h-5zm5,5h5v4h-5zm5,4h4v10h-4zm4,10h5v4h-5zm5,4h5v5h-5zm5,0h4v9h-4zm4,5h5v9h-5zm5,4h4v5h-4zm4,5h5v4h-5z"></path>
     <path fill="#1272d9" d="M0,128h5v28h-5zm5,9h4v28h-4zm4,10h5v22h-5zm5,4h4v28h-4zm4,9h5v23h-5zm5,5h5v23h-5zm5,4h4v23h-4zm4,5h5v23h-5zm5,5h5v23h-5zm5,4h4v19h-4zm4,0h5v23h-5zm5,5h4v18h-4zm4,0h5v23h-5zm5,4h5v19h-5zm5,0h4v23h-4zm4,0h5v23h-5zm5,0h4v23h-4zm4,0h5v19h-5zm5,0h5v19h-5zm5,-4h4v23h-4zm4,0h5v18h-5zm5,0h5v18h-5zm5,0h4v18h-4zm4,0h5v14h-5zm5,-5h4v19h-4zm4,0h5v19h-5zm5,0h5v19h-5zm5,0h4v14h-4zm4,-4h5v18h-5zm5,-5h4v14h-4zm4,-9h5v18h-5zm5,-5h5v14h-5zm5,-9h4v14h-4zm4,-9h5v18h-5zm5,-5h5v14h-5zm5,-4h4v14h-4zm4,-5h5v14h-5zm5,-4h4v13h-4zm4,-5h5v14h-5zm5,0h5v9h-5zm5,-4h4v13h-4zm4,0h5v13h-5zm5,0h4v13h-4zm4,0h5v13h-5zm5,0h5v13h-5zm5,4h4v9h-4zm4,0h5v9h-5zm5,0h5v14h-5zm5,5h4v9h-4zm4,0h5v9h-5zm5,4h4v9h-4zm4,5h5v9h-5zm5,0h5v14h-5zm5,4h4v14h-4zm4,10h5v9h-5zm5,4h5v9h-5zm5,5h4v9h-4zm4,4h5v9h-5zm5,9h4v10h-4zm4,5h5v9h-5zm5,9h5v9h-5zm5,5h4v9h-4zm4,4h5v10h-5zm5,5h4v9h-4zm4,5h5v9h-5zm5,9h5v4h-5zm5,4h4v9h-4zm4,5h5v9h-5zm5,4h5v10h-5zm5,10h4v4h-4zm4,4h5v5h-5zm5,5h4v4h-4zm4,4h5v9h-5zm5,5h5v9h-5zm5,4h4v10h-4zm4,5h5v9h-5zm5,9h4v5h-4zm4,5h5v4h-5zm5,4h5v10h-5zm5,5h4v9h-4zm4,5h5v9h-5zm5,9h5v4h-5zm5,4h4v5h-4zm4,5h5v9h-5zm5,4h4v10h-4zm4,10h5v4h-5zm5,4h5v5h-5zm5,5h4v9h-4zm4,9h5v5h-5zm5,5h4v4h-4zm4,4h5v9h-5zm5,9h5v5h-5zm5,5h4v4h-4zm4,4h5v10h-5zm5,5h5v9h-5zm5,5h4v4h-4zm4,4h5v5h-5zm5,5h4v4h-4zm4,4h5v5h-5z"></path>
     <path fill="#1275d8" d="M0,105h5v23h-5zm5,10h4v22h-4zm4,4h5v28h-5zm5,9h4v23h-4zm4,9h5v23h-5zm5,5h5v23h-5zm5,5h4v22h-4zm4,4h5v23h-5zm5,5h5v23h-5zm5,4h4v23h-4zm4,5h5v18h-5zm5,0h4v23h-4zm4,4h5v19h-5zm5,0h5v23h-5zm5,5h4v18h-4zm4,0h5v18h-5zm5,0h4v18h-4zm4,0h5v18h-5zm5,0h5v18h-5zm5,-5h4v19h-4zm4,0h5v19h-5zm5,0h5v19h-5zm5,0h4v19h-4zm4,0h5v19h-5zm5,0h4v14h-4zm4,0h5v14h-5zm5,0h5v14h-5zm5,-4h4v18h-4zm4,-5h5v19h-5zm5,-4h4v18h-4zm4,-5h5v14h-5zm5,-9h5v18h-5zm5,-5h4v14h-4zm4,-9h5v14h-5zm5,-4h5v13h-5zm5,-5h4v14h-4zm4,-4h5v13h-5zm5,-5h4v14h-4zm4,-5h5v14h-5zm5,0h5v14h-5zm5,0h4v10h-4zm4,-4h5v14h-5zm5,4h4v10h-4zm4,0h5v10h-5zm5,0h5v10h-5zm5,0h4v14h-4zm4,0h5v14h-5zm5,5h5v9h-5zm5,0h4v14h-4zm4,5h5v9h-5zm5,4h4v9h-4zm4,0h5v14h-5zm5,5h5v9h-5zm5,4h4v9h-4zm4,5h5v14h-5zm5,9h5v9h-5zm5,5h4v9h-4zm4,4h5v9h-5zm5,9h4v9h-4zm4,5h5v9h-5zm5,9h5v9h-5zm5,5h4v9h-4zm4,4h5v9h-5zm5,5h4v9h-4zm4,9h5v5h-5zm5,5h5v9h-5zm5,4h4v9h-4zm4,5h5v9h-5zm5,9h5v4h-5zm5,4h4v10h-4zm4,5h5v9h-5zm5,5h4v9h-4zm4,4h5v9h-5zm5,9h5v5h-5zm5,5h4v4h-4zm4,4h5v5h-5zm5,5h4v9h-4zm4,5h5v9h-5zm5,9h5v4h-5zm5,4h4v5h-4zm4,5h5v5h-5zm5,5h5v9h-5zm5,4h4v9h-4zm4,9h5v5h-5zm5,5h4v4h-4zm4,4h5v10h-5zm5,10h5v4h-5zm5,4h4v5h-4zm4,5h5v9h-5zm5,9h4v5h-4zm4,5h5v4h-5zm5,9h5v4h-5zm5,4h4v5h-4zm4,5h5v4h-5zm5,4h5v5h-5zm5,5h4v5h-4zm4,5h5v4h-5zm5,4h4v5h-4zm4,0h5v9h-5z"></path>
     <path fill="#1379d7" d="M0,78h5v27h-5zm5,9h4v28h-4zm4,9h5v23h-5zm5,9h4v23h-4zm4,5h5v27h-5zm5,9h5v23h-5zm5,5h4v23h-4zm4,4h5v23h-5zm5,5h5v23h-5zm5,4h4v23h-4zm4,5h5v23h-5zm5,5h4v18h-4zm4,0h5v22h-5zm5,4h5v18h-5zm5,5h4v18h-4zm4,0h5v18h-5zm5,0h4v18h-4zm4,0h5v18h-5zm5,0h5v18h-5zm5,-5h4v18h-4zm4,0h5v18h-5zm5,0h5v18h-5zm5,0h4v18h-4zm4,0h5v18h-5zm5,0h4v18h-4zm4,0h5v18h-5zm5,0h5v18h-5zm5,0h4v14h-4zm4,-4h5v13h-5zm5,-5h4v14h-4zm4,-9h5v18h-5zm5,-5h5v14h-5zm5,-9h4v18h-4zm4,-4h5v13h-5zm5,-5h5v14h-5zm5,-5h4v14h-4zm4,-4h5v14h-5zm5,-5h4v14h-4zm4,-4h5v13h-5zm5,0h5v13h-5zm5,0h4v13h-4zm4,0h5v9h-5zm5,0h4v13h-4zm4,0h5v13h-5zm5,0h5v13h-5zm5,4h4v9h-4zm4,0h5v9h-5zm5,5h5v9h-5zm5,0h4v9h-4zm4,4h5v10h-5zm5,0h4v14h-4zm4,5h5v9h-5zm5,5h5v9h-5zm5,4h4v9h-4zm4,5h5v9h-5zm5,9h5v9h-5zm5,4h4v10h-4zm4,5h5v9h-5zm5,9h4v9h-4zm4,9h5v5h-5zm5,5h5v9h-5zm5,4h4v10h-4zm4,5h5v9h-5zm5,5h4v9h-4zm4,9h5v9h-5zm5,4h5v10h-5zm5,5h4v9h-4zm4,9h5v5h-5zm5,5h5v9h-5zm5,4h4v9h-4zm4,5h5v9h-5zm5,9h4v5h-4zm4,5h5v4h-5zm5,4h5v9h-5zm5,5h4v9h-4zm4,4h5v9h-5zm5,9h4v5h-4zm4,5h5v5h-5zm5,5h5v9h-5zm5,4h4v9h-4zm4,9h5v5h-5zm5,5h5v5h-5zm5,5h4v4h-4zm4,4h5v9h-5zm5,9h4v5h-4zm4,5h5v4h-5zm5,4h5v10h-5zm5,10h4v4h-4zm4,4h5v5h-5zm5,9h4v5h-4zm4,5h5v5h-5zm5,5h5v9h-5zm5,9h4v4h-4zm4,4h5v5h-5zm5,5h5v4h-5zm5,4h4v5h-4zm4,5h5v5h-5zm5,5h4v4h-4zm4,0h5v4h-5z"></path>
     <path fill="#137bd7" d="M0,55h5v23h-5zm5,9h4v23h-4zm4,9h5v23h-5zm5,9h4v23h-4zm4,5h5v23h-5zm5,9h5v23h-5zm5,5h4v23h-4zm4,9h5v18h-5zm5,5h5v18h-5zm5,4h4v18h-4zm4,0h5v23h-5zm5,5h4v23h-4zm4,4h5v19h-5zm5,5h5v18h-5zm5,0h4v23h-4zm4,4h5v19h-5zm5,0h4v19h-4zm4,0h5v19h-5zm5,0h5v19h-5zm5,-4h4v18h-4zm4,0h5v18h-5zm5,0h5v18h-5zm5,0h4v18h-4zm4,4h5v14h-5zm5,0h4v14h-4zm4,0h5v14h-5zm5,0h5v14h-5zm5,-4h4v18h-4zm4,-5h5v19h-5zm5,-4h4v18h-4zm4,-5h5v14h-5zm5,-4h5v13h-5zm5,-10h4v14h-4zm4,-4h5v14h-5zm5,-5h5v14h-5zm5,-4h4v13h-4zm4,-5h5v14h-5zm5,-5h4v14h-4zm4,0h5v10h-5zm5,-4h5v14h-5zm5,0h4v14h-4zm4,0h5v14h-5zm5,0h4v14h-4zm4,4h5v10h-5zm5,0h5v10h-5zm5,0h4v14h-4zm4,5h5v9h-5zm5,0h5v14h-5zm5,5h4v9h-4zm4,0h5v13h-5zm5,4h4v9h-4zm4,5h5v9h-5zm5,4h5v10h-5zm5,5h4v9h-4zm4,5h5v9h-5zm5,9h5v9h-5zm5,4h4v9h-4zm4,5h5v9h-5zm5,9h4v9h-4zm4,9h5v9h-5zm5,5h5v9h-5zm5,4h4v9h-4zm4,5h5v9h-5zm5,9h4v5h-4zm4,5h5v9h-5zm5,4h5v9h-5zm5,5h4v9h-4zm4,9h5v9h-5zm5,5h5v9h-5zm5,4h4v9h-4zm4,9h5v5h-5zm5,5h4v9h-4zm4,4h5v10h-5zm5,5h5v9h-5zm5,9h4v5h-4zm4,5h5v4h-5zm5,4h4v9h-4zm4,5h5v9h-5zm5,9h5v5h-5zm5,5h4v4h-4zm4,4h5v9h-5zm5,5h5v9h-5zm5,9h4v5h-4zm4,5h5v4h-5zm5,4h4v9h-4zm4,9h5v5h-5zm5,5h5v4h-5zm5,9h4v5h-4zm4,5h5v4h-5zm5,4h4v9h-4zm4,9h5v5h-5zm5,5h5v5h-5zm5,5h4v9h-4zm4,9h5v4h-5zm5,4h5v5h-5zm5,5h4v4h-4zm4,4h5v5h-5zm5,0h4v10h-4zm4,5h5v5h-5z"></path>
     <path fill="#147ed6" d="M0,27h5v28h-5zM5,37h4v27h-4zM9,50h5v23h-5zm5,10h4v22h-4zm4,4h5v23h-5zm5,9h5v23h-5zm5,5h4v23h-4zm4,9h5v23h-5zm5,5h5v23h-5zm5,4h4v23h-4zm4,5h5v18h-5zm5,4h4v19h-4zm4,5h5v18h-5zm5,0h5v23h-5zm5,5h4v18h-4zm4,0h5v22h-5zm5,4h4v18h-4zm4,0h5v18h-5zm5,0h5v18h-5zm5,-4h4v18h-4zm4,0h5v18h-5zm5,4h5v14h-5zm5,0h4v14h-4zm4,0h5v18h-5zm5,0h4v18h-4zm4,0h5v18h-5zm5,0h5v18h-5zm5,0h4v14h-4zm4,-4h5v13h-5zm5,-5h4v14h-4zm4,-5h5v14h-5zm5,-9h5v19h-5zm5,-4h4v13h-4zm4,-5h5v14h-5zm5,-5h5v14h-5zm5,-4h4v14h-4zm4,-5h5v14h-5zm5,-4h4v13h-4zm4,0h5v13h-5zm5,0h5v9h-5zm5,0h4v9h-4zm4,0h5v9h-5zm5,0h4v9h-4zm4,0h5v13h-5zm5,4h5v9h-5zm5,0h4v9h-4zm4,0h5v14h-5zm5,5h5v9h-5zm5,0h4v14h-4zm4,4h5v10h-5zm5,5h4v9h-4zm4,5h5v9h-5zm5,4h5v9h-5zm5,5h4v9h-4zm4,4h5v10h-5zm5,10h5v9h-5zm5,4h4v9h-4zm4,9h5v5h-5zm5,5h4v9h-4zm4,9h5v9h-5zm5,5h5v9h-5zm5,4h4v9h-4zm4,5h5v9h-5zm5,9h4v9h-4zm4,4h5v10h-5zm5,5h5v9h-5zm5,9h4v5h-4zm4,5h5v9h-5zm5,4h5v10h-5zm5,10h4v4h-4zm4,4h5v9h-5zm5,5h4v9h-4zm4,9h5v4h-5zm5,4h5v5h-5zm5,5h4v9h-4zm4,5h5v9h-5zm5,9h4v4h-4zm4,4h5v5h-5zm5,5h5v9h-5zm5,4h4v10h-4zm4,10h5v4h-5zm5,4h5v5h-5zm5,5h4v9h-4zm4,9h5v5h-5zm5,5h4v4h-4zm4,4h5v9h-5zm5,9h5v5h-5zm5,5h4v9h-4zm4,9h5v5h-5zm5,5h4v4h-4zm4,4h5v9h-5zm5,9h5v5h-5zm5,5h4v5h-4zm4,5h5v9h-5zm5,4h5v9h-5zm5,9h4v5h-4zm4,0h5v9h-5zm5,5h4v4h-4zm4,4h5v5h-5z"></path>
     <path fill="#1481d6" d="M0,5h5v22h-5zm5,9h4v23h-4zm4,9h5v27h-5zm5,9h4v28h-4zm4,9h5v23h-5zm5,9h5v23h-5zm5,10h4v18h-4zm4,4h5v23h-5zm5,5h5v23h-5zm5,4h4v23h-4zm4,5h5v23h-5zm5,4h4v23h-4zm4,5h5v23h-5zm5,5h5v18h-5zm5,4h4v19h-4zm4,0h5v19h-5zm5,5h4v18h-4zm4,0h5v18h-5zm5,0h5v18h-5zm5,0h4v14h-4zm4,0h5v14h-5zm5,0h5v18h-5zm5,0h4v18h-4zm4,0h5v18h-5zm5,4h4v14h-4zm4,0h5v14h-5zm5,0h5v14h-5zm5,-4h4v18h-4zm4,0h5v14h-5zm5,-9h4v18h-4zm4,-5h5v18h-5zm5,-5h5v14h-5zm5,-4h4v14h-4zm4,-5h5v14h-5zm5,-4h5v13h-5zm5,-5h4v14h-4zm4,-4h5v13h-5zm5,0h4v9h-4zm4,-5h5v14h-5zm5,0h5v14h-5zm5,0h4v14h-4zm4,0h5v14h-5zm5,0h4v14h-4zm4,5h5v9h-5zm5,0h5v13h-5zm5,4h4v9h-4zm4,0h5v9h-5zm5,5h5v9h-5zm5,0h4v9h-4zm4,4h5v9h-5zm5,5h4v9h-4zm4,4h5v10h-5zm5,5h5v9h-5zm5,5h4v9h-4zm4,4h5v9h-5zm5,9h5v10h-5zm5,5h4v9h-4zm4,9h5v9h-5zm5,5h4v9h-4zm4,9h5v9h-5zm5,4h5v10h-5zm5,5h4v9h-4zm4,9h5v5h-5zm5,5h4v9h-4zm4,4h5v9h-5zm5,9h5v5h-5zm5,5h4v9h-4zm4,5h5v9h-5zm5,9h5v4h-5zm5,4h4v10h-4zm4,5h5v9h-5zm5,9h4v5h-4zm4,5h5v9h-5zm5,4h5v9h-5zm5,9h4v5h-4zm4,5h5v5h-5zm5,5h4v9h-4zm4,4h5v9h-5zm5,9h5v5h-5zm5,5h4v4h-4zm4,4h5v10h-5zm5,10h5v4h-5zm5,4h4v5h-4zm4,5h5v9h-5zm5,9h4v5h-4zm4,5h5v4h-5zm5,9h5v4h-5zm5,4h4v5h-4zm4,5h5v9h-5zm5,9h4v5h-4zm4,5h5v4h-5zm5,9h5v4h-5zm5,4h4v5h-4zm4,5h5v5h-5zm5,5h5v4h-5zm5,4h4v9h-4zm4,5h5v4h-5zm5,4h4v5h-4zm4,5h5v4h-5z"></path>
     <path fill="#1384d5" d="M0,0h5v5h-5zM5,0h4v14h-4zM9,0h5v23h-5zm5,9h4v23h-4zm4,9h5v23h-5zm5,9h5v23h-5zm5,10h4v23h-4zm4,4h5v23h-5zm5,9h5v19h-5zm5,5h4v18h-4zm4,5h5v18h-5zm5,4h4v18h-4zm4,5h5v18h-5zm5,4h5v19h-5zm5,5h4v18h-4zm4,0h5v18h-5zm5,0h4v23h-4zm4,4h5v19h-5zm5,0h5v19h-5zm5,0h4v19h-4zm4,0h5v19h-5zm5,0h5v19h-5zm5,5h4v14h-4zm4,0h5v14h-5zm5,0h4v18h-4zm4,0h5v18h-5zm5,0h5v18h-5zm5,0h4v14h-4zm4,-5h5v19h-5zm5,-4h4v14h-4zm4,-5h5v14h-5zm5,-4h5v13h-5zm5,-5h4v14h-4zm4,-4h5v13h-5zm5,-5h5v14h-5zm5,-5h4v14h-4zm4,-4h5v14h-5zm5,0h4v14h-4zm4,-5h5v14h-5zm5,0h5v14h-5zm5,0h4v14h-4zm4,5h5v9h-5zm5,0h4v9h-4zm4,0h5v14h-5zm5,4h5v10h-5zm5,0h4v14h-4zm4,5h5v9h-5zm5,0h5v14h-5zm5,5h4v9h-4zm4,4h5v9h-5zm5,5h4v9h-4zm4,4h5v9h-5zm5,5h5v9h-5zm5,4h4v10h-4zm4,5h5v9h-5zm5,9h5v9h-5zm5,5h4v9h-4zm4,9h5v9h-5zm5,5h4v9h-4zm4,9h5v9h-5zm5,4h5v9h-5zm5,5h4v9h-4zm4,9h5v9h-5zm5,5h4v9h-4zm4,4h5v9h-5zm5,9h5v9h-5zm5,5h4v9h-4zm4,9h5v5h-5zm5,5h5v9h-5zm5,4h4v9h-4zm4,9h5v5h-5zm5,5h4v9h-4zm4,5h5v9h-5zm5,9h5v4h-5zm5,4h4v9h-4zm4,5h5v9h-5zm5,9h4v5h-4zm4,5h5v4h-5zm5,4h5v9h-5zm5,9h4v5h-4zm4,5h5v4h-5zm5,4h5v10h-5zm5,10h4v4h-4zm4,4h5v5h-5zm5,5h4v9h-4zm4,9h5v5h-5zm5,5h5v9h-5zm5,9h4v4h-4zm4,4h5v5h-5zm5,9h4v5h-4zm4,5h5v5h-5zm5,5h5v9h-5zm5,9h4v4h-4zm4,4h5v5h-5zm5,5h5v5h-5zm5,5h4v4h-4zm4,4h5v5h-5zm5,5h4v4h-4zm4,4h5v5h-5z"></path>
     <path fill="#1286d4" d="M14,0h4v9h-4zm4,0h5v18h-5zm5,5h5v22h-5zm5,9h4v23h-4zm4,9h5v18h-5zm5,4h5v23h-5zm5,5h4v23h-4zm4,9h5v19h-5zm5,5h4v18h-4zm4,4h5v19h-5zm5,5h5v18h-5zm5,5h4v18h-4zm4,0h5v18h-5zm5,0h4v18h-4zm4,4h5v18h-5zm5,0h5v18h-5zm5,0h4v18h-4zm4,0h5v18h-5zm5,5h5v13h-5zm5,0h4v18h-4zm4,0h5v18h-5zm5,4h4v14h-4zm4,0h5v14h-5zm5,0h5v14h-5zm5,0h4v14h-4zm4,-4h5v13h-5zm5,-5h4v14h-4zm4,-4h5v13h-5zm5,-5h5v14h-5zm5,-5h4v14h-4zm4,-4h5v14h-5zm5,-5h5v14h-5zm5,-4h4v13h-4zm4,-5h5v14h-5zm5,0h4v14h-4zm4,0h5v9h-5zm5,0h5v9h-5zm5,0h4v9h-4zm4,0h5v14h-5zm5,0h4v14h-4zm4,5h5v9h-5zm5,0h5v13h-5zm5,4h4v9h-4zm4,0h5v14h-5zm5,5h5v9h-5zm5,4h4v10h-4zm4,0h5v14h-5zm5,10h4v9h-4zm4,4h5v9h-5zm5,5h5v9h-5zm5,4h4v9h-4zm4,5h5v9h-5zm5,9h5v9h-5zm5,5h4v9h-4zm4,9h5v9h-5zm5,4h4v10h-4zm4,10h5v9h-5zm5,4h5v9h-5zm5,9h4v5h-4zm4,5h5v9h-5zm5,4h4v10h-4zm4,10h5v4h-5zm5,4h5v9h-5zm5,5h4v9h-4zm4,9h5v9h-5zm5,4h5v10h-5zm5,10h4v4h-4zm4,4h5v9h-5zm5,5h4v9h-4zm4,9h5v5h-5zm5,5h5v9h-5zm5,9h4v4h-4zm4,4h5v5h-5zm5,5h4v9h-4zm4,9h5v5h-5zm5,5h5v4h-5zm5,4h4v9h-4zm4,9h5v5h-5zm5,5h5v4h-5zm5,4h4v10h-4zm4,10h5v4h-5zm5,4h4v5h-4zm4,9h5v5h-5zm5,5h5v5h-5zm5,5h4v9h-4zm4,9h5v4h-5zm5,4h4v9h-4zm4,9h5v5h-5zm5,5h5v5h-5zm5,9h4v5h-4zm4,5h5v4h-5zm5,4h5v5h-5zm5,5h4v5h-4zm4,5h5v4h-5zm5,4h4v5h-4zm4,5h5v4h-5z"></path>
     <path fill="#1089d3" d="M23,0h5v5h-5zm5,0h4v14h-4zm4,0h5v23h-5zm5,9h5v18h-5zm5,5h4v18h-4zm4,4h5v23h-5zm5,5h4v23h-4zm4,9h5v18h-5zm5,5h5v18h-5zm5,4h4v19h-4zm4,0h5v19h-5zm5,0h4v19h-4zm4,5h5v18h-5zm5,0h5v18h-5zm5,0h4v18h-4zm4,0h5v18h-5zm5,4h5v19h-5zm5,0h4v19h-4zm4,5h5v14h-5zm5,0h4v18h-4zm4,5h5v13h-5zm5,0h5v13h-5zm5,-5h4v18h-4zm4,-5h5v19h-5zm5,-4h4v18h-4zm4,-5h5v19h-5zm5,-4h5v18h-5zm5,-5h4v18h-4zm4,0h5v14h-5zm5,-5h5v14h-5zm5,-4h4v14h-4zm4,0h5v9h-5zm5,-5h4v14h-4zm4,0h5v14h-5zm5,0h5v14h-5zm5,0h4v14h-4zm4,0h5v14h-5zm5,5h4v9h-4zm4,0h5v14h-5zm5,4h5v10h-5zm5,0h4v14h-4zm4,5h5v9h-5zm5,5h5v9h-5zm5,0h4v13h-4zm4,4h5v9h-5zm5,5h4v14h-4zm4,4h5v14h-5zm5,10h5v9h-5zm5,4h4v9h-4zm4,5h5v9h-5zm5,9h5v9h-5zm5,4h4v10h-4zm4,10h5v9h-5zm5,4h4v9h-4zm4,9h5v10h-5zm5,5h5v9h-5zm5,9h4v9h-4zm4,5h5v9h-5zm5,4h4v9h-4zm4,9h5v10h-5zm5,5h5v9h-5zm5,9h4v5h-4zm4,5h5v9h-5zm5,9h5v4h-5zm5,4h4v10h-4zm4,10h5v4h-5zm5,4h4v5h-4zm4,5h5v9h-5zm5,9h5v5h-5zm5,5h4v9h-4zm4,4h5v9h-5zm5,9h4v5h-4zm4,5h5v9h-5zm5,4h5v10h-5zm5,10h4v4h-4zm4,4h5v9h-5zm5,9h5v5h-5zm5,5h4v4h-4zm4,4h5v10h-5zm5,10h4v4h-4zm4,4h5v9h-5zm5,9h5v5h-5zm5,5h4v5h-4zm4,9h5v5h-5zm5,5h4v4h-4zm4,9h5v4h-5zm5,4h5v5h-5zm5,5h4v9h-4zm4,9h5v5h-5zm5,5h5v4h-5zm5,4h4v5h-4zm4,5h5v5h-5zm5,5h4v4h-4zm4,4h5v5h-5z"></path>
     <path fill="#108cd2" d="M37,0h5v9h-5zm5,0h4v14h-4zm4,0h5v18h-5zm5,5h4v18h-4zm4,4h5v23h-5zm5,9h5v19h-5zm5,0h4v23h-4zm4,5h5v18h-5zm5,0h4v18h-4zm4,4h5v19h-5zm5,0h5v19h-5zm5,0h4v19h-4zm4,5h5v14h-5zm5,0h5v18h-5zm5,5h4v13h-4zm4,0h5v18h-5zm5,4h4v14h-4zm4,0h5v19h-5zm5,0h5v19h-5zm5,0h4v14h-4zm4,-4h5v13h-5zm5,-5h4v14h-4zm4,-5h5v14h-5zm5,-4h5v14h-5zm5,-5h4v14h-4zm4,0h5v14h-5zm5,-4h5v13h-5zm5,-5h4v14h-4zm4,0h5v14h-5zm5,-4h4v13h-4zm4,0h5v13h-5zm5,0h5v13h-5zm5,4h4v9h-4zm4,0h5v9h-5zm5,0h4v14h-4zm4,5h5v9h-5zm5,0h5v13h-5zm5,4h4v9h-4zm4,5h5v9h-5zm5,0h5v14h-5zm5,4h4v10h-4zm4,5h5v9h-5zm5,5h4v9h-4zm4,4h5v9h-5zm5,5h5v14h-5zm5,9h4v9h-4zm4,5h5v9h-5zm5,9h5v9h-5zm5,4h4v9h-4zm4,9h5v10h-5zm5,10h4v4h-4zm4,4h5v9h-5zm5,9h5v5h-5zm5,5h4v9h-4zm4,5h5v9h-5zm5,9h4v4h-4zm4,4h5v9h-5zm5,9h5v5h-5zm5,5h4v9h-4zm4,9h5v5h-5zm5,5h5v9h-5zm5,9h4v4h-4zm4,4h5v10h-5zm5,5h4v9h-4zm4,9h5v5h-5zm5,5h5v9h-5zm5,4h4v10h-4zm4,10h5v4h-5zm5,4h4v9h-4zm4,9h5v5h-5zm5,5h5v4h-5zm5,4h4v10h-4zm4,10h5v4h-5zm5,4h5v9h-5zm5,9h4v5h-4zm4,5h5v4h-5zm5,4h4v10h-4zm4,10h5v4h-5zm5,4h5v9h-5zm5,9h4v5h-4zm4,5h5v9h-5zm5,9h4v5h-4zm4,5h5v9h-5zm5,9h5v4h-5zm5,4h4v5h-4zm4,10h5v4h-5zm5,4h5v5h-5zm5,5h4v4h-4zm4,4h5v5h-5zm5,5h4v5h-4zm4,5h5v4h-5z"></path>
     <path fill="#0e8fd1" d="M51,0h4v5h-4zm4,0h5v9h-5zm5,0h5v18h-5zm5,0h4v18h-4zm4,5h5v18h-5zm5,0h4v18h-4zm4,4h5v18h-5zm5,0h5v18h-5zm5,5h4v13h-4zm4,0h5v18h-5zm5,4h5v14h-5zm5,0h4v19h-4zm4,5h5v14h-5zm5,0h4v18h-4zm4,4h5v14h-5zm5,0h5v14h-5zm5,-4h4v18h-4zm4,0h5v14h-5zm5,-5h4v14h-4zm4,-4h5v13h-5zm5,-5h5v14h-5zm5,-4h4v13h-4zm4,0h5v13h-5zm5,-5h5v14h-5zm5,0h4v9h-4zm4,0h5v9h-5zm5,0h4v5h-4zm4,0h5v5h-5zm5,0h5v5h-5zm5,0h4v9h-4zm4,0h5v9h-5zm5,0h4v9h-4zm4,0h5v14h-5zm5,5h5v9h-5zm5,4h4v9h-4zm4,0h5v14h-5zm5,5h5v9h-5zm5,4h4v9h-4zm4,5h5v9h-5zm5,4h4v10h-4zm4,5h5v9h-5zm5,5h5v9h-5zm5,9h4v9h-4zm4,4h5v10h-5zm5,10h5v9h-5zm5,4h4v9h-4zm4,9h5v9h-5zm5,9h4v10h-4zm4,5h5v9h-5zm5,9h5v9h-5zm5,5h4v9h-4zm4,4h5v10h-5zm5,10h4v9h-4zm4,4h5v9h-5zm5,9h5v9h-5zm5,5h4v9h-4zm4,9h5v9h-5zm5,5h5v9h-5zm5,9h4v9h-4zm4,4h5v9h-5zm5,9h4v5h-4zm4,5h5v9h-5zm5,9h5v5h-5zm5,5h4v4h-4zm4,4h5v10h-5zm5,10h4v4h-4zm4,4h5v9h-5zm5,9h5v5h-5zm5,5h4v4h-4zm4,4h5v10h-5zm5,10h5v4h-5zm5,4h4v9h-4zm4,9h5v5h-5zm5,5h4v4h-4zm4,9h5v5h-5zm5,5h5v4h-5zm5,9h4v4h-4zm4,4h5v5h-5zm5,10h4v4h-4zm4,4h5v5h-5zm5,9h5v5h-5zm5,5h4v4h-4zm4,4h5v10h-5zm5,10h5v4h-5zm5,4h4v5h-4zm4,5h5v4h-5zm5,4h4v5h-4zm4,5h5v5h-5z"></path>
     <path fill="#0d92d0" d="M69,0h5v5h-5zm5,0h4v5h-4zm4,0h5v9h-5zm5,0h5v9h-5zm5,0h4v14h-4zm4,0h5v14h-5zm5,0h5v18h-5zm5,5h4v13h-4zm4,0h5v18h-5zm5,4h4v14h-4zm4,0h5v18h-5zm5,0h5v18h-5zm5,0h4v14h-4zm4,-4h5v18h-5zm5,0h4v13h-4zm4,-5h5v14h-5zm5,0h5v9h-5zm5,0h4v5h-4zm4,0h5v5h-5zm51,0h5v5h-5zm5,0h4v9h-4zm4,0h5v9h-5zm5,5h5v9h-5zm5,4h4v9h-4zm4,5h5v9h-5zm5,4h4v9h-4zm4,5h5v9h-5zm5,4h5v10h-5zm5,10h4v9h-4zm4,4h5v9h-5zm5,9h5v10h-5zm5,5h4v9h-4zm4,9h5v9h-5zm5,9h4v9h-4zm4,5h5v9h-5zm5,9h5v9h-5zm5,5h4v9h-4zm4,9h5v4h-5zm5,4h4v10h-4zm4,10h5v4h-5zm5,4h5v9h-5zm5,9h4v5h-4zm4,5h5v9h-5zm5,9h5v5h-5zm5,5h4v9h-4zm4,9h5v4h-5zm5,4h4v9h-4zm4,9h5v5h-5zm5,5h5v9h-5zm5,5h4v9h-4zm4,9h5v4h-5zm5,4h4v10h-4zm4,10h5v4h-5zm5,4h5v9h-5zm5,9h4v5h-4zm4,5h5v4h-5zm5,9h5v5h-5zm5,5h4v4h-4zm4,4h5v9h-5zm5,9h4v5h-4zm4,5h5v9h-5zm5,9h5v5h-5zm5,9h4v5h-4zm4,5h5v4h-5zm5,4h4v10h-4zm4,10h5v4h-5zm5,9h5v4h-5zm5,4h4v5h-4zm4,5h5v4h-5zm5,9h5v5h-5zm5,5h4v4h-4zm4,4h5v5h-5zm5,5h4v4h-4zm4,4h5v5h-5z"></path>
     <path fill="#0c94cf" d="M102,0h4v5h-4zm4,0h5v5h-5zm5,0h4v9h-4zm4,0h5v9h-5zm5,0h5v9h-5zm5,0h4v9h-4zm4,0h5v5h-5zm5,0h4v5h-4zm83,0h5v5h-5zm5,0h4v9h-4zm4,0h5v14h-5zm5,9h4v9h-4zm4,5h5v9h-5zm5,4h5v9h-5zm5,9h4v10h-4zm4,5h5v9h-5zm5,9h5v9h-5zm5,5h4v9h-4zm4,9h5v9h-5zm5,9h4v9h-4zm4,5h5v9h-5zm5,9h5v9h-5zm5,4h4v10h-4zm4,10h5v9h-5zm5,4h4v9h-4zm4,9h5v10h-5zm5,5h5v9h-5zm5,9h4v9h-4zm4,9h5v5h-5zm5,5h5v9h-5zm5,9h4v5h-4zm4,5h5v9h-5zm5,9h4v4h-4zm4,4h5v9h-5zm5,9h5v5h-5zm5,5h4v5h-4zm4,5h5v9h-5zm5,9h4v4h-4zm4,4h5v10h-5zm5,10h5v4h-5zm5,4h4v9h-4zm4,9h5v5h-5zm5,5h5v9h-5zm5,9h4v5h-4zm4,5h5v4h-5zm5,9h4v4h-4zm4,4h5v5h-5zm5,9h5v5h-5zm5,5h4v9h-4zm4,9h5v5h-5zm5,5h4v4h-4zm4,9h5v5h-5zm5,5h5v9h-5zm5,9h4v4h-4zm4,4h5v5h-5zm5,5h5v9h-5zm5,9h4v5h-4zm4,5h5v4h-5zm5,4h4v5h-4zm4,5h5v4h-5z"></path>
     <path fill="#0b98ce" d="M231,0h4v9h-4zm4,5h5v9h-5zm5,4h5v9h-5zm5,5h4v13h-4zm4,9h5v9h-5zm5,9h5v9h-5zm5,5h4v9h-4zm4,9h5v9h-5zm5,9h4v9h-4zm4,9h5v5h-5zm5,5h5v9h-5zm5,4h4v9h-4zm4,9h5v10h-5zm5,10h4v4h-4zm4,4h5v9h-5zm5,9h5v5h-5zm5,5h4v9h-4zm4,9h5v9h-5zm5,5h5v9h-5zm5,9h4v9h-4zm4,9h5v5h-5zm5,5h4v9h-4zm4,4h5v9h-5zm5,9h5v9h-5zm5,9h4v5h-4zm4,5h5v5h-5zm5,5h4v9h-4zm4,9h5v4h-5zm5,4h5v10h-5zm5,10h4v4h-4zm4,4h5v9h-5zm5,9h5v5h-5zm5,5h4v9h-4zm4,9h5v5h-5zm5,5h4v9h-4zm4,9h5v4h-5zm5,9h5v4h-5zm5,4h4v5h-4zm4,10h5v4h-5zm5,4h4v5h-4zm4,9h5v5h-5zm5,5h5v5h-5zm5,9h4v5h-4zm4,5h5v4h-5zm5,4h5v5h-5zm5,9h4v5h-4zm4,5h5v5h-5zm5,5h4v4h-4zm4,4h5v5h-5z"></path>
     <path fill="#0a9acd" d="M235,0h5v5h-5zm5,0h5v9h-5zm5,5h4v9h-4zm4,9h5v9h-5zm5,9h5v9h-5zm5,4h4v10h-4zm4,10h5v9h-5zm5,9h4v9h-4zm4,9h5v9h-5zm5,5h5v9h-5zm5,9h4v4h-4zm4,4h5v9h-5zm5,9h4v10h-4zm4,5h5v9h-5zm5,9h5v9h-5zm5,9h4v5h-4zm4,5h5v9h-5zm5,9h5v5h-5zm5,5h4v9h-4zm4,9h5v9h-5zm5,4h4v10h-4zm4,10h5v4h-5zm5,4h5v9h-5zm5,9h4v9h-4zm4,9h5v5h-5zm5,5h4v5h-4zm4,9h5v5h-5zm5,5h5v4h-5zm5,9h4v5h-4zm4,5h5v4h-5zm5,9h5v4h-5zm5,4h4v5h-4zm4,9h5v5h-5zm5,5h4v5h-4zm4,9h5v5h-5zm5,5h5v9h-5zm5,9h4v4h-4zm4,4h5v10h-5zm5,10h4v4h-4zm4,4h5v9h-5zm5,9h5v5h-5zm5,10h4v4h-4zm4,4h5v5h-5zm5,5h5v4h-5zm5,4h4v9h-4zm4,9h5v5h-5zm5,5h4v5h-4zm4,5h5v4h-5z"></path>
     <path fill="#099dcc" d="M245,0h4v5h-4zm4,5h5v9h-5zm5,9h5v9h-5zm5,4h4v9h-4zm4,9h5v10h-5zm5,10h4v9h-4zm4,9h5v9h-5zm5,4h5v10h-5zm5,10h4v9h-4zm4,4h5v9h-5zm5,9h4v9h-4zm4,9h5v5h-5zm5,5h5v9h-5zm5,9h4v9h-4zm4,9h5v5h-5zm5,5h5v9h-5zm5,9h4v5h-4zm4,5h5v9h-5zm5,9h4v4h-4zm4,4h5v10h-5zm5,10h5v4h-5zm5,9h4v4h-4zm4,4h5v9h-5zm5,9h4v5h-4zm4,5h5v9h-5zm5,9h5v5h-5zm5,5h4v9h-4zm4,9h5v5h-5zm5,5h5v9h-5zm5,9h4v4h-4zm4,4h5v9h-5zm5,9h4v5h-4zm4,5h5v9h-5zm5,9h5v5h-5zm5,9h4v5h-4zm4,5h5v4h-5zm5,9h4v5h-4zm4,5h5v4h-5zm5,9h5v4h-5zm5,4h4v10h-4zm4,10h5v4h-5zm5,4h5v5h-5zm5,5h4v4h-4zm4,9h5v4h-5zm5,4h4v5h-4zm4,5h5v5h-5z"></path>
     <path fill="#089fcb" d="M249,0h5v5h-5zm5,5h5v9h-5zm5,4h4v9h-4zm4,9h5v9h-5zm5,9h4v10h-4zm4,10h5v9h-5zm5,4h5v9h-5zm5,9h4v10h-4zm4,10h5v4h-5zm5,4h4v9h-4zm4,9h5v9h-5zm5,5h5v9h-5zm5,9h4v9h-4zm4,9h5v9h-5zm5,9h5v5h-5zm5,5h4v9h-4zm4,9h5v5h-5zm5,5h4v9h-4zm4,9h5v4h-5zm5,4h5v10h-5zm5,10h4v9h-4zm4,9h5v4h-5zm5,4h4v9h-4zm4,9h5v5h-5zm5,5h5v9h-5zm5,9h4v5h-4zm4,5h5v9h-5zm5,9h5v5h-5zm5,5h4v9h-4zm4,9h5v4h-5zm5,9h4v4h-4zm4,4h5v5h-5zm5,10h5v4h-5zm5,4h4v9h-4zm4,9h5v5h-5zm5,9h4v5h-4zm4,5h5v5h-5zm5,9h5v5h-5zm5,5h4v4h-4zm4,9h5v5h-5zm5,5h5v4h-5zm5,4h4v5h-4zm4,5h5v9h-5zm5,9h4v4h-4zm4,4h5v5h-5z"></path>
     <path fill="#06a3ca" d="M254,0h5v5h-5zm5,0h4v9h-4zm4,9h5v9h-5zm5,9h4v9h-4zm4,9h5v10h-5zm5,10h5v4h-5zm5,4h4v9h-4zm4,9h5v10h-5zm5,5h4v9h-4zm4,9h5v9h-5zm5,9h5v5h-5zm5,5h4v9h-4zm4,9h5v9h-5zm5,9h5v9h-5zm5,9h4v5h-4zm4,5h5v9h-5zm5,9h4v5h-4zm4,5h5v9h-5zm5,9h5v4h-5zm5,9h4v5h-4zm4,5h5v9h-5zm5,9h4v4h-4zm4,4h5v9h-5zm5,9h5v5h-5zm5,5h4v9h-4zm4,9h5v5h-5zm5,9h5v5h-5zm5,5h4v5h-4zm4,9h5v5h-5zm5,5h4v9h-4zm4,9h5v4h-5zm5,9h5v5h-5zm5,5h4v4h-4zm4,9h5v4h-5zm5,4h4v9h-4zm4,9h5v5h-5zm5,10h5v4h-5zm5,4h4v5h-4zm4,9h5v5h-5zm5,5h5v5h-5zm5,5h4v4h-4zm4,4h5v5h-5zm5,9h4v5h-4zm4,5h5v4h-5z"></path>
     <path fill="#07a4c9" d="M263,0h5v9h-5zm5,9h4v9h-4zm4,9h5v9h-5zm5,9h5v10h-5zm5,5h4v9h-4zm4,9h5v9h-5zm5,9h4v5h-4zm4,5h5v9h-5zm5,9h5v9h-5zm5,9h4v5h-4zm4,9h5v5h-5zm5,5h5v9h-5zm5,9h4v9h-4zm4,9h5v5h-5zm5,5h4v9h-4zm4,9h5v5h-5zm5,5h5v9h-5zm5,9h4v9h-4zm4,9h5v5h-5zm5,5h4v9h-4zm4,9h5v4h-5zm5,9h5v4h-5zm5,4h4v5h-4zm4,10h5v4h-5zm5,4h5v9h-5zm5,9h4v5h-4zm4,5h5v9h-5zm5,9h4v5h-4zm4,9h5v5h-5zm5,5h5v9h-5zm5,9h4v5h-4zm4,9h5v5h-5zm5,5h4v4h-4zm4,9h5v4h-5zm5,4h5v10h-5zm5,10h4v4h-4zm4,9h5v4h-5zm5,4h5v5h-5zm5,5h4v5h-4zm4,5h5v4h-5zm5,9h4v4h-4zm4,4h5v5h-5z"></path>
     <path fill="#0ba6c5" d="M268,0h4v9h-4zm4,9h5v9h-5zm5,9h5v9h-5zm5,5h4v9h-4zm4,9h5v9h-5zm5,9h4v9h-4zm4,9h5v5h-5zm5,5h5v9h-5zm5,9h4v9h-4zm4,9h5v9h-5zm5,9h5v5h-5zm5,5h4v9h-4zm4,9h5v9h-5zm5,9h4v5h-4zm4,5h5v9h-5zm5,9h5v5h-5zm5,9h4v5h-4zm4,5h5v9h-5zm5,9h4v5h-4zm4,5h5v9h-5zm5,9h5v9h-5zm5,9h4v4h-4zm4,4h5v10h-5zm5,10h5v4h-5zm5,9h4v4h-4zm4,4h5v5h-5zm5,10h4v4h-4zm4,4h5v9h-5zm5,9h5v5h-5zm5,9h4v5h-4zm4,5h5v9h-5zm5,9h4v5h-4zm4,9h5v5h-5zm5,5h5v4h-5zm5,9h4v5h-4zm4,5h5v9h-5zm5,9h5v4h-5zm5,4h4v5h-4zm4,5h5v5h-5zm5,5h4v9h-4zm4,9h5v4h-5z"></path>
     <path fill="#0da7c3" d="M272,0h5v9h-5zm5,9h5v9h-5zm5,9h4v5h-4zm4,5h5v9h-5zm5,9h4v9h-4zm4,9h5v9h-5zm5,9h5v5h-5zm5,5h4v9h-4zm4,9h5v9h-5zm5,9h5v9h-5zm5,9h4v5h-4zm4,5h5v9h-5zm5,9h4v9h-4zm4,9h5v5h-5zm5,5h5v9h-5zm5,9h4v9h-4zm4,9h5v5h-5zm5,5h4v9h-4zm4,9h5v5h-5zm5,9h5v5h-5zm5,5h4v9h-4zm4,9h5v4h-5zm5,9h5v5h-5zm5,5h4v9h-4zm4,9h5v4h-5zm5,4h4v10h-4zm4,10h5v4h-5zm5,9h5v4h-5zm5,9h4v4h-4zm4,4h5v5h-5zm5,10h4v4h-4zm4,9h5v4h-5zm5,4h5v5h-5zm5,9h4v5h-4zm4,5h5v5h-5zm5,9h5v5h-5zm5,5h4v4h-4zm4,4h5v5h-5zm5,5h4v5h-4zm4,9h5v5h-5z"></path>
     <path fill="#11a9bf" d="M277,0h5v9h-5zm5,9h4v9h-4zm4,9h5v5h-5zm5,5h4v9h-4zm4,9h5v9h-5zm5,9h5v9h-5zm5,9h4v5h-4zm4,10h5v4h-5zm5,4h5v9h-5zm5,9h4v9h-4zm4,9h5v5h-5zm5,10h4v4h-4zm4,4h5v9h-5zm5,9h5v5h-5zm5,10h4v4h-4zm4,4h5v9h-5zm5,9h4v5h-4zm4,9h5v5h-5zm5,5h5v9h-5zm5,9h4v5h-4zm4,9h5v5h-5zm5,5h5v9h-5zm5,9h4v5h-4zm4,9h5v5h-5zm5,5h4v4h-4zm4,9h5v5h-5zm5,9h5v5h-5zm5,5h4v9h-4zm4,9h5v4h-5zm5,9h4v5h-4zm4,5h5v9h-5zm5,9h5v4h-5zm5,9h4v4h-4zm4,4h5v5h-5zm5,10h5v4h-5zm5,4h4v5h-4zm4,5h5v4h-5zm5,4h4v5h-4zm4,10h5v4h-5z"></path>
     <path fill="#15abbc" d="M282,0h4v9h-4zm4,9h5v9h-5zm5,9h4v5h-4zm4,5h5v9h-5zm5,9h5v9h-5zm5,9h4v9h-4zm4,9h5v10h-5zm5,10h5v4h-5zm5,9h4v4h-4zm4,4h5v9h-5zm5,9h4v10h-4zm4,10h5v4h-5zm5,4h5v9h-5zm5,9h4v10h-4zm4,10h5v4h-5zm5,9h4v4h-4zm4,4h5v9h-5zm5,9h5v5h-5zm5,10h4v4h-4zm4,4h5v9h-5zm5,9h5v5h-5zm5,9h4v5h-4zm4,5h5v9h-5zm5,9h4v5h-4zm4,9h5v5h-5zm5,5h5v9h-5zm5,9h4v5h-4zm4,9h5v5h-5zm5,9h4v5h-4zm4,5h5v5h-5zm5,9h5v5h-5zm5,9h4v5h-4zm4,5h5v4h-5zm5,9h5v5h-5zm5,5h4v4h-4zm4,4h5v5h-5zm5,5h4v4h-4zm4,9h5v5h-5z"></path>
     <path fill="#17acb9" d="M286,0h5v9h-5zm5,9h4v9h-4zm4,9h5v5h-5zm5,5h5v9h-5zm5,9h4v9h-4zm4,9h5v9h-5zm5,9h5v10h-5zm5,10h4v9h-4zm4,9h5v4h-5zm5,4h4v9h-4zm4,9h5v10h-5zm5,10h5v4h-5zm5,9h4v4h-4zm4,4h5v10h-5zm5,10h4v9h-4zm4,9h5v4h-5zm5,9h5v4h-5zm5,4h4v10h-4zm4,10h5v4h-5zm5,9h5v4h-5zm5,4h4v9h-4zm4,9h5v5h-5zm5,10h4v4h-4zm4,4h5v9h-5zm5,9h5v5h-5zm5,10h4v4h-4zm4,9h5v4h-5zm5,4h4v9h-4zm4,9h5v5h-5zm5,10h5v4h-5zm5,4h4v9h-4zm4,9h5v5h-5zm5,5h5v9h-5zm5,9h4v5h-4zm4,5h5v4h-5zm5,4h4v5h-4zm4,9h5v5h-5z"></path>
     <path fill="#1baeb6" d="M291,0h4v9h-4zm4,9h5v9h-5zm5,9h5v5h-5zm5,9h4v5h-4zm4,10h5v4h-5zm5,4h5v9h-5zm5,9h4v10h-4zm4,10h5v9h-5zm5,9h4v4h-4zm4,9h5v4h-5zm5,4h5v10h-5zm5,10h4v9h-4zm4,9h5v4h-5zm5,9h4v5h-4zm4,5h5v9h-5zm5,9h5v9h-5zm5,9h4v4h-4zm4,9h5v5h-5zm5,5h5v9h-5zm5,9h4v4h-4zm4,9h5v4h-5zm5,4h4v10h-4zm4,10h5v4h-5zm5,9h5v4h-5zm5,9h4v5h-4zm4,5h5v9h-5zm5,9h4v4h-4zm4,9h5v4h-5zm5,9h5v5h-5zm5,5h4v4h-4zm4,9h5v4h-5zm5,4h5v5h-5zm5,9h4v5h-4zm4,5h5v5h-5zm5,5h4v4h-4zm4,9h5v4h-5z"></path>
     <path fill="#1eafb3" d="M295,0h5v9h-5zm5,9h5v9h-5zm5,9h4v9h-4zm4,9h5v10h-5zm5,10h5v4h-5zm5,9h4v4h-4zm4,9h5v5h-5zm5,5h4v9h-4zm4,9h5v9h-5zm5,9h5v4h-5zm5,9h4v5h-4zm4,5h5v9h-5zm5,9h4v9h-4zm4,9h5v5h-5zm5,9h5v5h-5zm5,9h4v5h-4zm4,5h5v9h-5zm5,9h5v5h-5zm5,9h4v5h-4zm4,5h5v9h-5zm5,9h4v4h-4zm4,9h5v5h-5zm5,9h5v5h-5zm5,9h4v5h-4zm4,5h5v5h-5zm5,9h4v5h-4zm4,9h5v5h-5zm5,9h5v5h-5zm5,5h4v5h-4zm4,9h5v5h-5zm5,5h5v4h-5zm5,9h4v4h-4zm4,4h5v5h-5zm5,5h4v5h-4zm4,9h5v5h-5z"></path>
     <path fill="#21b1b0" d="M300,0h5v9h-5zm5,9h4v9h-4zm4,9h5v9h-5zm5,9h5v10h-5zm5,10h4v9h-4zm4,9h5v9h-5zm5,9h4v5h-4zm4,9h5v5h-5zm5,5h5v9h-5zm5,9h4v9h-4zm4,9h5v5h-5zm5,9h4v5h-4zm4,9h5v5h-5zm5,5h5v9h-5zm5,9h4v9h-4zm4,9h5v5h-5zm5,9h5v5h-5zm5,5h4v9h-4zm4,9h5v5h-5zm5,9h4v5h-4zm4,9h5v5h-5zm5,10h5v4h-5zm5,4h4v9h-4zm4,9h5v5h-5zm5,10h4v4h-4zm4,9h5v4h-5zm5,4h5v9h-5zm5,9h4v5h-4zm4,10h5v4h-5zm5,4h5v5h-5zm5,9h4v5h-4zm4,5h5v4h-5zm5,4h4v5h-4zm4,10h5v4h-5z"></path>
     <path fill="#24b2ad" d="M305,0h4v9h-4zm4,14h5v4h-5zm5,9h5v4h-5zm5,9h4v5h-4zm4,5h5v9h-5zm5,9h4v9h-4zm4,9h5v9h-5zm5,9h5v5h-5zm5,9h4v5h-4zm4,9h5v5h-5zm5,5h4v9h-4zm4,9h5v9h-5zm5,9h5v5h-5zm5,10h4v4h-4zm4,9h5v4h-5zm5,4h5v9h-5zm5,9h4v5h-4zm4,10h5v4h-5zm5,9h4v4h-4zm4,4h5v9h-5zm5,9h5v10h-5zm5,10h4v4h-4zm4,9h5v4h-5zm5,9h4v5h-4zm4,5h5v9h-5zm5,9h5v4h-5zm5,9h4v4h-4zm4,9h5v5h-5zm5,5h5v4h-5zm5,9h4v4h-4zm4,4h5v5h-5zm5,5h4v4h-4zm4,9h5v5h-5z"></path>
     <path fill="#28b4aa" d="M309,5h5v9h-5zm5,9h5v9h-5zm5,9h4v9h-4zm4,9h5v5h-5zm5,9h4v5h-4zm4,5h5v9h-5zm5,9h5v9h-5zm5,9h4v9h-4zm4,9h5v9h-5zm5,9h4v5h-4zm4,10h5v4h-5zm5,9h5v4h-5zm5,4h4v10h-4zm4,10h5v9h-5zm5,9h5v4h-5zm5,9h4v4h-4zm4,9h5v5h-5zm5,5h4v9h-4zm4,9h5v4h-5zm5,9h5v4h-5zm5,9h4v5h-4zm4,9h5v5h-5zm5,5h4v9h-4zm4,9h5v5h-5zm5,9h5v5h-5zm5,9h4v5h-4zm4,9h5v5h-5zm5,5h5v5h-5zm5,9h4v5h-4zm4,5h5v4h-5zm5,4h4v5h-4zm4,9h5v5h-5z"></path>
     <path fill="#2ab5a7" d="M309,0h5v5h-5zm5,5h5v9h-5zm5,9h4v9h-4zm4,9h5v9h-5zm5,9h4v9h-4zm4,9h5v5h-5zm5,9h5v5h-5zm5,10h4v4h-4zm4,9h5v4h-5zm5,9h4v4h-4zm4,4h5v10h-5zm5,10h5v9h-5zm5,9h4v4h-4zm4,9h5v5h-5zm5,9h5v5h-5zm5,5h4v9h-4zm4,9h5v9h-5zm5,9h4v5h-4zm4,9h5v5h-5zm5,9h5v5h-5zm5,9h4v5h-4zm4,10h5v4h-5zm5,4h4v5h-4zm4,9h5v5h-5zm5,10h5v4h-5zm5,9h4v4h-4zm4,4h5v9h-5zm5,9h5v5h-5zm5,5h4v9h-4zm4,9h5v5h-5zm5,5h4v4h-4zm4,9h5v4h-5z"></path>
     <path fill="#2eb7a4" d="M314,0h5v5h-5zm5,9h4v5h-4zm4,9h5v5h-5zm5,5h4v9h-4zm4,9h5v9h-5zm5,9h5v9h-5zm5,9h4v10h-4zm4,10h5v9h-5zm5,9h4v9h-4zm4,9h5v4h-5zm5,9h5v5h-5zm5,9h4v5h-4zm4,9h5v5h-5zm5,5h5v9h-5zm5,9h4v5h-4zm4,9h5v5h-5zm5,9h4v5h-4zm4,10h5v4h-5zm5,9h5v4h-5zm5,9h4v4h-4zm4,4h5v10h-5zm5,10h4v4h-4zm4,9h5v4h-5zm5,9h5v5h-5zm5,9h4v5h-4zm4,5h5v4h-5zm5,9h5v4h-5zm5,4h4v5h-4zm4,10h5v4h-5zm5,4h4v5h-4zm4,9h5v5h-5z"></path>
     <path fill="#36b8a0" d="M319,0h4v9h-4zm4,9h5v9h-5zm5,9h4v5h-4zm4,9h5v5h-5zm5,10h5v4h-5zm5,9h4v4h-4zm4,9h5v5h-5zm5,9h4v5h-4zm4,9h5v5h-5zm5,5h5v9h-5zm5,9h4v9h-4zm4,9h5v9h-5zm5,9h5v5h-5zm5,10h4v4h-4zm4,9h5v4h-5zm5,9h4v4h-4zm4,4h5v10h-5zm5,10h5v9h-5zm5,9h4v9h-4zm4,9h5v4h-5zm5,9h4v5h-4zm4,9h5v5h-5zm5,9h5v5h-5zm5,10h4v4h-4zm4,4h5v5h-5zm5,9h5v5h-5zm5,5h4v4h-4zm4,9h5v5h-5zm5,5h4v4h-4zm4,4h5v9h-5z"></path>
     <path fill="#3cb89d" d="M323,0h5v9h-5zm5,9h4v9h-4zm4,9h5v9h-5zm5,9h5v10h-5zm5,10h4v9h-4zm4,9h5v9h-5zm5,9h4v9h-4zm4,9h5v9h-5zm5,9h5v5h-5zm5,9h4v5h-4zm4,10h5v4h-5zm5,9h5v4h-5zm5,9h4v5h-4zm4,5h5v9h-5zm5,9h4v9h-4zm4,9h5v4h-5zm5,9h5v5h-5zm5,9h4v5h-4zm4,9h5v5h-5zm5,9h4v5h-4zm4,10h5v4h-5zm5,9h5v4h-5zm5,4h4v10h-4zm4,10h5v4h-5zm5,9h5v4h-5zm5,4h4v5h-4zm4,9h5v5h-5zm5,5h4v5h-4zm4,5h5v4h-5z"></path>
     <path fill="#44b999" d="M328,5h4v4h-4zm4,9h5v4h-5zm5,9h5v4h-5zm5,9h4v5h-4zm4,9h5v5h-5zm5,9h4v5h-4zm4,10h5v4h-5zm5,9h5v4h-5zm5,9h4v4h-4zm4,4h5v10h-5zm5,10h5v9h-5zm5,9h4v9h-4zm4,9h5v5h-5zm5,9h4v5h-4zm4,9h5v5h-5zm5,9h5v5h-5zm5,10h4v4h-4zm4,9h5v4h-5zm5,9h4v4h-4zm4,9h5v5h-5zm5,5h5v9h-5zm5,9h4v4h-4zm4,9h5v5h-5zm5,9h5v5h-5zm5,5h4v4h-4zm4,9h5v4h-5zm5,4h4v5h-4zm4,5h5v5h-5z"></path>
     <path fill="#4aba96" d="M328,0h4v5h-4zm4,5h5v9h-5zm5,9h5v9h-5zm5,9h4v9h-4zm4,9h5v9h-5zm5,9h4v9h-4zm4,9h5v10h-5zm5,10h5v9h-5zm5,9h4v9h-4zm4,9h5v4h-5zm5,9h5v5h-5zm5,9h4v5h-4zm4,9h5v5h-5zm5,10h4v4h-4zm4,9h5v4h-5zm5,9h5v4h-5zm5,9h4v5h-4zm4,9h5v5h-5zm5,5h4v9h-4zm4,9h5v9h-5zm5,9h5v5h-5zm5,9h4v5h-4zm4,9h5v5h-5zm5,10h5v4h-5zm5,4h4v5h-4zm4,9h5v5h-5zm5,5h4v4h-4zm4,4h5v5h-5z"></path>
     <path fill="#52ba92" d="M332,0h5v5h-5zm5,9h5v5h-5zm5,9h4v5h-4zm4,9h5v5h-5zm5,10h4v4h-4zm4,9h5v4h-5zm5,9h5v5h-5zm5,9h4v5h-4zm4,9h5v5h-5zm5,9h5v5h-5zm5,10h4v4h-4zm4,9h5v4h-5zm5,4h4v10h-4zm4,10h5v9h-5zm5,9h5v9h-5zm5,13h4v5h-4zm4,5h5v9h-5zm5,9h4v5h-4zm4,9h5v5h-5zm5,9h5v5h-5zm5,10h4v4h-4zm4,9h5v4h-5zm5,9h5v5h-5zm5,5h4v4h-4zm4,9h5v4h-5zm5,4h4v5h-4zm4,5h5v4h-5z"></path>
     <path fill="#58bb8f" d="M337,0h5v9h-5zm5,9h4v9h-4zm4,9h5v9h-5zm5,9h4v10h-4zm4,10h5v9h-5zm5,9h5v9h-5zm5,9h4v9h-4zm4,9h5v9h-5zm5,9h5v9h-5zm5,9h4v10h-4zm4,10h5v9h-5zm5,9h4v4h-4zm4,9h5v5h-5zm5,9h5v5h-5zm5,9h4v9h-4zm4,9h5v5h-5zm5,10h4v4h-4zm4,9h5v4h-5zm5,9h5v4h-5zm5,9h4v5h-4zm4,9h5v5h-5zm5,5h5v9h-5zm5,9h4v5h-4zm4,9h5v5h-5zm5,5h4v4h-4zm4,4h5v5h-5z"></path>
     <path fill="#60bc8b" d="M342,5h4v4h-4zm4,9h5v4h-5zm5,9h4v4h-4zm4,9h5v5h-5zm5,9h5v5h-5zm5,9h4v5h-4zm4,10h5v4h-5zm5,9h5v4h-5zm5,9h4v4h-4zm4,9h5v5h-5zm5,9h4v5h-4zm4,9h5v5h-5zm5,10h5v4h-5zm5,9h4v4h-4zm4,9h5v4h-5zm5,9h4v5h-4zm4,9h5v5h-5zm5,9h5v5h-5zm5,9h4v5h-4zm4,10h5v4h-5zm5,4h5v5h-5zm5,9h4v5h-4zm4,5h5v9h-5zm5,9h4v5h-4zm4,5h5v4h-5z"></path>
     <path fill="#66bc88" d="M342,0h4v5h-4zm4,5h5v9h-5zm5,9h4v9h-4zm4,13h5v5h-5zm5,10h5v4h-5zm5,9h4v4h-4zm4,9h5v5h-5zm5,9h5v5h-5zm5,9h4v5h-4zm4,9h5v5h-5zm5,10h4v4h-4zm4,9h5v4h-5zm5,9h5v5h-5zm5,9h4v5h-4zm4,9h5v5h-5zm5,9h4v5h-4zm4,10h5v4h-5zm5,9h5v4h-5zm5,9h4v4h-4zm4,9h5v5h-5zm5,5h5v4h-5zm5,9h4v4h-4zm4,4h5v5h-5zm5,10h4v4h-4zm4,4h5v5h-5z"></path>
     <path fill="#6ebd84" d="M346,0h5v5h-5zm5,9h4v5h-4zm4,9h5v9h-5zm5,9h5v10h-5zm5,10h4v9h-4zm4,9h5v9h-5zm5,9h5v9h-5zm5,9h4v9h-4zm4,9h5v9h-5zm5,9h4v10h-4zm4,10h5v9h-5zm5,13h5v5h-5zm5,10h4v4h-4zm4,9h5v4h-5zm5,9h4v4h-4zm4,9h5v5h-5zm5,9h5v5h-5zm5,9h4v5h-4zm4,5h5v9h-5zm5,9h5v5h-5zm5,9h4v5h-4zm4,5h5v4h-5zm5,9h4v5h-4zm4,5h5v4h-5z"></path>
     <path fill="#74bd81" d="M351,5h4v4h-4zm4,9h5v4h-5zm5,9h5v4h-5zm5,9h4v5h-4zm4,9h5v5h-5zm5,9h5v5h-5zm5,10h4v4h-4zm4,9h5v4h-5zm5,9h4v4h-4zm4,9h5v5h-5zm5,9h5v9h-5zm5,9h4v10h-4zm4,10h5v9h-5zm5,9h4v9h-4zm4,9h5v9h-5zm5,9h5v9h-5zm5,9h4v9h-4zm4,9h5v5h-5zm5,9h5v5h-5zm5,10h4v4h-4zm4,4h5v5h-5zm5,9h4v5h-4zm4,5h5v5h-5z"></path>
     <path fill="#7cbe7d" d="M351,0h4v5h-4zm4,5h5v9h-5zm5,9h5v9h-5zm5,13h4v5h-4zm4,10h5v4h-5zm5,9h5v4h-5zm5,9h4v5h-4zm4,9h5v5h-5zm5,9h4v5h-4zm4,9h5v5h-5zm5,10h5v4h-5zm5,9h4v4h-4zm4,9h5v5h-5zm5,9h4v5h-4zm4,9h5v5h-5zm5,9h5v5h-5zm5,10h4v4h-4zm4,9h5v4h-5zm5,9h5v4h-5zm5,9h4v5h-4zm4,5h5v4h-5zm5,9h4v4h-4zm4,4h5v5h-5z"></path>
     <path fill="#84bf78" d="M355,0h5v5h-5zm5,9h5v5h-5zm5,9h4v9h-4zm4,9h5v10h-5zm5,10h5v9h-5zm5,9h4v9h-4zm4,9h5v9h-5zm5,9h4v9h-4zm4,14h5v4h-5zm5,9h5v5h-5zm5,9h4v5h-4zm4,9h5v5h-5zm5,10h4v4h-4zm4,9h5v4h-5zm5,9h5v4h-5zm5,9h4v5h-4zm4,9h5v5h-5zm5,9h5v5h-5zm5,9h4v5h-4zm4,5h5v5h-5zm5,9h4v5h-4zm4,5h5v4h-5z"></path>
     <path fill="#89bf76" d="M360,5h5v4h-5zm5,9h4v4h-4zm4,9h5v4h-5zm5,9h5v5h-5zm5,9h4v5h-4zm4,9h5v5h-5zm5,10h4v4h-4zm4,9h5v9h-5zm5,13h5v5h-5zm5,10h4v4h-4zm4,9h5v4h-5zm5,9h4v5h-4zm4,9h5v5h-5zm5,9h5v5h-5zm5,9h4v5h-4zm4,10h5v4h-5zm5,9h5v4h-5zm5,4h4v9h-4zm4,9h5v5h-5zm5,10h4v4h-4zm4,4h5v5h-5z"></path>
     <path fill="#90bf73" d="M360,0h5v5h-5zm5,5h4v9h-4zm4,9h5v9h-5zm5,13h5v5h-5zm5,10h4v4h-4zm4,9h5v4h-5zm5,9h4v5h-4zm4,9h5v5h-5zm5,9h5v9h-5zm5,14h4v5h-4zm4,9h5v5h-5zm5,9h4v5h-4zm4,10h5v4h-5zm5,9h5v4h-5zm5,9h4v4h-4zm4,9h5v5h-5zm5,9h5v5h-5zm5,5h4v4h-4zm4,9h5v4h-5zm5,9h4v5h-4zm4,5h5v4h-5z"></path>
     <path fill="#95be71" d="M365,0h4v5h-4zm4,9h5v5h-5zm5,9h5v9h-5zm5,9h4v10h-4zm4,10h5v9h-5zm5,13h4v5h-4zm4,10h5v4h-5zm5,9h5v4h-5zm5,9h4v9h-4zm4,9h5v9h-5zm5,9h4v9h-4zm4,14h5v5h-5zm5,9h5v5h-5zm5,9h4v5h-4zm4,9h5v5h-5zm5,10h5v4h-5zm5,4h4v5h-4zm4,9h5v5h-5zm5,9h4v5h-4zm4,5h5v5h-5z"></path>
     <path fill="#9cbe6f" d="M369,5h5v4h-5zm5,9h5v4h-5zm5,9h4v4h-4zm4,9h5v5h-5zm5,9h4v9h-4zm4,14h5v5h-5zm5,9h5v5h-5zm5,9h4v5h-4zm4,9h5v5h-5zm5,10h4v4h-4zm4,9h5v9h-5zm5,14h5v4h-5zm5,9h4v4h-4zm4,9h5v4h-5zm5,4h5v10h-5zm5,10h4v4h-4zm4,9h5v4h-5zm5,9h4v4h-4zm4,4h5v5h-5z"></path>
     <path fill="#a0be6d" d="M369,0h5v5h-5zm5,9h5v5h-5zm5,9h4v5h-4zm4,9h5v5h-5zm5,10h4v4h-4zm4,9h5v9h-5zm5,14h5v4h-5zm5,9h4v4h-4zm4,9h5v4h-5zm5,9h4v5h-4zm4,9h5v5h-5zm5,9h5v10h-5zm5,10h4v9h-4zm4,9h5v9h-5zm5,9h5v4h-5zm5,9h4v5h-4zm4,9h5v5h-5zm5,5h4v9h-4zm4,9h5v4h-5z"></path>
     <path fill="#a7bd6a" d="M374,0h5v9h-5zm5,9h4v9h-4zm4,14h5v4h-5zm5,9h4v5h-4zm4,9h5v5h-5zm5,9h5v10h-5zm5,14h4v5h-4zm4,9h5v5h-5zm5,9h4v5h-4zm4,10h5v4h-5zm5,9h5v4h-5zm5,9h4v5h-4zm4,9h5v5h-5zm5,9h5v5h-5zm5,9h4v5h-4zm4,10h5v4h-5zm5,4h4v5h-4zm4,9h5v5h-5z"></path>
     <path fill="#acbd68" d="M379,5h4v4h-4zm4,9h5v9h-5zm5,9h4v9h-4zm4,14h5v4h-5zm5,9h5v4h-5zm5,9h4v9h-4zm4,9h5v9h-5zm5,14h4v4h-4zm4,9h5v5h-5zm5,9h5v5h-5zm5,9h4v5h-4zm4,10h5v4h-5zm5,9h5v4h-5zm5,9h4v4h-4zm4,9h5v5h-5zm5,5h4v4h-4zm4,9h5v4h-5z"></path>
     <path fill="#b3bd65" d="M379,0h4v5h-4zm4,9h5v5h-5zm5,9h4v5h-4zm4,9h5v10h-5zm5,14h5v5h-5zm5,9h4v5h-4zm4,10h5v4h-5zm5,9h4v9h-4zm4,13h5v5h-5zm5,10h5v4h-5zm5,9h4v4h-4zm4,9h5v5h-5zm5,9h5v5h-5zm5,9h4v5h-4zm4,9h5v5h-5zm5,5h4v5h-4zm4,9h5v5h-5z"></path>
     <path fill="#babc62" d="M383,5h5v4h-5zm5,9h4v4h-4zm4,9h5v4h-5zm5,14h5v4h-5zm5,9h4v4h-4zm4,9h5v5h-5zm5,9h4v5h-4zm4,9h5v9h-5zm5,14h5v5h-5zm5,9h4v5h-4zm4,9h5v5h-5zm5,10h5v4h-5zm5,9h4v4h-4zm4,9h5v4h-5zm5,4h4v5h-4zm4,10h5v4h-5z"></path>
     <path fill="#bebc61" d="M383,0h5v5h-5zm5,5h4v9h-4zm4,13h5v5h-5zm5,9h5v10h-5zm5,14h4v5h-4zm4,9h5v5h-5zm5,10h4v4h-4zm4,9h5v4h-5zm5,13h5v5h-5zm5,10h4v4h-4zm4,9h5v4h-5zm5,9h5v5h-5zm5,9h4v5h-4zm4,5h5v9h-5zm5,9h4v4h-4zm4,9h5v5h-5z"></path>
     <path fill="#c5bc5e" d="M388,0h4v5h-4zm4,14h5v4h-5zm5,9h5v4h-5zm5,9h4v9h-4zm4,14h5v4h-5zm5,9h4v5h-4zm4,9h5v5h-5zm5,9h5v9h-5zm5,14h4v5h-4zm4,9h5v5h-5zm5,9h5v5h-5zm5,10h4v4h-4zm4,4h5v5h-5zm5,9h4v5h-4zm4,9h5v5h-5z"></path>
     <path fill="#cabb5c" d="M392,5h5v9h-5zm5,13h5v5h-5zm5,9h4v5h-4zm4,10h5v9h-5zm5,13h4v5h-4zm4,10h5v4h-5zm5,9h5v4h-5zm5,9h4v9h-4zm4,14h5v4h-5zm5,9h5v4h-5zm5,4h4v10h-4zm4,10h5v4h-5zm5,9h4v4h-4zm4,9h5v4h-5z"></path>
     <path fill="#d1bb59" d="M392,0h5v5h-5zm5,9h5v9h-5zm5,14h4v4h-4zm4,9h5v5h-5zm5,9h4v9h-4zm4,14h5v5h-5zm5,9h5v5h-5zm5,9h4v5h-4zm4,9h5v10h-5zm5,10h5v9h-5zm5,9h4v4h-4zm4,9h5v5h-5zm5,9h4v5h-4zm4,9h5v5h-5z"></path>
     <path fill="#d4bc57" d="M397,5h5v4h-5zm5,13h4v5h-4zm4,9h5v5h-5zm5,10h4v4h-4zm4,9h5v9h-5zm5,14h5v4h-5zm5,9h4v4h-4zm4,9h5v4h-5zm5,9h5v5h-5zm5,9h4v5h-4zm4,9h5v5h-5zm5,10h4v4h-4zm4,9h5v4h-5z"></path>
     <path fill="#d8bd53" d="M397,0h5v5h-5zm5,9h4v9h-4zm4,14h5v4h-5zm5,9h4v5h-4zm4,9h5v5h-5zm5,14h5v5h-5zm5,9h4v5h-4zm4,9h5v5h-5zm5,9h5v5h-5zm5,10h4v4h-4zm4,9h5v4h-5zm5,9h4v5h-4zm4,9h5v5h-5z"></path>
     <path fill="#dbbe51" d="M402,5h4v4h-4zm4,9h5v9h-5zm5,13h4v5h-4zm4,10h5v4h-5zm5,9h5v9h-5zm5,14h4v4h-4zm4,9h5v4h-5zm5,9h5v4h-5zm5,9h4v5h-4zm4,9h5v5h-5zm5,9h4v5h-4zm4,10h5v4h-5z"></path>
     <path fill="#dfbf4d" d="M402,0h4v5h-4zm4,9h5v5h-5zm5,9h4v9h-4zm4,14h5v5h-5zm5,9h5v5h-5zm5,14h4v5h-4zm4,9h5v5h-5zm5,9h5v5h-5zm5,9h4v5h-4zm4,10h5v4h-5zm5,9h4v4h-4zm4,4h5v10h-5z"></path>
     <path fill="#e2c04b" d="M406,5h5v4h-5zm5,9h4v4h-4zm4,13h5v5h-5zm5,10h5v4h-5zm5,9h4v9h-4zm4,14h5v4h-5zm5,9h5v4h-5zm5,9h4v4h-4zm4,9h5v5h-5zm5,9h4v5h-4zm4,5h5v4h-5z"></path>
     <path fill="#e6c147" d="M406,0h5v5h-5zm5,9h4v5h-4zm4,9h5v9h-5zm5,14h5v5h-5zm5,9h4v5h-4zm4,14h5v5h-5zm5,9h5v5h-5zm5,9h4v5h-4zm4,9h5v5h-5zm5,5h4v9h-4zm4,9h5v5h-5z"></path>
     <path fill="#eac343" d="M411,5h4v4h-4zm4,9h5v4h-5zm5,13h5v5h-5zm5,10h4v4h-4zm4,9h5v9h-5zm5,9h5v9h-5zm5,14h4v4h-4zm4,4h5v9h-5zm5,9h4v5h-4zm4,10h5v4h-5z"></path>
     <path fill="#edc341" d="M411,0h4v5h-4zm4,9h5v5h-5zm5,14h5v4h-5zm5,9h4v5h-4zm4,9h5v5h-5zm5,9h5v5h-5zm5,10h4v9h-4zm4,9h5v4h-5zm5,9h4v4h-4zm4,9h5v5h-5z"></path>
     <path fill="#f1c53d" d="M415,5h5v4h-5zm5,9h5v9h-5zm5,13h4v5h-4zm4,10h5v4h-5zm5,9h5v4h-5zm5,9h4v5h-4zm4,9h5v5h-5zm5,9h4v5h-4zm4,9h5v5h-5z"></path>
     <path fill="#f4c63b" d="M415,0h5v5h-5zm5,9h5v5h-5zm5,14h4v4h-4zm4,9h5v5h-5zm5,9h5v5h-5zm5,9h4v5h-4zm4,10h5v4h-5zm5,9h4v4h-4zm4,9h5v4h-5z"></path>
     <path fill="#f8c737" d="M420,5h5v4h-5zm5,9h4v9h-4zm4,13h5v5h-5zm5,10h5v4h-5zm5,9h4v4h-4zm4,9h5v5h-5zm5,9h4v5h-4zm4,9h5v5h-5z"></path>
     <path fill="#fbc835" d="M420,0h5v5h-5zm5,9h4v5h-4zm4,14h5v4h-5zm5,9h5v5h-5zm5,9h4v5h-4zm4,9h5v5h-5zm5,10h4v4h-4zm4,9h5v4h-5z"></path>
     <path fill="#feca31" d="M425,5h4v4h-4zm4,9h5v9h-5zm5,13h5v5h-5zm5,10h4v4h-4zm4,9h5v4h-5zm5,9h4v5h-4zm4,9h5v5h-5z"></path>
     <path fill="#fdcd2f" d="M425,0h4v5h-4zm4,9h5v5h-5zm5,9h5v9h-5zm5,14h4v5h-4zm4,9h5v5h-5zm5,9h4v5h-4zm4,10h5v4h-5z"></path>
     <path fill="#fdd22b" d="M429,5h5v4h-5zm5,9h5v4h-5zm5,9h4v9h-4zm4,14h5v4h-5zm5,9h4v4h-4zm4,9h5v5h-5z"></path>
     <path fill="#fdd728" d="M429,0h5v5h-5zm5,9h5v5h-5zm5,9h4v5h-4zm4,9h5v10h-5zm5,10h4v9h-4zm4,9h5v9h-5z"></path>
     <path fill="#fcda26" d="M434,5h5v4h-5zm5,9h4v4h-4zm4,9h5v4h-5zm5,9h4v5h-4zm4,9h5v5h-5z"></path>
     <path fill="#fcde22" d="M434,0h5v5h-5zm5,9h4v5h-4zm4,9h5v5h-5zm5,9h4v5h-4zm4,10h5v4h-5z"></path>
     <path fill="#fbe220" d="M439,5h4v4h-4zm4,9h5v4h-5zm5,9h4v4h-4zm4,9h5v5h-5z"></path>
     <path fill="#fbe61d" d="M439,0h4v5h-4zm4,9h5v5h-5zm5,9h4v5h-4zm4,9h5v5h-5z"></path>
     <path fill="#fbe91a" d="M443,5h5v4h-5zm5,9h4v4h-4zm4,9h5v4h-5z"></path>
     <path fill="#faee17" d="M443,0h5v5h-5zm5,9h4v5h-4zm4,9h5v5h-5z"></path>
     <path fill="#faf115" d="M448,5h4v4h-4zm4,9h5v4h-5z"></path>
     <path fill="#f9f611" d="M448,0h4v5h-4zm4,9h5v5h-5z"></path>
     <path fill="#f9f90f" d="M452,0h5v9h-5z"></path>
    </g>
   </svg>
   <g>
    <g transform="translate(0,458)">
     <path d="M0,0h457M0,-9V0M12,-9V0M23,-17V0M35,-9V0M46,-9V0M58,-9V0M69,-17V0M81,-9V0M92,-9V0M104,-9V0M115,-17V0M127,-9V0M138,-9V0M150,-9V0M161,-17V0M173,-9V0M184,-9V0M196,-9V0M207,-17V0M219,-9V0M230,-9V0M242,-9V0M253,-17V0M265,-9V0M276,-9V0M288,-9V0M299,-17V0M311,-9V0M322,-9V0M334,-9V0M346,-17V0M357,-9V0M369,-9V0M380,-9V0M392,-17V0M403,-9V0M415,-9V0M426,-9V0M438,-17V0M449,-9V0" style="stroke: black; stroke-width: 1;"></path>
     <g font-family="Arial" font-size="20" space="preserve" fill="black" text-anchor="middle">
      <text dy=".8em" transform="translate(23,5)">
       116
      </text>
      <text dy=".8em" transform="translate(69,5)">
       118
      </text>
      <text dy=".8em" transform="translate(115,5)">
       120
      </text>
      <text dy=".8em" transform="translate(161,5)">
       122
      </text>
      <text dy=".8em" transform="translate(207,5)">
       124
      </text>
      <text dy=".8em" transform="translate(253,5)">
       126
      </text>
      <text dy=".8em" transform="translate(299,5)">
       128
      </text>
      <text dy=".8em" transform="translate(346,5)">
       130
      </text>
      <text dy=".8em" transform="translate(392,5)">
       132
      </text>
      <text dy=".8em" transform="translate(438,5)">
       134
      </text>
     </g>
     <g font-family="Arial" font-size="20" space="preserve" transform="translate(457,32)">
      <text fill="black" text-anchor="end" dy=".4em">
       Mass (GeV)
      </text>
     </g>
    </g>
    <g>
     <path d="M0,0v458M9,449H0M9,440H0M9,431H0M9,421H0M17,412H0M9,403H0M9,394H0M9,385H0M9,376H0M17,366H0M9,357H0M9,348H0M9,339H0M9,330H0M17,321H0M9,311H0M9,302H0M9,293H0M9,284H0M17,275H0M9,266H0M9,256H0M9,247H0M9,238H0M17,229H0M9,220H0M9,211H0M9,202H0M9,192H0M17,183H0M9,174H0M9,165H0M9,156H0M9,147H0M17,137H0M9,128H0M9,119H0M9,110H0M9,101H0M17,92H0M9,82H0M9,73H0M9,64H0M9,55H0M17,46H0M9,37H0M9,27H0M9,18H0M9,9H0" style="stroke: black; stroke-width: 1;"></path>
     <g font-family="Arial" font-size="20" space="preserve" fill="black" text-anchor="end">
      <text dy=".4em" transform="translate(-3,412)">
       0.5
      </text>
      <text dy=".4em" transform="translate(-3,366)">
       1
      </text>
      <text dy=".4em" transform="translate(-3,321)">
       1.5
      </text>
      <text dy=".4em" transform="translate(-3,275)">
       2
      </text>
      <text dy=".4em" transform="translate(-3,229)">
       2.5
      </text>
      <text dy=".4em" transform="translate(-3,183)">
       3
      </text>
      <text dy=".4em" transform="translate(-3,137)">
       3.5
      </text>
      <text dy=".4em" transform="translate(-3,92)">
       4
      </text>
      <text dy=".4em" transform="translate(-3,46)">
       4.5
      </text>
     </g>
     <g font-family="Arial" font-size="20" space="preserve" transform="translate(-36)">
      <g transform="rotate(270) translate(-47,6)">
       <text fill="black" font-size="20">
        /
       </text>
       <text fill="black" font-size="12" transform="translate(29,4)">
        SM
       </text>
      </g>
     </g>
    </g>
   </g>
  </g>
  <g transform="translate(520,57)">
   <path d="M0,0H27V458H0Z" style="fill: #850100; stroke: black; stroke-width: 1;"></path>
   <path d="M0,453H27V458H0Z" style="fill: #2f3295;"></path>
   <path d="M0,449H27V454H0Z" style="fill: #2f3295;"></path>
   <path d="M0,444H27V450H0Z" style="fill: #2d369a;"></path>
   <path d="M0,440H27V445H0Z" style="fill: #293aa3;"></path>
   <path d="M0,435H27V441H0Z" style="fill: #263ea8;"></path>
   <path d="M0,431H27V436H0Z" style="fill: #2342b1;"></path>
   <path d="M0,426H27V432H0Z" style="fill: #2045b6;"></path>
   <path d="M0,421H27V427H0Z" style="fill: #1d4abf;"></path>
   <path d="M0,417H27V422H0Z" style="fill: #1a4dc4;"></path>
   <path d="M0,412H27V418H0Z" style="fill: #1652cd;"></path>
   <path d="M0,408H27V413H0Z" style="fill: #1357d5;"></path>
   <path d="M0,403H27V409H0Z" style="fill: #105adb;"></path>
   <path d="M0,398H27V404H0Z" style="fill: #0f5edd;"></path>
   <path d="M0,394H27V399H0Z" style="fill: #1060dc;"></path>
   <path d="M0,389H27V395H0Z" style="fill: #1064dc;"></path>
   <path d="M0,385H27V390H0Z" style="fill: #1066db;"></path>
   <path d="M0,380H27V386H0Z" style="fill: #116adb;"></path>
   <path d="M0,376H27V381H0Z" style="fill: #116cda;"></path>
   <path d="M0,371H27V377H0Z" style="fill: #126fd9;"></path>
   <path d="M0,366H27V372H0Z" style="fill: #1272d9;"></path>
   <path d="M0,362H27V367H0Z" style="fill: #1275d8;"></path>
   <path d="M0,357H27V363H0Z" style="fill: #1379d7;"></path>
   <path d="M0,353H27V358H0Z" style="fill: #137bd7;"></path>
   <path d="M0,348H27V354H0Z" style="fill: #147ed6;"></path>
   <path d="M0,344H27V349H0Z" style="fill: #1481d6;"></path>
   <path d="M0,339H27V345H0Z" style="fill: #1384d5;"></path>
   <path d="M0,334H27V340H0Z" style="fill: #1286d4;"></path>
   <path d="M0,330H27V335H0Z" style="fill: #1089d3;"></path>
   <path d="M0,325H27V331H0Z" style="fill: #108cd2;"></path>
   <path d="M0,321H27V326H0Z" style="fill: #0e8fd1;"></path>
   <path d="M0,316H27V322H0Z" style="fill: #0d92d0;"></path>
   <path d="M0,311H27V317H0Z" style="fill: #0c94cf;"></path>
   <path d="M0,307H27V312H0Z" style="fill: #0b98ce;"></path>
   <path d="M0,302H27V308H0Z" style="fill: #0a9acd;"></path>
   <path d="M0,298H27V303H0Z" style="fill: #099dcc;"></path>
   <path d="M0,293H27V299H0Z" style="fill: #089fcb;"></path>
   <path d="M0,289H27V294H0Z" style="fill: #06a3ca;"></path>
   <path d="M0,284H27V290H0Z" style="fill: #07a4c9;"></path>
   <path d="M0,279H27V285H0Z" style="fill: #0ba6c5;"></path>
   <path d="M0,275H27V280H0Z" style="fill: #0da7c3;"></path>
   <path d="M0,270H27V276H0Z" style="fill: #11a9bf;"></path>
   <path d="M0,266H27V271H0Z" style="fill: #15abbc;"></path>
   <path d="M0,261H27V267H0Z" style="fill: #17acb9;"></path>
   <path d="M0,256H27V262H0Z" style="fill: #1baeb6;"></path>
   <path d="M0,252H27V257H0Z" style="fill: #1eafb3;"></path>
   <path d="M0,247H27V253H0Z" style="fill: #21b1b0;"></path>
   <path d="M0,243H27V248H0Z" style="fill: #24b2ad;"></path>
   <path d="M0,238H27V244H0Z" style="fill: #28b4aa;"></path>
   <path d="M0,234H27V239H0Z" style="fill: #2ab5a7;"></path>
   <path d="M0,229H27V235H0Z" style="fill: #2eb7a4;"></path>
   <path d="M0,224H27V230H0Z" style="fill: #36b8a0;"></path>
   <path d="M0,220H27V225H0Z" style="fill: #3cb89d;"></path>
   <path d="M0,215H27V221H0Z" style="fill: #44b999;"></path>
   <path d="M0,211H27V216H0Z" style="fill: #4aba96;"></path>
   <path d="M0,206H27V212H0Z" style="fill: #52ba92;"></path>
   <path d="M0,202H27V207H0Z" style="fill: #58bb8f;"></path>
   <path d="M0,197H27V203H0Z" style="fill: #60bc8b;"></path>
   <path d="M0,192H27V198H0Z" style="fill: #66bc88;"></path>
   <path d="M0,188H27V193H0Z" style="fill: #6ebd84;"></path>
   <path d="M0,183H27V189H0Z" style="fill: #74bd81;"></path>
   <path d="M0,179H27V184H0Z" style="fill: #7cbe7d;"></path>
   <path d="M0,174H27V180H0Z" style="fill: #84bf78;"></path>
   <path d="M0,169H27V175H0Z" style="fill: #89bf76;"></path>
   <path d="M0,165H27V170H0Z" style="fill: #90bf73;"></path>
   <path d="M0,160H27V166H0Z" style="fill: #95be71;"></path>
   <path d="M0,156H27V161H0Z" style="fill: #9cbe6f;"></path>
   <path d="M0,151H27V157H0Z" style="fill: #a0be6d;"></path>
   <path d="M0,147H27V152H0Z" style="fill: #a7bd6a;"></path>
   <path d="M0,142H27V148H0Z" style="fill: #acbd68;"></path>
   <path d="M0,137H27V143H0Z" style="fill: #b3bd65;"></path>
   <path d="M0,133H27V138H0Z" style="fill: #babc62;"></path>
   <path d="M0,128H27V134H0Z" style="fill: #bebc61;"></path>
   <path d="M0,124H27V129H0Z" style="fill: #c5bc5e;"></path>
   <path d="M0,119H27V125H0Z" style="fill: #cabb5c;"></path>
   <path d="M0,115H27V120H0Z" style="fill: #d1bb59;"></path>
   <path d="M0,110H27V116H0Z" style="fill: #d4bc57;"></path>
   <path d="M0,105H27V111H0Z" style="fill: #d8bd53;"></path>
   <path d="M0,101H27V106H0Z" style="fill: #dbbe51;"></path>
   <path d="M0,96H27V102H0Z" style="fill: #dfbf4d;"></path>
   <path d="M0,92H27V97H0Z" style="fill: #e2c04b;"></path>
   <path d="M0,87H27V93H0Z" style="fill: #e6c147;"></path>
   <path d="M0,82H27V88H0Z" style="fill: #eac343;"></path>
   <path d="M0,78H27V83H0Z" style="fill: #edc341;"></path>
   <path d="M0,73H27V79H0Z" style="fill: #f1c53d;"></path>
   <path d="M0,69H27V74H0Z" style="fill: #f4c63b;"></path>
   <path d="M0,64H27V70H0Z" style="fill: #f8c737;"></path>
   <path d="M0,60H27V65H0Z" style="fill: #fbc835;"></path>
   <path d="M0,55H27V61H0Z" style="fill: #feca31;"></path>
   <path d="M0,50H27V56H0Z" style="fill: #fdcd2f;"></path>
   <path d="M0,46H27V51H0Z" style="fill: #fdd22b;"></path>
   <path d="M0,41H27V47H0Z" style="fill: #fdd728;"></path>
   <path d="M0,37H27V42H0Z" style="fill: #fcda26;"></path>
   <path d="M0,32H27V38H0Z" style="fill: #fcde22;"></path>
   <path d="M0,27H27V33H0Z" style="fill: #fbe220;"></path>
   <path d="M0,23H27V28H0Z" style="fill: #fbe61d;"></path>
   <path d="M0,18H27V24H0Z" style="fill: #fbe91a;"></path>
   <path d="M0,14H27V19H0Z" style="fill: #faee17;"></path>
   <path d="M0,9H27V15H0Z" style="fill: #faf115;"></path>
   <path d="M0,5H27V10H0Z" style="fill: #f9f611;"></path>
   <path d="M0,0H27V6H0Z" style="fill: #f9f90f;"></path>
   <g transform="translate(27)">
    <path d="M0,0v458M0,416H-19M0,374H-19M0,332H-19M0,291H-19M0,249H-19M0,207H-19M0,165H-19M0,123H-19M0,81H-19M0,39H-19" style="stroke: black; stroke-width: 1;"></path>
    <g font-family="Arial" font-size="20" space="preserve" fill="black" text-anchor="start">
     <text dy=".4em" transform="translate(3,416)">
      200
     </text>
     <text dy=".4em" transform="translate(3,374)">
      400
     </text>
     <text dy=".4em" transform="translate(3,332)">
      600
     </text>
     <text dy=".4em" transform="translate(3,291)">
      800
     </text>
     <text dy=".4em" transform="translate(3,249)">
      1000
     </text>
     <text dy=".4em" transform="translate(3,207)">
      1200
     </text>
     <text dy=".4em" transform="translate(3,165)">
      1400
     </text>
     <text dy=".4em" transform="translate(3,123)">
      1600
     </text>
     <text dy=".4em" transform="translate(3,81)">
      1800
     </text>
     <text dy=".4em" transform="translate(3,39)">
      2000
     </text>
    </g>
    <g font-family="Arial" font-size="20" space="preserve" transform="translate(32)">
     <g transform="rotate(270) translate(-66,7)">
      <text fill="black" font-size="20">
       -2 ln L
      </text>
     </g>
    </g>
   </g>
  </g>
  <g transform="translate(71,66)" font-family="Arial" font-size="15" space="preserve">
   <path d="M4,4v82h161v-82z" style="fill: black; stroke: black; stroke-width: 1px;"></path>
   <path d="M0,0H161V82H0Z" style="fill: #f2f2f2; stroke: black; stroke-width: 1;"></path>
   <text fill="black" text-anchor="middle" dy=".4em" transform="translate(81,10)">
    CMS Preliminary
   </text>
   <g transform="translate(54,36) scale(0.904)">
    <text fill="black" font-size="17">
     H  ZZ
    </text>
   </g>
   <g transform="translate(4,58) scale(0.904)">
    <g>
     <path style="stroke: black; stroke-width: 1; fill: none;" d="M0,-6h2l2,7l2,-17h12v2"></path>
     <text fill="black" font-size="17" transform="translate(8)">
      s
     </text>
    </g>
    <text fill="black" font-size="17" x="20">
     = 7 Tev, L = 5.1 fb
    </text>
    <text fill="black" font-size="10" transform="translate(160,-8)">
     -1
    </text>
   </g>
   <g transform="translate(4,78) scale(0.904)">
    <g>
     <path style="stroke: black; stroke-width: 1; fill: none;" d="M0,-6h2l2,7l2,-17h12v2"></path>
     <text fill="black" font-size="17" transform="translate(8)">
      s
     </text>
    </g>
    <text fill="black" font-size="17" x="20">
     = 8 Tev, L = 5.3 fb
    </text>
    <text fill="black" font-size="10" transform="translate(161,-8)">
     -1
    </text>
   </g>
  </g>
 </g>
</svg>