<svg xmlns="http://www.w3.org/2000/svg" width="596" height="572" viewBox="0 0 596 572" preserveAspectRatio="none">
 <path d="M0,0H596V572H0Z" style="fill: white;"></path>
 <g>
  <g transform="translate(60,57)">
   <path d="M0,0H457V458H0Z" style="fill: white; stroke: black; stroke-width: 1;"></path>
   <svg x="0" y="0" overflow="hidden" width="457" height="458" viewBox="0 0 457 458">
    <g>
     <path fill="rgb(51, 46, 141)" d="M222,371h4v37h-4zm4,-9h5v50h-5zm5,-5h4v60h-4zm4,0h5v64h-5zm5,0h5v64h-5zm5,0h4v64h-4zm4,5h5v59h-5zm5,4h5v55h-5zm5,5h4v46h-4zm4,9h5v32h-5z"></path>
     <path fill="rgb(47, 50, 149)" d="M208,371h4v32h-4zm4,-14h5v55h-5zm5,-9h5v69h-5zm5,-4h4v27h-4zm0,64h4v13h-4zm4,-64h5v18h-5zm0,68h5v14h-5zm5,-73h4v18h-4zm0,78h4v14h-4zm4,-78h5v18h-5zm0,82h5v10h-5zm5,-82h5v18h-5zm0,82h5v10h-5zm5,-82h4v18h-4zm0,82h4v10h-4zm4,-77h5v18h-5zm0,77h5v10h-5zm5,-73h5v18h-5zm0,73h5v10h-5zm5,-68h4v18h-4zm0,64h4v14h-4zm4,-60h5v23h-5zm0,55h5v14h-5zm5,-50h4v64h-4zm4,9h5v46h-5zm5,18h5v19h-5z"></path>
     <path fill="rgb(45, 54, 154)" d="M198,362h5v41h-5zm5,-14h5v69h-5zm5,-9h4v32h-4zm0,64h4v18h-4zm4,-69h5v23h-5zm0,78h5v14h-5zm5,-82h5v18h-5zm0,87h5v14h-5zm5,-92h4v19h-4zm0,96h4v10h-4zm4,-96h5v19h-5zm0,101h5v9h-5zm5,-105h4v18h-4zm0,110h4v4h-4zm4,-110h5v18h-5zm0,110h5v9h-5zm5,-110h5v18h-5zm0,110h5v9h-5zm5,-106h4v14h-4zm0,106h4v9h-4zm4,-106h5v19h-5zm0,106h5v9h-5zm5,-101h5v18h-5zm0,101h5v9h-5zm5,-97h4v19h-4zm0,97h4v4h-4zm4,-92h5v18h-5zm0,87h5v9h-5zm5,-78h4v14h-4zm0,78h4v9h-4zm4,-73h5v18h-5zm0,64h5v14h-5zm5,-55h5v27h-5zm0,46h5v18h-5zm5,-37h4v50h-4zm4,14h5v27h-5z"></path>
     <path fill="rgb(41, 58, 163)" d="M189,357h5v51h-5zm5,-13h4v73h-4zm4,-10h5v28h-5zm0,69h5v18h-5zm5,-78h5v23h-5zm0,92h5v9h-5zm5,-96h4v18h-4zm0,100h4v10h-4zm4,-105h5v18h-5zm0,110h5v9h-5zm5,-115h5v19h-5zm0,120h5v4h-5zm5,-120h4v14h-4zm0,120h4v9h-4zm4,-124h5v18h-5zm0,128h5v5h-5zm5,-128h4v14h-4zm0,128h4v5h-4zm4,-128h5v14h-5zm0,133h5v4h-5zm5,-133h5v14h-5zm0,133h5v4h-5zm5,-129h4v14h-4zm0,129h4v4h-4zm4,-129h5v14h-5zm0,129h5v4h-5zm5,-124h5v14h-5zm0,124h5v4h-5zm5,-119h4v13h-4zm0,114h4v5h-4zm4,-110h5v14h-5zm0,110h5v5h-5zm5,-105h4v18h-4zm0,105h4v5h-4zm4,-96h5v14h-5zm0,92h5v4h-5zm5,-87h5v18h-5zm0,82h5v9h-5zm5,-73h4v18h-4zm0,68h4v10h-4zm4,-59h5v23h-5zm0,50h5v19h-5zm5,-46h4v60h-4zm4,5h5v50h-5zm5,9h5v37h-5zm5,9h4v23h-4z"></path>
     <path fill="rgb(38, 62, 168)" d="M180,357h5v51h-5zm5,-18h4v78h-4zm4,-9h5v27h-5zm0,78h5v18h-5zm5,-87h4v23h-4zm0,96h4v14h-4zm4,-106h5v23h-5zm0,110h5v10h-5zm5,-114h5v18h-5zm0,119h5v9h-5zm5,-124h4v19h-4zm0,129h4v9h-4zm4,-129h5v14h-5zm0,133h5v5h-5zm5,-137h5v13h-5zm0,137h5v5h-5zm5,-137h4v13h-4zm0,142h4v4h-4zm4,-147h5v14h-5zm0,147h5v4h-5zm5,-147h4v14h-4zm0,147h4v4h-4zm4,-147h5v14h-5zm5,5h5v9h-5zm5,0h4v13h-4zm4,4h5v9h-5zm5,0h5v14h-5zm5,5h4v14h-4zm0,133h4v4h-4zm4,-129h5v14h-5zm0,129h5v4h-5zm5,-119h4v9h-4zm0,119h4v4h-4zm4,-115h5v14h-5zm0,110h5v9h-5zm5,-105h5v14h-5zm0,105h5v5h-5zm5,-96h4v14h-4zm0,92h4v9h-4zm4,-87h5v18h-5zm0,87h5v4h-5zm5,-83h4v18h-4zm0,78h4v9h-4zm4,-73h5v18h-5zm0,68h5v10h-5zm5,-64h5v23h-5zm0,60h5v14h-5zm5,-51h4v23h-4zm0,46h4v14h-4zm4,-41h5v55h-5zm5,5h5v50h-5zm5,0h4v50h-4zm4,4h5v46h-5zm5,5h4v41h-4zm4,4h5v37h-5zm5,0h5v37h-5zm5,5h4v37h-4zm4,4h5v33h-5zm5,5h4v23h-4zm4,9h5v14h-5z"></path>
     <path fill="rgb(35, 66, 177)" d="M171,362h4v46h-4zm4,-23h5v82h-5zm5,-14h5v32h-5zm0,83h5v18h-5zm5,-92h4v23h-4zm0,101h4v14h-4zm4,-110h5v23h-5zm0,119h5v9h-5zm5,-124h4v19h-4zm0,129h4v4h-4zm4,-133h5v13h-5zm0,133h5v9h-5zm5,-138h5v14h-5zm0,142h5v5h-5zm5,-146h4v13h-4zm0,151h4v4h-4zm4,-156h5v18h-5zm0,156h5v4h-5zm5,-156h5v14h-5zm0,156h5v4h-5zm5,-156h4v14h-4zm0,160h4v5h-4zm4,-165h5v14h-5zm0,165h5v5h-5zm5,-165h4v14h-4zm0,165h4v5h-4zm4,-160h5v9h-5zm0,160h5v5h-5zm5,-160h5v14h-5zm0,160h5v5h-5zm5,-160h4v14h-4zm0,160h4v5h-4zm4,-155h5v13h-5zm0,155h5v5h-5zm5,-151h5v9h-5zm0,151h5v5h-5zm5,-146h4v9h-4zm0,146h4v5h-4zm4,-142h5v9h-5zm0,142h5v5h-5zm5,-137h4v14h-4zm0,137h4v5h-4zm4,-133h5v14h-5zm5,10h5v9h-5zm0,119h5v4h-5zm5,-115h4v14h-4zm0,115h4v4h-4zm4,-110h5v14h-5zm0,105h5v9h-5zm5,-101h4v14h-4zm0,101h4v5h-4zm4,-96h5v14h-5zm0,92h5v9h-5zm5,-87h5v13h-5zm0,87h5v4h-5zm5,-83h4v18h-4zm0,78h4v9h-4zm4,-73h5v18h-5zm0,73h5v9h-5zm5,-69h5v19h-5zm0,69h5v9h-5zm5,-64h4v14h-4zm0,64h4v9h-4zm4,-60h5v14h-5zm0,60h5v9h-5zm5,-60h4v19h-4zm0,60h4v9h-4zm4,-55h5v18h-5zm0,55h5v14h-5zm5,-50h5v13h-5zm0,50h5v14h-5zm5,-46h4v14h-4zm0,51h4v9h-4zm4,-51h5v18h-5zm0,51h5v9h-5zm5,-46h4v18h-4zm0,41h4v14h-4zm4,-37h5v23h-5zm0,37h5v14h-5zm5,-32h5v46h-5zm5,4h4v42h-4zm4,10h5v27h-5zm5,9h5v18h-5z"></path>
     <path fill="rgb(32, 69, 182)" d="M162,371h4v37h-4zm4,-23h5v73h-5zm5,-18h4v32h-4zm0,78h4v23h-4zm4,-92h5v23h-5zm0,105h5v14h-5zm5,-114h5v18h-5zm0,119h5v9h-5zm5,-128h4v18h-4zm0,133h4v9h-4zm4,-142h5v18h-5zm0,146h5v5h-5zm5,-151h4v18h-4zm0,151h4v9h-4zm4,-156h5v19h-5zm0,161h5v4h-5zm5,-165h5v18h-5zm0,165h5v4h-5zm5,-165h4v14h-4zm0,169h4v5h-4zm4,-174h5v14h-5zm0,174h5v5h-5zm5,-174h5v14h-5zm0,174h5v5h-5zm5,-174h4v14h-4zm4,0h5v9h-5zm5,0h4v9h-4zm4,0h5v14h-5zm0,179h5v4h-5zm5,-179h5v14h-5zm0,179h5v4h-5zm5,-174h4v9h-4zm0,174h4v4h-4zm4,-174h5v14h-5zm0,174h5v4h-5zm5,-170h5v14h-5zm0,170h5v4h-5zm5,-165h4v14h-4zm4,5h5v13h-5zm5,4h4v14h-4zm4,9h5v9h-5zm0,142h5v5h-5zm5,-137h5v14h-5zm0,137h5v5h-5zm5,-133h4v14h-4zm0,133h4v5h-4zm4,-128h5v14h-5zm5,5h4v13h-4zm0,119h4v4h-4zm4,-115h5v14h-5zm0,115h5v4h-5zm5,-110h5v14h-5zm0,105h5v9h-5zm5,-101h4v14h-4zm0,101h4v9h-4zm4,-96h5v14h-5zm0,96h5v9h-5zm5,-91h5v13h-5zm0,91h5v9h-5zm5,-87h4v14h-4zm0,87h4v9h-4zm4,-82h5v13h-5zm0,82h5v9h-5zm5,-78h4v9h-4zm0,78h4v9h-4zm4,-78h5v14h-5zm0,83h5v4h-5zm5,-78h5v14h-5zm0,78h5v4h-5zm5,-74h4v14h-4zm0,74h4v4h-4zm4,-69h5v9h-5zm0,69h5v4h-5zm5,-64h4v9h-4zm0,64h4v4h-4zm4,-60h5v9h-5zm0,60h5v4h-5zm5,-60h5v14h-5zm0,60h5v4h-5zm5,-51h4v9h-4zm0,51h4v4h-4zm4,-46h5v14h-5zm0,41h5v9h-5zm5,-37h5v19h-5zm0,37h5v9h-5zm5,-32h4v41h-4zm4,9h5v28h-5zm5,14h4v9h-4z"></path>
     <path fill="rgb(29, 74, 191)" d="M152,380h5v41h-5zm5,-27h5v78h-5zm5,-19h4v37h-4zm0,74h4v27h-4zm4,-87h5v27h-5zm0,100h5v19h-5zm5,-114h4v23h-4zm0,124h4v9h-4zm4,-138h5v23h-5zm0,142h5v9h-5zm5,-151h5v23h-5zm0,151h5v9h-5zm5,-156h4v19h-4zm0,161h4v4h-4zm4,-165h5v14h-5zm0,165h5v4h-5zm5,-170h4v14h-4zm0,174h4v5h-4zm4,-178h5v13h-5zm0,178h5v5h-5zm5,-183h5v14h-5zm0,183h5v5h-5zm5,-183h4v14h-4zm4,-5h5v14h-5zm0,193h5v4h-5zm5,-193h5v14h-5zm0,193h5v4h-5zm5,-193h4v14h-4zm0,193h4v4h-4zm4,-193h5v14h-5zm0,193h5v4h-5zm5,-193h4v14h-4zm0,193h4v4h-4zm4,-193h5v14h-5zm5,5h5v9h-5zm5,0h4v14h-4zm4,5h5v9h-5zm5,4h5v9h-5zm5,5h4v9h-4zm0,174h4v4h-4zm4,-170h5v10h-5zm0,170h5v4h-5zm5,-165h4v9h-4zm0,165h4v4h-4zm4,-160h5v13h-5zm0,160h5v4h-5zm5,-151h5v9h-5zm0,151h5v4h-5zm5,-147h4v9h-4zm4,5h5v9h-5zm0,137h5v5h-5zm5,-133h4v10h-4zm0,133h4v5h-4zm4,-128h5v9h-5zm0,128h5v5h-5zm5,-123h5v9h-5zm0,123h5v5h-5zm5,-119h4v9h-4zm0,119h4v5h-4zm4,-114h5v9h-5zm0,114h5v5h-5zm5,-110h5v10h-5zm0,110h5v5h-5zm5,-105h4v9h-4zm0,105h4v5h-4zm4,-105h5v14h-5zm0,105h5v5h-5zm5,-100h4v13h-4zm0,100h4v5h-4zm4,-96h5v9h-5zm0,96h5v5h-5zm5,-91h5v9h-5zm0,91h5v5h-5zm5,-87h4v9h-4zm0,87h4v5h-4zm4,-87h5v14h-5zm0,87h5v5h-5zm5,-82h4v14h-4zm0,82h4v5h-4zm4,-78h5v14h-5zm0,78h5v5h-5zm5,-73h5v9h-5zm0,73h5v5h-5zm5,-68h4v13h-4zm0,68h4v5h-4zm4,-64h5v14h-5zm0,64h5v5h-5zm5,-59h5v13h-5zm0,59h5v5h-5zm5,-50h4v9h-4zm0,50h4v5h-4zm4,-46h5v14h-5zm0,42h5v9h-5zm5,-37h4v23h-4zm0,32h4v9h-4zm4,-23h5v32h-5zm5,9h5v19h-5z"></path>
     <path fill="rgb(26, 77, 196)" d="M134,403h4v23h-4zm4,-14h5v46h-5zm5,-13h5v64h-5zm5,-19h4v83h-4zm4,-13h5v36h-5zm0,77h5v23h-5zm5,-96h5v28h-5zm0,106h5v13h-5zm5,-120h4v23h-4zm0,124h4v9h-4zm4,-137h5v23h-5zm0,142h5v9h-5zm5,-151h4v18h-4zm0,151h4v9h-4zm4,-165h5v18h-5zm0,169h5v5h-5zm5,-174h5v14h-5zm0,174h5v5h-5zm5,-183h4v18h-4zm0,183h4v5h-4zm4,-188h5v19h-5zm0,188h5v5h-5zm5,-188h4v14h-4zm0,193h4v4h-4zm4,-197h5v14h-5zm0,197h5v4h-5zm5,-202h5v14h-5zm0,202h5v4h-5zm5,-202h4v14h-4zm0,202h4v4h-4zm4,-202h5v9h-5zm5,-4h5v13h-5zm5,0h4v13h-4zm4,0h5v13h-5zm5,4h4v9h-4zm4,0h5v9h-5zm5,0h5v14h-5zm5,5h4v9h-4zm4,4h5v10h-5zm5,0h5v14h-5zm5,5h4v14h-4zm4,5h5v13h-5zm5,9h4v9h-4zm4,4h5v10h-5zm5,5h5v14h-5zm5,9h4v9h-4zm0,156h4v4h-4zm4,-151h5v9h-5zm0,151h5v4h-5zm5,-147h4v9h-4zm0,147h4v4h-4zm4,-142h5v9h-5zm0,142h5v4h-5zm5,-142h5v14h-5zm0,142h5v4h-5zm5,-138h4v14h-4zm0,138h4v4h-4zm4,-133h5v14h-5zm5,5h5v13h-5zm0,128h5v4h-5zm5,-124h4v14h-4zm0,124h4v4h-4zm4,-119h5v9h-5zm0,119h5v4h-5zm5,-115h4v10h-4zm0,115h4v4h-4zm4,-110h5v9h-5zm0,110h5v4h-5zm5,-105h5v9h-5zm0,105h5v4h-5zm5,-105h4v13h-4zm0,105h4v4h-4zm4,-101h5v9h-5zm0,101h5v4h-5zm5,-96h4v9h-4zm0,96h4v4h-4zm4,-92h5v9h-5zm0,92h5v4h-5zm5,-87h5v9h-5zm0,87h5v4h-5zm5,-83h4v10h-4zm0,83h4v4h-4zm4,-78h5v9h-5zm0,78h5v4h-5zm5,-73h5v9h-5zm0,73h5v4h-5zm5,-69h4v14h-4zm0,69h4v4h-4zm4,-60h5v9h-5zm0,60h5v4h-5zm5,-55h4v9h-4zm0,50h4v9h-4zm4,-46h5v14h-5zm0,46h5v5h-5zm5,-36h5v13h-5zm0,32h5v9h-5zm5,-23h4v32h-4zm4,9h5v18h-5z"></path>
     <path fill="rgb(22, 82, 205)" d="M115,403h5v23h-5zm5,-14h5v51h-5zm5,-9h4v64h-4zm4,-9h5v73h-5zm5,-9h4v41h-4zm0,64h4v23h-4zm4,-73h5v36h-5zm0,82h5v14h-5zm5,-91h5v32h-5zm0,96h5v9h-5zm5,-110h4v27h-4zm0,110h4v13h-4zm4,-124h5v28h-5zm0,128h5v9h-5zm5,-142h5v23h-5zm0,142h5v9h-5zm5,-155h4v22h-4zm0,155h4v9h-4zm4,-165h5v19h-5zm0,170h5v4h-5zm5,-179h4v19h-4zm0,179h4v4h-4zm4,-188h5v14h-5zm0,188h5v4h-5zm5,-197h5v18h-5zm0,197h5v4h-5zm5,-202h4v14h-4zm0,202h4v4h-4zm4,-206h5v13h-5zm0,206h5v4h-5zm5,-211h4v18h-4zm4,0h5v14h-5zm5,-4h5v13h-5zm5,0h4v13h-4zm0,219h4v5h-4zm4,-219h5v13h-5zm0,219h5v5h-5zm5,-219h5v9h-5zm0,219h5v5h-5zm5,-219h4v9h-4zm0,219h4v5h-4zm4,-219h5v9h-5zm0,219h5v5h-5zm5,-219h4v13h-4zm0,219h4v5h-4zm4,-219h5v13h-5zm0,219h5v5h-5zm5,-215h5v9h-5zm0,215h5v5h-5zm5,-215h4v14h-4zm0,215h4v5h-4zm4,-210h5v13h-5zm0,210h5v5h-5zm5,-206h5v9h-5zm0,206h5v5h-5zm5,-201h4v9h-4zm0,201h4v5h-4zm4,-197h5v10h-5zm0,197h5v5h-5zm5,-187h4v9h-4zm0,187h4v5h-4zm4,-183h5v9h-5zm0,183h5v5h-5zm5,-178h5v9h-5zm0,178h5v5h-5zm5,-174h4v14h-4zm0,174h4v5h-4zm4,-169h5v14h-5zm5,5h4v13h-4zm4,4h5v14h-5zm5,5h5v9h-5zm5,4h4v9h-4zm4,5h5v9h-5zm0,142h5v4h-5zm5,-138h5v10h-5zm5,5h4v9h-4zm4,5h5v9h-5zm5,4h4v9h-4zm4,5h5v9h-5zm5,4h5v10h-5zm5,0h4v10h-4zm4,5h5v9h-5zm5,5h4v9h-4zm4,4h5v9h-5zm0,105h5v5h-5zm5,-100h5v9h-5zm0,100h5v5h-5zm5,-96h4v9h-4zm0,96h4v5h-4zm4,-91h5v9h-5zm0,91h5v5h-5zm5,-87h5v10h-5zm5,5h4v9h-4zm4,9h5v9h-5zm5,5h4v9h-4zm4,4h5v9h-5zm0,60h5v4h-5zm5,-51h5v10h-5zm0,51h5v4h-5zm5,-46h4v14h-4zm0,46h4v4h-4zm4,-37h5v14h-5zm0,32h5v9h-5zm5,-27h4v36h-4zm4,9h5v23h-5zm5,14h5v4h-5z"></path>
     <path fill="rgb(19, 87, 213)" d="M0,426h5v23h-5zm5,0h4v23h-4zm4,5h5v18h-5zm5,4h4v14h-4zm4,5h5v4h-5zm47,-5h4v14h-4zm4,-4h5v18h-5zm5,-5h4v27h-4zm4,0h5v27h-5zm5,-5h5v32h-5zm5,-4h4v36h-4zm4,-9h5v45h-5zm5,-10h5v55h-5zm5,-13h4v68h-4zm4,-9h5v82h-5zm5,-10h4v92h-4zm4,-4h5v41h-5zm0,64h5v32h-5zm5,-69h5v32h-5zm0,83h5v18h-5zm5,-92h4v32h-4zm0,96h4v14h-4zm4,-100h5v27h-5zm0,100h5v14h-5zm5,-105h4v23h-4zm0,110h4v9h-4zm4,-119h5v23h-5zm0,119h5v9h-5zm5,-128h5v23h-5zm0,128h5v9h-5zm5,-142h4v23h-4zm0,146h4v5h-4zm4,-160h5v23h-5zm0,160h5v5h-5zm5,-169h5v18h-5zm0,169h5v5h-5zm5,-183h4v19h-4zm0,183h4v5h-4zm4,-192h5v18h-5zm0,192h5v5h-5zm5,-201h4v18h-4zm0,201h4v5h-4zm4,-210h5v18h-5zm0,210h5v5h-5zm5,-215h5v14h-5zm0,215h5v5h-5zm5,-219h4v13h-4zm0,219h4v5h-4zm4,-224h5v14h-5zm0,224h5v5h-5zm5,-229h4v14h-4zm0,229h4v5h-4zm4,-229h5v14h-5zm0,229h5v5h-5zm5,-229h5v10h-5zm0,229h5v5h-5zm5,-233h4v14h-4zm4,0h5v14h-5zm5,0h5v14h-5zm5,0h4v14h-4zm4,0h5v14h-5zm5,4h4v10h-4zm4,0h5v10h-5zm5,0h5v14h-5zm5,5h4v9h-4zm4,5h5v9h-5zm5,4h5v9h-5zm5,5h4v9h-4zm4,4h5v9h-5zm5,5h4v14h-4zm4,9h5v9h-5zm5,5h5v9h-5zm5,4h4v9h-4zm4,5h5v9h-5zm0,178h5v5h-5zm5,-174h4v10h-4zm0,174h4v5h-4zm4,-169h5v9h-5zm0,169h5v5h-5zm5,-164h5v9h-5zm0,164h5v5h-5zm5,-160h4v9h-4zm0,160h4v5h-4zm4,-155h5v9h-5zm0,155h5v5h-5zm5,-151h5v9h-5zm0,151h5v5h-5zm5,-146h4v9h-4zm0,146h4v5h-4zm4,-142h5v10h-5zm0,142h5v5h-5zm5,-137h4v9h-4zm0,137h4v5h-4zm4,-132h5v9h-5zm0,132h5v5h-5zm5,-128h5v9h-5zm0,128h5v5h-5zm5,-123h4v4h-4zm0,123h4v5h-4zm4,-123h5v9h-5zm0,123h5v5h-5zm5,-119h4v10h-4zm0,119h4v5h-4zm4,-114h5v9h-5zm5,5h5v9h-5zm5,4h4v9h-4zm4,5h5v9h-5zm5,9h5v4h-5zm0,91h5v5h-5zm5,-87h4v5h-4zm0,87h4v5h-4zm4,-82h5v9h-5zm0,82h5v5h-5zm5,-77h4v9h-4zm0,77h4v5h-4zm4,-73h5v9h-5zm0,73h5v5h-5zm5,-64h5v9h-5zm0,64h5v5h-5zm5,-59h4v9h-4zm0,59h4v5h-4zm4,-50h5v9h-5zm0,50h5v5h-5zm5,-45h4v9h-4zm0,45h4v5h-4zm4,-36h5v9h-5zm0,32h5v9h-5zm5,-28h5v19h-5zm0,23h5v14h-5zm5,-18h4v32h-4zm4,9h5v23h-5zm5,5h5v18h-5zm5,4h4v14h-4zm4,0h5v14h-5zm5,5h4v9h-4z"></path>
     <path fill="rgb(16, 90, 219)" d="M0,366h5v60h-5zm0,83h5v9h-5zM5,366h4v60h-4zm0,83h4v9h-4zM9,371h5v60h-5zm0,78h5v9h-5zm5,-73h4v59h-4zm0,73h4v9h-4zm4,-73h5v64h-5zm0,68h5v14h-5zm5,-64h5v78h-5zm5,0h4v78h-4zm4,5h5v73h-5zm5,0h5v73h-5zm5,0h4v73h-4zm4,0h5v73h-5zm5,0h4v73h-4zm4,0h5v73h-5zm5,-5h5v78h-5zm5,0h4v55h-4zm0,69h4v9h-4zm4,-69h5v51h-5zm0,69h5v9h-5zm5,-69h4v46h-4zm0,73h4v5h-4zm4,-77h5v50h-5zm0,77h5v5h-5zm5,-77h5v45h-5zm0,77h5v5h-5zm5,-82h4v46h-4zm0,82h4v5h-4zm4,-91h5v46h-5zm0,91h5v5h-5zm5,-96h5v41h-5zm0,96h5v5h-5zm5,-100h4v32h-4zm0,100h4v5h-4zm4,-109h5v32h-5zm5,-5h4v27h-4zm4,-5h5v28h-5zm5,-4h5v27h-5zm5,-5h4v23h-4zm4,-4h5v23h-5zm5,-5h4v23h-4zm4,-9h5v23h-5zm5,-9h5v23h-5zm5,-14h4v23h-4zm4,-9h5v18h-5zm5,-14h5v23h-5zm5,-9h4v18h-4zm4,-9h5v18h-5zm5,-9h4v18h-4zm4,-5h5v14h-5zm5,-5h5v14h-5zm5,-4h4v14h-4zm4,-5h5v14h-5zm5,0h4v9h-4zm4,-4h5v13h-5zm5,0h5v13h-5zm5,0h4v9h-4zm4,0h5v9h-5zm5,0h5v9h-5zm5,0h4v9h-4zm4,0h5v9h-5zm5,0h4v13h-4zm4,4h5v9h-5zm5,0h5v9h-5zm5,5h4v9h-4zm4,4h5v10h-5zm5,5h5v9h-5zm5,5h4v9h-4zm4,4h5v9h-5zm5,5h4v9h-4zm4,9h5v9h-5zm5,4h5v10h-5zm5,5h4v9h-4zm4,5h5v9h-5zm5,4h4v9h-4zm4,5h5v9h-5zm5,4h5v10h-5zm5,5h4v9h-4zm4,5h5v9h-5zm5,4h5v9h-5zm5,5h4v9h-4zm4,4h5v9h-5zm5,5h4v9h-4zm4,4h5v10h-5zm5,5h5v9h-5zm5,5h4v9h-4zm4,4h5v5h-5zm5,5h4v4h-4zm4,4h5v5h-5zm5,5h5v5h-5zm5,5h4v4h-4zm4,4h5v5h-5zm5,5h5v9h-5zm5,4h4v9h-4zm4,5h5v9h-5zm5,4h4v10h-4zm4,10h5v4h-5zm5,4h5v9h-5zm5,5h4v9h-4zm4,9h5v9h-5zm5,4h4v10h-4zm4,5h5v14h-5zm5,9h5v9h-5zm5,5h4v9h-4zm4,4h5v14h-5zm5,5h5v14h-5zm5,5h4v13h-4zm4,4h5v9h-5zm5,0h4v14h-4zm4,5h5v18h-5z"></path>
     <path fill="rgb(15, 94, 221)" d="M0,330h5v36h-5zm5,0h4v36h-4zm4,4h5v37h-5zm5,5h4v37h-4zm4,5h5v32h-5zm5,0h5v36h-5zm5,4h4v32h-4zm4,0h5v37h-5zm5,5h5v32h-5zm5,0h4v32h-4zm4,0h5v32h-5zm5,0h4v32h-4zm4,0h5v32h-5zm5,-5h5v32h-5zm5,0h4v32h-4zm4,0h5v32h-5zm5,0h4v32h-4zm4,0h5v28h-5zm5,-4h5v32h-5zm5,-5h4v32h-4zm4,-5h5v28h-5zm5,-4h5v27h-5zm5,-5h4v28h-4zm4,-4h5v23h-5zm5,-5h4v23h-4zm4,-5h5v23h-5zm5,-4h5v23h-5zm5,0h4v18h-4zm4,-5h5v19h-5zm5,-4h4v18h-4zm4,-9h5v18h-5zm5,-10h5v19h-5zm5,-13h4v18h-4zm4,-10h5v19h-5zm5,-9h5v14h-5zm5,-9h4v14h-4zm4,-9h5v14h-5zm5,-9h4v14h-4zm4,-5h5v14h-5zm5,-4h5v13h-5zm5,-5h4v14h-4zm4,-4h5v13h-5zm5,0h4v13h-4zm4,-5h5v14h-5zm5,0h5v14h-5zm5,0h4v14h-4zm4,0h5v14h-5zm5,0h5v14h-5zm5,0h4v14h-4zm4,0h5v14h-5zm5,5h4v9h-4zm4,0h5v13h-5zm5,4h5v9h-5zm5,5h4v9h-4zm4,0h5v13h-5zm5,4h5v14h-5zm5,9h4v10h-4zm4,5h5v9h-5zm5,5h4v9h-4zm4,4h5v14h-5zm5,9h5v9h-5zm5,5h4v9h-4zm4,4h5v10h-5zm5,5h4v9h-4zm4,5h5v9h-5zm5,4h5v9h-5zm5,5h4v9h-4zm4,4h5v10h-5zm5,5h5v9h-5zm5,5h4v9h-4zm4,4h5v9h-5zm5,5h4v9h-4zm4,4h5v9h-5zm5,5h5v9h-5zm5,4h4v10h-4zm4,5h5v9h-5zm5,5h4v9h-4zm4,4h5v9h-5zm5,5h5v9h-5zm5,4h4v10h-4zm4,5h5v9h-5zm5,5h5v9h-5zm5,4h4v9h-4zm4,5h5v9h-5zm5,9h4v4h-4zm4,4h5v10h-5zm5,5h5v9h-5zm5,9h4v5h-4zm4,5h5v9h-5zm5,4h4v9h-4zm4,9h5v5h-5zm5,5h5v9h-5zm5,5h4v9h-4zm4,4h5v9h-5zm5,5h5v9h-5zm5,4h4v10h-4zm4,5h5v9h-5zm5,0h4v9h-4zm4,5h5v9h-5z"></path>
     <path fill="rgb(16, 96, 220)" d="M0,298h5v32h-5zm5,4h4v28h-4zm4,0h5v32h-5zm5,5h4v32h-4zm4,4h5v33h-5zm5,5h5v28h-5zm5,5h4v27h-4zm4,0h5v27h-5zm5,0h5v32h-5zm5,4h4v28h-4zm4,0h5v28h-5zm5,0h4v28h-4zm4,0h5v28h-5zm5,0h5v23h-5zm5,0h4v23h-4zm4,0h5v23h-5zm5,-4h4v27h-4zm4,0h5v27h-5zm5,-5h5v28h-5zm5,0h4v23h-4zm4,-5h5v23h-5zm5,-4h5v23h-5zm5,-5h4v23h-4zm4,-4h5v23h-5zm5,-5h4v23h-4zm4,0h5v18h-5zm5,-4h5v18h-5zm5,-5h4v23h-4zm4,0h5v18h-5zm5,-9h4v23h-4zm4,-5h5v19h-5zm5,-14h5v23h-5zm5,-9h4v19h-4zm4,-9h5v18h-5zm5,-9h5v18h-5zm5,-9h4v18h-4zm4,-9h5v18h-5zm5,-5h4v14h-4zm4,-4h5v13h-5zm5,-5h5v14h-5zm5,-5h4v14h-4zm4,-4h5v14h-5zm5,0h4v14h-4zm4,0h5v9h-5zm5,0h5v9h-5zm5,-5h4v14h-4zm4,0h5v14h-5zm5,5h5v9h-5zm5,0h4v9h-4zm4,0h5v9h-5zm5,0h4v14h-4zm4,4h5v10h-5zm5,5h5v9h-5zm5,0h4v14h-4zm4,5h5v9h-5zm5,4h5v9h-5zm5,5h4v13h-4zm4,9h5v9h-5zm5,4h4v10h-4zm4,5h5v9h-5zm5,9h5v9h-5zm5,5h4v9h-4zm4,4h5v9h-5zm5,5h4v9h-4zm4,4h5v10h-5zm5,5h5v9h-5zm5,5h4v9h-4zm4,4h5v9h-5zm5,5h5v9h-5zm5,4h4v10h-4zm4,5h5v9h-5zm5,5h4v9h-4zm4,4h5v9h-5zm5,5h5v9h-5zm5,4h4v9h-4zm4,5h5v9h-5zm5,4h4v10h-4zm4,5h5v9h-5zm5,5h5v9h-5zm5,4h4v9h-4zm4,5h5v9h-5zm5,9h5v5h-5zm5,5h4v4h-4zm4,4h5v5h-5zm5,5h4v9h-4zm4,4h5v9h-5zm5,9h5v5h-5zm5,5h4v9h-4zm4,5h5v9h-5zm5,9h4v4h-4zm4,4h5v9h-5zm5,5h5v9h-5zm5,4h4v10h-4zm4,10h5v4h-5zm5,0h5v9h-5zm5,4h4v9h-4zm4,5h5v9h-5zm5,4h4v5h-4zm4,0h5v10h-5z"></path>
     <path fill="rgb(16, 100, 220)" d="M0,266h5v32h-5zm5,4h4v32h-4zm4,5h5v27h-5zm5,4h4v28h-4zm4,5h5v27h-5zm5,5h5v27h-5zm5,4h4v28h-4zm4,0h5v28h-5zm5,5h5v23h-5zm5,0h4v27h-4zm4,0h5v27h-5zm5,0h4v27h-4zm4,0h5v27h-5zm5,0h5v27h-5zm5,0h4v27h-4zm4,0h5v27h-5zm5,0h4v23h-4zm4,0h5v23h-5zm5,-5h5v23h-5zm5,0h4v23h-4zm4,-4h5v22h-5zm5,-5h5v23h-5zm5,-5h4v23h-4zm4,0h5v19h-5zm5,-4h4v18h-4zm4,-5h5v23h-5zm5,0h5v19h-5zm5,-4h4v18h-4zm4,0h5v18h-5zm5,-10h4v19h-4zm4,-9h5v23h-5zm5,-9h5v18h-5zm5,-9h4v18h-4zm4,-9h5v18h-5zm5,-9h5v18h-5zm5,-5h4v14h-4zm4,-9h5v14h-5zm5,-5h4v14h-4zm4,-4h5v14h-5zm5,-5h5v14h-5zm5,-4h4v13h-4zm4,0h5v9h-5zm5,-5h4v14h-4zm4,0h5v14h-5zm5,0h5v14h-5zm5,0h4v9h-4zm4,0h5v9h-5zm5,0h5v14h-5zm5,0h4v14h-4zm4,5h5v9h-5zm5,0h4v9h-4zm4,4h5v9h-5zm5,0h5v14h-5zm5,5h4v9h-4zm4,4h5v10h-5zm5,5h5v9h-5zm5,5h4v9h-4zm4,9h5v9h-5zm5,4h4v9h-4zm4,5h5v9h-5zm5,9h5v9h-5zm5,5h4v9h-4zm4,4h5v9h-5zm5,5h4v9h-4zm4,4h5v9h-5zm5,5h5v9h-5zm5,4h4v10h-4zm4,5h5v9h-5zm5,5h5v9h-5zm5,4h4v9h-4zm4,5h5v9h-5zm5,4h4v10h-4zm4,5h5v9h-5zm5,5h5v9h-5zm5,4h4v9h-4zm4,5h5v9h-5zm5,9h4v4h-4zm4,4h5v5h-5zm5,5h5v5h-5zm5,5h4v4h-4zm4,4h5v5h-5zm5,5h5v9h-5zm5,4h4v10h-4zm4,5h5v9h-5zm5,9h4v5h-4zm4,5h5v4h-5zm5,4h5v9h-5zm5,5h4v9h-4zm4,9h5v5h-5zm5,5h4v9h-4zm4,4h5v9h-5zm5,9h5v5h-5zm5,5h4v4h-4zm4,4h5v10h-5zm5,5h5v5h-5zm5,5h4v4h-4zm4,4h5v5h-5zm5,0h4v9h-4zm4,5h5v4h-5z"></path>
     <path fill="rgb(16, 102, 219)" d="M0,238h5v28h-5zm5,5h4v27h-4zm4,4h5v28h-5zm5,5h4v27h-4zm4,4h5v28h-5zm5,5h5v28h-5zm5,5h4v27h-4zm4,4h5v23h-5zm5,0h5v28h-5zm5,0h4v28h-4zm4,5h5v23h-5zm5,0h4v23h-4zm4,0h5v23h-5zm5,0h5v23h-5zm5,0h4v23h-4zm4,0h5v23h-5zm5,0h4v23h-4zm4,0h5v23h-5zm5,-5h5v23h-5zm5,0h4v23h-4zm4,-4h5v23h-5zm5,-5h5v23h-5zm5,0h4v18h-4zm4,-5h5v23h-5zm5,0h4v19h-4zm4,-4h5v18h-5zm5,0h5v18h-5zm5,0h4v14h-4zm4,-5h5v19h-5zm5,-9h4v18h-4zm4,-4h5v13h-5zm5,-10h5v14h-5zm5,-9h4v14h-4zm4,-9h5v14h-5zm5,-9h5v14h-5zm5,-9h4v18h-4zm4,-5h5v14h-5zm5,-4h4v13h-4zm4,-5h5v14h-5zm5,-5h5v14h-5zm5,-4h4v14h-4zm4,0h5v14h-5zm5,0h4v9h-4zm4,-5h5v14h-5zm5,0h5v14h-5zm5,0h4v14h-4zm4,5h5v9h-5zm5,0h5v9h-5zm5,0h4v9h-4zm4,0h5v14h-5zm5,4h4v10h-4zm4,0h5v14h-5zm5,5h5v9h-5zm5,5h4v9h-4zm4,4h5v9h-5zm5,5h5v9h-5zm5,4h4v10h-4zm4,5h5v14h-5zm5,9h4v9h-4zm4,5h5v9h-5zm5,9h5v9h-5zm5,4h4v10h-4zm4,5h5v9h-5zm5,5h4v9h-4zm4,4h5v9h-5zm5,5h5v9h-5zm5,4h4v9h-4zm4,5h5v9h-5zm5,4h5v10h-5zm5,10h4v4h-4zm4,4h5v5h-5zm5,5h4v4h-4zm4,4h5v5h-5zm5,5h5v5h-5zm5,5h4v4h-4zm4,4h5v5h-5zm5,5h4v9h-4zm4,4h5v9h-5zm5,5h5v9h-5zm5,4h4v10h-4zm4,5h5v9h-5zm5,5h5v9h-5zm5,9h4v4h-4zm4,4h5v5h-5zm5,5h4v9h-4zm4,5h5v9h-5zm5,9h5v4h-5zm5,4h4v5h-4zm4,5h5v9h-5zm5,9h4v5h-4zm4,5h5v4h-5zm5,4h5v9h-5zm5,5h4v9h-4zm4,9h5v4h-5zm5,4h5v5h-5zm5,0h4v10h-4zm4,5h5v9h-5zm5,5h4v4h-4zm4,0h5v9h-5z"></path>
     <path fill="rgb(17, 106, 219)" d="M0,211h5v27h-5zm5,4h4v28h-4zm4,5h5v27h-5zm5,9h4v23h-4zm4,5h5v22h-5zm5,4h5v23h-5zm5,5h4v23h-4zm4,0h5v27h-5zm5,4h5v23h-5zm5,0h4v23h-4zm4,5h5v23h-5zm5,0h4v23h-4zm4,0h5v23h-5zm5,0h5v23h-5zm5,4h4v19h-4zm4,0h5v19h-5zm5,0h4v19h-4zm4,-4h5v23h-5zm5,0h5v18h-5zm5,-5h4v23h-4zm4,0h5v19h-5zm5,-4h5v18h-5zm5,0h4v18h-4zm4,-5h5v18h-5zm5,0h4v18h-4zm4,0h5v14h-5zm5,-4h5v18h-5zm5,0h4v18h-4zm4,-5h5v18h-5zm5,-5h4v14h-4zm4,-9h5v19h-5zm5,-9h5v18h-5zm5,-9h4v18h-4zm4,-9h5v18h-5zm5,-5h5v14h-5zm5,-9h4v14h-4zm4,-5h5v14h-5zm5,-4h4v14h-4zm4,-5h5v14h-5zm5,-4h5v13h-5zm5,-5h4v14h-4zm4,0h5v14h-5zm5,0h4v14h-4zm4,0h5v9h-5zm5,0h5v9h-5zm5,0h4v9h-4zm4,0h5v14h-5zm5,0h5v14h-5zm5,5h4v9h-4zm4,0h5v9h-5zm5,4h4v9h-4zm4,0h5v9h-5zm5,5h5v9h-5zm5,4h4v10h-4zm4,5h5v9h-5zm5,5h5v9h-5zm5,4h4v9h-4zm4,5h5v9h-5zm5,9h4v9h-4zm4,5h5v9h-5zm5,9h5v9h-5zm5,4h4v9h-4zm4,5h5v9h-5zm5,4h4v10h-4zm4,5h5v9h-5zm5,5h5v9h-5zm5,4h4v9h-4zm4,5h5v9h-5zm5,9h5v4h-5zm5,4h4v10h-4zm4,5h5v9h-5zm5,5h4v9h-4zm4,4h5v9h-5zm5,5h5v9h-5zm5,4h4v10h-4zm4,5h5v9h-5zm5,5h4v9h-4zm4,4h5v9h-5zm5,9h5v5h-5zm5,5h4v4h-4zm4,4h5v5h-5zm5,5h5v5h-5zm5,5h4v9h-4zm4,4h5v9h-5zm5,9h4v5h-4zm4,5h5v5h-5zm5,5h5v9h-5zm5,9h4v4h-4zm4,4h5v5h-5zm5,5h4v9h-4zm4,4h5v10h-5zm5,10h5v4h-5zm5,4h4v5h-4zm4,5h5v9h-5zm5,4h5v9h-5zm5,5h4v4h-4zm4,4h5v5h-5zm5,5h4v5h-4zm4,0h5v5h-5z"></path>
     <path fill="rgb(17, 108, 218)" d="M0,183h5v28h-5zm5,5h4v27h-4zm4,9h5v23h-5zm5,5h4v27h-4zm4,4h5v28h-5zm5,5h5v27h-5zm5,4h4v28h-4zm4,5h5v23h-5zm5,4h5v23h-5zm5,0h4v23h-4zm4,5h5v23h-5zm5,0h4v23h-4zm4,0h5v23h-5zm5,5h5v18h-5zm5,0h4v22h-4zm4,0h5v22h-5zm5,0h4v22h-4zm4,0h5v18h-5zm5,-5h5v23h-5zm5,0h4v18h-4zm4,-5h5v23h-5zm5,0h5v19h-5zm5,0h4v19h-4zm4,-4h5v18h-5zm5,0h4v18h-4zm4,0h5v18h-5zm5,-5h5v19h-5zm5,0h4v19h-4zm4,-4h5v18h-5zm5,-5h4v18h-4zm4,-9h5v18h-5zm5,-9h5v18h-5zm5,-5h4v14h-4zm4,-9h5v14h-5zm5,-9h5v18h-5zm5,-5h4v14h-4zm4,-4h5v13h-5zm5,-5h4v14h-4zm4,-4h5v13h-5zm5,-5h5v14h-5zm5,0h4v9h-4zm4,-5h5v14h-5zm5,0h4v14h-4zm4,0h5v14h-5zm5,0h5v14h-5zm5,0h4v14h-4zm4,5h5v9h-5zm5,0h5v9h-5zm5,0h4v14h-4zm4,5h5v9h-5zm5,0h4v13h-4zm4,4h5v9h-5zm5,5h5v9h-5zm5,4h4v9h-4zm4,5h5v9h-5zm5,4h5v10h-5zm5,5h4v9h-4zm4,5h5v9h-5zm5,9h4v9h-4zm4,4h5v10h-5zm5,10h5v9h-5zm5,4h4v9h-4zm4,5h5v9h-5zm5,4h4v9h-4zm4,5h5v9h-5zm5,4h5v10h-5zm5,5h4v9h-4zm4,9h5v5h-5zm5,5h5v9h-5zm5,4h4v9h-4zm4,5h5v9h-5zm5,4h4v10h-4zm4,5h5v9h-5zm5,5h5v9h-5zm5,4h4v9h-4zm4,9h5v5h-5zm5,5h4v5h-4zm4,5h5v4h-5zm5,4h5v9h-5zm5,5h4v9h-4zm4,4h5v9h-5zm5,9h5v5h-5zm5,5h4v5h-4zm4,5h5v4h-5zm5,4h4v9h-4zm4,5h5v9h-5zm5,9h5v5h-5zm5,5h4v9h-4zm4,4h5v9h-5zm5,9h4v5h-4zm4,5h5v4h-5zm5,4h5v10h-5zm5,10h4v4h-4zm4,4h5v5h-5zm5,5h5v4h-5zm5,4h4v5h-4zm4,5h5v4h-5zm5,0h4v9h-4zm4,4h5v5h-5z"></path>
     <path fill="rgb(18, 111, 217)" d="M0,156h5v27h-5zm5,9h4v23h-4zm4,4h5v28h-5zm5,10h4v23h-4zm4,4h5v23h-5zm5,5h5v23h-5zm5,4h4v23h-4zm4,5h5v23h-5zm5,5h5v22h-5zm5,0h4v22h-4zm4,4h5v23h-5zm5,0h4v23h-4zm4,5h5v18h-5zm5,0h5v23h-5zm5,4h4v19h-4zm4,0h5v19h-5zm5,0h4v19h-4zm4,-4h5v23h-5zm5,0h5v18h-5zm5,0h4v18h-4zm4,-5h5v18h-5zm5,0h5v18h-5zm5,0h4v18h-4zm4,-4h5v18h-5zm5,0h4v18h-4zm4,0h5v18h-5zm5,0h5v13h-5zm5,-5h4v18h-4zm4,0h5v14h-5zm5,-9h4v18h-4zm4,-5h5v14h-5zm5,-9h5v14h-5zm5,-9h4v18h-4zm4,-5h5v14h-5zm5,-9h5v14h-5zm5,-4h4v13h-4zm4,-5h5v14h-5zm5,-5h4v14h-4zm4,-4h5v14h-5zm5,-5h5v14h-5zm5,0h4v14h-4zm4,0h5v9h-5zm5,0h4v9h-4zm4,0h5v9h-5zm5,0h5v9h-5zm5,0h4v9h-4zm4,0h5v14h-5zm5,5h5v9h-5zm5,0h4v9h-4zm4,0h5v14h-5zm5,4h4v10h-4zm4,5h5v9h-5zm5,5h5v9h-5zm5,4h4v9h-4zm4,5h5v9h-5zm5,4h5v9h-5zm5,5h4v9h-4zm4,4h5v10h-5zm5,10h4v9h-4zm4,4h5v9h-5zm5,9h5v10h-5zm5,5h4v9h-4zm4,5h5v9h-5zm5,4h4v9h-4zm4,5h5v9h-5zm5,4h5v9h-5zm5,9h4v5h-4zm4,5h5v9h-5zm5,5h5v9h-5zm5,4h4v9h-4zm4,5h5v9h-5zm5,4h4v9h-4zm4,9h5v5h-5zm5,5h5v5h-5zm5,5h4v4h-4zm4,4h5v9h-5zm5,5h4v9h-4zm4,4h5v10h-5zm5,10h5v4h-5zm5,4h4v5h-4zm4,5h5v4h-5zm5,4h5v9h-5zm5,5h4v9h-4zm4,9h5v5h-5zm5,5h4v4h-4zm4,4h5v5h-5zm5,5h5v9h-5zm5,9h4v5h-4zm4,5h5v4h-5zm5,4h4v9h-4zm4,9h5v5h-5zm5,5h5v4h-5zm5,4h4v10h-4zm4,10h5v4h-5zm5,4h5v5h-5zm5,0h4v9h-4zm4,5h5v9h-5zm5,4h4v5h-4zm4,5h5v4h-5z"></path>
     <path fill="rgb(18, 114, 217)" d="M0,128h5v28h-5zm5,9h4v28h-4zm4,10h5v22h-5zm5,4h4v28h-4zm4,9h5v23h-5zm5,5h5v23h-5zm5,4h4v23h-4zm4,5h5v23h-5zm5,5h5v23h-5zm5,4h4v19h-4zm4,0h5v23h-5zm5,5h4v18h-4zm4,0h5v23h-5zm5,4h5v19h-5zm5,0h4v23h-4zm4,0h5v23h-5zm5,0h4v23h-4zm4,0h5v19h-5zm5,0h5v19h-5zm5,-4h4v23h-4zm4,0h5v18h-5zm5,0h5v18h-5zm5,0h4v18h-4zm4,0h5v14h-5zm5,-5h4v19h-4zm4,0h5v19h-5zm5,0h5v19h-5zm5,0h4v14h-4zm4,-4h5v18h-5zm5,-5h4v14h-4zm4,-9h5v18h-5zm5,-5h5v14h-5zm5,-9h4v14h-4zm4,-9h5v18h-5zm5,-5h5v14h-5zm5,-4h4v14h-4zm4,-5h5v14h-5zm5,-4h4v13h-4zm4,-5h5v14h-5zm5,0h5v9h-5zm5,-4h4v13h-4zm4,0h5v13h-5zm5,0h4v13h-4zm4,0h5v13h-5zm5,0h5v13h-5zm5,4h4v9h-4zm4,0h5v9h-5zm5,0h5v14h-5zm5,5h4v9h-4zm4,0h5v9h-5zm5,4h4v9h-4zm4,5h5v9h-5zm5,0h5v14h-5zm5,4h4v14h-4zm4,10h5v9h-5zm5,4h5v9h-5zm5,5h4v9h-4zm4,4h5v9h-5zm5,9h4v10h-4zm4,5h5v9h-5zm5,9h5v9h-5zm5,5h4v9h-4zm4,4h5v10h-5zm5,5h4v9h-4zm4,5h5v9h-5zm5,9h5v4h-5zm5,4h4v9h-4zm4,5h5v9h-5zm5,4h5v10h-5zm5,10h4v4h-4zm4,4h5v5h-5zm5,5h4v4h-4zm4,4h5v9h-5zm5,5h5v9h-5zm5,4h4v10h-4zm4,5h5v9h-5zm5,9h4v5h-4zm4,5h5v4h-5zm5,4h5v10h-5zm5,5h4v9h-4zm4,5h5v9h-5zm5,9h5v4h-5zm5,4h4v5h-4zm4,5h5v9h-5zm5,4h4v10h-4zm4,10h5v4h-5zm5,4h5v5h-5zm5,5h4v9h-4zm4,9h5v5h-5zm5,5h4v4h-4zm4,4h5v9h-5zm5,9h5v5h-5zm5,5h4v4h-4zm4,4h5v10h-5zm5,5h5v9h-5zm5,5h4v4h-4zm4,4h5v5h-5zm5,5h4v4h-4zm4,4h5v5h-5z"></path>
     <path fill="rgb(18, 117, 216)" d="M0,105h5v23h-5zm5,10h4v22h-4zm4,4h5v28h-5zm5,9h4v23h-4zm4,9h5v23h-5zm5,5h5v23h-5zm5,5h4v22h-4zm4,4h5v23h-5zm5,5h5v23h-5zm5,4h4v23h-4zm4,5h5v18h-5zm5,0h4v23h-4zm4,4h5v19h-5zm5,0h5v23h-5zm5,5h4v18h-4zm4,0h5v18h-5zm5,0h4v18h-4zm4,0h5v18h-5zm5,0h5v18h-5zm5,-5h4v19h-4zm4,0h5v19h-5zm5,0h5v19h-5zm5,0h4v19h-4zm4,0h5v19h-5zm5,0h4v14h-4zm4,0h5v14h-5zm5,0h5v14h-5zm5,-4h4v18h-4zm4,-5h5v19h-5zm5,-4h4v18h-4zm4,-5h5v14h-5zm5,-9h5v18h-5zm5,-5h4v14h-4zm4,-9h5v14h-5zm5,-4h5v13h-5zm5,-5h4v14h-4zm4,-4h5v13h-5zm5,-5h4v14h-4zm4,-5h5v14h-5zm5,0h5v14h-5zm5,0h4v10h-4zm4,-4h5v14h-5zm5,4h4v10h-4zm4,0h5v10h-5zm5,0h5v10h-5zm5,0h4v14h-4zm4,0h5v14h-5zm5,5h5v9h-5zm5,0h4v14h-4zm4,5h5v9h-5zm5,4h4v9h-4zm4,0h5v14h-5zm5,5h5v9h-5zm5,4h4v9h-4zm4,5h5v14h-5zm5,9h5v9h-5zm5,5h4v9h-4zm4,4h5v9h-5zm5,9h4v9h-4zm4,5h5v9h-5zm5,9h5v9h-5zm5,5h4v9h-4zm4,4h5v9h-5zm5,5h4v9h-4zm4,9h5v5h-5zm5,5h5v9h-5zm5,4h4v9h-4zm4,5h5v9h-5zm5,9h5v4h-5zm5,4h4v10h-4zm4,5h5v9h-5zm5,5h4v9h-4zm4,4h5v9h-5zm5,9h5v5h-5zm5,5h4v4h-4zm4,4h5v5h-5zm5,5h4v9h-4zm4,5h5v9h-5zm5,9h5v4h-5zm5,4h4v5h-4zm4,5h5v5h-5zm5,5h5v9h-5zm5,4h4v9h-4zm4,9h5v5h-5zm5,5h4v4h-4zm4,4h5v10h-5zm5,10h5v4h-5zm5,4h4v5h-4zm4,5h5v9h-5zm5,9h4v5h-4zm4,5h5v4h-5zm5,9h5v4h-5zm5,4h4v5h-4zm4,5h5v4h-5zm5,4h5v5h-5zm5,5h4v5h-4zm4,5h5v4h-5zm5,4h4v5h-4zm4,0h5v9h-5z"></path>
     <path fill="rgb(19, 121, 215)" d="M0,78h5v27h-5zm5,9h4v28h-4zm4,9h5v23h-5zm5,9h4v23h-4zm4,5h5v27h-5zm5,9h5v23h-5zm5,5h4v23h-4zm4,4h5v23h-5zm5,5h5v23h-5zm5,4h4v23h-4zm4,5h5v23h-5zm5,5h4v18h-4zm4,0h5v22h-5zm5,4h5v18h-5zm5,5h4v18h-4zm4,0h5v18h-5zm5,0h4v18h-4zm4,0h5v18h-5zm5,0h5v18h-5zm5,-5h4v18h-4zm4,0h5v18h-5zm5,0h5v18h-5zm5,0h4v18h-4zm4,0h5v18h-5zm5,0h4v18h-4zm4,0h5v18h-5zm5,0h5v18h-5zm5,0h4v14h-4zm4,-4h5v13h-5zm5,-5h4v14h-4zm4,-9h5v18h-5zm5,-5h5v14h-5zm5,-9h4v18h-4zm4,-4h5v13h-5zm5,-5h5v14h-5zm5,-5h4v14h-4zm4,-4h5v14h-5zm5,-5h4v14h-4zm4,-4h5v13h-5zm5,0h5v13h-5zm5,0h4v13h-4zm4,0h5v9h-5zm5,0h4v13h-4zm4,0h5v13h-5zm5,0h5v13h-5zm5,4h4v9h-4zm4,0h5v9h-5zm5,5h5v9h-5zm5,0h4v9h-4zm4,4h5v10h-5zm5,0h4v14h-4zm4,5h5v9h-5zm5,5h5v9h-5zm5,4h4v9h-4zm4,5h5v9h-5zm5,9h5v9h-5zm5,4h4v10h-4zm4,5h5v9h-5zm5,9h4v9h-4zm4,9h5v5h-5zm5,5h5v9h-5zm5,4h4v10h-4zm4,5h5v9h-5zm5,5h4v9h-4zm4,9h5v9h-5zm5,4h5v10h-5zm5,5h4v9h-4zm4,9h5v5h-5zm5,5h5v9h-5zm5,4h4v9h-4zm4,5h5v9h-5zm5,9h4v5h-4zm4,5h5v4h-5zm5,4h5v9h-5zm5,5h4v9h-4zm4,4h5v9h-5zm5,9h4v5h-4zm4,5h5v5h-5zm5,5h5v9h-5zm5,4h4v9h-4zm4,9h5v5h-5zm5,5h5v5h-5zm5,5h4v4h-4zm4,4h5v9h-5zm5,9h4v5h-4zm4,5h5v4h-5zm5,4h5v10h-5zm5,10h4v4h-4zm4,4h5v5h-5zm5,9h4v5h-4zm4,5h5v5h-5zm5,5h5v9h-5zm5,9h4v4h-4zm4,4h5v5h-5zm5,5h5v4h-5zm5,4h4v5h-4zm4,5h5v5h-5zm5,5h4v4h-4zm4,0h5v4h-5z"></path>
     <path fill="rgb(19, 123, 215)" d="M0,55h5v23h-5zm5,9h4v23h-4zm4,9h5v23h-5zm5,9h4v23h-4zm4,5h5v23h-5zm5,9h5v23h-5zm5,5h4v23h-4zm4,9h5v18h-5zm5,5h5v18h-5zm5,4h4v18h-4zm4,0h5v23h-5zm5,5h4v23h-4zm4,4h5v19h-5zm5,5h5v18h-5zm5,0h4v23h-4zm4,4h5v19h-5zm5,0h4v19h-4zm4,0h5v19h-5zm5,0h5v19h-5zm5,-4h4v18h-4zm4,0h5v18h-5zm5,0h5v18h-5zm5,0h4v18h-4zm4,4h5v14h-5zm5,0h4v14h-4zm4,0h5v14h-5zm5,0h5v14h-5zm5,-4h4v18h-4zm4,-5h5v19h-5zm5,-4h4v18h-4zm4,-5h5v14h-5zm5,-4h5v13h-5zm5,-10h4v14h-4zm4,-4h5v14h-5zm5,-5h5v14h-5zm5,-4h4v13h-4zm4,-5h5v14h-5zm5,-5h4v14h-4zm4,0h5v10h-5zm5,-4h5v14h-5zm5,0h4v14h-4zm4,0h5v14h-5zm5,0h4v14h-4zm4,4h5v10h-5zm5,0h5v10h-5zm5,0h4v14h-4zm4,5h5v9h-5zm5,0h5v14h-5zm5,5h4v9h-4zm4,0h5v13h-5zm5,4h4v9h-4zm4,5h5v9h-5zm5,4h5v10h-5zm5,5h4v9h-4zm4,5h5v9h-5zm5,9h5v9h-5zm5,4h4v9h-4zm4,5h5v9h-5zm5,9h4v9h-4zm4,9h5v9h-5zm5,5h5v9h-5zm5,4h4v9h-4zm4,5h5v9h-5zm5,9h4v5h-4zm4,5h5v9h-5zm5,4h5v9h-5zm5,5h4v9h-4zm4,9h5v9h-5zm5,5h5v9h-5zm5,4h4v9h-4zm4,9h5v5h-5zm5,5h4v9h-4zm4,4h5v10h-5zm5,5h5v9h-5zm5,9h4v5h-4zm4,5h5v4h-5zm5,4h4v9h-4zm4,5h5v9h-5zm5,9h5v5h-5zm5,5h4v4h-4zm4,4h5v9h-5zm5,5h5v9h-5zm5,9h4v5h-4zm4,5h5v4h-5zm5,4h4v9h-4zm4,9h5v5h-5zm5,5h5v4h-5zm5,9h4v5h-4zm4,5h5v4h-5zm5,4h4v9h-4zm4,9h5v5h-5zm5,5h5v5h-5zm5,5h4v9h-4zm4,9h5v4h-5zm5,4h5v5h-5zm5,5h4v4h-4zm4,4h5v5h-5zm5,0h4v10h-4zm4,5h5v5h-5z"></path>
     <path fill="rgb(20, 126, 214)" d="M0,27h5v28h-5zM5,37h4v27h-4zM9,50h5v23h-5zm5,10h4v22h-4zm4,4h5v23h-5zm5,9h5v23h-5zm5,5h4v23h-4zm4,9h5v23h-5zm5,5h5v23h-5zm5,4h4v23h-4zm4,5h5v18h-5zm5,4h4v19h-4zm4,5h5v18h-5zm5,0h5v23h-5zm5,5h4v18h-4zm4,0h5v22h-5zm5,4h4v18h-4zm4,0h5v18h-5zm5,0h5v18h-5zm5,-4h4v18h-4zm4,0h5v18h-5zm5,4h5v14h-5zm5,0h4v14h-4zm4,0h5v18h-5zm5,0h4v18h-4zm4,0h5v18h-5zm5,0h5v18h-5zm5,0h4v14h-4zm4,-4h5v13h-5zm5,-5h4v14h-4zm4,-5h5v14h-5zm5,-9h5v19h-5zm5,-4h4v13h-4zm4,-5h5v14h-5zm5,-5h5v14h-5zm5,-4h4v14h-4zm4,-5h5v14h-5zm5,-4h4v13h-4zm4,0h5v13h-5zm5,0h5v9h-5zm5,0h4v9h-4zm4,0h5v9h-5zm5,0h4v9h-4zm4,0h5v13h-5zm5,4h5v9h-5zm5,0h4v9h-4zm4,0h5v14h-5zm5,5h5v9h-5zm5,0h4v14h-4zm4,4h5v10h-5zm5,5h4v9h-4zm4,5h5v9h-5zm5,4h5v9h-5zm5,5h4v9h-4zm4,4h5v10h-5zm5,10h5v9h-5zm5,4h4v9h-4zm4,9h5v5h-5zm5,5h4v9h-4zm4,9h5v9h-5zm5,5h5v9h-5zm5,4h4v9h-4zm4,5h5v9h-5zm5,9h4v9h-4zm4,4h5v10h-5zm5,5h5v9h-5zm5,9h4v5h-4zm4,5h5v9h-5zm5,4h5v10h-5zm5,10h4v4h-4zm4,4h5v9h-5zm5,5h4v9h-4zm4,9h5v4h-5zm5,4h5v5h-5zm5,5h4v9h-4zm4,5h5v9h-5zm5,9h4v4h-4zm4,4h5v5h-5zm5,5h5v9h-5zm5,4h4v10h-4zm4,10h5v4h-5zm5,4h5v5h-5zm5,5h4v9h-4zm4,9h5v5h-5zm5,5h4v4h-4zm4,4h5v9h-5zm5,9h5v5h-5zm5,5h4v9h-4zm4,9h5v5h-5zm5,5h4v4h-4zm4,4h5v9h-5zm5,9h5v5h-5zm5,5h4v5h-4zm4,5h5v9h-5zm5,4h5v9h-5zm5,9h4v5h-4zm4,0h5v9h-5zm5,5h4v4h-4zm4,4h5v5h-5z"></path>
     <path fill="rgb(20, 129, 214)" d="M0,5h5v22h-5zm5,9h4v23h-4zm4,9h5v27h-5zm5,9h4v28h-4zm4,9h5v23h-5zm5,9h5v23h-5zm5,10h4v18h-4zm4,4h5v23h-5zm5,5h5v23h-5zm5,4h4v23h-4zm4,5h5v23h-5zm5,4h4v23h-4zm4,5h5v23h-5zm5,5h5v18h-5zm5,4h4v19h-4zm4,0h5v19h-5zm5,5h4v18h-4zm4,0h5v18h-5zm5,0h5v18h-5zm5,0h4v14h-4zm4,0h5v14h-5zm5,0h5v18h-5zm5,0h4v18h-4zm4,0h5v18h-5zm5,4h4v14h-4zm4,0h5v14h-5zm5,0h5v14h-5zm5,-4h4v18h-4zm4,0h5v14h-5zm5,-9h4v18h-4zm4,-5h5v18h-5zm5,-5h5v14h-5zm5,-4h4v14h-4zm4,-5h5v14h-5zm5,-4h5v13h-5zm5,-5h4v14h-4zm4,-4h5v13h-5zm5,0h4v9h-4zm4,-5h5v14h-5zm5,0h5v14h-5zm5,0h4v14h-4zm4,0h5v14h-5zm5,0h4v14h-4zm4,5h5v9h-5zm5,0h5v13h-5zm5,4h4v9h-4zm4,0h5v9h-5zm5,5h5v9h-5zm5,0h4v9h-4zm4,4h5v9h-5zm5,5h4v9h-4zm4,4h5v10h-5zm5,5h5v9h-5zm5,5h4v9h-4zm4,4h5v9h-5zm5,9h5v10h-5zm5,5h4v9h-4zm4,9h5v9h-5zm5,5h4v9h-4zm4,9h5v9h-5zm5,4h5v10h-5zm5,5h4v9h-4zm4,9h5v5h-5zm5,5h4v9h-4zm4,4h5v9h-5zm5,9h5v5h-5zm5,5h4v9h-4zm4,5h5v9h-5zm5,9h5v4h-5zm5,4h4v10h-4zm4,5h5v9h-5zm5,9h4v5h-4zm4,5h5v9h-5zm5,4h5v9h-5zm5,9h4v5h-4zm4,5h5v5h-5zm5,5h4v9h-4zm4,4h5v9h-5zm5,9h5v5h-5zm5,5h4v4h-4zm4,4h5v10h-5zm5,10h5v4h-5zm5,4h4v5h-4zm4,5h5v9h-5zm5,9h4v5h-4zm4,5h5v4h-5zm5,9h5v4h-5zm5,4h4v5h-4zm4,5h5v9h-5zm5,9h4v5h-4zm4,5h5v4h-5zm5,9h5v4h-5zm5,4h4v5h-4zm4,5h5v5h-5zm5,5h5v4h-5zm5,4h4v9h-4zm4,5h5v4h-5zm5,4h4v5h-4zm4,5h5v4h-5z"></path>
     <path fill="rgb(19, 132, 213)" d="M0,0h5v5h-5zM5,0h4v14h-4zM9,0h5v23h-5zm5,9h4v23h-4zm4,9h5v23h-5zm5,9h5v23h-5zm5,10h4v23h-4zm4,4h5v23h-5zm5,9h5v19h-5zm5,5h4v18h-4zm4,5h5v18h-5zm5,4h4v18h-4zm4,5h5v18h-5zm5,4h5v19h-5zm5,5h4v18h-4zm4,0h5v18h-5zm5,0h4v23h-4zm4,4h5v19h-5zm5,0h5v19h-5zm5,0h4v19h-4zm4,0h5v19h-5zm5,0h5v19h-5zm5,5h4v14h-4zm4,0h5v14h-5zm5,0h4v18h-4zm4,0h5v18h-5zm5,0h5v18h-5zm5,0h4v14h-4zm4,-5h5v19h-5zm5,-4h4v14h-4zm4,-5h5v14h-5zm5,-4h5v13h-5zm5,-5h4v14h-4zm4,-4h5v13h-5zm5,-5h5v14h-5zm5,-5h4v14h-4zm4,-4h5v14h-5zm5,0h4v14h-4zm4,-5h5v14h-5zm5,0h5v14h-5zm5,0h4v14h-4zm4,5h5v9h-5zm5,0h4v9h-4zm4,0h5v14h-5zm5,4h5v10h-5zm5,0h4v14h-4zm4,5h5v9h-5zm5,0h5v14h-5zm5,5h4v9h-4zm4,4h5v9h-5zm5,5h4v9h-4zm4,4h5v9h-5zm5,5h5v9h-5zm5,4h4v10h-4zm4,5h5v9h-5zm5,9h5v9h-5zm5,5h4v9h-4zm4,9h5v9h-5zm5,5h4v9h-4zm4,9h5v9h-5zm5,4h5v9h-5zm5,5h4v9h-4zm4,9h5v9h-5zm5,5h4v9h-4zm4,4h5v9h-5zm5,9h5v9h-5zm5,5h4v9h-4zm4,9h5v5h-5zm5,5h5v9h-5zm5,4h4v9h-4zm4,9h5v5h-5zm5,5h4v9h-4zm4,5h5v9h-5zm5,9h5v4h-5zm5,4h4v9h-4zm4,5h5v9h-5zm5,9h4v5h-4zm4,5h5v4h-5zm5,4h5v9h-5zm5,9h4v5h-4zm4,5h5v4h-5zm5,4h5v10h-5zm5,10h4v4h-4zm4,4h5v5h-5zm5,5h4v9h-4zm4,9h5v5h-5zm5,5h5v9h-5zm5,9h4v4h-4zm4,4h5v5h-5zm5,9h4v5h-4zm4,5h5v5h-5zm5,5h5v9h-5zm5,9h4v4h-4zm4,4h5v5h-5zm5,5h5v5h-5zm5,5h4v4h-4zm4,4h5v5h-5zm5,5h4v4h-4zm4,4h5v5h-5z"></path>
     <path fill="rgb(18, 134, 212)" d="M14,0h4v9h-4zm4,0h5v18h-5zm5,5h5v22h-5zm5,9h4v23h-4zm4,9h5v18h-5zm5,4h5v23h-5zm5,5h4v23h-4zm4,9h5v19h-5zm5,5h4v18h-4zm4,4h5v19h-5zm5,5h5v18h-5zm5,5h4v18h-4zm4,0h5v18h-5zm5,0h4v18h-4zm4,4h5v18h-5zm5,0h5v18h-5zm5,0h4v18h-4zm4,0h5v18h-5zm5,5h5v13h-5zm5,0h4v18h-4zm4,0h5v18h-5zm5,4h4v14h-4zm4,0h5v14h-5zm5,0h5v14h-5zm5,0h4v14h-4zm4,-4h5v13h-5zm5,-5h4v14h-4zm4,-4h5v13h-5zm5,-5h5v14h-5zm5,-5h4v14h-4zm4,-4h5v14h-5zm5,-5h5v14h-5zm5,-4h4v13h-4zm4,-5h5v14h-5zm5,0h4v14h-4zm4,0h5v9h-5zm5,0h5v9h-5zm5,0h4v9h-4zm4,0h5v14h-5zm5,0h4v14h-4zm4,5h5v9h-5zm5,0h5v13h-5zm5,4h4v9h-4zm4,0h5v14h-5zm5,5h5v9h-5zm5,4h4v10h-4zm4,0h5v14h-5zm5,10h4v9h-4zm4,4h5v9h-5zm5,5h5v9h-5zm5,4h4v9h-4zm4,5h5v9h-5zm5,9h5v9h-5zm5,5h4v9h-4zm4,9h5v9h-5zm5,4h4v10h-4zm4,10h5v9h-5zm5,4h5v9h-5zm5,9h4v5h-4zm4,5h5v9h-5zm5,4h4v10h-4zm4,10h5v4h-5zm5,4h5v9h-5zm5,5h4v9h-4zm4,9h5v9h-5zm5,4h5v10h-5zm5,10h4v4h-4zm4,4h5v9h-5zm5,5h4v9h-4zm4,9h5v5h-5zm5,5h5v9h-5zm5,9h4v4h-4zm4,4h5v5h-5zm5,5h4v9h-4zm4,9h5v5h-5zm5,5h5v4h-5zm5,4h4v9h-4zm4,9h5v5h-5zm5,5h5v4h-5zm5,4h4v10h-4zm4,10h5v4h-5zm5,4h4v5h-4zm4,9h5v5h-5zm5,5h5v5h-5zm5,5h4v9h-4zm4,9h5v4h-5zm5,4h4v9h-4zm4,9h5v5h-5zm5,5h5v5h-5zm5,9h4v5h-4zm4,5h5v4h-5zm5,4h5v5h-5zm5,5h4v5h-4zm4,5h5v4h-5zm5,4h4v5h-4zm4,5h5v4h-5z"></path>
     <path fill="rgb(16, 137, 211)" d="M23,0h5v5h-5zm5,0h4v14h-4zm4,0h5v23h-5zm5,9h5v18h-5zm5,5h4v18h-4zm4,4h5v23h-5zm5,5h4v23h-4zm4,9h5v18h-5zm5,5h5v18h-5zm5,4h4v19h-4zm4,0h5v19h-5zm5,0h4v19h-4zm4,5h5v18h-5zm5,0h5v18h-5zm5,0h4v18h-4zm4,0h5v18h-5zm5,4h5v19h-5zm5,0h4v19h-4zm4,5h5v14h-5zm5,0h4v18h-4zm4,5h5v13h-5zm5,0h5v13h-5zm5,-5h4v18h-4zm4,-5h5v19h-5zm5,-4h4v18h-4zm4,-5h5v19h-5zm5,-4h5v18h-5zm5,-5h4v18h-4zm4,0h5v14h-5zm5,-5h5v14h-5zm5,-4h4v14h-4zm4,0h5v9h-5zm5,-5h4v14h-4zm4,0h5v14h-5zm5,0h5v14h-5zm5,0h4v14h-4zm4,0h5v14h-5zm5,5h4v9h-4zm4,0h5v14h-5zm5,4h5v10h-5zm5,0h4v14h-4zm4,5h5v9h-5zm5,5h5v9h-5zm5,0h4v13h-4zm4,4h5v9h-5zm5,5h4v14h-4zm4,4h5v14h-5zm5,10h5v9h-5zm5,4h4v9h-4zm4,5h5v9h-5zm5,9h5v9h-5zm5,4h4v10h-4zm4,10h5v9h-5zm5,4h4v9h-4zm4,9h5v10h-5zm5,5h5v9h-5zm5,9h4v9h-4zm4,5h5v9h-5zm5,4h4v9h-4zm4,9h5v10h-5zm5,5h5v9h-5zm5,9h4v5h-4zm4,5h5v9h-5zm5,9h5v4h-5zm5,4h4v10h-4zm4,10h5v4h-5zm5,4h4v5h-4zm4,5h5v9h-5zm5,9h5v5h-5zm5,5h4v9h-4zm4,4h5v9h-5zm5,9h4v5h-4zm4,5h5v9h-5zm5,4h5v10h-5zm5,10h4v4h-4zm4,4h5v9h-5zm5,9h5v5h-5zm5,5h4v4h-4zm4,4h5v10h-5zm5,10h4v4h-4zm4,4h5v9h-5zm5,9h5v5h-5zm5,5h4v5h-4zm4,9h5v5h-5zm5,5h4v4h-4zm4,9h5v4h-5zm5,4h5v5h-5zm5,5h4v9h-4zm4,9h5v5h-5zm5,5h5v4h-5zm5,4h4v5h-4zm4,5h5v5h-5zm5,5h4v4h-4zm4,4h5v5h-5z"></path>
     <path fill="rgb(16, 140, 210)" d="M37,0h5v9h-5zm5,0h4v14h-4zm4,0h5v18h-5zm5,5h4v18h-4zm4,4h5v23h-5zm5,9h5v19h-5zm5,0h4v23h-4zm4,5h5v18h-5zm5,0h4v18h-4zm4,4h5v19h-5zm5,0h5v19h-5zm5,0h4v19h-4zm4,5h5v14h-5zm5,0h5v18h-5zm5,5h4v13h-4zm4,0h5v18h-5zm5,4h4v14h-4zm4,0h5v19h-5zm5,0h5v19h-5zm5,0h4v14h-4zm4,-4h5v13h-5zm5,-5h4v14h-4zm4,-5h5v14h-5zm5,-4h5v14h-5zm5,-5h4v14h-4zm4,0h5v14h-5zm5,-4h5v13h-5zm5,-5h4v14h-4zm4,0h5v14h-5zm5,-4h4v13h-4zm4,0h5v13h-5zm5,0h5v13h-5zm5,4h4v9h-4zm4,0h5v9h-5zm5,0h4v14h-4zm4,5h5v9h-5zm5,0h5v13h-5zm5,4h4v9h-4zm4,5h5v9h-5zm5,0h5v14h-5zm5,4h4v10h-4zm4,5h5v9h-5zm5,5h4v9h-4zm4,4h5v9h-5zm5,5h5v14h-5zm5,9h4v9h-4zm4,5h5v9h-5zm5,9h5v9h-5zm5,4h4v9h-4zm4,9h5v10h-5zm5,10h4v4h-4zm4,4h5v9h-5zm5,9h5v5h-5zm5,5h4v9h-4zm4,5h5v9h-5zm5,9h4v4h-4zm4,4h5v9h-5zm5,9h5v5h-5zm5,5h4v9h-4zm4,9h5v5h-5zm5,5h5v9h-5zm5,9h4v4h-4zm4,4h5v10h-5zm5,5h4v9h-4zm4,9h5v5h-5zm5,5h5v9h-5zm5,4h4v10h-4zm4,10h5v4h-5zm5,4h4v9h-4zm4,9h5v5h-5zm5,5h5v4h-5zm5,4h4v10h-4zm4,10h5v4h-5zm5,4h5v9h-5zm5,9h4v5h-4zm4,5h5v4h-5zm5,4h4v10h-4zm4,10h5v4h-5zm5,4h5v9h-5zm5,9h4v5h-4zm4,5h5v9h-5zm5,9h4v5h-4zm4,5h5v9h-5zm5,9h5v4h-5zm5,4h4v5h-4zm4,10h5v4h-5zm5,4h5v5h-5zm5,5h4v4h-4zm4,4h5v5h-5zm5,5h4v5h-4zm4,5h5v4h-5z"></path>
     <path fill="rgb(14, 143, 209)" d="M51,0h4v5h-4zm4,0h5v9h-5zm5,0h5v18h-5zm5,0h4v18h-4zm4,5h5v18h-5zm5,0h4v18h-4zm4,4h5v18h-5zm5,0h5v18h-5zm5,5h4v13h-4zm4,0h5v18h-5zm5,4h5v14h-5zm5,0h4v19h-4zm4,5h5v14h-5zm5,0h4v18h-4zm4,4h5v14h-5zm5,0h5v14h-5zm5,-4h4v18h-4zm4,0h5v14h-5zm5,-5h4v14h-4zm4,-4h5v13h-5zm5,-5h5v14h-5zm5,-4h4v13h-4zm4,0h5v13h-5zm5,-5h5v14h-5zm5,0h4v9h-4zm4,0h5v9h-5zm5,0h4v5h-4zm4,0h5v5h-5zm5,0h5v5h-5zm5,0h4v9h-4zm4,0h5v9h-5zm5,0h4v9h-4zm4,0h5v14h-5zm5,5h5v9h-5zm5,4h4v9h-4zm4,0h5v14h-5zm5,5h5v9h-5zm5,4h4v9h-4zm4,5h5v9h-5zm5,4h4v10h-4zm4,5h5v9h-5zm5,5h5v9h-5zm5,9h4v9h-4zm4,4h5v10h-5zm5,10h5v9h-5zm5,4h4v9h-4zm4,9h5v9h-5zm5,9h4v10h-4zm4,5h5v9h-5zm5,9h5v9h-5zm5,5h4v9h-4zm4,4h5v10h-5zm5,10h4v9h-4zm4,4h5v9h-5zm5,9h5v9h-5zm5,5h4v9h-4zm4,9h5v9h-5zm5,5h5v9h-5zm5,9h4v9h-4zm4,4h5v9h-5zm5,9h4v5h-4zm4,5h5v9h-5zm5,9h5v5h-5zm5,5h4v4h-4zm4,4h5v10h-5zm5,10h4v4h-4zm4,4h5v9h-5zm5,9h5v5h-5zm5,5h4v4h-4zm4,4h5v10h-5zm5,10h5v4h-5zm5,4h4v9h-4zm4,9h5v5h-5zm5,5h4v4h-4zm4,9h5v5h-5zm5,5h5v4h-5zm5,9h4v4h-4zm4,4h5v5h-5zm5,10h4v4h-4zm4,4h5v5h-5zm5,9h5v5h-5zm5,5h4v4h-4zm4,4h5v10h-5zm5,10h5v4h-5zm5,4h4v5h-4zm4,5h5v4h-5zm5,4h4v5h-4zm4,5h5v5h-5z"></path>
     <path fill="rgb(13, 146, 208)" d="M69,0h5v5h-5zm5,0h4v5h-4zm4,0h5v9h-5zm5,0h5v9h-5zm5,0h4v14h-4zm4,0h5v14h-5zm5,0h5v18h-5zm5,5h4v13h-4zm4,0h5v18h-5zm5,4h4v14h-4zm4,0h5v18h-5zm5,0h5v18h-5zm5,0h4v14h-4zm4,-4h5v18h-5zm5,0h4v13h-4zm4,-5h5v14h-5zm5,0h5v9h-5zm5,0h4v5h-4zm4,0h5v5h-5zm51,0h5v5h-5zm5,0h4v9h-4zm4,0h5v9h-5zm5,5h5v9h-5zm5,4h4v9h-4zm4,5h5v9h-5zm5,4h4v9h-4zm4,5h5v9h-5zm5,4h5v10h-5zm5,10h4v9h-4zm4,4h5v9h-5zm5,9h5v10h-5zm5,5h4v9h-4zm4,9h5v9h-5zm5,9h4v9h-4zm4,5h5v9h-5zm5,9h5v9h-5zm5,5h4v9h-4zm4,9h5v4h-5zm5,4h4v10h-4zm4,10h5v4h-5zm5,4h5v9h-5zm5,9h4v5h-4zm4,5h5v9h-5zm5,9h5v5h-5zm5,5h4v9h-4zm4,9h5v4h-5zm5,4h4v9h-4zm4,9h5v5h-5zm5,5h5v9h-5zm5,5h4v9h-4zm4,9h5v4h-5zm5,4h4v10h-4zm4,10h5v4h-5zm5,4h5v9h-5zm5,9h4v5h-4zm4,5h5v4h-5zm5,9h5v5h-5zm5,5h4v4h-4zm4,4h5v9h-5zm5,9h4v5h-4zm4,5h5v9h-5zm5,9h5v5h-5zm5,9h4v5h-4zm4,5h5v4h-5zm5,4h4v10h-4zm4,10h5v4h-5zm5,9h5v4h-5zm5,4h4v5h-4zm4,5h5v4h-5zm5,9h5v5h-5zm5,5h4v4h-4zm4,4h5v5h-5zm5,5h4v4h-4zm4,4h5v5h-5z"></path>
     <path fill="rgb(12, 148, 207)" d="M102,0h4v5h-4zm4,0h5v5h-5zm5,0h4v9h-4zm4,0h5v9h-5zm5,0h5v9h-5zm5,0h4v9h-4zm4,0h5v5h-5zm5,0h4v5h-4zm83,0h5v5h-5zm5,0h4v9h-4zm4,0h5v14h-5zm5,9h4v9h-4zm4,5h5v9h-5zm5,4h5v9h-5zm5,9h4v10h-4zm4,5h5v9h-5zm5,9h5v9h-5zm5,5h4v9h-4zm4,9h5v9h-5zm5,9h4v9h-4zm4,5h5v9h-5zm5,9h5v9h-5zm5,4h4v10h-4zm4,10h5v9h-5zm5,4h4v9h-4zm4,9h5v10h-5zm5,5h5v9h-5zm5,9h4v9h-4zm4,9h5v5h-5zm5,5h5v9h-5zm5,9h4v5h-4zm4,5h5v9h-5zm5,9h4v4h-4zm4,4h5v9h-5zm5,9h5v5h-5zm5,5h4v5h-4zm4,5h5v9h-5zm5,9h4v4h-4zm4,4h5v10h-5zm5,10h5v4h-5zm5,4h4v9h-4zm4,9h5v5h-5zm5,5h5v9h-5zm5,9h4v5h-4zm4,5h5v4h-5zm5,9h4v4h-4zm4,4h5v5h-5zm5,9h5v5h-5zm5,5h4v9h-4zm4,9h5v5h-5zm5,5h4v4h-4zm4,9h5v5h-5zm5,5h5v9h-5zm5,9h4v4h-4zm4,4h5v5h-5zm5,5h5v9h-5zm5,9h4v5h-4zm4,5h5v4h-5zm5,4h4v5h-4zm4,5h5v4h-5z"></path>
     <path fill="rgb(11, 152, 206)" d="M231,0h4v9h-4zm4,5h5v9h-5zm5,4h5v9h-5zm5,5h4v13h-4zm4,9h5v9h-5zm5,9h5v9h-5zm5,5h4v9h-4zm4,9h5v9h-5zm5,9h4v9h-4zm4,9h5v5h-5zm5,5h5v9h-5zm5,4h4v9h-4zm4,9h5v10h-5zm5,10h4v4h-4zm4,4h5v9h-5zm5,9h5v5h-5zm5,5h4v9h-4zm4,9h5v9h-5zm5,5h5v9h-5zm5,9h4v9h-4zm4,9h5v5h-5zm5,5h4v9h-4zm4,4h5v9h-5zm5,9h5v9h-5zm5,9h4v5h-4zm4,5h5v5h-5zm5,5h4v9h-4zm4,9h5v4h-5zm5,4h5v10h-5zm5,10h4v4h-4zm4,4h5v9h-5zm5,9h5v5h-5zm5,5h4v9h-4zm4,9h5v5h-5zm5,5h4v9h-4zm4,9h5v4h-5zm5,9h5v4h-5zm5,4h4v5h-4zm4,10h5v4h-5zm5,4h4v5h-4zm4,9h5v5h-5zm5,5h5v5h-5zm5,9h4v5h-4zm4,5h5v4h-5zm5,4h5v5h-5zm5,9h4v5h-4zm4,5h5v5h-5zm5,5h4v4h-4zm4,4h5v5h-5z"></path>
     <path fill="rgb(10, 154, 205)" d="M235,0h5v5h-5zm5,0h5v9h-5zm5,5h4v9h-4zm4,9h5v9h-5zm5,9h5v9h-5zm5,4h4v10h-4zm4,10h5v9h-5zm5,9h4v9h-4zm4,9h5v9h-5zm5,5h5v9h-5zm5,9h4v4h-4zm4,4h5v9h-5zm5,9h4v10h-4zm4,5h5v9h-5zm5,9h5v9h-5zm5,9h4v5h-4zm4,5h5v9h-5zm5,9h5v5h-5zm5,5h4v9h-4zm4,9h5v9h-5zm5,4h4v10h-4zm4,10h5v4h-5zm5,4h5v9h-5zm5,9h4v9h-4zm4,9h5v5h-5zm5,5h4v5h-4zm4,9h5v5h-5zm5,5h5v4h-5zm5,9h4v5h-4zm4,5h5v4h-5zm5,9h5v4h-5zm5,4h4v5h-4zm4,9h5v5h-5zm5,5h4v5h-4zm4,9h5v5h-5zm5,5h5v9h-5zm5,9h4v4h-4zm4,4h5v10h-5zm5,10h4v4h-4zm4,4h5v9h-5zm5,9h5v5h-5zm5,10h4v4h-4zm4,4h5v5h-5zm5,5h5v4h-5zm5,4h4v9h-4zm4,9h5v5h-5zm5,5h4v5h-4zm4,5h5v4h-5z"></path>
     <path fill="rgb(9, 157, 204)" d="M245,0h4v5h-4zm4,5h5v9h-5zm5,9h5v9h-5zm5,4h4v9h-4zm4,9h5v10h-5zm5,10h4v9h-4zm4,9h5v9h-5zm5,4h5v10h-5zm5,10h4v9h-4zm4,4h5v9h-5zm5,9h4v9h-4zm4,9h5v5h-5zm5,5h5v9h-5zm5,9h4v9h-4zm4,9h5v5h-5zm5,5h5v9h-5zm5,9h4v5h-4zm4,5h5v9h-5zm5,9h4v4h-4zm4,4h5v10h-5zm5,10h5v4h-5zm5,9h4v4h-4zm4,4h5v9h-5zm5,9h4v5h-4zm4,5h5v9h-5zm5,9h5v5h-5zm5,5h4v9h-4zm4,9h5v5h-5zm5,5h5v9h-5zm5,9h4v4h-4zm4,4h5v9h-5zm5,9h4v5h-4zm4,5h5v9h-5zm5,9h5v5h-5zm5,9h4v5h-4zm4,5h5v4h-5zm5,9h4v5h-4zm4,5h5v4h-5zm5,9h5v4h-5zm5,4h4v10h-4zm4,10h5v4h-5zm5,4h5v5h-5zm5,5h4v4h-4zm4,9h5v4h-5zm5,4h4v5h-4zm4,5h5v5h-5z"></path>
     <path fill="rgb(8, 159, 203)" d="M249,0h5v5h-5zm5,5h5v9h-5zm5,4h4v9h-4zm4,9h5v9h-5zm5,9h4v10h-4zm4,10h5v9h-5zm5,4h5v9h-5zm5,9h4v10h-4zm4,10h5v4h-5zm5,4h4v9h-4zm4,9h5v9h-5zm5,5h5v9h-5zm5,9h4v9h-4zm4,9h5v9h-5zm5,9h5v5h-5zm5,5h4v9h-4zm4,9h5v5h-5zm5,5h4v9h-4zm4,9h5v4h-5zm5,4h5v10h-5zm5,10h4v9h-4zm4,9h5v4h-5zm5,4h4v9h-4zm4,9h5v5h-5zm5,5h5v9h-5zm5,9h4v5h-4zm4,5h5v9h-5zm5,9h5v5h-5zm5,5h4v9h-4zm4,9h5v4h-5zm5,9h4v4h-4zm4,4h5v5h-5zm5,10h5v4h-5zm5,4h4v9h-4zm4,9h5v5h-5zm5,9h4v5h-4zm4,5h5v5h-5zm5,9h5v5h-5zm5,5h4v4h-4zm4,9h5v5h-5zm5,5h5v4h-5zm5,4h4v5h-4zm4,5h5v9h-5zm5,9h4v4h-4zm4,4h5v5h-5z"></path>
     <path fill="rgb(6, 163, 202)" d="M254,0h5v5h-5zm5,0h4v9h-4zm4,9h5v9h-5zm5,9h4v9h-4zm4,9h5v10h-5zm5,10h5v4h-5zm5,4h4v9h-4zm4,9h5v10h-5zm5,5h4v9h-4zm4,9h5v9h-5zm5,9h5v5h-5zm5,5h4v9h-4zm4,9h5v9h-5zm5,9h5v9h-5zm5,9h4v5h-4zm4,5h5v9h-5zm5,9h4v5h-4zm4,5h5v9h-5zm5,9h5v4h-5zm5,9h4v5h-4zm4,5h5v9h-5zm5,9h4v4h-4zm4,4h5v9h-5zm5,9h5v5h-5zm5,5h4v9h-4zm4,9h5v5h-5zm5,9h5v5h-5zm5,5h4v5h-4zm4,9h5v5h-5zm5,5h4v9h-4zm4,9h5v4h-5zm5,9h5v5h-5zm5,5h4v4h-4zm4,9h5v4h-5zm5,4h4v9h-4zm4,9h5v5h-5zm5,10h5v4h-5zm5,4h4v5h-4zm4,9h5v5h-5zm5,5h5v5h-5zm5,5h4v4h-4zm4,4h5v5h-5zm5,9h4v5h-4zm4,5h5v4h-5z"></path>
     <path fill="rgb(7, 164, 201)" d="M263,0h5v9h-5zm5,9h4v9h-4zm4,9h5v9h-5zm5,9h5v10h-5zm5,5h4v9h-4zm4,9h5v9h-5zm5,9h4v5h-4zm4,5h5v9h-5zm5,9h5v9h-5zm5,9h4v5h-4zm4,9h5v5h-5zm5,5h5v9h-5zm5,9h4v9h-4zm4,9h5v5h-5zm5,5h4v9h-4zm4,9h5v5h-5zm5,5h5v9h-5zm5,9h4v9h-4zm4,9h5v5h-5zm5,5h4v9h-4zm4,9h5v4h-5zm5,9h5v4h-5zm5,4h4v5h-4zm4,10h5v4h-5zm5,4h5v9h-5zm5,9h4v5h-4zm4,5h5v9h-5zm5,9h4v5h-4zm4,9h5v5h-5zm5,5h5v9h-5zm5,9h4v5h-4zm4,9h5v5h-5zm5,5h4v4h-4zm4,9h5v4h-5zm5,4h5v10h-5zm5,10h4v4h-4zm4,9h5v4h-5zm5,4h5v5h-5zm5,5h4v5h-4zm4,5h5v4h-5zm5,9h4v4h-4zm4,4h5v5h-5z"></path>
     <path fill="rgb(11, 166, 197)" d="M268,0h4v9h-4zm4,9h5v9h-5zm5,9h5v9h-5zm5,5h4v9h-4zm4,9h5v9h-5zm5,9h4v9h-4zm4,9h5v5h-5zm5,5h5v9h-5zm5,9h4v9h-4zm4,9h5v9h-5zm5,9h5v5h-5zm5,5h4v9h-4zm4,9h5v9h-5zm5,9h4v5h-4zm4,5h5v9h-5zm5,9h5v5h-5zm5,9h4v5h-4zm4,5h5v9h-5zm5,9h4v5h-4zm4,5h5v9h-5zm5,9h5v9h-5zm5,9h4v4h-4zm4,4h5v10h-5zm5,10h5v4h-5zm5,9h4v4h-4zm4,4h5v5h-5zm5,10h4v4h-4zm4,4h5v9h-5zm5,9h5v5h-5zm5,9h4v5h-4zm4,5h5v9h-5zm5,9h4v5h-4zm4,9h5v5h-5zm5,5h5v4h-5zm5,9h4v5h-4zm4,5h5v9h-5zm5,9h5v4h-5zm5,4h4v5h-4zm4,5h5v5h-5zm5,5h4v9h-4zm4,9h5v4h-5z"></path>
     <path fill="rgb(13, 167, 195)" d="M272,0h5v9h-5zm5,9h5v9h-5zm5,9h4v5h-4zm4,5h5v9h-5zm5,9h4v9h-4zm4,9h5v9h-5zm5,9h5v5h-5zm5,5h4v9h-4zm4,9h5v9h-5zm5,9h5v9h-5zm5,9h4v5h-4zm4,5h5v9h-5zm5,9h4v9h-4zm4,9h5v5h-5zm5,5h5v9h-5zm5,9h4v9h-4zm4,9h5v5h-5zm5,5h4v9h-4zm4,9h5v5h-5zm5,9h5v5h-5zm5,5h4v9h-4zm4,9h5v4h-5zm5,9h5v5h-5zm5,5h4v9h-4zm4,9h5v4h-5zm5,4h4v10h-4zm4,10h5v4h-5zm5,9h5v4h-5zm5,9h4v4h-4zm4,4h5v5h-5zm5,10h4v4h-4zm4,9h5v4h-5zm5,4h5v5h-5zm5,9h4v5h-4zm4,5h5v5h-5zm5,9h5v5h-5zm5,5h4v4h-4zm4,4h5v5h-5zm5,5h4v5h-4zm4,9h5v5h-5z"></path>
     <path fill="rgb(17, 169, 191)" d="M277,0h5v9h-5zm5,9h4v9h-4zm4,9h5v5h-5zm5,5h4v9h-4zm4,9h5v9h-5zm5,9h5v9h-5zm5,9h4v5h-4zm4,10h5v4h-5zm5,4h5v9h-5zm5,9h4v9h-4zm4,9h5v5h-5zm5,10h4v4h-4zm4,4h5v9h-5zm5,9h5v5h-5zm5,10h4v4h-4zm4,4h5v9h-5zm5,9h4v5h-4zm4,9h5v5h-5zm5,5h5v9h-5zm5,9h4v5h-4zm4,9h5v5h-5zm5,5h5v9h-5zm5,9h4v5h-4zm4,9h5v5h-5zm5,5h4v4h-4zm4,9h5v5h-5zm5,9h5v5h-5zm5,5h4v9h-4zm4,9h5v4h-5zm5,9h4v5h-4zm4,5h5v9h-5zm5,9h5v4h-5zm5,9h4v4h-4zm4,4h5v5h-5zm5,10h5v4h-5zm5,4h4v5h-4zm4,5h5v4h-5zm5,4h4v5h-4zm4,10h5v4h-5z"></path>
     <path fill="rgb(21, 171, 188)" d="M282,0h4v9h-4zm4,9h5v9h-5zm5,9h4v5h-4zm4,5h5v9h-5zm5,9h5v9h-5zm5,9h4v9h-4zm4,9h5v10h-5zm5,10h5v4h-5zm5,9h4v4h-4zm4,4h5v9h-5zm5,9h4v10h-4zm4,10h5v4h-5zm5,4h5v9h-5zm5,9h4v10h-4zm4,10h5v4h-5zm5,9h4v4h-4zm4,4h5v9h-5zm5,9h5v5h-5zm5,10h4v4h-4zm4,4h5v9h-5zm5,9h5v5h-5zm5,9h4v5h-4zm4,5h5v9h-5zm5,9h4v5h-4zm4,9h5v5h-5zm5,5h5v9h-5zm5,9h4v5h-4zm4,9h5v5h-5zm5,9h4v5h-4zm4,5h5v5h-5zm5,9h5v5h-5zm5,9h4v5h-4zm4,5h5v4h-5zm5,9h5v5h-5zm5,5h4v4h-4zm4,4h5v5h-5zm5,5h4v4h-4zm4,9h5v5h-5z"></path>
     <path fill="rgb(23, 172, 185)" d="M286,0h5v9h-5zm5,9h4v9h-4zm4,9h5v5h-5zm5,5h5v9h-5zm5,9h4v9h-4zm4,9h5v9h-5zm5,9h5v10h-5zm5,10h4v9h-4zm4,9h5v4h-5zm5,4h4v9h-4zm4,9h5v10h-5zm5,10h5v4h-5zm5,9h4v4h-4zm4,4h5v10h-5zm5,10h4v9h-4zm4,9h5v4h-5zm5,9h5v4h-5zm5,4h4v10h-4zm4,10h5v4h-5zm5,9h5v4h-5zm5,4h4v9h-4zm4,9h5v5h-5zm5,10h4v4h-4zm4,4h5v9h-5zm5,9h5v5h-5zm5,10h4v4h-4zm4,9h5v4h-5zm5,4h4v9h-4zm4,9h5v5h-5zm5,10h5v4h-5zm5,4h4v9h-4zm4,9h5v5h-5zm5,5h5v9h-5zm5,9h4v5h-4zm4,5h5v4h-5zm5,4h4v5h-4zm4,9h5v5h-5z"></path>
     <path fill="rgb(27, 174, 182)" d="M291,0h4v9h-4zm4,9h5v9h-5zm5,9h5v5h-5zm5,9h4v5h-4zm4,10h5v4h-5zm5,4h5v9h-5zm5,9h4v10h-4zm4,10h5v9h-5zm5,9h4v4h-4zm4,9h5v4h-5zm5,4h5v10h-5zm5,10h4v9h-4zm4,9h5v4h-5zm5,9h4v5h-4zm4,5h5v9h-5zm5,9h5v9h-5zm5,9h4v4h-4zm4,9h5v5h-5zm5,5h5v9h-5zm5,9h4v4h-4zm4,9h5v4h-5zm5,4h4v10h-4zm4,10h5v4h-5zm5,9h5v4h-5zm5,9h4v5h-4zm4,5h5v9h-5zm5,9h4v4h-4zm4,9h5v4h-5zm5,9h5v5h-5zm5,5h4v4h-4zm4,9h5v4h-5zm5,4h5v5h-5zm5,9h4v5h-4zm4,5h5v5h-5zm5,5h4v4h-4zm4,9h5v4h-5z"></path>
     <path fill="rgb(30, 175, 179)" d="M295,0h5v9h-5zm5,9h5v9h-5zm5,9h4v9h-4zm4,9h5v10h-5zm5,10h5v4h-5zm5,9h4v4h-4zm4,9h5v5h-5zm5,5h4v9h-4zm4,9h5v9h-5zm5,9h5v4h-5zm5,9h4v5h-4zm4,5h5v9h-5zm5,9h4v9h-4zm4,9h5v5h-5zm5,9h5v5h-5zm5,9h4v5h-4zm4,5h5v9h-5zm5,9h5v5h-5zm5,9h4v5h-4zm4,5h5v9h-5zm5,9h4v4h-4zm4,9h5v5h-5zm5,9h5v5h-5zm5,9h4v5h-4zm4,5h5v5h-5zm5,9h4v5h-4zm4,9h5v5h-5zm5,9h5v5h-5zm5,5h4v5h-4zm4,9h5v5h-5zm5,5h5v4h-5zm5,9h4v4h-4zm4,4h5v5h-5zm5,5h4v5h-4zm4,9h5v5h-5z"></path>
     <path fill="rgb(33, 177, 176)" d="M300,0h5v9h-5zm5,9h4v9h-4zm4,9h5v9h-5zm5,9h5v10h-5zm5,10h4v9h-4zm4,9h5v9h-5zm5,9h4v5h-4zm4,9h5v5h-5zm5,5h5v9h-5zm5,9h4v9h-4zm4,9h5v5h-5zm5,9h4v5h-4zm4,9h5v5h-5zm5,5h5v9h-5zm5,9h4v9h-4zm4,9h5v5h-5zm5,9h5v5h-5zm5,5h4v9h-4zm4,9h5v5h-5zm5,9h4v5h-4zm4,9h5v5h-5zm5,10h5v4h-5zm5,4h4v9h-4zm4,9h5v5h-5zm5,10h4v4h-4zm4,9h5v4h-5zm5,4h5v9h-5zm5,9h4v5h-4zm4,10h5v4h-5zm5,4h5v5h-5zm5,9h4v5h-4zm4,5h5v4h-5zm5,4h4v5h-4zm4,10h5v4h-5z"></path>
     <path fill="rgb(36, 178, 173)" d="M305,0h4v9h-4zm4,14h5v4h-5zm5,9h5v4h-5zm5,9h4v5h-4zm4,5h5v9h-5zm5,9h4v9h-4zm4,9h5v9h-5zm5,9h5v5h-5zm5,9h4v5h-4zm4,9h5v5h-5zm5,5h4v9h-4zm4,9h5v9h-5zm5,9h5v5h-5zm5,10h4v4h-4zm4,9h5v4h-5zm5,4h5v9h-5zm5,9h4v5h-4zm4,10h5v4h-5zm5,9h4v4h-4zm4,4h5v9h-5zm5,9h5v10h-5zm5,10h4v4h-4zm4,9h5v4h-5zm5,9h4v5h-4zm4,5h5v9h-5zm5,9h5v4h-5zm5,9h4v4h-4zm4,9h5v5h-5zm5,5h5v4h-5zm5,9h4v4h-4zm4,4h5v5h-5zm5,5h4v4h-4zm4,9h5v5h-5z"></path>
     <path fill="rgb(40, 180, 170)" d="M309,5h5v9h-5zm5,9h5v9h-5zm5,9h4v9h-4zm4,9h5v5h-5zm5,9h4v5h-4zm4,5h5v9h-5zm5,9h5v9h-5zm5,9h4v9h-4zm4,9h5v9h-5zm5,9h4v5h-4zm4,10h5v4h-5zm5,9h5v4h-5zm5,4h4v10h-4zm4,10h5v9h-5zm5,9h5v4h-5zm5,9h4v4h-4zm4,9h5v5h-5zm5,5h4v9h-4zm4,9h5v4h-5zm5,9h5v4h-5zm5,9h4v5h-4zm4,9h5v5h-5zm5,5h4v9h-4zm4,9h5v5h-5zm5,9h5v5h-5zm5,9h4v5h-4zm4,9h5v5h-5zm5,5h5v5h-5zm5,9h4v5h-4zm4,5h5v4h-5zm5,4h4v5h-4zm4,9h5v5h-5z"></path>
     <path fill="rgb(42, 181, 167)" d="M309,0h5v5h-5zm5,5h5v9h-5zm5,9h4v9h-4zm4,9h5v9h-5zm5,9h4v9h-4zm4,9h5v5h-5zm5,9h5v5h-5zm5,10h4v4h-4zm4,9h5v4h-5zm5,9h4v4h-4zm4,4h5v10h-5zm5,10h5v9h-5zm5,9h4v4h-4zm4,9h5v5h-5zm5,9h5v5h-5zm5,5h4v9h-4zm4,9h5v9h-5zm5,9h4v5h-4zm4,9h5v5h-5zm5,9h5v5h-5zm5,9h4v5h-4zm4,10h5v4h-5zm5,4h4v5h-4zm4,9h5v5h-5zm5,10h5v4h-5zm5,9h4v4h-4zm4,4h5v9h-5zm5,9h5v5h-5zm5,5h4v9h-4zm4,9h5v5h-5zm5,5h4v4h-4zm4,9h5v4h-5z"></path>
     <path fill="rgb(46, 183, 164)" d="M314,0h5v5h-5zm5,9h4v5h-4zm4,9h5v5h-5zm5,5h4v9h-4zm4,9h5v9h-5zm5,9h5v9h-5zm5,9h4v10h-4zm4,10h5v9h-5zm5,9h4v9h-4zm4,9h5v4h-5zm5,9h5v5h-5zm5,9h4v5h-4zm4,9h5v5h-5zm5,5h5v9h-5zm5,9h4v5h-4zm4,9h5v5h-5zm5,9h4v5h-4zm4,10h5v4h-5zm5,9h5v4h-5zm5,9h4v4h-4zm4,4h5v10h-5zm5,10h4v4h-4zm4,9h5v4h-5zm5,9h5v5h-5zm5,9h4v5h-4zm4,5h5v4h-5zm5,9h5v4h-5zm5,4h4v5h-4zm4,10h5v4h-5zm5,4h4v5h-4zm4,9h5v5h-5z"></path>
     <path fill="rgb(54, 184, 160)" d="M319,0h4v9h-4zm4,9h5v9h-5zm5,9h4v5h-4zm4,9h5v5h-5zm5,10h5v4h-5zm5,9h4v4h-4zm4,9h5v5h-5zm5,9h4v5h-4zm4,9h5v5h-5zm5,5h5v9h-5zm5,9h4v9h-4zm4,9h5v9h-5zm5,9h5v5h-5zm5,10h4v4h-4zm4,9h5v4h-5zm5,9h4v4h-4zm4,4h5v10h-5zm5,10h5v9h-5zm5,9h4v9h-4zm4,9h5v4h-5zm5,9h4v5h-4zm4,9h5v5h-5zm5,9h5v5h-5zm5,10h4v4h-4zm4,4h5v5h-5zm5,9h5v5h-5zm5,5h4v4h-4zm4,9h5v5h-5zm5,5h4v4h-4zm4,4h5v9h-5z"></path>
     <path fill="rgb(60, 184, 157)" d="M323,0h5v9h-5zm5,9h4v9h-4zm4,9h5v9h-5zm5,9h5v10h-5zm5,10h4v9h-4zm4,9h5v9h-5zm5,9h4v9h-4zm4,9h5v9h-5zm5,9h5v5h-5zm5,9h4v5h-4zm4,10h5v4h-5zm5,9h5v4h-5zm5,9h4v5h-4zm4,5h5v9h-5zm5,9h4v9h-4zm4,9h5v4h-5zm5,9h5v5h-5zm5,9h4v5h-4zm4,9h5v5h-5zm5,9h4v5h-4zm4,10h5v4h-5zm5,9h5v4h-5zm5,4h4v10h-4zm4,10h5v4h-5zm5,9h5v4h-5zm5,4h4v5h-4zm4,9h5v5h-5zm5,5h4v5h-4zm4,5h5v4h-5z"></path>
     <path fill="rgb(68, 185, 153)" d="M328,5h4v4h-4zm4,9h5v4h-5zm5,9h5v4h-5zm5,9h4v5h-4zm4,9h5v5h-5zm5,9h4v5h-4zm4,10h5v4h-5zm5,9h5v4h-5zm5,9h4v4h-4zm4,4h5v10h-5zm5,10h5v9h-5zm5,9h4v9h-4zm4,9h5v5h-5zm5,9h4v5h-4zm4,9h5v5h-5zm5,9h5v5h-5zm5,10h4v4h-4zm4,9h5v4h-5zm5,9h4v4h-4zm4,9h5v5h-5zm5,5h5v9h-5zm5,9h4v4h-4zm4,9h5v5h-5zm5,9h5v5h-5zm5,5h4v4h-4zm4,9h5v4h-5zm5,4h4v5h-4zm4,5h5v5h-5z"></path>
     <path fill="rgb(74, 186, 150)" d="M328,0h4v5h-4zm4,5h5v9h-5zm5,9h5v9h-5zm5,9h4v9h-4zm4,9h5v9h-5zm5,9h4v9h-4zm4,9h5v10h-5zm5,10h5v9h-5zm5,9h4v9h-4zm4,9h5v4h-5zm5,9h5v5h-5zm5,9h4v5h-4zm4,9h5v5h-5zm5,10h4v4h-4zm4,9h5v4h-5zm5,9h5v4h-5zm5,9h4v5h-4zm4,9h5v5h-5zm5,5h4v9h-4zm4,9h5v9h-5zm5,9h5v5h-5zm5,9h4v5h-4zm4,9h5v5h-5zm5,10h5v4h-5zm5,4h4v5h-4zm4,9h5v5h-5zm5,5h4v4h-4zm4,4h5v5h-5z"></path>
     <path fill="rgb(82, 186, 146)" d="M332,0h5v5h-5zm5,9h5v5h-5zm5,9h4v5h-4zm4,9h5v5h-5zm5,10h4v4h-4zm4,9h5v4h-5zm5,9h5v5h-5zm5,9h4v5h-4zm4,9h5v5h-5zm5,9h5v5h-5zm5,10h4v4h-4zm4,9h5v4h-5zm5,4h4v10h-4zm4,10h5v9h-5zm5,9h5v9h-5zm5,13h4v5h-4zm4,5h5v9h-5zm5,9h4v5h-4zm4,9h5v5h-5zm5,9h5v5h-5zm5,10h4v4h-4zm4,9h5v4h-5zm5,9h5v5h-5zm5,5h4v4h-4zm4,9h5v4h-5zm5,4h4v5h-4zm4,5h5v4h-5z"></path>
     <path fill="rgb(88, 187, 143)" d="M337,0h5v9h-5zm5,9h4v9h-4zm4,9h5v9h-5zm5,9h4v10h-4zm4,10h5v9h-5zm5,9h5v9h-5zm5,9h4v9h-4zm4,9h5v9h-5zm5,9h5v9h-5zm5,9h4v10h-4zm4,10h5v9h-5zm5,9h4v4h-4zm4,9h5v5h-5zm5,9h5v5h-5zm5,9h4v9h-4zm4,9h5v5h-5zm5,10h4v4h-4zm4,9h5v4h-5zm5,9h5v4h-5zm5,9h4v5h-4zm4,9h5v5h-5zm5,5h5v9h-5zm5,9h4v5h-4zm4,9h5v5h-5zm5,5h4v4h-4zm4,4h5v5h-5z"></path>
     <path fill="rgb(96, 188, 139)" d="M342,5h4v4h-4zm4,9h5v4h-5zm5,9h4v4h-4zm4,9h5v5h-5zm5,9h5v5h-5zm5,9h4v5h-4zm4,10h5v4h-5zm5,9h5v4h-5zm5,9h4v4h-4zm4,9h5v5h-5zm5,9h4v5h-4zm4,9h5v5h-5zm5,10h5v4h-5zm5,9h4v4h-4zm4,9h5v4h-5zm5,9h4v5h-4zm4,9h5v5h-5zm5,9h5v5h-5zm5,9h4v5h-4zm4,10h5v4h-5zm5,4h5v5h-5zm5,9h4v5h-4zm4,5h5v9h-5zm5,9h4v5h-4zm4,5h5v4h-5z"></path>
     <path fill="rgb(102, 188, 136)" d="M342,0h4v5h-4zm4,5h5v9h-5zm5,9h4v9h-4zm4,13h5v5h-5zm5,10h5v4h-5zm5,9h4v4h-4zm4,9h5v5h-5zm5,9h5v5h-5zm5,9h4v5h-4zm4,9h5v5h-5zm5,10h4v4h-4zm4,9h5v4h-5zm5,9h5v5h-5zm5,9h4v5h-4zm4,9h5v5h-5zm5,9h4v5h-4zm4,10h5v4h-5zm5,9h5v4h-5zm5,9h4v4h-4zm4,9h5v5h-5zm5,5h5v4h-5zm5,9h4v4h-4zm4,4h5v5h-5zm5,10h4v4h-4zm4,4h5v5h-5z"></path>
     <path fill="rgb(110, 189, 132)" d="M346,0h5v5h-5zm5,9h4v5h-4zm4,9h5v9h-5zm5,9h5v10h-5zm5,10h4v9h-4zm4,9h5v9h-5zm5,9h5v9h-5zm5,9h4v9h-4zm4,9h5v9h-5zm5,9h4v10h-4zm4,10h5v9h-5zm5,13h5v5h-5zm5,10h4v4h-4zm4,9h5v4h-5zm5,9h4v4h-4zm4,9h5v5h-5zm5,9h5v5h-5zm5,9h4v5h-4zm4,5h5v9h-5zm5,9h5v5h-5zm5,9h4v5h-4zm4,5h5v4h-5zm5,9h4v5h-4zm4,5h5v4h-5z"></path>
     <path fill="rgb(116, 189, 129)" d="M351,5h4v4h-4zm4,9h5v4h-5zm5,9h5v4h-5zm5,9h4v5h-4zm4,9h5v5h-5zm5,9h5v5h-5zm5,10h4v4h-4zm4,9h5v4h-5zm5,9h4v4h-4zm4,9h5v5h-5zm5,9h5v9h-5zm5,9h4v10h-4zm4,10h5v9h-5zm5,9h4v9h-4zm4,9h5v9h-5zm5,9h5v9h-5zm5,9h4v9h-4zm4,9h5v5h-5zm5,9h5v5h-5zm5,10h4v4h-4zm4,4h5v5h-5zm5,9h4v5h-4zm4,5h5v5h-5z"></path>
     <path fill="rgb(124, 190, 125)" d="M351,0h4v5h-4zm4,5h5v9h-5zm5,9h5v9h-5zm5,13h4v5h-4zm4,10h5v4h-5zm5,9h5v4h-5zm5,9h4v5h-4zm4,9h5v5h-5zm5,9h4v5h-4zm4,9h5v5h-5zm5,10h5v4h-5zm5,9h4v4h-4zm4,9h5v5h-5zm5,9h4v5h-4zm4,9h5v5h-5zm5,9h5v5h-5zm5,10h4v4h-4zm4,9h5v4h-5zm5,9h5v4h-5zm5,9h4v5h-4zm4,5h5v4h-5zm5,9h4v4h-4zm4,4h5v5h-5z"></path>
     <path fill="rgb(132, 191, 120)" d="M355,0h5v5h-5zm5,9h5v5h-5zm5,9h4v9h-4zm4,9h5v10h-5zm5,10h5v9h-5zm5,9h4v9h-4zm4,9h5v9h-5zm5,9h4v9h-4zm4,14h5v4h-5zm5,9h5v5h-5zm5,9h4v5h-4zm4,9h5v5h-5zm5,10h4v4h-4zm4,9h5v4h-5zm5,9h5v4h-5zm5,9h4v5h-4zm4,9h5v5h-5zm5,9h5v5h-5zm5,9h4v5h-4zm4,5h5v5h-5zm5,9h4v5h-4zm4,5h5v4h-5z"></path>
     <path fill="rgb(137, 191, 118)" d="M360,5h5v4h-5zm5,9h4v4h-4zm4,9h5v4h-5zm5,9h5v5h-5zm5,9h4v5h-4zm4,9h5v5h-5zm5,10h4v4h-4zm4,9h5v9h-5zm5,13h5v5h-5zm5,10h4v4h-4zm4,9h5v4h-5zm5,9h4v5h-4zm4,9h5v5h-5zm5,9h5v5h-5zm5,9h4v5h-4zm4,10h5v4h-5zm5,9h5v4h-5zm5,4h4v9h-4zm4,9h5v5h-5zm5,10h4v4h-4zm4,4h5v5h-5z"></path>
     <path fill="rgb(144, 191, 115)" d="M360,0h5v5h-5zm5,5h4v9h-4zm4,9h5v9h-5zm5,13h5v5h-5zm5,10h4v4h-4zm4,9h5v4h-5zm5,9h4v5h-4zm4,9h5v5h-5zm5,9h5v9h-5zm5,14h4v5h-4zm4,9h5v5h-5zm5,9h4v5h-4zm4,10h5v4h-5zm5,9h5v4h-5zm5,9h4v4h-4zm4,9h5v5h-5zm5,9h5v5h-5zm5,5h4v4h-4zm4,9h5v4h-5zm5,9h4v5h-4zm4,5h5v4h-5z"></path>
     <path fill="rgb(149, 190, 113)" d="M365,0h4v5h-4zm4,9h5v5h-5zm5,9h5v9h-5zm5,9h4v10h-4zm4,10h5v9h-5zm5,13h4v5h-4zm4,10h5v4h-5zm5,9h5v4h-5zm5,9h4v9h-4zm4,9h5v9h-5zm5,9h4v9h-4zm4,14h5v5h-5zm5,9h5v5h-5zm5,9h4v5h-4zm4,9h5v5h-5zm5,10h5v4h-5zm5,4h4v5h-4zm4,9h5v5h-5zm5,9h4v5h-4zm4,5h5v5h-5z"></path>
     <path fill="rgb(156, 190, 111)" d="M369,5h5v4h-5zm5,9h5v4h-5zm5,9h4v4h-4zm4,9h5v5h-5zm5,9h4v9h-4zm4,14h5v5h-5zm5,9h5v5h-5zm5,9h4v5h-4zm4,9h5v5h-5zm5,10h4v4h-4zm4,9h5v9h-5zm5,14h5v4h-5zm5,9h4v4h-4zm4,9h5v4h-5zm5,4h5v10h-5zm5,10h4v4h-4zm4,9h5v4h-5zm5,9h4v4h-4zm4,4h5v5h-5z"></path>
     <path fill="rgb(160, 190, 109)" d="M369,0h5v5h-5zm5,9h5v5h-5zm5,9h4v5h-4zm4,9h5v5h-5zm5,10h4v4h-4zm4,9h5v9h-5zm5,14h5v4h-5zm5,9h4v4h-4zm4,9h5v4h-5zm5,9h4v5h-4zm4,9h5v5h-5zm5,9h5v10h-5zm5,10h4v9h-4zm4,9h5v9h-5zm5,9h5v4h-5zm5,9h4v5h-4zm4,9h5v5h-5zm5,5h4v9h-4zm4,9h5v4h-5z"></path>
     <path fill="rgb(167, 189, 106)" d="M374,0h5v9h-5zm5,9h4v9h-4zm4,14h5v4h-5zm5,9h4v5h-4zm4,9h5v5h-5zm5,9h5v10h-5zm5,14h4v5h-4zm4,9h5v5h-5zm5,9h4v5h-4zm4,10h5v4h-5zm5,9h5v4h-5zm5,9h4v5h-4zm4,9h5v5h-5zm5,9h5v5h-5zm5,9h4v5h-4zm4,10h5v4h-5zm5,4h4v5h-4zm4,9h5v5h-5z"></path>
     <path fill="rgb(172, 189, 104)" d="M379,5h4v4h-4zm4,9h5v9h-5zm5,9h4v9h-4zm4,14h5v4h-5zm5,9h5v4h-5zm5,9h4v9h-4zm4,9h5v9h-5zm5,14h4v4h-4zm4,9h5v5h-5zm5,9h5v5h-5zm5,9h4v5h-4zm4,10h5v4h-5zm5,9h5v4h-5zm5,9h4v4h-4zm4,9h5v5h-5zm5,5h4v4h-4zm4,9h5v4h-5z"></path>
     <path fill="rgb(179, 189, 101)" d="M379,0h4v5h-4zm4,9h5v5h-5zm5,9h4v5h-4zm4,9h5v10h-5zm5,14h5v5h-5zm5,9h4v5h-4zm4,10h5v4h-5zm5,9h4v9h-4zm4,13h5v5h-5zm5,10h5v4h-5zm5,9h4v4h-4zm4,9h5v5h-5zm5,9h5v5h-5zm5,9h4v5h-4zm4,9h5v5h-5zm5,5h4v5h-4zm4,9h5v5h-5z"></path>
     <path fill="rgb(186, 188, 98)" d="M383,5h5v4h-5zm5,9h4v4h-4zm4,9h5v4h-5zm5,14h5v4h-5zm5,9h4v4h-4zm4,9h5v5h-5zm5,9h4v5h-4zm4,9h5v9h-5zm5,14h5v5h-5zm5,9h4v5h-4zm4,9h5v5h-5zm5,10h5v4h-5zm5,9h4v4h-4zm4,9h5v4h-5zm5,4h4v5h-4zm4,10h5v4h-5z"></path>
     <path fill="rgb(190, 188, 97)" d="M383,0h5v5h-5zm5,5h4v9h-4zm4,13h5v5h-5zm5,9h5v10h-5zm5,14h4v5h-4zm4,9h5v5h-5zm5,10h4v4h-4zm4,9h5v4h-5zm5,13h5v5h-5zm5,10h4v4h-4zm4,9h5v4h-5zm5,9h5v5h-5zm5,9h4v5h-4zm4,5h5v9h-5zm5,9h4v4h-4zm4,9h5v5h-5z"></path>
     <path fill="rgb(197, 188, 94)" d="M388,0h4v5h-4zm4,14h5v4h-5zm5,9h5v4h-5zm5,9h4v9h-4zm4,14h5v4h-5zm5,9h4v5h-4zm4,9h5v5h-5zm5,9h5v9h-5zm5,14h4v5h-4zm4,9h5v5h-5zm5,9h5v5h-5zm5,10h4v4h-4zm4,4h5v5h-5zm5,9h4v5h-4zm4,9h5v5h-5z"></path>
     <path fill="rgb(202, 187, 92)" d="M392,5h5v9h-5zm5,13h5v5h-5zm5,9h4v5h-4zm4,10h5v9h-5zm5,13h4v5h-4zm4,10h5v4h-5zm5,9h5v4h-5zm5,9h4v9h-4zm4,14h5v4h-5zm5,9h5v4h-5zm5,4h4v10h-4zm4,10h5v4h-5zm5,9h4v4h-4zm4,9h5v4h-5z"></path>
     <path fill="rgb(209, 187, 89)" d="M392,0h5v5h-5zm5,9h5v9h-5zm5,14h4v4h-4zm4,9h5v5h-5zm5,9h4v9h-4zm4,14h5v5h-5zm5,9h5v5h-5zm5,9h4v5h-4zm4,9h5v10h-5zm5,10h5v9h-5zm5,9h4v4h-4zm4,9h5v5h-5zm5,9h4v5h-4zm4,9h5v5h-5z"></path>
     <path fill="rgb(212, 188, 87)" d="M397,5h5v4h-5zm5,13h4v5h-4zm4,9h5v5h-5zm5,10h4v4h-4zm4,9h5v9h-5zm5,14h5v4h-5zm5,9h4v4h-4zm4,9h5v4h-5zm5,9h5v5h-5zm5,9h4v5h-4zm4,9h5v5h-5zm5,10h4v4h-4zm4,9h5v4h-5z"></path>
     <path fill="rgb(216, 189, 83)" d="M397,0h5v5h-5zm5,9h4v9h-4zm4,14h5v4h-5zm5,9h4v5h-4zm4,9h5v5h-5zm5,14h5v5h-5zm5,9h4v5h-4zm4,9h5v5h-5zm5,9h5v5h-5zm5,10h4v4h-4zm4,9h5v4h-5zm5,9h4v5h-4zm4,9h5v5h-5z"></path>
     <path fill="rgb(219, 190, 81)" d="M402,5h4v4h-4zm4,9h5v9h-5zm5,13h4v5h-4zm4,10h5v4h-5zm5,9h5v9h-5zm5,14h4v4h-4zm4,9h5v4h-5zm5,9h5v4h-5zm5,9h4v5h-4zm4,9h5v5h-5zm5,9h4v5h-4zm4,10h5v4h-5z"></path>
     <path fill="rgb(223, 191, 77)" d="M402,0h4v5h-4zm4,9h5v5h-5zm5,9h4v9h-4zm4,14h5v5h-5zm5,9h5v5h-5zm5,14h4v5h-4zm4,9h5v5h-5zm5,9h5v5h-5zm5,9h4v5h-4zm4,10h5v4h-5zm5,9h4v4h-4zm4,4h5v10h-5z"></path>
     <path fill="rgb(226, 192, 75)" d="M406,5h5v4h-5zm5,9h4v4h-4zm4,13h5v5h-5zm5,10h5v4h-5zm5,9h4v9h-4zm4,14h5v4h-5zm5,9h5v4h-5zm5,9h4v4h-4zm4,9h5v5h-5zm5,9h4v5h-4zm4,5h5v4h-5z"></path>
     <path fill="rgb(230, 193, 71)" d="M406,0h5v5h-5zm5,9h4v5h-4zm4,9h5v9h-5zm5,14h5v5h-5zm5,9h4v5h-4zm4,14h5v5h-5zm5,9h5v5h-5zm5,9h4v5h-4zm4,9h5v5h-5zm5,5h4v9h-4zm4,9h5v5h-5z"></path>
     <path fill="rgb(234, 195, 67)" d="M411,5h4v4h-4zm4,9h5v4h-5zm5,13h5v5h-5zm5,10h4v4h-4zm4,9h5v9h-5zm5,9h5v9h-5zm5,14h4v4h-4zm4,4h5v9h-5zm5,9h4v5h-4zm4,10h5v4h-5z"></path>
     <path fill="rgb(237, 195, 65)" d="M411,0h4v5h-4zm4,9h5v5h-5zm5,14h5v4h-5zm5,9h4v5h-4zm4,9h5v5h-5zm5,9h5v5h-5zm5,10h4v9h-4zm4,9h5v4h-5zm5,9h4v4h-4zm4,9h5v5h-5z"></path>
     <path fill="rgb(241, 197, 61)" d="M415,5h5v4h-5zm5,9h5v9h-5zm5,13h4v5h-4zm4,10h5v4h-5zm5,9h5v4h-5zm5,9h4v5h-4zm4,9h5v5h-5zm5,9h4v5h-4zm4,9h5v5h-5z"></path>
     <path fill="rgb(244, 198, 59)" d="M415,0h5v5h-5zm5,9h5v5h-5zm5,14h4v4h-4zm4,9h5v5h-5zm5,9h5v5h-5zm5,9h4v5h-4zm4,10h5v4h-5zm5,9h4v4h-4zm4,9h5v4h-5z"></path>
     <path fill="rgb(248, 199, 55)" d="M420,5h5v4h-5zm5,9h4v9h-4zm4,13h5v5h-5zm5,10h5v4h-5zm5,9h4v4h-4zm4,9h5v5h-5zm5,9h4v5h-4zm4,9h5v5h-5z"></path>
     <path fill="rgb(251, 200, 53)" d="M420,0h5v5h-5zm5,9h4v5h-4zm4,14h5v4h-5zm5,9h5v5h-5zm5,9h4v5h-4zm4,9h5v5h-5zm5,10h4v4h-4zm4,9h5v4h-5z"></path>
     <path fill="rgb(254, 202, 49)" d="M425,5h4v4h-4zm4,9h5v9h-5zm5,13h5v5h-5zm5,10h4v4h-4zm4,9h5v4h-5zm5,9h4v5h-4zm4,9h5v5h-5z"></path>
     <path fill="rgb(253, 205, 47)" d="M425,0h4v5h-4zm4,9h5v5h-5zm5,9h5v9h-5zm5,14h4v5h-4zm4,9h5v5h-5zm5,9h4v5h-4zm4,10h5v4h-5z"></path>
     <path fill="rgb(253, 210, 43)" d="M429,5h5v4h-5zm5,9h5v4h-5zm5,9h4v9h-4zm4,14h5v4h-5zm5,9h4v4h-4zm4,9h5v5h-5z"></path>
     <path fill="rgb(253, 215, 40)" d="M429,0h5v5h-5zm5,9h5v5h-5zm5,9h4v5h-4zm4,9h5v10h-5zm5,10h4v9h-4zm4,9h5v9h-5z"></path>
     <path fill="rgb(252, 218, 38)" d="M434,5h5v4h-5zm5,9h4v4h-4zm4,9h5v4h-5zm5,9h4v5h-4zm4,9h5v5h-5z"></path>
     <path fill="rgb(252, 222, 34)" d="M434,0h5v5h-5zm5,9h4v5h-4zm4,9h5v5h-5zm5,9h4v5h-4zm4,10h5v4h-5z"></path>
     <path fill="rgb(251, 226, 32)" d="M439,5h4v4h-4zm4,9h5v4h-5zm5,9h4v4h-4zm4,9h5v5h-5z"></path>
     <path fill="rgb(251, 230, 29)" d="M439,0h4v5h-4zm4,9h5v5h-5zm5,9h4v5h-4zm4,9h5v5h-5z"></path>
     <path fill="rgb(251, 233, 26)" d="M443,5h5v4h-5zm5,9h4v4h-4zm4,9h5v4h-5z"></path>
     <path fill="rgb(250, 238, 23)" d="M443,0h5v5h-5zm5,9h4v5h-4zm4,9h5v5h-5z"></path>
     <path fill="rgb(250, 241, 21)" d="M448,5h4v4h-4zm4,9h5v4h-5z"></path>
     <path fill="rgb(249, 246, 17)" d="M448,0h4v5h-4zm4,9h5v5h-5z"></path>
     <path fill="rgb(249, 249, 15)" d="M452,0h5v9h-5z"></path>
    </g>
   </svg>
   <g>
    <g transform="translate(0,458)">
     <path d="M0,0h457M0,-7V0M12,-7V0M23,-13V0M35,-7V0M46,-7V0M58,-7V0M69,-13V0M81,-7V0M92,-7V0M104,-7V0M115,-13V0M127,-7V0M138,-7V0M150,-7V0M161,-13V0M173,-7V0M184,-7V0M196,-7V0M207,-13V0M219,-7V0M230,-7V0M242,-7V0M253,-13V0M265,-7V0M276,-7V0M288,-7V0M299,-13V0M311,-7V0M322,-7V0M334,-7V0M346,-13V0M357,-7V0M369,-7V0M380,-7V0M392,-13V0M403,-7V0M415,-7V0M426,-7V0M438,-13V0M449,-7V0" style="stroke: black; stroke-width: 1;"></path>
     <g font-family="Arial" font-size="20" xml:space="preserve" fill="black" text-anchor="middle"><text dy=".8em" transform="translate(23,4)">116</text><text dy=".8em" transform="translate(69,4)">118</text><text dy=".8em" transform="translate(115,4)">120</text><text dy=".8em" transform="translate(161,4)">122</text><text dy=".8em" transform="translate(207,4)">124</text><text dy=".8em" transform="translate(253,4)">126</text><text dy=".8em" transform="translate(299,4)">128</text><text dy=".8em" transform="translate(346,4)">130</text><text dy=".8em" transform="translate(392,4)">132</text><text dy=".8em" transform="translate(438,4)">134</text></g>
     <g font-family="Arial" font-size="20" xml:space="preserve" transform="translate(457,32)"><text fill="black" text-anchor="end" dominant-baseline="middle">Mass (GeV)</text></g>
    </g>
    <g>
     <path d="M0,0v458M7,449H0M7,440H0M7,431H0M7,421H0M14,412H0M7,403H0M7,394H0M7,385H0M7,376H0M14,366H0M7,357H0M7,348H0M7,339H0M7,330H0M14,321H0M7,311H0M7,302H0M7,293H0M7,284H0M14,275H0M7,266H0M7,256H0M7,247H0M7,238H0M14,229H0M7,220H0M7,211H0M7,202H0M7,192H0M14,183H0M7,174H0M7,165H0M7,156H0M7,147H0M14,137H0M7,128H0M7,119H0M7,110H0M7,101H0M14,92H0M7,82H0M7,73H0M7,64H0M7,55H0M14,46H0M7,37H0M7,27H0M7,18H0M7,9H0" style="stroke: black; stroke-width: 1;"></path>
     <g font-family="Arial" font-size="20" xml:space="preserve" fill="black" text-anchor="end"><text dominant-baseline="middle" transform="translate(-4,412)">0.5</text><text dominant-baseline="middle" transform="translate(-4,366)">1</text><text dominant-baseline="middle" transform="translate(-4,321)">1.5</text><text dominant-baseline="middle" transform="translate(-4,275)">2</text><text dominant-baseline="middle" transform="translate(-4,229)">2.5</text><text dominant-baseline="middle" transform="translate(-4,183)">3</text><text dominant-baseline="middle" transform="translate(-4,137)">3.5</text><text dominant-baseline="middle" transform="translate(-4,92)">4</text><text dominant-baseline="middle" transform="translate(-4,46)">4.5</text></g>
     <g font-family="Arial" font-size="20" xml:space="preserve" transform="translate(-38)"><g transform="rotate(270) translate(-48,6)"><text fill="black" font-size="20">/</text><text fill="black" font-size="12" transform="translate(30,4)">SM</text></g></g>
    </g>
   </g>
  </g>
  <g transform="translate(520,57)">
   <path d="M0,0H27V458H0Z" style="fill: rgb(133, 1, 0); stroke: black; stroke-width: 1;"></path>
   <path d="M0,453H27V458H0Z" style="fill: rgb(47, 50, 149);"></path>
   <path d="M0,449H27V454H0Z" style="fill: rgb(47, 50, 149);"></path>
   <path d="M0,444H27V450H0Z" style="fill: rgb(45, 54, 154);"></path>
   <path d="M0,440H27V445H0Z" style="fill: rgb(41, 58, 163);"></path>
   <path d="M0,435H27V441H0Z" style="fill: rgb(38, 62, 168);"></path>
   <path d="M0,431H27V436H0Z" style="fill: rgb(35, 66, 177);"></path>
   <path d="M0,426H27V432H0Z" style="fill: rgb(32, 69, 182);"></path>
   <path d="M0,421H27V427H0Z" style="fill: rgb(29, 74, 191);"></path>
   <path d="M0,417H27V422H0Z" style="fill: rgb(26, 77, 196);"></path>
   <path d="M0,412H27V418H0Z" style="fill: rgb(22, 82, 205);"></path>
   <path d="M0,408H27V413H0Z" style="fill: rgb(19, 87, 213);"></path>
   <path d="M0,403H27V409H0Z" style="fill: rgb(16, 90, 219);"></path>
   <path d="M0,398H27V404H0Z" style="fill: rgb(15, 94, 221);"></path>
   <path d="M0,394H27V399H0Z" style="fill: rgb(16, 96, 220);"></path>
   <path d="M0,389H27V395H0Z" style="fill: rgb(16, 100, 220);"></path>
   <path d="M0,385H27V390H0Z" style="fill: rgb(16, 102, 219);"></path>
   <path d="M0,380H27V386H0Z" style="fill: rgb(17, 106, 219);"></path>
   <path d="M0,376H27V381H0Z" style="fill: rgb(17, 108, 218);"></path>
   <path d="M0,371H27V377H0Z" style="fill: rgb(18, 111, 217);"></path>
   <path d="M0,366H27V372H0Z" style="fill: rgb(18, 114, 217);"></path>
   <path d="M0,362H27V367H0Z" style="fill: rgb(18, 117, 216);"></path>
   <path d="M0,357H27V363H0Z" style="fill: rgb(19, 121, 215);"></path>
   <path d="M0,353H27V358H0Z" style="fill: rgb(19, 123, 215);"></path>
   <path d="M0,348H27V354H0Z" style="fill: rgb(20, 126, 214);"></path>
   <path d="M0,344H27V349H0Z" style="fill: rgb(20, 129, 214);"></path>
   <path d="M0,339H27V345H0Z" style="fill: rgb(19, 132, 213);"></path>
   <path d="M0,334H27V340H0Z" style="fill: rgb(18, 134, 212);"></path>
   <path d="M0,330H27V335H0Z" style="fill: rgb(16, 137, 211);"></path>
   <path d="M0,325H27V331H0Z" style="fill: rgb(16, 140, 210);"></path>
   <path d="M0,321H27V326H0Z" style="fill: rgb(14, 143, 209);"></path>
   <path d="M0,316H27V322H0Z" style="fill: rgb(13, 146, 208);"></path>
   <path d="M0,311H27V317H0Z" style="fill: rgb(12, 148, 207);"></path>
   <path d="M0,307H27V312H0Z" style="fill: rgb(11, 152, 206);"></path>
   <path d="M0,302H27V308H0Z" style="fill: rgb(10, 154, 205);"></path>
   <path d="M0,298H27V303H0Z" style="fill: rgb(9, 157, 204);"></path>
   <path d="M0,293H27V299H0Z" style="fill: rgb(8, 159, 203);"></path>
   <path d="M0,289H27V294H0Z" style="fill: rgb(6, 163, 202);"></path>
   <path d="M0,284H27V290H0Z" style="fill: rgb(7, 164, 201);"></path>
   <path d="M0,279H27V285H0Z" style="fill: rgb(11, 166, 197);"></path>
   <path d="M0,275H27V280H0Z" style="fill: rgb(13, 167, 195);"></path>
   <path d="M0,270H27V276H0Z" style="fill: rgb(17, 169, 191);"></path>
   <path d="M0,266H27V271H0Z" style="fill: rgb(21, 171, 188);"></path>
   <path d="M0,261H27V267H0Z" style="fill: rgb(23, 172, 185);"></path>
   <path d="M0,256H27V262H0Z" style="fill: rgb(27, 174, 182);"></path>
   <path d="M0,252H27V257H0Z" style="fill: rgb(30, 175, 179);"></path>
   <path d="M0,247H27V253H0Z" style="fill: rgb(33, 177, 176);"></path>
   <path d="M0,243H27V248H0Z" style="fill: rgb(36, 178, 173);"></path>
   <path d="M0,238H27V244H0Z" style="fill: rgb(40, 180, 170);"></path>
   <path d="M0,234H27V239H0Z" style="fill: rgb(42, 181, 167);"></path>
   <path d="M0,229H27V235H0Z" style="fill: rgb(46, 183, 164);"></path>
   <path d="M0,224H27V230H0Z" style="fill: rgb(54, 184, 160);"></path>
   <path d="M0,220H27V225H0Z" style="fill: rgb(60, 184, 157);"></path>
   <path d="M0,215H27V221H0Z" style="fill: rgb(68, 185, 153);"></path>
   <path d="M0,211H27V216H0Z" style="fill: rgb(74, 186, 150);"></path>
   <path d="M0,206H27V212H0Z" style="fill: rgb(82, 186, 146);"></path>
   <path d="M0,202H27V207H0Z" style="fill: rgb(88, 187, 143);"></path>
   <path d="M0,197H27V203H0Z" style="fill: rgb(96, 188, 139);"></path>
   <path d="M0,192H27V198H0Z" style="fill: rgb(102, 188, 136);"></path>
   <path d="M0,188H27V193H0Z" style="fill: rgb(110, 189, 132);"></path>
   <path d="M0,183H27V189H0Z" style="fill: rgb(116, 189, 129);"></path>
   <path d="M0,179H27V184H0Z" style="fill: rgb(124, 190, 125);"></path>
   <path d="M0,174H27V180H0Z" style="fill: rgb(132, 191, 120);"></path>
   <path d="M0,169H27V175H0Z" style="fill: rgb(137, 191, 118);"></path>
   <path d="M0,165H27V170H0Z" style="fill: rgb(144, 191, 115);"></path>
   <path d="M0,160H27V166H0Z" style="fill: rgb(149, 190, 113);"></path>
   <path d="M0,156H27V161H0Z" style="fill: rgb(156, 190, 111);"></path>
   <path d="M0,151H27V157H0Z" style="fill: rgb(160, 190, 109);"></path>
   <path d="M0,147H27V152H0Z" style="fill: rgb(167, 189, 106);"></path>
   <path d="M0,142H27V148H0Z" style="fill: rgb(172, 189, 104);"></path>
   <path d="M0,137H27V143H0Z" style="fill: rgb(179, 189, 101);"></path>
   <path d="M0,133H27V138H0Z" style="fill: rgb(186, 188, 98);"></path>
   <path d="M0,128H27V134H0Z" style="fill: rgb(190, 188, 97);"></path>
   <path d="M0,124H27V129H0Z" style="fill: rgb(197, 188, 94);"></path>
   <path d="M0,119H27V125H0Z" style="fill: rgb(202, 187, 92);"></path>
   <path d="M0,115H27V120H0Z" style="fill: rgb(209, 187, 89);"></path>
   <path d="M0,110H27V116H0Z" style="fill: rgb(212, 188, 87);"></path>
   <path d="M0,105H27V111H0Z" style="fill: rgb(216, 189, 83);"></path>
   <path d="M0,101H27V106H0Z" style="fill: rgb(219, 190, 81);"></path>
   <path d="M0,96H27V102H0Z" style="fill: rgb(223, 191, 77);"></path>
   <path d="M0,92H27V97H0Z" style="fill: rgb(226, 192, 75);"></path>
   <path d="M0,87H27V93H0Z" style="fill: rgb(230, 193, 71);"></path>
   <path d="M0,82H27V88H0Z" style="fill: rgb(234, 195, 67);"></path>
   <path d="M0,78H27V83H0Z" style="fill: rgb(237, 195, 65);"></path>
   <path d="M0,73H27V79H0Z" style="fill: rgb(241, 197, 61);"></path>
   <path d="M0,69H27V74H0Z" style="fill: rgb(244, 198, 59);"></path>
   <path d="M0,64H27V70H0Z" style="fill: rgb(248, 199, 55);"></path>
   <path d="M0,60H27V65H0Z" style="fill: rgb(251, 200, 53);"></path>
   <path d="M0,55H27V61H0Z" style="fill: rgb(254, 202, 49);"></path>
   <path d="M0,50H27V56H0Z" style="fill: rgb(253, 205, 47);"></path>
   <path d="M0,46H27V51H0Z" style="fill: rgb(253, 210, 43);"></path>
   <path d="M0,41H27V47H0Z" style="fill: rgb(253, 215, 40);"></path>
   <path d="M0,37H27V42H0Z" style="fill: rgb(252, 218, 38);"></path>
   <path d="M0,32H27V38H0Z" style="fill: rgb(252, 222, 34);"></path>
   <path d="M0,27H27V33H0Z" style="fill: rgb(251, 226, 32);"></path>
   <path d="M0,23H27V28H0Z" style="fill: rgb(251, 230, 29);"></path>
   <path d="M0,18H27V24H0Z" style="fill: rgb(251, 233, 26);"></path>
   <path d="M0,14H27V19H0Z" style="fill: rgb(250, 238, 23);"></path>
   <path d="M0,9H27V15H0Z" style="fill: rgb(250, 241, 21);"></path>
   <path d="M0,5H27V10H0Z" style="fill: rgb(249, 246, 17);"></path>
   <path d="M0,0H27V6H0Z" style="fill: rgb(249, 249, 15);"></path>
   <g transform="translate(27)">
    <path d="M0,0v458M0,416H-14M0,374H-14M0,332H-14M0,291H-14M0,249H-14M0,207H-14M0,165H-14M0,123H-14M0,81H-14M0,39H-14" style="stroke: black; stroke-width: 1;"></path>
    <g font-family="Arial" font-size="20" xml:space="preserve" fill="black" text-anchor="start"><text dominant-baseline="middle" transform="translate(4,416)">200</text><text dominant-baseline="middle" transform="translate(4,374)">400</text><text dominant-baseline="middle" transform="translate(4,332)">600</text><text dominant-baseline="middle" transform="translate(4,291)">800</text><text dominant-baseline="middle" transform="translate(4,249)">1000</text><text dominant-baseline="middle" transform="translate(4,207)">1200</text><text dominant-baseline="middle" transform="translate(4,165)">1400</text><text dominant-baseline="middle" transform="translate(4,123)">1600</text><text dominant-baseline="middle" transform="translate(4,81)">1800</text><text dominant-baseline="middle" transform="translate(4,39)">2000</text></g>
    <g font-family="Arial" font-size="20" xml:space="preserve" transform="translate(33)"><g transform="rotate(270) translate(-70,7)"><text fill="black" font-size="20">-2 ln L</text></g></g>
   </g>
  </g>
  <g transform="translate(71,66)" font-family="Arial" font-size="13" xml:space="preserve"><path d="M161,4h4v82h-161v-4h157z" style="fill: black; stroke: black; stroke-width: 1px;"></path><path d="M0,0H161V82H0Z" style="fill: rgb(242, 242, 242); stroke: black; stroke-width: 1;"></path><text fill="black" text-anchor="middle" dominant-baseline="middle" transform="translate(81,10)">CMS Preliminary</text><g transform="translate(56,36) scale(0.807)"><text fill="black" font-size="17">H  ZZ</text></g><g transform="translate(13,57) scale(0.807)"><g><path d="M0,-6h2l2,7l2,-17h12v2" style="stroke: black; stroke-width: 1; fill: none;"></path><text fill="black" font-size="17" transform="translate(8)">s</text></g><text fill="black" font-size="17" x="27">= 7 Tev, L = 5.1 fb</text><text fill="black" font-size="10" transform="translate(159,-9)">-1</text></g><g transform="translate(13,78) scale(0.807)"><g><path d="M0,-6h2l2,7l2,-17h12v2" style="stroke: black; stroke-width: 1; fill: none;"></path><text fill="black" font-size="17" transform="translate(8)">s</text></g><text fill="black" font-size="17" x="27">= 8 Tev, L = 5.3 fb</text><text fill="black" font-size="10" transform="translate(159,-9)">-1</text></g></g>
 </g>
</svg>