<svg viewBox="0 0 1200 800" preserveAspectRatio="none" xmlns="http://www.w3.org/2000/svg" width="1200" height="800"><title>ROOT canvas</title><rect x="0" y="0" width="1200" height="800" style="fill: white;"></rect><g><g transform="translate(120,80)"><title></title><rect x="0" y="0" width="960" height="640" style="fill: white; stroke: black; stroke-width: 1;"></rect><g><path d="M0,0v640M120,0v640M240,0v640M360,0v640M480,0v640M600,0v640M720,0v640M840,0v640M960,0v640" style="stroke: black; stroke-width: 1; stroke-dasharray: 1,2;"></path><path d="M0,640h960M0,566h960M0,492h960M0,418h960M0,343h960M0,269h960M0,195h960M0,121h960M0,47h960" style="stroke: black; stroke-width: 1; stroke-dasharray: 1,2;"></path></g><svg x="0" y="0" overflow="hidden" width="960" height="640" viewBox="0 0 960 640"><g objname="total" objtype="TH1F"><path d="M0,597m0,3v-6m0,3h10m0,3v-6m0,3M5,589m3,0h-6m3,0v16m3,0h-6m3,0M11,582m0,3v-6m0,3h9m0,3v-6m0,3M15,573m3,0h-6m3,0v18m3,0h-6m3,0M19,593m0,3v-6m0,3h10m0,3v-6m0,3M24,584m3,0h-6m3,0v17m3,0h-6m3,0M30,582m0,3v-6m0,3h9m0,3v-6m0,3M34,573m3,0h-6m3,0v18m3,0h-6m3,0M38,581m0,3v-6m0,3h10m0,3v-6m0,3M43,571m3,0h-6m3,0v19m3,0h-6m3,0M48,545m0,3v-6m0,3h10m0,3v-6m0,3M53,533m3,0h-6m3,0v24m3,0h-6m3,0M59,558m0,3v-6m0,3h9m0,3v-6m0,3M63,547m3,0h-6m3,0v22m3,0h-6m3,0M67,558m0,3v-6m0,3h10m0,3v-6m0,3M72,547m3,0h-6m3,0v22m3,0h-6m3,0M78,538m0,3v-6m0,3h9m0,3v-6m0,3M82,525m3,0h-6m3,0v25m3,0h-6m3,0M86,544m0,3v-6m0,3h10m0,3v-6m0,3M91,532m3,0h-6m3,0v24m3,0h-6m3,0M96,515m0,3v-6m0,3h10m0,3v-6m0,3M101,502m3,0h-6m3,0v27m3,0h-6m3,0M107,524m0,3v-6m0,3h9m0,3v-6m0,3M111,511m3,0h-6m3,0v26m3,0h-6m3,0M115,507m0,3v-6m0,3h10m0,3v-6m0,3M120,492m3,0h-6m3,0v29m3,0h-6m3,0M126,502m0,3v-6m0,3h9m0,3v-6m0,3M130,488m3,0h-6m3,0v28m3,0h-6m3,0M134,498m0,3v-6m0,3h10m0,3v-6m0,3M139,483m3,0h-6m3,0v29m3,0h-6m3,0M144,501m0,3v-6m0,3h10m0,3v-6m0,3M149,486m3,0h-6m3,0v29m3,0h-6m3,0M155,481m0,3v-6m0,3h9m0,3v-6m0,3M159,466m3,0h-6m3,0v31m3,0h-6m3,0M163,474m0,3v-6m0,3h10m0,3v-6m0,3M168,458m3,0h-6m3,0v32m3,0h-6m3,0M174,435m0,3v-6m0,3h9m0,3v-6m0,3M178,418m3,0h-6m3,0v35m3,0h-6m3,0M182,414m0,3v-6m0,3h10m0,3v-6m0,3M187,396m3,0h-6m3,0v36m3,0h-6m3,0M192,453m0,3v-6m0,3h10m0,3v-6m0,3M197,437m3,0h-6m3,0v33m3,0h-6m3,0M203,447m0,3v-6m0,3h9m0,3v-6m0,3M207,430m3,0h-6m3,0v34m3,0h-6m3,0M211,412m0,3v-6m0,3h10m0,3v-6m0,3M216,394m3,0h-6m3,0v37m3,0h-6m3,0M222,375m0,3v-6m0,3h9m0,3v-6m0,3M226,356m3,0h-6m3,0v39m3,0h-6m3,0M230,417m0,3v-6m0,3h10m0,3v-6m0,3M235,399m3,0h-6m3,0v36m3,0h-6m3,0M240,338m0,3v-6m0,3h10m0,3v-6m0,3M245,317m3,0h-6m3,0v42m3,0h-6m3,0M251,351m0,3v-6m0,3h9m0,3v-6m0,3M255,330m3,0h-6m3,0v41m3,0h-6m3,0M259,337m0,3v-6m0,3h10m0,3v-6m0,3M264,316m3,0h-6m3,0v42m3,0h-6m3,0M270,346m0,3v-6m0,3h9m0,3v-6m0,3M274,325m3,0h-6m3,0v41m3,0h-6m3,0M278,297m0,3v-6m0,3h10m0,3v-6m0,3M283,275m3,0h-6m3,0v44m3,0h-6m3,0M288,301m0,3v-6m0,3h10m0,3v-6m0,3M293,279m3,0h-6m3,0v44m3,0h-6m3,0M299,315m0,3v-6m0,3h9m0,3v-6m0,3M303,295m3,0h-6m3,0v41m3,0h-6m3,0M307,262m0,3v-6m0,3h10m0,3v-6m0,3M312,240m3,0h-6m3,0v45m3,0h-6m3,0M318,255m0,3v-6m0,3h9m0,3v-6m0,3M322,233m3,0h-6m3,0v44m3,0h-6m3,0M326,245m0,3v-6m0,3h10m0,3v-6m0,3M331,222m3,0h-6m3,0v45m3,0h-6m3,0M336,177m0,3v-6m0,3h10m0,3v-6m0,3M341,153m3,0h-6m3,0v47m3,0h-6m3,0M347,170m0,3v-6m0,3h9m0,3v-6m0,3M351,146m3,0h-6m3,0v47m3,0h-6m3,0M355,157m0,3v-6m0,3h10m0,3v-6m0,3M360,134m3,0h-6m3,0v46m3,0h-6m3,0M366,104m0,3v-6m0,3h9m0,3v-6m0,3M370,80m3,0h-6m3,0v48m3,0h-6m3,0M374,115m0,3v-6m0,3h10m0,3v-6m0,3M379,92m3,0h-6m3,0v47m3,0h-6m3,0M384,126m0,3v-6m0,3h10m0,3v-6m0,3M389,104m3,0h-6m3,0v45m3,0h-6m3,0M395,69m0,3v-6m0,3h9m0,3v-6m0,3M399,45m3,0h-6m3,0v48m3,0h-6m3,0M403,64m0,3v-6m0,3h10m0,3v-6m0,3M408,40m3,0h-6m3,0v48m3,0h-6m3,0M414,72m0,3v-6m0,3h9m0,3v-6m0,3M418,48m3,0h-6m3,0v47m3,0h-6m3,0M422,82m0,3v-6m0,3h10m0,3v-6m0,3M427,59m3,0h-6m3,0v46m3,0h-6m3,0M432,54m0,3v-6m0,3h10m0,3v-6m0,3M437,30m3,0h-6m3,0v49m3,0h-6m3,0M443,92m0,3v-6m0,3h9m0,3v-6m0,3M447,69m3,0h-6m3,0v46m3,0h-6m3,0M451,102m0,3v-6m0,3h10m0,3v-6m0,3M456,79m3,0h-6m3,0v46m3,0h-6m3,0M462,166m0,3v-6m0,3h9m0,3v-6m0,3M466,144m3,0h-6m3,0v44m3,0h-6m3,0M470,216m0,3v-6m0,3h10m0,3v-6m0,3M475,195m3,0h-6m3,0v43m3,0h-6m3,0M480,268m0,3v-6m0,3h10m0,3v-6m0,3M485,248m3,0h-6m3,0v40m3,0h-6m3,0M491,267m0,3v-6m0,3h9m0,3v-6m0,3M495,246m3,0h-6m3,0v41m3,0h-6m3,0M499,330m0,3v-6m0,3h10m0,3v-6m0,3M504,311m3,0h-6m3,0v37m3,0h-6m3,0M510,365m0,3v-6m0,3h9m0,3v-6m0,3M514,347m3,0h-6m3,0v36m3,0h-6m3,0M518,392m0,3v-6m0,3h10m0,3v-6m0,3M523,375m3,0h-6m3,0v35m3,0h-6m3,0M528,373m0,3v-6m0,3h10m0,3v-6m0,3M533,355m3,0h-6m3,0v37m3,0h-6m3,0M539,431m0,3v-6m0,3h9m0,3v-6m0,3M543,414m3,0h-6m3,0v34m3,0h-6m3,0M547,451m0,3v-6m0,3h10m0,3v-6m0,3M552,435m3,0h-6m3,0v32m3,0h-6m3,0M558,403m0,3v-6m0,3h9m0,3v-6m0,3M562,387m3,0h-6m3,0v32m3,0h-6m3,0M566,325m0,3v-6m0,3h10m0,3v-6m0,3M571,309m3,0h-6m3,0v33m3,0h-6m3,0M576,253m0,3v-6m0,3h10m0,3v-6m0,3M581,236m3,0h-6m3,0v34m3,0h-6m3,0M587,249m0,3v-6m0,3h9m0,3v-6m0,3M591,233m3,0h-6m3,0v32m3,0h-6m3,0M595,241m0,3v-6m0,3h10m0,3v-6m0,3M600,225m3,0h-6m3,0v33m3,0h-6m3,0M606,245m0,3v-6m0,3h9m0,3v-6m0,3M610,229m3,0h-6m3,0v33m3,0h-6m3,0M614,315m0,3v-6m0,3h10m0,3v-6m0,3M619,301m3,0h-6m3,0v29m3,0h-6m3,0M624,337m0,3v-6m0,3h10m0,3v-6m0,3M629,323m3,0h-6m3,0v29m3,0h-6m3,0M635,366m0,3v-6m0,3h9m0,3v-6m0,3M639,351m3,0h-6m3,0v29m3,0h-6m3,0M643,408m0,3v-6m0,3h10m0,3v-6m0,3M648,394m3,0h-6m3,0v28m3,0h-6m3,0M654,445m0,3v-6m0,3h9m0,3v-6m0,3M658,433m3,0h-6m3,0v25m3,0h-6m3,0M662,475m0,3v-6m0,3h10m0,3v-6m0,3M667,463m3,0h-6m3,0v24m3,0h-6m3,0M672,496m0,3v-6m0,3h10m0,3v-6m0,3M677,486m3,0h-6m3,0v21m3,0h-6m3,0M683,510m0,3v-6m0,3h9m0,3v-6m0,3M687,500m3,0h-6m3,0v21m3,0h-6m3,0M691,534m0,3v-6m0,3h10m0,3v-6m0,3M696,525m3,0h-6m3,0v18m3,0h-6m3,0M702,556m0,3v-6m0,3h9m0,3v-6m0,3M706,548m3,0h-6m3,0v16m3,0h-6m3,0M710,553m0,3v-6m0,3h10m0,3v-6m0,3M715,544m3,0h-6m3,0v18m3,0h-6m3,0M720,573m0,3v-6m0,3h10m0,3v-6m0,3M725,566m3,0h-6m3,0v15m3,0h-6m3,0M731,557m0,3v-6m0,3h9m0,3v-6m0,3M735,548m3,0h-6m3,0v18m3,0h-6m3,0M739,569m0,3v-6m0,3h10m0,3v-6m0,3M744,561m3,0h-6m3,0v17m3,0h-6m3,0M750,580m0,3v-6m0,3h9m0,3v-6m0,3M754,572m3,0h-6m3,0v15m3,0h-6m3,0M758,596m0,3v-6m0,3h10m0,3v-6m0,3M763,590m3,0h-6m3,0v12m3,0h-6m3,0M768,589m0,3v-6m0,3h10m0,3v-6m0,3M773,582m3,0h-6m3,0v14m3,0h-6m3,0M779,597m0,3v-6m0,3h9m0,3v-6m0,3M783,590m3,0h-6m3,0v14m3,0h-6m3,0M787,606m0,3v-6m0,3h10m0,3v-6m0,3M792,600m3,0h-6m3,0v11m3,0h-6m3,0M798,608m0,3v-6m0,3h9m0,3v-6m0,3M802,603m3,0h-6m3,0v11m3,0h-6m3,0M806,614m0,3v-6m0,3h10m0,3v-6m0,3M811,609m3,0h-6m3,0v10m3,0h-6m3,0M816,615m0,3v-6m0,3h10m0,3v-6m0,3M821,610m3,0h-6m3,0v9m3,0h-6m3,0M827,613m0,3v-6m0,3h9m0,3v-6m0,3M831,608m3,0h-6m3,0v10m3,0h-6m3,0M835,620m0,3v-6m0,3h10m0,3v-6m0,3M840,617m3,0h-6m3,0v7m3,0h-6m3,0M846,627m0,3v-6m0,3h9m0,3v-6m0,3M850,624m3,0h-6m3,0v6m3,0h-6m3,0M854,623m0,3v-6m0,3h10m0,3v-6m0,3M859,619m3,0h-6m3,0v8m3,0h-6m3,0M864,621m0,3v-6m0,3h10m0,3v-6m0,3M869,617m3,0h-6m3,0v9m3,0h-6m3,0M875,620m0,3v-6m0,3h9m0,3v-6m0,3M879,616m3,0h-6m3,0v8m3,0h-6m3,0M883,623m0,3v-6m0,3h10m0,3v-6m0,3M888,619m3,0h-6m3,0v8m3,0h-6m3,0M894,628m0,3v-6m0,3h9m0,3v-6m0,3M898,624m3,0h-6m3,0v7m3,0h-6m3,0M902,629m0,3v-6m0,3h10m0,3v-6m0,3M907,626m3,0h-6m3,0v5m3,0h-6m3,0M912,631m0,3v-6m0,3h10m0,3v-6m0,3M917,628m3,0h-6m3,0v6m3,0h-6m3,0M923,630m0,3v-6m0,3h9m0,3v-6m0,3M927,627m3,0h-6m3,0v6m3,0h-6m3,0M931,630m0,3v-6m0,3h10m0,3v-6m0,3M936,627m3,0h-6m3,0v6m3,0h-6m3,0M942,632m0,3v-6m0,3h9m0,3v-6m0,3M946,630m3,0h-6m3,0v4m3,0h-6m3,0M950,635m0,3v-6m0,3h10m0,3v-6m0,3M955,633m3,0h-6m3,0v3m3,0h-6m3,0" style="stroke: rgb(0,0,153); stroke-width: 1;"></path><path d="M2.2,594.2v5.6h5.6v-5.6zM12.2,579.2v5.6h5.6v-5.6zM21.2,590.2v5.6h5.6v-5.6zM31.2,579.2v5.6h5.6v-5.6zM40.2,578.2v5.6h5.6v-5.6zM50.2,542.2v5.6h5.6v-5.6zM60.2,555.2v5.6h5.6v-5.6zM69.2,555.2v5.6h5.6v-5.6zM79.2,535.2v5.6h5.6v-5.6zM88.2,541.2v5.6h5.6v-5.6zM98.2,512.2v5.6h5.6v-5.6zM108.2,521.2v5.6h5.6v-5.6zM117.2,504.2v5.6h5.6v-5.6zM127.2,499.2v5.6h5.6v-5.6zM136.2,495.2v5.6h5.6v-5.6zM146.2,498.2v5.6h5.6v-5.6zM156.2,478.2v5.6h5.6v-5.6zM165.2,471.2v5.6h5.6v-5.6zM175.2,432.2v5.6h5.6v-5.6zM184.2,411.2v5.6h5.6v-5.6zM194.2,450.2v5.6h5.6v-5.6zM204.2,444.2v5.6h5.6v-5.6zM213.2,409.2v5.6h5.6v-5.6zM223.2,372.2v5.6h5.6v-5.6zM232.2,414.2v5.6h5.6v-5.6zM242.2,335.2v5.6h5.6v-5.6zM252.2,348.2v5.6h5.6v-5.6zM261.2,334.2v5.6h5.6v-5.6zM271.2,343.2v5.6h5.6v-5.6zM280.2,294.2v5.6h5.6v-5.6zM290.2,298.2v5.6h5.6v-5.6zM300.2,312.2v5.6h5.6v-5.6zM309.2,259.2v5.6h5.6v-5.6zM319.2,252.2v5.6h5.6v-5.6zM328.2,242.2v5.6h5.6v-5.6zM338.2,174.2v5.6h5.6v-5.6zM348.2,167.2v5.6h5.6v-5.6zM357.2,154.2v5.6h5.6v-5.6zM367.2,101.2v5.6h5.6v-5.6zM376.2,112.2v5.6h5.6v-5.6zM386.2,123.2v5.6h5.6v-5.6zM396.2,66.2v5.6h5.6v-5.6zM405.2,61.2v5.6h5.6v-5.6zM415.2,69.2v5.6h5.6v-5.6zM424.2,79.2v5.6h5.6v-5.6zM434.2,51.2v5.6h5.6v-5.6zM444.2,89.2v5.6h5.6v-5.6zM453.2,99.2v5.6h5.6v-5.6zM463.2,163.2v5.6h5.6v-5.6zM472.2,213.2v5.6h5.6v-5.6zM482.2,265.2v5.6h5.6v-5.6zM492.2,264.2v5.6h5.6v-5.6zM501.2,327.2v5.6h5.6v-5.6zM511.2,362.2v5.6h5.6v-5.6zM520.2,389.2v5.6h5.6v-5.6zM530.2,370.2v5.6h5.6v-5.6zM540.2,428.2v5.6h5.6v-5.6zM549.2,448.2v5.6h5.6v-5.6zM559.2,400.2v5.6h5.6v-5.6zM568.2,322.2v5.6h5.6v-5.6zM578.2,250.2v5.6h5.6v-5.6zM588.2,246.2v5.6h5.6v-5.6zM597.2,238.2v5.6h5.6v-5.6zM607.2,242.2v5.6h5.6v-5.6zM616.2,312.2v5.6h5.6v-5.6zM626.2,334.2v5.6h5.6v-5.6zM636.2,363.2v5.6h5.6v-5.6zM645.2,405.2v5.6h5.6v-5.6zM655.2,442.2v5.6h5.6v-5.6zM664.2,472.2v5.6h5.6v-5.6zM674.2,493.2v5.6h5.6v-5.6zM684.2,507.2v5.6h5.6v-5.6zM693.2,531.2v5.6h5.6v-5.6zM703.2,553.2v5.6h5.6v-5.6zM712.2,550.2v5.6h5.6v-5.6zM722.2,570.2v5.6h5.6v-5.6zM732.2,554.2v5.6h5.6v-5.6zM741.2,566.2v5.6h5.6v-5.6zM751.2,577.2v5.6h5.6v-5.6zM760.2,593.2v5.6h5.6v-5.6zM770.2,586.2v5.6h5.6v-5.6zM780.2,594.2v5.6h5.6v-5.6zM789.2,603.2v5.6h5.6v-5.6zM799.2,605.2v5.6h5.6v-5.6zM808.2,611.2v5.6h5.6v-5.6zM818.2,612.2v5.6h5.6v-5.6zM828.2,610.2v5.6h5.6v-5.6zM837.2,617.2v5.6h5.6v-5.6zM847.2,624.2v5.6h5.6v-5.6zM856.2,620.2v5.6h5.6v-5.6zM866.2,618.2v5.6h5.6v-5.6zM876.2,617.2v5.6h5.6v-5.6zM885.2,620.2v5.6h5.6v-5.6zM895.2,625.2v5.6h5.6v-5.6zM904.2,626.2v5.6h5.6v-5.6zM914.2,628.2v5.6h5.6v-5.6zM924.2,627.2v5.6h5.6v-5.6zM933.2,627.2v5.6h5.6v-5.6zM943.2,629.2v5.6h5.6v-5.6zM952.2,632.2v5.6h5.6v-5.6z" style="stroke: black; fill: black;"></path></g><g objname="main" objtype="TH1F"><path d="M182,415h10v38h10v-6h9v-34h10v-35h9v41h10v-76h10v17h9v-15h10v12h9v-36h10v12h10v24h9v-43h10v21h9v-2h10v-31h10v9h9v22h10v-24h9v29h10v38h10v-49h9v-4h10v41h9v5h10v-42h10v33h9v-3h10v22h9v10h10v33h10v-19h9v29h10v20h9v6h10v-34h10v38h9v13h19v6h10L576,643L182,643Z" style="stroke-linejoin: miter; stroke: rgb(0,0,153); stroke-width: 1; fill: rgb(178,178,178);"></path></g><g objname="s1" objtype="TH1F"><path d="M278,616h10v-8h10v-9h9v-11h10v-27h9v-10h10v-36h10v-16h9v-35h10v-29h9v-17h10v-28h10v-8h9v-1h10v-34h9v6h10L432,643L278,643Z" style="stroke-linejoin: miter; stroke: rgb(0,0,153); stroke-width: 1; fill: rgb(222,186,135);"></path></g><g objname="s2" objtype="TH1F"><path d="M566,495h10v-94h10v-38h9v10h10v13h9v24h10v32h10v41h9v28h10v16h9v24h10v8h10v12h9v9h10v13h9v10h10v4h10v3h9v2h19v4h10L768,643L566,643Z" style="stroke-linejoin: miter; stroke: rgb(0,0,153); stroke-width: 1; fill: rgb(207,94,97);"></path></g></svg><g><g transform="translate(0,640)"><path d="M0,-24v24m24,-12v12m24,-12v12m24,-12v12m24,-12v12m24,-24v24m24,-12v12m24,-12v12m24,-12v12m24,-12v12m24,-24v24m24,-12v12m24,-12v12m24,-12v12m24,-12v12m24,-24v24m24,-12v12m24,-12v12m24,-12v12m24,-12v12m24,-24v24m24,-12v12m24,-12v12m24,-12v12m24,-12v12m24,-24v24m24,-12v12m24,-12v12m24,-12v12m24,-12v12m24,-24v24m24,-12v12m24,-12v12m24,-12v12m24,-12v12m24,-24v24m24,-12v12m24,-12v12m24,-12v12m24,-12v12m24,-24v24" style="stroke: black; stroke-width: 1;"></path><g font-family="Arial" font-size="28" space="preserve"><text text-anchor="middle" x="0" y="0" fill="black" transform="translate(0,6)" dy=".8em">-4</text><text text-anchor="middle" x="0" y="0" fill="black" transform="translate(120,6)" dy=".8em">-3</text><text text-anchor="middle" x="0" y="0" fill="black" transform="translate(240,6)" dy=".8em">-2</text><text text-anchor="middle" x="0" y="0" fill="black" transform="translate(360,6)" dy=".8em">-1</text><text text-anchor="middle" x="0" y="0" fill="black" transform="translate(480,6)" dy=".8em">0</text><text text-anchor="middle" x="0" y="0" fill="black" transform="translate(600,6)" dy=".8em">1</text><text text-anchor="middle" x="0" y="0" fill="black" transform="translate(720,6)" dy=".8em">2</text><text text-anchor="middle" x="0" y="0" fill="black" transform="translate(840,6)" dy=".8em">3</text><text text-anchor="middle" x="0" y="0" fill="black" transform="translate(960,6)" dy=".8em">4</text></g></g><g><path d="M36,640h-36m18,-15h-18m18,-15h-18m18,-14h-18m18,-15h-18m36,-15h-36m18,-15h-18m18,-15h-18m18,-15h-18m18,-14h-18m36,-15h-36m18,-15h-18m18,-15h-18m18,-15h-18m18,-15h-18m36,-14h-36m18,-15h-18m18,-15h-18m18,-15h-18m18,-15h-18m36,-15h-36m18,-14h-18m18,-15h-18m18,-15h-18m18,-15h-18m36,-15h-36m18,-14h-18m18,-15h-18m18,-15h-18m18,-15h-18m36,-15h-36m18,-15h-18m18,-14h-18m18,-15h-18m18,-15h-18m36,-15h-36m18,-15h-18m18,-15h-18m18,-14h-18m18,-15h-18m36,-15h-36m18,-15h-18m18,-15h-18m18,-15h-18" style="stroke: black; stroke-width: 1;"></path><g font-family="Arial" font-size="28" space="preserve"><text text-anchor="end" x="0" y="0" fill="black" transform="translate(-4,640)" dominant-baseline="middle">0</text><text text-anchor="end" x="0" y="0" fill="black" transform="translate(-4,566)" dominant-baseline="middle">50</text><text text-anchor="end" x="0" y="0" fill="black" transform="translate(-4,492)" dominant-baseline="middle">100</text><text text-anchor="end" x="0" y="0" fill="black" transform="translate(-4,418)" dominant-baseline="middle">150</text><text text-anchor="end" x="0" y="0" fill="black" transform="translate(-4,343)" dominant-baseline="middle">200</text><text text-anchor="end" x="0" y="0" fill="black" transform="translate(-4,269)" dominant-baseline="middle">250</text><text text-anchor="end" x="0" y="0" fill="black" transform="translate(-4,195)" dominant-baseline="middle">300</text><text text-anchor="end" x="0" y="0" fill="black" transform="translate(-4,121)" dominant-baseline="middle">350</text><text text-anchor="end" x="0" y="0" fill="black" transform="translate(-4,47)" dominant-baseline="middle">400</text></g></g></g></g><g objname="title" objtype="TPaveText" transform="translate(339,4)" font-family="Arial" font-size="30" space="preserve"><path d="M0,0h522v44h-522z" style="fill: none;"></path><text text-anchor="middle" x="0" y="0" fill="black" transform="translate(261,23)" dominant-baseline="middle" opacity="1">This is the total distribution</text></g><g objname="stats" objtype="TPaveStats" transform="translate(936,52)" font-family="Arial" font-size="27" space="preserve"><path d="M0,0h240v128h-240z" style="fill: white; stroke: black; stroke-width: 1;"></path><text text-anchor="middle" x="0" y="0" fill="black" transform="translate(120,17)" dominant-baseline="middle" opacity="1">total</text><text text-anchor="start" x="0" y="0" fill="black" transform="translate(12,49)" dominant-baseline="middle" opacity="1">Entries </text><text text-anchor="end" x="0" y="0" fill="black" transform="translate(228,49)" dominant-baseline="middle" opacity="1"> 30000</text><text text-anchor="start" x="0" y="0" fill="black" transform="translate(12,81)" dominant-baseline="middle" opacity="1">Mean </text><text text-anchor="end" x="0" y="0" fill="black" transform="translate(228,81)" dominant-baseline="middle" opacity="1"> -0.5421</text><text text-anchor="start" x="0" y="0" fill="black" transform="translate(12,113)" dominant-baseline="middle" opacity="1">Std Dev </text><text text-anchor="end" x="0" y="0" fill="black" transform="translate(228,113)" dominant-baseline="middle" opacity="1"> 1.417</text><path d="M0,32h240" style="stroke: black; stroke-width: 1;"></path></g><g pad="slider" transform="translate(1104,206)"><rect x="0" y="0" width="48" height="514" style="fill: rgb(207,94,97); stroke: black; stroke-width: 1;"></rect><g><g objname="name" objtype="TSliderBox"><rect x="4" y="0" width="40" height="514" style="fill: rgb(125,153,209);"></rect></g></g></g></g></svg>