<svg xmlns="http://www.w3.org/2000/svg" viewBox="0 0 1200 800" preserveAspectRatio="none" width="1200" height="800">
 <title>
  ROOT canvas
 </title>
 <path d="M0,0H1200V800H0Z" style="fill: white;"></path>
 <g>
  <svg viewBox="0 0 576 384" preserveAspectRatio="none" x="12" y="8" width="576" height="384">
   <path d="M0,0H576V384H0Z" style="fill: white;"></path>
   <g>
    <g transform="translate(86,38)">
     <title></title>
     <path d="M0,0H432V307H0Z" style="fill: white; stroke: black; stroke-width: 1;"></path>
     <svg x="0" y="0" overflow="hidden" width="432" height="307" viewBox="0 0 432 307">
      <g>
       <g transform="translate(11,285)">
        <path style="stroke: black; stroke-width: 1; fill: none;" d="M0,0L-11,0m0,3v-6M0,0L11,0m0,3v-6M0,0L0,15m3,0h-6M0,0L0,-15m3,0h-6"></path>
       </g>
       <g transform="translate(32,307)">
        <path style="stroke: black; stroke-width: 1; fill: none;" d="M0,0L-11,0m0,3v-6M0,0L11,0m0,3v-6"></path>
       </g>
       <g transform="translate(54,274)">
        <path style="stroke: black; stroke-width: 1; fill: none;" d="M0,0L-11,0m0,3v-6M0,0L11,0m0,3v-6M0,0L0,19m3,0h-6M0,0L0,-19m3,0h-6"></path>
       </g>
       <g transform="translate(76,197)">
        <path style="stroke: black; stroke-width: 1; fill: none;" d="M0,0L-11,0m0,3v-6M0,0L11,0m0,3v-6M0,0L0,35m3,0h-6M0,0L0,-35m3,0h-6"></path>
       </g>
       <g transform="translate(97,219)">
        <path style="stroke: black; stroke-width: 1; fill: none;" d="M0,0L-11,0m0,3v-6M0,0L11,0m0,3v-6M0,0L0,31m3,0h-6M0,0L0,-31m3,0h-6"></path>
       </g>
       <g transform="translate(119,165)">
        <path style="stroke: black; stroke-width: 1; fill: none;" d="M0,0L-11,0m0,3v-6M0,0L11,0m0,3v-6M0,0L0,39m3,0h-6M0,0L0,-39m3,0h-6"></path>
       </g>
       <g transform="translate(140,66)">
        <path style="stroke: black; stroke-width: 1; fill: none;" d="M0,0L-11,0m0,3v-6M0,0L11,0m0,3v-6M0,0L0,51m3,0h-6M0,0L0,-51m3,0h-6"></path>
       </g>
       <g transform="translate(162,176)">
        <path style="stroke: black; stroke-width: 1; fill: none;" d="M0,0L-11,0m0,3v-6M0,0L11,0m0,3v-6M0,0L0,38m3,0h-6M0,0L0,-38m3,0h-6"></path>
       </g>
       <g transform="translate(184,252)">
        <path style="stroke: black; stroke-width: 1; fill: none;" d="M0,0L-11,0m0,3v-6M0,0L11,0m0,3v-6M0,0L0,24m3,0h-6M0,0L0,-24m3,0h-6"></path>
       </g>
       <g transform="translate(205,219)">
        <path style="stroke: black; stroke-width: 1; fill: none;" d="M0,0L-11,0m0,3v-6M0,0L11,0m0,3v-6M0,0L0,31m3,0h-6M0,0L0,-31m3,0h-6"></path>
       </g>
       <g transform="translate(227,263)">
        <path style="stroke: black; stroke-width: 1; fill: none;" d="M0,0L-11,0m0,3v-6M0,0L11,0m0,3v-6M0,0L0,22m3,0h-6M0,0L0,-22m3,0h-6"></path>
       </g>
       <g transform="translate(248,230)">
        <path style="stroke: black; stroke-width: 1; fill: none;" d="M0,0L-11,0m0,3v-6M0,0L11,0m0,3v-6M0,0L0,29m3,0h-6M0,0L0,-29m3,0h-6"></path>
       </g>
       <g transform="translate(270,252)">
        <path style="stroke: black; stroke-width: 1; fill: none;" d="M0,0L-11,0m0,3v-6M0,0L11,0m0,3v-6M0,0L0,24m3,0h-6M0,0L0,-24m3,0h-6"></path>
       </g>
       <g transform="translate(292,296)">
        <path style="stroke: black; stroke-width: 1; fill: none;" d="M0,0L-11,0m0,3v-6M0,0L11,0m0,3v-6M0,0L0,11m3,0h-6M0,0L0,-11m3,0h-6"></path>
       </g>
       <g transform="translate(313,307)">
        <path style="stroke: black; stroke-width: 1; fill: none;" d="M0,0L-11,0m0,3v-6M0,0L11,0m0,3v-6"></path>
       </g>
       <g transform="translate(335,307)">
        <path style="stroke: black; stroke-width: 1; fill: none;" d="M0,0L-11,0m0,3v-6M0,0L11,0m0,3v-6"></path>
       </g>
       <g transform="translate(356,307)">
        <path style="stroke: black; stroke-width: 1; fill: none;" d="M0,0L-11,0m0,3v-6M0,0L11,0m0,3v-6"></path>
       </g>
       <g transform="translate(378,307)">
        <path style="stroke: black; stroke-width: 1; fill: none;" d="M0,0L-11,0m0,3v-6M0,0L11,0m0,3v-6"></path>
       </g>
       <g transform="translate(400,307)">
        <path style="stroke: black; stroke-width: 1; fill: none;" d="M0,0L-11,0m0,3v-6M0,0L11,0m0,3v-6"></path>
       </g>
       <g transform="translate(421,307)">
        <path style="stroke: black; stroke-width: 1; fill: none;" d="M0,0L-11,0m0,3v-6M0,0L11,0m0,3v-6"></path>
       </g>
       <path d="M7,285a4,4,0,1,0,8,0a4,4,0,1,0,-8,0zM28,307a4,4,0,1,0,8,0a4,4,0,1,0,-8,0zM50,274a4,4,0,1,0,8,0a4,4,0,1,0,-8,0zM72,197a4,4,0,1,0,8,0a4,4,0,1,0,-8,0zM93,219a4,4,0,1,0,8,0a4,4,0,1,0,-8,0zM115,165a4,4,0,1,0,8,0a4,4,0,1,0,-8,0zM136,66a4,4,0,1,0,8,0a4,4,0,1,0,-8,0zM158,176a4,4,0,1,0,8,0a4,4,0,1,0,-8,0zM180,252a4,4,0,1,0,8,0a4,4,0,1,0,-8,0zM201,219a4,4,0,1,0,8,0a4,4,0,1,0,-8,0zM223,263a4,4,0,1,0,8,0a4,4,0,1,0,-8,0zM244,230a4,4,0,1,0,8,0a4,4,0,1,0,-8,0zM266,252a4,4,0,1,0,8,0a4,4,0,1,0,-8,0zM288,296a4,4,0,1,0,8,0a4,4,0,1,0,-8,0zM309,307a4,4,0,1,0,8,0a4,4,0,1,0,-8,0zM331,307a4,4,0,1,0,8,0a4,4,0,1,0,-8,0zM352,307a4,4,0,1,0,8,0a4,4,0,1,0,-8,0zM374,307a4,4,0,1,0,8,0a4,4,0,1,0,-8,0zM396,307a4,4,0,1,0,8,0a4,4,0,1,0,-8,0zM417,307a4,4,0,1,0,8,0a4,4,0,1,0,-8,0z" style="stroke: black; fill: black;"></path>
      </g>
      <g objname="gauss_Norm%5Bx%5D" objtype="RooCurve">
       <path d="M-22,307v-9h22l5,-2l6,-2l5,-3l6,-3l5,-3l5,-4l6,-5l5,-5l6,-5l5,-6l5,-6l6,-7l5,-8l6,-7l10,-16l11,-16l6,-7l5,-8l5,-6l6,-7l5,-5l6,-4l5,-4l5,-2l6,-2h5l6,1l5,2l5,3l6,4l5,5l6,5l5,7l5,7l11,15l11,16l11,16l5,7l6,7l5,7l5,6l6,6l5,5l6,5l5,4l5,4l6,3l5,3l6,2l5,2l5,2l11,3l11,2l11,1l11,1l21,1h87" style="stroke: red; stroke-width: 3; fill: none;"></path>
      </g>
     </svg>
     <g>
      <g transform="translate(0,307)">
       <path d="M0,0h432" style="stroke: black; stroke-width: 1;"></path>
       <path d="M0,-12v12m11,-6v6m11,-6v6m10,-6v6m11,-12v12m11,-6v6m11,-6v6m11,-6v6m10,-12v12m11,-6v6m11,-6v6m11,-6v6m11,-12v12m10,-6v6m11,-6v6m11,-6v6m11,-12v12m11,-6v6m10,-6v6m11,-6v6m11,-12v12m11,-6v6m11,-6v6m10,-6v6m11,-12v12m11,-6v6m11,-6v6m11,-6v6m10,-12v12m11,-6v6m11,-6v6m11,-6v6m11,-12v12m10,-6v6m11,-6v6m11,-6v6m11,-12v12m11,-6v6m10,-6v6m11,-6v6m11,-12v12" style="stroke: black; stroke-width: 1;"></path>
       <g font-family="Arial" font-size="13" space="preserve">
        <text fill="black" text-anchor="middle" dy=".8em" transform="translate(0,4)">
         -10
        </text>
        <text fill="black" text-anchor="middle" dy=".8em" transform="translate(43,4)">
         -8
        </text>
        <text fill="black" text-anchor="middle" dy=".8em" transform="translate(86,4)">
         -6
        </text>
        <text fill="black" text-anchor="middle" dy=".8em" transform="translate(130,4)">
         -4
        </text>
        <text fill="black" text-anchor="middle" dy=".8em" transform="translate(173,4)">
         -2
        </text>
        <text fill="black" text-anchor="middle" dy=".8em" transform="translate(216,4)">
         0
        </text>
        <text fill="black" text-anchor="middle" dy=".8em" transform="translate(259,4)">
         2
        </text>
        <text fill="black" text-anchor="middle" dy=".8em" transform="translate(302,4)">
         4
        </text>
        <text fill="black" text-anchor="middle" dy=".8em" transform="translate(346,4)">
         6
        </text>
        <text fill="black" text-anchor="middle" dy=".8em" transform="translate(389,4)">
         8
        </text>
        <text fill="black" text-anchor="middle" dy=".8em" transform="translate(432,4)">
         10
        </text>
       </g>
       <g font-family="Arial" font-size="13" space="preserve" transform="translate(432,22)">
        <text fill="black" text-anchor="end" dy=".4em">
         x
        </text>
       </g>
      </g>
      <g>
       <path d="M0,0v307" style="stroke: black; stroke-width: 1;"></path>
       <path d="M17,307h-17m9,-11h-9m9,-11h-9m9,-11h-9m9,-11h-9m17,-11h-17m9,-11h-9m9,-11h-9m9,-11h-9m9,-11h-9m17,-11h-17m9,-10h-9m9,-11h-9m9,-11h-9m9,-11h-9m17,-11h-17m9,-11h-9m9,-11h-9m9,-11h-9m9,-11h-9m17,-11h-17m9,-11h-9m9,-11h-9m9,-11h-9m9,-11h-9m17,-11h-17m9,-11h-9m9,-11h-9m9,-11h-9" style="stroke: black; stroke-width: 1;"></path>
       <g font-family="Arial" font-size="13" space="preserve">
        <text fill="black" text-anchor="end" dy=".4em" transform="translate(-2,307)">
         0
        </text>
        <text fill="black" text-anchor="end" dy=".4em" transform="translate(-2,252)">
         5
        </text>
        <text fill="black" text-anchor="end" dy=".4em" transform="translate(-2,197)">
         10
        </text>
        <text fill="black" text-anchor="end" dy=".4em" transform="translate(-2,143)">
         15
        </text>
        <text fill="black" text-anchor="end" dy=".4em" transform="translate(-2,88)">
         20
        </text>
        <text fill="black" text-anchor="end" dy=".4em" transform="translate(-2,33)">
         25
        </text>
       </g>
       <g font-family="Arial" font-size="13" space="preserve" transform="translate(-52,0)">
        <text fill="black" text-anchor="end" dy=".4em" transform=" rotate(270)">
         Events / ( 1 )
        </text>
       </g>
      </g>
     </g>
    </g>
    <g transform="translate(86,2)" font-family="Arial" font-size="17" space="preserve">
     <path d="M0,0H403V21H0Z" style="fill: none;"></path>
     <text fill="black" text-anchor="middle" dy=".4em" transform="translate(202,11)">
      Red Curve / SumW2 Histo errors
     </text>
    </g>
   </g>
  </svg>
  <svg viewBox="0 0 576 384" preserveAspectRatio="none" x="612" y="8" width="576" height="384">
   <path d="M0,0H576V384H0Z" style="fill: white;"></path>
   <g>
    <g transform="translate(86,38)">
     <title></title>
     <path d="M0,0H432V307H0Z" style="fill: white; stroke: black; stroke-width: 1;"></path>
     <svg x="0" y="0" overflow="hidden" width="432" height="307" viewBox="0 0 432 307">
      <g>
       <g transform="translate(11,286)">
        <path style="stroke: black; stroke-width: 1; fill: none;" d="M0,0L0,14m3,0h-6M0,0L0,-28m3,0h-6"></path>
       </g>
       <g transform="translate(32,307)">
        <path style="stroke: black; stroke-width: 1; fill: none;" d="M0,0L0,-12m3,0h-6"></path>
       </g>
       <g transform="translate(54,275)">
        <path style="stroke: black; stroke-width: 1; fill: none;" d="M0,0L0,17m3,0h-6M0,0L0,-31m3,0h-6"></path>
       </g>
       <g transform="translate(76,202)">
        <path style="stroke: black; stroke-width: 1; fill: none;" d="M0,0L0,33m3,0h-6M0,0L0,-45m3,0h-6"></path>
       </g>
       <g transform="translate(97,223)">
        <path style="stroke: black; stroke-width: 1; fill: none;" d="M0,0L0,29m3,0h-6M0,0L0,-42m3,0h-6"></path>
       </g>
       <g transform="translate(119,170)">
        <path style="stroke: black; stroke-width: 1; fill: none;" d="M0,0L0,37m3,0h-6M0,0L0,-49m3,0h-6"></path>
       </g>
       <g transform="translate(140,75)">
        <path style="stroke: black; stroke-width: 1; fill: none;" d="M0,0L0,49m3,0h-6M0,0L0,-61m3,0h-6"></path>
       </g>
       <g transform="translate(162,181)">
        <path style="stroke: black; stroke-width: 1; fill: none;" d="M0,0L0,36m3,0h-6M0,0L0,-48m3,0h-6"></path>
       </g>
       <g transform="translate(184,254)">
        <path style="stroke: black; stroke-width: 1; fill: none;" d="M0,0L0,23m3,0h-6M0,0L0,-36m3,0h-6"></path>
       </g>
       <g transform="translate(205,223)">
        <path style="stroke: black; stroke-width: 1; fill: none;" d="M0,0L0,29m3,0h-6M0,0L0,-42m3,0h-6"></path>
       </g>
       <g transform="translate(227,265)">
        <path style="stroke: black; stroke-width: 1; fill: none;" d="M0,0L0,20m3,0h-6M0,0L0,-33m3,0h-6"></path>
       </g>
       <g transform="translate(248,233)">
        <path style="stroke: black; stroke-width: 1; fill: none;" d="M0,0L0,27m3,0h-6M0,0L0,-40m3,0h-6"></path>
       </g>
       <g transform="translate(270,254)">
        <path style="stroke: black; stroke-width: 1; fill: none;" d="M0,0L0,23m3,0h-6M0,0L0,-36m3,0h-6"></path>
       </g>
       <g transform="translate(292,296)">
        <path style="stroke: black; stroke-width: 1; fill: none;" d="M0,0L0,9m3,0h-6M0,0L0,-24m3,0h-6"></path>
       </g>
       <g transform="translate(313,307)">
        <path style="stroke: black; stroke-width: 1; fill: none;" d="M0,0L0,-12m3,0h-6"></path>
       </g>
       <g transform="translate(335,307)">
        <path style="stroke: black; stroke-width: 1; fill: none;" d="M0,0L0,-12m3,0h-6"></path>
       </g>
       <g transform="translate(356,307)">
        <path style="stroke: black; stroke-width: 1; fill: none;" d="M0,0L0,-12m3,0h-6"></path>
       </g>
       <g transform="translate(378,307)">
        <path style="stroke: black; stroke-width: 1; fill: none;" d="M0,0L0,-12m3,0h-6"></path>
       </g>
       <g transform="translate(400,307)">
        <path style="stroke: black; stroke-width: 1; fill: none;" d="M0,0L0,-12m3,0h-6"></path>
       </g>
       <g transform="translate(421,307)">
        <path style="stroke: black; stroke-width: 1; fill: none;" d="M0,0L0,-12m3,0h-6"></path>
       </g>
       <path d="M7,286a4,4,0,1,0,8,0a4,4,0,1,0,-8,0zM28,307a4,4,0,1,0,8,0a4,4,0,1,0,-8,0zM50,275a4,4,0,1,0,8,0a4,4,0,1,0,-8,0zM72,202a4,4,0,1,0,8,0a4,4,0,1,0,-8,0zM93,223a4,4,0,1,0,8,0a4,4,0,1,0,-8,0zM115,170a4,4,0,1,0,8,0a4,4,0,1,0,-8,0zM136,75a4,4,0,1,0,8,0a4,4,0,1,0,-8,0zM158,181a4,4,0,1,0,8,0a4,4,0,1,0,-8,0zM180,254a4,4,0,1,0,8,0a4,4,0,1,0,-8,0zM201,223a4,4,0,1,0,8,0a4,4,0,1,0,-8,0zM223,265a4,4,0,1,0,8,0a4,4,0,1,0,-8,0zM244,233a4,4,0,1,0,8,0a4,4,0,1,0,-8,0zM266,254a4,4,0,1,0,8,0a4,4,0,1,0,-8,0zM288,296a4,4,0,1,0,8,0a4,4,0,1,0,-8,0zM309,307a4,4,0,1,0,8,0a4,4,0,1,0,-8,0zM331,307a4,4,0,1,0,8,0a4,4,0,1,0,-8,0zM352,307a4,4,0,1,0,8,0a4,4,0,1,0,-8,0zM374,307a4,4,0,1,0,8,0a4,4,0,1,0,-8,0zM396,307a4,4,0,1,0,8,0a4,4,0,1,0,-8,0zM417,307a4,4,0,1,0,8,0a4,4,0,1,0,-8,0z" style="stroke: black; fill: black;"></path>
      </g>
      <g objname="gauss_Norm%5Bx%5D" objtype="RooCurve">
       <path d="M-22,307v-8h22l5,-2l6,-2l5,-3l6,-3l5,-3l5,-4l6,-4l5,-5l6,-5l5,-6l5,-6l6,-7l5,-7l6,-7l10,-15l11,-16l6,-7l5,-7l5,-6l6,-6l5,-5l6,-5l5,-3l5,-3l6,-1h5l6,1l5,1l5,3l6,4l5,5l6,5l5,7l5,6l11,15l11,15l11,15l5,7l6,7l5,7l5,6l6,5l5,5l6,5l5,4l5,3l6,4l5,2l6,3l5,2l5,2l11,2l11,2l11,1l11,1l21,1h87" style="stroke: blue; stroke-width: 3; stroke-dasharray: 3,3; fill: none;"></path>
      </g>
     </svg>
     <g>
      <g transform="translate(0,307)">
       <path d="M0,0h432" style="stroke: black; stroke-width: 1;"></path>
       <path d="M0,-12v12m11,-6v6m11,-6v6m10,-6v6m11,-12v12m11,-6v6m11,-6v6m11,-6v6m10,-12v12m11,-6v6m11,-6v6m11,-6v6m11,-12v12m10,-6v6m11,-6v6m11,-6v6m11,-12v12m11,-6v6m10,-6v6m11,-6v6m11,-12v12m11,-6v6m11,-6v6m10,-6v6m11,-12v12m11,-6v6m11,-6v6m11,-6v6m10,-12v12m11,-6v6m11,-6v6m11,-6v6m11,-12v12m10,-6v6m11,-6v6m11,-6v6m11,-12v12m11,-6v6m10,-6v6m11,-6v6m11,-12v12" style="stroke: black; stroke-width: 1;"></path>
       <g font-family="Arial" font-size="13" space="preserve">
        <text fill="black" text-anchor="middle" dy=".8em" transform="translate(0,4)">
         -10
        </text>
        <text fill="black" text-anchor="middle" dy=".8em" transform="translate(43,4)">
         -8
        </text>
        <text fill="black" text-anchor="middle" dy=".8em" transform="translate(86,4)">
         -6
        </text>
        <text fill="black" text-anchor="middle" dy=".8em" transform="translate(130,4)">
         -4
        </text>
        <text fill="black" text-anchor="middle" dy=".8em" transform="translate(173,4)">
         -2
        </text>
        <text fill="black" text-anchor="middle" dy=".8em" transform="translate(216,4)">
         0
        </text>
        <text fill="black" text-anchor="middle" dy=".8em" transform="translate(259,4)">
         2
        </text>
        <text fill="black" text-anchor="middle" dy=".8em" transform="translate(302,4)">
         4
        </text>
        <text fill="black" text-anchor="middle" dy=".8em" transform="translate(346,4)">
         6
        </text>
        <text fill="black" text-anchor="middle" dy=".8em" transform="translate(389,4)">
         8
        </text>
        <text fill="black" text-anchor="middle" dy=".8em" transform="translate(432,4)">
         10
        </text>
       </g>
       <g font-family="Arial" font-size="13" space="preserve" transform="translate(432,22)">
        <text fill="black" text-anchor="end" dy=".4em">
         x
        </text>
       </g>
      </g>
      <g>
       <path d="M0,0v307" style="stroke: black; stroke-width: 1;"></path>
       <path d="M17,307h-17m9,-11h-9m9,-10h-9m9,-11h-9m9,-10h-9m17,-11h-17m9,-10h-9m9,-11h-9m9,-10h-9m9,-11h-9m17,-10h-17m9,-11h-9m9,-10h-9m9,-11h-9m9,-10h-9m17,-11h-17m9,-11h-9m9,-10h-9m9,-11h-9m9,-10h-9m17,-11h-17m9,-10h-9m9,-11h-9m9,-10h-9m9,-11h-9m17,-10h-17m9,-11h-9m9,-10h-9m9,-11h-9m9,-10h-9" style="stroke: black; stroke-width: 1;"></path>
       <g font-family="Arial" font-size="13" space="preserve">
        <text fill="black" text-anchor="end" dy=".4em" transform="translate(-2,307)">
         0
        </text>
        <text fill="black" text-anchor="end" dy=".4em" transform="translate(-2,254)">
         5
        </text>
        <text fill="black" text-anchor="end" dy=".4em" transform="translate(-2,202)">
         10
        </text>
        <text fill="black" text-anchor="end" dy=".4em" transform="translate(-2,149)">
         15
        </text>
        <text fill="black" text-anchor="end" dy=".4em" transform="translate(-2,96)">
         20
        </text>
        <text fill="black" text-anchor="end" dy=".4em" transform="translate(-2,44)">
         25
        </text>
       </g>
       <g font-family="Arial" font-size="13" space="preserve" transform="translate(-52,0)">
        <text fill="black" text-anchor="end" dy=".4em" transform=" rotate(270)">
         Events / ( 1 )
        </text>
       </g>
      </g>
     </g>
    </g>
    <g transform="translate(86,2)" font-family="Arial" font-size="17" space="preserve">
     <path d="M0,0H403V21H0Z" style="fill: none;"></path>
     <text fill="black" text-anchor="middle" dy=".4em" transform="translate(202,11)">
      Dashed Curve / No XError bars
     </text>
    </g>
   </g>
  </svg>
  <svg viewBox="0 0 576 384" preserveAspectRatio="none" x="12" y="408" width="576" height="384">
   <path d="M0,0H576V384H0Z" style="fill: white;"></path>
   <g>
    <g transform="translate(86,38)">
     <title></title>
     <path d="M0,0H432V307H0Z" style="fill: white; stroke: black; stroke-width: 1;"></path>
     <svg x="0" y="0" overflow="hidden" width="432" height="307" viewBox="0 0 432 307">
      <g objname="gauss_Norm%5Bx%5D" objtype="RooCurve">
       <path d="M-22,307v-8h22l5,-2l6,-2l5,-3l6,-3l5,-3l5,-4l6,-4l5,-5l6,-5l5,-6l5,-6l6,-7l5,-7l6,-7l10,-15l11,-16l6,-7l5,-7l5,-6l6,-6l5,-5l6,-5l5,-3l5,-3l6,-1h5l6,1l5,1l5,3l6,4l5,5l6,5l5,7l5,6l11,15l11,15l11,15l5,7l6,7l5,7l5,6l6,5l5,5l6,5l5,4l5,3l6,4l5,2l6,3l5,2l5,2l11,2l11,2l11,1l11,1l21,1h87Z" style="stroke: none; fill: rgb(255,204,0);"></path>
      </g>
      <g>
       <g transform="translate(11,286)">
        <path style="stroke: blue; stroke-width: 1; fill: none;" d="M0,0L-11,0m0,3v-6M0,0L11,0m0,3v-6M0,0L0,14m3,0h-6M0,0L0,-28m3,0h-6"></path>
       </g>
       <g transform="translate(32,307)">
        <path style="stroke: blue; stroke-width: 1; fill: none;" d="M0,0L-11,0m0,3v-6M0,0L11,0m0,3v-6M0,0L0,-12m3,0h-6"></path>
       </g>
       <g transform="translate(54,275)">
        <path style="stroke: blue; stroke-width: 1; fill: none;" d="M0,0L-11,0m0,3v-6M0,0L11,0m0,3v-6M0,0L0,17m3,0h-6M0,0L0,-31m3,0h-6"></path>
       </g>
       <g transform="translate(76,202)">
        <path style="stroke: blue; stroke-width: 1; fill: none;" d="M0,0L-11,0m0,3v-6M0,0L11,0m0,3v-6M0,0L0,33m3,0h-6M0,0L0,-45m3,0h-6"></path>
       </g>
       <g transform="translate(97,223)">
        <path style="stroke: blue; stroke-width: 1; fill: none;" d="M0,0L-11,0m0,3v-6M0,0L11,0m0,3v-6M0,0L0,29m3,0h-6M0,0L0,-42m3,0h-6"></path>
       </g>
       <g transform="translate(119,170)">
        <path style="stroke: blue; stroke-width: 1; fill: none;" d="M0,0L-11,0m0,3v-6M0,0L11,0m0,3v-6M0,0L0,37m3,0h-6M0,0L0,-49m3,0h-6"></path>
       </g>
       <g transform="translate(140,75)">
        <path style="stroke: blue; stroke-width: 1; fill: none;" d="M0,0L-11,0m0,3v-6M0,0L11,0m0,3v-6M0,0L0,49m3,0h-6M0,0L0,-61m3,0h-6"></path>
       </g>
       <g transform="translate(162,181)">
        <path style="stroke: blue; stroke-width: 1; fill: none;" d="M0,0L-11,0m0,3v-6M0,0L11,0m0,3v-6M0,0L0,36m3,0h-6M0,0L0,-48m3,0h-6"></path>
       </g>
       <g transform="translate(184,254)">
        <path style="stroke: blue; stroke-width: 1; fill: none;" d="M0,0L-11,0m0,3v-6M0,0L11,0m0,3v-6M0,0L0,23m3,0h-6M0,0L0,-36m3,0h-6"></path>
       </g>
       <g transform="translate(205,223)">
        <path style="stroke: blue; stroke-width: 1; fill: none;" d="M0,0L-11,0m0,3v-6M0,0L11,0m0,3v-6M0,0L0,29m3,0h-6M0,0L0,-42m3,0h-6"></path>
       </g>
       <g transform="translate(227,265)">
        <path style="stroke: blue; stroke-width: 1; fill: none;" d="M0,0L-11,0m0,3v-6M0,0L11,0m0,3v-6M0,0L0,20m3,0h-6M0,0L0,-33m3,0h-6"></path>
       </g>
       <g transform="translate(248,233)">
        <path style="stroke: blue; stroke-width: 1; fill: none;" d="M0,0L-11,0m0,3v-6M0,0L11,0m0,3v-6M0,0L0,27m3,0h-6M0,0L0,-40m3,0h-6"></path>
       </g>
       <g transform="translate(270,254)">
        <path style="stroke: blue; stroke-width: 1; fill: none;" d="M0,0L-11,0m0,3v-6M0,0L11,0m0,3v-6M0,0L0,23m3,0h-6M0,0L0,-36m3,0h-6"></path>
       </g>
       <g transform="translate(292,296)">
        <path style="stroke: blue; stroke-width: 1; fill: none;" d="M0,0L-11,0m0,3v-6M0,0L11,0m0,3v-6M0,0L0,9m3,0h-6M0,0L0,-24m3,0h-6"></path>
       </g>
       <g transform="translate(313,307)">
        <path style="stroke: blue; stroke-width: 1; fill: none;" d="M0,0L-11,0m0,3v-6M0,0L11,0m0,3v-6M0,0L0,-12m3,0h-6"></path>
       </g>
       <g transform="translate(335,307)">
        <path style="stroke: blue; stroke-width: 1; fill: none;" d="M0,0L-11,0m0,3v-6M0,0L11,0m0,3v-6M0,0L0,-12m3,0h-6"></path>
       </g>
       <g transform="translate(356,307)">
        <path style="stroke: blue; stroke-width: 1; fill: none;" d="M0,0L-11,0m0,3v-6M0,0L11,0m0,3v-6M0,0L0,-12m3,0h-6"></path>
       </g>
       <g transform="translate(378,307)">
        <path style="stroke: blue; stroke-width: 1; fill: none;" d="M0,0L-11,0m0,3v-6M0,0L11,0m0,3v-6M0,0L0,-12m3,0h-6"></path>
       </g>
       <g transform="translate(400,307)">
        <path style="stroke: blue; stroke-width: 1; fill: none;" d="M0,0L-11,0m0,3v-6M0,0L11,0m0,3v-6M0,0L0,-12m3,0h-6"></path>
       </g>
       <g transform="translate(421,307)">
        <path style="stroke: blue; stroke-width: 1; fill: none;" d="M0,0L-11,0m0,3v-6M0,0L11,0m0,3v-6M0,0L0,-12m3,0h-6"></path>
       </g>
       <path d="M7,286a4,4,0,1,0,8,0a4,4,0,1,0,-8,0zM28,307a4,4,0,1,0,8,0a4,4,0,1,0,-8,0zM50,275a4,4,0,1,0,8,0a4,4,0,1,0,-8,0zM72,202a4,4,0,1,0,8,0a4,4,0,1,0,-8,0zM93,223a4,4,0,1,0,8,0a4,4,0,1,0,-8,0zM115,170a4,4,0,1,0,8,0a4,4,0,1,0,-8,0zM136,75a4,4,0,1,0,8,0a4,4,0,1,0,-8,0zM158,181a4,4,0,1,0,8,0a4,4,0,1,0,-8,0zM180,254a4,4,0,1,0,8,0a4,4,0,1,0,-8,0zM201,223a4,4,0,1,0,8,0a4,4,0,1,0,-8,0zM223,265a4,4,0,1,0,8,0a4,4,0,1,0,-8,0zM244,233a4,4,0,1,0,8,0a4,4,0,1,0,-8,0zM266,254a4,4,0,1,0,8,0a4,4,0,1,0,-8,0zM288,296a4,4,0,1,0,8,0a4,4,0,1,0,-8,0zM309,307a4,4,0,1,0,8,0a4,4,0,1,0,-8,0zM331,307a4,4,0,1,0,8,0a4,4,0,1,0,-8,0zM352,307a4,4,0,1,0,8,0a4,4,0,1,0,-8,0zM374,307a4,4,0,1,0,8,0a4,4,0,1,0,-8,0zM396,307a4,4,0,1,0,8,0a4,4,0,1,0,-8,0zM417,307a4,4,0,1,0,8,0a4,4,0,1,0,-8,0z" style="stroke: blue; fill: blue;"></path>
      </g>
     </svg>
     <g>
      <g transform="translate(0,307)">
       <path d="M0,0h432" style="stroke: black; stroke-width: 1;"></path>
       <path d="M0,-12v12m11,-6v6m11,-6v6m10,-6v6m11,-12v12m11,-6v6m11,-6v6m11,-6v6m10,-12v12m11,-6v6m11,-6v6m11,-6v6m11,-12v12m10,-6v6m11,-6v6m11,-6v6m11,-12v12m11,-6v6m10,-6v6m11,-6v6m11,-12v12m11,-6v6m11,-6v6m10,-6v6m11,-12v12m11,-6v6m11,-6v6m11,-6v6m10,-12v12m11,-6v6m11,-6v6m11,-6v6m11,-12v12m10,-6v6m11,-6v6m11,-6v6m11,-12v12m11,-6v6m10,-6v6m11,-6v6m11,-12v12" style="stroke: black; stroke-width: 1;"></path>
       <g font-family="Arial" font-size="13" space="preserve">
        <text fill="black" text-anchor="middle" dy=".8em" transform="translate(0,4)">
         -10
        </text>
        <text fill="black" text-anchor="middle" dy=".8em" transform="translate(43,4)">
         -8
        </text>
        <text fill="black" text-anchor="middle" dy=".8em" transform="translate(86,4)">
         -6
        </text>
        <text fill="black" text-anchor="middle" dy=".8em" transform="translate(130,4)">
         -4
        </text>
        <text fill="black" text-anchor="middle" dy=".8em" transform="translate(173,4)">
         -2
        </text>
        <text fill="black" text-anchor="middle" dy=".8em" transform="translate(216,4)">
         0
        </text>
        <text fill="black" text-anchor="middle" dy=".8em" transform="translate(259,4)">
         2
        </text>
        <text fill="black" text-anchor="middle" dy=".8em" transform="translate(302,4)">
         4
        </text>
        <text fill="black" text-anchor="middle" dy=".8em" transform="translate(346,4)">
         6
        </text>
        <text fill="black" text-anchor="middle" dy=".8em" transform="translate(389,4)">
         8
        </text>
        <text fill="black" text-anchor="middle" dy=".8em" transform="translate(432,4)">
         10
        </text>
       </g>
       <g font-family="Arial" font-size="13" space="preserve" transform="translate(432,22)">
        <text fill="black" text-anchor="end" dy=".4em">
         x
        </text>
       </g>
      </g>
      <g>
       <path d="M0,0v307" style="stroke: black; stroke-width: 1;"></path>
       <path d="M17,307h-17m9,-11h-9m9,-10h-9m9,-11h-9m9,-10h-9m17,-11h-17m9,-10h-9m9,-11h-9m9,-10h-9m9,-11h-9m17,-10h-17m9,-11h-9m9,-10h-9m9,-11h-9m9,-10h-9m17,-11h-17m9,-11h-9m9,-10h-9m9,-11h-9m9,-10h-9m17,-11h-17m9,-10h-9m9,-11h-9m9,-10h-9m9,-11h-9m17,-10h-17m9,-11h-9m9,-10h-9m9,-11h-9m9,-10h-9" style="stroke: black; stroke-width: 1;"></path>
       <g font-family="Arial" font-size="13" space="preserve">
        <text fill="black" text-anchor="end" dy=".4em" transform="translate(-2,307)">
         0
        </text>
        <text fill="black" text-anchor="end" dy=".4em" transform="translate(-2,254)">
         5
        </text>
        <text fill="black" text-anchor="end" dy=".4em" transform="translate(-2,202)">
         10
        </text>
        <text fill="black" text-anchor="end" dy=".4em" transform="translate(-2,149)">
         15
        </text>
        <text fill="black" text-anchor="end" dy=".4em" transform="translate(-2,96)">
         20
        </text>
        <text fill="black" text-anchor="end" dy=".4em" transform="translate(-2,44)">
         25
        </text>
       </g>
       <g font-family="Arial" font-size="13" space="preserve" transform="translate(-52,0)">
        <text fill="black" text-anchor="end" dy=".4em" transform=" rotate(270)">
         Events / ( 1 )
        </text>
       </g>
      </g>
     </g>
    </g>
    <g transform="translate(118,2)" font-family="Arial" font-size="17" space="preserve">
     <path d="M0,0H340V21H0Z" style="fill: none;"></path>
     <text fill="black" text-anchor="middle" dy=".4em" transform="translate(170,11)">
      Filled Curve / Blue Histo
     </text>
    </g>
   </g>
  </svg>
  <svg viewBox="0 0 576 384" preserveAspectRatio="none" x="612" y="408" width="576" height="384">
   <path d="M0,0H576V384H0Z" style="fill: white;"></path>
   <g>
    <g transform="translate(86,38)">
     <title></title>
     <path d="M0,0H432V307H0Z" style="fill: white; stroke: black; stroke-width: 1;"></path>
     <svg x="0" y="0" overflow="hidden" width="432" height="307" viewBox="0 0 432 307">
      <g>
       <g transform="translate(11,280)">
        <path d="M-10,0h20v27h-20z" style="fill: rgb(204,204,204);"></path>
       </g>
       <g transform="translate(32,307)">
        <path d="M-10,0h20v0h-20z" style="fill: rgb(204,204,204);"></path>
       </g>
       <g transform="translate(54,267)">
        <path d="M-10,0h20v40h-20z" style="fill: rgb(204,204,204);"></path>
       </g>
       <g transform="translate(76,174)">
        <path d="M-10,0h20v133h-20z" style="fill: rgb(204,204,204);"></path>
       </g>
       <g transform="translate(97,201)">
        <path d="M-10,0h20v106h-20z" style="fill: rgb(204,204,204);"></path>
       </g>
       <g transform="translate(119,134)">
        <path d="M-10,0h20v173h-20z" style="fill: rgb(204,204,204);"></path>
       </g>
       <g transform="translate(140,15)">
        <path d="M-10,0h20v292h-20z" style="fill: rgb(204,204,204);"></path>
       </g>
       <g transform="translate(162,148)">
        <path d="M-10,0h20v159h-20z" style="fill: rgb(204,204,204);"></path>
       </g>
       <g transform="translate(184,241)">
        <path d="M-10,0h20v66h-20z" style="fill: rgb(204,204,204);"></path>
       </g>
       <g transform="translate(205,201)">
        <path d="M-10,0h20v106h-20z" style="fill: rgb(204,204,204);"></path>
       </g>
       <g transform="translate(227,254)">
        <path d="M-10,0h20v53h-20z" style="fill: rgb(204,204,204);"></path>
       </g>
       <g transform="translate(248,214)">
        <path d="M-10,0h20v93h-20z" style="fill: rgb(204,204,204);"></path>
       </g>
       <g transform="translate(270,241)">
        <path d="M-10,0h20v66h-20z" style="fill: rgb(204,204,204);"></path>
       </g>
       <g transform="translate(292,294)">
        <path d="M-10,0h20v13h-20z" style="fill: rgb(204,204,204);"></path>
       </g>
       <g transform="translate(313,307)">
        <path d="M-10,0h20v0h-20z" style="fill: rgb(204,204,204);"></path>
       </g>
       <g transform="translate(335,307)">
        <path d="M-10,0h20v0h-20z" style="fill: rgb(204,204,204);"></path>
       </g>
       <g transform="translate(356,307)">
        <path d="M-10,0h20v0h-20z" style="fill: rgb(204,204,204);"></path>
       </g>
       <g transform="translate(378,307)">
        <path d="M-10,0h20v0h-20z" style="fill: rgb(204,204,204);"></path>
       </g>
       <g transform="translate(400,307)">
        <path d="M-10,0h20v0h-20z" style="fill: rgb(204,204,204);"></path>
       </g>
       <g transform="translate(421,307)">
        <path d="M-10,0h20v0h-20z" style="fill: rgb(204,204,204);"></path>
       </g>
      </g>
      <g objname="gauss_Norm%5Bx%5D_Range%5B-8.000000_3.000000%5D" objtype="RooCurve">
       <path d="M43,263l6,-8l6,-8l6,-9l6,-10l6,-10l6,-10l12,-22l12,-21l6,-10l5,-9l6,-9l6,-6l3,-3l3,-3l3,-2l3,-2l3,-2l3,-1h9l3,1l3,1l3,1l3,2l3,2l3,3l3,3l6,7l6,8l6,10l6,10l12,21l11,21l6,11l6,10l6,10l6,9l6,8l6,7l6,7l6,6l6,5l6,5" style="stroke: magenta; stroke-width: 3; fill: none;"></path>
      </g>
     </svg>
     <g>
      <g transform="translate(0,307)">
       <path d="M0,0h432" style="stroke: black; stroke-width: 1;"></path>
       <path d="M0,-12v12m11,-6v6m11,-6v6m10,-6v6m11,-12v12m11,-6v6m11,-6v6m11,-6v6m10,-12v12m11,-6v6m11,-6v6m11,-6v6m11,-12v12m10,-6v6m11,-6v6m11,-6v6m11,-12v12m11,-6v6m10,-6v6m11,-6v6m11,-12v12m11,-6v6m11,-6v6m10,-6v6m11,-12v12m11,-6v6m11,-6v6m11,-6v6m10,-12v12m11,-6v6m11,-6v6m11,-6v6m11,-12v12m10,-6v6m11,-6v6m11,-6v6m11,-12v12m11,-6v6m10,-6v6m11,-6v6m11,-12v12" style="stroke: black; stroke-width: 1;"></path>
       <g font-family="Arial" font-size="13" space="preserve">
        <text fill="black" text-anchor="middle" dy=".8em" transform="translate(0,4)">
         -10
        </text>
        <text fill="black" text-anchor="middle" dy=".8em" transform="translate(43,4)">
         -8
        </text>
        <text fill="black" text-anchor="middle" dy=".8em" transform="translate(86,4)">
         -6
        </text>
        <text fill="black" text-anchor="middle" dy=".8em" transform="translate(130,4)">
         -4
        </text>
        <text fill="black" text-anchor="middle" dy=".8em" transform="translate(173,4)">
         -2
        </text>
        <text fill="black" text-anchor="middle" dy=".8em" transform="translate(216,4)">
         0
        </text>
        <text fill="black" text-anchor="middle" dy=".8em" transform="translate(259,4)">
         2
        </text>
        <text fill="black" text-anchor="middle" dy=".8em" transform="translate(302,4)">
         4
        </text>
        <text fill="black" text-anchor="middle" dy=".8em" transform="translate(346,4)">
         6
        </text>
        <text fill="black" text-anchor="middle" dy=".8em" transform="translate(389,4)">
         8
        </text>
        <text fill="black" text-anchor="middle" dy=".8em" transform="translate(432,4)">
         10
        </text>
       </g>
       <g font-family="Arial" font-size="13" space="preserve" transform="translate(432,22)">
        <text fill="black" text-anchor="end" dy=".4em">
         x
        </text>
       </g>
      </g>
      <g>
       <path d="M0,0v307" style="stroke: black; stroke-width: 1;"></path>
       <path d="M17,307h-17m9,-13h-9m9,-14h-9m9,-13h-9m9,-13h-9m17,-13h-17m9,-14h-9m9,-13h-9m9,-13h-9m9,-14h-9m17,-13h-17m9,-13h-9m9,-13h-9m9,-14h-9m9,-13h-9m17,-13h-17m9,-14h-9m9,-13h-9m9,-13h-9m9,-14h-9m17,-13h-17m9,-13h-9m9,-13h-9m9,-14h-9" style="stroke: black; stroke-width: 1;"></path>
       <g font-family="Arial" font-size="13" space="preserve">
        <text fill="black" text-anchor="end" dy=".4em" transform="translate(-2,307)">
         0
        </text>
        <text fill="black" text-anchor="end" dy=".4em" transform="translate(-2,241)">
         5
        </text>
        <text fill="black" text-anchor="end" dy=".4em" transform="translate(-2,174)">
         10
        </text>
        <text fill="black" text-anchor="end" dy=".4em" transform="translate(-2,108)">
         15
        </text>
        <text fill="black" text-anchor="end" dy=".4em" transform="translate(-2,41)">
         20
        </text>
       </g>
       <g font-family="Arial" font-size="13" space="preserve" transform="translate(-52,0)">
        <text fill="black" text-anchor="end" dy=".4em" transform=" rotate(270)">
         Events / ( 1 )
        </text>
       </g>
      </g>
     </g>
    </g>
    <g transform="translate(86,2)" font-family="Arial" font-size="20" space="preserve">
     <path d="M0,0H403V24H0Z" style="fill: none;"></path>
     <text fill="black" text-anchor="middle" dy=".4em" transform="translate(202,12)">
      Partial Range / Filled Bar chart
     </text>
    </g>
   </g>
  </svg>
 </g>
</svg>