<svg xmlns="http://www.w3.org/2000/svg" viewBox="0 0 998 875" preserveAspectRatio="none" width="998" height="875">
 <path d="M0,0H998V875H0Z" style="fill: white;"></path>
 <g>
  <svg viewBox="0 0 978 420" preserveAspectRatio="none" x="10" y="9" width="978" height="420">
   <path d="M0,0H978V420H0Z" style="fill: white;"></path>
   <g>
    <g transform="translate(98,42)">
     <path d="M0,0H782V336H0Z" style="fill: white; stroke: black; stroke-width: 1;"></path>
     <svg x="0" y="0" overflow="hidden" width="782" height="336" viewBox="0 0 782 336">
      <g>
       <path d="M0,320h20M10,319v2M20,320h20M30,319v2M39,320h20M49,319v2M59,319h20M69,319v1M78,319h20M88,318v2M98,319h20M108,318v1M117,318h20M127,318v1M137,317h20M147,316v2M156,315h20M166,314v2M176,311h20M186,310v2M196,302h20M206,300v4M215,289h20M225,287v4M235,272h20M245,269v5M254,244h20M264,241v7M274,208h20M284,204v8M293,161h20M303,156v10M313,125h20M323,119v11M332,86h20M342,79v14M352,53h20M362,45v16M371,47h20M381,38v18M391,26h20M401,16v19M411,32h20M421,23v18M430,78h20M440,70v15M450,127h20M460,121v12M469,176h20M479,171v10M489,220h20M499,216v8M508,246h20M518,243v6M528,271h20M538,269v5M547,288h20M557,287v3M567,303h20M577,302v2M587,310h20M597,309v2M606,314h20M616,313v2M626,317h20M636,316v1M645,318h20M655,318v1M665,319h20M675,318v1M684,319h20M694,319v0M704,319h20M714,319v0M723,319h20M733,319v0M743,319h20M753,319v1M762,319h20M772,319v1" style="stroke: black; stroke-width: 1;"></path>
      </g>
      <g>
       <path d="M0,320h20M10,319v2M20,320h20M30,319v2M39,320h20M49,319v2M59,319h20M69,319v1M78,319h20M88,318v2M98,319h20M108,318v1M117,318h20M127,318v1M137,317h20M147,316v2M156,315h20M166,314v2M176,311h20M186,310v2M196,302h20M206,300v4M215,289h20M225,287v4M235,272h20M245,269v5M254,244h20M264,241v7M274,208h20M284,204v8M293,161h20M303,156v10M313,125h20M323,119v11M332,86h20M342,79v14M352,53h20M362,45v16M371,47h20M381,38v18M391,26h20M401,16v19M411,32h20M421,23v18M430,78h20M440,70v15M450,127h20M460,121v12M469,176h20M479,171v10M489,220h20M499,216v8M508,246h20M518,243v6M528,271h20M538,269v5M547,288h20M557,287v3M567,303h20M577,302v2M587,310h20M597,309v2M606,314h20M616,313v2M626,317h20M636,316v1M645,318h20M655,318v1M665,319h20M675,318v1M684,319h20M694,319v0M704,319h20M714,319v0M723,319h20M733,319v0M743,319h20M753,319v1M762,319h20M772,319v1" style="stroke: black; stroke-width: 1;"></path>
       <path d="M6,320a4,4,0,1,0,8,0a4,4,0,1,0,-8,0zM26,320a4,4,0,1,0,8,0a4,4,0,1,0,-8,0zM45,320a4,4,0,1,0,8,0a4,4,0,1,0,-8,0zM65,319a4,4,0,1,0,8,0a4,4,0,1,0,-8,0zM84,319a4,4,0,1,0,8,0a4,4,0,1,0,-8,0zM104,319a4,4,0,1,0,8,0a4,4,0,1,0,-8,0zM123,318a4,4,0,1,0,8,0a4,4,0,1,0,-8,0zM143,317a4,4,0,1,0,8,0a4,4,0,1,0,-8,0zM162,315a4,4,0,1,0,8,0a4,4,0,1,0,-8,0zM182,311a4,4,0,1,0,8,0a4,4,0,1,0,-8,0zM202,302a4,4,0,1,0,8,0a4,4,0,1,0,-8,0zM221,289a4,4,0,1,0,8,0a4,4,0,1,0,-8,0zM241,272a4,4,0,1,0,8,0a4,4,0,1,0,-8,0zM260,244a4,4,0,1,0,8,0a4,4,0,1,0,-8,0zM280,208a4,4,0,1,0,8,0a4,4,0,1,0,-8,0zM299,161a4,4,0,1,0,8,0a4,4,0,1,0,-8,0zM319,125a4,4,0,1,0,8,0a4,4,0,1,0,-8,0zM338,86a4,4,0,1,0,8,0a4,4,0,1,0,-8,0zM358,53a4,4,0,1,0,8,0a4,4,0,1,0,-8,0zM377,47a4,4,0,1,0,8,0a4,4,0,1,0,-8,0zM397,26a4,4,0,1,0,8,0a4,4,0,1,0,-8,0zM417,32a4,4,0,1,0,8,0a4,4,0,1,0,-8,0zM436,78a4,4,0,1,0,8,0a4,4,0,1,0,-8,0zM456,127a4,4,0,1,0,8,0a4,4,0,1,0,-8,0zM475,176a4,4,0,1,0,8,0a4,4,0,1,0,-8,0zM495,220a4,4,0,1,0,8,0a4,4,0,1,0,-8,0zM514,246a4,4,0,1,0,8,0a4,4,0,1,0,-8,0zM534,271a4,4,0,1,0,8,0a4,4,0,1,0,-8,0zM553,288a4,4,0,1,0,8,0a4,4,0,1,0,-8,0zM573,303a4,4,0,1,0,8,0a4,4,0,1,0,-8,0zM593,310a4,4,0,1,0,8,0a4,4,0,1,0,-8,0zM612,314a4,4,0,1,0,8,0a4,4,0,1,0,-8,0zM632,317a4,4,0,1,0,8,0a4,4,0,1,0,-8,0zM651,318a4,4,0,1,0,8,0a4,4,0,1,0,-8,0zM671,319a4,4,0,1,0,8,0a4,4,0,1,0,-8,0zM690,319a4,4,0,1,0,8,0a4,4,0,1,0,-8,0zM710,319a4,4,0,1,0,8,0a4,4,0,1,0,-8,0zM729,319a4,4,0,1,0,8,0a4,4,0,1,0,-8,0zM749,319a4,4,0,1,0,8,0a4,4,0,1,0,-8,0zM768,319a4,4,0,1,0,8,0a4,4,0,1,0,-8,0z" style="stroke: black; fill: black;"></path>
      </g>
      <g>
       <path d="M0,319h117v-1h39v-4h20v-4h20v-6h19v-12h20v-30h19v-20h20v-25h19v-51h20v-41h19v-36h20v-46h19v-10h20v7h20v-1h19v46h20v37h19v51h20v46h19v18h20v33h19v21h20v14h20v3h19v4h20v4h19v2h39v1h98" style="stroke-linejoin: miter; stroke: red; stroke-width: 2; fill: none;"></path>
      </g>
      <g>
       <path d="M0,319h39v-1h20v-1h19v-1h20v-5h19v-5h20v-20h19v-8h20v-14h20v-34h19v-40h20v-2h19v-40h20v-1h19v-18h20v-9h19v40h20v17h19v40h20v31h20v9h19v25h20v13h19v11h20v5h19v4h20v1h19v2h20v1h215" style="stroke-linejoin: miter; stroke: blue; stroke-width: 2; stroke-dasharray: 3,3; fill: none;"></path>
      </g>
      <g>
       <path d="M0,316h20M10,315v1M20,315h20M30,314v1M39,314h20M49,314v1M59,314h20M69,314v1M78,313h20M88,312v1M98,312h20M108,312v0M117,311h20M127,310v1M137,310h20M147,309v1M156,308h20M166,308v1M176,306h20M186,306v1M196,303h20M206,302v1M215,300h20M225,300v1M235,297h20M245,296v1M254,289h20M264,289v1M274,279h20M284,278v2M293,262h20M303,261v3M313,244h20M323,243v3M332,210h20M342,209v3M352,154h20M362,152v4M371,90h20M381,88v5M391,42h20M401,40v5M411,75h20M421,72v5M430,142h20M440,140v4M450,199h20M460,197v3M469,236h20M479,235v2M489,263h20M499,262v2M508,276h20M518,275v2M528,287h20M538,286v2M547,293h20M557,292v2M567,300h20M577,300v1M587,303h20M597,303v1M606,305h20M616,305v1M626,308h20M636,307v1M645,310h20M655,309v1M665,310h20M675,310v1M684,312h20M694,312v1M704,312h20M714,312v0M723,314h20M733,313v1M743,315h20M753,314v1M762,315h20M772,315v0" style="stroke: #59d454; stroke-width: 2; stroke-dasharray: 3,3;"></path>
      </g>
     </svg>
     <g>
      <g transform="translate(0,336)">
       <path d="M0,0h782M0,-10V0M20,-5V0M39,-5V0M59,-5V0M78,-10V0M98,-5V0M117,-5V0M137,-5V0M156,-10V0M176,-5V0M196,-5V0M215,-5V0M235,-10V0M254,-5V0M274,-5V0M293,-5V0M313,-10V0M332,-5V0M352,-5V0M371,-5V0M391,-10V0M411,-5V0M430,-5V0M450,-5V0M469,-10V0M489,-5V0M508,-5V0M528,-5V0M547,-10V0M567,-5V0M587,-5V0M606,-5V0M626,-10V0M645,-5V0M665,-5V0M684,-5V0M704,-10V0M723,-5V0M743,-5V0M762,-5V0M782,-10V0" style="stroke: black; stroke-width: 1;"></path>
       <g font-family="Arial" font-size="17" space="preserve" font-weight="bold" fill="black" text-anchor="middle">
        <text dy=".8em" transform="translate(0,2)">
         -10
        </text>
        <text dy=".8em" transform="translate(78,2)">
         -8
        </text>
        <text dy=".8em" transform="translate(156,2)">
         -6
        </text>
        <text dy=".8em" transform="translate(235,2)">
         -4
        </text>
        <text dy=".8em" transform="translate(313,2)">
         -2
        </text>
        <text dy=".8em" transform="translate(391,2)">
         0
        </text>
        <text dy=".8em" transform="translate(469,2)">
         2
        </text>
        <text dy=".8em" transform="translate(547,2)">
         4
        </text>
        <text dy=".8em" transform="translate(626,2)">
         6
        </text>
        <text dy=".8em" transform="translate(704,2)">
         8
        </text>
        <text dy=".8em" transform="translate(782,2)">
         10
        </text>
       </g>
       <g font-family="Arial" font-size="17" space="preserve" font-weight="bold" transform="translate(782,34)">
        <text fill="black" text-anchor="end" dy=".4em">
         x variable
        </text>
       </g>
      </g>
      <g>
       <path d="M0,0v336M12,334H0M23,319H0M12,305H0M12,291H0M12,276H0M23,262H0M12,248H0M12,233H0M12,219H0M23,204H0M12,190H0M12,176H0M12,161H0M23,147H0M12,133H0M12,118H0M12,104H0M23,90H0M12,75H0M12,61H0M12,47H0M23,32H0M12,18H0M12,3H0" style="stroke: black; stroke-width: 1;"></path>
       <g font-family="Arial" font-size="17" space="preserve" font-weight="bold" fill="black" text-anchor="end">
        <text dy=".4em" transform="translate(-3,319)">
         0
        </text>
        <text dy=".4em" transform="translate(-3,262)">
         200
        </text>
        <text dy=".4em" transform="translate(-3,204)">
         400
        </text>
        <text dy=".4em" transform="translate(-3,147)">
         600
        </text>
        <text dy=".4em" transform="translate(-3,90)">
         800
        </text>
        <text dy=".4em" transform="translate(-3,32)">
         1000
        </text>
       </g>
       <g font-family="Arial" font-size="17" space="preserve" font-weight="bold" transform="translate(-82)">
        <text fill="black" text-anchor="end" dy=".4em" transform="rotate(270)">
         Events
        </text>
       </g>
      </g>
     </g>
    </g>
    <g transform="translate(98,2)" font-family="Arial" font-size="21" space="preserve">
     <text fill="black" text-anchor="middle" dy=".8em" transform="translate(391)">
      Unfolding toy example with TSVDUnfold
     </text>
    </g>
    <g transform="translate(567,50)" font-family="Arial" font-size="22" space="preserve" font-weight="bold">
     <path d="M46,18a4,4,0,1,0,8,0a4,4,0,1,0,-8,0z" style="stroke: black; fill: black;"></path>
     <text fill="black" text-anchor="start" dy=".4em" transform="translate(100,18)">
      Unfolded Data
     </text>
     <path d="M12,45H88" style="stroke: red; stroke-width: 2;"></path>
     <text fill="black" text-anchor="start" dy=".4em" transform="translate(100,46)">
      True Data
     </text>
     <path d="M12,73H88" style="stroke: blue; stroke-width: 2; stroke-dasharray: 3,3;"></path>
     <text fill="black" text-anchor="start" dy=".4em" transform="translate(100,73)">
      Reconstructed Data
     </text>
     <path d="M12,100H88" style="stroke: #59d454; stroke-width: 2; stroke-dasharray: 3,3;"></path>
     <text fill="black" text-anchor="start" dy=".4em" transform="translate(100,101)">
      True MC
     </text>
    </g>
   </g>
  </svg>
  <svg viewBox="0 0 978 420" preserveAspectRatio="none" x="10" y="446" width="978" height="420">
   <path d="M0,0H978V420H0Z" style="fill: white;"></path>
  </svg>
  <svg viewBox="0 0 469 412" preserveAspectRatio="none" x="20" y="450" width="469" height="412">
   <path d="M0,0H469V412H0Z" style="fill: white;"></path>
   <g>
    <g transform="translate(47,41)">
     <path d="M0,0H352V330H0Z" style="fill: white; stroke: black; stroke-width: 1;"></path>
     <svg x="0" y="0" overflow="hidden" width="352" height="330" viewBox="0 0 352 330">
      <g>
       <path fill="#263ea8" d="M167,140h9v9h-9zm9,-8h9v17h-9zm18,25h8v16h-8zm8,0h9v8h-9z"></path>
       <path fill="#1652cd" d="M114,173h9v9h-9zm9,-16h9v16h-9zm9,0h9v16h-9zm9,8h9v8h-9zm17,-25h9v9h-9zm0,75h9v8h-9zm9,-83h9v8h-9zm0,17h9v8h-9zm0,41h9v25h-9zm9,-66h9v8h-9zm0,74h9v17h-9zm9,-99h9v41h-9zm0,66h9v8h-9zm9,-66h8v17h-8zm0,74h8v9h-8zm8,-24h9v8h-9zm0,16h9v8h-9zm9,-16h9v16h-9zm9,0h9v8h-9zm9,-9h9v17h-9zm9,0h8v17h-8z"></path>
       <path fill="#1064dc" d="M0,0h9v330h-9zM9,0h9v330h-9zm9,0h8v330h-8zm8,0h9v330h-9zm9,0h9v330h-9zm9,0h9v330h-9zm9,0h9v330h-9zm9,0h8v330h-8zm8,0h9v330h-9zm9,0h9v330h-9zm9,0h9v231h-9zm0,239h9v91h-9zM97,0h9v215h-9zm0,248h9v82h-9zM106,0h8v198h-8zm0,239h8v91h-8zM114,0h9v173h-9zm0,182h9v8h-9zm0,57h9v91h-9zM123,0h9v140h-9zm0,149h9v8h-9zm0,24h9v9h-9zm0,58h9v99h-9zM132,0h9v149h-9zm0,173h9v9h-9zm0,58h9v99h-9zM141,0h9v149h-9zm0,157h9v8h-9zm0,66h9v107h-9zM150,0h8v149h-8zm0,157h8v16h-8zm0,58h8v115h-8zM158,0h9v140h-9zm0,149h9v16h-9zm0,49h9v17h-9zm0,25h9v107h-9zM167,0h9v99h-9zm0,124h9v8h-9zm0,58h9v8h-9zm0,33h9v115h-9zM176,0h9v107h-9zm0,173h9v25h-9zm0,42h9v115h-9zM185,0h9v99h-9zm0,173h9v9h-9zm0,33h9v124h-9zM194,0h8v99h-8zm0,116h8v8h-8zm0,66h8v24h-8zm0,33h8v115h-8zM202,0h9v116h-9zm0,173h9v157h-9zM211,0h9v107h-9zm0,165h9v165h-9zM220,0h9v99h-9zm0,140h9v9h-9zm0,33h9v157h-9zM229,0h9v91h-9zm0,132h9v8h-9zm0,41h9v157h-9zM238,0h8v91h-8zm0,124h8v16h-8zm0,33h8v8h-8zm0,16h8v157h-8zM246,0h9v91h-9zm0,116h9v214h-9zM255,0h9v330h-9zm9,0h9v330h-9zm9,0h9v330h-9zm9,0h8v330h-8zm8,0h9v330h-9zm9,0h9v330h-9zm9,0h9v330h-9zm9,0h9v330h-9zm9,0h8v330h-8zm8,0h9v330h-9zm9,0h9v330h-9z"></path>
       <path fill="#1272d9" d="M88,231h9v8h-9zm9,-16h9v33h-9zm9,-17h8v41h-8zm8,-8h9v8h-9zm0,33h9v16h-9zm9,-83h9v9h-9zm0,42h9v8h-9zm0,41h9v8h-9zm9,-74h9v8h-9zm0,74h9v8h-9zm9,-8h9v8h-9zm9,-9h8v9h-8zM167,99h9v25h-9zm9,8h9v17h-9zm9,91h9v8h-9zm9,-74h8v8h-8zm0,82h8v9h-8zm17,-99h9v9h-9zm0,33h9v9h-9zm9,-41h9v8h-9zm0,58h9v16h-9zm9,-66h9v16h-9zm0,33h9v8h-9zm0,33h9v16h-9zm9,-66h8v33h-8zm0,74h8v8h-8zm8,-74h9v25h-9z"></path>
       <path fill="#1481d6" d="M114,198h9v25h-9zm9,-8h9v8h-9zm0,25h9v8h-9zm9,0h9v8h-9zm9,-66h9v8h-9zm0,24h9v9h-9zm0,33h9v9h-9zm9,-57h8v8h-8zm8,41h9v8h-9zm27,-8h9v16h-9zm17,-66h9v8h-9zm18,-9h9v9h-9zm0,25h9v8h-9zm9,-25h9v17h-9z"></path>
       <path fill="#0e8fd1" d="M123,198h9v17h-9zm9,-16h9v8h-9zm0,24h9v9h-9zm18,-8h8v8h-8zm61,-82h9v8h-9zm9,0h9v16h-9z"></path>
       <path fill="#099dcc" d="M202,124h9v8h-9zm9,8h9v8h-9z"></path>
       <path fill="#0da7c3" d="M132,190h9v16h-9zm9,8h9v8h-9zm17,-33h9v8h-9zm9,8h9v9h-9zm27,-41h8v8h-8zm8,8h9v9h-9zm9,-16h9v8h-9z"></path>
       <path fill="#1eafb3" d="M141,182h9v8h-9zm9,-9h8v9h-8zm0,17h8v8h-8zm8,-8h9v8h-9zm9,-25h9v8h-9zm9,8h9v8h-9zm9,-25h9v9h-9zm9,9h8v8h-8z"></path>
       <path fill="#2eb7a4" d="M141,190h9v8h-9zm35,-41h9v8h-9zm9,8h9v8h-9zm17,-25h9v8h-9z"></path>
       <path fill="#52ba92" d="M150,182h8v8h-8z"></path>
       <path fill="#95be71" d="M158,173h9v9h-9zm36,-33h8v9h-8z"></path>
       <path fill="#d1bb59" d="M167,165h9v8h-9z"></path>
       <path fill="#fdd22b" d="M185,149h9v8h-9z"></path>
       <path fill="#f9f90f" d="M176,157h9v8h-9z"></path>
      </g>
      <g>
       <path fill="#263ea8" d="M167,140h9v9h-9zm9,-8h9v17h-9zm18,25h8v16h-8zm8,0h9v8h-9z"></path>
       <path fill="#1652cd" d="M114,173h9v9h-9zm9,-16h9v16h-9zm9,0h9v16h-9zm9,8h9v8h-9zm17,-25h9v9h-9zm0,75h9v8h-9zm9,-83h9v8h-9zm0,17h9v8h-9zm0,41h9v25h-9zm9,-66h9v8h-9zm0,74h9v17h-9zm9,-99h9v41h-9zm0,66h9v8h-9zm9,-66h8v17h-8zm0,74h8v9h-8zm8,-24h9v8h-9zm0,16h9v8h-9zm9,-16h9v16h-9zm9,0h9v8h-9zm9,-9h9v17h-9zm9,0h8v17h-8z"></path>
       <path fill="#1064dc" d="M0,0h9v330h-9zM9,0h9v330h-9zm9,0h8v330h-8zm8,0h9v330h-9zm9,0h9v330h-9zm9,0h9v330h-9zm9,0h9v330h-9zm9,0h8v330h-8zm8,0h9v330h-9zm9,0h9v330h-9zm9,0h9v231h-9zm0,239h9v91h-9zM97,0h9v215h-9zm0,248h9v82h-9zM106,0h8v198h-8zm0,239h8v91h-8zM114,0h9v173h-9zm0,182h9v8h-9zm0,57h9v91h-9zM123,0h9v140h-9zm0,149h9v8h-9zm0,24h9v9h-9zm0,58h9v99h-9zM132,0h9v149h-9zm0,173h9v9h-9zm0,58h9v99h-9zM141,0h9v149h-9zm0,157h9v8h-9zm0,66h9v107h-9zM150,0h8v149h-8zm0,157h8v16h-8zm0,58h8v115h-8zM158,0h9v140h-9zm0,149h9v16h-9zm0,49h9v17h-9zm0,25h9v107h-9zM167,0h9v99h-9zm0,124h9v8h-9zm0,58h9v8h-9zm0,33h9v115h-9zM176,0h9v107h-9zm0,173h9v25h-9zm0,42h9v115h-9zM185,0h9v99h-9zm0,173h9v9h-9zm0,33h9v124h-9zM194,0h8v99h-8zm0,116h8v8h-8zm0,66h8v24h-8zm0,33h8v115h-8zM202,0h9v116h-9zm0,173h9v157h-9zM211,0h9v107h-9zm0,165h9v165h-9zM220,0h9v99h-9zm0,140h9v9h-9zm0,33h9v157h-9zM229,0h9v91h-9zm0,132h9v8h-9zm0,41h9v157h-9zM238,0h8v91h-8zm0,124h8v16h-8zm0,33h8v8h-8zm0,16h8v157h-8zM246,0h9v91h-9zm0,116h9v214h-9zM255,0h9v330h-9zm9,0h9v330h-9zm9,0h9v330h-9zm9,0h8v330h-8zm8,0h9v330h-9zm9,0h9v330h-9zm9,0h9v330h-9zm9,0h9v330h-9zm9,0h8v330h-8zm8,0h9v330h-9zm9,0h9v330h-9z"></path>
       <path fill="#1272d9" d="M88,231h9v8h-9zm9,-16h9v33h-9zm9,-17h8v41h-8zm8,-8h9v8h-9zm0,33h9v16h-9zm9,-83h9v9h-9zm0,42h9v8h-9zm0,41h9v8h-9zm9,-74h9v8h-9zm0,74h9v8h-9zm9,-8h9v8h-9zm9,-9h8v9h-8zM167,99h9v25h-9zm9,8h9v17h-9zm9,91h9v8h-9zm9,-74h8v8h-8zm0,82h8v9h-8zm17,-99h9v9h-9zm0,33h9v9h-9zm9,-41h9v8h-9zm0,58h9v16h-9zm9,-66h9v16h-9zm0,33h9v8h-9zm0,33h9v16h-9zm9,-66h8v33h-8zm0,74h8v8h-8zm8,-74h9v25h-9z"></path>
       <path fill="#1481d6" d="M114,198h9v25h-9zm9,-8h9v8h-9zm0,25h9v8h-9zm9,0h9v8h-9zm9,-66h9v8h-9zm0,24h9v9h-9zm0,33h9v9h-9zm9,-57h8v8h-8zm8,41h9v8h-9zm27,-8h9v16h-9zm17,-66h9v8h-9zm18,-9h9v9h-9zm0,25h9v8h-9zm9,-25h9v17h-9z"></path>
       <path fill="#0e8fd1" d="M123,198h9v17h-9zm9,-16h9v8h-9zm0,24h9v9h-9zm18,-8h8v8h-8zm61,-82h9v8h-9zm9,0h9v16h-9z"></path>
       <path fill="#099dcc" d="M202,124h9v8h-9zm9,8h9v8h-9z"></path>
       <path fill="#0da7c3" d="M132,190h9v16h-9zm9,8h9v8h-9zm17,-33h9v8h-9zm9,8h9v9h-9zm27,-41h8v8h-8zm8,8h9v9h-9zm9,-16h9v8h-9z"></path>
       <path fill="#1eafb3" d="M141,182h9v8h-9zm9,-9h8v9h-8zm0,17h8v8h-8zm8,-8h9v8h-9zm9,-25h9v8h-9zm9,8h9v8h-9zm9,-25h9v9h-9zm9,9h8v8h-8z"></path>
       <path fill="#2eb7a4" d="M141,190h9v8h-9zm35,-41h9v8h-9zm9,8h9v8h-9zm17,-25h9v8h-9z"></path>
       <path fill="#52ba92" d="M150,182h8v8h-8z"></path>
       <path fill="#95be71" d="M158,173h9v9h-9zm36,-33h8v9h-8z"></path>
       <path fill="#d1bb59" d="M167,165h9v8h-9z"></path>
       <path fill="#fdd22b" d="M185,149h9v8h-9z"></path>
       <path fill="#f9f90f" d="M176,157h9v8h-9z"></path>
      </g>
     </svg>
     <g>
      <g transform="translate(0,330)">
       <path d="M0,0h352M0,-9V0M9,-5V0M18,-5V0M26,-5V0M35,-9V0M44,-5V0M53,-5V0M62,-5V0M70,-9V0M79,-5V0M88,-5V0M97,-5V0M106,-9V0M114,-5V0M123,-5V0M132,-5V0M141,-9V0M150,-5V0M158,-5V0M167,-5V0M176,-9V0M185,-5V0M194,-5V0M202,-5V0M211,-9V0M220,-5V0M229,-5V0M238,-5V0M246,-9V0M255,-5V0M264,-5V0M273,-5V0M282,-9V0M290,-5V0M299,-5V0M308,-5V0M317,-9V0M326,-5V0M334,-5V0M343,-5V0M352,-9V0" style="stroke: black; stroke-width: 1;"></path>
       <g font-family="Arial" font-size="16" space="preserve" font-weight="bold" fill="black" text-anchor="middle">
        <text dy=".8em" transform="translate(0,2)">
         -10
        </text>
        <text dy=".8em" transform="translate(35,2)">
         -8
        </text>
        <text dy=".8em" transform="translate(70,2)">
         -6
        </text>
        <text dy=".8em" transform="translate(106,2)">
         -4
        </text>
        <text dy=".8em" transform="translate(141,2)">
         -2
        </text>
        <text dy=".8em" transform="translate(176,2)">
         0
        </text>
        <text dy=".8em" transform="translate(211,2)">
         2
        </text>
        <text dy=".8em" transform="translate(246,2)">
         4
        </text>
        <text dy=".8em" transform="translate(282,2)">
         6
        </text>
        <text dy=".8em" transform="translate(317,2)">
         8
        </text>
        <text dy=".8em" transform="translate(352,2)">
         10
        </text>
       </g>
       <g font-family="Arial" font-size="16" space="preserve" font-weight="bold" transform="translate(352,32)">
        <text fill="black" text-anchor="end" dy=".4em">
         x variable
        </text>
       </g>
      </g>
      <g>
       <path d="M0,0v330M11,330H0M6,322H0M6,314H0M6,305H0M11,297H0M6,289H0M6,281H0M6,272H0M11,264H0M6,256H0M6,248H0M6,239H0M11,231H0M6,223H0M6,215H0M6,206H0M11,198H0M6,190H0M6,182H0M6,173H0M11,165H0M6,157H0M6,148H0M6,140H0M11,132H0M6,124H0M6,115H0M6,107H0M11,99H0M6,91H0M6,83H0M6,74H0M11,66H0M6,58H0M6,50H0M6,41H0M11,33H0M6,25H0M6,17H0M6,8H0M11,0H0" style="stroke: black; stroke-width: 1;"></path>
       <g font-family="Arial" font-size="16" space="preserve" font-weight="bold" fill="black" text-anchor="end">
        <text dy=".4em" transform="translate(-3,330)">
         -10
        </text>
        <text dy=".4em" transform="translate(-3,297)">
         -8
        </text>
        <text dy=".4em" transform="translate(-3,264)">
         -6
        </text>
        <text dy=".4em" transform="translate(-3,231)">
         -4
        </text>
        <text dy=".4em" transform="translate(-3,198)">
         -2
        </text>
        <text dy=".4em" transform="translate(-3,165)">
         0
        </text>
        <text dy=".4em" transform="translate(-3,132)">
         2
        </text>
        <text dy=".4em" transform="translate(-3,99)">
         4
        </text>
        <text dy=".4em" transform="translate(-3,66)">
         6
        </text>
        <text dy=".4em" transform="translate(-3,33)">
         8
        </text>
        <text dy=".4em" transform="translate(-3)">
         10
        </text>
       </g>
       <g font-family="Arial" font-size="16" space="preserve" font-weight="bold" transform="translate(-38)">
        <text fill="black" text-anchor="end" dy=".4em" transform="rotate(270)">
         x variable
        </text>
       </g>
      </g>
     </g>
    </g>
    <g transform="translate(59,2)" font-family="Arial" font-size="18" space="preserve">
     <text fill="black" text-anchor="middle" dy=".8em" transform="translate(176)">
      TSVDUnfold covariance matrix
     </text>
    </g>
    <g transform="translate(401,41)">
     <path d="M0,0H19V330H0Z" style="fill: none; stroke: black; stroke-width: 1;"></path>
     <path d="M0,314H19V330H0Z" style="fill: #1652cd;"></path>
     <path d="M0,297H19V315H0Z" style="fill: #1652cd;"></path>
     <path d="M0,281H19V298H0Z" style="fill: #1064dc;"></path>
     <path d="M0,264H19V282H0Z" style="fill: #1272d9;"></path>
     <path d="M0,248H19V265H0Z" style="fill: #1481d6;"></path>
     <path d="M0,231H19V249H0Z" style="fill: #0e8fd1;"></path>
     <path d="M0,215H19V232H0Z" style="fill: #099dcc;"></path>
     <path d="M0,198H19V216H0Z" style="fill: #0da7c3;"></path>
     <path d="M0,182H19V199H0Z" style="fill: #1eafb3;"></path>
     <path d="M0,165H19V183H0Z" style="fill: #2eb7a4;"></path>
     <path d="M0,148H19V166H0Z" style="fill: #52ba92;"></path>
     <path d="M0,132H19V149H0Z" style="fill: #74bd81;"></path>
     <path d="M0,115H19V133H0Z" style="fill: #95be71;"></path>
     <path d="M0,99H19V116H0Z" style="fill: #b3bd65;"></path>
     <path d="M0,82H19V100H0Z" style="fill: #d1bb59;"></path>
     <path d="M0,66H19V83H0Z" style="fill: #e2c04b;"></path>
     <path d="M0,49H19V67H0Z" style="fill: #f4c63b;"></path>
     <path d="M0,33H19V50H0Z" style="fill: #fdd22b;"></path>
     <path d="M0,17H19V34H0Z" style="fill: #fbe61d;"></path>
     <path d="M0,0H19V18H0Z" style="fill: #f9f90f;"></path>
     <g transform="translate(19)">
      <path d="M0,0v330M0,289H-11M0,240H-11M0,192H-11M0,143H-11M0,94H-11M0,46H-11" style="stroke: black; stroke-width: 1;"></path>
      <g font-family="Arial" font-size="16" space="preserve" font-weight="bold" fill="black" text-anchor="start">
       <text dy=".4em" transform="translate(3,289)">
        0
       </text>
       <text dy=".4em" transform="translate(3,240)">
        200
       </text>
       <text dy=".4em" transform="translate(3,192)">
        400
       </text>
       <text dy=".4em" transform="translate(3,143)">
        600
       </text>
       <text dy=".4em" transform="translate(3,94)">
        800
       </text>
       <text dy=".4em" transform="translate(3,46)">
        1000
       </text>
      </g>
     </g>
    </g>
   </g>
  </svg>
  <svg viewBox="0 0 469 412" preserveAspectRatio="none" x="509" y="450" width="469" height="412">
   <path d="M0,0H469V412H0Z" style="fill: white;"></path>
   <g>
    <g transform="translate(47,41)">
     <path d="M0,0H375V330H0Z" style="fill: white; stroke: black; stroke-width: 1;"></path>
     <svg x="0" y="0" overflow="hidden" width="375" height="330" viewBox="0 0 375 330">
      <g>
       <path d="M0,18h9v26h10v-6h9v89h10v-62h9v-11h9v26h10v-14h9v26h9v42h19v-14h10v37h9v98h9v-108h10v10h9v-30h9v23h10v3h9v12h10v-49h9v12h9v-11h10v67h9v-73h9v71h10v-61h9v39h10v-28h9v23h9v-34h10v214h84" style="stroke-linejoin: miter; stroke: black; stroke-width: 1; fill: none;"></path>
      </g>
      <g>
       <path d="M0,18h9v26h10v-6h9v89h10v-62h9v-11h9v26h10v-14h9v26h9v42h19v-14h10v37h9v98h9v-108h10v10h9v-30h9v23h10v3h9v12h10v-49h9v12h9v-11h10v67h9v-73h9v71h10v-61h9v39h10v-28h9v23h9v-34h10v214h84" style="stroke-linejoin: miter; stroke: black; stroke-width: 2; fill: none;"></path>
      </g>
     </svg>
     <g>
      <g transform="translate(0,330)">
       <path d="M0,0h375M0,-10V0M9,-5V0M19,-5V0M28,-5V0M38,-5V0M47,-10V0M56,-5V0M66,-5V0M75,-5V0M84,-5V0M94,-10V0M103,-5V0M113,-5V0M122,-5V0M131,-5V0M141,-10V0M150,-5V0M159,-5V0M169,-5V0M178,-5V0M188,-10V0M197,-5V0M206,-5V0M216,-5V0M225,-5V0M234,-10V0M244,-5V0M253,-5V0M263,-5V0M272,-5V0M281,-10V0M291,-5V0M300,-5V0M309,-5V0M319,-5V0M328,-10V0M338,-5V0M347,-5V0M356,-5V0M366,-5V0M375,-10V0" style="stroke: black; stroke-width: 1;"></path>
       <g font-family="Arial" font-size="16" space="preserve" font-weight="bold" fill="black" text-anchor="middle">
        <text dy=".8em" transform="translate(0,2)">
         0
        </text>
        <text dy=".8em" transform="translate(47,2)">
         5
        </text>
        <text dy=".8em" transform="translate(94,2)">
         10
        </text>
        <text dy=".8em" transform="translate(141,2)">
         15
        </text>
        <text dy=".8em" transform="translate(188,2)">
         20
        </text>
        <text dy=".8em" transform="translate(234,2)">
         25
        </text>
        <text dy=".8em" transform="translate(281,2)">
         30
        </text>
        <text dy=".8em" transform="translate(328,2)">
         35
        </text>
        <text dy=".8em" transform="translate(375,2)">
         40
        </text>
       </g>
       <g font-family="Arial" font-size="16" space="preserve" font-weight="bold" transform="translate(375,32)">
        <text fill="black" text-anchor="end" dy=".4em">
         i
        </text>
       </g>
      </g>
      <g>
       <path d="M0,0v330M11,330H0M6,310H0M6,299H0M6,291H0M6,285H0M6,280H0M6,275H0M6,271H0M6,268H0M11,265H0M6,246H0M6,234H0M6,226H0M6,220H0M6,215H0M6,210H0M6,207H0M6,203H0M11,200H0M6,181H0M6,169H0M6,161H0M6,155H0M6,150H0M6,145H0M6,142H0M6,138H0M11,135H0M6,116H0M6,104H0M6,96H0M6,90H0M6,85H0M6,81H0M6,77H0M6,73H0M11,70H0M6,51H0M6,39H0M6,31H0M6,25H0M6,20H0M6,16H0M6,12H0M6,9H0M11,6H0" style="stroke: black; stroke-width: 1;"></path>
       <g font-family="Arial" font-size="16" space="preserve" font-weight="bold">
        <g transform="translate(-30,337)">
         <text fill="black">
          10
         </text>
         <text fill="black" font-size="10" transform="translate(18,-8)">
          -3
         </text>
        </g>
        <g transform="translate(-30,272)">
         <text fill="black">
          10
         </text>
         <text fill="black" font-size="10" transform="translate(18,-8)">
          -2
         </text>
        </g>
        <g transform="translate(-29,207)">
         <text fill="black">
          10
         </text>
         <text fill="black" font-size="10" transform="translate(18,-8)">
          -1
         </text>
        </g>
        <text fill="black" text-anchor="end" dy=".4em" transform="translate(-3,135)">
         1
        </text>
        <text fill="black" text-anchor="end" dy=".4em" transform="translate(-3,70)">
         10
        </text>
        <g transform="translate(-26,13)">
         <text fill="black">
          10
         </text>
         <text fill="black" font-size="10" transform="translate(18,-8)">
          2
         </text>
        </g>
       </g>
       <g font-family="Arial" font-size="16" space="preserve" font-weight="bold" transform="translate(-38)">
        <g transform="rotate(270) translate(-21,5)">
         <text fill="black">
          |d
         </text>
         <text fill="black" font-size="10" transform="translate(14,3)">
          i
         </text>
         <text fill="black" x="17">
          |
         </text>
        </g>
       </g>
      </g>
     </g>
    </g>
    <g transform="translate(47,2)" font-family="Arial" font-size="20" space="preserve">
     <g transform="translate(115,20) scale(0.888)">
      <text fill="black">
       TSVDUnfold |d
      </text>
      <text fill="black" font-size="14" transform="translate(154,5)">
       i
      </text>
      <text fill="black" x="157">
       |
      </text>
     </g>
    </g>
    <g>
     <path d="M47,176H422" style="stroke: black; stroke-width: 1; stroke-dasharray: 3,3;"></path>
    </g>
   </g>
  </svg>
 </g>
</svg>