<svg viewBox="0 0 1200 800" preserveAspectRatio="none" xmlns="http://www.w3.org/2000/svg" width="1200" height="800"><title>ROOT canvas</title><rect x="0" y="0" width="1200" height="800" style="fill: rgb(171,166,191);"></rect><g><g objname="TPave" objtype="TPaveLabel" transform="translate(48,22)" font-family="Times New Roman" font-size="25" space="preserve" font-weight="bold" font-style="italic"><path d="M1104,53 v-50 h3 v53 h-1104 v-3 Z" style="fill: black; stroke: black; stroke-width: 1px;"></path><path d="M0,0h1104v53h-1104z" style="fill: rgb(229,229,229); stroke: black; stroke-width: 1;"></path><text text-anchor="middle" x="0" y="0" fill="rgb(148,105,112)" transform="translate(552,28)" dominant-baseline="middle" opacity="1">Z-scaling of       Direct Photon Productions in pp Collisions at RHIC Energies</text></g><g objname="name" objtype="TLatex" font-family="Times New Roman" font-size="22" space="preserve" font-weight="bold" font-style="italic"><text text-anchor="start" x="0" y="0" fill="black" transform="translate(149,111)" dominant-baseline="middle">M.Tokarev, E.Potrebenikova </text></g><g objname="name" objtype="TLatex" font-family="Times New Roman" font-size="22" space="preserve" font-weight="bold" font-style="italic"><text text-anchor="start" x="0" y="0" fill="black" transform="translate(672,111)" dominant-baseline="middle">JINR preprint E2-98-64, Dubna, 1998 </text></g><g pad="pad1" transform="translate(24,136)"><rect x="0" y="0" width="552" height="648" style="fill: rgb(173,189,199);"></rect><g><g transform="translate(55,65)"><title></title><rect x="0" y="0" width="442" height="518" style="fill: rgb(242,242,242); stroke: black; stroke-width: 1;"></rect><svg x="0" y="0" overflow="hidden" width="442" height="518" viewBox="0 0 442 518"><g objname="Graph" objtype="TGraph"><path d="M130,61l38,60l28,48l21,44l17,41l14,40l13,42l11,45l10,48l9,55" style="stroke: rgb(125,153,209); stroke-width: 1; fill: none;"></path><path d="M126,56v9h9v-9zM164,116v9h9v-9zM191,165v9h9v-9zM212,208v9h9v-9zM229,249v9h9v-9zM244,290v9h9v-9zM256,332v9h9v-9zM267,376v9h9v-9zM277,425v9h9v-9zM286,480v9h9v-9z" style="stroke: blue; fill: blue;"></path></g><g objname="Graph" objtype="TGraph"><path d="M130,29l87,117l44,66l30,50l22,43l19,40l15,39l13,38l12,40l10,43" style="stroke: rgb(125,153,209); stroke-width: 1; fill: none;"></path><path d="M130.4,23.2l4.0,12.0l-10.0,-7.5h12.0l-10.0,7.5zM216.5,139.8l4.0,12.0l-10.0,-7.5h12.0l-10.0,7.5zM260.7,206.0l4.0,12.0l-10.0,-7.5h12.0l-10.0,7.5zM290.7,256.3l4.0,12.0l-10.0,-7.5h12.0l-10.0,7.5zM313.3,299.5l4.0,12.0l-10.0,-7.5h12.0l-10.0,7.5zM331.6,339.3l4.0,12.0l-10.0,-7.5h12.0l-10.0,7.5zM346.9,377.8l4.0,12.0l-10.0,-7.5h12.0l-10.0,7.5zM360.0,416.4l4.0,12.0l-10.0,-7.5h12.0l-10.0,7.5zM371.5,456.3l4.0,12.0l-10.0,-7.5h12.0l-10.0,7.5zM381.8,498.7l4.0,12.0l-10.0,-7.5h12.0l-10.0,7.5z" style="stroke: red; fill: red;"></path></g><g objname="Graph" objtype="TGraph"><path d="M130,12l118,152l51,70l33,48l24,38l19,33l16,29l14,28l12,26l10,26" style="stroke: rgb(125,153,209); stroke-width: 1; fill: none;"></path><path d="M126,12a4,4 0 1,0 9,0a4,4 0 1,0 -9,0zM244,164a4,4 0 1,0 9,0a4,4 0 1,0 -9,0zM294,234a4,4 0 1,0 9,0a4,4 0 1,0 -9,0zM327,282a4,4 0 1,0 9,0a4,4 0 1,0 -9,0zM351,320a4,4 0 1,0 9,0a4,4 0 1,0 -9,0zM371,353a4,4 0 1,0 9,0a4,4 0 1,0 -9,0zM387,382a4,4 0 1,0 9,0a4,4 0 1,0 -9,0zM400,410a4,4 0 1,0 9,0a4,4 0 1,0 -9,0zM412,436a4,4 0 1,0 9,0a4,4 0 1,0 -9,0zM423,462a4,4 0 1,0 9,0a4,4 0 1,0 -9,0z" style="stroke: magenta; fill: magenta;"></path></g><g objname="Graph" objtype="TGraph"><path d="M50,414" style="stroke: black; stroke-width: 1; fill: none;"></path><path d="M45,410v9h9v-9z" style="stroke: blue; fill: blue;"></path></g><g objname="Graph" objtype="TGraph"><path d="M50,451" style="stroke: black; stroke-width: 1; fill: none;"></path><path d="M49.9,444.6l4.0,12.0l-10.0,-7.5h12.0l-10.0,7.5z" style="stroke: red; fill: red;"></path></g><g objname="Graph" objtype="TGraph"><path d="M50,487" style="stroke: black; stroke-width: 1; fill: none;"></path><path d="M45,487a4,4 0 1,0 9,0a4,4 0 1,0 -9,0z" style="stroke: magenta; fill: magenta;"></path></g></svg><g><g transform="translate(0,518)"><path d="M0,-19v19m65,-10v10m38,-10v10m27,-10v10m21,-10v10m17,-10v10m15,-10v10m13,-10v10m11,-10v10m10,-19v19m65,-10v10m38,-10v10m27,-10v10m21,-10v10m17,-10v10m14,-10v10m13,-10v10m11,-10v10m10,-19v19" style="stroke: black; stroke-width: 1;"></path><g font-family="Arial" font-size="19" space="preserve"><text text-anchor="middle" x="0" y="0" fill="black" transform="translate(0,5)" dy=".8em">1</text><text text-anchor="middle" x="0" y="0" fill="black" transform="translate(217,5)" dy=".8em">10</text><text text-anchor="middle" x="0" y="0" fill="black" transform="translate(433,5)" dy=".8em">100</text></g></g><g><path d="M17,518h-17m17,-104h-17m17,-103h-17m17,-104h-17m17,-103h-17m17,-104h-17" style="stroke: black; stroke-width: 1;"></path><g font-family="Arial" font-size="19" space="preserve"><text text-anchor="end" x="0" y="0" fill="black" transform="translate(-3,518)" dominant-baseline="middle">10⁻¹⁸</text><text text-anchor="end" x="0" y="0" fill="black" transform="translate(-3,414)" dominant-baseline="middle">10⁻¹⁶</text><text text-anchor="end" x="0" y="0" fill="black" transform="translate(-3,311)" dominant-baseline="middle">10⁻¹⁴</text><text text-anchor="end" x="0" y="0" fill="black" transform="translate(-3,207)" dominant-baseline="middle">10⁻¹²</text><text text-anchor="end" x="0" y="0" fill="black" transform="translate(-3,104)" dominant-baseline="middle">10⁻¹⁰</text><text text-anchor="end" x="0" y="0" fill="black" transform="translate(-3,0)" dominant-baseline="middle">10⁻⁸</text></g></g></g></g><g objname="name" objtype="TLatex" font-family="Arial" font-size="40" space="preserve" font-weight="bold"><text text-anchor="start" x="0" y="0" fill="rgb(105,130,150)" transform="translate(331,97)" dominant-baseline="middle">p - p</text></g><g objname="name" objtype="TLatex" font-family="Arial" font-size="25" space="preserve" font-weight="bold"><text text-anchor="start" x="0" y="0" fill="rgb(105,130,150)" transform="translate(331,136)" dominant-baseline="middle">Direct γ</text></g><g objname="name" objtype="TLatex" font-family="Arial" font-size="25" space="preserve" font-weight="bold"><text text-anchor="start" x="0" y="0" fill="rgb(105,130,150)" transform="translate(331,162)" dominant-baseline="middle">θ = 90º</text></g><g objname="name" objtype="TLatex" font-family="Arial" font-size="25" space="preserve" font-weight="bold"><text text-anchor="start" x="0" y="0" fill="rgb(105,130,150)" transform="translate(110,356)" dominant-baseline="middle">Ed³σ/dq³</text></g><g objname="name" objtype="TLatex" font-family="Arial" font-size="25" space="preserve" font-weight="bold"><text text-anchor="start" x="0" y="0" fill="rgb(105,130,150)" transform="translate(99,389)" dominant-baseline="middle">(barn/Gev²)</text></g><g objname="name" objtype="TLatex" font-family="Arial" font-size="22" space="preserve" font-weight="bold"><text text-anchor="start" x="0" y="0" fill="blue" transform="translate(121,480)" dominant-baseline="middle">√s = 63(GeV)</text></g><g objname="name" objtype="TLatex" font-family="Arial" font-size="22" space="preserve" font-weight="bold"><text text-anchor="start" x="0" y="0" fill="red" transform="translate(121,515)" dominant-baseline="middle">√s = 200(GeV)</text></g><g objname="name" objtype="TLatex" font-family="Arial" font-size="22" space="preserve" font-weight="bold"><text text-anchor="start" x="0" y="0" fill="magenta" transform="translate(121,551)" dominant-baseline="middle">√s = 500(GeV)</text></g><g objname="name" objtype="TLatex" font-family="Arial" font-size="25" space="preserve" font-weight="bold"><text text-anchor="start" x="0" y="0" fill="black" transform="translate(331,609)" dominant-baseline="middle">qT (Gev/c)</text></g></g></g><g pad="pad2" transform="translate(624,136)"><rect x="0" y="0" width="552" height="648" style="fill: rgb(173,189,199);"></rect><g><g transform="translate(55,65)"><title></title><rect x="0" y="0" width="442" height="518" style="fill: rgb(242,242,242); stroke: black; stroke-width: 1;"></rect><svg x="0" y="0" overflow="hidden" width="442" height="518" viewBox="0 0 442 518"><g objname="Graph" objtype="TGraph"><path d="M63,25l78,119l39,60l29,44l25,38l22,33l21,32l20,31l20,30l19,30" style="stroke: rgb(89,84,217); stroke-width: 1; fill: none;"></path><path d="M62.7,19.1l4.0,12.0l-10.0,-7.5h12.0l-10.0,7.5zM140.7,138.0l4.0,12.0l-10.0,-7.5h12.0l-10.0,7.5zM179.8,197.7l4.0,12.0l-10.0,-7.5h12.0l-10.0,7.5zM208.9,242.0l4.0,12.0l-10.0,-7.5h12.0l-10.0,7.5zM233.5,279.5l4.0,12.0l-10.0,-7.5h12.0l-10.0,7.5zM255.7,313.4l4.0,12.0l-10.0,-7.5h12.0l-10.0,7.5zM276.6,345.1l4.0,12.0l-10.0,-7.5h12.0l-10.0,7.5zM296.7,375.8l4.0,12.0l-10.0,-7.5h12.0l-10.0,7.5zM316.6,406.1l4.0,12.0l-10.0,-7.5h12.0l-10.0,7.5zM336.4,436.3l4.0,12.0l-10.0,-7.5h12.0l-10.0,7.5z" style="stroke: rgb(212,89,84); fill: rgb(212,89,84);"></path></g></svg><g><g transform="translate(0,518)"><path d="M0,-19v19m38,-10v10m22,-10v10m16,-10v10m12,-10v10m11,-10v10m8,-10v10m7,-10v10m7,-10v10m6,-19v19m38,-10v10m22,-10v10m16,-10v10m12,-10v10m10,-10v10m9,-10v10m7,-10v10m6,-10v10m6,-19v19m38,-10v10m23,-10v10m15,-10v10m13,-10v10m10,-10v10m8,-10v10m8,-10v10m6,-10v10m6,-19v19m38,-10v10m22,-10v10" style="stroke: black; stroke-width: 1;"></path><g font-family="Arial" font-size="19" space="preserve"><text text-anchor="middle" x="0" y="0" fill="black" transform="translate(0,5)" dy=".8em">10⁰</text><text text-anchor="middle" x="0" y="0" fill="black" transform="translate(127,5)" dy=".8em">10¹</text><text text-anchor="middle" x="0" y="0" fill="black" transform="translate(253,5)" dy=".8em">10²</text><text text-anchor="middle" x="0" y="0" fill="black" transform="translate(380,5)" dy=".8em">10³</text></g></g><g><path d="M17,518h-17m17,-74h-17m17,-74h-17m17,-74h-17m17,-74h-17m17,-74h-17m17,-74h-17m17,-74h-17" style="stroke: black; stroke-width: 1;"></path><g font-family="Arial" font-size="19" space="preserve"><text text-anchor="end" x="0" y="0" fill="black" transform="translate(-3,518)" dominant-baseline="middle">10⁻²²</text><text text-anchor="end" x="0" y="0" fill="black" transform="translate(-3,444)" dominant-baseline="middle">10⁻²⁰</text><text text-anchor="end" x="0" y="0" fill="black" transform="translate(-3,370)" dominant-baseline="middle">10⁻¹⁸</text><text text-anchor="end" x="0" y="0" fill="black" transform="translate(-3,296)" dominant-baseline="middle">10⁻¹⁶</text><text text-anchor="end" x="0" y="0" fill="black" transform="translate(-3,222)" dominant-baseline="middle">10⁻¹⁴</text><text text-anchor="end" x="0" y="0" fill="black" transform="translate(-3,148)" dominant-baseline="middle">10⁻¹²</text><text text-anchor="end" x="0" y="0" fill="black" transform="translate(-3,74)" dominant-baseline="middle">10⁻¹⁰</text><text text-anchor="end" x="0" y="0" fill="black" transform="translate(-3,0)" dominant-baseline="middle">10⁻⁸</text></g></g></g></g><g objname="name" objtype="TLatex" font-family="Arial" font-size="40" space="preserve" font-weight="bold"><text text-anchor="start" x="0" y="0" fill="rgb(105,130,150)" transform="translate(331,97)" dominant-baseline="middle">p - p</text></g><g objname="name" objtype="TLatex" font-family="Arial" font-size="25" space="preserve" font-weight="bold"><text text-anchor="start" x="0" y="0" fill="rgb(105,130,150)" transform="translate(331,136)" dominant-baseline="middle">Direct γ</text></g><g objname="name" objtype="TLatex" font-family="Arial" font-size="25" space="preserve" font-weight="bold"><text text-anchor="start" x="0" y="0" fill="rgb(105,130,150)" transform="translate(331,162)" dominant-baseline="middle">θ = 90º</text></g><g objname="name" objtype="TLatex" font-family="Arial" font-size="25" space="preserve" font-weight="bold"><text text-anchor="start" x="0" y="0" fill="rgb(105,130,150)" transform="translate(386,292)" dominant-baseline="middle">H(z)</text></g><g objname="name" objtype="TLatex" font-family="Arial" font-size="25" space="preserve" font-weight="bold"><text text-anchor="start" x="0" y="0" fill="rgb(105,130,150)" transform="translate(375,324)" dominant-baseline="middle">(barn)</text></g><g objname="name" objtype="TLatex" font-family="Arial" font-size="22" space="preserve" font-weight="bold"><text text-anchor="start" x="0" y="0" fill="rgb(207,94,97)" transform="translate(110,454)" dominant-baseline="middle">√s, GeV</text></g><g objname="name" objtype="TLatex" font-family="Arial" font-size="22" space="preserve" font-weight="bold"><text text-anchor="start" x="0" y="0" fill="rgb(207,94,97)" transform="translate(121,480)" dominant-baseline="middle">63</text></g><g objname="name" objtype="TLatex" font-family="Arial" font-size="22" space="preserve" font-weight="bold"><text text-anchor="start" x="0" y="0" fill="rgb(207,94,97)" transform="translate(121,505)" dominant-baseline="middle">200</text></g><g objname="name" objtype="TLatex" font-family="Arial" font-size="22" space="preserve" font-weight="bold"><text text-anchor="start" x="0" y="0" fill="rgb(207,94,97)" transform="translate(121,531)" dominant-baseline="middle">500</text></g><g objname="name" objtype="TLatex" font-family="Arial" font-size="25" space="preserve" font-weight="bold"><text text-anchor="start" x="0" y="0" fill="black" transform="translate(486,609)" dominant-baseline="middle">z</text></g></g></g></g></svg>