<svg xmlns="http://www.w3.org/2000/svg" viewBox="0 0 596 372" preserveAspectRatio="none" width="596" height="372">
 <path d="M0,0H596V372H0Z" style="fill: white;"></path>
 <g>
  <g transform="translate(60,37)">
   <path d="M0,0H477V298H0Z" style="fill: white; stroke: black; stroke-width: 1;"></path>
   <svg x="0" y="0" overflow="hidden" width="477" height="298" viewBox="0 0 477 298">
    <g>
     <path style="fill: #263ea8; stroke: #000099; stroke-width: 1;" d="M399,120v-1v1zM400,116v1h1h-1v2h-1v2h1v2h1v4h1v2h1v-1v3v-1h-1h1h-1h1h-1h1v1h-1h1v1h-4l-1,-2v-13h1l1,-1zM400,118v1h-1h1v1l-1,1h1v1h1v1l1,1v2h1v3h1v4v-1h-1v-1h-1h1v-1h-1h1h-1h1h-1h1v1v-3v1h-1v-2h-1v-4h-1v-2h-1v-2h1v-1zM399,120v-1v1zM95,11h7v12h1v2h1v1h1v3l-1,1h2v1h2v2h1v1h1v1h1v1h-1h1v1h1v1v-1h1v2v-1h1v1v-1h1v2h-1h1v1h-1v6h1h-1v1h-1v1h1v1h-1v1h1v1h1l1,-1h1v-2h1v1h1v4h1v2h1v1h1h-1v2h1v1l1,-1v1h1v2l1,1v1h1v1v-2h3v1v-1v1v-1h1v-1l1,1v-1v1h1v-1v1v-1h1v1h1v-1h2v1v-3v1v-1h1v1h1v2h1v29h-44v-22h1v-4h-2v-4h1v-2h1v-1l1,-1v-1v1h-1l1,-1v-2h1v-3h1v-3l-1,-1h-1v-1h-1v-4h-1v-32zM439,74h-1h1zM440,71h-1h1zM439,71v1v-1zM439,71v1v-1zM440,71v1v-1zM439,72h1h-1zM439,72h1h-1zM439,73v-1v1zM439,73v-1v1zM458,62h1h-1h1h-1zM459,62h-1h1zM457,62h1v1h-1v-1zM458,63h1h-1zM458,64v-1v1zM456,64v-1v1zM448,64h1h-1zM451,65v-1v1zM450,66v-1h-1h1v1zM450,66h-1h1zM448,65v1v-2h1v1h-1v1v-1zM452,66v1l-1,-1h1zM452,67v-1h1v1h-1zM450,66h1v1v-1h-1zM450,66v1v-1zM452,67h-1h1zM449,67h-1h1h-1h1h-1h1zM450,68v-1v1zM452,68v-1v1h1h-1zM451,68v-1v1zM449,68v-1v1zM449,68h-1h1h-1v-1h1h-1h1v1zM450,68h1h-1v1v-1zM445,70v-1v1zM444,70v-1h1h-1l1,1h-1zM450,70h-1h1zM445,70h1h-1zM449,71v-1v1zM443,71v-1v1zM443,72v-1v1zM445,72v-1v1zM447,30v2h3l1,-1h1v-1h2v1h1v2h1v1h1v13h-1v1h1h-1v1h1h-1v1h1v-1v1h1v1h1v-1v5l1,1v-1h1v1h1v3h1h-1h1v1h-2h1l-1,1h-1h1h-1v1v-1h-1h1h-1h1v1h-1v-1l-1,1v-1v2v-1h-1v1v-1v1h-1v-1v1v-1v2h-1v-1v1v-1v2h-1v-1v1v-1v1v-2h-1h1h-1v1h1v1h-1v1h-1v-1v1v-2h-1v1v-1v2h-1v-1h-1v-1v1v-2v1v-1h-1v1h-1h1v2h-1v3h-1v1v-1h-1h1h-1v-1v1h-1h1h-1v2v-1v1v-1l-1,1v-1v1v-1v1v-1v1v-1h-1v2v-1v1h-1v-1v1l-1,-1v1v-1h1h-1h1h-1v1v-1h1v-1h-1v1v-1v1v-1v1h-1v1h-1v1v-1v1h1v1h-1l-1,1h1h-1v1h-1v1v-1v3h-1v-1v1h1h-2v-3h-1v-19l-1,-2v-1h1v-1v1h1v1v-2l1,-1v1h1v-1h-1v-1l1,-1h1v-2h1v-1h1v-1h-1v-1l1,-1h-1v-1h1v-2h1v-3l1,-1v-1h1l1,-1v-2h1v-1l1,-1v-1h1v-1h1v1v-1v1zM102,11h21l1,1h3l1,-1h19v1l1,-1h10l1,1h2l1,-1h2l1,1h13l1,-1h4l2,1h6v7l-1,4v34h-51v6h-1v-2h-1v-1h-1v1v-1v3v-1h-2v1h-1v-1h-1v1v-1v1h-1v-1v1l-1,-1v1h-1v1v-1v1v-1h-3v2v-1h-1v-1l-1,-1v-2h-1v-1l-1,1v-1h-1v-2h1h-1v-1h-1v-2h-1v-4h-1v-1h-1v2h-1l-1,1h-1v-1h-1v-1h1v-1h-1v-1h1v-1h1h-1v-6h1v-1h-1h1v-2h-1v1v-1h-1v1v-2h-1v1v-1h-1v-1h-1h1v-1h-1v-1h-1v-1h-1v-2h-2v-1h-2l1,-1v-3h-1v-1h-1v-2h-1v-12zM255,115h-50v-12h-15v-23h41v1h1l1,1h1v1h1v-1h6v1h2v1h1v1h1v1h2v1h-1v1h1v3h1v2h1v5h1v3h1h-1v2h1h-1h1v3h-1l1,1v2h1v-1v3h1v2h1v1l1,1zM432,54v1l1,2v19h1v3h1v2h-1v1h-2v1h-1v1h-4l-1,-1h-4v-6h1v-5h1v-2h1v-5h2v-1h1v-1h1v-2h-1v-1h1v-4h1v-2h2zM154,214v-65h44v57h-27h1v3h-12v5h-6zM191,12h43l1,-1h2v1v-1l1,1v-1l1,1v-1v1h2v6v-1v3v-1v2v-1v2h1v3l1,1v9h1v6l1,1v5h-30l-1,-1h-3l-1,1h-8l-1,-1h-8l-1,1h-2v-24l1,-4v-7zM427,98v-6h1l2,-1v3h1v1v-1v1h-1v-1v1v-1v2v-1v3h-1h1v1h-1v-1v1h-2h1h-1v1h-1h1v-2zM431,94v2v-1v1v-2zM432,97v1h-1h1h-1v-3h1v2zM431,96h-1h1h-1h1zM430,98v-1v1zM430,98h1v-2v2h-1zM429,101h-1h1v-1v1zM231,80h-41v-33h2l1,-1h8l1,1h8l1,-1h3l1,1h30v2h-1l-1,1v1h1v2h2v21h-1v1l1,1v1h-1v1h1v3h-1h1l-1,1v2h1v2h-1v-1h-1v-1h-1v-1h-2v-1h-6v1h-1v-1h-1l-1,-1h-1v-1zM429,57v3h-1v1h1v2h-1v1h-1v1h-2v5h-1v2h-1v5h-1v6h-6v-10h-1v1v-2h1v-1h-1h1v-1h-1v-3h1v-5h-1v-1h1v-4h13zM363,107v11h8v6v-1h1v-1h1v-1h2v-1h1v-1v1h3h-1v-1h1h-1h2v-1h1v1h2h-1h1v1h-1h1v1v-1v1l1,1h-1h1h-1h1v1h-1v2v-1h-1v-1h-1v-1h-1l-1,-1v3h-1h1l-1,1v1h-1h1h-1v1v-1v1h-1v1l-1,1v-1h-1v2h-1v2h-1v1h-1v-1h-1v-1h-1v3h-1v2h-1v2h-1v1h-1v4h-1v1h-2v1h-1v-1v1h-1h1h-1v1h-3v-1v1h-1v1h-2v-1h-1v-2h-1v-1h1h-2v-1h-1v-2h-1v-2h-1h1h-1v-2h-1h1v-3h2v-2h1v-4l1,-1h1v2v-1h1v-4h1v-1h1v-1v1h2v-1h1v-1h1v-1h1v-4l1,-1v-3h1h-1v-1h1v-1h-1v-1h1v-1zM148,57h42v46h-51v-46h9z"></path>
     <path style="fill: #1652cd; stroke: #000099; stroke-width: 1;" d="M285,195h-21v-7h-2l-1,1v-2v1v-24l-1,-1v-8h33v1h-1h1v2h-1v1l-1,1h5v2h-1h1v1h-2v1h1v1h-1v1h-1l1,1h-1v-1v1h-1v1h1v-1v4v-1h-1v2v-1h-1v1h1v1h-1v1h-1v1h-1v4h-1v1h-1v2h-1h1v1h-1v1h-1h1v2h-1v2h-1l1,1v3l1,1h-1v2zM427,98v1h-1v1l-1,-1v1v-1v1v-1v1v-1l-1,1v-1v1v-1v1h-6v1h-1h1h-1h1h-1v1v-1v1h-2h1h-1v1v-1v1v-1v1v-1v1h-2v-1l1,-1h1l-1,-1v-4l1,-1v-4h5v1v-1h7v7zM245,74h27v1v-1h13v2h1v2h-1v4h1v2h2l1,1v2h1v1l1,1v1h1v1l1,1h-1l1,1h-1v1h-1v3h-2v1h-3v4h1v2h-1v2h-1v1h-1v1h-1v1h1h-1v1h1h-2v-2h-31v-1l-1,-1h1v-3h-1h1h-1v-2h1h-1v-3h-1v-5h-1v-2h-1v-3h-1v-1h1v-1h-1v-2h-1v-2l1,-1h-1h1v-3h-1v-1h1v-1l-1,-1v-1zM260,125v24h-55v-34h50v1h2v1h1v1h-1v1h-1v1v-1v1l1,1v1h1v2h2v1zM305,225v1l-1,-1h1h-1h1h-3h1h-1v-1h-1v1l1,-1v1h-2l-1,1v-1v1v-1h-1l1,1h-1v1h-1h1h-2v-3l-1,-1v-5h1h-14v-3h-1h1v-2v1h1v-1h-1v-1h1v-3h1v-1h1v-2h1h-1v-1v1h1v-2v1h-1v-1h1v-1h1v-1h-1v-1h-1v-1h1v1v-2h-1v-1h1h-1v-2h1v-1h-1v-2h1l-1,-1v-3l-1,-1h1v-2h1v-2h-1h1v-1h1v-1h-1h1v-2h1v-1h1v-4h1v-1h1v-1h1v-1h-1h16v12l-1,1v12l-1,2v26zM113,172l-3,-3l-1,-2l-11,-13l-11,-13l-14,-15v-34h44v67h-1v1h-1v-1h-3v3h1h-1v3h1h-1h1v1h-1l1,1v5zM221,177h-1v-22h-22v-6h62v14l1,1v24h-1v-1v1v-1h-1v-1h-1h1h-2v-1v1v-1h-1v-1v1v-1h-1v1v-1v1h-2v-1h-1v1h-4v1h-1v1v-1h-1v-1h-1v-1l-1,1h-1v-1h-1v2h-1h1h-1v1v-3h-1v1h-1v-1h-1v1v-1h-2v1h-1v-2h-1v-1h-2v1h-1v-1h-3v-1h-2v-2h-1v-1v1h-3v-1h-1v-1zM47,43h-1h1zM46,43h1h-1zM47,44h-1h1v-1v1zM47,44v-1v1zM48,43v1h3v1h1v1h1v4h2v1h2l1,-1h2v-1h4v1h3l1,-1h4v-1h3v-1h5v-1h16v1h1v1h1l1,1v3h-1v3h-1v2l-1,1h1v-1v1l-1,1v1h-1v2h-1v4h2v4h-1v22h-38v-1l-2,1h-4l-1,-1v1h-8v-1h-1v-8h-1v-2h1v-5h1v-3h1v-1h-1h1v-9l1,-1v-1h-1h1v-1h-1h1h-1h1v-7h1l-1,-1v-2h1h-1v-4h1v-1h-1v-2v1v-1v1h1l1,-1v1h1v-1h1zM130,92h9v11h15v46h-37v-57h13z"></path>
     <path style="fill: #1064dc; stroke: #000099; stroke-width: 1;" d="M308,221v-1h1v1h-1zM308,222v-1h1h-1h1h-1h1h-1v1zM309,222v-1v1zM308,222v-1v1zM308,224v-1v1zM306,225h-1h1zM306,226v-1v1zM307,226h1h-1zM306,227v-1h2h-1v1h-1zM303,226v1h1h-1v-1zM307,227h1h-1zM329,195v2v-1v3h1h-1h1v4h1v1h-1v3h-1v2l1,1v5h-1h1v3h-19v2h1v1h1v2h-1v1h1h-1v2h-1v-1v1h1h-1l-1,1h-2l1,-1v1v-1v1l1,-1v-1h-1h1h-1v-5h-1v1v-1v1v-1v1v-1v1v-1v3h-1v-1h1h-1v1h1l-1,1h1h-1v2v-1v1v-1v1v-1h-2v-26l1,-2v-12l1,-1v-12h19v5l1,1v7h1v8l1,1v1zM154,103h51v46h-51v-46zM331,126v-1h1v-1v1h2v1h1v1h1v2h3v1h4v1v-1v1h1v-1h1v-1h1v2h1v1h1v4h-1h1v2h1h-1h1v2h1v2h1v1h1v1h-1v1h-1v1h-1l-1,1h-1v2h-1v1l-1,1h-1v1h-2v1h-2v1h-9v-1h-23v2h-10v-1h1v-1h1v-6h1v-1l1,1h1l1,1h1v-4h3v-1h-1v-2h1v-1h1v-2v1h2h-1h1v1v-2v1h1v-1h1v1h1v1h1v-1l1,-1h1v1h2v-1v1v-2h1v-1h-1h2h-1v-1l1,1v1h1v1h1v-1l1,-1h-1h1v-2h1v1v-2h1v-1h1v-3h2v1v-1h2v-1v1v-1h1h-1h1v-1h-1v-1zM280,233v1v-1v1v-1v1h1v1h-2v-2h1zM285,195h1v1h-1v2h1h-1v1h1v2v-1h-1v1h1v1h1v1h-1v1h-1v1h1v-1v2h-1v-1v1h1h-1v2h-1v1h-1v3h-1v1h1v1h-1v-1v2h-1h1v3h14h-1v5l1,1v3h-1v-1h-2v-1h-1l-1,1v1h-1v1h1v1h3v-2v1h1v-1v2v-2h1l-1,1h1h-1v2h1h-1l1,1h1v-2h1h-1h1h-1h1h-1v1h1v1v-1v2v-1h-1v1v-1v1v-1h1l-1,1h1h-2v1h1h-1h1h-1h1h-1v1v-1h-1v1h1h-1h1v1h1v1v-1v1v-1v1h1v1h2v1v-1v2v-1v1v-1h1v1h-1h1h-1h1h-1h1l-1,1v-1v1v-1v2v-1h-1v-1v1l-1,1h1h-1v1v-3v1v-1l-1,-1h-1v-1v1v-1h-1v-2v1v-1v1h-1h1v-1l-1,1v-1v1v-1h-1h1h-1v-1v1h-1v-1v1h1v1v-1v1v-1v1v-1v3v-1v1v-1h-1h1v1h1h-1v1h-1v1v-1h-1h1h-1h1v-1v1v-1h-1h1h-1v-1v1v-1v1v-1v1v-1h-1v1v-1h-1v2h-2v-1h1v-1v1h-1v-1h-1v1v-1v1h1h-1h1h-1v1l-1,-1v-1h1v1v-1h-1v-1h-1v-2h1h-1v-1v2h-1v-2v2v-1v1h-1v-2v1v-1h-1v1v-1h1v-1h-2v1v-2h-1v1h-2l1,1v1h1v-1v1h-1h1h-2v1l-1,-1h-3v-1h-1l-1,-1h1h-3v-1h1v-2h-1v-1v2v-1v2h-1h1v1h-3v1h-1v-2h1v-4h1v-1h-1v-4v1v-1h1h-1h1h-1h1v-3h1v-1h-1h1v-1h-1h1v-1h-1v-3v1v-1h-1v-2h-1h1v-2h-1v-2h-1v-12h21zM283,235v-1v1zM284,236v-1v1zM284,237v-1h1l-1,1h1v1h-1v-1zM285,238v-1v1zM290,237h-1h1zM293,238v-1v1zM289,238h1h-1zM290,238h-1h1zM286,238h1h-1v1v-1zM288,238h-1h1zM287,239h-1v-1h1v1zM287,238h-1h1zM290,238h1h-1zM289,239v-1v1zM287,239v-1v1v-1v1zM289,239v-1v1zM289,238v1v-1zM288,239h1h-1zM288,239h1h-1zM291,240v-1v1zM287,239h1h-1zM287,240v-1v1zM288,240v-1v1zM289,239v1v-1zM288,240v-1v1zM288,239h-1v1v-1h1zM291,240v-1v1zM287,240h1h-1zM290,240h1h-1zM292,240h-1h1zM288,240h1h-1zM287,240h-1h1zM298,231v-1v1zM298,230v1v-1zM302,231v-1v1v-1v1zM299,231v-1v1zM298,231v-1v1zM298,231v-1h1v1h-1zM301,231h1h-1zM299,231h-1h1zM299,231h-1h1zM301,231v1v-1zM299,232h-1h1zM297,232v1v-1zM297,232l-1,1v-1h1zM297,233v-1v1zM298,233h-1h1h-1v-1h1v1v-1v1zM297,233v-1v1zM297,233v-1v1zM297,233v-1v1zM297,233v1v-1zM297,233h-1h1zM296,234h1h-1zM300,234v1v-1h1h-1zM296,235v-1v1zM296,235l1,-1v1h-1zM297,235v-1v1zM296,235h1h-1zM299,235h1h-1zM294,235v1v-1zM294,236v-1v1zM295,236h-1h1zM294,237v-1v1zM295,237v-1v1zM295,237v-1v1zM295,237v-1v1zM295,237v-1v1zM295,237v-1v1zM295,237v-1v1zM294,237h1h-1h1h-1zM300,227v-1v1zM302,227v-1v1zM296,227h1h-1zM297,227l-1,1v-1h1zM296,227v1v-1zM299,228v-1h1v1h-1zM297,228v-1v1zM296,228v-1v1zM296,227v1v-1v1v-1zM299,228v1v-1v1v-1v1h-1l1,-1zM296,229h-1v-1h1v1zM297,229v-1l1,1h-1zM299,229v-1v1h1v-1v1h-1zM302,229v3v-3zM298,230v-1v1zM299,229v1v-1zM299,230v-1v1zM298,230v-1v1zM299,230h1h-1zM294,235v1v-1v1h-1v-1h1zM293,236h1h-1zM293,236h1h-1zM293,236v1v-1zM294,236v1h-1h1h-1l1,-1zM294,238v-1v1zM294,238v-1v1zM396,138h-1v1h-1v-1h-1v-1h-1v-1h-2v-1h-1v-2h-1v1h-1v-3h1h-1v2h1v-1v1h1v-1h-1h1v2h1v1v-1v1h2v1v-1v1h1h-1h1v1v-1l1,1v-2h-1v-1h1h-1v-2h-1v-4v1v-1h1h-1v-1v1v-1v1h1v-1h-1h1h-1v-1v1v-1v1h1v-1h-1v-1v1h1v-1h-1h1v-1h-1v1v-2l1,1v-1v1v-2v1v-1v1v-1v1h1l-1,-1h1v1v-1h-1h1v1v-2h1l-1,1h1v-1h1h-1v-1v1v-1h2v-1v1h-1v1h1v-1v1h-1v1h-1h1h-1v1v-1v2h-1v1h1h-1h1v1v-2v1v-1v2v-1v2v-1h-1v1l-1,1h1v-2v1v-1v1v-1v1h1v1v-2v1h1h-1v1v-1v2v-1h1h-1h1l-1,1v-1h-1v2v-2v1v-1v1h1v1v-1v1v-1v1v-1h1h-1h1h-1h1v1l-1,-1v1v-1v1h1h-1h1h-1v1l1,-1v1v-1v1h-1v-1v1v-1h-1v1v-1v1h1h-1h1h-1h1v1v-1v1v-1v1h-1v1l1,1v-1v1h1h-1h1v1v-2v1h1h-1v1h1h-1h1v-2v2h1h-1h1h-1v1h1h-1v1h1v-1v1h-1h1h-1v1h2h-1v1h-1v-1h-1zM395,126h-1h1zM395,128v-1v1zM395,135v-1v1zM396,136v-1v1v-1v1zM396,137v-1v1zM396,137v-1v1zM396,138v-1v1v-1v1zM395,126h-1h1zM395,128v-1v1zM403,132v1h-1h1v1h-1h1v-1v2h-1v-1v2h-1v1l-1,1h-3v-1h1h-1h1v-1v1h-1v-1h1h-1v-1h1h-1h1h-1v-2v2h-1h1h-1v-1h1h-1v-1v2v-1h-1h1h-1v-1v1l-1,-1v-1h1v-1v1v-1v1v-1h-1h1h-1h1h-1v-1v1v-1h1v1v-1v1h1v-1v1v-1l-1,1v-1h1h-1h1h-1v-1v1v-1l1,1v-1h-1h1h-1h1h-1v1v-1v1v-1v1v-1h-1v-1v1v-1v2v-2h1v1l1,-1h-1h1h-1v1v-2v1v-1h1h-1v-1v2v-1h-1v-1v1v-1v1v-1v2h-1l1,-1v-1h1v1v-2v1v-2v1v-1v2v-1h-1h1h-1v-1h1v-2v1v-1h1h-1h1v-1h1v-1v1h-1v-1h1v-1v1h-2v1v-1v1h1h-1v1h-1l1,-1h-1v2v-1h-1h1v1v-1h-1l1,1h-1v-1v1v-1v1v-1v2v-1v1l-1,-1v2v-1h1v1h-1h1v1h-1v-1v1h1v1h-1v-1v1v-1v1h1h-1h1v1h-1v-1v1v-1v1h1h-1v1v-1v4h1v2h1h-1v1h1v2l-1,-1v1v-1h-1h1h-1v-1v1v-1h-2v-1v1v-1h-1v-2h-1h1v1h-1v-1v1h-1v-2h1v-1l1,-1v-2h-1v-1h-1v-1h-2v-1h1v-1h-2v-1h-1h1h-1h1l-1,-1v-1v1v-1h-1h1v-1h-1h1h-2v-1h-1v1h-2h1h-1v1h1h-3v-1v1h-1v1h-2v1h-1v1h-1v1v-6h27v12l1,2h4zM395,135v-1v1zM396,136v-1v1v-1v1zM396,137v-1v1zM396,137v-1v1zM402,137v-2h1v-1v1l-1,1v1zM396,138v-1v1v-1v1zM403,132v2v-2zM279,38l-1,-1h1v-1h1v-1h1v-1h1v-1h1v-1h1v-1h1v-1h1v-1h1v-1h1v-1h2v-1h2v-1h2v6h-6l-1,1l-1,1l-1,1l-1,1h-2l-1,1l-1,1l-1,1zM241,13v-1h-1h2l1,-1h1v1v-1l1,1l1,-1h2l1,1v-1v1l1,-1h3v1v-1h1l1,1h1v-5h1l1,1v2l1,1v3h1v1h3v1h3v1h2v-1h5v1h1v1h1v1l1,1h1v-1h2v1h1v1h1v1h4v-1h1l1,-1v1h1v1h6v3h-2v1h-2v1h-2v1h-1v1h-1v1h-1v1h-1v1h-1v1h-1v1h-1v1h-1v1h-1v1h-1l1,1h-1v-1v1h-1v7h-1v1h-1v1h-1v1h-1v1l-1,1v1h2v3h-1v7h1v1h2l1,1v1h2v1l1,1v1h1v1h1l1,1h1v4h1v1h-1h1h-13v1v-1h-26v-21h-2v-2h-1v-1l1,-1h1v-7l-1,-1v-6h-1v-9l-1,-1v-3h-1v-2v1v-2v1v-3v1v-5zM252,109h-1v-1h31v2h1v2l-1,1h1v5h1v1h1v1h1v1l1,1h1v4h1v2h1v-2h1v1h1l1,1l-1,1v3h-1v4h1v1h1l1,1v1h2v2h1v3h1v1h-1v1h1h-1v1h1v2h1v-1v1h1v4h-1v1h-1v1h-1v-1v3v-1l-1,1h1v1h-1v1h1h-1v1h-5l1,-1v-1h1v-2h-1h1v-1h-33v-31h-2v-2h-1v-1l-1,-1v-1v1v-1h1v-1h1v-1h-1v-1h-2v-1l-1,-1v-1h-1v-2h-1v-3v1zM364,201v-1v1zM363,203v-1h1h-1h1v1h-1zM361,203v-1v1h1h-1zM372,192l1,-1v1h-1zM372,195v-1v1zM371,195v-1v1zM371,195l1,-1v1h-1zM371,195h1h-1zM370,196h-1h1zM359,170v1h1l1,1v2h8l1,1v1h1v1h1v1h1v2h1v1h1v1h1v2h1l1,1h-1l-1,1l-1,1l-1,1v1l-1,1v2v-1h-1v1h1v1h-1v1h-1v1l-1,-1v2v-1h-1v2v-1v1v-1v1h-1h1h-1v1v-1l-1,1h1v1h-2v1h-1v1h-1v-1v1v-1v1l-1,-1l1,1h-1v-1v3h-1v-1v1v-1h-1v-1v2h1v2h-1v-1v1v-1v1h-1v1v-1h-1v-1h-1v-1h1v-1h-1v-2h-1v-2h-1h1h-1h1h-1h1h-1v-4h-2v-2h-1v-3h-1v-1h-1v-1h-1v-2h-1v-1h-1v-1l-1,-1v-2h-1v-2h-2v-2h-2v-1h1v-2h1v-1h1v-1h3v-1h11zM290,35v-1h1h-1v1zM289,34h1h-1zM289,35v-1v1zM288,35v-1h1v1h-1zM287,35h-1h1v-1v1zM290,35h-1v1v-1h1zM288,35h1h-1zM289,36h-1h1zM288,37v-1h1v1h-1zM317,53v-1v1zM317,54h-1v-1h1v1zM316,54v-1v1zM313,56v-1v1zM279,38l1,-1l1,-1l1,-1h2l1,-1l1,-1l1,-1l1,-1h6v1h-1v2l-1,1v1l-1,2v1h-2v-1h-1v1h-1v-2h1v-2h-2v1h-2v1h-2l-1,1h-2zM289,34h1h-1zM290,35v-1h1h-1v1zM289,35v-1v1zM288,35h1v-1h-1v1zM287,35v-1v1h-1h1zM288,35h1h-1zM290,35h-1v1v-1h1zM289,36h-1h1zM288,37h1v-1h-1v1zM291,39v1h1v1h1v1h1l1,1h2l1,1h2l1,1h1v1h5v1h1h-1h1v1h-1h1v1h2v2h-1h1v1h-1v1h2v1h-1v2h1v2h-2v2h-1v3h1v-1l1,-1v-1h1v-1h1h-1h2h-1h1v3h-1v5h-1v2h-1v6l-1,1v6h1v4h-21v-1l-1,-1h-2v-2h-1v-4h1v-2h-1v-2h-1h1v-1h-1v-4h-1l-1,-1h-1v-1h-1v-1l-1,-1v-1h-2v-1l-1,-1h-2v-1h-1v-7h1v-3h-2v-1l1,-1v-1h1v-1h1v-1h1v-1h1v-7h1v-1v1h3l1,-1h2v-1h2v-1h2v2h-1v2h1v-1h1v1h2zM311,56l1,1l1,-2l1,-1v-1h1v-1h2l1,1h1l1,1l1,1l-1,1v1h-1v1l-1,1v1h-1v4h-1v4l-1,1v12h1v5h-6v-4h-1v-6l1,-1v-6h1v-2h1v-5h1v-3h-1h1h-2h1h-1v1h-1v1l-1,1v1h-1v-3h1v-2h2v-2zM317,54v-1h-1v1h1zM316,54v-1v1zM313,56v-1v1zM317,53v-1v1zM313,57v3l1,-1v-2h1v-2h1v-1h-1v1h-1v1v-1v2h-1zM313,57h1v-2v1v-1h1v-1h1v1h-1v2h-1v2l-1,1v-3z"></path>
     <path style="fill: #1272d9; stroke: #000099; stroke-width: 1;" d="M154,214h-15l-1,-1l-3,-1l-2,-1l-3,-1l-2,-2h-2l-2,-1l-1,-1l-5,-2l-2,-1h-1v-1h-1l-2,-1h-1l1,-1h-1h1h-1h1v-2h2v-3l-1,-1v1v-1h-1v-2h1h-1v-2h1v-1l1,-1h-1h1v-4h-1h1v-2h1v-1h1v-2h-1v-2h-1v-2h-1v-8l-1,-1h1v-1h-1h1h-1v-3h1h-1v-3h3v1h1v-1h1v-10h37v65zM312,95v-1h5v1h-1l-1,1h-3h1v-1h-1v1v-1zM317,94h15v31h-1v2h1v1h-1h1h-1v1v-1v1h-2v1v-1h-2v3h-1v1h-1v2v-1h-1v2h-1h1l-1,1v1h-1v-1h-1v-1l-1,-1v1h1h-2h1v1h-1v2v-1v1h-2v-1h-1l-1,1v1h-1v-1h-1v-1h-1v1h-1v-1v2v-1h-1h1h-2v-1v2h-1v-1v1v-3h1v-2h-1h1v-1h1v-2h1v-2h1v-2h-1h1v-2h-1v-4h1v-27v1v-1h1v1h-1h3l1,-1h1v-1zM433,98h1h-1zM437,98v1v-1zM437,98v1v-1zM436,99h-1v1l-1,-1h1h-1h1v-1h1v1v-1l1,1h-1h1h-1h1h-1zM434,98h1v-1v1h-1zM434,82v1l1,1h-1h2v1h-2v1h-1v1h1h-1v-1v1v-1v2v-1v2v-1v1h1h-1h1h-1h1v-1v1h1h-1h1v1l1,1h-1h1v1v-1h-1v1v-1v1h1h-1h1v2h1v1h2v-1h1v-2v1v-1v1v-2h-2h2v1l1,1v3h-1v1v-1h1h-1h1h-1v-1v1v-1v1v-1v1h-1v-1v1h-2v1h-1h1h-1v-1v1h-1l1,-1h-1h1h-1h1h-1h1v-1v1l-1,-1h1h-1h1v-1v1h-1v-1v1h1h-1v-1v1v-1v2h-1v-1h-1v1h1h-1v1v-1v2v-1h-1h1h-1h1h-1v-1v1v-2h-1h1h-1h1h-1v-1h-1v-3l-2,1h-1v-1h-7v1v-1h-5v-4l1,-1v-3h10l1,1h4v-1h1v-1h2zM440,99v1h1h-2h1v-1v1v-1zM297,156v-2v1h11v-2h23v1h22v-1h2v1h-1v1h1h-1v2v-1h-1v2h-1v1h-3v2h-1v-1h-1v1h-2l1,1h-1v1h-1v1h-2v1h-1v1v-1h-2v1h-1v1h-1l1,1h-1v1h-2v3h-44v-1h1v1v-2h1v1v-4v1h-1v-1h1v-1v1h1l-1,-1h1v-1h1v-1h-1v-1h2v-1h-1h1v-3h1h-1v-1h1v-1h-1l1,-1v1v-1zM51,11v1v-1zM53,14h-1h1zM54,16v-1h-1v-1h1v2zM52,16h-1h1h-1v-1h2v1h-1v-1v1zM54,16v-1v1zM50,16h1h-1v-1v1zM51,17h-1v-1h1v1h1h-1v1h1h-1v-1zM53,17v-1h1v1h-1zM52,17h-1v-1l1,1v-1h-1h1v1zM54,17v-1v1h1h-1zM53,17v-1v1zM53,18h-1v-2v1v-1v2h1h-1h1v-1v1zM54,17v1h1l-1,-1h1v2v-1h-1v-1zM54,17h-1h1zM54,18h-1h1zM56,22h-1v-1v1v-2h1h-1v1l1,1zM55,27v-1v2h-1v-1h1zM55,31v-3v1h1h-1h1v1h-1h1h-1v1v-1h1h-1v1zM53,31v-1v1zM52,33v-2h1h-1v1h1h-1v1zM54,32v-1v1zM53,32v-1v1zM54,32h-1h1zM52,33v-1v1zM54,33h-1v-1h1v1zM44,41h1h-1v-1v1zM55,23h-1v-2h-1v-2h1v-1v1h1v1h-2h1v1h1v2v-1h1v2h-1v-1zM52,22v-1v1zM53,22h1v1h-1v-1v1h1v-1h-1zM53,11h42v32h1v3h-16v1h-5v1h-3v1h-4l-1,1h-3v-1h-4v1h-2l-1,1h-2v-1h-2v-4h-1v-1h-1v-1h-3v-1h-2v-1v1h-2v-1v1h-1h1l-1,-1h1v-4v4v-1h1h-1h1l-1,-1h1v-1h-1h1h-1l1,-1h1h-1v-1v1h-1v-1v1h-1v-3v1h1h-1h1v-1h2h-2h1h-1v-1h-1v1v-3h-1v-3h-1h1h-1v-1h1h-1v-3h-1v-1h-1v-5v1v-2v1h2v1h2v1v-1v1h5v1h2v-1h1h-1h1v2v-1h1v1h1v-1h-1v-1h1v2h1v2h-1v2v-2h-1v2h-1v2h-1v2h1v-1h1v-1v1h-2h1v-2h1v-1h1v-1h1v-1h1v-1h-1h1v2h-1v2v-1v1v-1v1h1v3h-1h1h-1v1v-2l-1,1v-1v3v-3v1h-1v1h-1h1h-1v1h1v-1v1h-1v1v-1h1v1v-1h1v-1v1h1v-1h1v-1h1h-1h1v-3v1v-2h-1h2v2v-3v1h-1v-4h1v-1v1v-1h-1v-1h1h-1v-2h-1h1h-1v-3v1v-1h1h-1v-2h-1v1v-1h-1l1,-1h-1v-2z"></path>
     <path style="fill: #1481d6; stroke: #000099; stroke-width: 1;" d="M409,121h-1h1h-1h1zM408,122v-1v1v-1v1zM408,121v1v-1zM407,123v-1h1h-1v1zM409,120v-1h1v-2v1v-1v2h-1v1zM405,126v-1h1h-1v1zM405,126v-1v1zM404,127v-1h1l-1,1zM412,103v1h-1v3h-2v3h1v-1v1h1v-1v6h-1v2v-2v3h-1h1h-1h1h-1v2h-1h1h-1h1h-1v1h-1v1h1h-1v1h-1h1h-1h1h-1v2h-1v1v-1v2h-1v-3h-2v-1h-1v-1h-1v-2v1v-2h-1h1v-2h1v-1h2v-2h2v-1h1h-1v-2h-1v-1h-1v-2h-1v-2h1v-4h1v-1h1v-2h2v1l1,1h1l1,1l1,1h1zM404,127l1,-1h-1v1zM394,173h1h-1zM394,174v-1v1h-1v2l-1,1v-1h1v-2h1zM392,176v-1v1zM392,176h-1h1zM382,185h-1h1v-1v1zM397,154v2h1v3l1,1v2l1,1h-1v-3h-1v-3l-1,-1v-2zM397,154v1v-1zM398,157h-1h1zM397,157h1h-1zM398,161v-1h1v1h-1zM399,163v-1h-1v-1h1v2v-1v1zM394,168h-1h1zM398,170l1,-1h1v-6v6h-1l-1,1zM396,171h1v-1h1h-1v1h-1zM396,154h1v1h-1v-1v2h1h-1h1v2h1h-1l1,1v1v-1h-1v-1v1h-1v-2h-1v1h1v1h-2v1h-3v1h5v4v-3h1v-1h1v4h-1h1h-1v1h-1h1h-1v2h-2v-1v1v-1v1h-1h1h-1v-1v1v-1v1v-1v1v-1h-1h1h-1h1h-1h1h-1v-1v1v-1v2v-1h-3h1v1l1,-1v1h1v1v-1v1v-1h1v1h-1h1h-1v1v-1v2h-1h1h-1v1h-2v-1v1h1v1h1v-1h2v-1v1v-1v2v-1v1v-1h1h-1h1v1h-1v1v-1v2v-1h-1l1,1h-1h1h-1h1h-4v1v-1v1h-1h2v-1h1h-1v1h-3v1h-1v1h-1v1h-1v1l-1,1v1h-1v1v-1h1v-1v2h-1v1v-3v3h-1v1v-1h-2v1v-1v1h-1l-1,-1h-1v-2h-1v-1h-1v-1h-1v-2h-1v-1h-1v-1h-1v-1l-1,-1h-8v-2l-1,-1h-1v-1h-11v1h-3v1h-10v-3h2v-1h1l-1,-1h1v-1h1v-1h2v1v-1h1v-1h2v-1h1v-1h1l-1,-1h2v-1h1v1h1v-2h3v-1h1v-2h1v1v-2h1h-1v-1h42zM395,172h1v-1v1h-1zM395,173v-1v1zM402,137v1h-1v1v-1h1v-1zM401,137v1h-1v2v-1v2h-1v1h-1h1v1h-1v1v-1v2v-1h-1v4h-1v-3v1v-1h1h-1v-1h1h-1h1h-1h1v-1v1v-3l1,1v-1v1v-1h-1h1h-1h1h-1h1v-1v1v-1v1v-2v1h1v-1h-1v-1h2l1,-1zM400,139v-1l1,1h-1zM401,139h-1h1v-1v1zM396,140v-1v1zM399,142v-1v1zM399,142v1v-1zM398,143v1v-1zM394,144v-1v1zM399,144v-2v2zM398,144l1,-1v1h-1zM398,144h1h-1zM397,145v-1h1h-1l1,1h-1zM398,145v-1h1l-1,1zM398,145v1v-1v1v-1zM397,146v-1v1zM397,146h1h-1zM397,147v-1h1v1h-1zM397,147h1h-1zM397,147h1h-1zM397,147v-1v1zM397,148h-1h1zM397,154h-1v-1h1h-1h1v-1h-1h1v2zM396,154h1h-1zM396,154h1h-1zM397,154h-1h1zM361,144v1h1v-1h2v-1h1v-4h1v-1h1v-2h1v-2h1v-3h1v1h1v1h1v-1h1v-2h1v-2h1v1l1,-1v-1h1v-1v1v-1h1h-1h1v-1l1,-1h-1h1v-3l1,1h1v1h1v1h1v1v-2h1v-1v1h2v1h-1v1h2v1h1v1h1v2l-1,1v1v-1h-1h1h-1v4h1v-1h1v2h1v1h2v1h1v1h1v4h-1v-1v1h-1v-2h-1v-1l-1,-1v1h1v1h1v2h1l1,1h-1h1v2v-1v2v-1h-1v1h-1v-1h-1v-2h-1h1v2h1v1h1v1h1v2v-1v1h-1v-1h-1v-1h-1v-1v1h-1v-1h-1l1,1h1v2h2v1h1h-1h1v-1v1v-1v1h2v1l1,1v2v-2h-1h1v1h-1h1h-1v1h-41v-1h-2v1h-13v-1h2v-1h2v-1h1l1,-1v-1h1v-2h1l1,-1h1v-1h1v-1h1v-1h1h-1v1h1v2h1v1h2v-1h1v-1v1h3v-1h1h-1h1v-1z"></path>
     <path style="fill: #0e8fd1; stroke: #000099; stroke-width: 1;" d="M329,195v-1l-1,-1v-8h-1v-7l-1,-1v-5h18v1h-1v2h-1v1h2v2h2v2h1v2l1,1v1h1v1h1v2h1v1h1v1h1v3h1v2h2v4h1h-1h1h-1h1h-1h1v2h1v2h1v1h-1v1h1v1h1v1h1v1h-1v1h-1v2v-1h-1v1h1v1h-1v2h-1v1h1h-1v1h1h-1v1h-1v1v-1v1l1,-1v1l-1,1h1v1v-1v1h-1v2h-2v-1v1v-1h-2v5h-1v-2h-1h1h-2l-1,-1h-11l-1,-1h-5v-2h-1v-4h-1h1v-5l-1,-1v-2h1v-3h1v-1h-1v-4h-1h1h-1v-3v1v-2zM342,69v-1v1zM342,71v-1v1zM347,84l1,1h-1v-1zM348,85h-1h1zM348,85h-1h1zM348,85l-1,1l1,-1h-1h1zM344,90v1v-1zM343,92h1h-1zM306,20h-1h1zM303,21h1h-1zM305,34v-2v1h-1v-2h1v-1h1v-1h4v1h-1v1h-1l-1,1l-1,1h1h-1v1h-1v1v-1zM308,35h1h-1zM318,41v-2v1v-1v2zM317,40h1h-1zM327,48h-1h1zM327,49v-1h1h-1h1l-1,1zM326,51v-2h1h-1h1v1l-1,1zM325,49h1h-1zM318,51v-1v1zM325,52h-1h1zM324,53v-1v1zM304,21h1h-1h1h-1h1l-1,1h-1h1v1h-2v1h-1h1l-1,1h-2v-1h1h-1h1v-1h2v-1h1v-1h1h-1h1l-1,1l1,-1zM299,24v1v-1zM337,42h-1v-2h-1h2v1h-1v1h1zM337,43h-1v-1h1v1zM339,46h1v-1h1v2h-1h1h-1v-1v1h-1v-1v1v-1h-1h1zM339,45h1h-1zM335,46h-1h1v1v-1v1v-1h-1h1zM335,46h-1h1zM336,46h-1h1zM333,48v-1v1zM331,48v-1v1zM335,49h-1v-1h-1h2h-1h1v1zM343,55h-1h1zM348,85h-1v1l-1,1l-1,1h-1v5l-2,2h-1h1h-1l1,-1v1v-2h1h-1h1v-1v1v-2h1v-3h1l1,-1v-2h1h-1h1h-1v-1h2v1h1v-6l-1,-1v-7l-1,-1v-1h-1v-1h-1v1h-2v1h-1h1h-1v2h-1h1h-1v1h-1v1v-1h-2v-3v1v-2h2v-1h1v-2h1v-1h1v-6h-1v-3v1h1v-1h-1v-2h-1v-1h-2v-1h-2v-1l-1,-1h-2h1h-1v-1h-2v-1v1h-2h1l-1,1v1h-1l1,1l1,1h-2l-1,1l-1,1h1v2h-1h1h-1v3h-1v-1h1v-2v1h-1v1v-1v2v-3v1v-3l-1,1v2h-3v3h-1v4v-1v2h-1v2h-1v1h1v3h-1v2l1,1v3h1h-1h1v2v-1v2h1h-1v7l-1,1v1h-1v3h-1v1h-4v-1l1,-1v-6h1v-5h-1v-12l1,-1v-4h1v-4h1v-1l1,-1v-1h1v-1l1,-1l-1,-1l-1,-1h-1l-1,-1h-2v1h-1v1l-1,1l-1,2l-1,-1v-1h1v-1h1v-2l1,-1v-1h1v-2h1h-1v-1h1v3v-1h1v-2l1,1v-1h1v1h-1v2h1v-1h1v-1h1l-1,-1h1v-1h2l1,1h-1l1,-1h2v-1h3l1,1h1v1h1v1v-2h1v-1v1h3h-1h3v-1h-1v-1h-1v-3h-1v-1h-1v1h-1v-1h-1v1h-1v-1h-1v-1v1v-3h1h-3v1h-7v1h-1v1h-1v1h-1v-1h-1v1h-1v-1h-3v-1h-1v-1h-1v-2h-2v-1v1h-1v-1h-1v1h-1h1v-1h-1v1h-1h1h-1v1v-3h-1v-2h-1v1h-1v1h-1l-1,1v-1v1h-1v1h-2l-1,1v-1h-1v1l-1,1h-1l-1,1h-1v-1l1,-2v-1l1,-1v-2h1v-1l1,-1v-2l1,-1v-1l1,-2v-1h2l1,-1l1,-1h1l1,-1h2v-1v1h1l1,1h1l2,1l1,1h1l1,1l1,1h1l1,1l1,1h1l2,1l1,1l1,1h1l1,1l1,1h1l1,1l1,1h1l1,1h1v1l1,1v2l1,1l1,1v-1h3v4h1v1h2v-1l1,1l1,1h-1v2l1,1l2,1l1,1l1,1l1,1h1l1,2v4l1,1v7l1,1v7l-1,2v1l-1,1v6h-1zM335,46h-1h1v1v-1v1v-1h-1h1zM335,46h-1h1zM304,21l-1,1l1,-1h-1h1h-1v1h-1v1h-2v1h-1h1h-1v1h2l1,-1h-1h1v-1h2v-1h-1h1l1,-1h-1h1h-1h1h-1zM348,85h-1h1l-1,1l1,-1zM306,20h-1h1zM303,21h1h-1zM299,24v1v-1zM305,34v1v-1h1v-1h1h-1l1,-1l1,-1h1v-1h1v-1h-4v1h-1v1h-1v2h1v-1v2zM308,35h1h-1zM317,40h1h-1zM318,41v-2v1v-1v2zM337,42h-1v-1h1v-1h-2h1v2h1zM337,43v-1h-1v1h1zM339,45h1h-1zM339,46h-1h1v1v-1v1h1v-1v1h1h-1h1v-2h-1v1h-1zM336,46h-1h1zM331,48v-1v1zM333,48v-1v1zM327,48h-1h1zM327,49l1,-1h-1h1h-1v1zM335,49v-1h-1h1h-2h1v1h1zM325,49h1h-1zM318,51v-1v1zM326,51l1,-1v-1h-1h1h-1v2zM325,52h-1h1zM324,53v-1v1zM343,55h-1h1zM323,57v-2v1h-1h1v1zM344,57h-1h1zM342,69v-1v1zM342,71v-1v1zM347,84v1h1l-1,-1zM348,85h-1h1zM348,85h-1h1zM344,90v1v-1zM343,92h1h-1zM323,38h5v-1h3h-1v3v-1v1h1v1h1v-1h1v1h1v-1h1v1h1v3h1v1h1v1h-3h1h-3v-1v1h-1v2v-1h-1v-1h-1l-1,-1h-3v1h-2l-1,1h1l-1,-1h-2v1h-1l1,1h-1v1h-1v1h-1v-2h1v-1h-1v1l-1,-1v2h-1v1v-3h-1v1h1h-1v2h-1v1l-1,1v2h-1v1h-1v1h-1v-2h1v-1h-2v-1h1v-1h-1h1v-2h-2v-1h-1h1v-1h-1h1h-1v-1h-5v-1h-1l-1,-1h-2l-1,-1h-2l-1,-1h-1v-1h-1v-1h-1v-1h1l1,-1h1l1,-1v-1h1v1l1,-1h2v-1h1v-1v1l1,-1h1v-1h1v-1h1v2h1v3v-1h1h-1h1v-1h1v1h-1h1v-1h1v1h1v-1v1h2v2h1v1h1v1h3v1h1v-1h1v1h1v-1h1v-1h1v-1h2zM342,57v2h1v6h-1v1h-1v2h-1v1h-2v2v-1v3h2v1v-1h1v-1h1h-1h1v-2h1h-1h1v-1h2v-1h1v1h1v1l1,1v7l1,1v6h-1v-1h-2v1h1h-1h1h-1v2l-1,1h-1v3h-1v2v-1v1h-1h1h-1v2v-1l-1,1h1h-10v-1h-15h1v-1h1v-3h1v-1l1,-1v-7h1h-1v-2v1v-2h-1h1h-1v-3l-1,-1v-2h1v-3h-1v-1h1v-2h1v-2v1v-4h1v-3h3v-2l1,-1v3v-1v3v-2v1v-1h1v-1v2h-1v1h1v-3h1h-1h1v-2h-1l1,-1l1,-1h2l-1,-1l-1,-1h1v-1l1,-1h-1h2v-1v1h2v1h1h-1h2l1,1v1h2v1h2v1h1v2h1v1h-1v-1v1zM323,57v-1h-1h1v-1v2zM344,57h-1h1z"></path>
     <path style="fill: #099dcc; stroke: #000099; stroke-width: 1;" d="M312,95v-1h-1v-3h-1v-2l-1,-1h1v-2h6h-1v6l-1,1v1h-2v1zM289,86h21v2h-1l1,1v2h1v3h1v28h-1v4h1v2h-1h1v2h-1v2h-1v2h-1v1h-1h1v2h-1v3v-1v2h-1v2h1v1h-3v4h-1l-1,-1h-1l-1,-1v1h-1v2h-1v-1v1h-1v-2h-1v-1h1h-1v-1h1v-1h-1v-3h-1v-2h-2v-1l-1,-1h-1v-1h-1v-4h1v-3l1,-1l-1,-1h-1v-1h-1v2h-1v-2h-1v-4h-1l-1,-1v-1h-1v-1h-1v-1h-1v-5h-1l1,-1v-2h1h-1v-1h1h-1v-1h1v-1h1v-1h1v-2h1v-2h-1v-4h3v-1h2v-3h1v-1h1l-1,-1h1l-1,-1v-1h-1v-1l-1,-1v-1h-1v-1zM344,93h1l1,1l1,1h3l1,-1l1,-1h1l2,-1l1,-1l1,-1l1,-1h2l1,-1h2v4h-1v1h-2l-1,1h-2v1h-1v1l-1,1h-1v1v-1h-1v1v-1h-1l-1,1h-2v1h-1v-1h-1h1h-1h1h-3h1v-1v1v-1h1h-1h1h-1v-1v1h-1v-1h-2v-1h-2h1l2,-2zM346,95h1h-1zM347,98v-1v1zM346,95h1h-1zM347,98v-1v1zM363,92v16h-1v1h1v1h-1v1h1h-1v3l-1,1v4h-1v1h-1v1h-1v1h-2v-1v1h-1v1h-1v4h-1v1v-2h-1l-1,1v4h-1v2h-2v-1h-1v-1h-1v-2h-1v1h-1v1h-1v-1v1v-1h-4v-1h-3v-2h-1v-1h-1v-1h-2v-1v1v-30h11v1h2v1h1v-1v1h1h-1h1h-1v1v-1v1h-1h3h-1h1h-1h1v1h1v-1h2l1,-1h1v1v-1h1v1v-1h1l1,-1v-1h1v-1h2l1,-1h2v-1h1zM366,90v1h-2v1h-1v-4h3v-1h1l1,-1h1v3h-2v1h-1zM366,90h1v-1h2v3h33v1h1v4h1v1h2v1h-1v2h-1v1h-1v4h-1v2h1v2h1v1h1v2h1h-1v1h-2v2h-2v1h-1v-1l-1,1h-1v1h-35v-26h1v-1h2v-1z"></path>
     <path style="fill: #2eb7a4; stroke: #000099; stroke-width: 1;" d="M329,233h1l-1,1v-1zM362,287v1v-1zM362,288h-1h1zM361,289v-1v1zM361,289v-1v1zM360,290h-1h1h-1h1v-1v1zM356,290v-1v1zM357,290v-1v1zM357,289v1h-1v-1h1zM357,290v-1v1zM357,290h-1v-1v1h1zM357,291v-1v1v-1v1zM356,290v1v-1v1v-1zM355,291h1h-1v-1v1h1v-1h-1h1v1h-1zM357,291v-1v1zM356,290v1v-1zM354,290h1h-1zM358,291v-1v1zM357,291h-1v-1h1v1zM345,291h1h-1zM355,291v1h-1v-1h1zM351,291h1v1h-1v-1zM354,291v1v-1v1v-1zM354,292v-1v1zM333,232v-1v1zM344,239h1h-1zM345,239h-1h1h-1h1zM348,242h-1h1zM347,242v1v-1zM348,242l-1,1v-1v1v-1h1zM346,252v1v-1zM348,253h-1h1zM347,256v1v-1zM347,258v-1v1zM347,259h1v1v-1h-1zM350,266v1v-1zM351,268h-1v-1h1h-1v1h1zM351,269v-2v1h1v2h-1v-1h1h-1h1h-1zM351,267h-1h1zM351,268v-1v1zM351,268v-1v1zM352,268h-1h1zM351,269v-1v1zM351,270h1h-1v-1v1v-1v1v-1v1zM353,270h-1h1zM353,271v-1v1zM356,276h-1h1zM354,276h1v1h-1v-1zM366,277v-1v2v-1zM356,276v1v-1h-1h1zM356,277v-1v1zM356,277v-1v1zM355,276h1v1h-1v-1zM356,277h1h-1zM357,277v1v-1zM366,278v1v-1zM357,279h1h-1zM365,282v-1h1l-1,1zM365,282v1v-1zM365,283v-1v1zM359,283h-1h1zM359,284v-1h1v1h-1zM360,284v-1v1zM363,285h-1h1zM362,285v1v-1zM315,225l-1,1h-1h1v-1h5h-4zM326,228h-1h1zM312,221v-1h-1v-2h19v1h1v2h5l1,1h11l1,1h2h-1h1v2h1v-5h2v1v-1v1h2v2l1,1h-1h1v6l1,1v4h1v3h1v3h1v2h1v2h1v2h-1v1h1h-1v1h1h-1l1,1v3l1,1v3h1v3l1,1v3l1,1v5h-1v6v-1v3h-1v2l-1,1h1h-1h1v2h-1v1v-1v1h1h-1v-1h1v-1v2h-1v2h-1v1v-1h1h-1v-1h1v1v-2h-1l-1,1v-1v1h-1v-1v1h-2v-1h-1v-1h1v1h1h-1h1v-1v1v-1h-1v-1v1v-1h-1h1h-1v-1h1h-1h1h-1v-2h-1v-1v1v-2h-1v-1v1v-1h-2v-1v1h1h-1h1v-1h-1v-1v1v-3h-1h1h-1v-3v1h-1v-1h1v-2h1h-1v1v-1v2h-1v-5h-2h1v2h-1v-1v1v-1v1v-1l-1,-1v-3h-1v-1v1v-2h-1v-1h1h-1h1h-1h1v-1v1l-1,-1h1v1v-2h1h-1l1,-1v1v-3v1h-1v-2v1v-1h-1v1v-1v1h1v2l-1,1v-2h-1h1h-1h1v2v-1h-1v-3l1,-1h-1h1h-1h1h-1h1h-1v-1h1h-1h1v-5h1h-1v-1h1h-1h1h-1l1,-1h-1h1h-1l1,-1h-1h1h-1v-2h-1v-1v1v-1h1h-3v-2v1v-1v1v-1h-1h1l-1,-1v-1h-1v-2h-1v-2h-1v-1h-1v-1h-1v-1h-2v-1v2v-1h-1v1v-1v1v-1v2v-1h-1v1h1h-1h1h-2v1h-1v1h-2v1v-1v1h-2h1h-2v-2v1l1,1v-3h-1l-1,-1h1v1v-1h-1v-1h-1h1v1h1v-1v1v-1h-1v-1v1h-1v-1v1v-2h1v1v-1h-1h1h-1v1v-1h-1v1v-1h1v2v-1v1l-1,-1h-1v-1h-1v-1h-3h2v-1v1v-1v1h1v-1h-2v-1v1h-1v-1v1h-1h1h-1h1v1h-5h2v-1h1h-2v-1h1h-1h1l-1,-1v1h1h-1v1v-1h-1v2h-1h1h-1v1h-1h1h-1l1,-1h-1h1h-1h1v-1h-1v-1h1v-2h-1zM332,233v-1v1h-1v1h-1h1v-1h1zM362,287h1h-1z"></path>
     <path style="fill: #52ba92; stroke: #000099; stroke-width: 1;" d="M397,65h-1h1zM396,65v1h-1v-1h1zM393,68h1h-1zM395,69v-1v1zM375,81h-1v-1h1v1zM425,100h1h-1zM425,103v-1v1zM424,103h-1v-1v1v-1v1v-1h1h-1h1v1zM422,104v-1v1zM424,103h2v-1v1v-1h1v1h-2v1h-2h1h-1v1h-1h1h-1v-1h1v-1h1zM413,105h-1h1zM421,105h-1v1v-1v1v-1v1v-1v1v-1h-1v1h1h-3v1v-1v1v-1h-1v1h-2v1h-1v-1v1v-1v1v-1v1h-2h1h-1v-2h1v-1v1v-1v1l1,-1v1v-1h1h-1l1,-1h1h-1v1h1v-1v1v-1h1h-1h1h-1h1h-1h2v1v-2l1,1l-1,-1v1h1h-1h1v-1v1h2v-1h2v-1h1v-1h1v1h-1h1h-1v1h-1h1h-1v1h-1h1v1h-1zM412,106v-1v1zM411,106h1h-1zM421,105h1h-1l-1,1h1v-1zM419,106h1h-1zM410,107v1h1h-1v1h-1v-2h1zM419,106v1h-3h2l1,-1zM415,107v1v-1zM415,107v1v-1zM414,108v-1v1zM414,107v1v-1zM415,108h-1h1zM414,108h-1h1zM414,108h1v-1v1v-1h1h-1v1h-1zM404,57h2h-1v1v-1h-1v1v-1v1v-1zM404,57v1v-1h1h-1zM406,57h10v4h-1v1h1v5h-1v3h1v1h-1h1v1h-1v2v-1h1v13l-1,1v8l-1,1v4l1,1h-1l-1,1v1h1h-1v1v-1v1h-1v1h1h-1v-1v1h-1v2v-3h1v-1h-1l-1,-1l-1,-1h-1l-1,-1v-1h-1v-1h-2v-1h-1v-4h-1v-1h-33v-4h1v-1h1v-1h2v-1l1,-1l1,-1v-4h-1v-2h2v-1h7l1,1h1v1v-1h6v-1v1v-1l1,-1h1v-1h2v-3h-1v-1h1v-1h1h-1v-1h-1v1l1,-1v1h-1v-2h1v-1h1v-1h1v-1h1v-1v1v-2h1v-1h1v-1h1v-1v1v-1h1v-1h2v-1h1v1v-1h1zM404,57h1h-1v1v-1zM404,58v-1v1zM404,58h-2v1h-1v1v-1v1h-1v1h-1v1h-1v2v-1v1h-1v1h-1v1h-1v1h-1v2h1v-1l-1,1v-1h1v1h1h-1v1h-1v1h1v3h-2v1h-1l-1,1v1v-1v1h-6v1v-1h-1l-1,-1h-7v1h-2v2h1v4l-1,1l-1,1v1h-2v1h-1v1h-1v1v-3l1,-1l1,-1h1l1,-1l1,-1h1v-1h-1v-4l-1,-1v-1l1,-1h2l1,-1h14v-1l1,-1v-2l1,-1l1,-1v-1h1v-1h2v-1h1v-2h1v-1h1v-1h1v-1h1l1,-1h1zM396,65h-1v1h1v-1zM393,68h1h-1zM395,69v-1v1zM375,81v-1h-1v1h1z"></path>
     <path style="fill: #b3bd65; stroke: #000099; stroke-width: 1;" d="M256,240h-1h1zM246,248l1,-1v1h-1zM243,251h1h-1l1,-1h-1h2v-1h1v-1v1v-1h1h-1h1h-1v1h-1v1h-1v1h-1zM245,249v-1v1zM243,251v2h-1v1v-2h1h-1h1v-1zM241,253h1h-1zM242,254v-1v1zM241,254h1h-1zM239,264v-1v1zM239,265h-1h1zM239,265h-1h1zM240,266h-1h1zM239,271v-1v1zM241,271h-1h1zM257,237h1h-1zM257,238v-1v1zM257,238h1h-1zM221,177v1h1v1h3v-1v1h1v2h2v1h3v1h1v-1h2v1h1v2h1v-1h2v1v-1h1v1h1v-1h1v3v-1h1h-1h1v-2h1v1h1l1,-1v1h1v1h1v1v-1h1v-1h4v-1h1v1h2v-1v1v-1h1v1v-1v1h1v1v-1v1h2h-1h1v1h1v1v-1v1h1v-1v2l1,-1h2v19h1v2h1v2h-1h1v2h1v1v-1v3h1v1h-1h1v1h-1h1v1h-1v3h-1h1h-1h1h-1v1v-1v4h1v1h-1v2h-1v2h-1l1,1v1h-2v1h-1l-1,1h-1v1h-1v1h-1v-1h1v-1h2v-1v1h-1v-1h-1v1h-1v-1l1,1h-1h1v-3h-1v1h-1v1h-1h1v2v-1v1h1h-1h1v1v-1v1v-1v1h-1v1h-1v1v-1v1v-1h-1l1,1v1v-1h-1v1h1h-1v1v-1v1h-1v1v-1h1v1h-1v-1v1l-1,1h-1v1h-2v1h1v-1h1h-1v1h-1l-1,1h-1v1h-1v1v-1h1v-1h1v-1v1v-1h1h-2v1v-3v1v-1v2h-1l1,-1h-1v1v-1h-1v-1v1h1h-1v1h1h-1h1h-1h1h-1v1v-1v1v-1h-1v-1v2h1v1h-1h1v-1v1h1h-1v1h-1v1v-1v1v-1h-1v-1h-1h1v1v-1h-1v1h1v2h-1v1h-1h1v-2v1h-1h1h-1v1v-1h-1v2v-1h1v1l-1,1v1h-1h1h-2v1h1v3h-1h1h-1v2h-1v1v-1h1h-1h1v-1h-1v1h-1v-2h-1l1,1v2v-1v1v-1h-1h1l-1,1h3v1v-1v2v-1v1v-1v1h-1h1v1h-1v2h1v5h1h-1h1v2v-1v2h1v1v-4l-1,-1v-4h-1v-5h1v-1h-1h1v-4h1v1v-3h1h-1h1l-1,1v2h-1v4h-1v4h1v5l1,1v5h-2h1h-1v1h1h-1v-1v1v-1h-1v-1h-2v-1v1v-1h-1v1v-1v1v-1v1v-1v1v-1v1h-1v-1v1v-1h-1l-1,-1h-1v-1h-2v-1h-2v-1v1v-2h-1v-3l-1,-1v-1h-1v-1v1v-7h-1v-1h-1v-1h-1v-3h-1v-1l-1,-1l-1,-1v-2h-1h1v-1h-1v-1l-1,-1v-2l-1,-1h1h-1v-2h-1h1v-1h-1v-1h-1v-1h-1v-1h-1v-2h-1v-1h-1h1h-1v-1v1h-2v-1v1v-1l-1,1v-1v1v-1h-1v1h-1v-1h-1v1h-3v3l-1,1h1h-1v3h-1v1h-1v1h-1v-1v1v-1h-1v-1h-2v-1h-1v-1v1v-1h-2v-1h-1v-1h-1v-1v1v-1h-1v-3h-1v-5h-1v-2h-1v-2l-1,-1h-1v-1h-1v-1h-1v-1h-1v-2h-1v-1h-1v-1h-1v-1h-1v-1h-1v-2h-1v-1h-1v-3h-1h27v-51h22v22h1zM265,230v2v-2zM257,234v-1v1zM257,239v-1v1v-1h1v-1v1v-1h1h-1v1h-1v1h-1v1v-1h1z"></path>
     <path style="fill: #f9f90f; stroke: #000099; stroke-width: 1;" d="M71,183h-1h1v-1v1zM56,139h-1h1zM56,140v-1v1zM76,183h1h-1v1h-2v-2v1h2zM78,183h-1h1zM81,189l-1,1v-1h1zM84,189v1h1l1,1h-1v-1h-1v-1zM78,192h-1h1zM85,197h-1v-3v1v-1v1l1,1v1h1h-1zM42,92h8v-1l1,1h4l2,-1v1h16v34l14,15l11,13l11,13l1,2l3,3v3h1v2h1v2h1v2h-1v1h-1v2h-1h1v4h-1h1l-1,1v1h-1v2h1h-1v2h1v1v-1l1,1v3h-4l-16,2v-2v1v-2h-1l1,-1h-1v-3l-1,-1v-1h-1v-1h-1v-1h-1v-1h-1v-1h-1v-1h-1v1l-1,-1v-3h-4l-1,-1h-1v-2h-1v-1h-4v-1h-4v-1h-1v-4h-1h1v-3h-2v-3h-1v-1h-1v-1l-1,-1v-1h-1v-2h-1h1h-1v-1l-1,-1v-1h-1v-1h-1h1l-1,-1v-3l1,1v-4l-1,-1v1v-1v1h-1v-1h-1v-1h-1v-4h-1v-4h1v2h1v1h1v-2h-1v-1h-1h1v1v-1h-1l1,-1h-1v-1v1v-2h1v-1h-2v3h1h-1v1v-1h-1v-1v1h-1v-2h-2l1,1h-1v-1h1v-2h-1h1v-1h-1v-1h-1v-1h-1v-2h-1v-1h-1v-1l-1,-1v-4h-1h1h-1v-1h1h-1v-1h1l-1,-1h1v-2h-1v-2h-1v-2h-1v-1h-1v-1h-1v-4h1v-2l1,-1v-3v1v-2v1v-3l1,-1l-1,-1h1h-1v-2h-1v-2l1,-1v1v-1v1v-1h-1h1h-1zM72,183h1v1h1h-1v1h-1v-2z"></path>
    </g>
   </svg>
   <g>
    <g transform="translate(0,298)">
     <path d="M0,0h477M0,-11V0M15,-6V0M29,-6V0M44,-6V0M59,-6V0M73,-11V0M88,-6V0M103,-6V0M117,-6V0M132,-6V0M147,-11V0M161,-6V0M176,-6V0M191,-6V0M205,-6V0M220,-11V0M235,-6V0M250,-6V0M264,-6V0M279,-6V0M294,-11V0M308,-6V0M323,-6V0M338,-6V0M352,-6V0M367,-11V0M382,-6V0M396,-6V0M411,-6V0M426,-6V0M440,-11V0M455,-6V0M470,-6V0" style="stroke: black; stroke-width: 1;"></path>
     <g font-family="Arial" font-size="13" space="preserve" fill="black" text-anchor="middle">
      <text dy=".8em" transform="translate(0,1)">
       -130
      </text>
      <text dy=".8em" transform="translate(73,1)">
       -120
      </text>
      <text dy=".8em" transform="translate(147,1)">
       -110
      </text>
      <text dy=".8em" transform="translate(220,1)">
       -100
      </text>
      <text dy=".8em" transform="translate(294,1)">
       -90
      </text>
      <text dy=".8em" transform="translate(367,1)">
       -80
      </text>
      <text dy=".8em" transform="translate(440,1)">
       -70
      </text>
     </g>
    </g>
    <g>
     <path d="M0,0v298M9,298H0M18,287H0M9,275H0M9,264H0M9,252H0M9,241H0M18,229H0M9,218H0M9,206H0M9,195H0M9,183H0M18,172H0M9,160H0M9,149H0M9,138H0M9,126H0M18,115H0M9,103H0M9,92H0M9,80H0M9,69H0M18,57H0M9,46H0M9,34H0M9,23H0M9,11H0M18,0H0" style="stroke: black; stroke-width: 1;"></path>
     <g font-family="Arial" font-size="13" space="preserve" fill="black" text-anchor="end">
      <text dy=".4em" transform="translate(-2,287)">
       25
      </text>
      <text dy=".4em" transform="translate(-2,229)">
       30
      </text>
      <text dy=".4em" transform="translate(-2,172)">
       35
      </text>
      <text dy=".4em" transform="translate(-2,115)">
       40
      </text>
      <text dy=".4em" transform="translate(-2,57)">
       45
      </text>
      <text dy=".4em" transform="translate(-2)">
       50
      </text>
     </g>
    </g>
   </g>
  </g>
  <g transform="translate(539,37)">
   <path d="M0,0H27V298H0Z" style="fill: #f9f90f; stroke: black; stroke-width: 1;"></path>
   <path d="M0,283H27V298H0Z" style="fill: #1652cd;"></path>
   <path d="M0,268H27V284H0Z" style="fill: #1652cd;"></path>
   <path d="M0,253H27V269H0Z" style="fill: #1064dc;"></path>
   <path d="M0,238H27V254H0Z" style="fill: #1272d9;"></path>
   <path d="M0,224H27V239H0Z" style="fill: #1481d6;"></path>
   <path d="M0,209H27V225H0Z" style="fill: #0e8fd1;"></path>
   <path d="M0,194H27V210H0Z" style="fill: #099dcc;"></path>
   <path d="M0,179H27V195H0Z" style="fill: #0da7c3;"></path>
   <path d="M0,164H27V180H0Z" style="fill: #1eafb3;"></path>
   <path d="M0,149H27V165H0Z" style="fill: #2eb7a4;"></path>
   <path d="M0,134H27V150H0Z" style="fill: #52ba92;"></path>
   <path d="M0,119H27V135H0Z" style="fill: #74bd81;"></path>
   <path d="M0,104H27V120H0Z" style="fill: #95be71;"></path>
   <path d="M0,89H27V105H0Z" style="fill: #b3bd65;"></path>
   <path d="M0,75H27V90H0Z" style="fill: #d1bb59;"></path>
   <path d="M0,60H27V76H0Z" style="fill: #e2c04b;"></path>
   <path d="M0,45H27V61H0Z" style="fill: #f4c63b;"></path>
   <path d="M0,30H27V46H0Z" style="fill: #fdd22b;"></path>
   <path d="M0,15H27V31H0Z" style="fill: #fbe61d;"></path>
   <path d="M0,0H27V16H0Z" style="fill: #f9f90f;"></path>
   <g transform="translate(27)">
    <path d="M0,0v298M0,262H-15M0,221H-15M0,180H-15M0,139H-15M0,98H-15M0,57H-15M0,16H-15" style="stroke: black; stroke-width: 1;"></path>
    <g font-family="Arial" font-size="13" space="preserve">
     <text fill="black" text-anchor="start" dy=".4em" transform="translate(2,262)">
      5
     </text>
     <text fill="black" text-anchor="start" dy=".4em" transform="translate(2,221)">
      10
     </text>
     <text fill="black" text-anchor="start" dy=".4em" transform="translate(2,180)">
      15
     </text>
     <text fill="black" text-anchor="start" dy=".4em" transform="translate(2,139)">
      20
     </text>
     <text fill="black" text-anchor="start" dy=".4em" transform="translate(2,98)">
      25
     </text>
     <text fill="black" text-anchor="start" dy=".4em" transform="translate(2,57)">
      30
     </text>
     <text fill="black" text-anchor="start" dy=".4em" transform="translate(2,16)">
      35
     </text>
     <g transform="translate(-30,-6)">
      <text fill="black" font-size="13">
       ×10
      </text>
      <text fill="black" font-size="8" transform="translate(21,-6)">
       6
      </text>
     </g>
    </g>
   </g>
  </g>
  <g transform="translate(465,24)" font-family="Arial" font-size="12" space="preserve" fill="black">
   <path d="M0,0H119V30H0Z" style="fill: white; stroke: black; stroke-width: 1;"></path>
   <text text-anchor="middle" dy=".4em" transform="translate(60,8)">
    USA
   </text>
   <text text-anchor="start" dy=".4em" transform="translate(6,23)">
    Entries
   </text>
   <text text-anchor="end" dy=".4em" transform="translate(113,23)">
    48
   </text>
   <path d="M0,15h119" style="stroke: black; stroke-width: 1;"></path>
  </g>
  <g transform="translate(221,2)" font-family="Arial" font-size="18" space="preserve">
   <text fill="black" text-anchor="middle" dy=".4em" transform="translate(78,12)">
    USA Population
   </text>
  </g>
 </g>
</svg>