<svg xmlns="http://www.w3.org/2000/svg" viewBox="0 0 1200 800" preserveAspectRatio="none" width="1200" height="800">
 <path d="M0,0H1200V800H0Z" style="fill: white;"></path>
 <g>
  <g transform="translate(120,80)">
   <path d="M0,0H960V640H0Z" style="fill: white; stroke: black; stroke-width: 1;"></path>
   <svg x="0" y="0" overflow="hidden" width="960" height="640" viewBox="0 0 960 640">
    <g>
     <path style="fill: #52ba92;" d="M686,107l-137,32l-412,288l137,-288l192,128z"></path>
     <path style="fill: #f9f90f;" d="M137,533h686l137,-533z"></path>
    </g>
   </svg>
   <g>
    <g transform="translate(0,640)">
     <path d="M0,0h960M0,-24v24m27,-12v12m28,-12v12m27,-12v12m28,-12v12m27,-24v24m28,-12v12m27,-12v12m27,-12v12m28,-12v12m27,-24v24m28,-12v12m27,-12v12m28,-12v12m27,-12v12m27,-24v24m28,-12v12m27,-12v12m28,-12v12m27,-12v12m28,-24v24m27,-12v12m27,-12v12m28,-12v12m27,-12v12m28,-24v24m27,-12v12m28,-12v12m27,-12v12m27,-12v12m28,-24v24m27,-12v12m28,-12v12m27,-12v12m28,-12v12m27,-24v24" style="stroke: black; stroke-width: 1;"></path>
     <g font-family="Arial" font-size="28" space="preserve" fill="black" text-anchor="middle">
      <text dy=".8em" transform="translate(0,6)">
       -1
      </text>
      <text dy=".8em" transform="translate(137,6)">
       0
      </text>
      <text dy=".8em" transform="translate(274,6)">
       1
      </text>
      <text dy=".8em" transform="translate(411,6)">
       2
      </text>
      <text dy=".8em" transform="translate(549,6)">
       3
      </text>
      <text dy=".8em" transform="translate(686,6)">
       4
      </text>
      <text dy=".8em" transform="translate(823,6)">
       5
      </text>
      <text dy=".8em" transform="translate(960,6)">
       6
      </text>
     </g>
    </g>
    <g>
     <path d="M0,0v640M36,640h-36m18,-21h-18m18,-22h-18m18,-21h-18m18,-21h-18m36,-22h-36m18,-21h-18m18,-21h-18m18,-22h-18m18,-21h-18m36,-21h-36m18,-22h-18m18,-21h-18m18,-21h-18m18,-22h-18m36,-21h-36m18,-21h-18m18,-22h-18m18,-21h-18m18,-21h-18m36,-22h-36m18,-21h-18m18,-21h-18m18,-22h-18m18,-21h-18m36,-21h-36m18,-22h-18m18,-21h-18m18,-21h-18m18,-22h-18m36,-21h-36" style="stroke: black; stroke-width: 1;"></path>
     <g font-family="Arial" font-size="28" space="preserve" fill="black" text-anchor="end">
      <text dy=".4em" transform="translate(-4,640)">
       -1
      </text>
      <text dy=".4em" transform="translate(-4,533)">
       0
      </text>
      <text dy=".4em" transform="translate(-4,427)">
       1
      </text>
      <text dy=".4em" transform="translate(-4,320)">
       2
      </text>
      <text dy=".4em" transform="translate(-4,213)">
       3
      </text>
      <text dy=".4em" transform="translate(-4,107)">
       4
      </text>
      <text dy=".4em" transform="translate(-4)">
       5
      </text>
     </g>
    </g>
   </g>
  </g>
  <g transform="translate(936,52)" font-family="Arial" font-size="20" space="preserve" fill="black">
   <path d="M0,0H240V192H0Z" style="fill: white; stroke: black; stroke-width: 1;"></path>
   <text text-anchor="middle" dy=".4em" transform="translate(120,16)">
    h2poly_name
   </text>
   <text text-anchor="start" dy=".4em" transform="translate(12,48)">
    Entries
   </text>
   <text text-anchor="end" dy=".4em" transform="translate(228,48)">
    4
   </text>
   <text text-anchor="start" dy=".4em" transform="translate(12,80)">
    Mean x
   </text>
   <text text-anchor="end" dy=".4em" transform="translate(228,80)">
    0.4000
   </text>
   <text text-anchor="start" dy=".4em" transform="translate(12,112)">
    Mean y
   </text>
   <text text-anchor="end" dy=".4em" transform="translate(228,112)">
    1.007
   </text>
   <text text-anchor="start" dy=".4em" transform="translate(12,144)">
    Std Dev x
   </text>
   <text text-anchor="end" dy=".4em" transform="translate(228,144)">
    0.4243
   </text>
   <text text-anchor="start" dy=".4em" transform="translate(12,176)">
    Std Dev y
   </text>
   <text text-anchor="end" dy=".4em" transform="translate(228,176)">
    1.409
   </text>
   <path d="M0,32h240" style="stroke: black; stroke-width: 1;"></path>
  </g>
  <g transform="translate(481,4)" font-family="Arial" font-size="32" space="preserve">
   <text fill="black" text-anchor="middle" dy=".4em" transform="translate(119,25)">
    h2poly_title
   </text>
  </g>
 </g>
</svg>