<svg viewBox="0 0 1200 800" preserveAspectRatio="none" xmlns="http://www.w3.org/2000/svg" width="1200" height="800"><title>ROOT canvas</title><rect x="0" y="0" width="1200" height="800" style="fill: white;"></rect><g><g transform="translate(120,80)"><title></title><rect x="0" y="0" width="960" height="640" style="fill: white; stroke: black; stroke-width: 1;"></rect><svg x="0" y="0" overflow="hidden" width="960" height="640" viewBox="0 0 960 640"><g objname="h2poly_name" objtype="TH2Poly"><path palette-index="12" fill="rgb(38,62,168)" d="M137,533h-137v107l137,-427z"></path><path palette-index="140" fill="rgb(82,186,146)" d="M686,107l-137,32l-412,288l137,-288l192,128z"></path><path palette-index="254" fill="rgb(249,249,15)" d="M137,533h686l137,-533z"></path></g></svg><g><g transform="translate(0,640)"><path d="M0,-24v24m27,-12v12m28,-12v12m27,-12v12m28,-12v12m27,-24v24m28,-12v12m27,-12v12m27,-12v12m28,-12v12m27,-24v24m28,-12v12m27,-12v12m28,-12v12m27,-12v12m27,-24v24m28,-12v12m27,-12v12m28,-12v12m27,-12v12m28,-24v24m27,-12v12m27,-12v12m28,-12v12m27,-12v12m28,-24v24m27,-12v12m28,-12v12m27,-12v12m27,-12v12m28,-24v24m27,-12v12m28,-12v12m27,-12v12m28,-12v12m27,-24v24" style="stroke: black; stroke-width: 1;"></path><g font-family="Arial" font-size="28" space="preserve"><text text-anchor="middle" x="0" y="0" fill="black" transform="translate(0,6)" dy=".8em">-1</text><text text-anchor="middle" x="0" y="0" fill="black" transform="translate(137,6)" dy=".8em">0</text><text text-anchor="middle" x="0" y="0" fill="black" transform="translate(274,6)" dy=".8em">1</text><text text-anchor="middle" x="0" y="0" fill="black" transform="translate(411,6)" dy=".8em">2</text><text text-anchor="middle" x="0" y="0" fill="black" transform="translate(549,6)" dy=".8em">3</text><text text-anchor="middle" x="0" y="0" fill="black" transform="translate(686,6)" dy=".8em">4</text><text text-anchor="middle" x="0" y="0" fill="black" transform="translate(823,6)" dy=".8em">5</text><text text-anchor="middle" x="0" y="0" fill="black" transform="translate(960,6)" dy=".8em">6</text></g></g><g><path d="M36,640h-36m18,-21h-18m18,-22h-18m18,-21h-18m18,-21h-18m36,-22h-36m18,-21h-18m18,-21h-18m18,-22h-18m18,-21h-18m36,-21h-36m18,-22h-18m18,-21h-18m18,-21h-18m18,-22h-18m36,-21h-36m18,-21h-18m18,-22h-18m18,-21h-18m18,-21h-18m36,-22h-36m18,-21h-18m18,-21h-18m18,-22h-18m18,-21h-18m36,-21h-36m18,-22h-18m18,-21h-18m18,-21h-18m18,-22h-18" style="stroke: black; stroke-width: 1;"></path><g font-family="Arial" font-size="28" space="preserve"><text text-anchor="end" x="0" y="0" fill="black" transform="translate(-4,640)" dominant-baseline="middle">-1</text><text text-anchor="end" x="0" y="0" fill="black" transform="translate(-4,533)" dominant-baseline="middle">0</text><text text-anchor="end" x="0" y="0" fill="black" transform="translate(-4,427)" dominant-baseline="middle">1</text><text text-anchor="end" x="0" y="0" fill="black" transform="translate(-4,320)" dominant-baseline="middle">2</text><text text-anchor="end" x="0" y="0" fill="black" transform="translate(-4,213)" dominant-baseline="middle">3</text><text text-anchor="end" x="0" y="0" fill="black" transform="translate(-4,107)" dominant-baseline="middle">4</text></g></g></g></g><g objname="title" objtype="TPaveText" transform="translate(481,4)" font-family="Arial" font-size="35" space="preserve"><path d="M0,0h237v49h-237z" style="fill: none;"></path><text text-anchor="middle" x="0" y="0" fill="black" transform="translate(119,26)" dominant-baseline="middle" opacity="1">h2poly_title</text></g><g objname="stats" objtype="TPaveStats" transform="translate(936,52)" font-family="Arial" font-size="22" space="preserve"><path d="M0,0h240v192h-240z" style="fill: white; stroke: black; stroke-width: 1;"></path><text text-anchor="middle" x="0" y="0" fill="black" transform="translate(120,17)" dominant-baseline="middle" opacity="1">h2poly_name</text><text text-anchor="start" x="0" y="0" fill="black" transform="translate(12,49)" dominant-baseline="middle" opacity="1">Entries </text><text text-anchor="end" x="0" y="0" fill="black" transform="translate(228,49)" dominant-baseline="middle" opacity="1"> 4</text><text text-anchor="start" x="0" y="0" fill="black" transform="translate(12,81)" dominant-baseline="middle" opacity="1">Mean x </text><text text-anchor="end" x="0" y="0" fill="black" transform="translate(228,81)" dominant-baseline="middle" opacity="1"> 3.138</text><text text-anchor="start" x="0" y="0" fill="black" transform="translate(12,113)" dominant-baseline="middle" opacity="1">Mean y </text><text text-anchor="end" x="0" y="0" fill="black" transform="translate(228,113)" dominant-baseline="middle" opacity="1"> 2.104</text><text text-anchor="start" x="0" y="0" fill="black" transform="translate(12,145)" dominant-baseline="middle" opacity="1">Std Dev x </text><text text-anchor="end" x="0" y="0" fill="black" transform="translate(228,145)" dominant-baseline="middle" opacity="1"> 0.7480</text><text text-anchor="start" x="0" y="0" fill="black" transform="translate(12,177)" dominant-baseline="middle" opacity="1">Std Dev y </text><text text-anchor="end" x="0" y="0" fill="black" transform="translate(228,177)" dominant-baseline="middle" opacity="1"> 0.6191</text><path d="M0,32h240" style="stroke: black; stroke-width: 1;"></path></g></g></svg>