<svg xmlns="http://www.w3.org/2000/svg" viewBox="0 0 596 372" preserveAspectRatio="none" width="596" height="372">
 <path d="M0,0H596V372H0Z" style="fill: white;"></path>
 <g>
  <g transform="translate(60,37)">
   <path d="M0,0H477V298H0Z" style="fill: white; stroke: black; stroke-width: 1;"></path>
   <svg x="0" y="0" overflow="hidden" width="477" height="298" viewBox="0 0 477 298">
    <g>
     <path style="fill: #263ea8;" d="M0,298v-7v7zM0,291v-1v1zM0,290v-1v1zM0,289v-1v1zM0,288v-1v1zM0,287v-1v1zM0,286v-1v1zM0,285v-1v1zM0,284v-2v2zM0,282v-1v1zM0,281v-2v2zM0,279v-2v2zM0,277v-2v2zM0,275v-2v2zM0,273v-3v3zM0,270v-2v2zM0,268v-3v3zM0,265v-4v4zM0,261v-3v3zM0,258v-4v4zM0,254v-5v5zM0,249v-5v5zM0,244v-5v5zM0,239v-6v6zM0,233v-6v6zM0,227v-7v7zM0,220v-8v8zM0,212v-9v9zM0,203v-9v9zM0,194v-11v11zM0,183v-11v11zM0,172v-13v13zM0,159v-14v14zM0,145v-15v15zM0,130v-17v17zM0,113v-19v19zM0,94v-20v20zM0,74v-22v22zM0,52v-25v25zM0,27v-27v27zM0,298v-7v7zM0,291v-1v1zM0,290v-1v1zM0,289v-1v1zM0,288v-1v1zM0,287v-1v1zM0,286v-1v1zM0,285v-1v1zM0,284v-2v2zM0,282v-1v1zM0,281v-2v2zM0,279v-2v2zM0,277v-2v2zM0,275v-2v2zM0,273v-3v3zM0,270v-2v2zM0,268v-3v3zM0,265v-4v4zM0,261v-3v3zM0,258v-4v4zM0,254v-5v5zM0,249v-5v5zM0,244v-5v5zM0,239v-6v6zM0,233v-6v6zM0,227v-7v7zM0,220v-8v8zM0,212v-9v9zM0,203v-9v9zM0,194v-11v11zM0,183v-11v11zM0,172v-13v13zM0,159v-14v14zM0,145v-15v15zM0,130v-17v17zM0,113v-19v19zM0,94v-20v20zM0,74v-22v22zM0,52v-25v25zM0,27v-27v27zM0,298v-7h1v7zM0,291v-1h1v1zM0,290v-1h1v1zM0,289v-1h1v1zM0,288v-1h1v1zM0,287v-1h1v1zM0,286v-1h1v1zM0,285v-1h1v1zM0,284v-2h1v2zM0,282v-1h1v1zM0,281v-2h1v2zM0,279v-2h1v2zM0,277v-2h1v2zM0,275v-2h1v2zM0,273v-3h1v3zM0,270v-2h1v2zM0,268v-3h1v3zM0,265v-4h1v4zM0,261v-3h1v3zM0,258v-4h1v4zM0,254v-5h1v5zM0,249v-5h1v5zM0,244v-5h1v5zM0,239v-6h1v6zM0,233v-6h1v6zM0,227v-7h1v7zM0,220v-8h1v8zM0,212v-9h1v9zM0,203v-9h1v9zM0,194v-11h1v11zM0,183v-11h1v11zM0,172v-13h1v13zM0,159v-14h1v14zM0,145v-15h1v15zM0,130v-17h1v17zM0,113v-19h1v19zM0,94v-20h1v20zM0,74v-22h1v22zM0,52v-25h1v25zM0,27v-27h1v27zM1,298v-7v7zM1,291v-1v1zM1,290v-1v1zM1,289v-1v1zM1,288v-1v1zM1,287v-1v1zM1,286v-1v1zM1,285v-1v1zM1,284v-2v2zM1,282v-1v1zM1,281v-2v2zM1,279v-2v2zM1,277v-2v2zM1,275v-2v2zM1,273v-3v3zM1,270v-2v2zM1,268v-3v3zM1,265v-4v4zM1,261v-3v3zM1,258v-4v4zM1,254v-5v5zM1,249v-5v5zM1,244v-5v5zM1,239v-6v6zM1,233v-6v6zM1,227v-7v7zM1,220v-8v8zM1,212v-9v9zM1,203v-9v9zM1,194v-11v11zM1,183v-11v11zM1,172v-13v13zM1,159v-14v14zM1,145v-15v15zM1,130v-17v17zM1,113v-19v19zM1,94v-20v20zM1,74v-22v22zM1,52v-25v25zM1,27v-27v27zM1,298v-7v7zM1,291v-1v1zM1,290v-1v1zM1,289v-1v1zM1,288v-1v1zM1,287v-1v1zM1,286v-1v1zM1,285v-1v1zM1,284v-2v2zM1,282v-1v1zM1,281v-2v2zM1,279v-2v2zM1,277v-2v2zM1,275v-2v2zM1,273v-3v3zM1,270v-2v2zM1,268v-3v3zM1,265v-4v4zM1,261v-3v3zM1,258v-4v4zM1,254v-5v5zM1,249v-5v5zM1,244v-5v5zM1,239v-6v6zM1,233v-6v6zM1,227v-7v7zM1,220v-8v8zM1,212v-9v9zM1,203v-9v9zM1,194v-11v11zM1,183v-11v11zM1,172v-13v13zM1,159v-14v14zM1,145v-15v15zM1,130v-17v17zM1,113v-19v19zM1,94v-20v20zM1,74v-22v22zM1,52v-25v25zM1,27v-27v27zM1,298v-7v7zM1,291v-1v1zM1,290v-1v1zM1,289v-1v1zM1,288v-1v1zM1,287v-1v1zM1,286v-1v1zM1,285v-1v1zM1,284v-2v2zM1,282v-1v1zM1,281v-2v2zM1,279v-2v2zM1,277v-2v2zM1,275v-2v2zM1,273v-3v3zM1,270v-2v2zM1,268v-3v3zM1,265v-4v4zM1,261v-3v3zM1,258v-4v4zM1,254v-5v5zM1,249v-5v5zM1,244v-5v5zM1,239v-6v6zM1,233v-6v6zM1,227v-7v7zM1,220v-8v8zM1,212v-9v9zM1,203v-9v9zM1,194v-11v11zM1,183v-11v11zM1,172v-13v13zM1,159v-14v14zM1,145v-15v15zM1,130v-17v17zM1,113v-19v19zM1,94v-20v20zM1,74v-22v22zM1,52v-25v25zM1,27v-27v27zM1,298v-7v7zM1,291v-1v1zM1,290v-1v1zM1,289v-1v1zM1,288v-1v1zM1,287v-1v1zM1,286v-1v1zM1,285v-1v1zM1,284v-2v2zM1,282v-1v1zM1,281v-2v2zM1,279v-2v2zM1,277v-2v2zM1,275v-2v2zM1,273v-3v3zM1,270v-2v2zM1,268v-3v3zM1,265v-4v4zM1,261v-3v3zM1,258v-4v4zM1,254v-5v5zM1,249v-5v5zM1,244v-5v5zM1,239v-6v6zM1,233v-6v6zM1,227v-7v7zM1,220v-8v8zM1,212v-9v9zM1,203v-9v9zM1,194v-11v11zM1,183v-11v11zM1,172v-13v13zM1,159v-14v14zM1,145v-15v15zM1,130v-17v17zM1,113v-19v19zM1,94v-20v20zM1,74v-22v22zM1,52v-25v25zM1,27v-27v27zM1,298v-7v7zM1,291v-1v1zM1,290v-1v1zM1,289v-1v1zM1,288v-1v1zM1,287v-1v1zM1,286v-1v1zM1,285v-1v1zM1,284v-2v2zM1,282v-1v1zM1,281v-2v2zM1,279v-2v2zM1,277v-2v2zM1,275v-2v2zM1,273v-3v3zM1,270v-2v2zM1,268v-3v3zM1,265v-4v4zM1,261v-3v3zM1,258v-4v4zM1,254v-5v5zM1,249v-5v5zM1,244v-5v5zM1,239v-6v6zM1,233v-6v6zM1,227v-7v7zM1,220v-8v8zM1,212v-9v9zM1,203v-9v9zM1,194v-11v11zM1,183v-11v11zM1,172v-13v13zM1,159v-14v14zM1,145v-15v15zM1,130v-17v17zM1,113v-19v19zM1,94v-20v20zM1,74v-22v22zM1,52v-25v25zM1,27v-27v27zM1,298v-7h1v7zM1,291v-1h1v1zM1,290v-1h1v1zM1,289v-1h1v1zM1,288v-1h1v1zM1,287v-1h1v1zM1,286v-1h1v1zM1,285v-1h1v1zM1,284v-2h1v2zM1,282v-1h1v1zM1,281v-2h1v2zM1,279v-2h1v2zM1,277v-2h1v2zM1,275v-2h1v2zM1,273v-3h1v3zM1,270v-2h1v2zM1,268v-3h1v3zM1,265v-4h1v4zM1,261v-3h1v3zM1,258v-4h1v4zM1,254v-5h1v5zM1,249v-5h1v5zM1,244v-5h1v5zM1,239v-6h1v6zM1,233v-6h1v6zM1,227v-7h1v7zM1,220v-8h1v8zM1,212v-9h1v9zM1,203v-9h1v9zM1,194v-11h1v11zM1,183v-11h1v11zM1,172v-13h1v13zM1,159v-14h1v14zM1,145v-15h1v15zM1,130v-17h1v17zM1,113v-19h1v19zM1,94v-20h1v20zM1,74v-22h1v22zM1,52v-25h1v25zM1,27v-27h1v27zM2,298v-7v7zM2,291v-1v1zM2,290v-1v1zM2,289v-1v1zM2,288v-1v1zM2,287v-1v1zM2,286v-1v1zM2,285v-1v1zM2,284v-2v2zM2,282v-1v1zM2,281v-2v2zM2,279v-2v2zM2,277v-2v2zM2,275v-2v2zM2,273v-3v3zM2,270v-2v2zM2,268v-3v3zM2,265v-4v4zM2,261v-3v3zM2,258v-4v4zM2,254v-5v5zM2,249v-5v5zM2,244v-5v5zM2,239v-6v6zM2,233v-6v6zM2,227v-7v7zM2,220v-8v8zM2,212v-9v9zM2,203v-9v9zM2,194v-11v11zM2,183v-11v11zM2,172v-13v13zM2,159v-14v14zM2,145v-15v15zM2,130v-17v17zM2,113v-19v19zM2,94v-20v20zM2,74v-22v22zM2,52v-25v25zM2,27v-27v27zM2,298v-7v7zM2,291v-1v1zM2,290v-1v1zM2,289v-1v1zM2,288v-1v1zM2,287v-1v1zM2,286v-1v1zM2,285v-1v1zM2,284v-2v2zM2,282v-1v1zM2,281v-2v2zM2,279v-2v2zM2,277v-2v2zM2,275v-2v2zM2,273v-3v3zM2,270v-2v2zM2,268v-3v3zM2,265v-4v4zM2,261v-3v3zM2,258v-4v4zM2,254v-5v5zM2,249v-5v5zM2,244v-5v5zM2,239v-6v6zM2,233v-6v6zM2,227v-7v7zM2,220v-8v8zM2,212v-9v9zM2,203v-9v9zM2,194v-11v11zM2,183v-11v11zM2,172v-13v13zM2,159v-14v14zM2,145v-15v15zM2,130v-17v17zM2,113v-19v19zM2,94v-20v20zM2,74v-22v22zM2,52v-25v25zM2,27v-27v27zM2,298v-7h1v7zM2,291v-1h1v1zM2,290v-1h1v1zM2,289v-1h1v1zM2,288v-1h1v1zM2,287v-1h1v1zM2,286v-1h1v1zM2,285v-1h1v1zM2,284v-2h1v2zM2,282v-1h1v1zM2,281v-2h1v2zM2,279v-2h1v2zM2,277v-2h1v2zM2,275v-2h1v2zM2,273v-3h1v3zM2,270v-2h1v2zM2,268v-3h1v3zM2,265v-4h1v4zM2,261v-3h1v3zM2,258v-4h1v4zM2,254v-5h1v5zM2,249v-5h1v5zM2,244v-5h1v5zM2,239v-6h1v6zM2,233v-6h1v6zM2,227v-7h1v7zM2,220v-8h1v8zM2,212v-9h1v9zM2,203v-9h1v9zM2,194v-11h1v11zM2,183v-11h1v11zM2,172v-13h1v13zM2,159v-14h1v14zM2,145v-15h1v15zM2,130v-17h1v17zM2,113v-19h1v19zM2,94v-20h1v20zM2,74v-22h1v22zM2,52v-25h1v25zM2,27v-27h1v27zM3,298v-7v7zM3,291v-1v1zM3,290v-1v1zM3,289v-1v1zM3,288v-1v1zM3,287v-1v1zM3,286v-1v1zM3,285v-1v1zM3,284v-2v2zM3,282v-1v1zM3,281v-2v2zM3,279v-2v2zM3,277v-2v2zM3,275v-2v2zM3,273v-3v3zM3,270v-2v2zM3,268v-3v3zM3,265v-4v4zM3,261v-3v3zM3,258v-4v4zM3,254v-5v5zM3,249v-5v5zM3,244v-5v5zM3,239v-6v6zM3,233v-6v6zM3,227v-7v7zM3,220v-8v8zM3,212v-9v9zM3,203v-9v9zM3,194v-11v11zM3,183v-11v11zM3,172v-13v13zM3,159v-14v14zM3,145v-15v15zM3,130v-17v17zM3,113v-19v19zM3,94v-20v20zM3,74v-22v22zM3,52v-25v25zM3,27v-27v27zM3,298v-7h1v7zM3,291v-1h1v1zM3,290v-1h1v1zM3,289v-1h1v1zM3,288v-1h1v1zM3,287v-1h1v1zM3,286v-1h1v1zM3,285v-1h1v1zM3,284v-2h1v2zM3,282v-1h1v1zM3,281v-2h1v2zM3,279v-2h1v2zM3,277v-2h1v2zM3,275v-2h1v2zM3,273v-3h1v3zM3,270v-2h1v2zM3,268v-3h1v3zM3,265v-4h1v4zM3,261v-3h1v3zM3,258v-4h1v4zM3,254v-5h1v5zM3,249v-5h1v5zM3,244v-5h1v5zM3,239v-6h1v6zM3,233v-6h1v6zM3,227v-7h1v7zM3,220v-8h1v8zM3,212v-9h1v9zM3,203v-9h1v9zM3,194v-11h1v11zM3,183v-11h1v11zM3,172v-13h1v13zM3,159v-14h1v14zM3,145v-15h1v15zM3,130v-17h1v17zM3,113v-19h1v19zM3,94v-20h1v20zM3,74v-22h1v22zM3,52v-25h1v25zM3,27v-27h1v27zM4,298v-7h1v7zM4,291v-1h1v1zM4,290v-1h1v1zM4,289v-1h1v1zM4,288v-1h1v1zM4,287v-1h1v1zM4,286v-1h1v1zM4,285v-1h1v1zM4,284v-2h1v2zM4,282v-1h1v1zM4,281v-2h1v2zM4,279v-2h1v2zM4,277v-2h1v2zM4,275v-2h1v2zM4,273v-3h1v3zM4,270v-2h1v2zM4,268v-3h1v3zM4,265v-4h1v4zM4,261v-3h1v3zM4,258v-4h1v4zM4,254v-5h1v5zM4,249v-5h1v5zM4,244v-5h1v5zM4,239v-6h1v6zM4,233v-6h1v6zM4,227v-7h1v7zM4,220v-8h1v8zM4,212v-9h1v9zM4,203v-9h1v9zM4,194v-11h1v11zM4,183v-11h1v11zM4,172v-13h1v13zM4,159v-14h1v14zM4,145v-15h1v15zM4,130v-17h1v17zM4,113v-19h1v19zM4,94v-20h1v20zM4,74v-22h1v22zM4,52v-25h1v25zM4,27v-27h1v27zM5,298v-7h1v7zM5,291v-1h1v1zM5,290v-1h1v1zM5,289v-1h1v1zM5,288v-1h1v1zM5,287v-1h1v1zM5,286v-1h1v1zM5,285v-1h1v1zM5,284v-2h1v2zM5,282v-1h1v1zM5,281v-2h1v2zM5,279v-2h1v2zM5,277v-2h1v2zM5,275v-2h1v2zM5,273v-3h1v3zM5,270v-2h1v2zM5,268v-3h1v3zM5,265v-4h1v4zM5,261v-3h1v3zM5,258v-4h1v4zM5,254v-5h1v5zM5,249v-5h1v5zM5,244v-5h1v5zM5,239v-6h1v6zM5,233v-6h1v6zM5,227v-7h1v7zM5,220v-8h1v8zM5,212v-9h1v9zM5,203v-9h1v9zM5,194v-11h1v11zM5,183v-11h1v11zM5,172v-13h1v13zM5,159v-14h1v14zM5,145v-15h1v15zM5,130v-17h1v17zM5,113v-19h1v19zM5,94v-20h1v20zM5,74v-22h1v22zM5,52v-25h1v25zM5,27v-27h1v27zM6,298v-7h1v7zM6,291v-1h1v1zM6,290v-1h1v1zM6,289v-1h1v1zM6,288v-1h1v1zM6,287v-1h1v1zM6,286v-1h1v1zM6,285v-1h1v1zM6,284v-2h1v2zM6,282v-1h1v1zM6,281v-2h1v2zM6,279v-2h1v2zM6,277v-2h1v2zM6,275v-2h1v2zM6,273v-3h1v3zM6,270v-2h1v2zM6,268v-3h1v3zM6,265v-4h1v4zM6,261v-3h1v3zM6,258v-4h1v4zM6,254v-5h1v5zM6,249v-5h1v5zM6,244v-5h1v5zM6,239v-6h1v6zM6,233v-6h1v6zM6,227v-7h1v7zM6,220v-8h1v8zM6,212v-9h1v9zM6,203v-9h1v9zM6,194v-11h1v11zM6,183v-11h1v11zM6,172v-13h1v13zM6,159v-14h1v14zM6,145v-15h1v15zM6,130v-17h1v17zM6,113v-19h1v19zM6,94v-20h1v20zM6,74v-22h1v22zM6,52v-25h1v25zM6,27v-27h1v27zM7,298v-7h2v7zM7,291v-1h2v1zM7,290v-1h2v1zM7,289v-1h2v1zM7,288v-1h2v1zM7,287v-1h2v1zM7,286v-1h2v1zM7,285v-1h2v1zM7,284v-2h2v2zM7,282v-1h2v1zM7,281v-2h2v2zM7,279v-2h2v2zM7,277v-2h2v2zM7,275v-2h2v2zM7,273v-3h2v3zM7,270v-2h2v2zM7,268v-3h2v3zM7,265v-4h2v4zM7,261v-3h2v3zM7,258v-4h2v4zM7,254v-5h2v5zM7,249v-5h2v5zM7,244v-5h2v5zM7,239v-6h2v6zM7,233v-6h2v6zM7,227v-7h2v7zM7,220v-8h2v8zM7,212v-9h2v9zM7,203v-9h2v9zM7,194v-11h2v11zM7,183v-11h2v11zM7,172v-13h2v13zM7,159v-14h2v14zM7,145v-15h2v15zM7,130v-17h2v17zM7,113v-19h2v19zM7,94v-20h2v20zM7,74v-22h2v22zM7,52v-25h2v25zM7,27v-27h2v27zM9,298v-7h1v7zM9,291v-1h1v1zM9,290v-1h1v1zM9,289v-1h1v1zM9,288v-1h1v1zM9,287v-1h1v1zM9,286v-1h1v1zM9,285v-1h1v1zM9,284v-2h1v2zM9,282v-1h1v1zM9,281v-2h1v2zM9,279v-2h1v2zM9,277v-2h1v2zM9,275v-2h1v2zM9,273v-3h1v3zM9,270v-2h1v2zM9,268v-3h1v3zM9,265v-4h1v4zM9,261v-3h1v3zM9,258v-4h1v4zM9,254v-5h1v5zM9,249v-5h1v5zM9,244v-5h1v5zM9,239v-6h1v6zM9,233v-6h1v6zM9,227v-7h1v7zM9,220v-8h1v8zM9,212v-9h1v9zM9,203v-9h1v9zM9,194v-11h1v11zM9,183v-11h1v11zM9,172v-13h1v13zM9,159v-14h1v14zM9,145v-15h1v15zM9,130v-17h1v17zM9,113v-19h1v19zM9,94v-20h1v20zM9,74v-22h1v22zM9,52v-25h1v25zM9,27v-27h1v27zM10,298v-7h2v7zM10,291v-1h2v1zM10,290v-1h2v1zM10,289v-1h2v1zM10,288v-1h2v1zM10,287v-1h2v1zM10,286v-1h2v1zM10,285v-1h2v1zM10,284v-2h2v2zM10,282v-1h2v1zM10,281v-2h2v2zM10,279v-2h2v2zM10,277v-2h2v2zM10,275v-2h2v2zM10,273v-3h2v3zM10,270v-2h2v2zM10,268v-3h2v3zM10,265v-4h2v4zM10,261v-3h2v3zM10,258v-4h2v4zM10,254v-5h2v5zM10,249v-5h2v5zM10,244v-5h2v5zM10,239v-6h2v6zM10,233v-6h2v6zM10,227v-7h2v7zM10,220v-8h2v8zM10,212v-9h2v9zM10,203v-9h2v9zM10,194v-11h2v11zM10,183v-11h2v11zM10,172v-13h2v13zM10,159v-14h2v14zM10,145v-15h2v15zM10,130v-17h2v17zM10,113v-19h2v19zM10,94v-20h2v20zM10,74v-22h2v22zM10,52v-25h2v25zM10,27v-27h2v27zM12,298v-7h3v7zM12,291v-1h3v1zM12,290v-1h3v1zM12,289v-1h3v1zM12,288v-1h3v1zM12,287v-1h3v1zM12,286v-1h3v1zM12,285v-1h3v1zM12,284v-2h3v2zM12,282v-1h3v1zM12,281v-2h3v2zM12,279v-2h3v2zM12,277v-2h3v2zM12,275v-2h3v2zM12,273v-3h3v3zM12,270v-2h3v2zM12,268v-3h3v3zM12,265v-4h3v4zM12,261v-3h3v3zM12,258v-4h3v4zM12,254v-5h3v5zM12,249v-5h3v5zM12,244v-5h3v5zM12,239v-6h3v6zM12,233v-6h3v6zM12,227v-7h3v7zM12,220v-8h3v8zM12,212v-9h3v9zM12,203v-9h3v9zM12,194v-11h3v11zM12,183v-11h3v11zM12,172v-13h3v13zM12,159v-14h3v14zM12,145v-15h3v15zM12,130v-17h3v17zM12,113v-19h3v19zM12,94v-20h3v20zM12,74v-22h3v22zM12,52v-25h3v25zM12,27v-27h3v27zM15,298v-7h3v7zM15,291v-1h3v1zM15,290v-1h3v1zM15,289v-1h3v1zM15,288v-1h3v1zM15,287v-1h3v1zM15,286v-1h3v1zM15,285v-1h3v1zM15,284v-2h3v2zM15,282v-1h3v1zM15,281v-2h3v2zM15,279v-2h3v2zM15,277v-2h3v2zM15,275v-2h3v2zM15,273v-3h3v3zM15,270v-2h3v2zM15,268v-3h3v3zM15,265v-4h3v4zM15,261v-3h3v3zM15,258v-4h3v4zM15,254v-5h3v5zM15,249v-5h3v5zM15,244v-5h3v5zM15,239v-6h3v6zM15,233v-6h3v6zM15,227v-7h3v7zM15,220v-8h3v8zM15,212v-9h3v9zM15,203v-9h3v9zM15,194v-11h3v11zM15,183v-11h3v11zM15,172v-13h3v13zM15,159v-14h3v14zM15,145v-15h3v15zM15,130v-17h3v17zM15,113v-19h3v19zM15,94v-20h3v20zM15,74v-22h3v22zM15,52v-25h3v25zM15,27v-27h3v27zM18,298v-7h3v7zM18,291v-1h3v1zM18,290v-1h3v1zM18,289v-1h3v1zM18,288v-1h3v1zM18,287v-1h3v1zM18,286v-1h3v1zM18,285v-1h3v1zM18,284v-2h3v2zM18,282v-1h3v1zM18,281v-2h3v2zM18,279v-2h3v2zM18,277v-2h3v2zM18,275v-2h3v2zM18,273v-3h3v3zM18,270v-2h3v2zM18,268v-3h3v3zM18,265v-4h3v4zM18,261v-3h3v3zM18,258v-4h3v4zM18,254v-5h3v5zM18,249v-5h3v5zM18,244v-5h3v5zM18,239v-6h3v6zM18,233v-6h3v6zM18,227v-7h3v7zM18,220v-8h3v8zM18,212v-9h3v9zM18,203v-9h3v9zM18,194v-11h3v11zM18,183v-11h3v11zM18,172v-13h3v13zM18,159v-14h3v14zM18,145v-15h3v15zM18,130v-17h3v17zM18,113v-19h3v19zM18,94v-20h3v20zM18,74v-22h3v22zM18,52v-25h3v25zM18,27v-27h3v27zM21,298v-7h5v7zM21,291v-1h5v1zM21,290v-1h5v1zM21,289v-1h5v1zM21,288v-1h5v1zM21,287v-1h5v1zM21,286v-1h5v1zM21,285v-1h5v1zM21,284v-2h5v2zM21,282v-1h5v1zM21,281v-2h5v2zM21,279v-2h5v2zM21,277v-2h5v2zM21,275v-2h5v2zM21,273v-3h5v3zM21,270v-2h5v2zM21,268v-3h5v3zM21,265v-4h5v4zM21,261v-3h5v3zM21,258v-4h5v4zM21,254v-5h5v5zM21,249v-5h5v5zM21,244v-5h5v5zM21,239v-6h5v6zM21,233v-6h5v6zM21,227v-7h5v7zM21,220v-8h5v8zM21,212v-9h5v9zM21,203v-9h5v9zM21,194v-11h5v11zM21,183v-11h5v11zM21,172v-13h5v13zM21,159v-14h5v14zM21,145v-15h5v15zM21,130v-17h5v17zM21,113v-19h5v19zM21,94v-20h5v20zM21,74v-22h5v22zM21,52v-25h5v25zM21,27v-27h5v27zM26,298v-7h5v7zM26,291v-1h5v1zM26,290v-1h5v1zM26,289v-1h5v1zM26,288v-1h5v1zM26,287v-1h5v1zM26,286v-1h5v1zM26,285v-1h5v1zM26,284v-2h5v2zM26,282v-1h5v1zM26,281v-2h5v2zM26,279v-2h5v2zM26,277v-2h5v2zM26,275v-2h5v2zM26,273v-3h5v3zM26,270v-2h5v2zM26,268v-3h5v3zM26,265v-4h5v4zM26,261v-3h5v3zM26,258v-4h5v4zM26,254v-5h5v5zM26,249v-5h5v5zM26,244v-5h5v5zM26,239v-6h5v6zM26,233v-6h5v6zM26,227v-7h5v7zM26,220v-8h5v8zM26,212v-9h5v9zM26,203v-9h5v9zM26,194v-11h5v11zM26,183v-11h5v11zM26,172v-13h5v13zM26,159v-14h5v14zM26,145v-15h5v15zM26,130v-17h5v17zM26,113v-19h5v19zM26,94v-20h5v20zM26,74v-22h5v22zM26,52v-25h5v25zM26,27v-27h5v27zM31,298v-7h6v7zM31,291v-1h6v1zM31,290v-1h6v1zM31,289v-1h6v1zM31,288v-1h6v1zM31,287v-1h6v1zM31,286v-1h6v1zM31,285v-1h6v1zM31,284v-2h6v2zM31,282v-1h6v1zM31,281v-2h6v2zM31,279v-2h6v2zM31,277v-2h6v2zM31,275v-2h6v2zM31,273v-3h6v3zM31,270v-2h6v2zM31,268v-3h6v3zM31,265v-4h6v4zM31,261v-3h6v3zM31,258v-4h6v4zM31,254v-5h6v5zM31,249v-5h6v5zM31,244v-5h6v5zM31,239v-6h6v6zM31,233v-6h6v6zM31,227v-7h6v7zM31,220v-8h6v8zM31,212v-9h6v9zM31,203v-9h6v9zM31,194v-11h6v11zM31,183v-11h6v11zM31,172v-13h6v13zM31,159v-14h6v14zM31,145v-15h6v15zM31,130v-17h6v17zM31,113v-19h6v19zM31,94v-20h6v20zM31,74v-22h6v22zM31,52v-25h6v25zM31,27v-27h6v27zM37,298v-7h8v7zM37,291v-1h8v1zM37,290v-1h8v1zM37,289v-1h8v1zM37,288v-1h8v1zM37,287v-1h8v1zM37,286v-1h8v1zM37,285v-1h8v1zM37,284v-2h8v2zM37,282v-1h8v1zM37,281v-2h8v2zM37,279v-2h8v2zM37,277v-2h8v2zM37,275v-2h8v2zM37,273v-3h8v3zM37,270v-2h8v2zM37,268v-3h8v3zM37,265v-4h8v4zM37,261v-3h8v3zM37,258v-4h8v4zM37,254v-5h8v5zM37,249v-5h8v5zM37,244v-5h8v5zM37,239v-6h8v6zM37,233v-6h8v6zM37,227v-7h8v7zM37,220v-8h8v8zM37,212v-9h8v9zM37,203v-9h8v9zM37,194v-11h8v11zM37,183v-11h8v11zM37,172v-13h8v13zM37,74v-22h8v22zM37,52v-25h8v25zM37,27v-27h8v27zM45,298v-7h8v7zM45,291v-1h8v1zM45,290v-1h8v1zM45,289v-1h8v1zM45,288v-1h8v1zM45,287v-1h8v1zM45,286v-1h8v1zM45,285v-1h8v1zM45,284v-2h8v2zM45,282v-1h8v1zM45,281v-2h8v2zM45,279v-2h8v2zM45,277v-2h8v2zM45,275v-2h8v2zM45,273v-3h8v3zM45,270v-2h8v2zM45,268v-3h8v3zM45,265v-4h8v4zM45,261v-3h8v3zM45,258v-4h8v4zM45,254v-5h8v5zM45,249v-5h8v5zM45,244v-5h8v5zM45,239v-6h8v6zM45,233v-6h8v6zM45,227v-7h8v7zM45,220v-8h8v8zM45,212v-9h8v9zM45,203v-9h8v9zM45,52v-25h8v25zM45,27v-27h8v27zM53,298v-7h11v7zM53,291v-1h11v1zM53,290v-1h11v1zM53,289v-1h11v1zM53,288v-1h11v1zM53,287v-1h11v1zM53,286v-1h11v1zM53,285v-1h11v1zM53,284v-2h11v2zM53,282v-1h11v1zM53,281v-2h11v2zM53,279v-2h11v2zM53,277v-2h11v2zM53,275v-2h11v2zM53,273v-3h11v3zM53,270v-2h11v2zM53,268v-3h11v3zM53,265v-4h11v4zM53,261v-3h11v3zM53,258v-4h11v4zM53,254v-5h11v5zM53,249v-5h11v5zM53,244v-5h11v5zM53,239v-6h11v6zM53,233v-6h11v6zM53,227v-7h11v7zM53,220v-8h11v8zM53,203v-9h11v9zM53,52v-25h11v25zM53,27v-27h11v27zM64,298v-7h13v7zM64,291v-1h13v1zM64,290v-1h13v1zM64,289v-1h13v1zM64,288v-1h13v1zM64,287v-1h13v1zM64,286v-1h13v1zM64,285v-1h13v1zM64,284v-2h13v2zM64,282v-1h13v1zM64,281v-2h13v2zM64,279v-2h13v2zM64,277v-2h13v2zM64,275v-2h13v2zM64,273v-3h13v3zM64,270v-2h13v2zM64,268v-3h13v3zM64,265v-4h13v4zM64,261v-3h13v3zM64,258v-4h13v4zM64,254v-5h13v5zM64,249v-5h13v5zM64,244v-5h13v5zM64,239v-6h13v6zM64,233v-6h13v6zM64,227v-7h13v7zM64,27v-27h13v27zM77,298v-7h15v7zM77,291v-1h15v1zM77,290v-1h15v1zM77,289v-1h15v1zM77,288v-1h15v1zM77,287v-1h15v1zM77,286v-1h15v1zM77,285v-1h15v1zM77,284v-2h15v2zM77,282v-1h15v1zM77,281v-2h15v2zM77,279v-2h15v2zM77,277v-2h15v2zM77,275v-2h15v2zM77,273v-3h15v3zM77,270v-2h15v2zM77,268v-3h15v3zM77,265v-4h15v4zM77,261v-3h15v3zM77,258v-4h15v4zM77,254v-5h15v5zM77,249v-5h15v5zM77,244v-5h15v5zM77,239v-6h15v6zM92,298v-7h19v7zM92,291v-1h19v1zM92,290v-1h19v1zM92,289v-1h19v1zM92,288v-1h19v1zM92,287v-1h19v1zM92,286v-1h19v1zM92,285v-1h19v1zM92,284v-2h19v2zM92,282v-1h19v1zM92,281v-2h19v2zM92,279v-2h19v2zM92,277v-2h19v2zM92,275v-2h19v2zM92,273v-3h19v3zM92,270v-2h19v2zM92,268v-3h19v3zM92,265v-4h19v4zM92,261v-3h19v3zM92,258v-4h19v4zM92,254v-5h19v5zM92,249v-5h19v5zM111,298v-7h22v7zM111,291v-1h22v1zM111,290v-1h22v1zM111,289v-1h22v1zM111,288v-1h22v1zM111,287v-1h22v1zM111,286v-1h22v1zM111,285v-1h22v1zM111,284v-2h22v2zM111,282v-1h22v1zM111,281v-2h22v2zM111,279v-2h22v2zM111,277v-2h22v2zM111,275v-2h22v2zM111,273v-3h22v3zM111,270v-2h22v2zM111,268v-3h22v3zM111,265v-4h22v4zM111,261v-3h22v3zM111,258v-4h22v4zM111,254v-5h22v5zM133,291v-1h27v1zM133,290v-1h27v1zM133,289v-1h27v1zM133,288v-1h27v1zM133,287v-1h27v1zM133,286v-1h27v1zM133,285v-1h27v1zM133,284v-2h27v2zM133,282v-1h27v1zM133,281v-2h27v2zM133,279v-2h27v2zM133,277v-2h27v2zM133,275v-2h27v2zM133,273v-3h27v3zM133,270v-2h27v2zM133,268v-3h27v3zM133,265v-4h27v4zM160,291v-1h32v1zM160,290v-1h32v1zM160,289v-1h32v1zM160,288v-1h32v1zM160,287v-1h32v1zM160,286v-1h32v1zM160,285v-1h32v1zM160,284v-2h32v2zM160,282v-1h32v1zM160,281v-2h32v2zM160,279v-2h32v2zM160,277v-2h32v2zM160,275v-2h32v2zM160,273v-3h32v3zM160,270v-2h32v2zM160,268v-3h32v3zM192,291v-1h38v1zM192,290v-1h38v1zM192,289v-1h38v1zM192,288v-1h38v1zM192,287v-1h38v1zM192,286v-1h38v1zM192,285v-1h38v1zM192,284v-2h38v2zM192,282v-1h38v1zM192,281v-2h38v2zM192,279v-2h38v2zM192,277v-2h38v2zM192,275v-2h38v2zM192,273v-3h38v3zM230,291v-1h46v1zM230,290v-1h46v1zM230,289v-1h46v1zM230,288v-1h46v1zM230,287v-1h46v1zM230,286v-1h46v1zM230,285v-1h46v1zM230,284v-2h46v2zM230,282v-1h46v1zM230,281v-2h46v2zM230,279v-2h46v2zM230,277v-2h46v2zM230,275v-2h46v2zM230,273v-3h46v3zM276,291v-1h55v1zM276,290v-1h55v1zM276,289v-1h55v1zM276,288v-1h55v1zM276,287v-1h55v1zM276,286v-1h55v1zM276,285v-1h55v1zM276,284v-2h55v2zM276,282v-1h55v1zM276,281v-2h55v2zM276,279v-2h55v2zM276,277v-2h55v2zM276,275v-2h55v2zM276,273v-3h55v3zM276,270v-2h55v2zM276,268v-3h55v3zM331,298v-7h66v7zM331,291v-1h66v1zM331,290v-1h66v1zM331,289v-1h66v1zM331,288v-1h66v1zM331,287v-1h66v1zM331,286v-1h66v1zM331,285v-1h66v1zM331,284v-2h66v2zM331,282v-1h66v1zM331,281v-2h66v2zM331,279v-2h66v2zM331,277v-2h66v2zM331,275v-2h66v2zM331,273v-3h66v3zM331,270v-2h66v2zM331,268v-3h66v3zM331,265v-4h66v4zM331,261v-3h66v3zM331,258v-4h66v4zM397,298v-7h80v7zM397,291v-1h80v1zM397,290v-1h80v1zM397,289v-1h80v1zM397,288v-1h80v1zM397,287v-1h80v1zM397,286v-1h80v1zM397,285v-1h80v1zM397,284v-2h80v2zM397,282v-1h80v1zM397,281v-2h80v2zM397,279v-2h80v2zM397,277v-2h80v2zM397,275v-2h80v2zM397,273v-3h80v3zM397,270v-2h80v2zM397,268v-3h80v3zM397,265v-4h80v4zM397,261v-3h80v3zM397,258v-4h80v4zM397,254v-5h80v5zM397,249v-5h80v5zM397,244v-5h80v5zM397,239v-6h80v6zM397,233v-6h80v6zM397,227v-7h80v7zM397,220v-8h80v8zM397,212v-9h80v9zM397,52v-25h80v25zM397,27v-27h80v27z"></path>
     <path style="fill: #1652cd;" d="M37,159v-14h8v14zM37,145v-15h8v15zM37,130v-17h8v17zM37,113v-19h8v19zM37,94v-20h8v20zM45,194v-11h8v11zM45,183v-11h8v11zM45,172v-13h8v13zM45,159v-14h8v14zM45,145v-15h8v15zM45,130v-17h8v17zM45,113v-19h8v19zM45,94v-20h8v20zM45,74v-22h8v22zM53,212v-9h11v9zM53,194v-11h11v11zM53,183v-11h11v11zM53,172v-13h11v13zM53,113v-19h11v19zM53,94v-20h11v20zM53,74v-22h11v22zM64,220v-8h13v8zM64,212v-9h13v9zM64,203v-9h13v9zM64,194v-11h13v11zM64,52v-25h13v25zM77,233v-6h15v6zM77,227v-7h15v7zM77,220v-8h15v8zM77,212v-9h15v9zM77,203v-9h15v9zM77,27v-27h15v27zM92,244v-5h19v5zM92,239v-6h19v6zM92,233v-6h19v6zM92,227v-7h19v7zM92,27v-27h19v27zM111,249v-5h22v5zM111,244v-5h22v5zM111,239v-6h22v6zM133,298v-7h27v7zM133,261v-3h27v3zM133,258v-4h27v4zM133,254v-5h27v5zM133,249v-5h27v5zM133,244v-5h27v5zM160,298v-7h32v7zM160,265v-4h32v4zM160,261v-3h32v3zM160,258v-4h32v4zM160,254v-5h32v5zM192,298v-7h38v7zM192,270v-2h38v2zM192,268v-3h38v3zM192,265v-4h38v4zM192,261v-3h38v3zM192,258v-4h38v4zM230,298v-7h46v7zM230,270v-2h46v2zM230,268v-3h46v3zM230,265v-4h46v4zM230,261v-3h46v3zM230,258v-4h46v4zM276,298v-7h55v7zM276,265v-4h55v4zM276,261v-3h55v3zM276,258v-4h55v4zM276,254v-5h55v5zM331,254v-5h66v5zM331,249v-5h66v5zM331,244v-5h66v5zM331,239v-6h66v6zM397,203v-9h80v9zM397,194v-11h80v11zM397,183v-11h80v11zM397,172v-13h80v13zM397,159v-14h80v14zM397,113v-19h80v19zM397,94v-20h80v20zM397,74v-22h80v22z"></path>
     <path style="fill: #1064dc;" d="M53,159v-14h11v14zM53,145v-15h11v15zM53,130v-17h11v17zM64,183v-11h13v11zM64,172v-13h13v13zM64,159v-14h13v14zM64,145v-15h13v15zM64,130v-17h13v17zM64,113v-19h13v19zM64,94v-20h13v20zM64,74v-22h13v22zM77,194v-11h15v11zM77,74v-22h15v22zM77,52v-25h15v25zM92,220v-8h19v8zM92,212v-9h19v9zM92,52v-25h19v25zM111,233v-6h22v6zM111,227v-7h22v7zM111,220v-8h22v8zM111,27v-27h22v27zM133,239v-6h27v6zM160,249v-5h32v5zM160,244v-5h32v5zM192,254v-5h38v5zM192,249v-5h38v5zM192,244v-5h38v5zM230,254v-5h46v5zM230,249v-5h46v5zM276,249v-5h55v5zM276,244v-5h55v5zM331,233v-6h66v6zM331,227v-7h66v7zM331,220v-8h66v8zM331,27v-27h66v27zM397,145v-15h80v15zM397,130v-17h80v17z"></path>
     <path style="fill: #1272d9;" d="M77,183v-11h15v11zM77,172v-13h15v13zM77,159v-14h15v14zM77,94v-20h15v20zM92,203v-9h19v9zM92,194v-11h19v11zM111,212v-9h22v9zM133,233v-6h27v6zM133,227v-7h27v7zM133,27v-27h27v27zM160,239v-6h32v6zM160,233v-6h32v6zM192,239v-6h38v6zM230,244v-5h46v5zM276,239v-6h55v6zM276,233v-6h55v6zM331,212v-9h66v9zM331,52v-25h66v25z"></path>
     <path style="fill: #1481d6;" d="M77,145v-15h15v15zM77,130v-17h15v17zM77,113v-19h15v19zM92,183v-11h19v11zM92,74v-22h19v22zM111,203v-9h22v9zM111,52v-25h22v25zM133,220v-8h27v8zM160,227v-7h32v7zM160,27v-27h32v27zM192,233v-6h38v6zM230,239v-6h46v6zM230,233v-6h46v6zM276,227v-7h55v7zM276,27v-27h55v27zM331,203v-9h66v9zM331,194v-11h66v11z"></path>
     <path style="fill: #0e8fd1;" d="M92,172v-13h19v13zM92,159v-14h19v14zM92,145v-15h19v15zM92,130v-17h19v17zM92,113v-19h19v19zM92,94v-20h19v20zM111,194v-11h22v11zM111,74v-22h22v22zM133,212v-9h27v9zM133,52v-25h27v25zM160,220v-8h32v8zM192,227v-7h38v7zM192,27v-27h38v27zM230,227v-7h46v7zM230,27v-27h46v27zM276,220v-8h55v8zM331,183v-11h66v11zM331,74v-22h66v22z"></path>
     <path style="fill: #099dcc;" d="M111,183v-11h22v11zM133,203v-9h27v9zM160,212v-9h32v9zM192,220v-8h38v8zM230,220v-8h46v8zM276,212v-9h55v9zM331,172v-13h66v13zM331,94v-20h66v20z"></path>
     <path style="fill: #0da7c3;" d="M111,172v-13h22v13zM111,159v-14h22v14zM111,94v-20h22v20zM133,194v-11h27v11zM160,52v-25h32v25zM276,203v-9h55v9zM276,52v-25h55v25zM331,159v-14h66v14zM331,145v-15h66v15zM331,130v-17h66v17zM331,113v-19h66v19z"></path>
     <path style="fill: #1eafb3;" d="M111,145v-15h22v15zM111,130v-17h22v17zM111,113v-19h22v19zM133,183v-11h27v11zM133,74v-22h27v22zM160,203v-9h32v9zM192,212v-9h38v9zM230,212v-9h46v9z"></path>
     <path style="fill: #2eb7a4;" d="M192,203v-9h38v9zM192,52v-25h38v25zM230,52v-25h46v25zM276,194v-11h55v11z"></path>
     <path style="fill: #52ba92;" d="M133,172v-13h27v13zM133,94v-20h27v20zM160,194v-11h32v11zM230,203v-9h46v9zM276,74v-22h55v22z"></path>
     <path style="fill: #74bd81;" d="M133,159v-14h27v14zM133,145v-15h27v15zM160,183v-11h32v11zM160,74v-22h32v22zM192,194v-11h38v11zM276,183v-11h55v11z"></path>
     <path style="fill: #95be71;" d="M133,130v-17h27v17zM133,113v-19h27v19zM192,74v-22h38v22zM230,194v-11h46v11zM276,172v-13h55v13z"></path>
     <path style="fill: #b3bd65;" d="M160,172v-13h32v13zM160,94v-20h32v20zM230,183v-11h46v11zM230,74v-22h46v22zM276,159v-14h55v14zM276,94v-20h55v20z"></path>
     <path style="fill: #d1bb59;" d="M160,159v-14h32v14zM192,183v-11h38v11zM276,145v-15h55v15z"></path>
     <path style="fill: #e2c04b;" d="M160,113v-19h32v19zM276,130v-17h55v17zM276,113v-19h55v19z"></path>
     <path style="fill: #f4c63b;" d="M160,145v-15h32v15zM160,130v-17h32v17zM192,172v-13h38v13zM192,94v-20h38v20zM230,172v-13h46v13zM230,94v-20h46v20z"></path>
     <path style="fill: #fdd22b;" d="M192,159v-14h38v14z"></path>
     <path style="fill: #fbe61d;" d="M192,113v-19h38v19zM230,159v-14h46v14zM230,113v-19h46v19z"></path>
     <path style="fill: #f9f90f;" d="M192,145v-15h38v15zM192,130v-17h38v17zM230,145v-15h46v15zM230,130v-17h46v17z"></path>
    </g>
   </svg>
   <g>
    <g transform="translate(0,298)">
     <path d="M0,0h477M0,-11V0M19,-6V0M39,-6V0M58,-6V0M78,-6V0M97,-11V0M117,-6V0M136,-6V0M156,-6V0M175,-6V0M195,-11V0M214,-6V0M234,-6V0M253,-6V0M273,-6V0M292,-11V0M312,-6V0M331,-6V0M351,-6V0M370,-6V0M389,-11V0M409,-6V0M428,-6V0M448,-6V0M467,-6V0" style="stroke: black; stroke-width: 1;"></path>
     <g font-family="Arial" font-size="13" space="preserve" fill="black" text-anchor="middle">
      <text dy=".8em" transform="translate(0,3)">
       0
      </text>
      <text dy=".8em" transform="translate(97,3)">
       50
      </text>
      <text dy=".8em" transform="translate(195,3)">
       100
      </text>
      <text dy=".8em" transform="translate(292,3)">
       150
      </text>
      <text dy=".8em" transform="translate(389,3)">
       200
      </text>
     </g>
    </g>
    <g>
     <path d="M0,0v298M18,298H0M9,291H0M9,284H0M9,276H0M9,269H0M18,262H0M9,255H0M9,247H0M9,240H0M9,233H0M18,226H0M9,218H0M9,211H0M9,204H0M9,197H0M18,189H0M9,182H0M9,175H0M9,168H0M9,160H0M18,153H0M9,146H0M9,139H0M9,131H0M9,124H0M18,117H0M9,110H0M9,102H0M9,95H0M9,88H0M18,81H0M9,73H0M9,66H0M9,59H0M9,52H0M18,45H0M9,37H0M9,30H0M9,23H0M9,16H0M18,8H0M9,1H0" style="stroke: black; stroke-width: 1;"></path>
     <g font-family="Arial" font-size="13" space="preserve" fill="black" text-anchor="end">
      <text dy=".4em" transform="translate(-3,298)">
       0
      </text>
      <text dy=".4em" transform="translate(-3,262)">
       0.5
      </text>
      <text dy=".4em" transform="translate(-3,226)">
       1
      </text>
      <text dy=".4em" transform="translate(-3,189)">
       1.5
      </text>
      <text dy=".4em" transform="translate(-3,153)">
       2
      </text>
      <text dy=".4em" transform="translate(-3,117)">
       2.5
      </text>
      <text dy=".4em" transform="translate(-3,81)">
       3
      </text>
      <text dy=".4em" transform="translate(-3,45)">
       3.5
      </text>
      <text dy=".4em" transform="translate(-3,8)">
       4
      </text>
     </g>
    </g>
   </g>
  </g>
  <g transform="translate(539,37)">
   <path d="M0,0H27V298H0Z" style="fill: #f9f90f; stroke: black; stroke-width: 1;"></path>
   <path d="M0,283H27V298H0Z" style="fill: #1652cd;"></path>
   <path d="M0,268H27V284H0Z" style="fill: #1652cd;"></path>
   <path d="M0,253H27V269H0Z" style="fill: #1064dc;"></path>
   <path d="M0,238H27V254H0Z" style="fill: #1272d9;"></path>
   <path d="M0,224H27V239H0Z" style="fill: #1481d6;"></path>
   <path d="M0,209H27V225H0Z" style="fill: #0e8fd1;"></path>
   <path d="M0,194H27V210H0Z" style="fill: #099dcc;"></path>
   <path d="M0,179H27V195H0Z" style="fill: #0da7c3;"></path>
   <path d="M0,164H27V180H0Z" style="fill: #1eafb3;"></path>
   <path d="M0,149H27V165H0Z" style="fill: #2eb7a4;"></path>
   <path d="M0,134H27V150H0Z" style="fill: #52ba92;"></path>
   <path d="M0,119H27V135H0Z" style="fill: #74bd81;"></path>
   <path d="M0,104H27V120H0Z" style="fill: #95be71;"></path>
   <path d="M0,89H27V105H0Z" style="fill: #b3bd65;"></path>
   <path d="M0,75H27V90H0Z" style="fill: #d1bb59;"></path>
   <path d="M0,60H27V76H0Z" style="fill: #e2c04b;"></path>
   <path d="M0,45H27V61H0Z" style="fill: #f4c63b;"></path>
   <path d="M0,30H27V46H0Z" style="fill: #fdd22b;"></path>
   <path d="M0,15H27V31H0Z" style="fill: #fbe61d;"></path>
   <path d="M0,0H27V16H0Z" style="fill: #f9f90f;"></path>
   <g transform="translate(27)">
    <path d="M0,0v298M0,298H-15M0,260H-15M0,223H-15M0,185H-15M0,148H-15M0,110H-15M0,72H-15M0,35H-15" style="stroke: black; stroke-width: 1;"></path>
    <g font-family="Arial" font-size="13" space="preserve" fill="black" text-anchor="start">
     <text dy=".4em" transform="translate(3,298)">
      0
     </text>
     <text dy=".4em" transform="translate(3,260)">
      500
     </text>
     <text dy=".4em" transform="translate(3,223)">
      1000
     </text>
     <text dy=".4em" transform="translate(3,185)">
      1500
     </text>
     <text dy=".4em" transform="translate(3,148)">
      2000
     </text>
     <text dy=".4em" transform="translate(3,110)">
      2500
     </text>
     <text dy=".4em" transform="translate(3,72)">
      3000
     </text>
     <text dy=".4em" transform="translate(3,35)">
      3500
     </text>
    </g>
   </g>
  </g>
  <g transform="translate(465,24)" font-family="Arial" font-size="10" space="preserve" fill="black">
   <path d="M0,0H119V89H0Z" style="fill: white; stroke: black; stroke-width: 1;"></path>
   <text text-anchor="middle" dy=".4em" transform="translate(60,7)">
    Boxes
   </text>
   <text text-anchor="start" dy=".4em" transform="translate(6,22)">
    Entries
   </text>
   <text text-anchor="end" dy=".4em" transform="translate(113,22)">
    280739
   </text>
   <text text-anchor="start" dy=".4em" transform="translate(6,37)">
    Mean x
   </text>
   <text text-anchor="end" dy=".4em" transform="translate(113,37)">
    102.3
   </text>
   <text text-anchor="start" dy=".4em" transform="translate(6,52)">
    Mean y
   </text>
   <text text-anchor="end" dy=".4em" transform="translate(113,52)">
    2.011
   </text>
   <text text-anchor="start" dy=".4em" transform="translate(6,67)">
    Std Dev x
   </text>
   <text text-anchor="end" dy=".4em" transform="translate(113,67)">
    46.60
   </text>
   <text text-anchor="start" dy=".4em" transform="translate(6,82)">
    Std Dev y
   </text>
   <text text-anchor="end" dy=".4em" transform="translate(113,82)">
    0.8906
   </text>
   <path d="M0,15h119" style="stroke: black; stroke-width: 1;"></path>
  </g>
  <g transform="translate(264,2)" font-family="Arial" font-size="16" space="preserve">
   <text fill="black" text-anchor="middle" dy=".4em" transform="translate(35,10)">
    Boxes
   </text>
  </g>
 </g>
</svg>