<svg xmlns="http://www.w3.org/2000/svg" viewBox="0 0 1200 800" preserveAspectRatio="none" width="1200" height="800">
 <path d="M0,0H1200V800H0Z" style="fill: white;"></path>
 <g>
  <g transform="translate(120,80)">
   <path d="M0,0H960V640H0Z" style="fill: white; stroke: black; stroke-width: 1;"></path>
   <svg x="0" y="0" overflow="hidden" width="960" height="640" viewBox="0 0 960 640">
    <g>
     <path d="M316,580l-1,-1h-1l-2,1h-1h1v-2h4v2" style="stroke: black; stroke-width: 1; fill: none;"></path>
    </g>
    <g>
     <path d="M304,54h-1v2l-1,1h-9l-1,-1h-3l-3,-1v-2h1l2,-1h2l2,-1l1,1v-1l1,1h3v-1h4l2,1l-1,1l2,1h-1" style="stroke: black; stroke-width: 1; fill: none;"></path>
    </g>
    <g>
     <path d="M280,56v1h1l1,1v1l2,1v1h2h-3h2l-2,1h-2l-2,-1l-1,-1l-2,-1v-1l1,-1l5,-3v1l-2,1" style="stroke: black; stroke-width: 1; fill: none;"></path>
    </g>
    <g>
     <path d="M317,61h-1v-1h2v1h-1" style="stroke: black; stroke-width: 1; fill: none;"></path>
    </g>
    <g>
     <path d="M300,64h1l1,1h1v1h-3l-1,-1h-3v-1h4" style="stroke: black; stroke-width: 1; fill: none;"></path>
    </g>
    <g>
     <path d="M291,66h-1v-2h1v1h1l-1,1" style="stroke: black; stroke-width: 1; fill: none;"></path>
    </g>
    <g>
     <path d="M327,67h-3v-1h4l-1,1" style="stroke: black; stroke-width: 1; fill: none;"></path>
    </g>
    <g>
     <path d="M294,71l-2,-1l-1,-1v-2h1l1,1h1l-1,1l1,1v1" style="stroke: black; stroke-width: 1; fill: none;"></path>
    </g>
    <g>
     <path d="M313,70l-1,1h-5l-1,-1h-2v-2h4l1,-1h3l1,-1h3l-1,1v1l-1,1l-1,1" style="stroke: black; stroke-width: 1; fill: none;"></path>
    </g>
    <g>
     <path d="M317,73h2h-2" style="stroke: black; stroke-width: 1; fill: none;"></path>
    </g>
    <g>
     <path d="M301,73h-1h2h-1" style="stroke: black; stroke-width: 1; fill: none;"></path>
    </g>
    <g>
     <path d="M294,76h-2l-2,-1l-1,-1l1,-1h3v1h1l1,1h1l-1,1h-1" style="stroke: black; stroke-width: 1; fill: none;"></path>
    </g>
    <g>
     <path d="M315,96v-1h1l-1,1" style="stroke: black; stroke-width: 1; fill: none;"></path>
    </g>
    <g>
     <path d="M314,98v1l-1,-1h1" style="stroke: black; stroke-width: 1; fill: none;"></path>
    </g>
    <g>
     <path d="M314,105h-2l-1,-1v-1l1,-1h2h-1v2h1h-1l1,1" style="stroke: black; stroke-width: 1; fill: none;"></path>
    </g>
    <g>
     <path d="M288,114h-1v-1h1v-1h-1v-1l2,-1h1l2,1h-2v1h-1h2l-2,1l-1,1" style="stroke: black; stroke-width: 1; fill: none;"></path>
    </g>
    <g>
     <path d="M296,113l1,1h-3v-1h2" style="stroke: black; stroke-width: 1; fill: none;"></path>
    </g>
    <g>
     <path d="M365,118v-1l2,1h1h-3" style="stroke: black; stroke-width: 1; fill: none;"></path>
    </g>
    <g>
     <path d="M234,124l2,-1l4,1l5,1l-3,-1h-7l1,1h-1l-1,-1" style="stroke: black; stroke-width: 1; fill: none;"></path>
    </g>
    <g>
     <path d="M217,125h7l2,-1l4,1h-2l-3,1h-9l1,-1" style="stroke: black; stroke-width: 1; fill: none;"></path>
    </g>
    <g>
     <path d="M188,128h-1h6l1,1h-3l-3,-1" style="stroke: black; stroke-width: 1; fill: none;"></path>
    </g>
    <g>
     <path d="M200,128h-1l-1,1l-1,-1l1,-1v-1h13l1,1h1h-13v2v-1" style="stroke: black; stroke-width: 1; fill: none;"></path>
    </g>
    <g>
     <path d="M262,129h-3h1h-1v-1h7l-1,1l-1,-1l-1,1h-1" style="stroke: black; stroke-width: 1; fill: none;"></path>
    </g>
    <g>
     <path d="M177,130h-11l2,-1h2l1,-1l3,1l5,-1h6v1h-3l-2,1h-3" style="stroke: black; stroke-width: 1; fill: none;"></path>
    </g>
    <g>
     <path d="M392,130l1,1h1v2l-2,-3" style="stroke: black; stroke-width: 1; fill: none;"></path>
    </g>
    <g>
     <path d="M142,133h-2v-1h12l3,-1l1,1l3,-1h1l1,1h-12l-6,1h-1" style="stroke: black; stroke-width: 1; fill: none;"></path>
    </g>
    <g>
     <path d="M142,136h-2v-2h5l-1,1l-1,1v-1v1h-1" style="stroke: black; stroke-width: 1; fill: none;"></path>
    </g>
    <g>
     <path d="M138,138h2h-2" style="stroke: black; stroke-width: 1; fill: none;"></path>
    </g>
    <g>
     <path d="M400,139l-2,-1h2l1,1h-1" style="stroke: black; stroke-width: 1; fill: none;"></path>
    </g>
    <g>
     <path d="M410,141h8h-10v-1l2,1" style="stroke: black; stroke-width: 1; fill: none;"></path>
    </g>
    <g>
     <path d="M736,67h1v1l-1,-1" style="stroke: black; stroke-width: 1; fill: none;"></path>
    </g>
    <g>
     <path d="M759,67h1l1,-1h1l-1,1l2,1h1l1,1l-1,1h1v1h3v1l1,1v-1h5l-1,-1h1v-1h1l-1,-1v-2h-1v-1h1h-2v1l-1,-1l-2,1h-1l-2,-2h-4v-2h-1v-1h-2v1h-2v1l-1,1h-3l-1,1h-3v-1l1,-1l2,-2l1,-1l-1,-1h-3l-1,1h-1v1l1,1l-1,1h-1l-1,1h-2l-1,1h-1v-1h2l2,-1l1,-1h1v-1l-1,-2h1l1,-1h2l3,-1h4l4,-1h6v1l-1,1h-4v4l2,1l2,1h10l3,-1h8l1,1h1l1,1l1,1l-1,1l-1,1l-2,1h-3l-1,1l-2,1h-1v1l1,2l1,2l2,1h6l3,1l1,1l1,1l1,1h3l-1,1h-2l-1,1h-1v2l1,1v1h-2l-1,-1h-1v-1l2,1v-1h-6l1,-1h3v-1h2h-2l-1,-1h-2l-2,1h-2h2l3,-1h2v-1h-3v-1h-1v1h-1h1l-1,1h-2v-1h-4l-2,1l-1,-1l-2,1l-1,-1l-1,1h-4l1,1h-2l-1,1h-1l-1,1l-2,2h-1l1,-1h-2v1h-2v1l1,1l1,-1h-1v-1h1l1,1h1v-1h1l1,1l1,1l-1,1h-1l-1,1l-1,-1h-2l-2,-1h-3l-1,-1h-1h1l2,1l1,-1l-1,-1h1v-1l-1,1h-1l1,1h-7l-1,-1h-2v-1v1h-2v-1l1,-1h-3l-3,1v-1h1v-1h2l1,1l-1,-1h-2l-2,-2h-2l1,-2l1,-1h10l3,-1h-3l-1,-1h3l-1,-1h-3v-1h-6l1,-1v-1h6v-1h2h-1h2l1,-1h-4v-2h1h-7v-2l-1,-1l-2,1l1,-1h14v2h2l-1,-1h1l-1,-1l1,-1l2,-1h4l-1,1h-1v1h-1h2v1l-2,1h4v-1h1h-1l-1,-1h-2" style="stroke: black; stroke-width: 1; fill: none;"></path>
    </g>
    <g>
     <path d="M741,70h-1h1" style="stroke: black; stroke-width: 1; fill: none;"></path>
    </g>
    <g>
     <path d="M740,64h-1v1v-2l-2,1h-1l1,1h-1v1h1l-1,1v1h-2v1h-1v1l-1,1l1,1l-1,1v1v-1h-1v-1l1,-1v-1l2,-2v-1l1,-1v-2l2,-1h2l1,1" style="stroke: black; stroke-width: 1; fill: none;"></path>
    </g>
    <g>
     <path d="M737,74v-1l3,-2h4l1,1h2v1h-2l-6,2h-2v-1" style="stroke: black; stroke-width: 1; fill: none;"></path>
    </g>
    <g>
     <path d="M723,75h2l1,-1l3,1l1,-1v-1l1,1l-2,1h-6" style="stroke: black; stroke-width: 1; fill: none;"></path>
    </g>
    <g>
     <path d="M719,76l-1,-1h4h-3v1" style="stroke: black; stroke-width: 1; fill: none;"></path>
    </g>
    <g>
     <path d="M698,76h2v1h-5l1,-1h2" style="stroke: black; stroke-width: 1; fill: none;"></path>
    </g>
    <g>
     <path d="M701,77l-1,1h-1v-1h2" style="stroke: black; stroke-width: 1; fill: none;"></path>
    </g>
    <g>
     <path d="M542,75v-1h-2l-1,1h-1l-2,-1l1,1h1l1,1h-1l-3,-1v-3l1,-1l1,-1h1v-1l3,-1h4l4,1h3l1,1h3l2,1l1,2h1v1h1l1,1h1v1l1,1v1h-3l-3,-1h-5h2h-1l-1,-1l-1,1h-1l1,1v-1v1h-7l-1,-1v-2h-1h1h-1v-1h-1v1" style="stroke: black; stroke-width: 1; fill: none;"></path>
    </g>
    <g>
     <path d="M775,85v-1h1l1,-1h1h-1l1,1h-2v1h-1" style="stroke: black; stroke-width: 1; fill: none;"></path>
    </g>
    <g>
     <path d="M736,85h2h-2" style="stroke: black; stroke-width: 1; fill: none;"></path>
    </g>
    <g>
     <path d="M813,90v-1h1l-1,1" style="stroke: black; stroke-width: 1; fill: none;"></path>
    </g>
    <g>
     <path d="M799,94v-2l1,1h-1v1" style="stroke: black; stroke-width: 1; fill: none;"></path>
    </g>
    <g>
     <path d="M764,95h-1h2l1,1h-1v-1h-1" style="stroke: black; stroke-width: 1; fill: none;"></path>
    </g>
    <g>
     <path d="M581,106h1h-1" style="stroke: black; stroke-width: 1; fill: none;"></path>
    </g>
    <g>
     <path d="M581,108h-1v2h-1l-1,1h-1v-3l-1,1l-1,2h1h-2v-1h-2l1,1h-1l-1,-1l-1,-1l1,-1l2,-1h1l3,-1h4l1,1l-1,1" style="stroke: black; stroke-width: 1; fill: none;"></path>
    </g>
    <g>
     <path d="M841,118h-19l-1,1h-3l-3,1h-1v-1h2v-1h-2l-1,1v1h-5l-1,-1h-3h1v-1h2l2,-1h4l1,-1v-1h1l-1,-1v-1l-1,-1l-2,-1v-1l1,-1h6l-1,1h1l-2,1l1,1h-1v1h1l1,-1v-1h5h-1v1l3,1v-1h-1l1,-1v-4h-2v-1h-1v1h-1v-2l-2,-1v-1h-1v1h-2v-1l-1,1l-2,-1v2h1v1h-2v1h-3l-1,1h-1v-1l1,-1l1,-1v1l1,-1h-1l1,-1h2h-3v1h-5v1h-1l-1,1h-3v-2h1l1,-1h1v-1l1,-1v-2h-2l-1,-1v-1h-2v-1h-1v-1h1l1,-1h3l1,1l2,2l1,1l2,1h1v1l3,1h3l1,1h4l2,1l6,3h1l1,1l4,2l4,2l4,2h-4l2,1h1v3" style="stroke: black; stroke-width: 1; fill: none;"></path>
    </g>
    <g>
     <path d="M326,77h3v1l2,-1h2l1,-1h2l3,-2h1l1,-1h3l1,-1l1,1h1l1,-1h-4h1v-1l-1,-1h-1l-1,-1h-2v1l-1,1h-1v1h-1v1h-12v-1h1v-1h-1v-1h1l2,-1l3,-1l2,1l1,-1h5v1l2,-1l-1,-1h-2l-1,-1h-3v-1l-1,-1l-1,-1h-7h2l1,-1h1l-1,-1l-1,-1l-1,-1l-1,-1h-1l-2,-1h-2v-2l-1,-1h-3v3l-2,1l-1,-1l-1,1l-1,1l-1,1h-6l-4,1h-2l1,-1h6l4,-1l1,-1h1l1,-1h3v-1h1v-2l-2,-1h2v-1l-1,-1h-1v-2h-1l-1,-1h-1l-2,-2l-3,-1v-1l1,-2h-11l-5,2h-7l-1,-1l-1,-1h-2l-1,1h1h-1l-2,1l-1,1v8l-2,-1v-2l1,-1v-8l1,-2l3,-3l3,-3l1,-1v-1h1l1,-1l1,-1h3l3,1h-6v1h4v1l-3,1h-3l-1,1l-2,2h1v4l1,1h1l5,1h8l12,-1v-1h5l3,1h3l1,-1h6v1h4l2,-1h2l2,1h4l2,1h3l6,1h6l6,1l4,2l1,1v1h3v-1l4,1l2,-1l2,-2h8h-2l-1,1h-1v1h1l-1,1h1l2,-1v-1h5l1,-1h1l1,-1h3v-1h1v-1h3l-1,1h-1v2l1,1h6l2,1h3l4,1h3v1h1l3,2h4l2,-1l1,1v-1h-1l1,-1h-1l1,-1h1l1,1l3,1l1,1l1,2l1,1h1l1,1l1,1h1v1h-1v-1h-2v1h-1v-2h-1l-1,1h1v1h-2h1l2,1h1v-1l1,1l1,1v-1l1,1v2l-1,2v4h-1l-1,1v1h-1l-2,1h-1l-2,1l-3,1h-6v1l1,1h6l1,-1h7l1,-1h12l3,1l2,1h1h-1l-1,1h-1l1,2h1v2h-3l1,1h-3l-1,1h1v1h1v1l-2,1h3l1,-1v-1l1,-1h1v-1l2,-1v-1h1v-1h6l1,-1h-1l2,-1h3l5,1h2l1,1l3,1h1l3,1h2l3,1h3l1,1h3l2,1l1,1l2,1h1v1h10l2,-1l3,-1l1,-1h1l1,-1h3l1,-1l2,-1h9v1h-4l-2,-1h-1l1,1h11l1,-1l1,-1h1v1h2l-1,1l-1,1h-2v1l-1,-1h-1l-1,1h2v3l1,2l-1,2l1,2l1,2h-2l-2,1l-1,1h-2l-4,2h-2l-1,1l-3,1l-2,1l-1,1l-1,1h-1l-1,-1l-3,1l-1,-1h-1l-1,1l-1,1l-2,1h-1v1l1,2l2,1l2,1l1,-1h1l1,1h4l1,1l-1,1h1h-3v1l1,1v1h-1l-2,1l-2,1h-4h3v1l1,-1h3v-1h2v-1h4v1h-1h1v1h2v-1h4l-1,-1l-1,1l-1,-1h-4v-1l1,-1h-3h1h-2l2,-1h4l5,-2l3,-1h2l2,-1h13l1,2h5v1h-1v3h4l3,-1l1,-1h1l1,1l2,1h3v1h1l2,1v1h2v-1h-1l1,-1h1l1,-1v1l1,-1h-1v-2h1h-2l2,-1h1h-1l1,-1l1,1l-1,-1h-1l1,-1l1,-1h2v-1h-1h5l1,-1l1,-1h-1v-1h3l1,-1v-1l-1,-1h-1v1h-2l-1,1l-1,1h-1l-1,1h-1h1v-1h-1l-1,1v1h-1v-1l1,-1l3,-1l1,-1h2l2,-1l6,-3h8l1,-1l4,1h7l7,-1h2l2,-1h7l2,-1v1h1v2h-1v3h1l1,1h4h-2l-2,-1l-1,-1h1l-1,-1l1,-2v1l1,-1h2l1,-1h-5h2l1,-1h1l5,-4l3,-1h1l7,-2l3,-1h1l1,-2h1l3,-4h1l2,-1l2,-1l1,-1v-1l4,-3l1,-1h2h-1v1h1v1h7l3,1h26l1,1h-2l-1,1h-2l-2,-1h-1l-2,1h-7l-2,-1h-5v1h-2l-1,-1l-1,1h-3l-2,1l1,1h1h-7v1l-2,-1h-4l-1,1h-3v3h-1l-1,-1l-1,1h1v1l-2,1h-2v1h1l1,1v1h-1h1l1,1l3,1h3l1,-1h-4l-1,-1v-1h1l1,-1h3l1,-1h1l-1,-1v-1h5l2,-1h-1l2,-1h-2v-1h4v1h2v-1h3l2,-1h2v-1h-1h1v-1h4v1h-3l1,1h-1v1h1h-1l1,-1l1,-1h1v1l1,1h2v-1l1,1h1l1,-1h1v1h2v2h4l1,-1h2v-2l2,-1l2,-1h3v-1h4l1,-1h3v1h-1l-1,1l1,1l1,1h1l1,1l1,-1h1v1h1v1l-1,1v1l1,1h1l1,1v1l-1,1l2,1h3l1,-1h1v1h-2l-1,1h2v-1h2l1,1h2v1h6l1,1l2,2h1v1h1l1,1h1h-2v1h-1h3l1,-1h4v1h-1l-1,1h1l1,-1h1v1h1l1,1l1,1v2h1l3,1h1v-1h-1v-1l-1,-1h2l3,-1h9l1,-1l3,-1h1l2,-1h1l1,1h-2v1h2l1,1h3v1h1l1,1h2v2l-1,1l-1,1l-2,1l-1,1h1v1l4,2h3l2,2v1h4v1h1l1,1l-1,1h-2l-2,1l-1,1h-3v1h-1v2h4l1,1h1l1,1l1,1h3l2,1l2,1l5,1h1l2,1h4l1,1h8l1,-1h2l1,-1h2l1,1l1,1h-1l-1,1l-2,1h-1l-1,1h5l2,1l-1,1l1,1v1l2,2h1v4l-1,1l1,1v1l1,1h1l1,1v1h1v2h1v3h1l1,2l1,1l-1,1l2,1v5h3l1,1l-1,1h-1v1l-2,1v1h-2l-1,1l-1,2v1l2,1l-1,2l-1,1v2h-1v1l-1,1l-2,1l-2,1l-5,1l-1,1l-3,1h-3v1h-1l-2,1v4l1,1v1l-1,1l-2,1v1l1,1h7l1,1l5,3l7,1l1,1l2,1l3,2l2,1l1,1h2v1h1l1,1l3,1h2l1,1h3v1h2l1,1v1h3l-1,1l-1,1l-2,2l1,1l2,1l-2,2v1h-1l-2,2h-3v2l-1,1l1,1l1,1h-1v1l1,1v1l2,1l1,1l-2,1h2l1,1h3l1,1h5v1h1v1l1,1l-1,1h-1l-1,1l1,1h1v1l-2,2v2l1,1h3l1,1h1v1h1v1h-1v2l-1,1h-1v1h-1l1,1l-1,1h-1v1l1,1h1l-1,1l-1,1v1l-1,1h-1l-1,1h-2v1h-1l-1,1h-2v1h-1l-1,1v1h1v1h3l1,1l1,1v2h1v2h1l1,1h1l2,1l1,1h1v1h1l1,1v2l1,1v1l-1,1h-1l-2,1l-1,1v1h1v1l1,1h2l1,1h6v1l1,1h8v1h2l1,1l1,1v2l-1,1h1l-1,1h1l1,1v1h-1v1h1v1l1,1l1,1v12l-1,1h1l-1,1h1l-1,1h-1v3h-2l-1,1h1v1l-1,1h-1v3h-1v1h-1l-1,1v1h-1v1h-2v1l-2,1l-1,1h-1l-1,1v1h1l-1,1h-1v1l-1,1v1l-1,-1l-1,1h-1l-1,-1h-4h1h-1v-1h-4l-1,-1h-4v-1h1v-2l1,-1h1v-2h-1l-1,1h-6l1,-1l1,-2v-1h1v-1h-2l-1,-1v-1l-2,1h-1v-1h-3l-1,-1l1,-1h-1v1h-6l-2,1l-2,-1h-1v-1h-4l-1,-1h-3v1h-1v1l-1,1h-1v1l-1,1h2v1h2l1,-1h2v1h-2v1h1v1h4l3,1h1v1h-1v2h-7l-2,1h-1l-1,-1h-2l-1,1h-1v1h-1l-1,1h-3l-2,1h-2l-2,1h-2l-2,1h-3l-1,1h-1v-1h-3l-2,1h-1l-1,1h-4l-1,1h-1v1l1,1h1l-1,1h-3l-1,1h-2l-2,-1h-5l-1,1h-1l-1,-1l-1,1h-3l-2,-1h-1l-1,1h-2v1h-8l-1,1l1,1h1l-1,1h-1l-1,1h-1l1,1h1l-1,1h-2l-2,1l-1,1h-2l-2,-1h-1l-1,-1h-1l-1,-1l-1,-1v2h1h-1v1h-3v1h-2v1h1l-1,1h-3l-1,-1h-2l-2,1h1h-1l-1,1v2l-2,1l-1,1h1h-6l-1,-1l-2,1l-1,1h-4l-1,-1h-1v1l-1,1v1h-1l1,1v1l-3,1v1h-4l-1,1l-3,-1h-1l-3,-2h-1l-2,-1h-2l-1,1h-5l-1,1l-1,1l-2,1h-2l-1,-1h-2v1h-2l-1,-1h-1l-2,1h-6l-3,1v1h-1v2h-2l-2,1h-1v1h-4v1l1,1h-1v1h-3v1h-1v1l1,1h-3v2l-1,1l1,1l-1,1h-3v-1h-1l1,-1l-1,-1h1l-1,-1h-2l-2,-1l1,-1l1,1v-2h-6v-3h-1v-1h-5l-1,1h-1h1v2h1v1h-2l-1,1l-1,1h1l1,1h4l1,2l1,-1l1,1h1l1,1v1l1,1l-1,1h-1v1l1,2h2v1h2l1,1h1l-1,1l2,1h4v1h3v1h1l1,1h3l1,1h1v1h1l2,-1l1,1h1l1,1v1h-2v2h4l3,1v1l-1,1h-1v1l-1,1l-2,1v1h-2v2h-1l1,2l-6,2h-1v1l2,1h1l1,2h2l1,1h5v3h-1v1h1v1l1,1l2,-1v1h1v1l1,1l-1,1l1,1l1,1v1h4l1,1v3h-1l1,1h1l1,3h5l1,1h1l2,1v1l1,1l1,1v1h7l1,1h2v-1h6l3,1l2,2h3v3h2l1,1h1l1,1h1v1h2v2l3,1h1l1,1h1v2l2,1l2,1h6l6,2v1h1l1,1h1v1h3l-1,1h1v4l1,1h3l2,1h1v1h3v-2h2l2,1l1,-1l1,1v-1h1l1,1l1,1h2l1,1l2,3h1l1,1h4l1,-1l1,1l1,1l2,2l2,1h1v1l1,1v1h-1l1,1h3h-1l-1,1v2h-2v1h1v1h1l-1,1v1l1,1l-1,1h1v2l-1,1h-1v2l-1,1h-1l-1,1h-1v-1h-1v1l-1,1h1v1h-2v1h-2l-3,-1h-1v-1h-1l-1,-1h-3l-1,-1h-2v1h-1l-1,-1l-2,-1h-1l-1,-1h-2v1l-1,1h-4l-1,1v1h1v1l1,1l-1,1v1l-2,2v1h1v1l-2,2v2l-2,1l-3,2h-1l-1,1h-1l-3,1l-4,2h-9l-3,1h-4l-3,1h-4v1h-1v1l-2,1l-3,1h-7l-2,1v1l-1,1h-1l-1,1h-1l-1,1h-1l-1,2h-1v-1h-2v1h-1v1l1,2l1,1h1l4,2h1l2,1l1,1v1l1,1l1,1v1h4v1h2h-1l1,1l1,1l1,1l3,3l1,1l-1,1l-1,1l-2,2l-2,1v2h-1l-2,1l-1,1h1l2,1l5,1l1,-1h4l3,2l1,1l2,2v1l-1,1h-1l-1,1v2h-3v1h2l-2,2v1l1,2l-1,1h-1l-1,1h-1l-2,-1l-1,1h-1l-3,-1l-2,-1l-2,-1l-1,-1h-2v-1h-1v-1h-4l-3,-1v-1l3,-2h1l-2,-2h-2l-1,-1l1,-1v-1h-1l-1,1l-1,-1h-4l-1,-1h-2l-2,1h-5l-1,1l-1,2h-4l-2,1h-1l-1,-1h-1l-1,-1l-3,-2v-2h-2l-3,1h-3l-3,-1l-4,1l-2,1l-1,-1h-1v-1l2,-3h-2l-2,2h-3l-1,1h-1v1l1,1l1,1l1,1v2h-4l-2,1h-5l-2,-1h-15l-2,1h-4v2h-3l-3,-1h-9l-2,1h-1l-2,-1h-2l-1,1l-2,2v2h-1l-2,1h-9l-2,-1l-2,1l-1,2h-2v1h2l1,1l1,1h-1l-2,-1l-1,1h-2l-1,-1h-1l-1,1h-1l-1,1h-2v1l-1,1h-5v-1l2,-1h-8l-3,1h-1v1h-8l-1,1l-2,-1l-1,1h-1l-1,-1h-1l1,-1l1,-1h-1l-3,-2l-1,-1v-1h-7l1,-1v-1h4v-1h-1l-2,-1h-2l-2,1h-2l-2,1h-2l-1,-1h-1l-1,-1h-1l-3,-1l-2,-1h-9l-1,2h-8l-3,-1h-1l1,-1l1,-1h-4v1h1l1,1l-1,1l-1,2v1l1,1h2v3h1v1h-2l-2,2v1l-1,1h-3l-1,1v1h-2l-1,1l-1,2h-2l-2,1h-1l-3,1l-2,1l-2,-1l-1,1h-2l-1,-1l1,-1h2l1,-1l-1,-1l1,-2h1l1,-2h-1v-1h-5v1l-1,1h-2l-1,-1h-1l-1,1h-1l-1,-1v-1l-2,-2h3v-2l-1,-1h-1l-2,-1l-1,-1h-4l-1,-1l-2,-1v-3l-1,1h-2l-1,1h-1l-1,-1h-2l-2,1l-1,-1l-4,-1h1v-1l-1,-1l-1,-1h-3l-1,1l-1,1l-1,1l-1,2h-14l-2,-1h-2l-2,-1l-2,-1l-4,-1l-4,-2h-1l-5,-1l-6,-2l-2,-1h-4l-2,1l-2,-1l-2,-1h-6l-3,-1h-6l-1,1h-3l-4,1l-1,1l-1,-1l-1,1l-1,-1l-2,-1l-1,-1l1,-1h2h-1l-3,-1h-2l-1,-1h-2l-2,1l1,1h3l-1,1v1h-1l-2,-1h-1l-2,-1v-1l-1,-1h-1v-1h1l1,-1l-1,-1l-2,1h-2v-2l-2,-1h-2l1,1l-1,1h-1v-2h-1l-1,-1h-4l-1,1h1v1h-4l-2,1h-1l-2,1l-1,1l-1,1l-1,1l-2,1v1l-1,1l1,1h5v1h-1h1v1l1,-1h4v-1h2l1,-1h4l2,1v1h-2v3l-1,1l-2,-1v-1h-2l-2,-1l-1,1h-2l-3,1v1h2v1h-4v1h-1l-2,-1h-1l-1,1h-3l-2,-1h-1l-1,-1h-2v-1l-1,-1l-1,1h-1l-1,-1h-2v1l-1,-1h-3v1h-2v1h-4v1h-2l-1,1h-4v1h-14v-2h-1l-1,-1h-2l-2,1l-1,-1h-1l-1,1l-2,1v1h-3l-5,1h-5l-1,-1h-1v-1h1v-1h2v-1h-1l1,-1h-3l-1,1l-1,1h-3l-2,-3v-1h-1l-2,-1l-1,-1l-1,-3l1,-1l2,-1v-1l-1,-2v-1l2,-3l1,-1v-1l-1,-2v-1l2,-1h1v-3l3,-2v-2h-1v-1h-1l-1,-1l-2,-1l1,-1v-3l1,-1l-1,-1h1l2,-1v-1l-1,-1h1l1,-1l2,-2l1,-1l2,-1l2,-4v-2h1l1,-1h3v-2l-1,-1v-3l1,-2l1,-1l1,-1l1,-1l-1,-1l1,-1h2v-1l1,-1v-3l-1,-2l1,-1l1,-1l2,-1v-1h1l4,-2l3,-2h1l2,-2l1,-1v-2h5l1,-1v-1l1,-1h5l1,-1l1,-1l1,-2v-1l2,-2l1,-1l3,-2l2,-2l3,-1h-7l-2,-1h-2l-5,-1v-1h-1l-2,-1h-6v-1h-1v-1h-4v1h-7l-1,-1h-1l-2,-1h-1l-1,1h-14v-1l-1,-1h-6l-1,-1h-2v-1l-1,-1h-1l-1,-1h-1v-1h2l-1,-1h-1v-1h-1l-4,1v-1h1v-1h-1l-6,1h-1v2h-4v1h-1l-1,1h-3l-2,-1h-3l-1,1h-1l-1,-1l-3,1l-1,-1h-3l-1,-1h1v-1h-2l-1,1v1l-1,1h-2v-2h-1l-1,-1v-1l1,-1v-1l-3,1v-1h-2l-1,-1h-4l-1,-1l-1,1h-7l1,1l1,1v1h-2v1h-2l-3,-1h-2v1l-1,-1h-3l-1,-1l1,-1v-1l-1,-1l-1,1h-1l-1,-2v-1h-2l1,-1l-1,-1h-1l-1,-1h-1l-2,-1l-2,-1v-1l-2,-1v-1h1l1,1l1,-1v-1h-1v-1h-2l-2,-1h-1v-1h1l1,-1l-2,-1h-2l-1,-1h-4l-2,-1h-6l-1,1v-3l-1,-2v-1l1,-1h1v-1l-2,-1h2v-1l1,-1h2l1,-1l1,-1l1,-1v-1l-1,-1v1l-1,-1h2l1,-1l1,-1h1l1,-1h1v-1h2l-1,-1l-1,-1l1,-1h1v-2h-1h1l1,-1v-1h-1v1l-1,-1h-3l-1,-1l-1,1h-5l-3,-3h-2l-1,1h-2v-2h-2l-1,-1h-2l-1,-1h-1l-2,-1l1,-1l-1,-1l-1,-1h-1l-1,-1h-1l-1,-1h-1l1,-1h-2v-1h-1l1,-1h-1l1,-1h-2v-2l-1,-1v-2h1v-2h1v-1h1l1,-1h-2l1,-1l-1,-1h2l1,-1l2,1v-1l-1,-1v-1h-1v-1l1,-1h2v-1h2l1,-1h4l2,-1h-1v-1h1v-1h1v-1h4l1,1l3,-1h1v-2l-3,-1h-1l-2,-1l1,-1l2,-1l-1,-1l1,-1h1l-1,-1l-3,-1v-1l1,-1l-2,-1h-10l-1,-1l-1,-1h-1l1,-1h-2v-2l2,-1h1l1,-1h2l1,-1l1,-1h1v-1h-10v-1l2,-1h-2l-1,-1l-1,-1l-3,-2l-1,-1h-7l1,-1l-1,-1h-1v-2h-1l-2,-1h-1l-1,-1h3l2,-1v-1h-1l1,-1l1,-1h4v-1h1v-1h-1v-2h1v-1h-3l-3,-1l-1,-1l-1,-1h1l1,-1h1l-1,-1h-3l-2,1h-1l-1,-1h-1l-2,1h-3l1,-1v-1l-2,-1v-1l-1,-1l1,-1h1l2,-1l1,1l1,1h3l1,-2h1l1,-1h1l1,-1h2l2,-1l1,-1h2l1,-1h3l3,-1l1,-1h-2l-1,-1h1l3,-1l-1,-1l-5,2h-3l-1,-1l-1,-2h1l1,-1l-1,-1l2,-1l3,-1v-1l3,-2v-1l1,-1h2l1,-1l2,-1l-1,-2l2,-1h-2v-3l1,-1v-1l-1,-1v-2l-1,-1l-2,-1l-1,-1l-1,-1l-3,-1l-1,-1l-2,-1v-1l1,-2h1v-1h-1l-5,-1h-2v-2h-1l1,-1h2h-2v-1l-4,-1h-3l-1,-1h1l2,-1l1,-1l-1,-1h-1l-1,-1h1h-2v-2h6l1,-1h3v-1h2l2,1h6v-1l-1,-1l-2,-1l-2,-1h6l2,1l2,1h8l1,2h5l1,1h4v-1h-1h1v-1h-2v-1h3l1,1h1l1,-1v1h5v-1h2l2,-1h3l5,-1l4,-1h2l1,1h4l1,-1h2l1,-1l1,-1v-1l3,-1v-2h-2l-1,-1h-1l-1,-1h-1l-2,-1h-2l-1,-1h-2l-1,-1h1v-1h4l1,-1v-1h1v-2h9l2,-1l1,-1l1,-1h1v-1h4l1,-1l2,-1v-1l1,-1h7v-1h-1l-1,-1l-1,-1l1,-1l-1,-1l1,-1l2,-1v-1l1,-1v-1l-1,-2v-1h-2l-2,-1l-1,-1v-1l-1,-1l-1,-1l-1,1l-1,1h-1l-1,1l-3,-1h-6v-1h-9l-4,-2h-1v-3l-2,-2h3l1,-1l2,1h1l1,-1l-4,-2h-1l1,-1v-1h-1l1,-1h1v-1h17v1h5l2,-1h1l1,1h4v-1l1,-3l1,-4v-5l2,-2v-1l2,-2l5,-3l2,-2l2,-4l1,-1l-1,-2l-1,-4l1,-1l-1,-1l-1,-1v-2h1l1,-1l1,-1h1h-1v-3l-1,-1h1v-1h1l1,-1v-2l1,-1v-1h1v-1h-7l1,-1v-1l-2,2l-4,-1l-6,1h-1v-1h-1l-1,1l-1,-1h-2l-1,-1l2,-2l-1,-1v-1l1,-2v-1l1,-2v-1l2,-1l1,-1h3l1,1l1,-1h-1v-1h3l1,-1h2h-3l-1,-1h-1l-1,-1h-2l1,-1h1l3,-2h2v-1h1l1,-1l4,-1l1,-1h1l4,-1h2l3,-1h2l1,1h3l3,-1h1l4,1h10l2,-1h3l3,-1h14l3,-1h14l2,1h2l-1,1v1l1,1h-1l1,1h1v1h1l2,-1h1l2,2v1h1l2,2l2,2v1l-1,1h-2l-1,1h1l-3,1h-4l1,1v1l1,1l2,1h6l1,1l2,1l1,1l3,1h2l1,-1l3,-1v-2h1l1,-2v-4h-3l-2,1h-4v-1l2,-4v-1l2,-1h1l3,-1l3,1h2v1l2,1l2,1h3l2,1h6l2,1h2v1l-1,1h-2l-1,1h-1l-2,2v5l1,2v2l1,-1h1l-1,-1v-7l1,-1l1,-1h3v-1h1l1,-1v-1l-3,-2l-1,-1h1h-1l-1,-1l-2,-3h-1l-1,-1v-2l1,-2l3,-4l1,-1l2,-3v-1l2,-2l1,-1h2l-1,-1h1l5,-1h2v1h1l2,1h1l1,1h2l2,1h6l2,1h7l1,-1h8v1h1l-1,-1h-1l5,-1l4,-1h10l6,1l3,1h1v1l1,1l2,1v1l2,2h2v1l2,1l3,2l3,1l1,1l2,2l1,1l1,1l1,1h2l1,1l2,1h3l1,1h1l3,1l1,1l1,-1h3l1,1h4l1,1h3l1,-1v-1l-6,-1h-9l-1,-1h-2l-3,-1l-1,-1h-3l-1,-1l-1,-1l-1,-1v-1v1l1,1h2h-1l-1,-1v-2l-1,-1l-2,-2h-2l-2,-1h-2l-2,-1l-1,-1l-1,-1v-1l-2,-2v-1l-2,-1h-2l-1,-1h-1l-3,-1l-4,-1l-2,-1h-8l1,-1l-3,1h-7l-3,-1l-2,1h-3l-2,-1h-1l-2,-1v-1h-1l-1,-1v-1h-1l-1,-1l1,-1h-1h1h-2l-2,-2v-1h-1v-1h9l1,1h2l1,1v-1h3v-2h1l-1,-1v-1l1,-1h-1l-2,-2l-1,-1h1l-1,-1h-4v1h-4l-2,1h-1v-1h-1l-2,-1l-1,-2h-1l1,-1v-1l1,-1h1l1,-2h-1v-1h1v-1l3,1l2,-1h2l1,-1h1l1,-1v-1h1l-1,-1l-3,2h-2l-1,1h-1l-1,-1h2h-1l-1,-1h-3l-1,1h-2l-1,1h-2l-1,-1h-5l-2,1v1h-2l-2,-1h-1l-2,-1v-1h-2h1l1,1h-1l-1,-1h-1v-1h-1l1,1l1,1h1h-3v-2l1,-2h1v-1h1v1h4l3,-1h1v-1h-4v1l-2,-1h-2v-1h2l1,-1h2h-1h6l1,-1h9" style="stroke: black; stroke-width: 1; fill: none;"></path>
    </g>
   </svg>
   <g>
    <g transform="translate(0,640)">
     <path d="M0,0h960M18,-10V0M37,-10V0M56,-19V0M76,-10V0M95,-10V0M114,-10V0M133,-10V0M152,-19V0M171,-10V0M190,-10V0M209,-10V0M228,-10V0M248,-19V0M267,-10V0M286,-10V0M305,-10V0M324,-10V0M343,-19V0M362,-10V0M381,-10V0M400,-10V0M420,-10V0M439,-19V0M458,-10V0M477,-10V0M496,-10V0M515,-10V0M534,-19V0M553,-10V0M572,-10V0M592,-10V0M611,-10V0M630,-19V0M649,-10V0M668,-10V0M687,-10V0M706,-10V0M725,-19V0M744,-10V0M763,-10V0M783,-10V0M802,-10V0M821,-19V0M840,-10V0M859,-10V0M878,-10V0M897,-10V0M916,-19V0M935,-10V0M955,-10V0" style="stroke: black; stroke-width: 1;"></path>
     <g font-family="Arial" font-size="28" xml:space="preserve" fill="black" text-anchor="middle"><text dy=".8em" transform="translate(56,5)">6</text><text dy=".8em" transform="translate(152,5)">7</text><text dy=".8em" transform="translate(248,5)">8</text><text dy=".8em" transform="translate(343,5)">9</text><text dy=".8em" transform="translate(439,5)">10</text><text dy=".8em" transform="translate(534,5)">11</text><text dy=".8em" transform="translate(630,5)">12</text><text dy=".8em" transform="translate(725,5)">13</text><text dy=".8em" transform="translate(821,5)">14</text><text dy=".8em" transform="translate(916,5)">15</text></g>
    </g>
    <g>
     <path d="M0,0v640M29,632H0M15,617H0M15,602H0M15,587H0M15,572H0M29,557H0M15,542H0M15,527H0M15,512H0M15,497H0M29,482H0M15,467H0M15,452H0M15,437H0M15,422H0M29,407H0M15,392H0M15,377H0M15,362H0M15,347H0M29,332H0M15,317H0M15,302H0M15,288H0M15,273H0M29,258H0M15,243H0M15,228H0M15,213H0M15,198H0M29,183H0M15,168H0M15,153H0M15,138H0M15,123H0M29,108H0M15,93H0M15,78H0M15,63H0M15,48H0M29,33H0M15,18H0M15,3H0" style="stroke: black; stroke-width: 1;"></path>
     <g font-family="Arial" font-size="28" xml:space="preserve" fill="black" text-anchor="end"><text dominant-baseline="middle" transform="translate(-6,632)">47</text><text dominant-baseline="middle" transform="translate(-6,557)">48</text><text dominant-baseline="middle" transform="translate(-6,482)">49</text><text dominant-baseline="middle" transform="translate(-6,407)">50</text><text dominant-baseline="middle" transform="translate(-6,332)">51</text><text dominant-baseline="middle" transform="translate(-6,258)">52</text><text dominant-baseline="middle" transform="translate(-6,183)">53</text><text dominant-baseline="middle" transform="translate(-6,108)">54</text><text dominant-baseline="middle" transform="translate(-6,33)">55</text></g>
    </g>
   </g>
  </g>
  <g transform="translate(120,4)" font-family="Arial" font-size="40" xml:space="preserve"><text fill="black" text-anchor="middle" dy=".8em" transform="translate(480)">germany</text></g>
 </g>
</svg>