<svg xmlns="http://www.w3.org/2000/svg" viewBox="0 0 1200 800" preserveAspectRatio="none" width="1200" height="800">
 <path d="M0,0H1200V800H0Z" style="fill: white;"></path>
 <g>
  <g transform="translate(120,80)">
   <path d="M0,0H960V640H0Z" style="fill: white; stroke: black; stroke-width: 1;"></path>
   <svg x="0" y="0" overflow="hidden" width="960" height="640" viewBox="0 0 960 640">
    <g>
     <path style="fill: #263ea8; stroke: #00009a; stroke-width: 1;" d="M0,632v-17l19,-9l19,9v17l-19,8zM38,632v-17l20,-9l19,9v17l-19,8zM77,632v-17l19,-9l19,9v17l-19,8zM115,632v-17l19,-9l20,9v17l-20,8zM154,632v-17l19,-9l19,9v17l-19,8zM192,632v-17l19,-9l19,9v17l-19,8zM806,632v-17l20,-9l19,9v17l-19,8zM845,632v-17l19,-9l19,9v17l-19,8zM883,632v-17l19,-9l20,9v17l-20,8zM922,632v-17l19,-9l19,9v17l-19,8zM19,606v-17l19,-8l20,8v17l-20,9zM58,606v-17l19,-8l19,8v17l-19,9zM96,606v-17l19,-8l19,8v17l-19,9zM826,606v-17l19,-8l19,8v17l-19,9zM864,606v-17l19,-8l19,8v17l-19,9zM902,606v-17l20,-8l19,8v17l-19,9zM0,581v-17l19,-8l19,8v17l-19,8zM38,581v-17l20,-8l19,8v17l-19,8zM768,581v-17l19,-8l19,8v17l-19,8zM806,581v-17l20,-8l19,8v17l-19,8zM883,581v-17l19,-8l20,8v17l-20,8zM922,581v-17l19,-8l19,8v17l-19,8zM864,556v-17l19,-8l19,8v17l-19,8zM902,556v-17l20,-8l19,8v17l-19,8zM0,531v-17l19,-9l19,9v17l-19,8zM845,531v-17l19,-9l19,9v17l-19,8zM883,531v-17l19,-9l20,9v17l-20,8zM922,531v-17l19,-9l19,9v17l-19,8zM922,480v-17l19,-8l19,8v17l-19,8zM902,455v-17l20,-9l19,9v17l-19,8zM883,429v-16l19,-9l20,9v16l-20,9zM922,429v-16l19,-9l19,9v16l-19,9zM883,177v-17l19,-8l20,8v17l-20,8zM922,177v-17l19,-8l19,8v17l-19,8zM902,152v-17l20,-9l19,9v17l-19,8zM883,126v-17l19,-8l20,8v17l-20,9zM922,126v-17l19,-8l19,8v17l-19,9zM864,101v-17l19,-8l19,8v17l-19,8zM902,101v-17l20,-8l19,8v17l-19,8zM0,76v-17l19,-8l19,8v17l-19,8zM806,76v-17l20,-8l19,8v17l-19,8zM845,76v-17l19,-8l19,8v17l-19,8zM883,76v-17l19,-8l20,8v17l-20,8zM922,76v-17l19,-8l19,8v17l-19,8zM19,51v-17l19,-9l20,9v17l-20,8zM58,51v-17l19,-9l19,9v17l-19,8zM787,51v-17l19,-9l20,9v17l-20,8zM864,51v-17l19,-9l19,9v17l-19,8zM902,51v-17l20,-9l19,9v17l-19,8zM0,25v-17l19,-8l19,8v17l-19,9zM38,25v-17l20,-8l19,8v17l-19,9zM77,25v-17l19,-8l19,8v17l-19,9zM730,25v-17l19,-8l19,8v17l-19,9zM806,25v-17l20,-8l19,8v17l-19,9zM883,25v-17l19,-8l20,8v17l-20,9zM922,25v-17l19,-8l19,8v17l-19,9z"></path>
     <path style="fill: #1652cd; stroke: #00009a; stroke-width: 1;" d="M422,632v-17l20,-9l19,9v17l-19,8zM614,632v-17l20,-9l19,9v17l-19,8zM653,632v-17l19,-9l19,9v17l-19,8zM691,632v-17l19,-9l20,9v17l-20,8zM730,632v-17l19,-9l19,9v17l-19,8zM768,632v-17l19,-9l19,9v17l-19,8zM134,606v-17l20,-8l19,8v17l-19,9zM173,606v-17l19,-8l19,8v17l-19,9zM710,606v-17l20,-8l19,8v17l-19,9zM749,606v-17l19,-8l19,8v17l-19,9zM787,606v-17l19,-8l20,8v17l-20,9zM77,581v-17l19,-8l19,8v17l-19,8zM115,581v-17l19,-8l20,8v17l-20,8zM730,581v-17l19,-8l19,8v17l-19,8zM845,581v-17l19,-8l19,8v17l-19,8zM19,556v-17l19,-8l20,8v17l-20,8zM58,556v-17l19,-8l19,8v17l-19,8zM96,556v-17l19,-8l19,8v17l-19,8zM749,556v-17l19,-8l19,8v17l-19,8zM787,556v-17l19,-8l20,8v17l-20,8zM826,556v-17l19,-8l19,8v17l-19,8zM38,531v-17l20,-9l19,9v17l-19,8zM77,531v-17l19,-9l19,9v17l-19,8zM19,505v-17l19,-8l20,8v17l-20,9zM864,505v-17l19,-8l19,8v17l-19,9zM902,505v-17l20,-8l19,8v17l-19,9zM0,480v-17l19,-8l19,8v17l-19,8zM845,480v-17l19,-8l19,8v17l-19,8zM883,480v-17l19,-8l20,8v17l-20,8zM845,429v-16l19,-9l19,9v16l-19,9zM902,404v-17l20,-8l19,8v17l-19,9zM922,379v-17l19,-8l19,8v17l-19,8zM864,354v-17l19,-9l19,9v17l-19,8zM902,354v-17l20,-9l19,9v17l-19,8zM922,328v-16l19,-9l19,9v16l-19,9zM902,303v-17l20,-8l19,8v17l-19,9zM922,278v-17l19,-8l19,8v17l-19,8zM902,253v-17l20,-9l19,9v17l-19,8zM883,227v-16l19,-9l20,9v16l-20,9zM922,227v-16l19,-9l19,9v16l-19,9zM902,202v-17l20,-8l19,8v17l-19,9zM0,177v-17l19,-8l19,8v17l-19,8zM864,152v-17l19,-9l19,9v17l-19,8zM0,126v-17l19,-8l19,8v17l-19,9zM38,126v-17l20,-8l19,8v17l-19,9zM806,126v-17l20,-8l19,8v17l-19,9zM845,126v-17l19,-8l19,8v17l-19,9zM19,101v-17l19,-8l20,8v17l-20,8zM58,101v-17l19,-8l19,8v17l-19,8zM787,101v-17l19,-8l20,8v17l-20,8zM38,76v-17l20,-8l19,8v17l-19,8zM77,76v-17l19,-8l19,8v17l-19,8zM730,76v-17l19,-8l19,8v17l-19,8zM96,51v-17l19,-9l19,9v17l-19,8zM134,51v-17l20,-9l19,9v17l-19,8zM749,51v-17l19,-9l19,9v17l-19,8zM826,51v-17l19,-9l19,9v17l-19,8zM115,25v-17l19,-8l20,8v17l-20,9zM154,25v-17l19,-8l19,8v17l-19,9zM768,25v-17l19,-8l19,8v17l-19,9zM845,25v-17l19,-8l19,8v17l-19,9z"></path>
     <path style="fill: #1064dc; stroke: #00009a; stroke-width: 1;" d="M230,632v-17l20,-9l19,9v17l-19,8zM346,632v-17l19,-9l19,9v17l-19,8zM384,632v-17l19,-9l19,9v17l-19,8zM499,632v-17l19,-9l20,9v17l-20,8zM576,632v-17l19,-9l19,9v17l-19,8zM211,606v-17l19,-8l20,8v17l-20,9zM250,606v-17l19,-8l19,8v17l-19,9zM288,606v-17l19,-8l19,8v17l-19,9zM595,606v-17l19,-8l20,8v17l-20,9zM634,606v-17l19,-8l19,8v17l-19,9zM672,606v-17l19,-8l19,8v17l-19,9zM154,581v-17l19,-8l19,8v17l-19,8zM230,581v-17l20,-8l19,8v17l-19,8zM653,581v-17l19,-8l19,8v17l-19,8zM691,581v-17l19,-8l20,8v17l-20,8zM211,556v-17l19,-8l20,8v17l-20,8zM115,531v-17l19,-9l20,9v17l-20,8zM730,531v-17l19,-9l19,9v17l-19,8zM806,531v-17l20,-9l19,9v17l-19,8zM58,505v-17l19,-8l19,8v17l-19,9zM826,505v-17l19,-8l19,8v17l-19,9zM38,480v-17l20,-8l19,8v17l-19,8zM77,480v-17l19,-8l19,8v17l-19,8zM806,480v-17l20,-8l19,8v17l-19,8zM19,455v-17l19,-9l20,9v17l-20,8zM826,455v-17l19,-9l19,9v17l-19,8zM864,455v-17l19,-9l19,9v17l-19,8zM0,429v-16l19,-9l19,9v16l-19,9zM38,429v-16l20,-9l19,9v16l-19,9zM19,404v-17l19,-8l20,8v17l-20,9zM787,404v-17l19,-8l20,8v17l-20,9zM826,404v-17l19,-8l19,8v17l-19,9zM864,404v-17l19,-8l19,8v17l-19,9zM0,379v-17l19,-8l19,8v17l-19,8zM806,379v-17l20,-8l19,8v17l-19,8zM883,379v-17l19,-8l20,8v17l-20,8zM0,328v-16l19,-9l19,9v16l-19,9zM845,328v-16l19,-9l19,9v16l-19,9zM883,328v-16l19,-9l20,9v16l-20,9zM19,303v-17l19,-8l20,8v17l-20,9zM58,303v-17l19,-8l19,8v17l-19,9zM826,303v-17l19,-8l19,8v17l-19,9zM864,303v-17l19,-8l19,8v17l-19,9zM0,278v-17l19,-8l19,8v17l-19,8zM845,278v-17l19,-8l19,8v17l-19,8zM883,278v-17l19,-8l20,8v17l-20,8zM58,253v-17l19,-9l19,9v17l-19,8zM826,253v-17l19,-9l19,9v17l-19,8zM864,253v-17l19,-9l19,9v17l-19,8zM0,227v-16l19,-9l19,9v16l-19,9zM845,227v-16l19,-9l19,9v16l-19,9zM19,202v-17l19,-8l20,8v17l-20,9zM826,202v-17l19,-8l19,8v17l-19,9zM864,202v-17l19,-8l19,8v17l-19,9zM806,177v-17l20,-8l19,8v17l-19,8zM58,152v-17l19,-9l19,9v17l-19,8zM826,152v-17l19,-9l19,9v17l-19,8zM672,101v-17l19,-8l19,8v17l-19,8zM826,101v-17l19,-8l19,8v17l-19,8zM173,51v-17l19,-9l19,9v17l-19,8zM211,51v-17l19,-9l20,9v17l-20,8zM250,51v-17l19,-9l19,9v17l-19,8zM672,51v-17l19,-9l19,9v17l-19,8zM710,51v-17l20,-9l19,9v17l-19,8zM192,25v-17l19,-8l19,8v17l-19,9zM614,25v-17l20,-8l19,8v17l-19,9zM691,25v-17l19,-8l20,8v17l-20,9z"></path>
     <path style="fill: #1272d9; stroke: #00009a; stroke-width: 1;" d="M269,632v-17l19,-9l19,9v17l-19,8zM307,632v-17l19,-9l20,9v17l-20,8zM461,632v-17l19,-9l19,9v17l-19,8zM538,632v-17l19,-9l19,9v17l-19,8zM365,606v-17l19,-8l19,8v17l-19,9zM442,606v-17l19,-8l19,8v17l-19,9zM518,606v-17l20,-8l19,8v17l-19,9zM557,606v-17l19,-8l19,8v17l-19,9zM192,581v-17l19,-8l19,8v17l-19,8zM269,581v-17l19,-8l19,8v17l-19,8zM346,581v-17l19,-8l19,8v17l-19,8zM538,581v-17l19,-8l19,8v17l-19,8zM576,581v-17l19,-8l19,8v17l-19,8zM614,581v-17l20,-8l19,8v17l-19,8zM134,556v-17l20,-8l19,8v17l-19,8zM173,556v-17l19,-8l19,8v17l-19,8zM634,556v-17l19,-8l19,8v17l-19,8zM672,556v-17l19,-8l19,8v17l-19,8zM710,556v-17l20,-8l19,8v17l-19,8zM154,531v-17l19,-9l19,9v17l-19,8zM768,531v-17l19,-9l19,9v17l-19,8zM96,505v-17l19,-8l19,8v17l-19,9zM134,505v-17l20,-8l19,8v17l-19,9zM710,505v-17l20,-8l19,8v17l-19,9zM749,505v-17l19,-8l19,8v17l-19,9zM787,505v-17l19,-8l20,8v17l-20,9zM768,480v-17l19,-8l19,8v17l-19,8zM58,455v-17l19,-9l19,9v17l-19,8zM96,455v-17l19,-9l19,9v17l-19,8zM787,455v-17l19,-9l20,9v17l-20,8zM806,429v-16l20,-9l19,9v16l-19,9zM38,379v-17l20,-8l19,8v17l-19,8zM845,379v-17l19,-8l19,8v17l-19,8zM19,354v-17l19,-9l20,9v17l-20,8zM787,354v-17l19,-9l20,9v17l-20,8zM38,328v-16l20,-9l19,9v16l-19,9zM19,253v-17l19,-9l20,9v17l-20,8zM806,227v-16l20,-9l19,9v16l-19,9zM38,177v-17l20,-8l19,8v17l-19,8zM845,177v-17l19,-8l19,8v17l-19,8zM19,152v-17l19,-9l20,9v17l-20,8zM787,152v-17l19,-9l20,9v17l-20,8zM77,126v-17l19,-8l19,8v17l-19,9zM115,126v-17l19,-8l20,8v17l-20,9zM768,126v-17l19,-8l19,8v17l-19,9zM96,101v-17l19,-8l19,8v17l-19,8zM173,101v-17l19,-8l19,8v17l-19,8zM710,101v-17l20,-8l19,8v17l-19,8zM749,101v-17l19,-8l19,8v17l-19,8zM115,76v-17l19,-8l20,8v17l-20,8zM154,76v-17l19,-8l19,8v17l-19,8zM192,76v-17l19,-8l19,8v17l-19,8zM269,76v-17l19,-8l19,8v17l-19,8zM653,76v-17l19,-8l19,8v17l-19,8zM691,76v-17l19,-8l20,8v17l-20,8zM768,76v-17l19,-8l19,8v17l-19,8zM634,51v-17l19,-9l19,9v17l-19,8zM230,25v-17l20,-8l19,8v17l-19,9zM269,25v-17l19,-8l19,8v17l-19,9zM307,25v-17l19,-8l20,8v17l-20,9zM384,25v-17l19,-8l19,8v17l-19,9zM499,25v-17l19,-8l20,8v17l-20,9zM538,25v-17l19,-8l19,8v17l-19,9zM576,25v-17l19,-8l19,8v17l-19,9zM653,25v-17l19,-8l19,8v17l-19,9z"></path>
     <path style="fill: #1481d6; stroke: #00009a; stroke-width: 1;" d="M326,606v-17l20,-8l19,8v17l-19,9zM403,606v-17l19,-8l20,8v17l-20,9zM480,606v-17l19,-8l19,8v17l-19,9zM307,581v-17l19,-8l20,8v17l-20,8zM384,581v-17l19,-8l19,8v17l-19,8zM422,581v-17l20,-8l19,8v17l-19,8zM461,581v-17l19,-8l19,8v17l-19,8zM499,581v-17l19,-8l20,8v17l-20,8zM250,556v-17l19,-8l19,8v17l-19,8zM326,556v-17l20,-8l19,8v17l-19,8zM269,531v-17l19,-9l19,9v17l-19,8zM307,531v-17l19,-9l20,9v17l-20,8zM653,531v-17l19,-9l19,9v17l-19,8zM691,531v-17l19,-9l20,9v17l-20,8zM672,505v-17l19,-8l19,8v17l-19,9zM115,480v-17l19,-8l20,8v17l-20,8zM730,480v-17l19,-8l19,8v17l-19,8zM710,455v-17l20,-9l19,9v17l-19,8zM749,455v-17l19,-9l19,9v17l-19,8zM77,429v-16l19,-9l19,9v16l-19,9zM768,429v-16l19,-9l19,9v16l-19,9zM58,404v-17l19,-8l19,8v17l-19,9zM58,354v-17l19,-9l19,9v17l-19,8zM96,354v-17l19,-9l19,9v17l-19,8zM749,354v-17l19,-9l19,9v17l-19,8zM826,354v-17l19,-9l19,9v17l-19,8zM768,328v-16l19,-9l19,9v16l-19,9zM806,328v-16l20,-9l19,9v16l-19,9zM787,303v-17l19,-8l20,8v17l-20,9zM38,278v-17l20,-8l19,8v17l-19,8zM768,278v-17l19,-8l19,8v17l-19,8zM806,278v-17l20,-8l19,8v17l-19,8zM787,253v-17l19,-9l20,9v17l-20,8zM38,227v-16l20,-9l19,9v16l-19,9zM77,227v-16l19,-9l19,9v16l-19,9zM58,202v-17l19,-8l19,8v17l-19,9zM749,202v-17l19,-8l19,8v17l-19,9zM787,202v-17l19,-8l20,8v17l-20,9zM77,177v-17l19,-8l19,8v17l-19,8zM768,177v-17l19,-8l19,8v17l-19,8zM96,152v-17l19,-9l19,9v17l-19,8zM134,152v-17l20,-9l19,9v17l-19,8zM710,152v-17l20,-9l19,9v17l-19,8zM749,152v-17l19,-9l19,9v17l-19,8zM653,126v-17l19,-8l19,8v17l-19,9zM691,126v-17l19,-8l20,8v17l-20,9zM730,126v-17l19,-8l19,8v17l-19,9zM134,101v-17l20,-8l19,8v17l-19,8zM250,101v-17l19,-8l19,8v17l-19,8zM230,76v-17l20,-8l19,8v17l-19,8zM614,76v-17l20,-8l19,8v17l-19,8zM288,51v-17l19,-9l19,9v17l-19,8zM403,51v-17l19,-9l20,9v17l-20,8zM442,51v-17l19,-9l19,9v17l-19,8zM518,51v-17l20,-9l19,9v17l-19,8zM557,51v-17l19,-9l19,9v17l-19,8zM595,51v-17l19,-9l20,9v17l-20,8zM346,25v-17l19,-8l19,8v17l-19,9zM422,25v-17l20,-8l19,8v17l-19,9z"></path>
     <path style="fill: #0e8fd1; stroke: #00009a; stroke-width: 1;" d="M288,556v-17l19,-8l19,8v17l-19,8zM403,556v-17l19,-8l20,8v17l-20,8zM442,556v-17l19,-8l19,8v17l-19,8zM557,556v-17l19,-8l19,8v17l-19,8zM595,556v-17l19,-8l20,8v17l-20,8zM192,531v-17l19,-9l19,9v17l-19,8zM230,531v-17l20,-9l19,9v17l-19,8zM499,531v-17l19,-9l20,9v17l-20,8zM614,531v-17l20,-9l19,9v17l-19,8zM173,505v-17l19,-8l19,8v17l-19,9zM557,505v-17l19,-8l19,8v17l-19,9zM595,505v-17l19,-8l20,8v17l-20,9zM154,480v-17l19,-8l19,8v17l-19,8zM192,480v-17l19,-8l19,8v17l-19,8zM691,480v-17l19,-8l20,8v17l-20,8zM173,455v-17l19,-9l19,9v17l-19,8zM115,429v-16l19,-9l20,9v16l-20,9zM154,429v-16l19,-9l19,9v16l-19,9zM96,404v-17l19,-8l19,8v17l-19,9zM749,404v-17l19,-8l19,8v17l-19,9zM77,379v-17l19,-8l19,8v17l-19,8zM768,379v-17l19,-8l19,8v17l-19,8zM96,303v-17l19,-8l19,8v17l-19,9zM749,303v-17l19,-8l19,8v17l-19,9zM77,278v-17l19,-8l19,8v17l-19,8zM96,253v-17l19,-9l19,9v17l-19,8zM749,253v-17l19,-9l19,9v17l-19,8zM115,227v-16l19,-9l20,9v16l-20,9zM730,227v-16l19,-9l19,9v16l-19,9zM768,227v-16l19,-9l19,9v16l-19,9zM96,202v-17l19,-8l19,8v17l-19,9zM115,177v-17l19,-8l20,8v17l-20,8zM691,177v-17l19,-8l20,8v17l-20,8zM730,177v-17l19,-8l19,8v17l-19,8zM173,152v-17l19,-9l19,9v17l-19,8zM154,126v-17l19,-8l19,8v17l-19,9zM192,126v-17l19,-8l19,8v17l-19,9zM211,101v-17l19,-8l20,8v17l-20,8zM634,101v-17l19,-8l19,8v17l-19,8zM499,76v-17l19,-8l20,8v17l-20,8zM538,76v-17l19,-8l19,8v17l-19,8zM326,51v-17l20,-9l19,9v17l-19,8zM365,51v-17l19,-9l19,9v17l-19,8zM461,25v-17l19,-8l19,8v17l-19,9z"></path>
     <path style="fill: #099dcc; stroke: #00009a; stroke-width: 1;" d="M365,556v-17l19,-8l19,8v17l-19,8zM480,556v-17l19,-8l19,8v17l-19,8zM518,556v-17l20,-8l19,8v17l-19,8zM576,531v-17l19,-9l19,9v17l-19,8zM211,505v-17l19,-8l20,8v17l-20,9zM250,505v-17l19,-8l19,8v17l-19,9zM326,505v-17l20,-8l19,8v17l-19,9zM634,505v-17l19,-8l19,8v17l-19,9zM614,480v-17l20,-8l19,8v17l-19,8zM134,455v-17l20,-9l19,9v17l-19,8zM634,455v-17l19,-9l19,9v17l-19,8zM672,455v-17l19,-9l19,9v17l-19,8zM691,429v-16l19,-9l20,9v16l-20,9zM730,429v-16l19,-9l19,9v16l-19,9zM134,404v-17l20,-8l19,8v17l-19,9zM710,404v-17l20,-8l19,8v17l-19,9zM691,379v-17l19,-8l20,8v17l-20,8zM730,379v-17l19,-8l19,8v17l-19,8zM134,354v-17l20,-9l19,9v17l-19,8zM710,354v-17l20,-9l19,9v17l-19,8zM77,328v-16l19,-9l19,9v16l-19,9zM691,328v-16l19,-9l20,9v16l-20,9zM730,328v-16l19,-9l19,9v16l-19,9zM115,278v-17l19,-8l20,8v17l-20,8zM154,278v-17l19,-8l19,8v17l-19,8zM730,278v-17l19,-8l19,8v17l-19,8zM134,253v-17l20,-9l19,9v17l-19,8zM154,227v-16l19,-9l19,9v16l-19,9zM134,202v-17l20,-8l19,8v17l-19,9zM710,202v-17l20,-8l19,8v17l-19,9zM192,177v-17l19,-8l19,8v17l-19,8zM211,152v-17l19,-9l20,9v17l-20,8zM634,152v-17l19,-9l19,9v17l-19,8zM230,126v-17l20,-8l19,8v17l-19,9zM288,101v-17l19,-8l19,8v17l-19,8zM595,101v-17l19,-8l20,8v17l-20,8zM307,76v-17l19,-8l20,8v17l-20,8zM346,76v-17l19,-8l19,8v17l-19,8zM384,76v-17l19,-8l19,8v17l-19,8zM422,76v-17l20,-8l19,8v17l-19,8zM576,76v-17l19,-8l19,8v17l-19,8zM480,51v-17l19,-9l19,9v17l-19,8z"></path>
     <path style="fill: #0da7c3; stroke: #00009a; stroke-width: 1;" d="M384,531v-17l19,-9l19,9v17l-19,8zM538,531v-17l19,-9l19,9v17l-19,8zM230,480v-17l20,-8l19,8v17l-19,8zM576,480v-17l19,-8l19,8v17l-19,8zM653,480v-17l19,-8l19,8v17l-19,8zM211,455v-17l19,-9l20,9v17l-20,8zM173,404v-17l19,-8l19,8v17l-19,9zM154,379v-17l19,-8l19,8v17l-19,8zM115,328v-16l19,-9l20,9v16l-20,9zM710,253v-17l20,-9l19,9v17l-19,8zM691,227v-16l19,-9l20,9v16l-20,9zM173,202v-17l19,-8l19,8v17l-19,9zM154,177v-17l19,-8l19,8v17l-19,8zM653,177v-17l19,-8l19,8v17l-19,8zM250,152v-17l19,-9l19,9v17l-19,8zM672,152v-17l19,-9l19,9v17l-19,8zM269,126v-17l19,-8l19,8v17l-19,9zM326,101v-17l20,-8l19,8v17l-19,8zM365,101v-17l19,-8l19,8v17l-19,8zM518,101v-17l20,-8l19,8v17l-19,8zM557,101v-17l19,-8l19,8v17l-19,8zM461,76v-17l19,-8l19,8v17l-19,8z"></path>
     <path style="fill: #1eafb3; stroke: #00009a; stroke-width: 1;" d="M346,531v-17l19,-9l19,9v17l-19,8zM422,531v-17l20,-9l19,9v17l-19,8zM288,505v-17l19,-8l19,8v17l-19,9zM365,505v-17l19,-8l19,8v17l-19,9zM403,505v-17l19,-8l20,8v17l-20,9zM442,505v-17l19,-8l19,8v17l-19,9zM480,505v-17l19,-8l19,8v17l-19,9zM269,480v-17l19,-8l19,8v17l-19,8zM461,480v-17l19,-8l19,8v17l-19,8zM538,480v-17l19,-8l19,8v17l-19,8zM250,455v-17l19,-9l19,9v17l-19,8zM288,455v-17l19,-9l19,9v17l-19,8zM557,455v-17l19,-9l19,9v17l-19,8zM192,429v-16l19,-9l19,9v16l-19,9zM230,429v-16l20,-9l19,9v16l-19,9zM653,429v-16l19,-9l19,9v16l-19,9zM634,404v-17l19,-8l19,8v17l-19,9zM672,404v-17l19,-8l19,8v17l-19,9zM115,379v-17l19,-8l20,8v17l-20,8zM672,354v-17l19,-9l19,9v17l-19,8zM154,328v-16l19,-9l19,9v16l-19,9zM134,303v-17l20,-8l19,8v17l-19,9zM173,303v-17l19,-8l19,8v17l-19,9zM710,303v-17l20,-8l19,8v17l-19,9zM691,278v-17l19,-8l20,8v17l-20,8zM250,253v-17l19,-9l19,9v17l-19,8zM672,253v-17l19,-9l19,9v17l-19,8zM192,227v-16l19,-9l19,9v16l-19,9zM653,227v-16l19,-9l19,9v16l-19,9zM211,202v-17l19,-8l20,8v17l-20,9zM672,202v-17l19,-8l19,8v17l-19,9zM614,177v-17l20,-8l19,8v17l-19,8zM595,152v-17l19,-9l20,9v17l-20,8zM307,126v-17l19,-8l20,8v17l-20,9zM422,126v-17l20,-8l19,8v17l-19,9zM461,126v-17l19,-8l19,8v17l-19,9zM499,126v-17l19,-8l20,8v17l-20,9zM538,126v-17l19,-8l19,8v17l-19,9zM576,126v-17l19,-8l19,8v17l-19,9zM614,126v-17l20,-8l19,8v17l-19,9zM442,101v-17l19,-8l19,8v17l-19,8z"></path>
     <path style="fill: #2eb7a4; stroke: #00009a; stroke-width: 1;" d="M461,531v-17l19,-9l19,9v17l-19,8zM346,480v-17l19,-8l19,8v17l-19,8zM499,480v-17l19,-8l20,8v17l-20,8zM518,455v-17l20,-9l19,9v17l-19,8zM269,429v-16l19,-9l19,9v16l-19,9zM614,429v-16l20,-9l19,9v16l-19,9zM211,404v-17l19,-8l20,8v17l-20,9zM653,379v-17l19,-8l19,8v17l-19,8zM595,354v-17l19,-9l20,9v17l-20,8zM192,328v-16l19,-9l19,9v16l-19,9zM672,303v-17l19,-8l19,8v17l-19,9zM230,278v-17l20,-8l19,8v17l-19,8zM173,253v-17l19,-9l19,9v17l-19,8zM614,227v-16l20,-9l19,9v16l-19,9zM595,202v-17l19,-8l20,8v17l-20,9zM230,177v-17l20,-8l19,8v17l-19,8zM269,177v-17l19,-8l19,8v17l-19,8zM576,177v-17l19,-8l19,8v17l-19,8zM288,152v-17l19,-9l19,9v17l-19,8zM518,152v-17l20,-9l19,9v17l-19,8zM557,152v-17l19,-9l19,9v17l-19,8zM346,126v-17l19,-8l19,8v17l-19,9zM384,126v-17l19,-8l19,8v17l-19,9zM403,101v-17l19,-8l20,8v17l-20,8zM480,101v-17l19,-8l19,8v17l-19,8z"></path>
     <path style="fill: #52ba92; stroke: #00009a; stroke-width: 1;" d="M307,480v-17l19,-8l20,8v17l-20,8zM384,480v-17l19,-8l19,8v17l-19,8zM422,480v-17l20,-8l19,8v17l-19,8zM365,455v-17l19,-9l19,9v17l-19,8zM595,404v-17l19,-8l20,8v17l-20,9zM192,379v-17l19,-8l19,8v17l-19,8zM173,354v-17l19,-9l19,9v17l-19,8zM634,354v-17l19,-9l19,9v17l-19,8zM230,328v-16l20,-9l19,9v16l-19,9zM269,328v-16l19,-9l19,9v16l-19,9zM653,328v-16l19,-9l19,9v16l-19,9zM192,278v-17l19,-8l19,8v17l-19,8zM614,278v-17l20,-8l19,8v17l-19,8zM230,227v-16l20,-9l19,9v16l-19,9zM576,227v-16l19,-9l19,9v16l-19,9zM326,152v-17l20,-9l19,9v17l-19,8zM403,152v-17l19,-9l20,9v17l-20,8z"></path>
     <path style="fill: #74bd81; stroke: #00009a; stroke-width: 1;" d="M518,505v-17l20,-8l19,8v17l-19,9zM326,455v-17l20,-9l19,9v17l-19,8zM403,455v-17l19,-9l20,9v17l-20,8zM480,455v-17l19,-9l19,9v17l-19,8zM595,455v-17l19,-9l20,9v17l-20,8zM346,429v-16l19,-9l19,9v16l-19,9zM461,429v-16l19,-9l19,9v16l-19,9zM538,429v-16l19,-9l19,9v16l-19,9zM576,429v-16l19,-9l19,9v16l-19,9zM538,379v-17l19,-8l19,8v17l-19,8zM614,379v-17l20,-8l19,8v17l-19,8zM250,354v-17l19,-9l19,9v17l-19,8zM288,354v-17l19,-9l19,9v17l-19,8zM576,328v-16l19,-9l19,9v16l-19,9zM250,303v-17l19,-8l19,8v17l-19,9zM634,303v-17l19,-8l19,8v17l-19,9zM653,278v-17l19,-8l19,8v17l-19,8zM211,253v-17l19,-9l20,9v17l-20,8zM269,227v-16l19,-9l19,9v16l-19,9zM250,202v-17l19,-8l19,8v17l-19,9zM557,202v-17l19,-8l19,8v17l-19,9zM634,202v-17l19,-8l19,8v17l-19,9zM346,177v-17l19,-8l19,8v17l-19,8zM538,177v-17l19,-8l19,8v17l-19,8z"></path>
     <path style="fill: #95be71; stroke: #00009a; stroke-width: 1;" d="M307,429v-16l19,-9l20,9v16l-20,9zM422,429v-16l20,-9l19,9v16l-19,9zM250,404v-17l19,-8l19,8v17l-19,9zM288,404v-17l19,-8l19,8v17l-19,9zM365,404v-17l19,-8l19,8v17l-19,9zM230,379v-17l20,-8l19,8v17l-19,8zM557,303v-17l19,-8l19,8v17l-19,9zM269,278v-17l19,-8l19,8v17l-19,8zM326,253v-17l20,-9l19,9v17l-19,8zM557,253v-17l19,-9l19,9v17l-19,8zM634,253v-17l19,-9l19,9v17l-19,8zM365,202v-17l19,-8l19,8v17l-19,9zM518,202v-17l20,-8l19,8v17l-19,9zM307,177v-17l19,-8l20,8v17l-20,8zM384,177v-17l19,-8l19,8v17l-19,8zM422,177v-17l20,-8l19,8v17l-19,8zM461,177v-17l19,-8l19,8v17l-19,8zM365,152v-17l19,-9l19,9v17l-19,8zM442,152v-17l19,-9l19,9v17l-19,8z"></path>
     <path style="fill: #b3bd65; stroke: #00009a; stroke-width: 1;" d="M442,455v-17l19,-9l19,9v17l-19,8zM384,429v-16l19,-9l19,9v16l-19,9zM499,429v-16l19,-9l20,9v16l-20,9zM326,404v-17l20,-8l19,8v17l-19,9zM557,404v-17l19,-8l19,8v17l-19,9zM576,379v-17l19,-8l19,8v17l-19,8zM326,354v-17l20,-9l19,9v17l-19,8zM614,328v-16l20,-9l19,9v16l-19,9zM211,303v-17l19,-8l20,8v17l-20,9zM538,278v-17l19,-8l19,8v17l-19,8zM576,278v-17l19,-8l19,8v17l-19,8zM288,253v-17l19,-9l19,9v17l-19,8zM346,227v-16l19,-9l19,9v16l-19,9zM326,202v-17l20,-8l19,8v17l-19,9zM480,202v-17l19,-8l19,8v17l-19,9zM499,177v-17l19,-8l20,8v17l-20,8zM480,152v-17l19,-9l19,9v17l-19,8z"></path>
     <path style="fill: #d1bb59; stroke: #00009a; stroke-width: 1;" d="M403,404v-17l19,-8l20,8v17l-20,9zM442,404v-17l19,-8l19,8v17l-19,9zM480,404v-17l19,-8l19,8v17l-19,9zM307,379v-17l19,-8l20,8v17l-20,8zM557,354v-17l19,-9l19,9v17l-19,8zM595,303v-17l19,-8l20,8v17l-20,9zM307,278v-17l19,-8l20,8v17l-20,8zM499,278v-17l19,-8l20,8v17l-20,8zM365,253v-17l19,-9l19,9v17l-19,8zM307,227v-16l19,-9l20,9v16l-20,9zM384,227v-16l19,-9l19,9v16l-19,9zM422,227v-16l20,-9l19,9v16l-19,9zM461,227v-16l19,-9l19,9v16l-19,9zM538,227v-16l19,-9l19,9v16l-19,9zM288,202v-17l19,-8l19,8v17l-19,9zM442,202v-17l19,-8l19,8v17l-19,9z"></path>
     <path style="fill: #e2c04b; stroke: #00009a; stroke-width: 1;" d="M518,404v-17l20,-8l19,8v17l-19,9zM269,379v-17l19,-8l19,8v17l-19,8zM211,354v-17l19,-9l20,9v17l-20,8zM365,354v-17l19,-9l19,9v17l-19,8zM518,354v-17l20,-9l19,9v17l-19,8zM346,328v-16l19,-9l19,9v16l-19,9zM422,328v-16l20,-9l19,9v16l-19,9zM499,328v-16l19,-9l20,9v16l-20,9zM288,303v-17l19,-8l19,8v17l-19,9zM365,303v-17l19,-8l19,8v17l-19,9zM403,253v-17l19,-9l20,9v17l-20,8zM442,253v-17l19,-9l19,9v17l-19,8zM595,253v-17l19,-9l20,9v17l-20,8zM499,227v-16l19,-9l20,9v16l-20,9zM403,202v-17l19,-8l20,8v17l-20,9z"></path>
     <path style="fill: #f4c63b; stroke: #00009a; stroke-width: 1;" d="M461,379v-17l19,-8l19,8v17l-19,8zM307,328v-16l19,-9l20,9v16l-20,9zM461,328v-16l19,-9l19,9v16l-19,9zM538,328v-16l19,-9l19,9v16l-19,9zM326,303v-17l20,-8l19,8v17l-19,9zM403,303v-17l19,-8l20,8v17l-20,9zM480,303v-17l19,-8l19,8v17l-19,9zM518,303v-17l20,-8l19,8v17l-19,9zM346,278v-17l19,-8l19,8v17l-19,8z"></path>
     <path style="fill: #fdd22b; stroke: #00009a; stroke-width: 1;" d="M384,379v-17l19,-8l19,8v17l-19,8zM422,379v-17l20,-8l19,8v17l-19,8zM442,354v-17l19,-9l19,9v17l-19,8zM480,354v-17l19,-9l19,9v17l-19,8zM384,278v-17l19,-8l19,8v17l-19,8zM461,278v-17l19,-8l19,8v17l-19,8z"></path>
     <path style="fill: #fbe61d; stroke: #00009a; stroke-width: 1;" d="M346,379v-17l19,-8l19,8v17l-19,8zM499,379v-17l19,-8l20,8v17l-20,8zM403,354v-17l19,-9l20,9v17l-20,8zM384,328v-16l19,-9l19,9v16l-19,9zM480,253v-17l19,-9l19,9v17l-19,8zM518,253v-17l20,-9l19,9v17l-19,8z"></path>
     <path style="fill: #f9f90f; stroke: #00009a; stroke-width: 1;" d="M442,303v-17l19,-8l19,8v17l-19,9zM422,278v-17l20,-8l19,8v17l-19,8z"></path>
    </g>
   </svg>
   <g>
    <g transform="translate(0,640)">
     <path d="M0,0h960M0,-24V0M22,-12V0M44,-12V0M67,-12V0M89,-12V0M111,-24V0M133,-12V0M155,-12V0M177,-12V0M200,-12V0M222,-24V0M244,-12V0M266,-12V0M288,-12V0M310,-12V0M333,-24V0M355,-12V0M377,-12V0M399,-12V0M421,-12V0M443,-24V0M466,-12V0M488,-12V0M510,-12V0M532,-12V0M554,-24V0M576,-12V0M599,-12V0M621,-12V0M643,-12V0M665,-24V0M687,-12V0M709,-12V0M732,-12V0M754,-12V0M776,-24V0M798,-12V0M820,-12V0M842,-12V0M865,-12V0M887,-24V0M909,-12V0M931,-12V0M953,-12V0" style="stroke: black; stroke-width: 1;"></path>
     <g font-family="Arial" font-size="28" space="preserve" fill="black" text-anchor="middle">
      <text dy=".8em" transform="translate(0,6)">
       0
      </text>
      <text dy=".8em" transform="translate(111,6)">
       0.5
      </text>
      <text dy=".8em" transform="translate(222,6)">
       1
      </text>
      <text dy=".8em" transform="translate(333,6)">
       1.5
      </text>
      <text dy=".8em" transform="translate(443,6)">
       2
      </text>
      <text dy=".8em" transform="translate(554,6)">
       2.5
      </text>
      <text dy=".8em" transform="translate(665,6)">
       3
      </text>
      <text dy=".8em" transform="translate(776,6)">
       3.5
      </text>
      <text dy=".8em" transform="translate(887,6)">
       4
      </text>
     </g>
    </g>
    <g>
     <path d="M0,0v640M36,640H0M18,623H0M18,606H0M18,589H0M18,573H0M36,556H0M18,539H0M18,522H0M18,505H0M18,488H0M36,472H0M18,455H0M18,438H0M18,421H0M18,404H0M36,387H0M18,371H0M18,354H0M18,337H0M18,320H0M36,303H0M18,286H0M18,269H0M18,253H0M18,236H0M36,219H0M18,202H0M18,185H0M18,168H0M18,152H0M36,135H0M18,118H0M18,101H0M18,84H0M18,67H0M36,51H0M18,34H0M18,17H0" style="stroke: black; stroke-width: 1;"></path>
     <g font-family="Arial" font-size="28" space="preserve" fill="black" text-anchor="end">
      <text dy=".4em" transform="translate(-4,640)">
       0
      </text>
      <text dy=".4em" transform="translate(-4,556)">
       0.5
      </text>
      <text dy=".4em" transform="translate(-4,472)">
       1
      </text>
      <text dy=".4em" transform="translate(-4,387)">
       1.5
      </text>
      <text dy=".4em" transform="translate(-4,303)">
       2
      </text>
      <text dy=".4em" transform="translate(-4,219)">
       2.5
      </text>
      <text dy=".4em" transform="translate(-4,135)">
       3
      </text>
      <text dy=".4em" transform="translate(-4,51)">
       3.5
      </text>
     </g>
    </g>
   </g>
  </g>
  <g transform="translate(120,4)" font-family="Arial" font-size="40" space="preserve">
   <text fill="black" text-anchor="middle" dy=".8em" transform="translate(480)">
    Example of honeycomb cells in TH2Poly
   </text>
  </g>
  <g transform="translate(936,52)" font-family="Arial" font-size="20" space="preserve" fill="black">
   <path d="M0,0H240V212H0Z" style="fill: white; stroke: black; stroke-width: 1;"></path>
   <text text-anchor="middle" dy=".4em" transform="translate(120,18)">
    honey
   </text>
   <text text-anchor="start" dy=".4em" transform="translate(12,53)">
    Entries
   </text>
   <text text-anchor="end" dy=".4em" transform="translate(228,53)">
    27130
   </text>
   <text text-anchor="start" dy=".4em" transform="translate(12,88)">
    Mean x
   </text>
   <text text-anchor="end" dy=".4em" transform="translate(228,88)">
    2.031
   </text>
   <text text-anchor="start" dy=".4em" transform="translate(12,124)">
    Mean y
   </text>
   <text text-anchor="end" dy=".4em" transform="translate(228,124)">
    1.979
   </text>
   <text text-anchor="start" dy=".4em" transform="translate(12,159)">
    Std Dev x
   </text>
   <text text-anchor="end" dy=".4em" transform="translate(228,159)">
    0.9013
   </text>
   <text text-anchor="start" dy=".4em" transform="translate(12,194)">
    Std Dev y
   </text>
   <text text-anchor="end" dy=".4em" transform="translate(228,194)">
    0.8525
   </text>
   <path d="M0,35h240" style="stroke: black; stroke-width: 1;"></path>
  </g>
 </g>
</svg>