<svg xmlns="http://www.w3.org/2000/svg" viewBox="0 0 1200 800" preserveAspectRatio="none" width="1200" height="800">
 <path d="M0,0H1200V800H0Z" style="fill: white;"></path>
 <g>
  <g transform="translate(120,80)">
   <path d="M0,0H960V640H0Z" style="fill: white; stroke: black; stroke-width: 1;"></path>
   <svg x="0" y="0" overflow="hidden" width="960" height="640" viewBox="0 0 960 640">
    <g>
     <path d="M471,185v-185h489v185z" style="fill: #263ea8; stroke: black; stroke-width: 1;"></path>
     <path d="M547,640v-205h413v205z" style="fill: #263ea8; stroke: black; stroke-width: 1;"></path>
     <path d="M0,640v-178h456v178z" style="fill: #263ea8; stroke: black; stroke-width: 1;"></path>
     <path d="M0,210v-210h375v210z" style="fill: #263ea8; stroke: black; stroke-width: 1;"></path>
     <path d="M646,362v-66h314v66z" style="fill: #263ea8; stroke: black; stroke-width: 1;"></path>
     <path d="M375,209v-209h96v209z" style="fill: #263ea8; stroke: black; stroke-width: 1;"></path>
     <path d="M456,640v-205h91v205z" style="fill: #1652cd; stroke: black; stroke-width: 1;"></path>
     <path d="M0,360v-64h263v64z" style="fill: #1652cd; stroke: black; stroke-width: 1;"></path>
     <path d="M604,296v-47h356v47z" style="fill: #1652cd; stroke: black; stroke-width: 1;"></path>
     <path d="M0,296v-56h291v56z" style="fill: #1652cd; stroke: black; stroke-width: 1;"></path>
     <path d="M555,249v-37h405v37z" style="fill: #1652cd; stroke: black; stroke-width: 1;"></path>
     <path d="M603,403v-41h357v41z" style="fill: #1652cd; stroke: black; stroke-width: 1;"></path>
     <path d="M537,435v-32h423v32z" style="fill: #1652cd; stroke: black; stroke-width: 1;"></path>
     <path d="M471,212v-27h489v27z" style="fill: #1652cd; stroke: black; stroke-width: 1;"></path>
     <path d="M0,403v-43h309v43z" style="fill: #1652cd; stroke: black; stroke-width: 1;"></path>
     <path d="M0,436v-33h369v33z" style="fill: #1652cd; stroke: black; stroke-width: 1;"></path>
     <path d="M0,462v-26h456v26z" style="fill: #1652cd; stroke: black; stroke-width: 1;"></path>
     <path d="M0,240v-30h375v30z" style="fill: #1652cd; stroke: black; stroke-width: 1;"></path>
     <path d="M263,360v-64h50v64z" style="fill: #0da7c3; stroke: black; stroke-width: 1;"></path>
     <path d="M599,362v-66h47v66z" style="fill: #0da7c3; stroke: black; stroke-width: 1;"></path>
     <path d="M471,249v-37h84v37z" style="fill: #0da7c3; stroke: black; stroke-width: 1;"></path>
     <path d="M375,240v-31h96v31z" style="fill: #0da7c3; stroke: black; stroke-width: 1;"></path>
     <path d="M369,436v-33h87v33z" style="fill: #1eafb3; stroke: black; stroke-width: 1;"></path>
     <path d="M547,296v-47h57v47z" style="fill: #1eafb3; stroke: black; stroke-width: 1;"></path>
     <path d="M291,296v-56h47v56z" style="fill: #2eb7a4; stroke: black; stroke-width: 1;"></path>
     <path d="M456,435v-32h81v32z" style="fill: #2eb7a4; stroke: black; stroke-width: 1;"></path>
     <path d="M542,403v-41h61v41z" style="fill: #2eb7a4; stroke: black; stroke-width: 1;"></path>
     <path d="M309,403v-43h58v43z" style="fill: #2eb7a4; stroke: black; stroke-width: 1;"></path>
     <path d="M338,271v-31h72v31z" style="fill: #52ba92; stroke: black; stroke-width: 1;"></path>
     <path d="M538,331v-35h61v35z" style="fill: #74bd81; stroke: black; stroke-width: 1;"></path>
     <path d="M456,403v-23h86v23z" style="fill: #74bd81; stroke: black; stroke-width: 1;"></path>
     <path d="M367,403v-23h89v23z" style="fill: #95be71; stroke: black; stroke-width: 1;"></path>
     <path d="M410,271v-31h61v31z" style="fill: #95be71; stroke: black; stroke-width: 1;"></path>
     <path d="M538,362v-31h61v31z" style="fill: #95be71; stroke: black; stroke-width: 1;"></path>
     <path d="M313,328v-32h58v32z" style="fill: #95be71; stroke: black; stroke-width: 1;"></path>
     <path d="M313,360v-32h58v32z" style="fill: #95be71; stroke: black; stroke-width: 1;"></path>
     <path d="M471,273v-24h76v24z" style="fill: #95be71; stroke: black; stroke-width: 1;"></path>
     <path d="M338,296v-25h72v25z" style="fill: #b3bd65; stroke: black; stroke-width: 1;"></path>
     <path d="M367,380v-20h89v20z" style="fill: #b3bd65; stroke: black; stroke-width: 1;"></path>
     <path d="M471,296v-23h76v23z" style="fill: #b3bd65; stroke: black; stroke-width: 1;"></path>
     <path d="M456,380v-18h86v18z" style="fill: #e2c04b; stroke: black; stroke-width: 1;"></path>
     <path d="M410,296v-25h61v25z" style="fill: #f4c63b; stroke: black; stroke-width: 1;"></path>
     <path d="M371,360v-33h44v33z" style="fill: #f4c63b; stroke: black; stroke-width: 1;"></path>
     <path d="M495,329v-33h43v33z" style="fill: #f4c63b; stroke: black; stroke-width: 1;"></path>
     <path d="M371,327v-31h46v31z" style="fill: #fdd22b; stroke: black; stroke-width: 1;"></path>
     <path d="M496,362v-33h42v33z" style="fill: #fdd22b; stroke: black; stroke-width: 1;"></path>
     <path d="M415,360v-33h41v33z" style="fill: #fdd22b; stroke: black; stroke-width: 1;"></path>
     <path d="M456,362v-33h40v33z" style="fill: #fbe61d; stroke: black; stroke-width: 1;"></path>
     <path d="M456,329v-33h39v33z" style="fill: #fbe61d; stroke: black; stroke-width: 1;"></path>
     <path d="M417,327v-31h39v31z" style="fill: #f9f90f; stroke: black; stroke-width: 1;"></path>
    </g>
   </svg>
   <g>
    <g transform="translate(0,640)">
     <path d="M0,0h960M10,-12V0M42,-12V0M74,-24V0M105,-12V0M137,-12V0M169,-12V0M200,-24V0M232,-12V0M264,-12V0M296,-12V0M327,-24V0M359,-12V0M391,-12V0M422,-12V0M454,-24V0M486,-12V0M518,-12V0M549,-12V0M581,-24V0M613,-12V0M644,-12V0M676,-12V0M708,-24V0M739,-12V0M771,-12V0M803,-12V0M835,-24V0M866,-12V0M898,-12V0M930,-12V0" style="stroke: black; stroke-width: 1;"></path>
     <g font-family="Arial" font-size="28" space="preserve" fill="black" text-anchor="middle">
      <text dy=".8em" transform="translate(74,5)">
       -6
      </text>
      <text dy=".8em" transform="translate(200,5)">
       -4
      </text>
      <text dy=".8em" transform="translate(327,5)">
       -2
      </text>
      <text dy=".8em" transform="translate(454,5)">
       0
      </text>
      <text dy=".8em" transform="translate(581,5)">
       2
      </text>
      <text dy=".8em" transform="translate(708,5)">
       4
      </text>
      <text dy=".8em" transform="translate(835,5)">
       6
      </text>
     </g>
    </g>
    <g>
     <path d="M0,0v640M18,615H0M18,588H0M18,561H0M18,535H0M36,508H0M18,482H0M18,455H0M18,429H0M18,402H0M36,375H0M18,349H0M18,322H0M18,296H0M18,269H0M36,243H0M18,216H0M18,190H0M18,163H0M18,136H0M36,110H0M18,83H0M18,57H0M18,30H0M18,4H0" style="stroke: black; stroke-width: 1;"></path>
     <g font-family="Arial" font-size="28" space="preserve" fill="black" text-anchor="end">
      <text dy=".4em" transform="translate(-6,508)">
       -5
      </text>
      <text dy=".4em" transform="translate(-6,375)">
       0
      </text>
      <text dy=".4em" transform="translate(-6,243)">
       5
      </text>
      <text dy=".4em" transform="translate(-6,110)">
       10
      </text>
     </g>
    </g>
   </g>
  </g>
  <g transform="translate(1086,80)">
   <path d="M0,0H54V640H0Z" style="fill: none; stroke: black; stroke-width: 1;"></path>
   <path d="M0,608H54V640H0Z" style="fill: #1652cd;"></path>
   <path d="M0,576H54V609H0Z" style="fill: #1652cd;"></path>
   <path d="M0,544H54V577H0Z" style="fill: #1064dc;"></path>
   <path d="M0,512H54V545H0Z" style="fill: #1272d9;"></path>
   <path d="M0,480H54V513H0Z" style="fill: #1481d6;"></path>
   <path d="M0,448H54V481H0Z" style="fill: #0e8fd1;"></path>
   <path d="M0,416H54V449H0Z" style="fill: #099dcc;"></path>
   <path d="M0,384H54V417H0Z" style="fill: #0da7c3;"></path>
   <path d="M0,352H54V385H0Z" style="fill: #1eafb3;"></path>
   <path d="M0,320H54V353H0Z" style="fill: #2eb7a4;"></path>
   <path d="M0,288H54V321H0Z" style="fill: #52ba92;"></path>
   <path d="M0,256H54V289H0Z" style="fill: #74bd81;"></path>
   <path d="M0,224H54V257H0Z" style="fill: #95be71;"></path>
   <path d="M0,192H54V225H0Z" style="fill: #b3bd65;"></path>
   <path d="M0,160H54V193H0Z" style="fill: #d1bb59;"></path>
   <path d="M0,128H54V161H0Z" style="fill: #e2c04b;"></path>
   <path d="M0,96H54V129H0Z" style="fill: #f4c63b;"></path>
   <path d="M0,64H54V97H0Z" style="fill: #fdd22b;"></path>
   <path d="M0,32H54V65H0Z" style="fill: #fbe61d;"></path>
   <path d="M0,0H54V33H0Z" style="fill: #f9f90f;"></path>
   <g transform="translate(54)">
    <path d="M0,0v640M0,533H-33M0,418H-33M0,302H-33M0,187H-33M0,71H-33" style="stroke: black; stroke-width: 1;"></path>
    <g font-family="Arial" font-size="28" space="preserve" fill="black" text-anchor="start">
     <text dy=".4em" transform="translate(6,533)">
      50
     </text>
     <text dy=".4em" transform="translate(6,418)">
      100
     </text>
     <text dy=".4em" transform="translate(6,302)">
      150
     </text>
     <text dy=".4em" transform="translate(6,187)">
      200
     </text>
     <text dy=".4em" transform="translate(6,71)">
      250
     </text>
    </g>
   </g>
  </g>
  <g transform="translate(936,52)" font-family="Arial" font-size="22" space="preserve" fill="black">
   <path d="M0,0H240V192H0Z" style="fill: white; stroke: black; stroke-width: 1;"></path>
   <text text-anchor="middle" dy=".4em" transform="translate(120,16)">
    h2PolyBinTest
   </text>
   <text text-anchor="start" dy=".4em" transform="translate(12,48)">
    Entries
   </text>
   <text text-anchor="end" dy=".4em" transform="translate(228,48)">
    50
   </text>
   <text text-anchor="start" dy=".4em" transform="translate(12,80)">
    Mean x
   </text>
   <text text-anchor="end" dy=".4em" transform="translate(228,80)">
    -0.1441
   </text>
   <text text-anchor="start" dy=".4em" transform="translate(12,112)">
    Mean y
   </text>
   <text text-anchor="end" dy=".4em" transform="translate(228,112)">
    1.802
   </text>
   <text text-anchor="start" dy=".4em" transform="translate(12,144)">
    Std Dev x
   </text>
   <text text-anchor="end" dy=".4em" transform="translate(228,144)">
    1.543
   </text>
   <text text-anchor="start" dy=".4em" transform="translate(12,176)">
    Std Dev y
   </text>
   <text text-anchor="end" dy=".4em" transform="translate(228,176)">
    1.983
   </text>
   <path d="M0,32h240" style="stroke: black; stroke-width: 1;"></path>
  </g>
  <g transform="translate(367,4)" font-family="Arial" font-size="40" space="preserve">
   <text fill="black" text-anchor="middle" dy=".4em" transform="translate(233,25)">
    KDTree binning
   </text>
  </g>
 </g>
</svg>