<svg xmlns="http://www.w3.org/2000/svg" viewBox="0 0 1200 800" preserveAspectRatio="none" width="1200" height="800">
 <path d="M0,0H1200V800H0Z" style="fill: #ffffff;"></path>
 <g>
  <g transform="translate(120,80)">
   <path d="M0,0H960V640H0Z" style="fill: #ffffff; stroke: #000000; stroke-width: 1;"></path>
   <g>
    <g transform="translate(0,640)">
     <path d="M0,0h960M0,-24V0M19,-12V0M38,-12V0M58,-12V0M77,-12V0M96,-24V0M115,-12V0M134,-12V0M154,-12V0M173,-12V0M192,-24V0M211,-12V0M230,-12V0M250,-12V0M269,-12V0M288,-24V0M307,-12V0M326,-12V0M346,-12V0M365,-12V0M384,-24V0M403,-12V0M422,-12V0M442,-12V0M461,-12V0M480,-24V0M499,-12V0M518,-12V0M538,-12V0M557,-12V0M576,-24V0M595,-12V0M614,-12V0M634,-12V0M653,-12V0M672,-24V0M691,-12V0M710,-12V0M730,-12V0M749,-12V0M768,-24V0M787,-12V0M806,-12V0M826,-12V0M845,-12V0M864,-24V0M883,-12V0M902,-12V0M922,-12V0M941,-12V0M960,-24V0" style="stroke: #000000; stroke-width: 1;"></path>
     <g font-family="Arial" font-size="28" space="preserve" fill="#000000" text-anchor="middle">
      <text dy=".8em" transform="translate(0,5)">
       0
      </text>
      <text dy=".8em" transform="translate(96,5)">
       1
      </text>
      <text dy=".8em" transform="translate(192,5)">
       2
      </text>
      <text dy=".8em" transform="translate(288,5)">
       3
      </text>
      <text dy=".8em" transform="translate(384,5)">
       4
      </text>
      <text dy=".8em" transform="translate(480,5)">
       5
      </text>
      <text dy=".8em" transform="translate(576,5)">
       6
      </text>
      <text dy=".8em" transform="translate(672,5)">
       7
      </text>
      <text dy=".8em" transform="translate(768,5)">
       8
      </text>
      <text dy=".8em" transform="translate(864,5)">
       9
      </text>
      <text dy=".8em" transform="translate(960,5)">
       10
      </text>
     </g>
    </g>
    <g>
     <path d="M0,0v640M36,640H0M18,624H0M18,608H0M18,592H0M18,576H0M36,560H0M18,544H0M18,528H0M18,512H0M18,496H0M36,480H0M18,464H0M18,448H0M18,432H0M18,416H0M36,400H0M18,384H0M18,368H0M18,352H0M18,336H0M36,320H0M18,304H0M18,288H0M18,272H0M18,256H0M36,240H0M18,224H0M18,208H0M18,192H0M18,176H0M36,160H0M18,144H0M18,128H0M18,112H0M18,96H0M36,80H0M18,64H0M18,48H0M18,32H0M18,16H0M36,0H0" style="stroke: #000000; stroke-width: 1;"></path>
     <g font-family="Arial" font-size="28" space="preserve" fill="#000000" text-anchor="end">
      <text dy=".4em" transform="translate(-6,640)">
       -2
      </text>
      <text dy=".4em" transform="translate(-6,560)">
       -1.5
      </text>
      <text dy=".4em" transform="translate(-6,480)">
       -1
      </text>
      <text dy=".4em" transform="translate(-6,400)">
       -0.5
      </text>
      <text dy=".4em" transform="translate(-6,320)">
       0
      </text>
      <text dy=".4em" transform="translate(-6,240)">
       0.5
      </text>
      <text dy=".4em" transform="translate(-6,160)">
       1
      </text>
      <text dy=".4em" transform="translate(-6,80)">
       1.5
      </text>
      <text dy=".4em" transform="translate(-6)">
       2
      </text>
     </g>
    </g>
   </g>
  </g>
  <g transform="translate(120,4)" font-family="Arial" font-size="40" space="preserve">
   <text fill="#000000" text-anchor="middle" dy=".8em" transform="translate(480)">
    Axes
   </text>
  </g>
  <g transform="translate(120,80)">
   <path d="M0,0h960M960,0V19M936,0V10M912,0V10M888,0V10M864,0V19M840,0V10M816,0V10M792,0V10M768,0V19M744,0V10M720,0V10M696,0V10M672,0V19M648,0V10M624,0V10M600,0V10M576,0V19M552,0V10M528,0V10M504,0V10M480,0V19M456,0V10M432,0V10M408,0V10M384,0V19M360,0V10M336,0V10M312,0V10M288,0V19M264,0V10M240,0V10M216,0V10M192,0V19M168,0V10M144,0V10M120,0V10M96,0V19M72,0V10M48,0V10M24,0V10M0,0V19" style="stroke: #000000; stroke-width: 1;"></path>
   <g font-family="Arial" font-size="32" space="preserve" font-weight="bold" fill="#000000" text-anchor="middle">
    <text transform="translate(960,-8)">
     -10
    </text>
    <text transform="translate(864,-8)">
     -8
    </text>
    <text transform="translate(768,-8)">
     -6
    </text>
    <text transform="translate(672,-8)">
     -4
    </text>
    <text transform="translate(576,-8)">
     -2
    </text>
    <text transform="translate(480,-8)">
     0
    </text>
    <text transform="translate(384,-8)">
     2
    </text>
    <text transform="translate(288,-8)">
     4
    </text>
    <text transform="translate(192,-8)">
     6
    </text>
    <text transform="translate(96,-8)">
     8
    </text>
    <text transform="translate(0,-8)">
     10
    </text>
   </g>
   <g font-family="Arial" font-size="32" space="preserve" font-weight="bold" transform="translate(960,-51)">
    <text fill="#000000" text-anchor="end" dy=".4em">
     axis with decreasing values
    </text>
   </g>
  </g>
  <g transform="translate(216,240)">
   <path d="M0,0h768M0,-15V0M6,-8V0M13,-8V0M19,-8V0M27,-15V0M34,-8V0M42,-8V0M50,-8V0M59,-15V0M68,-8V0M78,-8V0M88,-8V0M99,-15V0M110,-8V0M122,-8V0M134,-8V0M147,-15V0M161,-8V0M175,-8V0M191,-8V0M207,-15V0M223,-8V0M241,-8V0M259,-8V0M279,-15V0M299,-8V0M321,-8V0M343,-8V0M367,-15V0M392,-8V0M419,-8V0M446,-8V0M475,-15V0M506,-8V0M538,-8V0M572,-8V0M607,-15V0M644,-8V0M683,-8V0M725,-8V0M768,-15V0" style="stroke: #000000; stroke-width: 1;"></path>
   <g font-family="Arial" font-size="14" space="preserve" font-weight="bold" fill="#000000" text-anchor="middle">
    <text dy=".8em" transform="translate(0,6)">
     0
    </text>
    <text dy=".8em" transform="translate(27,6)">
     0.2
    </text>
    <text dy=".8em" transform="translate(59,6)">
     0.4
    </text>
    <text dy=".8em" transform="translate(99,6)">
     0.6
    </text>
    <text dy=".8em" transform="translate(147,6)">
     0.8
    </text>
    <text dy=".8em" transform="translate(207,6)">
     1
    </text>
    <text dy=".8em" transform="translate(279,6)">
     1.2
    </text>
    <text dy=".8em" transform="translate(367,6)">
     1.4
    </text>
    <text dy=".8em" transform="translate(475,6)">
     1.6
    </text>
    <text dy=".8em" transform="translate(607,6)">
     1.8
    </text>
    <text dy=".8em" transform="translate(768,6)">
     2
    </text>
   </g>
   <g font-family="Arial" font-size="24" space="preserve" font-weight="bold" transform="translate(768,46)">
    <text fill="#000000" text-anchor="end" dy=".4em">
     exponential axis
    </text>
   </g>
  </g>
  <g transform="translate(312,400)">
   <path d="M0,0v320M14,320H0M7,288H0M7,269H0M7,256H0M7,245H0M7,237H0M7,230H0M7,224H0M7,218H0M14,213H0M7,181H0M7,162H0M7,149H0M7,139H0M7,130H0M7,123H0M7,117H0M7,112H0M14,107H0M7,75H0M7,56H0M7,42H0M7,32H0M7,24H0M7,17H0M7,10H0M7,5H0M14,0H0" style="stroke: #000000; stroke-width: 1;"></path>
   <g font-family="Arial" font-size="24" space="preserve" font-weight="bold">
    <text fill="#000000" text-anchor="end" dy=".4em" transform="translate(-6,320)">
     1
    </text>
    <text fill="#000000" text-anchor="end" dy=".4em" transform="translate(-6,213)">
     10
    </text>
    <g transform="translate(-42,118)">
     <text fill="#000000" font-size="24">
      10
     </text>
     <text fill="#000000" font-size="14" transform="translate(28,-13)">
      2
     </text>
    </g>
    <g transform="translate(-42,11)">
     <text fill="#000000" font-size="24">
      10
     </text>
     <text fill="#000000" font-size="14" transform="translate(28,-13)">
      3
     </text>
    </g>
   </g>
   <g font-family="Arial" font-size="24" space="preserve" font-weight="bold" transform="translate(-69)">
    <text fill="#000000" text-anchor="end" dy=".4em" transform="rotate(270)">
     logarithmic axis
    </text>
   </g>
  </g>
 </g>
</svg>