<svg xmlns="http://www.w3.org/2000/svg" viewBox="0 0 1200 800" preserveAspectRatio="none" width="1200" height="800">
 <path d="M0,0H1200V800H0Z" style="fill: rgb(255, 255, 255);"></path>
 <g>
  <g font-family="Arial" font-size="36" xml:space="preserve" font-weight="bold"><text fill="rgb(0, 0, 0)" text-anchor="start" transform="translate(181,708)">This text is opaque and this line is transparent</text></g>
  <g>
   <path d="M653,674L947,358M956,366l22,-42l-41,26z" style="stroke: rgb(0, 0, 0); stroke-width: 4; fill: rgb(0, 0, 0);"></path>
  </g>
  <g>
   <path d="M622,253l336,-149l53,310l-213,-110l32,188l-263,-170l344,-110l-326,-99l297,357l-48,96" style="stroke: rgba(206, 94, 96, 0.1); stroke-width: 7; fill: none;"></path>
  </g>
  <g>
   <path d="M433,185L432,179L430,173L426,166L421,160L415,155L408,149L399,144L389,139L378,135L366,131L354,128L340,125L327,123L312,122L298,121L283,121L269,121L255,122L241,124L227,126L214,129L202,133L191,137L180,141L171,146L163,152L156,157L150,163L146,169L143,176L141,182L141,189L143,195L146,201L150,208L156,213L163,219L171,224L180,229L191,234L202,238L214,241L227,244L241,247L255,248L269,250L283,250L298,250L312,249L327,248L340,246L354,243L366,240L378,236L389,232L399,227L408,222L415,216L421,211L426,204L430,198L432,192Z" style="fill: rgb(132, 193, 163);"></path>
   <path d="M433,185L432,179L430,173L426,166L421,160L415,155L408,149L399,144L389,139L378,135L366,131L354,128L340,125L327,123L312,122L298,121L283,121L269,121L255,122L241,124L227,126L214,129L202,133L191,137L180,141L171,146L163,152L156,157L150,163L146,169L143,176L141,182L141,189L143,195L146,201L150,208L156,213L163,219L171,224L180,229L191,234L202,238L214,241L227,244L241,247L255,248L269,250L283,250L298,250L312,249L327,248L340,246L354,243L366,240L378,236L389,232L399,227L408,222L415,216L421,211L426,204L430,198L432,192L433,185" style="stroke: rgb(146, 0, 255); stroke-width: 3; fill: none;"></path>
  </g>
  <g>
   <path d="M557,266L557,257L555,249L553,240L551,232L547,223L543,215L538,208L532,200L526,193L519,186L511,180L503,174L494,169L485,164L475,160L465,156L455,153L445,150L434,149L423,147L412,147L401,147L390,147L379,149L369,150L358,153L348,156L338,160L328,164L319,169L310,174L302,180L295,186L288,193L281,200L275,208L270,215L266,223L263,232L260,240L258,249L257,257L256,266L257,275L258,284L260,292L263,301L266,309L270,317L275,325L281,332L288,339L295,346L302,352L310,358L319,363L328,368L338,372L348,376L358,379L369,382L379,384L390,385L401,386L412,386L423,385L434,384L445,382L455,379L465,376L475,372L485,368L494,363L503,358L511,352L519,346L526,339L532,332L538,325L543,317L547,309L551,301L553,292L555,284L557,275Z" style="fill: rgba(89, 84, 216, 0.57);"></path>
   <path d="M557,266L557,257L555,249L553,240L551,232L547,223L543,215L538,208L532,200L526,193L519,186L511,180L503,174L494,169L485,164L475,160L465,156L455,153L445,150L434,149L423,147L412,147L401,147L390,147L379,149L369,150L358,153L348,156L338,160L328,164L319,169L310,174L302,180L295,186L288,193L281,200L275,208L270,215L266,223L263,232L260,240L258,249L257,257L256,266L257,275L258,284L260,292L263,301L266,309L270,317L275,325L281,332L288,339L295,346L302,352L310,358L319,363L328,368L338,372L348,376L358,379L369,382L379,384L390,385L401,386L412,386L423,385L434,384L445,382L455,379L465,376L475,372L485,368L494,363L503,358L511,352L519,346L526,339L532,332L538,325L543,317L547,309L551,301L553,292L555,284L557,275L557,266" style="stroke: rgba(89, 211, 84, 0.46); stroke-width: 3; fill: none;"></path>
  </g>
  <g font-family="Arial" font-size="90" xml:space="preserve" font-weight="bold"><text fill="rgba(89, 84, 216, 0.47)" text-anchor="start" transform="translate(167,602) rotate(-26)">This text is transparent</text></g>
 </g>
</svg>