<svg xmlns="http://www.w3.org/2000/svg" viewBox="0 0 1200 800" preserveAspectRatio="none" width="1200" height="800">
 <path d="M0,0H1200V800H0Z" style="fill: white;"></path>
 <g>
  <g transform="translate(120,80)">
   <path d="M0,0H960V640H0Z" style="fill: white; stroke: black; stroke-width: 1;"></path>
   <svg x="0" y="0" overflow="hidden" width="960" height="640" viewBox="0 0 960 640">
    <g>
     <path fill="rgb(38, 62, 168)" d="M0,335h23v15h-23zm23,15h23v16h-23zM46,274h23v16h-23zm23,0h22v16h-22zm0,107h22v15h-22zM91,290h23v15h-23zm0,45h23v46h-23zm0,61h23v15h-23zm0,61h23v15h-23zM114,183h23v30h-23zm0,76h23v152h-23zm0,168h23v15h-23zM137,183h23v15h-23zm0,46h23v137h-23zm0,152h23v76h-23zM160,107h23v15h-23zm0,30h23v15h-23zm0,61h23v15h-23zm0,31h23v152h-23zm0,167h23v61h-23zm0,92h23v30h-23zM183,122h23v46h-23zm0,61h23v107h-23zm0,122h23v61h-23zm0,76h23v91h-23zm0,122h23v30h-23zm0,46h23v15h-23zM206,30h23v16h-23zm0,77h23v15h-23zm0,30h23v15h-23zm0,46h23v30h-23zm0,46h23v30h-23zm0,61h23v15h-23zm0,60h23v16h-23zm0,31h23v107h-23zm0,137h23v31h-23zM229,91h22v16h-22zm0,46h22v61h-22zm0,76h22v31h-22zm0,214h22v76h-22zM251,122h23v91h-23zm0,320h23v46h-23zm0,61h23v15h-23zm0,30h23v16h-23zM274,15h23v15h-23zm0,76h23v16h-23zm0,46h23v76h-23zm0,305h23v61h-23zm0,76h23v15h-23zm0,46h23v15h-23zM297,76h23v92h-23zm0,381h23v92h-23zm0,107h23v15h-23zM320,0h23v15h-23zm0,91h23v77h-23zm0,381h23v46h-23zm0,61h23v31h-23zM343,46h23v15h-23zm0,30h23v31h-23zm0,46h23v46h-23zm0,350h23v107h-23zm0,122h23v16h-23zM366,61h23v15h-23zm0,30h23v46h-23zm0,397h23v91h-23zM389,76h22v15h-22zm0,31h22v15h-22zm0,381h22v91h-22zM411,46h23v30h-23zm0,45h23v46h-23zm0,412h23v61h-23zm0,122h23v15h-23zM434,61h23v15h-23zm0,30h23v61h-23zm0,412h23v46h-23zm0,91h23v16h-23zM457,76h23v15h-23zm0,31h23v30h-23zm0,396h23v61h-23zM480,61h23v76h-23zm0,442h23v91h-23zM503,0h23v15h-23zm0,46h23v15h-23zm0,30h23v31h-23zm0,46h23v15h-23zm0,381h23v46h-23zM526,0h23v15h-23zm0,46h23v91h-23zm0,457h23v30h-23zm0,46h23v15h-23zm0,76h23v15h-23zM549,91h22v46h-22zm0,412h22v15h-22zm0,30h22v16h-22zm0,31h22v15h-22zM571,107h23v30h-23zm0,365h23v92h-23zM594,91h23v61h-23zm0,381h23v92h-23zm0,107h23v15h-23zM617,91h23v61h-23zm0,381h23v77h-23zm0,92h23v15h-23zM640,61h23v15h-23zm0,30h23v92h-23zm0,366h23v15h-23zm0,31h23v45h-23zm0,76h23v15h-23zM663,76h23v31h-23zm0,46h23v76h-23zm0,320h23v15h-23zm0,30h23v61h-23zm0,92h23v15h-23zM686,137h23v61h-23zm0,290h23v106h-23zM709,107h22v91h-22zm0,106h22v16h-22zm0,31h22v15h-22zm0,167h22v16h-22zm0,31h22v30h-22zm0,61h22v15h-22zM731,122h23v30h-23zm0,46h23v106h-23zm0,228h23v76h-23zm0,92h23v15h-23zm0,76h23v15h-23zM754,122h23v46h-23zm0,76h23v92h-23zm0,168h23v106h-23zM777,61h23v15h-23zm0,61h23v61h-23zm0,76h23v213h-23zm0,229h23v61h-23zM800,168h23v15h-23zm0,61h23v182h-23zm0,198h23v45h-23zM823,107h23v15h-23zm0,106h23v31h-23zm0,46h23v15h-23zm0,61h23v76h-23zm0,91h23v16h-23zm0,31h23v30h-23zM846,244h23v30h-23zm0,46h23v15h-23zm0,45h23v61h-23zm0,92h23v15h-23zm0,91h23v15h-23zM869,259h22v15h-22zm0,76h22v15h-22zm45,15h23v16h-23z"></path>
     <path fill="rgb(22, 82, 205)" d="M183,290h23v15h-23zm0,76h23v15h-23zM206,213h23v16h-23zm0,46h23v31h-23zm0,46h23v45h-23zm0,61h23v15h-23zM229,198h22v15h-22zm0,46h22v30h-22zm0,76h22v30h-22zm0,46h22v61h-22zM251,213h23v46h-23zm0,107h23v15h-23zm0,30h23v16h-23zm0,46h23v46h-23zm23,15h23v31h-23zM297,168h23v30h-23zm0,243h23v46h-23zM320,168h23v30h-23zm0,289h23v15h-23zm23,-15h23v30h-23zM366,137h23v31h-23zm0,320h23v31h-23zM389,122h22v46h-22zm0,350h22v16h-22zM411,137h23v31h-23zm0,335h23v31h-23zM434,152h23v16h-23zm0,305h23v46h-23zm23,31h23v15h-23zM480,137h23v31h-23zm0,335h23v31h-23zM503,137h23v15h-23zm0,335h23v31h-23zM526,137h23v31h-23zm0,335h23v31h-23zM549,137h22v31h-22zm0,335h22v31h-22zM571,137h23v31h-23zm23,15h23v16h-23zm0,290h23v30h-23zM617,152h23v46h-23zm0,275h23v15h-23zm0,30h23v15h-23zM640,183h23v15h-23zm0,30h23v16h-23zm0,214h23v30h-23zm0,45h23v16h-23zM663,198h23v31h-23zm0,213h23v31h-23zm0,46h23v15h-23zM686,198h23v31h-23zm0,46h23v15h-23zm0,122h23v61h-23zM709,198h22v15h-22zm0,31h22v15h-22zm0,76h22v45h-22zm0,61h22v45h-22zm0,61h22v15h-22zM731,274h23v122h-23zm23,16h23v76h-23z"></path>
     <path fill="rgb(16, 100, 220)" d="M229,274h22v46h-22zm0,76h22v16h-22zm22,-76h23v46h-23zm0,92h23v30h-23zM274,213h23v16h-23zm0,31h23v15h-23zm0,137h23v30h-23zM297,198h23v31h-23zm23,0h23v31h-23zm0,229h23v30h-23zM343,168h23v45h-23zm0,259h23v15h-23zM366,168h23v30h-23zm0,274h23v15h-23zM389,168h22v15h-22zm0,289h22v15h-22zm22,0h23v15h-23zM457,137h23v31h-23zm0,46h23v15h-23zm0,289h23v16h-23zM503,152h23v31h-23zm0,305h23v15h-23zM549,168h22v15h-22zm22,0h23v15h-23zm0,289h23v15h-23zM594,168h23v30h-23zm0,259h23v15h-23zM617,198h23v15h-23zm0,244h23v15h-23zM640,198h23v15h-23zm0,213h23v16h-23zM663,244h23v15h-23zm0,122h23v45h-23zM686,229h23v15h-23zm0,30h23v31h-23zm0,46h23v30h-23zm23,-46h22v46h-22zm0,91h22v16h-22z"></path>
     <path fill="rgb(18, 114, 217)" d="M251,259h23v15h-23zm0,76h23v15h-23zM274,229h23v15h-23zm0,30h23v31h-23zm0,76h23v15h-23zm0,31h23v15h-23zM297,229h23v15h-23zm0,152h23v30h-23zM320,229h23v15h-23zm0,152h23v15h-23zm0,30h23v16h-23zM343,213h23v16h-23zm23,-15h23v15h-23zm23,-15h22v15h-22zm0,259h22v15h-22zM411,168h23v30h-23zm23,0h23v30h-23zm0,274h23v15h-23zM457,168h23v15h-23zm0,289h23v15h-23zM480,168h23v15h-23zm0,274h23v30h-23zM526,168h23v30h-23zm0,274h23v30h-23zM549,183h22v15h-22zm0,259h22v30h-22zM571,183h23v15h-23zm0,244h23v30h-23zM594,198h23v15h-23zm23,15h23v16h-23zm0,183h23v31h-23zm23,0h23v15h-23zM663,229h23v15h-23zm0,30h23v15h-23zm0,76h23v15h-23zm23,-45h23v15h-23zm0,45h23v31h-23z"></path>
     <path fill="rgb(20, 129, 214)" d="M274,290h23v30h-23zm0,60h23v16h-23zM297,244h23v30h-23zm0,61h23v15h-23zm0,45h23v31h-23zM320,244h23v30h-23zm23,167h23v16h-23zm23,0h23v31h-23zM389,198h22v15h-22zm22,244h23v15h-23zm46,0h23v15h-23zM503,183h23v15h-23zm0,259h23v15h-23zM549,198h22v31h-22zm0,229h22v15h-22zM571,198h23v15h-23zm0,213h23v16h-23zM594,213h23v16h-23zm0,198h23v16h-23zM640,229h23v45h-23zm0,61h23v15h-23zm0,60h23v46h-23zm23,-76h23v31h-23zm0,46h23v15h-23zm0,30h23v16h-23z"></path>
     <path fill="rgb(14, 143, 209)" d="M274,320h23v15h-23zm23,-46h23v31h-23zm0,46h23v15h-23zm23,-30h23v15h-23zm0,76h23v15h-23zm0,30h23v15h-23zM343,229h23v15h-23zm0,167h23v15h-23zM366,213h23v16h-23zm23,198h22v31h-22zM411,198h23v15h-23zm0,229h23v15h-23zM434,198h23v31h-23zm23,229h23v15h-23zM480,183h23v30h-23zm23,15h23v15h-23zm0,229h23v15h-23zM526,213h23v16h-23zm0,198h23v31h-23zm23,0h22v16h-22zm22,-15h23v15h-23zM594,229h23v15h-23zm0,167h23v15h-23zM617,229h23v45h-23zm0,106h23v15h-23zm0,46h23v15h-23zM640,274h23v16h-23zm0,46h23v15h-23zm23,-15h23v15h-23z"></path>
     <path fill="rgb(9, 157, 204)" d="M297,335h23v15h-23zm23,0h23v31h-23zm23,15h23v16h-23zm23,46h23v15h-23zM389,229h22v15h-22zm22,-16h23v16h-23zm0,198h23v16h-23zm23,0h23v31h-23zM457,198h23v15h-23zm23,213h23v31h-23zM526,198h23v15h-23zm45,15h23v31h-23zm23,31h23v30h-23zm0,91h23v15h-23zm23,-45h23v30h-23zm0,60h23v16h-23zm23,-45h23v15h-23zm0,30h23v15h-23z"></path>
     <path fill="rgb(13, 167, 195)" d="M320,274h23v16h-23zm0,31h23v30h-23zm23,-61h23v46h-23zm0,76h23v15h-23zm0,61h23v15h-23zM366,229h23v30h-23zm0,152h23v15h-23zM389,213h22v16h-22zm0,183h22v15h-22zM457,229h23v15h-23zm23,-16h23v16h-23zm23,0h23v16h-23zm0,198h23v16h-23zM526,229h23v15h-23zm0,167h23v15h-23zM549,229h22v15h-22zm0,167h22v15h-22zm45,-15h23v15h-23zM617,274h23v16h-23zm0,46h23v15h-23z"></path>
     <path fill="rgb(30, 175, 179)" d="M411,396h23v15h-23zM434,229h23v15h-23zm0,167h23v15h-23zM457,213h23v16h-23zm0,198h23v16h-23zM480,229h23v15h-23zm23,0h23v15h-23zm0,167h23v15h-23zM571,259h23v15h-23zm0,107h23v30h-23z"></path>
     <path fill="rgb(46, 183, 164)" d="M343,290h23v30h-23zm0,45h23v15h-23zm0,31h23v15h-23zm23,-92h23v16h-23zm0,46h23v15h-23zm23,-76h22v15h-22zm0,122h22v15h-22zM434,244h23v15h-23zm23,152h23v15h-23zm23,0h23v15h-23zm46,-15h23v15h-23zM549,244h22v15h-22zm0,137h22v15h-22zM571,244h23v15h-23zm23,30h23v16h-23zm0,46h23v15h-23zm0,30h23v31h-23zm23,16h23v15h-23z"></path>
     <path fill="rgb(82, 186, 146)" d="M366,259h23v15h-23zm0,46h23v15h-23zm0,30h23v15h-23zm0,31h23v15h-23zM389,259h22v15h-22zm22,-30h23v30h-23zm0,152h23v15h-23zM503,244h23v15h-23zm0,137h23v15h-23zM526,244h23v15h-23zm23,15h22v15h-22zm0,107h22v15h-22zm22,-76h23v15h-23zm23,0h23v30h-23z"></path>
     <path fill="rgb(116, 189, 129)" d="M366,290h23v15h-23zm23,91h22v15h-22zm22,-15h23v15h-23zm23,15h23v15h-23zm23,-15h23v15h-23zm92,-76h22v15h-22zm0,30h22v15h-22zm22,-15h23v15h-23zm0,30h23v31h-23z"></path>
     <path fill="rgb(149, 190, 113)" d="M389,274h22v31h-22zm22,-15h23v15h-23zm0,91h23v16h-23zm23,16h23v15h-23zM457,244h23v15h-23zm0,137h23v15h-23zM480,244h23v30h-23zm46,15h23v15h-23zm0,107h23v15h-23zm23,-92h22v16h-22zm0,76h22v16h-22zm22,-76h23v16h-23z"></path>
     <path fill="rgb(179, 189, 101)" d="M366,350h23v16h-23zm45,-30h23v15h-23zm92,30h23v31h-23zm23,-15h23v31h-23zm23,-30h22v15h-22zm22,15h23v15h-23z"></path>
     <path fill="rgb(209, 187, 89)" d="M389,305h22v15h-22zm0,30h22v31h-22zm22,-61h23v16h-23zm46,61h23v15h-23zm23,31h23v30h-23zM503,259h23v15h-23zm0,76h23v15h-23zm23,-61h23v31h-23zm23,61h22v15h-22z"></path>
     <path fill="rgb(226, 192, 75)" d="M389,320h22v15h-22zm22,-30h23v30h-23zm0,45h23v15h-23zm23,-76h23v15h-23zm0,76h23v31h-23zm23,-76h23v31h-23zm0,61h23v15h-23zm0,30h23v16h-23zm23,-76h23v16h-23zm23,0h23v16h-23zm0,31h23v15h-23zm23,15h23v15h-23z"></path>
     <path fill="rgb(244, 198, 59)" d="M434,274h23v61h-23zm92,31h23v15h-23z"></path>
     <path fill="rgb(253, 210, 43)" d="M457,290h23v15h-23zm23,30h23v46h-23zm23,-30h23v15h-23z"></path>
     <path fill="rgb(251, 230, 29)" d="M457,305h23v15h-23zm23,-15h23v15h-23zm23,30h23v15h-23z"></path>
     <path fill="rgb(249, 249, 15)" d="M480,305h23v15h-23z"></path>
    </g>
   </svg>
   <g>
    <g transform="translate(0,640)">
     <path d="M0,0h960M0,-10V0M23,-19V0M46,-10V0M69,-10V0M91,-10V0M114,-10V0M137,-19V0M160,-10V0M183,-10V0M206,-10V0M229,-10V0M251,-19V0M274,-10V0M297,-10V0M320,-10V0M343,-10V0M366,-19V0M389,-10V0M411,-10V0M434,-10V0M457,-10V0M480,-19V0M503,-10V0M526,-10V0M549,-10V0M571,-10V0M594,-19V0M617,-10V0M640,-10V0M663,-10V0M686,-10V0M709,-19V0M731,-10V0M754,-10V0M777,-10V0M800,-10V0M823,-19V0M846,-10V0M869,-10V0M891,-10V0M914,-10V0M937,-19V0" style="stroke: black; stroke-width: 1;"></path>
     <g font-family="Arial" font-size="28" xml:space="preserve" fill="black" text-anchor="middle"><text dy=".8em" transform="translate(23,5)">-4</text><text dy=".8em" transform="translate(137,5)">-3</text><text dy=".8em" transform="translate(251,5)">-2</text><text dy=".8em" transform="translate(366,5)">-1</text><text dy=".8em" transform="translate(480,5)">0</text><text dy=".8em" transform="translate(594,5)">1</text><text dy=".8em" transform="translate(709,5)">2</text><text dy=".8em" transform="translate(823,5)">3</text><text dy=".8em" transform="translate(937,5)">4</text></g>
    </g>
    <g>
     <path d="M0,0v640M15,640H0M29,625H0M15,610H0M15,594H0M15,579H0M15,564H0M29,549H0M15,533H0M15,518H0M15,503H0M15,488H0M29,472H0M15,457H0M15,442H0M15,427H0M15,411H0M29,396H0M15,381H0M15,366H0M15,350H0M15,335H0M29,320H0M15,305H0M15,290H0M15,274H0M15,259H0M29,244H0M15,229H0M15,213H0M15,198H0M15,183H0M29,168H0M15,152H0M15,137H0M15,122H0M15,107H0M29,91H0M15,76H0M15,61H0M15,46H0M15,30H0M29,15H0" style="stroke: black; stroke-width: 1;"></path>
     <g font-family="Arial" font-size="28" xml:space="preserve" fill="black" text-anchor="end"><text dominant-baseline="middle" transform="translate(-6,625)">-4</text><text dominant-baseline="middle" transform="translate(-6,549)">-3</text><text dominant-baseline="middle" transform="translate(-6,472)">-2</text><text dominant-baseline="middle" transform="translate(-6,396)">-1</text><text dominant-baseline="middle" transform="translate(-6,320)">0</text><text dominant-baseline="middle" transform="translate(-6,244)">1</text><text dominant-baseline="middle" transform="translate(-6,168)">2</text><text dominant-baseline="middle" transform="translate(-6,91)">3</text><text dominant-baseline="middle" transform="translate(-6,15)">4</text></g>
    </g>
   </g>
  </g>
  <g transform="translate(936,52)" font-family="Arial" font-size="27" xml:space="preserve" fill="black"><path d="M0,0H240V192H0Z" style="fill: white; stroke: black; stroke-width: 1;"></path><text text-anchor="middle" dominant-baseline="middle" transform="translate(120,16)">hpxpy</text><text text-anchor="start" dominant-baseline="middle" transform="translate(12,48)">Entries</text><text text-anchor="end" dominant-baseline="middle" transform="translate(228,48)">25000</text><text text-anchor="start" dominant-baseline="middle" transform="translate(12,80)">Mean x</text><text text-anchor="end" dominant-baseline="middle" transform="translate(228,80)">0.003181</text><text text-anchor="start" dominant-baseline="middle" transform="translate(12,112)">Mean y</text><text text-anchor="end" dominant-baseline="middle" transform="translate(228,112)">0.009441</text><text text-anchor="start" dominant-baseline="middle" transform="translate(12,144)">Std Dev x</text><text text-anchor="end" dominant-baseline="middle" transform="translate(228,144)">1.004</text><text text-anchor="start" dominant-baseline="middle" transform="translate(12,176)">Std Dev y</text><text text-anchor="end" dominant-baseline="middle" transform="translate(228,176)">0.9972</text><path d="M0,32h240" style="stroke: black; stroke-width: 1;"></path></g>
  <g transform="translate(515,4)" font-family="Arial" font-size="40" xml:space="preserve"><text fill="black" text-anchor="middle" dominant-baseline="middle" transform="translate(85,26)">py vs px</text></g>
 </g>
</svg>