<svg xmlns="http://www.w3.org/2000/svg" viewBox="0 0 1200 800" preserveAspectRatio="none" width="1200" height="800">
 <path d="M0,0H1200V800H0Z" style="fill: white;"></path>
 <g>
  <g transform="translate(120,80)">
   <path d="M0,0H960V640H0Z" style="fill: white; stroke: black; stroke-width: 1;"></path>
   <svg x="0" y="0" overflow="hidden" width="960" height="640" viewBox="0 0 960 640">
    <g>
     <path fill="rgb(38, 62, 168)" d="M0,587h20v26h-20zm20,0h20v26h-20zm20,26h20v27h-20zm20,0h20v27h-20z"></path>
     <path fill="rgb(9, 157, 204)" d="M0,13h20v14h-20zM0,53h20v14h-20zM20,13h20v14h-20zm0,40h20v14h-20zM40,160h20v13h-20zm0,67h20v13h-20zm0,146h20v14h-20zm0,67h20v13h-20zm0,93h20v27h-20zM60,160h20v13h-20zm0,67h20v13h-20zm0,146h20v14h-20zm0,67h20v13h-20zm0,93h20v27h-20zm60,54h20v26h-20zm20,0h20v26h-20zm140,0h20v26h-20zm100,0h20v26h-20zm220,0h20v26h-20zm100,0h20v26h-20zm160,26h20v27h-20zm60,0h20v27h-20z"></path>
     <path fill="rgb(30, 175, 179)" d="M0,0h20v13h-20zM0,27h20v26h-20zM0,67h20v53h-20zm0,66h20v27h-20zm0,40h20v54h-20zm0,67h20v27h-20zm0,40h20v53h-20zm0,67h20v26h-20zm0,40h20v53h-20zm0,66h20v80h-20zM0,560h20v27h-20zM20,0h20v13h-20zm0,27h20v26h-20zm0,40h20v53h-20zm0,66h20v27h-20zm0,40h20v54h-20zm0,67h20v27h-20zm0,40h20v53h-20zm0,67h20v26h-20zm0,40h20v53h-20zm0,66h20v80h-20zm0,107h20v27h-20zM40,0h20v13h-20zm0,27h20v26h-20zm0,40h20v93h-20zm0,106h20v54h-20zm0,67h20v133h-20zm0,147h20v53h-20zm0,66h20v27h-20zm0,40h20v40h-20zm0,67h20v27h-20zM60,0h20v13h-20zm0,27h20v26h-20zm0,40h20v93h-20zm0,106h20v54h-20zm0,67h20v133h-20zm0,147h20v53h-20zm0,66h20v27h-20zm0,40h20v40h-20zm0,67h20v27h-20zM80,0h20v53h-20zm0,67h20v53h-20zm0,66h20v27h-20zm0,40h20v54h-20zm0,67h20v27h-20zm0,40h20v53h-20zm0,67h20v26h-20zm0,40h20v53h-20zm0,66h20v27h-20zm0,40h20v67h-20zm0,94h20v53h-20zM100,0h20v53h-20zm0,67h20v53h-20zm0,66h20v27h-20zm0,40h20v54h-20zm0,67h20v27h-20zm0,40h20v53h-20zm0,67h20v26h-20zm0,40h20v53h-20zm0,66h20v27h-20zm0,40h20v67h-20zm0,94h20v53h-20zM120,0h20v13h-20zm0,27h20v26h-20zm0,40h20v93h-20zm0,106h20v54h-20zm0,67h20v133h-20zm0,147h20v53h-20zm0,66h20v80h-20zm0,107h20v27h-20zM140,0h20v13h-20zm0,27h20v26h-20zm0,40h20v93h-20zm0,106h20v54h-20zm0,67h20v133h-20zm0,147h20v53h-20zm0,66h20v80h-20zm0,107h20v27h-20zM160,0h20v520h-20zm0,533h20v107h-20zM180,0h20v507h-20zm0,520h20v120h-20zM200,0h20v493h-20zm0,507h20v133h-20zM220,0h20v120h-20zm0,133h20v134h-20zm0,147h20v53h-20zm0,67h20v133h-20zm0,146h20v67h-20zm0,120h20v27h-20zM240,0h20v467h-20zm0,480h20v160h-20zM260,0h20v453h-20zm0,467h20v173h-20zM280,0h20v160h-20zm0,173h20v54h-20zm0,67h20v133h-20zm0,147h20v53h-20zm0,66h20v80h-20zM300,0h20v427h-20zm0,440h20v200h-20zM320,0h20v413h-20zm0,427h20v213h-20zM340,0h20v400h-20zm0,413h20v227h-20zM360,0h20v387h-20zm0,400h20v240h-20zM380,0h20v160h-20zm0,173h20v54h-20zm0,67h20v133h-20zm0,147h20v53h-20zm0,66h20v80h-20zM400,0h20v360h-20zm0,373h20v267h-20zM420,0h20v347h-20zm0,360h20v280h-20zM440,0h20v120h-20zm0,133h20v134h-20zm0,147h20v53h-20zm0,67h20v133h-20zm0,146h20v67h-20zm0,94h20v26h-20zM460,0h20v320h-20zm0,333h20v307h-20zM480,0h20v307h-20zm0,320h20v320h-20zM500,0h20v293h-20zm0,307h20v333h-20zM520,0h20v280h-20zm0,293h20v347h-20zM540,0h20v120h-20zm0,133h20v134h-20zm0,147h20v53h-20zm0,67h20v133h-20zm0,146h20v67h-20zm0,94h20v26h-20zM560,0h20v253h-20zm0,267h20v373h-20zM580,0h20v240h-20zm0,253h20v387h-20zM600,0h20v160h-20zm0,173h20v54h-20zm0,67h20v133h-20zm0,147h20v53h-20zm0,66h20v80h-20zM620,0h20v213h-20zm0,227h20v413h-20zM640,0h20v200h-20zm0,213h20v427h-20zM660,0h20v187h-20zm0,200h20v440h-20zM680,0h20v173h-20zm0,187h20v453h-20zM700,0h20v160h-20zm0,173h20v54h-20zm0,67h20v133h-20zm0,147h20v53h-20zm0,66h20v80h-20zM720,0h20v147h-20zm0,160h20v480h-20zM740,0h20v133h-20zm0,147h20v493h-20zM760,0h20v120h-20zm0,133h20v134h-20zm0,147h20v53h-20zm0,67h20v133h-20zm0,146h20v67h-20zm0,94h20v26h-20zM780,0h20v107h-20zm0,120h20v520h-20zM800,0h20v93h-20zm0,107h20v533h-20zM820,0h20v80h-20zm0,93h20v547h-20zM840,0h20v67h-20zm0,80h20v560h-20zM860,0h20v53h-20zm0,67h20v466h-20zM880,0h20v40h-20zm0,53h20v587h-20zM900,0h20v27h-20zm0,40h20v600h-20zM920,0h20v13h-20zm0,27h20v506h-20zm0,533h20v27h-20zM940,13h20v627h-20z"></path>
     <path fill="rgb(46, 183, 164)" d="M0,120h20v13h-20zM0,267h20v13h-20zm0,66h20v14h-20zM20,120h20v13h-20zm0,147h20v13h-20zm0,66h20v14h-20zM40,480h20v13h-20zm20,0h20v13h-20zM80,53h20v14h-20zm0,107h20v13h-20zm0,67h20v13h-20zm0,146h20v14h-20zm0,67h20v13h-20zM100,53h20v14h-20zm0,107h20v13h-20zm0,67h20v13h-20zm0,146h20v14h-20zm0,67h20v13h-20zM120,13h20v14h-20zm0,40h20v14h-20zm0,107h20v13h-20zm0,67h20v13h-20zm0,146h20v14h-20zm0,67h20v13h-20zM140,13h20v14h-20zm0,40h20v14h-20zm0,107h20v13h-20zm0,67h20v13h-20zm0,146h20v14h-20zm0,67h20v13h-20zm80,147h20v26h-20zm60,-54h20v54h-20zm100,0h20v54h-20zm60,80h20v27h-20zm100,0h20v27h-20zm60,-80h20v54h-20zm100,0h20v54h-20zm60,80h20v27h-20zM860,533h20v54h-20zm60,0h20v27h-20z"></path>
     <path fill="rgb(82, 186, 146)" d="M80,480h20v13h-20zm20,0h20v13h-20zm120,80h20v27h-20z"></path>
     <path fill="rgb(116, 189, 129)" d="M0,160h20v13h-20zm0,67h20v13h-20zM0,373h20v14h-20zm0,67h20v13h-20zm0,93h20v27h-20zM20,160h20v13h-20zm0,67h20v13h-20zm0,146h20v14h-20zm0,67h20v13h-20zm0,93h20v27h-20zM40,13h20v14h-20zm0,40h20v14h-20zM60,13h20v14h-20zm0,40h20v14h-20zm20,67h20v13h-20zm0,147h20v13h-20zm0,66h20v14h-20zM100,120h20v13h-20zm0,147h20v13h-20zm0,66h20v14h-20zm20,280h20v27h-20zm20,0h20v27h-20zm140,0h20v27h-20zm100,0h20v27h-20zm60,-53h20v27h-20zm100,0h20v27h-20zm60,53h20v27h-20zm100,0h20v27h-20zm60,-53h20v27h-20zm100,27h20v26h-20zm60,0h20v26h-20z"></path>
     <path fill="rgb(249, 249, 15)" d="M0,613h20v27h-20zm20,0h20v27h-20zM40,587h20v26h-20zm20,0h20v26h-20zM80,560h20v27h-20zm20,0h20v27h-20zm20,-27h20v27h-20zm20,0h20v27h-20zm20,-13h20v13h-20zm20,-13h20v13h-20zm20,-14h20v14h-20zM220,120h20v13h-20zm0,147h20v13h-20zm0,66h20v14h-20zm0,147h20v13h-20zm20,-13h20v13h-20zm20,-14h20v14h-20zM280,160h20v13h-20zm0,67h20v13h-20zm0,146h20v14h-20zm0,67h20v13h-20zm20,-13h20v13h-20zm20,-14h20v14h-20zm20,-13h20v13h-20zm20,-13h20v13h-20zM380,160h20v13h-20zm0,67h20v13h-20zm0,146h20v14h-20zm0,67h20v13h-20zm20,-80h20v13h-20zm20,-13h20v13h-20zM440,120h20v13h-20zm0,147h20v13h-20zm0,66h20v14h-20zm0,147h20v13h-20zM460,320h20v13h-20zm20,-13h20v13h-20zm20,-14h20v14h-20zm20,-13h20v13h-20zM540,120h20v13h-20zm0,147h20v13h-20zm0,66h20v14h-20zm0,147h20v13h-20zM560,253h20v14h-20zm20,-13h20v13h-20zm20,-80h20v13h-20zm0,67h20v13h-20zm0,146h20v14h-20zm0,67h20v13h-20zM620,213h20v14h-20zm20,-13h20v13h-20zm20,-13h20v13h-20zm20,-14h20v14h-20zm20,-13h20v13h-20zm0,67h20v13h-20zm0,146h20v14h-20zm0,67h20v13h-20zM720,147h20v13h-20zm20,-14h20v14h-20zm20,-13h20v13h-20zm0,147h20v13h-20zm0,66h20v14h-20zm0,147h20v13h-20zM780,107h20v13h-20zM800,93h20v14h-20zM820,80h20v13h-20zM840,67h20v13h-20zM860,53h20v14h-20zM880,40h20v13h-20zM900,27h20v13h-20zM920,13h20v14h-20zM940,0h20v13h-20z"></path>
    </g>
   </svg>
   <g>
    <g transform="translate(0,640)">
     <path d="M0,0h960M0,-19V0M20,-19V0M40,-19V0M60,-19V0M80,-19V0M100,-19V0M120,-19V0M140,-19V0M160,-19V0M180,-19V0M200,-19V0M220,-19V0M240,-19V0M260,-19V0M280,-19V0M300,-19V0M320,-19V0M340,-19V0M360,-19V0M380,-19V0M400,-19V0M420,-19V0M440,-19V0M460,-19V0M480,-19V0M500,-19V0M520,-19V0M540,-19V0M560,-19V0M580,-19V0M600,-19V0M620,-19V0M640,-19V0M660,-19V0M680,-19V0M700,-19V0M720,-19V0M740,-19V0M760,-19V0M780,-19V0M800,-19V0M820,-19V0M840,-19V0M860,-19V0M880,-19V0M900,-19V0M920,-19V0M940,-19V0M960,-10V0" style="stroke: black; stroke-width: 1;"></path>
     <g font-family="Arial" font-size="16" xml:space="preserve" fill="black" text-anchor="middle"><text dy=".8em" transform="translate(10,6)">1</text><text dy=".8em" transform="translate(30,6)">2</text><text dy=".8em" transform="translate(50,6)">3</text><text dy=".8em" transform="translate(70,6)">4</text><text dy=".8em" transform="translate(90,6)">5</text><text dy=".8em" transform="translate(110,6)">6</text><text dy=".8em" transform="translate(130,6)">7</text><text dy=".8em" transform="translate(150,6)">8</text><text dy=".8em" transform="translate(170,6)">9</text><text dy=".8em" transform="translate(190,6)">10</text><text dy=".8em" transform="translate(210,6)">11</text><text dy=".8em" transform="translate(230,6)">12</text><text dy=".8em" transform="translate(250,6)">13</text><text dy=".8em" transform="translate(270,6)">14</text><text dy=".8em" transform="translate(290,6)">15</text><text dy=".8em" transform="translate(310,6)">16</text><text dy=".8em" transform="translate(330,6)">17</text><text dy=".8em" transform="translate(350,6)">18</text><text dy=".8em" transform="translate(370,6)">19</text><text dy=".8em" transform="translate(390,6)">20</text><text dy=".8em" transform="translate(410,6)">21</text><text dy=".8em" transform="translate(430,6)">22</text><text dy=".8em" transform="translate(450,6)">23</text><text dy=".8em" transform="translate(470,6)">24</text><text dy=".8em" transform="translate(490,6)">25</text><text dy=".8em" transform="translate(510,6)">26</text><text dy=".8em" transform="translate(530,6)">27</text><text dy=".8em" transform="translate(550,6)">28</text><text dy=".8em" transform="translate(570,6)">29</text><text dy=".8em" transform="translate(590,6)">30</text><text dy=".8em" transform="translate(610,6)">31</text><text dy=".8em" transform="translate(630,6)">32</text><text dy=".8em" transform="translate(650,6)">33</text><text dy=".8em" transform="translate(670,6)">34</text><text dy=".8em" transform="translate(690,6)">35</text><text dy=".8em" transform="translate(710,6)">36</text><text dy=".8em" transform="translate(730,6)">37</text><text dy=".8em" transform="translate(750,6)">38</text><text dy=".8em" transform="translate(770,6)">39</text><text dy=".8em" transform="translate(790,6)">40</text><text dy=".8em" transform="translate(810,6)">41</text><text dy=".8em" transform="translate(830,6)">42</text><text dy=".8em" transform="translate(850,6)">43</text><text dy=".8em" transform="translate(870,6)">44</text><text dy=".8em" transform="translate(890,6)">45</text><text dy=".8em" transform="translate(910,6)">46</text><text dy=".8em" transform="translate(930,6)">47</text><text dy=".8em" transform="translate(950,6)">48</text></g>
     <g font-family="Arial" font-size="28" xml:space="preserve" transform="translate(960,45)"><text fill="black" text-anchor="end" dominant-baseline="middle">PMT</text></g>
    </g>
    <g>
     <path d="M0,0v640M29,640H0M29,627H0M29,613H0M29,600H0M29,587H0M29,573H0M29,560H0M29,547H0M29,533H0M29,520H0M29,507H0M29,493H0M29,480H0M29,467H0M29,453H0M29,440H0M29,427H0M29,413H0M29,400H0M29,387H0M29,373H0M29,360H0M29,347H0M29,333H0M29,320H0M29,307H0M29,293H0M29,280H0M29,267H0M29,253H0M29,240H0M29,227H0M29,213H0M29,200H0M29,187H0M29,173H0M29,160H0M29,147H0M29,133H0M29,120H0M29,107H0M29,93H0M29,80H0M29,67H0M29,53H0M29,40H0M29,27H0M29,13H0M15,0H0" style="stroke: black; stroke-width: 1;"></path>
     <g font-family="Arial" font-size="19" xml:space="preserve" fill="black" text-anchor="end"><text dominant-baseline="middle" transform="translate(-6,634)">1</text><text dominant-baseline="middle" transform="translate(-6,620)">2</text><text dominant-baseline="middle" transform="translate(-6,607)">3</text><text dominant-baseline="middle" transform="translate(-6,594)">4</text><text dominant-baseline="middle" transform="translate(-6,580)">5</text><text dominant-baseline="middle" transform="translate(-6,567)">6</text><text dominant-baseline="middle" transform="translate(-6,554)">7</text><text dominant-baseline="middle" transform="translate(-6,540)">8</text><text dominant-baseline="middle" transform="translate(-6,527)">9</text><text dominant-baseline="middle" transform="translate(-6,514)">10</text><text dominant-baseline="middle" transform="translate(-6,500)">11</text><text dominant-baseline="middle" transform="translate(-6,487)">12</text><text dominant-baseline="middle" transform="translate(-6,474)">13</text><text dominant-baseline="middle" transform="translate(-6,460)">14</text><text dominant-baseline="middle" transform="translate(-6,447)">15</text><text dominant-baseline="middle" transform="translate(-6,434)">16</text><text dominant-baseline="middle" transform="translate(-6,420)">17</text><text dominant-baseline="middle" transform="translate(-6,407)">18</text><text dominant-baseline="middle" transform="translate(-6,394)">19</text><text dominant-baseline="middle" transform="translate(-6,380)">20</text><text dominant-baseline="middle" transform="translate(-6,367)">21</text><text dominant-baseline="middle" transform="translate(-6,354)">22</text><text dominant-baseline="middle" transform="translate(-6,340)">23</text><text dominant-baseline="middle" transform="translate(-6,327)">24</text><text dominant-baseline="middle" transform="translate(-6,314)">25</text><text dominant-baseline="middle" transform="translate(-6,300)">26</text><text dominant-baseline="middle" transform="translate(-6,287)">27</text><text dominant-baseline="middle" transform="translate(-6,274)">28</text><text dominant-baseline="middle" transform="translate(-6,260)">29</text><text dominant-baseline="middle" transform="translate(-6,247)">30</text><text dominant-baseline="middle" transform="translate(-6,234)">31</text><text dominant-baseline="middle" transform="translate(-6,220)">32</text><text dominant-baseline="middle" transform="translate(-6,207)">33</text><text dominant-baseline="middle" transform="translate(-6,194)">34</text><text dominant-baseline="middle" transform="translate(-6,180)">35</text><text dominant-baseline="middle" transform="translate(-6,167)">36</text><text dominant-baseline="middle" transform="translate(-6,154)">37</text><text dominant-baseline="middle" transform="translate(-6,140)">38</text><text dominant-baseline="middle" transform="translate(-6,127)">39</text><text dominant-baseline="middle" transform="translate(-6,114)">40</text><text dominant-baseline="middle" transform="translate(-6,100)">41</text><text dominant-baseline="middle" transform="translate(-6,87)">42</text><text dominant-baseline="middle" transform="translate(-6,74)">43</text><text dominant-baseline="middle" transform="translate(-6,60)">44</text><text dominant-baseline="middle" transform="translate(-6,47)">45</text><text dominant-baseline="middle" transform="translate(-6,34)">46</text><text dominant-baseline="middle" transform="translate(-6,20)">47</text><text dominant-baseline="middle" transform="translate(-6,7)">48</text></g>
     <g font-family="Arial" font-size="28" xml:space="preserve" transform="translate(-67)"><text fill="black" text-anchor="end" dominant-baseline="middle" transform="rotate(270)">PMT</text></g>
    </g>
   </g>
  </g>
  <g transform="translate(936,52)" font-family="Arial" font-size="19" xml:space="preserve" fill="black"><path d="M0,0H240V192H0Z" style="fill: white; stroke: black; stroke-width: 1;"></path><text text-anchor="middle" dominant-baseline="middle" transform="translate(120,16)">LEDShapeHeightCorr_...</text><text text-anchor="start" dominant-baseline="middle" transform="translate(12,48)">Entries</text><text text-anchor="end" dominant-baseline="middle" transform="translate(228,48)">2304</text><text text-anchor="start" dominant-baseline="middle" transform="translate(12,80)">Mean x</text><text text-anchor="end" dominant-baseline="middle" transform="translate(228,80)">22.73</text><text text-anchor="start" dominant-baseline="middle" transform="translate(12,112)">Mean y</text><text text-anchor="end" dominant-baseline="middle" transform="translate(228,112)">22.73</text><text text-anchor="start" dominant-baseline="middle" transform="translate(12,144)">Std Dev x</text><text text-anchor="end" dominant-baseline="middle" transform="translate(228,144)">12.60</text><text text-anchor="start" dominant-baseline="middle" transform="translate(12,176)">Std Dev y</text><text text-anchor="end" dominant-baseline="middle" transform="translate(228,176)">12.60</text><path d="M0,32h240" style="stroke: black; stroke-width: 1;"></path></g>
  <g transform="translate(120,4)" font-family="Arial" font-size="40" xml:space="preserve"><text fill="black" text-anchor="middle" dy=".8em" transform="translate(480)">LEDShapeHeightCorr Gain0</text></g>
 </g>
</svg>