<svg xmlns="http://www.w3.org/2000/svg" viewBox="0 0 1200 800" preserveAspectRatio="none" width="1200" height="800">
 <title>
  ROOT canvas
 </title>
 <path d="M0,0h1200v800h-1200z" style="fill: none;"></path>
 <g>
  <g transform="translate(120,80)">
   <title></title>
   <path d="M0,0h960v640h-960z" style="fill: white; stroke: black; stroke-width: 1;"></path>
   <svg x="0" y="0" overflow="hidden" width="960" height="640" viewBox="0 0 960 640">
    <g>
     <path fill="rgb(38,62,168)" d="M0,613h20v-26h-20zm20,0h20v-26h-20zm20,27h20v-27h-20zm20,0h20v-27h-20z"></path>
     <path fill="rgb(9,157,204)" d="M0,67h20v-14h-20zM0,27h20v-14h-20zM20,67h20v-14h-20zM20,27h20v-14h-20zM40,560h20v-27h-20zM40,453h20v-13h-20zm0,-66h20v-14h-20zM40,240h20v-13h-20zm0,-67h20v-13h-20zM60,560h20v-27h-20zM60,453h20v-13h-20zm0,-66h20v-14h-20zM60,240h20v-13h-20zm0,-67h20v-13h-20zm60,440h20v-26h-20zm20,0h20v-26h-20zm140,0h20v-26h-20zm100,0h20v-26h-20zm220,0h20v-26h-20zm100,0h20v-26h-20zm160,27h20v-27h-20zm60,0h20v-27h-20z"></path>
     <path fill="rgb(30,175,179)" d="M0,587h20v-27h-20zM0,533h20v-80h-20zM0,440h20v-53h-20zM0,373h20v-26h-20zM0,333h20v-53h-20zM0,267h20v-27h-20zM0,227h20v-54h-20zM0,160h20v-27h-20zM0,120h20v-53h-20zM0,53h20v-26h-20zM0,13h20v-13h-20zM20,587h20v-27h-20zm0,-54h20v-80h-20zm0,-93h20v-53h-20zm0,-67h20v-26h-20zm0,-40h20v-53h-20zm0,-66h20v-27h-20zm0,-40h20v-54h-20zm0,-67h20v-27h-20zm0,-40h20v-53h-20zM20,53h20v-26h-20zM20,13h20v-13h-20zM40,587h20v-27h-20zm0,-54h20v-40h-20zm0,-53h20v-27h-20zm0,-40h20v-53h-20zm0,-67h20v-133h-20zM40,227h20v-54h-20zm0,-67h20v-93h-20zM40,53h20v-26h-20zM40,13h20v-13h-20zM60,587h20v-27h-20zm0,-54h20v-40h-20zm0,-53h20v-27h-20zm0,-40h20v-53h-20zm0,-67h20v-133h-20zM60,227h20v-54h-20zm0,-67h20v-93h-20zM60,53h20v-26h-20zM60,13h20v-13h-20zM80,640h20v-53h-20zm0,-80h20v-67h-20zm0,-80h20v-27h-20zm0,-40h20v-53h-20zm0,-67h20v-26h-20zm0,-40h20v-53h-20zm0,-66h20v-27h-20zm0,-40h20v-54h-20zm0,-67h20v-27h-20zm0,-40h20v-53h-20zM80,53h20v-53h-20zm20,587h20v-53h-20zm0,-80h20v-67h-20zm0,-80h20v-27h-20zm0,-40h20v-53h-20zm0,-67h20v-26h-20zm0,-40h20v-53h-20zm0,-66h20v-27h-20zm0,-40h20v-54h-20zm0,-67h20v-27h-20zm0,-40h20v-53h-20zm0,-67h20v-53h-20zm20,534h20v-27h-20zm0,-54h20v-80h-20zm0,-93h20v-53h-20zm0,-67h20v-133h-20zm0,-146h20v-54h-20zm0,-67h20v-93h-20zM120,53h20v-26h-20zm0,-40h20v-13h-20zm20,574h20v-27h-20zm0,-54h20v-80h-20zm0,-93h20v-53h-20zm0,-67h20v-133h-20zm0,-146h20v-54h-20zm0,-67h20v-93h-20zM140,53h20v-26h-20zm0,-40h20v-13h-20zm20,627h20v-107h-20zm0,-120h20v-520h-20zm20,120h20v-120h-20zm0,-133h20v-507h-20zm20,133h20v-133h-20zm0,-147h20v-493h-20zm20,147h20v-27h-20zm0,-80h20v-67h-20zm0,-80h20v-133h-20zm0,-147h20v-53h-20zm0,-66h20v-134h-20zm0,-147h20v-120h-20zm20,520h20v-160h-20zm0,-173h20v-467h-20zm20,173h20v-173h-20zm0,-187h20v-453h-20zm20,80h20v-80h-20zm0,-93h20v-53h-20zm0,-67h20v-133h-20zm0,-146h20v-54h-20zm0,-67h20v-160h-20zm20,480h20v-200h-20zm0,-213h20v-427h-20zm20,213h20v-213h-20zm0,-227h20v-413h-20zm20,227h20v-227h-20zm0,-240h20v-400h-20zm20,240h20v-240h-20zm0,-253h20v-387h-20zm20,146h20v-80h-20zm0,-93h20v-53h-20zm0,-67h20v-133h-20zm0,-146h20v-54h-20zm0,-67h20v-160h-20zm20,480h20v-267h-20zm0,-280h20v-360h-20zm20,280h20v-280h-20zm0,-293h20v-347h-20zm20,266h20v-26h-20zm0,-53h20v-67h-20zm0,-80h20v-133h-20zm0,-147h20v-53h-20zm0,-66h20v-134h-20zm0,-147h20v-120h-20zm20,520h20v-307h-20zm0,-320h20v-320h-20zm20,320h20v-320h-20zm0,-333h20v-307h-20zm20,333h20v-333h-20zm0,-347h20v-293h-20zm20,347h20v-347h-20zm0,-360h20v-280h-20zm20,333h20v-26h-20zm0,-53h20v-67h-20zm0,-80h20v-133h-20zm0,-147h20v-53h-20zm0,-66h20v-134h-20zm0,-147h20v-120h-20zm20,520h20v-373h-20zm0,-387h20v-253h-20zm20,387h20v-387h-20zm0,-400h20v-240h-20zm20,293h20v-80h-20zm0,-93h20v-53h-20zm0,-67h20v-133h-20zm0,-146h20v-54h-20zm0,-67h20v-160h-20zm20,480h20v-413h-20zm0,-427h20v-213h-20zm20,427h20v-427h-20zm0,-440h20v-200h-20zm20,440h20v-440h-20zm0,-453h20v-187h-20zm20,453h20v-453h-20zm0,-467h20v-173h-20zm20,360h20v-80h-20zm0,-93h20v-53h-20zm0,-67h20v-133h-20zm0,-146h20v-54h-20zm0,-67h20v-160h-20zm20,480h20v-480h-20zm0,-493h20v-147h-20zm20,493h20v-493h-20zm0,-507h20v-133h-20zm20,480h20v-26h-20zm0,-53h20v-67h-20zm0,-80h20v-133h-20zm0,-147h20v-53h-20zm0,-66h20v-134h-20zm0,-147h20v-120h-20zm20,520h20v-520h-20zm0,-533h20v-107h-20zm20,533h20v-533h-20zM800,93h20v-93h-20zm20,547h20v-547h-20zM820,80h20v-80h-20zm20,560h20v-560h-20zM840,67h20v-67h-20zm20,466h20v-466h-20zM860,53h20v-53h-20zm20,587h20v-587h-20zM880,40h20v-40h-20zm20,600h20v-600h-20zM900,27h20v-27h-20zm20,560h20v-27h-20zm0,-54h20v-506h-20zM920,13h20v-13h-20zm20,627h20v-627h-20z"></path>
     <path fill="rgb(46,183,164)" d="M0,347h20v-14h-20zM0,280h20v-13h-20zM0,133h20v-13h-20zM20,347h20v-14h-20zm0,-67h20v-13h-20zM20,133h20v-13h-20zM40,493h20v-13h-20zm20,0h20v-13h-20zM80,453h20v-13h-20zm0,-66h20v-14h-20zM80,240h20v-13h-20zm0,-67h20v-13h-20zM80,67h20v-14h-20zm20,386h20v-13h-20zm0,-66h20v-14h-20zm0,-147h20v-13h-20zm0,-67h20v-13h-20zM100,67h20v-14h-20zm20,386h20v-13h-20zm0,-66h20v-14h-20zm0,-147h20v-13h-20zm0,-67h20v-13h-20zM120,67h20v-14h-20zm0,-40h20v-14h-20zm20,426h20v-13h-20zm0,-66h20v-14h-20zm0,-147h20v-13h-20zm0,-67h20v-13h-20zM140,67h20v-14h-20zm0,-40h20v-14h-20zm80,586h20v-26h-20zm60,-26h20v-54h-20zm100,0h20v-54h-20zm60,53h20v-27h-20zm100,0h20v-27h-20zm60,-53h20v-54h-20zm100,0h20v-54h-20zm60,53h20v-27h-20zM860,587h20v-54h-20zm60,-27h20v-27h-20z"></path>
     <path fill="rgb(82,186,146)" d="M80,493h20v-13h-20zm20,0h20v-13h-20zm120,94h20v-27h-20z"></path>
     <path fill="rgb(116,189,129)" d="M0,560h20v-27h-20zM0,453h20v-13h-20zM0,387h20v-14h-20zM0,240h20v-13h-20zM0,173h20v-13h-20zM20,560h20v-27h-20zM20,453h20v-13h-20zm0,-66h20v-14h-20zM20,240h20v-13h-20zm0,-67h20v-13h-20zM40,67h20v-14h-20zM40,27h20v-14h-20zM60,67h20v-14h-20zM60,27h20v-14h-20zM80,347h20v-14h-20zm0,-67h20v-13h-20zM80,133h20v-13h-20zm20,214h20v-14h-20zm0,-67h20v-13h-20zm0,-147h20v-13h-20zm20,507h20v-27h-20zm20,0h20v-27h-20zm140,0h20v-27h-20zm100,0h20v-27h-20zm60,-53h20v-27h-20zm100,0h20v-27h-20zm60,53h20v-27h-20zm100,0h20v-27h-20zm60,-53h20v-27h-20zm100,26h20v-26h-20zm60,0h20v-26h-20z"></path>
     <path fill="rgb(249,249,15)" d="M0,640h20v-27h-20zm20,0h20v-27h-20zM40,613h20v-26h-20zm20,0h20v-26h-20zM80,587h20v-27h-20zm20,0h20v-27h-20zm20,-27h20v-27h-20zm20,0h20v-27h-20zm20,-27h20v-13h-20zm20,-13h20v-13h-20zm20,-13h20v-14h-20zm20,-14h20v-13h-20zm0,-146h20v-14h-20zm0,-67h20v-13h-20zm0,-147h20v-13h-20zm20,347h20v-13h-20zm20,-13h20v-14h-20zm20,-14h20v-13h-20zm0,-66h20v-14h-20zm0,-147h20v-13h-20zm0,-67h20v-13h-20zm20,267h20v-13h-20zm20,-13h20v-14h-20zm20,-14h20v-13h-20zm20,-13h20v-13h-20zm20,53h20v-13h-20zm0,-66h20v-14h-20zm0,-147h20v-13h-20zm0,-67h20v-13h-20zm20,200h20v-13h-20zm20,-13h20v-13h-20zm20,133h20v-13h-20zm0,-146h20v-14h-20zm0,-67h20v-13h-20zm0,-147h20v-13h-20zm20,200h20v-13h-20zm20,-13h20v-13h-20zm20,-13h20v-14h-20zm20,-14h20v-13h-20zm20,200h20v-13h-20zm0,-146h20v-14h-20zm0,-67h20v-13h-20zm0,-147h20v-13h-20zm20,134h20v-14h-20zm20,-14h20v-13h-20zm20,200h20v-13h-20zm0,-66h20v-14h-20zm0,-147h20v-13h-20zm0,-67h20v-13h-20zm20,54h20v-14h-20zm20,-14h20v-13h-20zm20,-13h20v-13h-20zm20,-13h20v-14h-20zm20,266h20v-13h-20zm0,-66h20v-14h-20zm0,-147h20v-13h-20zm0,-67h20v-13h-20zm20,-13h20v-13h-20zm20,-13h20v-14h-20zm20,346h20v-13h-20zm0,-146h20v-14h-20zm0,-67h20v-13h-20zm0,-147h20v-13h-20zm20,-13h20v-13h-20zm20,-13h20v-14h-20zM820,93h20v-13h-20zM840,80h20v-13h-20zM860,67h20v-14h-20zM880,53h20v-13h-20zM900,40h20v-13h-20zM920,27h20v-14h-20zM940,13h20v-13h-20z"></path>
    </g>
   </svg>
   <g>
    <g transform="translate(0,640)">
     <path d="M0,0h960" style="stroke: black; stroke-width: 1;"></path>
     <path d="M0,-24v24m20,-24v24m20,-24v24m20,-24v24m20,-24v24m20,-24v24m20,-24v24m20,-24v24m20,-24v24m20,-24v24m20,-24v24m20,-24v24m20,-24v24m20,-24v24m20,-24v24m20,-24v24m20,-24v24m20,-24v24m20,-24v24m20,-24v24m20,-24v24m20,-24v24m20,-24v24m20,-24v24m20,-24v24m20,-24v24m20,-24v24m20,-24v24m20,-24v24m20,-24v24m20,-24v24m20,-24v24m20,-24v24m20,-24v24m20,-24v24m20,-24v24m20,-24v24m20,-24v24m20,-24v24m20,-24v24m20,-24v24m20,-24v24m20,-24v24m20,-24v24m20,-24v24m20,-24v24m20,-24v24m20,-24v24m20,-12v12" style="stroke: black; stroke-width: 1;"></path>
     <g font-family="Arial" font-size="16" space="preserve">
      <text fill="black" text-anchor="middle" dy=".8em" transform="translate(10,6)">
       1
      </text>
      <text fill="black" text-anchor="middle" dy=".8em" transform="translate(30,6)">
       2
      </text>
      <text fill="black" text-anchor="middle" dy=".8em" transform="translate(50,6)">
       3
      </text>
      <text fill="black" text-anchor="middle" dy=".8em" transform="translate(70,6)">
       4
      </text>
      <text fill="black" text-anchor="middle" dy=".8em" transform="translate(90,6)">
       5
      </text>
      <text fill="black" text-anchor="middle" dy=".8em" transform="translate(110,6)">
       6
      </text>
      <text fill="black" text-anchor="middle" dy=".8em" transform="translate(130,6)">
       7
      </text>
      <text fill="black" text-anchor="middle" dy=".8em" transform="translate(150,6)">
       8
      </text>
      <text fill="black" text-anchor="middle" dy=".8em" transform="translate(170,6)">
       9
      </text>
      <text fill="black" text-anchor="middle" dy=".8em" transform="translate(190,6)">
       10
      </text>
      <text fill="black" text-anchor="middle" dy=".8em" transform="translate(210,6)">
       11
      </text>
      <text fill="black" text-anchor="middle" dy=".8em" transform="translate(230,6)">
       12
      </text>
      <text fill="black" text-anchor="middle" dy=".8em" transform="translate(250,6)">
       13
      </text>
      <text fill="black" text-anchor="middle" dy=".8em" transform="translate(270,6)">
       14
      </text>
      <text fill="black" text-anchor="middle" dy=".8em" transform="translate(290,6)">
       15
      </text>
      <text fill="black" text-anchor="middle" dy=".8em" transform="translate(310,6)">
       16
      </text>
      <text fill="black" text-anchor="middle" dy=".8em" transform="translate(330,6)">
       17
      </text>
      <text fill="black" text-anchor="middle" dy=".8em" transform="translate(350,6)">
       18
      </text>
      <text fill="black" text-anchor="middle" dy=".8em" transform="translate(370,6)">
       19
      </text>
      <text fill="black" text-anchor="middle" dy=".8em" transform="translate(390,6)">
       20
      </text>
      <text fill="black" text-anchor="middle" dy=".8em" transform="translate(410,6)">
       21
      </text>
      <text fill="black" text-anchor="middle" dy=".8em" transform="translate(430,6)">
       22
      </text>
      <text fill="black" text-anchor="middle" dy=".8em" transform="translate(450,6)">
       23
      </text>
      <text fill="black" text-anchor="middle" dy=".8em" transform="translate(470,6)">
       24
      </text>
      <text fill="black" text-anchor="middle" dy=".8em" transform="translate(490,6)">
       25
      </text>
      <text fill="black" text-anchor="middle" dy=".8em" transform="translate(510,6)">
       26
      </text>
      <text fill="black" text-anchor="middle" dy=".8em" transform="translate(530,6)">
       27
      </text>
      <text fill="black" text-anchor="middle" dy=".8em" transform="translate(550,6)">
       28
      </text>
      <text fill="black" text-anchor="middle" dy=".8em" transform="translate(570,6)">
       29
      </text>
      <text fill="black" text-anchor="middle" dy=".8em" transform="translate(590,6)">
       30
      </text>
      <text fill="black" text-anchor="middle" dy=".8em" transform="translate(610,6)">
       31
      </text>
      <text fill="black" text-anchor="middle" dy=".8em" transform="translate(630,6)">
       32
      </text>
      <text fill="black" text-anchor="middle" dy=".8em" transform="translate(650,6)">
       33
      </text>
      <text fill="black" text-anchor="middle" dy=".8em" transform="translate(670,6)">
       34
      </text>
      <text fill="black" text-anchor="middle" dy=".8em" transform="translate(690,6)">
       35
      </text>
      <text fill="black" text-anchor="middle" dy=".8em" transform="translate(710,6)">
       36
      </text>
      <text fill="black" text-anchor="middle" dy=".8em" transform="translate(730,6)">
       37
      </text>
      <text fill="black" text-anchor="middle" dy=".8em" transform="translate(750,6)">
       38
      </text>
      <text fill="black" text-anchor="middle" dy=".8em" transform="translate(770,6)">
       39
      </text>
      <text fill="black" text-anchor="middle" dy=".8em" transform="translate(790,6)">
       40
      </text>
      <text fill="black" text-anchor="middle" dy=".8em" transform="translate(810,6)">
       41
      </text>
      <text fill="black" text-anchor="middle" dy=".8em" transform="translate(830,6)">
       42
      </text>
      <text fill="black" text-anchor="middle" dy=".8em" transform="translate(850,6)">
       43
      </text>
      <text fill="black" text-anchor="middle" dy=".8em" transform="translate(870,6)">
       44
      </text>
      <text fill="black" text-anchor="middle" dy=".8em" transform="translate(890,6)">
       45
      </text>
      <text fill="black" text-anchor="middle" dy=".8em" transform="translate(910,6)">
       46
      </text>
      <text fill="black" text-anchor="middle" dy=".8em" transform="translate(930,6)">
       47
      </text>
      <text fill="black" text-anchor="middle" dy=".8em" transform="translate(950,6)">
       48
      </text>
     </g>
     <g font-family="Arial" font-size="28" space="preserve" transform="translate(960,45)">
      <text fill="black" text-anchor="end" dy=".4em">
       PMT
      </text>
     </g>
    </g>
    <g>
     <path d="M0,0v640" style="stroke: black; stroke-width: 1;"></path>
     <path d="M36,640h-36m36,-13h-36m36,-14h-36m36,-13h-36m36,-13h-36m36,-14h-36m36,-13h-36m36,-13h-36m36,-14h-36m36,-13h-36m36,-13h-36m36,-14h-36m36,-13h-36m36,-13h-36m36,-14h-36m36,-13h-36m36,-13h-36m36,-14h-36m36,-13h-36m36,-13h-36m36,-14h-36m36,-13h-36m36,-13h-36m36,-14h-36m36,-13h-36m36,-13h-36m36,-14h-36m36,-13h-36m36,-13h-36m36,-14h-36m36,-13h-36m36,-13h-36m36,-14h-36m36,-13h-36m36,-13h-36m36,-14h-36m36,-13h-36m36,-13h-36m36,-14h-36m36,-13h-36m36,-13h-36m36,-14h-36m36,-13h-36m36,-13h-36m36,-14h-36m36,-13h-36m36,-13h-36m36,-14h-36m18,-13h-18" style="stroke: black; stroke-width: 1;"></path>
     <g font-family="Arial" font-size="11" space="preserve">
      <text fill="black" text-anchor="end" dy=".4em" transform="translate(-4,634)">
       1
      </text>
      <text fill="black" text-anchor="end" dy=".4em" transform="translate(-4,620)">
       2
      </text>
      <text fill="black" text-anchor="end" dy=".4em" transform="translate(-4,607)">
       3
      </text>
      <text fill="black" text-anchor="end" dy=".4em" transform="translate(-4,594)">
       4
      </text>
      <text fill="black" text-anchor="end" dy=".4em" transform="translate(-4,580)">
       5
      </text>
      <text fill="black" text-anchor="end" dy=".4em" transform="translate(-4,567)">
       6
      </text>
      <text fill="black" text-anchor="end" dy=".4em" transform="translate(-4,554)">
       7
      </text>
      <text fill="black" text-anchor="end" dy=".4em" transform="translate(-4,540)">
       8
      </text>
      <text fill="black" text-anchor="end" dy=".4em" transform="translate(-4,527)">
       9
      </text>
      <text fill="black" text-anchor="end" dy=".4em" transform="translate(-4,514)">
       10
      </text>
      <text fill="black" text-anchor="end" dy=".4em" transform="translate(-4,500)">
       11
      </text>
      <text fill="black" text-anchor="end" dy=".4em" transform="translate(-4,487)">
       12
      </text>
      <text fill="black" text-anchor="end" dy=".4em" transform="translate(-4,474)">
       13
      </text>
      <text fill="black" text-anchor="end" dy=".4em" transform="translate(-4,460)">
       14
      </text>
      <text fill="black" text-anchor="end" dy=".4em" transform="translate(-4,447)">
       15
      </text>
      <text fill="black" text-anchor="end" dy=".4em" transform="translate(-4,434)">
       16
      </text>
      <text fill="black" text-anchor="end" dy=".4em" transform="translate(-4,420)">
       17
      </text>
      <text fill="black" text-anchor="end" dy=".4em" transform="translate(-4,407)">
       18
      </text>
      <text fill="black" text-anchor="end" dy=".4em" transform="translate(-4,394)">
       19
      </text>
      <text fill="black" text-anchor="end" dy=".4em" transform="translate(-4,380)">
       20
      </text>
      <text fill="black" text-anchor="end" dy=".4em" transform="translate(-4,367)">
       21
      </text>
      <text fill="black" text-anchor="end" dy=".4em" transform="translate(-4,354)">
       22
      </text>
      <text fill="black" text-anchor="end" dy=".4em" transform="translate(-4,340)">
       23
      </text>
      <text fill="black" text-anchor="end" dy=".4em" transform="translate(-4,327)">
       24
      </text>
      <text fill="black" text-anchor="end" dy=".4em" transform="translate(-4,314)">
       25
      </text>
      <text fill="black" text-anchor="end" dy=".4em" transform="translate(-4,300)">
       26
      </text>
      <text fill="black" text-anchor="end" dy=".4em" transform="translate(-4,287)">
       27
      </text>
      <text fill="black" text-anchor="end" dy=".4em" transform="translate(-4,274)">
       28
      </text>
      <text fill="black" text-anchor="end" dy=".4em" transform="translate(-4,260)">
       29
      </text>
      <text fill="black" text-anchor="end" dy=".4em" transform="translate(-4,247)">
       30
      </text>
      <text fill="black" text-anchor="end" dy=".4em" transform="translate(-4,234)">
       31
      </text>
      <text fill="black" text-anchor="end" dy=".4em" transform="translate(-4,220)">
       32
      </text>
      <text fill="black" text-anchor="end" dy=".4em" transform="translate(-4,207)">
       33
      </text>
      <text fill="black" text-anchor="end" dy=".4em" transform="translate(-4,194)">
       34
      </text>
      <text fill="black" text-anchor="end" dy=".4em" transform="translate(-4,180)">
       35
      </text>
      <text fill="black" text-anchor="end" dy=".4em" transform="translate(-4,167)">
       36
      </text>
      <text fill="black" text-anchor="end" dy=".4em" transform="translate(-4,154)">
       37
      </text>
      <text fill="black" text-anchor="end" dy=".4em" transform="translate(-4,140)">
       38
      </text>
      <text fill="black" text-anchor="end" dy=".4em" transform="translate(-4,127)">
       39
      </text>
      <text fill="black" text-anchor="end" dy=".4em" transform="translate(-4,114)">
       40
      </text>
      <text fill="black" text-anchor="end" dy=".4em" transform="translate(-4,100)">
       41
      </text>
      <text fill="black" text-anchor="end" dy=".4em" transform="translate(-4,87)">
       42
      </text>
      <text fill="black" text-anchor="end" dy=".4em" transform="translate(-4,74)">
       43
      </text>
      <text fill="black" text-anchor="end" dy=".4em" transform="translate(-4,60)">
       44
      </text>
      <text fill="black" text-anchor="end" dy=".4em" transform="translate(-4,47)">
       45
      </text>
      <text fill="black" text-anchor="end" dy=".4em" transform="translate(-4,34)">
       46
      </text>
      <text fill="black" text-anchor="end" dy=".4em" transform="translate(-4,20)">
       47
      </text>
      <text fill="black" text-anchor="end" dy=".4em" transform="translate(-4,7)">
       48
      </text>
     </g>
     <g font-family="Arial" font-size="28" space="preserve" transform="translate(-67,0)">
      <text fill="black" text-anchor="end" dy=".4em" transform=" rotate(270)">
       PMT
      </text>
     </g>
    </g>
   </g>
  </g>
  <g transform="translate(120,4)" font-family="Arial" font-size="40" space="preserve">
   <path d="M0,0h960v53h-960z" style="fill: none;"></path>
   <text fill="black" text-anchor="middle" dy=".8em" transform="translate(480,0)">
    LEDShapeHeightCorr Gain0
   </text>
  </g>
  <g transform="translate(936,52)" font-family="Arial" font-size="17" space="preserve">
   <path d="M0,0h240v212h-240z" style="fill: white; stroke: black; stroke-width: 1;"></path>
   <text fill="black" text-anchor="middle" dy=".4em" transform="translate(120,18)">
    LEDShapeHeightCorr_...
   </text>
   <text fill="black" text-anchor="start" dy=".4em" transform="translate(12,53)">
    Entries
   </text>
   <text fill="black" text-anchor="end" dy=".4em" transform="translate(228,53)">
    2304
   </text>
   <text fill="black" text-anchor="start" dy=".4em" transform="translate(12,88)">
    Mean x
   </text>
   <text fill="black" text-anchor="end" dy=".4em" transform="translate(228,88)">
    22.73
   </text>
   <text fill="black" text-anchor="start" dy=".4em" transform="translate(12,124)">
    Mean y
   </text>
   <text fill="black" text-anchor="end" dy=".4em" transform="translate(228,124)">
    22.73
   </text>
   <text fill="black" text-anchor="start" dy=".4em" transform="translate(12,159)">
    Std Dev x
   </text>
   <text fill="black" text-anchor="end" dy=".4em" transform="translate(228,159)">
    12.60
   </text>
   <text fill="black" text-anchor="start" dy=".4em" transform="translate(12,194)">
    Std Dev y
   </text>
   <text fill="black" text-anchor="end" dy=".4em" transform="translate(228,194)">
    12.60
   </text>
   <path d="M0,35h240" style="stroke: black; stroke-width: 1;"></path>
  </g>
 </g>
</svg>