<svg viewBox="0 0 1200 800" preserveAspectRatio="none" xmlns="http://www.w3.org/2000/svg" width="1200" height="800"><title>ROOT canvas</title><rect x="0" y="0" width="1200" height="800" style="fill: none;"></rect><g><g transform="translate(120,80)"><title></title><rect x="0" y="0" width="960" height="640" style="fill: white; stroke: black; stroke-width: 1;"></rect><svg x="0" y="0" overflow="hidden" width="960" height="640" viewBox="0 0 960 640"><g objname="LEDShapeHeightCorr_Gain0" objtype="TH2F"><path palette-index="12" fill="rgb(38,62,168)" d="M0,600v13h20v-13zM0,587v13h20v-13zm20,13v13h20v-13zm0,-13v13h20v-13zm20,40v13h20v-13zm0,-14v14h20v-14zm20,14v13h20v-13zm0,-14v14h20v-14z"></path><path palette-index="89" fill="rgb(9,157,204)" d="M0,53v14h20v-14zM0,13v14h20v-14zM20,53v14h20v-14zM20,13v14h20v-14zM40,547v13h20v-13zm0,-14v14h20v-14zm0,-93v13h20v-13zm0,-67v14h20v-14zM40,227v13h20v-13zm0,-67v13h20v-13zM60,547v13h20v-13zm0,-14v14h20v-14zm0,-93v13h20v-13zm0,-67v14h20v-14zM60,227v13h20v-13zm0,-67v13h20v-13zm60,440v13h20v-13zm0,-13v13h20v-13zm20,13v13h20v-13zm0,-13v13h20v-13zm140,13v13h20v-13zm0,-13v13h20v-13zm100,13v13h20v-13zm0,-13v13h20v-13zm220,13v13h20v-13zm0,-13v13h20v-13zm100,13v13h20v-13zm0,-13v13h20v-13zm160,40v13h20v-13zm0,-14v14h20v-14zm60,14v13h20v-13zm0,-14v14h20v-14z"></path><path palette-index="114" fill="rgb(30,175,179)" d="M0,573v14h20v-14zM0,560v13h20v-13zM0,520v13h20v-13zM0,507v13h20v-13zM0,493v14h20v-14zM0,480v13h20v-13zM0,467v13h20v-13zM0,453v14h20v-14zM0,427v13h20v-13zM0,413v14h20v-14zM0,400v13h20v-13zM0,387v13h20v-13zM0,360v13h20v-13zM0,347v13h20v-13zM0,320v13h20v-13zM0,307v13h20v-13zM0,293v14h20v-14zM0,280v13h20v-13zM0,253v14h20v-14zM0,240v13h20v-13zM0,213v14h20v-14zM0,200v13h20v-13zM0,187v13h20v-13zM0,173v14h20v-14zM0,147v13h20v-13zM0,133v14h20v-14zM0,107v13h20v-13zM0,93v14h20v-14zM0,80v13h20v-13zM0,67v13h20v-13zM0,40v13h20v-13zM0,27v13h20v-13zM0,0v13h20v-13zM20,573v14h20v-14zm0,-13v13h20v-13zm0,-40v13h20v-13zm0,-13v13h20v-13zm0,-14v14h20v-14zm0,-13v13h20v-13zm0,-13v13h20v-13zm0,-14v14h20v-14zm0,-26v13h20v-13zm0,-14v14h20v-14zm0,-13v13h20v-13zm0,-13v13h20v-13zm0,-27v13h20v-13zm0,-13v13h20v-13zm0,-27v13h20v-13zm0,-13v13h20v-13zm0,-14v14h20v-14zm0,-13v13h20v-13zm0,-27v14h20v-14zm0,-13v13h20v-13zm0,-27v14h20v-14zm0,-13v13h20v-13zm0,-13v13h20v-13zm0,-14v14h20v-14zm0,-26v13h20v-13zm0,-14v14h20v-14zm0,-26v13h20v-13zM20,93v14h20v-14zM20,80v13h20v-13zM20,67v13h20v-13zM20,40v13h20v-13zM20,27v13h20v-13zM20,0v13h20v-13zM40,573v14h20v-14zm0,-13v13h20v-13zm0,-40v13h20v-13zm0,-13v13h20v-13zm0,-14v14h20v-14zm0,-26v13h20v-13zm0,-14v14h20v-14zm0,-26v13h20v-13zm0,-14v14h20v-14zm0,-13v13h20v-13zm0,-13v13h20v-13zm0,-27v13h20v-13zm0,-13v13h20v-13zm0,-14v14h20v-14zm0,-13v13h20v-13zm0,-13v13h20v-13zm0,-14v14h20v-14zm0,-13v13h20v-13zm0,-13v13h20v-13zm0,-14v14h20v-14zm0,-13v13h20v-13zm0,-27v14h20v-14zm0,-13v13h20v-13zm0,-13v13h20v-13zm0,-14v14h20v-14zm0,-26v13h20v-13zm0,-14v14h20v-14zm0,-13v13h20v-13zm0,-13v13h20v-13zM40,93v14h20v-14zM40,80v13h20v-13zM40,67v13h20v-13zM40,40v13h20v-13zM40,27v13h20v-13zM40,0v13h20v-13zM60,573v14h20v-14zm0,-13v13h20v-13zm0,-40v13h20v-13zm0,-13v13h20v-13zm0,-14v14h20v-14zm0,-26v13h20v-13zm0,-14v14h20v-14zm0,-26v13h20v-13zm0,-14v14h20v-14zm0,-13v13h20v-13zm0,-13v13h20v-13zm0,-27v13h20v-13zm0,-13v13h20v-13zm0,-14v14h20v-14zm0,-13v13h20v-13zm0,-13v13h20v-13zm0,-14v14h20v-14zm0,-13v13h20v-13zm0,-13v13h20v-13zm0,-14v14h20v-14zm0,-13v13h20v-13zm0,-27v14h20v-14zm0,-13v13h20v-13zm0,-13v13h20v-13zm0,-14v14h20v-14zm0,-26v13h20v-13zm0,-14v14h20v-14zm0,-13v13h20v-13zm0,-13v13h20v-13zM60,93v14h20v-14zM60,80v13h20v-13zM60,67v13h20v-13zM60,40v13h20v-13zM60,27v13h20v-13zM60,0v13h20v-13zM80,627v13h20v-13zm0,-14v14h20v-14zm0,-13v13h20v-13zm0,-13v13h20v-13zm0,-40v13h20v-13zm0,-14v14h20v-14zm0,-13v13h20v-13zm0,-13v13h20v-13zm0,-14v14h20v-14zm0,-26v13h20v-13zm0,-14v14h20v-14zm0,-26v13h20v-13zm0,-14v14h20v-14zm0,-13v13h20v-13zm0,-13v13h20v-13zm0,-27v13h20v-13zm0,-13v13h20v-13zm0,-27v13h20v-13zm0,-13v13h20v-13zm0,-14v14h20v-14zm0,-13v13h20v-13zm0,-27v14h20v-14zm0,-13v13h20v-13zm0,-27v14h20v-14zm0,-13v13h20v-13zm0,-13v13h20v-13zm0,-14v14h20v-14zm0,-26v13h20v-13zm0,-14v14h20v-14zm0,-26v13h20v-13zM80,93v14h20v-14zM80,80v13h20v-13zM80,67v13h20v-13zM80,40v13h20v-13zM80,27v13h20v-13zM80,13v14h20v-14zM80,0v13h20v-13zm20,627v13h20v-13zm0,-14v14h20v-14zm0,-13v13h20v-13zm0,-13v13h20v-13zm0,-40v13h20v-13zm0,-14v14h20v-14zm0,-13v13h20v-13zm0,-13v13h20v-13zm0,-14v14h20v-14zm0,-26v13h20v-13zm0,-14v14h20v-14zm0,-26v13h20v-13zm0,-14v14h20v-14zm0,-13v13h20v-13zm0,-13v13h20v-13zm0,-27v13h20v-13zm0,-13v13h20v-13zm0,-27v13h20v-13zm0,-13v13h20v-13zm0,-14v14h20v-14zm0,-13v13h20v-13zm0,-27v14h20v-14zm0,-13v13h20v-13zm0,-27v14h20v-14zm0,-13v13h20v-13zm0,-13v13h20v-13zm0,-14v14h20v-14zm0,-26v13h20v-13zm0,-14v14h20v-14zm0,-26v13h20v-13zm0,-14v14h20v-14zm0,-13v13h20v-13zm0,-13v13h20v-13zm0,-27v13h20v-13zm0,-13v13h20v-13zm0,-14v14h20v-14zM100,0v13h20v-13zm20,573v14h20v-14zm0,-13v13h20v-13zm0,-40v13h20v-13zm0,-13v13h20v-13zm0,-14v14h20v-14zm0,-13v13h20v-13zm0,-13v13h20v-13zm0,-14v14h20v-14zm0,-26v13h20v-13zm0,-14v14h20v-14zm0,-13v13h20v-13zm0,-13v13h20v-13zm0,-27v13h20v-13zm0,-13v13h20v-13zm0,-14v14h20v-14zm0,-13v13h20v-13zm0,-13v13h20v-13zm0,-14v14h20v-14zm0,-13v13h20v-13zm0,-13v13h20v-13zm0,-14v14h20v-14zm0,-13v13h20v-13zm0,-27v14h20v-14zm0,-13v13h20v-13zm0,-13v13h20v-13zm0,-14v14h20v-14zm0,-26v13h20v-13zm0,-14v14h20v-14zm0,-13v13h20v-13zm0,-13v13h20v-13zm0,-14v14h20v-14zm0,-13v13h20v-13zm0,-13v13h20v-13zm0,-27v13h20v-13zm0,-13v13h20v-13zM120,0v13h20v-13zm20,573v14h20v-14zm0,-13v13h20v-13zm0,-40v13h20v-13zm0,-13v13h20v-13zm0,-14v14h20v-14zm0,-13v13h20v-13zm0,-13v13h20v-13zm0,-14v14h20v-14zm0,-26v13h20v-13zm0,-14v14h20v-14zm0,-13v13h20v-13zm0,-13v13h20v-13zm0,-27v13h20v-13zm0,-13v13h20v-13zm0,-14v14h20v-14zm0,-13v13h20v-13zm0,-13v13h20v-13zm0,-14v14h20v-14zm0,-13v13h20v-13zm0,-13v13h20v-13zm0,-14v14h20v-14zm0,-13v13h20v-13zm0,-27v14h20v-14zm0,-13v13h20v-13zm0,-13v13h20v-13zm0,-14v14h20v-14zm0,-26v13h20v-13zm0,-14v14h20v-14zm0,-13v13h20v-13zm0,-13v13h20v-13zm0,-14v14h20v-14zm0,-13v13h20v-13zm0,-13v13h20v-13zm0,-27v13h20v-13zm0,-13v13h20v-13zM140,0v13h20v-13zm20,627v13h20v-13zm0,-14v14h20v-14zm0,-13v13h20v-13zm0,-13v13h20v-13zm0,-14v14h20v-14zm0,-13v13h20v-13zm0,-13v13h20v-13zm0,-14v14h20v-14zm0,-26v13h20v-13zm0,-14v14h20v-14zm0,-13v13h20v-13zm0,-13v13h20v-13zm0,-14v14h20v-14zm0,-13v13h20v-13zm0,-13v13h20v-13zm0,-14v14h20v-14zm0,-13v13h20v-13zm0,-13v13h20v-13zm0,-14v14h20v-14zm0,-13v13h20v-13zm0,-13v13h20v-13zm0,-14v14h20v-14zm0,-13v13h20v-13zm0,-13v13h20v-13zm0,-14v14h20v-14zm0,-13v13h20v-13zm0,-13v13h20v-13zm0,-14v14h20v-14zm0,-13v13h20v-13zm0,-13v13h20v-13zm0,-14v14h20v-14zm0,-13v13h20v-13zm0,-13v13h20v-13zm0,-14v14h20v-14zm0,-13v13h20v-13zm0,-13v13h20v-13zm0,-14v14h20v-14zm0,-13v13h20v-13zm0,-13v13h20v-13zm0,-14v14h20v-14zm0,-13v13h20v-13zm0,-13v13h20v-13zm0,-14v14h20v-14zm0,-13v13h20v-13zm0,-13v13h20v-13zm0,-14v14h20v-14zM160,0v13h20v-13zm20,627v13h20v-13zm0,-14v14h20v-14zm0,-13v13h20v-13zm0,-13v13h20v-13zm0,-14v14h20v-14zm0,-13v13h20v-13zm0,-13v13h20v-13zm0,-14v14h20v-14zm0,-13v13h20v-13zm0,-27v14h20v-14zm0,-13v13h20v-13zm0,-13v13h20v-13zm0,-14v14h20v-14zm0,-13v13h20v-13zm0,-13v13h20v-13zm0,-14v14h20v-14zm0,-13v13h20v-13zm0,-13v13h20v-13zm0,-14v14h20v-14zm0,-13v13h20v-13zm0,-13v13h20v-13zm0,-14v14h20v-14zm0,-13v13h20v-13zm0,-13v13h20v-13zm0,-14v14h20v-14zm0,-13v13h20v-13zm0,-13v13h20v-13zm0,-14v14h20v-14zm0,-13v13h20v-13zm0,-13v13h20v-13zm0,-14v14h20v-14zm0,-13v13h20v-13zm0,-13v13h20v-13zm0,-14v14h20v-14zm0,-13v13h20v-13zm0,-13v13h20v-13zm0,-14v14h20v-14zm0,-13v13h20v-13zm0,-13v13h20v-13zm0,-14v14h20v-14zm0,-13v13h20v-13zm0,-13v13h20v-13zm0,-14v14h20v-14zm0,-13v13h20v-13zm0,-13v13h20v-13zm0,-14v14h20v-14zM180,0v13h20v-13zm20,627v13h20v-13zm0,-14v14h20v-14zm0,-13v13h20v-13zm0,-13v13h20v-13zm0,-14v14h20v-14zm0,-13v13h20v-13zm0,-13v13h20v-13zm0,-14v14h20v-14zm0,-13v13h20v-13zm0,-13v13h20v-13zm0,-27v13h20v-13zm0,-13v13h20v-13zm0,-14v14h20v-14zm0,-13v13h20v-13zm0,-13v13h20v-13zm0,-14v14h20v-14zm0,-13v13h20v-13zm0,-13v13h20v-13zm0,-14v14h20v-14zm0,-13v13h20v-13zm0,-13v13h20v-13zm0,-14v14h20v-14zm0,-13v13h20v-13zm0,-13v13h20v-13zm0,-14v14h20v-14zm0,-13v13h20v-13zm0,-13v13h20v-13zm0,-14v14h20v-14zm0,-13v13h20v-13zm0,-13v13h20v-13zm0,-14v14h20v-14zm0,-13v13h20v-13zm0,-13v13h20v-13zm0,-14v14h20v-14zm0,-13v13h20v-13zm0,-13v13h20v-13zm0,-14v14h20v-14zm0,-13v13h20v-13zm0,-13v13h20v-13zm0,-14v14h20v-14zm0,-13v13h20v-13zm0,-13v13h20v-13zm0,-14v14h20v-14zm0,-13v13h20v-13zm0,-13v13h20v-13zm0,-14v14h20v-14zM200,0v13h20v-13zm20,627v13h20v-13zm0,-14v14h20v-14zm0,-66v13h20v-13zm0,-14v14h20v-14zm0,-13v13h20v-13zm0,-13v13h20v-13zm0,-14v14h20v-14zm0,-26v13h20v-13zm0,-14v14h20v-14zm0,-13v13h20v-13zm0,-13v13h20v-13zm0,-14v14h20v-14zm0,-13v13h20v-13zm0,-13v13h20v-13zm0,-14v14h20v-14zm0,-13v13h20v-13zm0,-13v13h20v-13zm0,-27v13h20v-13zm0,-13v13h20v-13zm0,-14v14h20v-14zm0,-13v13h20v-13zm0,-27v14h20v-14zm0,-13v13h20v-13zm0,-13v13h20v-13zm0,-14v14h20v-14zm0,-13v13h20v-13zm0,-13v13h20v-13zm0,-14v14h20v-14zm0,-13v13h20v-13zm0,-13v13h20v-13zm0,-14v14h20v-14zm0,-26v13h20v-13zm0,-14v14h20v-14zm0,-13v13h20v-13zm0,-13v13h20v-13zm0,-14v14h20v-14zm0,-13v13h20v-13zm0,-13v13h20v-13zm0,-14v14h20v-14zM220,0v13h20v-13zm20,627v13h20v-13zm0,-14v14h20v-14zm0,-13v13h20v-13zm0,-13v13h20v-13zm0,-14v14h20v-14zm0,-13v13h20v-13zm0,-13v13h20v-13zm0,-14v14h20v-14zm0,-13v13h20v-13zm0,-13v13h20v-13zm0,-14v14h20v-14zm0,-13v13h20v-13zm0,-27v14h20v-14zm0,-13v13h20v-13zm0,-13v13h20v-13zm0,-14v14h20v-14zm0,-13v13h20v-13zm0,-13v13h20v-13zm0,-14v14h20v-14zm0,-13v13h20v-13zm0,-13v13h20v-13zm0,-14v14h20v-14zm0,-13v13h20v-13zm0,-13v13h20v-13zm0,-14v14h20v-14zm0,-13v13h20v-13zm0,-13v13h20v-13zm0,-14v14h20v-14zm0,-13v13h20v-13zm0,-13v13h20v-13zm0,-14v14h20v-14zm0,-13v13h20v-13zm0,-13v13h20v-13zm0,-14v14h20v-14zm0,-13v13h20v-13zm0,-13v13h20v-13zm0,-14v14h20v-14zm0,-13v13h20v-13zm0,-13v13h20v-13zm0,-14v14h20v-14zm0,-13v13h20v-13zm0,-13v13h20v-13zm0,-14v14h20v-14zm0,-13v13h20v-13zm0,-13v13h20v-13zm0,-14v14h20v-14zM240,0v13h20v-13zm20,627v13h20v-13zm0,-14v14h20v-14zm0,-13v13h20v-13zm0,-13v13h20v-13zm0,-14v14h20v-14zm0,-13v13h20v-13zm0,-13v13h20v-13zm0,-14v14h20v-14zm0,-13v13h20v-13zm0,-13v13h20v-13zm0,-14v14h20v-14zm0,-13v13h20v-13zm0,-13v13h20v-13zm0,-27v13h20v-13zm0,-13v13h20v-13zm0,-14v14h20v-14zm0,-13v13h20v-13zm0,-13v13h20v-13zm0,-14v14h20v-14zm0,-13v13h20v-13zm0,-13v13h20v-13zm0,-14v14h20v-14zm0,-13v13h20v-13zm0,-13v13h20v-13zm0,-14v14h20v-14zm0,-13v13h20v-13zm0,-13v13h20v-13zm0,-14v14h20v-14zm0,-13v13h20v-13zm0,-13v13h20v-13zm0,-14v14h20v-14zm0,-13v13h20v-13zm0,-13v13h20v-13zm0,-14v14h20v-14zm0,-13v13h20v-13zm0,-13v13h20v-13zm0,-14v14h20v-14zm0,-13v13h20v-13zm0,-13v13h20v-13zm0,-14v14h20v-14zm0,-13v13h20v-13zm0,-13v13h20v-13zm0,-14v14h20v-14zm0,-13v13h20v-13zm0,-13v13h20v-13zm0,-14v14h20v-14zM260,0v13h20v-13zm20,520v13h20v-13zm0,-13v13h20v-13zm0,-14v14h20v-14zm0,-13v13h20v-13zm0,-13v13h20v-13zm0,-14v14h20v-14zm0,-26v13h20v-13zm0,-14v14h20v-14zm0,-13v13h20v-13zm0,-13v13h20v-13zm0,-27v13h20v-13zm0,-13v13h20v-13zm0,-14v14h20v-14zm0,-13v13h20v-13zm0,-13v13h20v-13zm0,-14v14h20v-14zm0,-13v13h20v-13zm0,-13v13h20v-13zm0,-14v14h20v-14zm0,-13v13h20v-13zm0,-27v14h20v-14zm0,-13v13h20v-13zm0,-13v13h20v-13zm0,-14v14h20v-14zm0,-26v13h20v-13zm0,-14v14h20v-14zm0,-13v13h20v-13zm0,-13v13h20v-13zm0,-14v14h20v-14zm0,-13v13h20v-13zm0,-13v13h20v-13zm0,-14v14h20v-14zm0,-13v13h20v-13zm0,-13v13h20v-13zm0,-14v14h20v-14zM280,0v13h20v-13zm20,627v13h20v-13zm0,-14v14h20v-14zm0,-13v13h20v-13zm0,-13v13h20v-13zm0,-14v14h20v-14zm0,-13v13h20v-13zm0,-13v13h20v-13zm0,-14v14h20v-14zm0,-13v13h20v-13zm0,-13v13h20v-13zm0,-14v14h20v-14zm0,-13v13h20v-13zm0,-13v13h20v-13zm0,-14v14h20v-14zm0,-13v13h20v-13zm0,-27v14h20v-14zm0,-13v13h20v-13zm0,-13v13h20v-13zm0,-14v14h20v-14zm0,-13v13h20v-13zm0,-13v13h20v-13zm0,-14v14h20v-14zm0,-13v13h20v-13zm0,-13v13h20v-13zm0,-14v14h20v-14zm0,-13v13h20v-13zm0,-13v13h20v-13zm0,-14v14h20v-14zm0,-13v13h20v-13zm0,-13v13h20v-13zm0,-14v14h20v-14zm0,-13v13h20v-13zm0,-13v13h20v-13zm0,-14v14h20v-14zm0,-13v13h20v-13zm0,-13v13h20v-13zm0,-14v14h20v-14zm0,-13v13h20v-13zm0,-13v13h20v-13zm0,-14v14h20v-14zm0,-13v13h20v-13zm0,-13v13h20v-13zm0,-14v14h20v-14zm0,-13v13h20v-13zm0,-13v13h20v-13zm0,-14v14h20v-14zM300,0v13h20v-13zm20,627v13h20v-13zm0,-14v14h20v-14zm0,-13v13h20v-13zm0,-13v13h20v-13zm0,-14v14h20v-14zm0,-13v13h20v-13zm0,-13v13h20v-13zm0,-14v14h20v-14zm0,-13v13h20v-13zm0,-13v13h20v-13zm0,-14v14h20v-14zm0,-13v13h20v-13zm0,-13v13h20v-13zm0,-14v14h20v-14zm0,-13v13h20v-13zm0,-13v13h20v-13zm0,-27v13h20v-13zm0,-13v13h20v-13zm0,-14v14h20v-14zm0,-13v13h20v-13zm0,-13v13h20v-13zm0,-14v14h20v-14zm0,-13v13h20v-13zm0,-13v13h20v-13zm0,-14v14h20v-14zm0,-13v13h20v-13zm0,-13v13h20v-13zm0,-14v14h20v-14zm0,-13v13h20v-13zm0,-13v13h20v-13zm0,-14v14h20v-14zm0,-13v13h20v-13zm0,-13v13h20v-13zm0,-14v14h20v-14zm0,-13v13h20v-13zm0,-13v13h20v-13zm0,-14v14h20v-14zm0,-13v13h20v-13zm0,-13v13h20v-13zm0,-14v14h20v-14zm0,-13v13h20v-13zm0,-13v13h20v-13zm0,-14v14h20v-14zm0,-13v13h20v-13zm0,-13v13h20v-13zm0,-14v14h20v-14zM320,0v13h20v-13zm20,627v13h20v-13zm0,-14v14h20v-14zm0,-13v13h20v-13zm0,-13v13h20v-13zm0,-14v14h20v-14zm0,-13v13h20v-13zm0,-13v13h20v-13zm0,-14v14h20v-14zm0,-13v13h20v-13zm0,-13v13h20v-13zm0,-14v14h20v-14zm0,-13v13h20v-13zm0,-13v13h20v-13zm0,-14v14h20v-14zm0,-13v13h20v-13zm0,-13v13h20v-13zm0,-14v14h20v-14zm0,-26v13h20v-13zm0,-14v14h20v-14zm0,-13v13h20v-13zm0,-13v13h20v-13zm0,-14v14h20v-14zm0,-13v13h20v-13zm0,-13v13h20v-13zm0,-14v14h20v-14zm0,-13v13h20v-13zm0,-13v13h20v-13zm0,-14v14h20v-14zm0,-13v13h20v-13zm0,-13v13h20v-13zm0,-14v14h20v-14zm0,-13v13h20v-13zm0,-13v13h20v-13zm0,-14v14h20v-14zm0,-13v13h20v-13zm0,-13v13h20v-13zm0,-14v14h20v-14zm0,-13v13h20v-13zm0,-13v13h20v-13zm0,-14v14h20v-14zm0,-13v13h20v-13zm0,-13v13h20v-13zm0,-14v14h20v-14zm0,-13v13h20v-13zm0,-13v13h20v-13zm0,-14v14h20v-14zM340,0v13h20v-13zm20,627v13h20v-13zm0,-14v14h20v-14zm0,-13v13h20v-13zm0,-13v13h20v-13zm0,-14v14h20v-14zm0,-13v13h20v-13zm0,-13v13h20v-13zm0,-14v14h20v-14zm0,-13v13h20v-13zm0,-13v13h20v-13zm0,-14v14h20v-14zm0,-13v13h20v-13zm0,-13v13h20v-13zm0,-14v14h20v-14zm0,-13v13h20v-13zm0,-13v13h20v-13zm0,-14v14h20v-14zm0,-13v13h20v-13zm0,-27v14h20v-14zm0,-13v13h20v-13zm0,-13v13h20v-13zm0,-14v14h20v-14zm0,-13v13h20v-13zm0,-13v13h20v-13zm0,-14v14h20v-14zm0,-13v13h20v-13zm0,-13v13h20v-13zm0,-14v14h20v-14zm0,-13v13h20v-13zm0,-13v13h20v-13zm0,-14v14h20v-14zm0,-13v13h20v-13zm0,-13v13h20v-13zm0,-14v14h20v-14zm0,-13v13h20v-13zm0,-13v13h20v-13zm0,-14v14h20v-14zm0,-13v13h20v-13zm0,-13v13h20v-13zm0,-14v14h20v-14zm0,-13v13h20v-13zm0,-13v13h20v-13zm0,-14v14h20v-14zm0,-13v13h20v-13zm0,-13v13h20v-13zm0,-14v14h20v-14zM360,0v13h20v-13zm20,520v13h20v-13zm0,-13v13h20v-13zm0,-14v14h20v-14zm0,-13v13h20v-13zm0,-13v13h20v-13zm0,-14v14h20v-14zm0,-26v13h20v-13zm0,-14v14h20v-14zm0,-13v13h20v-13zm0,-13v13h20v-13zm0,-27v13h20v-13zm0,-13v13h20v-13zm0,-14v14h20v-14zm0,-13v13h20v-13zm0,-13v13h20v-13zm0,-14v14h20v-14zm0,-13v13h20v-13zm0,-13v13h20v-13zm0,-14v14h20v-14zm0,-13v13h20v-13zm0,-27v14h20v-14zm0,-13v13h20v-13zm0,-13v13h20v-13zm0,-14v14h20v-14zm0,-26v13h20v-13zm0,-14v14h20v-14zm0,-13v13h20v-13zm0,-13v13h20v-13zm0,-14v14h20v-14zm0,-13v13h20v-13zm0,-13v13h20v-13zm0,-14v14h20v-14zm0,-13v13h20v-13zm0,-13v13h20v-13zm0,-14v14h20v-14zM380,0v13h20v-13zm20,627v13h20v-13zm0,-14v14h20v-14zm0,-13v13h20v-13zm0,-13v13h20v-13zm0,-14v14h20v-14zm0,-13v13h20v-13zm0,-13v13h20v-13zm0,-14v14h20v-14zm0,-13v13h20v-13zm0,-13v13h20v-13zm0,-14v14h20v-14zm0,-13v13h20v-13zm0,-13v13h20v-13zm0,-14v14h20v-14zm0,-13v13h20v-13zm0,-13v13h20v-13zm0,-14v14h20v-14zm0,-13v13h20v-13zm0,-13v13h20v-13zm0,-14v14h20v-14zm0,-26v13h20v-13zm0,-14v14h20v-14zm0,-13v13h20v-13zm0,-13v13h20v-13zm0,-14v14h20v-14zm0,-13v13h20v-13zm0,-13v13h20v-13zm0,-14v14h20v-14zm0,-13v13h20v-13zm0,-13v13h20v-13zm0,-14v14h20v-14zm0,-13v13h20v-13zm0,-13v13h20v-13zm0,-14v14h20v-14zm0,-13v13h20v-13zm0,-13v13h20v-13zm0,-14v14h20v-14zm0,-13v13h20v-13zm0,-13v13h20v-13zm0,-14v14h20v-14zm0,-13v13h20v-13zm0,-13v13h20v-13zm0,-14v14h20v-14zm0,-13v13h20v-13zm0,-13v13h20v-13zm0,-14v14h20v-14zM400,0v13h20v-13zm20,627v13h20v-13zm0,-14v14h20v-14zm0,-13v13h20v-13zm0,-13v13h20v-13zm0,-14v14h20v-14zm0,-13v13h20v-13zm0,-13v13h20v-13zm0,-14v14h20v-14zm0,-13v13h20v-13zm0,-13v13h20v-13zm0,-14v14h20v-14zm0,-13v13h20v-13zm0,-13v13h20v-13zm0,-14v14h20v-14zm0,-13v13h20v-13zm0,-13v13h20v-13zm0,-14v14h20v-14zm0,-13v13h20v-13zm0,-13v13h20v-13zm0,-14v14h20v-14zm0,-13v13h20v-13zm0,-27v14h20v-14zm0,-13v13h20v-13zm0,-13v13h20v-13zm0,-14v14h20v-14zm0,-13v13h20v-13zm0,-13v13h20v-13zm0,-14v14h20v-14zm0,-13v13h20v-13zm0,-13v13h20v-13zm0,-14v14h20v-14zm0,-13v13h20v-13zm0,-13v13h20v-13zm0,-14v14h20v-14zm0,-13v13h20v-13zm0,-13v13h20v-13zm0,-14v14h20v-14zm0,-13v13h20v-13zm0,-13v13h20v-13zm0,-14v14h20v-14zm0,-13v13h20v-13zm0,-13v13h20v-13zm0,-14v14h20v-14zm0,-13v13h20v-13zm0,-13v13h20v-13zm0,-14v14h20v-14zM420,0v13h20v-13zm20,600v13h20v-13zm0,-13v13h20v-13zm0,-40v13h20v-13zm0,-14v14h20v-14zm0,-13v13h20v-13zm0,-13v13h20v-13zm0,-14v14h20v-14zm0,-26v13h20v-13zm0,-14v14h20v-14zm0,-13v13h20v-13zm0,-13v13h20v-13zm0,-14v14h20v-14zm0,-13v13h20v-13zm0,-13v13h20v-13zm0,-14v14h20v-14zm0,-13v13h20v-13zm0,-13v13h20v-13zm0,-27v13h20v-13zm0,-13v13h20v-13zm0,-14v14h20v-14zm0,-13v13h20v-13zm0,-27v14h20v-14zm0,-13v13h20v-13zm0,-13v13h20v-13zm0,-14v14h20v-14zm0,-13v13h20v-13zm0,-13v13h20v-13zm0,-14v14h20v-14zm0,-13v13h20v-13zm0,-13v13h20v-13zm0,-14v14h20v-14zm0,-26v13h20v-13zm0,-14v14h20v-14zm0,-13v13h20v-13zm0,-13v13h20v-13zm0,-14v14h20v-14zm0,-13v13h20v-13zm0,-13v13h20v-13zm0,-14v14h20v-14zM440,0v13h20v-13zm20,627v13h20v-13zm0,-14v14h20v-14zm0,-13v13h20v-13zm0,-13v13h20v-13zm0,-14v14h20v-14zm0,-13v13h20v-13zm0,-13v13h20v-13zm0,-14v14h20v-14zm0,-13v13h20v-13zm0,-13v13h20v-13zm0,-14v14h20v-14zm0,-13v13h20v-13zm0,-13v13h20v-13zm0,-14v14h20v-14zm0,-13v13h20v-13zm0,-13v13h20v-13zm0,-14v14h20v-14zm0,-13v13h20v-13zm0,-13v13h20v-13zm0,-14v14h20v-14zm0,-13v13h20v-13zm0,-13v13h20v-13zm0,-14v14h20v-14zm0,-26v13h20v-13zm0,-14v14h20v-14zm0,-13v13h20v-13zm0,-13v13h20v-13zm0,-14v14h20v-14zm0,-13v13h20v-13zm0,-13v13h20v-13zm0,-14v14h20v-14zm0,-13v13h20v-13zm0,-13v13h20v-13zm0,-14v14h20v-14zm0,-13v13h20v-13zm0,-13v13h20v-13zm0,-14v14h20v-14zm0,-13v13h20v-13zm0,-13v13h20v-13zm0,-14v14h20v-14zm0,-13v13h20v-13zm0,-13v13h20v-13zm0,-14v14h20v-14zm0,-13v13h20v-13zm0,-13v13h20v-13zm0,-14v14h20v-14zM460,0v13h20v-13zm20,627v13h20v-13zm0,-14v14h20v-14zm0,-13v13h20v-13zm0,-13v13h20v-13zm0,-14v14h20v-14zm0,-13v13h20v-13zm0,-13v13h20v-13zm0,-14v14h20v-14zm0,-13v13h20v-13zm0,-13v13h20v-13zm0,-14v14h20v-14zm0,-13v13h20v-13zm0,-13v13h20v-13zm0,-14v14h20v-14zm0,-13v13h20v-13zm0,-13v13h20v-13zm0,-14v14h20v-14zm0,-13v13h20v-13zm0,-13v13h20v-13zm0,-14v14h20v-14zm0,-13v13h20v-13zm0,-13v13h20v-13zm0,-14v14h20v-14zm0,-13v13h20v-13zm0,-27v14h20v-14zm0,-13v13h20v-13zm0,-13v13h20v-13zm0,-14v14h20v-14zm0,-13v13h20v-13zm0,-13v13h20v-13zm0,-14v14h20v-14zm0,-13v13h20v-13zm0,-13v13h20v-13zm0,-14v14h20v-14zm0,-13v13h20v-13zm0,-13v13h20v-13zm0,-14v14h20v-14zm0,-13v13h20v-13zm0,-13v13h20v-13zm0,-14v14h20v-14zm0,-13v13h20v-13zm0,-13v13h20v-13zm0,-14v14h20v-14zm0,-13v13h20v-13zm0,-13v13h20v-13zm0,-14v14h20v-14zM480,0v13h20v-13zm20,627v13h20v-13zm0,-14v14h20v-14zm0,-13v13h20v-13zm0,-13v13h20v-13zm0,-14v14h20v-14zm0,-13v13h20v-13zm0,-13v13h20v-13zm0,-14v14h20v-14zm0,-13v13h20v-13zm0,-13v13h20v-13zm0,-14v14h20v-14zm0,-13v13h20v-13zm0,-13v13h20v-13zm0,-14v14h20v-14zm0,-13v13h20v-13zm0,-13v13h20v-13zm0,-14v14h20v-14zm0,-13v13h20v-13zm0,-13v13h20v-13zm0,-14v14h20v-14zm0,-13v13h20v-13zm0,-13v13h20v-13zm0,-14v14h20v-14zm0,-13v13h20v-13zm0,-13v13h20v-13zm0,-27v13h20v-13zm0,-13v13h20v-13zm0,-14v14h20v-14zm0,-13v13h20v-13zm0,-13v13h20v-13zm0,-14v14h20v-14zm0,-13v13h20v-13zm0,-13v13h20v-13zm0,-14v14h20v-14zm0,-13v13h20v-13zm0,-13v13h20v-13zm0,-14v14h20v-14zm0,-13v13h20v-13zm0,-13v13h20v-13zm0,-14v14h20v-14zm0,-13v13h20v-13zm0,-13v13h20v-13zm0,-14v14h20v-14zm0,-13v13h20v-13zm0,-13v13h20v-13zm0,-14v14h20v-14zM500,0v13h20v-13zm20,627v13h20v-13zm0,-14v14h20v-14zm0,-13v13h20v-13zm0,-13v13h20v-13zm0,-14v14h20v-14zm0,-13v13h20v-13zm0,-13v13h20v-13zm0,-14v14h20v-14zm0,-13v13h20v-13zm0,-13v13h20v-13zm0,-14v14h20v-14zm0,-13v13h20v-13zm0,-13v13h20v-13zm0,-14v14h20v-14zm0,-13v13h20v-13zm0,-13v13h20v-13zm0,-14v14h20v-14zm0,-13v13h20v-13zm0,-13v13h20v-13zm0,-14v14h20v-14zm0,-13v13h20v-13zm0,-13v13h20v-13zm0,-14v14h20v-14zm0,-13v13h20v-13zm0,-13v13h20v-13zm0,-14v14h20v-14zm0,-26v13h20v-13zm0,-14v14h20v-14zm0,-13v13h20v-13zm0,-13v13h20v-13zm0,-14v14h20v-14zm0,-13v13h20v-13zm0,-13v13h20v-13zm0,-14v14h20v-14zm0,-13v13h20v-13zm0,-13v13h20v-13zm0,-14v14h20v-14zm0,-13v13h20v-13zm0,-13v13h20v-13zm0,-14v14h20v-14zm0,-13v13h20v-13zm0,-13v13h20v-13zm0,-14v14h20v-14zm0,-13v13h20v-13zm0,-13v13h20v-13zm0,-14v14h20v-14zM520,0v13h20v-13zm20,600v13h20v-13zm0,-13v13h20v-13zm0,-40v13h20v-13zm0,-14v14h20v-14zm0,-13v13h20v-13zm0,-13v13h20v-13zm0,-14v14h20v-14zm0,-26v13h20v-13zm0,-14v14h20v-14zm0,-13v13h20v-13zm0,-13v13h20v-13zm0,-14v14h20v-14zm0,-13v13h20v-13zm0,-13v13h20v-13zm0,-14v14h20v-14zm0,-13v13h20v-13zm0,-13v13h20v-13zm0,-27v13h20v-13zm0,-13v13h20v-13zm0,-14v14h20v-14zm0,-13v13h20v-13zm0,-27v14h20v-14zm0,-13v13h20v-13zm0,-13v13h20v-13zm0,-14v14h20v-14zm0,-13v13h20v-13zm0,-13v13h20v-13zm0,-14v14h20v-14zm0,-13v13h20v-13zm0,-13v13h20v-13zm0,-14v14h20v-14zm0,-26v13h20v-13zm0,-14v14h20v-14zm0,-13v13h20v-13zm0,-13v13h20v-13zm0,-14v14h20v-14zm0,-13v13h20v-13zm0,-13v13h20v-13zm0,-14v14h20v-14zM540,0v13h20v-13zm20,627v13h20v-13zm0,-14v14h20v-14zm0,-13v13h20v-13zm0,-13v13h20v-13zm0,-14v14h20v-14zm0,-13v13h20v-13zm0,-13v13h20v-13zm0,-14v14h20v-14zm0,-13v13h20v-13zm0,-13v13h20v-13zm0,-14v14h20v-14zm0,-13v13h20v-13zm0,-13v13h20v-13zm0,-14v14h20v-14zm0,-13v13h20v-13zm0,-13v13h20v-13zm0,-14v14h20v-14zm0,-13v13h20v-13zm0,-13v13h20v-13zm0,-14v14h20v-14zm0,-13v13h20v-13zm0,-13v13h20v-13zm0,-14v14h20v-14zm0,-13v13h20v-13zm0,-13v13h20v-13zm0,-14v14h20v-14zm0,-13v13h20v-13zm0,-13v13h20v-13zm0,-27v13h20v-13zm0,-13v13h20v-13zm0,-14v14h20v-14zm0,-13v13h20v-13zm0,-13v13h20v-13zm0,-14v14h20v-14zm0,-13v13h20v-13zm0,-13v13h20v-13zm0,-14v14h20v-14zm0,-13v13h20v-13zm0,-13v13h20v-13zm0,-14v14h20v-14zm0,-13v13h20v-13zm0,-13v13h20v-13zm0,-14v14h20v-14zm0,-13v13h20v-13zm0,-13v13h20v-13zm0,-14v14h20v-14zM560,0v13h20v-13zm20,627v13h20v-13zm0,-14v14h20v-14zm0,-13v13h20v-13zm0,-13v13h20v-13zm0,-14v14h20v-14zm0,-13v13h20v-13zm0,-13v13h20v-13zm0,-14v14h20v-14zm0,-13v13h20v-13zm0,-13v13h20v-13zm0,-14v14h20v-14zm0,-13v13h20v-13zm0,-13v13h20v-13zm0,-14v14h20v-14zm0,-13v13h20v-13zm0,-13v13h20v-13zm0,-14v14h20v-14zm0,-13v13h20v-13zm0,-13v13h20v-13zm0,-14v14h20v-14zm0,-13v13h20v-13zm0,-13v13h20v-13zm0,-14v14h20v-14zm0,-13v13h20v-13zm0,-13v13h20v-13zm0,-14v14h20v-14zm0,-13v13h20v-13zm0,-13v13h20v-13zm0,-14v14h20v-14zm0,-26v13h20v-13zm0,-14v14h20v-14zm0,-13v13h20v-13zm0,-13v13h20v-13zm0,-14v14h20v-14zm0,-13v13h20v-13zm0,-13v13h20v-13zm0,-14v14h20v-14zm0,-13v13h20v-13zm0,-13v13h20v-13zm0,-14v14h20v-14zm0,-13v13h20v-13zm0,-13v13h20v-13zm0,-14v14h20v-14zm0,-13v13h20v-13zm0,-13v13h20v-13zm0,-14v14h20v-14zM580,0v13h20v-13zm20,520v13h20v-13zm0,-13v13h20v-13zm0,-14v14h20v-14zm0,-13v13h20v-13zm0,-13v13h20v-13zm0,-14v14h20v-14zm0,-26v13h20v-13zm0,-14v14h20v-14zm0,-13v13h20v-13zm0,-13v13h20v-13zm0,-27v13h20v-13zm0,-13v13h20v-13zm0,-14v14h20v-14zm0,-13v13h20v-13zm0,-13v13h20v-13zm0,-14v14h20v-14zm0,-13v13h20v-13zm0,-13v13h20v-13zm0,-14v14h20v-14zm0,-13v13h20v-13zm0,-27v14h20v-14zm0,-13v13h20v-13zm0,-13v13h20v-13zm0,-14v14h20v-14zm0,-26v13h20v-13zm0,-14v14h20v-14zm0,-13v13h20v-13zm0,-13v13h20v-13zm0,-14v14h20v-14zm0,-13v13h20v-13zm0,-13v13h20v-13zm0,-14v14h20v-14zm0,-13v13h20v-13zm0,-13v13h20v-13zm0,-14v14h20v-14zM600,0v13h20v-13zm20,627v13h20v-13zm0,-14v14h20v-14zm0,-13v13h20v-13zm0,-13v13h20v-13zm0,-14v14h20v-14zm0,-13v13h20v-13zm0,-13v13h20v-13zm0,-14v14h20v-14zm0,-13v13h20v-13zm0,-13v13h20v-13zm0,-14v14h20v-14zm0,-13v13h20v-13zm0,-13v13h20v-13zm0,-14v14h20v-14zm0,-13v13h20v-13zm0,-13v13h20v-13zm0,-14v14h20v-14zm0,-13v13h20v-13zm0,-13v13h20v-13zm0,-14v14h20v-14zm0,-13v13h20v-13zm0,-13v13h20v-13zm0,-14v14h20v-14zm0,-13v13h20v-13zm0,-13v13h20v-13zm0,-14v14h20v-14zm0,-13v13h20v-13zm0,-13v13h20v-13zm0,-14v14h20v-14zm0,-13v13h20v-13zm0,-13v13h20v-13zm0,-27v13h20v-13zm0,-13v13h20v-13zm0,-14v14h20v-14zm0,-13v13h20v-13zm0,-13v13h20v-13zm0,-14v14h20v-14zm0,-13v13h20v-13zm0,-13v13h20v-13zm0,-14v14h20v-14zm0,-13v13h20v-13zm0,-13v13h20v-13zm0,-14v14h20v-14zm0,-13v13h20v-13zm0,-13v13h20v-13zm0,-14v14h20v-14zM620,0v13h20v-13zm20,627v13h20v-13zm0,-14v14h20v-14zm0,-13v13h20v-13zm0,-13v13h20v-13zm0,-14v14h20v-14zm0,-13v13h20v-13zm0,-13v13h20v-13zm0,-14v14h20v-14zm0,-13v13h20v-13zm0,-13v13h20v-13zm0,-14v14h20v-14zm0,-13v13h20v-13zm0,-13v13h20v-13zm0,-14v14h20v-14zm0,-13v13h20v-13zm0,-13v13h20v-13zm0,-14v14h20v-14zm0,-13v13h20v-13zm0,-13v13h20v-13zm0,-14v14h20v-14zm0,-13v13h20v-13zm0,-13v13h20v-13zm0,-14v14h20v-14zm0,-13v13h20v-13zm0,-13v13h20v-13zm0,-14v14h20v-14zm0,-13v13h20v-13zm0,-13v13h20v-13zm0,-14v14h20v-14zm0,-13v13h20v-13zm0,-13v13h20v-13zm0,-14v14h20v-14zm0,-26v13h20v-13zm0,-14v14h20v-14zm0,-13v13h20v-13zm0,-13v13h20v-13zm0,-14v14h20v-14zm0,-13v13h20v-13zm0,-13v13h20v-13zm0,-14v14h20v-14zm0,-13v13h20v-13zm0,-13v13h20v-13zm0,-14v14h20v-14zm0,-13v13h20v-13zm0,-13v13h20v-13zm0,-14v14h20v-14zM640,0v13h20v-13zm20,627v13h20v-13zm0,-14v14h20v-14zm0,-13v13h20v-13zm0,-13v13h20v-13zm0,-14v14h20v-14zm0,-13v13h20v-13zm0,-13v13h20v-13zm0,-14v14h20v-14zm0,-13v13h20v-13zm0,-13v13h20v-13zm0,-14v14h20v-14zm0,-13v13h20v-13zm0,-13v13h20v-13zm0,-14v14h20v-14zm0,-13v13h20v-13zm0,-13v13h20v-13zm0,-14v14h20v-14zm0,-13v13h20v-13zm0,-13v13h20v-13zm0,-14v14h20v-14zm0,-13v13h20v-13zm0,-13v13h20v-13zm0,-14v14h20v-14zm0,-13v13h20v-13zm0,-13v13h20v-13zm0,-14v14h20v-14zm0,-13v13h20v-13zm0,-13v13h20v-13zm0,-14v14h20v-14zm0,-13v13h20v-13zm0,-13v13h20v-13zm0,-14v14h20v-14zm0,-13v13h20v-13zm0,-27v14h20v-14zm0,-13v13h20v-13zm0,-13v13h20v-13zm0,-14v14h20v-14zm0,-13v13h20v-13zm0,-13v13h20v-13zm0,-14v14h20v-14zm0,-13v13h20v-13zm0,-13v13h20v-13zm0,-14v14h20v-14zm0,-13v13h20v-13zm0,-13v13h20v-13zm0,-14v14h20v-14zM660,0v13h20v-13zm20,627v13h20v-13zm0,-14v14h20v-14zm0,-13v13h20v-13zm0,-13v13h20v-13zm0,-14v14h20v-14zm0,-13v13h20v-13zm0,-13v13h20v-13zm0,-14v14h20v-14zm0,-13v13h20v-13zm0,-13v13h20v-13zm0,-14v14h20v-14zm0,-13v13h20v-13zm0,-13v13h20v-13zm0,-14v14h20v-14zm0,-13v13h20v-13zm0,-13v13h20v-13zm0,-14v14h20v-14zm0,-13v13h20v-13zm0,-13v13h20v-13zm0,-14v14h20v-14zm0,-13v13h20v-13zm0,-13v13h20v-13zm0,-14v14h20v-14zm0,-13v13h20v-13zm0,-13v13h20v-13zm0,-14v14h20v-14zm0,-13v13h20v-13zm0,-13v13h20v-13zm0,-14v14h20v-14zm0,-13v13h20v-13zm0,-13v13h20v-13zm0,-14v14h20v-14zm0,-13v13h20v-13zm0,-13v13h20v-13zm0,-27v13h20v-13zm0,-13v13h20v-13zm0,-14v14h20v-14zm0,-13v13h20v-13zm0,-13v13h20v-13zm0,-14v14h20v-14zm0,-13v13h20v-13zm0,-13v13h20v-13zm0,-14v14h20v-14zm0,-13v13h20v-13zm0,-13v13h20v-13zm0,-14v14h20v-14zM680,0v13h20v-13zm20,520v13h20v-13zm0,-13v13h20v-13zm0,-14v14h20v-14zm0,-13v13h20v-13zm0,-13v13h20v-13zm0,-14v14h20v-14zm0,-26v13h20v-13zm0,-14v14h20v-14zm0,-13v13h20v-13zm0,-13v13h20v-13zm0,-27v13h20v-13zm0,-13v13h20v-13zm0,-14v14h20v-14zm0,-13v13h20v-13zm0,-13v13h20v-13zm0,-14v14h20v-14zm0,-13v13h20v-13zm0,-13v13h20v-13zm0,-14v14h20v-14zm0,-13v13h20v-13zm0,-27v14h20v-14zm0,-13v13h20v-13zm0,-13v13h20v-13zm0,-14v14h20v-14zm0,-26v13h20v-13zm0,-14v14h20v-14zm0,-13v13h20v-13zm0,-13v13h20v-13zm0,-14v14h20v-14zm0,-13v13h20v-13zm0,-13v13h20v-13zm0,-14v14h20v-14zm0,-13v13h20v-13zm0,-13v13h20v-13zm0,-14v14h20v-14zM700,0v13h20v-13zm20,627v13h20v-13zm0,-14v14h20v-14zm0,-13v13h20v-13zm0,-13v13h20v-13zm0,-14v14h20v-14zm0,-13v13h20v-13zm0,-13v13h20v-13zm0,-14v14h20v-14zm0,-13v13h20v-13zm0,-13v13h20v-13zm0,-14v14h20v-14zm0,-13v13h20v-13zm0,-13v13h20v-13zm0,-14v14h20v-14zm0,-13v13h20v-13zm0,-13v13h20v-13zm0,-14v14h20v-14zm0,-13v13h20v-13zm0,-13v13h20v-13zm0,-14v14h20v-14zm0,-13v13h20v-13zm0,-13v13h20v-13zm0,-14v14h20v-14zm0,-13v13h20v-13zm0,-13v13h20v-13zm0,-14v14h20v-14zm0,-13v13h20v-13zm0,-13v13h20v-13zm0,-14v14h20v-14zm0,-13v13h20v-13zm0,-13v13h20v-13zm0,-14v14h20v-14zm0,-13v13h20v-13zm0,-13v13h20v-13zm0,-14v14h20v-14zm0,-13v13h20v-13zm0,-27v14h20v-14zm0,-13v13h20v-13zm0,-13v13h20v-13zm0,-14v14h20v-14zm0,-13v13h20v-13zm0,-13v13h20v-13zm0,-14v14h20v-14zm0,-13v13h20v-13zm0,-13v13h20v-13zm0,-14v14h20v-14zM720,0v13h20v-13zm20,627v13h20v-13zm0,-14v14h20v-14zm0,-13v13h20v-13zm0,-13v13h20v-13zm0,-14v14h20v-14zm0,-13v13h20v-13zm0,-13v13h20v-13zm0,-14v14h20v-14zm0,-13v13h20v-13zm0,-13v13h20v-13zm0,-14v14h20v-14zm0,-13v13h20v-13zm0,-13v13h20v-13zm0,-14v14h20v-14zm0,-13v13h20v-13zm0,-13v13h20v-13zm0,-14v14h20v-14zm0,-13v13h20v-13zm0,-13v13h20v-13zm0,-14v14h20v-14zm0,-13v13h20v-13zm0,-13v13h20v-13zm0,-14v14h20v-14zm0,-13v13h20v-13zm0,-13v13h20v-13zm0,-14v14h20v-14zm0,-13v13h20v-13zm0,-13v13h20v-13zm0,-14v14h20v-14zm0,-13v13h20v-13zm0,-13v13h20v-13zm0,-14v14h20v-14zm0,-13v13h20v-13zm0,-13v13h20v-13zm0,-14v14h20v-14zm0,-13v13h20v-13zm0,-13v13h20v-13zm0,-27v13h20v-13zm0,-13v13h20v-13zm0,-14v14h20v-14zm0,-13v13h20v-13zm0,-13v13h20v-13zm0,-14v14h20v-14zm0,-13v13h20v-13zm0,-13v13h20v-13zm0,-14v14h20v-14zM740,0v13h20v-13zm20,600v13h20v-13zm0,-13v13h20v-13zm0,-40v13h20v-13zm0,-14v14h20v-14zm0,-13v13h20v-13zm0,-13v13h20v-13zm0,-14v14h20v-14zm0,-26v13h20v-13zm0,-14v14h20v-14zm0,-13v13h20v-13zm0,-13v13h20v-13zm0,-14v14h20v-14zm0,-13v13h20v-13zm0,-13v13h20v-13zm0,-14v14h20v-14zm0,-13v13h20v-13zm0,-13v13h20v-13zm0,-27v13h20v-13zm0,-13v13h20v-13zm0,-14v14h20v-14zm0,-13v13h20v-13zm0,-27v14h20v-14zm0,-13v13h20v-13zm0,-13v13h20v-13zm0,-14v14h20v-14zm0,-13v13h20v-13zm0,-13v13h20v-13zm0,-14v14h20v-14zm0,-13v13h20v-13zm0,-13v13h20v-13zm0,-14v14h20v-14zm0,-26v13h20v-13zm0,-14v14h20v-14zm0,-13v13h20v-13zm0,-13v13h20v-13zm0,-14v14h20v-14zm0,-13v13h20v-13zm0,-13v13h20v-13zm0,-14v14h20v-14zM760,0v13h20v-13zm20,627v13h20v-13zm0,-14v14h20v-14zm0,-13v13h20v-13zm0,-13v13h20v-13zm0,-14v14h20v-14zm0,-13v13h20v-13zm0,-13v13h20v-13zm0,-14v14h20v-14zm0,-13v13h20v-13zm0,-13v13h20v-13zm0,-14v14h20v-14zm0,-13v13h20v-13zm0,-13v13h20v-13zm0,-14v14h20v-14zm0,-13v13h20v-13zm0,-13v13h20v-13zm0,-14v14h20v-14zm0,-13v13h20v-13zm0,-13v13h20v-13zm0,-14v14h20v-14zm0,-13v13h20v-13zm0,-13v13h20v-13zm0,-14v14h20v-14zm0,-13v13h20v-13zm0,-13v13h20v-13zm0,-14v14h20v-14zm0,-13v13h20v-13zm0,-13v13h20v-13zm0,-14v14h20v-14zm0,-13v13h20v-13zm0,-13v13h20v-13zm0,-14v14h20v-14zm0,-13v13h20v-13zm0,-13v13h20v-13zm0,-14v14h20v-14zm0,-13v13h20v-13zm0,-13v13h20v-13zm0,-14v14h20v-14zm0,-13v13h20v-13zm0,-27v14h20v-14zm0,-13v13h20v-13zm0,-13v13h20v-13zm0,-14v14h20v-14zm0,-13v13h20v-13zm0,-13v13h20v-13zm0,-14v14h20v-14zM780,0v13h20v-13zm20,627v13h20v-13zm0,-14v14h20v-14zm0,-13v13h20v-13zm0,-13v13h20v-13zm0,-14v14h20v-14zm0,-13v13h20v-13zm0,-13v13h20v-13zm0,-14v14h20v-14zm0,-13v13h20v-13zm0,-13v13h20v-13zm0,-14v14h20v-14zm0,-13v13h20v-13zm0,-13v13h20v-13zm0,-14v14h20v-14zm0,-13v13h20v-13zm0,-13v13h20v-13zm0,-14v14h20v-14zm0,-13v13h20v-13zm0,-13v13h20v-13zm0,-14v14h20v-14zm0,-13v13h20v-13zm0,-13v13h20v-13zm0,-14v14h20v-14zm0,-13v13h20v-13zm0,-13v13h20v-13zm0,-14v14h20v-14zm0,-13v13h20v-13zm0,-13v13h20v-13zm0,-14v14h20v-14zm0,-13v13h20v-13zm0,-13v13h20v-13zm0,-14v14h20v-14zm0,-13v13h20v-13zm0,-13v13h20v-13zm0,-14v14h20v-14zm0,-13v13h20v-13zm0,-13v13h20v-13zm0,-14v14h20v-14zm0,-13v13h20v-13zm0,-13v13h20v-13zm0,-27v13h20v-13zm0,-13v13h20v-13zm0,-14v14h20v-14zm0,-13v13h20v-13zm0,-13v13h20v-13zm0,-14v14h20v-14zM800,0v13h20v-13zm20,627v13h20v-13zm0,-14v14h20v-14zm0,-13v13h20v-13zm0,-13v13h20v-13zm0,-14v14h20v-14zm0,-13v13h20v-13zm0,-13v13h20v-13zm0,-14v14h20v-14zm0,-13v13h20v-13zm0,-13v13h20v-13zm0,-14v14h20v-14zm0,-13v13h20v-13zm0,-13v13h20v-13zm0,-14v14h20v-14zm0,-13v13h20v-13zm0,-13v13h20v-13zm0,-14v14h20v-14zm0,-13v13h20v-13zm0,-13v13h20v-13zm0,-14v14h20v-14zm0,-13v13h20v-13zm0,-13v13h20v-13zm0,-14v14h20v-14zm0,-13v13h20v-13zm0,-13v13h20v-13zm0,-14v14h20v-14zm0,-13v13h20v-13zm0,-13v13h20v-13zm0,-14v14h20v-14zm0,-13v13h20v-13zm0,-13v13h20v-13zm0,-14v14h20v-14zm0,-13v13h20v-13zm0,-13v13h20v-13zm0,-14v14h20v-14zm0,-13v13h20v-13zm0,-13v13h20v-13zm0,-14v14h20v-14zm0,-13v13h20v-13zm0,-13v13h20v-13zm0,-14v14h20v-14zm0,-26v13h20v-13zm0,-14v14h20v-14zm0,-13v13h20v-13zm0,-13v13h20v-13zm0,-14v14h20v-14zM820,0v13h20v-13zm20,627v13h20v-13zm0,-14v14h20v-14zm0,-13v13h20v-13zm0,-13v13h20v-13zm0,-14v14h20v-14zm0,-13v13h20v-13zm0,-13v13h20v-13zm0,-14v14h20v-14zm0,-13v13h20v-13zm0,-13v13h20v-13zm0,-14v14h20v-14zm0,-13v13h20v-13zm0,-13v13h20v-13zm0,-14v14h20v-14zm0,-13v13h20v-13zm0,-13v13h20v-13zm0,-14v14h20v-14zm0,-13v13h20v-13zm0,-13v13h20v-13zm0,-14v14h20v-14zm0,-13v13h20v-13zm0,-13v13h20v-13zm0,-14v14h20v-14zm0,-13v13h20v-13zm0,-13v13h20v-13zm0,-14v14h20v-14zm0,-13v13h20v-13zm0,-13v13h20v-13zm0,-14v14h20v-14zm0,-13v13h20v-13zm0,-13v13h20v-13zm0,-14v14h20v-14zm0,-13v13h20v-13zm0,-13v13h20v-13zm0,-14v14h20v-14zm0,-13v13h20v-13zm0,-13v13h20v-13zm0,-14v14h20v-14zm0,-13v13h20v-13zm0,-13v13h20v-13zm0,-14v14h20v-14zm0,-13v13h20v-13zm0,-27v14h20v-14zm0,-13v13h20v-13zm0,-13v13h20v-13zm0,-14v14h20v-14zM840,0v13h20v-13zm20,520v13h20v-13zm0,-13v13h20v-13zm0,-14v14h20v-14zm0,-13v13h20v-13zm0,-13v13h20v-13zm0,-14v14h20v-14zm0,-13v13h20v-13zm0,-13v13h20v-13zm0,-14v14h20v-14zm0,-13v13h20v-13zm0,-13v13h20v-13zm0,-14v14h20v-14zm0,-13v13h20v-13zm0,-13v13h20v-13zm0,-14v14h20v-14zm0,-13v13h20v-13zm0,-13v13h20v-13zm0,-14v14h20v-14zm0,-13v13h20v-13zm0,-13v13h20v-13zm0,-14v14h20v-14zm0,-13v13h20v-13zm0,-13v13h20v-13zm0,-14v14h20v-14zm0,-13v13h20v-13zm0,-13v13h20v-13zm0,-14v14h20v-14zm0,-13v13h20v-13zm0,-13v13h20v-13zm0,-14v14h20v-14zm0,-13v13h20v-13zm0,-13v13h20v-13zm0,-14v14h20v-14zm0,-13v13h20v-13zm0,-13v13h20v-13zm0,-27v13h20v-13zm0,-13v13h20v-13zm0,-14v14h20v-14zM860,0v13h20v-13zm20,627v13h20v-13zm0,-14v14h20v-14zm0,-13v13h20v-13zm0,-13v13h20v-13zm0,-14v14h20v-14zm0,-13v13h20v-13zm0,-13v13h20v-13zm0,-14v14h20v-14zm0,-13v13h20v-13zm0,-13v13h20v-13zm0,-14v14h20v-14zm0,-13v13h20v-13zm0,-13v13h20v-13zm0,-14v14h20v-14zm0,-13v13h20v-13zm0,-13v13h20v-13zm0,-14v14h20v-14zm0,-13v13h20v-13zm0,-13v13h20v-13zm0,-14v14h20v-14zm0,-13v13h20v-13zm0,-13v13h20v-13zm0,-14v14h20v-14zm0,-13v13h20v-13zm0,-13v13h20v-13zm0,-14v14h20v-14zm0,-13v13h20v-13zm0,-13v13h20v-13zm0,-14v14h20v-14zm0,-13v13h20v-13zm0,-13v13h20v-13zm0,-14v14h20v-14zm0,-13v13h20v-13zm0,-13v13h20v-13zm0,-14v14h20v-14zm0,-13v13h20v-13zm0,-13v13h20v-13zm0,-14v14h20v-14zm0,-13v13h20v-13zm0,-13v13h20v-13zm0,-14v14h20v-14zm0,-13v13h20v-13zm0,-13v13h20v-13zm0,-14v14h20v-14zm0,-26v13h20v-13zm0,-14v14h20v-14zM880,0v13h20v-13zm20,627v13h20v-13zm0,-14v14h20v-14zm0,-13v13h20v-13zm0,-13v13h20v-13zm0,-14v14h20v-14zm0,-13v13h20v-13zm0,-13v13h20v-13zm0,-14v14h20v-14zm0,-13v13h20v-13zm0,-13v13h20v-13zm0,-14v14h20v-14zm0,-13v13h20v-13zm0,-13v13h20v-13zm0,-14v14h20v-14zm0,-13v13h20v-13zm0,-13v13h20v-13zm0,-14v14h20v-14zm0,-13v13h20v-13zm0,-13v13h20v-13zm0,-14v14h20v-14zm0,-13v13h20v-13zm0,-13v13h20v-13zm0,-14v14h20v-14zm0,-13v13h20v-13zm0,-13v13h20v-13zm0,-14v14h20v-14zm0,-13v13h20v-13zm0,-13v13h20v-13zm0,-14v14h20v-14zm0,-13v13h20v-13zm0,-13v13h20v-13zm0,-14v14h20v-14zm0,-13v13h20v-13zm0,-13v13h20v-13zm0,-14v14h20v-14zm0,-13v13h20v-13zm0,-13v13h20v-13zm0,-14v14h20v-14zm0,-13v13h20v-13zm0,-13v13h20v-13zm0,-14v14h20v-14zm0,-13v13h20v-13zm0,-13v13h20v-13zm0,-14v14h20v-14zm0,-13v13h20v-13zm0,-27v14h20v-14zM900,0v13h20v-13zm20,573v14h20v-14zm0,-13v13h20v-13zm0,-40v13h20v-13zm0,-13v13h20v-13zm0,-14v14h20v-14zm0,-13v13h20v-13zm0,-13v13h20v-13zm0,-14v14h20v-14zm0,-13v13h20v-13zm0,-13v13h20v-13zm0,-14v14h20v-14zm0,-13v13h20v-13zm0,-13v13h20v-13zm0,-14v14h20v-14zm0,-13v13h20v-13zm0,-13v13h20v-13zm0,-14v14h20v-14zm0,-13v13h20v-13zm0,-13v13h20v-13zm0,-14v14h20v-14zm0,-13v13h20v-13zm0,-13v13h20v-13zm0,-14v14h20v-14zm0,-13v13h20v-13zm0,-13v13h20v-13zm0,-14v14h20v-14zm0,-13v13h20v-13zm0,-13v13h20v-13zm0,-14v14h20v-14zm0,-13v13h20v-13zm0,-13v13h20v-13zm0,-14v14h20v-14zm0,-13v13h20v-13zm0,-13v13h20v-13zm0,-14v14h20v-14zm0,-13v13h20v-13zm0,-13v13h20v-13zm0,-14v14h20v-14zm0,-13v13h20v-13zm0,-13v13h20v-13zM920,0v13h20v-13zm20,627v13h20v-13zm0,-14v14h20v-14zm0,-13v13h20v-13zm0,-13v13h20v-13zm0,-14v14h20v-14zm0,-13v13h20v-13zm0,-13v13h20v-13zm0,-14v14h20v-14zm0,-13v13h20v-13zm0,-13v13h20v-13zm0,-14v14h20v-14zm0,-13v13h20v-13zm0,-13v13h20v-13zm0,-14v14h20v-14zm0,-13v13h20v-13zm0,-13v13h20v-13zm0,-14v14h20v-14zm0,-13v13h20v-13zm0,-13v13h20v-13zm0,-14v14h20v-14zm0,-13v13h20v-13zm0,-13v13h20v-13zm0,-14v14h20v-14zm0,-13v13h20v-13zm0,-13v13h20v-13zm0,-14v14h20v-14zm0,-13v13h20v-13zm0,-13v13h20v-13zm0,-14v14h20v-14zm0,-13v13h20v-13zm0,-13v13h20v-13zm0,-14v14h20v-14zm0,-13v13h20v-13zm0,-13v13h20v-13zm0,-14v14h20v-14zm0,-13v13h20v-13zm0,-13v13h20v-13zm0,-14v14h20v-14zm0,-13v13h20v-13zm0,-13v13h20v-13zm0,-14v14h20v-14zm0,-13v13h20v-13zm0,-13v13h20v-13zm0,-14v14h20v-14zm0,-13v13h20v-13zm0,-13v13h20v-13zm0,-14v14h20v-14z"></path><path palette-index="127" fill="rgb(46,183,164)" d="M0,333v14h20v-14zM0,267v13h20v-13zM0,120v13h20v-13zM20,333v14h20v-14zm0,-66v13h20v-13zM20,120v13h20v-13zM40,480v13h20v-13zm20,0v13h20v-13zM80,440v13h20v-13zm0,-67v14h20v-14zM80,227v13h20v-13zm0,-67v13h20v-13zM80,53v14h20v-14zm20,387v13h20v-13zm0,-67v14h20v-14zm0,-146v13h20v-13zm0,-67v13h20v-13zM100,53v14h20v-14zm20,387v13h20v-13zm0,-67v14h20v-14zm0,-146v13h20v-13zm0,-67v13h20v-13zM120,53v14h20v-14zm0,-40v14h20v-14zm20,427v13h20v-13zm0,-67v14h20v-14zm0,-146v13h20v-13zm0,-67v13h20v-13zM140,53v14h20v-14zm0,-40v14h20v-14zm80,587v13h20v-13zm0,-13v13h20v-13zm60,-14v14h20v-14zm0,-13v13h20v-13zm0,-13v13h20v-13zm0,-14v14h20v-14zm100,40v14h20v-14zm0,-13v13h20v-13zm0,-13v13h20v-13zm0,-14v14h20v-14zm60,94v13h20v-13zm0,-14v14h20v-14zm100,14v13h20v-13zm0,-14v14h20v-14zm60,-40v14h20v-14zm0,-13v13h20v-13zm0,-13v13h20v-13zm0,-14v14h20v-14zm100,40v14h20v-14zm0,-13v13h20v-13zm0,-13v13h20v-13zm0,-14v14h20v-14zm60,94v13h20v-13zm0,-14v14h20v-14zM860,573v14h20v-14zm0,-13v13h20v-13zm0,-13v13h20v-13zm0,-14v14h20v-14zm60,14v13h20v-13zm0,-14v14h20v-14z"></path><path palette-index="140" fill="rgb(82,186,146)" d="M80,480v13h20v-13zm20,0v13h20v-13zm120,93v14h20v-14zm0,-13v13h20v-13z"></path><path palette-index="152" fill="rgb(116,189,129)" d="M0,547v13h20v-13zM0,533v14h20v-14zM0,440v13h20v-13zM0,373v14h20v-14zM0,227v13h20v-13zM0,160v13h20v-13zM20,547v13h20v-13zm0,-14v14h20v-14zm0,-93v13h20v-13zm0,-67v14h20v-14zM20,227v13h20v-13zm0,-67v13h20v-13zM40,53v14h20v-14zM40,13v14h20v-14zM60,53v14h20v-14zM60,13v14h20v-14zM80,333v14h20v-14zm0,-66v13h20v-13zM80,120v13h20v-13zm20,213v14h20v-14zm0,-66v13h20v-13zm0,-147v13h20v-13zm20,507v13h20v-13zm0,-14v14h20v-14zm20,14v13h20v-13zm0,-14v14h20v-14zm140,14v13h20v-13zm0,-14v14h20v-14zm100,14v13h20v-13zm0,-14v14h20v-14zm60,-40v14h20v-14zm0,-13v13h20v-13zm100,13v14h20v-14zm0,-13v13h20v-13zm60,67v13h20v-13zm0,-14v14h20v-14zm100,14v13h20v-13zm0,-14v14h20v-14zm60,-40v14h20v-14zm0,-13v13h20v-13zm100,40v13h20v-13zm0,-13v13h20v-13zm60,13v13h20v-13zm0,-13v13h20v-13z"></path><path palette-index="254" fill="rgb(249,249,15)" d="M0,627v13h20v-13zM0,613v14h20v-14zm20,14v13h20v-13zm0,-14v14h20v-14zM40,600v13h20v-13zm0,-13v13h20v-13zm20,13v13h20v-13zm0,-13v13h20v-13zM80,573v14h20v-14zm0,-13v13h20v-13zm20,13v14h20v-14zm0,-13v13h20v-13zm20,-13v13h20v-13zm0,-14v14h20v-14zm20,14v13h20v-13zm0,-14v14h20v-14zm20,-13v13h20v-13zm20,-13v13h20v-13zm20,-14v14h20v-14zm20,-13v13h20v-13zm0,-147v14h20v-14zm0,-66v13h20v-13zm0,-147v13h20v-13zm20,347v13h20v-13zm20,-14v14h20v-14zm20,-13v13h20v-13zm0,-67v14h20v-14zm0,-146v13h20v-13zm0,-67v13h20v-13zm20,267v13h20v-13zm20,-14v14h20v-14zm20,-13v13h20v-13zm20,-13v13h20v-13zm20,53v13h20v-13zm0,-67v14h20v-14zm0,-146v13h20v-13zm0,-67v13h20v-13zm20,200v13h20v-13zm20,-13v13h20v-13zm20,133v13h20v-13zm0,-147v14h20v-14zm0,-66v13h20v-13zm0,-147v13h20v-13zm20,200v13h20v-13zm20,-13v13h20v-13zm20,-14v14h20v-14zm20,-13v13h20v-13zm20,200v13h20v-13zm0,-147v14h20v-14zm0,-66v13h20v-13zm0,-147v13h20v-13zm20,133v14h20v-14zm20,-13v13h20v-13zm20,200v13h20v-13zm0,-67v14h20v-14zm0,-146v13h20v-13zm0,-67v13h20v-13zm20,53v14h20v-14zm20,-13v13h20v-13zm20,-13v13h20v-13zm20,-14v14h20v-14zm20,267v13h20v-13zm0,-67v14h20v-14zm0,-146v13h20v-13zm0,-67v13h20v-13zm20,-13v13h20v-13zm20,-14v14h20v-14zm20,347v13h20v-13zm0,-147v14h20v-14zm0,-66v13h20v-13zm0,-147v13h20v-13zm20,-13v13h20v-13zM800,93v14h20v-14zM820,80v13h20v-13zM840,67v13h20v-13zM860,53v14h20v-14zM880,40v13h20v-13zM900,27v13h20v-13zM920,13v14h20v-14zM940,0v13h20v-13z"></path></g></svg><g><g transform="translate(0,640)"><path d="M0,-24v24m20,-24v24m20,-24v24m20,-24v24m20,-24v24m20,-24v24m20,-24v24m20,-24v24m20,-24v24m20,-24v24m20,-24v24m20,-24v24m20,-24v24m20,-24v24m20,-24v24m20,-24v24m20,-24v24m20,-24v24m20,-24v24m20,-24v24m20,-24v24m20,-24v24m20,-24v24m20,-24v24m20,-24v24m20,-24v24m20,-24v24m20,-24v24m20,-24v24m20,-24v24m20,-24v24m20,-24v24m20,-24v24m20,-24v24m20,-24v24m20,-24v24m20,-24v24m20,-24v24m20,-24v24m20,-24v24m20,-24v24m20,-24v24m20,-24v24m20,-24v24m20,-24v24m20,-24v24m20,-24v24m20,-24v24m20,-12v12" style="stroke: black; stroke-width: 1;"></path><g font-family="Arial" font-size="26" space="preserve"><text fill="black" x="10" y="9" dy=".7em" style="text-anchor: middle;">1</text><text fill="black" x="30" y="9" dy=".7em" style="text-anchor: middle;">2</text><text fill="black" x="50" y="9" dy=".7em" style="text-anchor: middle;">3</text><text fill="black" x="70" y="9" dy=".7em" style="text-anchor: middle;">4</text><text fill="black" x="90" y="9" dy=".7em" style="text-anchor: middle;">5</text><text fill="black" x="110" y="9" dy=".7em" style="text-anchor: middle;">6</text><text fill="black" x="130" y="9" dy=".7em" style="text-anchor: middle;">7</text><text fill="black" x="150" y="9" dy=".7em" style="text-anchor: middle;">8</text><text fill="black" x="170" y="9" dy=".7em" style="text-anchor: middle;">9</text><text fill="black" x="190" y="9" dy=".7em" style="text-anchor: middle;">10</text><text fill="black" x="210" y="9" dy=".7em" style="text-anchor: middle;">11</text><text fill="black" x="230" y="9" dy=".7em" style="text-anchor: middle;">12</text><text fill="black" x="250" y="9" dy=".7em" style="text-anchor: middle;">13</text><text fill="black" x="270" y="9" dy=".7em" style="text-anchor: middle;">14</text><text fill="black" x="290" y="9" dy=".7em" style="text-anchor: middle;">15</text><text fill="black" x="310" y="9" dy=".7em" style="text-anchor: middle;">16</text><text fill="black" x="330" y="9" dy=".7em" style="text-anchor: middle;">17</text><text fill="black" x="350" y="9" dy=".7em" style="text-anchor: middle;">18</text><text fill="black" x="370" y="9" dy=".7em" style="text-anchor: middle;">19</text><text fill="black" x="390" y="9" dy=".7em" style="text-anchor: middle;">20</text><text fill="black" x="410" y="9" dy=".7em" style="text-anchor: middle;">21</text><text fill="black" x="430" y="9" dy=".7em" style="text-anchor: middle;">22</text><text fill="black" x="450" y="9" dy=".7em" style="text-anchor: middle;">23</text><text fill="black" x="470" y="9" dy=".7em" style="text-anchor: middle;">24</text><text fill="black" x="490" y="9" dy=".7em" style="text-anchor: middle;">25</text><text fill="black" x="510" y="9" dy=".7em" style="text-anchor: middle;">26</text><text fill="black" x="530" y="9" dy=".7em" style="text-anchor: middle;">27</text><text fill="black" x="550" y="9" dy=".7em" style="text-anchor: middle;">28</text><text fill="black" x="570" y="9" dy=".7em" style="text-anchor: middle;">29</text><text fill="black" x="590" y="9" dy=".7em" style="text-anchor: middle;">30</text><text fill="black" x="610" y="9" dy=".7em" style="text-anchor: middle;">31</text><text fill="black" x="630" y="9" dy=".7em" style="text-anchor: middle;">32</text><text fill="black" x="650" y="9" dy=".7em" style="text-anchor: middle;">33</text><text fill="black" x="670" y="9" dy=".7em" style="text-anchor: middle;">34</text><text fill="black" x="690" y="9" dy=".7em" style="text-anchor: middle;">35</text><text fill="black" x="710" y="9" dy=".7em" style="text-anchor: middle;">36</text><text fill="black" x="730" y="9" dy=".7em" style="text-anchor: middle;">37</text><text fill="black" x="750" y="9" dy=".7em" style="text-anchor: middle;">38</text><text fill="black" x="770" y="9" dy=".7em" style="text-anchor: middle;">39</text><text fill="black" x="790" y="9" dy=".7em" style="text-anchor: middle;">40</text><text fill="black" x="810" y="9" dy=".7em" style="text-anchor: middle;">41</text><text fill="black" x="830" y="9" dy=".7em" style="text-anchor: middle;">42</text><text fill="black" x="850" y="9" dy=".7em" style="text-anchor: middle;">43</text><text fill="black" x="870" y="9" dy=".7em" style="text-anchor: middle;">44</text><text fill="black" x="890" y="9" dy=".7em" style="text-anchor: middle;">45</text><text fill="black" x="910" y="9" dy=".7em" style="text-anchor: middle;">46</text><text fill="black" x="930" y="9" dy=".7em" style="text-anchor: middle;">47</text><text fill="black" x="950" y="9" dy=".7em" style="text-anchor: middle;">48</text></g><g font-family="Arial" font-size="28" space="preserve" transform="translate(960,45)"><text text-anchor="end" x="0" y="0" fill="black" transform="translate(0,0)" dominant-baseline="middle">PMT</text></g></g><g><path d="M36,640h-36m36,-13h-36m36,-14h-36m36,-13h-36m36,-13h-36m36,-14h-36m36,-13h-36m36,-13h-36m36,-14h-36m36,-13h-36m36,-13h-36m36,-14h-36m36,-13h-36m36,-13h-36m36,-14h-36m36,-13h-36m36,-13h-36m36,-14h-36m36,-13h-36m36,-13h-36m36,-14h-36m36,-13h-36m36,-13h-36m36,-14h-36m36,-13h-36m36,-13h-36m36,-14h-36m36,-13h-36m36,-13h-36m36,-14h-36m36,-13h-36m36,-13h-36m36,-14h-36m36,-13h-36m36,-13h-36m36,-14h-36m36,-13h-36m36,-13h-36m36,-14h-36m36,-13h-36m36,-13h-36m36,-14h-36m36,-13h-36m36,-13h-36m36,-14h-36m36,-13h-36m36,-13h-36m36,-14h-36m18,-13h-18" style="stroke: black; stroke-width: 1;"></path><g font-family="Arial" font-size="11" space="preserve"><text fill="black" x="-9" y="634" style="text-anchor: end; dominant-baseline: middle;">1</text><text fill="black" x="-9" y="620" style="text-anchor: end; dominant-baseline: middle;">2</text><text fill="black" x="-9" y="607" style="text-anchor: end; dominant-baseline: middle;">3</text><text fill="black" x="-9" y="594" style="text-anchor: end; dominant-baseline: middle;">4</text><text fill="black" x="-9" y="580" style="text-anchor: end; dominant-baseline: middle;">5</text><text fill="black" x="-9" y="567" style="text-anchor: end; dominant-baseline: middle;">6</text><text fill="black" x="-9" y="554" style="text-anchor: end; dominant-baseline: middle;">7</text><text fill="black" x="-9" y="540" style="text-anchor: end; dominant-baseline: middle;">8</text><text fill="black" x="-9" y="527" style="text-anchor: end; dominant-baseline: middle;">9</text><text fill="black" x="-9" y="514" style="text-anchor: end; dominant-baseline: middle;">10</text><text fill="black" x="-9" y="500" style="text-anchor: end; dominant-baseline: middle;">11</text><text fill="black" x="-9" y="487" style="text-anchor: end; dominant-baseline: middle;">12</text><text fill="black" x="-9" y="474" style="text-anchor: end; dominant-baseline: middle;">13</text><text fill="black" x="-9" y="460" style="text-anchor: end; dominant-baseline: middle;">14</text><text fill="black" x="-9" y="447" style="text-anchor: end; dominant-baseline: middle;">15</text><text fill="black" x="-9" y="434" style="text-anchor: end; dominant-baseline: middle;">16</text><text fill="black" x="-9" y="420" style="text-anchor: end; dominant-baseline: middle;">17</text><text fill="black" x="-9" y="407" style="text-anchor: end; dominant-baseline: middle;">18</text><text fill="black" x="-9" y="394" style="text-anchor: end; dominant-baseline: middle;">19</text><text fill="black" x="-9" y="380" style="text-anchor: end; dominant-baseline: middle;">20</text><text fill="black" x="-9" y="367" style="text-anchor: end; dominant-baseline: middle;">21</text><text fill="black" x="-9" y="354" style="text-anchor: end; dominant-baseline: middle;">22</text><text fill="black" x="-9" y="340" style="text-anchor: end; dominant-baseline: middle;">23</text><text fill="black" x="-9" y="327" style="text-anchor: end; dominant-baseline: middle;">24</text><text fill="black" x="-9" y="314" style="text-anchor: end; dominant-baseline: middle;">25</text><text fill="black" x="-9" y="300" style="text-anchor: end; dominant-baseline: middle;">26</text><text fill="black" x="-9" y="287" style="text-anchor: end; dominant-baseline: middle;">27</text><text fill="black" x="-9" y="274" style="text-anchor: end; dominant-baseline: middle;">28</text><text fill="black" x="-9" y="260" style="text-anchor: end; dominant-baseline: middle;">29</text><text fill="black" x="-9" y="247" style="text-anchor: end; dominant-baseline: middle;">30</text><text fill="black" x="-9" y="234" style="text-anchor: end; dominant-baseline: middle;">31</text><text fill="black" x="-9" y="220" style="text-anchor: end; dominant-baseline: middle;">32</text><text fill="black" x="-9" y="207" style="text-anchor: end; dominant-baseline: middle;">33</text><text fill="black" x="-9" y="194" style="text-anchor: end; dominant-baseline: middle;">34</text><text fill="black" x="-9" y="180" style="text-anchor: end; dominant-baseline: middle;">35</text><text fill="black" x="-9" y="167" style="text-anchor: end; dominant-baseline: middle;">36</text><text fill="black" x="-9" y="154" style="text-anchor: end; dominant-baseline: middle;">37</text><text fill="black" x="-9" y="140" style="text-anchor: end; dominant-baseline: middle;">38</text><text fill="black" x="-9" y="127" style="text-anchor: end; dominant-baseline: middle;">39</text><text fill="black" x="-9" y="114" style="text-anchor: end; dominant-baseline: middle;">40</text><text fill="black" x="-9" y="100" style="text-anchor: end; dominant-baseline: middle;">41</text><text fill="black" x="-9" y="87" style="text-anchor: end; dominant-baseline: middle;">42</text><text fill="black" x="-9" y="74" style="text-anchor: end; dominant-baseline: middle;">43</text><text fill="black" x="-9" y="60" style="text-anchor: end; dominant-baseline: middle;">44</text><text fill="black" x="-9" y="47" style="text-anchor: end; dominant-baseline: middle;">45</text><text fill="black" x="-9" y="34" style="text-anchor: end; dominant-baseline: middle;">46</text><text fill="black" x="-9" y="20" style="text-anchor: end; dominant-baseline: middle;">47</text><text fill="black" x="-9" y="7" style="text-anchor: end; dominant-baseline: middle;">48</text></g><g font-family="Arial" font-size="28" space="preserve" transform="translate(-67,0)"><text text-anchor="end" x="0" y="0" fill="black" transform="translate(0,0) rotate(270,0,0)" dominant-baseline="middle">PMT</text></g></g></g></g><g objname="title" objtype="TPaveText" transform="translate(336,8)" font-family="Arial" font-size="33" space="preserve"><path d="M0,0h528v40h-528z" style="fill: none;"></path><text text-anchor="middle" x="0" y="0" fill="black" transform="translate(264,21)" dominant-baseline="middle" opacity="1">LEDShapeHeightCorr Gain0</text></g><g objname="stats" objtype="TPaveStats" transform="translate(936,52)" font-family="Arial" font-size="23" space="preserve"><path d="M0,0h240v212h-240z" style="fill: white; stroke: black; stroke-width: 1;"></path><text text-anchor="middle" x="0" y="0" fill="black" transform="translate(120,19)" dominant-baseline="middle" opacity="1">LEDShapeHeightCorr_...</text><text text-anchor="start" x="0" y="0" fill="black" transform="translate(12,54)" dominant-baseline="middle" opacity="1">Entries </text><text text-anchor="end" x="0" y="0" fill="black" transform="translate(228,54)" dominant-baseline="middle" opacity="1"> 2304</text><text text-anchor="start" x="0" y="0" fill="black" transform="translate(12,89)" dominant-baseline="middle" opacity="1">Mean x </text><text text-anchor="end" x="0" y="0" fill="black" transform="translate(228,89)" dominant-baseline="middle" opacity="1"> 22.73</text><text text-anchor="start" x="0" y="0" fill="black" transform="translate(12,125)" dominant-baseline="middle" opacity="1">Mean y </text><text text-anchor="end" x="0" y="0" fill="black" transform="translate(228,125)" dominant-baseline="middle" opacity="1"> 22.73</text><text text-anchor="start" x="0" y="0" fill="black" transform="translate(12,160)" dominant-baseline="middle" opacity="1">Std Dev x </text><text text-anchor="end" x="0" y="0" fill="black" transform="translate(228,160)" dominant-baseline="middle" opacity="1"> 12.60</text><text text-anchor="start" x="0" y="0" fill="black" transform="translate(12,195)" dominant-baseline="middle" opacity="1">Std Dev y </text><text text-anchor="end" x="0" y="0" fill="black" transform="translate(228,195)" dominant-baseline="middle" opacity="1"> 12.60</text><path d="M0,35h240" style="stroke: black; stroke-width: 1;"></path></g></g></svg>