<svg xmlns="http://www.w3.org/2000/svg" width="598" height="374" viewBox="0 0 598 374" preserveAspectRatio="none">
 <path d="M0,0H598V374H0Z" style="fill: white;"></path>
 <g>
  <g transform="translate(60,37)">
   <path d="M0,0H478V299H0Z" style="fill: white; stroke: black; stroke-width: 1;"></path>
   <svg x="0" y="0" overflow="hidden" width="478" height="299" viewBox="0 0 478 299">
    <g>
     <path d="M241,143v5h8v-5zM241,136v5h8v-5zM242,129v4h7v-4zM239,120v7h12v-7zM243,114v3h5v-3zM242,106v4h7v-4zM241,98v5h8v-5zM242,91v4h7v-4zM242,76v4h7v-4zM243,62v3h5v-3zM242,54v4h7v-4zM243,32v3h5v-3zM252,143v6h10v-6zM253,136v5h8v-5zM253,129v4h7v-4zM252,120v6h10v-6zM251,112v7h11v-7zM254,107v3h5v-3zM253,98v5h8v-5zM253,91v4h7v-4zM254,84v3h5v-3zM254,77v3h5v-3zM253,68v5h8v-5zM254,40v3h5v-3zM263,142v7h11v-7zM265,136v4h7v-4zM263,127v7h12v-7zM265,121v5h8v-5zM264,113v6h10v-6zM265,98v5h8v-5zM263,90v7h11v-7zM266,84v3h5v-3zM265,76v5h8v-5zM266,69v3h5v-3zM266,62v3h5v-3zM266,55v3h5v-3zM277,144v4h7v-4zM276,135v6h10v-6zM276,128v6h10v-6zM277,114v4h7v-4zM277,106v5h8v-5zM275,97v7h12v-7zM277,91v4h7v-4zM277,83v5h8v-5zM278,77v3h5v-3zM278,55v3h5v-3zM289,143v5h8v-5zM287,135v7h11v-7zM289,128v5h8v-5zM290,122v3h5v-3zM289,114v4h7v-4zM289,106v5h8v-5zM289,99v4h7v-4zM289,91v4h7v-4zM289,84v4h7v-4zM290,69v3h5v-3zM289,53v5h8v-5zM290,47v3h5v-3zM302,144v3h5v-3zM301,136v5h8v-5zM299,127v7h11v-7zM301,121v4h7v-4zM301,113v5h8v-5zM300,98v6h10v-6zM302,84v3h5v-3zM302,69v3h5v-3zM302,62v3h5v-3zM311,142v7h11v-7zM313,136v4h7v-4zM312,128v6h10v-6zM313,121v4h7v-4zM314,114v3h5v-3zM312,98v5h8v-5zM313,91v4h7v-4zM314,77v3h5v-3zM314,47v3h5v-3zM325,129v4h7v-4zM326,122v3h5v-3zM325,114v4h7v-4zM326,107v3h5v-3zM326,99v3h5v-3zM326,92v3h5v-3zM326,84v3h5v-3zM325,69v4h7v-4zM326,62v3h5v-3zM337,144v4h7v-4zM336,135v6h10v-6zM338,129v3h5v-3zM338,122v3h5v-3zM336,113v6h10v-6zM338,99v3h5v-3zM338,77v3h5v-3zM338,62v3h5v-3zM350,137v3h5v-3zM349,129v4h7v-4zM348,113v5h8v-5zM350,107v3h5v-3zM349,99v4h7v-4zM349,91v4h7v-4zM350,62v3h5v-3zM350,40v3h5v-3zM361,144v4h7v-4zM362,137v3h5v-3zM362,129v3h5v-3zM362,114v3h5v-3zM362,84v3h5v-3zM360,68v5h8v-5zM373,129v4h7v-4zM374,114v3h5v-3zM374,84v3h5v-3zM386,137v3h5v-3zM386,122v3h5v-3zM386,84v3h5v-3zM398,144v3h5v-3zM398,107v3h5v-3zM398,77v3h5v-3zM410,137v3h5v-3zM410,25v3h5v-3zM422,122v3h5v-3zM422,114v3h5v-3zM434,92v3h5v-3zM434,84v3h5v-3zM434,77v3h5v-3zM446,114v3h5v-3zM446,40v3h5v-3z" style="fill: black;"></path>
    </g>
    <g>
     <path d="M16,197v3h4v-3zM16,182v3h4v-3zM28,227v3h4v-3zM39,211v4h6v-4zM40,204v3h4v-3zM39,181v4h6v-4zM52,204v3h4v-3zM52,189v3h4v-3zM52,159v3h4v-3zM64,227v3h4v-3zM64,167v3h4v-3zM76,219v3h4v-3zM76,189v3h4v-3zM76,167v3h4v-3zM87,219v4h6v-4zM88,212v3h4v-3zM88,189v3h4v-3zM88,182v3h4v-3zM88,159v3h4v-3zM99,212v3h4v-3zM99,204v3h4v-3zM99,189v3h4v-3zM99,167v3h4v-3zM99,159v3h4v-3zM99,151v4h6v-4zM111,234v3h4v-3zM111,219v3h4v-3zM111,212v3h4v-3zM111,204v3h4v-3zM111,182v3h4v-3zM111,174v4h6v-4zM111,167v3h4v-3zM111,159v3h4v-3zM111,152v3h4v-3zM123,264v3h4v-3zM123,234v3h4v-3zM122,189v4h6v-4zM122,166v4h6v-4zM123,159v3h4v-3zM135,249v3h4v-3zM135,219v3h4v-3zM135,212v3h4v-3zM134,203v5h7v-5zM134,181v4h6v-4zM134,174v4h6v-4zM135,167v3h4v-3zM135,159v3h4v-3zM147,204v3h4v-3zM146,196v4h6v-4zM146,189v4h6v-4zM146,181v4h6v-4zM146,173v5h7v-5zM147,167v3h4v-3zM144,157v6h10v-6zM145,151v5h8v-5zM159,257v3h4v-3zM159,242v3h4v-3zM158,233v5h7v-5zM159,219v3h4v-3zM159,212v3h4v-3zM158,204v4h6v-4zM158,196v5h7v-5zM158,189v4h6v-4zM158,173v5h7v-5zM158,166v4h6v-4zM158,159v4h6v-4zM157,151v5h8v-5zM171,249v3h4v-3zM171,227v3h4v-3zM171,219v3h4v-3zM169,203v5h8v-5zM170,196v4h6v-4zM169,188v5h8v-5zM171,182v3h4v-3zM171,174v3h4v-3zM168,165v7h11v-7zM171,159v3h4v-3zM171,152v3h4v-3zM183,212v3h4v-3zM183,197v3h4v-3zM183,189v3h4v-3zM183,182v3h4v-3zM182,174v4h6v-4zM181,165v6h9v-6zM181,158v6h9v-6zM182,151v5h7v-5zM195,249v3h4v-3zM194,218v5h7v-5zM193,203v5h8v-5zM194,196v4h6v-4zM194,189v4h6v-4zM192,180v6h9v-6zM194,174v4h6v-4zM194,166v4h6v-4zM194,159v4h6v-4zM194,151v5h7v-5zM207,272v3h4v-3zM207,234v3h4v-3zM207,227v3h4v-3zM206,219v4h6v-4zM207,212v3h4v-3zM205,203v5h7v-5zM205,196v5h7v-5zM206,189v4h6v-4zM204,180v6h9v-6zM207,174v3h4v-3zM204,165v6h10v-6zM204,158v6h9v-6zM204,150v6h10v-6zM219,249v3h4v-3zM219,234v3h4v-3zM218,211v4h6v-4zM217,203v5h7v-5zM219,197v3h4v-3zM218,189v4h6v-4zM219,182v3h4v-3zM218,174v4h6v-4zM219,167v3h4v-3zM217,158v5h8v-5zM215,150v7h11v-7zM231,249v3h4v-3zM230,241v4h6v-4zM230,226v4h6v-4zM231,219v3h4v-3zM231,212v3h4v-3zM231,204v3h4v-3zM230,196v4h6v-4zM228,188v6h9v-6zM227,179v7h12v-7zM230,174v4h6v-4zM229,166v5h8v-5zM229,158v5h7v-5zM229,151v5h7v-5z" style="fill: red;"></path>
    </g>
    <g>
     <path d="M243,279v2h3v-2zM243,256v3h5v-3zM243,242v2h3v-2zM243,226v3h5v-3zM243,219v3h5v-3zM243,212v2h3v-2zM243,204v2h3v-2zM242,196v4h6v-4zM242,189v4h6v-4zM243,182v2h3v-2zM242,174v4h6v-4zM243,167v3h5v-3zM241,158v5h8v-5zM240,150v6h10v-6zM255,249v2h3v-2zM255,242v2h3v-2zM254,234v3h5v-3zM255,219v2h3v-2zM254,204v3h5v-3zM254,196v4h6v-4zM253,188v5h8v-5zM253,181v4h7v-4zM253,173v5h8v-5zM253,166v4h7v-4zM255,160v2h3v-2zM252,150v6h9v-6zM266,241v3h5v-3zM267,234v2h3v-2zM266,226v3h5v-3zM267,219v2h3v-2zM267,212v2h3v-2zM266,204v3h5v-3zM266,189v3h5v-3zM267,175v2h3v-2zM265,166v5h8v-5zM267,160v2h3v-2zM266,151v4h6v-4zM278,241v4h6v-4zM279,234v2h3v-2zM279,212v2h3v-2zM277,203v5h8v-5zM278,197v3h5v-3zM278,189v3h5v-3zM278,181v4h6v-4zM278,174v4h6v-4zM279,167v2h3v-2zM279,160v2h3v-2zM278,151v4h6v-4zM291,249v2h3v-2zM290,241v4h6v-4zM290,234v3h5v-3zM291,227v2h3v-2zM290,219v3h5v-3zM289,196v4h7v-4zM291,190v2h3v-2zM290,181v4h6v-4zM289,174v4h7v-4zM290,166v4h6v-4zM290,159v3h5v-3zM291,152v2h3v-2zM303,257v2h3v-2zM303,249v2h3v-2zM303,234v2h3v-2zM303,227v2h3v-2zM302,219v4h6v-4zM303,204v2h3v-2zM302,197v3h5v-3zM302,189v4h6v-4zM303,182v2h3v-2zM303,175v2h3v-2zM303,167v2h3v-2zM303,160v2h3v-2zM302,152v3h5v-3zM314,249v3h5v-3zM315,242v2h3v-2zM314,219v4h6v-4zM315,212v2h3v-2zM315,204v2h3v-2zM315,197v2h3v-2zM315,190v2h3v-2zM315,182v2h3v-2zM314,174v3h5v-3zM313,151v5h8v-5zM327,294v2h3v-2zM327,227v2h3v-2zM326,219v3h5v-3zM326,211v4h6v-4zM327,197v2h3v-2zM327,167v2h3v-2zM327,160v2h3v-2zM325,151v4h7v-4zM339,272v2h3v-2zM338,256v3h5v-3zM339,234v2h3v-2zM338,204v3h5v-3zM338,197v3h5v-3zM339,190v2h3v-2zM339,182v2h3v-2zM339,167v2h3v-2zM339,160v2h3v-2zM338,151v4h6v-4zM351,257v2h3v-2zM351,227v2h3v-2zM351,197v2h3v-2zM351,190v2h3v-2zM351,182v2h3v-2zM351,152v2h3v-2zM363,204v2h3v-2zM363,197v2h3v-2zM363,190v2h3v-2zM363,182v2h3v-2zM363,175v2h3v-2zM361,159v4h6v-4zM375,272v2h3v-2zM375,249v2h3v-2zM375,212v2h3v-2zM374,182v3h5v-3zM375,167v2h3v-2zM375,152v2h3v-2zM387,204v2h3v-2zM387,190v2h3v-2zM387,175v2h3v-2zM387,160v2h3v-2zM399,167v2h3v-2zM399,160v2h3v-2zM399,152v2h3v-2zM411,242v2h3v-2zM411,167v2h3v-2zM422,212v3h5v-3zM423,175v2h3v-2zM423,167v2h3v-2zM434,197v2h3v-2zM434,152v2h3v-2zM446,234v2h3v-2zM446,190v2h3v-2zM446,175v2h3v-2z" style="fill: green;"></path>
    </g>
    <g>
     <path d="M5,123v2h2v-2zM17,138v2h2v-2zM29,63v2h2v-2zM41,130v2h2v-2zM40,77v2h3v-2zM53,93v2h2v-2zM65,130v2h2v-2zM65,100v2h2v-2zM65,93v2h2v-2zM76,115v2h2v-2zM88,130v2h3v-2zM88,123v2h2v-2zM88,85v2h2v-2zM88,78v2h2v-2zM100,138v2h2v-2zM100,130v2h2v-2zM100,85v2h3v-2zM112,138v2h2v-2zM112,122v2h3v-2zM112,93v2h2v-2zM112,33v2h2v-2zM112,10v2h2v-2zM124,145v2h2v-2zM124,138v2h2v-2zM124,130v2h2v-2zM124,123v2h2v-2zM124,78v2h2v-2zM124,55v2h2v-2zM135,144v3h4v-3zM136,138v2h2v-2zM135,129v3h4v-3zM136,123v2h2v-2zM136,115v2h3v-2zM136,78v2h2v-2zM148,145v2h2v-2zM148,137v2h3v-2zM148,130v2h3v-2zM148,122v2h3v-2zM148,115v2h2v-2zM148,100v2h2v-2zM148,92v2h3v-2zM148,48v2h2v-2zM148,25v2h2v-2zM159,144v3h4v-3zM160,138v2h2v-2zM160,130v2h2v-2zM160,122v2h3v-2zM160,115v2h2v-2zM160,100v2h2v-2zM160,92v2h3v-2zM160,85v2h3v-2zM160,48v2h2v-2zM172,145v2h3v-2zM172,138v2h2v-2zM172,122v2h3v-2zM172,115v2h3v-2zM171,107v3h5v-3zM172,100v2h2v-2zM172,92v2h3v-2zM172,78v2h2v-2zM172,48v2h2v-2zM182,144v3h5v-3zM184,137v2h3v-2zM183,129v3h5v-3zM183,122v3h4v-3zM183,115v3h4v-3zM184,107v2h3v-2zM184,100v2h3v-2zM184,85v2h2v-2zM184,78v2h2v-2zM183,62v3h4v-3zM183,55v3h4v-3zM184,33v2h2v-2zM194,144v4h6v-4zM195,137v2h3v-2zM196,130v2h2v-2zM195,122v3h5v-3zM196,115v2h2v-2zM196,108v2h2v-2zM195,100v2h3v-2zM196,93v2h2v-2zM195,77v2h3v-2zM195,70v2h3v-2zM208,145v2h2v-2zM207,137v3h5v-3zM207,129v3h4v-3zM208,115v2h2v-2zM208,100v2h2v-2zM207,92v2h3v-2zM208,85v2h2v-2zM208,78v2h2v-2zM208,48v2h2v-2zM219,144v3h5v-3zM219,137v3h5v-3zM219,129v3h5v-3zM220,123v2h2v-2zM219,115v2h3v-2zM219,107v3h4v-3zM218,99v3h5v-3zM219,92v3h5v-3zM220,85v2h2v-2zM219,77v2h3v-2zM220,63v2h2v-2zM220,55v2h2v-2zM220,48v2h2v-2zM220,40v2h2v-2zM232,145v2h2v-2zM230,137v3h5v-3zM231,130v2h3v-2zM232,123v2h2v-2zM230,114v3h5v-3zM231,100v3h4v-3zM230,84v3h5v-3zM231,77v2h3v-2zM231,70v2h3v-2zM232,63v2h2v-2zM231,55v3h4v-3zM231,48v2h3v-2z" style="fill: blue;"></path>
    </g>
   </svg>
   <g>
    <g transform="translate(0,299)">
     <path d="M0,0h478M0,-9V0M16,-5V0M32,-5V0M48,-5V0M64,-5V0M80,-9V0M96,-5V0M112,-5V0M127,-5V0M143,-5V0M159,-9V0M175,-5V0M191,-5V0M207,-5V0M223,-5V0M239,-9V0M255,-5V0M271,-5V0M287,-5V0M303,-5V0M319,-9V0M335,-5V0M351,-5V0M366,-5V0M382,-5V0M398,-9V0M414,-5V0M430,-5V0M446,-5V0M462,-5V0M478,-9V0" style="stroke: black; stroke-width: 1;"></path>
     <g font-family="Arial" font-size="13" xml:space="preserve" fill="black" text-anchor="middle"><text dy=".8em" transform="translate(0,3)">-3</text><text dy=".8em" transform="translate(80,3)">-2</text><text dy=".8em" transform="translate(159,3)">-1</text><text dy=".8em" transform="translate(239,3)">0</text><text dy=".8em" transform="translate(319,3)">1</text><text dy=".8em" transform="translate(398,3)">2</text><text dy=".8em" transform="translate(478,3)">3</text></g>
    </g>
    <g>
     <path d="M0,0v299M14,299H0M7,289H0M7,279H0M7,269H0M7,259H0M14,249H0M7,239H0M7,229H0M7,219H0M7,209H0M14,199H0M7,189H0M7,179H0M7,169H0M7,159H0M14,150H0M7,140H0M7,130H0M7,120H0M7,110H0M14,100H0M7,90H0M7,80H0M7,70H0M7,60H0M14,50H0M7,40H0M7,30H0M7,20H0M7,10H0M14,0H0" style="stroke: black; stroke-width: 1;"></path>
     <g font-family="Arial" font-size="13" xml:space="preserve" fill="black" text-anchor="end"><text dominant-baseline="middle" transform="translate(-3,299)">-3</text><text dominant-baseline="middle" transform="translate(-3,249)">-2</text><text dominant-baseline="middle" transform="translate(-3,199)">-1</text><text dominant-baseline="middle" transform="translate(-3,150)">0</text><text dominant-baseline="middle" transform="translate(-3,100)">1</text><text dominant-baseline="middle" transform="translate(-3,50)">2</text><text dominant-baseline="middle" transform="translate(-3)">3</text></g>
    </g>
   </g>
  </g>
  <g transform="translate(466,24)" font-family="Arial" font-size="13" xml:space="preserve" fill="black"><path d="M0,0H120V90H0Z" style="fill: white; stroke: black; stroke-width: 1;"></path><text text-anchor="middle" dominant-baseline="middle" transform="translate(60,8)">hb1</text><text text-anchor="start" dominant-baseline="middle" transform="translate(6,23)">Entries</text><text text-anchor="end" dominant-baseline="middle" transform="translate(114,23)">260</text><text text-anchor="start" dominant-baseline="middle" transform="translate(6,38)">Mean x</text><text text-anchor="end" dominant-baseline="middle" transform="translate(114,38)">0.7668</text><text text-anchor="start" dominant-baseline="middle" transform="translate(6,53)">Mean y</text><text text-anchor="end" dominant-baseline="middle" transform="translate(114,53)">0.7743</text><text text-anchor="start" dominant-baseline="middle" transform="translate(6,68)">Std Dev x</text><text text-anchor="end" dominant-baseline="middle" transform="translate(114,68)">0.5726</text><text text-anchor="start" dominant-baseline="middle" transform="translate(6,83)">Std Dev y</text><text text-anchor="end" dominant-baseline="middle" transform="translate(114,83)">0.5440</text><path d="M0,15h120" style="stroke: black; stroke-width: 1;"></path></g>
  <g transform="translate(106,2)" font-family="Arial" font-size="18" xml:space="preserve"><text fill="black" text-anchor="middle" dominant-baseline="middle" transform="translate(193,12)">Example of BOX plots with option SAME </text></g>
 </g>
</svg>