<svg xmlns="http://www.w3.org/2000/svg" viewBox="0 0 598 374" preserveAspectRatio="none" width="598" height="374">
 <path d="M0,0H598V374H0Z" style="fill: white;"></path>
 <g>
  <g transform="translate(60,37)">
   <path d="M0,0H478V299H0Z" style="fill: white; stroke: black; stroke-width: 1;"></path>
   <svg x="0" y="0" overflow="hidden" width="478" height="299" viewBox="0 0 478 299">
    <g>
     <path fill="#1272d9" d="M239,30h12v7h-12zm0,30h12v7h-12zm0,52h12v8h-12zM251,37h12v8h-12zm0,38h12v15h-12zm0,30h12v7h-12zM263,52h12v23h-12zm0,30h12v8h-12zM275,52h12v8h-12zm0,23h12v7h-12zM287,45h12v7h-12zm0,22h12v8h-12zm0,53h12v7h-12zM299,60h12v15h-12zm0,22h12v8h-12zm0,60h12v8h-12zM311,45h12v7h-12zm0,30h12v7h-12zm0,37h12v8h-12zM323,60h12v7h-12zm0,22h12v30h-12zm0,38h12v7h-12zM335,60h12v7h-12zm0,15h12v7h-12zm0,22h12v8h-12zm0,23h12v15h-12zM347,37h12v8h-12zm0,23h12v7h-12zm0,45h12v7h-12zm0,30h12v7h-12zM359,82h11v8h-11zm0,30h11v8h-11zm0,15h11v15h-11zM370,82h12v8h-12zm0,30h12v8h-12zM382,82h12v8h-12zm0,38h12v7h-12zm0,15h12v7h-12zM394,75h12v7h-12zm0,30h12v7h-12zm0,37h12v8h-12zM406,22h12v8h-12zm0,113h12v7h-12zm12,-23h12v15h-12zM430,75h12v22h-12zM442,37h12v8h-12zm0,75h12v8h-12z"></path>
     <path fill="#099dcc" d="M239,52h12v8h-12zm0,23h12v7h-12zm0,15h12v7h-12zm0,15h12v7h-12zm0,22h12v8h-12zM251,90h12v7h-12zm0,37h12v8h-12zm12,8h12v7h-12zM275,90h12v7h-12zm0,22h12v8h-12zm0,30h12v8h-12zM287,82h12v23h-12zm0,30h12v8h-12zm12,8h12v7h-12zM311,90h12v7h-12zm0,30h12v7h-12zm0,15h12v7h-12zM323,67h12v8h-12zm0,45h12v8h-12zm0,15h12v8h-12zm12,15h12v8h-12zM347,90h12v15h-12zm0,37h12v8h-12zm12,15h11v8h-11zm11,-15h12v8h-12z"></path>
     <path fill="#52ba92" d="M239,97h12v8h-12zm0,38h12v15h-12zM251,67h12v8h-12zm0,30h12v8h-12zm0,38h12v7h-12zM263,75h12v7h-12zm0,22h12v8h-12zm0,23h12v7h-12zM275,82h12v8h-12zm0,23h12v7h-12zM287,52h12v8h-12zm0,53h12v7h-12zm0,22h12v8h-12zm0,15h12v8h-12zm12,-30h12v8h-12zm0,23h12v7h-12zM311,97h12v8h-12zm36,15h12v8h-12zM359,67h11v8h-11z"></path>
     <path fill="#b3bd65" d="M251,120h12v7h-12zm0,22h12v8h-12zm12,-30h12v8h-12zm12,15h12v15h-12zM299,97h12v8h-12zm12,30h12v8h-12zm24,-15h12v8h-12zm0,23h12v7h-12z"></path>
     <path fill="#f4c63b" d="M251,112h12v8h-12zM263,90h12v7h-12zm0,52h12v8h-12zm24,-7h12v7h-12zm12,-8h12v8h-12zm12,15h12v8h-12z"></path>
     <path fill="#f9f90f" d="M239,120h12v7h-12zm24,7h12v8h-12zM275,97h12v8h-12z"></path>
    </g>
    <g>
     <path fill="#1064dc" d="M12,179h12v8h-12zm0,15h12v8h-12zm12,30h12v8h-12zM36,202h12v7h-12zM48,157h12v7h-12zm0,30h12v7h-12zm0,15h12v7h-12zM60,164h12v8h-12zm0,60h12v8h-12zM72,164h12v8h-12zm0,23h12v7h-12zm0,30h12v7h-12zM84,157h12v7h-12zm0,22h12v15h-12zm0,30h12v8h-12zM96,157h12v15h-12zm0,30h12v7h-12zm0,15h12v15h-12zm12,-52h12v22h-12zm0,29h12v8h-12zm0,23h12v22h-12zm0,30h12v7h-12zm12,-75h11v7h-11zm0,75h11v7h-11zm0,30h11v7h-11zM131,157h12v15h-12zm0,52h12v15h-12zm0,38h12v7h-12zm12,-83h12v8h-12zm0,38h12v7h-12zm12,7h12v15h-12zm0,30h12v8h-12zm0,15h12v8h-12zM167,150h12v14h-12zm0,22h12v15h-12zm0,45h12v15h-12zm0,30h12v7h-12zm12,-68h12v23h-12zm0,30h12v8h-12zm12,38h12v7h-12zm12,-75h12v7h-12zm0,37h12v8h-12zm0,15h12v15h-12zm0,45h12v8h-12zM215,164h12v8h-12zm0,15h12v8h-12zm0,15h12v8h-12zm0,38h12v7h-12zm0,15h12v7h-12zm12,-45h12v22h-12zm0,45h12v7h-12z"></path>
     <path fill="#0e8fd1" d="M36,179h12v8h-12zm0,30h12v8h-12zm48,8h12v7h-12zM96,150h12v7h-12zm12,22h12v7h-12zm12,-8h11v8h-11zm0,23h11v7h-11zm11,-15h12v15h-12zm12,7h12v23h-12zm12,-22h12v15h-12zm0,30h12v7h-12zm0,15h12v7h-12zm12,-8h12v8h-12zm12,-22h12v7h-12zm12,-15h12v22h-12zm0,30h12v15h-12zm12,0h12v7h-12zm0,30h12v7h-12zm12,-45h12v7h-12zm0,15h12v7h-12zm0,22h12v8h-12zm12,-37h12v7h-12zm0,22h12v8h-12zm0,30h12v8h-12zm0,15h12v8h-12z"></path>
     <path fill="#0da7c3" d="M131,202h12v7h-12zm12,-30h12v7h-12zm12,0h12v7h-12zm0,22h12v8h-12zm0,38h12v7h-12zm24,-82h12v7h-12zm12,0h12v7h-12zm0,67h12v7h-12zm12,-23h12v15h-12zm12,8h12v7h-12zm12,-52h12v14h-12z"></path>
     <path fill="#52ba92" d="M143,150h12v7h-12zm12,0h12v7h-12zm12,37h12v7h-12zm0,15h12v7h-12zm24,0h12v7h-12zm24,-45h12v7h-12zm12,7h12v8h-12z"></path>
     <path fill="#95be71" d="M179,157h12v15h-12zm12,22h12v8h-12zm12,-22h12v7h-12zm0,22h12v8h-12zm24,8h12v7h-12z"></path>
     <path fill="#e2c04b" d="M143,157h12v7h-12zm60,-7h12v7h-12zm0,14h12v8h-12z"></path>
     <path fill="#fdd22b" d="M167,164h12v8h-12zm48,-14h12v7h-12z"></path>
     <path fill="#f9f90f" d="M227,179h12v8h-12z"></path>
    </g>
    <g>
     <path fill="#1652cd" d="M239,179h12v8h-12zm0,23h12v15h-12zm0,37h12v8h-12zm0,38h12v7h-12zM251,157h12v7h-12zm0,60h12v7h-12zm0,22h12v15h-12zm12,-82h12v7h-12zm0,15h12v7h-12zm0,37h12v15h-12zm0,23h12v7h-12zm12,-75h12v15h-12zm0,52h12v8h-12zm0,23h12v7h-12zm12,-82h12v7h-12zm0,37h12v7h-12zm0,37h12v8h-12zm0,23h12v7h-12zm12,-90h12v30h-12zm0,45h12v7h-12zm0,22h12v15h-12zm0,23h12v15h-12zm12,-68h12v38h-12zm0,60h12v8h-12zm12,-82h12v15h-12zm0,37h12v8h-12zm0,30h12v8h-12zm0,68h12v7h-12zM335,157h12v15h-12zm0,22h12v15h-12zm0,53h12v7h-12zm0,37h12v8h-12zM347,150h12v7h-12zm0,29h12v23h-12zm0,45h12v8h-12zm0,30h12v8h-12zm12,-82h11v37h-11zm11,-22h12v7h-12zm0,14h12v8h-12zm0,45h12v8h-12zm0,38h12v7h-12zm0,22h12v8h-12zM382,157h12v7h-12zm0,15h12v7h-12zm0,15h12v7h-12zm0,15h12v7h-12zm12,-52h12v22h-12zm12,14h12v8h-12zm0,75h12v8h-12zm12,-75h12v15h-12zm12,-14h12v7h-12zm0,44h12v8h-12zm12,-22h12v7h-12zm0,15h12v7h-12zm0,45h12v7h-12z"></path>
     <path fill="#1272d9" d="M239,164h12v8h-12zm0,53h12v15h-12zm0,37h12v8h-12zm12,-52h12v7h-12zm0,30h12v7h-12zm12,-45h12v7h-12zm0,15h12v7h-12zm0,22h12v8h-12zm0,15h12v8h-12zm12,-52h12v15h-12zm12,-30h12v7h-12zm0,60h12v7h-12zm0,15h12v7h-12zm12,-82h12v7h-12zm0,44h12v8h-12zm12,-22h12v7h-12zm0,75h12v7h-12zm12,-30h12v7h-12zm12,-23h12v15h-12zm0,60h12v8h-12zm35,-75h12v8h-12zm48,30h12v8h-12z"></path>
     <path fill="#0e8fd1" d="M239,172h12v7h-12zm0,15h12v15h-12zm12,7h12v8h-12zm12,-44h12v7h-12zm12,0h12v7h-12zm0,22h12v15h-12zm0,67h12v8h-12zm12,-75h12v8h-12zm0,15h12v8h-12zm0,60h12v8h-12zm12,-52h12v7h-12zm0,30h12v7h-12zm12,0h12v7h-12zm12,-8h12v8h-12zm12,-59h12v7h-12zm24,7h11v7h-11z"></path>
     <path fill="#099dcc" d="M251,164h12v8h-12zm0,15h12v8h-12zm36,-7h12v7h-12zm0,22h12v8h-12zm36,-44h12v7h-12z"></path>
     <path fill="#1eafb3" d="M251,172h12v7h-12zm0,15h12v7h-12zm12,-23h12v8h-12zm12,38h12v7h-12zm36,-52h12v7h-12z"></path>
     <path fill="#52ba92" d="M239,157h12v7h-12z"></path>
     <path fill="#74bd81" d="M251,150h12v7h-12z"></path>
     <path fill="#b3bd65" d="M239,150h12v7h-12z"></path>
    </g>
    <g>
     <path fill="#263ea8" d="M0,120h12v7h-12zm12,15h12v7h-12zM24,60h12v7h-12zm12,67h12v8h-12zM48,90h12v7h-12zm12,0h12v15h-12zm0,37h12v8h-12zM72,112h12v8h-12zM84,75h12v15h-12zm0,45h12v7h-12zm12,7h12v15h-12zM108,7h12v8h-12zm0,23h12v7h-12zm0,60h12v7h-12zm0,45h12v7h-12zM120,52h11v8h-11zm0,23h11v7h-11zm0,45h11v30h-11zM131,75h12v7h-12zm0,45h12v7h-12zm0,15h12v7h-12zM143,22h12v8h-12zm0,23h12v7h-12zm0,52h12v8h-12zm0,15h12v8h-12zm0,30h12v8h-12zM155,45h12v7h-12zm0,52h12v8h-12zm0,15h12v8h-12zm0,15h12v15h-12zM167,45h12v7h-12zm0,30h12v7h-12zm0,22h12v8h-12zm0,38h12v7h-12zM179,30h12v7h-12zm0,45h12v15h-12zm12,15h12v7h-12zm0,15h12v15h-12zm0,22h12v8h-12zM203,45h12v7h-12zm0,30h12v15h-12zm0,22h12v8h-12zm0,15h12v8h-12zm0,30h12v8h-12zM215,37h12v30h-12zm0,45h12v8h-12zm0,38h12v7h-12zM227,60h12v7h-12zm0,60h12v7h-12zm0,22h12v8h-12z"></path>
     <path fill="#1652cd" d="M36,75h12v7h-12zm48,52h12v8h-12zM96,82h12v8h-12zm12,38h12v7h-12zm23,-8h12v8h-12zM143,90h12v7h-12zm0,30h12v22h-12zM155,82h12v15h-12zm0,38h12v7h-12zM167,90h12v7h-12zm0,22h12v15h-12zm0,30h12v8h-12zM179,97h12v15h-12zm0,38h12v7h-12zM191,67h12v15h-12zm0,30h12v8h-12zm0,38h12v7h-12zM203,90h12v7h-12zM215,75h12v7h-12zm0,37h12v8h-12zM227,45h12v7h-12zm0,22h12v15h-12zm0,60h12v8h-12z"></path>
     <path fill="#1064dc" d="M131,127h12v8h-12zm0,15h12v8h-12zm24,0h12v8h-12zM179,52h12v15h-12zm0,60h12v15h-12zm24,15h12v8h-12zm12,-22h12v7h-12zM227,52h12v8h-12zm0,45h12v8h-12z"></path>
     <path fill="#1272d9" d="M167,105h12v7h-12zm12,22h12v8h-12zm12,-7h12v7h-12zm12,15h12v7h-12zM215,90h12v7h-12zm0,37h12v23h-12z"></path>
     <path fill="#1481d6" d="M179,142h12v8h-12zM215,97h12v8h-12zM227,82h12v8h-12zm0,30h12v8h-12zm0,23h12v7h-12z"></path>
     <path fill="#0e8fd1" d="M191,142h12v8h-12z"></path>
    </g>
   </svg>
   <g>
    <g transform="translate(0,299)">
     <path d="M0,0h478M0,-11V0M16,-6V0M32,-6V0M48,-6V0M64,-6V0M80,-11V0M96,-6V0M112,-6V0M127,-6V0M143,-6V0M159,-11V0M175,-6V0M191,-6V0M207,-6V0M223,-6V0M239,-11V0M255,-6V0M271,-6V0M287,-6V0M303,-6V0M319,-11V0M335,-6V0M351,-6V0M366,-6V0M382,-6V0M398,-11V0M414,-6V0M430,-6V0M446,-6V0M462,-6V0M478,-11V0" style="stroke: black; stroke-width: 1;"></path>
     <g font-family="Arial" font-size="13" space="preserve" fill="black" text-anchor="middle">
      <text dy=".8em" transform="translate(0,4)">
       -3
      </text>
      <text dy=".8em" transform="translate(80,4)">
       -2
      </text>
      <text dy=".8em" transform="translate(159,4)">
       -1
      </text>
      <text dy=".8em" transform="translate(239,4)">
       0
      </text>
      <text dy=".8em" transform="translate(319,4)">
       1
      </text>
      <text dy=".8em" transform="translate(398,4)">
       2
      </text>
      <text dy=".8em" transform="translate(478,4)">
       3
      </text>
     </g>
    </g>
    <g>
     <path d="M0,0v299M18,299H0M9,289H0M9,279H0M9,269H0M9,259H0M18,249H0M9,239H0M9,229H0M9,219H0M9,209H0M18,199H0M9,189H0M9,179H0M9,169H0M9,159H0M18,150H0M9,140H0M9,130H0M9,120H0M9,110H0M18,100H0M9,90H0M9,80H0M9,70H0M9,60H0M18,50H0M9,40H0M9,30H0M9,20H0M9,10H0M18,0H0" style="stroke: black; stroke-width: 1;"></path>
     <g font-family="Arial" font-size="13" space="preserve" fill="black" text-anchor="end">
      <text dy=".4em" transform="translate(-2,299)">
       -3
      </text>
      <text dy=".4em" transform="translate(-2,249)">
       -2
      </text>
      <text dy=".4em" transform="translate(-2,199)">
       -1
      </text>
      <text dy=".4em" transform="translate(-2,150)">
       0
      </text>
      <text dy=".4em" transform="translate(-2,100)">
       1
      </text>
      <text dy=".4em" transform="translate(-2,50)">
       2
      </text>
      <text dy=".4em" transform="translate(-2)">
       3
      </text>
     </g>
    </g>
   </g>
  </g>
  <g transform="translate(541,37)">
   <path d="M0,0H27V299H0Z" style="fill: #f9f90f; stroke: black; stroke-width: 1;"></path>
   <path d="M0,284H27V299H0Z" style="fill: #1652cd;"></path>
   <path d="M0,269H27V285H0Z" style="fill: #1652cd;"></path>
   <path d="M0,254H27V270H0Z" style="fill: #1064dc;"></path>
   <path d="M0,239H27V255H0Z" style="fill: #1272d9;"></path>
   <path d="M0,224H27V240H0Z" style="fill: #1481d6;"></path>
   <path d="M0,209H27V225H0Z" style="fill: #0e8fd1;"></path>
   <path d="M0,194H27V210H0Z" style="fill: #099dcc;"></path>
   <path d="M0,179H27V195H0Z" style="fill: #0da7c3;"></path>
   <path d="M0,164H27V180H0Z" style="fill: #1eafb3;"></path>
   <path d="M0,150H27V165H0Z" style="fill: #2eb7a4;"></path>
   <path d="M0,135H27V151H0Z" style="fill: #52ba92;"></path>
   <path d="M0,120H27V136H0Z" style="fill: #74bd81;"></path>
   <path d="M0,105H27V121H0Z" style="fill: #95be71;"></path>
   <path d="M0,90H27V106H0Z" style="fill: #b3bd65;"></path>
   <path d="M0,75H27V91H0Z" style="fill: #d1bb59;"></path>
   <path d="M0,60H27V76H0Z" style="fill: #e2c04b;"></path>
   <path d="M0,45H27V61H0Z" style="fill: #f4c63b;"></path>
   <path d="M0,30H27V46H0Z" style="fill: #fdd22b;"></path>
   <path d="M0,15H27V31H0Z" style="fill: #fbe61d;"></path>
   <path d="M0,0H27V16H0Z" style="fill: #f9f90f;"></path>
   <g transform="translate(27)">
    <path d="M0,0v299M0,299H-15M0,274H-15M0,249H-15M0,224H-15M0,199H-15M0,174H-15M0,150H-15M0,125H-15M0,100H-15M0,75H-15M0,50H-15M0,25H-15M0,0H-15" style="stroke: black; stroke-width: 1;"></path>
    <g font-family="Arial" font-size="13" space="preserve" fill="black" text-anchor="start">
     <text dy=".4em" transform="translate(2,299)">
      0
     </text>
     <text dy=".4em" transform="translate(2,274)">
      2
     </text>
     <text dy=".4em" transform="translate(2,249)">
      4
     </text>
     <text dy=".4em" transform="translate(2,224)">
      6
     </text>
     <text dy=".4em" transform="translate(2,199)">
      8
     </text>
     <text dy=".4em" transform="translate(2,174)">
      10
     </text>
     <text dy=".4em" transform="translate(2,150)">
      12
     </text>
     <text dy=".4em" transform="translate(2,125)">
      14
     </text>
     <text dy=".4em" transform="translate(2,100)">
      16
     </text>
     <text dy=".4em" transform="translate(2,75)">
      18
     </text>
     <text dy=".4em" transform="translate(2,50)">
      20
     </text>
     <text dy=".4em" transform="translate(2,25)">
      22
     </text>
     <text dy=".4em" transform="translate(2)">
      24
     </text>
    </g>
   </g>
  </g>
  <g transform="translate(466,24)" font-family="Arial" font-size="10" space="preserve" fill="black">
   <path d="M0,0H120V90H0Z" style="fill: white; stroke: black; stroke-width: 1;"></path>
   <text text-anchor="middle" dy=".4em" transform="translate(60,8)">
    hb1
   </text>
   <text text-anchor="start" dy=".4em" transform="translate(6,23)">
    Entries
   </text>
   <text text-anchor="end" dy=".4em" transform="translate(114,23)">
    260
   </text>
   <text text-anchor="start" dy=".4em" transform="translate(6,38)">
    Mean x
   </text>
   <text text-anchor="end" dy=".4em" transform="translate(114,38)">
    0.7668
   </text>
   <text text-anchor="start" dy=".4em" transform="translate(6,53)">
    Mean y
   </text>
   <text text-anchor="end" dy=".4em" transform="translate(114,53)">
    0.7743
   </text>
   <text text-anchor="start" dy=".4em" transform="translate(6,68)">
    Std Dev x
   </text>
   <text text-anchor="end" dy=".4em" transform="translate(114,68)">
    0.5726
   </text>
   <text text-anchor="start" dy=".4em" transform="translate(6,83)">
    Std Dev y
   </text>
   <text text-anchor="end" dy=".4em" transform="translate(114,83)">
    0.5440
   </text>
   <path d="M0,15h120" style="stroke: black; stroke-width: 1;"></path>
  </g>
  <g transform="translate(107,2)" font-family="Arial" font-size="16" space="preserve">
   <text fill="black" text-anchor="middle" dy=".4em" transform="translate(193,12)">
    Example of COL plots with option SAME
   </text>
  </g>
 </g>
</svg>