<svg xmlns="http://www.w3.org/2000/svg" viewBox="0 0 1200 800" preserveAspectRatio="none" width="1200" height="800">
 <title>
  ROOT canvas
 </title>
 <path d="M0,0H1200V800H0Z" style="fill: none;"></path>
 <g>
  <g transform="translate(120,80)">
   <title></title>
   <path d="M0,0H960V640H0Z" style="fill: white; stroke: black; stroke-width: 1;"></path>
   <g clip-path="path('M0,0H960V640H0Z')">
    <g>
     <path fill="rgb(38,62,168)" d="M0,368h24v-16h-24zM24,288h24v-16h-24zM48,400h24v-16h-24zM48,288h24v-16h-24zM72,480h24v-16h-24zm0,-64h24v-16h-24zm0,-32h24v-48h-24zm0,-80h24v-16h-24zM96,448h24v-16h-24zm0,-32h24v-160h-24zM96,208h24v-32h-24zm24,256h24v-80h-24zm0,-96h24v-144h-24zm0,-176h24v-16h-24zm24,336h24v-32h-24zm0,-64h24v-64h-24zm0,-80h24v-160h-24zm0,-176h24v-16h-24zm0,-64h24v-16h-24zm0,-32h24v-16h-24zm24,464h24v-16h-24zm0,-32h24v-32h-24zm0,-64h24v-96h-24zm0,-112h24v-64h-24zm0,-80h24v-112h-24zm0,-128h24v-48h-24zm24,400h24v-32h-24zm0,-64h24v-112h-24zm0,-128h24v-16h-24zm0,-64h24v-16h-24zm0,-48h24v-32h-24zm0,-48h24v-32h-24zm0,-64h24v-16h-24zm0,-32h24v-16h-24zm0,-80h24v-16h-24zm24,480h24v-80h-24zm0,-272h24v-32h-24zm0,-48h24v-64h-24zm0,-96h24v-16h-24zm24,464h24v-16h-24zm0,-32h24v-16h-24zm0,-32h24v-48h-24zm0,-288h24v-96h-24zm24,384h24v-16h-24zm0,-48h24v-16h-24zm0,-32h24v-64h-24zm0,-304h24v-80h-24zM264,96h24v-16h-24zm0,-80h24v-16h-24zm24,576h24v-16h-24zm0,-32h24v-96h-24zm0,-400h24v-96h-24zm24,416h24v-32h-24zm0,-48h24v-48h-24zm0,-368h24v-80h-24zm24,464h24v-16h-24zm0,-32h24v-112h-24zm0,-432h24v-48h-24zm0,-64h24v-32h-24zm0,-48h24v-16h-24zm24,544h24v-96h-24zm0,-464h24v-48h-24zm0,-64h24v-16h-24zm24,528h24v-96h-24zm0,-480h24v-16h-24zm0,-32h24v-16h-24zm24,496h24v-64h-24zm0,-448h24v-48h-24zm0,-64h24v-32h-24zm24,560h24v-16h-24zm0,-64h24v-48h-24zm0,-416h24v-64h-24zm0,-80h24v-16h-24zm24,512h24v-64h-24zm0,-448h24v-32h-24zm0,-48h24v-16h-24zm24,528h24v-96h-24zm0,-480h24v-80h-24zm24,432h24v-48h-24zm0,-432h24v-16h-24zm0,-32h24v-32h-24zm0,-48h24v-16h-24zm24,528h24v-16h-24zm0,-32h24v-32h-24zm0,-416h24v-96h-24zm24,464h24v-16h-24zm0,-32h24v-16h-24zm0,-32h24v-16h-24zm0,-400h24v-48h-24zm24,448h24v-96h-24zm0,-448h24v-32h-24zm24,480h24v-16h-24zm0,-32h24v-96h-24zm0,-432h24v-64h-24zm24,448h24v-16h-24zm0,-32h24v-80h-24zm0,-416h24v-64h-24zm24,448h24v-16h-24zm0,-48h24v-48h-24zm0,-64h24v-16h-24zm0,-304h24v-96h-24zM648,64h24v-16h-24zm24,528h24v-16h-24zm0,-48h24v-64h-24zm0,-80h24v-16h-24zm0,-272h24v-80h-24zm0,-96h24v-32h-24zm24,448h24v-112h-24zm0,-352h24v-64h-24zm24,336h24v-16h-24zm0,-48h24v-32h-24zm0,-48h24v-16h-24zm0,-176h24v-16h-24zm0,-32h24v-16h-24zm0,-32h24v-96h-24zm24,400h24v-16h-24zm0,-80h24v-16h-24zm0,-32h24v-80h-24zm0,-208h24v-112h-24zm0,-128h24v-32h-24zm24,336h24v-112h-24zm0,-192h24v-96h-24zm0,-128h24v-48h-24zm24,336h24v-64h-24zm0,-80h24v-224h-24zm0,-240h24v-64h-24zM792,64h24v-16h-24zm24,416h24v-48h-24zm0,-64h24v-192h-24zm0,-240h24v-16h-24zm24,304h24v-32h-24zm0,-48h24v-16h-24zm0,-32h24v-80h-24zm0,-128h24v-16h-24zm0,-32h24v-32h-24zm0,-128h24v-16h-24zm24,432h24v-16h-24zm0,-96h24v-16h-24zm0,-48h24v-64h-24zm0,-96h24v-16h-24zm0,-32h24v-32h-24zm24,80h24v-16h-24zm0,-80h24v-16h-24zm48,96h24v-16h-24z"></path>
     <path fill="rgb(22,82,205)" d="M168,384h24v-16h-24zm0,-80h24v-16h-24zm24,80h24v-16h-24zm0,-32h24v-48h-24zm0,-64h24v-32h-24zm0,-64h24v-16h-24zm24,208h24v-64h-24zm0,-80h24v-32h-24zm0,-80h24v-32h-24zm0,-64h24v-16h-24zm24,240h24v-48h-24zm0,-80h24v-16h-24zm0,-32h24v-16h-24zm0,-80h24v-48h-24zm24,192h24v-32h-24zm24,16h24v-48h-24zm0,-272h24v-32h-24zm24,288h24v-16h-24zm0,-288h24v-32h-24zm24,288h24v-32h-24zm24,16h24v-32h-24zm0,-336h24v-32h-24zm24,336h24v-16h-24zm0,-336h24v-48h-24zm24,352h24v-32h-24zm0,-352h24v-32h-24zm24,352h24v-48h-24zm0,-352h24v-16h-24zm24,352h24v-16h-24zm24,0h24v-32h-24zm0,-352h24v-32h-24zm24,352h24v-32h-24zm0,-368h24v-16h-24zm24,368h24v-32h-24zm0,-352h24v-32h-24zm24,352h24v-32h-24zm0,-352h24v-32h-24zm24,0h24v-32h-24zm24,320h24v-32h-24zm0,-320h24v-16h-24zm24,320h24v-16h-24zm0,-32h24v-16h-24zm0,-256h24v-48h-24zm24,304h24v-16h-24zm0,-32h24v-32h-24zm0,-240h24v-16h-24zm0,-32h24v-16h-24zm24,288h24v-16h-24zm0,-32h24v-32h-24zm0,-224h24v-32h-24zm24,208h24v-64h-24zm0,-176h24v-16h-24zm0,-32h24v-32h-24zm24,224h24v-16h-24zm0,-32h24v-48h-24zm0,-64h24v-48h-24zm0,-112h24v-16h-24zm0,-32h24v-16h-24zm24,192h24v-128h-24zm24,-32h24v-80h-24z"></path>
     <path fill="rgb(16,100,220)" d="M216,368h24v-16h-24zm0,-48h24v-48h-24zm24,80h24v-32h-24zm0,-80h24v-48h-24zm24,96h24v-32h-24zm0,-160h24v-16h-24zm0,-32h24v-16h-24zm24,0h24v-32h-24zm24,240h24v-32h-24zm0,-240h24v-32h-24zm24,224h24v-16h-24zm0,-240h24v-48h-24zm24,256h24v-16h-24zm0,-272h24v-32h-24zm24,288h24v-16h-24zm0,-304h24v-16h-24zm24,304h24v-16h-24zm48,16h24v-16h-24zm0,-304h24v-16h-24zm0,-32h24v-32h-24zm48,320h24v-16h-24zm0,-304h24v-32h-24zm48,0h24v-16h-24zm24,304h24v-16h-24zm0,-304h24v-16h-24zm24,272h24v-16h-24zm0,-256h24v-32h-24zm24,272h24v-16h-24zm0,-256h24v-16h-24zm24,224h24v-16h-24zm0,-224h24v-16h-24zm24,208h24v-48h-24zm0,-160h24v-16h-24zm24,80h24v-32h-24zm0,-48h24v-32h-24zm0,-48h24v-16h-24zm24,128h24v-16h-24zm0,-64h24v-48h-24z"></path>
     <path fill="rgb(18,114,217)" d="M240,352h24v-16h-24zm0,-80h24v-16h-24zm24,112h24v-16h-24zm0,-32h24v-16h-24zm0,-64h24v-32h-24zm0,-48h24v-16h-24zm24,176h24v-32h-24zm0,-176h24v-16h-24zm24,192h24v-16h-24zm0,-32h24v-16h-24zm0,-160h24v-16h-24zm24,-16h24v-16h-24zm24,-16h24v-16h-24zm24,256h24v-16h-24zm0,-272h24v-16h-24zm24,0h24v-32h-24zm24,272h24v-16h-24zm0,-272h24v-32h-24zm24,288h24v-16h-24zm0,-304h24v-16h-24zm24,304h24v-32h-24zm0,-304h24v-16h-24zm48,304h24v-32h-24zm0,-288h24v-32h-24zm24,288h24v-32h-24zm0,-288h24v-16h-24zm24,272h24v-32h-24zm0,-272h24v-16h-24zm24,16h24v-16h-24zm24,224h24v-32h-24zm0,-208h24v-16h-24zm24,192h24v-16h-24zm24,-64h24v-16h-24zm0,-80h24v-16h-24zm0,-32h24v-16h-24zm24,128h24v-32h-24zm0,-64h24v-16h-24z"></path>
     <path fill="rgb(20,129,214)" d="M264,368h24v-16h-24zm0,-48h24v-32h-24zm24,64h24v-32h-24zm0,-64h24v-16h-24zm0,-48h24v-32h-24zm24,0h24v-32h-24zm24,160h24v-16h-24zm24,16h24v-32h-24zM384,208h24v-16h-24zm24,256h24v-16h-24zm48,0h24v-16h-24zm48,0h24v-16h-24zm0,-272h24v-16h-24zm48,256h24v-16h-24zm0,-224h24v-32h-24zm24,208h24v-16h-24zm0,-224h24v-16h-24zm24,224h24v-16h-24zm0,-208h24v-16h-24zm48,176h24v-48h-24zm0,-96h24v-16h-24zm0,-32h24v-48h-24zm24,96h24v-16h-24zm0,-32h24v-16h-24zm0,-32h24v-32h-24z"></path>
     <path fill="rgb(14,143,209)" d="M264,336h24v-16h-24zm24,0h24v-16h-24zm0,-32h24v-32h-24zm24,112h24v-16h-24zm0,-32h24v-16h-24zm0,-80h24v-16h-24zm24,112h24v-16h-24zm0,-176h24v-16h-24zm24,-16h24v-16h-24zm24,224h24v-32h-24zm24,0h24v-16h-24zm0,-240h24v-16h-24zm24,16h24v-32h-24zm24,224h24v-16h-24zM480,208h24v-32h-24zm24,240h24v-16h-24zm0,-240h24v-16h-24zm24,240h24v-32h-24zm0,-224h24v-16h-24zm24,208h24v-16h-24zm24,-16h24v-16h-24zm24,0h24v-16h-24zm0,-176h24v-16h-24zm24,160h24v-16h-24zm0,-48h24v-16h-24zm0,-80h24v-48h-24zm24,64h24v-16h-24zm0,-48h24v-16h-24zm24,32h24v-16h-24z"></path>
     <path fill="rgb(9,157,204)" d="M288,352h24v-16h-24zm24,16h24v-32h-24zm24,0h24v-16h-24zm24,48h24v-16h-24zM384,240h24v-16h-24zm24,192h24v-16h-24zm0,-208h24v-16h-24zm24,224h24v-32h-24zM456,208h24v-16h-24zm24,240h24v-32h-24zM528,208h24v-16h-24zm48,32h24v-32h-24zm24,112h24v-16h-24zm0,-80h24v-32h-24zm24,96h24v-16h-24zm0,-48h24v-32h-24zm24,32h24v-16h-24zm0,-32h24v-16h-24z"></path>
     <path fill="rgb(13,167,195)" d="M312,336h24v-32h-24zm0,-48h24v-16h-24zm24,112h24v-16h-24zm0,-64h24v-16h-24zm0,-48h24v-48h-24zm24,112h24v-16h-24zm0,-144h24v-32h-24zm24,160h24v-16h-24zm0,-192h24v-16h-24zm72,16h24v-16h-24zm24,-16h24v-16h-24zm24,208h24v-16h-24zm0,-208h24v-16h-24zm24,192h24v-16h-24zm0,-176h24v-16h-24zm24,176h24v-16h-24zm0,-176h24v-16h-24zm48,160h24v-16h-24zm24,-64h24v-16h-24zm0,-48h24v-16h-24z"></path>
     <path fill="rgb(30,175,179)" d="M408,416h24v-16h-24zm24,0h24v-16h-24zm0,-176h24v-16h-24zm24,192h24v-16h-24zm0,-208h24v-16h-24zm24,16h24v-16h-24zm24,176h24v-16h-24zm0,-176h24v-16h-24zm72,160h24v-32h-24zm0,-128h24v-16h-24z"></path>
     <path fill="rgb(46,183,164)" d="M336,384h24v-16h-24zm0,-32h24v-16h-24zm0,-32h24v-32h-24zm24,16h24v-16h-24zm0,-48h24v-16h-24zm24,96h24v-16h-24zm0,-128h24v-16h-24zm48,0h24v-16h-24zm24,160h24v-16h-24zm24,0h24v-16h-24zm48,-16h24v-16h-24zm24,0h24v-16h-24zm0,-144h24v-16h-24zm24,0h24v-16h-24zm24,128h24v-32h-24zm0,-48h24v-16h-24zm0,-48h24v-16h-24zm24,96h24v-16h-24z"></path>
     <path fill="rgb(82,186,146)" d="M360,384h24v-16h-24zm0,-32h24v-16h-24zm0,-32h24v-16h-24zm0,-48h24v-16h-24zm24,0h24v-16h-24zm24,128h24v-16h-24zm0,-144h24v-32h-24zm96,144h24v-16h-24zm0,-144h24v-16h-24zm24,0h24v-16h-24zm24,128h24v-16h-24zm0,-112h24v-16h-24zm24,32h24v-16h-24zm24,16h24v-32h-24z"></path>
     <path fill="rgb(116,189,129)" d="M360,304h24v-16h-24zm24,96h24v-16h-24zm24,-16h24v-16h-24zm24,16h24v-16h-24zm24,-16h24v-16h-24zm96,-48h24v-16h-24zm0,-32h24v-16h-24zm24,64h24v-32h-24zm0,-48h24v-16h-24z"></path>
     <path fill="rgb(149,190,113)" d="M384,304h24v-32h-24zm24,64h24v-16h-24zm0,-96h24v-16h-24zm24,112h24v-16h-24zm24,16h24v-16h-24zm0,-144h24v-16h-24zm24,16h24v-32h-24zm48,112h24v-16h-24zm0,-112h24v-16h-24zm24,96h24v-16h-24zm0,-80h24v-16h-24zm24,0h24v-16h-24z"></path>
     <path fill="rgb(179,189,101)" d="M360,368h24v-16h-24zm48,-32h24v-16h-24zm96,48h24v-32h-24zm24,-16h24v-32h-24zm24,-48h24v-16h-24zm24,16h24v-16h-24z"></path>
     <path fill="rgb(209,187,89)" d="M384,368h24v-32h-24zm0,-48h24v-16h-24zm24,-32h24v-16h-24zm48,64h24v-16h-24zm24,48h24v-32h-24zm24,-48h24v-16h-24zm0,-80h24v-16h-24zm24,32h24v-32h-24zm24,48h24v-16h-24z"></path>
     <path fill="rgb(226,192,75)" d="M384,336h24v-16h-24zm24,16h24v-16h-24zm0,-32h24v-32h-24zm24,48h24v-32h-24zm0,-96h24v-16h-24zm24,96h24v-16h-24zm0,-32h24v-16h-24zm0,-48h24v-32h-24zm24,0h24v-16h-24zm24,32h24v-16h-24zm0,-32h24v-16h-24zm24,48h24v-16h-24z"></path>
     <path fill="rgb(244,198,59)" d="M432,336h24v-64h-24zm96,-16h24v-16h-24z"></path>
     <path fill="rgb(253,210,43)" d="M456,304h24v-16h-24zm24,64h24v-48h-24zm24,-64h24v-16h-24z"></path>
     <path fill="rgb(251,230,29)" d="M456,320h24v-16h-24zm24,-16h24v-16h-24zm24,32h24v-16h-24z"></path>
     <path fill="rgb(249,249,15)" d="M480,320h24v-16h-24z"></path>
    </g>
   </g>
   <g>
    <g transform="translate(0,640)">
     <path d="M0,0h960" style="stroke: black; stroke-width: 1;"></path>
     <path d="M0,-24v24m24,-12v12m24,-12v12m24,-12v12m24,-12v12m24,-24v24m24,-12v12m24,-12v12m24,-12v12m24,-12v12m24,-24v24m24,-12v12m24,-12v12m24,-12v12m24,-12v12m24,-24v24m24,-12v12m24,-12v12m24,-12v12m24,-12v12m24,-24v24m24,-12v12m24,-12v12m24,-12v12m24,-12v12m24,-24v24m24,-12v12m24,-12v12m24,-12v12m24,-12v12m24,-24v24m24,-12v12m24,-12v12m24,-12v12m24,-12v12m24,-24v24m24,-12v12m24,-12v12m24,-12v12m24,-12v12m24,-24v24" style="stroke: black; stroke-width: 1;"></path>
     <g font-family="Arial" font-size="28" space="preserve">
      <text fill="black" text-anchor="middle" dy=".8em" transform="translate(0,6)">
       -4
      </text>
      <text fill="black" text-anchor="middle" dy=".8em" transform="translate(120,6)">
       -3
      </text>
      <text fill="black" text-anchor="middle" dy=".8em" transform="translate(240,6)">
       -2
      </text>
      <text fill="black" text-anchor="middle" dy=".8em" transform="translate(360,6)">
       -1
      </text>
      <text fill="black" text-anchor="middle" dy=".8em" transform="translate(480,6)">
       0
      </text>
      <text fill="black" text-anchor="middle" dy=".8em" transform="translate(600,6)">
       1
      </text>
      <text fill="black" text-anchor="middle" dy=".8em" transform="translate(720,6)">
       2
      </text>
      <text fill="black" text-anchor="middle" dy=".8em" transform="translate(840,6)">
       3
      </text>
      <text fill="black" text-anchor="middle" dy=".8em" transform="translate(960,6)">
       4
      </text>
     </g>
    </g>
    <g>
     <path d="M0,0v640" style="stroke: black; stroke-width: 1;"></path>
     <path d="M36,640h-36m18,-16h-18m18,-16h-18m18,-16h-18m18,-16h-18m36,-16h-36m18,-16h-18m18,-16h-18m18,-16h-18m18,-16h-18m36,-16h-36m18,-16h-18m18,-16h-18m18,-16h-18m18,-16h-18m36,-16h-36m18,-16h-18m18,-16h-18m18,-16h-18m18,-16h-18m36,-16h-36m18,-16h-18m18,-16h-18m18,-16h-18m18,-16h-18m36,-16h-36m18,-16h-18m18,-16h-18m18,-16h-18m18,-16h-18m36,-16h-36m18,-16h-18m18,-16h-18m18,-16h-18m18,-16h-18m36,-16h-36m18,-16h-18m18,-16h-18m18,-16h-18m18,-16h-18m36,-16h-36" style="stroke: black; stroke-width: 1;"></path>
     <g font-family="Arial" font-size="28" space="preserve">
      <text fill="black" text-anchor="end" dy=".4em" transform="translate(-4,640)">
       -4
      </text>
      <text fill="black" text-anchor="end" dy=".4em" transform="translate(-4,560)">
       -3
      </text>
      <text fill="black" text-anchor="end" dy=".4em" transform="translate(-4,480)">
       -2
      </text>
      <text fill="black" text-anchor="end" dy=".4em" transform="translate(-4,400)">
       -1
      </text>
      <text fill="black" text-anchor="end" dy=".4em" transform="translate(-4,320)">
       0
      </text>
      <text fill="black" text-anchor="end" dy=".4em" transform="translate(-4,240)">
       1
      </text>
      <text fill="black" text-anchor="end" dy=".4em" transform="translate(-4,160)">
       2
      </text>
      <text fill="black" text-anchor="end" dy=".4em" transform="translate(-4,80)">
       3
      </text>
      <text fill="black" text-anchor="end" dy=".4em" transform="translate(-4,0)">
       4
      </text>
     </g>
    </g>
   </g>
  </g>
  <g transform="translate(1086,80)">
   <path d="M0,0H48V640H0Z" style="fill: none; stroke: black; stroke-width: 1;"></path>
   <rect x="0" y="608" width="48" height="32" style="fill: rgb(38,62,168); stroke: rgb(38,62,168);"></rect>
   <rect x="0" y="576" width="48" height="32" style="fill: rgb(22,82,205); stroke: rgb(22,82,205);"></rect>
   <rect x="0" y="544" width="48" height="32" style="fill: rgb(16,100,220); stroke: rgb(16,100,220);"></rect>
   <rect x="0" y="512" width="48" height="32" style="fill: rgb(18,114,217); stroke: rgb(18,114,217);"></rect>
   <rect x="0" y="480" width="48" height="32" style="fill: rgb(20,129,214); stroke: rgb(20,129,214);"></rect>
   <rect x="0" y="448" width="48" height="32" style="fill: rgb(14,143,209); stroke: rgb(14,143,209);"></rect>
   <rect x="0" y="416" width="48" height="32" style="fill: rgb(9,157,204); stroke: rgb(9,157,204);"></rect>
   <rect x="0" y="384" width="48" height="32" style="fill: rgb(13,167,195); stroke: rgb(13,167,195);"></rect>
   <rect x="0" y="352" width="48" height="32" style="fill: rgb(30,175,179); stroke: rgb(30,175,179);"></rect>
   <rect x="0" y="320" width="48" height="32" style="fill: rgb(46,183,164); stroke: rgb(46,183,164);"></rect>
   <rect x="0" y="288" width="48" height="32" style="fill: rgb(82,186,146); stroke: rgb(82,186,146);"></rect>
   <rect x="0" y="256" width="48" height="32" style="fill: rgb(116,189,129); stroke: rgb(116,189,129);"></rect>
   <rect x="0" y="224" width="48" height="32" style="fill: rgb(149,190,113); stroke: rgb(149,190,113);"></rect>
   <rect x="0" y="192" width="48" height="32" style="fill: rgb(179,189,101); stroke: rgb(179,189,101);"></rect>
   <rect x="0" y="160" width="48" height="32" style="fill: rgb(209,187,89); stroke: rgb(209,187,89);"></rect>
   <rect x="0" y="128" width="48" height="32" style="fill: rgb(226,192,75); stroke: rgb(226,192,75);"></rect>
   <rect x="0" y="96" width="48" height="32" style="fill: rgb(244,198,59); stroke: rgb(244,198,59);"></rect>
   <rect x="0" y="64" width="48" height="32" style="fill: rgb(253,210,43); stroke: rgb(253,210,43);"></rect>
   <rect x="0" y="32" width="48" height="32" style="fill: rgb(251,230,29); stroke: rgb(251,230,29);"></rect>
   <rect x="0" y="0" width="48" height="32" style="fill: rgb(249,249,15); stroke: rgb(249,249,15);"></rect>
   <g transform="translate(48, 0)">
    <path d="M0,0v640" style="stroke: black; stroke-width: 1;"></path>
    <path d="M0,640h-33m33,-71h-33m33,-71h-33m33,-71h-33m33,-71h-33m33,-72h-33m33,-71h-33m33,-71h-33m33,-71h-33m33,-71h-33" style="stroke: black; stroke-width: 1;"></path>
    <g font-family="Arial" font-size="28" space="preserve">
     <text fill="black" text-anchor="start" dy=".4em" transform="translate(4,640)">
      0
     </text>
     <text fill="black" text-anchor="start" dy=".4em" transform="translate(4,569)">
      20
     </text>
     <text fill="black" text-anchor="start" dy=".4em" transform="translate(4,498)">
      40
     </text>
     <text fill="black" text-anchor="start" dy=".4em" transform="translate(4,427)">
      60
     </text>
     <text fill="black" text-anchor="start" dy=".4em" transform="translate(4,356)">
      80
     </text>
     <text fill="black" text-anchor="start" dy=".4em" transform="translate(4,284)">
      100
     </text>
     <text fill="black" text-anchor="start" dy=".4em" transform="translate(4,213)">
      120
     </text>
     <text fill="black" text-anchor="start" dy=".4em" transform="translate(4,142)">
      140
     </text>
     <text fill="black" text-anchor="start" dy=".4em" transform="translate(4,71)">
      160
     </text>
     <text fill="black" text-anchor="start" dy=".4em" transform="translate(4,0)">
      180
     </text>
    </g>
   </g>
  </g>
  <g transform="translate(120,4)" font-family="Arial" font-size="40" space="preserve">
   <path d="M0,0H960V53H0Z" style="fill: none;"></path>
   <text fill="black" text-anchor="middle" dy=".8em" transform="translate(480,0)">
    py vs px
   </text>
  </g>
  <g transform="translate(936,52)" font-family="Arial" font-size="20" space="preserve">
   <path d="M0,0H240V212H0Z" style="fill: white; stroke: black; stroke-width: 1;"></path>
   <text fill="black" text-anchor="middle" dy=".4em" transform="translate(120,18)">
    hpxpy
   </text>
   <text fill="black" text-anchor="start" dy=".4em" transform="translate(12,53)">
    Entries
   </text>
   <text fill="black" text-anchor="end" dy=".4em" transform="translate(228,53)">
    25000
   </text>
   <text fill="black" text-anchor="start" dy=".4em" transform="translate(12,88)">
    Mean x
   </text>
   <text fill="black" text-anchor="end" dy=".4em" transform="translate(228,88)">
    0.003181
   </text>
   <text fill="black" text-anchor="start" dy=".4em" transform="translate(12,124)">
    Mean y
   </text>
   <text fill="black" text-anchor="end" dy=".4em" transform="translate(228,124)">
    0.009441
   </text>
   <text fill="black" text-anchor="start" dy=".4em" transform="translate(12,159)">
    Std Dev x
   </text>
   <text fill="black" text-anchor="end" dy=".4em" transform="translate(228,159)">
    1.004
   </text>
   <text fill="black" text-anchor="start" dy=".4em" transform="translate(12,194)">
    Std Dev y
   </text>
   <text fill="black" text-anchor="end" dy=".4em" transform="translate(228,194)">
    0.9972
   </text>
   <path d="M0,35h240" style="stroke: black; stroke-width: 1;"></path>
  </g>
 </g>
</svg>