<svg xmlns="http://www.w3.org/2000/svg" viewBox="0 0 1200 800" preserveAspectRatio="none" width="1200" height="800">
 <title>
  ROOT canvas
 </title>
 <path d="M0,0H1200V800H0Z" style="fill: none;"></path>
 <g>
  <g transform="translate(120,80)">
   <title></title>
   <path d="M0,0H960V640H0Z" style="fill: white; stroke: black; stroke-width: 1;"></path>
   <g clip-path="path('M0,0H960V640H0Z')">
    <g objname="hNsigmaP_ITS_helium-3" objtype="TH2F">
     <path fill="rgb(38,62,168)" d="M0,566h1v-3h-1zh1v-3h-1zm1,0h1v-3h-1zh1v-6h-1zh1v-3h-1zh1v-3h-1zm0,-6h1v-3h-1zm0,3h1v-3h-1zh1v-6h-1zh1v-3h-1zh1v-6h-1zm1,0h1v-3h-1zh1v-3h-1zh1v-9h-1zh1v-6h-1zh1v-9h-1zh1v-9h-1zh1v-6h-1zm1,0h1v-9h-1zh1v-13h-1zh1v-9h-1zh1v-9h-1zh1v-13h-1zm1,0h1v-13h-1zh1v-13h-1zh1v-13h-1zh1v-16h-1zh1v-22h-1zm1,0h1v-16h-1zM5,544h1v-3h-1zM5,534h1v-3h-1zM5,486h1v-3h-1zm0,77h1v-19h-1zM5,534h1v-3h-1zm0,29h1v-22h-1zM5,538h1v-4h-1zm0,22h1v-16h-1zm1,0h1v-16h-1zh1v-22h-1zh1v-22h-1zh1v-26h-1zm1,0h1v-26h-1zh1v-29h-1zh1v-32h-1zM7,515h1v-3h-1zm0,45h1v-32h-1zm1,6h1v-3h-1zm0,-6h1v-32h-1zM8,525h1v-10h-1zM8,509h1v-3h-1zm0,57h1v-3h-1zm0,-6h1v-35h-1zm0,6h1v-3h-1zm0,-6h1v-29h-1zM8,525h1v-7h-1zm1,41h1v-3h-1zm0,-6h1v-38h-1zM9,518h1v-6h-1zM9,490h1v-4h-1zm0,76h1v-3h-1zm0,-6h1v-32h-1zM9,525h1v-16h-1zm0,41h1v-3h-1zm0,-9h1v-45h-1zm1,9h1v-3h-1zm0,-9h1v-32h-1zm0,-35h1v-10h-1zm0,-71h1v-3h-1zm0,115h1v-3h-1zm0,-9h1v-51h-1zm1,9h1v-3h-1zm0,-9h1v-35h-1zm0,-39h1v-16h-1zm0,-19h1v-3h-1zm0,67h1v-3h-1zm0,-12h1v-52h-1zm0,-58h1v-3h-1zm0,70h1v-3h-1zm0,-12h1v-52h-1zm0,-64h1v-4h-1zM11,205h1v-3h-1zm1,361h1v-3h-1zm0,-12h1v-55h-1zm0,-61h1v-3h-1zm0,-7h1v-3h-1zm0,-19h1v-6h-1zm0,99h1v-3h-1zm0,-12h1v-29h-1zm0,-32h1v-26h-1zm0,-29h1v-3h-1zm0,-10h1v-3h-1zm0,-22h1v-3h-1zm0,-7h1v-3h-1zm0,-80h1v-3h-1zm1,192h1v-3h-1zm0,-12h1v-61h-1zm0,-77h1v-3h-1zm0,-80h1v-3h-1zm0,-77h1v-3h-1zm0,246h1v-3h-1zm0,-12h1v-61h-1zm0,-64h1v-10h-1zm0,-20h1v-3h-1zm1,96h1v-6h-1zm0,-16h1v-60h-1zm0,-73h1v-3h-1zm0,-7h1v-3h-1zm0,-6h1v-3h-1zm0,-70h1v-4h-1zM14,115h1v-3h-1zm0,451h1v-6h-1zm0,-16h1v-70h-1zm0,-86h1v-3h-1zm0,-16h1v-3h-1zM14,330h1v-4h-1zm1,236h1v-6h-1zm0,-16h1v-67h-1zm0,-86h1v-3h-1zm0,-16h1v-3h-1zm0,-19h1v-3h-1zm0,-32h1v-3h-1zm0,169h1v-6h-1zm0,-16h1v-67h-1zm0,-70h1v-6h-1zm0,-10h1v-3h-1zm0,-9h1v-3h-1zm1,105h1v-6h-1zm0,-16h1v-73h-1zm0,-76h1v-7h-1zm0,-10h1v-6h-1zm0,-54h1v-4h-1zM16,310h1v-3h-1zm0,256h1v-6h-1zm0,-16h1v-70h-1zm0,-73h1v-3h-1zm0,-7h1v-3h-1zm0,-6h1v-10h-1zm0,-51h1v-3h-1zm0,-7h1v-3h-1zM16,122h1v-4h-1zm1,444h1v-6h-1zm0,-16h1v-76h-1zm0,-80h1v-6h-1zm0,-9h1v-10h-1zm0,-13h1v-6h-1zm0,-67h1v-3h-1zM17,61h1v-3h-1zm0,505h1v-6h-1zm0,-19h1v-67h-1zm0,-70h1v-3h-1zm0,-10h1v-3h-1zm0,-6h1v-10h-1zm0,-13h1v-6h-1zm0,-16h1v-3h-1zm0,-74h1v-3h-1zm0,-35h1v-3h-1zm1,243h1v-9h-1zm0,-19h1v-77h-1zm0,-83h1v-3h-1zm0,-13h1v-6h-1zm0,-22h1v-3h-1zM18,240h1v-3h-1zm0,326h1v-9h-1zm0,-19h1v-86h-1zm0,-89h1v-20h-1zm0,-23h1v-3h-1zm0,-13h1v-3h-1zM18,246h1v-3h-1zm0,-12h1v-4h-1zm1,332h1v-9h-1zm0,-19h1v-93h-1zm0,-99h1v-6h-1zm0,-10h1v-3h-1zm0,-16h1v-3h-1zm0,-60h1v-4h-1zm1,204h1v-9h-1zm0,-22h1v-83h-1zm0,-86h1v-10h-1zm0,-13h1v-7h-1zm0,-39h1v-3h-1zm0,-89h1v-3h-1zm0,249h1v-9h-1zm0,-22h1v-77h-1zm0,-83h1v-7h-1zm0,-13h1v-10h-1zm0,-13h1v-3h-1zm0,-16h1v-3h-1zm0,-67h1v-3h-1zm1,214h1v-9h-1zm0,-22h1v-86h-1zm0,-93h1v-3h-1zm0,-6h1v-3h-1zm0,-10h1v-3h-1zm0,-48h1v-3h-1zm0,-57h1v-4h-1zM21,192h1v-3h-1zm1,374h1v-12h-1zm0,-22h1v-80h-1zm0,-83h1v-10h-1zm0,-16h1v-10h-1zm0,-13h1v-13h-1zm0,-26h1v-3h-1zm0,-12h1v-7h-1zm1,172h1v-12h-1zm0,-25h1v-74h-1zm0,-80h1v-3h-1zm0,-7h1v-6h-1zm0,-12h1v-10h-1zm0,-16h1v-13h-1zm0,-55h1v-3h-1zm0,-25h1v-4h-1zm0,217h1v-9h-1zm0,-22h1v-87h-1zm0,-90h1v-13h-1zm0,-29h1v-6h-1zm0,-19h1v-3h-1zm0,-80h1v-3h-1zm0,-51h1v-3h-1zm1,294h1v-12h-1zm0,-25h1v-87h-1zm0,-93h1v-3h-1zm0,-6h1v-7h-1zm0,-13h1v-3h-1zm0,-13h1v-3h-1zm0,-6h1v-4h-1zM24,298h1v-4h-1zm1,265h1v-13h-1zm0,-22h1v-77h-1zm0,-80h1v-3h-1zm0,-7h1v-3h-1zm0,-12h1v-4h-1zm0,-7h1v-3h-1zm0,-6h1v-3h-1zm0,-16h1v-3h-1zm0,-67h1v-4h-1zm0,-16h1v-4h-1zm0,-48h1v-4h-1zm1,281h1v-13h-1zm0,-25h1v-77h-1zm0,-84h1v-3h-1zm0,-6h1v-3h-1zm0,-10h1v-3h-1zm0,-6h1v-3h-1zm0,-38h1v-4h-1zm0,-74h1v-3h-1zm0,243h1v-13h-1zm0,-25h1v-87h-1zm0,-90h1v-6h-1zm0,-13h1v-9h-1zm0,-13h1v-3h-1zm0,-6h1v-6h-1zm0,-54h1v-4h-1zM26,259h1v-3h-1zm1,307h1v-16h-1zm0,-28h1v-77h-1zm0,-80h1v-10h-1zm0,-16h1v-7h-1zm0,-10h1v-10h-1zm0,-13h1v-3h-1zm1,144h1v-13h-1zm0,-29h1v-83h-1zm0,-89h1v-3h-1zm0,-13h1v-6h-1zm0,-10h1v-3h-1zm0,-12h1v-4h-1zm0,-29h1v-3h-1zm0,-32h1v-3h-1zm0,-19h1v-4h-1zm0,-13h1v-3h-1zm1,246h1v-16h-1zm0,-29h1v-80h-1zm0,-83h1v-6h-1zm0,-9h1v-13h-1zm0,-16h1v-10h-1zm0,-13h1v-3h-1zm0,-16h1v-3h-1zm0,-83h1v-4h-1zm1,249h1v-16h-1zm0,-29h1v-92h-1zm0,-96h1v-12h-1zm0,-16h1v-6h-1zm0,-9h1v-3h-1zm0,-7h1v-3h-1zm0,-41h1v-3h-1zm0,-7h1v-3h-1zm0,-35h1v-3h-1zm0,-6h1v-3h-1zm1,246h1v-16h-1zm0,-32h1v-99h-1zM31,426h1v-7h-1zm0,-13h1v-3h-1zm0,-26h1v-3h-1zM31,176h1v-3h-1zm1,387h1v-19h-1zm0,-32h1v-109h-1zM32,413h1v-7h-1zm0,-19h1v-4h-1zm0,-23h1v-3h-1zm0,-6h1v-3h-1zm1,198h1v-19h-1zm0,-35h1v-83h-1zm0,-86h1v-20h-1zm0,-23h1v-6h-1zm0,-13h1v-6h-1zm0,-57h1v-3h-1zm0,-26h1v-3h-1zM33,118h1v-3h-1zm1,445h1v-19h-1zm0,-35h1v-86h-1zm0,-90h1v-19h-1zm0,-22h1v-10h-1zm0,-16h1v-3h-1zm0,-6h1v-4h-1zm0,-7h1v-3h-1zm0,-16h1v-3h-1zm0,-9h1v-4h-1zm0,-26h1v-3h-1zm0,-6h1v-4h-1zm0,-39h1v-3h-1zm1,269h1v-16h-1zm0,-35h1v-77h-1zm0,-80h1v-35h-1zm0,-42h1v-3h-1zm0,-13h1v-3h-1zm0,-12h1v-4h-1zm0,-29h1v-3h-1zm0,-7h1v-3h-1zm0,-22h1v-3h-1zM35,45h1v-3h-1zm1,518h1v-22h-1zm0,-38h1v-112h-1zM36,410h1v-4h-1zm0,-23h1v-3h-1zm0,-16h1v-3h-1zm0,-29h1v-3h-1zm1,218h2v-19h-2zm0,-35h2v-109h-2zM37,410h2v-7h-2zm0,-20h2v-6h-2zm0,-28h2v-4h-2zm0,-16h2v-4h-2zm2,217h1v-22h-1zm0,-41h1v-103h-1zM39,413h1v-10h-1zm0,-13h1v-3h-1zm0,-29h1v-3h-1zm0,-25h1v-7h-1zm1,217h1v-25h-1zm0,-41h1v-93h-1zm0,-96h1v-13h-1zm0,-23h1v-6h-1zm0,-9h1v-10h-1zm0,-16h1v-4h-1zm0,-42h1v-3h-1zm0,-22h1v-4h-1zm1,246h1v-22h-1zm0,-38h1v-103h-1zM41,416h1v-6h-1zm0,-10h1v-3h-1zm0,-22h1v-10h-1zm0,-29h1v-3h-1zm0,-6h1v-3h-1zm0,-77h1v-3h-1zm1,288h2v-22h-2zm0,-38h2v-106h-2zM42,413h2v-10h-2zm0,-16h2v-3h-2zm0,-13h2v-3h-2zm0,-6h2v-4h-2zm0,-7h2v-6h-2zm0,-19h2v-3h-2zm0,-61h2v-3h-2zM42,134h2v-3h-2zm2,426h1v-26h-1zm0,-38h1v-103h-1zM44,416h1v-3h-1zm0,-6h1v-13h-1zm0,-20h1v-3h-1zm0,-9h1v-3h-1zm0,-7h1v-3h-1zm0,-41h1v-3h-1zm0,-7h1v-9h-1zm0,-76h1v-4h-1zm0,-52h1v-3h-1zm1,365h1v-29h-1zm0,-45h1v-99h-1zM45,416h1v-3h-1zm0,-6h1v-7h-1zm0,-16h1v-4h-1zm0,-7h1v-3h-1zm0,-13h1v-9h-1zm1,186h2v-26h-2zm0,-42h2v-124h-2zM46,378h2v-4h-2zm0,-13h2v-3h-2zm0,-35h2v-4h-2zm0,-39h2v-3h-2zm0,-25h2v-4h-2zm0,-10h2v-3h-2zm2,304h1v-26h-1zm0,-42h1v-105h-1zM48,406h1v-9h-1zm0,-57h1v-13h-1zM48,166h1v-3h-1zm1,394h2v-29h-2zm0,-42h2v-105h-2zM49,410h2v-13h-2zm0,-20h2v-19h-2zm0,-22h2v-3h-2zm0,-42h2v-3h-2zm2,234h1v-29h-1zm0,-45h1v-115h-1zM51,397h1v-13h-1zm0,-19h1v-4h-1zm0,-23h1v-3h-1zm0,-13h1v-3h-1zm0,-16h1v-3h-1zm1,231h2v-26h-2zm0,-42h2v-89h-2zm0,-93h2v-16h-2zm0,-22h2v-13h-2zm0,-16h2v-3h-2zm0,-19h2v-3h-2zm0,-10h2v-3h-2zm0,-19h2v-3h-2zm0,-10h2v-3h-2zm0,-6h2v-3h-2zm0,-10h2v-3h-2zm0,-41h2v-3h-2zm2,294h2v-35h-2zm0,-48h2v-118h-2zM54,394h2v-4h-2zm0,-7h2v-9h-2zm0,-13h2v-3h-2zm0,-6h2v-3h-2zm0,-16h2v-3h-2zm0,-10h2v-3h-2zm0,-16h2v-3h-2zm0,-6h2v-3h-2zm0,-6h2v-4h-2zm0,-80h2v-4h-2zm2,329h1v-35h-1zm0,-48h1v-118h-1zM56,394h1v-16h-1zm0,-20h1v-6h-1zm0,-9h1v-7h-1zm0,-29h1v-6h-1zm0,-16h1v-3h-1zm0,-54h1v-4h-1zm0,-52h1v-3h-1zm1,346h2v-32h-2zm0,-45h2v-102h-2zM57,410h2v-26h-2zm0,-36h2v-6h-2zm0,-9h2v-3h-2zm0,-55h2v-6h-2zM57,54h2v-3h-2zm2,503h2v-32h-2zm0,-42h2v-121h-2zM59,390h2v-3h-2zm0,-12h2v-10h-2zm0,-45h2v-7h-2zm0,-16h2v-3h-2zm2,243h2v-35h-2zm0,-48h2v-96h-2zm0,-99h2v-13h-2zm0,-16h2v-3h-2zm0,-7h2v-6h-2zm0,-9h2v-7h-2zm0,-16h2v-3h-2zm0,-19h2v-4h-2zm0,-10h2v-3h-2zm0,-42h2v-3h-2zM61,189h2v-3h-2zM61,77h2v-3h-2zm2,480h2v-32h-2zm0,-45h2v-106h-2zM63,403h2v-22h-2zm0,-25h2v-10h-2zm0,-16h2v-7h-2zm0,-64h2v-4h-2zm0,-32h2v-4h-2zm2,294h2v-38h-2zm0,-48h2v-86h-2zm0,-90h2v-25h-2zm0,-28h2v-13h-2zm0,-16h2v-7h-2zm0,-10h2v-10h-2zm0,-16h2v-3h-2zm0,-13h2v-3h-2zm2,215h2v-32h-2zm0,-42h2v-128h-2zM67,381h2v-13h-2zm0,-16h2v-3h-2zm0,-23h2v-6h-2zm0,-67h2v-3h-2zm0,-6h2v-3h-2zm2,288h2v-35h-2zm0,-45h2v-109h-2zM69,400h2v-10h-2zm0,-13h2v-3h-2zm0,-6h2v-3h-2zm0,-7h2v-3h-2zm0,-6h2v-3h-2zm0,-16h2v-3h-2zm0,-10h2v-3h-2zm0,-22h2v-3h-2zm0,-29h2v-3h-2zm0,-73h2v-4h-2zm2,339h2v-39h-2zm0,-45h2v-96h-2zm0,-99h2v-7h-2zm0,-10h2v-3h-2zm0,-6h2v-7h-2zm0,-13h2v-13h-2zm0,-16h2v-3h-2zm0,-13h2v-3h-2zm0,-6h2v-3h-2zm0,-45h2v-3h-2zm2,256h2v-3h-2zm0,-6h2v-36h-2zm0,-42h2v-99h-2zM73,410h2v-32h-2zm0,-36h2v-6h-2zm0,-19h2v-3h-2zm0,-6h2v-3h-2zm0,-7h2v-3h-2zm0,-6h2v-3h-2zM73,138h2v-4h-2zm2,419h2v-39h-2zm0,-42h2v-96h-2zm0,-99h2v-10h-2zm0,-16h2v-10h-2zm0,-13h2v-22h-2zm0,-25h2v-7h-2zm0,-10h2v-3h-2zm0,-10h2v-3h-2zm0,-25h2v-7h-2zm2,240h3v-141h-3zM77,413h3v-13h-3zm0,-16h3v-7h-3zm0,-13h3v-6h-3zm0,-13h3v-6h-3zm0,-9h3v-10h-3zm0,-20h3v-3h-3zm0,-9h3v-3h-3zm0,-10h3v-3h-3zm0,-9h3v-4h-3zm0,-7h3v-3h-3zm0,-16h3v-6h-3zm0,-48h3v-3h-3zm3,314h2v-157h-2zM80,397h2v-7h-2zm0,-10h2v-9h-2zm0,-13h2v-3h-2zm0,-9h2v-13h-2zm0,-16h2v-3h-2zm0,-42h2v-6h-2zm0,-9h2v-4h-2zm0,-45h2v-3h-2zm0,-51h2v-4h-2zm2,355h3v-141h-3zM82,413h3v-7h-3zm0,-10h3v-6h-3zm0,-22h3v-7h-3zm0,-10h3v-3h-3zm0,-6h3v-3h-3zm0,-7h3v-3h-3zm0,-6h3v-6h-3zm0,-19h3v-3h-3zm0,-13h3v-3h-3zm0,-22h3v-4h-3zm0,-10h3v-3h-3zm0,-83h3v-3h-3zm3,349h2v-164h-2zM85,384h2v-3h-2zm0,-6h2v-4h-2zm0,-13h2v-3h-2zm0,-16h2v-3h-2zm0,-23h2v-3h-2zm0,-16h2v-3h-2zm0,-38h2v-3h-2zm2,285h3v-147h-3zM87,406h3v-22h-3zm0,-32h3v-3h-3zm0,-6h3v-6h-3zm0,-38h3v-7h-3zm0,-74h3v-3h-3zm3,298h2v-157h-2zM90,394h2v-16h-2zm0,-23h2v-3h-2zm0,-16h2v-3h-2zm0,-6h2v-3h-2zm0,-7h2v-3h-2zm0,-6h2v-6h-2zm0,-10h2v-3h-2zm0,-28h2v-4h-2zm2,256h3v-151h-3zM92,400h3v-13h-3zm0,-16h3v-3h-3zm0,-6h3v-7h-3zm0,-16h3v-4h-3zm0,-7h3v-6h-3zm0,-9h3v-4h-3zm0,-13h3v-7h-3zm0,-10h3v-3h-3zm0,-19h3v-3h-3zm0,-32h3v-6h-3zm3,282h3v-154h-3zM95,394h3v-7h-3zm0,-10h3v-3h-3zm0,-6h3v-4h-3zm0,-7h3v-6h-3zm0,-19h3v-3h-3zm0,-10h3v-6h-3zm0,-35h3v-3h-3zm3,247h3v-112h-3zM98,438h3v-44h-3zm0,-48h3v-12h-3zm0,-19h3v-16h-3zm0,-32h3v-6h-3zm0,-16h3v-6h-3zm3,240h3v-3h-3zm0,-6h3v-157h-3zm0,-160h3v-3h-3zm0,-10h3v-6h-3zm0,-19h3v-3h-3zm0,-6h3v-4h-3zm0,-26h3v-3h-3zm0,-6h3v-4h-3zm0,-7h3v-3h-3zm3,234h3v-128h-3zm0,-131h3v-7h-3zm0,-10h3v-26h-3zm0,-29h3v-3h-3zm0,-9h3v-10h-3zm0,-16h3v-4h-3zm0,-7h3v-3h-3zm0,-9h3v-4h-3zm0,-23h3v-3h-3zm0,-6h3v-3h-3zm0,-7h3v-3h-3zm0,-6h3v-3h-3zm3,253h3v-3h-3zm0,-7h3v-147h-3zm0,-150h3v-10h-3zm0,-16h3v-3h-3zm0,-6h3v-4h-3zm0,-7h3v-3h-3zm0,-6h3v-10h-3zm0,-16h3v-7h-3zm0,-96h3v-3h-3zm3,301h4v-135h-4zm0,-138h4v-3h-4zm0,-6h4v-4h-4zm0,-7h4v-3h-4zm0,-13h4v-6h-4zm0,-9h4v-3h-4zm0,-10h4v-3h-4zm0,-13h4v-3h-4zm0,-19h4v-3h-4zm0,-48h4v-3h-4zm4,263h3v-16h-3zm0,-20h3v-124h-3zm0,-128h3v-3h-3zm0,-9h3v-7h-3zm0,-19h3v-4h-3zm0,-16h3v-4h-3zm0,-29h3v-7h-3zm3,217h3v-9h-3zm0,-12h3v-122h-3zm0,-128h3v-10h-3zm0,-13h3v-7h-3zm0,-10h3v-3h-3zm0,-25h3v-4h-3zm0,-10h3v-3h-3zm0,-13h3v-3h-3zm0,-67h3v-3h-3zm0,-6h3v-4h-3zm3,288h4v-4h-4zm0,-7h4v-144h-4zm0,-147h4v-22h-4zm0,-26h4v-3h-4zm0,-6h4v-3h-4zm0,-13h4v-3h-4zm0,-96h4v-3h-4zm4,298h4v-125h-4zm0,-131h4v-13h-4zm0,-20h4v-3h-4zm0,-16h4v-3h-4zm0,-6h4v-3h-4zm0,-13h4v-9h-4zm0,-16h4v-3h-4zm0,-6h4v-7h-4zm0,-23h4v-6h-4zm0,-22h4v-3h-4zm0,-26h4v-3h-4zm4,272h3v-134h-3zm0,-140h3v-7h-3zm0,-13h3v-10h-3zm0,-16h3v-3h-3zm0,-13h3v-3h-3zm0,-6h3v-4h-3zm0,-29h3v-3h-3zm0,-42h3v-3h-3zm3,253h4v-122h-4zm0,-125h4v-22h-4zm0,-25h4v-7h-4zm0,-10h4v-3h-4zm0,-6h4v-4h-4zm0,-7h4v-9h-4zm0,-16h4v-3h-4zm0,-6h4v-7h-4zm0,-135h4v-3h-4zm4,340h4v-112h-4zm0,-116h4v-28h-4zm0,-32h4v-3h-4zm0,-9h4v-3h-4zm0,-7h4v-3h-4zm0,-6h4v-10h-4zm0,-16h4v-10h-4zm0,-22h4v-4h-4zm0,-119h4v-3h-4zm4,320h4v-105h-4zm0,-109h4v-19h-4zm0,-28h4v-7h-4zm0,-13h4v-13h-4zm0,-83h4v-4h-4zm0,-29h4v-3h-4zm4,269h5v-7h-5zm0,-10h5v-106h-5zm0,-115h5v-3h-5zm0,-13h5v-6h-5zm0,-10h5v-3h-5zm0,-6h5v-10h-5zm0,-16h5v-3h-5zm0,-13h5v-6h-5zm0,-25h5v-4h-5zm0,-7h5v-3h-5zm0,-38h5v-3h-5zm5,249h4v-3h-4zm0,-6h4v-102h-4zm0,-112h4v-13h-4zm0,-16h4v-3h-4zm0,-6h4v-7h-4zm0,-13h4v-7h-4zm0,-10h4v-6h-4zm0,-9h4v-4h-4zm0,-10h4v-3h-4zm0,-70h4v-4h-4zm4,249h5v-102h-5zm0,-105h5v-4h-5zm0,-10h5v-10h-5zm0,-13h5v-3h-5zm0,-13h5v-3h-5zm0,-16h5v-3h-5zm0,-9h5v-3h-5zm0,-13h5v-3h-5zm0,-10h5v-3h-5zm0,-9h5v-7h-5zm0,-10h5v-3h-5zm0,-13h5v-3h-5zm5,224h4v-6h-4zm0,-9h4v-122h-4zm0,-125h4v-6h-4zm0,-22h4v-4h-4zm0,-10h4v-6h-4zm0,-10h4v-3h-4zm0,-80h4v-3h-4zm4,256h5v-9h-5zm0,-12h5v-84h-5zm0,-87h5v-13h-5zm0,-22h5v-3h-5zm0,-19h5v-4h-5zm0,-10h5v-3h-5zm0,-13h5v-3h-5zm0,-6h5v-7h-5zm0,-16h5v-7h-5zm0,-10h5v-3h-5zm0,-125h5v-3h-5zm5,327h5v-7h-5zm0,-13h5v-102h-5zm0,-112h5v-10h-5zm0,-13h5v-3h-5zm0,-19h5v-3h-5zm0,-6h5v-4h-5zm0,-10h5v-3h-5zm0,-6h5v-4h-5zm0,-7h5v-3h-5zm0,-13h5v-3h-5zm5,189h5v-3h-5zm0,-6h5v-103h-5zm0,-106h5v-6h-5zm0,-16h5v-3h-5zm0,-6h5v-3h-5zm0,-10h5v-6h-5zm0,-9h5v-4h-5zm0,-32h5v-4h-5zm0,-16h5v-4h-5zm0,-13h5v-3h-5zm5,201h5v-83h-5zm0,-89h5v-16h-5zm0,-23h5v-3h-5zm0,-19h5v-22h-5zm0,-35h5v-3h-5zm0,-22h5v-4h-5zm5,208h5v-4h-5zm0,-7h5v-112h-5zm0,-115h5v-10h-5zm0,-13h5v-3h-5zm0,-6h5v-3h-5zm0,-48h5v-3h-5zm0,-13h5v-3h-5zm0,-6h5v-4h-5zm0,-16h5v-4h-5zm0,-64h5v-4h-5zm5,278h6v-86h-6zm0,-90h6v-12h-6zm0,-16h6v-9h-6zm0,-16h6v-6h-6zm0,-9h6v-7h-6zm0,-10h6v-3h-6zm0,-32h6v-3h-6zm0,-13h6v-3h-6zm6,183h5v-71h-5zm0,-74h5v-13h-5zm0,-16h5v-6h-5zm0,-9h5v-13h-5zm0,-32h5v-7h-5zm0,-36h5v-9h-5zm0,-12h5v-4h-5zm0,-7h5v-6h-5zm5,195h6v-3h-6zm0,-6h6v-3h-6zm0,-6h6v-84h-6zm0,-87h6v-9h-6zm0,-13h6v-19h-6zm0,-25h6v-3h-6zm0,-16h6v-3h-6zm0,-13h6v-3h-6zm0,-6h6v-4h-6zm0,-29h6v-3h-6zm0,-13h6v-3h-6zm6,224h6v-3h-6zm0,-13h6v-6h-6zm0,-9h6v-4h-6zm0,-7h6v-80h-6zm0,-83h6v-3h-6zm0,-6h6v-7h-6zm0,-10h6v-6h-6zm0,-26h6v-6h-6zm0,-9h6v-3h-6zm0,-42h6v-3h-6zm0,-9h6v-4h-6zm0,-29h6v-3h-6zm6,233h6v-3h-6zm0,-22h6v-64h-6zm0,-70h6v-13h-6zm0,-16h6v-4h-6zm0,-10h6v-3h-6zm0,-6h6v-4h-6zm0,-7h6v-3h-6zm0,-6h6v-7h-6zm0,-10h6v-3h-6zm6,138h7v-7h-7zm0,-10h7v-67h-7zm0,-70h7v-10h-7zm0,-13h7v-3h-7zm0,-10h7v-6h-7zm7,109h6v-3h-6zm0,-19h6v-74h-6zm0,-83h6v-3h-6zm0,-10h6v-3h-6zm0,-9h6v-7h-6zm0,-16h6v-4h-6zm0,-7h6v-3h-6zm6,147h7v-3h-7zm0,-12h7v-4h-7zm0,-10h7v-54h-7zm0,-58h7v-9h-7zm0,-28h7v-4h-7zm0,-7h7v-6h-7zm0,-19h7v-3h-7zm0,-6h7v-4h-7zm0,-13h7v-3h-7zm7,150h7v-3h-7zm0,-6h7v-3h-7zm0,-7h7v-3h-7zm0,-6h7v-67h-7zm0,-70h7v-4h-7zm0,-7h7v-9h-7zm0,-16h7v-3h-7zm0,-25h7v-7h-7zm0,-16h7v-4h-7zm0,-48h7v-4h-7zm0,-16h7v-4h-7zm0,-29h7v-3h-7zm7,240h7v-3h-7zm0,-10h7v-70h-7zm0,-73h7v-7h-7zm0,-29h7v-3h-7zm7,128h7v-3h-7zm0,-29h7v-58h-7zm0,-61h7v-9h-7zm0,-16h7v-3h-7zm0,-6h7v-3h-7zm0,-7h7v-3h-7zm0,-44h7v-4h-7zm7,137h8v-57h-8zm0,-61h8v-16h-8zm0,-19h8v-3h-8zm0,-6h8v-7h-8zm0,-16h8v-3h-8zm0,-10h8v-3h-8zm8,109h7v-54h-7zm0,-61h7v-19h-7zm0,-51h7v-3h-7zm0,-61h7v-3h-7zm7,179h8v-3h-8zm0,-9h8v-61h-8zm0,-64h8v-3h-8zm0,-10h8v-3h-8zm0,-9h8v-4h-8zm0,-32h8v-4h-8zm0,-13h8v-3h-8zm8,141h9v-55h-9zm0,-58h9v-6h-9zm0,-19h9v-3h-9zm0,-10h9v-6h-9zm0,-64h9v-3h-9zm9,160h8v-6h-8zm0,-19h8v-3h-8zm0,-6h8v-45h-8zm0,-48h8v-7h-8zm0,-16h8v-4h-8zm0,-13h8v-7h-8zm8,99h9v-6h-9zm0,-22h9v-32h-9zm0,-36h9v-6h-9zm0,-9h9v-7h-9zm0,-13h9v-3h-9zm0,-29h9v-3h-9zm0,-54h9v-3h-9zm9,153h9v-3h-9zm0,-16h9v-41h-9zm0,-60h9v-4h-9zm9,76h9v-3h-9zm0,-9h9v-48h-9zm0,-51h9v-10h-9zm0,-29h9v-3h-9zm0,-10h9v-3h-9zm0,-99h9v-3h-9zm9,192h9v-48h-9zm0,-51h9v-7h-9zm0,-10h9v-3h-9zm0,-45h9v-3h-9zm9,103h10v-32h-10zm0,-35h10v-4h-10zm0,-7h10v-6h-10zm0,-35h10v-3h-10zm0,-13h10v-3h-10zm10,96h10v-3h-10zm0,-9h10v-42h-10zm0,-48h10v-4h-10zm0,-7h10v-6h-10zm0,-13h10v-9h-10zm0,-28h10v-4h-10zm0,-7h10v-3h-10zm0,-96h10v-3h-10zm0,-105h10v-4h-10zm10,307h10v-39h-10zm0,-45h10v-6h-10zm0,-10h10v-3h-10zm0,-12h10v-4h-10zm10,64h11v-39h-11zm0,-90h11v-3h-11zm0,-10h11v-3h-11zm11,116h10v-4h-10zm0,-16h10v-23h-10zm0,-26h10v-10h-10zm0,-22h10v-4h-10zm0,-84h10v-3h-10zm10,151h12v-3h-12zm0,-23h12v-28h-12zm0,-32h12v-6h-12zm0,-9h12v-3h-12zm0,-19h12v-4h-12zm0,-10h12v-3h-12zm0,-45h12v-3h-12zm12,135h11v-7h-11zm0,-16h11v-39h-11zm0,-42h11v-6h-11zm0,-45h11v-3h-11zm11,93h12v-3h-12zm0,-6h12v-23h-12zm0,-26h12v-6h-12zm12,29h12v-3h-12zm0,-7h12v-25h-12zm0,-41h12v-7h-12zm12,41h13v-16h-13zm0,-19h13v-3h-13zm0,-6h13v-7h-13zm13,45h13v-4h-13zm0,-20h13v-3h-13zm0,-6h13v-13h-13zm0,-16h13v-3h-13zm0,-6h13v-10h-13zm13,32h13v-4h-13zm0,-7h13v-3h-13zm0,-6h13v-10h-13zm0,-19h13v-7h-13zm0,-10h13v-3h-13zm0,-13h13v-3h-13zm0,-195h13v-3h-13zm13,246h14v-3h-14zm0,-6h14v-22h-14zm14,6h14v-22h-14zm0,-67h14v-3h-14zm14,67h14v-22h-14zm0,-51h14v-3h-14zm14,48h15v-9h-15zm0,-13h15v-9h-15zm0,-32h15v-3h-15zm15,48h15v-12h-15zm0,-16h15v-9h-15zm0,-12h15v-4h-15zm15,25h16v-13h-16zm0,-29h16v-3h-16zm0,-9h16v-3h-16zm16,54h16v-3h-16zm0,-16h16v-6h-16zm0,-9h16v-4h-16zm0,-13h16v-3h-16zm0,-10h16v-3h-16zm16,29h17v-10h-17zm0,-58h17v-3h-17zm0,-32h17v-3h-17zm0,-57h17v-3h-17zm17,147h17v-10h-17zm0,-13h17v-3h-17zm0,-9h17v-7h-17zm17,32h18v-4h-18zm0,-7h18v-9h-18zm0,-13h18v-3h-18zm18,16h18v-12h-18zm0,-16h18v-3h-18zm0,-12h18v-4h-18zm0,-7h18v-3h-18zm0,-32h18v-3h-18zm18,80h19v-3h-19zm0,-13h19v-3h-19zm0,-9h19v-13h-19zm19,6h19v-13h-19zm19,7h20v-4h-20zm0,-7h20v-13h-20zm20,-3h20v-3h-20zm0,-6h20v-4h-20zm20,12h21v-6h-21zm21,-3h22v-3h-22zm22,-9h22v-4h-22zm22,12h23v-6h-23zm0,-48h23v-3h-23zm23,48h23v-3h-23zm0,-96h23v-3h-23zm47,100h25v-4h-25zm25,-4h26v-3h-26zm26,0h26v-3h-26zm0,-19h26v-3h-26zm26,13h27v-3h-27z"></path>
     <path fill="rgb(22,82,205)" d="M1,566h1v-3h-1zm4,-3h1v-3h-1zm2,3h1v-3h-1zm2,-6h1v-3h-1zm2,-3h1v-3h-1zh1v-3h-1zm1,0h1v-3h-1zh1v-3h-1zm1,0h1v-3h-1zm0,6h1v-3h-1zm1,-9h1v-4h-1zh1v-4h-1zm1,0h1v-4h-1zh1v-4h-1zm2,6h1v-3h-1zm0,-10h1v-3h-1zm1,0h1v-3h-1zm2,-3h1v-3h-1zh1v-3h-1zm1,10h1v-3h-1zm2,-13h1v-3h-1zh1v-3h-1zm1,10h1v-4h-1zm2,-13h1v-3h-1zh1v-3h-1zm1,9h1v-3h-1zm1,0h1v-3h-1zm0,-12h1v-4h-1zm1,0h1v-4h-1zm1,0h1v-4h-1zm1,9h1v-3h-1zm0,-13h1v-3h-1zm1,0h1v-3h-1zm1,0h1v-6h-1zm1,10h1v-3h-1zm0,-13h1v-3h-1zm1,13h1v-3h-1zm0,-13h1v-6h-1zm1,0h1v-6h-1zm1,10h2v-3h-2zm0,-13h2v-3h-2zm2,13h1v-3h-1zm0,-13h1v-6h-1zm1,0h1v-6h-1zm1,10h1v-4h-1zm0,-13h1v-3h-1zm1,13h2v-4h-2zm0,-13h2v-3h-2zm2,0h1v-3h-1zm1,9h1v-3h-1zm0,-9h1v-7h-1zm1,9h2v-3h-2zm0,-12h2v-4h-2zm2,12h1v-3h-1zm0,-12h1v-4h-1zm1,9h2v-3h-2zm0,-9h2v-4h-2zm2,9h1v-3h-1zm0,-9h1v-7h-1zm1,9h2v-3h-2zm0,-9h2v-7h-2zm2,6h2v-3h-2zm0,-6h2v-7h-2zm2,6h1v-3h-1zm0,-6h1v-7h-1zm1,6h2v-13h-2zm2,-3h2v-10h-2zm2,0h2v-13h-2zm2,0h2v-13h-2zm2,-3h2v-10h-2zm2,0h2v-10h-2zm2,0h2v-10h-2zm2,-4h2v-6h-2zm2,0h2v-6h-2zm2,0h2v-3h-2z"></path>
     <path fill="rgb(16,100,220)" d="M1,566h1v-3h-1zm5,-3h1v-3h-1zm1,3h1v-3h-1zm3,-6h1v-3h-1zm3,3h1v-3h-1zm0,-6h1v-3h-1zm3,-3h1v-4h-1zh1v-4h-1zm1,6h1v-3h-1zm1,-10h1v-3h-1zm2,7h1v-3h-1zm1,-10h1v-3h-1zm1,0h1v-3h-1zm2,-3h1v-3h-1zm1,0h1v-3h-1zm2,-3h1v-3h-1zm3,6h1v-3h-1zm1,-9h1v-4h-1zm2,6h1v-3h-1zm1,-10h1v-3h-1zm2,7h1v-3h-1zm1,-10h2v-3h-2zm2,0h1v-3h-1zm1,7h1v-4h-1zm1,-10h1v-3h-1zm1,0h2v-3h-2zm2,6h1v-3h-1zm0,-6h1v-3h-1zm1,0h1v-3h-1zm1,3h2v-9h-2zm2,0h1v-9h-1zm1,-3h2v-6h-2zm2,0h1v-6h-1zm1,0h2v-6h-2zm2,-3h2v-3h-2zm2,0h1v-3h-1z"></path>
     <path fill="rgb(18,114,217)" d="M6,563h1v-3h-1zm4,-3h1v-3h-1zm4,-3h1v-3h-1zm3,-3h1v-4h-1zm2,-4h1v-3h-1zm1,7h1v-3h-1zm3,-10h1v-3h-1zm0,7h1v-4h-1zm3,-10h1v-3h-1zm0,6h1v-3h-1zm2,-9h1v-3h-1zm1,6h1v-3h-1zm3,-9h1v-4h-1zm3,3h1v-3h-1zm0,-7h1v-3h-1zm1,0h1v-3h-1zm1,0h2v-3h-2zm2,4h1v-4h-1zm1,-7h1v-3h-1zm1,3h1v-6h-1zm1,0h2v-6h-2zm2,-3h1v-3h-1zm1,0h1v-3h-1z"></path>
     <path fill="rgb(20,129,214)" d="M1,566h1v-3h-1zm6,0h1v-3h-1zm5,-3h1v-3h-1zm4,-3h1v-3h-1zm4,-10h1v-3h-1zm6,-6h1v-3h-1zm3,-3h1v-3h-1zm1,0h1v-3h-1zm2,3h1v-3h-1zm1,-6h1v-4h-1zm1,3h1v-7h-1zm1,-3h1v-4h-1zm1,0h1v-4h-1zm1,0h2v-4h-2zm2,-4h1v-3h-1zm1,0h1v-3h-1z"></path>
     <path fill="rgb(14,143,209)" d="M1,566h1v-3h-1zm1,0h1v-3h-1zm4,-3h1v-3h-1zm5,-3h1v-3h-1zm3,-3h1v-3h-1zm3,-3h1v-4h-1zm3,-4h1v-3h-1zm3,4h1v-4h-1zm0,-7h1v-3h-1zm3,3h1v-3h-1zm2,-3h1v-3h-1zm3,-3h1v-6h-1zm1,-3h1v-3h-1zm1,0h1v-3h-1z"></path>
     <path fill="rgb(9,157,204)" d="M2,566h1v-3h-1zm5,0h1v-3h-1zm5,-3h1v-3h-1zm7,-6h1v-3h-1zm5,-10h1v-3h-1zm3,-3h1v-3h-1zm3,0h1v-3h-1z"></path>
     <path fill="rgb(13,167,195)" d="M2,566h1v-3h-1zm13,-9h1v-3h-1zm1,3h1v-3h-1zm2,-6h1v-4h-1zm3,-4h1v-3h-1zm4,0h1v-6h-1zm2,-3h1v-3h-1zm1,-3h1v-3h-1zm1,0h1v-3h-1z"></path>
     <path fill="rgb(30,175,179)" d="M6,563h1v-3h-1zm5,-3h1v-3h-1zm11,-6h1v-4h-1zm4,-7h1v-3h-1zh1v-3h-1z"></path>
     <path fill="rgb(46,183,164)" d="M2,566h1v-3h-1zh1v-3h-1zh1v-3h-1zh1v-3h-1zm4,0h1v-3h-1zm12,-9h1v-7h-1zm4,-7h1v-3h-1zm2,0h1v-3h-1z"></path>
     <path fill="rgb(82,186,146)" d="M3,566h1v-3h-1zm8,-3h1v-3h-1zm4,-3h1v-6h-1zm6,-6h1v-4h-1zm2,-4h1v-3h-1zh1v-3h-1z"></path>
     <path fill="rgb(116,189,129)" d="M3,566h1v-3h-1zh1v-3h-1zh1v-3h-1zm4,-3h1v-3h-1zm4,-3h1v-3h-1zm8,-6h1v-4h-1z"></path>
     <path fill="rgb(149,190,113)" d="M3,566h1v-3h-1zm1,0h1v-3h-1zm2,0h1v-3h-1zm12,-9h1v-3h-1zm2,-3h1v-4h-1zh1v-4h-1z"></path>
     <path fill="rgb(179,189,101)" d="M4,566h1v-3h-1zh1v-3h-1zm2,0h1v-3h-1zm5,-3h1v-3h-1zm5,-6h1v-3h-1z"></path>
     <path fill="rgb(209,187,89)" d="M4,566h1v-3h-1zh1v-3h-1zm1,0h1v-3h-1zm1,0h1v-3h-1zm1,-3h1v-3h-1zm5,-3h1v-3h-1zm3,0h1v-3h-1zm2,-3h1v-3h-1z"></path>
     <path fill="rgb(226,192,75)" d="M5,566h1v-3h-1zh1v-3h-1zh1v-3h-1zm11,-9h1v-3h-1zm1,0h1v-3h-1z"></path>
     <path fill="rgb(244,198,59)" d="M7,563h1v-3h-1zm4,0h1v-3h-1zm3,-3h1v-3h-1z"></path>
     <path fill="rgb(253,210,43)" d="M7,563h1v-3h-1zm5,-3h1v-3h-1z"></path>
     <path fill="rgb(251,230,29)" d="M8,563h1v-3h-1zm2,0h1v-3h-1zm3,-3h1v-3h-1zm1,0h1v-3h-1z"></path>
     <path fill="rgb(249,249,15)" d="M8,563h1v-3h-1zh1v-3h-1zm1,0h1v-3h-1zh1v-3h-1zh1v-3h-1zm1,0h1v-3h-1zm3,-3h1v-3h-1z"></path>
    </g>
   </g>
   <g>
    <g transform="translate(0,640)">
     <path d="M0,0h960" style="stroke: black; stroke-width: 1;"></path>
     <path d="M29,-12v12m32,-12v12m32,-12v12m32,-12v12m32,-24v24m32,-12v12m33,-12v12m32,-12v12m32,-12v12m32,-24v24m32,-12v12m32,-12v12m32,-12v12m32,-12v12m32,-24v24m33,-12v12m32,-12v12m32,-12v12m32,-12v12m32,-24v24m32,-12v12m32,-12v12m32,-12v12m32,-12v12m32,-24v24m33,-12v12m32,-12v12m32,-12v12m32,-12v12" style="stroke: black; stroke-width: 1;"></path>
     <g font-family="Arial" font-size="28" space="preserve">
      <text fill="black" text-anchor="middle" dy=".8em" transform="translate(157,6)">
       5
      </text>
      <text fill="black" text-anchor="middle" dy=".8em" transform="translate(318,6)">
       10
      </text>
      <text fill="black" text-anchor="middle" dy=".8em" transform="translate(478,6)">
       15
      </text>
      <text fill="black" text-anchor="middle" dy=".8em" transform="translate(639,6)">
       20
      </text>
      <text fill="black" text-anchor="middle" dy=".8em" transform="translate(799,6)">
       25
      </text>
     </g>
     <g font-family="Arial" font-size="28" space="preserve" transform="translate(480,45)">
      <text fill="black" text-anchor="middle" dy=".4em">
       p [GeV]
      </text>
     </g>
    </g>
    <g>
     <path d="M0,0v640" style="stroke: black; stroke-width: 1;"></path>
     <path d="M36,640h-36m18,-16h-18m18,-16h-18m18,-16h-18m36,-16h-36m18,-16h-18m18,-16h-18m18,-16h-18m36,-16h-36m18,-16h-18m18,-16h-18m18,-16h-18m36,-16h-36m18,-16h-18m18,-16h-18m18,-16h-18m36,-16h-36m18,-16h-18m18,-16h-18m18,-16h-18m36,-16h-36m18,-16h-18m18,-16h-18m18,-16h-18m36,-16h-36m18,-16h-18m18,-16h-18m18,-16h-18m36,-16h-36m18,-16h-18m18,-16h-18m18,-16h-18m36,-16h-36m18,-16h-18m18,-16h-18m18,-16h-18m36,-16h-36m18,-16h-18m18,-16h-18m18,-16h-18m36,-16h-36" style="stroke: black; stroke-width: 1;"></path>
     <g font-family="Arial" font-size="28" space="preserve">
      <text fill="black" text-anchor="end" dy=".4em" transform="translate(-4,640)">
       -10
      </text>
      <text fill="black" text-anchor="end" dy=".4em" transform="translate(-4,576)">
       -8
      </text>
      <text fill="black" text-anchor="end" dy=".4em" transform="translate(-4,512)">
       -6
      </text>
      <text fill="black" text-anchor="end" dy=".4em" transform="translate(-4,448)">
       -4
      </text>
      <text fill="black" text-anchor="end" dy=".4em" transform="translate(-4,384)">
       -2
      </text>
      <text fill="black" text-anchor="end" dy=".4em" transform="translate(-4,320)">
       0
      </text>
      <text fill="black" text-anchor="end" dy=".4em" transform="translate(-4,256)">
       2
      </text>
      <text fill="black" text-anchor="end" dy=".4em" transform="translate(-4,192)">
       4
      </text>
      <text fill="black" text-anchor="end" dy=".4em" transform="translate(-4,128)">
       6
      </text>
      <text fill="black" text-anchor="end" dy=".4em" transform="translate(-4,64)">
       8
      </text>
      <text fill="black" text-anchor="end" dy=".4em" transform="translate(-4)">
       10
      </text>
     </g>
     <g font-family="Arial" font-size="28" space="preserve" transform="translate(-67,320)">
      <g transform=" rotate(270) translate(-20,10)">
       <text fill="black" font-size="28">
        nσ
       </text>
      </g>
     </g>
    </g>
   </g>
  </g>
  <g transform="translate(120,4)" font-family="Arial" font-size="40" space="preserve">
   <path d="M0,0H960V53H0Z" style="fill: none;"></path>
   <g transform="translate(272,42)">
    <text fill="black" font-size="44">
     ITS nσ helium-3 vs. p
    </text>
   </g>
  </g>
  <g transform="translate(936,52)" font-family="Arial" font-size="16" space="preserve">
   <path d="M0,0H240V212H0Z" style="fill: white; stroke: black; stroke-width: 1;"></path>
   <text fill="black" text-anchor="middle" dy=".4em" transform="translate(120,18)">
    hNsigmaP_ITS_helium-3
   </text>
   <text fill="black" text-anchor="start" dy=".4em" transform="translate(12,53)">
    Entries
   </text>
   <text fill="black" text-anchor="end" dy=".4em" transform="translate(228,53)">
    19555970
   </text>
   <text fill="black" text-anchor="start" dy=".4em" transform="translate(12,88)">
    Mean x
   </text>
   <text fill="black" text-anchor="end" dy=".4em" transform="translate(228,88)">
    0.8333
   </text>
   <text fill="black" text-anchor="start" dy=".4em" transform="translate(12,124)">
    Mean y
   </text>
   <text fill="black" text-anchor="end" dy=".4em" transform="translate(228,124)">
    -7.140
   </text>
   <text fill="black" text-anchor="start" dy=".4em" transform="translate(12,159)">
    Std Dev x
   </text>
   <text fill="black" text-anchor="end" dy=".4em" transform="translate(228,159)">
    0.7610
   </text>
   <text fill="black" text-anchor="start" dy=".4em" transform="translate(12,194)">
    Std Dev y
   </text>
   <text fill="black" text-anchor="end" dy=".4em" transform="translate(228,194)">
    0.5485
   </text>
   <path d="M0,35h240" style="stroke: black; stroke-width: 1;"></path>
  </g>
 </g>
</svg>