<svg xmlns="http://www.w3.org/2000/svg" viewBox="0 0 1200 800" preserveAspectRatio="none" width="1200" height="800">
 <title>
  ROOT canvas
 </title>
 <path d="M0,0H1200V800H0Z" style="fill: white;"></path>
 <g>
  <svg viewBox="0 0 1176 384" preserveAspectRatio="none" x="12" y="8" width="1176" height="384">
   <path d="M0,0H1176V384H0Z" style="fill: white;"></path>
   <g>
    <g transform="translate(118,38)">
     <title></title>
     <path d="M0,0H941V307H0Z" style="fill: white; stroke: black; stroke-width: 1;"></path>
     <svg x="0" y="0" overflow="hidden" width="941" height="307" viewBox="0 0 941 307">
      <g>
       <path fill="rgb(38,62,168)" d="M24,123h23v15h-23zm0,31h23v7h-23zM47,100h24v7h-24zm0,15h24v23h-24zm0,39h24v7h-24zm0,69h24v7h-24zM71,84h23v8h-23zm0,77h23v54h-23zM94,77h24v7h-24zm0,30h24v31h-24zm0,39h24v8h-24zm0,15h24v8h-24zm0,16h24v7h-24zm0,23h24v7h-24zM118,38h23v8h-23zm0,54h23v8h-23zm0,15h23v62h-23zm0,70h23v23h-23zm0,30h23v8h-23zm0,16h23v7h-23zm0,15h23v8h-23zm0,54h23v7h-23zM141,69h24v8h-24zm0,15h24v139h-24zm0,146h24v16h-24zM165,46h23v8h-23zm0,15h23v23h-23zm0,31h23v154h-23zM188,38h24v8h-24zm0,23h24v8h-24zm0,23h24v39h-24zm0,62h24v8h-24zm0,31h24v7h-24zm0,15h24v38h-24zM212,46h23v8h-23zm0,23h23v38h-23zm0,131h23v7h-23zm0,15h23v23h-23zm0,31h23v7h-23zM235,31h24v7h-24zm0,30h24v31h-24zm0,154h24v31h-24zm0,38h24v23h-24zM259,46h23v8h-23zm0,15h23v31h-23zm0,154h23v46h-23zM282,46h24v31h-24zm0,184h24v23h-24zm0,31h24v15h-24zM306,0h23v8h-23zm0,23h23v8h-23zm0,15h23v46h-23zm0,200h23v38h-23zM329,8h24v15h-24zm0,30h24v23h-24zm0,200h24v15h-24zm0,23h24v8h-24zm0,23h24v8h-24zM353,38h23v39h-23zm0,200h23v46h-23zM376,38h24v31h-24zm0,192h24v8h-24zm0,16h24v15h-24zm0,38h24v8h-24zM400,23h23v8h-23zm0,15h23v31h-23zm0,208h23v23h-23zm0,30h23v8h-23zM423,15h24v16h-24zm0,23h24v23h-24zm0,215h24v16h-24zM447,0h24v8h-24zm0,15h24v8h-24zm0,16h24v23h-24zm0,30h24v8h-24zm0,185h24v15h-24zm0,23h24v7h-24zm0,15h24v8h-24zM471,15h23v23h-23zm0,31h23v15h-23zm0,207h23v16h-23zM494,23h24v46h-24zm0,215h24v15h-24zm0,23h24v15h-24zM518,23h23v8h-23zm0,15h23v23h-23zm0,208h23v23h-23zM541,31h24v15h-24zm0,23h24v15h-24zm0,184h24v23h-24zM565,31h23v7h-23zm0,15h23v31h-23zm0,184h23v39h-23zm0,46h23v8h-23zM588,23h24v54h-24zm0,207h24v54h-24zM612,23h23v54h-23zm0,200h23v7h-23zm0,15h23v31h-23zM635,54h24v30h-24zm0,161h24v46h-24zM659,46h23v38h-23zm0,177h23v30h-23zm0,46h23v7h-23zm0,15h23v8h-23zM682,38h24v16h-24zm0,23h24v39h-24zm0,154h24v23h-24zm0,31h24v23h-24zM706,15h23v8h-23zm0,46h23v31h-23zm0,39h23v15h-23zm0,54h23v7h-23zm0,46h23v30h-23zm0,38h23v15h-23zM729,54h24v7h-24zm0,15h24v31h-24zm0,54h24v23h-24zm0,54h24v53h-24zm0,76h24v8h-24zM753,46h23v8h-23zm0,15h23v162h-23zm0,177h23v8h-23zM776,69h24v38h-24zm0,46h24v92h-24zm0,100h24v8h-24zM800,107h23v16h-23zm0,23h23v85h-23zm23,-30h24v7h-24zm0,23h24v7h-24zm0,15h24v39h-24zm0,46h24v16h-24zm24,-77h23v8h-23zm0,16h23v61h-23zm0,69h23v8h-23zm0,15h23v8h-23zm0,31h23v8h-23zM870,123h24v15h-24zm0,23h24v8h-24zm0,23h24v15h-24zm0,23h24v8h-24zm24,-46h23v15h-23z"></path>
       <path fill="rgb(22,82,205)" d="M188,123h24v15h-24zm0,31h24v23h-24zm0,30h24v8h-24zm24,-77h23v23h-23zm0,31h23v16h-23zm0,23h23v8h-23zm0,16h23v23h-23zm0,30h23v8h-23zM235,92h24v23h-24zm0,31h24v7h-24zm0,61h24v8h-24zm0,16h24v15h-24zM259,92h23v15h-23zm0,108h23v15h-23zM282,77h24v23h-24zm0,130h24v23h-24zM306,84h23v16h-23zm0,123h23v31h-23zM329,61h24v23h-24zm0,162h24v15h-24zM353,77h23v7h-23zm0,146h23v15h-23zM376,69h24v15h-24zm0,169h24v8h-24zM400,69h23v8h-23zm0,161h23v16h-23zM423,61h24v16h-24zm0,177h24v15h-24zM447,54h24v7h-24zm0,15h24v8h-24zm0,169h24v8h-24zM471,61h23v8h-23zm0,177h23v15h-23zM518,61h23v16h-23zm0,169h23v16h-23zM541,69h24v8h-24zm0,161h24v8h-24zM588,77h24v7h-24zm0,146h24v7h-24zM612,77h23v23h-23zm0,153h23v8h-23zM635,84h24v8h-24zm0,123h24v8h-24zM659,84h23v23h-23zm0,108h23v31h-23zm23,-92h24v23h-24zm0,30h24v16h-24zm0,62h24v23h-24zM706,92h23v8h-23zm0,23h23v8h-23zm0,23h23v16h-23zm0,31h23v8h-23zm0,15h23v16h-23zm23,-77h24v16h-24zm0,39h24v31h-24z"></path>
       <path fill="rgb(16,100,220)" d="M188,138h24v8h-24zm24,-8h23v8h-23zm0,24h23v7h-23zm0,15h23v8h-23zm23,-54h24v8h-24zm0,23h24v46h-24zm0,54h24v8h-24zm24,-85h23v31h-23zm0,54h23v16h-23zm0,23h23v16h-23zm23,-84h24v7h-24zm0,100h24v7h-24zM329,84h24v8h-24zm0,123h24v8h-24zm24,8h23v8h-23zm23,8h24v7h-24zM400,77h23v7h-23zm23,0h24v7h-24zm0,146h24v15h-24zM447,77h24v7h-24zm0,146h24v15h-24zM471,69h23v15h-23zm0,161h23v8h-23zM494,69h24v15h-24zm0,161h24v8h-24zM518,77h23v7h-23zm0,146h23v7h-23zM541,77h24v7h-24zm0,146h24v7h-24zM565,77h23v15h-23zm0,146h23v7h-23zM588,84h24v8h-24zm0,123h24v16h-24zm24,8h23v8h-23zM635,92h24v8h-24zm0,100h24v15h-24zm24,-85h23v8h-23zm0,77h23v8h-23zm23,-61h24v7h-24zm0,23h24v8h-24zm0,15h24v8h-24zm0,16h24v15h-24zm24,-54h23v15h-23zm0,38h23v8h-23zm0,16h23v7h-23z"></path>
       <path fill="rgb(18,114,217)" d="M235,130h24v8h-24zm24,16h23v15h-23zm23,-31h24v8h-24zm0,77h24v8h-24zm24,-92h23v15h-23zm0,100h23v7h-23zM329,92h24v8h-24zm0,123h24v8h-24zM353,84h23v16h-23zm0,116h23v15h-23zM376,84h24v16h-24zm0,131h24v8h-24zM400,84h23v8h-23zm0,139h23v7h-23zM423,84h24v8h-24zm24,131h24v8h-24zm24,8h23v7h-23zm23,-8h24v15h-24zM518,84h23v8h-23zm23,0h24v16h-24zm0,131h24v8h-24zM565,92h23v8h-23zm0,123h23v8h-23zM588,92h24v8h-24zm24,8h23v7h-23zm0,92h23v23h-23zm23,-92h24v23h-24zm0,84h24v8h-24zm24,-69h23v15h-23zm0,31h23v8h-23zm0,15h23v23h-23zm23,-7h24v7h-24zm0,15h24v8h-24z"></path>
       <path fill="rgb(20,129,214)" d="M259,138h23v8h-23zm0,39h23v7h-23zm23,-70h24v8h-24zm0,16h24v7h-24zm0,54h24v15h-24zm24,-62h23v8h-23zm0,69h23v16h-23zm23,-84h24v7h-24zm0,100h24v7h-24zm47,7h24v8h-24zm24,8h23v8h-23zm23,0h24v8h-24zM447,84h24v8h-24zm24,0h23v8h-23zm0,131h23v8h-23zM494,84h24v8h-24zm0,123h24v8h-24zm24,8h23v8h-23zm23,-8h24v8h-24zM588,100h24v15h-24zm0,84h24v23h-24zm24,-77h23v8h-23zm0,77h23v8h-23zm23,-61h24v7h-24zm24,7h23v16h-23zm0,24h23v7h-23z"></path>
       <path fill="rgb(14,143,209)" d="M282,130h24v39h-24zm24,-7h23v7h-23zm0,23h23v8h-23zm0,31h23v7h-23zm23,0h24v15h-24zm24,15h23v8h-23zm23,0h24v8h-24zm24,-92h23v7h-23zm0,100h23v15h-23zM423,92h24v8h-24zm0,115h24v8h-24zM447,92h24v8h-24zm0,115h24v8h-24zM471,92h23v8h-23zm47,0h23v8h-23zm23,108h24v7h-24zM565,100h23v15h-23zm0,92h23v23h-23zm47,-69h23v7h-23zm0,46h23v15h-23zm23,-39h24v8h-24zm0,16h24v38h-24z"></path>
       <path fill="rgb(9,157,204)" d="M282,169h24v8h-24zm47,-62h24v23h-24zm0,85h24v8h-24zm24,-92h23v15h-23zm23,0h24v7h-24zm0,100h24v7h-24zM400,92h23v8h-23zm23,8h24v7h-24zm71,-8h24v8h-24zm0,108h24v7h-24zM518,100h23v7h-23zm0,100h23v15h-23zm23,-93h24v8h-24zm24,8h23v8h-23zm23,0h24v15h-24zm24,0h23v8h-23zm0,15h23v16h-23zm23,8h24v8h-24z"></path>
       <path fill="rgb(13,167,195)" d="M306,130h23v8h-23zm0,24h23v23h-23zm23,-8h24v8h-24zm24,-31h23v8h-23zm47,-8h23v8h-23zm23,93h24v7h-24zm24,0h24v7h-24zM471,100h23v7h-23zm0,107h23v8h-23zM518,107h23v8h-23zm23,-7h24v7h-24zm24,84h23v8h-23zm23,-46h24v8h-24zm0,39h24v7h-24zm24,-23h23v15h-23z"></path>
       <path fill="rgb(30,175,179)" d="M306,138h23v8h-23zm23,-8h24v16h-24zm0,39h24v8h-24zm24,-46h23v7h-23zm23,-16h24v8h-24zm0,77h24v8h-24zm24,8h23v8h-23zm23,-85h24v8h-24zm24,0h24v8h-24zm24,85h23v15h-23zm23,-92h24v7h-24zm0,92h24v8h-24zm24,-8h23v16h-23zm23,0h24v16h-24zm24,-7h23v7h-23zm23,-47h24v8h-24zm0,16h24v8h-24zm24,0h23v8h-23z"></path>
       <path fill="rgb(46,183,164)" d="M329,154h24v15h-24zm24,-24h23v8h-23zm0,47h23v15h-23zm23,-62h24v8h-24zm47,77h24v8h-24zm24,-92h24v7h-24zm47,7h24v8h-24zm0,77h24v8h-24zm24,-69h23v8h-23zm23,0h24v8h-24zm24,8h23v15h-23zm23,31h24v23h-24z"></path>
       <path fill="rgb(82,186,146)" d="M353,138h23v8h-23zm23,39h24v7h-24zm24,-62h23v15h-23zm0,69h23v8h-23zM518,123h23v7h-23zm23,54h24v7h-24zm24,-39h23v23h-23zm0,31h23v8h-23z"></path>
       <path fill="rgb(116,189,129)" d="M353,169h23v8h-23zm23,-46h24v7h-24zm0,23h24v15h-24zm0,23h24v8h-24zm47,8h24v7h-24zm24,-62h24v8h-24zm0,69h24v16h-24zm24,-77h23v8h-23zm0,70h23v15h-23zm23,-62h24v8h-24zm47,8h24v15h-24zm24,38h23v8h-23z"></path>
       <path fill="rgb(149,190,113)" d="M353,154h23v15h-23zm23,7h24v8h-24zm24,-31h23v8h-23zm23,-15h24v15h-24zm0,69h24v8h-24zm24,-61h24v7h-24zm24,-8h23v8h-23zm47,54h23v15h-23zm23,-31h24v8h-24zm0,31h24v8h-24z"></path>
       <path fill="rgb(179,189,101)" d="M353,146h23v8h-23zm23,-16h24v16h-24zm24,39h23v15h-23zm23,-39h24v8h-24zm0,39h24v8h-24zm24,8h24v7h-24zm24,-47h23v8h-23zm0,39h23v8h-23zm23,-46h24v7h-24zm0,31h24v7h-24zm0,23h24v7h-24zm24,-47h23v8h-23zm23,16h24v23h-24z"></path>
       <path fill="rgb(209,187,89)" d="M400,138h23v8h-23zm0,16h23v15h-23zm23,-16h24v16h-24zm48,-15h23v7h-23zm47,31h23v7h-23z"></path>
       <path fill="rgb(226,192,75)" d="M400,146h23v8h-23zm47,15h24v16h-24zm47,-31h24v8h-24zm24,31h23v8h-23z"></path>
       <path fill="rgb(244,198,59)" d="M447,146h24v8h-24zm24,-8h23v8h-23zm23,8h24v8h-24zm0,15h24v8h-24zm24,-15h23v8h-23z"></path>
       <path fill="rgb(253,210,43)" d="M423,161h24v8h-24zm24,-31h24v16h-24zm0,24h24v7h-24zm24,-8h23v8h-23zm0,15h23v8h-23zm23,-23h24v8h-24zm0,31h24v8h-24zm24,-31h23v8h-23z"></path>
       <path fill="rgb(251,230,29)" d="M423,154h24v7h-24z"></path>
       <path fill="rgb(249,249,15)" d="M471,154h23v7h-23z"></path>
      </g>
     </svg>
     <g>
      <g transform="translate(0,307)">
       <path d="M0,0h941" style="stroke: black; stroke-width: 1;"></path>
       <path d="M0,-12v12m24,-6v6m23,-6v6m24,-6v6m23,-6v6m24,-12v12m23,-6v6m24,-6v6m23,-6v6m24,-6v6m23,-12v12m24,-6v6m23,-6v6m24,-6v6m23,-6v6m24,-12v12m23,-6v6m24,-6v6m23,-6v6m24,-6v6m24,-12v12m23,-6v6m24,-6v6m23,-6v6m24,-6v6m23,-12v12m24,-6v6m23,-6v6m24,-6v6m23,-6v6m24,-12v12m23,-6v6m24,-6v6m23,-6v6m24,-6v6m23,-12v12m24,-6v6m23,-6v6m24,-6v6m23,-6v6m24,-12v12" style="stroke: black; stroke-width: 1;"></path>
       <g font-family="Arial" font-size="13" space="preserve">
        <text fill="black" text-anchor="middle" dy=".8em" transform="translate(0,4)">
         -4
        </text>
        <text fill="black" text-anchor="middle" dy=".8em" transform="translate(118,4)">
         -3
        </text>
        <text fill="black" text-anchor="middle" dy=".8em" transform="translate(235,4)">
         -2
        </text>
        <text fill="black" text-anchor="middle" dy=".8em" transform="translate(353,4)">
         -1
        </text>
        <text fill="black" text-anchor="middle" dy=".8em" transform="translate(471,4)">
         0
        </text>
        <text fill="black" text-anchor="middle" dy=".8em" transform="translate(588,4)">
         1
        </text>
        <text fill="black" text-anchor="middle" dy=".8em" transform="translate(706,4)">
         2
        </text>
        <text fill="black" text-anchor="middle" dy=".8em" transform="translate(823,4)">
         3
        </text>
        <text fill="black" text-anchor="middle" dy=".8em" transform="translate(941,4)">
         4
        </text>
       </g>
      </g>
      <g>
       <path d="M0,0v307" style="stroke: black; stroke-width: 1;"></path>
       <path d="M35,307h-35m18,-8h-18m18,-7h-18m18,-8h-18m18,-8h-18m35,-7h-35m18,-8h-18m18,-8h-18m18,-7h-18m18,-8h-18m35,-8h-35m18,-7h-18m18,-8h-18m18,-8h-18m18,-7h-18m35,-8h-35m18,-8h-18m18,-7h-18m18,-8h-18m18,-8h-18m35,-7h-35m18,-8h-18m18,-8h-18m18,-8h-18m18,-7h-18m35,-8h-35m18,-8h-18m18,-7h-18m18,-8h-18m18,-8h-18m35,-7h-35m18,-8h-18m18,-8h-18m18,-7h-18m18,-8h-18m35,-8h-35m18,-7h-18m18,-8h-18m18,-8h-18m18,-7h-18m35,-8h-35" style="stroke: black; stroke-width: 1;"></path>
       <g font-family="Arial" font-size="13" space="preserve">
        <text fill="black" text-anchor="end" dy=".4em" transform="translate(-2,307)">
         -20
        </text>
        <text fill="black" text-anchor="end" dy=".4em" transform="translate(-2,269)">
         -15
        </text>
        <text fill="black" text-anchor="end" dy=".4em" transform="translate(-2,230)">
         -10
        </text>
        <text fill="black" text-anchor="end" dy=".4em" transform="translate(-2,192)">
         -5
        </text>
        <text fill="black" text-anchor="end" dy=".4em" transform="translate(-2,154)">
         0
        </text>
        <text fill="black" text-anchor="end" dy=".4em" transform="translate(-2,115)">
         5
        </text>
        <text fill="black" text-anchor="end" dy=".4em" transform="translate(-2,77)">
         10
        </text>
        <text fill="black" text-anchor="end" dy=".4em" transform="translate(-2,38)">
         15
        </text>
        <text fill="black" text-anchor="end" dy=".4em" transform="translate(-2)">
         20
        </text>
       </g>
      </g>
     </g>
    </g>
    <g transform="translate(1064,38)">
     <path d="M0,0H53V307H0Z" style="fill: rgb(249,249,15); stroke: black; stroke-width: 1;"></path>
     <rect x="0" y="292" width="53" height="15" style="fill: rgb(38,62,168); stroke: rgb(38,62,168);"></rect>
     <rect x="0" y="276" width="53" height="16" style="fill: rgb(22,82,205); stroke: rgb(22,82,205);"></rect>
     <rect x="0" y="261" width="53" height="15" style="fill: rgb(16,100,220); stroke: rgb(16,100,220);"></rect>
     <rect x="0" y="246" width="53" height="15" style="fill: rgb(18,114,217); stroke: rgb(18,114,217);"></rect>
     <rect x="0" y="230" width="53" height="16" style="fill: rgb(20,129,214); stroke: rgb(20,129,214);"></rect>
     <rect x="0" y="215" width="53" height="15" style="fill: rgb(14,143,209); stroke: rgb(14,143,209);"></rect>
     <rect x="0" y="200" width="53" height="15" style="fill: rgb(9,157,204); stroke: rgb(9,157,204);"></rect>
     <rect x="0" y="184" width="53" height="16" style="fill: rgb(13,167,195); stroke: rgb(13,167,195);"></rect>
     <rect x="0" y="169" width="53" height="15" style="fill: rgb(30,175,179); stroke: rgb(30,175,179);"></rect>
     <rect x="0" y="154" width="53" height="15" style="fill: rgb(46,183,164); stroke: rgb(46,183,164);"></rect>
     <rect x="0" y="138" width="53" height="16" style="fill: rgb(82,186,146); stroke: rgb(82,186,146);"></rect>
     <rect x="0" y="123" width="53" height="15" style="fill: rgb(116,189,129); stroke: rgb(116,189,129);"></rect>
     <rect x="0" y="107" width="53" height="16" style="fill: rgb(149,190,113); stroke: rgb(149,190,113);"></rect>
     <rect x="0" y="92" width="53" height="15" style="fill: rgb(179,189,101); stroke: rgb(179,189,101);"></rect>
     <rect x="0" y="77" width="53" height="15" style="fill: rgb(209,187,89); stroke: rgb(209,187,89);"></rect>
     <rect x="0" y="61" width="53" height="16" style="fill: rgb(226,192,75); stroke: rgb(226,192,75);"></rect>
     <rect x="0" y="46" width="53" height="15" style="fill: rgb(244,198,59); stroke: rgb(244,198,59);"></rect>
     <rect x="0" y="31" width="53" height="15" style="fill: rgb(253,210,43); stroke: rgb(253,210,43);"></rect>
     <rect x="0" y="15" width="53" height="16" style="fill: rgb(251,230,29); stroke: rgb(251,230,29);"></rect>
     <rect x="0" y="0" width="53" height="15" style="fill: rgb(249,249,15); stroke: rgb(249,249,15);"></rect>
     <g transform="translate(53, 0)">
      <path d="M0,0v307" style="stroke: black; stroke-width: 1;"></path>
      <path d="M0,307h-16m16,-34h-16m16,-33h-16m16,-34h-16m16,-33h-16m16,-34h-16m16,-33h-16m16,-34h-16m16,-33h-16m16,-34h-16" style="stroke: black; stroke-width: 1;"></path>
      <g font-family="Arial" font-size="13" space="preserve">
       <text fill="black" text-anchor="start" dy=".4em" transform="translate(2,307)">
        0
       </text>
       <text fill="black" text-anchor="start" dy=".4em" transform="translate(2,273)">
        20
       </text>
       <text fill="black" text-anchor="start" dy=".4em" transform="translate(2,240)">
        40
       </text>
       <text fill="black" text-anchor="start" dy=".4em" transform="translate(2,206)">
        60
       </text>
       <text fill="black" text-anchor="start" dy=".4em" transform="translate(2,173)">
        80
       </text>
       <text fill="black" text-anchor="start" dy=".4em" transform="translate(2,139)">
        100
       </text>
       <text fill="black" text-anchor="start" dy=".4em" transform="translate(2,106)">
        120
       </text>
       <text fill="black" text-anchor="start" dy=".4em" transform="translate(2,72)">
        140
       </text>
       <text fill="black" text-anchor="start" dy=".4em" transform="translate(2,39)">
        160
       </text>
       <text fill="black" text-anchor="start" dy=".4em" transform="translate(2,5)">
        180
       </text>
      </g>
     </g>
    </g>
    <g transform="translate(489,2)" font-family="Arial" font-size="20" space="preserve">
     <path d="M0,0H199V25H0Z" style="fill: none;"></path>
     <text fill="black" text-anchor="middle" dy=".4em" transform="translate(100,13)">
      Option COLZ
     </text>
    </g>
   </g>
  </svg>
  <svg viewBox="0 0 1176 384" preserveAspectRatio="none" x="12" y="408" width="1176" height="384">
   <path d="M0,0H1176V384H0Z" style="fill: white;"></path>
   <g>
    <g transform="translate(118,38)">
     <title></title>
     <path d="M0,0H941V307H0Z" style="fill: white; stroke: black; stroke-width: 1;"></path>
     <svg x="0" y="0" overflow="hidden" width="941" height="307" viewBox="0 0 941 307">
      <g>
       <path fill="rgb(38,62,168)" d="M24,123h23v15h-23zm0,31h23v7h-23zM47,100h24v7h-24zm0,15h24v23h-24zm0,39h24v7h-24zm0,69h24v7h-24zM71,84h23v8h-23zm0,77h23v54h-23zM94,77h24v7h-24zm0,30h24v31h-24zm0,39h24v8h-24zm0,15h24v8h-24zm0,16h24v7h-24zm0,23h24v7h-24zM118,38h23v8h-23zm0,54h23v8h-23zm0,15h23v62h-23zm0,70h23v23h-23zm0,30h23v8h-23zm0,16h23v7h-23zm0,15h23v8h-23zm0,54h23v7h-23zM141,69h24v8h-24zm0,15h24v139h-24zm0,146h24v16h-24zM165,46h23v8h-23zm0,15h23v23h-23zm0,31h23v154h-23zM188,38h24v8h-24zm0,23h24v8h-24zm0,23h24v146h-24zM212,46h23v8h-23zm0,23h23v169h-23zm0,177h23v7h-23zM235,31h24v7h-24zm0,30h24v185h-24zm0,192h24v23h-24zM259,46h23v8h-23zm0,15h23v116h-23zm0,123h23v77h-23zM282,46h24v84h-24zm0,131h24v7h-24zm0,15h24v61h-24zm0,69h24v15h-24zM306,0h23v8h-23zm0,23h23v8h-23zm0,15h23v77h-23zm0,146h23v92h-23zM329,8h24v15h-24zm0,30h24v62h-24zm0,169h24v46h-24zm0,54h24v8h-24zm0,23h24v8h-24zM353,38h23v62h-23zm0,162h23v84h-23zM376,38h24v62h-24zm0,169h24v54h-24zm0,77h24v8h-24zM400,23h23v8h-23zm0,15h23v54h-23zm0,177h23v54h-23zm0,61h23v8h-23zM423,15h24v16h-24zm0,23h24v54h-24zm0,177h24v54h-24zM447,0h24v8h-24zm0,15h24v8h-24zm0,16h24v53h-24zm0,184h24v46h-24zm0,54h24v7h-24zm0,15h24v8h-24zM471,15h23v23h-23zm0,31h23v46h-23zm0,169h23v54h-23zM494,23h24v69h-24zm0,192h24v38h-24zm0,46h24v15h-24zM518,23h23v8h-23zm0,15h23v54h-23zm0,177h23v54h-23zM541,31h24v15h-24zm0,23h24v46h-24zm0,153h24v54h-24zM565,31h23v7h-23zm0,15h23v54h-23zm0,169h23v54h-23zm0,61h23v8h-23zM588,23h24v92h-24zm0,177h24v84h-24zM612,23h23v92h-23zm0,161h23v85h-23zM635,54h24v76h-24zm0,130h24v77h-24zM659,46h23v92h-23zm0,100h23v107h-23zm0,123h23v7h-23zm0,15h23v8h-23zM682,38h24v16h-24zm0,23h24v177h-24zm0,185h24v23h-24zM706,15h23v8h-23zm0,46h23v169h-23zm0,177h23v15h-23zM729,54h24v7h-24zm0,15h24v31h-24zm0,38h24v123h-24zm0,146h24v8h-24zM753,46h23v8h-23zm0,15h23v162h-23zm0,177h23v8h-23zM776,69h24v38h-24zm0,46h24v92h-24zm0,100h24v8h-24zM800,107h23v16h-23zm0,23h23v85h-23zm23,-30h24v7h-24zm0,23h24v7h-24zm0,15h24v39h-24zm0,46h24v16h-24zm24,-77h23v8h-23zm0,16h23v61h-23zm0,69h23v8h-23zm0,15h23v8h-23zm0,31h23v8h-23zM870,123h24v15h-24zm0,23h24v8h-24zm0,23h24v15h-24zm0,23h24v8h-24zm24,-46h23v15h-23z"></path>
       <path fill="rgb(22,82,205)" d="M259,177h23v7h-23zm23,7h24v8h-24zm24,-69h23v8h-23zm23,-15h24v7h-24zm0,100h24v7h-24zM447,84h24v8h-24zm47,123h24v8h-24zm94,-23h24v16h-24zm71,-46h23v8h-23z"></path>
       <path fill="rgb(16,100,220)" d="M282,130h24v8h-24zm0,24h24v7h-24zm24,-31h23v7h-23zm0,54h23v7h-23zm94,-77h23v7h-23zm0,107h23v8h-23zM447,92h24v8h-24zm118,8h23v7h-23zm0,107h23v8h-23zm47,-30h23v7h-23zm23,-47h24v8h-24zm0,16h24v8h-24zm0,15h24v8h-24zm0,16h24v7h-24z"></path>
       <path fill="rgb(18,114,217)" d="M353,192h23v8h-23zM423,92h24v8h-24zm24,115h24v8h-24zM471,92h23v8h-23zm47,0h23v8h-23zm47,15h23v8h-23zm70,62h24v8h-24z"></path>
       <path fill="rgb(20,129,214)" d="M282,138h24v16h-24zm0,23h24v8h-24zm24,-15h23v8h-23zm23,31h24v15h-24zm47,15h24v8h-24zm24,8h23v7h-23zm23,7h24v8h-24zm118,-7h24v7h-24zm24,-8h23v15h-23zm47,-69h23v7h-23zm0,46h23v8h-23zm23,-15h24v7h-24z"></path>
       <path fill="rgb(14,143,209)" d="M282,169h24v8h-24zm47,-62h24v8h-24zm0,85h24v8h-24zM400,92h23v8h-23zm94,0h24v8h-24zm24,115h23v8h-23zM541,107h24v8h-24zm24,8h23v8h-23zm23,0h24v15h-24zm24,0h23v8h-23zm23,23h24v8h-24z"></path>
       <path fill="rgb(9,157,204)" d="M353,100h23v15h-23zm23,100h24v7h-24zM423,100h24v7h-24zm71,100h24v7h-24zM518,100h23v7h-23zm0,100h23v7h-23zm94,-62h23v8h-23z"></path>
       <path fill="rgb(13,167,195)" d="M329,115h24v15h-24zm47,-15h24v7h-24zm236,30h23v8h-23z"></path>
       <path fill="rgb(30,175,179)" d="M306,130h23v8h-23zm94,-23h23v8h-23zm71,100h23v8h-23zM541,100h24v7h-24z"></path>
       <path fill="rgb(46,183,164)" d="M306,154h23v7h-23zm0,15h23v8h-23zm117,31h24v7h-24zM471,100h23v7h-23zm94,84h23v8h-23zm23,-7h24v7h-24zm24,-23h23v7h-23z"></path>
       <path fill="rgb(82,186,146)" d="M306,161h23v8h-23zm23,-15h24v8h-24zm24,-31h23v8h-23zm94,85h24v7h-24zm71,-93h23v8h-23zm70,31h24v8h-24z"></path>
       <path fill="rgb(116,189,129)" d="M329,138h24v8h-24zm0,31h24v8h-24zm47,-62h24v8h-24zm24,85h23v8h-23zm71,8h23v7h-23zM612,146h23v8h-23zm0,15h23v8h-23z"></path>
       <path fill="rgb(149,190,113)" d="M306,138h23v8h-23zm47,-15h23v7h-23zm23,61h24v8h-24zM494,100h24v7h-24zm24,84h23v8h-23zm23,8h24v8h-24zm24,-15h23v7h-23zm23,-47h24v8h-24z"></path>
       <path fill="rgb(179,189,101)" d="M423,107h24v8h-24zm24,0h24v8h-24zm24,85h23v8h-23zm23,0h24v8h-24zm24,0h23v8h-23zm23,-8h24v8h-24z"></path>
       <path fill="rgb(209,187,89)" d="M329,130h24v8h-24zm47,-15h24v8h-24zm71,-15h24v7h-24zm47,7h24v8h-24zm94,39h24v8h-24z"></path>
       <path fill="rgb(226,192,75)" d="M329,154h24v7h-24zM518,115h23v8h-23zm47,8h23v7h-23zm23,31h24v23h-24z"></path>
       <path fill="rgb(244,198,59)" d="M329,161h24v8h-24zm24,-31h23v8h-23zm0,54h23v8h-23zm70,8h24v8h-24zm71,-8h24v8h-24zm47,-69h24v8h-24zm24,15h23v8h-23z"></path>
       <path fill="rgb(253,210,43)" d="M353,177h23v7h-23zm23,0h24v7h-24z"></path>
       <path fill="rgb(251,230,29)" d="M353,138h23v8h-23zm47,-23h23v8h-23zm0,69h23v8h-23zm141,-7h24v7h-24zm24,-39h23v23h-23z"></path>
       <path fill="rgb(249,249,15)" d="M353,146h23v31h-23zm23,-23h24v54h-24zm24,0h23v61h-23zm23,-8h24v77h-24zm24,0h24v85h-24zm24,-8h23v85h-23zm23,8h24v69h-24zm24,8h23v61h-23zm23,0h24v54h-24zm24,38h23v16h-23z"></path>
      </g>
     </svg>
     <g>
      <g transform="translate(0,307)">
       <path d="M0,0h941" style="stroke: black; stroke-width: 1;"></path>
       <path d="M0,-12v12m24,-6v6m23,-6v6m24,-6v6m23,-6v6m24,-12v12m23,-6v6m24,-6v6m23,-6v6m24,-6v6m23,-12v12m24,-6v6m23,-6v6m24,-6v6m23,-6v6m24,-12v12m23,-6v6m24,-6v6m23,-6v6m24,-6v6m24,-12v12m23,-6v6m24,-6v6m23,-6v6m24,-6v6m23,-12v12m24,-6v6m23,-6v6m24,-6v6m23,-6v6m24,-12v12m23,-6v6m24,-6v6m23,-6v6m24,-6v6m23,-12v12m24,-6v6m23,-6v6m24,-6v6m23,-6v6m24,-12v12" style="stroke: black; stroke-width: 1;"></path>
       <g font-family="Arial" font-size="13" space="preserve">
        <text fill="black" text-anchor="middle" dy=".8em" transform="translate(0,4)">
         -4
        </text>
        <text fill="black" text-anchor="middle" dy=".8em" transform="translate(118,4)">
         -3
        </text>
        <text fill="black" text-anchor="middle" dy=".8em" transform="translate(235,4)">
         -2
        </text>
        <text fill="black" text-anchor="middle" dy=".8em" transform="translate(353,4)">
         -1
        </text>
        <text fill="black" text-anchor="middle" dy=".8em" transform="translate(471,4)">
         0
        </text>
        <text fill="black" text-anchor="middle" dy=".8em" transform="translate(588,4)">
         1
        </text>
        <text fill="black" text-anchor="middle" dy=".8em" transform="translate(706,4)">
         2
        </text>
        <text fill="black" text-anchor="middle" dy=".8em" transform="translate(823,4)">
         3
        </text>
        <text fill="black" text-anchor="middle" dy=".8em" transform="translate(941,4)">
         4
        </text>
       </g>
      </g>
      <g>
       <path d="M0,0v307" style="stroke: black; stroke-width: 1;"></path>
       <path d="M35,307h-35m18,-8h-18m18,-7h-18m18,-8h-18m18,-8h-18m35,-7h-35m18,-8h-18m18,-8h-18m18,-7h-18m18,-8h-18m35,-8h-35m18,-7h-18m18,-8h-18m18,-8h-18m18,-7h-18m35,-8h-35m18,-8h-18m18,-7h-18m18,-8h-18m18,-8h-18m35,-7h-35m18,-8h-18m18,-8h-18m18,-8h-18m18,-7h-18m35,-8h-35m18,-8h-18m18,-7h-18m18,-8h-18m18,-8h-18m35,-7h-35m18,-8h-18m18,-8h-18m18,-7h-18m18,-8h-18m35,-8h-35m18,-7h-18m18,-8h-18m18,-8h-18m18,-7h-18m35,-8h-35" style="stroke: black; stroke-width: 1;"></path>
       <g font-family="Arial" font-size="13" space="preserve">
        <text fill="black" text-anchor="end" dy=".4em" transform="translate(-2,307)">
         -20
        </text>
        <text fill="black" text-anchor="end" dy=".4em" transform="translate(-2,269)">
         -15
        </text>
        <text fill="black" text-anchor="end" dy=".4em" transform="translate(-2,230)">
         -10
        </text>
        <text fill="black" text-anchor="end" dy=".4em" transform="translate(-2,192)">
         -5
        </text>
        <text fill="black" text-anchor="end" dy=".4em" transform="translate(-2,154)">
         0
        </text>
        <text fill="black" text-anchor="end" dy=".4em" transform="translate(-2,115)">
         5
        </text>
        <text fill="black" text-anchor="end" dy=".4em" transform="translate(-2,77)">
         10
        </text>
        <text fill="black" text-anchor="end" dy=".4em" transform="translate(-2,38)">
         15
        </text>
        <text fill="black" text-anchor="end" dy=".4em" transform="translate(-2)">
         20
        </text>
       </g>
      </g>
     </g>
    </g>
    <g transform="translate(1064,38)">
     <path d="M0,0H53V307H0Z" style="fill: rgb(249,249,15); stroke: black; stroke-width: 1;"></path>
     <rect x="0" y="292" width="53" height="15" style="fill: rgb(38,62,168); stroke: rgb(38,62,168);"></rect>
     <rect x="0" y="276" width="53" height="16" style="fill: rgb(22,82,205); stroke: rgb(22,82,205);"></rect>
     <rect x="0" y="261" width="53" height="15" style="fill: rgb(16,100,220); stroke: rgb(16,100,220);"></rect>
     <rect x="0" y="246" width="53" height="15" style="fill: rgb(18,114,217); stroke: rgb(18,114,217);"></rect>
     <rect x="0" y="230" width="53" height="16" style="fill: rgb(20,129,214); stroke: rgb(20,129,214);"></rect>
     <rect x="0" y="215" width="53" height="15" style="fill: rgb(14,143,209); stroke: rgb(14,143,209);"></rect>
     <rect x="0" y="200" width="53" height="15" style="fill: rgb(9,157,204); stroke: rgb(9,157,204);"></rect>
     <rect x="0" y="184" width="53" height="16" style="fill: rgb(13,167,195); stroke: rgb(13,167,195);"></rect>
     <rect x="0" y="169" width="53" height="15" style="fill: rgb(30,175,179); stroke: rgb(30,175,179);"></rect>
     <rect x="0" y="154" width="53" height="15" style="fill: rgb(46,183,164); stroke: rgb(46,183,164);"></rect>
     <rect x="0" y="138" width="53" height="16" style="fill: rgb(82,186,146); stroke: rgb(82,186,146);"></rect>
     <rect x="0" y="123" width="53" height="15" style="fill: rgb(116,189,129); stroke: rgb(116,189,129);"></rect>
     <rect x="0" y="107" width="53" height="16" style="fill: rgb(149,190,113); stroke: rgb(149,190,113);"></rect>
     <rect x="0" y="92" width="53" height="15" style="fill: rgb(179,189,101); stroke: rgb(179,189,101);"></rect>
     <rect x="0" y="77" width="53" height="15" style="fill: rgb(209,187,89); stroke: rgb(209,187,89);"></rect>
     <rect x="0" y="61" width="53" height="16" style="fill: rgb(226,192,75); stroke: rgb(226,192,75);"></rect>
     <rect x="0" y="46" width="53" height="15" style="fill: rgb(244,198,59); stroke: rgb(244,198,59);"></rect>
     <rect x="0" y="31" width="53" height="15" style="fill: rgb(253,210,43); stroke: rgb(253,210,43);"></rect>
     <rect x="0" y="15" width="53" height="16" style="fill: rgb(251,230,29); stroke: rgb(251,230,29);"></rect>
     <rect x="0" y="0" width="53" height="15" style="fill: rgb(249,249,15); stroke: rgb(249,249,15);"></rect>
     <g transform="translate(53, 0)">
      <path d="M0,0v307" style="stroke: black; stroke-width: 1;"></path>
      <path d="M0,307h-16m16,-26h-16m16,-25h-16m16,-26h-16m16,-25h-16m16,-26h-16m16,-25h-16m16,-26h-16m16,-26h-16m16,-25h-16m16,-26h-16m16,-25h-16m16,-26h-16" style="stroke: black; stroke-width: 1;"></path>
      <g font-family="Arial" font-size="13" space="preserve">
       <text fill="black" text-anchor="start" dy=".4em" transform="translate(2,307)">
        40
       </text>
       <text fill="black" text-anchor="start" dy=".4em" transform="translate(2,281)">
        45
       </text>
       <text fill="black" text-anchor="start" dy=".4em" transform="translate(2,256)">
        50
       </text>
       <text fill="black" text-anchor="start" dy=".4em" transform="translate(2,230)">
        55
       </text>
       <text fill="black" text-anchor="start" dy=".4em" transform="translate(2,205)">
        60
       </text>
       <text fill="black" text-anchor="start" dy=".4em" transform="translate(2,179)">
        65
       </text>
       <text fill="black" text-anchor="start" dy=".4em" transform="translate(2,154)">
        70
       </text>
       <text fill="black" text-anchor="start" dy=".4em" transform="translate(2,128)">
        75
       </text>
       <text fill="black" text-anchor="start" dy=".4em" transform="translate(2,102)">
        80
       </text>
       <text fill="black" text-anchor="start" dy=".4em" transform="translate(2,77)">
        85
       </text>
       <text fill="black" text-anchor="start" dy=".4em" transform="translate(2,51)">
        90
       </text>
       <text fill="black" text-anchor="start" dy=".4em" transform="translate(2,26)">
        95
       </text>
       <text fill="black" text-anchor="start" dy=".4em" transform="translate(2)">
        100
       </text>
      </g>
     </g>
    </g>
    <g transform="translate(481,2)" font-family="Arial" font-size="20" space="preserve">
     <path d="M0,0H215V25H0Z" style="fill: none;"></path>
     <text fill="black" text-anchor="middle" dy=".4em" transform="translate(108,13)">
      Option COLZ0
     </text>
    </g>
   </g>
  </svg>
 </g>
</svg>