<svg xmlns="http://www.w3.org/2000/svg" viewBox="0 0 1200 800" preserveAspectRatio="none" width="1200" height="800">
 <title>
  ROOT canvas
 </title>
 <path d="M0,0H1200V800H0Z" style="fill: white;"></path>
 <g>
  <g transform="translate(120,80)">
   <title></title>
   <path d="M0,0H960V640H0Z" style="fill: white; stroke: black; stroke-width: 1;"></path>
   <svg x="0" y="0" overflow="hidden" width="960" height="640" viewBox="0 0 960 640">
    <g>
     <path d="M24,432h1M24,400h1M24,368h1M24,336h1M72,400h1M72,368h1M72,336h1M71,304h1M72,272h1M72,240h1M120,496h1M119,432h1M119,400h2M119,368h3M119,336h3M119,304h2M119,272h1M119,240l2,1M119,208h1M120,144h1M167,464l2,-1M166,433l3,-1M165,400l5,-1M164,368l7,-1m-1,2l1,-2l-2,-1M164,336h7m-1,1l1,-1l-1,-1M164,304l7,1m-2,1l2,-1l-1,-2M165,272h7m-1,1l1,-1l-1,-1M165,240h5M167,208l3,1M167,176l1,1M216,528h1M216,497l1,-2M214,465l3,-2M213,433l6,-2m-1,2l1,-2l-2,-1M211,402l10,-3m-1,2l1,-2l-2,-1M209,369l13,-1m-1,2l1,-2l-2,-1M210,336h11m-1,1l1,-1l-1,-1M208,304h15m-1,1l1,-1l-1,-1M209,271l13,2m-2,1l2,-1l-1,-2M211,238l10,4m-2,1l2,-1l-1,-2M213,207l6,3m-2,1l2,-1l-1,-2M215,175l2,2M216,144v1M263,560l1,-1M264,528v-1M262,497l3,-2M262,466l4,-4M259,435l9,-5m-1,2l1,-2l-2,-1M255,403l17,-6m-1,2l1,-2l-2,-1M252,369l24,-2m-1,2l1,-2l-2,-1M251,336l27,-1m-1,1l1,-1l-1,-1M251,304h27m-1,1l1,-1l-1,-1M253,270l22,4m-2,1l2,-1l-1,-2M256,238l15,5m-2,1l2,-1l-1,-2M259,205l11,7m-2,0h2v-2M262,174l5,5M263,143l2,1M263,112h1M312,592v-1M312,560h1M312,529l1,-2M310,498l4,-4M307,467l10,-6m0,2v-2h-2M306,437l12,-11m0,2v-2h-2M299,406l25,-13m-1,2l1,-2l-2,-1M296,372l31,-8m-1,2l1,-2l-2,-1M290,337l45,-2m-1,1l1,-1l-1,-1M294,302l37,4m-2,1l2,-1l-1,-2M296,267l31,9m-2,1l2,-1l-1,-2M299,235l25,11m-2,1l2,-1l-1,-2M303,203l17,10m-2,1l2,-1l-1,-2M307,172l10,7m-2,0h2v-2M310,142l5,3M311,111l3,1M312,80v1M360,592v-1M360,560l-1,-1M359,529l2,-3M358,500l4,-8m1,2l-1,-2l-2,1M354,469l12,-10m0,2v-2h-2M352,440l17,-16m0,2v-2h-2M349,409l22,-18m0,2v-2h-2M343,375l34,-15m-1,2l1,-2l-2,-1M341,338l38,-4m-1,2l1,-2l-2,-1M340,300l40,9m-2,1l2,-1l-1,-2M342,266l36,11m-2,1l2,-1l-1,-2M347,233l26,14m-2,1l2,-1l-1,-2M352,200l16,17m-2,0h2v-2M356,170l8,13m-2,0h2v-2M358,141l3,6m-2,-1l2,1l1,-2M360,110l1,3M360,79v2M408,561v-1M407,531l2,-5M406,501l5,-11m1,2l-1,-2l-2,1M406,471l4,-14m1,2l-1,-2l-2,1M400,441l16,-17m0,2v-2h-2M396,412l25,-24m0,2v-2h-2M395,377l27,-19m0,2v-2h-2M391,339l34,-6m-1,2l1,-2l-2,-1M392,302l31,5m-2,1l2,-1l-1,-2M393,263l30,19m-2,0h2v-2M399,228l19,24m-2,0h2v-2M403,197l11,21m-2,-1l2,1l1,-2M405,168l6,16m-2,-1l2,1l1,-2M407,140l2,9m-2,-1l2,1l1,-2M407,110l1,3M408,79l1,1M456,592v-1M456,561l1,-2M455,531l1,-6m1,2l-1,-2l-2,1M455,501l1,-10m1,2l-1,-2l-2,1M455,473l2,-17m1,2l-1,-2l-2,1M453,447l7,-29m1,2l-1,-2l-2,1M452,413l8,-26m1,2l-1,-2l-2,1M451,378l10,-21m1,2l-1,-2l-2,1M447,340l18,-7m-1,2l1,-2l-2,-1M447,299l17,11m-2,0h2v-2M450,262l12,20m-2,0h2v-2M450,226l12,27m-2,-1l2,1l1,-2M452,195l8,25m-2,-1l2,1l1,-2M454,167l3,19m-2,-1l2,1l1,-2M454,139l4,10m-2,-1l2,1l1,-2M456,110v4M456,79v2M456,48l1,1M456,16v1M504,592v-1M504,561v-3M504,531v-6m1,1l-1,-1l-1,1M506,501l-3,-11m2,1l-2,-1l-1,2M504,473v-18m1,1l-1,-1l-1,1M506,443l-5,-21m2,1l-2,-1l-1,2M511,413l-15,-26m2,1l-2,-1l-1,2M508,381l-9,-26m2,1l-2,-1l-1,2M512,342l-16,-11m2,0h-2v2M506,300l-5,9m-1,-2l1,2l2,-1M510,261l-13,22m0,-2v2h2M509,226l-11,27m-1,-2l1,2l2,-1M507,194l-5,27m-1,-2l1,2l2,-1M505,167l-3,19m-1,-2l1,2l2,-1M505,139l-1,10m-1,-2l1,2l2,-1M505,109l-2,6m-1,-2l1,2l2,-1M504,79v1M504,16v1M552,561v-2M553,530l-3,-4M554,501l-5,-10m2,1l-2,-1l-1,2M556,472l-7,-16m2,1l-2,-1l-1,2M558,442l-12,-20m2,0h-2v2M563,411l-21,-23m2,0h-2v2M565,378l-26,-20m2,0h-2v2M570,341l-36,-10m2,-1l-2,1l1,2M573,300l-41,8m1,-2l-1,2l2,1M568,260l-32,24m0,-2v2h2M566,229l-28,23m0,-2v2h2M560,198l-16,20m0,-2v2h2M556,168l-8,16m-1,-2l1,2l2,-1M555,139l-6,9m0,-2v2h2M552,110l-1,3M552,79v1M552,48v1M600,624v-1M600,592v-1M600,529l-1,-2M602,500l-4,-8m2,1l-2,-1l-1,2M605,471l-11,-13m2,0h-2v2M608,438l-16,-12m2,0h-2v2M613,408l-27,-16m2,0h-2v2M618,376l-37,-16m2,-1l-2,1l1,2M621,337l-41,-1m1,-1l-1,1l1,1M623,301l-46,7m1,-2l-1,2l2,1M617,265l-34,14m1,-2l-1,2l2,1M611,232l-22,16m0,-2v2h2M608,201l-16,13m0,-2v2h2M604,170l-8,12m0,-2v2h2M602,141l-3,6m-1,-2l1,2l2,-1M600,111v1M600,79l-1,1M600,48v1M648,561l-1,-1M648,529l1,-2M648,498l-1,-3M652,468l-7,-8m2,0h-2v2M657,437l-17,-9m2,-1l-2,1l1,2M658,405l-20,-9m2,-1l-2,1l1,2M663,373l-31,-10m2,-1l-2,1l1,2M667,338l-38,-4m2,-1l-2,1l1,2M665,302l-34,4m1,-2l-1,2l2,1M663,268l-29,8m1,-2l-1,2l2,1M658,235l-19,11m1,-2l-1,2l2,1M655,203l-15,10m0,-2v2h2M651,172l-7,7m0,-2v2h2M648,142l-1,4M649,111l-1,2M648,79l-1,1M696,561v-1M695,529l3,-2M692,497l9,-2m-1,2l1,-2l-2,-1M693,465l7,-3m-1,2l1,-2l-2,-1M700,434l-8,-4m2,-1l-2,1l1,2M703,404l-14,-7m2,-1l-2,1l1,2M706,370l-21,-5m2,-1l-2,1l1,2M710,335l-28,1m1,-1l-1,1l1,1M710,303l-28,1m1,-1l-1,1l1,1M707,270l-22,3m1,-2l-1,2l2,1M704,237l-17,6m1,-2l-1,2l2,1M701,205l-11,5m1,-2l-1,2l2,1M699,174l-6,3m1,-2l-1,2l2,1M697,143l-2,2M697,111l-2,1M744,592v-1M743,562l1,-3M739,532l10,-7m0,2v-2h-2M731,499l25,-6m-1,2l1,-2l-2,-1M732,462l24,3m-2,1l2,-1l-1,-2M742,429l5,5M748,400h-8m1,-1l-1,1l1,1M752,368l-17,-1m1,-1l-1,1l1,1M752,336l-15,1m1,-2l-1,2l2,1M750,304h-13m1,-1l-1,1l1,1M751,272h-14m1,-1l-1,1l1,1M748,238l-8,3m1,-2l-1,2l2,1M747,207l-6,3m1,-2l-1,2l2,1M745,175l-3,1M745,143l-2,1M744,112v1M792,593v-1M791,564l2,-8m1,2l-1,-2l-2,1M786,537l11,-18m0,2v-2h-2M778,502l28,-12m-1,2l1,-2l-2,-1M779,458l26,11m-2,1l2,-1l-1,-2M787,423l9,17m-2,-1l2,1l1,-2M793,397l-3,7m-1,-2l1,2l2,-1M795,368l-7,1m1,-2l-1,2l2,1M795,336l-6,-1m2,-1l-2,1l1,2M795,304h-6m1,-1l-1,1l1,1M796,272h-7m1,-1l-1,1l1,1M795,240h-6m1,-1l-1,1l1,1M793,207l-3,1M793,176l-2,1M793,144h-1M840,593v-2M840,565v-11m1,1l-1,-1l-1,1M840,540l1,-25m1,1l-1,-1l-1,1M840,504l-1,-16m1,1l-1,-1l-1,1M840,456l-1,15m-1,-2l1,2l2,-1M841,420l-1,24m-1,-1l1,1l1,-1M841,395l-2,10m-1,-2l1,2l2,-1M841,367l-1,2M841,336h-2M841,304h-3M841,272h-1M841,240h-3M841,208h-2M840,176h-1M840,144h-1M888,593v-1M889,564l-2,-8m2,1l-2,-1l-1,2M894,537l-12,-18m2,0h-2v2M902,501l-28,-11m2,-1l-2,1l1,2M902,458l-28,12m1,-2l-1,2l2,1M894,423l-12,18m0,-2v2h2M889,396l-3,7m-1,-2l1,2l2,-1M889,368l-1,1M888,336h-1M888,304h-1M888,272h-1M888,240l-1,1M937,562l-2,-3M944,532l-16,-7m2,-1l-2,1l1,2M953,498l-34,-5m2,-1l-2,1l1,2M953,462l-33,5m1,-2l-1,2l2,1M942,428l-13,7m1,-2l-1,2l2,1M937,398l-2,3M937,368h-1M936,336h-1M937,304h-1M937,272h-2" style="fill: none; stroke: #000099; stroke-width: 1;"></path>
    </g>
   </svg>
   <g>
    <g transform="translate(0,640)">
     <path d="M0,0h960" style="stroke: black; stroke-width: 1;"></path>
     <path d="M0,-24v24m24,-12v12m24,-12v12m24,-12v12m24,-12v12m24,-24v24m24,-12v12m24,-12v12m24,-12v12m24,-12v12m24,-24v24m24,-12v12m24,-12v12m24,-12v12m24,-12v12m24,-24v24m24,-12v12m24,-12v12m24,-12v12m24,-12v12m24,-24v24m24,-12v12m24,-12v12m24,-12v12m24,-12v12m24,-24v24m24,-12v12m24,-12v12m24,-12v12m24,-12v12m24,-24v24m24,-12v12m24,-12v12m24,-12v12m24,-12v12m24,-24v24m24,-12v12m24,-12v12m24,-12v12m24,-12v12m24,-24v24" style="stroke: black; stroke-width: 1;"></path>
     <g font-family="Arial" font-size="28" space="preserve" fill="black" text-anchor="middle">
      <text dy=".8em" transform="translate(0,6)">
       -4
      </text>
      <text dy=".8em" transform="translate(120,6)">
       -3
      </text>
      <text dy=".8em" transform="translate(240,6)">
       -2
      </text>
      <text dy=".8em" transform="translate(360,6)">
       -1
      </text>
      <text dy=".8em" transform="translate(480,6)">
       0
      </text>
      <text dy=".8em" transform="translate(600,6)">
       1
      </text>
      <text dy=".8em" transform="translate(720,6)">
       2
      </text>
      <text dy=".8em" transform="translate(840,6)">
       3
      </text>
      <text dy=".8em" transform="translate(960,6)">
       4
      </text>
     </g>
    </g>
    <g>
     <path d="M0,0v640" style="stroke: black; stroke-width: 1;"></path>
     <path d="M36,640h-36m18,-16h-18m18,-16h-18m18,-16h-18m18,-16h-18m36,-16h-36m18,-16h-18m18,-16h-18m18,-16h-18m18,-16h-18m36,-16h-36m18,-16h-18m18,-16h-18m18,-16h-18m18,-16h-18m36,-16h-36m18,-16h-18m18,-16h-18m18,-16h-18m18,-16h-18m36,-16h-36m18,-16h-18m18,-16h-18m18,-16h-18m18,-16h-18m36,-16h-36m18,-16h-18m18,-16h-18m18,-16h-18m18,-16h-18m36,-16h-36m18,-16h-18m18,-16h-18m18,-16h-18m18,-16h-18m36,-16h-36m18,-16h-18m18,-16h-18m18,-16h-18m18,-16h-18m36,-16h-36" style="stroke: black; stroke-width: 1;"></path>
     <g font-family="Arial" font-size="28" space="preserve" fill="black" text-anchor="end">
      <text dy=".4em" transform="translate(-4,640)">
       -20
      </text>
      <text dy=".4em" transform="translate(-4,560)">
       -15
      </text>
      <text dy=".4em" transform="translate(-4,480)">
       -10
      </text>
      <text dy=".4em" transform="translate(-4,400)">
       -5
      </text>
      <text dy=".4em" transform="translate(-4,320)">
       0
      </text>
      <text dy=".4em" transform="translate(-4,240)">
       5
      </text>
      <text dy=".4em" transform="translate(-4,160)">
       10
      </text>
      <text dy=".4em" transform="translate(-4,80)">
       15
      </text>
      <text dy=".4em" transform="translate(-4)">
       20
      </text>
     </g>
    </g>
   </g>
  </g>
  <g transform="translate(936,52)" font-family="Arial" font-size="22" space="preserve" fill="black">
   <path d="M0,0H240V192H0Z" style="fill: white; stroke: black; stroke-width: 1;"></path>
   <text text-anchor="middle" dy=".4em" transform="translate(120,16)">
    harr
   </text>
   <text text-anchor="start" dy=".4em" transform="translate(12,48)">
    Entries
   </text>
   <text text-anchor="end" dy=".4em" transform="translate(228,48)">
    50000
   </text>
   <text text-anchor="start" dy=".4em" transform="translate(12,80)">
    Mean x
   </text>
   <text text-anchor="end" dy=".4em" transform="translate(228,80)">
    0.2623
   </text>
   <text text-anchor="start" dy=".4em" transform="translate(12,112)">
    Mean y
   </text>
   <text text-anchor="end" dy=".4em" transform="translate(228,112)">
    -0.9352
   </text>
   <text text-anchor="start" dy=".4em" transform="translate(12,144)">
    Std Dev x
   </text>
   <text text-anchor="end" dy=".4em" transform="translate(228,144)">
    1.282
   </text>
   <text text-anchor="start" dy=".4em" transform="translate(12,176)">
    Std Dev y
   </text>
   <text text-anchor="end" dy=".4em" transform="translate(228,176)">
    5.585
   </text>
   <path d="M0,32h240" style="stroke: black; stroke-width: 1;"></path>
  </g>
  <g transform="translate(372,4)" font-family="Arial" font-size="37" space="preserve">
   <path d="M0,0H457V52H0Z" style="fill: none;"></path>
   <text fill="black" text-anchor="middle" dy=".4em" transform="translate(229,26)">
    Option ARRow example
   </text>
  </g>
 </g>
</svg>