<svg xmlns="http://www.w3.org/2000/svg" viewBox="0 0 596 372" preserveAspectRatio="none" width="596" height="372">
 <path d="M0,0H596V372H0Z" style="fill: white;"></path>
 <g>
  <g transform="translate(60,37)">
   <path d="M0,0H477V298H0Z" style="fill: white; stroke: black; stroke-width: 1;"></path>
   <svg x="0" y="0" overflow="hidden" width="477" height="298" viewBox="0 0 477 298">
    <g>
     <path d="M240,143v5h8v-5zM240,135v5h8v-5zM241,128v4h7v-4zM239,119v7h12v-7zM242,114v3h5v-3zM241,106v4h7v-4zM240,98v5h8v-5zM241,91v4h7v-4zM241,76v4h7v-4zM242,62v3h5v-3zM241,54v4h7v-4zM242,32v3h5v-3zM252,142v6h10v-6zM252,135v5h8v-5zM253,128v4h7v-4zM252,120v6h10v-6zM251,112v7h11v-7zM254,107v3h5v-3zM252,98v5h8v-5zM253,91v4h7v-4zM254,84v3h5v-3zM254,77v3h5v-3zM252,68v5h8v-5zM254,39v3h5v-3zM263,142v7h11v-7zM265,136v4h7v-4zM262,127v7h12v-7zM264,120v5h8v-5zM263,112v6h10v-6zM264,98v5h8v-5zM263,90v7h11v-7zM266,84v3h5v-3zM264,76v5h8v-5zM266,69v3h5v-3zM266,62v3h5v-3zM266,54v3h5v-3zM277,143v4h7v-4zM275,135v6h10v-6zM275,127v6h10v-6zM277,113v4h7v-4zM276,105v5h8v-5zM274,97v7h12v-7zM277,91v4h7v-4zM276,83v5h8v-5zM278,77v3h5v-3zM278,54v3h5v-3zM288,143v5h8v-5zM287,134v7h11v-7zM288,128v5h8v-5zM290,121v3h5v-3zM289,113v4h7v-4zM288,105v5h8v-5zM289,98v4h7v-4zM289,91v4h7v-4zM289,84v4h7v-4zM290,69v3h5v-3zM288,53v5h8v-5zM290,47v3h5v-3zM302,144v3h5v-3zM300,135v5h8v-5zM299,127v7h11v-7zM301,121v4h7v-4zM300,113v5h8v-5zM299,98v6h10v-6zM302,84v3h5v-3zM302,69v3h5v-3zM302,62v3h5v-3zM311,142v7h11v-7zM313,136v4h7v-4zM311,127v6h10v-6zM313,121v4h7v-4zM314,114v3h5v-3zM312,98v5h8v-5zM313,91v4h7v-4zM314,77v3h5v-3zM314,47v3h5v-3zM324,128v4h7v-4zM326,121v3h5v-3zM324,113v4h7v-4zM326,107v3h5v-3zM326,99v3h5v-3zM326,92v3h5v-3zM326,84v3h5v-3zM324,69v4h7v-4zM326,62v3h5v-3zM336,143v4h7v-4zM335,135v6h10v-6zM337,129v3h5v-3zM337,121v3h5v-3zM335,112v6h10v-6zM337,99v3h5v-3zM337,77v3h5v-3zM337,62v3h5v-3zM349,136v3h5v-3zM348,128v4h7v-4zM348,113v5h8v-5zM349,107v3h5v-3zM348,98v4h7v-4zM348,91v4h7v-4zM349,62v3h5v-3zM349,39v3h5v-3zM360,143v4h7v-4zM361,136v3h5v-3zM361,129v3h5v-3zM361,114v3h5v-3zM361,84v3h5v-3zM359,68v5h8v-5zM372,128v4h7v-4zM373,114v3h5v-3zM373,84v3h5v-3zM385,136v3h5v-3zM385,121v3h5v-3zM385,84v3h5v-3zM397,144v3h5v-3zM397,107v3h5v-3zM397,77v3h5v-3zM409,136v3h5v-3zM409,25v3h5v-3zM421,121v3h5v-3zM421,114v3h5v-3zM433,92v3h5v-3zM433,84v3h5v-3zM433,77v3h5v-3zM445,114v3h5v-3zM445,39v3h5v-3z" style="fill: black;"></path>
    </g>
    <g>
     <path d="M16,196v3h4v-3zM16,181v3h4v-3zM28,226v3h4v-3zM39,210v4h6v-4zM40,204v3h4v-3zM39,181v4h6v-4zM52,204v3h4v-3zM52,189v3h4v-3zM52,159v3h4v-3zM63,226v3h4v-3zM63,166v3h4v-3zM75,218v3h4v-3zM75,189v3h4v-3zM75,166v3h4v-3zM86,218v4h6v-4zM87,211v3h4v-3zM87,189v3h4v-3zM87,181v3h4v-3zM87,159v3h4v-3zM99,211v3h4v-3zM99,204v3h4v-3zM99,189v3h4v-3zM99,166v3h4v-3zM99,159v3h4v-3zM98,151v4h6v-4zM111,233v3h4v-3zM111,218v3h4v-3zM111,211v3h4v-3zM111,204v3h4v-3zM111,181v3h4v-3zM110,173v4h6v-4zM111,166v3h4v-3zM111,159v3h4v-3zM111,151v3h4v-3zM123,263v3h4v-3zM123,233v3h4v-3zM122,188v4h6v-4zM122,166v4h6v-4zM123,159v3h4v-3zM135,248v3h4v-3zM135,218v3h4v-3zM135,211v3h4v-3zM133,203v5h7v-5zM134,181v4h6v-4zM134,173v4h6v-4zM135,166v3h4v-3zM135,159v3h4v-3zM147,204v3h4v-3zM146,196v4h6v-4zM146,188v4h6v-4zM146,181v4h6v-4zM145,173v5h7v-5zM147,166v3h4v-3zM144,157v6h10v-6zM145,150v5h8v-5zM159,256v3h4v-3zM159,241v3h4v-3zM157,232v5h7v-5zM159,218v3h4v-3zM159,211v3h4v-3zM158,203v4h6v-4zM157,195v5h7v-5zM158,188v4h6v-4zM157,173v5h7v-5zM158,166v4h6v-4zM158,158v4h6v-4zM157,150v5h8v-5zM171,248v3h4v-3zM171,226v3h4v-3zM171,218v3h4v-3zM169,202v5h8v-5zM170,196v4h6v-4zM169,187v5h8v-5zM171,181v3h4v-3zM171,174v3h4v-3zM167,164v7h11v-7zM171,159v3h4v-3zM171,151v3h4v-3zM183,211v3h4v-3zM183,196v3h4v-3zM183,189v3h4v-3zM183,181v3h4v-3zM182,173v4h6v-4zM180,165v6h9v-6zM180,157v6h9v-6zM181,150v5h7v-5zM195,248v3h4v-3zM193,217v5h7v-5zM193,202v5h8v-5zM194,196v4h6v-4zM194,188v4h6v-4zM192,180v6h9v-6zM194,173v4h6v-4zM194,166v4h6v-4zM194,158v4h6v-4zM193,150v5h7v-5zM207,271v3h4v-3zM207,233v3h4v-3zM207,226v3h4v-3zM206,218v4h6v-4zM207,211v3h4v-3zM205,203v5h7v-5zM205,195v5h7v-5zM206,188v4h6v-4zM204,180v6h9v-6zM207,174v3h4v-3zM204,164v6h10v-6zM204,157v6h9v-6zM204,149v6h10v-6zM219,248v3h4v-3zM219,233v3h4v-3zM218,210v4h6v-4zM217,203v5h7v-5zM219,196v3h4v-3zM218,188v4h6v-4zM219,181v3h4v-3zM218,173v4h6v-4zM219,166v3h4v-3zM216,158v5h8v-5zM215,149v7h11v-7zM230,248v3h4v-3zM230,240v4h6v-4zM230,225v4h6v-4zM230,218v3h4v-3zM230,211v3h4v-3zM230,204v3h4v-3zM230,196v4h6v-4zM228,187v6h9v-6zM227,179v7h12v-7zM230,173v4h6v-4zM228,165v5h8v-5zM229,158v5h7v-5zM229,150v5h7v-5z" style="fill: red;"></path>
    </g>
    <g>
     <path d="M243,278v2h3v-2zM242,256v3h5v-3zM243,241v2h3v-2zM242,226v3h5v-3zM242,218v3h5v-3zM243,211v2h3v-2zM243,204v2h3v-2zM241,196v4h6v-4zM241,188v4h6v-4zM243,181v2h3v-2zM241,173v4h6v-4zM242,166v3h5v-3zM240,158v5h8v-5zM240,150v6h10v-6zM255,248v2h3v-2zM255,241v2h3v-2zM254,233v3h5v-3zM255,219v2h3v-2zM254,203v3h5v-3zM253,196v4h6v-4zM253,188v5h8v-5zM253,180v4h7v-4zM253,173v5h8v-5zM253,165v4h7v-4zM255,159v2h3v-2zM252,150v6h9v-6zM266,241v3h5v-3zM267,234v2h3v-2zM266,226v3h5v-3zM267,219v2h3v-2zM267,211v2h3v-2zM266,203v3h5v-3zM266,188v3h5v-3zM267,174v2h3v-2zM264,165v5h8v-5zM267,159v2h3v-2zM265,151v4h6v-4zM277,240v4h6v-4zM279,234v2h3v-2zM279,211v2h3v-2zM276,202v5h8v-5zM278,196v3h5v-3zM278,188v3h5v-3zM277,181v4h6v-4zM277,173v4h6v-4zM279,167v2h3v-2zM279,159v2h3v-2zM277,151v4h6v-4zM290,248v2h3v-2zM289,240v4h6v-4zM290,233v3h5v-3zM290,226v2h3v-2zM290,218v3h5v-3zM289,195v4h7v-4zM290,189v2h3v-2zM289,181v4h6v-4zM289,173v4h7v-4zM289,166v4h6v-4zM290,159v3h5v-3zM290,152v2h3v-2zM302,256v2h3v-2zM302,248v2h3v-2zM302,234v2h3v-2zM302,226v2h3v-2zM301,218v4h6v-4zM302,204v2h3v-2zM302,196v3h5v-3zM301,188v4h6v-4zM302,181v2h3v-2zM302,174v2h3v-2zM302,167v2h3v-2zM302,159v2h3v-2zM302,151v3h5v-3zM314,248v3h5v-3zM314,241v2h3v-2zM313,218v4h6v-4zM314,211v2h3v-2zM314,204v2h3v-2zM314,196v2h3v-2zM314,189v2h3v-2zM314,181v2h3v-2zM314,174v3h5v-3zM312,150v5h8v-5zM326,293v2h3v-2zM326,226v2h3v-2zM326,218v3h5v-3zM325,210v4h6v-4zM326,196v2h3v-2zM326,167v2h3v-2zM326,159v2h3v-2zM324,151v4h7v-4zM338,271v2h3v-2zM337,256v3h5v-3zM338,234v2h3v-2zM337,203v3h5v-3zM337,196v3h5v-3zM338,189v2h3v-2zM338,181v2h3v-2zM338,167v2h3v-2zM338,159v2h3v-2zM337,151v4h6v-4zM350,256v2h3v-2zM350,226v2h3v-2zM350,196v2h3v-2zM350,189v2h3v-2zM350,181v2h3v-2zM350,152v2h3v-2zM362,204v2h3v-2zM362,196v2h3v-2zM362,189v2h3v-2zM362,181v2h3v-2zM362,174v2h3v-2zM361,158v4h6v-4zM374,271v2h3v-2zM374,248v2h3v-2zM374,211v2h3v-2zM373,181v3h5v-3zM374,167v2h3v-2zM374,152v2h3v-2zM386,204v2h3v-2zM386,189v2h3v-2zM386,174v2h3v-2zM386,159v2h3v-2zM398,167v2h3v-2zM398,159v2h3v-2zM398,152v2h3v-2zM410,241v2h3v-2zM410,167v2h3v-2zM421,211v3h5v-3zM422,174v2h3v-2zM422,167v2h3v-2zM434,196v2h3v-2zM434,152v2h3v-2zM445,234v2h3v-2zM445,189v2h3v-2zM445,174v2h3v-2z" style="fill: green;"></path>
    </g>
    <g>
     <path d="M5,122v2h2v-2zM17,137v2h2v-2zM29,63v2h2v-2zM41,130v2h2v-2zM40,77v2h3v-2zM52,92v2h2v-2zM64,130v2h2v-2zM64,100v2h2v-2zM64,92v2h2v-2zM76,115v2h2v-2zM88,129v2h3v-2zM88,122v2h2v-2zM88,85v2h2v-2zM88,77v2h2v-2zM100,137v2h2v-2zM100,130v2h2v-2zM100,85v2h3v-2zM112,137v2h2v-2zM112,122v2h3v-2zM112,92v2h2v-2zM112,33v2h2v-2zM112,10v2h2v-2zM124,145v2h2v-2zM124,137v2h2v-2zM124,130v2h2v-2zM124,122v2h2v-2zM124,77v2h2v-2zM124,55v2h2v-2zM135,144v3h4v-3zM136,137v2h2v-2zM135,129v3h4v-3zM136,122v2h2v-2zM135,114v2h3v-2zM136,77v2h2v-2zM148,145v2h2v-2zM147,137v2h3v-2zM147,129v2h3v-2zM147,122v2h3v-2zM148,115v2h2v-2zM148,100v2h2v-2zM147,92v2h3v-2zM148,48v2h2v-2zM148,25v2h2v-2zM159,144v3h4v-3zM160,137v2h2v-2zM160,130v2h2v-2zM159,122v2h3v-2zM160,115v2h2v-2zM160,100v2h2v-2zM159,92v2h3v-2zM159,85v2h3v-2zM160,48v2h2v-2zM171,144v2h3v-2zM172,137v2h2v-2zM171,122v2h3v-2zM171,114v2h3v-2zM170,107v3h5v-3zM172,100v2h2v-2zM171,92v2h3v-2zM172,77v2h2v-2zM172,48v2h2v-2zM182,144v3h5v-3zM183,137v2h3v-2zM182,129v3h5v-3zM183,122v3h4v-3zM183,114v3h4v-3zM183,107v2h3v-2zM183,99v2h3v-2zM184,85v2h2v-2zM184,77v2h2v-2zM183,62v3h4v-3zM183,55v3h4v-3zM184,33v2h2v-2zM194,143v4h6v-4zM195,137v2h3v-2zM196,130v2h2v-2zM194,121v3h5v-3zM196,115v2h2v-2zM196,107v2h2v-2zM195,99v2h3v-2zM196,92v2h2v-2zM195,77v2h3v-2zM195,70v2h3v-2zM207,145v2h2v-2zM206,136v3h5v-3zM207,129v3h4v-3zM207,115v2h2v-2zM207,100v2h2v-2zM207,92v2h3v-2zM207,85v2h2v-2zM207,77v2h2v-2zM207,48v2h2v-2zM218,144v3h5v-3zM218,136v3h5v-3zM218,129v3h5v-3zM219,122v2h2v-2zM219,114v2h3v-2zM219,107v3h4v-3zM218,99v3h5v-3zM218,92v3h5v-3zM219,85v2h2v-2zM219,77v2h3v-2zM219,63v2h2v-2zM219,55v2h2v-2zM219,48v2h2v-2zM219,40v2h2v-2zM231,145v2h2v-2zM230,136v3h5v-3zM231,129v2h3v-2zM231,122v2h2v-2zM230,114v3h5v-3zM230,99v3h4v-3zM230,84v3h5v-3zM231,77v2h3v-2zM231,70v2h3v-2zM231,63v2h2v-2zM230,55v3h4v-3zM231,47v2h3v-2z" style="fill: blue;"></path>
    </g>
   </svg>
   <g>
    <g transform="translate(0,298)">
     <path d="M0,0h477M0,-11V0M16,-6V0M32,-6V0M48,-6V0M64,-6V0M80,-11V0M95,-6V0M111,-6V0M127,-6V0M143,-6V0M159,-11V0M175,-6V0M191,-6V0M207,-6V0M223,-6V0M239,-11V0M254,-6V0M270,-6V0M286,-6V0M302,-6V0M318,-11V0M334,-6V0M350,-6V0M366,-6V0M382,-6V0M398,-11V0M413,-6V0M429,-6V0M445,-6V0M461,-6V0M477,-11V0" style="stroke: black; stroke-width: 1;"></path>
     <g font-family="Arial" font-size="13" space="preserve" fill="black" text-anchor="middle">
      <text dy=".8em" transform="translate(0,3)">
       -3
      </text>
      <text dy=".8em" transform="translate(80,3)">
       -2
      </text>
      <text dy=".8em" transform="translate(159,3)">
       -1
      </text>
      <text dy=".8em" transform="translate(239,3)">
       0
      </text>
      <text dy=".8em" transform="translate(318,3)">
       1
      </text>
      <text dy=".8em" transform="translate(398,3)">
       2
      </text>
      <text dy=".8em" transform="translate(477,3)">
       3
      </text>
     </g>
    </g>
    <g>
     <path d="M0,0v298M18,298H0M9,288H0M9,278H0M9,268H0M9,258H0M18,248H0M9,238H0M9,228H0M9,219H0M9,209H0M18,199H0M9,189H0M9,179H0M9,169H0M9,159H0M18,149H0M9,139H0M9,129H0M9,119H0M9,109H0M18,99H0M9,89H0M9,79H0M9,70H0M9,60H0M18,50H0M9,40H0M9,30H0M9,20H0M9,10H0M18,0H0" style="stroke: black; stroke-width: 1;"></path>
     <g font-family="Arial" font-size="13" space="preserve" fill="black" text-anchor="end">
      <text dy=".4em" transform="translate(-3,298)">
       -3
      </text>
      <text dy=".4em" transform="translate(-3,248)">
       -2
      </text>
      <text dy=".4em" transform="translate(-3,199)">
       -1
      </text>
      <text dy=".4em" transform="translate(-3,149)">
       0
      </text>
      <text dy=".4em" transform="translate(-3,99)">
       1
      </text>
      <text dy=".4em" transform="translate(-3,50)">
       2
      </text>
      <text dy=".4em" transform="translate(-3)">
       3
      </text>
     </g>
    </g>
   </g>
  </g>
  <g transform="translate(465,24)" font-family="Arial" font-size="10" space="preserve" fill="black">
   <path d="M0,0H119V89H0Z" style="fill: white; stroke: black; stroke-width: 1;"></path>
   <text text-anchor="middle" dy=".4em" transform="translate(60,7)">
    hb1
   </text>
   <text text-anchor="start" dy=".4em" transform="translate(6,22)">
    Entries
   </text>
   <text text-anchor="end" dy=".4em" transform="translate(113,22)">
    260
   </text>
   <text text-anchor="start" dy=".4em" transform="translate(6,37)">
    Mean x
   </text>
   <text text-anchor="end" dy=".4em" transform="translate(113,37)">
    0.7668
   </text>
   <text text-anchor="start" dy=".4em" transform="translate(6,52)">
    Mean y
   </text>
   <text text-anchor="end" dy=".4em" transform="translate(113,52)">
    0.7743
   </text>
   <text text-anchor="start" dy=".4em" transform="translate(6,67)">
    Std Dev x
   </text>
   <text text-anchor="end" dy=".4em" transform="translate(113,67)">
    0.5726
   </text>
   <text text-anchor="start" dy=".4em" transform="translate(6,82)">
    Std Dev y
   </text>
   <text text-anchor="end" dy=".4em" transform="translate(113,82)">
    0.5440
   </text>
   <path d="M0,15h119" style="stroke: black; stroke-width: 1;"></path>
  </g>
  <g transform="translate(105,2)" font-family="Arial" font-size="15" space="preserve">
   <text fill="black" text-anchor="middle" dy=".4em" transform="translate(193,12)">
    Example of BOX plots with option SAME
   </text>
  </g>
 </g>
</svg>