<svg viewBox="0 0 1200 800" preserveAspectRatio="none" xmlns="http://www.w3.org/2000/svg" width="1200" height="800"><title>ROOT canvas</title><rect x="0" y="0" width="1200" height="800" style="fill: white;"></rect><g transform="translate(120,80)"><title></title><rect x="0" y="0" width="960" height="640" style="fill: white; stroke: black; stroke-width: 1;"></rect><svg x="0" y="0" overflow="hidden" width="960" height="640" viewBox="0 0 960 640"><g objname="htext3" objtype="TH2F"><path palette-index="12" fill="rgb(38,62,168)" d="M864,0v64h96v-64z"></path><path palette-index="25" fill="rgb(22,82,205)" d="M864,576v64h96v-64z"></path><path palette-index="38" fill="rgb(16,100,220)" d="M0,0v64h96v-64z"></path><path palette-index="50" fill="rgb(18,114,217)" d="M0,64v64h96v-64zM96,576v64h96v-64zm576,0v64h96v-64zm96,0v64h96v-64zm96,-64v64h96v-64z"></path><path palette-index="63" fill="rgb(20,129,214)" d="M0,576v64h96v-64zM96,0v64h96v-64zM576,576v64h96v-64zM672,0v64h96v-64zM864,64v64h96v-64z"></path><path palette-index="76" fill="rgb(14,143,209)" d="M0,512v64h96v-64zM0,128v64h96v-64zM96,512v64h96v-64zM192,0v64h96v-64zM768,0v64h96v-64zm96,192v64h96v-64zm0,-64v64h96v-64z"></path><path palette-index="89" fill="rgb(9,157,204)" d="M0,192v64h96v-64zM192,576v64h96v-64zM192,64v64h96v-64zM384,0v64h96v-64zM576,0v64h96v-64zm96,64v64h96v-64zm96,448v64h96v-64zm96,-64v64h96v-64zm0,-128v64h96v-64zm0,-64v64h96v-64z"></path><path palette-index="101" fill="rgb(13,167,195)" d="M0,448v64h96v-64zm96,0v64h96v-64zM96,320v64h96v-64zm0,-64v64h96v-64zM384,576v64h96v-64zm96,0v64h96v-64zm0,-64v64h96v-64zM768,128v64h96v-64zm0,-64v64h96v-64zm96,320v64h96v-64z"></path><path palette-index="114" fill="rgb(30,175,179)" d="M0,384v64h96v-64zM96,64v64h96v-64zm96,64v64h96v-64zm96,448v64h96v-64zm0,-64v64h96v-64zM480,0v64h96v-64zM672,448v64h96v-64z"></path><path palette-index="127" fill="rgb(46,183,164)" d="M0,320v64h96v-64zm96,64v64h96v-64zm96,128v64h96v-64zM288,64v64h96v-64zM288,0v64h96v-64zm96,64v64h96v-64zM672,512v64h96v-64zm96,-64v64h96v-64zm0,-64v64h96v-64zm0,-192v64h96v-64z"></path><path palette-index="140" fill="rgb(82,186,146)" d="M0,256v64h96v-64zM96,192v64h96v-64zm0,-64v64h96v-64zm96,320v64h96v-64zM288,128v64h96v-64zm96,384v64h96v-64zm96,-64v64h96v-64zm0,-320v64h96v-64zm96,384v64h96v-64zm0,-192v64h96v-64zM576,64v64h96v-64zm96,64v64h96v-64zm96,192v64h96v-64zm0,-64v64h96v-64z"></path><path palette-index="152" fill="rgb(116,189,129)" d="M288,448v64h96v-64zm0,-256v64h96v-64zM480,64v64h96v-64zM672,320v64h96v-64z"></path><path palette-index="165" fill="rgb(149,190,113)" d="M192,384v64h96v-64zm0,-64v64h96v-64zm0,-128v64h96v-64zm96,64v64h96v-64zm96,128v64h96v-64z"></path><path palette-index="178" fill="rgb(179,189,101)" d="M192,256v64h96v-64zM384,448v64h96v-64zM576,128v64h96v-64zm96,256v64h96v-64z"></path><path palette-index="191" fill="rgb(209,187,89)" d="M480,192v64h96v-64zm96,192v64h96v-64zm0,-128v64h96v-64zm96,0v64h96v-64z"></path><path palette-index="203" fill="rgb(226,192,75)" d="M384,256v64h96v-64zM576,448v64h96v-64zM672,192v64h96v-64z"></path><path palette-index="216" fill="rgb(244,198,59)" d="M288,384v64h96v-64zm96,-64v64h96v-64zm0,-128v64h96v-64zm0,-64v64h96v-64zm96,256v64h96v-64zm0,-128v64h96v-64zm96,-64v64h96v-64z"></path><path palette-index="229" fill="rgb(253,210,43)" d="M288,320v64h96v-64z"></path><path palette-index="254" fill="rgb(249,249,15)" d="M480,320v64h96v-64z"></path></g><g objname="htext4" objtype="TH2F"><g font-family="Arial" font-size="20" space="preserve"><text text-anchor="middle" x="0" y="0" fill="black" transform="translate(49,622)" dominant-baseline="middle" opacity="1">44</text><text text-anchor="middle" x="0" y="0" fill="black" transform="translate(49,558)" dominant-baseline="middle" opacity="1">45.5000</text><text text-anchor="middle" x="0" y="0" fill="black" transform="translate(49,494)" dominant-baseline="middle" opacity="1">51</text><text text-anchor="middle" x="0" y="0" fill="black" transform="translate(49,430)" dominant-baseline="middle" opacity="1">55</text><text text-anchor="middle" x="0" y="0" fill="black" transform="translate(49,366)" dominant-baseline="middle" opacity="1">57</text><text text-anchor="middle" x="0" y="0" fill="black" transform="translate(49,302)" dominant-baseline="middle" opacity="1">62</text><text text-anchor="middle" x="0" y="0" fill="black" transform="translate(49,238)" dominant-baseline="middle" opacity="1">47.5000</text><text text-anchor="middle" x="0" y="0" fill="black" transform="translate(49,174)" dominant-baseline="middle" opacity="1">45</text><text text-anchor="middle" x="0" y="0" fill="black" transform="translate(49,110)" dominant-baseline="middle" opacity="1">38</text><text text-anchor="middle" x="0" y="0" fill="black" transform="translate(49,46)" dominant-baseline="middle" opacity="1">36</text><text text-anchor="middle" x="0" y="0" fill="black" transform="translate(145,622)" dominant-baseline="middle" opacity="1">39</text><text text-anchor="middle" x="0" y="0" fill="black" transform="translate(145,558)" dominant-baseline="middle" opacity="1">46</text><text text-anchor="middle" x="0" y="0" fill="black" transform="translate(145,494)" dominant-baseline="middle" opacity="1">52.5000</text><text text-anchor="middle" x="0" y="0" fill="black" transform="translate(145,430)" dominant-baseline="middle" opacity="1">58.5000</text><text text-anchor="middle" x="0" y="0" fill="black" transform="translate(145,366)" dominant-baseline="middle" opacity="1">52.5000</text><text text-anchor="middle" x="0" y="0" fill="black" transform="translate(145,302)" dominant-baseline="middle" opacity="1">51.5000</text><text text-anchor="middle" x="0" y="0" fill="black" transform="translate(145,238)" dominant-baseline="middle" opacity="1">60.5000</text><text text-anchor="middle" x="0" y="0" fill="black" transform="translate(145,174)" dominant-baseline="middle" opacity="1">60.5000</text><text text-anchor="middle" x="0" y="0" fill="black" transform="translate(145,110)" dominant-baseline="middle" opacity="1">54</text><text text-anchor="middle" x="0" y="0" fill="black" transform="translate(145,46)" dominant-baseline="middle" opacity="1">42</text><text text-anchor="middle" x="0" y="0" fill="black" transform="translate(241,622)" dominant-baseline="middle" opacity="1">47.5000</text><text text-anchor="middle" x="0" y="0" fill="black" transform="translate(241,558)" dominant-baseline="middle" opacity="1">59.5000</text><text text-anchor="middle" x="0" y="0" fill="black" transform="translate(241,494)" dominant-baseline="middle" opacity="1">62.5000</text><text text-anchor="middle" x="0" y="0" fill="black" transform="translate(241,430)" dominant-baseline="middle" opacity="1">67</text><text text-anchor="middle" x="0" y="0" fill="black" transform="translate(241,366)" dominant-baseline="middle" opacity="1">67</text><text text-anchor="middle" x="0" y="0" fill="black" transform="translate(241,302)" dominant-baseline="middle" opacity="1">72.5000</text><text text-anchor="middle" x="0" y="0" fill="black" transform="translate(241,238)" dominant-baseline="middle" opacity="1">68</text><text text-anchor="middle" x="0" y="0" fill="black" transform="translate(241,174)" dominant-baseline="middle" opacity="1">56</text><text text-anchor="middle" x="0" y="0" fill="black" transform="translate(241,110)" dominant-baseline="middle" opacity="1">50</text><text text-anchor="middle" x="0" y="0" fill="black" transform="translate(241,46)" dominant-baseline="middle" opacity="1">47</text><text text-anchor="middle" x="0" y="0" fill="black" transform="translate(337,622)" dominant-baseline="middle" opacity="1">56.5000</text><text text-anchor="middle" x="0" y="0" fill="black" transform="translate(337,558)" dominant-baseline="middle" opacity="1">54</text><text text-anchor="middle" x="0" y="0" fill="black" transform="translate(337,494)" dominant-baseline="middle" opacity="1">64</text><text text-anchor="middle" x="0" y="0" fill="black" transform="translate(337,430)" dominant-baseline="middle" opacity="1">80</text><text text-anchor="middle" x="0" y="0" fill="black" transform="translate(337,366)" dominant-baseline="middle" opacity="1">83.5000</text><text text-anchor="middle" x="0" y="0" fill="black" transform="translate(337,302)" dominant-baseline="middle" opacity="1">66.5000</text><text text-anchor="middle" x="0" y="0" fill="black" transform="translate(337,238)" dominant-baseline="middle" opacity="1">65</text><text text-anchor="middle" x="0" y="0" fill="black" transform="translate(337,174)" dominant-baseline="middle" opacity="1">62</text><text text-anchor="middle" x="0" y="0" fill="black" transform="translate(337,110)" dominant-baseline="middle" opacity="1">57.5000</text><text text-anchor="middle" x="0" y="0" fill="black" transform="translate(337,46)" dominant-baseline="middle" opacity="1">57.5000</text><text text-anchor="middle" x="0" y="0" fill="black" transform="translate(433,622)" dominant-baseline="middle" opacity="1">53.5000</text><text text-anchor="middle" x="0" y="0" fill="black" transform="translate(433,558)" dominant-baseline="middle" opacity="1">61.5000</text><text text-anchor="middle" x="0" y="0" fill="black" transform="translate(433,494)" dominant-baseline="middle" opacity="1">70</text><text text-anchor="middle" x="0" y="0" fill="black" transform="translate(433,430)" dominant-baseline="middle" opacity="1">69</text><text text-anchor="middle" x="0" y="0" fill="black" transform="translate(433,366)" dominant-baseline="middle" opacity="1">79.5000</text><text text-anchor="middle" x="0" y="0" fill="black" transform="translate(433,302)" dominant-baseline="middle" opacity="1">76.5000</text><text text-anchor="middle" x="0" y="0" fill="black" transform="translate(433,238)" dominant-baseline="middle" opacity="1">79</text><text text-anchor="middle" x="0" y="0" fill="black" transform="translate(433,174)" dominant-baseline="middle" opacity="1">80.5000</text><text text-anchor="middle" x="0" y="0" fill="black" transform="translate(433,110)" dominant-baseline="middle" opacity="1">57</text><text text-anchor="middle" x="0" y="0" fill="black" transform="translate(433,46)" dominant-baseline="middle" opacity="1">50.5000</text><text text-anchor="middle" x="0" y="0" fill="black" transform="translate(529,622)" dominant-baseline="middle" opacity="1">52.5000</text><text text-anchor="middle" x="0" y="0" fill="black" transform="translate(529,558)" dominant-baseline="middle" opacity="1">51.5000</text><text text-anchor="middle" x="0" y="0" fill="black" transform="translate(529,494)" dominant-baseline="middle" opacity="1">62.5000</text><text text-anchor="middle" x="0" y="0" fill="black" transform="translate(529,430)" dominant-baseline="middle" opacity="1">79</text><text text-anchor="middle" x="0" y="0" fill="black" transform="translate(529,366)" dominant-baseline="middle" opacity="1">91.5000</text><text text-anchor="middle" x="0" y="0" fill="black" transform="translate(529,302)" dominant-baseline="middle" opacity="1">81.5000</text><text text-anchor="middle" x="0" y="0" fill="black" transform="translate(529,238)" dominant-baseline="middle" opacity="1">74.5000</text><text text-anchor="middle" x="0" y="0" fill="black" transform="translate(529,174)" dominant-baseline="middle" opacity="1">63</text><text text-anchor="middle" x="0" y="0" fill="black" transform="translate(529,110)" dominant-baseline="middle" opacity="1">66</text><text text-anchor="middle" x="0" y="0" fill="black" transform="translate(529,46)" dominant-baseline="middle" opacity="1">56</text><text text-anchor="middle" x="0" y="0" fill="black" transform="translate(625,622)" dominant-baseline="middle" opacity="1">44</text><text text-anchor="middle" x="0" y="0" fill="black" transform="translate(625,558)" dominant-baseline="middle" opacity="1">60.5000</text><text text-anchor="middle" x="0" y="0" fill="black" transform="translate(625,494)" dominant-baseline="middle" opacity="1">78.5000</text><text text-anchor="middle" x="0" y="0" fill="black" transform="translate(625,430)" dominant-baseline="middle" opacity="1">75.5000</text><text text-anchor="middle" x="0" y="0" fill="black" transform="translate(625,366)" dominant-baseline="middle" opacity="1">61</text><text text-anchor="middle" x="0" y="0" fill="black" transform="translate(625,302)" dominant-baseline="middle" opacity="1">74.5000</text><text text-anchor="middle" x="0" y="0" fill="black" transform="translate(625,238)" dominant-baseline="middle" opacity="1">79.5000</text><text text-anchor="middle" x="0" y="0" fill="black" transform="translate(625,174)" dominant-baseline="middle" opacity="1">71.5000</text><text text-anchor="middle" x="0" y="0" fill="black" transform="translate(625,110)" dominant-baseline="middle" opacity="1">61.5000</text><text text-anchor="middle" x="0" y="0" fill="black" transform="translate(625,46)" dominant-baseline="middle" opacity="1">50.5000</text><text text-anchor="middle" x="0" y="0" fill="black" transform="translate(721,622)" dominant-baseline="middle" opacity="1">38.5000</text><text text-anchor="middle" x="0" y="0" fill="black" transform="translate(721,558)" dominant-baseline="middle" opacity="1">58</text><text text-anchor="middle" x="0" y="0" fill="black" transform="translate(721,494)" dominant-baseline="middle" opacity="1">55.5000</text><text text-anchor="middle" x="0" y="0" fill="black" transform="translate(721,430)" dominant-baseline="middle" opacity="1">70.5000</text><text text-anchor="middle" x="0" y="0" fill="black" transform="translate(721,366)" dominant-baseline="middle" opacity="1">66</text><text text-anchor="middle" x="0" y="0" fill="black" transform="translate(721,302)" dominant-baseline="middle" opacity="1">74</text><text text-anchor="middle" x="0" y="0" fill="black" transform="translate(721,238)" dominant-baseline="middle" opacity="1">78</text><text text-anchor="middle" x="0" y="0" fill="black" transform="translate(721,174)" dominant-baseline="middle" opacity="1">62.5000</text><text text-anchor="middle" x="0" y="0" fill="black" transform="translate(721,110)" dominant-baseline="middle" opacity="1">49</text><text text-anchor="middle" x="0" y="0" fill="black" transform="translate(721,46)" dominant-baseline="middle" opacity="1">43</text><text text-anchor="middle" x="0" y="0" fill="black" transform="translate(817,622)" dominant-baseline="middle" opacity="1">40.5000</text><text text-anchor="middle" x="0" y="0" fill="black" transform="translate(817,558)" dominant-baseline="middle" opacity="1">47.5000</text><text text-anchor="middle" x="0" y="0" fill="black" transform="translate(817,494)" dominant-baseline="middle" opacity="1">59</text><text text-anchor="middle" x="0" y="0" fill="black" transform="translate(817,430)" dominant-baseline="middle" opacity="1">59.5000</text><text text-anchor="middle" x="0" y="0" fill="black" transform="translate(817,366)" dominant-baseline="middle" opacity="1">61</text><text text-anchor="middle" x="0" y="0" fill="black" transform="translate(817,302)" dominant-baseline="middle" opacity="1">61.5000</text><text text-anchor="middle" x="0" y="0" fill="black" transform="translate(817,238)" dominant-baseline="middle" opacity="1">58</text><text text-anchor="middle" x="0" y="0" fill="black" transform="translate(817,174)" dominant-baseline="middle" opacity="1">51</text><text text-anchor="middle" x="0" y="0" fill="black" transform="translate(817,110)" dominant-baseline="middle" opacity="1">52</text><text text-anchor="middle" x="0" y="0" fill="black" transform="translate(817,46)" dominant-baseline="middle" opacity="1">45</text><text text-anchor="middle" x="0" y="0" fill="black" transform="translate(913,622)" dominant-baseline="middle" opacity="1">34</text><text text-anchor="middle" x="0" y="0" fill="black" transform="translate(913,558)" dominant-baseline="middle" opacity="1">38.5000</text><text text-anchor="middle" x="0" y="0" fill="black" transform="translate(913,494)" dominant-baseline="middle" opacity="1">49.5000</text><text text-anchor="middle" x="0" y="0" fill="black" transform="translate(913,430)" dominant-baseline="middle" opacity="1">53.5000</text><text text-anchor="middle" x="0" y="0" fill="black" transform="translate(913,366)" dominant-baseline="middle" opacity="1">47.5000</text><text text-anchor="middle" x="0" y="0" fill="black" transform="translate(913,302)" dominant-baseline="middle" opacity="1">48</text><text text-anchor="middle" x="0" y="0" fill="black" transform="translate(913,238)" dominant-baseline="middle" opacity="1">47</text><text text-anchor="middle" x="0" y="0" fill="black" transform="translate(913,174)" dominant-baseline="middle" opacity="1">44.5000</text><text text-anchor="middle" x="0" y="0" fill="black" transform="translate(913,110)" dominant-baseline="middle" opacity="1">42.5000</text><text text-anchor="middle" x="0" y="0" fill="black" transform="translate(913,46)" dominant-baseline="middle" opacity="1">28.5000</text></g></g><g objname="htext5" objtype="TH2F"><g font-family="Arial" font-size="20" space="preserve"><text text-anchor="middle" x="0" y="0" fill="red" transform="translate(49,597)" dominant-baseline="middle" opacity="1">88</text><text text-anchor="middle" x="0" y="0" fill="red" transform="translate(49,533)" dominant-baseline="middle" opacity="1">91</text><text text-anchor="middle" x="0" y="0" fill="red" transform="translate(49,469)" dominant-baseline="middle" opacity="1">102</text><text text-anchor="middle" x="0" y="0" fill="red" transform="translate(49,405)" dominant-baseline="middle" opacity="1">110</text><text text-anchor="middle" x="0" y="0" fill="red" transform="translate(49,341)" dominant-baseline="middle" opacity="1">114</text><text text-anchor="middle" x="0" y="0" fill="red" transform="translate(49,277)" dominant-baseline="middle" opacity="1">124</text><text text-anchor="middle" x="0" y="0" fill="red" transform="translate(49,213)" dominant-baseline="middle" opacity="1">95</text><text text-anchor="middle" x="0" y="0" fill="red" transform="translate(49,149)" dominant-baseline="middle" opacity="1">90</text><text text-anchor="middle" x="0" y="0" fill="red" transform="translate(49,85)" dominant-baseline="middle" opacity="1">76</text><text text-anchor="middle" x="0" y="0" fill="red" transform="translate(49,21)" dominant-baseline="middle" opacity="1">72</text><text text-anchor="middle" x="0" y="0" fill="red" transform="translate(145,597)" dominant-baseline="middle" opacity="1">78</text><text text-anchor="middle" x="0" y="0" fill="red" transform="translate(145,533)" dominant-baseline="middle" opacity="1">92</text><text text-anchor="middle" x="0" y="0" fill="red" transform="translate(145,469)" dominant-baseline="middle" opacity="1">105</text><text text-anchor="middle" x="0" y="0" fill="red" transform="translate(145,405)" dominant-baseline="middle" opacity="1">117</text><text text-anchor="middle" x="0" y="0" fill="red" transform="translate(145,341)" dominant-baseline="middle" opacity="1">105</text><text text-anchor="middle" x="0" y="0" fill="red" transform="translate(145,277)" dominant-baseline="middle" opacity="1">103</text><text text-anchor="middle" x="0" y="0" fill="red" transform="translate(145,213)" dominant-baseline="middle" opacity="1">121</text><text text-anchor="middle" x="0" y="0" fill="red" transform="translate(145,149)" dominant-baseline="middle" opacity="1">121</text><text text-anchor="middle" x="0" y="0" fill="red" transform="translate(145,85)" dominant-baseline="middle" opacity="1">108</text><text text-anchor="middle" x="0" y="0" fill="red" transform="translate(145,21)" dominant-baseline="middle" opacity="1">84</text><text text-anchor="middle" x="0" y="0" fill="red" transform="translate(241,597)" dominant-baseline="middle" opacity="1">95</text><text text-anchor="middle" x="0" y="0" fill="red" transform="translate(241,533)" dominant-baseline="middle" opacity="1">119</text><text text-anchor="middle" x="0" y="0" fill="red" transform="translate(241,469)" dominant-baseline="middle" opacity="1">125</text><text text-anchor="middle" x="0" y="0" fill="red" transform="translate(241,405)" dominant-baseline="middle" opacity="1">134</text><text text-anchor="middle" x="0" y="0" fill="red" transform="translate(241,341)" dominant-baseline="middle" opacity="1">134</text><text text-anchor="middle" x="0" y="0" fill="red" transform="translate(241,277)" dominant-baseline="middle" opacity="1">145</text><text text-anchor="middle" x="0" y="0" fill="red" transform="translate(241,213)" dominant-baseline="middle" opacity="1">136</text><text text-anchor="middle" x="0" y="0" fill="red" transform="translate(241,149)" dominant-baseline="middle" opacity="1">112</text><text text-anchor="middle" x="0" y="0" fill="red" transform="translate(241,85)" dominant-baseline="middle" opacity="1">100</text><text text-anchor="middle" x="0" y="0" fill="red" transform="translate(241,21)" dominant-baseline="middle" opacity="1">94</text><text text-anchor="middle" x="0" y="0" fill="red" transform="translate(337,597)" dominant-baseline="middle" opacity="1">113</text><text text-anchor="middle" x="0" y="0" fill="red" transform="translate(337,533)" dominant-baseline="middle" opacity="1">108</text><text text-anchor="middle" x="0" y="0" fill="red" transform="translate(337,469)" dominant-baseline="middle" opacity="1">128</text><text text-anchor="middle" x="0" y="0" fill="red" transform="translate(337,405)" dominant-baseline="middle" opacity="1">160</text><text text-anchor="middle" x="0" y="0" fill="red" transform="translate(337,341)" dominant-baseline="middle" opacity="1">167</text><text text-anchor="middle" x="0" y="0" fill="red" transform="translate(337,277)" dominant-baseline="middle" opacity="1">133</text><text text-anchor="middle" x="0" y="0" fill="red" transform="translate(337,213)" dominant-baseline="middle" opacity="1">130</text><text text-anchor="middle" x="0" y="0" fill="red" transform="translate(337,149)" dominant-baseline="middle" opacity="1">124</text><text text-anchor="middle" x="0" y="0" fill="red" transform="translate(337,85)" dominant-baseline="middle" opacity="1">115</text><text text-anchor="middle" x="0" y="0" fill="red" transform="translate(337,21)" dominant-baseline="middle" opacity="1">115</text><text text-anchor="middle" x="0" y="0" fill="red" transform="translate(433,597)" dominant-baseline="middle" opacity="1">107</text><text text-anchor="middle" x="0" y="0" fill="red" transform="translate(433,533)" dominant-baseline="middle" opacity="1">123</text><text text-anchor="middle" x="0" y="0" fill="red" transform="translate(433,469)" dominant-baseline="middle" opacity="1">140</text><text text-anchor="middle" x="0" y="0" fill="red" transform="translate(433,405)" dominant-baseline="middle" opacity="1">138</text><text text-anchor="middle" x="0" y="0" fill="red" transform="translate(433,341)" dominant-baseline="middle" opacity="1">159</text><text text-anchor="middle" x="0" y="0" fill="red" transform="translate(433,277)" dominant-baseline="middle" opacity="1">153</text><text text-anchor="middle" x="0" y="0" fill="red" transform="translate(433,213)" dominant-baseline="middle" opacity="1">158</text><text text-anchor="middle" x="0" y="0" fill="red" transform="translate(433,149)" dominant-baseline="middle" opacity="1">161</text><text text-anchor="middle" x="0" y="0" fill="red" transform="translate(433,85)" dominant-baseline="middle" opacity="1">114</text><text text-anchor="middle" x="0" y="0" fill="red" transform="translate(433,21)" dominant-baseline="middle" opacity="1">101</text><text text-anchor="middle" x="0" y="0" fill="red" transform="translate(529,597)" dominant-baseline="middle" opacity="1">105</text><text text-anchor="middle" x="0" y="0" fill="red" transform="translate(529,533)" dominant-baseline="middle" opacity="1">103</text><text text-anchor="middle" x="0" y="0" fill="red" transform="translate(529,469)" dominant-baseline="middle" opacity="1">125</text><text text-anchor="middle" x="0" y="0" fill="red" transform="translate(529,405)" dominant-baseline="middle" opacity="1">158</text><text text-anchor="middle" x="0" y="0" fill="red" transform="translate(529,341)" dominant-baseline="middle" opacity="1">183</text><text text-anchor="middle" x="0" y="0" fill="red" transform="translate(529,277)" dominant-baseline="middle" opacity="1">163</text><text text-anchor="middle" x="0" y="0" fill="red" transform="translate(529,213)" dominant-baseline="middle" opacity="1">149</text><text text-anchor="middle" x="0" y="0" fill="red" transform="translate(529,149)" dominant-baseline="middle" opacity="1">126</text><text text-anchor="middle" x="0" y="0" fill="red" transform="translate(529,85)" dominant-baseline="middle" opacity="1">132</text><text text-anchor="middle" x="0" y="0" fill="red" transform="translate(529,21)" dominant-baseline="middle" opacity="1">112</text><text text-anchor="middle" x="0" y="0" fill="red" transform="translate(625,597)" dominant-baseline="middle" opacity="1">88</text><text text-anchor="middle" x="0" y="0" fill="red" transform="translate(625,533)" dominant-baseline="middle" opacity="1">121</text><text text-anchor="middle" x="0" y="0" fill="red" transform="translate(625,469)" dominant-baseline="middle" opacity="1">157</text><text text-anchor="middle" x="0" y="0" fill="red" transform="translate(625,405)" dominant-baseline="middle" opacity="1">151</text><text text-anchor="middle" x="0" y="0" fill="red" transform="translate(625,341)" dominant-baseline="middle" opacity="1">122</text><text text-anchor="middle" x="0" y="0" fill="red" transform="translate(625,277)" dominant-baseline="middle" opacity="1">149</text><text text-anchor="middle" x="0" y="0" fill="red" transform="translate(625,213)" dominant-baseline="middle" opacity="1">159</text><text text-anchor="middle" x="0" y="0" fill="red" transform="translate(625,149)" dominant-baseline="middle" opacity="1">143</text><text text-anchor="middle" x="0" y="0" fill="red" transform="translate(625,85)" dominant-baseline="middle" opacity="1">123</text><text text-anchor="middle" x="0" y="0" fill="red" transform="translate(625,21)" dominant-baseline="middle" opacity="1">101</text><text text-anchor="middle" x="0" y="0" fill="red" transform="translate(721,597)" dominant-baseline="middle" opacity="1">77</text><text text-anchor="middle" x="0" y="0" fill="red" transform="translate(721,533)" dominant-baseline="middle" opacity="1">116</text><text text-anchor="middle" x="0" y="0" fill="red" transform="translate(721,469)" dominant-baseline="middle" opacity="1">111</text><text text-anchor="middle" x="0" y="0" fill="red" transform="translate(721,405)" dominant-baseline="middle" opacity="1">141</text><text text-anchor="middle" x="0" y="0" fill="red" transform="translate(721,341)" dominant-baseline="middle" opacity="1">132</text><text text-anchor="middle" x="0" y="0" fill="red" transform="translate(721,277)" dominant-baseline="middle" opacity="1">148</text><text text-anchor="middle" x="0" y="0" fill="red" transform="translate(721,213)" dominant-baseline="middle" opacity="1">156</text><text text-anchor="middle" x="0" y="0" fill="red" transform="translate(721,149)" dominant-baseline="middle" opacity="1">125</text><text text-anchor="middle" x="0" y="0" fill="red" transform="translate(721,85)" dominant-baseline="middle" opacity="1">98</text><text text-anchor="middle" x="0" y="0" fill="red" transform="translate(721,21)" dominant-baseline="middle" opacity="1">86</text><text text-anchor="middle" x="0" y="0" fill="red" transform="translate(817,597)" dominant-baseline="middle" opacity="1">81</text><text text-anchor="middle" x="0" y="0" fill="red" transform="translate(817,533)" dominant-baseline="middle" opacity="1">95</text><text text-anchor="middle" x="0" y="0" fill="red" transform="translate(817,469)" dominant-baseline="middle" opacity="1">118</text><text text-anchor="middle" x="0" y="0" fill="red" transform="translate(817,405)" dominant-baseline="middle" opacity="1">119</text><text text-anchor="middle" x="0" y="0" fill="red" transform="translate(817,341)" dominant-baseline="middle" opacity="1">122</text><text text-anchor="middle" x="0" y="0" fill="red" transform="translate(817,277)" dominant-baseline="middle" opacity="1">123</text><text text-anchor="middle" x="0" y="0" fill="red" transform="translate(817,213)" dominant-baseline="middle" opacity="1">116</text><text text-anchor="middle" x="0" y="0" fill="red" transform="translate(817,149)" dominant-baseline="middle" opacity="1">102</text><text text-anchor="middle" x="0" y="0" fill="red" transform="translate(817,85)" dominant-baseline="middle" opacity="1">104</text><text text-anchor="middle" x="0" y="0" fill="red" transform="translate(817,21)" dominant-baseline="middle" opacity="1">90</text><text text-anchor="middle" x="0" y="0" fill="red" transform="translate(913,597)" dominant-baseline="middle" opacity="1">68</text><text text-anchor="middle" x="0" y="0" fill="red" transform="translate(913,533)" dominant-baseline="middle" opacity="1">77</text><text text-anchor="middle" x="0" y="0" fill="red" transform="translate(913,469)" dominant-baseline="middle" opacity="1">99</text><text text-anchor="middle" x="0" y="0" fill="red" transform="translate(913,405)" dominant-baseline="middle" opacity="1">107</text><text text-anchor="middle" x="0" y="0" fill="red" transform="translate(913,341)" dominant-baseline="middle" opacity="1">95</text><text text-anchor="middle" x="0" y="0" fill="red" transform="translate(913,277)" dominant-baseline="middle" opacity="1">96</text><text text-anchor="middle" x="0" y="0" fill="red" transform="translate(913,213)" dominant-baseline="middle" opacity="1">94</text><text text-anchor="middle" x="0" y="0" fill="red" transform="translate(913,149)" dominant-baseline="middle" opacity="1">89</text><text text-anchor="middle" x="0" y="0" fill="red" transform="translate(913,85)" dominant-baseline="middle" opacity="1">85</text><text text-anchor="middle" x="0" y="0" fill="red" transform="translate(913,21)" dominant-baseline="middle" opacity="1">57</text></g></g></svg><g><g transform="translate(0,640)"><path d="M0,-19v19m24,-10v10m24,-10v10m24,-10v10m24,-10v10m24,-19v19m24,-10v10m24,-10v10m24,-10v10m24,-10v10m24,-19v19m24,-10v10m24,-10v10m24,-10v10m24,-10v10m24,-19v19m24,-10v10m24,-10v10m24,-10v10m24,-10v10m24,-19v19m24,-10v10m24,-10v10m24,-10v10m24,-10v10m24,-19v19m24,-10v10m24,-10v10m24,-10v10m24,-10v10m24,-19v19m24,-10v10m24,-10v10m24,-10v10m24,-10v10m24,-19v19m24,-10v10m24,-10v10m24,-10v10m24,-10v10m24,-19v19" style="stroke: black; stroke-width: 1;"></path><g font-family="Arial" font-size="22" space="preserve"><text fill="black" x="0" y="8" dy=".7em" style="text-anchor: middle;">-4</text><text fill="black" x="120" y="8" dy=".7em" style="text-anchor: middle;">-3</text><text fill="black" x="240" y="8" dy=".7em" style="text-anchor: middle;">-2</text><text fill="black" x="360" y="8" dy=".7em" style="text-anchor: middle;">-1</text><text fill="black" x="480" y="8" dy=".7em" style="text-anchor: middle;">0</text><text fill="black" x="600" y="8" dy=".7em" style="text-anchor: middle;">1</text><text fill="black" x="720" y="8" dy=".7em" style="text-anchor: middle;">2</text><text fill="black" x="840" y="8" dy=".7em" style="text-anchor: middle;">3</text><text fill="black" x="960" y="8" dy=".7em" style="text-anchor: middle;">4</text></g></g><g><path d="M29,640h-29m15,-16h-15m15,-16h-15m15,-16h-15m15,-16h-15m29,-16h-29m15,-16h-15m15,-16h-15m15,-16h-15m15,-16h-15m29,-16h-29m15,-16h-15m15,-16h-15m15,-16h-15m15,-16h-15m29,-16h-29m15,-16h-15m15,-16h-15m15,-16h-15m15,-16h-15m29,-16h-29m15,-16h-15m15,-16h-15m15,-16h-15m15,-16h-15m29,-16h-29m15,-16h-15m15,-16h-15m15,-16h-15m15,-16h-15m29,-16h-29m15,-16h-15m15,-16h-15m15,-16h-15m15,-16h-15m29,-16h-29m15,-16h-15m15,-16h-15m15,-16h-15m15,-16h-15m29,-16h-29" style="stroke: black; stroke-width: 1;"></path><g font-family="Arial" font-size="22" space="preserve"><text fill="black" x="-8" y="640" style="text-anchor: end; dominant-baseline: middle;">-20</text><text fill="black" x="-8" y="560" style="text-anchor: end; dominant-baseline: middle;">-15</text><text fill="black" x="-8" y="480" style="text-anchor: end; dominant-baseline: middle;">-10</text><text fill="black" x="-8" y="400" style="text-anchor: end; dominant-baseline: middle;">-5</text><text fill="black" x="-8" y="320" style="text-anchor: end; dominant-baseline: middle;">0</text><text fill="black" x="-8" y="240" style="text-anchor: end; dominant-baseline: middle;">5</text><text fill="black" x="-8" y="160" style="text-anchor: end; dominant-baseline: middle;">10</text><text fill="black" x="-8" y="80" style="text-anchor: end; dominant-baseline: middle;">15</text><text fill="black" x="-8" y="0" style="text-anchor: end; dominant-baseline: middle;">20</text></g></g></g></g><g><g objname="title" objtype="TPaveText" transform="translate(220,4)" font-family="Arial" font-size="41" space="preserve"><path d="M0,0h760v52h-760z" style="fill: none;"></path><text text-anchor="middle" x="0" y="0" fill="black" transform="translate(380,27)" dominant-baseline="middle" opacity="1">Several 2D histograms drawn with option TEXT</text></g></g></svg>