<svg viewBox="0 0 1200 800" preserveAspectRatio="none" xmlns="http://www.w3.org/2000/svg" width="1200" height="800"><title>ROOT canvas</title><rect x="0" y="0" width="1200" height="800" style="fill: white;"></rect><g><g transform="translate(120,80)"><title></title><rect x="0" y="0" width="960" height="640" style="fill: white; stroke: black; stroke-width: 1;"></rect><svg x="0" y="0" overflow="hidden" width="960" height="640" viewBox="0 0 960 640"><g objname="hbox" objtype="TH2F"><path d="M114,503v62h92v-62zM68,258v123h185v-123zM80,53v107h160v-107zM415,490v87h131v-87zM320,213v213h320v-213zM367,31v151h226v-151zM708,472v123h185v-123zM687,245v151h226v-151zM767,85v44h65v-44z" style="fill: rgb(222,186,135); stroke: none;"></path><path d="M367,31l226,151M593,31l-226,151M708,472l185,123M893,472l-185,123" style="fill: none; stroke: rgb(0,0,153); stroke-width: 1;"></path></g></svg><g><g transform="translate(0,640)"><path d="M0,-24v24m32,-12v12m32,-12v12m32,-12v12m32,-12v12m32,-24v24m32,-12v12m32,-12v12m32,-12v12m32,-12v12m32,-24v24m32,-12v12m32,-12v12m32,-12v12m32,-12v12m32,-24v24m32,-12v12m32,-12v12m32,-12v12m32,-12v12m32,-24v24m32,-12v12m32,-12v12m32,-12v12m32,-12v12m32,-24v24m32,-12v12m32,-12v12m32,-12v12m32,-12v12m32,-24v24" style="stroke: black; stroke-width: 1;"></path><g font-family="Arial" font-size="28" space="preserve"><text text-anchor="middle" x="0" y="0" fill="black" transform="translate(0,6)" dy=".8em">0</text><text text-anchor="middle" x="0" y="0" fill="black" transform="translate(160,6)" dy=".8em">0.5</text><text text-anchor="middle" x="0" y="0" fill="black" transform="translate(320,6)" dy=".8em">1</text><text text-anchor="middle" x="0" y="0" fill="black" transform="translate(480,6)" dy=".8em">1.5</text><text text-anchor="middle" x="0" y="0" fill="black" transform="translate(640,6)" dy=".8em">2</text><text text-anchor="middle" x="0" y="0" fill="black" transform="translate(800,6)" dy=".8em">2.5</text><text text-anchor="middle" x="0" y="0" fill="black" transform="translate(960,6)" dy=".8em">3</text></g></g><g><path d="M36,640h-36m18,-21h-18m18,-22h-18m18,-21h-18m18,-21h-18m36,-22h-36m18,-21h-18m18,-21h-18m18,-22h-18m18,-21h-18m36,-21h-36m18,-22h-18m18,-21h-18m18,-21h-18m18,-22h-18m36,-21h-36m18,-21h-18m18,-22h-18m18,-21h-18m18,-21h-18m36,-22h-36m18,-21h-18m18,-21h-18m18,-22h-18m18,-21h-18m36,-21h-36m18,-22h-18m18,-21h-18m18,-21h-18m18,-22h-18m36,-21h-36" style="stroke: black; stroke-width: 1;"></path><g font-family="Arial" font-size="28" space="preserve"><text text-anchor="end" x="0" y="0" fill="black" transform="translate(-4,640)" dominant-baseline="middle">0</text><text text-anchor="end" x="0" y="0" fill="black" transform="translate(-4,533)" dominant-baseline="middle">0.5</text><text text-anchor="end" x="0" y="0" fill="black" transform="translate(-4,427)" dominant-baseline="middle">1</text><text text-anchor="end" x="0" y="0" fill="black" transform="translate(-4,320)" dominant-baseline="middle">1.5</text><text text-anchor="end" x="0" y="0" fill="black" transform="translate(-4,213)" dominant-baseline="middle">2</text><text text-anchor="end" x="0" y="0" fill="black" transform="translate(-4,107)" dominant-baseline="middle">2.5</text><text text-anchor="end" x="0" y="0" fill="black" transform="translate(-4,0)" dominant-baseline="middle">3</text></g></g></g></g><g objname="title" objtype="TPaveText" transform="translate(398,4)" font-family="Arial" font-size="39" space="preserve"><path d="M0,0h405v52h-405z" style="fill: none;"></path><text text-anchor="middle" x="0" y="0" fill="black" transform="translate(203,27)" dominant-baseline="middle" opacity="1">Option BOX example</text></g><g objname="stats" objtype="TPaveStats" transform="translate(936,52)" font-family="Arial" font-size="22" space="preserve"><path d="M0,0h240v192h-240z" style="fill: white; stroke: black; stroke-width: 1;"></path><text text-anchor="middle" x="0" y="0" fill="black" transform="translate(120,17)" dominant-baseline="middle" opacity="1">hbox</text><text text-anchor="start" x="0" y="0" fill="black" transform="translate(12,49)" dominant-baseline="middle" opacity="1">Entries </text><text text-anchor="end" x="0" y="0" fill="black" transform="translate(228,49)" dominant-baseline="middle" opacity="1"> 9</text><text text-anchor="start" x="0" y="0" fill="black" transform="translate(12,81)" dominant-baseline="middle" opacity="1">Mean x </text><text text-anchor="end" x="0" y="0" fill="black" transform="translate(228,81)" dominant-baseline="middle" opacity="1"> 1.203</text><text text-anchor="start" x="0" y="0" fill="black" transform="translate(12,113)" dominant-baseline="middle" opacity="1">Mean y </text><text text-anchor="end" x="0" y="0" fill="black" transform="translate(228,113)" dominant-baseline="middle" opacity="1"> 1.419</text><text text-anchor="start" x="0" y="0" fill="black" transform="translate(12,145)" dominant-baseline="middle" opacity="1">Std Dev x </text><text text-anchor="end" x="0" y="0" fill="black" transform="translate(228,145)" dominant-baseline="middle" opacity="1"> 0.6922</text><text text-anchor="start" x="0" y="0" fill="black" transform="translate(12,177)" dominant-baseline="middle" opacity="1">Std Dev y </text><text text-anchor="end" x="0" y="0" fill="black" transform="translate(228,177)" dominant-baseline="middle" opacity="1"> 0.4425</text><path d="M0,32h240" style="stroke: black; stroke-width: 1;"></path></g></g></svg>