<svg xmlns="http://www.w3.org/2000/svg" viewBox="0 0 1200 800" preserveAspectRatio="none">
 <path d="M0,0H1200V800H0Z" style="fill: white;"></path>
 <g>
  <g transform="translate(120,80)">
   <path d="M0,0H960V640H0Z" style="fill: white; stroke: black; stroke-width: 1;"></path>
   <svg x="0" y="0" overflow="hidden" width="960" height="640" viewBox="0 0 960 640">
    <g>
     <path fill="rgb(16, 100, 220)" d="M640,256h53v256h-53zm53,0h54v256h-54zm54,0h53v256h-53z"></path>
     <path fill="rgb(46, 183, 164)" d="M107,128h53v256h-53zM427,512h53v128h-53zm53,0h53v128h-53zm53,0h54v128h-54zm54,0h53v128h-53zm53,0h53v128h-53zm53,0h54v128h-54z"></path>
     <path fill="rgb(82, 186, 146)" d="M800,256h53v256h-53zm53,0h54v256h-54zm54,0h53v256h-53z"></path>
     <path fill="rgb(116, 189, 129)" d="M0,0h53v128h-53zM53,0h54v128h-54zm54,0h53v128h-53zm53,512h53v128h-53zm53,0h54v128h-54z"></path>
     <path fill="rgb(149, 190, 113)" d="M480,256h53v256h-53zm53,0h54v256h-54zm54,0h53v256h-53z"></path>
     <path fill="rgb(179, 189, 101)" d="M747,512h53v128h-53zm53,0h53v128h-53zm53,0h54v128h-54zm54,0h53v128h-53z"></path>
     <path fill="rgb(209, 187, 89)" d="M160,0h53v256h-53zm53,0h54v256h-54zm54,0h53v256h-53zm53,0h53v256h-53zm53,0h54v256h-54zm54,0h53v256h-53zm53,0h53v256h-53zm53,0h54v256h-54zm54,0h53v256h-53zm53,0h53v256h-53zm53,0h54v256h-54zm54,0h53v256h-53zm53,0h53v256h-53zm53,0h54v256h-54zm54,0h53v256h-53z"></path>
     <path fill="rgb(253, 210, 43)" d="M267,512h53v128h-53zM320,256h53v384h-53zm53,0h54v384h-54zm54,0h53v256h-53z"></path>
     <path fill="rgb(249, 249, 15)" d="M160,256h53v256h-53zm53,0h54v256h-54zm54,0h53v256h-53z"></path>
    </g>
   </svg>
   <g>
    <g transform="translate(0,640)">
     <path d="M0,0h960M0,-10V0M27,-10V0M53,-19V0M80,-10V0M107,-10V0M133,-10V0M160,-19V0M187,-10V0M213,-10V0M240,-10V0M267,-19V0M293,-10V0M320,-10V0M347,-10V0M373,-19V0M400,-10V0M427,-10V0M453,-10V0M480,-19V0M507,-10V0M533,-10V0M560,-10V0M587,-19V0M613,-10V0M640,-10V0M667,-10V0M693,-19V0M720,-10V0M747,-10V0M773,-10V0M800,-19V0M827,-10V0M853,-10V0M880,-10V0M907,-19V0M933,-10V0M960,-10V0" style="stroke: black; stroke-width: 1;"></path>
     <g font-family="Arial" font-size="28" xml:space="preserve" fill="black" text-anchor="middle"><text dy=".8em" transform="translate(53,5)">2</text><text dy=".8em" transform="translate(160,5)">4</text><text dy=".8em" transform="translate(267,5)">6</text><text dy=".8em" transform="translate(373,5)">8</text><text dy=".8em" transform="translate(480,5)">10</text><text dy=".8em" transform="translate(587,5)">12</text><text dy=".8em" transform="translate(693,5)">14</text><text dy=".8em" transform="translate(800,5)">16</text><text dy=".8em" transform="translate(907,5)">18</text></g>
     <g font-family="Arial" font-size="28" xml:space="preserve" transform="translate(960,45)"><text fill="black" text-anchor="end" dominant-baseline="middle">(Colour scale)Energy[ADC Counts]</text></g>
    </g>
    <g>
     <path d="M0,0v640M29,640H0M15,627H0M15,614H0M15,602H0M15,589H0M29,576H0M15,563H0M15,550H0M15,538H0M15,525H0M29,512H0M15,499H0M15,486H0M15,474H0M15,461H0M29,448H0M15,435H0M15,422H0M15,410H0M15,397H0M29,384H0M15,371H0M15,358H0M15,346H0M15,333H0M29,320H0M15,307H0M15,294H0M15,282H0M15,269H0M29,256H0M15,243H0M15,230H0M15,218H0M15,205H0M29,192H0M15,179H0M15,166H0M15,154H0M15,141H0M29,128H0M15,115H0M15,102H0M15,90H0M15,77H0M29,64H0M15,51H0M15,38H0M15,26H0M15,13H0M29,0H0" style="stroke: black; stroke-width: 1;"></path>
     <g font-family="Arial" font-size="28" xml:space="preserve" fill="black" text-anchor="end"><text dominant-baseline="middle" transform="translate(-6,640)">1</text><text dominant-baseline="middle" transform="translate(-6,576)">1.5</text><text dominant-baseline="middle" transform="translate(-6,512)">2</text><text dominant-baseline="middle" transform="translate(-6,448)">2.5</text><text dominant-baseline="middle" transform="translate(-6,384)">3</text><text dominant-baseline="middle" transform="translate(-6,320)">3.5</text><text dominant-baseline="middle" transform="translate(-6,256)">4</text><text dominant-baseline="middle" transform="translate(-6,192)">4.5</text><text dominant-baseline="middle" transform="translate(-6,128)">5</text><text dominant-baseline="middle" transform="translate(-6,64)">5.5</text><text dominant-baseline="middle" transform="translate(-6)">6</text></g>
    </g>
   </g>
  </g>
  <g transform="translate(1086,80)">
   <path d="M0,0H48V640H0Z" style="fill: none; stroke: black; stroke-width: 1;"></path>
   <path d="M0,608H48V640H0Z" style="fill: rgb(22, 82, 205);"></path>
   <path d="M0,576H48V609H0Z" style="fill: rgb(22, 82, 205);"></path>
   <path d="M0,544H48V577H0Z" style="fill: rgb(16, 100, 220);"></path>
   <path d="M0,512H48V545H0Z" style="fill: rgb(18, 114, 217);"></path>
   <path d="M0,480H48V513H0Z" style="fill: rgb(20, 129, 214);"></path>
   <path d="M0,448H48V481H0Z" style="fill: rgb(14, 143, 209);"></path>
   <path d="M0,416H48V449H0Z" style="fill: rgb(9, 157, 204);"></path>
   <path d="M0,384H48V417H0Z" style="fill: rgb(13, 167, 195);"></path>
   <path d="M0,352H48V385H0Z" style="fill: rgb(30, 175, 179);"></path>
   <path d="M0,320H48V353H0Z" style="fill: rgb(46, 183, 164);"></path>
   <path d="M0,288H48V321H0Z" style="fill: rgb(82, 186, 146);"></path>
   <path d="M0,256H48V289H0Z" style="fill: rgb(116, 189, 129);"></path>
   <path d="M0,224H48V257H0Z" style="fill: rgb(149, 190, 113);"></path>
   <path d="M0,192H48V225H0Z" style="fill: rgb(179, 189, 101);"></path>
   <path d="M0,160H48V193H0Z" style="fill: rgb(209, 187, 89);"></path>
   <path d="M0,128H48V161H0Z" style="fill: rgb(226, 192, 75);"></path>
   <path d="M0,96H48V129H0Z" style="fill: rgb(244, 198, 59);"></path>
   <path d="M0,64H48V97H0Z" style="fill: rgb(253, 210, 43);"></path>
   <path d="M0,32H48V65H0Z" style="fill: rgb(251, 230, 29);"></path>
   <path d="M0,0H48V33H0Z" style="fill: rgb(249, 249, 15);"></path>
   <g transform="translate(48)">
    <path d="M0,0v640M0,640H-29M0,580H-29M0,520H-29M0,460H-29M0,401H-29M0,341H-29M0,281H-29M0,221H-29M0,161H-29M0,101H-29M0,42H-29" style="stroke: black; stroke-width: 1;"></path>
    <g font-family="Arial" font-size="28" xml:space="preserve"><text fill="black" text-anchor="start" dominant-baseline="middle" transform="translate(6,640)">0</text><text fill="black" text-anchor="start" dominant-baseline="middle" transform="translate(6,580)">1</text><text fill="black" text-anchor="start" dominant-baseline="middle" transform="translate(6,520)">2</text><text fill="black" text-anchor="start" dominant-baseline="middle" transform="translate(6,460)">3</text><text fill="black" text-anchor="start" dominant-baseline="middle" transform="translate(6,401)">4</text><text fill="black" text-anchor="start" dominant-baseline="middle" transform="translate(6,341)">5</text><text fill="black" text-anchor="start" dominant-baseline="middle" transform="translate(6,281)">6</text><text fill="black" text-anchor="start" dominant-baseline="middle" transform="translate(6,221)">7</text><text fill="black" text-anchor="start" dominant-baseline="middle" transform="translate(6,161)">8</text><text fill="black" text-anchor="start" dominant-baseline="middle" transform="translate(6,101)">9</text><text fill="black" text-anchor="start" dominant-baseline="middle" transform="translate(6,42)">10</text><g transform="translate(-61,-10)"><text fill="black" font-size="28">×10</text><text fill="black" font-size="17" transform="translate(47,-15)">6</text></g></g>
    <g font-family="Arial" font-size="28" xml:space="preserve" transform="translate(67)"><text fill="black" text-anchor="end" dominant-baseline="middle" transform="rotate(270)">Energy[ADC Counts]</text></g>
   </g>
  </g>
  <g transform="translate(120,4)" font-family="Arial" font-size="40" xml:space="preserve"><text fill="black" text-anchor="middle" dy=".8em" transform="translate(480)">HitMap</text></g>
 </g>
</svg>