<svg xmlns="http://www.w3.org/2000/svg" viewBox="0 0 1200 800" preserveAspectRatio="none" width="1200" height="800">
 <title>
  ROOT canvas
 </title>
 <path d="M0,0H1200V800H0Z" style="fill: none;"></path>
 <g>
  <g transform="translate(120,80)">
   <title></title>
   <path d="M0,0H960V640H0Z" style="fill: white; stroke: black; stroke-width: 1;"></path>
   <svg x="0" y="0" overflow="hidden" width="960" height="640" viewBox="0 0 960 640">
    <g>
     <path fill="#263ea8" d="M0,32h1v3h-1zM0,208h1v3h-1zM0,320h1v3h-1zM0,70h1v4h-1zm0,32h1v7h-1zm0,48h1v4h-1zM0,301h1v3h-1zm0,22h1v3h-1zM1,3h1v7h-1zM1,19h1v3h-1zM1,48h1v6h-1zM1,64h1v3h-1zM1,77h1v3h-1zm0,38h1v3h-1zm0,7h1v3h-1zm0,6h1v3h-1zm0,6h1v4h-1zm0,7h1v3h-1zm0,9h1v7h-1zm0,13h1v3h-1zm0,10h1v3h-1zm0,13h1v3h-1zm0,6h1v3h-1zm0,6h1v4h-1zm0,10h1v3h-1zm0,6h1v4h-1zm0,7h1v3h-1zm0,9h1v4h-1zm0,61h1v3h-1zm0,16h1v3h-1zm0,13h1v3h-1zm0,10h1v6h-1zm0,12h1v4h-1zM1,486h1v4h-1zM1,0h1v6h-1zM1,10h1v6h-1zm0,9h1v10h-1zM1,38h1v23h-1zM1,64h1v16h-1zM1,90h1v38h-1zm0,41h1v19h-1zm0,23h1v22h-1zm0,28h1v7h-1zm0,10h1v6h-1zm0,10h1v12h-1zm0,16h1v12h-1zm0,16h1v6h-1zm0,9h1v7h-1zm0,10h1v3h-1zm0,6h1v16h-1zm0,19h1v61h-1zm0,64h1v16h-1zm0,20h1v9h-1zm0,16h1v3h-1zm0,9h1v3h-1zm0,13h1v3h-1zm0,6h1v4h-1zM1,0h1v390h-1zM1,394h1v6h-1zm0,22h1v3h-1zm0,26h1v3h-1zM1,0h1v400h-1zM1,403h1v7h-1zm0,13h1v10h-1zm0,13h1v9h-1zm0,13h1v3h-1zm0,9h1v3h-1zm0,13h1v3h-1zm0,45h1v3h-1zM1,0h1v419h-1zM1,422h1v4h-1zm0,7h1v13h-1zm0,16h1v3h-1zm0,9h1v7h-1zM1,0h1v109h-1zM1,112h1v6h-1zm0,32h1v3h-1zm0,16h1v6h-1zm0,10h1v243h-1zM1,416h1v16h-1zm0,19h1v3h-1zm0,7h1v3h-1zm0,6h1v3h-1zM1,0h1v86h-1zM1,90h1v3h-1zm0,9h1v3h-1zm0,93h1v224h-1zM1,419h1v16h-1zm0,19h1v16h-1zm0,26h1v3h-1zm0,22h1v4h-1zm0,16h1v4h-1zM1,0h1v90h-1zM1,93h1v3h-1zM1,224h1v3h-1zm0,6h1v208h-1zM1,442h1v12h-1zm0,16h1v3h-1zm0,22h1v3h-1zM2,0h1v93h-1zM2,96h1v3h-1zM2,234h1v86h-1zm0,89h1v122h-1zM2,448h1v3h-1zm0,6h1v4h-1zm0,7h1v3h-1zm0,19h1v6h-1zM2,0h1v102h-1zM2,259h1v3h-1zm0,7h1v64h-1zm0,67h1v118h-1zM2,454h1v7h-1zm0,10h1v3h-1zm0,13h1v3h-1zm0,13h1v6h-1zM2,0h1v115h-1zM2,275h1v16h-1zm0,19h1v10h-1zm0,29h1v3h-1zm0,7h1v3h-1zm0,6h1v112h-1zM2,454h1v10h-1zm0,13h1v16h-1zm0,29h1v3h-1zM2,0h1v115h-1zM2,339h1v109h-1zM2,451h1v7h-1zm0,10h1v9h-1zm0,13h1v3h-1zm0,9h1v3h-1zm0,26h1v3h-1zM2,0h1v125h-1zM2,339h1v3h-1zm0,10h1v109h-1zM2,470h1v7h-1zm0,16h1v4h-1zm0,10h1v3h-1zm0,16h1v3h-1zm0,10h1v6h-1zM2,0h1v138h-1zM2,349h1v3h-1zm0,6h1v80h-1zm0,83h1v29h-1zm0,32h1v4h-1zm0,7h1v3h-1zm0,9h1v4h-1zm0,16h1v4h-1zM2,0h1v147h-1zM2,349h1v3h-1zm0,6h1v103h-1zM2,461h1v3h-1zm0,6h1v3h-1zm0,7h1v6h-1zm0,9h1v3h-1zM3,0h1v150h-1zM3,352h1v134h-1zM3,490h1v3h-1zm0,25h1v3h-1zM3,0h1v154h-1zM3,157h1v3h-1zM3,355h1v109h-1zM3,467h1v3h-1zm0,7h1v3h-1zm0,6h1v3h-1zm0,6h1v4h-1zm0,13h1v3h-1zm0,16h1v3h-1zM3,0h1v163h-1zM3,362h1v96h-1zm0,99h1v16h-1zm0,19h1v6h-1zm0,13h1v3h-1zm0,35h1v3h-1zM3,0h1v170h-1zM3,362h1v105h-1zM3,470h1v4h-1zm0,7h1v3h-1zm0,6h1v7h-1zm0,10h1v6h-1zM3,0h1v13h-1zM3,16h1v160h-1zM3,362h1v128h-1zM3,531h1v3h-1zM4,0h1v6h-1zM4,10h1v41h-1zM4,54h1v125h-1zM4,182h1v4h-1zM4,365h1v109h-1zM4,477h1v6h-1zm0,29h1v3h-1zm0,6h1v3h-1zm0,6h1v4h-1zm0,10h1v3h-1zM4,0h1v186h-1zM4,371h1v119h-1zM4,496h1v6h-1zM4,0h1v6h-1zM4,13h1v9h-1zM4,26h1v163h-1zM4,371h1v99h-1zM4,474h1v3h-1zm0,6h1v6h-1zm0,10h1v9h-1zm0,16h1v3h-1zm0,6h1v3h-1zm0,19h1v3h-1zM4,0h1v35h-1zM4,38h1v154h-1zM4,198h1v4h-1zM4,378h1v102h-1zM4,483h1v7h-1zm0,13h1v6h-1zm0,26h1v3h-1zM4,0h1v13h-1zM4,19h1v176h-1zM4,378h1v102h-1zM4,496h1v3h-1zm0,6h1v7h-1zM5,0h1v3h-1zM5,6h1v13h-1zM5,22h1v173h-1zM5,198h1v7h-1zM5,381h1v96h-1zM5,483h1v19h-1zm0,23h1v3h-1zm0,16h1v3h-1zM5,0h1v208h-1zM5,384h1v102h-1zM5,490h1v3h-1zm0,6h1v3h-1zm0,6h1v4h-1zm0,10h1v3h-1zM5,3h1v13h-1zM5,19h1v19h-1zM5,42h1v166h-1zM5,384h1v99h-1zM5,486h1v13h-1zm0,16h1v4h-1zm0,7h1v6h-1zM5,0h1v16h-1zM5,22h1v13h-1zM5,38h1v173h-1zM5,394h1v96h-1zM5,499h1v7h-1zm0,10h1v6h-1zm0,9h1v4h-1zM6,3h1v13h-1zM6,19h1v195h-1zM6,218h1v3h-1zM6,390h1v96h-1zM6,496h1v6h-1zM6,6h1v4h-1zM6,19h1v55h-1zM6,77h1v147h-1zM6,394h1v86h-1zm0,89h1v7h-1zm0,13h1v3h-1zm0,6h1v7h-1zm0,13h1v3h-1zm0,10h1v3h-1zM6,0h1v6h-1zM6,10h1v6h-1zm0,9h1v10h-1zM6,32h1v189h-1zM6,224h1v3h-1zM6,394h1v92h-1zM6,496h1v3h-1zm0,6h1v4h-1zm0,7h1v3h-1zm0,29h1v3h-1zM6,0h1v224h-1zM6,227h1v3h-1zM6,400h1v83h-1zm0,86h1v7h-1zm0,20h1v3h-1zm0,6h1v6h-1zM7,0h1v6h-1zM7,13h1v38h-1zM7,58h1v166h-1zM7,403h1v103h-1zM7,509h1v6h-1zm0,9h1v4h-1zM7,0h1v6h-1zM7,10h1v6h-1zm0,9h1v26h-1zM7,51h1v183h-1zM7,403h1v3h-1zm0,7h1v99h-1zM7,525h1v3h-1zm0,19h1v3h-1zM7,0h1v38h-1zM7,42h1v192h-1zM7,406h1v90h-1zm0,93h1v3h-1zm0,7h1v3h-1zm0,9h1v3h-1zm0,7h1v3h-1zM7,0h1v234h-1zM7,237h1v3h-1zM7,406h1v112h-1zM7,544h1v3h-1zM8,0h1v234h-1zM8,410h1v83h-1zm0,86h1v6h-1zm0,10h1v3h-1zm0,9h1v10h-1zm0,26h1v3h-1zM8,0h1v240h-1zM8,413h1v86h-1zm0,89h1v4h-1zm0,10h1v3h-1zm0,6h1v4h-1zm0,13h1v3h-1zM8,0h1v243h-1zM8,416h1v93h-1zM9,0h1v240h-1zM9,413h1v83h-1zm0,86h1v13h-1zm0,16h1v3h-1zm0,13h1v3h-1zm0,13h1v3h-1zm0,19h1v3h-1zM9,0h1v243h-1zM9,419h1v87h-1zm0,90h1v3h-1zm0,13h1v3h-1zm0,6h1v3h-1zM9,0h1v243h-1zM9,246h1v4h-1zM9,419h1v96h-1zM10,0h1v243h-1zm0,416h1v3h-1zm0,6h1v74h-1zm0,77h1v7h-1zm0,19h1v4h-1zm0,20h1v3h-1zM10,0h1v243h-1zm0,426h1v83h-1zm0,86h1v6h-1zm0,16h1v3h-1zm0,6h1v4h-1zM11,0h1v246h-1zm0,426h1v80h-1zm0,86h1v3h-1zm0,13h1v6h-1zm0,9h1v4h-1zM11,0h1v246h-1zm0,422h1v71h-1zm0,74h1v19h-1zm0,26h1v3h-1zM11,0h1v240h-1zm0,243h1v7h-1zm0,179h1v77h-1zm0,80h1v10h-1zm0,29h1v3h-1zm0,7h1v6h-1zM12,0h1v246h-1zm0,426h1v83h-1zm0,86h1v3h-1zm0,10h1v6h-1zM12,0h1v246h-1zm0,426h1v83h-1zm0,86h1v13h-1zm0,16h1v3h-1zm0,10h1v3h-1zM13,0h1v246h-1zm0,422h1v4h-1zm0,7h1v80h-1zm0,83h1v10h-1zm0,19h1v3h-1zM13,0h1v186h-1zm0,198h1v7h-1zm0,13h1v19h-1zm0,23h1v9h-1zm0,195h1v57h-1zm0,61h1v28h-1zm0,38h1v3h-1zM14,0h1v182h-1zm0,189h1v3h-1zm0,29h1v3h-1zm0,208h1v76h-1zm0,80h1v3h-1zm0,6h1v6h-1zm0,10h1v6h-1zm0,9h1v3h-1zM14,0h1v182h-1zm0,186h1v9h-1zm0,240h1v76h-1zm0,80h1v9h-1zm0,12h1v4h-1zm0,7h1v6h-1zM15,0h1v186h-1zm0,192h1v6h-1zm0,237h1v89h-1zm0,96h1v6h-1zm0,9h1v7h-1zM15,0h1v198h-1zm0,202h1v3h-1zm0,224h1v3h-1zm0,6h1v58h-1zm0,61h1v13h-1zm0,16h1v6h-1zm0,13h1v3h-1zm0,19h1v3h-1zM16,0h1v202h-1zm0,208h1v3h-1zm0,218h1v73h-1zm0,76h1v16h-1zm0,29h1v3h-1zm0,16h1v3h-1zM16,0h1v214h-1zm0,429h1v93h-1zm0,96h1v6h-1zm0,16h1v3h-1zM17,0h1v211h-1zm0,429h1v77h-1zm0,80h1v6h-1zm0,13h1v3h-1zM17,0h1v224h-1zm0,429h1v80h-1zm0,83h1v3h-1zm0,10h1v3h-1zm0,12h1v4h-1zM18,0h1v218h-1zm0,426h1v3h-1zm0,6h1v70h-1zm0,77h1v6h-1zm0,9h1v4h-1zM18,0h1v224h-1zm0,227h1v3h-1zm0,199h1v83h-1zm0,86h1v10h-1zm0,16h1v3h-1zM19,0h1v227h-1zm0,426h1v83h-1zm0,86h1v6h-1zm0,10h1v6h-1zM20,0h1v230h-1zm0,426h1v73h-1zm0,76h1v4h-1zm0,7h1v6h-1zm0,19h1v3h-1zM20,0h1v230h-1zm0,429h1v86h-1zm0,96h1v3h-1zm0,6h1v3h-1zM21,0h1v234h-1zm0,426h1v89h-1zm0,92h1v4h-1zm0,13h1v7h-1zM22,0h1v237h-1zm0,240h1v3h-1zm0,189h1v77h-1zm0,80h1v13h-1zm0,22h1v10h-1zM23,0h1v240h-1zm0,429h1v93h-1zm0,109h1v3h-1zM23,0h1v128h-1zm0,131h1v109h-1zm0,295h1v86h-1zm0,89h1v7h-1zm0,10h1v3h-1zm0,38h1v3h-1zM24,0h1v138h-1zm0,147h1v96h-1zm0,99h1v4h-1zm0,183h1v77h-1zm0,80h1v3h-1zm0,9h1v4h-1zm0,10h1v3h-1zM25,0h1v144h-1zm0,147h1v3h-1zm0,10h1v3h-1zm0,6h1v3h-1zm0,7h1v3h-1zm0,9h1v64h-1zm0,67h1v4h-1zm0,180h1v89h-1zm0,99h1v3h-1zm0,9h1v4h-1zM26,0h1v154h-1zm0,166h1v4h-1zm0,23h1v3h-1zm0,16h1v32h-1zm0,221h1v70h-1zm0,73h1v23h-1zM26,0h1v160h-1zm0,163h1v3h-1zm0,7h1v3h-1zm0,48h1v6h-1zm0,208h1v83h-1zm0,86h1v6h-1zm0,10h1v3h-1zM27,0h1v170h-1zm0,426h1v76h-1zm0,80h1v6h-1zm0,12h1v7h-1zm0,23h1v3h-1zM28,0h1v10h-1zm0,13h1v150h-1zm0,153h1v10h-1zm0,13h1v7h-1zm0,247h1v89h-1zm0,92h1v4h-1zm0,10h1v6h-1zM29,0h1v179h-1zm0,182h1v7h-1zm0,244h1v89h-1zm0,92h1v4h-1zM30,0h1v26h-1zm0,29h1v157h-1zm0,160h1v3h-1zm0,9h1v4h-1zm0,224h1v64h-1zm0,68h1v12h-1zm0,16h1v3h-1zm0,6h1v10h-1zm0,13h1v6h-1zM31,0h1v10h-1zm0,13h1v185h-1zm0,413h1v83h-1zm0,86h1v10h-1zm0,32h1v3h-1zM32,0h1v205h-1zm0,214h1v4h-1zm0,208h1v87h-1zm0,90h1v13h-1zM33,6h1v212h-1zm0,416h1v74h-1zm0,77h1v10h-1zm0,13h1v10h-1zM34,3h1v39h-1zm0,42h1v176h-1zm0,381h1v83h-1zm0,86h1v3h-1zm0,10h1v6h-1zM35,0h1v10h-1zm0,13h1v32h-1zm0,35h1v10h-1zm0,13h1v163h-1zm0,358h1v93h-1zm0,115h1v4h-1zM36,0h1v234h-1zm0,419h1v96h-1zm0,99h1v13h-1zM37,0h2v13h-2zm0,16h2v16h-2zm0,19h2v199h-2zm0,384h2v3h-2zm0,7h2v70h-2zm0,73h2v23h-2zM39,3h1v45h-1zm0,48h1v189h-1zm0,371h1v90h-1zm0,93h1v3h-1zm0,10h1v3h-1zM40,0h1v13h-1zm0,16h1v10h-1zm0,13h1v9h-1zm0,13h1v16h-1zm0,19h1v9h-1zm0,13h1v9h-1zm0,12h1v157h-1zm0,333h1v87h-1zm0,90h1v3h-1zm0,9h1v4h-1zm0,7h1v3h-1zM41,0h1v6h-1zm0,10h1v6h-1zm0,12h1v45h-1zm0,48h1v167h-1zm0,170h1v6h-1zm0,182h1v87h-1zm0,100h1v3h-1zM42,0h2v16h-2zm0,19h2v3h-2zm0,7h2v25h-2zm0,28h2v4h-2zm0,7h2v192h-2zm0,358h2v77h-2zm0,80h2v7h-2zm0,10h2v9h-2zM44,0h1v26h-1zm0,29h1v9h-1zm0,13h1v6h-1zm0,9h1v35h-1zm0,39h1v166h-1zm0,332h1v90h-1zm0,132h1v3h-1zM45,10h1v3h-1zm0,12h1v20h-1zm0,23h1v22h-1zm0,25h1v16h-1zm0,20h1v169h-1zm0,329h1v99h-1zm0,115h1v4h-1zM46,3h2v3h-2zm0,13h2v3h-2zm0,6h2v7h-2zm0,10h2v3h-2zm0,6h2v13h-2zm0,16h2v10h-2zm0,13h2v195h-2zm0,352h2v83h-2zm0,90h2v3h-2zm0,13h2v3h-2zM48,16h1v3h-1zm0,6h1v7h-1zm0,13h1v10h-1zm0,13h1v22h-1zm0,26h1v185h-1zm0,188h1v4h-1zm0,157h1v77h-1zm0,80h1v7h-1zm0,10h1v3h-1zm0,6h1v3h-1zm0,13h1v3h-1zM49,0h2v10h-2zm0,13h2v6h-2zm0,19h2v10h-2zm0,13h2v19h-2zm0,22h2v13h-2zm0,16h2v186h-2zm0,336h2v83h-2zm0,87h2v6h-2zM51,10h1v3h-1zm0,6h1v6h-1zm0,13h1v3h-1zm0,9h1v20h-1zm0,23h1v25h-1zm0,29h1v19h-1zm0,22h1v160h-1zm0,307h1v103h-1zm0,106h1v3h-1zM52,0h2v19h-2zm0,22h2v23h-2zm0,26h2v22h-2zm0,26h2v6h-2zm0,12h2v4h-2zm0,7h2v179h-2zm0,323h2v90h-2zm0,96h2v3h-2zm0,22h2v4h-2zM54,3h2v7h-2zm0,16h2v3h-2zm0,7h2v6h-2zm0,12h2v7h-2zm0,13h2v16h-2zm0,19h2v10h-2zm0,13h2v16h-2zm0,19h2v167h-2zm0,314h2v96h-2zm0,99h2v3h-2zm0,19h2v4h-2zM56,0h1v3h-1zm0,6h1v7h-1zm0,20h1v16h-1zm0,19h1v3h-1zm0,9h1v7h-1zm0,10h1v19h-1zm0,22h1v192h-1zm0,330h1v99h-1zm0,102h1v4h-1zm0,13h1v3h-1zm0,7h1v3h-1zM57,3h2v3h-2zm0,7h2v6h-2zm0,12h2v7h-2zm0,10h2v6h-2zm0,10h2v22h-2zm0,28h2v208h-2zm0,346h2v67h-2zm0,70h2v20h-2zm0,23h2v6h-2zm0,9h2v4h-2zM59,26h2v3h-2zm0,12h2v7h-2zm0,10h2v3h-2zm0,6h2v4h-2zm0,7h2v9h-2zm0,13h2v6h-2zm0,12h2v4h-2zm0,7h2v35h-2zm0,38h2v151h-2zm0,282h2v86h-2zm0,89h2v4h-2zm0,7h2v3h-2zm0,9h2v4h-2zM61,0h2v3h-2zm0,6h2v7h-2zm0,23h2v3h-2zm0,6h2v3h-2zm0,13h2v3h-2zm0,6h2v20h-2zm0,23h2v9h-2zm0,19h2v3h-2zm0,6h2v180h-2zm0,311h2v80h-2zm0,86h2v10h-2zm0,13h2v6h-2zm0,10h2v3h-2zm0,6h2v3h-2zm0,19h2v3h-2zM63,0h2v3h-2zm0,6h2v4h-2zm0,7h2v3h-2zm0,9h2v10h-2zm0,16h2v7h-2zm0,10h2v26h-2zm0,29h2v19h-2zm0,22h2v186h-2zm0,314h2v89h-2zm0,93h2v3h-2zm0,9h2v3h-2zM65,6h2v4h-2zm0,7h2v3h-2zm0,13h2v3h-2zm0,9h2v3h-2zm0,7h2v6h-2zm0,9h2v3h-2zm0,13h2v16h-2zm0,19h2v16h-2zm0,19h2v20h-2zm0,23h2v3h-2zm0,6h2v7h-2zm0,10h2v144h-2zm0,147h2v3h-2zm0,125h2v93h-2zm0,96h2v6h-2zm0,19h2v3h-2zM67,6h2v4h-2zm0,7h2v3h-2zm0,13h2v3h-2zm0,16h2v6h-2zm0,12h2v4h-2zm0,7h2v3h-2zm0,6h2v3h-2zm0,7h2v9h-2zm0,12h2v13h-2zm0,16h2v4h-2zm0,7h2v3h-2zm0,6h2v19h-2zm0,23h2v153h-2zm0,272h2v86h-2zm0,89h2v7h-2zm0,19h2v4h-2zM69,3h2v7h-2zm0,16h2v3h-2zm0,13h2v3h-2zm0,16h2v3h-2zm0,10h2v6h-2zm0,9h2v16h-2zm0,23h2v3h-2zm0,6h2v10h-2zm0,13h2v9h-2zm0,13h2v35h-2zm0,38h2v16h-2zm0,19h2v112h-2zm0,231h2v86h-2zm0,96h2v12h-2zM71,0h2v3h-2zm0,10h2v3h-2zm0,16h2v3h-2zm0,6h2v6h-2zm0,10h2v9h-2zm0,22h2v16h-2zm0,22h2v4h-2zm0,7h2v3h-2zm0,9h2v10h-2zm0,16h2v4h-2zm0,7h2v169h-2zm0,285h2v70h-2zm0,73h2v23h-2zm0,26h2v9h-2zm0,35h2v3h-2zM73,0h2v3h-2zm0,6h2v4h-2zm0,7h2v3h-2zm0,9h2v4h-2zm0,13h2v3h-2zm0,13h2v10h-2zm0,16h2v6h-2zm0,10h2v6h-2zm0,12h2v4h-2zm0,7h2v3h-2zm0,6h2v16h-2zm0,19h2v4h-2zm0,7h2v13h-2zm0,16h2v153h-2zm0,269h2v80h-2zm0,83h2v3h-2zm0,13h2v3h-2zm0,12h2v4h-2zm0,13h2v3h-2zM75,3h2v3h-2zm0,10h2v3h-2zm0,13h2v12h-2zm0,16h2v9h-2zm0,12h2v4h-2zm0,7h2v3h-2zm0,6h2v7h-2zm0,10h2v19h-2zm0,35h2v22h-2zm0,26h2v12h-2zm0,16h2v147h-2zm0,259h2v80h-2zm0,93h2v12h-2zM77,3h3v10h-3zm0,13h3v6h-3zm0,13h3v3h-3zm0,9h3v4h-3zm0,20h3v12h-3zm0,16h3v6h-3zm0,9h3v3h-3zm0,7h3v3h-3zm0,12h3v7h-3zm0,10h3v6h-3zm0,10h3v12h-3zm0,16h3v163h-3zm0,268h3v93h-3zm0,96h3v7h-3zm0,10h3v3h-3zM80,3h2v3h-2zm0,10h2v3h-2zm0,6h2v3h-2zm0,7h2v3h-2zm0,6h2v3h-2zm0,16h2v3h-2zm0,13h2v13h-2zm0,16h2v3h-2zm0,9h2v4h-2zm0,7h2v6h-2zm0,16h2v16h-2zm0,19h2v32h-2zm0,35h2v141h-2zm0,243h2v80h-2zm0,84h2v3h-2zm0,9h2v16h-2zm0,26h2v3h-2zM82,0h3v3h-3zm0,6h3v4h-3zm0,13h3v7h-3zm0,10h3v3h-3zm0,13h3v3h-3zm0,12h3v16h-3zm0,23h3v3h-3zm0,16h3v3h-3zm0,13h3v9h-3zm0,16h3v12h-3zm0,16h3v166h-3zm0,268h3v68h-3zm0,71h3v3h-3zm0,6h3v3h-3zm0,7h3v9h-3zm0,12h3v10h-3zM85,3h2v3h-2zm0,32h2v3h-2zm0,10h2v3h-2zm0,13h2v3h-2zm0,6h2v3h-2zm0,10h2v3h-2zm0,22h2v22h-2zm0,26h2v12h-2zm0,16h2v9h-2zm0,12h2v39h-2zm0,42h2v112h-2zm0,211h2v83h-2zm0,93h2v3h-2zm0,10h2v3h-2zM87,3h3v3h-3zm0,35h3v7h-3zm0,10h3v6h-3zm0,10h3v6h-3zm0,16h3v3h-3zm0,9h3v3h-3zm0,7h3v3h-3zm0,6h3v16h-3zm0,19h3v16h-3zm0,19h3v173h-3zm0,269h3v90h-3zm0,93h3v10h-3zm0,16h3v3h-3zm0,32h3v3h-3zM90,0h2v3h-2zm0,13h2v6h-2zm0,9h2v7h-2zm0,36h2v3h-2zm0,9h2v3h-2zm0,10h2v3h-2zm0,6h2v10h-2zm0,13h2v6h-2zm0,10h2v9h-2zm0,12h2v4h-2zm0,10h2v42h-2zm0,45h2v137h-2zm0,230h2v87h-2zm0,90h2v3h-2zm0,6h2v7h-2zm0,35h2v4h-2zM92,13h3v3h-3zm0,13h3v3h-3zm0,6h3v3h-3zm0,10h3v3h-3zm0,25h3v10h-3zm0,19h3v7h-3zm0,13h3v26h-3zm0,29h3v6h-3zm0,10h3v51h-3zm0,54h3v122h-3zm0,211h3v67h-3zm0,71h3v25h-3zm0,41h3v3h-3zM95,3h3v3h-3zm0,10h3v3h-3zm0,13h3v3h-3zm0,32h3v3h-3zm0,6h3v3h-3zm0,10h3v3h-3zm0,6h3v3h-3zm0,6h3v4h-3zm0,13h3v7h-3zm0,10h3v6h-3zm0,9h3v10h-3zm0,13h3v19h-3zm0,23h3v163h-3zm0,246h3v86h-3zm0,90h3v3h-3zm0,9h3v13h-3zm0,16h3v3h-3zM98,3h3v3h-3zm0,7h3v3h-3zm0,28h3v4h-3zm0,13h3v7h-3zm0,13h3v3h-3zm0,6h3v4h-3zm0,7h3v6h-3zm0,9h3v10h-3zm0,13h3v10h-3zm0,16h3v16h-3zm0,23h3v9h-3zm0,16h3v163h-3zm0,243h3v73h-3zm0,77h3v12h-3zm0,16h3v3h-3zm0,9h3v3h-3zm0,16h3v3h-3zM101,0h3v3h-3zm0,42h3v6h-3zm0,12h3v4h-3zm0,10h3v3h-3zm0,32h3v3h-3zm0,6h3v4h-3zm0,7h3v3h-3zm0,6h3v10h-3zm0,13h3v189h-3zm0,275h3v77h-3zm0,80h3v16h-3zm0,26h3v3h-3zm0,19h3v3h-3zm0,19h3v3h-3zM104,19h3v3h-3zm0,19h3v7h-3zm0,16h3v4h-3zm0,16h3v4h-3zm0,13h3v3h-3zm0,19h3v4h-3zm0,16h3v10h-3zm0,13h3v3h-3zm0,7h3v9h-3zm0,12h3v13h-3zm0,16h3v13h-3zm0,20h3v19h-3zm0,22h3v112h-3zm0,115h3v3h-3zm0,74h3v89h-3zm0,102h3v3h-3zm0,7h3v3h-3zm0,12h3v4h-3zm0,10h3v3h-3zM107,29h3v3h-3zm0,6h3v3h-3zm0,16h3v10h-3zm0,16h3v3h-3zm0,7h3v3h-3zm0,9h3v7h-3zm0,10h3v3h-3zm0,9h3v4h-3zm0,13h3v16h-3zm0,19h3v4h-3zm0,7h3v22h-3zm0,25h3v160h-3zm0,228h3v99h-3zm0,102h3v3h-3zm0,6h3v4h-3zm0,13h3v7h-3zM110,19h4v7h-4zm0,26h4v3h-4zm0,6h4v3h-4zm0,7h4v3h-4zm0,16h4v3h-4zm0,22h4v3h-4zm0,10h4v16h-4zm0,22h4v3h-4zm0,6h4v10h-4zm0,16h4v4h-4zm0,7h4v9h-4zm0,13h4v6h-4zm0,12h4v10h-4zm0,13h4v3h-4zm0,7h4v124h-4zm0,128h4v3h-4zm0,60h4v100h-4zm0,112h4v4h-4zM114,3h3v10h-3zm0,58h3v6h-3zm0,13h3v3h-3zm0,16h3v3h-3zm0,35h3v6h-3zm0,13h3v3h-3zm0,6h3v6h-3zm0,13h3v3h-3zm0,6h3v7h-3zm0,13h3v32h-3zm0,35h3v122h-3zm0,176h3v96h-3zm0,106h3v3h-3zm0,6h3v7h-3zM117,19h3v3h-3zm0,29h3v3h-3zm0,13h3v6h-3zm0,48h3v3h-3zm0,9h3v7h-3zm0,10h3v6h-3zm0,13h3v9h-3zm0,13h3v3h-3zm0,6h3v3h-3zm0,10h3v163h-3zm0,217h3v74h-3zm0,77h3v22h-3zm0,26h3v6h-3zM120,45h4v3h-4zm0,9h4v4h-4zm0,20h4v6h-4zm0,12h4v4h-4zm0,10h4v3h-4zm0,10h4v6h-4zm0,9h4v7h-4zm0,10h4v9h-4zm0,13h4v3h-4zm0,12h4v4h-4zm0,7h4v22h-4zm0,29h4v147h-4zm0,153h4v3h-4zm0,48h4v87h-4zm0,90h4v9h-4zm0,13h4v3h-4zm0,6h4v3h-4zm0,6h4v4h-4zm0,7h4v3h-4zM124,3h4v3h-4zm0,35h4v4h-4zm0,7h4v3h-4zm0,13h4v3h-4zm0,12h4v4h-4zm0,7h4v3h-4zm0,9h4v4h-4zm0,20h4v3h-4zm0,12h4v4h-4zm0,16h4v7h-4zm0,20h4v3h-4zm0,12h4v13h-4zm0,16h4v7h-4zm0,13h4v3h-4zm0,7h4v6h-4zm0,9h4v3h-4zm0,7h4v121h-4zm0,124h4v7h-4zm0,16h4v7h-4zm0,10h4v90h-4zm0,93h4v3h-4zm0,6h4v3h-4zm0,7h4v19h-4zm0,28h4v4h-4zm0,7h4v3h-4zM128,19h3v3h-3zm0,48h3v3h-3zm0,13h3v6h-3zm0,13h3v3h-3zm0,13h3v3h-3zm0,12h3v4h-3zm0,10h3v10h-3zm0,26h3v6h-3zm0,16h3v3h-3zm0,6h3v173h-3zm0,176h3v10h-3zm0,16h3v3h-3zm0,6h3v80h-3zm0,84h3v3h-3zm0,6h3v16h-3zm0,22h3v4h-3zm0,7h3v3h-3zm0,16h3v3h-3zM131,38h4v4h-4zm0,10h4v3h-4zm0,10h4v3h-4zm0,16h4v3h-4zm0,9h4v7h-4zm0,16h4v7h-4zm0,10h4v6h-4zm0,16h4v3h-4zm0,6h4v3h-4zm0,7h4v6h-4zm0,9h4v7h-4zm0,13h4v6h-4zm0,10h4v9h-4zm0,19h4v13h-4zm0,16h4v3h-4zm0,6h4v7h-4zm0,10h4v259h-4zM135,38h4v4h-4zm0,36h4v3h-4zm0,6h4v6h-4zm0,10h4v3h-4zm0,9h4v13h-4zm0,26h4v3h-4zm0,13h4v3h-4zm0,12h4v10h-4zm0,16h4v7h-4zm0,10h4v16h-4zm0,19h4v7h-4zm0,10h4v6h-4zm0,9h4v247h-4zm0,250h4v3h-4zm0,6h4v4h-4zm0,7h4v3h-4zm0,6h4v3h-4zm0,7h4v3h-4zm0,28h4v4h-4zm4,-396h4v22h-4zm0,32h4v3h-4zm0,6h4v10h-4zm0,26h4v3h-4zm0,6h4v10h-4zm0,13h4v3h-4zm0,6h4v7h-4zm0,13h4v253h-4zm0,256h4v10h-4zm0,42h4v3h-4zM143,32h5v3h-5zm0,13h5v6h-5zm0,41h5v4h-5zm0,7h5v3h-5zm0,22h5v3h-5zm0,16h5v16h-5zm0,23h5v6h-5zm0,12h5v7h-5zm0,13h5v3h-5zm0,10h5v16h-5zm0,19h5v3h-5zm0,6h5v237h-5zm0,240h5v13h-5zm0,16h5v4h-5zm0,7h5v6h-5zm0,19h5v3h-5zM148,83h4v3h-4zm0,23h4v3h-4zm0,9h4v3h-4zm0,10h4v3h-4zm0,6h4v3h-4zm0,7h4v6h-4zm0,16h4v6h-4zm0,9h4v3h-4zm0,10h4v6h-4zm0,9h4v10h-4zm0,13h4v10h-4zm0,19h4v240h-4zm0,244h4v3h-4zm0,6h4v6h-4zm0,22h4v4h-4zm0,16h4v4h-4zM152,13h5v3h-5zm0,25h5v4h-5zm0,7h5v13h-5zm0,25h5v4h-5zm0,42h5v3h-5zm0,16h5v3h-5zm0,26h5v9h-5zm0,19h5v6h-5zm0,16h5v3h-5zm0,6h5v3h-5zm0,7h5v6h-5zm0,9h5v3h-5zm0,7h5v3h-5zm0,12h5v196h-5zm0,199h5v32h-5zm0,35h5v3h-5zm0,10h5v3h-5zm0,6h5v3h-5zm0,6h5v7h-5zm0,10h5v3h-5zm0,6h5v4h-5zm0,20h5v3h-5zm5,-420h4v4h-4zm0,7h4v3h-4zm0,6h4v3h-4zm0,19h4v4h-4zm0,32h4v13h-4zm0,20h4v12h-4zm0,16h4v12h-4zm0,16h4v9h-4zm0,12h4v13h-4zm0,16h4v10h-4zm0,13h4v173h-4zm0,176h4v7h-4zm0,10h4v16h-4zm0,19h4v10h-4zm0,67h4v3h-4zM161,64h5v3h-5zm0,13h5v6h-5zm0,29h5v9h-5zm0,16h5v3h-5zm0,25h5v3h-5zm0,16h5v3h-5zm0,16h5v7h-5zm0,10h5v3h-5zm0,9h5v4h-5zm0,20h5v25h-5zm0,28h5v192h-5zm0,196h5v12h-5zm0,16h5v6h-5zm0,28h5v4h-5zm0,10h5v6h-5zm0,13h5v3h-5zM166,70h5v4h-5zm0,26h5v3h-5zm0,10h5v3h-5zm0,12h5v4h-5zm0,13h5v3h-5zm0,19h5v4h-5zm0,29h5v3h-5zm0,16h5v13h-5zm0,16h5v3h-5zm0,16h5v19h-5zm0,23h5v198h-5zm0,204h5v13h-5zm0,20h5v3h-5zm0,57h5v3h-5zM171,26h5v3h-5zm0,25h5v3h-5zm0,26h5v3h-5zm0,57h5v4h-5zm0,16h5v4h-5zm0,20h5v3h-5zm0,9h5v7h-5zm0,23h5v3h-5zm0,9h5v3h-5zm0,7h5v12h-5zm0,16h5v12h-5zm0,16h5v9h-5zm0,12h5v180h-5zm0,183h5v9h-5zm0,13h5v6h-5zM176,51h5v3h-5zm0,39h5v3h-5zm0,22h5v3h-5zm0,10h5v3h-5zm0,9h5v7h-5zm0,13h5v13h-5zm0,42h5v3h-5zm0,12h5v10h-5zm0,13h5v19h-5zm0,26h5v6h-5zm0,9h5v212h-5zm0,237h5v3h-5zM181,22h5v4h-5zm0,32h5v7h-5zm0,10h5v3h-5zm0,19h5v7h-5zm0,87h5v3h-5zm0,16h5v3h-5zm0,6h5v3h-5zm0,13h5v3h-5zm0,6h5v10h-5zm0,13h5v13h-5zm0,16h5v218h-5zm0,227h5v7h-5zm0,26h5v3h-5zM186,67h6v3h-6zm0,7h6v3h-6zm0,25h6v3h-6zm0,58h6v3h-6zm0,9h6v4h-6zm0,7h6v3h-6zm0,6h6v3h-6zm0,10h6v3h-6zm0,16h6v6h-6zm0,13h6v3h-6zm0,9h6v3h-6zm0,7h6v28h-6zm0,32h6v3h-6zm0,6h6v182h-6zm0,189h6v3h-6zm0,6h6v3h-6zm0,10h6v3h-6zM192,61h5v3h-5zm0,6h5v3h-5zm0,16h5v3h-5zm0,7h5v3h-5zm0,6h5v3h-5zm0,6h5v4h-5zm0,16h5v4h-5zm0,13h5v3h-5zm0,32h5v3h-5zm0,13h5v6h-5zm0,32h5v3h-5zm0,6h5v4h-5zm0,7h5v6h-5zm0,13h5v12h-5zm0,16h5v9h-5zm0,12h5v10h-5zm0,13h5v179h-5zm0,186h5v9h-5zM197,32h6v3h-6zm0,29h6v3h-6zm0,19h6v3h-6zm0,32h6v6h-6zm0,10h6v3h-6zm0,22h6v6h-6zm0,26h6v3h-6zm0,19h6v3h-6zm0,9h6v4h-6zm0,7h6v3h-6zm0,6h6v3h-6zm0,7h6v3h-6zm0,9h6v7h-6zm0,10h6v9h-6zm0,13h6v185h-6zm0,188h6v7h-6zm0,10h6v3h-6zM203,0h6v3h-6zm0,51h6v3h-6zm0,16h6v3h-6zm0,58h6v3h-6zm0,19h6v3h-6zm0,13h6v3h-6zm0,35h6v3h-6zm0,6h6v4h-6zm0,10h6v3h-6zm0,6h6v23h-6zm0,29h6v7h-6zm0,13h6v19h-6zm0,22h6v144h-6zm0,148h6v3h-6zm0,6h6v3h-6zm0,10h6v3h-6zm0,12h6v4h-6zm0,7h6v9h-6zm0,70h6v3h-6zm6,-377h6v3h-6zm0,9h6v13h-6zm0,19h6v4h-6zm0,10h6v3h-6zm0,10h6v3h-6zm0,22h6v3h-6zm0,10h6v3h-6zm0,6h6v10h-6zm0,13h6v3h-6zm0,9h6v16h-6zm0,20h6v137h-6zm0,140h6v4h-6zm0,7h6v9h-6zm0,13h6v3h-6zm0,6h6v3h-6zm0,51h6v3h-6zm6,-387h7v3h-7zm0,106h7v3h-7zm0,9h7v3h-7zm0,7h7v3h-7zm0,6h7v3h-7zm0,6h7v16h-7zm0,23h7v9h-7zm0,13h7v6h-7zm0,9h7v119h-7zm0,122h7v16h-7zm0,22h7v16h-7zm0,23h7v3h-7zm0,19h7v6h-7zM222,32h6v3h-6zm0,122h6v3h-6zm0,9h6v3h-6zm0,26h6v6h-6zm0,22h6v7h-6zm0,16h6v3h-6zm0,7h6v3h-6zm0,16h6v3h-6zm0,6h6v6h-6zm0,10h6v12h-6zm0,16h6v9h-6zm0,12h6v122h-6zm0,125h6v13h-6zm0,23h6v9h-6zm6,-298h7v3h-7zm0,19h7v3h-7zm0,13h7v3h-7zm0,32h7v6h-7zm0,16h7v3h-7zm0,13h7v3h-7zm0,9h7v4h-7zm0,10h7v3h-7zm0,6h7v4h-7zm0,7h7v29h-7zm0,32h7v125h-7zm0,128h7v3h-7zm0,6h7v3h-7zm0,7h7v3h-7zm0,16h7v6h-7zM235,26h7v3h-7zm0,25h7v3h-7zm0,83h7v4h-7zm0,20h7v3h-7zm0,6h7v3h-7zm0,6h7v4h-7zm0,48h7v4h-7zm0,10h7v16h-7zm0,22h7v10h-7zm0,16h7v4h-7zm0,7h7v3h-7zm0,6h7v3h-7zm0,10h7v134h-7zm0,137h7v4h-7zm0,10h7v3h-7zm0,10h7v9h-7zm0,35h7v3h-7zm0,22h7v3h-7zm7,-313h7v3h-7zm0,12h7v4h-7zm0,10h7v3h-7zm0,19h7v3h-7zm0,16h7v3h-7zm0,13h7v3h-7zm0,16h7v10h-7zm0,13h7v19h-7zm0,22h7v122h-7zm0,125h7v10h-7zm0,13h7v3h-7zm0,6h7v3h-7zm0,39h7v3h-7zm7,-285h7v3h-7zm0,13h7v3h-7zm0,9h7v3h-7zm0,10h7v6h-7zm0,25h7v7h-7zm0,16h7v4h-7zm0,7h7v3h-7zm0,6h7v7h-7zm0,10h7v9h-7zm0,13h7v115h-7zm0,121h7v3h-7zm0,7h7v3h-7zm7,-260h8v4h-8zm0,20h8v3h-8zm0,19h8v3h-8zm0,6h8v3h-8zm0,10h8v3h-8zm0,16h8v3h-8zm0,6h8v23h-8zm0,26h8v3h-8zm0,6h8v125h-8zm0,128h8v7h-8zm0,23h8v3h-8zM264,67h7v3h-7zm0,112h7v7h-7zm0,58h7v3h-7zm0,9h7v16h-7zm0,23h7v3h-7zm0,16h7v3h-7zm0,6h7v13h-7zm0,16h7v109h-7zm0,115h7v7h-7zm0,10h7v3h-7zm0,26h7v3h-7zm7,-317h8v3h-8zm0,22h8v3h-8zm0,61h8v3h-8zm0,16h8v3h-8zm0,16h8v3h-8zm0,13h8v13h-8zm0,16h8v9h-8zm0,13h8v115h-8zm0,121h8v3h-8zm0,7h8v3h-8zm8,-301h9v3h-9zm0,51h9v3h-9zm0,58h9v3h-9zm0,6h9v3h-9zm0,16h9v3h-9zm0,26h9v12h-9zm0,16h9v3h-9zm0,9h9v103h-9zm0,106h9v3h-9zm0,9h9v4h-9zm0,48h9v4h-9zm0,10h9v3h-9zm0,6h9v4h-9zm9,-265h8v6h-8zm0,29h8v3h-8zm0,25h8v3h-8zm0,7h8v9h-8zm0,12h8v4h-8zm0,7h8v6h-8zm0,9h8v93h-8zm0,96h8v7h-8zm0,23h8v3h-8zm0,22h8v3h-8zm0,32h8v3h-8zm8,-374h9v6h-9zm0,125h9v3h-9zm0,28h9v4h-9zm0,20h9v3h-9zm0,16h9v6h-9zm0,12h9v103h-9zm0,106h9v3h-9zm9,-170h9v4h-9zm0,16h9v4h-9zm0,10h9v6h-9zm0,19h9v26h-9zm0,29h9v3h-9zm0,6h9v29h-9zm0,32h9v45h-9zm0,48h9v4h-9zm0,7h9v6h-9zm0,57h9v4h-9zM314,32h9v3h-9zm0,176h9v6h-9zm0,16h9v6h-9zm0,38h9v7h-9zm0,16h9v4h-9zm0,13h9v10h-9zm0,13h9v32h-9zm0,35h9v42h-9zm0,45h9v26h-9zm0,32h9v13h-9zm0,22h9v4h-9zm9,-252h9v3h-9zm0,19h9v3h-9zm0,61h9v3h-9zm0,6h9v3h-9zm0,6h9v4h-9zm0,7h9v6h-9zm0,9h9v4h-9zm0,7h9v9h-9zm0,13h9v48h-9zm0,51h9v29h-9zm0,35h9v6h-9zm0,13h9v3h-9zm0,6h9v3h-9zm0,16h9v10h-9zm9,-288h10v3h-10zm0,64h10v3h-10zm0,39h10v3h-10zm0,19h10v3h-10zm0,22h10v10h-10zm0,16h10v23h-10zm0,32h10v55h-10zm0,61h10v3h-10zm0,10h10v3h-10zm0,16h10v3h-10zm0,12h10v4h-10zM342,10h10v3h-10zm0,169h10v3h-10zm0,13h10v3h-10zm0,22h10v4h-10zm0,20h10v3h-10zm0,6h10v6h-10zm0,19h10v3h-10zm0,19h10v7h-10zm0,13h10v7h-10zm0,23h10v12h-10zm0,16h10v22h-10zm0,25h10v16h-10zm0,19h10v16h-10zm0,23h10v6h-10zm0,19h10v3h-10zm0,10h10v3h-10zm0,12h10v4h-10zM352,250h10v3h-10zm0,25h10v3h-10zm0,7h10v3h-10zm0,9h10v3h-10zm0,7h10v3h-10zm0,16h10v3h-10zm0,9h10v23h-10zm0,26h10v9h-10zm0,13h10v16h-10zm0,22h10v10h-10zm0,13h10v6h-10zm0,22h10v7h-10zM362,186h11v3h-11zm0,19h11v3h-11zm0,96h11v9h-11zm0,13h11v6h-11zm0,9h11v10h-11zm0,13h11v19h-11zm0,22h11v16h-11zm0,20h11v12h-11zm0,16h11v6h-11zm0,9h11v3h-11zm0,13h11v3h-11zm0,10h11v3h-11zM373,128h10v3h-10zm0,96h10v3h-10zm0,70h10v7h-10zm0,10h10v3h-10zm0,10h10v3h-10zm0,6h10v6h-10zm0,19h10v3h-10zm0,7h10v3h-10zm0,6h10v3h-10zm0,6h10v4h-10zm0,7h10v6h-10zm0,9h10v20h-10zm0,23h10v6h-10zm0,22h10v7h-10zm0,42h10v3h-10zM383,150h12v4h-12zm0,80h12v4h-12zm0,16h12v4h-12zm0,16h12v4h-12zm0,20h12v3h-12zm0,19h12v3h-12zm0,6h12v3h-12zm0,7h12v6h-12zm0,12h12v20h-12zm0,23h12v22h-12zm0,25h12v7h-12zm0,10h12v13h-12zm0,16h12v3h-12zm0,10h12v3h-12zM395,208h11v3h-11zm0,77h11v6h-11zm0,22h11v13h-11zm0,16h11v16h-11zm0,19h11v4h-11zm0,10h11v10h-11zm0,16h11v13h-11zm0,16h11v16h-11zm0,22h11v7h-11zm0,20h11v3h-11zm0,32h11v3h-11zM406,304h12v3h-12zm0,6h12v10h-12zm0,16h12v4h-12zm0,7h12v13h-12zm0,16h12v9h-12zm0,19h12v3h-12zm0,6h12v4h-12zm0,7h12v22h-12zm0,67h12v3h-12zm0,10h12v3h-12zM418,278h12v10h-12zm0,39h12v3h-12zm0,6h12v3h-12zm0,10h12v3h-12zm0,9h12v13h-12zm0,20h12v16h-12zm0,22h12v3h-12zm0,6h12v7h-12zm0,16h12v4h-12zM430,298h13v6h-13zm0,25h13v3h-13zm0,10h13v6h-13zm0,9h13v7h-13zm0,10h13v10h-13zm0,13h13v9h-13zm0,19h13v3h-13zm0,13h13v3h-13zm0,6h13v7h-13zM443,298h13v9h-13zm0,19h13v3h-13zm0,19h13v6h-13zm0,13h13v6h-13zm0,13h13v9h-13zm0,12h13v4h-13zm0,10h13v3h-13zm0,10h13v3h-13zm0,12h13v4h-13zM456,266h13v3h-13zm0,19h13v3h-13zm0,6h13v3h-13zm0,7h13v3h-13zm0,48h13v6h-13zm0,9h13v13h-13zm0,45h13v3h-13zm0,26h13v3h-13zM469,310h14v4h-14zm0,7h14v3h-14zm0,9h14v4h-14zm0,7h14v6h-14zm0,9h14v7h-14zm0,20h14v6h-14zm0,12h14v4h-14zm0,10h14v3h-14zm0,16h14v3h-14zm0,16h14v3h-14zM483,234h14v3h-14zm0,89h14v10h-14zm0,19h14v4h-14zm0,13h14v7h-14zm0,13h14v6h-14zm0,16h14v6h-14zm0,16h14v3h-14zm0,10h14v3h-14zM497,262h14v4h-14zm0,58h14v3h-14zm0,10h14v6h-14zm0,12h14v4h-14zm0,10h14v3h-14zm0,19h14v3h-14zm0,7h14v6h-14zm0,9h14v3h-14zm0,16h14v3h-14zM511,269h15v3h-15zm0,45h15v6h-15zm0,12h15v4h-15zm0,10h15v3h-15zm0,22h15v7h-15zm0,10h15v3h-15zm0,13h15v3h-15zm0,6h15v7h-15zm0,10h15v3h-15zm15,-93h15v3h-15zm0,10h15v3h-15zm0,6h15v3h-15zm0,6h15v4h-15zm0,39h15v3h-15zm0,9h15v13h-15zm0,16h15v4h-15zm0,16h15v4h-15zM541,282h16v3h-16zm0,19h16v3h-16zm0,48h16v6h-16zm0,13h16v3h-16zm0,9h16v3h-16zm16,-80h16v3h-16zm0,7h16v3h-16zm0,48h16v9h-16zm0,12h16v4h-16zm0,29h16v7h-16zm0,77h16v3h-16zM573,74h17v3h-17zm0,105h17v3h-17zm0,58h17v3h-17zm0,96h17v3h-17zm0,9h17v4h-17zm0,29h17v3h-17zm0,7h17v3h-17zm0,9h17v3h-17zm17,-93h17v4h-17zm0,10h17v3h-17zm0,16h17v3h-17zm0,10h17v3h-17zm0,16h17v3h-17zm0,22h17v3h-17zm17,-35h18v3h-18zm0,6h18v3h-18zm0,39h18v3h-18zm0,16h18v3h-18zm0,22h18v3h-18zM625,234h18v3h-18zm0,25h18v3h-18zm0,42h18v3h-18zm0,25h18v4h-18zm0,10h18v3h-18zm0,22h18v4h-18zm0,7h18v6h-18zm0,25h18v7h-18zm0,16h18v4h-18zm18,-83h19v3h-19zm0,16h19v3h-19zm0,7h19v3h-19zm0,22h19v3h-19zm0,32h19v3h-19zm0,29h19v3h-19zm19,-99h19v3h-19zm0,9h19v3h-19zm0,13h19v3h-19zm0,13h19v3h-19zm0,6h19v3h-19zm0,7h19v3h-19zm19,-42h20v6h-20zm0,10h20v3h-20zm0,28h20v4h-20zm0,16h20v4h-20zm0,36h20v3h-20zm20,-93h20v3h-20zm0,41h20v4h-20zm20,-19h21v3h-21zm0,39h21v3h-21zm21,-13h22v3h-22zm22,-48h22v3h-22zm22,-71h23v4h-23zm0,84h23v3h-23zm0,54h23v3h-23zM809,173h23v3h-23zm0,230h23v3h-23zm47,19h25v4h-25zm25,-25h26v3h-26zm26,-80h26v3h-26zm0,35h26v3h-26zm26,22h27v4h-27z"></path>
     <path fill="#1652cd" d="M1,109h1v3h-1zm0,9h1v26h-1zm0,29h1v13h-1zm0,19h1v4h-1zM1,86h1v4h-1zm0,7h1v6h-1zm0,9h1v90h-1zM1,90h1v3h-1zm0,6h1v45h-1zm0,51h1v3h-1zm0,10h1v3h-1zm0,6h1v7h-1zm0,10h1v6h-1zm0,9h1v7h-1zm0,10h1v32h-1zm0,35h1v3h-1zM2,93h1v3h-1zm0,6h1v42h-1zm0,99h1v4h-1zm0,16h1v20h-1zM2,320h1v3h-1zM2,102h1v39h-1zM2,230h1v29h-1zm0,32h1v4h-1zm0,68h1v3h-1zM2,115h1v29h-1zM2,246h1v4h-1zm0,7h1v22h-1zm0,38h1v3h-1zm0,13h1v19h-1zm0,22h1v4h-1zm0,7h1v3h-1zM2,115h1v32h-1zM2,266h1v73h-1zM2,125h1v29h-1zm0,35h1v3h-1zM2,278h1v61h-1zm0,64h1v7h-1zM2,138h1v28h-1zM2,291h1v7h-1zm0,10h1v48h-1zm0,51h1v3h-1zM2,147h1v26h-1zM2,307h1v42h-1zm0,45h1v3h-1zM3,150h1v32h-1zM3,320h1v32h-1zM3,154h1v3h-1zm0,6h1v22h-1zm0,26h1v3h-1zM3,330h1v25h-1zM3,163h1v23h-1zm0,26h1v3h-1zM3,336h1v26h-1zM3,170h1v25h-1zM3,346h1v16h-1zM3,176h1v26h-1zM3,346h1v16h-1zM4,179h1v3h-1zm0,7h1v19h-1zM4,349h1v16h-1zM4,186h1v22h-1zm0,25h1v3h-1zM4,355h1v16h-1zM4,189h1v25h-1zM4,358h1v13h-1zM4,192h1v6h-1zm0,10h1v19h-1zM4,358h1v20h-1zM4,195h1v26h-1zm0,29h1v3h-1zM4,365h1v13h-1zM5,195h1v3h-1zm0,10h1v22h-1zM5,368h1v13h-1zM5,208h1v22h-1zM5,371h1v13h-1zM5,208h1v26h-1zM5,374h1v10h-1zM5,211h1v29h-1zM5,378h1v16h-1zM6,214h1v4h-1zm0,7h1v22h-1zM6,378h1v12h-1zM6,224h1v16h-1zM6,384h1v10h-1zM6,221h1v3h-1zm0,6h1v19h-1zM6,387h1v7h-1zM6,224h1v3h-1zm0,6h1v20h-1zM6,387h1v13h-1zM7,224h1v29h-1zM7,390h1v13h-1zM7,234h1v19h-1zM7,390h1v13h-1zm0,16h1v4h-1zM7,234h1v22h-1zM7,394h1v12h-1zM7,234h1v3h-1zm0,6h1v16h-1zM7,397h1v9h-1zM8,234h1v25h-1zM8,400h1v10h-1zM8,240h1v16h-1zm0,19h1v3h-1zM8,400h1v13h-1zM8,243h1v16h-1zM8,403h1v13h-1zM9,240h1v22h-1zM9,403h1v10h-1zM9,243h1v23h-1zM9,406h1v13h-1zM9,243h1v3h-1zm0,7h1v12h-1zM9,406h1v13h-1zM10,243h1v23h-1zm0,163h1v10h-1zm0,13h1v3h-1zM10,243h1v19h-1zm0,163h1v20h-1zM11,246h1v20h-1zm0,164h1v16h-1zM11,246h1v23h-1zm0,167h1v9h-1zM11,240h1v3h-1zm0,10h1v19h-1zm0,163h1v9h-1zM12,246h1v23h-1zm0,167h1v13h-1zM12,246h1v26h-1zm0,167h1v13h-1zM13,246h1v26h-1zm0,167h1v9h-1zm0,13h1v3h-1zM13,186h1v12h-1zm0,19h1v6h-1zm0,25h1v4h-1zm0,13h1v26h-1zm0,170h1v16h-1zM14,182h1v7h-1zm0,10h1v26h-1zm0,29h1v51h-1zm0,195h1v10h-1zM14,182h1v4h-1zm0,13h1v71h-1zm0,74h1v6h-1zm0,147h1v10h-1zM15,186h1v6h-1zm0,12h1v64h-1zm0,218h1v13h-1zM15,198h1v4h-1zm0,7h1v57h-1zm0,211h1v10h-1zm0,13h1v3h-1zM16,202h1v6h-1zm0,9h1v39h-1zm0,205h1v10h-1zM16,214h1v36h-1zm0,202h1v13h-1zM17,211h1v35h-1zm0,39h1v3h-1zm0,166h1v13h-1zM17,224h1v22h-1zm0,195h1v10h-1zM18,218h1v35h-1zm0,201h1v7h-1zm0,10h1v3h-1zM18,224h1v3h-1zm0,6h1v20h-1zm0,23h1v3h-1zm0,166h1v7h-1zM19,227h1v29h-1zm0,189h1v10h-1zM20,230h1v26h-1zm0,186h1v10h-1zM20,230h1v26h-1zm0,29h1v3h-1zm0,157h1v13h-1zM21,234h1v28h-1zm0,182h1v10h-1zM22,237h1v3h-1zm0,6h1v23h-1zm0,173h1v13h-1zM23,240h1v26h-1zm0,176h1v13h-1zM23,128h1v3h-1zm0,112h1v26h-1zm0,176h1v10h-1zM24,138h1v9h-1zm0,105h1v3h-1zm0,7h1v22h-1zm0,166h1v13h-1zM25,144h1v3h-1zm0,6h1v7h-1zm0,10h1v3h-1zm0,6h1v4h-1zm0,7h1v6h-1zm0,70h1v3h-1zm0,7h1v16h-1zm0,19h1v3h-1zm0,144h1v13h-1zM26,154h1v12h-1zm0,16h1v19h-1zm0,22h1v13h-1zm0,45h1v32h-1zm0,35h1v3h-1zm0,144h1v10h-1zM26,160h1v3h-1zm0,6h1v4h-1zm0,7h1v45h-1zm0,51h1v48h-1zm0,189h1v13h-1zM27,170h1v102h-1zm0,243h1v13h-1zM28,163h1v3h-1zm0,13h1v3h-1zm0,10h1v86h-1zm0,230h1v10h-1zM29,179h1v3h-1zm0,10h1v80h-1zm0,227h1v10h-1zM30,186h1v3h-1zm0,6h1v6h-1zm0,10h1v32h-1zm0,35h1v29h-1zm0,176h1v9h-1zM31,198h1v52h-1zm0,58h1v3h-1zm0,157h1v13h-1zM32,205h1v9h-1zm0,13h1v22h-1zm0,25h1v13h-1zm0,170h1v9h-1zM33,218h1v35h-1zm0,195h1v9h-1zM34,221h1v32h-1zm0,192h1v13h-1zM35,224h1v32h-1zm0,186h1v9h-1zM36,234h1v25h-1zm0,176h1v9h-1zM37,234h2v28h-2zm0,179h2v6h-2zm0,9h2v4h-2zM39,240h1v26h-1zm0,170h1v12h-1zM40,243h1v19h-1zm0,23h1v3h-1zm0,144h1v9h-1zM41,237h1v3h-1zm0,9h1v23h-1zm0,164h1v12h-1zM42,253h2v22h-2zm0,157h2v9h-2zM44,256h1v19h-1zm0,154h1v12h-1zM45,259h1v23h-1zm0,151h1v9h-1zM46,262h2v20h-2zm0,144h2v13h-2zM48,259h1v3h-1zm0,7h1v22h-1zm0,140h1v13h-1zM49,269h2v19h-2zm0,137h2v13h-2zM51,272h1v16h-1zm0,134h1v13h-1zM52,272h2v19h-2zm0,134h2v10h-2zM54,269h2v25h-2zm0,137h2v10h-2zM56,278h1v16h-1zm0,125h1v13h-1zM57,278h2v23h-2zm0,125h2v13h-2zM59,282h2v22h-2zm0,121h2v10h-2zM61,282h2v22h-2zm0,118h2v13h-2zM63,285h2v22h-2zm0,115h2v13h-2zM65,285h2v3h-2zm0,6h2v13h-2zm0,16h2v3h-2zm0,96h2v10h-2zM67,291h2v13h-2zm0,109h2v10h-2zM69,291h2v19h-2zm0,109h2v10h-2zM71,294h2v20h-2zm0,106h2v10h-2zM73,294h2v23h-2zm0,103h2v13h-2zm2,-96h2v16h-2zm0,99h2v13h-2zm2,-99h3v16h-3zm0,93h3v12h-3zm3,-90h2v19h-2zm0,93h2v9h-2zm2,-93h3v19h-3zm0,90h3v12h-3zm3,-90h2v26h-2zm0,90h2v9h-2zm2,-87h3v19h-3zm0,87h3v9h-3zm3,-84h2v23h-2zm0,80h2v13h-2zm2,-76h3v22h-3zm0,70h3v19h-3zm3,-67h3v19h-3zm0,64h3v19h-3zm3,-64h3v29h-3zm0,57h3v4h-3zm0,10h3v13h-3zm3,-67h3v32h-3zm0,35h3v6h-3zm0,19h3v3h-3zm0,7h3v25h-3zm3,-58h3v3h-3zm0,6h3v36h-3zm0,39h3v32h-3zm3,-39h3v68h-3zm3,0h4v4h-4zm0,7h4v57h-4zm4,0h3v54h-3zm3,0h3v54h-3zm3,0h4v6h-4zm0,9h4v45h-4zm4,-3h4v3h-4zm0,10h4v9h-4zm0,16h4v3h-4zm4,-16h3v3h-3zm0,13h3v6h-3zm0,9h3v3h-3z"></path>
     <path fill="#1064dc" d="M1,141h1v6h-1zm0,9h1v7h-1zm0,10h1v3h-1zm0,10h1v3h-1zm0,9h1v3h-1zm0,10h1v3h-1zM2,141h1v57h-1zm0,61h1v12h-1zM2,141h1v32h-1zm0,38h1v3h-1zm0,7h1v6h-1zm0,16h1v28h-1zM2,144h1v22h-1zm0,80h1v22h-1zm0,26h1v3h-1zM2,147h1v16h-1zm0,19h1v4h-1zm0,84h1v16h-1zM2,154h1v6h-1zm0,9h1v7h-1zm0,10h1v9h-1zm0,93h1v12h-1zM2,166h1v20h-1zM2,269h1v3h-1zm0,6h1v16h-1zm0,23h1v3h-1zM2,173h1v19h-1zM2,285h1v22h-1zM3,182h1v10h-1zM3,294h1v26h-1zM3,182h1v4h-1zm0,7h1v9h-1zm0,13h1v3h-1zM3,310h1v20h-1zM3,186h1v3h-1zm0,6h1v13h-1zm0,16h1v3h-1zM3,317h1v19h-1zM3,195h1v16h-1zM3,326h1v20h-1zM3,202h1v16h-1zM3,333h1v13h-1zM4,205h1v16h-1zM4,336h1v13h-1zM4,208h1v3h-1zm0,6h1v13h-1zM4,342h1v13h-1zM4,214h1v16h-1zM4,346h1v12h-1zM4,221h1v13h-1zM4,349h1v9h-1zM4,221h1v3h-1zm0,6h1v10h-1zM4,358h1v7h-1zM5,227h1v16h-1zM5,358h1v10h-1zM5,230h1v16h-1zM5,362h1v9h-1zM5,234h1v12h-1zM5,365h1v9h-1zM5,240h1v10h-1zM5,371h1v7h-1zM6,243h1v13h-1zM6,371h1v7h-1zM6,240h1v16h-1zM6,374h1v10h-1zM6,246h1v13h-1zM6,378h1v9h-1zM6,250h1v12h-1zM6,378h1v9h-1zM7,253h1v9h-1zM7,384h1v6h-1zM7,253h1v13h-1zM7,384h1v6h-1zM7,256h1v13h-1zM7,384h1v10h-1zM7,256h1v13h-1zM7,390h1v7h-1zM8,259h1v13h-1zM8,394h1v6h-1zM8,256h1v3h-1zm0,6h1v7h-1zM8,394h1v6h-1zM8,259h1v10h-1zm0,13h1v3h-1zM8,394h1v9h-1zM9,262h1v13h-1zM9,397h1v6h-1zM9,266h1v9h-1zM9,397h1v9h-1zM9,262h1v13h-1zM9,397h1v9h-1zM10,266h1v12h-1zm0,137h1v3h-1zM10,262h1v13h-1zm0,16h1v4h-1zm0,125h1v3h-1zM11,266h1v12h-1zm0,137h1v7h-1zM11,269h1v13h-1zm0,134h1v10h-1zM11,269h1v13h-1zm0,134h1v10h-1zM12,269h1v9h-1zm0,137h1v7h-1zM12,272h1v10h-1zm0,134h1v7h-1zM13,272h1v13h-1zm0,134h1v7h-1zM13,269h1v16h-1zm0,141h1v3h-1zM14,272h1v13h-1zm0,134h1v10h-1zM14,266h1v3h-1zm0,9h1v13h-1zm0,135h1v6h-1zM15,262h1v23h-1zm0,148h1v6h-1zM15,262h1v20h-1zm0,148h1v6h-1zM16,250h1v32h-1zm0,160h1v6h-1zM16,250h1v25h-1zm0,160h1v6h-1zM17,246h1v4h-1zm0,7h1v22h-1zm0,157h1v6h-1zM17,246h1v32h-1zm0,164h1v9h-1zM18,253h1v22h-1zm0,160h1v6h-1zM18,250h1v3h-1zm0,6h1v16h-1zm0,154h1v9h-1zM19,256h1v16h-1zm0,157h1v3h-1zM20,256h1v16h-1zm0,154h1v6h-1zM20,256h1v3h-1zm0,6h1v13h-1zm0,151h1v3h-1zM21,262h1v13h-1zm0,148h1v6h-1zM22,266h1v9h-1zm0,144h1v6h-1zM23,266h1v12h-1zm0,144h1v6h-1zM23,266h1v12h-1zm0,144h1v6h-1zM24,272h1v13h-1zm0,138h1v6h-1zM25,266h1v3h-1zm0,6h1v6h-1zm0,138h1v3h-1zM26,269h1v3h-1zm0,6h1v10h-1zm0,135h1v6h-1zM26,272h1v13h-1zm0,134h1v7h-1zM27,272h1v16h-1zm0,138h1v3h-1zM28,272h1v16h-1zm0,138h1v6h-1zM29,269h1v19h-1zm0,137h1v10h-1zM30,234h1v3h-1zm0,32h1v25h-1zm0,140h1v7h-1zM31,250h1v6h-1zm0,9h1v29h-1zm0,147h1v7h-1zM32,240h1v3h-1zm0,16h1v32h-1zm0,150h1v7h-1zM33,253h1v22h-1zm0,25h1v10h-1zm0,128h1v7h-1zM34,253h1v32h-1zm0,153h1v7h-1zM35,256h1v22h-1zm0,150h1v4h-1zM36,259h1v23h-1zm0,147h1v4h-1zM37,262h2v20h-2zm0,144h2v7h-2zM39,266h1v19h-1zm0,137h1v7h-1zM40,262h1v4h-1zm0,7h1v16h-1zm0,134h1v7h-1zM41,269h1v19h-1zm0,134h1v7h-1zM42,275h2v16h-2zm0,128h2v7h-2zM44,275h1v16h-1zm0,128h1v7h-1zM45,282h1v12h-1zm0,121h1v7h-1zM46,282h2v16h-2zm0,121h2v3h-2zM48,288h1v10h-1zm0,112h1v6h-1zM49,288h2v10h-2zm0,112h2v6h-2zM51,288h1v16h-1zm0,112h1v6h-1zM52,291h2v13h-2zm0,106h2v9h-2zM54,294h2v10h-2zm0,106h2v6h-2zM56,294h1v16h-1zm0,106h1v3h-1zm1,-99h2v9h-2zm0,96h2v6h-2zm2,-93h2v6h-2zm0,93h2v6h-2zm2,-93h2v10h-2zm0,93h2v3h-2zm2,-90h2v7h-2zm0,90h2v3h-2zm2,-93h2v3h-2zm0,6h2v7h-2zm0,80h2v4h-2zm0,7h2v6h-2zm2,-93h2v13h-2zm0,16h2v3h-2zm0,74h2v6h-2zm2,-84h2v13h-2zm0,80h2v10h-2zm2,-76h2v12h-2zm0,76h2v10h-2zm2,-73h2v9h-2zm0,73h2v7h-2zm2,-73h2v16h-2zm0,73h2v10h-2zm2,-73h3v13h-3zm0,19h3v3h-3zm0,48h3v10h-3zm3,-61h2v16h-2zm0,61h2v13h-2zm2,-61h3v10h-3zm0,58h3v13h-3zm3,-51h2v9h-2zm0,12h2v4h-2zm0,36h2v16h-2zm2,-52h3v29h-3zm0,36h3v3h-3zm0,16h3v16h-3zm3,-45h2v25h-2zm0,29h2v28h-2zm2,-26h3v48h-3zm3,0h3v45h-3zm3,10h3v28h-3zm0,32h3v6h-3zm3,-29h3v3h-3zm0,9h3v13h-3zm0,16h3v4h-3zm3,-12h3v3h-3z"></path>
     <path fill="#1272d9" d="M2,173h1v6h-1zm0,9h1v4h-1zm0,10h1v10h-1zM2,166h1v20h-1zm0,23h1v35h-1zM2,163h1v3h-1zm0,7h1v19h-1zm0,22h1v3h-1zm0,13h1v3h-1zm0,22h1v23h-1zM2,170h1v3h-1zm0,12h1v13h-1zm0,64h1v20h-1zM2,186h1v16h-1zm0,19h1v3h-1zm0,54h1v10h-1zm0,13h1v3h-1zM2,192h1v13h-1zm0,77h1v16h-1zM3,192h1v16h-1zm0,19h1v3h-1zm0,67h1v16h-1zM3,198h1v4h-1zm0,7h1v13h-1zm0,93h1v12h-1zM3,205h1v3h-1zm0,6h1v10h-1zm0,96h1v10h-1zM3,211h1v13h-1zM3,314h1v12h-1zM3,218h1v9h-1zM3,323h1v10h-1zM4,221h1v13h-1zM4,330h1v6h-1zM4,227h1v7h-1zM4,336h1v6h-1zM4,230h1v13h-1zM4,339h1v7h-1zM4,234h1v12h-1zM4,342h1v7h-1zM4,237h1v13h-1zM4,349h1v9h-1zM5,243h1v10h-1zM5,352h1v6h-1zM5,246h1v10h-1zM5,355h1v7h-1zM5,246h1v13h-1zM5,362h1v3h-1zM5,250h1v9h-1zM5,365h1v6h-1zM6,256h1v6h-1zM6,368h1v3h-1zM6,256h1v6h-1zM6,371h1v3h-1zM6,259h1v7h-1zM6,374h1v4h-1zM6,262h1v10h-1zm1,0h1v10h-1zM7,378h1v6h-1zM7,266h1v9h-1zM7,381h1v3h-1zM7,269h1v6h-1zh1v9h-1zM7,384h1v6h-1zM8,272h1v6h-1zM8,387h1v7h-1zM8,269h1v13h-1zM8,390h1v4h-1zM8,269h1v3h-1zm0,6h1v10h-1zM8,390h1v4h-1zM9,275h1v7h-1zM9,394h1v3h-1zM9,275h1v10h-1zM9,394h1v3h-1zM9,275h1v10h-1zm1,3h1v7h-1zm0,119h1v6h-1zM10,275h1v3h-1zm0,7h1v6h-1zm0,115h1v6h-1zM11,278h1v10h-1zm0,122h1v3h-1zM11,282h1v9h-1zm0,118h1v3h-1zM11,282h1v9h-1zm0,118h1v3h-1zM12,278h1v13h-1zm0,122h1v6h-1zM12,282h1v6h-1zm0,121h1v3h-1zM13,285h1v6h-1zm0,118h1v3h-1zM13,285h1v9h-1zm0,118h1v7h-1zM14,285h1v9h-1zm0,3h1v6h-1zm0,115h1v7h-1zM15,285h1v9h-1zm0,121h1v4h-1zM15,282h1v12h-1zm0,121h1v7h-1zM16,282h1v12h-1zm0,124h1v4h-1zM16,275h1v19h-1zm0,131h1v4h-1zM17,275h1v16h-1zm0,131h1v4h-1zM17,278h1v10h-1zm0,128h1v4h-1zM18,275h1v10h-1zm0,131h1v7h-1zM18,272h1v13h-1zm0,134h1v4h-1zM19,272h1v16h-1zm0,138h1v3h-1zM20,272h1v16h-1zm0,134h1v4h-1zM20,275h1v10h-1zm0,131h1v7h-1zM21,275h1v13h-1zm0,131h1v4h-1zM22,275h1v13h-1zm0,131h1v4h-1zM23,278h1v13h-1zm0,128h1v4h-1zM23,278h1v10h-1zm0,128h1v4h-1zM24,285h1v6h-1zm0,121h1v4h-1zM25,278h1v13h-1zm0,125h1v7h-1zM26,285h1v6h-1zm0,121h1v4h-1zM26,285h1v9h-1zm0,118h1v3h-1zM27,288h1v10h-1zm0,115h1v7h-1zM28,288h1v10h-1zm0,115h1v7h-1zM29,288h1v10h-1zm0,115h1v3h-1zM30,291h1v10h-1zm0,112h1v3h-1zM31,288h1v13h-1zm0,115h1v3h-1zM32,288h1v13h-1zm0,112h1v6h-1zM33,275h1v3h-1zm0,13h1v10h-1zm0,115h1v3h-1zM34,285h1v9h-1zm0,118h1v3h-1zM35,278h1v20h-1zm0,125h1v3h-1zM36,282h1v12h-1zm0,118h1v6h-1zM37,282h2v9h-2zm0,12h2v4h-2zm0,106h2v6h-2zM39,285h1v13h-1zm0,115h1v3h-1zM40,285h1v16h-1zm0,115h1v3h-1zM41,288h1v13h-1zm0,112h1v3h-1zM42,291h2v7h-2zm0,106h2v6h-2zM44,291h1v10h-1zm0,106h1v6h-1zM45,294h1v7h-1zm0,103h1v6h-1zm1,-99h2v9h-2zm0,99h2v6h-2zm2,-99h1v9h-1zm0,99h1v3h-1zm1,-99h2v12h-2zm0,99h2v3h-2zm2,-93h1v6h-1zm0,93h1v3h-1zm1,-93h2v6h-2zm0,90h2v3h-2zm2,-90h2v13h-2zm0,90h2v6h-2zm2,-84h1v7h-1zm0,84h1v6h-1zm1,-84h2v10h-2zm0,80h2v7h-2zm2,-80h2v10h-2zm0,80h2v7h-2zm2,-76h2v9h-2zm0,76h2v7h-2zm2,-76h2v12h-2zm0,76h2v7h-2zm2,-73h2v13h-2zm0,70h2v3h-2zm0,7h2v3h-2zm2,-77h2v3h-2zm0,6h2v7h-2zm0,64h2v7h-2zm2,-64h2v10h-2zm0,61h2v6h-2zm2,-58h2v10h-2zm0,58h2v6h-2zm2,-58h2v10h-2zm0,13h2v3h-2zm0,39h2v12h-2zm2,-45h2v13h-2zm0,16h2v6h-2zm0,29h2v12h-2zm2,-48h3v6h-3zm0,9h3v13h-3zm0,39h3v6h-3zm3,-39h2v23h-2zm0,26h2v19h-2zm2,-32h3v48h-3zm3,6h2v3h-2zm0,7h2v32h-2zm2,9h3v7h-3zm0,10h3v13h-3zm3,-7h2v4h-2z"></path>
     <path fill="#1481d6" d="M2,186h1v3h-1zm0,3h1v3h-1zm0,6h1v10h-1zm0,13h1v19h-1zM2,195h1v23h-1zm0,26h1v25h-1zM2,202h1v3h-1zm0,6h1v22h-1zm0,26h1v25h-1zM2,205h1v16h-1zm0,48h1v16h-1zM3,208h1v3h-1zm0,6h1v13h-1zm0,58h1v6h-1zM3,218h1v6h-1zm0,64h1v3h-1zm0,6h1v10h-1zM3,221h1v9h-1zm0,77h1v9h-1zM3,224h1v10h-1zm0,80h1v10h-1zM3,227h1v13h-1zm0,87h1v9h-1zM4,234h1v9h-1zm0,86h1v10h-1zM4,234h1v12h-1zm0,92h1v10h-1zM4,243h1v7h-1zm0,90h1v6h-1zM4,246h1v7h-1zm0,93h1v3h-1zM4,250h1v6h-1zm0,96h1v3h-1zM5,253h1v6h-1zm0,96h1v3h-1zM5,256h1v6h-1zm0,96h1v3h-1zM5,259h1v7h-1zm0,99h1v4h-1zM5,259h1v7h-1zm0,99h1v7h-1zM6,262h1v7h-1zM6,362h1v6h-1zM6,262h1v10h-1zM6,365h1v6h-1zM6,266h1v9h-1zM6,368h1v6h-1zM6,272h1v6h-1zm0,99h1v7h-1zM7,272h1v6h-1zM7,374h1v4h-1zM7,275h1v7h-1zM7,378h1v3h-1zM7,275h1v7h-1zM7,381h1v3h-1zM7,278h1v7h-1zM7,381h1v3h-1zM8,278h1v7h-1zM8,384h1v3h-1zM8,282h1v6h-1zM8,384h1v6h-1zM8,285h1v3h-1zM8,387h1v3h-1zM9,282h1v9h-1zM9,387h1v7h-1zM9,285h1v6h-1zM9,390h1v4h-1zM9,285h1v3h-1zM9,390h1v7h-1zM10,285h1v9h-1zm0,109h1v3h-1zM10,288h1v6h-1zm0,106h1v3h-1zM11,288h1v6h-1zm0,109h1v3h-1zM11,291h1v3h-1zm0,106h1v3h-1zM11,291h1v7h-1zm0,106h1v3h-1zM12,291h1v7h-1zm0,106h1v3h-1zM12,288h1v10h-1zm0,112h1v3h-1zM13,291h1v10h-1zm0,109h1v3h-1zM13,294h1v4h-1zm0,106h1v3h-1zM14,294h1v4h-1zm0,106h1v6h-1zM14,294h1v7h-1zm0,106h1v3h-1zM15,294h1v4h-1zm0,7h1v3h-1zm0,102h1v3h-1zM15,294h1v7h-1zm1,0h1v7h-1zm0,109h1v3h-1zM16,294h1v7h-1zm0,109h1v3h-1zM17,291h1v7h-1zm0,112h1v3h-1zM17,288h1v13h-1zm0,115h1v3h-1zM18,285h1v13h-1zm0,118h1v3h-1zM18,285h1v9h-1zm0,13h1v3h-1zm0,105h1v3h-1zM19,288h1v6h-1zm0,115h1v7h-1zM20,288h1v6h-1zm0,115h1v3h-1zM20,285h1v9h-1zm0,115h1v6h-1zM21,288h1v10h-1zm0,115h1v3h-1zM22,288h1v13h-1zm0,115h1v3h-1zM23,291h1v7h-1zm0,109h1v6h-1zM23,288h1v6h-1zm0,115h1v3h-1zM24,291h1v10h-1zm0,112h1v3h-1zM25,291h1v10h-1zm0,109h1v3h-1zM26,291h1v10h-1zm0,109h1v6h-1zM26,294h1v10h-1zm0,106h1v3h-1zM27,298h1v6h-1zm0,102h1v3h-1zM28,298h1v3h-1zm0,102h1v3h-1zM29,298h1v9h-1zm0,102h1v3h-1zm1,-99h1v6h-1zm0,99h1v3h-1zm1,-99h1v6h-1zm0,99h1v3h-1zm1,-99h1v9h-1zm1,-3h1v6h-1zm0,102h1v3h-1zM34,294h1v13h-1zm0,103h1v6h-1zm1,-99h1v9h-1zm0,99h1v6h-1zM36,294h1v16h-1zm0,103h1v3h-1zM37,291h2v3h-2zm0,7h2v9h-2zm0,99h2v3h-2zm2,-99h1v9h-1zm0,99h1v3h-1zm1,-96h1v6h-1zm0,96h1v3h-1zm1,-96h1v3h-1zm0,96h1v3h-1zm1,-99h2v16h-2zm0,96h2v3h-2zm2,-93h1v6h-1zm0,93h1v3h-1zm1,-93h1v13h-1zm0,93h1v3h-1zm1,-87h2v3h-2zm0,83h2v7h-2zm2,-83h1v7h-1zm0,83h1v7h-1zm1,-80h2v4h-2zm0,80h2v7h-2zm2,-80h1v7h-1zm0,77h1v10h-1zm1,-77h2v13h-2zm0,77h2v7h-2zm2,-70h2v6h-2zm0,73h2v4h-2zm2,-73h1v6h-1zm0,70h1v7h-1zm1,-67h2v10h-2zm0,67h2v3h-2zm2,-67h2v10h-2zm0,67h2v3h-2zm2,-64h2v7h-2zm0,58h2v9h-2zm2,-55h2v7h-2zm0,55h2v9h-2zm2,-51h2v9h-2zm0,51h2v6h-2zm2,-51h2v9h-2zm0,51h2v6h-2zm2,-48h2v13h-2zm0,35h2v3h-2zm0,6h2v10h-2zm2,-38h2v10h-2zm0,19h2v3h-2zm0,10h2v19h-2zm2,-29h2v3h-2zm0,6h2v10h-2zm0,13h2v23h-2zm2,-9h2v3h-2zm0,9h2v23h-2zm2,-3h3v26h-3zm3,10h2v3h-2z"></path>
     <path fill="#0e8fd1" d="M2,218h1v3h-1zm0,12h1v4h-1zm0,-9h1v32h-1zm1,6h1v13h-1zm0,16h1v3h-1zm0,10h1v19h-1zM3,224h1v13h-1zm0,16h1v6h-1zm0,32h1v10h-1zm0,13h1v3h-1zM3,230h1v16h-1zm0,52h1v3h-1zm0,6h1v10h-1zM3,234h1v9h-1zm0,12h1v4h-1zm0,48h1v10h-1zM3,240h1v13h-1zm0,64h1v10h-1zM4,243h1v10h-1zm0,71h1v6h-1zM4,246h1v7h-1zm0,77h1v3h-1zM4,250h1v9h-1zm0,76h1v7h-1zM4,253h1v6h-1zm0,77h1v3h-1zm0,6h1v3h-1zM4,256h1v10h-1zm0,83h1v7h-1zM5,259h1v10h-1zm0,87h1v3h-1zM5,262h1v7h-1zm0,84h1v6h-1zM5,266h1v6h-1zm0,86h1v6h-1zM5,266h1v6h-1zm0,89h1v3h-1zM6,269h1v9h-1zm0,89h1v4h-1zM6,272h1v10h-1zm0,90h1v3h-1zM6,275h1v7h-1zm0,90h1v3h-1zM6,278h1v7h-1zm1,0h1v7h-1zm0,93h1v3h-1zM7,282h1v6h-1zm0,92h1v4h-1zM7,282h1v6h-1zm0,92h1v7h-1zM7,285h1v3h-1zm0,93h1v3h-1zM8,285h1v6h-1zm0,93h1v6h-1zM8,288h1v3h-1zm0,93h1v3h-1zM8,288h1v6h-1zm0,96h1v3h-1zM9,291h1v7h-1zh1v7h-1zm0,96h1v3h-1zM9,288h1v10h-1zm1,6h1v4h-1zm0,96h1v4h-1zm0,-96h1v4h-1zm0,96h1v4h-1zm1,-96h1v7h-1zm0,96h1v7h-1zm0,-96h1v7h-1zm0,100h1v3h-1zm0,-96h1v3h-1zm0,96h1v3h-1zm1,-96h1v6h-1zm0,96h1v3h-1zm0,-96h1v6h-1zm0,99h1v3h-1zm1,-96h1v3h-1zm0,96h1v3h-1zm0,-99h1v6h-1zm0,99h1v3h-1zm1,-99h1v6h-1zm0,3h1v3h-1zm0,96h1v3h-1zm1,-99h1v3h-1zm0,6h1v3h-1zm0,96h1v3h-1zm0,-99h1v6h-1zm0,96h1v6h-1zm1,-96h1v6h-1zm0,99h1v3h-1zm0,-99h1v6h-1zm0,99h1v3h-1zM17,298h1v9h-1zm0,102h1v3h-1zm0,-99h1v3h-1zm0,99h1v3h-1zM18,298h1v6h-1zm0,102h1v3h-1zM18,294h1v4h-1zm0,7h1v6h-1zm0,99h1v3h-1zM19,294h1v13h-1zm0,106h1v3h-1zM20,294h1v7h-1zm0,106h1v3h-1zM20,294h1v10h-1zm1,4h1v6h-1zm0,102h1v3h-1zm1,0h1v3h-1zM23,298h1v3h-1zm0,-4h1v7h-1zm0,106h1v3h-1zm1,-99h1v3h-1zm0,99h1v3h-1zm1,-99h1v3h-1zm1,0h1v6h-1zm0,96h1v3h-1zm0,-93h1v6h-1zm0,93h1v3h-1zm1,-93h1v6h-1zm0,93h1v3h-1zm1,-96h1v9h-1zm0,96h1v3h-1zm1,-90h1v3h-1zm0,90h1v3h-1zm1,-90h1v3h-1zm0,90h1v3h-1zm1,-90h1v3h-1zm0,87h1v6h-1zm1,-84h1v7h-1zm0,84h1v6h-1zm1,-90h1v10h-1zm0,90h1v6h-1zm1,-87h1v7h-1zm0,87h1v3h-1zm1,-87h1v7h-1zm0,87h1v3h-1zm1,-84h1v4h-1zm0,84h1v3h-1zm1,-87h2v7h-2zm0,87h2v3h-2zm2,-87h1v10h-1zm0,87h1v3h-1zm1,-87h1v10h-1zm0,83h1v7h-1zm1,-86h1v10h-1zm0,86h1v7h-1zm1,-76h2v3h-2zm0,76h2v4h-2zm2,-83h1v10h-1zm0,83h1v4h-1zm1,-76h1v3h-1zm0,76h1v4h-1zm1,-80h2v10h-2zm2,4h1v6h-1zm0,73h1v3h-1zm1,-73h2v9h-2zm0,73h2v3h-2zm2,-70h1v6h-1zm1,6h2v7h-2zm0,61h2v3h-2zm2,-61h2v10h-2zm0,58h2v9h-2zm2,-58h1v10h-1zm0,58h1v6h-1zm1,-51h2v3h-2zm0,51h2v6h-2zm2,-51h2v6h-2zm0,44h2v13h-2zm2,-44h2v9h-2zm0,19h2v3h-2zm0,29h2v3h-2zm2,-45h2v13h-2zm0,45h2v3h-2zm2,-39h2v13h-2zm0,19h2v4h-2zm0,10h2v13h-2zm2,-29h2v42h-2zm2,7h2v22h-2zm0,25h2v3h-2zm2,-25h2v9h-2zm0,12h2v7h-2zm2,-6h2v3h-2z"></path>
     <path fill="#099dcc" d="M3,240h1v3h-1zm0,6h1v7h-1zm0,-9h1v3h-1zm0,9h1v26h-1zh1v16h-1zm0,20h1v16h-1zm0,19h1v3h-1zM3,243h1v3h-1zm0,7h1v9h-1zm0,12h1v4h-1zm0,13h1v3h-1zm0,10h1v9h-1zM3,253h1v6h-1zm0,41h1v10h-1zM4,253h1v6h-1zm0,51h1v10h-1zM4,253h1v6h-1zm0,9h1v4h-1zm0,52h1v9h-1zM4,259h1v10h-1zm0,64h1v3h-1zM4,259h1v10h-1zm0,67h1v4h-1zm0,7h1v3h-1zM4,266h1v6h-1zm0,70h1v3h-1zM5,269h1v3h-1zm0,70h1v7h-1zM5,269h1v6h-1zm0,73h1v4h-1zM5,272h1v6h-1zm0,77h1v3h-1zM5,272h1v10h-1zm0,80h1v3h-1zM6,278h1v4h-1zm0,77h1v3h-1zM6,282h1v3h-1zm0,76h1v4h-1zM6,282h1v3h-1zm0,80h1v3h-1zM6,285h1v3h-1zm0,80h1v6h-1zM7,285h1v6h-1zm0,83h1v3h-1zM7,288h1v3h-1zm0,80h1v6h-1zM7,288h1v6h-1zh1v6h-1zm0,86h1v4h-1zM8,291h1v3h-1zh1v3h-1zm0,87h1v3h-1zM8,294h1v4h-1zm0,87h1v3h-1zM9,298h1v3h-1zm0,86h1v3h-1zM9,298h1v3h-1zm0,86h1v3h-1zM9,298h1v3h-1zm0,86h1v6h-1zm1,-86h1v6h-1zm0,89h1v3h-1zm0,-89h1v6h-1zm0,89h1v3h-1zm1,-86h1v3h-1zh1v6h-1zm0,89h1v4h-1zm0,-89h1v6h-1zm0,89h1v4h-1zm1,-86h1v3h-1zh1v3h-1zm0,90h1v3h-1zm1,-90h1v6h-1zm0,90h1v3h-1zm0,-90h1v3h-1zm0,90h1v3h-1zm1,-90h1v6h-1zm0,93h1v3h-1zm0,-93h1v6h-1zm0,90h1v3h-1zm1,-87h1v3h-1zm0,90h1v3h-1zm0,-90h1v3h-1zm1,0h1v3h-1zm0,90h1v3h-1zm0,-90h1v3h-1zm0,90h1v3h-1zm1,-90h1v3h-1zm0,90h1v3h-1zm0,-93h1v6h-1zm0,93h1v3h-1zm1,-93h1v10h-1zm0,93h1v3h-1zm0,-90h1v3h-1zm0,90h1v3h-1zm1,-90h1v3h-1zm0,90h1v3h-1zm1,-96h1v6h-1zm0,96h1v3h-1zm0,-93h1v3h-1zm0,93h1v3h-1zm1,-93h1v6h-1zm0,93h1v3h-1zm1,-96h1v6h-1zm0,96h1v3h-1zm1,-96h1v9h-1zm0,96h1v3h-1zm0,-96h1v6h-1zm0,96h1v3h-1zm1,-93h1v6h-1zm0,93h1v3h-1zm1,-93h1v6h-1zm0,93h1v3h-1zm1,-90h1v7h-1zm0,3h1v4h-1zm0,84h1v3h-1zm1,-84h1v4h-1zm0,84h1v3h-1zm1,-84h1v4h-1zm0,80h1v7h-1zm1,-80h1v7h-1zm0,84h1v3h-1zm1,-84h1v7h-1zm0,84h1v3h-1zm1,-84h1v7h-1zm1,7h1v3h-1zm0,73h1v4h-1zm1,-76h1v6h-1zm0,76h1v4h-1zm1,-76h1v6h-1zm0,76h1v4h-1zm1,-76h1v6h-1zm0,76h1v4h-1zm1,-76h1v9h-1zm0,73h1v7h-1zm1,-73h2v9h-2zm0,76h2v4h-2zm2,-73h1v6h-1zm0,70h1v7h-1zm1,-70h1v3h-1zm0,70h1v3h-1zm1,-73h1v6h-1zm0,73h1v3h-1zm1,-70h2v6h-2zm0,67h2v6h-2zm2,-67h1v6h-1zm0,70h1v3h-1zm1,-70h1v9h-1zm0,70h1v3h-1zm1,-67h2v3h-2zm0,64h2v6h-2zm2,-64h1v10h-1zm0,64h1v3h-1zm1,-61h2v3h-2zm0,58h2v6h-2zm2,-58h1v10h-1zm0,61h1v3h-1zm1,-54h2v6h-2zm0,51h2v3h-2zm2,-48h2v6h-2zm0,45h2v3h-2zm2,-45h1v9h-1zm0,41h1v7h-1zm1,-41h2v16h-2zm0,38h2v10h-2zm2,-35h2v10h-2zm0,13h2v3h-2zm0,6h2v3h-2zm0,7h2v12h-2zm2,-23h2v10h-2zm0,13h2v26h-2zm2,-6h2v32h-2zm2,6h2v6h-2zm0,10h2v6h-2z"></path>
     <path fill="#0da7c3" d="M3,262h1v4h-1zm0,-3h1v3h-1zm0,7h1v9h-1zm0,12h1v7h-1zM3,259h1v13h-1zm0,16h1v19h-1zM4,259h1v16h-1zm0,39h1v6h-1zM4,259h1v3h-1zm0,7h1v6h-1zm0,38h1v10h-1zM4,269h1v3h-1zm0,48h1v6h-1zM4,269h1v6h-1zm0,54h1v3h-1zM4,272h1v3h-1zm0,58h1v6h-1zM5,272h1v10h-1zm0,64h1v3h-1zM5,275h1v7h-1zm0,3h1v7h-1zm0,64h1v7h-1zM5,282h1v3h-1zm0,67h1v3h-1zM6,282h1v3h-1zm0,70h1v3h-1zM6,285h1v3h-1zm0,70h1v3h-1zM6,285h1v6h-1zm0,73h1v4h-1zM6,288h1v3h-1zm0,74h1v3h-1zM7,291h1v3h-1zm0,74h1v3h-1zM7,291h1v3h-1zm0,3h1v4h-1zm0,77h1v3h-1zM7,294h1v4h-1zm0,77h1v3h-1zM8,294h1v10h-1zm0,80h1v4h-1zM8,294h1v7h-1zm0,80h1v4h-1zM8,298h1v6h-1zm0,80h1v3h-1zM9,301h1v3h-1zm0,80h1v3h-1zM9,301h1v6h-1zm0,80h1v3h-1zM9,301h1v6h-1zm1,3h1v3h-1zm0,80h1v3h-1zm0,-80h1v3h-1zm1,0h1v3h-1zm0,83h1v3h-1zh1v3h-1zm0,-80h1v3h-1zm1,0h1v3h-1zm0,83h1v4h-1zm0,-83h1v3h-1zm0,83h1v4h-1zm1,-80h1v4h-1zm0,80h1v4h-1zm0,-83h1v7h-1zm0,83h1v4h-1zm1,-80h1v4h-1zm0,84h1v3h-1zm0,-84h1v4h-1zm1,0h1v7h-1zm0,84h1v3h-1zm0,-84h1v7h-1zm0,84h1v3h-1zm1,-84h1v7h-1zm0,84h1v3h-1zm0,-84h1v7h-1zm0,84h1v3h-1zm1,-84h1v4h-1zm0,84h1v3h-1zm0,-84h1v4h-1zm0,84h1v3h-1zm1,-80h1v3h-1zm0,80h1v3h-1zm0,-84h1v4h-1zm0,84h1v3h-1zm1,-84h1v7h-1zm0,84h1v3h-1zm1,-87h1v7h-1zm0,87h1v3h-1zm0,-87h1v7h-1zm0,87h1v3h-1zm1,0h1v3h-1zm1,-87h1v7h-1zm0,87h1v3h-1zm1,-84h1v4h-1zm0,84h1v3h-1zm0,-87h1v7h-1zm0,87h1v3h-1zm1,-84h1v4h-1zm0,84h1v3h-1zm1,-84h1v4h-1zm0,84h1v3h-1zm1,-80h1v3h-1zm0,76h1v7h-1zm0,-76h1v3h-1zm0,76h1v4h-1zm1,-76h1v3h-1zm0,76h1v4h-1zm1,-76h1v6h-1zm1,3h1v3h-1zm0,73h1v4h-1zm1,-73h1v3h-1zm0,73h1v4h-1zm1,-73h1v3h-1zm0,73h1v4h-1zm1,-70h1v3h-1zm1,0h1v6h-1zm0,67h1v3h-1zm1,-67h1v6h-1zm0,67h1v3h-1zm1,-67h1v6h-1zm0,67h1v3h-1zm1,-3h1v3h-1zm1,-61h2v3h-2zm0,64h2v3h-2zm2,-64h1v3h-1zm0,61h1v3h-1zm1,-64h1v10h-1zm0,64h1v3h-1zm1,-64h1v10h-1zm0,64h1v3h-1zm1,-61h2v7h-2zm2,0h1v7h-1zm0,58h1v6h-1zm1,-55h1v4h-1zm0,55h1v6h-1zm1,-58h2v10h-2zm0,58h2v3h-2zm2,-51h1v6h-1zm0,48h1v6h-1zm1,-52h2v10h-2zm0,52h2v3h-2zm2,-45h1v3h-1zm0,6h1v3h-1zm0,32h1v13h-1zm1,-35h2v6h-2zm0,35h2v10h-2zm2,-32h2v10h-2zm0,23h2v6h-2zm0,9h2v7h-2zm2,-29h1v7h-1zm0,13h1v19h-1zm1,-6h2v6h-2zm0,9h2v13h-2zm2,-12h2v3h-2zm0,6h2v3h-2zm0,6h2v4h-2z"></path>
     <path fill="#1eafb3" d="M3,272h1v3h-1zm1,3h1v23h-1zm0,-3h1v10h-1zm0,13h1v3h-1zm0,6h1v13h-1zM4,272h1v6h-1zm0,13h1v3h-1zm0,6h1v3h-1zm0,7h1v3h-1zm0,9h1v10h-1zM4,275h1v7h-1zm0,42h1v6h-1zM4,275h1v7h-1zm0,51h1v4h-1zM5,285h1v3h-1zm0,45h1v6h-1zM5,282h1v3h-1zm0,51h1v9h-1zM5,285h1v6h-1zm0,54h1v3h-1zM5,285h1v3h-1zm0,57h1v7h-1zM6,285h1v6h-1zm0,64h1v3h-1zM6,288h1v6h-1zm0,64h1v3h-1zM6,291h1v7h-1zm0,64h1v3h-1zM6,291h1v10h-1zm0,67h1v4h-1zM7,294h1v4h-1zm0,68h1v3h-1zM7,294h1v7h-1zm0,71h1v3h-1zM7,298h1v6h-1zm0,67h1v6h-1zM7,298h1v6h-1zm0,70h1v3h-1zm1,3h1v3h-1zM8,301h1v3h-1zm0,3h1v6h-1zm0,70h1v4h-1zM9,304h1v3h-1zm0,74h1v3h-1zM9,307h1v3h-1zm0,71h1v3h-1zM9,307h1v3h-1zm0,74h1v3h-1zm1,-74h1v3h-1zm0,74h1v3h-1zm0,-74h1v3h-1zm0,77h1v3h-1zm1,-77h1v7h-1zm0,77h1v3h-1zm0,-77h1v7h-1zm0,3h1v4h-1zm0,77h1v3h-1zm1,-77h1v7h-1zm0,77h1v3h-1zm0,-77h1v7h-1zm0,77h1v3h-1zm1,-73h1v3h-1zm1,3h1v3h-1zm0,73h1v4h-1zm0,-76h1v3h-1zm0,76h1v4h-1zm1,0h1v4h-1zm0,-73h1v3h-1zm0,73h1v4h-1zm1,-73h1v3h-1zm0,73h1v4h-1zm0,-73h1v3h-1zm1,-3h1v6h-1zh1v3h-1zm1,3h1v3h-1zm0,-3h1v6h-1zm1,3h1v3h-1zm1,-3h1v6h-1zh1v3h-1zm1,-4h1v10h-1zm1,4h1v6h-1zm0,76h1v4h-1zm1,-76h1v6h-1zm0,76h1v4h-1zm0,-76h1v3h-1zm0,6h1v3h-1zm0,70h1v4h-1zm1,-76h1v6h-1zm0,76h1v4h-1zm1,-76h1v6h-1zm0,76h1v4h-1zm1,-73h1v3h-1zm0,70h1v3h-1zm0,-70h1v3h-1zm0,70h1v3h-1zm1,-70h1v3h-1zm0,70h1v3h-1zm1,-67h1v3h-1zm1,0h1v3h-1zm0,67h1v3h-1zm1,-67h1v3h-1zm0,67h1v3h-1zm1,-67h1v6h-1zm0,67h1v3h-1zm1,-64h1v3h-1zm0,64h1v3h-1zm1,-61h1v4h-1zm0,58h1v3h-1zm1,-58h1v7h-1zm0,58h1v3h-1zm1,-58h1v4h-1zm0,58h1v3h-1zm1,-61h1v10h-1zm1,3h2v7h-2zm0,55h2v6h-2zm2,-55h1v10h-1zm1,4h1v3h-1zm0,51h1v3h-1zm1,-51h1v3h-1zm0,51h1v3h-1zm1,-51h2v6h-2zm0,51h2v3h-2zm2,-51h1v9h-1zm0,48h1v3h-1zm1,-48h1v16h-1zm0,44h1v7h-1zm1,-41h2v9h-2zm0,41h2v7h-2zm2,-38h1v6h-1zm0,10h1v3h-1zm0,6h1v3h-1zm0,6h1v4h-1zm0,13h1v7h-1zm1,-35h2v13h-2zm0,16h2v3h-2zm0,13h2v13h-2zm2,-29h1v3h-1zm0,6h1v10h-1zm0,13h1v3h-1zm0,13h1v3h-1zm1,-26h2v10h-2zm0,13h2v3h-2zm0,7h2v9h-2zm2,-13h2v13h-2zm0,19h2v3h-2zm2,-19h1v6h-1zm1,6h2v3h-2z"></path>
     <path fill="#2eb7a4" d="M4,282h1v3h-1zm0,6h1v3h-1zM4,278h1v7h-1zm0,10h1v3h-1zm0,6h1v4h-1zm0,7h1v6h-1zM4,282h1v9h-1zm0,16h1v3h-1zm0,6h1v13h-1zM4,282h1v12h-1zm0,19h1v3h-1zm0,9h1v4h-1zm0,7h1v9h-1zM5,282h1v3h-1zm0,6h1v3h-1zm0,35h1v7h-1zM5,285h1v9h-1zm0,45h1v3h-1zM5,291h1v3h-1zm0,42h1v6h-1zM5,288h1v6h-1zm0,51h1v3h-1zM6,291h1v3h-1zm0,7h1v3h-1zm0,48h1v3h-1zM6,294h1v4h-1zm0,55h1v3h-1zM6,301h1v3h-1zm0,51h1v3h-1zm0,3h1v3h-1zM7,298h1v6h-1zm0,60h1v4h-1zM7,301h1v6h-1zm0,61h1v3h-1zM7,304h1v3h-1zh1v3h-1zm1,0h1v3h-1zm0,64h1v3h-1zM8,304h1v6h-1zm0,67h1v3h-1zh1v3h-1zM9,307h1v3h-1zm0,67h1v4h-1zM9,310h1v4h-1zh1v4h-1zm0,68h1v3h-1zm1,-68h1v4h-1zh1v4h-1zm0,71h1v3h-1zm1,-67h1v3h-1zm0,67h1v3h-1zm0,-67h1v3h-1zm0,70h1v3h-1zm0,-70h1v6h-1zm0,70h1v3h-1zm1,-67h1v3h-1zm0,67h1v3h-1zm1,-70h1v6h-1zm0,73h1v3h-1zm0,-70h1v3h-1zm0,70h1v3h-1zm1,-73h1v3h-1zm0,73h1v3h-1zm0,-70h1v6h-1zm1,0h1v3h-1zm0,3h1v3h-1zm0,67h1v3h-1zm1,-67h1v3h-1zh1v3h-1zm0,70h1v4h-1zm1,-70h1v3h-1zm0,70h1v4h-1zm0,-73h1v6h-1zm0,73h1v4h-1zm1,-70h1v3h-1zm0,67h1v7h-1zm0,-67h1v3h-1zm0,70h1v4h-1zm1,-70h1v3h-1zm0,70h1v4h-1zm1,-70h1v3h-1zm0,70h1v4h-1zm0,-73h1v6h-1zm0,73h1v4h-1zm1,-70h1v3h-1zm0,67h1v7h-1zm1,-67h1v3h-1zm1,-3h1v3h-1zm1,3h1v3h-1zm1,0h1v3h-1zm0,67h1v3h-1zm1,-67h1v3h-1zh1v6h-1zm1,0h1v6h-1zm1,3h1v3h-1zm0,64h1v3h-1zm1,-64h1v3h-1zm0,61h1v3h-1zm1,-61h1v7h-1zm0,61h1v3h-1zm1,-58h1v4h-1zm0,58h1v3h-1zm1,-58h1v7h-1zm0,58h1v3h-1zm1,-54h1v3h-1zm0,51h1v3h-1zm2,-51h1v6h-1zm0,51h1v3h-1zm1,-48h1v3h-1zm0,45h1v6h-1zm1,-45h2v6h-2zm0,45h2v3h-2zm2,0h1v6h-1zm1,-45h1v9h-1zm0,45h1v3h-1zm1,-45h1v9h-1zm0,41h1v7h-1zm1,-38h2v6h-2zm0,10h2v3h-2zm0,25h2v10h-2zm2,-32h1v16h-1zm0,29h1v10h-1zm1,-22h1v6h-1zm0,16h1v12h-1zm1,-20h2v20h-2zm0,23h2v9h-2zm2,-23h1v4h-1zm0,7h1v3h-1zm0,6h1v3h-1zm0,7h1v9h-1zm1,-13h2v3h-2zm0,6h2v10h-2zm2,-3h1v3h-1zm0,6h1v10h-1zm1,-6h2v3h-2zm0,6h2v4h-2z"></path>
     <path fill="#52ba92" d="M4,291h1v7h-1zm0,10h1v3h-1zm0,-7h1v7h-1zm0,10h1v6h-1zm0,10h1v3h-1zM5,291h1v3h-1zm0,16h1v3h-1zm0,7h1v9h-1zM5,294h1v4h-1zm0,26h1v3h-1zm0,6h1v4h-1zM5,294h1v7h-1zm0,36h1v3h-1zM5,294h1v7h-1zm0,42h1v3h-1zM6,294h1v4h-1zm0,48h1v4h-1zM6,298h1v6h-1zm0,48h1v3h-1zM6,298h1v3h-1zm0,51h1v3h-1zM6,301h1v6h-1zm0,51h1v3h-1zM7,304h1v3h-1zm0,48h1v6h-1zm0,6h1v4h-1zM7,307h1v3h-1zm0,55h1v3h-1zM7,307h1v3h-1zm0,58h1v3h-1zM8,307h1v3h-1zm0,3h1v4h-1zm0,58h1v3h-1zM8,310h1v7h-1zm0,58h1v3h-1zM9,310h1v7h-1zm0,64h1v4h-1zM9,317h1v3h-1zm1,-3h1v3h-1zm0,64h1v3h-1zm0,-64h1v6h-1zm0,64h1v3h-1zm1,-61h1v3h-1zm0,64h1v3h-1zm0,-61h1v3h-1zm0,61h1v3h-1zm1,-64h1v3h-1zm0,67h1v3h-1zm1,0h1v3h-1zm0,-64h1v3h-1zm0,64h1v3h-1zm1,-64h1v3h-1zm0,67h1v3h-1zm1,-67h1v6h-1zm0,67h1v3h-1zm1,0h1v3h-1zm0,-64h1v3h-1zm0,64h1v3h-1zm1,-64h1v3h-1zh1v7h-1zm0,64h1v3h-1zm1,-64h1v3h-1zh1v3h-1zm0,64h1v3h-1zm1,-64h1v7h-1zm0,64h1v3h-1zm1,-64h1v3h-1zm0,64h1v3h-1zh1v3h-1zm1,-64h1v3h-1zm1,0h1v3h-1zm0,64h1v3h-1zm1,-67h1v6h-1zm0,64h1v6h-1zm0,-61h1v7h-1zm0,64h1v3h-1zm1,-64h1v3h-1zm0,61h1v6h-1zm1,-61h1v3h-1zm0,61h1v3h-1zm1,-61h1v7h-1zm0,61h1v3h-1zm0,-58h1v4h-1zm0,58h1v3h-1zm1,-58h1v4h-1zm0,58h1v3h-1zm1,-58h1v4h-1zm0,55h1v6h-1zm1,-55h1v7h-1zm0,55h1v3h-1zm1,-51h1v6h-1zm0,51h1v3h-1zm1,-51h1v3h-1zm0,51h1v3h-1zm1,-48h1v3h-1zm0,48h1v3h-1zm1,-48h1v3h-1zm0,45h1v3h-1zm1,-45h1v3h-1zm0,45h1v6h-1zm1,-42h1v6h-1zm0,42h1v3h-1zm1,-42h1v3h-1zm1,3h2v3h-2zm0,35h2v4h-2zm2,-38h1v16h-1zm0,38h1v4h-1zm1,-32h1v13h-1zm0,26h1v10h-1zm1,-26h1v13h-1zm0,16h1v4h-1zm0,7h1v9h-1zm1,-23h2v4h-2zm0,7h2v22h-2zm2,6h1v13h-1zm1,-3h1v10h-1zm1,10h2v3h-2z"></path>
     <path fill="#74bd81" d="M5,294h1v13h-1zm0,16h1v4h-1zM5,298h1v16h-1zm0,19h1v3h-1zm0,6h1v3h-1zM5,301h1v3h-1zm0,22h1v3h-1zM5,301h1v3h-1zm0,32h1v3h-1zM6,301h1v6h-1zm0,35h1v6h-1zM6,304h1v6h-1zm0,35h1v7h-1zM6,304h1v3h-1zm0,42h1v3h-1zM6,307h1v3h-1zm0,42h1v3h-1zM7,307h1v3h-1zh1v7h-1zm0,48h1v3h-1zM7,310h1v4h-1zm0,48h1v4h-1zM7,310h1v7h-1zm0,48h1v7h-1zM8,310h1v7h-1zm0,55h1v3h-1zM8,314h1v3h-1zm0,51h1v3h-1zM8,317h1v3h-1zm1,0h1v3h-1zm0,54h1v3h-1zM9,314h1v6h-1zm0,57h1v3h-1zM9,314h1v3h-1zm0,60h1v4h-1zm1,-57h1v6h-1zm0,57h1v4h-1zm0,-54h1v3h-1zm1,-3h1v3h-1zm0,61h1v3h-1zm0,-58h1v3h-1zm0,58h1v3h-1zm1,-58h1v3h-1zm0,61h1v3h-1zm0,-61h1v6h-1zm0,61h1v3h-1zm1,-61h1v6h-1zm1,3h1v3h-1zm0,61h1v3h-1zm0,-61h1v3h-1zm0,61h1v3h-1zm1,0h1v3h-1zm0,-61h1v7h-1zm0,61h1v3h-1zm1,-61h1v7h-1zm0,3h1v4h-1zm1,0h1v4h-1zm0,61h1v3h-1zm0,-57h1v3h-1zm0,54h1v3h-1zm1,-58h1v7h-1zh1v7h-1zm0,58h1v3h-1zm2,-58h1v4h-1zm0,58h1v3h-1zm0,-61h1v7h-1zm1,3h1v4h-1zm0,58h1v3h-1zm1,-58h1v4h-1zm0,58h1v3h-1zm1,-58h1v7h-1zm0,4h1v3h-1zm0,54h1v3h-1zm1,-58h1v7h-1zm1,0h1v7h-1zm1,4h1v3h-1zh1v3h-1zm0,51h1v3h-1zm1,-51h1v3h-1zm0,48h1v6h-1zm1,-48h1v6h-1zm2,48h1v3h-1zm1,-45h1v6h-1zm0,41h1v7h-1zm1,-38h1v3h-1zm0,42h1v3h-1zm1,-42h1v6h-1zm0,38h1v4h-1zm1,-38h1v10h-1zm0,38h1v4h-1zm1,-32h1v4h-1zm0,7h1v6h-1zm0,25h1v4h-1zm1,-35h1v10h-1zm0,29h1v3h-1zm0,6h1v4h-1zm1,-32h2v7h-2zm0,23h2v9h-2zm2,-13h1v6h-1zm0,13h1v9h-1zm1,-10h1v13h-1zm1,0h1v3h-1zm0,7h1v3h-1z"></path>
     <path fill="#95be71" d="M5,314h1v3h-1zM5,304h1v19h-1zm0,22h1v4h-1zM5,304h1v10h-1zm0,13h1v3h-1zm0,9h1v7h-1zM6,307h1v3h-1zm0,7h1v6h-1zm0,9h1v13h-1zm0,-9h1v3h-1zm0,22h1v3h-1zM6,307h1v10h-1zm0,32h1v7h-1zM6,310h1v4h-1zm0,32h1v7h-1zM7,310h1v7h-1zm0,39h1v3h-1zM7,314h1v3h-1zm0,38h1v3h-1zM7,314h1v3h-1zm0,41h1v3h-1zM7,317h1v3h-1zm1,0h1v3h-1zm0,45h1v3h-1zM8,317h1v3h-1zm0,3h1v3h-1zm0,45h1v3h-1zM9,320h1v3h-1zm0,48h1v3h-1zh1v3h-1zM9,320h1v3h-1zm0,51h1v3h-1zm1,0h1v3h-1zm0,3h1v4h-1zm1,-54h1v3h-1zm0,54h1v4h-1zm0,-51h1v3h-1zh1v7h-1zm0,51h1v7h-1zm1,-51h1v3h-1zm0,55h1v3h-1zm0,-52h1v4h-1zm1,0h1v4h-1zm0,55h1v3h-1zm0,-58h1v7h-1zm0,58h1v3h-1zm1,-55h1v4h-1zm0,55h1v3h-1zm0,-55h1v4h-1zm0,55h1v3h-1zm1,-55h1v4h-1zm0,55h1v3h-1zm1,-51h1v3h-1zm0,54h1v3h-1zm0,-54h1v3h-1zm0,51h1v6h-1zm1,-51h1v3h-1zm0,54h1v3h-1zm1,0h1v3h-1zm1,-54h1v6h-1zm0,54h1v3h-1zm1,-54h1v6h-1zh1v6h-1zm0,54h1v3h-1zm1,-54h1v6h-1zm1,0h1v3h-1zm0,51h1v3h-1zm1,0h1v3h-1zm0,-48h1v3h-1zm0,48h1v3h-1zm1,-48h1v3h-1zm0,48h1v3h-1zm1,-48h1v3h-1zm0,48h1v3h-1zm1,-3h1v6h-1zm0,-45h1v3h-1zm0,41h1v7h-1zm1,-41h1v9h-1zm0,41h1v4h-1zm1,-38h1v3h-1zm0,38h1v7h-1zm1,-41h1v6h-1zm0,41h1v7h-1zm1,-38h1v6h-1zm0,38h1v4h-1zm1,-35h1v10h-1zm1,0h1v10h-1zm0,29h1v3h-1zm0,6h1v4h-1zm1,-32h1v7h-1zm1,4h1v3h-1zm0,6h1v6h-1zm0,13h1v9h-1zm1,-19h1v3h-1zm0,9h1v7h-1zm0,10h1v9h-1zm1,-16h1v19h-1zm0,22h1v3h-1zm1,-22h2v16h-2zm2,9h1v7h-1z"></path>
     <path fill="#b3bd65" d="M5,314h1v3h-1zm0,6h1v6h-1zM6,310h1v4h-1zm0,10h1v3h-1zM6,310h1v4h-1zm0,7h1v19h-1zh1v3h-1zm0,9h1v4h-1zm0,10h1v3h-1zM6,314h1v6h-1zm0,25h1v3h-1zM7,317h1v3h-1zm0,29h1v3h-1zM7,317h1v6h-1zm0,32h1v3h-1zM7,317h1v6h-1zm0,35h1v3h-1zM7,320h1v3h-1zm1,0h1v3h-1zm0,38h1v4h-1zM8,320h1v6h-1zm0,42h1v3h-1zM8,323h1v3h-1zm0,39h1v3h-1zM9,323h1v3h-1zm0,42h1v3h-1zM9,320h1v6h-1zm0,45h1v3h-1zm0,3h1v3h-1zm1,-45h1v3h-1zh1v3h-1zm0,48h1v3h-1zm1,-48h1v3h-1zm0,3h1v4h-1zm0,48h1v4h-1zm1,-48h1v4h-1zm0,52h1v3h-1zm1,-48h1v3h-1zm0,48h1v3h-1zm1,-48h1v3h-1zh1v6h-1zm1,0h1v3h-1zm0,51h1v3h-1zm0,-51h1v6h-1zm1,3h1v3h-1zm0,48h1v3h-1zm0,-48h1v3h-1zm1,0h1v3h-1zm0,48h1v3h-1zm0,-48h1v3h-1zm0,48h1v3h-1zm1,-48h1v3h-1zm0,48h1v3h-1zm0,-48h1v6h-1zm0,48h1v3h-1zm1,-45h1v3h-1zm0,45h1v3h-1zm1,-45h1v3h-1zm0,45h1v3h-1zm0,-45h1v3h-1zm0,45h1v3h-1zm1,0h1v3h-1zm1,-48h1v6h-1zm0,45h1v3h-1zm1,-45h1v6h-1zm0,45h1v3h-1zm0,-42h1v3h-1zm0,42h1v3h-1zm1,-42h1v6h-1zm0,42h1v3h-1zm1,-42h1v6h-1zm0,42h1v3h-1zm1,-45h1v6h-1zm0,41h1v4h-1zm0,-38h1v6h-1zm2,3h1v3h-1zm0,32h1v3h-1zm1,-32h1v7h-1zm0,19h1v4h-1zm0,13h1v3h-1zm1,-29h1v7h-1zm0,26h1v6h-1zm1,-19h1v3h-1zm0,16h1v3h-1zm0,6h1v3h-1zm1,-22h1v3h-1zm0,9h1v4h-1zm0,7h1v3h-1zm0,6h1v3h-1zm1,-22h1v25h-1zm1,0h1v3h-1zm0,9h1v7h-1zm1,4h1v3h-1z"></path>
     <path fill="#d1bb59" d="M6,320h1v6h-1zm0,10h1v6h-1zM6,320h1v19h-1zm1,0h1v3h-1zm0,10h1v3h-1zm0,6h1v10h-1zM7,323h1v7h-1zm0,16h1v7h-1zM7,323h1v7h-1zm0,26h1v3h-1zM7,323h1v7h-1zm0,26h1v9h-1zM8,323h1v3h-1zm0,29h1v6h-1zM8,326h1v4h-1zm0,32h1v4h-1zM8,326h1v4h-1zm0,32h1v4h-1zM9,326h1v7h-1zm0,36h1v3h-1zM9,326h1v4h-1zm0,-3h1v7h-1zm1,3h1v7h-1zm0,42h1v3h-1zm0,-42h1v7h-1zm0,42h1v3h-1zm1,-42h1v4h-1zm0,45h1v3h-1zm0,-41h1v3h-1zm1,0h1v6h-1zm0,44h1v4h-1zm0,-44h1v3h-1zm0,44h1v4h-1zm1,-44h1v3h-1zm0,48h1v3h-1zm0,-45h1v3h-1zm0,41h1v4h-1zm1,-41h1v3h-1zm0,41h1v7h-1zm0,-38h1v3h-1zm0,42h1v3h-1zm1,-45h1v3h-1zm0,45h1v3h-1zm0,-42h1v3h-1zm0,42h1v3h-1zm1,-42h1v3h-1zm0,42h1v3h-1zm1,-42h1v6h-1zm0,42h1v3h-1zm0,-42h1v3h-1zm0,42h1v3h-1zm1,-42h1v6h-1zm0,42h1v3h-1zm0,-39h1v3h-1zm0,39h1v3h-1zm1,-39h1v3h-1zm0,39h1v3h-1zm1,-39h1v3h-1zm0,39h1v3h-1zm0,-39h1v3h-1zm0,35h1v7h-1zm1,-38h1v6h-1zm0,42h1v3h-1zm1,-39h1v3h-1zm0,35h1v4h-1zm1,-35h1v10h-1zm0,35h1v4h-1zm0,-35h1v3h-1zm0,35h1v4h-1zm1,-32h1v4h-1zm0,29h1v7h-1zm1,-29h1v7h-1zm0,26h1v3h-1zm0,6h1v4h-1zm1,-35h1v10h-1zm0,32h1v3h-1zm0,-29h1v7h-1zm0,23h1v9h-1zm1,-23h1v7h-1zm0,10h1v3h-1zm0,10h1v3h-1zm0,6h1v6h-1zm1,-26h1v7h-1zm0,20h1v3h-1zm0,6h1v3h-1zm1,-22h1v12h-1zm0,16h1v9h-1zm1,-13h1v9h-1zm0,16h1v3h-1zm1,-13h1v13h-1zm0,16h1v3h-1zm1,-16h1v6h-1zm0,10h1v3h-1z"></path>
     <path fill="#e2c04b" d="M7,323h1v7h-1zm0,10h1v3h-1zm0,-3h1v9h-1zm0,16h1v3h-1zM7,330h1v6h-1zm0,9h1v10h-1zm0,-9h1v6h-1zm0,12h1v7h-1zM8,326h1v4h-1zm0,20h1v3h-1zM8,330h1v3h-1zm0,22h1v6h-1zM8,330h1v3h-1zm0,25h1v3h-1zm1,3h1v4h-1zM9,330h1v6h-1zm0,32h1v3h-1zh1v6h-1zm1,3h1v3h-1zm0,-32h1v3h-1zm0,32h1v3h-1zm1,-35h1v9h-1zm0,38h1v6h-1zm0,-38h1v6h-1zm0,38h1v3h-1zm0,-35h1v6h-1zm0,38h1v3h-1zm1,0h1v3h-1zm0,-38h1v6h-1zm0,38h1v3h-1zm1,-38h1v6h-1zm0,38h1v7h-1zm1,-35h1v3h-1zm0,38h1v4h-1zm1,-38h1v3h-1zm0,38h1v4h-1zm1,0h1v7h-1zm0,-38h1v3h-1zm0,6h1v4h-1zm1,0h1v4h-1zm0,-3h1v7h-1zm0,35h1v4h-1zm1,-32h1v4h-1zm0,32h1v4h-1zm0,-32h1v4h-1zm0,32h1v4h-1zm1,-32h1v7h-1zm0,32h1v4h-1zm1,-32h1v7h-1zm0,29h1v7h-1zm0,-29h1v7h-1zm1,0h1v7h-1zm0,32h1v4h-1zm1,-32h1v4h-1zm0,29h1v3h-1zm1,-19h1v6h-1zm0,19h1v3h-1zm0,-29h1v4h-1zm0,7h1v3h-1zm0,22h1v3h-1zm1,-25h1v6h-1zm0,19h1v6h-1zm1,-16h1v3h-1zm0,13h1v6h-1zm0,9h1v3h-1zm1,-22h1v9h-1zm0,16h1v6h-1zm0,-16h1v3h-1zm0,6h1v10h-1zm1,-6h1v3h-1zm0,6h1v7h-1zm0,10h1v3h-1zm1,-16h1v13h-1zm0,16h1v3h-1zm2,-7h1v7h-1z"></path>
     <path fill="#f4c63b" d="M7,336h1v3h-1zh1v6h-1zm1,-6h1v16h-1zm0,19h1v3h-1zM8,333h1v6h-1zm0,9h1v10h-1zm0,-9h1v9h-1zm0,16h1v6h-1zM9,333h1v9h-1zm0,19h1v6h-1zM9,336h1v6h-1zm0,22h1v4h-1zM9,330h1v9h-1zm0,22h1v3h-1zm1,-19h1v6h-1zm0,29h1v3h-1zh1v3h-1zm1,3h1v3h-1zm0,-29h1v6h-1zm0,32h1v3h-1zm1,-32h1v6h-1zm0,32h1v3h-1zm0,-29h1v3h-1zm0,29h1v3h-1zm1,-29h1v3h-1zm0,-3h1v6h-1zm1,3h1v3h-1zm0,32h1v3h-1zm0,-32h1v3h-1zm0,32h1v3h-1zm1,-32h1v7h-1zm0,32h1v7h-1zm0,-32h1v7h-1zm0,32h1v3h-1zm1,-32h1v7h-1zm0,32h1v3h-1zm0,-32h1v3h-1zm0,35h1v4h-1zm1,-28h1v3h-1zm0,25h1v7h-1zm0,-25h1v3h-1zm0,25h1v3h-1zm1,0h1v3h-1zm0,-25h1v6h-1zm0,25h1v3h-1zm1,-22h1v6h-1zm0,19h1v6h-1zm1,-19h1v3h-1zm0,19h1v3h-1zm0,-19h1v9h-1zm0,22h1v3h-1zm1,-22h1v6h-1zm0,16h1v9h-1zm1,-19h1v16h-1zm0,19h1v6h-1zm1,-16h1v3h-1zm0,19h1v3h-1zm0,-22h1v3h-1zm0,6h1v10h-1zm0,13h1v6h-1zm1,-13h1v13h-1zm1,0h1v10h-1zm1,6h1v7h-1zm0,-6h1v3h-1z"></path>
     <path fill="#fdd22b" d="M8,339h1v3h-1zm0,3h1v7h-1zm1,0h1v10h-1zh1v16h-1zm0,-3h1v10h-1zm0,16h1v7h-1zm1,-16h1v7h-1zm0,13h1v10h-1zm0,-16h1v10h-1zm0,16h1v10h-1zm1,-13h1v3h-1zm0,10h1v3h-1zm0,13h1v6h-1zm0,-23h1v7h-1zm0,26h1v3h-1zm1,-23h1v4h-1zm0,23h1v3h-1zm0,-3h1v6h-1zm1,-20h1v4h-1zm0,23h1v6h-1zm0,-23h1v7h-1zm0,26h1v6h-1zm1,-26h1v4h-1zm0,23h1v3h-1zm0,-23h1v7h-1zm1,4h1v3h-1zm0,6h1v3h-1zm0,16h1v3h-1zm0,-22h1v9h-1zm1,0h1v6h-1zm0,16h1v6h-1zm0,-16h1v6h-1zm0,22h1v6h-1zm1,-16h1v6h-1zm0,-3h1v3h-1zm0,9h1v4h-1zm1,-12h1v12h-1zm0,22h1v3h-1zm0,-16h1v19h-1zm1,3h1v13h-1zm1,-3h1v16h-1zm0,6h1v13h-1zm1,-3h1v10h-1zm1,7h1v3h-1zm1,-4h1v10h-1zm0,4h1v3h-1z"></path>
     <path fill="#fbe61d" d="M9,349h1v3h-1zm1,-3h1v6h-1zh1v6h-1zm1,-4h1v10h-1zm0,13h1v10h-1zm0,-13h1v7h-1zm0,10h1v10h-1zm0,-6h1v19h-1zm1,0h1v3h-1zm0,12h1v7h-1zm0,-16h1v10h-1zm0,13h1v7h-1zm1,-9h1v6h-1zm0,9h1v3h-1zm0,7h1v3h-1zm0,-13h1v3h-1zm0,9h1v10h-1zm1,-12h1v3h-1zm0,6h1v3h-1zm0,10h1v3h-1zm0,6h1v3h-1zm0,-19h1v3h-1zm0,16h1v6h-1zm1,-16h1v3h-1zm0,6h1v3h-1zm0,10h1v3h-1zm0,-10h1v7h-1zm0,10h1v6h-1zm1,-13h1v3h-1zm0,16h1v3h-1zm0,-16h1v16h-1zm1,-3h1v3h-1zm0,13h1v9h-1zm0,-10h1v6h-1zm0,10h1v9h-1zm1,-4h1v10h-1z"></path>
     <path fill="#f9f90f" d="M11,352h1v3h-1zm1,-3h1v9h-1zm0,3h1v3h-1zm1,0h1v3h-1zm0,6h1v4h-1zm0,-6h1v6h-1zm1,-3h1v3h-1zm0,6h1v7h-1zm0,-3h1v13h-1zm1,6h1v7h-1zm0,4h1v3h-1zm1,-7h1v7h-1zm1,3h1v4h-1z"></path>
    </g>
   </svg>
   <g>
    <g transform="translate(0,640)">
     <path d="M0,0h960" style="stroke: black; stroke-width: 1;"></path>
     <path d="M29,-12v12m32,-12v12m32,-12v12m32,-12v12m32,-24v24m32,-12v12m33,-12v12m32,-12v12m32,-12v12m32,-24v24m32,-12v12m32,-12v12m32,-12v12m32,-12v12m32,-24v24m33,-12v12m32,-12v12m32,-12v12m32,-12v12m32,-24v24m32,-12v12m32,-12v12m32,-12v12m32,-12v12m32,-24v24m33,-12v12m32,-12v12m32,-12v12m32,-12v12" style="stroke: black; stroke-width: 1;"></path>
     <g font-family="Arial" font-size="28" space="preserve">
      <text fill="black" text-anchor="middle" dy=".8em" transform="translate(157,6)">
       5
      </text>
      <text fill="black" text-anchor="middle" dy=".8em" transform="translate(318,6)">
       10
      </text>
      <text fill="black" text-anchor="middle" dy=".8em" transform="translate(478,6)">
       15
      </text>
      <text fill="black" text-anchor="middle" dy=".8em" transform="translate(639,6)">
       20
      </text>
      <text fill="black" text-anchor="middle" dy=".8em" transform="translate(799,6)">
       25
      </text>
     </g>
     <g font-family="Arial" font-size="28" space="preserve" transform="translate(960,45)">
      <text fill="black" text-anchor="end" dy=".4em">
       p [GeV]
      </text>
     </g>
    </g>
    <g>
     <path d="M0,0v640" style="stroke: black; stroke-width: 1;"></path>
     <path d="M36,640h-36m18,-16h-18m18,-16h-18m18,-16h-18m36,-16h-36m18,-16h-18m18,-16h-18m18,-16h-18m36,-16h-36m18,-16h-18m18,-16h-18m18,-16h-18m36,-16h-36m18,-16h-18m18,-16h-18m18,-16h-18m36,-16h-36m18,-16h-18m18,-16h-18m18,-16h-18m36,-16h-36m18,-16h-18m18,-16h-18m18,-16h-18m36,-16h-36m18,-16h-18m18,-16h-18m18,-16h-18m36,-16h-36m18,-16h-18m18,-16h-18m18,-16h-18m36,-16h-36m18,-16h-18m18,-16h-18m18,-16h-18m36,-16h-36m18,-16h-18m18,-16h-18m18,-16h-18m36,-16h-36" style="stroke: black; stroke-width: 1;"></path>
     <g font-family="Arial" font-size="28" space="preserve">
      <text fill="black" text-anchor="end" dy=".4em" transform="translate(-4,640)">
       -10
      </text>
      <text fill="black" text-anchor="end" dy=".4em" transform="translate(-4,576)">
       -8
      </text>
      <text fill="black" text-anchor="end" dy=".4em" transform="translate(-4,512)">
       -6
      </text>
      <text fill="black" text-anchor="end" dy=".4em" transform="translate(-4,448)">
       -4
      </text>
      <text fill="black" text-anchor="end" dy=".4em" transform="translate(-4,384)">
       -2
      </text>
      <text fill="black" text-anchor="end" dy=".4em" transform="translate(-4,320)">
       0
      </text>
      <text fill="black" text-anchor="end" dy=".4em" transform="translate(-4,256)">
       2
      </text>
      <text fill="black" text-anchor="end" dy=".4em" transform="translate(-4,192)">
       4
      </text>
      <text fill="black" text-anchor="end" dy=".4em" transform="translate(-4,128)">
       6
      </text>
      <text fill="black" text-anchor="end" dy=".4em" transform="translate(-4,64)">
       8
      </text>
      <text fill="black" text-anchor="end" dy=".4em" transform="translate(-4)">
       10
      </text>
     </g>
     <g font-family="Arial" font-size="28" space="preserve" transform="translate(-67,0)">
      <g transform=" rotate(270) translate(-40,10)">
       <text fill="black" font-size="28">
        n
       </text>
      </g>
     </g>
    </g>
   </g>
  </g>
  <g transform="translate(1086,80)">
   <path d="M0,0H48V640H0Z" style="fill: none; stroke: black; stroke-width: 1;"></path>
   <rect x="0" y="608" width="48" height="32" style="fill: #263ea8; stroke: #263ea8;"></rect>
   <rect x="0" y="576" width="48" height="32" style="fill: #1652cd; stroke: #1652cd;"></rect>
   <rect x="0" y="544" width="48" height="32" style="fill: #1064dc; stroke: #1064dc;"></rect>
   <rect x="0" y="512" width="48" height="32" style="fill: #1272d9; stroke: #1272d9;"></rect>
   <rect x="0" y="480" width="48" height="32" style="fill: #1481d6; stroke: #1481d6;"></rect>
   <rect x="0" y="448" width="48" height="32" style="fill: #0e8fd1; stroke: #0e8fd1;"></rect>
   <rect x="0" y="416" width="48" height="32" style="fill: #099dcc; stroke: #099dcc;"></rect>
   <rect x="0" y="384" width="48" height="32" style="fill: #0da7c3; stroke: #0da7c3;"></rect>
   <rect x="0" y="352" width="48" height="32" style="fill: #1eafb3; stroke: #1eafb3;"></rect>
   <rect x="0" y="320" width="48" height="32" style="fill: #2eb7a4; stroke: #2eb7a4;"></rect>
   <rect x="0" y="288" width="48" height="32" style="fill: #52ba92; stroke: #52ba92;"></rect>
   <rect x="0" y="256" width="48" height="32" style="fill: #74bd81; stroke: #74bd81;"></rect>
   <rect x="0" y="224" width="48" height="32" style="fill: #95be71; stroke: #95be71;"></rect>
   <rect x="0" y="192" width="48" height="32" style="fill: #b3bd65; stroke: #b3bd65;"></rect>
   <rect x="0" y="160" width="48" height="32" style="fill: #d1bb59; stroke: #d1bb59;"></rect>
   <rect x="0" y="128" width="48" height="32" style="fill: #e2c04b; stroke: #e2c04b;"></rect>
   <rect x="0" y="96" width="48" height="32" style="fill: #f4c63b; stroke: #f4c63b;"></rect>
   <rect x="0" y="64" width="48" height="32" style="fill: #fdd22b; stroke: #fdd22b;"></rect>
   <rect x="0" y="32" width="48" height="32" style="fill: #fbe61d; stroke: #fbe61d;"></rect>
   <rect x="0" y="0" width="48" height="32" style="fill: #f9f90f; stroke: #f9f90f;"></rect>
   <g transform="translate(48, 0)">
    <path d="M0,0v640" style="stroke: black; stroke-width: 1;"></path>
    <path d="M0,640h-33m33,-58h-33m33,-57h-33m33,-58h-33m33,-58h-33m33,-58h-33m33,-57h-33m33,-58h-33m33,-58h-33m33,-58h-33m33,-57h-33m33,-58h-33" style="stroke: black; stroke-width: 1;"></path>
    <g font-family="Arial" font-size="28" space="preserve">
     <text fill="black" text-anchor="start" dy=".4em" transform="translate(4,640)">
      0
     </text>
     <text fill="black" text-anchor="start" dy=".4em" transform="translate(4,582)">
      200
     </text>
     <text fill="black" text-anchor="start" dy=".4em" transform="translate(4,525)">
      400
     </text>
     <text fill="black" text-anchor="start" dy=".4em" transform="translate(4,467)">
      600
     </text>
     <text fill="black" text-anchor="start" dy=".4em" transform="translate(4,409)">
      800
     </text>
     <text fill="black" text-anchor="start" dy=".4em" transform="translate(4,351)">
      1000
     </text>
     <text fill="black" text-anchor="start" dy=".4em" transform="translate(4,294)">
      1200
     </text>
     <text fill="black" text-anchor="start" dy=".4em" transform="translate(4,236)">
      1400
     </text>
     <text fill="black" text-anchor="start" dy=".4em" transform="translate(4,178)">
      1600
     </text>
     <text fill="black" text-anchor="start" dy=".4em" transform="translate(4,120)">
      1800
     </text>
     <text fill="black" text-anchor="start" dy=".4em" transform="translate(4,63)">
      2000
     </text>
     <text fill="black" text-anchor="start" dy=".4em" transform="translate(4,5)">
      2200
     </text>
    </g>
   </g>
  </g>
  <g transform="translate(120,4)" font-family="Arial" font-size="40" space="preserve">
   <path d="M0,0H960V53H0Z" style="fill: none;"></path>
   <g transform="translate(278,42)">
    <text fill="black" font-size="44">
     ITS n electron vs. p
    </text>
   </g>
  </g>
  <g transform="translate(936,52)" font-family="Arial" font-size="16" space="preserve">
   <path d="M0,0H240V212H0Z" style="fill: white; stroke: black; stroke-width: 1;"></path>
   <text fill="black" text-anchor="middle" dy=".4em" transform="translate(120,18)">
    hNsigmaP_ITS_electron
   </text>
   <text fill="black" text-anchor="start" dy=".4em" transform="translate(12,53)">
    Entries
   </text>
   <text fill="black" text-anchor="end" dy=".4em" transform="translate(228,53)">
    19555970
   </text>
   <text fill="black" text-anchor="start" dy=".4em" transform="translate(12,88)">
    Mean x
   </text>
   <text fill="black" text-anchor="end" dy=".4em" transform="translate(228,88)">
    0.8396
   </text>
   <text fill="black" text-anchor="start" dy=".4em" transform="translate(12,124)">
    Mean y
   </text>
   <text fill="black" text-anchor="end" dy=".4em" transform="translate(228,124)">
    -0.1561
   </text>
   <text fill="black" text-anchor="start" dy=".4em" transform="translate(12,159)">
    Std Dev x
   </text>
   <text fill="black" text-anchor="end" dy=".4em" transform="translate(228,159)">
    0.7663
   </text>
   <text fill="black" text-anchor="start" dy=".4em" transform="translate(12,194)">
    Std Dev y
   </text>
   <text fill="black" text-anchor="end" dy=".4em" transform="translate(228,194)">
    2.011
   </text>
   <path d="M0,35h240" style="stroke: black; stroke-width: 1;"></path>
  </g>
 </g>
</svg>