<svg xmlns="http://www.w3.org/2000/svg" viewBox="0 0 1098 525" preserveAspectRatio="none" width="1098" height="525">
 <path d="M0,0H1098V525H0Z" style="fill: white;"></path>
 <g>
  <svg viewBox="0 0 527 515" preserveAspectRatio="none" x="11" y="5" width="527" height="515">
   <path d="M0,0H527V515H0Z" style="fill: white;"></path>
   <g>
    <g transform="translate(53,52)">
     <path d="M0,0H395V412H0Z" style="fill: white; stroke: black; stroke-width: 1;"></path>
     <svg x="0" y="0" overflow="hidden" width="395" height="412" viewBox="0 0 395 412">
      <g>
       <path fill="#263ea8" d="M10,185h10v11h-10zm0,31h10v11h-10zM20,155h10v41h-10zm0,51h10v10h-10zm0,41h10v11h-10zm0,31h10v10h-10zM30,82h10v11h-10zm0,31h10v11h-10zm0,31h10v11h-10zm0,31h10v21h-10zm0,41h10v21h-10zm0,52h10v20h-10zM40,103h9v10h-9zm0,41h9v52h-9zm0,83h9v20h-9zm0,41h9v31h-9zM49,52h10v10h-10zm0,51h10v10h-10zm0,21h10v20h-10zm0,31h10v113h-10zm0,123h10v10h-10zm0,21h10v10h-10zm0,20h10v11h-10zM59,113h10v217h-10zM69,82h10v31h-10zm0,42h10v61h-10zm0,72h10v134h-10zm0,144h10v10h-10zM79,52h10v10h-10zm0,30h10v11h-10zm0,21h10v52h-10zm0,93h10v10h-10zm0,41h10v10h-10zm0,21h10v72h-10zM89,103h10v41h-10zm0,165h10v10h-10zm0,20h10v42h-10zM99,41h10v11h-10zm0,21h10v62h-10zm0,226h10v93h-10zM109,21h10v10h-10zm0,41h10v10h-10zm0,20h10v52h-10zm0,217h10v51h-10zm0,72h10v10h-10zM119,62h9v41h-9zm0,247h9v31h-9zm0,41h9v11h-9zM128,31h10v10h-10zm0,31h10v51h-10zm0,247h10v62h-10zM138,10h10v11h-10zm0,42h10v30h-10zm0,41h10v10h-10zm0,226h10v42h-10zm0,62h10v10h-10zM148,62h10v31h-10zm0,278h10v31h-10zM158,0h10v10h-10zm0,41h10v41h-10zm0,289h10v20h-10zm0,41h10v20h-10zM168,31h10v10h-10zm0,21h10v10h-10zm0,20h10v10h-10zm0,247h10v42h-10zm0,52h10v20h-10zM178,21h10v10h-10zm0,41h10v10h-10zm0,268h10v31h-10zM188,31h10v51h-10zm0,299h10v41h-10zm0,51h10v10h-10zM198,21h9v10h-9zm0,20h9v31h-9zm0,299h9v21h-9zM207,31h10v10h-10zm0,21h10v20h-10zm0,267h10v52h-10zM217,41h10v41h-10zm0,278h10v52h-10zM227,31h10v62h-10zm0,299h10v41h-10zM237,31h10v21h-10zm0,31h10v31h-10zm0,257h10v62h-10zM247,31h10v62h-10zm0,278h10v41h-10zm0,52h10v10h-10zM257,31h10v72h-10zm0,288h10v11h-10zm0,21h10v21h-10zm0,41h10v10h-10zM267,41h10v11h-10zm0,31h10v21h-10zm0,31h10v10h-10zm0,196h10v51h-10zm0,82h10v10h-10zM277,41h9v72h-9zm0,258h9v10h-9zm0,20h9v31h-9zm0,42h9v10h-9zm0,20h9v10h-9zM286,52h10v51h-10zm0,61h10v21h-10zm0,145h10v10h-10zm0,20h10v41h-10zm0,52h10v10h-10zm0,20h10v11h-10zm0,21h10v10h-10zM296,72h10v52h-10zm0,72h10v11h-10zm0,124h10v41h-10zm0,51h10v21h-10zM306,52h10v10h-10zm0,20h10v83h-10zm0,93h10v20h-10zm0,51h10v11h-10zm0,21h10v10h-10zm0,31h10v41h-10zM316,82h10v217h-10zm0,227h10v41h-10zM326,72h10v10h-10zm0,31h10v165h-10zm0,175h10v10h-10zm0,41h10v11h-10zm0,21h10v10h-10zM336,144h10v62h-10zm0,72h10v11h-10zm0,21h10v41h-10zm0,82h10v11h-10zM346,113h10v11h-10zm0,21h10v21h-10zm0,31h10v10h-10zm0,20h10v31h-10zm0,42h10v51h-10zm10,-83h9v11h-9zm0,21h9v82h-9zm0,93h9v10h-9zm9,-134h10v10h-10zm0,31h10v30h-10zm0,41h10v10h-10zm0,31h10v31h-10zm0,82h10v10h-10zM375,196h10v20h-10zm10,-72h10v10h-10z"></path>
       <path fill="#1652cd" d="M69,185h10v11h-10zM79,155h10v41h-10zm0,51h10v31h-10zm0,41h10v11h-10zM89,144h10v11h-10zm0,21h10v31h-10zm0,51h10v11h-10zm0,31h10v21h-10zm0,31h10v10h-10zM99,124h10v31h-10zm0,61h10v11h-10zm0,73h10v30h-10zM109,134h10v10h-10zm0,21h10v10h-10zm0,113h10v10h-10zm0,20h10v11h-10zM119,103h9v21h-9zm0,175h9v31h-9zm9,-165h10v11h-10zm0,165h10v21h-10zM138,82h10v11h-10zm0,227h10v10h-10zM148,93h10v20h-10zm0,206h10v41h-10zM158,82h10v31h-10zm0,227h10v21h-10zM168,82h10v21h-10zm0,227h10v10h-10zM178,72h10v31h-10zm0,247h10v11h-10zM188,82h10v21h-10zm0,237h10v11h-10zM198,72h9v31h-9zm0,247h9v21h-9zM207,72h10v21h-10zm0,237h10v10h-10zM217,82h10v21h-10zm10,11h10v20h-10zm0,216h10v21h-10zM237,93h10v20h-10zm0,216h10v10h-10zM247,93h10v20h-10zm0,206h10v10h-10zM257,103h10v21h-10zm0,185h10v31h-10zM267,93h10v10h-10zm0,20h10v11h-10zm0,165h10v21h-10zM277,113h9v21h-9zm0,155h9v31h-9zm9,-165h10v10h-10zm0,31h10v21h-10zm0,134h10v10h-10zM296,124h10v20h-10zm0,31h10v61h-10zm0,72h10v10h-10zm0,20h10v21h-10zm10,-92h10v10h-10zm0,30h10v31h-10zm0,42h10v10h-10zm0,20h10v21h-10z"></path>
       <path fill="#1064dc" d="M89,155h10v10h-10zm0,41h10v20h-10zm0,31h10v20h-10zM99,155h10v30h-10zm0,61h10v11h-10zm0,31h10v11h-10zm10,-82h10v10h-10zm0,62h10v10h-10zm0,31h10v10h-10zm0,20h10v10h-10zM119,124h9v20h-9zm0,134h9v20h-9zm9,41h10v10h-10zM138,103h10v21h-10zm0,175h10v10h-10zm0,21h10v10h-10zM148,113h10v11h-10zm0,175h10v11h-10zm10,11h10v10h-10zM168,103h10v10h-10zm0,196h10v10h-10zM178,103h10v10h-10zm0,196h10v20h-10zM188,103h10v10h-10zm0,196h10v20h-10zm10,0h9v20h-9zM207,93h10v20h-10zm10,10h10v10h-10zm0,206h10v10h-10zM227,113h10v11h-10zm0,186h10v10h-10zM237,113h10v11h-10zm0,186h10v10h-10zM247,113h10v11h-10zm0,175h10v11h-10zM257,124h10v10h-10zm0,154h10v10h-10zM267,124h10v10h-10zm0,134h10v20h-10zM277,144h9v21h-9zm0,103h9v21h-9zm9,-92h10v61h-10zm0,82h10v21h-10zm10,-21h10v11h-10zm0,21h10v10h-10z"></path>
       <path fill="#1272d9" d="M99,196h10v20h-10zm0,31h10v20h-10zm10,-83h10v11h-10zm0,31h10v10h-10zm0,21h10v20h-10zm0,41h10v21h-10zm10,-93h9v21h-9zm9,-20h10v31h-10zm0,144h10v10h-10zM138,124h10v10h-10zm0,164h10v11h-10zM148,124h10v10h-10zm10,-11h10v11h-10zm0,175h10v11h-10zM198,103h9v10h-9zm9,196h10v10h-10zM217,113h10v11h-10zm0,186h10v10h-10zm10,-21h10v21h-10zM237,124h10v10h-10zm0,164h10v11h-10zM247,124h10v20h-10zm0,154h10v10h-10zM257,134h10v10h-10zm0,124h10v10h-10zM267,134h10v10h-10zm0,21h10v10h-10zm0,92h10v11h-10zM277,134h9v10h-9zm0,31h9v41h-9zm9,51h10v21h-10z"></path>
       <path fill="#1481d6" d="M109,185h10v11h-10zm0,31h10v11h-10zm10,-51h9v10h-9zm0,82h9v11h-9zm9,-92h10v10h-10zm0,82h10v10h-10zm0,21h10v10h-10zm20,10h10v20h-10zM158,124h10v10h-10zm0,144h10v20h-10zM168,113h10v11h-10zm0,165h10v21h-10zM178,113h10v11h-10zm0,175h10v11h-10zm10,0h10v11h-10zM198,113h9v11h-9zm9,0h10v11h-10zm0,175h10v11h-10zm10,0h10v11h-10zM227,124h10v10h-10zm10,154h10v10h-10zm10,-10h10v10h-10zm10,0h10v10h-10zM267,144h10v11h-10zm10,62h9v41h-9z"></path>
       <path fill="#0e8fd1" d="M119,185h9v11h-9zm0,21h9v41h-9zm9,41h10v11h-10zM138,134h10v21h-10zm0,113h10v11h-10zm0,21h10v10h-10zM148,134h10v10h-10zm20,134h10v10h-10zM188,113h10v21h-10zm0,165h10v10h-10zM198,124h9v10h-9zm0,164h9v11h-9zm9,-10h10v10h-10zM217,124h10v10h-10zm20,10h10v10h-10zm10,10h10v21h-10zm0,103h10v21h-10zM257,144h10v11h-10zm0,93h10v21h-10zm10,-72h10v20h-10zm0,51h10v21h-10z"></path>
       <path fill="#099dcc" d="M119,175h9v10h-9zm0,21h9v10h-9zm9,-31h10v10h-10zm0,31h10v10h-10zm20,-52h10v11h-10zm0,114h10v10h-10zM168,134h10v10h-10zm0,124h10v10h-10zM178,124h10v20h-10zm0,154h10v10h-10zM198,134h9v10h-9zm9,-10h10v10h-10zm10,10h10v10h-10zm0,134h10v20h-10zM227,134h10v10h-10zm0,134h10v10h-10zM237,144h10v11h-10zm0,103h10v21h-10zm10,-82h10v10h-10zm10,-10h10v41h-10zm0,61h10v11h-10zm10,-20h10v10h-10zm0,41h10v10h-10z"></path>
       <path fill="#0da7c3" d="M128,175h10v21h-10zm0,41h10v21h-10zm10,-61h10v20h-10zm0,82h10v10h-10zm0,21h10v10h-10zM148,155h10v10h-10zm10,-21h10v21h-10zm10,-10h10v10h-10zm10,144h10v10h-10zm20,10h9v10h-9zm9,-144h10v10h-10zm0,134h10v10h-10zM227,144h10v11h-10zm0,114h10v10h-10zm10,10h10v10h-10zm20,-72h10v20h-10zm10,-11h10v11h-10zm0,21h10v10h-10z"></path>
       <path fill="#1eafb3" d="M128,206h10v10h-10zm10,-21h10v21h-10zm0,42h10v10h-10zm10,-62h10v10h-10zm10,-10h10v10h-10zm0,103h10v10h-10zM168,144h10v11h-10zm10,0h10v11h-10zm10,0h10v11h-10zm10,124h9v10h-9zM217,144h10v11h-10zm20,11h10v10h-10zm20,72h10v10h-10z"></path>
       <path fill="#2eb7a4" d="M138,175h10v10h-10zm0,41h10v11h-10zm10,21h10v21h-10zm10,0h10v10h-10zm30,31h10v10h-10zM217,155h10v10h-10zm0,92h10v21h-10zm10,0h10v11h-10zm10,-82h10v10h-10zm10,10h10v21h-10zm0,62h10v10h-10z"></path>
       <path fill="#52ba92" d="M138,206h10v10h-10zm10,21h10v10h-10zm10,20h10v11h-10zm20,11h10v10h-10zM188,134h10v10h-10zm0,124h10v10h-10zM198,144h9v11h-9zm9,103h10v21h-10zm20,-92h10v10h-10zm10,20h10v10h-10zm0,62h10v10h-10zm10,-41h10v41h-10z"></path>
       <path fill="#74bd81" d="M148,175h10v10h-10zm10,-10h10v10h-10zm0,62h10v10h-10zm10,-72h10v20h-10zm10,0h10v10h-10zm0,82h10v21h-10zm10,-82h10v10h-10zm19,-11h10v11h-10zm10,21h10v10h-10zm10,0h10v10h-10zm10,20h10v52h-10z"></path>
       <path fill="#95be71" d="M148,185h10v11h-10zm0,31h10v11h-10zm10,-20h10v10h-10zm0,20h10v11h-10zm10,21h10v21h-10zm10,-72h10v10h-10zm10,82h10v11h-10zm10,-10h9v31h-9zm9,-82h10v10h-10zm10,72h10v10h-10zm10,-52h10v10h-10zm0,41h10v11h-10zm0,21h10v10h-10z"></path>
       <path fill="#b3bd65" d="M148,206h10v10h-10zm10,-31h10v10h-10zm10,0h10v10h-10zm0,41h10v21h-10zm10,11h10v10h-10zm10,-62h10v10h-10zm10,-10h9v10h-9zm0,20h9v10h-9zm9,-10h10v10h-10zm10,10h10v10h-10zm0,62h10v10h-10zm10,-10h10v10h-10z"></path>
       <path fill="#d1bb59" d="M148,196h10v10h-10zm10,-11h10v11h-10zm0,21h10v10h-10zm10,-10h10v10h-10zm10,-21h10v10h-10zm10,62h10v10h-10zm10,-72h9v10h-9zm29,20h10v11h-10z"></path>
       <path fill="#e2c04b" d="M168,185h10v11h-10zm10,0h10v11h-10zm10,42h10v10h-10zm10,0h9v10h-9zm9,-21h10v10h-10zm0,31h10v10h-10zm10,-31h10v21h-10zm10,-10h10v20h-10z"></path>
       <path fill="#f4c63b" d="M188,175h10v10h-10zm0,41h10v11h-10zm19,-41h10v10h-10zm10,10h10v11h-10z"></path>
       <path fill="#fdd22b" d="M168,206h10v10h-10zm10,-10h10v31h-10zm10,0h10v10h-10zm10,-11h9v11h-9zm9,11h10v10h-10zm0,20h10v21h-10zm10,-20h10v10h-10z"></path>
       <path fill="#fbe61d" d="M198,206h9v10h-9zm9,-21h10v11h-10z"></path>
       <path fill="#f9f90f" d="M188,185h10v11h-10zm0,21h10v10h-10zm10,-10h9v10h-9zm0,20h9v11h-9z"></path>
      </g>
     </svg>
     <g>
      <g transform="translate(0,412)">
       <path d="M0,0h395M0,-15V0M10,-8V0M20,-8V0M30,-8V0M39,-8V0M49,-15V0M59,-8V0M69,-8V0M79,-8V0M89,-8V0M99,-15V0M109,-8V0M119,-8V0M128,-8V0M138,-8V0M148,-15V0M158,-8V0M168,-8V0M178,-8V0M188,-8V0M198,-15V0M207,-8V0M217,-8V0M227,-8V0M237,-8V0M247,-15V0M257,-8V0M267,-8V0M277,-8V0M286,-8V0M296,-15V0M306,-8V0M316,-8V0M326,-8V0M336,-8V0M346,-15V0M356,-8V0M365,-8V0M375,-8V0M385,-8V0M395,-15V0" style="stroke: black; stroke-width: 1;"></path>
       <g font-family="Arial" font-size="17" space="preserve" fill="black" text-anchor="middle">
        <text dy=".8em" transform="translate(0,4)">
         -4
        </text>
        <text dy=".8em" transform="translate(49,4)">
         -3
        </text>
        <text dy=".8em" transform="translate(99,4)">
         -2
        </text>
        <text dy=".8em" transform="translate(148,4)">
         -1
        </text>
        <text dy=".8em" transform="translate(198,4)">
         0
        </text>
        <text dy=".8em" transform="translate(247,4)">
         1
        </text>
        <text dy=".8em" transform="translate(296,4)">
         2
        </text>
        <text dy=".8em" transform="translate(346,4)">
         3
        </text>
        <text dy=".8em" transform="translate(395,4)">
         4
        </text>
       </g>
      </g>
      <g>
       <path d="M0,0v412M15,412H0M8,402H0M8,391H0M8,381H0M8,371H0M15,361H0M8,350H0M8,340H0M8,330H0M8,319H0M15,309H0M8,299H0M8,288H0M8,278H0M8,268H0M15,258H0M8,247H0M8,237H0M8,227H0M8,216H0M15,206H0M8,196H0M8,185H0M8,175H0M8,165H0M15,155H0M8,144H0M8,134H0M8,124H0M8,113H0M15,103H0M8,93H0M8,82H0M8,72H0M8,62H0M15,52H0M8,41H0M8,31H0M8,21H0M8,10H0M15,0H0" style="stroke: black; stroke-width: 1;"></path>
       <g font-family="Arial" font-size="17" space="preserve" fill="black" text-anchor="end">
        <text dy=".4em" transform="translate(-2,412)">
         -20
        </text>
        <text dy=".4em" transform="translate(-2,361)">
         -15
        </text>
        <text dy=".4em" transform="translate(-2,309)">
         -10
        </text>
        <text dy=".4em" transform="translate(-2,258)">
         -5
        </text>
        <text dy=".4em" transform="translate(-2,206)">
         0
        </text>
        <text dy=".4em" transform="translate(-2,155)">
         5
        </text>
        <text dy=".4em" transform="translate(-2,103)">
         10
        </text>
        <text dy=".4em" transform="translate(-2,52)">
         15
        </text>
        <text dy=".4em" transform="translate(-2)">
         20
        </text>
       </g>
      </g>
     </g>
    </g>
    <g transform="translate(450,103)">
     <path d="M0,0H22V309H0Z" style="fill: none; stroke: black; stroke-width: 1;"></path>
     <path d="M0,294H22V309H0Z" style="fill: #1652cd;"></path>
     <path d="M0,278H22V295H0Z" style="fill: #1652cd;"></path>
     <path d="M0,263H22V279H0Z" style="fill: #1064dc;"></path>
     <path d="M0,247H22V264H0Z" style="fill: #1272d9;"></path>
     <path d="M0,232H22V248H0Z" style="fill: #1481d6;"></path>
     <path d="M0,216H22V233H0Z" style="fill: #0e8fd1;"></path>
     <path d="M0,201H22V217H0Z" style="fill: #099dcc;"></path>
     <path d="M0,185H22V202H0Z" style="fill: #0da7c3;"></path>
     <path d="M0,170H22V186H0Z" style="fill: #1eafb3;"></path>
     <path d="M0,155H22V171H0Z" style="fill: #2eb7a4;"></path>
     <path d="M0,139H22V156H0Z" style="fill: #52ba92;"></path>
     <path d="M0,124H22V140H0Z" style="fill: #74bd81;"></path>
     <path d="M0,108H22V125H0Z" style="fill: #95be71;"></path>
     <path d="M0,93H22V109H0Z" style="fill: #b3bd65;"></path>
     <path d="M0,77H22V94H0Z" style="fill: #d1bb59;"></path>
     <path d="M0,62H22V78H0Z" style="fill: #e2c04b;"></path>
     <path d="M0,46H22V63H0Z" style="fill: #f4c63b;"></path>
     <path d="M0,31H22V47H0Z" style="fill: #fdd22b;"></path>
     <path d="M0,15H22V32H0Z" style="fill: #fbe61d;"></path>
     <path d="M0,0H22V16H0Z" style="fill: #f9f90f;"></path>
     <g transform="translate(22)">
      <path d="M0,0v309M0,309H-15M0,273H-15M0,237H-15M0,201H-15M0,165H-15M0,129H-15M0,93H-15M0,57H-15M0,22H-15" style="stroke: black; stroke-width: 1;"></path>
      <g font-family="Arial" font-size="17" space="preserve" fill="black" text-anchor="start">
       <text dy=".4em" transform="translate(2,309)">
        0
       </text>
       <text dy=".4em" transform="translate(2,273)">
        20
       </text>
       <text dy=".4em" transform="translate(2,237)">
        40
       </text>
       <text dy=".4em" transform="translate(2,201)">
        60
       </text>
       <text dy=".4em" transform="translate(2,165)">
        80
       </text>
       <text dy=".4em" transform="translate(2,129)">
        100
       </text>
       <text dy=".4em" transform="translate(2,93)">
        120
       </text>
       <text dy=".4em" transform="translate(2,57)">
        140
       </text>
       <text dy=".4em" transform="translate(2,22)">
        160
       </text>
      </g>
     </g>
    </g>
    <g transform="translate(245,3)" font-family="Arial" font-size="23" space="preserve">
     <text fill="black" text-anchor="middle" dy=".4em" transform="translate(19,14)">
      h1
     </text>
    </g>
   </g>
  </svg>
  <svg viewBox="0 0 527 515" preserveAspectRatio="none" x="560" y="5" width="527" height="515">
   <path d="M0,0H527V515H0Z" style="fill: white;"></path>
   <g>
    <g transform="translate(53,52)">
     <path d="M0,0H422V360H0Z" style="fill: white; stroke: black; stroke-width: 1;"></path>
     <svg x="0" y="0" overflow="hidden" width="422" height="360" viewBox="0 0 422 360">
      <g>
       <path fill="#263ea8" d="M11,144h10v18h-10zm0,36h10v9h-10zM21,117h11v27h-11zm0,36h11v9h-11zm0,18h11v27h-11zm0,90h11v9h-11zM32,117h10v9h-10zm0,63h10v9h-10zm0,27h10v27h-10zm0,45h10v9h-10zM42,90h11v9h-11zm0,27h11v9h-11zm0,27h11v18h-11zm0,27h11v9h-11zm0,18h11v36h-11zm0,45h11v9h-11zm0,36h11v9h-11zM53,108h10v36h-10zm0,45h10v27h-10zm0,36h10v45h-10zm0,54h10v9h-10zm0,99h10v9h-10zM63,81h11v9h-11zm0,18h11v153h-11zm0,171h11v9h-11zM74,54h10v9h-10zm0,18h10v207h-10zm0,216h10v9h-10zM84,72h11v18h-11zm0,27h11v63h-11zm0,81h11v18h-11zm0,27h11v9h-11zm0,18h11v45h-11zM95,54h11v18h-11zm0,27h11v45h-11zm0,126h11v90h-11zM106,72h10v45h-10zm0,171h10v36h-10zm0,45h10v27h-10zM116,54h11v9h-11zm0,18h11v27h-11zm0,189h11v36h-11zM127,27h10v9h-10zm0,18h10v54h-10zm0,216h10v9h-10zm0,18h10v45h-10zM137,0h11v9h-11zm0,45h11v9h-11zm0,18h11v27h-11zm0,207h11v45h-11zM148,18h10v9h-10zm0,36h10v27h-10zm0,36h10v9h-10zm0,189h10v36h-10zM158,36h11v18h-11zm0,27h11v18h-11zm0,216h11v54h-11zm0,72h11v9h-11zM169,36h10v9h-10zm0,18h10v27h-10zm0,225h10v36h-10zM179,27h11v9h-11zm0,18h11v36h-11zm0,243h11v27h-11zm0,36h11v18h-11zM190,18h10v18h-10zm0,27h10v36h-10zm0,243h10v36h-10zM200,0h11v9h-11zm0,18h11v9h-11zm0,18h11v18h-11zm0,27h11v18h-11zm0,216h11v45h-11zM211,18h11v54h-11zm0,279h11v18h-11zm0,27h11v18h-11zM222,36h10v45h-10zm0,252h10v27h-10zm0,36h10v9h-10zM232,27h11v36h-11zm0,45h11v9h-11zm0,216h11v27h-11zM243,45h10v36h-10zm0,234h10v9h-10zm0,18h10v18h-10zm0,27h10v9h-10zM253,27h11v18h-11zm0,27h11v18h-11zm0,27h11v9h-11zm0,189h11v9h-11zm0,18h11v36h-11zM264,27h10v54h-10zm0,243h10v63h-10zM274,18h11v9h-11zm0,27h11v45h-11zm0,225h11v36h-11zm0,45h11v9h-11zM285,54h10v45h-10zm0,207h10v18h-10zm0,27h10v18h-10zm0,27h10v9h-10zM295,72h11v27h-11zm0,180h11v63h-11zM306,36h11v27h-11zm0,36h11v54h-11zm0,162h11v9h-11zm0,18h11v63h-11zM317,18h10v9h-10zm0,18h10v9h-10zm0,36h10v36h-10zm0,45h10v18h-10zm0,63h10v9h-10zm0,45h10v45h-10zm0,63h10v9h-10zM327,63h11v9h-11zm0,18h11v45h-11zm0,63h11v9h-11zm0,18h11v9h-11zm0,18h11v9h-11zm0,18h11v81h-11zm0,99h11v9h-11zm0,36h11v9h-11zM338,54h10v9h-10zm0,18h10v90h-10zm0,99h10v90h-10zm0,108h10v9h-10zM348,81h11v9h-11zm0,18h11v144h-11zm0,153h11v9h-11zM359,108h10v27h-10zm0,36h10v117h-10zM369,99h11v9h-11zm0,18h11v18h-11zm0,45h11v45h-11zm11,-54h10v9h-10zm0,27h10v9h-10zm0,27h10v45h-10zm0,63h10v9h-10zm0,18h10v9h-10zm0,36h10v9h-10zM390,153h11v9h-11zm0,18h11v18h-11zm0,27h11v9h-11zm0,27h11v9h-11zm11,-54h10v9h-10zm10,72h11v9h-11z"></path>
       <path fill="#1652cd" d="M84,162h11v18h-11zm0,36h11v9h-11zm0,18h11v9h-11zM95,126h11v81h-11zm11,-9h10v36h-10zm0,45h10v18h-10zm0,36h10v9h-10zm0,27h10v18h-10zM116,99h11v36h-11zm0,135h11v27h-11zM127,99h10v18h-10zm0,153h10v9h-10zm0,18h10v9h-10zM137,90h11v27h-11zm0,162h11v18h-11zM148,81h10v9h-10zm0,180h10v18h-10zM158,81h11v18h-11zm0,189h11v9h-11zM169,81h10v18h-10zm0,189h10v9h-10zM179,81h11v9h-11zm0,189h11v18h-11zM190,81h10v18h-10zm0,189h10v18h-10zM200,54h11v9h-11zm0,27h11v9h-11zm11,-9h11v9h-11zm0,198h11v27h-11zM222,81h10v9h-10zm0,189h10v18h-10zM232,63h11v9h-11zm0,18h11v9h-11zm0,189h11v18h-11zM243,81h10v9h-10zm0,189h10v9h-10zm0,18h10v9h-10zM253,72h11v9h-11zm0,18h11v9h-11zm0,171h11v9h-11zm0,18h11v9h-11zM264,81h10v27h-10zm0,180h10v9h-10zM274,90h11v27h-11zm0,171h11v9h-11zM285,99h10v18h-10zm0,144h10v18h-10zM295,99h11v27h-11zm0,135h11v18h-11zM306,126h11v18h-11zm0,27h11v9h-11zm0,36h11v9h-11zm0,27h11v18h-11zm0,27h11v9h-11zM317,108h10v9h-10zm0,27h10v45h-10zm0,63h10v27h-10zm10,-72h11v18h-11zm0,27h11v9h-11zm0,18h11v9h-11zm0,18h11v9h-11zm11,-27h10v9h-10z"></path>
       <path fill="#1064dc" d="M106,153h10v9h-10zm0,27h10v18h-10zm0,27h10v18h-10zm10,-72h11v9h-11zm0,18h11v9h-11zm0,36h11v18h-11zm0,27h11v18h-11zm11,-99h10v18h-10zm0,117h10v18h-10zM137,117h11v9h-11zm0,117h11v18h-11zM148,99h10v9h-10zm0,144h10v18h-10zM158,108h11v9h-11zm0,144h11v18h-11zM169,99h10v9h-10zm0,153h10v18h-10zM179,90h11v18h-11zm21,0h11v9h-11zm0,162h11v9h-11zm0,18h11v9h-11zM211,81h11v18h-11zm11,9h10v9h-10zm10,0h11v18h-11zm0,171h11v9h-11zM243,90h10v18h-10zm0,171h10v9h-10zM253,99h11v9h-11zm0,153h11v9h-11zm11,-9h10v18h-10zM274,117h11v9h-11zm0,135h11v9h-11zM285,126h10v9h-10zm0,99h10v18h-10zm10,-99h11v9h-11zm0,18h11v9h-11zm0,63h11v27h-11zm11,-63h11v9h-11zm0,18h11v18h-11zm0,36h11v18h-11zm11,-9h10v9h-10z"></path>
       <path fill="#1272d9" d="M116,144h11v9h-11zm0,27h11v9h-11zm11,-36h10v9h-10zm0,72h10v9h-10zm0,18h10v9h-10zm10,-99h11v9h-11zm11,-18h10v18h-10zm0,126h10v9h-10zM158,99h11v9h-11zm0,135h11v18h-11zM190,99h10v9h-10zm0,162h10v9h-10zm10,0h11v9h-11zm11,-9h11v18h-11zM222,99h10v9h-10zm0,153h10v18h-10zm10,0h11v9h-11zM243,108h10v9h-10zm0,144h10v9h-10zM253,108h11v9h-11zm11,0h10v9h-10zm10,18h11v9h-11zm0,99h11v27h-11zM285,117h10v9h-10zm0,99h10v9h-10zm10,-81h11v9h-11zm0,36h11v36h-11zm11,9h11v9h-11z"></path>
       <path fill="#1481d6" d="M116,162h11v9h-11zm0,18h11v9h-11zm0,27h11v9h-11zm11,-54h10v9h-10zm0,27h10v27h-10zm0,36h10v9h-10zm10,0h11v18h-11zm21,9h11v9h-11zm11,18h10v9h-10zM179,108h11v18h-11zm0,135h11v27h-11zm11,0h10v18h-10zM200,99h11v9h-11zm0,144h11v9h-11zM211,99h11v18h-11zm11,144h10v9h-10zm10,0h11v9h-11zM253,117h11v9h-11zm0,117h11v18h-11zM264,117h10v9h-10zm0,99h10v9h-10zm0,18h10v9h-10zm10,-99h11v18h-11zm0,81h11v9h-11zm11,-81h10v27h-10zm0,36h10v9h-10zm0,27h10v18h-10zm10,-45h11v18h-11z"></path>
       <path fill="#0e8fd1" d="M127,144h10v9h-10zm0,18h10v9h-10zm10,-18h11v9h-11zm0,45h11v9h-11zm11,-63h10v9h-10zm0,81h10v9h-10zm0,18h10v9h-10zM158,117h11v9h-11zm11,-9h10v18h-10zm21,0h10v9h-10zm10,0h11v9h-11zm0,126h11v9h-11zM232,108h11v9h-11zm11,126h10v18h-10zM253,126h11v9h-11zm11,99h10v9h-10zm10,-72h11v9h-11zm0,45h11v18h-11zm11,-36h10v9h-10zm0,18h10v18h-10z"></path>
       <path fill="#099dcc" d="M127,171h10v9h-10zm10,-36h11v9h-11zm0,36h11v9h-11zm0,36h11v9h-11zm11,-72h10v18h-10zm0,45h10v9h-10zm0,36h10v9h-10zm10,-90h11v9h-11zm0,90h11v9h-11zm11,0h10v27h-10zm10,18h11v9h-11zM190,117h10v9h-10zm10,0h11v9h-11zm11,117h11v18h-11zM222,108h10v9h-10zm10,9h11v18h-11zm11,0h10v18h-10zm10,108h11v9h-11zm11,-99h10v9h-10zm0,81h10v9h-10zm10,-45h11v9h-11zm0,18h11v9h-11z"></path>
       <path fill="#0da7c3" d="M137,153h11v18h-11zm0,27h11v9h-11zm0,18h11v9h-11zm11,0h10v9h-10zm21,-72h10v9h-10zm21,108h10v9h-10zm21,-9h11v9h-11zM222,117h10v18h-10zm0,117h10v9h-10zm10,0h11v9h-11zm11,-9h10v9h-10zm10,-90h11v9h-11zm0,72h11v9h-11zm11,-72h10v18h-10zm10,36h11v9h-11z"></path>
       <path fill="#1eafb3" d="M148,153h10v27h-10zm0,36h10v9h-10zm10,-54h11v27h-11zm11,0h10v9h-10zm10,-9h11v9h-11zm11,99h10v9h-10zM211,117h11v9h-11zm11,108h10v9h-10zm10,-9h11v18h-11zm11,-81h10v9h-10zm0,72h10v18h-10zm10,9h11v9h-11zm11,-63h10v54h-10zm10,36h11v9h-11z"></path>
       <path fill="#2eb7a4" d="M158,207h11v9h-11zm11,0h10v9h-10zm10,-72h11v18h-11zm0,81h11v18h-11zm11,-90h10v9h-10zm10,0h11v9h-11zm11,0h11v9h-11zm0,90h11v9h-11zm11,0h10v9h-10zm10,-81h11v9h-11zm11,9h10v9h-10zm0,18h10v9h-10zm10,-18h11v27h-11z"></path>
       <path fill="#52ba92" d="M158,162h11v9h-11zm0,27h11v18h-11zm11,-45h10v9h-10zm21,-9h10v9h-10zm10,81h11v18h-11zm43,-63h10v9h-10zm10,36h11v18h-11z"></path>
       <path fill="#74bd81" d="M158,171h11v18h-11zm11,27h10v9h-10zm21,-54h10v9h-10zm0,18h10v9h-10zm10,-18h11v9h-11zm11,-9h11v9h-11zm11,0h10v18h-10zm10,9h11v9h-11zm0,54h11v18h-11zm21,-27h11v18h-11z"></path>
       <path fill="#95be71" d="M169,153h10v45h-10zm10,0h11v9h-11zm0,45h11v18h-11zm11,9h10v18h-10zm10,-72h11v9h-11zm0,72h11v9h-11zm11,-63h11v9h-11zm0,63h11v9h-11zm11,0h10v9h-10zm10,-54h11v9h-11zm0,27h11v9h-11zm11,-9h10v9h-10zm0,27h10v9h-10z"></path>
       <path fill="#b3bd65" d="M179,162h11v9h-11zm0,18h11v9h-11zm11,-9h10v9h-10zm32,-18h10v9h-10zm10,9h11v9h-11zm11,18h10v18h-10z"></path>
       <path fill="#d1bb59" d="M190,198h10v9h-10zm10,0h11v9h-11zm11,-45h11v9h-11zm0,45h11v9h-11zm11,-27h10v9h-10zm10,0h11v9h-11z"></path>
       <path fill="#e2c04b" d="M190,153h10v9h-10zm10,0h11v18h-11zm0,36h11v9h-11zm11,-27h11v18h-11zm0,27h11v9h-11zm11,0h10v18h-10zm10,0h11v9h-11z"></path>
       <path fill="#f4c63b" d="M190,189h10v9h-10zm10,-18h11v9h-11zm22,-9h10v9h-10zm0,18h10v9h-10z"></path>
       <path fill="#fdd22b" d="M179,171h11v9h-11zm0,18h11v9h-11zm11,-9h10v9h-10zm10,0h11v9h-11z"></path>
       <path fill="#f9f90f" d="M211,180h11v9h-11z"></path>
      </g>
     </svg>
     <g>
      <g transform="translate(0,360)">
       <path d="M0,0h422M0,-13V0M11,-7V0M21,-7V0M32,-7V0M42,-7V0M53,-13V0M63,-7V0M74,-7V0M84,-7V0M95,-7V0M106,-13V0M116,-7V0M127,-7V0M137,-7V0M148,-7V0M158,-13V0M169,-7V0M179,-7V0M190,-7V0M200,-7V0M211,-13V0M222,-7V0M232,-7V0M243,-7V0M253,-7V0M264,-13V0M274,-7V0M285,-7V0M295,-7V0M306,-7V0M317,-13V0M327,-7V0M338,-7V0M348,-7V0M359,-7V0M369,-13V0M380,-7V0M390,-7V0M401,-7V0M411,-7V0M422,-13V0" style="stroke: black; stroke-width: 1;"></path>
       <g font-family="Arial" font-size="16" space="preserve" fill="black" text-anchor="middle">
        <text dy=".8em" transform="translate(0,4)">
         -4
        </text>
        <text dy=".8em" transform="translate(53,4)">
         -3
        </text>
        <text dy=".8em" transform="translate(106,4)">
         -2
        </text>
        <text dy=".8em" transform="translate(158,4)">
         -1
        </text>
        <text dy=".8em" transform="translate(211,4)">
         0
        </text>
        <text dy=".8em" transform="translate(264,4)">
         1
        </text>
        <text dy=".8em" transform="translate(317,4)">
         2
        </text>
        <text dy=".8em" transform="translate(369,4)">
         3
        </text>
        <text dy=".8em" transform="translate(422,4)">
         4
        </text>
       </g>
      </g>
      <g>
       <path d="M0,0v360M16,360H0M8,351H0M8,342H0M8,333H0M8,324H0M16,315H0M8,306H0M8,297H0M8,288H0M8,279H0M16,270H0M8,261H0M8,252H0M8,243H0M8,234H0M16,225H0M8,216H0M8,207H0M8,198H0M8,189H0M16,180H0M8,171H0M8,162H0M8,153H0M8,144H0M16,135H0M8,126H0M8,117H0M8,108H0M8,99H0M16,90H0M8,81H0M8,72H0M8,63H0M8,54H0M16,45H0M8,36H0M8,27H0M8,18H0M8,9H0M16,0H0" style="stroke: black; stroke-width: 1;"></path>
       <g font-family="Arial" font-size="16" space="preserve" fill="black" text-anchor="end">
        <text dy=".4em" transform="translate(-2,360)">
         -20
        </text>
        <text dy=".4em" transform="translate(-2,315)">
         -15
        </text>
        <text dy=".4em" transform="translate(-2,270)">
         -10
        </text>
        <text dy=".4em" transform="translate(-2,225)">
         -5
        </text>
        <text dy=".4em" transform="translate(-2,180)">
         0
        </text>
        <text dy=".4em" transform="translate(-2,135)">
         5
        </text>
        <text dy=".4em" transform="translate(-2,90)">
         10
        </text>
        <text dy=".4em" transform="translate(-2,45)">
         15
        </text>
        <text dy=".4em" transform="translate(-2)">
         20
        </text>
       </g>
      </g>
     </g>
    </g>
    <g transform="translate(105,439)">
     <path d="M0,0H316V18H0Z" style="fill: none; stroke: black; stroke-width: 1;"></path>
     <path d="M0,0V18H17V0Z" style="fill: #263ea8;"></path>
     <path d="M16,0V18H33V0Z" style="fill: #1652cd;"></path>
     <path d="M32,0V18H48V0Z" style="fill: #1064dc;"></path>
     <path d="M47,0V18H64V0Z" style="fill: #1272d9;"></path>
     <path d="M63,0V18H80V0Z" style="fill: #1481d6;"></path>
     <path d="M79,0V18H96V0Z" style="fill: #0e8fd1;"></path>
     <path d="M95,0V18H112V0Z" style="fill: #099dcc;"></path>
     <path d="M111,0V18H127V0Z" style="fill: #0da7c3;"></path>
     <path d="M126,0V18H143V0Z" style="fill: #1eafb3;"></path>
     <path d="M142,0V18H159V0Z" style="fill: #2eb7a4;"></path>
     <path d="M158,0V18H175V0Z" style="fill: #52ba92;"></path>
     <path d="M174,0V18H191V0Z" style="fill: #74bd81;"></path>
     <path d="M190,0V18H206V0Z" style="fill: #95be71;"></path>
     <path d="M205,0V18H222V0Z" style="fill: #b3bd65;"></path>
     <path d="M221,0V18H238V0Z" style="fill: #d1bb59;"></path>
     <path d="M237,0V18H254V0Z" style="fill: #e2c04b;"></path>
     <path d="M253,0V18H270V0Z" style="fill: #f4c63b;"></path>
     <path d="M269,0V18H285V0Z" style="fill: #fdd22b;"></path>
     <path d="M284,0V18H301V0Z" style="fill: #fbe61d;"></path>
     <path d="M300,0V18H316V0Z" style="fill: #f9f90f;"></path>
     <g transform="translate(0,18)">
      <path d="M0,0h316M0,-6V0M33,-6V0M65,-6V0M98,-6V0M131,-6V0M164,-6V0M196,-6V0M229,-6V0M262,-6V0M295,-6V0" style="stroke: black; stroke-width: 1;"></path>
      <g font-family="Arial" font-size="16" space="preserve" fill="black" text-anchor="middle">
       <text dy=".8em" transform="translate(0,4)">
        0
       </text>
       <text dy=".8em" transform="translate(33,4)">
        20
       </text>
       <text dy=".8em" transform="translate(65,4)">
        40
       </text>
       <text dy=".8em" transform="translate(98,4)">
        60
       </text>
       <text dy=".8em" transform="translate(131,4)">
        80
       </text>
       <text dy=".8em" transform="translate(164,4)">
        100
       </text>
       <text dy=".8em" transform="translate(196,4)">
        120
       </text>
       <text dy=".8em" transform="translate(229,4)">
        140
       </text>
       <text dy=".8em" transform="translate(262,4)">
        160
       </text>
       <text dy=".8em" transform="translate(295,4)">
        180
       </text>
      </g>
     </g>
    </g>
    <g transform="translate(243,3)" font-family="Arial" font-size="23" space="preserve">
     <text fill="black" text-anchor="middle" dy=".4em" transform="translate(21,14)">
      h2
     </text>
    </g>
   </g>
  </svg>
 </g>
</svg>