<svg xmlns="http://www.w3.org/2000/svg" viewBox="0 0 1200 800" preserveAspectRatio="none" width="1200" height="800">
 <path d="M0,0H1200V800H0Z" style="fill: white;"></path>
 <g>
  <g transform="translate(120,80)">
   <path d="M0,0H960V640H0Z" style="fill: white; stroke: black; stroke-width: 1;"></path>
   <svg x="0" y="0" overflow="hidden" width="960" height="640" viewBox="0 0 960 640">
    <g>
     <path fill="rgb(38, 62, 168)" d="M0,534h4v18h-4zM4,88h3v18h-3zm3,0h4v18h-4zM7,566h4v10h-4zM11,106h4v32h-4zm0,396h4v64h-4zm0,74h4v8h-4zm0,27h4v5h-4zM15,37h5v12h-5zm0,37h5v510h-5zm0,517h5v7h-5zM20,37h5v5h-5zm0,19h5v496h-5zm0,510h5v37h-5zM25,17h5v3h-5zm0,7h5v4h-5zm0,18h5v7h-5zm0,14h5v510h-5zm0,520h5v27h-5zm0,36h5v8h-5zM30,20h5v12h-5zm0,17h5v69h-5zm0,101h5v414h-5zm0,428h5v42h-5zm0,50h5v7h-5zm0,11h5v3h-5zM35,2h6v3h-6zm0,15h6v3h-6zm0,7h6v4h-6zm0,13h6v12h-6zm0,19h6v18h-6zm0,50h6v32h-6zm0,428h6v18h-6zm0,32h6v46h-6zm0,54h6v7h-6zM41,13h7v4h-7zm0,11h7v18h-7zm0,25h7v15h-7zm0,542h7v25h-7zM48,20h7v29h-7zm0,578h7v14h-7zm0,18h7v4h-7zm0,7h7v4h-7zM55,0h9v2h-9zm0,13h9v4h-9zm0,11h9v25h-9zm0,574h9v18h-9zm0,22h9v3h-9zm0,10h9v2h-9zM64,10h9v22h-9zm0,593h9v24h-9zm0,27h9v2h-9zM73,13h10v19h-10zm0,595h10v12h-10zm0,15h10v7h-10zM83,5h13v3h-13zm0,5h13v7h-13zm0,10h13v12h-13zm0,588h13v24h-13zm0,27h13v3h-13zM96,8h16v2h-16zm0,5h16v11h-16zm0,599h16v20h-16zM112,10h19v3h-19zm0,7h19v3h-19zm0,595h19v20h-19zM131,5h28v5h-28zm0,8h28v11h-28zm0,603h28v14h-28zM159,8h48v2h-48zm0,5h48v15h-48zm0,603h48v11h-48zm0,19h48v3h-48zM207,10h273v3h-273zm0,7h273v7h-273zm0,599h273v14h-273zM480,8h273v16h-273zm0,608h273v19h-273zM753,5h48v3h-48zm0,5h48v7h-48zm0,10h48v4h-48zm0,596h48v11h-48zM801,5h28v19h-28zm0,611h28v7h-28zm0,11h28v3h-28zM829,13h19v11h-19zm0,603h19v4h-19zm0,7h19v4h-19zm0,7h19v2h-19zM848,17h16v7h-16zm0,591h16v22h-16zM864,13h13v15h-13zm0,595h13v22h-13zm0,24h13v3h-13zM877,13h10v15h-10zm0,595h10v19h-10zm0,22h10v2h-10zM887,8h9v2h-9zm0,5h9v24h-9zm0,590h9v5h-9zm0,9h9v11h-9zm0,18h9v2h-9zM896,10h9v7h-9zm0,10h9v22h-9zm0,578h9v5h-9zm0,10h9v15h-9zm0,22h9v2h-9zM905,24h7v18h-7zm0,567h7v32h-7zM912,17h7v25h-7zm0,32h7v7h-7zm0,15h7v10h-7zm0,520h7v7h-7zm0,14h7v10h-7zm0,18h7v4h-7zM919,20h6v8h-6zm0,12h6v56h-6zm0,544h6v32h-6zm0,36h6v4h-6zm0,18h6v2h-6zM925,20h5v12h-5zm0,22h5v64h-5zm0,510h5v56h-5zM930,8h5v2h-5zm0,12h5v17h-5zm0,22h5v542h-5zm0,549h5v21h-5zM935,32h5v5h-5zm0,24h5v528h-5zm0,535h5v17h-5zM940,17h5v3h-5zm0,32h5v15h-5zm0,25h5v14h-5zm0,246h5v256h-5zm0,264h5v7h-5zm0,14h5v10h-5zM945,64h4v24h-4zm0,42h4v32h-4zm0,396h4v74h-4zm0,89h4v7h-4zm0,29h4v3h-4zM949,74h4v14h-4zm0,428h4v32h-4zm7,32h4v18h-4z"></path>
     <path fill="rgb(22, 82, 205)" d="M30,106h5v32h-5zm0,446h5v14h-5zM35,49h6v7h-6zm0,25h6v32h-6zm0,64h6v396h-6zm0,414h6v14h-6zM41,42h7v7h-7zm0,22h7v24h-7zm0,256h7v214h-7zm0,232h7v39h-7zM48,49h7v25h-7zm0,271h7v182h-7zm0,214h7v18h-7zm0,42h7v22h-7zm7,8h9v14h-9zM64,32h9v10h-9zm0,552h9v19h-9zM73,32h10v10h-10zm0,571h10v5h-10zm10,-5h13v10h-13zM96,24h16v8h-16zm0,579h16v9h-16zM112,20h19v12h-19zm0,588h19v4h-19zM131,24h28v8h-28zm0,584h28v8h-28zM159,28h48v4h-48zm0,575h48v13h-48zm48,9h273v4h-273zM480,24h273v8h-273zm0,584h273v8h-273zM753,24h48v4h-48zm0,584h48v8h-48zM801,24h28v8h-28zm0,584h28v8h-28zM829,24h19v8h-19zm0,584h19v8h-19zM848,24h16v8h-16zm16,4h13v4h-13zm0,570h13v10h-13zM877,28h10v14h-10zm0,563h10v7h-10zm0,12h10v5h-10zM887,37h9v5h-9zm0,12h9v7h-9zm0,542h9v12h-9zm0,17h9v4h-9zM896,42h9v14h-9zm0,542h9v14h-9zm0,19h9v5h-9zM905,42h7v14h-7zm0,22h7v10h-7zm0,488h7v39h-7zM912,42h7v7h-7zm0,14h7v8h-7zm0,82h7v396h-7zm0,414h7v32h-7zm0,39h7v7h-7zM919,88h6v488h-6zm6,18h5v446h-5z"></path>
     <path fill="rgb(16, 100, 220)" d="M41,88h7v232h-7zm0,446h7v18h-7zM48,88h7v232h-7zm0,464h7v24h-7zM55,49h9v7h-9zm0,15h9v10h-9zm0,502h9v18h-9zM64,42h9v14h-9zm9,0h10v14h-10zm0,549h10v12h-10zM83,32h13v17h-13zm0,559h13v7h-13zM96,32h16v10h-16zm0,566h16v5h-16zM112,32h19v5h-19zm0,571h19v5h-19zm19,0h28v5h-28zM207,24h273v8h-273zm0,13h273v5h-273zm0,571h273v4h-273zM753,28h48v9h-48zm0,575h48v5h-48zM829,32h19v5h-19zm19,0h16v5h-16zm0,571h16v5h-16zM864,32h13v10h-13zm0,559h13v7h-13zM877,42h10v7h-10zm0,556h10v5h-10zM887,42h9v7h-9zm0,542h9v7h-9zM896,64h9v10h-9zm0,488h9v32h-9zM905,56h7v8h-7zm0,18h7v32h-7zm0,64h7v364h-7zm7,-64h7v64h-7zm0,460h7v18h-7z"></path>
     <path fill="rgb(18, 114, 217)" d="M48,74h7v14h-7zm0,428h7v32h-7zM55,56h9v8h-9zm0,18h9v32h-9zm0,428h9v32h-9zm0,50h9v14h-9zM64,56h9v8h-9zm0,510h9v18h-9zM73,56h10v8h-10zm0,510h10v10h-10zm0,18h10v7h-10zM83,49h13v7h-13zM96,42h16v7h-16zm16,-5h19v5h-19zm0,561h19v5h-19zM131,32h28v10h-28zm28,0h48v10h-48zm0,566h48v5h-48zM207,32h273v5h-273zm0,571h273v5h-273zM480,32h273v5h-273zm0,566h273v10h-273zM801,32h28v10h-28zm0,566h28v10h-28zM829,37h19v5h-19zm0,561h19v10h-19zM848,37h16v5h-16zm0,554h16v12h-16zM864,42h13v7h-13zm13,7h10v7h-10zm0,527h10v15h-10zm10,0h9v8h-9zM896,56h9v8h-9zm0,18h9v14h-9zm0,428h9v32h-9zm9,-396h7v32h-7zm0,396h7v50h-7z"></path>
     <path fill="rgb(20, 129, 214)" d="M55,106h9v214h-9zm0,428h9v18h-9zM64,64h9v24h-9zm0,74h9v182h-9zm0,396h9v32h-9zM73,64h10v24h-10zM83,584h13v7h-13zm13,0h16v14h-16zM112,42h19v7h-19zm19,556h28v5h-28zm76,0h273v5h-273zM753,37h48v5h-48zm0,561h48v5h-48zM829,42h19v14h-19zm0,549h19v7h-19zM848,42h16v7h-16zm0,542h16v7h-16zM864,49h13v7h-13zm0,535h13v7h-13zM887,56h9v32h-9zm0,50h9v32h-9zm0,428h9v42h-9zM896,88h9v50h-9zm0,232h9v182h-9zm0,214h9v18h-9z"></path>
     <path fill="rgb(14, 143, 209)" d="M55,320h9v182h-9zM64,88h9v50h-9zm0,232h9v182h-9zM73,106h10v32h-10zm0,446h10v14h-10zm0,24h10v8h-10zM83,56h13v8h-13zm0,520h13v8h-13zM96,49h16v7h-16zm16,535h19v14h-19zM131,42h28v7h-28zm0,549h28v7h-28zM159,42h48v14h-48zm48,549h273v7h-273zM480,37h273v12h-273zm273,5h48v7h-48zm0,549h48v7h-48zM801,49h28v7h-28zm0,535h28v14h-28zm28,0h19v7h-19zm19,-8h16v8h-16zM864,56h13v8h-13zm0,520h13v8h-13zM877,56h10v32h-10zm0,446h10v32h-10zm0,64h10v10h-10zM887,88h9v18h-9zm0,232h9v182h-9zm9,-182h9v182h-9z"></path>
     <path fill="rgb(9, 157, 204)" d="M64,502h9v32h-9zm9,0h10v50h-10zm10,32h13v18h-13zm13,42h16v8h-16zM112,56h19v8h-19zm19,-7h28v7h-28zm0,535h28v7h-28zm28,0h48v14h-48zM207,42h273v7h-273zM480,584h273v14h-273zM801,42h28v7h-28zm47,7h16v15h-16zm16,15h13v24h-13zm0,438h13v32h-13zM877,106h10v214h-10zm0,428h10v18h-10zM887,138h9v182h-9zm0,364h9v32h-9z"></path>
     <path fill="rgb(13, 167, 195)" d="M73,88h10v18h-10zm0,50h10v364h-10zM83,64h13v42h-13zm0,256h13v182h-13zm0,246h13v10h-13zM96,56h16v18h-16zm0,510h16v10h-16zM112,49h19v7h-19zm0,527h19v8h-19zM207,56h273v8h-273zM480,49h273v7h-273zm273,0h48v7h-48zm0,535h48v7h-48zM801,56h28v8h-28zm0,520h28v8h-28zM829,56h19v8h-19zm0,520h19v8h-19zm35,-10h13v10h-13zM877,88h10v18h-10zm0,232h10v182h-10z"></path>
     <path fill="rgb(30, 175, 179)" d="M131,576h28v8h-28zM159,56h48v8h-48zm0,520h48v8h-48zM207,49h273v7h-273zm0,535h273v7h-273zM480,56h273v8h-273zm273,0h48v8h-48zm0,520h48v8h-48zM848,74h16v14h-16zm0,478h16v24h-16z"></path>
     <path fill="rgb(46, 183, 164)" d="M83,106h13v214h-13zm0,396h13v32h-13zm0,50h13v14h-13zM96,88h16v18h-16zm0,232h16v182h-16zM112,64h19v10h-19zm0,488h19v14h-19zM159,64h48v10h-48zm48,512h273v8h-273zm273,0h273v8h-273zM801,566h28v10h-28zM829,64h19v10h-19zm0,502h19v10h-19zM848,64h16v10h-16zm16,24h13v18h-13zm0,232h13v182h-13zm0,214h13v32h-13zm13,18h10v14h-10z"></path>
     <path fill="rgb(82, 186, 146)" d="M96,74h16v14h-16zm0,64h16v182h-16zm0,364h16v32h-16zm0,50h16v14h-16zM112,74h19v14h-19zM131,56h28v18h-28zm0,510h28v10h-28zM753,64h48v10h-48zm0,502h48v10h-48zM801,64h28v10h-28zm28,10h19v14h-19zm0,478h19v14h-19zM848,106h16v32h-16zm16,0h13v214h-13z"></path>
     <path fill="rgb(116, 189, 129)" d="M96,106h16v32h-16zm16,460h19v10h-19zm19,-14h28v14h-28zm28,14h48v10h-48zm48,-14h273v14h-273zM829,106h19v32h-19zm0,214h19v182h-19zM848,138h16v182h-16zm0,364h16v50h-16z"></path>
     <path fill="rgb(149, 190, 113)" d="M112,88h19v50h-19zM131,74h28v14h-28zm0,460h28v18h-28zm28,18h48v14h-48zM207,64h273v10h-273zm0,502h273v10h-273zM480,64h273v24h-273zM801,74h28v14h-28zm0,478h28v14h-28zM829,88h19v18h-19zm0,446h19v18h-19zM848,88h16v18h-16z"></path>
     <path fill="rgb(179, 189, 101)" d="M96,534h16v18h-16zM131,320h28v182h-28zM753,534h48v32h-48zm48,-32h28v50h-28zM829,138h19v182h-19zm19,182h16v182h-16z"></path>
     <path fill="rgb(209, 187, 89)" d="M112,138h19v182h-19zm0,364h19v50h-19zM131,88h28v18h-28zm76,414h273v32h-273zm273,50h273v24h-273zM753,74h48v14h-48zm0,428h48v32h-48zM801,88h28v50h-28zm28,414h19v32h-19z"></path>
     <path fill="rgb(226, 192, 75)" d="M112,320h19v182h-19zM131,106h28v214h-28zm0,396h28v32h-28zM159,74h48v14h-48zm0,428h48v50h-48zM207,74h273v32h-273zm0,246h273v182h-273zm0,214h273v18h-273zM480,88h273v18h-273zm273,0h48v18h-48zm0,50h48v182h-48zm48,182h28v182h-28z"></path>
     <path fill="rgb(244, 198, 59)" d="M159,88h48v414h-48zm642,50h28v182h-28z"></path>
     <path fill="rgb(253, 210, 43)" d="M207,106h273v32h-273zM480,320h273v232h-273zM753,106h48v32h-48z"></path>
     <path fill="rgb(251, 230, 29)" d="M207,138h273v182h-273zM480,106h273v32h-273zM753,320h48v182h-48z"></path>
     <path fill="rgb(249, 249, 15)" d="M480,138h273v182h-273z"></path>
    </g>
   </svg>
   <g>
    <g transform="translate(0,640)">
     <path d="M0,0h960M0,-19V0M4,-10V0M7,-10V0M11,-10V0M15,-10V0M20,-19V0M25,-10V0M30,-10V0M35,-10V0M41,-10V0M48,-19V0M55,-10V0M64,-10V0M73,-10V0M83,-10V0M96,-19V0M112,-10V0M131,-10V0M159,-10V0M207,-10V0M480,-19V0M753,-10V0M801,-10V0M829,-10V0M848,-10V0M864,-19V0M877,-10V0M887,-10V0M896,-10V0M905,-10V0M912,-19V0M919,-10V0M925,-10V0M930,-10V0M935,-10V0M940,-19V0M945,-10V0M949,-10V0M953,-10V0M956,-10V0M960,-19V0" style="stroke: black; stroke-width: 1;"></path>
     <g font-family="Arial" font-size="20" xml:space="preserve" fill="black" text-anchor="middle"><text dy=".8em" transform="translate(0,5)">-4</text><text dy=".8em" transform="translate(20,5)">-3</text><text dy=".8em" transform="translate(48,5)">-2</text><text dy=".8em" transform="translate(96,5)">-1</text><text dy=".8em" transform="translate(480,5)">0</text><text dy=".8em" transform="translate(864,5)">1</text><text dy=".8em" transform="translate(912,5)">2</text><text dy=".8em" transform="translate(940,5)">3</text><text dy=".8em" transform="translate(960,5)">4</text></g>
    </g>
    <g>
     <path d="M0,0v640M29,640H0M15,638H0M15,635H0M15,632H0M15,630H0M29,627H0M15,623H0M15,620H0M15,616H0M15,612H0M29,608H0M15,603H0M15,598H0M15,591H0M15,584H0M29,576H0M15,566H0M15,552H0M15,534H0M15,502H0M29,320H0M15,138H0M15,106H0M15,88H0M15,74H0M29,64H0M15,56H0M15,49H0M15,42H0M15,37H0M29,32H0M15,28H0M15,24H0M15,20H0M15,17H0M29,13H0M15,10H0M15,8H0M15,5H0M15,2H0M29,0H0" style="stroke: black; stroke-width: 1;"></path>
     <g font-family="Arial" font-size="14" xml:space="preserve" fill="black" text-anchor="end"><text dominant-baseline="middle" transform="translate(-6,640)">-4</text><text dominant-baseline="middle" transform="translate(-6,627)">-3</text><text dominant-baseline="middle" transform="translate(-6,608)">-2</text><text dominant-baseline="middle" transform="translate(-6,576)">-1</text><text dominant-baseline="middle" transform="translate(-6,320)">0</text><text dominant-baseline="middle" transform="translate(-6,64)">1</text><text dominant-baseline="middle" transform="translate(-6,32)">2</text><text dominant-baseline="middle" transform="translate(-6,13)">3</text><text dominant-baseline="middle" transform="translate(-6)">4</text></g>
    </g>
   </g>
  </g>
  <g transform="translate(936,52)" font-family="Arial" font-size="27" xml:space="preserve" fill="black"><path d="M0,0H240V192H0Z" style="fill: white; stroke: black; stroke-width: 1;"></path><text text-anchor="middle" dominant-baseline="middle" transform="translate(120,16)">hpxpy</text><text text-anchor="start" dominant-baseline="middle" transform="translate(12,48)">Entries</text><text text-anchor="end" dominant-baseline="middle" transform="translate(228,48)">25000</text><text text-anchor="start" dominant-baseline="middle" transform="translate(12,80)">Mean x</text><text text-anchor="end" dominant-baseline="middle" transform="translate(228,80)">0.003181</text><text text-anchor="start" dominant-baseline="middle" transform="translate(12,112)">Mean y</text><text text-anchor="end" dominant-baseline="middle" transform="translate(228,112)">0.009441</text><text text-anchor="start" dominant-baseline="middle" transform="translate(12,144)">Std Dev x</text><text text-anchor="end" dominant-baseline="middle" transform="translate(228,144)">1.004</text><text text-anchor="start" dominant-baseline="middle" transform="translate(12,176)">Std Dev y</text><text text-anchor="end" dominant-baseline="middle" transform="translate(228,176)">0.9972</text><path d="M0,32h240" style="stroke: black; stroke-width: 1;"></path></g>
  <g transform="translate(515,4)" font-family="Arial" font-size="40" xml:space="preserve"><text fill="black" text-anchor="middle" dominant-baseline="middle" transform="translate(85,26)">py vs px</text></g>
 </g>
</svg>