<svg xmlns="http://www.w3.org/2000/svg" viewBox="0 0 1200 800" preserveAspectRatio="none" width="1200" height="800">
 <path d="M0,0H1200V800H0Z" style="fill: white;"></path>
 <g>
  <g transform="translate(120,80)">
   <path d="M0,0H960V640H0Z" style="fill: white; stroke: black; stroke-width: 1;"></path>
   <svg x="0" y="0" overflow="hidden" width="960" height="640" viewBox="0 0 960 640">
    <g>
     <path fill="#263ea8" d="M0,413h9v29h-9zM9,198h10v29h-10zm10,0h10v29h-10zm0,269h10v20h-10zM29,227h11v39h-11zm0,147h11v93h-11zm0,113h11v18h-11zm0,60h11v12h-11zM40,93h12v26h-12zm0,80h12v332h-12zm0,348h12v14h-12zM52,93h12v12h-12zm0,42h12v307h-12zm0,332h12v80h-12zM64,42h13v9h-13zm0,18h13v10h-13zm0,45h13v14h-13zm0,30h13v332h-13zm0,352h13v60h-13zm0,83h13v19h-13zM77,51h13v30h-13zm0,42h13v134h-13zm0,173h13v176h-13zm0,201h13v92h-13zm0,113h13v18h-13zm0,26h13v7h-13zM90,6h15v7h-15zm0,36h15v9h-15zm0,18h15v10h-15zm0,33h15v26h-15zm0,42h15v38h-15zm0,92h15v39h-15zm0,186h15v29h-15zm0,54h15v103h-15zm0,122h15v17h-15zM105,34h16v8h-16zm0,26h16v45h-16zm0,59h16v34h-16zm0,402h16v59h-16zM121,51h18v68h-18zm0,484h18v35h-18zm0,45h18v9h-18zm0,18h18v8h-18zM139,0h19v6h-19zm0,34h19v8h-19zm0,26h19v59h-19zm0,475h19v45h-19zm0,54h19v9h-19zm0,24h19v7h-19zM158,27h21v54h-21zm0,520h21v59h-21zm0,66h21v7h-21zM179,34h23v47h-23zm0,525h23v30h-23zm0,39h23v15h-23zM202,13h27v7h-27zm0,14h27v15h-27zm0,24h27v30h-27zm0,508h27v61h-27zm0,68h27v7h-27zM229,20h31v7h-31zm0,14h31v26h-31zm0,536h31v50h-31zM260,27h37v7h-37zm0,15h37v9h-37zm0,528h37v50h-37zM297,13h44v14h-44zm0,21h44v26h-44zm0,546h44v33h-44zM341,20h58v7h-58zm0,14h58v36h-58zm0,546h58v26h-58zm0,47h58v7h-58zM399,27h81v7h-81zm0,15h81v18h-81zm0,538h81v33h-81zM480,20h81v40h-81zm0,560h81v47h-81zM561,13h58v7h-58zm0,14h58v15h-58zm0,24h58v9h-58zm0,529h58v26h-58zM619,13h44v47h-44zm0,567h44v18h-44zm0,26h44v7h-44zM663,34h37v26h-37zm0,546h37v9h-37zm0,18h37v8h-37zm0,15h37v7h-37zM700,42h31v18h-31zm0,517h31v54h-31zM731,34h27v36h-27zm0,525h27v54h-27zm0,61h27v7h-27zM758,34h23v36h-23zm0,525h23v47h-23zm0,54h23v7h-23zM781,20h21v7h-21zm0,14h21v59h-21zm0,513h21v12h-21zm0,23h21v28h-21zm0,43h21v7h-21zM802,27h19v15h-19zm0,24h19v54h-19zm0,484h19v12h-19zm0,24h19v39h-19zm0,54h19v7h-19zM821,60h18v45h-18zm0,461h18v77h-18zM839,42h16v63h-16zm0,77h16v16h-16zm0,34h16v20h-16zm0,352h16v16h-16zm0,30h16v24h-16zm0,45h16v9h-16zM855,51h15v19h-15zm0,30h15v117h-15zm0,406h15v72h-15zm0,83h15v10h-15zm0,43h15v7h-15zM870,51h13v30h-13zm0,54h13v122h-13zm0,337h13v117h-13zM883,20h13v7h-13zm0,31h13v42h-13zm0,54h13v400h-13zm0,416h13v49h-13zM896,81h12v12h-12zm0,54h12v370h-12zm0,386h12v38h-12zM908,42h12v9h-12zm0,77h12v34h-12zm0,54h12v25h-12zm0,147h12v167h-12zm0,185h12v16h-12zm0,30h12v24h-12zM920,153h11v45h-11zm0,74h11v39h-11zm0,147h11v113h-11zm0,147h11v14h-11zm0,68h11v9h-11zM931,173h10v25h-10zm0,201h10v39h-10zm20,39h9v29h-9z"></path>
     <path fill="#1652cd" d="M77,227h13v39h-13zm0,215h13v25h-13zM90,119h15v16h-15zm0,54h15v54h-15zm0,93h15v147h-15zm0,176h15v25h-15zM105,105h16v14h-16zm0,48h16v45h-16zm0,167h16v93h-16zm0,122h16v79h-16zM121,119h18v54h-18zm0,201h18v54h-18zm0,93h18v29h-18zm0,74h18v48h-18zm18,18h19v30h-19zM158,81h21v24h-21zm0,424h21v42h-21zM179,81h23v24h-23zm0,466h23v12h-23zm23,-12h27v24h-27zM229,60h31v21h-31zm0,487h31v23h-31zM260,51h37v30h-37zm0,508h37v11h-37zM297,60h44v21h-44zm0,499h44v21h-44zM341,70h58v11h-58zm0,477h58v33h-58zm58,23h81v10h-81zM480,60h81v21h-81zm0,499h81v21h-81zM561,60h58v10h-58zm0,499h58v21h-58zM619,60h44v21h-44zm0,499h44v21h-44zM663,60h37v21h-37zm0,499h37v21h-37zM700,60h31v21h-31zm31,10h27v11h-27zm0,465h27v24h-27zM758,70h23v35h-23zm0,451h23v14h-23zm0,26h23v12h-23zM781,93h21v12h-21zm0,26h21v16h-21zm0,402h21v26h-21zm0,38h21v11h-21zM802,105h19v30h-19zm0,400h19v30h-19zm0,42h19v12h-19zM821,105h18v30h-18zm0,48h18v20h-18zm0,289h18v79h-18zM839,105h16v14h-16zm0,30h16v18h-16zm0,131h16v147h-16zm0,176h16v63h-16zm0,79h16v14h-16zM855,198h15v289h-15zm15,29h13v215h-13z"></path>
     <path fill="#1064dc" d="M105,198h16v122h-16zm0,215h16v29h-16zM121,198h18v122h-18zm0,244h18v45h-18zM139,119h19v16h-19zm0,34h19v20h-19zm0,314h19v38h-19zM158,105h21v30h-21zm21,0h23v30h-23zm0,416h23v26h-23zM202,81h27v38h-27zm0,440h27v14h-27zM229,81h31v24h-31zm0,454h31v12h-31zM260,81h37v12h-37zm0,466h37v12h-37zm37,0h44v12h-44zM399,60h81v21h-81zm0,33h81v12h-81zm0,466h81v11h-81zM561,70h58v23h-58zm0,477h58v12h-58zM663,81h37v12h-37zm37,0h31v12h-31zm0,466h31v12h-31zM731,81h27v24h-27zm0,440h27v14h-27zM758,105h23v14h-23zm0,430h23v12h-23zM781,105h21v14h-21zm0,400h21v16h-21zM802,153h19v20h-19zm0,289h19v63h-19zM821,135h18v18h-18zm0,38h18v54h-18zm0,93h18v108h-18zm18,-93h16v93h-16zm0,240h16v29h-16z"></path>
     <path fill="#1272d9" d="M121,173h18v25h-18zm0,201h18v39h-18zM139,135h19v18h-19zm0,38h19v54h-19zm0,201h19v39h-19zm0,68h19v25h-19zM158,135h21v18h-21zm0,332h21v38h-21zM179,135h23v18h-23zm0,332h23v20h-23zm0,38h23v16h-23zM202,119h27v16h-27zm27,-14h31v14h-31zM260,93h37v12h-37zm0,442h37v12h-37zM297,81h44v24h-44zm44,0h58v24h-58zm0,454h58v12h-58zM399,81h81v12h-81zm0,466h81v12h-81zM480,81h81v12h-81zm0,454h81v24h-81zM619,81h44v24h-44zm0,454h44v24h-44zM663,93h37v12h-37zm0,442h37v24h-37zM700,93h31v12h-31zm0,428h31v26h-31zM731,105h27v14h-27zm27,14h23v16h-23zm0,368h23v34h-23zm23,0h21v18h-21zM802,135h19v18h-19zm0,38h19v25h-19zm0,201h19v39h-19zM821,227h18v39h-18zm0,147h18v68h-18z"></path>
     <path fill="#1481d6" d="M139,227h19v93h-19zm0,186h19v29h-19zM158,153h21v45h-21zm0,113h21v54h-21zm0,147h21v54h-21zM179,153h23v45h-23zm23,352h27v16h-27zm27,0h31v30h-31zM260,105h37v14h-37zm37,430h44v12h-44zm102,0h81v12h-81zM561,93h58v12h-58zm0,442h58v12h-58zM663,105h37v30h-37zm0,416h37v14h-37zM700,105h31v14h-31zm0,400h31v16h-31zM731,119h27v16h-27zm0,386h27v16h-27zM781,135h21v63h-21zm0,92h21v39h-21zm0,186h21v74h-21zM802,198h19v68h-19zm0,122h19v54h-19zm0,93h19v29h-19z"></path>
     <path fill="#0e8fd1" d="M139,320h19v54h-19zM158,198h21v68h-21zm0,122h21v54h-21zm21,-93h23v39h-23zm0,215h23v25h-23zm0,45h23v18h-23zM202,135h27v18h-27zm0,352h27v18h-27zM229,119h31v16h-31zm31,386h37v30h-37zM297,105h44v14h-44zm0,416h44v14h-44zM341,105h58v30h-58zm58,416h81v14h-81zM480,93h81v26h-81zm81,12h58v14h-58zm0,416h58v14h-58zM619,119h44v16h-44zm0,386h44v30h-44zm44,0h37v16h-37zm37,-18h31v18h-31zM731,135h27v18h-27zm0,352h27v18h-27zM758,135h23v63h-23zm0,239h23v39h-23zm0,93h23v20h-23zM781,198h21v29h-21zm0,122h21v54h-21zm21,-54h19v54h-19z"></path>
     <path fill="#099dcc" d="M158,374h21v39h-21zm21,0h23v68h-23zm23,39h27v29h-27zm27,74h31v18h-31zM260,135h37v18h-37zm37,-16h44v16h-44zm0,386h44v16h-44zm44,0h58v30h-58zM399,105h81v14h-81zm81,400h81v30h-81zM619,105h44v14h-44zm81,14h31v34h-31zm31,34h27v45h-27zm0,221h27v39h-27zM758,227h23v93h-23zm0,186h23v29h-23zM781,266h21v54h-21zm0,108h21v39h-21z"></path>
     <path fill="#0da7c3" d="M179,198h23v29h-23zm0,68h23v108h-23zM202,153h27v74h-27zm0,167h27v54h-27zm0,147h27v20h-27zM229,135h31v38h-31zm0,332h31v20h-31zM260,119h37v16h-37zm0,368h37v18h-37zM399,135h81v18h-81zm81,-16h81v16h-81zm81,0h58v16h-58zm0,386h58v16h-58zM619,135h44v18h-44zm0,352h44v18h-44zM663,135h37v18h-37zm0,352h37v18h-37zm68,-20h27v20h-27zM758,198h23v29h-23zm0,122h23v54h-23z"></path>
     <path fill="#1eafb3" d="M297,487h44v18h-44zM341,135h58v18h-58zm0,352h58v18h-58zM399,119h81v16h-81zm0,386h81v16h-81zM480,135h81v18h-81zm81,0h58v18h-58zm0,352h58v18h-58zM700,173h31v25h-31zm0,269h31v45h-31z"></path>
     <path fill="#2eb7a4" d="M202,227h27v93h-27zm0,147h27v39h-27zm0,68h27v25h-27zM229,198h31v29h-31zm0,122h31v54h-31zM260,153h37v20h-37zm0,289h37v25h-37zM341,153h58v20h-58zm58,334h81v18h-81zm81,0h81v18h-81zM619,467h44v20h-44zM663,153h37v20h-37zm0,314h37v20h-37zM700,153h31v20h-31zm31,45h27v29h-27zm0,122h27v54h-27zm0,93h27v54h-27zm27,29h23v25h-23z"></path>
     <path fill="#52ba92" d="M229,173h31v25h-31zm0,93h31v54h-31zm0,108h31v39h-31zm0,68h31v25h-31zM260,173h37v25h-37zm37,-38h44v38h-44zm0,332h44v20h-44zM561,153h58v20h-58zm0,314h58v20h-58zM619,153h44v20h-44zm44,20h37v25h-37zm0,269h37v25h-37zM700,227h31v39h-31zm31,0h27v93h-27z"></path>
     <path fill="#74bd81" d="M229,227h31v39h-31zm31,240h37v20h-37zm37,-25h44v25h-44zm44,25h58v20h-58zm58,-25h81v25h-81zM663,227h37v39h-37zm0,93h37v54h-37zm37,-54h31v54h-31zm0,108h31v68h-31z"></path>
     <path fill="#95be71" d="M260,198h37v68h-37zm37,-25h44v25h-44zm0,240h44v29h-44zm44,29h58v25h-58zM399,153h81v20h-81zm0,314h81v20h-81zM480,153h81v45h-81zm139,20h44v25h-44zm0,269h44v25h-44zM663,198h37v29h-37zm0,215h37v29h-37zM700,198h31v29h-31z"></path>
     <path fill="#b3bd65" d="M229,413h31v29h-31zm68,-93h44v54h-44zm264,93h58v54h-58zm58,-39h44v68h-44zM663,266h37v54h-37zm37,54h31v54h-31z"></path>
     <path fill="#d1bb59" d="M260,266h37v54h-37zm0,108h37v68h-37zM297,198h44v29h-44zM399,374h81v39h-81zm81,68h81v45h-81zM561,173h58v25h-58zm0,201h58v39h-58zM619,198h44v68h-44zm44,176h37v39h-37z"></path>
     <path fill="#e2c04b" d="M260,320h37v54h-37zm37,-93h44v93h-44zm0,147h44v39h-44zM341,173h58v25h-58zm0,201h58v68h-58zM399,173h81v54h-81zm0,147h81v54h-81zm0,93h81v29h-81zM480,198h81v29h-81zm81,0h58v29h-58zm0,68h58v54h-58zm58,54h44v54h-44z"></path>
     <path fill="#f4c63b" d="M341,198h58v176h-58zm278,68h44v54h-44z"></path>
     <path fill="#fdd22b" d="M399,227h81v39h-81zm81,93h81v122h-81zm81,-93h58v39h-58z"></path>
     <path fill="#fbe61d" d="M399,266h81v54h-81zm81,-39h81v39h-81zm81,93h58v54h-58z"></path>
     <path fill="#f9f90f" d="M480,266h81v54h-81z"></path>
    </g>
   </svg>
   <g>
    <g transform="translate(0,640)">
     <path d="M0,0h960M0,-24V0M9,-12V0M19,-12V0M29,-12V0M40,-12V0M52,-24V0M64,-12V0M77,-12V0M90,-12V0M105,-12V0M121,-24V0M139,-12V0M158,-12V0M179,-12V0M202,-12V0M229,-24V0M260,-12V0M297,-12V0M341,-12V0M399,-12V0M480,-24V0M561,-12V0M619,-12V0M663,-12V0M700,-12V0M731,-24V0M758,-12V0M781,-12V0M802,-12V0M821,-12V0M839,-24V0M855,-12V0M870,-12V0M883,-12V0M896,-12V0M908,-24V0M920,-12V0M931,-12V0M941,-12V0M951,-12V0M960,-24V0" style="stroke: black; stroke-width: 1;"></path>
     <g font-family="Arial" font-size="28" space="preserve" fill="black" text-anchor="middle">
      <text dy=".8em" transform="translate(0,5)">
       -4
      </text>
      <text dy=".8em" transform="translate(52,5)">
       -3
      </text>
      <text dy=".8em" transform="translate(121,5)">
       -2
      </text>
      <text dy=".8em" transform="translate(229,5)">
       -1
      </text>
      <text dy=".8em" transform="translate(480,5)">
       0
      </text>
      <text dy=".8em" transform="translate(731,5)">
       1
      </text>
      <text dy=".8em" transform="translate(839,5)">
       2
      </text>
      <text dy=".8em" transform="translate(908,5)">
       3
      </text>
      <text dy=".8em" transform="translate(960,5)">
       4
      </text>
     </g>
    </g>
    <g>
     <path d="M0,0v640M36,640H0M18,634H0M18,627H0M18,620H0M18,613H0M36,606H0M18,598H0M18,589H0M18,580H0M18,570H0M36,559H0M18,547H0M18,535H0M18,521H0M18,505H0M36,487H0M18,467H0M18,442H0M18,413H0M18,374H0M36,320H0M18,266H0M18,227H0M18,198H0M18,173H0M36,153H0M18,135H0M18,119H0M18,105H0M18,93H0M36,81H0M18,70H0M18,60H0M18,51H0M18,42H0M36,34H0M18,27H0M18,20H0M18,13H0M18,6H0M36,0H0" style="stroke: black; stroke-width: 1;"></path>
     <g font-family="Arial" font-size="28" space="preserve" fill="black" text-anchor="end">
      <text dy=".4em" transform="translate(-6,640)">
       -4
      </text>
      <text dy=".4em" transform="translate(-6,606)">
       -3
      </text>
      <text dy=".4em" transform="translate(-6,559)">
       -2
      </text>
      <text dy=".4em" transform="translate(-6,487)">
       -1
      </text>
      <text dy=".4em" transform="translate(-6,320)">
       0
      </text>
      <text dy=".4em" transform="translate(-6,153)">
       1
      </text>
      <text dy=".4em" transform="translate(-6,81)">
       2
      </text>
      <text dy=".4em" transform="translate(-6,34)">
       3
      </text>
      <text dy=".4em" transform="translate(-6)">
       4
      </text>
     </g>
    </g>
   </g>
  </g>
  <g transform="translate(120,4)" font-family="Arial" font-size="40" space="preserve">
   <text fill="black" text-anchor="middle" dy=".8em" transform="translate(480)">
    py vs px
   </text>
  </g>
  <g transform="translate(936,52)" font-family="Arial" font-size="20" space="preserve" fill="black">
   <path d="M0,0H240V192H0Z" style="fill: white; stroke: black; stroke-width: 1;"></path>
   <text text-anchor="middle" dy=".4em" transform="translate(120,16)">
    hpxpy
   </text>
   <text text-anchor="start" dy=".4em" transform="translate(12,48)">
    Entries
   </text>
   <text text-anchor="end" dy=".4em" transform="translate(228,48)">
    25000
   </text>
   <text text-anchor="start" dy=".4em" transform="translate(12,80)">
    Mean x
   </text>
   <text text-anchor="end" dy=".4em" transform="translate(228,80)">
    0.003181
   </text>
   <text text-anchor="start" dy=".4em" transform="translate(12,112)">
    Mean y
   </text>
   <text text-anchor="end" dy=".4em" transform="translate(228,112)">
    0.009441
   </text>
   <text text-anchor="start" dy=".4em" transform="translate(12,144)">
    Std Dev x
   </text>
   <text text-anchor="end" dy=".4em" transform="translate(228,144)">
    1.004
   </text>
   <text text-anchor="start" dy=".4em" transform="translate(12,176)">
    Std Dev y
   </text>
   <text text-anchor="end" dy=".4em" transform="translate(228,176)">
    0.9972
   </text>
   <path d="M0,32h240" style="stroke: black; stroke-width: 1;"></path>
  </g>
 </g>
</svg>