<svg xmlns="http://www.w3.org/2000/svg" viewBox="0 0 698 474" preserveAspectRatio="none" width="698" height="474">
 <path d="M0,0H698V474H0Z" style="fill: white;"></path>
 <g>
  <g transform="translate(70,47)">
   <path d="M0,0H558V379H0Z" style="fill: white; stroke: black; stroke-width: 1;"></path>
   <svg x="0" y="0" overflow="hidden" width="558" height="379" viewBox="0 0 558 379">
    <g>
     <path fill="#263ea8" d="M0,190h14v9h-14zM14,104h14v10h-14zm0,57h14v10h-14zM28,133h14v9h-14zm0,47h14v19h-14zm0,28h14v10h-14zm0,19h14v19h-14zM42,190h14v9h-14zm0,18h14v10h-14zm0,19h14v29h-14zM56,123h14v38h-14zm0,48h14v19h-14zm0,47h14v28h-14zM70,85h14v38h-14zm0,48h14v94h-14zm0,113h14v10h-14zm0,19h14v10h-14zm0,19h14v10h-14zM84,104h14v67h-14zm0,76h14v95h-14zm0,123h14v10h-14zM98,66h14v10h-14zm0,19h14v10h-14zm0,19h14v67h-14zm0,76h14v85h-14zm0,95h14v19h-14zM112,28h14v10h-14zm0,29h14v19h-14zm0,28h14v29h-14zm0,38h14v29h-14zm0,38h14v10h-14zm0,29h14v18h-14zm0,37h14v19h-14zm0,29h14v28h-14zm0,38h14v19h-14zM126,66h14v76h-14zm0,190h14v38h-14zm0,47h14v10h-14zM140,47h13v10h-13zm0,19h13v38h-13zm0,199h13v48h-13zm0,57h13v10h-13zM153,38h14v19h-14zm0,28h14v48h-14zm0,199h14v57h-14zM167,76h14v9h-14zm0,218h14v19h-14zm0,47h14v10h-14zM181,57h14v38h-14zm0,218h14v9h-14zm0,19h14v38h-14zm0,66h14v10h-14zM195,57h14v28h-14zm0,237h14v47h-14zM209,28h14v48h-14zm0,266h14v47h-14zm0,66h14v19h-14zM223,47h14v10h-14zm0,19h14v19h-14zm0,237h14v38h-14zM237,38h14v28h-14zm0,265h14v29h-14zm0,38h14v10h-14zM251,0h14v9h-14zm0,19h14v9h-14zm0,19h14v38h-14zm0,265h14v38h-14zm0,57h14v10h-14zM265,19h14v9h-14zm0,19h14v28h-14zm0,265h14v48h-14zM279,28h14v48h-14zm0,285h14v19h-14zm0,28h14v19h-14zM293,9h14v29h-14zm0,38h14v29h-14zm0,247h14v19h-14zm0,28h14v19h-14zM307,0h14v9h-14zm0,28h14v10h-14zm0,19h14v29h-14zm0,256h14v29h-14zm0,48h14v9h-14zM321,28h14v19h-14zm0,29h14v28h-14zm0,237h14v19h-14zm0,28h14v10h-14zM335,0h14v9h-14zm0,38h14v47h-14zm0,256h14v47h-14zm0,66h14v10h-14zM349,38h14v57h-14zm0,256h14v19h-14zm0,28h14v10h-14zM363,38h14v9h-14zm0,19h14v28h-14zm0,38h14v9h-14zm0,189h14v10h-14zm0,19h14v19h-14zm0,38h14v19h-14zM377,28h14v10h-14zm0,29h14v9h-14zm0,19h14v38h-14zm0,180h14v9h-14zm0,19h14v28h-14zm0,38h14v19h-14zM391,57h14v47h-14zm0,237h14v9h-14zM405,28h14v10h-14zm0,38h14v10h-14zm0,19h14v48h-14zm0,171h14v9h-14zm0,19h14v57h-14zM419,57h13v9h-13zm0,19h13v9h-13zm0,28h13v10h-13zm0,29h13v9h-13zm0,123h13v66h-13zM432,9h14v10h-14zm0,67h14v9h-14zm0,19h14v19h-14zm0,28h14v10h-14zm0,19h14v10h-14zm0,19h14v10h-14zm0,38h14v9h-14zm0,19h14v57h-14zm0,66h14v19h-14zM446,57h14v9h-14zm0,38h14v19h-14zm0,28h14v76h-14zm0,85h14v67h-14zM460,95h14v9h-14zm0,19h14v113h-14zm0,123h14v28h-14zm0,38h14v19h-14zM474,76h14v9h-14zm0,47h14v10h-14zm0,19h14v19h-14zm0,29h14v56h-14zm0,75h14v29h-14zm0,48h14v9h-14zm0,28h14v10h-14zM488,66h14v19h-14zm0,29h14v9h-14zm0,19h14v9h-14zm0,28h14v29h-14zm0,38h14v10h-14zm0,19h14v9h-14zm0,19h14v38h-14zm0,66h14v10h-14zM502,104h14v10h-14zm0,142h14v10h-14zM516,104h14v10h-14zm0,19h14v29h-14zm0,85h14v10h-14zm0,19h14v10h-14zm0,19h14v10h-14zM530,142h14v10h-14zm0,19h14v10h-14z"></path>
     <path fill="#1652cd" d="M84,171h14v9h-14zm14,0h14v9h-14zm14,-19h14v9h-14zm0,19h14v19h-14zm0,37h14v19h-14zm0,38h14v10h-14zM126,142h14v29h-14zm0,38h14v10h-14zm0,28h14v48h-14zM140,104h13v38h-13zm0,86h13v9h-13zm0,56h13v19h-13zM153,114h14v28h-14zm0,123h14v28h-14zM167,85h14v29h-14zm0,180h14v29h-14zM181,95h14v19h-14zm0,189h14v10h-14zM195,85h14v10h-14zm0,199h14v10h-14zM209,76h14v28h-14zm0,208h14v10h-14zm14,0h14v19h-14zM237,66h14v19h-14zm0,228h14v9h-14zM251,76h14v9h-14zm0,218h14v9h-14zM265,66h14v19h-14zm0,228h14v9h-14zM279,76h14v9h-14zm0,19h14v9h-14zm0,189h14v29h-14zM293,76h14v19h-14zm0,237h14v9h-14zM307,76h14v9h-14zm0,208h14v19h-14zM321,95h14v9h-14zm0,189h14v10h-14zm0,29h14v9h-14zM335,85h14v10h-14zm0,19h14v10h-14zm0,180h14v10h-14zm14,-9h14v19h-14zM363,85h14v10h-14zm0,190h14v9h-14zm0,19h14v9h-14zM377,123h14v10h-14zm0,142h14v10h-14zM391,104h14v38h-14zm0,152h14v38h-14zM405,133h14v9h-14zm0,19h14v9h-14zm0,75h14v29h-14zm0,38h14v10h-14zM419,114h13v19h-13zm0,28h13v10h-13zm0,19h13v95h-13zm13,-28h14v9h-14zm0,19h14v9h-14zm0,19h14v28h-14zm0,37h14v10h-14zm14,-9h14v9h-14z"></path>
     <path fill="#1064dc" d="M126,171h14v9h-14zm0,19h14v18h-14zm14,-48h13v29h-13zm0,66h13v38h-13zm13,-66h14v10h-14zm0,85h14v10h-14zM167,114h14v19h-14zm0,132h14v19h-14zm14,0h14v29h-14zM195,95h14v19h-14zm0,161h14v28h-14zm14,9h14v19h-14zM223,85h14v10h-14zm0,180h14v19h-14zM237,85h14v19h-14zm0,180h14v29h-14zM251,85h14v19h-14zm0,190h14v19h-14zM265,85h14v19h-14zm0,190h14v19h-14zM279,85h14v10h-14zm14,199h14v10h-14zM307,85h14v19h-14zm0,190h14v9h-14zM321,85h14v10h-14zm0,190h14v9h-14zM335,95h14v9h-14zm0,170h14v19h-14zM349,95h14v19h-14zm0,170h14v10h-14zM363,104h14v19h-14zm0,152h14v19h-14zM377,114h14v9h-14zm0,19h14v9h-14zm0,113h14v10h-14zM391,142h14v10h-14zm0,76h14v38h-14zm14,-76h14v10h-14zm0,19h14v38h-14zm0,47h14v19h-14zm14,-56h13v9h-13z"></path>
     <path fill="#1272d9" d="M140,180h13v10h-13zm0,19h13v9h-13zm13,-47h14v19h-14zm0,28h14v10h-14zm0,19h14v28h-14zm14,-66h14v9h-14zm0,19h14v9h-14zm0,56h14v10h-14zm0,29h14v9h-14zM181,114h14v38h-14zm14,0h14v19h-14zm14,0h14v9h-14zM223,95h14v9h-14zm0,161h14v9h-14zM251,104h14v10h-14zm28,161h14v19h-14zM293,95h14v9h-14zm0,170h14v10h-14zM307,104h14v10h-14zm0,152h14v19h-14zm14,9h14v10h-14zM335,114h14v9h-14zm0,142h14v9h-14zM349,114h14v9h-14zm0,142h14v9h-14zM363,123h14v10h-14zm0,114h14v19h-14zm14,-95h14v10h-14zm0,95h14v9h-14zm14,-76h14v10h-14zm14,38h14v9h-14z"></path>
     <path fill="#1481d6" d="M140,171h13v9h-13zm13,0h14v9h-14zm0,19h14v9h-14zm14,-48h14v10h-14zm0,29h14v28h-14zm0,47h14v19h-14zm14,19h14v9h-14zm14,9h14v10h-14zM209,104h14v10h-14zm0,142h14v19h-14zM223,104h14v10h-14zm14,0h14v10h-14zm14,152h14v19h-14zM265,104h14v10h-14zm0,161h14v10h-14zM279,104h14v10h-14zm0,152h14v9h-14zM293,104h14v19h-14zm0,152h14v9h-14zm0,19h14v9h-14zM307,114h14v9h-14zm14,-10h14v19h-14zm0,152h14v9h-14zM335,133h14v9h-14zm0,113h14v10h-14zM349,123h14v19h-14zm0,114h14v19h-14zM363,133h14v9h-14zm14,75h14v29h-14zm14,-56h14v9h-14zm0,19h14v37h-14z"></path>
     <path fill="#0e8fd1" d="M167,161h14v10h-14zm28,-28h14v9h-14zm0,104h14v9h-14zM209,123h14v10h-14zm14,-9h14v19h-14zm0,132h14v10h-14zM237,114h14v9h-14zm0,142h14v9h-14zM335,123h14v10h-14zm28,85h14v10h-14zm14,-56h14v56h-14zm14,56h14v10h-14z"></path>
     <path fill="#099dcc" d="M167,199h14v9h-14zm14,-47h14v28h-14zm0,38h14v9h-14zm0,18h14v10h-14zm0,19h14v10h-14zm14,0h14v10h-14zm14,-94h14v9h-14zm0,104h14v9h-14zM223,133h14v9h-14zm28,-19h14v9h-14zm14,0h14v19h-14zm14,9h14v10h-14zm14,0h14v10h-14zm14,0h14v10h-14zm0,123h14v10h-14zM321,123h14v10h-14zm0,123h14v10h-14zm14,-9h14v9h-14zm14,-10h14v10h-14zm14,-85h14v19h-14zm0,76h14v19h-14z"></path>
     <path fill="#0da7c3" d="M181,180h14v10h-14zm0,19h14v9h-14zm0,19h14v9h-14zm14,-76h14v19h-14zm0,76h14v9h-14zm14,-76h14v10h-14zm28,-19h14v19h-14zm14,123h14v10h-14zm14,0h14v19h-14zM279,114h14v9h-14zm14,123h14v9h-14zM321,133h14v9h-14zm14,85h14v19h-14zm14,-76h14v29h-14zm0,76h14v9h-14zm14,-47h14v9h-14zm0,19h14v18h-14z"></path>
     <path fill="#1eafb3" d="M195,161h14v10h-14zm28,76h14v9h-14zm14,0h14v19h-14zM279,133h14v9h-14zm0,104h14v19h-14zM293,133h14v9h-14zm14,0h14v9h-14zm0,104h14v9h-14zm14,-95h14v10h-14zm0,85h14v10h-14zm14,-85h14v19h-14zm0,57h14v9h-14zm14,-28h14v9h-14zm0,19h14v9h-14zm0,18h14v10h-14zm14,-47h14v10h-14zm0,19h14v10h-14z"></path>
     <path fill="#2eb7a4" d="M195,180h14v28h-14zm14,-28h14v19h-14zm0,66h14v9h-14zm14,-76h14v10h-14zm0,85h14v10h-14zM251,123h14v19h-14zm0,114h14v9h-14zM265,133h14v9h-14zm28,113h14v10h-14zm14,-19h14v10h-14zm14,-56h14v9h-14zm0,66h14v9h-14zm14,-66h14v9h-14zm14,9h14v10h-14zm0,19h14v9h-14z"></path>
     <path fill="#52ba92" d="M195,171h14v9h-14zm0,37h14v10h-14zm14,19h14v10h-14zm14,-75h14v9h-14zm14,-10h14v10h-14zm28,85h14v19h-14zm42,-85h14v10h-14zm14,19h14v10h-14zm14,0h14v10h-14zm0,29h14v9h-14z"></path>
     <path fill="#74bd81" d="M209,171h14v9h-14zm0,19h14v28h-14zm28,37h14v10h-14zm14,0h14v10h-14zm56,-75h14v9h-14zm14,66h14v9h-14z"></path>
     <path fill="#95be71" d="M223,161h14v10h-14zm0,57h14v9h-14zm14,0h14v9h-14zm14,0h14v9h-14zm42,-76h14v10h-14zm0,76h14v9h-14zm14,-47h14v19h-14zm14,-19h14v9h-14zm0,28h14v10h-14zm0,28h14v10h-14zm14,-28h14v10h-14zm0,28h14v10h-14z"></path>
     <path fill="#b3bd65" d="M209,180h14v10h-14zm14,-9h14v19h-14zm0,28h14v9h-14zm14,0h14v9h-14zm28,-57h14v10h-14zm0,66h14v19h-14zm14,-66h14v10h-14zm0,76h14v19h-14zm14,-57h14v10h-14zm0,66h14v10h-14zm14,-66h14v10h-14zm0,57h14v9h-14zm14,-28h14v9h-14z"></path>
     <path fill="#d1bb59" d="M223,190h14v9h-14zm0,18h14v10h-14zm14,-56h14v38h-14zm0,56h14v10h-14zm14,-66h14v19h-14zm0,48h14v9h-14zm14,-38h14v9h-14zm14,19h14v9h-14zm0,37h14v10h-14zm14,-56h14v9h-14zm14,56h14v10h-14zm14,-9h14v9h-14z"></path>
     <path fill="#e2c04b" d="M237,190h14v9h-14zm14,-29h14v10h-14zm0,38h14v9h-14zm14,0h14v9h-14zm14,-47h14v19h-14zm14,38h14v9h-14zm0,18h14v10h-14zm14,-9h14v9h-14z"></path>
     <path fill="#f4c63b" d="M251,208h14v10h-14zm42,-28h14v10h-14zm14,10h14v9h-14z"></path>
     <path fill="#fdd22b" d="M251,171h14v9h-14zm14,-10h14v19h-14zm0,29h14v9h-14zm14,-10h14v28h-14zm14,-9h14v9h-14zm0,28h14v9h-14z"></path>
     <path fill="#f9f90f" d="M251,180h14v10h-14zm14,0h14v10h-14z"></path>
    </g>
   </svg>
   <g>
    <g transform="translate(0,379)">
     <path d="M0,0h558M0,0V0M14,0V0M28,0V0M42,0V0M56,0V0M70,0V0M84,0V0M98,0V0M112,0V0M126,0V0M140,0V0M153,0V0M167,0V0M181,0V0M195,0V0M209,0V0M223,0V0M237,0V0M251,0V0M265,0V0M279,0V0M293,0V0M307,0V0M321,0V0M335,0V0M349,0V0M363,0V0M377,0V0M391,0V0M405,0V0M419,0V0M432,0V0M446,0V0M460,0V0M474,0V0M488,0V0M502,0V0M516,0V0M530,0V0M544,0V0M558,0V0" style="stroke: black; stroke-width: 1;"></path>
    </g>
    <g>
     <path d="M0,0v379M0,379H0M0,370H0M0,360H0M0,351H0M0,341H0M0,332H0M0,322H0M0,313H0M0,303H0M0,294H0M0,284H0M0,275H0M0,265H0M0,256H0M0,246H0M0,237H0M0,227H0M0,218H0M0,208H0M0,199H0M0,190H0M0,180H0M0,171H0M0,161H0M0,152H0M0,142H0M0,133H0M0,123H0M0,114H0M0,104H0M0,95H0M0,85H0M0,76H0M0,66H0M0,57H0M0,47H0M0,38H0M0,28H0M0,19H0M0,9H0M0,0H0" style="stroke: black; stroke-width: 1;"></path>
    </g>
   </g>
  </g>
  <g transform="translate(632,47)">
   <path d="M0,0H31V379H0Z" style="fill: none; stroke: black; stroke-width: 1;"></path>
   <path d="M0,360H31V379H0Z" style="fill: #1652cd;"></path>
   <path d="M0,341H31V361H0Z" style="fill: #1652cd;"></path>
   <path d="M0,322H31V342H0Z" style="fill: #1064dc;"></path>
   <path d="M0,303H31V323H0Z" style="fill: #1272d9;"></path>
   <path d="M0,284H31V304H0Z" style="fill: #1481d6;"></path>
   <path d="M0,265H31V285H0Z" style="fill: #0e8fd1;"></path>
   <path d="M0,246H31V266H0Z" style="fill: #099dcc;"></path>
   <path d="M0,227H31V247H0Z" style="fill: #0da7c3;"></path>
   <path d="M0,208H31V228H0Z" style="fill: #1eafb3;"></path>
   <path d="M0,190H31V209H0Z" style="fill: #2eb7a4;"></path>
   <path d="M0,171H31V191H0Z" style="fill: #52ba92;"></path>
   <path d="M0,152H31V172H0Z" style="fill: #74bd81;"></path>
   <path d="M0,133H31V153H0Z" style="fill: #95be71;"></path>
   <path d="M0,114H31V134H0Z" style="fill: #b3bd65;"></path>
   <path d="M0,95H31V115H0Z" style="fill: #d1bb59;"></path>
   <path d="M0,76H31V96H0Z" style="fill: #e2c04b;"></path>
   <path d="M0,57H31V77H0Z" style="fill: #f4c63b;"></path>
   <path d="M0,38H31V58H0Z" style="fill: #fdd22b;"></path>
   <path d="M0,19H31V39H0Z" style="fill: #fbe61d;"></path>
   <path d="M0,0H31V20H0Z" style="fill: #f9f90f;"></path>
   <g transform="translate(31)">
    <path d="M0,0v379M0,379H-19M0,336H-19M0,293H-19M0,251H-19M0,208H-19M0,165H-19M0,122H-19M0,79H-19M0,36H-19" style="stroke: black; stroke-width: 1;"></path>
    <g font-family="Arial" font-size="17" space="preserve" fill="black" text-anchor="start">
     <text dy=".4em" transform="translate(2,379)">
      0
     </text>
     <text dy=".4em" transform="translate(2,336)">
      20
     </text>
     <text dy=".4em" transform="translate(2,293)">
      40
     </text>
     <text dy=".4em" transform="translate(2,251)">
      60
     </text>
     <text dy=".4em" transform="translate(2,208)">
      80
     </text>
     <text dy=".4em" transform="translate(2,165)">
      100
     </text>
     <text dy=".4em" transform="translate(2,122)">
      120
     </text>
     <text dy=".4em" transform="translate(2,79)">
      140
     </text>
     <text dy=".4em" transform="translate(2,36)">
      160
     </text>
    </g>
   </g>
  </g>
  <g transform="translate(544,31)" font-family="Arial" font-size="12" space="preserve" fill="black">
   <path d="M0,0H140V114H0Z" style="fill: white; stroke: black; stroke-width: 1;"></path>
   <text text-anchor="middle" dy=".4em" transform="translate(70,10)">
    hpxpy
   </text>
   <text text-anchor="start" dy=".4em" transform="translate(7,29)">
    Entries
   </text>
   <text text-anchor="end" dy=".4em" transform="translate(133,29)">
    25000
   </text>
   <text text-anchor="start" dy=".4em" transform="translate(7,48)">
    Mean x
   </text>
   <text text-anchor="end" dy=".4em" transform="translate(133,48)">
    -0.01431
   </text>
   <text text-anchor="start" dy=".4em" transform="translate(7,67)">
    Mean y
   </text>
   <text text-anchor="end" dy=".4em" transform="translate(133,67)">
    -0.006923
   </text>
   <text text-anchor="start" dy=".4em" transform="translate(7,86)">
    Std Dev x
   </text>
   <text text-anchor="end" dy=".4em" transform="translate(133,86)">
    0.9975
   </text>
   <text text-anchor="start" dy=".4em" transform="translate(7,105)">
    Std Dev y
   </text>
   <text text-anchor="end" dy=".4em" transform="translate(133,105)">
    1.009
   </text>
   <path d="M0,19h140" style="stroke: black; stroke-width: 1;"></path>
  </g>
  <g transform="translate(294,2)" font-family="Arial" font-size="21" space="preserve">
   <text fill="black" text-anchor="middle" dy=".4em" transform="translate(55,13)">
    py vs px
   </text>
  </g>
  <g transform="translate(70,427)">
   <path d="M0,0h558M558,-10V0M544,-5V0M530,-5V0M516,-5V0M502,-5V0M488,-10V0M474,-5V0M460,-5V0M446,-5V0M432,-5V0M419,-10V0M405,-5V0M391,-5V0M377,-5V0M363,-5V0M349,-10V0M335,-5V0M321,-5V0M307,-5V0M293,-5V0M279,-10V0M265,-5V0M251,-5V0M237,-5V0M223,-5V0M209,-10V0M195,-5V0M181,-5V0M167,-5V0M153,-5V0M140,-10V0M126,-5V0M112,-5V0M98,-5V0M84,-5V0M70,-10V0M56,-5V0M42,-5V0M28,-5V0M14,-5V0M0,-10V0" style="stroke: black; stroke-width: 1;"></path>
   <g font-family="Arial" font-size="19" space="preserve" font-weight="bold" fill="black" text-anchor="middle">
    <text dy=".8em" transform="translate(558,16)">
     -4
    </text>
    <text dy=".8em" transform="translate(488,16)">
     -3
    </text>
    <text dy=".8em" transform="translate(419,16)">
     -2
    </text>
    <text dy=".8em" transform="translate(349,16)">
     -1
    </text>
    <text dy=".8em" transform="translate(279,16)">
     0
    </text>
    <text dy=".8em" transform="translate(209,16)">
     1
    </text>
    <text dy=".8em" transform="translate(140,16)">
     2
    </text>
    <text dy=".8em" transform="translate(70,16)">
     3
    </text>
    <text dy=".8em" transform="translate(0,16)">
     4
    </text>
   </g>
  </g>
  <g transform="translate(70,47)">
   <path d="M0,0v380M19,0H0M10,10H0M10,19H0M10,29H0M10,38H0M19,48H0M10,57H0M10,67H0M10,76H0M10,85H0M19,95H0M10,105H0M10,114H0M10,124H0M10,133H0M19,143H0M10,152H0M10,162H0M10,171H0M10,181H0M19,190H0M10,200H0M10,209H0M10,218H0M10,228H0M19,238H0M10,247H0M10,257H0M10,266H0M10,276H0M19,285H0M10,295H0M10,304H0M10,314H0M10,323H0M19,333H0M10,342H0M10,352H0M10,361H0M10,371H0M19,380H0" style="stroke: black; stroke-width: 1;"></path>
   <g font-family="Arial" font-size="19" space="preserve" font-weight="bold" fill="black" text-anchor="end">
    <text dy=".4em" transform="translate(-14)">
     -4
    </text>
    <text dy=".4em" transform="translate(-14,48)">
     -3
    </text>
    <text dy=".4em" transform="translate(-14,95)">
     -2
    </text>
    <text dy=".4em" transform="translate(-14,143)">
     -1
    </text>
    <text dy=".4em" transform="translate(-14,190)">
     0
    </text>
    <text dy=".4em" transform="translate(-14,238)">
     1
    </text>
    <text dy=".4em" transform="translate(-14,285)">
     2
    </text>
    <text dy=".4em" transform="translate(-14,333)">
     3
    </text>
    <text dy=".4em" transform="translate(-14,380)">
     4
    </text>
   </g>
  </g>
 </g>
</svg>