<svg xmlns="http://www.w3.org/2000/svg" width="798" height="774" viewBox="0 0 798 774" preserveAspectRatio="none">
 <path d="M0,0H798V774H0Z" style="fill: white;"></path>
 <g>
  <g transform="translate(120,77)">
   <path d="M0,0H598V580H0Z" style="fill: white; stroke: black; stroke-width: 1;"></path>
   <svg x="0" y="0" overflow="hidden" width="598" height="580" viewBox="0 0 598 580">
    <g>
     <g font-family="Arial" font-size="20" xml:space="preserve" fill="black" text-anchor="middle"><text dominant-baseline="middle" transform="translate(25,537)">1</text><text dominant-baseline="middle" transform="translate(25,508)">3</text><text dominant-baseline="middle" transform="translate(25,479)">6</text><text dominant-baseline="middle" transform="translate(25,450)">3</text><text dominant-baseline="middle" transform="translate(25,421)">8</text><text dominant-baseline="middle" transform="translate(25,392)">8</text><text dominant-baseline="middle" transform="translate(25,363)">13</text><text dominant-baseline="middle" transform="translate(25,334)">18</text><text dominant-baseline="middle" transform="translate(25,305)">11</text><text dominant-baseline="middle" transform="translate(25,276)">14</text><text dominant-baseline="middle" transform="translate(25,247)">5</text><text dominant-baseline="middle" transform="translate(25,218)">4</text><text dominant-baseline="middle" transform="translate(25,189)">7</text><text dominant-baseline="middle" transform="translate(25,160)">6</text><text dominant-baseline="middle" transform="translate(25,131)">1</text><text dominant-baseline="middle" transform="translate(25,102)">2</text><text dominant-baseline="middle" transform="translate(25,73)">2</text><text dominant-baseline="middle" transform="translate(25,44)">1</text><text dominant-baseline="middle" transform="translate(75,566)">4</text><text dominant-baseline="middle" transform="translate(75,537)">3</text><text dominant-baseline="middle" transform="translate(75,508)">4</text><text dominant-baseline="middle" transform="translate(75,479)">5</text><text dominant-baseline="middle" transform="translate(75,450)">5</text><text dominant-baseline="middle" transform="translate(75,421)">9</text><text dominant-baseline="middle" transform="translate(75,392)">11</text><text dominant-baseline="middle" transform="translate(75,363)">15</text><text dominant-baseline="middle" transform="translate(75,334)">20</text><text dominant-baseline="middle" transform="translate(75,305)">9</text><text dominant-baseline="middle" transform="translate(75,276)">22</text><text dominant-baseline="middle" transform="translate(75,247)">20</text><text dominant-baseline="middle" transform="translate(75,218)">19</text><text dominant-baseline="middle" transform="translate(75,189)">20</text><text dominant-baseline="middle" transform="translate(75,160)">9</text><text dominant-baseline="middle" transform="translate(75,131)">5</text><text dominant-baseline="middle" transform="translate(75,102)">3</text><text dominant-baseline="middle" transform="translate(75,73)">5</text><text dominant-baseline="middle" transform="translate(75,44)">1</text><text dominant-baseline="middle" transform="translate(75,15)">1</text><text dominant-baseline="middle" transform="translate(125,566)">2</text><text dominant-baseline="middle" transform="translate(125,537)">3</text><text dominant-baseline="middle" transform="translate(125,508)">6</text><text dominant-baseline="middle" transform="translate(125,479)">9</text><text dominant-baseline="middle" transform="translate(125,450)">25</text><text dominant-baseline="middle" transform="translate(125,421)">26</text><text dominant-baseline="middle" transform="translate(125,392)">23</text><text dominant-baseline="middle" transform="translate(125,363)">31</text><text dominant-baseline="middle" transform="translate(125,334)">24</text><text dominant-baseline="middle" transform="translate(125,305)">31</text><text dominant-baseline="middle" transform="translate(125,276)">36</text><text dominant-baseline="middle" transform="translate(125,247)">32</text><text dominant-baseline="middle" transform="translate(125,218)">33</text><text dominant-baseline="middle" transform="translate(125,189)">25</text><text dominant-baseline="middle" transform="translate(125,160)">12</text><text dominant-baseline="middle" transform="translate(125,131)">16</text><text dominant-baseline="middle" transform="translate(125,102)">10</text><text dominant-baseline="middle" transform="translate(125,73)">5</text><text dominant-baseline="middle" transform="translate(125,44)">4</text><text dominant-baseline="middle" transform="translate(174,566)">3</text><text dominant-baseline="middle" transform="translate(174,537)">4</text><text dominant-baseline="middle" transform="translate(174,508)">13</text><text dominant-baseline="middle" transform="translate(174,479)">24</text><text dominant-baseline="middle" transform="translate(174,450)">20</text><text dominant-baseline="middle" transform="translate(174,421)">41</text><text dominant-baseline="middle" transform="translate(174,392)">51</text><text dominant-baseline="middle" transform="translate(174,363)">51</text><text dominant-baseline="middle" transform="translate(174,334)">68</text><text dominant-baseline="middle" transform="translate(174,305)">58</text><text dominant-baseline="middle" transform="translate(174,276)">47</text><text dominant-baseline="middle" transform="translate(174,247)">47</text><text dominant-baseline="middle" transform="translate(174,218)">43</text><text dominant-baseline="middle" transform="translate(174,189)">35</text><text dominant-baseline="middle" transform="translate(174,160)">25</text><text dominant-baseline="middle" transform="translate(174,131)">13</text><text dominant-baseline="middle" transform="translate(174,102)">11</text><text dominant-baseline="middle" transform="translate(174,73)">9</text><text dominant-baseline="middle" transform="translate(174,44)">6</text><text dominant-baseline="middle" transform="translate(174,15)">1</text><text dominant-baseline="middle" transform="translate(224,566)">3</text><text dominant-baseline="middle" transform="translate(224,537)">8</text><text dominant-baseline="middle" transform="translate(224,508)">16</text><text dominant-baseline="middle" transform="translate(224,479)">19</text><text dominant-baseline="middle" transform="translate(224,450)">26</text><text dominant-baseline="middle" transform="translate(224,421)">44</text><text dominant-baseline="middle" transform="translate(224,392)">57</text><text dominant-baseline="middle" transform="translate(224,363)">56</text><text dominant-baseline="middle" transform="translate(224,334)">93</text><text dominant-baseline="middle" transform="translate(224,305)">80</text><text dominant-baseline="middle" transform="translate(224,276)">78</text><text dominant-baseline="middle" transform="translate(224,247)">78</text><text dominant-baseline="middle" transform="translate(224,218)">67</text><text dominant-baseline="middle" transform="translate(224,189)">34</text><text dominant-baseline="middle" transform="translate(224,160)">28</text><text dominant-baseline="middle" transform="translate(224,131)">23</text><text dominant-baseline="middle" transform="translate(224,102)">20</text><text dominant-baseline="middle" transform="translate(224,73)">7</text><text dominant-baseline="middle" transform="translate(224,44)">8</text><text dominant-baseline="middle" transform="translate(224,15)">8</text><text dominant-baseline="middle" transform="translate(274,566)">4</text><text dominant-baseline="middle" transform="translate(274,537)">11</text><text dominant-baseline="middle" transform="translate(274,508)">20</text><text dominant-baseline="middle" transform="translate(274,479)">29</text><text dominant-baseline="middle" transform="translate(274,450)">34</text><text dominant-baseline="middle" transform="translate(274,421)">48</text><text dominant-baseline="middle" transform="translate(274,392)">63</text><text dominant-baseline="middle" transform="translate(274,363)">75</text><text dominant-baseline="middle" transform="translate(274,334)">84</text><text dominant-baseline="middle" transform="translate(274,305)">92</text><text dominant-baseline="middle" transform="translate(274,276)">79</text><text dominant-baseline="middle" transform="translate(274,247)">62</text><text dominant-baseline="middle" transform="translate(274,218)">55</text><text dominant-baseline="middle" transform="translate(274,189)">56</text><text dominant-baseline="middle" transform="translate(274,160)">29</text><text dominant-baseline="middle" transform="translate(274,131)">26</text><text dominant-baseline="middle" transform="translate(274,102)">10</text><text dominant-baseline="middle" transform="translate(274,73)">11</text><text dominant-baseline="middle" transform="translate(274,44)">13</text><text dominant-baseline="middle" transform="translate(274,15)">5</text><text dominant-baseline="middle" transform="translate(324,566)">4</text><text dominant-baseline="middle" transform="translate(324,537)">7</text><text dominant-baseline="middle" transform="translate(324,508)">22</text><text dominant-baseline="middle" transform="translate(324,479)">27</text><text dominant-baseline="middle" transform="translate(324,450)">27</text><text dominant-baseline="middle" transform="translate(324,421)">57</text><text dominant-baseline="middle" transform="translate(324,392)">58</text><text dominant-baseline="middle" transform="translate(324,363)">54</text><text dominant-baseline="middle" transform="translate(324,334)">75</text><text dominant-baseline="middle" transform="translate(324,305)">83</text><text dominant-baseline="middle" transform="translate(324,276)">78</text><text dominant-baseline="middle" transform="translate(324,247)">65</text><text dominant-baseline="middle" transform="translate(324,218)">59</text><text dominant-baseline="middle" transform="translate(324,189)">43</text><text dominant-baseline="middle" transform="translate(324,160)">40</text><text dominant-baseline="middle" transform="translate(324,131)">27</text><text dominant-baseline="middle" transform="translate(324,102)">14</text><text dominant-baseline="middle" transform="translate(324,73)">14</text><text dominant-baseline="middle" transform="translate(324,44)">8</text><text dominant-baseline="middle" transform="translate(324,15)">2</text><text dominant-baseline="middle" transform="translate(374,566)">8</text><text dominant-baseline="middle" transform="translate(374,537)">7</text><text dominant-baseline="middle" transform="translate(374,508)">12</text><text dominant-baseline="middle" transform="translate(374,479)">25</text><text dominant-baseline="middle" transform="translate(374,450)">33</text><text dominant-baseline="middle" transform="translate(374,421)">42</text><text dominant-baseline="middle" transform="translate(374,392)">53</text><text dominant-baseline="middle" transform="translate(374,363)">46</text><text dominant-baseline="middle" transform="translate(374,334)">58</text><text dominant-baseline="middle" transform="translate(374,305)">57</text><text dominant-baseline="middle" transform="translate(374,276)">47</text><text dominant-baseline="middle" transform="translate(374,247)">42</text><text dominant-baseline="middle" transform="translate(374,218)">43</text><text dominant-baseline="middle" transform="translate(374,189)">42</text><text dominant-baseline="middle" transform="translate(374,160)">47</text><text dominant-baseline="middle" transform="translate(374,131)">25</text><text dominant-baseline="middle" transform="translate(374,102)">12</text><text dominant-baseline="middle" transform="translate(374,73)">5</text><text dominant-baseline="middle" transform="translate(374,44)">6</text><text dominant-baseline="middle" transform="translate(374,15)">2</text><text dominant-baseline="middle" transform="translate(424,566)">7</text><text dominant-baseline="middle" transform="translate(424,537)">5</text><text dominant-baseline="middle" transform="translate(424,508)">9</text><text dominant-baseline="middle" transform="translate(424,479)">10</text><text dominant-baseline="middle" transform="translate(424,450)">20</text><text dominant-baseline="middle" transform="translate(424,421)">19</text><text dominant-baseline="middle" transform="translate(424,392)">28</text><text dominant-baseline="middle" transform="translate(424,363)">35</text><text dominant-baseline="middle" transform="translate(424,334)">43</text><text dominant-baseline="middle" transform="translate(424,305)">43</text><text dominant-baseline="middle" transform="translate(424,276)">39</text><text dominant-baseline="middle" transform="translate(424,247)">29</text><text dominant-baseline="middle" transform="translate(424,218)">27</text><text dominant-baseline="middle" transform="translate(424,189)">18</text><text dominant-baseline="middle" transform="translate(424,160)">18</text><text dominant-baseline="middle" transform="translate(424,131)">10</text><text dominant-baseline="middle" transform="translate(424,102)">9</text><text dominant-baseline="middle" transform="translate(424,73)">7</text><text dominant-baseline="middle" transform="translate(424,44)">4</text><text dominant-baseline="middle" transform="translate(424,15)">1</text><text dominant-baseline="middle" transform="translate(473,566)">1</text><text dominant-baseline="middle" transform="translate(473,537)">5</text><text dominant-baseline="middle" transform="translate(473,508)">4</text><text dominant-baseline="middle" transform="translate(473,479)">15</text><text dominant-baseline="middle" transform="translate(473,450)">13</text><text dominant-baseline="middle" transform="translate(473,421)">14</text><text dominant-baseline="middle" transform="translate(473,392)">15</text><text dominant-baseline="middle" transform="translate(473,363)">19</text><text dominant-baseline="middle" transform="translate(473,334)">14</text><text dominant-baseline="middle" transform="translate(473,305)">24</text><text dominant-baseline="middle" transform="translate(473,276)">17</text><text dominant-baseline="middle" transform="translate(473,247)">16</text><text dominant-baseline="middle" transform="translate(473,218)">16</text><text dominant-baseline="middle" transform="translate(473,189)">7</text><text dominant-baseline="middle" transform="translate(473,160)">8</text><text dominant-baseline="middle" transform="translate(473,131)">5</text><text dominant-baseline="middle" transform="translate(473,102)">3</text><text dominant-baseline="middle" transform="translate(473,73)">1</text><text dominant-baseline="middle" transform="translate(473,44)">1</text><text dominant-baseline="middle" transform="translate(523,537)">3</text><text dominant-baseline="middle" transform="translate(523,508)">3</text><text dominant-baseline="middle" transform="translate(523,479)">5</text><text dominant-baseline="middle" transform="translate(523,450)">3</text><text dominant-baseline="middle" transform="translate(523,421)">3</text><text dominant-baseline="middle" transform="translate(523,392)">6</text><text dominant-baseline="middle" transform="translate(523,363)">10</text><text dominant-baseline="middle" transform="translate(523,334)">8</text><text dominant-baseline="middle" transform="translate(523,305)">9</text><text dominant-baseline="middle" transform="translate(523,276)">5</text><text dominant-baseline="middle" transform="translate(523,247)">10</text><text dominant-baseline="middle" transform="translate(523,218)">9</text><text dominant-baseline="middle" transform="translate(523,189)">5</text><text dominant-baseline="middle" transform="translate(523,160)">7</text><text dominant-baseline="middle" transform="translate(523,131)">2</text><text dominant-baseline="middle" transform="translate(523,73)">1</text><text dominant-baseline="middle" transform="translate(523,44)">4</text><text dominant-baseline="middle" transform="translate(573,479)">5</text><text dominant-baseline="middle" transform="translate(573,421)">3</text><text dominant-baseline="middle" transform="translate(573,392)">1</text><text dominant-baseline="middle" transform="translate(573,363)">4</text><text dominant-baseline="middle" transform="translate(573,305)">8</text><text dominant-baseline="middle" transform="translate(573,276)">1</text><text dominant-baseline="middle" transform="translate(573,247)">7</text><text dominant-baseline="middle" transform="translate(573,218)">6</text><text dominant-baseline="middle" transform="translate(573,189)">4</text><text dominant-baseline="middle" transform="translate(573,160)">4</text><text dominant-baseline="middle" transform="translate(573,131)">1</text></g>
    </g>
   </svg>
   <g>
    <g transform="translate(0,580)">
     <path d="M0,0h598M0,-17V0M50,-17V0M100,-17V0M150,-17V0M199,-17V0M249,-17V0M299,-17V0M349,-17V0M399,-17V0M449,-17V0M498,-17V0M548,-17V0M598,-9V0" style="stroke: black; stroke-width: 1;"></path>
     <g font-family="Arial" font-size="18" xml:space="preserve" fill="black" text-anchor="middle"><text dy=".8em" transform="translate(25,6) rotate(25)" style="text-anchor: start;">January</text><text dy=".8em" transform="translate(75,6) rotate(25)" style="text-anchor: start;">February</text><text dy=".8em" transform="translate(125,6) rotate(25)" style="text-anchor: start;">March</text><text dy=".8em" transform="translate(175,6) rotate(25)" style="text-anchor: start;">April</text><text dy=".8em" transform="translate(224,6) rotate(25)" style="text-anchor: start;">May</text><text dy=".8em" transform="translate(274,6) rotate(25)" style="text-anchor: start;">June</text><text dy=".8em" transform="translate(324,6) rotate(25)" style="text-anchor: start;">July</text><text dy=".8em" transform="translate(374,6) rotate(25)" style="text-anchor: start;">August</text><text dy=".8em" transform="translate(424,6) rotate(25)" style="text-anchor: start;">September</text><text dy=".8em" transform="translate(474,6) rotate(25)" style="text-anchor: start;">October</text><text dy=".8em" transform="translate(523,6) rotate(25)" style="text-anchor: start;">November</text><text dy=".8em" transform="translate(573,6) rotate(25)" style="text-anchor: start;">December</text></g>
    </g>
    <g>
     <path d="M0,0v580M18,580H0M18,551H0M18,522H0M18,493H0M18,464H0M18,435H0M18,406H0M18,377H0M18,348H0M18,319H0M18,290H0M18,261H0M18,232H0M18,203H0M18,174H0M18,145H0M18,116H0M18,87H0M18,58H0M18,29H0M9,0H0" style="stroke: black; stroke-width: 1;"></path>
     <g font-family="Arial" font-size="18" xml:space="preserve" fill="black" text-anchor="end"><text dominant-baseline="middle" transform="translate(-5,566)">Jean</text><text dominant-baseline="middle" transform="translate(-5,537)">Pierre</text><text dominant-baseline="middle" transform="translate(-5,508)">Marie</text><text dominant-baseline="middle" transform="translate(-5,479)">Odile</text><text dominant-baseline="middle" transform="translate(-5,450)">Sebastien</text><text dominant-baseline="middle" transform="translate(-5,421)">Fons</text><text dominant-baseline="middle" transform="translate(-5,392)">Rene</text><text dominant-baseline="middle" transform="translate(-5,363)">Nicolas</text><text dominant-baseline="middle" transform="translate(-5,334)">Xavier</text><text dominant-baseline="middle" transform="translate(-5,305)">Greg</text><text dominant-baseline="middle" transform="translate(-5,276)">Bjarne</text><text dominant-baseline="middle" transform="translate(-5,247)">Anton</text><text dominant-baseline="middle" transform="translate(-5,218)">Otto</text><text dominant-baseline="middle" transform="translate(-5,189)">Eddy</text><text dominant-baseline="middle" transform="translate(-5,160)">Peter</text><text dominant-baseline="middle" transform="translate(-5,131)">Pasha</text><text dominant-baseline="middle" transform="translate(-5,102)">Philippe</text><text dominant-baseline="middle" transform="translate(-5,73)">Suzanne</text><text dominant-baseline="middle" transform="translate(-5,44)">Jeff</text><text dominant-baseline="middle" transform="translate(-5,15)">Valery</text></g>
    </g>
    <path d="M0,0v580M50,0v580M100,0v580M150,0v580M199,0v580M249,0v580M299,0v580M349,0v580M399,0v580M449,0v580M498,0v580M548,0v580M598,0v580" style="stroke: black; stroke-width: 1; stroke-dasharray: 1, 2;"></path>
    <path d="M0,580h598M0,551h598M0,522h598M0,493h598M0,464h598M0,435h598M0,406h598M0,377h598M0,348h598M0,319h598M0,290h598M0,261h598M0,232h598M0,203h598M0,174h598M0,145h598M0,116h598M0,87h598M0,58h598M0,29h598M0,0h598" style="stroke: black; stroke-width: 1; stroke-dasharray: 1, 2;"></path>
   </g>
  </g>
  <g transform="translate(359,4)" font-family="Arial" font-size="39" xml:space="preserve"><text fill="black" text-anchor="middle" dominant-baseline="middle" transform="translate(40,25)">test</text></g>
 </g>
</svg>