<svg viewBox="0 0 1200 800" preserveAspectRatio="none" xmlns="http://www.w3.org/2000/svg" width="1200" height="800"><title>ROOT canvas</title><rect x="0" y="0" width="1200" height="800" style="fill: white;"></rect><g><g transform="translate(120,80)"><title></title><rect x="0" y="0" width="960" height="640" style="fill: white; stroke: black; stroke-width: 1;"></rect><svg x="0" y="0" overflow="hidden" width="960" height="640" viewBox="0 0 960 640"><g objname="hpxpy" objtype="TH2F"><path palette-index="12" fill="rgb(38,62,168)" d="M0,320v16h24v-16zM24,272v16h24v-16zm0,-96v16h24v-16zM48,400v16h24v-16zm0,-16v16h24v-16zm0,-32v16h24v-16zm0,-32v16h24v-16zm0,-16v16h24v-16zm0,-80v16h24v-16zM72,416v16h24v-16zm0,-16v16h24v-16zm0,-16v16h24v-16zm0,-32v16h24v-16zm0,-32v16h24v-16zm24,80v16h24v-16zm0,-16v16h24v-16zm0,-16v16h24v-16zm0,-64v16h24v-16zm0,-16v16h24v-16zm0,-32v16h24v-16zm0,-16v16h24v-16zm0,-16v16h24v-16zm0,-16v16h24v-16zm24,272v16h24v-16zm0,-32v16h24v-16zm0,-32v16h24v-16zm0,-48v16h24v-16zm0,-16v16h24v-16zm0,-16v16h24v-16zm0,-16v16h24v-16zm0,-16v16h24v-16zm0,-16v16h24v-16zm0,-16v16h24v-16zm0,-16v16h24v-16zm0,-16v16h24v-16zm0,-16v16h24v-16zm0,-32v16h24v-16zm0,-16v16h24v-16zm0,-16v16h24v-16zm0,-16v16h24v-16zm24,368v16h24v-16zm0,-64v16h24v-16zm0,-16v16h24v-16zm0,-16v16h24v-16zm0,-16v16h24v-16zm0,-16v16h24v-16zm0,-16v16h24v-16zm0,-16v16h24v-16zm0,-16v16h24v-16zm0,-16v16h24v-16zm0,-16v16h24v-16zm0,-32v16h24v-16zm0,-16v16h24v-16zm0,-16v16h24v-16zm0,-16v16h24v-16zm0,-16v16h24v-16zm0,-16v16h24v-16zm0,-16v16h24v-16zm24,304v16h24v-16zm0,-16v16h24v-16zm0,-32v16h24v-16zm0,-16v16h24v-16zm0,-16v16h24v-16zm0,-16v16h24v-16zm0,-16v16h24v-16zm0,-16v16h24v-16zm0,-16v16h24v-16zm0,-16v16h24v-16zm0,-16v16h24v-16zm0,-32v16h24v-16zm0,-16v16h24v-16zm0,-16v16h24v-16zm0,-16v16h24v-16zm0,-16v16h24v-16zm0,-16v16h24v-16zm0,-16v16h24v-16zm0,-32v16h24v-16zm0,-32v16h24v-16zm24,400v16h24v-16zm0,-16v16h24v-16zm0,-32v16h24v-16zm0,-16v16h24v-16zm0,-16v16h24v-16zm0,-32v16h24v-16zm0,-16v16h24v-16zm0,-48v16h24v-16zm0,-16v16h24v-16zm0,-48v16h24v-16zm0,-32v16h24v-16zm0,-16v16h24v-16zm0,-16v16h24v-16zm0,-32v16h24v-16zm0,-16v16h24v-16zm0,-16v16h24v-16zm0,-32v16h24v-16zm0,-16v16h24v-16zm0,-48v16h24v-16zm24,464v16h24v-16zm0,-32v16h24v-16zm0,-16v16h24v-16zm0,-16v16h24v-16zm0,-16v16h24v-16zm0,-208v16h24v-16zm0,-16v16h24v-16zm0,-16v16h24v-16zm0,-16v16h24v-16zm0,-16v16h24v-16zm0,-16v16h24v-16zm0,-16v16h24v-16zm0,-16v16h24v-16zm24,432v16h24v-16zm0,-32v16h24v-16zm0,-16v16h24v-16zm0,-16v16h24v-16zm0,-16v16h24v-16zm0,-16v16h24v-16zm0,-288v16h24v-16zm0,-16v16h24v-16zm0,-16v16h24v-16zm0,-16v16h24v-16zm0,-32v16h24v-16zm24,448v16h24v-16zm0,-16v16h24v-16zm0,-16v16h24v-16zm0,-16v16h24v-16zm0,-16v16h24v-16zm0,-16v16h24v-16zm0,-272v16h24v-16zm0,-16v16h24v-16zm0,-16v16h24v-16zm0,-16v16h24v-16zm0,-16v16h24v-16zm0,-32v16h24v-16zm0,-16v16h24v-16zm24,512v16h24v-16zm0,-64v16h24v-16zm0,-16v16h24v-16zm0,-368v16h24v-16zm24,480v16h24v-16zm0,-64v16h24v-16zm0,-16v16h24v-16zm0,-16v16h24v-16zm0,-16v16h24v-16zm0,-32v16h24v-16zm0,-320v16h24v-16zm0,-16v16h24v-16zm0,-16v16h24v-16zm0,-16v16h24v-16zm24,464v16h24v-16zm0,-16v16h24v-16zm0,-16v16h24v-16zm0,-16v16h24v-16zm0,-16v16h24v-16zm0,-368v16h24v-16zm0,-16v16h24v-16zm0,-16v16h24v-16zm24,528v16h24v-16zm0,-16v16h24v-16zm0,-48v16h24v-16zm0,-16v16h24v-16zm0,-16v16h24v-16zm0,-16v16h24v-16zm0,-16v16h24v-16zm0,-384v16h24v-16zm0,-16v16h24v-16zm0,-16v16h24v-16zm0,-16v16h24v-16zm0,-16v16h24v-16zm24,512v16h24v-16zm0,-16v16h24v-16zm0,-16v16h24v-16zm0,-16v16h24v-16zm0,-384v16h24v-16zm0,-16v16h24v-16zm0,-32v16h24v-16zm24,496v16h24v-16zm0,-32v16h24v-16zm0,-16v16h24v-16zm0,-16v16h24v-16zM408,96v16h24v-16zm0,-16v16h24v-16zm0,-16v16h24v-16zm24,544v16h24v-16zm0,-48v16h24v-16zm0,-16v16h24v-16zm0,-16v16h24v-16zm0,-16v16h24v-16zm0,-400v16h24v-16zm0,-16v16h24v-16zm0,-16v16h24v-16zm0,-16v16h24v-16zm0,-32v16h24v-16zM432,0v16h24v-16zm24,576v16h24v-16zm0,-16v16h24v-16zm0,-16v16h24v-16zm0,-16v16h24v-16zm0,-16v16h24v-16zM456,96v16h24v-16zm0,-16v16h24v-16zm0,-16v16h24v-16zm0,-32v16h24v-16zm24,560v16h24v-16zm0,-16v16h24v-16zm0,-32v16h24v-16zm0,-16v16h24v-16zm0,-416v16h24v-16zm0,-16v16h24v-16zm0,-16v16h24v-16zm0,-16v16h24v-16zm0,-16v16h24v-16zm24,512v16h24v-16zm0,-16v16h24v-16zm0,-32v16h24v-16zm0,-16v16h24v-16zm0,-384v16h24v-16zm0,-16v16h24v-16zm0,-16v16h24v-16zm0,-32v16h24v-16zm0,-16v16h24v-16zm0,-16v16h24v-16zm24,576v16h24v-16zm0,-48v16h24v-16zm0,-16v16h24v-16zm0,-16v16h24v-16zm0,-400v16h24v-16zm0,-16v16h24v-16zm0,-16v16h24v-16zm0,-32v16h24v-16zM528,0v16h24v-16zm24,544v16h24v-16zm0,-32v16h24v-16zm0,-16v16h24v-16zm0,-368v16h24v-16zm0,-16v16h24v-16zm0,-16v16h24v-16zm0,-32v16h24v-16zm0,-16v16h24v-16zm24,560v16h24v-16zm0,-48v16h24v-16zm0,-16v16h24v-16zm0,-16v16h24v-16zm0,-16v16h24v-16zm0,-16v16h24v-16zm0,-368v16h24v-16zm0,-16v16h24v-16zm0,-16v16h24v-16zm0,-16v16h24v-16zm0,-16v16h24v-16zM576,0v16h24v-16zm24,544v16h24v-16zm0,-32v16h24v-16zm0,-16v16h24v-16zm0,-352v16h24v-16zm0,-16v16h24v-16zm0,-16v16h24v-16zm0,-16v16h24v-16zm0,-16v16h24v-16zm0,-16v16h24v-16zm24,528v16h24v-16zm0,-16v16h24v-16zm0,-48v16h24v-16zm0,-16v16h24v-16zm0,-32v16h24v-16zm0,-320v16h24v-16zm0,-32v16h24v-16zm0,-16v16h24v-16zm0,-16v16h24v-16zm0,-32v16h24v-16zm24,480v16h24v-16zm0,-16v16h24v-16zm0,-32v16h24v-16zm0,-16v16h24v-16zm0,-16v16h24v-16zm0,-32v16h24v-16zm0,-256v16h24v-16zm0,-16v16h24v-16zm0,-16v16h24v-16zm0,-16v16h24v-16zm0,-32v16h24v-16zm0,-48v16h24v-16zm24,448v16h24v-16zm0,-336v16h24v-16zm0,-16v16h24v-16zm0,-16v16h24v-16zm0,-16v16h24v-16zm0,-16v16h24v-16zm24,448v16h24v-16zm0,-16v16h24v-16zm0,-16v16h24v-16zm0,-16v16h24v-16zm0,-16v16h24v-16zm0,-16v16h24v-16zm0,-32v16h24v-16zm0,-224v16h24v-16zm0,-16v16h24v-16zm0,-16v16h24v-16zm0,-16v16h24v-16zm0,-16v16h24v-16zm0,-32v16h24v-16zm0,-64v16h24v-16zm24,480v16h24v-16zm0,-16v16h24v-16zm0,-16v16h24v-16zm0,-16v16h24v-16zm0,-16v16h24v-16zm0,-16v16h24v-16zm0,-16v16h24v-16zm0,-208v16h24v-16zm0,-48v16h24v-16zm0,-48v16h24v-16zm0,-32v16h24v-16zm24,400v16h24v-16zm0,-16v16h24v-16zm0,-32v16h24v-16zm0,-16v16h24v-16zm0,-16v16h24v-16zm0,-16v16h24v-16zm0,-16v16h24v-16zm0,-16v16h24v-16zm0,-32v16h24v-16zm0,-64v16h24v-16zm0,-32v16h24v-16zm0,-32v16h24v-16zm0,-32v16h24v-16zm0,-16v16h24v-16zm0,-32v16h24v-16zM744,16v16h24v-16zm24,432v16h24v-16zm0,-16v16h24v-16zm0,-16v16h24v-16zm0,-16v16h24v-16zm0,-16v16h24v-16zm0,-16v16h24v-16zm0,-16v16h24v-16zm0,-32v16h24v-16zm0,-16v16h24v-16zm0,-16v16h24v-16zm0,-16v16h24v-16zm0,-16v16h24v-16zm0,-16v16h24v-16zm0,-16v16h24v-16zm0,-16v16h24v-16zm0,-32v16h24v-16zm0,-16v16h24v-16zm0,-64v16h24v-16zm24,384v16h24v-16zm0,-16v16h24v-16zm0,-32v16h24v-16zm0,-16v16h24v-16zm0,-16v16h24v-16zm0,-32v16h24v-16zm0,-16v16h24v-16zm0,-16v16h24v-16zm0,-16v16h24v-16zm0,-16v16h24v-16zm0,-16v16h24v-16zm0,-16v16h24v-16zm0,-16v16h24v-16zm0,-16v16h24v-16zm0,-16v16h24v-16zm0,-16v16h24v-16zm0,-16v16h24v-16zm0,-32v16h24v-16zm24,384v16h24v-16zm0,-48v16h24v-16zm0,-48v16h24v-16zm0,-16v16h24v-16zm0,-16v16h24v-16zm0,-48v16h24v-16zm0,-16v16h24v-16zm0,-16v16h24v-16zm0,-16v16h24v-16zm0,-16v16h24v-16zm0,-16v16h24v-16zm0,-32v16h24v-16zm0,-16v16h24v-16zm0,-32v16h24v-16zm0,-80v16h24v-16zm24,352v16h24v-16zm0,-64v16h24v-16zm0,-16v16h24v-16zm0,-16v16h24v-16zm0,-16v16h24v-16zm0,-32v16h24v-16zm0,-32v16h24v-16zm0,-32v16h24v-16zm0,-16v16h24v-16zm0,-16v16h24v-16zm0,-48v16h24v-16zm0,-32v16h24v-16zm0,-32v16h24v-16zm0,-16v16h24v-16zm24,304v16h24v-16zm0,-240v16h24v-16zm24,240v16h24v-16zm0,-32v16h24v-16zm0,-32v16h24v-16zm0,-112v16h24v-16zm0,-16v16h24v-16zm0,-16v16h24v-16zm0,-32v16h24v-16zm24,96v16h24v-16zm0,-32v16h24v-16z"></path><path palette-index="25" fill="rgb(22,82,205)" d="M144,288v16h24v-16zm24,0v16h24v-16zm24,128v16h24v-16zm0,-48v16h24v-16zm0,-16v16h24v-16zm0,-48v16h24v-16zm0,-16v16h24v-16zm0,-32v16h24v-16zm24,160v16h24v-16zm0,-16v16h24v-16zm0,-16v16h24v-16zm0,-16v16h24v-16zm0,-16v16h24v-16zm0,-48v16h24v-16zm0,-32v16h24v-16zm0,-16v16h24v-16zm0,-16v16h24v-16zm24,192v16h24v-16zm0,-16v16h24v-16zm0,-96v16h24v-16zm0,-96v16h24v-16zm0,-16v16h24v-16zm0,-16v16h24v-16zm0,-16v16h24v-16zm24,256v16h24v-16zm0,-16v16h24v-16zm0,-16v16h24v-16zm0,-176v16h24v-16zm0,-16v16h24v-16zm0,-16v16h24v-16zm24,288v16h24v-16zm0,-16v16h24v-16zm0,-16v16h24v-16zm0,-272v16h24v-16zm0,-16v16h24v-16zm0,-16v16h24v-16zm24,336v16h24v-16zm0,-304v16h24v-16zm0,-16v16h24v-16zm24,320v16h24v-16zm0,-336v16h24v-16zm24,336v16h24v-16zm0,-320v16h24v-16zm0,-16v16h24v-16zm0,-16v16h24v-16zm24,368v16h24v-16zm0,-16v16h24v-16zm24,16v16h24v-16zm0,-368v16h24v-16zm0,-16v16h24v-16zm24,384v16h24v-16zm0,-368v16h24v-16zm24,368v16h24v-16zm0,-368v16h24v-16zm0,-16v16h24v-16zm24,400v16h24v-16zm0,-16v16h24v-16zm0,-16v16h24v-16zm0,-320v16h24v-16zm0,-32v16h24v-16zm24,400v16h24v-16zm0,-384v16h24v-16zm0,-16v16h24v-16zm24,368v16h24v-16zm0,-16v16h24v-16zm0,-352v16h24v-16zm24,400v16h24v-16zm0,-48v16h24v-16zm0,-320v16h24v-16zm24,320v16h24v-16zm0,-304v16h24v-16zm0,-32v16h24v-16zm24,336v16h24v-16zm0,-16v16h24v-16zm24,32v16h24v-16zm0,-32v16h24v-16zm0,-320v16h24v-16zm24,304v16h24v-16zm0,-240v16h24v-16zm24,272v16h24v-16zm0,-16v16h24v-16zm0,-16v16h24v-16zm0,-16v16h24v-16zm0,-208v16h24v-16zm0,-16v16h24v-16zm0,-16v16h24v-16zm0,-16v16h24v-16zm24,272v16h24v-16zm0,-32v16h24v-16zm0,-16v16h24v-16zm0,-16v16h24v-16zm0,-128v16h24v-16zm0,-32v16h24v-16zm24,192v16h24v-16zm0,-16v16h24v-16zm0,-16v16h24v-16zm0,-16v16h24v-16zm0,-16v16h24v-16zm0,-16v16h24v-16zm0,-16v16h24v-16zm0,-16v16h24v-16zm0,-16v16h24v-16zm0,-16v16h24v-16zm0,-32v16h24v-16zm0,-32v16h24v-16zm0,-16v16h24v-16zm24,160v16h24v-16zm0,-32v16h24v-16zm0,-16v16h24v-16zm0,-16v16h24v-16zm0,-32v16h24v-16zm0,-32v16h24v-16zm24,112v16h24v-16z"></path><path palette-index="38" fill="rgb(16,100,220)" d="M216,336v16h24v-16zm0,-16v16h24v-16zm0,-32v16h24v-16zm24,112v16h24v-16zm0,-16v16h24v-16zm0,-16v16h24v-16zm0,-16v16h24v-16zm0,-80v16h24v-16zm0,-16v16h24v-16zm0,-16v16h24v-16zm24,144v16h24v-16zm0,-144v16h24v-16zm24,192v16h24v-16zm0,-16v16h24v-16zm0,-208v16h24v-16zm0,-16v16h24v-16zm24,256v16h24v-16zm0,-16v16h24v-16zm0,-16v16h24v-16zm24,48v16h24v-16zm0,-16v16h24v-16zm0,-16v16h24v-16zm0,-256v16h24v-16zm0,-16v16h24v-16zm24,304v16h24v-16zm0,-16v16h24v-16zm24,16v16h24v-16zm0,-16v16h24v-16zm0,-304v16h24v-16zm24,336v16h24v-16zm0,-16v16h24v-16zm0,-16v16h24v-16zm0,-288v16h24v-16zm0,-16v16h24v-16zm24,336v16h24v-16zm0,-16v16h24v-16zm0,-304v16h24v-16zm0,-16v16h24v-16zm24,336v16h24v-16zm0,-16v16h24v-16zm0,-304v16h24v-16zm0,-16v16h24v-16zm24,0v16h24v-16zm24,336v16h24v-16zm24,-16v16h24v-16zm0,-304v16h24v-16zm0,-16v16h24v-16zm24,320v16h24v-16zm0,-320v16h24v-16zm24,320v16h24v-16zm0,-16v16h24v-16zm0,-288v16h24v-16zm24,288v16h24v-16zm0,-272v16h24v-16zm0,-16v16h24v-16zm24,288v16h24v-16zm0,-16v16h24v-16zm0,-240v16h24v-16zm0,-16v16h24v-16zm24,240v16h24v-16zm0,-192v16h24v-16zm0,-32v16h24v-16zm24,224v16h24v-16zm0,-16v16h24v-16zm0,-16v16h24v-16zm0,-16v16h24v-16zm0,-128v16h24v-16zm24,128v16h24v-16zm0,-16v16h24v-16zm0,-32v16h24v-16zm0,-16v16h24v-16zm0,-16v16h24v-16zm0,-16v16h24v-16zm0,-32v16h24v-16zm24,16v16h24v-16z"></path><path palette-index="50" fill="rgb(18,114,217)" d="M240,336v16h24v-16zm0,-32v16h24v-16zm24,64v16h24v-16zm0,-16v16h24v-16zm0,-16v16h24v-16zm0,-32v16h24v-16zm0,-32v16h24v-16zm0,-16v16h24v-16zm24,144v16h24v-16zm0,-48v16h24v-16zm0,-96v16h24v-16zm0,-32v16h24v-16zm24,16v16h24v-16zm0,-16v16h24v-16zm0,-16v16h24v-16zm0,-16v16h24v-16zm24,16v16h24v-16zm0,-16v16h24v-16zm24,0v16h24v-16zm24,240v16h24v-16zm0,-272v16h24v-16zm48,16v16h24v-16zm48,288v16h24v-16zm0,-16v16h24v-16zm24,0v16h24v-16zm0,-288v16h24v-16zm24,288v16h24v-16zm0,-16v16h24v-16zm0,-256v16h24v-16zm24,272v16h24v-16zm24,-16v16h24v-16zm0,-240v16h24v-16zm24,240v16h24v-16zm0,-240v16h24v-16zm24,224v16h24v-16zm0,-16v16h24v-16zm0,-192v16h24v-16zm24,192v16h24v-16zm0,-160v16h24v-16zm24,32v16h24v-16zm24,64v16h24v-16z"></path><path palette-index="63" fill="rgb(20,129,214)" d="M240,288v16h24v-16zm24,32v16h24v-16zm0,-32v16h24v-16zm24,96v16h24v-16zm0,-16v16h24v-16zm0,-48v16h24v-16zm0,-16v16h24v-16zm0,-16v16h24v-16zm0,-48v16h24v-16zm24,160v16h24v-16zm24,16v16h24v-16zm24,16v16h24v-16zm0,-16v16h24v-16zm0,-240v16h24v-16zm24,0v16h24v-16zm24,0v16h24v-16zm24,272v16h24v-16zm0,-16v16h24v-16zm24,16v16h24v-16zm0,-272v16h24v-16zm24,256v16h24v-16zm0,-256v16h24v-16zm24,288v16h24v-16zm0,-32v16h24v-16zm0,-240v16h24v-16zm0,-16v16h24v-16zm24,16v16h24v-16zm24,240v16h24v-16zm0,-240v16h24v-16zm0,-16v16h24v-16zm24,240v16h24v-16zm0,-192v16h24v-16zm24,192v16h24v-16zm0,-16v16h24v-16zm0,-176v16h24v-16zm0,-16v16h24v-16zm24,16v16h24v-16zm24,160v16h24v-16zm0,-16v16h24v-16zm0,-16v16h24v-16zm24,-16v16h24v-16zm0,-16v16h24v-16zm0,-16v16h24v-16zm0,-16v16h24v-16zm0,-32v16h24v-16z"></path><path palette-index="76" fill="rgb(14,143,209)" d="M288,272v16h24v-16zm48,128v16h24v-16zm0,-176v16h24v-16zm24,-16v16h24v-16zm24,208v16h24v-16zm0,-208v16h24v-16zm0,-16v16h24v-16zm24,240v16h24v-16zm0,-240v16h24v-16zm168,16v16h24v-16zm48,144v16h24v-16zm24,-16v16h24v-16zm0,-16v16h24v-16zm0,-16v16h24v-16zm0,-16v16h24v-16zm0,-16v16h24v-16zm0,-16v16h24v-16zm24,96v16h24v-16z"></path><path palette-index="89" fill="rgb(9,157,204)" d="M288,336v16h24v-16zm24,48v16h24v-16zm0,-32v16h24v-16zm0,-32v16h24v-16zm0,-32v16h24v-16zm0,-16v16h24v-16zm0,-16v16h24v-16zm24,128v16h24v-16zm24,16v16h24v-16zm0,-176v16h24v-16zm24,0v16h24v-16zm48,-32v16h24v-16zm24,16v16h24v-16zm0,-16v16h24v-16zm24,16v16h24v-16zm24,0v16h24v-16zm24,208v16h24v-16zm0,-208v16h24v-16zm24,208v16h24v-16zm0,-208v16h24v-16zm24,192v16h24v-16zm24,-16v16h24v-16zm24,0v16h24v-16zm0,-16v16h24v-16zm0,-112v16h24v-16zm0,-16v16h24v-16z"></path><path palette-index="101" fill="rgb(13,167,195)" d="M312,368v16h24v-16zm0,-32v16h24v-16zm0,-32v16h24v-16zm24,64v16h24v-16zm0,-112v16h24v-16zm0,-16v16h24v-16zm24,0v16h24v-16zm48,-16v16h24v-16zm0,-16v16h24v-16zm24,208v16h24v-16zm24,16v16h24v-16zm0,-16v16h24v-16zM480,192v16h24v-16zm24,208v16h24v-16zM552,224v16h24v-16zm24,160v16h24v-16zm0,-16v16h24v-16zm24,0v16h24v-16zm0,-96v16h24v-16zm0,-16v16h24v-16zm0,-16v16h24v-16zm24,96v16h24v-16zm0,-16v16h24v-16zm0,-32v16h24v-16z"></path><path palette-index="114" fill="rgb(30,175,179)" d="M336,272v16h24v-16zm48,128v16h24v-16zm24,16v16h24v-16zm0,-16v16h24v-16zm72,16v16h24v-16zm0,-16v16h24v-16zm0,-176v16h24v-16zm24,0v16h24v-16zm24,176v16h24v-16zm0,-176v16h24v-16zm24,160v16h24v-16zm0,-144v16h24v-16zm24,96v16h24v-16zm0,-80v16h24v-16zm0,-16v16h24v-16zm24,112v16h24v-16zm0,-32v16h24v-16zm0,-32v16h24v-16zm24,16v16h24v-16zm0,-32v16h24v-16z"></path><path palette-index="127" fill="rgb(46,183,164)" d="M336,336v16h24v-16zm0,-16v16h24v-16zm0,-16v16h24v-16zm24,64v16h24v-16zm0,-96v16h24v-16zm0,-16v16h24v-16zm24,128v16h24v-16zm0,-144v16h24v-16zm48,160v16h24v-16zm0,-176v16h24v-16zm0,-16v16h24v-16zm24,16v16h24v-16zm48,192v16h24v-16zm24,-32v16h24v-16zm24,16v16h24v-16zm0,-112v16h24v-16zm24,0v16h24v-16zm24,48v16h24v-16zm0,-32v16h24v-16z"></path><path palette-index="140" fill="rgb(82,186,146)" d="M336,352v16h24v-16zm0,-64v16h24v-16zm24,96v16h24v-16zM384,256v16h24v-16zm24,-16v16h24v-16zm48,160v16h24v-16zm0,-16v16h24v-16zM528,240v16h24v-16zm24,32v16h24v-16zm24,48v16h24v-16zm0,-48v16h24v-16z"></path><path palette-index="152" fill="rgb(116,189,129)" d="M360,352v16h24v-16zm0,-16v16h24v-16zm0,-16v16h24v-16zm0,-32v16h24v-16zm48,96v16h24v-16zm24,0v16h24v-16zM528,256v16h24v-16zm24,112v16h24v-16z"></path><path palette-index="165" fill="rgb(149,190,113)" d="M384,368v16h24v-16zm0,-96v16h24v-16zm24,96v16h24v-16zm24,0v16h24v-16zm72,0v16h24v-16zm0,-128v16h24v-16zm24,64v16h24v-16zm0,-16v16h24v-16zm24,64v16h24v-16zm0,-48v16h24v-16zm0,-48v16h24v-16zm24,96v16h24v-16zm0,-48v16h24v-16z"></path><path palette-index="178" fill="rgb(179,189,101)" d="M360,304v16h24v-16zm24,32v16h24v-16zm0,-32v16h24v-16zm0,-16v16h24v-16zm24,48v16h24v-16zm48,32v16h24v-16zm0,-16v16h24v-16zm0,-112v16h24v-16zm24,144v16h24v-16zm0,-16v16h24v-16zm0,-128v16h24v-16zm24,144v16h24v-16zm0,-112v16h24v-16zm24,96v16h24v-16zm0,-96v16h24v-16zm24,48v16h24v-16z"></path><path palette-index="191" fill="rgb(209,187,89)" d="M384,352v16h24v-16zm0,-32v16h24v-16zm24,32v16h24v-16zm0,-48v16h24v-16zm0,-16v16h24v-16zm0,-16v16h24v-16zm0,-16v16h24v-16zm24,64v16h24v-16zm0,-64v16h24v-16zm0,-16v16h24v-16zm24,16v16h24v-16zm24,96v16h24v-16zm0,-64v16h24v-16zm24,-32v16h24v-16zm24,96v16h24v-16zm24,-16v16h24v-16z"></path><path palette-index="203" fill="rgb(226,192,75)" d="M408,320v16h24v-16zm24,16v16h24v-16zm0,-64v16h24v-16zm24,64v16h24v-16zm24,-64v16h24v-16zm0,-16v16h24v-16zm24,96v16h24v-16zm0,-32v16h24v-16zm24,16v16h24v-16z"></path><path palette-index="216" fill="rgb(244,198,59)" d="M432,352v16h24v-16zm72,-48v16h24v-16zm24,16v16h24v-16z"></path><path palette-index="229" fill="rgb(253,210,43)" d="M432,288v16h24v-16zm24,32v16h24v-16zm0,-32v16h24v-16zm0,-16v16h24v-16zm24,64v16h24v-16zm0,-16v16h24v-16zm0,-16v16h24v-16zm24,32v16h24v-16zm0,-48v16h24v-16z"></path><path palette-index="254" fill="rgb(249,249,15)" d="M432,304v16h24v-16zm24,0v16h24v-16z"></path></g></svg><g><g transform="translate(0,640)"><path d="M0,0v0m24,0v0m24,0v0m24,0v0m24,0v0m24,0v0m24,0v0m24,0v0m24,0v0m24,0v0m24,0v0m24,0v0m24,0v0m24,0v0m24,0v0m24,0v0m24,0v0m24,0v0m24,0v0m24,0v0m24,0v0m24,0v0m24,0v0m24,0v0m24,0v0m24,0v0m24,0v0m24,0v0m24,0v0m24,0v0m24,0v0m24,0v0m24,0v0m24,0v0m24,0v0m24,0v0m24,0v0m24,0v0m24,0v0m24,0v0m24,0v0" style="stroke: black; stroke-width: 1;"></path><g font-family="Arial" font-size="28" space="preserve"></g></g><g><path d="M0,640h0m0,-16h0m0,-16h0m0,-16h0m0,-16h0m0,-16h0m0,-16h0m0,-16h0m0,-16h0m0,-16h0m0,-16h0m0,-16h0m0,-16h0m0,-16h0m0,-16h0m0,-16h0m0,-16h0m0,-16h0m0,-16h0m0,-16h0m0,-16h0m0,-16h0m0,-16h0m0,-16h0m0,-16h0m0,-16h0m0,-16h0m0,-16h0m0,-16h0m0,-16h0m0,-16h0m0,-16h0m0,-16h0m0,-16h0m0,-16h0m0,-16h0m0,-16h0m0,-16h0m0,-16h0m0,-16h0m0,-16h0" style="stroke: black; stroke-width: 1;"></path><g font-family="Arial" font-size="28" space="preserve"></g></g></g></g><g objname="palette" objtype="TPaletteAxis" transform="translate(1092,80)"><path d="M0,0h54v640h-54z" style="fill: none; stroke: black; stroke-width: 1;"></path><rect x="0" y="608.0" width="54" height="32.0" style="fill: rgb(38,62,168); stroke: rgb(38,62,168);"></rect><rect x="0" y="576.0" width="54" height="32.0" style="fill: rgb(22,82,205); stroke: rgb(22,82,205);"></rect><rect x="0" y="544.0" width="54" height="32.0" style="fill: rgb(16,100,220); stroke: rgb(16,100,220);"></rect><rect x="0" y="512.0" width="54" height="32.0" style="fill: rgb(18,114,217); stroke: rgb(18,114,217);"></rect><rect x="0" y="480.0" width="54" height="32.0" style="fill: rgb(20,129,214); stroke: rgb(20,129,214);"></rect><rect x="0" y="448.0" width="54" height="32.0" style="fill: rgb(14,143,209); stroke: rgb(14,143,209);"></rect><rect x="0" y="416.0" width="54" height="32.0" style="fill: rgb(9,157,204); stroke: rgb(9,157,204);"></rect><rect x="0" y="384.0" width="54" height="32.0" style="fill: rgb(13,167,195); stroke: rgb(13,167,195);"></rect><rect x="0" y="352.0" width="54" height="32.0" style="fill: rgb(30,175,179); stroke: rgb(30,175,179);"></rect><rect x="0" y="320.0" width="54" height="32.0" style="fill: rgb(46,183,164); stroke: rgb(46,183,164);"></rect><rect x="0" y="288.0" width="54" height="32.0" style="fill: rgb(82,186,146); stroke: rgb(82,186,146);"></rect><rect x="0" y="256.0" width="54" height="32.0" style="fill: rgb(116,189,129); stroke: rgb(116,189,129);"></rect><rect x="0" y="224.0" width="54" height="32.0" style="fill: rgb(149,190,113); stroke: rgb(149,190,113);"></rect><rect x="0" y="192.0" width="54" height="32.0" style="fill: rgb(179,189,101); stroke: rgb(179,189,101);"></rect><rect x="0" y="160.0" width="54" height="32.0" style="fill: rgb(209,187,89); stroke: rgb(209,187,89);"></rect><rect x="0" y="128.0" width="54" height="32.0" style="fill: rgb(226,192,75); stroke: rgb(226,192,75);"></rect><rect x="0" y="96.0" width="54" height="32.0" style="fill: rgb(244,198,59); stroke: rgb(244,198,59);"></rect><rect x="0" y="64.0" width="54" height="32.0" style="fill: rgb(253,210,43); stroke: rgb(253,210,43);"></rect><rect x="0" y="32.0" width="54" height="32.0" style="fill: rgb(251,230,29); stroke: rgb(251,230,29);"></rect><rect x="0" y="0.0" width="54" height="32.0" style="fill: rgb(249,249,15); stroke: rgb(249,249,15);"></rect><g transform="translate(54, 0)"><path d="M0,640h-19m19,-181h-19m19,-181h-19m19,-180h-19" style="stroke: black; stroke-width: 1;"></path><g font-family="Arial" font-size="28" space="preserve"><text fill="black" x="6" y="640" style="text-anchor: start; dominant-baseline: middle;">0</text><text fill="black" x="6" y="459" style="text-anchor: start; dominant-baseline: middle;">50</text><text fill="black" x="6" y="278" style="text-anchor: start; dominant-baseline: middle;">100</text><text fill="black" x="6" y="98" style="text-anchor: start; dominant-baseline: middle;">150</text></g></g></g><g objname="stats" objtype="TPaveStats" transform="translate(936,52)" font-family="Arial" font-size="27" space="preserve"><path d="M0,0h240v192h-240z" style="fill: white; stroke: black; stroke-width: 1;"></path><text text-anchor="middle" x="0" y="0" fill="black" transform="translate(120,17)" dominant-baseline="middle" opacity="1">hpxpy</text><text text-anchor="start" x="0" y="0" fill="black" transform="translate(12,49)" dominant-baseline="middle" opacity="1">Entries </text><text text-anchor="end" x="0" y="0" fill="black" transform="translate(228,49)" dominant-baseline="middle" opacity="1"> 25000</text><text text-anchor="start" x="0" y="0" fill="black" transform="translate(12,81)" dominant-baseline="middle" opacity="1">Mean x </text><text text-anchor="end" x="0" y="0" fill="black" transform="translate(228,81)" dominant-baseline="middle" opacity="1"> -0.01431</text><text text-anchor="start" x="0" y="0" fill="black" transform="translate(12,113)" dominant-baseline="middle" opacity="1">Mean y </text><text text-anchor="end" x="0" y="0" fill="black" transform="translate(228,113)" dominant-baseline="middle" opacity="1"> -0.006923</text><text text-anchor="start" x="0" y="0" fill="black" transform="translate(12,145)" dominant-baseline="middle" opacity="1">Std Dev x </text><text text-anchor="end" x="0" y="0" fill="black" transform="translate(228,145)" dominant-baseline="middle" opacity="1"> 0.9975</text><text text-anchor="start" x="0" y="0" fill="black" transform="translate(12,177)" dominant-baseline="middle" opacity="1">Std Dev y </text><text text-anchor="end" x="0" y="0" fill="black" transform="translate(228,177)" dominant-baseline="middle" opacity="1"> 1.009</text><path d="M0,32h240" style="stroke: black; stroke-width: 1;"></path></g><g objname="title" objtype="TPaveText" transform="translate(505,4)" font-family="Arial" font-size="37" space="preserve"><path d="M0,0h189v44h-189z" style="fill: none;"></path><text text-anchor="middle" x="0" y="0" fill="black" transform="translate(95,23)" dominant-baseline="middle" opacity="1">py vs px</text></g><g objname="name" objtype="TGaxis" transform="translate(120,720)"><line x1="960" y1="0" style="stroke: black; stroke-width: 1;"></line><path d="M960,-29v29m-24,-15v15m-24,-15v15m-24,-15v15m-24,-15v15m-24,-29v29m-24,-15v15m-24,-15v15m-24,-15v15m-24,-15v15m-24,-29v29m-24,-15v15m-24,-15v15m-24,-15v15m-24,-15v15m-24,-29v29m-24,-15v15m-24,-15v15m-24,-15v15m-24,-15v15m-24,-29v29m-24,-15v15m-24,-15v15m-24,-15v15m-24,-15v15m-24,-29v29m-24,-15v15m-24,-15v15m-24,-15v15m-24,-15v15m-24,-29v29m-24,-15v15m-24,-15v15m-24,-15v15m-24,-15v15m-24,-29v29m-24,-15v15m-24,-15v15m-24,-15v15m-24,-15v15m-24,-29v29" style="stroke: black; stroke-width: 1;"></path><g font-family="Arial" font-size="32" space="preserve" font-weight="bold"><text fill="black" x="960" y="-24" dy=".7em" style="text-anchor: middle;">-4</text><text fill="black" x="840" y="-24" dy=".7em" style="text-anchor: middle;">-3</text><text fill="black" x="720" y="-24" dy=".7em" style="text-anchor: middle;">-2</text><text fill="black" x="600" y="-24" dy=".7em" style="text-anchor: middle;">-1</text><text fill="black" x="480" y="-24" dy=".7em" style="text-anchor: middle;">0</text><text fill="black" x="360" y="-24" dy=".7em" style="text-anchor: middle;">1</text><text fill="black" x="240" y="-24" dy=".7em" style="text-anchor: middle;">2</text><text fill="black" x="120" y="-24" dy=".7em" style="text-anchor: middle;">3</text><text fill="black" x="0" y="-24" dy=".7em" style="text-anchor: middle;">4</text></g></g><g objname="name" objtype="TGaxis" transform="translate(120,80)"><line x1="0" y1="640" style="stroke: black; stroke-width: 1;"></line><path d="M19,0h-19m10,16h-10m10,16h-10m10,16h-10m10,16h-10m19,16h-19m10,16h-10m10,16h-10m10,16h-10m10,16h-10m19,16h-19m10,16h-10m10,16h-10m10,16h-10m10,16h-10m19,16h-19m10,16h-10m10,16h-10m10,16h-10m10,16h-10m19,16h-19m10,16h-10m10,16h-10m10,16h-10m10,16h-10m19,16h-19m10,16h-10m10,16h-10m10,16h-10m10,16h-10m19,16h-19m10,16h-10m10,16h-10m10,16h-10m10,16h-10m19,16h-19m10,16h-10m10,16h-10m10,16h-10m10,16h-10m19,16h-19" style="stroke: black; stroke-width: 1;"></path><g font-family="Arial" font-size="32" space="preserve" font-weight="bold"><text fill="black" x="16" y="0" style="text-anchor: end; dominant-baseline: middle;">-4</text><text fill="black" x="16" y="80" style="text-anchor: end; dominant-baseline: middle;">-3</text><text fill="black" x="16" y="160" style="text-anchor: end; dominant-baseline: middle;">-2</text><text fill="black" x="16" y="240" style="text-anchor: end; dominant-baseline: middle;">-1</text><text fill="black" x="16" y="320" style="text-anchor: end; dominant-baseline: middle;">0</text><text fill="black" x="16" y="400" style="text-anchor: end; dominant-baseline: middle;">1</text><text fill="black" x="16" y="480" style="text-anchor: end; dominant-baseline: middle;">2</text><text fill="black" x="16" y="560" style="text-anchor: end; dominant-baseline: middle;">3</text><text fill="black" x="16" y="640" style="text-anchor: end; dominant-baseline: middle;">4</text></g></g></g></svg>