<svg xmlns="http://www.w3.org/2000/svg" viewBox="0 0 598 574" preserveAspectRatio="none" width="598" height="574">
 <path d="M0,0H598V574H0Z" style="fill: white;"></path>
 <g>
  <g transform="translate(90,57)">
   <path d="M0,0H448V430H0Z" style="fill: white; stroke: black; stroke-width: 1;"></path>
   <svg x="0" y="0" overflow="hidden" width="448" height="430" viewBox="0 0 448 430">
    <g>
     <g font-family="Arial" font-size="14" space="preserve" fill="black" text-anchor="middle">
      <text dy=".4em" transform="translate(11,413)">
       79
      </text>
      <text dy=".4em" transform="translate(11,377)">
       57
      </text>
      <text dy=".4em" transform="translate(11,341)">
       74
      </text>
      <text dy=".4em" transform="translate(11,305)">
       69
      </text>
      <text dy=".4em" transform="translate(11,269)">
       60
      </text>
      <text dy=".4em" transform="translate(11,234)">
       60
      </text>
      <text dy=".4em" transform="translate(11,198)">
       65
      </text>
      <text dy=".4em" transform="translate(11,162)">
       53
      </text>
      <text dy=".4em" transform="translate(11,126)">
       69
      </text>
      <text dy=".4em" transform="translate(11,90)">
       62
      </text>
      <text dy=".4em" transform="translate(11,54)">
       57
      </text>
      <text dy=".4em" transform="translate(11,19)">
       56
      </text>
      <text dy=".4em" transform="translate(34,413)">
       59
      </text>
      <text dy=".4em" transform="translate(34,377)">
       71
      </text>
      <text dy=".4em" transform="translate(34,341)">
       52
      </text>
      <text dy=".4em" transform="translate(34,305)">
       63
      </text>
      <text dy=".4em" transform="translate(34,269)">
       64
      </text>
      <text dy=".4em" transform="translate(34,234)">
       61
      </text>
      <text dy=".4em" transform="translate(34,198)">
       65
      </text>
      <text dy=".4em" transform="translate(34,162)">
       54
      </text>
      <text dy=".4em" transform="translate(34,126)">
       60
      </text>
      <text dy=".4em" transform="translate(34,90)">
       73
      </text>
      <text dy=".4em" transform="translate(34,54)">
       71
      </text>
      <text dy=".4em" transform="translate(34,19)">
       65
      </text>
      <text dy=".4em" transform="translate(56,413)">
       64
      </text>
      <text dy=".4em" transform="translate(56,377)">
       53
      </text>
      <text dy=".4em" transform="translate(56,341)">
       63
      </text>
      <text dy=".4em" transform="translate(56,305)">
       58
      </text>
      <text dy=".4em" transform="translate(56,269)">
       70
      </text>
      <text dy=".4em" transform="translate(56,234)">
       74
      </text>
      <text dy=".4em" transform="translate(56,198)">
       71
      </text>
      <text dy=".4em" transform="translate(56,162)">
       64
      </text>
      <text dy=".4em" transform="translate(56,126)">
       74
      </text>
      <text dy=".4em" transform="translate(56,90)">
       62
      </text>
      <text dy=".4em" transform="translate(56,54)">
       49
      </text>
      <text dy=".4em" transform="translate(56,19)">
       64
      </text>
      <text dy=".4em" transform="translate(78,413)">
       65
      </text>
      <text dy=".4em" transform="translate(78,377)">
       52
      </text>
      <text dy=".4em" transform="translate(78,341)">
       58
      </text>
      <text dy=".4em" transform="translate(78,305)">
       57
      </text>
      <text dy=".4em" transform="translate(78,269)">
       71
      </text>
      <text dy=".4em" transform="translate(78,234)">
       67
      </text>
      <text dy=".4em" transform="translate(78,198)">
       70
      </text>
      <text dy=".4em" transform="translate(78,162)">
       75
      </text>
      <text dy=".4em" transform="translate(78,126)">
       57
      </text>
      <text dy=".4em" transform="translate(78,90)">
       54
      </text>
      <text dy=".4em" transform="translate(78,54)">
       59
      </text>
      <text dy=".4em" transform="translate(78,19)">
       46
      </text>
      <text dy=".4em" transform="translate(101,413)">
       64
      </text>
      <text dy=".4em" transform="translate(101,377)">
       72
      </text>
      <text dy=".4em" transform="translate(101,341)">
       61
      </text>
      <text dy=".4em" transform="translate(101,305)">
       65
      </text>
      <text dy=".4em" transform="translate(101,269)">
       60
      </text>
      <text dy=".4em" transform="translate(101,234)">
       62
      </text>
      <text dy=".4em" transform="translate(101,198)">
       71
      </text>
      <text dy=".4em" transform="translate(101,162)">
       50
      </text>
      <text dy=".4em" transform="translate(101,126)">
       60
      </text>
      <text dy=".4em" transform="translate(101,90)">
       61
      </text>
      <text dy=".4em" transform="translate(101,54)">
       55
      </text>
      <text dy=".4em" transform="translate(101,19)">
       53
      </text>
      <text dy=".4em" transform="translate(123,413)">
       67
      </text>
      <text dy=".4em" transform="translate(123,377)">
       56
      </text>
      <text dy=".4em" transform="translate(123,341)">
       68
      </text>
      <text dy=".4em" transform="translate(123,305)">
       66
      </text>
      <text dy=".4em" transform="translate(123,269)">
       60
      </text>
      <text dy=".4em" transform="translate(123,234)">
       60
      </text>
      <text dy=".4em" transform="translate(123,198)">
       57
      </text>
      <text dy=".4em" transform="translate(123,162)">
       54
      </text>
      <text dy=".4em" transform="translate(123,126)">
       69
      </text>
      <text dy=".4em" transform="translate(123,90)">
       63
      </text>
      <text dy=".4em" transform="translate(123,54)">
       62
      </text>
      <text dy=".4em" transform="translate(123,19)">
       54
      </text>
      <text dy=".4em" transform="translate(146,413)">
       65
      </text>
      <text dy=".4em" transform="translate(146,377)">
       61
      </text>
      <text dy=".4em" transform="translate(146,341)">
       58
      </text>
      <text dy=".4em" transform="translate(146,305)">
       84
      </text>
      <text dy=".4em" transform="translate(146,269)">
       62
      </text>
      <text dy=".4em" transform="translate(146,234)">
       55
      </text>
      <text dy=".4em" transform="translate(146,198)">
       58
      </text>
      <text dy=".4em" transform="translate(146,162)">
       78
      </text>
      <text dy=".4em" transform="translate(146,126)">
       59
      </text>
      <text dy=".4em" transform="translate(146,90)">
       53
      </text>
      <text dy=".4em" transform="translate(146,54)">
       56
      </text>
      <text dy=".4em" transform="translate(146,19)">
       48
      </text>
      <text dy=".4em" transform="translate(168,413)">
       47
      </text>
      <text dy=".4em" transform="translate(168,377)">
       78
      </text>
      <text dy=".4em" transform="translate(168,341)">
       64
      </text>
      <text dy=".4em" transform="translate(168,305)">
       63
      </text>
      <text dy=".4em" transform="translate(168,269)">
       67
      </text>
      <text dy=".4em" transform="translate(168,234)">
       68
      </text>
      <text dy=".4em" transform="translate(168,198)">
       67
      </text>
      <text dy=".4em" transform="translate(168,162)">
       62
      </text>
      <text dy=".4em" transform="translate(168,126)">
       60
      </text>
      <text dy=".4em" transform="translate(168,90)">
       63
      </text>
      <text dy=".4em" transform="translate(168,54)">
       67
      </text>
      <text dy=".4em" transform="translate(168,19)">
       63
      </text>
      <text dy=".4em" transform="translate(190,413)">
       73
      </text>
      <text dy=".4em" transform="translate(190,377)">
       76
      </text>
      <text dy=".4em" transform="translate(190,341)">
       61
      </text>
      <text dy=".4em" transform="translate(190,305)">
       66
      </text>
      <text dy=".4em" transform="translate(190,269)">
       53
      </text>
      <text dy=".4em" transform="translate(190,234)">
       58
      </text>
      <text dy=".4em" transform="translate(190,198)">
       59
      </text>
      <text dy=".4em" transform="translate(190,162)">
       71
      </text>
      <text dy=".4em" transform="translate(190,126)">
       64
      </text>
      <text dy=".4em" transform="translate(190,90)">
       72
      </text>
      <text dy=".4em" transform="translate(190,54)">
       71
      </text>
      <text dy=".4em" transform="translate(190,19)">
       64
      </text>
      <text dy=".4em" transform="translate(213,413)">
       65
      </text>
      <text dy=".4em" transform="translate(213,377)">
       64
      </text>
      <text dy=".4em" transform="translate(213,341)">
       64
      </text>
      <text dy=".4em" transform="translate(213,305)">
       50
      </text>
      <text dy=".4em" transform="translate(213,269)">
       63
      </text>
      <text dy=".4em" transform="translate(213,234)">
       63
      </text>
      <text dy=".4em" transform="translate(213,198)">
       57
      </text>
      <text dy=".4em" transform="translate(213,162)">
       54
      </text>
      <text dy=".4em" transform="translate(213,126)">
       57
      </text>
      <text dy=".4em" transform="translate(213,90)">
       55
      </text>
      <text dy=".4em" transform="translate(213,54)">
       72
      </text>
      <text dy=".4em" transform="translate(213,19)">
       68
      </text>
      <text dy=".4em" transform="translate(235,413)">
       60
      </text>
      <text dy=".4em" transform="translate(235,377)">
       56
      </text>
      <text dy=".4em" transform="translate(235,341)">
       70
      </text>
      <text dy=".4em" transform="translate(235,305)">
       63
      </text>
      <text dy=".4em" transform="translate(235,269)">
       66
      </text>
      <text dy=".4em" transform="translate(235,234)">
       65
      </text>
      <text dy=".4em" transform="translate(235,198)">
       50
      </text>
      <text dy=".4em" transform="translate(235,162)">
       53
      </text>
      <text dy=".4em" transform="translate(235,126)">
       53
      </text>
      <text dy=".4em" transform="translate(235,90)">
       65
      </text>
      <text dy=".4em" transform="translate(235,54)">
       66
      </text>
      <text dy=".4em" transform="translate(235,19)">
       64
      </text>
      <text dy=".4em" transform="translate(258,413)">
       74
      </text>
      <text dy=".4em" transform="translate(258,377)">
       59
      </text>
      <text dy=".4em" transform="translate(258,341)">
       61
      </text>
      <text dy=".4em" transform="translate(258,305)">
       65
      </text>
      <text dy=".4em" transform="translate(258,269)">
       69
      </text>
      <text dy=".4em" transform="translate(258,234)">
       65
      </text>
      <text dy=".4em" transform="translate(258,198)">
       69
      </text>
      <text dy=".4em" transform="translate(258,162)">
       60
      </text>
      <text dy=".4em" transform="translate(258,126)">
       60
      </text>
      <text dy=".4em" transform="translate(258,90)">
       57
      </text>
      <text dy=".4em" transform="translate(258,54)">
       64
      </text>
      <text dy=".4em" transform="translate(258,19)">
       61
      </text>
      <text dy=".4em" transform="translate(280,413)">
       83
      </text>
      <text dy=".4em" transform="translate(280,377)">
       60
      </text>
      <text dy=".4em" transform="translate(280,341)">
       58
      </text>
      <text dy=".4em" transform="translate(280,305)">
       63
      </text>
      <text dy=".4em" transform="translate(280,269)">
       58
      </text>
      <text dy=".4em" transform="translate(280,234)">
       75
      </text>
      <text dy=".4em" transform="translate(280,198)">
       60
      </text>
      <text dy=".4em" transform="translate(280,162)">
       68
      </text>
      <text dy=".4em" transform="translate(280,126)">
       63
      </text>
      <text dy=".4em" transform="translate(280,90)">
       62
      </text>
      <text dy=".4em" transform="translate(280,54)">
       73
      </text>
      <text dy=".4em" transform="translate(280,19)">
       52
      </text>
      <text dy=".4em" transform="translate(302,413)">
       54
      </text>
      <text dy=".4em" transform="translate(302,377)">
       74
      </text>
      <text dy=".4em" transform="translate(302,341)">
       53
      </text>
      <text dy=".4em" transform="translate(302,305)">
       53
      </text>
      <text dy=".4em" transform="translate(302,269)">
       55
      </text>
      <text dy=".4em" transform="translate(302,234)">
       58
      </text>
      <text dy=".4em" transform="translate(302,198)">
       74
      </text>
      <text dy=".4em" transform="translate(302,162)">
       73
      </text>
      <text dy=".4em" transform="translate(302,126)">
       65
      </text>
      <text dy=".4em" transform="translate(302,90)">
       60
      </text>
      <text dy=".4em" transform="translate(302,54)">
       55
      </text>
      <text dy=".4em" transform="translate(302,19)">
       58
      </text>
      <text dy=".4em" transform="translate(325,413)">
       57
      </text>
      <text dy=".4em" transform="translate(325,377)">
       59
      </text>
      <text dy=".4em" transform="translate(325,341)">
       69
      </text>
      <text dy=".4em" transform="translate(325,305)">
       63
      </text>
      <text dy=".4em" transform="translate(325,269)">
       76
      </text>
      <text dy=".4em" transform="translate(325,234)">
       59
      </text>
      <text dy=".4em" transform="translate(325,198)">
       66
      </text>
      <text dy=".4em" transform="translate(325,162)">
       62
      </text>
      <text dy=".4em" transform="translate(325,126)">
       73
      </text>
      <text dy=".4em" transform="translate(325,90)">
       56
      </text>
      <text dy=".4em" transform="translate(325,54)">
       65
      </text>
      <text dy=".4em" transform="translate(325,19)">
       67
      </text>
      <text dy=".4em" transform="translate(347,413)">
       54
      </text>
      <text dy=".4em" transform="translate(347,377)">
       65
      </text>
      <text dy=".4em" transform="translate(347,341)">
       55
      </text>
      <text dy=".4em" transform="translate(347,305)">
       60
      </text>
      <text dy=".4em" transform="translate(347,269)">
       72
      </text>
      <text dy=".4em" transform="translate(347,234)">
       60
      </text>
      <text dy=".4em" transform="translate(347,198)">
       58
      </text>
      <text dy=".4em" transform="translate(347,162)">
       55
      </text>
      <text dy=".4em" transform="translate(347,126)">
       68
      </text>
      <text dy=".4em" transform="translate(347,90)">
       56
      </text>
      <text dy=".4em" transform="translate(347,54)">
       60
      </text>
      <text dy=".4em" transform="translate(347,19)">
       58
      </text>
      <text dy=".4em" transform="translate(370,413)">
       70
      </text>
      <text dy=".4em" transform="translate(370,377)">
       66
      </text>
      <text dy=".4em" transform="translate(370,341)">
       64
      </text>
      <text dy=".4em" transform="translate(370,305)">
       57
      </text>
      <text dy=".4em" transform="translate(370,269)">
       48
      </text>
      <text dy=".4em" transform="translate(370,234)">
       63
      </text>
      <text dy=".4em" transform="translate(370,198)">
       78
      </text>
      <text dy=".4em" transform="translate(370,162)">
       64
      </text>
      <text dy=".4em" transform="translate(370,126)">
       53
      </text>
      <text dy=".4em" transform="translate(370,90)">
       74
      </text>
      <text dy=".4em" transform="translate(370,54)">
       71
      </text>
      <text dy=".4em" transform="translate(370,19)">
       61
      </text>
      <text dy=".4em" transform="translate(392,413)">
       66
      </text>
      <text dy=".4em" transform="translate(392,377)">
       48
      </text>
      <text dy=".4em" transform="translate(392,341)">
       72
      </text>
      <text dy=".4em" transform="translate(392,305)">
       71
      </text>
      <text dy=".4em" transform="translate(392,269)">
       61
      </text>
      <text dy=".4em" transform="translate(392,234)">
       61
      </text>
      <text dy=".4em" transform="translate(392,198)">
       63
      </text>
      <text dy=".4em" transform="translate(392,162)">
       62
      </text>
      <text dy=".4em" transform="translate(392,126)">
       71
      </text>
      <text dy=".4em" transform="translate(392,90)">
       61
      </text>
      <text dy=".4em" transform="translate(392,54)">
       65
      </text>
      <text dy=".4em" transform="translate(392,19)">
       55
      </text>
      <text dy=".4em" transform="translate(414,413)">
       70
      </text>
      <text dy=".4em" transform="translate(414,377)">
       75
      </text>
      <text dy=".4em" transform="translate(414,341)">
       65
      </text>
      <text dy=".4em" transform="translate(414,305)">
       71
      </text>
      <text dy=".4em" transform="translate(414,269)">
       50
      </text>
      <text dy=".4em" transform="translate(414,234)">
       61
      </text>
      <text dy=".4em" transform="translate(414,198)">
       61
      </text>
      <text dy=".4em" transform="translate(414,162)">
       62
      </text>
      <text dy=".4em" transform="translate(414,126)">
       67
      </text>
      <text dy=".4em" transform="translate(414,90)">
       62
      </text>
      <text dy=".4em" transform="translate(414,54)">
       59
      </text>
      <text dy=".4em" transform="translate(414,19)">
       52
      </text>
      <text dy=".4em" transform="translate(437,413)">
       59
      </text>
      <text dy=".4em" transform="translate(437,377)">
       61
      </text>
      <text dy=".4em" transform="translate(437,341)">
       69
      </text>
      <text dy=".4em" transform="translate(437,305)">
       66
      </text>
      <text dy=".4em" transform="translate(437,269)">
       65
      </text>
      <text dy=".4em" transform="translate(437,234)">
       65
      </text>
      <text dy=".4em" transform="translate(437,198)">
       61
      </text>
      <text dy=".4em" transform="translate(437,162)">
       52
      </text>
      <text dy=".4em" transform="translate(437,126)">
       53
      </text>
      <text dy=".4em" transform="translate(437,90)">
       54
      </text>
      <text dy=".4em" transform="translate(437,54)">
       44
      </text>
      <text dy=".4em" transform="translate(437,19)">
       64
      </text>
     </g>
    </g>
   </svg>
   <g>
    <g transform="translate(0,430)">
     <path d="M0,0h448M0,-17V0M22,-17V0M45,-17V0M67,-17V0M90,-17V0M112,-17V0M134,-17V0M157,-17V0M179,-17V0M202,-17V0M224,-17V0M246,-17V0M269,-17V0M291,-17V0M314,-17V0M336,-17V0M358,-17V0M381,-17V0M403,-17V0M426,-17V0M448,-9V0" style="stroke: black; stroke-width: 1;"></path>
     <g font-family="Arial" font-size="13" space="preserve" fill="black" text-anchor="end">
      <text dy=".4em" transform="translate(11,3) rotate(270)">
       Jeff
      </text>
      <text dy=".4em" transform="translate(34,3) rotate(270)">
       Eddy
      </text>
      <text dy=".4em" transform="translate(56,3) rotate(270)">
       Peter
      </text>
      <text dy=".4em" transform="translate(79,3) rotate(270)">
       Nicolas
      </text>
      <text dy=".4em" transform="translate(101,3) rotate(270)">
       Philippe
      </text>
      <text dy=".4em" transform="translate(123,3) rotate(270)">
       Otto
      </text>
      <text dy=".4em" transform="translate(146,3) rotate(270)">
       Anton
      </text>
      <text dy=".4em" transform="translate(168,3) rotate(270)">
       Pasha
      </text>
      <text dy=".4em" transform="translate(191,3) rotate(270)">
       Greg
      </text>
      <text dy=".4em" transform="translate(213,3) rotate(270)">
       Valery
      </text>
      <text dy=".4em" transform="translate(235,3) rotate(270)">
       Odile
      </text>
      <text dy=".4em" transform="translate(258,3) rotate(270)">
       Suzanne
      </text>
      <text dy=".4em" transform="translate(280,3) rotate(270)">
       Xavier
      </text>
      <text dy=".4em" transform="translate(303,3) rotate(270)">
       Sebastien
      </text>
      <text dy=".4em" transform="translate(325,3) rotate(270)">
       Rene
      </text>
      <text dy=".4em" transform="translate(347,3) rotate(270)">
       Pierre
      </text>
      <text dy=".4em" transform="translate(370,3) rotate(270)">
       Bjarne
      </text>
      <text dy=".4em" transform="translate(392,3) rotate(270)">
       Jean
      </text>
      <text dy=".4em" transform="translate(415,3) rotate(270)">
       Marie
      </text>
      <text dy=".4em" transform="translate(437,3) rotate(270)">
       Fons
      </text>
     </g>
    </g>
    <g>
     <path d="M0,0v430M18,430H0M18,394H0M18,358H0M18,323H0M18,287H0M18,251H0M18,215H0M18,179H0M18,143H0M18,108H0M18,72H0M18,36H0M9,0H0" style="stroke: black; stroke-width: 1;"></path>
     <g font-family="Arial" font-size="13" space="preserve" fill="black" text-anchor="end">
      <text dy=".4em" transform="translate(-3,412)">
       October
      </text>
      <text dy=".4em" transform="translate(-3,376)">
       June
      </text>
      <text dy=".4em" transform="translate(-3,341)">
       December
      </text>
      <text dy=".4em" transform="translate(-3,305)">
       January
      </text>
      <text dy=".4em" transform="translate(-3,269)">
       September
      </text>
      <text dy=".4em" transform="translate(-3,233)">
       May
      </text>
      <text dy=".4em" transform="translate(-3,197)">
       February
      </text>
      <text dy=".4em" transform="translate(-3,161)">
       March
      </text>
      <text dy=".4em" transform="translate(-3,126)">
       November
      </text>
      <text dy=".4em" transform="translate(-3,90)">
       August
      </text>
      <text dy=".4em" transform="translate(-3,54)">
       April
      </text>
      <text dy=".4em" transform="translate(-3,18)">
       July
      </text>
     </g>
    </g>
    <path d="M0,0v430M22,0v430M45,0v430M67,0v430M90,0v430M112,0v430M134,0v430M157,0v430M179,0v430M202,0v430M224,0v430M246,0v430M269,0v430M291,0v430M314,0v430M336,0v430M358,0v430M381,0v430M403,0v430M426,0v430M448,0v430" style="stroke: black; stroke-width: 1; stroke-dasharray: 1,2;"></path>
    <path d="M0,430h448M0,394h448M0,358h448M0,323h448M0,287h448M0,251h448M0,215h448M0,179h448M0,143h448M0,108h448M0,72h448M0,36h448M0,0h448" style="stroke: black; stroke-width: 1; stroke-dasharray: 1,2;"></path>
   </g>
  </g>
  <g transform="translate(75,3)" font-family="Arial" font-size="29" space="preserve">
   <text fill="black" text-anchor="middle" dy=".8em" transform="translate(224)">
    test
   </text>
  </g>
  <g transform="translate(359,11)" font-family="Arial" font-size="9" space="preserve" font-weight="bold" fill="black" text-anchor="start">
   <path d="M4,4v75h227v-75z" style="fill: black; stroke: black; stroke-width: 1px;"></path>
   <path d="M0,0H227V75H0Z" style="fill: #e6e6e6; stroke: black; stroke-width: 1;"></path>
   <text dy=".4em" transform="translate(11,9)">
    Use the axis Context Menu LabelsOption
   </text>
   <text dy=".4em" transform="translate(11,28)">
    "a"   to sort by alphabetic order
   </text>
   <text dy=".4em" transform="translate(11,47)">
    "&gt;"   to sort by decreasing values
   </text>
   <text dy=".4em" transform="translate(11,66)">
    "&lt;"   to sort by increasing values
   </text>
  </g>
 </g>
</svg>