<svg viewBox="0 0 1200 800" preserveAspectRatio="none" xmlns="http://www.w3.org/2000/svg" width="1200" height="800"><title>ROOT canvas</title><rect x="0" y="0" width="1200" height="800" style="fill: none;"></rect><g><g transform="translate(120,80)"><title></title><rect x="0" y="0" width="960" height="640" style="fill: white; stroke: black; stroke-width: 1;"></rect><svg x="0" y="0" overflow="hidden" width="960" height="640" viewBox="0 0 960 640"><g objname="CorrelationMatrixSignal" objtype="TH2F"><path palette-index="127" fill="rgb(46,183,164)" d="M240,160v160h240v-160zM480,320v160h240v-160z"></path><path palette-index="140" fill="rgb(82,186,146)" d="M0,320v160h240v-160zM240,480v160h240v-160zM240,0v160h240v-160zM720,320v160h240v-160z"></path><path palette-index="229" fill="rgb(253,210,43)" d="M0,160v160h240v-160zM480,480v160h240v-160z"></path><path palette-index="242" fill="rgb(251,230,29)" d="M480,0v160h240v-160zM720,160v160h240v-160z"></path><path palette-index="254" fill="rgb(249,249,15)" d="M0,480v160h240v-160zM0,0v160h240v-160zM240,320v160h240v-160zM480,160v160h240v-160zM720,480v160h240v-160zM720,0v160h240v-160z"></path></g></svg><g><g transform="translate(0,640)"><path d="M0,-24v24m240,-24v24m240,-24v24m240,-24v24m240,-12v12" style="stroke: black; stroke-width: 1;"></path><g font-family="Arial" font-size="34" space="preserve"><text text-anchor="middle" x="0" y="0" fill="black" transform="translate(120,11)" dy=".8em">myvar1</text><text text-anchor="middle" x="0" y="0" fill="black" transform="translate(360,11)" dy=".8em">Expression 2</text><text text-anchor="middle" x="0" y="0" fill="black" transform="translate(600,11)" dy=".8em">Variable 3</text><text text-anchor="middle" x="0" y="0" fill="black" transform="translate(840,11)" dy=".8em">Variable 4</text></g></g><g><path d="M36,640h-36m36,-160h-36m36,-160h-36m36,-160h-36m18,-160h-18" style="stroke: black; stroke-width: 1;"></path><g font-family="Arial" font-size="44" space="preserve"><text text-anchor="end" x="0" y="0" fill="black" transform="translate(-4,560)" dominant-baseline="middle">Expression 2</text><text text-anchor="end" x="0" y="0" fill="black" transform="translate(-4,400)" dominant-baseline="middle">Variable 3</text><text text-anchor="end" x="0" y="0" fill="black" transform="translate(-4,240)" dominant-baseline="middle">Variable 4</text></g></g></g></g><g objname="TPave" objtype="TPaletteAxis" transform="translate(1092,80)"><path d="M0,0h48v640h-48z" style="fill: none; stroke: black; stroke-width: 1;"></path><rect x="0" y="608.0" width="48" height="32.0" style="fill: rgb(38,62,168); stroke: rgb(38,62,168);"></rect><rect x="0" y="576.0" width="48" height="32.0" style="fill: rgb(22,82,205); stroke: rgb(22,82,205);"></rect><rect x="0" y="544.0" width="48" height="32.0" style="fill: rgb(16,100,220); stroke: rgb(16,100,220);"></rect><rect x="0" y="512.0" width="48" height="32.0" style="fill: rgb(18,114,217); stroke: rgb(18,114,217);"></rect><rect x="0" y="480.0" width="48" height="32.0" style="fill: rgb(20,129,214); stroke: rgb(20,129,214);"></rect><rect x="0" y="448.0" width="48" height="32.0" style="fill: rgb(14,143,209); stroke: rgb(14,143,209);"></rect><rect x="0" y="416.0" width="48" height="32.0" style="fill: rgb(9,157,204); stroke: rgb(9,157,204);"></rect><rect x="0" y="384.0" width="48" height="32.0" style="fill: rgb(13,167,195); stroke: rgb(13,167,195);"></rect><rect x="0" y="352.0" width="48" height="32.0" style="fill: rgb(30,175,179); stroke: rgb(30,175,179);"></rect><rect x="0" y="320.0" width="48" height="32.0" style="fill: rgb(46,183,164); stroke: rgb(46,183,164);"></rect><rect x="0" y="288.0" width="48" height="32.0" style="fill: rgb(82,186,146); stroke: rgb(82,186,146);"></rect><rect x="0" y="256.0" width="48" height="32.0" style="fill: rgb(116,189,129); stroke: rgb(116,189,129);"></rect><rect x="0" y="224.0" width="48" height="32.0" style="fill: rgb(149,190,113); stroke: rgb(149,190,113);"></rect><rect x="0" y="192.0" width="48" height="32.0" style="fill: rgb(179,189,101); stroke: rgb(179,189,101);"></rect><rect x="0" y="160.0" width="48" height="32.0" style="fill: rgb(209,187,89); stroke: rgb(209,187,89);"></rect><rect x="0" y="128.0" width="48" height="32.0" style="fill: rgb(226,192,75); stroke: rgb(226,192,75);"></rect><rect x="0" y="96.0" width="48" height="32.0" style="fill: rgb(244,198,59); stroke: rgb(244,198,59);"></rect><rect x="0" y="64.0" width="48" height="32.0" style="fill: rgb(253,210,43); stroke: rgb(253,210,43);"></rect><rect x="0" y="32.0" width="48" height="32.0" style="fill: rgb(251,230,29); stroke: rgb(251,230,29);"></rect><rect x="0" y="0.0" width="48" height="32.0" style="fill: rgb(249,249,15); stroke: rgb(249,249,15);"></rect><g transform="translate(48, 0)"><path d="M0,640h-33m33,-64h-33m33,-64h-33m33,-64h-33m33,-64h-33m33,-64h-33m33,-64h-33m33,-64h-33m33,-64h-33m33,-64h-33m33,-64h-33" style="stroke: black; stroke-width: 1;"></path><g font-family="Arial" font-size="28" space="preserve"><text text-anchor="start" x="0" y="0" fill="black" transform="translate(4,640)" dominant-baseline="middle">-100</text><text text-anchor="start" x="0" y="0" fill="black" transform="translate(4,576)" dominant-baseline="middle">-80</text><text text-anchor="start" x="0" y="0" fill="black" transform="translate(4,512)" dominant-baseline="middle">-60</text><text text-anchor="start" x="0" y="0" fill="black" transform="translate(4,448)" dominant-baseline="middle">-40</text><text text-anchor="start" x="0" y="0" fill="black" transform="translate(4,384)" dominant-baseline="middle">-20</text><text text-anchor="start" x="0" y="0" fill="black" transform="translate(4,320)" dominant-baseline="middle">0</text><text text-anchor="start" x="0" y="0" fill="black" transform="translate(4,256)" dominant-baseline="middle">20</text><text text-anchor="start" x="0" y="0" fill="black" transform="translate(4,192)" dominant-baseline="middle">40</text><text text-anchor="start" x="0" y="0" fill="black" transform="translate(4,128)" dominant-baseline="middle">60</text><text text-anchor="start" x="0" y="0" fill="black" transform="translate(4,64)" dominant-baseline="middle">80</text><text text-anchor="start" x="0" y="0" fill="black" transform="translate(4,0)" dominant-baseline="middle">100</text></g></g></g><g objname="title" objtype="TPaveText" transform="translate(336,8)" font-family="Arial" font-size="33" space="preserve"><path d="M0,0h528v40h-528z" style="fill: none;"></path><text text-anchor="middle" x="0" y="0" fill="black" transform="translate(264,21)" dominant-baseline="middle" opacity="1">Correlation Matrix (Signal)</text></g></g></svg>