<svg xmlns="http://www.w3.org/2000/svg" width="496" height="572" viewBox="0 0 496 572" preserveAspectRatio="none">
 <path d="M0,0H496V572H0Z" style="fill: white;"></path>
 <g>
  <g font-family="Arial" font-size="18" xml:space="preserve" font-weight="bold"><g transform="translate(50,122)"><text fill="black">1)   C(x) = d</text><g transform="translate(105)"><path d="M0,-6h4l4,17l4,-40h37v4" style="stroke: black; stroke-width: 2; fill: none;"></path><g transform="translate(18)"><text fill="black" transform="translate(9,-11)">2</text><path d="M0,-6h26" style="stroke: black; stroke-width: 2; fill: none;"></path><text fill="black" transform="translate(0,11)">λ D</text></g></g><g transform="translate(173)"><path d="M0,5a3,3,0,0,0,6,0v-25a3,3,0,1,1,6,0" style="stroke: black; stroke-width: 2; fill: none;"></path><text fill="black" font-size="11" transform="translate(0,18)">0</text><text fill="black" font-size="11" transform="translate(6,-26)">x</text></g><text fill="black" x="191">cos(</text><g transform="translate(227)"><text fill="black" transform="translate(0,-11)">π</text><path d="M0,-6h10" style="stroke: black; stroke-width: 2; fill: none;"></path><text fill="black" transform="translate(1,11)">2</text></g><text fill="black" x="239">t</text><text fill="black" font-size="11" transform="translate(246,-9)">2</text><text fill="black" x="252">)dt</text></g></g>
  <g font-family="Arial" font-size="18" xml:space="preserve" font-weight="bold"><g transform="translate(50,240)"><text fill="black">2)   C(x) = d</text><g transform="translate(105)"><path d="M0,-6h4l4,17l4,-40h37v4" style="stroke: black; stroke-width: 2; fill: none;"></path><g transform="translate(18)"><text fill="black" transform="translate(9,-11)">2</text><path d="M0,-6h26" style="stroke: black; stroke-width: 2; fill: none;"></path><text fill="black" transform="translate(0,11)">λ D</text></g></g><g transform="translate(173)"><path d="M0,5a3,3,0,0,0,6,0v-25a3,3,0,1,1,6,0" style="stroke: black; stroke-width: 2; fill: none;"></path><text fill="black" font-size="11" transform="translate(6,-26)">x</text></g><text fill="black" x="191">cos(</text><g transform="translate(227)"><text fill="black" transform="translate(0,-11)">π</text><path d="M0,-6h10" style="stroke: black; stroke-width: 2; fill: none;"></path><text fill="black" transform="translate(1,11)">2</text></g><text fill="black" x="239">t</text><text fill="black" font-size="11" transform="translate(246,-9)">2</text><text fill="black" x="252">)dt</text></g></g>
  <g font-family="Arial" font-size="18" xml:space="preserve" font-weight="bold"><g transform="translate(50,351)"><text fill="black">3)   R = |A|</text><text fill="black" font-size="11" transform="translate(88,-9)">2</text><text fill="black" x="101">=</text><g transform="translate(119)"><text fill="black" transform="translate(0,-11)">1</text><path d="M0,-6h8" style="stroke: black; stroke-width: 2; fill: none;"></path><text fill="black" transform="translate(0,11)">2</text></g><text fill="black" x="129">(</text><g transform="translate(135)"><path d="M8,-28h-4v44h4" style="stroke: black; stroke-width: 2; fill: none;"></path><g transform="translate(8)"><g><text fill="black" transform="translate(0,-11)">1</text><path d="M0,-6h8" style="stroke: black; stroke-width: 2; fill: none;"></path><text fill="black" transform="translate(0,11)">2</text></g><text fill="black" x="10">+C(V)</text></g><path d="M67,-28h4v44h-4" style="stroke: black; stroke-width: 2; fill: none;"></path></g><text fill="black" font-size="11" transform="translate(211,-20)">2</text><text fill="black" x="217">+</text><g transform="translate(228)"><path d="M8,-28h-4v44h4" style="stroke: black; stroke-width: 2; fill: none;"></path><g transform="translate(8)"><g><text fill="black" transform="translate(0,-11)">1</text><path d="M0,-6h8" style="stroke: black; stroke-width: 2; fill: none;"></path><text fill="black" transform="translate(0,11)">2</text></g><text fill="black" x="10">+S(V)</text></g><path d="M66,-28h4v44h-4" style="stroke: black; stroke-width: 2; fill: none;"></path></g><text fill="black" font-size="11" transform="translate(303,-20)">2</text><text fill="black" x="309">)</text></g></g>
  <g font-family="Arial" font-size="18" xml:space="preserve" font-weight="bold"><g transform="translate(50,466)"><text fill="black">4)   F(t) =</text><g transform="translate(84)"><path d="M18,-23h-18l7,9l-7,22h18" style="stroke: black; stroke-width: 2; fill: none;"></path><text fill="black" font-size="11" transform="translate(-2,18)">i=-∞</text><text fill="black" font-size="11" transform="translate(4,-26)">∞</text></g><text fill="black" x="102">A(i)cos</text><g transform="translate(162)"><path d="M8,-28h-4v44h4" style="stroke: black; stroke-width: 2; fill: none;"></path><g transform="translate(8)"><text fill="black" transform="translate(8,-11)">i</text><path d="M0,-6h20" style="stroke: black; stroke-width: 2; fill: none;"></path><text fill="black" transform="translate(0,11)">t+i</text></g><path d="M30,-28h4v44h-4" style="stroke: black; stroke-width: 2; fill: none;"></path></g></g></g>
 </g>
</svg>