<svg xmlns="http://www.w3.org/2000/svg" viewBox="0 0 496 472" preserveAspectRatio="none" width="496" height="472">
 <path d="M0,0H496V472H0Z" style="fill: white;"></path>
 <g>
  <g transform="translate(50,47)">
   <path d="M0,0H397V378H0Z" style="fill: white; stroke: black; stroke-width: 1;"></path>
   <g>
    <g transform="translate(0,378)">
     <path d="M0,0h397M0,-14V0M8,-7V0M16,-7V0M24,-7V0M32,-7V0M40,-14V0M48,-7V0M56,-7V0M64,-7V0M71,-7V0M79,-14V0M87,-7V0M95,-7V0M103,-7V0M111,-7V0M119,-14V0M127,-7V0M135,-7V0M143,-7V0M151,-7V0M159,-14V0M167,-7V0M175,-7V0M183,-7V0M191,-7V0M199,-14V0M206,-7V0M214,-7V0M222,-7V0M230,-7V0M238,-14V0M246,-7V0M254,-7V0M262,-7V0M270,-7V0M278,-14V0M286,-7V0M294,-7V0M302,-7V0M310,-7V0M318,-14V0M326,-7V0M333,-7V0M341,-7V0M349,-7V0M357,-14V0M365,-7V0M373,-7V0M381,-7V0M389,-7V0M397,-14V0" style="stroke: black; stroke-width: 1;"></path>
     <g font-family="Arial" font-size="17" space="preserve" fill="black" text-anchor="middle">
      <text dy=".8em">
       0
      </text>
      <text dy=".8em" transform="translate(40)">
       0.1
      </text>
      <text dy=".8em" transform="translate(79)">
       0.2
      </text>
      <text dy=".8em" transform="translate(119)">
       0.3
      </text>
      <text dy=".8em" transform="translate(159)">
       0.4
      </text>
      <text dy=".8em" transform="translate(199)">
       0.5
      </text>
      <text dy=".8em" transform="translate(238)">
       0.6
      </text>
      <text dy=".8em" transform="translate(278)">
       0.7
      </text>
      <text dy=".8em" transform="translate(318)">
       0.8
      </text>
      <text dy=".8em" transform="translate(357)">
       0.9
      </text>
      <text dy=".8em" transform="translate(397)">
       1
      </text>
     </g>
    </g>
    <g>
     <path d="M0,0v378M15,378H0M8,370H0M8,363H0M8,355H0M8,348H0M15,340H0M8,333H0M8,325H0M8,318H0M8,310H0M15,302H0M8,295H0M8,287H0M8,280H0M8,272H0M15,265H0M8,257H0M8,249H0M8,242H0M8,234H0M15,227H0M8,219H0M8,212H0M8,204H0M8,197H0M15,189H0M8,181H0M8,174H0M8,166H0M8,159H0M15,151H0M8,144H0M8,136H0M8,129H0M8,121H0M15,113H0M8,106H0M8,98H0M8,91H0M8,83H0M15,76H0M8,68H0M8,60H0M8,53H0M8,45H0M15,38H0M8,30H0M8,23H0M8,15H0M8,8H0M15,0H0" style="stroke: black; stroke-width: 1;"></path>
     <g font-family="Arial" font-size="17" space="preserve" fill="black" text-anchor="end">
      <text dy=".4em" transform="translate(-2,378)">
       0
      </text>
      <text dy=".4em" transform="translate(-2,340)">
       0.1
      </text>
      <text dy=".4em" transform="translate(-2,302)">
       0.2
      </text>
      <text dy=".4em" transform="translate(-2,265)">
       0.3
      </text>
      <text dy=".4em" transform="translate(-2,227)">
       0.4
      </text>
      <text dy=".4em" transform="translate(-2,189)">
       0.5
      </text>
      <text dy=".4em" transform="translate(-2,151)">
       0.6
      </text>
      <text dy=".4em" transform="translate(-2,113)">
       0.7
      </text>
      <text dy=".4em" transform="translate(-2,76)">
       0.8
      </text>
      <text dy=".4em" transform="translate(-2,38)">
       0.9
      </text>
      <text dy=".4em" transform="translate(-2)">
       1
      </text>
     </g>
    </g>
    <path d="M0,0v378M40,0v378M79,0v378M119,0v378M159,0v378M199,0v378M238,0v378M278,0v378M318,0v378M357,0v378M397,0v378" style="stroke: black; stroke-width: 1; stroke-dasharray: 1,2;"></path>
    <path d="M0,378h397M0,340h397M0,302h397M0,265h397M0,227h397M0,189h397M0,151h397M0,113h397M0,76h397M0,38h397M0,0h397" style="stroke: black; stroke-width: 1; stroke-dasharray: 1,2;"></path>
   </g>
  </g>
  <g font-family="Arial" font-size="11" space="preserve" font-weight="bold">
   <text fill="black" text-anchor="start" dy=".8em" transform="translate(129,85)">
    K_{S}
   </text>
  </g>
  <g font-family="Arial" font-size="11" space="preserve" font-weight="bold">
   <text fill="black" text-anchor="start" dy=".8em" transform="translate(169,85)">
    K^{*0}
   </text>
  </g>
  <g font-family="Arial" font-size="11" space="preserve" font-weight="bold">
   <text fill="black" text-anchor="start" dy=".8em" transform="translate(129,123)">
    K_{S}... K^{*0}... #frac{2s}{πα^{2}}#frac{dσ}{dcosθ} (e^{+}e^{-} → f{f} ) =| #frac{1}{1 - Δα} |^{2} (1+cos^{2}θ)
   </text>
  </g>
  <g font-family="Arial" font-size="11" space="preserve" font-weight="bold">
   <text fill="black" text-anchor="start" dy=".4em" transform="translate(129,198)">
    K_{S}
   </text>
  </g>
  <g font-family="Arial" font-size="11" space="preserve" font-weight="bold">
   <text fill="black" text-anchor="start" dy=".4em" transform="translate(169,198)">
    K^{*0}
   </text>
  </g>
  <g font-family="Arial" font-size="11" space="preserve" font-weight="bold">
   <text fill="black" text-anchor="start" dy=".4em" transform="translate(129,236)">
    K_{S}... K^{*0}... #frac{2s}{πα^{2}}#frac{dσ}{dcosθ} (e^{+}e^{-} → f{f} ) =| #frac{1}{1 - Δα} |^{2} (1+cos^{2}θ)
   </text>
  </g>
  <g font-family="Arial" font-size="11" space="preserve" font-weight="bold">
   <text fill="black" text-anchor="start" transform="translate(129,274)">
    K_{S}
   </text>
  </g>
  <g font-family="Arial" font-size="11" space="preserve" font-weight="bold">
   <text fill="black" text-anchor="start" transform="translate(169,274)">
    K^{*0}
   </text>
  </g>
  <g font-family="Arial" font-size="11" space="preserve" font-weight="bold">
   <text fill="black" text-anchor="start" transform="translate(129,312)">
    K_{S}... K^{*0}... #frac{2s}{πα^{2}}#frac{dσ}{dcosθ} (e^{+}e^{-} → f{f} ) =| #frac{1}{1 - Δα} |^{2} (1+cos^{2}θ)
   </text>
  </g>
  <g font-family="Arial" font-size="11" space="preserve" font-weight="bold">
   <text fill="black" text-anchor="start" transform="translate(129,349)">
    K_{S}
   </text>
  </g>
  <g font-family="Arial" font-size="11" space="preserve" font-weight="bold">
   <text fill="black" text-anchor="start" transform="translate(169,349)">
    K^{*0}
   </text>
  </g>
  <g font-family="Arial" font-size="11" space="preserve" font-weight="bold">
   <text fill="black" text-anchor="start" transform="translate(129,387)">
    K_{S}... K^{*0}... #frac{2s}{πα^{2}}#frac{dσ}{dcosθ} (e^{+}e^{-} → f{f} ) =| #frac{1}{1 - Δα} |^{2} (1+cos^{2}θ)
   </text>
  </g>
  <g font-family="Arial" font-size="11" space="preserve" font-weight="bold" font-style="oblique">
   <text fill="black" text-anchor="start" dy=".4em" transform="translate(89,123)">
    13
   </text>
  </g>
  <g font-family="Arial" font-size="11" space="preserve" font-weight="bold" font-style="oblique">
   <text fill="black" text-anchor="start" dy=".4em" transform="translate(89,217)">
    12
   </text>
  </g>
  <g font-family="Arial" font-size="11" space="preserve" font-weight="bold" font-style="oblique">
   <text fill="black" text-anchor="start" dy=".4em" transform="translate(89,293)">
    11
   </text>
  </g>
  <g font-family="Arial" font-size="11" space="preserve" font-weight="bold" font-style="oblique">
   <text fill="black" text-anchor="start" dy=".4em" transform="translate(89,357)">
    10
   </text>
  </g>
 </g>
</svg>