<svg xmlns="http://www.w3.org/2000/svg" viewBox="0 0 1200 800" preserveAspectRatio="none" width="1200" height="800">
 <title>
  ROOT canvas
 </title>
 <path d="M0,0H1200V800H0Z" style="fill: white;"></path>
 <g>
  <g transform="translate(120,80)">
   <title></title>
   <path d="M0,0H960V640H0Z" style="fill: white; stroke: black; stroke-width: 1;"></path>
   <g>
    <path d="M0,0v640M96,0v640M192,0v640M288,0v640M384,0v640M480,0v640M576,0v640M672,0v640M768,0v640M864,0v640M960,0v640" style="stroke: black; stroke-width: 1; stroke-dasharray: 1,2;"></path>
    <path d="M0,640h960M0,576h960M0,512h960M0,448h960M0,384h960M0,320h960M0,256h960M0,192h960M0,128h960M0,64h960M0,0h960" style="stroke: black; stroke-width: 1; stroke-dasharray: 1,2;"></path>
   </g>
   <g>
    <g transform="translate(0,640)">
     <path d="M0,0h960" style="stroke: black; stroke-width: 1;"></path>
     <path d="M0,-24v24m19,-12v12m19,-12v12m20,-12v12m19,-12v12m19,-24v24m19,-12v12m19,-12v12m20,-12v12m19,-12v12m19,-24v24m19,-12v12m19,-12v12m20,-12v12m19,-12v12m19,-24v24m19,-12v12m19,-12v12m20,-12v12m19,-12v12m19,-24v24m19,-12v12m19,-12v12m20,-12v12m19,-12v12m19,-24v24m19,-12v12m19,-12v12m20,-12v12m19,-12v12m19,-24v24m19,-12v12m19,-12v12m20,-12v12m19,-12v12m19,-24v24m19,-12v12m19,-12v12m20,-12v12m19,-12v12m19,-24v24m19,-12v12m19,-12v12m20,-12v12m19,-12v12m19,-24v24m19,-12v12m19,-12v12m20,-12v12m19,-12v12m19,-24v24" style="stroke: black; stroke-width: 1;"></path>
     <g font-family="Arial" font-size="28" space="preserve">
      <text fill="black" text-anchor="middle" dy=".8em" transform="translate(0,6)">
       0
      </text>
      <text fill="black" text-anchor="middle" dy=".8em" transform="translate(96,6)">
       0.1
      </text>
      <text fill="black" text-anchor="middle" dy=".8em" transform="translate(192,6)">
       0.2
      </text>
      <text fill="black" text-anchor="middle" dy=".8em" transform="translate(288,6)">
       0.3
      </text>
      <text fill="black" text-anchor="middle" dy=".8em" transform="translate(384,6)">
       0.4
      </text>
      <text fill="black" text-anchor="middle" dy=".8em" transform="translate(480,6)">
       0.5
      </text>
      <text fill="black" text-anchor="middle" dy=".8em" transform="translate(576,6)">
       0.6
      </text>
      <text fill="black" text-anchor="middle" dy=".8em" transform="translate(672,6)">
       0.7
      </text>
      <text fill="black" text-anchor="middle" dy=".8em" transform="translate(768,6)">
       0.8
      </text>
      <text fill="black" text-anchor="middle" dy=".8em" transform="translate(864,6)">
       0.9
      </text>
      <text fill="black" text-anchor="middle" dy=".8em" transform="translate(960,6)">
       1
      </text>
     </g>
    </g>
    <g>
     <path d="M0,0v640" style="stroke: black; stroke-width: 1;"></path>
     <path d="M36,640h-36m18,-13h-18m18,-13h-18m18,-12h-18m18,-13h-18m36,-13h-36m18,-13h-18m18,-13h-18m18,-12h-18m18,-13h-18m36,-13h-36m18,-13h-18m18,-13h-18m18,-12h-18m18,-13h-18m36,-13h-36m18,-13h-18m18,-13h-18m18,-12h-18m18,-13h-18m36,-13h-36m18,-13h-18m18,-13h-18m18,-12h-18m18,-13h-18m36,-13h-36m18,-13h-18m18,-13h-18m18,-12h-18m18,-13h-18m36,-13h-36m18,-13h-18m18,-13h-18m18,-12h-18m18,-13h-18m36,-13h-36m18,-13h-18m18,-13h-18m18,-12h-18m18,-13h-18m36,-13h-36m18,-13h-18m18,-13h-18m18,-12h-18m18,-13h-18m36,-13h-36m18,-13h-18m18,-13h-18m18,-12h-18m18,-13h-18m36,-13h-36" style="stroke: black; stroke-width: 1;"></path>
     <g font-family="Arial" font-size="28" space="preserve">
      <text fill="black" text-anchor="end" dy=".4em" transform="translate(-4,640)">
       0
      </text>
      <text fill="black" text-anchor="end" dy=".4em" transform="translate(-4,576)">
       0.1
      </text>
      <text fill="black" text-anchor="end" dy=".4em" transform="translate(-4,512)">
       0.2
      </text>
      <text fill="black" text-anchor="end" dy=".4em" transform="translate(-4,448)">
       0.3
      </text>
      <text fill="black" text-anchor="end" dy=".4em" transform="translate(-4,384)">
       0.4
      </text>
      <text fill="black" text-anchor="end" dy=".4em" transform="translate(-4,320)">
       0.5
      </text>
      <text fill="black" text-anchor="end" dy=".4em" transform="translate(-4,256)">
       0.6
      </text>
      <text fill="black" text-anchor="end" dy=".4em" transform="translate(-4,192)">
       0.7
      </text>
      <text fill="black" text-anchor="end" dy=".4em" transform="translate(-4,128)">
       0.8
      </text>
      <text fill="black" text-anchor="end" dy=".4em" transform="translate(-4,64)">
       0.9
      </text>
      <text fill="black" text-anchor="end" dy=".4em" transform="translate(-4)">
       1
      </text>
     </g>
    </g>
   </g>
   <g>
    <g font-family="Arial" font-size="14" space="preserve" font-weight="bold">
     <text fill="black" text-anchor="start" dy=".8em" transform="translate(192,64)">
      K_{S}
     </text>
    </g>
    <g font-family="Arial" font-size="14" space="preserve" font-weight="bold">
     <text fill="black" text-anchor="start" dy=".8em" transform="translate(288,64)">
      K^{*0}
     </text>
    </g>
    <g font-family="Arial" font-size="14" space="preserve" font-weight="bold">
     <text fill="black" text-anchor="start" dy=".8em" transform="translate(192,128)">
      K_{S}... K^{*0}... #frac{2s}{πα^{2}}#frac{dσ}{dcosθ} (e^{+}e^{-} → f{f} ) =| #frac{1}{1 - Δα} |^{2} (1+cos^{2}θ)
     </text>
    </g>
    <g font-family="Arial" font-size="14" space="preserve" font-weight="bold">
     <text fill="black" text-anchor="start" dy=".4em" transform="translate(192,256)">
      K_{S}
     </text>
    </g>
    <g font-family="Arial" font-size="14" space="preserve" font-weight="bold">
     <text fill="black" text-anchor="start" dy=".4em" transform="translate(288,256)">
      K^{*0}
     </text>
    </g>
    <g font-family="Arial" font-size="14" space="preserve" font-weight="bold">
     <text fill="black" text-anchor="start" dy=".4em" transform="translate(192,320)">
      K_{S}... K^{*0}... #frac{2s}{πα^{2}}#frac{dσ}{dcosθ} (e^{+}e^{-} → f{f} ) =| #frac{1}{1 - Δα} |^{2} (1+cos^{2}θ)
     </text>
    </g>
    <g font-family="Arial" font-size="14" space="preserve" font-weight="bold">
     <text fill="black" text-anchor="start" transform="translate(192,384)">
      K_{S}
     </text>
    </g>
    <g font-family="Arial" font-size="14" space="preserve" font-weight="bold">
     <text fill="black" text-anchor="start" transform="translate(288,384)">
      K^{*0}
     </text>
    </g>
    <g font-family="Arial" font-size="14" space="preserve" font-weight="bold">
     <text fill="black" text-anchor="start" transform="translate(192,448)">
      K_{S}... K^{*0}... #frac{2s}{πα^{2}}#frac{dσ}{dcosθ} (e^{+}e^{-} → f{f} ) =| #frac{1}{1 - Δα} |^{2} (1+cos^{2}θ)
     </text>
    </g>
    <g font-family="Arial" font-size="14" space="preserve" font-weight="bold">
     <text fill="black" text-anchor="start" transform="translate(192,512)">
      K_{S}
     </text>
    </g>
    <g font-family="Arial" font-size="14" space="preserve" font-weight="bold">
     <text fill="black" text-anchor="start" transform="translate(288,512)">
      K^{*0}
     </text>
    </g>
    <g font-family="Arial" font-size="14" space="preserve" font-weight="bold">
     <text fill="black" text-anchor="start" transform="translate(192,576)">
      K_{S}... K^{*0}... #frac{2s}{πα^{2}}#frac{dσ}{dcosθ} (e^{+}e^{-} → f{f} ) =| #frac{1}{1 - Δα} |^{2} (1+cos^{2}θ)
     </text>
    </g>
    <g font-family="Arial" font-size="14" space="preserve" font-weight="bold" font-style="oblique">
     <text fill="black" text-anchor="start" dy=".4em" transform="translate(96,128)">
      13
     </text>
    </g>
    <g font-family="Arial" font-size="14" space="preserve" font-weight="bold" font-style="oblique">
     <text fill="black" text-anchor="start" dy=".4em" transform="translate(96,288)">
      12
     </text>
    </g>
    <g font-family="Arial" font-size="14" space="preserve" font-weight="bold" font-style="oblique">
     <text fill="black" text-anchor="start" dy=".4em" transform="translate(96,416)">
      11
     </text>
    </g>
    <g font-family="Arial" font-size="14" space="preserve" font-weight="bold" font-style="oblique">
     <text fill="black" text-anchor="start" dy=".4em" transform="translate(96,525)">
      10
     </text>
    </g>
   </g>
  </g>
 </g>
</svg>