<svg viewBox="0 0 1200 800" preserveAspectRatio="none" xmlns="http://www.w3.org/2000/svg" width="1200" height="800"><title>ROOT canvas</title><rect x="0" y="0" width="1200" height="800" style="fill: none;"></rect><g x="120" y="80" width="960" height="640" transform="translate(120,80)"><title></title><rect x="0" y="0" width="960" height="640" style="fill: white; stroke: black; stroke-width: 1;"></rect><g></g><svg x="0" y="0" overflow="hidden" width="960" height="640" viewBox="0 0 960 640"><g objname="hprof" objtype="TProfile"><path d="M24,77h1m47,98h1m9,23h1m8,-10h1m9,36h1m9,17h1m8,32h1m9,3h1m8,17h1m9,-1h1m9,32h1m8,11h1m9,23h1m8,1h1m9,33h1m9,7h1m8,11h1m9,15h1m8,17h1m9,11h1m9,11h1m8,16h1m9,11h1m8,14h1m9,2h1m9,0h1m8,15h1m9,11h1m8,8h1m9,9h1m9,8h1m8,5h1m9,0h1m8,12h1m9,3h1m9,5h1m8,2h1m9,6h1m8,0h1m9,12h1m9,-5h1m8,3h1m9,1h1m8,-3h1m9,3h1m9,-3h1m8,5h1m9,-7h1m8,1h1m9,-3h1m9,-3h1m8,-4h1m9,-5h1m8,-6h1m9,-2h1m9,-5h1m8,-9h1m9,0h1m8,-14h1m9,-3h1m9,-10h1m8,-10h1m9,-11h1m8,-3h1m9,-13h1m9,-10h1m8,-13h1m9,-12h1m8,-2h1m9,-22h1m9,-1h1m8,-24h1m9,-14h1m8,-13h1m9,-11h1m9,-22h1m8,-3h1m9,-45h1m8,-16h1m9,-7h1m9,17h1m8,-59h1m9,-50h1m8,23h1m9,-55h1m9,35h1m8,-22h1m9,1h1M955,30h1" style="stroke: black; fill: none;"></path></g></svg><g><g transform="translate(0,640)"><path d="M0,-19v19m24,-10v10m24,-10v10m24,-10v10m24,-10v10m24,-19v19m24,-10v10m24,-10v10m24,-10v10m24,-10v10m24,-19v19m24,-10v10m24,-10v10m24,-10v10m24,-10v10m24,-19v19m24,-10v10m24,-10v10m24,-10v10m24,-10v10m24,-19v19m24,-10v10m24,-10v10m24,-10v10m24,-10v10m24,-19v19m24,-10v10m24,-10v10m24,-10v10m24,-10v10m24,-19v19m24,-10v10m24,-10v10m24,-10v10m24,-10v10m24,-19v19m24,-10v10m24,-10v10m24,-10v10m24,-10v10m24,-19v19" style="stroke: black; stroke-width: 1;"></path><g font-family="Arial" font-size="22" space="preserve"><text fill="black" x="0" y="8" dy=".7em" style="text-anchor: middle;">-4</text><text fill="black" x="120" y="8" dy=".7em" style="text-anchor: middle;">-3</text><text fill="black" x="240" y="8" dy=".7em" style="text-anchor: middle;">-2</text><text fill="black" x="360" y="8" dy=".7em" style="text-anchor: middle;">-1</text><text fill="black" x="480" y="8" dy=".7em" style="text-anchor: middle;">0</text><text fill="black" x="600" y="8" dy=".7em" style="text-anchor: middle;">1</text><text fill="black" x="720" y="8" dy=".7em" style="text-anchor: middle;">2</text><text fill="black" x="840" y="8" dy=".7em" style="text-anchor: middle;">3</text><text fill="black" x="960" y="8" dy=".7em" style="text-anchor: middle;">4</text></g></g><g><path d="M29,640h-29m15,-19h-15m15,-20h-15m15,-19h-15m29,-19h-29m15,-20h-15m15,-19h-15m15,-19h-15m29,-20h-29m15,-19h-15m15,-20h-15m15,-19h-15m29,-19h-29m15,-20h-15m15,-19h-15m15,-19h-15m29,-20h-29m15,-19h-15m15,-19h-15m15,-20h-15m29,-19h-29m15,-19h-15m15,-20h-15m15,-19h-15m29,-20h-29m15,-19h-15m15,-19h-15m15,-20h-15m29,-19h-29m15,-19h-15m15,-20h-15m15,-19h-15m29,-19h-29m15,-20h-15" style="stroke: black; stroke-width: 1;"></path><g font-family="Arial" font-size="22" space="preserve"><text fill="black" x="-8" y="640" style="text-anchor: end; dominant-baseline: middle;">0</text><text fill="black" x="-8" y="563" style="text-anchor: end; dominant-baseline: middle;">2</text><text fill="black" x="-8" y="485" style="text-anchor: end; dominant-baseline: middle;">4</text><text fill="black" x="-8" y="408" style="text-anchor: end; dominant-baseline: middle;">6</text><text fill="black" x="-8" y="330" style="text-anchor: end; dominant-baseline: middle;">8</text><text fill="black" x="-8" y="253" style="text-anchor: end; dominant-baseline: middle;">10</text><text fill="black" x="-8" y="175" style="text-anchor: end; dominant-baseline: middle;">12</text><text fill="black" x="-8" y="98" style="text-anchor: end; dominant-baseline: middle;">14</text><text fill="black" x="-8" y="21" style="text-anchor: end; dominant-baseline: middle;">16</text></g></g></g><g></g></g><g></g><g></g><g><g objname="title" objtype="TPaveText" x="336" y="8" width="528" height="40" transform="translate(336,8)" font-family="Arial" font-size="33" space="preserve"><rect x="0" y="0" width="528" height="40" style="fill: none;"></rect><text text-anchor="middle" x="0" y="0" fill="black" transform="translate(264.0,21.0)" dominant-baseline="middle" opacity="1">Profile of pz versus px</text></g></g><g><g objname="stats" objtype="TPaveStats" x="936" y="52" width="240" height="212" transform="translate(936,52)" font-family="Arial" font-size="29" space="preserve"><rect x="0" y="0" width="240" height="212" style="fill: white; stroke: black; stroke-width: 1;"></rect><text text-anchor="middle" x="0" y="0" fill="black" transform="translate(120.0,18.7)" dominant-baseline="middle" opacity="1">hprof</text><text text-anchor="start" x="0" y="0" fill="black" transform="translate(12.0,54.0)" dominant-baseline="middle" opacity="1">Entries </text><text text-anchor="end" x="0" y="0" fill="black" transform="translate(228.0,54.0)" dominant-baseline="middle" opacity="1"> 24998</text><text text-anchor="start" x="0" y="0" fill="black" transform="translate(12.0,89.3)" dominant-baseline="middle" opacity="1">Mean </text><text text-anchor="end" x="0" y="0" fill="black" transform="translate(228.0,89.3)" dominant-baseline="middle" opacity="1"> 0.003129</text><text text-anchor="start" x="0" y="0" fill="black" transform="translate(12.0,124.7)" dominant-baseline="middle" opacity="1">Mean y </text><text text-anchor="end" x="0" y="0" fill="black" transform="translate(228.0,124.7)" dominant-baseline="middle" opacity="1"> 2.005</text><text text-anchor="start" x="0" y="0" fill="black" transform="translate(12.0,160.0)" dominant-baseline="middle" opacity="1">Std Dev </text><text text-anchor="end" x="0" y="0" fill="black" transform="translate(228.0,160.0)" dominant-baseline="middle" opacity="1"> 1.004</text><text text-anchor="start" x="0" y="0" fill="black" transform="translate(12.0,195.3)" dominant-baseline="middle" opacity="1">Std Dev y </text><text text-anchor="end" x="0" y="0" fill="black" transform="translate(228.0,195.3)" dominant-baseline="middle" opacity="1"> 2.008</text><line x1="0" y1="35.3" x2="240" y2="35.3" style="stroke: black; stroke-width: 1;"></line></g></g><g transform="translate(2,780)"></g></svg>