<svg xmlns="http://www.w3.org/2000/svg" viewBox="0 0 1200 800" preserveAspectRatio="none" width="1200" height="800">
 <path d="M0,0H1200V800H0Z" style="fill: white;"></path>
 <g>
  <g transform="translate(120,80)">
   <path d="M0,0H960V640H0Z" style="fill: white; stroke: black; stroke-width: 1;"></path>
   <svg x="0" y="0" overflow="hidden" width="960" height="640" viewBox="0 0 960 640">
    <g>
     <path d="M20,77a4,4,0,1,0,8,0a4,4,0,1,0,-8,0zM68,175a4,4,0,1,0,8,0a4,4,0,1,0,-8,0zM78,198a4,4,0,1,0,8,0a4,4,0,1,0,-8,0zM87,188a4,4,0,1,0,8,0a4,4,0,1,0,-8,0zM97,224a4,4,0,1,0,8,0a4,4,0,1,0,-8,0zM107,241a4,4,0,1,0,8,0a4,4,0,1,0,-8,0zM116,273a4,4,0,1,0,8,0a4,4,0,1,0,-8,0zM126,276a4,4,0,1,0,8,0a4,4,0,1,0,-8,0zM135,293a4,4,0,1,0,8,0a4,4,0,1,0,-8,0zM145,292a4,4,0,1,0,8,0a4,4,0,1,0,-8,0zM155,324a4,4,0,1,0,8,0a4,4,0,1,0,-8,0zM164,335a4,4,0,1,0,8,0a4,4,0,1,0,-8,0zM174,358a4,4,0,1,0,8,0a4,4,0,1,0,-8,0zM183,359a4,4,0,1,0,8,0a4,4,0,1,0,-8,0zM193,392a4,4,0,1,0,8,0a4,4,0,1,0,-8,0zM203,399a4,4,0,1,0,8,0a4,4,0,1,0,-8,0zM212,410a4,4,0,1,0,8,0a4,4,0,1,0,-8,0zM222,425a4,4,0,1,0,8,0a4,4,0,1,0,-8,0zM231,442a4,4,0,1,0,8,0a4,4,0,1,0,-8,0zM241,453a4,4,0,1,0,8,0a4,4,0,1,0,-8,0zM251,464a4,4,0,1,0,8,0a4,4,0,1,0,-8,0zM260,480a4,4,0,1,0,8,0a4,4,0,1,0,-8,0zM270,491a4,4,0,1,0,8,0a4,4,0,1,0,-8,0zM279,505a4,4,0,1,0,8,0a4,4,0,1,0,-8,0zM289,507a4,4,0,1,0,8,0a4,4,0,1,0,-8,0zM299,507a4,4,0,1,0,8,0a4,4,0,1,0,-8,0zM308,522a4,4,0,1,0,8,0a4,4,0,1,0,-8,0zM318,533a4,4,0,1,0,8,0a4,4,0,1,0,-8,0zM327,541a4,4,0,1,0,8,0a4,4,0,1,0,-8,0zM337,550a4,4,0,1,0,8,0a4,4,0,1,0,-8,0zM347,558a4,4,0,1,0,8,0a4,4,0,1,0,-8,0zM356,563a4,4,0,1,0,8,0a4,4,0,1,0,-8,0zM366,563a4,4,0,1,0,8,0a4,4,0,1,0,-8,0zM375,575a4,4,0,1,0,8,0a4,4,0,1,0,-8,0zM385,578a4,4,0,1,0,8,0a4,4,0,1,0,-8,0zM395,583a4,4,0,1,0,8,0a4,4,0,1,0,-8,0zM404,585a4,4,0,1,0,8,0a4,4,0,1,0,-8,0zM414,591a4,4,0,1,0,8,0a4,4,0,1,0,-8,0zM423,591a4,4,0,1,0,8,0a4,4,0,1,0,-8,0zM433,603a4,4,0,1,0,8,0a4,4,0,1,0,-8,0zM443,598a4,4,0,1,0,8,0a4,4,0,1,0,-8,0zM452,601a4,4,0,1,0,8,0a4,4,0,1,0,-8,0zM462,602a4,4,0,1,0,8,0a4,4,0,1,0,-8,0zM471,599a4,4,0,1,0,8,0a4,4,0,1,0,-8,0zM481,602a4,4,0,1,0,8,0a4,4,0,1,0,-8,0zM491,599a4,4,0,1,0,8,0a4,4,0,1,0,-8,0zM500,604a4,4,0,1,0,8,0a4,4,0,1,0,-8,0zM510,597a4,4,0,1,0,8,0a4,4,0,1,0,-8,0zM519,598a4,4,0,1,0,8,0a4,4,0,1,0,-8,0zM529,595a4,4,0,1,0,8,0a4,4,0,1,0,-8,0zM539,592a4,4,0,1,0,8,0a4,4,0,1,0,-8,0zM548,588a4,4,0,1,0,8,0a4,4,0,1,0,-8,0zM558,583a4,4,0,1,0,8,0a4,4,0,1,0,-8,0zM567,577a4,4,0,1,0,8,0a4,4,0,1,0,-8,0zM577,575a4,4,0,1,0,8,0a4,4,0,1,0,-8,0zM587,570a4,4,0,1,0,8,0a4,4,0,1,0,-8,0zM596,561a4,4,0,1,0,8,0a4,4,0,1,0,-8,0zM606,561a4,4,0,1,0,8,0a4,4,0,1,0,-8,0zM615,547a4,4,0,1,0,8,0a4,4,0,1,0,-8,0zM625,544a4,4,0,1,0,8,0a4,4,0,1,0,-8,0zM635,534a4,4,0,1,0,8,0a4,4,0,1,0,-8,0zM644,524a4,4,0,1,0,8,0a4,4,0,1,0,-8,0zM654,513a4,4,0,1,0,8,0a4,4,0,1,0,-8,0zM663,510a4,4,0,1,0,8,0a4,4,0,1,0,-8,0zM673,497a4,4,0,1,0,8,0a4,4,0,1,0,-8,0zM683,487a4,4,0,1,0,8,0a4,4,0,1,0,-8,0zM692,474a4,4,0,1,0,8,0a4,4,0,1,0,-8,0zM702,462a4,4,0,1,0,8,0a4,4,0,1,0,-8,0zM711,460a4,4,0,1,0,8,0a4,4,0,1,0,-8,0zM721,438a4,4,0,1,0,8,0a4,4,0,1,0,-8,0zM731,437a4,4,0,1,0,8,0a4,4,0,1,0,-8,0zM740,413a4,4,0,1,0,8,0a4,4,0,1,0,-8,0zM750,399a4,4,0,1,0,8,0a4,4,0,1,0,-8,0zM759,386a4,4,0,1,0,8,0a4,4,0,1,0,-8,0zM769,375a4,4,0,1,0,8,0a4,4,0,1,0,-8,0zM779,353a4,4,0,1,0,8,0a4,4,0,1,0,-8,0zM788,350a4,4,0,1,0,8,0a4,4,0,1,0,-8,0zM798,305a4,4,0,1,0,8,0a4,4,0,1,0,-8,0zM807,289a4,4,0,1,0,8,0a4,4,0,1,0,-8,0zM817,282a4,4,0,1,0,8,0a4,4,0,1,0,-8,0zM827,299a4,4,0,1,0,8,0a4,4,0,1,0,-8,0zM836,240a4,4,0,1,0,8,0a4,4,0,1,0,-8,0zM846,190a4,4,0,1,0,8,0a4,4,0,1,0,-8,0zM855,213a4,4,0,1,0,8,0a4,4,0,1,0,-8,0zM865,158a4,4,0,1,0,8,0a4,4,0,1,0,-8,0zM875,193a4,4,0,1,0,8,0a4,4,0,1,0,-8,0zM884,171a4,4,0,1,0,8,0a4,4,0,1,0,-8,0zM894,172a4,4,0,1,0,8,0a4,4,0,1,0,-8,0zM951,30a4,4,0,1,0,8,0a4,4,0,1,0,-8,0z" style="stroke: black; fill: black;"></path>
    </g>
   </svg>
   <g>
    <g transform="translate(0,640)">
     <path d="M0,0h960M0,-24V0M24,-12V0M48,-12V0M72,-12V0M96,-12V0M120,-24V0M144,-12V0M168,-12V0M192,-12V0M216,-12V0M240,-24V0M264,-12V0M288,-12V0M312,-12V0M336,-12V0M360,-24V0M384,-12V0M408,-12V0M432,-12V0M456,-12V0M480,-24V0M504,-12V0M528,-12V0M552,-12V0M576,-12V0M600,-24V0M624,-12V0M648,-12V0M672,-12V0M696,-12V0M720,-24V0M744,-12V0M768,-12V0M792,-12V0M816,-12V0M840,-24V0M864,-12V0M888,-12V0M912,-12V0M936,-12V0M960,-24V0" style="stroke: black; stroke-width: 1;"></path>
     <g font-family="Arial" font-size="28" space="preserve" fill="black" text-anchor="middle">
      <text dy=".8em" transform="translate(0,5)">
       -4
      </text>
      <text dy=".8em" transform="translate(120,5)">
       -3
      </text>
      <text dy=".8em" transform="translate(240,5)">
       -2
      </text>
      <text dy=".8em" transform="translate(360,5)">
       -1
      </text>
      <text dy=".8em" transform="translate(480,5)">
       0
      </text>
      <text dy=".8em" transform="translate(600,5)">
       1
      </text>
      <text dy=".8em" transform="translate(720,5)">
       2
      </text>
      <text dy=".8em" transform="translate(840,5)">
       3
      </text>
      <text dy=".8em" transform="translate(960,5)">
       4
      </text>
     </g>
    </g>
    <g>
     <path d="M0,0v640M36,640H0M18,621H0M18,601H0M18,582H0M36,563H0M18,543H0M18,524H0M18,505H0M36,485H0M18,466H0M18,446H0M18,427H0M36,408H0M18,388H0M18,369H0M18,350H0M36,330H0M18,311H0M18,292H0M18,272H0M36,253H0M18,234H0M18,214H0M18,195H0M36,175H0M18,156H0M18,137H0M18,117H0M36,98H0M18,79H0M18,59H0M18,40H0M36,21H0M18,1H0" style="stroke: black; stroke-width: 1;"></path>
     <g font-family="Arial" font-size="28" space="preserve" fill="black" text-anchor="end">
      <text dy=".4em" transform="translate(-6,640)">
       0
      </text>
      <text dy=".4em" transform="translate(-6,563)">
       2
      </text>
      <text dy=".4em" transform="translate(-6,485)">
       4
      </text>
      <text dy=".4em" transform="translate(-6,408)">
       6
      </text>
      <text dy=".4em" transform="translate(-6,330)">
       8
      </text>
      <text dy=".4em" transform="translate(-6,253)">
       10
      </text>
      <text dy=".4em" transform="translate(-6,175)">
       12
      </text>
      <text dy=".4em" transform="translate(-6,98)">
       14
      </text>
      <text dy=".4em" transform="translate(-6,21)">
       16
      </text>
     </g>
    </g>
   </g>
  </g>
  <g transform="translate(120,4)" font-family="Arial" font-size="40" space="preserve">
   <text fill="black" text-anchor="middle" dy=".8em" transform="translate(480)">
    Profile of pz versus px
   </text>
  </g>
  <g transform="translate(936,52)" font-family="Arial" font-size="22" space="preserve" fill="black">
   <path d="M0,0H240V192H0Z" style="fill: white; stroke: black; stroke-width: 1;"></path>
   <text text-anchor="middle" dy=".4em" transform="translate(120,16)">
    hprof
   </text>
   <text text-anchor="start" dy=".4em" transform="translate(12,48)">
    Entries
   </text>
   <text text-anchor="end" dy=".4em" transform="translate(228,48)">
    24998
   </text>
   <text text-anchor="start" dy=".4em" transform="translate(12,80)">
    Mean
   </text>
   <text text-anchor="end" dy=".4em" transform="translate(228,80)">
    0.003129
   </text>
   <text text-anchor="start" dy=".4em" transform="translate(12,112)">
    Mean y
   </text>
   <text text-anchor="end" dy=".4em" transform="translate(228,112)">
    2.005
   </text>
   <text text-anchor="start" dy=".4em" transform="translate(12,144)">
    Std Dev
   </text>
   <text text-anchor="end" dy=".4em" transform="translate(228,144)">
    1.004
   </text>
   <text text-anchor="start" dy=".4em" transform="translate(12,176)">
    Std Dev y
   </text>
   <text text-anchor="end" dy=".4em" transform="translate(228,176)">
    2.008
   </text>
   <path d="M0,32h240" style="stroke: black; stroke-width: 1;"></path>
  </g>
 </g>
</svg>