<svg viewBox="0 0 1200 800" preserveAspectRatio="none" xmlns="http://www.w3.org/2000/svg" width="1200" height="800"><title>ROOT canvas</title><rect x="0" y="0" width="1200" height="800" style="fill: none;"></rect><g><g transform="translate(120,80)"><title></title><rect x="0" y="0" width="960" height="640" style="fill: white; stroke: black; stroke-width: 1;"></rect><svg x="0" y="0" overflow="hidden" width="960" height="640" viewBox="0 0 960 640"><g objname="hprof" objtype="TProfile" font-family="Arial" font-size="7" space="preserve"><text text-anchor="start" x="0" y="0" fill="black" transform="translate(24,74) rotate(270,0,0)" dominant-baseline="middle">14.5499</text><text text-anchor="start" x="0" y="0" fill="black" transform="translate(72,172) rotate(270,0,0)" dominant-baseline="middle">12.0243</text><text text-anchor="start" x="0" y="0" fill="black" transform="translate(82,195) rotate(270,0,0)" dominant-baseline="middle">11.4068</text><text text-anchor="start" x="0" y="0" fill="black" transform="translate(91,185) rotate(270,0,0)" dominant-baseline="middle">11.6768</text><text text-anchor="start" x="0" y="0" fill="black" transform="translate(101,221) rotate(270,0,0)" dominant-baseline="middle">10.7382</text><text text-anchor="start" x="0" y="0" fill="black" transform="translate(111,238) rotate(270,0,0)" dominant-baseline="middle">10.2992</text><text text-anchor="start" x="0" y="0" fill="black" transform="translate(120,270) rotate(270,0,0)" dominant-baseline="middle">9.4804</text><text text-anchor="start" x="0" y="0" fill="black" transform="translate(130,273) rotate(270,0,0)" dominant-baseline="middle">9.3936</text><text text-anchor="start" x="0" y="0" fill="black" transform="translate(139,290) rotate(270,0,0)" dominant-baseline="middle">8.9596</text><text text-anchor="start" x="0" y="0" fill="black" transform="translate(149,289) rotate(270,0,0)" dominant-baseline="middle">8.9918</text><text text-anchor="start" x="0" y="0" fill="black" transform="translate(159,321) rotate(270,0,0)" dominant-baseline="middle">8.1739</text><text text-anchor="start" x="0" y="0" fill="black" transform="translate(168,332) rotate(270,0,0)" dominant-baseline="middle">7.8820</text><text text-anchor="start" x="0" y="0" fill="black" transform="translate(178,355) rotate(270,0,0)" dominant-baseline="middle">7.2964</text><text text-anchor="start" x="0" y="0" fill="black" transform="translate(187,356) rotate(270,0,0)" dominant-baseline="middle">7.2610</text><text text-anchor="start" x="0" y="0" fill="black" transform="translate(197,389) rotate(270,0,0)" dominant-baseline="middle">6.4032</text><text text-anchor="start" x="0" y="0" fill="black" transform="translate(207,396) rotate(270,0,0)" dominant-baseline="middle">6.2145</text><text text-anchor="start" x="0" y="0" fill="black" transform="translate(216,407) rotate(270,0,0)" dominant-baseline="middle">5.9398</text><text text-anchor="start" x="0" y="0" fill="black" transform="translate(226,422) rotate(270,0,0)" dominant-baseline="middle">5.5443</text><text text-anchor="start" x="0" y="0" fill="black" transform="translate(235,439) rotate(270,0,0)" dominant-baseline="middle">5.1228</text><text text-anchor="start" x="0" y="0" fill="black" transform="translate(245,450) rotate(270,0,0)" dominant-baseline="middle">4.8407</text><text text-anchor="start" x="0" y="0" fill="black" transform="translate(255,461) rotate(270,0,0)" dominant-baseline="middle">4.5347</text><text text-anchor="start" x="0" y="0" fill="black" transform="translate(264,477) rotate(270,0,0)" dominant-baseline="middle">4.1327</text><text text-anchor="start" x="0" y="0" fill="black" transform="translate(274,488) rotate(270,0,0)" dominant-baseline="middle">3.8502</text><text text-anchor="start" x="0" y="0" fill="black" transform="translate(283,502) rotate(270,0,0)" dominant-baseline="middle">3.4880</text><text text-anchor="start" x="0" y="0" fill="black" transform="translate(293,504) rotate(270,0,0)" dominant-baseline="middle">3.4300</text><text text-anchor="start" x="0" y="0" fill="black" transform="translate(303,504) rotate(270,0,0)" dominant-baseline="middle">3.4365</text><text text-anchor="start" x="0" y="0" fill="black" transform="translate(312,519) rotate(270,0,0)" dominant-baseline="middle">3.0579</text><text text-anchor="start" x="0" y="0" fill="black" transform="translate(322,530) rotate(270,0,0)" dominant-baseline="middle">2.7768</text><text text-anchor="start" x="0" y="0" fill="black" transform="translate(331,538) rotate(270,0,0)" dominant-baseline="middle">2.5566</text><text text-anchor="start" x="0" y="0" fill="black" transform="translate(341,547) rotate(270,0,0)" dominant-baseline="middle">2.3230</text><text text-anchor="start" x="0" y="0" fill="black" transform="translate(351,555) rotate(270,0,0)" dominant-baseline="middle">2.1270</text><text text-anchor="start" x="0" y="0" fill="black" transform="translate(360,560) rotate(270,0,0)" dominant-baseline="middle">1.9829</text><text text-anchor="start" x="0" y="0" fill="black" transform="translate(370,560) rotate(270,0,0)" dominant-baseline="middle">1.9945</text><text text-anchor="start" x="0" y="0" fill="black" transform="translate(379,572) rotate(270,0,0)" dominant-baseline="middle">1.6733</text><text text-anchor="start" x="0" y="0" fill="black" transform="translate(389,575) rotate(270,0,0)" dominant-baseline="middle">1.5939</text><text text-anchor="start" x="0" y="0" fill="black" transform="translate(399,580) rotate(270,0,0)" dominant-baseline="middle">1.4603</text><text text-anchor="start" x="0" y="0" fill="black" transform="translate(408,582) rotate(270,0,0)" dominant-baseline="middle">1.4128</text><text text-anchor="start" x="0" y="0" fill="black" transform="translate(418,588) rotate(270,0,0)" dominant-baseline="middle">1.2786</text><text text-anchor="start" x="0" y="0" fill="black" transform="translate(427,588) rotate(270,0,0)" dominant-baseline="middle">1.2546</text><text text-anchor="start" x="0" y="0" fill="black" transform="translate(437,600) rotate(270,0,0)" dominant-baseline="middle">0.9614</text><text text-anchor="start" x="0" y="0" fill="black" transform="translate(447,595) rotate(270,0,0)" dominant-baseline="middle">1.0864</text><text text-anchor="start" x="0" y="0" fill="black" transform="translate(456,598) rotate(270,0,0)" dominant-baseline="middle">1.0171</text><text text-anchor="start" x="0" y="0" fill="black" transform="translate(466,599) rotate(270,0,0)" dominant-baseline="middle">0.9734</text><text text-anchor="start" x="0" y="0" fill="black" transform="translate(475,596) rotate(270,0,0)" dominant-baseline="middle">1.0613</text><text text-anchor="start" x="0" y="0" fill="black" transform="translate(485,599) rotate(270,0,0)" dominant-baseline="middle">0.9857</text><text text-anchor="start" x="0" y="0" fill="black" transform="translate(495,596) rotate(270,0,0)" dominant-baseline="middle">1.0583</text><text text-anchor="start" x="0" y="0" fill="black" transform="translate(504,601) rotate(270,0,0)" dominant-baseline="middle">0.9312</text><text text-anchor="start" x="0" y="0" fill="black" transform="translate(514,594) rotate(270,0,0)" dominant-baseline="middle">1.1005</text><text text-anchor="start" x="0" y="0" fill="black" transform="translate(523,595) rotate(270,0,0)" dominant-baseline="middle">1.0776</text><text text-anchor="start" x="0" y="0" fill="black" transform="translate(533,592) rotate(270,0,0)" dominant-baseline="middle">1.1648</text><text text-anchor="start" x="0" y="0" fill="black" transform="translate(543,589) rotate(270,0,0)" dominant-baseline="middle">1.2374</text><text text-anchor="start" x="0" y="0" fill="black" transform="translate(552,585) rotate(270,0,0)" dominant-baseline="middle">1.3395</text><text text-anchor="start" x="0" y="0" fill="black" transform="translate(562,580) rotate(270,0,0)" dominant-baseline="middle">1.4821</text><text text-anchor="start" x="0" y="0" fill="black" transform="translate(571,574) rotate(270,0,0)" dominant-baseline="middle">1.6164</text><text text-anchor="start" x="0" y="0" fill="black" transform="translate(581,572) rotate(270,0,0)" dominant-baseline="middle">1.6748</text><text text-anchor="start" x="0" y="0" fill="black" transform="translate(591,567) rotate(270,0,0)" dominant-baseline="middle">1.7959</text><text text-anchor="start" x="0" y="0" fill="black" transform="translate(600,558) rotate(270,0,0)" dominant-baseline="middle">2.0461</text><text text-anchor="start" x="0" y="0" fill="black" transform="translate(610,558) rotate(270,0,0)" dominant-baseline="middle">2.0434</text><text text-anchor="start" x="0" y="0" fill="black" transform="translate(619,544) rotate(270,0,0)" dominant-baseline="middle">2.3976</text><text text-anchor="start" x="0" y="0" fill="black" transform="translate(629,541) rotate(270,0,0)" dominant-baseline="middle">2.4795</text><text text-anchor="start" x="0" y="0" fill="black" transform="translate(639,531) rotate(270,0,0)" dominant-baseline="middle">2.7371</text><text text-anchor="start" x="0" y="0" fill="black" transform="translate(648,521) rotate(270,0,0)" dominant-baseline="middle">3.0048</text><text text-anchor="start" x="0" y="0" fill="black" transform="translate(658,510) rotate(270,0,0)" dominant-baseline="middle">3.2820</text><text text-anchor="start" x="0" y="0" fill="black" transform="translate(667,507) rotate(270,0,0)" dominant-baseline="middle">3.3539</text><text text-anchor="start" x="0" y="0" fill="black" transform="translate(677,494) rotate(270,0,0)" dominant-baseline="middle">3.7018</text><text text-anchor="start" x="0" y="0" fill="black" transform="translate(687,484) rotate(270,0,0)" dominant-baseline="middle">3.9452</text><text text-anchor="start" x="0" y="0" fill="black" transform="translate(696,471) rotate(270,0,0)" dominant-baseline="middle">4.2801</text><text text-anchor="start" x="0" y="0" fill="black" transform="translate(706,459) rotate(270,0,0)" dominant-baseline="middle">4.5999</text><text text-anchor="start" x="0" y="0" fill="black" transform="translate(715,457) rotate(270,0,0)" dominant-baseline="middle">4.6604</text><text text-anchor="start" x="0" y="0" fill="black" transform="translate(725,435) rotate(270,0,0)" dominant-baseline="middle">5.2151</text><text text-anchor="start" x="0" y="0" fill="black" transform="translate(735,434) rotate(270,0,0)" dominant-baseline="middle">5.2470</text><text text-anchor="start" x="0" y="0" fill="black" transform="translate(744,410) rotate(270,0,0)" dominant-baseline="middle">5.8601</text><text text-anchor="start" x="0" y="0" fill="black" transform="translate(754,396) rotate(270,0,0)" dominant-baseline="middle">6.2183</text><text text-anchor="start" x="0" y="0" fill="black" transform="translate(763,383) rotate(270,0,0)" dominant-baseline="middle">6.5735</text><text text-anchor="start" x="0" y="0" fill="black" transform="translate(773,372) rotate(270,0,0)" dominant-baseline="middle">6.8437</text><text text-anchor="start" x="0" y="0" fill="black" transform="translate(783,350) rotate(270,0,0)" dominant-baseline="middle">7.4164</text><text text-anchor="start" x="0" y="0" fill="black" transform="translate(792,347) rotate(270,0,0)" dominant-baseline="middle">7.4900</text><text text-anchor="start" x="0" y="0" fill="black" transform="translate(802,302) rotate(270,0,0)" dominant-baseline="middle">8.6611</text><text text-anchor="start" x="0" y="0" fill="black" transform="translate(811,286) rotate(270,0,0)" dominant-baseline="middle">9.0578</text><text text-anchor="start" x="0" y="0" fill="black" transform="translate(821,279) rotate(270,0,0)" dominant-baseline="middle">9.2441</text><text text-anchor="start" x="0" y="0" fill="black" transform="translate(831,296) rotate(270,0,0)" dominant-baseline="middle">8.7983</text><text text-anchor="start" x="0" y="0" fill="black" transform="translate(840,237) rotate(270,0,0)" dominant-baseline="middle">10.3303</text><text text-anchor="start" x="0" y="0" fill="black" transform="translate(850,187) rotate(270,0,0)" dominant-baseline="middle">11.6258</text><text text-anchor="start" x="0" y="0" fill="black" transform="translate(859,210) rotate(270,0,0)" dominant-baseline="middle">11.0253</text><text text-anchor="start" x="0" y="0" fill="black" transform="translate(869,155) rotate(270,0,0)" dominant-baseline="middle">12.4484</text><text text-anchor="start" x="0" y="0" fill="black" transform="translate(879,190) rotate(270,0,0)" dominant-baseline="middle">11.5412</text><text text-anchor="start" x="0" y="0" fill="black" transform="translate(888,168) rotate(270,0,0)" dominant-baseline="middle">12.1216</text><text text-anchor="start" x="0" y="0" fill="black" transform="translate(898,169) rotate(270,0,0)" dominant-baseline="middle">12.0986</text><text text-anchor="start" x="0" y="0" fill="black" transform="translate(955,27) rotate(270,0,0)" dominant-baseline="middle">15.7455</text><path d="M0,640h19v-563h10v563h38v-465h10v23h9v-10h10v36h10v17h9v32h10v3h9v17h10v-1h10v32h9v11h10v23h9v1h10v33h10v7h9v11h10v15h9v17h10v11h10v11h9v16h10v11h9v14h10v2h19v15h10v11h9v8h10v9h10v8h9v5h19v12h10v3h10v5h9v2h10v6h19v12h10v-5h9v3h10v1h9v-3h10v3h10v-3h9v5h10v-7h9v1h10v-3h10v-3h9v-4h10v-5h9v-6h10v-2h10v-5h9v-9h19v-14h10v-3h10v-10h9v-10h10v-11h9v-3h10v-13h10v-10h9v-13h10v-12h9v-2h10v-22h10v-1h9v-24h10v-14h9v-13h10v-11h10v-22h9v-3h10v-45h9v-16h10v-7h10v17h9v-59h10v-50h9v23h10v-55h10v35h9v-22h10v1h9v468h48v-610h10" style="stroke-linejoin: miter; stroke: rgb(0,0,154); stroke-width: 1; fill: none;"></path></g></svg><g><g transform="translate(0,640)"><path d="M0,-24v24m24,-12v12m24,-12v12m24,-12v12m24,-12v12m24,-24v24m24,-12v12m24,-12v12m24,-12v12m24,-12v12m24,-24v24m24,-12v12m24,-12v12m24,-12v12m24,-12v12m24,-24v24m24,-12v12m24,-12v12m24,-12v12m24,-12v12m24,-24v24m24,-12v12m24,-12v12m24,-12v12m24,-12v12m24,-24v24m24,-12v12m24,-12v12m24,-12v12m24,-12v12m24,-24v24m24,-12v12m24,-12v12m24,-12v12m24,-12v12m24,-24v24m24,-12v12m24,-12v12m24,-12v12m24,-12v12m24,-24v24" style="stroke: black; stroke-width: 1;"></path><g font-family="Arial" font-size="28" space="preserve"><text fill="black" x="0" y="9" dy=".7em" style="text-anchor: middle;">-4</text><text fill="black" x="120" y="9" dy=".7em" style="text-anchor: middle;">-3</text><text fill="black" x="240" y="9" dy=".7em" style="text-anchor: middle;">-2</text><text fill="black" x="360" y="9" dy=".7em" style="text-anchor: middle;">-1</text><text fill="black" x="480" y="9" dy=".7em" style="text-anchor: middle;">0</text><text fill="black" x="600" y="9" dy=".7em" style="text-anchor: middle;">1</text><text fill="black" x="720" y="9" dy=".7em" style="text-anchor: middle;">2</text><text fill="black" x="840" y="9" dy=".7em" style="text-anchor: middle;">3</text><text fill="black" x="960" y="9" dy=".7em" style="text-anchor: middle;">4</text></g></g><g><path d="M36,640h-36m18,-19h-18m18,-20h-18m18,-19h-18m36,-19h-36m18,-20h-18m18,-19h-18m18,-19h-18m36,-20h-36m18,-19h-18m18,-20h-18m18,-19h-18m36,-19h-36m18,-20h-18m18,-19h-18m18,-19h-18m36,-20h-36m18,-19h-18m18,-19h-18m18,-20h-18m36,-19h-36m18,-19h-18m18,-20h-18m18,-19h-18m36,-20h-36m18,-19h-18m18,-19h-18m18,-20h-18m36,-19h-36m18,-19h-18m18,-20h-18m18,-19h-18m36,-19h-36m18,-20h-18" style="stroke: black; stroke-width: 1;"></path><g font-family="Arial" font-size="28" space="preserve"><text fill="black" x="-9" y="640" style="text-anchor: end; dominant-baseline: middle;">0</text><text fill="black" x="-9" y="563" style="text-anchor: end; dominant-baseline: middle;">2</text><text fill="black" x="-9" y="485" style="text-anchor: end; dominant-baseline: middle;">4</text><text fill="black" x="-9" y="408" style="text-anchor: end; dominant-baseline: middle;">6</text><text fill="black" x="-9" y="330" style="text-anchor: end; dominant-baseline: middle;">8</text><text fill="black" x="-9" y="253" style="text-anchor: end; dominant-baseline: middle;">10</text><text fill="black" x="-9" y="175" style="text-anchor: end; dominant-baseline: middle;">12</text><text fill="black" x="-9" y="98" style="text-anchor: end; dominant-baseline: middle;">14</text><text fill="black" x="-9" y="21" style="text-anchor: end; dominant-baseline: middle;">16</text></g></g></g></g><g objname="title" objtype="TPaveText" transform="translate(336,8)" font-family="Arial" font-size="33" space="preserve"><path d="M0,0h528v40h-528z" style="fill: none;"></path><text text-anchor="middle" x="0" y="0" fill="black" transform="translate(264,21)" dominant-baseline="middle" opacity="1">Profile of pz versus px</text></g></g></svg>