<svg viewBox="0 0 1200 800" preserveAspectRatio="none" xmlns="http://www.w3.org/2000/svg" width="1200" height="800"><title>ROOT canvas</title><rect x="0" y="0" width="1200" height="800" style="fill: none;"></rect><g x="120" y="80" width="960" height="640" transform="translate(120,80)"><title></title><rect x="0" y="0" width="960" height="640" style="fill: white; stroke: black; stroke-width: 1;"></rect><g></g><svg x="0" y="0" overflow="hidden" width="960" height="640" viewBox="0 0 960 640"><g objname="hprof" objtype="TProfile" font-family="Arial" font-size="7" space="preserve"><text text-anchor="start" x="0" y="0" fill="black" transform="translate(24.0,74.0) rotate(270,0,0)" dominant-baseline="middle">14.5499</text><text text-anchor="start" x="0" y="0" fill="black" transform="translate(72.0,172.0) rotate(270,0,0)" dominant-baseline="middle">12.0243</text><text text-anchor="start" x="0" y="0" fill="black" transform="translate(82.0,195.0) rotate(270,0,0)" dominant-baseline="middle">11.4068</text><text text-anchor="start" x="0" y="0" fill="black" transform="translate(91.0,185.0) rotate(270,0,0)" dominant-baseline="middle">11.6768</text><text text-anchor="start" x="0" y="0" fill="black" transform="translate(101.0,221.0) rotate(270,0,0)" dominant-baseline="middle">10.7382</text><text text-anchor="start" x="0" y="0" fill="black" transform="translate(111.0,238.0) rotate(270,0,0)" dominant-baseline="middle">10.2992</text><text text-anchor="start" x="0" y="0" fill="black" transform="translate(120.0,270.0) rotate(270,0,0)" dominant-baseline="middle">9.4804</text><text text-anchor="start" x="0" y="0" fill="black" transform="translate(130.0,273.0) rotate(270,0,0)" dominant-baseline="middle">9.3936</text><text text-anchor="start" x="0" y="0" fill="black" transform="translate(139.0,290.0) rotate(270,0,0)" dominant-baseline="middle">8.9596</text><text text-anchor="start" x="0" y="0" fill="black" transform="translate(149.0,289.0) rotate(270,0,0)" dominant-baseline="middle">8.9918</text><text text-anchor="start" x="0" y="0" fill="black" transform="translate(159.0,321.0) rotate(270,0,0)" dominant-baseline="middle">8.1739</text><text text-anchor="start" x="0" y="0" fill="black" transform="translate(168.0,332.0) rotate(270,0,0)" dominant-baseline="middle">7.8820</text><text text-anchor="start" x="0" y="0" fill="black" transform="translate(178.0,355.0) rotate(270,0,0)" dominant-baseline="middle">7.2964</text><text text-anchor="start" x="0" y="0" fill="black" transform="translate(187.0,356.0) rotate(270,0,0)" dominant-baseline="middle">7.2610</text><text text-anchor="start" x="0" y="0" fill="black" transform="translate(197.0,389.0) rotate(270,0,0)" dominant-baseline="middle">6.4032</text><text text-anchor="start" x="0" y="0" fill="black" transform="translate(207.0,396.0) rotate(270,0,0)" dominant-baseline="middle">6.2145</text><text text-anchor="start" x="0" y="0" fill="black" transform="translate(216.0,407.0) rotate(270,0,0)" dominant-baseline="middle">5.9398</text><text text-anchor="start" x="0" y="0" fill="black" transform="translate(226.0,422.0) rotate(270,0,0)" dominant-baseline="middle">5.5443</text><text text-anchor="start" x="0" y="0" fill="black" transform="translate(235.0,439.0) rotate(270,0,0)" dominant-baseline="middle">5.1228</text><text text-anchor="start" x="0" y="0" fill="black" transform="translate(245.0,450.0) rotate(270,0,0)" dominant-baseline="middle">4.8407</text><text text-anchor="start" x="0" y="0" fill="black" transform="translate(255.0,461.0) rotate(270,0,0)" dominant-baseline="middle">4.5347</text><text text-anchor="start" x="0" y="0" fill="black" transform="translate(264.0,477.0) rotate(270,0,0)" dominant-baseline="middle">4.1327</text><text text-anchor="start" x="0" y="0" fill="black" transform="translate(274.0,488.0) rotate(270,0,0)" dominant-baseline="middle">3.8502</text><text text-anchor="start" x="0" y="0" fill="black" transform="translate(283.0,502.0) rotate(270,0,0)" dominant-baseline="middle">3.4880</text><text text-anchor="start" x="0" y="0" fill="black" transform="translate(293.0,504.0) rotate(270,0,0)" dominant-baseline="middle">3.4300</text><text text-anchor="start" x="0" y="0" fill="black" transform="translate(303.0,504.0) rotate(270,0,0)" dominant-baseline="middle">3.4365</text><text text-anchor="start" x="0" y="0" fill="black" transform="translate(312.0,519.0) rotate(270,0,0)" dominant-baseline="middle">3.0579</text><text text-anchor="start" x="0" y="0" fill="black" transform="translate(322.0,530.0) rotate(270,0,0)" dominant-baseline="middle">2.7768</text><text text-anchor="start" x="0" y="0" fill="black" transform="translate(331.0,538.0) rotate(270,0,0)" dominant-baseline="middle">2.5566</text><text text-anchor="start" x="0" y="0" fill="black" transform="translate(341.0,547.0) rotate(270,0,0)" dominant-baseline="middle">2.3230</text><text text-anchor="start" x="0" y="0" fill="black" transform="translate(351.0,555.0) rotate(270,0,0)" dominant-baseline="middle">2.1270</text><text text-anchor="start" x="0" y="0" fill="black" transform="translate(360.0,560.0) rotate(270,0,0)" dominant-baseline="middle">1.9829</text><text text-anchor="start" x="0" y="0" fill="black" transform="translate(370.0,560.0) rotate(270,0,0)" dominant-baseline="middle">1.9945</text><text text-anchor="start" x="0" y="0" fill="black" transform="translate(379.0,572.0) rotate(270,0,0)" dominant-baseline="middle">1.6733</text><text text-anchor="start" x="0" y="0" fill="black" transform="translate(389.0,575.0) rotate(270,0,0)" dominant-baseline="middle">1.5939</text><text text-anchor="start" x="0" y="0" fill="black" transform="translate(399.0,580.0) rotate(270,0,0)" dominant-baseline="middle">1.4603</text><text text-anchor="start" x="0" y="0" fill="black" transform="translate(408.0,582.0) rotate(270,0,0)" dominant-baseline="middle">1.4128</text><text text-anchor="start" x="0" y="0" fill="black" transform="translate(418.0,588.0) rotate(270,0,0)" dominant-baseline="middle">1.2786</text><text text-anchor="start" x="0" y="0" fill="black" transform="translate(427.0,588.0) rotate(270,0,0)" dominant-baseline="middle">1.2546</text><text text-anchor="start" x="0" y="0" fill="black" transform="translate(437.0,600.0) rotate(270,0,0)" dominant-baseline="middle">0.9614</text><text text-anchor="start" x="0" y="0" fill="black" transform="translate(447.0,595.0) rotate(270,0,0)" dominant-baseline="middle">1.0864</text><text text-anchor="start" x="0" y="0" fill="black" transform="translate(456.0,598.0) rotate(270,0,0)" dominant-baseline="middle">1.0171</text><text text-anchor="start" x="0" y="0" fill="black" transform="translate(466.0,599.0) rotate(270,0,0)" dominant-baseline="middle">0.9734</text><text text-anchor="start" x="0" y="0" fill="black" transform="translate(475.0,596.0) rotate(270,0,0)" dominant-baseline="middle">1.0613</text><text text-anchor="start" x="0" y="0" fill="black" transform="translate(485.0,599.0) rotate(270,0,0)" dominant-baseline="middle">0.9857</text><text text-anchor="start" x="0" y="0" fill="black" transform="translate(495.0,596.0) rotate(270,0,0)" dominant-baseline="middle">1.0583</text><text text-anchor="start" x="0" y="0" fill="black" transform="translate(504.0,601.0) rotate(270,0,0)" dominant-baseline="middle">0.9312</text><text text-anchor="start" x="0" y="0" fill="black" transform="translate(514.0,594.0) rotate(270,0,0)" dominant-baseline="middle">1.1005</text><text text-anchor="start" x="0" y="0" fill="black" transform="translate(523.0,595.0) rotate(270,0,0)" dominant-baseline="middle">1.0776</text><text text-anchor="start" x="0" y="0" fill="black" transform="translate(533.0,592.0) rotate(270,0,0)" dominant-baseline="middle">1.1648</text><text text-anchor="start" x="0" y="0" fill="black" transform="translate(543.0,589.0) rotate(270,0,0)" dominant-baseline="middle">1.2374</text><text text-anchor="start" x="0" y="0" fill="black" transform="translate(552.0,585.0) rotate(270,0,0)" dominant-baseline="middle">1.3395</text><text text-anchor="start" x="0" y="0" fill="black" transform="translate(562.0,580.0) rotate(270,0,0)" dominant-baseline="middle">1.4821</text><text text-anchor="start" x="0" y="0" fill="black" transform="translate(571.0,574.0) rotate(270,0,0)" dominant-baseline="middle">1.6164</text><text text-anchor="start" x="0" y="0" fill="black" transform="translate(581.0,572.0) rotate(270,0,0)" dominant-baseline="middle">1.6748</text><text text-anchor="start" x="0" y="0" fill="black" transform="translate(591.0,567.0) rotate(270,0,0)" dominant-baseline="middle">1.7959</text><text text-anchor="start" x="0" y="0" fill="black" transform="translate(600.0,558.0) rotate(270,0,0)" dominant-baseline="middle">2.0461</text><text text-anchor="start" x="0" y="0" fill="black" transform="translate(610.0,558.0) rotate(270,0,0)" dominant-baseline="middle">2.0434</text><text text-anchor="start" x="0" y="0" fill="black" transform="translate(619.0,544.0) rotate(270,0,0)" dominant-baseline="middle">2.3976</text><text text-anchor="start" x="0" y="0" fill="black" transform="translate(629.0,541.0) rotate(270,0,0)" dominant-baseline="middle">2.4795</text><text text-anchor="start" x="0" y="0" fill="black" transform="translate(639.0,531.0) rotate(270,0,0)" dominant-baseline="middle">2.7371</text><text text-anchor="start" x="0" y="0" fill="black" transform="translate(648.0,521.0) rotate(270,0,0)" dominant-baseline="middle">3.0048</text><text text-anchor="start" x="0" y="0" fill="black" transform="translate(658.0,510.0) rotate(270,0,0)" dominant-baseline="middle">3.2820</text><text text-anchor="start" x="0" y="0" fill="black" transform="translate(667.0,507.0) rotate(270,0,0)" dominant-baseline="middle">3.3539</text><text text-anchor="start" x="0" y="0" fill="black" transform="translate(677.0,494.0) rotate(270,0,0)" dominant-baseline="middle">3.7018</text><text text-anchor="start" x="0" y="0" fill="black" transform="translate(687.0,484.0) rotate(270,0,0)" dominant-baseline="middle">3.9452</text><text text-anchor="start" x="0" y="0" fill="black" transform="translate(696.0,471.0) rotate(270,0,0)" dominant-baseline="middle">4.2801</text><text text-anchor="start" x="0" y="0" fill="black" transform="translate(706.0,459.0) rotate(270,0,0)" dominant-baseline="middle">4.5999</text><text text-anchor="start" x="0" y="0" fill="black" transform="translate(715.0,457.0) rotate(270,0,0)" dominant-baseline="middle">4.6604</text><text text-anchor="start" x="0" y="0" fill="black" transform="translate(725.0,435.0) rotate(270,0,0)" dominant-baseline="middle">5.2151</text><text text-anchor="start" x="0" y="0" fill="black" transform="translate(735.0,434.0) rotate(270,0,0)" dominant-baseline="middle">5.2470</text><text text-anchor="start" x="0" y="0" fill="black" transform="translate(744.0,410.0) rotate(270,0,0)" dominant-baseline="middle">5.8601</text><text text-anchor="start" x="0" y="0" fill="black" transform="translate(754.0,396.0) rotate(270,0,0)" dominant-baseline="middle">6.2183</text><text text-anchor="start" x="0" y="0" fill="black" transform="translate(763.0,383.0) rotate(270,0,0)" dominant-baseline="middle">6.5735</text><text text-anchor="start" x="0" y="0" fill="black" transform="translate(773.0,372.0) rotate(270,0,0)" dominant-baseline="middle">6.8437</text><text text-anchor="start" x="0" y="0" fill="black" transform="translate(783.0,350.0) rotate(270,0,0)" dominant-baseline="middle">7.4164</text><text text-anchor="start" x="0" y="0" fill="black" transform="translate(792.0,347.0) rotate(270,0,0)" dominant-baseline="middle">7.4900</text><text text-anchor="start" x="0" y="0" fill="black" transform="translate(802.0,302.0) rotate(270,0,0)" dominant-baseline="middle">8.6611</text><text text-anchor="start" x="0" y="0" fill="black" transform="translate(811.0,286.0) rotate(270,0,0)" dominant-baseline="middle">9.0578</text><text text-anchor="start" x="0" y="0" fill="black" transform="translate(821.0,279.0) rotate(270,0,0)" dominant-baseline="middle">9.2441</text><text text-anchor="start" x="0" y="0" fill="black" transform="translate(831.0,296.0) rotate(270,0,0)" dominant-baseline="middle">8.7983</text><text text-anchor="start" x="0" y="0" fill="black" transform="translate(840.0,237.0) rotate(270,0,0)" dominant-baseline="middle">10.3303</text><text text-anchor="start" x="0" y="0" fill="black" transform="translate(850.0,187.0) rotate(270,0,0)" dominant-baseline="middle">11.6258</text><text text-anchor="start" x="0" y="0" fill="black" transform="translate(859.0,210.0) rotate(270,0,0)" dominant-baseline="middle">11.0253</text><text text-anchor="start" x="0" y="0" fill="black" transform="translate(869.0,155.0) rotate(270,0,0)" dominant-baseline="middle">12.4484</text><text text-anchor="start" x="0" y="0" fill="black" transform="translate(879.0,190.0) rotate(270,0,0)" dominant-baseline="middle">11.5412</text><text text-anchor="start" x="0" y="0" fill="black" transform="translate(888.0,168.0) rotate(270,0,0)" dominant-baseline="middle">12.1216</text><text text-anchor="start" x="0" y="0" fill="black" transform="translate(898.0,169.0) rotate(270,0,0)" dominant-baseline="middle">12.0986</text><text text-anchor="start" x="0" y="0" fill="black" transform="translate(955.0,27.0) rotate(270,0,0)" dominant-baseline="middle">15.7455</text><path d="M0,640h19v-563h10v563h38v-465h10v23h9v-10h10v36h10v17h9v32h10v3h9v17h10v-1h10v32h9v11h10v23h9v1h10v33h10v7h9v11h10v15h9v17h10v11h10v11h9v16h10v11h9v14h10v2h19v15h10v11h9v8h10v9h10v8h9v5h19v12h10v3h10v5h9v2h10v6h19v12h10v-5h9v3h10v1h9v-3h10v3h10v-3h9v5h10v-7h9v1h10v-3h10v-3h9v-4h10v-5h9v-6h10v-2h10v-5h9v-9h19v-14h10v-3h10v-10h9v-10h10v-11h9v-3h10v-13h10v-10h9v-13h10v-12h9v-2h10v-22h10v-1h9v-24h10v-14h9v-13h10v-11h10v-22h9v-3h10v-45h9v-16h10v-7h10v17h9v-59h10v-50h9v23h10v-55h10v35h9v-22h10v1h9v468h48v-610h10" style="stroke-linejoin: miter; stroke: rgb(0,0,154); stroke-width: 1; fill: none;"></path></g></svg><g><g transform="translate(0,640)"><path d="M0,-19v19m24,-10v10m24,-10v10m24,-10v10m24,-10v10m24,-19v19m24,-10v10m24,-10v10m24,-10v10m24,-10v10m24,-19v19m24,-10v10m24,-10v10m24,-10v10m24,-10v10m24,-19v19m24,-10v10m24,-10v10m24,-10v10m24,-10v10m24,-19v19m24,-10v10m24,-10v10m24,-10v10m24,-10v10m24,-19v19m24,-10v10m24,-10v10m24,-10v10m24,-10v10m24,-19v19m24,-10v10m24,-10v10m24,-10v10m24,-10v10m24,-19v19m24,-10v10m24,-10v10m24,-10v10m24,-10v10m24,-19v19" style="stroke: black; stroke-width: 1;"></path><g font-family="Arial" font-size="22" space="preserve"><text fill="black" x="0" y="8" dy=".7em" style="text-anchor: middle;">-4</text><text fill="black" x="120" y="8" dy=".7em" style="text-anchor: middle;">-3</text><text fill="black" x="240" y="8" dy=".7em" style="text-anchor: middle;">-2</text><text fill="black" x="360" y="8" dy=".7em" style="text-anchor: middle;">-1</text><text fill="black" x="480" y="8" dy=".7em" style="text-anchor: middle;">0</text><text fill="black" x="600" y="8" dy=".7em" style="text-anchor: middle;">1</text><text fill="black" x="720" y="8" dy=".7em" style="text-anchor: middle;">2</text><text fill="black" x="840" y="8" dy=".7em" style="text-anchor: middle;">3</text><text fill="black" x="960" y="8" dy=".7em" style="text-anchor: middle;">4</text></g></g><g><path d="M29,640h-29m15,-19h-15m15,-20h-15m15,-19h-15m29,-19h-29m15,-20h-15m15,-19h-15m15,-19h-15m29,-20h-29m15,-19h-15m15,-20h-15m15,-19h-15m29,-19h-29m15,-20h-15m15,-19h-15m15,-19h-15m29,-20h-29m15,-19h-15m15,-19h-15m15,-20h-15m29,-19h-29m15,-19h-15m15,-20h-15m15,-19h-15m29,-20h-29m15,-19h-15m15,-19h-15m15,-20h-15m29,-19h-29m15,-19h-15m15,-20h-15m15,-19h-15m29,-19h-29m15,-20h-15" style="stroke: black; stroke-width: 1;"></path><g font-family="Arial" font-size="22" space="preserve"><text fill="black" x="-8" y="640" style="text-anchor: end; dominant-baseline: middle;">0</text><text fill="black" x="-8" y="563" style="text-anchor: end; dominant-baseline: middle;">2</text><text fill="black" x="-8" y="485" style="text-anchor: end; dominant-baseline: middle;">4</text><text fill="black" x="-8" y="408" style="text-anchor: end; dominant-baseline: middle;">6</text><text fill="black" x="-8" y="330" style="text-anchor: end; dominant-baseline: middle;">8</text><text fill="black" x="-8" y="253" style="text-anchor: end; dominant-baseline: middle;">10</text><text fill="black" x="-8" y="175" style="text-anchor: end; dominant-baseline: middle;">12</text><text fill="black" x="-8" y="98" style="text-anchor: end; dominant-baseline: middle;">14</text><text fill="black" x="-8" y="21" style="text-anchor: end; dominant-baseline: middle;">16</text></g></g></g><g></g></g><g></g><g></g><g><g objname="title" objtype="TPaveText" x="336" y="8" width="528" height="40" transform="translate(336,8)" font-family="Arial" font-size="33" space="preserve"><rect x="0" y="0" width="528" height="40" style="fill: none;"></rect><text text-anchor="middle" x="0" y="0" fill="black" transform="translate(264.0,21.0)" dominant-baseline="middle" opacity="1">Profile of pz versus px</text></g></g><g></g><g transform="translate(2,780)"></g></svg>