<svg xmlns="http://www.w3.org/2000/svg" viewBox="0 0 1200 800" preserveAspectRatio="none" width="1200" height="800">
 <title>
  ROOT canvas
 </title>
 <path d="M0,0H1200V800H0Z" style="fill: none;"></path>
 <g>
  <g transform="translate(120,80)">
   <title></title>
   <path d="M0,0H960V640H0Z" style="fill: white; stroke: black; stroke-width: 1;"></path>
   <g clip-path="path('M0,0H960V640H0Z')">
    <g font-family="Arial" font-size="7" space="preserve">
     <text fill="black" text-anchor="start" dy=".4em" transform="translate(24,74) rotate(270)">
      14.5499
     </text>
     <text fill="black" text-anchor="start" dy=".4em" transform="translate(72,172) rotate(270)">
      12.0243
     </text>
     <text fill="black" text-anchor="start" dy=".4em" transform="translate(82,195) rotate(270)">
      11.4068
     </text>
     <text fill="black" text-anchor="start" dy=".4em" transform="translate(91,185) rotate(270)">
      11.6768
     </text>
     <text fill="black" text-anchor="start" dy=".4em" transform="translate(101,221) rotate(270)">
      10.7382
     </text>
     <text fill="black" text-anchor="start" dy=".4em" transform="translate(111,238) rotate(270)">
      10.2992
     </text>
     <text fill="black" text-anchor="start" dy=".4em" transform="translate(120,270) rotate(270)">
      9.4804
     </text>
     <text fill="black" text-anchor="start" dy=".4em" transform="translate(130,273) rotate(270)">
      9.3936
     </text>
     <text fill="black" text-anchor="start" dy=".4em" transform="translate(139,290) rotate(270)">
      8.9596
     </text>
     <text fill="black" text-anchor="start" dy=".4em" transform="translate(149,289) rotate(270)">
      8.9918
     </text>
     <text fill="black" text-anchor="start" dy=".4em" transform="translate(159,321) rotate(270)">
      8.1739
     </text>
     <text fill="black" text-anchor="start" dy=".4em" transform="translate(168,332) rotate(270)">
      7.8820
     </text>
     <text fill="black" text-anchor="start" dy=".4em" transform="translate(178,355) rotate(270)">
      7.2964
     </text>
     <text fill="black" text-anchor="start" dy=".4em" transform="translate(187,356) rotate(270)">
      7.2610
     </text>
     <text fill="black" text-anchor="start" dy=".4em" transform="translate(197,389) rotate(270)">
      6.4032
     </text>
     <text fill="black" text-anchor="start" dy=".4em" transform="translate(207,396) rotate(270)">
      6.2145
     </text>
     <text fill="black" text-anchor="start" dy=".4em" transform="translate(216,407) rotate(270)">
      5.9398
     </text>
     <text fill="black" text-anchor="start" dy=".4em" transform="translate(226,422) rotate(270)">
      5.5443
     </text>
     <text fill="black" text-anchor="start" dy=".4em" transform="translate(235,439) rotate(270)">
      5.1228
     </text>
     <text fill="black" text-anchor="start" dy=".4em" transform="translate(245,450) rotate(270)">
      4.8407
     </text>
     <text fill="black" text-anchor="start" dy=".4em" transform="translate(255,461) rotate(270)">
      4.5347
     </text>
     <text fill="black" text-anchor="start" dy=".4em" transform="translate(264,477) rotate(270)">
      4.1327
     </text>
     <text fill="black" text-anchor="start" dy=".4em" transform="translate(274,488) rotate(270)">
      3.8502
     </text>
     <text fill="black" text-anchor="start" dy=".4em" transform="translate(283,502) rotate(270)">
      3.4880
     </text>
     <text fill="black" text-anchor="start" dy=".4em" transform="translate(293,504) rotate(270)">
      3.4300
     </text>
     <text fill="black" text-anchor="start" dy=".4em" transform="translate(303,504) rotate(270)">
      3.4365
     </text>
     <text fill="black" text-anchor="start" dy=".4em" transform="translate(312,519) rotate(270)">
      3.0579
     </text>
     <text fill="black" text-anchor="start" dy=".4em" transform="translate(322,530) rotate(270)">
      2.7768
     </text>
     <text fill="black" text-anchor="start" dy=".4em" transform="translate(331,538) rotate(270)">
      2.5566
     </text>
     <text fill="black" text-anchor="start" dy=".4em" transform="translate(341,547) rotate(270)">
      2.3230
     </text>
     <text fill="black" text-anchor="start" dy=".4em" transform="translate(351,555) rotate(270)">
      2.1270
     </text>
     <text fill="black" text-anchor="start" dy=".4em" transform="translate(360,560) rotate(270)">
      1.9829
     </text>
     <text fill="black" text-anchor="start" dy=".4em" transform="translate(370,560) rotate(270)">
      1.9945
     </text>
     <text fill="black" text-anchor="start" dy=".4em" transform="translate(379,572) rotate(270)">
      1.6733
     </text>
     <text fill="black" text-anchor="start" dy=".4em" transform="translate(389,575) rotate(270)">
      1.5939
     </text>
     <text fill="black" text-anchor="start" dy=".4em" transform="translate(399,580) rotate(270)">
      1.4603
     </text>
     <text fill="black" text-anchor="start" dy=".4em" transform="translate(408,582) rotate(270)">
      1.4128
     </text>
     <text fill="black" text-anchor="start" dy=".4em" transform="translate(418,588) rotate(270)">
      1.2786
     </text>
     <text fill="black" text-anchor="start" dy=".4em" transform="translate(427,588) rotate(270)">
      1.2546
     </text>
     <text fill="black" text-anchor="start" dy=".4em" transform="translate(437,600) rotate(270)">
      0.9614
     </text>
     <text fill="black" text-anchor="start" dy=".4em" transform="translate(447,595) rotate(270)">
      1.0864
     </text>
     <text fill="black" text-anchor="start" dy=".4em" transform="translate(456,598) rotate(270)">
      1.0171
     </text>
     <text fill="black" text-anchor="start" dy=".4em" transform="translate(466,599) rotate(270)">
      0.9734
     </text>
     <text fill="black" text-anchor="start" dy=".4em" transform="translate(475,596) rotate(270)">
      1.0613
     </text>
     <text fill="black" text-anchor="start" dy=".4em" transform="translate(485,599) rotate(270)">
      0.9857
     </text>
     <text fill="black" text-anchor="start" dy=".4em" transform="translate(495,596) rotate(270)">
      1.0583
     </text>
     <text fill="black" text-anchor="start" dy=".4em" transform="translate(504,601) rotate(270)">
      0.9312
     </text>
     <text fill="black" text-anchor="start" dy=".4em" transform="translate(514,594) rotate(270)">
      1.1005
     </text>
     <text fill="black" text-anchor="start" dy=".4em" transform="translate(523,595) rotate(270)">
      1.0776
     </text>
     <text fill="black" text-anchor="start" dy=".4em" transform="translate(533,592) rotate(270)">
      1.1648
     </text>
     <text fill="black" text-anchor="start" dy=".4em" transform="translate(543,589) rotate(270)">
      1.2374
     </text>
     <text fill="black" text-anchor="start" dy=".4em" transform="translate(552,585) rotate(270)">
      1.3395
     </text>
     <text fill="black" text-anchor="start" dy=".4em" transform="translate(562,580) rotate(270)">
      1.4821
     </text>
     <text fill="black" text-anchor="start" dy=".4em" transform="translate(571,574) rotate(270)">
      1.6164
     </text>
     <text fill="black" text-anchor="start" dy=".4em" transform="translate(581,572) rotate(270)">
      1.6748
     </text>
     <text fill="black" text-anchor="start" dy=".4em" transform="translate(591,567) rotate(270)">
      1.7959
     </text>
     <text fill="black" text-anchor="start" dy=".4em" transform="translate(600,558) rotate(270)">
      2.0461
     </text>
     <text fill="black" text-anchor="start" dy=".4em" transform="translate(610,558) rotate(270)">
      2.0434
     </text>
     <text fill="black" text-anchor="start" dy=".4em" transform="translate(619,544) rotate(270)">
      2.3976
     </text>
     <text fill="black" text-anchor="start" dy=".4em" transform="translate(629,541) rotate(270)">
      2.4795
     </text>
     <text fill="black" text-anchor="start" dy=".4em" transform="translate(639,531) rotate(270)">
      2.7371
     </text>
     <text fill="black" text-anchor="start" dy=".4em" transform="translate(648,521) rotate(270)">
      3.0048
     </text>
     <text fill="black" text-anchor="start" dy=".4em" transform="translate(658,510) rotate(270)">
      3.2820
     </text>
     <text fill="black" text-anchor="start" dy=".4em" transform="translate(667,507) rotate(270)">
      3.3539
     </text>
     <text fill="black" text-anchor="start" dy=".4em" transform="translate(677,494) rotate(270)">
      3.7018
     </text>
     <text fill="black" text-anchor="start" dy=".4em" transform="translate(687,484) rotate(270)">
      3.9452
     </text>
     <text fill="black" text-anchor="start" dy=".4em" transform="translate(696,471) rotate(270)">
      4.2801
     </text>
     <text fill="black" text-anchor="start" dy=".4em" transform="translate(706,459) rotate(270)">
      4.5999
     </text>
     <text fill="black" text-anchor="start" dy=".4em" transform="translate(715,457) rotate(270)">
      4.6604
     </text>
     <text fill="black" text-anchor="start" dy=".4em" transform="translate(725,435) rotate(270)">
      5.2151
     </text>
     <text fill="black" text-anchor="start" dy=".4em" transform="translate(735,434) rotate(270)">
      5.2470
     </text>
     <text fill="black" text-anchor="start" dy=".4em" transform="translate(744,410) rotate(270)">
      5.8601
     </text>
     <text fill="black" text-anchor="start" dy=".4em" transform="translate(754,396) rotate(270)">
      6.2183
     </text>
     <text fill="black" text-anchor="start" dy=".4em" transform="translate(763,383) rotate(270)">
      6.5735
     </text>
     <text fill="black" text-anchor="start" dy=".4em" transform="translate(773,372) rotate(270)">
      6.8437
     </text>
     <text fill="black" text-anchor="start" dy=".4em" transform="translate(783,350) rotate(270)">
      7.4164
     </text>
     <text fill="black" text-anchor="start" dy=".4em" transform="translate(792,347) rotate(270)">
      7.4900
     </text>
     <text fill="black" text-anchor="start" dy=".4em" transform="translate(802,302) rotate(270)">
      8.6611
     </text>
     <text fill="black" text-anchor="start" dy=".4em" transform="translate(811,286) rotate(270)">
      9.0578
     </text>
     <text fill="black" text-anchor="start" dy=".4em" transform="translate(821,279) rotate(270)">
      9.2441
     </text>
     <text fill="black" text-anchor="start" dy=".4em" transform="translate(831,296) rotate(270)">
      8.7983
     </text>
     <text fill="black" text-anchor="start" dy=".4em" transform="translate(840,237) rotate(270)">
      10.3303
     </text>
     <text fill="black" text-anchor="start" dy=".4em" transform="translate(850,187) rotate(270)">
      11.6258
     </text>
     <text fill="black" text-anchor="start" dy=".4em" transform="translate(859,210) rotate(270)">
      11.0253
     </text>
     <text fill="black" text-anchor="start" dy=".4em" transform="translate(869,155) rotate(270)">
      12.4484
     </text>
     <text fill="black" text-anchor="start" dy=".4em" transform="translate(879,190) rotate(270)">
      11.5412
     </text>
     <text fill="black" text-anchor="start" dy=".4em" transform="translate(888,168) rotate(270)">
      12.1216
     </text>
     <text fill="black" text-anchor="start" dy=".4em" transform="translate(898,169) rotate(270)">
      12.0986
     </text>
     <text fill="black" text-anchor="start" dy=".4em" transform="translate(955,27) rotate(270)">
      15.7455
     </text>
     <path d="M0,640h19v-563h10v563h38v-465h10v23h9v-10h10v36h10v17h9v32h10v3h9v17h10v-1h10v32h9v11h10v23h9v1h10v33h10v7h9v11h10v15h9v17h10v11h10v11h9v16h10v11h9v14h10v2h19v15h10v11h9v8h10v9h10v8h9v5h19v12h10v3h10v5h9v2h10v6h19v12h10v-5h9v3h10v1h9v-3h10v3h10v-3h9v5h10v-7h9v1h10v-3h10v-3h9v-4h10v-5h9v-6h10v-2h10v-5h9v-9h19v-14h10v-3h10v-10h9v-10h10v-11h9v-3h10v-13h10v-10h9v-13h10v-12h9v-2h10v-22h10v-1h9v-24h10v-14h9v-13h10v-11h10v-22h9v-3h10v-45h9v-16h10v-7h10v17h9v-59h10v-50h9v23h10v-55h10v35h9v-22h10v1h9v468h48v-610h10" style="stroke-linejoin: miter; stroke: rgb(0,0,154); stroke-width: 1; fill: none;"></path>
    </g>
   </g>
   <g>
    <g transform="translate(0,640)">
     <path d="M0,0h960" style="stroke: black; stroke-width: 1;"></path>
     <path d="M0,-24v24m24,-12v12m24,-12v12m24,-12v12m24,-12v12m24,-24v24m24,-12v12m24,-12v12m24,-12v12m24,-12v12m24,-24v24m24,-12v12m24,-12v12m24,-12v12m24,-12v12m24,-24v24m24,-12v12m24,-12v12m24,-12v12m24,-12v12m24,-24v24m24,-12v12m24,-12v12m24,-12v12m24,-12v12m24,-24v24m24,-12v12m24,-12v12m24,-12v12m24,-12v12m24,-24v24m24,-12v12m24,-12v12m24,-12v12m24,-12v12m24,-24v24m24,-12v12m24,-12v12m24,-12v12m24,-12v12m24,-24v24" style="stroke: black; stroke-width: 1;"></path>
     <g font-family="Arial" font-size="28" space="preserve">
      <text fill="black" text-anchor="middle" dy=".8em" transform="translate(0,6)">
       -4
      </text>
      <text fill="black" text-anchor="middle" dy=".8em" transform="translate(120,6)">
       -3
      </text>
      <text fill="black" text-anchor="middle" dy=".8em" transform="translate(240,6)">
       -2
      </text>
      <text fill="black" text-anchor="middle" dy=".8em" transform="translate(360,6)">
       -1
      </text>
      <text fill="black" text-anchor="middle" dy=".8em" transform="translate(480,6)">
       0
      </text>
      <text fill="black" text-anchor="middle" dy=".8em" transform="translate(600,6)">
       1
      </text>
      <text fill="black" text-anchor="middle" dy=".8em" transform="translate(720,6)">
       2
      </text>
      <text fill="black" text-anchor="middle" dy=".8em" transform="translate(840,6)">
       3
      </text>
      <text fill="black" text-anchor="middle" dy=".8em" transform="translate(960,6)">
       4
      </text>
     </g>
    </g>
    <g>
     <path d="M0,0v640" style="stroke: black; stroke-width: 1;"></path>
     <path d="M36,640h-36m18,-19h-18m18,-20h-18m18,-19h-18m36,-19h-36m18,-20h-18m18,-19h-18m18,-19h-18m36,-20h-36m18,-19h-18m18,-20h-18m18,-19h-18m36,-19h-36m18,-20h-18m18,-19h-18m18,-19h-18m36,-20h-36m18,-19h-18m18,-19h-18m18,-20h-18m36,-19h-36m18,-19h-18m18,-20h-18m18,-19h-18m36,-20h-36m18,-19h-18m18,-19h-18m18,-20h-18m36,-19h-36m18,-19h-18m18,-20h-18m18,-19h-18m36,-19h-36m18,-20h-18" style="stroke: black; stroke-width: 1;"></path>
     <g font-family="Arial" font-size="28" space="preserve">
      <text fill="black" text-anchor="end" dy=".4em" transform="translate(-4,640)">
       0
      </text>
      <text fill="black" text-anchor="end" dy=".4em" transform="translate(-4,563)">
       2
      </text>
      <text fill="black" text-anchor="end" dy=".4em" transform="translate(-4,485)">
       4
      </text>
      <text fill="black" text-anchor="end" dy=".4em" transform="translate(-4,408)">
       6
      </text>
      <text fill="black" text-anchor="end" dy=".4em" transform="translate(-4,330)">
       8
      </text>
      <text fill="black" text-anchor="end" dy=".4em" transform="translate(-4,253)">
       10
      </text>
      <text fill="black" text-anchor="end" dy=".4em" transform="translate(-4,175)">
       12
      </text>
      <text fill="black" text-anchor="end" dy=".4em" transform="translate(-4,98)">
       14
      </text>
      <text fill="black" text-anchor="end" dy=".4em" transform="translate(-4,21)">
       16
      </text>
     </g>
    </g>
   </g>
  </g>
  <g transform="translate(120,4)" font-family="Arial" font-size="40" space="preserve">
   <path d="M0,0H960V53H0Z" style="fill: none;"></path>
   <text fill="black" text-anchor="middle" dy=".8em" transform="translate(480)">
    Profile of pz versus px
   </text>
  </g>
  <g transform="translate(936,52)" font-family="Arial" font-size="22" space="preserve">
   <path d="M0,0H240V212H0Z" style="fill: white; stroke: black; stroke-width: 1;"></path>
   <text fill="black" text-anchor="middle" dy=".4em" transform="translate(120,18)">
    hprof
   </text>
   <text fill="black" text-anchor="start" dy=".4em" transform="translate(12,53)">
    Entries
   </text>
   <text fill="black" text-anchor="end" dy=".4em" transform="translate(228,53)">
    24998
   </text>
   <text fill="black" text-anchor="start" dy=".4em" transform="translate(12,88)">
    Mean
   </text>
   <text fill="black" text-anchor="end" dy=".4em" transform="translate(228,88)">
    0.003129
   </text>
   <text fill="black" text-anchor="start" dy=".4em" transform="translate(12,124)">
    Mean y
   </text>
   <text fill="black" text-anchor="end" dy=".4em" transform="translate(228,124)">
    2.005
   </text>
   <text fill="black" text-anchor="start" dy=".4em" transform="translate(12,159)">
    Std Dev
   </text>
   <text fill="black" text-anchor="end" dy=".4em" transform="translate(228,159)">
    1.004
   </text>
   <text fill="black" text-anchor="start" dy=".4em" transform="translate(12,194)">
    Std Dev y
   </text>
   <text fill="black" text-anchor="end" dy=".4em" transform="translate(228,194)">
    2.008
   </text>
   <path d="M0,35h240" style="stroke: black; stroke-width: 1;"></path>
  </g>
 </g>
</svg>