<svg xmlns="http://www.w3.org/2000/svg" viewBox="0 0 1200 800" preserveAspectRatio="none" width="1200" height="800">
 <path d="M0,0H1200V800H0Z" style="fill: white;"></path>
 <g>
  <g transform="translate(120,80)">
   <path d="M0,0H960V640H0Z" style="fill: white; stroke: black; stroke-width: 1;"></path>
   <svg x="0" y="0" overflow="hidden" width="960" height="640" viewBox="0 0 960 640">
    <g font-family="Arial" font-size="4" xml:space="preserve"><text fill="black" text-anchor="middle" dominant-baseline="middle" transform="translate(24,65)">2</text><text fill="black" text-anchor="middle" dominant-baseline="middle" transform="translate(72,163)">3</text><text fill="black" text-anchor="middle" dominant-baseline="middle" transform="translate(82,186)">4</text><text fill="black" text-anchor="middle" dominant-baseline="middle" transform="translate(91,176)">4</text><text fill="black" text-anchor="middle" dominant-baseline="middle" transform="translate(101,212)">7</text><text fill="black" text-anchor="middle" dominant-baseline="middle" transform="translate(111,229)">5</text><text fill="black" text-anchor="middle" dominant-baseline="middle" transform="translate(120,261)">11</text><text fill="black" text-anchor="middle" dominant-baseline="middle" transform="translate(130,264)">14</text><text fill="black" text-anchor="middle" dominant-baseline="middle" transform="translate(139,281)">15</text><text fill="black" text-anchor="middle" dominant-baseline="middle" transform="translate(149,280)">23</text><text fill="black" text-anchor="middle" dominant-baseline="middle" transform="translate(159,312)">22</text><text fill="black" text-anchor="middle" dominant-baseline="middle" transform="translate(168,323)">33</text><text fill="black" text-anchor="middle" dominant-baseline="middle" transform="translate(178,346)">39</text><text fill="black" text-anchor="middle" dominant-baseline="middle" transform="translate(187,347)">55</text><text fill="black" text-anchor="middle" dominant-baseline="middle" transform="translate(197,380)">48</text><text fill="black" text-anchor="middle" dominant-baseline="middle" transform="translate(207,387)">69</text><text fill="black" text-anchor="middle" dominant-baseline="middle" transform="translate(216,398)">60</text><text fill="black" text-anchor="middle" dominant-baseline="middle" transform="translate(226,413)">85</text><text fill="black" text-anchor="middle" dominant-baseline="middle" transform="translate(235,430)">115</text><text fill="black" text-anchor="middle" dominant-baseline="middle" transform="translate(245,441)">116</text><text fill="black" text-anchor="middle" dominant-baseline="middle" transform="translate(255,452)">121</text><text fill="black" text-anchor="middle" dominant-baseline="middle" transform="translate(264,468)">172</text><text fill="black" text-anchor="middle" dominant-baseline="middle" transform="translate(274,479)">180</text><text fill="black" text-anchor="middle" dominant-baseline="middle" transform="translate(283,493)">196</text><text fill="black" text-anchor="middle" dominant-baseline="middle" transform="translate(293,495)">219</text><text fill="black" text-anchor="middle" dominant-baseline="middle" transform="translate(303,495)">286</text><text fill="black" text-anchor="middle" dominant-baseline="middle" transform="translate(312,510)">290</text><text fill="black" text-anchor="middle" dominant-baseline="middle" transform="translate(322,521)">326</text><text fill="black" text-anchor="middle" dominant-baseline="middle" transform="translate(331,529)">343</text><text fill="black" text-anchor="middle" dominant-baseline="middle" transform="translate(341,538)">395</text><text fill="black" text-anchor="middle" dominant-baseline="middle" transform="translate(351,546)">415</text><text fill="black" text-anchor="middle" dominant-baseline="middle" transform="translate(360,551)">487</text><text fill="black" text-anchor="middle" dominant-baseline="middle" transform="translate(370,551)">536</text><text fill="black" text-anchor="middle" dominant-baseline="middle" transform="translate(379,563)">537</text><text fill="black" text-anchor="middle" dominant-baseline="middle" transform="translate(389,566)">592</text><text fill="black" text-anchor="middle" dominant-baseline="middle" transform="translate(399,571)">630</text><text fill="black" text-anchor="middle" dominant-baseline="middle" transform="translate(408,573)">728</text><text fill="black" text-anchor="middle" dominant-baseline="middle" transform="translate(418,579)">683</text><text fill="black" text-anchor="middle" dominant-baseline="middle" transform="translate(427,579)">759</text><text fill="black" text-anchor="middle" dominant-baseline="middle" transform="translate(437,591)">695</text><text fill="black" text-anchor="middle" dominant-baseline="middle" transform="translate(447,586)">770</text><text fill="black" text-anchor="middle" dominant-baseline="middle" transform="translate(456,589)">809</text><text fill="black" text-anchor="middle" dominant-baseline="middle" transform="translate(466,590)">785</text><text fill="black" text-anchor="middle" dominant-baseline="middle" transform="translate(475,587)">750</text><text fill="black" text-anchor="middle" dominant-baseline="middle" transform="translate(485,590)">801</text><text fill="black" text-anchor="middle" dominant-baseline="middle" transform="translate(495,587)">863</text><text fill="black" text-anchor="middle" dominant-baseline="middle" transform="translate(504,592)">761</text><text fill="black" text-anchor="middle" dominant-baseline="middle" transform="translate(514,585)">757</text><text fill="black" text-anchor="middle" dominant-baseline="middle" transform="translate(523,586)">739</text><text fill="black" text-anchor="middle" dominant-baseline="middle" transform="translate(533,583)">735</text><text fill="black" text-anchor="middle" dominant-baseline="middle" transform="translate(543,580)">664</text><text fill="black" text-anchor="middle" dominant-baseline="middle" transform="translate(552,576)">641</text><text fill="black" text-anchor="middle" dominant-baseline="middle" transform="translate(562,571)">624</text><text fill="black" text-anchor="middle" dominant-baseline="middle" transform="translate(571,565)">589</text><text fill="black" text-anchor="middle" dominant-baseline="middle" transform="translate(581,563)">567</text><text fill="black" text-anchor="middle" dominant-baseline="middle" transform="translate(591,558)">553</text><text fill="black" text-anchor="middle" dominant-baseline="middle" transform="translate(600,549)">502</text><text fill="black" text-anchor="middle" dominant-baseline="middle" transform="translate(610,549)">440</text><text fill="black" text-anchor="middle" dominant-baseline="middle" transform="translate(619,535)">422</text><text fill="black" text-anchor="middle" dominant-baseline="middle" transform="translate(629,532)">392</text><text fill="black" text-anchor="middle" dominant-baseline="middle" transform="translate(639,522)">303</text><text fill="black" text-anchor="middle" dominant-baseline="middle" transform="translate(648,512)">312</text><text fill="black" text-anchor="middle" dominant-baseline="middle" transform="translate(658,501)">271</text><text fill="black" text-anchor="middle" dominant-baseline="middle" transform="translate(667,498)">236</text><text fill="black" text-anchor="middle" dominant-baseline="middle" transform="translate(677,485)">215</text><text fill="black" text-anchor="middle" dominant-baseline="middle" transform="translate(687,475)">184</text><text fill="black" text-anchor="middle" dominant-baseline="middle" transform="translate(696,462)">158</text><text fill="black" text-anchor="middle" dominant-baseline="middle" transform="translate(706,450)">126</text><text fill="black" text-anchor="middle" dominant-baseline="middle" transform="translate(715,448)">128</text><text fill="black" text-anchor="middle" dominant-baseline="middle" transform="translate(725,426)">97</text><text fill="black" text-anchor="middle" dominant-baseline="middle" transform="translate(735,425)">89</text><text fill="black" text-anchor="middle" dominant-baseline="middle" transform="translate(744,401)">67</text><text fill="black" text-anchor="middle" dominant-baseline="middle" transform="translate(754,387)">63</text><text fill="black" text-anchor="middle" dominant-baseline="middle" transform="translate(763,374)">46</text><text fill="black" text-anchor="middle" dominant-baseline="middle" transform="translate(773,363)">35</text><text fill="black" text-anchor="middle" dominant-baseline="middle" transform="translate(783,341)">47</text><text fill="black" text-anchor="middle" dominant-baseline="middle" transform="translate(792,338)">30</text><text fill="black" text-anchor="middle" dominant-baseline="middle" transform="translate(802,293)">23</text><text fill="black" text-anchor="middle" dominant-baseline="middle" transform="translate(811,277)">17</text><text fill="black" text-anchor="middle" dominant-baseline="middle" transform="translate(821,270)">17</text><text fill="black" text-anchor="middle" dominant-baseline="middle" transform="translate(831,287)">12</text><text fill="black" text-anchor="middle" dominant-baseline="middle" transform="translate(840,228)">13</text><text fill="black" text-anchor="middle" dominant-baseline="middle" transform="translate(850,178)">3</text><text fill="black" text-anchor="middle" dominant-baseline="middle" transform="translate(859,201)">8</text><text fill="black" text-anchor="middle" dominant-baseline="middle" transform="translate(869,146)">6</text><text fill="black" text-anchor="middle" dominant-baseline="middle" transform="translate(879,181)">2</text><text fill="black" text-anchor="middle" dominant-baseline="middle" transform="translate(888,159)">2</text><text fill="black" text-anchor="middle" dominant-baseline="middle" transform="translate(898,160)">2</text><text fill="black" text-anchor="middle" dominant-baseline="middle" transform="translate(955,18)">1</text><path d="M0,640h19v-563h10v563h38v-465h10v23h9v-10h10v36h10v17h9v32h10v3h9v17h10v-1h10v32h9v11h10v23h9v1h10v33h10v7h9v11h10v15h9v17h10v11h10v11h9v16h10v11h9v14h10v2h19v15h10v11h9v8h10v9h10v8h9v5h19v12h10v3h10v5h9v2h10v6h19v12h10v-5h9v3h10v1h9v-3h10v3h10v-3h9v5h10v-7h9v1h10v-3h10v-3h9v-4h10v-5h9v-6h10v-2h10v-5h9v-9h19v-14h10v-3h10v-10h9v-10h10v-11h9v-3h10v-13h10v-10h9v-13h10v-12h9v-2h10v-22h10v-1h9v-24h10v-14h9v-13h10v-11h10v-22h9v-3h10v-45h9v-16h10v-7h10v17h9v-59h10v-50h9v23h10v-55h10v35h9v-22h10v1h9v468h48v-610h10" style="stroke-linejoin: miter; stroke: rgb(0, 0, 154); stroke-width: 1; fill: none;"></path></g>
   </svg>
   <g>
    <g transform="translate(0,640)">
     <path d="M0,0h960M0,-19V0M24,-10V0M48,-10V0M72,-10V0M96,-10V0M120,-19V0M144,-10V0M168,-10V0M192,-10V0M216,-10V0M240,-19V0M264,-10V0M288,-10V0M312,-10V0M336,-10V0M360,-19V0M384,-10V0M408,-10V0M432,-10V0M456,-10V0M480,-19V0M504,-10V0M528,-10V0M552,-10V0M576,-10V0M600,-19V0M624,-10V0M648,-10V0M672,-10V0M696,-10V0M720,-19V0M744,-10V0M768,-10V0M792,-10V0M816,-10V0M840,-19V0M864,-10V0M888,-10V0M912,-10V0M936,-10V0M960,-19V0" style="stroke: black; stroke-width: 1;"></path>
     <g font-family="Arial" font-size="28" xml:space="preserve" fill="black" text-anchor="middle"><text dy=".8em" transform="translate(0,5)">-4</text><text dy=".8em" transform="translate(120,5)">-3</text><text dy=".8em" transform="translate(240,5)">-2</text><text dy=".8em" transform="translate(360,5)">-1</text><text dy=".8em" transform="translate(480,5)">0</text><text dy=".8em" transform="translate(600,5)">1</text><text dy=".8em" transform="translate(720,5)">2</text><text dy=".8em" transform="translate(840,5)">3</text><text dy=".8em" transform="translate(960,5)">4</text></g>
    </g>
    <g>
     <path d="M0,0v640M29,640H0M15,621H0M15,601H0M15,582H0M29,563H0M15,543H0M15,524H0M15,505H0M29,485H0M15,466H0M15,446H0M15,427H0M29,408H0M15,388H0M15,369H0M15,350H0M29,330H0M15,311H0M15,292H0M15,272H0M29,253H0M15,234H0M15,214H0M15,195H0M29,175H0M15,156H0M15,137H0M15,117H0M29,98H0M15,79H0M15,59H0M15,40H0M29,21H0M15,1H0" style="stroke: black; stroke-width: 1;"></path>
     <g font-family="Arial" font-size="28" xml:space="preserve" fill="black" text-anchor="end"><text dominant-baseline="middle" transform="translate(-6,640)">0</text><text dominant-baseline="middle" transform="translate(-6,563)">2</text><text dominant-baseline="middle" transform="translate(-6,485)">4</text><text dominant-baseline="middle" transform="translate(-6,408)">6</text><text dominant-baseline="middle" transform="translate(-6,330)">8</text><text dominant-baseline="middle" transform="translate(-6,253)">10</text><text dominant-baseline="middle" transform="translate(-6,175)">12</text><text dominant-baseline="middle" transform="translate(-6,98)">14</text><text dominant-baseline="middle" transform="translate(-6,21)">16</text></g>
    </g>
   </g>
  </g>
  <g transform="translate(936,52)" font-family="Arial" font-size="27" xml:space="preserve" fill="black"><path d="M0,0H240V192H0Z" style="fill: white; stroke: black; stroke-width: 1;"></path><text text-anchor="middle" dominant-baseline="middle" transform="translate(120,16)">hprof</text><text text-anchor="start" dominant-baseline="middle" transform="translate(12,48)">Entries</text><text text-anchor="end" dominant-baseline="middle" transform="translate(228,48)">24998</text><text text-anchor="start" dominant-baseline="middle" transform="translate(12,80)">Mean</text><text text-anchor="end" dominant-baseline="middle" transform="translate(228,80)">0.003129</text><text text-anchor="start" dominant-baseline="middle" transform="translate(12,112)">Mean y</text><text text-anchor="end" dominant-baseline="middle" transform="translate(228,112)">2.005</text><text text-anchor="start" dominant-baseline="middle" transform="translate(12,144)">Std Dev</text><text text-anchor="end" dominant-baseline="middle" transform="translate(228,144)">1.004</text><text text-anchor="start" dominant-baseline="middle" transform="translate(12,176)">Std Dev y</text><text text-anchor="end" dominant-baseline="middle" transform="translate(228,176)">2.008</text><path d="M0,32h240" style="stroke: black; stroke-width: 1;"></path></g>
  <g transform="translate(120,4)" font-family="Arial" font-size="40" xml:space="preserve"><text fill="black" text-anchor="middle" dy=".8em" transform="translate(480)">Profile of pz versus px</text></g>
 </g>
</svg>