<svg xmlns="http://www.w3.org/2000/svg" viewBox="0 0 1200 800" preserveAspectRatio="none" width="1200" height="800">
 <path d="M0,0H1200V800H0Z" style="fill: white;"></path>
 <g>
  <g transform="translate(120,80)">
   <path d="M0,0H960V640H0Z" style="fill: white; stroke: black; stroke-width: 1;"></path>
   <svg x="0" y="0" overflow="hidden" width="960" height="640" viewBox="0 0 960 640">
    <g>
     <g>
      <path d="M128,490a4,4,0,1,0,8,0a4,4,0,1,0,-8,0zM302,296a4,4,0,1,0,8,0a4,4,0,1,0,-8,0zM476,102a4,4,0,1,0,8,0a4,4,0,1,0,-8,0zM650,393a4,4,0,1,0,8,0a4,4,0,1,0,-8,0zM824,199a4,4,0,1,0,8,0a4,4,0,1,0,-8,0z" style="stroke: black; fill: black;"></path>
     </g>
     <g>
      <g transform="translate(306,296)">
       <path d="M0,0H-52l3,5m0,-10l-3,5M0,0H52l-3,5m0,-10l3,5M0,0V48l-5,-3m10,0l-5,3M0,0V-97l-5,3m10,0l-5,-3" style="fill: none; stroke: rgb(255, 0, 0); stroke-width: 1;"></path>
      </g>
      <g transform="translate(480,102)">
       <path d="M0,0H-52l3,5m0,-10l-3,5M0,0H52l-3,5m0,-10l3,5M0,0V97l-5,-3m10,0l-5,3M0,0V-48l-5,3m10,0l-5,-3" style="fill: none; stroke: rgb(255, 0, 0); stroke-width: 1;"></path>
      </g>
      <g transform="translate(654,393)">
       <path d="M0,0H-52l3,5m0,-10l-3,5M0,0H52l-3,5m0,-10l3,5M0,0V48l-5,-3m10,0l-5,3M0,0V-97l-5,3m10,0l-5,-3" style="fill: none; stroke: rgb(255, 0, 0); stroke-width: 1;"></path>
      </g>
      <g transform="translate(828,199)">
       <path d="M0,0H-52l3,5m0,-10l-3,5M0,0H52l-3,5m0,-10l3,5M0,0V97l-5,-3m10,0l-5,3M0,0V-48l-5,3m10,0l-5,-3" style="fill: none; stroke: rgb(255, 0, 0); stroke-width: 1;"></path>
      </g>
     </g>
     <g>
      <g transform="translate(306,296)">
       <path d="M-52,0m2,3h-2v-6h2M52,0m-2,3h2v-6h-2M0,39m-3,-2v2h6v-2M0,-68m-3,2v-2h6v2" style="fill: none; stroke: rgb(0, 0, 255); stroke-width: 1;"></path>
      </g>
      <g transform="translate(480,102)">
       <path d="M-52,0m2,3h-2v-6h2M52,0m-2,3h2v-6h-2M0,78m-3,-2v2h6v-2M0,-58m-3,2v-2h6v2" style="fill: none; stroke: rgb(0, 0, 255); stroke-width: 1;"></path>
      </g>
      <g transform="translate(654,393)">
       <path d="M-52,0m2,3h-2v-6h2M52,0m-2,3h2v-6h-2M0,29m-3,-2v2h6v-2M0,-39m-3,2v-2h6v2" style="fill: none; stroke: rgb(0, 0, 255); stroke-width: 1;"></path>
      </g>
      <g transform="translate(828,199)">
       <path d="M-52,0m2,3h-2v-6h2M52,0m-2,3h2v-6h-2M0,116m-3,-2v2h6v-2M0,-78m-3,2v-2h6v2" style="fill: none; stroke: rgb(0, 0, 255); stroke-width: 1;"></path>
      </g>
     </g>
    </g>
   </svg>
   <g>
    <g transform="translate(0,640)">
     <path d="M0,0h960M28,-10V0M63,-10V0M97,-10V0M132,-19V0M167,-10V0M202,-10V0M237,-10V0M271,-10V0M306,-19V0M341,-10V0M376,-10V0M410,-10V0M445,-10V0M480,-19V0M515,-10V0M550,-10V0M584,-10V0M619,-10V0M654,-19V0M689,-10V0M723,-10V0M758,-10V0M793,-10V0M828,-19V0M863,-10V0M897,-10V0M932,-10V0" style="stroke: black; stroke-width: 1;"></path>
     <g font-family="Arial" font-size="28" xml:space="preserve" fill="black" text-anchor="middle"><text dy=".8em" transform="translate(132,5)">0</text><text dy=".8em" transform="translate(306,5)">1</text><text dy=".8em" transform="translate(480,5)">2</text><text dy=".8em" transform="translate(654,5)">3</text><text dy=".8em" transform="translate(828,5)">4</text></g>
    </g>
    <g>
     <path d="M0,0v640M15,625H0M15,606H0M29,587H0M15,567H0M15,548H0M15,528H0M15,509H0M29,490H0M15,470H0M15,451H0M15,432H0M15,412H0M29,393H0M15,373H0M15,354H0M15,335H0M15,315H0M29,296H0M15,276H0M15,257H0M15,238H0M15,218H0M29,199H0M15,179H0M15,160H0M15,141H0M15,121H0M29,102H0M15,82H0M15,63H0M15,44H0M15,24H0M29,5H0" style="stroke: black; stroke-width: 1;"></path>
     <g font-family="Arial" font-size="28" xml:space="preserve" fill="black" text-anchor="end"><text dominant-baseline="middle" transform="translate(-6,587)">-1</text><text dominant-baseline="middle" transform="translate(-6,490)">0</text><text dominant-baseline="middle" transform="translate(-6,393)">1</text><text dominant-baseline="middle" transform="translate(-6,296)">2</text><text dominant-baseline="middle" transform="translate(-6,199)">3</text><text dominant-baseline="middle" transform="translate(-6,102)">4</text><text dominant-baseline="middle" transform="translate(-6,5)">5</text></g>
    </g>
   </g>
  </g>
  <g transform="translate(120,4)" font-family="Arial" font-size="40" xml:space="preserve"><text fill="black" text-anchor="middle" dy=".8em" transform="translate(480)">TGraphMultiErrors Example</text></g>
 </g>
</svg>